<?xml version="1.0" standalone="no"?>
 <!DOCTYPE svg PUBLIC "-//W3C//DTD SVG 1.1//EN" 
 "http://www.w3.org/Graphics/SVG/1.1/DTD/svg11.dtd"> 
<svg
  xmlns:svg="http://www.w3.org/2000/svg"
  xmlns="http://www.w3.org/2000/svg"
  xmlns:xlink="http://www.w3.org/1999/xlink"
  version="1.1"
  width="431.8000mm" height="279.4000mm" viewBox="0.0000 0.0000 431.8000 279.4000">
<title>SVG Image created as NX-IndicatorBoard-B_Silkscreen.svg date 2024/07/14 13:57:18 </title>
  <desc>Image generated by PCBNEW </desc>
<g style="fill:#000000; fill-opacity:1.0000;stroke:#000000; stroke-opacity:1.0000;
stroke-linecap:round; stroke-linejoin:round;"
 transform="translate(0 0) scale(1 1)">
</g>
<g style="fill:none; 
stroke:#000000; stroke-width:0.1875; stroke-opacity:1; 
stroke-linecap:round; stroke-linejoin:round;">
<text x="403.4028" y="74.2950"
transform="scale(-1 1) translate(-806.805600 0)"
textLength="13.9768" font-size="2.0000" lengthAdjust="spacingAndGlyphs"
text-anchor="start" opacity="0">B.Silkscreen</text>
<g class="stroked-text"><desc>B.Silkscreen</desc>
<path d="M402.4223 73.3160
L402.2080 73.3874
" />
<path d="M402.2080 73.3874
L402.1366 73.4588
" />
<path d="M402.1366 73.4588
L402.0652 73.6017
" />
<path d="M402.0652 73.6017
L402.0652 73.8160
" />
<path d="M402.0652 73.8160
L402.1366 73.9588
" />
<path d="M402.1366 73.9588
L402.2080 74.0302
" />
<path d="M402.2080 74.0302
L402.3509 74.1017
" />
<path d="M402.3509 74.1017
L402.9223 74.1017
" />
<path d="M402.9223 74.1017
L402.9223 72.6017
" />
<path d="M402.9223 72.6017
L402.4223 72.6017
" />
<path d="M402.4223 72.6017
L402.2794 72.6731
" />
<path d="M402.2794 72.6731
L402.2080 72.7445
" />
<path d="M402.2080 72.7445
L402.1366 72.8874
" />
<path d="M402.1366 72.8874
L402.1366 73.0302
" />
<path d="M402.1366 73.0302
L402.2080 73.1731
" />
<path d="M402.2080 73.1731
L402.2794 73.2445
" />
<path d="M402.2794 73.2445
L402.4223 73.3160
" />
<path d="M402.4223 73.3160
L402.9223 73.3160
" />
<path d="M401.4223 73.9588
L401.3509 74.0302
" />
<path d="M401.3509 74.0302
L401.4223 74.1017
" />
<path d="M401.4223 74.1017
L401.4937 74.0302
" />
<path d="M401.4937 74.0302
L401.4223 73.9588
" />
<path d="M401.4223 73.9588
L401.4223 74.1017
" />
<path d="M400.7794 74.0302
L400.5652 74.1017
" />
<path d="M400.5652 74.1017
L400.2080 74.1017
" />
<path d="M400.2080 74.1017
L400.0652 74.0302
" />
<path d="M400.0652 74.0302
L399.9937 73.9588
" />
<path d="M399.9937 73.9588
L399.9223 73.8160
" />
<path d="M399.9223 73.8160
L399.9223 73.6731
" />
<path d="M399.9223 73.6731
L399.9937 73.5302
" />
<path d="M399.9937 73.5302
L400.0652 73.4588
" />
<path d="M400.0652 73.4588
L400.2080 73.3874
" />
<path d="M400.2080 73.3874
L400.4937 73.3160
" />
<path d="M400.4937 73.3160
L400.6366 73.2445
" />
<path d="M400.6366 73.2445
L400.7080 73.1731
" />
<path d="M400.7080 73.1731
L400.7794 73.0302
" />
<path d="M400.7794 73.0302
L400.7794 72.8874
" />
<path d="M400.7794 72.8874
L400.7080 72.7445
" />
<path d="M400.7080 72.7445
L400.6366 72.6731
" />
<path d="M400.6366 72.6731
L400.4937 72.6017
" />
<path d="M400.4937 72.6017
L400.1366 72.6017
" />
<path d="M400.1366 72.6017
L399.9223 72.6731
" />
<path d="M399.2794 74.1017
L399.2794 73.1017
" />
<path d="M399.2794 72.6017
L399.3509 72.6731
" />
<path d="M399.3509 72.6731
L399.2794 72.7445
" />
<path d="M399.2794 72.7445
L399.2080 72.6731
" />
<path d="M399.2080 72.6731
L399.2794 72.6017
" />
<path d="M399.2794 72.6017
L399.2794 72.7445
" />
<path d="M398.3509 74.1017
L398.4937 74.0302
" />
<path d="M398.4937 74.0302
L398.5652 73.8874
" />
<path d="M398.5652 73.8874
L398.5652 72.6017
" />
<path d="M397.7794 74.1017
L397.7794 72.6017
" />
<path d="M397.6366 73.5302
L397.2080 74.1017
" />
<path d="M397.2080 73.1017
L397.7794 73.6731
" />
<path d="M396.6366 74.0302
L396.4937 74.1017
" />
<path d="M396.4937 74.1017
L396.2080 74.1017
" />
<path d="M396.2080 74.1017
L396.0652 74.0302
" />
<path d="M396.0652 74.0302
L395.9937 73.8874
" />
<path d="M395.9937 73.8874
L395.9937 73.8160
" />
<path d="M395.9937 73.8160
L396.0652 73.6731
" />
<path d="M396.0652 73.6731
L396.2080 73.6017
" />
<path d="M396.2080 73.6017
L396.4223 73.6017
" />
<path d="M396.4223 73.6017
L396.5652 73.5302
" />
<path d="M396.5652 73.5302
L396.6366 73.3874
" />
<path d="M396.6366 73.3874
L396.6366 73.3160
" />
<path d="M396.6366 73.3160
L396.5652 73.1731
" />
<path d="M396.5652 73.1731
L396.4223 73.1017
" />
<path d="M396.4223 73.1017
L396.2080 73.1017
" />
<path d="M396.2080 73.1017
L396.0652 73.1731
" />
<path d="M394.7080 74.0302
L394.8509 74.1017
" />
<path d="M394.8509 74.1017
L395.1366 74.1017
" />
<path d="M395.1366 74.1017
L395.2794 74.0302
" />
<path d="M395.2794 74.0302
L395.3509 73.9588
" />
<path d="M395.3509 73.9588
L395.4223 73.8160
" />
<path d="M395.4223 73.8160
L395.4223 73.3874
" />
<path d="M395.4223 73.3874
L395.3509 73.2445
" />
<path d="M395.3509 73.2445
L395.2794 73.1731
" />
<path d="M395.2794 73.1731
L395.1366 73.1017
" />
<path d="M395.1366 73.1017
L394.8509 73.1017
" />
<path d="M394.8509 73.1017
L394.7080 73.1731
" />
<path d="M394.0652 74.1017
L394.0652 73.1017
" />
<path d="M394.0652 73.3874
L393.9937 73.2445
" />
<path d="M393.9937 73.2445
L393.9223 73.1731
" />
<path d="M393.9223 73.1731
L393.7794 73.1017
" />
<path d="M393.7794 73.1017
L393.6366 73.1017
" />
<path d="M392.5652 74.0302
L392.7080 74.1017
" />
<path d="M392.7080 74.1017
L392.9937 74.1017
" />
<path d="M392.9937 74.1017
L393.1366 74.0302
" />
<path d="M393.1366 74.0302
L393.2080 73.8874
" />
<path d="M393.2080 73.8874
L393.2080 73.3160
" />
<path d="M393.2080 73.3160
L393.1366 73.1731
" />
<path d="M393.1366 73.1731
L392.9937 73.1017
" />
<path d="M392.9937 73.1017
L392.7080 73.1017
" />
<path d="M392.7080 73.1017
L392.5652 73.1731
" />
<path d="M392.5652 73.1731
L392.4937 73.3160
" />
<path d="M392.4937 73.3160
L392.4937 73.4588
" />
<path d="M392.4937 73.4588
L393.2080 73.6017
" />
<path d="M391.2794 74.0302
L391.4223 74.1017
" />
<path d="M391.4223 74.1017
L391.7080 74.1017
" />
<path d="M391.7080 74.1017
L391.8509 74.0302
" />
<path d="M391.8509 74.0302
L391.9223 73.8874
" />
<path d="M391.9223 73.8874
L391.9223 73.3160
" />
<path d="M391.9223 73.3160
L391.8509 73.1731
" />
<path d="M391.8509 73.1731
L391.7080 73.1017
" />
<path d="M391.7080 73.1017
L391.4223 73.1017
" />
<path d="M391.4223 73.1017
L391.2794 73.1731
" />
<path d="M391.2794 73.1731
L391.2080 73.3160
" />
<path d="M391.2080 73.3160
L391.2080 73.4588
" />
<path d="M391.2080 73.4588
L391.9223 73.6017
" />
<path d="M390.5652 73.1017
L390.5652 74.1017
" />
<path d="M390.5652 73.2445
L390.4937 73.1731
" />
<path d="M390.4937 73.1731
L390.3509 73.1017
" />
<path d="M390.3509 73.1017
L390.1366 73.1017
" />
<path d="M390.1366 73.1017
L389.9937 73.1731
" />
<path d="M389.9937 73.1731
L389.9223 73.3160
" />
<path d="M389.9223 73.3160
L389.9223 74.1017
" />
</g></g>
<g style="fill:none; 
stroke:#000000; stroke-width:0.1524; stroke-opacity:1; 
stroke-linecap:round; stroke-linejoin:round;">
<text x="325.8058" y="109.6848"
textLength="2.2376" font-size="1.3547" lengthAdjust="spacingAndGlyphs"
text-anchor="middle" opacity="0">C7</text>
<g class="stroked-text"><desc>C7</desc>
<path d="M325.6365 109.5421
L325.5881 109.5905
" />
<path d="M325.5881 109.5905
L325.4429 109.6389
" />
<path d="M325.4429 109.6389
L325.3462 109.6389
" />
<path d="M325.3462 109.6389
L325.2010 109.5905
" />
<path d="M325.2010 109.5905
L325.1043 109.4938
" />
<path d="M325.1043 109.4938
L325.0559 109.3970
" />
<path d="M325.0559 109.3970
L325.0075 109.2035
" />
<path d="M325.0075 109.2035
L325.0075 109.0583
" />
<path d="M325.0075 109.0583
L325.0559 108.8648
" />
<path d="M325.0559 108.8648
L325.1043 108.7680
" />
<path d="M325.1043 108.7680
L325.2010 108.6713
" />
<path d="M325.2010 108.6713
L325.3462 108.6229
" />
<path d="M325.3462 108.6229
L325.4429 108.6229
" />
<path d="M325.4429 108.6229
L325.5881 108.6713
" />
<path d="M325.5881 108.6713
L325.6365 108.7197
" />
<path d="M325.9751 108.6229
L326.6525 108.6229
" />
<path d="M326.6525 108.6229
L326.2170 109.6389
" />
</g><g transform="rotate(90.000000 362.0008 118.5672)">
<text x="362.0008" y="119.0752"
textLength="1.9957" font-size="1.3547" lengthAdjust="spacingAndGlyphs"
text-anchor="middle" opacity="0">J6</text>
</g>
<g class="stroked-text"><desc>J6</desc>
<path d="M362.5547 118.2285
L361.8290 118.2285
" />
<path d="M361.8290 118.2285
L361.6838 118.1802
" />
<path d="M361.6838 118.1802
L361.5871 118.0834
" />
<path d="M361.5871 118.0834
L361.5387 117.9382
" />
<path d="M361.5387 117.9382
L361.5387 117.8415
" />
<path d="M362.5547 119.1478
L362.5547 118.9542
" />
<path d="M362.5547 118.9542
L362.5063 118.8575
" />
<path d="M362.5063 118.8575
L362.4579 118.8091
" />
<path d="M362.4579 118.8091
L362.3128 118.7123
" />
<path d="M362.3128 118.7123
L362.1193 118.6640
" />
<path d="M362.1193 118.6640
L361.7322 118.6640
" />
<path d="M361.7322 118.6640
L361.6355 118.7123
" />
<path d="M361.6355 118.7123
L361.5871 118.7607
" />
<path d="M361.5871 118.7607
L361.5387 118.8575
" />
<path d="M361.5387 118.8575
L361.5387 119.0510
" />
<path d="M361.5387 119.0510
L361.5871 119.1478
" />
<path d="M361.5871 119.1478
L361.6355 119.1962
" />
<path d="M361.6355 119.1962
L361.7322 119.2445
" />
<path d="M361.7322 119.2445
L361.9741 119.2445
" />
<path d="M361.9741 119.2445
L362.0709 119.1962
" />
<path d="M362.0709 119.1962
L362.1193 119.1478
" />
<path d="M362.1193 119.1478
L362.1677 119.0510
" />
<path d="M362.1677 119.0510
L362.1677 118.8575
" />
<path d="M362.1677 118.8575
L362.1193 118.7607
" />
<path d="M362.1193 118.7607
L362.0709 118.7123
" />
<path d="M362.0709 118.7123
L361.9741 118.6640
" />
</g><g transform="rotate(90.000000 340.4616 102.6922)">
<text x="340.4616" y="103.2002"
textLength="2.2376" font-size="1.3547" lengthAdjust="spacingAndGlyphs"
text-anchor="middle" opacity="0">R8</text>
</g>
<g class="stroked-text"><desc>R8</desc>
<path d="M339.9995 102.5229
L340.4833 102.1842
" />
<path d="M339.9995 101.9423
L341.0155 101.9423
" />
<path d="M341.0155 101.9423
L341.0155 102.3293
" />
<path d="M341.0155 102.3293
L340.9671 102.4261
" />
<path d="M340.9671 102.4261
L340.9187 102.4745
" />
<path d="M340.9187 102.4745
L340.8220 102.5229
" />
<path d="M340.8220 102.5229
L340.6768 102.5229
" />
<path d="M340.6768 102.5229
L340.5801 102.4745
" />
<path d="M340.5801 102.4745
L340.5317 102.4261
" />
<path d="M340.5317 102.4261
L340.4833 102.3293
" />
<path d="M340.4833 102.3293
L340.4833 101.9423
" />
<path d="M340.5801 103.1034
L340.6285 103.0067
" />
<path d="M340.6285 103.0067
L340.6768 102.9583
" />
<path d="M340.6768 102.9583
L340.7736 102.9099
" />
<path d="M340.7736 102.9099
L340.8220 102.9099
" />
<path d="M340.8220 102.9099
L340.9187 102.9583
" />
<path d="M340.9187 102.9583
L340.9671 103.0067
" />
<path d="M340.9671 103.0067
L341.0155 103.1034
" />
<path d="M341.0155 103.1034
L341.0155 103.2970
" />
<path d="M341.0155 103.2970
L340.9671 103.3937
" />
<path d="M340.9671 103.3937
L340.9187 103.4421
" />
<path d="M340.9187 103.4421
L340.8220 103.4905
" />
<path d="M340.8220 103.4905
L340.7736 103.4905
" />
<path d="M340.7736 103.4905
L340.6768 103.4421
" />
<path d="M340.6768 103.4421
L340.6285 103.3937
" />
<path d="M340.6285 103.3937
L340.5801 103.2970
" />
<path d="M340.5801 103.2970
L340.5801 103.1034
" />
<path d="M340.5801 103.1034
L340.5317 103.0067
" />
<path d="M340.5317 103.0067
L340.4833 102.9583
" />
<path d="M340.4833 102.9583
L340.3866 102.9099
" />
<path d="M340.3866 102.9099
L340.1930 102.9099
" />
<path d="M340.1930 102.9099
L340.0963 102.9583
" />
<path d="M340.0963 102.9583
L340.0479 103.0067
" />
<path d="M340.0479 103.0067
L339.9995 103.1034
" />
<path d="M339.9995 103.1034
L339.9995 103.2970
" />
<path d="M339.9995 103.2970
L340.0479 103.3937
" />
<path d="M340.0479 103.3937
L340.0963 103.4421
" />
<path d="M340.0963 103.4421
L340.1930 103.4905
" />
<path d="M340.1930 103.4905
L340.3866 103.4905
" />
<path d="M340.3866 103.4905
L340.4833 103.4421
" />
<path d="M340.4833 103.4421
L340.5317 103.3937
" />
<path d="M340.5317 103.3937
L340.5801 103.2970
" />
</g><text x="302.9458" y="109.6848"
textLength="2.2376" font-size="1.3547" lengthAdjust="spacingAndGlyphs"
text-anchor="middle" opacity="0">C6</text>
<g class="stroked-text"><desc>C6</desc>
<path d="M302.7765 109.5421
L302.7281 109.5905
" />
<path d="M302.7281 109.5905
L302.5829 109.6389
" />
<path d="M302.5829 109.6389
L302.4862 109.6389
" />
<path d="M302.4862 109.6389
L302.3410 109.5905
" />
<path d="M302.3410 109.5905
L302.2443 109.4938
" />
<path d="M302.2443 109.4938
L302.1959 109.3970
" />
<path d="M302.1959 109.3970
L302.1475 109.2035
" />
<path d="M302.1475 109.2035
L302.1475 109.0583
" />
<path d="M302.1475 109.0583
L302.1959 108.8648
" />
<path d="M302.1959 108.8648
L302.2443 108.7680
" />
<path d="M302.2443 108.7680
L302.3410 108.6713
" />
<path d="M302.3410 108.6713
L302.4862 108.6229
" />
<path d="M302.4862 108.6229
L302.5829 108.6229
" />
<path d="M302.5829 108.6229
L302.7281 108.6713
" />
<path d="M302.7281 108.6713
L302.7765 108.7197
" />
<path d="M303.6473 108.6229
L303.4538 108.6229
" />
<path d="M303.4538 108.6229
L303.3570 108.6713
" />
<path d="M303.3570 108.6713
L303.3087 108.7197
" />
<path d="M303.3087 108.7197
L303.2119 108.8648
" />
<path d="M303.2119 108.8648
L303.1635 109.0583
" />
<path d="M303.1635 109.0583
L303.1635 109.4454
" />
<path d="M303.1635 109.4454
L303.2119 109.5421
" />
<path d="M303.2119 109.5421
L303.2603 109.5905
" />
<path d="M303.2603 109.5905
L303.3570 109.6389
" />
<path d="M303.3570 109.6389
L303.5506 109.6389
" />
<path d="M303.5506 109.6389
L303.6473 109.5905
" />
<path d="M303.6473 109.5905
L303.6957 109.5421
" />
<path d="M303.6957 109.5421
L303.7441 109.4454
" />
<path d="M303.7441 109.4454
L303.7441 109.2035
" />
<path d="M303.7441 109.2035
L303.6957 109.1067
" />
<path d="M303.6957 109.1067
L303.6473 109.0583
" />
<path d="M303.6473 109.0583
L303.5506 109.0099
" />
<path d="M303.5506 109.0099
L303.3570 109.0099
" />
<path d="M303.3570 109.0099
L303.2603 109.0583
" />
<path d="M303.2603 109.0583
L303.2119 109.1067
" />
<path d="M303.2119 109.1067
L303.1635 109.2035
" />
</g><text x="325.8058" y="112.7328"
textLength="2.2376" font-size="1.3547" lengthAdjust="spacingAndGlyphs"
text-anchor="middle" opacity="0">C9</text>
<g class="stroked-text"><desc>C9</desc>
<path d="M325.6365 112.5901
L325.5881 112.6385
" />
<path d="M325.5881 112.6385
L325.4429 112.6869
" />
<path d="M325.4429 112.6869
L325.3462 112.6869
" />
<path d="M325.3462 112.6869
L325.2010 112.6385
" />
<path d="M325.2010 112.6385
L325.1043 112.5418
" />
<path d="M325.1043 112.5418
L325.0559 112.4450
" />
<path d="M325.0559 112.4450
L325.0075 112.2515
" />
<path d="M325.0075 112.2515
L325.0075 112.1063
" />
<path d="M325.0075 112.1063
L325.0559 111.9128
" />
<path d="M325.0559 111.9128
L325.1043 111.8160
" />
<path d="M325.1043 111.8160
L325.2010 111.7193
" />
<path d="M325.2010 111.7193
L325.3462 111.6709
" />
<path d="M325.3462 111.6709
L325.4429 111.6709
" />
<path d="M325.4429 111.6709
L325.5881 111.7193
" />
<path d="M325.5881 111.7193
L325.6365 111.7677
" />
<path d="M326.1203 112.6869
L326.3138 112.6869
" />
<path d="M326.3138 112.6869
L326.4106 112.6385
" />
<path d="M326.4106 112.6385
L326.4589 112.5901
" />
<path d="M326.4589 112.5901
L326.5557 112.4450
" />
<path d="M326.5557 112.4450
L326.6041 112.2515
" />
<path d="M326.6041 112.2515
L326.6041 111.8644
" />
<path d="M326.6041 111.8644
L326.5557 111.7677
" />
<path d="M326.5557 111.7677
L326.5073 111.7193
" />
<path d="M326.5073 111.7193
L326.4106 111.6709
" />
<path d="M326.4106 111.6709
L326.2170 111.6709
" />
<path d="M326.2170 111.6709
L326.1203 111.7193
" />
<path d="M326.1203 111.7193
L326.0719 111.7677
" />
<path d="M326.0719 111.7677
L326.0235 111.8644
" />
<path d="M326.0235 111.8644
L326.0235 112.1063
" />
<path d="M326.0235 112.1063
L326.0719 112.2031
" />
<path d="M326.0719 112.2031
L326.1203 112.2515
" />
<path d="M326.1203 112.2515
L326.2170 112.2998
" />
<path d="M326.2170 112.2998
L326.4106 112.2998
" />
<path d="M326.4106 112.2998
L326.5073 112.2515
" />
<path d="M326.5073 112.2515
L326.5557 112.2031
" />
<path d="M326.5557 112.2031
L326.6041 112.1063
" />
</g><g transform="rotate(90.000000 337.4136 102.6922)">
<text x="337.4136" y="103.2002"
textLength="2.2376" font-size="1.3547" lengthAdjust="spacingAndGlyphs"
text-anchor="middle" opacity="0">R6</text>
</g>
<g class="stroked-text"><desc>R6</desc>
<path d="M336.9515 102.5229
L337.4353 102.1842
" />
<path d="M336.9515 101.9423
L337.9675 101.9423
" />
<path d="M337.9675 101.9423
L337.9675 102.3293
" />
<path d="M337.9675 102.3293
L337.9191 102.4261
" />
<path d="M337.9191 102.4261
L337.8707 102.4745
" />
<path d="M337.8707 102.4745
L337.7740 102.5229
" />
<path d="M337.7740 102.5229
L337.6288 102.5229
" />
<path d="M337.6288 102.5229
L337.5321 102.4745
" />
<path d="M337.5321 102.4745
L337.4837 102.4261
" />
<path d="M337.4837 102.4261
L337.4353 102.3293
" />
<path d="M337.4353 102.3293
L337.4353 101.9423
" />
<path d="M337.9675 103.3937
L337.9675 103.2002
" />
<path d="M337.9675 103.2002
L337.9191 103.1034
" />
<path d="M337.9191 103.1034
L337.8707 103.0551
" />
<path d="M337.8707 103.0551
L337.7256 102.9583
" />
<path d="M337.7256 102.9583
L337.5321 102.9099
" />
<path d="M337.5321 102.9099
L337.1450 102.9099
" />
<path d="M337.1450 102.9099
L337.0483 102.9583
" />
<path d="M337.0483 102.9583
L336.9999 103.0067
" />
<path d="M336.9999 103.0067
L336.9515 103.1034
" />
<path d="M336.9515 103.1034
L336.9515 103.2970
" />
<path d="M336.9515 103.2970
L336.9999 103.3937
" />
<path d="M336.9999 103.3937
L337.0483 103.4421
" />
<path d="M337.0483 103.4421
L337.1450 103.4905
" />
<path d="M337.1450 103.4905
L337.3869 103.4905
" />
<path d="M337.3869 103.4905
L337.4837 103.4421
" />
<path d="M337.4837 103.4421
L337.5321 103.3937
" />
<path d="M337.5321 103.3937
L337.5805 103.2970
" />
<path d="M337.5805 103.2970
L337.5805 103.1034
" />
<path d="M337.5805 103.1034
L337.5321 103.0067
" />
<path d="M337.5321 103.0067
L337.4837 102.9583
" />
<path d="M337.4837 102.9583
L337.3869 102.9099
" />
</g><g transform="rotate(90.000000 337.5076 98.2980)">
<text x="337.5076" y="98.8060"
textLength="2.2376" font-size="1.3547" lengthAdjust="spacingAndGlyphs"
text-anchor="middle" opacity="0">C5</text>
</g>
<g class="stroked-text"><desc>C5</desc>
<path d="M337.1423 98.1287
L337.0939 98.0803
" />
<path d="M337.0939 98.0803
L337.0455 97.9351
" />
<path d="M337.0455 97.9351
L337.0455 97.8384
" />
<path d="M337.0455 97.8384
L337.0939 97.6932
" />
<path d="M337.0939 97.6932
L337.1906 97.5965
" />
<path d="M337.1906 97.5965
L337.2874 97.5481
" />
<path d="M337.2874 97.5481
L337.4809 97.4997
" />
<path d="M337.4809 97.4997
L337.6261 97.4997
" />
<path d="M337.6261 97.4997
L337.8196 97.5481
" />
<path d="M337.8196 97.5481
L337.9164 97.5965
" />
<path d="M337.9164 97.5965
L338.0131 97.6932
" />
<path d="M338.0131 97.6932
L338.0615 97.8384
" />
<path d="M338.0615 97.8384
L338.0615 97.9351
" />
<path d="M338.0615 97.9351
L338.0131 98.0803
" />
<path d="M338.0131 98.0803
L337.9647 98.1287
" />
<path d="M338.0615 99.0479
L338.0615 98.5641
" />
<path d="M338.0615 98.5641
L337.5777 98.5157
" />
<path d="M337.5777 98.5157
L337.6261 98.5641
" />
<path d="M337.6261 98.5641
L337.6745 98.6609
" />
<path d="M337.6745 98.6609
L337.6745 98.9028
" />
<path d="M337.6745 98.9028
L337.6261 98.9995
" />
<path d="M337.6261 98.9995
L337.5777 99.0479
" />
<path d="M337.5777 99.0479
L337.4809 99.0963
" />
<path d="M337.4809 99.0963
L337.2390 99.0963
" />
<path d="M337.2390 99.0963
L337.1423 99.0479
" />
<path d="M337.1423 99.0479
L337.0939 98.9995
" />
<path d="M337.0939 98.9995
L337.0455 98.9028
" />
<path d="M337.0455 98.9028
L337.0455 98.6609
" />
<path d="M337.0455 98.6609
L337.0939 98.5641
" />
<path d="M337.0939 98.5641
L337.1423 98.5157
" />
</g><text x="302.9458" y="112.7328"
textLength="2.2376" font-size="1.3547" lengthAdjust="spacingAndGlyphs"
text-anchor="middle" opacity="0">C8</text>
<g class="stroked-text"><desc>C8</desc>
<path d="M302.7765 112.5901
L302.7281 112.6385
" />
<path d="M302.7281 112.6385
L302.5829 112.6869
" />
<path d="M302.5829 112.6869
L302.4862 112.6869
" />
<path d="M302.4862 112.6869
L302.3410 112.6385
" />
<path d="M302.3410 112.6385
L302.2443 112.5418
" />
<path d="M302.2443 112.5418
L302.1959 112.4450
" />
<path d="M302.1959 112.4450
L302.1475 112.2515
" />
<path d="M302.1475 112.2515
L302.1475 112.1063
" />
<path d="M302.1475 112.1063
L302.1959 111.9128
" />
<path d="M302.1959 111.9128
L302.2443 111.8160
" />
<path d="M302.2443 111.8160
L302.3410 111.7193
" />
<path d="M302.3410 111.7193
L302.4862 111.6709
" />
<path d="M302.4862 111.6709
L302.5829 111.6709
" />
<path d="M302.5829 111.6709
L302.7281 111.7193
" />
<path d="M302.7281 111.7193
L302.7765 111.7677
" />
<path d="M303.3570 112.1063
L303.2603 112.0579
" />
<path d="M303.2603 112.0579
L303.2119 112.0096
" />
<path d="M303.2119 112.0096
L303.1635 111.9128
" />
<path d="M303.1635 111.9128
L303.1635 111.8644
" />
<path d="M303.1635 111.8644
L303.2119 111.7677
" />
<path d="M303.2119 111.7677
L303.2603 111.7193
" />
<path d="M303.2603 111.7193
L303.3570 111.6709
" />
<path d="M303.3570 111.6709
L303.5506 111.6709
" />
<path d="M303.5506 111.6709
L303.6473 111.7193
" />
<path d="M303.6473 111.7193
L303.6957 111.7677
" />
<path d="M303.6957 111.7677
L303.7441 111.8644
" />
<path d="M303.7441 111.8644
L303.7441 111.9128
" />
<path d="M303.7441 111.9128
L303.6957 112.0096
" />
<path d="M303.6957 112.0096
L303.6473 112.0579
" />
<path d="M303.6473 112.0579
L303.5506 112.1063
" />
<path d="M303.5506 112.1063
L303.3570 112.1063
" />
<path d="M303.3570 112.1063
L303.2603 112.1547
" />
<path d="M303.2603 112.1547
L303.2119 112.2031
" />
<path d="M303.2119 112.2031
L303.1635 112.2998
" />
<path d="M303.1635 112.2998
L303.1635 112.4934
" />
<path d="M303.1635 112.4934
L303.2119 112.5901
" />
<path d="M303.2119 112.5901
L303.2603 112.6385
" />
<path d="M303.2603 112.6385
L303.3570 112.6869
" />
<path d="M303.3570 112.6869
L303.5506 112.6869
" />
<path d="M303.5506 112.6869
L303.6473 112.6385
" />
<path d="M303.6473 112.6385
L303.6957 112.5901
" />
<path d="M303.6957 112.5901
L303.7441 112.4934
" />
<path d="M303.7441 112.4934
L303.7441 112.2998
" />
<path d="M303.7441 112.2998
L303.6957 112.2031
" />
<path d="M303.6957 112.2031
L303.6473 112.1547
" />
<path d="M303.6473 112.1547
L303.5506 112.1063
" />
</g><g transform="rotate(90.000000 338.9376 102.6922)">
<text x="338.9376" y="103.2002"
textLength="2.2376" font-size="1.3547" lengthAdjust="spacingAndGlyphs"
text-anchor="middle" opacity="0">R7</text>
</g>
<g class="stroked-text"><desc>R7</desc>
<path d="M338.4755 102.5229
L338.9593 102.1842
" />
<path d="M338.4755 101.9423
L339.4915 101.9423
" />
<path d="M339.4915 101.9423
L339.4915 102.3293
" />
<path d="M339.4915 102.3293
L339.4431 102.4261
" />
<path d="M339.4431 102.4261
L339.3947 102.4745
" />
<path d="M339.3947 102.4745
L339.2980 102.5229
" />
<path d="M339.2980 102.5229
L339.1528 102.5229
" />
<path d="M339.1528 102.5229
L339.0561 102.4745
" />
<path d="M339.0561 102.4745
L339.0077 102.4261
" />
<path d="M339.0077 102.4261
L338.9593 102.3293
" />
<path d="M338.9593 102.3293
L338.9593 101.9423
" />
<path d="M339.4915 102.8615
L339.4915 103.5389
" />
<path d="M339.4915 103.5389
L338.4755 103.1034
" />
</g></g>
<g style="fill:none; 
stroke:#000000; stroke-width:0.1200; stroke-opacity:1; 
stroke-linecap:round; stroke-linejoin:round;">
<path d="M325.6652 107.2368
L325.9464 107.2368
" />
<path d="M325.6652 108.2568
L325.9464 108.2568
" />
<path d="M369.7732 114.7064
L369.7732 122.3264
" />
<path d="M369.7732 122.3264
L367.6921 122.3264
" />
<path d="M367.6921 114.7064
L369.7732 114.7064
" />
<path d="M364.9963 122.3264
L362.9152 122.3264
" />
<path d="M362.9152 114.7064
L364.9963 114.7064
" />
<path d="M362.9152 122.3264
L362.9152 114.7064
" />
<path style="fill:#000000; fill-opacity:1.0000; 
stroke:#000000; stroke-width:0.2000; stroke-opacity:1; 
stroke-linecap:round; stroke-linejoin:round;fill-rule:evenodd;"
d="M 368.8842,119.7864
369.6462,120.5484
369.6462,119.0244
Z" /> 
</g>
<g style="fill:none; 
stroke:#000000; stroke-width:0.1200; stroke-opacity:1; 
stroke-linecap:round; stroke-linejoin:round;">
<path d="M340.9841 104.7917
L340.9841 105.2663
" />
<path d="M339.9391 104.7917
L339.9391 105.2663
" />
<path d="M302.8052 107.2368
L303.0864 107.2368
" />
<path d="M302.8052 108.2568
L303.0864 108.2568
" />
<path d="M325.6652 110.2848
L325.9464 110.2848
" />
<path d="M325.6652 111.3048
L325.9464 111.3048
" />
<path d="M337.9361 104.7917
L337.9361 105.2663
" />
<path d="M336.8911 104.7917
L336.8911 105.2663
" />
<path d="M339.4476 98.1574
L339.4476 98.4386
" />
<path d="M338.4276 98.1574
L338.4276 98.4386
" />
<path d="M302.8052 110.2848
L303.0864 110.2848
" />
<path d="M302.8052 111.3048
L303.0864 111.3048
" />
<path d="M339.4601 104.7917
L339.4601 105.2663
" />
<path d="M338.4151 104.7917
L338.4151 105.2663
" />
</g>
<g style="fill:#FFFFFF; fill-opacity:1.0000; stroke:none;">
<circle cx="273.8000" cy="102.8600" r="0.5100" /> 
</g>
<g style="fill:#FFFFFF; fill-opacity:1.0000; stroke:none;">
<circle cx="273.8000" cy="57.1400" r="0.5100" /> 
</g>
<g style="fill:#FFFFFF; fill-opacity:1.0000; stroke:none;">
<circle cx="272.5300" cy="104.1300" r="0.5100" /> 
</g>
<g style="fill:#FFFFFF; fill-opacity:1.0000; stroke:none;">
<circle cx="275.0700" cy="104.1300" r="0.5100" /> 
</g>
<g style="fill:#FFFFFF; fill-opacity:1.0000; stroke:none;">
<circle cx="272.5300" cy="101.5900" r="0.5100" /> 
</g>
<g style="fill:#FFFFFF; fill-opacity:1.0000; stroke:none;">
<circle cx="275.0700" cy="101.5900" r="0.5100" /> 
</g>
<g style="fill:#FFFFFF; fill-opacity:1.0000; stroke:none;">
<circle cx="272.5300" cy="99.0500" r="0.5100" /> 
</g>
<g style="fill:#FFFFFF; fill-opacity:1.0000; stroke:none;">
<circle cx="275.0700" cy="99.0500" r="0.5100" /> 
</g>
<g style="fill:#FFFFFF; fill-opacity:1.0000; stroke:none;">
<circle cx="272.5300" cy="96.5100" r="0.5100" /> 
</g>
<g style="fill:#FFFFFF; fill-opacity:1.0000; stroke:none;">
<circle cx="275.0700" cy="96.5100" r="0.5100" /> 
</g>
<g style="fill:#FFFFFF; fill-opacity:1.0000; stroke:none;">
<circle cx="272.5300" cy="93.9700" r="0.5100" /> 
</g>
<g style="fill:#FFFFFF; fill-opacity:1.0000; stroke:none;">
<circle cx="275.0700" cy="93.9700" r="0.5100" /> 
</g>
<g style="fill:#FFFFFF; fill-opacity:1.0000; stroke:none;">
<circle cx="272.5300" cy="91.4300" r="0.5100" /> 
</g>
<g style="fill:#FFFFFF; fill-opacity:1.0000; stroke:none;">
<circle cx="275.0700" cy="91.4300" r="0.5100" /> 
</g>
<g style="fill:#FFFFFF; fill-opacity:1.0000; stroke:none;">
<circle cx="272.5300" cy="88.8900" r="0.5100" /> 
</g>
<g style="fill:#FFFFFF; fill-opacity:1.0000; stroke:none;">
<circle cx="275.0700" cy="88.8900" r="0.5100" /> 
</g>
<g style="fill:#FFFFFF; fill-opacity:1.0000; stroke:none;">
<circle cx="272.5300" cy="86.3500" r="0.5100" /> 
</g>
<g style="fill:#FFFFFF; fill-opacity:1.0000; stroke:none;">
<circle cx="275.0700" cy="86.3500" r="0.5100" /> 
</g>
<g style="fill:#FFFFFF; fill-opacity:1.0000; stroke:none;">
<circle cx="272.5300" cy="83.8100" r="0.5100" /> 
</g>
<g style="fill:#FFFFFF; fill-opacity:1.0000; stroke:none;">
<circle cx="275.0700" cy="83.8100" r="0.5100" /> 
</g>
<g style="fill:#FFFFFF; fill-opacity:1.0000; stroke:none;">
<circle cx="272.5300" cy="81.2700" r="0.5100" /> 
</g>
<g style="fill:#FFFFFF; fill-opacity:1.0000; stroke:none;">
<circle cx="275.0700" cy="81.2700" r="0.5100" /> 
</g>
<g style="fill:#FFFFFF; fill-opacity:1.0000; stroke:none;">
<circle cx="272.5300" cy="78.7300" r="0.5100" /> 
</g>
<g style="fill:#FFFFFF; fill-opacity:1.0000; stroke:none;">
<circle cx="275.0700" cy="78.7300" r="0.5100" /> 
</g>
<g style="fill:#FFFFFF; fill-opacity:1.0000; stroke:none;">
<circle cx="272.5300" cy="76.1900" r="0.5100" /> 
</g>
<g style="fill:#FFFFFF; fill-opacity:1.0000; stroke:none;">
<circle cx="275.0700" cy="76.1900" r="0.5100" /> 
</g>
<g style="fill:#FFFFFF; fill-opacity:1.0000; stroke:none;">
<circle cx="272.5300" cy="73.6500" r="0.5100" /> 
</g>
<g style="fill:#FFFFFF; fill-opacity:1.0000; stroke:none;">
<circle cx="275.0700" cy="73.6500" r="0.5100" /> 
</g>
<g style="fill:#FFFFFF; fill-opacity:1.0000; stroke:none;">
<circle cx="272.5300" cy="71.1100" r="0.5100" /> 
</g>
<g style="fill:#FFFFFF; fill-opacity:1.0000; stroke:none;">
<circle cx="275.0700" cy="71.1100" r="0.5100" /> 
</g>
<g style="fill:#FFFFFF; fill-opacity:1.0000; stroke:none;">
<circle cx="272.5300" cy="68.5700" r="0.5100" /> 
</g>
<g style="fill:#FFFFFF; fill-opacity:1.0000; stroke:none;">
<circle cx="275.0700" cy="68.5700" r="0.5100" /> 
</g>
<g style="fill:#FFFFFF; fill-opacity:1.0000; stroke:none;">
<circle cx="272.5300" cy="66.0300" r="0.5100" /> 
</g>
<g style="fill:#FFFFFF; fill-opacity:1.0000; stroke:none;">
<circle cx="275.0700" cy="66.0300" r="0.5100" /> 
</g>
<g style="fill:#FFFFFF; fill-opacity:1.0000; stroke:none;">
<circle cx="272.5300" cy="63.4900" r="0.5100" /> 
</g>
<g style="fill:#FFFFFF; fill-opacity:1.0000; stroke:none;">
<circle cx="275.0700" cy="63.4900" r="0.5100" /> 
</g>
<g style="fill:#FFFFFF; fill-opacity:1.0000; stroke:none;">
<circle cx="272.5300" cy="60.9500" r="0.5100" /> 
</g>
<g style="fill:#FFFFFF; fill-opacity:1.0000; stroke:none;">
<circle cx="275.0700" cy="60.9500" r="0.5100" /> 
</g>
<g style="fill:#FFFFFF; fill-opacity:1.0000; stroke:none;">
<circle cx="272.5300" cy="58.4100" r="0.5100" /> 
</g>
<g style="fill:#FFFFFF; fill-opacity:1.0000; stroke:none;">
<circle cx="275.0700" cy="58.4100" r="0.5100" /> 
</g>
<g style="fill:#FFFFFF; fill-opacity:1.0000; stroke:none;">
<circle cx="272.5300" cy="55.8700" r="0.5100" /> 
</g>
<g style="fill:#FFFFFF; fill-opacity:1.0000; stroke:none;">
<circle cx="275.0700" cy="55.8700" r="0.5100" /> 
</g>
<g style="fill:#FFFFFF; fill-opacity:1.0000; stroke:none;">
<circle cx="352.0640" cy="124.7340" r="0.6250" /> 
</g>
<g style="fill:#FFFFFF; fill-opacity:1.0000; stroke:none;">
<circle cx="357.2640" cy="108.3340" r="0.6250" /> 
</g>
<g style="fill:#FFFFFF; fill-opacity:1.0000; stroke:none;">
<circle cx="323.5960" cy="106.2990" r="0.2500" /> 
</g>
<g style="fill:#FFFFFF; fill-opacity:1.0000; stroke:none;">
<circle cx="320.1640" cy="121.5430" r="1.7000" /> 
</g>
<g style="fill:#FFFFFF; fill-opacity:1.0000; stroke:none;">
<circle cx="325.5040" cy="121.5430" r="1.7000" /> 
</g>
<g style="fill:#FFFFFF; fill-opacity:1.0000; stroke:none;">
<circle cx="321.5640" cy="112.9030" r="0.5334" /> 
</g>
<g style="fill:#FFFFFF; fill-opacity:1.0000; stroke:none;">
<circle cx="324.1040" cy="112.9030" r="0.5334" /> 
</g>
<g style="fill:#FFFFFF; fill-opacity:1.0000; stroke:none;">
<circle cx="349.3900" cy="108.3340" r="0.6250" /> 
</g>
<g style="fill:#FFFFFF; fill-opacity:1.0000; stroke:none;">
<circle cx="344.1900" cy="124.7340" r="0.6250" /> 
</g>
<g style="fill:#FFFFFF; fill-opacity:1.0000; stroke:none;">
<circle cx="300.7360" cy="106.2990" r="0.2500" /> 
</g>
<g style="fill:#FFFFFF; fill-opacity:1.0000; stroke:none;">
<circle cx="273.8000" cy="51.0000" r="1.3500" /> 
</g>
<g style="fill:#FFFFFF; fill-opacity:1.0000; stroke:none;">
<circle cx="287.1694" cy="121.5430" r="1.7000" /> 
</g>
<g style="fill:#FFFFFF; fill-opacity:1.0000; stroke:none;">
<circle cx="292.5094" cy="121.5430" r="1.7000" /> 
</g>
<g style="fill:#FFFFFF; fill-opacity:1.0000; stroke:none;">
<circle cx="288.5694" cy="112.9030" r="0.5334" /> 
</g>
<g style="fill:#FFFFFF; fill-opacity:1.0000; stroke:none;">
<circle cx="291.1094" cy="112.9030" r="0.5334" /> 
</g>
<g style="fill:#FFFFFF; fill-opacity:1.0000; stroke:none;">
<circle cx="279.8000" cy="51.0000" r="1.3500" /> 
</g>
<g style="fill:#FFFFFF; fill-opacity:1.0000; stroke:none;">
<circle cx="279.8000" cy="109.0000" r="1.3500" /> 
</g>
<g style="fill:#FFFFFF; fill-opacity:1.0000; stroke:none;">
<circle cx="365.8000" cy="109.0000" r="1.3500" /> 
</g>
<g style="fill:#FFFFFF; fill-opacity:1.0000; stroke:none;">
<circle cx="273.8000" cy="109.0000" r="1.3500" /> 
</g>
<g style="fill:#FFFFFF; fill-opacity:1.0000; stroke:none;">
<circle cx="310.0040" cy="121.5430" r="1.7000" /> 
</g>
<g style="fill:#FFFFFF; fill-opacity:1.0000; stroke:none;">
<circle cx="315.3440" cy="121.5430" r="1.7000" /> 
</g>
<g style="fill:#FFFFFF; fill-opacity:1.0000; stroke:none;">
<circle cx="311.4040" cy="112.9030" r="0.5334" /> 
</g>
<g style="fill:#FFFFFF; fill-opacity:1.0000; stroke:none;">
<circle cx="313.9440" cy="112.9030" r="0.5334" /> 
</g>
<g style="fill:#FFFFFF; fill-opacity:1.0000; stroke:none;">
<circle cx="297.3040" cy="121.5430" r="1.7000" /> 
</g>
<g style="fill:#FFFFFF; fill-opacity:1.0000; stroke:none;">
<circle cx="302.6440" cy="121.5430" r="1.7000" /> 
</g>
<g style="fill:#FFFFFF; fill-opacity:1.0000; stroke:none;">
<circle cx="298.7040" cy="112.9030" r="0.5334" /> 
</g>
<g style="fill:#FFFFFF; fill-opacity:1.0000; stroke:none;">
<circle cx="301.2440" cy="112.9030" r="0.5334" /> 
</g>
<g style="fill:#FFFFFF; fill-opacity:1.0000; stroke:none;">
<circle cx="336.3160" cy="124.7340" r="0.6250" /> 
</g>
<g style="fill:#FFFFFF; fill-opacity:1.0000; stroke:none;">
<circle cx="341.5160" cy="108.3340" r="0.6250" /> 
</g>
<g style="fill:#FFFFFF; fill-opacity:1.0000; stroke:none;">
<circle cx="365.5822" cy="119.7864" r="0.5461" /> 
</g>
<g style="fill:#FFFFFF; fill-opacity:1.0000; stroke:none;">
<circle cx="365.5822" cy="117.2464" r="0.5461" /> 
</g>
<g style="fill:none; 
stroke:#000000; stroke-width:0.1000; stroke-opacity:1; 
stroke-linecap:round; stroke-linejoin:round;">
<path d="M283.0932 52.5300 A0.6350 0.6350 0.0 0 0 283.1910 52.1914" />
<path d="M282.5204 53.4388 A0.6350 0.6350 0.0 0 0 282.4226 53.7775" />
<path d="M283.1910 52.1914
L283.1910 49.6000
" />
<path d="M282.5204 53.4388
L283.0932 52.5300
" />
<path d="M367.2078 102.0064
L357.3286 102.0078
" />
<path d="M369.8078 104.6064 A2.6000 2.6000 0.0 0 0 367.2078 102.0064" />
<path d="M355.8286 100.5078
L355.8300 93.1700
" />
<path d="M355.8286 100.5078 A1.5000 1.5000 0.0 0 0 357.3286 102.0078" />
<path d="M369.8000 123.4000
L369.8078 104.6064
" />
<path d="M271.9830 47.0170 A2.6000 2.6000 0.0 0 0 269.3830 49.6170" />
<path d="M272.0000 126.0000
L367.2000 126.0000
" />
<path d="M271.9830 47.0170
L280.5910 47.0000
" />
<path d="M269.3830 49.6170
L269.4000 123.4000
" />
<path d="M283.1910 49.6000 A2.6000 2.6000 0.0 0 0 280.5910 47.0000" />
<path d="M282.4226 53.7775
L282.4290 89.0700
" />
<path d="M353.2300 90.5700
L283.9290 90.5700
" />
<path d="M355.8300 93.1700 A2.6000 2.6000 0.0 0 0 353.2300 90.5700" />
<path d="M269.4000 123.4000 A2.6000 2.6000 0.0 0 0 272.0000 126.0000" />
<path d="M282.4290 89.0700 A1.5000 1.5000 0.0 0 0 283.9290 90.5700" />
<path d="M367.2000 126.0000 A2.6000 2.6000 0.0 0 0 369.8000 123.4000" />
</g> 
</svg>
