  0
SECTION
  2
HEADER
  9
$ANGBASE
  50
0.0
  9
$ANGDIR
  70
1
  9
$MEASUREMENT
  70
0
  0
ENDSEC
  0
SECTION
  2
TABLES
  0
TABLE
  2
LTYPE
  70
4
  0
LTYPE
  5
40F
  2
CONTINUOUS
  70
0
  3
Solid line
  72
65
  73
0
  40
0.0
  0
LTYPE
  5
410
  2
DASHDOT
 70
0
  3
Dash Dot ____ _ ____ _
 72
65
 73
4
 40
2.0
 49
1.25
 49
-0.25
 49
0.25
 49
-0.25
  0
LTYPE
  5
411
  2
DASHED
 70
0
  3
Dashed __ __ __ __ __
 72
65
 73
2
 40
0.75
 49
0.5
 49
-0.25
  0
LTYPE
  5
43B
  2
DOTTED
 70
0
  3
Dotted .  .  .  .
 72
65
 73
2
 40
0.2
 49
0.0
 49
-0.2
  0
ENDTAB
  0
TABLE
  2
STYLE
  70
4
  0
STYLE
  2
KICAD
  70
0
  40
0
  41
1
  42
1
  50
0
  71
0
  3
isocp.shx
  0
STYLE
  2
KICADB
  70
0
  40
0
  41
1
  42
1
  50
0
  71
0
  3
isocp.shx
  0
STYLE
  2
KICADI
  70
0
  40
0
  41
1
  42
1
  50
15
  71
0
  3
isocp.shx
  0
STYLE
  2
KICADBI
  70
0
  40
0
  41
1
  42
1
  50
15
  71
0
  3
isocp.shx
  0
ENDTAB
  0
TABLE
  2
LAYER
  70
1
  0
LAYER
  2
BLACK
  70
0
  62
7
  6
CONTINUOUS
  0
ENDTAB
  0
ENDSEC
  0
SECTION
  2
ENTITIES
0
ARC
8
BLACK
10
5.8757480314960633
20
-2.054779527559055
40
0.0249997712207896
50
-180.00090230
51
-147.77956068
0
ARC
8
BLACK
10
5.8559999999999999
20
-2.1172204724409447
40
0.0249998057354037
50
-0.00676758
51
32.22614901
0
LINE
8
BLACK
6
CONTINUOUS
10
5.8507480314960629
20
-2.0547791338582675
11
5.8507480314960629
21
-1.9527559055118109
0
LINE
8
BLACK
6
CONTINUOUS
10
5.8771485826771652
20
-2.1038890157480314
11
5.8545981496062991
21
-2.0681088582677165
0
LINE
8
BLACK
6
CONTINUOUS
10
2.5430000000000001
20
-4.016
11
2.9319448818897635
21
-4.016055118110236
0
ARC
8
BLACK
10
2.5430000000000001
20
-4.1183622047244093
40
0.1023622047244094
50
90.00000000
51
180.00000000
0
LINE
8
BLACK
6
CONTINUOUS
10
2.9910000000000001
20
-3.9569999999999999
11
2.9909448818897637
21
-3.6681102362204725
0
ARC
8
BLACK
10
2.9319448425196848
20
-3.9569999606299211
40
0.0590551574803281
50
-89.99996180
51
-0.00003820
0
LINE
8
BLACK
6
CONTINUOUS
10
2.4409448818897639
20
-4.8582677165354333
11
2.4406377952755904
21
-4.1183622047244093
0
ARC
8
BLACK
10
6.2920078740157477
20
-1.9534251968503937
40
0.1023633070925499
50
0.00061704
51
90.00061702
0
LINE
8
BLACK
6
CONTINUOUS
10
6.2913385826771648
20
-4.9606299212598426
11
2.5433070866141732
21
-4.9606299212598426
0
LINE
8
BLACK
6
CONTINUOUS
10
6.2920067716535435
20
-1.8510618897637794
11
5.9531102362204722
21
-1.8503937007874016
0
LINE
8
BLACK
6
CONTINUOUS
10
6.3943689763779528
20
-1.9534240944881889
11
6.393700787401575
21
-4.8582677165354333
0
ARC
8
BLACK
10
5.9531102362204722
20
-1.9527559055118109
40
0.1023622047244094
50
90.00000000
51
180.00000000
0
LINE
8
BLACK
6
CONTINUOUS
10
5.8809986614173226
20
-2.1172234251968503
11
5.8807480314960632
21
-3.5066929133858267
0
LINE
8
BLACK
6
CONTINUOUS
10
3.093307086614173
20
-3.5657480314960628
11
5.8216929133858271
21
-3.5657480314960628
0
ARC
8
BLACK
10
3.093307086614173
20
-3.6681102362204725
40
0.1023622047244094
50
90.00000000
51
180.00000000
0
ARC
8
BLACK
10
6.2913385826771648
20
-4.8582677165354333
40
0.1023622047244094
50
-90.00000000
51
-0.00000000
0
ARC
8
BLACK
10
5.8216929133858271
20
-3.5066929133858267
40
0.0590551181102362
50
-90.00000000
51
-0.00000000
0
ARC
8
BLACK
10
2.5433070866141732
20
-4.8582677165354333
40
0.1023622047244094
50
-180.00000000
51
-90.00000000
0
LINE
8
BLACK
6
CONTINUOUS
10
2.9098818897637795
20
-4.2405118110236222
11
2.9590944881889762
21
-4.2897244094488185
0
LINE
8
BLACK
6
CONTINUOUS
10
2.9590944881889762
20
-4.2405118110236222
11
2.9098818897637795
21
-4.2897244094488185
0
LINE
8
BLACK
6
CONTINUOUS
10
3.1146062992125985
20
-4.8861811023622046
11
3.1638188976377952
21
-4.9353937007874018
0
LINE
8
BLACK
6
CONTINUOUS
10
3.1638188976377952
20
-4.8861811023622046
11
3.1146062992125985
21
-4.9353937007874018
0
LINE
8
BLACK
6
CONTINUOUS
10
3.2198818897637795
20
-4.2405118110236222
11
3.2690944881889763
21
-4.2897244094488185
0
LINE
8
BLACK
6
CONTINUOUS
10
3.2690944881889763
20
-4.2405118110236222
11
3.2198818897637795
21
-4.2897244094488185
0
LINE
8
BLACK
6
CONTINUOUS
10
3.4246062992125985
20
-4.8861811023622046
11
3.4738188976377953
21
-4.9353937007874018
0
LINE
8
BLACK
6
CONTINUOUS
10
3.4738188976377953
20
-4.8861811023622046
11
3.4246062992125985
21
-4.9353937007874018
0
LINE
8
BLACK
6
CONTINUOUS
10
3.5298818897637796
20
-4.2405118110236222
11
3.5790944881889764
21
-4.2897244094488185
0
LINE
8
BLACK
6
CONTINUOUS
10
3.5790944881889764
20
-4.2405118110236222
11
3.5298818897637796
21
-4.2897244094488185
0
LINE
8
BLACK
6
CONTINUOUS
10
3.7346062992125981
20
-4.8861811023622046
11
3.7838188976377953
21
-4.9353937007874018
0
LINE
8
BLACK
6
CONTINUOUS
10
3.7838188976377953
20
-4.8861811023622046
11
3.7346062992125981
21
-4.9353937007874018
0
CIRCLE
8
BLACK
10
6.2204724409448815
20
-2.2496062992125982
40
0.0354330708661417
0
CIRCLE
8
BLACK
10
6.2204724409448815
20
-4.0496062992125985
40
0.0354330708661417
0
LINE
8
BLACK
6
CONTINUOUS
10
4.1848818897637798
20
-4.7182283464566925
11
4.1848818897637798
21
-4.8520866141732286
0
LINE
8
BLACK
6
CONTINUOUS
10
4.1179527559055114
20
-4.7851574803149601
11
4.2518110236220474
21
-4.7851574803149601
0
LINE
8
BLACK
6
CONTINUOUS
10
4.3951181102362202
20
-4.7182283464566925
11
4.3951181102362202
21
-4.8520866141732286
0
LINE
8
BLACK
6
CONTINUOUS
10
4.3281889763779526
20
-4.7851574803149601
11
4.4620472440944878
21
-4.7851574803149601
0
LINE
8
BLACK
6
CONTINUOUS
10
4.5848818897637793
20
-4.7182283464566925
11
4.5848818897637793
21
-4.8520866141732286
0
LINE
8
BLACK
6
CONTINUOUS
10
4.5179527559055117
20
-4.7851574803149601
11
4.6518110236220469
21
-4.7851574803149601
0
LINE
8
BLACK
6
CONTINUOUS
10
4.7951181102362206
20
-4.7182283464566925
11
4.7951181102362206
21
-4.8520866141732286
0
LINE
8
BLACK
6
CONTINUOUS
10
4.728188976377953
20
-4.7851574803149601
11
4.8620472440944882
21
-4.7851574803149601
0
LINE
8
BLACK
6
CONTINUOUS
10
5.0848818897637793
20
-4.7182283464566925
11
5.0848818897637793
21
-4.8520866141732286
0
LINE
8
BLACK
6
CONTINUOUS
10
5.0179527559055117
20
-4.7851574803149601
11
5.1518110236220469
21
-4.7851574803149601
0
LINE
8
BLACK
6
CONTINUOUS
10
5.2951181102362206
20
-4.7182283464566925
11
5.2951181102362206
21
-4.8520866141732286
0
LINE
8
BLACK
6
CONTINUOUS
10
5.228188976377953
20
-4.7851574803149601
11
5.3620472440944882
21
-4.7851574803149601
0
LINE
8
BLACK
6
CONTINUOUS
10
5.4838818897637793
20
-4.7182283464566925
11
5.4838818897637793
21
-4.8520866141732286
0
LINE
8
BLACK
6
CONTINUOUS
10
5.4169527559055117
20
-4.7851574803149601
11
5.5508110236220469
21
-4.7851574803149601
0
LINE
8
BLACK
6
CONTINUOUS
10
5.6941181102362206
20
-4.7182283464566925
11
5.6941181102362206
21
-4.8520866141732286
0
LINE
8
BLACK
6
CONTINUOUS
10
5.627188976377953
20
-4.7851574803149601
11
5.7610472440944882
21
-4.7851574803149601
0
LINE
8
BLACK
6
CONTINUOUS
10
2.5413373228346456
20
-5.0852298425196851
11
2.5413373228346456
21
-5.0064896850393703
0
LINE
8
BLACK
6
CONTINUOUS
10
2.5413373228346456
20
-5.0064896850393703
11
2.5600849606299212
21
-5.0064896850393703
0
LINE
8
BLACK
6
CONTINUOUS
10
2.5600849606299212
20
-5.0064896850393703
11
2.5713335826771653
21
-5.0102392125984254
0
LINE
8
BLACK
6
CONTINUOUS
10
2.5713335826771653
20
-5.0102392125984254
11
2.5788326377952755
21
-5.0177382677165356
0
LINE
8
BLACK
6
CONTINUOUS
10
2.5788326377952755
20
-5.0177382677165356
11
2.5825821653543306
21
-5.0252373228346459
0
LINE
8
BLACK
6
CONTINUOUS
10
2.5825821653543306
20
-5.0252373228346459
11
2.5863316929133857
21
-5.0402354330708663
0
LINE
8
BLACK
6
CONTINUOUS
10
2.5863316929133857
20
-5.0402354330708663
11
2.5863316929133857
21
-5.0514840551181104
0
LINE
8
BLACK
6
CONTINUOUS
10
2.5863316929133857
20
-5.0514840551181104
11
2.5825821653543306
21
-5.0664821653543308
0
LINE
8
BLACK
6
CONTINUOUS
10
2.5825821653543306
20
-5.0664821653543308
11
2.5788326377952755
21
-5.073981220472441
0
LINE
8
BLACK
6
CONTINUOUS
10
2.5788326377952755
20
-5.073981220472441
11
2.5713335826771653
21
-5.08148031496063
0
LINE
8
BLACK
6
CONTINUOUS
10
2.5713335826771653
20
-5.08148031496063
11
2.5600849606299212
21
-5.0852298425196851
0
LINE
8
BLACK
6
CONTINUOUS
10
2.5600849606299212
20
-5.0852298425196851
11
2.5413373228346456
21
-5.0852298425196851
0
LINE
8
BLACK
6
CONTINUOUS
10
2.6200774803149605
20
-5.0852298425196851
11
2.6200774803149605
21
-5.0327363779527561
0
LINE
8
BLACK
6
CONTINUOUS
10
2.6200774803149605
20
-5.0477345275590553
11
2.6238270078740156
21
-5.0402354330708663
0
LINE
8
BLACK
6
CONTINUOUS
10
2.6238270078740156
20
-5.0402354330708663
11
2.6275765354330707
21
-5.0364859055118112
0
LINE
8
BLACK
6
CONTINUOUS
10
2.6275765354330707
20
-5.0364859055118112
11
2.6350755905511809
21
-5.0327363779527561
0
LINE
8
BLACK
6
CONTINUOUS
10
2.6350755905511809
20
-5.0327363779527561
11
2.6425746850393699
21
-5.0327363779527561
0
LINE
8
BLACK
6
CONTINUOUS
10
2.6688213779527556
20
-5.0852298425196851
11
2.6688213779527556
21
-5.0327363779527561
0
LINE
8
BLACK
6
CONTINUOUS
10
2.6688213779527556
20
-5.0064896850393703
11
2.6650718503937005
21
-5.0102392125984254
0
LINE
8
BLACK
6
CONTINUOUS
10
2.6650718503937005
20
-5.0102392125984254
11
2.6688213779527556
21
-5.0139887401574805
0
LINE
8
BLACK
6
CONTINUOUS
10
2.6688213779527556
20
-5.0139887401574805
11
2.6725709055118108
21
-5.0102392125984254
0
LINE
8
BLACK
6
CONTINUOUS
10
2.6725709055118108
20
-5.0102392125984254
11
2.6688213779527556
21
-5.0064896850393703
0
LINE
8
BLACK
6
CONTINUOUS
10
2.6688213779527556
20
-5.0064896850393703
11
2.6688213779527556
21
-5.0139887401574805
0
LINE
8
BLACK
6
CONTINUOUS
10
2.7175652755905513
20
-5.0852298425196851
11
2.7100662204724411
21
-5.08148031496063
0
LINE
8
BLACK
6
CONTINUOUS
10
2.7100662204724411
20
-5.08148031496063
11
2.7063166929133859
21
-5.073981220472441
0
LINE
8
BLACK
6
CONTINUOUS
10
2.7063166929133859
20
-5.073981220472441
11
2.7063166929133859
21
-5.0064896850393703
0
LINE
8
BLACK
6
CONTINUOUS
10
2.7588101181102362
20
-5.0852298425196851
11
2.751311062992126
21
-5.08148031496063
0
LINE
8
BLACK
6
CONTINUOUS
10
2.751311062992126
20
-5.08148031496063
11
2.7475615354330709
21
-5.073981220472441
0
LINE
8
BLACK
6
CONTINUOUS
10
2.7475615354330709
20
-5.073981220472441
11
2.7475615354330709
21
-5.0064896850393703
0
LINE
8
BLACK
6
CONTINUOUS
10
2.8487988976377951
20
-5.0852298425196851
11
2.8487988976377951
21
-5.0064896850393703
0
LINE
8
BLACK
6
CONTINUOUS
10
2.8487988976377951
20
-5.0064896850393703
11
2.8750456299212597
21
-5.0627326377952757
0
LINE
8
BLACK
6
CONTINUOUS
10
2.8750456299212597
20
-5.0627326377952757
11
2.9012923228346454
21
-5.0064896850393703
0
LINE
8
BLACK
6
CONTINUOUS
10
2.9012923228346454
20
-5.0064896850393703
11
2.9012923228346454
21
-5.0852298425196851
0
LINE
8
BLACK
6
CONTINUOUS
10
2.9725334251968505
20
-5.0852298425196851
11
2.9725334251968505
21
-5.0439850000000002
0
LINE
8
BLACK
6
CONTINUOUS
10
2.9725334251968505
20
-5.0439850000000002
11
2.9687838976377954
21
-5.0364859055118112
0
LINE
8
BLACK
6
CONTINUOUS
10
2.9687838976377954
20
-5.0364859055118112
11
2.9612848425196852
21
-5.0327363779527561
0
LINE
8
BLACK
6
CONTINUOUS
10
2.9612848425196852
20
-5.0327363779527561
11
2.946286692913386
21
-5.0327363779527561
0
LINE
8
BLACK
6
CONTINUOUS
10
2.946286692913386
20
-5.0327363779527561
11
2.9387876377952757
21
-5.0364859055118112
0
LINE
8
BLACK
6
CONTINUOUS
10
2.9725334251968505
20
-5.08148031496063
11
2.9650343700787403
21
-5.0852298425196851
0
LINE
8
BLACK
6
CONTINUOUS
10
2.9650343700787403
20
-5.0852298425196851
11
2.946286692913386
21
-5.0852298425196851
0
LINE
8
BLACK
6
CONTINUOUS
10
2.946286692913386
20
-5.0852298425196851
11
2.9387876377952757
21
-5.08148031496063
0
LINE
8
BLACK
6
CONTINUOUS
10
2.9387876377952757
20
-5.08148031496063
11
2.9350381102362202
21
-5.073981220472441
0
LINE
8
BLACK
6
CONTINUOUS
10
2.9350381102362202
20
-5.073981220472441
11
2.9350381102362202
21
-5.0664821653543308
0
LINE
8
BLACK
6
CONTINUOUS
10
2.9350381102362202
20
-5.0664821653543308
11
2.9387876377952757
21
-5.0589831102362206
0
LINE
8
BLACK
6
CONTINUOUS
10
2.9387876377952757
20
-5.0589831102362206
11
2.946286692913386
21
-5.0552335826771655
0
LINE
8
BLACK
6
CONTINUOUS
10
2.946286692913386
20
-5.0552335826771655
11
2.9650343700787403
21
-5.0552335826771655
0
LINE
8
BLACK
6
CONTINUOUS
10
2.9650343700787403
20
-5.0552335826771655
11
2.9725334251968505
21
-5.0514840551181104
0
LINE
8
BLACK
6
CONTINUOUS
10
3.0100287401574803
20
-5.0327363779527561
11
3.0100287401574803
21
-5.1114765354330709
0
LINE
8
BLACK
6
CONTINUOUS
10
3.0100287401574803
20
-5.0364859055118112
11
3.0175277952755906
21
-5.0327363779527561
0
LINE
8
BLACK
6
CONTINUOUS
10
3.0175277952755906
20
-5.0327363779527561
11
3.0325259448818898
21
-5.0327363779527561
0
LINE
8
BLACK
6
CONTINUOUS
10
3.0325259448818898
20
-5.0327363779527561
11
3.040025
21
-5.0364859055118112
0
LINE
8
BLACK
6
CONTINUOUS
10
3.040025
20
-5.0364859055118112
11
3.0437745275590551
21
-5.0402354330708663
0
LINE
8
BLACK
6
CONTINUOUS
10
3.0437745275590551
20
-5.0402354330708663
11
3.0475240551181102
21
-5.0477345275590553
0
LINE
8
BLACK
6
CONTINUOUS
10
3.0475240551181102
20
-5.0477345275590553
11
3.0475240551181102
21
-5.0702316929133859
0
LINE
8
BLACK
6
CONTINUOUS
10
3.0475240551181102
20
-5.0702316929133859
11
3.0437745275590551
21
-5.0777307480314962
0
LINE
8
BLACK
6
CONTINUOUS
10
3.0437745275590551
20
-5.0777307480314962
11
3.040025
21
-5.08148031496063
0
LINE
8
BLACK
6
CONTINUOUS
10
3.040025
20
-5.08148031496063
11
3.0325259448818898
21
-5.0852298425196851
0
LINE
8
BLACK
6
CONTINUOUS
10
3.0325259448818898
20
-5.0852298425196851
11
3.0175277952755906
21
-5.0852298425196851
0
LINE
8
BLACK
6
CONTINUOUS
10
3.0175277952755906
20
-5.0852298425196851
11
3.0100287401574803
21
-5.08148031496063
0
LINE
8
BLACK
6
CONTINUOUS
10
3.0812698425196849
20
-5.0777307480314962
11
3.0850193700787401
21
-5.08148031496063
0
LINE
8
BLACK
6
CONTINUOUS
10
3.0850193700787401
20
-5.08148031496063
11
3.0812698425196849
21
-5.0852298425196851
0
LINE
8
BLACK
6
CONTINUOUS
10
3.0812698425196849
20
-5.0852298425196851
11
3.0775203149606298
21
-5.08148031496063
0
LINE
8
BLACK
6
CONTINUOUS
10
3.0775203149606298
20
-5.08148031496063
11
3.0812698425196849
21
-5.0777307480314962
0
LINE
8
BLACK
6
CONTINUOUS
10
3.0812698425196849
20
-5.0777307480314962
11
3.0812698425196849
21
-5.0852298425196851
0
LINE
8
BLACK
6
CONTINUOUS
10
3.0812698425196849
20
-5.0364859055118112
11
3.0850193700787401
21
-5.0402354330708663
0
LINE
8
BLACK
6
CONTINUOUS
10
3.0850193700787401
20
-5.0402354330708663
11
3.0812698425196849
21
-5.0439850000000002
0
LINE
8
BLACK
6
CONTINUOUS
10
3.0812698425196849
20
-5.0439850000000002
11
3.0775203149606298
21
-5.0402354330708663
0
LINE
8
BLACK
6
CONTINUOUS
10
3.0775203149606298
20
-5.0402354330708663
11
3.0812698425196849
21
-5.0364859055118112
0
LINE
8
BLACK
6
CONTINUOUS
10
3.0812698425196849
20
-5.0364859055118112
11
3.0812698425196849
21
-5.0439850000000002
0
LINE
8
BLACK
6
CONTINUOUS
10
2.3894566929133858
20
-5.1899606299212593
11
2.4386692913385826
21
-5.2391732283464565
0
LINE
8
BLACK
6
CONTINUOUS
10
2.4386692913385826
20
-5.1899606299212593
11
2.3894566929133858
21
-5.2391732283464565
0
LINE
8
BLACK
6
CONTINUOUS
10
2.5825821653543306
20
-5.2505841732283463
11
2.5375877952755905
21
-5.2505841732283463
0
LINE
8
BLACK
6
CONTINUOUS
10
2.5600849606299212
20
-5.2505841732283463
11
2.5600849606299212
21
-5.1718440157480314
0
LINE
8
BLACK
6
CONTINUOUS
10
2.5600849606299212
20
-5.1718440157480314
11
2.552585905511811
21
-5.1830925984251968
0
LINE
8
BLACK
6
CONTINUOUS
10
2.552585905511811
20
-5.1830925984251968
11
2.5450868503937008
21
-5.190591653543307
0
LINE
8
BLACK
6
CONTINUOUS
10
2.5450868503937008
20
-5.190591653543307
11
2.5375877952755905
21
-5.1943411811023621
0
LINE
8
BLACK
6
CONTINUOUS
10
2.6163279527559054
20
-5.2430850787401573
11
2.6200774803149605
21
-5.2468346456692911
0
LINE
8
BLACK
6
CONTINUOUS
10
2.6200774803149605
20
-5.2468346456692911
11
2.6163279527559054
21
-5.2505841732283463
0
LINE
8
BLACK
6
CONTINUOUS
10
2.6163279527559054
20
-5.2505841732283463
11
2.6125784251968502
21
-5.2468346456692911
0
LINE
8
BLACK
6
CONTINUOUS
10
2.6125784251968502
20
-5.2468346456692911
11
2.6163279527559054
21
-5.2430850787401573
0
LINE
8
BLACK
6
CONTINUOUS
10
2.6163279527559054
20
-5.2430850787401573
11
2.6163279527559054
21
-5.2505841732283463
0
LINE
8
BLACK
6
CONTINUOUS
10
2.6500737401574801
20
-5.1793430708661417
11
2.6538232677165352
21
-5.1755935433070865
0
LINE
8
BLACK
6
CONTINUOUS
10
2.6538232677165352
20
-5.1755935433070865
11
2.6613223228346454
21
-5.1718440157480314
0
LINE
8
BLACK
6
CONTINUOUS
10
2.6613223228346454
20
-5.1718440157480314
11
2.6800699999999997
21
-5.1718440157480314
0
LINE
8
BLACK
6
CONTINUOUS
10
2.6800699999999997
20
-5.1718440157480314
11
2.6875690551181104
21
-5.1755935433070865
0
LINE
8
BLACK
6
CONTINUOUS
10
2.6875690551181104
20
-5.1755935433070865
11
2.6913185826771655
21
-5.1793430708661417
0
LINE
8
BLACK
6
CONTINUOUS
10
2.6913185826771655
20
-5.1793430708661417
11
2.6950681102362206
21
-5.1868421259842519
0
LINE
8
BLACK
6
CONTINUOUS
10
2.6950681102362206
20
-5.1868421259842519
11
2.6950681102362206
21
-5.1943411811023621
0
LINE
8
BLACK
6
CONTINUOUS
10
2.6950681102362206
20
-5.1943411811023621
11
2.6913185826771655
21
-5.2055897637795274
0
LINE
8
BLACK
6
CONTINUOUS
10
2.6913185826771655
20
-5.2055897637795274
11
2.646324212598425
21
-5.2505841732283463
0
LINE
8
BLACK
6
CONTINUOUS
10
2.646324212598425
20
-5.2505841732283463
11
2.6950681102362206
21
-5.2505841732283463
0
LINE
8
BLACK
6
CONTINUOUS
10
2.7663092125984252
20
-5.1718440157480314
11
2.7288138976377954
21
-5.1718440157480314
0
LINE
8
BLACK
6
CONTINUOUS
10
2.7288138976377954
20
-5.1718440157480314
11
2.7250643700787403
21
-5.2093393307086613
0
LINE
8
BLACK
6
CONTINUOUS
10
2.7250643700787403
20
-5.2093393307086613
11
2.7288138976377954
21
-5.2055897637795274
0
LINE
8
BLACK
6
CONTINUOUS
10
2.7288138976377954
20
-5.2055897637795274
11
2.7363129527559056
21
-5.2018402362204723
0
LINE
8
BLACK
6
CONTINUOUS
10
2.7363129527559056
20
-5.2018402362204723
11
2.7550606299212599
21
-5.2018402362204723
0
LINE
8
BLACK
6
CONTINUOUS
10
2.7550606299212599
20
-5.2018402362204723
11
2.7625596850393701
21
-5.2055897637795274
0
LINE
8
BLACK
6
CONTINUOUS
10
2.7625596850393701
20
-5.2055897637795274
11
2.7663092125984252
21
-5.2093393307086613
0
LINE
8
BLACK
6
CONTINUOUS
10
2.7663092125984252
20
-5.2093393307086613
11
2.7700587401574803
21
-5.2168383858267715
0
LINE
8
BLACK
6
CONTINUOUS
10
2.7700587401574803
20
-5.2168383858267715
11
2.7700587401574803
21
-5.2355860236220471
0
LINE
8
BLACK
6
CONTINUOUS
10
2.7700587401574803
20
-5.2355860236220471
11
2.7663092125984252
21
-5.2430850787401573
0
LINE
8
BLACK
6
CONTINUOUS
10
2.7663092125984252
20
-5.2430850787401573
11
2.7625596850393701
21
-5.2468346456692911
0
LINE
8
BLACK
6
CONTINUOUS
10
2.7625596850393701
20
-5.2468346456692911
11
2.7550606299212599
21
-5.2505841732283463
0
LINE
8
BLACK
6
CONTINUOUS
10
2.7550606299212599
20
-5.2505841732283463
11
2.7363129527559056
21
-5.2505841732283463
0
LINE
8
BLACK
6
CONTINUOUS
10
2.7363129527559056
20
-5.2505841732283463
11
2.7288138976377954
21
-5.2468346456692911
0
LINE
8
BLACK
6
CONTINUOUS
10
2.7288138976377954
20
-5.2468346456692911
11
2.7250643700787403
21
-5.2430850787401573
0
LINE
8
BLACK
6
CONTINUOUS
10
2.8188026377952755
20
-5.1718440157480314
11
2.8263017322834645
21
-5.1718440157480314
0
LINE
8
BLACK
6
CONTINUOUS
10
2.8263017322834645
20
-5.1718440157480314
11
2.8338007874015747
21
-5.1755935433070865
0
LINE
8
BLACK
6
CONTINUOUS
10
2.8338007874015747
20
-5.1755935433070865
11
2.8375503149606298
21
-5.1793430708661417
0
LINE
8
BLACK
6
CONTINUOUS
10
2.8375503149606298
20
-5.1793430708661417
11
2.8412998425196849
21
-5.1868421259842519
0
LINE
8
BLACK
6
CONTINUOUS
10
2.8412998425196849
20
-5.1868421259842519
11
2.84504937007874
21
-5.2018402362204723
0
LINE
8
BLACK
6
CONTINUOUS
10
2.84504937007874
20
-5.2018402362204723
11
2.84504937007874
21
-5.2205879133858266
0
LINE
8
BLACK
6
CONTINUOUS
10
2.84504937007874
20
-5.2205879133858266
11
2.8412998425196849
21
-5.2355860236220471
0
LINE
8
BLACK
6
CONTINUOUS
10
2.8412998425196849
20
-5.2355860236220471
11
2.8375503149606298
21
-5.2430850787401573
0
LINE
8
BLACK
6
CONTINUOUS
10
2.8375503149606298
20
-5.2430850787401573
11
2.8338007874015747
21
-5.2468346456692911
0
LINE
8
BLACK
6
CONTINUOUS
10
2.8338007874015747
20
-5.2468346456692911
11
2.8263017322834645
21
-5.2505841732283463
0
LINE
8
BLACK
6
CONTINUOUS
10
2.8263017322834645
20
-5.2505841732283463
11
2.8188026377952755
21
-5.2505841732283463
0
LINE
8
BLACK
6
CONTINUOUS
10
2.8188026377952755
20
-5.2505841732283463
11
2.8113035826771653
21
-5.2468346456692911
0
LINE
8
BLACK
6
CONTINUOUS
10
2.8113035826771653
20
-5.2468346456692911
11
2.8075540551181102
21
-5.2430850787401573
0
LINE
8
BLACK
6
CONTINUOUS
10
2.8075540551181102
20
-5.2430850787401573
11
2.8038045275590551
21
-5.2355860236220471
0
LINE
8
BLACK
6
CONTINUOUS
10
2.8038045275590551
20
-5.2355860236220471
11
2.800055
21
-5.2205879133858266
0
LINE
8
BLACK
6
CONTINUOUS
10
2.800055
20
-5.2205879133858266
11
2.800055
21
-5.2018402362204723
0
LINE
8
BLACK
6
CONTINUOUS
10
2.800055
20
-5.2018402362204723
11
2.8038045275590551
21
-5.1868421259842519
0
LINE
8
BLACK
6
CONTINUOUS
10
2.8038045275590551
20
-5.1868421259842519
11
2.8075540551181102
21
-5.1793430708661417
0
LINE
8
BLACK
6
CONTINUOUS
10
2.8075540551181102
20
-5.1793430708661417
11
2.8113035826771653
21
-5.1755935433070865
0
LINE
8
BLACK
6
CONTINUOUS
10
2.8113035826771653
20
-5.1755935433070865
11
2.8188026377952755
21
-5.1718440157480314
0
LINE
8
BLACK
6
CONTINUOUS
10
2.8787951574803148
20
-5.2505841732283463
11
2.8787951574803148
21
-5.1980907086614172
0
LINE
8
BLACK
6
CONTINUOUS
10
2.8787951574803148
20
-5.2055897637795274
11
2.8825446850393699
21
-5.2018402362204723
0
LINE
8
BLACK
6
CONTINUOUS
10
2.8825446850393699
20
-5.2018402362204723
11
2.8900437401574801
21
-5.1980907086614172
0
LINE
8
BLACK
6
CONTINUOUS
10
2.8900437401574801
20
-5.1980907086614172
11
2.9012923622047242
21
-5.1980907086614172
0
LINE
8
BLACK
6
CONTINUOUS
10
2.9012923622047242
20
-5.1980907086614172
11
2.9087914173228344
21
-5.2018402362204723
0
LINE
8
BLACK
6
CONTINUOUS
10
2.9087914173228344
20
-5.2018402362204723
11
2.9125409448818895
21
-5.2093393307086613
0
LINE
8
BLACK
6
CONTINUOUS
10
2.9125409448818895
20
-5.2093393307086613
11
2.9125409448818895
21
-5.2505841732283463
0
LINE
8
BLACK
6
CONTINUOUS
10
2.9125409448818895
20
-5.2093393307086613
11
2.9162904724409446
21
-5.2018402362204723
0
LINE
8
BLACK
6
CONTINUOUS
10
2.9162904724409446
20
-5.2018402362204723
11
2.9237895275590549
21
-5.1980907086614172
0
LINE
8
BLACK
6
CONTINUOUS
10
2.9237895275590549
20
-5.1980907086614172
11
2.9350381102362202
21
-5.1980907086614172
0
LINE
8
BLACK
6
CONTINUOUS
10
2.9350381102362202
20
-5.1980907086614172
11
2.9425372047244092
21
-5.2018402362204723
0
LINE
8
BLACK
6
CONTINUOUS
10
2.9425372047244092
20
-5.2018402362204723
11
2.9462867322834647
21
-5.2093393307086613
0
LINE
8
BLACK
6
CONTINUOUS
10
2.9462867322834647
20
-5.2093393307086613
11
2.9462867322834647
21
-5.2505841732283463
0
LINE
8
BLACK
6
CONTINUOUS
10
2.9837820472440946
20
-5.2505841732283463
11
2.9837820472440946
21
-5.1980907086614172
0
LINE
8
BLACK
6
CONTINUOUS
10
2.9837820472440946
20
-5.2055897637795274
11
2.9875315748031497
21
-5.2018402362204723
0
LINE
8
BLACK
6
CONTINUOUS
10
2.9875315748031497
20
-5.2018402362204723
11
2.9950306299212599
21
-5.1980907086614172
0
LINE
8
BLACK
6
CONTINUOUS
10
2.9950306299212599
20
-5.1980907086614172
11
3.006279251968504
21
-5.1980907086614172
0
LINE
8
BLACK
6
CONTINUOUS
10
3.006279251968504
20
-5.1980907086614172
11
3.0137783070866142
21
-5.2018402362204723
0
LINE
8
BLACK
6
CONTINUOUS
10
3.0137783070866142
20
-5.2018402362204723
11
3.0175278346456693
21
-5.2093393307086613
0
LINE
8
BLACK
6
CONTINUOUS
10
3.0175278346456693
20
-5.2093393307086613
11
3.0175278346456693
21
-5.2505841732283463
0
LINE
8
BLACK
6
CONTINUOUS
10
3.0175278346456693
20
-5.2093393307086613
11
3.0212773622047244
21
-5.2018402362204723
0
LINE
8
BLACK
6
CONTINUOUS
10
3.0212773622047244
20
-5.2018402362204723
11
3.0287764173228346
21
-5.1980907086614172
0
LINE
8
BLACK
6
CONTINUOUS
10
3.0287764173228346
20
-5.1980907086614172
11
3.040025
21
-5.1980907086614172
0
LINE
8
BLACK
6
CONTINUOUS
10
3.040025
20
-5.1980907086614172
11
3.047524094488189
21
-5.2018402362204723
0
LINE
8
BLACK
6
CONTINUOUS
10
3.047524094488189
20
-5.2018402362204723
11
3.0512736220472441
21
-5.2093393307086613
0
LINE
8
BLACK
6
CONTINUOUS
10
3.0512736220472441
20
-5.2093393307086613
11
3.0512736220472441
21
-5.2505841732283463
0
LINE
8
BLACK
6
CONTINUOUS
10
3.205004409448819
20
-5.1680944881889763
11
3.1375128740157479
21
-5.2693318110236218
0
LINE
8
BLACK
6
CONTINUOUS
10
3.3062417716535433
20
-5.1718440157480314
11
3.3137408661417322
21
-5.1718440157480314
0
LINE
8
BLACK
6
CONTINUOUS
10
3.3137408661417322
20
-5.1718440157480314
11
3.3212399212598425
21
-5.1755935433070865
0
LINE
8
BLACK
6
CONTINUOUS
10
3.3212399212598425
20
-5.1755935433070865
11
3.3249894488188976
21
-5.1793430708661417
0
LINE
8
BLACK
6
CONTINUOUS
10
3.3249894488188976
20
-5.1793430708661417
11
3.3287389763779527
21
-5.1868421259842519
0
LINE
8
BLACK
6
CONTINUOUS
10
3.3287389763779527
20
-5.1868421259842519
11
3.3324885039370078
21
-5.2018402362204723
0
LINE
8
BLACK
6
CONTINUOUS
10
3.3324885039370078
20
-5.2018402362204723
11
3.3324885039370078
21
-5.2205879133858266
0
LINE
8
BLACK
6
CONTINUOUS
10
3.3324885039370078
20
-5.2205879133858266
11
3.3287389763779527
21
-5.2355860236220471
0
LINE
8
BLACK
6
CONTINUOUS
10
3.3287389763779527
20
-5.2355860236220471
11
3.3249894488188976
21
-5.2430850787401573
0
LINE
8
BLACK
6
CONTINUOUS
10
3.3249894488188976
20
-5.2430850787401573
11
3.3212399212598425
21
-5.2468346456692911
0
LINE
8
BLACK
6
CONTINUOUS
10
3.3212399212598425
20
-5.2468346456692911
11
3.3137408661417322
21
-5.2505841732283463
0
LINE
8
BLACK
6
CONTINUOUS
10
3.3137408661417322
20
-5.2505841732283463
11
3.3062417716535433
21
-5.2505841732283463
0
LINE
8
BLACK
6
CONTINUOUS
10
3.3062417716535433
20
-5.2505841732283463
11
3.2987427165354331
21
-5.2468346456692911
0
LINE
8
BLACK
6
CONTINUOUS
10
3.2987427165354331
20
-5.2468346456692911
11
3.2949931889763779
21
-5.2430850787401573
0
LINE
8
BLACK
6
CONTINUOUS
10
3.2949931889763779
20
-5.2430850787401573
11
3.2912436614173228
21
-5.2355860236220471
0
LINE
8
BLACK
6
CONTINUOUS
10
3.2912436614173228
20
-5.2355860236220471
11
3.2874941338582677
21
-5.2205879133858266
0
LINE
8
BLACK
6
CONTINUOUS
10
3.2874941338582677
20
-5.2205879133858266
11
3.2874941338582677
21
-5.2018402362204723
0
LINE
8
BLACK
6
CONTINUOUS
10
3.2874941338582677
20
-5.2018402362204723
11
3.2912436614173228
21
-5.1868421259842519
0
LINE
8
BLACK
6
CONTINUOUS
10
3.2912436614173228
20
-5.1868421259842519
11
3.2949931889763779
21
-5.1793430708661417
0
LINE
8
BLACK
6
CONTINUOUS
10
3.2949931889763779
20
-5.1793430708661417
11
3.2987427165354331
21
-5.1755935433070865
0
LINE
8
BLACK
6
CONTINUOUS
10
3.2987427165354331
20
-5.1755935433070865
11
3.3062417716535433
21
-5.1718440157480314
0
LINE
8
BLACK
6
CONTINUOUS
10
3.3662342913385825
20
-5.2430850787401573
11
3.3699838188976377
21
-5.2468346456692911
0
LINE
8
BLACK
6
CONTINUOUS
10
3.3699838188976377
20
-5.2468346456692911
11
3.3662342913385825
21
-5.2505841732283463
0
LINE
8
BLACK
6
CONTINUOUS
10
3.3662342913385825
20
-5.2505841732283463
11
3.3624847637795274
21
-5.2468346456692911
0
LINE
8
BLACK
6
CONTINUOUS
10
3.3624847637795274
20
-5.2468346456692911
11
3.3662342913385825
21
-5.2430850787401573
0
LINE
8
BLACK
6
CONTINUOUS
10
3.3662342913385825
20
-5.2430850787401573
11
3.3662342913385825
21
-5.2505841732283463
0
LINE
8
BLACK
6
CONTINUOUS
10
3.4187277165354328
20
-5.1718440157480314
11
3.4262268110236218
21
-5.1718440157480314
0
LINE
8
BLACK
6
CONTINUOUS
10
3.4262268110236218
20
-5.1718440157480314
11
3.433725866141732
21
-5.1755935433070865
0
LINE
8
BLACK
6
CONTINUOUS
10
3.433725866141732
20
-5.1755935433070865
11
3.4374753937007871
21
-5.1793430708661417
0
LINE
8
BLACK
6
CONTINUOUS
10
3.4374753937007871
20
-5.1793430708661417
11
3.4412249212598423
21
-5.1868421259842519
0
LINE
8
BLACK
6
CONTINUOUS
10
3.4412249212598423
20
-5.1868421259842519
11
3.4449744488188974
21
-5.2018402362204723
0
LINE
8
BLACK
6
CONTINUOUS
10
3.4449744488188974
20
-5.2018402362204723
11
3.4449744488188974
21
-5.2205879133858266
0
LINE
8
BLACK
6
CONTINUOUS
10
3.4449744488188974
20
-5.2205879133858266
11
3.4412249212598423
21
-5.2355860236220471
0
LINE
8
BLACK
6
CONTINUOUS
10
3.4412249212598423
20
-5.2355860236220471
11
3.4374753937007871
21
-5.2430850787401573
0
LINE
8
BLACK
6
CONTINUOUS
10
3.4374753937007871
20
-5.2430850787401573
11
3.433725866141732
21
-5.2468346456692911
0
LINE
8
BLACK
6
CONTINUOUS
10
3.433725866141732
20
-5.2468346456692911
11
3.4262268110236218
21
-5.2505841732283463
0
LINE
8
BLACK
6
CONTINUOUS
10
3.4262268110236218
20
-5.2505841732283463
11
3.4187277165354328
21
-5.2505841732283463
0
LINE
8
BLACK
6
CONTINUOUS
10
3.4187277165354328
20
-5.2505841732283463
11
3.4112286614173226
21
-5.2468346456692911
0
LINE
8
BLACK
6
CONTINUOUS
10
3.4112286614173226
20
-5.2468346456692911
11
3.4074791338582675
21
-5.2430850787401573
0
LINE
8
BLACK
6
CONTINUOUS
10
3.4074791338582675
20
-5.2430850787401573
11
3.4037296062992124
21
-5.2355860236220471
0
LINE
8
BLACK
6
CONTINUOUS
10
3.4037296062992124
20
-5.2355860236220471
11
3.3999800787401573
21
-5.2205879133858266
0
LINE
8
BLACK
6
CONTINUOUS
10
3.3999800787401573
20
-5.2205879133858266
11
3.3999800787401573
21
-5.2018402362204723
0
LINE
8
BLACK
6
CONTINUOUS
10
3.3999800787401573
20
-5.2018402362204723
11
3.4037296062992124
21
-5.1868421259842519
0
LINE
8
BLACK
6
CONTINUOUS
10
3.4037296062992124
20
-5.1868421259842519
11
3.4074791338582675
21
-5.1793430708661417
0
LINE
8
BLACK
6
CONTINUOUS
10
3.4074791338582675
20
-5.1793430708661417
11
3.4112286614173226
21
-5.1755935433070865
0
LINE
8
BLACK
6
CONTINUOUS
10
3.4112286614173226
20
-5.1755935433070865
11
3.4187277165354328
21
-5.1718440157480314
0
LINE
8
BLACK
6
CONTINUOUS
10
3.5124660236220473
20
-5.1980907086614172
11
3.5124660236220473
21
-5.2505841732283463
0
LINE
8
BLACK
6
CONTINUOUS
10
3.493718346456693
20
-5.1680944881889763
11
3.4749707086614174
21
-5.2243374409448817
0
LINE
8
BLACK
6
CONTINUOUS
10
3.4749707086614174
20
-5.2243374409448817
11
3.5237146062992126
21
-5.2243374409448817
0
LINE
8
BLACK
6
CONTINUOUS
10
3.5574603937007874
20
-5.2505841732283463
11
3.5724585039370078
21
-5.2505841732283463
0
LINE
8
BLACK
6
CONTINUOUS
10
3.5724585039370078
20
-5.2505841732283463
11
3.5799575984251968
21
-5.2468346456692911
0
LINE
8
BLACK
6
CONTINUOUS
10
3.5799575984251968
20
-5.2468346456692911
11
3.5837071259842519
21
-5.2430850787401573
0
LINE
8
BLACK
6
CONTINUOUS
10
3.5837071259842519
20
-5.2430850787401573
11
3.5912061811023621
21
-5.2318364960629919
0
LINE
8
BLACK
6
CONTINUOUS
10
3.5912061811023621
20
-5.2318364960629919
11
3.5949557086614172
21
-5.2168383858267715
0
LINE
8
BLACK
6
CONTINUOUS
10
3.5949557086614172
20
-5.2168383858267715
11
3.5949557086614172
21
-5.1868421259842519
0
LINE
8
BLACK
6
CONTINUOUS
10
3.5949557086614172
20
-5.1868421259842519
11
3.5912061811023621
21
-5.1793430708661417
0
LINE
8
BLACK
6
CONTINUOUS
10
3.5912061811023621
20
-5.1793430708661417
11
3.587456653543307
21
-5.1755935433070865
0
LINE
8
BLACK
6
CONTINUOUS
10
3.587456653543307
20
-5.1755935433070865
11
3.5799575984251968
21
-5.1718440157480314
0
LINE
8
BLACK
6
CONTINUOUS
10
3.5799575984251968
20
-5.1718440157480314
11
3.5649594488188976
21
-5.1718440157480314
0
LINE
8
BLACK
6
CONTINUOUS
10
3.5649594488188976
20
-5.1718440157480314
11
3.5574603937007874
21
-5.1755935433070865
0
LINE
8
BLACK
6
CONTINUOUS
10
3.5574603937007874
20
-5.1755935433070865
11
3.5537108661417323
21
-5.1793430708661417
0
LINE
8
BLACK
6
CONTINUOUS
10
3.5537108661417323
20
-5.1793430708661417
11
3.5499613385826772
21
-5.1868421259842519
0
LINE
8
BLACK
6
CONTINUOUS
10
3.5499613385826772
20
-5.1868421259842519
11
3.5499613385826772
21
-5.2055897637795274
0
LINE
8
BLACK
6
CONTINUOUS
10
3.5499613385826772
20
-5.2055897637795274
11
3.5537108661417323
21
-5.2130888582677164
0
LINE
8
BLACK
6
CONTINUOUS
10
3.5537108661417323
20
-5.2130888582677164
11
3.5574603937007874
21
-5.2168383858267715
0
LINE
8
BLACK
6
CONTINUOUS
10
3.5574603937007874
20
-5.2168383858267715
11
3.5649594488188976
21
-5.2205879133858266
0
LINE
8
BLACK
6
CONTINUOUS
10
3.5649594488188976
20
-5.2205879133858266
11
3.5799575984251968
21
-5.2205879133858266
0
LINE
8
BLACK
6
CONTINUOUS
10
3.5799575984251968
20
-5.2205879133858266
11
3.587456653543307
21
-5.2168383858267715
0
LINE
8
BLACK
6
CONTINUOUS
10
3.587456653543307
20
-5.2168383858267715
11
3.5912061811023621
21
-5.2130888582677164
0
LINE
8
BLACK
6
CONTINUOUS
10
3.5912061811023621
20
-5.2130888582677164
11
3.5949557086614172
21
-5.2055897637795274
0
LINE
8
BLACK
6
CONTINUOUS
10
3.6249519685039369
20
-5.1793430708661417
11
3.628701496062992
21
-5.1755935433070865
0
LINE
8
BLACK
6
CONTINUOUS
10
3.628701496062992
20
-5.1755935433070865
11
3.6362005511811022
21
-5.1718440157480314
0
LINE
8
BLACK
6
CONTINUOUS
10
3.6362005511811022
20
-5.1718440157480314
11
3.6549482283464565
21
-5.1718440157480314
0
LINE
8
BLACK
6
CONTINUOUS
10
3.6549482283464565
20
-5.1718440157480314
11
3.6624472834645667
21
-5.1755935433070865
0
LINE
8
BLACK
6
CONTINUOUS
10
3.6624472834645667
20
-5.1755935433070865
11
3.6661968110236218
21
-5.1793430708661417
0
LINE
8
BLACK
6
CONTINUOUS
10
3.6661968110236218
20
-5.1793430708661417
11
3.6699463385826769
21
-5.1868421259842519
0
LINE
8
BLACK
6
CONTINUOUS
10
3.6699463385826769
20
-5.1868421259842519
11
3.6699463385826769
21
-5.1943411811023621
0
LINE
8
BLACK
6
CONTINUOUS
10
3.6699463385826769
20
-5.1943411811023621
11
3.6661968110236218
21
-5.2055897637795274
0
LINE
8
BLACK
6
CONTINUOUS
10
3.6661968110236218
20
-5.2055897637795274
11
3.6212024409448818
21
-5.2505841732283463
0
LINE
8
BLACK
6
CONTINUOUS
10
3.6212024409448818
20
-5.2505841732283463
11
3.6699463385826769
21
-5.2505841732283463
0
LINE
8
BLACK
6
CONTINUOUS
10
3.6999425984251966
20
-5.1718440157480314
11
3.6999425984251966
21
-5.1868421259842519
0
LINE
8
BLACK
6
CONTINUOUS
10
3.7299388582677167
20
-5.1718440157480314
11
3.7299388582677167
21
-5.1868421259842519
0
LINE
8
BLACK
6
CONTINUOUS
10
3.8461743700787401
20
-5.2805803937007871
11
3.8424248031496062
21
-5.276830866141732
0
LINE
8
BLACK
6
CONTINUOUS
10
3.8424248031496062
20
-5.276830866141732
11
3.834925748031496
21
-5.2655822834645667
0
LINE
8
BLACK
6
CONTINUOUS
10
3.834925748031496
20
-5.2655822834645667
11
3.8311762204724409
21
-5.2580832283464565
0
LINE
8
BLACK
6
CONTINUOUS
10
3.8311762204724409
20
-5.2580832283464565
11
3.8274266929133858
21
-5.2468346456692911
0
LINE
8
BLACK
6
CONTINUOUS
10
3.8274266929133858
20
-5.2468346456692911
11
3.8236771653543307
21
-5.2280869685039368
0
LINE
8
BLACK
6
CONTINUOUS
10
3.8236771653543307
20
-5.2280869685039368
11
3.8236771653543307
21
-5.2130888582677164
0
LINE
8
BLACK
6
CONTINUOUS
10
3.8236771653543307
20
-5.2130888582677164
11
3.8274266929133858
21
-5.1943411811023621
0
LINE
8
BLACK
6
CONTINUOUS
10
3.8274266929133858
20
-5.1943411811023621
11
3.8311762204724409
21
-5.1830925984251968
0
LINE
8
BLACK
6
CONTINUOUS
10
3.8311762204724409
20
-5.1830925984251968
11
3.834925748031496
21
-5.1755935433070865
0
LINE
8
BLACK
6
CONTINUOUS
10
3.834925748031496
20
-5.1755935433070865
11
3.8424248031496062
21
-5.1643449212598425
0
LINE
8
BLACK
6
CONTINUOUS
10
3.8424248031496062
20
-5.1643449212598425
11
3.8461743700787401
21
-5.1605953937007873
0
LINE
8
BLACK
6
CONTINUOUS
10
3.9099163779527557
20
-5.1718440157480314
11
3.8949182283464565
21
-5.1718440157480314
0
LINE
8
BLACK
6
CONTINUOUS
10
3.8949182283464565
20
-5.1718440157480314
11
3.8874191732283463
21
-5.1755935433070865
0
LINE
8
BLACK
6
CONTINUOUS
10
3.8874191732283463
20
-5.1755935433070865
11
3.8836696456692912
21
-5.1793430708661417
0
LINE
8
BLACK
6
CONTINUOUS
10
3.8836696456692912
20
-5.1793430708661417
11
3.876170590551181
21
-5.190591653543307
0
LINE
8
BLACK
6
CONTINUOUS
10
3.876170590551181
20
-5.190591653543307
11
3.8724210629921259
21
-5.2055897637795274
0
LINE
8
BLACK
6
CONTINUOUS
10
3.8724210629921259
20
-5.2055897637795274
11
3.8724210629921259
21
-5.2355860236220471
0
LINE
8
BLACK
6
CONTINUOUS
10
3.8724210629921259
20
-5.2355860236220471
11
3.876170590551181
21
-5.2430850787401573
0
LINE
8
BLACK
6
CONTINUOUS
10
3.876170590551181
20
-5.2430850787401573
11
3.8799201181102361
21
-5.2468346456692911
0
LINE
8
BLACK
6
CONTINUOUS
10
3.8799201181102361
20
-5.2468346456692911
11
3.8874191732283463
21
-5.2505841732283463
0
LINE
8
BLACK
6
CONTINUOUS
10
3.8874191732283463
20
-5.2505841732283463
11
3.9024173228346455
21
-5.2505841732283463
0
LINE
8
BLACK
6
CONTINUOUS
10
3.9024173228346455
20
-5.2505841732283463
11
3.9099163779527557
21
-5.2468346456692911
0
LINE
8
BLACK
6
CONTINUOUS
10
3.9099163779527557
20
-5.2468346456692911
11
3.9136659055118108
21
-5.2430850787401573
0
LINE
8
BLACK
6
CONTINUOUS
10
3.9136659055118108
20
-5.2430850787401573
11
3.9174154330708659
21
-5.2355860236220471
0
LINE
8
BLACK
6
CONTINUOUS
10
3.9174154330708659
20
-5.2355860236220471
11
3.9174154330708659
21
-5.2168383858267715
0
LINE
8
BLACK
6
CONTINUOUS
10
3.9174154330708659
20
-5.2168383858267715
11
3.9136659055118108
21
-5.2093393307086613
0
LINE
8
BLACK
6
CONTINUOUS
10
3.9136659055118108
20
-5.2093393307086613
11
3.9099163779527557
21
-5.2055897637795274
0
LINE
8
BLACK
6
CONTINUOUS
10
3.9099163779527557
20
-5.2055897637795274
11
3.9024173228346455
21
-5.2018402362204723
0
LINE
8
BLACK
6
CONTINUOUS
10
3.9024173228346455
20
-5.2018402362204723
11
3.8874191732283463
21
-5.2018402362204723
0
LINE
8
BLACK
6
CONTINUOUS
10
3.8874191732283463
20
-5.2018402362204723
11
3.8799201181102361
21
-5.2055897637795274
0
LINE
8
BLACK
6
CONTINUOUS
10
3.8799201181102361
20
-5.2055897637795274
11
3.876170590551181
21
-5.2093393307086613
0
LINE
8
BLACK
6
CONTINUOUS
10
3.876170590551181
20
-5.2093393307086613
11
3.8724210629921259
21
-5.2168383858267715
0
LINE
8
BLACK
6
CONTINUOUS
10
4.0111537401574804
20
-5.2505841732283463
11
4.0111537401574804
21
-5.1718440157480314
0
LINE
8
BLACK
6
CONTINUOUS
10
4.0448995275590551
20
-5.2505841732283463
11
4.0448995275590551
21
-5.2093393307086613
0
LINE
8
BLACK
6
CONTINUOUS
10
4.0448995275590551
20
-5.2093393307086613
11
4.04115
21
-5.2018402362204723
0
LINE
8
BLACK
6
CONTINUOUS
10
4.04115
20
-5.2018402362204723
11
4.0336509448818898
21
-5.1980907086614172
0
LINE
8
BLACK
6
CONTINUOUS
10
4.0336509448818898
20
-5.1980907086614172
11
4.0224023228346457
21
-5.1980907086614172
0
LINE
8
BLACK
6
CONTINUOUS
10
4.0224023228346457
20
-5.1980907086614172
11
4.0149032677165355
21
-5.2018402362204723
0
LINE
8
BLACK
6
CONTINUOUS
10
4.0149032677165355
20
-5.2018402362204723
11
4.0111537401574804
21
-5.2055897637795274
0
LINE
8
BLACK
6
CONTINUOUS
10
4.0936434251968503
20
-5.2505841732283463
11
4.0861443700787401
21
-5.2468346456692911
0
LINE
8
BLACK
6
CONTINUOUS
10
4.0861443700787401
20
-5.2468346456692911
11
4.082394842519685
21
-5.2430850787401573
0
LINE
8
BLACK
6
CONTINUOUS
10
4.082394842519685
20
-5.2430850787401573
11
4.0786453149606299
21
-5.2355860236220471
0
LINE
8
BLACK
6
CONTINUOUS
10
4.0786453149606299
20
-5.2355860236220471
11
4.0786453149606299
21
-5.2130888582677164
0
LINE
8
BLACK
6
CONTINUOUS
10
4.0786453149606299
20
-5.2130888582677164
11
4.082394842519685
21
-5.2055897637795274
0
LINE
8
BLACK
6
CONTINUOUS
10
4.082394842519685
20
-5.2055897637795274
11
4.0861443700787401
21
-5.2018402362204723
0
LINE
8
BLACK
6
CONTINUOUS
10
4.0861443700787401
20
-5.2018402362204723
11
4.0936434251968503
21
-5.1980907086614172
0
LINE
8
BLACK
6
CONTINUOUS
10
4.0936434251968503
20
-5.1980907086614172
11
4.1048920472440944
21
-5.1980907086614172
0
LINE
8
BLACK
6
CONTINUOUS
10
4.1048920472440944
20
-5.1980907086614172
11
4.1123911023622046
21
-5.2018402362204723
0
LINE
8
BLACK
6
CONTINUOUS
10
4.1123911023622046
20
-5.2018402362204723
11
4.1161406299212597
21
-5.2055897637795274
0
LINE
8
BLACK
6
CONTINUOUS
10
4.1161406299212597
20
-5.2055897637795274
11
4.1198901574803148
21
-5.2130888582677164
0
LINE
8
BLACK
6
CONTINUOUS
10
4.1198901574803148
20
-5.2130888582677164
11
4.1198901574803148
21
-5.2355860236220471
0
LINE
8
BLACK
6
CONTINUOUS
10
4.1198901574803148
20
-5.2355860236220471
11
4.1161406299212597
21
-5.2430850787401573
0
LINE
8
BLACK
6
CONTINUOUS
10
4.1161406299212597
20
-5.2430850787401573
11
4.1123911023622046
21
-5.2468346456692911
0
LINE
8
BLACK
6
CONTINUOUS
10
4.1123911023622046
20
-5.2468346456692911
11
4.1048920472440944
21
-5.2505841732283463
0
LINE
8
BLACK
6
CONTINUOUS
10
4.1048920472440944
20
-5.2505841732283463
11
4.0936434251968503
21
-5.2505841732283463
0
LINE
8
BLACK
6
CONTINUOUS
10
4.1648845275590549
20
-5.2505841732283463
11
4.1573854724409447
21
-5.2468346456692911
0
LINE
8
BLACK
6
CONTINUOUS
10
4.1573854724409447
20
-5.2468346456692911
11
4.1536359448818896
21
-5.2393355511811022
0
LINE
8
BLACK
6
CONTINUOUS
10
4.1536359448818896
20
-5.2393355511811022
11
4.1536359448818896
21
-5.1718440157480314
0
LINE
8
BLACK
6
CONTINUOUS
10
4.2248770472440942
20
-5.2468346456692911
11
4.217377992125984
21
-5.2505841732283463
0
LINE
8
BLACK
6
CONTINUOUS
10
4.217377992125984
20
-5.2505841732283463
11
4.2023798425196848
21
-5.2505841732283463
0
LINE
8
BLACK
6
CONTINUOUS
10
4.2023798425196848
20
-5.2505841732283463
11
4.1948807874015746
21
-5.2468346456692911
0
LINE
8
BLACK
6
CONTINUOUS
10
4.1948807874015746
20
-5.2468346456692911
11
4.1911312598425194
21
-5.2393355511811022
0
LINE
8
BLACK
6
CONTINUOUS
10
4.1911312598425194
20
-5.2393355511811022
11
4.1911312598425194
21
-5.2093393307086613
0
LINE
8
BLACK
6
CONTINUOUS
10
4.1911312598425194
20
-5.2093393307086613
11
4.1948807874015746
21
-5.2018402362204723
0
LINE
8
BLACK
6
CONTINUOUS
10
4.1948807874015746
20
-5.2018402362204723
11
4.2023798425196848
21
-5.1980907086614172
0
LINE
8
BLACK
6
CONTINUOUS
10
4.2023798425196848
20
-5.1980907086614172
11
4.217377992125984
21
-5.1980907086614172
0
LINE
8
BLACK
6
CONTINUOUS
10
4.217377992125984
20
-5.1980907086614172
11
4.2248770472440942
21
-5.2018402362204723
0
LINE
8
BLACK
6
CONTINUOUS
10
4.2248770472440942
20
-5.2018402362204723
11
4.2286265748031493
21
-5.2093393307086613
0
LINE
8
BLACK
6
CONTINUOUS
10
4.2286265748031493
20
-5.2093393307086613
11
4.2286265748031493
21
-5.2168383858267715
0
LINE
8
BLACK
6
CONTINUOUS
10
4.2286265748031493
20
-5.2168383858267715
11
4.1911312598425194
21
-5.2243374409448817
0
LINE
8
BLACK
6
CONTINUOUS
10
4.2586228346456689
20
-5.2468346456692911
11
4.2661218897637792
21
-5.2505841732283463
0
LINE
8
BLACK
6
CONTINUOUS
10
4.2661218897637792
20
-5.2505841732283463
11
4.2811199999999996
21
-5.2505841732283463
0
LINE
8
BLACK
6
CONTINUOUS
10
4.2811199999999996
20
-5.2505841732283463
11
4.2886190944881886
21
-5.2468346456692911
0
LINE
8
BLACK
6
CONTINUOUS
10
4.2886190944881886
20
-5.2468346456692911
11
4.2923686220472437
21
-5.2393355511811022
0
LINE
8
BLACK
6
CONTINUOUS
10
4.2923686220472437
20
-5.2393355511811022
11
4.2923686220472437
21
-5.2355860236220471
0
LINE
8
BLACK
6
CONTINUOUS
10
4.2923686220472437
20
-5.2355860236220471
11
4.2886190944881886
21
-5.2280869685039368
0
LINE
8
BLACK
6
CONTINUOUS
10
4.2886190944881886
20
-5.2280869685039368
11
4.2811199999999996
21
-5.2243374409448817
0
LINE
8
BLACK
6
CONTINUOUS
10
4.2811199999999996
20
-5.2243374409448817
11
4.2698714173228343
21
-5.2243374409448817
0
LINE
8
BLACK
6
CONTINUOUS
10
4.2698714173228343
20
-5.2243374409448817
11
4.262372362204724
21
-5.2205879133858266
0
LINE
8
BLACK
6
CONTINUOUS
10
4.262372362204724
20
-5.2205879133858266
11
4.2586228346456689
21
-5.2130888582677164
0
LINE
8
BLACK
6
CONTINUOUS
10
4.2586228346456689
20
-5.2130888582677164
11
4.2586228346456689
21
-5.2093393307086613
0
LINE
8
BLACK
6
CONTINUOUS
10
4.2586228346456689
20
-5.2093393307086613
11
4.262372362204724
21
-5.2018402362204723
0
LINE
8
BLACK
6
CONTINUOUS
10
4.262372362204724
20
-5.2018402362204723
11
4.2698714173228343
21
-5.1980907086614172
0
LINE
8
BLACK
6
CONTINUOUS
10
4.2698714173228343
20
-5.1980907086614172
11
4.2811199999999996
21
-5.1980907086614172
0
LINE
8
BLACK
6
CONTINUOUS
10
4.2811199999999996
20
-5.1980907086614172
11
4.2886190944881886
21
-5.2018402362204723
0
LINE
8
BLACK
6
CONTINUOUS
10
4.3186153543307082
20
-5.2805803937007871
11
4.3223648818897633
21
-5.276830866141732
0
LINE
8
BLACK
6
CONTINUOUS
10
4.3223648818897633
20
-5.276830866141732
11
4.3298639370078735
21
-5.2655822834645667
0
LINE
8
BLACK
6
CONTINUOUS
10
4.3298639370078735
20
-5.2655822834645667
11
4.3336134645669286
21
-5.2580832283464565
0
LINE
8
BLACK
6
CONTINUOUS
10
4.3336134645669286
20
-5.2580832283464565
11
4.3373629921259838
21
-5.2468346456692911
0
LINE
8
BLACK
6
CONTINUOUS
10
4.3373629921259838
20
-5.2468346456692911
11
4.3411125196850389
21
-5.2280869685039368
0
LINE
8
BLACK
6
CONTINUOUS
10
4.3411125196850389
20
-5.2280869685039368
11
4.3411125196850389
21
-5.2130888582677164
0
LINE
8
BLACK
6
CONTINUOUS
10
4.3411125196850389
20
-5.2130888582677164
11
4.3373629921259838
21
-5.1943411811023621
0
LINE
8
BLACK
6
CONTINUOUS
10
4.3373629921259838
20
-5.1943411811023621
11
4.3336134645669286
21
-5.1830925984251968
0
LINE
8
BLACK
6
CONTINUOUS
10
4.3336134645669286
20
-5.1830925984251968
11
4.3298639370078735
21
-5.1755935433070865
0
LINE
8
BLACK
6
CONTINUOUS
10
4.3298639370078735
20
-5.1755935433070865
11
4.3223648818897633
21
-5.1643449212598425
0
LINE
8
BLACK
6
CONTINUOUS
10
4.3223648818897633
20
-5.1643449212598425
11
4.3186153543307082
21
-5.1605953937007873
0
LINE
8
BLACK
6
CONTINUOUS
10
4.4610975590551183
20
-5.2805803937007871
11
4.4573479921259844
21
-5.276830866141732
0
LINE
8
BLACK
6
CONTINUOUS
10
4.4573479921259844
20
-5.276830866141732
11
4.4498489370078742
21
-5.2655822834645667
0
LINE
8
BLACK
6
CONTINUOUS
10
4.4498489370078742
20
-5.2655822834645667
11
4.4460994094488191
21
-5.2580832283464565
0
LINE
8
BLACK
6
CONTINUOUS
10
4.4460994094488191
20
-5.2580832283464565
11
4.442349881889764
21
-5.2468346456692911
0
LINE
8
BLACK
6
CONTINUOUS
10
4.442349881889764
20
-5.2468346456692911
11
4.4386003543307089
21
-5.2280869685039368
0
LINE
8
BLACK
6
CONTINUOUS
10
4.4386003543307089
20
-5.2280869685039368
11
4.4386003543307089
21
-5.2130888582677164
0
LINE
8
BLACK
6
CONTINUOUS
10
4.4386003543307089
20
-5.2130888582677164
11
4.442349881889764
21
-5.1943411811023621
0
LINE
8
BLACK
6
CONTINUOUS
10
4.442349881889764
20
-5.1943411811023621
11
4.4460994094488191
21
-5.1830925984251968
0
LINE
8
BLACK
6
CONTINUOUS
10
4.4460994094488191
20
-5.1830925984251968
11
4.4498489370078742
21
-5.1755935433070865
0
LINE
8
BLACK
6
CONTINUOUS
10
4.4498489370078742
20
-5.1755935433070865
11
4.4573479921259844
21
-5.1643449212598425
0
LINE
8
BLACK
6
CONTINUOUS
10
4.4573479921259844
20
-5.1643449212598425
11
4.4610975590551183
21
-5.1605953937007873
0
LINE
8
BLACK
6
CONTINUOUS
10
4.4910937795275592
20
-5.1980907086614172
11
4.4910937795275592
21
-5.2505841732283463
0
LINE
8
BLACK
6
CONTINUOUS
10
4.4910937795275592
20
-5.2055897637795274
11
4.4948433070866143
21
-5.2018402362204723
0
LINE
8
BLACK
6
CONTINUOUS
10
4.4948433070866143
20
-5.2018402362204723
11
4.5023423622047245
21
-5.1980907086614172
0
LINE
8
BLACK
6
CONTINUOUS
10
4.5023423622047245
20
-5.1980907086614172
11
4.5135909842519686
21
-5.1980907086614172
0
LINE
8
BLACK
6
CONTINUOUS
10
4.5135909842519686
20
-5.1980907086614172
11
4.5210900393700788
21
-5.2018402362204723
0
LINE
8
BLACK
6
CONTINUOUS
10
4.5210900393700788
20
-5.2018402362204723
11
4.5248395669291339
21
-5.2093393307086613
0
LINE
8
BLACK
6
CONTINUOUS
10
4.5248395669291339
20
-5.2093393307086613
11
4.5248395669291339
21
-5.2505841732283463
0
LINE
8
BLACK
6
CONTINUOUS
10
4.5735834645669291
20
-5.2505841732283463
11
4.5660844094488189
21
-5.2468346456692911
0
LINE
8
BLACK
6
CONTINUOUS
10
4.5660844094488189
20
-5.2468346456692911
11
4.5623348818897638
21
-5.2430850787401573
0
LINE
8
BLACK
6
CONTINUOUS
10
4.5623348818897638
20
-5.2430850787401573
11
4.5585853543307087
21
-5.2355860236220471
0
LINE
8
BLACK
6
CONTINUOUS
10
4.5585853543307087
20
-5.2355860236220471
11
4.5585853543307087
21
-5.2130888582677164
0
LINE
8
BLACK
6
CONTINUOUS
10
4.5585853543307087
20
-5.2130888582677164
11
4.5623348818897638
21
-5.2055897637795274
0
LINE
8
BLACK
6
CONTINUOUS
10
4.5623348818897638
20
-5.2055897637795274
11
4.5660844094488189
21
-5.2018402362204723
0
LINE
8
BLACK
6
CONTINUOUS
10
4.5660844094488189
20
-5.2018402362204723
11
4.5735834645669291
21
-5.1980907086614172
0
LINE
8
BLACK
6
CONTINUOUS
10
4.5735834645669291
20
-5.1980907086614172
11
4.5848320866141732
21
-5.1980907086614172
0
LINE
8
BLACK
6
CONTINUOUS
10
4.5848320866141732
20
-5.1980907086614172
11
4.5923311417322834
21
-5.2018402362204723
0
LINE
8
BLACK
6
CONTINUOUS
10
4.5923311417322834
20
-5.2018402362204723
11
4.5960806692913385
21
-5.2055897637795274
0
LINE
8
BLACK
6
CONTINUOUS
10
4.5960806692913385
20
-5.2055897637795274
11
4.5998301968503936
21
-5.2130888582677164
0
LINE
8
BLACK
6
CONTINUOUS
10
4.5998301968503936
20
-5.2130888582677164
11
4.5998301968503936
21
-5.2355860236220471
0
LINE
8
BLACK
6
CONTINUOUS
10
4.5998301968503936
20
-5.2355860236220471
11
4.5960806692913385
21
-5.2430850787401573
0
LINE
8
BLACK
6
CONTINUOUS
10
4.5960806692913385
20
-5.2430850787401573
11
4.5923311417322834
21
-5.2468346456692911
0
LINE
8
BLACK
6
CONTINUOUS
10
4.5923311417322834
20
-5.2468346456692911
11
4.5848320866141732
21
-5.2505841732283463
0
LINE
8
BLACK
6
CONTINUOUS
10
4.5848320866141732
20
-5.2505841732283463
11
4.5735834645669291
21
-5.2505841732283463
0
LINE
8
BLACK
6
CONTINUOUS
10
4.622327401574803
20
-5.1980907086614172
11
4.6523236220472439
21
-5.1980907086614172
0
LINE
8
BLACK
6
CONTINUOUS
10
4.6335759842519684
20
-5.1718440157480314
11
4.6335759842519684
21
-5.2393355511811022
0
LINE
8
BLACK
6
CONTINUOUS
10
4.6335759842519684
20
-5.2393355511811022
11
4.6373255118110235
21
-5.2468346456692911
0
LINE
8
BLACK
6
CONTINUOUS
10
4.6373255118110235
20
-5.2468346456692911
11
4.6448245669291337
21
-5.2505841732283463
0
LINE
8
BLACK
6
CONTINUOUS
10
4.6448245669291337
20
-5.2505841732283463
11
4.6523236220472439
21
-5.2505841732283463
0
LINE
8
BLACK
6
CONTINUOUS
10
4.7385628740157477
20
-5.1980907086614172
11
4.7385628740157477
21
-5.276830866141732
0
LINE
8
BLACK
6
CONTINUOUS
10
4.7385628740157477
20
-5.2018402362204723
11
4.7460619291338579
21
-5.1980907086614172
0
LINE
8
BLACK
6
CONTINUOUS
10
4.7460619291338579
20
-5.1980907086614172
11
4.7610600787401571
21
-5.1980907086614172
0
LINE
8
BLACK
6
CONTINUOUS
10
4.7610600787401571
20
-5.1980907086614172
11
4.7685591338582674
21
-5.2018402362204723
0
LINE
8
BLACK
6
CONTINUOUS
10
4.7685591338582674
20
-5.2018402362204723
11
4.7723086614173225
21
-5.2055897637795274
0
LINE
8
BLACK
6
CONTINUOUS
10
4.7723086614173225
20
-5.2055897637795274
11
4.7760581889763776
21
-5.2130888582677164
0
LINE
8
BLACK
6
CONTINUOUS
10
4.7760581889763776
20
-5.2130888582677164
11
4.7760581889763776
21
-5.2355860236220471
0
LINE
8
BLACK
6
CONTINUOUS
10
4.7760581889763776
20
-5.2355860236220471
11
4.7723086614173225
21
-5.2430850787401573
0
LINE
8
BLACK
6
CONTINUOUS
10
4.7723086614173225
20
-5.2430850787401573
11
4.7685591338582674
21
-5.2468346456692911
0
LINE
8
BLACK
6
CONTINUOUS
10
4.7685591338582674
20
-5.2468346456692911
11
4.7610600787401571
21
-5.2505841732283463
0
LINE
8
BLACK
6
CONTINUOUS
10
4.7610600787401571
20
-5.2505841732283463
11
4.7460619291338579
21
-5.2505841732283463
0
LINE
8
BLACK
6
CONTINUOUS
10
4.7460619291338579
20
-5.2505841732283463
11
4.7385628740157477
21
-5.2468346456692911
0
LINE
8
BLACK
6
CONTINUOUS
10
4.8210525590551176
20
-5.2505841732283463
11
4.8135535039370074
21
-5.2468346456692911
0
LINE
8
BLACK
6
CONTINUOUS
10
4.8135535039370074
20
-5.2468346456692911
11
4.8098039763779523
21
-5.2393355511811022
0
LINE
8
BLACK
6
CONTINUOUS
10
4.8098039763779523
20
-5.2393355511811022
11
4.8098039763779523
21
-5.1718440157480314
0
LINE
8
BLACK
6
CONTINUOUS
10
4.8847946062992129
20
-5.2505841732283463
11
4.8847946062992129
21
-5.2093393307086613
0
LINE
8
BLACK
6
CONTINUOUS
10
4.8847946062992129
20
-5.2093393307086613
11
4.8810450787401578
21
-5.2018402362204723
0
LINE
8
BLACK
6
CONTINUOUS
10
4.8810450787401578
20
-5.2018402362204723
11
4.8735460236220467
21
-5.1980907086614172
0
LINE
8
BLACK
6
CONTINUOUS
10
4.8735460236220467
20
-5.1980907086614172
11
4.8585478740157475
21
-5.1980907086614172
0
LINE
8
BLACK
6
CONTINUOUS
10
4.8585478740157475
20
-5.1980907086614172
11
4.8510488188976373
21
-5.2018402362204723
0
LINE
8
BLACK
6
CONTINUOUS
10
4.8847946062992129
20
-5.2468346456692911
11
4.8772955511811027
21
-5.2505841732283463
0
LINE
8
BLACK
6
CONTINUOUS
10
4.8772955511811027
20
-5.2505841732283463
11
4.8585478740157475
21
-5.2505841732283463
0
LINE
8
BLACK
6
CONTINUOUS
10
4.8585478740157475
20
-5.2505841732283463
11
4.8510488188976373
21
-5.2468346456692911
0
LINE
8
BLACK
6
CONTINUOUS
10
4.8510488188976373
20
-5.2468346456692911
11
4.8472992913385822
21
-5.2393355511811022
0
LINE
8
BLACK
6
CONTINUOUS
10
4.8472992913385822
20
-5.2393355511811022
11
4.8472992913385822
21
-5.2318364960629919
0
LINE
8
BLACK
6
CONTINUOUS
10
4.8472992913385822
20
-5.2318364960629919
11
4.8510488188976373
21
-5.2243374409448817
0
LINE
8
BLACK
6
CONTINUOUS
10
4.8510488188976373
20
-5.2243374409448817
11
4.8585478740157475
21
-5.2205879133858266
0
LINE
8
BLACK
6
CONTINUOUS
10
4.8585478740157475
20
-5.2205879133858266
11
4.8772955511811027
21
-5.2205879133858266
0
LINE
8
BLACK
6
CONTINUOUS
10
4.8772955511811027
20
-5.2205879133858266
11
4.8847946062992129
21
-5.2168383858267715
0
LINE
8
BLACK
6
CONTINUOUS
10
4.9110413385826774
20
-5.1980907086614172
11
4.9410375590551183
21
-5.1980907086614172
0
LINE
8
BLACK
6
CONTINUOUS
10
4.9222899212598428
20
-5.1718440157480314
11
4.9222899212598428
21
-5.2393355511811022
0
LINE
8
BLACK
6
CONTINUOUS
10
4.9222899212598428
20
-5.2393355511811022
11
4.9260394488188979
21
-5.2468346456692911
0
LINE
8
BLACK
6
CONTINUOUS
10
4.9260394488188979
20
-5.2468346456692911
11
4.9335385039370081
21
-5.2505841732283463
0
LINE
8
BLACK
6
CONTINUOUS
10
4.9335385039370081
20
-5.2505841732283463
11
4.9410375590551183
21
-5.2505841732283463
0
LINE
8
BLACK
6
CONTINUOUS
10
4.9972805511811025
20
-5.2468346456692911
11
4.9897814960629923
21
-5.2505841732283463
0
LINE
8
BLACK
6
CONTINUOUS
10
4.9897814960629923
20
-5.2505841732283463
11
4.9747833464566931
21
-5.2505841732283463
0
LINE
8
BLACK
6
CONTINUOUS
10
4.9747833464566931
20
-5.2505841732283463
11
4.9672842913385828
21
-5.2468346456692911
0
LINE
8
BLACK
6
CONTINUOUS
10
4.9672842913385828
20
-5.2468346456692911
11
4.9635347637795277
21
-5.2393355511811022
0
LINE
8
BLACK
6
CONTINUOUS
10
4.9635347637795277
20
-5.2393355511811022
11
4.9635347637795277
21
-5.2093393307086613
0
LINE
8
BLACK
6
CONTINUOUS
10
4.9635347637795277
20
-5.2093393307086613
11
4.9672842913385828
21
-5.2018402362204723
0
LINE
8
BLACK
6
CONTINUOUS
10
4.9672842913385828
20
-5.2018402362204723
11
4.9747833464566931
21
-5.1980907086614172
0
LINE
8
BLACK
6
CONTINUOUS
10
4.9747833464566931
20
-5.1980907086614172
11
4.9897814960629923
21
-5.1980907086614172
0
LINE
8
BLACK
6
CONTINUOUS
10
4.9897814960629923
20
-5.1980907086614172
11
4.9972805511811025
21
-5.2018402362204723
0
LINE
8
BLACK
6
CONTINUOUS
10
4.9972805511811025
20
-5.2018402362204723
11
5.0010300787401576
21
-5.2093393307086613
0
LINE
8
BLACK
6
CONTINUOUS
10
5.0010300787401576
20
-5.2093393307086613
11
5.0010300787401576
21
-5.2168383858267715
0
LINE
8
BLACK
6
CONTINUOUS
10
5.0010300787401576
20
-5.2168383858267715
11
4.9635347637795277
21
-5.2243374409448817
0
LINE
8
BLACK
6
CONTINUOUS
10
5.0685216535433071
20
-5.2505841732283463
11
5.0685216535433071
21
-5.1718440157480314
0
LINE
8
BLACK
6
CONTINUOUS
10
5.0685216535433071
20
-5.2468346456692911
11
5.0610225984251969
21
-5.2505841732283463
0
LINE
8
BLACK
6
CONTINUOUS
10
5.0610225984251969
20
-5.2505841732283463
11
5.0460244488188977
21
-5.2505841732283463
0
LINE
8
BLACK
6
CONTINUOUS
10
5.0460244488188977
20
-5.2505841732283463
11
5.0385253937007874
21
-5.2468346456692911
0
LINE
8
BLACK
6
CONTINUOUS
10
5.0385253937007874
20
-5.2468346456692911
11
5.0347758661417323
21
-5.2430850787401573
0
LINE
8
BLACK
6
CONTINUOUS
10
5.0347758661417323
20
-5.2430850787401573
11
5.0310263385826772
21
-5.2355860236220471
0
LINE
8
BLACK
6
CONTINUOUS
10
5.0310263385826772
20
-5.2355860236220471
11
5.0310263385826772
21
-5.2130888582677164
0
LINE
8
BLACK
6
CONTINUOUS
10
5.0310263385826772
20
-5.2130888582677164
11
5.0347758661417323
21
-5.2055897637795274
0
LINE
8
BLACK
6
CONTINUOUS
10
5.0347758661417323
20
-5.2055897637795274
11
5.0385253937007874
21
-5.2018402362204723
0
LINE
8
BLACK
6
CONTINUOUS
10
5.0385253937007874
20
-5.2018402362204723
11
5.0460244488188977
21
-5.1980907086614172
0
LINE
8
BLACK
6
CONTINUOUS
10
5.0460244488188977
20
-5.1980907086614172
11
5.0610225984251969
21
-5.1980907086614172
0
LINE
8
BLACK
6
CONTINUOUS
10
5.0610225984251969
20
-5.1980907086614172
11
5.0685216535433071
21
-5.2018402362204723
0
LINE
8
BLACK
6
CONTINUOUS
10
5.0985179133858267
20
-5.2805803937007871
11
5.1022674409448818
21
-5.276830866141732
0
LINE
8
BLACK
6
CONTINUOUS
10
5.1022674409448818
20
-5.276830866141732
11
5.109766496062992
21
-5.2655822834645667
0
LINE
8
BLACK
6
CONTINUOUS
10
5.109766496062992
20
-5.2655822834645667
11
5.1135160236220472
21
-5.2580832283464565
0
LINE
8
BLACK
6
CONTINUOUS
10
5.1135160236220472
20
-5.2580832283464565
11
5.1172655511811023
21
-5.2468346456692911
0
LINE
8
BLACK
6
CONTINUOUS
10
5.1172655511811023
20
-5.2468346456692911
11
5.1210150787401574
21
-5.2280869685039368
0
LINE
8
BLACK
6
CONTINUOUS
10
5.1210150787401574
20
-5.2280869685039368
11
5.1210150787401574
21
-5.2130888582677164
0
LINE
8
BLACK
6
CONTINUOUS
10
5.1210150787401574
20
-5.2130888582677164
11
5.1172655511811023
21
-5.1943411811023621
0
LINE
8
BLACK
6
CONTINUOUS
10
5.1172655511811023
20
-5.1943411811023621
11
5.1135160236220472
21
-5.1830925984251968
0
LINE
8
BLACK
6
CONTINUOUS
10
5.1135160236220472
20
-5.1830925984251968
11
5.109766496062992
21
-5.1755935433070865
0
LINE
8
BLACK
6
CONTINUOUS
10
5.109766496062992
20
-5.1755935433070865
11
5.1022674409448818
21
-5.1643449212598425
0
LINE
8
BLACK
6
CONTINUOUS
10
5.1022674409448818
20
-5.1643449212598425
11
5.0985179133858267
21
-5.1605953937007873
0
CIRCLE
8
BLACK
10
2.4032362204724409
20
-5.3185039370078737
40
0.0354330708661417
0
LINE
8
BLACK
6
CONTINUOUS
10
2.5825821653543306
20
-5.3545211811023625
11
2.5375877952755905
21
-5.3545211811023625
0
LINE
8
BLACK
6
CONTINUOUS
10
2.5600849606299212
20
-5.3545211811023625
11
2.5600849606299212
21
-5.2757810236220468
0
LINE
8
BLACK
6
CONTINUOUS
10
2.5600849606299212
20
-5.2757810236220468
11
2.552585905511811
21
-5.2870296062992121
0
LINE
8
BLACK
6
CONTINUOUS
10
2.552585905511811
20
-5.2870296062992121
11
2.5450868503937008
21
-5.2945286614173224
0
LINE
8
BLACK
6
CONTINUOUS
10
2.5450868503937008
20
-5.2945286614173224
11
2.5375877952755905
21
-5.2982781889763775
0
LINE
8
BLACK
6
CONTINUOUS
10
2.6163279527559054
20
-5.3470220866141727
11
2.6200774803149605
21
-5.3507716535433065
0
LINE
8
BLACK
6
CONTINUOUS
10
2.6200774803149605
20
-5.3507716535433065
11
2.6163279527559054
21
-5.3545211811023625
0
LINE
8
BLACK
6
CONTINUOUS
10
2.6163279527559054
20
-5.3545211811023625
11
2.6125784251968502
21
-5.3507716535433065
0
LINE
8
BLACK
6
CONTINUOUS
10
2.6125784251968502
20
-5.3507716535433065
11
2.6163279527559054
21
-5.3470220866141727
0
LINE
8
BLACK
6
CONTINUOUS
10
2.6163279527559054
20
-5.3470220866141727
11
2.6163279527559054
21
-5.3545211811023625
0
LINE
8
BLACK
6
CONTINUOUS
10
2.6650718503937005
20
-5.3095267716535428
11
2.6575727952755903
21
-5.3057772440944877
0
LINE
8
BLACK
6
CONTINUOUS
10
2.6575727952755903
20
-5.3057772440944877
11
2.6538232677165352
21
-5.3020277165354326
0
LINE
8
BLACK
6
CONTINUOUS
10
2.6538232677165352
20
-5.3020277165354326
11
2.6500737401574801
21
-5.2945286614173224
0
LINE
8
BLACK
6
CONTINUOUS
10
2.6500737401574801
20
-5.2945286614173224
11
2.6500737401574801
21
-5.2907791338582673
0
LINE
8
BLACK
6
CONTINUOUS
10
2.6500737401574801
20
-5.2907791338582673
11
2.6538232677165352
21
-5.283280078740157
0
LINE
8
BLACK
6
CONTINUOUS
10
2.6538232677165352
20
-5.283280078740157
11
2.6575727952755903
21
-5.2795305511811019
0
LINE
8
BLACK
6
CONTINUOUS
10
2.6575727952755903
20
-5.2795305511811019
11
2.6650718503937005
21
-5.2757810236220468
0
LINE
8
BLACK
6
CONTINUOUS
10
2.6650718503937005
20
-5.2757810236220468
11
2.6800699999999997
21
-5.2757810236220468
0
LINE
8
BLACK
6
CONTINUOUS
10
2.6800699999999997
20
-5.2757810236220468
11
2.6875690551181104
21
-5.2795305511811019
0
LINE
8
BLACK
6
CONTINUOUS
10
2.6875690551181104
20
-5.2795305511811019
11
2.6913185826771655
21
-5.283280078740157
0
LINE
8
BLACK
6
CONTINUOUS
10
2.6913185826771655
20
-5.283280078740157
11
2.6950681102362206
21
-5.2907791338582673
0
LINE
8
BLACK
6
CONTINUOUS
10
2.6950681102362206
20
-5.2907791338582673
11
2.6950681102362206
21
-5.2945286614173224
0
LINE
8
BLACK
6
CONTINUOUS
10
2.6950681102362206
20
-5.2945286614173224
11
2.6913185826771655
21
-5.3020277165354326
0
LINE
8
BLACK
6
CONTINUOUS
10
2.6913185826771655
20
-5.3020277165354326
11
2.6875690551181104
21
-5.3057772440944877
0
LINE
8
BLACK
6
CONTINUOUS
10
2.6875690551181104
20
-5.3057772440944877
11
2.6800699999999997
21
-5.3095267716535428
0
LINE
8
BLACK
6
CONTINUOUS
10
2.6800699999999997
20
-5.3095267716535428
11
2.6650718503937005
21
-5.3095267716535428
0
LINE
8
BLACK
6
CONTINUOUS
10
2.6650718503937005
20
-5.3095267716535428
11
2.6575727952755903
21
-5.3132763385826767
0
LINE
8
BLACK
6
CONTINUOUS
10
2.6575727952755903
20
-5.3132763385826767
11
2.6538232677165352
21
-5.3170258661417318
0
LINE
8
BLACK
6
CONTINUOUS
10
2.6538232677165352
20
-5.3170258661417318
11
2.6500737401574801
21
-5.324524921259842
0
LINE
8
BLACK
6
CONTINUOUS
10
2.6500737401574801
20
-5.324524921259842
11
2.6500737401574801
21
-5.3395230314960624
0
LINE
8
BLACK
6
CONTINUOUS
10
2.6500737401574801
20
-5.3395230314960624
11
2.6538232677165352
21
-5.3470220866141727
0
LINE
8
BLACK
6
CONTINUOUS
10
2.6538232677165352
20
-5.3470220866141727
11
2.6575727952755903
21
-5.3507716535433065
0
LINE
8
BLACK
6
CONTINUOUS
10
2.6575727952755903
20
-5.3507716535433065
11
2.6650718503937005
21
-5.3545211811023625
0
LINE
8
BLACK
6
CONTINUOUS
10
2.6650718503937005
20
-5.3545211811023625
11
2.6800699999999997
21
-5.3545211811023625
0
LINE
8
BLACK
6
CONTINUOUS
10
2.6800699999999997
20
-5.3545211811023625
11
2.6875690551181104
21
-5.3507716535433065
0
LINE
8
BLACK
6
CONTINUOUS
10
2.6875690551181104
20
-5.3507716535433065
11
2.6913185826771655
21
-5.3470220866141727
0
LINE
8
BLACK
6
CONTINUOUS
10
2.6913185826771655
20
-5.3470220866141727
11
2.6950681102362206
21
-5.3395230314960624
0
LINE
8
BLACK
6
CONTINUOUS
10
2.6950681102362206
20
-5.3395230314960624
11
2.6950681102362206
21
-5.324524921259842
0
LINE
8
BLACK
6
CONTINUOUS
10
2.6950681102362206
20
-5.324524921259842
11
2.6913185826771655
21
-5.3170258661417318
0
LINE
8
BLACK
6
CONTINUOUS
10
2.6913185826771655
20
-5.3170258661417318
11
2.6875690551181104
21
-5.3132763385826767
0
LINE
8
BLACK
6
CONTINUOUS
10
2.6875690551181104
20
-5.3132763385826767
11
2.6800699999999997
21
-5.3095267716535428
0
LINE
8
BLACK
6
CONTINUOUS
10
2.7438120078740158
20
-5.2757810236220468
11
2.7513111023622048
21
-5.2757810236220468
0
LINE
8
BLACK
6
CONTINUOUS
10
2.7513111023622048
20
-5.2757810236220468
11
2.758810157480315
21
-5.2795305511811019
0
LINE
8
BLACK
6
CONTINUOUS
10
2.758810157480315
20
-5.2795305511811019
11
2.7625596850393701
21
-5.283280078740157
0
LINE
8
BLACK
6
CONTINUOUS
10
2.7625596850393701
20
-5.283280078740157
11
2.7663092125984252
21
-5.2907791338582673
0
LINE
8
BLACK
6
CONTINUOUS
10
2.7663092125984252
20
-5.2907791338582673
11
2.7700587401574803
21
-5.3057772440944877
0
LINE
8
BLACK
6
CONTINUOUS
10
2.7700587401574803
20
-5.3057772440944877
11
2.7700587401574803
21
-5.324524921259842
0
LINE
8
BLACK
6
CONTINUOUS
10
2.7700587401574803
20
-5.324524921259842
11
2.7663092125984252
21
-5.3395230314960624
0
LINE
8
BLACK
6
CONTINUOUS
10
2.7663092125984252
20
-5.3395230314960624
11
2.7625596850393701
21
-5.3470220866141727
0
LINE
8
BLACK
6
CONTINUOUS
10
2.7625596850393701
20
-5.3470220866141727
11
2.758810157480315
21
-5.3507716535433065
0
LINE
8
BLACK
6
CONTINUOUS
10
2.758810157480315
20
-5.3507716535433065
11
2.7513111023622048
21
-5.3545211811023625
0
LINE
8
BLACK
6
CONTINUOUS
10
2.7513111023622048
20
-5.3545211811023625
11
2.7438120078740158
21
-5.3545211811023625
0
LINE
8
BLACK
6
CONTINUOUS
10
2.7438120078740158
20
-5.3545211811023625
11
2.7363129527559056
21
-5.3507716535433065
0
LINE
8
BLACK
6
CONTINUOUS
10
2.7363129527559056
20
-5.3507716535433065
11
2.7325634251968505
21
-5.3470220866141727
0
LINE
8
BLACK
6
CONTINUOUS
10
2.7325634251968505
20
-5.3470220866141727
11
2.7288138976377954
21
-5.3395230314960624
0
LINE
8
BLACK
6
CONTINUOUS
10
2.7288138976377954
20
-5.3395230314960624
11
2.7250643700787403
21
-5.324524921259842
0
LINE
8
BLACK
6
CONTINUOUS
10
2.7250643700787403
20
-5.324524921259842
11
2.7250643700787403
21
-5.3057772440944877
0
LINE
8
BLACK
6
CONTINUOUS
10
2.7250643700787403
20
-5.3057772440944877
11
2.7288138976377954
21
-5.2907791338582673
0
LINE
8
BLACK
6
CONTINUOUS
10
2.7288138976377954
20
-5.2907791338582673
11
2.7325634251968505
21
-5.283280078740157
0
LINE
8
BLACK
6
CONTINUOUS
10
2.7325634251968505
20
-5.283280078740157
11
2.7363129527559056
21
-5.2795305511811019
0
LINE
8
BLACK
6
CONTINUOUS
10
2.7363129527559056
20
-5.2795305511811019
11
2.7438120078740158
21
-5.2757810236220468
0
LINE
8
BLACK
6
CONTINUOUS
10
2.8188026377952755
20
-5.2757810236220468
11
2.8263017322834645
21
-5.2757810236220468
0
LINE
8
BLACK
6
CONTINUOUS
10
2.8263017322834645
20
-5.2757810236220468
11
2.8338007874015747
21
-5.2795305511811019
0
LINE
8
BLACK
6
CONTINUOUS
10
2.8338007874015747
20
-5.2795305511811019
11
2.8375503149606298
21
-5.283280078740157
0
LINE
8
BLACK
6
CONTINUOUS
10
2.8375503149606298
20
-5.283280078740157
11
2.8412998425196849
21
-5.2907791338582673
0
LINE
8
BLACK
6
CONTINUOUS
10
2.8412998425196849
20
-5.2907791338582673
11
2.84504937007874
21
-5.3057772440944877
0
LINE
8
BLACK
6
CONTINUOUS
10
2.84504937007874
20
-5.3057772440944877
11
2.84504937007874
21
-5.324524921259842
0
LINE
8
BLACK
6
CONTINUOUS
10
2.84504937007874
20
-5.324524921259842
11
2.8412998425196849
21
-5.3395230314960624
0
LINE
8
BLACK
6
CONTINUOUS
10
2.8412998425196849
20
-5.3395230314960624
11
2.8375503149606298
21
-5.3470220866141727
0
LINE
8
BLACK
6
CONTINUOUS
10
2.8375503149606298
20
-5.3470220866141727
11
2.8338007874015747
21
-5.3507716535433065
0
LINE
8
BLACK
6
CONTINUOUS
10
2.8338007874015747
20
-5.3507716535433065
11
2.8263017322834645
21
-5.3545211811023625
0
LINE
8
BLACK
6
CONTINUOUS
10
2.8263017322834645
20
-5.3545211811023625
11
2.8188026377952755
21
-5.3545211811023625
0
LINE
8
BLACK
6
CONTINUOUS
10
2.8188026377952755
20
-5.3545211811023625
11
2.8113035826771653
21
-5.3507716535433065
0
LINE
8
BLACK
6
CONTINUOUS
10
2.8113035826771653
20
-5.3507716535433065
11
2.8075540551181102
21
-5.3470220866141727
0
LINE
8
BLACK
6
CONTINUOUS
10
2.8075540551181102
20
-5.3470220866141727
11
2.8038045275590551
21
-5.3395230314960624
0
LINE
8
BLACK
6
CONTINUOUS
10
2.8038045275590551
20
-5.3395230314960624
11
2.800055
21
-5.324524921259842
0
LINE
8
BLACK
6
CONTINUOUS
10
2.800055
20
-5.324524921259842
11
2.800055
21
-5.3057772440944877
0
LINE
8
BLACK
6
CONTINUOUS
10
2.800055
20
-5.3057772440944877
11
2.8038045275590551
21
-5.2907791338582673
0
LINE
8
BLACK
6
CONTINUOUS
10
2.8038045275590551
20
-5.2907791338582673
11
2.8075540551181102
21
-5.283280078740157
0
LINE
8
BLACK
6
CONTINUOUS
10
2.8075540551181102
20
-5.283280078740157
11
2.8113035826771653
21
-5.2795305511811019
0
LINE
8
BLACK
6
CONTINUOUS
10
2.8113035826771653
20
-5.2795305511811019
11
2.8188026377952755
21
-5.2757810236220468
0
LINE
8
BLACK
6
CONTINUOUS
10
2.8787951574803148
20
-5.3545211811023625
11
2.8787951574803148
21
-5.3020277165354326
0
LINE
8
BLACK
6
CONTINUOUS
10
2.8787951574803148
20
-5.3095267716535428
11
2.8825446850393699
21
-5.3057772440944877
0
LINE
8
BLACK
6
CONTINUOUS
10
2.8825446850393699
20
-5.3057772440944877
11
2.8900437401574801
21
-5.3020277165354326
0
LINE
8
BLACK
6
CONTINUOUS
10
2.8900437401574801
20
-5.3020277165354326
11
2.9012923622047242
21
-5.3020277165354326
0
LINE
8
BLACK
6
CONTINUOUS
10
2.9012923622047242
20
-5.3020277165354326
11
2.9087914173228344
21
-5.3057772440944877
0
LINE
8
BLACK
6
CONTINUOUS
10
2.9087914173228344
20
-5.3057772440944877
11
2.9125409448818895
21
-5.3132763385826767
0
LINE
8
BLACK
6
CONTINUOUS
10
2.9125409448818895
20
-5.3132763385826767
11
2.9125409448818895
21
-5.3545211811023625
0
LINE
8
BLACK
6
CONTINUOUS
10
2.9125409448818895
20
-5.3132763385826767
11
2.9162904724409446
21
-5.3057772440944877
0
LINE
8
BLACK
6
CONTINUOUS
10
2.9162904724409446
20
-5.3057772440944877
11
2.9237895275590549
21
-5.3020277165354326
0
LINE
8
BLACK
6
CONTINUOUS
10
2.9237895275590549
20
-5.3020277165354326
11
2.9350381102362202
21
-5.3020277165354326
0
LINE
8
BLACK
6
CONTINUOUS
10
2.9350381102362202
20
-5.3020277165354326
11
2.9425372047244092
21
-5.3057772440944877
0
LINE
8
BLACK
6
CONTINUOUS
10
2.9425372047244092
20
-5.3057772440944877
11
2.9462867322834647
21
-5.3132763385826767
0
LINE
8
BLACK
6
CONTINUOUS
10
2.9462867322834647
20
-5.3132763385826767
11
2.9462867322834647
21
-5.3545211811023625
0
LINE
8
BLACK
6
CONTINUOUS
10
2.9837820472440946
20
-5.3545211811023625
11
2.9837820472440946
21
-5.3020277165354326
0
LINE
8
BLACK
6
CONTINUOUS
10
2.9837820472440946
20
-5.3095267716535428
11
2.9875315748031497
21
-5.3057772440944877
0
LINE
8
BLACK
6
CONTINUOUS
10
2.9875315748031497
20
-5.3057772440944877
11
2.9950306299212599
21
-5.3020277165354326
0
LINE
8
BLACK
6
CONTINUOUS
10
2.9950306299212599
20
-5.3020277165354326
11
3.006279251968504
21
-5.3020277165354326
0
LINE
8
BLACK
6
CONTINUOUS
10
3.006279251968504
20
-5.3020277165354326
11
3.0137783070866142
21
-5.3057772440944877
0
LINE
8
BLACK
6
CONTINUOUS
10
3.0137783070866142
20
-5.3057772440944877
11
3.0175278346456693
21
-5.3132763385826767
0
LINE
8
BLACK
6
CONTINUOUS
10
3.0175278346456693
20
-5.3132763385826767
11
3.0175278346456693
21
-5.3545211811023625
0
LINE
8
BLACK
6
CONTINUOUS
10
3.0175278346456693
20
-5.3132763385826767
11
3.0212773622047244
21
-5.3057772440944877
0
LINE
8
BLACK
6
CONTINUOUS
10
3.0212773622047244
20
-5.3057772440944877
11
3.0287764173228346
21
-5.3020277165354326
0
LINE
8
BLACK
6
CONTINUOUS
10
3.0287764173228346
20
-5.3020277165354326
11
3.040025
21
-5.3020277165354326
0
LINE
8
BLACK
6
CONTINUOUS
10
3.040025
20
-5.3020277165354326
11
3.047524094488189
21
-5.3057772440944877
0
LINE
8
BLACK
6
CONTINUOUS
10
3.047524094488189
20
-5.3057772440944877
11
3.0512736220472441
21
-5.3132763385826767
0
LINE
8
BLACK
6
CONTINUOUS
10
3.0512736220472441
20
-5.3132763385826767
11
3.0512736220472441
21
-5.3545211811023625
0
LINE
8
BLACK
6
CONTINUOUS
10
3.205004409448819
20
-5.2720314960629917
11
3.1375128740157479
21
-5.3732688188976381
0
LINE
8
BLACK
6
CONTINUOUS
10
3.3062417716535433
20
-5.2757810236220468
11
3.3137408661417322
21
-5.2757810236220468
0
LINE
8
BLACK
6
CONTINUOUS
10
3.3137408661417322
20
-5.2757810236220468
11
3.3212399212598425
21
-5.2795305511811019
0
LINE
8
BLACK
6
CONTINUOUS
10
3.3212399212598425
20
-5.2795305511811019
11
3.3249894488188976
21
-5.283280078740157
0
LINE
8
BLACK
6
CONTINUOUS
10
3.3249894488188976
20
-5.283280078740157
11
3.3287389763779527
21
-5.2907791338582673
0
LINE
8
BLACK
6
CONTINUOUS
10
3.3287389763779527
20
-5.2907791338582673
11
3.3324885039370078
21
-5.3057772440944877
0
LINE
8
BLACK
6
CONTINUOUS
10
3.3324885039370078
20
-5.3057772440944877
11
3.3324885039370078
21
-5.324524921259842
0
LINE
8
BLACK
6
CONTINUOUS
10
3.3324885039370078
20
-5.324524921259842
11
3.3287389763779527
21
-5.3395230314960624
0
LINE
8
BLACK
6
CONTINUOUS
10
3.3287389763779527
20
-5.3395230314960624
11
3.3249894488188976
21
-5.3470220866141727
0
LINE
8
BLACK
6
CONTINUOUS
10
3.3249894488188976
20
-5.3470220866141727
11
3.3212399212598425
21
-5.3507716535433065
0
LINE
8
BLACK
6
CONTINUOUS
10
3.3212399212598425
20
-5.3507716535433065
11
3.3137408661417322
21
-5.3545211811023625
0
LINE
8
BLACK
6
CONTINUOUS
10
3.3137408661417322
20
-5.3545211811023625
11
3.3062417716535433
21
-5.3545211811023625
0
LINE
8
BLACK
6
CONTINUOUS
10
3.3062417716535433
20
-5.3545211811023625
11
3.2987427165354331
21
-5.3507716535433065
0
LINE
8
BLACK
6
CONTINUOUS
10
3.2987427165354331
20
-5.3507716535433065
11
3.2949931889763779
21
-5.3470220866141727
0
LINE
8
BLACK
6
CONTINUOUS
10
3.2949931889763779
20
-5.3470220866141727
11
3.2912436614173228
21
-5.3395230314960624
0
LINE
8
BLACK
6
CONTINUOUS
10
3.2912436614173228
20
-5.3395230314960624
11
3.2874941338582677
21
-5.324524921259842
0
LINE
8
BLACK
6
CONTINUOUS
10
3.2874941338582677
20
-5.324524921259842
11
3.2874941338582677
21
-5.3057772440944877
0
LINE
8
BLACK
6
CONTINUOUS
10
3.2874941338582677
20
-5.3057772440944877
11
3.2912436614173228
21
-5.2907791338582673
0
LINE
8
BLACK
6
CONTINUOUS
10
3.2912436614173228
20
-5.2907791338582673
11
3.2949931889763779
21
-5.283280078740157
0
LINE
8
BLACK
6
CONTINUOUS
10
3.2949931889763779
20
-5.283280078740157
11
3.2987427165354331
21
-5.2795305511811019
0
LINE
8
BLACK
6
CONTINUOUS
10
3.2987427165354331
20
-5.2795305511811019
11
3.3062417716535433
21
-5.2757810236220468
0
LINE
8
BLACK
6
CONTINUOUS
10
3.3662342913385825
20
-5.3470220866141727
11
3.3699838188976377
21
-5.3507716535433065
0
LINE
8
BLACK
6
CONTINUOUS
10
3.3699838188976377
20
-5.3507716535433065
11
3.3662342913385825
21
-5.3545211811023625
0
LINE
8
BLACK
6
CONTINUOUS
10
3.3662342913385825
20
-5.3545211811023625
11
3.3624847637795274
21
-5.3507716535433065
0
LINE
8
BLACK
6
CONTINUOUS
10
3.3624847637795274
20
-5.3507716535433065
11
3.3662342913385825
21
-5.3470220866141727
0
LINE
8
BLACK
6
CONTINUOUS
10
3.3662342913385825
20
-5.3470220866141727
11
3.3662342913385825
21
-5.3545211811023625
0
LINE
8
BLACK
6
CONTINUOUS
10
3.4187277165354328
20
-5.2757810236220468
11
3.4262268110236218
21
-5.2757810236220468
0
LINE
8
BLACK
6
CONTINUOUS
10
3.4262268110236218
20
-5.2757810236220468
11
3.433725866141732
21
-5.2795305511811019
0
LINE
8
BLACK
6
CONTINUOUS
10
3.433725866141732
20
-5.2795305511811019
11
3.4374753937007871
21
-5.283280078740157
0
LINE
8
BLACK
6
CONTINUOUS
10
3.4374753937007871
20
-5.283280078740157
11
3.4412249212598423
21
-5.2907791338582673
0
LINE
8
BLACK
6
CONTINUOUS
10
3.4412249212598423
20
-5.2907791338582673
11
3.4449744488188974
21
-5.3057772440944877
0
LINE
8
BLACK
6
CONTINUOUS
10
3.4449744488188974
20
-5.3057772440944877
11
3.4449744488188974
21
-5.324524921259842
0
LINE
8
BLACK
6
CONTINUOUS
10
3.4449744488188974
20
-5.324524921259842
11
3.4412249212598423
21
-5.3395230314960624
0
LINE
8
BLACK
6
CONTINUOUS
10
3.4412249212598423
20
-5.3395230314960624
11
3.4374753937007871
21
-5.3470220866141727
0
LINE
8
BLACK
6
CONTINUOUS
10
3.4374753937007871
20
-5.3470220866141727
11
3.433725866141732
21
-5.3507716535433065
0
LINE
8
BLACK
6
CONTINUOUS
10
3.433725866141732
20
-5.3507716535433065
11
3.4262268110236218
21
-5.3545211811023625
0
LINE
8
BLACK
6
CONTINUOUS
10
3.4262268110236218
20
-5.3545211811023625
11
3.4187277165354328
21
-5.3545211811023625
0
LINE
8
BLACK
6
CONTINUOUS
10
3.4187277165354328
20
-5.3545211811023625
11
3.4112286614173226
21
-5.3507716535433065
0
LINE
8
BLACK
6
CONTINUOUS
10
3.4112286614173226
20
-5.3507716535433065
11
3.4074791338582675
21
-5.3470220866141727
0
LINE
8
BLACK
6
CONTINUOUS
10
3.4074791338582675
20
-5.3470220866141727
11
3.4037296062992124
21
-5.3395230314960624
0
LINE
8
BLACK
6
CONTINUOUS
10
3.4037296062992124
20
-5.3395230314960624
11
3.3999800787401573
21
-5.324524921259842
0
LINE
8
BLACK
6
CONTINUOUS
10
3.3999800787401573
20
-5.324524921259842
11
3.3999800787401573
21
-5.3057772440944877
0
LINE
8
BLACK
6
CONTINUOUS
10
3.3999800787401573
20
-5.3057772440944877
11
3.4037296062992124
21
-5.2907791338582673
0
LINE
8
BLACK
6
CONTINUOUS
10
3.4037296062992124
20
-5.2907791338582673
11
3.4074791338582675
21
-5.283280078740157
0
LINE
8
BLACK
6
CONTINUOUS
10
3.4074791338582675
20
-5.283280078740157
11
3.4112286614173226
21
-5.2795305511811019
0
LINE
8
BLACK
6
CONTINUOUS
10
3.4112286614173226
20
-5.2795305511811019
11
3.4187277165354328
21
-5.2757810236220468
0
LINE
8
BLACK
6
CONTINUOUS
10
3.4712211811023623
20
-5.2757810236220468
11
3.5237146062992126
21
-5.2757810236220468
0
LINE
8
BLACK
6
CONTINUOUS
10
3.5237146062992126
20
-5.2757810236220468
11
3.4899688188976379
21
-5.3545211811023625
0
LINE
8
BLACK
6
CONTINUOUS
10
3.5687089763779527
20
-5.2757810236220468
11
3.5762080708661417
21
-5.2757810236220468
0
LINE
8
BLACK
6
CONTINUOUS
10
3.5762080708661417
20
-5.2757810236220468
11
3.5837071259842519
21
-5.2795305511811019
0
LINE
8
BLACK
6
CONTINUOUS
10
3.5837071259842519
20
-5.2795305511811019
11
3.587456653543307
21
-5.283280078740157
0
LINE
8
BLACK
6
CONTINUOUS
10
3.587456653543307
20
-5.283280078740157
11
3.5912061811023621
21
-5.2907791338582673
0
LINE
8
BLACK
6
CONTINUOUS
10
3.5912061811023621
20
-5.2907791338582673
11
3.5949557086614172
21
-5.3057772440944877
0
LINE
8
BLACK
6
CONTINUOUS
10
3.5949557086614172
20
-5.3057772440944877
11
3.5949557086614172
21
-5.324524921259842
0
LINE
8
BLACK
6
CONTINUOUS
10
3.5949557086614172
20
-5.324524921259842
11
3.5912061811023621
21
-5.3395230314960624
0
LINE
8
BLACK
6
CONTINUOUS
10
3.5912061811023621
20
-5.3395230314960624
11
3.587456653543307
21
-5.3470220866141727
0
LINE
8
BLACK
6
CONTINUOUS
10
3.587456653543307
20
-5.3470220866141727
11
3.5837071259842519
21
-5.3507716535433065
0
LINE
8
BLACK
6
CONTINUOUS
10
3.5837071259842519
20
-5.3507716535433065
11
3.5762080708661417
21
-5.3545211811023625
0
LINE
8
BLACK
6
CONTINUOUS
10
3.5762080708661417
20
-5.3545211811023625
11
3.5687089763779527
21
-5.3545211811023625
0
LINE
8
BLACK
6
CONTINUOUS
10
3.5687089763779527
20
-5.3545211811023625
11
3.5612099212598425
21
-5.3507716535433065
0
LINE
8
BLACK
6
CONTINUOUS
10
3.5612099212598425
20
-5.3507716535433065
11
3.5574603937007874
21
-5.3470220866141727
0
LINE
8
BLACK
6
CONTINUOUS
10
3.5574603937007874
20
-5.3470220866141727
11
3.5537108661417323
21
-5.3395230314960624
0
LINE
8
BLACK
6
CONTINUOUS
10
3.5537108661417323
20
-5.3395230314960624
11
3.5499613385826772
21
-5.324524921259842
0
LINE
8
BLACK
6
CONTINUOUS
10
3.5499613385826772
20
-5.324524921259842
11
3.5499613385826772
21
-5.3057772440944877
0
LINE
8
BLACK
6
CONTINUOUS
10
3.5499613385826772
20
-5.3057772440944877
11
3.5537108661417323
21
-5.2907791338582673
0
LINE
8
BLACK
6
CONTINUOUS
10
3.5537108661417323
20
-5.2907791338582673
11
3.5574603937007874
21
-5.283280078740157
0
LINE
8
BLACK
6
CONTINUOUS
10
3.5574603937007874
20
-5.283280078740157
11
3.5612099212598425
21
-5.2795305511811019
0
LINE
8
BLACK
6
CONTINUOUS
10
3.5612099212598425
20
-5.2795305511811019
11
3.5687089763779527
21
-5.2757810236220468
0
LINE
8
BLACK
6
CONTINUOUS
10
3.6324510236220471
20
-5.3545211811023625
11
3.6474491338582675
21
-5.3545211811023625
0
LINE
8
BLACK
6
CONTINUOUS
10
3.6474491338582675
20
-5.3545211811023625
11
3.6549482283464565
21
-5.3507716535433065
0
LINE
8
BLACK
6
CONTINUOUS
10
3.6549482283464565
20
-5.3507716535433065
11
3.6586977559055116
21
-5.3470220866141727
0
LINE
8
BLACK
6
CONTINUOUS
10
3.6586977559055116
20
-5.3470220866141727
11
3.6661968110236218
21
-5.3357735039370073
0
LINE
8
BLACK
6
CONTINUOUS
10
3.6661968110236218
20
-5.3357735039370073
11
3.6699463385826769
21
-5.3207753937007869
0
LINE
8
BLACK
6
CONTINUOUS
10
3.6699463385826769
20
-5.3207753937007869
11
3.6699463385826769
21
-5.2907791338582673
0
LINE
8
BLACK
6
CONTINUOUS
10
3.6699463385826769
20
-5.2907791338582673
11
3.6661968110236218
21
-5.283280078740157
0
LINE
8
BLACK
6
CONTINUOUS
10
3.6661968110236218
20
-5.283280078740157
11
3.6624472834645667
21
-5.2795305511811019
0
LINE
8
BLACK
6
CONTINUOUS
10
3.6624472834645667
20
-5.2795305511811019
11
3.6549482283464565
21
-5.2757810236220468
0
LINE
8
BLACK
6
CONTINUOUS
10
3.6549482283464565
20
-5.2757810236220468
11
3.6399500787401573
21
-5.2757810236220468
0
LINE
8
BLACK
6
CONTINUOUS
10
3.6399500787401573
20
-5.2757810236220468
11
3.6324510236220471
21
-5.2795305511811019
0
LINE
8
BLACK
6
CONTINUOUS
10
3.6324510236220471
20
-5.2795305511811019
11
3.628701496062992
21
-5.283280078740157
0
LINE
8
BLACK
6
CONTINUOUS
10
3.628701496062992
20
-5.283280078740157
11
3.6249519685039369
21
-5.2907791338582673
0
LINE
8
BLACK
6
CONTINUOUS
10
3.6249519685039369
20
-5.2907791338582673
11
3.6249519685039369
21
-5.3095267716535428
0
LINE
8
BLACK
6
CONTINUOUS
10
3.6249519685039369
20
-5.3095267716535428
11
3.628701496062992
21
-5.3170258661417318
0
LINE
8
BLACK
6
CONTINUOUS
10
3.628701496062992
20
-5.3170258661417318
11
3.6324510236220471
21
-5.3207753937007869
0
LINE
8
BLACK
6
CONTINUOUS
10
3.6324510236220471
20
-5.3207753937007869
11
3.6399500787401573
21
-5.324524921259842
0
LINE
8
BLACK
6
CONTINUOUS
10
3.6399500787401573
20
-5.324524921259842
11
3.6549482283464565
21
-5.324524921259842
0
LINE
8
BLACK
6
CONTINUOUS
10
3.6549482283464565
20
-5.324524921259842
11
3.6624472834645667
21
-5.3207753937007869
0
LINE
8
BLACK
6
CONTINUOUS
10
3.6624472834645667
20
-5.3207753937007869
11
3.6661968110236218
21
-5.3170258661417318
0
LINE
8
BLACK
6
CONTINUOUS
10
3.6661968110236218
20
-5.3170258661417318
11
3.6699463385826769
21
-5.3095267716535428
0
LINE
8
BLACK
6
CONTINUOUS
10
3.6999425984251966
20
-5.2757810236220468
11
3.6999425984251966
21
-5.2907791338582673
0
LINE
8
BLACK
6
CONTINUOUS
10
3.7299388582677167
20
-5.2757810236220468
11
3.7299388582677167
21
-5.2907791338582673
0
LINE
8
BLACK
6
CONTINUOUS
10
3.8461743700787401
20
-5.3845174015748034
11
3.8424248031496062
21
-5.3807678740157483
0
LINE
8
BLACK
6
CONTINUOUS
10
3.8424248031496062
20
-5.3807678740157483
11
3.834925748031496
21
-5.369519291338583
0
LINE
8
BLACK
6
CONTINUOUS
10
3.834925748031496
20
-5.369519291338583
11
3.8311762204724409
21
-5.3620202362204727
0
LINE
8
BLACK
6
CONTINUOUS
10
3.8311762204724409
20
-5.3620202362204727
11
3.8274266929133858
21
-5.3507716535433065
0
LINE
8
BLACK
6
CONTINUOUS
10
3.8274266929133858
20
-5.3507716535433065
11
3.8236771653543307
21
-5.3320239763779522
0
LINE
8
BLACK
6
CONTINUOUS
10
3.8236771653543307
20
-5.3320239763779522
11
3.8236771653543307
21
-5.3170258661417318
0
LINE
8
BLACK
6
CONTINUOUS
10
3.8236771653543307
20
-5.3170258661417318
11
3.8274266929133858
21
-5.2982781889763775
0
LINE
8
BLACK
6
CONTINUOUS
10
3.8274266929133858
20
-5.2982781889763775
11
3.8311762204724409
21
-5.2870296062992121
0
LINE
8
BLACK
6
CONTINUOUS
10
3.8311762204724409
20
-5.2870296062992121
11
3.834925748031496
21
-5.2795305511811019
0
LINE
8
BLACK
6
CONTINUOUS
10
3.834925748031496
20
-5.2795305511811019
11
3.8424248031496062
21
-5.2682819291338578
0
LINE
8
BLACK
6
CONTINUOUS
10
3.8424248031496062
20
-5.2682819291338578
11
3.8461743700787401
21
-5.2645324015748027
0
LINE
8
BLACK
6
CONTINUOUS
10
3.8724210629921259
20
-5.283280078740157
11
3.876170590551181
21
-5.2795305511811019
0
LINE
8
BLACK
6
CONTINUOUS
10
3.876170590551181
20
-5.2795305511811019
11
3.8836696456692912
21
-5.2757810236220468
0
LINE
8
BLACK
6
CONTINUOUS
10
3.8836696456692912
20
-5.2757810236220468
11
3.9024173228346455
21
-5.2757810236220468
0
LINE
8
BLACK
6
CONTINUOUS
10
3.9024173228346455
20
-5.2757810236220468
11
3.9099163779527557
21
-5.2795305511811019
0
LINE
8
BLACK
6
CONTINUOUS
10
3.9099163779527557
20
-5.2795305511811019
11
3.9136659055118108
21
-5.283280078740157
0
LINE
8
BLACK
6
CONTINUOUS
10
3.9136659055118108
20
-5.283280078740157
11
3.9174154330708659
21
-5.2907791338582673
0
LINE
8
BLACK
6
CONTINUOUS
10
3.9174154330708659
20
-5.2907791338582673
11
3.9174154330708659
21
-5.2982781889763775
0
LINE
8
BLACK
6
CONTINUOUS
10
3.9174154330708659
20
-5.2982781889763775
11
3.9136659055118108
21
-5.3095267716535428
0
LINE
8
BLACK
6
CONTINUOUS
10
3.9136659055118108
20
-5.3095267716535428
11
3.8686715354330707
21
-5.3545211811023625
0
LINE
8
BLACK
6
CONTINUOUS
10
3.8686715354330707
20
-5.3545211811023625
11
3.9174154330708659
21
-5.3545211811023625
0
LINE
8
BLACK
6
CONTINUOUS
10
4.0111537401574804
20
-5.3545211811023625
11
4.0111537401574804
21
-5.2757810236220468
0
LINE
8
BLACK
6
CONTINUOUS
10
4.0448995275590551
20
-5.3545211811023625
11
4.0448995275590551
21
-5.3132763385826767
0
LINE
8
BLACK
6
CONTINUOUS
10
4.0448995275590551
20
-5.3132763385826767
11
4.04115
21
-5.3057772440944877
0
LINE
8
BLACK
6
CONTINUOUS
10
4.04115
20
-5.3057772440944877
11
4.0336509448818898
21
-5.3020277165354326
0
LINE
8
BLACK
6
CONTINUOUS
10
4.0336509448818898
20
-5.3020277165354326
11
4.0224023228346457
21
-5.3020277165354326
0
LINE
8
BLACK
6
CONTINUOUS
10
4.0224023228346457
20
-5.3020277165354326
11
4.0149032677165355
21
-5.3057772440944877
0
LINE
8
BLACK
6
CONTINUOUS
10
4.0149032677165355
20
-5.3057772440944877
11
4.0111537401574804
21
-5.3095267716535428
0
LINE
8
BLACK
6
CONTINUOUS
10
4.0936434251968503
20
-5.3545211811023625
11
4.0861443700787401
21
-5.3507716535433065
0
LINE
8
BLACK
6
CONTINUOUS
10
4.0861443700787401
20
-5.3507716535433065
11
4.082394842519685
21
-5.3470220866141727
0
LINE
8
BLACK
6
CONTINUOUS
10
4.082394842519685
20
-5.3470220866141727
11
4.0786453149606299
21
-5.3395230314960624
0
LINE
8
BLACK
6
CONTINUOUS
10
4.0786453149606299
20
-5.3395230314960624
11
4.0786453149606299
21
-5.3170258661417318
0
LINE
8
BLACK
6
CONTINUOUS
10
4.0786453149606299
20
-5.3170258661417318
11
4.082394842519685
21
-5.3095267716535428
0
LINE
8
BLACK
6
CONTINUOUS
10
4.082394842519685
20
-5.3095267716535428
11
4.0861443700787401
21
-5.3057772440944877
0
LINE
8
BLACK
6
CONTINUOUS
10
4.0861443700787401
20
-5.3057772440944877
11
4.0936434251968503
21
-5.3020277165354326
0
LINE
8
BLACK
6
CONTINUOUS
10
4.0936434251968503
20
-5.3020277165354326
11
4.1048920472440944
21
-5.3020277165354326
0
LINE
8
BLACK
6
CONTINUOUS
10
4.1048920472440944
20
-5.3020277165354326
11
4.1123911023622046
21
-5.3057772440944877
0
LINE
8
BLACK
6
CONTINUOUS
10
4.1123911023622046
20
-5.3057772440944877
11
4.1161406299212597
21
-5.3095267716535428
0
LINE
8
BLACK
6
CONTINUOUS
10
4.1161406299212597
20
-5.3095267716535428
11
4.1198901574803148
21
-5.3170258661417318
0
LINE
8
BLACK
6
CONTINUOUS
10
4.1198901574803148
20
-5.3170258661417318
11
4.1198901574803148
21
-5.3395230314960624
0
LINE
8
BLACK
6
CONTINUOUS
10
4.1198901574803148
20
-5.3395230314960624
11
4.1161406299212597
21
-5.3470220866141727
0
LINE
8
BLACK
6
CONTINUOUS
10
4.1161406299212597
20
-5.3470220866141727
11
4.1123911023622046
21
-5.3507716535433065
0
LINE
8
BLACK
6
CONTINUOUS
10
4.1123911023622046
20
-5.3507716535433065
11
4.1048920472440944
21
-5.3545211811023625
0
LINE
8
BLACK
6
CONTINUOUS
10
4.1048920472440944
20
-5.3545211811023625
11
4.0936434251968503
21
-5.3545211811023625
0
LINE
8
BLACK
6
CONTINUOUS
10
4.1648845275590549
20
-5.3545211811023625
11
4.1573854724409447
21
-5.3507716535433065
0
LINE
8
BLACK
6
CONTINUOUS
10
4.1573854724409447
20
-5.3507716535433065
11
4.1536359448818896
21
-5.3432725590551176
0
LINE
8
BLACK
6
CONTINUOUS
10
4.1536359448818896
20
-5.3432725590551176
11
4.1536359448818896
21
-5.2757810236220468
0
LINE
8
BLACK
6
CONTINUOUS
10
4.2248770472440942
20
-5.3507716535433065
11
4.217377992125984
21
-5.3545211811023625
0
LINE
8
BLACK
6
CONTINUOUS
10
4.217377992125984
20
-5.3545211811023625
11
4.2023798425196848
21
-5.3545211811023625
0
LINE
8
BLACK
6
CONTINUOUS
10
4.2023798425196848
20
-5.3545211811023625
11
4.1948807874015746
21
-5.3507716535433065
0
LINE
8
BLACK
6
CONTINUOUS
10
4.1948807874015746
20
-5.3507716535433065
11
4.1911312598425194
21
-5.3432725590551176
0
LINE
8
BLACK
6
CONTINUOUS
10
4.1911312598425194
20
-5.3432725590551176
11
4.1911312598425194
21
-5.3132763385826767
0
LINE
8
BLACK
6
CONTINUOUS
10
4.1911312598425194
20
-5.3132763385826767
11
4.1948807874015746
21
-5.3057772440944877
0
LINE
8
BLACK
6
CONTINUOUS
10
4.1948807874015746
20
-5.3057772440944877
11
4.2023798425196848
21
-5.3020277165354326
0
LINE
8
BLACK
6
CONTINUOUS
10
4.2023798425196848
20
-5.3020277165354326
11
4.217377992125984
21
-5.3020277165354326
0
LINE
8
BLACK
6
CONTINUOUS
10
4.217377992125984
20
-5.3020277165354326
11
4.2248770472440942
21
-5.3057772440944877
0
LINE
8
BLACK
6
CONTINUOUS
10
4.2248770472440942
20
-5.3057772440944877
11
4.2286265748031493
21
-5.3132763385826767
0
LINE
8
BLACK
6
CONTINUOUS
10
4.2286265748031493
20
-5.3132763385826767
11
4.2286265748031493
21
-5.3207753937007869
0
LINE
8
BLACK
6
CONTINUOUS
10
4.2286265748031493
20
-5.3207753937007869
11
4.1911312598425194
21
-5.3282744488188971
0
LINE
8
BLACK
6
CONTINUOUS
10
4.2586228346456689
20
-5.3507716535433065
11
4.2661218897637792
21
-5.3545211811023625
0
LINE
8
BLACK
6
CONTINUOUS
10
4.2661218897637792
20
-5.3545211811023625
11
4.2811199999999996
21
-5.3545211811023625
0
LINE
8
BLACK
6
CONTINUOUS
10
4.2811199999999996
20
-5.3545211811023625
11
4.2886190944881886
21
-5.3507716535433065
0
LINE
8
BLACK
6
CONTINUOUS
10
4.2886190944881886
20
-5.3507716535433065
11
4.2923686220472437
21
-5.3432725590551176
0
LINE
8
BLACK
6
CONTINUOUS
10
4.2923686220472437
20
-5.3432725590551176
11
4.2923686220472437
21
-5.3395230314960624
0
LINE
8
BLACK
6
CONTINUOUS
10
4.2923686220472437
20
-5.3395230314960624
11
4.2886190944881886
21
-5.3320239763779522
0
LINE
8
BLACK
6
CONTINUOUS
10
4.2886190944881886
20
-5.3320239763779522
11
4.2811199999999996
21
-5.3282744488188971
0
LINE
8
BLACK
6
CONTINUOUS
10
4.2811199999999996
20
-5.3282744488188971
11
4.2698714173228343
21
-5.3282744488188971
0
LINE
8
BLACK
6
CONTINUOUS
10
4.2698714173228343
20
-5.3282744488188971
11
4.262372362204724
21
-5.324524921259842
0
LINE
8
BLACK
6
CONTINUOUS
10
4.262372362204724
20
-5.324524921259842
11
4.2586228346456689
21
-5.3170258661417318
0
LINE
8
BLACK
6
CONTINUOUS
10
4.2586228346456689
20
-5.3170258661417318
11
4.2586228346456689
21
-5.3132763385826767
0
LINE
8
BLACK
6
CONTINUOUS
10
4.2586228346456689
20
-5.3132763385826767
11
4.262372362204724
21
-5.3057772440944877
0
LINE
8
BLACK
6
CONTINUOUS
10
4.262372362204724
20
-5.3057772440944877
11
4.2698714173228343
21
-5.3020277165354326
0
LINE
8
BLACK
6
CONTINUOUS
10
4.2698714173228343
20
-5.3020277165354326
11
4.2811199999999996
21
-5.3020277165354326
0
LINE
8
BLACK
6
CONTINUOUS
10
4.2811199999999996
20
-5.3020277165354326
11
4.2886190944881886
21
-5.3057772440944877
0
LINE
8
BLACK
6
CONTINUOUS
10
4.3186153543307082
20
-5.3845174015748034
11
4.3223648818897633
21
-5.3807678740157483
0
LINE
8
BLACK
6
CONTINUOUS
10
4.3223648818897633
20
-5.3807678740157483
11
4.3298639370078735
21
-5.369519291338583
0
LINE
8
BLACK
6
CONTINUOUS
10
4.3298639370078735
20
-5.369519291338583
11
4.3336134645669286
21
-5.3620202362204727
0
LINE
8
BLACK
6
CONTINUOUS
10
4.3336134645669286
20
-5.3620202362204727
11
4.3373629921259838
21
-5.3507716535433065
0
LINE
8
BLACK
6
CONTINUOUS
10
4.3373629921259838
20
-5.3507716535433065
11
4.3411125196850389
21
-5.3320239763779522
0
LINE
8
BLACK
6
CONTINUOUS
10
4.3411125196850389
20
-5.3320239763779522
11
4.3411125196850389
21
-5.3170258661417318
0
LINE
8
BLACK
6
CONTINUOUS
10
4.3411125196850389
20
-5.3170258661417318
11
4.3373629921259838
21
-5.2982781889763775
0
LINE
8
BLACK
6
CONTINUOUS
10
4.3373629921259838
20
-5.2982781889763775
11
4.3336134645669286
21
-5.2870296062992121
0
LINE
8
BLACK
6
CONTINUOUS
10
4.3336134645669286
20
-5.2870296062992121
11
4.3298639370078735
21
-5.2795305511811019
0
LINE
8
BLACK
6
CONTINUOUS
10
4.3298639370078735
20
-5.2795305511811019
11
4.3223648818897633
21
-5.2682819291338578
0
LINE
8
BLACK
6
CONTINUOUS
10
4.3223648818897633
20
-5.2682819291338578
11
4.3186153543307082
21
-5.2645324015748027
0
LINE
8
BLACK
6
CONTINUOUS
10
4.4610975590551183
20
-5.3845174015748034
11
4.4573479921259844
21
-5.3807678740157483
0
LINE
8
BLACK
6
CONTINUOUS
10
4.4573479921259844
20
-5.3807678740157483
11
4.4498489370078742
21
-5.369519291338583
0
LINE
8
BLACK
6
CONTINUOUS
10
4.4498489370078742
20
-5.369519291338583
11
4.4460994094488191
21
-5.3620202362204727
0
LINE
8
BLACK
6
CONTINUOUS
10
4.4460994094488191
20
-5.3620202362204727
11
4.442349881889764
21
-5.3507716535433065
0
LINE
8
BLACK
6
CONTINUOUS
10
4.442349881889764
20
-5.3507716535433065
11
4.4386003543307089
21
-5.3320239763779522
0
LINE
8
BLACK
6
CONTINUOUS
10
4.4386003543307089
20
-5.3320239763779522
11
4.4386003543307089
21
-5.3170258661417318
0
LINE
8
BLACK
6
CONTINUOUS
10
4.4386003543307089
20
-5.3170258661417318
11
4.442349881889764
21
-5.2982781889763775
0
LINE
8
BLACK
6
CONTINUOUS
10
4.442349881889764
20
-5.2982781889763775
11
4.4460994094488191
21
-5.2870296062992121
0
LINE
8
BLACK
6
CONTINUOUS
10
4.4460994094488191
20
-5.2870296062992121
11
4.4498489370078742
21
-5.2795305511811019
0
LINE
8
BLACK
6
CONTINUOUS
10
4.4498489370078742
20
-5.2795305511811019
11
4.4573479921259844
21
-5.2682819291338578
0
LINE
8
BLACK
6
CONTINUOUS
10
4.4573479921259844
20
-5.2682819291338578
11
4.4610975590551183
21
-5.2645324015748027
0
LINE
8
BLACK
6
CONTINUOUS
10
4.4910937795275592
20
-5.3020277165354326
11
4.4910937795275592
21
-5.3545211811023625
0
LINE
8
BLACK
6
CONTINUOUS
10
4.4910937795275592
20
-5.3095267716535428
11
4.4948433070866143
21
-5.3057772440944877
0
LINE
8
BLACK
6
CONTINUOUS
10
4.4948433070866143
20
-5.3057772440944877
11
4.5023423622047245
21
-5.3020277165354326
0
LINE
8
BLACK
6
CONTINUOUS
10
4.5023423622047245
20
-5.3020277165354326
11
4.5135909842519686
21
-5.3020277165354326
0
LINE
8
BLACK
6
CONTINUOUS
10
4.5135909842519686
20
-5.3020277165354326
11
4.5210900393700788
21
-5.3057772440944877
0
LINE
8
BLACK
6
CONTINUOUS
10
4.5210900393700788
20
-5.3057772440944877
11
4.5248395669291339
21
-5.3132763385826767
0
LINE
8
BLACK
6
CONTINUOUS
10
4.5248395669291339
20
-5.3132763385826767
11
4.5248395669291339
21
-5.3545211811023625
0
LINE
8
BLACK
6
CONTINUOUS
10
4.5735834645669291
20
-5.3545211811023625
11
4.5660844094488189
21
-5.3507716535433065
0
LINE
8
BLACK
6
CONTINUOUS
10
4.5660844094488189
20
-5.3507716535433065
11
4.5623348818897638
21
-5.3470220866141727
0
LINE
8
BLACK
6
CONTINUOUS
10
4.5623348818897638
20
-5.3470220866141727
11
4.5585853543307087
21
-5.3395230314960624
0
LINE
8
BLACK
6
CONTINUOUS
10
4.5585853543307087
20
-5.3395230314960624
11
4.5585853543307087
21
-5.3170258661417318
0
LINE
8
BLACK
6
CONTINUOUS
10
4.5585853543307087
20
-5.3170258661417318
11
4.5623348818897638
21
-5.3095267716535428
0
LINE
8
BLACK
6
CONTINUOUS
10
4.5623348818897638
20
-5.3095267716535428
11
4.5660844094488189
21
-5.3057772440944877
0
LINE
8
BLACK
6
CONTINUOUS
10
4.5660844094488189
20
-5.3057772440944877
11
4.5735834645669291
21
-5.3020277165354326
0
LINE
8
BLACK
6
CONTINUOUS
10
4.5735834645669291
20
-5.3020277165354326
11
4.5848320866141732
21
-5.3020277165354326
0
LINE
8
BLACK
6
CONTINUOUS
10
4.5848320866141732
20
-5.3020277165354326
11
4.5923311417322834
21
-5.3057772440944877
0
LINE
8
BLACK
6
CONTINUOUS
10
4.5923311417322834
20
-5.3057772440944877
11
4.5960806692913385
21
-5.3095267716535428
0
LINE
8
BLACK
6
CONTINUOUS
10
4.5960806692913385
20
-5.3095267716535428
11
4.5998301968503936
21
-5.3170258661417318
0
LINE
8
BLACK
6
CONTINUOUS
10
4.5998301968503936
20
-5.3170258661417318
11
4.5998301968503936
21
-5.3395230314960624
0
LINE
8
BLACK
6
CONTINUOUS
10
4.5998301968503936
20
-5.3395230314960624
11
4.5960806692913385
21
-5.3470220866141727
0
LINE
8
BLACK
6
CONTINUOUS
10
4.5960806692913385
20
-5.3470220866141727
11
4.5923311417322834
21
-5.3507716535433065
0
LINE
8
BLACK
6
CONTINUOUS
10
4.5923311417322834
20
-5.3507716535433065
11
4.5848320866141732
21
-5.3545211811023625
0
LINE
8
BLACK
6
CONTINUOUS
10
4.5848320866141732
20
-5.3545211811023625
11
4.5735834645669291
21
-5.3545211811023625
0
LINE
8
BLACK
6
CONTINUOUS
10
4.622327401574803
20
-5.3020277165354326
11
4.6523236220472439
21
-5.3020277165354326
0
LINE
8
BLACK
6
CONTINUOUS
10
4.6335759842519684
20
-5.2757810236220468
11
4.6335759842519684
21
-5.3432725590551176
0
LINE
8
BLACK
6
CONTINUOUS
10
4.6335759842519684
20
-5.3432725590551176
11
4.6373255118110235
21
-5.3507716535433065
0
LINE
8
BLACK
6
CONTINUOUS
10
4.6373255118110235
20
-5.3507716535433065
11
4.6448245669291337
21
-5.3545211811023625
0
LINE
8
BLACK
6
CONTINUOUS
10
4.6448245669291337
20
-5.3545211811023625
11
4.6523236220472439
21
-5.3545211811023625
0
LINE
8
BLACK
6
CONTINUOUS
10
4.7385628740157477
20
-5.3020277165354326
11
4.7385628740157477
21
-5.3807678740157483
0
LINE
8
BLACK
6
CONTINUOUS
10
4.7385628740157477
20
-5.3057772440944877
11
4.7460619291338579
21
-5.3020277165354326
0
LINE
8
BLACK
6
CONTINUOUS
10
4.7460619291338579
20
-5.3020277165354326
11
4.7610600787401571
21
-5.3020277165354326
0
LINE
8
BLACK
6
CONTINUOUS
10
4.7610600787401571
20
-5.3020277165354326
11
4.7685591338582674
21
-5.3057772440944877
0
LINE
8
BLACK
6
CONTINUOUS
10
4.7685591338582674
20
-5.3057772440944877
11
4.7723086614173225
21
-5.3095267716535428
0
LINE
8
BLACK
6
CONTINUOUS
10
4.7723086614173225
20
-5.3095267716535428
11
4.7760581889763776
21
-5.3170258661417318
0
LINE
8
BLACK
6
CONTINUOUS
10
4.7760581889763776
20
-5.3170258661417318
11
4.7760581889763776
21
-5.3395230314960624
0
LINE
8
BLACK
6
CONTINUOUS
10
4.7760581889763776
20
-5.3395230314960624
11
4.7723086614173225
21
-5.3470220866141727
0
LINE
8
BLACK
6
CONTINUOUS
10
4.7723086614173225
20
-5.3470220866141727
11
4.7685591338582674
21
-5.3507716535433065
0
LINE
8
BLACK
6
CONTINUOUS
10
4.7685591338582674
20
-5.3507716535433065
11
4.7610600787401571
21
-5.3545211811023625
0
LINE
8
BLACK
6
CONTINUOUS
10
4.7610600787401571
20
-5.3545211811023625
11
4.7460619291338579
21
-5.3545211811023625
0
LINE
8
BLACK
6
CONTINUOUS
10
4.7460619291338579
20
-5.3545211811023625
11
4.7385628740157477
21
-5.3507716535433065
0
LINE
8
BLACK
6
CONTINUOUS
10
4.8210525590551176
20
-5.3545211811023625
11
4.8135535039370074
21
-5.3507716535433065
0
LINE
8
BLACK
6
CONTINUOUS
10
4.8135535039370074
20
-5.3507716535433065
11
4.8098039763779523
21
-5.3432725590551176
0
LINE
8
BLACK
6
CONTINUOUS
10
4.8098039763779523
20
-5.3432725590551176
11
4.8098039763779523
21
-5.2757810236220468
0
LINE
8
BLACK
6
CONTINUOUS
10
4.8847946062992129
20
-5.3545211811023625
11
4.8847946062992129
21
-5.3132763385826767
0
LINE
8
BLACK
6
CONTINUOUS
10
4.8847946062992129
20
-5.3132763385826767
11
4.8810450787401578
21
-5.3057772440944877
0
LINE
8
BLACK
6
CONTINUOUS
10
4.8810450787401578
20
-5.3057772440944877
11
4.8735460236220467
21
-5.3020277165354326
0
LINE
8
BLACK
6
CONTINUOUS
10
4.8735460236220467
20
-5.3020277165354326
11
4.8585478740157475
21
-5.3020277165354326
0
LINE
8
BLACK
6
CONTINUOUS
10
4.8585478740157475
20
-5.3020277165354326
11
4.8510488188976373
21
-5.3057772440944877
0
LINE
8
BLACK
6
CONTINUOUS
10
4.8847946062992129
20
-5.3507716535433065
11
4.8772955511811027
21
-5.3545211811023625
0
LINE
8
BLACK
6
CONTINUOUS
10
4.8772955511811027
20
-5.3545211811023625
11
4.8585478740157475
21
-5.3545211811023625
0
LINE
8
BLACK
6
CONTINUOUS
10
4.8585478740157475
20
-5.3545211811023625
11
4.8510488188976373
21
-5.3507716535433065
0
LINE
8
BLACK
6
CONTINUOUS
10
4.8510488188976373
20
-5.3507716535433065
11
4.8472992913385822
21
-5.3432725590551176
0
LINE
8
BLACK
6
CONTINUOUS
10
4.8472992913385822
20
-5.3432725590551176
11
4.8472992913385822
21
-5.3357735039370073
0
LINE
8
BLACK
6
CONTINUOUS
10
4.8472992913385822
20
-5.3357735039370073
11
4.8510488188976373
21
-5.3282744488188971
0
LINE
8
BLACK
6
CONTINUOUS
10
4.8510488188976373
20
-5.3282744488188971
11
4.8585478740157475
21
-5.324524921259842
0
LINE
8
BLACK
6
CONTINUOUS
10
4.8585478740157475
20
-5.324524921259842
11
4.8772955511811027
21
-5.324524921259842
0
LINE
8
BLACK
6
CONTINUOUS
10
4.8772955511811027
20
-5.324524921259842
11
4.8847946062992129
21
-5.3207753937007869
0
LINE
8
BLACK
6
CONTINUOUS
10
4.9110413385826774
20
-5.3020277165354326
11
4.9410375590551183
21
-5.3020277165354326
0
LINE
8
BLACK
6
CONTINUOUS
10
4.9222899212598428
20
-5.2757810236220468
11
4.9222899212598428
21
-5.3432725590551176
0
LINE
8
BLACK
6
CONTINUOUS
10
4.9222899212598428
20
-5.3432725590551176
11
4.9260394488188979
21
-5.3507716535433065
0
LINE
8
BLACK
6
CONTINUOUS
10
4.9260394488188979
20
-5.3507716535433065
11
4.9335385039370081
21
-5.3545211811023625
0
LINE
8
BLACK
6
CONTINUOUS
10
4.9335385039370081
20
-5.3545211811023625
11
4.9410375590551183
21
-5.3545211811023625
0
LINE
8
BLACK
6
CONTINUOUS
10
4.9972805511811025
20
-5.3507716535433065
11
4.9897814960629923
21
-5.3545211811023625
0
LINE
8
BLACK
6
CONTINUOUS
10
4.9897814960629923
20
-5.3545211811023625
11
4.9747833464566931
21
-5.3545211811023625
0
LINE
8
BLACK
6
CONTINUOUS
10
4.9747833464566931
20
-5.3545211811023625
11
4.9672842913385828
21
-5.3507716535433065
0
LINE
8
BLACK
6
CONTINUOUS
10
4.9672842913385828
20
-5.3507716535433065
11
4.9635347637795277
21
-5.3432725590551176
0
LINE
8
BLACK
6
CONTINUOUS
10
4.9635347637795277
20
-5.3432725590551176
11
4.9635347637795277
21
-5.3132763385826767
0
LINE
8
BLACK
6
CONTINUOUS
10
4.9635347637795277
20
-5.3132763385826767
11
4.9672842913385828
21
-5.3057772440944877
0
LINE
8
BLACK
6
CONTINUOUS
10
4.9672842913385828
20
-5.3057772440944877
11
4.9747833464566931
21
-5.3020277165354326
0
LINE
8
BLACK
6
CONTINUOUS
10
4.9747833464566931
20
-5.3020277165354326
11
4.9897814960629923
21
-5.3020277165354326
0
LINE
8
BLACK
6
CONTINUOUS
10
4.9897814960629923
20
-5.3020277165354326
11
4.9972805511811025
21
-5.3057772440944877
0
LINE
8
BLACK
6
CONTINUOUS
10
4.9972805511811025
20
-5.3057772440944877
11
5.0010300787401576
21
-5.3132763385826767
0
LINE
8
BLACK
6
CONTINUOUS
10
5.0010300787401576
20
-5.3132763385826767
11
5.0010300787401576
21
-5.3207753937007869
0
LINE
8
BLACK
6
CONTINUOUS
10
5.0010300787401576
20
-5.3207753937007869
11
4.9635347637795277
21
-5.3282744488188971
0
LINE
8
BLACK
6
CONTINUOUS
10
5.0685216535433071
20
-5.3545211811023625
11
5.0685216535433071
21
-5.2757810236220468
0
LINE
8
BLACK
6
CONTINUOUS
10
5.0685216535433071
20
-5.3507716535433065
11
5.0610225984251969
21
-5.3545211811023625
0
LINE
8
BLACK
6
CONTINUOUS
10
5.0610225984251969
20
-5.3545211811023625
11
5.0460244488188977
21
-5.3545211811023625
0
LINE
8
BLACK
6
CONTINUOUS
10
5.0460244488188977
20
-5.3545211811023625
11
5.0385253937007874
21
-5.3507716535433065
0
LINE
8
BLACK
6
CONTINUOUS
10
5.0385253937007874
20
-5.3507716535433065
11
5.0347758661417323
21
-5.3470220866141727
0
LINE
8
BLACK
6
CONTINUOUS
10
5.0347758661417323
20
-5.3470220866141727
11
5.0310263385826772
21
-5.3395230314960624
0
LINE
8
BLACK
6
CONTINUOUS
10
5.0310263385826772
20
-5.3395230314960624
11
5.0310263385826772
21
-5.3170258661417318
0
LINE
8
BLACK
6
CONTINUOUS
10
5.0310263385826772
20
-5.3170258661417318
11
5.0347758661417323
21
-5.3095267716535428
0
LINE
8
BLACK
6
CONTINUOUS
10
5.0347758661417323
20
-5.3095267716535428
11
5.0385253937007874
21
-5.3057772440944877
0
LINE
8
BLACK
6
CONTINUOUS
10
5.0385253937007874
20
-5.3057772440944877
11
5.0460244488188977
21
-5.3020277165354326
0
LINE
8
BLACK
6
CONTINUOUS
10
5.0460244488188977
20
-5.3020277165354326
11
5.0610225984251969
21
-5.3020277165354326
0
LINE
8
BLACK
6
CONTINUOUS
10
5.0610225984251969
20
-5.3020277165354326
11
5.0685216535433071
21
-5.3057772440944877
0
LINE
8
BLACK
6
CONTINUOUS
10
5.0985179133858267
20
-5.3845174015748034
11
5.1022674409448818
21
-5.3807678740157483
0
LINE
8
BLACK
6
CONTINUOUS
10
5.1022674409448818
20
-5.3807678740157483
11
5.109766496062992
21
-5.369519291338583
0
LINE
8
BLACK
6
CONTINUOUS
10
5.109766496062992
20
-5.369519291338583
11
5.1135160236220472
21
-5.3620202362204727
0
LINE
8
BLACK
6
CONTINUOUS
10
5.1135160236220472
20
-5.3620202362204727
11
5.1172655511811023
21
-5.3507716535433065
0
LINE
8
BLACK
6
CONTINUOUS
10
5.1172655511811023
20
-5.3507716535433065
11
5.1210150787401574
21
-5.3320239763779522
0
LINE
8
BLACK
6
CONTINUOUS
10
5.1210150787401574
20
-5.3320239763779522
11
5.1210150787401574
21
-5.3170258661417318
0
LINE
8
BLACK
6
CONTINUOUS
10
5.1210150787401574
20
-5.3170258661417318
11
5.1172655511811023
21
-5.2982781889763775
0
LINE
8
BLACK
6
CONTINUOUS
10
5.1172655511811023
20
-5.2982781889763775
11
5.1135160236220472
21
-5.2870296062992121
0
LINE
8
BLACK
6
CONTINUOUS
10
5.1135160236220472
20
-5.2870296062992121
11
5.109766496062992
21
-5.2795305511811019
0
LINE
8
BLACK
6
CONTINUOUS
10
5.109766496062992
20
-5.2795305511811019
11
5.1022674409448818
21
-5.2682819291338578
0
LINE
8
BLACK
6
CONTINUOUS
10
5.1022674409448818
20
-5.2682819291338578
11
5.0985179133858267
21
-5.2645324015748027
0
LINE
8
BLACK
6
CONTINUOUS
10
2.3992992125984252
20
-5.3972440944881885
11
2.3992992125984252
21
-5.4759842519685042
0
LINE
8
BLACK
6
CONTINUOUS
10
2.3599291338582677
20
-5.4366141732283459
11
2.4386692913385826
21
-5.4366141732283459
0
LINE
8
BLACK
6
CONTINUOUS
10
2.5338382677165354
20
-5.3938912598425199
11
2.5825821653543306
21
-5.3938912598425199
0
LINE
8
BLACK
6
CONTINUOUS
10
2.5825821653543306
20
-5.3938912598425199
11
2.5563354330708661
21
-5.4238874803149608
0
LINE
8
BLACK
6
CONTINUOUS
10
2.5563354330708661
20
-5.4238874803149608
11
2.5675840551181102
21
-5.4238874803149608
0
LINE
8
BLACK
6
CONTINUOUS
10
2.5675840551181102
20
-5.4238874803149608
11
2.5750831102362204
21
-5.4276370078740159
0
LINE
8
BLACK
6
CONTINUOUS
10
2.5750831102362204
20
-5.4276370078740159
11
2.5788326377952755
21
-5.4313865748031498
0
LINE
8
BLACK
6
CONTINUOUS
10
2.5788326377952755
20
-5.4313865748031498
11
2.5825821653543306
21
-5.43888562992126
0
LINE
8
BLACK
6
CONTINUOUS
10
2.5825821653543306
20
-5.43888562992126
11
2.5825821653543306
21
-5.4576332677165356
0
LINE
8
BLACK
6
CONTINUOUS
10
2.5825821653543306
20
-5.4576332677165356
11
2.5788326377952755
21
-5.4651323228346458
0
LINE
8
BLACK
6
CONTINUOUS
10
2.5788326377952755
20
-5.4651323228346458
11
2.5750831102362204
21
-5.4688818897637796
0
LINE
8
BLACK
6
CONTINUOUS
10
2.5750831102362204
20
-5.4688818897637796
11
2.5675840551181102
21
-5.4726314173228348
0
LINE
8
BLACK
6
CONTINUOUS
10
2.5675840551181102
20
-5.4726314173228348
11
2.5450868503937008
21
-5.4726314173228348
0
LINE
8
BLACK
6
CONTINUOUS
10
2.5450868503937008
20
-5.4726314173228348
11
2.5375877952755905
21
-5.4688818897637796
0
LINE
8
BLACK
6
CONTINUOUS
10
2.5375877952755905
20
-5.4688818897637796
11
2.5338382677165354
21
-5.4651323228346458
0
LINE
8
BLACK
6
CONTINUOUS
10
2.6163279527559054
20
-5.4651323228346458
11
2.6200774803149605
21
-5.4688818897637796
0
LINE
8
BLACK
6
CONTINUOUS
10
2.6200774803149605
20
-5.4688818897637796
11
2.6163279527559054
21
-5.4726314173228348
0
LINE
8
BLACK
6
CONTINUOUS
10
2.6163279527559054
20
-5.4726314173228348
11
2.6125784251968502
21
-5.4688818897637796
0
LINE
8
BLACK
6
CONTINUOUS
10
2.6125784251968502
20
-5.4688818897637796
11
2.6163279527559054
21
-5.4651323228346458
0
LINE
8
BLACK
6
CONTINUOUS
10
2.6163279527559054
20
-5.4651323228346458
11
2.6163279527559054
21
-5.4726314173228348
0
LINE
8
BLACK
6
CONTINUOUS
10
2.6875690551181104
20
-5.4201379527559057
11
2.6875690551181104
21
-5.4726314173228348
0
LINE
8
BLACK
6
CONTINUOUS
10
2.6688213779527556
20
-5.3901417322834648
11
2.6500737401574801
21
-5.4463846850393702
0
LINE
8
BLACK
6
CONTINUOUS
10
2.6500737401574801
20
-5.4463846850393702
11
2.6988176377952757
21
-5.4463846850393702
0
LINE
8
BLACK
6
CONTINUOUS
10
2.7438120078740158
20
-5.3938912598425199
11
2.7513111023622048
21
-5.3938912598425199
0
LINE
8
BLACK
6
CONTINUOUS
10
2.7513111023622048
20
-5.3938912598425199
11
2.758810157480315
21
-5.397640787401575
0
LINE
8
BLACK
6
CONTINUOUS
10
2.758810157480315
20
-5.397640787401575
11
2.7625596850393701
21
-5.4013903149606302
0
LINE
8
BLACK
6
CONTINUOUS
10
2.7625596850393701
20
-5.4013903149606302
11
2.7663092125984252
21
-5.4088893700787404
0
LINE
8
BLACK
6
CONTINUOUS
10
2.7663092125984252
20
-5.4088893700787404
11
2.7700587401574803
21
-5.4238874803149608
0
LINE
8
BLACK
6
CONTINUOUS
10
2.7700587401574803
20
-5.4238874803149608
11
2.7700587401574803
21
-5.4426351574803151
0
LINE
8
BLACK
6
CONTINUOUS
10
2.7700587401574803
20
-5.4426351574803151
11
2.7663092125984252
21
-5.4576332677165356
0
LINE
8
BLACK
6
CONTINUOUS
10
2.7663092125984252
20
-5.4576332677165356
11
2.7625596850393701
21
-5.4651323228346458
0
LINE
8
BLACK
6
CONTINUOUS
10
2.7625596850393701
20
-5.4651323228346458
11
2.758810157480315
21
-5.4688818897637796
0
LINE
8
BLACK
6
CONTINUOUS
10
2.758810157480315
20
-5.4688818897637796
11
2.7513111023622048
21
-5.4726314173228348
0
LINE
8
BLACK
6
CONTINUOUS
10
2.7513111023622048
20
-5.4726314173228348
11
2.7438120078740158
21
-5.4726314173228348
0
LINE
8
BLACK
6
CONTINUOUS
10
2.7438120078740158
20
-5.4726314173228348
11
2.7363129527559056
21
-5.4688818897637796
0
LINE
8
BLACK
6
CONTINUOUS
10
2.7363129527559056
20
-5.4688818897637796
11
2.7325634251968505
21
-5.4651323228346458
0
LINE
8
BLACK
6
CONTINUOUS
10
2.7325634251968505
20
-5.4651323228346458
11
2.7288138976377954
21
-5.4576332677165356
0
LINE
8
BLACK
6
CONTINUOUS
10
2.7288138976377954
20
-5.4576332677165356
11
2.7250643700787403
21
-5.4426351574803151
0
LINE
8
BLACK
6
CONTINUOUS
10
2.7250643700787403
20
-5.4426351574803151
11
2.7250643700787403
21
-5.4238874803149608
0
LINE
8
BLACK
6
CONTINUOUS
10
2.7250643700787403
20
-5.4238874803149608
11
2.7288138976377954
21
-5.4088893700787404
0
LINE
8
BLACK
6
CONTINUOUS
10
2.7288138976377954
20
-5.4088893700787404
11
2.7325634251968505
21
-5.4013903149606302
0
LINE
8
BLACK
6
CONTINUOUS
10
2.7325634251968505
20
-5.4013903149606302
11
2.7363129527559056
21
-5.397640787401575
0
LINE
8
BLACK
6
CONTINUOUS
10
2.7363129527559056
20
-5.397640787401575
11
2.7438120078740158
21
-5.3938912598425199
0
LINE
8
BLACK
6
CONTINUOUS
10
2.8188026377952755
20
-5.3938912598425199
11
2.8263017322834645
21
-5.3938912598425199
0
LINE
8
BLACK
6
CONTINUOUS
10
2.8263017322834645
20
-5.3938912598425199
11
2.8338007874015747
21
-5.397640787401575
0
LINE
8
BLACK
6
CONTINUOUS
10
2.8338007874015747
20
-5.397640787401575
11
2.8375503149606298
21
-5.4013903149606302
0
LINE
8
BLACK
6
CONTINUOUS
10
2.8375503149606298
20
-5.4013903149606302
11
2.8412998425196849
21
-5.4088893700787404
0
LINE
8
BLACK
6
CONTINUOUS
10
2.8412998425196849
20
-5.4088893700787404
11
2.84504937007874
21
-5.4238874803149608
0
LINE
8
BLACK
6
CONTINUOUS
10
2.84504937007874
20
-5.4238874803149608
11
2.84504937007874
21
-5.4426351574803151
0
LINE
8
BLACK
6
CONTINUOUS
10
2.84504937007874
20
-5.4426351574803151
11
2.8412998425196849
21
-5.4576332677165356
0
LINE
8
BLACK
6
CONTINUOUS
10
2.8412998425196849
20
-5.4576332677165356
11
2.8375503149606298
21
-5.4651323228346458
0
LINE
8
BLACK
6
CONTINUOUS
10
2.8375503149606298
20
-5.4651323228346458
11
2.8338007874015747
21
-5.4688818897637796
0
LINE
8
BLACK
6
CONTINUOUS
10
2.8338007874015747
20
-5.4688818897637796
11
2.8263017322834645
21
-5.4726314173228348
0
LINE
8
BLACK
6
CONTINUOUS
10
2.8263017322834645
20
-5.4726314173228348
11
2.8188026377952755
21
-5.4726314173228348
0
LINE
8
BLACK
6
CONTINUOUS
10
2.8188026377952755
20
-5.4726314173228348
11
2.8113035826771653
21
-5.4688818897637796
0
LINE
8
BLACK
6
CONTINUOUS
10
2.8113035826771653
20
-5.4688818897637796
11
2.8075540551181102
21
-5.4651323228346458
0
LINE
8
BLACK
6
CONTINUOUS
10
2.8075540551181102
20
-5.4651323228346458
11
2.8038045275590551
21
-5.4576332677165356
0
LINE
8
BLACK
6
CONTINUOUS
10
2.8038045275590551
20
-5.4576332677165356
11
2.800055
21
-5.4426351574803151
0
LINE
8
BLACK
6
CONTINUOUS
10
2.800055
20
-5.4426351574803151
11
2.800055
21
-5.4238874803149608
0
LINE
8
BLACK
6
CONTINUOUS
10
2.800055
20
-5.4238874803149608
11
2.8038045275590551
21
-5.4088893700787404
0
LINE
8
BLACK
6
CONTINUOUS
10
2.8038045275590551
20
-5.4088893700787404
11
2.8075540551181102
21
-5.4013903149606302
0
LINE
8
BLACK
6
CONTINUOUS
10
2.8075540551181102
20
-5.4013903149606302
11
2.8113035826771653
21
-5.397640787401575
0
LINE
8
BLACK
6
CONTINUOUS
10
2.8113035826771653
20
-5.397640787401575
11
2.8188026377952755
21
-5.3938912598425199
0
LINE
8
BLACK
6
CONTINUOUS
10
2.8787951574803148
20
-5.4726314173228348
11
2.8787951574803148
21
-5.4201379527559057
0
LINE
8
BLACK
6
CONTINUOUS
10
2.8787951574803148
20
-5.4276370078740159
11
2.8825446850393699
21
-5.4238874803149608
0
LINE
8
BLACK
6
CONTINUOUS
10
2.8825446850393699
20
-5.4238874803149608
11
2.8900437401574801
21
-5.4201379527559057
0
LINE
8
BLACK
6
CONTINUOUS
10
2.8900437401574801
20
-5.4201379527559057
11
2.9012923622047242
21
-5.4201379527559057
0
LINE
8
BLACK
6
CONTINUOUS
10
2.9012923622047242
20
-5.4201379527559057
11
2.9087914173228344
21
-5.4238874803149608
0
LINE
8
BLACK
6
CONTINUOUS
10
2.9087914173228344
20
-5.4238874803149608
11
2.9125409448818895
21
-5.4313865748031498
0
LINE
8
BLACK
6
CONTINUOUS
10
2.9125409448818895
20
-5.4313865748031498
11
2.9125409448818895
21
-5.4726314173228348
0
LINE
8
BLACK
6
CONTINUOUS
10
2.9125409448818895
20
-5.4313865748031498
11
2.9162904724409446
21
-5.4238874803149608
0
LINE
8
BLACK
6
CONTINUOUS
10
2.9162904724409446
20
-5.4238874803149608
11
2.9237895275590549
21
-5.4201379527559057
0
LINE
8
BLACK
6
CONTINUOUS
10
2.9237895275590549
20
-5.4201379527559057
11
2.9350381102362202
21
-5.4201379527559057
0
LINE
8
BLACK
6
CONTINUOUS
10
2.9350381102362202
20
-5.4201379527559057
11
2.9425372047244092
21
-5.4238874803149608
0
LINE
8
BLACK
6
CONTINUOUS
10
2.9425372047244092
20
-5.4238874803149608
11
2.9462867322834647
21
-5.4313865748031498
0
LINE
8
BLACK
6
CONTINUOUS
10
2.9462867322834647
20
-5.4313865748031498
11
2.9462867322834647
21
-5.4726314173228348
0
LINE
8
BLACK
6
CONTINUOUS
10
2.9837820472440946
20
-5.4726314173228348
11
2.9837820472440946
21
-5.4201379527559057
0
LINE
8
BLACK
6
CONTINUOUS
10
2.9837820472440946
20
-5.4276370078740159
11
2.9875315748031497
21
-5.4238874803149608
0
LINE
8
BLACK
6
CONTINUOUS
10
2.9875315748031497
20
-5.4238874803149608
11
2.9950306299212599
21
-5.4201379527559057
0
LINE
8
BLACK
6
CONTINUOUS
10
2.9950306299212599
20
-5.4201379527559057
11
3.006279251968504
21
-5.4201379527559057
0
LINE
8
BLACK
6
CONTINUOUS
10
3.006279251968504
20
-5.4201379527559057
11
3.0137783070866142
21
-5.4238874803149608
0
LINE
8
BLACK
6
CONTINUOUS
10
3.0137783070866142
20
-5.4238874803149608
11
3.0175278346456693
21
-5.4313865748031498
0
LINE
8
BLACK
6
CONTINUOUS
10
3.0175278346456693
20
-5.4313865748031498
11
3.0175278346456693
21
-5.4726314173228348
0
LINE
8
BLACK
6
CONTINUOUS
10
3.0175278346456693
20
-5.4313865748031498
11
3.0212773622047244
21
-5.4238874803149608
0
LINE
8
BLACK
6
CONTINUOUS
10
3.0212773622047244
20
-5.4238874803149608
11
3.0287764173228346
21
-5.4201379527559057
0
LINE
8
BLACK
6
CONTINUOUS
10
3.0287764173228346
20
-5.4201379527559057
11
3.040025
21
-5.4201379527559057
0
LINE
8
BLACK
6
CONTINUOUS
10
3.040025
20
-5.4201379527559057
11
3.047524094488189
21
-5.4238874803149608
0
LINE
8
BLACK
6
CONTINUOUS
10
3.047524094488189
20
-5.4238874803149608
11
3.0512736220472441
21
-5.4313865748031498
0
LINE
8
BLACK
6
CONTINUOUS
10
3.0512736220472441
20
-5.4313865748031498
11
3.0512736220472441
21
-5.4726314173228348
0
LINE
8
BLACK
6
CONTINUOUS
10
3.205004409448819
20
-5.3901417322834648
11
3.1375128740157479
21
-5.4913790551181103
0
LINE
8
BLACK
6
CONTINUOUS
10
3.3062417716535433
20
-5.3938912598425199
11
3.3137408661417322
21
-5.3938912598425199
0
LINE
8
BLACK
6
CONTINUOUS
10
3.3137408661417322
20
-5.3938912598425199
11
3.3212399212598425
21
-5.397640787401575
0
LINE
8
BLACK
6
CONTINUOUS
10
3.3212399212598425
20
-5.397640787401575
11
3.3249894488188976
21
-5.4013903149606302
0
LINE
8
BLACK
6
CONTINUOUS
10
3.3249894488188976
20
-5.4013903149606302
11
3.3287389763779527
21
-5.4088893700787404
0
LINE
8
BLACK
6
CONTINUOUS
10
3.3287389763779527
20
-5.4088893700787404
11
3.3324885039370078
21
-5.4238874803149608
0
LINE
8
BLACK
6
CONTINUOUS
10
3.3324885039370078
20
-5.4238874803149608
11
3.3324885039370078
21
-5.4426351574803151
0
LINE
8
BLACK
6
CONTINUOUS
10
3.3324885039370078
20
-5.4426351574803151
11
3.3287389763779527
21
-5.4576332677165356
0
LINE
8
BLACK
6
CONTINUOUS
10
3.3287389763779527
20
-5.4576332677165356
11
3.3249894488188976
21
-5.4651323228346458
0
LINE
8
BLACK
6
CONTINUOUS
10
3.3249894488188976
20
-5.4651323228346458
11
3.3212399212598425
21
-5.4688818897637796
0
LINE
8
BLACK
6
CONTINUOUS
10
3.3212399212598425
20
-5.4688818897637796
11
3.3137408661417322
21
-5.4726314173228348
0
LINE
8
BLACK
6
CONTINUOUS
10
3.3137408661417322
20
-5.4726314173228348
11
3.3062417716535433
21
-5.4726314173228348
0
LINE
8
BLACK
6
CONTINUOUS
10
3.3062417716535433
20
-5.4726314173228348
11
3.2987427165354331
21
-5.4688818897637796
0
LINE
8
BLACK
6
CONTINUOUS
10
3.2987427165354331
20
-5.4688818897637796
11
3.2949931889763779
21
-5.4651323228346458
0
LINE
8
BLACK
6
CONTINUOUS
10
3.2949931889763779
20
-5.4651323228346458
11
3.2912436614173228
21
-5.4576332677165356
0
LINE
8
BLACK
6
CONTINUOUS
10
3.2912436614173228
20
-5.4576332677165356
11
3.2874941338582677
21
-5.4426351574803151
0
LINE
8
BLACK
6
CONTINUOUS
10
3.2874941338582677
20
-5.4426351574803151
11
3.2874941338582677
21
-5.4238874803149608
0
LINE
8
BLACK
6
CONTINUOUS
10
3.2874941338582677
20
-5.4238874803149608
11
3.2912436614173228
21
-5.4088893700787404
0
LINE
8
BLACK
6
CONTINUOUS
10
3.2912436614173228
20
-5.4088893700787404
11
3.2949931889763779
21
-5.4013903149606302
0
LINE
8
BLACK
6
CONTINUOUS
10
3.2949931889763779
20
-5.4013903149606302
11
3.2987427165354331
21
-5.397640787401575
0
LINE
8
BLACK
6
CONTINUOUS
10
3.2987427165354331
20
-5.397640787401575
11
3.3062417716535433
21
-5.3938912598425199
0
LINE
8
BLACK
6
CONTINUOUS
10
3.3662342913385825
20
-5.4651323228346458
11
3.3699838188976377
21
-5.4688818897637796
0
LINE
8
BLACK
6
CONTINUOUS
10
3.3699838188976377
20
-5.4688818897637796
11
3.3662342913385825
21
-5.4726314173228348
0
LINE
8
BLACK
6
CONTINUOUS
10
3.3662342913385825
20
-5.4726314173228348
11
3.3624847637795274
21
-5.4688818897637796
0
LINE
8
BLACK
6
CONTINUOUS
10
3.3624847637795274
20
-5.4688818897637796
11
3.3662342913385825
21
-5.4651323228346458
0
LINE
8
BLACK
6
CONTINUOUS
10
3.3662342913385825
20
-5.4651323228346458
11
3.3662342913385825
21
-5.4726314173228348
0
LINE
8
BLACK
6
CONTINUOUS
10
3.4449744488188974
20
-5.4726314173228348
11
3.3999800787401573
21
-5.4726314173228348
0
LINE
8
BLACK
6
CONTINUOUS
10
3.4224772440944879
20
-5.4726314173228348
11
3.4224772440944879
21
-5.3938912598425199
0
LINE
8
BLACK
6
CONTINUOUS
10
3.4224772440944879
20
-5.3938912598425199
11
3.4149781889763777
21
-5.4051398425196853
0
LINE
8
BLACK
6
CONTINUOUS
10
3.4149781889763777
20
-5.4051398425196853
11
3.4074791338582675
21
-5.4126388976377955
0
LINE
8
BLACK
6
CONTINUOUS
10
3.4074791338582675
20
-5.4126388976377955
11
3.3999800787401573
21
-5.4163884251968506
0
LINE
8
BLACK
6
CONTINUOUS
10
3.4712211811023623
20
-5.3938912598425199
11
3.5199650787401575
21
-5.3938912598425199
0
LINE
8
BLACK
6
CONTINUOUS
10
3.5199650787401575
20
-5.3938912598425199
11
3.493718346456693
21
-5.4238874803149608
0
LINE
8
BLACK
6
CONTINUOUS
10
3.493718346456693
20
-5.4238874803149608
11
3.5049669685039371
21
-5.4238874803149608
0
LINE
8
BLACK
6
CONTINUOUS
10
3.5049669685039371
20
-5.4238874803149608
11
3.5124660236220473
21
-5.4276370078740159
0
LINE
8
BLACK
6
CONTINUOUS
10
3.5124660236220473
20
-5.4276370078740159
11
3.5162155511811024
21
-5.4313865748031498
0
LINE
8
BLACK
6
CONTINUOUS
10
3.5162155511811024
20
-5.4313865748031498
11
3.5199650787401575
21
-5.43888562992126
0
LINE
8
BLACK
6
CONTINUOUS
10
3.5199650787401575
20
-5.43888562992126
11
3.5199650787401575
21
-5.4576332677165356
0
LINE
8
BLACK
6
CONTINUOUS
10
3.5199650787401575
20
-5.4576332677165356
11
3.5162155511811024
21
-5.4651323228346458
0
LINE
8
BLACK
6
CONTINUOUS
10
3.5162155511811024
20
-5.4651323228346458
11
3.5124660236220473
21
-5.4688818897637796
0
LINE
8
BLACK
6
CONTINUOUS
10
3.5124660236220473
20
-5.4688818897637796
11
3.5049669685039371
21
-5.4726314173228348
0
LINE
8
BLACK
6
CONTINUOUS
10
3.5049669685039371
20
-5.4726314173228348
11
3.4824697637795277
21
-5.4726314173228348
0
LINE
8
BLACK
6
CONTINUOUS
10
3.4824697637795277
20
-5.4726314173228348
11
3.4749707086614174
21
-5.4688818897637796
0
LINE
8
BLACK
6
CONTINUOUS
10
3.4749707086614174
20
-5.4688818897637796
11
3.4712211811023623
21
-5.4651323228346458
0
LINE
8
BLACK
6
CONTINUOUS
10
3.546211811023622
20
-5.3938912598425199
11
3.5949557086614172
21
-5.3938912598425199
0
LINE
8
BLACK
6
CONTINUOUS
10
3.5949557086614172
20
-5.3938912598425199
11
3.5687089763779527
21
-5.4238874803149608
0
LINE
8
BLACK
6
CONTINUOUS
10
3.5687089763779527
20
-5.4238874803149608
11
3.5799575984251968
21
-5.4238874803149608
0
LINE
8
BLACK
6
CONTINUOUS
10
3.5799575984251968
20
-5.4238874803149608
11
3.587456653543307
21
-5.4276370078740159
0
LINE
8
BLACK
6
CONTINUOUS
10
3.587456653543307
20
-5.4276370078740159
11
3.5912061811023621
21
-5.4313865748031498
0
LINE
8
BLACK
6
CONTINUOUS
10
3.5912061811023621
20
-5.4313865748031498
11
3.5949557086614172
21
-5.43888562992126
0
LINE
8
BLACK
6
CONTINUOUS
10
3.5949557086614172
20
-5.43888562992126
11
3.5949557086614172
21
-5.4576332677165356
0
LINE
8
BLACK
6
CONTINUOUS
10
3.5949557086614172
20
-5.4576332677165356
11
3.5912061811023621
21
-5.4651323228346458
0
LINE
8
BLACK
6
CONTINUOUS
10
3.5912061811023621
20
-5.4651323228346458
11
3.587456653543307
21
-5.4688818897637796
0
LINE
8
BLACK
6
CONTINUOUS
10
3.587456653543307
20
-5.4688818897637796
11
3.5799575984251968
21
-5.4726314173228348
0
LINE
8
BLACK
6
CONTINUOUS
10
3.5799575984251968
20
-5.4726314173228348
11
3.5574603937007874
21
-5.4726314173228348
0
LINE
8
BLACK
6
CONTINUOUS
10
3.5574603937007874
20
-5.4726314173228348
11
3.5499613385826772
21
-5.4688818897637796
0
LINE
8
BLACK
6
CONTINUOUS
10
3.5499613385826772
20
-5.4688818897637796
11
3.546211811023622
21
-5.4651323228346458
0
LINE
8
BLACK
6
CONTINUOUS
10
3.6324510236220471
20
-5.4726314173228348
11
3.6474491338582675
21
-5.4726314173228348
0
LINE
8
BLACK
6
CONTINUOUS
10
3.6474491338582675
20
-5.4726314173228348
11
3.6549482283464565
21
-5.4688818897637796
0
LINE
8
BLACK
6
CONTINUOUS
10
3.6549482283464565
20
-5.4688818897637796
11
3.6586977559055116
21
-5.4651323228346458
0
LINE
8
BLACK
6
CONTINUOUS
10
3.6586977559055116
20
-5.4651323228346458
11
3.6661968110236218
21
-5.4538837401574805
0
LINE
8
BLACK
6
CONTINUOUS
10
3.6661968110236218
20
-5.4538837401574805
11
3.6699463385826769
21
-5.43888562992126
0
LINE
8
BLACK
6
CONTINUOUS
10
3.6699463385826769
20
-5.43888562992126
11
3.6699463385826769
21
-5.4088893700787404
0
LINE
8
BLACK
6
CONTINUOUS
10
3.6699463385826769
20
-5.4088893700787404
11
3.6661968110236218
21
-5.4013903149606302
0
LINE
8
BLACK
6
CONTINUOUS
10
3.6661968110236218
20
-5.4013903149606302
11
3.6624472834645667
21
-5.397640787401575
0
LINE
8
BLACK
6
CONTINUOUS
10
3.6624472834645667
20
-5.397640787401575
11
3.6549482283464565
21
-5.3938912598425199
0
LINE
8
BLACK
6
CONTINUOUS
10
3.6549482283464565
20
-5.3938912598425199
11
3.6399500787401573
21
-5.3938912598425199
0
LINE
8
BLACK
6
CONTINUOUS
10
3.6399500787401573
20
-5.3938912598425199
11
3.6324510236220471
21
-5.397640787401575
0
LINE
8
BLACK
6
CONTINUOUS
10
3.6324510236220471
20
-5.397640787401575
11
3.628701496062992
21
-5.4013903149606302
0
LINE
8
BLACK
6
CONTINUOUS
10
3.628701496062992
20
-5.4013903149606302
11
3.6249519685039369
21
-5.4088893700787404
0
LINE
8
BLACK
6
CONTINUOUS
10
3.6249519685039369
20
-5.4088893700787404
11
3.6249519685039369
21
-5.4276370078740159
0
LINE
8
BLACK
6
CONTINUOUS
10
3.6249519685039369
20
-5.4276370078740159
11
3.628701496062992
21
-5.4351361023622049
0
LINE
8
BLACK
6
CONTINUOUS
10
3.628701496062992
20
-5.4351361023622049
11
3.6324510236220471
21
-5.43888562992126
0
LINE
8
BLACK
6
CONTINUOUS
10
3.6324510236220471
20
-5.43888562992126
11
3.6399500787401573
21
-5.4426351574803151
0
LINE
8
BLACK
6
CONTINUOUS
10
3.6399500787401573
20
-5.4426351574803151
11
3.6549482283464565
21
-5.4426351574803151
0
LINE
8
BLACK
6
CONTINUOUS
10
3.6549482283464565
20
-5.4426351574803151
11
3.6624472834645667
21
-5.43888562992126
0
LINE
8
BLACK
6
CONTINUOUS
10
3.6624472834645667
20
-5.43888562992126
11
3.6661968110236218
21
-5.4351361023622049
0
LINE
8
BLACK
6
CONTINUOUS
10
3.6661968110236218
20
-5.4351361023622049
11
3.6699463385826769
21
-5.4276370078740159
0
LINE
8
BLACK
6
CONTINUOUS
10
3.6999425984251966
20
-5.3938912598425199
11
3.6999425984251966
21
-5.4088893700787404
0
LINE
8
BLACK
6
CONTINUOUS
10
3.7299388582677167
20
-5.3938912598425199
11
3.7299388582677167
21
-5.4088893700787404
0
LINE
8
BLACK
6
CONTINUOUS
10
3.8461743700787401
20
-5.5026276377952756
11
3.8424248031496062
21
-5.4988781102362205
0
LINE
8
BLACK
6
CONTINUOUS
10
3.8424248031496062
20
-5.4988781102362205
11
3.834925748031496
21
-5.4876295275590552
0
LINE
8
BLACK
6
CONTINUOUS
10
3.834925748031496
20
-5.4876295275590552
11
3.8311762204724409
21
-5.480130472440945
0
LINE
8
BLACK
6
CONTINUOUS
10
3.8311762204724409
20
-5.480130472440945
11
3.8274266929133858
21
-5.4688818897637796
0
LINE
8
BLACK
6
CONTINUOUS
10
3.8274266929133858
20
-5.4688818897637796
11
3.8236771653543307
21
-5.4501342125984253
0
LINE
8
BLACK
6
CONTINUOUS
10
3.8236771653543307
20
-5.4501342125984253
11
3.8236771653543307
21
-5.4351361023622049
0
LINE
8
BLACK
6
CONTINUOUS
10
3.8236771653543307
20
-5.4351361023622049
11
3.8274266929133858
21
-5.4163884251968506
0
LINE
8
BLACK
6
CONTINUOUS
10
3.8274266929133858
20
-5.4163884251968506
11
3.8311762204724409
21
-5.4051398425196853
0
LINE
8
BLACK
6
CONTINUOUS
10
3.8311762204724409
20
-5.4051398425196853
11
3.834925748031496
21
-5.397640787401575
0
LINE
8
BLACK
6
CONTINUOUS
10
3.834925748031496
20
-5.397640787401575
11
3.8424248031496062
21
-5.386392165354331
0
LINE
8
BLACK
6
CONTINUOUS
10
3.8424248031496062
20
-5.386392165354331
11
3.8461743700787401
21
-5.3826426377952759
0
LINE
8
BLACK
6
CONTINUOUS
10
3.8874191732283463
20
-5.4276370078740159
11
3.8799201181102361
21
-5.4238874803149608
0
LINE
8
BLACK
6
CONTINUOUS
10
3.8799201181102361
20
-5.4238874803149608
11
3.876170590551181
21
-5.4201379527559057
0
LINE
8
BLACK
6
CONTINUOUS
10
3.876170590551181
20
-5.4201379527559057
11
3.8724210629921259
21
-5.4126388976377955
0
LINE
8
BLACK
6
CONTINUOUS
10
3.8724210629921259
20
-5.4126388976377955
11
3.8724210629921259
21
-5.4088893700787404
0
LINE
8
BLACK
6
CONTINUOUS
10
3.8724210629921259
20
-5.4088893700787404
11
3.876170590551181
21
-5.4013903149606302
0
LINE
8
BLACK
6
CONTINUOUS
10
3.876170590551181
20
-5.4013903149606302
11
3.8799201181102361
21
-5.397640787401575
0
LINE
8
BLACK
6
CONTINUOUS
10
3.8799201181102361
20
-5.397640787401575
11
3.8874191732283463
21
-5.3938912598425199
0
LINE
8
BLACK
6
CONTINUOUS
10
3.8874191732283463
20
-5.3938912598425199
11
3.9024173228346455
21
-5.3938912598425199
0
LINE
8
BLACK
6
CONTINUOUS
10
3.9024173228346455
20
-5.3938912598425199
11
3.9099163779527557
21
-5.397640787401575
0
LINE
8
BLACK
6
CONTINUOUS
10
3.9099163779527557
20
-5.397640787401575
11
3.9136659055118108
21
-5.4013903149606302
0
LINE
8
BLACK
6
CONTINUOUS
10
3.9136659055118108
20
-5.4013903149606302
11
3.9174154330708659
21
-5.4088893700787404
0
LINE
8
BLACK
6
CONTINUOUS
10
3.9174154330708659
20
-5.4088893700787404
11
3.9174154330708659
21
-5.4126388976377955
0
LINE
8
BLACK
6
CONTINUOUS
10
3.9174154330708659
20
-5.4126388976377955
11
3.9136659055118108
21
-5.4201379527559057
0
LINE
8
BLACK
6
CONTINUOUS
10
3.9136659055118108
20
-5.4201379527559057
11
3.9099163779527557
21
-5.4238874803149608
0
LINE
8
BLACK
6
CONTINUOUS
10
3.9099163779527557
20
-5.4238874803149608
11
3.9024173228346455
21
-5.4276370078740159
0
LINE
8
BLACK
6
CONTINUOUS
10
3.9024173228346455
20
-5.4276370078740159
11
3.8874191732283463
21
-5.4276370078740159
0
LINE
8
BLACK
6
CONTINUOUS
10
3.8874191732283463
20
-5.4276370078740159
11
3.8799201181102361
21
-5.4313865748031498
0
LINE
8
BLACK
6
CONTINUOUS
10
3.8799201181102361
20
-5.4313865748031498
11
3.876170590551181
21
-5.4351361023622049
0
LINE
8
BLACK
6
CONTINUOUS
10
3.876170590551181
20
-5.4351361023622049
11
3.8724210629921259
21
-5.4426351574803151
0
LINE
8
BLACK
6
CONTINUOUS
10
3.8724210629921259
20
-5.4426351574803151
11
3.8724210629921259
21
-5.4576332677165356
0
LINE
8
BLACK
6
CONTINUOUS
10
3.8724210629921259
20
-5.4576332677165356
11
3.876170590551181
21
-5.4651323228346458
0
LINE
8
BLACK
6
CONTINUOUS
10
3.876170590551181
20
-5.4651323228346458
11
3.8799201181102361
21
-5.4688818897637796
0
LINE
8
BLACK
6
CONTINUOUS
10
3.8799201181102361
20
-5.4688818897637796
11
3.8874191732283463
21
-5.4726314173228348
0
LINE
8
BLACK
6
CONTINUOUS
10
3.8874191732283463
20
-5.4726314173228348
11
3.9024173228346455
21
-5.4726314173228348
0
LINE
8
BLACK
6
CONTINUOUS
10
3.9024173228346455
20
-5.4726314173228348
11
3.9099163779527557
21
-5.4688818897637796
0
LINE
8
BLACK
6
CONTINUOUS
10
3.9099163779527557
20
-5.4688818897637796
11
3.9136659055118108
21
-5.4651323228346458
0
LINE
8
BLACK
6
CONTINUOUS
10
3.9136659055118108
20
-5.4651323228346458
11
3.9174154330708659
21
-5.4576332677165356
0
LINE
8
BLACK
6
CONTINUOUS
10
3.9174154330708659
20
-5.4576332677165356
11
3.9174154330708659
21
-5.4426351574803151
0
LINE
8
BLACK
6
CONTINUOUS
10
3.9174154330708659
20
-5.4426351574803151
11
3.9136659055118108
21
-5.4351361023622049
0
LINE
8
BLACK
6
CONTINUOUS
10
3.9136659055118108
20
-5.4351361023622049
11
3.9099163779527557
21
-5.4313865748031498
0
LINE
8
BLACK
6
CONTINUOUS
10
3.9099163779527557
20
-5.4313865748031498
11
3.9024173228346455
21
-5.4276370078740159
0
LINE
8
BLACK
6
CONTINUOUS
10
4.0111537401574804
20
-5.4726314173228348
11
4.0111537401574804
21
-5.3938912598425199
0
LINE
8
BLACK
6
CONTINUOUS
10
4.0448995275590551
20
-5.4726314173228348
11
4.0448995275590551
21
-5.4313865748031498
0
LINE
8
BLACK
6
CONTINUOUS
10
4.0448995275590551
20
-5.4313865748031498
11
4.04115
21
-5.4238874803149608
0
LINE
8
BLACK
6
CONTINUOUS
10
4.04115
20
-5.4238874803149608
11
4.0336509448818898
21
-5.4201379527559057
0
LINE
8
BLACK
6
CONTINUOUS
10
4.0336509448818898
20
-5.4201379527559057
11
4.0224023228346457
21
-5.4201379527559057
0
LINE
8
BLACK
6
CONTINUOUS
10
4.0224023228346457
20
-5.4201379527559057
11
4.0149032677165355
21
-5.4238874803149608
0
LINE
8
BLACK
6
CONTINUOUS
10
4.0149032677165355
20
-5.4238874803149608
11
4.0111537401574804
21
-5.4276370078740159
0
LINE
8
BLACK
6
CONTINUOUS
10
4.0936434251968503
20
-5.4726314173228348
11
4.0861443700787401
21
-5.4688818897637796
0
LINE
8
BLACK
6
CONTINUOUS
10
4.0861443700787401
20
-5.4688818897637796
11
4.082394842519685
21
-5.4651323228346458
0
LINE
8
BLACK
6
CONTINUOUS
10
4.082394842519685
20
-5.4651323228346458
11
4.0786453149606299
21
-5.4576332677165356
0
LINE
8
BLACK
6
CONTINUOUS
10
4.0786453149606299
20
-5.4576332677165356
11
4.0786453149606299
21
-5.4351361023622049
0
LINE
8
BLACK
6
CONTINUOUS
10
4.0786453149606299
20
-5.4351361023622049
11
4.082394842519685
21
-5.4276370078740159
0
LINE
8
BLACK
6
CONTINUOUS
10
4.082394842519685
20
-5.4276370078740159
11
4.0861443700787401
21
-5.4238874803149608
0
LINE
8
BLACK
6
CONTINUOUS
10
4.0861443700787401
20
-5.4238874803149608
11
4.0936434251968503
21
-5.4201379527559057
0
LINE
8
BLACK
6
CONTINUOUS
10
4.0936434251968503
20
-5.4201379527559057
11
4.1048920472440944
21
-5.4201379527559057
0
LINE
8
BLACK
6
CONTINUOUS
10
4.1048920472440944
20
-5.4201379527559057
11
4.1123911023622046
21
-5.4238874803149608
0
LINE
8
BLACK
6
CONTINUOUS
10
4.1123911023622046
20
-5.4238874803149608
11
4.1161406299212597
21
-5.4276370078740159
0
LINE
8
BLACK
6
CONTINUOUS
10
4.1161406299212597
20
-5.4276370078740159
11
4.1198901574803148
21
-5.4351361023622049
0
LINE
8
BLACK
6
CONTINUOUS
10
4.1198901574803148
20
-5.4351361023622049
11
4.1198901574803148
21
-5.4576332677165356
0
LINE
8
BLACK
6
CONTINUOUS
10
4.1198901574803148
20
-5.4576332677165356
11
4.1161406299212597
21
-5.4651323228346458
0
LINE
8
BLACK
6
CONTINUOUS
10
4.1161406299212597
20
-5.4651323228346458
11
4.1123911023622046
21
-5.4688818897637796
0
LINE
8
BLACK
6
CONTINUOUS
10
4.1123911023622046
20
-5.4688818897637796
11
4.1048920472440944
21
-5.4726314173228348
0
LINE
8
BLACK
6
CONTINUOUS
10
4.1048920472440944
20
-5.4726314173228348
11
4.0936434251968503
21
-5.4726314173228348
0
LINE
8
BLACK
6
CONTINUOUS
10
4.1648845275590549
20
-5.4726314173228348
11
4.1573854724409447
21
-5.4688818897637796
0
LINE
8
BLACK
6
CONTINUOUS
10
4.1573854724409447
20
-5.4688818897637796
11
4.1536359448818896
21
-5.4613827952755907
0
LINE
8
BLACK
6
CONTINUOUS
10
4.1536359448818896
20
-5.4613827952755907
11
4.1536359448818896
21
-5.3938912598425199
0
LINE
8
BLACK
6
CONTINUOUS
10
4.2248770472440942
20
-5.4688818897637796
11
4.217377992125984
21
-5.4726314173228348
0
LINE
8
BLACK
6
CONTINUOUS
10
4.217377992125984
20
-5.4726314173228348
11
4.2023798425196848
21
-5.4726314173228348
0
LINE
8
BLACK
6
CONTINUOUS
10
4.2023798425196848
20
-5.4726314173228348
11
4.1948807874015746
21
-5.4688818897637796
0
LINE
8
BLACK
6
CONTINUOUS
10
4.1948807874015746
20
-5.4688818897637796
11
4.1911312598425194
21
-5.4613827952755907
0
LINE
8
BLACK
6
CONTINUOUS
10
4.1911312598425194
20
-5.4613827952755907
11
4.1911312598425194
21
-5.4313865748031498
0
LINE
8
BLACK
6
CONTINUOUS
10
4.1911312598425194
20
-5.4313865748031498
11
4.1948807874015746
21
-5.4238874803149608
0
LINE
8
BLACK
6
CONTINUOUS
10
4.1948807874015746
20
-5.4238874803149608
11
4.2023798425196848
21
-5.4201379527559057
0
LINE
8
BLACK
6
CONTINUOUS
10
4.2023798425196848
20
-5.4201379527559057
11
4.217377992125984
21
-5.4201379527559057
0
LINE
8
BLACK
6
CONTINUOUS
10
4.217377992125984
20
-5.4201379527559057
11
4.2248770472440942
21
-5.4238874803149608
0
LINE
8
BLACK
6
CONTINUOUS
10
4.2248770472440942
20
-5.4238874803149608
11
4.2286265748031493
21
-5.4313865748031498
0
LINE
8
BLACK
6
CONTINUOUS
10
4.2286265748031493
20
-5.4313865748031498
11
4.2286265748031493
21
-5.43888562992126
0
LINE
8
BLACK
6
CONTINUOUS
10
4.2286265748031493
20
-5.43888562992126
11
4.1911312598425194
21
-5.4463846850393702
0
LINE
8
BLACK
6
CONTINUOUS
10
4.2586228346456689
20
-5.4688818897637796
11
4.2661218897637792
21
-5.4726314173228348
0
LINE
8
BLACK
6
CONTINUOUS
10
4.2661218897637792
20
-5.4726314173228348
11
4.2811199999999996
21
-5.4726314173228348
0
LINE
8
BLACK
6
CONTINUOUS
10
4.2811199999999996
20
-5.4726314173228348
11
4.2886190944881886
21
-5.4688818897637796
0
LINE
8
BLACK
6
CONTINUOUS
10
4.2886190944881886
20
-5.4688818897637796
11
4.2923686220472437
21
-5.4613827952755907
0
LINE
8
BLACK
6
CONTINUOUS
10
4.2923686220472437
20
-5.4613827952755907
11
4.2923686220472437
21
-5.4576332677165356
0
LINE
8
BLACK
6
CONTINUOUS
10
4.2923686220472437
20
-5.4576332677165356
11
4.2886190944881886
21
-5.4501342125984253
0
LINE
8
BLACK
6
CONTINUOUS
10
4.2886190944881886
20
-5.4501342125984253
11
4.2811199999999996
21
-5.4463846850393702
0
LINE
8
BLACK
6
CONTINUOUS
10
4.2811199999999996
20
-5.4463846850393702
11
4.2698714173228343
21
-5.4463846850393702
0
LINE
8
BLACK
6
CONTINUOUS
10
4.2698714173228343
20
-5.4463846850393702
11
4.262372362204724
21
-5.4426351574803151
0
LINE
8
BLACK
6
CONTINUOUS
10
4.262372362204724
20
-5.4426351574803151
11
4.2586228346456689
21
-5.4351361023622049
0
LINE
8
BLACK
6
CONTINUOUS
10
4.2586228346456689
20
-5.4351361023622049
11
4.2586228346456689
21
-5.4313865748031498
0
LINE
8
BLACK
6
CONTINUOUS
10
4.2586228346456689
20
-5.4313865748031498
11
4.262372362204724
21
-5.4238874803149608
0
LINE
8
BLACK
6
CONTINUOUS
10
4.262372362204724
20
-5.4238874803149608
11
4.2698714173228343
21
-5.4201379527559057
0
LINE
8
BLACK
6
CONTINUOUS
10
4.2698714173228343
20
-5.4201379527559057
11
4.2811199999999996
21
-5.4201379527559057
0
LINE
8
BLACK
6
CONTINUOUS
10
4.2811199999999996
20
-5.4201379527559057
11
4.2886190944881886
21
-5.4238874803149608
0
LINE
8
BLACK
6
CONTINUOUS
10
4.3186153543307082
20
-5.5026276377952756
11
4.3223648818897633
21
-5.4988781102362205
0
LINE
8
BLACK
6
CONTINUOUS
10
4.3223648818897633
20
-5.4988781102362205
11
4.3298639370078735
21
-5.4876295275590552
0
LINE
8
BLACK
6
CONTINUOUS
10
4.3298639370078735
20
-5.4876295275590552
11
4.3336134645669286
21
-5.480130472440945
0
LINE
8
BLACK
6
CONTINUOUS
10
4.3336134645669286
20
-5.480130472440945
11
4.3373629921259838
21
-5.4688818897637796
0
LINE
8
BLACK
6
CONTINUOUS
10
4.3373629921259838
20
-5.4688818897637796
11
4.3411125196850389
21
-5.4501342125984253
0
LINE
8
BLACK
6
CONTINUOUS
10
4.3411125196850389
20
-5.4501342125984253
11
4.3411125196850389
21
-5.4351361023622049
0
LINE
8
BLACK
6
CONTINUOUS
10
4.3411125196850389
20
-5.4351361023622049
11
4.3373629921259838
21
-5.4163884251968506
0
LINE
8
BLACK
6
CONTINUOUS
10
4.3373629921259838
20
-5.4163884251968506
11
4.3336134645669286
21
-5.4051398425196853
0
LINE
8
BLACK
6
CONTINUOUS
10
4.3336134645669286
20
-5.4051398425196853
11
4.3298639370078735
21
-5.397640787401575
0
LINE
8
BLACK
6
CONTINUOUS
10
4.3298639370078735
20
-5.397640787401575
11
4.3223648818897633
21
-5.386392165354331
0
LINE
8
BLACK
6
CONTINUOUS
10
4.3223648818897633
20
-5.386392165354331
11
4.3186153543307082
21
-5.3826426377952759
0
LINE
8
BLACK
6
CONTINUOUS
10
4.4610975590551183
20
-5.5026276377952756
11
4.4573479921259844
21
-5.4988781102362205
0
LINE
8
BLACK
6
CONTINUOUS
10
4.4573479921259844
20
-5.4988781102362205
11
4.4498489370078742
21
-5.4876295275590552
0
LINE
8
BLACK
6
CONTINUOUS
10
4.4498489370078742
20
-5.4876295275590552
11
4.4460994094488191
21
-5.480130472440945
0
LINE
8
BLACK
6
CONTINUOUS
10
4.4460994094488191
20
-5.480130472440945
11
4.442349881889764
21
-5.4688818897637796
0
LINE
8
BLACK
6
CONTINUOUS
10
4.442349881889764
20
-5.4688818897637796
11
4.4386003543307089
21
-5.4501342125984253
0
LINE
8
BLACK
6
CONTINUOUS
10
4.4386003543307089
20
-5.4501342125984253
11
4.4386003543307089
21
-5.4351361023622049
0
LINE
8
BLACK
6
CONTINUOUS
10
4.4386003543307089
20
-5.4351361023622049
11
4.442349881889764
21
-5.4163884251968506
0
LINE
8
BLACK
6
CONTINUOUS
10
4.442349881889764
20
-5.4163884251968506
11
4.4460994094488191
21
-5.4051398425196853
0
LINE
8
BLACK
6
CONTINUOUS
10
4.4460994094488191
20
-5.4051398425196853
11
4.4498489370078742
21
-5.397640787401575
0
LINE
8
BLACK
6
CONTINUOUS
10
4.4498489370078742
20
-5.397640787401575
11
4.4573479921259844
21
-5.386392165354331
0
LINE
8
BLACK
6
CONTINUOUS
10
4.4573479921259844
20
-5.386392165354331
11
4.4610975590551183
21
-5.3826426377952759
0
LINE
8
BLACK
6
CONTINUOUS
10
4.4910937795275592
20
-5.4201379527559057
11
4.4910937795275592
21
-5.4726314173228348
0
LINE
8
BLACK
6
CONTINUOUS
10
4.4910937795275592
20
-5.4276370078740159
11
4.4948433070866143
21
-5.4238874803149608
0
LINE
8
BLACK
6
CONTINUOUS
10
4.4948433070866143
20
-5.4238874803149608
11
4.5023423622047245
21
-5.4201379527559057
0
LINE
8
BLACK
6
CONTINUOUS
10
4.5023423622047245
20
-5.4201379527559057
11
4.5135909842519686
21
-5.4201379527559057
0
LINE
8
BLACK
6
CONTINUOUS
10
4.5135909842519686
20
-5.4201379527559057
11
4.5210900393700788
21
-5.4238874803149608
0
LINE
8
BLACK
6
CONTINUOUS
10
4.5210900393700788
20
-5.4238874803149608
11
4.5248395669291339
21
-5.4313865748031498
0
LINE
8
BLACK
6
CONTINUOUS
10
4.5248395669291339
20
-5.4313865748031498
11
4.5248395669291339
21
-5.4726314173228348
0
LINE
8
BLACK
6
CONTINUOUS
10
4.5735834645669291
20
-5.4726314173228348
11
4.5660844094488189
21
-5.4688818897637796
0
LINE
8
BLACK
6
CONTINUOUS
10
4.5660844094488189
20
-5.4688818897637796
11
4.5623348818897638
21
-5.4651323228346458
0
LINE
8
BLACK
6
CONTINUOUS
10
4.5623348818897638
20
-5.4651323228346458
11
4.5585853543307087
21
-5.4576332677165356
0
LINE
8
BLACK
6
CONTINUOUS
10
4.5585853543307087
20
-5.4576332677165356
11
4.5585853543307087
21
-5.4351361023622049
0
LINE
8
BLACK
6
CONTINUOUS
10
4.5585853543307087
20
-5.4351361023622049
11
4.5623348818897638
21
-5.4276370078740159
0
LINE
8
BLACK
6
CONTINUOUS
10
4.5623348818897638
20
-5.4276370078740159
11
4.5660844094488189
21
-5.4238874803149608
0
LINE
8
BLACK
6
CONTINUOUS
10
4.5660844094488189
20
-5.4238874803149608
11
4.5735834645669291
21
-5.4201379527559057
0
LINE
8
BLACK
6
CONTINUOUS
10
4.5735834645669291
20
-5.4201379527559057
11
4.5848320866141732
21
-5.4201379527559057
0
LINE
8
BLACK
6
CONTINUOUS
10
4.5848320866141732
20
-5.4201379527559057
11
4.5923311417322834
21
-5.4238874803149608
0
LINE
8
BLACK
6
CONTINUOUS
10
4.5923311417322834
20
-5.4238874803149608
11
4.5960806692913385
21
-5.4276370078740159
0
LINE
8
BLACK
6
CONTINUOUS
10
4.5960806692913385
20
-5.4276370078740159
11
4.5998301968503936
21
-5.4351361023622049
0
LINE
8
BLACK
6
CONTINUOUS
10
4.5998301968503936
20
-5.4351361023622049
11
4.5998301968503936
21
-5.4576332677165356
0
LINE
8
BLACK
6
CONTINUOUS
10
4.5998301968503936
20
-5.4576332677165356
11
4.5960806692913385
21
-5.4651323228346458
0
LINE
8
BLACK
6
CONTINUOUS
10
4.5960806692913385
20
-5.4651323228346458
11
4.5923311417322834
21
-5.4688818897637796
0
LINE
8
BLACK
6
CONTINUOUS
10
4.5923311417322834
20
-5.4688818897637796
11
4.5848320866141732
21
-5.4726314173228348
0
LINE
8
BLACK
6
CONTINUOUS
10
4.5848320866141732
20
-5.4726314173228348
11
4.5735834645669291
21
-5.4726314173228348
0
LINE
8
BLACK
6
CONTINUOUS
10
4.622327401574803
20
-5.4201379527559057
11
4.6523236220472439
21
-5.4201379527559057
0
LINE
8
BLACK
6
CONTINUOUS
10
4.6335759842519684
20
-5.3938912598425199
11
4.6335759842519684
21
-5.4613827952755907
0
LINE
8
BLACK
6
CONTINUOUS
10
4.6335759842519684
20
-5.4613827952755907
11
4.6373255118110235
21
-5.4688818897637796
0
LINE
8
BLACK
6
CONTINUOUS
10
4.6373255118110235
20
-5.4688818897637796
11
4.6448245669291337
21
-5.4726314173228348
0
LINE
8
BLACK
6
CONTINUOUS
10
4.6448245669291337
20
-5.4726314173228348
11
4.6523236220472439
21
-5.4726314173228348
0
LINE
8
BLACK
6
CONTINUOUS
10
4.7385628740157477
20
-5.4201379527559057
11
4.7385628740157477
21
-5.4988781102362205
0
LINE
8
BLACK
6
CONTINUOUS
10
4.7385628740157477
20
-5.4238874803149608
11
4.7460619291338579
21
-5.4201379527559057
0
LINE
8
BLACK
6
CONTINUOUS
10
4.7460619291338579
20
-5.4201379527559057
11
4.7610600787401571
21
-5.4201379527559057
0
LINE
8
BLACK
6
CONTINUOUS
10
4.7610600787401571
20
-5.4201379527559057
11
4.7685591338582674
21
-5.4238874803149608
0
LINE
8
BLACK
6
CONTINUOUS
10
4.7685591338582674
20
-5.4238874803149608
11
4.7723086614173225
21
-5.4276370078740159
0
LINE
8
BLACK
6
CONTINUOUS
10
4.7723086614173225
20
-5.4276370078740159
11
4.7760581889763776
21
-5.4351361023622049
0
LINE
8
BLACK
6
CONTINUOUS
10
4.7760581889763776
20
-5.4351361023622049
11
4.7760581889763776
21
-5.4576332677165356
0
LINE
8
BLACK
6
CONTINUOUS
10
4.7760581889763776
20
-5.4576332677165356
11
4.7723086614173225
21
-5.4651323228346458
0
LINE
8
BLACK
6
CONTINUOUS
10
4.7723086614173225
20
-5.4651323228346458
11
4.7685591338582674
21
-5.4688818897637796
0
LINE
8
BLACK
6
CONTINUOUS
10
4.7685591338582674
20
-5.4688818897637796
11
4.7610600787401571
21
-5.4726314173228348
0
LINE
8
BLACK
6
CONTINUOUS
10
4.7610600787401571
20
-5.4726314173228348
11
4.7460619291338579
21
-5.4726314173228348
0
LINE
8
BLACK
6
CONTINUOUS
10
4.7460619291338579
20
-5.4726314173228348
11
4.7385628740157477
21
-5.4688818897637796
0
LINE
8
BLACK
6
CONTINUOUS
10
4.8210525590551176
20
-5.4726314173228348
11
4.8135535039370074
21
-5.4688818897637796
0
LINE
8
BLACK
6
CONTINUOUS
10
4.8135535039370074
20
-5.4688818897637796
11
4.8098039763779523
21
-5.4613827952755907
0
LINE
8
BLACK
6
CONTINUOUS
10
4.8098039763779523
20
-5.4613827952755907
11
4.8098039763779523
21
-5.3938912598425199
0
LINE
8
BLACK
6
CONTINUOUS
10
4.8847946062992129
20
-5.4726314173228348
11
4.8847946062992129
21
-5.4313865748031498
0
LINE
8
BLACK
6
CONTINUOUS
10
4.8847946062992129
20
-5.4313865748031498
11
4.8810450787401578
21
-5.4238874803149608
0
LINE
8
BLACK
6
CONTINUOUS
10
4.8810450787401578
20
-5.4238874803149608
11
4.8735460236220467
21
-5.4201379527559057
0
LINE
8
BLACK
6
CONTINUOUS
10
4.8735460236220467
20
-5.4201379527559057
11
4.8585478740157475
21
-5.4201379527559057
0
LINE
8
BLACK
6
CONTINUOUS
10
4.8585478740157475
20
-5.4201379527559057
11
4.8510488188976373
21
-5.4238874803149608
0
LINE
8
BLACK
6
CONTINUOUS
10
4.8847946062992129
20
-5.4688818897637796
11
4.8772955511811027
21
-5.4726314173228348
0
LINE
8
BLACK
6
CONTINUOUS
10
4.8772955511811027
20
-5.4726314173228348
11
4.8585478740157475
21
-5.4726314173228348
0
LINE
8
BLACK
6
CONTINUOUS
10
4.8585478740157475
20
-5.4726314173228348
11
4.8510488188976373
21
-5.4688818897637796
0
LINE
8
BLACK
6
CONTINUOUS
10
4.8510488188976373
20
-5.4688818897637796
11
4.8472992913385822
21
-5.4613827952755907
0
LINE
8
BLACK
6
CONTINUOUS
10
4.8472992913385822
20
-5.4613827952755907
11
4.8472992913385822
21
-5.4538837401574805
0
LINE
8
BLACK
6
CONTINUOUS
10
4.8472992913385822
20
-5.4538837401574805
11
4.8510488188976373
21
-5.4463846850393702
0
LINE
8
BLACK
6
CONTINUOUS
10
4.8510488188976373
20
-5.4463846850393702
11
4.8585478740157475
21
-5.4426351574803151
0
LINE
8
BLACK
6
CONTINUOUS
10
4.8585478740157475
20
-5.4426351574803151
11
4.8772955511811027
21
-5.4426351574803151
0
LINE
8
BLACK
6
CONTINUOUS
10
4.8772955511811027
20
-5.4426351574803151
11
4.8847946062992129
21
-5.43888562992126
0
LINE
8
BLACK
6
CONTINUOUS
10
4.9110413385826774
20
-5.4201379527559057
11
4.9410375590551183
21
-5.4201379527559057
0
LINE
8
BLACK
6
CONTINUOUS
10
4.9222899212598428
20
-5.3938912598425199
11
4.9222899212598428
21
-5.4613827952755907
0
LINE
8
BLACK
6
CONTINUOUS
10
4.9222899212598428
20
-5.4613827952755907
11
4.9260394488188979
21
-5.4688818897637796
0
LINE
8
BLACK
6
CONTINUOUS
10
4.9260394488188979
20
-5.4688818897637796
11
4.9335385039370081
21
-5.4726314173228348
0
LINE
8
BLACK
6
CONTINUOUS
10
4.9335385039370081
20
-5.4726314173228348
11
4.9410375590551183
21
-5.4726314173228348
0
LINE
8
BLACK
6
CONTINUOUS
10
4.9972805511811025
20
-5.4688818897637796
11
4.9897814960629923
21
-5.4726314173228348
0
LINE
8
BLACK
6
CONTINUOUS
10
4.9897814960629923
20
-5.4726314173228348
11
4.9747833464566931
21
-5.4726314173228348
0
LINE
8
BLACK
6
CONTINUOUS
10
4.9747833464566931
20
-5.4726314173228348
11
4.9672842913385828
21
-5.4688818897637796
0
LINE
8
BLACK
6
CONTINUOUS
10
4.9672842913385828
20
-5.4688818897637796
11
4.9635347637795277
21
-5.4613827952755907
0
LINE
8
BLACK
6
CONTINUOUS
10
4.9635347637795277
20
-5.4613827952755907
11
4.9635347637795277
21
-5.4313865748031498
0
LINE
8
BLACK
6
CONTINUOUS
10
4.9635347637795277
20
-5.4313865748031498
11
4.9672842913385828
21
-5.4238874803149608
0
LINE
8
BLACK
6
CONTINUOUS
10
4.9672842913385828
20
-5.4238874803149608
11
4.9747833464566931
21
-5.4201379527559057
0
LINE
8
BLACK
6
CONTINUOUS
10
4.9747833464566931
20
-5.4201379527559057
11
4.9897814960629923
21
-5.4201379527559057
0
LINE
8
BLACK
6
CONTINUOUS
10
4.9897814960629923
20
-5.4201379527559057
11
4.9972805511811025
21
-5.4238874803149608
0
LINE
8
BLACK
6
CONTINUOUS
10
4.9972805511811025
20
-5.4238874803149608
11
5.0010300787401576
21
-5.4313865748031498
0
LINE
8
BLACK
6
CONTINUOUS
10
5.0010300787401576
20
-5.4313865748031498
11
5.0010300787401576
21
-5.43888562992126
0
LINE
8
BLACK
6
CONTINUOUS
10
5.0010300787401576
20
-5.43888562992126
11
4.9635347637795277
21
-5.4463846850393702
0
LINE
8
BLACK
6
CONTINUOUS
10
5.0685216535433071
20
-5.4726314173228348
11
5.0685216535433071
21
-5.3938912598425199
0
LINE
8
BLACK
6
CONTINUOUS
10
5.0685216535433071
20
-5.4688818897637796
11
5.0610225984251969
21
-5.4726314173228348
0
LINE
8
BLACK
6
CONTINUOUS
10
5.0610225984251969
20
-5.4726314173228348
11
5.0460244488188977
21
-5.4726314173228348
0
LINE
8
BLACK
6
CONTINUOUS
10
5.0460244488188977
20
-5.4726314173228348
11
5.0385253937007874
21
-5.4688818897637796
0
LINE
8
BLACK
6
CONTINUOUS
10
5.0385253937007874
20
-5.4688818897637796
11
5.0347758661417323
21
-5.4651323228346458
0
LINE
8
BLACK
6
CONTINUOUS
10
5.0347758661417323
20
-5.4651323228346458
11
5.0310263385826772
21
-5.4576332677165356
0
LINE
8
BLACK
6
CONTINUOUS
10
5.0310263385826772
20
-5.4576332677165356
11
5.0310263385826772
21
-5.4351361023622049
0
LINE
8
BLACK
6
CONTINUOUS
10
5.0310263385826772
20
-5.4351361023622049
11
5.0347758661417323
21
-5.4276370078740159
0
LINE
8
BLACK
6
CONTINUOUS
10
5.0347758661417323
20
-5.4276370078740159
11
5.0385253937007874
21
-5.4238874803149608
0
LINE
8
BLACK
6
CONTINUOUS
10
5.0385253937007874
20
-5.4238874803149608
11
5.0460244488188977
21
-5.4201379527559057
0
LINE
8
BLACK
6
CONTINUOUS
10
5.0460244488188977
20
-5.4201379527559057
11
5.0610225984251969
21
-5.4201379527559057
0
LINE
8
BLACK
6
CONTINUOUS
10
5.0610225984251969
20
-5.4201379527559057
11
5.0685216535433071
21
-5.4238874803149608
0
LINE
8
BLACK
6
CONTINUOUS
10
5.0985179133858267
20
-5.5026276377952756
11
5.1022674409448818
21
-5.4988781102362205
0
LINE
8
BLACK
6
CONTINUOUS
10
5.1022674409448818
20
-5.4988781102362205
11
5.109766496062992
21
-5.4876295275590552
0
LINE
8
BLACK
6
CONTINUOUS
10
5.109766496062992
20
-5.4876295275590552
11
5.1135160236220472
21
-5.480130472440945
0
LINE
8
BLACK
6
CONTINUOUS
10
5.1135160236220472
20
-5.480130472440945
11
5.1172655511811023
21
-5.4688818897637796
0
LINE
8
BLACK
6
CONTINUOUS
10
5.1172655511811023
20
-5.4688818897637796
11
5.1210150787401574
21
-5.4501342125984253
0
LINE
8
BLACK
6
CONTINUOUS
10
5.1210150787401574
20
-5.4501342125984253
11
5.1210150787401574
21
-5.4351361023622049
0
LINE
8
BLACK
6
CONTINUOUS
10
5.1210150787401574
20
-5.4351361023622049
11
5.1172655511811023
21
-5.4163884251968506
0
LINE
8
BLACK
6
CONTINUOUS
10
5.1172655511811023
20
-5.4163884251968506
11
5.1135160236220472
21
-5.4051398425196853
0
LINE
8
BLACK
6
CONTINUOUS
10
5.1135160236220472
20
-5.4051398425196853
11
5.109766496062992
21
-5.397640787401575
0
LINE
8
BLACK
6
CONTINUOUS
10
5.109766496062992
20
-5.397640787401575
11
5.1022674409448818
21
-5.386392165354331
0
LINE
8
BLACK
6
CONTINUOUS
10
5.1022674409448818
20
-5.386392165354331
11
5.0985179133858267
21
-5.3826426377952759
  0
ENDSEC
  0
EOF
