%TF.GenerationSoftware,KiCad,Pcbnew,8.0.4-8.0.4-0~ubuntu22.04.1*%
%TF.CreationDate,2024-08-31T09:44:10-07:00*%
%TF.ProjectId,mag-encoder,6d61672d-656e-4636-9f64-65722e6b6963,2*%
%TF.SameCoordinates,Original*%
%TF.FileFunction,Copper,L3,Inr*%
%TF.FilePolarity,Positive*%
%FSLAX46Y46*%
G04 Gerber Fmt 4.6, Leading zero omitted, Abs format (unit mm)*
G04 Created by KiCad (PCBNEW 8.0.4-8.0.4-0~ubuntu22.04.1) date 2024-08-31 09:44:10*
%MOMM*%
%LPD*%
G01*
G04 APERTURE LIST*
%TA.AperFunction,ComponentPad*%
%ADD10C,3.810000*%
%TD*%
%TA.AperFunction,ComponentPad*%
%ADD11R,1.700000X1.700000*%
%TD*%
%TA.AperFunction,ComponentPad*%
%ADD12O,1.700000X1.700000*%
%TD*%
%TA.AperFunction,ViaPad*%
%ADD13C,0.600000*%
%TD*%
%TA.AperFunction,ViaPad*%
%ADD14C,0.609600*%
%TD*%
G04 APERTURE END LIST*
D10*
%TO.N,*%
%TO.C,H1*%
X224840800Y-114046000D03*
%TD*%
D11*
%TO.N,GND*%
%TO.C,J1*%
X221411800Y-117221000D03*
D12*
%TO.N,+3.3V*%
X221411800Y-119761000D03*
%TO.N,/CS*%
X221411800Y-122301000D03*
%TO.N,/MOSI*%
X221411800Y-124841000D03*
%TO.N,/MISO*%
X221411800Y-127381000D03*
%TO.N,/SCLK*%
X221411800Y-129921000D03*
%TD*%
D10*
%TO.N,*%
%TO.C,H2*%
X224840800Y-133096000D03*
%TD*%
D13*
%TO.N,+3.3V*%
X232689400Y-111175800D03*
D14*
X233464100Y-125260100D03*
X231317800Y-125984000D03*
D13*
X233248200Y-134518400D03*
X228473000Y-115417600D03*
%TO.N,GND*%
X230657400Y-115265200D03*
D14*
X226491800Y-117094000D03*
X232003600Y-122097800D03*
D13*
X228955600Y-135509000D03*
X232029000Y-135509000D03*
D14*
X233984800Y-121793000D03*
D13*
%TO.N,+5V*%
X230530400Y-111226600D03*
%TO.N,Net-(D4-A)*%
X231292400Y-131826000D03*
%TO.N,Net-(D1-K)*%
X228981000Y-111226600D03*
%TO.N,Net-(D3-A)*%
X233924399Y-131273400D03*
%TO.N,Net-(D4-K)*%
X230505000Y-135559800D03*
D14*
X229368646Y-130086100D03*
X231267000Y-129387600D03*
%TO.N,/A*%
X223157754Y-124046954D03*
%TO.N,/B*%
X236245400Y-125412501D03*
%TO.N,/PWM*%
X234911727Y-126377562D03*
D13*
%TO.N,Net-(Q1-D)*%
X233603800Y-135890000D03*
%TO.N,Net-(Q1-G)*%
X234883106Y-127441105D03*
%TO.N,Net-(D5-A)*%
X233019600Y-131724400D03*
D14*
%TO.N,/MISO*%
X231495600Y-121031000D03*
X230657400Y-126822200D03*
%TD*%
%TA.AperFunction,Conductor*%
%TO.N,GND*%
G36*
X231263939Y-110169733D02*
G01*
X231270471Y-110170079D01*
X231973341Y-110226166D01*
X231979872Y-110226862D01*
X232678775Y-110320167D01*
X232685272Y-110321210D01*
X233378224Y-110451465D01*
X233384633Y-110452847D01*
X234069741Y-110619697D01*
X234076031Y-110621407D01*
X234604763Y-110780326D01*
X234751293Y-110824368D01*
X234757544Y-110826429D01*
X235089309Y-110945679D01*
X235421081Y-111064933D01*
X235427198Y-111067316D01*
X235805895Y-111226601D01*
X236077126Y-111340684D01*
X236083124Y-111343396D01*
X236717654Y-111650876D01*
X236723496Y-111653902D01*
X237217818Y-111926731D01*
X237340772Y-111994592D01*
X237346444Y-111997921D01*
X237944831Y-112370922D01*
X237950297Y-112374535D01*
X238094404Y-112475360D01*
X238528022Y-112778743D01*
X238533313Y-112782658D01*
X238710674Y-112921329D01*
X239088793Y-113216964D01*
X239093834Y-113221126D01*
X239370338Y-113462012D01*
X239625474Y-113684283D01*
X239630315Y-113688731D01*
X239712634Y-113768514D01*
X240136626Y-114179444D01*
X240141229Y-114184148D01*
X240620788Y-114701033D01*
X240625135Y-114705975D01*
X240768004Y-114877371D01*
X240863439Y-114991862D01*
X240940549Y-115084368D01*
X240968353Y-115148467D01*
X240969300Y-115163764D01*
X240969300Y-131977739D01*
X240949615Y-132044778D01*
X240940439Y-132057266D01*
X240625188Y-132434408D01*
X240620843Y-132439334D01*
X240141037Y-132955165D01*
X240136438Y-132959855D01*
X239629944Y-133449598D01*
X239625102Y-133454037D01*
X239093413Y-133916245D01*
X239088343Y-133920422D01*
X238532919Y-134353828D01*
X238527635Y-134357731D01*
X237950026Y-134761126D01*
X237944543Y-134764743D01*
X237346393Y-135136975D01*
X237340726Y-135140297D01*
X236723695Y-135480335D01*
X236717860Y-135483352D01*
X236083693Y-135790236D01*
X236077706Y-135792940D01*
X235428155Y-136065819D01*
X235422051Y-136068194D01*
X234901394Y-136255148D01*
X234758994Y-136306281D01*
X234752755Y-136308336D01*
X234113350Y-136500365D01*
X234043482Y-136500795D01*
X233984473Y-136463383D01*
X233955057Y-136400007D01*
X233964575Y-136330789D01*
X233994841Y-136292535D01*
X233993527Y-136291221D01*
X233999269Y-136285477D01*
X233999274Y-136285474D01*
X234088155Y-136169643D01*
X234144028Y-136034754D01*
X234163085Y-135890000D01*
X234156428Y-135839438D01*
X234144028Y-135745247D01*
X234144028Y-135745246D01*
X234088155Y-135610358D01*
X233999274Y-135494526D01*
X233883443Y-135405645D01*
X233883440Y-135405644D01*
X233883438Y-135405642D01*
X233748557Y-135349773D01*
X233748552Y-135349771D01*
X233603801Y-135330715D01*
X233603799Y-135330715D01*
X233459047Y-135349771D01*
X233459045Y-135349772D01*
X233324161Y-135405643D01*
X233324158Y-135405644D01*
X233324158Y-135405645D01*
X233311905Y-135415047D01*
X233208326Y-135494526D01*
X233119443Y-135610361D01*
X233063572Y-135745245D01*
X233063571Y-135745247D01*
X233044515Y-135889998D01*
X233044515Y-135890001D01*
X233063571Y-136034752D01*
X233063573Y-136034757D01*
X233119442Y-136169638D01*
X233119445Y-136169644D01*
X233208325Y-136285473D01*
X233208326Y-136285474D01*
X233324155Y-136374354D01*
X233324161Y-136374357D01*
X233460514Y-136430836D01*
X233514918Y-136474677D01*
X233536983Y-136540971D01*
X233519704Y-136608670D01*
X233468567Y-136656281D01*
X233442388Y-136665879D01*
X233387127Y-136679330D01*
X233380707Y-136680714D01*
X232688310Y-136810857D01*
X232681824Y-136811899D01*
X231983508Y-136905192D01*
X231976976Y-136905889D01*
X231274699Y-136962070D01*
X231268140Y-136962420D01*
X230563890Y-136981332D01*
X230557321Y-136981335D01*
X229853021Y-136962925D01*
X229846461Y-136962579D01*
X229144162Y-136906901D01*
X229137630Y-136906209D01*
X228439231Y-136813413D01*
X228432744Y-136812375D01*
X227740273Y-136682730D01*
X227733851Y-136681351D01*
X227049191Y-136515211D01*
X227042851Y-136513493D01*
X226367959Y-136311333D01*
X226361718Y-136309282D01*
X225698491Y-136071669D01*
X225692368Y-136069291D01*
X225042629Y-135796880D01*
X225036640Y-135794180D01*
X224949793Y-135752230D01*
X224656084Y-135610358D01*
X224551413Y-135559798D01*
X229945715Y-135559798D01*
X229945715Y-135559801D01*
X229964771Y-135704552D01*
X229964773Y-135704557D01*
X230020642Y-135839438D01*
X230020645Y-135839444D01*
X230109525Y-135955273D01*
X230109526Y-135955274D01*
X230225355Y-136044154D01*
X230225361Y-136044157D01*
X230289102Y-136070559D01*
X230360246Y-136100028D01*
X230432623Y-136109556D01*
X230504999Y-136119085D01*
X230505000Y-136119085D01*
X230505001Y-136119085D01*
X230553251Y-136112732D01*
X230649754Y-136100028D01*
X230784643Y-136044155D01*
X230900474Y-135955274D01*
X230989355Y-135839443D01*
X231045228Y-135704554D01*
X231064285Y-135559800D01*
X231045228Y-135415046D01*
X230989355Y-135280158D01*
X230900474Y-135164326D01*
X230784643Y-135075445D01*
X230784640Y-135075444D01*
X230784638Y-135075442D01*
X230649757Y-135019573D01*
X230649752Y-135019571D01*
X230505001Y-135000515D01*
X230504999Y-135000515D01*
X230360247Y-135019571D01*
X230360245Y-135019572D01*
X230225361Y-135075443D01*
X230225358Y-135075444D01*
X230225358Y-135075445D01*
X230145171Y-135136975D01*
X230109526Y-135164326D01*
X230020643Y-135280161D01*
X229964772Y-135415045D01*
X229964771Y-135415047D01*
X229945715Y-135559798D01*
X224551413Y-135559798D01*
X224402254Y-135487749D01*
X224396416Y-135484736D01*
X224393900Y-135483352D01*
X224328600Y-135447426D01*
X224279352Y-135397864D01*
X224264717Y-135329545D01*
X224289341Y-135264158D01*
X224345407Y-135222464D01*
X224405252Y-135215938D01*
X224663469Y-135251429D01*
X224693085Y-135255500D01*
X224693086Y-135255500D01*
X224988515Y-135255500D01*
X225020068Y-135251163D01*
X225281190Y-135215273D01*
X225565662Y-135135567D01*
X225832709Y-135019572D01*
X225836630Y-135017869D01*
X225861484Y-135002755D01*
X226089051Y-134864369D01*
X226318218Y-134677928D01*
X226467209Y-134518398D01*
X232688915Y-134518398D01*
X232688915Y-134518401D01*
X232707971Y-134663152D01*
X232707973Y-134663157D01*
X232763842Y-134798038D01*
X232763845Y-134798044D01*
X232852725Y-134913873D01*
X232852726Y-134913874D01*
X232968555Y-135002754D01*
X232968561Y-135002757D01*
X233009159Y-135019573D01*
X233103446Y-135058628D01*
X233175823Y-135068156D01*
X233248199Y-135077685D01*
X233248200Y-135077685D01*
X233248201Y-135077685D01*
X233296451Y-135071332D01*
X233392954Y-135058628D01*
X233527843Y-135002755D01*
X233643674Y-134913874D01*
X233732555Y-134798043D01*
X233788428Y-134663154D01*
X233807485Y-134518400D01*
X233788428Y-134373646D01*
X233732555Y-134238758D01*
X233643674Y-134122926D01*
X233527843Y-134034045D01*
X233527840Y-134034044D01*
X233527838Y-134034042D01*
X233392957Y-133978173D01*
X233392952Y-133978171D01*
X233248201Y-133959115D01*
X233248199Y-133959115D01*
X233103447Y-133978171D01*
X233103445Y-133978172D01*
X232968561Y-134034043D01*
X232968558Y-134034044D01*
X232968558Y-134034045D01*
X232852726Y-134122926D01*
X232777725Y-134220670D01*
X232763843Y-134238761D01*
X232707972Y-134373645D01*
X232707971Y-134373647D01*
X232688915Y-134518398D01*
X226467209Y-134518398D01*
X226519863Y-134462019D01*
X226690230Y-134220663D01*
X226826146Y-133958357D01*
X226925079Y-133679988D01*
X226985185Y-133390739D01*
X227005346Y-133096000D01*
X226985185Y-132801261D01*
X226925079Y-132512012D01*
X226913099Y-132478305D01*
X226826147Y-132233646D01*
X226826148Y-132233646D01*
X226690229Y-131971335D01*
X226690225Y-131971329D01*
X226587640Y-131825998D01*
X230733115Y-131825998D01*
X230733115Y-131826001D01*
X230752171Y-131970752D01*
X230752173Y-131970757D01*
X230808042Y-132105638D01*
X230808045Y-132105644D01*
X230896925Y-132221473D01*
X230896926Y-132221474D01*
X231012755Y-132310354D01*
X231012761Y-132310357D01*
X231080201Y-132338291D01*
X231147646Y-132366228D01*
X231210995Y-132374568D01*
X231292399Y-132385285D01*
X231292400Y-132385285D01*
X231292401Y-132385285D01*
X231340651Y-132378932D01*
X231437154Y-132366228D01*
X231572043Y-132310355D01*
X231687874Y-132221474D01*
X231776755Y-132105643D01*
X231832628Y-131970754D01*
X231851685Y-131826000D01*
X231849669Y-131810690D01*
X231838309Y-131724398D01*
X232460315Y-131724398D01*
X232460315Y-131724401D01*
X232479371Y-131869152D01*
X232479373Y-131869157D01*
X232535242Y-132004038D01*
X232535245Y-132004044D01*
X232624125Y-132119873D01*
X232624126Y-132119874D01*
X232739955Y-132208754D01*
X232739961Y-132208757D01*
X232770663Y-132221474D01*
X232874846Y-132264628D01*
X232947223Y-132274156D01*
X233019599Y-132283685D01*
X233019600Y-132283685D01*
X233019601Y-132283685D01*
X233067851Y-132277332D01*
X233164354Y-132264628D01*
X233299243Y-132208755D01*
X233415074Y-132119874D01*
X233503955Y-132004043D01*
X233559828Y-131869154D01*
X233559827Y-131869154D01*
X233562938Y-131861646D01*
X233565377Y-131862656D01*
X233594933Y-131814150D01*
X233657774Y-131783610D01*
X233725810Y-131791328D01*
X233779645Y-131813628D01*
X233852022Y-131823156D01*
X233924398Y-131832685D01*
X233924399Y-131832685D01*
X233924400Y-131832685D01*
X233975192Y-131825998D01*
X234069153Y-131813628D01*
X234204042Y-131757755D01*
X234319873Y-131668874D01*
X234408754Y-131553043D01*
X234464627Y-131418154D01*
X234483684Y-131273400D01*
X234464627Y-131128646D01*
X234408754Y-130993758D01*
X234319873Y-130877926D01*
X234204042Y-130789045D01*
X234204039Y-130789044D01*
X234204037Y-130789042D01*
X234069156Y-130733173D01*
X234069151Y-130733171D01*
X233924400Y-130714115D01*
X233924398Y-130714115D01*
X233779646Y-130733171D01*
X233779644Y-130733172D01*
X233644760Y-130789043D01*
X233644757Y-130789044D01*
X233644757Y-130789045D01*
X233528925Y-130877926D01*
X233453113Y-130976727D01*
X233440042Y-130993761D01*
X233414083Y-131056433D01*
X233384172Y-131128645D01*
X233381061Y-131136155D01*
X233378626Y-131135146D01*
X233349032Y-131183680D01*
X233286178Y-131214196D01*
X233218188Y-131206471D01*
X233164354Y-131184172D01*
X233164351Y-131184171D01*
X233164352Y-131184171D01*
X233019601Y-131165115D01*
X233019599Y-131165115D01*
X232874847Y-131184171D01*
X232874845Y-131184172D01*
X232739961Y-131240043D01*
X232739958Y-131240044D01*
X232739958Y-131240045D01*
X232624126Y-131328926D01*
X232555661Y-131418152D01*
X232535243Y-131444761D01*
X232479372Y-131579645D01*
X232479371Y-131579647D01*
X232460315Y-131724398D01*
X231838309Y-131724398D01*
X231832628Y-131681247D01*
X231832628Y-131681246D01*
X231776755Y-131546358D01*
X231687874Y-131430526D01*
X231572043Y-131341645D01*
X231572040Y-131341644D01*
X231572038Y-131341642D01*
X231437157Y-131285773D01*
X231437152Y-131285771D01*
X231292401Y-131266715D01*
X231292399Y-131266715D01*
X231147647Y-131285771D01*
X231147645Y-131285772D01*
X231012761Y-131341643D01*
X231012758Y-131341644D01*
X231012758Y-131341645D01*
X230913052Y-131418152D01*
X230896926Y-131430526D01*
X230808043Y-131546361D01*
X230752172Y-131681245D01*
X230752171Y-131681247D01*
X230733115Y-131825998D01*
X226587640Y-131825998D01*
X226519865Y-131729983D01*
X226318214Y-131514068D01*
X226089057Y-131327635D01*
X226089046Y-131327628D01*
X225836630Y-131174130D01*
X225565665Y-131056434D01*
X225565663Y-131056433D01*
X225565662Y-131056433D01*
X225455262Y-131025500D01*
X225281195Y-130976728D01*
X225281191Y-130976727D01*
X225281190Y-130976727D01*
X225134852Y-130956613D01*
X224988515Y-130936500D01*
X224988514Y-130936500D01*
X224693086Y-130936500D01*
X224693085Y-130936500D01*
X224400410Y-130976727D01*
X224400404Y-130976728D01*
X224115934Y-131056434D01*
X223844969Y-131174130D01*
X223592553Y-131327628D01*
X223592542Y-131327635D01*
X223363385Y-131514068D01*
X223161734Y-131729983D01*
X222991374Y-131971329D01*
X222991370Y-131971335D01*
X222855452Y-132233646D01*
X222756522Y-132512006D01*
X222756521Y-132512009D01*
X222696414Y-132801266D01*
X222676254Y-133096000D01*
X222696414Y-133390733D01*
X222756521Y-133679990D01*
X222756522Y-133679993D01*
X222855452Y-133958353D01*
X222855451Y-133958353D01*
X222991370Y-134220664D01*
X222991374Y-134220670D01*
X223161734Y-134462017D01*
X223164408Y-134465303D01*
X223163611Y-134465951D01*
X223192884Y-134524218D01*
X223185518Y-134593699D01*
X223141756Y-134648166D01*
X223075495Y-134670328D01*
X223007770Y-134653149D01*
X222999960Y-134648126D01*
X222822269Y-134524218D01*
X222591687Y-134363427D01*
X222586402Y-134359530D01*
X222408186Y-134220670D01*
X222030662Y-133926515D01*
X222025591Y-133922343D01*
X221493561Y-133460505D01*
X221488716Y-133456070D01*
X220981881Y-132966699D01*
X220977278Y-132962012D01*
X220497097Y-132446514D01*
X220492748Y-132441591D01*
X220171217Y-132057494D01*
X220143279Y-131993453D01*
X220142300Y-131977899D01*
X220142300Y-130376628D01*
X220161985Y-130309589D01*
X220214789Y-130263834D01*
X220283947Y-130253890D01*
X220347503Y-130282915D01*
X220377300Y-130321356D01*
X220468712Y-130504935D01*
X220592069Y-130668287D01*
X220743337Y-130806185D01*
X220743339Y-130806187D01*
X220917369Y-130913942D01*
X220917375Y-130913945D01*
X220957810Y-130929609D01*
X221108244Y-130987888D01*
X221309453Y-131025500D01*
X221309456Y-131025500D01*
X221514144Y-131025500D01*
X221514147Y-131025500D01*
X221715356Y-130987888D01*
X221906227Y-130913944D01*
X222080262Y-130806186D01*
X222231532Y-130668285D01*
X222354888Y-130504935D01*
X222446128Y-130321701D01*
X222502145Y-130124821D01*
X222505733Y-130086098D01*
X228804520Y-130086098D01*
X228804520Y-130086101D01*
X228823741Y-130232105D01*
X228823742Y-130232107D01*
X228860853Y-130321701D01*
X228880099Y-130368163D01*
X228969749Y-130484997D01*
X229086583Y-130574647D01*
X229222639Y-130631004D01*
X229295642Y-130640615D01*
X229368645Y-130650226D01*
X229368646Y-130650226D01*
X229368647Y-130650226D01*
X229417315Y-130643818D01*
X229514653Y-130631004D01*
X229650709Y-130574647D01*
X229767543Y-130484997D01*
X229857193Y-130368163D01*
X229913550Y-130232107D01*
X229932772Y-130086100D01*
X229913550Y-129940093D01*
X229857193Y-129804037D01*
X229767543Y-129687203D01*
X229650709Y-129597553D01*
X229650705Y-129597551D01*
X229514653Y-129541196D01*
X229514651Y-129541195D01*
X229368647Y-129521974D01*
X229368645Y-129521974D01*
X229222640Y-129541195D01*
X229222638Y-129541196D01*
X229086586Y-129597551D01*
X228969749Y-129687203D01*
X228880097Y-129804040D01*
X228823742Y-129940092D01*
X228823741Y-129940094D01*
X228804520Y-130086098D01*
X222505733Y-130086098D01*
X222521032Y-129921000D01*
X222502145Y-129717179D01*
X222446128Y-129520299D01*
X222380051Y-129387598D01*
X230702874Y-129387598D01*
X230702874Y-129387601D01*
X230722095Y-129533605D01*
X230722096Y-129533607D01*
X230748583Y-129597553D01*
X230778453Y-129669663D01*
X230868103Y-129786497D01*
X230984937Y-129876147D01*
X231120993Y-129932504D01*
X231193996Y-129942115D01*
X231266999Y-129951726D01*
X231267000Y-129951726D01*
X231267001Y-129951726D01*
X231315669Y-129945318D01*
X231413007Y-129932504D01*
X231496477Y-129897929D01*
X234842300Y-129897929D01*
X234842300Y-130204070D01*
X234842301Y-130204086D01*
X234882260Y-130507607D01*
X234961502Y-130803340D01*
X235078654Y-131086173D01*
X235078662Y-131086189D01*
X235231731Y-131351310D01*
X235231742Y-131351326D01*
X235418109Y-131594204D01*
X235418115Y-131594211D01*
X235634588Y-131810684D01*
X235634595Y-131810690D01*
X235710784Y-131869152D01*
X235877482Y-131997064D01*
X235877489Y-131997068D01*
X236142610Y-132150137D01*
X236142626Y-132150145D01*
X236425459Y-132267297D01*
X236425461Y-132267297D01*
X236425467Y-132267300D01*
X236721189Y-132346539D01*
X237024723Y-132386500D01*
X237024730Y-132386500D01*
X237330870Y-132386500D01*
X237330877Y-132386500D01*
X237634411Y-132346539D01*
X237930133Y-132267300D01*
X238040770Y-132221473D01*
X238212973Y-132150145D01*
X238212976Y-132150143D01*
X238212982Y-132150141D01*
X238478118Y-131997064D01*
X238721006Y-131810689D01*
X238937489Y-131594206D01*
X239123864Y-131351318D01*
X239276941Y-131086182D01*
X239289264Y-131056433D01*
X239394097Y-130803340D01*
X239394096Y-130803340D01*
X239394100Y-130803333D01*
X239473339Y-130507611D01*
X239513300Y-130204077D01*
X239513300Y-129897923D01*
X239473339Y-129594389D01*
X239394100Y-129298667D01*
X239370460Y-129241594D01*
X239276945Y-129015826D01*
X239276937Y-129015810D01*
X239123868Y-128750689D01*
X239123864Y-128750682D01*
X238937489Y-128507794D01*
X238937484Y-128507788D01*
X238721011Y-128291315D01*
X238721004Y-128291309D01*
X238478126Y-128104942D01*
X238478124Y-128104940D01*
X238478118Y-128104936D01*
X238478113Y-128104933D01*
X238478110Y-128104931D01*
X238212989Y-127951862D01*
X238212973Y-127951854D01*
X237930140Y-127834702D01*
X237732350Y-127781704D01*
X237634411Y-127755461D01*
X237634410Y-127755460D01*
X237634407Y-127755460D01*
X237330886Y-127715501D01*
X237330883Y-127715500D01*
X237330877Y-127715500D01*
X237024723Y-127715500D01*
X237024717Y-127715500D01*
X237024713Y-127715501D01*
X236721192Y-127755460D01*
X236425459Y-127834702D01*
X236142626Y-127951854D01*
X236142610Y-127951862D01*
X235877489Y-128104931D01*
X235877473Y-128104942D01*
X235634595Y-128291309D01*
X235634588Y-128291315D01*
X235418115Y-128507788D01*
X235418109Y-128507795D01*
X235231742Y-128750673D01*
X235231731Y-128750689D01*
X235078662Y-129015810D01*
X235078654Y-129015826D01*
X234961502Y-129298659D01*
X234882260Y-129594392D01*
X234842301Y-129897913D01*
X234842300Y-129897929D01*
X231496477Y-129897929D01*
X231549063Y-129876147D01*
X231665897Y-129786497D01*
X231755547Y-129669663D01*
X231811904Y-129533607D01*
X231831126Y-129387600D01*
X231811904Y-129241593D01*
X231755547Y-129105537D01*
X231665897Y-128988703D01*
X231549063Y-128899053D01*
X231549059Y-128899051D01*
X231413007Y-128842696D01*
X231413005Y-128842695D01*
X231267001Y-128823474D01*
X231266999Y-128823474D01*
X231120994Y-128842695D01*
X231120992Y-128842696D01*
X230984940Y-128899051D01*
X230984937Y-128899052D01*
X230984937Y-128899053D01*
X230868103Y-128988703D01*
X230831954Y-129035814D01*
X230778451Y-129105540D01*
X230722096Y-129241592D01*
X230722095Y-129241594D01*
X230702874Y-129387598D01*
X222380051Y-129387598D01*
X222354888Y-129337065D01*
X222231532Y-129173715D01*
X222231530Y-129173712D01*
X222080262Y-129035814D01*
X222080260Y-129035812D01*
X221906230Y-128928057D01*
X221906224Y-128928054D01*
X221755793Y-128869777D01*
X221715356Y-128854112D01*
X221514147Y-128816500D01*
X221309453Y-128816500D01*
X221108244Y-128854112D01*
X221108241Y-128854112D01*
X221108241Y-128854113D01*
X220917375Y-128928054D01*
X220917369Y-128928057D01*
X220743339Y-129035812D01*
X220743337Y-129035814D01*
X220592069Y-129173712D01*
X220468712Y-129337064D01*
X220377300Y-129520643D01*
X220329797Y-129571880D01*
X220262134Y-129589301D01*
X220195794Y-129567375D01*
X220151839Y-129513064D01*
X220142300Y-129465371D01*
X220142300Y-127836628D01*
X220161985Y-127769589D01*
X220214789Y-127723834D01*
X220283947Y-127713890D01*
X220347503Y-127742915D01*
X220377300Y-127781356D01*
X220468712Y-127964935D01*
X220592069Y-128128287D01*
X220743337Y-128266185D01*
X220743339Y-128266187D01*
X220917369Y-128373942D01*
X220917375Y-128373945D01*
X220957810Y-128389609D01*
X221108244Y-128447888D01*
X221309453Y-128485500D01*
X221309456Y-128485500D01*
X221514144Y-128485500D01*
X221514147Y-128485500D01*
X221715356Y-128447888D01*
X221906227Y-128373944D01*
X222080262Y-128266186D01*
X222231532Y-128128285D01*
X222354888Y-127964935D01*
X222446128Y-127781701D01*
X222502145Y-127584821D01*
X222515463Y-127441103D01*
X234323821Y-127441103D01*
X234323821Y-127441106D01*
X234342877Y-127585857D01*
X234342879Y-127585862D01*
X234398748Y-127720743D01*
X234398751Y-127720749D01*
X234487631Y-127836578D01*
X234487632Y-127836579D01*
X234603461Y-127925459D01*
X234603467Y-127925462D01*
X234667184Y-127951854D01*
X234738352Y-127981333D01*
X234810729Y-127990861D01*
X234883105Y-128000390D01*
X234883106Y-128000390D01*
X234883107Y-128000390D01*
X234931357Y-127994037D01*
X235027860Y-127981333D01*
X235162749Y-127925460D01*
X235278580Y-127836579D01*
X235367461Y-127720748D01*
X235423334Y-127585859D01*
X235442391Y-127441105D01*
X235423334Y-127296351D01*
X235367461Y-127161463D01*
X235278580Y-127045631D01*
X235278577Y-127045629D01*
X235278576Y-127045627D01*
X235247411Y-127021713D01*
X235206208Y-126965285D01*
X235202054Y-126895539D01*
X235236267Y-126834619D01*
X235247398Y-126824973D01*
X235310624Y-126776459D01*
X235400274Y-126659625D01*
X235456631Y-126523569D01*
X235474471Y-126388057D01*
X235475853Y-126377563D01*
X235475853Y-126377560D01*
X235456631Y-126231556D01*
X235456631Y-126231555D01*
X235400274Y-126095499D01*
X235310624Y-125978665D01*
X235193790Y-125889015D01*
X235193786Y-125889013D01*
X235057734Y-125832658D01*
X235057732Y-125832657D01*
X234911728Y-125813436D01*
X234911726Y-125813436D01*
X234765721Y-125832657D01*
X234765719Y-125832658D01*
X234629667Y-125889013D01*
X234629664Y-125889014D01*
X234629664Y-125889015D01*
X234540538Y-125957404D01*
X234512830Y-125978665D01*
X234423178Y-126095502D01*
X234366823Y-126231554D01*
X234366822Y-126231556D01*
X234347601Y-126377560D01*
X234347601Y-126377563D01*
X234366822Y-126523567D01*
X234366823Y-126523569D01*
X234412447Y-126633715D01*
X234423180Y-126659625D01*
X234512830Y-126776459D01*
X234533571Y-126792374D01*
X234547421Y-126803002D01*
X234588623Y-126859430D01*
X234592778Y-126929176D01*
X234558565Y-126990096D01*
X234547422Y-126999752D01*
X234487633Y-127045630D01*
X234398749Y-127161466D01*
X234342878Y-127296350D01*
X234342877Y-127296352D01*
X234323821Y-127441103D01*
X222515463Y-127441103D01*
X222521032Y-127381000D01*
X222502145Y-127177179D01*
X222446128Y-126980299D01*
X222367403Y-126822198D01*
X230093274Y-126822198D01*
X230093274Y-126822201D01*
X230112495Y-126968205D01*
X230112496Y-126968207D01*
X230146086Y-127049301D01*
X230168853Y-127104263D01*
X230258503Y-127221097D01*
X230375337Y-127310747D01*
X230511393Y-127367104D01*
X230584396Y-127376715D01*
X230657399Y-127386326D01*
X230657400Y-127386326D01*
X230657401Y-127386326D01*
X230706069Y-127379918D01*
X230803407Y-127367104D01*
X230939463Y-127310747D01*
X231056297Y-127221097D01*
X231145947Y-127104263D01*
X231202304Y-126968207D01*
X231219891Y-126834619D01*
X231221526Y-126822201D01*
X231221526Y-126822200D01*
X231221526Y-126822198D01*
X231203883Y-126688190D01*
X231214648Y-126619159D01*
X231261028Y-126566903D01*
X231310637Y-126549069D01*
X231317800Y-126548126D01*
X231463807Y-126528904D01*
X231599863Y-126472547D01*
X231716697Y-126382897D01*
X231806347Y-126266063D01*
X231862704Y-126130007D01*
X231881926Y-125984000D01*
X231880955Y-125976627D01*
X231862704Y-125837994D01*
X231862704Y-125837993D01*
X231806347Y-125701937D01*
X231716697Y-125585103D01*
X231599863Y-125495453D01*
X231599859Y-125495451D01*
X231463807Y-125439096D01*
X231463805Y-125439095D01*
X231317801Y-125419874D01*
X231317799Y-125419874D01*
X231171794Y-125439095D01*
X231171792Y-125439096D01*
X231035740Y-125495451D01*
X231035737Y-125495452D01*
X231035737Y-125495453D01*
X230953565Y-125558506D01*
X230918903Y-125585103D01*
X230829251Y-125701940D01*
X230772896Y-125837992D01*
X230772895Y-125837994D01*
X230753674Y-125983998D01*
X230753674Y-125984001D01*
X230771316Y-126118006D01*
X230760550Y-126187041D01*
X230714170Y-126239297D01*
X230664563Y-126257130D01*
X230529496Y-126274912D01*
X230511393Y-126277296D01*
X230511392Y-126277296D01*
X230375340Y-126333651D01*
X230375337Y-126333652D01*
X230375337Y-126333653D01*
X230258503Y-126423303D01*
X230177473Y-126528904D01*
X230168851Y-126540140D01*
X230112496Y-126676192D01*
X230112495Y-126676194D01*
X230093274Y-126822198D01*
X222367403Y-126822198D01*
X222354888Y-126797065D01*
X222231532Y-126633715D01*
X222231530Y-126633712D01*
X222080262Y-126495814D01*
X222080260Y-126495812D01*
X221906230Y-126388057D01*
X221906224Y-126388054D01*
X221755793Y-126329777D01*
X221715356Y-126314112D01*
X221514147Y-126276500D01*
X221309453Y-126276500D01*
X221108244Y-126314112D01*
X221108241Y-126314112D01*
X221108241Y-126314113D01*
X220917375Y-126388054D01*
X220917369Y-126388057D01*
X220743339Y-126495812D01*
X220743337Y-126495814D01*
X220592069Y-126633712D01*
X220468712Y-126797064D01*
X220377300Y-126980643D01*
X220329797Y-127031880D01*
X220262134Y-127049301D01*
X220195794Y-127027375D01*
X220151839Y-126973064D01*
X220142300Y-126925371D01*
X220142300Y-125296628D01*
X220161985Y-125229589D01*
X220214789Y-125183834D01*
X220283947Y-125173890D01*
X220347503Y-125202915D01*
X220377300Y-125241356D01*
X220468712Y-125424935D01*
X220592069Y-125588287D01*
X220743337Y-125726185D01*
X220743339Y-125726187D01*
X220917369Y-125833942D01*
X220917375Y-125833945D01*
X220927827Y-125837994D01*
X221108244Y-125907888D01*
X221309453Y-125945500D01*
X221309456Y-125945500D01*
X221514144Y-125945500D01*
X221514147Y-125945500D01*
X221715356Y-125907888D01*
X221906227Y-125833944D01*
X222080262Y-125726186D01*
X222231532Y-125588285D01*
X222354888Y-125424935D01*
X222436967Y-125260098D01*
X232899974Y-125260098D01*
X232899974Y-125260101D01*
X232919195Y-125406105D01*
X232919196Y-125406107D01*
X232975553Y-125542163D01*
X233065203Y-125658997D01*
X233182037Y-125748647D01*
X233318093Y-125805004D01*
X233366653Y-125811397D01*
X233464099Y-125824226D01*
X233464100Y-125824226D01*
X233464101Y-125824226D01*
X233512769Y-125817818D01*
X233610107Y-125805004D01*
X233746163Y-125748647D01*
X233862997Y-125658997D01*
X233952647Y-125542163D01*
X234006356Y-125412499D01*
X235681274Y-125412499D01*
X235681274Y-125412502D01*
X235700495Y-125558506D01*
X235700496Y-125558508D01*
X235756853Y-125694564D01*
X235846503Y-125811398D01*
X235963337Y-125901048D01*
X236099393Y-125957405D01*
X236172396Y-125967016D01*
X236245399Y-125976627D01*
X236245400Y-125976627D01*
X236245401Y-125976627D01*
X236294069Y-125970219D01*
X236391407Y-125957405D01*
X236527463Y-125901048D01*
X236644297Y-125811398D01*
X236733947Y-125694564D01*
X236790304Y-125558508D01*
X236809526Y-125412501D01*
X236790304Y-125266494D01*
X236733947Y-125130438D01*
X236644297Y-125013604D01*
X236527463Y-124923954D01*
X236527459Y-124923952D01*
X236391407Y-124867597D01*
X236391405Y-124867596D01*
X236245401Y-124848375D01*
X236245399Y-124848375D01*
X236099394Y-124867596D01*
X236099392Y-124867597D01*
X235963340Y-124923952D01*
X235846503Y-125013604D01*
X235756851Y-125130441D01*
X235700496Y-125266493D01*
X235700495Y-125266495D01*
X235681274Y-125412499D01*
X234006356Y-125412499D01*
X234009004Y-125406107D01*
X234028226Y-125260100D01*
X234025758Y-125241356D01*
X234009004Y-125114094D01*
X234009004Y-125114093D01*
X233952647Y-124978037D01*
X233862997Y-124861203D01*
X233746163Y-124771553D01*
X233746159Y-124771551D01*
X233610107Y-124715196D01*
X233610105Y-124715195D01*
X233464101Y-124695974D01*
X233464099Y-124695974D01*
X233318094Y-124715195D01*
X233318092Y-124715196D01*
X233182040Y-124771551D01*
X233182037Y-124771552D01*
X233182037Y-124771553D01*
X233065203Y-124861203D01*
X233017053Y-124923954D01*
X232975551Y-124978040D01*
X232919196Y-125114092D01*
X232919195Y-125114094D01*
X232899974Y-125260098D01*
X222436967Y-125260098D01*
X222446128Y-125241701D01*
X222502145Y-125044821D01*
X222521032Y-124841000D01*
X222502145Y-124637179D01*
X222446128Y-124440299D01*
X222354888Y-124257065D01*
X222231532Y-124093715D01*
X222231530Y-124093712D01*
X222180236Y-124046952D01*
X222593628Y-124046952D01*
X222593628Y-124046955D01*
X222612849Y-124192959D01*
X222612850Y-124192961D01*
X222669207Y-124329017D01*
X222758857Y-124445851D01*
X222875691Y-124535501D01*
X223011747Y-124591858D01*
X223084750Y-124601469D01*
X223157753Y-124611080D01*
X223157754Y-124611080D01*
X223157755Y-124611080D01*
X223206423Y-124604672D01*
X223303761Y-124591858D01*
X223439817Y-124535501D01*
X223556651Y-124445851D01*
X223646301Y-124329017D01*
X223702658Y-124192961D01*
X223721880Y-124046954D01*
X223702658Y-123900947D01*
X223646301Y-123764891D01*
X223556651Y-123648057D01*
X223439817Y-123558407D01*
X223439813Y-123558405D01*
X223303761Y-123502050D01*
X223303759Y-123502049D01*
X223157755Y-123482828D01*
X223157753Y-123482828D01*
X223011748Y-123502049D01*
X223011746Y-123502050D01*
X222875694Y-123558405D01*
X222758857Y-123648057D01*
X222669205Y-123764894D01*
X222612850Y-123900946D01*
X222612849Y-123900948D01*
X222593628Y-124046952D01*
X222180236Y-124046952D01*
X222080262Y-123955814D01*
X222080260Y-123955812D01*
X221906230Y-123848057D01*
X221906224Y-123848054D01*
X221755793Y-123789777D01*
X221715356Y-123774112D01*
X221514147Y-123736500D01*
X221309453Y-123736500D01*
X221108244Y-123774112D01*
X221108241Y-123774112D01*
X221108241Y-123774113D01*
X220917375Y-123848054D01*
X220917369Y-123848057D01*
X220743339Y-123955812D01*
X220743337Y-123955814D01*
X220592069Y-124093712D01*
X220468712Y-124257064D01*
X220377300Y-124440643D01*
X220329797Y-124491880D01*
X220262134Y-124509301D01*
X220195794Y-124487375D01*
X220151839Y-124433064D01*
X220142300Y-124385371D01*
X220142300Y-122756628D01*
X220161985Y-122689589D01*
X220214789Y-122643834D01*
X220283947Y-122633890D01*
X220347503Y-122662915D01*
X220377300Y-122701356D01*
X220468712Y-122884935D01*
X220592069Y-123048287D01*
X220743337Y-123186185D01*
X220743339Y-123186187D01*
X220917369Y-123293942D01*
X220917375Y-123293945D01*
X220957810Y-123309609D01*
X221108244Y-123367888D01*
X221309453Y-123405500D01*
X221309456Y-123405500D01*
X221514144Y-123405500D01*
X221514147Y-123405500D01*
X221715356Y-123367888D01*
X221906227Y-123293944D01*
X222080262Y-123186186D01*
X222231532Y-123048285D01*
X222354888Y-122884935D01*
X222446128Y-122701701D01*
X222502145Y-122504821D01*
X222521032Y-122301000D01*
X222502145Y-122097179D01*
X222446128Y-121900299D01*
X222354888Y-121717065D01*
X222262804Y-121595126D01*
X222231530Y-121553712D01*
X222080262Y-121415814D01*
X222080260Y-121415812D01*
X221906230Y-121308057D01*
X221906224Y-121308054D01*
X221755793Y-121249777D01*
X221715356Y-121234112D01*
X221514147Y-121196500D01*
X221309453Y-121196500D01*
X221108244Y-121234112D01*
X221108241Y-121234112D01*
X221108241Y-121234113D01*
X220917375Y-121308054D01*
X220917369Y-121308057D01*
X220743339Y-121415812D01*
X220743337Y-121415814D01*
X220592069Y-121553712D01*
X220468712Y-121717064D01*
X220377300Y-121900643D01*
X220329797Y-121951880D01*
X220262134Y-121969301D01*
X220195794Y-121947375D01*
X220151839Y-121893064D01*
X220142300Y-121845371D01*
X220142300Y-121030998D01*
X230931474Y-121030998D01*
X230931474Y-121031001D01*
X230950695Y-121177005D01*
X230950696Y-121177007D01*
X231007053Y-121313063D01*
X231096703Y-121429897D01*
X231213537Y-121519547D01*
X231349593Y-121575904D01*
X231422596Y-121585515D01*
X231495599Y-121595126D01*
X231495600Y-121595126D01*
X231495601Y-121595126D01*
X231544269Y-121588718D01*
X231641607Y-121575904D01*
X231777663Y-121519547D01*
X231894497Y-121429897D01*
X231984147Y-121313063D01*
X232040504Y-121177007D01*
X232059726Y-121031000D01*
X232040504Y-120884993D01*
X231984147Y-120748937D01*
X231894497Y-120632103D01*
X231777663Y-120542453D01*
X231777659Y-120542451D01*
X231641607Y-120486096D01*
X231641605Y-120486095D01*
X231495601Y-120466874D01*
X231495599Y-120466874D01*
X231349594Y-120486095D01*
X231349592Y-120486096D01*
X231213540Y-120542451D01*
X231213537Y-120542452D01*
X231213537Y-120542453D01*
X231096703Y-120632103D01*
X231085898Y-120646185D01*
X231007051Y-120748940D01*
X230950696Y-120884992D01*
X230950695Y-120884994D01*
X230931474Y-121030998D01*
X220142300Y-121030998D01*
X220142300Y-120216628D01*
X220161985Y-120149589D01*
X220214789Y-120103834D01*
X220283947Y-120093890D01*
X220347503Y-120122915D01*
X220377300Y-120161356D01*
X220468712Y-120344935D01*
X220592069Y-120508287D01*
X220743337Y-120646185D01*
X220743339Y-120646187D01*
X220917369Y-120753942D01*
X220917375Y-120753945D01*
X220957810Y-120769609D01*
X221108244Y-120827888D01*
X221309453Y-120865500D01*
X221309456Y-120865500D01*
X221514144Y-120865500D01*
X221514147Y-120865500D01*
X221715356Y-120827888D01*
X221906227Y-120753944D01*
X222080262Y-120646186D01*
X222231532Y-120508285D01*
X222354888Y-120344935D01*
X222446128Y-120161701D01*
X222502145Y-119964821D01*
X222521032Y-119761000D01*
X222502145Y-119557179D01*
X222446128Y-119360299D01*
X222354888Y-119177065D01*
X222295704Y-119098693D01*
X222231530Y-119013712D01*
X222080262Y-118875814D01*
X222080260Y-118875812D01*
X221958508Y-118800427D01*
X221911872Y-118748399D01*
X221900768Y-118679418D01*
X221928721Y-118615383D01*
X221986856Y-118576627D01*
X222023785Y-118571000D01*
X222309628Y-118571000D01*
X222309644Y-118570999D01*
X222369172Y-118564598D01*
X222369179Y-118564596D01*
X222503886Y-118514354D01*
X222503893Y-118514350D01*
X222618987Y-118428190D01*
X222618990Y-118428187D01*
X222705150Y-118313093D01*
X222705154Y-118313086D01*
X222755396Y-118178379D01*
X222755398Y-118178372D01*
X222761799Y-118118844D01*
X222761800Y-118118827D01*
X222761800Y-117471000D01*
X221844812Y-117471000D01*
X221877725Y-117413993D01*
X221911800Y-117286826D01*
X221911800Y-117155174D01*
X221877725Y-117028007D01*
X221844812Y-116971000D01*
X222761800Y-116971000D01*
X222761800Y-116937929D01*
X234842300Y-116937929D01*
X234842300Y-117244070D01*
X234842301Y-117244086D01*
X234882260Y-117547607D01*
X234961502Y-117843340D01*
X235078654Y-118126173D01*
X235078662Y-118126189D01*
X235231731Y-118391310D01*
X235231742Y-118391326D01*
X235418109Y-118634204D01*
X235418115Y-118634211D01*
X235634588Y-118850684D01*
X235634594Y-118850689D01*
X235877482Y-119037064D01*
X235877489Y-119037068D01*
X236142610Y-119190137D01*
X236142626Y-119190145D01*
X236425459Y-119307297D01*
X236425461Y-119307297D01*
X236425467Y-119307300D01*
X236721189Y-119386539D01*
X237024723Y-119426500D01*
X237024730Y-119426500D01*
X237330870Y-119426500D01*
X237330877Y-119426500D01*
X237634411Y-119386539D01*
X237930133Y-119307300D01*
X238006441Y-119275692D01*
X238212973Y-119190145D01*
X238212976Y-119190143D01*
X238212982Y-119190141D01*
X238478118Y-119037064D01*
X238721006Y-118850689D01*
X238937489Y-118634206D01*
X239123864Y-118391318D01*
X239276941Y-118126182D01*
X239279981Y-118118844D01*
X239394097Y-117843340D01*
X239394096Y-117843340D01*
X239394100Y-117843333D01*
X239473339Y-117547611D01*
X239513300Y-117244077D01*
X239513300Y-116937923D01*
X239473339Y-116634389D01*
X239394100Y-116338667D01*
X239338941Y-116205500D01*
X239276945Y-116055826D01*
X239276937Y-116055810D01*
X239123868Y-115790689D01*
X239123864Y-115790682D01*
X239052162Y-115697238D01*
X238937490Y-115547795D01*
X238937484Y-115547788D01*
X238721011Y-115331315D01*
X238721004Y-115331309D01*
X238478126Y-115144942D01*
X238478124Y-115144940D01*
X238478118Y-115144936D01*
X238478113Y-115144933D01*
X238478110Y-115144931D01*
X238212989Y-114991862D01*
X238212973Y-114991854D01*
X237930140Y-114874702D01*
X237905333Y-114868055D01*
X237634411Y-114795461D01*
X237634410Y-114795460D01*
X237634407Y-114795460D01*
X237330886Y-114755501D01*
X237330883Y-114755500D01*
X237330877Y-114755500D01*
X237024723Y-114755500D01*
X237024717Y-114755500D01*
X237024713Y-114755501D01*
X236721192Y-114795460D01*
X236425459Y-114874702D01*
X236142626Y-114991854D01*
X236142610Y-114991862D01*
X235877489Y-115144931D01*
X235877473Y-115144942D01*
X235634595Y-115331309D01*
X235634588Y-115331315D01*
X235418115Y-115547788D01*
X235418109Y-115547795D01*
X235231742Y-115790673D01*
X235231731Y-115790689D01*
X235078662Y-116055810D01*
X235078654Y-116055826D01*
X234961502Y-116338659D01*
X234882260Y-116634392D01*
X234842301Y-116937913D01*
X234842300Y-116937929D01*
X222761800Y-116937929D01*
X222761800Y-116323172D01*
X222761799Y-116323155D01*
X222755398Y-116263627D01*
X222755396Y-116263620D01*
X222705154Y-116128913D01*
X222705150Y-116128906D01*
X222618990Y-116013812D01*
X222618987Y-116013809D01*
X222503893Y-115927649D01*
X222503886Y-115927645D01*
X222369179Y-115877403D01*
X222369172Y-115877401D01*
X222309644Y-115871000D01*
X221661800Y-115871000D01*
X221661800Y-116787988D01*
X221604793Y-116755075D01*
X221477626Y-116721000D01*
X221345974Y-116721000D01*
X221218807Y-116755075D01*
X221161800Y-116787988D01*
X221161800Y-115871000D01*
X220513955Y-115871000D01*
X220454427Y-115877401D01*
X220454420Y-115877403D01*
X220311401Y-115930746D01*
X220310274Y-115927726D01*
X220257432Y-115939212D01*
X220191972Y-115914783D01*
X220150111Y-115858842D01*
X220142300Y-115815529D01*
X220142300Y-115163764D01*
X220161985Y-115096725D01*
X220171051Y-115084368D01*
X220486475Y-114705962D01*
X220490799Y-114701045D01*
X220970387Y-114184130D01*
X220974954Y-114179462D01*
X221481303Y-113688713D01*
X221486099Y-113684306D01*
X222017783Y-113221110D01*
X222022787Y-113216979D01*
X222578294Y-112782651D01*
X222583577Y-112778743D01*
X223017197Y-112475359D01*
X223083410Y-112453057D01*
X223151171Y-112470092D01*
X223198965Y-112521058D01*
X223211617Y-112589773D01*
X223185112Y-112654419D01*
X223178907Y-112661595D01*
X223161734Y-112679983D01*
X222991374Y-112921329D01*
X222991370Y-112921335D01*
X222855452Y-113183646D01*
X222756522Y-113462006D01*
X222756521Y-113462009D01*
X222696414Y-113751266D01*
X222676254Y-114046000D01*
X222696414Y-114340733D01*
X222756521Y-114629990D01*
X222756522Y-114629993D01*
X222855452Y-114908353D01*
X222855451Y-114908353D01*
X222991370Y-115170664D01*
X222991374Y-115170670D01*
X223161734Y-115412016D01*
X223363385Y-115627931D01*
X223592542Y-115814364D01*
X223592545Y-115814366D01*
X223592549Y-115814369D01*
X223594457Y-115815529D01*
X223844969Y-115967869D01*
X224030032Y-116048253D01*
X224115938Y-116085567D01*
X224400410Y-116165273D01*
X224657719Y-116200638D01*
X224693085Y-116205500D01*
X224693086Y-116205500D01*
X224988515Y-116205500D01*
X225020068Y-116201163D01*
X225281190Y-116165273D01*
X225565662Y-116085567D01*
X225836632Y-115967868D01*
X226089051Y-115814369D01*
X226318218Y-115627928D01*
X226514653Y-115417598D01*
X227913715Y-115417598D01*
X227913715Y-115417601D01*
X227932771Y-115562352D01*
X227932773Y-115562357D01*
X227988642Y-115697238D01*
X227988645Y-115697244D01*
X228077525Y-115813073D01*
X228077526Y-115813074D01*
X228193355Y-115901954D01*
X228193361Y-115901957D01*
X228260801Y-115929891D01*
X228328246Y-115957828D01*
X228400623Y-115967356D01*
X228472999Y-115976885D01*
X228473000Y-115976885D01*
X228473001Y-115976885D01*
X228541484Y-115967869D01*
X228617754Y-115957828D01*
X228752643Y-115901955D01*
X228868474Y-115813074D01*
X228957355Y-115697243D01*
X229013228Y-115562354D01*
X229032285Y-115417600D01*
X229031550Y-115412019D01*
X229013228Y-115272847D01*
X229013228Y-115272846D01*
X228957355Y-115137958D01*
X228868474Y-115022126D01*
X228752643Y-114933245D01*
X228752640Y-114933244D01*
X228752638Y-114933242D01*
X228617757Y-114877373D01*
X228617752Y-114877371D01*
X228473001Y-114858315D01*
X228472999Y-114858315D01*
X228328247Y-114877371D01*
X228328245Y-114877372D01*
X228193361Y-114933243D01*
X228193358Y-114933244D01*
X228193358Y-114933245D01*
X228077526Y-115022126D01*
X228003300Y-115118860D01*
X227988643Y-115137961D01*
X227932772Y-115272845D01*
X227932771Y-115272847D01*
X227913715Y-115417598D01*
X226514653Y-115417598D01*
X226519863Y-115412019D01*
X226690230Y-115170663D01*
X226826146Y-114908357D01*
X226925079Y-114629988D01*
X226985185Y-114340739D01*
X227005346Y-114046000D01*
X226985185Y-113751261D01*
X226925079Y-113462012D01*
X226826147Y-113183646D01*
X226826148Y-113183646D01*
X226690229Y-112921335D01*
X226690225Y-112921329D01*
X226519865Y-112679983D01*
X226318214Y-112464068D01*
X226089057Y-112277635D01*
X226089046Y-112277628D01*
X225836630Y-112124130D01*
X225565665Y-112006434D01*
X225565663Y-112006433D01*
X225565662Y-112006433D01*
X225484730Y-111983757D01*
X225281195Y-111926728D01*
X225281191Y-111926727D01*
X225281190Y-111926727D01*
X225134852Y-111906613D01*
X224988515Y-111886500D01*
X224988514Y-111886500D01*
X224693086Y-111886500D01*
X224693085Y-111886500D01*
X224400410Y-111926727D01*
X224400389Y-111926731D01*
X224399956Y-111926853D01*
X224399813Y-111926851D01*
X224396252Y-111927591D01*
X224396088Y-111926804D01*
X224330092Y-111925974D01*
X224271793Y-111887464D01*
X224243570Y-111823548D01*
X224254382Y-111754520D01*
X224300797Y-111702296D01*
X224306550Y-111698913D01*
X224388144Y-111653879D01*
X224393932Y-111650882D01*
X225028486Y-111343390D01*
X225034462Y-111340688D01*
X225305710Y-111226598D01*
X228421715Y-111226598D01*
X228421715Y-111226601D01*
X228440771Y-111371352D01*
X228440773Y-111371357D01*
X228496642Y-111506238D01*
X228496645Y-111506244D01*
X228585525Y-111622073D01*
X228585526Y-111622074D01*
X228701355Y-111710954D01*
X228701361Y-111710957D01*
X228713599Y-111716026D01*
X228836246Y-111766828D01*
X228908623Y-111776356D01*
X228980999Y-111785885D01*
X228981000Y-111785885D01*
X228981001Y-111785885D01*
X229029251Y-111779532D01*
X229125754Y-111766828D01*
X229260643Y-111710955D01*
X229376474Y-111622074D01*
X229465355Y-111506243D01*
X229521228Y-111371354D01*
X229540285Y-111226600D01*
X229540285Y-111226598D01*
X229971115Y-111226598D01*
X229971115Y-111226601D01*
X229990171Y-111371352D01*
X229990173Y-111371357D01*
X230046042Y-111506238D01*
X230046045Y-111506244D01*
X230134925Y-111622073D01*
X230134926Y-111622074D01*
X230250755Y-111710954D01*
X230250761Y-111710957D01*
X230262999Y-111716026D01*
X230385646Y-111766828D01*
X230458023Y-111776356D01*
X230530399Y-111785885D01*
X230530400Y-111785885D01*
X230530401Y-111785885D01*
X230578651Y-111779532D01*
X230675154Y-111766828D01*
X230810043Y-111710955D01*
X230925874Y-111622074D01*
X231014755Y-111506243D01*
X231070628Y-111371354D01*
X231089685Y-111226600D01*
X231082997Y-111175798D01*
X232130115Y-111175798D01*
X232130115Y-111175801D01*
X232149171Y-111320552D01*
X232149173Y-111320557D01*
X232205042Y-111455438D01*
X232205045Y-111455444D01*
X232293925Y-111571273D01*
X232293926Y-111571274D01*
X232409755Y-111660154D01*
X232409761Y-111660157D01*
X232477201Y-111688091D01*
X232544646Y-111716028D01*
X232617023Y-111725556D01*
X232689399Y-111735085D01*
X232689400Y-111735085D01*
X232689401Y-111735085D01*
X232737651Y-111728732D01*
X232834154Y-111716028D01*
X232969043Y-111660155D01*
X233084874Y-111571274D01*
X233173755Y-111455443D01*
X233229628Y-111320554D01*
X233248685Y-111175800D01*
X233229628Y-111031046D01*
X233173755Y-110896158D01*
X233084874Y-110780326D01*
X232969043Y-110691445D01*
X232969040Y-110691444D01*
X232969038Y-110691442D01*
X232834157Y-110635573D01*
X232834152Y-110635571D01*
X232689401Y-110616515D01*
X232689399Y-110616515D01*
X232544647Y-110635571D01*
X232544645Y-110635572D01*
X232409761Y-110691443D01*
X232409758Y-110691444D01*
X232409758Y-110691445D01*
X232293926Y-110780326D01*
X232260132Y-110824368D01*
X232205043Y-110896161D01*
X232149172Y-111031045D01*
X232149171Y-111031047D01*
X232130115Y-111175798D01*
X231082997Y-111175798D01*
X231070628Y-111081846D01*
X231014755Y-110946958D01*
X230925874Y-110831126D01*
X230810043Y-110742245D01*
X230810040Y-110742244D01*
X230810038Y-110742242D01*
X230675157Y-110686373D01*
X230675152Y-110686371D01*
X230530401Y-110667315D01*
X230530399Y-110667315D01*
X230385647Y-110686371D01*
X230385645Y-110686372D01*
X230250761Y-110742243D01*
X230250758Y-110742244D01*
X230250758Y-110742245D01*
X230201130Y-110780326D01*
X230134926Y-110831126D01*
X230046043Y-110946961D01*
X229990172Y-111081845D01*
X229990171Y-111081847D01*
X229971115Y-111226598D01*
X229540285Y-111226598D01*
X229521228Y-111081846D01*
X229465355Y-110946958D01*
X229376474Y-110831126D01*
X229260643Y-110742245D01*
X229260640Y-110742244D01*
X229260638Y-110742242D01*
X229125757Y-110686373D01*
X229125752Y-110686371D01*
X228981001Y-110667315D01*
X228980999Y-110667315D01*
X228836247Y-110686371D01*
X228836245Y-110686372D01*
X228701361Y-110742243D01*
X228701358Y-110742244D01*
X228701358Y-110742245D01*
X228651730Y-110780326D01*
X228585526Y-110831126D01*
X228496643Y-110946961D01*
X228440772Y-111081845D01*
X228440771Y-111081847D01*
X228421715Y-111226598D01*
X225305710Y-111226598D01*
X225684414Y-111067311D01*
X225690505Y-111064937D01*
X226354058Y-110826427D01*
X226360306Y-110824368D01*
X227035578Y-110621404D01*
X227041848Y-110619699D01*
X227726974Y-110452845D01*
X227733367Y-110451467D01*
X228426333Y-110321209D01*
X228432817Y-110320168D01*
X229131731Y-110226861D01*
X229138254Y-110226167D01*
X229841130Y-110170079D01*
X229847658Y-110169733D01*
X230552523Y-110151019D01*
X230559077Y-110151019D01*
X231263939Y-110169733D01*
G37*
%TD.AperFunction*%
%TD*%
M02*
