%TF.GenerationSoftware,KiCad,Pcbnew,8.0.2-1*%
%TF.CreationDate,2024-09-06T12:08:41-07:00*%
%TF.ProjectId,HallSwitch,48616c6c-5377-4697-9463-682e6b696361,rev?*%
%TF.SameCoordinates,Original*%
%TF.FileFunction,Legend,Top*%
%TF.FilePolarity,Positive*%
%FSLAX46Y46*%
G04 Gerber Fmt 4.6, Leading zero omitted, Abs format (unit mm)*
G04 Created by KiCad (PCBNEW 8.0.2-1) date 2024-09-06 12:08:41*
%MOMM*%
%LPD*%
G01*
G04 APERTURE LIST*
%ADD10C,0.100000*%
%ADD11C,0.107950*%
%ADD12C,0.158750*%
%ADD13C,0.127000*%
%ADD14C,0.120000*%
%ADD15C,0.000000*%
G04 APERTURE END LIST*
D10*
X126873000Y-103276400D02*
X127127000Y-103276400D01*
X129159000Y-103403400D02*
G75*
G02*
X124841000Y-103403400I-2159000J0D01*
G01*
X124841000Y-103403400D02*
G75*
G02*
X129159000Y-103403400I2159000J0D01*
G01*
X131318000Y-107746800D02*
X122428000Y-107746800D01*
X127000000Y-103149400D02*
X127000000Y-103403400D01*
D11*
G36*
X121578527Y-108629450D02*
G01*
X121425914Y-107984258D01*
X121558055Y-107984258D01*
X121654368Y-108427517D01*
X121771309Y-107984258D01*
X121924852Y-107984258D01*
X122036986Y-108434961D01*
X122135160Y-107984258D01*
X122265129Y-107984258D01*
X122109880Y-108629450D01*
X121972932Y-108629450D01*
X121845444Y-108147107D01*
X121718577Y-108629450D01*
X121578527Y-108629450D01*
G37*
G36*
X122326546Y-108629450D02*
G01*
X122326546Y-107984258D01*
X122800669Y-107984258D01*
X122800669Y-108093444D01*
X122455740Y-108093444D01*
X122455740Y-108232408D01*
X122776785Y-108232408D01*
X122776785Y-108341595D01*
X122455740Y-108341595D01*
X122455740Y-108520263D01*
X122812922Y-108520263D01*
X122812922Y-108629450D01*
X122326546Y-108629450D01*
G37*
G36*
X122886281Y-108421003D02*
G01*
X123011908Y-108411077D01*
X123020117Y-108443048D01*
X123033554Y-108472528D01*
X123053583Y-108497609D01*
X123057816Y-108501342D01*
X123084559Y-108517766D01*
X123117020Y-108527372D01*
X123151493Y-108530189D01*
X123184134Y-108528140D01*
X123214705Y-108521058D01*
X123243472Y-108505882D01*
X123245480Y-108504288D01*
X123267108Y-108479827D01*
X123276841Y-108449929D01*
X123277119Y-108443492D01*
X123268978Y-108412666D01*
X123263781Y-108405493D01*
X123237792Y-108386670D01*
X123217408Y-108378197D01*
X123186386Y-108368706D01*
X123154749Y-108360034D01*
X123123815Y-108351898D01*
X123113960Y-108349349D01*
X123083046Y-108340781D01*
X123049938Y-108329760D01*
X123021182Y-108317932D01*
X122993132Y-108303112D01*
X122968326Y-108284830D01*
X122945362Y-108260368D01*
X122928038Y-108233664D01*
X122916355Y-108204719D01*
X122910311Y-108173533D01*
X122909390Y-108154706D01*
X122912653Y-108121550D01*
X122922439Y-108089897D01*
X122936997Y-108062425D01*
X122956726Y-108037492D01*
X122981211Y-108016587D01*
X123010452Y-107999712D01*
X123016871Y-107996820D01*
X123047964Y-107985949D01*
X123078445Y-107979273D01*
X123111601Y-107975408D01*
X123142807Y-107974332D01*
X123178964Y-107975653D01*
X123212212Y-107979617D01*
X123242552Y-107986225D01*
X123275122Y-107997642D01*
X123303504Y-108012866D01*
X123323957Y-108028459D01*
X123347856Y-108053870D01*
X123366217Y-108082738D01*
X123379043Y-108115065D01*
X123385630Y-108145527D01*
X123388011Y-108172852D01*
X123258818Y-108172852D01*
X123249970Y-108140915D01*
X123232867Y-108113192D01*
X123223301Y-108104456D01*
X123194192Y-108090143D01*
X123160924Y-108084254D01*
X123141411Y-108083518D01*
X123108684Y-108085729D01*
X123078142Y-108093270D01*
X123053318Y-108106162D01*
X123034465Y-108132247D01*
X123032845Y-108145245D01*
X123043663Y-108174936D01*
X123052077Y-108183243D01*
X123080176Y-108198780D01*
X123109838Y-108209597D01*
X123142964Y-108219365D01*
X123170724Y-108226515D01*
X123204357Y-108235155D01*
X123234533Y-108243861D01*
X123265370Y-108254101D01*
X123294850Y-108265912D01*
X123310154Y-108273353D01*
X123336438Y-108289993D01*
X123360907Y-108312249D01*
X123380722Y-108338648D01*
X123395291Y-108369408D01*
X123403288Y-108401348D01*
X123406212Y-108433331D01*
X123406312Y-108440855D01*
X123403329Y-108474682D01*
X123394377Y-108507146D01*
X123379459Y-108538246D01*
X123375759Y-108544303D01*
X123356573Y-108569472D01*
X123333387Y-108590715D01*
X123306202Y-108608032D01*
X123289371Y-108615956D01*
X123259739Y-108626202D01*
X123226674Y-108633521D01*
X123194928Y-108637523D01*
X123160555Y-108639284D01*
X123150252Y-108639376D01*
X123113725Y-108638016D01*
X123079947Y-108633938D01*
X123048919Y-108627141D01*
X123015313Y-108615397D01*
X122985666Y-108599737D01*
X122963984Y-108583697D01*
X122941452Y-108560965D01*
X122922595Y-108534646D01*
X122907414Y-108504739D01*
X122895907Y-108471244D01*
X122889125Y-108440591D01*
X122886281Y-108421003D01*
G37*
G36*
X123655394Y-108629450D02*
G01*
X123655394Y-108093444D01*
X123465713Y-108093444D01*
X123465713Y-107984258D01*
X123973802Y-107984258D01*
X123973802Y-108093444D01*
X123784587Y-108093444D01*
X123784587Y-108629450D01*
X123655394Y-108629450D01*
G37*
G36*
X124710344Y-108381299D02*
G01*
X124835505Y-108421003D01*
X124825559Y-108452728D01*
X124813750Y-108481796D01*
X124797120Y-108513168D01*
X124777807Y-108540712D01*
X124755811Y-108564429D01*
X124739657Y-108578113D01*
X124713320Y-108595560D01*
X124684441Y-108609396D01*
X124653022Y-108619623D01*
X124619062Y-108626241D01*
X124582561Y-108629249D01*
X124569829Y-108629450D01*
X124538704Y-108628102D01*
X124501787Y-108622628D01*
X124467082Y-108612944D01*
X124434588Y-108599049D01*
X124404305Y-108580944D01*
X124376233Y-108558628D01*
X124360452Y-108543217D01*
X124336861Y-108514725D01*
X124317268Y-108483142D01*
X124301674Y-108448470D01*
X124292077Y-108418508D01*
X124285040Y-108386568D01*
X124280561Y-108352651D01*
X124278642Y-108316757D01*
X124278562Y-108307474D01*
X124279849Y-108269030D01*
X124283709Y-108232796D01*
X124290143Y-108198772D01*
X124299151Y-108166959D01*
X124310732Y-108137355D01*
X124328828Y-108103458D01*
X124350944Y-108073015D01*
X124360917Y-108061805D01*
X124387966Y-108036605D01*
X124417545Y-108015676D01*
X124449653Y-107999019D01*
X124484290Y-107986632D01*
X124521456Y-107978517D01*
X124553011Y-107975100D01*
X124577739Y-107974332D01*
X124613349Y-107976126D01*
X124646801Y-107981511D01*
X124678095Y-107990485D01*
X124707230Y-108003048D01*
X124734208Y-108019201D01*
X124759026Y-108038944D01*
X124768350Y-108047846D01*
X124788783Y-108072002D01*
X124806503Y-108100888D01*
X124819781Y-108130044D01*
X124830981Y-108162822D01*
X124833799Y-108172852D01*
X124706002Y-108192704D01*
X124695304Y-108160454D01*
X124678779Y-108133226D01*
X124658698Y-108112831D01*
X124632128Y-108096142D01*
X124601892Y-108086380D01*
X124571225Y-108083518D01*
X124537376Y-108086678D01*
X124506861Y-108096158D01*
X124479681Y-108111958D01*
X124455835Y-108134079D01*
X124436497Y-108163285D01*
X124424108Y-108195281D01*
X124416856Y-108227491D01*
X124412712Y-108264117D01*
X124411633Y-108298013D01*
X124412697Y-108333886D01*
X124415889Y-108366382D01*
X124422528Y-108400918D01*
X124432232Y-108430591D01*
X124447426Y-108459062D01*
X124455214Y-108469237D01*
X124478643Y-108491561D01*
X124505349Y-108507507D01*
X124535330Y-108517074D01*
X124568588Y-108520263D01*
X124602284Y-108516305D01*
X124632571Y-108504429D01*
X124657147Y-108486763D01*
X124678270Y-108462069D01*
X124693783Y-108433421D01*
X124704793Y-108402848D01*
X124710344Y-108381299D01*
G37*
G36*
X125260199Y-107975710D02*
G01*
X125292907Y-107979847D01*
X125323846Y-107986742D01*
X125360032Y-107999238D01*
X125393454Y-108016043D01*
X125424111Y-108037157D01*
X125452005Y-108062580D01*
X125476445Y-108091794D01*
X125496743Y-108124379D01*
X125509999Y-108152872D01*
X125520603Y-108183523D01*
X125528557Y-108216330D01*
X125533859Y-108251294D01*
X125536510Y-108288415D01*
X125536841Y-108307784D01*
X125535526Y-108345654D01*
X125531578Y-108381405D01*
X125524999Y-108415039D01*
X125515787Y-108446555D01*
X125503945Y-108475952D01*
X125485440Y-108509721D01*
X125462823Y-108540180D01*
X125452625Y-108551437D01*
X125424926Y-108576771D01*
X125394462Y-108597811D01*
X125361234Y-108614557D01*
X125325242Y-108627009D01*
X125294458Y-108633879D01*
X125261905Y-108638001D01*
X125227584Y-108639376D01*
X125192826Y-108638009D01*
X125159895Y-108633908D01*
X125128791Y-108627075D01*
X125092481Y-108614688D01*
X125059026Y-108598031D01*
X125028426Y-108577102D01*
X125000681Y-108551902D01*
X124976419Y-108522909D01*
X124956270Y-108490698D01*
X124940233Y-108455268D01*
X124930364Y-108424606D01*
X124923126Y-108391885D01*
X124918521Y-108357104D01*
X124916547Y-108320263D01*
X124916465Y-108310731D01*
X124916590Y-108306388D01*
X125049535Y-108306388D01*
X125050758Y-108339501D01*
X125055455Y-108375808D01*
X125063674Y-108408374D01*
X125075415Y-108437199D01*
X125093565Y-108466102D01*
X125099631Y-108473425D01*
X125122907Y-108495543D01*
X125152670Y-108514169D01*
X125185807Y-108525699D01*
X125217569Y-108529967D01*
X125227118Y-108530189D01*
X125259581Y-108527495D01*
X125293428Y-108517819D01*
X125323805Y-108501105D01*
X125347537Y-108480707D01*
X125353830Y-108473890D01*
X125373108Y-108446497D01*
X125387651Y-108413716D01*
X125396348Y-108381330D01*
X125401566Y-108344986D01*
X125403257Y-108311674D01*
X125403305Y-108304682D01*
X125402128Y-108271220D01*
X125397606Y-108234725D01*
X125389692Y-108202220D01*
X125376174Y-108169343D01*
X125358039Y-108141898D01*
X125355071Y-108138421D01*
X125332462Y-108117028D01*
X125302933Y-108099013D01*
X125269469Y-108087861D01*
X125236960Y-108083732D01*
X125227118Y-108083518D01*
X125193658Y-108086175D01*
X125163166Y-108094145D01*
X125131953Y-108109762D01*
X125104618Y-108132318D01*
X125098390Y-108139042D01*
X125079354Y-108166027D01*
X125064993Y-108198401D01*
X125056406Y-108230438D01*
X125051253Y-108266434D01*
X125049583Y-108299454D01*
X125049535Y-108306388D01*
X124916590Y-108306388D01*
X124917490Y-108275022D01*
X124920565Y-108241527D01*
X124925690Y-108210246D01*
X124934261Y-108176549D01*
X124945622Y-108145866D01*
X124960835Y-108116137D01*
X124979137Y-108088408D01*
X125000529Y-108062678D01*
X125005179Y-108057772D01*
X125029512Y-108035314D01*
X125055209Y-108016793D01*
X125085049Y-108000969D01*
X125087844Y-107999767D01*
X125118911Y-107988639D01*
X125152247Y-107980690D01*
X125183276Y-107976344D01*
X125216042Y-107974431D01*
X125225722Y-107974332D01*
X125260199Y-107975710D01*
G37*
G36*
X126210416Y-108629450D02*
G01*
X126070055Y-108629450D01*
X126014221Y-108480559D01*
X125758471Y-108480559D01*
X125705739Y-108629450D01*
X125568791Y-108629450D01*
X125668423Y-108371373D01*
X125798175Y-108371373D01*
X125972656Y-108371373D01*
X125884563Y-108143074D01*
X125798175Y-108371373D01*
X125668423Y-108371373D01*
X125817872Y-107984258D01*
X125954355Y-107984258D01*
X126210416Y-108629450D01*
G37*
G36*
X126242520Y-108421003D02*
G01*
X126368146Y-108411077D01*
X126376355Y-108443048D01*
X126389793Y-108472528D01*
X126409822Y-108497609D01*
X126414054Y-108501342D01*
X126440798Y-108517766D01*
X126473259Y-108527372D01*
X126507731Y-108530189D01*
X126540373Y-108528140D01*
X126570943Y-108521058D01*
X126599711Y-108505882D01*
X126601718Y-108504288D01*
X126623347Y-108479827D01*
X126633079Y-108449929D01*
X126633358Y-108443492D01*
X126625217Y-108412666D01*
X126620019Y-108405493D01*
X126594030Y-108386670D01*
X126573646Y-108378197D01*
X126542624Y-108368706D01*
X126510987Y-108360034D01*
X126480054Y-108351898D01*
X126470198Y-108349349D01*
X126439285Y-108340781D01*
X126406177Y-108329760D01*
X126377420Y-108317932D01*
X126349370Y-108303112D01*
X126324565Y-108284830D01*
X126301601Y-108260368D01*
X126284277Y-108233664D01*
X126272593Y-108204719D01*
X126266550Y-108173533D01*
X126265629Y-108154706D01*
X126268891Y-108121550D01*
X126278678Y-108089897D01*
X126293236Y-108062425D01*
X126312965Y-108037492D01*
X126337450Y-108016587D01*
X126366691Y-107999712D01*
X126373109Y-107996820D01*
X126404202Y-107985949D01*
X126434683Y-107979273D01*
X126467840Y-107975408D01*
X126499046Y-107974332D01*
X126535202Y-107975653D01*
X126568451Y-107979617D01*
X126598791Y-107986225D01*
X126631361Y-107997642D01*
X126659743Y-108012866D01*
X126680196Y-108028459D01*
X126704094Y-108053870D01*
X126722456Y-108082738D01*
X126735282Y-108115065D01*
X126741868Y-108145527D01*
X126744250Y-108172852D01*
X126615056Y-108172852D01*
X126606209Y-108140915D01*
X126589105Y-108113192D01*
X126579540Y-108104456D01*
X126550431Y-108090143D01*
X126517163Y-108084254D01*
X126497650Y-108083518D01*
X126464923Y-108085729D01*
X126434381Y-108093270D01*
X126409557Y-108106162D01*
X126390704Y-108132247D01*
X126389084Y-108145245D01*
X126399902Y-108174936D01*
X126408316Y-108183243D01*
X126436415Y-108198780D01*
X126466076Y-108209597D01*
X126499203Y-108219365D01*
X126526963Y-108226515D01*
X126560596Y-108235155D01*
X126590772Y-108243861D01*
X126621608Y-108254101D01*
X126651088Y-108265912D01*
X126666393Y-108273353D01*
X126692677Y-108289993D01*
X126717146Y-108312249D01*
X126736960Y-108338648D01*
X126751530Y-108369408D01*
X126759527Y-108401348D01*
X126762451Y-108433331D01*
X126762551Y-108440855D01*
X126759567Y-108474682D01*
X126750616Y-108507146D01*
X126735697Y-108538246D01*
X126731997Y-108544303D01*
X126712811Y-108569472D01*
X126689626Y-108590715D01*
X126662441Y-108608032D01*
X126645610Y-108615956D01*
X126615977Y-108626202D01*
X126582913Y-108633521D01*
X126551167Y-108637523D01*
X126516794Y-108639284D01*
X126506490Y-108639376D01*
X126469964Y-108638016D01*
X126436186Y-108633938D01*
X126405157Y-108627141D01*
X126371552Y-108615397D01*
X126341904Y-108599737D01*
X126320222Y-108583697D01*
X126297691Y-108560965D01*
X126278834Y-108534646D01*
X126263652Y-108504739D01*
X126252146Y-108471244D01*
X126245364Y-108440591D01*
X126242520Y-108421003D01*
G37*
G36*
X127011632Y-108629450D02*
G01*
X127011632Y-108093444D01*
X126821952Y-108093444D01*
X126821952Y-107984258D01*
X127330041Y-107984258D01*
X127330041Y-108093444D01*
X127140826Y-108093444D01*
X127140826Y-108629450D01*
X127011632Y-108629450D01*
G37*
G36*
X127899478Y-107984492D02*
G01*
X127935974Y-107985394D01*
X127971247Y-107987300D01*
X128005039Y-107991103D01*
X128018194Y-107993873D01*
X128047741Y-108004574D01*
X128074442Y-108020624D01*
X128098297Y-108042022D01*
X128110320Y-108056221D01*
X128128238Y-108085486D01*
X128139242Y-108115228D01*
X128145613Y-108148479D01*
X128147387Y-108180452D01*
X128145694Y-108211956D01*
X128139842Y-108243508D01*
X128128576Y-108274017D01*
X128125984Y-108279092D01*
X128108318Y-108306681D01*
X128085537Y-108331107D01*
X128071701Y-108341905D01*
X128044781Y-108357895D01*
X128015333Y-108369447D01*
X128004700Y-108372148D01*
X127971770Y-108376974D01*
X127939603Y-108379547D01*
X127907210Y-108380861D01*
X127870854Y-108381299D01*
X127786638Y-108381299D01*
X127786638Y-108629450D01*
X127657445Y-108629450D01*
X127657445Y-108272112D01*
X127786638Y-108272112D01*
X127857361Y-108272112D01*
X127892354Y-108271502D01*
X127924167Y-108269355D01*
X127955997Y-108263525D01*
X127959413Y-108262342D01*
X127987233Y-108245572D01*
X127999737Y-108231323D01*
X128012266Y-108202291D01*
X128014316Y-108182313D01*
X128009198Y-108151023D01*
X127993844Y-108125704D01*
X127968984Y-108106701D01*
X127941887Y-108097787D01*
X127909965Y-108094670D01*
X127877286Y-108093652D01*
X127848986Y-108093444D01*
X127786638Y-108093444D01*
X127786638Y-108272112D01*
X127657445Y-108272112D01*
X127657445Y-107984258D01*
X127864650Y-107984258D01*
X127899478Y-107984492D01*
G37*
G36*
X128558565Y-107984868D02*
G01*
X128591087Y-107986700D01*
X128624041Y-107990381D01*
X128655123Y-107996624D01*
X128670985Y-108001628D01*
X128700774Y-108016778D01*
X128726165Y-108038341D01*
X128745430Y-108063511D01*
X128760152Y-108092588D01*
X128769422Y-108124179D01*
X128773238Y-108158285D01*
X128773347Y-108165408D01*
X128770701Y-108200188D01*
X128762762Y-108231788D01*
X128749531Y-108260209D01*
X128731007Y-108285451D01*
X128707287Y-108306921D01*
X128678313Y-108324030D01*
X128648652Y-108335422D01*
X128614968Y-108343475D01*
X128604605Y-108345162D01*
X128631653Y-108362684D01*
X128657189Y-108383094D01*
X128673622Y-108399290D01*
X128694624Y-108424867D01*
X128712707Y-108450283D01*
X128730470Y-108477229D01*
X128747136Y-108503823D01*
X128825304Y-108629450D01*
X128670830Y-108629450D01*
X128577463Y-108487538D01*
X128559901Y-108461884D01*
X128539928Y-108433633D01*
X128520495Y-108407888D01*
X128509377Y-108394947D01*
X128484422Y-108374915D01*
X128470603Y-108368581D01*
X128439966Y-108362812D01*
X128408378Y-108361454D01*
X128405619Y-108361447D01*
X128379408Y-108361447D01*
X128379408Y-108629450D01*
X128250370Y-108629450D01*
X128250370Y-108252260D01*
X128379408Y-108252260D01*
X128474946Y-108252260D01*
X128507331Y-108251993D01*
X128538910Y-108251006D01*
X128572437Y-108248334D01*
X128590957Y-108244661D01*
X128617967Y-108228793D01*
X128627094Y-108218140D01*
X128638989Y-108187864D01*
X128640277Y-108171146D01*
X128634829Y-108139429D01*
X128623061Y-108120120D01*
X128597587Y-108102129D01*
X128574362Y-108095615D01*
X128542994Y-108093987D01*
X128511548Y-108093548D01*
X128480219Y-108093444D01*
X128379408Y-108093444D01*
X128379408Y-108252260D01*
X128250370Y-108252260D01*
X128250370Y-107984258D01*
X128522095Y-107984258D01*
X128558565Y-107984868D01*
G37*
G36*
X129208898Y-107975710D02*
G01*
X129241606Y-107979847D01*
X129272545Y-107986742D01*
X129308731Y-107999238D01*
X129342152Y-108016043D01*
X129372810Y-108037157D01*
X129400703Y-108062580D01*
X129425144Y-108091794D01*
X129445441Y-108124379D01*
X129458697Y-108152872D01*
X129469302Y-108183523D01*
X129477255Y-108216330D01*
X129482557Y-108251294D01*
X129485209Y-108288415D01*
X129485540Y-108307784D01*
X129484224Y-108345654D01*
X129480276Y-108381405D01*
X129473697Y-108415039D01*
X129464486Y-108446555D01*
X129452643Y-108475952D01*
X129434139Y-108509721D01*
X129411522Y-108540180D01*
X129401324Y-108551437D01*
X129373624Y-108576771D01*
X129343160Y-108597811D01*
X129309933Y-108614557D01*
X129273941Y-108627009D01*
X129243157Y-108633879D01*
X129210604Y-108638001D01*
X129176282Y-108639376D01*
X129141524Y-108638009D01*
X129108593Y-108633908D01*
X129077490Y-108627075D01*
X129041179Y-108614688D01*
X129007724Y-108598031D01*
X128977124Y-108577102D01*
X128949379Y-108551902D01*
X128925118Y-108522909D01*
X128904968Y-108490698D01*
X128888931Y-108455268D01*
X128879062Y-108424606D01*
X128871825Y-108391885D01*
X128867219Y-108357104D01*
X128865245Y-108320263D01*
X128865163Y-108310731D01*
X128865288Y-108306388D01*
X128998234Y-108306388D01*
X128999457Y-108339501D01*
X129004153Y-108375808D01*
X129012372Y-108408374D01*
X129024113Y-108437199D01*
X129042263Y-108466102D01*
X129048329Y-108473425D01*
X129071605Y-108495543D01*
X129101369Y-108514169D01*
X129134506Y-108525699D01*
X129166268Y-108529967D01*
X129175817Y-108530189D01*
X129208280Y-108527495D01*
X129242126Y-108517819D01*
X129272503Y-108501105D01*
X129296236Y-108480707D01*
X129302529Y-108473890D01*
X129321807Y-108446497D01*
X129336350Y-108413716D01*
X129345046Y-108381330D01*
X129350265Y-108344986D01*
X129351956Y-108311674D01*
X129352004Y-108304682D01*
X129350826Y-108271220D01*
X129346304Y-108234725D01*
X129338391Y-108202220D01*
X129324872Y-108169343D01*
X129306737Y-108141898D01*
X129303770Y-108138421D01*
X129281161Y-108117028D01*
X129251632Y-108099013D01*
X129218168Y-108087861D01*
X129185659Y-108083732D01*
X129175817Y-108083518D01*
X129142356Y-108086175D01*
X129111865Y-108094145D01*
X129080652Y-108109762D01*
X129053317Y-108132318D01*
X129047089Y-108139042D01*
X129028053Y-108166027D01*
X129013692Y-108198401D01*
X129005104Y-108230438D01*
X128999952Y-108266434D01*
X128998282Y-108299454D01*
X128998234Y-108306388D01*
X128865288Y-108306388D01*
X128866188Y-108275022D01*
X128869263Y-108241527D01*
X128874389Y-108210246D01*
X128882960Y-108176549D01*
X128894321Y-108145866D01*
X128909533Y-108116137D01*
X128927836Y-108088408D01*
X128949228Y-108062678D01*
X128953877Y-108057772D01*
X128978210Y-108035314D01*
X129003907Y-108016793D01*
X129033748Y-108000969D01*
X129036542Y-107999767D01*
X129067610Y-107988639D01*
X129100945Y-107980690D01*
X129131974Y-107976344D01*
X129164740Y-107974431D01*
X129174421Y-107974332D01*
X129208898Y-107975710D01*
G37*
G36*
X129851188Y-107984844D02*
G01*
X129884594Y-107986950D01*
X129916498Y-107991150D01*
X129939811Y-107996510D01*
X129970128Y-108007993D01*
X129997919Y-108023598D01*
X130023181Y-108043325D01*
X130036124Y-108056066D01*
X130057198Y-108081579D01*
X130075230Y-108110134D01*
X130090219Y-108141731D01*
X130097232Y-108160600D01*
X130106392Y-108193276D01*
X130112260Y-108224842D01*
X130116125Y-108259183D01*
X130117842Y-108290828D01*
X130118169Y-108313057D01*
X130117227Y-108346820D01*
X130114399Y-108378490D01*
X130108859Y-108412121D01*
X130100857Y-108443018D01*
X130098472Y-108450316D01*
X130087036Y-108479837D01*
X130071548Y-108510432D01*
X130053482Y-108537673D01*
X130032838Y-108561560D01*
X130030076Y-108564310D01*
X130004170Y-108585299D01*
X129975817Y-108601390D01*
X129946388Y-108613437D01*
X129939346Y-108615801D01*
X129906526Y-108623572D01*
X129874630Y-108627530D01*
X129842468Y-108629236D01*
X129825041Y-108629450D01*
X129582009Y-108629450D01*
X129582009Y-108520263D01*
X129711202Y-108520263D01*
X129807516Y-108520263D01*
X129841173Y-108519530D01*
X129873726Y-108516477D01*
X129885683Y-108514059D01*
X129915950Y-108502591D01*
X129937640Y-108487383D01*
X129956484Y-108462374D01*
X129968939Y-108433090D01*
X129971450Y-108425190D01*
X129978956Y-108391633D01*
X129982779Y-108358670D01*
X129984427Y-108325208D01*
X129984633Y-108307009D01*
X129983809Y-108271870D01*
X129980913Y-108237507D01*
X129975248Y-108205743D01*
X129971450Y-108192394D01*
X129959124Y-108162800D01*
X129940577Y-108135906D01*
X129934848Y-108130046D01*
X129908210Y-108111202D01*
X129877392Y-108100156D01*
X129875137Y-108099648D01*
X129841579Y-108095407D01*
X129809503Y-108093935D01*
X129774090Y-108093450D01*
X129769207Y-108093444D01*
X129711202Y-108093444D01*
X129711202Y-108520263D01*
X129582009Y-108520263D01*
X129582009Y-107984258D01*
X129818062Y-107984258D01*
X129851188Y-107984844D01*
G37*
G36*
X130223013Y-107984258D02*
G01*
X130352206Y-107984258D01*
X130352206Y-108334460D01*
X130352436Y-108368092D01*
X130353263Y-108399659D01*
X130355380Y-108431097D01*
X130357014Y-108442406D01*
X130367481Y-108472080D01*
X130387227Y-108498255D01*
X130396408Y-108506150D01*
X130425600Y-108521714D01*
X130456139Y-108528687D01*
X130481710Y-108530189D01*
X130513471Y-108527978D01*
X130544587Y-108519486D01*
X130564685Y-108507545D01*
X130585950Y-108483922D01*
X130597815Y-108453766D01*
X130598186Y-108451712D01*
X130601683Y-108420785D01*
X130603246Y-108389517D01*
X130603874Y-108355915D01*
X130603924Y-108341905D01*
X130603924Y-107984258D01*
X130732963Y-107984258D01*
X130732963Y-108322518D01*
X130732705Y-108357109D01*
X130731933Y-108388376D01*
X130730326Y-108421507D01*
X130727514Y-108454110D01*
X130722416Y-108486453D01*
X130713165Y-108517641D01*
X130698265Y-108547652D01*
X130683798Y-108567412D01*
X130660061Y-108590196D01*
X130633589Y-108607786D01*
X130608577Y-108619834D01*
X130576374Y-108630139D01*
X130542548Y-108636150D01*
X130508628Y-108638898D01*
X130485587Y-108639376D01*
X130452821Y-108638629D01*
X130418509Y-108635869D01*
X130384456Y-108630225D01*
X130352727Y-108620701D01*
X130346623Y-108618128D01*
X130318997Y-108603524D01*
X130293086Y-108584626D01*
X130271868Y-108562759D01*
X130253918Y-108536710D01*
X130240428Y-108507457D01*
X130235731Y-108491261D01*
X130230167Y-108460280D01*
X130226602Y-108427766D01*
X130224516Y-108395879D01*
X130223323Y-108360285D01*
X130223013Y-108327791D01*
X130223013Y-107984258D01*
G37*
G36*
X131274552Y-108381299D02*
G01*
X131399713Y-108421003D01*
X131389766Y-108452728D01*
X131377957Y-108481796D01*
X131361327Y-108513168D01*
X131342014Y-108540712D01*
X131320019Y-108564429D01*
X131303864Y-108578113D01*
X131277527Y-108595560D01*
X131248649Y-108609396D01*
X131217229Y-108619623D01*
X131183269Y-108626241D01*
X131146768Y-108629249D01*
X131134036Y-108629450D01*
X131102911Y-108628102D01*
X131065994Y-108622628D01*
X131031289Y-108612944D01*
X130998795Y-108599049D01*
X130968512Y-108580944D01*
X130940441Y-108558628D01*
X130924659Y-108543217D01*
X130901068Y-108514725D01*
X130881475Y-108483142D01*
X130865881Y-108448470D01*
X130856284Y-108418508D01*
X130849247Y-108386568D01*
X130844769Y-108352651D01*
X130842849Y-108316757D01*
X130842769Y-108307474D01*
X130844056Y-108269030D01*
X130847917Y-108232796D01*
X130854351Y-108198772D01*
X130863358Y-108166959D01*
X130874939Y-108137355D01*
X130893035Y-108103458D01*
X130915152Y-108073015D01*
X130925124Y-108061805D01*
X130952174Y-108036605D01*
X130981752Y-108015676D01*
X131013860Y-107999019D01*
X131048497Y-107986632D01*
X131085664Y-107978517D01*
X131117218Y-107975100D01*
X131141946Y-107974332D01*
X131177556Y-107976126D01*
X131211008Y-107981511D01*
X131242302Y-107990485D01*
X131271438Y-108003048D01*
X131298415Y-108019201D01*
X131323234Y-108038944D01*
X131332557Y-108047846D01*
X131352991Y-108072002D01*
X131370710Y-108100888D01*
X131383988Y-108130044D01*
X131395188Y-108162822D01*
X131398007Y-108172852D01*
X131270209Y-108192704D01*
X131259511Y-108160454D01*
X131242986Y-108133226D01*
X131222905Y-108112831D01*
X131196335Y-108096142D01*
X131166100Y-108086380D01*
X131135432Y-108083518D01*
X131101583Y-108086678D01*
X131071068Y-108096158D01*
X131043888Y-108111958D01*
X131020042Y-108134079D01*
X131000704Y-108163285D01*
X130988315Y-108195281D01*
X130981063Y-108227491D01*
X130976919Y-108264117D01*
X130975840Y-108298013D01*
X130976904Y-108333886D01*
X130980096Y-108366382D01*
X130986736Y-108400918D01*
X130996439Y-108430591D01*
X131011633Y-108459062D01*
X131019422Y-108469237D01*
X131042851Y-108491561D01*
X131069556Y-108507507D01*
X131099538Y-108517074D01*
X131132796Y-108520263D01*
X131166491Y-108516305D01*
X131196779Y-108504429D01*
X131221354Y-108486763D01*
X131242477Y-108462069D01*
X131257991Y-108433421D01*
X131269000Y-108402848D01*
X131274552Y-108381299D01*
G37*
G36*
X131650810Y-108629450D02*
G01*
X131650810Y-108093444D01*
X131461130Y-108093444D01*
X131461130Y-107984258D01*
X131969219Y-107984258D01*
X131969219Y-108093444D01*
X131780004Y-108093444D01*
X131780004Y-108629450D01*
X131650810Y-108629450D01*
G37*
G36*
X132016988Y-108421003D02*
G01*
X132142614Y-108411077D01*
X132150823Y-108443048D01*
X132164260Y-108472528D01*
X132184289Y-108497609D01*
X132188522Y-108501342D01*
X132215265Y-108517766D01*
X132247727Y-108527372D01*
X132282199Y-108530189D01*
X132314840Y-108528140D01*
X132345411Y-108521058D01*
X132374178Y-108505882D01*
X132376186Y-108504288D01*
X132397814Y-108479827D01*
X132407547Y-108449929D01*
X132407825Y-108443492D01*
X132399684Y-108412666D01*
X132394487Y-108405493D01*
X132368498Y-108386670D01*
X132348114Y-108378197D01*
X132317092Y-108368706D01*
X132285455Y-108360034D01*
X132254521Y-108351898D01*
X132244666Y-108349349D01*
X132213752Y-108340781D01*
X132180645Y-108329760D01*
X132151888Y-108317932D01*
X132123838Y-108303112D01*
X132099032Y-108284830D01*
X132076068Y-108260368D01*
X132058744Y-108233664D01*
X132047061Y-108204719D01*
X132041018Y-108173533D01*
X132040097Y-108154706D01*
X132043359Y-108121550D01*
X132053145Y-108089897D01*
X132067703Y-108062425D01*
X132087433Y-108037492D01*
X132111917Y-108016587D01*
X132141158Y-107999712D01*
X132147577Y-107996820D01*
X132178670Y-107985949D01*
X132209151Y-107979273D01*
X132242307Y-107975408D01*
X132273513Y-107974332D01*
X132309670Y-107975653D01*
X132342918Y-107979617D01*
X132373258Y-107986225D01*
X132405828Y-107997642D01*
X132434210Y-108012866D01*
X132454664Y-108028459D01*
X132478562Y-108053870D01*
X132496924Y-108082738D01*
X132509749Y-108115065D01*
X132516336Y-108145527D01*
X132518717Y-108172852D01*
X132389524Y-108172852D01*
X132380676Y-108140915D01*
X132363573Y-108113192D01*
X132354007Y-108104456D01*
X132324898Y-108090143D01*
X132291630Y-108084254D01*
X132272118Y-108083518D01*
X132239390Y-108085729D01*
X132208848Y-108093270D01*
X132184024Y-108106162D01*
X132165171Y-108132247D01*
X132163552Y-108145245D01*
X132174370Y-108174936D01*
X132182783Y-108183243D01*
X132210882Y-108198780D01*
X132240544Y-108209597D01*
X132273670Y-108219365D01*
X132301430Y-108226515D01*
X132335063Y-108235155D01*
X132365240Y-108243861D01*
X132396076Y-108254101D01*
X132425556Y-108265912D01*
X132440860Y-108273353D01*
X132467144Y-108289993D01*
X132491614Y-108312249D01*
X132511428Y-108338648D01*
X132525998Y-108369408D01*
X132533995Y-108401348D01*
X132536919Y-108433331D01*
X132537019Y-108440855D01*
X132534035Y-108474682D01*
X132525084Y-108507146D01*
X132510165Y-108538246D01*
X132506465Y-108544303D01*
X132487279Y-108569472D01*
X132464093Y-108590715D01*
X132436908Y-108608032D01*
X132420078Y-108615956D01*
X132390445Y-108626202D01*
X132357381Y-108633521D01*
X132325635Y-108637523D01*
X132291261Y-108639284D01*
X132280958Y-108639376D01*
X132244431Y-108638016D01*
X132210654Y-108633938D01*
X132179625Y-108627141D01*
X132146019Y-108615397D01*
X132116372Y-108599737D01*
X132094690Y-108583697D01*
X132072158Y-108560965D01*
X132053302Y-108534646D01*
X132038120Y-108504739D01*
X132026613Y-108471244D01*
X132019832Y-108440591D01*
X132016988Y-108421003D01*
G37*
G36*
X122359891Y-107278003D02*
G01*
X122485517Y-107268077D01*
X122493726Y-107300048D01*
X122507164Y-107329528D01*
X122527193Y-107354609D01*
X122531425Y-107358342D01*
X122558169Y-107374766D01*
X122590630Y-107384372D01*
X122625102Y-107387189D01*
X122657744Y-107385140D01*
X122688314Y-107378058D01*
X122717082Y-107362882D01*
X122719089Y-107361288D01*
X122740718Y-107336827D01*
X122750450Y-107306929D01*
X122750728Y-107300492D01*
X122742588Y-107269666D01*
X122737390Y-107262493D01*
X122711401Y-107243670D01*
X122691017Y-107235197D01*
X122659995Y-107225706D01*
X122628358Y-107217034D01*
X122597425Y-107208898D01*
X122587569Y-107206349D01*
X122556656Y-107197781D01*
X122523548Y-107186760D01*
X122494791Y-107174932D01*
X122466741Y-107160112D01*
X122441936Y-107141830D01*
X122418972Y-107117368D01*
X122401648Y-107090664D01*
X122389964Y-107061719D01*
X122383921Y-107030533D01*
X122383000Y-107011706D01*
X122386262Y-106978550D01*
X122396049Y-106946897D01*
X122410607Y-106919425D01*
X122430336Y-106894492D01*
X122454821Y-106873587D01*
X122484062Y-106856712D01*
X122490480Y-106853820D01*
X122521573Y-106842949D01*
X122552054Y-106836273D01*
X122585211Y-106832408D01*
X122616417Y-106831332D01*
X122652573Y-106832653D01*
X122685822Y-106836617D01*
X122716162Y-106843225D01*
X122748732Y-106854642D01*
X122777114Y-106869866D01*
X122797567Y-106885459D01*
X122821465Y-106910870D01*
X122839827Y-106939738D01*
X122852653Y-106972065D01*
X122859239Y-107002527D01*
X122861621Y-107029852D01*
X122732427Y-107029852D01*
X122723580Y-106997915D01*
X122706476Y-106970192D01*
X122696911Y-106961456D01*
X122667802Y-106947143D01*
X122634534Y-106941254D01*
X122615021Y-106940518D01*
X122582294Y-106942729D01*
X122551752Y-106950270D01*
X122526928Y-106963162D01*
X122508075Y-106989247D01*
X122506455Y-107002245D01*
X122517273Y-107031936D01*
X122525687Y-107040243D01*
X122553786Y-107055780D01*
X122583447Y-107066597D01*
X122616574Y-107076365D01*
X122644334Y-107083515D01*
X122677967Y-107092155D01*
X122708143Y-107100861D01*
X122738979Y-107111101D01*
X122768459Y-107122912D01*
X122783764Y-107130353D01*
X122810048Y-107146993D01*
X122834517Y-107169249D01*
X122854331Y-107195648D01*
X122868901Y-107226408D01*
X122876898Y-107258348D01*
X122879822Y-107290331D01*
X122879922Y-107297855D01*
X122876938Y-107331682D01*
X122867987Y-107364146D01*
X122853068Y-107395246D01*
X122849368Y-107401303D01*
X122830182Y-107426472D01*
X122806997Y-107447715D01*
X122779812Y-107465032D01*
X122762981Y-107472956D01*
X122733348Y-107483202D01*
X122700284Y-107490521D01*
X122668538Y-107494523D01*
X122634165Y-107496284D01*
X122623861Y-107496376D01*
X122587335Y-107495016D01*
X122553557Y-107490938D01*
X122522528Y-107484141D01*
X122488923Y-107472397D01*
X122459275Y-107456737D01*
X122437593Y-107440697D01*
X122415062Y-107417965D01*
X122396205Y-107391646D01*
X122381023Y-107361739D01*
X122369517Y-107328244D01*
X122362735Y-107297591D01*
X122359891Y-107278003D01*
G37*
G36*
X123227110Y-106841492D02*
G01*
X123263605Y-106842394D01*
X123298879Y-106844300D01*
X123332671Y-106848103D01*
X123345825Y-106850873D01*
X123375372Y-106861574D01*
X123402073Y-106877624D01*
X123425928Y-106899022D01*
X123437951Y-106913221D01*
X123455869Y-106942486D01*
X123466874Y-106972228D01*
X123473245Y-107005479D01*
X123475018Y-107037452D01*
X123473325Y-107068956D01*
X123467473Y-107100508D01*
X123456207Y-107131017D01*
X123453615Y-107136092D01*
X123435949Y-107163681D01*
X123413168Y-107188107D01*
X123399332Y-107198905D01*
X123372413Y-107214895D01*
X123342964Y-107226447D01*
X123332332Y-107229148D01*
X123299402Y-107233974D01*
X123267234Y-107236547D01*
X123234841Y-107237861D01*
X123198485Y-107238299D01*
X123114269Y-107238299D01*
X123114269Y-107486450D01*
X122985076Y-107486450D01*
X122985076Y-107129112D01*
X123114269Y-107129112D01*
X123184992Y-107129112D01*
X123219985Y-107128502D01*
X123251798Y-107126355D01*
X123283629Y-107120525D01*
X123287044Y-107119342D01*
X123314864Y-107102572D01*
X123327369Y-107088323D01*
X123339897Y-107059291D01*
X123341948Y-107039313D01*
X123336830Y-107008023D01*
X123321475Y-106982704D01*
X123296615Y-106963701D01*
X123269519Y-106954787D01*
X123237596Y-106951670D01*
X123204917Y-106950652D01*
X123176617Y-106950444D01*
X123114269Y-106950444D01*
X123114269Y-107129112D01*
X122985076Y-107129112D01*
X122985076Y-106841258D01*
X123192282Y-106841258D01*
X123227110Y-106841492D01*
G37*
G36*
X124088416Y-107486450D02*
G01*
X123948056Y-107486450D01*
X123892222Y-107337559D01*
X123636472Y-107337559D01*
X123583739Y-107486450D01*
X123446791Y-107486450D01*
X123546424Y-107228373D01*
X123676176Y-107228373D01*
X123850657Y-107228373D01*
X123762563Y-107000074D01*
X123676176Y-107228373D01*
X123546424Y-107228373D01*
X123695873Y-106841258D01*
X123832356Y-106841258D01*
X124088416Y-107486450D01*
G37*
G36*
X124461906Y-106841868D02*
G01*
X124494428Y-106843700D01*
X124527382Y-106847381D01*
X124558464Y-106853624D01*
X124574326Y-106858628D01*
X124604115Y-106873778D01*
X124629506Y-106895341D01*
X124648771Y-106920511D01*
X124663493Y-106949588D01*
X124672763Y-106981179D01*
X124676579Y-107015285D01*
X124676688Y-107022408D01*
X124674042Y-107057188D01*
X124666103Y-107088788D01*
X124652872Y-107117209D01*
X124634348Y-107142451D01*
X124610628Y-107163921D01*
X124581654Y-107181030D01*
X124551993Y-107192422D01*
X124518309Y-107200475D01*
X124507946Y-107202162D01*
X124534994Y-107219684D01*
X124560530Y-107240094D01*
X124576963Y-107256290D01*
X124597965Y-107281867D01*
X124616048Y-107307283D01*
X124633811Y-107334229D01*
X124650477Y-107360823D01*
X124728645Y-107486450D01*
X124574171Y-107486450D01*
X124480804Y-107344538D01*
X124463242Y-107318884D01*
X124443269Y-107290633D01*
X124423836Y-107264888D01*
X124412718Y-107251947D01*
X124387763Y-107231915D01*
X124373944Y-107225581D01*
X124343307Y-107219812D01*
X124311719Y-107218454D01*
X124308960Y-107218447D01*
X124282749Y-107218447D01*
X124282749Y-107486450D01*
X124153711Y-107486450D01*
X124153711Y-107109260D01*
X124282749Y-107109260D01*
X124378287Y-107109260D01*
X124410672Y-107108993D01*
X124442251Y-107108006D01*
X124475778Y-107105334D01*
X124494298Y-107101661D01*
X124521308Y-107085793D01*
X124530435Y-107075140D01*
X124542330Y-107044864D01*
X124543618Y-107028146D01*
X124538170Y-106996429D01*
X124526402Y-106977120D01*
X124500928Y-106959129D01*
X124477703Y-106952615D01*
X124446335Y-106950987D01*
X124414889Y-106950548D01*
X124383560Y-106950444D01*
X124282749Y-106950444D01*
X124282749Y-107109260D01*
X124153711Y-107109260D01*
X124153711Y-106841258D01*
X124425436Y-106841258D01*
X124461906Y-106841868D01*
G37*
G36*
X124938642Y-107486450D02*
G01*
X124938642Y-106950444D01*
X124748962Y-106950444D01*
X124748962Y-106841258D01*
X125257051Y-106841258D01*
X125257051Y-106950444D01*
X125067836Y-106950444D01*
X125067836Y-107486450D01*
X124938642Y-107486450D01*
G37*
G36*
X125848425Y-107486450D02*
G01*
X125708065Y-107486450D01*
X125652231Y-107337559D01*
X125396481Y-107337559D01*
X125343749Y-107486450D01*
X125206800Y-107486450D01*
X125306433Y-107228373D01*
X125436185Y-107228373D01*
X125610666Y-107228373D01*
X125522572Y-107000074D01*
X125436185Y-107228373D01*
X125306433Y-107228373D01*
X125455882Y-106841258D01*
X125592365Y-106841258D01*
X125848425Y-107486450D01*
G37*
G36*
X125914650Y-107486450D02*
G01*
X125914650Y-106841258D01*
X126040277Y-106841258D01*
X126301921Y-107277227D01*
X126301921Y-106841258D01*
X126421808Y-106841258D01*
X126421808Y-107486450D01*
X126292305Y-107486450D01*
X126034538Y-107056994D01*
X126034538Y-107486450D01*
X125914650Y-107486450D01*
G37*
G36*
X127110295Y-106841868D02*
G01*
X127142817Y-106843700D01*
X127175771Y-106847381D01*
X127206853Y-106853624D01*
X127222715Y-106858628D01*
X127252504Y-106873778D01*
X127277895Y-106895341D01*
X127297160Y-106920511D01*
X127311882Y-106949588D01*
X127321151Y-106981179D01*
X127324968Y-107015285D01*
X127325077Y-107022408D01*
X127322431Y-107057188D01*
X127314492Y-107088788D01*
X127301260Y-107117209D01*
X127282736Y-107142451D01*
X127259017Y-107163921D01*
X127230043Y-107181030D01*
X127200381Y-107192422D01*
X127166697Y-107200475D01*
X127156335Y-107202162D01*
X127183383Y-107219684D01*
X127208919Y-107240094D01*
X127225351Y-107256290D01*
X127246354Y-107281867D01*
X127264437Y-107307283D01*
X127282200Y-107334229D01*
X127298866Y-107360823D01*
X127377034Y-107486450D01*
X127222560Y-107486450D01*
X127129193Y-107344538D01*
X127111630Y-107318884D01*
X127091657Y-107290633D01*
X127072225Y-107264888D01*
X127061107Y-107251947D01*
X127036151Y-107231915D01*
X127022333Y-107225581D01*
X126991695Y-107219812D01*
X126960107Y-107218454D01*
X126957349Y-107218447D01*
X126931138Y-107218447D01*
X126931138Y-107486450D01*
X126802099Y-107486450D01*
X126802099Y-107109260D01*
X126931138Y-107109260D01*
X127026676Y-107109260D01*
X127059060Y-107108993D01*
X127090640Y-107108006D01*
X127124167Y-107105334D01*
X127142686Y-107101661D01*
X127169696Y-107085793D01*
X127178823Y-107075140D01*
X127190719Y-107044864D01*
X127192006Y-107028146D01*
X127186559Y-106996429D01*
X127174791Y-106977120D01*
X127149317Y-106959129D01*
X127126091Y-106952615D01*
X127094723Y-106950987D01*
X127063277Y-106950548D01*
X127031949Y-106950444D01*
X126931138Y-106950444D01*
X126931138Y-107109260D01*
X126802099Y-107109260D01*
X126802099Y-106841258D01*
X127073824Y-106841258D01*
X127110295Y-106841868D01*
G37*
G36*
X127760628Y-106832710D02*
G01*
X127793336Y-106836847D01*
X127824274Y-106843742D01*
X127860460Y-106856238D01*
X127893882Y-106873043D01*
X127924540Y-106894157D01*
X127952433Y-106919580D01*
X127976873Y-106948794D01*
X127997171Y-106981379D01*
X128010427Y-107009872D01*
X128021031Y-107040523D01*
X128028985Y-107073330D01*
X128034287Y-107108294D01*
X128036938Y-107145415D01*
X128037270Y-107164784D01*
X128035954Y-107202654D01*
X128032006Y-107238405D01*
X128025427Y-107272039D01*
X128016216Y-107303555D01*
X128004373Y-107332952D01*
X127985868Y-107366721D01*
X127963252Y-107397180D01*
X127953054Y-107408437D01*
X127925354Y-107433771D01*
X127894890Y-107454811D01*
X127861662Y-107471557D01*
X127825670Y-107484009D01*
X127794887Y-107490879D01*
X127762334Y-107495001D01*
X127728012Y-107496376D01*
X127693254Y-107495009D01*
X127660323Y-107490908D01*
X127629219Y-107484075D01*
X127592909Y-107471688D01*
X127559454Y-107455031D01*
X127528854Y-107434102D01*
X127501109Y-107408902D01*
X127476848Y-107379909D01*
X127456698Y-107347698D01*
X127440661Y-107312268D01*
X127430792Y-107281606D01*
X127423554Y-107248885D01*
X127418949Y-107214104D01*
X127416975Y-107177263D01*
X127416893Y-107167731D01*
X127417018Y-107163388D01*
X127549964Y-107163388D01*
X127551187Y-107196501D01*
X127555883Y-107232808D01*
X127564102Y-107265374D01*
X127575843Y-107294199D01*
X127593993Y-107323102D01*
X127600059Y-107330425D01*
X127623335Y-107352543D01*
X127653099Y-107371169D01*
X127686235Y-107382699D01*
X127717997Y-107386967D01*
X127727547Y-107387189D01*
X127760009Y-107384495D01*
X127793856Y-107374819D01*
X127824233Y-107358105D01*
X127847966Y-107337707D01*
X127854259Y-107330890D01*
X127873536Y-107303497D01*
X127888079Y-107270716D01*
X127896776Y-107238330D01*
X127901994Y-107201986D01*
X127903685Y-107168674D01*
X127903734Y-107161682D01*
X127902556Y-107128220D01*
X127898034Y-107091725D01*
X127890121Y-107059220D01*
X127876602Y-107026343D01*
X127858467Y-106998898D01*
X127855499Y-106995421D01*
X127832890Y-106974028D01*
X127803362Y-106956013D01*
X127769898Y-106944861D01*
X127737388Y-106940732D01*
X127727547Y-106940518D01*
X127694086Y-106943175D01*
X127663594Y-106951145D01*
X127632382Y-106966762D01*
X127605046Y-106989318D01*
X127598818Y-106996042D01*
X127579782Y-107023027D01*
X127565422Y-107055401D01*
X127556834Y-107087438D01*
X127551681Y-107123434D01*
X127550011Y-107156454D01*
X127549964Y-107163388D01*
X127417018Y-107163388D01*
X127417918Y-107132022D01*
X127420993Y-107098527D01*
X127426119Y-107067246D01*
X127434689Y-107033549D01*
X127446051Y-107002866D01*
X127461263Y-106973137D01*
X127479565Y-106945408D01*
X127500958Y-106919678D01*
X127505607Y-106914772D01*
X127529940Y-106892314D01*
X127555637Y-106873793D01*
X127585477Y-106857969D01*
X127588272Y-106856767D01*
X127619339Y-106845639D01*
X127652675Y-106837690D01*
X127683704Y-106833344D01*
X127716470Y-106831431D01*
X127726151Y-106831332D01*
X127760628Y-106832710D01*
G37*
G36*
X128421597Y-106841569D02*
G01*
X128452880Y-106842689D01*
X128485195Y-106845233D01*
X128503328Y-106847772D01*
X128534519Y-106856037D01*
X128562683Y-106869705D01*
X128570173Y-106874603D01*
X128594058Y-106894993D01*
X128614143Y-106920608D01*
X128619183Y-106928886D01*
X128631936Y-106957739D01*
X128638188Y-106989357D01*
X128638880Y-107004882D01*
X128635478Y-107038033D01*
X128625271Y-107069091D01*
X128614685Y-107088633D01*
X128594118Y-107114565D01*
X128568710Y-107135132D01*
X128549081Y-107145863D01*
X128579823Y-107157361D01*
X128608946Y-107174597D01*
X128632767Y-107196528D01*
X128638880Y-107204023D01*
X128655483Y-107231119D01*
X128665937Y-107261032D01*
X128670241Y-107293763D01*
X128670364Y-107300647D01*
X128667507Y-107333122D01*
X128658936Y-107364943D01*
X128650047Y-107385793D01*
X128632737Y-107414401D01*
X128611283Y-107438341D01*
X128594678Y-107451708D01*
X128566078Y-107467543D01*
X128535799Y-107477382D01*
X128508136Y-107482107D01*
X128475181Y-107484159D01*
X128442989Y-107485160D01*
X128408449Y-107485829D01*
X128374767Y-107486253D01*
X128352421Y-107486450D01*
X128134669Y-107486450D01*
X128134669Y-107377263D01*
X128263707Y-107377263D01*
X128383285Y-107377263D01*
X128414992Y-107377021D01*
X128448175Y-107375896D01*
X128471844Y-107373386D01*
X128502273Y-107362059D01*
X128518682Y-107348261D01*
X128533833Y-107319691D01*
X128536828Y-107294598D01*
X128531907Y-107263956D01*
X128522870Y-107246519D01*
X128499206Y-107225138D01*
X128482545Y-107217671D01*
X128450910Y-107211747D01*
X128417043Y-107209414D01*
X128383933Y-107208601D01*
X128367931Y-107208521D01*
X128263707Y-107208521D01*
X128263707Y-107377263D01*
X128134669Y-107377263D01*
X128134669Y-107099334D01*
X128263707Y-107099334D01*
X128348389Y-107099334D01*
X128382509Y-107099199D01*
X128415128Y-107098647D01*
X128442066Y-107097163D01*
X128473303Y-107088633D01*
X128494177Y-107074054D01*
X128510105Y-107047136D01*
X128513254Y-107023803D01*
X128507458Y-106992249D01*
X128496814Y-106975259D01*
X128470218Y-106957690D01*
X128448269Y-106952615D01*
X128414427Y-106951057D01*
X128378942Y-106950580D01*
X128343472Y-106950446D01*
X128337842Y-106950444D01*
X128263707Y-106950444D01*
X128263707Y-107099334D01*
X128134669Y-107099334D01*
X128134669Y-106841258D01*
X128390264Y-106841258D01*
X128421597Y-106841569D01*
G37*
G36*
X129093197Y-106832710D02*
G01*
X129125905Y-106836847D01*
X129156844Y-106843742D01*
X129193030Y-106856238D01*
X129226451Y-106873043D01*
X129257109Y-106894157D01*
X129285003Y-106919580D01*
X129309443Y-106948794D01*
X129329741Y-106981379D01*
X129342996Y-107009872D01*
X129353601Y-107040523D01*
X129361554Y-107073330D01*
X129366857Y-107108294D01*
X129369508Y-107145415D01*
X129369839Y-107164784D01*
X129368523Y-107202654D01*
X129364576Y-107238405D01*
X129357996Y-107272039D01*
X129348785Y-107303555D01*
X129336942Y-107332952D01*
X129318438Y-107366721D01*
X129295821Y-107397180D01*
X129285623Y-107408437D01*
X129257923Y-107433771D01*
X129227460Y-107454811D01*
X129194232Y-107471557D01*
X129158240Y-107484009D01*
X129127456Y-107490879D01*
X129094903Y-107495001D01*
X129060581Y-107496376D01*
X129025823Y-107495009D01*
X128992892Y-107490908D01*
X128961789Y-107484075D01*
X128925479Y-107471688D01*
X128892024Y-107455031D01*
X128861423Y-107434102D01*
X128833678Y-107408902D01*
X128809417Y-107379909D01*
X128789268Y-107347698D01*
X128773230Y-107312268D01*
X128763361Y-107281606D01*
X128756124Y-107248885D01*
X128751518Y-107214104D01*
X128749545Y-107177263D01*
X128749462Y-107167731D01*
X128749587Y-107163388D01*
X128882533Y-107163388D01*
X128883756Y-107196501D01*
X128888453Y-107232808D01*
X128896671Y-107265374D01*
X128908412Y-107294199D01*
X128926562Y-107323102D01*
X128932629Y-107330425D01*
X128955904Y-107352543D01*
X128985668Y-107371169D01*
X129018805Y-107382699D01*
X129050567Y-107386967D01*
X129060116Y-107387189D01*
X129092579Y-107384495D01*
X129126426Y-107374819D01*
X129156802Y-107358105D01*
X129180535Y-107337707D01*
X129186828Y-107330890D01*
X129206106Y-107303497D01*
X129220649Y-107270716D01*
X129229346Y-107238330D01*
X129234564Y-107201986D01*
X129236255Y-107168674D01*
X129236303Y-107161682D01*
X129235125Y-107128220D01*
X129230603Y-107091725D01*
X129222690Y-107059220D01*
X129209171Y-107026343D01*
X129191036Y-106998898D01*
X129188069Y-106995421D01*
X129165460Y-106974028D01*
X129135931Y-106956013D01*
X129102467Y-106944861D01*
X129069958Y-106940732D01*
X129060116Y-106940518D01*
X129026656Y-106943175D01*
X128996164Y-106951145D01*
X128964951Y-106966762D01*
X128937616Y-106989318D01*
X128931388Y-106996042D01*
X128912352Y-107023027D01*
X128897991Y-107055401D01*
X128889403Y-107087438D01*
X128884251Y-107123434D01*
X128882581Y-107156454D01*
X128882533Y-107163388D01*
X128749587Y-107163388D01*
X128750487Y-107132022D01*
X128753563Y-107098527D01*
X128758688Y-107067246D01*
X128767259Y-107033549D01*
X128778620Y-107002866D01*
X128793833Y-106973137D01*
X128812135Y-106945408D01*
X128833527Y-106919678D01*
X128838176Y-106914772D01*
X128862510Y-106892314D01*
X128888206Y-106873793D01*
X128918047Y-106857969D01*
X128920841Y-106856767D01*
X128951909Y-106845639D01*
X128985244Y-106837690D01*
X129016274Y-106833344D01*
X129049039Y-106831431D01*
X129058720Y-106831332D01*
X129093197Y-106832710D01*
G37*
G36*
X129610700Y-107486450D02*
G01*
X129610700Y-106950444D01*
X129421020Y-106950444D01*
X129421020Y-106841258D01*
X129929109Y-106841258D01*
X129929109Y-106950444D01*
X129739894Y-106950444D01*
X129739894Y-107486450D01*
X129610700Y-107486450D01*
G37*
G36*
X130005725Y-107486450D02*
G01*
X130005725Y-106841258D01*
X130134764Y-106841258D01*
X130134764Y-107486450D01*
X130005725Y-107486450D01*
G37*
G36*
X130665651Y-107238299D02*
G01*
X130790812Y-107278003D01*
X130780866Y-107309728D01*
X130769057Y-107338796D01*
X130752426Y-107370168D01*
X130733114Y-107397712D01*
X130711118Y-107421429D01*
X130694964Y-107435113D01*
X130668626Y-107452560D01*
X130639748Y-107466396D01*
X130608329Y-107476623D01*
X130574369Y-107483241D01*
X130537868Y-107486249D01*
X130525136Y-107486450D01*
X130494010Y-107485102D01*
X130457094Y-107479628D01*
X130422388Y-107469944D01*
X130389894Y-107456049D01*
X130359612Y-107437944D01*
X130331540Y-107415628D01*
X130315759Y-107400217D01*
X130292167Y-107371725D01*
X130272575Y-107340142D01*
X130256980Y-107305470D01*
X130247384Y-107275508D01*
X130240347Y-107243568D01*
X130235868Y-107209651D01*
X130233949Y-107173757D01*
X130233869Y-107164474D01*
X130235156Y-107126030D01*
X130239016Y-107089796D01*
X130245450Y-107055772D01*
X130254458Y-107023959D01*
X130266039Y-106994355D01*
X130284134Y-106960458D01*
X130306251Y-106930015D01*
X130316224Y-106918805D01*
X130343273Y-106893605D01*
X130372852Y-106872676D01*
X130404959Y-106856019D01*
X130439597Y-106843632D01*
X130476763Y-106835517D01*
X130508318Y-106832100D01*
X130533046Y-106831332D01*
X130568656Y-106833126D01*
X130602108Y-106838511D01*
X130633402Y-106847485D01*
X130662537Y-106860048D01*
X130689514Y-106876201D01*
X130714333Y-106895944D01*
X130723656Y-106904846D01*
X130744090Y-106929002D01*
X130761810Y-106957888D01*
X130775088Y-106987044D01*
X130786288Y-107019822D01*
X130789106Y-107029852D01*
X130661309Y-107049704D01*
X130650611Y-107017454D01*
X130634085Y-106990226D01*
X130614005Y-106969831D01*
X130587435Y-106953142D01*
X130557199Y-106943380D01*
X130526532Y-106940518D01*
X130492682Y-106943678D01*
X130462168Y-106953158D01*
X130434987Y-106968958D01*
X130411142Y-106991079D01*
X130391803Y-107020285D01*
X130379415Y-107052281D01*
X130372163Y-107084491D01*
X130368019Y-107121117D01*
X130366940Y-107155013D01*
X130368004Y-107190886D01*
X130371196Y-107223382D01*
X130377835Y-107257918D01*
X130387539Y-107287591D01*
X130402733Y-107316062D01*
X130410521Y-107326237D01*
X130433950Y-107348561D01*
X130460655Y-107364507D01*
X130490637Y-107374074D01*
X130523895Y-107377263D01*
X130557591Y-107373305D01*
X130587878Y-107361429D01*
X130612454Y-107343763D01*
X130633576Y-107319069D01*
X130649090Y-107290421D01*
X130660099Y-107259848D01*
X130665651Y-107238299D01*
G37*
G36*
X130865257Y-107278003D02*
G01*
X130990884Y-107268077D01*
X130999093Y-107300048D01*
X131012530Y-107329528D01*
X131032559Y-107354609D01*
X131036792Y-107358342D01*
X131063535Y-107374766D01*
X131095996Y-107384372D01*
X131130469Y-107387189D01*
X131163110Y-107385140D01*
X131193681Y-107378058D01*
X131222448Y-107362882D01*
X131224456Y-107361288D01*
X131246084Y-107336827D01*
X131255817Y-107306929D01*
X131256095Y-107300492D01*
X131247954Y-107269666D01*
X131242757Y-107262493D01*
X131216768Y-107243670D01*
X131196384Y-107235197D01*
X131165362Y-107225706D01*
X131133725Y-107217034D01*
X131102791Y-107208898D01*
X131092936Y-107206349D01*
X131062022Y-107197781D01*
X131028914Y-107186760D01*
X131000158Y-107174932D01*
X130972108Y-107160112D01*
X130947302Y-107141830D01*
X130924338Y-107117368D01*
X130907014Y-107090664D01*
X130895331Y-107061719D01*
X130889287Y-107030533D01*
X130888366Y-107011706D01*
X130891629Y-106978550D01*
X130901415Y-106946897D01*
X130915973Y-106919425D01*
X130935702Y-106894492D01*
X130960187Y-106873587D01*
X130989428Y-106856712D01*
X130995847Y-106853820D01*
X131026940Y-106842949D01*
X131057421Y-106836273D01*
X131090577Y-106832408D01*
X131121783Y-106831332D01*
X131157940Y-106832653D01*
X131191188Y-106836617D01*
X131221528Y-106843225D01*
X131254098Y-106854642D01*
X131282480Y-106869866D01*
X131302933Y-106885459D01*
X131326832Y-106910870D01*
X131345193Y-106939738D01*
X131358019Y-106972065D01*
X131364606Y-107002527D01*
X131366987Y-107029852D01*
X131237794Y-107029852D01*
X131228946Y-106997915D01*
X131211843Y-106970192D01*
X131202277Y-106961456D01*
X131173168Y-106947143D01*
X131139900Y-106941254D01*
X131120387Y-106940518D01*
X131087660Y-106942729D01*
X131057118Y-106950270D01*
X131032294Y-106963162D01*
X131013441Y-106989247D01*
X131011821Y-107002245D01*
X131022639Y-107031936D01*
X131031053Y-107040243D01*
X131059152Y-107055780D01*
X131088814Y-107066597D01*
X131121940Y-107076365D01*
X131149700Y-107083515D01*
X131183333Y-107092155D01*
X131213509Y-107100861D01*
X131244346Y-107111101D01*
X131273826Y-107122912D01*
X131289130Y-107130353D01*
X131315414Y-107146993D01*
X131339883Y-107169249D01*
X131359698Y-107195648D01*
X131374267Y-107226408D01*
X131382264Y-107258348D01*
X131385188Y-107290331D01*
X131385288Y-107297855D01*
X131382305Y-107331682D01*
X131373353Y-107364146D01*
X131358435Y-107395246D01*
X131354735Y-107401303D01*
X131335549Y-107426472D01*
X131312363Y-107447715D01*
X131285178Y-107465032D01*
X131268347Y-107472956D01*
X131238715Y-107483202D01*
X131205650Y-107490521D01*
X131173904Y-107494523D01*
X131139531Y-107496284D01*
X131129228Y-107496376D01*
X131092701Y-107495016D01*
X131058923Y-107490938D01*
X131027895Y-107484141D01*
X130994289Y-107472397D01*
X130964642Y-107456737D01*
X130942960Y-107440697D01*
X130920428Y-107417965D01*
X130901571Y-107391646D01*
X130886390Y-107361739D01*
X130874883Y-107328244D01*
X130868101Y-107297591D01*
X130865257Y-107278003D01*
G37*
D12*
G36*
X125530899Y-101929533D02*
G01*
X125660093Y-101929533D01*
X125660093Y-102279735D01*
X125660323Y-102313367D01*
X125661149Y-102344934D01*
X125663267Y-102376372D01*
X125664901Y-102387681D01*
X125675368Y-102417355D01*
X125695113Y-102443530D01*
X125704295Y-102451425D01*
X125733487Y-102466989D01*
X125764025Y-102473962D01*
X125789597Y-102475464D01*
X125821358Y-102473253D01*
X125852473Y-102464761D01*
X125872572Y-102452820D01*
X125893837Y-102429197D01*
X125905702Y-102399041D01*
X125906072Y-102396987D01*
X125909569Y-102366060D01*
X125911133Y-102334792D01*
X125911760Y-102301190D01*
X125911811Y-102287180D01*
X125911811Y-101929533D01*
X126040849Y-101929533D01*
X126040849Y-102267793D01*
X126040592Y-102302384D01*
X126039819Y-102333651D01*
X126038213Y-102366782D01*
X126035401Y-102399385D01*
X126030303Y-102431728D01*
X126021051Y-102462916D01*
X126006151Y-102492927D01*
X125991684Y-102512687D01*
X125967948Y-102535471D01*
X125941476Y-102553061D01*
X125916464Y-102565109D01*
X125884260Y-102575414D01*
X125850434Y-102581425D01*
X125816515Y-102584173D01*
X125793474Y-102584651D01*
X125760708Y-102583904D01*
X125726395Y-102581144D01*
X125692342Y-102575500D01*
X125660614Y-102565976D01*
X125654509Y-102563403D01*
X125626883Y-102548799D01*
X125600973Y-102529901D01*
X125579754Y-102508034D01*
X125561804Y-102481985D01*
X125548315Y-102452732D01*
X125543617Y-102436536D01*
X125538053Y-102405555D01*
X125534489Y-102373041D01*
X125532402Y-102341154D01*
X125531210Y-102305560D01*
X125530899Y-102273066D01*
X125530899Y-101929533D01*
G37*
G36*
X126459914Y-102574725D02*
G01*
X126337389Y-102574725D01*
X126337389Y-102107891D01*
X126311361Y-102131900D01*
X126283642Y-102153445D01*
X126254233Y-102172525D01*
X126223133Y-102189141D01*
X126190344Y-102203292D01*
X126179038Y-102207461D01*
X126179038Y-102088349D01*
X126209809Y-102076057D01*
X126238901Y-102060383D01*
X126265872Y-102042785D01*
X126283261Y-102030034D01*
X126309201Y-102007584D01*
X126330720Y-101983350D01*
X126347819Y-101957333D01*
X126360498Y-101929533D01*
X126459914Y-101929533D01*
X126459914Y-102574725D01*
G37*
G36*
X121572168Y-102047174D02*
G01*
X121697330Y-102086878D01*
X121687383Y-102118603D01*
X121675574Y-102147671D01*
X121658944Y-102179043D01*
X121639631Y-102206587D01*
X121617635Y-102230304D01*
X121601481Y-102243988D01*
X121575144Y-102261435D01*
X121546265Y-102275271D01*
X121514846Y-102285498D01*
X121480886Y-102292116D01*
X121444385Y-102295124D01*
X121431653Y-102295325D01*
X121400528Y-102293977D01*
X121363611Y-102288503D01*
X121328906Y-102278819D01*
X121296412Y-102264924D01*
X121266129Y-102246819D01*
X121238057Y-102224503D01*
X121222276Y-102209092D01*
X121198685Y-102180600D01*
X121179092Y-102149017D01*
X121163498Y-102114345D01*
X121153901Y-102084383D01*
X121146864Y-102052443D01*
X121142385Y-102018526D01*
X121140466Y-101982632D01*
X121140386Y-101973349D01*
X121141673Y-101934905D01*
X121145533Y-101898671D01*
X121151967Y-101864647D01*
X121160975Y-101832834D01*
X121172556Y-101803230D01*
X121190652Y-101769333D01*
X121212769Y-101738890D01*
X121222741Y-101727680D01*
X121249790Y-101702480D01*
X121279369Y-101681551D01*
X121311477Y-101664894D01*
X121346114Y-101652507D01*
X121383280Y-101644392D01*
X121414835Y-101640975D01*
X121439563Y-101640207D01*
X121475173Y-101642001D01*
X121508625Y-101647386D01*
X121539919Y-101656360D01*
X121569054Y-101668923D01*
X121596032Y-101685076D01*
X121620851Y-101704819D01*
X121630174Y-101713721D01*
X121650607Y-101737877D01*
X121668327Y-101766763D01*
X121681605Y-101795919D01*
X121692805Y-101828697D01*
X121695623Y-101838727D01*
X121567826Y-101858579D01*
X121557128Y-101826329D01*
X121540603Y-101799101D01*
X121520522Y-101778706D01*
X121493952Y-101762017D01*
X121463716Y-101752255D01*
X121433049Y-101749393D01*
X121399200Y-101752553D01*
X121368685Y-101762033D01*
X121341505Y-101777833D01*
X121317659Y-101799954D01*
X121298321Y-101829160D01*
X121285932Y-101861156D01*
X121278680Y-101893366D01*
X121274536Y-101929992D01*
X121273457Y-101963888D01*
X121274521Y-101999761D01*
X121277713Y-102032257D01*
X121284352Y-102066793D01*
X121294056Y-102096466D01*
X121309250Y-102124937D01*
X121317039Y-102135112D01*
X121340467Y-102157436D01*
X121367173Y-102173382D01*
X121397154Y-102182949D01*
X121430412Y-102186138D01*
X121464108Y-102182180D01*
X121494395Y-102170304D01*
X121518971Y-102152638D01*
X121540094Y-102127944D01*
X121555607Y-102099296D01*
X121566617Y-102068723D01*
X121572168Y-102047174D01*
G37*
G36*
X122191460Y-102176212D02*
G01*
X122191460Y-102295325D01*
X121761694Y-102295325D01*
X121766928Y-102263724D01*
X121775652Y-102232977D01*
X121787866Y-102203082D01*
X121803569Y-102174041D01*
X121822094Y-102147146D01*
X121843159Y-102121247D01*
X121864370Y-102097656D01*
X121888906Y-102072241D01*
X121916766Y-102045000D01*
X121941448Y-102021893D01*
X121965810Y-101999159D01*
X121990906Y-101975066D01*
X122014479Y-101951354D01*
X122035758Y-101927825D01*
X122043190Y-101918135D01*
X122058595Y-101890000D01*
X122067260Y-101859816D01*
X122068470Y-101843690D01*
X122064255Y-101811727D01*
X122049113Y-101783994D01*
X122046447Y-101781187D01*
X122018319Y-101764124D01*
X121985650Y-101759319D01*
X121953066Y-101764363D01*
X121925973Y-101780861D01*
X121924543Y-101782273D01*
X121907506Y-101810472D01*
X121899912Y-101842649D01*
X121898332Y-101858579D01*
X121776117Y-101846482D01*
X121780650Y-101815120D01*
X121789098Y-101781314D01*
X121800828Y-101751685D01*
X121818662Y-101722397D01*
X121840963Y-101698793D01*
X121844514Y-101695885D01*
X121871128Y-101678058D01*
X121900489Y-101664609D01*
X121932595Y-101655539D01*
X121967448Y-101650847D01*
X121988596Y-101650133D01*
X122022651Y-101651921D01*
X122053860Y-101657286D01*
X122086672Y-101668067D01*
X122115611Y-101683715D01*
X122137332Y-101701003D01*
X122158423Y-101724387D01*
X122176183Y-101754036D01*
X122187178Y-101786807D01*
X122191248Y-101818042D01*
X122191460Y-101827405D01*
X122189279Y-101859059D01*
X122182736Y-101889579D01*
X122175950Y-101909295D01*
X122161788Y-101938920D01*
X122144361Y-101967035D01*
X122126940Y-101990719D01*
X122105174Y-102015379D01*
X122082265Y-102038455D01*
X122057164Y-102062262D01*
X122046602Y-102071989D01*
X122023258Y-102093435D01*
X121999220Y-102116036D01*
X121976369Y-102138805D01*
X121973087Y-102142402D01*
X121953837Y-102166891D01*
X121947962Y-102176212D01*
X122191460Y-102176212D01*
G37*
D13*
G36*
X127781744Y-94259319D02*
G01*
X127815150Y-94261425D01*
X127847054Y-94265625D01*
X127870367Y-94270985D01*
X127900684Y-94282468D01*
X127928475Y-94298073D01*
X127953738Y-94317800D01*
X127966681Y-94330541D01*
X127987755Y-94356054D01*
X128005786Y-94384609D01*
X128020775Y-94416206D01*
X128027788Y-94435075D01*
X128036948Y-94467751D01*
X128042816Y-94499317D01*
X128046681Y-94533658D01*
X128048398Y-94565303D01*
X128048725Y-94587532D01*
X128047783Y-94621295D01*
X128044955Y-94652965D01*
X128039415Y-94686596D01*
X128031414Y-94717493D01*
X128029028Y-94724791D01*
X128017592Y-94754312D01*
X128002104Y-94784907D01*
X127984038Y-94812148D01*
X127963394Y-94836035D01*
X127960632Y-94838785D01*
X127934726Y-94859774D01*
X127906373Y-94875865D01*
X127876945Y-94887912D01*
X127869902Y-94890276D01*
X127837082Y-94898047D01*
X127805186Y-94902005D01*
X127773024Y-94903711D01*
X127755597Y-94903925D01*
X127512565Y-94903925D01*
X127512565Y-94794738D01*
X127641758Y-94794738D01*
X127738072Y-94794738D01*
X127771729Y-94794005D01*
X127804282Y-94790952D01*
X127816239Y-94788534D01*
X127846506Y-94777066D01*
X127868196Y-94761858D01*
X127887040Y-94736849D01*
X127899495Y-94707565D01*
X127902006Y-94699665D01*
X127909512Y-94666108D01*
X127913335Y-94633145D01*
X127914983Y-94599683D01*
X127915189Y-94581484D01*
X127914365Y-94546345D01*
X127911469Y-94511982D01*
X127905804Y-94480218D01*
X127902006Y-94466869D01*
X127889680Y-94437275D01*
X127871133Y-94410381D01*
X127865404Y-94404521D01*
X127838767Y-94385677D01*
X127807948Y-94374631D01*
X127805693Y-94374123D01*
X127772135Y-94369882D01*
X127740059Y-94368410D01*
X127704647Y-94367925D01*
X127699763Y-94367919D01*
X127641758Y-94367919D01*
X127641758Y-94794738D01*
X127512565Y-94794738D01*
X127512565Y-94258733D01*
X127748618Y-94258733D01*
X127781744Y-94259319D01*
G37*
G36*
X128441114Y-94903925D02*
G01*
X128318589Y-94903925D01*
X128318589Y-94437091D01*
X128292561Y-94461100D01*
X128264842Y-94482645D01*
X128235433Y-94501725D01*
X128204333Y-94518341D01*
X128171544Y-94532492D01*
X128160238Y-94536661D01*
X128160238Y-94417549D01*
X128191009Y-94405257D01*
X128220101Y-94389583D01*
X128247072Y-94371985D01*
X128264461Y-94359234D01*
X128290401Y-94336784D01*
X128311920Y-94312550D01*
X128329019Y-94286533D01*
X128341698Y-94258733D01*
X128441114Y-94258733D01*
X128441114Y-94903925D01*
G37*
D12*
G36*
X130107690Y-100609343D02*
G01*
X130140213Y-100611175D01*
X130173167Y-100614856D01*
X130204248Y-100621099D01*
X130220111Y-100626103D01*
X130249900Y-100641253D01*
X130275290Y-100662816D01*
X130294556Y-100687986D01*
X130309278Y-100717063D01*
X130318547Y-100748654D01*
X130322364Y-100782760D01*
X130322473Y-100789883D01*
X130319827Y-100824663D01*
X130311888Y-100856263D01*
X130298656Y-100884684D01*
X130280132Y-100909926D01*
X130256412Y-100931396D01*
X130227439Y-100948505D01*
X130197777Y-100959897D01*
X130164093Y-100967950D01*
X130153730Y-100969637D01*
X130180779Y-100987159D01*
X130206315Y-101007569D01*
X130222747Y-101023765D01*
X130243750Y-101049342D01*
X130261833Y-101074758D01*
X130279595Y-101101704D01*
X130296262Y-101128298D01*
X130374429Y-101253925D01*
X130219956Y-101253925D01*
X130126589Y-101112013D01*
X130109026Y-101086359D01*
X130089053Y-101058108D01*
X130069621Y-101032363D01*
X130058503Y-101019422D01*
X130033547Y-100999390D01*
X130019729Y-100993056D01*
X129989091Y-100987287D01*
X129957503Y-100985929D01*
X129954745Y-100985922D01*
X129928534Y-100985922D01*
X129928534Y-101253925D01*
X129799495Y-101253925D01*
X129799495Y-100876735D01*
X129928534Y-100876735D01*
X130024072Y-100876735D01*
X130056456Y-100876468D01*
X130088036Y-100875481D01*
X130121563Y-100872809D01*
X130140082Y-100869136D01*
X130167092Y-100853268D01*
X130176219Y-100842615D01*
X130188115Y-100812339D01*
X130189402Y-100795621D01*
X130183955Y-100763904D01*
X130172187Y-100744595D01*
X130146713Y-100726604D01*
X130123487Y-100720090D01*
X130092119Y-100718462D01*
X130060673Y-100718023D01*
X130029345Y-100717919D01*
X129928534Y-100717919D01*
X129928534Y-100876735D01*
X129799495Y-100876735D01*
X129799495Y-100608733D01*
X130071220Y-100608733D01*
X130107690Y-100609343D01*
G37*
G36*
X130409171Y-101070758D02*
G01*
X130527818Y-101055404D01*
X130534017Y-101085889D01*
X130547156Y-101115018D01*
X130558371Y-101129229D01*
X130583953Y-101147486D01*
X130614169Y-101154565D01*
X130618548Y-101154664D01*
X130649375Y-101149113D01*
X130675630Y-101132459D01*
X130682291Y-101125662D01*
X130699162Y-101098744D01*
X130707101Y-101067944D01*
X130708347Y-101047339D01*
X130704836Y-101015147D01*
X130693107Y-100986377D01*
X130683377Y-100973514D01*
X130657728Y-100953921D01*
X130627307Y-100946324D01*
X130622890Y-100946218D01*
X130591670Y-100949444D01*
X130566591Y-100955368D01*
X130580084Y-100856883D01*
X130611508Y-100855134D01*
X130641414Y-100846356D01*
X130655925Y-100837341D01*
X130675584Y-100813147D01*
X130682136Y-100782128D01*
X130675356Y-100751529D01*
X130662905Y-100735445D01*
X130634031Y-100720383D01*
X130611879Y-100717919D01*
X130581130Y-100723653D01*
X130558216Y-100738236D01*
X130539554Y-100764955D01*
X130531230Y-100797327D01*
X130418321Y-100779491D01*
X130425896Y-100748055D01*
X130436529Y-100717557D01*
X130450918Y-100689397D01*
X130453838Y-100684884D01*
X130474274Y-100660384D01*
X130499988Y-100640159D01*
X130520063Y-100629050D01*
X130550577Y-100617483D01*
X130583473Y-100610717D01*
X130615446Y-100608733D01*
X130648036Y-100610712D01*
X130682873Y-100618024D01*
X130714282Y-100630724D01*
X130742262Y-100648813D01*
X130760149Y-100665032D01*
X130781891Y-100691899D01*
X130796517Y-100720680D01*
X130804028Y-100751375D01*
X130805126Y-100769255D01*
X130800725Y-100803690D01*
X130787522Y-100834933D01*
X130765518Y-100862985D01*
X130739651Y-100884490D01*
X130713155Y-100900620D01*
X130745319Y-100911104D01*
X130773182Y-100927434D01*
X130796743Y-100949611D01*
X130800939Y-100954748D01*
X130818359Y-100982631D01*
X130829328Y-101013938D01*
X130833683Y-101045041D01*
X130833974Y-101056024D01*
X130831809Y-101087467D01*
X130823812Y-101121890D01*
X130809922Y-101153879D01*
X130790139Y-101183434D01*
X130772401Y-101203054D01*
X130748306Y-101223715D01*
X130717508Y-101242417D01*
X130683816Y-101255301D01*
X130652633Y-101261713D01*
X130619323Y-101263851D01*
X130587848Y-101261975D01*
X130553745Y-101255045D01*
X130522462Y-101243010D01*
X130494000Y-101225868D01*
X130475396Y-101210498D01*
X130452719Y-101185523D01*
X130434628Y-101157415D01*
X130421125Y-101126176D01*
X130412207Y-101091805D01*
X130409171Y-101070758D01*
G37*
G36*
X128684168Y-101005774D02*
G01*
X128809330Y-101045478D01*
X128799383Y-101077203D01*
X128787574Y-101106271D01*
X128770944Y-101137643D01*
X128751631Y-101165187D01*
X128729635Y-101188904D01*
X128713481Y-101202588D01*
X128687144Y-101220035D01*
X128658265Y-101233871D01*
X128626846Y-101244098D01*
X128592886Y-101250716D01*
X128556385Y-101253724D01*
X128543653Y-101253925D01*
X128512528Y-101252577D01*
X128475611Y-101247103D01*
X128440906Y-101237419D01*
X128408412Y-101223524D01*
X128378129Y-101205419D01*
X128350057Y-101183103D01*
X128334276Y-101167692D01*
X128310685Y-101139200D01*
X128291092Y-101107617D01*
X128275498Y-101072945D01*
X128265901Y-101042983D01*
X128258864Y-101011043D01*
X128254385Y-100977126D01*
X128252466Y-100941232D01*
X128252386Y-100931949D01*
X128253673Y-100893505D01*
X128257533Y-100857271D01*
X128263967Y-100823247D01*
X128272975Y-100791434D01*
X128284556Y-100761830D01*
X128302652Y-100727933D01*
X128324769Y-100697490D01*
X128334741Y-100686280D01*
X128361790Y-100661080D01*
X128391369Y-100640151D01*
X128423477Y-100623494D01*
X128458114Y-100611107D01*
X128495280Y-100602992D01*
X128526835Y-100599575D01*
X128551563Y-100598807D01*
X128587173Y-100600601D01*
X128620625Y-100605986D01*
X128651919Y-100614960D01*
X128681054Y-100627523D01*
X128708032Y-100643676D01*
X128732851Y-100663419D01*
X128742174Y-100672321D01*
X128762607Y-100696477D01*
X128780327Y-100725363D01*
X128793605Y-100754519D01*
X128804805Y-100787297D01*
X128807623Y-100797327D01*
X128679826Y-100817179D01*
X128669128Y-100784929D01*
X128652603Y-100757701D01*
X128632522Y-100737306D01*
X128605952Y-100720617D01*
X128575716Y-100710855D01*
X128545049Y-100707993D01*
X128511200Y-100711153D01*
X128480685Y-100720633D01*
X128453505Y-100736433D01*
X128429659Y-100758554D01*
X128410321Y-100787760D01*
X128397932Y-100819756D01*
X128390680Y-100851966D01*
X128386536Y-100888592D01*
X128385457Y-100922488D01*
X128386521Y-100958361D01*
X128389713Y-100990857D01*
X128396352Y-101025393D01*
X128406056Y-101055066D01*
X128421250Y-101083537D01*
X128429039Y-101093712D01*
X128452467Y-101116036D01*
X128479173Y-101131982D01*
X128509154Y-101141549D01*
X128542412Y-101144738D01*
X128576108Y-101140780D01*
X128606395Y-101128904D01*
X128630971Y-101111238D01*
X128652094Y-101086544D01*
X128667607Y-101057896D01*
X128678617Y-101027323D01*
X128684168Y-101005774D01*
G37*
G36*
X129203114Y-101253925D02*
G01*
X129080589Y-101253925D01*
X129080589Y-100787091D01*
X129054561Y-100811100D01*
X129026842Y-100832645D01*
X128997433Y-100851725D01*
X128966333Y-100868341D01*
X128933544Y-100882492D01*
X128922238Y-100886661D01*
X128922238Y-100767549D01*
X128953009Y-100755257D01*
X128982101Y-100739583D01*
X129009072Y-100721985D01*
X129026461Y-100709234D01*
X129052401Y-100686784D01*
X129073920Y-100662550D01*
X129091019Y-100636533D01*
X129103698Y-100608733D01*
X129203114Y-100608733D01*
X129203114Y-101253925D01*
G37*
G36*
X132978525Y-96246443D02*
G01*
X132836613Y-96339810D01*
X132810959Y-96357373D01*
X132782708Y-96377346D01*
X132756963Y-96396778D01*
X132744022Y-96407896D01*
X132723990Y-96432852D01*
X132717656Y-96446670D01*
X132711887Y-96477308D01*
X132710529Y-96508896D01*
X132710522Y-96511654D01*
X132710522Y-96537865D01*
X132978525Y-96537865D01*
X132978525Y-96666904D01*
X132333333Y-96666904D01*
X132333333Y-96437054D01*
X132442519Y-96437054D01*
X132442519Y-96537865D01*
X132601335Y-96537865D01*
X132601335Y-96442327D01*
X132601068Y-96409943D01*
X132600081Y-96378363D01*
X132597409Y-96344836D01*
X132593736Y-96326317D01*
X132577868Y-96299307D01*
X132567215Y-96290180D01*
X132536939Y-96278284D01*
X132520221Y-96276997D01*
X132488504Y-96282444D01*
X132469195Y-96294212D01*
X132451204Y-96319686D01*
X132444690Y-96342912D01*
X132443062Y-96374280D01*
X132442623Y-96405726D01*
X132442519Y-96437054D01*
X132333333Y-96437054D01*
X132333333Y-96395179D01*
X132333943Y-96358709D01*
X132335775Y-96326186D01*
X132339456Y-96293232D01*
X132345699Y-96262151D01*
X132350703Y-96246288D01*
X132365853Y-96216499D01*
X132387416Y-96191109D01*
X132412586Y-96171843D01*
X132441663Y-96157121D01*
X132473254Y-96147852D01*
X132507360Y-96144035D01*
X132514483Y-96143926D01*
X132549263Y-96146572D01*
X132580863Y-96154511D01*
X132609284Y-96167743D01*
X132634526Y-96186267D01*
X132655996Y-96209987D01*
X132673105Y-96238960D01*
X132684497Y-96268622D01*
X132692550Y-96302306D01*
X132694237Y-96312669D01*
X132711759Y-96285620D01*
X132732169Y-96260084D01*
X132748365Y-96243652D01*
X132773942Y-96222649D01*
X132799358Y-96204566D01*
X132826304Y-96186804D01*
X132852898Y-96170137D01*
X132978525Y-96091970D01*
X132978525Y-96246443D01*
G37*
G36*
X132859412Y-95638939D02*
G01*
X132978525Y-95638939D01*
X132978525Y-96068705D01*
X132946924Y-96063471D01*
X132916177Y-96054747D01*
X132886282Y-96042533D01*
X132857241Y-96026830D01*
X132830346Y-96008305D01*
X132804447Y-95987240D01*
X132780856Y-95966029D01*
X132755441Y-95941493D01*
X132728200Y-95913633D01*
X132705093Y-95888951D01*
X132682359Y-95864589D01*
X132658266Y-95839493D01*
X132634554Y-95815920D01*
X132611025Y-95794641D01*
X132601335Y-95787209D01*
X132573200Y-95771804D01*
X132543016Y-95763139D01*
X132526890Y-95761929D01*
X132494927Y-95766144D01*
X132467194Y-95781286D01*
X132464387Y-95783952D01*
X132447324Y-95812080D01*
X132442519Y-95844749D01*
X132447563Y-95877333D01*
X132464061Y-95904426D01*
X132465473Y-95905856D01*
X132493672Y-95922893D01*
X132525849Y-95930487D01*
X132541779Y-95932067D01*
X132529682Y-96054282D01*
X132498320Y-96049749D01*
X132464514Y-96041301D01*
X132434885Y-96029571D01*
X132405597Y-96011737D01*
X132381993Y-95989436D01*
X132379085Y-95985885D01*
X132361258Y-95959271D01*
X132347809Y-95929910D01*
X132338739Y-95897804D01*
X132334047Y-95862951D01*
X132333333Y-95841803D01*
X132335121Y-95807748D01*
X132340486Y-95776539D01*
X132351267Y-95743727D01*
X132366915Y-95714788D01*
X132384203Y-95693067D01*
X132407587Y-95671976D01*
X132437236Y-95654216D01*
X132470007Y-95643221D01*
X132501242Y-95639151D01*
X132510605Y-95638939D01*
X132542259Y-95641120D01*
X132572779Y-95647663D01*
X132592495Y-95654449D01*
X132622120Y-95668611D01*
X132650235Y-95686038D01*
X132673919Y-95703459D01*
X132698579Y-95725225D01*
X132721655Y-95748134D01*
X132745462Y-95773235D01*
X132755189Y-95783797D01*
X132776635Y-95807141D01*
X132799236Y-95831179D01*
X132822005Y-95854030D01*
X132825602Y-95857312D01*
X132850091Y-95876562D01*
X132859412Y-95882437D01*
X132859412Y-95638939D01*
G37*
G36*
X121548525Y-96246443D02*
G01*
X121406613Y-96339810D01*
X121380959Y-96357373D01*
X121352708Y-96377346D01*
X121326963Y-96396778D01*
X121314022Y-96407896D01*
X121293990Y-96432852D01*
X121287656Y-96446670D01*
X121281887Y-96477308D01*
X121280529Y-96508896D01*
X121280522Y-96511654D01*
X121280522Y-96537865D01*
X121548525Y-96537865D01*
X121548525Y-96666904D01*
X120903333Y-96666904D01*
X120903333Y-96437054D01*
X121012519Y-96437054D01*
X121012519Y-96537865D01*
X121171335Y-96537865D01*
X121171335Y-96442327D01*
X121171068Y-96409943D01*
X121170081Y-96378363D01*
X121167409Y-96344836D01*
X121163736Y-96326317D01*
X121147868Y-96299307D01*
X121137215Y-96290180D01*
X121106939Y-96278284D01*
X121090221Y-96276997D01*
X121058504Y-96282444D01*
X121039195Y-96294212D01*
X121021204Y-96319686D01*
X121014690Y-96342912D01*
X121013062Y-96374280D01*
X121012623Y-96405726D01*
X121012519Y-96437054D01*
X120903333Y-96437054D01*
X120903333Y-96395179D01*
X120903943Y-96358709D01*
X120905775Y-96326186D01*
X120909456Y-96293232D01*
X120915699Y-96262151D01*
X120920703Y-96246288D01*
X120935853Y-96216499D01*
X120957416Y-96191109D01*
X120982586Y-96171843D01*
X121011663Y-96157121D01*
X121043254Y-96147852D01*
X121077360Y-96144035D01*
X121084483Y-96143926D01*
X121119263Y-96146572D01*
X121150863Y-96154511D01*
X121179284Y-96167743D01*
X121204526Y-96186267D01*
X121225996Y-96209987D01*
X121243105Y-96238960D01*
X121254497Y-96268622D01*
X121262550Y-96302306D01*
X121264237Y-96312669D01*
X121281759Y-96285620D01*
X121302169Y-96260084D01*
X121318365Y-96243652D01*
X121343942Y-96222649D01*
X121369358Y-96204566D01*
X121396304Y-96186804D01*
X121422898Y-96170137D01*
X121548525Y-96091970D01*
X121548525Y-96246443D01*
G37*
G36*
X121548525Y-95739285D02*
G01*
X121548525Y-95861810D01*
X121081691Y-95861810D01*
X121105700Y-95887838D01*
X121127245Y-95915557D01*
X121146325Y-95944966D01*
X121162941Y-95976066D01*
X121177092Y-96008855D01*
X121181261Y-96020161D01*
X121062149Y-96020161D01*
X121049857Y-95989390D01*
X121034183Y-95960298D01*
X121016585Y-95933327D01*
X121003834Y-95915938D01*
X120981384Y-95889998D01*
X120957150Y-95868479D01*
X120931133Y-95851380D01*
X120903333Y-95838701D01*
X120903333Y-95739285D01*
X121548525Y-95739285D01*
G37*
D13*
G36*
X125749744Y-94259319D02*
G01*
X125783150Y-94261425D01*
X125815054Y-94265625D01*
X125838367Y-94270985D01*
X125868684Y-94282468D01*
X125896475Y-94298073D01*
X125921738Y-94317800D01*
X125934681Y-94330541D01*
X125955755Y-94356054D01*
X125973786Y-94384609D01*
X125988775Y-94416206D01*
X125995788Y-94435075D01*
X126004948Y-94467751D01*
X126010816Y-94499317D01*
X126014681Y-94533658D01*
X126016398Y-94565303D01*
X126016725Y-94587532D01*
X126015783Y-94621295D01*
X126012955Y-94652965D01*
X126007415Y-94686596D01*
X125999414Y-94717493D01*
X125997028Y-94724791D01*
X125985592Y-94754312D01*
X125970104Y-94784907D01*
X125952038Y-94812148D01*
X125931394Y-94836035D01*
X125928632Y-94838785D01*
X125902726Y-94859774D01*
X125874373Y-94875865D01*
X125844945Y-94887912D01*
X125837902Y-94890276D01*
X125805082Y-94898047D01*
X125773186Y-94902005D01*
X125741024Y-94903711D01*
X125723597Y-94903925D01*
X125480565Y-94903925D01*
X125480565Y-94794738D01*
X125609758Y-94794738D01*
X125706072Y-94794738D01*
X125739729Y-94794005D01*
X125772282Y-94790952D01*
X125784239Y-94788534D01*
X125814506Y-94777066D01*
X125836196Y-94761858D01*
X125855040Y-94736849D01*
X125867495Y-94707565D01*
X125870006Y-94699665D01*
X125877512Y-94666108D01*
X125881335Y-94633145D01*
X125882983Y-94599683D01*
X125883189Y-94581484D01*
X125882365Y-94546345D01*
X125879469Y-94511982D01*
X125873804Y-94480218D01*
X125870006Y-94466869D01*
X125857680Y-94437275D01*
X125839133Y-94410381D01*
X125833404Y-94404521D01*
X125806767Y-94385677D01*
X125775948Y-94374631D01*
X125773693Y-94374123D01*
X125740135Y-94369882D01*
X125708059Y-94368410D01*
X125672647Y-94367925D01*
X125667763Y-94367919D01*
X125609758Y-94367919D01*
X125609758Y-94794738D01*
X125480565Y-94794738D01*
X125480565Y-94258733D01*
X125716618Y-94258733D01*
X125749744Y-94259319D01*
G37*
G36*
X126509460Y-94784812D02*
G01*
X126509460Y-94903925D01*
X126079694Y-94903925D01*
X126084928Y-94872324D01*
X126093652Y-94841577D01*
X126105866Y-94811682D01*
X126121569Y-94782641D01*
X126140094Y-94755746D01*
X126161159Y-94729847D01*
X126182370Y-94706256D01*
X126206906Y-94680841D01*
X126234766Y-94653600D01*
X126259448Y-94630493D01*
X126283810Y-94607759D01*
X126308906Y-94583666D01*
X126332479Y-94559954D01*
X126353758Y-94536425D01*
X126361190Y-94526735D01*
X126376595Y-94498600D01*
X126385260Y-94468416D01*
X126386470Y-94452290D01*
X126382255Y-94420327D01*
X126367113Y-94392594D01*
X126364447Y-94389787D01*
X126336319Y-94372724D01*
X126303650Y-94367919D01*
X126271066Y-94372963D01*
X126243973Y-94389461D01*
X126242543Y-94390873D01*
X126225506Y-94419072D01*
X126217912Y-94451249D01*
X126216332Y-94467179D01*
X126094117Y-94455082D01*
X126098650Y-94423720D01*
X126107098Y-94389914D01*
X126118828Y-94360285D01*
X126136662Y-94330997D01*
X126158963Y-94307393D01*
X126162514Y-94304485D01*
X126189128Y-94286658D01*
X126218489Y-94273209D01*
X126250595Y-94264139D01*
X126285448Y-94259447D01*
X126306596Y-94258733D01*
X126340651Y-94260521D01*
X126371860Y-94265886D01*
X126404672Y-94276667D01*
X126433611Y-94292315D01*
X126455332Y-94309603D01*
X126476423Y-94332987D01*
X126494183Y-94362636D01*
X126505178Y-94395407D01*
X126509248Y-94426642D01*
X126509460Y-94436005D01*
X126507279Y-94467659D01*
X126500736Y-94498179D01*
X126493950Y-94517895D01*
X126479788Y-94547520D01*
X126462361Y-94575635D01*
X126444940Y-94599319D01*
X126423174Y-94623979D01*
X126400265Y-94647055D01*
X126375164Y-94670862D01*
X126364602Y-94680589D01*
X126341258Y-94702035D01*
X126317220Y-94724636D01*
X126294369Y-94747405D01*
X126291087Y-94751002D01*
X126271837Y-94775491D01*
X126265962Y-94784812D01*
X126509460Y-94784812D01*
G37*
D12*
G36*
X121138895Y-99180616D02*
G01*
X121170565Y-99183444D01*
X121204196Y-99188984D01*
X121235093Y-99196985D01*
X121242391Y-99199371D01*
X121271912Y-99210807D01*
X121302507Y-99226295D01*
X121329748Y-99244361D01*
X121353635Y-99265005D01*
X121356385Y-99267767D01*
X121377374Y-99293673D01*
X121393465Y-99322026D01*
X121405512Y-99351454D01*
X121407876Y-99358497D01*
X121415647Y-99391317D01*
X121419605Y-99423213D01*
X121421311Y-99455375D01*
X121421525Y-99472802D01*
X121421525Y-99715834D01*
X120776333Y-99715834D01*
X120776333Y-99528636D01*
X120885519Y-99528636D01*
X120885519Y-99586641D01*
X121312338Y-99586641D01*
X121312338Y-99490327D01*
X121311605Y-99456670D01*
X121308552Y-99424117D01*
X121306134Y-99412160D01*
X121294666Y-99381893D01*
X121279458Y-99360203D01*
X121254449Y-99341359D01*
X121225165Y-99328904D01*
X121217265Y-99326393D01*
X121183708Y-99318887D01*
X121150745Y-99315064D01*
X121117283Y-99313416D01*
X121099084Y-99313210D01*
X121063945Y-99314034D01*
X121029582Y-99316930D01*
X120997818Y-99322595D01*
X120984469Y-99326393D01*
X120954875Y-99338719D01*
X120927981Y-99357266D01*
X120922121Y-99362995D01*
X120903277Y-99389632D01*
X120892231Y-99420451D01*
X120891723Y-99422706D01*
X120887482Y-99456264D01*
X120886010Y-99488340D01*
X120885525Y-99523752D01*
X120885519Y-99528636D01*
X120776333Y-99528636D01*
X120776333Y-99479781D01*
X120776919Y-99446655D01*
X120779025Y-99413249D01*
X120783225Y-99381345D01*
X120788585Y-99358032D01*
X120800068Y-99327715D01*
X120815673Y-99299924D01*
X120835400Y-99274661D01*
X120848141Y-99261718D01*
X120873654Y-99240644D01*
X120902209Y-99222613D01*
X120933806Y-99207624D01*
X120952675Y-99200611D01*
X120985351Y-99191451D01*
X121016917Y-99185583D01*
X121051258Y-99181718D01*
X121082903Y-99180001D01*
X121105132Y-99179674D01*
X121138895Y-99180616D01*
G37*
G36*
X121238358Y-99105228D02*
G01*
X121223004Y-98986581D01*
X121253489Y-98980382D01*
X121282618Y-98967243D01*
X121296829Y-98956028D01*
X121315086Y-98930446D01*
X121322165Y-98900230D01*
X121322264Y-98895851D01*
X121316713Y-98865024D01*
X121300059Y-98838769D01*
X121293262Y-98832108D01*
X121266344Y-98815237D01*
X121235544Y-98807298D01*
X121214939Y-98806052D01*
X121182747Y-98809563D01*
X121153977Y-98821292D01*
X121141114Y-98831022D01*
X121121521Y-98856671D01*
X121113924Y-98887092D01*
X121113818Y-98891509D01*
X121117044Y-98922729D01*
X121122968Y-98947808D01*
X121024483Y-98934315D01*
X121022734Y-98902891D01*
X121013956Y-98872985D01*
X121004941Y-98858474D01*
X120980747Y-98838815D01*
X120949728Y-98832263D01*
X120919129Y-98839043D01*
X120903045Y-98851494D01*
X120887983Y-98880368D01*
X120885519Y-98902520D01*
X120891253Y-98933269D01*
X120905836Y-98956183D01*
X120932555Y-98974845D01*
X120964927Y-98983169D01*
X120947091Y-99096078D01*
X120915655Y-99088503D01*
X120885157Y-99077870D01*
X120856997Y-99063481D01*
X120852484Y-99060561D01*
X120827984Y-99040125D01*
X120807759Y-99014411D01*
X120796650Y-98994336D01*
X120785083Y-98963822D01*
X120778317Y-98930926D01*
X120776333Y-98898953D01*
X120778312Y-98866363D01*
X120785624Y-98831526D01*
X120798324Y-98800117D01*
X120816413Y-98772137D01*
X120832632Y-98754250D01*
X120859499Y-98732508D01*
X120888280Y-98717882D01*
X120918975Y-98710371D01*
X120936855Y-98709273D01*
X120971290Y-98713674D01*
X121002533Y-98726877D01*
X121030585Y-98748881D01*
X121052090Y-98774748D01*
X121068220Y-98801244D01*
X121078704Y-98769080D01*
X121095034Y-98741217D01*
X121117211Y-98717656D01*
X121122348Y-98713460D01*
X121150231Y-98696040D01*
X121181538Y-98685071D01*
X121212641Y-98680716D01*
X121223624Y-98680425D01*
X121255067Y-98682590D01*
X121289490Y-98690587D01*
X121321479Y-98704477D01*
X121351034Y-98724260D01*
X121370654Y-98741998D01*
X121391315Y-98766093D01*
X121410017Y-98796891D01*
X121422901Y-98830583D01*
X121429313Y-98861766D01*
X121431451Y-98895076D01*
X121429575Y-98926551D01*
X121422645Y-98960654D01*
X121410610Y-98991937D01*
X121393468Y-99020399D01*
X121378098Y-99039003D01*
X121353123Y-99061680D01*
X121325015Y-99079771D01*
X121293776Y-99093274D01*
X121259405Y-99102192D01*
X121238358Y-99105228D01*
G37*
D14*
%TO.C,U1*%
X125440000Y-103276400D02*
X125440000Y-102476400D01*
X125440000Y-103276400D02*
X125440000Y-104076400D01*
D10*
X126500000Y-104576400D02*
X126700000Y-104776400D01*
X126700000Y-104376400D02*
X126500000Y-104576400D01*
X126700000Y-104776400D02*
X126700000Y-104376400D01*
D14*
X128560000Y-103276400D02*
X128560000Y-102476400D01*
X128560000Y-103276400D02*
X128560000Y-104076400D01*
%TO.C,C2*%
X123838580Y-101496400D02*
X123557420Y-101496400D01*
X123838580Y-102516400D02*
X123557420Y-102516400D01*
%TO.C,D1*%
X131377500Y-94236400D02*
X132762500Y-94236400D01*
X132762500Y-91966400D02*
X131377500Y-91966400D01*
X132762500Y-94236400D02*
X132762500Y-91966400D01*
D15*
%TO.C,G\u002A\u002A\u002A*%
G36*
X130200795Y-102095255D02*
G01*
X130220281Y-102115211D01*
X130100629Y-102234938D01*
X129980977Y-102354665D01*
X130101916Y-102475529D01*
X130222855Y-102596392D01*
X130204648Y-102615038D01*
X130193419Y-102625579D01*
X130184420Y-102632339D01*
X130181132Y-102633684D01*
X130176505Y-102630303D01*
X130165783Y-102620701D01*
X130149809Y-102605687D01*
X130129427Y-102586073D01*
X130105481Y-102562667D01*
X130078816Y-102536282D01*
X130057545Y-102515030D01*
X129939267Y-102396375D01*
X129820538Y-102515030D01*
X129792422Y-102543057D01*
X129766535Y-102568725D01*
X129743702Y-102591227D01*
X129724744Y-102609760D01*
X129710483Y-102623517D01*
X129701743Y-102631695D01*
X129699295Y-102633684D01*
X129694685Y-102630484D01*
X129685561Y-102622273D01*
X129678315Y-102615220D01*
X129659851Y-102596755D01*
X129779624Y-102476908D01*
X129899397Y-102357060D01*
X129779629Y-102237217D01*
X129659861Y-102117374D01*
X129680818Y-102096418D01*
X129701774Y-102075461D01*
X129821617Y-102195229D01*
X129941460Y-102314997D01*
X130061384Y-102195148D01*
X130181308Y-102075299D01*
X130200795Y-102095255D01*
G37*
G36*
X129980978Y-101675380D02*
G01*
X129980978Y-101833450D01*
X130203510Y-101833450D01*
X130257415Y-101833490D01*
X130302313Y-101833629D01*
X130339072Y-101833893D01*
X130368566Y-101834311D01*
X130391664Y-101834910D01*
X130409238Y-101835719D01*
X130422158Y-101836764D01*
X130431295Y-101838074D01*
X130437521Y-101839676D01*
X130440616Y-101840987D01*
X130450839Y-101846417D01*
X130456179Y-101849527D01*
X130456303Y-101849631D01*
X130456581Y-101854639D01*
X130456943Y-101868554D01*
X130457374Y-101890407D01*
X130457860Y-101919227D01*
X130458383Y-101954043D01*
X130458929Y-101993884D01*
X130459483Y-102037779D01*
X130460007Y-102082906D01*
X130462600Y-102315072D01*
X130621905Y-102316376D01*
X130781211Y-102317679D01*
X130781211Y-102357060D01*
X130781211Y-102396441D01*
X130621905Y-102397744D01*
X130462600Y-102399048D01*
X130461314Y-102626010D01*
X130461004Y-102679226D01*
X130460702Y-102723448D01*
X130460363Y-102759558D01*
X130459942Y-102788442D01*
X130459396Y-102810983D01*
X130458679Y-102828065D01*
X130457748Y-102840572D01*
X130456558Y-102849390D01*
X130455064Y-102855401D01*
X130453223Y-102859490D01*
X130450989Y-102862540D01*
X130449339Y-102864351D01*
X130438649Y-102875730D01*
X130209813Y-102875730D01*
X129980978Y-102875730D01*
X129980978Y-103036270D01*
X129980978Y-103196811D01*
X129941528Y-103196811D01*
X129902079Y-103196811D01*
X129900776Y-103037505D01*
X129899472Y-102878200D01*
X129667306Y-102875607D01*
X129620427Y-102875061D01*
X129576670Y-102874508D01*
X129537004Y-102873962D01*
X129502401Y-102873440D01*
X129473831Y-102872957D01*
X129452266Y-102872528D01*
X129438675Y-102872168D01*
X129434031Y-102871903D01*
X129431247Y-102867221D01*
X129425954Y-102857311D01*
X129425387Y-102856216D01*
X129423564Y-102851512D01*
X129422052Y-102844506D01*
X129420825Y-102834327D01*
X129419853Y-102820106D01*
X129419110Y-102800970D01*
X129419017Y-102796694D01*
X129501826Y-102796694D01*
X129941460Y-102796694D01*
X130381094Y-102796694D01*
X130381094Y-102357060D01*
X130381094Y-101917426D01*
X129941460Y-101917426D01*
X129501826Y-101917426D01*
X129501826Y-102357060D01*
X129501826Y-102796694D01*
X129419017Y-102796694D01*
X129418568Y-102776049D01*
X129418199Y-102744472D01*
X129417975Y-102705368D01*
X129417869Y-102657866D01*
X129417850Y-102619110D01*
X129417850Y-102396578D01*
X129259780Y-102396578D01*
X129101709Y-102396578D01*
X129101709Y-102357060D01*
X129101709Y-102317542D01*
X129259637Y-102317542D01*
X129417566Y-102317542D01*
X129418943Y-102087979D01*
X129420320Y-101858416D01*
X129431568Y-101847168D01*
X129442816Y-101835920D01*
X129672379Y-101834543D01*
X129901942Y-101833166D01*
X129901942Y-101675237D01*
X129901942Y-101517309D01*
X129941460Y-101517309D01*
X129980978Y-101517309D01*
X129980978Y-101675380D01*
G37*
D14*
%TO.C,R3*%
X128255500Y-99449658D02*
X128255500Y-98975142D01*
X129300500Y-99449658D02*
X129300500Y-98975142D01*
%TO.C,C1*%
X129792000Y-99071820D02*
X129792000Y-99352980D01*
X130812000Y-99071820D02*
X130812000Y-99352980D01*
%TO.C,R2*%
X131176500Y-95927142D02*
X131176500Y-96401658D01*
X132221500Y-95927142D02*
X132221500Y-96401658D01*
%TO.C,R1*%
X121778500Y-95927142D02*
X121778500Y-96401658D01*
X122823500Y-95927142D02*
X122823500Y-96401658D01*
%TO.C,D2*%
X121230000Y-91981400D02*
X121230000Y-94251400D01*
X121230000Y-94251400D02*
X122615000Y-94251400D01*
X122615000Y-91981400D02*
X121230000Y-91981400D01*
%TO.C,D3*%
X121554000Y-97852399D02*
X121554000Y-100572401D01*
X121554000Y-97852399D02*
X123213999Y-97852399D01*
X121554000Y-100572401D02*
X123214000Y-100572400D01*
D15*
%TO.C,G\u002A\u002A\u002A*%
G36*
X120048243Y-104972251D02*
G01*
X120049250Y-104982512D01*
X120042688Y-105001930D01*
X120040097Y-105007612D01*
X120032935Y-105024936D01*
X120032177Y-105035513D01*
X120037675Y-105043220D01*
X120038712Y-105044105D01*
X120054607Y-105053510D01*
X120067931Y-105051954D01*
X120080242Y-105038874D01*
X120087183Y-105026492D01*
X120097612Y-105007915D01*
X120104938Y-105001049D01*
X120109873Y-105005713D01*
X120112900Y-105019975D01*
X120112740Y-105052881D01*
X120102546Y-105078471D01*
X120082217Y-105096998D01*
X120081427Y-105097460D01*
X120057656Y-105111184D01*
X119979853Y-105393969D01*
X119963937Y-105451273D01*
X119948752Y-105504895D01*
X119934664Y-105553630D01*
X119922034Y-105596269D01*
X119911223Y-105631609D01*
X119902595Y-105658444D01*
X119896509Y-105675565D01*
X119893428Y-105681731D01*
X119882205Y-105682644D01*
X119867281Y-105677869D01*
X119867206Y-105677831D01*
X119849607Y-105668954D01*
X119928137Y-105384966D01*
X119946332Y-105319097D01*
X119961431Y-105264113D01*
X119973682Y-105218869D01*
X119983334Y-105182222D01*
X119990633Y-105153029D01*
X119995828Y-105130143D01*
X119999166Y-105112423D01*
X120000896Y-105098724D01*
X120001264Y-105087902D01*
X120000519Y-105078814D01*
X119998908Y-105070313D01*
X119997525Y-105064603D01*
X119992895Y-105035452D01*
X119996668Y-105012963D01*
X120009970Y-104993654D01*
X120024535Y-104980945D01*
X120039920Y-104971583D01*
X120048243Y-104972251D01*
G37*
G36*
X118841377Y-105105591D02*
G01*
X118856160Y-105119477D01*
X118863521Y-105127782D01*
X118875735Y-105143447D01*
X118880832Y-105155395D01*
X118880728Y-105168530D01*
X118880377Y-105170937D01*
X118878383Y-105183768D01*
X118877146Y-105194846D01*
X118877177Y-105205498D01*
X118878989Y-105217053D01*
X118883093Y-105230838D01*
X118889999Y-105248183D01*
X118900220Y-105270414D01*
X118914267Y-105298859D01*
X118932650Y-105334850D01*
X118955881Y-105379709D01*
X118974736Y-105416013D01*
X119000064Y-105464857D01*
X119025112Y-105513285D01*
X119048900Y-105559396D01*
X119070450Y-105601287D01*
X119088784Y-105637059D01*
X119102921Y-105664809D01*
X119109024Y-105676897D01*
X119142671Y-105743967D01*
X119126933Y-105755224D01*
X119112262Y-105762235D01*
X119100762Y-105762621D01*
X119095839Y-105758334D01*
X119088270Y-105747647D01*
X119077529Y-105729624D01*
X119063088Y-105703333D01*
X119044422Y-105667840D01*
X119021004Y-105622211D01*
X119015527Y-105611441D01*
X118991260Y-105563880D01*
X118964897Y-105512599D01*
X118938167Y-105460939D01*
X118912802Y-105412242D01*
X118890534Y-105369849D01*
X118881955Y-105353664D01*
X118861770Y-105315868D01*
X118846267Y-105287432D01*
X118834332Y-105266659D01*
X118824850Y-105251852D01*
X118816702Y-105241315D01*
X118808776Y-105233352D01*
X118799952Y-105226265D01*
X118796476Y-105223700D01*
X118773043Y-105204103D01*
X118759980Y-105185766D01*
X118755921Y-105165682D01*
X118759298Y-105141686D01*
X118766857Y-105110398D01*
X118782629Y-105145747D01*
X118791829Y-105165305D01*
X118798722Y-105175878D01*
X118805601Y-105180088D01*
X118813180Y-105180621D01*
X118829367Y-105175379D01*
X118837071Y-105161232D01*
X118836134Y-105138572D01*
X118833716Y-105128629D01*
X118830075Y-105110170D01*
X118832656Y-105102489D01*
X118841377Y-105105591D01*
G37*
G36*
X117901430Y-105946333D02*
G01*
X117915240Y-105948626D01*
X117935274Y-105953060D01*
X117947746Y-105959144D01*
X117957439Y-105970266D01*
X117966198Y-105984702D01*
X117983392Y-106014483D01*
X118142892Y-106082149D01*
X118192038Y-106102979D01*
X118244167Y-106125038D01*
X118296162Y-106147011D01*
X118344910Y-106167583D01*
X118387292Y-106185435D01*
X118409812Y-106194898D01*
X118443933Y-106209479D01*
X118474004Y-106222824D01*
X118498143Y-106234056D01*
X118514469Y-106242302D01*
X118521091Y-106246664D01*
X118522260Y-106258579D01*
X118517835Y-106273709D01*
X118509983Y-106285491D01*
X118507751Y-106287135D01*
X118500410Y-106285788D01*
X118482970Y-106279970D01*
X118456774Y-106270204D01*
X118423163Y-106257018D01*
X118383478Y-106240937D01*
X118339063Y-106222487D01*
X118294228Y-106203467D01*
X118223601Y-106173240D01*
X118163472Y-106147605D01*
X118112874Y-106126203D01*
X118070845Y-106108678D01*
X118036418Y-106094673D01*
X118008628Y-106083829D01*
X117986511Y-106075790D01*
X117969104Y-106070199D01*
X117955440Y-106066698D01*
X117944553Y-106064930D01*
X117935481Y-106064539D01*
X117927258Y-106065166D01*
X117922566Y-106065843D01*
X117901621Y-106067390D01*
X117883622Y-106065706D01*
X117878252Y-106064000D01*
X117868049Y-106055993D01*
X117856809Y-106042601D01*
X117846680Y-106027217D01*
X117839809Y-106013238D01*
X117838342Y-106004057D01*
X117839452Y-106002633D01*
X117847443Y-106003876D01*
X117861356Y-106010597D01*
X117867865Y-106014570D01*
X117886312Y-106025498D01*
X117898479Y-106028848D01*
X117907892Y-106024771D01*
X117915534Y-106016601D01*
X117921574Y-106001218D01*
X117915580Y-105985618D01*
X117897943Y-105970760D01*
X117896324Y-105969797D01*
X117881434Y-105959061D01*
X117874939Y-105949865D01*
X117877042Y-105944889D01*
X117885184Y-105944532D01*
X117901430Y-105946333D01*
G37*
G36*
X119402323Y-104928093D02*
G01*
X119404563Y-104944584D01*
X119404107Y-104962583D01*
X119403420Y-104980689D01*
X119405294Y-104990223D01*
X119411292Y-104995062D01*
X119418197Y-104997541D01*
X119436261Y-104999502D01*
X119448196Y-104991273D01*
X119454585Y-104972289D01*
X119455751Y-104961050D01*
X119458805Y-104941299D01*
X119464408Y-104933638D01*
X119471955Y-104938085D01*
X119480837Y-104954651D01*
X119483100Y-104960433D01*
X119488422Y-104987586D01*
X119483261Y-105014918D01*
X119470512Y-105040039D01*
X119467975Y-105045421D01*
X119466198Y-105053023D01*
X119465252Y-105063938D01*
X119465206Y-105079262D01*
X119466131Y-105100087D01*
X119468096Y-105127508D01*
X119471172Y-105162619D01*
X119475427Y-105206514D01*
X119480933Y-105260286D01*
X119487759Y-105325032D01*
X119490152Y-105347475D01*
X119496330Y-105406298D01*
X119501911Y-105461336D01*
X119506785Y-105511343D01*
X119510837Y-105555072D01*
X119513958Y-105591277D01*
X119516034Y-105618712D01*
X119516951Y-105636130D01*
X119516679Y-105642235D01*
X119507599Y-105647389D01*
X119497386Y-105650123D01*
X119482581Y-105649643D01*
X119474564Y-105646249D01*
X119472109Y-105638713D01*
X119468698Y-105620140D01*
X119464515Y-105591923D01*
X119459742Y-105555455D01*
X119454565Y-105512133D01*
X119449164Y-105463349D01*
X119444339Y-105416651D01*
X119436716Y-105340756D01*
X119430126Y-105276250D01*
X119424411Y-105222097D01*
X119419409Y-105177259D01*
X119414960Y-105140701D01*
X119410904Y-105111382D01*
X119407079Y-105088266D01*
X119403325Y-105070317D01*
X119399483Y-105056498D01*
X119395391Y-105045770D01*
X119390889Y-105037096D01*
X119385816Y-105029438D01*
X119384050Y-105027039D01*
X119369585Y-105003872D01*
X119364920Y-104983861D01*
X119369611Y-104963024D01*
X119375559Y-104950621D01*
X119387736Y-104931076D01*
X119396685Y-104923579D01*
X119402323Y-104928093D01*
G37*
G36*
X120695023Y-106331338D02*
G01*
X120722432Y-106334358D01*
X120755901Y-106338943D01*
X120793352Y-106344860D01*
X120796801Y-106345443D01*
X120887367Y-106360613D01*
X120969601Y-106373978D01*
X121043004Y-106385469D01*
X121107075Y-106395014D01*
X121161309Y-106402545D01*
X121205208Y-106407992D01*
X121238267Y-106411283D01*
X121259989Y-106412349D01*
X121269076Y-106411483D01*
X121289081Y-106404565D01*
X121305099Y-106399030D01*
X121323587Y-106396998D01*
X121339261Y-106400768D01*
X121353268Y-106409999D01*
X121367547Y-106422600D01*
X121378886Y-106435301D01*
X121384069Y-106444831D01*
X121384031Y-106446322D01*
X121377844Y-106447654D01*
X121363361Y-106445844D01*
X121351144Y-106443125D01*
X121330612Y-106439056D01*
X121317459Y-106440136D01*
X121307649Y-106446604D01*
X121300610Y-106459969D01*
X121304970Y-106473696D01*
X121319804Y-106486150D01*
X121333532Y-106492398D01*
X121348587Y-106498459D01*
X121357468Y-106503182D01*
X121358212Y-106503930D01*
X121355846Y-106509670D01*
X121343874Y-106514521D01*
X121325175Y-106517585D01*
X121312587Y-106518186D01*
X121292470Y-106516649D01*
X121278149Y-106509694D01*
X121265354Y-106496920D01*
X121251803Y-106482981D01*
X121239927Y-106473398D01*
X121236683Y-106471670D01*
X121228595Y-106469934D01*
X121209482Y-106466486D01*
X121180652Y-106461543D01*
X121143415Y-106455321D01*
X121099079Y-106448039D01*
X121048953Y-106439915D01*
X120994348Y-106431163D01*
X120956456Y-106425145D01*
X120899342Y-106416081D01*
X120845618Y-106407503D01*
X120796629Y-106399631D01*
X120753722Y-106392683D01*
X120718244Y-106386880D01*
X120691542Y-106382438D01*
X120674961Y-106379576D01*
X120670276Y-106378673D01*
X120659188Y-106375016D01*
X120655377Y-106368104D01*
X120655473Y-106355867D01*
X120659317Y-106340413D01*
X120666670Y-106330916D01*
X120675744Y-106330114D01*
X120695023Y-106331338D01*
G37*
G36*
X118337030Y-105443874D02*
G01*
X118348587Y-105451368D01*
X118375528Y-105469695D01*
X118377039Y-105498804D01*
X118377397Y-105506704D01*
X118378041Y-105513681D01*
X118379674Y-105520586D01*
X118383000Y-105528263D01*
X118388724Y-105537562D01*
X118397546Y-105549333D01*
X118410172Y-105564420D01*
X118427305Y-105583674D01*
X118449646Y-105607943D01*
X118477901Y-105638074D01*
X118512774Y-105674915D01*
X118554966Y-105719316D01*
X118593714Y-105760062D01*
X118632659Y-105801095D01*
X118668984Y-105839510D01*
X118701772Y-105874327D01*
X118730107Y-105904563D01*
X118753070Y-105929240D01*
X118769743Y-105947376D01*
X118779209Y-105957991D01*
X118781003Y-105960251D01*
X118780952Y-105970615D01*
X118774901Y-105981707D01*
X118766586Y-105991779D01*
X118761644Y-105995456D01*
X118755202Y-105995714D01*
X118752210Y-105995568D01*
X118745758Y-105991036D01*
X118731728Y-105978236D01*
X118711013Y-105958068D01*
X118684510Y-105931434D01*
X118653113Y-105899231D01*
X118617720Y-105862361D01*
X118579224Y-105821724D01*
X118577753Y-105820162D01*
X118527122Y-105766380D01*
X118484251Y-105720940D01*
X118448350Y-105683094D01*
X118418629Y-105652083D01*
X118394298Y-105627156D01*
X118374569Y-105607561D01*
X118358649Y-105592541D01*
X118345750Y-105581346D01*
X118335083Y-105573221D01*
X118325856Y-105567412D01*
X118317279Y-105563167D01*
X118308565Y-105559731D01*
X118302474Y-105557583D01*
X118276852Y-105546335D01*
X118261015Y-105532283D01*
X118252271Y-105512285D01*
X118249227Y-105495517D01*
X118248185Y-105477678D01*
X118251274Y-105469782D01*
X118259054Y-105472019D01*
X118272083Y-105484574D01*
X118290919Y-105507637D01*
X118292882Y-105510187D01*
X118302333Y-105513060D01*
X118317476Y-105506800D01*
X118336324Y-105495919D01*
X118321381Y-105466235D01*
X118313125Y-105446816D01*
X118312814Y-105436707D01*
X118320698Y-105435773D01*
X118337030Y-105443874D01*
G37*
G36*
X121080217Y-105697517D02*
G01*
X121102255Y-105700341D01*
X121112007Y-105704943D01*
X121109507Y-105711614D01*
X121094789Y-105720644D01*
X121083486Y-105725860D01*
X121064366Y-105734610D01*
X121054400Y-105740977D01*
X121051139Y-105747180D01*
X121051912Y-105754459D01*
X121059879Y-105772262D01*
X121074156Y-105779682D01*
X121095549Y-105777097D01*
X121098089Y-105776311D01*
X121118312Y-105771555D01*
X121128031Y-105773466D01*
X121127046Y-105781652D01*
X121115154Y-105795725D01*
X121110458Y-105800113D01*
X121094051Y-105814763D01*
X121083636Y-105822587D01*
X121075850Y-105825033D01*
X121067336Y-105823548D01*
X121060844Y-105821490D01*
X121052162Y-105818894D01*
X121043802Y-105817331D01*
X121034729Y-105817250D01*
X121023911Y-105819108D01*
X121010310Y-105823354D01*
X120992893Y-105830442D01*
X120970624Y-105840825D01*
X120942470Y-105854954D01*
X120907397Y-105873286D01*
X120864368Y-105896271D01*
X120812349Y-105924361D01*
X120756398Y-105954702D01*
X120697375Y-105986584D01*
X120644318Y-106014942D01*
X120598001Y-106039376D01*
X120559201Y-106059487D01*
X120528693Y-106074874D01*
X120507253Y-106085135D01*
X120495658Y-106089871D01*
X120494016Y-106090143D01*
X120481293Y-106082486D01*
X120475059Y-106066749D01*
X120475013Y-106057024D01*
X120476079Y-106052736D01*
X120479136Y-106048213D01*
X120485408Y-106042708D01*
X120496113Y-106035474D01*
X120512477Y-106025765D01*
X120535719Y-106012836D01*
X120567064Y-105995941D01*
X120607733Y-105974333D01*
X120628240Y-105963486D01*
X120675731Y-105938203D01*
X120726456Y-105910879D01*
X120777296Y-105883216D01*
X120825129Y-105856918D01*
X120866839Y-105833686D01*
X120887186Y-105822177D01*
X120924298Y-105800916D01*
X120952137Y-105784593D01*
X120972339Y-105772075D01*
X120986537Y-105762227D01*
X120996366Y-105753913D01*
X121003459Y-105745997D01*
X121009454Y-105737347D01*
X121009542Y-105737209D01*
X121029218Y-105713135D01*
X121051426Y-105700284D01*
X121078404Y-105697400D01*
X121080217Y-105697517D01*
G37*
G36*
X120669862Y-105245338D02*
G01*
X120664552Y-105254367D01*
X120648786Y-105269138D01*
X120642784Y-105274139D01*
X120630134Y-105285492D01*
X120626165Y-105293955D01*
X120629519Y-105304055D01*
X120632312Y-105309058D01*
X120642355Y-105321503D01*
X120654164Y-105324539D01*
X120669891Y-105318042D01*
X120686724Y-105305910D01*
X120702027Y-105295757D01*
X120709852Y-105295441D01*
X120710134Y-105304748D01*
X120702802Y-105323468D01*
X120696401Y-105336028D01*
X120680400Y-105365853D01*
X120650321Y-105370670D01*
X120643708Y-105371424D01*
X120638351Y-105371796D01*
X120633542Y-105372544D01*
X120628578Y-105374426D01*
X120622751Y-105378199D01*
X120615356Y-105384619D01*
X120605687Y-105394448D01*
X120593038Y-105408439D01*
X120576703Y-105427352D01*
X120555976Y-105451945D01*
X120530151Y-105482973D01*
X120498521Y-105521196D01*
X120460382Y-105567371D01*
X120415026Y-105622256D01*
X120408282Y-105630409D01*
X120373346Y-105672527D01*
X120340704Y-105711656D01*
X120311250Y-105746742D01*
X120285878Y-105776728D01*
X120265483Y-105800561D01*
X120250959Y-105817184D01*
X120243198Y-105825542D01*
X120242314Y-105826285D01*
X120231486Y-105826835D01*
X120223142Y-105823412D01*
X120209270Y-105811249D01*
X120204188Y-105798809D01*
X120205398Y-105793771D01*
X120210013Y-105787725D01*
X120221709Y-105773187D01*
X120239585Y-105751260D01*
X120262733Y-105723044D01*
X120290250Y-105689645D01*
X120321232Y-105652165D01*
X120354773Y-105611705D01*
X120356658Y-105609434D01*
X120403386Y-105553161D01*
X120442820Y-105505627D01*
X120475618Y-105465953D01*
X120502440Y-105433253D01*
X120523942Y-105406647D01*
X120540787Y-105385251D01*
X120553630Y-105368182D01*
X120563132Y-105354558D01*
X120569950Y-105343495D01*
X120574745Y-105334111D01*
X120578173Y-105325525D01*
X120580895Y-105316852D01*
X120583568Y-105307210D01*
X120584376Y-105304292D01*
X120593695Y-105276693D01*
X120604792Y-105258969D01*
X120620366Y-105248553D01*
X120643111Y-105242868D01*
X120649663Y-105241957D01*
X120664854Y-105241414D01*
X120669862Y-105245338D01*
G37*
G36*
X121220442Y-106006122D02*
G01*
X121243989Y-106009238D01*
X121261955Y-106013541D01*
X121271581Y-106018604D01*
X121272401Y-106021301D01*
X121266220Y-106026595D01*
X121251332Y-106034803D01*
X121230678Y-106044341D01*
X121225657Y-106046460D01*
X121200392Y-106057633D01*
X121184096Y-106066883D01*
X121173831Y-106076033D01*
X121170178Y-106080933D01*
X121164388Y-106100089D01*
X121168391Y-106121341D01*
X121181026Y-106140792D01*
X121190332Y-106148701D01*
X121200442Y-106154109D01*
X121211496Y-106155284D01*
X121227118Y-106151990D01*
X121248307Y-106144927D01*
X121277700Y-106134550D01*
X121297440Y-106127915D01*
X121309611Y-106124503D01*
X121316292Y-106123788D01*
X121319567Y-106125251D01*
X121320669Y-106126791D01*
X121319098Y-106134495D01*
X121311719Y-106148695D01*
X121303122Y-106161942D01*
X121283746Y-106184201D01*
X121259951Y-106203768D01*
X121235241Y-106218281D01*
X121213119Y-106225385D01*
X121208402Y-106225726D01*
X121196565Y-106224126D01*
X121175977Y-106219745D01*
X121149864Y-106213313D01*
X121129617Y-106207870D01*
X121065204Y-106189940D01*
X120941176Y-106206084D01*
X120892574Y-106212505D01*
X120838231Y-106219843D01*
X120783126Y-106227415D01*
X120732233Y-106234539D01*
X120704046Y-106238567D01*
X120663764Y-106244268D01*
X120634009Y-106248066D01*
X120612975Y-106250009D01*
X120598859Y-106250140D01*
X120589854Y-106248506D01*
X120584157Y-106245152D01*
X120581064Y-106241666D01*
X120572786Y-106222741D01*
X120570467Y-106199900D01*
X120574375Y-106179136D01*
X120577939Y-106172478D01*
X120584248Y-106166706D01*
X120595334Y-106162001D01*
X120613347Y-106157799D01*
X120640440Y-106153539D01*
X120660633Y-106150888D01*
X120735129Y-106141261D01*
X120804173Y-106131849D01*
X120866815Y-106122805D01*
X120922104Y-106114284D01*
X120969091Y-106106438D01*
X121006828Y-106099423D01*
X121034361Y-106093393D01*
X121050744Y-106088500D01*
X121053523Y-106087172D01*
X121067561Y-106076145D01*
X121084757Y-106058904D01*
X121099271Y-106041805D01*
X121125628Y-106007931D01*
X121167635Y-106005149D01*
X121194070Y-106004617D01*
X121220442Y-106006122D01*
G37*
G36*
X120314355Y-105064724D02*
G01*
X120317052Y-105071473D01*
X120315511Y-105088450D01*
X120309875Y-105114193D01*
X120309348Y-105116219D01*
X120303143Y-105141402D01*
X120300597Y-105158157D01*
X120301748Y-105170001D01*
X120306636Y-105180454D01*
X120310136Y-105185742D01*
X120322822Y-105199848D01*
X120338434Y-105206123D01*
X120349429Y-105207392D01*
X120367484Y-105207458D01*
X120380704Y-105205473D01*
X120382699Y-105204633D01*
X120387841Y-105196929D01*
X120394923Y-105180195D01*
X120402719Y-105157475D01*
X120405834Y-105147151D01*
X120415779Y-105116595D01*
X120424539Y-105098246D01*
X120432422Y-105091916D01*
X120439739Y-105097414D01*
X120446795Y-105114554D01*
X120448671Y-105121062D01*
X120457063Y-105164917D01*
X120455922Y-105201445D01*
X120444865Y-105231808D01*
X120423510Y-105257173D01*
X120398057Y-105275054D01*
X120384242Y-105283329D01*
X120371737Y-105291833D01*
X120359878Y-105301532D01*
X120347999Y-105313392D01*
X120335435Y-105328383D01*
X120321519Y-105347469D01*
X120305588Y-105371618D01*
X120286975Y-105401795D01*
X120265014Y-105438970D01*
X120239040Y-105484108D01*
X120208388Y-105538177D01*
X120172392Y-105602143D01*
X120170075Y-105606269D01*
X120148542Y-105644456D01*
X120128948Y-105678911D01*
X120112136Y-105708176D01*
X120098949Y-105730793D01*
X120090226Y-105745305D01*
X120086871Y-105750247D01*
X120079116Y-105749984D01*
X120064894Y-105746657D01*
X120063413Y-105746218D01*
X120043638Y-105735195D01*
X120027408Y-105718352D01*
X120011391Y-105696516D01*
X120048793Y-105632221D01*
X120062715Y-105608052D01*
X120081284Y-105575465D01*
X120103087Y-105536959D01*
X120126711Y-105495031D01*
X120150746Y-105452180D01*
X120163536Y-105429287D01*
X120188195Y-105384960D01*
X120207304Y-105349793D01*
X120221385Y-105322040D01*
X120230959Y-105299954D01*
X120236552Y-105281787D01*
X120238685Y-105265792D01*
X120237878Y-105250222D01*
X120234657Y-105233329D01*
X120229543Y-105213367D01*
X120228865Y-105210825D01*
X120223742Y-105189145D01*
X120223101Y-105174015D01*
X120227641Y-105160089D01*
X120237773Y-105142480D01*
X120253082Y-105120402D01*
X120270497Y-105099335D01*
X120287812Y-105081521D01*
X120302820Y-105069199D01*
X120313317Y-105064609D01*
X120314355Y-105064724D01*
G37*
G36*
X120855440Y-105412501D02*
G01*
X120849680Y-105426968D01*
X120834618Y-105449473D01*
X120832299Y-105452570D01*
X120811780Y-105483339D01*
X120801765Y-105508064D01*
X120802332Y-105527574D01*
X120813561Y-105542697D01*
X120835533Y-105554264D01*
X120842344Y-105556581D01*
X120871535Y-105565783D01*
X120908289Y-105518434D01*
X120926536Y-105496140D01*
X120941192Y-105480645D01*
X120950796Y-105473430D01*
X120952766Y-105473153D01*
X120956962Y-105480167D01*
X120958237Y-105495884D01*
X120956877Y-105516942D01*
X120953167Y-105539979D01*
X120947396Y-105561632D01*
X120944601Y-105569087D01*
X120931052Y-105594543D01*
X120913418Y-105612799D01*
X120888997Y-105625801D01*
X120855090Y-105635500D01*
X120851501Y-105636273D01*
X120822797Y-105643826D01*
X120794873Y-105653653D01*
X120774470Y-105663205D01*
X120764480Y-105670124D01*
X120746289Y-105683863D01*
X120721315Y-105703277D01*
X120690972Y-105727224D01*
X120656677Y-105754560D01*
X120619844Y-105784141D01*
X120581888Y-105814825D01*
X120544228Y-105845467D01*
X120508277Y-105874926D01*
X120475451Y-105902055D01*
X120447166Y-105925713D01*
X120424838Y-105944757D01*
X120413255Y-105954959D01*
X120396651Y-105963141D01*
X120386962Y-105962479D01*
X120374704Y-105954477D01*
X120362197Y-105939343D01*
X120351989Y-105921312D01*
X120346624Y-105904621D01*
X120347077Y-105896102D01*
X120352709Y-105889634D01*
X120366827Y-105876300D01*
X120388251Y-105857129D01*
X120415799Y-105833158D01*
X120448291Y-105805416D01*
X120484547Y-105774937D01*
X120506333Y-105756827D01*
X120553511Y-105717763D01*
X120592027Y-105685831D01*
X120622831Y-105660203D01*
X120646875Y-105640049D01*
X120665112Y-105624539D01*
X120678491Y-105612840D01*
X120687966Y-105604125D01*
X120694489Y-105597563D01*
X120699010Y-105592324D01*
X120702482Y-105587578D01*
X120705382Y-105583214D01*
X120711112Y-105569155D01*
X120716235Y-105547352D01*
X120719629Y-105522654D01*
X120722930Y-105498966D01*
X120727834Y-105479390D01*
X120733303Y-105468025D01*
X120733525Y-105467795D01*
X120743703Y-105459850D01*
X120761172Y-105448265D01*
X120782298Y-105435438D01*
X120783996Y-105434454D01*
X120816176Y-105417046D01*
X120838761Y-105407567D01*
X120851825Y-105406042D01*
X120855440Y-105412501D01*
G37*
G36*
X117820851Y-106222028D02*
G01*
X117832982Y-106226653D01*
X117848346Y-106235214D01*
X117869021Y-106248759D01*
X117897085Y-106268333D01*
X117906898Y-106275283D01*
X117918004Y-106282481D01*
X117930781Y-106289152D01*
X117946371Y-106295582D01*
X117965917Y-106302059D01*
X117990562Y-106308870D01*
X118021450Y-106316303D01*
X118059723Y-106324647D01*
X118106526Y-106334185D01*
X118162999Y-106345208D01*
X118230289Y-106358003D01*
X118252626Y-106362205D01*
X118305290Y-106372217D01*
X118346845Y-106380610D01*
X118378472Y-106387938D01*
X118401355Y-106394754D01*
X118416675Y-106401615D01*
X118425616Y-106409074D01*
X118429363Y-106417687D01*
X118429096Y-106428008D01*
X118426000Y-106440592D01*
X118425233Y-106443140D01*
X118416461Y-106463707D01*
X118403989Y-106475851D01*
X118385671Y-106480399D01*
X118359360Y-106478176D01*
X118342899Y-106474868D01*
X118311047Y-106467983D01*
X118272944Y-106460188D01*
X118230341Y-106451800D01*
X118184995Y-106443133D01*
X118138656Y-106434504D01*
X118093082Y-106426229D01*
X118050023Y-106418626D01*
X118011235Y-106412007D01*
X117978473Y-106406692D01*
X117953490Y-106402995D01*
X117938038Y-106401234D01*
X117934248Y-106401203D01*
X117921697Y-106405436D01*
X117902215Y-106414433D01*
X117879525Y-106426440D01*
X117874029Y-106429566D01*
X117829214Y-106455440D01*
X117784637Y-106442155D01*
X117756216Y-106432285D01*
X117731501Y-106421125D01*
X117712757Y-106409956D01*
X117702255Y-106400061D01*
X117700943Y-106394834D01*
X117707490Y-106391821D01*
X117723390Y-106389262D01*
X117745509Y-106387620D01*
X117751077Y-106387422D01*
X117782344Y-106385572D01*
X117803560Y-106381386D01*
X117817098Y-106373753D01*
X117825328Y-106361566D01*
X117828858Y-106351048D01*
X117831166Y-106334019D01*
X117826467Y-106318714D01*
X117819707Y-106307676D01*
X117811952Y-106297079D01*
X117804206Y-106290617D01*
X117793307Y-106287302D01*
X117776093Y-106286139D01*
X117750993Y-106286126D01*
X117726231Y-106285577D01*
X117706495Y-106283765D01*
X117694908Y-106281030D01*
X117693281Y-106279802D01*
X117695438Y-106273222D01*
X117707723Y-106262489D01*
X117730160Y-106247437D01*
X117754879Y-106232914D01*
X117773949Y-106224612D01*
X117791436Y-106220909D01*
X117797976Y-106220397D01*
X117809875Y-106220292D01*
X117820851Y-106222028D01*
G37*
G36*
X118132384Y-105659594D02*
G01*
X118161740Y-105666280D01*
X118183217Y-105677699D01*
X118191097Y-105686335D01*
X118197509Y-105696699D01*
X118208438Y-105714687D01*
X118222008Y-105737203D01*
X118229014Y-105748887D01*
X118236835Y-105761931D01*
X118243970Y-105773246D01*
X118251379Y-105783620D01*
X118260021Y-105793847D01*
X118270855Y-105804718D01*
X118284842Y-105817025D01*
X118302941Y-105831558D01*
X118326112Y-105849109D01*
X118355313Y-105870471D01*
X118391505Y-105896433D01*
X118435648Y-105927789D01*
X118488700Y-105965328D01*
X118507804Y-105978839D01*
X118544567Y-106005005D01*
X118578004Y-106029118D01*
X118606742Y-106050161D01*
X118629410Y-106067121D01*
X118644635Y-106078983D01*
X118651044Y-106084733D01*
X118651087Y-106084801D01*
X118652895Y-106098900D01*
X118646206Y-106115283D01*
X118633712Y-106131217D01*
X118618103Y-106143960D01*
X118602071Y-106150780D01*
X118588306Y-106148940D01*
X118588125Y-106148829D01*
X118580245Y-106143464D01*
X118563764Y-106131914D01*
X118540227Y-106115272D01*
X118511174Y-106094631D01*
X118478151Y-106071084D01*
X118454972Y-106054514D01*
X118395084Y-106011827D01*
X118344475Y-105976156D01*
X118302431Y-105947031D01*
X118268236Y-105923985D01*
X118241175Y-105906550D01*
X118220535Y-105894260D01*
X118205601Y-105886644D01*
X118195657Y-105883236D01*
X118192887Y-105882946D01*
X118178392Y-105883931D01*
X118157143Y-105886424D01*
X118141428Y-105888701D01*
X118113348Y-105890586D01*
X118089057Y-105885688D01*
X118065747Y-105872748D01*
X118040612Y-105850511D01*
X118029168Y-105838460D01*
X118008002Y-105813537D01*
X117996768Y-105795635D01*
X117995297Y-105784437D01*
X117998240Y-105781212D01*
X118005639Y-105782308D01*
X118021417Y-105787455D01*
X118042546Y-105795633D01*
X118048886Y-105798275D01*
X118079329Y-105809473D01*
X118101907Y-105813329D01*
X118118864Y-105809816D01*
X118132449Y-105798910D01*
X118133771Y-105797337D01*
X118142568Y-105778550D01*
X118144744Y-105755858D01*
X118139706Y-105735925D01*
X118139312Y-105735221D01*
X118130582Y-105727534D01*
X118113405Y-105717514D01*
X118091092Y-105707031D01*
X118084983Y-105704510D01*
X118056596Y-105691918D01*
X118040287Y-105681604D01*
X118035909Y-105673319D01*
X118043313Y-105666813D01*
X118060019Y-105662254D01*
X118097645Y-105658099D01*
X118132384Y-105659594D01*
G37*
G36*
X119153884Y-104969156D02*
G01*
X119171700Y-104980007D01*
X119202752Y-105004166D01*
X119224730Y-105030457D01*
X119236297Y-105057104D01*
X119237727Y-105067869D01*
X119236767Y-105081618D01*
X119233711Y-105102976D01*
X119229219Y-105127375D01*
X119229109Y-105127910D01*
X119225174Y-105156301D01*
X119224077Y-105185747D01*
X119225702Y-105207051D01*
X119228770Y-105221168D01*
X119234873Y-105245615D01*
X119243562Y-105278735D01*
X119254391Y-105318868D01*
X119266914Y-105364357D01*
X119280686Y-105413542D01*
X119292051Y-105453560D01*
X119306012Y-105503027D01*
X119318607Y-105548843D01*
X119329472Y-105589592D01*
X119338245Y-105623857D01*
X119344560Y-105650221D01*
X119348055Y-105667271D01*
X119348506Y-105673448D01*
X119337896Y-105684598D01*
X119318820Y-105691109D01*
X119307715Y-105692750D01*
X119296749Y-105693986D01*
X119287668Y-105694209D01*
X119279911Y-105692286D01*
X119272922Y-105687093D01*
X119266144Y-105677499D01*
X119259016Y-105662376D01*
X119250984Y-105640593D01*
X119241489Y-105611023D01*
X119229972Y-105572539D01*
X119215877Y-105524009D01*
X119204001Y-105482846D01*
X119186199Y-105421202D01*
X119171381Y-105370351D01*
X119159030Y-105329104D01*
X119148629Y-105296269D01*
X119139663Y-105270657D01*
X119131613Y-105251077D01*
X119123966Y-105236337D01*
X119116202Y-105225248D01*
X119107808Y-105216620D01*
X119098264Y-105209262D01*
X119087057Y-105201982D01*
X119080346Y-105197801D01*
X119059602Y-105183771D01*
X119042591Y-105170303D01*
X119032662Y-105160079D01*
X119032127Y-105159233D01*
X119025494Y-105142121D01*
X119020601Y-105118760D01*
X119017607Y-105092393D01*
X119016664Y-105066264D01*
X119017931Y-105043616D01*
X119021564Y-105027692D01*
X119025529Y-105022323D01*
X119030749Y-105025963D01*
X119040218Y-105038258D01*
X119052225Y-105056890D01*
X119056844Y-105064712D01*
X119071463Y-105088827D01*
X119082791Y-105104100D01*
X119092874Y-105112975D01*
X119100369Y-105116722D01*
X119119689Y-105118033D01*
X119140075Y-105109850D01*
X119157700Y-105094164D01*
X119164750Y-105083219D01*
X119168165Y-105074681D01*
X119168446Y-105065914D01*
X119164799Y-105054128D01*
X119156429Y-105036535D01*
X119145619Y-105016070D01*
X119131558Y-104988007D01*
X119125062Y-104969688D01*
X119126423Y-104960709D01*
X119135933Y-104960666D01*
X119153884Y-104969156D01*
G37*
G36*
X119798906Y-104910303D02*
G01*
X119811217Y-104920538D01*
X119824695Y-104937564D01*
X119837855Y-104958888D01*
X119849211Y-104982015D01*
X119857278Y-105004454D01*
X119860571Y-105023710D01*
X119860376Y-105028763D01*
X119856058Y-105043471D01*
X119846508Y-105064852D01*
X119833453Y-105089215D01*
X119827201Y-105099674D01*
X119818679Y-105113738D01*
X119811432Y-105126903D01*
X119805228Y-105140418D01*
X119799836Y-105155529D01*
X119795027Y-105173484D01*
X119790568Y-105195532D01*
X119786231Y-105222915D01*
X119781781Y-105256886D01*
X119776991Y-105298690D01*
X119771628Y-105349573D01*
X119765462Y-105410784D01*
X119760663Y-105459249D01*
X119755044Y-105515494D01*
X119750187Y-105560465D01*
X119745658Y-105595320D01*
X119741023Y-105621211D01*
X119735845Y-105639294D01*
X119729690Y-105650724D01*
X119722122Y-105656654D01*
X119712707Y-105658240D01*
X119701007Y-105656638D01*
X119687524Y-105653250D01*
X119666760Y-105645632D01*
X119655275Y-105636879D01*
X119654002Y-105634233D01*
X119653858Y-105625430D01*
X119654913Y-105605883D01*
X119657031Y-105577260D01*
X119660079Y-105541232D01*
X119663919Y-105499468D01*
X119668418Y-105453636D01*
X119669460Y-105443402D01*
X119676141Y-105377992D01*
X119681591Y-105323808D01*
X119685855Y-105279653D01*
X119688980Y-105244335D01*
X119691012Y-105216659D01*
X119691996Y-105195431D01*
X119691979Y-105179458D01*
X119691005Y-105167543D01*
X119689123Y-105158493D01*
X119686376Y-105151115D01*
X119682812Y-105144213D01*
X119681092Y-105141186D01*
X119668296Y-105121072D01*
X119652471Y-105099050D01*
X119646273Y-105091154D01*
X119625417Y-105065497D01*
X119641816Y-105001825D01*
X119651612Y-104968183D01*
X119660985Y-104944448D01*
X119669545Y-104931319D01*
X119676902Y-104929502D01*
X119679951Y-104932956D01*
X119682387Y-104941600D01*
X119685643Y-104958810D01*
X119688822Y-104979532D01*
X119694085Y-105009604D01*
X119700784Y-105029741D01*
X119710201Y-105042496D01*
X119723619Y-105050417D01*
X119724649Y-105050822D01*
X119740832Y-105052334D01*
X119760641Y-105048292D01*
X119778887Y-105040387D01*
X119790383Y-105030309D01*
X119790984Y-105029199D01*
X119792050Y-105019596D01*
X119791503Y-105001034D01*
X119789488Y-104976915D01*
X119788407Y-104967322D01*
X119786271Y-104942654D01*
X119786144Y-104922887D01*
X119787979Y-104911123D01*
X119789247Y-104909353D01*
X119798906Y-104910303D01*
G37*
G36*
X120752780Y-106490325D02*
G01*
X120762683Y-106492690D01*
X120776613Y-106497700D01*
X120795704Y-106505843D01*
X120821089Y-106517611D01*
X120853903Y-106533493D01*
X120895278Y-106553979D01*
X120946349Y-106579561D01*
X120960379Y-106586616D01*
X121010647Y-106611854D01*
X121060592Y-106636837D01*
X121108331Y-106660628D01*
X121151979Y-106682291D01*
X121189651Y-106700891D01*
X121219463Y-106715491D01*
X121235385Y-106723184D01*
X121266160Y-106737693D01*
X121289175Y-106747221D01*
X121307941Y-106752155D01*
X121325970Y-106752882D01*
X121346775Y-106749789D01*
X121373865Y-106743263D01*
X121386883Y-106739872D01*
X121408141Y-106735218D01*
X121423375Y-106735466D01*
X121438351Y-106741407D01*
X121450499Y-106748583D01*
X121477082Y-106766649D01*
X121499993Y-106785069D01*
X121517346Y-106802048D01*
X121527257Y-106815794D01*
X121528674Y-106822892D01*
X121523742Y-106827029D01*
X121511154Y-106826982D01*
X121489247Y-106822646D01*
X121477105Y-106819581D01*
X121451088Y-106813370D01*
X121433309Y-106811123D01*
X121420200Y-106812765D01*
X121408348Y-106818126D01*
X121393589Y-106829743D01*
X121387407Y-106844881D01*
X121386712Y-106850439D01*
X121385618Y-106871264D01*
X121388080Y-106885886D01*
X121396044Y-106896363D01*
X121411455Y-106904752D01*
X121436262Y-106913112D01*
X121449736Y-106917047D01*
X121475744Y-106925284D01*
X121494744Y-106932863D01*
X121504690Y-106938904D01*
X121505614Y-106941121D01*
X121498655Y-106947511D01*
X121484046Y-106954993D01*
X121476799Y-106957813D01*
X121434449Y-106967829D01*
X121396012Y-106966783D01*
X121362446Y-106954954D01*
X121334708Y-106932620D01*
X121319929Y-106912041D01*
X121312817Y-106899966D01*
X121305777Y-106889187D01*
X121297901Y-106879145D01*
X121288276Y-106869284D01*
X121275993Y-106859043D01*
X121260141Y-106847866D01*
X121239809Y-106835195D01*
X121214086Y-106820472D01*
X121182064Y-106803138D01*
X121142830Y-106782636D01*
X121095474Y-106758408D01*
X121039086Y-106729896D01*
X120972754Y-106696542D01*
X120947769Y-106683997D01*
X120897564Y-106658625D01*
X120850756Y-106634652D01*
X120808546Y-106612717D01*
X120772134Y-106593456D01*
X120742722Y-106577508D01*
X120721510Y-106565514D01*
X120709700Y-106558111D01*
X120707712Y-106556358D01*
X120705970Y-106543087D01*
X120711353Y-106525606D01*
X120721744Y-106508097D01*
X120735026Y-106494741D01*
X120740520Y-106491566D01*
X120745770Y-106490114D01*
X120752780Y-106490325D01*
G37*
G36*
X118567105Y-105226056D02*
G01*
X118589616Y-105231391D01*
X118612619Y-105238449D01*
X118632395Y-105246305D01*
X118637651Y-105248954D01*
X118659891Y-105267017D01*
X118675486Y-105293800D01*
X118684925Y-105330317D01*
X118687435Y-105351862D01*
X118689235Y-105371561D01*
X118691678Y-105387017D01*
X118695902Y-105401143D01*
X118703045Y-105416854D01*
X118714242Y-105437063D01*
X118730631Y-105464679D01*
X118733042Y-105468698D01*
X118748148Y-105493155D01*
X118768845Y-105525624D01*
X118793650Y-105563834D01*
X118821078Y-105605510D01*
X118849645Y-105648384D01*
X118873198Y-105683307D01*
X118902069Y-105725931D01*
X118924605Y-105759470D01*
X118941528Y-105785142D01*
X118953559Y-105804161D01*
X118961417Y-105817744D01*
X118965825Y-105827106D01*
X118967502Y-105833464D01*
X118967171Y-105838033D01*
X118966330Y-105840372D01*
X118955909Y-105852851D01*
X118938072Y-105864946D01*
X118917634Y-105873729D01*
X118907771Y-105875989D01*
X118903904Y-105876594D01*
X118900386Y-105876604D01*
X118896542Y-105875117D01*
X118891692Y-105871233D01*
X118885160Y-105864053D01*
X118876269Y-105852676D01*
X118864341Y-105836200D01*
X118848699Y-105813727D01*
X118828665Y-105784354D01*
X118803561Y-105747183D01*
X118772711Y-105701313D01*
X118742261Y-105655998D01*
X118715229Y-105616064D01*
X118689830Y-105579093D01*
X118667050Y-105546482D01*
X118647879Y-105519623D01*
X118633304Y-105499911D01*
X118624311Y-105488742D01*
X118622718Y-105487152D01*
X118610127Y-105480228D01*
X118589333Y-105472394D01*
X118564385Y-105465130D01*
X118559048Y-105463831D01*
X118533967Y-105457549D01*
X118517877Y-105451902D01*
X118507531Y-105445066D01*
X118499678Y-105435217D01*
X118495357Y-105428045D01*
X118484499Y-105406721D01*
X118474048Y-105381992D01*
X118465280Y-105357444D01*
X118459465Y-105336657D01*
X118457875Y-105323219D01*
X118457950Y-105322679D01*
X118460437Y-105316027D01*
X118465823Y-105315285D01*
X118475674Y-105321296D01*
X118491555Y-105334902D01*
X118506402Y-105348736D01*
X118533590Y-105371086D01*
X118556485Y-105382080D01*
X118575950Y-105381727D01*
X118592845Y-105370043D01*
X118606359Y-105350239D01*
X118612394Y-105335462D01*
X118612358Y-105322023D01*
X118605210Y-105307628D01*
X118589909Y-105289973D01*
X118570745Y-105271636D01*
X118550346Y-105252233D01*
X118538598Y-105239101D01*
X118534432Y-105230670D01*
X118536780Y-105225377D01*
X118538430Y-105224261D01*
X118548804Y-105223371D01*
X118567105Y-105226056D01*
G37*
G36*
X119672585Y-105731724D02*
G01*
X119780578Y-105744961D01*
X119885918Y-105769246D01*
X119987838Y-105804335D01*
X120085580Y-105849981D01*
X120178379Y-105905938D01*
X120265473Y-105971963D01*
X120346099Y-106047810D01*
X120419494Y-106133232D01*
X120460625Y-106190287D01*
X120478719Y-106218254D01*
X120489368Y-106238453D01*
X120492819Y-106252946D01*
X120489318Y-106263799D01*
X120479117Y-106273074D01*
X120471142Y-106278021D01*
X120450992Y-106289654D01*
X120482180Y-106352142D01*
X120501312Y-106392742D01*
X120517705Y-106433049D01*
X120532230Y-106475788D01*
X120545758Y-106523688D01*
X120559161Y-106579473D01*
X120568373Y-106621993D01*
X120576523Y-106660237D01*
X120583116Y-106688774D01*
X120589017Y-106710141D01*
X120595084Y-106726879D01*
X120602181Y-106741527D01*
X120611171Y-106756624D01*
X120617309Y-106766156D01*
X120633406Y-106789128D01*
X120649920Y-106808203D01*
X120669126Y-106825169D01*
X120693299Y-106841815D01*
X120724713Y-106859935D01*
X120760023Y-106878451D01*
X120794213Y-106897303D01*
X120816396Y-106913344D01*
X120826517Y-106927375D01*
X120824522Y-106940197D01*
X120810353Y-106952615D01*
X120783955Y-106965428D01*
X120753181Y-106976782D01*
X120690246Y-106994033D01*
X120621635Y-107004591D01*
X120546456Y-107008447D01*
X120463818Y-107005589D01*
X120372828Y-106996008D01*
X120272598Y-106979695D01*
X120228041Y-106970940D01*
X120193246Y-106963941D01*
X120168019Y-106959515D01*
X120149727Y-106957573D01*
X120135738Y-106958030D01*
X120123422Y-106960797D01*
X120110147Y-106965792D01*
X120107314Y-106966978D01*
X120081005Y-106980995D01*
X120049952Y-107002040D01*
X120017394Y-107027539D01*
X119986570Y-107054919D01*
X119960716Y-107081608D01*
X119955843Y-107087341D01*
X119944556Y-107101936D01*
X119937233Y-107115015D01*
X119932782Y-107130165D01*
X119930104Y-107150975D01*
X119928304Y-107177540D01*
X119926209Y-107225023D01*
X119925465Y-107273326D01*
X119926109Y-107325269D01*
X119928181Y-107383673D01*
X119931722Y-107451359D01*
X119932171Y-107458970D01*
X119938469Y-107564664D01*
X119906328Y-107624913D01*
X119883144Y-107666161D01*
X119853070Y-107716118D01*
X119816887Y-107773644D01*
X119775379Y-107837602D01*
X119729329Y-107906850D01*
X119679518Y-107980248D01*
X119626729Y-108056657D01*
X119571744Y-108134938D01*
X119515346Y-108213951D01*
X119458317Y-108292557D01*
X119401439Y-108369615D01*
X119345496Y-108443986D01*
X119330436Y-108463740D01*
X119290599Y-108515840D01*
X119276349Y-108491158D01*
X119265357Y-108469104D01*
X119251399Y-108436240D01*
X119234864Y-108393786D01*
X119216138Y-108342958D01*
X119195612Y-108284974D01*
X119173675Y-108221051D01*
X119150712Y-108152407D01*
X119127114Y-108080258D01*
X119103269Y-108005824D01*
X119079566Y-107930318D01*
X119056392Y-107854962D01*
X119034137Y-107780970D01*
X119013187Y-107709561D01*
X118993934Y-107641952D01*
X118976764Y-107579359D01*
X118962065Y-107523001D01*
X118950228Y-107474095D01*
X118946492Y-107457410D01*
X118938175Y-107417614D01*
X118933063Y-107387880D01*
X118931222Y-107366187D01*
X118932715Y-107350514D01*
X118937605Y-107338840D01*
X118945957Y-107329144D01*
X118950680Y-107325036D01*
X118979739Y-107299012D01*
X119009552Y-107268610D01*
X119039020Y-107235358D01*
X119067047Y-107200785D01*
X119092535Y-107166421D01*
X119114383Y-107133794D01*
X119131497Y-107104432D01*
X119142776Y-107079867D01*
X119147122Y-107061625D01*
X119145586Y-107053661D01*
X119136314Y-107046985D01*
X119117211Y-107039469D01*
X119090846Y-107031696D01*
X119059791Y-107024252D01*
X119026617Y-107017721D01*
X118993895Y-107012689D01*
X118964195Y-107009740D01*
X118950216Y-107009219D01*
X118907354Y-107010805D01*
X118866006Y-107015792D01*
X118829471Y-107023591D01*
X118801047Y-107033613D01*
X118794606Y-107036959D01*
X118777615Y-107046790D01*
X118818153Y-107284655D01*
X118827536Y-107339723D01*
X118836567Y-107392729D01*
X118844957Y-107441984D01*
X118852419Y-107485800D01*
X118858665Y-107522488D01*
X118863408Y-107550360D01*
X118866359Y-107567726D01*
X118866486Y-107568473D01*
X118874284Y-107614427D01*
X118836566Y-107692323D01*
X118821049Y-107723200D01*
X118808276Y-107746265D01*
X118798952Y-107760341D01*
X118793786Y-107764247D01*
X118793521Y-107764028D01*
X118790832Y-107757182D01*
X118784764Y-107739372D01*
X118775622Y-107711560D01*
X118763715Y-107674711D01*
X118749351Y-107629786D01*
X118732834Y-107577753D01*
X118714473Y-107519569D01*
X118694575Y-107456202D01*
X118673446Y-107388614D01*
X118655821Y-107332013D01*
X118523448Y-106906192D01*
X118543059Y-106785607D01*
X118551497Y-106736184D01*
X118559237Y-106696959D01*
X118566878Y-106665713D01*
X118571417Y-106651511D01*
X118575024Y-106640226D01*
X118584274Y-106618280D01*
X118592827Y-106601864D01*
X118594637Y-106596230D01*
X118592568Y-106591977D01*
X118655981Y-106591977D01*
X118656094Y-106602623D01*
X118662560Y-106609879D01*
X118671230Y-106614401D01*
X118678190Y-106616697D01*
X118684029Y-106615093D01*
X118690679Y-106607676D01*
X118700067Y-106592521D01*
X118709000Y-106576820D01*
X118771115Y-106472788D01*
X118833923Y-106380531D01*
X118898224Y-106299341D01*
X118964823Y-106228510D01*
X119034524Y-106167330D01*
X119108131Y-106115090D01*
X119186449Y-106071084D01*
X119270279Y-106034603D01*
X119356717Y-106005996D01*
X119458655Y-105982567D01*
X119558200Y-105971391D01*
X119655342Y-105972463D01*
X119750070Y-105985780D01*
X119842372Y-106011338D01*
X119932239Y-106049133D01*
X120019658Y-106099163D01*
X120104620Y-106161424D01*
X120187113Y-106235912D01*
X120240586Y-106292200D01*
X120259651Y-106313416D01*
X120276464Y-106332065D01*
X120288705Y-106345577D01*
X120292981Y-106350247D01*
X120302031Y-106356298D01*
X120313459Y-106354169D01*
X120322022Y-106349699D01*
X120334346Y-106341774D01*
X120336681Y-106335330D01*
X120329972Y-106325825D01*
X120327557Y-106323078D01*
X120272235Y-106261963D01*
X120223314Y-106211017D01*
X120180457Y-106169896D01*
X120165213Y-106156358D01*
X120077464Y-106087614D01*
X119987336Y-106031121D01*
X119894915Y-105986890D01*
X119800287Y-105954932D01*
X119703539Y-105935261D01*
X119604757Y-105927886D01*
X119504027Y-105932820D01*
X119401435Y-105950076D01*
X119297068Y-105979663D01*
X119191012Y-106021595D01*
X119186556Y-106023611D01*
X119101666Y-106068901D01*
X119019525Y-106126284D01*
X118940236Y-106195655D01*
X118863901Y-106276908D01*
X118790625Y-106369934D01*
X118720511Y-106474627D01*
X118675439Y-106551096D01*
X118662376Y-106575587D01*
X118655981Y-106591977D01*
X118592568Y-106591977D01*
X118591941Y-106590689D01*
X118582949Y-106583768D01*
X118565868Y-106574001D01*
X118546413Y-106563789D01*
X118522674Y-106550673D01*
X118502925Y-106538217D01*
X118490068Y-106528322D01*
X118487132Y-106524930D01*
X118484323Y-106513943D01*
X118486748Y-106498299D01*
X118494919Y-106476674D01*
X118509349Y-106447744D01*
X118530550Y-106410182D01*
X118533278Y-106405532D01*
X118601996Y-106300014D01*
X118681579Y-106197947D01*
X118770528Y-106101057D01*
X118867343Y-106011069D01*
X118899399Y-105984291D01*
X118935137Y-105957353D01*
X118978666Y-105927916D01*
X119027215Y-105897577D01*
X119078016Y-105867932D01*
X119128301Y-105840577D01*
X119175298Y-105817107D01*
X119216239Y-105799118D01*
X119229317Y-105794164D01*
X119340302Y-105760755D01*
X119451684Y-105739376D01*
X119562699Y-105729781D01*
X119672585Y-105731724D01*
G37*
G36*
X135431935Y-106465262D02*
G01*
X135505785Y-106467828D01*
X135554823Y-106473395D01*
X135586704Y-106483018D01*
X135609080Y-106497753D01*
X135616538Y-106504768D01*
X135645604Y-106557892D01*
X135656680Y-106630261D01*
X135649180Y-106704964D01*
X135625432Y-106761125D01*
X135607883Y-106781621D01*
X135584217Y-106794671D01*
X135545861Y-106801931D01*
X135484237Y-106805060D01*
X135394706Y-106805716D01*
X135195211Y-106805716D01*
X135195211Y-106906032D01*
X135193896Y-106965416D01*
X135185811Y-106995029D01*
X135164745Y-107005221D01*
X135135022Y-107006348D01*
X135074832Y-107006348D01*
X135074832Y-106735494D01*
X135074832Y-106707136D01*
X135192540Y-106707136D01*
X135349365Y-106701252D01*
X135506191Y-106695368D01*
X135506191Y-106635178D01*
X135506191Y-106574989D01*
X135355717Y-106574989D01*
X135205243Y-106574989D01*
X135198891Y-106641062D01*
X135192540Y-106707136D01*
X135074832Y-106707136D01*
X135074832Y-106464641D01*
X135325622Y-106464641D01*
X135431935Y-106465262D01*
G37*
G36*
X134715395Y-106465446D02*
G01*
X134781957Y-106468766D01*
X134825391Y-106475960D01*
X134854185Y-106488388D01*
X134875416Y-106505983D01*
X134908152Y-106563485D01*
X134910526Y-106601283D01*
X134898711Y-106640238D01*
X134866852Y-106657525D01*
X134839090Y-106661529D01*
X134793746Y-106661694D01*
X134775998Y-106645994D01*
X134773884Y-106626418D01*
X134770817Y-106605816D01*
X134756212Y-106593472D01*
X134721968Y-106587294D01*
X134659982Y-106585195D01*
X134613379Y-106585021D01*
X134452873Y-106585021D01*
X134452873Y-106745526D01*
X134452873Y-106906032D01*
X134613379Y-106906032D01*
X134773884Y-106906032D01*
X134773884Y-106843502D01*
X134777525Y-106801011D01*
X134794230Y-106788716D01*
X134819027Y-106793070D01*
X134865681Y-106802932D01*
X134889248Y-106805442D01*
X134908328Y-106822164D01*
X134913507Y-106862626D01*
X134905324Y-106913129D01*
X134884317Y-106959976D01*
X134883094Y-106961757D01*
X134867265Y-106980713D01*
X134846237Y-106993378D01*
X134812372Y-107001011D01*
X134758034Y-107004872D01*
X134675586Y-107006221D01*
X134612704Y-107006348D01*
X134511210Y-107005987D01*
X134442182Y-107003971D01*
X134397962Y-106998903D01*
X134370889Y-106989382D01*
X134353305Y-106974010D01*
X134341033Y-106956727D01*
X134325155Y-106922931D01*
X134316303Y-106875661D01*
X134313523Y-106805856D01*
X134315492Y-106714331D01*
X134320142Y-106617346D01*
X134330072Y-106549422D01*
X134351537Y-106505385D01*
X134390789Y-106480060D01*
X134454083Y-106468269D01*
X134547673Y-106464839D01*
X134617213Y-106464641D01*
X134715395Y-106465446D01*
G37*
G36*
X133845015Y-106469892D02*
G01*
X133866906Y-106490176D01*
X133891078Y-106532290D01*
X133922051Y-106603033D01*
X133936246Y-106638089D01*
X134005654Y-106811536D01*
X134066360Y-106643104D01*
X134096176Y-106562657D01*
X134118532Y-106512546D01*
X134138930Y-106485132D01*
X134162873Y-106472777D01*
X134192366Y-106468184D01*
X134237019Y-106468080D01*
X134248789Y-106481633D01*
X134246906Y-106488247D01*
X134235933Y-106516152D01*
X134213583Y-106573565D01*
X134182935Y-106652560D01*
X134147067Y-106745211D01*
X134140729Y-106761602D01*
X134101409Y-106861971D01*
X134072530Y-106930497D01*
X134050598Y-106972963D01*
X134032120Y-106995157D01*
X134013602Y-107002864D01*
X133995347Y-107002361D01*
X133969121Y-106994216D01*
X133946264Y-106972081D01*
X133922016Y-106928702D01*
X133891616Y-106856822D01*
X133879488Y-106825779D01*
X133813593Y-106655242D01*
X133780757Y-106733113D01*
X133752225Y-106802254D01*
X133720757Y-106880565D01*
X133711662Y-106903650D01*
X133683662Y-106963199D01*
X133654523Y-106993171D01*
X133622748Y-107002664D01*
X133583974Y-107005078D01*
X133570093Y-107002060D01*
X133563260Y-106981862D01*
X133544509Y-106931225D01*
X133516460Y-106857111D01*
X133481731Y-106766481D01*
X133469777Y-106735494D01*
X133433498Y-106641224D01*
X133403062Y-106561408D01*
X133381085Y-106502963D01*
X133370183Y-106472805D01*
X133369461Y-106470262D01*
X133387102Y-106466512D01*
X133430352Y-106464678D01*
X133438170Y-106464641D01*
X133471002Y-106466075D01*
X133494587Y-106475157D01*
X133514490Y-106499055D01*
X133536273Y-106544939D01*
X133565501Y-106619977D01*
X133571932Y-106636999D01*
X133636984Y-106809357D01*
X133705955Y-106636999D01*
X133740516Y-106554146D01*
X133766636Y-106502443D01*
X133788861Y-106475071D01*
X133811737Y-106465215D01*
X133820883Y-106464641D01*
X133845015Y-106469892D01*
G37*
G36*
X134863555Y-104808124D02*
G01*
X134926977Y-104821376D01*
X135008041Y-104842889D01*
X135071037Y-104862184D01*
X135197653Y-104903796D01*
X135193421Y-105063901D01*
X135189189Y-105224005D01*
X135309916Y-105290918D01*
X135430643Y-105357831D01*
X135564130Y-105277887D01*
X135697617Y-105197942D01*
X135774507Y-105258841D01*
X135833996Y-105311958D01*
X135897105Y-105377156D01*
X135923250Y-105407426D01*
X135995103Y-105495113D01*
X135913301Y-105631704D01*
X135872925Y-105700394D01*
X135850964Y-105744642D01*
X135844926Y-105774253D01*
X135852317Y-105799035D01*
X135865294Y-105820536D01*
X135898883Y-105876643D01*
X135932068Y-105937983D01*
X135965045Y-106003188D01*
X136131060Y-106003188D01*
X136297075Y-106003188D01*
X136335594Y-106128583D01*
X136358550Y-106209373D01*
X136377951Y-106288200D01*
X136387162Y-106334231D01*
X136400210Y-106414483D01*
X136259164Y-106490896D01*
X136118118Y-106567309D01*
X136118118Y-106705400D01*
X136118118Y-106843490D01*
X136259164Y-106919903D01*
X136400210Y-106996316D01*
X136387162Y-107076569D01*
X136373915Y-107140152D01*
X136353197Y-107221314D01*
X136335594Y-107282216D01*
X136297075Y-107407611D01*
X136131060Y-107407611D01*
X135965045Y-107407611D01*
X135932068Y-107472817D01*
X135898563Y-107534699D01*
X135864699Y-107591246D01*
X135848420Y-107619283D01*
X135843847Y-107644124D01*
X135853576Y-107675583D01*
X135880205Y-107723477D01*
X135914193Y-107778261D01*
X135998080Y-107912053D01*
X135924739Y-108001557D01*
X135867174Y-108065535D01*
X135803556Y-108127232D01*
X135774507Y-108151959D01*
X135697617Y-108212857D01*
X135562987Y-108132228D01*
X135428357Y-108051600D01*
X135307324Y-108119808D01*
X135186291Y-108188016D01*
X135192113Y-108347462D01*
X135197936Y-108506909D01*
X135071179Y-108548568D01*
X134990366Y-108572902D01*
X134911366Y-108593101D01*
X134863555Y-108602675D01*
X134782688Y-108615124D01*
X134706300Y-108475771D01*
X134629913Y-108336419D01*
X134490797Y-108336419D01*
X134351682Y-108336419D01*
X134276883Y-108473777D01*
X134234525Y-108547104D01*
X134197927Y-108590744D01*
X134156573Y-108608716D01*
X134099945Y-108605036D01*
X134017526Y-108583724D01*
X134001451Y-108579007D01*
X133909606Y-108551812D01*
X133849202Y-108530097D01*
X133813662Y-108506511D01*
X133796411Y-108473702D01*
X133790870Y-108424315D01*
X133790463Y-108351000D01*
X133790454Y-108343131D01*
X133790120Y-108180044D01*
X133669800Y-108115224D01*
X133549479Y-108050403D01*
X133418149Y-108130786D01*
X133286818Y-108211169D01*
X133232839Y-108172208D01*
X133182918Y-108130118D01*
X133120789Y-108069644D01*
X133059214Y-108003811D01*
X133011338Y-107946155D01*
X133001667Y-107923592D01*
X133006597Y-107892967D01*
X133029009Y-107845762D01*
X133067210Y-107780909D01*
X133147996Y-107648920D01*
X133083176Y-107528600D01*
X133018355Y-107408279D01*
X132855268Y-107407945D01*
X132774503Y-107407143D01*
X132724597Y-107403290D01*
X132696281Y-107393610D01*
X132680290Y-107375325D01*
X132670063Y-107352438D01*
X132651278Y-107297765D01*
X132630187Y-107224978D01*
X132610206Y-107147486D01*
X132594753Y-107078700D01*
X132587244Y-107032030D01*
X132586997Y-107026417D01*
X132604198Y-107000981D01*
X132651251Y-106964498D01*
X132721328Y-106922197D01*
X132727439Y-106918872D01*
X132867881Y-106843016D01*
X132867881Y-106705400D01*
X133179949Y-106705400D01*
X133186128Y-106863064D01*
X133207255Y-106999528D01*
X133247211Y-107131873D01*
X133309877Y-107277184D01*
X133309886Y-107277201D01*
X133425752Y-107474487D01*
X133571386Y-107645120D01*
X133745303Y-107787614D01*
X133921199Y-107888857D01*
X134010353Y-107927920D01*
X134101914Y-107961928D01*
X134178833Y-107984671D01*
X134192052Y-107987536D01*
X134261272Y-108001315D01*
X134319308Y-108013289D01*
X134342526Y-108018353D01*
X134404083Y-108024310D01*
X134492773Y-108022699D01*
X134596565Y-108014682D01*
X134703426Y-108001417D01*
X134801326Y-107984068D01*
X134865521Y-107967899D01*
X135018499Y-107912952D01*
X135150699Y-107845553D01*
X135274469Y-107758101D01*
X135402152Y-107642998D01*
X135416621Y-107628667D01*
X135566565Y-107456825D01*
X135678316Y-107277048D01*
X135753636Y-107085131D01*
X135794284Y-106876867D01*
X135803072Y-106705400D01*
X135786801Y-106480723D01*
X135737824Y-106276683D01*
X135654203Y-106088651D01*
X135534000Y-105911996D01*
X135416621Y-105782133D01*
X135245903Y-105632466D01*
X135069910Y-105520814D01*
X134883695Y-105445066D01*
X134682309Y-105403113D01*
X134503031Y-105392451D01*
X134346748Y-105397633D01*
X134213082Y-105416467D01*
X134085794Y-105452584D01*
X133948646Y-105509619D01*
X133921199Y-105522608D01*
X133723707Y-105637462D01*
X133556214Y-105778570D01*
X133416858Y-105947795D01*
X133310126Y-106133599D01*
X133247312Y-106278838D01*
X133207275Y-106411208D01*
X133186119Y-106547820D01*
X133179949Y-106705400D01*
X132867881Y-106705400D01*
X132867881Y-106567783D01*
X132727439Y-106491927D01*
X132655882Y-106449396D01*
X132606828Y-106412284D01*
X132587103Y-106385818D01*
X132586997Y-106384382D01*
X132592457Y-106343893D01*
X132606562Y-106278543D01*
X132625894Y-106201742D01*
X132647036Y-106126900D01*
X132666572Y-106067427D01*
X132670063Y-106058362D01*
X132682867Y-106031121D01*
X132700525Y-106014724D01*
X132732307Y-106006392D01*
X132787479Y-106003349D01*
X132855268Y-106002854D01*
X133018355Y-106002520D01*
X133083176Y-105882200D01*
X133147996Y-105761879D01*
X133067210Y-105629890D01*
X133026309Y-105560089D01*
X133005522Y-105514653D01*
X133001968Y-105485061D01*
X133011338Y-105464644D01*
X133059796Y-105406334D01*
X133121441Y-105340490D01*
X133183510Y-105280137D01*
X133232839Y-105238591D01*
X133286818Y-105199630D01*
X133418149Y-105280013D01*
X133549479Y-105360396D01*
X133669800Y-105295576D01*
X133790120Y-105230755D01*
X133790454Y-105067668D01*
X133790719Y-104992650D01*
X133795467Y-104941559D01*
X133811181Y-104907399D01*
X133844339Y-104883170D01*
X133901424Y-104861877D01*
X133988916Y-104836520D01*
X134010109Y-104830495D01*
X134095402Y-104807983D01*
X134153247Y-104801867D01*
X134194449Y-104816426D01*
X134229812Y-104855935D01*
X134270140Y-104924672D01*
X134276237Y-104935842D01*
X134350391Y-105072020D01*
X134490799Y-105072020D01*
X134631207Y-105072020D01*
X134706947Y-104933848D01*
X134782688Y-104795677D01*
X134863555Y-104808124D01*
G37*
D10*
%TO.C,J1*%
X123100000Y-96009400D02*
X123100000Y-96609400D01*
X123100000Y-96609400D02*
X123450000Y-96309400D01*
X123450000Y-96309400D02*
X123100000Y-96009400D01*
%TD*%
M02*
