%TF.GenerationSoftware,KiCad,Pcbnew,8.0.5-8.0.5-0~ubuntu22.04.1*%
%TF.CreationDate,2024-10-14T22:25:46-07:00*%
%TF.ProjectId,HallSwitch,48616c6c-5377-4697-9463-682e6b696361,R2*%
%TF.SameCoordinates,Original*%
%TF.FileFunction,Legend,Top*%
%TF.FilePolarity,Positive*%
%FSLAX46Y46*%
G04 Gerber Fmt 4.6, Leading zero omitted, Abs format (unit mm)*
G04 Created by KiCad (PCBNEW 8.0.5-8.0.5-0~ubuntu22.04.1) date 2024-10-14 22:25:46*
%MOMM*%
%LPD*%
G01*
G04 APERTURE LIST*
%ADD10C,0.100000*%
%ADD11C,0.300000*%
%ADD12C,0.107950*%
%ADD13C,0.127000*%
%ADD14C,0.120000*%
%ADD15C,0.000000*%
G04 APERTURE END LIST*
D10*
X142738500Y-112125100D02*
X141976500Y-112125100D01*
X140198500Y-109331100D02*
X140198500Y-110093100D01*
X138420500Y-112125100D02*
X137658500Y-112125100D01*
X140198500Y-114030100D02*
X140198500Y-114792100D01*
D11*
G36*
X17049728Y-181711532D02*
G01*
X17049728Y-182315034D01*
X18051264Y-182315034D01*
X18051264Y-182632667D01*
X17049728Y-182632667D01*
X17049728Y-183331460D01*
X16639783Y-183331460D01*
X16639783Y-181393899D01*
X18083028Y-181393899D01*
X18083028Y-181711532D01*
X17049728Y-181711532D01*
G37*
G36*
X18064168Y-183331460D02*
G01*
X18064168Y-182918537D01*
X18465676Y-182918537D01*
X18465676Y-183331460D01*
X18064168Y-183331460D01*
G37*
G36*
X20447408Y-182774609D02*
G01*
X20439905Y-182877082D01*
X20412187Y-182984681D01*
X20364045Y-183079408D01*
X20295478Y-183161263D01*
X20233998Y-183211851D01*
X20147142Y-183263294D01*
X20046257Y-183304093D01*
X19931343Y-183334249D01*
X19824866Y-183351249D01*
X19708648Y-183360858D01*
X19608658Y-183363223D01*
X19494916Y-183359927D01*
X19389122Y-183350040D01*
X19272662Y-183329474D01*
X19167648Y-183299417D01*
X19074080Y-183259868D01*
X19018060Y-183228229D01*
X18931790Y-183162519D01*
X18860150Y-183083510D01*
X18803140Y-182991202D01*
X18760758Y-182885595D01*
X18743109Y-182819276D01*
X19139157Y-182755253D01*
X19175826Y-182850434D01*
X19236429Y-182931661D01*
X19295988Y-182977100D01*
X19396164Y-183018836D01*
X19499049Y-183038901D01*
X19606730Y-183045523D01*
X19619577Y-183045590D01*
X19720194Y-183041565D01*
X19827100Y-183025215D01*
X19927718Y-182988993D01*
X20006954Y-182923843D01*
X20047201Y-182819201D01*
X20048878Y-182788009D01*
X20025420Y-182688782D01*
X19999248Y-182652519D01*
X19917233Y-182590077D01*
X19860283Y-182563681D01*
X19760505Y-182532190D01*
X19659568Y-182507510D01*
X19547962Y-182483594D01*
X19516843Y-182477325D01*
X19415473Y-182453037D01*
X19312141Y-182426254D01*
X19216648Y-182397378D01*
X19211121Y-182395435D01*
X19114936Y-182355045D01*
X19055778Y-182322975D01*
X18973560Y-182260991D01*
X18937659Y-182222722D01*
X18883013Y-182136443D01*
X18861725Y-182084254D01*
X18840054Y-181987138D01*
X18834924Y-181901615D01*
X18844448Y-181793052D01*
X18873017Y-181696222D01*
X18928991Y-181599924D01*
X18998375Y-181528233D01*
X19033941Y-181501100D01*
X19129897Y-181446952D01*
X19225943Y-181411126D01*
X19334726Y-181385070D01*
X19435108Y-181370821D01*
X19544335Y-181363357D01*
X19614118Y-181362135D01*
X19723379Y-181364922D01*
X19823795Y-181373283D01*
X19932619Y-181390673D01*
X20028706Y-181416089D01*
X20124709Y-181455885D01*
X20160546Y-181476285D01*
X20243769Y-181542417D01*
X20310801Y-181627160D01*
X20356171Y-181716578D01*
X20389145Y-181820245D01*
X20396289Y-181852481D01*
X19998751Y-181905585D01*
X19963669Y-181812033D01*
X19897134Y-181730143D01*
X19874676Y-181713020D01*
X19777021Y-181668576D01*
X19678433Y-181651116D01*
X19605681Y-181648005D01*
X19498447Y-181653676D01*
X19393759Y-181675451D01*
X19304701Y-181721496D01*
X19242542Y-181813361D01*
X19233454Y-181880274D01*
X19255788Y-181978821D01*
X19273159Y-182004846D01*
X19353932Y-182069520D01*
X19390286Y-182087728D01*
X19489054Y-182120637D01*
X19597057Y-182147749D01*
X19705933Y-182171603D01*
X19806010Y-182193622D01*
X19908520Y-182218518D01*
X20006888Y-182245923D01*
X20101670Y-182278609D01*
X20109427Y-182281782D01*
X20199785Y-182325616D01*
X20283078Y-182382911D01*
X20301495Y-182399405D01*
X20367377Y-182478017D01*
X20409689Y-182559711D01*
X20437978Y-182660088D01*
X20447260Y-182759521D01*
X20447408Y-182774609D01*
G37*
G36*
X20755611Y-183331460D02*
G01*
X20755611Y-181838585D01*
X21146200Y-181838585D01*
X21146200Y-183331460D01*
X20755611Y-183331460D01*
G37*
G36*
X20755611Y-181552715D02*
G01*
X20755611Y-181266845D01*
X21146200Y-181266845D01*
X21146200Y-181552715D01*
X20755611Y-181552715D01*
G37*
G36*
X21545723Y-183331460D02*
G01*
X21545723Y-181266845D01*
X21936312Y-181266845D01*
X21936312Y-183331460D01*
X21545723Y-183331460D01*
G37*
G36*
X23295682Y-183331460D02*
G01*
X22894174Y-182663934D01*
X22726424Y-182778580D01*
X22726424Y-183331460D01*
X22335835Y-183331460D01*
X22335835Y-181266845D01*
X22726424Y-181266845D01*
X22726424Y-182467895D01*
X23262430Y-181838585D01*
X23681804Y-181838585D01*
X23154236Y-182432658D01*
X23722005Y-183331460D01*
X23295682Y-183331460D01*
G37*
D12*
X134377665Y-116359774D02*
X134498617Y-116359774D01*
X134498617Y-116359774D02*
X134559094Y-116329536D01*
X134559094Y-116329536D02*
X134589332Y-116299297D01*
X134589332Y-116299297D02*
X134649808Y-116208583D01*
X134649808Y-116208583D02*
X134680046Y-116087631D01*
X134680046Y-116087631D02*
X134680046Y-115845726D01*
X134680046Y-115845726D02*
X134649808Y-115785250D01*
X134649808Y-115785250D02*
X134619570Y-115755012D01*
X134619570Y-115755012D02*
X134559094Y-115724774D01*
X134559094Y-115724774D02*
X134438141Y-115724774D01*
X134438141Y-115724774D02*
X134377665Y-115755012D01*
X134377665Y-115755012D02*
X134347427Y-115785250D01*
X134347427Y-115785250D02*
X134317189Y-115845726D01*
X134317189Y-115845726D02*
X134317189Y-115996916D01*
X134317189Y-115996916D02*
X134347427Y-116057393D01*
X134347427Y-116057393D02*
X134377665Y-116087631D01*
X134377665Y-116087631D02*
X134438141Y-116117869D01*
X134438141Y-116117869D02*
X134559094Y-116117869D01*
X134559094Y-116117869D02*
X134619570Y-116087631D01*
X134619570Y-116087631D02*
X134649808Y-116057393D01*
X134649808Y-116057393D02*
X134680046Y-115996916D01*
X134891713Y-115724774D02*
X135315046Y-115724774D01*
X135315046Y-115724774D02*
X135042903Y-116359774D01*
X135889570Y-116359774D02*
X135526713Y-116359774D01*
X135708141Y-116359774D02*
X135708141Y-115724774D01*
X135708141Y-115724774D02*
X135647665Y-115815488D01*
X135647665Y-115815488D02*
X135587189Y-115875964D01*
X135587189Y-115875964D02*
X135526713Y-115906202D01*
X136615285Y-116329536D02*
X136705999Y-116359774D01*
X136705999Y-116359774D02*
X136857190Y-116359774D01*
X136857190Y-116359774D02*
X136917666Y-116329536D01*
X136917666Y-116329536D02*
X136947904Y-116299297D01*
X136947904Y-116299297D02*
X136978142Y-116238821D01*
X136978142Y-116238821D02*
X136978142Y-116178345D01*
X136978142Y-116178345D02*
X136947904Y-116117869D01*
X136947904Y-116117869D02*
X136917666Y-116087631D01*
X136917666Y-116087631D02*
X136857190Y-116057393D01*
X136857190Y-116057393D02*
X136736237Y-116027155D01*
X136736237Y-116027155D02*
X136675761Y-115996916D01*
X136675761Y-115996916D02*
X136645523Y-115966678D01*
X136645523Y-115966678D02*
X136615285Y-115906202D01*
X136615285Y-115906202D02*
X136615285Y-115845726D01*
X136615285Y-115845726D02*
X136645523Y-115785250D01*
X136645523Y-115785250D02*
X136675761Y-115755012D01*
X136675761Y-115755012D02*
X136736237Y-115724774D01*
X136736237Y-115724774D02*
X136887428Y-115724774D01*
X136887428Y-115724774D02*
X136978142Y-115755012D01*
X137250285Y-116359774D02*
X137250285Y-115724774D01*
X137250285Y-115724774D02*
X137492190Y-115724774D01*
X137492190Y-115724774D02*
X137552666Y-115755012D01*
X137552666Y-115755012D02*
X137582904Y-115785250D01*
X137582904Y-115785250D02*
X137613142Y-115845726D01*
X137613142Y-115845726D02*
X137613142Y-115936440D01*
X137613142Y-115936440D02*
X137582904Y-115996916D01*
X137582904Y-115996916D02*
X137552666Y-116027155D01*
X137552666Y-116027155D02*
X137492190Y-116057393D01*
X137492190Y-116057393D02*
X137250285Y-116057393D01*
X137855047Y-116178345D02*
X138157428Y-116178345D01*
X137794571Y-116359774D02*
X138006237Y-115724774D01*
X138006237Y-115724774D02*
X138217904Y-116359774D01*
X138792428Y-116359774D02*
X138580761Y-116057393D01*
X138429571Y-116359774D02*
X138429571Y-115724774D01*
X138429571Y-115724774D02*
X138671476Y-115724774D01*
X138671476Y-115724774D02*
X138731952Y-115755012D01*
X138731952Y-115755012D02*
X138762190Y-115785250D01*
X138762190Y-115785250D02*
X138792428Y-115845726D01*
X138792428Y-115845726D02*
X138792428Y-115936440D01*
X138792428Y-115936440D02*
X138762190Y-115996916D01*
X138762190Y-115996916D02*
X138731952Y-116027155D01*
X138731952Y-116027155D02*
X138671476Y-116057393D01*
X138671476Y-116057393D02*
X138429571Y-116057393D01*
X138973857Y-115724774D02*
X139336714Y-115724774D01*
X139155285Y-116359774D02*
X139155285Y-115724774D01*
X139518143Y-116178345D02*
X139820524Y-116178345D01*
X139457667Y-116359774D02*
X139669333Y-115724774D01*
X139669333Y-115724774D02*
X139881000Y-116359774D01*
X140092667Y-116359774D02*
X140092667Y-115724774D01*
X140092667Y-115724774D02*
X140455524Y-116359774D01*
X140455524Y-116359774D02*
X140455524Y-115724774D01*
X141604572Y-116359774D02*
X141392905Y-116057393D01*
X141241715Y-116359774D02*
X141241715Y-115724774D01*
X141241715Y-115724774D02*
X141483620Y-115724774D01*
X141483620Y-115724774D02*
X141544096Y-115755012D01*
X141544096Y-115755012D02*
X141574334Y-115785250D01*
X141574334Y-115785250D02*
X141604572Y-115845726D01*
X141604572Y-115845726D02*
X141604572Y-115936440D01*
X141604572Y-115936440D02*
X141574334Y-115996916D01*
X141574334Y-115996916D02*
X141544096Y-116027155D01*
X141544096Y-116027155D02*
X141483620Y-116057393D01*
X141483620Y-116057393D02*
X141241715Y-116057393D01*
X141997667Y-115724774D02*
X142118620Y-115724774D01*
X142118620Y-115724774D02*
X142179096Y-115755012D01*
X142179096Y-115755012D02*
X142239572Y-115815488D01*
X142239572Y-115815488D02*
X142269810Y-115936440D01*
X142269810Y-115936440D02*
X142269810Y-116148107D01*
X142269810Y-116148107D02*
X142239572Y-116269059D01*
X142239572Y-116269059D02*
X142179096Y-116329536D01*
X142179096Y-116329536D02*
X142118620Y-116359774D01*
X142118620Y-116359774D02*
X141997667Y-116359774D01*
X141997667Y-116359774D02*
X141937191Y-116329536D01*
X141937191Y-116329536D02*
X141876715Y-116269059D01*
X141876715Y-116269059D02*
X141846477Y-116148107D01*
X141846477Y-116148107D02*
X141846477Y-115936440D01*
X141846477Y-115936440D02*
X141876715Y-115815488D01*
X141876715Y-115815488D02*
X141937191Y-115755012D01*
X141937191Y-115755012D02*
X141997667Y-115724774D01*
X142753620Y-116027155D02*
X142844334Y-116057393D01*
X142844334Y-116057393D02*
X142874572Y-116087631D01*
X142874572Y-116087631D02*
X142904810Y-116148107D01*
X142904810Y-116148107D02*
X142904810Y-116238821D01*
X142904810Y-116238821D02*
X142874572Y-116299297D01*
X142874572Y-116299297D02*
X142844334Y-116329536D01*
X142844334Y-116329536D02*
X142783858Y-116359774D01*
X142783858Y-116359774D02*
X142541953Y-116359774D01*
X142541953Y-116359774D02*
X142541953Y-115724774D01*
X142541953Y-115724774D02*
X142753620Y-115724774D01*
X142753620Y-115724774D02*
X142814096Y-115755012D01*
X142814096Y-115755012D02*
X142844334Y-115785250D01*
X142844334Y-115785250D02*
X142874572Y-115845726D01*
X142874572Y-115845726D02*
X142874572Y-115906202D01*
X142874572Y-115906202D02*
X142844334Y-115966678D01*
X142844334Y-115966678D02*
X142814096Y-115996916D01*
X142814096Y-115996916D02*
X142753620Y-116027155D01*
X142753620Y-116027155D02*
X142541953Y-116027155D01*
X143297905Y-115724774D02*
X143418858Y-115724774D01*
X143418858Y-115724774D02*
X143479334Y-115755012D01*
X143479334Y-115755012D02*
X143539810Y-115815488D01*
X143539810Y-115815488D02*
X143570048Y-115936440D01*
X143570048Y-115936440D02*
X143570048Y-116148107D01*
X143570048Y-116148107D02*
X143539810Y-116269059D01*
X143539810Y-116269059D02*
X143479334Y-116329536D01*
X143479334Y-116329536D02*
X143418858Y-116359774D01*
X143418858Y-116359774D02*
X143297905Y-116359774D01*
X143297905Y-116359774D02*
X143237429Y-116329536D01*
X143237429Y-116329536D02*
X143176953Y-116269059D01*
X143176953Y-116269059D02*
X143146715Y-116148107D01*
X143146715Y-116148107D02*
X143146715Y-115936440D01*
X143146715Y-115936440D02*
X143176953Y-115815488D01*
X143176953Y-115815488D02*
X143237429Y-115755012D01*
X143237429Y-115755012D02*
X143297905Y-115724774D01*
X143751477Y-115724774D02*
X144114334Y-115724774D01*
X143932905Y-116359774D02*
X143932905Y-115724774D01*
X144326001Y-116359774D02*
X144326001Y-115724774D01*
X144991239Y-116299297D02*
X144961001Y-116329536D01*
X144961001Y-116329536D02*
X144870287Y-116359774D01*
X144870287Y-116359774D02*
X144809811Y-116359774D01*
X144809811Y-116359774D02*
X144719096Y-116329536D01*
X144719096Y-116329536D02*
X144658620Y-116269059D01*
X144658620Y-116269059D02*
X144628382Y-116208583D01*
X144628382Y-116208583D02*
X144598144Y-116087631D01*
X144598144Y-116087631D02*
X144598144Y-115996916D01*
X144598144Y-115996916D02*
X144628382Y-115875964D01*
X144628382Y-115875964D02*
X144658620Y-115815488D01*
X144658620Y-115815488D02*
X144719096Y-115755012D01*
X144719096Y-115755012D02*
X144809811Y-115724774D01*
X144809811Y-115724774D02*
X144870287Y-115724774D01*
X144870287Y-115724774D02*
X144961001Y-115755012D01*
X144961001Y-115755012D02*
X144991239Y-115785250D01*
X145233144Y-116329536D02*
X145323858Y-116359774D01*
X145323858Y-116359774D02*
X145475049Y-116359774D01*
X145475049Y-116359774D02*
X145535525Y-116329536D01*
X145535525Y-116329536D02*
X145565763Y-116299297D01*
X145565763Y-116299297D02*
X145596001Y-116238821D01*
X145596001Y-116238821D02*
X145596001Y-116178345D01*
X145596001Y-116178345D02*
X145565763Y-116117869D01*
X145565763Y-116117869D02*
X145535525Y-116087631D01*
X145535525Y-116087631D02*
X145475049Y-116057393D01*
X145475049Y-116057393D02*
X145354096Y-116027155D01*
X145354096Y-116027155D02*
X145293620Y-115996916D01*
X145293620Y-115996916D02*
X145263382Y-115966678D01*
X145263382Y-115966678D02*
X145233144Y-115906202D01*
X145233144Y-115906202D02*
X145233144Y-115845726D01*
X145233144Y-115845726D02*
X145263382Y-115785250D01*
X145263382Y-115785250D02*
X145293620Y-115755012D01*
X145293620Y-115755012D02*
X145354096Y-115724774D01*
X145354096Y-115724774D02*
X145505287Y-115724774D01*
X145505287Y-115724774D02*
X145596001Y-115755012D01*
D13*
X138749490Y-110659659D02*
X138749490Y-111173706D01*
X138749490Y-111173706D02*
X138779728Y-111234182D01*
X138779728Y-111234182D02*
X138809966Y-111264421D01*
X138809966Y-111264421D02*
X138870442Y-111294659D01*
X138870442Y-111294659D02*
X138991395Y-111294659D01*
X138991395Y-111294659D02*
X139051871Y-111264421D01*
X139051871Y-111264421D02*
X139082109Y-111234182D01*
X139082109Y-111234182D02*
X139112347Y-111173706D01*
X139112347Y-111173706D02*
X139112347Y-110659659D01*
X139747347Y-111294659D02*
X139384490Y-111294659D01*
X139565918Y-111294659D02*
X139565918Y-110659659D01*
X139565918Y-110659659D02*
X139505442Y-110750373D01*
X139505442Y-110750373D02*
X139444966Y-110810849D01*
X139444966Y-110810849D02*
X139384490Y-110841087D01*
X134631666Y-110980182D02*
X134601428Y-111010421D01*
X134601428Y-111010421D02*
X134510714Y-111040659D01*
X134510714Y-111040659D02*
X134450238Y-111040659D01*
X134450238Y-111040659D02*
X134359523Y-111010421D01*
X134359523Y-111010421D02*
X134299047Y-110949944D01*
X134299047Y-110949944D02*
X134268809Y-110889468D01*
X134268809Y-110889468D02*
X134238571Y-110768516D01*
X134238571Y-110768516D02*
X134238571Y-110677801D01*
X134238571Y-110677801D02*
X134268809Y-110556849D01*
X134268809Y-110556849D02*
X134299047Y-110496373D01*
X134299047Y-110496373D02*
X134359523Y-110435897D01*
X134359523Y-110435897D02*
X134450238Y-110405659D01*
X134450238Y-110405659D02*
X134510714Y-110405659D01*
X134510714Y-110405659D02*
X134601428Y-110435897D01*
X134601428Y-110435897D02*
X134631666Y-110466135D01*
X134873571Y-110466135D02*
X134903809Y-110435897D01*
X134903809Y-110435897D02*
X134964285Y-110405659D01*
X134964285Y-110405659D02*
X135115476Y-110405659D01*
X135115476Y-110405659D02*
X135175952Y-110435897D01*
X135175952Y-110435897D02*
X135206190Y-110466135D01*
X135206190Y-110466135D02*
X135236428Y-110526611D01*
X135236428Y-110526611D02*
X135236428Y-110587087D01*
X135236428Y-110587087D02*
X135206190Y-110677801D01*
X135206190Y-110677801D02*
X134843333Y-111040659D01*
X134843333Y-111040659D02*
X135236428Y-111040659D01*
X140745809Y-103776259D02*
X140745809Y-103141259D01*
X140745809Y-103141259D02*
X140896999Y-103141259D01*
X140896999Y-103141259D02*
X140987714Y-103171497D01*
X140987714Y-103171497D02*
X141048190Y-103231973D01*
X141048190Y-103231973D02*
X141078428Y-103292449D01*
X141078428Y-103292449D02*
X141108666Y-103413401D01*
X141108666Y-103413401D02*
X141108666Y-103504116D01*
X141108666Y-103504116D02*
X141078428Y-103625068D01*
X141078428Y-103625068D02*
X141048190Y-103685544D01*
X141048190Y-103685544D02*
X140987714Y-103746021D01*
X140987714Y-103746021D02*
X140896999Y-103776259D01*
X140896999Y-103776259D02*
X140745809Y-103776259D01*
X141713428Y-103776259D02*
X141350571Y-103776259D01*
X141531999Y-103776259D02*
X141531999Y-103141259D01*
X141531999Y-103141259D02*
X141471523Y-103231973D01*
X141471523Y-103231973D02*
X141411047Y-103292449D01*
X141411047Y-103292449D02*
X141350571Y-103322687D01*
X143394666Y-110151659D02*
X143182999Y-109849278D01*
X143031809Y-110151659D02*
X143031809Y-109516659D01*
X143031809Y-109516659D02*
X143273714Y-109516659D01*
X143273714Y-109516659D02*
X143334190Y-109546897D01*
X143334190Y-109546897D02*
X143364428Y-109577135D01*
X143364428Y-109577135D02*
X143394666Y-109637611D01*
X143394666Y-109637611D02*
X143394666Y-109728325D01*
X143394666Y-109728325D02*
X143364428Y-109788801D01*
X143364428Y-109788801D02*
X143334190Y-109819040D01*
X143334190Y-109819040D02*
X143273714Y-109849278D01*
X143273714Y-109849278D02*
X143031809Y-109849278D01*
X143606333Y-109516659D02*
X143999428Y-109516659D01*
X143999428Y-109516659D02*
X143787761Y-109758563D01*
X143787761Y-109758563D02*
X143878476Y-109758563D01*
X143878476Y-109758563D02*
X143938952Y-109788801D01*
X143938952Y-109788801D02*
X143969190Y-109819040D01*
X143969190Y-109819040D02*
X143999428Y-109879516D01*
X143999428Y-109879516D02*
X143999428Y-110030706D01*
X143999428Y-110030706D02*
X143969190Y-110091182D01*
X143969190Y-110091182D02*
X143938952Y-110121421D01*
X143938952Y-110121421D02*
X143878476Y-110151659D01*
X143878476Y-110151659D02*
X143697047Y-110151659D01*
X143697047Y-110151659D02*
X143636571Y-110121421D01*
X143636571Y-110121421D02*
X143606333Y-110091182D01*
X141870666Y-110091182D02*
X141840428Y-110121421D01*
X141840428Y-110121421D02*
X141749714Y-110151659D01*
X141749714Y-110151659D02*
X141689238Y-110151659D01*
X141689238Y-110151659D02*
X141598523Y-110121421D01*
X141598523Y-110121421D02*
X141538047Y-110060944D01*
X141538047Y-110060944D02*
X141507809Y-110000468D01*
X141507809Y-110000468D02*
X141477571Y-109879516D01*
X141477571Y-109879516D02*
X141477571Y-109788801D01*
X141477571Y-109788801D02*
X141507809Y-109667849D01*
X141507809Y-109667849D02*
X141538047Y-109607373D01*
X141538047Y-109607373D02*
X141598523Y-109546897D01*
X141598523Y-109546897D02*
X141689238Y-109516659D01*
X141689238Y-109516659D02*
X141749714Y-109516659D01*
X141749714Y-109516659D02*
X141840428Y-109546897D01*
X141840428Y-109546897D02*
X141870666Y-109577135D01*
X142475428Y-110151659D02*
X142112571Y-110151659D01*
X142293999Y-110151659D02*
X142293999Y-109516659D01*
X142293999Y-109516659D02*
X142233523Y-109607373D01*
X142233523Y-109607373D02*
X142173047Y-109667849D01*
X142173047Y-109667849D02*
X142112571Y-109698087D01*
X146251459Y-105118933D02*
X145949078Y-105330600D01*
X146251459Y-105481790D02*
X145616459Y-105481790D01*
X145616459Y-105481790D02*
X145616459Y-105239885D01*
X145616459Y-105239885D02*
X145646697Y-105179409D01*
X145646697Y-105179409D02*
X145676935Y-105149171D01*
X145676935Y-105149171D02*
X145737411Y-105118933D01*
X145737411Y-105118933D02*
X145828125Y-105118933D01*
X145828125Y-105118933D02*
X145888601Y-105149171D01*
X145888601Y-105149171D02*
X145918840Y-105179409D01*
X145918840Y-105179409D02*
X145949078Y-105239885D01*
X145949078Y-105239885D02*
X145949078Y-105481790D01*
X145676935Y-104877028D02*
X145646697Y-104846790D01*
X145646697Y-104846790D02*
X145616459Y-104786314D01*
X145616459Y-104786314D02*
X145616459Y-104635123D01*
X145616459Y-104635123D02*
X145646697Y-104574647D01*
X145646697Y-104574647D02*
X145676935Y-104544409D01*
X145676935Y-104544409D02*
X145737411Y-104514171D01*
X145737411Y-104514171D02*
X145797887Y-104514171D01*
X145797887Y-104514171D02*
X145888601Y-104544409D01*
X145888601Y-104544409D02*
X146251459Y-104907266D01*
X146251459Y-104907266D02*
X146251459Y-104514171D01*
X134770659Y-105118933D02*
X134468278Y-105330600D01*
X134770659Y-105481790D02*
X134135659Y-105481790D01*
X134135659Y-105481790D02*
X134135659Y-105239885D01*
X134135659Y-105239885D02*
X134165897Y-105179409D01*
X134165897Y-105179409D02*
X134196135Y-105149171D01*
X134196135Y-105149171D02*
X134256611Y-105118933D01*
X134256611Y-105118933D02*
X134347325Y-105118933D01*
X134347325Y-105118933D02*
X134407801Y-105149171D01*
X134407801Y-105149171D02*
X134438040Y-105179409D01*
X134438040Y-105179409D02*
X134468278Y-105239885D01*
X134468278Y-105239885D02*
X134468278Y-105481790D01*
X134770659Y-104514171D02*
X134770659Y-104877028D01*
X134770659Y-104695600D02*
X134135659Y-104695600D01*
X134135659Y-104695600D02*
X134226373Y-104756076D01*
X134226373Y-104756076D02*
X134286849Y-104816552D01*
X134286849Y-104816552D02*
X134317087Y-104877028D01*
X138713809Y-103776259D02*
X138713809Y-103141259D01*
X138713809Y-103141259D02*
X138864999Y-103141259D01*
X138864999Y-103141259D02*
X138955714Y-103171497D01*
X138955714Y-103171497D02*
X139016190Y-103231973D01*
X139016190Y-103231973D02*
X139046428Y-103292449D01*
X139046428Y-103292449D02*
X139076666Y-103413401D01*
X139076666Y-103413401D02*
X139076666Y-103504116D01*
X139076666Y-103504116D02*
X139046428Y-103625068D01*
X139046428Y-103625068D02*
X139016190Y-103685544D01*
X139016190Y-103685544D02*
X138955714Y-103746021D01*
X138955714Y-103746021D02*
X138864999Y-103776259D01*
X138864999Y-103776259D02*
X138713809Y-103776259D01*
X139318571Y-103201735D02*
X139348809Y-103171497D01*
X139348809Y-103171497D02*
X139409285Y-103141259D01*
X139409285Y-103141259D02*
X139560476Y-103141259D01*
X139560476Y-103141259D02*
X139620952Y-103171497D01*
X139620952Y-103171497D02*
X139651190Y-103201735D01*
X139651190Y-103201735D02*
X139681428Y-103262211D01*
X139681428Y-103262211D02*
X139681428Y-103322687D01*
X139681428Y-103322687D02*
X139651190Y-103413401D01*
X139651190Y-103413401D02*
X139288333Y-103776259D01*
X139288333Y-103776259D02*
X139681428Y-103776259D01*
X138663009Y-106697259D02*
X138663009Y-106062259D01*
X138663009Y-106062259D02*
X138814199Y-106062259D01*
X138814199Y-106062259D02*
X138904914Y-106092497D01*
X138904914Y-106092497D02*
X138965390Y-106152973D01*
X138965390Y-106152973D02*
X138995628Y-106213449D01*
X138995628Y-106213449D02*
X139025866Y-106334401D01*
X139025866Y-106334401D02*
X139025866Y-106425116D01*
X139025866Y-106425116D02*
X138995628Y-106546068D01*
X138995628Y-106546068D02*
X138965390Y-106606544D01*
X138965390Y-106606544D02*
X138904914Y-106667021D01*
X138904914Y-106667021D02*
X138814199Y-106697259D01*
X138814199Y-106697259D02*
X138663009Y-106697259D01*
X139237533Y-106062259D02*
X139630628Y-106062259D01*
X139630628Y-106062259D02*
X139418961Y-106304163D01*
X139418961Y-106304163D02*
X139509676Y-106304163D01*
X139509676Y-106304163D02*
X139570152Y-106334401D01*
X139570152Y-106334401D02*
X139600390Y-106364640D01*
X139600390Y-106364640D02*
X139630628Y-106425116D01*
X139630628Y-106425116D02*
X139630628Y-106576306D01*
X139630628Y-106576306D02*
X139600390Y-106636782D01*
X139600390Y-106636782D02*
X139570152Y-106667021D01*
X139570152Y-106667021D02*
X139509676Y-106697259D01*
X139509676Y-106697259D02*
X139328247Y-106697259D01*
X139328247Y-106697259D02*
X139267771Y-106667021D01*
X139267771Y-106667021D02*
X139237533Y-106636782D01*
D14*
%TO.C,U1*%
X138638500Y-112125100D02*
X138638500Y-111325100D01*
X138638500Y-112125100D02*
X138638500Y-112925100D01*
X141758500Y-112125100D02*
X141758500Y-111325100D01*
X141758500Y-112125100D02*
X141758500Y-112925100D01*
%TO.C,C2*%
X136910080Y-110218100D02*
X136628920Y-110218100D01*
X136910080Y-111238100D02*
X136628920Y-111238100D01*
%TO.C,D1*%
X144576000Y-103085100D02*
X145961000Y-103085100D01*
X145961000Y-100815100D02*
X144576000Y-100815100D01*
X145961000Y-103085100D02*
X145961000Y-100815100D01*
D15*
%TO.C,G\u002A\u002A\u002A*%
G36*
X143399295Y-110943955D02*
G01*
X143418781Y-110963911D01*
X143299129Y-111083638D01*
X143179477Y-111203365D01*
X143300416Y-111324229D01*
X143421355Y-111445092D01*
X143403148Y-111463738D01*
X143391919Y-111474279D01*
X143382920Y-111481039D01*
X143379632Y-111482384D01*
X143375005Y-111479003D01*
X143364283Y-111469401D01*
X143348309Y-111454387D01*
X143327927Y-111434773D01*
X143303981Y-111411367D01*
X143277316Y-111384982D01*
X143256045Y-111363730D01*
X143137767Y-111245075D01*
X143019038Y-111363730D01*
X142990922Y-111391757D01*
X142965035Y-111417425D01*
X142942202Y-111439927D01*
X142923244Y-111458460D01*
X142908983Y-111472217D01*
X142900243Y-111480395D01*
X142897795Y-111482384D01*
X142893185Y-111479184D01*
X142884061Y-111470973D01*
X142876815Y-111463920D01*
X142858351Y-111445455D01*
X142978124Y-111325608D01*
X143097897Y-111205760D01*
X142978129Y-111085917D01*
X142858361Y-110966074D01*
X142879318Y-110945118D01*
X142900274Y-110924161D01*
X143020117Y-111043929D01*
X143139960Y-111163697D01*
X143259884Y-111043848D01*
X143379808Y-110923999D01*
X143399295Y-110943955D01*
G37*
G36*
X143179478Y-110524080D02*
G01*
X143179478Y-110682150D01*
X143402010Y-110682150D01*
X143455915Y-110682190D01*
X143500813Y-110682329D01*
X143537572Y-110682593D01*
X143567066Y-110683011D01*
X143590164Y-110683610D01*
X143607738Y-110684419D01*
X143620658Y-110685464D01*
X143629795Y-110686774D01*
X143636021Y-110688376D01*
X143639116Y-110689687D01*
X143649339Y-110695117D01*
X143654679Y-110698227D01*
X143654803Y-110698331D01*
X143655081Y-110703339D01*
X143655443Y-110717254D01*
X143655874Y-110739107D01*
X143656360Y-110767927D01*
X143656883Y-110802743D01*
X143657429Y-110842584D01*
X143657983Y-110886479D01*
X143658507Y-110931606D01*
X143661100Y-111163772D01*
X143820405Y-111165076D01*
X143979711Y-111166379D01*
X143979711Y-111205760D01*
X143979711Y-111245141D01*
X143820405Y-111246444D01*
X143661100Y-111247748D01*
X143659814Y-111474710D01*
X143659504Y-111527926D01*
X143659202Y-111572148D01*
X143658863Y-111608258D01*
X143658442Y-111637142D01*
X143657896Y-111659683D01*
X143657179Y-111676765D01*
X143656248Y-111689272D01*
X143655058Y-111698090D01*
X143653564Y-111704101D01*
X143651723Y-111708190D01*
X143649489Y-111711240D01*
X143647839Y-111713051D01*
X143637149Y-111724430D01*
X143408313Y-111724430D01*
X143179478Y-111724430D01*
X143179478Y-111884970D01*
X143179478Y-112045511D01*
X143140028Y-112045511D01*
X143100579Y-112045511D01*
X143099276Y-111886205D01*
X143097972Y-111726900D01*
X142865806Y-111724307D01*
X142818927Y-111723761D01*
X142775170Y-111723208D01*
X142735504Y-111722662D01*
X142700901Y-111722140D01*
X142672331Y-111721657D01*
X142650766Y-111721228D01*
X142637175Y-111720868D01*
X142632531Y-111720603D01*
X142629747Y-111715921D01*
X142624454Y-111706011D01*
X142623887Y-111704916D01*
X142622064Y-111700212D01*
X142620552Y-111693206D01*
X142619325Y-111683027D01*
X142618353Y-111668806D01*
X142617610Y-111649670D01*
X142617517Y-111645394D01*
X142700326Y-111645394D01*
X143139960Y-111645394D01*
X143579594Y-111645394D01*
X143579594Y-111205760D01*
X143579594Y-110766126D01*
X143139960Y-110766126D01*
X142700326Y-110766126D01*
X142700326Y-111205760D01*
X142700326Y-111645394D01*
X142617517Y-111645394D01*
X142617068Y-111624749D01*
X142616699Y-111593172D01*
X142616475Y-111554068D01*
X142616369Y-111506566D01*
X142616350Y-111467810D01*
X142616350Y-111245278D01*
X142458280Y-111245278D01*
X142300209Y-111245278D01*
X142300209Y-111205760D01*
X142300209Y-111166242D01*
X142458137Y-111166242D01*
X142616066Y-111166242D01*
X142617443Y-110936679D01*
X142618820Y-110707116D01*
X142630068Y-110695868D01*
X142641316Y-110684620D01*
X142870879Y-110683243D01*
X143100442Y-110681866D01*
X143100442Y-110523937D01*
X143100442Y-110366009D01*
X143139960Y-110366009D01*
X143179478Y-110366009D01*
X143179478Y-110524080D01*
G37*
D14*
%TO.C,R3*%
X141454000Y-108298358D02*
X141454000Y-107823842D01*
X142499000Y-108298358D02*
X142499000Y-107823842D01*
%TO.C,C1*%
X142990500Y-107920520D02*
X142990500Y-108201680D01*
X144010500Y-107920520D02*
X144010500Y-108201680D01*
%TO.C,R2*%
X144375000Y-104775842D02*
X144375000Y-105250358D01*
X145420000Y-104775842D02*
X145420000Y-105250358D01*
%TO.C,R1*%
X134977000Y-104775842D02*
X134977000Y-105250358D01*
X136022000Y-104775842D02*
X136022000Y-105250358D01*
%TO.C,D2*%
X134428500Y-100830100D02*
X134428500Y-103100100D01*
X134428500Y-103100100D02*
X135813500Y-103100100D01*
X135813500Y-100830100D02*
X134428500Y-100830100D01*
%TO.C,D3*%
X134752500Y-106701099D02*
X134752500Y-109421101D01*
X134752500Y-106701099D02*
X136412499Y-106701099D01*
X134752500Y-109421101D02*
X136412500Y-109421100D01*
%TD*%
M02*
