%TF.GenerationSoftware,KiCad,Pcbnew,8.0.5-8.0.5-0~ubuntu22.04.1*%
%TF.CreationDate,2024-10-14T22:25:44-07:00*%
%TF.ProjectId,HallSwitch,48616c6c-5377-4697-9463-682e6b696361,R2*%
%TF.SameCoordinates,Original*%
%TF.FileFunction,Copper,L1,Top*%
%TF.FilePolarity,Positive*%
%FSLAX46Y46*%
G04 Gerber Fmt 4.6, Leading zero omitted, Abs format (unit mm)*
G04 Created by KiCad (PCBNEW 8.0.5-8.0.5-0~ubuntu22.04.1) date 2024-10-14 22:25:44*
%MOMM*%
%LPD*%
G01*
G04 APERTURE LIST*
G04 Aperture macros list*
%AMRoundRect*
0 Rectangle with rounded corners*
0 $1 Rounding radius*
0 $2 $3 $4 $5 $6 $7 $8 $9 X,Y pos of 4 corners*
0 Add a 4 corners polygon primitive as box body*
4,1,4,$2,$3,$4,$5,$6,$7,$8,$9,$2,$3,0*
0 Add four circle primitives for the rounded corners*
1,1,$1+$1,$2,$3*
1,1,$1+$1,$4,$5*
1,1,$1+$1,$6,$7*
1,1,$1+$1,$8,$9*
0 Add four rect primitives between the rounded corners*
20,1,$1+$1,$2,$3,$4,$5,0*
20,1,$1+$1,$4,$5,$6,$7,0*
20,1,$1+$1,$6,$7,$8,$9,0*
20,1,$1+$1,$8,$9,$2,$3,0*%
G04 Aperture macros list end*
%ADD10C,0.300000*%
%TA.AperFunction,NonConductor*%
%ADD11C,0.300000*%
%TD*%
%TA.AperFunction,SMDPad,CuDef*%
%ADD12RoundRect,0.150000X0.150000X-0.512500X0.150000X0.512500X-0.150000X0.512500X-0.150000X-0.512500X0*%
%TD*%
%TA.AperFunction,SMDPad,CuDef*%
%ADD13RoundRect,0.225000X0.225000X0.250000X-0.225000X0.250000X-0.225000X-0.250000X0.225000X-0.250000X0*%
%TD*%
%TA.AperFunction,SMDPad,CuDef*%
%ADD14R,1.600000X1.600000*%
%TD*%
%TA.AperFunction,SMDPad,CuDef*%
%ADD15RoundRect,0.200000X0.275000X-0.200000X0.275000X0.200000X-0.275000X0.200000X-0.275000X-0.200000X0*%
%TD*%
%TA.AperFunction,SMDPad,CuDef*%
%ADD16RoundRect,0.225000X-0.250000X0.225000X-0.250000X-0.225000X0.250000X-0.225000X0.250000X0.225000X0*%
%TD*%
%TA.AperFunction,SMDPad,CuDef*%
%ADD17RoundRect,0.200000X-0.275000X0.200000X-0.275000X-0.200000X0.275000X-0.200000X0.275000X0.200000X0*%
%TD*%
%TA.AperFunction,SMDPad,CuDef*%
%ADD18RoundRect,0.250000X-0.450000X-0.800000X0.450000X-0.800000X0.450000X0.800000X-0.450000X0.800000X0*%
%TD*%
%TA.AperFunction,ComponentPad*%
%ADD19R,1.650000X1.650000*%
%TD*%
%TA.AperFunction,ComponentPad*%
%ADD20C,1.650000*%
%TD*%
%TA.AperFunction,ViaPad*%
%ADD21C,1.016000*%
%TD*%
%TA.AperFunction,Conductor*%
%ADD22C,0.381000*%
%TD*%
%TA.AperFunction,Conductor*%
%ADD23C,0.508000*%
%TD*%
G04 APERTURE END LIST*
D10*
D11*
G36*
X17049728Y-174726532D02*
G01*
X17049728Y-175330034D01*
X18051264Y-175330034D01*
X18051264Y-175647667D01*
X17049728Y-175647667D01*
X17049728Y-176346460D01*
X16639783Y-176346460D01*
X16639783Y-174408899D01*
X18083028Y-174408899D01*
X18083028Y-174726532D01*
X17049728Y-174726532D01*
G37*
G36*
X18064168Y-176346460D02*
G01*
X18064168Y-175933537D01*
X18465676Y-175933537D01*
X18465676Y-176346460D01*
X18064168Y-176346460D01*
G37*
G36*
X19765490Y-176060590D02*
G01*
X19875820Y-176051539D01*
X19975099Y-176024385D01*
X20079648Y-175967906D01*
X20154617Y-175900927D01*
X20218535Y-175815845D01*
X20271403Y-175712662D01*
X20280651Y-175689853D01*
X20637988Y-175823854D01*
X20590854Y-175923965D01*
X20536184Y-176013992D01*
X20473975Y-176093933D01*
X20391872Y-176174452D01*
X20299510Y-176241244D01*
X20197790Y-176294617D01*
X20103873Y-176329932D01*
X20003744Y-176355616D01*
X19897404Y-176371668D01*
X19784852Y-176378089D01*
X19765490Y-176378223D01*
X19650728Y-176374074D01*
X19542681Y-176361628D01*
X19441350Y-176340884D01*
X19324131Y-176303286D01*
X19217404Y-176252722D01*
X19121171Y-176189194D01*
X19035430Y-176112702D01*
X18961225Y-176024409D01*
X18899597Y-175925794D01*
X18850546Y-175816854D01*
X18820361Y-175722270D01*
X18798225Y-175621079D01*
X18784138Y-175513281D01*
X18778101Y-175398876D01*
X18777850Y-175369242D01*
X18781735Y-175252983D01*
X18793390Y-175143673D01*
X18812816Y-175041311D01*
X18848024Y-174923129D01*
X18895374Y-174815804D01*
X18954865Y-174719335D01*
X19026497Y-174633723D01*
X19109664Y-174559804D01*
X19203760Y-174498413D01*
X19308785Y-174449551D01*
X19424740Y-174413218D01*
X19525373Y-174393172D01*
X19633000Y-174381144D01*
X19747623Y-174377135D01*
X19852132Y-174380492D01*
X19969290Y-174393380D01*
X20077445Y-174415935D01*
X20176597Y-174448155D01*
X20266745Y-174490042D01*
X20308443Y-174514611D01*
X20397132Y-174580714D01*
X20473423Y-174659166D01*
X20537317Y-174749968D01*
X20588815Y-174853119D01*
X20612676Y-174917608D01*
X20251865Y-175015875D01*
X20209753Y-174921691D01*
X20146880Y-174841817D01*
X20071708Y-174781621D01*
X19983255Y-174735820D01*
X19885401Y-174706982D01*
X19778143Y-174695107D01*
X19755564Y-174694768D01*
X19656220Y-174700805D01*
X19552183Y-174723109D01*
X19448929Y-174768722D01*
X19362363Y-174835800D01*
X19334204Y-174866489D01*
X19278123Y-174949240D01*
X19235816Y-175047237D01*
X19210516Y-175143370D01*
X19195336Y-175250705D01*
X19190276Y-175369242D01*
X19193887Y-175470518D01*
X19207752Y-175581814D01*
X19232017Y-175681943D01*
X19273469Y-175784646D01*
X19329075Y-175872150D01*
X19338174Y-175883410D01*
X19420529Y-175960926D01*
X19519200Y-176016295D01*
X19618921Y-176046575D01*
X19731134Y-176059898D01*
X19765490Y-176060590D01*
G37*
G36*
X21280698Y-174853585D02*
G01*
X21280698Y-175696801D01*
X21287205Y-175810754D01*
X21312190Y-175922003D01*
X21365025Y-176016642D01*
X21456639Y-176078447D01*
X21547212Y-176092353D01*
X21645922Y-176075254D01*
X21735373Y-176018138D01*
X21776007Y-175970759D01*
X21825455Y-175879071D01*
X21852597Y-175781671D01*
X21862520Y-175682575D01*
X21862860Y-175659082D01*
X21862860Y-174853585D01*
X22252953Y-174853585D01*
X22252953Y-176012449D01*
X22253816Y-176115920D01*
X22256802Y-176222140D01*
X22262549Y-176328346D01*
X22263871Y-176346460D01*
X21891645Y-176346460D01*
X21883728Y-176245356D01*
X21877570Y-176142898D01*
X21875267Y-176057612D01*
X21868319Y-176057612D01*
X21815500Y-176153538D01*
X21747882Y-176238456D01*
X21670295Y-176301792D01*
X21573865Y-176348367D01*
X21474312Y-176372177D01*
X21384921Y-176378223D01*
X21285583Y-176371241D01*
X21185082Y-176346162D01*
X21088629Y-176296147D01*
X21017658Y-176232310D01*
X20956001Y-176139438D01*
X20918135Y-176038759D01*
X20898081Y-175936670D01*
X20890233Y-175821518D01*
X20890109Y-175804002D01*
X20890109Y-174853585D01*
X21280698Y-174853585D01*
G37*
D12*
%TO.P,U1,1,VDD*%
%TO.N,VDD*%
X139248500Y-113262600D03*
%TO.P,U1,2,OUT*%
%TO.N,Net-(J1-Pin_3)*%
X141148500Y-113262600D03*
%TO.P,U1,3,VSS*%
%TO.N,GND*%
X140198500Y-110987600D03*
%TD*%
D13*
%TO.P,C2,1*%
%TO.N,VDD*%
X137544500Y-110728100D03*
%TO.P,C2,2*%
%TO.N,GND*%
X135994500Y-110728100D03*
%TD*%
D14*
%TO.P,D1,1,K*%
%TO.N,Net-(D1-K)*%
X144968500Y-101965100D03*
%TO.P,D1,2,A*%
%TO.N,VDD*%
X141568500Y-101965100D03*
%TD*%
D15*
%TO.P,R3,1*%
%TO.N,VDD*%
X141976500Y-108886100D03*
%TO.P,R3,2*%
%TO.N,Net-(J1-Pin_3)*%
X141976500Y-107236100D03*
%TD*%
D16*
%TO.P,C1,1*%
%TO.N,Net-(J1-Pin_3)*%
X143500500Y-107286100D03*
%TO.P,C1,2*%
%TO.N,GND*%
X143500500Y-108836100D03*
%TD*%
D17*
%TO.P,R2,1*%
%TO.N,Net-(D1-K)*%
X144897500Y-104188100D03*
%TO.P,R2,2*%
%TO.N,Net-(J1-Pin_3)*%
X144897500Y-105838100D03*
%TD*%
%TO.P,R1,1*%
%TO.N,Net-(D2-K)*%
X135499500Y-104188100D03*
%TO.P,R1,2*%
%TO.N,GND*%
X135499500Y-105838100D03*
%TD*%
D14*
%TO.P,D2,1,K*%
%TO.N,Net-(D2-K)*%
X135428500Y-101965100D03*
%TO.P,D2,2,A*%
%TO.N,VDD*%
X138828500Y-101965100D03*
%TD*%
D18*
%TO.P,D3,1,K*%
%TO.N,VDD*%
X135712500Y-108061100D03*
%TO.P,D3,2,A*%
%TO.N,V_{Raw}*%
X140112500Y-108061100D03*
%TD*%
D19*
%TO.P,J1,1,Pin_1*%
%TO.N,GND*%
X137658500Y-105140100D03*
D20*
%TO.P,J1,2,Pin_2*%
%TO.N,V_{Raw}*%
X140198500Y-105140100D03*
%TO.P,J1,3,Pin_3*%
%TO.N,Net-(J1-Pin_3)*%
X142738500Y-105140100D03*
%TD*%
D21*
%TO.N,GND*%
X141185713Y-110962004D03*
X134686700Y-109864500D03*
%TD*%
D22*
%TO.N,VDD*%
X137544500Y-110728100D02*
X139121500Y-110728100D01*
D23*
X141468500Y-101965100D02*
X138928500Y-101965100D01*
D22*
X141976500Y-109585100D02*
X141732000Y-109829600D01*
X135712500Y-108061100D02*
X138928500Y-108061100D01*
X138928500Y-109559700D02*
X138928500Y-108061100D01*
X141732000Y-109829600D02*
X139198400Y-109829600D01*
X138928500Y-108061100D02*
X138928500Y-101965100D01*
X139198400Y-109829600D02*
X138928500Y-109559700D01*
X139248500Y-110855100D02*
X139248500Y-109839100D01*
X139121500Y-110728100D02*
X139248500Y-110855100D01*
X141976500Y-108886100D02*
X141976500Y-109585100D01*
X139248500Y-113262600D02*
X139248500Y-110855100D01*
%TO.N,GND*%
X135499500Y-106435500D02*
X135499500Y-105838100D01*
X134686700Y-109864500D02*
X134686700Y-110448700D01*
X142326796Y-110962004D02*
X141185713Y-110962004D01*
X141185713Y-110962004D02*
X141160117Y-110987600D01*
X135499500Y-105838100D02*
X135499500Y-105812700D01*
X134686700Y-110448700D02*
X134966100Y-110728100D01*
X137658500Y-106206900D02*
X137658500Y-105140100D01*
X134966100Y-110728100D02*
X135994500Y-110728100D01*
X143500500Y-108836100D02*
X143500500Y-109788300D01*
X137302900Y-106562500D02*
X137658500Y-106206900D01*
X141160117Y-110987600D02*
X140198500Y-110987600D01*
X137531500Y-105013100D02*
X137658500Y-105140100D01*
X143500500Y-109788300D02*
X142326796Y-110962004D01*
X135626500Y-106562500D02*
X137302900Y-106562500D01*
X135499500Y-106435500D02*
X135626500Y-106562500D01*
%TO.N,Net-(J1-Pin_3)*%
X143500500Y-106283100D02*
X143500500Y-107286100D01*
X142738500Y-105521100D02*
X143500500Y-106283100D01*
X141544700Y-111871100D02*
X142357500Y-111871100D01*
X144757500Y-109471100D02*
X144757500Y-107286700D01*
X142738500Y-105140100D02*
X142738500Y-105521100D01*
X141148500Y-113262600D02*
X141148500Y-112267300D01*
X141976500Y-106283100D02*
X141976500Y-107236100D01*
X142738500Y-105521100D02*
X141976500Y-106283100D01*
X144757500Y-107286700D02*
X144897500Y-107146700D01*
X144757500Y-107286700D02*
X144758100Y-107286100D01*
X141148500Y-112267300D02*
X141544700Y-111871100D01*
X144758100Y-107286100D02*
X143500500Y-107286100D01*
X144897500Y-107146700D02*
X144897500Y-105838100D01*
X142357500Y-111871100D02*
X144757500Y-109471100D01*
%TO.N,Net-(D2-K)*%
X135499500Y-103152100D02*
X135328500Y-102981100D01*
X135499500Y-103152100D02*
X135499500Y-104188100D01*
X135328500Y-102981100D02*
X135328500Y-101965100D01*
%TO.N,Net-(D1-K)*%
X145068500Y-102981100D02*
X145068500Y-101965100D01*
X144897500Y-104188100D02*
X144897500Y-103152100D01*
X144897500Y-103152100D02*
X145068500Y-102981100D01*
D23*
%TO.N,V_{Raw}*%
X140112500Y-105226100D02*
X140198500Y-105140100D01*
X140112500Y-108061100D02*
X140112500Y-105226100D01*
%TD*%
M02*
