M48
; DRILL file {KiCad 8.0.4-8.0.4-0~ubuntu22.04.1} date 2024-08-18T08:57:33-0700
; FORMAT={-:-/ absolute / metric / decimal}
; #@! TF.CreationDate,2024-08-18T08:57:33-07:00
; #@! TF.GenerationSoftware,Kicad,Pcbnew,8.0.4-8.0.4-0~ubuntu22.04.1
; #@! TF.FileFunction,MixedPlating,1,4
FMAT,2
METRIC
; #@! TA.AperFunction,Plated,PTH,ViaDrill
T1C0.305
; #@! TA.AperFunction,Plated,PTH,ViaDrill
T2C0.406
; #@! TA.AperFunction,Plated,PTH,ComponentDrill
T3C0.600
; #@! TA.AperFunction,Plated,PTH,ComponentDrill
T4C0.800
; #@! TA.AperFunction,Plated,PTH,ComponentDrill
T5C0.950
; #@! TA.AperFunction,Plated,PTH,ComponentDrill
T6C0.991
; #@! TA.AperFunction,Plated,PTH,ComponentDrill
T7C1.000
; #@! TA.AperFunction,Plated,PTH,ComponentDrill
T8C1.067
; #@! TA.AperFunction,Plated,PTH,ComponentDrill
T9C1.092
; #@! TA.AperFunction,Plated,PTH,ComponentDrill
T10C1.100
; #@! TA.AperFunction,Plated,PTH,ComponentDrill
T11C1.194
; #@! TA.AperFunction,Plated,PTH,ComponentDrill
T12C1.295
; #@! TA.AperFunction,Plated,PTH,ComponentDrill
T13C1.750
; #@! TA.AperFunction,NonPlated,NPTH,ComponentDrill
T14C1.750
; #@! TA.AperFunction,NonPlated,NPTH,ComponentDrill
T15C2.700
; #@! TA.AperFunction,NonPlated,NPTH,ComponentDrill
T16C3.400
%
G90
G05
T1
X226.873Y-135.026
X229.21Y-123.622
X229.21Y-126.594
X229.21Y-132.639
X229.235Y-129.616
X232.994Y-123.673
X235.382Y-125.73
X238.735Y-129.388
X241.148Y-131.496
X280.899Y-105.359
X286.512Y-104.267
T2
X223.698Y-134.137
X224.802Y-134.9
X225.387Y-110.439
X225.4Y-112.827
X225.781Y-120.777
X225.806Y-119.634
X225.88Y-94.677
X226.035Y-95.733
X226.746Y-113.767
X227.686Y-110.338
X228.676Y-146.787
X229.006Y-112.624
X229.235Y-98.679
X229.235Y-107.721
X229.26Y-101.676
X229.26Y-104.699
X230.886Y-154.864
X230.988Y-137.566
X233.887Y-124.261
X234.036Y-97.968
X234.641Y-125.015
X234.928Y-98.683
X235.077Y-109.195
X235.683Y-99.437
X236.499Y-100.254
X239.627Y-130.026
X240.382Y-130.781
X243.154Y-104.572
X244.25Y-104.601
X245.005Y-105.355
X245.999Y-105.791
X276.606Y-84.836
X276.606Y-88.392
X276.606Y-91.948
X277.622Y-83.058
X277.622Y-86.614
X277.622Y-90.17
X278.793Y-144.425
X280.695Y-143.281
X282.702Y-94.234
X282.702Y-95.25
X282.702Y-96.266
X283.972Y-139.878
X283.972Y-144.12
X285.242Y-120.65
X285.242Y-128.778
X287.325Y-146.482
X287.528Y-107.848
X287.528Y-110.388
X288.595Y-141.249
X289.052Y-112.828
X289.052Y-117.221
X289.066Y-100.814
X289.865Y-142.824
X290.83Y-109.068
X290.83Y-111.633
X291.084Y-117.221
X291.846Y-137.947
X292.43Y-134.823
X292.43Y-110.363
X292.456Y-105.41
X293.878Y-137.947
X295.783Y-111.633
X295.783Y-109.093
X296.738Y-140.435
X297.18Y-110.388
X303.174Y-83.515
X303.174Y-94.844
X311.15Y-87.122
X311.15Y-89.154
X311.15Y-91.186
X312.903Y-142.011
T3
X240.697Y-139.819
X240.697Y-140.974
X240.697Y-142.129
X240.697Y-143.284
X240.697Y-144.439
X240.697Y-145.594
X240.697Y-146.749
X240.697Y-147.904
X240.697Y-149.059
X241.697Y-139.241
X241.697Y-140.396
X241.697Y-141.551
X241.697Y-142.706
X241.697Y-143.861
X241.697Y-145.016
X241.697Y-146.171
X241.697Y-147.326
X241.697Y-148.481
X241.697Y-149.636
X255.912Y-139.819
X255.912Y-140.974
X255.912Y-142.129
X255.912Y-143.284
X255.912Y-144.439
X255.912Y-145.594
X255.912Y-146.749
X255.912Y-147.904
X255.912Y-149.059
X256.912Y-139.241
X256.912Y-140.396
X256.912Y-141.551
X256.912Y-142.706
X256.912Y-143.861
X256.912Y-145.016
X256.912Y-146.171
X256.912Y-147.326
X256.912Y-148.481
X256.912Y-149.636
T4
X273.05Y-84.785
X273.05Y-88.285
X273.05Y-93.98
X273.05Y-97.48
T6
X312.456Y-156.286
X316.956Y-156.286
X322.108Y-156.286
X326.608Y-156.286
T7
X302.422Y-103.124
X307.422Y-103.124
T8
X281.407Y-147.32
X283.947Y-147.32
X291.541Y-147.295
X294.081Y-147.295
X301.625Y-147.32
X304.165Y-147.32
X306.705Y-147.32
T9
X327.304Y-105.816
X327.304Y-108.356
X327.304Y-110.896
X327.304Y-113.436
X327.304Y-121.056
X327.304Y-123.596
X327.304Y-126.136
X327.304Y-128.676
X327.304Y-131.216
X327.304Y-133.756
T10
X267.741Y-148.366
X267.741Y-156.566
X272.821Y-148.366
X272.821Y-156.566
T11
X246.786Y-85.674
X246.786Y-90.674
X251.786Y-85.674
X251.786Y-90.674
T12
X311.206Y-153.786
X318.206Y-153.786
X320.858Y-153.786
X327.858Y-153.786
T13
X241.197Y-156.316
X256.412Y-156.316
T14
X239.197Y-138.286
X242.697Y-151.536
X254.412Y-138.286
X257.912Y-151.536
T15
X229.0Y-84.0
X229.0Y-142.0
X320.999Y-84.0
X320.999Y-142.0
T16
X280.007Y-155.96
X285.347Y-155.96
X290.141Y-155.935
X295.481Y-155.935
X300.225Y-155.96
X308.105Y-155.96
T5
X237.947Y-140.486G85X237.947Y-142.286
G05
X237.947Y-149.486G85X237.947Y-151.286
G05
X244.447Y-137.386G85X244.447Y-139.186
G05
X244.447Y-146.886G85X244.447Y-148.686
G05
X253.162Y-140.486G85X253.162Y-142.286
G05
X253.162Y-149.486G85X253.162Y-151.286
G05
X259.662Y-137.386G85X259.662Y-139.186
G05
X259.662Y-146.886G85X259.662Y-148.686
G05
M30
