%TF.GenerationSoftware,KiCad,Pcbnew,8.0.4-8.0.4-0~ubuntu22.04.1*%
%TF.CreationDate,2024-08-08T22:11:27-07:00*%
%TF.ProjectId,NX-J401-Adapter,4e582d4a-3430-4312-9d41-646170746572,3*%
%TF.SameCoordinates,Original*%
%TF.FileFunction,Copper,L4,Bot*%
%TF.FilePolarity,Positive*%
%FSLAX46Y46*%
G04 Gerber Fmt 4.6, Leading zero omitted, Abs format (unit mm)*
G04 Created by KiCad (PCBNEW 8.0.4-8.0.4-0~ubuntu22.04.1) date 2024-08-08 22:11:27*
%MOMM*%
%LPD*%
G01*
G04 APERTURE LIST*
%ADD10C,0.300000*%
%TA.AperFunction,NonConductor*%
%ADD11C,0.300000*%
%TD*%
%TA.AperFunction,ComponentPad*%
%ADD12R,1.600000X1.600000*%
%TD*%
%TA.AperFunction,ComponentPad*%
%ADD13C,1.600000*%
%TD*%
%TA.AperFunction,ComponentPad*%
%ADD14C,1.498600*%
%TD*%
%TA.AperFunction,ComponentPad*%
%ADD15C,1.803400*%
%TD*%
%TA.AperFunction,ComponentPad*%
%ADD16C,2.200000*%
%TD*%
%TA.AperFunction,ComponentPad*%
%ADD17R,1.778000X1.778000*%
%TD*%
%TA.AperFunction,ComponentPad*%
%ADD18C,1.905000*%
%TD*%
%TA.AperFunction,ComponentPad*%
%ADD19C,1.778000*%
%TD*%
%TA.AperFunction,ComponentPad*%
%ADD20R,2.000000X2.000000*%
%TD*%
%TA.AperFunction,ComponentPad*%
%ADD21C,2.000000*%
%TD*%
%TA.AperFunction,ComponentPad*%
%ADD22C,1.701800*%
%TD*%
%TA.AperFunction,ComponentPad*%
%ADD23R,1.905000X1.600200*%
%TD*%
%TA.AperFunction,ComponentPad*%
%ADD24O,1.905000X1.600200*%
%TD*%
%TA.AperFunction,ComponentPad*%
%ADD25C,0.889000*%
%TD*%
%TA.AperFunction,ComponentPad*%
%ADD26O,1.660000X3.460000*%
%TD*%
%TA.AperFunction,ComponentPad*%
%ADD27C,2.625000*%
%TD*%
%TA.AperFunction,ViaPad*%
%ADD28C,0.812800*%
%TD*%
%TA.AperFunction,ViaPad*%
%ADD29C,0.711200*%
%TD*%
%TA.AperFunction,Conductor*%
%ADD30C,0.381000*%
%TD*%
%TA.AperFunction,Conductor*%
%ADD31C,0.254000*%
%TD*%
%TA.AperFunction,Conductor*%
%ADD32C,0.508000*%
%TD*%
G04 APERTURE END LIST*
D10*
D11*
G36*
X328547006Y-81828330D02*
G01*
X328878200Y-81828330D01*
X328878200Y-82123619D01*
X328547006Y-82123619D01*
X328547006Y-82280057D01*
X328302275Y-82280057D01*
X328302275Y-82123619D01*
X327381968Y-82123619D01*
X327381968Y-81828330D01*
X327662603Y-81828330D01*
X328302275Y-81828330D01*
X328302275Y-81437785D01*
X327662603Y-81828330D01*
X327381968Y-81828330D01*
X327381968Y-81775573D01*
X328297878Y-81228958D01*
X328547006Y-81228958D01*
X328547006Y-81828330D01*
G37*
D10*
D11*
X33217368Y-89005474D02*
X33471368Y-89090141D01*
X33471368Y-89090141D02*
X33556034Y-89174807D01*
X33556034Y-89174807D02*
X33640701Y-89344141D01*
X33640701Y-89344141D02*
X33640701Y-89598141D01*
X33640701Y-89598141D02*
X33556034Y-89767474D01*
X33556034Y-89767474D02*
X33471368Y-89852141D01*
X33471368Y-89852141D02*
X33302034Y-89936807D01*
X33302034Y-89936807D02*
X32624701Y-89936807D01*
X32624701Y-89936807D02*
X32624701Y-88158807D01*
X32624701Y-88158807D02*
X33217368Y-88158807D01*
X33217368Y-88158807D02*
X33386701Y-88243474D01*
X33386701Y-88243474D02*
X33471368Y-88328141D01*
X33471368Y-88328141D02*
X33556034Y-88497474D01*
X33556034Y-88497474D02*
X33556034Y-88666807D01*
X33556034Y-88666807D02*
X33471368Y-88836141D01*
X33471368Y-88836141D02*
X33386701Y-88920807D01*
X33386701Y-88920807D02*
X33217368Y-89005474D01*
X33217368Y-89005474D02*
X32624701Y-89005474D01*
X34402701Y-89767474D02*
X34487368Y-89852141D01*
X34487368Y-89852141D02*
X34402701Y-89936807D01*
X34402701Y-89936807D02*
X34318034Y-89852141D01*
X34318034Y-89852141D02*
X34402701Y-89767474D01*
X34402701Y-89767474D02*
X34402701Y-89936807D01*
X36265368Y-89767474D02*
X36180701Y-89852141D01*
X36180701Y-89852141D02*
X35926701Y-89936807D01*
X35926701Y-89936807D02*
X35757368Y-89936807D01*
X35757368Y-89936807D02*
X35503368Y-89852141D01*
X35503368Y-89852141D02*
X35334035Y-89682807D01*
X35334035Y-89682807D02*
X35249368Y-89513474D01*
X35249368Y-89513474D02*
X35164701Y-89174807D01*
X35164701Y-89174807D02*
X35164701Y-88920807D01*
X35164701Y-88920807D02*
X35249368Y-88582141D01*
X35249368Y-88582141D02*
X35334035Y-88412807D01*
X35334035Y-88412807D02*
X35503368Y-88243474D01*
X35503368Y-88243474D02*
X35757368Y-88158807D01*
X35757368Y-88158807D02*
X35926701Y-88158807D01*
X35926701Y-88158807D02*
X36180701Y-88243474D01*
X36180701Y-88243474D02*
X36265368Y-88328141D01*
X37789368Y-88751474D02*
X37789368Y-89936807D01*
X37027368Y-88751474D02*
X37027368Y-89682807D01*
X37027368Y-89682807D02*
X37112035Y-89852141D01*
X37112035Y-89852141D02*
X37281368Y-89936807D01*
X37281368Y-89936807D02*
X37535368Y-89936807D01*
X37535368Y-89936807D02*
X37704701Y-89852141D01*
X37704701Y-89852141D02*
X37789368Y-89767474D01*
D12*
%TO.P,C2,1*%
%TO.N,/+18V_OUT*%
X273050000Y-97536000D03*
D13*
%TO.P,C2,2*%
%TO.N,GND*%
X273050000Y-94036000D03*
%TD*%
D14*
%TO.P,SW2,1,1*%
%TO.N,/~{REC}*%
X322108000Y-156285700D03*
%TO.P,SW2,2,2*%
%TO.N,/RTN*%
X326608001Y-156285700D03*
D15*
%TO.P,SW2,3*%
%TO.N,N/C*%
X320858001Y-153785824D03*
%TO.P,SW2,4*%
X327858000Y-153785824D03*
%TD*%
D12*
%TO.P,C1,1*%
%TO.N,/+18V_OUT*%
X273050000Y-88266651D03*
D13*
%TO.P,C1,2*%
%TO.N,GND*%
X273050000Y-84766651D03*
%TD*%
D16*
%TO.P,J6,1,Pin_1*%
%TO.N,/V_BAT*%
X267741400Y-148365600D03*
X267741400Y-156565600D03*
%TO.P,J6,2,Pin_2*%
%TO.N,GND*%
X272821400Y-148365600D03*
X272821400Y-156565600D03*
%TD*%
D17*
%TO.P,J9,1,Pin_1*%
%TO.N,/RTN*%
X306705000Y-147320000D03*
D18*
%TO.P,J9,2,Pin_2*%
%TO.N,/UART2_RXD*%
X304165000Y-147320000D03*
D19*
%TO.P,J9,3,Pin_3*%
%TO.N,/UART2_TXD*%
X301625000Y-147320000D03*
%TD*%
D17*
%TO.P,J8,1,Pin_1*%
%TO.N,/CAN_L*%
X294081200Y-147294600D03*
D19*
%TO.P,J8,2,Pin_2*%
%TO.N,/CAN_H*%
X291541200Y-147294600D03*
%TD*%
D14*
%TO.P,SW1,1,1*%
%TO.N,/~{SYS_RESET}*%
X312456000Y-156285700D03*
%TO.P,SW1,2,2*%
%TO.N,/RTN*%
X316956001Y-156285700D03*
D15*
%TO.P,SW1,3*%
%TO.N,N/C*%
X311206001Y-153785824D03*
%TO.P,SW1,4*%
X318206000Y-153785824D03*
%TD*%
D20*
%TO.P,C13,1*%
%TO.N,/Power Supply/V_IN*%
X317169800Y-95788877D03*
D21*
%TO.P,C13,2*%
%TO.N,GND*%
X317169800Y-90788877D03*
%TD*%
D22*
%TO.P,J4,1,Pin_1*%
%TO.N,/+18V_OUT*%
X246786400Y-89150200D03*
X251786400Y-89150200D03*
%TO.P,J4,2,Pin_2*%
%TO.N,GND*%
X246786400Y-84150200D03*
X251786400Y-84150200D03*
%TD*%
D17*
%TO.P,J7,1,Pin_1*%
%TO.N,/CAN_L*%
X283946600Y-147320000D03*
D19*
%TO.P,J7,2,Pin_2*%
%TO.N,/CAN_H*%
X281406600Y-147320000D03*
%TD*%
D23*
%TO.P,J11,1,Pin_1*%
%TO.N,/RTN*%
X327304400Y-133756400D03*
D24*
%TO.P,J11,2,Pin_2*%
%TO.N,/UART2_RXD*%
X327304400Y-131216400D03*
%TO.P,J11,3,Pin_3*%
%TO.N,/UART2_TXD*%
X327304400Y-128676400D03*
%TO.P,J11,4,Pin_4*%
%TO.N,/~{SYS_RESET}*%
X327304400Y-126136400D03*
%TO.P,J11,5,Pin_5*%
%TO.N,/RTN*%
X327304400Y-123596400D03*
%TO.P,J11,6,Pin_6*%
%TO.N,/~{REC}*%
X327304400Y-121056400D03*
%TD*%
D23*
%TO.P,J10,1,Pin_1*%
%TO.N,GNDD*%
X327304400Y-113436400D03*
D24*
%TO.P,J10,2,Pin_2*%
%TO.N,/3V3_CAN*%
X327304400Y-110896400D03*
%TO.P,J10,3,Pin_3*%
%TO.N,/CAN_TX*%
X327304400Y-108356400D03*
%TO.P,J10,4,Pin_4*%
%TO.N,/CAN_RX*%
X327304400Y-105816400D03*
%TD*%
D25*
%TO.P,J3,1,D2+*%
%TO.N,/MIPI-HDMI-1/CAM_MCLK*%
X241697000Y-149636400D03*
%TO.P,J3,2,D2S*%
%TO.N,/MIPI-HDMI-1/GND_MIPI*%
X240697000Y-149058900D03*
%TO.P,J3,3,D2-*%
%TO.N,/MIPI-HDMI-1/PWR_DN_LS*%
X241697000Y-148481400D03*
%TO.P,J3,4,D1+*%
%TO.N,/MIPI-HDMI-1/CAM_CK_P*%
X240697000Y-147903900D03*
%TO.P,J3,5,D1S*%
%TO.N,/MIPI-HDMI-1/GND_MIPI*%
X241697000Y-147326400D03*
%TO.P,J3,6,D1-*%
%TO.N,/MIPI-HDMI-1/CAM_CK_N*%
X240697000Y-146748900D03*
%TO.P,J3,7,D0+*%
%TO.N,/MIPI-HDMI-1/CAM_D1_P*%
X241697000Y-146171400D03*
%TO.P,J3,8,D0S*%
%TO.N,/MIPI-HDMI-1/GND_MIPI*%
X240697000Y-145593900D03*
%TO.P,J3,9,D0-*%
%TO.N,/MIPI-HDMI-1/CAM_D1_N*%
X241697000Y-145016400D03*
%TO.P,J3,10,CK+*%
%TO.N,/MIPI-HDMI-1/CAM_D0_P*%
X240697000Y-144438900D03*
%TO.P,J3,11,CKS*%
%TO.N,/MIPI-HDMI-1/GND_MIPI*%
X241697000Y-143861400D03*
%TO.P,J3,12,CK-*%
%TO.N,/MIPI-HDMI-1/CAM_D0_N*%
X240697000Y-143283900D03*
%TO.P,J3,13,CEC*%
%TO.N,unconnected-(J3-CEC-Pad13)*%
X241697000Y-142706400D03*
%TO.P,J3,14,UTILITY*%
%TO.N,unconnected-(J3-UTILITY-Pad14)*%
X240697000Y-142128900D03*
%TO.P,J3,15,SCL*%
%TO.N,/MIPI-HDMI-1/CAM_SCL*%
X241697000Y-141551400D03*
%TO.P,J3,16,SDA*%
%TO.N,/MIPI-HDMI-1/CAM_SDA*%
X240697000Y-140973900D03*
%TO.P,J3,17,GND*%
%TO.N,/MIPI-HDMI-1/GND_MIPI*%
X241697000Y-140396400D03*
%TO.P,J3,18,+5V*%
%TO.N,/MIPI-HDMI-1/CAM_3V3*%
X240697000Y-139818900D03*
%TO.P,J3,19,HPD*%
%TO.N,unconnected-(J3-HPD-Pad19)*%
X241697000Y-139241400D03*
D26*
%TO.P,J3,SH,SH*%
%TO.N,/MIPI-HDMI-1/GND_MIPI*%
X237947000Y-141386400D03*
X237947000Y-150386400D03*
D27*
X241197000Y-156316400D03*
D26*
X244447000Y-138286400D03*
X244447000Y-147786400D03*
%TD*%
D25*
%TO.P,J5,1,D2+*%
%TO.N,/MIPI-HDMI-2/CAM_MCLK*%
X256911600Y-149636400D03*
%TO.P,J5,2,D2S*%
%TO.N,/MIPI-HDMI-2/GND_MIPI*%
X255911600Y-149058900D03*
%TO.P,J5,3,D2-*%
%TO.N,/MIPI-HDMI-2/PWR_DN_LS*%
X256911600Y-148481400D03*
%TO.P,J5,4,D1+*%
%TO.N,/MIPI-HDMI-2/CAM_CK_P*%
X255911600Y-147903900D03*
%TO.P,J5,5,D1S*%
%TO.N,/MIPI-HDMI-2/GND_MIPI*%
X256911600Y-147326400D03*
%TO.P,J5,6,D1-*%
%TO.N,/MIPI-HDMI-2/CAM_CK_N*%
X255911600Y-146748900D03*
%TO.P,J5,7,D0+*%
%TO.N,/MIPI-HDMI-2/CAM_D1_P*%
X256911600Y-146171400D03*
%TO.P,J5,8,D0S*%
%TO.N,/MIPI-HDMI-2/GND_MIPI*%
X255911600Y-145593900D03*
%TO.P,J5,9,D0-*%
%TO.N,/MIPI-HDMI-2/CAM_D1_N*%
X256911600Y-145016400D03*
%TO.P,J5,10,CK+*%
%TO.N,/MIPI-HDMI-2/CAM_D0_P*%
X255911600Y-144438900D03*
%TO.P,J5,11,CKS*%
%TO.N,/MIPI-HDMI-2/GND_MIPI*%
X256911600Y-143861400D03*
%TO.P,J5,12,CK-*%
%TO.N,/MIPI-HDMI-2/CAM_D0_N*%
X255911600Y-143283900D03*
%TO.P,J5,13,CEC*%
%TO.N,unconnected-(J5-CEC-Pad13)*%
X256911600Y-142706400D03*
%TO.P,J5,14,UTILITY*%
%TO.N,unconnected-(J5-UTILITY-Pad14)*%
X255911600Y-142128900D03*
%TO.P,J5,15,SCL*%
%TO.N,/MIPI-HDMI-2/CAM_SCL*%
X256911600Y-141551400D03*
%TO.P,J5,16,SDA*%
%TO.N,/MIPI-HDMI-2/CAM_SDA*%
X255911600Y-140973900D03*
%TO.P,J5,17,GND*%
%TO.N,/MIPI-HDMI-2/GND_MIPI*%
X256911600Y-140396400D03*
%TO.P,J5,18,+5V*%
%TO.N,/MIPI-HDMI-2/CAM_3V3*%
X255911600Y-139818900D03*
%TO.P,J5,19,HPD*%
%TO.N,unconnected-(J5-HPD-Pad19)*%
X256911600Y-139241400D03*
D26*
%TO.P,J5,SH,SH*%
%TO.N,/MIPI-HDMI-2/GND_MIPI*%
X253161600Y-141386400D03*
X253161600Y-150386400D03*
D27*
X256411600Y-156316400D03*
D26*
X259661600Y-138286400D03*
X259661600Y-147786400D03*
%TD*%
D28*
%TO.N,GND*%
X289052000Y-117221010D03*
X282702000Y-96266000D03*
X289458400Y-105664000D03*
X300075600Y-103073200D03*
X283413200Y-104902000D03*
X282701982Y-94234000D03*
X290753800Y-99237800D03*
X303174400Y-83515200D03*
X300075600Y-101092000D03*
X295656000Y-106172000D03*
X285242000Y-128778000D03*
X230886000Y-154863800D03*
X292617317Y-100288314D03*
X283413200Y-102819200D03*
X282702000Y-95250000D03*
X303174400Y-94843600D03*
X291084000Y-117221000D03*
%TO.N,/+18V_OUT*%
X277622000Y-91948000D03*
X277622000Y-84836000D03*
X277622000Y-86614000D03*
X277622000Y-83058000D03*
X300075600Y-99060000D03*
X277622000Y-90170000D03*
X277622000Y-88392000D03*
%TO.N,/Power Supply/V_IN*%
X292430204Y-110362988D03*
X311150000Y-89154000D03*
X295783000Y-111633000D03*
X298043596Y-97332802D03*
X311150000Y-87122000D03*
X295783034Y-109093000D03*
X297180008Y-110388408D03*
X311150000Y-91186000D03*
%TO.N,Net-(U2-I_{SEN})*%
X292404800Y-103505000D03*
X285750000Y-101346000D03*
%TO.N,/MIPI-HDMI-2/GND_MIPI*%
X229235000Y-98679000D03*
X229260400Y-104698800D03*
X229235000Y-107721400D03*
X229260400Y-101676200D03*
D29*
%TO.N,/MIPI-HDMI-2/CAM_D0_N*%
X245044850Y-105294050D03*
%TO.N,/MIPI-HDMI-2/CAM_D0_P*%
X244362350Y-104611550D03*
%TO.N,/MIPI-HDMI-2/CAM_CK_N*%
X235672250Y-99325050D03*
%TO.N,/MIPI-HDMI-2/CAM_CK_P*%
X234989750Y-98642550D03*
D28*
%TO.N,/MIPI-HDMI-2/PWR_DN_LS*%
X227685600Y-110337600D03*
X227685600Y-113537998D03*
D29*
%TO.N,/MIPI-HDMI-2/CAM_MCLK*%
X225374200Y-112623600D03*
D28*
X225386900Y-110439200D03*
%TO.N,/MIPI-HDMI-2/CAM_SCL*%
X235077000Y-109194600D03*
X226034600Y-95732600D03*
%TO.N,/MIPI-HDMI-2/CAM_SDA*%
X225880128Y-94677041D03*
X236982000Y-110236000D03*
X255981200Y-129184400D03*
D29*
%TO.N,/MIPI-HDMI-1/GND_MIPI*%
X229209600Y-132638800D03*
X229209600Y-126593600D03*
X229235000Y-129616200D03*
X229209600Y-123621800D03*
%TO.N,/MIPI-HDMI-1/CAM_D0_N*%
X240422050Y-130744850D03*
%TO.N,/MIPI-HDMI-1/CAM_D0_P*%
X239739550Y-130062350D03*
%TO.N,/MIPI-HDMI-1/CAM_CK_N*%
X234402250Y-125055250D03*
%TO.N,/MIPI-HDMI-1/CAM_CK_P*%
X233719750Y-124372750D03*
D28*
%TO.N,/MIPI-HDMI-1/PWR_DN_LS*%
X228676200Y-146786600D03*
X224802358Y-134899999D03*
%TO.N,/MIPI-HDMI-1/CAM_MCLK*%
X223697800Y-134137400D03*
D29*
%TO.N,/MIPI-HDMI-1/CAM_SCL*%
X226872800Y-135026400D03*
D28*
X225780600Y-120777000D03*
%TO.N,/MIPI-HDMI-1/CAM_SDA*%
X230987600Y-137566400D03*
X225806000Y-119634000D03*
%TO.N,/3V3_CAN*%
X286054800Y-142773400D03*
X292151351Y-133123811D03*
%TO.N,GNDD*%
X281330400Y-141249400D03*
X292176200Y-137388600D03*
X296240200Y-140284200D03*
X296240200Y-142316200D03*
X294106600Y-139319000D03*
X289864800Y-142824200D03*
X296214800Y-144348200D03*
X288569400Y-137922000D03*
X281279600Y-143230600D03*
X288594800Y-141249400D03*
%TO.N,/V_BAT*%
X287528000Y-107848400D03*
X285242000Y-120650000D03*
X290830000Y-111633000D03*
X289052000Y-112828307D03*
X287528000Y-110388400D03*
X290830000Y-109067600D03*
%TO.N,/Power Supply/SW*%
X291084000Y-88646000D03*
X295097200Y-86969600D03*
X293116000Y-88595200D03*
X292100000Y-86004400D03*
X293116000Y-86004400D03*
X295097200Y-89154000D03*
X295097200Y-91490800D03*
X291084000Y-86004400D03*
X292100000Y-88646000D03*
%TO.N,/CAN_L*%
X278792700Y-144425300D03*
X287324800Y-146481800D03*
%TO.N,/~{REC}*%
X311912000Y-137414000D03*
%TD*%
D30*
%TO.N,GND*%
X270332200Y-154076400D02*
X269138400Y-154076400D01*
X269138400Y-154076400D02*
X231673400Y-154076400D01*
X272821400Y-156565600D02*
X270332200Y-154076400D01*
X231673400Y-154076400D02*
X230886000Y-154863800D01*
%TO.N,/+18V_OUT*%
X300075600Y-99060000D02*
X293979600Y-99060000D01*
X292455600Y-97536000D02*
X273050000Y-97536000D01*
X293979600Y-99060000D02*
X292455600Y-97536000D01*
%TO.N,Net-(U2-I_{SEN})*%
X290245800Y-101346000D02*
X292404800Y-103505000D01*
X285750000Y-101346000D02*
X290245800Y-101346000D01*
D31*
%TO.N,/MIPI-HDMI-2/CAM_D0_N*%
X244721561Y-105294050D02*
X244424200Y-105591411D01*
X251742736Y-123618251D02*
X251742736Y-124402315D01*
X250621800Y-119270367D02*
X250621800Y-120228682D01*
X250621800Y-112797788D02*
X250621800Y-115460367D01*
X250621800Y-126307315D02*
X250621800Y-143607988D01*
X253415800Y-116984367D02*
X253415800Y-117365367D01*
X250621800Y-143607988D02*
X251844612Y-144830800D01*
X244424200Y-106600188D02*
X250621800Y-112797788D01*
X251844612Y-144830800D02*
X253793188Y-144830800D01*
X250621800Y-120228682D02*
X250621800Y-122497315D01*
X245044850Y-105294050D02*
X244721561Y-105294050D01*
X252399800Y-118381367D02*
X251129800Y-118381367D01*
X250621800Y-125523251D02*
X250621800Y-126307315D01*
X244424200Y-105591411D02*
X244424200Y-106600188D01*
X255016589Y-143607399D02*
X255588101Y-143607399D01*
X251129800Y-115968367D02*
X252399800Y-115968367D01*
X250621800Y-118889367D02*
X250621800Y-119270367D01*
X255588101Y-143607399D02*
X255911600Y-143283900D01*
X253793188Y-144830800D02*
X255016589Y-143607399D01*
X250928268Y-122803783D02*
G75*
G02*
X251742817Y-123618251I32J-814517D01*
G01*
X251742736Y-124402315D02*
G75*
G02*
X250928268Y-125216736I-814436J15D01*
G01*
X250621800Y-122497315D02*
G75*
G03*
X250928268Y-122803800I306500J15D01*
G01*
X253415800Y-117365367D02*
G75*
G02*
X252399800Y-118381400I-1016000J-33D01*
G01*
X252399800Y-115968367D02*
G75*
G02*
X253415833Y-116984367I0J-1016033D01*
G01*
X250928268Y-125216783D02*
G75*
G03*
X250621883Y-125523251I32J-306417D01*
G01*
X250621800Y-115460367D02*
G75*
G03*
X251129800Y-115968400I508000J-33D01*
G01*
X251129800Y-118381367D02*
G75*
G03*
X250621767Y-118889367I0J-508033D01*
G01*
%TO.N,/MIPI-HDMI-2/CAM_D0_P*%
X243916200Y-106810612D02*
X250113800Y-113008212D01*
X255227011Y-144115401D02*
X255588101Y-144115401D01*
X255588101Y-144115401D02*
X255911600Y-144438900D01*
X250113800Y-125523251D02*
X250113800Y-126307315D01*
X250113800Y-120228682D02*
X250113800Y-122497315D01*
X250113800Y-143818412D02*
X251634188Y-145338800D01*
X251234736Y-123618251D02*
X251234736Y-124402315D01*
X244362350Y-104934839D02*
X243916200Y-105380989D01*
X252907800Y-116984367D02*
X252907800Y-117365367D01*
X254003612Y-145338800D02*
X255227011Y-144115401D01*
X250113800Y-126307315D02*
X250113800Y-143818412D01*
X251634188Y-145338800D02*
X254003612Y-145338800D01*
X244362350Y-104611550D02*
X244362350Y-104934839D01*
X250113800Y-119270367D02*
X250113800Y-120228682D01*
X250113800Y-118889367D02*
X250113800Y-119270367D01*
X250113800Y-113008212D02*
X250113800Y-115460367D01*
X252399800Y-117873367D02*
X251129800Y-117873367D01*
X243916200Y-105380989D02*
X243916200Y-106810612D01*
X251129800Y-116476367D02*
X252399800Y-116476367D01*
X252399800Y-116476367D02*
G75*
G02*
X252907833Y-116984367I0J-508033D01*
G01*
X252907800Y-117365367D02*
G75*
G02*
X252399800Y-117873400I-508000J-33D01*
G01*
X250113800Y-115460367D02*
G75*
G03*
X251129800Y-116476400I1016000J-33D01*
G01*
X251129800Y-117873367D02*
G75*
G03*
X250113767Y-118889367I0J-1016033D01*
G01*
X251234736Y-124402315D02*
G75*
G02*
X250928268Y-124708736I-306436J15D01*
G01*
X250928268Y-123311783D02*
G75*
G02*
X251234717Y-123618251I32J-306417D01*
G01*
X250928268Y-124708783D02*
G75*
G03*
X250113783Y-125523251I32J-814517D01*
G01*
X250113800Y-122497315D02*
G75*
G03*
X250928268Y-123311800I814500J15D01*
G01*
%TO.N,/MIPI-HDMI-2/CAM_CK_N*%
X240445940Y-108122771D02*
X240031799Y-108536913D01*
X235153200Y-101393188D02*
X235153200Y-99520811D01*
X239188705Y-105428694D02*
X237143499Y-103383487D01*
X235153200Y-99520811D02*
X235348961Y-99325050D01*
X255911600Y-146748900D02*
X255588101Y-147072399D01*
X235348961Y-99325050D02*
X235672250Y-99325050D01*
X239313379Y-108536912D02*
X239043971Y-108267504D01*
X239043972Y-107549086D02*
X239458112Y-107134943D01*
X248208800Y-114448788D02*
X241882784Y-108122772D01*
X237143499Y-103383487D02*
X235153200Y-101393188D01*
X250936611Y-147072399D02*
X248208800Y-144344588D01*
X239458113Y-105698101D02*
X239188705Y-105428694D01*
X241882784Y-108122772D02*
X241882782Y-108122771D01*
X248208800Y-144344588D02*
X248208800Y-114448788D01*
X255588101Y-147072399D02*
X250936611Y-147072399D01*
X239043971Y-108267504D02*
G75*
G02*
X239043976Y-107549090I359229J359204D01*
G01*
X240031799Y-108536913D02*
G75*
G02*
X239313390Y-108536902I-359199J359213D01*
G01*
X239458112Y-107134943D02*
G75*
G03*
X239458135Y-105698080I-718412J718443D01*
G01*
X241882782Y-108122771D02*
G75*
G03*
X240445940Y-108122771I-718421J-718423D01*
G01*
%TO.N,/MIPI-HDMI-2/CAM_CK_P*%
X238684759Y-107189872D02*
X239098901Y-106775731D01*
X255588101Y-147580401D02*
X250726189Y-147580401D01*
X247700800Y-144555012D02*
X247700800Y-114659212D01*
X250726189Y-147580401D02*
X247700800Y-144555012D01*
X234989750Y-98965839D02*
X234989750Y-98642550D01*
X236784287Y-103742699D02*
X234645200Y-101603612D01*
X255911600Y-147903900D02*
X255588101Y-147580401D01*
X234645200Y-99310389D02*
X234989750Y-98965839D01*
X241523572Y-108481984D02*
X241523571Y-108481982D01*
X247700800Y-114659212D02*
X241523572Y-108481984D01*
X238954168Y-108896124D02*
X238684760Y-108626716D01*
X238829494Y-105787905D02*
X236784287Y-103742699D01*
X239098900Y-106057311D02*
X238829494Y-105787905D01*
X240805153Y-108481983D02*
X240391010Y-108896123D01*
X234645200Y-101603612D02*
X234645200Y-99310389D01*
X238684760Y-108626716D02*
G75*
G02*
X238684765Y-107189878I718440J718416D01*
G01*
X240391010Y-108896123D02*
G75*
G02*
X238954180Y-108896113I-718410J718423D01*
G01*
X239098901Y-106775731D02*
G75*
G03*
X239098922Y-106057290I-359201J359231D01*
G01*
X241523571Y-108481982D02*
G75*
G03*
X240805191Y-108482020I-359171J-359218D01*
G01*
D30*
%TO.N,/MIPI-HDMI-2/PWR_DN_LS*%
X227685600Y-110337600D02*
X227685600Y-113537998D01*
%TO.N,/MIPI-HDMI-2/CAM_MCLK*%
X225374200Y-112623600D02*
X225374200Y-110451900D01*
X225374200Y-110451900D02*
X225386900Y-110439200D01*
%TO.N,/MIPI-HDMI-2/CAM_SCL*%
X226034600Y-106375200D02*
X226034600Y-95732600D01*
X228879400Y-109220000D02*
X226034600Y-106375200D01*
X235051600Y-109220000D02*
X228879400Y-109220000D01*
X235077000Y-109194600D02*
X235051600Y-109220000D01*
D31*
%TO.N,/MIPI-HDMI-2/CAM_SDA*%
X255282983Y-140973900D02*
X254914400Y-140605317D01*
D30*
X225183700Y-95373469D02*
X225183700Y-106438700D01*
X225183700Y-106438700D02*
X228981000Y-110236000D01*
X228981000Y-110236000D02*
X236982000Y-110236000D01*
X255981200Y-138557000D02*
X255981200Y-129184400D01*
D31*
X255911600Y-140973900D02*
X255282983Y-140973900D01*
X254914400Y-139623800D02*
X255981200Y-138557000D01*
D30*
X225880128Y-94677041D02*
X225183700Y-95373469D01*
D31*
X254914400Y-140605317D02*
X254914400Y-139623800D01*
%TO.N,/MIPI-HDMI-1/CAM_D0_N*%
X235737400Y-138707226D02*
X235737400Y-143430188D01*
X235846203Y-134997409D02*
X235737400Y-135106211D01*
X237698107Y-135592077D02*
X236834033Y-134728003D01*
X235737400Y-135106211D02*
X235737400Y-138707226D01*
X240422050Y-130744850D02*
X240098761Y-130744850D01*
X239404355Y-135322669D02*
X239134949Y-135592076D01*
X237087212Y-144780000D02*
X238603988Y-144780000D01*
X238540280Y-132303331D02*
X238540281Y-132303332D01*
X238603988Y-144780000D02*
X239776589Y-143607399D01*
X240098761Y-130744850D02*
X238540280Y-132303331D01*
X239776589Y-143607399D02*
X240373501Y-143607399D01*
X238540281Y-133021752D02*
X239404356Y-133885827D01*
X235737400Y-143430188D02*
X237087212Y-144780000D01*
X236115613Y-134728002D02*
X235846203Y-134997409D01*
X240373501Y-143607399D02*
X240697000Y-143283900D01*
X239134949Y-135592076D02*
G75*
G02*
X237698079Y-135592105I-718449J718376D01*
G01*
X239404356Y-133885827D02*
G75*
G02*
X239404308Y-135322622I-718456J-718373D01*
G01*
X238540281Y-132303332D02*
G75*
G03*
X238540323Y-133021710I359219J-359168D01*
G01*
X236834033Y-134728003D02*
G75*
G03*
X236115590Y-134727979I-359233J-359197D01*
G01*
%TO.N,/MIPI-HDMI-1/CAM_D0_P*%
X238814412Y-145288000D02*
X239987011Y-144115401D01*
X239987011Y-144115401D02*
X240373501Y-144115401D01*
X236876788Y-145288000D02*
X238814412Y-145288000D01*
X238181069Y-133380963D02*
X239045144Y-134245038D01*
X235229400Y-143640612D02*
X236876788Y-145288000D01*
X235229400Y-138707226D02*
X235229400Y-143640612D01*
X239739550Y-130062350D02*
X239739550Y-130385639D01*
X238057317Y-135232866D02*
X237193243Y-134368792D01*
X240373501Y-144115401D02*
X240697000Y-144438900D01*
X238181069Y-131944120D02*
X238181070Y-131944121D01*
X235756401Y-134368793D02*
X235486993Y-134638199D01*
X239739550Y-130385639D02*
X238181069Y-131944120D01*
X235229400Y-134895789D02*
X235229400Y-138707226D01*
X239045145Y-134963458D02*
X238775737Y-135232867D01*
X235486993Y-134638199D02*
X235229400Y-134895789D01*
X238775737Y-135232867D02*
G75*
G02*
X238057289Y-135232894I-359237J359167D01*
G01*
X237193243Y-134368792D02*
G75*
G03*
X235756378Y-134368770I-718443J-718408D01*
G01*
X239045144Y-134245038D02*
G75*
G02*
X239045097Y-134963410I-359244J-359162D01*
G01*
X238181070Y-131944121D02*
G75*
G03*
X238181111Y-133380920I718430J-718379D01*
G01*
%TO.N,/MIPI-HDMI-1/CAM_CK_N*%
X234936462Y-129881422D02*
X234238800Y-129881422D01*
X233730800Y-133028918D02*
X233730800Y-144623988D01*
X236179211Y-147072399D02*
X240373501Y-147072399D01*
X233730800Y-130389422D02*
X233730800Y-130770422D01*
X234238800Y-127468422D02*
X234936462Y-127468422D01*
X233730800Y-125403411D02*
X233730800Y-126960422D01*
X240373501Y-147072399D02*
X240697000Y-146748900D01*
X235952462Y-128484422D02*
X235952462Y-128865422D01*
X234402250Y-125055250D02*
X234078961Y-125055250D01*
X233730800Y-144623988D02*
X236179211Y-147072399D01*
X233730800Y-130770422D02*
X233730800Y-133028918D01*
X234078961Y-125055250D02*
X233730800Y-125403411D01*
X233730800Y-126960422D02*
G75*
G03*
X234238800Y-127468400I508000J22D01*
G01*
X235952462Y-128865422D02*
G75*
G02*
X234936462Y-129881362I-1015962J22D01*
G01*
X234238800Y-129881422D02*
G75*
G03*
X233730822Y-130389422I0J-507978D01*
G01*
X234936462Y-127468422D02*
G75*
G02*
X235952478Y-128484422I38J-1015978D01*
G01*
%TO.N,/MIPI-HDMI-1/CAM_CK_P*%
X233222800Y-125192989D02*
X233222800Y-126960422D01*
X235968789Y-147580401D02*
X240373501Y-147580401D01*
X234238800Y-127976422D02*
X234936462Y-127976422D01*
X240373501Y-147580401D02*
X240697000Y-147903900D01*
X233719750Y-124372750D02*
X233719750Y-124696039D01*
X233222800Y-144834412D02*
X235968789Y-147580401D01*
X233222800Y-130389422D02*
X233222800Y-130770422D01*
X233222800Y-133028918D02*
X233222800Y-144834412D01*
X234936462Y-129373422D02*
X234238800Y-129373422D01*
X233719750Y-124696039D02*
X233222800Y-125192989D01*
X233222800Y-130770422D02*
X233222800Y-133028918D01*
X235444462Y-128484422D02*
X235444462Y-128865422D01*
X234936462Y-127976422D02*
G75*
G02*
X235444478Y-128484422I38J-507978D01*
G01*
X233222800Y-126960422D02*
G75*
G03*
X234238800Y-127976400I1016000J22D01*
G01*
X234238800Y-129373422D02*
G75*
G03*
X233222822Y-130389422I0J-1015978D01*
G01*
X235444462Y-128865422D02*
G75*
G02*
X234936462Y-129373362I-507962J22D01*
G01*
D30*
%TO.N,/MIPI-HDMI-1/PWR_DN_LS*%
X224802358Y-144462158D02*
X227126800Y-146786600D01*
X224802358Y-134899999D02*
X224802358Y-144462158D01*
X227126800Y-146786600D02*
X228676200Y-146786600D01*
%TO.N,/MIPI-HDMI-1/CAM_MCLK*%
X227406200Y-148259800D02*
X223723200Y-144576800D01*
X239979200Y-152273000D02*
X239141000Y-153111200D01*
X241697000Y-149636400D02*
X239979200Y-151354200D01*
X239979200Y-151354200D02*
X239979200Y-152273000D01*
X223723200Y-134162800D02*
X223697800Y-134137400D01*
X223723200Y-144576800D02*
X223723200Y-134162800D01*
X230124000Y-148259800D02*
X227406200Y-148259800D01*
X234975400Y-153111200D02*
X230124000Y-148259800D01*
X239141000Y-153111200D02*
X234975400Y-153111200D01*
%TO.N,/MIPI-HDMI-1/CAM_SCL*%
X225780600Y-120777000D02*
X225780600Y-133934200D01*
X225780600Y-133934200D02*
X226872800Y-135026400D01*
%TO.N,/MIPI-HDMI-1/CAM_SDA*%
X226771200Y-133350000D02*
X230987600Y-137566400D01*
X226771200Y-120091200D02*
X226771200Y-133350000D01*
X226314000Y-119634000D02*
X226771200Y-120091200D01*
X225806000Y-119634000D02*
X226314000Y-119634000D01*
D32*
%TO.N,/CAN_L*%
X289712400Y-148869400D02*
X292506400Y-148869400D01*
X278792700Y-144425300D02*
X281091900Y-144425300D01*
X281091900Y-144425300D02*
X283961200Y-147294600D01*
X287324800Y-146481800D02*
X289712400Y-148869400D01*
X292506400Y-148869400D02*
X294081200Y-147294600D01*
D30*
%TO.N,/~{REC}*%
X311912000Y-132080000D02*
X322935600Y-121056400D01*
X311912000Y-137414000D02*
X311912000Y-132080000D01*
X322935600Y-121056400D02*
X327304400Y-121056400D01*
%TO.N,/~{SYS_RESET}*%
X313944000Y-154797700D02*
X313944000Y-132080000D01*
X312456000Y-156285700D02*
X313944000Y-154797700D01*
X313944000Y-132080000D02*
X319887600Y-126136400D01*
X319887600Y-126136400D02*
X327304400Y-126136400D01*
%TD*%
%TA.AperFunction,Conductor*%
%TO.N,GND*%
G36*
X311347039Y-80665185D02*
G01*
X311392794Y-80717989D01*
X311404000Y-80769500D01*
X311404000Y-85979000D01*
X311403999Y-85979000D01*
X315043930Y-87677634D01*
X318982033Y-89515415D01*
X319034459Y-89561603D01*
X319053595Y-89628054D01*
X319024125Y-103066981D01*
X319004293Y-103133977D01*
X318980634Y-103161019D01*
X277368000Y-138683999D01*
X277368000Y-158244500D01*
X277348315Y-158311539D01*
X277295511Y-158357294D01*
X277244000Y-158368500D01*
X265046000Y-158368500D01*
X264978961Y-158348815D01*
X264933206Y-158296011D01*
X264922000Y-158244500D01*
X264922000Y-156565594D01*
X266254823Y-156565594D01*
X266254823Y-156565605D01*
X266275096Y-156810274D01*
X266275098Y-156810286D01*
X266335369Y-157048291D01*
X266433994Y-157273131D01*
X266568279Y-157478671D01*
X266568282Y-157478674D01*
X266734569Y-157659310D01*
X266928319Y-157810112D01*
X267144249Y-157926968D01*
X267376467Y-158006688D01*
X267618639Y-158047100D01*
X267618640Y-158047100D01*
X267864160Y-158047100D01*
X267864161Y-158047100D01*
X268106333Y-158006688D01*
X268338551Y-157926968D01*
X268554481Y-157810112D01*
X268748231Y-157659310D01*
X268914518Y-157478674D01*
X269048805Y-157273132D01*
X269147430Y-157048291D01*
X269207702Y-156810283D01*
X269208752Y-156797615D01*
X269227977Y-156565605D01*
X269227977Y-156565594D01*
X269227977Y-156565593D01*
X271411785Y-156565593D01*
X271411785Y-156565606D01*
X271431008Y-156797607D01*
X271431010Y-156797615D01*
X271488162Y-157023302D01*
X271581680Y-157236502D01*
X271629021Y-157308963D01*
X272277439Y-156660547D01*
X272308882Y-156777892D01*
X272381290Y-156903308D01*
X272483692Y-157005710D01*
X272609108Y-157078118D01*
X272726452Y-157109560D01*
X272076314Y-157759697D01*
X272076314Y-157759699D01*
X272255153Y-157856483D01*
X272255171Y-157856490D01*
X272475357Y-157932080D01*
X272704995Y-157970400D01*
X272937805Y-157970400D01*
X273167442Y-157932080D01*
X273387634Y-157856488D01*
X273387636Y-157856487D01*
X273566484Y-157759699D01*
X273566484Y-157759697D01*
X272916347Y-157109560D01*
X273033692Y-157078118D01*
X273159108Y-157005710D01*
X273261510Y-156903308D01*
X273333918Y-156777892D01*
X273365360Y-156660548D01*
X274013776Y-157308964D01*
X274061116Y-157236506D01*
X274061121Y-157236498D01*
X274154637Y-157023302D01*
X274211789Y-156797615D01*
X274211791Y-156797607D01*
X274231015Y-156565606D01*
X274231015Y-156565593D01*
X274211791Y-156333592D01*
X274211789Y-156333584D01*
X274154637Y-156107897D01*
X274061120Y-155894700D01*
X274013776Y-155822234D01*
X273365360Y-156470651D01*
X273333918Y-156353308D01*
X273261510Y-156227892D01*
X273159108Y-156125490D01*
X273033692Y-156053082D01*
X272916348Y-156021639D01*
X273566484Y-155371501D01*
X273387637Y-155274712D01*
X273387631Y-155274710D01*
X273167442Y-155199119D01*
X272937805Y-155160800D01*
X272704995Y-155160800D01*
X272475357Y-155199119D01*
X272255168Y-155274710D01*
X272255162Y-155274712D01*
X272076314Y-155371501D01*
X272726452Y-156021639D01*
X272609108Y-156053082D01*
X272483692Y-156125490D01*
X272381290Y-156227892D01*
X272308882Y-156353308D01*
X272277439Y-156470652D01*
X271629022Y-155822235D01*
X271581680Y-155894698D01*
X271581678Y-155894702D01*
X271488162Y-156107897D01*
X271431010Y-156333584D01*
X271431008Y-156333592D01*
X271411785Y-156565593D01*
X269227977Y-156565593D01*
X269207703Y-156320925D01*
X269207701Y-156320913D01*
X269147430Y-156082908D01*
X269048805Y-155858068D01*
X268914520Y-155652528D01*
X268895610Y-155631987D01*
X268748231Y-155471890D01*
X268748226Y-155471886D01*
X268748224Y-155471884D01*
X268660377Y-155403510D01*
X268554481Y-155321088D01*
X268554480Y-155321087D01*
X268338552Y-155204232D01*
X268338547Y-155204230D01*
X268106335Y-155124512D01*
X267944885Y-155097570D01*
X267864161Y-155084100D01*
X267618639Y-155084100D01*
X267578249Y-155090840D01*
X267376464Y-155124512D01*
X267144252Y-155204230D01*
X267144247Y-155204232D01*
X266928319Y-155321087D01*
X266928315Y-155321091D01*
X266734575Y-155471884D01*
X266734572Y-155471887D01*
X266734569Y-155471889D01*
X266734569Y-155471890D01*
X266706208Y-155502697D01*
X266568279Y-155652528D01*
X266433994Y-155858068D01*
X266335369Y-156082908D01*
X266275098Y-156320913D01*
X266275096Y-156320925D01*
X266254823Y-156565594D01*
X264922000Y-156565594D01*
X264922000Y-148365594D01*
X266254823Y-148365594D01*
X266254823Y-148365605D01*
X266275096Y-148610274D01*
X266275098Y-148610286D01*
X266335369Y-148848291D01*
X266433994Y-149073131D01*
X266568279Y-149278671D01*
X266568282Y-149278674D01*
X266734569Y-149459310D01*
X266734572Y-149459312D01*
X266734575Y-149459315D01*
X266787123Y-149500215D01*
X266928319Y-149610112D01*
X267136118Y-149722568D01*
X267144249Y-149726968D01*
X267376467Y-149806688D01*
X267618639Y-149847100D01*
X267618640Y-149847100D01*
X267864160Y-149847100D01*
X267864161Y-149847100D01*
X268106333Y-149806688D01*
X268338551Y-149726968D01*
X268554481Y-149610112D01*
X268748231Y-149459310D01*
X268914518Y-149278674D01*
X269048805Y-149073132D01*
X269147430Y-148848291D01*
X269207702Y-148610283D01*
X269208752Y-148597615D01*
X269227977Y-148365605D01*
X269227977Y-148365594D01*
X269227977Y-148365593D01*
X271411785Y-148365593D01*
X271411785Y-148365606D01*
X271431008Y-148597607D01*
X271431010Y-148597615D01*
X271488162Y-148823302D01*
X271581680Y-149036502D01*
X271629021Y-149108963D01*
X272277439Y-148460547D01*
X272308882Y-148577892D01*
X272381290Y-148703308D01*
X272483692Y-148805710D01*
X272609108Y-148878118D01*
X272726452Y-148909560D01*
X272076314Y-149559697D01*
X272076314Y-149559699D01*
X272255153Y-149656483D01*
X272255171Y-149656490D01*
X272475357Y-149732080D01*
X272704995Y-149770400D01*
X272937805Y-149770400D01*
X273167442Y-149732080D01*
X273387634Y-149656488D01*
X273387636Y-149656487D01*
X273566484Y-149559699D01*
X273566484Y-149559697D01*
X272916347Y-148909560D01*
X273033692Y-148878118D01*
X273159108Y-148805710D01*
X273261510Y-148703308D01*
X273333918Y-148577892D01*
X273365360Y-148460548D01*
X274013776Y-149108964D01*
X274061116Y-149036506D01*
X274061121Y-149036498D01*
X274154637Y-148823302D01*
X274211789Y-148597615D01*
X274211791Y-148597607D01*
X274231015Y-148365606D01*
X274231015Y-148365593D01*
X274211791Y-148133592D01*
X274211789Y-148133584D01*
X274154637Y-147907897D01*
X274061120Y-147694700D01*
X274013776Y-147622234D01*
X273365360Y-148270651D01*
X273333918Y-148153308D01*
X273261510Y-148027892D01*
X273159108Y-147925490D01*
X273033692Y-147853082D01*
X272916348Y-147821639D01*
X273566484Y-147171501D01*
X273387637Y-147074712D01*
X273387631Y-147074710D01*
X273167442Y-146999119D01*
X272937805Y-146960800D01*
X272704995Y-146960800D01*
X272475357Y-146999119D01*
X272255168Y-147074710D01*
X272255162Y-147074712D01*
X272076314Y-147171501D01*
X272726452Y-147821639D01*
X272609108Y-147853082D01*
X272483692Y-147925490D01*
X272381290Y-148027892D01*
X272308882Y-148153308D01*
X272277439Y-148270652D01*
X271629022Y-147622235D01*
X271581680Y-147694698D01*
X271581678Y-147694702D01*
X271488162Y-147907897D01*
X271431010Y-148133584D01*
X271431008Y-148133592D01*
X271411785Y-148365593D01*
X269227977Y-148365593D01*
X269207703Y-148120925D01*
X269207701Y-148120913D01*
X269147430Y-147882908D01*
X269048805Y-147658068D01*
X268914520Y-147452528D01*
X268854106Y-147386901D01*
X268748231Y-147271890D01*
X268748226Y-147271886D01*
X268748224Y-147271884D01*
X268596405Y-147153719D01*
X268554481Y-147121088D01*
X268554480Y-147121087D01*
X268338552Y-147004232D01*
X268338547Y-147004230D01*
X268106335Y-146924512D01*
X267944885Y-146897570D01*
X267864161Y-146884100D01*
X267618639Y-146884100D01*
X267558096Y-146894203D01*
X267376464Y-146924512D01*
X267144252Y-147004230D01*
X267144247Y-147004232D01*
X266928319Y-147121087D01*
X266928315Y-147121091D01*
X266734575Y-147271884D01*
X266734572Y-147271887D01*
X266568279Y-147452528D01*
X266433994Y-147658068D01*
X266335369Y-147882908D01*
X266275098Y-148120913D01*
X266275096Y-148120925D01*
X266254823Y-148365594D01*
X264922000Y-148365594D01*
X264922000Y-120649996D01*
X284449115Y-120649996D01*
X284449115Y-120650003D01*
X284468992Y-120826425D01*
X284468993Y-120826431D01*
X284527634Y-120994019D01*
X284614149Y-121131705D01*
X284622098Y-121144356D01*
X284747644Y-121269902D01*
X284897980Y-121364365D01*
X285065566Y-121423006D01*
X285065572Y-121423006D01*
X285065574Y-121423007D01*
X285241996Y-121442885D01*
X285242000Y-121442885D01*
X285242004Y-121442885D01*
X285418425Y-121423007D01*
X285418424Y-121423007D01*
X285418434Y-121423006D01*
X285586020Y-121364365D01*
X285736356Y-121269902D01*
X285861902Y-121144356D01*
X285956365Y-120994020D01*
X286015006Y-120826434D01*
X286015799Y-120819389D01*
X286034885Y-120650003D01*
X286034885Y-120649996D01*
X286015007Y-120473574D01*
X286015006Y-120473568D01*
X286015006Y-120473566D01*
X285956365Y-120305980D01*
X285861902Y-120155644D01*
X285736356Y-120030098D01*
X285736355Y-120030097D01*
X285586019Y-119935634D01*
X285418431Y-119876993D01*
X285418425Y-119876992D01*
X285242004Y-119857115D01*
X285241996Y-119857115D01*
X285065574Y-119876992D01*
X285065568Y-119876993D01*
X284897980Y-119935634D01*
X284747644Y-120030097D01*
X284622097Y-120155644D01*
X284527634Y-120305980D01*
X284468993Y-120473568D01*
X284468992Y-120473574D01*
X284449115Y-120649996D01*
X264922000Y-120649996D01*
X264922000Y-116078000D01*
X264921999Y-116077999D01*
X261022364Y-112828303D01*
X288259115Y-112828303D01*
X288259115Y-112828310D01*
X288278992Y-113004732D01*
X288278993Y-113004738D01*
X288337634Y-113172326D01*
X288337635Y-113172327D01*
X288432098Y-113322663D01*
X288557644Y-113448209D01*
X288707980Y-113542672D01*
X288875566Y-113601313D01*
X288875572Y-113601313D01*
X288875574Y-113601314D01*
X289051996Y-113621192D01*
X289052000Y-113621192D01*
X289052004Y-113621192D01*
X289228425Y-113601314D01*
X289228424Y-113601314D01*
X289228434Y-113601313D01*
X289396020Y-113542672D01*
X289546356Y-113448209D01*
X289671902Y-113322663D01*
X289766365Y-113172327D01*
X289825006Y-113004741D01*
X289844885Y-112828307D01*
X289825006Y-112651873D01*
X289766365Y-112484287D01*
X289671902Y-112333951D01*
X289546356Y-112208405D01*
X289546355Y-112208404D01*
X289396019Y-112113941D01*
X289228431Y-112055300D01*
X289228425Y-112055299D01*
X289052004Y-112035422D01*
X289051996Y-112035422D01*
X288875574Y-112055299D01*
X288875568Y-112055300D01*
X288707980Y-112113941D01*
X288557644Y-112208404D01*
X288432097Y-112333951D01*
X288337634Y-112484287D01*
X288278993Y-112651875D01*
X288278992Y-112651881D01*
X288259115Y-112828303D01*
X261022364Y-112828303D01*
X259587996Y-111632996D01*
X290037115Y-111632996D01*
X290037115Y-111633003D01*
X290056992Y-111809425D01*
X290056993Y-111809431D01*
X290115634Y-111977019D01*
X290201669Y-112113941D01*
X290210098Y-112127356D01*
X290335644Y-112252902D01*
X290485980Y-112347365D01*
X290653566Y-112406006D01*
X290653572Y-112406006D01*
X290653574Y-112406007D01*
X290829996Y-112425885D01*
X290830000Y-112425885D01*
X290830004Y-112425885D01*
X291006425Y-112406007D01*
X291006424Y-112406007D01*
X291006434Y-112406006D01*
X291174020Y-112347365D01*
X291324356Y-112252902D01*
X291449902Y-112127356D01*
X291544365Y-111977020D01*
X291603006Y-111809434D01*
X291622885Y-111633000D01*
X291622885Y-111632996D01*
X294990115Y-111632996D01*
X294990115Y-111633003D01*
X295009992Y-111809425D01*
X295009993Y-111809431D01*
X295068634Y-111977019D01*
X295154669Y-112113941D01*
X295163098Y-112127356D01*
X295288644Y-112252902D01*
X295438980Y-112347365D01*
X295606566Y-112406006D01*
X295606572Y-112406006D01*
X295606574Y-112406007D01*
X295782996Y-112425885D01*
X295783000Y-112425885D01*
X295783004Y-112425885D01*
X295959425Y-112406007D01*
X295959424Y-112406007D01*
X295959434Y-112406006D01*
X296127020Y-112347365D01*
X296277356Y-112252902D01*
X296402902Y-112127356D01*
X296497365Y-111977020D01*
X296556006Y-111809434D01*
X296575885Y-111633000D01*
X296556006Y-111456566D01*
X296497365Y-111288980D01*
X296402902Y-111138644D01*
X296277356Y-111013098D01*
X296277355Y-111013097D01*
X296127019Y-110918634D01*
X295959431Y-110859993D01*
X295959425Y-110859992D01*
X295783004Y-110840115D01*
X295782996Y-110840115D01*
X295606574Y-110859992D01*
X295606568Y-110859993D01*
X295438980Y-110918634D01*
X295288644Y-111013097D01*
X295163097Y-111138644D01*
X295068634Y-111288980D01*
X295009993Y-111456568D01*
X295009992Y-111456574D01*
X294990115Y-111632996D01*
X291622885Y-111632996D01*
X291603006Y-111456566D01*
X291544365Y-111288980D01*
X291449902Y-111138644D01*
X291324356Y-111013098D01*
X291324355Y-111013097D01*
X291174019Y-110918634D01*
X291006431Y-110859993D01*
X291006425Y-110859992D01*
X290830004Y-110840115D01*
X290829996Y-110840115D01*
X290653574Y-110859992D01*
X290653568Y-110859993D01*
X290485980Y-110918634D01*
X290335644Y-111013097D01*
X290210097Y-111138644D01*
X290115634Y-111288980D01*
X290056993Y-111456568D01*
X290056992Y-111456574D01*
X290037115Y-111632996D01*
X259587996Y-111632996D01*
X258094476Y-110388396D01*
X286735115Y-110388396D01*
X286735115Y-110388403D01*
X286754992Y-110564825D01*
X286754993Y-110564831D01*
X286813634Y-110732419D01*
X286893796Y-110859994D01*
X286908098Y-110882756D01*
X287033644Y-111008302D01*
X287183980Y-111102765D01*
X287351566Y-111161406D01*
X287351572Y-111161406D01*
X287351574Y-111161407D01*
X287527996Y-111181285D01*
X287528000Y-111181285D01*
X287528004Y-111181285D01*
X287704425Y-111161407D01*
X287704424Y-111161407D01*
X287704434Y-111161406D01*
X287872020Y-111102765D01*
X288022356Y-111008302D01*
X288147902Y-110882756D01*
X288242365Y-110732420D01*
X288301006Y-110564834D01*
X288320885Y-110388400D01*
X288318022Y-110362991D01*
X288318021Y-110362984D01*
X291637319Y-110362984D01*
X291637319Y-110362991D01*
X291657196Y-110539413D01*
X291657197Y-110539419D01*
X291715838Y-110707007D01*
X291731812Y-110732428D01*
X291810302Y-110857344D01*
X291935848Y-110982890D01*
X292086184Y-111077353D01*
X292253770Y-111135994D01*
X292253776Y-111135994D01*
X292253778Y-111135995D01*
X292430200Y-111155873D01*
X292430204Y-111155873D01*
X292430208Y-111155873D01*
X292606629Y-111135995D01*
X292606628Y-111135995D01*
X292606638Y-111135994D01*
X292774224Y-111077353D01*
X292924560Y-110982890D01*
X293050106Y-110857344D01*
X293144569Y-110707008D01*
X293203210Y-110539422D01*
X293220225Y-110388408D01*
X293220225Y-110388404D01*
X296387123Y-110388404D01*
X296387123Y-110388411D01*
X296407000Y-110564833D01*
X296407001Y-110564839D01*
X296465642Y-110732427D01*
X296545799Y-110859994D01*
X296560106Y-110882764D01*
X296685652Y-111008310D01*
X296835988Y-111102773D01*
X297003574Y-111161414D01*
X297003580Y-111161414D01*
X297003582Y-111161415D01*
X297180004Y-111181293D01*
X297180008Y-111181293D01*
X297180012Y-111181293D01*
X297356433Y-111161415D01*
X297356432Y-111161415D01*
X297356442Y-111161414D01*
X297524028Y-111102773D01*
X297674364Y-111008310D01*
X297799910Y-110882764D01*
X297894373Y-110732428D01*
X297953014Y-110564842D01*
X297972893Y-110388408D01*
X297972892Y-110388403D01*
X297953015Y-110211982D01*
X297953014Y-110211976D01*
X297953014Y-110211974D01*
X297894373Y-110044388D01*
X297799910Y-109894052D01*
X297674364Y-109768506D01*
X297674363Y-109768505D01*
X297524027Y-109674042D01*
X297356439Y-109615401D01*
X297356433Y-109615400D01*
X297180012Y-109595523D01*
X297180004Y-109595523D01*
X297003582Y-109615400D01*
X297003576Y-109615401D01*
X296835988Y-109674042D01*
X296685652Y-109768505D01*
X296560105Y-109894052D01*
X296465642Y-110044388D01*
X296407001Y-110211976D01*
X296407000Y-110211982D01*
X296387123Y-110388404D01*
X293220225Y-110388404D01*
X293223089Y-110362991D01*
X293223089Y-110362984D01*
X293203211Y-110186562D01*
X293203210Y-110186556D01*
X293203210Y-110186554D01*
X293144569Y-110018968D01*
X293050106Y-109868632D01*
X292924560Y-109743086D01*
X292924559Y-109743085D01*
X292774223Y-109648622D01*
X292606635Y-109589981D01*
X292606629Y-109589980D01*
X292430208Y-109570103D01*
X292430200Y-109570103D01*
X292253778Y-109589980D01*
X292253772Y-109589981D01*
X292086184Y-109648622D01*
X291935848Y-109743085D01*
X291810301Y-109868632D01*
X291715838Y-110018968D01*
X291657197Y-110186556D01*
X291657196Y-110186562D01*
X291637319Y-110362984D01*
X288318021Y-110362984D01*
X288301007Y-110211974D01*
X288301006Y-110211968D01*
X288301006Y-110211966D01*
X288242365Y-110044380D01*
X288147902Y-109894044D01*
X288022356Y-109768498D01*
X288022355Y-109768497D01*
X287872019Y-109674034D01*
X287704431Y-109615393D01*
X287704425Y-109615392D01*
X287528004Y-109595515D01*
X287527996Y-109595515D01*
X287351574Y-109615392D01*
X287351568Y-109615393D01*
X287183980Y-109674034D01*
X287033644Y-109768497D01*
X286908097Y-109894044D01*
X286813634Y-110044380D01*
X286754993Y-110211968D01*
X286754992Y-110211974D01*
X286735115Y-110388396D01*
X258094476Y-110388396D01*
X256509516Y-109067596D01*
X290037115Y-109067596D01*
X290037115Y-109067603D01*
X290056992Y-109244025D01*
X290056993Y-109244031D01*
X290115634Y-109411619D01*
X290115635Y-109411620D01*
X290210098Y-109561956D01*
X290335644Y-109687502D01*
X290485980Y-109781965D01*
X290653566Y-109840606D01*
X290653572Y-109840606D01*
X290653574Y-109840607D01*
X290829996Y-109860485D01*
X290830000Y-109860485D01*
X290830004Y-109860485D01*
X291006425Y-109840607D01*
X291006424Y-109840607D01*
X291006434Y-109840606D01*
X291174020Y-109781965D01*
X291324356Y-109687502D01*
X291449902Y-109561956D01*
X291544365Y-109411620D01*
X291603006Y-109244034D01*
X291622885Y-109067600D01*
X291603006Y-108891166D01*
X291544365Y-108723580D01*
X291449902Y-108573244D01*
X291324356Y-108447698D01*
X291324355Y-108447697D01*
X291174019Y-108353234D01*
X291006431Y-108294593D01*
X291006425Y-108294592D01*
X290830004Y-108274715D01*
X290829996Y-108274715D01*
X290653574Y-108294592D01*
X290653568Y-108294593D01*
X290485980Y-108353234D01*
X290335644Y-108447697D01*
X290210097Y-108573244D01*
X290115634Y-108723580D01*
X290056993Y-108891168D01*
X290056992Y-108891174D01*
X290037115Y-109067596D01*
X256509516Y-109067596D01*
X245154617Y-99605180D01*
X245115718Y-99547141D01*
X245110000Y-99509921D01*
X245110000Y-96699794D01*
X271868500Y-96699794D01*
X271868500Y-98372206D01*
X271879304Y-98446361D01*
X271879304Y-98446362D01*
X271879305Y-98446364D01*
X271935221Y-98560743D01*
X271935223Y-98560746D01*
X272025253Y-98650776D01*
X272025256Y-98650778D01*
X272134863Y-98704361D01*
X272139639Y-98706696D01*
X272213794Y-98717500D01*
X272213800Y-98717500D01*
X273886200Y-98717500D01*
X273886206Y-98717500D01*
X273960361Y-98706696D01*
X274017553Y-98678736D01*
X274074743Y-98650778D01*
X274074746Y-98650776D01*
X274164776Y-98560746D01*
X274164778Y-98560743D01*
X274192736Y-98503553D01*
X274220696Y-98446361D01*
X274231500Y-98372206D01*
X274231500Y-98232000D01*
X274251185Y-98164961D01*
X274303989Y-98119206D01*
X274355500Y-98108000D01*
X280546000Y-98108000D01*
X280613039Y-98127685D01*
X280658794Y-98180489D01*
X280670000Y-98232000D01*
X280670000Y-107188000D01*
X286788069Y-107188000D01*
X286855108Y-107207685D01*
X286900863Y-107260489D01*
X286910807Y-107329647D01*
X286893062Y-107377972D01*
X286813635Y-107504376D01*
X286754993Y-107671968D01*
X286754992Y-107671974D01*
X286735115Y-107848396D01*
X286735115Y-107848403D01*
X286754992Y-108024825D01*
X286754993Y-108024831D01*
X286813634Y-108192419D01*
X286893796Y-108319994D01*
X286908098Y-108342756D01*
X287033644Y-108468302D01*
X287183980Y-108562765D01*
X287351566Y-108621406D01*
X287351572Y-108621406D01*
X287351574Y-108621407D01*
X287527996Y-108641285D01*
X287528000Y-108641285D01*
X287528004Y-108641285D01*
X287704425Y-108621407D01*
X287704424Y-108621407D01*
X287704434Y-108621406D01*
X287872020Y-108562765D01*
X288022356Y-108468302D01*
X288147902Y-108342756D01*
X288242365Y-108192420D01*
X288301006Y-108024834D01*
X288320885Y-107848400D01*
X288301006Y-107671966D01*
X288242365Y-107504380D01*
X288242364Y-107504376D01*
X288162938Y-107377972D01*
X288143937Y-107310736D01*
X288164304Y-107243901D01*
X288217572Y-107198686D01*
X288267931Y-107188000D01*
X295532000Y-107188000D01*
X295599039Y-107207685D01*
X295644794Y-107260489D01*
X295656000Y-107312000D01*
X295656000Y-108214725D01*
X295636315Y-108281764D01*
X295583511Y-108327519D01*
X295572955Y-108331767D01*
X295439012Y-108378635D01*
X295288678Y-108473097D01*
X295163131Y-108598644D01*
X295068668Y-108748980D01*
X295010027Y-108916568D01*
X295010026Y-108916574D01*
X294990149Y-109092996D01*
X294990149Y-109093003D01*
X295010026Y-109269425D01*
X295010027Y-109269431D01*
X295068668Y-109437019D01*
X295068669Y-109437020D01*
X295163132Y-109587356D01*
X295288678Y-109712902D01*
X295439014Y-109807365D01*
X295606600Y-109866006D01*
X295606606Y-109866006D01*
X295606608Y-109866007D01*
X295783030Y-109885885D01*
X295783034Y-109885885D01*
X295783038Y-109885885D01*
X295959459Y-109866007D01*
X295959458Y-109866007D01*
X295959468Y-109866006D01*
X296127054Y-109807365D01*
X296277390Y-109712902D01*
X296402936Y-109587356D01*
X296497399Y-109437020D01*
X296556040Y-109269434D01*
X296575919Y-109093000D01*
X296573057Y-109067603D01*
X296556041Y-108916574D01*
X296556040Y-108916568D01*
X296556040Y-108916566D01*
X296497399Y-108748980D01*
X296402936Y-108598644D01*
X296277390Y-108473098D01*
X296277389Y-108473097D01*
X296213566Y-108432994D01*
X296167275Y-108380659D01*
X296156627Y-108311605D01*
X296185002Y-108247757D01*
X296243392Y-108209385D01*
X296279538Y-108204000D01*
X299719998Y-108204000D01*
X299720000Y-108204000D01*
X303784000Y-104648000D01*
X303784000Y-98044000D01*
X298746018Y-98044000D01*
X298678979Y-98024315D01*
X298633224Y-97971511D01*
X298623280Y-97902353D01*
X298652305Y-97838797D01*
X298658337Y-97832319D01*
X298663498Y-97827158D01*
X298757961Y-97676822D01*
X298816602Y-97509236D01*
X298836481Y-97332802D01*
X298818180Y-97170377D01*
X298816603Y-97156376D01*
X298816602Y-97156370D01*
X298816602Y-97156368D01*
X298757961Y-96988782D01*
X298663498Y-96838446D01*
X298537952Y-96712900D01*
X298537951Y-96712899D01*
X298387615Y-96618436D01*
X298220027Y-96559795D01*
X298220021Y-96559794D01*
X298043600Y-96539917D01*
X298043592Y-96539917D01*
X297867170Y-96559794D01*
X297867164Y-96559795D01*
X297699576Y-96618436D01*
X297549240Y-96712899D01*
X297423693Y-96838446D01*
X297329230Y-96988782D01*
X297270589Y-97156370D01*
X297270588Y-97156376D01*
X297250711Y-97332798D01*
X297250711Y-97332805D01*
X297270588Y-97509227D01*
X297270589Y-97509233D01*
X297329230Y-97676821D01*
X297423693Y-97827157D01*
X297428855Y-97832319D01*
X297462340Y-97893642D01*
X297457356Y-97963334D01*
X297415484Y-98019267D01*
X297350020Y-98043684D01*
X297341174Y-98044000D01*
X293823892Y-98044000D01*
X293756853Y-98024315D01*
X293736211Y-98007681D01*
X292806817Y-97078287D01*
X292806812Y-97078283D01*
X292694816Y-97013623D01*
X292694816Y-97013622D01*
X292694814Y-97013622D01*
X292676384Y-97002981D01*
X292530905Y-96964000D01*
X292530903Y-96964000D01*
X274355500Y-96964000D01*
X274288461Y-96944315D01*
X274242706Y-96891511D01*
X274231500Y-96840000D01*
X274231500Y-96699799D01*
X274231500Y-96699794D01*
X274220696Y-96625639D01*
X274217175Y-96618436D01*
X274164778Y-96511256D01*
X274164776Y-96511253D01*
X274074746Y-96421223D01*
X274074743Y-96421221D01*
X273960364Y-96365305D01*
X273960362Y-96365304D01*
X273960361Y-96365304D01*
X273886206Y-96354500D01*
X272213794Y-96354500D01*
X272139639Y-96365304D01*
X272139637Y-96365304D01*
X272139635Y-96365305D01*
X272025256Y-96421221D01*
X272025253Y-96421223D01*
X271935223Y-96511253D01*
X271935221Y-96511256D01*
X271879305Y-96625635D01*
X271879304Y-96625637D01*
X271879304Y-96625639D01*
X271868500Y-96699794D01*
X245110000Y-96699794D01*
X245110000Y-95010229D01*
X272524781Y-95010229D01*
X272555437Y-95029211D01*
X272746364Y-95103176D01*
X272947627Y-95140800D01*
X273152373Y-95140800D01*
X273353635Y-95103176D01*
X273353636Y-95103176D01*
X273544561Y-95029212D01*
X273544567Y-95029209D01*
X273575217Y-95010229D01*
X273317659Y-94752671D01*
X315788300Y-94752671D01*
X315788300Y-96825083D01*
X315799104Y-96899238D01*
X315799104Y-96899239D01*
X315799105Y-96899241D01*
X315855021Y-97013620D01*
X315855023Y-97013623D01*
X315945053Y-97103653D01*
X315945056Y-97103655D01*
X316052883Y-97156368D01*
X316059439Y-97159573D01*
X316133594Y-97170377D01*
X316133600Y-97170377D01*
X318206000Y-97170377D01*
X318206006Y-97170377D01*
X318280161Y-97159573D01*
X318337353Y-97131613D01*
X318394543Y-97103655D01*
X318394546Y-97103653D01*
X318484576Y-97013623D01*
X318484578Y-97013620D01*
X318518459Y-96944315D01*
X318540496Y-96899238D01*
X318551300Y-96825083D01*
X318551300Y-94752671D01*
X318540496Y-94678516D01*
X318538161Y-94673740D01*
X318484578Y-94564133D01*
X318484576Y-94564130D01*
X318394546Y-94474100D01*
X318394543Y-94474098D01*
X318280164Y-94418182D01*
X318280162Y-94418181D01*
X318280161Y-94418181D01*
X318206006Y-94407377D01*
X316133594Y-94407377D01*
X316059439Y-94418181D01*
X316059437Y-94418181D01*
X316059435Y-94418182D01*
X315945056Y-94474098D01*
X315945053Y-94474100D01*
X315855023Y-94564130D01*
X315855021Y-94564133D01*
X315799105Y-94678512D01*
X315799104Y-94678514D01*
X315799104Y-94678516D01*
X315788300Y-94752671D01*
X273317659Y-94752671D01*
X273050001Y-94485013D01*
X273050000Y-94485013D01*
X272524781Y-95010229D01*
X245110000Y-95010229D01*
X245110000Y-94035999D01*
X271940467Y-94035999D01*
X271940467Y-94036000D01*
X271959358Y-94239871D01*
X272015392Y-94436813D01*
X272076816Y-94560169D01*
X272076817Y-94560169D01*
X272600987Y-94036000D01*
X272600987Y-94035999D01*
X272548327Y-93983339D01*
X272650000Y-93983339D01*
X272650000Y-94088661D01*
X272677259Y-94190394D01*
X272729920Y-94281606D01*
X272804394Y-94356080D01*
X272895606Y-94408741D01*
X272997339Y-94436000D01*
X273102661Y-94436000D01*
X273204394Y-94408741D01*
X273295606Y-94356080D01*
X273370080Y-94281606D01*
X273422741Y-94190394D01*
X273450000Y-94088661D01*
X273450000Y-94035999D01*
X273499013Y-94035999D01*
X273499013Y-94036000D01*
X274023181Y-94560168D01*
X274023182Y-94560168D01*
X274084609Y-94436808D01*
X274140641Y-94239871D01*
X274159533Y-94036000D01*
X274159533Y-94035999D01*
X274140641Y-93832128D01*
X274084609Y-93635191D01*
X274023181Y-93511830D01*
X273499013Y-94035999D01*
X273450000Y-94035999D01*
X273450000Y-93983339D01*
X273422741Y-93881606D01*
X273370080Y-93790394D01*
X273295606Y-93715920D01*
X273204394Y-93663259D01*
X273102661Y-93636000D01*
X272997339Y-93636000D01*
X272895606Y-93663259D01*
X272804394Y-93715920D01*
X272729920Y-93790394D01*
X272677259Y-93881606D01*
X272650000Y-93983339D01*
X272548327Y-93983339D01*
X272076816Y-93511829D01*
X272015392Y-93635186D01*
X271959358Y-93832128D01*
X271940467Y-94035999D01*
X245110000Y-94035999D01*
X245110000Y-93061769D01*
X272524781Y-93061769D01*
X273050000Y-93586987D01*
X273050001Y-93586987D01*
X273575217Y-93061769D01*
X273575217Y-93061768D01*
X273544565Y-93042789D01*
X273353635Y-92968823D01*
X273152373Y-92931200D01*
X272947627Y-92931200D01*
X272746364Y-92968823D01*
X272746359Y-92968824D01*
X272555444Y-93042784D01*
X272555440Y-93042786D01*
X272524781Y-93061769D01*
X245110000Y-93061769D01*
X245110000Y-89150197D01*
X245549292Y-89150197D01*
X245549292Y-89150202D01*
X245567678Y-89360365D01*
X245568086Y-89365022D01*
X245620760Y-89561603D01*
X245623900Y-89573319D01*
X245715032Y-89768752D01*
X245715033Y-89768754D01*
X245838721Y-89945400D01*
X245991199Y-90097878D01*
X245991202Y-90097880D01*
X246167846Y-90221567D01*
X246363284Y-90312701D01*
X246571578Y-90368514D01*
X246725022Y-90381938D01*
X246786398Y-90387308D01*
X246786400Y-90387308D01*
X246786402Y-90387308D01*
X246840105Y-90382609D01*
X247001222Y-90368514D01*
X247209516Y-90312701D01*
X247404954Y-90221567D01*
X247581598Y-90097880D01*
X247734080Y-89945398D01*
X247857767Y-89768754D01*
X247948901Y-89573316D01*
X248004714Y-89365022D01*
X248023508Y-89150200D01*
X248023508Y-89150197D01*
X250549292Y-89150197D01*
X250549292Y-89150202D01*
X250567678Y-89360365D01*
X250568086Y-89365022D01*
X250620760Y-89561603D01*
X250623900Y-89573319D01*
X250715032Y-89768752D01*
X250715033Y-89768754D01*
X250838721Y-89945400D01*
X250991199Y-90097878D01*
X250991202Y-90097880D01*
X251167846Y-90221567D01*
X251363284Y-90312701D01*
X251571578Y-90368514D01*
X251725022Y-90381938D01*
X251786398Y-90387308D01*
X251786400Y-90387308D01*
X251786402Y-90387308D01*
X251840105Y-90382609D01*
X252001222Y-90368514D01*
X252209516Y-90312701D01*
X252404954Y-90221567D01*
X252581598Y-90097880D01*
X252734080Y-89945398D01*
X252857767Y-89768754D01*
X252948901Y-89573316D01*
X253004714Y-89365022D01*
X253023508Y-89150200D01*
X253018202Y-89089556D01*
X253009494Y-88990019D01*
X253004714Y-88935378D01*
X252948901Y-88727084D01*
X252857767Y-88531646D01*
X252734080Y-88355002D01*
X252734078Y-88354999D01*
X252581600Y-88202521D01*
X252404954Y-88078833D01*
X252404952Y-88078832D01*
X252209519Y-87987700D01*
X252209516Y-87987699D01*
X252121486Y-87964111D01*
X252001223Y-87931886D01*
X252001216Y-87931885D01*
X251786402Y-87913092D01*
X251786398Y-87913092D01*
X251571583Y-87931885D01*
X251571576Y-87931886D01*
X251363280Y-87987700D01*
X251167847Y-88078832D01*
X251167845Y-88078833D01*
X250991199Y-88202521D01*
X250838721Y-88354999D01*
X250715033Y-88531645D01*
X250715032Y-88531647D01*
X250623900Y-88727080D01*
X250568086Y-88935376D01*
X250568085Y-88935383D01*
X250549292Y-89150197D01*
X248023508Y-89150197D01*
X248018202Y-89089556D01*
X248009494Y-88990019D01*
X248004714Y-88935378D01*
X247948901Y-88727084D01*
X247857767Y-88531646D01*
X247734080Y-88355002D01*
X247734078Y-88354999D01*
X247581600Y-88202521D01*
X247404954Y-88078833D01*
X247404952Y-88078832D01*
X247209519Y-87987700D01*
X247209516Y-87987699D01*
X247121486Y-87964111D01*
X247001223Y-87931886D01*
X247001216Y-87931885D01*
X246786402Y-87913092D01*
X246786398Y-87913092D01*
X246571583Y-87931885D01*
X246571576Y-87931886D01*
X246363280Y-87987700D01*
X246167847Y-88078832D01*
X246167845Y-88078833D01*
X245991199Y-88202521D01*
X245838721Y-88354999D01*
X245715033Y-88531645D01*
X245715032Y-88531647D01*
X245623900Y-88727080D01*
X245568086Y-88935376D01*
X245568085Y-88935383D01*
X245549292Y-89150197D01*
X245110000Y-89150197D01*
X245110000Y-87430445D01*
X271868500Y-87430445D01*
X271868500Y-89102857D01*
X271879304Y-89177012D01*
X271879304Y-89177013D01*
X271879305Y-89177015D01*
X271935221Y-89291394D01*
X271935223Y-89291397D01*
X272025253Y-89381427D01*
X272025256Y-89381429D01*
X272102122Y-89419006D01*
X272139639Y-89437347D01*
X272213794Y-89448151D01*
X272213800Y-89448151D01*
X273886200Y-89448151D01*
X273886206Y-89448151D01*
X273960361Y-89437347D01*
X274060080Y-89388597D01*
X274074743Y-89381429D01*
X274074746Y-89381427D01*
X274164776Y-89291397D01*
X274164778Y-89291394D01*
X274197640Y-89224174D01*
X274220696Y-89177012D01*
X274231500Y-89102857D01*
X274231500Y-87430445D01*
X274220696Y-87356290D01*
X274199836Y-87313620D01*
X274164778Y-87241907D01*
X274164776Y-87241904D01*
X274074746Y-87151874D01*
X274074743Y-87151872D01*
X273960364Y-87095956D01*
X273960362Y-87095955D01*
X273960361Y-87095955D01*
X273886206Y-87085151D01*
X272213794Y-87085151D01*
X272139639Y-87095955D01*
X272139637Y-87095955D01*
X272139635Y-87095956D01*
X272025256Y-87151872D01*
X272025253Y-87151874D01*
X271935223Y-87241904D01*
X271935221Y-87241907D01*
X271879305Y-87356286D01*
X271879304Y-87356288D01*
X271879304Y-87356290D01*
X271868500Y-87430445D01*
X245110000Y-87430445D01*
X245110000Y-85740880D01*
X272524781Y-85740880D01*
X272555437Y-85759862D01*
X272746364Y-85833827D01*
X272947627Y-85871451D01*
X273152373Y-85871451D01*
X273353635Y-85833827D01*
X273353636Y-85833827D01*
X273544561Y-85759863D01*
X273544567Y-85759860D01*
X273575217Y-85740880D01*
X273050001Y-85215664D01*
X273050000Y-85215664D01*
X272524781Y-85740880D01*
X245110000Y-85740880D01*
X245110000Y-84150199D01*
X245625749Y-84150199D01*
X245625749Y-84150200D01*
X245645510Y-84363468D01*
X245645511Y-84363471D01*
X245704122Y-84569471D01*
X245704125Y-84569477D01*
X245775257Y-84712329D01*
X246204145Y-84283441D01*
X246230177Y-84380595D01*
X246308761Y-84516705D01*
X246419895Y-84627839D01*
X246556005Y-84706423D01*
X246653158Y-84732454D01*
X246224208Y-85161403D01*
X246269051Y-85189170D01*
X246468775Y-85266543D01*
X246679311Y-85305900D01*
X246893489Y-85305900D01*
X247104024Y-85266543D01*
X247104025Y-85266543D01*
X247303750Y-85189169D01*
X247348590Y-85161403D01*
X247348591Y-85161403D01*
X246919642Y-84732454D01*
X247016795Y-84706423D01*
X247152905Y-84627839D01*
X247264039Y-84516705D01*
X247342623Y-84380595D01*
X247368654Y-84283441D01*
X247797541Y-84712328D01*
X247797543Y-84712328D01*
X247868671Y-84569482D01*
X247868676Y-84569471D01*
X247927288Y-84363470D01*
X247927289Y-84363468D01*
X247947051Y-84150200D01*
X247947051Y-84150199D01*
X250625749Y-84150199D01*
X250625749Y-84150200D01*
X250645510Y-84363468D01*
X250645511Y-84363471D01*
X250704122Y-84569471D01*
X250704125Y-84569477D01*
X250775257Y-84712329D01*
X251204145Y-84283441D01*
X251230177Y-84380595D01*
X251308761Y-84516705D01*
X251419895Y-84627839D01*
X251556005Y-84706423D01*
X251653158Y-84732454D01*
X251224208Y-85161403D01*
X251269051Y-85189170D01*
X251468775Y-85266543D01*
X251679311Y-85305900D01*
X251893489Y-85305900D01*
X252104024Y-85266543D01*
X252104025Y-85266543D01*
X252303750Y-85189169D01*
X252348590Y-85161403D01*
X252348591Y-85161403D01*
X251953838Y-84766650D01*
X271940467Y-84766650D01*
X271940467Y-84766651D01*
X271959358Y-84970522D01*
X272015392Y-85167464D01*
X272076816Y-85290820D01*
X272076817Y-85290820D01*
X272600987Y-84766651D01*
X272600987Y-84766650D01*
X272548327Y-84713990D01*
X272650000Y-84713990D01*
X272650000Y-84819312D01*
X272677259Y-84921045D01*
X272729920Y-85012257D01*
X272804394Y-85086731D01*
X272895606Y-85139392D01*
X272997339Y-85166651D01*
X273102661Y-85166651D01*
X273204394Y-85139392D01*
X273295606Y-85086731D01*
X273370080Y-85012257D01*
X273422741Y-84921045D01*
X273450000Y-84819312D01*
X273450000Y-84766650D01*
X273499013Y-84766650D01*
X273499013Y-84766651D01*
X274023181Y-85290819D01*
X274023182Y-85290819D01*
X274084609Y-85167459D01*
X274140641Y-84970522D01*
X274159533Y-84766651D01*
X274159533Y-84766650D01*
X274140641Y-84562779D01*
X274084609Y-84365842D01*
X274023181Y-84242481D01*
X273499013Y-84766650D01*
X273450000Y-84766650D01*
X273450000Y-84713990D01*
X273422741Y-84612257D01*
X273370080Y-84521045D01*
X273295606Y-84446571D01*
X273204394Y-84393910D01*
X273102661Y-84366651D01*
X272997339Y-84366651D01*
X272895606Y-84393910D01*
X272804394Y-84446571D01*
X272729920Y-84521045D01*
X272677259Y-84612257D01*
X272650000Y-84713990D01*
X272548327Y-84713990D01*
X272076816Y-84242480D01*
X272015392Y-84365837D01*
X271959358Y-84562779D01*
X271940467Y-84766650D01*
X251953838Y-84766650D01*
X251919642Y-84732454D01*
X252016795Y-84706423D01*
X252152905Y-84627839D01*
X252264039Y-84516705D01*
X252342623Y-84380595D01*
X252368654Y-84283441D01*
X252797541Y-84712328D01*
X252797543Y-84712328D01*
X252868671Y-84569482D01*
X252868676Y-84569471D01*
X252927288Y-84363470D01*
X252927289Y-84363468D01*
X252947051Y-84150200D01*
X252947051Y-84150199D01*
X252927289Y-83936931D01*
X252927288Y-83936928D01*
X252886173Y-83792420D01*
X272524781Y-83792420D01*
X273050000Y-84317638D01*
X273050001Y-84317638D01*
X273575217Y-83792420D01*
X273575217Y-83792419D01*
X273544565Y-83773440D01*
X273353635Y-83699474D01*
X273152373Y-83661851D01*
X272947627Y-83661851D01*
X272746364Y-83699474D01*
X272746359Y-83699475D01*
X272555444Y-83773435D01*
X272555440Y-83773437D01*
X272524781Y-83792420D01*
X252886173Y-83792420D01*
X252868677Y-83730928D01*
X252868674Y-83730922D01*
X252797542Y-83588069D01*
X252368654Y-84016957D01*
X252342623Y-83919805D01*
X252264039Y-83783695D01*
X252152905Y-83672561D01*
X252016795Y-83593977D01*
X251919641Y-83567945D01*
X252348590Y-83138995D01*
X252303750Y-83111230D01*
X252303746Y-83111228D01*
X252166337Y-83057996D01*
X276829115Y-83057996D01*
X276829115Y-83058003D01*
X276848992Y-83234425D01*
X276848993Y-83234431D01*
X276907634Y-83402019D01*
X276924247Y-83428457D01*
X277002098Y-83552356D01*
X277127644Y-83677902D01*
X277277980Y-83772365D01*
X277442572Y-83829958D01*
X277499348Y-83870680D01*
X277525096Y-83935632D01*
X277511640Y-84004194D01*
X277463253Y-84054597D01*
X277442575Y-84064040D01*
X277420923Y-84071617D01*
X277277980Y-84121634D01*
X277127644Y-84216097D01*
X277002097Y-84341644D01*
X276907634Y-84491980D01*
X276848993Y-84659568D01*
X276848992Y-84659574D01*
X276829115Y-84835996D01*
X276829115Y-84836003D01*
X276848992Y-85012425D01*
X276848993Y-85012431D01*
X276907634Y-85180019D01*
X276990722Y-85312251D01*
X277002098Y-85330356D01*
X277127644Y-85455902D01*
X277277980Y-85550365D01*
X277442572Y-85607958D01*
X277499348Y-85648680D01*
X277525096Y-85713632D01*
X277511640Y-85782194D01*
X277463253Y-85832597D01*
X277442575Y-85842040D01*
X277399728Y-85857033D01*
X277277980Y-85899634D01*
X277127644Y-85994097D01*
X277002097Y-86119644D01*
X276907634Y-86269980D01*
X276848993Y-86437568D01*
X276848992Y-86437574D01*
X276829115Y-86613996D01*
X276829115Y-86614003D01*
X276848992Y-86790425D01*
X276848993Y-86790431D01*
X276907634Y-86958019D01*
X276994307Y-87095956D01*
X277002098Y-87108356D01*
X277127644Y-87233902D01*
X277277980Y-87328365D01*
X277442572Y-87385958D01*
X277499348Y-87426680D01*
X277525096Y-87491632D01*
X277511640Y-87560194D01*
X277463253Y-87610597D01*
X277442575Y-87620040D01*
X277399728Y-87635033D01*
X277277980Y-87677634D01*
X277127644Y-87772097D01*
X277002097Y-87897644D01*
X276907634Y-88047980D01*
X276848993Y-88215568D01*
X276848992Y-88215574D01*
X276829115Y-88391996D01*
X276829115Y-88392003D01*
X276848992Y-88568425D01*
X276848993Y-88568431D01*
X276907634Y-88736019D01*
X276907635Y-88736020D01*
X277002098Y-88886356D01*
X277127644Y-89011902D01*
X277277980Y-89106365D01*
X277442572Y-89163958D01*
X277499348Y-89204680D01*
X277525096Y-89269632D01*
X277511640Y-89338194D01*
X277463253Y-89388597D01*
X277442575Y-89398040D01*
X277399728Y-89413033D01*
X277277980Y-89455634D01*
X277127644Y-89550097D01*
X277002097Y-89675644D01*
X276907634Y-89825980D01*
X276848993Y-89993568D01*
X276848992Y-89993574D01*
X276829115Y-90169996D01*
X276829115Y-90170003D01*
X276848992Y-90346425D01*
X276848993Y-90346431D01*
X276907634Y-90514019D01*
X276937431Y-90561439D01*
X277002098Y-90664356D01*
X277127644Y-90789902D01*
X277277980Y-90884365D01*
X277442572Y-90941958D01*
X277499348Y-90982680D01*
X277525096Y-91047632D01*
X277511640Y-91116194D01*
X277463253Y-91166597D01*
X277442575Y-91176040D01*
X277414124Y-91185996D01*
X277277980Y-91233634D01*
X277127644Y-91328097D01*
X277002097Y-91453644D01*
X276907634Y-91603980D01*
X276848993Y-91771568D01*
X276848992Y-91771574D01*
X276829115Y-91947996D01*
X276829115Y-91948003D01*
X276848992Y-92124425D01*
X276848993Y-92124431D01*
X276907634Y-92292019D01*
X276907635Y-92292020D01*
X277002098Y-92442356D01*
X277127644Y-92567902D01*
X277277980Y-92662365D01*
X277445566Y-92721006D01*
X277445572Y-92721006D01*
X277445574Y-92721007D01*
X277621996Y-92740885D01*
X277622000Y-92740885D01*
X277622004Y-92740885D01*
X277798425Y-92721007D01*
X277798424Y-92721007D01*
X277798434Y-92721006D01*
X277966020Y-92662365D01*
X278116356Y-92567902D01*
X278241902Y-92442356D01*
X278336365Y-92292020D01*
X278395006Y-92124434D01*
X278414885Y-91948000D01*
X278395006Y-91771566D01*
X278336365Y-91603980D01*
X278265246Y-91490796D01*
X294304315Y-91490796D01*
X294304315Y-91490803D01*
X294324192Y-91667225D01*
X294324193Y-91667231D01*
X294382834Y-91834819D01*
X294473358Y-91978885D01*
X294477298Y-91985156D01*
X294602844Y-92110702D01*
X294753180Y-92205165D01*
X294920766Y-92263806D01*
X294920772Y-92263806D01*
X294920774Y-92263807D01*
X295097196Y-92283685D01*
X295097200Y-92283685D01*
X295097204Y-92283685D01*
X295273625Y-92263807D01*
X295273624Y-92263807D01*
X295273634Y-92263806D01*
X295441220Y-92205165D01*
X295591556Y-92110702D01*
X295717102Y-91985156D01*
X295811565Y-91834820D01*
X295870206Y-91667234D01*
X295890085Y-91490800D01*
X295886800Y-91461648D01*
X295870207Y-91314374D01*
X295870206Y-91314368D01*
X295870206Y-91314366D01*
X295825287Y-91185996D01*
X310357115Y-91185996D01*
X310357115Y-91186003D01*
X310376992Y-91362425D01*
X310376993Y-91362431D01*
X310435634Y-91530019D01*
X310521853Y-91667234D01*
X310530098Y-91680356D01*
X310655644Y-91805902D01*
X310805980Y-91900365D01*
X310973566Y-91959006D01*
X310973572Y-91959006D01*
X310973574Y-91959007D01*
X311149996Y-91978885D01*
X311150000Y-91978885D01*
X311150004Y-91978885D01*
X311326425Y-91959007D01*
X311326424Y-91959007D01*
X311326434Y-91959006D01*
X311494020Y-91900365D01*
X311644356Y-91805902D01*
X311769902Y-91680356D01*
X311864365Y-91530020D01*
X311923006Y-91362434D01*
X311942885Y-91186000D01*
X311939405Y-91155115D01*
X311923007Y-91009574D01*
X311923006Y-91009568D01*
X311923006Y-91009566D01*
X311864365Y-90841980D01*
X311830997Y-90788876D01*
X315860016Y-90788876D01*
X315860016Y-90788877D01*
X315879914Y-91016314D01*
X315879916Y-91016324D01*
X315939003Y-91236842D01*
X315939007Y-91236851D01*
X316035493Y-91443767D01*
X316048014Y-91461648D01*
X316669800Y-90839863D01*
X316669800Y-90854703D01*
X316703875Y-90981870D01*
X316769701Y-91095884D01*
X316862793Y-91188976D01*
X316976807Y-91254802D01*
X317103974Y-91288877D01*
X317118813Y-91288877D01*
X316497027Y-91910661D01*
X316514909Y-91923184D01*
X316721825Y-92019669D01*
X316721834Y-92019673D01*
X316942352Y-92078760D01*
X316942362Y-92078762D01*
X317169799Y-92098661D01*
X317169801Y-92098661D01*
X317397237Y-92078762D01*
X317397247Y-92078760D01*
X317617765Y-92019673D01*
X317617774Y-92019669D01*
X317824694Y-91923181D01*
X317824697Y-91923180D01*
X317842571Y-91910662D01*
X317842572Y-91910661D01*
X317220788Y-91288877D01*
X317235626Y-91288877D01*
X317362793Y-91254802D01*
X317476807Y-91188976D01*
X317569899Y-91095884D01*
X317635725Y-90981870D01*
X317669800Y-90854703D01*
X317669800Y-90839864D01*
X318291585Y-91461649D01*
X318291585Y-91461648D01*
X318304103Y-91443774D01*
X318304104Y-91443771D01*
X318400592Y-91236851D01*
X318400596Y-91236842D01*
X318459683Y-91016324D01*
X318459685Y-91016314D01*
X318479584Y-90788877D01*
X318479584Y-90788876D01*
X318459685Y-90561439D01*
X318459683Y-90561429D01*
X318400596Y-90340911D01*
X318400592Y-90340902D01*
X318304107Y-90133986D01*
X318291584Y-90116104D01*
X317669800Y-90737888D01*
X317669800Y-90723051D01*
X317635725Y-90595884D01*
X317569899Y-90481870D01*
X317476807Y-90388778D01*
X317362793Y-90322952D01*
X317235626Y-90288877D01*
X317220788Y-90288877D01*
X317842572Y-89667091D01*
X317824690Y-89654570D01*
X317617774Y-89558084D01*
X317617765Y-89558080D01*
X317397247Y-89498993D01*
X317397237Y-89498991D01*
X317169801Y-89479093D01*
X317169799Y-89479093D01*
X316942362Y-89498991D01*
X316942352Y-89498993D01*
X316721834Y-89558080D01*
X316721825Y-89558084D01*
X316514908Y-89654571D01*
X316497027Y-89667091D01*
X317118813Y-90288877D01*
X317103974Y-90288877D01*
X316976807Y-90322952D01*
X316862793Y-90388778D01*
X316769701Y-90481870D01*
X316703875Y-90595884D01*
X316669800Y-90723051D01*
X316669800Y-90737890D01*
X316048014Y-90116104D01*
X316035494Y-90133985D01*
X315939007Y-90340902D01*
X315939003Y-90340911D01*
X315879916Y-90561429D01*
X315879914Y-90561439D01*
X315860016Y-90788876D01*
X311830997Y-90788876D01*
X311769902Y-90691644D01*
X311644356Y-90566098D01*
X311644355Y-90566097D01*
X311494019Y-90471634D01*
X311326431Y-90412993D01*
X311326425Y-90412992D01*
X311150004Y-90393115D01*
X311149996Y-90393115D01*
X310973574Y-90412992D01*
X310973568Y-90412993D01*
X310805980Y-90471634D01*
X310655644Y-90566097D01*
X310530097Y-90691644D01*
X310435634Y-90841980D01*
X310376993Y-91009568D01*
X310376992Y-91009574D01*
X310357115Y-91185996D01*
X295825287Y-91185996D01*
X295811565Y-91146780D01*
X295717102Y-90996444D01*
X295591556Y-90870898D01*
X295591555Y-90870897D01*
X295441219Y-90776434D01*
X295273631Y-90717793D01*
X295273625Y-90717792D01*
X295097204Y-90697915D01*
X295097196Y-90697915D01*
X294920774Y-90717792D01*
X294920768Y-90717793D01*
X294753180Y-90776434D01*
X294602844Y-90870897D01*
X294477297Y-90996444D01*
X294382834Y-91146780D01*
X294324193Y-91314368D01*
X294324192Y-91314374D01*
X294304315Y-91490796D01*
X278265246Y-91490796D01*
X278241902Y-91453644D01*
X278116356Y-91328098D01*
X278116355Y-91328097D01*
X277966019Y-91233634D01*
X277886872Y-91205939D01*
X277801425Y-91176040D01*
X277744651Y-91135320D01*
X277718903Y-91070368D01*
X277732359Y-91001806D01*
X277780746Y-90951403D01*
X277801420Y-90941961D01*
X277966020Y-90884365D01*
X278116356Y-90789902D01*
X278241902Y-90664356D01*
X278336365Y-90514020D01*
X278395006Y-90346434D01*
X278414885Y-90170000D01*
X278410827Y-90133986D01*
X278395007Y-89993574D01*
X278395006Y-89993568D01*
X278395006Y-89993566D01*
X278336365Y-89825980D01*
X278241902Y-89675644D01*
X278116356Y-89550098D01*
X278116355Y-89550097D01*
X277966019Y-89455634D01*
X277861343Y-89419007D01*
X277801425Y-89398040D01*
X277744651Y-89357320D01*
X277718903Y-89292368D01*
X277732359Y-89223806D01*
X277780746Y-89173403D01*
X277801420Y-89163961D01*
X277966020Y-89106365D01*
X278116356Y-89011902D01*
X278241902Y-88886356D01*
X278336365Y-88736020D01*
X278367866Y-88645996D01*
X290291115Y-88645996D01*
X290291115Y-88646003D01*
X290310992Y-88822425D01*
X290310993Y-88822431D01*
X290369634Y-88990019D01*
X290440536Y-89102857D01*
X290464098Y-89140356D01*
X290589644Y-89265902D01*
X290739980Y-89360365D01*
X290907566Y-89419006D01*
X290907572Y-89419006D01*
X290907574Y-89419007D01*
X291083996Y-89438885D01*
X291084000Y-89438885D01*
X291084004Y-89438885D01*
X291260425Y-89419007D01*
X291260424Y-89419007D01*
X291260434Y-89419006D01*
X291428020Y-89360365D01*
X291508867Y-89309565D01*
X291526027Y-89298783D01*
X291593264Y-89279782D01*
X291657973Y-89298783D01*
X291708345Y-89330434D01*
X291755980Y-89360365D01*
X291923566Y-89419006D01*
X291923572Y-89419006D01*
X291923574Y-89419007D01*
X292099996Y-89438885D01*
X292100000Y-89438885D01*
X292100004Y-89438885D01*
X292276425Y-89419007D01*
X292276424Y-89419007D01*
X292276434Y-89419006D01*
X292444020Y-89360365D01*
X292582452Y-89273381D01*
X292649688Y-89254381D01*
X292714394Y-89273381D01*
X292771980Y-89309565D01*
X292939566Y-89368206D01*
X292939572Y-89368206D01*
X292939573Y-89368207D01*
X293115996Y-89388085D01*
X293116000Y-89388085D01*
X293116004Y-89388085D01*
X293292425Y-89368207D01*
X293292424Y-89368207D01*
X293292434Y-89368206D01*
X293460020Y-89309565D01*
X293610356Y-89215102D01*
X293671462Y-89153996D01*
X294304315Y-89153996D01*
X294304315Y-89154003D01*
X294324192Y-89330425D01*
X294324193Y-89330431D01*
X294382834Y-89498019D01*
X294430149Y-89573319D01*
X294477298Y-89648356D01*
X294602844Y-89773902D01*
X294753180Y-89868365D01*
X294920766Y-89927006D01*
X294920772Y-89927006D01*
X294920774Y-89927007D01*
X295097196Y-89946885D01*
X295097200Y-89946885D01*
X295097204Y-89946885D01*
X295273625Y-89927007D01*
X295273624Y-89927007D01*
X295273634Y-89927006D01*
X295441220Y-89868365D01*
X295591556Y-89773902D01*
X295717102Y-89648356D01*
X295811565Y-89498020D01*
X295870206Y-89330434D01*
X295879014Y-89252258D01*
X295890085Y-89154003D01*
X295890085Y-89153996D01*
X310357115Y-89153996D01*
X310357115Y-89154003D01*
X310376992Y-89330425D01*
X310376993Y-89330431D01*
X310435634Y-89498019D01*
X310482949Y-89573319D01*
X310530098Y-89648356D01*
X310655644Y-89773902D01*
X310805980Y-89868365D01*
X310973566Y-89927006D01*
X310973572Y-89927006D01*
X310973574Y-89927007D01*
X311149996Y-89946885D01*
X311150000Y-89946885D01*
X311150004Y-89946885D01*
X311326425Y-89927007D01*
X311326424Y-89927007D01*
X311326434Y-89927006D01*
X311494020Y-89868365D01*
X311644356Y-89773902D01*
X311769902Y-89648356D01*
X311864365Y-89498020D01*
X311923006Y-89330434D01*
X311931814Y-89252258D01*
X311942885Y-89154003D01*
X311942885Y-89153996D01*
X311923007Y-88977574D01*
X311923006Y-88977568D01*
X311923006Y-88977566D01*
X311864365Y-88809980D01*
X311769902Y-88659644D01*
X311644356Y-88534098D01*
X311644355Y-88534097D01*
X311494019Y-88439634D01*
X311326431Y-88380993D01*
X311326425Y-88380992D01*
X311150004Y-88361115D01*
X311149996Y-88361115D01*
X310973574Y-88380992D01*
X310973568Y-88380993D01*
X310805980Y-88439634D01*
X310655644Y-88534097D01*
X310530097Y-88659644D01*
X310435634Y-88809980D01*
X310376993Y-88977568D01*
X310376992Y-88977574D01*
X310357115Y-89153996D01*
X295890085Y-89153996D01*
X295870207Y-88977574D01*
X295870206Y-88977568D01*
X295870206Y-88977566D01*
X295811565Y-88809980D01*
X295717102Y-88659644D01*
X295591556Y-88534098D01*
X295591555Y-88534097D01*
X295441219Y-88439634D01*
X295273631Y-88380993D01*
X295273625Y-88380992D01*
X295097204Y-88361115D01*
X295097196Y-88361115D01*
X294920774Y-88380992D01*
X294920768Y-88380993D01*
X294753180Y-88439634D01*
X294602844Y-88534097D01*
X294477297Y-88659644D01*
X294382834Y-88809980D01*
X294324193Y-88977568D01*
X294324192Y-88977574D01*
X294304315Y-89153996D01*
X293671462Y-89153996D01*
X293735902Y-89089556D01*
X293830365Y-88939220D01*
X293889006Y-88771634D01*
X293893019Y-88736019D01*
X293908885Y-88595203D01*
X293908885Y-88595196D01*
X293889007Y-88418774D01*
X293889006Y-88418768D01*
X293889006Y-88418766D01*
X293830365Y-88251180D01*
X293735902Y-88100844D01*
X293610356Y-87975298D01*
X293610355Y-87975297D01*
X293460019Y-87880834D01*
X293292431Y-87822193D01*
X293292425Y-87822192D01*
X293116004Y-87802315D01*
X293115996Y-87802315D01*
X292939574Y-87822192D01*
X292939568Y-87822193D01*
X292771980Y-87880834D01*
X292633547Y-87967818D01*
X292566310Y-87986818D01*
X292501603Y-87967817D01*
X292464734Y-87944650D01*
X292444022Y-87931636D01*
X292444021Y-87931635D01*
X292444020Y-87931635D01*
X292276434Y-87872994D01*
X292276430Y-87872993D01*
X292276426Y-87872992D01*
X292100004Y-87853115D01*
X292099996Y-87853115D01*
X291923574Y-87872992D01*
X291923568Y-87872993D01*
X291755980Y-87931634D01*
X291657972Y-87993217D01*
X291590735Y-88012217D01*
X291526028Y-87993217D01*
X291428019Y-87931634D01*
X291260431Y-87872993D01*
X291260425Y-87872992D01*
X291084004Y-87853115D01*
X291083996Y-87853115D01*
X290907574Y-87872992D01*
X290907568Y-87872993D01*
X290739980Y-87931634D01*
X290589644Y-88026097D01*
X290464097Y-88151644D01*
X290369634Y-88301980D01*
X290310993Y-88469568D01*
X290310992Y-88469574D01*
X290291115Y-88645996D01*
X278367866Y-88645996D01*
X278395006Y-88568434D01*
X278406145Y-88469574D01*
X278414885Y-88392003D01*
X278414885Y-88391996D01*
X278395007Y-88215574D01*
X278395006Y-88215568D01*
X278395006Y-88215566D01*
X278336365Y-88047980D01*
X278241902Y-87897644D01*
X278116356Y-87772098D01*
X278116355Y-87772097D01*
X277966019Y-87677634D01*
X277886872Y-87649939D01*
X277801425Y-87620040D01*
X277744651Y-87579320D01*
X277718903Y-87514368D01*
X277732359Y-87445806D01*
X277780746Y-87395403D01*
X277801420Y-87385961D01*
X277966020Y-87328365D01*
X278116356Y-87233902D01*
X278241902Y-87108356D01*
X278329091Y-86969596D01*
X294304315Y-86969596D01*
X294304315Y-86969603D01*
X294324192Y-87146025D01*
X294324193Y-87146031D01*
X294382834Y-87313619D01*
X294465894Y-87445806D01*
X294477298Y-87463956D01*
X294602844Y-87589502D01*
X294753180Y-87683965D01*
X294920766Y-87742606D01*
X294920772Y-87742606D01*
X294920774Y-87742607D01*
X295097196Y-87762485D01*
X295097200Y-87762485D01*
X295097204Y-87762485D01*
X295273625Y-87742607D01*
X295273624Y-87742607D01*
X295273634Y-87742606D01*
X295441220Y-87683965D01*
X295591556Y-87589502D01*
X295717102Y-87463956D01*
X295811565Y-87313620D01*
X295870206Y-87146034D01*
X295872914Y-87121996D01*
X310357115Y-87121996D01*
X310357115Y-87122003D01*
X310376992Y-87298425D01*
X310376993Y-87298431D01*
X310435634Y-87466019D01*
X310519265Y-87599115D01*
X310530098Y-87616356D01*
X310655644Y-87741902D01*
X310805980Y-87836365D01*
X310973566Y-87895006D01*
X310973572Y-87895006D01*
X310973574Y-87895007D01*
X311149996Y-87914885D01*
X311150000Y-87914885D01*
X311150004Y-87914885D01*
X311326425Y-87895007D01*
X311326424Y-87895007D01*
X311326434Y-87895006D01*
X311494020Y-87836365D01*
X311644356Y-87741902D01*
X311769902Y-87616356D01*
X311864365Y-87466020D01*
X311923006Y-87298434D01*
X311939519Y-87151874D01*
X311942885Y-87122003D01*
X311942885Y-87121996D01*
X311923007Y-86945574D01*
X311923006Y-86945568D01*
X311923006Y-86945566D01*
X311864365Y-86777980D01*
X311769902Y-86627644D01*
X311644356Y-86502098D01*
X311644355Y-86502097D01*
X311494019Y-86407634D01*
X311326431Y-86348993D01*
X311326425Y-86348992D01*
X311150004Y-86329115D01*
X311149996Y-86329115D01*
X310973574Y-86348992D01*
X310973568Y-86348993D01*
X310805980Y-86407634D01*
X310655644Y-86502097D01*
X310530097Y-86627644D01*
X310435634Y-86777980D01*
X310376993Y-86945568D01*
X310376992Y-86945574D01*
X310357115Y-87121996D01*
X295872914Y-87121996D01*
X295875848Y-87095956D01*
X295890085Y-86969603D01*
X295890085Y-86969596D01*
X295870207Y-86793174D01*
X295870206Y-86793168D01*
X295870206Y-86793166D01*
X295811565Y-86625580D01*
X295717102Y-86475244D01*
X295591556Y-86349698D01*
X295591555Y-86349697D01*
X295441219Y-86255234D01*
X295273631Y-86196593D01*
X295273625Y-86196592D01*
X295097204Y-86176715D01*
X295097196Y-86176715D01*
X294920774Y-86196592D01*
X294920768Y-86196593D01*
X294753180Y-86255234D01*
X294602844Y-86349697D01*
X294477297Y-86475244D01*
X294382834Y-86625580D01*
X294324193Y-86793168D01*
X294324192Y-86793174D01*
X294304315Y-86969596D01*
X278329091Y-86969596D01*
X278336365Y-86958020D01*
X278395006Y-86790434D01*
X278410020Y-86657183D01*
X278414885Y-86614003D01*
X278414885Y-86613996D01*
X278395007Y-86437574D01*
X278395006Y-86437568D01*
X278395006Y-86437566D01*
X278336365Y-86269980D01*
X278241902Y-86119644D01*
X278126654Y-86004396D01*
X290291115Y-86004396D01*
X290291115Y-86004403D01*
X290310992Y-86180825D01*
X290310993Y-86180831D01*
X290369634Y-86348419D01*
X290425655Y-86437574D01*
X290464098Y-86498756D01*
X290589644Y-86624302D01*
X290739980Y-86718765D01*
X290907566Y-86777406D01*
X290907572Y-86777406D01*
X290907574Y-86777407D01*
X291083996Y-86797285D01*
X291084000Y-86797285D01*
X291084004Y-86797285D01*
X291260425Y-86777407D01*
X291260424Y-86777407D01*
X291260434Y-86777406D01*
X291428020Y-86718765D01*
X291526027Y-86657183D01*
X291593264Y-86638182D01*
X291657973Y-86657183D01*
X291755980Y-86718765D01*
X291923566Y-86777406D01*
X291923572Y-86777406D01*
X291923574Y-86777407D01*
X292099996Y-86797285D01*
X292100000Y-86797285D01*
X292100004Y-86797285D01*
X292276425Y-86777407D01*
X292276424Y-86777407D01*
X292276434Y-86777406D01*
X292444020Y-86718765D01*
X292542027Y-86657183D01*
X292609264Y-86638182D01*
X292673973Y-86657183D01*
X292771980Y-86718765D01*
X292939566Y-86777406D01*
X292939572Y-86777406D01*
X292939574Y-86777407D01*
X293115996Y-86797285D01*
X293116000Y-86797285D01*
X293116004Y-86797285D01*
X293292425Y-86777407D01*
X293292424Y-86777407D01*
X293292434Y-86777406D01*
X293460020Y-86718765D01*
X293610356Y-86624302D01*
X293735902Y-86498756D01*
X293830365Y-86348420D01*
X293889006Y-86180834D01*
X293908885Y-86004400D01*
X293908674Y-86002529D01*
X293889007Y-85827974D01*
X293889006Y-85827968D01*
X293889006Y-85827966D01*
X293830365Y-85660380D01*
X293735902Y-85510044D01*
X293610356Y-85384498D01*
X293610355Y-85384497D01*
X293460019Y-85290034D01*
X293292431Y-85231393D01*
X293292425Y-85231392D01*
X293116004Y-85211515D01*
X293115996Y-85211515D01*
X292939574Y-85231392D01*
X292939568Y-85231393D01*
X292771980Y-85290034D01*
X292673972Y-85351617D01*
X292606735Y-85370617D01*
X292542028Y-85351617D01*
X292444019Y-85290034D01*
X292276431Y-85231393D01*
X292276425Y-85231392D01*
X292100004Y-85211515D01*
X292099996Y-85211515D01*
X291923574Y-85231392D01*
X291923568Y-85231393D01*
X291755980Y-85290034D01*
X291657972Y-85351617D01*
X291590735Y-85370617D01*
X291526028Y-85351617D01*
X291428019Y-85290034D01*
X291260431Y-85231393D01*
X291260425Y-85231392D01*
X291084004Y-85211515D01*
X291083996Y-85211515D01*
X290907574Y-85231392D01*
X290907568Y-85231393D01*
X290739980Y-85290034D01*
X290589644Y-85384497D01*
X290464097Y-85510044D01*
X290369634Y-85660380D01*
X290310993Y-85827968D01*
X290310992Y-85827974D01*
X290291115Y-86004396D01*
X278126654Y-86004396D01*
X278116356Y-85994098D01*
X278116355Y-85994097D01*
X277966019Y-85899634D01*
X277885475Y-85871451D01*
X277801425Y-85842040D01*
X277744651Y-85801320D01*
X277718903Y-85736368D01*
X277732359Y-85667806D01*
X277780746Y-85617403D01*
X277801420Y-85607961D01*
X277966020Y-85550365D01*
X278116356Y-85455902D01*
X278241902Y-85330356D01*
X278336365Y-85180020D01*
X278395006Y-85012434D01*
X278414885Y-84836000D01*
X278407071Y-84766651D01*
X278395007Y-84659574D01*
X278395006Y-84659568D01*
X278395006Y-84659566D01*
X278336365Y-84491980D01*
X278241902Y-84341644D01*
X278116356Y-84216098D01*
X278116355Y-84216097D01*
X277966019Y-84121634D01*
X277886872Y-84093939D01*
X277801425Y-84064040D01*
X277744651Y-84023320D01*
X277718903Y-83958368D01*
X277732359Y-83889806D01*
X277780746Y-83839403D01*
X277801420Y-83829961D01*
X277966020Y-83772365D01*
X278116356Y-83677902D01*
X278241902Y-83552356D01*
X278336365Y-83402020D01*
X278395006Y-83234434D01*
X278414885Y-83058000D01*
X278414383Y-83053546D01*
X278395007Y-82881574D01*
X278395006Y-82881568D01*
X278395006Y-82881566D01*
X278336365Y-82713980D01*
X278241902Y-82563644D01*
X278116356Y-82438098D01*
X278116355Y-82438097D01*
X277966019Y-82343634D01*
X277798431Y-82284993D01*
X277798425Y-82284992D01*
X277622004Y-82265115D01*
X277621996Y-82265115D01*
X277445574Y-82284992D01*
X277445568Y-82284993D01*
X277277980Y-82343634D01*
X277127644Y-82438097D01*
X277002097Y-82563644D01*
X276907634Y-82713980D01*
X276848993Y-82881568D01*
X276848992Y-82881574D01*
X276829115Y-83057996D01*
X252166337Y-83057996D01*
X252104024Y-83033856D01*
X251893489Y-82994500D01*
X251679311Y-82994500D01*
X251468775Y-83033856D01*
X251468770Y-83033857D01*
X251269056Y-83111226D01*
X251269052Y-83111228D01*
X251224207Y-83138995D01*
X251653158Y-83567945D01*
X251556005Y-83593977D01*
X251419895Y-83672561D01*
X251308761Y-83783695D01*
X251230177Y-83919805D01*
X251204145Y-84016957D01*
X250775257Y-83588069D01*
X250704128Y-83730915D01*
X250704120Y-83730935D01*
X250645511Y-83936928D01*
X250645510Y-83936931D01*
X250625749Y-84150199D01*
X247947051Y-84150199D01*
X247927289Y-83936931D01*
X247927288Y-83936928D01*
X247868677Y-83730928D01*
X247868674Y-83730922D01*
X247797542Y-83588069D01*
X247368654Y-84016957D01*
X247342623Y-83919805D01*
X247264039Y-83783695D01*
X247152905Y-83672561D01*
X247016795Y-83593977D01*
X246919641Y-83567945D01*
X247348590Y-83138995D01*
X247303750Y-83111230D01*
X247303746Y-83111228D01*
X247104024Y-83033856D01*
X246893489Y-82994500D01*
X246679311Y-82994500D01*
X246468775Y-83033856D01*
X246468770Y-83033857D01*
X246269056Y-83111226D01*
X246269052Y-83111228D01*
X246224207Y-83138995D01*
X246653158Y-83567945D01*
X246556005Y-83593977D01*
X246419895Y-83672561D01*
X246308761Y-83783695D01*
X246230177Y-83919805D01*
X246204145Y-84016957D01*
X245775257Y-83588069D01*
X245704128Y-83730915D01*
X245704120Y-83730935D01*
X245645511Y-83936928D01*
X245645510Y-83936931D01*
X245625749Y-84150199D01*
X245110000Y-84150199D01*
X245110000Y-80769500D01*
X245129685Y-80702461D01*
X245182489Y-80656706D01*
X245234000Y-80645500D01*
X311280000Y-80645500D01*
X311347039Y-80665185D01*
G37*
%TD.AperFunction*%
%TD*%
M02*
