%TF.GenerationSoftware,KiCad,Pcbnew,8.0.4-8.0.4-0~ubuntu22.04.1*%
%TF.CreationDate,2024-08-10T17:25:39-07:00*%
%TF.ProjectId,NX-J401-Adapter,4e582d4a-3430-4312-9d41-646170746572,3*%
%TF.SameCoordinates,Original*%
%TF.FileFunction,Soldermask,Top*%
%TF.FilePolarity,Negative*%
%FSLAX46Y46*%
G04 Gerber Fmt 4.6, Leading zero omitted, Abs format (unit mm)*
G04 Created by KiCad (PCBNEW 8.0.4-8.0.4-0~ubuntu22.04.1) date 2024-08-10 17:25:39*
%MOMM*%
%LPD*%
G01*
G04 APERTURE LIST*
G04 Aperture macros list*
%AMRoundRect*
0 Rectangle with rounded corners*
0 $1 Rounding radius*
0 $2 $3 $4 $5 $6 $7 $8 $9 X,Y pos of 4 corners*
0 Add a 4 corners polygon primitive as box body*
4,1,4,$2,$3,$4,$5,$6,$7,$8,$9,$2,$3,0*
0 Add four circle primitives for the rounded corners*
1,1,$1+$1,$2,$3*
1,1,$1+$1,$4,$5*
1,1,$1+$1,$6,$7*
1,1,$1+$1,$8,$9*
0 Add four rect primitives between the rounded corners*
20,1,$1+$1,$2,$3,$4,$5,0*
20,1,$1+$1,$4,$5,$6,$7,0*
20,1,$1+$1,$6,$7,$8,$9,0*
20,1,$1+$1,$8,$9,$2,$3,0*%
%AMFreePoly0*
4,1,18,2.145000,-2.250000,-2.145000,-2.250000,-2.805000,-2.250000,-2.805000,-1.590000,-2.145000,-1.590000,-2.145000,-0.970000,-2.805000,-0.970000,-2.805000,-0.310000,-2.145000,-0.310000,-2.145000,0.310000,-2.805000,0.310000,-2.805000,0.970000,-2.145000,0.970000,-2.145000,1.590000,-2.805000,1.590000,-2.805000,2.250000,2.145000,2.250000,2.145000,-2.250000,2.145000,-2.250000,$1*%
G04 Aperture macros list end*
%ADD10C,0.300000*%
%ADD11C,1.129000*%
%ADD12RoundRect,0.250000X2.050000X0.300000X-2.050000X0.300000X-2.050000X-0.300000X2.050000X-0.300000X0*%
%ADD13RoundRect,0.250002X4.449998X5.149998X-4.449998X5.149998X-4.449998X-5.149998X4.449998X-5.149998X0*%
%ADD14R,0.750000X0.660000*%
%ADD15FreePoly0,180.000000*%
%ADD16C,2.700000*%
%ADD17R,1.850000X0.600000*%
%ADD18R,1.650000X0.600000*%
%ADD19RoundRect,0.250000X-0.450000X0.262500X-0.450000X-0.262500X0.450000X-0.262500X0.450000X0.262500X0*%
%ADD20R,1.090000X1.500000*%
%ADD21R,1.600000X1.600000*%
%ADD22C,1.600000*%
%ADD23C,1.498600*%
%ADD24C,1.803400*%
%ADD25RoundRect,0.250000X-0.475000X0.250000X-0.475000X-0.250000X0.475000X-0.250000X0.475000X0.250000X0*%
%ADD26C,2.200000*%
%ADD27RoundRect,0.250000X0.450000X-0.262500X0.450000X0.262500X-0.450000X0.262500X-0.450000X-0.262500X0*%
%ADD28RoundRect,0.250000X0.262500X0.450000X-0.262500X0.450000X-0.262500X-0.450000X0.262500X-0.450000X0*%
%ADD29C,3.400000*%
%ADD30R,1.778000X1.778000*%
%ADD31C,1.905000*%
%ADD32C,1.778000*%
%ADD33RoundRect,0.250000X0.475000X-0.250000X0.475000X0.250000X-0.475000X0.250000X-0.475000X-0.250000X0*%
%ADD34RoundRect,0.150000X0.825000X0.150000X-0.825000X0.150000X-0.825000X-0.150000X0.825000X-0.150000X0*%
%ADD35RoundRect,0.250000X0.900000X-1.000000X0.900000X1.000000X-0.900000X1.000000X-0.900000X-1.000000X0*%
%ADD36RoundRect,0.250000X-0.262500X-0.450000X0.262500X-0.450000X0.262500X0.450000X-0.262500X0.450000X0*%
%ADD37R,2.000000X2.000000*%
%ADD38C,2.000000*%
%ADD39RoundRect,0.250000X0.300000X-0.300000X0.300000X0.300000X-0.300000X0.300000X-0.300000X-0.300000X0*%
%ADD40C,1.701800*%
%ADD41RoundRect,0.150000X-0.825000X-0.150000X0.825000X-0.150000X0.825000X0.150000X-0.825000X0.150000X0*%
%ADD42RoundRect,0.250000X-0.362500X-1.425000X0.362500X-1.425000X0.362500X1.425000X-0.362500X1.425000X0*%
%ADD43R,1.905000X1.600200*%
%ADD44O,1.905000X1.600200*%
%ADD45RoundRect,0.250000X0.250000X0.475000X-0.250000X0.475000X-0.250000X-0.475000X0.250000X-0.475000X0*%
%ADD46C,1.750000*%
%ADD47C,1.093000*%
%ADD48O,1.864000X3.664000*%
%ADD49C,2.829000*%
%ADD50R,1.200000X1.500000*%
%ADD51RoundRect,0.250000X-0.250000X-0.475000X0.250000X-0.475000X0.250000X0.475000X-0.250000X0.475000X0*%
%ADD52RoundRect,0.150000X-0.587500X-0.150000X0.587500X-0.150000X0.587500X0.150000X-0.587500X0.150000X0*%
%ADD53RoundRect,0.150000X-0.150000X0.512500X-0.150000X-0.512500X0.150000X-0.512500X0.150000X0.512500X0*%
%ADD54R,3.265000X5.210000*%
%ADD55R,5.210000X3.275000*%
%ADD56RoundRect,0.150000X-0.150000X0.825000X-0.150000X-0.825000X0.150000X-0.825000X0.150000X0.825000X0*%
G04 APERTURE END LIST*
D10*
X33217368Y-101705474D02*
X32624701Y-101705474D01*
X32624701Y-102636807D02*
X32624701Y-100858807D01*
X32624701Y-100858807D02*
X33471368Y-100858807D01*
X34148701Y-102467474D02*
X34233368Y-102552141D01*
X34233368Y-102552141D02*
X34148701Y-102636807D01*
X34148701Y-102636807D02*
X34064034Y-102552141D01*
X34064034Y-102552141D02*
X34148701Y-102467474D01*
X34148701Y-102467474D02*
X34148701Y-102636807D01*
X34995368Y-102636807D02*
X34995368Y-100858807D01*
X34995368Y-100858807D02*
X35588035Y-102128807D01*
X35588035Y-102128807D02*
X36180701Y-100858807D01*
X36180701Y-100858807D02*
X36180701Y-102636807D01*
X37789368Y-102636807D02*
X37789368Y-101705474D01*
X37789368Y-101705474D02*
X37704701Y-101536141D01*
X37704701Y-101536141D02*
X37535368Y-101451474D01*
X37535368Y-101451474D02*
X37196701Y-101451474D01*
X37196701Y-101451474D02*
X37027368Y-101536141D01*
X37789368Y-102552141D02*
X37620035Y-102636807D01*
X37620035Y-102636807D02*
X37196701Y-102636807D01*
X37196701Y-102636807D02*
X37027368Y-102552141D01*
X37027368Y-102552141D02*
X36942701Y-102382807D01*
X36942701Y-102382807D02*
X36942701Y-102213474D01*
X36942701Y-102213474D02*
X37027368Y-102044141D01*
X37027368Y-102044141D02*
X37196701Y-101959474D01*
X37196701Y-101959474D02*
X37620035Y-101959474D01*
X37620035Y-101959474D02*
X37789368Y-101874807D01*
X38551368Y-102552141D02*
X38720702Y-102636807D01*
X38720702Y-102636807D02*
X39059368Y-102636807D01*
X39059368Y-102636807D02*
X39228702Y-102552141D01*
X39228702Y-102552141D02*
X39313368Y-102382807D01*
X39313368Y-102382807D02*
X39313368Y-102298141D01*
X39313368Y-102298141D02*
X39228702Y-102128807D01*
X39228702Y-102128807D02*
X39059368Y-102044141D01*
X39059368Y-102044141D02*
X38805368Y-102044141D01*
X38805368Y-102044141D02*
X38636035Y-101959474D01*
X38636035Y-101959474D02*
X38551368Y-101790141D01*
X38551368Y-101790141D02*
X38551368Y-101705474D01*
X38551368Y-101705474D02*
X38636035Y-101536141D01*
X38636035Y-101536141D02*
X38805368Y-101451474D01*
X38805368Y-101451474D02*
X39059368Y-101451474D01*
X39059368Y-101451474D02*
X39228702Y-101536141D01*
X40075368Y-102636807D02*
X40075368Y-100858807D01*
X40244701Y-101959474D02*
X40752701Y-102636807D01*
X40752701Y-101451474D02*
X40075368Y-102128807D01*
D11*
%TO.C,J10*%
X239761500Y-138286400D02*
G75*
G02*
X238632500Y-138286400I-564500J0D01*
G01*
X238632500Y-138286400D02*
G75*
G02*
X239761500Y-138286400I564500J0D01*
G01*
X243261500Y-151536400D02*
G75*
G02*
X242132500Y-151536400I-564500J0D01*
G01*
X242132500Y-151536400D02*
G75*
G02*
X243261500Y-151536400I564500J0D01*
G01*
%TO.C,J11*%
X254976100Y-138286400D02*
G75*
G02*
X253847100Y-138286400I-564500J0D01*
G01*
X253847100Y-138286400D02*
G75*
G02*
X254976100Y-138286400I564500J0D01*
G01*
X258476100Y-151536400D02*
G75*
G02*
X257347100Y-151536400I-564500J0D01*
G01*
X257347100Y-151536400D02*
G75*
G02*
X258476100Y-151536400I564500J0D01*
G01*
%TD*%
D12*
%TO.C,D1*%
X292100000Y-89916000D03*
D13*
X282950000Y-87376000D03*
D12*
X292100000Y-84836000D03*
%TD*%
D14*
%TO.C,Q1*%
X288655000Y-94092000D03*
X288655000Y-95372000D03*
X288655000Y-96652000D03*
X288655000Y-97932000D03*
D15*
X291725000Y-96012000D03*
%TD*%
D16*
%TO.C,H1*%
X229000000Y-84000000D03*
%TD*%
D17*
%TO.C,J2*%
X227670000Y-107685500D03*
D18*
X223920000Y-107685500D03*
D17*
X227670000Y-106685500D03*
D18*
X223920000Y-106685500D03*
D17*
X227670000Y-105685500D03*
D18*
X223920000Y-105685500D03*
D17*
X227670000Y-104685500D03*
D18*
X223920000Y-104685500D03*
D17*
X227670000Y-103685500D03*
D18*
X223920000Y-103685500D03*
D17*
X227670000Y-102685500D03*
D18*
X223920000Y-102685500D03*
D17*
X227670000Y-101685500D03*
D18*
X223920000Y-101685500D03*
D17*
X227670000Y-100685500D03*
D18*
X223920000Y-100685500D03*
D17*
X227670000Y-99685500D03*
D18*
X223920000Y-99685500D03*
D17*
X227670000Y-98685500D03*
D18*
X223920000Y-98685500D03*
D17*
X227670000Y-97685500D03*
D18*
X223920000Y-97685500D03*
D17*
X227670000Y-96685500D03*
D18*
X223920000Y-96685500D03*
D17*
X227670000Y-95685500D03*
D18*
X223920000Y-95685500D03*
D17*
X227670000Y-94685500D03*
D18*
X223920000Y-94685500D03*
D17*
X227670000Y-93685500D03*
D18*
X223920000Y-93685500D03*
%TD*%
D19*
%TO.C,R8*%
X293116000Y-114149500D03*
X293116000Y-115974500D03*
%TD*%
D20*
%TO.C,D5*%
X227687000Y-154432000D03*
X227687000Y-157432000D03*
X226187000Y-154432000D03*
X226187000Y-157432000D03*
%TD*%
D21*
%TO.C,C2*%
X273050000Y-93980000D03*
D22*
X273050000Y-97480000D03*
%TD*%
D23*
%TO.C,SW2*%
X322108000Y-156285700D03*
X326608001Y-156285700D03*
D24*
X320858001Y-153785824D03*
X327858000Y-153785824D03*
%TD*%
D25*
%TO.C,C8*%
X289052000Y-114112000D03*
X289052000Y-116012000D03*
%TD*%
D21*
%TO.C,C1*%
X273050000Y-84785200D03*
D22*
X273050000Y-88285200D03*
%TD*%
D26*
%TO.C,J9*%
X267741400Y-148365600D03*
X267741400Y-156565600D03*
X272821400Y-148365600D03*
X272821400Y-156565600D03*
%TD*%
D27*
%TO.C,R5*%
X282168600Y-102918900D03*
X282168600Y-101093900D03*
%TD*%
D28*
%TO.C,R2*%
X280642700Y-99288600D03*
X278817700Y-99288600D03*
%TD*%
D29*
%TO.C,J8*%
X308105000Y-155960000D03*
X300225000Y-155960000D03*
D30*
X306705000Y-147320000D03*
D31*
X304165000Y-147320000D03*
D32*
X301625000Y-147320000D03*
%TD*%
D29*
%TO.C,J6*%
X295481200Y-155934600D03*
X290141200Y-155934600D03*
D30*
X294081200Y-147294600D03*
D32*
X291541200Y-147294600D03*
%TD*%
D33*
%TO.C,C12*%
X293878000Y-141031000D03*
X293878000Y-139131000D03*
%TD*%
D34*
%TO.C,Q2*%
X294067000Y-111633000D03*
X294067000Y-110363000D03*
X294067000Y-109093000D03*
X294067000Y-107823000D03*
X289117000Y-107823000D03*
X289117000Y-109093000D03*
X289117000Y-110363000D03*
X289117000Y-111633000D03*
%TD*%
D23*
%TO.C,SW1*%
X312456000Y-156285700D03*
X316956001Y-156285700D03*
D24*
X311206001Y-153785824D03*
X318206000Y-153785824D03*
%TD*%
D35*
%TO.C,D3*%
X285242000Y-126864000D03*
X285242000Y-122564000D03*
%TD*%
D27*
%TO.C,R4*%
X295910000Y-102385540D03*
X295910000Y-100560540D03*
%TD*%
D36*
%TO.C,R9*%
X226036500Y-151663400D03*
X227861500Y-151663400D03*
%TD*%
D16*
%TO.C,H3*%
X229000000Y-142000000D03*
%TD*%
D37*
%TO.C,C5*%
X307421677Y-103124000D03*
D38*
X302421677Y-103124000D03*
%TD*%
D39*
%TO.C,D2*%
X295275000Y-116970000D03*
X295275000Y-114170000D03*
%TD*%
D40*
%TO.C,J1*%
X246786400Y-90674200D03*
X251786400Y-90674200D03*
X246786400Y-85674200D03*
X251786400Y-85674200D03*
%TD*%
D41*
%TO.C,U1*%
X286577000Y-99441000D03*
X286577000Y-100711000D03*
X286577000Y-101981000D03*
X286577000Y-103251000D03*
X291527000Y-103251000D03*
X291527000Y-101981000D03*
X291527000Y-100711000D03*
X291527000Y-99441000D03*
%TD*%
D36*
%TO.C,R6*%
X282043500Y-105410000D03*
X283868500Y-105410000D03*
%TD*%
D42*
%TO.C,R1*%
X281263500Y-95250000D03*
X287188500Y-95250000D03*
%TD*%
D29*
%TO.C,J7*%
X285346600Y-155960000D03*
X280006600Y-155960000D03*
D30*
X283946600Y-147320000D03*
D32*
X281406600Y-147320000D03*
%TD*%
D43*
%TO.C,J5*%
X327304400Y-133756400D03*
D44*
X327304400Y-131216400D03*
X327304400Y-128676400D03*
X327304400Y-126136400D03*
X327304400Y-123596400D03*
X327304400Y-121056400D03*
%TD*%
D33*
%TO.C,C11*%
X291846000Y-141031000D03*
X291846000Y-139131000D03*
%TD*%
D36*
%TO.C,R3*%
X282375600Y-99288600D03*
X284200600Y-99288600D03*
%TD*%
D45*
%TO.C,C6*%
X287462000Y-105410000D03*
X285562000Y-105410000D03*
%TD*%
D17*
%TO.C,J4*%
X227670000Y-132628300D03*
D18*
X223920000Y-132628300D03*
D17*
X227670000Y-131628300D03*
D18*
X223920000Y-131628300D03*
D17*
X227670000Y-130628300D03*
D18*
X223920000Y-130628300D03*
D17*
X227670000Y-129628300D03*
D18*
X223920000Y-129628300D03*
D17*
X227670000Y-128628300D03*
D18*
X223920000Y-128628300D03*
D17*
X227670000Y-127628300D03*
D18*
X223920000Y-127628300D03*
D17*
X227670000Y-126628300D03*
D18*
X223920000Y-126628300D03*
D17*
X227670000Y-125628300D03*
D18*
X223920000Y-125628300D03*
D17*
X227670000Y-124628300D03*
D18*
X223920000Y-124628300D03*
D17*
X227670000Y-123628300D03*
D18*
X223920000Y-123628300D03*
D17*
X227670000Y-122628300D03*
D18*
X223920000Y-122628300D03*
D17*
X227670000Y-121628300D03*
D18*
X223920000Y-121628300D03*
D17*
X227670000Y-120628300D03*
D18*
X223920000Y-120628300D03*
D17*
X227670000Y-119628300D03*
D18*
X223920000Y-119628300D03*
D17*
X227670000Y-118628300D03*
D18*
X223920000Y-118628300D03*
%TD*%
D43*
%TO.C,J3*%
X327304400Y-113436400D03*
D44*
X327304400Y-110896400D03*
X327304400Y-108356400D03*
X327304400Y-105816400D03*
%TD*%
D16*
%TO.C,H2*%
X320999480Y-84000000D03*
%TD*%
D25*
%TO.C,C4*%
X284200600Y-101056400D03*
X284200600Y-102956400D03*
%TD*%
D33*
%TO.C,C13*%
X283972000Y-142936000D03*
X283972000Y-141036000D03*
%TD*%
D46*
%TO.C,J10*%
X239197000Y-138286400D03*
X242697000Y-151536400D03*
D47*
X241697000Y-149636400D03*
X240697000Y-149058900D03*
X241697000Y-148481400D03*
X240697000Y-147903900D03*
X241697000Y-147326400D03*
X240697000Y-146748900D03*
X241697000Y-146171400D03*
X240697000Y-145593900D03*
X241697000Y-145016400D03*
X240697000Y-144438900D03*
X241697000Y-143861400D03*
X240697000Y-143283900D03*
X241697000Y-142706400D03*
X240697000Y-142128900D03*
X241697000Y-141551400D03*
X240697000Y-140973900D03*
X241697000Y-140396400D03*
X240697000Y-139818900D03*
X241697000Y-139241400D03*
D48*
X237947000Y-141386400D03*
X237947000Y-150386400D03*
D49*
X241197000Y-156316400D03*
D48*
X244447000Y-138286400D03*
X244447000Y-147786400D03*
%TD*%
D50*
%TO.C,L2*%
X297688000Y-134286000D03*
X297688000Y-136986000D03*
%TD*%
D46*
%TO.C,J11*%
X254411600Y-138286400D03*
X257911600Y-151536400D03*
D47*
X256911600Y-149636400D03*
X255911600Y-149058900D03*
X256911600Y-148481400D03*
X255911600Y-147903900D03*
X256911600Y-147326400D03*
X255911600Y-146748900D03*
X256911600Y-146171400D03*
X255911600Y-145593900D03*
X256911600Y-145016400D03*
X255911600Y-144438900D03*
X256911600Y-143861400D03*
X255911600Y-143283900D03*
X256911600Y-142706400D03*
X255911600Y-142128900D03*
X256911600Y-141551400D03*
X255911600Y-140973900D03*
X256911600Y-140396400D03*
X255911600Y-139818900D03*
X256911600Y-139241400D03*
D48*
X253161600Y-141386400D03*
X253161600Y-150386400D03*
D49*
X256411600Y-156316400D03*
D48*
X259661600Y-138286400D03*
X259661600Y-147786400D03*
%TD*%
D51*
%TO.C,C7*%
X289118000Y-105410000D03*
X291018000Y-105410000D03*
%TD*%
D52*
%TO.C,D4*%
X278792700Y-143485700D03*
X278792700Y-145385700D03*
X280667700Y-144435700D03*
%TD*%
D27*
%TO.C,R7*%
X291084000Y-115974500D03*
X291084000Y-114149500D03*
%TD*%
D53*
%TO.C,U2*%
X297688000Y-139019700D03*
X296738000Y-139019700D03*
X295788000Y-139019700D03*
X295788000Y-141294700D03*
X297688000Y-141294700D03*
%TD*%
D54*
%TO.C,L1*%
X308887500Y-89154000D03*
X297422500Y-89154000D03*
D55*
X303155000Y-94831500D03*
X303155000Y-83476500D03*
%TD*%
D16*
%TO.C,H4*%
X320999480Y-142000000D03*
%TD*%
D25*
%TO.C,C3*%
X293878000Y-100523040D03*
X293878000Y-102423040D03*
%TD*%
%TO.C,C9*%
X293878000Y-134838400D03*
X293878000Y-136738400D03*
%TD*%
D51*
%TO.C,C10*%
X286832000Y-136906000D03*
X288732000Y-136906000D03*
%TD*%
D56*
%TO.C,U3*%
X289864800Y-139587200D03*
X288594800Y-139587200D03*
X287324800Y-139587200D03*
X286054800Y-139587200D03*
X286054800Y-144537200D03*
X287324800Y-144537200D03*
X288594800Y-144537200D03*
X289864800Y-144537200D03*
%TD*%
M02*
