%TF.GenerationSoftware,KiCad,Pcbnew,8.0.4-8.0.4-0~ubuntu22.04.1*%
%TF.CreationDate,2024-07-28T20:09:30-07:00*%
%TF.ProjectId,NX-J401-Adapter,4e582d4a-3430-4312-9d41-646170746572,1*%
%TF.SameCoordinates,Original*%
%TF.FileFunction,Paste,Top*%
%TF.FilePolarity,Positive*%
%FSLAX46Y46*%
G04 Gerber Fmt 4.6, Leading zero omitted, Abs format (unit mm)*
G04 Created by KiCad (PCBNEW 8.0.4-8.0.4-0~ubuntu22.04.1) date 2024-07-28 20:09:30*
%MOMM*%
%LPD*%
G01*
G04 APERTURE LIST*
G04 Aperture macros list*
%AMRoundRect*
0 Rectangle with rounded corners*
0 $1 Rounding radius*
0 $2 $3 $4 $5 $6 $7 $8 $9 X,Y pos of 4 corners*
0 Add a 4 corners polygon primitive as box body*
4,1,4,$2,$3,$4,$5,$6,$7,$8,$9,$2,$3,0*
0 Add four circle primitives for the rounded corners*
1,1,$1+$1,$2,$3*
1,1,$1+$1,$4,$5*
1,1,$1+$1,$6,$7*
1,1,$1+$1,$8,$9*
0 Add four rect primitives between the rounded corners*
20,1,$1+$1,$2,$3,$4,$5,0*
20,1,$1+$1,$4,$5,$6,$7,0*
20,1,$1+$1,$6,$7,$8,$9,0*
20,1,$1+$1,$8,$9,$2,$3,0*%
G04 Aperture macros list end*
%ADD10C,0.300000*%
%ADD11RoundRect,0.250000X2.050000X0.300000X-2.050000X0.300000X-2.050000X-0.300000X2.050000X-0.300000X0*%
%ADD12RoundRect,0.250000X2.025000X2.375000X-2.025000X2.375000X-2.025000X-2.375000X2.025000X-2.375000X0*%
%ADD13R,0.750000X0.660000*%
%ADD14R,1.850000X0.600000*%
%ADD15R,1.650000X0.600000*%
%ADD16RoundRect,0.250000X-0.450000X0.262500X-0.450000X-0.262500X0.450000X-0.262500X0.450000X0.262500X0*%
%ADD17R,1.090000X1.500000*%
%ADD18RoundRect,0.250000X-0.475000X0.250000X-0.475000X-0.250000X0.475000X-0.250000X0.475000X0.250000X0*%
%ADD19RoundRect,0.250000X0.262500X0.450000X-0.262500X0.450000X-0.262500X-0.450000X0.262500X-0.450000X0*%
%ADD20RoundRect,0.250000X-0.262500X-0.450000X0.262500X-0.450000X0.262500X0.450000X-0.262500X0.450000X0*%
%ADD21RoundRect,0.250000X-0.250000X-0.475000X0.250000X-0.475000X0.250000X0.475000X-0.250000X0.475000X0*%
%ADD22RoundRect,0.150000X0.825000X0.150000X-0.825000X0.150000X-0.825000X-0.150000X0.825000X-0.150000X0*%
%ADD23RoundRect,0.250000X0.900000X-1.000000X0.900000X1.000000X-0.900000X1.000000X-0.900000X-1.000000X0*%
%ADD24RoundRect,0.250000X0.300000X-0.300000X0.300000X0.300000X-0.300000X0.300000X-0.300000X-0.300000X0*%
%ADD25RoundRect,0.250000X-0.362500X-1.425000X0.362500X-1.425000X0.362500X1.425000X-0.362500X1.425000X0*%
%ADD26RoundRect,0.250000X0.250000X0.475000X-0.250000X0.475000X-0.250000X-0.475000X0.250000X-0.475000X0*%
%ADD27R,1.200000X1.500000*%
%ADD28RoundRect,0.150000X-0.587500X-0.150000X0.587500X-0.150000X0.587500X0.150000X-0.587500X0.150000X0*%
%ADD29RoundRect,0.250000X0.450000X-0.262500X0.450000X0.262500X-0.450000X0.262500X-0.450000X-0.262500X0*%
%ADD30RoundRect,0.150000X-0.150000X0.512500X-0.150000X-0.512500X0.150000X-0.512500X0.150000X0.512500X0*%
%ADD31R,3.265000X5.210000*%
%ADD32R,5.210000X3.275000*%
%ADD33RoundRect,0.150000X-0.150000X0.825000X-0.150000X-0.825000X0.150000X-0.825000X0.150000X0.825000X0*%
G04 APERTURE END LIST*
D10*
X33217368Y-91545474D02*
X32624701Y-91545474D01*
X32624701Y-92476807D02*
X32624701Y-90698807D01*
X32624701Y-90698807D02*
X33471368Y-90698807D01*
X34148701Y-92307474D02*
X34233368Y-92392141D01*
X34233368Y-92392141D02*
X34148701Y-92476807D01*
X34148701Y-92476807D02*
X34064034Y-92392141D01*
X34064034Y-92392141D02*
X34148701Y-92307474D01*
X34148701Y-92307474D02*
X34148701Y-92476807D01*
X34995368Y-92476807D02*
X34995368Y-90698807D01*
X34995368Y-90698807D02*
X35672701Y-90698807D01*
X35672701Y-90698807D02*
X35842035Y-90783474D01*
X35842035Y-90783474D02*
X35926701Y-90868141D01*
X35926701Y-90868141D02*
X36011368Y-91037474D01*
X36011368Y-91037474D02*
X36011368Y-91291474D01*
X36011368Y-91291474D02*
X35926701Y-91460807D01*
X35926701Y-91460807D02*
X35842035Y-91545474D01*
X35842035Y-91545474D02*
X35672701Y-91630141D01*
X35672701Y-91630141D02*
X34995368Y-91630141D01*
X37535368Y-92476807D02*
X37535368Y-91545474D01*
X37535368Y-91545474D02*
X37450701Y-91376141D01*
X37450701Y-91376141D02*
X37281368Y-91291474D01*
X37281368Y-91291474D02*
X36942701Y-91291474D01*
X36942701Y-91291474D02*
X36773368Y-91376141D01*
X37535368Y-92392141D02*
X37366035Y-92476807D01*
X37366035Y-92476807D02*
X36942701Y-92476807D01*
X36942701Y-92476807D02*
X36773368Y-92392141D01*
X36773368Y-92392141D02*
X36688701Y-92222807D01*
X36688701Y-92222807D02*
X36688701Y-92053474D01*
X36688701Y-92053474D02*
X36773368Y-91884141D01*
X36773368Y-91884141D02*
X36942701Y-91799474D01*
X36942701Y-91799474D02*
X37366035Y-91799474D01*
X37366035Y-91799474D02*
X37535368Y-91714807D01*
X38297368Y-92392141D02*
X38466702Y-92476807D01*
X38466702Y-92476807D02*
X38805368Y-92476807D01*
X38805368Y-92476807D02*
X38974702Y-92392141D01*
X38974702Y-92392141D02*
X39059368Y-92222807D01*
X39059368Y-92222807D02*
X39059368Y-92138141D01*
X39059368Y-92138141D02*
X38974702Y-91968807D01*
X38974702Y-91968807D02*
X38805368Y-91884141D01*
X38805368Y-91884141D02*
X38551368Y-91884141D01*
X38551368Y-91884141D02*
X38382035Y-91799474D01*
X38382035Y-91799474D02*
X38297368Y-91630141D01*
X38297368Y-91630141D02*
X38297368Y-91545474D01*
X38297368Y-91545474D02*
X38382035Y-91376141D01*
X38382035Y-91376141D02*
X38551368Y-91291474D01*
X38551368Y-91291474D02*
X38805368Y-91291474D01*
X38805368Y-91291474D02*
X38974702Y-91376141D01*
X39567368Y-91291474D02*
X40244701Y-91291474D01*
X39821368Y-90698807D02*
X39821368Y-92222807D01*
X39821368Y-92222807D02*
X39906035Y-92392141D01*
X39906035Y-92392141D02*
X40075368Y-92476807D01*
X40075368Y-92476807D02*
X40244701Y-92476807D01*
X41514701Y-92392141D02*
X41345368Y-92476807D01*
X41345368Y-92476807D02*
X41006701Y-92476807D01*
X41006701Y-92476807D02*
X40837368Y-92392141D01*
X40837368Y-92392141D02*
X40752701Y-92222807D01*
X40752701Y-92222807D02*
X40752701Y-91545474D01*
X40752701Y-91545474D02*
X40837368Y-91376141D01*
X40837368Y-91376141D02*
X41006701Y-91291474D01*
X41006701Y-91291474D02*
X41345368Y-91291474D01*
X41345368Y-91291474D02*
X41514701Y-91376141D01*
X41514701Y-91376141D02*
X41599368Y-91545474D01*
X41599368Y-91545474D02*
X41599368Y-91714807D01*
X41599368Y-91714807D02*
X40752701Y-91884141D01*
%TO.C,Q1*%
G36*
X290142500Y-95702000D02*
G01*
X291377500Y-95702000D01*
X291377500Y-94132000D01*
X290142500Y-94132000D01*
X290142500Y-95702000D01*
G37*
G36*
X290142500Y-97892000D02*
G01*
X291377500Y-97892000D01*
X291377500Y-96322000D01*
X290142500Y-96322000D01*
X290142500Y-97892000D01*
G37*
G36*
X293265000Y-95702000D02*
G01*
X291680000Y-95702000D01*
X291680000Y-94132000D01*
X293265000Y-94132000D01*
X293265000Y-95702000D01*
G37*
G36*
X293265000Y-97892000D02*
G01*
X291680000Y-97892000D01*
X291680000Y-96322000D01*
X293265000Y-96322000D01*
X293265000Y-97892000D01*
G37*
G36*
X294380000Y-94347000D02*
G01*
X293880000Y-94347000D01*
X293880000Y-93847000D01*
X294380000Y-93847000D01*
X294380000Y-94347000D01*
G37*
G36*
X294380000Y-95628538D02*
G01*
X293880000Y-95628538D01*
X293880000Y-95128538D01*
X294380000Y-95128538D01*
X294380000Y-95628538D01*
G37*
G36*
X294380000Y-96897000D02*
G01*
X293880000Y-96897000D01*
X293880000Y-96397000D01*
X294380000Y-96397000D01*
X294380000Y-96897000D01*
G37*
G36*
X294380000Y-98177000D02*
G01*
X293880000Y-98177000D01*
X293880000Y-97677000D01*
X294380000Y-97677000D01*
X294380000Y-98177000D01*
G37*
%TD*%
D11*
%TO.C,D3*%
X292100000Y-89916000D03*
D12*
X285375000Y-90151000D03*
X285375000Y-84601000D03*
X280525000Y-90151000D03*
X280525000Y-84601000D03*
D11*
X292100000Y-84836000D03*
%TD*%
D13*
%TO.C,Q1*%
X288655000Y-94092000D03*
X288655000Y-95372000D03*
X288655000Y-96652000D03*
X288655000Y-97932000D03*
%TD*%
D14*
%TO.C,J1*%
X227670000Y-107685500D03*
D15*
X223920000Y-107685500D03*
D14*
X227670000Y-106685500D03*
D15*
X223920000Y-106685500D03*
D14*
X227670000Y-105685500D03*
D15*
X223920000Y-105685500D03*
D14*
X227670000Y-104685500D03*
D15*
X223920000Y-104685500D03*
D14*
X227670000Y-103685500D03*
D15*
X223920000Y-103685500D03*
D14*
X227670000Y-102685500D03*
D15*
X223920000Y-102685500D03*
D14*
X227670000Y-101685500D03*
D15*
X223920000Y-101685500D03*
D14*
X227670000Y-100685500D03*
D15*
X223920000Y-100685500D03*
D14*
X227670000Y-99685500D03*
D15*
X223920000Y-99685500D03*
D14*
X227670000Y-98685500D03*
D15*
X223920000Y-98685500D03*
D14*
X227670000Y-97685500D03*
D15*
X223920000Y-97685500D03*
D14*
X227670000Y-96685500D03*
D15*
X223920000Y-96685500D03*
D14*
X227670000Y-95685500D03*
D15*
X223920000Y-95685500D03*
D14*
X227670000Y-94685500D03*
D15*
X223920000Y-94685500D03*
D14*
X227670000Y-93685500D03*
D15*
X223920000Y-93685500D03*
%TD*%
D16*
%TO.C,R6*%
X293116000Y-114149500D03*
X293116000Y-115974500D03*
%TD*%
D17*
%TO.C,D1*%
X227687000Y-154432000D03*
X227687000Y-157432000D03*
X226187000Y-154432000D03*
X226187000Y-157432000D03*
%TD*%
D18*
%TO.C,C6*%
X289052000Y-114112000D03*
X289052000Y-116012000D03*
%TD*%
D19*
%TO.C,R8*%
X298854500Y-101092000D03*
X297029500Y-101092000D03*
%TD*%
D20*
%TO.C,R7*%
X297029500Y-99060000D03*
X298854500Y-99060000D03*
%TD*%
D21*
%TO.C,C9*%
X293156600Y-142316200D03*
X295056600Y-142316200D03*
%TD*%
D22*
%TO.C,Q2*%
X294067000Y-111633000D03*
X294067000Y-110363000D03*
X294067000Y-109093000D03*
X294067000Y-107823000D03*
X289117000Y-107823000D03*
X289117000Y-109093000D03*
X289117000Y-110363000D03*
X289117000Y-111633000D03*
%TD*%
D23*
%TO.C,D4*%
X285242000Y-126864000D03*
X285242000Y-122564000D03*
%TD*%
D20*
%TO.C,R3*%
X284583500Y-102870000D03*
X286408500Y-102870000D03*
%TD*%
%TO.C,R1*%
X226036500Y-151663400D03*
X227861500Y-151663400D03*
%TD*%
D24*
%TO.C,D5*%
X295275000Y-116970000D03*
X295275000Y-114170000D03*
%TD*%
D22*
%TO.C,U2*%
X294067000Y-103505000D03*
X294067000Y-102235000D03*
X294067000Y-100965000D03*
X294067000Y-99695000D03*
X289117000Y-99695000D03*
X289117000Y-100965000D03*
X289117000Y-102235000D03*
X289117000Y-103505000D03*
%TD*%
D20*
%TO.C,R9*%
X297029500Y-107188000D03*
X298854500Y-107188000D03*
%TD*%
D25*
%TO.C,R2*%
X281263500Y-95250000D03*
X287188500Y-95250000D03*
%TD*%
D21*
%TO.C,C10*%
X293156600Y-144348200D03*
X295056600Y-144348200D03*
%TD*%
D16*
%TO.C,R4*%
X285750000Y-98401500D03*
X285750000Y-100226500D03*
%TD*%
D21*
%TO.C,C12*%
X296992000Y-105156000D03*
X298892000Y-105156000D03*
%TD*%
D14*
%TO.C,J2*%
X227670000Y-132628300D03*
D15*
X223920000Y-132628300D03*
D14*
X227670000Y-131628300D03*
D15*
X223920000Y-131628300D03*
D14*
X227670000Y-130628300D03*
D15*
X223920000Y-130628300D03*
D14*
X227670000Y-129628300D03*
D15*
X223920000Y-129628300D03*
D14*
X227670000Y-128628300D03*
D15*
X223920000Y-128628300D03*
D14*
X227670000Y-127628300D03*
D15*
X223920000Y-127628300D03*
D14*
X227670000Y-126628300D03*
D15*
X223920000Y-126628300D03*
D14*
X227670000Y-125628300D03*
D15*
X223920000Y-125628300D03*
D14*
X227670000Y-124628300D03*
D15*
X223920000Y-124628300D03*
D14*
X227670000Y-123628300D03*
D15*
X223920000Y-123628300D03*
D14*
X227670000Y-122628300D03*
D15*
X223920000Y-122628300D03*
D14*
X227670000Y-121628300D03*
D15*
X223920000Y-121628300D03*
D14*
X227670000Y-120628300D03*
D15*
X223920000Y-120628300D03*
D14*
X227670000Y-119628300D03*
D15*
X223920000Y-119628300D03*
D14*
X227670000Y-118628300D03*
D15*
X223920000Y-118628300D03*
%TD*%
D26*
%TO.C,C7*%
X292542000Y-105664000D03*
X290642000Y-105664000D03*
%TD*%
%TO.C,C4*%
X284388600Y-143281400D03*
X282488600Y-143281400D03*
%TD*%
D27*
%TO.C,L1*%
X295071800Y-133295400D03*
X295071800Y-135995400D03*
%TD*%
D21*
%TO.C,C11*%
X296992000Y-103124000D03*
X298892000Y-103124000D03*
%TD*%
D28*
%TO.C,D2*%
X278792700Y-143485700D03*
X278792700Y-145385700D03*
X280667700Y-144435700D03*
%TD*%
D29*
%TO.C,R5*%
X291084000Y-115974500D03*
X291084000Y-114149500D03*
%TD*%
D30*
%TO.C,U3*%
X295067900Y-138003700D03*
X294117900Y-138003700D03*
X293167900Y-138003700D03*
X293167900Y-140278700D03*
X295067900Y-140278700D03*
%TD*%
D31*
%TO.C,L2*%
X308887500Y-89154000D03*
X297422500Y-89154000D03*
D32*
X303155000Y-94831500D03*
X303155000Y-83476500D03*
%TD*%
D26*
%TO.C,C5*%
X286446000Y-104902000D03*
X284546000Y-104902000D03*
%TD*%
D18*
%TO.C,C8*%
X292176200Y-134355800D03*
X292176200Y-136255800D03*
%TD*%
D26*
%TO.C,C3*%
X284388600Y-141249400D03*
X282488600Y-141249400D03*
%TD*%
D33*
%TO.C,U1*%
X289864800Y-139587200D03*
X288594800Y-139587200D03*
X287324800Y-139587200D03*
X286054800Y-139587200D03*
X286054800Y-144537200D03*
X287324800Y-144537200D03*
X288594800Y-144537200D03*
X289864800Y-144537200D03*
%TD*%
M02*
