M48
; DRILL file {KiCad 7.0.10-7.0.10~ubuntu22.04.1} date Sun 21 Jan 2024 09:53:34 AM PST
; FORMAT={-:-/ absolute / metric / decimal}
; #@! TF.CreationDate,2024-01-21T09:53:34-08:00
; #@! TF.GenerationSoftware,Kicad,Pcbnew,7.0.10-7.0.10~ubuntu22.04.1
; #@! TF.FileFunction,MixedPlating,1,4
FMAT,2
METRIC
; #@! TA.AperFunction,Plated,PTH,ViaDrill
T1C0.711
; #@! TA.AperFunction,Plated,PTH,ComponentDrill
T2C1.000
; #@! TA.AperFunction,Plated,PTH,ComponentDrill
T3C1.092
; #@! TA.AperFunction,NonPlated,NPTH,ComponentDrill
T4C3.200
; #@! TA.AperFunction,NonPlated,NPTH,ComponentDrill
T5C3.404
%
G90
G05
T1
X107.696Y-157.607
X108.966Y-159.131
X137.033Y-174.371
X140.97Y-158.115
X145.288Y-181.61
X147.193Y-131.572
X147.32Y-140.716
X158.369Y-160.782
X168.783Y-161.29
X171.323Y-163.322
T2
X86.337Y-102.258
X86.337Y-113.688
X86.337Y-125.118
X86.337Y-132.738
X86.337Y-140.358
X86.337Y-147.978
X86.337Y-155.598
X86.337Y-163.218
X86.337Y-170.838
X86.337Y-178.458
X86.337Y-186.078
X86.337Y-193.698
X88.877Y-102.258
X88.877Y-113.688
X88.877Y-125.118
X88.877Y-132.738
X88.877Y-140.358
X88.877Y-147.978
X88.877Y-155.598
X88.877Y-163.218
X88.877Y-170.838
X88.877Y-178.458
X88.877Y-186.078
X88.877Y-193.698
X91.417Y-102.258
X91.417Y-113.688
X91.417Y-125.118
X91.417Y-132.738
X91.417Y-140.358
X91.417Y-147.978
X91.417Y-155.598
X91.417Y-163.218
X91.417Y-170.838
X91.417Y-178.458
X91.417Y-186.078
X91.417Y-193.698
X93.957Y-102.258
X102.7Y-204.785
X102.7Y-207.325
X125.583Y-202.245
X125.583Y-204.785
X125.583Y-207.325
X133.198Y-169.367
X133.198Y-171.907
X133.203Y-202.245
X133.203Y-204.785
X133.203Y-207.325
X135.738Y-169.367
X135.738Y-171.907
X138.278Y-169.367
X138.278Y-171.907
X140.818Y-169.367
X140.818Y-171.907
X140.823Y-202.245
X140.823Y-204.785
X140.823Y-207.325
X143.358Y-169.367
X143.358Y-171.907
X145.898Y-169.367
X145.898Y-171.907
X148.438Y-169.367
X148.438Y-171.907
X148.443Y-202.245
X148.443Y-204.785
X148.443Y-207.325
X150.978Y-169.367
X150.978Y-171.907
X153.518Y-169.367
X153.518Y-171.907
X156.058Y-169.367
X156.058Y-171.907
X158.59Y-202.245
X158.59Y-204.785
X158.59Y-207.325
X158.598Y-169.367
X158.598Y-171.907
X161.138Y-169.367
X161.138Y-171.907
X163.678Y-169.367
X163.678Y-171.907
X166.21Y-202.245
X166.21Y-204.785
X166.21Y-207.325
X166.218Y-169.367
X166.218Y-171.907
X168.758Y-169.367
X168.758Y-171.907
X171.298Y-169.367
X171.298Y-171.907
X173.83Y-202.245
X173.83Y-204.785
X173.83Y-207.325
X173.838Y-169.367
X173.838Y-171.907
X181.45Y-202.245
X181.45Y-204.785
X181.45Y-207.325
X195.809Y-78.93
X195.809Y-81.471
X195.809Y-84.01
X195.809Y-86.55
X195.809Y-89.09
X198.349Y-78.93
X198.349Y-81.471
X198.349Y-84.01
X198.349Y-86.55
X198.349Y-89.09
X215.618Y-124.0
X215.618Y-131.62
X215.618Y-139.24
X215.618Y-146.86
X215.618Y-154.48
X215.618Y-162.1
X215.618Y-169.72
X215.618Y-177.34
X215.618Y-184.96
X215.618Y-192.58
X218.158Y-124.0
X218.158Y-131.62
X218.158Y-139.24
X218.158Y-146.86
X218.158Y-154.48
X218.158Y-162.1
X218.158Y-169.72
X218.158Y-177.34
X218.158Y-184.96
X218.158Y-192.58
X220.698Y-124.0
X220.698Y-131.62
X220.698Y-139.24
X220.698Y-146.86
X220.698Y-154.48
X220.698Y-162.1
X220.698Y-169.72
X220.698Y-177.34
X220.698Y-184.96
X220.698Y-192.58
T3
X95.885Y-110.49
X95.885Y-121.92
X95.885Y-129.54
X95.885Y-137.16
X95.885Y-144.78
X95.885Y-152.4
X95.885Y-160.02
X95.885Y-167.64
X95.885Y-175.26
X95.885Y-182.88
X95.885Y-190.5
X98.425Y-110.49
X98.425Y-121.92
X98.425Y-129.54
X98.425Y-137.16
X98.425Y-144.78
X98.425Y-152.4
X98.425Y-160.02
X98.425Y-167.64
X98.425Y-175.26
X98.425Y-182.88
X98.425Y-190.5
X100.965Y-110.49
X100.965Y-121.92
X100.965Y-129.54
X100.965Y-137.16
X100.965Y-144.78
X100.965Y-152.4
X100.965Y-160.02
X100.965Y-167.64
X100.965Y-175.26
X100.965Y-182.88
X100.965Y-190.5
X108.839Y-101.727
X111.152Y-195.206
X111.152Y-197.746
X111.379Y-101.727
X113.919Y-101.727
X116.459Y-101.727
X117.475Y-114.3
X117.475Y-121.92
X117.475Y-129.54
X117.475Y-137.16
X117.475Y-144.78
X117.475Y-152.4
X117.475Y-160.02
X117.475Y-167.64
X117.475Y-175.26
X117.475Y-182.88
X120.015Y-114.3
X120.015Y-121.92
X120.015Y-129.54
X120.015Y-137.16
X120.015Y-144.78
X120.015Y-152.4
X120.015Y-160.02
X120.015Y-167.64
X120.015Y-175.26
X120.015Y-182.88
X122.555Y-114.3
X122.555Y-121.92
X122.555Y-129.54
X122.555Y-137.16
X122.555Y-144.78
X122.555Y-152.4
X122.555Y-160.02
X122.555Y-167.64
X122.555Y-175.26
X122.555Y-182.88
X122.582Y-192.666
X122.582Y-195.206
X122.582Y-197.746
X125.095Y-114.3
X125.095Y-121.92
X125.095Y-129.54
X125.095Y-137.16
X125.095Y-144.78
X125.095Y-152.4
X127.635Y-114.3
X127.635Y-121.92
X127.635Y-129.54
X127.635Y-137.16
X127.635Y-144.78
X127.635Y-152.4
X130.175Y-114.3
X130.175Y-121.92
X130.175Y-129.54
X130.175Y-137.16
X130.175Y-144.78
X130.175Y-152.4
X130.202Y-192.666
X130.202Y-195.206
X130.202Y-197.746
X137.822Y-192.666
X137.822Y-195.206
X137.822Y-197.746
X145.442Y-192.666
X145.442Y-195.206
X145.442Y-197.746
X146.685Y-114.3
X146.685Y-121.92
X146.685Y-129.54
X146.685Y-137.033
X146.685Y-144.653
X146.685Y-152.273
X149.225Y-114.3
X149.225Y-121.92
X149.225Y-129.54
X149.225Y-137.033
X149.225Y-144.653
X149.225Y-152.273
X151.765Y-114.3
X151.765Y-121.92
X151.765Y-129.54
X151.765Y-137.033
X151.765Y-144.653
X151.765Y-152.273
X154.305Y-114.3
X154.305Y-121.92
X154.305Y-129.54
X154.305Y-137.033
X154.305Y-144.653
X154.305Y-152.273
X160.655Y-178.435
X160.655Y-186.055
X160.655Y-193.675
X163.195Y-178.435
X163.195Y-186.055
X163.195Y-193.675
X165.735Y-178.435
X165.735Y-186.055
X165.735Y-193.675
X172.72Y-114.427
X172.72Y-122.047
X172.72Y-129.667
X172.72Y-137.287
X175.26Y-114.427
X175.26Y-122.047
X175.26Y-129.667
X175.26Y-137.287
X177.8Y-114.427
X177.8Y-122.047
X177.8Y-129.667
X177.8Y-137.287
X180.34Y-114.427
X180.34Y-122.047
X180.34Y-129.667
X180.34Y-137.287
X182.245Y-163.195
X182.245Y-170.815
X182.245Y-178.435
X182.245Y-186.055
X182.245Y-193.675
X182.88Y-114.427
X182.88Y-122.047
X182.88Y-129.667
X182.88Y-137.287
X184.785Y-163.195
X184.785Y-170.815
X184.785Y-178.435
X184.785Y-186.055
X184.785Y-193.675
X185.42Y-114.427
X185.42Y-122.047
X185.42Y-129.667
X185.42Y-137.287
X187.325Y-163.195
X187.325Y-170.815
X187.325Y-178.435
X187.325Y-186.055
X187.325Y-193.675
X187.96Y-114.427
X187.96Y-122.047
X187.96Y-129.667
X187.96Y-137.287
X201.93Y-124.968
X201.93Y-132.715
X201.93Y-140.335
X201.93Y-147.955
X201.93Y-155.575
X201.93Y-163.195
X201.93Y-170.815
X201.93Y-178.435
X201.93Y-186.055
X201.93Y-193.675
X204.47Y-124.968
X204.47Y-132.715
X204.47Y-140.335
X204.47Y-147.955
X204.47Y-155.575
X204.47Y-163.195
X204.47Y-170.815
X204.47Y-178.435
X204.47Y-186.055
X204.47Y-193.675
X207.01Y-124.968
X207.01Y-132.715
X207.01Y-140.335
X207.01Y-147.955
X207.01Y-155.575
X207.01Y-163.195
X207.01Y-170.815
X207.01Y-178.435
X207.01Y-186.055
X207.01Y-193.675
T4
X128.702Y-101.359
X178.333Y-101.359
T5
X91.701Y-109.828
X91.701Y-121.258
X91.701Y-128.878
X91.701Y-136.498
X91.701Y-144.118
X91.701Y-151.738
X91.701Y-159.358
X91.701Y-166.978
X91.701Y-174.598
X91.701Y-182.218
X91.701Y-189.838
X104.775Y-100.965
X105.029Y-109.728
X105.029Y-121.158
X105.029Y-128.778
X105.029Y-136.398
X105.029Y-144.018
X105.029Y-151.638
X105.029Y-159.258
X105.029Y-166.878
X105.029Y-174.498
X105.029Y-182.118
X105.029Y-189.738
X110.39Y-191.142
X110.39Y-201.81
X113.291Y-159.358
X113.291Y-166.978
X113.291Y-174.598
X113.291Y-182.218
X113.411Y-113.538
X113.411Y-121.158
X113.411Y-128.778
X113.411Y-136.398
X113.411Y-144.018
X113.411Y-151.638
X120.523Y-100.965
X121.82Y-188.602
X121.92Y-201.93
X126.619Y-159.258
X126.619Y-166.878
X126.619Y-174.498
X126.619Y-182.118
X129.44Y-188.602
X129.54Y-201.93
X134.239Y-113.538
X134.239Y-121.158
X134.239Y-128.778
X134.239Y-136.398
X134.239Y-144.018
X134.239Y-151.638
X137.06Y-188.602
X137.16Y-201.93
X142.621Y-113.538
X142.621Y-121.158
X142.621Y-128.778
X142.621Y-136.271
X142.621Y-143.891
X142.621Y-151.511
X144.68Y-188.602
X144.78Y-201.93
X156.471Y-177.773
X156.471Y-185.393
X156.471Y-193.013
X158.369Y-113.538
X158.369Y-121.158
X158.369Y-128.778
X158.369Y-136.271
X158.369Y-143.891
X158.369Y-151.511
X168.656Y-113.665
X168.656Y-121.285
X168.656Y-128.905
X168.656Y-136.525
X169.799Y-177.673
X169.799Y-185.293
X169.799Y-192.913
X178.061Y-162.533
X178.061Y-170.153
X178.061Y-177.773
X178.061Y-185.393
X178.061Y-193.013
X191.389Y-162.433
X191.389Y-170.053
X191.389Y-177.673
X191.389Y-185.293
X191.389Y-192.913
X192.024Y-113.665
X192.024Y-121.285
X192.024Y-128.905
X192.024Y-136.525
X197.746Y-124.306
X197.746Y-132.053
X197.746Y-139.673
X197.746Y-147.293
X197.746Y-154.913
X197.746Y-162.533
X197.746Y-170.153
X197.746Y-177.773
X197.746Y-185.393
X197.746Y-193.013
X211.074Y-124.206
X211.074Y-131.953
X211.074Y-139.573
X211.074Y-147.193
X211.074Y-154.813
X211.074Y-162.433
X211.074Y-170.053
X211.074Y-177.673
X211.074Y-185.293
X211.074Y-192.913
M30
