%TF.GenerationSoftware,KiCad,Pcbnew,7.0.10-7.0.10~ubuntu22.04.1*%
%TF.CreationDate,2024-01-21T09:53:33-08:00*%
%TF.ProjectId,RRIB2,52524942-322e-46b6-9963-61645f706362,V1.0*%
%TF.SameCoordinates,PX4fefde0PYc90dba0*%
%TF.FileFunction,Profile,NP*%
%FSLAX46Y46*%
G04 Gerber Fmt 4.6, Leading zero omitted, Abs format (unit mm)*
G04 Created by KiCad (PCBNEW 7.0.10-7.0.10~ubuntu22.04.1) date 2024-01-21 09:53:33*
%MOMM*%
%LPD*%
G01*
G04 APERTURE LIST*
%TA.AperFunction,Profile*%
%ADD10C,0.100000*%
%TD*%
G04 APERTURE END LIST*
D10*
X224282000Y-195707000D02*
X224282000Y-120777000D01*
X210693000Y-118872000D02*
X222377000Y-118872000D01*
X83820000Y-205613000D02*
G75*
G03*
X89027000Y-210820000I5207000J0D01*
G01*
X186944000Y-96139000D02*
G75*
G03*
X188849000Y-94234000I0J1905000D01*
G01*
X85725000Y-96139000D02*
G75*
G03*
X83820000Y-98044000I0J-1905000D01*
G01*
X188849000Y-94234000D02*
X188849000Y-74295000D01*
X187706000Y-197612000D02*
G75*
G03*
X185801000Y-199517000I0J-1905000D01*
G01*
X187706000Y-197612000D02*
X222377000Y-197612000D01*
X222377000Y-197612000D02*
G75*
G03*
X224282000Y-195707000I0J1905000D01*
G01*
X208788000Y-77597000D02*
G75*
G03*
X203581000Y-72390000I-5207000J0D01*
G01*
X224282000Y-120777000D02*
G75*
G03*
X222377000Y-118872000I-1905000J0D01*
G01*
X89027000Y-210820000D02*
X183896000Y-210820000D01*
X190754000Y-72390000D02*
G75*
G03*
X188849000Y-74295000I0J-1905000D01*
G01*
X183896000Y-210820000D02*
G75*
G03*
X185801000Y-208915000I0J1905000D01*
G01*
X83820000Y-205613000D02*
X83820000Y-98044000D01*
X85725000Y-96139000D02*
X186944000Y-96139000D01*
X185801000Y-208915000D02*
X185801000Y-199517000D01*
X190754000Y-72390000D02*
X203581000Y-72390000D01*
X208788000Y-77597000D02*
X208788000Y-116967000D01*
X208788000Y-116967000D02*
G75*
G03*
X210693000Y-118872000I1905000J0D01*
G01*
M02*
