<?xml version="1.0" standalone="no"?>
 <!DOCTYPE svg PUBLIC "-//W3C//DTD SVG 1.1//EN" 
 "http://www.w3.org/Graphics/SVG/1.1/DTD/svg11.dtd"> 
<svg
  xmlns:svg="http://www.w3.org/2000/svg"
  xmlns="http://www.w3.org/2000/svg"
  xmlns:xlink="http://www.w3.org/1999/xlink"
  version="1.1"
  width="431.8000mm" height="279.4000mm" viewBox="0.0000 0.0000 431.8000 279.4000">
<title>SVG Image created as mag-encoder-B_Silkscreen.svg date 2024/08/20 22:48:12 </title>
  <desc>Image generated by PCBNEW </desc>
<g style="fill:#000000; fill-opacity:1.0000;stroke:#000000; stroke-opacity:1.0000;
stroke-linecap:round; stroke-linejoin:round;"
 transform="translate(0 0) scale(1 1)">
</g>
<g style="fill:none; 
stroke:#000000; stroke-width:0.1524; stroke-opacity:1; 
stroke-linecap:round; stroke-linejoin:round;">
<text x="209.8040" y="112.1703"
textLength="16.4084" font-size="1.1853" lengthAdjust="spacingAndGlyphs"
text-anchor="middle" opacity="0" stroke-opacity="0">971 SPARTAN ROBOTICS</text>
<g class="stroked-text"><desc>971 SPARTAN ROBOTICS</desc>
<path d="M201.9935 112.1291
L202.1628 112.1291
" />
<path d="M202.1628 112.1291
L202.2475 112.0868
" />
<path d="M202.2475 112.0868
L202.2898 112.0444
" />
<path d="M202.2898 112.0444
L202.3745 111.9174
" />
<path d="M202.3745 111.9174
L202.4168 111.7481
" />
<path d="M202.4168 111.7481
L202.4168 111.4094
" />
<path d="M202.4168 111.4094
L202.3745 111.3248
" />
<path d="M202.3745 111.3248
L202.3322 111.2824
" />
<path d="M202.3322 111.2824
L202.2475 111.2401
" />
<path d="M202.2475 111.2401
L202.0782 111.2401
" />
<path d="M202.0782 111.2401
L201.9935 111.2824
" />
<path d="M201.9935 111.2824
L201.9512 111.3248
" />
<path d="M201.9512 111.3248
L201.9088 111.4094
" />
<path d="M201.9088 111.4094
L201.9088 111.6211
" />
<path d="M201.9088 111.6211
L201.9512 111.7058
" />
<path d="M201.9512 111.7058
L201.9935 111.7481
" />
<path d="M201.9935 111.7481
L202.0782 111.7904
" />
<path d="M202.0782 111.7904
L202.2475 111.7904
" />
<path d="M202.2475 111.7904
L202.3322 111.7481
" />
<path d="M202.3322 111.7481
L202.3745 111.7058
" />
<path d="M202.3745 111.7058
L202.4168 111.6211
" />
<path d="M202.7132 111.2401
L203.3058 111.2401
" />
<path d="M203.3058 111.2401
L202.9248 112.1291
" />
<path d="M204.1102 112.1291
L203.6022 112.1291
" />
<path d="M203.8562 112.1291
L203.8562 111.2401
" />
<path d="M203.8562 111.2401
L203.7715 111.3671
" />
<path d="M203.7715 111.3671
L203.6868 111.4518
" />
<path d="M203.6868 111.4518
L203.6022 111.4941
" />
<path d="M205.1262 112.0868
L205.2532 112.1291
" />
<path d="M205.2532 112.1291
L205.4648 112.1291
" />
<path d="M205.4648 112.1291
L205.5495 112.0868
" />
<path d="M205.5495 112.0868
L205.5918 112.0444
" />
<path d="M205.5918 112.0444
L205.6342 111.9598
" />
<path d="M205.6342 111.9598
L205.6342 111.8751
" />
<path d="M205.6342 111.8751
L205.5918 111.7904
" />
<path d="M205.5918 111.7904
L205.5495 111.7481
" />
<path d="M205.5495 111.7481
L205.4648 111.7058
" />
<path d="M205.4648 111.7058
L205.2955 111.6634
" />
<path d="M205.2955 111.6634
L205.2108 111.6211
" />
<path d="M205.2108 111.6211
L205.1685 111.5788
" />
<path d="M205.1685 111.5788
L205.1262 111.4941
" />
<path d="M205.1262 111.4941
L205.1262 111.4094
" />
<path d="M205.1262 111.4094
L205.1685 111.3248
" />
<path d="M205.1685 111.3248
L205.2108 111.2824
" />
<path d="M205.2108 111.2824
L205.2955 111.2401
" />
<path d="M205.2955 111.2401
L205.5072 111.2401
" />
<path d="M205.5072 111.2401
L205.6342 111.2824
" />
<path d="M206.0152 112.1291
L206.0152 111.2401
" />
<path d="M206.0152 111.2401
L206.3538 111.2401
" />
<path d="M206.3538 111.2401
L206.4385 111.2824
" />
<path d="M206.4385 111.2824
L206.4808 111.3248
" />
<path d="M206.4808 111.3248
L206.5232 111.4094
" />
<path d="M206.5232 111.4094
L206.5232 111.5364
" />
<path d="M206.5232 111.5364
L206.4808 111.6211
" />
<path d="M206.4808 111.6211
L206.4385 111.6634
" />
<path d="M206.4385 111.6634
L206.3538 111.7058
" />
<path d="M206.3538 111.7058
L206.0152 111.7058
" />
<path d="M206.8618 111.8751
L207.2852 111.8751
" />
<path d="M206.7772 112.1291
L207.0735 111.2401
" />
<path d="M207.0735 111.2401
L207.3698 112.1291
" />
<path d="M208.1742 112.1291
L207.8778 111.7058
" />
<path d="M207.6662 112.1291
L207.6662 111.2401
" />
<path d="M207.6662 111.2401
L208.0048 111.2401
" />
<path d="M208.0048 111.2401
L208.0895 111.2824
" />
<path d="M208.0895 111.2824
L208.1318 111.3248
" />
<path d="M208.1318 111.3248
L208.1742 111.4094
" />
<path d="M208.1742 111.4094
L208.1742 111.5364
" />
<path d="M208.1742 111.5364
L208.1318 111.6211
" />
<path d="M208.1318 111.6211
L208.0895 111.6634
" />
<path d="M208.0895 111.6634
L208.0048 111.7058
" />
<path d="M208.0048 111.7058
L207.6662 111.7058
" />
<path d="M208.4282 111.2401
L208.9362 111.2401
" />
<path d="M208.6822 112.1291
L208.6822 111.2401
" />
<path d="M209.1902 111.8751
L209.6135 111.8751
" />
<path d="M209.1055 112.1291
L209.4018 111.2401
" />
<path d="M209.4018 111.2401
L209.6982 112.1291
" />
<path d="M209.9945 112.1291
L209.9945 111.2401
" />
<path d="M209.9945 111.2401
L210.5025 112.1291
" />
<path d="M210.5025 112.1291
L210.5025 111.2401
" />
<path d="M212.1112 112.1291
L211.8148 111.7058
" />
<path d="M211.6032 112.1291
L211.6032 111.2401
" />
<path d="M211.6032 111.2401
L211.9418 111.2401
" />
<path d="M211.9418 111.2401
L212.0265 111.2824
" />
<path d="M212.0265 111.2824
L212.0688 111.3248
" />
<path d="M212.0688 111.3248
L212.1112 111.4094
" />
<path d="M212.1112 111.4094
L212.1112 111.5364
" />
<path d="M212.1112 111.5364
L212.0688 111.6211
" />
<path d="M212.0688 111.6211
L212.0265 111.6634
" />
<path d="M212.0265 111.6634
L211.9418 111.7058
" />
<path d="M211.9418 111.7058
L211.6032 111.7058
" />
<path d="M212.6615 111.2401
L212.8308 111.2401
" />
<path d="M212.8308 111.2401
L212.9155 111.2824
" />
<path d="M212.9155 111.2824
L213.0002 111.3671
" />
<path d="M213.0002 111.3671
L213.0425 111.5364
" />
<path d="M213.0425 111.5364
L213.0425 111.8328
" />
<path d="M213.0425 111.8328
L213.0002 112.0021
" />
<path d="M213.0002 112.0021
L212.9155 112.0868
" />
<path d="M212.9155 112.0868
L212.8308 112.1291
" />
<path d="M212.8308 112.1291
L212.6615 112.1291
" />
<path d="M212.6615 112.1291
L212.5768 112.0868
" />
<path d="M212.5768 112.0868
L212.4922 112.0021
" />
<path d="M212.4922 112.0021
L212.4498 111.8328
" />
<path d="M212.4498 111.8328
L212.4498 111.5364
" />
<path d="M212.4498 111.5364
L212.4922 111.3671
" />
<path d="M212.4922 111.3671
L212.5768 111.2824
" />
<path d="M212.5768 111.2824
L212.6615 111.2401
" />
<path d="M213.7198 111.6634
L213.8468 111.7058
" />
<path d="M213.8468 111.7058
L213.8892 111.7481
" />
<path d="M213.8892 111.7481
L213.9315 111.8328
" />
<path d="M213.9315 111.8328
L213.9315 111.9598
" />
<path d="M213.9315 111.9598
L213.8892 112.0444
" />
<path d="M213.8892 112.0444
L213.8468 112.0868
" />
<path d="M213.8468 112.0868
L213.7622 112.1291
" />
<path d="M213.7622 112.1291
L213.4235 112.1291
" />
<path d="M213.4235 112.1291
L213.4235 111.2401
" />
<path d="M213.4235 111.2401
L213.7198 111.2401
" />
<path d="M213.7198 111.2401
L213.8045 111.2824
" />
<path d="M213.8045 111.2824
L213.8468 111.3248
" />
<path d="M213.8468 111.3248
L213.8892 111.4094
" />
<path d="M213.8892 111.4094
L213.8892 111.4941
" />
<path d="M213.8892 111.4941
L213.8468 111.5788
" />
<path d="M213.8468 111.5788
L213.8045 111.6211
" />
<path d="M213.8045 111.6211
L213.7198 111.6634
" />
<path d="M213.7198 111.6634
L213.4235 111.6634
" />
<path d="M214.4818 111.2401
L214.6512 111.2401
" />
<path d="M214.6512 111.2401
L214.7358 111.2824
" />
<path d="M214.7358 111.2824
L214.8205 111.3671
" />
<path d="M214.8205 111.3671
L214.8628 111.5364
" />
<path d="M214.8628 111.5364
L214.8628 111.8328
" />
<path d="M214.8628 111.8328
L214.8205 112.0021
" />
<path d="M214.8205 112.0021
L214.7358 112.0868
" />
<path d="M214.7358 112.0868
L214.6512 112.1291
" />
<path d="M214.6512 112.1291
L214.4818 112.1291
" />
<path d="M214.4818 112.1291
L214.3972 112.0868
" />
<path d="M214.3972 112.0868
L214.3125 112.0021
" />
<path d="M214.3125 112.0021
L214.2702 111.8328
" />
<path d="M214.2702 111.8328
L214.2702 111.5364
" />
<path d="M214.2702 111.5364
L214.3125 111.3671
" />
<path d="M214.3125 111.3671
L214.3972 111.2824
" />
<path d="M214.3972 111.2824
L214.4818 111.2401
" />
<path d="M215.1168 111.2401
L215.6248 111.2401
" />
<path d="M215.3708 112.1291
L215.3708 111.2401
" />
<path d="M215.9212 112.1291
L215.9212 111.2401
" />
<path d="M216.8525 112.0444
L216.8102 112.0868
" />
<path d="M216.8102 112.0868
L216.6832 112.1291
" />
<path d="M216.6832 112.1291
L216.5985 112.1291
" />
<path d="M216.5985 112.1291
L216.4715 112.0868
" />
<path d="M216.4715 112.0868
L216.3868 112.0021
" />
<path d="M216.3868 112.0021
L216.3445 111.9174
" />
<path d="M216.3445 111.9174
L216.3022 111.7481
" />
<path d="M216.3022 111.7481
L216.3022 111.6211
" />
<path d="M216.3022 111.6211
L216.3445 111.4518
" />
<path d="M216.3445 111.4518
L216.3868 111.3671
" />
<path d="M216.3868 111.3671
L216.4715 111.2824
" />
<path d="M216.4715 111.2824
L216.5985 111.2401
" />
<path d="M216.5985 111.2401
L216.6832 111.2401
" />
<path d="M216.6832 111.2401
L216.8102 111.2824
" />
<path d="M216.8102 111.2824
L216.8525 111.3248
" />
<path d="M217.1912 112.0868
L217.3182 112.1291
" />
<path d="M217.3182 112.1291
L217.5298 112.1291
" />
<path d="M217.5298 112.1291
L217.6145 112.0868
" />
<path d="M217.6145 112.0868
L217.6568 112.0444
" />
<path d="M217.6568 112.0444
L217.6992 111.9598
" />
<path d="M217.6992 111.9598
L217.6992 111.8751
" />
<path d="M217.6992 111.8751
L217.6568 111.7904
" />
<path d="M217.6568 111.7904
L217.6145 111.7481
" />
<path d="M217.6145 111.7481
L217.5298 111.7058
" />
<path d="M217.5298 111.7058
L217.3605 111.6634
" />
<path d="M217.3605 111.6634
L217.2758 111.6211
" />
<path d="M217.2758 111.6211
L217.2335 111.5788
" />
<path d="M217.2335 111.5788
L217.1912 111.4941
" />
<path d="M217.1912 111.4941
L217.1912 111.4094
" />
<path d="M217.1912 111.4094
L217.2335 111.3248
" />
<path d="M217.2335 111.3248
L217.2758 111.2824
" />
<path d="M217.2758 111.2824
L217.3605 111.2401
" />
<path d="M217.3605 111.2401
L217.5722 111.2401
" />
<path d="M217.5722 111.2401
L217.6992 111.2824
" />
</g><text x="209.8040" y="113.6015"
textLength="12.0481" font-size="1.1853" lengthAdjust="spacingAndGlyphs"
text-anchor="middle" opacity="0" stroke-opacity="0">MAG ENCODER V1</text>
<g class="stroked-text"><desc>MAG ENCODER V1</desc>
<path d="M204.1313 113.5603
L204.1313 112.6713
" />
<path d="M204.1313 112.6713
L204.4277 113.3063
" />
<path d="M204.4277 113.3063
L204.7240 112.6713
" />
<path d="M204.7240 112.6713
L204.7240 113.5603
" />
<path d="M205.1050 113.3063
L205.5283 113.3063
" />
<path d="M205.0203 113.5603
L205.3167 112.6713
" />
<path d="M205.3167 112.6713
L205.6130 113.5603
" />
<path d="M206.3750 112.7137
L206.2903 112.6713
" />
<path d="M206.2903 112.6713
L206.1633 112.6713
" />
<path d="M206.1633 112.6713
L206.0363 112.7137
" />
<path d="M206.0363 112.7137
L205.9517 112.7983
" />
<path d="M205.9517 112.7983
L205.9093 112.8830
" />
<path d="M205.9093 112.8830
L205.8670 113.0523
" />
<path d="M205.8670 113.0523
L205.8670 113.1793
" />
<path d="M205.8670 113.1793
L205.9093 113.3487
" />
<path d="M205.9093 113.3487
L205.9517 113.4333
" />
<path d="M205.9517 113.4333
L206.0363 113.5180
" />
<path d="M206.0363 113.5180
L206.1633 113.5603
" />
<path d="M206.1633 113.5603
L206.2480 113.5603
" />
<path d="M206.2480 113.5603
L206.3750 113.5180
" />
<path d="M206.3750 113.5180
L206.4173 113.4757
" />
<path d="M206.4173 113.4757
L206.4173 113.1793
" />
<path d="M206.4173 113.1793
L206.2480 113.1793
" />
<path d="M207.4757 113.0947
L207.7720 113.0947
" />
<path d="M207.8990 113.5603
L207.4757 113.5603
" />
<path d="M207.4757 113.5603
L207.4757 112.6713
" />
<path d="M207.4757 112.6713
L207.8990 112.6713
" />
<path d="M208.2800 113.5603
L208.2800 112.6713
" />
<path d="M208.2800 112.6713
L208.7880 113.5603
" />
<path d="M208.7880 113.5603
L208.7880 112.6713
" />
<path d="M209.7193 113.4757
L209.6770 113.5180
" />
<path d="M209.6770 113.5180
L209.5500 113.5603
" />
<path d="M209.5500 113.5603
L209.4653 113.5603
" />
<path d="M209.4653 113.5603
L209.3383 113.5180
" />
<path d="M209.3383 113.5180
L209.2537 113.4333
" />
<path d="M209.2537 113.4333
L209.2113 113.3487
" />
<path d="M209.2113 113.3487
L209.1690 113.1793
" />
<path d="M209.1690 113.1793
L209.1690 113.0523
" />
<path d="M209.1690 113.0523
L209.2113 112.8830
" />
<path d="M209.2113 112.8830
L209.2537 112.7983
" />
<path d="M209.2537 112.7983
L209.3383 112.7137
" />
<path d="M209.3383 112.7137
L209.4653 112.6713
" />
<path d="M209.4653 112.6713
L209.5500 112.6713
" />
<path d="M209.5500 112.6713
L209.6770 112.7137
" />
<path d="M209.6770 112.7137
L209.7193 112.7560
" />
<path d="M210.2697 112.6713
L210.4390 112.6713
" />
<path d="M210.4390 112.6713
L210.5237 112.7137
" />
<path d="M210.5237 112.7137
L210.6083 112.7983
" />
<path d="M210.6083 112.7983
L210.6507 112.9677
" />
<path d="M210.6507 112.9677
L210.6507 113.2640
" />
<path d="M210.6507 113.2640
L210.6083 113.4333
" />
<path d="M210.6083 113.4333
L210.5237 113.5180
" />
<path d="M210.5237 113.5180
L210.4390 113.5603
" />
<path d="M210.4390 113.5603
L210.2697 113.5603
" />
<path d="M210.2697 113.5603
L210.1850 113.5180
" />
<path d="M210.1850 113.5180
L210.1003 113.4333
" />
<path d="M210.1003 113.4333
L210.0580 113.2640
" />
<path d="M210.0580 113.2640
L210.0580 112.9677
" />
<path d="M210.0580 112.9677
L210.1003 112.7983
" />
<path d="M210.1003 112.7983
L210.1850 112.7137
" />
<path d="M210.1850 112.7137
L210.2697 112.6713
" />
<path d="M211.0317 113.5603
L211.0317 112.6713
" />
<path d="M211.0317 112.6713
L211.2433 112.6713
" />
<path d="M211.2433 112.6713
L211.3703 112.7137
" />
<path d="M211.3703 112.7137
L211.4550 112.7983
" />
<path d="M211.4550 112.7983
L211.4973 112.8830
" />
<path d="M211.4973 112.8830
L211.5397 113.0523
" />
<path d="M211.5397 113.0523
L211.5397 113.1793
" />
<path d="M211.5397 113.1793
L211.4973 113.3487
" />
<path d="M211.4973 113.3487
L211.4550 113.4333
" />
<path d="M211.4550 113.4333
L211.3703 113.5180
" />
<path d="M211.3703 113.5180
L211.2433 113.5603
" />
<path d="M211.2433 113.5603
L211.0317 113.5603
" />
<path d="M211.9207 113.0947
L212.2170 113.0947
" />
<path d="M212.3440 113.5603
L211.9207 113.5603
" />
<path d="M211.9207 113.5603
L211.9207 112.6713
" />
<path d="M211.9207 112.6713
L212.3440 112.6713
" />
<path d="M213.2330 113.5603
L212.9367 113.1370
" />
<path d="M212.7250 113.5603
L212.7250 112.6713
" />
<path d="M212.7250 112.6713
L213.0637 112.6713
" />
<path d="M213.0637 112.6713
L213.1483 112.7137
" />
<path d="M213.1483 112.7137
L213.1907 112.7560
" />
<path d="M213.1907 112.7560
L213.2330 112.8407
" />
<path d="M213.2330 112.8407
L213.2330 112.9677
" />
<path d="M213.2330 112.9677
L213.1907 113.0523
" />
<path d="M213.1907 113.0523
L213.1483 113.0947
" />
<path d="M213.1483 113.0947
L213.0637 113.1370
" />
<path d="M213.0637 113.1370
L212.7250 113.1370
" />
<path d="M214.1643 112.6713
L214.4607 113.5603
" />
<path d="M214.4607 113.5603
L214.7570 112.6713
" />
<path d="M215.5190 113.5603
L215.0110 113.5603
" />
<path d="M215.2650 113.5603
L215.2650 112.6713
" />
<path d="M215.2650 112.6713
L215.1803 112.7983
" />
<path d="M215.1803 112.7983
L215.0957 112.8830
" />
<path d="M215.0957 112.8830
L215.0110 112.9253
" />
</g><text x="209.8040" y="115.0327"
textLength="3.6661" font-size="1.1853" lengthAdjust="spacingAndGlyphs"
text-anchor="middle" opacity="0" stroke-opacity="0">2024</text>
<g class="stroked-text"><desc>2024</desc>
<path d="M208.2800 114.1873
L208.3223 114.1449
" />
<path d="M208.3223 114.1449
L208.4070 114.1026
" />
<path d="M208.4070 114.1026
L208.6187 114.1026
" />
<path d="M208.6187 114.1026
L208.7033 114.1449
" />
<path d="M208.7033 114.1449
L208.7457 114.1873
" />
<path d="M208.7457 114.1873
L208.7880 114.2719
" />
<path d="M208.7880 114.2719
L208.7880 114.3566
" />
<path d="M208.7880 114.3566
L208.7457 114.4836
" />
<path d="M208.7457 114.4836
L208.2377 114.9916
" />
<path d="M208.2377 114.9916
L208.7880 114.9916
" />
<path d="M209.3383 114.1026
L209.4230 114.1026
" />
<path d="M209.4230 114.1026
L209.5077 114.1449
" />
<path d="M209.5077 114.1449
L209.5500 114.1873
" />
<path d="M209.5500 114.1873
L209.5923 114.2719
" />
<path d="M209.5923 114.2719
L209.6347 114.4413
" />
<path d="M209.6347 114.4413
L209.6347 114.6529
" />
<path d="M209.6347 114.6529
L209.5923 114.8223
" />
<path d="M209.5923 114.8223
L209.5500 114.9069
" />
<path d="M209.5500 114.9069
L209.5077 114.9493
" />
<path d="M209.5077 114.9493
L209.4230 114.9916
" />
<path d="M209.4230 114.9916
L209.3383 114.9916
" />
<path d="M209.3383 114.9916
L209.2537 114.9493
" />
<path d="M209.2537 114.9493
L209.2113 114.9069
" />
<path d="M209.2113 114.9069
L209.1690 114.8223
" />
<path d="M209.1690 114.8223
L209.1267 114.6529
" />
<path d="M209.1267 114.6529
L209.1267 114.4413
" />
<path d="M209.1267 114.4413
L209.1690 114.2719
" />
<path d="M209.1690 114.2719
L209.2113 114.1873
" />
<path d="M209.2113 114.1873
L209.2537 114.1449
" />
<path d="M209.2537 114.1449
L209.3383 114.1026
" />
<path d="M209.9733 114.1873
L210.0157 114.1449
" />
<path d="M210.0157 114.1449
L210.1003 114.1026
" />
<path d="M210.1003 114.1026
L210.3120 114.1026
" />
<path d="M210.3120 114.1026
L210.3967 114.1449
" />
<path d="M210.3967 114.1449
L210.4390 114.1873
" />
<path d="M210.4390 114.1873
L210.4813 114.2719
" />
<path d="M210.4813 114.2719
L210.4813 114.3566
" />
<path d="M210.4813 114.3566
L210.4390 114.4836
" />
<path d="M210.4390 114.4836
L209.9310 114.9916
" />
<path d="M209.9310 114.9916
L210.4813 114.9916
" />
<path d="M211.2433 114.3989
L211.2433 114.9916
" />
<path d="M211.0317 114.0603
L210.8200 114.6953
" />
<path d="M210.8200 114.6953
L211.3703 114.6953
" />
</g></g>
<g style="fill:none; 
stroke:#000000; stroke-width:0.1270; stroke-opacity:1; 
stroke-linecap:round; stroke-linejoin:round;">
<g transform="rotate(90.000000 200.4060 113.1316)">
<text x="200.4060" y="113.4491"
textLength="1.4938" font-size="0.8467" lengthAdjust="spacingAndGlyphs"
text-anchor="middle" opacity="0" stroke-opacity="0">R3</text>
</g>
<g class="stroked-text"><desc>R3</desc>
<path d="M200.1188 113.0258
L200.4212 112.8141
" />
<path d="M200.1188 112.6629
L200.7538 112.6629
" />
<path d="M200.7538 112.6629
L200.7538 112.9048
" />
<path d="M200.7538 112.9048
L200.7236 112.9653
" />
<path d="M200.7236 112.9653
L200.6934 112.9955
" />
<path d="M200.6934 112.9955
L200.6329 113.0258
" />
<path d="M200.6329 113.0258
L200.5422 113.0258
" />
<path d="M200.5422 113.0258
L200.4817 112.9955
" />
<path d="M200.4817 112.9955
L200.4515 112.9653
" />
<path d="M200.4515 112.9653
L200.4212 112.9048
" />
<path d="M200.4212 112.9048
L200.4212 112.6629
" />
<path d="M200.7538 113.2374
L200.7538 113.6305
" />
<path d="M200.7538 113.6305
L200.5119 113.4189
" />
<path d="M200.5119 113.4189
L200.5119 113.5096
" />
<path d="M200.5119 113.5096
L200.4817 113.5701
" />
<path d="M200.4817 113.5701
L200.4515 113.6003
" />
<path d="M200.4515 113.6003
L200.3910 113.6305
" />
<path d="M200.3910 113.6305
L200.2398 113.6305
" />
<path d="M200.2398 113.6305
L200.1793 113.6003
" />
<path d="M200.1793 113.6003
L200.1491 113.5701
" />
<path d="M200.1491 113.5701
L200.1188 113.5096
" />
<path d="M200.1188 113.5096
L200.1188 113.3281
" />
<path d="M200.1188 113.3281
L200.1491 113.2677
" />
<path d="M200.1491 113.2677
L200.1793 113.2374
" />
</g><text x="209.5500" y="103.6955"
textLength="1.4938" font-size="0.8467" lengthAdjust="spacingAndGlyphs"
text-anchor="middle" opacity="0" stroke-opacity="0">R5</text>
<g class="stroked-text"><desc>R5</desc>
<path d="M209.4442 103.6652
L209.2325 103.3628
" />
<path d="M209.0813 103.6652
L209.0813 103.0302
" />
<path d="M209.0813 103.0302
L209.3232 103.0302
" />
<path d="M209.3232 103.0302
L209.3837 103.0604
" />
<path d="M209.3837 103.0604
L209.4139 103.0906
" />
<path d="M209.4139 103.0906
L209.4442 103.1511
" />
<path d="M209.4442 103.1511
L209.4442 103.2418
" />
<path d="M209.4442 103.2418
L209.4139 103.3023
" />
<path d="M209.4139 103.3023
L209.3837 103.3325
" />
<path d="M209.3837 103.3325
L209.3232 103.3628
" />
<path d="M209.3232 103.3628
L209.0813 103.3628
" />
<path d="M210.0187 103.0302
L209.7163 103.0302
" />
<path d="M209.7163 103.0302
L209.6861 103.3325
" />
<path d="M209.6861 103.3325
L209.7163 103.3023
" />
<path d="M209.7163 103.3023
L209.7768 103.2721
" />
<path d="M209.7768 103.2721
L209.9280 103.2721
" />
<path d="M209.9280 103.2721
L209.9885 103.3023
" />
<path d="M209.9885 103.3023
L210.0187 103.3325
" />
<path d="M210.0187 103.3325
L210.0489 103.3930
" />
<path d="M210.0489 103.3930
L210.0489 103.5442
" />
<path d="M210.0489 103.5442
L210.0187 103.6047
" />
<path d="M210.0187 103.6047
L209.9885 103.6349
" />
<path d="M209.9885 103.6349
L209.9280 103.6652
" />
<path d="M209.9280 103.6652
L209.7768 103.6652
" />
<path d="M209.7768 103.6652
L209.7163 103.6349
" />
<path d="M209.7163 103.6349
L209.6861 103.6047
" />
</g><g transform="rotate(90.000000 205.6130 107.3150)">
<text x="205.6130" y="107.6325"
textLength="1.5240" font-size="0.8467" lengthAdjust="spacingAndGlyphs"
text-anchor="middle" opacity="0" stroke-opacity="0">U3</text>
</g>
<g class="stroked-text"><desc>U3</desc>
<path d="M205.9608 106.8312
L205.4468 106.8312
" />
<path d="M205.4468 106.8312
L205.3863 106.8614
" />
<path d="M205.3863 106.8614
L205.3561 106.8917
" />
<path d="M205.3561 106.8917
L205.3258 106.9521
" />
<path d="M205.3258 106.9521
L205.3258 107.0731
" />
<path d="M205.3258 107.0731
L205.3561 107.1336
" />
<path d="M205.3561 107.1336
L205.3863 107.1638
" />
<path d="M205.3863 107.1638
L205.4468 107.1940
" />
<path d="M205.4468 107.1940
L205.9608 107.1940
" />
<path d="M205.9608 107.4360
L205.9608 107.8290
" />
<path d="M205.9608 107.8290
L205.7189 107.6174
" />
<path d="M205.7189 107.6174
L205.7189 107.7081
" />
<path d="M205.7189 107.7081
L205.6887 107.7686
" />
<path d="M205.6887 107.7686
L205.6585 107.7988
" />
<path d="M205.6585 107.7988
L205.5980 107.8290
" />
<path d="M205.5980 107.8290
L205.4468 107.8290
" />
<path d="M205.4468 107.8290
L205.3863 107.7988
" />
<path d="M205.3863 107.7988
L205.3561 107.7686
" />
<path d="M205.3561 107.7686
L205.3258 107.7081
" />
<path d="M205.3258 107.7081
L205.3258 107.5267
" />
<path d="M205.3258 107.5267
L205.3561 107.4662
" />
<path d="M205.3561 107.4662
L205.3863 107.4360
" />
</g><text x="209.5500" y="106.2355"
textLength="1.4938" font-size="0.8467" lengthAdjust="spacingAndGlyphs"
text-anchor="middle" opacity="0" stroke-opacity="0">R6</text>
<g class="stroked-text"><desc>R6</desc>
<path d="M209.4442 106.2052
L209.2325 105.9028
" />
<path d="M209.0813 106.2052
L209.0813 105.5702
" />
<path d="M209.0813 105.5702
L209.3232 105.5702
" />
<path d="M209.3232 105.5702
L209.3837 105.6004
" />
<path d="M209.3837 105.6004
L209.4139 105.6306
" />
<path d="M209.4139 105.6306
L209.4442 105.6911
" />
<path d="M209.4442 105.6911
L209.4442 105.7818
" />
<path d="M209.4442 105.7818
L209.4139 105.8423
" />
<path d="M209.4139 105.8423
L209.3837 105.8725
" />
<path d="M209.3837 105.8725
L209.3232 105.9028
" />
<path d="M209.3232 105.9028
L209.0813 105.9028
" />
<path d="M209.9885 105.5702
L209.8675 105.5702
" />
<path d="M209.8675 105.5702
L209.8070 105.6004
" />
<path d="M209.8070 105.6004
L209.7768 105.6306
" />
<path d="M209.7768 105.6306
L209.7163 105.7213
" />
<path d="M209.7163 105.7213
L209.6861 105.8423
" />
<path d="M209.6861 105.8423
L209.6861 106.0842
" />
<path d="M209.6861 106.0842
L209.7163 106.1447
" />
<path d="M209.7163 106.1447
L209.7465 106.1749
" />
<path d="M209.7465 106.1749
L209.8070 106.2052
" />
<path d="M209.8070 106.2052
L209.9280 106.2052
" />
<path d="M209.9280 106.2052
L209.9885 106.1749
" />
<path d="M209.9885 106.1749
L210.0187 106.1447
" />
<path d="M210.0187 106.1447
L210.0489 106.0842
" />
<path d="M210.0489 106.0842
L210.0489 105.9330
" />
<path d="M210.0489 105.9330
L210.0187 105.8725
" />
<path d="M210.0187 105.8725
L209.9885 105.8423
" />
<path d="M209.9885 105.8423
L209.9280 105.8121
" />
<path d="M209.9280 105.8121
L209.8070 105.8121
" />
<path d="M209.8070 105.8121
L209.7465 105.8423
" />
<path d="M209.7465 105.8423
L209.7163 105.8725
" />
<path d="M209.7163 105.8725
L209.6861 105.9330
" />
</g><text x="209.5500" y="108.7755"
textLength="1.4938" font-size="0.8467" lengthAdjust="spacingAndGlyphs"
text-anchor="middle" opacity="0" stroke-opacity="0">R7</text>
<g class="stroked-text"><desc>R7</desc>
<path d="M209.4442 108.7452
L209.2325 108.4428
" />
<path d="M209.0813 108.7452
L209.0813 108.1102
" />
<path d="M209.0813 108.1102
L209.3232 108.1102
" />
<path d="M209.3232 108.1102
L209.3837 108.1404
" />
<path d="M209.3837 108.1404
L209.4139 108.1706
" />
<path d="M209.4139 108.1706
L209.4442 108.2311
" />
<path d="M209.4442 108.2311
L209.4442 108.3218
" />
<path d="M209.4442 108.3218
L209.4139 108.3823
" />
<path d="M209.4139 108.3823
L209.3837 108.4125
" />
<path d="M209.3837 108.4125
L209.3232 108.4428
" />
<path d="M209.3232 108.4428
L209.0813 108.4428
" />
<path d="M209.6558 108.1102
L210.0792 108.1102
" />
<path d="M210.0792 108.1102
L209.8070 108.7452
" />
</g><g transform="rotate(90.000000 200.4060 105.2830)">
<text x="200.4060" y="105.6005"
textLength="1.4938" font-size="0.8467" lengthAdjust="spacingAndGlyphs"
text-anchor="middle" opacity="0" stroke-opacity="0">R1</text>
</g>
<g class="stroked-text"><desc>R1</desc>
<path d="M200.1188 105.1772
L200.4212 104.9655
" />
<path d="M200.1188 104.8143
L200.7538 104.8143
" />
<path d="M200.7538 104.8143
L200.7538 105.0562
" />
<path d="M200.7538 105.0562
L200.7236 105.1167
" />
<path d="M200.7236 105.1167
L200.6934 105.1469
" />
<path d="M200.6934 105.1469
L200.6329 105.1772
" />
<path d="M200.6329 105.1772
L200.5422 105.1772
" />
<path d="M200.5422 105.1772
L200.4817 105.1469
" />
<path d="M200.4817 105.1469
L200.4515 105.1167
" />
<path d="M200.4515 105.1167
L200.4212 105.0562
" />
<path d="M200.4212 105.0562
L200.4212 104.8143
" />
<path d="M200.1188 105.7819
L200.1188 105.4191
" />
<path d="M200.1188 105.6005
L200.7538 105.6005
" />
<path d="M200.7538 105.6005
L200.6631 105.5400
" />
<path d="M200.6631 105.5400
L200.6027 105.4795
" />
<path d="M200.6027 105.4795
L200.5724 105.4191
" />
</g><g transform="rotate(90.000000 200.4060 109.3470)">
<text x="200.4060" y="109.6645"
textLength="1.4938" font-size="0.8467" lengthAdjust="spacingAndGlyphs"
text-anchor="middle" opacity="0" stroke-opacity="0">R2</text>
</g>
<g class="stroked-text"><desc>R2</desc>
<path d="M200.1188 109.2412
L200.4212 109.0295
" />
<path d="M200.1188 108.8783
L200.7538 108.8783
" />
<path d="M200.7538 108.8783
L200.7538 109.1202
" />
<path d="M200.7538 109.1202
L200.7236 109.1807
" />
<path d="M200.7236 109.1807
L200.6934 109.2109
" />
<path d="M200.6934 109.2109
L200.6329 109.2412
" />
<path d="M200.6329 109.2412
L200.5422 109.2412
" />
<path d="M200.5422 109.2412
L200.4817 109.2109
" />
<path d="M200.4817 109.2109
L200.4515 109.1807
" />
<path d="M200.4515 109.1807
L200.4212 109.1202
" />
<path d="M200.4212 109.1202
L200.4212 108.8783
" />
<path d="M200.6934 109.4831
L200.7236 109.5133
" />
<path d="M200.7236 109.5133
L200.7538 109.5738
" />
<path d="M200.7538 109.5738
L200.7538 109.7250
" />
<path d="M200.7538 109.7250
L200.7236 109.7855
" />
<path d="M200.7236 109.7855
L200.6934 109.8157
" />
<path d="M200.6934 109.8157
L200.6329 109.8459
" />
<path d="M200.6329 109.8459
L200.5724 109.8459
" />
<path d="M200.5724 109.8459
L200.4817 109.8157
" />
<path d="M200.4817 109.8157
L200.1188 109.4528
" />
<path d="M200.1188 109.4528
L200.1188 109.8459
" />
</g><text x="202.9460" y="103.6955"
textLength="1.4938" font-size="0.8467" lengthAdjust="spacingAndGlyphs"
text-anchor="middle" opacity="0" stroke-opacity="0">R4</text>
<g class="stroked-text"><desc>R4</desc>
<path d="M202.8402 103.6652
L202.6285 103.3628
" />
<path d="M202.4773 103.6652
L202.4773 103.0302
" />
<path d="M202.4773 103.0302
L202.7192 103.0302
" />
<path d="M202.7192 103.0302
L202.7797 103.0604
" />
<path d="M202.7797 103.0604
L202.8099 103.0906
" />
<path d="M202.8099 103.0906
L202.8402 103.1511
" />
<path d="M202.8402 103.1511
L202.8402 103.2418
" />
<path d="M202.8402 103.2418
L202.8099 103.3023
" />
<path d="M202.8099 103.3023
L202.7797 103.3325
" />
<path d="M202.7797 103.3325
L202.7192 103.3628
" />
<path d="M202.7192 103.3628
L202.4773 103.3628
" />
<path d="M203.3845 103.2418
L203.3845 103.6652
" />
<path d="M203.2333 102.9999
L203.0821 103.4535
" />
<path d="M203.0821 103.4535
L203.4752 103.4535
" />
</g></g>
<g style="fill:none; 
stroke:#000000; stroke-width:0.1200; stroke-opacity:1; 
stroke-linecap:round; stroke-linejoin:round;">
<path d="M198.8675 112.8943
L198.8675 113.3689
" />
<path d="M199.9125 112.8943
L199.9125 113.3689
" />
<path d="M209.7873 101.7125
L209.3127 101.7125
" />
<path d="M209.7873 102.7575
L209.3127 102.7575
" />
<path d="M201.8300 108.9250
L202.0650 108.9250
" />
<path d="M204.3350 108.9250
L204.8100 108.9250
" />
<path d="M201.5900 108.6250
L201.5900 108.4500
" />
<path d="M204.8100 108.9250
L204.8100 108.4500
" />
<path d="M201.5900 105.7050
L201.5900 106.1800
" />
<path d="M204.8100 105.7050
L204.8100 106.1800
" />
<path d="M202.0650 105.7050
L201.5900 105.7050
" />
<path d="M204.3350 105.7050
L204.8100 105.7050
" />
<path style="fill:#000000; fill-opacity:1.0000; 
stroke:#000000; stroke-width:0.1200; stroke-opacity:1; 
stroke-linecap:round; stroke-linejoin:round;fill-rule:evenodd;"
d="M 201.2600,109.1650
201.5900,108.9250
201.2600,108.6850
Z" /> 
</g>
<g style="fill:none; 
stroke:#000000; stroke-width:0.1200; stroke-opacity:1; 
stroke-linecap:round; stroke-linejoin:round;">
<path d="M209.7873 104.2525
L209.3127 104.2525
" />
<path d="M209.7873 105.2975
L209.3127 105.2975
" />
<path d="M209.7873 106.7925
L209.3127 106.7925
" />
<path d="M209.7873 107.8375
L209.3127 107.8375
" />
<path d="M198.8675 105.0457
L198.8675 105.5203
" />
<path d="M199.9125 105.0457
L199.9125 105.5203
" />
<path d="M199.9125 109.5843
L199.9125 109.1097
" />
<path d="M198.8675 109.5843
L198.8675 109.1097
" />
<path d="M202.6833 102.7829
L203.1579 102.7829
" />
<path d="M202.6833 101.7379
L203.1579 101.7379
" />
</g>
<g style="fill:#000000; fill-opacity:1.0000; stroke:none;">
<circle cx="210.8200" cy="119.6340" r="1.6000" /> 
</g>
<g style="fill:#000000; fill-opacity:1.0000; stroke:none;">
<circle cx="210.8200" cy="94.9960" r="1.6000" /> 
<path style="fill:#000000; fill-opacity:1.0000; stroke:none;fill-rule:evenodd;"
d="M 199.6650,114.3566
199.7415,114.3414
199.8064,114.2980
199.8498,114.2331
199.8650,114.1566
199.8650,113.7566
199.8498,113.6801
199.8064,113.6152
199.7415,113.5718
199.6650,113.5566
199.1150,113.5566
199.0385,113.5718
198.9736,113.6152
198.9302,113.6801
198.9150,113.7566
198.9150,114.1566
198.9302,114.2331
198.9736,114.2980
199.0385,114.3414
199.1150,114.3566
Z" /> 
<path style="fill:#000000; fill-opacity:1.0000; stroke:none;fill-rule:evenodd;"
d="M 199.6650,112.7066
199.7415,112.6914
199.8064,112.6480
199.8498,112.5831
199.8650,112.5066
199.8650,112.1066
199.8498,112.0301
199.8064,111.9652
199.7415,111.9218
199.6650,111.9066
199.1150,111.9066
199.0385,111.9218
198.9736,111.9652
198.9302,112.0301
198.9150,112.1066
198.9150,112.5066
198.9302,112.5831
198.9736,112.6480
199.0385,112.6914
199.1150,112.7066
Z" /> 
<path style="fill:#000000; fill-opacity:1.0000; stroke:none;fill-rule:evenodd;"
d="M 208.3250,102.5100
208.3402,102.5865
208.3836,102.6514
208.4485,102.6948
208.5250,102.7100
208.9250,102.7100
209.0015,102.6948
209.0664,102.6514
209.1098,102.5865
209.1250,102.5100
209.1250,101.9600
209.1098,101.8835
209.0664,101.8186
209.0015,101.7752
208.9250,101.7600
208.5250,101.7600
208.4485,101.7752
208.3836,101.8186
208.3402,101.8835
208.3250,101.9600
Z" /> 
<path style="fill:#000000; fill-opacity:1.0000; stroke:none;fill-rule:evenodd;"
d="M 209.9750,102.5100
209.9902,102.5865
210.0336,102.6514
210.0985,102.6948
210.1750,102.7100
210.5750,102.7100
210.6515,102.6948
210.7164,102.6514
210.7598,102.5865
210.7750,102.5100
210.7750,101.9600
210.7598,101.8835
210.7164,101.8186
210.6515,101.7752
210.5750,101.7600
210.1750,101.7600
210.0985,101.7752
210.0336,101.8186
209.9902,101.8835
209.9750,101.9600
Z" /> 
<path style="fill:#000000; fill-opacity:1.0000; stroke:none;fill-rule:evenodd;"
d="M 202.5245,109.1150
202.5484,109.1102
202.5687,109.0967
202.5822,109.0764
202.5870,109.0525
202.5870,108.4775
202.5822,108.4536
202.5687,108.4333
202.5484,108.4198
202.5245,108.4150
202.3995,108.4150
202.3756,108.4198
202.3553,108.4333
202.3418,108.4536
202.3370,108.4775
202.3370,109.0525
202.3418,109.0764
202.3553,109.0967
202.3756,109.1102
202.3995,109.1150
Z" /> 
<path style="fill:#000000; fill-opacity:1.0000; stroke:none;fill-rule:evenodd;"
d="M 203.0245,109.1150
203.0484,109.1102
203.0687,109.0967
203.0822,109.0764
203.0870,109.0525
203.0870,108.4775
203.0822,108.4536
203.0687,108.4333
203.0484,108.4198
203.0245,108.4150
202.8995,108.4150
202.8756,108.4198
202.8553,108.4333
202.8418,108.4536
202.8370,108.4775
202.8370,109.0525
202.8418,109.0764
202.8553,109.0967
202.8756,109.1102
202.8995,109.1150
Z" /> 
<path style="fill:#000000; fill-opacity:1.0000; stroke:none;fill-rule:evenodd;"
d="M 203.5245,109.1150
203.5484,109.1102
203.5687,109.0967
203.5822,109.0764
203.5870,109.0525
203.5870,108.4775
203.5822,108.4536
203.5687,108.4333
203.5484,108.4198
203.5245,108.4150
203.3995,108.4150
203.3756,108.4198
203.3553,108.4333
203.3418,108.4536
203.3370,108.4775
203.3370,109.0525
203.3418,109.0764
203.3553,109.0967
203.3756,109.1102
203.3995,109.1150
Z" /> 
<path style="fill:#000000; fill-opacity:1.0000; stroke:none;fill-rule:evenodd;"
d="M 204.0245,109.1150
204.0484,109.1102
204.0687,109.0967
204.0822,109.0764
204.0870,109.0525
204.0870,108.4775
204.0822,108.4536
204.0687,108.4333
204.0484,108.4198
204.0245,108.4150
203.8995,108.4150
203.8756,108.4198
203.8553,108.4333
203.8418,108.4536
203.8370,108.4775
203.8370,109.0525
203.8418,109.0764
203.8553,109.0967
203.8756,109.1102
203.8995,109.1150
Z" /> 
<path style="fill:#000000; fill-opacity:1.0000; stroke:none;fill-rule:evenodd;"
d="M 204.9375,108.1900
204.9614,108.1852
204.9817,108.1717
204.9952,108.1514
205.0000,108.1275
205.0000,108.0025
204.9952,107.9786
204.9817,107.9583
204.9614,107.9448
204.9375,107.9400
204.3625,107.9400
204.3386,107.9448
204.3183,107.9583
204.3048,107.9786
204.3000,108.0025
204.3000,108.1275
204.3048,108.1514
204.3183,108.1717
204.3386,108.1852
204.3625,108.1900
Z" /> 
<path style="fill:#000000; fill-opacity:1.0000; stroke:none;fill-rule:evenodd;"
d="M 204.9375,107.6900
204.9614,107.6852
204.9817,107.6717
204.9952,107.6514
205.0000,107.6275
205.0000,107.5025
204.9952,107.4786
204.9817,107.4583
204.9614,107.4448
204.9375,107.4400
204.3625,107.4400
204.3386,107.4448
204.3183,107.4583
204.3048,107.4786
204.3000,107.5025
204.3000,107.6275
204.3048,107.6514
204.3183,107.6717
204.3386,107.6852
204.3625,107.6900
Z" /> 
<path style="fill:#000000; fill-opacity:1.0000; stroke:none;fill-rule:evenodd;"
d="M 204.9375,107.1900
204.9614,107.1852
204.9817,107.1717
204.9952,107.1514
205.0000,107.1275
205.0000,107.0025
204.9952,106.9786
204.9817,106.9583
204.9614,106.9448
204.9375,106.9400
204.3625,106.9400
204.3386,106.9448
204.3183,106.9583
204.3048,106.9786
204.3000,107.0025
204.3000,107.1275
204.3048,107.1514
204.3183,107.1717
204.3386,107.1852
204.3625,107.1900
Z" /> 
<path style="fill:#000000; fill-opacity:1.0000; stroke:none;fill-rule:evenodd;"
d="M 204.9375,106.6900
204.9614,106.6852
204.9817,106.6717
204.9952,106.6514
205.0000,106.6275
205.0000,106.5025
204.9952,106.4786
204.9817,106.4583
204.9614,106.4448
204.9375,106.4400
204.3625,106.4400
204.3386,106.4448
204.3183,106.4583
204.3048,106.4786
204.3000,106.5025
204.3000,106.6275
204.3048,106.6514
204.3183,106.6717
204.3386,106.6852
204.3625,106.6900
Z" /> 
<path style="fill:#000000; fill-opacity:1.0000; stroke:none;fill-rule:evenodd;"
d="M 204.0125,106.2150
204.0364,106.2102
204.0567,106.1967
204.0702,106.1764
204.0750,106.1525
204.0750,105.5775
204.0702,105.5536
204.0567,105.5333
204.0364,105.5198
204.0125,105.5150
203.8875,105.5150
203.8636,105.5198
203.8433,105.5333
203.8298,105.5536
203.8250,105.5775
203.8250,106.1525
203.8298,106.1764
203.8433,106.1967
203.8636,106.2102
203.8875,106.2150
Z" /> 
<path style="fill:#000000; fill-opacity:1.0000; stroke:none;fill-rule:evenodd;"
d="M 203.5125,106.2150
203.5364,106.2102
203.5567,106.1967
203.5702,106.1764
203.5750,106.1525
203.5750,105.5775
203.5702,105.5536
203.5567,105.5333
203.5364,105.5198
203.5125,105.5150
203.3875,105.5150
203.3636,105.5198
203.3433,105.5333
203.3298,105.5536
203.3250,105.5775
203.3250,106.1525
203.3298,106.1764
203.3433,106.1967
203.3636,106.2102
203.3875,106.2150
Z" /> 
<path style="fill:#000000; fill-opacity:1.0000; stroke:none;fill-rule:evenodd;"
d="M 203.0125,106.2150
203.0364,106.2102
203.0567,106.1967
203.0702,106.1764
203.0750,106.1525
203.0750,105.5775
203.0702,105.5536
203.0567,105.5333
203.0364,105.5198
203.0125,105.5150
202.8875,105.5150
202.8636,105.5198
202.8433,105.5333
202.8298,105.5536
202.8250,105.5775
202.8250,106.1525
202.8298,106.1764
202.8433,106.1967
202.8636,106.2102
202.8875,106.2150
Z" /> 
<path style="fill:#000000; fill-opacity:1.0000; stroke:none;fill-rule:evenodd;"
d="M 202.5125,106.2150
202.5364,106.2102
202.5567,106.1967
202.5702,106.1764
202.5750,106.1525
202.5750,105.5775
202.5702,105.5536
202.5567,105.5333
202.5364,105.5198
202.5125,105.5150
202.3875,105.5150
202.3636,105.5198
202.3433,105.5333
202.3298,105.5536
202.3250,105.5775
202.3250,106.1525
202.3298,106.1764
202.3433,106.1967
202.3636,106.2102
202.3875,106.2150
Z" /> 
<path style="fill:#000000; fill-opacity:1.0000; stroke:none;fill-rule:evenodd;"
d="M 202.0375,106.6900
202.0614,106.6852
202.0817,106.6717
202.0952,106.6514
202.1000,106.6275
202.1000,106.5025
202.0952,106.4786
202.0817,106.4583
202.0614,106.4448
202.0375,106.4400
201.4625,106.4400
201.4386,106.4448
201.4183,106.4583
201.4048,106.4786
201.4000,106.5025
201.4000,106.6275
201.4048,106.6514
201.4183,106.6717
201.4386,106.6852
201.4625,106.6900
Z" /> 
<path style="fill:#000000; fill-opacity:1.0000; stroke:none;fill-rule:evenodd;"
d="M 202.0375,107.1900
202.0614,107.1852
202.0817,107.1717
202.0952,107.1514
202.1000,107.1275
202.1000,107.0025
202.0952,106.9786
202.0817,106.9583
202.0614,106.9448
202.0375,106.9400
201.4625,106.9400
201.4386,106.9448
201.4183,106.9583
201.4048,106.9786
201.4000,107.0025
201.4000,107.1275
201.4048,107.1514
201.4183,107.1717
201.4386,107.1852
201.4625,107.1900
Z" /> 
<path style="fill:#000000; fill-opacity:1.0000; stroke:none;fill-rule:evenodd;"
d="M 202.0375,107.6900
202.0614,107.6852
202.0817,107.6717
202.0952,107.6514
202.1000,107.6275
202.1000,107.5025
202.0952,107.4786
202.0817,107.4583
202.0614,107.4448
202.0375,107.4400
201.4625,107.4400
201.4386,107.4448
201.4183,107.4583
201.4048,107.4786
201.4000,107.5025
201.4000,107.6275
201.4048,107.6514
201.4183,107.6717
201.4386,107.6852
201.4625,107.6900
Z" /> 
<path style="fill:#000000; fill-opacity:1.0000; stroke:none;fill-rule:evenodd;"
d="M 202.0375,108.1900
202.0614,108.1852
202.0817,108.1717
202.0952,108.1514
202.1000,108.1275
202.1000,108.0025
202.0952,107.9786
202.0817,107.9583
202.0614,107.9448
202.0375,107.9400
201.4625,107.9400
201.4386,107.9448
201.4183,107.9583
201.4048,107.9786
201.4000,108.0025
201.4000,108.1275
201.4048,108.1514
201.4183,108.1717
201.4386,108.1852
201.4625,108.1900
Z" /> 
<path style="fill:#000000; fill-opacity:1.0000; stroke:none;fill-rule:evenodd;"
d="M 202.3500,108.1650
204.0500,108.1650
204.0500,106.4650
202.3500,106.4650
Z" /> 
<path style="fill:#000000; fill-opacity:1.0000; stroke:none;fill-rule:evenodd;"
d="M 208.3250,105.0500
208.3402,105.1265
208.3836,105.1914
208.4485,105.2348
208.5250,105.2500
208.9250,105.2500
209.0015,105.2348
209.0664,105.1914
209.1098,105.1265
209.1250,105.0500
209.1250,104.5000
209.1098,104.4235
209.0664,104.3586
209.0015,104.3152
208.9250,104.3000
208.5250,104.3000
208.4485,104.3152
208.3836,104.3586
208.3402,104.4235
208.3250,104.5000
Z" /> 
<path style="fill:#000000; fill-opacity:1.0000; stroke:none;fill-rule:evenodd;"
d="M 209.9750,105.0500
209.9902,105.1265
210.0336,105.1914
210.0985,105.2348
210.1750,105.2500
210.5750,105.2500
210.6515,105.2348
210.7164,105.1914
210.7598,105.1265
210.7750,105.0500
210.7750,104.5000
210.7598,104.4235
210.7164,104.3586
210.6515,104.3152
210.5750,104.3000
210.1750,104.3000
210.0985,104.3152
210.0336,104.3586
209.9902,104.4235
209.9750,104.5000
Z" /> 
<path style="fill:#000000; fill-opacity:1.0000; stroke:none;fill-rule:evenodd;"
d="M 208.3250,107.5900
208.3402,107.6665
208.3836,107.7314
208.4485,107.7748
208.5250,107.7900
208.9250,107.7900
209.0015,107.7748
209.0664,107.7314
209.1098,107.6665
209.1250,107.5900
209.1250,107.0400
209.1098,106.9635
209.0664,106.8986
209.0015,106.8552
208.9250,106.8400
208.5250,106.8400
208.4485,106.8552
208.3836,106.8986
208.3402,106.9635
208.3250,107.0400
Z" /> 
<path style="fill:#000000; fill-opacity:1.0000; stroke:none;fill-rule:evenodd;"
d="M 209.9750,107.5900
209.9902,107.6665
210.0336,107.7314
210.0985,107.7748
210.1750,107.7900
210.5750,107.7900
210.6515,107.7748
210.7164,107.7314
210.7598,107.6665
210.7750,107.5900
210.7750,107.0400
210.7598,106.9635
210.7164,106.8986
210.6515,106.8552
210.5750,106.8400
210.1750,106.8400
210.0985,106.8552
210.0336,106.8986
209.9902,106.9635
209.9750,107.0400
Z" /> 
<path style="fill:#000000; fill-opacity:1.0000; stroke:none;fill-rule:evenodd;"
d="M 199.6650,106.5080
199.7415,106.4928
199.8064,106.4494
199.8498,106.3845
199.8650,106.3080
199.8650,105.9080
199.8498,105.8315
199.8064,105.7666
199.7415,105.7232
199.6650,105.7080
199.1150,105.7080
199.0385,105.7232
198.9736,105.7666
198.9302,105.8315
198.9150,105.9080
198.9150,106.3080
198.9302,106.3845
198.9736,106.4494
199.0385,106.4928
199.1150,106.5080
Z" /> 
<path style="fill:#000000; fill-opacity:1.0000; stroke:none;fill-rule:evenodd;"
d="M 199.6650,104.8580
199.7415,104.8428
199.8064,104.7994
199.8498,104.7345
199.8650,104.6580
199.8650,104.2580
199.8498,104.1815
199.8064,104.1166
199.7415,104.0732
199.6650,104.0580
199.1150,104.0580
199.0385,104.0732
198.9736,104.1166
198.9302,104.1815
198.9150,104.2580
198.9150,104.6580
198.9302,104.7345
198.9736,104.7994
199.0385,104.8428
199.1150,104.8580
Z" /> 
<path style="fill:#000000; fill-opacity:1.0000; stroke:none;fill-rule:evenodd;"
d="M 199.1150,108.1220
199.0385,108.1372
198.9736,108.1806
198.9302,108.2455
198.9150,108.3220
198.9150,108.7220
198.9302,108.7985
198.9736,108.8634
199.0385,108.9068
199.1150,108.9220
199.6650,108.9220
199.7415,108.9068
199.8064,108.8634
199.8498,108.7985
199.8650,108.7220
199.8650,108.3220
199.8498,108.2455
199.8064,108.1806
199.7415,108.1372
199.6650,108.1220
Z" /> 
<path style="fill:#000000; fill-opacity:1.0000; stroke:none;fill-rule:evenodd;"
d="M 199.1150,109.7720
199.0385,109.7872
198.9736,109.8306
198.9302,109.8955
198.9150,109.9720
198.9150,110.3720
198.9302,110.4485
198.9736,110.5134
199.0385,110.5568
199.1150,110.5720
199.6650,110.5720
199.7415,110.5568
199.8064,110.5134
199.8498,110.4485
199.8650,110.3720
199.8650,109.9720
199.8498,109.8955
199.8064,109.8306
199.7415,109.7872
199.6650,109.7720
Z" /> 
<path style="fill:#000000; fill-opacity:1.0000; stroke:none;fill-rule:evenodd;"
d="M 204.1456,101.9854
204.1304,101.9089
204.0870,101.8440
204.0221,101.8006
203.9456,101.7854
203.5456,101.7854
203.4691,101.8006
203.4042,101.8440
203.3608,101.9089
203.3456,101.9854
203.3456,102.5354
203.3608,102.6119
203.4042,102.6768
203.4691,102.7202
203.5456,102.7354
203.9456,102.7354
204.0221,102.7202
204.0870,102.6768
204.1304,102.6119
204.1456,102.5354
Z" /> 
<path style="fill:#000000; fill-opacity:1.0000; stroke:none;fill-rule:evenodd;"
d="M 202.4956,101.9854
202.4804,101.9089
202.4370,101.8440
202.3721,101.8006
202.2956,101.7854
201.8956,101.7854
201.8191,101.8006
201.7542,101.8440
201.7108,101.9089
201.6956,101.9854
201.6956,102.5354
201.7108,102.6119
201.7542,102.6768
201.8191,102.7202
201.8956,102.7354
202.2956,102.7354
202.3721,102.7202
202.4370,102.6768
202.4804,102.6119
202.4956,102.5354
Z" /> 
</g>
<g style="fill:#000000; fill-opacity:1.0000; stroke:none;">
<circle cx="219.8550" cy="100.8350" r="1.7000" /> 
</g>
<g style="fill:#000000; fill-opacity:1.0000; stroke:none;">
<circle cx="219.8550" cy="113.7950" r="1.7000" /> 
</g>
<g style="fill:none; 
stroke:#000000; stroke-width:0.0500; stroke-opacity:1; 
stroke-linecap:round; stroke-linejoin:round;">
<path d="M198.1200 98.4250 A0.6350 0.6350 0.0 0 0 197.4850 99.0600" />
<path d="M197.4850 115.5700 A0.6350 0.6350 0.0 0 0 198.1200 116.2050" />
<path d="M224.1550 99.0600 A0.6350 0.6350 0.0 0 0 223.5200 98.4250" />
<path d="M223.5200 116.2050 A0.6350 0.6350 0.0 0 0 224.1550 115.5700" />
<path d="M211.7090 123.1900 A2.5400 2.5400 0.0 0 0 214.2490 120.6500" />
<path d="M207.3910 120.6500 A2.5400 2.5400 0.0 0 0 209.9310 123.1900" />
<path d="M207.3910 118.7450 A2.5400 2.5400 0.0 0 0 204.8510 116.2050" />
<path d="M216.7890 116.2050 A2.5400 2.5400 0.0 0 0 214.2490 118.7450" />
<path d="M209.9310 91.4400 A2.5400 2.5400 0.0 0 0 207.3910 93.9800" />
<path d="M204.8510 98.4250 A2.5400 2.5400 0.0 0 0 207.3910 95.8850" />
<path d="M214.2490 93.9800 A2.5400 2.5400 0.0 0 0 211.7090 91.4400" />
<path d="M214.2490 95.8850 A2.5400 2.5400 0.0 0 0 216.7890 98.4250" />
<path d="M204.8510 98.4250
L198.1200 98.4250
" />
<path d="M209.9310 91.4400
L211.7090 91.4400
" />
<path d="M207.3910 95.8850
L207.3910 93.9800
" />
<path d="M214.2490 93.9800
L214.2490 95.8850
" />
<path d="M204.8510 116.2050
L198.1200 116.2050
" />
<path d="M207.3910 120.6500
L207.3910 118.7450
" />
<path d="M211.7090 123.1900
L209.9310 123.1900
" />
<path d="M214.2490 118.7450
L214.2490 120.6500
" />
<path d="M216.7890 98.4250
L223.5200 98.4250
" />
<path d="M197.4850 115.5700
L197.4850 99.0600
" />
<path d="M223.5200 116.2050
L216.7890 116.2050
" />
<path d="M224.1550 99.0600
L224.1550 115.5700
" />
</g> 
</svg>
