%TF.GenerationSoftware,KiCad,Pcbnew,7.0.10-7.0.10~ubuntu22.04.1*%
%TF.CreationDate,2024-01-21T09:33:43-08:00*%
%TF.ProjectId,MAG_encoder_adapter,4d41475f-656e-4636-9f64-65725f616461,rev?*%
%TF.SameCoordinates,Original*%
%TF.FileFunction,Legend,Bot*%
%TF.FilePolarity,Positive*%
%FSLAX46Y46*%
G04 Gerber Fmt 4.6, Leading zero omitted, Abs format (unit mm)*
G04 Created by KiCad (PCBNEW 7.0.10-7.0.10~ubuntu22.04.1) date 2024-01-21 09:33:43*
%MOMM*%
%LPD*%
G01*
G04 APERTURE LIST*
%ADD10C,0.120000*%
G04 APERTURE END LIST*
D10*
%TO.C,J2*%
X167933451Y-107504377D02*
X167933451Y-107950000D01*
X167933451Y-112534700D02*
X159204401Y-112534700D01*
X167933451Y-104964377D02*
X167933451Y-105855623D01*
X167933451Y-110490000D02*
X167933451Y-112534700D01*
X167933451Y-100825300D02*
X167933451Y-103315623D01*
X159204401Y-100825300D02*
X167933451Y-100825300D01*
X169696451Y-109855000D02*
X168426451Y-109220000D01*
X169696451Y-108585000D01*
X169696451Y-109855000D01*
G36*
X169696451Y-109855000D02*
G01*
X168426451Y-109220000D01*
X169696451Y-108585000D01*
X169696451Y-109855000D01*
G37*
%TO.C,J3*%
X186575700Y-108407200D02*
X186575700Y-127711200D01*
X186575700Y-127711200D02*
X182743472Y-127711200D01*
X172732700Y-121251134D02*
X172732700Y-119947266D01*
X172732700Y-118711134D02*
X172732700Y-117407266D01*
X181314728Y-127711200D02*
X172732700Y-127711200D01*
X172732700Y-111091134D02*
X172732700Y-108407200D01*
X172732700Y-127711200D02*
X172732700Y-125027266D01*
X172732700Y-108407200D02*
X181314728Y-108407200D01*
X172732700Y-123791134D02*
X172732700Y-122487266D01*
X172732700Y-116171134D02*
X172732700Y-114867266D01*
X172732700Y-113631134D02*
X172732700Y-112327266D01*
X182743472Y-108407200D02*
X186575700Y-108407200D01*
X172288200Y-111709200D02*
X171653200Y-112344200D01*
X171653200Y-111074200D01*
X172288200Y-111709200D01*
G36*
X172288200Y-111709200D02*
G01*
X171653200Y-112344200D01*
X171653200Y-111074200D01*
X172288200Y-111709200D01*
G37*
%TD*%
M02*
