<?xml version="1.0" standalone="no"?>
 <!DOCTYPE svg PUBLIC "-//W3C//DTD SVG 1.1//EN" 
 "http://www.w3.org/Graphics/SVG/1.1/DTD/svg11.dtd"> 
<svg
  xmlns:svg="http://www.w3.org/2000/svg"
  xmlns="http://www.w3.org/2000/svg"
  xmlns:xlink="http://www.w3.org/1999/xlink"
  version="1.1"
  width="297.0022mm" height="210.0072mm" viewBox="0.0000 0.0000 297.0022 210.0072">
<title>SVG Image created as kraken-can-adapter-F_Fab.svg date 2023/12/28 22:52:25 </title>
  <desc>Image generated by PCBNEW </desc>
<g style="fill:#000000; fill-opacity:1.0000;stroke:#000000; stroke-opacity:1.0000;
stroke-linecap:round; stroke-linejoin:round;"
 transform="translate(0 0) scale(1 1)">
</g>
<g style="fill:#000000; fill-opacity:0.0; 
stroke:#000000; stroke-width:0.0000; stroke-opacity:1; 
stroke-linecap:round; stroke-linejoin:round;">
</g>
<g style="fill:#000000; fill-opacity:0.0; 
stroke:#000000; stroke-width:0.1500; stroke-opacity:1; 
stroke-linecap:round; stroke-linejoin:round;">
<text x="99.7453" y="113.3862"
textLength="1.9643" font-size="1.3333" lengthAdjust="spacingAndGlyphs"
text-anchor="middle" opacity="0">J4</text>
<g class="stroked-text"><desc>J4</desc>
<path d="M99.4120 112.3410
L99.4120 113.0553
" />
<path d="M99.4120 113.0553
L99.3644 113.1982
" />
<path d="M99.3644 113.1982
L99.2691 113.2934
" />
<path d="M99.2691 113.2934
L99.1263 113.3410
" />
<path d="M99.1263 113.3410
L99.0310 113.3410
" />
<path d="M100.3167 112.6744
L100.3167 113.3410
" />
<path d="M100.0786 112.2934
L99.8405 113.0077
" />
<path d="M99.8405 113.0077
L100.4596 113.0077
" />
</g><text x="112.7501" y="113.3862"
textLength="1.9643" font-size="1.3333" lengthAdjust="spacingAndGlyphs"
text-anchor="middle" opacity="0">J3</text>
<g class="stroked-text"><desc>J3</desc>
<path d="M112.4168 112.3410
L112.4168 113.0553
" />
<path d="M112.4168 113.0553
L112.3692 113.1982
" />
<path d="M112.3692 113.1982
L112.2739 113.2934
" />
<path d="M112.2739 113.2934
L112.1311 113.3410
" />
<path d="M112.1311 113.3410
L112.0358 113.3410
" />
<path d="M112.7977 112.3410
L113.4168 112.3410
" />
<path d="M113.4168 112.3410
L113.0834 112.7220
" />
<path d="M113.0834 112.7220
L113.2263 112.7220
" />
<path d="M113.2263 112.7220
L113.3215 112.7696
" />
<path d="M113.3215 112.7696
L113.3692 112.8172
" />
<path d="M113.3692 112.8172
L113.4168 112.9125
" />
<path d="M113.4168 112.9125
L113.4168 113.1505
" />
<path d="M113.4168 113.1505
L113.3692 113.2458
" />
<path d="M113.3692 113.2458
L113.3215 113.2934
" />
<path d="M113.3215 113.2934
L113.2263 113.3410
" />
<path d="M113.2263 113.3410
L112.9406 113.3410
" />
<path d="M112.9406 113.3410
L112.8453 113.2934
" />
<path d="M112.8453 113.2934
L112.7977 113.2458
" />
</g></g>
<g style="fill:#000000; fill-opacity:0.0; 
stroke:#000000; stroke-width:0.0500; stroke-opacity:1; 
stroke-linecap:round; stroke-linejoin:round;">
<circle cx="99.7453" cy="110.3862" r="3.2000" /> 
<circle cx="112.7501" cy="110.3862" r="3.2000" /> 
<g >
</g>
<g >
</g>
<g >
</g>
<g >
</g>
<g >
</g>
<g >
</g>
<g >
</g>
</g>
<g style="fill:#000000; fill-opacity:0.0; 
stroke:#000000; stroke-width:0.0500; stroke-opacity:1; 
stroke-linecap:round; stroke-linejoin:round;">
</g>
<g style="fill:#000000; fill-opacity:0.0; 
stroke:#000000; stroke-width:0.1000; stroke-opacity:1; 
stroke-linecap:round; stroke-linejoin:round;">
<path d="M84.2620 122.0862 A0.6351 0.6351 0.0 0 0 84.3011 122.9871" />
<path d="M115.0424 107.8360 A3.4290 3.4290 0.0 0 0 112.7501 106.9572" />
<path d="M128.1772 122.9858
L122.1359 128.4779
" />
<path d="M112.9650 119.3339 A0.6350 0.6350 0.0 0 0 112.4951 119.1260" />
<path d="M99.7282 106.9586 A3.4290 3.4290 0.0 0 0 97.4359 107.8374" />
<path d="M128.1772 122.9858 A0.6350 0.6350 0.0 0 0 128.2163 122.0848" />
<path d="M99.7282 106.9586
L112.7501 106.9572
" />
<path d="M99.9832 119.1273
L112.4951 119.1260
" />
<path d="M121.2389 128.4351 A0.6350 0.6350 0.0 0 0 122.1359 128.4779" />
<path d="M90.3424 128.4792 A0.6350 0.6350 0.0 0 0 91.2395 128.4365" />
<path d="M84.2620 122.0862
L97.4359 107.8374
" />
<path d="M115.0424 107.8360
L128.2163 122.0848
" />
<path d="M90.3424 128.4792
L84.3011 122.9871
" />
<path d="M99.5134 119.3352
L91.2395 128.4365
" />
<path d="M99.9832 119.1273 A0.6351 0.6351 0.0 0 0 99.5134 119.3352" />
<path d="M121.2389 128.4351
L112.9650 119.3339
" />
<g >
</g>
<g >
</g>
<g >
</g>
<g >
</g>
<g >
</g>
<g >
</g>
<g >
</g>
</g> 
</svg>
