  0
SECTION
  2
HEADER
  9
$ANGBASE
  50
0.0
  9
$ANGDIR
  70
1
  9
$MEASUREMENT
  70
0
  0
ENDSEC
  0
SECTION
  2
TABLES
  0
TABLE
  2
LTYPE
  70
4
  0
LTYPE
  5
40F
  2
CONTINUOUS
  70
0
  3
Solid line
  72
65
  73
0
  40
0.0
  0
LTYPE
  5
410
  2
DASHDOT
 70
0
  3
Dash Dot ____ _ ____ _
 72
65
 73
4
 40
2.0
 49
1.25
 49
-0.25
 49
0.25
 49
-0.25
  0
LTYPE
  5
411
  2
DASHED
 70
0
  3
Dashed __ __ __ __ __
 72
65
 73
2
 40
0.75
 49
0.5
 49
-0.25
  0
LTYPE
  5
43B
  2
DOTTED
 70
0
  3
Dotted .  .  .  .
 72
65
 73
2
 40
0.2
 49
0.0
 49
-0.2
  0
ENDTAB
  0
TABLE
  2
STYLE
  70
4
  0
STYLE
  2
KICAD
  70
0
  40
0
  41
1
  42
1
  50
0
  71
0
  3
isocp.shx
  0
STYLE
  2
KICADB
  70
0
  40
0
  41
1
  42
1
  50
0
  71
0
  3
isocp.shx
  0
STYLE
  2
KICADI
  70
0
  40
0
  41
1
  42
1
  50
15
  71
0
  3
isocp.shx
  0
STYLE
  2
KICADBI
  70
0
  40
0
  41
1
  42
1
  50
15
  71
0
  3
isocp.shx
  0
ENDTAB
  0
TABLE
  2
LAYER
  70
1
  0
LAYER
  2
BLACK
  70
0
  62
7
  6
CONTINUOUS
  0
ENDTAB
  0
ENDSEC
  0
SECTION
  2
ENTITIES
0
ARC
8
BLACK
10
3.8243622047244092
20
-4.9934133858267717
40
0.1249992188282367
50
89.98792719
51
135.00025521
0
ARC
8
BLACK
10
4.5411102362204723
20
-4.9935629921259839
40
0.1249984671703711
50
44.99973203
51
89.98830610
0
ARC
8
BLACK
10
4.8030236220472444
20
-4.9019251968503932
40
0.1249990758434744
50
-135.00042109
51
-46.00000050
0
ARC
8
BLACK
10
3.562472440944882
20
-4.9017519685039366
40
0.1249992188396944
50
-134.00036557
51
-45.00081667
0
LINE
8
BLACK
6
CONTINUOUS
10
4.541135748031496
20
-4.8685645275590552
11
3.8243885433070863
21
-4.8684143700787397
0
ARC
8
BLACK
10
5.1343267716535435
20
-4.5819881889763776
40
0.125001696484619
50
-45.99922743
51
44.99998724
0
ARC
8
BLACK
10
3.2311653543307086
20
-4.581814960629921
40
0.124999945032972
50
-225.00002552
51
-133.99984054
0
LINE
8
BLACK
6
CONTINUOUS
10
4.7146346456692916
20
-4.9903128740157481
11
4.6294979133858263
21
-4.9051761417322837
0
LINE
8
BLACK
6
CONTINUOUS
10
5.2211602755905506
20
-4.671904488188976
11
4.8898552755905511
21
-4.9918420078740153
0
LINE
8
BLACK
6
CONTINUOUS
10
5.2095116535433066
20
-4.480393976377953
11
5.2227163385826767
21
-4.4935986614173231
0
LINE
8
BLACK
6
CONTINUOUS
10
3.6508589763779526
20
-4.9901410236220469
11
3.7359740157480315
21
-4.9050259842519681
0
ARC
8
BLACK
10
4.8760669291338585
20
-4.5445196850393703
40
0.0499956235372772
50
-137.03754845
51
-47.00000647
0
LINE
8
BLACK
6
CONTINUOUS
10
5.0183848425196853
20
-4.4801664566929134
11
4.9101638582677163
21
-4.581084173228346
0
LINE
8
BLACK
6
CONTINUOUS
10
4.5455244488188979
20
-4.2630079527559053
11
4.8394783858267711
21
-4.5785942519685037
0
ARC
8
BLACK
10
3.489220472440945
20
-4.544562992125984
40
0.0500052858834842
50
-132.41872759
51
-42.96747335
0
ARC
8
BLACK
10
4.4389803149606299
20
-4.3459133858267718
40
0.1349998432636874
50
37.88763819
51
90.00601531
0
LINE
8
BLACK
6
CONTINUOUS
10
3.1559819685039368
20
-4.4802221259842518
11
3.1427772834645666
21
-4.493426811023622
0
ARC
8
BLACK
10
3.9263070866141732
20
-4.3459685039370077
40
0.1350009510001338
50
90.00001671
51
142.11386403
0
ARC
8
BLACK
10
5.113842519685039
20
-4.5756259842519684
40
0.134998850112151
50
44.99950377
51
134.99944468
0
LINE
8
BLACK
6
CONTINUOUS
10
3.9263070472440944
20
-4.2109673228346454
11
4.4389661417322834
21
-4.2109135433070861
0
LINE
8
BLACK
6
CONTINUOUS
10
3.1443333464566927
20
-4.6717326377952757
11
3.4756383464566927
21
-4.9916701574803151
0
LINE
8
BLACK
6
CONTINUOUS
10
3.8197599212598425
20
-4.2630651968503939
11
3.5258113779527558
21
-4.5786457480314962
0
LINE
8
BLACK
6
CONTINUOUS
10
3.3469498425196851
20
-4.4802641338582676
11
3.4554894488188976
21
-4.5814789370078737
0
ARC
8
BLACK
10
3.2514448818897637
20
-4.5756850393700788
40
0.1350049468138843
50
44.97477553
51
135.00000000
0
LINE
8
BLACK
6
CONTINUOUS
10
3.3481850393700787
20
-4.6434606299212593
11
3.3911850393700789
21
-4.6864606299212594
0
LINE
8
BLACK
6
CONTINUOUS
10
3.3911850393700789
20
-4.6434606299212593
11
3.3481850393700787
21
-4.6864606299212594
0
LINE
8
BLACK
6
CONTINUOUS
10
3.4188957086614171
20
-4.7141712992125981
11
3.4618957086614173
21
-4.7571712992125983
0
LINE
8
BLACK
6
CONTINUOUS
10
3.4618957086614173
20
-4.7141712992125981
11
3.4188957086614171
21
-4.7571712992125983
0
LINE
8
BLACK
6
CONTINUOUS
10
4.9033603149606302
20
-4.7143629133858269
11
4.9463603149606294
21
-4.7573629133858271
0
LINE
8
BLACK
6
CONTINUOUS
10
4.9463603149606294
20
-4.7143629133858269
11
4.9033603149606302
21
-4.7573629133858271
0
LINE
8
BLACK
6
CONTINUOUS
10
4.9740709842519681
20
-4.6436522440944881
11
5.0170709842519683
21
-4.6866522440944882
0
LINE
8
BLACK
6
CONTINUOUS
10
5.0170709842519683
20
-4.6436522440944881
11
4.9740709842519681
21
-4.6866522440944882
0
CIRCLE
8
BLACK
10
3.9269805905511812
20
-4.3459135433070868
40
0.0625
0
CIRCLE
8
BLACK
10
4.4389805905511812
20
-4.3459135433070868
40
0.0625
0
LINE
8
BLACK
6
CONTINUOUS
10
3.2353347244094488
20
-4.5060367322834649
11
3.2353347244094488
21
-4.6400367322834644
0
LINE
8
BLACK
6
CONTINUOUS
10
3.1683347244094486
20
-4.5730367322834642
11
3.3023347244094485
21
-4.5730367322834642
0
LINE
8
BLACK
6
CONTINUOUS
10
3.5323196062992124
20
-4.8030215748031493
11
3.5323196062992124
21
-4.9370215748031496
0
LINE
8
BLACK
6
CONTINUOUS
10
3.4653196062992127
20
-4.8700215748031495
11
3.5993196062992125
21
-4.8700215748031495
0
LINE
8
BLACK
6
CONTINUOUS
10
4.8329364173228342
20
-4.8032132283464568
11
4.8329364173228342
21
-4.9372132283464563
0
LINE
8
BLACK
6
CONTINUOUS
10
4.7659364173228349
20
-4.870213228346457
11
4.8999364173228344
21
-4.870213228346457
0
LINE
8
BLACK
6
CONTINUOUS
10
5.1299212598425195
20
-4.5062283464566928
11
5.1299212598425195
21
-4.6402283464566931
0
LINE
8
BLACK
6
CONTINUOUS
10
5.0629212598425193
20
-4.573228346456693
11
5.1969212598425196
21
-4.573228346456693
0
LINE
8
BLACK
6
CONTINUOUS
10
3.2068649212598426
20
-5.1515242125984253
11
3.2068649212598426
21
-5.0727840551181105
0
LINE
8
BLACK
6
CONTINUOUS
10
3.2068649212598426
20
-5.0727840551181105
11
3.2256125590551181
21
-5.0727840551181105
0
LINE
8
BLACK
6
CONTINUOUS
10
3.2256125590551181
20
-5.0727840551181105
11
3.2368611811023622
21
-5.0765335826771656
0
LINE
8
BLACK
6
CONTINUOUS
10
3.2368611811023622
20
-5.0765335826771656
11
3.2443602362204724
21
-5.0840326377952758
0
LINE
8
BLACK
6
CONTINUOUS
10
3.2443602362204724
20
-5.0840326377952758
11
3.2481097637795275
21
-5.091531692913386
0
LINE
8
BLACK
6
CONTINUOUS
10
3.2481097637795275
20
-5.091531692913386
11
3.2518592913385826
21
-5.1065298031496065
0
LINE
8
BLACK
6
CONTINUOUS
10
3.2518592913385826
20
-5.1065298031496065
11
3.2518592913385826
21
-5.1177784251968506
0
LINE
8
BLACK
6
CONTINUOUS
10
3.2518592913385826
20
-5.1177784251968506
11
3.2481097637795275
21
-5.132776535433071
0
LINE
8
BLACK
6
CONTINUOUS
10
3.2481097637795275
20
-5.132776535433071
11
3.2443602362204724
21
-5.1402755905511812
0
LINE
8
BLACK
6
CONTINUOUS
10
3.2443602362204724
20
-5.1402755905511812
11
3.2368611811023622
21
-5.1477746850393702
0
LINE
8
BLACK
6
CONTINUOUS
10
3.2368611811023622
20
-5.1477746850393702
11
3.2256125590551181
21
-5.1515242125984253
0
LINE
8
BLACK
6
CONTINUOUS
10
3.2256125590551181
20
-5.1515242125984253
11
3.2068649212598426
21
-5.1515242125984253
0
LINE
8
BLACK
6
CONTINUOUS
10
3.2856050787401574
20
-5.1515242125984253
11
3.2856050787401574
21
-5.0990307480314963
0
LINE
8
BLACK
6
CONTINUOUS
10
3.2856050787401574
20
-5.1140288976377954
11
3.2893546062992125
21
-5.1065298031496065
0
LINE
8
BLACK
6
CONTINUOUS
10
3.2893546062992125
20
-5.1065298031496065
11
3.2931041338582676
21
-5.1027802755905514
0
LINE
8
BLACK
6
CONTINUOUS
10
3.2931041338582676
20
-5.1027802755905514
11
3.3006031889763778
21
-5.0990307480314963
0
LINE
8
BLACK
6
CONTINUOUS
10
3.3006031889763778
20
-5.0990307480314963
11
3.3081022834645668
21
-5.0990307480314963
0
LINE
8
BLACK
6
CONTINUOUS
10
3.3343489763779526
20
-5.1515242125984253
11
3.3343489763779526
21
-5.0990307480314963
0
LINE
8
BLACK
6
CONTINUOUS
10
3.3343489763779526
20
-5.0727840551181105
11
3.3305994488188975
21
-5.0765335826771656
0
LINE
8
BLACK
6
CONTINUOUS
10
3.3305994488188975
20
-5.0765335826771656
11
3.3343489763779526
21
-5.0802831102362207
0
LINE
8
BLACK
6
CONTINUOUS
10
3.3343489763779526
20
-5.0802831102362207
11
3.3380985039370077
21
-5.0765335826771656
0
LINE
8
BLACK
6
CONTINUOUS
10
3.3380985039370077
20
-5.0765335826771656
11
3.3343489763779526
21
-5.0727840551181105
0
LINE
8
BLACK
6
CONTINUOUS
10
3.3343489763779526
20
-5.0727840551181105
11
3.3343489763779526
21
-5.0802831102362207
0
LINE
8
BLACK
6
CONTINUOUS
10
3.3830928740157478
20
-5.1515242125984253
11
3.3755938188976375
21
-5.1477746850393702
0
LINE
8
BLACK
6
CONTINUOUS
10
3.3755938188976375
20
-5.1477746850393702
11
3.3718442913385824
21
-5.1402755905511812
0
LINE
8
BLACK
6
CONTINUOUS
10
3.3718442913385824
20
-5.1402755905511812
11
3.3718442913385824
21
-5.0727840551181105
0
LINE
8
BLACK
6
CONTINUOUS
10
3.4243377165354332
20
-5.1515242125984253
11
3.416838661417323
21
-5.1477746850393702
0
LINE
8
BLACK
6
CONTINUOUS
10
3.416838661417323
20
-5.1477746850393702
11
3.4130891338582678
21
-5.1402755905511812
0
LINE
8
BLACK
6
CONTINUOUS
10
3.4130891338582678
20
-5.1402755905511812
11
3.4130891338582678
21
-5.0727840551181105
0
LINE
8
BLACK
6
CONTINUOUS
10
3.5143264960629921
20
-5.1515242125984253
11
3.5143264960629921
21
-5.0727840551181105
0
LINE
8
BLACK
6
CONTINUOUS
10
3.5143264960629921
20
-5.0727840551181105
11
3.5405732283464566
21
-5.1290270078740159
0
LINE
8
BLACK
6
CONTINUOUS
10
3.5405732283464566
20
-5.1290270078740159
11
3.5668199212598424
21
-5.0727840551181105
0
LINE
8
BLACK
6
CONTINUOUS
10
3.5668199212598424
20
-5.0727840551181105
11
3.5668199212598424
21
-5.1515242125984253
0
LINE
8
BLACK
6
CONTINUOUS
10
3.638061023622047
20
-5.1515242125984253
11
3.638061023622047
21
-5.1102793700787403
0
LINE
8
BLACK
6
CONTINUOUS
10
3.638061023622047
20
-5.1102793700787403
11
3.6343114960629919
21
-5.1027802755905514
0
LINE
8
BLACK
6
CONTINUOUS
10
3.6343114960629919
20
-5.1027802755905514
11
3.6268124409448816
21
-5.0990307480314963
0
LINE
8
BLACK
6
CONTINUOUS
10
3.6268124409448816
20
-5.0990307480314963
11
3.6118142913385824
21
-5.0990307480314963
0
LINE
8
BLACK
6
CONTINUOUS
10
3.6118142913385824
20
-5.0990307480314963
11
3.6043152362204722
21
-5.1027802755905514
0
LINE
8
BLACK
6
CONTINUOUS
10
3.638061023622047
20
-5.1477746850393702
11
3.6305619685039368
21
-5.1515242125984253
0
LINE
8
BLACK
6
CONTINUOUS
10
3.6305619685039368
20
-5.1515242125984253
11
3.6118142913385824
21
-5.1515242125984253
0
LINE
8
BLACK
6
CONTINUOUS
10
3.6118142913385824
20
-5.1515242125984253
11
3.6043152362204722
21
-5.1477746850393702
0
LINE
8
BLACK
6
CONTINUOUS
10
3.6043152362204722
20
-5.1477746850393702
11
3.6005657086614171
21
-5.1402755905511812
0
LINE
8
BLACK
6
CONTINUOUS
10
3.6005657086614171
20
-5.1402755905511812
11
3.6005657086614171
21
-5.132776535433071
0
LINE
8
BLACK
6
CONTINUOUS
10
3.6005657086614171
20
-5.132776535433071
11
3.6043152362204722
21
-5.1252774803149608
0
LINE
8
BLACK
6
CONTINUOUS
10
3.6043152362204722
20
-5.1252774803149608
11
3.6118142913385824
21
-5.1215279527559057
0
LINE
8
BLACK
6
CONTINUOUS
10
3.6118142913385824
20
-5.1215279527559057
11
3.6305619685039368
21
-5.1215279527559057
0
LINE
8
BLACK
6
CONTINUOUS
10
3.6305619685039368
20
-5.1215279527559057
11
3.638061023622047
21
-5.1177784251968506
0
LINE
8
BLACK
6
CONTINUOUS
10
3.6755563385826773
20
-5.0990307480314963
11
3.6755563385826773
21
-5.1777709055118111
0
LINE
8
BLACK
6
CONTINUOUS
10
3.6755563385826773
20
-5.1027802755905514
11
3.6830553937007875
21
-5.0990307480314963
0
LINE
8
BLACK
6
CONTINUOUS
10
3.6830553937007875
20
-5.0990307480314963
11
3.6980535433070867
21
-5.0990307480314963
0
LINE
8
BLACK
6
CONTINUOUS
10
3.6980535433070867
20
-5.0990307480314963
11
3.7055525984251969
21
-5.1027802755905514
0
LINE
8
BLACK
6
CONTINUOUS
10
3.7055525984251969
20
-5.1027802755905514
11
3.709302125984252
21
-5.1065298031496065
0
LINE
8
BLACK
6
CONTINUOUS
10
3.709302125984252
20
-5.1065298031496065
11
3.7130516535433071
21
-5.1140288976377954
0
LINE
8
BLACK
6
CONTINUOUS
10
3.7130516535433071
20
-5.1140288976377954
11
3.7130516535433071
21
-5.1365260629921261
0
LINE
8
BLACK
6
CONTINUOUS
10
3.7130516535433071
20
-5.1365260629921261
11
3.709302125984252
21
-5.1440251181102363
0
LINE
8
BLACK
6
CONTINUOUS
10
3.709302125984252
20
-5.1440251181102363
11
3.7055525984251969
21
-5.1477746850393702
0
LINE
8
BLACK
6
CONTINUOUS
10
3.7055525984251969
20
-5.1477746850393702
11
3.6980535433070867
21
-5.1515242125984253
0
LINE
8
BLACK
6
CONTINUOUS
10
3.6980535433070867
20
-5.1515242125984253
11
3.6830553937007875
21
-5.1515242125984253
0
LINE
8
BLACK
6
CONTINUOUS
10
3.6830553937007875
20
-5.1515242125984253
11
3.6755563385826773
21
-5.1477746850393702
0
LINE
8
BLACK
6
CONTINUOUS
10
3.7467974409448819
20
-5.1440251181102363
11
3.750546968503937
21
-5.1477746850393702
0
LINE
8
BLACK
6
CONTINUOUS
10
3.750546968503937
20
-5.1477746850393702
11
3.7467974409448819
21
-5.1515242125984253
0
LINE
8
BLACK
6
CONTINUOUS
10
3.7467974409448819
20
-5.1515242125984253
11
3.7430479133858268
21
-5.1477746850393702
0
LINE
8
BLACK
6
CONTINUOUS
10
3.7430479133858268
20
-5.1477746850393702
11
3.7467974409448819
21
-5.1440251181102363
0
LINE
8
BLACK
6
CONTINUOUS
10
3.7467974409448819
20
-5.1440251181102363
11
3.7467974409448819
21
-5.1515242125984253
0
LINE
8
BLACK
6
CONTINUOUS
10
3.7467974409448819
20
-5.1027802755905514
11
3.750546968503937
21
-5.1065298031496065
0
LINE
8
BLACK
6
CONTINUOUS
10
3.750546968503937
20
-5.1065298031496065
11
3.7467974409448819
21
-5.1102793700787403
0
LINE
8
BLACK
6
CONTINUOUS
10
3.7467974409448819
20
-5.1102793700787403
11
3.7430479133858268
21
-5.1065298031496065
0
LINE
8
BLACK
6
CONTINUOUS
10
3.7430479133858268
20
-5.1065298031496065
11
3.7467974409448819
21
-5.1027802755905514
0
LINE
8
BLACK
6
CONTINUOUS
10
3.7467974409448819
20
-5.1027802755905514
11
3.7467974409448819
21
-5.1102793700787403
0
LINE
8
BLACK
6
CONTINUOUS
10
3.0611968897637793
20
-5.259361299212598
11
3.1041968897637795
21
-5.3023612992125981
0
LINE
8
BLACK
6
CONTINUOUS
10
3.1041968897637795
20
-5.259361299212598
11
3.0611968897637793
21
-5.3023612992125981
0
LINE
8
BLACK
6
CONTINUOUS
10
3.2481097637795275
20
-5.3168785433070864
11
3.2031153937007875
21
-5.3168785433070864
0
LINE
8
BLACK
6
CONTINUOUS
10
3.2256125590551181
20
-5.3168785433070864
11
3.2256125590551181
21
-5.2381383858267716
0
LINE
8
BLACK
6
CONTINUOUS
10
3.2256125590551181
20
-5.2381383858267716
11
3.2181135039370079
21
-5.2493869685039369
0
LINE
8
BLACK
6
CONTINUOUS
10
3.2181135039370079
20
-5.2493869685039369
11
3.2106144488188977
21
-5.2568860236220472
0
LINE
8
BLACK
6
CONTINUOUS
10
3.2106144488188977
20
-5.2568860236220472
11
3.2031153937007875
21
-5.2606355511811023
0
LINE
8
BLACK
6
CONTINUOUS
10
3.2818555511811023
20
-5.3093794488188975
11
3.2856050787401574
21
-5.3131290157480313
0
LINE
8
BLACK
6
CONTINUOUS
10
3.2856050787401574
20
-5.3131290157480313
11
3.2818555511811023
21
-5.3168785433070864
0
LINE
8
BLACK
6
CONTINUOUS
10
3.2818555511811023
20
-5.3168785433070864
11
3.2781060236220472
21
-5.3131290157480313
0
LINE
8
BLACK
6
CONTINUOUS
10
3.2781060236220472
20
-5.3131290157480313
11
3.2818555511811023
21
-5.3093794488188975
0
LINE
8
BLACK
6
CONTINUOUS
10
3.2818555511811023
20
-5.3093794488188975
11
3.2818555511811023
21
-5.3168785433070864
0
LINE
8
BLACK
6
CONTINUOUS
10
3.3343489763779526
20
-5.2381383858267716
11
3.3418480708661416
21
-5.2381383858267716
0
LINE
8
BLACK
6
CONTINUOUS
10
3.3418480708661416
20
-5.2381383858267716
11
3.3493471259842518
21
-5.2418879133858267
0
LINE
8
BLACK
6
CONTINUOUS
10
3.3493471259842518
20
-5.2418879133858267
11
3.3530966535433069
21
-5.2456374409448818
0
LINE
8
BLACK
6
CONTINUOUS
10
3.3530966535433069
20
-5.2456374409448818
11
3.356846181102362
21
-5.253136496062992
0
LINE
8
BLACK
6
CONTINUOUS
10
3.356846181102362
20
-5.253136496062992
11
3.3605957086614171
21
-5.2681346062992125
0
LINE
8
BLACK
6
CONTINUOUS
10
3.3605957086614171
20
-5.2681346062992125
11
3.3605957086614171
21
-5.2868822834645668
0
LINE
8
BLACK
6
CONTINUOUS
10
3.3605957086614171
20
-5.2868822834645668
11
3.356846181102362
21
-5.3018803937007872
0
LINE
8
BLACK
6
CONTINUOUS
10
3.356846181102362
20
-5.3018803937007872
11
3.3530966535433069
21
-5.3093794488188975
0
LINE
8
BLACK
6
CONTINUOUS
10
3.3530966535433069
20
-5.3093794488188975
11
3.3493471259842518
21
-5.3131290157480313
0
LINE
8
BLACK
6
CONTINUOUS
10
3.3493471259842518
20
-5.3131290157480313
11
3.3418480708661416
21
-5.3168785433070864
0
LINE
8
BLACK
6
CONTINUOUS
10
3.3418480708661416
20
-5.3168785433070864
11
3.3343489763779526
21
-5.3168785433070864
0
LINE
8
BLACK
6
CONTINUOUS
10
3.3343489763779526
20
-5.3168785433070864
11
3.3268499212598424
21
-5.3131290157480313
0
LINE
8
BLACK
6
CONTINUOUS
10
3.3268499212598424
20
-5.3131290157480313
11
3.3231003937007872
21
-5.3093794488188975
0
LINE
8
BLACK
6
CONTINUOUS
10
3.3231003937007872
20
-5.3093794488188975
11
3.3193508661417321
21
-5.3018803937007872
0
LINE
8
BLACK
6
CONTINUOUS
10
3.3193508661417321
20
-5.3018803937007872
11
3.315601338582677
21
-5.2868822834645668
0
LINE
8
BLACK
6
CONTINUOUS
10
3.315601338582677
20
-5.2868822834645668
11
3.315601338582677
21
-5.2681346062992125
0
LINE
8
BLACK
6
CONTINUOUS
10
3.315601338582677
20
-5.2681346062992125
11
3.3193508661417321
21
-5.253136496062992
0
LINE
8
BLACK
6
CONTINUOUS
10
3.3193508661417321
20
-5.253136496062992
11
3.3231003937007872
21
-5.2456374409448818
0
LINE
8
BLACK
6
CONTINUOUS
10
3.3231003937007872
20
-5.2456374409448818
11
3.3268499212598424
21
-5.2418879133858267
0
LINE
8
BLACK
6
CONTINUOUS
10
3.3268499212598424
20
-5.2418879133858267
11
3.3343489763779526
21
-5.2381383858267716
0
LINE
8
BLACK
6
CONTINUOUS
10
3.398091023622047
20
-5.3168785433070864
11
3.4130891338582678
21
-5.3168785433070864
0
LINE
8
BLACK
6
CONTINUOUS
10
3.4130891338582678
20
-5.3168785433070864
11
3.4205882283464568
21
-5.3131290157480313
0
LINE
8
BLACK
6
CONTINUOUS
10
3.4205882283464568
20
-5.3131290157480313
11
3.4243377559055119
21
-5.3093794488188975
0
LINE
8
BLACK
6
CONTINUOUS
10
3.4243377559055119
20
-5.3093794488188975
11
3.4318368110236221
21
-5.2981308661417321
0
LINE
8
BLACK
6
CONTINUOUS
10
3.4318368110236221
20
-5.2981308661417321
11
3.4355863385826773
21
-5.2831327559055117
0
LINE
8
BLACK
6
CONTINUOUS
10
3.4355863385826773
20
-5.2831327559055117
11
3.4355863385826773
21
-5.253136496062992
0
LINE
8
BLACK
6
CONTINUOUS
10
3.4355863385826773
20
-5.253136496062992
11
3.4318368110236221
21
-5.2456374409448818
0
LINE
8
BLACK
6
CONTINUOUS
10
3.4318368110236221
20
-5.2456374409448818
11
3.428087283464567
21
-5.2418879133858267
0
LINE
8
BLACK
6
CONTINUOUS
10
3.428087283464567
20
-5.2418879133858267
11
3.4205882283464568
21
-5.2381383858267716
0
LINE
8
BLACK
6
CONTINUOUS
10
3.4205882283464568
20
-5.2381383858267716
11
3.4055900787401576
21
-5.2381383858267716
0
LINE
8
BLACK
6
CONTINUOUS
10
3.4055900787401576
20
-5.2381383858267716
11
3.398091023622047
21
-5.2418879133858267
0
LINE
8
BLACK
6
CONTINUOUS
10
3.398091023622047
20
-5.2418879133858267
11
3.3943414960629918
21
-5.2456374409448818
0
LINE
8
BLACK
6
CONTINUOUS
10
3.3943414960629918
20
-5.2456374409448818
11
3.3905919685039367
21
-5.253136496062992
0
LINE
8
BLACK
6
CONTINUOUS
10
3.3905919685039367
20
-5.253136496062992
11
3.3905919685039367
21
-5.2718841338582676
0
LINE
8
BLACK
6
CONTINUOUS
10
3.3905919685039367
20
-5.2718841338582676
11
3.3943414960629918
21
-5.2793832283464566
0
LINE
8
BLACK
6
CONTINUOUS
10
3.3943414960629918
20
-5.2793832283464566
11
3.398091023622047
21
-5.2831327559055117
0
LINE
8
BLACK
6
CONTINUOUS
10
3.398091023622047
20
-5.2831327559055117
11
3.4055900787401576
21
-5.2868822834645668
0
LINE
8
BLACK
6
CONTINUOUS
10
3.4055900787401576
20
-5.2868822834645668
11
3.4205882283464568
21
-5.2868822834645668
0
LINE
8
BLACK
6
CONTINUOUS
10
3.4205882283464568
20
-5.2868822834645668
11
3.428087283464567
21
-5.2831327559055117
0
LINE
8
BLACK
6
CONTINUOUS
10
3.428087283464567
20
-5.2831327559055117
11
3.4318368110236221
21
-5.2793832283464566
0
LINE
8
BLACK
6
CONTINUOUS
10
3.4318368110236221
20
-5.2793832283464566
11
3.4355863385826773
21
-5.2718841338582676
0
LINE
8
BLACK
6
CONTINUOUS
10
3.4655825984251969
20
-5.2456374409448818
11
3.469332125984252
21
-5.2418879133858267
0
LINE
8
BLACK
6
CONTINUOUS
10
3.469332125984252
20
-5.2418879133858267
11
3.4768311811023622
21
-5.2381383858267716
0
LINE
8
BLACK
6
CONTINUOUS
10
3.4768311811023622
20
-5.2381383858267716
11
3.4955788582677165
21
-5.2381383858267716
0
LINE
8
BLACK
6
CONTINUOUS
10
3.4955788582677165
20
-5.2381383858267716
11
3.5030779133858267
21
-5.2418879133858267
0
LINE
8
BLACK
6
CONTINUOUS
10
3.5030779133858267
20
-5.2418879133858267
11
3.5068274409448819
21
-5.2456374409448818
0
LINE
8
BLACK
6
CONTINUOUS
10
3.5068274409448819
20
-5.2456374409448818
11
3.510576968503937
21
-5.253136496062992
0
LINE
8
BLACK
6
CONTINUOUS
10
3.510576968503937
20
-5.253136496062992
11
3.510576968503937
21
-5.2606355511811023
0
LINE
8
BLACK
6
CONTINUOUS
10
3.510576968503937
20
-5.2606355511811023
11
3.5068274409448819
21
-5.2718841338582676
0
LINE
8
BLACK
6
CONTINUOUS
10
3.5068274409448819
20
-5.2718841338582676
11
3.4618330708661418
21
-5.3168785433070864
0
LINE
8
BLACK
6
CONTINUOUS
10
3.4618330708661418
20
-5.3168785433070864
11
3.510576968503937
21
-5.3168785433070864
0
LINE
8
BLACK
6
CONTINUOUS
10
3.5443227559055117
20
-5.3168785433070864
11
3.5443227559055117
21
-5.2643850787401574
0
LINE
8
BLACK
6
CONTINUOUS
10
3.5443227559055117
20
-5.2718841338582676
11
3.5480722834645668
21
-5.2681346062992125
0
LINE
8
BLACK
6
CONTINUOUS
10
3.5480722834645668
20
-5.2681346062992125
11
3.555571338582677
21
-5.2643850787401574
0
LINE
8
BLACK
6
CONTINUOUS
10
3.555571338582677
20
-5.2643850787401574
11
3.5668199606299211
21
-5.2643850787401574
0
LINE
8
BLACK
6
CONTINUOUS
10
3.5668199606299211
20
-5.2643850787401574
11
3.5743190157480313
21
-5.2681346062992125
0
LINE
8
BLACK
6
CONTINUOUS
10
3.5743190157480313
20
-5.2681346062992125
11
3.5780685433070865
21
-5.2756337007874015
0
LINE
8
BLACK
6
CONTINUOUS
10
3.5780685433070865
20
-5.2756337007874015
11
3.5780685433070865
21
-5.3168785433070864
0
LINE
8
BLACK
6
CONTINUOUS
10
3.5780685433070865
20
-5.2756337007874015
11
3.5818180708661416
21
-5.2681346062992125
0
LINE
8
BLACK
6
CONTINUOUS
10
3.5818180708661416
20
-5.2681346062992125
11
3.5893171259842518
21
-5.2643850787401574
0
LINE
8
BLACK
6
CONTINUOUS
10
3.5893171259842518
20
-5.2643850787401574
11
3.6005657086614171
21
-5.2643850787401574
0
LINE
8
BLACK
6
CONTINUOUS
10
3.6005657086614171
20
-5.2643850787401574
11
3.6080648031496061
21
-5.2681346062992125
0
LINE
8
BLACK
6
CONTINUOUS
10
3.6080648031496061
20
-5.2681346062992125
11
3.6118143307086612
21
-5.2756337007874015
0
LINE
8
BLACK
6
CONTINUOUS
10
3.6118143307086612
20
-5.2756337007874015
11
3.6118143307086612
21
-5.3168785433070864
0
LINE
8
BLACK
6
CONTINUOUS
10
3.6493096456692911
20
-5.3168785433070864
11
3.6493096456692911
21
-5.2643850787401574
0
LINE
8
BLACK
6
CONTINUOUS
10
3.6493096456692911
20
-5.2718841338582676
11
3.6530591732283462
21
-5.2681346062992125
0
LINE
8
BLACK
6
CONTINUOUS
10
3.6530591732283462
20
-5.2681346062992125
11
3.6605582283464564
21
-5.2643850787401574
0
LINE
8
BLACK
6
CONTINUOUS
10
3.6605582283464564
20
-5.2643850787401574
11
3.6718068503937009
21
-5.2643850787401574
0
LINE
8
BLACK
6
CONTINUOUS
10
3.6718068503937009
20
-5.2643850787401574
11
3.6793059055118111
21
-5.2681346062992125
0
LINE
8
BLACK
6
CONTINUOUS
10
3.6793059055118111
20
-5.2681346062992125
11
3.6830554330708662
21
-5.2756337007874015
0
LINE
8
BLACK
6
CONTINUOUS
10
3.6830554330708662
20
-5.2756337007874015
11
3.6830554330708662
21
-5.3168785433070864
0
LINE
8
BLACK
6
CONTINUOUS
10
3.6830554330708662
20
-5.2756337007874015
11
3.6868049606299214
21
-5.2681346062992125
0
LINE
8
BLACK
6
CONTINUOUS
10
3.6868049606299214
20
-5.2681346062992125
11
3.6943040157480316
21
-5.2643850787401574
0
LINE
8
BLACK
6
CONTINUOUS
10
3.6943040157480316
20
-5.2643850787401574
11
3.7055525984251969
21
-5.2643850787401574
0
LINE
8
BLACK
6
CONTINUOUS
10
3.7055525984251969
20
-5.2643850787401574
11
3.7130516929133859
21
-5.2681346062992125
0
LINE
8
BLACK
6
CONTINUOUS
10
3.7130516929133859
20
-5.2681346062992125
11
3.716801220472441
21
-5.2756337007874015
0
LINE
8
BLACK
6
CONTINUOUS
10
3.716801220472441
20
-5.2756337007874015
11
3.716801220472441
21
-5.3168785433070864
0
LINE
8
BLACK
6
CONTINUOUS
10
3.8705320078740155
20
-5.2343888582677165
11
3.8030404724409448
21
-5.335626181102362
0
LINE
8
BLACK
6
CONTINUOUS
10
3.9717693700787402
20
-5.2381383858267716
11
3.9792684645669292
21
-5.2381383858267716
0
LINE
8
BLACK
6
CONTINUOUS
10
3.9792684645669292
20
-5.2381383858267716
11
3.9867675196850394
21
-5.2418879133858267
0
LINE
8
BLACK
6
CONTINUOUS
10
3.9867675196850394
20
-5.2418879133858267
11
3.9905170472440945
21
-5.2456374409448818
0
LINE
8
BLACK
6
CONTINUOUS
10
3.9905170472440945
20
-5.2456374409448818
11
3.9942665748031496
21
-5.253136496062992
0
LINE
8
BLACK
6
CONTINUOUS
10
3.9942665748031496
20
-5.253136496062992
11
3.9980161023622047
21
-5.2681346062992125
0
LINE
8
BLACK
6
CONTINUOUS
10
3.9980161023622047
20
-5.2681346062992125
11
3.9980161023622047
21
-5.2868822834645668
0
LINE
8
BLACK
6
CONTINUOUS
10
3.9980161023622047
20
-5.2868822834645668
11
3.9942665748031496
21
-5.3018803937007872
0
LINE
8
BLACK
6
CONTINUOUS
10
3.9942665748031496
20
-5.3018803937007872
11
3.9905170472440945
21
-5.3093794488188975
0
LINE
8
BLACK
6
CONTINUOUS
10
3.9905170472440945
20
-5.3093794488188975
11
3.9867675196850394
21
-5.3131290157480313
0
LINE
8
BLACK
6
CONTINUOUS
10
3.9867675196850394
20
-5.3131290157480313
11
3.9792684645669292
21
-5.3168785433070864
0
LINE
8
BLACK
6
CONTINUOUS
10
3.9792684645669292
20
-5.3168785433070864
11
3.9717693700787402
21
-5.3168785433070864
0
LINE
8
BLACK
6
CONTINUOUS
10
3.9717693700787402
20
-5.3168785433070864
11
3.96427031496063
21
-5.3131290157480313
0
LINE
8
BLACK
6
CONTINUOUS
10
3.96427031496063
20
-5.3131290157480313
11
3.9605207874015749
21
-5.3093794488188975
0
LINE
8
BLACK
6
CONTINUOUS
10
3.9605207874015749
20
-5.3093794488188975
11
3.9567712598425198
21
-5.3018803937007872
0
LINE
8
BLACK
6
CONTINUOUS
10
3.9567712598425198
20
-5.3018803937007872
11
3.9530217322834647
21
-5.2868822834645668
0
LINE
8
BLACK
6
CONTINUOUS
10
3.9530217322834647
20
-5.2868822834645668
11
3.9530217322834647
21
-5.2681346062992125
0
LINE
8
BLACK
6
CONTINUOUS
10
3.9530217322834647
20
-5.2681346062992125
11
3.9567712598425198
21
-5.253136496062992
0
LINE
8
BLACK
6
CONTINUOUS
10
3.9567712598425198
20
-5.253136496062992
11
3.9605207874015749
21
-5.2456374409448818
0
LINE
8
BLACK
6
CONTINUOUS
10
3.9605207874015749
20
-5.2456374409448818
11
3.96427031496063
21
-5.2418879133858267
0
LINE
8
BLACK
6
CONTINUOUS
10
3.96427031496063
20
-5.2418879133858267
11
3.9717693700787402
21
-5.2381383858267716
0
LINE
8
BLACK
6
CONTINUOUS
10
4.0317618897637795
20
-5.3093794488188975
11
4.0355114173228346
21
-5.3131290157480313
0
LINE
8
BLACK
6
CONTINUOUS
10
4.0355114173228346
20
-5.3131290157480313
11
4.0317618897637795
21
-5.3168785433070864
0
LINE
8
BLACK
6
CONTINUOUS
10
4.0317618897637795
20
-5.3168785433070864
11
4.0280123622047244
21
-5.3131290157480313
0
LINE
8
BLACK
6
CONTINUOUS
10
4.0280123622047244
20
-5.3131290157480313
11
4.0317618897637795
21
-5.3093794488188975
0
LINE
8
BLACK
6
CONTINUOUS
10
4.0317618897637795
20
-5.3093794488188975
11
4.0317618897637795
21
-5.3168785433070864
0
LINE
8
BLACK
6
CONTINUOUS
10
4.0842553149606298
20
-5.2381383858267716
11
4.0917544094488187
21
-5.2381383858267716
0
LINE
8
BLACK
6
CONTINUOUS
10
4.0917544094488187
20
-5.2381383858267716
11
4.099253464566929
21
-5.2418879133858267
0
LINE
8
BLACK
6
CONTINUOUS
10
4.099253464566929
20
-5.2418879133858267
11
4.1030029921259841
21
-5.2456374409448818
0
LINE
8
BLACK
6
CONTINUOUS
10
4.1030029921259841
20
-5.2456374409448818
11
4.1067525196850392
21
-5.253136496062992
0
LINE
8
BLACK
6
CONTINUOUS
10
4.1067525196850392
20
-5.253136496062992
11
4.1105020472440943
21
-5.2681346062992125
0
LINE
8
BLACK
6
CONTINUOUS
10
4.1105020472440943
20
-5.2681346062992125
11
4.1105020472440943
21
-5.2868822834645668
0
LINE
8
BLACK
6
CONTINUOUS
10
4.1105020472440943
20
-5.2868822834645668
11
4.1067525196850392
21
-5.3018803937007872
0
LINE
8
BLACK
6
CONTINUOUS
10
4.1067525196850392
20
-5.3018803937007872
11
4.1030029921259841
21
-5.3093794488188975
0
LINE
8
BLACK
6
CONTINUOUS
10
4.1030029921259841
20
-5.3093794488188975
11
4.099253464566929
21
-5.3131290157480313
0
LINE
8
BLACK
6
CONTINUOUS
10
4.099253464566929
20
-5.3131290157480313
11
4.0917544094488187
21
-5.3168785433070864
0
LINE
8
BLACK
6
CONTINUOUS
10
4.0917544094488187
20
-5.3168785433070864
11
4.0842553149606298
21
-5.3168785433070864
0
LINE
8
BLACK
6
CONTINUOUS
10
4.0842553149606298
20
-5.3168785433070864
11
4.0767562598425195
21
-5.3131290157480313
0
LINE
8
BLACK
6
CONTINUOUS
10
4.0767562598425195
20
-5.3131290157480313
11
4.0730067322834644
21
-5.3093794488188975
0
LINE
8
BLACK
6
CONTINUOUS
10
4.0730067322834644
20
-5.3093794488188975
11
4.0692572047244093
21
-5.3018803937007872
0
LINE
8
BLACK
6
CONTINUOUS
10
4.0692572047244093
20
-5.3018803937007872
11
4.0655076771653542
21
-5.2868822834645668
0
LINE
8
BLACK
6
CONTINUOUS
10
4.0655076771653542
20
-5.2868822834645668
11
4.0655076771653542
21
-5.2681346062992125
0
LINE
8
BLACK
6
CONTINUOUS
10
4.0655076771653542
20
-5.2681346062992125
11
4.0692572047244093
21
-5.253136496062992
0
LINE
8
BLACK
6
CONTINUOUS
10
4.0692572047244093
20
-5.253136496062992
11
4.0730067322834644
21
-5.2456374409448818
0
LINE
8
BLACK
6
CONTINUOUS
10
4.0730067322834644
20
-5.2456374409448818
11
4.0767562598425195
21
-5.2418879133858267
0
LINE
8
BLACK
6
CONTINUOUS
10
4.0767562598425195
20
-5.2418879133858267
11
4.0842553149606298
21
-5.2381383858267716
0
LINE
8
BLACK
6
CONTINUOUS
10
4.1779936220472438
20
-5.2643850787401574
11
4.1779936220472438
21
-5.3168785433070864
0
LINE
8
BLACK
6
CONTINUOUS
10
4.1592459448818895
20
-5.2343888582677165
11
4.1404983070866139
21
-5.2906318110236219
0
LINE
8
BLACK
6
CONTINUOUS
10
4.1404983070866139
20
-5.2906318110236219
11
4.1892422047244091
21
-5.2906318110236219
0
LINE
8
BLACK
6
CONTINUOUS
10
4.2117394094488185
20
-5.2381383858267716
11
4.2604833070866137
21
-5.2381383858267716
0
LINE
8
BLACK
6
CONTINUOUS
10
4.2604833070866137
20
-5.2381383858267716
11
4.2342365748031492
21
-5.2681346062992125
0
LINE
8
BLACK
6
CONTINUOUS
10
4.2342365748031492
20
-5.2681346062992125
11
4.2454851968503933
21
-5.2681346062992125
0
LINE
8
BLACK
6
CONTINUOUS
10
4.2454851968503933
20
-5.2681346062992125
11
4.2529842519685035
21
-5.2718841338582676
0
LINE
8
BLACK
6
CONTINUOUS
10
4.2529842519685035
20
-5.2718841338582676
11
4.2567337795275586
21
-5.2756337007874015
0
LINE
8
BLACK
6
CONTINUOUS
10
4.2567337795275586
20
-5.2756337007874015
11
4.2604833070866137
21
-5.2831327559055117
0
LINE
8
BLACK
6
CONTINUOUS
10
4.2604833070866137
20
-5.2831327559055117
11
4.2604833070866137
21
-5.3018803937007872
0
LINE
8
BLACK
6
CONTINUOUS
10
4.2604833070866137
20
-5.3018803937007872
11
4.2567337795275586
21
-5.3093794488188975
0
LINE
8
BLACK
6
CONTINUOUS
10
4.2567337795275586
20
-5.3093794488188975
11
4.2529842519685035
21
-5.3131290157480313
0
LINE
8
BLACK
6
CONTINUOUS
10
4.2529842519685035
20
-5.3131290157480313
11
4.2454851968503933
21
-5.3168785433070864
0
LINE
8
BLACK
6
CONTINUOUS
10
4.2454851968503933
20
-5.3168785433070864
11
4.2229879921259839
21
-5.3168785433070864
0
LINE
8
BLACK
6
CONTINUOUS
10
4.2229879921259839
20
-5.3168785433070864
11
4.2154889370078736
21
-5.3131290157480313
0
LINE
8
BLACK
6
CONTINUOUS
10
4.2154889370078736
20
-5.3131290157480313
11
4.2117394094488185
21
-5.3093794488188975
0
LINE
8
BLACK
6
CONTINUOUS
10
4.3092272047244098
20
-5.2381383858267716
11
4.3167262992125988
21
-5.2381383858267716
0
LINE
8
BLACK
6
CONTINUOUS
10
4.3167262992125988
20
-5.2381383858267716
11
4.324225354330709
21
-5.2418879133858267
0
LINE
8
BLACK
6
CONTINUOUS
10
4.324225354330709
20
-5.2418879133858267
11
4.3279748818897641
21
-5.2456374409448818
0
LINE
8
BLACK
6
CONTINUOUS
10
4.3279748818897641
20
-5.2456374409448818
11
4.3317244094488192
21
-5.253136496062992
0
LINE
8
BLACK
6
CONTINUOUS
10
4.3317244094488192
20
-5.253136496062992
11
4.3354739370078743
21
-5.2681346062992125
0
LINE
8
BLACK
6
CONTINUOUS
10
4.3354739370078743
20
-5.2681346062992125
11
4.3354739370078743
21
-5.2868822834645668
0
LINE
8
BLACK
6
CONTINUOUS
10
4.3354739370078743
20
-5.2868822834645668
11
4.3317244094488192
21
-5.3018803937007872
0
LINE
8
BLACK
6
CONTINUOUS
10
4.3317244094488192
20
-5.3018803937007872
11
4.3279748818897641
21
-5.3093794488188975
0
LINE
8
BLACK
6
CONTINUOUS
10
4.3279748818897641
20
-5.3093794488188975
11
4.324225354330709
21
-5.3131290157480313
0
LINE
8
BLACK
6
CONTINUOUS
10
4.324225354330709
20
-5.3131290157480313
11
4.3167262992125988
21
-5.3168785433070864
0
LINE
8
BLACK
6
CONTINUOUS
10
4.3167262992125988
20
-5.3168785433070864
11
4.3092272047244098
21
-5.3168785433070864
0
LINE
8
BLACK
6
CONTINUOUS
10
4.3092272047244098
20
-5.3168785433070864
11
4.3017281496062987
21
-5.3131290157480313
0
LINE
8
BLACK
6
CONTINUOUS
10
4.3017281496062987
20
-5.3131290157480313
11
4.2979786220472436
21
-5.3093794488188975
0
LINE
8
BLACK
6
CONTINUOUS
10
4.2979786220472436
20
-5.3093794488188975
11
4.2942290944881885
21
-5.3018803937007872
0
LINE
8
BLACK
6
CONTINUOUS
10
4.2942290944881885
20
-5.3018803937007872
11
4.2904795669291333
21
-5.2868822834645668
0
LINE
8
BLACK
6
CONTINUOUS
10
4.2904795669291333
20
-5.2868822834645668
11
4.2904795669291333
21
-5.2681346062992125
0
LINE
8
BLACK
6
CONTINUOUS
10
4.2904795669291333
20
-5.2681346062992125
11
4.2942290944881885
21
-5.253136496062992
0
LINE
8
BLACK
6
CONTINUOUS
10
4.2942290944881885
20
-5.253136496062992
11
4.2979786220472436
21
-5.2456374409448818
0
LINE
8
BLACK
6
CONTINUOUS
10
4.2979786220472436
20
-5.2456374409448818
11
4.3017281496062987
21
-5.2418879133858267
0
LINE
8
BLACK
6
CONTINUOUS
10
4.3017281496062987
20
-5.2418879133858267
11
4.3092272047244098
21
-5.2381383858267716
0
LINE
8
BLACK
6
CONTINUOUS
10
4.3654701968503939
20
-5.2381383858267716
11
4.3654701968503939
21
-5.253136496062992
0
LINE
8
BLACK
6
CONTINUOUS
10
4.3954664566929136
20
-5.2381383858267716
11
4.3954664566929136
21
-5.253136496062992
0
LINE
8
BLACK
6
CONTINUOUS
10
4.511701968503937
20
-5.3468747637795273
11
4.5079524015748031
21
-5.3431252362204722
0
LINE
8
BLACK
6
CONTINUOUS
10
4.5079524015748031
20
-5.3431252362204722
11
4.5004533464566929
21
-5.3318766535433069
0
LINE
8
BLACK
6
CONTINUOUS
10
4.5004533464566929
20
-5.3318766535433069
11
4.4967038188976378
21
-5.3243775984251966
0
LINE
8
BLACK
6
CONTINUOUS
10
4.4967038188976378
20
-5.3243775984251966
11
4.4929542913385827
21
-5.3131290157480313
0
LINE
8
BLACK
6
CONTINUOUS
10
4.4929542913385827
20
-5.3131290157480313
11
4.4892047637795276
21
-5.294381338582677
0
LINE
8
BLACK
6
CONTINUOUS
10
4.4892047637795276
20
-5.294381338582677
11
4.4892047637795276
21
-5.2793832283464566
0
LINE
8
BLACK
6
CONTINUOUS
10
4.4892047637795276
20
-5.2793832283464566
11
4.4929542913385827
21
-5.2606355511811023
0
LINE
8
BLACK
6
CONTINUOUS
10
4.4929542913385827
20
-5.2606355511811023
11
4.4967038188976378
21
-5.2493869685039369
0
LINE
8
BLACK
6
CONTINUOUS
10
4.4967038188976378
20
-5.2493869685039369
11
4.5004533464566929
21
-5.2418879133858267
0
LINE
8
BLACK
6
CONTINUOUS
10
4.5004533464566929
20
-5.2418879133858267
11
4.5079524015748031
21
-5.2306392913385826
0
LINE
8
BLACK
6
CONTINUOUS
10
4.5079524015748031
20
-5.2306392913385826
11
4.511701968503937
21
-5.2268897637795275
0
LINE
8
BLACK
6
CONTINUOUS
10
4.5754439763779526
20
-5.2643850787401574
11
4.5754439763779526
21
-5.3168785433070864
0
LINE
8
BLACK
6
CONTINUOUS
10
4.5566962992125983
20
-5.2343888582677165
11
4.5379486614173228
21
-5.2906318110236219
0
LINE
8
BLACK
6
CONTINUOUS
10
4.5379486614173228
20
-5.2906318110236219
11
4.586692559055118
21
-5.2906318110236219
0
LINE
8
BLACK
6
CONTINUOUS
10
4.6766813385826769
20
-5.3168785433070864
11
4.6766813385826769
21
-5.2381383858267716
0
LINE
8
BLACK
6
CONTINUOUS
10
4.7104271259842516
20
-5.3168785433070864
11
4.7104271259842516
21
-5.2756337007874015
0
LINE
8
BLACK
6
CONTINUOUS
10
4.7104271259842516
20
-5.2756337007874015
11
4.7066775984251965
21
-5.2681346062992125
0
LINE
8
BLACK
6
CONTINUOUS
10
4.7066775984251965
20
-5.2681346062992125
11
4.6991785433070863
21
-5.2643850787401574
0
LINE
8
BLACK
6
CONTINUOUS
10
4.6991785433070863
20
-5.2643850787401574
11
4.6879299212598422
21
-5.2643850787401574
0
LINE
8
BLACK
6
CONTINUOUS
10
4.6879299212598422
20
-5.2643850787401574
11
4.680430866141732
21
-5.2681346062992125
0
LINE
8
BLACK
6
CONTINUOUS
10
4.680430866141732
20
-5.2681346062992125
11
4.6766813385826769
21
-5.2718841338582676
0
LINE
8
BLACK
6
CONTINUOUS
10
4.7591710236220468
20
-5.3168785433070864
11
4.7516719685039366
21
-5.3131290157480313
0
LINE
8
BLACK
6
CONTINUOUS
10
4.7516719685039366
20
-5.3131290157480313
11
4.7479224409448815
21
-5.3093794488188975
0
LINE
8
BLACK
6
CONTINUOUS
10
4.7479224409448815
20
-5.3093794488188975
11
4.7441729133858264
21
-5.3018803937007872
0
LINE
8
BLACK
6
CONTINUOUS
10
4.7441729133858264
20
-5.3018803937007872
11
4.7441729133858264
21
-5.2793832283464566
0
LINE
8
BLACK
6
CONTINUOUS
10
4.7441729133858264
20
-5.2793832283464566
11
4.7479224409448815
21
-5.2718841338582676
0
LINE
8
BLACK
6
CONTINUOUS
10
4.7479224409448815
20
-5.2718841338582676
11
4.7516719685039366
21
-5.2681346062992125
0
LINE
8
BLACK
6
CONTINUOUS
10
4.7516719685039366
20
-5.2681346062992125
11
4.7591710236220468
21
-5.2643850787401574
0
LINE
8
BLACK
6
CONTINUOUS
10
4.7591710236220468
20
-5.2643850787401574
11
4.7704196456692909
21
-5.2643850787401574
0
LINE
8
BLACK
6
CONTINUOUS
10
4.7704196456692909
20
-5.2643850787401574
11
4.7779187007874011
21
-5.2681346062992125
0
LINE
8
BLACK
6
CONTINUOUS
10
4.7779187007874011
20
-5.2681346062992125
11
4.7816682283464562
21
-5.2718841338582676
0
LINE
8
BLACK
6
CONTINUOUS
10
4.7816682283464562
20
-5.2718841338582676
11
4.7854177559055113
21
-5.2793832283464566
0
LINE
8
BLACK
6
CONTINUOUS
10
4.7854177559055113
20
-5.2793832283464566
11
4.7854177559055113
21
-5.3018803937007872
0
LINE
8
BLACK
6
CONTINUOUS
10
4.7854177559055113
20
-5.3018803937007872
11
4.7816682283464562
21
-5.3093794488188975
0
LINE
8
BLACK
6
CONTINUOUS
10
4.7816682283464562
20
-5.3093794488188975
11
4.7779187007874011
21
-5.3131290157480313
0
LINE
8
BLACK
6
CONTINUOUS
10
4.7779187007874011
20
-5.3131290157480313
11
4.7704196456692909
21
-5.3168785433070864
0
LINE
8
BLACK
6
CONTINUOUS
10
4.7704196456692909
20
-5.3168785433070864
11
4.7591710236220468
21
-5.3168785433070864
0
LINE
8
BLACK
6
CONTINUOUS
10
4.8304121259842523
20
-5.3168785433070864
11
4.8229130708661412
21
-5.3131290157480313
0
LINE
8
BLACK
6
CONTINUOUS
10
4.8229130708661412
20
-5.3131290157480313
11
4.8191635433070861
21
-5.3056299212598423
0
LINE
8
BLACK
6
CONTINUOUS
10
4.8191635433070861
20
-5.3056299212598423
11
4.8191635433070861
21
-5.2381383858267716
0
LINE
8
BLACK
6
CONTINUOUS
10
4.8904046456692916
20
-5.3131290157480313
11
4.8829055905511813
21
-5.3168785433070864
0
LINE
8
BLACK
6
CONTINUOUS
10
4.8829055905511813
20
-5.3168785433070864
11
4.8679074409448821
21
-5.3168785433070864
0
LINE
8
BLACK
6
CONTINUOUS
10
4.8679074409448821
20
-5.3168785433070864
11
4.8604083858267719
21
-5.3131290157480313
0
LINE
8
BLACK
6
CONTINUOUS
10
4.8604083858267719
20
-5.3131290157480313
11
4.8566588582677168
21
-5.3056299212598423
0
LINE
8
BLACK
6
CONTINUOUS
10
4.8566588582677168
20
-5.3056299212598423
11
4.8566588582677168
21
-5.2756337007874015
0
LINE
8
BLACK
6
CONTINUOUS
10
4.8566588582677168
20
-5.2756337007874015
11
4.8604083858267719
21
-5.2681346062992125
0
LINE
8
BLACK
6
CONTINUOUS
10
4.8604083858267719
20
-5.2681346062992125
11
4.8679074409448821
21
-5.2643850787401574
0
LINE
8
BLACK
6
CONTINUOUS
10
4.8679074409448821
20
-5.2643850787401574
11
4.8829055905511813
21
-5.2643850787401574
0
LINE
8
BLACK
6
CONTINUOUS
10
4.8829055905511813
20
-5.2643850787401574
11
4.8904046456692916
21
-5.2681346062992125
0
LINE
8
BLACK
6
CONTINUOUS
10
4.8904046456692916
20
-5.2681346062992125
11
4.8941541732283467
21
-5.2756337007874015
0
LINE
8
BLACK
6
CONTINUOUS
10
4.8941541732283467
20
-5.2756337007874015
11
4.8941541732283467
21
-5.2831327559055117
0
LINE
8
BLACK
6
CONTINUOUS
10
4.8941541732283467
20
-5.2831327559055117
11
4.8566588582677168
21
-5.2906318110236219
0
LINE
8
BLACK
6
CONTINUOUS
10
4.9241504330708663
20
-5.3131290157480313
11
4.9316494881889765
21
-5.3168785433070864
0
LINE
8
BLACK
6
CONTINUOUS
10
4.9316494881889765
20
-5.3168785433070864
11
4.946647598425197
21
-5.3168785433070864
0
LINE
8
BLACK
6
CONTINUOUS
10
4.946647598425197
20
-5.3168785433070864
11
4.9541466929133859
21
-5.3131290157480313
0
LINE
8
BLACK
6
CONTINUOUS
10
4.9541466929133859
20
-5.3131290157480313
11
4.9578962204724411
21
-5.3056299212598423
0
LINE
8
BLACK
6
CONTINUOUS
10
4.9578962204724411
20
-5.3056299212598423
11
4.9578962204724411
21
-5.3018803937007872
0
LINE
8
BLACK
6
CONTINUOUS
10
4.9578962204724411
20
-5.3018803937007872
11
4.9541466929133859
21
-5.294381338582677
0
LINE
8
BLACK
6
CONTINUOUS
10
4.9541466929133859
20
-5.294381338582677
11
4.946647598425197
21
-5.2906318110236219
0
LINE
8
BLACK
6
CONTINUOUS
10
4.946647598425197
20
-5.2906318110236219
11
4.9353990157480316
21
-5.2906318110236219
0
LINE
8
BLACK
6
CONTINUOUS
10
4.9353990157480316
20
-5.2906318110236219
11
4.9278999606299214
21
-5.2868822834645668
0
LINE
8
BLACK
6
CONTINUOUS
10
4.9278999606299214
20
-5.2868822834645668
11
4.9241504330708663
21
-5.2793832283464566
0
LINE
8
BLACK
6
CONTINUOUS
10
4.9241504330708663
20
-5.2793832283464566
11
4.9241504330708663
21
-5.2756337007874015
0
LINE
8
BLACK
6
CONTINUOUS
10
4.9241504330708663
20
-5.2756337007874015
11
4.9278999606299214
21
-5.2681346062992125
0
LINE
8
BLACK
6
CONTINUOUS
10
4.9278999606299214
20
-5.2681346062992125
11
4.9353990157480316
21
-5.2643850787401574
0
LINE
8
BLACK
6
CONTINUOUS
10
4.9353990157480316
20
-5.2643850787401574
11
4.946647598425197
21
-5.2643850787401574
0
LINE
8
BLACK
6
CONTINUOUS
10
4.946647598425197
20
-5.2643850787401574
11
4.9541466929133859
21
-5.2681346062992125
0
LINE
8
BLACK
6
CONTINUOUS
10
4.9841429527559056
20
-5.3468747637795273
11
4.9878924803149607
21
-5.3431252362204722
0
LINE
8
BLACK
6
CONTINUOUS
10
4.9878924803149607
20
-5.3431252362204722
11
4.9953915354330709
21
-5.3318766535433069
0
LINE
8
BLACK
6
CONTINUOUS
10
4.9953915354330709
20
-5.3318766535433069
11
4.999141062992126
21
-5.3243775984251966
0
LINE
8
BLACK
6
CONTINUOUS
10
4.999141062992126
20
-5.3243775984251966
11
5.0028905905511811
21
-5.3131290157480313
0
LINE
8
BLACK
6
CONTINUOUS
10
5.0028905905511811
20
-5.3131290157480313
11
5.0066401181102362
21
-5.294381338582677
0
LINE
8
BLACK
6
CONTINUOUS
10
5.0066401181102362
20
-5.294381338582677
11
5.0066401181102362
21
-5.2793832283464566
0
LINE
8
BLACK
6
CONTINUOUS
10
5.0066401181102362
20
-5.2793832283464566
11
5.0028905905511811
21
-5.2606355511811023
0
LINE
8
BLACK
6
CONTINUOUS
10
5.0028905905511811
20
-5.2606355511811023
11
4.999141062992126
21
-5.2493869685039369
0
LINE
8
BLACK
6
CONTINUOUS
10
4.999141062992126
20
-5.2493869685039369
11
4.9953915354330709
21
-5.2418879133858267
0
LINE
8
BLACK
6
CONTINUOUS
10
4.9953915354330709
20
-5.2418879133858267
11
4.9878924803149607
21
-5.2306392913385826
0
LINE
8
BLACK
6
CONTINUOUS
10
4.9878924803149607
20
-5.2306392913385826
11
4.9841429527559056
21
-5.2268897637795275
0
CIRCLE
8
BLACK
10
3.0648268110236221
20
-5.3847983070866139
40
0.0393700787401575
0
LINE
8
BLACK
6
CONTINUOUS
10
3.1993658661417324
20
-5.342075393700787
11
3.2481097637795275
21
-5.342075393700787
0
LINE
8
BLACK
6
CONTINUOUS
10
3.2481097637795275
20
-5.342075393700787
11
3.221863031496063
21
-5.3720716141732279
0
LINE
8
BLACK
6
CONTINUOUS
10
3.221863031496063
20
-5.3720716141732279
11
3.2331116535433071
21
-5.3720716141732279
0
LINE
8
BLACK
6
CONTINUOUS
10
3.2331116535433071
20
-5.3720716141732279
11
3.2406107086614173
21
-5.375821141732283
0
LINE
8
BLACK
6
CONTINUOUS
10
3.2406107086614173
20
-5.375821141732283
11
3.2443602362204724
21
-5.3795707086614168
0
LINE
8
BLACK
6
CONTINUOUS
10
3.2443602362204724
20
-5.3795707086614168
11
3.2481097637795275
21
-5.3870697637795271
0
LINE
8
BLACK
6
CONTINUOUS
10
3.2481097637795275
20
-5.3870697637795271
11
3.2481097637795275
21
-5.4058174015748026
0
LINE
8
BLACK
6
CONTINUOUS
10
3.2481097637795275
20
-5.4058174015748026
11
3.2443602362204724
21
-5.4133164566929128
0
LINE
8
BLACK
6
CONTINUOUS
10
3.2443602362204724
20
-5.4133164566929128
11
3.2406107086614173
21
-5.4170660236220467
0
LINE
8
BLACK
6
CONTINUOUS
10
3.2406107086614173
20
-5.4170660236220467
11
3.2331116535433071
21
-5.4208155511811018
0
LINE
8
BLACK
6
CONTINUOUS
10
3.2331116535433071
20
-5.4208155511811018
11
3.2106144488188977
21
-5.4208155511811018
0
LINE
8
BLACK
6
CONTINUOUS
10
3.2106144488188977
20
-5.4208155511811018
11
3.2031153937007875
21
-5.4170660236220467
0
LINE
8
BLACK
6
CONTINUOUS
10
3.2031153937007875
20
-5.4170660236220467
11
3.1993658661417324
21
-5.4133164566929128
0
LINE
8
BLACK
6
CONTINUOUS
10
3.2818555511811023
20
-5.4133164566929128
11
3.2856050787401574
21
-5.4170660236220467
0
LINE
8
BLACK
6
CONTINUOUS
10
3.2856050787401574
20
-5.4170660236220467
11
3.2818555511811023
21
-5.4208155511811018
0
LINE
8
BLACK
6
CONTINUOUS
10
3.2818555511811023
20
-5.4208155511811018
11
3.2781060236220472
21
-5.4170660236220467
0
LINE
8
BLACK
6
CONTINUOUS
10
3.2781060236220472
20
-5.4170660236220467
11
3.2818555511811023
21
-5.4133164566929128
0
LINE
8
BLACK
6
CONTINUOUS
10
3.2818555511811023
20
-5.4133164566929128
11
3.2818555511811023
21
-5.4208155511811018
0
LINE
8
BLACK
6
CONTINUOUS
10
3.3605957086614171
20
-5.4208155511811018
11
3.315601338582677
21
-5.4208155511811018
0
LINE
8
BLACK
6
CONTINUOUS
10
3.3380985039370077
20
-5.4208155511811018
11
3.3380985039370077
21
-5.342075393700787
0
LINE
8
BLACK
6
CONTINUOUS
10
3.3380985039370077
20
-5.342075393700787
11
3.3305994488188975
21
-5.3533239763779523
0
LINE
8
BLACK
6
CONTINUOUS
10
3.3305994488188975
20
-5.3533239763779523
11
3.3231003937007872
21
-5.3608230314960625
0
LINE
8
BLACK
6
CONTINUOUS
10
3.3231003937007872
20
-5.3608230314960625
11
3.315601338582677
21
-5.3645725590551177
0
LINE
8
BLACK
6
CONTINUOUS
10
3.3868424409448816
20
-5.342075393700787
11
3.4393358661417324
21
-5.342075393700787
0
LINE
8
BLACK
6
CONTINUOUS
10
3.4393358661417324
20
-5.342075393700787
11
3.4055900787401576
21
-5.4208155511811018
0
LINE
8
BLACK
6
CONTINUOUS
10
3.5068274409448819
20
-5.342075393700787
11
3.469332125984252
21
-5.342075393700787
0
LINE
8
BLACK
6
CONTINUOUS
10
3.469332125984252
20
-5.342075393700787
11
3.4655825984251969
21
-5.3795707086614168
0
LINE
8
BLACK
6
CONTINUOUS
10
3.4655825984251969
20
-5.3795707086614168
11
3.469332125984252
21
-5.375821141732283
0
LINE
8
BLACK
6
CONTINUOUS
10
3.469332125984252
20
-5.375821141732283
11
3.4768311811023622
21
-5.3720716141732279
0
LINE
8
BLACK
6
CONTINUOUS
10
3.4768311811023622
20
-5.3720716141732279
11
3.4955788582677165
21
-5.3720716141732279
0
LINE
8
BLACK
6
CONTINUOUS
10
3.4955788582677165
20
-5.3720716141732279
11
3.5030779133858267
21
-5.375821141732283
0
LINE
8
BLACK
6
CONTINUOUS
10
3.5030779133858267
20
-5.375821141732283
11
3.5068274409448819
21
-5.3795707086614168
0
LINE
8
BLACK
6
CONTINUOUS
10
3.5068274409448819
20
-5.3795707086614168
11
3.510576968503937
21
-5.3870697637795271
0
LINE
8
BLACK
6
CONTINUOUS
10
3.510576968503937
20
-5.3870697637795271
11
3.510576968503937
21
-5.4058174015748026
0
LINE
8
BLACK
6
CONTINUOUS
10
3.510576968503937
20
-5.4058174015748026
11
3.5068274409448819
21
-5.4133164566929128
0
LINE
8
BLACK
6
CONTINUOUS
10
3.5068274409448819
20
-5.4133164566929128
11
3.5030779133858267
21
-5.4170660236220467
0
LINE
8
BLACK
6
CONTINUOUS
10
3.5030779133858267
20
-5.4170660236220467
11
3.4955788582677165
21
-5.4208155511811018
0
LINE
8
BLACK
6
CONTINUOUS
10
3.4955788582677165
20
-5.4208155511811018
11
3.4768311811023622
21
-5.4208155511811018
0
LINE
8
BLACK
6
CONTINUOUS
10
3.4768311811023622
20
-5.4208155511811018
11
3.469332125984252
21
-5.4170660236220467
0
LINE
8
BLACK
6
CONTINUOUS
10
3.469332125984252
20
-5.4170660236220467
11
3.4655825984251969
21
-5.4133164566929128
0
LINE
8
BLACK
6
CONTINUOUS
10
3.5443227559055117
20
-5.4208155511811018
11
3.5443227559055117
21
-5.3683220866141728
0
LINE
8
BLACK
6
CONTINUOUS
10
3.5443227559055117
20
-5.375821141732283
11
3.5480722834645668
21
-5.3720716141732279
0
LINE
8
BLACK
6
CONTINUOUS
10
3.5480722834645668
20
-5.3720716141732279
11
3.555571338582677
21
-5.3683220866141728
0
LINE
8
BLACK
6
CONTINUOUS
10
3.555571338582677
20
-5.3683220866141728
11
3.5668199606299211
21
-5.3683220866141728
0
LINE
8
BLACK
6
CONTINUOUS
10
3.5668199606299211
20
-5.3683220866141728
11
3.5743190157480313
21
-5.3720716141732279
0
LINE
8
BLACK
6
CONTINUOUS
10
3.5743190157480313
20
-5.3720716141732279
11
3.5780685433070865
21
-5.3795707086614168
0
LINE
8
BLACK
6
CONTINUOUS
10
3.5780685433070865
20
-5.3795707086614168
11
3.5780685433070865
21
-5.4208155511811018
0
LINE
8
BLACK
6
CONTINUOUS
10
3.5780685433070865
20
-5.3795707086614168
11
3.5818180708661416
21
-5.3720716141732279
0
LINE
8
BLACK
6
CONTINUOUS
10
3.5818180708661416
20
-5.3720716141732279
11
3.5893171259842518
21
-5.3683220866141728
0
LINE
8
BLACK
6
CONTINUOUS
10
3.5893171259842518
20
-5.3683220866141728
11
3.6005657086614171
21
-5.3683220866141728
0
LINE
8
BLACK
6
CONTINUOUS
10
3.6005657086614171
20
-5.3683220866141728
11
3.6080648031496061
21
-5.3720716141732279
0
LINE
8
BLACK
6
CONTINUOUS
10
3.6080648031496061
20
-5.3720716141732279
11
3.6118143307086612
21
-5.3795707086614168
0
LINE
8
BLACK
6
CONTINUOUS
10
3.6118143307086612
20
-5.3795707086614168
11
3.6118143307086612
21
-5.4208155511811018
0
LINE
8
BLACK
6
CONTINUOUS
10
3.6493096456692911
20
-5.4208155511811018
11
3.6493096456692911
21
-5.3683220866141728
0
LINE
8
BLACK
6
CONTINUOUS
10
3.6493096456692911
20
-5.375821141732283
11
3.6530591732283462
21
-5.3720716141732279
0
LINE
8
BLACK
6
CONTINUOUS
10
3.6530591732283462
20
-5.3720716141732279
11
3.6605582283464564
21
-5.3683220866141728
0
LINE
8
BLACK
6
CONTINUOUS
10
3.6605582283464564
20
-5.3683220866141728
11
3.6718068503937009
21
-5.3683220866141728
0
LINE
8
BLACK
6
CONTINUOUS
10
3.6718068503937009
20
-5.3683220866141728
11
3.6793059055118111
21
-5.3720716141732279
0
LINE
8
BLACK
6
CONTINUOUS
10
3.6793059055118111
20
-5.3720716141732279
11
3.6830554330708662
21
-5.3795707086614168
0
LINE
8
BLACK
6
CONTINUOUS
10
3.6830554330708662
20
-5.3795707086614168
11
3.6830554330708662
21
-5.4208155511811018
0
LINE
8
BLACK
6
CONTINUOUS
10
3.6830554330708662
20
-5.3795707086614168
11
3.6868049606299214
21
-5.3720716141732279
0
LINE
8
BLACK
6
CONTINUOUS
10
3.6868049606299214
20
-5.3720716141732279
11
3.6943040157480316
21
-5.3683220866141728
0
LINE
8
BLACK
6
CONTINUOUS
10
3.6943040157480316
20
-5.3683220866141728
11
3.7055525984251969
21
-5.3683220866141728
0
LINE
8
BLACK
6
CONTINUOUS
10
3.7055525984251969
20
-5.3683220866141728
11
3.7130516929133859
21
-5.3720716141732279
0
LINE
8
BLACK
6
CONTINUOUS
10
3.7130516929133859
20
-5.3720716141732279
11
3.716801220472441
21
-5.3795707086614168
0
LINE
8
BLACK
6
CONTINUOUS
10
3.716801220472441
20
-5.3795707086614168
11
3.716801220472441
21
-5.4208155511811018
0
LINE
8
BLACK
6
CONTINUOUS
10
3.8705320078740155
20
-5.3383258661417319
11
3.8030404724409448
21
-5.4395631889763782
0
LINE
8
BLACK
6
CONTINUOUS
10
3.9717693700787402
20
-5.342075393700787
11
3.9792684645669292
21
-5.342075393700787
0
LINE
8
BLACK
6
CONTINUOUS
10
3.9792684645669292
20
-5.342075393700787
11
3.9867675196850394
21
-5.3458249212598421
0
LINE
8
BLACK
6
CONTINUOUS
10
3.9867675196850394
20
-5.3458249212598421
11
3.9905170472440945
21
-5.3495744488188972
0
LINE
8
BLACK
6
CONTINUOUS
10
3.9905170472440945
20
-5.3495744488188972
11
3.9942665748031496
21
-5.3570735039370074
0
LINE
8
BLACK
6
CONTINUOUS
10
3.9942665748031496
20
-5.3570735039370074
11
3.9980161023622047
21
-5.3720716141732279
0
LINE
8
BLACK
6
CONTINUOUS
10
3.9980161023622047
20
-5.3720716141732279
11
3.9980161023622047
21
-5.3908192913385822
0
LINE
8
BLACK
6
CONTINUOUS
10
3.9980161023622047
20
-5.3908192913385822
11
3.9942665748031496
21
-5.4058174015748026
0
LINE
8
BLACK
6
CONTINUOUS
10
3.9942665748031496
20
-5.4058174015748026
11
3.9905170472440945
21
-5.4133164566929128
0
LINE
8
BLACK
6
CONTINUOUS
10
3.9905170472440945
20
-5.4133164566929128
11
3.9867675196850394
21
-5.4170660236220467
0
LINE
8
BLACK
6
CONTINUOUS
10
3.9867675196850394
20
-5.4170660236220467
11
3.9792684645669292
21
-5.4208155511811018
0
LINE
8
BLACK
6
CONTINUOUS
10
3.9792684645669292
20
-5.4208155511811018
11
3.9717693700787402
21
-5.4208155511811018
0
LINE
8
BLACK
6
CONTINUOUS
10
3.9717693700787402
20
-5.4208155511811018
11
3.96427031496063
21
-5.4170660236220467
0
LINE
8
BLACK
6
CONTINUOUS
10
3.96427031496063
20
-5.4170660236220467
11
3.9605207874015749
21
-5.4133164566929128
0
LINE
8
BLACK
6
CONTINUOUS
10
3.9605207874015749
20
-5.4133164566929128
11
3.9567712598425198
21
-5.4058174015748026
0
LINE
8
BLACK
6
CONTINUOUS
10
3.9567712598425198
20
-5.4058174015748026
11
3.9530217322834647
21
-5.3908192913385822
0
LINE
8
BLACK
6
CONTINUOUS
10
3.9530217322834647
20
-5.3908192913385822
11
3.9530217322834647
21
-5.3720716141732279
0
LINE
8
BLACK
6
CONTINUOUS
10
3.9530217322834647
20
-5.3720716141732279
11
3.9567712598425198
21
-5.3570735039370074
0
LINE
8
BLACK
6
CONTINUOUS
10
3.9567712598425198
20
-5.3570735039370074
11
3.9605207874015749
21
-5.3495744488188972
0
LINE
8
BLACK
6
CONTINUOUS
10
3.9605207874015749
20
-5.3495744488188972
11
3.96427031496063
21
-5.3458249212598421
0
LINE
8
BLACK
6
CONTINUOUS
10
3.96427031496063
20
-5.3458249212598421
11
3.9717693700787402
21
-5.342075393700787
0
LINE
8
BLACK
6
CONTINUOUS
10
4.0317618897637795
20
-5.4133164566929128
11
4.0355114173228346
21
-5.4170660236220467
0
LINE
8
BLACK
6
CONTINUOUS
10
4.0355114173228346
20
-5.4170660236220467
11
4.0317618897637795
21
-5.4208155511811018
0
LINE
8
BLACK
6
CONTINUOUS
10
4.0317618897637795
20
-5.4208155511811018
11
4.0280123622047244
21
-5.4170660236220467
0
LINE
8
BLACK
6
CONTINUOUS
10
4.0280123622047244
20
-5.4170660236220467
11
4.0317618897637795
21
-5.4133164566929128
0
LINE
8
BLACK
6
CONTINUOUS
10
4.0317618897637795
20
-5.4133164566929128
11
4.0317618897637795
21
-5.4208155511811018
0
LINE
8
BLACK
6
CONTINUOUS
10
4.1105020472440943
20
-5.4208155511811018
11
4.0655076771653542
21
-5.4208155511811018
0
LINE
8
BLACK
6
CONTINUOUS
10
4.0880048425196849
20
-5.4208155511811018
11
4.0880048425196849
21
-5.342075393700787
0
LINE
8
BLACK
6
CONTINUOUS
10
4.0880048425196849
20
-5.342075393700787
11
4.0805057874015747
21
-5.3533239763779523
0
LINE
8
BLACK
6
CONTINUOUS
10
4.0805057874015747
20
-5.3533239763779523
11
4.0730067322834644
21
-5.3608230314960625
0
LINE
8
BLACK
6
CONTINUOUS
10
4.0730067322834644
20
-5.3608230314960625
11
4.0655076771653542
21
-5.3645725590551177
0
LINE
8
BLACK
6
CONTINUOUS
10
4.1404983070866139
20
-5.3495744488188972
11
4.144247834645669
21
-5.3458249212598421
0
LINE
8
BLACK
6
CONTINUOUS
10
4.144247834645669
20
-5.3458249212598421
11
4.1517468897637793
21
-5.342075393700787
0
LINE
8
BLACK
6
CONTINUOUS
10
4.1517468897637793
20
-5.342075393700787
11
4.1704945669291336
21
-5.342075393700787
0
LINE
8
BLACK
6
CONTINUOUS
10
4.1704945669291336
20
-5.342075393700787
11
4.1779936220472438
21
-5.3458249212598421
0
LINE
8
BLACK
6
CONTINUOUS
10
4.1779936220472438
20
-5.3458249212598421
11
4.1817431496062989
21
-5.3495744488188972
0
LINE
8
BLACK
6
CONTINUOUS
10
4.1817431496062989
20
-5.3495744488188972
11
4.185492677165354
21
-5.3570735039370074
0
LINE
8
BLACK
6
CONTINUOUS
10
4.185492677165354
20
-5.3570735039370074
11
4.185492677165354
21
-5.3645725590551177
0
LINE
8
BLACK
6
CONTINUOUS
10
4.185492677165354
20
-5.3645725590551177
11
4.1817431496062989
21
-5.375821141732283
0
LINE
8
BLACK
6
CONTINUOUS
10
4.1817431496062989
20
-5.375821141732283
11
4.1367487795275588
21
-5.4208155511811018
0
LINE
8
BLACK
6
CONTINUOUS
10
4.1367487795275588
20
-5.4208155511811018
11
4.185492677165354
21
-5.4208155511811018
0
LINE
8
BLACK
6
CONTINUOUS
10
4.2567337795275586
20
-5.342075393700787
11
4.2192384645669287
21
-5.342075393700787
0
LINE
8
BLACK
6
CONTINUOUS
10
4.2192384645669287
20
-5.342075393700787
11
4.2154889370078736
21
-5.3795707086614168
0
LINE
8
BLACK
6
CONTINUOUS
10
4.2154889370078736
20
-5.3795707086614168
11
4.2192384645669287
21
-5.375821141732283
0
LINE
8
BLACK
6
CONTINUOUS
10
4.2192384645669287
20
-5.375821141732283
11
4.226737519685039
21
-5.3720716141732279
0
LINE
8
BLACK
6
CONTINUOUS
10
4.226737519685039
20
-5.3720716141732279
11
4.2454851968503933
21
-5.3720716141732279
0
LINE
8
BLACK
6
CONTINUOUS
10
4.2454851968503933
20
-5.3720716141732279
11
4.2529842519685035
21
-5.375821141732283
0
LINE
8
BLACK
6
CONTINUOUS
10
4.2529842519685035
20
-5.375821141732283
11
4.2567337795275586
21
-5.3795707086614168
0
LINE
8
BLACK
6
CONTINUOUS
10
4.2567337795275586
20
-5.3795707086614168
11
4.2604833070866137
21
-5.3870697637795271
0
LINE
8
BLACK
6
CONTINUOUS
10
4.2604833070866137
20
-5.3870697637795271
11
4.2604833070866137
21
-5.4058174015748026
0
LINE
8
BLACK
6
CONTINUOUS
10
4.2604833070866137
20
-5.4058174015748026
11
4.2567337795275586
21
-5.4133164566929128
0
LINE
8
BLACK
6
CONTINUOUS
10
4.2567337795275586
20
-5.4133164566929128
11
4.2529842519685035
21
-5.4170660236220467
0
LINE
8
BLACK
6
CONTINUOUS
10
4.2529842519685035
20
-5.4170660236220467
11
4.2454851968503933
21
-5.4208155511811018
0
LINE
8
BLACK
6
CONTINUOUS
10
4.2454851968503933
20
-5.4208155511811018
11
4.226737519685039
21
-5.4208155511811018
0
LINE
8
BLACK
6
CONTINUOUS
10
4.226737519685039
20
-5.4208155511811018
11
4.2192384645669287
21
-5.4170660236220467
0
LINE
8
BLACK
6
CONTINUOUS
10
4.2192384645669287
20
-5.4170660236220467
11
4.2154889370078736
21
-5.4133164566929128
0
LINE
8
BLACK
6
CONTINUOUS
10
4.3092272047244098
20
-5.342075393700787
11
4.3167262992125988
21
-5.342075393700787
0
LINE
8
BLACK
6
CONTINUOUS
10
4.3167262992125988
20
-5.342075393700787
11
4.324225354330709
21
-5.3458249212598421
0
LINE
8
BLACK
6
CONTINUOUS
10
4.324225354330709
20
-5.3458249212598421
11
4.3279748818897641
21
-5.3495744488188972
0
LINE
8
BLACK
6
CONTINUOUS
10
4.3279748818897641
20
-5.3495744488188972
11
4.3317244094488192
21
-5.3570735039370074
0
LINE
8
BLACK
6
CONTINUOUS
10
4.3317244094488192
20
-5.3570735039370074
11
4.3354739370078743
21
-5.3720716141732279
0
LINE
8
BLACK
6
CONTINUOUS
10
4.3354739370078743
20
-5.3720716141732279
11
4.3354739370078743
21
-5.3908192913385822
0
LINE
8
BLACK
6
CONTINUOUS
10
4.3354739370078743
20
-5.3908192913385822
11
4.3317244094488192
21
-5.4058174015748026
0
LINE
8
BLACK
6
CONTINUOUS
10
4.3317244094488192
20
-5.4058174015748026
11
4.3279748818897641
21
-5.4133164566929128
0
LINE
8
BLACK
6
CONTINUOUS
10
4.3279748818897641
20
-5.4133164566929128
11
4.324225354330709
21
-5.4170660236220467
0
LINE
8
BLACK
6
CONTINUOUS
10
4.324225354330709
20
-5.4170660236220467
11
4.3167262992125988
21
-5.4208155511811018
0
LINE
8
BLACK
6
CONTINUOUS
10
4.3167262992125988
20
-5.4208155511811018
11
4.3092272047244098
21
-5.4208155511811018
0
LINE
8
BLACK
6
CONTINUOUS
10
4.3092272047244098
20
-5.4208155511811018
11
4.3017281496062987
21
-5.4170660236220467
0
LINE
8
BLACK
6
CONTINUOUS
10
4.3017281496062987
20
-5.4170660236220467
11
4.2979786220472436
21
-5.4133164566929128
0
LINE
8
BLACK
6
CONTINUOUS
10
4.2979786220472436
20
-5.4133164566929128
11
4.2942290944881885
21
-5.4058174015748026
0
LINE
8
BLACK
6
CONTINUOUS
10
4.2942290944881885
20
-5.4058174015748026
11
4.2904795669291333
21
-5.3908192913385822
0
LINE
8
BLACK
6
CONTINUOUS
10
4.2904795669291333
20
-5.3908192913385822
11
4.2904795669291333
21
-5.3720716141732279
0
LINE
8
BLACK
6
CONTINUOUS
10
4.2904795669291333
20
-5.3720716141732279
11
4.2942290944881885
21
-5.3570735039370074
0
LINE
8
BLACK
6
CONTINUOUS
10
4.2942290944881885
20
-5.3570735039370074
11
4.2979786220472436
21
-5.3495744488188972
0
LINE
8
BLACK
6
CONTINUOUS
10
4.2979786220472436
20
-5.3495744488188972
11
4.3017281496062987
21
-5.3458249212598421
0
LINE
8
BLACK
6
CONTINUOUS
10
4.3017281496062987
20
-5.3458249212598421
11
4.3092272047244098
21
-5.342075393700787
0
LINE
8
BLACK
6
CONTINUOUS
10
4.3654701968503939
20
-5.342075393700787
11
4.3654701968503939
21
-5.3570735039370074
0
LINE
8
BLACK
6
CONTINUOUS
10
4.3954664566929136
20
-5.342075393700787
11
4.3954664566929136
21
-5.3570735039370074
0
LINE
8
BLACK
6
CONTINUOUS
10
4.511701968503937
20
-5.4508117716535436
11
4.5079524015748031
21
-5.4470622440944885
0
LINE
8
BLACK
6
CONTINUOUS
10
4.5079524015748031
20
-5.4470622440944885
11
4.5004533464566929
21
-5.4358136614173231
0
LINE
8
BLACK
6
CONTINUOUS
10
4.5004533464566929
20
-5.4358136614173231
11
4.4967038188976378
21
-5.4283146062992129
0
LINE
8
BLACK
6
CONTINUOUS
10
4.4967038188976378
20
-5.4283146062992129
11
4.4929542913385827
21
-5.4170660236220467
0
LINE
8
BLACK
6
CONTINUOUS
10
4.4929542913385827
20
-5.4170660236220467
11
4.4892047637795276
21
-5.3983183464566924
0
LINE
8
BLACK
6
CONTINUOUS
10
4.4892047637795276
20
-5.3983183464566924
11
4.4892047637795276
21
-5.383320236220472
0
LINE
8
BLACK
6
CONTINUOUS
10
4.4892047637795276
20
-5.383320236220472
11
4.4929542913385827
21
-5.3645725590551177
0
LINE
8
BLACK
6
CONTINUOUS
10
4.4929542913385827
20
-5.3645725590551177
11
4.4967038188976378
21
-5.3533239763779523
0
LINE
8
BLACK
6
CONTINUOUS
10
4.4967038188976378
20
-5.3533239763779523
11
4.5004533464566929
21
-5.3458249212598421
0
LINE
8
BLACK
6
CONTINUOUS
10
4.5004533464566929
20
-5.3458249212598421
11
4.5079524015748031
21
-5.334576299212598
0
LINE
8
BLACK
6
CONTINUOUS
10
4.5079524015748031
20
-5.334576299212598
11
4.511701968503937
21
-5.3308267716535429
0
LINE
8
BLACK
6
CONTINUOUS
10
4.5379486614173228
20
-5.3495744488188972
11
4.5416981889763779
21
-5.3458249212598421
0
LINE
8
BLACK
6
CONTINUOUS
10
4.5416981889763779
20
-5.3458249212598421
11
4.5491972440944881
21
-5.342075393700787
0
LINE
8
BLACK
6
CONTINUOUS
10
4.5491972440944881
20
-5.342075393700787
11
4.5679449212598424
21
-5.342075393700787
0
LINE
8
BLACK
6
CONTINUOUS
10
4.5679449212598424
20
-5.342075393700787
11
4.5754439763779526
21
-5.3458249212598421
0
LINE
8
BLACK
6
CONTINUOUS
10
4.5754439763779526
20
-5.3458249212598421
11
4.5791935039370077
21
-5.3495744488188972
0
LINE
8
BLACK
6
CONTINUOUS
10
4.5791935039370077
20
-5.3495744488188972
11
4.5829430314960629
21
-5.3570735039370074
0
LINE
8
BLACK
6
CONTINUOUS
10
4.5829430314960629
20
-5.3570735039370074
11
4.5829430314960629
21
-5.3645725590551177
0
LINE
8
BLACK
6
CONTINUOUS
10
4.5829430314960629
20
-5.3645725590551177
11
4.5791935039370077
21
-5.375821141732283
0
LINE
8
BLACK
6
CONTINUOUS
10
4.5791935039370077
20
-5.375821141732283
11
4.5341991338582677
21
-5.4208155511811018
0
LINE
8
BLACK
6
CONTINUOUS
10
4.5341991338582677
20
-5.4208155511811018
11
4.5829430314960629
21
-5.4208155511811018
0
LINE
8
BLACK
6
CONTINUOUS
10
4.6766813385826769
20
-5.4208155511811018
11
4.6766813385826769
21
-5.342075393700787
0
LINE
8
BLACK
6
CONTINUOUS
10
4.7104271259842516
20
-5.4208155511811018
11
4.7104271259842516
21
-5.3795707086614168
0
LINE
8
BLACK
6
CONTINUOUS
10
4.7104271259842516
20
-5.3795707086614168
11
4.7066775984251965
21
-5.3720716141732279
0
LINE
8
BLACK
6
CONTINUOUS
10
4.7066775984251965
20
-5.3720716141732279
11
4.6991785433070863
21
-5.3683220866141728
0
LINE
8
BLACK
6
CONTINUOUS
10
4.6991785433070863
20
-5.3683220866141728
11
4.6879299212598422
21
-5.3683220866141728
0
LINE
8
BLACK
6
CONTINUOUS
10
4.6879299212598422
20
-5.3683220866141728
11
4.680430866141732
21
-5.3720716141732279
0
LINE
8
BLACK
6
CONTINUOUS
10
4.680430866141732
20
-5.3720716141732279
11
4.6766813385826769
21
-5.375821141732283
0
LINE
8
BLACK
6
CONTINUOUS
10
4.7591710236220468
20
-5.4208155511811018
11
4.7516719685039366
21
-5.4170660236220467
0
LINE
8
BLACK
6
CONTINUOUS
10
4.7516719685039366
20
-5.4170660236220467
11
4.7479224409448815
21
-5.4133164566929128
0
LINE
8
BLACK
6
CONTINUOUS
10
4.7479224409448815
20
-5.4133164566929128
11
4.7441729133858264
21
-5.4058174015748026
0
LINE
8
BLACK
6
CONTINUOUS
10
4.7441729133858264
20
-5.4058174015748026
11
4.7441729133858264
21
-5.383320236220472
0
LINE
8
BLACK
6
CONTINUOUS
10
4.7441729133858264
20
-5.383320236220472
11
4.7479224409448815
21
-5.375821141732283
0
LINE
8
BLACK
6
CONTINUOUS
10
4.7479224409448815
20
-5.375821141732283
11
4.7516719685039366
21
-5.3720716141732279
0
LINE
8
BLACK
6
CONTINUOUS
10
4.7516719685039366
20
-5.3720716141732279
11
4.7591710236220468
21
-5.3683220866141728
0
LINE
8
BLACK
6
CONTINUOUS
10
4.7591710236220468
20
-5.3683220866141728
11
4.7704196456692909
21
-5.3683220866141728
0
LINE
8
BLACK
6
CONTINUOUS
10
4.7704196456692909
20
-5.3683220866141728
11
4.7779187007874011
21
-5.3720716141732279
0
LINE
8
BLACK
6
CONTINUOUS
10
4.7779187007874011
20
-5.3720716141732279
11
4.7816682283464562
21
-5.375821141732283
0
LINE
8
BLACK
6
CONTINUOUS
10
4.7816682283464562
20
-5.375821141732283
11
4.7854177559055113
21
-5.383320236220472
0
LINE
8
BLACK
6
CONTINUOUS
10
4.7854177559055113
20
-5.383320236220472
11
4.7854177559055113
21
-5.4058174015748026
0
LINE
8
BLACK
6
CONTINUOUS
10
4.7854177559055113
20
-5.4058174015748026
11
4.7816682283464562
21
-5.4133164566929128
0
LINE
8
BLACK
6
CONTINUOUS
10
4.7816682283464562
20
-5.4133164566929128
11
4.7779187007874011
21
-5.4170660236220467
0
LINE
8
BLACK
6
CONTINUOUS
10
4.7779187007874011
20
-5.4170660236220467
11
4.7704196456692909
21
-5.4208155511811018
0
LINE
8
BLACK
6
CONTINUOUS
10
4.7704196456692909
20
-5.4208155511811018
11
4.7591710236220468
21
-5.4208155511811018
0
LINE
8
BLACK
6
CONTINUOUS
10
4.8304121259842523
20
-5.4208155511811018
11
4.8229130708661412
21
-5.4170660236220467
0
LINE
8
BLACK
6
CONTINUOUS
10
4.8229130708661412
20
-5.4170660236220467
11
4.8191635433070861
21
-5.4095669291338577
0
LINE
8
BLACK
6
CONTINUOUS
10
4.8191635433070861
20
-5.4095669291338577
11
4.8191635433070861
21
-5.342075393700787
0
LINE
8
BLACK
6
CONTINUOUS
10
4.8904046456692916
20
-5.4170660236220467
11
4.8829055905511813
21
-5.4208155511811018
0
LINE
8
BLACK
6
CONTINUOUS
10
4.8829055905511813
20
-5.4208155511811018
11
4.8679074409448821
21
-5.4208155511811018
0
LINE
8
BLACK
6
CONTINUOUS
10
4.8679074409448821
20
-5.4208155511811018
11
4.8604083858267719
21
-5.4170660236220467
0
LINE
8
BLACK
6
CONTINUOUS
10
4.8604083858267719
20
-5.4170660236220467
11
4.8566588582677168
21
-5.4095669291338577
0
LINE
8
BLACK
6
CONTINUOUS
10
4.8566588582677168
20
-5.4095669291338577
11
4.8566588582677168
21
-5.3795707086614168
0
LINE
8
BLACK
6
CONTINUOUS
10
4.8566588582677168
20
-5.3795707086614168
11
4.8604083858267719
21
-5.3720716141732279
0
LINE
8
BLACK
6
CONTINUOUS
10
4.8604083858267719
20
-5.3720716141732279
11
4.8679074409448821
21
-5.3683220866141728
0
LINE
8
BLACK
6
CONTINUOUS
10
4.8679074409448821
20
-5.3683220866141728
11
4.8829055905511813
21
-5.3683220866141728
0
LINE
8
BLACK
6
CONTINUOUS
10
4.8829055905511813
20
-5.3683220866141728
11
4.8904046456692916
21
-5.3720716141732279
0
LINE
8
BLACK
6
CONTINUOUS
10
4.8904046456692916
20
-5.3720716141732279
11
4.8941541732283467
21
-5.3795707086614168
0
LINE
8
BLACK
6
CONTINUOUS
10
4.8941541732283467
20
-5.3795707086614168
11
4.8941541732283467
21
-5.3870697637795271
0
LINE
8
BLACK
6
CONTINUOUS
10
4.8941541732283467
20
-5.3870697637795271
11
4.8566588582677168
21
-5.3945688188976373
0
LINE
8
BLACK
6
CONTINUOUS
10
4.9241504330708663
20
-5.4170660236220467
11
4.9316494881889765
21
-5.4208155511811018
0
LINE
8
BLACK
6
CONTINUOUS
10
4.9316494881889765
20
-5.4208155511811018
11
4.946647598425197
21
-5.4208155511811018
0
LINE
8
BLACK
6
CONTINUOUS
10
4.946647598425197
20
-5.4208155511811018
11
4.9541466929133859
21
-5.4170660236220467
0
LINE
8
BLACK
6
CONTINUOUS
10
4.9541466929133859
20
-5.4170660236220467
11
4.9578962204724411
21
-5.4095669291338577
0
LINE
8
BLACK
6
CONTINUOUS
10
4.9578962204724411
20
-5.4095669291338577
11
4.9578962204724411
21
-5.4058174015748026
0
LINE
8
BLACK
6
CONTINUOUS
10
4.9578962204724411
20
-5.4058174015748026
11
4.9541466929133859
21
-5.3983183464566924
0
LINE
8
BLACK
6
CONTINUOUS
10
4.9541466929133859
20
-5.3983183464566924
11
4.946647598425197
21
-5.3945688188976373
0
LINE
8
BLACK
6
CONTINUOUS
10
4.946647598425197
20
-5.3945688188976373
11
4.9353990157480316
21
-5.3945688188976373
0
LINE
8
BLACK
6
CONTINUOUS
10
4.9353990157480316
20
-5.3945688188976373
11
4.9278999606299214
21
-5.3908192913385822
0
LINE
8
BLACK
6
CONTINUOUS
10
4.9278999606299214
20
-5.3908192913385822
11
4.9241504330708663
21
-5.383320236220472
0
LINE
8
BLACK
6
CONTINUOUS
10
4.9241504330708663
20
-5.383320236220472
11
4.9241504330708663
21
-5.3795707086614168
0
LINE
8
BLACK
6
CONTINUOUS
10
4.9241504330708663
20
-5.3795707086614168
11
4.9278999606299214
21
-5.3720716141732279
0
LINE
8
BLACK
6
CONTINUOUS
10
4.9278999606299214
20
-5.3720716141732279
11
4.9353990157480316
21
-5.3683220866141728
0
LINE
8
BLACK
6
CONTINUOUS
10
4.9353990157480316
20
-5.3683220866141728
11
4.946647598425197
21
-5.3683220866141728
0
LINE
8
BLACK
6
CONTINUOUS
10
4.946647598425197
20
-5.3683220866141728
11
4.9541466929133859
21
-5.3720716141732279
0
LINE
8
BLACK
6
CONTINUOUS
10
4.9841429527559056
20
-5.4508117716535436
11
4.9878924803149607
21
-5.4470622440944885
0
LINE
8
BLACK
6
CONTINUOUS
10
4.9878924803149607
20
-5.4470622440944885
11
4.9953915354330709
21
-5.4358136614173231
0
LINE
8
BLACK
6
CONTINUOUS
10
4.9953915354330709
20
-5.4358136614173231
11
4.999141062992126
21
-5.4283146062992129
0
LINE
8
BLACK
6
CONTINUOUS
10
4.999141062992126
20
-5.4283146062992129
11
5.0028905905511811
21
-5.4170660236220467
0
LINE
8
BLACK
6
CONTINUOUS
10
5.0028905905511811
20
-5.4170660236220467
11
5.0066401181102362
21
-5.3983183464566924
0
LINE
8
BLACK
6
CONTINUOUS
10
5.0066401181102362
20
-5.3983183464566924
11
5.0066401181102362
21
-5.383320236220472
0
LINE
8
BLACK
6
CONTINUOUS
10
5.0066401181102362
20
-5.383320236220472
11
5.0028905905511811
21
-5.3645725590551177
0
LINE
8
BLACK
6
CONTINUOUS
10
5.0028905905511811
20
-5.3645725590551177
11
4.999141062992126
21
-5.3533239763779523
0
LINE
8
BLACK
6
CONTINUOUS
10
4.999141062992126
20
-5.3533239763779523
11
4.9953915354330709
21
-5.3458249212598421
0
LINE
8
BLACK
6
CONTINUOUS
10
4.9953915354330709
20
-5.3458249212598421
11
4.9878924803149607
21
-5.334576299212598
0
LINE
8
BLACK
6
CONTINUOUS
10
4.9878924803149607
20
-5.334576299212598
11
4.9841429527559056
21
-5.3308267716535429
0
LINE
8
BLACK
6
CONTINUOUS
10
3.0648268110236221
20
-5.4714124803149602
11
3.0648268110236221
21
-5.5501526377952759
0
LINE
8
BLACK
6
CONTINUOUS
10
3.0254567322834647
20
-5.5107825590551176
11
3.1041968897637795
21
-5.5107825590551176
0
LINE
8
BLACK
6
CONTINUOUS
10
3.1993658661417324
20
-5.4680596456692916
11
3.2481097637795275
21
-5.4680596456692916
0
LINE
8
BLACK
6
CONTINUOUS
10
3.2481097637795275
20
-5.4680596456692916
11
3.221863031496063
21
-5.4980558661417325
0
LINE
8
BLACK
6
CONTINUOUS
10
3.221863031496063
20
-5.4980558661417325
11
3.2331116535433071
21
-5.4980558661417325
0
LINE
8
BLACK
6
CONTINUOUS
10
3.2331116535433071
20
-5.4980558661417325
11
3.2406107086614173
21
-5.5018053937007876
0
LINE
8
BLACK
6
CONTINUOUS
10
3.2406107086614173
20
-5.5018053937007876
11
3.2443602362204724
21
-5.5055549606299214
0
LINE
8
BLACK
6
CONTINUOUS
10
3.2443602362204724
20
-5.5055549606299214
11
3.2481097637795275
21
-5.5130540157480317
0
LINE
8
BLACK
6
CONTINUOUS
10
3.2481097637795275
20
-5.5130540157480317
11
3.2481097637795275
21
-5.5318016535433072
0
LINE
8
BLACK
6
CONTINUOUS
10
3.2481097637795275
20
-5.5318016535433072
11
3.2443602362204724
21
-5.5393007086614174
0
LINE
8
BLACK
6
CONTINUOUS
10
3.2443602362204724
20
-5.5393007086614174
11
3.2406107086614173
21
-5.5430502755905513
0
LINE
8
BLACK
6
CONTINUOUS
10
3.2406107086614173
20
-5.5430502755905513
11
3.2331116535433071
21
-5.5467998031496064
0
LINE
8
BLACK
6
CONTINUOUS
10
3.2331116535433071
20
-5.5467998031496064
11
3.2106144488188977
21
-5.5467998031496064
0
LINE
8
BLACK
6
CONTINUOUS
10
3.2106144488188977
20
-5.5467998031496064
11
3.2031153937007875
21
-5.5430502755905513
0
LINE
8
BLACK
6
CONTINUOUS
10
3.2031153937007875
20
-5.5430502755905513
11
3.1993658661417324
21
-5.5393007086614174
0
LINE
8
BLACK
6
CONTINUOUS
10
3.2818555511811023
20
-5.5393007086614174
11
3.2856050787401574
21
-5.5430502755905513
0
LINE
8
BLACK
6
CONTINUOUS
10
3.2856050787401574
20
-5.5430502755905513
11
3.2818555511811023
21
-5.5467998031496064
0
LINE
8
BLACK
6
CONTINUOUS
10
3.2818555511811023
20
-5.5467998031496064
11
3.2781060236220472
21
-5.5430502755905513
0
LINE
8
BLACK
6
CONTINUOUS
10
3.2781060236220472
20
-5.5430502755905513
11
3.2818555511811023
21
-5.5393007086614174
0
LINE
8
BLACK
6
CONTINUOUS
10
3.2818555511811023
20
-5.5393007086614174
11
3.2818555511811023
21
-5.5467998031496064
0
LINE
8
BLACK
6
CONTINUOUS
10
3.3530966535433069
20
-5.4943063385826774
11
3.3530966535433069
21
-5.5467998031496064
0
LINE
8
BLACK
6
CONTINUOUS
10
3.3343489763779526
20
-5.4643101181102365
11
3.315601338582677
21
-5.5205530708661419
0
LINE
8
BLACK
6
CONTINUOUS
10
3.315601338582677
20
-5.5205530708661419
11
3.3643452362204722
21
-5.5205530708661419
0
LINE
8
BLACK
6
CONTINUOUS
10
3.4093396062992127
20
-5.4680596456692916
11
3.4168387007874017
21
-5.4680596456692916
0
LINE
8
BLACK
6
CONTINUOUS
10
3.4168387007874017
20
-5.4680596456692916
11
3.4243377559055119
21
-5.4718091732283467
0
LINE
8
BLACK
6
CONTINUOUS
10
3.4243377559055119
20
-5.4718091732283467
11
3.428087283464567
21
-5.4755587007874018
0
LINE
8
BLACK
6
CONTINUOUS
10
3.428087283464567
20
-5.4755587007874018
11
3.4318368110236221
21
-5.483057755905512
0
LINE
8
BLACK
6
CONTINUOUS
10
3.4318368110236221
20
-5.483057755905512
11
3.4355863385826773
21
-5.4980558661417325
0
LINE
8
BLACK
6
CONTINUOUS
10
3.4355863385826773
20
-5.4980558661417325
11
3.4355863385826773
21
-5.5168035433070868
0
LINE
8
BLACK
6
CONTINUOUS
10
3.4355863385826773
20
-5.5168035433070868
11
3.4318368110236221
21
-5.5318016535433072
0
LINE
8
BLACK
6
CONTINUOUS
10
3.4318368110236221
20
-5.5318016535433072
11
3.428087283464567
21
-5.5393007086614174
0
LINE
8
BLACK
6
CONTINUOUS
10
3.428087283464567
20
-5.5393007086614174
11
3.4243377559055119
21
-5.5430502755905513
0
LINE
8
BLACK
6
CONTINUOUS
10
3.4243377559055119
20
-5.5430502755905513
11
3.4168387007874017
21
-5.5467998031496064
0
LINE
8
BLACK
6
CONTINUOUS
10
3.4168387007874017
20
-5.5467998031496064
11
3.4093396062992127
21
-5.5467998031496064
0
LINE
8
BLACK
6
CONTINUOUS
10
3.4093396062992127
20
-5.5467998031496064
11
3.4018405511811021
21
-5.5430502755905513
0
LINE
8
BLACK
6
CONTINUOUS
10
3.4018405511811021
20
-5.5430502755905513
11
3.398091023622047
21
-5.5393007086614174
0
LINE
8
BLACK
6
CONTINUOUS
10
3.398091023622047
20
-5.5393007086614174
11
3.3943414960629918
21
-5.5318016535433072
0
LINE
8
BLACK
6
CONTINUOUS
10
3.3943414960629918
20
-5.5318016535433072
11
3.3905919685039367
21
-5.5168035433070868
0
LINE
8
BLACK
6
CONTINUOUS
10
3.3905919685039367
20
-5.5168035433070868
11
3.3905919685039367
21
-5.4980558661417325
0
LINE
8
BLACK
6
CONTINUOUS
10
3.3905919685039367
20
-5.4980558661417325
11
3.3943414960629918
21
-5.483057755905512
0
LINE
8
BLACK
6
CONTINUOUS
10
3.3943414960629918
20
-5.483057755905512
11
3.398091023622047
21
-5.4755587007874018
0
LINE
8
BLACK
6
CONTINUOUS
10
3.398091023622047
20
-5.4755587007874018
11
3.4018405511811021
21
-5.4718091732283467
0
LINE
8
BLACK
6
CONTINUOUS
10
3.4018405511811021
20
-5.4718091732283467
11
3.4093396062992127
21
-5.4680596456692916
0
LINE
8
BLACK
6
CONTINUOUS
10
3.5030779133858267
20
-5.4943063385826774
11
3.5030779133858267
21
-5.5467998031496064
0
LINE
8
BLACK
6
CONTINUOUS
10
3.4843302362204724
20
-5.4643101181102365
11
3.4655825984251969
21
-5.5205530708661419
0
LINE
8
BLACK
6
CONTINUOUS
10
3.4655825984251969
20
-5.5205530708661419
11
3.5143264960629921
21
-5.5205530708661419
0
LINE
8
BLACK
6
CONTINUOUS
10
3.5443227559055117
20
-5.5467998031496064
11
3.5443227559055117
21
-5.4943063385826774
0
LINE
8
BLACK
6
CONTINUOUS
10
3.5443227559055117
20
-5.5018053937007876
11
3.5480722834645668
21
-5.4980558661417325
0
LINE
8
BLACK
6
CONTINUOUS
10
3.5480722834645668
20
-5.4980558661417325
11
3.555571338582677
21
-5.4943063385826774
0
LINE
8
BLACK
6
CONTINUOUS
10
3.555571338582677
20
-5.4943063385826774
11
3.5668199606299211
21
-5.4943063385826774
0
LINE
8
BLACK
6
CONTINUOUS
10
3.5668199606299211
20
-5.4943063385826774
11
3.5743190157480313
21
-5.4980558661417325
0
LINE
8
BLACK
6
CONTINUOUS
10
3.5743190157480313
20
-5.4980558661417325
11
3.5780685433070865
21
-5.5055549606299214
0
LINE
8
BLACK
6
CONTINUOUS
10
3.5780685433070865
20
-5.5055549606299214
11
3.5780685433070865
21
-5.5467998031496064
0
LINE
8
BLACK
6
CONTINUOUS
10
3.5780685433070865
20
-5.5055549606299214
11
3.5818180708661416
21
-5.4980558661417325
0
LINE
8
BLACK
6
CONTINUOUS
10
3.5818180708661416
20
-5.4980558661417325
11
3.5893171259842518
21
-5.4943063385826774
0
LINE
8
BLACK
6
CONTINUOUS
10
3.5893171259842518
20
-5.4943063385826774
11
3.6005657086614171
21
-5.4943063385826774
0
LINE
8
BLACK
6
CONTINUOUS
10
3.6005657086614171
20
-5.4943063385826774
11
3.6080648031496061
21
-5.4980558661417325
0
LINE
8
BLACK
6
CONTINUOUS
10
3.6080648031496061
20
-5.4980558661417325
11
3.6118143307086612
21
-5.5055549606299214
0
LINE
8
BLACK
6
CONTINUOUS
10
3.6118143307086612
20
-5.5055549606299214
11
3.6118143307086612
21
-5.5467998031496064
0
LINE
8
BLACK
6
CONTINUOUS
10
3.6493096456692911
20
-5.5467998031496064
11
3.6493096456692911
21
-5.4943063385826774
0
LINE
8
BLACK
6
CONTINUOUS
10
3.6493096456692911
20
-5.5018053937007876
11
3.6530591732283462
21
-5.4980558661417325
0
LINE
8
BLACK
6
CONTINUOUS
10
3.6530591732283462
20
-5.4980558661417325
11
3.6605582283464564
21
-5.4943063385826774
0
LINE
8
BLACK
6
CONTINUOUS
10
3.6605582283464564
20
-5.4943063385826774
11
3.6718068503937009
21
-5.4943063385826774
0
LINE
8
BLACK
6
CONTINUOUS
10
3.6718068503937009
20
-5.4943063385826774
11
3.6793059055118111
21
-5.4980558661417325
0
LINE
8
BLACK
6
CONTINUOUS
10
3.6793059055118111
20
-5.4980558661417325
11
3.6830554330708662
21
-5.5055549606299214
0
LINE
8
BLACK
6
CONTINUOUS
10
3.6830554330708662
20
-5.5055549606299214
11
3.6830554330708662
21
-5.5467998031496064
0
LINE
8
BLACK
6
CONTINUOUS
10
3.6830554330708662
20
-5.5055549606299214
11
3.6868049606299214
21
-5.4980558661417325
0
LINE
8
BLACK
6
CONTINUOUS
10
3.6868049606299214
20
-5.4980558661417325
11
3.6943040157480316
21
-5.4943063385826774
0
LINE
8
BLACK
6
CONTINUOUS
10
3.6943040157480316
20
-5.4943063385826774
11
3.7055525984251969
21
-5.4943063385826774
0
LINE
8
BLACK
6
CONTINUOUS
10
3.7055525984251969
20
-5.4943063385826774
11
3.7130516929133859
21
-5.4980558661417325
0
LINE
8
BLACK
6
CONTINUOUS
10
3.7130516929133859
20
-5.4980558661417325
11
3.716801220472441
21
-5.5055549606299214
0
LINE
8
BLACK
6
CONTINUOUS
10
3.716801220472441
20
-5.5055549606299214
11
3.716801220472441
21
-5.5467998031496064
0
LINE
8
BLACK
6
CONTINUOUS
10
3.8705320078740155
20
-5.4643101181102365
11
3.8030404724409448
21
-5.565547440944882
0
LINE
8
BLACK
6
CONTINUOUS
10
3.9717693700787402
20
-5.4680596456692916
11
3.9792684645669292
21
-5.4680596456692916
0
LINE
8
BLACK
6
CONTINUOUS
10
3.9792684645669292
20
-5.4680596456692916
11
3.9867675196850394
21
-5.4718091732283467
0
LINE
8
BLACK
6
CONTINUOUS
10
3.9867675196850394
20
-5.4718091732283467
11
3.9905170472440945
21
-5.4755587007874018
0
LINE
8
BLACK
6
CONTINUOUS
10
3.9905170472440945
20
-5.4755587007874018
11
3.9942665748031496
21
-5.483057755905512
0
LINE
8
BLACK
6
CONTINUOUS
10
3.9942665748031496
20
-5.483057755905512
11
3.9980161023622047
21
-5.4980558661417325
0
LINE
8
BLACK
6
CONTINUOUS
10
3.9980161023622047
20
-5.4980558661417325
11
3.9980161023622047
21
-5.5168035433070868
0
LINE
8
BLACK
6
CONTINUOUS
10
3.9980161023622047
20
-5.5168035433070868
11
3.9942665748031496
21
-5.5318016535433072
0
LINE
8
BLACK
6
CONTINUOUS
10
3.9942665748031496
20
-5.5318016535433072
11
3.9905170472440945
21
-5.5393007086614174
0
LINE
8
BLACK
6
CONTINUOUS
10
3.9905170472440945
20
-5.5393007086614174
11
3.9867675196850394
21
-5.5430502755905513
0
LINE
8
BLACK
6
CONTINUOUS
10
3.9867675196850394
20
-5.5430502755905513
11
3.9792684645669292
21
-5.5467998031496064
0
LINE
8
BLACK
6
CONTINUOUS
10
3.9792684645669292
20
-5.5467998031496064
11
3.9717693700787402
21
-5.5467998031496064
0
LINE
8
BLACK
6
CONTINUOUS
10
3.9717693700787402
20
-5.5467998031496064
11
3.96427031496063
21
-5.5430502755905513
0
LINE
8
BLACK
6
CONTINUOUS
10
3.96427031496063
20
-5.5430502755905513
11
3.9605207874015749
21
-5.5393007086614174
0
LINE
8
BLACK
6
CONTINUOUS
10
3.9605207874015749
20
-5.5393007086614174
11
3.9567712598425198
21
-5.5318016535433072
0
LINE
8
BLACK
6
CONTINUOUS
10
3.9567712598425198
20
-5.5318016535433072
11
3.9530217322834647
21
-5.5168035433070868
0
LINE
8
BLACK
6
CONTINUOUS
10
3.9530217322834647
20
-5.5168035433070868
11
3.9530217322834647
21
-5.4980558661417325
0
LINE
8
BLACK
6
CONTINUOUS
10
3.9530217322834647
20
-5.4980558661417325
11
3.9567712598425198
21
-5.483057755905512
0
LINE
8
BLACK
6
CONTINUOUS
10
3.9567712598425198
20
-5.483057755905512
11
3.9605207874015749
21
-5.4755587007874018
0
LINE
8
BLACK
6
CONTINUOUS
10
3.9605207874015749
20
-5.4755587007874018
11
3.96427031496063
21
-5.4718091732283467
0
LINE
8
BLACK
6
CONTINUOUS
10
3.96427031496063
20
-5.4718091732283467
11
3.9717693700787402
21
-5.4680596456692916
0
LINE
8
BLACK
6
CONTINUOUS
10
4.0317618897637795
20
-5.5393007086614174
11
4.0355114173228346
21
-5.5430502755905513
0
LINE
8
BLACK
6
CONTINUOUS
10
4.0355114173228346
20
-5.5430502755905513
11
4.0317618897637795
21
-5.5467998031496064
0
LINE
8
BLACK
6
CONTINUOUS
10
4.0317618897637795
20
-5.5467998031496064
11
4.0280123622047244
21
-5.5430502755905513
0
LINE
8
BLACK
6
CONTINUOUS
10
4.0280123622047244
20
-5.5430502755905513
11
4.0317618897637795
21
-5.5393007086614174
0
LINE
8
BLACK
6
CONTINUOUS
10
4.0317618897637795
20
-5.5393007086614174
11
4.0317618897637795
21
-5.5467998031496064
0
LINE
8
BLACK
6
CONTINUOUS
10
4.1105020472440943
20
-5.5467998031496064
11
4.0655076771653542
21
-5.5467998031496064
0
LINE
8
BLACK
6
CONTINUOUS
10
4.0880048425196849
20
-5.5467998031496064
11
4.0880048425196849
21
-5.4680596456692916
0
LINE
8
BLACK
6
CONTINUOUS
10
4.0880048425196849
20
-5.4680596456692916
11
4.0805057874015747
21
-5.4793082283464569
0
LINE
8
BLACK
6
CONTINUOUS
10
4.0805057874015747
20
-5.4793082283464569
11
4.0730067322834644
21
-5.4868072834645671
0
LINE
8
BLACK
6
CONTINUOUS
10
4.0730067322834644
20
-5.4868072834645671
11
4.0655076771653542
21
-5.4905568110236223
0
LINE
8
BLACK
6
CONTINUOUS
10
4.1367487795275588
20
-5.4680596456692916
11
4.185492677165354
21
-5.4680596456692916
0
LINE
8
BLACK
6
CONTINUOUS
10
4.185492677165354
20
-5.4680596456692916
11
4.1592459448818895
21
-5.4980558661417325
0
LINE
8
BLACK
6
CONTINUOUS
10
4.1592459448818895
20
-5.4980558661417325
11
4.1704945669291336
21
-5.4980558661417325
0
LINE
8
BLACK
6
CONTINUOUS
10
4.1704945669291336
20
-5.4980558661417325
11
4.1779936220472438
21
-5.5018053937007876
0
LINE
8
BLACK
6
CONTINUOUS
10
4.1779936220472438
20
-5.5018053937007876
11
4.1817431496062989
21
-5.5055549606299214
0
LINE
8
BLACK
6
CONTINUOUS
10
4.1817431496062989
20
-5.5055549606299214
11
4.185492677165354
21
-5.5130540157480317
0
LINE
8
BLACK
6
CONTINUOUS
10
4.185492677165354
20
-5.5130540157480317
11
4.185492677165354
21
-5.5318016535433072
0
LINE
8
BLACK
6
CONTINUOUS
10
4.185492677165354
20
-5.5318016535433072
11
4.1817431496062989
21
-5.5393007086614174
0
LINE
8
BLACK
6
CONTINUOUS
10
4.1817431496062989
20
-5.5393007086614174
11
4.1779936220472438
21
-5.5430502755905513
0
LINE
8
BLACK
6
CONTINUOUS
10
4.1779936220472438
20
-5.5430502755905513
11
4.1704945669291336
21
-5.5467998031496064
0
LINE
8
BLACK
6
CONTINUOUS
10
4.1704945669291336
20
-5.5467998031496064
11
4.1479973622047241
21
-5.5467998031496064
0
LINE
8
BLACK
6
CONTINUOUS
10
4.1479973622047241
20
-5.5467998031496064
11
4.1404983070866139
21
-5.5430502755905513
0
LINE
8
BLACK
6
CONTINUOUS
10
4.1404983070866139
20
-5.5430502755905513
11
4.1367487795275588
21
-5.5393007086614174
0
LINE
8
BLACK
6
CONTINUOUS
10
4.2529842519685035
20
-5.4943063385826774
11
4.2529842519685035
21
-5.5467998031496064
0
LINE
8
BLACK
6
CONTINUOUS
10
4.2342365748031492
20
-5.4643101181102365
11
4.2154889370078736
21
-5.5205530708661419
0
LINE
8
BLACK
6
CONTINUOUS
10
4.2154889370078736
20
-5.5205530708661419
11
4.2642328346456688
21
-5.5205530708661419
0
LINE
8
BLACK
6
CONTINUOUS
10
4.3092272047244098
20
-5.4680596456692916
11
4.3167262992125988
21
-5.4680596456692916
0
LINE
8
BLACK
6
CONTINUOUS
10
4.3167262992125988
20
-5.4680596456692916
11
4.324225354330709
21
-5.4718091732283467
0
LINE
8
BLACK
6
CONTINUOUS
10
4.324225354330709
20
-5.4718091732283467
11
4.3279748818897641
21
-5.4755587007874018
0
LINE
8
BLACK
6
CONTINUOUS
10
4.3279748818897641
20
-5.4755587007874018
11
4.3317244094488192
21
-5.483057755905512
0
LINE
8
BLACK
6
CONTINUOUS
10
4.3317244094488192
20
-5.483057755905512
11
4.3354739370078743
21
-5.4980558661417325
0
LINE
8
BLACK
6
CONTINUOUS
10
4.3354739370078743
20
-5.4980558661417325
11
4.3354739370078743
21
-5.5168035433070868
0
LINE
8
BLACK
6
CONTINUOUS
10
4.3354739370078743
20
-5.5168035433070868
11
4.3317244094488192
21
-5.5318016535433072
0
LINE
8
BLACK
6
CONTINUOUS
10
4.3317244094488192
20
-5.5318016535433072
11
4.3279748818897641
21
-5.5393007086614174
0
LINE
8
BLACK
6
CONTINUOUS
10
4.3279748818897641
20
-5.5393007086614174
11
4.324225354330709
21
-5.5430502755905513
0
LINE
8
BLACK
6
CONTINUOUS
10
4.324225354330709
20
-5.5430502755905513
11
4.3167262992125988
21
-5.5467998031496064
0
LINE
8
BLACK
6
CONTINUOUS
10
4.3167262992125988
20
-5.5467998031496064
11
4.3092272047244098
21
-5.5467998031496064
0
LINE
8
BLACK
6
CONTINUOUS
10
4.3092272047244098
20
-5.5467998031496064
11
4.3017281496062987
21
-5.5430502755905513
0
LINE
8
BLACK
6
CONTINUOUS
10
4.3017281496062987
20
-5.5430502755905513
11
4.2979786220472436
21
-5.5393007086614174
0
LINE
8
BLACK
6
CONTINUOUS
10
4.2979786220472436
20
-5.5393007086614174
11
4.2942290944881885
21
-5.5318016535433072
0
LINE
8
BLACK
6
CONTINUOUS
10
4.2942290944881885
20
-5.5318016535433072
11
4.2904795669291333
21
-5.5168035433070868
0
LINE
8
BLACK
6
CONTINUOUS
10
4.2904795669291333
20
-5.5168035433070868
11
4.2904795669291333
21
-5.4980558661417325
0
LINE
8
BLACK
6
CONTINUOUS
10
4.2904795669291333
20
-5.4980558661417325
11
4.2942290944881885
21
-5.483057755905512
0
LINE
8
BLACK
6
CONTINUOUS
10
4.2942290944881885
20
-5.483057755905512
11
4.2979786220472436
21
-5.4755587007874018
0
LINE
8
BLACK
6
CONTINUOUS
10
4.2979786220472436
20
-5.4755587007874018
11
4.3017281496062987
21
-5.4718091732283467
0
LINE
8
BLACK
6
CONTINUOUS
10
4.3017281496062987
20
-5.4718091732283467
11
4.3092272047244098
21
-5.4680596456692916
0
LINE
8
BLACK
6
CONTINUOUS
10
4.3654701968503939
20
-5.4680596456692916
11
4.3654701968503939
21
-5.483057755905512
0
LINE
8
BLACK
6
CONTINUOUS
10
4.3954664566929136
20
-5.4680596456692916
11
4.3954664566929136
21
-5.483057755905512
0
LINE
8
BLACK
6
CONTINUOUS
10
4.511701968503937
20
-5.5767960236220473
11
4.5079524015748031
21
-5.5730464960629922
0
LINE
8
BLACK
6
CONTINUOUS
10
4.5079524015748031
20
-5.5730464960629922
11
4.5004533464566929
21
-5.5617979133858269
0
LINE
8
BLACK
6
CONTINUOUS
10
4.5004533464566929
20
-5.5617979133858269
11
4.4967038188976378
21
-5.5542988582677166
0
LINE
8
BLACK
6
CONTINUOUS
10
4.4967038188976378
20
-5.5542988582677166
11
4.4929542913385827
21
-5.5430502755905513
0
LINE
8
BLACK
6
CONTINUOUS
10
4.4929542913385827
20
-5.5430502755905513
11
4.4892047637795276
21
-5.524302598425197
0
LINE
8
BLACK
6
CONTINUOUS
10
4.4892047637795276
20
-5.524302598425197
11
4.4892047637795276
21
-5.5093044881889766
0
LINE
8
BLACK
6
CONTINUOUS
10
4.4892047637795276
20
-5.5093044881889766
11
4.4929542913385827
21
-5.4905568110236223
0
LINE
8
BLACK
6
CONTINUOUS
10
4.4929542913385827
20
-5.4905568110236223
11
4.4967038188976378
21
-5.4793082283464569
0
LINE
8
BLACK
6
CONTINUOUS
10
4.4967038188976378
20
-5.4793082283464569
11
4.5004533464566929
21
-5.4718091732283467
0
LINE
8
BLACK
6
CONTINUOUS
10
4.5004533464566929
20
-5.4718091732283467
11
4.5079524015748031
21
-5.4605605511811026
0
LINE
8
BLACK
6
CONTINUOUS
10
4.5079524015748031
20
-5.4605605511811026
11
4.511701968503937
21
-5.4568110236220475
0
LINE
8
BLACK
6
CONTINUOUS
10
4.5754439763779526
20
-5.4943063385826774
11
4.5754439763779526
21
-5.5467998031496064
0
LINE
8
BLACK
6
CONTINUOUS
10
4.5566962992125983
20
-5.4643101181102365
11
4.5379486614173228
21
-5.5205530708661419
0
LINE
8
BLACK
6
CONTINUOUS
10
4.5379486614173228
20
-5.5205530708661419
11
4.586692559055118
21
-5.5205530708661419
0
LINE
8
BLACK
6
CONTINUOUS
10
4.6766813385826769
20
-5.5467998031496064
11
4.6766813385826769
21
-5.4680596456692916
0
LINE
8
BLACK
6
CONTINUOUS
10
4.7104271259842516
20
-5.5467998031496064
11
4.7104271259842516
21
-5.5055549606299214
0
LINE
8
BLACK
6
CONTINUOUS
10
4.7104271259842516
20
-5.5055549606299214
11
4.7066775984251965
21
-5.4980558661417325
0
LINE
8
BLACK
6
CONTINUOUS
10
4.7066775984251965
20
-5.4980558661417325
11
4.6991785433070863
21
-5.4943063385826774
0
LINE
8
BLACK
6
CONTINUOUS
10
4.6991785433070863
20
-5.4943063385826774
11
4.6879299212598422
21
-5.4943063385826774
0
LINE
8
BLACK
6
CONTINUOUS
10
4.6879299212598422
20
-5.4943063385826774
11
4.680430866141732
21
-5.4980558661417325
0
LINE
8
BLACK
6
CONTINUOUS
10
4.680430866141732
20
-5.4980558661417325
11
4.6766813385826769
21
-5.5018053937007876
0
LINE
8
BLACK
6
CONTINUOUS
10
4.7591710236220468
20
-5.5467998031496064
11
4.7516719685039366
21
-5.5430502755905513
0
LINE
8
BLACK
6
CONTINUOUS
10
4.7516719685039366
20
-5.5430502755905513
11
4.7479224409448815
21
-5.5393007086614174
0
LINE
8
BLACK
6
CONTINUOUS
10
4.7479224409448815
20
-5.5393007086614174
11
4.7441729133858264
21
-5.5318016535433072
0
LINE
8
BLACK
6
CONTINUOUS
10
4.7441729133858264
20
-5.5318016535433072
11
4.7441729133858264
21
-5.5093044881889766
0
LINE
8
BLACK
6
CONTINUOUS
10
4.7441729133858264
20
-5.5093044881889766
11
4.7479224409448815
21
-5.5018053937007876
0
LINE
8
BLACK
6
CONTINUOUS
10
4.7479224409448815
20
-5.5018053937007876
11
4.7516719685039366
21
-5.4980558661417325
0
LINE
8
BLACK
6
CONTINUOUS
10
4.7516719685039366
20
-5.4980558661417325
11
4.7591710236220468
21
-5.4943063385826774
0
LINE
8
BLACK
6
CONTINUOUS
10
4.7591710236220468
20
-5.4943063385826774
11
4.7704196456692909
21
-5.4943063385826774
0
LINE
8
BLACK
6
CONTINUOUS
10
4.7704196456692909
20
-5.4943063385826774
11
4.7779187007874011
21
-5.4980558661417325
0
LINE
8
BLACK
6
CONTINUOUS
10
4.7779187007874011
20
-5.4980558661417325
11
4.7816682283464562
21
-5.5018053937007876
0
LINE
8
BLACK
6
CONTINUOUS
10
4.7816682283464562
20
-5.5018053937007876
11
4.7854177559055113
21
-5.5093044881889766
0
LINE
8
BLACK
6
CONTINUOUS
10
4.7854177559055113
20
-5.5093044881889766
11
4.7854177559055113
21
-5.5318016535433072
0
LINE
8
BLACK
6
CONTINUOUS
10
4.7854177559055113
20
-5.5318016535433072
11
4.7816682283464562
21
-5.5393007086614174
0
LINE
8
BLACK
6
CONTINUOUS
10
4.7816682283464562
20
-5.5393007086614174
11
4.7779187007874011
21
-5.5430502755905513
0
LINE
8
BLACK
6
CONTINUOUS
10
4.7779187007874011
20
-5.5430502755905513
11
4.7704196456692909
21
-5.5467998031496064
0
LINE
8
BLACK
6
CONTINUOUS
10
4.7704196456692909
20
-5.5467998031496064
11
4.7591710236220468
21
-5.5467998031496064
0
LINE
8
BLACK
6
CONTINUOUS
10
4.8304121259842523
20
-5.5467998031496064
11
4.8229130708661412
21
-5.5430502755905513
0
LINE
8
BLACK
6
CONTINUOUS
10
4.8229130708661412
20
-5.5430502755905513
11
4.8191635433070861
21
-5.5355511811023623
0
LINE
8
BLACK
6
CONTINUOUS
10
4.8191635433070861
20
-5.5355511811023623
11
4.8191635433070861
21
-5.4680596456692916
0
LINE
8
BLACK
6
CONTINUOUS
10
4.8904046456692916
20
-5.5430502755905513
11
4.8829055905511813
21
-5.5467998031496064
0
LINE
8
BLACK
6
CONTINUOUS
10
4.8829055905511813
20
-5.5467998031496064
11
4.8679074409448821
21
-5.5467998031496064
0
LINE
8
BLACK
6
CONTINUOUS
10
4.8679074409448821
20
-5.5467998031496064
11
4.8604083858267719
21
-5.5430502755905513
0
LINE
8
BLACK
6
CONTINUOUS
10
4.8604083858267719
20
-5.5430502755905513
11
4.8566588582677168
21
-5.5355511811023623
0
LINE
8
BLACK
6
CONTINUOUS
10
4.8566588582677168
20
-5.5355511811023623
11
4.8566588582677168
21
-5.5055549606299214
0
LINE
8
BLACK
6
CONTINUOUS
10
4.8566588582677168
20
-5.5055549606299214
11
4.8604083858267719
21
-5.4980558661417325
0
LINE
8
BLACK
6
CONTINUOUS
10
4.8604083858267719
20
-5.4980558661417325
11
4.8679074409448821
21
-5.4943063385826774
0
LINE
8
BLACK
6
CONTINUOUS
10
4.8679074409448821
20
-5.4943063385826774
11
4.8829055905511813
21
-5.4943063385826774
0
LINE
8
BLACK
6
CONTINUOUS
10
4.8829055905511813
20
-5.4943063385826774
11
4.8904046456692916
21
-5.4980558661417325
0
LINE
8
BLACK
6
CONTINUOUS
10
4.8904046456692916
20
-5.4980558661417325
11
4.8941541732283467
21
-5.5055549606299214
0
LINE
8
BLACK
6
CONTINUOUS
10
4.8941541732283467
20
-5.5055549606299214
11
4.8941541732283467
21
-5.5130540157480317
0
LINE
8
BLACK
6
CONTINUOUS
10
4.8941541732283467
20
-5.5130540157480317
11
4.8566588582677168
21
-5.5205530708661419
0
LINE
8
BLACK
6
CONTINUOUS
10
4.9241504330708663
20
-5.5430502755905513
11
4.9316494881889765
21
-5.5467998031496064
0
LINE
8
BLACK
6
CONTINUOUS
10
4.9316494881889765
20
-5.5467998031496064
11
4.946647598425197
21
-5.5467998031496064
0
LINE
8
BLACK
6
CONTINUOUS
10
4.946647598425197
20
-5.5467998031496064
11
4.9541466929133859
21
-5.5430502755905513
0
LINE
8
BLACK
6
CONTINUOUS
10
4.9541466929133859
20
-5.5430502755905513
11
4.9578962204724411
21
-5.5355511811023623
0
LINE
8
BLACK
6
CONTINUOUS
10
4.9578962204724411
20
-5.5355511811023623
11
4.9578962204724411
21
-5.5318016535433072
0
LINE
8
BLACK
6
CONTINUOUS
10
4.9578962204724411
20
-5.5318016535433072
11
4.9541466929133859
21
-5.524302598425197
0
LINE
8
BLACK
6
CONTINUOUS
10
4.9541466929133859
20
-5.524302598425197
11
4.946647598425197
21
-5.5205530708661419
0
LINE
8
BLACK
6
CONTINUOUS
10
4.946647598425197
20
-5.5205530708661419
11
4.9353990157480316
21
-5.5205530708661419
0
LINE
8
BLACK
6
CONTINUOUS
10
4.9353990157480316
20
-5.5205530708661419
11
4.9278999606299214
21
-5.5168035433070868
0
LINE
8
BLACK
6
CONTINUOUS
10
4.9278999606299214
20
-5.5168035433070868
11
4.9241504330708663
21
-5.5093044881889766
0
LINE
8
BLACK
6
CONTINUOUS
10
4.9241504330708663
20
-5.5093044881889766
11
4.9241504330708663
21
-5.5055549606299214
0
LINE
8
BLACK
6
CONTINUOUS
10
4.9241504330708663
20
-5.5055549606299214
11
4.9278999606299214
21
-5.4980558661417325
0
LINE
8
BLACK
6
CONTINUOUS
10
4.9278999606299214
20
-5.4980558661417325
11
4.9353990157480316
21
-5.4943063385826774
0
LINE
8
BLACK
6
CONTINUOUS
10
4.9353990157480316
20
-5.4943063385826774
11
4.946647598425197
21
-5.4943063385826774
0
LINE
8
BLACK
6
CONTINUOUS
10
4.946647598425197
20
-5.4943063385826774
11
4.9541466929133859
21
-5.4980558661417325
0
LINE
8
BLACK
6
CONTINUOUS
10
4.9841429527559056
20
-5.5767960236220473
11
4.9878924803149607
21
-5.5730464960629922
0
LINE
8
BLACK
6
CONTINUOUS
10
4.9878924803149607
20
-5.5730464960629922
11
4.9953915354330709
21
-5.5617979133858269
0
LINE
8
BLACK
6
CONTINUOUS
10
4.9953915354330709
20
-5.5617979133858269
11
4.999141062992126
21
-5.5542988582677166
0
LINE
8
BLACK
6
CONTINUOUS
10
4.999141062992126
20
-5.5542988582677166
11
5.0028905905511811
21
-5.5430502755905513
0
LINE
8
BLACK
6
CONTINUOUS
10
5.0028905905511811
20
-5.5430502755905513
11
5.0066401181102362
21
-5.524302598425197
0
LINE
8
BLACK
6
CONTINUOUS
10
5.0066401181102362
20
-5.524302598425197
11
5.0066401181102362
21
-5.5093044881889766
0
LINE
8
BLACK
6
CONTINUOUS
10
5.0066401181102362
20
-5.5093044881889766
11
5.0028905905511811
21
-5.4905568110236223
0
LINE
8
BLACK
6
CONTINUOUS
10
5.0028905905511811
20
-5.4905568110236223
11
4.999141062992126
21
-5.4793082283464569
0
LINE
8
BLACK
6
CONTINUOUS
10
4.999141062992126
20
-5.4793082283464569
11
4.9953915354330709
21
-5.4718091732283467
0
LINE
8
BLACK
6
CONTINUOUS
10
4.9953915354330709
20
-5.4718091732283467
11
4.9878924803149607
21
-5.4605605511811026
0
LINE
8
BLACK
6
CONTINUOUS
10
4.9878924803149607
20
-5.4605605511811026
11
4.9841429527559056
21
-5.4568110236220475
0
LINE
8
BLACK
6
CONTINUOUS
10
5.1266251574803148
20
-5.5767960236220473
11
5.1228755905511809
21
-5.5730464960629922
0
LINE
8
BLACK
6
CONTINUOUS
10
5.1228755905511809
20
-5.5730464960629922
11
5.1153765354330707
21
-5.5617979133858269
0
LINE
8
BLACK
6
CONTINUOUS
10
5.1153765354330707
20
-5.5617979133858269
11
5.1116270078740156
21
-5.5542988582677166
0
LINE
8
BLACK
6
CONTINUOUS
10
5.1116270078740156
20
-5.5542988582677166
11
5.1078774803149605
21
-5.5430502755905513
0
LINE
8
BLACK
6
CONTINUOUS
10
5.1078774803149605
20
-5.5430502755905513
11
5.1041279527559054
21
-5.524302598425197
0
LINE
8
BLACK
6
CONTINUOUS
10
5.1041279527559054
20
-5.524302598425197
11
5.1041279527559054
21
-5.5093044881889766
0
LINE
8
BLACK
6
CONTINUOUS
10
5.1041279527559054
20
-5.5093044881889766
11
5.1078774803149605
21
-5.4905568110236223
0
LINE
8
BLACK
6
CONTINUOUS
10
5.1078774803149605
20
-5.4905568110236223
11
5.1116270078740156
21
-5.4793082283464569
0
LINE
8
BLACK
6
CONTINUOUS
10
5.1116270078740156
20
-5.4793082283464569
11
5.1153765354330707
21
-5.4718091732283467
0
LINE
8
BLACK
6
CONTINUOUS
10
5.1153765354330707
20
-5.4718091732283467
11
5.1228755905511809
21
-5.4605605511811026
0
LINE
8
BLACK
6
CONTINUOUS
10
5.1228755905511809
20
-5.4605605511811026
11
5.1266251574803148
21
-5.4568110236220475
0
LINE
8
BLACK
6
CONTINUOUS
10
5.1566213779527557
20
-5.4943063385826774
11
5.1566213779527557
21
-5.5467998031496064
0
LINE
8
BLACK
6
CONTINUOUS
10
5.1566213779527557
20
-5.5018053937007876
11
5.1603709055118108
21
-5.4980558661417325
0
LINE
8
BLACK
6
CONTINUOUS
10
5.1603709055118108
20
-5.4980558661417325
11
5.167869960629921
21
-5.4943063385826774
0
LINE
8
BLACK
6
CONTINUOUS
10
5.167869960629921
20
-5.4943063385826774
11
5.1791185826771651
21
-5.4943063385826774
0
LINE
8
BLACK
6
CONTINUOUS
10
5.1791185826771651
20
-5.4943063385826774
11
5.1866176377952753
21
-5.4980558661417325
0
LINE
8
BLACK
6
CONTINUOUS
10
5.1866176377952753
20
-5.4980558661417325
11
5.1903671653543304
21
-5.5055549606299214
0
LINE
8
BLACK
6
CONTINUOUS
10
5.1903671653543304
20
-5.5055549606299214
11
5.1903671653543304
21
-5.5467998031496064
0
LINE
8
BLACK
6
CONTINUOUS
10
5.2391110629921256
20
-5.5467998031496064
11
5.2316120078740154
21
-5.5430502755905513
0
LINE
8
BLACK
6
CONTINUOUS
10
5.2316120078740154
20
-5.5430502755905513
11
5.2278624803149603
21
-5.5393007086614174
0
LINE
8
BLACK
6
CONTINUOUS
10
5.2278624803149603
20
-5.5393007086614174
11
5.2241129527559051
21
-5.5318016535433072
0
LINE
8
BLACK
6
CONTINUOUS
10
5.2241129527559051
20
-5.5318016535433072
11
5.2241129527559051
21
-5.5093044881889766
0
LINE
8
BLACK
6
CONTINUOUS
10
5.2241129527559051
20
-5.5093044881889766
11
5.2278624803149603
21
-5.5018053937007876
0
LINE
8
BLACK
6
CONTINUOUS
10
5.2278624803149603
20
-5.5018053937007876
11
5.2316120078740154
21
-5.4980558661417325
0
LINE
8
BLACK
6
CONTINUOUS
10
5.2316120078740154
20
-5.4980558661417325
11
5.2391110629921256
21
-5.4943063385826774
0
LINE
8
BLACK
6
CONTINUOUS
10
5.2391110629921256
20
-5.4943063385826774
11
5.2503596850393697
21
-5.4943063385826774
0
LINE
8
BLACK
6
CONTINUOUS
10
5.2503596850393697
20
-5.4943063385826774
11
5.2578587401574799
21
-5.4980558661417325
0
LINE
8
BLACK
6
CONTINUOUS
10
5.2578587401574799
20
-5.4980558661417325
11
5.261608267716535
21
-5.5018053937007876
0
LINE
8
BLACK
6
CONTINUOUS
10
5.261608267716535
20
-5.5018053937007876
11
5.2653577952755901
21
-5.5093044881889766
0
LINE
8
BLACK
6
CONTINUOUS
10
5.2653577952755901
20
-5.5093044881889766
11
5.2653577952755901
21
-5.5318016535433072
0
LINE
8
BLACK
6
CONTINUOUS
10
5.2653577952755901
20
-5.5318016535433072
11
5.261608267716535
21
-5.5393007086614174
0
LINE
8
BLACK
6
CONTINUOUS
10
5.261608267716535
20
-5.5393007086614174
11
5.2578587401574799
21
-5.5430502755905513
0
LINE
8
BLACK
6
CONTINUOUS
10
5.2578587401574799
20
-5.5430502755905513
11
5.2503596850393697
21
-5.5467998031496064
0
LINE
8
BLACK
6
CONTINUOUS
10
5.2503596850393697
20
-5.5467998031496064
11
5.2391110629921256
21
-5.5467998031496064
0
LINE
8
BLACK
6
CONTINUOUS
10
5.2878549999999995
20
-5.4943063385826774
11
5.3178512204724404
21
-5.4943063385826774
0
LINE
8
BLACK
6
CONTINUOUS
10
5.2991035826771649
20
-5.4680596456692916
11
5.2991035826771649
21
-5.5355511811023623
0
LINE
8
BLACK
6
CONTINUOUS
10
5.2991035826771649
20
-5.5355511811023623
11
5.30285311023622
21
-5.5430502755905513
0
LINE
8
BLACK
6
CONTINUOUS
10
5.30285311023622
20
-5.5430502755905513
11
5.3103521653543302
21
-5.5467998031496064
0
LINE
8
BLACK
6
CONTINUOUS
10
5.3103521653543302
20
-5.5467998031496064
11
5.3178512204724404
21
-5.5467998031496064
0
LINE
8
BLACK
6
CONTINUOUS
10
5.4040904724409451
20
-5.4943063385826774
11
5.4040904724409451
21
-5.5730464960629922
0
LINE
8
BLACK
6
CONTINUOUS
10
5.4040904724409451
20
-5.4980558661417325
11
5.4115895275590553
21
-5.4943063385826774
0
LINE
8
BLACK
6
CONTINUOUS
10
5.4115895275590553
20
-5.4943063385826774
11
5.4265876771653545
21
-5.4943063385826774
0
LINE
8
BLACK
6
CONTINUOUS
10
5.4265876771653545
20
-5.4943063385826774
11
5.4340867322834647
21
-5.4980558661417325
0
LINE
8
BLACK
6
CONTINUOUS
10
5.4340867322834647
20
-5.4980558661417325
11
5.4378362598425198
21
-5.5018053937007876
0
LINE
8
BLACK
6
CONTINUOUS
10
5.4378362598425198
20
-5.5018053937007876
11
5.4415857874015749
21
-5.5093044881889766
0
LINE
8
BLACK
6
CONTINUOUS
10
5.4415857874015749
20
-5.5093044881889766
11
5.4415857874015749
21
-5.5318016535433072
0
LINE
8
BLACK
6
CONTINUOUS
10
5.4415857874015749
20
-5.5318016535433072
11
5.4378362598425198
21
-5.5393007086614174
0
LINE
8
BLACK
6
CONTINUOUS
10
5.4378362598425198
20
-5.5393007086614174
11
5.4340867322834647
21
-5.5430502755905513
0
LINE
8
BLACK
6
CONTINUOUS
10
5.4340867322834647
20
-5.5430502755905513
11
5.4265876771653545
21
-5.5467998031496064
0
LINE
8
BLACK
6
CONTINUOUS
10
5.4265876771653545
20
-5.5467998031496064
11
5.4115895275590553
21
-5.5467998031496064
0
LINE
8
BLACK
6
CONTINUOUS
10
5.4115895275590553
20
-5.5467998031496064
11
5.4040904724409451
21
-5.5430502755905513
0
LINE
8
BLACK
6
CONTINUOUS
10
5.486580157480315
20
-5.5467998031496064
11
5.4790811023622048
21
-5.5430502755905513
0
LINE
8
BLACK
6
CONTINUOUS
10
5.4790811023622048
20
-5.5430502755905513
11
5.4753315748031497
21
-5.5355511811023623
0
LINE
8
BLACK
6
CONTINUOUS
10
5.4753315748031497
20
-5.5355511811023623
11
5.4753315748031497
21
-5.4680596456692916
0
LINE
8
BLACK
6
CONTINUOUS
10
5.5503222047244094
20
-5.5467998031496064
11
5.5503222047244094
21
-5.5055549606299214
0
LINE
8
BLACK
6
CONTINUOUS
10
5.5503222047244094
20
-5.5055549606299214
11
5.5465726771653543
21
-5.4980558661417325
0
LINE
8
BLACK
6
CONTINUOUS
10
5.5465726771653543
20
-5.4980558661417325
11
5.5390736220472441
21
-5.4943063385826774
0
LINE
8
BLACK
6
CONTINUOUS
10
5.5390736220472441
20
-5.4943063385826774
11
5.5240754724409449
21
-5.4943063385826774
0
LINE
8
BLACK
6
CONTINUOUS
10
5.5240754724409449
20
-5.4943063385826774
11
5.5165764173228347
21
-5.4980558661417325
0
LINE
8
BLACK
6
CONTINUOUS
10
5.5503222047244094
20
-5.5430502755905513
11
5.5428231496062992
21
-5.5467998031496064
0
LINE
8
BLACK
6
CONTINUOUS
10
5.5428231496062992
20
-5.5467998031496064
11
5.5240754724409449
21
-5.5467998031496064
0
LINE
8
BLACK
6
CONTINUOUS
10
5.5240754724409449
20
-5.5467998031496064
11
5.5165764173228347
21
-5.5430502755905513
0
LINE
8
BLACK
6
CONTINUOUS
10
5.5165764173228347
20
-5.5430502755905513
11
5.5128268897637795
21
-5.5355511811023623
0
LINE
8
BLACK
6
CONTINUOUS
10
5.5128268897637795
20
-5.5355511811023623
11
5.5128268897637795
21
-5.5280521259842521
0
LINE
8
BLACK
6
CONTINUOUS
10
5.5128268897637795
20
-5.5280521259842521
11
5.5165764173228347
21
-5.5205530708661419
0
LINE
8
BLACK
6
CONTINUOUS
10
5.5165764173228347
20
-5.5205530708661419
11
5.5240754724409449
21
-5.5168035433070868
0
LINE
8
BLACK
6
CONTINUOUS
10
5.5240754724409449
20
-5.5168035433070868
11
5.5428231496062992
21
-5.5168035433070868
0
LINE
8
BLACK
6
CONTINUOUS
10
5.5428231496062992
20
-5.5168035433070868
11
5.5503222047244094
21
-5.5130540157480317
0
LINE
8
BLACK
6
CONTINUOUS
10
5.5765689370078739
20
-5.4943063385826774
11
5.6065651574803148
21
-5.4943063385826774
0
LINE
8
BLACK
6
CONTINUOUS
10
5.5878175196850393
20
-5.4680596456692916
11
5.5878175196850393
21
-5.5355511811023623
0
LINE
8
BLACK
6
CONTINUOUS
10
5.5878175196850393
20
-5.5355511811023623
11
5.5915670472440944
21
-5.5430502755905513
0
LINE
8
BLACK
6
CONTINUOUS
10
5.5915670472440944
20
-5.5430502755905513
11
5.5990661023622046
21
-5.5467998031496064
0
LINE
8
BLACK
6
CONTINUOUS
10
5.5990661023622046
20
-5.5467998031496064
11
5.6065651574803148
21
-5.5467998031496064
0
LINE
8
BLACK
6
CONTINUOUS
10
5.662808149606299
20
-5.5430502755905513
11
5.6553090944881887
21
-5.5467998031496064
0
LINE
8
BLACK
6
CONTINUOUS
10
5.6553090944881887
20
-5.5467998031496064
11
5.6403109448818896
21
-5.5467998031496064
0
LINE
8
BLACK
6
CONTINUOUS
10
5.6403109448818896
20
-5.5467998031496064
11
5.6328118897637793
21
-5.5430502755905513
0
LINE
8
BLACK
6
CONTINUOUS
10
5.6328118897637793
20
-5.5430502755905513
11
5.6290623622047242
21
-5.5355511811023623
0
LINE
8
BLACK
6
CONTINUOUS
10
5.6290623622047242
20
-5.5355511811023623
11
5.6290623622047242
21
-5.5055549606299214
0
LINE
8
BLACK
6
CONTINUOUS
10
5.6290623622047242
20
-5.5055549606299214
11
5.6328118897637793
21
-5.4980558661417325
0
LINE
8
BLACK
6
CONTINUOUS
10
5.6328118897637793
20
-5.4980558661417325
11
5.6403109448818896
21
-5.4943063385826774
0
LINE
8
BLACK
6
CONTINUOUS
10
5.6403109448818896
20
-5.4943063385826774
11
5.6553090944881887
21
-5.4943063385826774
0
LINE
8
BLACK
6
CONTINUOUS
10
5.6553090944881887
20
-5.4943063385826774
11
5.662808149606299
21
-5.4980558661417325
0
LINE
8
BLACK
6
CONTINUOUS
10
5.662808149606299
20
-5.4980558661417325
11
5.6665576771653541
21
-5.5055549606299214
0
LINE
8
BLACK
6
CONTINUOUS
10
5.6665576771653541
20
-5.5055549606299214
11
5.6665576771653541
21
-5.5130540157480317
0
LINE
8
BLACK
6
CONTINUOUS
10
5.6665576771653541
20
-5.5130540157480317
11
5.6290623622047242
21
-5.5205530708661419
0
LINE
8
BLACK
6
CONTINUOUS
10
5.7340492519685036
20
-5.5467998031496064
11
5.7340492519685036
21
-5.4680596456692916
0
LINE
8
BLACK
6
CONTINUOUS
10
5.7340492519685036
20
-5.5430502755905513
11
5.7265501968503933
21
-5.5467998031496064
0
LINE
8
BLACK
6
CONTINUOUS
10
5.7265501968503933
20
-5.5467998031496064
11
5.7115520472440942
21
-5.5467998031496064
0
LINE
8
BLACK
6
CONTINUOUS
10
5.7115520472440942
20
-5.5467998031496064
11
5.7040529921259839
21
-5.5430502755905513
0
LINE
8
BLACK
6
CONTINUOUS
10
5.7040529921259839
20
-5.5430502755905513
11
5.7003034645669288
21
-5.5393007086614174
0
LINE
8
BLACK
6
CONTINUOUS
10
5.7003034645669288
20
-5.5393007086614174
11
5.6965539370078737
21
-5.5318016535433072
0
LINE
8
BLACK
6
CONTINUOUS
10
5.6965539370078737
20
-5.5318016535433072
11
5.6965539370078737
21
-5.5093044881889766
0
LINE
8
BLACK
6
CONTINUOUS
10
5.6965539370078737
20
-5.5093044881889766
11
5.7003034645669288
21
-5.5018053937007876
0
LINE
8
BLACK
6
CONTINUOUS
10
5.7003034645669288
20
-5.5018053937007876
11
5.7040529921259839
21
-5.4980558661417325
0
LINE
8
BLACK
6
CONTINUOUS
10
5.7040529921259839
20
-5.4980558661417325
11
5.7115520472440942
21
-5.4943063385826774
0
LINE
8
BLACK
6
CONTINUOUS
10
5.7115520472440942
20
-5.4943063385826774
11
5.7265501968503933
21
-5.4943063385826774
0
LINE
8
BLACK
6
CONTINUOUS
10
5.7265501968503933
20
-5.4943063385826774
11
5.7340492519685036
21
-5.4980558661417325
0
LINE
8
BLACK
6
CONTINUOUS
10
5.7640455118110232
20
-5.5767960236220473
11
5.7677950393700783
21
-5.5730464960629922
0
LINE
8
BLACK
6
CONTINUOUS
10
5.7677950393700783
20
-5.5730464960629922
11
5.7752940944881885
21
-5.5617979133858269
0
LINE
8
BLACK
6
CONTINUOUS
10
5.7752940944881885
20
-5.5617979133858269
11
5.7790436220472436
21
-5.5542988582677166
0
LINE
8
BLACK
6
CONTINUOUS
10
5.7790436220472436
20
-5.5542988582677166
11
5.7827931496062988
21
-5.5430502755905513
0
LINE
8
BLACK
6
CONTINUOUS
10
5.7827931496062988
20
-5.5430502755905513
11
5.7865426771653539
21
-5.524302598425197
0
LINE
8
BLACK
6
CONTINUOUS
10
5.7865426771653539
20
-5.524302598425197
11
5.7865426771653539
21
-5.5093044881889766
0
LINE
8
BLACK
6
CONTINUOUS
10
5.7865426771653539
20
-5.5093044881889766
11
5.7827931496062988
21
-5.4905568110236223
0
LINE
8
BLACK
6
CONTINUOUS
10
5.7827931496062988
20
-5.4905568110236223
11
5.7790436220472436
21
-5.4793082283464569
0
LINE
8
BLACK
6
CONTINUOUS
10
5.7790436220472436
20
-5.4793082283464569
11
5.7752940944881885
21
-5.4718091732283467
0
LINE
8
BLACK
6
CONTINUOUS
10
5.7752940944881885
20
-5.4718091732283467
11
5.7677950393700783
21
-5.4605605511811026
0
LINE
8
BLACK
6
CONTINUOUS
10
5.7677950393700783
20
-5.4605605511811026
11
5.7640455118110232
21
-5.4568110236220475
  0
ENDSEC
  0
EOF
