<?xml version="1.0" standalone="no"?>
 <!DOCTYPE svg PUBLIC "-//W3C//DTD SVG 1.1//EN" 
 "http://www.w3.org/Graphics/SVG/1.1/DTD/svg11.dtd"> 
<svg
  xmlns:svg="http://www.w3.org/2000/svg"
  xmlns="http://www.w3.org/2000/svg"
  xmlns:xlink="http://www.w3.org/1999/xlink"
  version="1.1"
  width="297.0022mm" height="210.0072mm" viewBox="0.0000 0.0000 297.0022 210.0072">
<title>SVG Image created as kraken-can-adapter-B_Fab.svg date 2023/12/28 22:52:26 </title>
  <desc>Image generated by PCBNEW </desc>
<g style="fill:#000000; fill-opacity:1.0000;stroke:#000000; stroke-opacity:1.0000;
stroke-linecap:round; stroke-linejoin:round;"
 transform="translate(0 0) scale(1 1)">
</g>
<g style="fill:#000000; fill-opacity:0.0; 
stroke:#000000; stroke-width:0.0000; stroke-opacity:1; 
stroke-linecap:round; stroke-linejoin:round;">
</g>
<g style="fill:#000000; fill-opacity:0.0; 
stroke:#000000; stroke-width:0.1500; stroke-opacity:1; 
stroke-linecap:round; stroke-linejoin:round;">
<g transform="rotate(-42.500000 122.9032 122.0306)">
<text x="122.9032" y="122.5306"
transform="scale(-1 1) translate(-245.806382 0)"
textLength="1.0119" font-size="1.3333" lengthAdjust="spacingAndGlyphs"
text-anchor="middle" opacity="0">*</text>
</g>
<g class="stroked-text"><desc>*</desc>
<path d="M122.5349 121.6287
L122.6957 121.8042
" />
<path d="M122.8069 121.5731
L122.6957 121.8042
" />
<path d="M122.6957 121.8042
L122.4558 121.8948
" />
<path d="M122.9297 121.8481
L122.6957 121.8042
" />
<path d="M122.6957 121.8042
L122.7191 122.0411
" />
</g><g transform="rotate(42.500000 91.4649 123.7466)">
<text x="91.4649" y="124.2466"
transform="scale(-1 1) translate(-182.929814 0)"
textLength="1.0119" font-size="1.3333" lengthAdjust="spacingAndGlyphs"
text-anchor="middle" opacity="0">*</text>
</g>
<g class="stroked-text"><desc>*</desc>
<path d="M91.8332 123.3447
L91.6724 123.5202
" />
<path d="M91.9123 123.6108
L91.6724 123.5202
" />
<path d="M91.6724 123.5202
L91.5612 123.2891
" />
<path d="M91.6490 123.7571
L91.6724 123.5202
" />
<path d="M91.6724 123.5202
L91.4384 123.5641
" />
</g></g>
<g style="fill:#000000; fill-opacity:0.0; 
stroke:#000000; stroke-width:0.1000; stroke-opacity:1; 
stroke-linecap:round; stroke-linejoin:round;">
<path d="M127.4278 123.3967
L121.9971 128.3731
" />
<path d="M122.9662 118.5277
L127.4278 123.3967
" />
<path d="M121.9971 128.3731
L117.5355 123.5041
" />
<path d="M117.5355 123.5041
L122.9662 118.5277
" />
<circle cx="121.6162" cy="120.6261" r="0.3810" /> 
<path d="M90.4984 128.3731
L85.0676 123.3967
" />
<path d="M94.9600 123.5041
L90.4984 128.3731
" />
<path d="M85.0676 123.3967
L89.5292 118.5277
" />
<path d="M89.5292 118.5277
L94.9600 123.5041
" />
<circle cx="92.7519" cy="122.3421" r="0.3810" /> 
<g >
</g>
<g >
</g>
<g >
</g>
<g >
</g>
<g >
</g>
<g >
</g>
<g >
</g>
</g>
<g style="fill:#000000; fill-opacity:0.0; 
stroke:#000000; stroke-width:0.1000; stroke-opacity:1; 
stroke-linecap:round; stroke-linejoin:round;">
<path d="M84.2620 122.0862 A0.6351 0.6351 0.0 0 0 84.3011 122.9871" />
<path d="M115.0424 107.8360 A3.4290 3.4290 0.0 0 0 112.7501 106.9572" />
<path d="M128.1772 122.9858
L122.1359 128.4779
" />
<path d="M112.9650 119.3339 A0.6350 0.6350 0.0 0 0 112.4951 119.1260" />
<path d="M99.7282 106.9586 A3.4290 3.4290 0.0 0 0 97.4359 107.8374" />
<path d="M128.1772 122.9858 A0.6350 0.6350 0.0 0 0 128.2163 122.0848" />
<path d="M99.7282 106.9586
L112.7501 106.9572
" />
<path d="M99.9832 119.1273
L112.4951 119.1260
" />
<path d="M121.2389 128.4351 A0.6350 0.6350 0.0 0 0 122.1359 128.4779" />
<path d="M90.3424 128.4792 A0.6350 0.6350 0.0 0 0 91.2395 128.4365" />
<path d="M84.2620 122.0862
L97.4359 107.8374
" />
<path d="M115.0424 107.8360
L128.2163 122.0848
" />
<path d="M90.3424 128.4792
L84.3011 122.9871
" />
<path d="M99.5134 119.3352
L91.2395 128.4365
" />
<path d="M99.9832 119.1273 A0.6351 0.6351 0.0 0 0 99.5134 119.3352" />
<path d="M121.2389 128.4351
L112.9650 119.3339
" />
<g >
</g>
<g >
</g>
<g >
</g>
<g >
</g>
<g >
</g>
<g >
</g>
<g >
</g>
</g> 
</svg>
