<?xml version="1.0" standalone="no"?>
 <!DOCTYPE svg PUBLIC "-//W3C//DTD SVG 1.1//EN" 
 "http://www.w3.org/Graphics/SVG/1.1/DTD/svg11.dtd"> 
<svg
  xmlns:svg="http://www.w3.org/2000/svg"
  xmlns="http://www.w3.org/2000/svg"
  xmlns:xlink="http://www.w3.org/1999/xlink"
  version="1.1"
  width="279.4000mm" height="215.9000mm" viewBox="0.0000 0.0000 279.4000 215.9000">
<title>SVG Image created as kraken-can-adapter-F_Silkscreen.svg date 2024/06/22 15:15:19 </title>
  <desc>Image generated by PCBNEW </desc>
<g style="fill:#000000; fill-opacity:1.0000;stroke:#000000; stroke-opacity:1.0000;
stroke-linecap:round; stroke-linejoin:round;"
 transform="translate(0 0) scale(1 1)">
</g>
<g style="fill:none; 
stroke:#000000; stroke-width:0.2540; stroke-opacity:1; 
stroke-linecap:round; stroke-linejoin:round;">
<text x="106.1720" y="116.8147"
textLength="23.5494" font-size="1.6933" lengthAdjust="spacingAndGlyphs"
text-anchor="middle" opacity="0">971 SPARTAN ROBOTICS</text>
<g class="stroked-text"><desc>971 SPARTAN ROBOTICS</desc>
<path d="M95.0141 116.6461
L95.2560 116.6461
" />
<path d="M95.2560 116.6461
L95.3770 116.5856
" />
<path d="M95.3770 116.5856
L95.4375 116.5252
" />
<path d="M95.4375 116.5252
L95.5584 116.3437
" />
<path d="M95.5584 116.3437
L95.6189 116.1018
" />
<path d="M95.6189 116.1018
L95.6189 115.6180
" />
<path d="M95.6189 115.6180
L95.5584 115.4971
" />
<path d="M95.5584 115.4971
L95.4980 115.4366
" />
<path d="M95.4980 115.4366
L95.3770 115.3761
" />
<path d="M95.3770 115.3761
L95.1351 115.3761
" />
<path d="M95.1351 115.3761
L95.0141 115.4366
" />
<path d="M95.0141 115.4366
L94.9537 115.4971
" />
<path d="M94.9537 115.4971
L94.8932 115.6180
" />
<path d="M94.8932 115.6180
L94.8932 115.9204
" />
<path d="M94.8932 115.9204
L94.9537 116.0413
" />
<path d="M94.9537 116.0413
L95.0141 116.1018
" />
<path d="M95.0141 116.1018
L95.1351 116.1623
" />
<path d="M95.1351 116.1623
L95.3770 116.1623
" />
<path d="M95.3770 116.1623
L95.4980 116.1018
" />
<path d="M95.4980 116.1018
L95.5584 116.0413
" />
<path d="M95.5584 116.0413
L95.6189 115.9204
" />
<path d="M96.0422 115.3761
L96.8889 115.3761
" />
<path d="M96.8889 115.3761
L96.3446 116.6461
" />
<path d="M98.0380 116.6461
L97.3122 116.6461
" />
<path d="M97.6751 116.6461
L97.6751 115.3761
" />
<path d="M97.6751 115.3761
L97.5541 115.5575
" />
<path d="M97.5541 115.5575
L97.4332 115.6785
" />
<path d="M97.4332 115.6785
L97.3122 115.7390
" />
<path d="M99.4894 116.5856
L99.6708 116.6461
" />
<path d="M99.6708 116.6461
L99.9732 116.6461
" />
<path d="M99.9732 116.6461
L100.0941 116.5856
" />
<path d="M100.0941 116.5856
L100.1546 116.5252
" />
<path d="M100.1546 116.5252
L100.2151 116.4042
" />
<path d="M100.2151 116.4042
L100.2151 116.2833
" />
<path d="M100.2151 116.2833
L100.1546 116.1623
" />
<path d="M100.1546 116.1623
L100.0941 116.1018
" />
<path d="M100.0941 116.1018
L99.9732 116.0413
" />
<path d="M99.9732 116.0413
L99.7313 115.9809
" />
<path d="M99.7313 115.9809
L99.6103 115.9204
" />
<path d="M99.6103 115.9204
L99.5499 115.8599
" />
<path d="M99.5499 115.8599
L99.4894 115.7390
" />
<path d="M99.4894 115.7390
L99.4894 115.6180
" />
<path d="M99.4894 115.6180
L99.5499 115.4971
" />
<path d="M99.5499 115.4971
L99.6103 115.4366
" />
<path d="M99.6103 115.4366
L99.7313 115.3761
" />
<path d="M99.7313 115.3761
L100.0337 115.3761
" />
<path d="M100.0337 115.3761
L100.2151 115.4366
" />
<path d="M100.7594 116.6461
L100.7594 115.3761
" />
<path d="M100.7594 115.3761
L101.2432 115.3761
" />
<path d="M101.2432 115.3761
L101.3641 115.4366
" />
<path d="M101.3641 115.4366
L101.4246 115.4971
" />
<path d="M101.4246 115.4971
L101.4851 115.6180
" />
<path d="M101.4851 115.6180
L101.4851 115.7994
" />
<path d="M101.4851 115.7994
L101.4246 115.9204
" />
<path d="M101.4246 115.9204
L101.3641 115.9809
" />
<path d="M101.3641 115.9809
L101.2432 116.0413
" />
<path d="M101.2432 116.0413
L100.7594 116.0413
" />
<path d="M101.9689 116.2833
L102.5737 116.2833
" />
<path d="M101.8480 116.6461
L102.2713 115.3761
" />
<path d="M102.2713 115.3761
L102.6946 116.6461
" />
<path d="M103.8437 116.6461
L103.4203 116.0413
" />
<path d="M103.1180 116.6461
L103.1180 115.3761
" />
<path d="M103.1180 115.3761
L103.6018 115.3761
" />
<path d="M103.6018 115.3761
L103.7227 115.4366
" />
<path d="M103.7227 115.4366
L103.7832 115.4971
" />
<path d="M103.7832 115.4971
L103.8437 115.6180
" />
<path d="M103.8437 115.6180
L103.8437 115.7994
" />
<path d="M103.8437 115.7994
L103.7832 115.9204
" />
<path d="M103.7832 115.9204
L103.7227 115.9809
" />
<path d="M103.7227 115.9809
L103.6018 116.0413
" />
<path d="M103.6018 116.0413
L103.1180 116.0413
" />
<path d="M104.2065 115.3761
L104.9322 115.3761
" />
<path d="M104.5694 116.6461
L104.5694 115.3761
" />
<path d="M105.2951 116.2833
L105.8999 116.2833
" />
<path d="M105.1741 116.6461
L105.5975 115.3761
" />
<path d="M105.5975 115.3761
L106.0208 116.6461
" />
<path d="M106.4441 116.6461
L106.4441 115.3761
" />
<path d="M106.4441 115.3761
L107.1699 116.6461
" />
<path d="M107.1699 116.6461
L107.1699 115.3761
" />
<path d="M109.4680 116.6461
L109.0446 116.0413
" />
<path d="M108.7422 116.6461
L108.7422 115.3761
" />
<path d="M108.7422 115.3761
L109.2260 115.3761
" />
<path d="M109.2260 115.3761
L109.3470 115.4366
" />
<path d="M109.3470 115.4366
L109.4075 115.4971
" />
<path d="M109.4075 115.4971
L109.4680 115.6180
" />
<path d="M109.4680 115.6180
L109.4680 115.7994
" />
<path d="M109.4680 115.7994
L109.4075 115.9204
" />
<path d="M109.4075 115.9204
L109.3470 115.9809
" />
<path d="M109.3470 115.9809
L109.2260 116.0413
" />
<path d="M109.2260 116.0413
L108.7422 116.0413
" />
<path d="M110.2541 115.3761
L110.4960 115.3761
" />
<path d="M110.4960 115.3761
L110.6170 115.4366
" />
<path d="M110.6170 115.4366
L110.7380 115.5575
" />
<path d="M110.7380 115.5575
L110.7984 115.7994
" />
<path d="M110.7984 115.7994
L110.7984 116.2228
" />
<path d="M110.7984 116.2228
L110.7380 116.4647
" />
<path d="M110.7380 116.4647
L110.6170 116.5856
" />
<path d="M110.6170 116.5856
L110.4960 116.6461
" />
<path d="M110.4960 116.6461
L110.2541 116.6461
" />
<path d="M110.2541 116.6461
L110.1332 116.5856
" />
<path d="M110.1332 116.5856
L110.0122 116.4647
" />
<path d="M110.0122 116.4647
L109.9518 116.2228
" />
<path d="M109.9518 116.2228
L109.9518 115.7994
" />
<path d="M109.9518 115.7994
L110.0122 115.5575
" />
<path d="M110.0122 115.5575
L110.1332 115.4366
" />
<path d="M110.1332 115.4366
L110.2541 115.3761
" />
<path d="M111.7660 115.9809
L111.9475 116.0413
" />
<path d="M111.9475 116.0413
L112.0080 116.1018
" />
<path d="M112.0080 116.1018
L112.0684 116.2228
" />
<path d="M112.0684 116.2228
L112.0684 116.4042
" />
<path d="M112.0684 116.4042
L112.0080 116.5252
" />
<path d="M112.0080 116.5252
L111.9475 116.5856
" />
<path d="M111.9475 116.5856
L111.8265 116.6461
" />
<path d="M111.8265 116.6461
L111.3427 116.6461
" />
<path d="M111.3427 116.6461
L111.3427 115.3761
" />
<path d="M111.3427 115.3761
L111.7660 115.3761
" />
<path d="M111.7660 115.3761
L111.8870 115.4366
" />
<path d="M111.8870 115.4366
L111.9475 115.4971
" />
<path d="M111.9475 115.4971
L112.0080 115.6180
" />
<path d="M112.0080 115.6180
L112.0080 115.7390
" />
<path d="M112.0080 115.7390
L111.9475 115.8599
" />
<path d="M111.9475 115.8599
L111.8870 115.9204
" />
<path d="M111.8870 115.9204
L111.7660 115.9809
" />
<path d="M111.7660 115.9809
L111.3427 115.9809
" />
<path d="M112.8546 115.3761
L113.0965 115.3761
" />
<path d="M113.0965 115.3761
L113.2175 115.4366
" />
<path d="M113.2175 115.4366
L113.3384 115.5575
" />
<path d="M113.3384 115.5575
L113.3989 115.7994
" />
<path d="M113.3989 115.7994
L113.3989 116.2228
" />
<path d="M113.3989 116.2228
L113.3384 116.4647
" />
<path d="M113.3384 116.4647
L113.2175 116.5856
" />
<path d="M113.2175 116.5856
L113.0965 116.6461
" />
<path d="M113.0965 116.6461
L112.8546 116.6461
" />
<path d="M112.8546 116.6461
L112.7337 116.5856
" />
<path d="M112.7337 116.5856
L112.6127 116.4647
" />
<path d="M112.6127 116.4647
L112.5522 116.2228
" />
<path d="M112.5522 116.2228
L112.5522 115.7994
" />
<path d="M112.5522 115.7994
L112.6127 115.5575
" />
<path d="M112.6127 115.5575
L112.7337 115.4366
" />
<path d="M112.7337 115.4366
L112.8546 115.3761
" />
<path d="M113.7618 115.3761
L114.4875 115.3761
" />
<path d="M114.1246 116.6461
L114.1246 115.3761
" />
<path d="M114.9108 116.6461
L114.9108 115.3761
" />
<path d="M116.2413 116.5252
L116.1808 116.5856
" />
<path d="M116.1808 116.5856
L115.9994 116.6461
" />
<path d="M115.9994 116.6461
L115.8784 116.6461
" />
<path d="M115.8784 116.6461
L115.6970 116.5856
" />
<path d="M115.6970 116.5856
L115.5760 116.4647
" />
<path d="M115.5760 116.4647
L115.5156 116.3437
" />
<path d="M115.5156 116.3437
L115.4551 116.1018
" />
<path d="M115.4551 116.1018
L115.4551 115.9204
" />
<path d="M115.4551 115.9204
L115.5156 115.6785
" />
<path d="M115.5156 115.6785
L115.5760 115.5575
" />
<path d="M115.5760 115.5575
L115.6970 115.4366
" />
<path d="M115.6970 115.4366
L115.8784 115.3761
" />
<path d="M115.8784 115.3761
L115.9994 115.3761
" />
<path d="M115.9994 115.3761
L116.1808 115.4366
" />
<path d="M116.1808 115.4366
L116.2413 115.4971
" />
<path d="M116.7251 116.5856
L116.9065 116.6461
" />
<path d="M116.9065 116.6461
L117.2089 116.6461
" />
<path d="M117.2089 116.6461
L117.3299 116.5856
" />
<path d="M117.3299 116.5856
L117.3903 116.5252
" />
<path d="M117.3903 116.5252
L117.4508 116.4042
" />
<path d="M117.4508 116.4042
L117.4508 116.2833
" />
<path d="M117.4508 116.2833
L117.3903 116.1623
" />
<path d="M117.3903 116.1623
L117.3299 116.1018
" />
<path d="M117.3299 116.1018
L117.2089 116.0413
" />
<path d="M117.2089 116.0413
L116.9670 115.9809
" />
<path d="M116.9670 115.9809
L116.8460 115.9204
" />
<path d="M116.8460 115.9204
L116.7856 115.8599
" />
<path d="M116.7856 115.8599
L116.7251 115.7390
" />
<path d="M116.7251 115.7390
L116.7251 115.6180
" />
<path d="M116.7251 115.6180
L116.7856 115.4971
" />
<path d="M116.7856 115.4971
L116.8460 115.4366
" />
<path d="M116.8460 115.4366
L116.9670 115.3761
" />
<path d="M116.9670 115.3761
L117.2694 115.3761
" />
<path d="M117.2694 115.3761
L117.4508 115.4366
" />
</g><text x="106.1720" y="118.8594"
textLength="21.6142" font-size="1.6933" lengthAdjust="spacingAndGlyphs"
text-anchor="middle" opacity="0">KRAKEN CAN ADAPTER</text>
<g class="stroked-text"><desc>KRAKEN CAN ADAPTER</desc>
<path d="M95.9213 118.6907
L95.9213 117.4207
" />
<path d="M96.6470 118.6907
L96.1027 117.9650
" />
<path d="M96.6470 117.4207
L95.9213 118.1465
" />
<path d="M97.9170 118.6907
L97.4937 118.0860
" />
<path d="M97.1913 118.6907
L97.1913 117.4207
" />
<path d="M97.1913 117.4207
L97.6751 117.4207
" />
<path d="M97.6751 117.4207
L97.7960 117.4812
" />
<path d="M97.7960 117.4812
L97.8565 117.5417
" />
<path d="M97.8565 117.5417
L97.9170 117.6626
" />
<path d="M97.9170 117.6626
L97.9170 117.8441
" />
<path d="M97.9170 117.8441
L97.8565 117.9650
" />
<path d="M97.8565 117.9650
L97.7960 118.0255
" />
<path d="M97.7960 118.0255
L97.6751 118.0860
" />
<path d="M97.6751 118.0860
L97.1913 118.0860
" />
<path d="M98.4008 118.3279
L99.0056 118.3279
" />
<path d="M98.2799 118.6907
L98.7032 117.4207
" />
<path d="M98.7032 117.4207
L99.1265 118.6907
" />
<path d="M99.5499 118.6907
L99.5499 117.4207
" />
<path d="M100.2756 118.6907
L99.7313 117.9650
" />
<path d="M100.2756 117.4207
L99.5499 118.1465
" />
<path d="M100.8199 118.0255
L101.2432 118.0255
" />
<path d="M101.4246 118.6907
L100.8199 118.6907
" />
<path d="M100.8199 118.6907
L100.8199 117.4207
" />
<path d="M100.8199 117.4207
L101.4246 117.4207
" />
<path d="M101.9689 118.6907
L101.9689 117.4207
" />
<path d="M101.9689 117.4207
L102.6946 118.6907
" />
<path d="M102.6946 118.6907
L102.6946 117.4207
" />
<path d="M104.9927 118.5698
L104.9322 118.6303
" />
<path d="M104.9322 118.6303
L104.7508 118.6907
" />
<path d="M104.7508 118.6907
L104.6299 118.6907
" />
<path d="M104.6299 118.6907
L104.4484 118.6303
" />
<path d="M104.4484 118.6303
L104.3275 118.5093
" />
<path d="M104.3275 118.5093
L104.2670 118.3884
" />
<path d="M104.2670 118.3884
L104.2065 118.1465
" />
<path d="M104.2065 118.1465
L104.2065 117.9650
" />
<path d="M104.2065 117.9650
L104.2670 117.7231
" />
<path d="M104.2670 117.7231
L104.3275 117.6022
" />
<path d="M104.3275 117.6022
L104.4484 117.4812
" />
<path d="M104.4484 117.4812
L104.6299 117.4207
" />
<path d="M104.6299 117.4207
L104.7508 117.4207
" />
<path d="M104.7508 117.4207
L104.9322 117.4812
" />
<path d="M104.9322 117.4812
L104.9927 117.5417
" />
<path d="M105.4765 118.3279
L106.0813 118.3279
" />
<path d="M105.3556 118.6907
L105.7789 117.4207
" />
<path d="M105.7789 117.4207
L106.2022 118.6907
" />
<path d="M106.6256 118.6907
L106.6256 117.4207
" />
<path d="M106.6256 117.4207
L107.3513 118.6907
" />
<path d="M107.3513 118.6907
L107.3513 117.4207
" />
<path d="M108.8632 118.3279
L109.4680 118.3279
" />
<path d="M108.7422 118.6907
L109.1656 117.4207
" />
<path d="M109.1656 117.4207
L109.5889 118.6907
" />
<path d="M110.0122 118.6907
L110.0122 117.4207
" />
<path d="M110.0122 117.4207
L110.3146 117.4207
" />
<path d="M110.3146 117.4207
L110.4960 117.4812
" />
<path d="M110.4960 117.4812
L110.6170 117.6022
" />
<path d="M110.6170 117.6022
L110.6775 117.7231
" />
<path d="M110.6775 117.7231
L110.7380 117.9650
" />
<path d="M110.7380 117.9650
L110.7380 118.1465
" />
<path d="M110.7380 118.1465
L110.6775 118.3884
" />
<path d="M110.6775 118.3884
L110.6170 118.5093
" />
<path d="M110.6170 118.5093
L110.4960 118.6303
" />
<path d="M110.4960 118.6303
L110.3146 118.6907
" />
<path d="M110.3146 118.6907
L110.0122 118.6907
" />
<path d="M111.2218 118.3279
L111.8265 118.3279
" />
<path d="M111.1008 118.6907
L111.5241 117.4207
" />
<path d="M111.5241 117.4207
L111.9475 118.6907
" />
<path d="M112.3708 118.6907
L112.3708 117.4207
" />
<path d="M112.3708 117.4207
L112.8546 117.4207
" />
<path d="M112.8546 117.4207
L112.9756 117.4812
" />
<path d="M112.9756 117.4812
L113.0360 117.5417
" />
<path d="M113.0360 117.5417
L113.0965 117.6626
" />
<path d="M113.0965 117.6626
L113.0965 117.8441
" />
<path d="M113.0965 117.8441
L113.0360 117.9650
" />
<path d="M113.0360 117.9650
L112.9756 118.0255
" />
<path d="M112.9756 118.0255
L112.8546 118.0860
" />
<path d="M112.8546 118.0860
L112.3708 118.0860
" />
<path d="M113.4594 117.4207
L114.1851 117.4207
" />
<path d="M113.8222 118.6907
L113.8222 117.4207
" />
<path d="M114.6084 118.0255
L115.0318 118.0255
" />
<path d="M115.2132 118.6907
L114.6084 118.6907
" />
<path d="M114.6084 118.6907
L114.6084 117.4207
" />
<path d="M114.6084 117.4207
L115.2132 117.4207
" />
<path d="M116.4832 118.6907
L116.0599 118.0860
" />
<path d="M115.7575 118.6907
L115.7575 117.4207
" />
<path d="M115.7575 117.4207
L116.2413 117.4207
" />
<path d="M116.2413 117.4207
L116.3622 117.4812
" />
<path d="M116.3622 117.4812
L116.4227 117.5417
" />
<path d="M116.4227 117.5417
L116.4832 117.6626
" />
<path d="M116.4832 117.6626
L116.4832 117.8441
" />
<path d="M116.4832 117.8441
L116.4227 117.9650
" />
<path d="M116.4227 117.9650
L116.3622 118.0255
" />
<path d="M116.3622 118.0255
L116.2413 118.0860
" />
<path d="M116.2413 118.0860
L115.7575 118.0860
" />
</g><text x="106.1720" y="120.9040"
textLength="8.6118" font-size="1.6933" lengthAdjust="spacingAndGlyphs"
text-anchor="middle" opacity="0">V2 2024</text>
<g class="stroked-text"><desc>V2 2024</desc>
<path d="M102.2410 119.4654
L102.6644 120.7354
" />
<path d="M102.6644 120.7354
L103.0877 119.4654
" />
<path d="M103.4506 119.5863
L103.5110 119.5258
" />
<path d="M103.5110 119.5258
L103.6320 119.4654
" />
<path d="M103.6320 119.4654
L103.9344 119.4654
" />
<path d="M103.9344 119.4654
L104.0553 119.5258
" />
<path d="M104.0553 119.5258
L104.1158 119.5863
" />
<path d="M104.1158 119.5863
L104.1763 119.7073
" />
<path d="M104.1763 119.7073
L104.1763 119.8282
" />
<path d="M104.1763 119.8282
L104.1158 120.0097
" />
<path d="M104.1158 120.0097
L103.3901 120.7354
" />
<path d="M103.3901 120.7354
L104.1763 120.7354
" />
<path d="M105.6277 119.5863
L105.6882 119.5258
" />
<path d="M105.6882 119.5258
L105.8091 119.4654
" />
<path d="M105.8091 119.4654
L106.1115 119.4654
" />
<path d="M106.1115 119.4654
L106.2325 119.5258
" />
<path d="M106.2325 119.5258
L106.2930 119.5863
" />
<path d="M106.2930 119.5863
L106.3534 119.7073
" />
<path d="M106.3534 119.7073
L106.3534 119.8282
" />
<path d="M106.3534 119.8282
L106.2930 120.0097
" />
<path d="M106.2930 120.0097
L105.5672 120.7354
" />
<path d="M105.5672 120.7354
L106.3534 120.7354
" />
<path d="M107.1396 119.4654
L107.2606 119.4654
" />
<path d="M107.2606 119.4654
L107.3815 119.5258
" />
<path d="M107.3815 119.5258
L107.4420 119.5863
" />
<path d="M107.4420 119.5863
L107.5025 119.7073
" />
<path d="M107.5025 119.7073
L107.5630 119.9492
" />
<path d="M107.5630 119.9492
L107.5630 120.2516
" />
<path d="M107.5630 120.2516
L107.5025 120.4935
" />
<path d="M107.5025 120.4935
L107.4420 120.6144
" />
<path d="M107.4420 120.6144
L107.3815 120.6749
" />
<path d="M107.3815 120.6749
L107.2606 120.7354
" />
<path d="M107.2606 120.7354
L107.1396 120.7354
" />
<path d="M107.1396 120.7354
L107.0187 120.6749
" />
<path d="M107.0187 120.6749
L106.9582 120.6144
" />
<path d="M106.9582 120.6144
L106.8977 120.4935
" />
<path d="M106.8977 120.4935
L106.8372 120.2516
" />
<path d="M106.8372 120.2516
L106.8372 119.9492
" />
<path d="M106.8372 119.9492
L106.8977 119.7073
" />
<path d="M106.8977 119.7073
L106.9582 119.5863
" />
<path d="M106.9582 119.5863
L107.0187 119.5258
" />
<path d="M107.0187 119.5258
L107.1396 119.4654
" />
<path d="M108.0468 119.5863
L108.1072 119.5258
" />
<path d="M108.1072 119.5258
L108.2282 119.4654
" />
<path d="M108.2282 119.4654
L108.5306 119.4654
" />
<path d="M108.5306 119.4654
L108.6515 119.5258
" />
<path d="M108.6515 119.5258
L108.7120 119.5863
" />
<path d="M108.7120 119.5863
L108.7725 119.7073
" />
<path d="M108.7725 119.7073
L108.7725 119.8282
" />
<path d="M108.7725 119.8282
L108.7120 120.0097
" />
<path d="M108.7120 120.0097
L107.9863 120.7354
" />
<path d="M107.9863 120.7354
L108.7725 120.7354
" />
<path d="M109.8610 119.8887
L109.8610 120.7354
" />
<path d="M109.5587 119.4049
L109.2563 120.3120
" />
<path d="M109.2563 120.3120
L110.0425 120.3120
" />
</g><path style="fill:#000000; fill-opacity:1.0000; stroke:none;fill-rule:evenodd;"
d="M 129.6682,120.7641
127.2381,123.1941
125.9627,121.9187
125.9892,121.8922
126.2155,121.8922
126.2155,121.9417
126.2345,121.9875
126.2503,122.0068
127.1676,122.9206
127.2134,122.9395
127.2629,122.9395
127.3087,122.9206
127.3437,122.8855
127.3627,122.8398
127.3627,122.7902
127.3437,122.7444
127.3279,122.7252
126.9463,122.3450
127.2805,122.0087
127.6807,122.4074
127.7265,122.4264
127.7761,122.4264
127.8219,122.4074
127.8569,122.3724
127.8759,122.3266
127.8759,122.2770
127.8569,122.2313
127.8411,122.2120
126.9238,121.2982
126.8780,121.2792
126.8285,121.2792
126.7827,121.2982
126.7477,121.3332
126.7287,121.3790
126.7287,121.4286
126.7477,121.4744
126.7635,121.4936
127.1022,121.8311
126.7681,122.1674
126.4107,121.8114
126.3649,121.7924
126.3153,121.7924
126.2696,121.8114
126.2345,121.8464
126.2155,121.8922
125.9892,121.8922
127.6142,120.2672
127.8405,120.2672
127.8405,120.3167
127.8595,120.3625
127.8753,120.3818
128.7926,121.2956
128.8384,121.3145
128.8879,121.3145
128.9337,121.2956
128.9337,121.2956
128.9529,121.2798
129.3964,120.8329
129.4153,120.7871
129.4153,120.7376
129.3964,120.6918
129.3613,120.6568
129.3155,120.6378
129.2660,120.6378
129.2202,120.6568
129.2010,120.6726
128.8643,121.0119
128.0357,120.1864
127.9899,120.1674
127.9403,120.1674
127.8945,120.1864
127.8595,120.2214
127.8405,120.2672
127.6142,120.2672
128.3927,119.4886
Z" /> 
<path style="fill:#000000; fill-opacity:1.0000; stroke:none;fill-rule:evenodd;"
d="M 86.6324,122.0173
85.3569,123.2928
84.5271,122.4630
84.8065,122.4630
84.8065,122.5125
84.8254,122.5583
84.8412,122.5775
85.2881,123.0210
85.3339,123.0399
85.3834,123.0399
85.4292,123.0210
85.4642,122.9859
85.4832,122.9401
85.4832,122.8906
85.4642,122.8448
85.4484,122.8256
85.1091,122.4889
85.9346,121.6603
85.9536,121.6145
85.9536,121.5649
85.9346,121.5191
85.8996,121.4841
85.8538,121.4651
85.8043,121.4651
85.7585,121.4841
85.7392,121.4999
84.8257,122.4169
84.8254,122.4172
84.8065,122.4630
84.5271,122.4630
82.9269,120.8627
82.9516,120.8380
83.1815,120.8380
83.1815,120.8875
83.2004,120.9333
83.2355,120.9683
83.2812,120.9873
83.3308,120.9873
83.3766,120.9683
83.3958,120.9525
83.7760,120.5709
84.1123,120.9051
83.7136,121.3053
83.6946,121.3511
83.6946,121.4007
83.7136,121.4465
83.7486,121.4815
83.7944,121.5005
83.8440,121.5005
83.8897,121.4815
83.9090,121.4657
84.8228,120.5484
84.8418,120.5026
84.8418,120.4531
84.8228,120.4073
84.7878,120.3723
84.7420,120.3533
84.6924,120.3533
84.6466,120.3723
84.6274,120.3881
84.2899,120.7268
83.9536,120.3927
84.3096,120.0353
84.3286,119.9895
84.3286,119.9399
84.3096,119.8942
84.2746,119.8591
84.2288,119.8401
84.1793,119.8401
84.1335,119.8591
84.1142,119.8749
83.2004,120.7922
83.1815,120.8380
82.9516,120.8380
84.2023,119.5873
Z" /> 
</g>
<g style="fill:none; 
stroke:#000000; stroke-width:0.1000; stroke-opacity:1; 
stroke-linecap:round; stroke-linejoin:round;">
<text x="99.7453" y="110.3862"
textLength="1.8143" font-size="1.3333" lengthAdjust="spacingAndGlyphs"
text-anchor="middle" opacity="0">J4</text>
<g class="stroked-text"><desc>J4</desc>
<path d="M99.4120 109.3436
L99.4120 110.0579
" />
<path d="M99.4120 110.0579
L99.3644 110.2008
" />
<path d="M99.3644 110.2008
L99.2691 110.2960
" />
<path d="M99.2691 110.2960
L99.1263 110.3436
" />
<path d="M99.1263 110.3436
L99.0310 110.3436
" />
<path d="M100.3167 109.6770
L100.3167 110.3436
" />
<path d="M100.0786 109.2960
L99.8405 110.0103
" />
<path d="M99.8405 110.0103
L100.4596 110.0103
" />
</g><text x="112.7501" y="110.3862"
textLength="1.8143" font-size="1.3333" lengthAdjust="spacingAndGlyphs"
text-anchor="middle" opacity="0">J3</text>
<g class="stroked-text"><desc>J3</desc>
<path d="M112.4168 109.3436
L112.4168 110.0579
" />
<path d="M112.4168 110.0579
L112.3692 110.2008
" />
<path d="M112.3692 110.2008
L112.2739 110.2960
" />
<path d="M112.2739 110.2960
L112.1311 110.3436
" />
<path d="M112.1311 110.3436
L112.0358 110.3436
" />
<path d="M112.7977 109.3436
L113.4168 109.3436
" />
<path d="M113.4168 109.3436
L113.0834 109.7246
" />
<path d="M113.0834 109.7246
L113.2263 109.7246
" />
<path d="M113.2263 109.7246
L113.3215 109.7722
" />
<path d="M113.3215 109.7722
L113.3692 109.8198
" />
<path d="M113.3692 109.8198
L113.4168 109.9151
" />
<path d="M113.4168 109.9151
L113.4168 110.1531
" />
<path d="M113.4168 110.1531
L113.3692 110.2484
" />
<path d="M113.3692 110.2484
L113.3215 110.2960
" />
<path d="M113.3215 110.2960
L113.2263 110.3436
" />
<path d="M113.2263 110.3436
L112.9406 110.3436
" />
<path d="M112.9406 110.3436
L112.8453 110.2960
" />
<path d="M112.8453 110.2960
L112.7977 110.2484
" />
</g></g>
<g style="fill:#000000; fill-opacity:1.0000; stroke:none;">
<circle cx="89.7209" cy="123.6985" r="1.7018" /> 
</g>
<g style="fill:#000000; fill-opacity:1.0000; stroke:none;">
<circle cx="82.1775" cy="116.1551" r="1.7018" /> 
<path style="fill:#000000; fill-opacity:1.0000; stroke:none;fill-rule:evenodd;"
d="M 88.6253,120.1783
87.2783,121.5253
86.1468,120.3938
87.4938,119.0468
Z" /> 
</g>
<g style="fill:none; 
stroke:#000000; stroke-width:1.6002; stroke-opacity:1; 
stroke-linecap:round; stroke-linejoin:round;">
<path d="M85.4822 118.5978
L85.6978 118.3822
" />
</g>
<g style="fill:#000000; fill-opacity:1.0000; stroke:none;">
<circle cx="130.3000" cy="116.1600" r="1.7018" /> 
</g>
<g style="fill:#000000; fill-opacity:1.0000; stroke:none;">
<circle cx="122.7566" cy="123.7034" r="1.7018" /> 
<path style="fill:#000000; fill-opacity:1.0000; stroke:none;fill-rule:evenodd;"
d="M 126.7797,117.2556
128.1268,118.6026
126.9953,119.7341
125.6482,118.3871
Z" /> 
</g>
<g style="fill:none; 
stroke:#000000; stroke-width:1.6002; stroke-opacity:1; 
stroke-linecap:round; stroke-linejoin:round;">
<path d="M125.1992 120.3987
L124.9837 120.1832
" />
</g>
<g style="fill:#000000; fill-opacity:1.0000; stroke:none;">
<circle cx="99.7453" cy="110.3862" r="2.9845" /> 
</g>
<g style="fill:#000000; fill-opacity:1.0000; stroke:none;">
<circle cx="112.7501" cy="110.3862" r="2.9845" /> 
</g>
<g style="fill:none; 
stroke:#000000; stroke-width:0.1000; stroke-opacity:1; 
stroke-linecap:round; stroke-linejoin:round;">
<path d="M97.1395 123.6577 A3.1750 3.1750 0.0 0 0 94.8937 124.5877" />
<path d="M117.5892 124.5915 A3.1750 3.1750 0.0 0 0 115.3448 123.6615" />
<path d="M119.7517 126.7539 A3.1750 3.1750 0.0 0 0 124.2023 126.7928" />
<path d="M88.2813 126.7884 A3.1750 3.1750 0.0 0 0 92.7318 126.7496" />
<path d="M115.3448 123.6615
L97.1395 123.6577
" />
<path d="M132.6175 118.6664 A3.1750 3.1750 0.0 0 0 132.6570 114.1374" />
<path d="M79.8265 114.1330 A3.1750 3.1750 0.0 0 0 79.8661 118.6620" />
<path d="M119.7517 126.7539
L117.5892 124.5915
" />
<path d="M132.6175 118.6664
L124.2023 126.7928
" />
<path d="M132.3216 113.8020
L132.6570 114.1374
" />
<path d="M92.7318 126.7496
L94.8937 124.5877
" />
<path d="M122.9228 116.2963 A1.2699 1.2699 0.0 0 0 124.7182 116.3595" />
<path d="M127.4670 113.7962
L124.7182 116.3595
" />
<path d="M115.4563 108.2804
L122.9228 116.2963
" />
<path d="M87.7694 116.3696 A1.2701 1.2701 0.0 0 0 89.5556 116.2976" />
<path d="M115.4563 108.2804 A3.4290 3.4290 0.0 0 0 112.7497 106.9572" />
<path d="M80.1619 113.7976
L79.8265 114.1330
" />
<path d="M99.7282 106.9586 A3.4290 3.4290 0.0 0 0 97.0219 108.2819" />
<path d="M132.3163 113.7963 A3.4290 3.4290 0.0 0 0 127.4670 113.7962" />
<path d="M99.7282 106.9586
L112.7497 106.9572
" />
<path d="M79.8661 118.6620
L88.2812 126.7884
" />
<path d="M97.0219 108.2819
L89.5556 116.2976
" />
<path d="M85.0125 113.7987
L87.7694 116.3696
" />
<path d="M85.0125 113.7987 A3.4291 3.4291 0.0 0 0 80.1619 113.7976" />
</g> 
</svg>
