<?xml version="1.0" standalone="no"?>
 <!DOCTYPE svg PUBLIC "-//W3C//DTD SVG 1.1//EN" 
 "http://www.w3.org/Graphics/SVG/1.1/DTD/svg11.dtd"> 
<svg
  xmlns:svg="http://www.w3.org/2000/svg"
  xmlns="http://www.w3.org/2000/svg"
  xmlns:xlink="http://www.w3.org/1999/xlink"
  version="1.1"
  width="279.4000mm" height="215.9000mm" viewBox="0.0000 0.0000 279.4000 215.9000">
<title>SVG Image created as kraken-can-adapter-B_Silkscreen.svg date 2024/06/22 15:15:35 </title>
  <desc>Image generated by PCBNEW </desc>
<g style="fill:#000000; fill-opacity:1.0000;stroke:#000000; stroke-opacity:1.0000;
stroke-linecap:round; stroke-linejoin:round;"
 transform="translate(0 0) scale(1 1)">
</g>
<g style="fill:none; 
stroke:#000000; stroke-width:0.1200; stroke-opacity:1; 
stroke-linecap:round; stroke-linejoin:round;">
<path d="M193.7202 114.8081
L195.1918 116.2797
" />
<path d="M189.8036 121.6678
L188.3320 120.1962
" />
<path d="M188.3320 120.1962
L193.7202 114.8081
" />
<path style="fill:#000000; fill-opacity:1.0000; 
stroke:#000000; stroke-width:0.2000; stroke-opacity:1; 
stroke-linecap:round; stroke-linejoin:round;fill-rule:evenodd;"
d="M 193.9231,123.2729
195.0008,122.1952
193.9231,122.1952
Z" /> 
</g>
<g style="fill:none; 
stroke:#000000; stroke-width:0.1200; stroke-opacity:1; 
stroke-linecap:round; stroke-linejoin:round;">
<path d="M157.9905 120.2011
L156.5189 121.6727
" />
<path d="M152.6023 114.8130
L157.9905 120.2011
" />
<path d="M151.1307 116.2845
L152.6023 114.8130
" />
<path style="fill:#000000; fill-opacity:1.0000; 
stroke:#000000; stroke-width:0.2000; stroke-opacity:1; 
stroke-linecap:round; stroke-linejoin:round;fill-rule:evenodd;"
d="M 150.6471,121.4378
150.6471,120.3602
149.5695,120.3602
Z" /> 
</g>
<g style="fill:#000000; fill-opacity:1.0000; stroke:none;">
<circle cx="189.6791" cy="123.6985" r="1.7018" /> 
</g>
<g style="fill:#000000; fill-opacity:1.0000; stroke:none;">
<circle cx="197.2225" cy="116.1551" r="1.7018" /> 
<path style="fill:#000000; fill-opacity:1.0000; stroke:none;fill-rule:evenodd;"
d="M 190.7747,120.1783
192.1217,121.5253
193.2532,120.3938
191.9062,119.0468
Z" /> 
</g>
<g style="fill:none; 
stroke:#000000; stroke-width:1.6002; stroke-opacity:1; 
stroke-linecap:round; stroke-linejoin:round;">
<path d="M193.9178 118.5978
L193.7022 118.3822
" />
</g>
<g style="fill:#000000; fill-opacity:1.0000; stroke:none;">
<circle cx="149.1000" cy="116.1600" r="1.7018" /> 
</g>
<g style="fill:#000000; fill-opacity:1.0000; stroke:none;">
<circle cx="156.6434" cy="123.7034" r="1.7018" /> 
<path style="fill:#000000; fill-opacity:1.0000; stroke:none;fill-rule:evenodd;"
d="M 152.6203,117.2556
151.2732,118.6026
152.4047,119.7341
153.7518,118.3871
Z" /> 
</g>
<g style="fill:none; 
stroke:#000000; stroke-width:1.6002; stroke-opacity:1; 
stroke-linecap:round; stroke-linejoin:round;">
<path d="M154.2008 120.3987
L154.4163 120.1832
" />
</g>
<g style="fill:#000000; fill-opacity:1.0000; stroke:none;">
<circle cx="179.6547" cy="110.3862" r="2.9845" /> 
</g>
<g style="fill:#000000; fill-opacity:1.0000; stroke:none;">
<circle cx="166.6499" cy="110.3862" r="2.9845" /> 
</g>
<g style="fill:none; 
stroke:#000000; stroke-width:0.1000; stroke-opacity:1; 
stroke-linecap:round; stroke-linejoin:round;">
<path d="M184.5063 124.5877 A3.1750 3.1750 0.0 0 0 182.2605 123.6577" />
<path d="M164.0552 123.6615 A3.1750 3.1750 0.0 0 0 161.8108 124.5915" />
<path d="M155.1977 126.7928 A3.1750 3.1750 0.0 0 0 159.6483 126.7539" />
<path d="M186.6682 126.7496 A3.1750 3.1750 0.0 0 0 191.1187 126.7884" />
<path d="M164.0552 123.6615
L182.2605 123.6577
" />
<path d="M146.7430 114.1374 A3.1750 3.1750 0.0 0 0 146.7825 118.6664" />
<path d="M199.5339 118.6620 A3.1750 3.1750 0.0 0 0 199.5735 114.1330" />
<path d="M159.6483 126.7539
L161.8108 124.5915
" />
<path d="M146.7825 118.6664
L155.1977 126.7928
" />
<path d="M147.0784 113.8020
L146.7430 114.1374
" />
<path d="M186.6682 126.7496
L184.5063 124.5877
" />
<path d="M154.6818 116.3595 A1.2699 1.2699 0.0 0 0 156.4772 116.2963" />
<path d="M151.9330 113.7962
L154.6818 116.3595
" />
<path d="M163.9437 108.2804
L156.4772 116.2963
" />
<path d="M189.8444 116.2976 A1.2701 1.2701 0.0 0 0 191.6306 116.3696" />
<path d="M166.6503 106.9572 A3.4290 3.4290 0.0 0 0 163.9437 108.2804" />
<path d="M199.2381 113.7976
L199.5735 114.1330
" />
<path d="M182.3781 108.2819 A3.4290 3.4290 0.0 0 0 179.6718 106.9586" />
<path d="M151.9330 113.7962 A3.4290 3.4290 0.0 0 0 147.0837 113.7963" />
<path d="M179.6718 106.9586
L166.6503 106.9572
" />
<path d="M199.5339 118.6620
L191.1188 126.7884
" />
<path d="M182.3781 108.2819
L189.8444 116.2976
" />
<path d="M194.3875 113.7987
L191.6306 116.3696
" />
<path d="M199.2381 113.7976 A3.4291 3.4291 0.0 0 0 194.3875 113.7987" />
</g> 
</svg>
