<?xml version="1.0" standalone="no"?>
 <!DOCTYPE svg PUBLIC "-//W3C//DTD SVG 1.1//EN" 
 "http://www.w3.org/Graphics/SVG/1.1/DTD/svg11.dtd"> 
<svg
  xmlns:svg="http://www.w3.org/2000/svg"
  xmlns="http://www.w3.org/2000/svg"
  xmlns:xlink="http://www.w3.org/1999/xlink"
  version="1.1"
  width="297.0022mm" height="210.0072mm" viewBox="0.0000 0.0000 297.0022 210.0072">
<title>SVG Image created as kraken-power-adapter-F_Fab.svg date 2023/12/28 22:38:40 </title>
  <desc>Image generated by PCBNEW </desc>
<g style="fill:#000000; fill-opacity:1.0000;stroke:#000000; stroke-opacity:1.0000;
stroke-linecap:round; stroke-linejoin:round;"
 transform="translate(0 0) scale(1 1)">
</g>
<g style="fill:#000000; fill-opacity:0.0; 
stroke:#000000; stroke-width:0.0000; stroke-opacity:1; 
stroke-linecap:round; stroke-linejoin:round;">
</g>
<g style="fill:#000000; fill-opacity:0.0; 
stroke:#000000; stroke-width:0.0500; stroke-opacity:1; 
stroke-linecap:round; stroke-linejoin:round;">
<circle cx="91.9988" cy="105.0798" r="4.0447" /> 
<circle cx="120.4976" cy="105.0798" r="4.0447" /> 
<g >
</g>
<g >
</g>
<g >
</g>
<g >
</g>
<g >
</g>
<g >
</g>
<g >
</g>
<g >
</g>
</g>
<g style="fill:#000000; fill-opacity:0.0; 
stroke:#000000; stroke-width:0.0500; stroke-opacity:1; 
stroke-linecap:round; stroke-linejoin:round;">
</g>
<g style="fill:#000000; fill-opacity:0.0; 
stroke:#000000; stroke-width:0.1000; stroke-opacity:1; 
stroke-linecap:round; stroke-linejoin:round;">
<path d="M127.0254 102.2858 A1.2700 1.2700 0.0 0 0 125.7554 101.0158" />
<path d="M126.6207 114.6005
L116.6131 126.2058
" />
<path d="M86.7410 101.0158
L103.9622 101.0158
" />
<path d="M105.2322 105.9688 A0.6350 0.6350 0.0 0 0 105.8672 106.6038" />
<path d="M108.5342 101.0158 A1.2700 1.2700 0.0 0 0 107.2642 102.2858" />
<path d="M116.4590 133.1468
L116.4590 126.6205
" />
<path d="M96.3930 133.1468 A1.2700 1.2700 0.0 0 0 97.6630 134.4168" />
<path d="M97.6630 134.4168
L115.1890 134.4168
" />
<path d="M126.6207 114.6005 A1.2700 1.2700 0.0 0 0 127.0254 113.6709" />
<path d="M105.2322 102.2858 A1.2700 1.2700 0.0 0 0 103.9622 101.0158" />
<path d="M86.7410 101.0158 A1.2700 1.2700 0.0 0 0 85.4710 102.2858" />
<path d="M106.6292 106.6038 A0.6350 0.6350 0.0 0 0 107.2642 105.9688" />
<path d="M85.4710 113.6603 A1.2701 1.2701 0.0 0 0 85.8888 114.6019" />
<path d="M85.4710 102.2858
L85.4710 113.6603
" />
<path d="M116.6131 126.2058 A0.6350 0.6350 0.0 0 0 116.4590 126.6205" />
<path d="M115.1890 134.4168 A1.2700 1.2700 0.0 0 0 116.4590 133.1468" />
<path d="M108.5342 101.0158
L125.7554 101.0158
" />
<path d="M96.3930 133.1468
L96.3930 126.6369
" />
<path d="M85.8888 114.6019
L96.2322 126.2146
" />
<path d="M107.2642 102.2858
L107.2642 105.9688
" />
<path d="M96.3930 126.6369 A0.6351 0.6351 0.0 0 0 96.2322 126.2146" />
<path d="M105.2322 102.2858
L105.2322 105.9688
" />
<path d="M127.0254 102.2858
L127.0254 113.6709
" />
<path d="M105.8672 106.6038
L106.6292 106.6038
" />
<g >
</g>
<g >
</g>
<g >
</g>
<g >
</g>
<g >
</g>
<g >
</g>
<g >
</g>
<g >
</g>
</g> 
</svg>
