  0
SECTION
  2
HEADER
  9
$ANGBASE
  50
0.0
  9
$ANGDIR
  70
1
  9
$MEASUREMENT
  70
0
  0
ENDSEC
  0
SECTION
  2
TABLES
  0
TABLE
  2
LTYPE
  70
4
  0
LTYPE
  5
40F
  2
CONTINUOUS
  70
0
  3
Solid line
  72
65
  73
0
  40
0.0
  0
LTYPE
  5
410
  2
DASHDOT
 70
0
  3
Dash Dot ____ _ ____ _
 72
65
 73
4
 40
2.0
 49
1.25
 49
-0.25
 49
0.25
 49
-0.25
  0
LTYPE
  5
411
  2
DASHED
 70
0
  3
Dashed __ __ __ __ __
 72
65
 73
2
 40
0.75
 49
0.5
 49
-0.25
  0
LTYPE
  5
43B
  2
DOTTED
 70
0
  3
Dotted .  .  .  .
 72
65
 73
2
 40
0.2
 49
0.0
 49
-0.2
  0
ENDTAB
  0
TABLE
  2
STYLE
  70
4
  0
STYLE
  2
KICAD
  70
0
  40
0
  41
1
  42
1
  50
0
  71
0
  3
isocp.shx
  0
STYLE
  2
KICADB
  70
0
  40
0
  41
1
  42
1
  50
0
  71
0
  3
isocp.shx
  0
STYLE
  2
KICADI
  70
0
  40
0
  41
1
  42
1
  50
15
  71
0
  3
isocp.shx
  0
STYLE
  2
KICADBI
  70
0
  40
0
  41
1
  42
1
  50
15
  71
0
  3
isocp.shx
  0
ENDTAB
  0
TABLE
  2
LAYER
  70
1
  0
LAYER
  2
BLACK
  70
0
  62
7
  6
CONTINUOUS
  0
ENDTAB
  0
ENDSEC
  0
SECTION
  2
ENTITIES
0
ARC
8
BLACK
10
4.9509999999999996
20
-4.0119999999999996
40
0.05
50
-0.00000000
51
90.00000000
0
LINE
8
BLACK
6
CONTINUOUS
10
4.9850654330708659
20
-4.5118311811023624
11
4.5910671653543309
21
-4.9687328346456692
0
LINE
8
BLACK
6
CONTINUOUS
10
3.415
20
-3.9619999999999997
11
4.0629999999999997
21
-3.9619999999999997
0
ARC
8
BLACK
10
4.1379999999999999
20
-4.1719999999999997
40
0.025
50
-180.00000000
51
-90.00000000
0
ARC
8
BLACK
10
4.3029999999999999
20
-4.0119999999999996
40
0.05
50
90.00000000
51
180.00000000
0
LINE
8
BLACK
6
CONTINUOUS
10
4.585
20
-5.242
11
4.585
21
-4.9850591338582673
0
ARC
8
BLACK
10
3.8449999999999998
20
-5.242
40
0.05
50
-180.00000000
51
-90.00000000
0
LINE
8
BLACK
6
CONTINUOUS
10
3.8449999999999998
20
-5.2919999999999998
11
4.5350000000000001
21
-5.2919999999999998
0
ARC
8
BLACK
10
4.9510003149606296
20
-4.4752314960629924
40
0.0499996651893456
50
-47.05417574
51
0.00020152
0
ARC
8
BLACK
10
4.0629999999999997
20
-4.0119999999999996
40
0.05
50
-0.00000000
51
90.00000000
0
ARC
8
BLACK
10
3.415
20
-4.0119999999999996
40
0.05
50
90.00000000
51
180.00000000
0
ARC
8
BLACK
10
4.2279999999999998
20
-4.1719999999999997
40
0.025
50
-90.00000000
51
-0.00000000
0
ARC
8
BLACK
10
3.4150042125984252
20
-4.4748116535433073
40
0.0500042293931092
50
-179.99782270
51
-132.14565162
0
LINE
8
BLACK
6
CONTINUOUS
10
3.3649999999999998
20
-4.0119999999999996
11
3.3649999999999998
21
-4.4748135826771653
0
ARC
8
BLACK
10
4.6099999606299216
20
-4.9850590944881885
40
0.0249999770263147
50
-220.77209861
51
-179.99996122
0
ARC
8
BLACK
10
4.5350000000000001
20
-5.242
40
0.05
50
-90.00000000
51
-0.00000000
0
LINE
8
BLACK
6
CONTINUOUS
10
4.3029999999999999
20
-3.9619999999999997
11
4.9509999999999996
21
-3.9619999999999997
0
LINE
8
BLACK
6
CONTINUOUS
10
3.7949999999999999
20
-5.242
11
3.7949999999999999
21
-4.9857058267716532
0
LINE
8
BLACK
6
CONTINUOUS
10
3.3814505118110234
20
-4.5118868897637796
11
3.7886684645669289
21
-4.9690779133858269
0
LINE
8
BLACK
6
CONTINUOUS
10
4.2530000000000001
20
-4.0119999999999996
11
4.2530000000000001
21
-4.1719999999999997
0
ARC
8
BLACK
10
3.7699955905511811
20
-4.9857074803149608
40
0.0250043719337237
50
0.00387846
51
41.68753730
0
LINE
8
BLACK
6
CONTINUOUS
10
4.1129999999999995
20
-4.0119999999999996
11
4.1129999999999995
21
-4.1719999999999997
0
LINE
8
BLACK
6
CONTINUOUS
10
5.0009999999999994
20
-4.0119999999999996
11
5.0009999999999994
21
-4.4752313385826774
0
LINE
8
BLACK
6
CONTINUOUS
10
4.1379999999999999
20
-4.1970000000000001
11
4.2279999999999998
21
-4.1970000000000001
0
LINE
8
BLACK
6
CONTINUOUS
10
3.4975000000000001
20
-4.1245000000000003
11
3.5225
21
-4.1494999999999997
0
LINE
8
BLACK
6
CONTINUOUS
10
3.5225
20
-4.1245000000000003
11
3.4975000000000001
21
-4.1494999999999997
0
LINE
8
BLACK
6
CONTINUOUS
10
3.5303040551181102
20
-4.0453040551181099
11
3.5553040551181101
21
-4.0703040551181102
0
LINE
8
BLACK
6
CONTINUOUS
10
3.5553040551181101
20
-4.0453040551181099
11
3.5303040551181102
21
-4.0703040551181102
0
LINE
8
BLACK
6
CONTINUOUS
10
3.5303040551181102
20
-4.2036959448818898
11
3.5553040551181101
21
-4.2286959448818893
0
LINE
8
BLACK
6
CONTINUOUS
10
3.5553040551181101
20
-4.2036959448818898
11
3.5303040551181102
21
-4.2286959448818893
0
LINE
8
BLACK
6
CONTINUOUS
10
3.6094999999999997
20
-4.0125000000000002
11
3.6345000000000001
21
-4.0374999999999996
0
LINE
8
BLACK
6
CONTINUOUS
10
3.6345000000000001
20
-4.0125000000000002
11
3.6094999999999997
21
-4.0374999999999996
0
LINE
8
BLACK
6
CONTINUOUS
10
3.6094999999999997
20
-4.2364999999999995
11
3.6345000000000001
21
-4.2614999999999998
0
LINE
8
BLACK
6
CONTINUOUS
10
3.6345000000000001
20
-4.2364999999999995
11
3.6094999999999997
21
-4.2614999999999998
0
LINE
8
BLACK
6
CONTINUOUS
10
3.6886959448818897
20
-4.0453040551181099
11
3.7136959448818896
21
-4.0703040551181102
0
LINE
8
BLACK
6
CONTINUOUS
10
3.7136959448818896
20
-4.0453040551181099
11
3.6886959448818897
21
-4.0703040551181102
0
LINE
8
BLACK
6
CONTINUOUS
10
3.6886959448818897
20
-4.2036959448818898
11
3.7136959448818896
21
-4.2286959448818893
0
LINE
8
BLACK
6
CONTINUOUS
10
3.7136959448818896
20
-4.2036959448818898
11
3.6886959448818897
21
-4.2286959448818893
0
LINE
8
BLACK
6
CONTINUOUS
10
3.7214999999999998
20
-4.1245000000000003
11
3.7464999999999997
21
-4.1494999999999997
0
LINE
8
BLACK
6
CONTINUOUS
10
3.7464999999999997
20
-4.1245000000000003
11
3.7214999999999998
21
-4.1494999999999997
0
LINE
8
BLACK
6
CONTINUOUS
10
3.9312795275590551
20
-5.1045078740157477
11
3.956279527559055
21
-5.129507874015748
0
LINE
8
BLACK
6
CONTINUOUS
10
3.956279527559055
20
-5.1045078740157477
11
3.9312795275590551
21
-5.129507874015748
0
LINE
8
BLACK
6
CONTINUOUS
10
3.9312795275590551
20
-5.2304921259842523
11
3.956279527559055
21
-5.2554921259842518
0
LINE
8
BLACK
6
CONTINUOUS
10
3.956279527559055
20
-5.2304921259842523
11
3.9312795275590551
21
-5.2554921259842518
0
LINE
8
BLACK
6
CONTINUOUS
10
3.9863976377952755
20
-5.1045078740157477
11
4.0113976377952758
21
-5.129507874015748
0
LINE
8
BLACK
6
CONTINUOUS
10
4.0113976377952758
20
-5.1045078740157477
11
3.9863976377952755
21
-5.129507874015748
0
LINE
8
BLACK
6
CONTINUOUS
10
3.9863976377952755
20
-5.2304921259842523
11
4.0113976377952758
21
-5.2554921259842518
0
LINE
8
BLACK
6
CONTINUOUS
10
4.0113976377952758
20
-5.2304921259842523
11
3.9863976377952755
21
-5.2554921259842518
0
LINE
8
BLACK
6
CONTINUOUS
10
4.0415157480314958
20
-5.1045078740157477
11
4.0665157480314962
21
-5.129507874015748
0
LINE
8
BLACK
6
CONTINUOUS
10
4.0665157480314962
20
-5.1045078740157477
11
4.0415157480314958
21
-5.129507874015748
0
LINE
8
BLACK
6
CONTINUOUS
10
4.0415157480314958
20
-5.2304921259842523
11
4.0665157480314962
21
-5.2554921259842518
0
LINE
8
BLACK
6
CONTINUOUS
10
4.0665157480314962
20
-5.2304921259842523
11
4.0415157480314958
21
-5.2554921259842518
0
LINE
8
BLACK
6
CONTINUOUS
10
4.0966338582677162
20
-5.1045078740157477
11
4.1216338582677166
21
-5.129507874015748
0
LINE
8
BLACK
6
CONTINUOUS
10
4.1216338582677166
20
-5.1045078740157477
11
4.0966338582677162
21
-5.129507874015748
0
LINE
8
BLACK
6
CONTINUOUS
10
4.0966338582677162
20
-5.2304921259842523
11
4.1216338582677166
21
-5.2554921259842518
0
LINE
8
BLACK
6
CONTINUOUS
10
4.1216338582677166
20
-5.2304921259842523
11
4.0966338582677162
21
-5.2554921259842518
0
LINE
8
BLACK
6
CONTINUOUS
10
4.2383661417322838
20
-5.1045078740157477
11
4.2633661417322832
21
-5.129507874015748
0
LINE
8
BLACK
6
CONTINUOUS
10
4.2633661417322832
20
-5.1045078740157477
11
4.2383661417322838
21
-5.129507874015748
0
LINE
8
BLACK
6
CONTINUOUS
10
4.2383661417322838
20
-5.2304921259842523
11
4.2633661417322832
21
-5.2554921259842518
0
LINE
8
BLACK
6
CONTINUOUS
10
4.2633661417322832
20
-5.2304921259842523
11
4.2383661417322838
21
-5.2554921259842518
0
LINE
8
BLACK
6
CONTINUOUS
10
4.2934842519685041
20
-5.1045078740157477
11
4.3184842519685036
21
-5.129507874015748
0
LINE
8
BLACK
6
CONTINUOUS
10
4.3184842519685036
20
-5.1045078740157477
11
4.2934842519685041
21
-5.129507874015748
0
LINE
8
BLACK
6
CONTINUOUS
10
4.2934842519685041
20
-5.2304921259842523
11
4.3184842519685036
21
-5.2554921259842518
0
LINE
8
BLACK
6
CONTINUOUS
10
4.3184842519685036
20
-5.2304921259842523
11
4.2934842519685041
21
-5.2554921259842518
0
LINE
8
BLACK
6
CONTINUOUS
10
4.3486023622047245
20
-5.1045078740157477
11
4.373602362204724
21
-5.129507874015748
0
LINE
8
BLACK
6
CONTINUOUS
10
4.373602362204724
20
-5.1045078740157477
11
4.3486023622047245
21
-5.129507874015748
0
LINE
8
BLACK
6
CONTINUOUS
10
4.3486023622047245
20
-5.2304921259842523
11
4.373602362204724
21
-5.2554921259842518
0
LINE
8
BLACK
6
CONTINUOUS
10
4.373602362204724
20
-5.2304921259842523
11
4.3486023622047245
21
-5.2554921259842518
0
LINE
8
BLACK
6
CONTINUOUS
10
4.4037204724409449
20
-5.1045078740157477
11
4.4287204724409444
21
-5.129507874015748
0
LINE
8
BLACK
6
CONTINUOUS
10
4.4287204724409444
20
-5.1045078740157477
11
4.4037204724409449
21
-5.129507874015748
0
LINE
8
BLACK
6
CONTINUOUS
10
4.4037204724409449
20
-5.2304921259842523
11
4.4287204724409444
21
-5.2554921259842518
0
LINE
8
BLACK
6
CONTINUOUS
10
4.4287204724409444
20
-5.2304921259842523
11
4.4037204724409449
21
-5.2554921259842518
0
LINE
8
BLACK
6
CONTINUOUS
10
4.6194999999999995
20
-4.1245000000000003
11
4.6444999999999999
21
-4.1494999999999997
0
LINE
8
BLACK
6
CONTINUOUS
10
4.6444999999999999
20
-4.1245000000000003
11
4.6194999999999995
21
-4.1494999999999997
0
LINE
8
BLACK
6
CONTINUOUS
10
4.6523040551181101
20
-4.0453040551181099
11
4.6773040551181104
21
-4.0703040551181102
0
LINE
8
BLACK
6
CONTINUOUS
10
4.6773040551181104
20
-4.0453040551181099
11
4.6523040551181101
21
-4.0703040551181102
0
LINE
8
BLACK
6
CONTINUOUS
10
4.6523040551181101
20
-4.2036959448818898
11
4.6773040551181104
21
-4.2286959448818893
0
LINE
8
BLACK
6
CONTINUOUS
10
4.6773040551181104
20
-4.2036959448818898
11
4.6523040551181101
21
-4.2286959448818893
0
LINE
8
BLACK
6
CONTINUOUS
10
4.7314999999999996
20
-4.0125000000000002
11
4.7565
21
-4.0374999999999996
0
LINE
8
BLACK
6
CONTINUOUS
10
4.7565
20
-4.0125000000000002
11
4.7314999999999996
21
-4.0374999999999996
0
LINE
8
BLACK
6
CONTINUOUS
10
4.7314999999999996
20
-4.2364999999999995
11
4.7565
21
-4.2614999999999998
0
LINE
8
BLACK
6
CONTINUOUS
10
4.7565
20
-4.2364999999999995
11
4.7314999999999996
21
-4.2614999999999998
0
LINE
8
BLACK
6
CONTINUOUS
10
4.81069594488189
20
-4.0453040551181099
11
4.8356959448818895
21
-4.0703040551181102
0
LINE
8
BLACK
6
CONTINUOUS
10
4.8356959448818895
20
-4.0453040551181099
11
4.81069594488189
21
-4.0703040551181102
0
LINE
8
BLACK
6
CONTINUOUS
10
4.81069594488189
20
-4.2036959448818898
11
4.8356959448818895
21
-4.2286959448818893
0
LINE
8
BLACK
6
CONTINUOUS
10
4.8356959448818895
20
-4.2036959448818898
11
4.81069594488189
21
-4.2286959448818893
0
LINE
8
BLACK
6
CONTINUOUS
10
4.8434999999999997
20
-4.1245000000000003
11
4.8685
21
-4.1494999999999997
0
LINE
8
BLACK
6
CONTINUOUS
10
4.8685
20
-4.1245000000000003
11
4.8434999999999997
21
-4.1494999999999997
0
CIRCLE
8
BLACK
10
4.0249999999999995
20
-5.1799999999999997
40
0.025
0
LINE
8
BLACK
6
CONTINUOUS
10
3.9470000000000001
20
-5.2050000000000001
11
4.1029999999999998
21
-5.2050000000000001
0
ARC
8
BLACK
10
4.1029999999999998
20
-5.1799999999999997
40
0.025
50
270.00000000
51
450.00000000
0
LINE
8
BLACK
6
CONTINUOUS
10
4.1029999999999998
20
-5.1550000000000002
11
3.9470000000000001
21
-5.1550000000000002
0
ARC
8
BLACK
10
3.9470000000000001
20
-5.1799999999999997
40
0.025
50
90.00000000
51
270.00000000
0
CIRCLE
8
BLACK
10
4.335
20
-5.1799999999999997
40
0.025
0
LINE
8
BLACK
6
CONTINUOUS
10
4.2569999999999997
20
-5.2050000000000001
11
4.4130000000000003
21
-5.2050000000000001
0
ARC
8
BLACK
10
4.4130000000000003
20
-5.1799999999999997
40
0.025
50
270.00000000
51
450.00000000
0
LINE
8
BLACK
6
CONTINUOUS
10
4.4130000000000003
20
-5.1550000000000002
11
4.2569999999999997
21
-5.1550000000000002
0
ARC
8
BLACK
10
4.2569999999999997
20
-5.1799999999999997
40
0.025
50
90.00000000
51
270.00000000
0
LINE
8
BLACK
6
CONTINUOUS
10
3.6219999999999999
20
-4.0649999999999995
11
3.6219999999999999
21
-4.2089999999999996
0
LINE
8
BLACK
6
CONTINUOUS
10
3.5499999999999998
20
-4.1369999999999996
11
3.694
21
-4.1369999999999996
0
LINE
8
BLACK
6
CONTINUOUS
10
4.7439999999999998
20
-4.0649999999999995
11
4.7439999999999998
21
-4.2089999999999996
0
LINE
8
BLACK
6
CONTINUOUS
10
4.6719999999999997
20
-4.1369999999999996
11
4.8159999999999998
21
-4.1369999999999996
0
LINE
8
BLACK
6
CONTINUOUS
10
3.9965977952755907
20
-4.4155977952755903
11
3.9965977952755907
21
-4.276402204724409
0
LINE
8
BLACK
6
CONTINUOUS
10
3.9965977952755907
20
-4.276402204724409
11
3.8574022047244094
21
-4.276402204724409
0
LINE
8
BLACK
6
CONTINUOUS
10
3.8574022047244094
20
-4.276402204724409
11
3.8574022047244094
21
-4.4155977952755903
0
LINE
8
BLACK
6
CONTINUOUS
10
3.8574022047244094
20
-4.4155977952755903
11
3.9965977952755907
21
-4.4155977952755903
0
LINE
8
BLACK
6
CONTINUOUS
10
4.5085977952755902
20
-4.4145977952755908
11
4.5085977952755902
21
-4.2754022047244096
0
LINE
8
BLACK
6
CONTINUOUS
10
4.5085977952755902
20
-4.2754022047244096
11
4.369402204724409
21
-4.2754022047244096
0
LINE
8
BLACK
6
CONTINUOUS
10
4.369402204724409
20
-4.2754022047244096
11
4.369402204724409
21
-4.4145977952755908
0
LINE
8
BLACK
6
CONTINUOUS
10
4.369402204724409
20
-4.4145977952755908
11
4.5085977952755902
21
-4.4145977952755908
0
LINE
8
BLACK
6
CONTINUOUS
10
3.465699527559055
20
-5.4165999212598424
11
3.465699527559055
21
-5.3378597637795275
0
LINE
8
BLACK
6
CONTINUOUS
10
3.465699527559055
20
-5.3378597637795275
11
3.4844471653543305
21
-5.3378597637795275
0
LINE
8
BLACK
6
CONTINUOUS
10
3.4844471653543305
20
-5.3378597637795275
11
3.4956957874015746
21
-5.3416092913385826
0
LINE
8
BLACK
6
CONTINUOUS
10
3.4956957874015746
20
-5.3416092913385826
11
3.5031948425196848
21
-5.3491083464566929
0
LINE
8
BLACK
6
CONTINUOUS
10
3.5031948425196848
20
-5.3491083464566929
11
3.5069443700787399
21
-5.3566074015748031
0
LINE
8
BLACK
6
CONTINUOUS
10
3.5069443700787399
20
-5.3566074015748031
11
3.510693897637795
21
-5.3716055118110235
0
LINE
8
BLACK
6
CONTINUOUS
10
3.510693897637795
20
-5.3716055118110235
11
3.510693897637795
21
-5.3828541338582676
0
LINE
8
BLACK
6
CONTINUOUS
10
3.510693897637795
20
-5.3828541338582676
11
3.5069443700787399
21
-5.3978522440944881
0
LINE
8
BLACK
6
CONTINUOUS
10
3.5069443700787399
20
-5.3978522440944881
11
3.5031948425196848
21
-5.4053512992125983
0
LINE
8
BLACK
6
CONTINUOUS
10
3.5031948425196848
20
-5.4053512992125983
11
3.4956957874015746
21
-5.4128503937007872
0
LINE
8
BLACK
6
CONTINUOUS
10
3.4956957874015746
20
-5.4128503937007872
11
3.4844471653543305
21
-5.4165999212598424
0
LINE
8
BLACK
6
CONTINUOUS
10
3.4844471653543305
20
-5.4165999212598424
11
3.465699527559055
21
-5.4165999212598424
0
LINE
8
BLACK
6
CONTINUOUS
10
3.5444396850393698
20
-5.4165999212598424
11
3.5444396850393698
21
-5.3641064566929133
0
LINE
8
BLACK
6
CONTINUOUS
10
3.5444396850393698
20
-5.3791046062992125
11
3.5481892125984249
21
-5.3716055118110235
0
LINE
8
BLACK
6
CONTINUOUS
10
3.5481892125984249
20
-5.3716055118110235
11
3.55193874015748
21
-5.3678559842519684
0
LINE
8
BLACK
6
CONTINUOUS
10
3.55193874015748
20
-5.3678559842519684
11
3.5594377952755907
21
-5.3641064566929133
0
LINE
8
BLACK
6
CONTINUOUS
10
3.5594377952755907
20
-5.3641064566929133
11
3.5669368897637797
21
-5.3641064566929133
0
LINE
8
BLACK
6
CONTINUOUS
10
3.5931835826771654
20
-5.4165999212598424
11
3.5931835826771654
21
-5.3641064566929133
0
LINE
8
BLACK
6
CONTINUOUS
10
3.5931835826771654
20
-5.3378597637795275
11
3.5894340551181103
21
-5.3416092913385826
0
LINE
8
BLACK
6
CONTINUOUS
10
3.5894340551181103
20
-5.3416092913385826
11
3.5931835826771654
21
-5.3453588188976378
0
LINE
8
BLACK
6
CONTINUOUS
10
3.5931835826771654
20
-5.3453588188976378
11
3.5969331102362205
21
-5.3416092913385826
0
LINE
8
BLACK
6
CONTINUOUS
10
3.5969331102362205
20
-5.3416092913385826
11
3.5931835826771654
21
-5.3378597637795275
0
LINE
8
BLACK
6
CONTINUOUS
10
3.5931835826771654
20
-5.3378597637795275
11
3.5931835826771654
21
-5.3453588188976378
0
LINE
8
BLACK
6
CONTINUOUS
10
3.6419274803149606
20
-5.4165999212598424
11
3.6344284251968504
21
-5.4128503937007872
0
LINE
8
BLACK
6
CONTINUOUS
10
3.6344284251968504
20
-5.4128503937007872
11
3.6306788976377953
21
-5.4053512992125983
0
LINE
8
BLACK
6
CONTINUOUS
10
3.6306788976377953
20
-5.4053512992125983
11
3.6306788976377953
21
-5.3378597637795275
0
LINE
8
BLACK
6
CONTINUOUS
10
3.6831723228346456
20
-5.4165999212598424
11
3.6756732677165354
21
-5.4128503937007872
0
LINE
8
BLACK
6
CONTINUOUS
10
3.6756732677165354
20
-5.4128503937007872
11
3.6719237401574802
21
-5.4053512992125983
0
LINE
8
BLACK
6
CONTINUOUS
10
3.6719237401574802
20
-5.4053512992125983
11
3.6719237401574802
21
-5.3378597637795275
0
LINE
8
BLACK
6
CONTINUOUS
10
3.7731611023622045
20
-5.4165999212598424
11
3.7731611023622045
21
-5.3378597637795275
0
LINE
8
BLACK
6
CONTINUOUS
10
3.7731611023622045
20
-5.3378597637795275
11
3.799407834645669
21
-5.3941027165354329
0
LINE
8
BLACK
6
CONTINUOUS
10
3.799407834645669
20
-5.3941027165354329
11
3.8256545275590552
21
-5.3378597637795275
0
LINE
8
BLACK
6
CONTINUOUS
10
3.8256545275590552
20
-5.3378597637795275
11
3.8256545275590552
21
-5.4165999212598424
0
LINE
8
BLACK
6
CONTINUOUS
10
3.8968956299212598
20
-5.4165999212598424
11
3.8968956299212598
21
-5.3753550787401574
0
LINE
8
BLACK
6
CONTINUOUS
10
3.8968956299212598
20
-5.3753550787401574
11
3.8931461023622047
21
-5.3678559842519684
0
LINE
8
BLACK
6
CONTINUOUS
10
3.8931461023622047
20
-5.3678559842519684
11
3.8856470472440945
21
-5.3641064566929133
0
LINE
8
BLACK
6
CONTINUOUS
10
3.8856470472440945
20
-5.3641064566929133
11
3.8706488976377953
21
-5.3641064566929133
0
LINE
8
BLACK
6
CONTINUOUS
10
3.8706488976377953
20
-5.3641064566929133
11
3.8631498425196851
21
-5.3678559842519684
0
LINE
8
BLACK
6
CONTINUOUS
10
3.8968956299212598
20
-5.4128503937007872
11
3.8893965748031496
21
-5.4165999212598424
0
LINE
8
BLACK
6
CONTINUOUS
10
3.8893965748031496
20
-5.4165999212598424
11
3.8706488976377953
21
-5.4165999212598424
0
LINE
8
BLACK
6
CONTINUOUS
10
3.8706488976377953
20
-5.4165999212598424
11
3.8631498425196851
21
-5.4128503937007872
0
LINE
8
BLACK
6
CONTINUOUS
10
3.8631498425196851
20
-5.4128503937007872
11
3.85940031496063
21
-5.4053512992125983
0
LINE
8
BLACK
6
CONTINUOUS
10
3.85940031496063
20
-5.4053512992125983
11
3.85940031496063
21
-5.3978522440944881
0
LINE
8
BLACK
6
CONTINUOUS
10
3.85940031496063
20
-5.3978522440944881
11
3.8631498425196851
21
-5.3903531889763778
0
LINE
8
BLACK
6
CONTINUOUS
10
3.8631498425196851
20
-5.3903531889763778
11
3.8706488976377953
21
-5.3866036614173227
0
LINE
8
BLACK
6
CONTINUOUS
10
3.8706488976377953
20
-5.3866036614173227
11
3.8893965748031496
21
-5.3866036614173227
0
LINE
8
BLACK
6
CONTINUOUS
10
3.8893965748031496
20
-5.3866036614173227
11
3.8968956299212598
21
-5.3828541338582676
0
LINE
8
BLACK
6
CONTINUOUS
10
3.9343909448818897
20
-5.3641064566929133
11
3.9343909448818897
21
-5.4428466141732281
0
LINE
8
BLACK
6
CONTINUOUS
10
3.9343909448818897
20
-5.3678559842519684
11
3.9418899999999999
21
-5.3641064566929133
0
LINE
8
BLACK
6
CONTINUOUS
10
3.9418899999999999
20
-5.3641064566929133
11
3.9568881496062991
21
-5.3641064566929133
0
LINE
8
BLACK
6
CONTINUOUS
10
3.9568881496062991
20
-5.3641064566929133
11
3.9643872047244093
21
-5.3678559842519684
0
LINE
8
BLACK
6
CONTINUOUS
10
3.9643872047244093
20
-5.3678559842519684
11
3.9681367322834644
21
-5.3716055118110235
0
LINE
8
BLACK
6
CONTINUOUS
10
3.9681367322834644
20
-5.3716055118110235
11
3.9718862598425195
21
-5.3791046062992125
0
LINE
8
BLACK
6
CONTINUOUS
10
3.9718862598425195
20
-5.3791046062992125
11
3.9718862598425195
21
-5.4016017716535432
0
LINE
8
BLACK
6
CONTINUOUS
10
3.9718862598425195
20
-5.4016017716535432
11
3.9681367322834644
21
-5.4091008267716534
0
LINE
8
BLACK
6
CONTINUOUS
10
3.9681367322834644
20
-5.4091008267716534
11
3.9643872047244093
21
-5.4128503937007872
0
LINE
8
BLACK
6
CONTINUOUS
10
3.9643872047244093
20
-5.4128503937007872
11
3.9568881496062991
21
-5.4165999212598424
0
LINE
8
BLACK
6
CONTINUOUS
10
3.9568881496062991
20
-5.4165999212598424
11
3.9418899999999999
21
-5.4165999212598424
0
LINE
8
BLACK
6
CONTINUOUS
10
3.9418899999999999
20
-5.4165999212598424
11
3.9343909448818897
21
-5.4128503937007872
0
LINE
8
BLACK
6
CONTINUOUS
10
4.0056320472440943
20
-5.4091008267716534
11
4.0093815748031494
21
-5.4128503937007872
0
LINE
8
BLACK
6
CONTINUOUS
10
4.0093815748031494
20
-5.4128503937007872
11
4.0056320472440943
21
-5.4165999212598424
0
LINE
8
BLACK
6
CONTINUOUS
10
4.0056320472440943
20
-5.4165999212598424
11
4.0018825196850392
21
-5.4128503937007872
0
LINE
8
BLACK
6
CONTINUOUS
10
4.0018825196850392
20
-5.4128503937007872
11
4.0056320472440943
21
-5.4091008267716534
0
LINE
8
BLACK
6
CONTINUOUS
10
4.0056320472440943
20
-5.4091008267716534
11
4.0056320472440943
21
-5.4165999212598424
0
LINE
8
BLACK
6
CONTINUOUS
10
4.0056320472440943
20
-5.3678559842519684
11
4.0093815748031494
21
-5.3716055118110235
0
LINE
8
BLACK
6
CONTINUOUS
10
4.0093815748031494
20
-5.3716055118110235
11
4.0056320472440943
21
-5.3753550787401574
0
LINE
8
BLACK
6
CONTINUOUS
10
4.0056320472440943
20
-5.3753550787401574
11
4.0018825196850392
21
-5.3716055118110235
0
LINE
8
BLACK
6
CONTINUOUS
10
4.0018825196850392
20
-5.3716055118110235
11
4.0056320472440943
21
-5.3678559842519684
0
LINE
8
BLACK
6
CONTINUOUS
10
4.0056320472440943
20
-5.3678559842519684
11
4.0056320472440943
21
-5.3753550787401574
0
LINE
8
BLACK
6
CONTINUOUS
10
3.338031496062992
20
-5.5334370078740154
11
3.3630314960629919
21
-5.5584370078740157
0
LINE
8
BLACK
6
CONTINUOUS
10
3.3630314960629919
20
-5.5334370078740154
11
3.338031496062992
21
-5.5584370078740157
0
LINE
8
BLACK
6
CONTINUOUS
10
3.4806976377952754
20
-5.5032140944881887
11
3.4881967322834644
21
-5.5032140944881887
0
LINE
8
BLACK
6
CONTINUOUS
10
3.4881967322834644
20
-5.5032140944881887
11
3.4956957874015746
21
-5.5069636220472438
0
LINE
8
BLACK
6
CONTINUOUS
10
3.4956957874015746
20
-5.5069636220472438
11
3.4994453149606297
21
-5.5107131496062989
0
LINE
8
BLACK
6
CONTINUOUS
10
3.4994453149606297
20
-5.5107131496062989
11
3.5031948425196848
21
-5.5182122047244091
0
LINE
8
BLACK
6
CONTINUOUS
10
3.5031948425196848
20
-5.5182122047244091
11
3.5069443700787399
21
-5.5332103149606295
0
LINE
8
BLACK
6
CONTINUOUS
10
3.5069443700787399
20
-5.5332103149606295
11
3.5069443700787399
21
-5.5519579921259838
0
LINE
8
BLACK
6
CONTINUOUS
10
3.5069443700787399
20
-5.5519579921259838
11
3.5031948425196848
21
-5.5669561023622043
0
LINE
8
BLACK
6
CONTINUOUS
10
3.5031948425196848
20
-5.5669561023622043
11
3.4994453149606297
21
-5.5744551574803145
0
LINE
8
BLACK
6
CONTINUOUS
10
3.4994453149606297
20
-5.5744551574803145
11
3.4956957874015746
21
-5.5782047244094484
0
LINE
8
BLACK
6
CONTINUOUS
10
3.4956957874015746
20
-5.5782047244094484
11
3.4881967322834644
21
-5.5819542519685035
0
LINE
8
BLACK
6
CONTINUOUS
10
3.4881967322834644
20
-5.5819542519685035
11
3.4806976377952754
21
-5.5819542519685035
0
LINE
8
BLACK
6
CONTINUOUS
10
3.4806976377952754
20
-5.5819542519685035
11
3.4731985826771652
21
-5.5782047244094484
0
LINE
8
BLACK
6
CONTINUOUS
10
3.4731985826771652
20
-5.5782047244094484
11
3.4694490551181101
21
-5.5744551574803145
0
LINE
8
BLACK
6
CONTINUOUS
10
3.4694490551181101
20
-5.5744551574803145
11
3.465699527559055
21
-5.5669561023622043
0
LINE
8
BLACK
6
CONTINUOUS
10
3.465699527559055
20
-5.5669561023622043
11
3.4619499999999999
21
-5.5519579921259838
0
LINE
8
BLACK
6
CONTINUOUS
10
3.4619499999999999
20
-5.5519579921259838
11
3.4619499999999999
21
-5.5332103149606295
0
LINE
8
BLACK
6
CONTINUOUS
10
3.4619499999999999
20
-5.5332103149606295
11
3.465699527559055
21
-5.5182122047244091
0
LINE
8
BLACK
6
CONTINUOUS
10
3.465699527559055
20
-5.5182122047244091
11
3.4694490551181101
21
-5.5107131496062989
0
LINE
8
BLACK
6
CONTINUOUS
10
3.4694490551181101
20
-5.5107131496062989
11
3.4731985826771652
21
-5.5069636220472438
0
LINE
8
BLACK
6
CONTINUOUS
10
3.4731985826771652
20
-5.5069636220472438
11
3.4806976377952754
21
-5.5032140944881887
0
LINE
8
BLACK
6
CONTINUOUS
10
3.5406901574803147
20
-5.5744551574803145
11
3.5444396850393698
21
-5.5782047244094484
0
LINE
8
BLACK
6
CONTINUOUS
10
3.5444396850393698
20
-5.5782047244094484
11
3.5406901574803147
21
-5.5819542519685035
0
LINE
8
BLACK
6
CONTINUOUS
10
3.5406901574803147
20
-5.5819542519685035
11
3.5369406299212596
21
-5.5782047244094484
0
LINE
8
BLACK
6
CONTINUOUS
10
3.5369406299212596
20
-5.5782047244094484
11
3.5406901574803147
21
-5.5744551574803145
0
LINE
8
BLACK
6
CONTINUOUS
10
3.5406901574803147
20
-5.5744551574803145
11
3.5406901574803147
21
-5.5819542519685035
0
LINE
8
BLACK
6
CONTINUOUS
10
3.6119312598425197
20
-5.5032140944881887
11
3.5969331102362205
21
-5.5032140944881887
0
LINE
8
BLACK
6
CONTINUOUS
10
3.5969331102362205
20
-5.5032140944881887
11
3.5894340551181103
21
-5.5069636220472438
0
LINE
8
BLACK
6
CONTINUOUS
10
3.5894340551181103
20
-5.5069636220472438
11
3.5856845275590552
21
-5.5107131496062989
0
LINE
8
BLACK
6
CONTINUOUS
10
3.5856845275590552
20
-5.5107131496062989
11
3.578185472440945
21
-5.5219617322834642
0
LINE
8
BLACK
6
CONTINUOUS
10
3.578185472440945
20
-5.5219617322834642
11
3.5744359448818899
21
-5.5369598425196846
0
LINE
8
BLACK
6
CONTINUOUS
10
3.5744359448818899
20
-5.5369598425196846
11
3.5744359448818899
21
-5.5669561023622043
0
LINE
8
BLACK
6
CONTINUOUS
10
3.5744359448818899
20
-5.5669561023622043
11
3.578185472440945
21
-5.5744551574803145
0
LINE
8
BLACK
6
CONTINUOUS
10
3.578185472440945
20
-5.5744551574803145
11
3.5819350000000001
21
-5.5782047244094484
0
LINE
8
BLACK
6
CONTINUOUS
10
3.5819350000000001
20
-5.5782047244094484
11
3.5894340551181103
21
-5.5819542519685035
0
LINE
8
BLACK
6
CONTINUOUS
10
3.5894340551181103
20
-5.5819542519685035
11
3.6044322047244095
21
-5.5819542519685035
0
LINE
8
BLACK
6
CONTINUOUS
10
3.6044322047244095
20
-5.5819542519685035
11
3.6119312598425197
21
-5.5782047244094484
0
LINE
8
BLACK
6
CONTINUOUS
10
3.6119312598425197
20
-5.5782047244094484
11
3.6156807874015748
21
-5.5744551574803145
0
LINE
8
BLACK
6
CONTINUOUS
10
3.6156807874015748
20
-5.5744551574803145
11
3.6194303149606299
21
-5.5669561023622043
0
LINE
8
BLACK
6
CONTINUOUS
10
3.6194303149606299
20
-5.5669561023622043
11
3.6194303149606299
21
-5.5482084645669287
0
LINE
8
BLACK
6
CONTINUOUS
10
3.6194303149606299
20
-5.5482084645669287
11
3.6156807874015748
21
-5.5407094094488185
0
LINE
8
BLACK
6
CONTINUOUS
10
3.6156807874015748
20
-5.5407094094488185
11
3.6119312598425197
21
-5.5369598425196846
0
LINE
8
BLACK
6
CONTINUOUS
10
3.6119312598425197
20
-5.5369598425196846
11
3.6044322047244095
21
-5.5332103149606295
0
LINE
8
BLACK
6
CONTINUOUS
10
3.6044322047244095
20
-5.5332103149606295
11
3.5894340551181103
21
-5.5332103149606295
0
LINE
8
BLACK
6
CONTINUOUS
10
3.5894340551181103
20
-5.5332103149606295
11
3.5819350000000001
21
-5.5369598425196846
0
LINE
8
BLACK
6
CONTINUOUS
10
3.5819350000000001
20
-5.5369598425196846
11
3.578185472440945
21
-5.5407094094488185
0
LINE
8
BLACK
6
CONTINUOUS
10
3.578185472440945
20
-5.5407094094488185
11
3.5744359448818899
21
-5.5482084645669287
0
LINE
8
BLACK
6
CONTINUOUS
10
3.6456770472440945
20
-5.5032140944881887
11
3.6944209448818897
21
-5.5032140944881887
0
LINE
8
BLACK
6
CONTINUOUS
10
3.6944209448818897
20
-5.5032140944881887
11
3.6681742125984251
21
-5.5332103149606295
0
LINE
8
BLACK
6
CONTINUOUS
10
3.6681742125984251
20
-5.5332103149606295
11
3.6794228346456692
21
-5.5332103149606295
0
LINE
8
BLACK
6
CONTINUOUS
10
3.6794228346456692
20
-5.5332103149606295
11
3.6869218897637794
21
-5.5369598425196846
0
LINE
8
BLACK
6
CONTINUOUS
10
3.6869218897637794
20
-5.5369598425196846
11
3.6906714173228345
21
-5.5407094094488185
0
LINE
8
BLACK
6
CONTINUOUS
10
3.6906714173228345
20
-5.5407094094488185
11
3.6944209448818897
21
-5.5482084645669287
0
LINE
8
BLACK
6
CONTINUOUS
10
3.6944209448818897
20
-5.5482084645669287
11
3.6944209448818897
21
-5.5669561023622043
0
LINE
8
BLACK
6
CONTINUOUS
10
3.6944209448818897
20
-5.5669561023622043
11
3.6906714173228345
21
-5.5744551574803145
0
LINE
8
BLACK
6
CONTINUOUS
10
3.6906714173228345
20
-5.5744551574803145
11
3.6869218897637794
21
-5.5782047244094484
0
LINE
8
BLACK
6
CONTINUOUS
10
3.6869218897637794
20
-5.5782047244094484
11
3.6794228346456692
21
-5.5819542519685035
0
LINE
8
BLACK
6
CONTINUOUS
10
3.6794228346456692
20
-5.5819542519685035
11
3.6569256299212598
21
-5.5819542519685035
0
LINE
8
BLACK
6
CONTINUOUS
10
3.6569256299212598
20
-5.5819542519685035
11
3.6494265748031496
21
-5.5782047244094484
0
LINE
8
BLACK
6
CONTINUOUS
10
3.6494265748031496
20
-5.5782047244094484
11
3.6456770472440945
21
-5.5744551574803145
0
LINE
8
BLACK
6
CONTINUOUS
10
3.7656620472440943
20
-5.5032140944881887
11
3.7281667322834644
21
-5.5032140944881887
0
LINE
8
BLACK
6
CONTINUOUS
10
3.7281667322834644
20
-5.5032140944881887
11
3.7244172047244093
21
-5.5407094094488185
0
LINE
8
BLACK
6
CONTINUOUS
10
3.7244172047244093
20
-5.5407094094488185
11
3.7281667322834644
21
-5.5369598425196846
0
LINE
8
BLACK
6
CONTINUOUS
10
3.7281667322834644
20
-5.5369598425196846
11
3.7356657874015746
21
-5.5332103149606295
0
LINE
8
BLACK
6
CONTINUOUS
10
3.7356657874015746
20
-5.5332103149606295
11
3.7544134645669289
21
-5.5332103149606295
0
LINE
8
BLACK
6
CONTINUOUS
10
3.7544134645669289
20
-5.5332103149606295
11
3.7619125196850391
21
-5.5369598425196846
0
LINE
8
BLACK
6
CONTINUOUS
10
3.7619125196850391
20
-5.5369598425196846
11
3.7656620472440943
21
-5.5407094094488185
0
LINE
8
BLACK
6
CONTINUOUS
10
3.7656620472440943
20
-5.5407094094488185
11
3.7694115748031494
21
-5.5482084645669287
0
LINE
8
BLACK
6
CONTINUOUS
10
3.7694115748031494
20
-5.5482084645669287
11
3.7694115748031494
21
-5.5669561023622043
0
LINE
8
BLACK
6
CONTINUOUS
10
3.7694115748031494
20
-5.5669561023622043
11
3.7656620472440943
21
-5.5744551574803145
0
LINE
8
BLACK
6
CONTINUOUS
10
3.7656620472440943
20
-5.5744551574803145
11
3.7619125196850391
21
-5.5782047244094484
0
LINE
8
BLACK
6
CONTINUOUS
10
3.7619125196850391
20
-5.5782047244094484
11
3.7544134645669289
21
-5.5819542519685035
0
LINE
8
BLACK
6
CONTINUOUS
10
3.7544134645669289
20
-5.5819542519685035
11
3.7356657874015746
21
-5.5819542519685035
0
LINE
8
BLACK
6
CONTINUOUS
10
3.7356657874015746
20
-5.5819542519685035
11
3.7281667322834644
21
-5.5782047244094484
0
LINE
8
BLACK
6
CONTINUOUS
10
3.7281667322834644
20
-5.5782047244094484
11
3.7244172047244093
21
-5.5744551574803145
0
LINE
8
BLACK
6
CONTINUOUS
10
3.8031573622047241
20
-5.5819542519685035
11
3.8031573622047241
21
-5.5294607874015744
0
LINE
8
BLACK
6
CONTINUOUS
10
3.8031573622047241
20
-5.5369598425196846
11
3.8069068897637792
21
-5.5332103149606295
0
LINE
8
BLACK
6
CONTINUOUS
10
3.8069068897637792
20
-5.5332103149606295
11
3.8144059448818899
21
-5.5294607874015744
0
LINE
8
BLACK
6
CONTINUOUS
10
3.8144059448818899
20
-5.5294607874015744
11
3.825654566929134
21
-5.5294607874015744
0
LINE
8
BLACK
6
CONTINUOUS
10
3.825654566929134
20
-5.5294607874015744
11
3.8331536220472442
21
-5.5332103149606295
0
LINE
8
BLACK
6
CONTINUOUS
10
3.8331536220472442
20
-5.5332103149606295
11
3.8369031496062993
21
-5.5407094094488185
0
LINE
8
BLACK
6
CONTINUOUS
10
3.8369031496062993
20
-5.5407094094488185
11
3.8369031496062993
21
-5.5819542519685035
0
LINE
8
BLACK
6
CONTINUOUS
10
3.8369031496062993
20
-5.5407094094488185
11
3.8406526771653544
21
-5.5332103149606295
0
LINE
8
BLACK
6
CONTINUOUS
10
3.8406526771653544
20
-5.5332103149606295
11
3.8481517322834646
21
-5.5294607874015744
0
LINE
8
BLACK
6
CONTINUOUS
10
3.8481517322834646
20
-5.5294607874015744
11
3.85940031496063
21
-5.5294607874015744
0
LINE
8
BLACK
6
CONTINUOUS
10
3.85940031496063
20
-5.5294607874015744
11
3.8668994094488189
21
-5.5332103149606295
0
LINE
8
BLACK
6
CONTINUOUS
10
3.8668994094488189
20
-5.5332103149606295
11
3.870648937007874
21
-5.5407094094488185
0
LINE
8
BLACK
6
CONTINUOUS
10
3.870648937007874
20
-5.5407094094488185
11
3.870648937007874
21
-5.5819542519685035
0
LINE
8
BLACK
6
CONTINUOUS
10
3.9081442519685039
20
-5.5819542519685035
11
3.9081442519685039
21
-5.5294607874015744
0
LINE
8
BLACK
6
CONTINUOUS
10
3.9081442519685039
20
-5.5369598425196846
11
3.911893779527559
21
-5.5332103149606295
0
LINE
8
BLACK
6
CONTINUOUS
10
3.911893779527559
20
-5.5332103149606295
11
3.9193928346456692
21
-5.5294607874015744
0
LINE
8
BLACK
6
CONTINUOUS
10
3.9193928346456692
20
-5.5294607874015744
11
3.9306414566929133
21
-5.5294607874015744
0
LINE
8
BLACK
6
CONTINUOUS
10
3.9306414566929133
20
-5.5294607874015744
11
3.9381405118110235
21
-5.5332103149606295
0
LINE
8
BLACK
6
CONTINUOUS
10
3.9381405118110235
20
-5.5332103149606295
11
3.9418900393700786
21
-5.5407094094488185
0
LINE
8
BLACK
6
CONTINUOUS
10
3.9418900393700786
20
-5.5407094094488185
11
3.9418900393700786
21
-5.5819542519685035
0
LINE
8
BLACK
6
CONTINUOUS
10
3.9418900393700786
20
-5.5407094094488185
11
3.9456395669291338
21
-5.5332103149606295
0
LINE
8
BLACK
6
CONTINUOUS
10
3.9456395669291338
20
-5.5332103149606295
11
3.953138622047244
21
-5.5294607874015744
0
LINE
8
BLACK
6
CONTINUOUS
10
3.953138622047244
20
-5.5294607874015744
11
3.9643872047244093
21
-5.5294607874015744
0
LINE
8
BLACK
6
CONTINUOUS
10
3.9643872047244093
20
-5.5294607874015744
11
3.9718862992125983
21
-5.5332103149606295
0
LINE
8
BLACK
6
CONTINUOUS
10
3.9718862992125983
20
-5.5332103149606295
11
3.9756358267716534
21
-5.5407094094488185
0
LINE
8
BLACK
6
CONTINUOUS
10
3.9756358267716534
20
-5.5407094094488185
11
3.9756358267716534
21
-5.5819542519685035
0
LINE
8
BLACK
6
CONTINUOUS
10
4.1293666141732279
20
-5.4994645669291335
11
4.0618750787401572
21
-5.600701889763779
0
LINE
8
BLACK
6
CONTINUOUS
10
4.230603976377953
20
-5.5032140944881887
11
4.238103070866142
21
-5.5032140944881887
0
LINE
8
BLACK
6
CONTINUOUS
10
4.238103070866142
20
-5.5032140944881887
11
4.2456021259842522
21
-5.5069636220472438
0
LINE
8
BLACK
6
CONTINUOUS
10
4.2456021259842522
20
-5.5069636220472438
11
4.2493516535433073
21
-5.5107131496062989
0
LINE
8
BLACK
6
CONTINUOUS
10
4.2493516535433073
20
-5.5107131496062989
11
4.2531011811023625
21
-5.5182122047244091
0
LINE
8
BLACK
6
CONTINUOUS
10
4.2531011811023625
20
-5.5182122047244091
11
4.2568507086614176
21
-5.5332103149606295
0
LINE
8
BLACK
6
CONTINUOUS
10
4.2568507086614176
20
-5.5332103149606295
11
4.2568507086614176
21
-5.5519579921259838
0
LINE
8
BLACK
6
CONTINUOUS
10
4.2568507086614176
20
-5.5519579921259838
11
4.2531011811023625
21
-5.5669561023622043
0
LINE
8
BLACK
6
CONTINUOUS
10
4.2531011811023625
20
-5.5669561023622043
11
4.2493516535433073
21
-5.5744551574803145
0
LINE
8
BLACK
6
CONTINUOUS
10
4.2493516535433073
20
-5.5744551574803145
11
4.2456021259842522
21
-5.5782047244094484
0
LINE
8
BLACK
6
CONTINUOUS
10
4.2456021259842522
20
-5.5782047244094484
11
4.238103070866142
21
-5.5819542519685035
0
LINE
8
BLACK
6
CONTINUOUS
10
4.238103070866142
20
-5.5819542519685035
11
4.230603976377953
21
-5.5819542519685035
0
LINE
8
BLACK
6
CONTINUOUS
10
4.230603976377953
20
-5.5819542519685035
11
4.2231049212598428
21
-5.5782047244094484
0
LINE
8
BLACK
6
CONTINUOUS
10
4.2231049212598428
20
-5.5782047244094484
11
4.2193553937007877
21
-5.5744551574803145
0
LINE
8
BLACK
6
CONTINUOUS
10
4.2193553937007877
20
-5.5744551574803145
11
4.2156058661417326
21
-5.5669561023622043
0
LINE
8
BLACK
6
CONTINUOUS
10
4.2156058661417326
20
-5.5669561023622043
11
4.2118563385826775
21
-5.5519579921259838
0
LINE
8
BLACK
6
CONTINUOUS
10
4.2118563385826775
20
-5.5519579921259838
11
4.2118563385826775
21
-5.5332103149606295
0
LINE
8
BLACK
6
CONTINUOUS
10
4.2118563385826775
20
-5.5332103149606295
11
4.2156058661417326
21
-5.5182122047244091
0
LINE
8
BLACK
6
CONTINUOUS
10
4.2156058661417326
20
-5.5182122047244091
11
4.2193553937007877
21
-5.5107131496062989
0
LINE
8
BLACK
6
CONTINUOUS
10
4.2193553937007877
20
-5.5107131496062989
11
4.2231049212598428
21
-5.5069636220472438
0
LINE
8
BLACK
6
CONTINUOUS
10
4.2231049212598428
20
-5.5069636220472438
11
4.230603976377953
21
-5.5032140944881887
0
LINE
8
BLACK
6
CONTINUOUS
10
4.2905964960629923
20
-5.5744551574803145
11
4.2943460236220474
21
-5.5782047244094484
0
LINE
8
BLACK
6
CONTINUOUS
10
4.2943460236220474
20
-5.5782047244094484
11
4.2905964960629923
21
-5.5819542519685035
0
LINE
8
BLACK
6
CONTINUOUS
10
4.2905964960629923
20
-5.5819542519685035
11
4.2868469685039372
21
-5.5782047244094484
0
LINE
8
BLACK
6
CONTINUOUS
10
4.2868469685039372
20
-5.5782047244094484
11
4.2905964960629923
21
-5.5744551574803145
0
LINE
8
BLACK
6
CONTINUOUS
10
4.2905964960629923
20
-5.5744551574803145
11
4.2905964960629923
21
-5.5819542519685035
0
LINE
8
BLACK
6
CONTINUOUS
10
4.3430899212598426
20
-5.5032140944881887
11
4.3505890157480316
21
-5.5032140944881887
0
LINE
8
BLACK
6
CONTINUOUS
10
4.3505890157480316
20
-5.5032140944881887
11
4.3580880708661418
21
-5.5069636220472438
0
LINE
8
BLACK
6
CONTINUOUS
10
4.3580880708661418
20
-5.5069636220472438
11
4.3618375984251969
21
-5.5107131496062989
0
LINE
8
BLACK
6
CONTINUOUS
10
4.3618375984251969
20
-5.5107131496062989
11
4.365587125984252
21
-5.5182122047244091
0
LINE
8
BLACK
6
CONTINUOUS
10
4.365587125984252
20
-5.5182122047244091
11
4.3693366535433071
21
-5.5332103149606295
0
LINE
8
BLACK
6
CONTINUOUS
10
4.3693366535433071
20
-5.5332103149606295
11
4.3693366535433071
21
-5.5519579921259838
0
LINE
8
BLACK
6
CONTINUOUS
10
4.3693366535433071
20
-5.5519579921259838
11
4.365587125984252
21
-5.5669561023622043
0
LINE
8
BLACK
6
CONTINUOUS
10
4.365587125984252
20
-5.5669561023622043
11
4.3618375984251969
21
-5.5744551574803145
0
LINE
8
BLACK
6
CONTINUOUS
10
4.3618375984251969
20
-5.5744551574803145
11
4.3580880708661418
21
-5.5782047244094484
0
LINE
8
BLACK
6
CONTINUOUS
10
4.3580880708661418
20
-5.5782047244094484
11
4.3505890157480316
21
-5.5819542519685035
0
LINE
8
BLACK
6
CONTINUOUS
10
4.3505890157480316
20
-5.5819542519685035
11
4.3430899212598426
21
-5.5819542519685035
0
LINE
8
BLACK
6
CONTINUOUS
10
4.3430899212598426
20
-5.5819542519685035
11
4.3355908661417324
21
-5.5782047244094484
0
LINE
8
BLACK
6
CONTINUOUS
10
4.3355908661417324
20
-5.5782047244094484
11
4.3318413385826773
21
-5.5744551574803145
0
LINE
8
BLACK
6
CONTINUOUS
10
4.3318413385826773
20
-5.5744551574803145
11
4.3280918110236222
21
-5.5669561023622043
0
LINE
8
BLACK
6
CONTINUOUS
10
4.3280918110236222
20
-5.5669561023622043
11
4.3243422834645671
21
-5.5519579921259838
0
LINE
8
BLACK
6
CONTINUOUS
10
4.3243422834645671
20
-5.5519579921259838
11
4.3243422834645671
21
-5.5332103149606295
0
LINE
8
BLACK
6
CONTINUOUS
10
4.3243422834645671
20
-5.5332103149606295
11
4.3280918110236222
21
-5.5182122047244091
0
LINE
8
BLACK
6
CONTINUOUS
10
4.3280918110236222
20
-5.5182122047244091
11
4.3318413385826773
21
-5.5107131496062989
0
LINE
8
BLACK
6
CONTINUOUS
10
4.3318413385826773
20
-5.5107131496062989
11
4.3355908661417324
21
-5.5069636220472438
0
LINE
8
BLACK
6
CONTINUOUS
10
4.3355908661417324
20
-5.5069636220472438
11
4.3430899212598426
21
-5.5032140944881887
0
LINE
8
BLACK
6
CONTINUOUS
10
4.3993329133858268
20
-5.5107131496062989
11
4.4030824409448819
21
-5.5069636220472438
0
LINE
8
BLACK
6
CONTINUOUS
10
4.4030824409448819
20
-5.5069636220472438
11
4.4105814960629921
21
-5.5032140944881887
0
LINE
8
BLACK
6
CONTINUOUS
10
4.4105814960629921
20
-5.5032140944881887
11
4.4293291732283464
21
-5.5032140944881887
0
LINE
8
BLACK
6
CONTINUOUS
10
4.4293291732283464
20
-5.5032140944881887
11
4.4368282283464566
21
-5.5069636220472438
0
LINE
8
BLACK
6
CONTINUOUS
10
4.4368282283464566
20
-5.5069636220472438
11
4.4405777559055117
21
-5.5107131496062989
0
LINE
8
BLACK
6
CONTINUOUS
10
4.4405777559055117
20
-5.5107131496062989
11
4.4443272834645668
21
-5.5182122047244091
0
LINE
8
BLACK
6
CONTINUOUS
10
4.4443272834645668
20
-5.5182122047244091
11
4.4443272834645668
21
-5.5257112598425193
0
LINE
8
BLACK
6
CONTINUOUS
10
4.4443272834645668
20
-5.5257112598425193
11
4.4405777559055117
21
-5.5369598425196846
0
LINE
8
BLACK
6
CONTINUOUS
10
4.4405777559055117
20
-5.5369598425196846
11
4.3955833858267717
21
-5.5819542519685035
0
LINE
8
BLACK
6
CONTINUOUS
10
4.3955833858267717
20
-5.5819542519685035
11
4.4443272834645668
21
-5.5819542519685035
0
LINE
8
BLACK
6
CONTINUOUS
10
4.5155683858267714
20
-5.5032140944881887
11
4.4780730708661416
21
-5.5032140944881887
0
LINE
8
BLACK
6
CONTINUOUS
10
4.4780730708661416
20
-5.5032140944881887
11
4.4743235433070865
21
-5.5407094094488185
0
LINE
8
BLACK
6
CONTINUOUS
10
4.4743235433070865
20
-5.5407094094488185
11
4.4780730708661416
21
-5.5369598425196846
0
LINE
8
BLACK
6
CONTINUOUS
10
4.4780730708661416
20
-5.5369598425196846
11
4.4855721259842518
21
-5.5332103149606295
0
LINE
8
BLACK
6
CONTINUOUS
10
4.4855721259842518
20
-5.5332103149606295
11
4.5043198031496061
21
-5.5332103149606295
0
LINE
8
BLACK
6
CONTINUOUS
10
4.5043198031496061
20
-5.5332103149606295
11
4.5118188582677163
21
-5.5369598425196846
0
LINE
8
BLACK
6
CONTINUOUS
10
4.5118188582677163
20
-5.5369598425196846
11
4.5155683858267714
21
-5.5407094094488185
0
LINE
8
BLACK
6
CONTINUOUS
10
4.5155683858267714
20
-5.5407094094488185
11
4.5193179133858266
21
-5.5482084645669287
0
LINE
8
BLACK
6
CONTINUOUS
10
4.5193179133858266
20
-5.5482084645669287
11
4.5193179133858266
21
-5.5669561023622043
0
LINE
8
BLACK
6
CONTINUOUS
10
4.5193179133858266
20
-5.5669561023622043
11
4.5155683858267714
21
-5.5744551574803145
0
LINE
8
BLACK
6
CONTINUOUS
10
4.5155683858267714
20
-5.5744551574803145
11
4.5118188582677163
21
-5.5782047244094484
0
LINE
8
BLACK
6
CONTINUOUS
10
4.5118188582677163
20
-5.5782047244094484
11
4.5043198031496061
21
-5.5819542519685035
0
LINE
8
BLACK
6
CONTINUOUS
10
4.5043198031496061
20
-5.5819542519685035
11
4.4855721259842518
21
-5.5819542519685035
0
LINE
8
BLACK
6
CONTINUOUS
10
4.4855721259842518
20
-5.5819542519685035
11
4.4780730708661416
21
-5.5782047244094484
0
LINE
8
BLACK
6
CONTINUOUS
10
4.4780730708661416
20
-5.5782047244094484
11
4.4743235433070865
21
-5.5744551574803145
0
LINE
8
BLACK
6
CONTINUOUS
10
4.5680618110236217
20
-5.5032140944881887
11
4.5755609055118107
21
-5.5032140944881887
0
LINE
8
BLACK
6
CONTINUOUS
10
4.5755609055118107
20
-5.5032140944881887
11
4.5830599606299209
21
-5.5069636220472438
0
LINE
8
BLACK
6
CONTINUOUS
10
4.5830599606299209
20
-5.5069636220472438
11
4.586809488188976
21
-5.5107131496062989
0
LINE
8
BLACK
6
CONTINUOUS
10
4.586809488188976
20
-5.5107131496062989
11
4.5905590157480312
21
-5.5182122047244091
0
LINE
8
BLACK
6
CONTINUOUS
10
4.5905590157480312
20
-5.5182122047244091
11
4.5943085433070863
21
-5.5332103149606295
0
LINE
8
BLACK
6
CONTINUOUS
10
4.5943085433070863
20
-5.5332103149606295
11
4.5943085433070863
21
-5.5519579921259838
0
LINE
8
BLACK
6
CONTINUOUS
10
4.5943085433070863
20
-5.5519579921259838
11
4.5905590157480312
21
-5.5669561023622043
0
LINE
8
BLACK
6
CONTINUOUS
10
4.5905590157480312
20
-5.5669561023622043
11
4.586809488188976
21
-5.5744551574803145
0
LINE
8
BLACK
6
CONTINUOUS
10
4.586809488188976
20
-5.5744551574803145
11
4.5830599606299209
21
-5.5782047244094484
0
LINE
8
BLACK
6
CONTINUOUS
10
4.5830599606299209
20
-5.5782047244094484
11
4.5755609055118107
21
-5.5819542519685035
0
LINE
8
BLACK
6
CONTINUOUS
10
4.5755609055118107
20
-5.5819542519685035
11
4.5680618110236217
21
-5.5819542519685035
0
LINE
8
BLACK
6
CONTINUOUS
10
4.5680618110236217
20
-5.5819542519685035
11
4.5605627559055115
21
-5.5782047244094484
0
LINE
8
BLACK
6
CONTINUOUS
10
4.5605627559055115
20
-5.5782047244094484
11
4.5568132283464564
21
-5.5744551574803145
0
LINE
8
BLACK
6
CONTINUOUS
10
4.5568132283464564
20
-5.5744551574803145
11
4.5530637007874013
21
-5.5669561023622043
0
LINE
8
BLACK
6
CONTINUOUS
10
4.5530637007874013
20
-5.5669561023622043
11
4.5493141732283462
21
-5.5519579921259838
0
LINE
8
BLACK
6
CONTINUOUS
10
4.5493141732283462
20
-5.5519579921259838
11
4.5493141732283462
21
-5.5332103149606295
0
LINE
8
BLACK
6
CONTINUOUS
10
4.5493141732283462
20
-5.5332103149606295
11
4.5530637007874013
21
-5.5182122047244091
0
LINE
8
BLACK
6
CONTINUOUS
10
4.5530637007874013
20
-5.5182122047244091
11
4.5568132283464564
21
-5.5107131496062989
0
LINE
8
BLACK
6
CONTINUOUS
10
4.5568132283464564
20
-5.5107131496062989
11
4.5605627559055115
21
-5.5069636220472438
0
LINE
8
BLACK
6
CONTINUOUS
10
4.5605627559055115
20
-5.5069636220472438
11
4.5680618110236217
21
-5.5032140944881887
0
LINE
8
BLACK
6
CONTINUOUS
10
4.6243048031496059
20
-5.5032140944881887
11
4.6243048031496059
21
-5.5182122047244091
0
LINE
8
BLACK
6
CONTINUOUS
10
4.6543010629921255
20
-5.5032140944881887
11
4.6543010629921255
21
-5.5182122047244091
0
LINE
8
BLACK
6
CONTINUOUS
10
4.7705365748031499
20
-5.6119504724409444
11
4.766787007874016
21
-5.6082009448818892
0
LINE
8
BLACK
6
CONTINUOUS
10
4.766787007874016
20
-5.6082009448818892
11
4.7592879527559058
21
-5.5969523622047239
0
LINE
8
BLACK
6
CONTINUOUS
10
4.7592879527559058
20
-5.5969523622047239
11
4.7555384251968507
21
-5.5894533070866137
0
LINE
8
BLACK
6
CONTINUOUS
10
4.7555384251968507
20
-5.5894533070866137
11
4.7517888976377956
21
-5.5782047244094484
0
LINE
8
BLACK
6
CONTINUOUS
10
4.7517888976377956
20
-5.5782047244094484
11
4.7480393700787404
21
-5.5594570472440941
0
LINE
8
BLACK
6
CONTINUOUS
10
4.7480393700787404
20
-5.5594570472440941
11
4.7480393700787404
21
-5.5444589370078736
0
LINE
8
BLACK
6
CONTINUOUS
10
4.7480393700787404
20
-5.5444589370078736
11
4.7517888976377956
21
-5.5257112598425193
0
LINE
8
BLACK
6
CONTINUOUS
10
4.7517888976377956
20
-5.5257112598425193
11
4.7555384251968507
21
-5.514462677165354
0
LINE
8
BLACK
6
CONTINUOUS
10
4.7555384251968507
20
-5.514462677165354
11
4.7592879527559058
21
-5.5069636220472438
0
LINE
8
BLACK
6
CONTINUOUS
10
4.7592879527559058
20
-5.5069636220472438
11
4.766787007874016
21
-5.4957149999999997
0
LINE
8
BLACK
6
CONTINUOUS
10
4.766787007874016
20
-5.4957149999999997
11
4.7705365748031499
21
-5.4919654724409446
0
LINE
8
BLACK
6
CONTINUOUS
10
4.7930337401574805
20
-5.5032140944881887
11
4.8417776377952757
21
-5.5032140944881887
0
LINE
8
BLACK
6
CONTINUOUS
10
4.8417776377952757
20
-5.5032140944881887
11
4.8155309055118112
21
-5.5332103149606295
0
LINE
8
BLACK
6
CONTINUOUS
10
4.8155309055118112
20
-5.5332103149606295
11
4.8267795275590553
21
-5.5332103149606295
0
LINE
8
BLACK
6
CONTINUOUS
10
4.8267795275590553
20
-5.5332103149606295
11
4.8342785826771655
21
-5.5369598425196846
0
LINE
8
BLACK
6
CONTINUOUS
10
4.8342785826771655
20
-5.5369598425196846
11
4.8380281102362206
21
-5.5407094094488185
0
LINE
8
BLACK
6
CONTINUOUS
10
4.8380281102362206
20
-5.5407094094488185
11
4.8417776377952757
21
-5.5482084645669287
0
LINE
8
BLACK
6
CONTINUOUS
10
4.8417776377952757
20
-5.5482084645669287
11
4.8417776377952757
21
-5.5669561023622043
0
LINE
8
BLACK
6
CONTINUOUS
10
4.8417776377952757
20
-5.5669561023622043
11
4.8380281102362206
21
-5.5744551574803145
0
LINE
8
BLACK
6
CONTINUOUS
10
4.8380281102362206
20
-5.5744551574803145
11
4.8342785826771655
21
-5.5782047244094484
0
LINE
8
BLACK
6
CONTINUOUS
10
4.8342785826771655
20
-5.5782047244094484
11
4.8267795275590553
21
-5.5819542519685035
0
LINE
8
BLACK
6
CONTINUOUS
10
4.8267795275590553
20
-5.5819542519685035
11
4.8042823228346458
21
-5.5819542519685035
0
LINE
8
BLACK
6
CONTINUOUS
10
4.8042823228346458
20
-5.5819542519685035
11
4.7967832677165356
21
-5.5782047244094484
0
LINE
8
BLACK
6
CONTINUOUS
10
4.7967832677165356
20
-5.5782047244094484
11
4.7930337401574805
21
-5.5744551574803145
0
LINE
8
BLACK
6
CONTINUOUS
10
4.8717738976377953
20
-5.5107131496062989
11
4.8755234251968504
21
-5.5069636220472438
0
LINE
8
BLACK
6
CONTINUOUS
10
4.8755234251968504
20
-5.5069636220472438
11
4.8830224803149607
21
-5.5032140944881887
0
LINE
8
BLACK
6
CONTINUOUS
10
4.8830224803149607
20
-5.5032140944881887
11
4.901770157480315
21
-5.5032140944881887
0
LINE
8
BLACK
6
CONTINUOUS
10
4.901770157480315
20
-5.5032140944881887
11
4.9092692125984252
21
-5.5069636220472438
0
LINE
8
BLACK
6
CONTINUOUS
10
4.9092692125984252
20
-5.5069636220472438
11
4.9130187401574803
21
-5.5107131496062989
0
LINE
8
BLACK
6
CONTINUOUS
10
4.9130187401574803
20
-5.5107131496062989
11
4.9167682677165354
21
-5.5182122047244091
0
LINE
8
BLACK
6
CONTINUOUS
10
4.9167682677165354
20
-5.5182122047244091
11
4.9167682677165354
21
-5.5257112598425193
0
LINE
8
BLACK
6
CONTINUOUS
10
4.9167682677165354
20
-5.5257112598425193
11
4.9130187401574803
21
-5.5369598425196846
0
LINE
8
BLACK
6
CONTINUOUS
10
4.9130187401574803
20
-5.5369598425196846
11
4.8680243700787402
21
-5.5819542519685035
0
LINE
8
BLACK
6
CONTINUOUS
10
4.8680243700787402
20
-5.5819542519685035
11
4.9167682677165354
21
-5.5819542519685035
0
LINE
8
BLACK
6
CONTINUOUS
10
5.0105065748031494
20
-5.5819542519685035
11
5.0105065748031494
21
-5.5032140944881887
0
LINE
8
BLACK
6
CONTINUOUS
10
5.0442523622047242
20
-5.5819542519685035
11
5.0442523622047242
21
-5.5407094094488185
0
LINE
8
BLACK
6
CONTINUOUS
10
5.0442523622047242
20
-5.5407094094488185
11
5.0405028346456691
21
-5.5332103149606295
0
LINE
8
BLACK
6
CONTINUOUS
10
5.0405028346456691
20
-5.5332103149606295
11
5.0330037795275588
21
-5.5294607874015744
0
LINE
8
BLACK
6
CONTINUOUS
10
5.0330037795275588
20
-5.5294607874015744
11
5.0217551574803148
21
-5.5294607874015744
0
LINE
8
BLACK
6
CONTINUOUS
10
5.0217551574803148
20
-5.5294607874015744
11
5.0142561023622045
21
-5.5332103149606295
0
LINE
8
BLACK
6
CONTINUOUS
10
5.0142561023622045
20
-5.5332103149606295
11
5.0105065748031494
21
-5.5369598425196846
0
LINE
8
BLACK
6
CONTINUOUS
10
5.0929962598425194
20
-5.5819542519685035
11
5.0854972047244091
21
-5.5782047244094484
0
LINE
8
BLACK
6
CONTINUOUS
10
5.0854972047244091
20
-5.5782047244094484
11
5.081747677165354
21
-5.5744551574803145
0
LINE
8
BLACK
6
CONTINUOUS
10
5.081747677165354
20
-5.5744551574803145
11
5.0779981496062989
21
-5.5669561023622043
0
LINE
8
BLACK
6
CONTINUOUS
10
5.0779981496062989
20
-5.5669561023622043
11
5.0779981496062989
21
-5.5444589370078736
0
LINE
8
BLACK
6
CONTINUOUS
10
5.0779981496062989
20
-5.5444589370078736
11
5.081747677165354
21
-5.5369598425196846
0
LINE
8
BLACK
6
CONTINUOUS
10
5.081747677165354
20
-5.5369598425196846
11
5.0854972047244091
21
-5.5332103149606295
0
LINE
8
BLACK
6
CONTINUOUS
10
5.0854972047244091
20
-5.5332103149606295
11
5.0929962598425194
21
-5.5294607874015744
0
LINE
8
BLACK
6
CONTINUOUS
10
5.0929962598425194
20
-5.5294607874015744
11
5.1042448818897634
21
-5.5294607874015744
0
LINE
8
BLACK
6
CONTINUOUS
10
5.1042448818897634
20
-5.5294607874015744
11
5.1117439370078737
21
-5.5332103149606295
0
LINE
8
BLACK
6
CONTINUOUS
10
5.1117439370078737
20
-5.5332103149606295
11
5.1154934645669288
21
-5.5369598425196846
0
LINE
8
BLACK
6
CONTINUOUS
10
5.1154934645669288
20
-5.5369598425196846
11
5.1192429921259839
21
-5.5444589370078736
0
LINE
8
BLACK
6
CONTINUOUS
10
5.1192429921259839
20
-5.5444589370078736
11
5.1192429921259839
21
-5.5669561023622043
0
LINE
8
BLACK
6
CONTINUOUS
10
5.1192429921259839
20
-5.5669561023622043
11
5.1154934645669288
21
-5.5744551574803145
0
LINE
8
BLACK
6
CONTINUOUS
10
5.1154934645669288
20
-5.5744551574803145
11
5.1117439370078737
21
-5.5782047244094484
0
LINE
8
BLACK
6
CONTINUOUS
10
5.1117439370078737
20
-5.5782047244094484
11
5.1042448818897634
21
-5.5819542519685035
0
LINE
8
BLACK
6
CONTINUOUS
10
5.1042448818897634
20
-5.5819542519685035
11
5.0929962598425194
21
-5.5819542519685035
0
LINE
8
BLACK
6
CONTINUOUS
10
5.164237362204724
20
-5.5819542519685035
11
5.1567383070866137
21
-5.5782047244094484
0
LINE
8
BLACK
6
CONTINUOUS
10
5.1567383070866137
20
-5.5782047244094484
11
5.1529887795275586
21
-5.5707056299212594
0
LINE
8
BLACK
6
CONTINUOUS
10
5.1529887795275586
20
-5.5707056299212594
11
5.1529887795275586
21
-5.5032140944881887
0
LINE
8
BLACK
6
CONTINUOUS
10
5.2242298818897632
20
-5.5782047244094484
11
5.216730826771653
21
-5.5819542519685035
0
LINE
8
BLACK
6
CONTINUOUS
10
5.216730826771653
20
-5.5819542519685035
11
5.2017326771653538
21
-5.5819542519685035
0
LINE
8
BLACK
6
CONTINUOUS
10
5.2017326771653538
20
-5.5819542519685035
11
5.1942336220472436
21
-5.5782047244094484
0
LINE
8
BLACK
6
CONTINUOUS
10
5.1942336220472436
20
-5.5782047244094484
11
5.1904840944881885
21
-5.5707056299212594
0
LINE
8
BLACK
6
CONTINUOUS
10
5.1904840944881885
20
-5.5707056299212594
11
5.1904840944881885
21
-5.5407094094488185
0
LINE
8
BLACK
6
CONTINUOUS
10
5.1904840944881885
20
-5.5407094094488185
11
5.1942336220472436
21
-5.5332103149606295
0
LINE
8
BLACK
6
CONTINUOUS
10
5.1942336220472436
20
-5.5332103149606295
11
5.2017326771653538
21
-5.5294607874015744
0
LINE
8
BLACK
6
CONTINUOUS
10
5.2017326771653538
20
-5.5294607874015744
11
5.216730826771653
21
-5.5294607874015744
0
LINE
8
BLACK
6
CONTINUOUS
10
5.216730826771653
20
-5.5294607874015744
11
5.2242298818897632
21
-5.5332103149606295
0
LINE
8
BLACK
6
CONTINUOUS
10
5.2242298818897632
20
-5.5332103149606295
11
5.2279794094488183
21
-5.5407094094488185
0
LINE
8
BLACK
6
CONTINUOUS
10
5.2279794094488183
20
-5.5407094094488185
11
5.2279794094488183
21
-5.5482084645669287
0
LINE
8
BLACK
6
CONTINUOUS
10
5.2279794094488183
20
-5.5482084645669287
11
5.1904840944881885
21
-5.555707519685039
0
LINE
8
BLACK
6
CONTINUOUS
10
5.2579756692913389
20
-5.5782047244094484
11
5.2654747244094491
21
-5.5819542519685035
0
LINE
8
BLACK
6
CONTINUOUS
10
5.2654747244094491
20
-5.5819542519685035
11
5.2804728346456695
21
-5.5819542519685035
0
LINE
8
BLACK
6
CONTINUOUS
10
5.2804728346456695
20
-5.5819542519685035
11
5.2879719291338585
21
-5.5782047244094484
0
LINE
8
BLACK
6
CONTINUOUS
10
5.2879719291338585
20
-5.5782047244094484
11
5.2917214566929136
21
-5.5707056299212594
0
LINE
8
BLACK
6
CONTINUOUS
10
5.2917214566929136
20
-5.5707056299212594
11
5.2917214566929136
21
-5.5669561023622043
0
LINE
8
BLACK
6
CONTINUOUS
10
5.2917214566929136
20
-5.5669561023622043
11
5.2879719291338585
21
-5.5594570472440941
0
LINE
8
BLACK
6
CONTINUOUS
10
5.2879719291338585
20
-5.5594570472440941
11
5.2804728346456695
21
-5.555707519685039
0
LINE
8
BLACK
6
CONTINUOUS
10
5.2804728346456695
20
-5.555707519685039
11
5.2692242519685042
21
-5.555707519685039
0
LINE
8
BLACK
6
CONTINUOUS
10
5.2692242519685042
20
-5.555707519685039
11
5.261725196850394
21
-5.5519579921259838
0
LINE
8
BLACK
6
CONTINUOUS
10
5.261725196850394
20
-5.5519579921259838
11
5.2579756692913389
21
-5.5444589370078736
0
LINE
8
BLACK
6
CONTINUOUS
10
5.2579756692913389
20
-5.5444589370078736
11
5.2579756692913389
21
-5.5407094094488185
0
LINE
8
BLACK
6
CONTINUOUS
10
5.2579756692913389
20
-5.5407094094488185
11
5.261725196850394
21
-5.5332103149606295
0
LINE
8
BLACK
6
CONTINUOUS
10
5.261725196850394
20
-5.5332103149606295
11
5.2692242519685042
21
-5.5294607874015744
0
LINE
8
BLACK
6
CONTINUOUS
10
5.2692242519685042
20
-5.5294607874015744
11
5.2804728346456695
21
-5.5294607874015744
0
LINE
8
BLACK
6
CONTINUOUS
10
5.2804728346456695
20
-5.5294607874015744
11
5.2879719291338585
21
-5.5332103149606295
0
LINE
8
BLACK
6
CONTINUOUS
10
5.3179681889763781
20
-5.6119504724409444
11
5.3217177165354332
21
-5.6082009448818892
0
LINE
8
BLACK
6
CONTINUOUS
10
5.3217177165354332
20
-5.6082009448818892
11
5.3292167716535435
21
-5.5969523622047239
0
LINE
8
BLACK
6
CONTINUOUS
10
5.3292167716535435
20
-5.5969523622047239
11
5.3329662992125986
21
-5.5894533070866137
0
LINE
8
BLACK
6
CONTINUOUS
10
5.3329662992125986
20
-5.5894533070866137
11
5.3367158267716537
21
-5.5782047244094484
0
LINE
8
BLACK
6
CONTINUOUS
10
5.3367158267716537
20
-5.5782047244094484
11
5.3404653543307088
21
-5.5594570472440941
0
LINE
8
BLACK
6
CONTINUOUS
10
5.3404653543307088
20
-5.5594570472440941
11
5.3404653543307088
21
-5.5444589370078736
0
LINE
8
BLACK
6
CONTINUOUS
10
5.3404653543307088
20
-5.5444589370078736
11
5.3367158267716537
21
-5.5257112598425193
0
LINE
8
BLACK
6
CONTINUOUS
10
5.3367158267716537
20
-5.5257112598425193
11
5.3329662992125986
21
-5.514462677165354
0
LINE
8
BLACK
6
CONTINUOUS
10
5.3329662992125986
20
-5.514462677165354
11
5.3292167716535435
21
-5.5069636220472438
0
LINE
8
BLACK
6
CONTINUOUS
10
5.3292167716535435
20
-5.5069636220472438
11
5.3217177165354332
21
-5.4957149999999997
0
LINE
8
BLACK
6
CONTINUOUS
10
5.3217177165354332
20
-5.4957149999999997
11
5.3179681889763781
21
-5.4919654724409446
0
CIRCLE
8
BLACK
10
3.338031496062992
20
-5.6498740157480309
40
0.025
0
LINE
8
BLACK
6
CONTINUOUS
10
3.5069443700787399
20
-5.6858912598425198
11
3.4619499999999999
21
-5.6858912598425198
0
LINE
8
BLACK
6
CONTINUOUS
10
3.4844471653543305
20
-5.6858912598425198
11
3.4844471653543305
21
-5.6071511023622049
0
LINE
8
BLACK
6
CONTINUOUS
10
3.4844471653543305
20
-5.6071511023622049
11
3.4769481102362203
21
-5.6183996850393703
0
LINE
8
BLACK
6
CONTINUOUS
10
3.4769481102362203
20
-5.6183996850393703
11
3.4694490551181101
21
-5.6258987401574805
0
LINE
8
BLACK
6
CONTINUOUS
10
3.4694490551181101
20
-5.6258987401574805
11
3.4619499999999999
21
-5.6296482677165356
0
LINE
8
BLACK
6
CONTINUOUS
10
3.5406901574803147
20
-5.6783921653543308
11
3.5444396850393698
21
-5.6821417322834646
0
LINE
8
BLACK
6
CONTINUOUS
10
3.5444396850393698
20
-5.6821417322834646
11
3.5406901574803147
21
-5.6858912598425198
0
LINE
8
BLACK
6
CONTINUOUS
10
3.5406901574803147
20
-5.6858912598425198
11
3.5369406299212596
21
-5.6821417322834646
0
LINE
8
BLACK
6
CONTINUOUS
10
3.5369406299212596
20
-5.6821417322834646
11
3.5406901574803147
21
-5.6783921653543308
0
LINE
8
BLACK
6
CONTINUOUS
10
3.5406901574803147
20
-5.6783921653543308
11
3.5406901574803147
21
-5.6858912598425198
0
LINE
8
BLACK
6
CONTINUOUS
10
3.5744359448818899
20
-5.6146501574803152
11
3.578185472440945
21
-5.61090062992126
0
LINE
8
BLACK
6
CONTINUOUS
10
3.578185472440945
20
-5.61090062992126
11
3.5856845275590552
21
-5.6071511023622049
0
LINE
8
BLACK
6
CONTINUOUS
10
3.5856845275590552
20
-5.6071511023622049
11
3.6044322047244095
21
-5.6071511023622049
0
LINE
8
BLACK
6
CONTINUOUS
10
3.6044322047244095
20
-5.6071511023622049
11
3.6119312598425197
21
-5.61090062992126
0
LINE
8
BLACK
6
CONTINUOUS
10
3.6119312598425197
20
-5.61090062992126
11
3.6156807874015748
21
-5.6146501574803152
0
LINE
8
BLACK
6
CONTINUOUS
10
3.6156807874015748
20
-5.6146501574803152
11
3.6194303149606299
21
-5.6221492125984254
0
LINE
8
BLACK
6
CONTINUOUS
10
3.6194303149606299
20
-5.6221492125984254
11
3.6194303149606299
21
-5.6296482677165356
0
LINE
8
BLACK
6
CONTINUOUS
10
3.6194303149606299
20
-5.6296482677165356
11
3.6156807874015748
21
-5.6408968503937009
0
LINE
8
BLACK
6
CONTINUOUS
10
3.6156807874015748
20
-5.6408968503937009
11
3.5706864173228348
21
-5.6858912598425198
0
LINE
8
BLACK
6
CONTINUOUS
10
3.5706864173228348
20
-5.6858912598425198
11
3.6194303149606299
21
-5.6858912598425198
0
LINE
8
BLACK
6
CONTINUOUS
10
3.6456770472440945
20
-5.6071511023622049
11
3.6981704724409448
21
-5.6071511023622049
0
LINE
8
BLACK
6
CONTINUOUS
10
3.6981704724409448
20
-5.6071511023622049
11
3.66442468503937
21
-5.6858912598425198
0
LINE
8
BLACK
6
CONTINUOUS
10
3.7431648425196848
20
-5.6071511023622049
11
3.7506639370078738
21
-5.6071511023622049
0
LINE
8
BLACK
6
CONTINUOUS
10
3.7506639370078738
20
-5.6071511023622049
11
3.758162992125984
21
-5.61090062992126
0
LINE
8
BLACK
6
CONTINUOUS
10
3.758162992125984
20
-5.61090062992126
11
3.7619125196850391
21
-5.6146501574803152
0
LINE
8
BLACK
6
CONTINUOUS
10
3.7619125196850391
20
-5.6146501574803152
11
3.7656620472440943
21
-5.6221492125984254
0
LINE
8
BLACK
6
CONTINUOUS
10
3.7656620472440943
20
-5.6221492125984254
11
3.7694115748031494
21
-5.6371473228346458
0
LINE
8
BLACK
6
CONTINUOUS
10
3.7694115748031494
20
-5.6371473228346458
11
3.7694115748031494
21
-5.6558950000000001
0
LINE
8
BLACK
6
CONTINUOUS
10
3.7694115748031494
20
-5.6558950000000001
11
3.7656620472440943
21
-5.6708931102362206
0
LINE
8
BLACK
6
CONTINUOUS
10
3.7656620472440943
20
-5.6708931102362206
11
3.7619125196850391
21
-5.6783921653543308
0
LINE
8
BLACK
6
CONTINUOUS
10
3.7619125196850391
20
-5.6783921653543308
11
3.758162992125984
21
-5.6821417322834646
0
LINE
8
BLACK
6
CONTINUOUS
10
3.758162992125984
20
-5.6821417322834646
11
3.7506639370078738
21
-5.6858912598425198
0
LINE
8
BLACK
6
CONTINUOUS
10
3.7506639370078738
20
-5.6858912598425198
11
3.7431648425196848
21
-5.6858912598425198
0
LINE
8
BLACK
6
CONTINUOUS
10
3.7431648425196848
20
-5.6858912598425198
11
3.7356657874015746
21
-5.6821417322834646
0
LINE
8
BLACK
6
CONTINUOUS
10
3.7356657874015746
20
-5.6821417322834646
11
3.7319162598425195
21
-5.6783921653543308
0
LINE
8
BLACK
6
CONTINUOUS
10
3.7319162598425195
20
-5.6783921653543308
11
3.7281667322834644
21
-5.6708931102362206
0
LINE
8
BLACK
6
CONTINUOUS
10
3.7281667322834644
20
-5.6708931102362206
11
3.7244172047244093
21
-5.6558950000000001
0
LINE
8
BLACK
6
CONTINUOUS
10
3.7244172047244093
20
-5.6558950000000001
11
3.7244172047244093
21
-5.6371473228346458
0
LINE
8
BLACK
6
CONTINUOUS
10
3.7244172047244093
20
-5.6371473228346458
11
3.7281667322834644
21
-5.6221492125984254
0
LINE
8
BLACK
6
CONTINUOUS
10
3.7281667322834644
20
-5.6221492125984254
11
3.7319162598425195
21
-5.6146501574803152
0
LINE
8
BLACK
6
CONTINUOUS
10
3.7319162598425195
20
-5.6146501574803152
11
3.7356657874015746
21
-5.61090062992126
0
LINE
8
BLACK
6
CONTINUOUS
10
3.7356657874015746
20
-5.61090062992126
11
3.7431648425196848
21
-5.6071511023622049
0
LINE
8
BLACK
6
CONTINUOUS
10
3.8031573622047241
20
-5.6858912598425198
11
3.8031573622047241
21
-5.6333977952755907
0
LINE
8
BLACK
6
CONTINUOUS
10
3.8031573622047241
20
-5.6408968503937009
11
3.8069068897637792
21
-5.6371473228346458
0
LINE
8
BLACK
6
CONTINUOUS
10
3.8069068897637792
20
-5.6371473228346458
11
3.8144059448818899
21
-5.6333977952755907
0
LINE
8
BLACK
6
CONTINUOUS
10
3.8144059448818899
20
-5.6333977952755907
11
3.825654566929134
21
-5.6333977952755907
0
LINE
8
BLACK
6
CONTINUOUS
10
3.825654566929134
20
-5.6333977952755907
11
3.8331536220472442
21
-5.6371473228346458
0
LINE
8
BLACK
6
CONTINUOUS
10
3.8331536220472442
20
-5.6371473228346458
11
3.8369031496062993
21
-5.6446464173228348
0
LINE
8
BLACK
6
CONTINUOUS
10
3.8369031496062993
20
-5.6446464173228348
11
3.8369031496062993
21
-5.6858912598425198
0
LINE
8
BLACK
6
CONTINUOUS
10
3.8369031496062993
20
-5.6446464173228348
11
3.8406526771653544
21
-5.6371473228346458
0
LINE
8
BLACK
6
CONTINUOUS
10
3.8406526771653544
20
-5.6371473228346458
11
3.8481517322834646
21
-5.6333977952755907
0
LINE
8
BLACK
6
CONTINUOUS
10
3.8481517322834646
20
-5.6333977952755907
11
3.85940031496063
21
-5.6333977952755907
0
LINE
8
BLACK
6
CONTINUOUS
10
3.85940031496063
20
-5.6333977952755907
11
3.8668994094488189
21
-5.6371473228346458
0
LINE
8
BLACK
6
CONTINUOUS
10
3.8668994094488189
20
-5.6371473228346458
11
3.870648937007874
21
-5.6446464173228348
0
LINE
8
BLACK
6
CONTINUOUS
10
3.870648937007874
20
-5.6446464173228348
11
3.870648937007874
21
-5.6858912598425198
0
LINE
8
BLACK
6
CONTINUOUS
10
3.9081442519685039
20
-5.6858912598425198
11
3.9081442519685039
21
-5.6333977952755907
0
LINE
8
BLACK
6
CONTINUOUS
10
3.9081442519685039
20
-5.6408968503937009
11
3.911893779527559
21
-5.6371473228346458
0
LINE
8
BLACK
6
CONTINUOUS
10
3.911893779527559
20
-5.6371473228346458
11
3.9193928346456692
21
-5.6333977952755907
0
LINE
8
BLACK
6
CONTINUOUS
10
3.9193928346456692
20
-5.6333977952755907
11
3.9306414566929133
21
-5.6333977952755907
0
LINE
8
BLACK
6
CONTINUOUS
10
3.9306414566929133
20
-5.6333977952755907
11
3.9381405118110235
21
-5.6371473228346458
0
LINE
8
BLACK
6
CONTINUOUS
10
3.9381405118110235
20
-5.6371473228346458
11
3.9418900393700786
21
-5.6446464173228348
0
LINE
8
BLACK
6
CONTINUOUS
10
3.9418900393700786
20
-5.6446464173228348
11
3.9418900393700786
21
-5.6858912598425198
0
LINE
8
BLACK
6
CONTINUOUS
10
3.9418900393700786
20
-5.6446464173228348
11
3.9456395669291338
21
-5.6371473228346458
0
LINE
8
BLACK
6
CONTINUOUS
10
3.9456395669291338
20
-5.6371473228346458
11
3.953138622047244
21
-5.6333977952755907
0
LINE
8
BLACK
6
CONTINUOUS
10
3.953138622047244
20
-5.6333977952755907
11
3.9643872047244093
21
-5.6333977952755907
0
LINE
8
BLACK
6
CONTINUOUS
10
3.9643872047244093
20
-5.6333977952755907
11
3.9718862992125983
21
-5.6371473228346458
0
LINE
8
BLACK
6
CONTINUOUS
10
3.9718862992125983
20
-5.6371473228346458
11
3.9756358267716534
21
-5.6446464173228348
0
LINE
8
BLACK
6
CONTINUOUS
10
3.9756358267716534
20
-5.6446464173228348
11
3.9756358267716534
21
-5.6858912598425198
0
LINE
8
BLACK
6
CONTINUOUS
10
4.1293666141732279
20
-5.6034015748031498
11
4.0618750787401572
21
-5.7046388976377953
0
LINE
8
BLACK
6
CONTINUOUS
10
4.230603976377953
20
-5.6071511023622049
11
4.238103070866142
21
-5.6071511023622049
0
LINE
8
BLACK
6
CONTINUOUS
10
4.238103070866142
20
-5.6071511023622049
11
4.2456021259842522
21
-5.61090062992126
0
LINE
8
BLACK
6
CONTINUOUS
10
4.2456021259842522
20
-5.61090062992126
11
4.2493516535433073
21
-5.6146501574803152
0
LINE
8
BLACK
6
CONTINUOUS
10
4.2493516535433073
20
-5.6146501574803152
11
4.2531011811023625
21
-5.6221492125984254
0
LINE
8
BLACK
6
CONTINUOUS
10
4.2531011811023625
20
-5.6221492125984254
11
4.2568507086614176
21
-5.6371473228346458
0
LINE
8
BLACK
6
CONTINUOUS
10
4.2568507086614176
20
-5.6371473228346458
11
4.2568507086614176
21
-5.6558950000000001
0
LINE
8
BLACK
6
CONTINUOUS
10
4.2568507086614176
20
-5.6558950000000001
11
4.2531011811023625
21
-5.6708931102362206
0
LINE
8
BLACK
6
CONTINUOUS
10
4.2531011811023625
20
-5.6708931102362206
11
4.2493516535433073
21
-5.6783921653543308
0
LINE
8
BLACK
6
CONTINUOUS
10
4.2493516535433073
20
-5.6783921653543308
11
4.2456021259842522
21
-5.6821417322834646
0
LINE
8
BLACK
6
CONTINUOUS
10
4.2456021259842522
20
-5.6821417322834646
11
4.238103070866142
21
-5.6858912598425198
0
LINE
8
BLACK
6
CONTINUOUS
10
4.238103070866142
20
-5.6858912598425198
11
4.230603976377953
21
-5.6858912598425198
0
LINE
8
BLACK
6
CONTINUOUS
10
4.230603976377953
20
-5.6858912598425198
11
4.2231049212598428
21
-5.6821417322834646
0
LINE
8
BLACK
6
CONTINUOUS
10
4.2231049212598428
20
-5.6821417322834646
11
4.2193553937007877
21
-5.6783921653543308
0
LINE
8
BLACK
6
CONTINUOUS
10
4.2193553937007877
20
-5.6783921653543308
11
4.2156058661417326
21
-5.6708931102362206
0
LINE
8
BLACK
6
CONTINUOUS
10
4.2156058661417326
20
-5.6708931102362206
11
4.2118563385826775
21
-5.6558950000000001
0
LINE
8
BLACK
6
CONTINUOUS
10
4.2118563385826775
20
-5.6558950000000001
11
4.2118563385826775
21
-5.6371473228346458
0
LINE
8
BLACK
6
CONTINUOUS
10
4.2118563385826775
20
-5.6371473228346458
11
4.2156058661417326
21
-5.6221492125984254
0
LINE
8
BLACK
6
CONTINUOUS
10
4.2156058661417326
20
-5.6221492125984254
11
4.2193553937007877
21
-5.6146501574803152
0
LINE
8
BLACK
6
CONTINUOUS
10
4.2193553937007877
20
-5.6146501574803152
11
4.2231049212598428
21
-5.61090062992126
0
LINE
8
BLACK
6
CONTINUOUS
10
4.2231049212598428
20
-5.61090062992126
11
4.230603976377953
21
-5.6071511023622049
0
LINE
8
BLACK
6
CONTINUOUS
10
4.2905964960629923
20
-5.6783921653543308
11
4.2943460236220474
21
-5.6821417322834646
0
LINE
8
BLACK
6
CONTINUOUS
10
4.2943460236220474
20
-5.6821417322834646
11
4.2905964960629923
21
-5.6858912598425198
0
LINE
8
BLACK
6
CONTINUOUS
10
4.2905964960629923
20
-5.6858912598425198
11
4.2868469685039372
21
-5.6821417322834646
0
LINE
8
BLACK
6
CONTINUOUS
10
4.2868469685039372
20
-5.6821417322834646
11
4.2905964960629923
21
-5.6783921653543308
0
LINE
8
BLACK
6
CONTINUOUS
10
4.2905964960629923
20
-5.6783921653543308
11
4.2905964960629923
21
-5.6858912598425198
0
LINE
8
BLACK
6
CONTINUOUS
10
4.3430899212598426
20
-5.6071511023622049
11
4.3505890157480316
21
-5.6071511023622049
0
LINE
8
BLACK
6
CONTINUOUS
10
4.3505890157480316
20
-5.6071511023622049
11
4.3580880708661418
21
-5.61090062992126
0
LINE
8
BLACK
6
CONTINUOUS
10
4.3580880708661418
20
-5.61090062992126
11
4.3618375984251969
21
-5.6146501574803152
0
LINE
8
BLACK
6
CONTINUOUS
10
4.3618375984251969
20
-5.6146501574803152
11
4.365587125984252
21
-5.6221492125984254
0
LINE
8
BLACK
6
CONTINUOUS
10
4.365587125984252
20
-5.6221492125984254
11
4.3693366535433071
21
-5.6371473228346458
0
LINE
8
BLACK
6
CONTINUOUS
10
4.3693366535433071
20
-5.6371473228346458
11
4.3693366535433071
21
-5.6558950000000001
0
LINE
8
BLACK
6
CONTINUOUS
10
4.3693366535433071
20
-5.6558950000000001
11
4.365587125984252
21
-5.6708931102362206
0
LINE
8
BLACK
6
CONTINUOUS
10
4.365587125984252
20
-5.6708931102362206
11
4.3618375984251969
21
-5.6783921653543308
0
LINE
8
BLACK
6
CONTINUOUS
10
4.3618375984251969
20
-5.6783921653543308
11
4.3580880708661418
21
-5.6821417322834646
0
LINE
8
BLACK
6
CONTINUOUS
10
4.3580880708661418
20
-5.6821417322834646
11
4.3505890157480316
21
-5.6858912598425198
0
LINE
8
BLACK
6
CONTINUOUS
10
4.3505890157480316
20
-5.6858912598425198
11
4.3430899212598426
21
-5.6858912598425198
0
LINE
8
BLACK
6
CONTINUOUS
10
4.3430899212598426
20
-5.6858912598425198
11
4.3355908661417324
21
-5.6821417322834646
0
LINE
8
BLACK
6
CONTINUOUS
10
4.3355908661417324
20
-5.6821417322834646
11
4.3318413385826773
21
-5.6783921653543308
0
LINE
8
BLACK
6
CONTINUOUS
10
4.3318413385826773
20
-5.6783921653543308
11
4.3280918110236222
21
-5.6708931102362206
0
LINE
8
BLACK
6
CONTINUOUS
10
4.3280918110236222
20
-5.6708931102362206
11
4.3243422834645671
21
-5.6558950000000001
0
LINE
8
BLACK
6
CONTINUOUS
10
4.3243422834645671
20
-5.6558950000000001
11
4.3243422834645671
21
-5.6371473228346458
0
LINE
8
BLACK
6
CONTINUOUS
10
4.3243422834645671
20
-5.6371473228346458
11
4.3280918110236222
21
-5.6221492125984254
0
LINE
8
BLACK
6
CONTINUOUS
10
4.3280918110236222
20
-5.6221492125984254
11
4.3318413385826773
21
-5.6146501574803152
0
LINE
8
BLACK
6
CONTINUOUS
10
4.3318413385826773
20
-5.6146501574803152
11
4.3355908661417324
21
-5.61090062992126
0
LINE
8
BLACK
6
CONTINUOUS
10
4.3355908661417324
20
-5.61090062992126
11
4.3430899212598426
21
-5.6071511023622049
0
LINE
8
BLACK
6
CONTINUOUS
10
4.4405777559055117
20
-5.6071511023622049
11
4.4030824409448819
21
-5.6071511023622049
0
LINE
8
BLACK
6
CONTINUOUS
10
4.4030824409448819
20
-5.6071511023622049
11
4.3993329133858268
21
-5.6446464173228348
0
LINE
8
BLACK
6
CONTINUOUS
10
4.3993329133858268
20
-5.6446464173228348
11
4.4030824409448819
21
-5.6408968503937009
0
LINE
8
BLACK
6
CONTINUOUS
10
4.4030824409448819
20
-5.6408968503937009
11
4.4105814960629921
21
-5.6371473228346458
0
LINE
8
BLACK
6
CONTINUOUS
10
4.4105814960629921
20
-5.6371473228346458
11
4.4293291732283464
21
-5.6371473228346458
0
LINE
8
BLACK
6
CONTINUOUS
10
4.4293291732283464
20
-5.6371473228346458
11
4.4368282283464566
21
-5.6408968503937009
0
LINE
8
BLACK
6
CONTINUOUS
10
4.4368282283464566
20
-5.6408968503937009
11
4.4405777559055117
21
-5.6446464173228348
0
LINE
8
BLACK
6
CONTINUOUS
10
4.4405777559055117
20
-5.6446464173228348
11
4.4443272834645668
21
-5.652145472440945
0
LINE
8
BLACK
6
CONTINUOUS
10
4.4443272834645668
20
-5.652145472440945
11
4.4443272834645668
21
-5.6708931102362206
0
LINE
8
BLACK
6
CONTINUOUS
10
4.4443272834645668
20
-5.6708931102362206
11
4.4405777559055117
21
-5.6783921653543308
0
LINE
8
BLACK
6
CONTINUOUS
10
4.4405777559055117
20
-5.6783921653543308
11
4.4368282283464566
21
-5.6821417322834646
0
LINE
8
BLACK
6
CONTINUOUS
10
4.4368282283464566
20
-5.6821417322834646
11
4.4293291732283464
21
-5.6858912598425198
0
LINE
8
BLACK
6
CONTINUOUS
10
4.4293291732283464
20
-5.6858912598425198
11
4.4105814960629921
21
-5.6858912598425198
0
LINE
8
BLACK
6
CONTINUOUS
10
4.4105814960629921
20
-5.6858912598425198
11
4.4030824409448819
21
-5.6821417322834646
0
LINE
8
BLACK
6
CONTINUOUS
10
4.4030824409448819
20
-5.6821417322834646
11
4.3993329133858268
21
-5.6783921653543308
0
LINE
8
BLACK
6
CONTINUOUS
10
4.493071181102362
20
-5.6071511023622049
11
4.500570275590551
21
-5.6071511023622049
0
LINE
8
BLACK
6
CONTINUOUS
10
4.500570275590551
20
-5.6071511023622049
11
4.5080693307086612
21
-5.61090062992126
0
LINE
8
BLACK
6
CONTINUOUS
10
4.5080693307086612
20
-5.61090062992126
11
4.5118188582677163
21
-5.6146501574803152
0
LINE
8
BLACK
6
CONTINUOUS
10
4.5118188582677163
20
-5.6146501574803152
11
4.5155683858267714
21
-5.6221492125984254
0
LINE
8
BLACK
6
CONTINUOUS
10
4.5155683858267714
20
-5.6221492125984254
11
4.5193179133858266
21
-5.6371473228346458
0
LINE
8
BLACK
6
CONTINUOUS
10
4.5193179133858266
20
-5.6371473228346458
11
4.5193179133858266
21
-5.6558950000000001
0
LINE
8
BLACK
6
CONTINUOUS
10
4.5193179133858266
20
-5.6558950000000001
11
4.5155683858267714
21
-5.6708931102362206
0
LINE
8
BLACK
6
CONTINUOUS
10
4.5155683858267714
20
-5.6708931102362206
11
4.5118188582677163
21
-5.6783921653543308
0
LINE
8
BLACK
6
CONTINUOUS
10
4.5118188582677163
20
-5.6783921653543308
11
4.5080693307086612
21
-5.6821417322834646
0
LINE
8
BLACK
6
CONTINUOUS
10
4.5080693307086612
20
-5.6821417322834646
11
4.500570275590551
21
-5.6858912598425198
0
LINE
8
BLACK
6
CONTINUOUS
10
4.500570275590551
20
-5.6858912598425198
11
4.493071181102362
21
-5.6858912598425198
0
LINE
8
BLACK
6
CONTINUOUS
10
4.493071181102362
20
-5.6858912598425198
11
4.4855721259842518
21
-5.6821417322834646
0
LINE
8
BLACK
6
CONTINUOUS
10
4.4855721259842518
20
-5.6821417322834646
11
4.4818225984251967
21
-5.6783921653543308
0
LINE
8
BLACK
6
CONTINUOUS
10
4.4818225984251967
20
-5.6783921653543308
11
4.4780730708661416
21
-5.6708931102362206
0
LINE
8
BLACK
6
CONTINUOUS
10
4.4780730708661416
20
-5.6708931102362206
11
4.4743235433070865
21
-5.6558950000000001
0
LINE
8
BLACK
6
CONTINUOUS
10
4.4743235433070865
20
-5.6558950000000001
11
4.4743235433070865
21
-5.6371473228346458
0
LINE
8
BLACK
6
CONTINUOUS
10
4.4743235433070865
20
-5.6371473228346458
11
4.4780730708661416
21
-5.6221492125984254
0
LINE
8
BLACK
6
CONTINUOUS
10
4.4780730708661416
20
-5.6221492125984254
11
4.4818225984251967
21
-5.6146501574803152
0
LINE
8
BLACK
6
CONTINUOUS
10
4.4818225984251967
20
-5.6146501574803152
11
4.4855721259842518
21
-5.61090062992126
0
LINE
8
BLACK
6
CONTINUOUS
10
4.4855721259842518
20
-5.61090062992126
11
4.493071181102362
21
-5.6071511023622049
0
LINE
8
BLACK
6
CONTINUOUS
10
4.5680618110236217
20
-5.6071511023622049
11
4.5755609055118107
21
-5.6071511023622049
0
LINE
8
BLACK
6
CONTINUOUS
10
4.5755609055118107
20
-5.6071511023622049
11
4.5830599606299209
21
-5.61090062992126
0
LINE
8
BLACK
6
CONTINUOUS
10
4.5830599606299209
20
-5.61090062992126
11
4.586809488188976
21
-5.6146501574803152
0
LINE
8
BLACK
6
CONTINUOUS
10
4.586809488188976
20
-5.6146501574803152
11
4.5905590157480312
21
-5.6221492125984254
0
LINE
8
BLACK
6
CONTINUOUS
10
4.5905590157480312
20
-5.6221492125984254
11
4.5943085433070863
21
-5.6371473228346458
0
LINE
8
BLACK
6
CONTINUOUS
10
4.5943085433070863
20
-5.6371473228346458
11
4.5943085433070863
21
-5.6558950000000001
0
LINE
8
BLACK
6
CONTINUOUS
10
4.5943085433070863
20
-5.6558950000000001
11
4.5905590157480312
21
-5.6708931102362206
0
LINE
8
BLACK
6
CONTINUOUS
10
4.5905590157480312
20
-5.6708931102362206
11
4.586809488188976
21
-5.6783921653543308
0
LINE
8
BLACK
6
CONTINUOUS
10
4.586809488188976
20
-5.6783921653543308
11
4.5830599606299209
21
-5.6821417322834646
0
LINE
8
BLACK
6
CONTINUOUS
10
4.5830599606299209
20
-5.6821417322834646
11
4.5755609055118107
21
-5.6858912598425198
0
LINE
8
BLACK
6
CONTINUOUS
10
4.5755609055118107
20
-5.6858912598425198
11
4.5680618110236217
21
-5.6858912598425198
0
LINE
8
BLACK
6
CONTINUOUS
10
4.5680618110236217
20
-5.6858912598425198
11
4.5605627559055115
21
-5.6821417322834646
0
LINE
8
BLACK
6
CONTINUOUS
10
4.5605627559055115
20
-5.6821417322834646
11
4.5568132283464564
21
-5.6783921653543308
0
LINE
8
BLACK
6
CONTINUOUS
10
4.5568132283464564
20
-5.6783921653543308
11
4.5530637007874013
21
-5.6708931102362206
0
LINE
8
BLACK
6
CONTINUOUS
10
4.5530637007874013
20
-5.6708931102362206
11
4.5493141732283462
21
-5.6558950000000001
0
LINE
8
BLACK
6
CONTINUOUS
10
4.5493141732283462
20
-5.6558950000000001
11
4.5493141732283462
21
-5.6371473228346458
0
LINE
8
BLACK
6
CONTINUOUS
10
4.5493141732283462
20
-5.6371473228346458
11
4.5530637007874013
21
-5.6221492125984254
0
LINE
8
BLACK
6
CONTINUOUS
10
4.5530637007874013
20
-5.6221492125984254
11
4.5568132283464564
21
-5.6146501574803152
0
LINE
8
BLACK
6
CONTINUOUS
10
4.5568132283464564
20
-5.6146501574803152
11
4.5605627559055115
21
-5.61090062992126
0
LINE
8
BLACK
6
CONTINUOUS
10
4.5605627559055115
20
-5.61090062992126
11
4.5680618110236217
21
-5.6071511023622049
0
LINE
8
BLACK
6
CONTINUOUS
10
4.6243048031496059
20
-5.6071511023622049
11
4.6243048031496059
21
-5.6221492125984254
0
LINE
8
BLACK
6
CONTINUOUS
10
4.6543010629921255
20
-5.6071511023622049
11
4.6543010629921255
21
-5.6221492125984254
0
LINE
8
BLACK
6
CONTINUOUS
10
4.7705365748031499
20
-5.7158874803149606
11
4.766787007874016
21
-5.7121379527559055
0
LINE
8
BLACK
6
CONTINUOUS
10
4.766787007874016
20
-5.7121379527559055
11
4.7592879527559058
21
-5.7008893700787402
0
LINE
8
BLACK
6
CONTINUOUS
10
4.7592879527559058
20
-5.7008893700787402
11
4.7555384251968507
21
-5.69339031496063
0
LINE
8
BLACK
6
CONTINUOUS
10
4.7555384251968507
20
-5.69339031496063
11
4.7517888976377956
21
-5.6821417322834646
0
LINE
8
BLACK
6
CONTINUOUS
10
4.7517888976377956
20
-5.6821417322834646
11
4.7480393700787404
21
-5.6633940551181103
0
LINE
8
BLACK
6
CONTINUOUS
10
4.7480393700787404
20
-5.6633940551181103
11
4.7480393700787404
21
-5.6483959448818899
0
LINE
8
BLACK
6
CONTINUOUS
10
4.7480393700787404
20
-5.6483959448818899
11
4.7517888976377956
21
-5.6296482677165356
0
LINE
8
BLACK
6
CONTINUOUS
10
4.7517888976377956
20
-5.6296482677165356
11
4.7555384251968507
21
-5.6183996850393703
0
LINE
8
BLACK
6
CONTINUOUS
10
4.7555384251968507
20
-5.6183996850393703
11
4.7592879527559058
21
-5.61090062992126
0
LINE
8
BLACK
6
CONTINUOUS
10
4.7592879527559058
20
-5.61090062992126
11
4.766787007874016
21
-5.599652007874016
0
LINE
8
BLACK
6
CONTINUOUS
10
4.766787007874016
20
-5.599652007874016
11
4.7705365748031499
21
-5.5959024803149608
0
LINE
8
BLACK
6
CONTINUOUS
10
4.8155309055118112
20
-5.6071511023622049
11
4.8230300000000002
21
-5.6071511023622049
0
LINE
8
BLACK
6
CONTINUOUS
10
4.8230300000000002
20
-5.6071511023622049
11
4.8305290551181104
21
-5.61090062992126
0
LINE
8
BLACK
6
CONTINUOUS
10
4.8305290551181104
20
-5.61090062992126
11
4.8342785826771655
21
-5.6146501574803152
0
LINE
8
BLACK
6
CONTINUOUS
10
4.8342785826771655
20
-5.6146501574803152
11
4.8380281102362206
21
-5.6221492125984254
0
LINE
8
BLACK
6
CONTINUOUS
10
4.8380281102362206
20
-5.6221492125984254
11
4.8417776377952757
21
-5.6371473228346458
0
LINE
8
BLACK
6
CONTINUOUS
10
4.8417776377952757
20
-5.6371473228346458
11
4.8417776377952757
21
-5.6558950000000001
0
LINE
8
BLACK
6
CONTINUOUS
10
4.8417776377952757
20
-5.6558950000000001
11
4.8380281102362206
21
-5.6708931102362206
0
LINE
8
BLACK
6
CONTINUOUS
10
4.8380281102362206
20
-5.6708931102362206
11
4.8342785826771655
21
-5.6783921653543308
0
LINE
8
BLACK
6
CONTINUOUS
10
4.8342785826771655
20
-5.6783921653543308
11
4.8305290551181104
21
-5.6821417322834646
0
LINE
8
BLACK
6
CONTINUOUS
10
4.8305290551181104
20
-5.6821417322834646
11
4.8230300000000002
21
-5.6858912598425198
0
LINE
8
BLACK
6
CONTINUOUS
10
4.8230300000000002
20
-5.6858912598425198
11
4.8155309055118112
21
-5.6858912598425198
0
LINE
8
BLACK
6
CONTINUOUS
10
4.8155309055118112
20
-5.6858912598425198
11
4.808031850393701
21
-5.6821417322834646
0
LINE
8
BLACK
6
CONTINUOUS
10
4.808031850393701
20
-5.6821417322834646
11
4.8042823228346458
21
-5.6783921653543308
0
LINE
8
BLACK
6
CONTINUOUS
10
4.8042823228346458
20
-5.6783921653543308
11
4.8005327952755907
21
-5.6708931102362206
0
LINE
8
BLACK
6
CONTINUOUS
10
4.8005327952755907
20
-5.6708931102362206
11
4.7967832677165356
21
-5.6558950000000001
0
LINE
8
BLACK
6
CONTINUOUS
10
4.7967832677165356
20
-5.6558950000000001
11
4.7967832677165356
21
-5.6371473228346458
0
LINE
8
BLACK
6
CONTINUOUS
10
4.7967832677165356
20
-5.6371473228346458
11
4.8005327952755907
21
-5.6221492125984254
0
LINE
8
BLACK
6
CONTINUOUS
10
4.8005327952755907
20
-5.6221492125984254
11
4.8042823228346458
21
-5.6146501574803152
0
LINE
8
BLACK
6
CONTINUOUS
10
4.8042823228346458
20
-5.6146501574803152
11
4.808031850393701
21
-5.61090062992126
0
LINE
8
BLACK
6
CONTINUOUS
10
4.808031850393701
20
-5.61090062992126
11
4.8155309055118112
21
-5.6071511023622049
0
LINE
8
BLACK
6
CONTINUOUS
10
4.9355159448818897
20
-5.6858912598425198
11
4.9355159448818897
21
-5.6071511023622049
0
LINE
8
BLACK
6
CONTINUOUS
10
4.9692617322834645
20
-5.6858912598425198
11
4.9692617322834645
21
-5.6446464173228348
0
LINE
8
BLACK
6
CONTINUOUS
10
4.9692617322834645
20
-5.6446464173228348
11
4.9655122047244094
21
-5.6371473228346458
0
LINE
8
BLACK
6
CONTINUOUS
10
4.9655122047244094
20
-5.6371473228346458
11
4.9580131496062991
21
-5.6333977952755907
0
LINE
8
BLACK
6
CONTINUOUS
10
4.9580131496062991
20
-5.6333977952755907
11
4.946764527559055
21
-5.6333977952755907
0
LINE
8
BLACK
6
CONTINUOUS
10
4.946764527559055
20
-5.6333977952755907
11
4.9392654724409448
21
-5.6371473228346458
0
LINE
8
BLACK
6
CONTINUOUS
10
4.9392654724409448
20
-5.6371473228346458
11
4.9355159448818897
21
-5.6408968503937009
0
LINE
8
BLACK
6
CONTINUOUS
10
5.0180056299212596
20
-5.6858912598425198
11
5.0105065748031494
21
-5.6821417322834646
0
LINE
8
BLACK
6
CONTINUOUS
10
5.0105065748031494
20
-5.6821417322834646
11
5.0067570472440943
21
-5.6783921653543308
0
LINE
8
BLACK
6
CONTINUOUS
10
5.0067570472440943
20
-5.6783921653543308
11
5.0030075196850392
21
-5.6708931102362206
0
LINE
8
BLACK
6
CONTINUOUS
10
5.0030075196850392
20
-5.6708931102362206
11
5.0030075196850392
21
-5.6483959448818899
0
LINE
8
BLACK
6
CONTINUOUS
10
5.0030075196850392
20
-5.6483959448818899
11
5.0067570472440943
21
-5.6408968503937009
0
LINE
8
BLACK
6
CONTINUOUS
10
5.0067570472440943
20
-5.6408968503937009
11
5.0105065748031494
21
-5.6371473228346458
0
LINE
8
BLACK
6
CONTINUOUS
10
5.0105065748031494
20
-5.6371473228346458
11
5.0180056299212596
21
-5.6333977952755907
0
LINE
8
BLACK
6
CONTINUOUS
10
5.0180056299212596
20
-5.6333977952755907
11
5.0292542519685037
21
-5.6333977952755907
0
LINE
8
BLACK
6
CONTINUOUS
10
5.0292542519685037
20
-5.6333977952755907
11
5.036753307086614
21
-5.6371473228346458
0
LINE
8
BLACK
6
CONTINUOUS
10
5.036753307086614
20
-5.6371473228346458
11
5.0405028346456691
21
-5.6408968503937009
0
LINE
8
BLACK
6
CONTINUOUS
10
5.0405028346456691
20
-5.6408968503937009
11
5.0442523622047242
21
-5.6483959448818899
0
LINE
8
BLACK
6
CONTINUOUS
10
5.0442523622047242
20
-5.6483959448818899
11
5.0442523622047242
21
-5.6708931102362206
0
LINE
8
BLACK
6
CONTINUOUS
10
5.0442523622047242
20
-5.6708931102362206
11
5.0405028346456691
21
-5.6783921653543308
0
LINE
8
BLACK
6
CONTINUOUS
10
5.0405028346456691
20
-5.6783921653543308
11
5.036753307086614
21
-5.6821417322834646
0
LINE
8
BLACK
6
CONTINUOUS
10
5.036753307086614
20
-5.6821417322834646
11
5.0292542519685037
21
-5.6858912598425198
0
LINE
8
BLACK
6
CONTINUOUS
10
5.0292542519685037
20
-5.6858912598425198
11
5.0180056299212596
21
-5.6858912598425198
0
LINE
8
BLACK
6
CONTINUOUS
10
5.0892467322834642
20
-5.6858912598425198
11
5.081747677165354
21
-5.6821417322834646
0
LINE
8
BLACK
6
CONTINUOUS
10
5.081747677165354
20
-5.6821417322834646
11
5.0779981496062989
21
-5.6746426377952757
0
LINE
8
BLACK
6
CONTINUOUS
10
5.0779981496062989
20
-5.6746426377952757
11
5.0779981496062989
21
-5.6071511023622049
0
LINE
8
BLACK
6
CONTINUOUS
10
5.1492392519685035
20
-5.6821417322834646
11
5.1417401968503933
21
-5.6858912598425198
0
LINE
8
BLACK
6
CONTINUOUS
10
5.1417401968503933
20
-5.6858912598425198
11
5.1267420472440941
21
-5.6858912598425198
0
LINE
8
BLACK
6
CONTINUOUS
10
5.1267420472440941
20
-5.6858912598425198
11
5.1192429921259839
21
-5.6821417322834646
0
LINE
8
BLACK
6
CONTINUOUS
10
5.1192429921259839
20
-5.6821417322834646
11
5.1154934645669288
21
-5.6746426377952757
0
LINE
8
BLACK
6
CONTINUOUS
10
5.1154934645669288
20
-5.6746426377952757
11
5.1154934645669288
21
-5.6446464173228348
0
LINE
8
BLACK
6
CONTINUOUS
10
5.1154934645669288
20
-5.6446464173228348
11
5.1192429921259839
21
-5.6371473228346458
0
LINE
8
BLACK
6
CONTINUOUS
10
5.1192429921259839
20
-5.6371473228346458
11
5.1267420472440941
21
-5.6333977952755907
0
LINE
8
BLACK
6
CONTINUOUS
10
5.1267420472440941
20
-5.6333977952755907
11
5.1417401968503933
21
-5.6333977952755907
0
LINE
8
BLACK
6
CONTINUOUS
10
5.1417401968503933
20
-5.6333977952755907
11
5.1492392519685035
21
-5.6371473228346458
0
LINE
8
BLACK
6
CONTINUOUS
10
5.1492392519685035
20
-5.6371473228346458
11
5.1529887795275586
21
-5.6446464173228348
0
LINE
8
BLACK
6
CONTINUOUS
10
5.1529887795275586
20
-5.6446464173228348
11
5.1529887795275586
21
-5.652145472440945
0
LINE
8
BLACK
6
CONTINUOUS
10
5.1529887795275586
20
-5.652145472440945
11
5.1154934645669288
21
-5.6596445275590552
0
LINE
8
BLACK
6
CONTINUOUS
10
5.1829850393700783
20
-5.6821417322834646
11
5.1904840944881885
21
-5.6858912598425198
0
LINE
8
BLACK
6
CONTINUOUS
10
5.1904840944881885
20
-5.6858912598425198
11
5.2054822047244089
21
-5.6858912598425198
0
LINE
8
BLACK
6
CONTINUOUS
10
5.2054822047244089
20
-5.6858912598425198
11
5.2129812992125979
21
-5.6821417322834646
0
LINE
8
BLACK
6
CONTINUOUS
10
5.2129812992125979
20
-5.6821417322834646
11
5.216730826771653
21
-5.6746426377952757
0
LINE
8
BLACK
6
CONTINUOUS
10
5.216730826771653
20
-5.6746426377952757
11
5.216730826771653
21
-5.6708931102362206
0
LINE
8
BLACK
6
CONTINUOUS
10
5.216730826771653
20
-5.6708931102362206
11
5.2129812992125979
21
-5.6633940551181103
0
LINE
8
BLACK
6
CONTINUOUS
10
5.2129812992125979
20
-5.6633940551181103
11
5.2054822047244089
21
-5.6596445275590552
0
LINE
8
BLACK
6
CONTINUOUS
10
5.2054822047244089
20
-5.6596445275590552
11
5.1942336220472436
21
-5.6596445275590552
0
LINE
8
BLACK
6
CONTINUOUS
10
5.1942336220472436
20
-5.6596445275590552
11
5.1867345669291334
21
-5.6558950000000001
0
LINE
8
BLACK
6
CONTINUOUS
10
5.1867345669291334
20
-5.6558950000000001
11
5.1829850393700783
21
-5.6483959448818899
0
LINE
8
BLACK
6
CONTINUOUS
10
5.1829850393700783
20
-5.6483959448818899
11
5.1829850393700783
21
-5.6446464173228348
0
LINE
8
BLACK
6
CONTINUOUS
10
5.1829850393700783
20
-5.6446464173228348
11
5.1867345669291334
21
-5.6371473228346458
0
LINE
8
BLACK
6
CONTINUOUS
10
5.1867345669291334
20
-5.6371473228346458
11
5.1942336220472436
21
-5.6333977952755907
0
LINE
8
BLACK
6
CONTINUOUS
10
5.1942336220472436
20
-5.6333977952755907
11
5.2054822047244089
21
-5.6333977952755907
0
LINE
8
BLACK
6
CONTINUOUS
10
5.2054822047244089
20
-5.6333977952755907
11
5.2129812992125979
21
-5.6371473228346458
0
LINE
8
BLACK
6
CONTINUOUS
10
5.3104691338582679
20
-5.6558950000000001
11
5.3704616535433072
21
-5.6558950000000001
0
LINE
8
BLACK
6
CONTINUOUS
10
5.3404653937007875
20
-5.6858912598425198
11
5.3404653937007875
21
-5.6258987401574805
0
LINE
8
BLACK
6
CONTINUOUS
10
5.4641999212598424
20
-5.6146501574803152
11
5.4679494488188976
21
-5.61090062992126
0
LINE
8
BLACK
6
CONTINUOUS
10
5.4679494488188976
20
-5.61090062992126
11
5.4754485039370078
21
-5.6071511023622049
0
LINE
8
BLACK
6
CONTINUOUS
10
5.4754485039370078
20
-5.6071511023622049
11
5.4941961811023621
21
-5.6071511023622049
0
LINE
8
BLACK
6
CONTINUOUS
10
5.4941961811023621
20
-5.6071511023622049
11
5.5016952362204723
21
-5.61090062992126
0
LINE
8
BLACK
6
CONTINUOUS
10
5.5016952362204723
20
-5.61090062992126
11
5.5054447637795274
21
-5.6146501574803152
0
LINE
8
BLACK
6
CONTINUOUS
10
5.5054447637795274
20
-5.6146501574803152
11
5.5091942913385825
21
-5.6221492125984254
0
LINE
8
BLACK
6
CONTINUOUS
10
5.5091942913385825
20
-5.6221492125984254
11
5.5091942913385825
21
-5.6296482677165356
0
LINE
8
BLACK
6
CONTINUOUS
10
5.5091942913385825
20
-5.6296482677165356
11
5.5054447637795274
21
-5.6408968503937009
0
LINE
8
BLACK
6
CONTINUOUS
10
5.5054447637795274
20
-5.6408968503937009
11
5.4604503937007873
21
-5.6858912598425198
0
LINE
8
BLACK
6
CONTINUOUS
10
5.4604503937007873
20
-5.6858912598425198
11
5.5091942913385825
21
-5.6858912598425198
0
LINE
8
BLACK
6
CONTINUOUS
10
5.5991830708661414
20
-5.6821417322834646
11
5.6066821259842516
21
-5.6858912598425198
0
LINE
8
BLACK
6
CONTINUOUS
10
5.6066821259842516
20
-5.6858912598425198
11
5.6216802362204721
21
-5.6858912598425198
0
LINE
8
BLACK
6
CONTINUOUS
10
5.6216802362204721
20
-5.6858912598425198
11
5.6291793307086611
21
-5.6821417322834646
0
LINE
8
BLACK
6
CONTINUOUS
10
5.6291793307086611
20
-5.6821417322834646
11
5.6329288582677162
21
-5.6746426377952757
0
LINE
8
BLACK
6
CONTINUOUS
10
5.6329288582677162
20
-5.6746426377952757
11
5.6329288582677162
21
-5.6708931102362206
0
LINE
8
BLACK
6
CONTINUOUS
10
5.6329288582677162
20
-5.6708931102362206
11
5.6291793307086611
21
-5.6633940551181103
0
LINE
8
BLACK
6
CONTINUOUS
10
5.6291793307086611
20
-5.6633940551181103
11
5.6216802362204721
21
-5.6596445275590552
0
LINE
8
BLACK
6
CONTINUOUS
10
5.6216802362204721
20
-5.6596445275590552
11
5.6104316535433068
21
-5.6596445275590552
0
LINE
8
BLACK
6
CONTINUOUS
10
5.6104316535433068
20
-5.6596445275590552
11
5.6029325984251965
21
-5.6558950000000001
0
LINE
8
BLACK
6
CONTINUOUS
10
5.6029325984251965
20
-5.6558950000000001
11
5.5991830708661414
21
-5.6483959448818899
0
LINE
8
BLACK
6
CONTINUOUS
10
5.5991830708661414
20
-5.6483959448818899
11
5.5991830708661414
21
-5.6446464173228348
0
LINE
8
BLACK
6
CONTINUOUS
10
5.5991830708661414
20
-5.6446464173228348
11
5.6029325984251965
21
-5.6371473228346458
0
LINE
8
BLACK
6
CONTINUOUS
10
5.6029325984251965
20
-5.6371473228346458
11
5.6104316535433068
21
-5.6333977952755907
0
LINE
8
BLACK
6
CONTINUOUS
10
5.6104316535433068
20
-5.6333977952755907
11
5.6216802362204721
21
-5.6333977952755907
0
LINE
8
BLACK
6
CONTINUOUS
10
5.6216802362204721
20
-5.6333977952755907
11
5.6291793307086611
21
-5.6371473228346458
0
LINE
8
BLACK
6
CONTINUOUS
10
5.6779232283464562
20
-5.6858912598425198
11
5.670424173228346
21
-5.6821417322834646
0
LINE
8
BLACK
6
CONTINUOUS
10
5.670424173228346
20
-5.6821417322834646
11
5.6666746456692909
21
-5.6746426377952757
0
LINE
8
BLACK
6
CONTINUOUS
10
5.6666746456692909
20
-5.6746426377952757
11
5.6666746456692909
21
-5.6071511023622049
0
LINE
8
BLACK
6
CONTINUOUS
10
5.7191680708661412
20
-5.6858912598425198
11
5.711669015748031
21
-5.6821417322834646
0
LINE
8
BLACK
6
CONTINUOUS
10
5.711669015748031
20
-5.6821417322834646
11
5.7079194881889759
21
-5.6783921653543308
0
LINE
8
BLACK
6
CONTINUOUS
10
5.7079194881889759
20
-5.6783921653543308
11
5.7041699606299208
21
-5.6708931102362206
0
LINE
8
BLACK
6
CONTINUOUS
10
5.7041699606299208
20
-5.6708931102362206
11
5.7041699606299208
21
-5.6483959448818899
0
LINE
8
BLACK
6
CONTINUOUS
10
5.7041699606299208
20
-5.6483959448818899
11
5.7079194881889759
21
-5.6408968503937009
0
LINE
8
BLACK
6
CONTINUOUS
10
5.7079194881889759
20
-5.6408968503937009
11
5.711669015748031
21
-5.6371473228346458
0
LINE
8
BLACK
6
CONTINUOUS
10
5.711669015748031
20
-5.6371473228346458
11
5.7191680708661412
21
-5.6333977952755907
0
LINE
8
BLACK
6
CONTINUOUS
10
5.7191680708661412
20
-5.6333977952755907
11
5.7304166929133853
21
-5.6333977952755907
0
LINE
8
BLACK
6
CONTINUOUS
10
5.7304166929133853
20
-5.6333977952755907
11
5.7379157480314955
21
-5.6371473228346458
0
LINE
8
BLACK
6
CONTINUOUS
10
5.7379157480314955
20
-5.6371473228346458
11
5.7416652755905506
21
-5.6408968503937009
0
LINE
8
BLACK
6
CONTINUOUS
10
5.7416652755905506
20
-5.6408968503937009
11
5.7454148031496057
21
-5.6483959448818899
0
LINE
8
BLACK
6
CONTINUOUS
10
5.7454148031496057
20
-5.6483959448818899
11
5.7454148031496057
21
-5.6708931102362206
0
LINE
8
BLACK
6
CONTINUOUS
10
5.7454148031496057
20
-5.6708931102362206
11
5.7416652755905506
21
-5.6783921653543308
0
LINE
8
BLACK
6
CONTINUOUS
10
5.7416652755905506
20
-5.6783921653543308
11
5.7379157480314955
21
-5.6821417322834646
0
LINE
8
BLACK
6
CONTINUOUS
10
5.7379157480314955
20
-5.6821417322834646
11
5.7304166929133853
21
-5.6858912598425198
0
LINE
8
BLACK
6
CONTINUOUS
10
5.7304166929133853
20
-5.6858912598425198
11
5.7191680708661412
21
-5.6858912598425198
0
LINE
8
BLACK
6
CONTINUOUS
10
5.767912007874016
20
-5.6333977952755907
11
5.7979082283464569
21
-5.6333977952755907
0
LINE
8
BLACK
6
CONTINUOUS
10
5.7791605905511814
20
-5.6071511023622049
11
5.7791605905511814
21
-5.6746426377952757
0
LINE
8
BLACK
6
CONTINUOUS
10
5.7791605905511814
20
-5.6746426377952757
11
5.7829101181102365
21
-5.6821417322834646
0
LINE
8
BLACK
6
CONTINUOUS
10
5.7829101181102365
20
-5.6821417322834646
11
5.7904091732283467
21
-5.6858912598425198
0
LINE
8
BLACK
6
CONTINUOUS
10
5.7904091732283467
20
-5.6858912598425198
11
5.7979082283464569
21
-5.6858912598425198
0
LINE
8
BLACK
6
CONTINUOUS
10
5.8204054330708663
20
-5.6821417322834646
11
5.8279044881889766
21
-5.6858912598425198
0
LINE
8
BLACK
6
CONTINUOUS
10
5.8279044881889766
20
-5.6858912598425198
11
5.842902598425197
21
-5.6858912598425198
0
LINE
8
BLACK
6
CONTINUOUS
10
5.842902598425197
20
-5.6858912598425198
11
5.850401692913386
21
-5.6821417322834646
0
LINE
8
BLACK
6
CONTINUOUS
10
5.850401692913386
20
-5.6821417322834646
11
5.8541512204724411
21
-5.6746426377952757
0
LINE
8
BLACK
6
CONTINUOUS
10
5.8541512204724411
20
-5.6746426377952757
11
5.8541512204724411
21
-5.6708931102362206
0
LINE
8
BLACK
6
CONTINUOUS
10
5.8541512204724411
20
-5.6708931102362206
11
5.850401692913386
21
-5.6633940551181103
0
LINE
8
BLACK
6
CONTINUOUS
10
5.850401692913386
20
-5.6633940551181103
11
5.842902598425197
21
-5.6596445275590552
0
LINE
8
BLACK
6
CONTINUOUS
10
5.842902598425197
20
-5.6596445275590552
11
5.8316540157480317
21
-5.6596445275590552
0
LINE
8
BLACK
6
CONTINUOUS
10
5.8316540157480317
20
-5.6596445275590552
11
5.8241549606299214
21
-5.6558950000000001
0
LINE
8
BLACK
6
CONTINUOUS
10
5.8241549606299214
20
-5.6558950000000001
11
5.8204054330708663
21
-5.6483959448818899
0
LINE
8
BLACK
6
CONTINUOUS
10
5.8204054330708663
20
-5.6483959448818899
11
5.8204054330708663
21
-5.6446464173228348
0
LINE
8
BLACK
6
CONTINUOUS
10
5.8204054330708663
20
-5.6446464173228348
11
5.8241549606299214
21
-5.6371473228346458
0
LINE
8
BLACK
6
CONTINUOUS
10
5.8241549606299214
20
-5.6371473228346458
11
5.8316540157480317
21
-5.6333977952755907
0
LINE
8
BLACK
6
CONTINUOUS
10
5.8316540157480317
20
-5.6333977952755907
11
5.842902598425197
21
-5.6333977952755907
0
LINE
8
BLACK
6
CONTINUOUS
10
5.842902598425197
20
-5.6333977952755907
11
5.850401692913386
21
-5.6371473228346458
0
LINE
8
BLACK
6
CONTINUOUS
10
5.8803979527559056
20
-5.7158874803149606
11
5.8841474803149607
21
-5.7121379527559055
0
LINE
8
BLACK
6
CONTINUOUS
10
5.8841474803149607
20
-5.7121379527559055
11
5.8916465354330709
21
-5.7008893700787402
0
LINE
8
BLACK
6
CONTINUOUS
10
5.8916465354330709
20
-5.7008893700787402
11
5.895396062992126
21
-5.69339031496063
0
LINE
8
BLACK
6
CONTINUOUS
10
5.895396062992126
20
-5.69339031496063
11
5.8991455905511812
21
-5.6821417322834646
0
LINE
8
BLACK
6
CONTINUOUS
10
5.8991455905511812
20
-5.6821417322834646
11
5.9028951181102363
21
-5.6633940551181103
0
LINE
8
BLACK
6
CONTINUOUS
10
5.9028951181102363
20
-5.6633940551181103
11
5.9028951181102363
21
-5.6483959448818899
0
LINE
8
BLACK
6
CONTINUOUS
10
5.9028951181102363
20
-5.6483959448818899
11
5.8991455905511812
21
-5.6296482677165356
0
LINE
8
BLACK
6
CONTINUOUS
10
5.8991455905511812
20
-5.6296482677165356
11
5.895396062992126
21
-5.6183996850393703
0
LINE
8
BLACK
6
CONTINUOUS
10
5.895396062992126
20
-5.6183996850393703
11
5.8916465354330709
21
-5.61090062992126
0
LINE
8
BLACK
6
CONTINUOUS
10
5.8916465354330709
20
-5.61090062992126
11
5.8841474803149607
21
-5.599652007874016
0
LINE
8
BLACK
6
CONTINUOUS
10
5.8841474803149607
20
-5.599652007874016
11
5.8803979527559056
21
-5.5959024803149608
0
LINE
8
BLACK
6
CONTINUOUS
10
3.3236614173228345
20
-5.7144409448818898
11
3.3236614173228345
21
-5.7931811023622046
0
LINE
8
BLACK
6
CONTINUOUS
10
3.2842913385826771
20
-5.7538110236220472
11
3.3630314960629919
21
-5.7538110236220472
0
LINE
8
BLACK
6
CONTINUOUS
10
3.4582004724409448
20
-5.7110881102362203
11
3.5069443700787399
21
-5.7110881102362203
0
LINE
8
BLACK
6
CONTINUOUS
10
3.5069443700787399
20
-5.7110881102362203
11
3.4806976377952754
21
-5.7410843307086612
0
LINE
8
BLACK
6
CONTINUOUS
10
3.4806976377952754
20
-5.7410843307086612
11
3.4919462598425195
21
-5.7410843307086612
0
LINE
8
BLACK
6
CONTINUOUS
10
3.4919462598425195
20
-5.7410843307086612
11
3.4994453149606297
21
-5.7448338582677163
0
LINE
8
BLACK
6
CONTINUOUS
10
3.4994453149606297
20
-5.7448338582677163
11
3.5031948425196848
21
-5.7485834251968502
0
LINE
8
BLACK
6
CONTINUOUS
10
3.5031948425196848
20
-5.7485834251968502
11
3.5069443700787399
21
-5.7560824803149604
0
LINE
8
BLACK
6
CONTINUOUS
10
3.5069443700787399
20
-5.7560824803149604
11
3.5069443700787399
21
-5.7748301181102359
0
LINE
8
BLACK
6
CONTINUOUS
10
3.5069443700787399
20
-5.7748301181102359
11
3.5031948425196848
21
-5.7823291732283462
0
LINE
8
BLACK
6
CONTINUOUS
10
3.5031948425196848
20
-5.7823291732283462
11
3.4994453149606297
21
-5.78607874015748
0
LINE
8
BLACK
6
CONTINUOUS
10
3.4994453149606297
20
-5.78607874015748
11
3.4919462598425195
21
-5.7898282677165351
0
LINE
8
BLACK
6
CONTINUOUS
10
3.4919462598425195
20
-5.7898282677165351
11
3.4694490551181101
21
-5.7898282677165351
0
LINE
8
BLACK
6
CONTINUOUS
10
3.4694490551181101
20
-5.7898282677165351
11
3.4619499999999999
21
-5.78607874015748
0
LINE
8
BLACK
6
CONTINUOUS
10
3.4619499999999999
20
-5.78607874015748
11
3.4582004724409448
21
-5.7823291732283462
0
LINE
8
BLACK
6
CONTINUOUS
10
3.5406901574803147
20
-5.7823291732283462
11
3.5444396850393698
21
-5.78607874015748
0
LINE
8
BLACK
6
CONTINUOUS
10
3.5444396850393698
20
-5.78607874015748
11
3.5406901574803147
21
-5.7898282677165351
0
LINE
8
BLACK
6
CONTINUOUS
10
3.5406901574803147
20
-5.7898282677165351
11
3.5369406299212596
21
-5.78607874015748
0
LINE
8
BLACK
6
CONTINUOUS
10
3.5369406299212596
20
-5.78607874015748
11
3.5406901574803147
21
-5.7823291732283462
0
LINE
8
BLACK
6
CONTINUOUS
10
3.5406901574803147
20
-5.7823291732283462
11
3.5406901574803147
21
-5.7898282677165351
0
LINE
8
BLACK
6
CONTINUOUS
10
3.6119312598425197
20
-5.7110881102362203
11
3.5969331102362205
21
-5.7110881102362203
0
LINE
8
BLACK
6
CONTINUOUS
10
3.5969331102362205
20
-5.7110881102362203
11
3.5894340551181103
21
-5.7148376377952754
0
LINE
8
BLACK
6
CONTINUOUS
10
3.5894340551181103
20
-5.7148376377952754
11
3.5856845275590552
21
-5.7185871653543305
0
LINE
8
BLACK
6
CONTINUOUS
10
3.5856845275590552
20
-5.7185871653543305
11
3.578185472440945
21
-5.7298357480314959
0
LINE
8
BLACK
6
CONTINUOUS
10
3.578185472440945
20
-5.7298357480314959
11
3.5744359448818899
21
-5.7448338582677163
0
LINE
8
BLACK
6
CONTINUOUS
10
3.5744359448818899
20
-5.7448338582677163
11
3.5744359448818899
21
-5.7748301181102359
0
LINE
8
BLACK
6
CONTINUOUS
10
3.5744359448818899
20
-5.7748301181102359
11
3.578185472440945
21
-5.7823291732283462
0
LINE
8
BLACK
6
CONTINUOUS
10
3.578185472440945
20
-5.7823291732283462
11
3.5819350000000001
21
-5.78607874015748
0
LINE
8
BLACK
6
CONTINUOUS
10
3.5819350000000001
20
-5.78607874015748
11
3.5894340551181103
21
-5.7898282677165351
0
LINE
8
BLACK
6
CONTINUOUS
10
3.5894340551181103
20
-5.7898282677165351
11
3.6044322047244095
21
-5.7898282677165351
0
LINE
8
BLACK
6
CONTINUOUS
10
3.6044322047244095
20
-5.7898282677165351
11
3.6119312598425197
21
-5.78607874015748
0
LINE
8
BLACK
6
CONTINUOUS
10
3.6119312598425197
20
-5.78607874015748
11
3.6156807874015748
21
-5.7823291732283462
0
LINE
8
BLACK
6
CONTINUOUS
10
3.6156807874015748
20
-5.7823291732283462
11
3.6194303149606299
21
-5.7748301181102359
0
LINE
8
BLACK
6
CONTINUOUS
10
3.6194303149606299
20
-5.7748301181102359
11
3.6194303149606299
21
-5.7560824803149604
0
LINE
8
BLACK
6
CONTINUOUS
10
3.6194303149606299
20
-5.7560824803149604
11
3.6156807874015748
21
-5.7485834251968502
0
LINE
8
BLACK
6
CONTINUOUS
10
3.6156807874015748
20
-5.7485834251968502
11
3.6119312598425197
21
-5.7448338582677163
0
LINE
8
BLACK
6
CONTINUOUS
10
3.6119312598425197
20
-5.7448338582677163
11
3.6044322047244095
21
-5.7410843307086612
0
LINE
8
BLACK
6
CONTINUOUS
10
3.6044322047244095
20
-5.7410843307086612
11
3.5894340551181103
21
-5.7410843307086612
0
LINE
8
BLACK
6
CONTINUOUS
10
3.5894340551181103
20
-5.7410843307086612
11
3.5819350000000001
21
-5.7448338582677163
0
LINE
8
BLACK
6
CONTINUOUS
10
3.5819350000000001
20
-5.7448338582677163
11
3.578185472440945
21
-5.7485834251968502
0
LINE
8
BLACK
6
CONTINUOUS
10
3.578185472440945
20
-5.7485834251968502
11
3.5744359448818899
21
-5.7560824803149604
0
LINE
8
BLACK
6
CONTINUOUS
10
3.6906714173228345
20
-5.7110881102362203
11
3.6531761023622047
21
-5.7110881102362203
0
LINE
8
BLACK
6
CONTINUOUS
10
3.6531761023622047
20
-5.7110881102362203
11
3.6494265748031496
21
-5.7485834251968502
0
LINE
8
BLACK
6
CONTINUOUS
10
3.6494265748031496
20
-5.7485834251968502
11
3.6531761023622047
21
-5.7448338582677163
0
LINE
8
BLACK
6
CONTINUOUS
10
3.6531761023622047
20
-5.7448338582677163
11
3.6606751574803149
21
-5.7410843307086612
0
LINE
8
BLACK
6
CONTINUOUS
10
3.6606751574803149
20
-5.7410843307086612
11
3.6794228346456692
21
-5.7410843307086612
0
LINE
8
BLACK
6
CONTINUOUS
10
3.6794228346456692
20
-5.7410843307086612
11
3.6869218897637794
21
-5.7448338582677163
0
LINE
8
BLACK
6
CONTINUOUS
10
3.6869218897637794
20
-5.7448338582677163
11
3.6906714173228345
21
-5.7485834251968502
0
LINE
8
BLACK
6
CONTINUOUS
10
3.6906714173228345
20
-5.7485834251968502
11
3.6944209448818897
21
-5.7560824803149604
0
LINE
8
BLACK
6
CONTINUOUS
10
3.6944209448818897
20
-5.7560824803149604
11
3.6944209448818897
21
-5.7748301181102359
0
LINE
8
BLACK
6
CONTINUOUS
10
3.6944209448818897
20
-5.7748301181102359
11
3.6906714173228345
21
-5.7823291732283462
0
LINE
8
BLACK
6
CONTINUOUS
10
3.6906714173228345
20
-5.7823291732283462
11
3.6869218897637794
21
-5.78607874015748
0
LINE
8
BLACK
6
CONTINUOUS
10
3.6869218897637794
20
-5.78607874015748
11
3.6794228346456692
21
-5.7898282677165351
0
LINE
8
BLACK
6
CONTINUOUS
10
3.6794228346456692
20
-5.7898282677165351
11
3.6606751574803149
21
-5.7898282677165351
0
LINE
8
BLACK
6
CONTINUOUS
10
3.6606751574803149
20
-5.7898282677165351
11
3.6531761023622047
21
-5.78607874015748
0
LINE
8
BLACK
6
CONTINUOUS
10
3.6531761023622047
20
-5.78607874015748
11
3.6494265748031496
21
-5.7823291732283462
0
LINE
8
BLACK
6
CONTINUOUS
10
3.7394153149606297
20
-5.7448338582677163
11
3.7319162598425195
21
-5.7410843307086612
0
LINE
8
BLACK
6
CONTINUOUS
10
3.7319162598425195
20
-5.7410843307086612
11
3.7281667322834644
21
-5.7373348031496061
0
LINE
8
BLACK
6
CONTINUOUS
10
3.7281667322834644
20
-5.7373348031496061
11
3.7244172047244093
21
-5.7298357480314959
0
LINE
8
BLACK
6
CONTINUOUS
10
3.7244172047244093
20
-5.7298357480314959
11
3.7244172047244093
21
-5.7260862204724408
0
LINE
8
BLACK
6
CONTINUOUS
10
3.7244172047244093
20
-5.7260862204724408
11
3.7281667322834644
21
-5.7185871653543305
0
LINE
8
BLACK
6
CONTINUOUS
10
3.7281667322834644
20
-5.7185871653543305
11
3.7319162598425195
21
-5.7148376377952754
0
LINE
8
BLACK
6
CONTINUOUS
10
3.7319162598425195
20
-5.7148376377952754
11
3.7394153149606297
21
-5.7110881102362203
0
LINE
8
BLACK
6
CONTINUOUS
10
3.7394153149606297
20
-5.7110881102362203
11
3.7544134645669289
21
-5.7110881102362203
0
LINE
8
BLACK
6
CONTINUOUS
10
3.7544134645669289
20
-5.7110881102362203
11
3.7619125196850391
21
-5.7148376377952754
0
LINE
8
BLACK
6
CONTINUOUS
10
3.7619125196850391
20
-5.7148376377952754
11
3.7656620472440943
21
-5.7185871653543305
0
LINE
8
BLACK
6
CONTINUOUS
10
3.7656620472440943
20
-5.7185871653543305
11
3.7694115748031494
21
-5.7260862204724408
0
LINE
8
BLACK
6
CONTINUOUS
10
3.7694115748031494
20
-5.7260862204724408
11
3.7694115748031494
21
-5.7298357480314959
0
LINE
8
BLACK
6
CONTINUOUS
10
3.7694115748031494
20
-5.7298357480314959
11
3.7656620472440943
21
-5.7373348031496061
0
LINE
8
BLACK
6
CONTINUOUS
10
3.7656620472440943
20
-5.7373348031496061
11
3.7619125196850391
21
-5.7410843307086612
0
LINE
8
BLACK
6
CONTINUOUS
10
3.7619125196850391
20
-5.7410843307086612
11
3.7544134645669289
21
-5.7448338582677163
0
LINE
8
BLACK
6
CONTINUOUS
10
3.7544134645669289
20
-5.7448338582677163
11
3.7394153149606297
21
-5.7448338582677163
0
LINE
8
BLACK
6
CONTINUOUS
10
3.7394153149606297
20
-5.7448338582677163
11
3.7319162598425195
21
-5.7485834251968502
0
LINE
8
BLACK
6
CONTINUOUS
10
3.7319162598425195
20
-5.7485834251968502
11
3.7281667322834644
21
-5.7523329527559053
0
LINE
8
BLACK
6
CONTINUOUS
10
3.7281667322834644
20
-5.7523329527559053
11
3.7244172047244093
21
-5.7598320078740155
0
LINE
8
BLACK
6
CONTINUOUS
10
3.7244172047244093
20
-5.7598320078740155
11
3.7244172047244093
21
-5.7748301181102359
0
LINE
8
BLACK
6
CONTINUOUS
10
3.7244172047244093
20
-5.7748301181102359
11
3.7281667322834644
21
-5.7823291732283462
0
LINE
8
BLACK
6
CONTINUOUS
10
3.7281667322834644
20
-5.7823291732283462
11
3.7319162598425195
21
-5.78607874015748
0
LINE
8
BLACK
6
CONTINUOUS
10
3.7319162598425195
20
-5.78607874015748
11
3.7394153149606297
21
-5.7898282677165351
0
LINE
8
BLACK
6
CONTINUOUS
10
3.7394153149606297
20
-5.7898282677165351
11
3.7544134645669289
21
-5.7898282677165351
0
LINE
8
BLACK
6
CONTINUOUS
10
3.7544134645669289
20
-5.7898282677165351
11
3.7619125196850391
21
-5.78607874015748
0
LINE
8
BLACK
6
CONTINUOUS
10
3.7619125196850391
20
-5.78607874015748
11
3.7656620472440943
21
-5.7823291732283462
0
LINE
8
BLACK
6
CONTINUOUS
10
3.7656620472440943
20
-5.7823291732283462
11
3.7694115748031494
21
-5.7748301181102359
0
LINE
8
BLACK
6
CONTINUOUS
10
3.7694115748031494
20
-5.7748301181102359
11
3.7694115748031494
21
-5.7598320078740155
0
LINE
8
BLACK
6
CONTINUOUS
10
3.7694115748031494
20
-5.7598320078740155
11
3.7656620472440943
21
-5.7523329527559053
0
LINE
8
BLACK
6
CONTINUOUS
10
3.7656620472440943
20
-5.7523329527559053
11
3.7619125196850391
21
-5.7485834251968502
0
LINE
8
BLACK
6
CONTINUOUS
10
3.7619125196850391
20
-5.7485834251968502
11
3.7544134645669289
21
-5.7448338582677163
0
LINE
8
BLACK
6
CONTINUOUS
10
3.8031573622047241
20
-5.7898282677165351
11
3.8031573622047241
21
-5.7373348031496061
0
LINE
8
BLACK
6
CONTINUOUS
10
3.8031573622047241
20
-5.7448338582677163
11
3.8069068897637792
21
-5.7410843307086612
0
LINE
8
BLACK
6
CONTINUOUS
10
3.8069068897637792
20
-5.7410843307086612
11
3.8144059448818899
21
-5.7373348031496061
0
LINE
8
BLACK
6
CONTINUOUS
10
3.8144059448818899
20
-5.7373348031496061
11
3.825654566929134
21
-5.7373348031496061
0
LINE
8
BLACK
6
CONTINUOUS
10
3.825654566929134
20
-5.7373348031496061
11
3.8331536220472442
21
-5.7410843307086612
0
LINE
8
BLACK
6
CONTINUOUS
10
3.8331536220472442
20
-5.7410843307086612
11
3.8369031496062993
21
-5.7485834251968502
0
LINE
8
BLACK
6
CONTINUOUS
10
3.8369031496062993
20
-5.7485834251968502
11
3.8369031496062993
21
-5.7898282677165351
0
LINE
8
BLACK
6
CONTINUOUS
10
3.8369031496062993
20
-5.7485834251968502
11
3.8406526771653544
21
-5.7410843307086612
0
LINE
8
BLACK
6
CONTINUOUS
10
3.8406526771653544
20
-5.7410843307086612
11
3.8481517322834646
21
-5.7373348031496061
0
LINE
8
BLACK
6
CONTINUOUS
10
3.8481517322834646
20
-5.7373348031496061
11
3.85940031496063
21
-5.7373348031496061
0
LINE
8
BLACK
6
CONTINUOUS
10
3.85940031496063
20
-5.7373348031496061
11
3.8668994094488189
21
-5.7410843307086612
0
LINE
8
BLACK
6
CONTINUOUS
10
3.8668994094488189
20
-5.7410843307086612
11
3.870648937007874
21
-5.7485834251968502
0
LINE
8
BLACK
6
CONTINUOUS
10
3.870648937007874
20
-5.7485834251968502
11
3.870648937007874
21
-5.7898282677165351
0
LINE
8
BLACK
6
CONTINUOUS
10
3.9081442519685039
20
-5.7898282677165351
11
3.9081442519685039
21
-5.7373348031496061
0
LINE
8
BLACK
6
CONTINUOUS
10
3.9081442519685039
20
-5.7448338582677163
11
3.911893779527559
21
-5.7410843307086612
0
LINE
8
BLACK
6
CONTINUOUS
10
3.911893779527559
20
-5.7410843307086612
11
3.9193928346456692
21
-5.7373348031496061
0
LINE
8
BLACK
6
CONTINUOUS
10
3.9193928346456692
20
-5.7373348031496061
11
3.9306414566929133
21
-5.7373348031496061
0
LINE
8
BLACK
6
CONTINUOUS
10
3.9306414566929133
20
-5.7373348031496061
11
3.9381405118110235
21
-5.7410843307086612
0
LINE
8
BLACK
6
CONTINUOUS
10
3.9381405118110235
20
-5.7410843307086612
11
3.9418900393700786
21
-5.7485834251968502
0
LINE
8
BLACK
6
CONTINUOUS
10
3.9418900393700786
20
-5.7485834251968502
11
3.9418900393700786
21
-5.7898282677165351
0
LINE
8
BLACK
6
CONTINUOUS
10
3.9418900393700786
20
-5.7485834251968502
11
3.9456395669291338
21
-5.7410843307086612
0
LINE
8
BLACK
6
CONTINUOUS
10
3.9456395669291338
20
-5.7410843307086612
11
3.953138622047244
21
-5.7373348031496061
0
LINE
8
BLACK
6
CONTINUOUS
10
3.953138622047244
20
-5.7373348031496061
11
3.9643872047244093
21
-5.7373348031496061
0
LINE
8
BLACK
6
CONTINUOUS
10
3.9643872047244093
20
-5.7373348031496061
11
3.9718862992125983
21
-5.7410843307086612
0
LINE
8
BLACK
6
CONTINUOUS
10
3.9718862992125983
20
-5.7410843307086612
11
3.9756358267716534
21
-5.7485834251968502
0
LINE
8
BLACK
6
CONTINUOUS
10
3.9756358267716534
20
-5.7485834251968502
11
3.9756358267716534
21
-5.7898282677165351
0
LINE
8
BLACK
6
CONTINUOUS
10
4.1293666141732279
20
-5.7073385826771652
11
4.0618750787401572
21
-5.8085759055118107
0
LINE
8
BLACK
6
CONTINUOUS
10
4.230603976377953
20
-5.7110881102362203
11
4.238103070866142
21
-5.7110881102362203
0
LINE
8
BLACK
6
CONTINUOUS
10
4.238103070866142
20
-5.7110881102362203
11
4.2456021259842522
21
-5.7148376377952754
0
LINE
8
BLACK
6
CONTINUOUS
10
4.2456021259842522
20
-5.7148376377952754
11
4.2493516535433073
21
-5.7185871653543305
0
LINE
8
BLACK
6
CONTINUOUS
10
4.2493516535433073
20
-5.7185871653543305
11
4.2531011811023625
21
-5.7260862204724408
0
LINE
8
BLACK
6
CONTINUOUS
10
4.2531011811023625
20
-5.7260862204724408
11
4.2568507086614176
21
-5.7410843307086612
0
LINE
8
BLACK
6
CONTINUOUS
10
4.2568507086614176
20
-5.7410843307086612
11
4.2568507086614176
21
-5.7598320078740155
0
LINE
8
BLACK
6
CONTINUOUS
10
4.2568507086614176
20
-5.7598320078740155
11
4.2531011811023625
21
-5.7748301181102359
0
LINE
8
BLACK
6
CONTINUOUS
10
4.2531011811023625
20
-5.7748301181102359
11
4.2493516535433073
21
-5.7823291732283462
0
LINE
8
BLACK
6
CONTINUOUS
10
4.2493516535433073
20
-5.7823291732283462
11
4.2456021259842522
21
-5.78607874015748
0
LINE
8
BLACK
6
CONTINUOUS
10
4.2456021259842522
20
-5.78607874015748
11
4.238103070866142
21
-5.7898282677165351
0
LINE
8
BLACK
6
CONTINUOUS
10
4.238103070866142
20
-5.7898282677165351
11
4.230603976377953
21
-5.7898282677165351
0
LINE
8
BLACK
6
CONTINUOUS
10
4.230603976377953
20
-5.7898282677165351
11
4.2231049212598428
21
-5.78607874015748
0
LINE
8
BLACK
6
CONTINUOUS
10
4.2231049212598428
20
-5.78607874015748
11
4.2193553937007877
21
-5.7823291732283462
0
LINE
8
BLACK
6
CONTINUOUS
10
4.2193553937007877
20
-5.7823291732283462
11
4.2156058661417326
21
-5.7748301181102359
0
LINE
8
BLACK
6
CONTINUOUS
10
4.2156058661417326
20
-5.7748301181102359
11
4.2118563385826775
21
-5.7598320078740155
0
LINE
8
BLACK
6
CONTINUOUS
10
4.2118563385826775
20
-5.7598320078740155
11
4.2118563385826775
21
-5.7410843307086612
0
LINE
8
BLACK
6
CONTINUOUS
10
4.2118563385826775
20
-5.7410843307086612
11
4.2156058661417326
21
-5.7260862204724408
0
LINE
8
BLACK
6
CONTINUOUS
10
4.2156058661417326
20
-5.7260862204724408
11
4.2193553937007877
21
-5.7185871653543305
0
LINE
8
BLACK
6
CONTINUOUS
10
4.2193553937007877
20
-5.7185871653543305
11
4.2231049212598428
21
-5.7148376377952754
0
LINE
8
BLACK
6
CONTINUOUS
10
4.2231049212598428
20
-5.7148376377952754
11
4.230603976377953
21
-5.7110881102362203
0
LINE
8
BLACK
6
CONTINUOUS
10
4.2905964960629923
20
-5.7823291732283462
11
4.2943460236220474
21
-5.78607874015748
0
LINE
8
BLACK
6
CONTINUOUS
10
4.2943460236220474
20
-5.78607874015748
11
4.2905964960629923
21
-5.7898282677165351
0
LINE
8
BLACK
6
CONTINUOUS
10
4.2905964960629923
20
-5.7898282677165351
11
4.2868469685039372
21
-5.78607874015748
0
LINE
8
BLACK
6
CONTINUOUS
10
4.2868469685039372
20
-5.78607874015748
11
4.2905964960629923
21
-5.7823291732283462
0
LINE
8
BLACK
6
CONTINUOUS
10
4.2905964960629923
20
-5.7823291732283462
11
4.2905964960629923
21
-5.7898282677165351
0
LINE
8
BLACK
6
CONTINUOUS
10
4.3693366535433071
20
-5.7898282677165351
11
4.3243422834645671
21
-5.7898282677165351
0
LINE
8
BLACK
6
CONTINUOUS
10
4.3468394488188977
20
-5.7898282677165351
11
4.3468394488188977
21
-5.7110881102362203
0
LINE
8
BLACK
6
CONTINUOUS
10
4.3468394488188977
20
-5.7110881102362203
11
4.3393403937007875
21
-5.7223366929133856
0
LINE
8
BLACK
6
CONTINUOUS
10
4.3393403937007875
20
-5.7223366929133856
11
4.3318413385826773
21
-5.7298357480314959
0
LINE
8
BLACK
6
CONTINUOUS
10
4.3318413385826773
20
-5.7298357480314959
11
4.3243422834645671
21
-5.733585275590551
0
LINE
8
BLACK
6
CONTINUOUS
10
4.4368282283464566
20
-5.7373348031496061
11
4.4368282283464566
21
-5.7898282677165351
0
LINE
8
BLACK
6
CONTINUOUS
10
4.4180805511811023
20
-5.7073385826771652
11
4.3993329133858268
21
-5.7635815354330706
0
LINE
8
BLACK
6
CONTINUOUS
10
4.3993329133858268
20
-5.7635815354330706
11
4.448076811023622
21
-5.7635815354330706
0
LINE
8
BLACK
6
CONTINUOUS
10
4.5118188582677163
20
-5.7373348031496061
11
4.5118188582677163
21
-5.7898282677165351
0
LINE
8
BLACK
6
CONTINUOUS
10
4.493071181102362
20
-5.7073385826771652
11
4.4743235433070865
21
-5.7635815354330706
0
LINE
8
BLACK
6
CONTINUOUS
10
4.4743235433070865
20
-5.7635815354330706
11
4.5230674409448817
21
-5.7635815354330706
0
LINE
8
BLACK
6
CONTINUOUS
10
4.5680618110236217
20
-5.7110881102362203
11
4.5755609055118107
21
-5.7110881102362203
0
LINE
8
BLACK
6
CONTINUOUS
10
4.5755609055118107
20
-5.7110881102362203
11
4.5830599606299209
21
-5.7148376377952754
0
LINE
8
BLACK
6
CONTINUOUS
10
4.5830599606299209
20
-5.7148376377952754
11
4.586809488188976
21
-5.7185871653543305
0
LINE
8
BLACK
6
CONTINUOUS
10
4.586809488188976
20
-5.7185871653543305
11
4.5905590157480312
21
-5.7260862204724408
0
LINE
8
BLACK
6
CONTINUOUS
10
4.5905590157480312
20
-5.7260862204724408
11
4.5943085433070863
21
-5.7410843307086612
0
LINE
8
BLACK
6
CONTINUOUS
10
4.5943085433070863
20
-5.7410843307086612
11
4.5943085433070863
21
-5.7598320078740155
0
LINE
8
BLACK
6
CONTINUOUS
10
4.5943085433070863
20
-5.7598320078740155
11
4.5905590157480312
21
-5.7748301181102359
0
LINE
8
BLACK
6
CONTINUOUS
10
4.5905590157480312
20
-5.7748301181102359
11
4.586809488188976
21
-5.7823291732283462
0
LINE
8
BLACK
6
CONTINUOUS
10
4.586809488188976
20
-5.7823291732283462
11
4.5830599606299209
21
-5.78607874015748
0
LINE
8
BLACK
6
CONTINUOUS
10
4.5830599606299209
20
-5.78607874015748
11
4.5755609055118107
21
-5.7898282677165351
0
LINE
8
BLACK
6
CONTINUOUS
10
4.5755609055118107
20
-5.7898282677165351
11
4.5680618110236217
21
-5.7898282677165351
0
LINE
8
BLACK
6
CONTINUOUS
10
4.5680618110236217
20
-5.7898282677165351
11
4.5605627559055115
21
-5.78607874015748
0
LINE
8
BLACK
6
CONTINUOUS
10
4.5605627559055115
20
-5.78607874015748
11
4.5568132283464564
21
-5.7823291732283462
0
LINE
8
BLACK
6
CONTINUOUS
10
4.5568132283464564
20
-5.7823291732283462
11
4.5530637007874013
21
-5.7748301181102359
0
LINE
8
BLACK
6
CONTINUOUS
10
4.5530637007874013
20
-5.7748301181102359
11
4.5493141732283462
21
-5.7598320078740155
0
LINE
8
BLACK
6
CONTINUOUS
10
4.5493141732283462
20
-5.7598320078740155
11
4.5493141732283462
21
-5.7410843307086612
0
LINE
8
BLACK
6
CONTINUOUS
10
4.5493141732283462
20
-5.7410843307086612
11
4.5530637007874013
21
-5.7260862204724408
0
LINE
8
BLACK
6
CONTINUOUS
10
4.5530637007874013
20
-5.7260862204724408
11
4.5568132283464564
21
-5.7185871653543305
0
LINE
8
BLACK
6
CONTINUOUS
10
4.5568132283464564
20
-5.7185871653543305
11
4.5605627559055115
21
-5.7148376377952754
0
LINE
8
BLACK
6
CONTINUOUS
10
4.5605627559055115
20
-5.7148376377952754
11
4.5680618110236217
21
-5.7110881102362203
0
LINE
8
BLACK
6
CONTINUOUS
10
4.6243048031496059
20
-5.7110881102362203
11
4.6243048031496059
21
-5.7260862204724408
0
LINE
8
BLACK
6
CONTINUOUS
10
4.6543010629921255
20
-5.7110881102362203
11
4.6543010629921255
21
-5.7260862204724408
0
LINE
8
BLACK
6
CONTINUOUS
10
4.7705365748031499
20
-5.819824488188976
11
4.766787007874016
21
-5.8160749606299209
0
LINE
8
BLACK
6
CONTINUOUS
10
4.766787007874016
20
-5.8160749606299209
11
4.7592879527559058
21
-5.8048263779527556
0
LINE
8
BLACK
6
CONTINUOUS
10
4.7592879527559058
20
-5.8048263779527556
11
4.7555384251968507
21
-5.7973273228346454
0
LINE
8
BLACK
6
CONTINUOUS
10
4.7555384251968507
20
-5.7973273228346454
11
4.7517888976377956
21
-5.78607874015748
0
LINE
8
BLACK
6
CONTINUOUS
10
4.7517888976377956
20
-5.78607874015748
11
4.7480393700787404
21
-5.7673310629921257
0
LINE
8
BLACK
6
CONTINUOUS
10
4.7480393700787404
20
-5.7673310629921257
11
4.7480393700787404
21
-5.7523329527559053
0
LINE
8
BLACK
6
CONTINUOUS
10
4.7480393700787404
20
-5.7523329527559053
11
4.7517888976377956
21
-5.733585275590551
0
LINE
8
BLACK
6
CONTINUOUS
10
4.7517888976377956
20
-5.733585275590551
11
4.7555384251968507
21
-5.7223366929133856
0
LINE
8
BLACK
6
CONTINUOUS
10
4.7555384251968507
20
-5.7223366929133856
11
4.7592879527559058
21
-5.7148376377952754
0
LINE
8
BLACK
6
CONTINUOUS
10
4.7592879527559058
20
-5.7148376377952754
11
4.766787007874016
21
-5.7035890157480313
0
LINE
8
BLACK
6
CONTINUOUS
10
4.766787007874016
20
-5.7035890157480313
11
4.7705365748031499
21
-5.6998394881889762
0
LINE
8
BLACK
6
CONTINUOUS
10
4.7967832677165356
20
-5.7185871653543305
11
4.8005327952755907
21
-5.7148376377952754
0
LINE
8
BLACK
6
CONTINUOUS
10
4.8005327952755907
20
-5.7148376377952754
11
4.808031850393701
21
-5.7110881102362203
0
LINE
8
BLACK
6
CONTINUOUS
10
4.808031850393701
20
-5.7110881102362203
11
4.8267795275590553
21
-5.7110881102362203
0
LINE
8
BLACK
6
CONTINUOUS
10
4.8267795275590553
20
-5.7110881102362203
11
4.8342785826771655
21
-5.7148376377952754
0
LINE
8
BLACK
6
CONTINUOUS
10
4.8342785826771655
20
-5.7148376377952754
11
4.8380281102362206
21
-5.7185871653543305
0
LINE
8
BLACK
6
CONTINUOUS
10
4.8380281102362206
20
-5.7185871653543305
11
4.8417776377952757
21
-5.7260862204724408
0
LINE
8
BLACK
6
CONTINUOUS
10
4.8417776377952757
20
-5.7260862204724408
11
4.8417776377952757
21
-5.733585275590551
0
LINE
8
BLACK
6
CONTINUOUS
10
4.8417776377952757
20
-5.733585275590551
11
4.8380281102362206
21
-5.7448338582677163
0
LINE
8
BLACK
6
CONTINUOUS
10
4.8380281102362206
20
-5.7448338582677163
11
4.7930337401574805
21
-5.7898282677165351
0
LINE
8
BLACK
6
CONTINUOUS
10
4.7930337401574805
20
-5.7898282677165351
11
4.8417776377952757
21
-5.7898282677165351
0
LINE
8
BLACK
6
CONTINUOUS
10
4.9355159448818897
20
-5.7898282677165351
11
4.9355159448818897
21
-5.7110881102362203
0
LINE
8
BLACK
6
CONTINUOUS
10
4.9692617322834645
20
-5.7898282677165351
11
4.9692617322834645
21
-5.7485834251968502
0
LINE
8
BLACK
6
CONTINUOUS
10
4.9692617322834645
20
-5.7485834251968502
11
4.9655122047244094
21
-5.7410843307086612
0
LINE
8
BLACK
6
CONTINUOUS
10
4.9655122047244094
20
-5.7410843307086612
11
4.9580131496062991
21
-5.7373348031496061
0
LINE
8
BLACK
6
CONTINUOUS
10
4.9580131496062991
20
-5.7373348031496061
11
4.946764527559055
21
-5.7373348031496061
0
LINE
8
BLACK
6
CONTINUOUS
10
4.946764527559055
20
-5.7373348031496061
11
4.9392654724409448
21
-5.7410843307086612
0
LINE
8
BLACK
6
CONTINUOUS
10
4.9392654724409448
20
-5.7410843307086612
11
4.9355159448818897
21
-5.7448338582677163
0
LINE
8
BLACK
6
CONTINUOUS
10
5.0180056299212596
20
-5.7898282677165351
11
5.0105065748031494
21
-5.78607874015748
0
LINE
8
BLACK
6
CONTINUOUS
10
5.0105065748031494
20
-5.78607874015748
11
5.0067570472440943
21
-5.7823291732283462
0
LINE
8
BLACK
6
CONTINUOUS
10
5.0067570472440943
20
-5.7823291732283462
11
5.0030075196850392
21
-5.7748301181102359
0
LINE
8
BLACK
6
CONTINUOUS
10
5.0030075196850392
20
-5.7748301181102359
11
5.0030075196850392
21
-5.7523329527559053
0
LINE
8
BLACK
6
CONTINUOUS
10
5.0030075196850392
20
-5.7523329527559053
11
5.0067570472440943
21
-5.7448338582677163
0
LINE
8
BLACK
6
CONTINUOUS
10
5.0067570472440943
20
-5.7448338582677163
11
5.0105065748031494
21
-5.7410843307086612
0
LINE
8
BLACK
6
CONTINUOUS
10
5.0105065748031494
20
-5.7410843307086612
11
5.0180056299212596
21
-5.7373348031496061
0
LINE
8
BLACK
6
CONTINUOUS
10
5.0180056299212596
20
-5.7373348031496061
11
5.0292542519685037
21
-5.7373348031496061
0
LINE
8
BLACK
6
CONTINUOUS
10
5.0292542519685037
20
-5.7373348031496061
11
5.036753307086614
21
-5.7410843307086612
0
LINE
8
BLACK
6
CONTINUOUS
10
5.036753307086614
20
-5.7410843307086612
11
5.0405028346456691
21
-5.7448338582677163
0
LINE
8
BLACK
6
CONTINUOUS
10
5.0405028346456691
20
-5.7448338582677163
11
5.0442523622047242
21
-5.7523329527559053
0
LINE
8
BLACK
6
CONTINUOUS
10
5.0442523622047242
20
-5.7523329527559053
11
5.0442523622047242
21
-5.7748301181102359
0
LINE
8
BLACK
6
CONTINUOUS
10
5.0442523622047242
20
-5.7748301181102359
11
5.0405028346456691
21
-5.7823291732283462
0
LINE
8
BLACK
6
CONTINUOUS
10
5.0405028346456691
20
-5.7823291732283462
11
5.036753307086614
21
-5.78607874015748
0
LINE
8
BLACK
6
CONTINUOUS
10
5.036753307086614
20
-5.78607874015748
11
5.0292542519685037
21
-5.7898282677165351
0
LINE
8
BLACK
6
CONTINUOUS
10
5.0292542519685037
20
-5.7898282677165351
11
5.0180056299212596
21
-5.7898282677165351
0
LINE
8
BLACK
6
CONTINUOUS
10
5.0892467322834642
20
-5.7898282677165351
11
5.081747677165354
21
-5.78607874015748
0
LINE
8
BLACK
6
CONTINUOUS
10
5.081747677165354
20
-5.78607874015748
11
5.0779981496062989
21
-5.7785796456692911
0
LINE
8
BLACK
6
CONTINUOUS
10
5.0779981496062989
20
-5.7785796456692911
11
5.0779981496062989
21
-5.7110881102362203
0
LINE
8
BLACK
6
CONTINUOUS
10
5.1492392519685035
20
-5.78607874015748
11
5.1417401968503933
21
-5.7898282677165351
0
LINE
8
BLACK
6
CONTINUOUS
10
5.1417401968503933
20
-5.7898282677165351
11
5.1267420472440941
21
-5.7898282677165351
0
LINE
8
BLACK
6
CONTINUOUS
10
5.1267420472440941
20
-5.7898282677165351
11
5.1192429921259839
21
-5.78607874015748
0
LINE
8
BLACK
6
CONTINUOUS
10
5.1192429921259839
20
-5.78607874015748
11
5.1154934645669288
21
-5.7785796456692911
0
LINE
8
BLACK
6
CONTINUOUS
10
5.1154934645669288
20
-5.7785796456692911
11
5.1154934645669288
21
-5.7485834251968502
0
LINE
8
BLACK
6
CONTINUOUS
10
5.1154934645669288
20
-5.7485834251968502
11
5.1192429921259839
21
-5.7410843307086612
0
LINE
8
BLACK
6
CONTINUOUS
10
5.1192429921259839
20
-5.7410843307086612
11
5.1267420472440941
21
-5.7373348031496061
0
LINE
8
BLACK
6
CONTINUOUS
10
5.1267420472440941
20
-5.7373348031496061
11
5.1417401968503933
21
-5.7373348031496061
0
LINE
8
BLACK
6
CONTINUOUS
10
5.1417401968503933
20
-5.7373348031496061
11
5.1492392519685035
21
-5.7410843307086612
0
LINE
8
BLACK
6
CONTINUOUS
10
5.1492392519685035
20
-5.7410843307086612
11
5.1529887795275586
21
-5.7485834251968502
0
LINE
8
BLACK
6
CONTINUOUS
10
5.1529887795275586
20
-5.7485834251968502
11
5.1529887795275586
21
-5.7560824803149604
0
LINE
8
BLACK
6
CONTINUOUS
10
5.1529887795275586
20
-5.7560824803149604
11
5.1154934645669288
21
-5.7635815354330706
0
LINE
8
BLACK
6
CONTINUOUS
10
5.1829850393700783
20
-5.78607874015748
11
5.1904840944881885
21
-5.7898282677165351
0
LINE
8
BLACK
6
CONTINUOUS
10
5.1904840944881885
20
-5.7898282677165351
11
5.2054822047244089
21
-5.7898282677165351
0
LINE
8
BLACK
6
CONTINUOUS
10
5.2054822047244089
20
-5.7898282677165351
11
5.2129812992125979
21
-5.78607874015748
0
LINE
8
BLACK
6
CONTINUOUS
10
5.2129812992125979
20
-5.78607874015748
11
5.216730826771653
21
-5.7785796456692911
0
LINE
8
BLACK
6
CONTINUOUS
10
5.216730826771653
20
-5.7785796456692911
11
5.216730826771653
21
-5.7748301181102359
0
LINE
8
BLACK
6
CONTINUOUS
10
5.216730826771653
20
-5.7748301181102359
11
5.2129812992125979
21
-5.7673310629921257
0
LINE
8
BLACK
6
CONTINUOUS
10
5.2129812992125979
20
-5.7673310629921257
11
5.2054822047244089
21
-5.7635815354330706
0
LINE
8
BLACK
6
CONTINUOUS
10
5.2054822047244089
20
-5.7635815354330706
11
5.1942336220472436
21
-5.7635815354330706
0
LINE
8
BLACK
6
CONTINUOUS
10
5.1942336220472436
20
-5.7635815354330706
11
5.1867345669291334
21
-5.7598320078740155
0
LINE
8
BLACK
6
CONTINUOUS
10
5.1867345669291334
20
-5.7598320078740155
11
5.1829850393700783
21
-5.7523329527559053
0
LINE
8
BLACK
6
CONTINUOUS
10
5.1829850393700783
20
-5.7523329527559053
11
5.1829850393700783
21
-5.7485834251968502
0
LINE
8
BLACK
6
CONTINUOUS
10
5.1829850393700783
20
-5.7485834251968502
11
5.1867345669291334
21
-5.7410843307086612
0
LINE
8
BLACK
6
CONTINUOUS
10
5.1867345669291334
20
-5.7410843307086612
11
5.1942336220472436
21
-5.7373348031496061
0
LINE
8
BLACK
6
CONTINUOUS
10
5.1942336220472436
20
-5.7373348031496061
11
5.2054822047244089
21
-5.7373348031496061
0
LINE
8
BLACK
6
CONTINUOUS
10
5.2054822047244089
20
-5.7373348031496061
11
5.2129812992125979
21
-5.7410843307086612
0
LINE
8
BLACK
6
CONTINUOUS
10
5.2429775590551184
20
-5.819824488188976
11
5.2467270866141735
21
-5.8160749606299209
0
LINE
8
BLACK
6
CONTINUOUS
10
5.2467270866141735
20
-5.8160749606299209
11
5.2542261417322838
21
-5.8048263779527556
0
LINE
8
BLACK
6
CONTINUOUS
10
5.2542261417322838
20
-5.8048263779527556
11
5.2579756692913389
21
-5.7973273228346454
0
LINE
8
BLACK
6
CONTINUOUS
10
5.2579756692913389
20
-5.7973273228346454
11
5.261725196850394
21
-5.78607874015748
0
LINE
8
BLACK
6
CONTINUOUS
10
5.261725196850394
20
-5.78607874015748
11
5.2654747244094491
21
-5.7673310629921257
0
LINE
8
BLACK
6
CONTINUOUS
10
5.2654747244094491
20
-5.7673310629921257
11
5.2654747244094491
21
-5.7523329527559053
0
LINE
8
BLACK
6
CONTINUOUS
10
5.2654747244094491
20
-5.7523329527559053
11
5.261725196850394
21
-5.733585275590551
0
LINE
8
BLACK
6
CONTINUOUS
10
5.261725196850394
20
-5.733585275590551
11
5.2579756692913389
21
-5.7223366929133856
0
LINE
8
BLACK
6
CONTINUOUS
10
5.2579756692913389
20
-5.7223366929133856
11
5.2542261417322838
21
-5.7148376377952754
0
LINE
8
BLACK
6
CONTINUOUS
10
5.2542261417322838
20
-5.7148376377952754
11
5.2467270866141735
21
-5.7035890157480313
0
LINE
8
BLACK
6
CONTINUOUS
10
5.2467270866141735
20
-5.7035890157480313
11
5.2429775590551184
21
-5.6998394881889762
0
LINE
8
BLACK
6
CONTINUOUS
10
3.3515005511811022
20
-5.9076344094488187
11
3.3515005511811022
21
-5.8519561417322832
0
LINE
8
BLACK
6
CONTINUOUS
10
3.3515005511811022
20
-5.8519561417322832
11
3.2958222834645667
21
-5.8519561417322832
0
LINE
8
BLACK
6
CONTINUOUS
10
3.2958222834645667
20
-5.8519561417322832
11
3.2958222834645667
21
-5.9076344094488187
0
LINE
8
BLACK
6
CONTINUOUS
10
3.2958222834645667
20
-5.9076344094488187
11
3.3515005511811022
21
-5.9076344094488187
0
LINE
8
BLACK
6
CONTINUOUS
10
3.5031948425196848
20
-5.837072362204724
11
3.465699527559055
21
-5.837072362204724
0
LINE
8
BLACK
6
CONTINUOUS
10
3.465699527559055
20
-5.837072362204724
11
3.4619499999999999
21
-5.8745676771653539
0
LINE
8
BLACK
6
CONTINUOUS
10
3.4619499999999999
20
-5.8745676771653539
11
3.465699527559055
21
-5.87081811023622
0
LINE
8
BLACK
6
CONTINUOUS
10
3.465699527559055
20
-5.87081811023622
11
3.4731985826771652
21
-5.8670685826771649
0
LINE
8
BLACK
6
CONTINUOUS
10
3.4731985826771652
20
-5.8670685826771649
11
3.4919462598425195
21
-5.8670685826771649
0
LINE
8
BLACK
6
CONTINUOUS
10
3.4919462598425195
20
-5.8670685826771649
11
3.4994453149606297
21
-5.87081811023622
0
LINE
8
BLACK
6
CONTINUOUS
10
3.4994453149606297
20
-5.87081811023622
11
3.5031948425196848
21
-5.8745676771653539
0
LINE
8
BLACK
6
CONTINUOUS
10
3.5031948425196848
20
-5.8745676771653539
11
3.5069443700787399
21
-5.8820667322834641
0
LINE
8
BLACK
6
CONTINUOUS
10
3.5069443700787399
20
-5.8820667322834641
11
3.5069443700787399
21
-5.9008143700787397
0
LINE
8
BLACK
6
CONTINUOUS
10
3.5069443700787399
20
-5.9008143700787397
11
3.5031948425196848
21
-5.9083134251968499
0
LINE
8
BLACK
6
CONTINUOUS
10
3.5031948425196848
20
-5.9083134251968499
11
3.4994453149606297
21
-5.9120629921259837
0
LINE
8
BLACK
6
CONTINUOUS
10
3.4994453149606297
20
-5.9120629921259837
11
3.4919462598425195
21
-5.9158125196850389
0
LINE
8
BLACK
6
CONTINUOUS
10
3.4919462598425195
20
-5.9158125196850389
11
3.4731985826771652
21
-5.9158125196850389
0
LINE
8
BLACK
6
CONTINUOUS
10
3.4731985826771652
20
-5.9158125196850389
11
3.465699527559055
21
-5.9120629921259837
0
LINE
8
BLACK
6
CONTINUOUS
10
3.465699527559055
20
-5.9120629921259837
11
3.4619499999999999
21
-5.9083134251968499
0
LINE
8
BLACK
6
CONTINUOUS
10
3.5406901574803147
20
-5.9083134251968499
11
3.5444396850393698
21
-5.9120629921259837
0
LINE
8
BLACK
6
CONTINUOUS
10
3.5444396850393698
20
-5.9120629921259837
11
3.5406901574803147
21
-5.9158125196850389
0
LINE
8
BLACK
6
CONTINUOUS
10
3.5406901574803147
20
-5.9158125196850389
11
3.5369406299212596
21
-5.9120629921259837
0
LINE
8
BLACK
6
CONTINUOUS
10
3.5369406299212596
20
-5.9120629921259837
11
3.5406901574803147
21
-5.9083134251968499
0
LINE
8
BLACK
6
CONTINUOUS
10
3.5406901574803147
20
-5.9083134251968499
11
3.5406901574803147
21
-5.9158125196850389
0
LINE
8
BLACK
6
CONTINUOUS
10
3.5931835826771654
20
-5.837072362204724
11
3.6006826771653544
21
-5.837072362204724
0
LINE
8
BLACK
6
CONTINUOUS
10
3.6006826771653544
20
-5.837072362204724
11
3.6081817322834646
21
-5.8408218897637791
0
LINE
8
BLACK
6
CONTINUOUS
10
3.6081817322834646
20
-5.8408218897637791
11
3.6119312598425197
21
-5.8445714173228343
0
LINE
8
BLACK
6
CONTINUOUS
10
3.6119312598425197
20
-5.8445714173228343
11
3.6156807874015748
21
-5.8520704724409445
0
LINE
8
BLACK
6
CONTINUOUS
10
3.6156807874015748
20
-5.8520704724409445
11
3.6194303149606299
21
-5.8670685826771649
0
LINE
8
BLACK
6
CONTINUOUS
10
3.6194303149606299
20
-5.8670685826771649
11
3.6194303149606299
21
-5.8858162598425192
0
LINE
8
BLACK
6
CONTINUOUS
10
3.6194303149606299
20
-5.8858162598425192
11
3.6156807874015748
21
-5.9008143700787397
0
LINE
8
BLACK
6
CONTINUOUS
10
3.6156807874015748
20
-5.9008143700787397
11
3.6119312598425197
21
-5.9083134251968499
0
LINE
8
BLACK
6
CONTINUOUS
10
3.6119312598425197
20
-5.9083134251968499
11
3.6081817322834646
21
-5.9120629921259837
0
LINE
8
BLACK
6
CONTINUOUS
10
3.6081817322834646
20
-5.9120629921259837
11
3.6006826771653544
21
-5.9158125196850389
0
LINE
8
BLACK
6
CONTINUOUS
10
3.6006826771653544
20
-5.9158125196850389
11
3.5931835826771654
21
-5.9158125196850389
0
LINE
8
BLACK
6
CONTINUOUS
10
3.5931835826771654
20
-5.9158125196850389
11
3.5856845275590552
21
-5.9120629921259837
0
LINE
8
BLACK
6
CONTINUOUS
10
3.5856845275590552
20
-5.9120629921259837
11
3.5819350000000001
21
-5.9083134251968499
0
LINE
8
BLACK
6
CONTINUOUS
10
3.5819350000000001
20
-5.9083134251968499
11
3.578185472440945
21
-5.9008143700787397
0
LINE
8
BLACK
6
CONTINUOUS
10
3.578185472440945
20
-5.9008143700787397
11
3.5744359448818899
21
-5.8858162598425192
0
LINE
8
BLACK
6
CONTINUOUS
10
3.5744359448818899
20
-5.8858162598425192
11
3.5744359448818899
21
-5.8670685826771649
0
LINE
8
BLACK
6
CONTINUOUS
10
3.5744359448818899
20
-5.8670685826771649
11
3.578185472440945
21
-5.8520704724409445
0
LINE
8
BLACK
6
CONTINUOUS
10
3.578185472440945
20
-5.8520704724409445
11
3.5819350000000001
21
-5.8445714173228343
0
LINE
8
BLACK
6
CONTINUOUS
10
3.5819350000000001
20
-5.8445714173228343
11
3.5856845275590552
21
-5.8408218897637791
0
LINE
8
BLACK
6
CONTINUOUS
10
3.5856845275590552
20
-5.8408218897637791
11
3.5931835826771654
21
-5.837072362204724
0
LINE
8
BLACK
6
CONTINUOUS
10
3.6681742125984251
20
-5.837072362204724
11
3.6756733070866141
21
-5.837072362204724
0
LINE
8
BLACK
6
CONTINUOUS
10
3.6756733070866141
20
-5.837072362204724
11
3.6831723622047243
21
-5.8408218897637791
0
LINE
8
BLACK
6
CONTINUOUS
10
3.6831723622047243
20
-5.8408218897637791
11
3.6869218897637794
21
-5.8445714173228343
0
LINE
8
BLACK
6
CONTINUOUS
10
3.6869218897637794
20
-5.8445714173228343
11
3.6906714173228345
21
-5.8520704724409445
0
LINE
8
BLACK
6
CONTINUOUS
10
3.6906714173228345
20
-5.8520704724409445
11
3.6944209448818897
21
-5.8670685826771649
0
LINE
8
BLACK
6
CONTINUOUS
10
3.6944209448818897
20
-5.8670685826771649
11
3.6944209448818897
21
-5.8858162598425192
0
LINE
8
BLACK
6
CONTINUOUS
10
3.6944209448818897
20
-5.8858162598425192
11
3.6906714173228345
21
-5.9008143700787397
0
LINE
8
BLACK
6
CONTINUOUS
10
3.6906714173228345
20
-5.9008143700787397
11
3.6869218897637794
21
-5.9083134251968499
0
LINE
8
BLACK
6
CONTINUOUS
10
3.6869218897637794
20
-5.9083134251968499
11
3.6831723622047243
21
-5.9120629921259837
0
LINE
8
BLACK
6
CONTINUOUS
10
3.6831723622047243
20
-5.9120629921259837
11
3.6756733070866141
21
-5.9158125196850389
0
LINE
8
BLACK
6
CONTINUOUS
10
3.6756733070866141
20
-5.9158125196850389
11
3.6681742125984251
21
-5.9158125196850389
0
LINE
8
BLACK
6
CONTINUOUS
10
3.6681742125984251
20
-5.9158125196850389
11
3.6606751574803149
21
-5.9120629921259837
0
LINE
8
BLACK
6
CONTINUOUS
10
3.6606751574803149
20
-5.9120629921259837
11
3.6569256299212598
21
-5.9083134251968499
0
LINE
8
BLACK
6
CONTINUOUS
10
3.6569256299212598
20
-5.9083134251968499
11
3.6531761023622047
21
-5.9008143700787397
0
LINE
8
BLACK
6
CONTINUOUS
10
3.6531761023622047
20
-5.9008143700787397
11
3.6494265748031496
21
-5.8858162598425192
0
LINE
8
BLACK
6
CONTINUOUS
10
3.6494265748031496
20
-5.8858162598425192
11
3.6494265748031496
21
-5.8670685826771649
0
LINE
8
BLACK
6
CONTINUOUS
10
3.6494265748031496
20
-5.8670685826771649
11
3.6531761023622047
21
-5.8520704724409445
0
LINE
8
BLACK
6
CONTINUOUS
10
3.6531761023622047
20
-5.8520704724409445
11
3.6569256299212598
21
-5.8445714173228343
0
LINE
8
BLACK
6
CONTINUOUS
10
3.6569256299212598
20
-5.8445714173228343
11
3.6606751574803149
21
-5.8408218897637791
0
LINE
8
BLACK
6
CONTINUOUS
10
3.6606751574803149
20
-5.8408218897637791
11
3.6681742125984251
21
-5.837072362204724
0
LINE
8
BLACK
6
CONTINUOUS
10
3.7431648425196848
20
-5.837072362204724
11
3.7506639370078738
21
-5.837072362204724
0
LINE
8
BLACK
6
CONTINUOUS
10
3.7506639370078738
20
-5.837072362204724
11
3.758162992125984
21
-5.8408218897637791
0
LINE
8
BLACK
6
CONTINUOUS
10
3.758162992125984
20
-5.8408218897637791
11
3.7619125196850391
21
-5.8445714173228343
0
LINE
8
BLACK
6
CONTINUOUS
10
3.7619125196850391
20
-5.8445714173228343
11
3.7656620472440943
21
-5.8520704724409445
0
LINE
8
BLACK
6
CONTINUOUS
10
3.7656620472440943
20
-5.8520704724409445
11
3.7694115748031494
21
-5.8670685826771649
0
LINE
8
BLACK
6
CONTINUOUS
10
3.7694115748031494
20
-5.8670685826771649
11
3.7694115748031494
21
-5.8858162598425192
0
LINE
8
BLACK
6
CONTINUOUS
10
3.7694115748031494
20
-5.8858162598425192
11
3.7656620472440943
21
-5.9008143700787397
0
LINE
8
BLACK
6
CONTINUOUS
10
3.7656620472440943
20
-5.9008143700787397
11
3.7619125196850391
21
-5.9083134251968499
0
LINE
8
BLACK
6
CONTINUOUS
10
3.7619125196850391
20
-5.9083134251968499
11
3.758162992125984
21
-5.9120629921259837
0
LINE
8
BLACK
6
CONTINUOUS
10
3.758162992125984
20
-5.9120629921259837
11
3.7506639370078738
21
-5.9158125196850389
0
LINE
8
BLACK
6
CONTINUOUS
10
3.7506639370078738
20
-5.9158125196850389
11
3.7431648425196848
21
-5.9158125196850389
0
LINE
8
BLACK
6
CONTINUOUS
10
3.7431648425196848
20
-5.9158125196850389
11
3.7356657874015746
21
-5.9120629921259837
0
LINE
8
BLACK
6
CONTINUOUS
10
3.7356657874015746
20
-5.9120629921259837
11
3.7319162598425195
21
-5.9083134251968499
0
LINE
8
BLACK
6
CONTINUOUS
10
3.7319162598425195
20
-5.9083134251968499
11
3.7281667322834644
21
-5.9008143700787397
0
LINE
8
BLACK
6
CONTINUOUS
10
3.7281667322834644
20
-5.9008143700787397
11
3.7244172047244093
21
-5.8858162598425192
0
LINE
8
BLACK
6
CONTINUOUS
10
3.7244172047244093
20
-5.8858162598425192
11
3.7244172047244093
21
-5.8670685826771649
0
LINE
8
BLACK
6
CONTINUOUS
10
3.7244172047244093
20
-5.8670685826771649
11
3.7281667322834644
21
-5.8520704724409445
0
LINE
8
BLACK
6
CONTINUOUS
10
3.7281667322834644
20
-5.8520704724409445
11
3.7319162598425195
21
-5.8445714173228343
0
LINE
8
BLACK
6
CONTINUOUS
10
3.7319162598425195
20
-5.8445714173228343
11
3.7356657874015746
21
-5.8408218897637791
0
LINE
8
BLACK
6
CONTINUOUS
10
3.7356657874015746
20
-5.8408218897637791
11
3.7431648425196848
21
-5.837072362204724
0
LINE
8
BLACK
6
CONTINUOUS
10
3.8031573622047241
20
-5.9158125196850389
11
3.8031573622047241
21
-5.8633190551181098
0
LINE
8
BLACK
6
CONTINUOUS
10
3.8031573622047241
20
-5.87081811023622
11
3.8069068897637792
21
-5.8670685826771649
0
LINE
8
BLACK
6
CONTINUOUS
10
3.8069068897637792
20
-5.8670685826771649
11
3.8144059448818899
21
-5.8633190551181098
0
LINE
8
BLACK
6
CONTINUOUS
10
3.8144059448818899
20
-5.8633190551181098
11
3.825654566929134
21
-5.8633190551181098
0
LINE
8
BLACK
6
CONTINUOUS
10
3.825654566929134
20
-5.8633190551181098
11
3.8331536220472442
21
-5.8670685826771649
0
LINE
8
BLACK
6
CONTINUOUS
10
3.8331536220472442
20
-5.8670685826771649
11
3.8369031496062993
21
-5.8745676771653539
0
LINE
8
BLACK
6
CONTINUOUS
10
3.8369031496062993
20
-5.8745676771653539
11
3.8369031496062993
21
-5.9158125196850389
0
LINE
8
BLACK
6
CONTINUOUS
10
3.8369031496062993
20
-5.8745676771653539
11
3.8406526771653544
21
-5.8670685826771649
0
LINE
8
BLACK
6
CONTINUOUS
10
3.8406526771653544
20
-5.8670685826771649
11
3.8481517322834646
21
-5.8633190551181098
0
LINE
8
BLACK
6
CONTINUOUS
10
3.8481517322834646
20
-5.8633190551181098
11
3.85940031496063
21
-5.8633190551181098
0
LINE
8
BLACK
6
CONTINUOUS
10
3.85940031496063
20
-5.8633190551181098
11
3.8668994094488189
21
-5.8670685826771649
0
LINE
8
BLACK
6
CONTINUOUS
10
3.8668994094488189
20
-5.8670685826771649
11
3.870648937007874
21
-5.8745676771653539
0
LINE
8
BLACK
6
CONTINUOUS
10
3.870648937007874
20
-5.8745676771653539
11
3.870648937007874
21
-5.9158125196850389
0
LINE
8
BLACK
6
CONTINUOUS
10
3.9081442519685039
20
-5.9158125196850389
11
3.9081442519685039
21
-5.8633190551181098
0
LINE
8
BLACK
6
CONTINUOUS
10
3.9081442519685039
20
-5.87081811023622
11
3.911893779527559
21
-5.8670685826771649
0
LINE
8
BLACK
6
CONTINUOUS
10
3.911893779527559
20
-5.8670685826771649
11
3.9193928346456692
21
-5.8633190551181098
0
LINE
8
BLACK
6
CONTINUOUS
10
3.9193928346456692
20
-5.8633190551181098
11
3.9306414566929133
21
-5.8633190551181098
0
LINE
8
BLACK
6
CONTINUOUS
10
3.9306414566929133
20
-5.8633190551181098
11
3.9381405118110235
21
-5.8670685826771649
0
LINE
8
BLACK
6
CONTINUOUS
10
3.9381405118110235
20
-5.8670685826771649
11
3.9418900393700786
21
-5.8745676771653539
0
LINE
8
BLACK
6
CONTINUOUS
10
3.9418900393700786
20
-5.8745676771653539
11
3.9418900393700786
21
-5.9158125196850389
0
LINE
8
BLACK
6
CONTINUOUS
10
3.9418900393700786
20
-5.8745676771653539
11
3.9456395669291338
21
-5.8670685826771649
0
LINE
8
BLACK
6
CONTINUOUS
10
3.9456395669291338
20
-5.8670685826771649
11
3.953138622047244
21
-5.8633190551181098
0
LINE
8
BLACK
6
CONTINUOUS
10
3.953138622047244
20
-5.8633190551181098
11
3.9643872047244093
21
-5.8633190551181098
0
LINE
8
BLACK
6
CONTINUOUS
10
3.9643872047244093
20
-5.8633190551181098
11
3.9718862992125983
21
-5.8670685826771649
0
LINE
8
BLACK
6
CONTINUOUS
10
3.9718862992125983
20
-5.8670685826771649
11
3.9756358267716534
21
-5.8745676771653539
0
LINE
8
BLACK
6
CONTINUOUS
10
3.9756358267716534
20
-5.8745676771653539
11
3.9756358267716534
21
-5.9158125196850389
0
LINE
8
BLACK
6
CONTINUOUS
10
4.1293666141732279
20
-5.8333228346456689
11
4.0618750787401572
21
-5.9345601574803144
0
LINE
8
BLACK
6
CONTINUOUS
10
4.230603976377953
20
-5.837072362204724
11
4.238103070866142
21
-5.837072362204724
0
LINE
8
BLACK
6
CONTINUOUS
10
4.238103070866142
20
-5.837072362204724
11
4.2456021259842522
21
-5.8408218897637791
0
LINE
8
BLACK
6
CONTINUOUS
10
4.2456021259842522
20
-5.8408218897637791
11
4.2493516535433073
21
-5.8445714173228343
0
LINE
8
BLACK
6
CONTINUOUS
10
4.2493516535433073
20
-5.8445714173228343
11
4.2531011811023625
21
-5.8520704724409445
0
LINE
8
BLACK
6
CONTINUOUS
10
4.2531011811023625
20
-5.8520704724409445
11
4.2568507086614176
21
-5.8670685826771649
0
LINE
8
BLACK
6
CONTINUOUS
10
4.2568507086614176
20
-5.8670685826771649
11
4.2568507086614176
21
-5.8858162598425192
0
LINE
8
BLACK
6
CONTINUOUS
10
4.2568507086614176
20
-5.8858162598425192
11
4.2531011811023625
21
-5.9008143700787397
0
LINE
8
BLACK
6
CONTINUOUS
10
4.2531011811023625
20
-5.9008143700787397
11
4.2493516535433073
21
-5.9083134251968499
0
LINE
8
BLACK
6
CONTINUOUS
10
4.2493516535433073
20
-5.9083134251968499
11
4.2456021259842522
21
-5.9120629921259837
0
LINE
8
BLACK
6
CONTINUOUS
10
4.2456021259842522
20
-5.9120629921259837
11
4.238103070866142
21
-5.9158125196850389
0
LINE
8
BLACK
6
CONTINUOUS
10
4.238103070866142
20
-5.9158125196850389
11
4.230603976377953
21
-5.9158125196850389
0
LINE
8
BLACK
6
CONTINUOUS
10
4.230603976377953
20
-5.9158125196850389
11
4.2231049212598428
21
-5.9120629921259837
0
LINE
8
BLACK
6
CONTINUOUS
10
4.2231049212598428
20
-5.9120629921259837
11
4.2193553937007877
21
-5.9083134251968499
0
LINE
8
BLACK
6
CONTINUOUS
10
4.2193553937007877
20
-5.9083134251968499
11
4.2156058661417326
21
-5.9008143700787397
0
LINE
8
BLACK
6
CONTINUOUS
10
4.2156058661417326
20
-5.9008143700787397
11
4.2118563385826775
21
-5.8858162598425192
0
LINE
8
BLACK
6
CONTINUOUS
10
4.2118563385826775
20
-5.8858162598425192
11
4.2118563385826775
21
-5.8670685826771649
0
LINE
8
BLACK
6
CONTINUOUS
10
4.2118563385826775
20
-5.8670685826771649
11
4.2156058661417326
21
-5.8520704724409445
0
LINE
8
BLACK
6
CONTINUOUS
10
4.2156058661417326
20
-5.8520704724409445
11
4.2193553937007877
21
-5.8445714173228343
0
LINE
8
BLACK
6
CONTINUOUS
10
4.2193553937007877
20
-5.8445714173228343
11
4.2231049212598428
21
-5.8408218897637791
0
LINE
8
BLACK
6
CONTINUOUS
10
4.2231049212598428
20
-5.8408218897637791
11
4.230603976377953
21
-5.837072362204724
0
LINE
8
BLACK
6
CONTINUOUS
10
4.2905964960629923
20
-5.9083134251968499
11
4.2943460236220474
21
-5.9120629921259837
0
LINE
8
BLACK
6
CONTINUOUS
10
4.2943460236220474
20
-5.9120629921259837
11
4.2905964960629923
21
-5.9158125196850389
0
LINE
8
BLACK
6
CONTINUOUS
10
4.2905964960629923
20
-5.9158125196850389
11
4.2868469685039372
21
-5.9120629921259837
0
LINE
8
BLACK
6
CONTINUOUS
10
4.2868469685039372
20
-5.9120629921259837
11
4.2905964960629923
21
-5.9083134251968499
0
LINE
8
BLACK
6
CONTINUOUS
10
4.2905964960629923
20
-5.9083134251968499
11
4.2905964960629923
21
-5.9158125196850389
0
LINE
8
BLACK
6
CONTINUOUS
10
4.3693366535433071
20
-5.9158125196850389
11
4.3243422834645671
21
-5.9158125196850389
0
LINE
8
BLACK
6
CONTINUOUS
10
4.3468394488188977
20
-5.9158125196850389
11
4.3468394488188977
21
-5.837072362204724
0
LINE
8
BLACK
6
CONTINUOUS
10
4.3468394488188977
20
-5.837072362204724
11
4.3393403937007875
21
-5.8483209448818894
0
LINE
8
BLACK
6
CONTINUOUS
10
4.3393403937007875
20
-5.8483209448818894
11
4.3318413385826773
21
-5.8558199999999996
0
LINE
8
BLACK
6
CONTINUOUS
10
4.3318413385826773
20
-5.8558199999999996
11
4.3243422834645671
21
-5.8595695275590547
0
LINE
8
BLACK
6
CONTINUOUS
10
4.406831968503937
20
-5.9158125196850389
11
4.4218300787401574
21
-5.9158125196850389
0
LINE
8
BLACK
6
CONTINUOUS
10
4.4218300787401574
20
-5.9158125196850389
11
4.4293291732283464
21
-5.9120629921259837
0
LINE
8
BLACK
6
CONTINUOUS
10
4.4293291732283464
20
-5.9120629921259837
11
4.4330787007874015
21
-5.9083134251968499
0
LINE
8
BLACK
6
CONTINUOUS
10
4.4330787007874015
20
-5.9083134251968499
11
4.4405777559055117
21
-5.8970648425196845
0
LINE
8
BLACK
6
CONTINUOUS
10
4.4405777559055117
20
-5.8970648425196845
11
4.4443272834645668
21
-5.8820667322834641
0
LINE
8
BLACK
6
CONTINUOUS
10
4.4443272834645668
20
-5.8820667322834641
11
4.4443272834645668
21
-5.8520704724409445
0
LINE
8
BLACK
6
CONTINUOUS
10
4.4443272834645668
20
-5.8520704724409445
11
4.4405777559055117
21
-5.8445714173228343
0
LINE
8
BLACK
6
CONTINUOUS
10
4.4405777559055117
20
-5.8445714173228343
11
4.4368282283464566
21
-5.8408218897637791
0
LINE
8
BLACK
6
CONTINUOUS
10
4.4368282283464566
20
-5.8408218897637791
11
4.4293291732283464
21
-5.837072362204724
0
LINE
8
BLACK
6
CONTINUOUS
10
4.4293291732283464
20
-5.837072362204724
11
4.4143310236220472
21
-5.837072362204724
0
LINE
8
BLACK
6
CONTINUOUS
10
4.4143310236220472
20
-5.837072362204724
11
4.406831968503937
21
-5.8408218897637791
0
LINE
8
BLACK
6
CONTINUOUS
10
4.406831968503937
20
-5.8408218897637791
11
4.4030824409448819
21
-5.8445714173228343
0
LINE
8
BLACK
6
CONTINUOUS
10
4.4030824409448819
20
-5.8445714173228343
11
4.3993329133858268
21
-5.8520704724409445
0
LINE
8
BLACK
6
CONTINUOUS
10
4.3993329133858268
20
-5.8520704724409445
11
4.3993329133858268
21
-5.87081811023622
0
LINE
8
BLACK
6
CONTINUOUS
10
4.3993329133858268
20
-5.87081811023622
11
4.4030824409448819
21
-5.878317204724409
0
LINE
8
BLACK
6
CONTINUOUS
10
4.4030824409448819
20
-5.878317204724409
11
4.406831968503937
21
-5.8820667322834641
0
LINE
8
BLACK
6
CONTINUOUS
10
4.406831968503937
20
-5.8820667322834641
11
4.4143310236220472
21
-5.8858162598425192
0
LINE
8
BLACK
6
CONTINUOUS
10
4.4143310236220472
20
-5.8858162598425192
11
4.4293291732283464
21
-5.8858162598425192
0
LINE
8
BLACK
6
CONTINUOUS
10
4.4293291732283464
20
-5.8858162598425192
11
4.4368282283464566
21
-5.8820667322834641
0
LINE
8
BLACK
6
CONTINUOUS
10
4.4368282283464566
20
-5.8820667322834641
11
4.4405777559055117
21
-5.878317204724409
0
LINE
8
BLACK
6
CONTINUOUS
10
4.4405777559055117
20
-5.878317204724409
11
4.4443272834645668
21
-5.87081811023622
0
LINE
8
BLACK
6
CONTINUOUS
10
4.5118188582677163
20
-5.837072362204724
11
4.4968207086614171
21
-5.837072362204724
0
LINE
8
BLACK
6
CONTINUOUS
10
4.4968207086614171
20
-5.837072362204724
11
4.4893216535433069
21
-5.8408218897637791
0
LINE
8
BLACK
6
CONTINUOUS
10
4.4893216535433069
20
-5.8408218897637791
11
4.4855721259842518
21
-5.8445714173228343
0
LINE
8
BLACK
6
CONTINUOUS
10
4.4855721259842518
20
-5.8445714173228343
11
4.4780730708661416
21
-5.8558199999999996
0
LINE
8
BLACK
6
CONTINUOUS
10
4.4780730708661416
20
-5.8558199999999996
11
4.4743235433070865
21
-5.87081811023622
0
LINE
8
BLACK
6
CONTINUOUS
10
4.4743235433070865
20
-5.87081811023622
11
4.4743235433070865
21
-5.9008143700787397
0
LINE
8
BLACK
6
CONTINUOUS
10
4.4743235433070865
20
-5.9008143700787397
11
4.4780730708661416
21
-5.9083134251968499
0
LINE
8
BLACK
6
CONTINUOUS
10
4.4780730708661416
20
-5.9083134251968499
11
4.4818225984251967
21
-5.9120629921259837
0
LINE
8
BLACK
6
CONTINUOUS
10
4.4818225984251967
20
-5.9120629921259837
11
4.4893216535433069
21
-5.9158125196850389
0
LINE
8
BLACK
6
CONTINUOUS
10
4.4893216535433069
20
-5.9158125196850389
11
4.5043198031496061
21
-5.9158125196850389
0
LINE
8
BLACK
6
CONTINUOUS
10
4.5043198031496061
20
-5.9158125196850389
11
4.5118188582677163
21
-5.9120629921259837
0
LINE
8
BLACK
6
CONTINUOUS
10
4.5118188582677163
20
-5.9120629921259837
11
4.5155683858267714
21
-5.9083134251968499
0
LINE
8
BLACK
6
CONTINUOUS
10
4.5155683858267714
20
-5.9083134251968499
11
4.5193179133858266
21
-5.9008143700787397
0
LINE
8
BLACK
6
CONTINUOUS
10
4.5193179133858266
20
-5.9008143700787397
11
4.5193179133858266
21
-5.8820667322834641
0
LINE
8
BLACK
6
CONTINUOUS
10
4.5193179133858266
20
-5.8820667322834641
11
4.5155683858267714
21
-5.8745676771653539
0
LINE
8
BLACK
6
CONTINUOUS
10
4.5155683858267714
20
-5.8745676771653539
11
4.5118188582677163
21
-5.87081811023622
0
LINE
8
BLACK
6
CONTINUOUS
10
4.5118188582677163
20
-5.87081811023622
11
4.5043198031496061
21
-5.8670685826771649
0
LINE
8
BLACK
6
CONTINUOUS
10
4.5043198031496061
20
-5.8670685826771649
11
4.4893216535433069
21
-5.8670685826771649
0
LINE
8
BLACK
6
CONTINUOUS
10
4.4893216535433069
20
-5.8670685826771649
11
4.4818225984251967
21
-5.87081811023622
0
LINE
8
BLACK
6
CONTINUOUS
10
4.4818225984251967
20
-5.87081811023622
11
4.4780730708661416
21
-5.8745676771653539
0
LINE
8
BLACK
6
CONTINUOUS
10
4.4780730708661416
20
-5.8745676771653539
11
4.4743235433070865
21
-5.8820667322834641
0
LINE
8
BLACK
6
CONTINUOUS
10
4.5568132283464564
20
-5.9158125196850389
11
4.5718113385826769
21
-5.9158125196850389
0
LINE
8
BLACK
6
CONTINUOUS
10
4.5718113385826769
20
-5.9158125196850389
11
4.5793104330708658
21
-5.9120629921259837
0
LINE
8
BLACK
6
CONTINUOUS
10
4.5793104330708658
20
-5.9120629921259837
11
4.5830599606299209
21
-5.9083134251968499
0
LINE
8
BLACK
6
CONTINUOUS
10
4.5830599606299209
20
-5.9083134251968499
11
4.5905590157480312
21
-5.8970648425196845
0
LINE
8
BLACK
6
CONTINUOUS
10
4.5905590157480312
20
-5.8970648425196845
11
4.5943085433070863
21
-5.8820667322834641
0
LINE
8
BLACK
6
CONTINUOUS
10
4.5943085433070863
20
-5.8820667322834641
11
4.5943085433070863
21
-5.8520704724409445
0
LINE
8
BLACK
6
CONTINUOUS
10
4.5943085433070863
20
-5.8520704724409445
11
4.5905590157480312
21
-5.8445714173228343
0
LINE
8
BLACK
6
CONTINUOUS
10
4.5905590157480312
20
-5.8445714173228343
11
4.586809488188976
21
-5.8408218897637791
0
LINE
8
BLACK
6
CONTINUOUS
10
4.586809488188976
20
-5.8408218897637791
11
4.5793104330708658
21
-5.837072362204724
0
LINE
8
BLACK
6
CONTINUOUS
10
4.5793104330708658
20
-5.837072362204724
11
4.5643122834645666
21
-5.837072362204724
0
LINE
8
BLACK
6
CONTINUOUS
10
4.5643122834645666
20
-5.837072362204724
11
4.5568132283464564
21
-5.8408218897637791
0
LINE
8
BLACK
6
CONTINUOUS
10
4.5568132283464564
20
-5.8408218897637791
11
4.5530637007874013
21
-5.8445714173228343
0
LINE
8
BLACK
6
CONTINUOUS
10
4.5530637007874013
20
-5.8445714173228343
11
4.5493141732283462
21
-5.8520704724409445
0
LINE
8
BLACK
6
CONTINUOUS
10
4.5493141732283462
20
-5.8520704724409445
11
4.5493141732283462
21
-5.87081811023622
0
LINE
8
BLACK
6
CONTINUOUS
10
4.5493141732283462
20
-5.87081811023622
11
4.5530637007874013
21
-5.878317204724409
0
LINE
8
BLACK
6
CONTINUOUS
10
4.5530637007874013
20
-5.878317204724409
11
4.5568132283464564
21
-5.8820667322834641
0
LINE
8
BLACK
6
CONTINUOUS
10
4.5568132283464564
20
-5.8820667322834641
11
4.5643122834645666
21
-5.8858162598425192
0
LINE
8
BLACK
6
CONTINUOUS
10
4.5643122834645666
20
-5.8858162598425192
11
4.5793104330708658
21
-5.8858162598425192
0
LINE
8
BLACK
6
CONTINUOUS
10
4.5793104330708658
20
-5.8858162598425192
11
4.586809488188976
21
-5.8820667322834641
0
LINE
8
BLACK
6
CONTINUOUS
10
4.586809488188976
20
-5.8820667322834641
11
4.5905590157480312
21
-5.878317204724409
0
LINE
8
BLACK
6
CONTINUOUS
10
4.5905590157480312
20
-5.878317204724409
11
4.5943085433070863
21
-5.87081811023622
0
LINE
8
BLACK
6
CONTINUOUS
10
4.6243048031496059
20
-5.837072362204724
11
4.6243048031496059
21
-5.8520704724409445
0
LINE
8
BLACK
6
CONTINUOUS
10
4.6543010629921255
20
-5.837072362204724
11
4.6543010629921255
21
-5.8520704724409445
0
LINE
8
BLACK
6
CONTINUOUS
10
4.7705365748031499
20
-5.9458087401574806
11
4.766787007874016
21
-5.9420592125984246
0
LINE
8
BLACK
6
CONTINUOUS
10
4.766787007874016
20
-5.9420592125984246
11
4.7592879527559058
21
-5.9308106299212593
0
LINE
8
BLACK
6
CONTINUOUS
10
4.7592879527559058
20
-5.9308106299212593
11
4.7555384251968507
21
-5.9233115748031491
0
LINE
8
BLACK
6
CONTINUOUS
10
4.7555384251968507
20
-5.9233115748031491
11
4.7517888976377956
21
-5.9120629921259837
0
LINE
8
BLACK
6
CONTINUOUS
10
4.7517888976377956
20
-5.9120629921259837
11
4.7480393700787404
21
-5.8933153149606294
0
LINE
8
BLACK
6
CONTINUOUS
10
4.7480393700787404
20
-5.8933153149606294
11
4.7480393700787404
21
-5.878317204724409
0
LINE
8
BLACK
6
CONTINUOUS
10
4.7480393700787404
20
-5.878317204724409
11
4.7517888976377956
21
-5.8595695275590547
0
LINE
8
BLACK
6
CONTINUOUS
10
4.7517888976377956
20
-5.8595695275590547
11
4.7555384251968507
21
-5.8483209448818894
0
LINE
8
BLACK
6
CONTINUOUS
10
4.7555384251968507
20
-5.8483209448818894
11
4.7592879527559058
21
-5.8408218897637791
0
LINE
8
BLACK
6
CONTINUOUS
10
4.7592879527559058
20
-5.8408218897637791
11
4.766787007874016
21
-5.8295732677165351
0
LINE
8
BLACK
6
CONTINUOUS
10
4.766787007874016
20
-5.8295732677165351
11
4.7705365748031499
21
-5.8258237401574799
0
LINE
8
BLACK
6
CONTINUOUS
10
4.7967832677165356
20
-5.8445714173228343
11
4.8005327952755907
21
-5.8408218897637791
0
LINE
8
BLACK
6
CONTINUOUS
10
4.8005327952755907
20
-5.8408218897637791
11
4.808031850393701
21
-5.837072362204724
0
LINE
8
BLACK
6
CONTINUOUS
10
4.808031850393701
20
-5.837072362204724
11
4.8267795275590553
21
-5.837072362204724
0
LINE
8
BLACK
6
CONTINUOUS
10
4.8267795275590553
20
-5.837072362204724
11
4.8342785826771655
21
-5.8408218897637791
0
LINE
8
BLACK
6
CONTINUOUS
10
4.8342785826771655
20
-5.8408218897637791
11
4.8380281102362206
21
-5.8445714173228343
0
LINE
8
BLACK
6
CONTINUOUS
10
4.8380281102362206
20
-5.8445714173228343
11
4.8417776377952757
21
-5.8520704724409445
0
LINE
8
BLACK
6
CONTINUOUS
10
4.8417776377952757
20
-5.8520704724409445
11
4.8417776377952757
21
-5.8595695275590547
0
LINE
8
BLACK
6
CONTINUOUS
10
4.8417776377952757
20
-5.8595695275590547
11
4.8380281102362206
21
-5.87081811023622
0
LINE
8
BLACK
6
CONTINUOUS
10
4.8380281102362206
20
-5.87081811023622
11
4.7930337401574805
21
-5.9158125196850389
0
LINE
8
BLACK
6
CONTINUOUS
10
4.7930337401574805
20
-5.9158125196850389
11
4.8417776377952757
21
-5.9158125196850389
0
LINE
8
BLACK
6
CONTINUOUS
10
4.9355159448818897
20
-5.9158125196850389
11
4.9355159448818897
21
-5.837072362204724
0
LINE
8
BLACK
6
CONTINUOUS
10
4.9692617322834645
20
-5.9158125196850389
11
4.9692617322834645
21
-5.8745676771653539
0
LINE
8
BLACK
6
CONTINUOUS
10
4.9692617322834645
20
-5.8745676771653539
11
4.9655122047244094
21
-5.8670685826771649
0
LINE
8
BLACK
6
CONTINUOUS
10
4.9655122047244094
20
-5.8670685826771649
11
4.9580131496062991
21
-5.8633190551181098
0
LINE
8
BLACK
6
CONTINUOUS
10
4.9580131496062991
20
-5.8633190551181098
11
4.946764527559055
21
-5.8633190551181098
0
LINE
8
BLACK
6
CONTINUOUS
10
4.946764527559055
20
-5.8633190551181098
11
4.9392654724409448
21
-5.8670685826771649
0
LINE
8
BLACK
6
CONTINUOUS
10
4.9392654724409448
20
-5.8670685826771649
11
4.9355159448818897
21
-5.87081811023622
0
LINE
8
BLACK
6
CONTINUOUS
10
5.0180056299212596
20
-5.9158125196850389
11
5.0105065748031494
21
-5.9120629921259837
0
LINE
8
BLACK
6
CONTINUOUS
10
5.0105065748031494
20
-5.9120629921259837
11
5.0067570472440943
21
-5.9083134251968499
0
LINE
8
BLACK
6
CONTINUOUS
10
5.0067570472440943
20
-5.9083134251968499
11
5.0030075196850392
21
-5.9008143700787397
0
LINE
8
BLACK
6
CONTINUOUS
10
5.0030075196850392
20
-5.9008143700787397
11
5.0030075196850392
21
-5.878317204724409
0
LINE
8
BLACK
6
CONTINUOUS
10
5.0030075196850392
20
-5.878317204724409
11
5.0067570472440943
21
-5.87081811023622
0
LINE
8
BLACK
6
CONTINUOUS
10
5.0067570472440943
20
-5.87081811023622
11
5.0105065748031494
21
-5.8670685826771649
0
LINE
8
BLACK
6
CONTINUOUS
10
5.0105065748031494
20
-5.8670685826771649
11
5.0180056299212596
21
-5.8633190551181098
0
LINE
8
BLACK
6
CONTINUOUS
10
5.0180056299212596
20
-5.8633190551181098
11
5.0292542519685037
21
-5.8633190551181098
0
LINE
8
BLACK
6
CONTINUOUS
10
5.0292542519685037
20
-5.8633190551181098
11
5.036753307086614
21
-5.8670685826771649
0
LINE
8
BLACK
6
CONTINUOUS
10
5.036753307086614
20
-5.8670685826771649
11
5.0405028346456691
21
-5.87081811023622
0
LINE
8
BLACK
6
CONTINUOUS
10
5.0405028346456691
20
-5.87081811023622
11
5.0442523622047242
21
-5.878317204724409
0
LINE
8
BLACK
6
CONTINUOUS
10
5.0442523622047242
20
-5.878317204724409
11
5.0442523622047242
21
-5.9008143700787397
0
LINE
8
BLACK
6
CONTINUOUS
10
5.0442523622047242
20
-5.9008143700787397
11
5.0405028346456691
21
-5.9083134251968499
0
LINE
8
BLACK
6
CONTINUOUS
10
5.0405028346456691
20
-5.9083134251968499
11
5.036753307086614
21
-5.9120629921259837
0
LINE
8
BLACK
6
CONTINUOUS
10
5.036753307086614
20
-5.9120629921259837
11
5.0292542519685037
21
-5.9158125196850389
0
LINE
8
BLACK
6
CONTINUOUS
10
5.0292542519685037
20
-5.9158125196850389
11
5.0180056299212596
21
-5.9158125196850389
0
LINE
8
BLACK
6
CONTINUOUS
10
5.0892467322834642
20
-5.9158125196850389
11
5.081747677165354
21
-5.9120629921259837
0
LINE
8
BLACK
6
CONTINUOUS
10
5.081747677165354
20
-5.9120629921259837
11
5.0779981496062989
21
-5.9045638976377948
0
LINE
8
BLACK
6
CONTINUOUS
10
5.0779981496062989
20
-5.9045638976377948
11
5.0779981496062989
21
-5.837072362204724
0
LINE
8
BLACK
6
CONTINUOUS
10
5.1492392519685035
20
-5.9120629921259837
11
5.1417401968503933
21
-5.9158125196850389
0
LINE
8
BLACK
6
CONTINUOUS
10
5.1417401968503933
20
-5.9158125196850389
11
5.1267420472440941
21
-5.9158125196850389
0
LINE
8
BLACK
6
CONTINUOUS
10
5.1267420472440941
20
-5.9158125196850389
11
5.1192429921259839
21
-5.9120629921259837
0
LINE
8
BLACK
6
CONTINUOUS
10
5.1192429921259839
20
-5.9120629921259837
11
5.1154934645669288
21
-5.9045638976377948
0
LINE
8
BLACK
6
CONTINUOUS
10
5.1154934645669288
20
-5.9045638976377948
11
5.1154934645669288
21
-5.8745676771653539
0
LINE
8
BLACK
6
CONTINUOUS
10
5.1154934645669288
20
-5.8745676771653539
11
5.1192429921259839
21
-5.8670685826771649
0
LINE
8
BLACK
6
CONTINUOUS
10
5.1192429921259839
20
-5.8670685826771649
11
5.1267420472440941
21
-5.8633190551181098
0
LINE
8
BLACK
6
CONTINUOUS
10
5.1267420472440941
20
-5.8633190551181098
11
5.1417401968503933
21
-5.8633190551181098
0
LINE
8
BLACK
6
CONTINUOUS
10
5.1417401968503933
20
-5.8633190551181098
11
5.1492392519685035
21
-5.8670685826771649
0
LINE
8
BLACK
6
CONTINUOUS
10
5.1492392519685035
20
-5.8670685826771649
11
5.1529887795275586
21
-5.8745676771653539
0
LINE
8
BLACK
6
CONTINUOUS
10
5.1529887795275586
20
-5.8745676771653539
11
5.1529887795275586
21
-5.8820667322834641
0
LINE
8
BLACK
6
CONTINUOUS
10
5.1529887795275586
20
-5.8820667322834641
11
5.1154934645669288
21
-5.8895657874015743
0
LINE
8
BLACK
6
CONTINUOUS
10
5.1829850393700783
20
-5.9120629921259837
11
5.1904840944881885
21
-5.9158125196850389
0
LINE
8
BLACK
6
CONTINUOUS
10
5.1904840944881885
20
-5.9158125196850389
11
5.2054822047244089
21
-5.9158125196850389
0
LINE
8
BLACK
6
CONTINUOUS
10
5.2054822047244089
20
-5.9158125196850389
11
5.2129812992125979
21
-5.9120629921259837
0
LINE
8
BLACK
6
CONTINUOUS
10
5.2129812992125979
20
-5.9120629921259837
11
5.216730826771653
21
-5.9045638976377948
0
LINE
8
BLACK
6
CONTINUOUS
10
5.216730826771653
20
-5.9045638976377948
11
5.216730826771653
21
-5.9008143700787397
0
LINE
8
BLACK
6
CONTINUOUS
10
5.216730826771653
20
-5.9008143700787397
11
5.2129812992125979
21
-5.8933153149606294
0
LINE
8
BLACK
6
CONTINUOUS
10
5.2129812992125979
20
-5.8933153149606294
11
5.2054822047244089
21
-5.8895657874015743
0
LINE
8
BLACK
6
CONTINUOUS
10
5.2054822047244089
20
-5.8895657874015743
11
5.1942336220472436
21
-5.8895657874015743
0
LINE
8
BLACK
6
CONTINUOUS
10
5.1942336220472436
20
-5.8895657874015743
11
5.1867345669291334
21
-5.8858162598425192
0
LINE
8
BLACK
6
CONTINUOUS
10
5.1867345669291334
20
-5.8858162598425192
11
5.1829850393700783
21
-5.878317204724409
0
LINE
8
BLACK
6
CONTINUOUS
10
5.1829850393700783
20
-5.878317204724409
11
5.1829850393700783
21
-5.8745676771653539
0
LINE
8
BLACK
6
CONTINUOUS
10
5.1829850393700783
20
-5.8745676771653539
11
5.1867345669291334
21
-5.8670685826771649
0
LINE
8
BLACK
6
CONTINUOUS
10
5.1867345669291334
20
-5.8670685826771649
11
5.1942336220472436
21
-5.8633190551181098
0
LINE
8
BLACK
6
CONTINUOUS
10
5.1942336220472436
20
-5.8633190551181098
11
5.2054822047244089
21
-5.8633190551181098
0
LINE
8
BLACK
6
CONTINUOUS
10
5.2054822047244089
20
-5.8633190551181098
11
5.2129812992125979
21
-5.8670685826771649
0
LINE
8
BLACK
6
CONTINUOUS
10
5.2429775590551184
20
-5.9458087401574806
11
5.2467270866141735
21
-5.9420592125984246
0
LINE
8
BLACK
6
CONTINUOUS
10
5.2467270866141735
20
-5.9420592125984246
11
5.2542261417322838
21
-5.9308106299212593
0
LINE
8
BLACK
6
CONTINUOUS
10
5.2542261417322838
20
-5.9308106299212593
11
5.2579756692913389
21
-5.9233115748031491
0
LINE
8
BLACK
6
CONTINUOUS
10
5.2579756692913389
20
-5.9233115748031491
11
5.261725196850394
21
-5.9120629921259837
0
LINE
8
BLACK
6
CONTINUOUS
10
5.261725196850394
20
-5.9120629921259837
11
5.2654747244094491
21
-5.8933153149606294
0
LINE
8
BLACK
6
CONTINUOUS
10
5.2654747244094491
20
-5.8933153149606294
11
5.2654747244094491
21
-5.878317204724409
0
LINE
8
BLACK
6
CONTINUOUS
10
5.2654747244094491
20
-5.878317204724409
11
5.261725196850394
21
-5.8595695275590547
0
LINE
8
BLACK
6
CONTINUOUS
10
5.261725196850394
20
-5.8595695275590547
11
5.2579756692913389
21
-5.8483209448818894
0
LINE
8
BLACK
6
CONTINUOUS
10
5.2579756692913389
20
-5.8483209448818894
11
5.2542261417322838
21
-5.8408218897637791
0
LINE
8
BLACK
6
CONTINUOUS
10
5.2542261417322838
20
-5.8408218897637791
11
5.2467270866141735
21
-5.8295732677165351
0
LINE
8
BLACK
6
CONTINUOUS
10
5.2467270866141735
20
-5.8295732677165351
11
5.2429775590551184
21
-5.8258237401574799
0
LINE
8
BLACK
6
CONTINUOUS
10
5.3854597637795276
20
-5.9458087401574806
11
5.3817101968503938
21
-5.9420592125984246
0
LINE
8
BLACK
6
CONTINUOUS
10
5.3817101968503938
20
-5.9420592125984246
11
5.3742111417322835
21
-5.9308106299212593
0
LINE
8
BLACK
6
CONTINUOUS
10
5.3742111417322835
20
-5.9308106299212593
11
5.3704616141732284
21
-5.9233115748031491
0
LINE
8
BLACK
6
CONTINUOUS
10
5.3704616141732284
20
-5.9233115748031491
11
5.3667120866141733
21
-5.9120629921259837
0
LINE
8
BLACK
6
CONTINUOUS
10
5.3667120866141733
20
-5.9120629921259837
11
5.3629625590551182
21
-5.8933153149606294
0
LINE
8
BLACK
6
CONTINUOUS
10
5.3629625590551182
20
-5.8933153149606294
11
5.3629625590551182
21
-5.878317204724409
0
LINE
8
BLACK
6
CONTINUOUS
10
5.3629625590551182
20
-5.878317204724409
11
5.3667120866141733
21
-5.8595695275590547
0
LINE
8
BLACK
6
CONTINUOUS
10
5.3667120866141733
20
-5.8595695275590547
11
5.3704616141732284
21
-5.8483209448818894
0
LINE
8
BLACK
6
CONTINUOUS
10
5.3704616141732284
20
-5.8483209448818894
11
5.3742111417322835
21
-5.8408218897637791
0
LINE
8
BLACK
6
CONTINUOUS
10
5.3742111417322835
20
-5.8408218897637791
11
5.3817101968503938
21
-5.8295732677165351
0
LINE
8
BLACK
6
CONTINUOUS
10
5.3817101968503938
20
-5.8295732677165351
11
5.3854597637795276
21
-5.8258237401574799
0
LINE
8
BLACK
6
CONTINUOUS
10
5.4154559842519685
20
-5.8633190551181098
11
5.4154559842519685
21
-5.9158125196850389
0
LINE
8
BLACK
6
CONTINUOUS
10
5.4154559842519685
20
-5.87081811023622
11
5.4192055118110236
21
-5.8670685826771649
0
LINE
8
BLACK
6
CONTINUOUS
10
5.4192055118110236
20
-5.8670685826771649
11
5.4267045669291338
21
-5.8633190551181098
0
LINE
8
BLACK
6
CONTINUOUS
10
5.4267045669291338
20
-5.8633190551181098
11
5.4379531889763779
21
-5.8633190551181098
0
LINE
8
BLACK
6
CONTINUOUS
10
5.4379531889763779
20
-5.8633190551181098
11
5.4454522440944881
21
-5.8670685826771649
0
LINE
8
BLACK
6
CONTINUOUS
10
5.4454522440944881
20
-5.8670685826771649
11
5.4492017716535432
21
-5.8745676771653539
0
LINE
8
BLACK
6
CONTINUOUS
10
5.4492017716535432
20
-5.8745676771653539
11
5.4492017716535432
21
-5.9158125196850389
0
LINE
8
BLACK
6
CONTINUOUS
10
5.4979456692913384
20
-5.9158125196850389
11
5.4904466141732282
21
-5.9120629921259837
0
LINE
8
BLACK
6
CONTINUOUS
10
5.4904466141732282
20
-5.9120629921259837
11
5.4866970866141731
21
-5.9083134251968499
0
LINE
8
BLACK
6
CONTINUOUS
10
5.4866970866141731
20
-5.9083134251968499
11
5.482947559055118
21
-5.9008143700787397
0
LINE
8
BLACK
6
CONTINUOUS
10
5.482947559055118
20
-5.9008143700787397
11
5.482947559055118
21
-5.878317204724409
0
LINE
8
BLACK
6
CONTINUOUS
10
5.482947559055118
20
-5.878317204724409
11
5.4866970866141731
21
-5.87081811023622
0
LINE
8
BLACK
6
CONTINUOUS
10
5.4866970866141731
20
-5.87081811023622
11
5.4904466141732282
21
-5.8670685826771649
0
LINE
8
BLACK
6
CONTINUOUS
10
5.4904466141732282
20
-5.8670685826771649
11
5.4979456692913384
21
-5.8633190551181098
0
LINE
8
BLACK
6
CONTINUOUS
10
5.4979456692913384
20
-5.8633190551181098
11
5.5091942913385825
21
-5.8633190551181098
0
LINE
8
BLACK
6
CONTINUOUS
10
5.5091942913385825
20
-5.8633190551181098
11
5.5166933464566927
21
-5.8670685826771649
0
LINE
8
BLACK
6
CONTINUOUS
10
5.5166933464566927
20
-5.8670685826771649
11
5.5204428740157478
21
-5.87081811023622
0
LINE
8
BLACK
6
CONTINUOUS
10
5.5204428740157478
20
-5.87081811023622
11
5.524192401574803
21
-5.878317204724409
0
LINE
8
BLACK
6
CONTINUOUS
10
5.524192401574803
20
-5.878317204724409
11
5.524192401574803
21
-5.9008143700787397
0
LINE
8
BLACK
6
CONTINUOUS
10
5.524192401574803
20
-5.9008143700787397
11
5.5204428740157478
21
-5.9083134251968499
0
LINE
8
BLACK
6
CONTINUOUS
10
5.5204428740157478
20
-5.9083134251968499
11
5.5166933464566927
21
-5.9120629921259837
0
LINE
8
BLACK
6
CONTINUOUS
10
5.5166933464566927
20
-5.9120629921259837
11
5.5091942913385825
21
-5.9158125196850389
0
LINE
8
BLACK
6
CONTINUOUS
10
5.5091942913385825
20
-5.9158125196850389
11
5.4979456692913384
21
-5.9158125196850389
0
LINE
8
BLACK
6
CONTINUOUS
10
5.5466896062992124
20
-5.8633190551181098
11
5.5766858267716533
21
-5.8633190551181098
0
LINE
8
BLACK
6
CONTINUOUS
10
5.5579381889763777
20
-5.837072362204724
11
5.5579381889763777
21
-5.9045638976377948
0
LINE
8
BLACK
6
CONTINUOUS
10
5.5579381889763777
20
-5.9045638976377948
11
5.5616877165354328
21
-5.9120629921259837
0
LINE
8
BLACK
6
CONTINUOUS
10
5.5616877165354328
20
-5.9120629921259837
11
5.569186771653543
21
-5.9158125196850389
0
LINE
8
BLACK
6
CONTINUOUS
10
5.569186771653543
20
-5.9158125196850389
11
5.5766858267716533
21
-5.9158125196850389
0
LINE
8
BLACK
6
CONTINUOUS
10
5.662925078740157
20
-5.8633190551181098
11
5.662925078740157
21
-5.9420592125984246
0
LINE
8
BLACK
6
CONTINUOUS
10
5.662925078740157
20
-5.8670685826771649
11
5.6704241338582673
21
-5.8633190551181098
0
LINE
8
BLACK
6
CONTINUOUS
10
5.6704241338582673
20
-5.8633190551181098
11
5.6854222834645665
21
-5.8633190551181098
0
LINE
8
BLACK
6
CONTINUOUS
10
5.6854222834645665
20
-5.8633190551181098
11
5.6929213385826767
21
-5.8670685826771649
0
LINE
8
BLACK
6
CONTINUOUS
10
5.6929213385826767
20
-5.8670685826771649
11
5.6966708661417318
21
-5.87081811023622
0
LINE
8
BLACK
6
CONTINUOUS
10
5.6966708661417318
20
-5.87081811023622
11
5.7004203937007869
21
-5.878317204724409
0
LINE
8
BLACK
6
CONTINUOUS
10
5.7004203937007869
20
-5.878317204724409
11
5.7004203937007869
21
-5.9008143700787397
0
LINE
8
BLACK
6
CONTINUOUS
10
5.7004203937007869
20
-5.9008143700787397
11
5.6966708661417318
21
-5.9083134251968499
0
LINE
8
BLACK
6
CONTINUOUS
10
5.6966708661417318
20
-5.9083134251968499
11
5.6929213385826767
21
-5.9120629921259837
0
LINE
8
BLACK
6
CONTINUOUS
10
5.6929213385826767
20
-5.9120629921259837
11
5.6854222834645665
21
-5.9158125196850389
0
LINE
8
BLACK
6
CONTINUOUS
10
5.6854222834645665
20
-5.9158125196850389
11
5.6704241338582673
21
-5.9158125196850389
0
LINE
8
BLACK
6
CONTINUOUS
10
5.6704241338582673
20
-5.9158125196850389
11
5.662925078740157
21
-5.9120629921259837
0
LINE
8
BLACK
6
CONTINUOUS
10
5.7454147637795279
20
-5.9158125196850389
11
5.7379157086614168
21
-5.9120629921259837
0
LINE
8
BLACK
6
CONTINUOUS
10
5.7379157086614168
20
-5.9120629921259837
11
5.7341661811023616
21
-5.9045638976377948
0
LINE
8
BLACK
6
CONTINUOUS
10
5.7341661811023616
20
-5.9045638976377948
11
5.7341661811023616
21
-5.837072362204724
0
LINE
8
BLACK
6
CONTINUOUS
10
5.8091568110236222
20
-5.9158125196850389
11
5.8091568110236222
21
-5.8745676771653539
0
LINE
8
BLACK
6
CONTINUOUS
10
5.8091568110236222
20
-5.8745676771653539
11
5.8054072834645671
21
-5.8670685826771649
0
LINE
8
BLACK
6
CONTINUOUS
10
5.8054072834645671
20
-5.8670685826771649
11
5.7979082283464569
21
-5.8633190551181098
0
LINE
8
BLACK
6
CONTINUOUS
10
5.7979082283464569
20
-5.8633190551181098
11
5.7829100787401577
21
-5.8633190551181098
0
LINE
8
BLACK
6
CONTINUOUS
10
5.7829100787401577
20
-5.8633190551181098
11
5.7754110236220475
21
-5.8670685826771649
0
LINE
8
BLACK
6
CONTINUOUS
10
5.8091568110236222
20
-5.9120629921259837
11
5.801657755905512
21
-5.9158125196850389
0
LINE
8
BLACK
6
CONTINUOUS
10
5.801657755905512
20
-5.9158125196850389
11
5.7829100787401577
21
-5.9158125196850389
0
LINE
8
BLACK
6
CONTINUOUS
10
5.7829100787401577
20
-5.9158125196850389
11
5.7754110236220475
21
-5.9120629921259837
0
LINE
8
BLACK
6
CONTINUOUS
10
5.7754110236220475
20
-5.9120629921259837
11
5.7716614960629924
21
-5.9045638976377948
0
LINE
8
BLACK
6
CONTINUOUS
10
5.7716614960629924
20
-5.9045638976377948
11
5.7716614960629924
21
-5.8970648425196845
0
LINE
8
BLACK
6
CONTINUOUS
10
5.7716614960629924
20
-5.8970648425196845
11
5.7754110236220475
21
-5.8895657874015743
0
LINE
8
BLACK
6
CONTINUOUS
10
5.7754110236220475
20
-5.8895657874015743
11
5.7829100787401577
21
-5.8858162598425192
0
LINE
8
BLACK
6
CONTINUOUS
10
5.7829100787401577
20
-5.8858162598425192
11
5.801657755905512
21
-5.8858162598425192
0
LINE
8
BLACK
6
CONTINUOUS
10
5.801657755905512
20
-5.8858162598425192
11
5.8091568110236222
21
-5.8820667322834641
0
LINE
8
BLACK
6
CONTINUOUS
10
5.8354035433070868
20
-5.8633190551181098
11
5.8653997637795277
21
-5.8633190551181098
0
LINE
8
BLACK
6
CONTINUOUS
10
5.8466521259842521
20
-5.837072362204724
11
5.8466521259842521
21
-5.9045638976377948
0
LINE
8
BLACK
6
CONTINUOUS
10
5.8466521259842521
20
-5.9045638976377948
11
5.8504016535433072
21
-5.9120629921259837
0
LINE
8
BLACK
6
CONTINUOUS
10
5.8504016535433072
20
-5.9120629921259837
11
5.8579007086614174
21
-5.9158125196850389
0
LINE
8
BLACK
6
CONTINUOUS
10
5.8579007086614174
20
-5.9158125196850389
11
5.8653997637795277
21
-5.9158125196850389
0
LINE
8
BLACK
6
CONTINUOUS
10
5.9216427559055118
20
-5.9120629921259837
11
5.9141437007874016
21
-5.9158125196850389
0
LINE
8
BLACK
6
CONTINUOUS
10
5.9141437007874016
20
-5.9158125196850389
11
5.8991455511811024
21
-5.9158125196850389
0
LINE
8
BLACK
6
CONTINUOUS
10
5.8991455511811024
20
-5.9158125196850389
11
5.8916464960629922
21
-5.9120629921259837
0
LINE
8
BLACK
6
CONTINUOUS
10
5.8916464960629922
20
-5.9120629921259837
11
5.8878969685039371
21
-5.9045638976377948
0
LINE
8
BLACK
6
CONTINUOUS
10
5.8878969685039371
20
-5.9045638976377948
11
5.8878969685039371
21
-5.8745676771653539
0
LINE
8
BLACK
6
CONTINUOUS
10
5.8878969685039371
20
-5.8745676771653539
11
5.8916464960629922
21
-5.8670685826771649
0
LINE
8
BLACK
6
CONTINUOUS
10
5.8916464960629922
20
-5.8670685826771649
11
5.8991455511811024
21
-5.8633190551181098
0
LINE
8
BLACK
6
CONTINUOUS
10
5.8991455511811024
20
-5.8633190551181098
11
5.9141437007874016
21
-5.8633190551181098
0
LINE
8
BLACK
6
CONTINUOUS
10
5.9141437007874016
20
-5.8633190551181098
11
5.9216427559055118
21
-5.8670685826771649
0
LINE
8
BLACK
6
CONTINUOUS
10
5.9216427559055118
20
-5.8670685826771649
11
5.9253922834645669
21
-5.8745676771653539
0
LINE
8
BLACK
6
CONTINUOUS
10
5.9253922834645669
20
-5.8745676771653539
11
5.9253922834645669
21
-5.8820667322834641
0
LINE
8
BLACK
6
CONTINUOUS
10
5.9253922834645669
20
-5.8820667322834641
11
5.8878969685039371
21
-5.8895657874015743
0
LINE
8
BLACK
6
CONTINUOUS
10
5.9928838582677164
20
-5.9158125196850389
11
5.9928838582677164
21
-5.837072362204724
0
LINE
8
BLACK
6
CONTINUOUS
10
5.9928838582677164
20
-5.9120629921259837
11
5.9853848031496062
21
-5.9158125196850389
0
LINE
8
BLACK
6
CONTINUOUS
10
5.9853848031496062
20
-5.9158125196850389
11
5.970386653543307
21
-5.9158125196850389
0
LINE
8
BLACK
6
CONTINUOUS
10
5.970386653543307
20
-5.9158125196850389
11
5.9628875984251968
21
-5.9120629921259837
0
LINE
8
BLACK
6
CONTINUOUS
10
5.9628875984251968
20
-5.9120629921259837
11
5.9591380708661417
21
-5.9083134251968499
0
LINE
8
BLACK
6
CONTINUOUS
10
5.9591380708661417
20
-5.9083134251968499
11
5.9553885433070866
21
-5.9008143700787397
0
LINE
8
BLACK
6
CONTINUOUS
10
5.9553885433070866
20
-5.9008143700787397
11
5.9553885433070866
21
-5.878317204724409
0
LINE
8
BLACK
6
CONTINUOUS
10
5.9553885433070866
20
-5.878317204724409
11
5.9591380708661417
21
-5.87081811023622
0
LINE
8
BLACK
6
CONTINUOUS
10
5.9591380708661417
20
-5.87081811023622
11
5.9628875984251968
21
-5.8670685826771649
0
LINE
8
BLACK
6
CONTINUOUS
10
5.9628875984251968
20
-5.8670685826771649
11
5.970386653543307
21
-5.8633190551181098
0
LINE
8
BLACK
6
CONTINUOUS
10
5.970386653543307
20
-5.8633190551181098
11
5.9853848031496062
21
-5.8633190551181098
0
LINE
8
BLACK
6
CONTINUOUS
10
5.9853848031496062
20
-5.8633190551181098
11
5.9928838582677164
21
-5.8670685826771649
0
LINE
8
BLACK
6
CONTINUOUS
10
6.022880118110236
20
-5.9458087401574806
11
6.0266296456692912
21
-5.9420592125984246
0
LINE
8
BLACK
6
CONTINUOUS
10
6.0266296456692912
20
-5.9420592125984246
11
6.0341287007874014
21
-5.9308106299212593
0
LINE
8
BLACK
6
CONTINUOUS
10
6.0341287007874014
20
-5.9308106299212593
11
6.0378782283464565
21
-5.9233115748031491
0
LINE
8
BLACK
6
CONTINUOUS
10
6.0378782283464565
20
-5.9233115748031491
11
6.0416277559055116
21
-5.9120629921259837
0
LINE
8
BLACK
6
CONTINUOUS
10
6.0416277559055116
20
-5.9120629921259837
11
6.0453772834645667
21
-5.8933153149606294
0
LINE
8
BLACK
6
CONTINUOUS
10
6.0453772834645667
20
-5.8933153149606294
11
6.0453772834645667
21
-5.878317204724409
0
LINE
8
BLACK
6
CONTINUOUS
10
6.0453772834645667
20
-5.878317204724409
11
6.0416277559055116
21
-5.8595695275590547
0
LINE
8
BLACK
6
CONTINUOUS
10
6.0416277559055116
20
-5.8595695275590547
11
6.0378782283464565
21
-5.8483209448818894
0
LINE
8
BLACK
6
CONTINUOUS
10
6.0378782283464565
20
-5.8483209448818894
11
6.0341287007874014
21
-5.8408218897637791
0
LINE
8
BLACK
6
CONTINUOUS
10
6.0341287007874014
20
-5.8408218897637791
11
6.0266296456692912
21
-5.8295732677165351
0
LINE
8
BLACK
6
CONTINUOUS
10
6.0266296456692912
20
-5.8295732677165351
11
6.022880118110236
21
-5.8258237401574799
  0
ENDSEC
  0
EOF
