  0
SECTION
  2
HEADER
  9
$ANGBASE
  50
0.0
  9
$ANGDIR
  70
1
  9
$MEASUREMENT
  70
0
  0
ENDSEC
  0
SECTION
  2
TABLES
  0
TABLE
  2
LTYPE
  70
4
  0
LTYPE
  5
40F
  2
CONTINUOUS
  70
0
  3
Solid line
  72
65
  73
0
  40
0.0
  0
LTYPE
  5
410
  2
DASHDOT
 70
0
  3
Dash Dot ____ _ ____ _
 72
65
 73
4
 40
2.0
 49
1.25
 49
-0.25
 49
0.25
 49
-0.25
  0
LTYPE
  5
411
  2
DASHED
 70
0
  3
Dashed __ __ __ __ __
 72
65
 73
2
 40
0.75
 49
0.5
 49
-0.25
  0
LTYPE
  5
43B
  2
DOTTED
 70
0
  3
Dotted .  .  .  .
 72
65
 73
2
 40
0.2
 49
0.0
 49
-0.2
  0
ENDTAB
  0
TABLE
  2
STYLE
  70
4
  0
STYLE
  2
KICAD
  70
0
  40
0
  41
1
  42
1
  50
0
  71
0
  3
isocp.shx
  0
STYLE
  2
KICADB
  70
0
  40
0
  41
1
  42
1
  50
0
  71
0
  3
isocp.shx
  0
STYLE
  2
KICADI
  70
0
  40
0
  41
1
  42
1
  50
15
  71
0
  3
isocp.shx
  0
STYLE
  2
KICADBI
  70
0
  40
0
  41
1
  42
1
  50
15
  71
0
  3
isocp.shx
  0
ENDTAB
  0
TABLE
  2
LAYER
  70
1
  0
LAYER
  2
BLACK
  70
0
  62
7
  6
CONTINUOUS
  0
ENDTAB
  0
ENDSEC
  0
SECTION
  2
ENTITIES
0
ARC
8
BLACK
10
8.1787795275590547
20
-5.2683897637795276
40
0.2499999212598456
50
-90.00001805
51
-0.00000902
0
LINE
8
BLACK
6
CONTINUOUS
10
5.9037794488188977
20
-2.5183898031496064
11
8.1787794488188972
21
-2.5183898031496064
0
ARC
8
BLACK
10
8.1787795275590547
20
-2.7683897637795276
40
0.2499999606299337
50
-0.00000902
51
90.00001805
0
LINE
8
BLACK
6
CONTINUOUS
10
8.1787794488188972
20
-5.5183898031496064
11
5.9037794488188977
21
-5.5183898031496064
0
ARC
8
BLACK
10
5.9037795275590552
20
-5.2683897637795276
40
0.2500000393700911
50
-179.99999098
51
-90.00001805
0
LINE
8
BLACK
6
CONTINUOUS
10
5.6537794488188977
20
-5.2683898031496064
11
5.6537794488188977
21
-2.7683898031496064
0
ARC
8
BLACK
10
5.9037795275590552
20
-2.7683897637795276
40
0.2500000787401606
50
-269.99998195
51
-179.99999098
0
LINE
8
BLACK
6
CONTINUOUS
10
8.4287794488188972
20
-2.7683898031496064
11
8.4287794488188972
21
-5.2683898031496064
0
LINE
8
BLACK
6
CONTINUOUS
10
7.2225000000000001
20
-3.0987991732283464
11
7.2774999999999999
21
-3.1537991732283466
0
LINE
8
BLACK
6
CONTINUOUS
10
7.2774999999999999
20
-3.0987991732283464
11
7.2225000000000001
21
-3.1537991732283466
0
LINE
8
BLACK
6
CONTINUOUS
10
7.2225000000000001
20
-3.2956496062992127
11
7.2774999999999999
21
-3.3506496062992124
0
LINE
8
BLACK
6
CONTINUOUS
10
7.2774999999999999
20
-3.2956496062992127
11
7.2225000000000001
21
-3.3506496062992124
0
LINE
8
BLACK
6
CONTINUOUS
10
7.2225000000000001
20
-3.4924999999999997
11
7.2774999999999999
21
-3.5474999999999999
0
LINE
8
BLACK
6
CONTINUOUS
10
7.2774999999999999
20
-3.4924999999999997
11
7.2225000000000001
21
-3.5474999999999999
0
LINE
8
BLACK
6
CONTINUOUS
10
7.2225000000000001
20
-3.6893503937007872
11
7.2774999999999999
21
-3.7443503937007874
0
LINE
8
BLACK
6
CONTINUOUS
10
7.2774999999999999
20
-3.6893503937007872
11
7.2225000000000001
21
-3.7443503937007874
0
LINE
8
BLACK
6
CONTINUOUS
10
7.2225000000000001
20
-3.8862007874015747
11
7.2774999999999999
21
-3.9412007874015749
0
LINE
8
BLACK
6
CONTINUOUS
10
7.2774999999999999
20
-3.8862007874015747
11
7.2225000000000001
21
-3.9412007874015749
0
LINE
8
BLACK
6
CONTINUOUS
10
7.2225000000000001
20
-4.0830511811023618
11
7.2774999999999999
21
-4.1380511811023624
0
LINE
8
BLACK
6
CONTINUOUS
10
7.2774999999999999
20
-4.0830511811023618
11
7.2225000000000001
21
-4.1380511811023624
0
LINE
8
BLACK
6
CONTINUOUS
10
7.2225000000000001
20
-4.2799015748031497
11
7.2774999999999999
21
-4.3349015748031494
0
LINE
8
BLACK
6
CONTINUOUS
10
7.2774999999999999
20
-4.2799015748031497
11
7.2225000000000001
21
-4.3349015748031494
0
LINE
8
BLACK
6
CONTINUOUS
10
7.2225000000000001
20
-4.4767519685039368
11
7.2774999999999999
21
-4.5317519685039365
0
LINE
8
BLACK
6
CONTINUOUS
10
7.2774999999999999
20
-4.4767519685039368
11
7.2225000000000001
21
-4.5317519685039365
0
LINE
8
BLACK
6
CONTINUOUS
10
7.2225000000000001
20
-4.6736024015748034
11
7.2774999999999999
21
-4.7286024015748032
0
LINE
8
BLACK
6
CONTINUOUS
10
7.2774999999999999
20
-4.6736024015748034
11
7.2225000000000001
21
-4.7286024015748032
0
LINE
8
BLACK
6
CONTINUOUS
10
7.2225000000000001
20
-4.870452874015748
11
7.2774999999999999
21
-4.9254528740157477
0
LINE
8
BLACK
6
CONTINUOUS
10
7.2774999999999999
20
-4.870452874015748
11
7.2225000000000001
21
-4.9254528740157477
0
LINE
8
BLACK
6
CONTINUOUS
10
7.5453346062992122
20
-3.0987991732283464
11
7.6003346062992128
21
-3.1537991732283466
0
LINE
8
BLACK
6
CONTINUOUS
10
7.6003346062992128
20
-3.0987991732283464
11
7.5453346062992122
21
-3.1537991732283466
0
LINE
8
BLACK
6
CONTINUOUS
10
7.5453346062992122
20
-3.2956496062992127
11
7.6003346062992128
21
-3.3506496062992124
0
LINE
8
BLACK
6
CONTINUOUS
10
7.6003346062992128
20
-3.2956496062992127
11
7.5453346062992122
21
-3.3506496062992124
0
LINE
8
BLACK
6
CONTINUOUS
10
7.5453346062992122
20
-3.4924999999999997
11
7.6003346062992128
21
-3.5474999999999999
0
LINE
8
BLACK
6
CONTINUOUS
10
7.6003346062992128
20
-3.4924999999999997
11
7.5453346062992122
21
-3.5474999999999999
0
LINE
8
BLACK
6
CONTINUOUS
10
7.5453346062992122
20
-3.6893503937007872
11
7.6003346062992128
21
-3.7443503937007874
0
LINE
8
BLACK
6
CONTINUOUS
10
7.6003346062992128
20
-3.6893503937007872
11
7.5453346062992122
21
-3.7443503937007874
0
LINE
8
BLACK
6
CONTINUOUS
10
7.5453346062992122
20
-3.8862007874015747
11
7.6003346062992128
21
-3.9412007874015749
0
LINE
8
BLACK
6
CONTINUOUS
10
7.6003346062992128
20
-3.8862007874015747
11
7.5453346062992122
21
-3.9412007874015749
0
LINE
8
BLACK
6
CONTINUOUS
10
7.5453346062992122
20
-4.0830511811023618
11
7.6003346062992128
21
-4.1380511811023624
0
LINE
8
BLACK
6
CONTINUOUS
10
7.6003346062992128
20
-4.0830511811023618
11
7.5453346062992122
21
-4.1380511811023624
0
LINE
8
BLACK
6
CONTINUOUS
10
7.5453346062992122
20
-4.2799015748031497
11
7.6003346062992128
21
-4.3349015748031494
0
LINE
8
BLACK
6
CONTINUOUS
10
7.6003346062992128
20
-4.2799015748031497
11
7.5453346062992122
21
-4.3349015748031494
0
LINE
8
BLACK
6
CONTINUOUS
10
7.5453346062992122
20
-4.4767519685039368
11
7.6003346062992128
21
-4.5317519685039365
0
LINE
8
BLACK
6
CONTINUOUS
10
7.6003346062992128
20
-4.4767519685039368
11
7.5453346062992122
21
-4.5317519685039365
0
LINE
8
BLACK
6
CONTINUOUS
10
7.5453346062992122
20
-4.6736024015748034
11
7.6003346062992128
21
-4.7286024015748032
0
LINE
8
BLACK
6
CONTINUOUS
10
7.6003346062992128
20
-4.6736024015748034
11
7.5453346062992122
21
-4.7286024015748032
0
LINE
8
BLACK
6
CONTINUOUS
10
7.5453346062992122
20
-4.870452874015748
11
7.6003346062992128
21
-4.9254528740157477
0
LINE
8
BLACK
6
CONTINUOUS
10
7.6003346062992128
20
-4.870452874015748
11
7.5453346062992122
21
-4.9254528740157477
0
CIRCLE
8
BLACK
10
6.5917322440944881
20
-4.0428346456692914
40
0.0354330708661417
0
CIRCLE
8
BLACK
10
6.5917322440944881
20
-4.1766929133858266
40
0.0354330708661417
0
CIRCLE
8
BLACK
10
6.5929133464566929
20
-3.257007874015748
40
0.0354330708661417
0
CIRCLE
8
BLACK
10
6.5929133464566929
20
-3.3908661417322832
40
0.0354330708661417
0
CIRCLE
8
BLACK
10
6.594488149606299
20
-3.6495275590551182
40
0.0354330708661417
0
CIRCLE
8
BLACK
10
6.594488149606299
20
-3.7833858267716534
40
0.0354330708661417
0
CIRCLE
8
BLACK
10
6.594488149606299
20
-4.4388976377952751
40
0.0354330708661417
0
CIRCLE
8
BLACK
10
6.594488149606299
20
-4.5727559055118112
40
0.0354330708661417
0
CIRCLE
8
BLACK
10
6.5948818503937003
20
-4.831023622047244
40
0.0354330708661417
0
CIRCLE
8
BLACK
10
6.5948818503937003
20
-4.9648818897637792
40
0.0354330708661417
0
CIRCLE
8
BLACK
10
6.98228342519685
20
-4.0428346456692914
40
0.0354330708661417
0
CIRCLE
8
BLACK
10
6.98228342519685
20
-4.1766929133858266
40
0.0354330708661417
0
CIRCLE
8
BLACK
10
6.9834645275590548
20
-3.257007874015748
40
0.0354330708661417
0
CIRCLE
8
BLACK
10
6.9834645275590548
20
-3.3908661417322832
40
0.0354330708661417
0
CIRCLE
8
BLACK
10
6.9850393307086609
20
-3.6495275590551182
40
0.0354330708661417
0
CIRCLE
8
BLACK
10
6.9850393307086609
20
-3.7833858267716534
40
0.0354330708661417
0
CIRCLE
8
BLACK
10
6.9850393307086609
20
-4.4388976377952751
40
0.0354330708661417
0
CIRCLE
8
BLACK
10
6.9850393307086609
20
-4.5727559055118112
40
0.0354330708661417
0
CIRCLE
8
BLACK
10
6.9854330314960631
20
-4.831023622047244
40
0.0354330708661417
0
CIRCLE
8
BLACK
10
6.9854330314960631
20
-4.9648818897637792
40
0.0354330708661417
0
LINE
8
BLACK
6
CONTINUOUS
10
5.8681495669291337
20
-3.409523622047244
11
5.8681495669291337
21
-3.4925236220472442
0
LINE
8
BLACK
6
CONTINUOUS
10
5.8266495669291336
20
-3.4510236220472441
11
5.9096495669291338
21
-3.4510236220472441
0
LINE
8
BLACK
6
CONTINUOUS
10
5.8681495669291337
20
-3.9016496062992125
11
5.8681495669291337
21
-3.9846496062992127
0
LINE
8
BLACK
6
CONTINUOUS
10
5.8266495669291336
20
-3.9431496062992126
11
5.9096495669291338
21
-3.9431496062992126
0
LINE
8
BLACK
6
CONTINUOUS
10
5.9947794094488192
20
-4.1058898031496058
11
5.9947794094488192
21
-4.188889803149606
0
LINE
8
BLACK
6
CONTINUOUS
10
5.9532794094488191
20
-4.1473898031496059
11
6.0362794094488184
21
-4.1473898031496059
0
LINE
8
BLACK
6
CONTINUOUS
10
5.9947794094488192
20
-4.5980157874015744
11
5.9947794094488192
21
-4.6810157874015745
0
LINE
8
BLACK
6
CONTINUOUS
10
5.9532794094488191
20
-4.6395157874015744
11
6.0362794094488184
21
-4.6395157874015744
0
LINE
8
BLACK
6
CONTINUOUS
10
6.1634251574803152
20
-3.409523622047244
11
6.1634251574803152
21
-3.4925236220472442
0
LINE
8
BLACK
6
CONTINUOUS
10
6.1219251574803151
20
-3.4510236220472441
11
6.2049251574803153
21
-3.4510236220472441
0
LINE
8
BLACK
6
CONTINUOUS
10
6.1634251574803152
20
-3.9016496062992125
11
6.1634251574803152
21
-3.9846496062992127
0
LINE
8
BLACK
6
CONTINUOUS
10
6.1219251574803151
20
-3.9431496062992126
11
6.2049251574803153
21
-3.9431496062992126
0
LINE
8
BLACK
6
CONTINUOUS
10
6.2900549999999997
20
-4.1058898031496058
11
6.2900549999999997
21
-4.188889803149606
0
LINE
8
BLACK
6
CONTINUOUS
10
6.2485549999999996
20
-4.1473898031496059
11
6.3315549999999998
21
-4.1473898031496059
0
LINE
8
BLACK
6
CONTINUOUS
10
6.2900549999999997
20
-4.5980157874015744
11
6.2900549999999997
21
-4.6810157874015745
0
LINE
8
BLACK
6
CONTINUOUS
10
6.2485549999999996
20
-4.6395157874015744
11
6.3315549999999998
21
-4.6395157874015744
0
LINE
8
BLACK
6
CONTINUOUS
10
5.9479740551181104
20
-2.812584409448819
11
5.9479740551181104
21
-2.7241951968503937
0
LINE
8
BLACK
6
CONTINUOUS
10
5.9479740551181104
20
-2.7241951968503937
11
5.859584842519685
21
-2.7241951968503937
0
LINE
8
BLACK
6
CONTINUOUS
10
5.859584842519685
20
-2.7241951968503937
11
5.859584842519685
21
-2.812584409448819
0
LINE
8
BLACK
6
CONTINUOUS
10
5.859584842519685
20
-2.812584409448819
11
5.9479740551181104
21
-2.812584409448819
0
LINE
8
BLACK
6
CONTINUOUS
10
5.9479740551181104
20
-5.3125946062992124
11
5.9479740551181104
21
-5.2242053937007871
0
LINE
8
BLACK
6
CONTINUOUS
10
5.9479740551181104
20
-5.2242053937007871
11
5.859584842519685
21
-5.2242053937007871
0
LINE
8
BLACK
6
CONTINUOUS
10
5.859584842519685
20
-5.2242053937007871
11
5.859584842519685
21
-5.3125946062992124
0
LINE
8
BLACK
6
CONTINUOUS
10
5.859584842519685
20
-5.3125946062992124
11
5.9479740551181104
21
-5.3125946062992124
0
LINE
8
BLACK
6
CONTINUOUS
10
8.2229946062992116
20
-2.812584409448819
11
8.2229946062992116
21
-2.7241951968503937
0
LINE
8
BLACK
6
CONTINUOUS
10
8.2229946062992116
20
-2.7241951968503937
11
8.1346053937007881
21
-2.7241951968503937
0
LINE
8
BLACK
6
CONTINUOUS
10
8.1346053937007881
20
-2.7241951968503937
11
8.1346053937007881
21
-2.812584409448819
0
LINE
8
BLACK
6
CONTINUOUS
10
8.1346053937007881
20
-2.812584409448819
11
8.2229946062992116
21
-2.812584409448819
0
LINE
8
BLACK
6
CONTINUOUS
10
8.2229946062992116
20
-5.3125946062992124
11
8.2229946062992116
21
-5.2242053937007871
0
LINE
8
BLACK
6
CONTINUOUS
10
8.2229946062992116
20
-5.2242053937007871
11
8.1346053937007881
21
-5.2242053937007871
0
LINE
8
BLACK
6
CONTINUOUS
10
8.1346053937007881
20
-5.2242053937007871
11
8.1346053937007881
21
-5.3125946062992124
0
LINE
8
BLACK
6
CONTINUOUS
10
8.1346053937007881
20
-5.3125946062992124
11
8.2229946062992116
21
-5.3125946062992124
0
LINE
8
BLACK
6
CONTINUOUS
10
5.7544789763779525
20
-5.6429897244094489
11
5.7544789763779525
21
-5.5642495669291341
0
LINE
8
BLACK
6
CONTINUOUS
10
5.7544789763779525
20
-5.5642495669291341
11
5.773226614173228
21
-5.5642495669291341
0
LINE
8
BLACK
6
CONTINUOUS
10
5.773226614173228
20
-5.5642495669291341
11
5.7844752362204721
21
-5.5679990944881892
0
LINE
8
BLACK
6
CONTINUOUS
10
5.7844752362204721
20
-5.5679990944881892
11
5.7919742913385823
21
-5.5754981496062994
0
LINE
8
BLACK
6
CONTINUOUS
10
5.7919742913385823
20
-5.5754981496062994
11
5.7957238188976374
21
-5.5829972047244096
0
LINE
8
BLACK
6
CONTINUOUS
10
5.7957238188976374
20
-5.5829972047244096
11
5.7994733464566925
21
-5.5979953149606301
0
LINE
8
BLACK
6
CONTINUOUS
10
5.7994733464566925
20
-5.5979953149606301
11
5.7994733464566925
21
-5.6092439370078742
0
LINE
8
BLACK
6
CONTINUOUS
10
5.7994733464566925
20
-5.6092439370078742
11
5.7957238188976374
21
-5.6242420472440946
0
LINE
8
BLACK
6
CONTINUOUS
10
5.7957238188976374
20
-5.6242420472440946
11
5.7919742913385823
21
-5.6317411023622048
0
LINE
8
BLACK
6
CONTINUOUS
10
5.7919742913385823
20
-5.6317411023622048
11
5.7844752362204721
21
-5.6392401968503938
0
LINE
8
BLACK
6
CONTINUOUS
10
5.7844752362204721
20
-5.6392401968503938
11
5.773226614173228
21
-5.6429897244094489
0
LINE
8
BLACK
6
CONTINUOUS
10
5.773226614173228
20
-5.6429897244094489
11
5.7544789763779525
21
-5.6429897244094489
0
LINE
8
BLACK
6
CONTINUOUS
10
5.8332191338582673
20
-5.6429897244094489
11
5.8332191338582673
21
-5.5904962598425199
0
LINE
8
BLACK
6
CONTINUOUS
10
5.8332191338582673
20
-5.605494409448819
11
5.8369686614173224
21
-5.5979953149606301
0
LINE
8
BLACK
6
CONTINUOUS
10
5.8369686614173224
20
-5.5979953149606301
11
5.8407181889763775
21
-5.594245787401575
0
LINE
8
BLACK
6
CONTINUOUS
10
5.8407181889763775
20
-5.594245787401575
11
5.8482172440944877
21
-5.5904962598425199
0
LINE
8
BLACK
6
CONTINUOUS
10
5.8482172440944877
20
-5.5904962598425199
11
5.8557163385826767
21
-5.5904962598425199
0
LINE
8
BLACK
6
CONTINUOUS
10
5.8819630314960625
20
-5.6429897244094489
11
5.8819630314960625
21
-5.5904962598425199
0
LINE
8
BLACK
6
CONTINUOUS
10
5.8819630314960625
20
-5.5642495669291341
11
5.8782135039370074
21
-5.5679990944881892
0
LINE
8
BLACK
6
CONTINUOUS
10
5.8782135039370074
20
-5.5679990944881892
11
5.8819630314960625
21
-5.5717486220472443
0
LINE
8
BLACK
6
CONTINUOUS
10
5.8819630314960625
20
-5.5717486220472443
11
5.8857125590551176
21
-5.5679990944881892
0
LINE
8
BLACK
6
CONTINUOUS
10
5.8857125590551176
20
-5.5679990944881892
11
5.8819630314960625
21
-5.5642495669291341
0
LINE
8
BLACK
6
CONTINUOUS
10
5.8819630314960625
20
-5.5642495669291341
11
5.8819630314960625
21
-5.5717486220472443
0
LINE
8
BLACK
6
CONTINUOUS
10
5.9307069291338586
20
-5.6429897244094489
11
5.9232078740157483
21
-5.6392401968503938
0
LINE
8
BLACK
6
CONTINUOUS
10
5.9232078740157483
20
-5.6392401968503938
11
5.9194583464566932
21
-5.6317411023622048
0
LINE
8
BLACK
6
CONTINUOUS
10
5.9194583464566932
20
-5.6317411023622048
11
5.9194583464566932
21
-5.5642495669291341
0
LINE
8
BLACK
6
CONTINUOUS
10
5.9719517716535435
20
-5.6429897244094489
11
5.9644527165354333
21
-5.6392401968503938
0
LINE
8
BLACK
6
CONTINUOUS
10
5.9644527165354333
20
-5.6392401968503938
11
5.9607031889763782
21
-5.6317411023622048
0
LINE
8
BLACK
6
CONTINUOUS
10
5.9607031889763782
20
-5.6317411023622048
11
5.9607031889763782
21
-5.5642495669291341
0
LINE
8
BLACK
6
CONTINUOUS
10
6.0619405511811024
20
-5.6429897244094489
11
6.0619405511811024
21
-5.5642495669291341
0
LINE
8
BLACK
6
CONTINUOUS
10
6.0619405511811024
20
-5.5642495669291341
11
6.0881872834645669
21
-5.6204925196850395
0
LINE
8
BLACK
6
CONTINUOUS
10
6.0881872834645669
20
-5.6204925196850395
11
6.1144339763779527
21
-5.5642495669291341
0
LINE
8
BLACK
6
CONTINUOUS
10
6.1144339763779527
20
-5.5642495669291341
11
6.1144339763779527
21
-5.6429897244094489
0
LINE
8
BLACK
6
CONTINUOUS
10
6.1856750787401573
20
-5.6429897244094489
11
6.1856750787401573
21
-5.6017448818897639
0
LINE
8
BLACK
6
CONTINUOUS
10
6.1856750787401573
20
-5.6017448818897639
11
6.1819255511811022
21
-5.594245787401575
0
LINE
8
BLACK
6
CONTINUOUS
10
6.1819255511811022
20
-5.594245787401575
11
6.174426496062992
21
-5.5904962598425199
0
LINE
8
BLACK
6
CONTINUOUS
10
6.174426496062992
20
-5.5904962598425199
11
6.1594283464566928
21
-5.5904962598425199
0
LINE
8
BLACK
6
CONTINUOUS
10
6.1594283464566928
20
-5.5904962598425199
11
6.1519292913385826
21
-5.594245787401575
0
LINE
8
BLACK
6
CONTINUOUS
10
6.1856750787401573
20
-5.6392401968503938
11
6.1781760236220471
21
-5.6429897244094489
0
LINE
8
BLACK
6
CONTINUOUS
10
6.1781760236220471
20
-5.6429897244094489
11
6.1594283464566928
21
-5.6429897244094489
0
LINE
8
BLACK
6
CONTINUOUS
10
6.1594283464566928
20
-5.6429897244094489
11
6.1519292913385826
21
-5.6392401968503938
0
LINE
8
BLACK
6
CONTINUOUS
10
6.1519292913385826
20
-5.6392401968503938
11
6.1481797637795275
21
-5.6317411023622048
0
LINE
8
BLACK
6
CONTINUOUS
10
6.1481797637795275
20
-5.6317411023622048
11
6.1481797637795275
21
-5.6242420472440946
0
LINE
8
BLACK
6
CONTINUOUS
10
6.1481797637795275
20
-5.6242420472440946
11
6.1519292913385826
21
-5.6167429921259844
0
LINE
8
BLACK
6
CONTINUOUS
10
6.1519292913385826
20
-5.6167429921259844
11
6.1594283464566928
21
-5.6129934645669293
0
LINE
8
BLACK
6
CONTINUOUS
10
6.1594283464566928
20
-5.6129934645669293
11
6.1781760236220471
21
-5.6129934645669293
0
LINE
8
BLACK
6
CONTINUOUS
10
6.1781760236220471
20
-5.6129934645669293
11
6.1856750787401573
21
-5.6092439370078742
0
LINE
8
BLACK
6
CONTINUOUS
10
6.2231703937007872
20
-5.5904962598425199
11
6.2231703937007872
21
-5.6692364173228347
0
LINE
8
BLACK
6
CONTINUOUS
10
6.2231703937007872
20
-5.594245787401575
11
6.2306694488188974
21
-5.5904962598425199
0
LINE
8
BLACK
6
CONTINUOUS
10
6.2306694488188974
20
-5.5904962598425199
11
6.2456675984251966
21
-5.5904962598425199
0
LINE
8
BLACK
6
CONTINUOUS
10
6.2456675984251966
20
-5.5904962598425199
11
6.2531666535433068
21
-5.594245787401575
0
LINE
8
BLACK
6
CONTINUOUS
10
6.2531666535433068
20
-5.594245787401575
11
6.2569161811023619
21
-5.5979953149606301
0
LINE
8
BLACK
6
CONTINUOUS
10
6.2569161811023619
20
-5.5979953149606301
11
6.260665708661417
21
-5.605494409448819
0
LINE
8
BLACK
6
CONTINUOUS
10
6.260665708661417
20
-5.605494409448819
11
6.260665708661417
21
-5.6279915748031497
0
LINE
8
BLACK
6
CONTINUOUS
10
6.260665708661417
20
-5.6279915748031497
11
6.2569161811023619
21
-5.6354906299212599
0
LINE
8
BLACK
6
CONTINUOUS
10
6.2569161811023619
20
-5.6354906299212599
11
6.2531666535433068
21
-5.6392401968503938
0
LINE
8
BLACK
6
CONTINUOUS
10
6.2531666535433068
20
-5.6392401968503938
11
6.2456675984251966
21
-5.6429897244094489
0
LINE
8
BLACK
6
CONTINUOUS
10
6.2456675984251966
20
-5.6429897244094489
11
6.2306694488188974
21
-5.6429897244094489
0
LINE
8
BLACK
6
CONTINUOUS
10
6.2306694488188974
20
-5.6429897244094489
11
6.2231703937007872
21
-5.6392401968503938
0
LINE
8
BLACK
6
CONTINUOUS
10
6.2944114960629918
20
-5.6354906299212599
11
6.2981610236220469
21
-5.6392401968503938
0
LINE
8
BLACK
6
CONTINUOUS
10
6.2981610236220469
20
-5.6392401968503938
11
6.2944114960629918
21
-5.6429897244094489
0
LINE
8
BLACK
6
CONTINUOUS
10
6.2944114960629918
20
-5.6429897244094489
11
6.2906619685039367
21
-5.6392401968503938
0
LINE
8
BLACK
6
CONTINUOUS
10
6.2906619685039367
20
-5.6392401968503938
11
6.2944114960629918
21
-5.6354906299212599
0
LINE
8
BLACK
6
CONTINUOUS
10
6.2944114960629918
20
-5.6354906299212599
11
6.2944114960629918
21
-5.6429897244094489
0
LINE
8
BLACK
6
CONTINUOUS
10
6.2944114960629918
20
-5.594245787401575
11
6.2981610236220469
21
-5.5979953149606301
0
LINE
8
BLACK
6
CONTINUOUS
10
6.2981610236220469
20
-5.5979953149606301
11
6.2944114960629918
21
-5.6017448818897639
0
LINE
8
BLACK
6
CONTINUOUS
10
6.2944114960629918
20
-5.6017448818897639
11
6.2906619685039367
21
-5.5979953149606301
0
LINE
8
BLACK
6
CONTINUOUS
10
6.2906619685039367
20
-5.5979953149606301
11
6.2944114960629918
21
-5.594245787401575
0
LINE
8
BLACK
6
CONTINUOUS
10
6.2944114960629918
20
-5.594245787401575
11
6.2944114960629918
21
-5.6017448818897639
0
LINE
8
BLACK
6
CONTINUOUS
10
5.5968109448818897
20
-5.7448268110236222
11
5.6518109448818894
21
-5.799826811023622
0
LINE
8
BLACK
6
CONTINUOUS
10
5.6518109448818894
20
-5.7448268110236222
11
5.5968109448818897
21
-5.799826811023622
0
LINE
8
BLACK
6
CONTINUOUS
10
5.7957238188976374
20
-5.80834405511811
11
5.7507294488188974
21
-5.80834405511811
0
LINE
8
BLACK
6
CONTINUOUS
10
5.773226614173228
20
-5.80834405511811
11
5.773226614173228
21
-5.7296038976377952
0
LINE
8
BLACK
6
CONTINUOUS
10
5.773226614173228
20
-5.7296038976377952
11
5.7657275590551178
21
-5.7408524803149605
0
LINE
8
BLACK
6
CONTINUOUS
10
5.7657275590551178
20
-5.7408524803149605
11
5.7582285039370076
21
-5.7483515354330708
0
LINE
8
BLACK
6
CONTINUOUS
10
5.7582285039370076
20
-5.7483515354330708
11
5.7507294488188974
21
-5.7521010629921259
0
LINE
8
BLACK
6
CONTINUOUS
10
5.8294696062992122
20
-5.8008449606299211
11
5.8332191338582673
21
-5.8045945275590549
0
LINE
8
BLACK
6
CONTINUOUS
10
5.8332191338582673
20
-5.8045945275590549
11
5.8294696062992122
21
-5.80834405511811
0
LINE
8
BLACK
6
CONTINUOUS
10
5.8294696062992122
20
-5.80834405511811
11
5.8257200787401571
21
-5.8045945275590549
0
LINE
8
BLACK
6
CONTINUOUS
10
5.8257200787401571
20
-5.8045945275590549
11
5.8294696062992122
21
-5.8008449606299211
0
LINE
8
BLACK
6
CONTINUOUS
10
5.8294696062992122
20
-5.8008449606299211
11
5.8294696062992122
21
-5.80834405511811
0
LINE
8
BLACK
6
CONTINUOUS
10
5.8594658661417318
20
-5.7296038976377952
11
5.908209763779527
21
-5.7296038976377952
0
LINE
8
BLACK
6
CONTINUOUS
10
5.908209763779527
20
-5.7296038976377952
11
5.8819630314960625
21
-5.7596001181102361
0
LINE
8
BLACK
6
CONTINUOUS
10
5.8819630314960625
20
-5.7596001181102361
11
5.8932116535433066
21
-5.7596001181102361
0
LINE
8
BLACK
6
CONTINUOUS
10
5.8932116535433066
20
-5.7596001181102361
11
5.9007107086614168
21
-5.7633496456692912
0
LINE
8
BLACK
6
CONTINUOUS
10
5.9007107086614168
20
-5.7633496456692912
11
5.9044602362204719
21
-5.7670992125984251
0
LINE
8
BLACK
6
CONTINUOUS
10
5.9044602362204719
20
-5.7670992125984251
11
5.908209763779527
21
-5.7745982677165353
0
LINE
8
BLACK
6
CONTINUOUS
10
5.908209763779527
20
-5.7745982677165353
11
5.908209763779527
21
-5.7933459055118108
0
LINE
8
BLACK
6
CONTINUOUS
10
5.908209763779527
20
-5.7933459055118108
11
5.9044602362204719
21
-5.8008449606299211
0
LINE
8
BLACK
6
CONTINUOUS
10
5.9044602362204719
20
-5.8008449606299211
11
5.9007107086614168
21
-5.8045945275590549
0
LINE
8
BLACK
6
CONTINUOUS
10
5.9007107086614168
20
-5.8045945275590549
11
5.8932116535433066
21
-5.80834405511811
0
LINE
8
BLACK
6
CONTINUOUS
10
5.8932116535433066
20
-5.80834405511811
11
5.8707144488188971
21
-5.80834405511811
0
LINE
8
BLACK
6
CONTINUOUS
10
5.8707144488188971
20
-5.80834405511811
11
5.8632153937007869
21
-5.8045945275590549
0
LINE
8
BLACK
6
CONTINUOUS
10
5.8632153937007869
20
-5.8045945275590549
11
5.8594658661417318
21
-5.8008449606299211
0
LINE
8
BLACK
6
CONTINUOUS
10
5.9457050787401577
20
-5.80834405511811
11
5.9607031889763782
21
-5.80834405511811
0
LINE
8
BLACK
6
CONTINUOUS
10
5.9607031889763782
20
-5.80834405511811
11
5.9682022834645672
21
-5.8045945275590549
0
LINE
8
BLACK
6
CONTINUOUS
10
5.9682022834645672
20
-5.8045945275590549
11
5.9719518110236223
21
-5.8008449606299211
0
LINE
8
BLACK
6
CONTINUOUS
10
5.9719518110236223
20
-5.8008449606299211
11
5.9794508661417325
21
-5.7895963779527557
0
LINE
8
BLACK
6
CONTINUOUS
10
5.9794508661417325
20
-5.7895963779527557
11
5.9832003937007876
21
-5.7745982677165353
0
LINE
8
BLACK
6
CONTINUOUS
10
5.9832003937007876
20
-5.7745982677165353
11
5.9832003937007876
21
-5.7446020078740156
0
LINE
8
BLACK
6
CONTINUOUS
10
5.9832003937007876
20
-5.7446020078740156
11
5.9794508661417325
21
-5.7371029527559054
0
LINE
8
BLACK
6
CONTINUOUS
10
5.9794508661417325
20
-5.7371029527559054
11
5.9757013385826774
21
-5.7333534251968503
0
LINE
8
BLACK
6
CONTINUOUS
10
5.9757013385826774
20
-5.7333534251968503
11
5.9682022834645672
21
-5.7296038976377952
0
LINE
8
BLACK
6
CONTINUOUS
10
5.9682022834645672
20
-5.7296038976377952
11
5.953204133858268
21
-5.7296038976377952
0
LINE
8
BLACK
6
CONTINUOUS
10
5.953204133858268
20
-5.7296038976377952
11
5.9457050787401577
21
-5.7333534251968503
0
LINE
8
BLACK
6
CONTINUOUS
10
5.9457050787401577
20
-5.7333534251968503
11
5.9419555511811026
21
-5.7371029527559054
0
LINE
8
BLACK
6
CONTINUOUS
10
5.9419555511811026
20
-5.7371029527559054
11
5.9382060236220475
21
-5.7446020078740156
0
LINE
8
BLACK
6
CONTINUOUS
10
5.9382060236220475
20
-5.7446020078740156
11
5.9382060236220475
21
-5.7633496456692912
0
LINE
8
BLACK
6
CONTINUOUS
10
5.9382060236220475
20
-5.7633496456692912
11
5.9419555511811026
21
-5.7708487401574802
0
LINE
8
BLACK
6
CONTINUOUS
10
5.9419555511811026
20
-5.7708487401574802
11
5.9457050787401577
21
-5.7745982677165353
0
LINE
8
BLACK
6
CONTINUOUS
10
5.9457050787401577
20
-5.7745982677165353
11
5.953204133858268
21
-5.7783477952755904
0
LINE
8
BLACK
6
CONTINUOUS
10
5.953204133858268
20
-5.7783477952755904
11
5.9682022834645672
21
-5.7783477952755904
0
LINE
8
BLACK
6
CONTINUOUS
10
5.9682022834645672
20
-5.7783477952755904
11
5.9757013385826774
21
-5.7745982677165353
0
LINE
8
BLACK
6
CONTINUOUS
10
5.9757013385826774
20
-5.7745982677165353
11
5.9794508661417325
21
-5.7708487401574802
0
LINE
8
BLACK
6
CONTINUOUS
10
5.9794508661417325
20
-5.7708487401574802
11
5.9832003937007876
21
-5.7633496456692912
0
LINE
8
BLACK
6
CONTINUOUS
10
6.0094471259842521
20
-5.7296038976377952
11
6.0619405511811024
21
-5.7296038976377952
0
LINE
8
BLACK
6
CONTINUOUS
10
6.0619405511811024
20
-5.7296038976377952
11
6.0281947637795277
21
-5.80834405511811
0
LINE
8
BLACK
6
CONTINUOUS
10
6.0919368110236221
20
-5.80834405511811
11
6.0919368110236221
21
-5.755850590551181
0
LINE
8
BLACK
6
CONTINUOUS
10
6.0919368110236221
20
-5.7633496456692912
11
6.0956863385826772
21
-5.7596001181102361
0
LINE
8
BLACK
6
CONTINUOUS
10
6.0956863385826772
20
-5.7596001181102361
11
6.1031853937007874
21
-5.755850590551181
0
LINE
8
BLACK
6
CONTINUOUS
10
6.1031853937007874
20
-5.755850590551181
11
6.1144340157480315
21
-5.755850590551181
0
LINE
8
BLACK
6
CONTINUOUS
10
6.1144340157480315
20
-5.755850590551181
11
6.1219330708661417
21
-5.7596001181102361
0
LINE
8
BLACK
6
CONTINUOUS
10
6.1219330708661417
20
-5.7596001181102361
11
6.1256825984251968
21
-5.7670992125984251
0
LINE
8
BLACK
6
CONTINUOUS
10
6.1256825984251968
20
-5.7670992125984251
11
6.1256825984251968
21
-5.80834405511811
0
LINE
8
BLACK
6
CONTINUOUS
10
6.1256825984251968
20
-5.7670992125984251
11
6.1294321259842519
21
-5.7596001181102361
0
LINE
8
BLACK
6
CONTINUOUS
10
6.1294321259842519
20
-5.7596001181102361
11
6.1369311811023621
21
-5.755850590551181
0
LINE
8
BLACK
6
CONTINUOUS
10
6.1369311811023621
20
-5.755850590551181
11
6.1481797637795275
21
-5.755850590551181
0
LINE
8
BLACK
6
CONTINUOUS
10
6.1481797637795275
20
-5.755850590551181
11
6.1556788582677164
21
-5.7596001181102361
0
LINE
8
BLACK
6
CONTINUOUS
10
6.1556788582677164
20
-5.7596001181102361
11
6.1594283858267715
21
-5.7670992125984251
0
LINE
8
BLACK
6
CONTINUOUS
10
6.1594283858267715
20
-5.7670992125984251
11
6.1594283858267715
21
-5.80834405511811
0
LINE
8
BLACK
6
CONTINUOUS
10
6.1969237007874014
20
-5.80834405511811
11
6.1969237007874014
21
-5.755850590551181
0
LINE
8
BLACK
6
CONTINUOUS
10
6.1969237007874014
20
-5.7633496456692912
11
6.2006732283464565
21
-5.7596001181102361
0
LINE
8
BLACK
6
CONTINUOUS
10
6.2006732283464565
20
-5.7596001181102361
11
6.2081722834645667
21
-5.755850590551181
0
LINE
8
BLACK
6
CONTINUOUS
10
6.2081722834645667
20
-5.755850590551181
11
6.2194209055118108
21
-5.755850590551181
0
LINE
8
BLACK
6
CONTINUOUS
10
6.2194209055118108
20
-5.755850590551181
11
6.226919960629921
21
-5.7596001181102361
0
LINE
8
BLACK
6
CONTINUOUS
10
6.226919960629921
20
-5.7596001181102361
11
6.2306694881889761
21
-5.7670992125984251
0
LINE
8
BLACK
6
CONTINUOUS
10
6.2306694881889761
20
-5.7670992125984251
11
6.2306694881889761
21
-5.80834405511811
0
LINE
8
BLACK
6
CONTINUOUS
10
6.2306694881889761
20
-5.7670992125984251
11
6.2344190157480313
21
-5.7596001181102361
0
LINE
8
BLACK
6
CONTINUOUS
10
6.2344190157480313
20
-5.7596001181102361
11
6.2419180708661415
21
-5.755850590551181
0
LINE
8
BLACK
6
CONTINUOUS
10
6.2419180708661415
20
-5.755850590551181
11
6.2531666535433068
21
-5.755850590551181
0
LINE
8
BLACK
6
CONTINUOUS
10
6.2531666535433068
20
-5.755850590551181
11
6.2606657480314958
21
-5.7596001181102361
0
LINE
8
BLACK
6
CONTINUOUS
10
6.2606657480314958
20
-5.7596001181102361
11
6.2644152755905509
21
-5.7670992125984251
0
LINE
8
BLACK
6
CONTINUOUS
10
6.2644152755905509
20
-5.7670992125984251
11
6.2644152755905509
21
-5.80834405511811
0
LINE
8
BLACK
6
CONTINUOUS
10
6.4181460629921254
20
-5.7258543700787401
11
6.3506545275590547
21
-5.8270916929133856
0
LINE
8
BLACK
6
CONTINUOUS
10
6.5193834251968505
20
-5.7296038976377952
11
6.5268825196850395
21
-5.7296038976377952
0
LINE
8
BLACK
6
CONTINUOUS
10
6.5268825196850395
20
-5.7296038976377952
11
6.5343815748031497
21
-5.7333534251968503
0
LINE
8
BLACK
6
CONTINUOUS
10
6.5343815748031497
20
-5.7333534251968503
11
6.5381311023622048
21
-5.7371029527559054
0
LINE
8
BLACK
6
CONTINUOUS
10
6.5381311023622048
20
-5.7371029527559054
11
6.54188062992126
21
-5.7446020078740156
0
LINE
8
BLACK
6
CONTINUOUS
10
6.54188062992126
20
-5.7446020078740156
11
6.5456301574803151
21
-5.7596001181102361
0
LINE
8
BLACK
6
CONTINUOUS
10
6.5456301574803151
20
-5.7596001181102361
11
6.5456301574803151
21
-5.7783477952755904
0
LINE
8
BLACK
6
CONTINUOUS
10
6.5456301574803151
20
-5.7783477952755904
11
6.54188062992126
21
-5.7933459055118108
0
LINE
8
BLACK
6
CONTINUOUS
10
6.54188062992126
20
-5.7933459055118108
11
6.5381311023622048
21
-5.8008449606299211
0
LINE
8
BLACK
6
CONTINUOUS
10
6.5381311023622048
20
-5.8008449606299211
11
6.5343815748031497
21
-5.8045945275590549
0
LINE
8
BLACK
6
CONTINUOUS
10
6.5343815748031497
20
-5.8045945275590549
11
6.5268825196850395
21
-5.80834405511811
0
LINE
8
BLACK
6
CONTINUOUS
10
6.5268825196850395
20
-5.80834405511811
11
6.5193834251968505
21
-5.80834405511811
0
LINE
8
BLACK
6
CONTINUOUS
10
6.5193834251968505
20
-5.80834405511811
11
6.5118843700787403
21
-5.8045945275590549
0
LINE
8
BLACK
6
CONTINUOUS
10
6.5118843700787403
20
-5.8045945275590549
11
6.5081348425196852
21
-5.8008449606299211
0
LINE
8
BLACK
6
CONTINUOUS
10
6.5081348425196852
20
-5.8008449606299211
11
6.5043853149606301
21
-5.7933459055118108
0
LINE
8
BLACK
6
CONTINUOUS
10
6.5043853149606301
20
-5.7933459055118108
11
6.500635787401575
21
-5.7783477952755904
0
LINE
8
BLACK
6
CONTINUOUS
10
6.500635787401575
20
-5.7783477952755904
11
6.500635787401575
21
-5.7596001181102361
0
LINE
8
BLACK
6
CONTINUOUS
10
6.500635787401575
20
-5.7596001181102361
11
6.5043853149606301
21
-5.7446020078740156
0
LINE
8
BLACK
6
CONTINUOUS
10
6.5043853149606301
20
-5.7446020078740156
11
6.5081348425196852
21
-5.7371029527559054
0
LINE
8
BLACK
6
CONTINUOUS
10
6.5081348425196852
20
-5.7371029527559054
11
6.5118843700787403
21
-5.7333534251968503
0
LINE
8
BLACK
6
CONTINUOUS
10
6.5118843700787403
20
-5.7333534251968503
11
6.5193834251968505
21
-5.7296038976377952
0
LINE
8
BLACK
6
CONTINUOUS
10
6.5793759448818898
20
-5.8008449606299211
11
6.5831254724409449
21
-5.8045945275590549
0
LINE
8
BLACK
6
CONTINUOUS
10
6.5831254724409449
20
-5.8045945275590549
11
6.5793759448818898
21
-5.80834405511811
0
LINE
8
BLACK
6
CONTINUOUS
10
6.5793759448818898
20
-5.80834405511811
11
6.5756264173228347
21
-5.8045945275590549
0
LINE
8
BLACK
6
CONTINUOUS
10
6.5756264173228347
20
-5.8045945275590549
11
6.5793759448818898
21
-5.8008449606299211
0
LINE
8
BLACK
6
CONTINUOUS
10
6.5793759448818898
20
-5.8008449606299211
11
6.5793759448818898
21
-5.80834405511811
0
LINE
8
BLACK
6
CONTINUOUS
10
6.6318693700787401
20
-5.7296038976377952
11
6.6393684645669291
21
-5.7296038976377952
0
LINE
8
BLACK
6
CONTINUOUS
10
6.6393684645669291
20
-5.7296038976377952
11
6.6468675196850393
21
-5.7333534251968503
0
LINE
8
BLACK
6
CONTINUOUS
10
6.6468675196850393
20
-5.7333534251968503
11
6.6506170472440944
21
-5.7371029527559054
0
LINE
8
BLACK
6
CONTINUOUS
10
6.6506170472440944
20
-5.7371029527559054
11
6.6543665748031495
21
-5.7446020078740156
0
LINE
8
BLACK
6
CONTINUOUS
10
6.6543665748031495
20
-5.7446020078740156
11
6.6581161023622046
21
-5.7596001181102361
0
LINE
8
BLACK
6
CONTINUOUS
10
6.6581161023622046
20
-5.7596001181102361
11
6.6581161023622046
21
-5.7783477952755904
0
LINE
8
BLACK
6
CONTINUOUS
10
6.6581161023622046
20
-5.7783477952755904
11
6.6543665748031495
21
-5.7933459055118108
0
LINE
8
BLACK
6
CONTINUOUS
10
6.6543665748031495
20
-5.7933459055118108
11
6.6506170472440944
21
-5.8008449606299211
0
LINE
8
BLACK
6
CONTINUOUS
10
6.6506170472440944
20
-5.8008449606299211
11
6.6468675196850393
21
-5.8045945275590549
0
LINE
8
BLACK
6
CONTINUOUS
10
6.6468675196850393
20
-5.8045945275590549
11
6.6393684645669291
21
-5.80834405511811
0
LINE
8
BLACK
6
CONTINUOUS
10
6.6393684645669291
20
-5.80834405511811
11
6.6318693700787401
21
-5.80834405511811
0
LINE
8
BLACK
6
CONTINUOUS
10
6.6318693700787401
20
-5.80834405511811
11
6.6243703149606299
21
-5.8045945275590549
0
LINE
8
BLACK
6
CONTINUOUS
10
6.6243703149606299
20
-5.8045945275590549
11
6.6206207874015748
21
-5.8008449606299211
0
LINE
8
BLACK
6
CONTINUOUS
10
6.6206207874015748
20
-5.8008449606299211
11
6.6168712598425197
21
-5.7933459055118108
0
LINE
8
BLACK
6
CONTINUOUS
10
6.6168712598425197
20
-5.7933459055118108
11
6.6131217322834646
21
-5.7783477952755904
0
LINE
8
BLACK
6
CONTINUOUS
10
6.6131217322834646
20
-5.7783477952755904
11
6.6131217322834646
21
-5.7596001181102361
0
LINE
8
BLACK
6
CONTINUOUS
10
6.6131217322834646
20
-5.7596001181102361
11
6.6168712598425197
21
-5.7446020078740156
0
LINE
8
BLACK
6
CONTINUOUS
10
6.6168712598425197
20
-5.7446020078740156
11
6.6206207874015748
21
-5.7371029527559054
0
LINE
8
BLACK
6
CONTINUOUS
10
6.6206207874015748
20
-5.7371029527559054
11
6.6243703149606299
21
-5.7333534251968503
0
LINE
8
BLACK
6
CONTINUOUS
10
6.6243703149606299
20
-5.7333534251968503
11
6.6318693700787401
21
-5.7296038976377952
0
LINE
8
BLACK
6
CONTINUOUS
10
6.7293572047244092
20
-5.7296038976377952
11
6.6918618897637794
21
-5.7296038976377952
0
LINE
8
BLACK
6
CONTINUOUS
10
6.6918618897637794
20
-5.7296038976377952
11
6.6881123622047243
21
-5.7670992125984251
0
LINE
8
BLACK
6
CONTINUOUS
10
6.6881123622047243
20
-5.7670992125984251
11
6.6918618897637794
21
-5.7633496456692912
0
LINE
8
BLACK
6
CONTINUOUS
10
6.6918618897637794
20
-5.7633496456692912
11
6.6993609448818896
21
-5.7596001181102361
0
LINE
8
BLACK
6
CONTINUOUS
10
6.6993609448818896
20
-5.7596001181102361
11
6.7181086220472439
21
-5.7596001181102361
0
LINE
8
BLACK
6
CONTINUOUS
10
6.7181086220472439
20
-5.7596001181102361
11
6.7256076771653541
21
-5.7633496456692912
0
LINE
8
BLACK
6
CONTINUOUS
10
6.7256076771653541
20
-5.7633496456692912
11
6.7293572047244092
21
-5.7670992125984251
0
LINE
8
BLACK
6
CONTINUOUS
10
6.7293572047244092
20
-5.7670992125984251
11
6.7331067322834643
21
-5.7745982677165353
0
LINE
8
BLACK
6
CONTINUOUS
10
6.7331067322834643
20
-5.7745982677165353
11
6.7331067322834643
21
-5.7933459055118108
0
LINE
8
BLACK
6
CONTINUOUS
10
6.7331067322834643
20
-5.7933459055118108
11
6.7293572047244092
21
-5.8008449606299211
0
LINE
8
BLACK
6
CONTINUOUS
10
6.7293572047244092
20
-5.8008449606299211
11
6.7256076771653541
21
-5.8045945275590549
0
LINE
8
BLACK
6
CONTINUOUS
10
6.7256076771653541
20
-5.8045945275590549
11
6.7181086220472439
21
-5.80834405511811
0
LINE
8
BLACK
6
CONTINUOUS
10
6.7181086220472439
20
-5.80834405511811
11
6.6993609448818896
21
-5.80834405511811
0
LINE
8
BLACK
6
CONTINUOUS
10
6.6993609448818896
20
-5.80834405511811
11
6.6918618897637794
21
-5.8045945275590549
0
LINE
8
BLACK
6
CONTINUOUS
10
6.6918618897637794
20
-5.8045945275590549
11
6.6881123622047243
21
-5.8008449606299211
0
LINE
8
BLACK
6
CONTINUOUS
10
6.8043478346456689
20
-5.7296038976377952
11
6.7668525196850391
21
-5.7296038976377952
0
LINE
8
BLACK
6
CONTINUOUS
10
6.7668525196850391
20
-5.7296038976377952
11
6.763102992125984
21
-5.7670992125984251
0
LINE
8
BLACK
6
CONTINUOUS
10
6.763102992125984
20
-5.7670992125984251
11
6.7668525196850391
21
-5.7633496456692912
0
LINE
8
BLACK
6
CONTINUOUS
10
6.7668525196850391
20
-5.7633496456692912
11
6.7743515748031493
21
-5.7596001181102361
0
LINE
8
BLACK
6
CONTINUOUS
10
6.7743515748031493
20
-5.7596001181102361
11
6.7930992519685036
21
-5.7596001181102361
0
LINE
8
BLACK
6
CONTINUOUS
10
6.7930992519685036
20
-5.7596001181102361
11
6.8005983070866138
21
-5.7633496456692912
0
LINE
8
BLACK
6
CONTINUOUS
10
6.8005983070866138
20
-5.7633496456692912
11
6.8043478346456689
21
-5.7670992125984251
0
LINE
8
BLACK
6
CONTINUOUS
10
6.8043478346456689
20
-5.7670992125984251
11
6.8080973622047241
21
-5.7745982677165353
0
LINE
8
BLACK
6
CONTINUOUS
10
6.8080973622047241
20
-5.7745982677165353
11
6.8080973622047241
21
-5.7933459055118108
0
LINE
8
BLACK
6
CONTINUOUS
10
6.8080973622047241
20
-5.7933459055118108
11
6.8043478346456689
21
-5.8008449606299211
0
LINE
8
BLACK
6
CONTINUOUS
10
6.8043478346456689
20
-5.8008449606299211
11
6.8005983070866138
21
-5.8045945275590549
0
LINE
8
BLACK
6
CONTINUOUS
10
6.8005983070866138
20
-5.8045945275590549
11
6.7930992519685036
21
-5.80834405511811
0
LINE
8
BLACK
6
CONTINUOUS
10
6.7930992519685036
20
-5.80834405511811
11
6.7743515748031493
21
-5.80834405511811
0
LINE
8
BLACK
6
CONTINUOUS
10
6.7743515748031493
20
-5.80834405511811
11
6.7668525196850391
21
-5.8045945275590549
0
LINE
8
BLACK
6
CONTINUOUS
10
6.7668525196850391
20
-5.8045945275590549
11
6.763102992125984
21
-5.8008449606299211
0
LINE
8
BLACK
6
CONTINUOUS
10
6.8568412598425192
20
-5.7296038976377952
11
6.8643403543307082
21
-5.7296038976377952
0
LINE
8
BLACK
6
CONTINUOUS
10
6.8643403543307082
20
-5.7296038976377952
11
6.8718394094488184
21
-5.7333534251968503
0
LINE
8
BLACK
6
CONTINUOUS
10
6.8718394094488184
20
-5.7333534251968503
11
6.8755889370078735
21
-5.7371029527559054
0
LINE
8
BLACK
6
CONTINUOUS
10
6.8755889370078735
20
-5.7371029527559054
11
6.8793384645669287
21
-5.7446020078740156
0
LINE
8
BLACK
6
CONTINUOUS
10
6.8793384645669287
20
-5.7446020078740156
11
6.8830879921259838
21
-5.7596001181102361
0
LINE
8
BLACK
6
CONTINUOUS
10
6.8830879921259838
20
-5.7596001181102361
11
6.8830879921259838
21
-5.7783477952755904
0
LINE
8
BLACK
6
CONTINUOUS
10
6.8830879921259838
20
-5.7783477952755904
11
6.8793384645669287
21
-5.7933459055118108
0
LINE
8
BLACK
6
CONTINUOUS
10
6.8793384645669287
20
-5.7933459055118108
11
6.8755889370078735
21
-5.8008449606299211
0
LINE
8
BLACK
6
CONTINUOUS
10
6.8755889370078735
20
-5.8008449606299211
11
6.8718394094488184
21
-5.8045945275590549
0
LINE
8
BLACK
6
CONTINUOUS
10
6.8718394094488184
20
-5.8045945275590549
11
6.8643403543307082
21
-5.80834405511811
0
LINE
8
BLACK
6
CONTINUOUS
10
6.8643403543307082
20
-5.80834405511811
11
6.8568412598425192
21
-5.80834405511811
0
LINE
8
BLACK
6
CONTINUOUS
10
6.8568412598425192
20
-5.80834405511811
11
6.849342204724409
21
-5.8045945275590549
0
LINE
8
BLACK
6
CONTINUOUS
10
6.849342204724409
20
-5.8045945275590549
11
6.8455926771653539
21
-5.8008449606299211
0
LINE
8
BLACK
6
CONTINUOUS
10
6.8455926771653539
20
-5.8008449606299211
11
6.8418431496062988
21
-5.7933459055118108
0
LINE
8
BLACK
6
CONTINUOUS
10
6.8418431496062988
20
-5.7933459055118108
11
6.8380936220472437
21
-5.7783477952755904
0
LINE
8
BLACK
6
CONTINUOUS
10
6.8380936220472437
20
-5.7783477952755904
11
6.8380936220472437
21
-5.7596001181102361
0
LINE
8
BLACK
6
CONTINUOUS
10
6.8380936220472437
20
-5.7596001181102361
11
6.8418431496062988
21
-5.7446020078740156
0
LINE
8
BLACK
6
CONTINUOUS
10
6.8418431496062988
20
-5.7446020078740156
11
6.8455926771653539
21
-5.7371029527559054
0
LINE
8
BLACK
6
CONTINUOUS
10
6.8455926771653539
20
-5.7371029527559054
11
6.849342204724409
21
-5.7333534251968503
0
LINE
8
BLACK
6
CONTINUOUS
10
6.849342204724409
20
-5.7333534251968503
11
6.8568412598425192
21
-5.7296038976377952
0
LINE
8
BLACK
6
CONTINUOUS
10
6.9130842519685034
20
-5.7296038976377952
11
6.9130842519685034
21
-5.7446020078740156
0
LINE
8
BLACK
6
CONTINUOUS
10
6.943080511811023
20
-5.7296038976377952
11
6.943080511811023
21
-5.7446020078740156
0
LINE
8
BLACK
6
CONTINUOUS
10
7.0593160236220474
20
-5.8383402755905509
11
7.0555664566929135
21
-5.8345907480314958
0
LINE
8
BLACK
6
CONTINUOUS
10
7.0555664566929135
20
-5.8345907480314958
11
7.0480674015748033
21
-5.8233421653543305
0
LINE
8
BLACK
6
CONTINUOUS
10
7.0480674015748033
20
-5.8233421653543305
11
7.0443178740157482
21
-5.8158431102362202
0
LINE
8
BLACK
6
CONTINUOUS
10
7.0443178740157482
20
-5.8158431102362202
11
7.040568346456693
21
-5.8045945275590549
0
LINE
8
BLACK
6
CONTINUOUS
10
7.040568346456693
20
-5.8045945275590549
11
7.0368188188976379
21
-5.7858468503937006
0
LINE
8
BLACK
6
CONTINUOUS
10
7.0368188188976379
20
-5.7858468503937006
11
7.0368188188976379
21
-5.7708487401574802
0
LINE
8
BLACK
6
CONTINUOUS
10
7.0368188188976379
20
-5.7708487401574802
11
7.040568346456693
21
-5.7521010629921259
0
LINE
8
BLACK
6
CONTINUOUS
10
7.040568346456693
20
-5.7521010629921259
11
7.0443178740157482
21
-5.7408524803149605
0
LINE
8
BLACK
6
CONTINUOUS
10
7.0443178740157482
20
-5.7408524803149605
11
7.0480674015748033
21
-5.7333534251968503
0
LINE
8
BLACK
6
CONTINUOUS
10
7.0480674015748033
20
-5.7333534251968503
11
7.0555664566929135
21
-5.7221048031496062
0
LINE
8
BLACK
6
CONTINUOUS
10
7.0555664566929135
20
-5.7221048031496062
11
7.0593160236220474
21
-5.7183552755905511
0
LINE
8
BLACK
6
CONTINUOUS
10
7.0855627165354331
20
-5.7371029527559054
11
7.0893122440944882
21
-5.7333534251968503
0
LINE
8
BLACK
6
CONTINUOUS
10
7.0893122440944882
20
-5.7333534251968503
11
7.0968112992125985
21
-5.7296038976377952
0
LINE
8
BLACK
6
CONTINUOUS
10
7.0968112992125985
20
-5.7296038976377952
11
7.1155589763779528
21
-5.7296038976377952
0
LINE
8
BLACK
6
CONTINUOUS
10
7.1155589763779528
20
-5.7296038976377952
11
7.123058031496063
21
-5.7333534251968503
0
LINE
8
BLACK
6
CONTINUOUS
10
7.123058031496063
20
-5.7333534251968503
11
7.1268075590551181
21
-5.7371029527559054
0
LINE
8
BLACK
6
CONTINUOUS
10
7.1268075590551181
20
-5.7371029527559054
11
7.1305570866141732
21
-5.7446020078740156
0
LINE
8
BLACK
6
CONTINUOUS
10
7.1305570866141732
20
-5.7446020078740156
11
7.1305570866141732
21
-5.7521010629921259
0
LINE
8
BLACK
6
CONTINUOUS
10
7.1305570866141732
20
-5.7521010629921259
11
7.1268075590551181
21
-5.7633496456692912
0
LINE
8
BLACK
6
CONTINUOUS
10
7.1268075590551181
20
-5.7633496456692912
11
7.081813188976378
21
-5.80834405511811
0
LINE
8
BLACK
6
CONTINUOUS
10
7.081813188976378
20
-5.80834405511811
11
7.1305570866141732
21
-5.80834405511811
0
LINE
8
BLACK
6
CONTINUOUS
10
7.1793009842519684
20
-5.7296038976377952
11
7.1868000787401574
21
-5.7296038976377952
0
LINE
8
BLACK
6
CONTINUOUS
10
7.1868000787401574
20
-5.7296038976377952
11
7.1942991338582676
21
-5.7333534251968503
0
LINE
8
BLACK
6
CONTINUOUS
10
7.1942991338582676
20
-5.7333534251968503
11
7.1980486614173227
21
-5.7371029527559054
0
LINE
8
BLACK
6
CONTINUOUS
10
7.1980486614173227
20
-5.7371029527559054
11
7.2017981889763778
21
-5.7446020078740156
0
LINE
8
BLACK
6
CONTINUOUS
10
7.2017981889763778
20
-5.7446020078740156
11
7.2055477165354329
21
-5.7596001181102361
0
LINE
8
BLACK
6
CONTINUOUS
10
7.2055477165354329
20
-5.7596001181102361
11
7.2055477165354329
21
-5.7783477952755904
0
LINE
8
BLACK
6
CONTINUOUS
10
7.2055477165354329
20
-5.7783477952755904
11
7.2017981889763778
21
-5.7933459055118108
0
LINE
8
BLACK
6
CONTINUOUS
10
7.2017981889763778
20
-5.7933459055118108
11
7.1980486614173227
21
-5.8008449606299211
0
LINE
8
BLACK
6
CONTINUOUS
10
7.1980486614173227
20
-5.8008449606299211
11
7.1942991338582676
21
-5.8045945275590549
0
LINE
8
BLACK
6
CONTINUOUS
10
7.1942991338582676
20
-5.8045945275590549
11
7.1868000787401574
21
-5.80834405511811
0
LINE
8
BLACK
6
CONTINUOUS
10
7.1868000787401574
20
-5.80834405511811
11
7.1793009842519684
21
-5.80834405511811
0
LINE
8
BLACK
6
CONTINUOUS
10
7.1793009842519684
20
-5.80834405511811
11
7.1718019291338582
21
-5.8045945275590549
0
LINE
8
BLACK
6
CONTINUOUS
10
7.1718019291338582
20
-5.8045945275590549
11
7.1680524015748031
21
-5.8008449606299211
0
LINE
8
BLACK
6
CONTINUOUS
10
7.1680524015748031
20
-5.8008449606299211
11
7.1643028740157479
21
-5.7933459055118108
0
LINE
8
BLACK
6
CONTINUOUS
10
7.1643028740157479
20
-5.7933459055118108
11
7.1605533464566928
21
-5.7783477952755904
0
LINE
8
BLACK
6
CONTINUOUS
10
7.1605533464566928
20
-5.7783477952755904
11
7.1605533464566928
21
-5.7596001181102361
0
LINE
8
BLACK
6
CONTINUOUS
10
7.1605533464566928
20
-5.7596001181102361
11
7.1643028740157479
21
-5.7446020078740156
0
LINE
8
BLACK
6
CONTINUOUS
10
7.1643028740157479
20
-5.7446020078740156
11
7.1680524015748031
21
-5.7371029527559054
0
LINE
8
BLACK
6
CONTINUOUS
10
7.1680524015748031
20
-5.7371029527559054
11
7.1718019291338582
21
-5.7333534251968503
0
LINE
8
BLACK
6
CONTINUOUS
10
7.1718019291338582
20
-5.7333534251968503
11
7.1793009842519684
21
-5.7296038976377952
0
LINE
8
BLACK
6
CONTINUOUS
10
7.2992860236220469
20
-5.80834405511811
11
7.2992860236220469
21
-5.7296038976377952
0
LINE
8
BLACK
6
CONTINUOUS
10
7.3330318110236217
20
-5.80834405511811
11
7.3330318110236217
21
-5.7670992125984251
0
LINE
8
BLACK
6
CONTINUOUS
10
7.3330318110236217
20
-5.7670992125984251
11
7.3292822834645666
21
-5.7596001181102361
0
LINE
8
BLACK
6
CONTINUOUS
10
7.3292822834645666
20
-5.7596001181102361
11
7.3217832283464563
21
-5.755850590551181
0
LINE
8
BLACK
6
CONTINUOUS
10
7.3217832283464563
20
-5.755850590551181
11
7.3105346062992123
21
-5.755850590551181
0
LINE
8
BLACK
6
CONTINUOUS
10
7.3105346062992123
20
-5.755850590551181
11
7.303035551181102
21
-5.7596001181102361
0
LINE
8
BLACK
6
CONTINUOUS
10
7.303035551181102
20
-5.7596001181102361
11
7.2992860236220469
21
-5.7633496456692912
0
LINE
8
BLACK
6
CONTINUOUS
10
7.3817757086614169
20
-5.80834405511811
11
7.3742766535433066
21
-5.8045945275590549
0
LINE
8
BLACK
6
CONTINUOUS
10
7.3742766535433066
20
-5.8045945275590549
11
7.3705271259842515
21
-5.8008449606299211
0
LINE
8
BLACK
6
CONTINUOUS
10
7.3705271259842515
20
-5.8008449606299211
11
7.3667775984251964
21
-5.7933459055118108
0
LINE
8
BLACK
6
CONTINUOUS
10
7.3667775984251964
20
-5.7933459055118108
11
7.3667775984251964
21
-5.7708487401574802
0
LINE
8
BLACK
6
CONTINUOUS
10
7.3667775984251964
20
-5.7708487401574802
11
7.3705271259842515
21
-5.7633496456692912
0
LINE
8
BLACK
6
CONTINUOUS
10
7.3705271259842515
20
-5.7633496456692912
11
7.3742766535433066
21
-5.7596001181102361
0
LINE
8
BLACK
6
CONTINUOUS
10
7.3742766535433066
20
-5.7596001181102361
11
7.3817757086614169
21
-5.755850590551181
0
LINE
8
BLACK
6
CONTINUOUS
10
7.3817757086614169
20
-5.755850590551181
11
7.3930243307086609
21
-5.755850590551181
0
LINE
8
BLACK
6
CONTINUOUS
10
7.3930243307086609
20
-5.755850590551181
11
7.4005233858267712
21
-5.7596001181102361
0
LINE
8
BLACK
6
CONTINUOUS
10
7.4005233858267712
20
-5.7596001181102361
11
7.4042729133858263
21
-5.7633496456692912
0
LINE
8
BLACK
6
CONTINUOUS
10
7.4042729133858263
20
-5.7633496456692912
11
7.4080224409448814
21
-5.7708487401574802
0
LINE
8
BLACK
6
CONTINUOUS
10
7.4080224409448814
20
-5.7708487401574802
11
7.4080224409448814
21
-5.7933459055118108
0
LINE
8
BLACK
6
CONTINUOUS
10
7.4080224409448814
20
-5.7933459055118108
11
7.4042729133858263
21
-5.8008449606299211
0
LINE
8
BLACK
6
CONTINUOUS
10
7.4042729133858263
20
-5.8008449606299211
11
7.4005233858267712
21
-5.8045945275590549
0
LINE
8
BLACK
6
CONTINUOUS
10
7.4005233858267712
20
-5.8045945275590549
11
7.3930243307086609
21
-5.80834405511811
0
LINE
8
BLACK
6
CONTINUOUS
10
7.3930243307086609
20
-5.80834405511811
11
7.3817757086614169
21
-5.80834405511811
0
LINE
8
BLACK
6
CONTINUOUS
10
7.4530168110236215
20
-5.80834405511811
11
7.4455177559055112
21
-5.8045945275590549
0
LINE
8
BLACK
6
CONTINUOUS
10
7.4455177559055112
20
-5.8045945275590549
11
7.4417682283464561
21
-5.7970954330708659
0
LINE
8
BLACK
6
CONTINUOUS
10
7.4417682283464561
20
-5.7970954330708659
11
7.4417682283464561
21
-5.7296038976377952
0
LINE
8
BLACK
6
CONTINUOUS
10
7.5130093307086616
20
-5.8045945275590549
11
7.5055102755905514
21
-5.80834405511811
0
LINE
8
BLACK
6
CONTINUOUS
10
7.5055102755905514
20
-5.80834405511811
11
7.4905121259842522
21
-5.80834405511811
0
LINE
8
BLACK
6
CONTINUOUS
10
7.4905121259842522
20
-5.80834405511811
11
7.483013070866142
21
-5.8045945275590549
0
LINE
8
BLACK
6
CONTINUOUS
10
7.483013070866142
20
-5.8045945275590549
11
7.4792635433070869
21
-5.7970954330708659
0
LINE
8
BLACK
6
CONTINUOUS
10
7.4792635433070869
20
-5.7970954330708659
11
7.4792635433070869
21
-5.7670992125984251
0
LINE
8
BLACK
6
CONTINUOUS
10
7.4792635433070869
20
-5.7670992125984251
11
7.483013070866142
21
-5.7596001181102361
0
LINE
8
BLACK
6
CONTINUOUS
10
7.483013070866142
20
-5.7596001181102361
11
7.4905121259842522
21
-5.755850590551181
0
LINE
8
BLACK
6
CONTINUOUS
10
7.4905121259842522
20
-5.755850590551181
11
7.5055102755905514
21
-5.755850590551181
0
LINE
8
BLACK
6
CONTINUOUS
10
7.5055102755905514
20
-5.755850590551181
11
7.5130093307086616
21
-5.7596001181102361
0
LINE
8
BLACK
6
CONTINUOUS
10
7.5130093307086616
20
-5.7596001181102361
11
7.5167588582677167
21
-5.7670992125984251
0
LINE
8
BLACK
6
CONTINUOUS
10
7.5167588582677167
20
-5.7670992125984251
11
7.5167588582677167
21
-5.7745982677165353
0
LINE
8
BLACK
6
CONTINUOUS
10
7.5167588582677167
20
-5.7745982677165353
11
7.4792635433070869
21
-5.7820973228346455
0
LINE
8
BLACK
6
CONTINUOUS
10
7.5467551181102364
20
-5.8045945275590549
11
7.5542541732283466
21
-5.80834405511811
0
LINE
8
BLACK
6
CONTINUOUS
10
7.5542541732283466
20
-5.80834405511811
11
7.569252283464567
21
-5.80834405511811
0
LINE
8
BLACK
6
CONTINUOUS
10
7.569252283464567
20
-5.80834405511811
11
7.576751377952756
21
-5.8045945275590549
0
LINE
8
BLACK
6
CONTINUOUS
10
7.576751377952756
20
-5.8045945275590549
11
7.5805009055118111
21
-5.7970954330708659
0
LINE
8
BLACK
6
CONTINUOUS
10
7.5805009055118111
20
-5.7970954330708659
11
7.5805009055118111
21
-5.7933459055118108
0
LINE
8
BLACK
6
CONTINUOUS
10
7.5805009055118111
20
-5.7933459055118108
11
7.576751377952756
21
-5.7858468503937006
0
LINE
8
BLACK
6
CONTINUOUS
10
7.576751377952756
20
-5.7858468503937006
11
7.569252283464567
21
-5.7820973228346455
0
LINE
8
BLACK
6
CONTINUOUS
10
7.569252283464567
20
-5.7820973228346455
11
7.5580037007874017
21
-5.7820973228346455
0
LINE
8
BLACK
6
CONTINUOUS
10
7.5580037007874017
20
-5.7820973228346455
11
7.5505046456692915
21
-5.7783477952755904
0
LINE
8
BLACK
6
CONTINUOUS
10
7.5505046456692915
20
-5.7783477952755904
11
7.5467551181102364
21
-5.7708487401574802
0
LINE
8
BLACK
6
CONTINUOUS
10
7.5467551181102364
20
-5.7708487401574802
11
7.5467551181102364
21
-5.7670992125984251
0
LINE
8
BLACK
6
CONTINUOUS
10
7.5467551181102364
20
-5.7670992125984251
11
7.5505046456692915
21
-5.7596001181102361
0
LINE
8
BLACK
6
CONTINUOUS
10
7.5505046456692915
20
-5.7596001181102361
11
7.5580037007874017
21
-5.755850590551181
0
LINE
8
BLACK
6
CONTINUOUS
10
7.5580037007874017
20
-5.755850590551181
11
7.569252283464567
21
-5.755850590551181
0
LINE
8
BLACK
6
CONTINUOUS
10
7.569252283464567
20
-5.755850590551181
11
7.576751377952756
21
-5.7596001181102361
0
LINE
8
BLACK
6
CONTINUOUS
10
7.6067476377952756
20
-5.8383402755905509
11
7.6104971653543307
21
-5.8345907480314958
0
LINE
8
BLACK
6
CONTINUOUS
10
7.6104971653543307
20
-5.8345907480314958
11
7.617996220472441
21
-5.8233421653543305
0
LINE
8
BLACK
6
CONTINUOUS
10
7.617996220472441
20
-5.8233421653543305
11
7.6217457480314961
21
-5.8158431102362202
0
LINE
8
BLACK
6
CONTINUOUS
10
7.6217457480314961
20
-5.8158431102362202
11
7.6254952755905512
21
-5.8045945275590549
0
LINE
8
BLACK
6
CONTINUOUS
10
7.6254952755905512
20
-5.8045945275590549
11
7.6292448031496063
21
-5.7858468503937006
0
LINE
8
BLACK
6
CONTINUOUS
10
7.6292448031496063
20
-5.7858468503937006
11
7.6292448031496063
21
-5.7708487401574802
0
LINE
8
BLACK
6
CONTINUOUS
10
7.6292448031496063
20
-5.7708487401574802
11
7.6254952755905512
21
-5.7521010629921259
0
LINE
8
BLACK
6
CONTINUOUS
10
7.6254952755905512
20
-5.7521010629921259
11
7.6217457480314961
21
-5.7408524803149605
0
LINE
8
BLACK
6
CONTINUOUS
10
7.6217457480314961
20
-5.7408524803149605
11
7.617996220472441
21
-5.7333534251968503
0
LINE
8
BLACK
6
CONTINUOUS
10
7.617996220472441
20
-5.7333534251968503
11
7.6104971653543307
21
-5.7221048031496062
0
LINE
8
BLACK
6
CONTINUOUS
10
7.6104971653543307
20
-5.7221048031496062
11
7.6067476377952756
21
-5.7183552755905511
0
CIRCLE
8
BLACK
10
5.6163778740157477
20
-5.8762638188976375
40
0.0354330708661417
0
LINE
8
BLACK
6
CONTINUOUS
10
5.7957238188976374
20
-5.9122810629921254
11
5.7507294488188974
21
-5.9122810629921254
0
LINE
8
BLACK
6
CONTINUOUS
10
5.773226614173228
20
-5.9122810629921254
11
5.773226614173228
21
-5.8335409055118106
0
LINE
8
BLACK
6
CONTINUOUS
10
5.773226614173228
20
-5.8335409055118106
11
5.7657275590551178
21
-5.8447894881889759
0
LINE
8
BLACK
6
CONTINUOUS
10
5.7657275590551178
20
-5.8447894881889759
11
5.7582285039370076
21
-5.8522885433070861
0
LINE
8
BLACK
6
CONTINUOUS
10
5.7582285039370076
20
-5.8522885433070861
11
5.7507294488188974
21
-5.8560380708661413
0
LINE
8
BLACK
6
CONTINUOUS
10
5.8294696062992122
20
-5.9047819685039364
11
5.8332191338582673
21
-5.9085315354330703
0
LINE
8
BLACK
6
CONTINUOUS
10
5.8332191338582673
20
-5.9085315354330703
11
5.8294696062992122
21
-5.9122810629921254
0
LINE
8
BLACK
6
CONTINUOUS
10
5.8294696062992122
20
-5.9122810629921254
11
5.8257200787401571
21
-5.9085315354330703
0
LINE
8
BLACK
6
CONTINUOUS
10
5.8257200787401571
20
-5.9085315354330703
11
5.8294696062992122
21
-5.9047819685039364
0
LINE
8
BLACK
6
CONTINUOUS
10
5.8294696062992122
20
-5.9047819685039364
11
5.8294696062992122
21
-5.9122810629921254
0
LINE
8
BLACK
6
CONTINUOUS
10
5.8782135039370074
20
-5.8672866535433066
11
5.8707144488188971
21
-5.8635371259842515
0
LINE
8
BLACK
6
CONTINUOUS
10
5.8707144488188971
20
-5.8635371259842515
11
5.866964921259842
21
-5.8597875984251964
0
LINE
8
BLACK
6
CONTINUOUS
10
5.866964921259842
20
-5.8597875984251964
11
5.8632153937007869
21
-5.8522885433070861
0
LINE
8
BLACK
6
CONTINUOUS
10
5.8632153937007869
20
-5.8522885433070861
11
5.8632153937007869
21
-5.848539015748031
0
LINE
8
BLACK
6
CONTINUOUS
10
5.8632153937007869
20
-5.848539015748031
11
5.866964921259842
21
-5.8410399606299208
0
LINE
8
BLACK
6
CONTINUOUS
10
5.866964921259842
20
-5.8410399606299208
11
5.8707144488188971
21
-5.8372904330708657
0
LINE
8
BLACK
6
CONTINUOUS
10
5.8707144488188971
20
-5.8372904330708657
11
5.8782135039370074
21
-5.8335409055118106
0
LINE
8
BLACK
6
CONTINUOUS
10
5.8782135039370074
20
-5.8335409055118106
11
5.8932116535433066
21
-5.8335409055118106
0
LINE
8
BLACK
6
CONTINUOUS
10
5.8932116535433066
20
-5.8335409055118106
11
5.9007107086614168
21
-5.8372904330708657
0
LINE
8
BLACK
6
CONTINUOUS
10
5.9007107086614168
20
-5.8372904330708657
11
5.9044602362204719
21
-5.8410399606299208
0
LINE
8
BLACK
6
CONTINUOUS
10
5.9044602362204719
20
-5.8410399606299208
11
5.908209763779527
21
-5.848539015748031
0
LINE
8
BLACK
6
CONTINUOUS
10
5.908209763779527
20
-5.848539015748031
11
5.908209763779527
21
-5.8522885433070861
0
LINE
8
BLACK
6
CONTINUOUS
10
5.908209763779527
20
-5.8522885433070861
11
5.9044602362204719
21
-5.8597875984251964
0
LINE
8
BLACK
6
CONTINUOUS
10
5.9044602362204719
20
-5.8597875984251964
11
5.9007107086614168
21
-5.8635371259842515
0
LINE
8
BLACK
6
CONTINUOUS
10
5.9007107086614168
20
-5.8635371259842515
11
5.8932116535433066
21
-5.8672866535433066
0
LINE
8
BLACK
6
CONTINUOUS
10
5.8932116535433066
20
-5.8672866535433066
11
5.8782135039370074
21
-5.8672866535433066
0
LINE
8
BLACK
6
CONTINUOUS
10
5.8782135039370074
20
-5.8672866535433066
11
5.8707144488188971
21
-5.8710362204724404
0
LINE
8
BLACK
6
CONTINUOUS
10
5.8707144488188971
20
-5.8710362204724404
11
5.866964921259842
21
-5.8747857480314956
0
LINE
8
BLACK
6
CONTINUOUS
10
5.866964921259842
20
-5.8747857480314956
11
5.8632153937007869
21
-5.8822848031496058
0
LINE
8
BLACK
6
CONTINUOUS
10
5.8632153937007869
20
-5.8822848031496058
11
5.8632153937007869
21
-5.8972829133858262
0
LINE
8
BLACK
6
CONTINUOUS
10
5.8632153937007869
20
-5.8972829133858262
11
5.866964921259842
21
-5.9047819685039364
0
LINE
8
BLACK
6
CONTINUOUS
10
5.866964921259842
20
-5.9047819685039364
11
5.8707144488188971
21
-5.9085315354330703
0
LINE
8
BLACK
6
CONTINUOUS
10
5.8707144488188971
20
-5.9085315354330703
11
5.8782135039370074
21
-5.9122810629921254
0
LINE
8
BLACK
6
CONTINUOUS
10
5.8782135039370074
20
-5.9122810629921254
11
5.8932116535433066
21
-5.9122810629921254
0
LINE
8
BLACK
6
CONTINUOUS
10
5.8932116535433066
20
-5.9122810629921254
11
5.9007107086614168
21
-5.9085315354330703
0
LINE
8
BLACK
6
CONTINUOUS
10
5.9007107086614168
20
-5.9085315354330703
11
5.9044602362204719
21
-5.9047819685039364
0
LINE
8
BLACK
6
CONTINUOUS
10
5.9044602362204719
20
-5.9047819685039364
11
5.908209763779527
21
-5.8972829133858262
0
LINE
8
BLACK
6
CONTINUOUS
10
5.908209763779527
20
-5.8972829133858262
11
5.908209763779527
21
-5.8822848031496058
0
LINE
8
BLACK
6
CONTINUOUS
10
5.908209763779527
20
-5.8822848031496058
11
5.9044602362204719
21
-5.8747857480314956
0
LINE
8
BLACK
6
CONTINUOUS
10
5.9044602362204719
20
-5.8747857480314956
11
5.9007107086614168
21
-5.8710362204724404
0
LINE
8
BLACK
6
CONTINUOUS
10
5.9007107086614168
20
-5.8710362204724404
11
5.8932116535433066
21
-5.8672866535433066
0
LINE
8
BLACK
6
CONTINUOUS
10
5.9569536614173231
20
-5.8335409055118106
11
5.964452755905512
21
-5.8335409055118106
0
LINE
8
BLACK
6
CONTINUOUS
10
5.964452755905512
20
-5.8335409055118106
11
5.9719518110236223
21
-5.8372904330708657
0
LINE
8
BLACK
6
CONTINUOUS
10
5.9719518110236223
20
-5.8372904330708657
11
5.9757013385826774
21
-5.8410399606299208
0
LINE
8
BLACK
6
CONTINUOUS
10
5.9757013385826774
20
-5.8410399606299208
11
5.9794508661417325
21
-5.848539015748031
0
LINE
8
BLACK
6
CONTINUOUS
10
5.9794508661417325
20
-5.848539015748031
11
5.9832003937007876
21
-5.8635371259842515
0
LINE
8
BLACK
6
CONTINUOUS
10
5.9832003937007876
20
-5.8635371259842515
11
5.9832003937007876
21
-5.8822848031496058
0
LINE
8
BLACK
6
CONTINUOUS
10
5.9832003937007876
20
-5.8822848031496058
11
5.9794508661417325
21
-5.8972829133858262
0
LINE
8
BLACK
6
CONTINUOUS
10
5.9794508661417325
20
-5.8972829133858262
11
5.9757013385826774
21
-5.9047819685039364
0
LINE
8
BLACK
6
CONTINUOUS
10
5.9757013385826774
20
-5.9047819685039364
11
5.9719518110236223
21
-5.9085315354330703
0
LINE
8
BLACK
6
CONTINUOUS
10
5.9719518110236223
20
-5.9085315354330703
11
5.964452755905512
21
-5.9122810629921254
0
LINE
8
BLACK
6
CONTINUOUS
10
5.964452755905512
20
-5.9122810629921254
11
5.9569536614173231
21
-5.9122810629921254
0
LINE
8
BLACK
6
CONTINUOUS
10
5.9569536614173231
20
-5.9122810629921254
11
5.9494546062992129
21
-5.9085315354330703
0
LINE
8
BLACK
6
CONTINUOUS
10
5.9494546062992129
20
-5.9085315354330703
11
5.9457050787401577
21
-5.9047819685039364
0
LINE
8
BLACK
6
CONTINUOUS
10
5.9457050787401577
20
-5.9047819685039364
11
5.9419555511811026
21
-5.8972829133858262
0
LINE
8
BLACK
6
CONTINUOUS
10
5.9419555511811026
20
-5.8972829133858262
11
5.9382060236220475
21
-5.8822848031496058
0
LINE
8
BLACK
6
CONTINUOUS
10
5.9382060236220475
20
-5.8822848031496058
11
5.9382060236220475
21
-5.8635371259842515
0
LINE
8
BLACK
6
CONTINUOUS
10
5.9382060236220475
20
-5.8635371259842515
11
5.9419555511811026
21
-5.848539015748031
0
LINE
8
BLACK
6
CONTINUOUS
10
5.9419555511811026
20
-5.848539015748031
11
5.9457050787401577
21
-5.8410399606299208
0
LINE
8
BLACK
6
CONTINUOUS
10
5.9457050787401577
20
-5.8410399606299208
11
5.9494546062992129
21
-5.8372904330708657
0
LINE
8
BLACK
6
CONTINUOUS
10
5.9494546062992129
20
-5.8372904330708657
11
5.9569536614173231
21
-5.8335409055118106
0
LINE
8
BLACK
6
CONTINUOUS
10
6.0319442913385828
20
-5.8335409055118106
11
6.0394433858267718
21
-5.8335409055118106
0
LINE
8
BLACK
6
CONTINUOUS
10
6.0394433858267718
20
-5.8335409055118106
11
6.046942440944882
21
-5.8372904330708657
0
LINE
8
BLACK
6
CONTINUOUS
10
6.046942440944882
20
-5.8372904330708657
11
6.0506919685039371
21
-5.8410399606299208
0
LINE
8
BLACK
6
CONTINUOUS
10
6.0506919685039371
20
-5.8410399606299208
11
6.0544414960629922
21
-5.848539015748031
0
LINE
8
BLACK
6
CONTINUOUS
10
6.0544414960629922
20
-5.848539015748031
11
6.0581910236220473
21
-5.8635371259842515
0
LINE
8
BLACK
6
CONTINUOUS
10
6.0581910236220473
20
-5.8635371259842515
11
6.0581910236220473
21
-5.8822848031496058
0
LINE
8
BLACK
6
CONTINUOUS
10
6.0581910236220473
20
-5.8822848031496058
11
6.0544414960629922
21
-5.8972829133858262
0
LINE
8
BLACK
6
CONTINUOUS
10
6.0544414960629922
20
-5.8972829133858262
11
6.0506919685039371
21
-5.9047819685039364
0
LINE
8
BLACK
6
CONTINUOUS
10
6.0506919685039371
20
-5.9047819685039364
11
6.046942440944882
21
-5.9085315354330703
0
LINE
8
BLACK
6
CONTINUOUS
10
6.046942440944882
20
-5.9085315354330703
11
6.0394433858267718
21
-5.9122810629921254
0
LINE
8
BLACK
6
CONTINUOUS
10
6.0394433858267718
20
-5.9122810629921254
11
6.0319442913385828
21
-5.9122810629921254
0
LINE
8
BLACK
6
CONTINUOUS
10
6.0319442913385828
20
-5.9122810629921254
11
6.0244452362204726
21
-5.9085315354330703
0
LINE
8
BLACK
6
CONTINUOUS
10
6.0244452362204726
20
-5.9085315354330703
11
6.0206957086614175
21
-5.9047819685039364
0
LINE
8
BLACK
6
CONTINUOUS
10
6.0206957086614175
20
-5.9047819685039364
11
6.0169461811023623
21
-5.8972829133858262
0
LINE
8
BLACK
6
CONTINUOUS
10
6.0169461811023623
20
-5.8972829133858262
11
6.0131966535433072
21
-5.8822848031496058
0
LINE
8
BLACK
6
CONTINUOUS
10
6.0131966535433072
20
-5.8822848031496058
11
6.0131966535433072
21
-5.8635371259842515
0
LINE
8
BLACK
6
CONTINUOUS
10
6.0131966535433072
20
-5.8635371259842515
11
6.0169461811023623
21
-5.848539015748031
0
LINE
8
BLACK
6
CONTINUOUS
10
6.0169461811023623
20
-5.848539015748031
11
6.0206957086614175
21
-5.8410399606299208
0
LINE
8
BLACK
6
CONTINUOUS
10
6.0206957086614175
20
-5.8410399606299208
11
6.0244452362204726
21
-5.8372904330708657
0
LINE
8
BLACK
6
CONTINUOUS
10
6.0244452362204726
20
-5.8372904330708657
11
6.0319442913385828
21
-5.8335409055118106
0
LINE
8
BLACK
6
CONTINUOUS
10
6.0919368110236221
20
-5.9122810629921254
11
6.0919368110236221
21
-5.8597875984251964
0
LINE
8
BLACK
6
CONTINUOUS
10
6.0919368110236221
20
-5.8672866535433066
11
6.0956863385826772
21
-5.8635371259842515
0
LINE
8
BLACK
6
CONTINUOUS
10
6.0956863385826772
20
-5.8635371259842515
11
6.1031853937007874
21
-5.8597875984251964
0
LINE
8
BLACK
6
CONTINUOUS
10
6.1031853937007874
20
-5.8597875984251964
11
6.1144340157480315
21
-5.8597875984251964
0
LINE
8
BLACK
6
CONTINUOUS
10
6.1144340157480315
20
-5.8597875984251964
11
6.1219330708661417
21
-5.8635371259842515
0
LINE
8
BLACK
6
CONTINUOUS
10
6.1219330708661417
20
-5.8635371259842515
11
6.1256825984251968
21
-5.8710362204724404
0
LINE
8
BLACK
6
CONTINUOUS
10
6.1256825984251968
20
-5.8710362204724404
11
6.1256825984251968
21
-5.9122810629921254
0
LINE
8
BLACK
6
CONTINUOUS
10
6.1256825984251968
20
-5.8710362204724404
11
6.1294321259842519
21
-5.8635371259842515
0
LINE
8
BLACK
6
CONTINUOUS
10
6.1294321259842519
20
-5.8635371259842515
11
6.1369311811023621
21
-5.8597875984251964
0
LINE
8
BLACK
6
CONTINUOUS
10
6.1369311811023621
20
-5.8597875984251964
11
6.1481797637795275
21
-5.8597875984251964
0
LINE
8
BLACK
6
CONTINUOUS
10
6.1481797637795275
20
-5.8597875984251964
11
6.1556788582677164
21
-5.8635371259842515
0
LINE
8
BLACK
6
CONTINUOUS
10
6.1556788582677164
20
-5.8635371259842515
11
6.1594283858267715
21
-5.8710362204724404
0
LINE
8
BLACK
6
CONTINUOUS
10
6.1594283858267715
20
-5.8710362204724404
11
6.1594283858267715
21
-5.9122810629921254
0
LINE
8
BLACK
6
CONTINUOUS
10
6.1969237007874014
20
-5.9122810629921254
11
6.1969237007874014
21
-5.8597875984251964
0
LINE
8
BLACK
6
CONTINUOUS
10
6.1969237007874014
20
-5.8672866535433066
11
6.2006732283464565
21
-5.8635371259842515
0
LINE
8
BLACK
6
CONTINUOUS
10
6.2006732283464565
20
-5.8635371259842515
11
6.2081722834645667
21
-5.8597875984251964
0
LINE
8
BLACK
6
CONTINUOUS
10
6.2081722834645667
20
-5.8597875984251964
11
6.2194209055118108
21
-5.8597875984251964
0
LINE
8
BLACK
6
CONTINUOUS
10
6.2194209055118108
20
-5.8597875984251964
11
6.226919960629921
21
-5.8635371259842515
0
LINE
8
BLACK
6
CONTINUOUS
10
6.226919960629921
20
-5.8635371259842515
11
6.2306694881889761
21
-5.8710362204724404
0
LINE
8
BLACK
6
CONTINUOUS
10
6.2306694881889761
20
-5.8710362204724404
11
6.2306694881889761
21
-5.9122810629921254
0
LINE
8
BLACK
6
CONTINUOUS
10
6.2306694881889761
20
-5.8710362204724404
11
6.2344190157480313
21
-5.8635371259842515
0
LINE
8
BLACK
6
CONTINUOUS
10
6.2344190157480313
20
-5.8635371259842515
11
6.2419180708661415
21
-5.8597875984251964
0
LINE
8
BLACK
6
CONTINUOUS
10
6.2419180708661415
20
-5.8597875984251964
11
6.2531666535433068
21
-5.8597875984251964
0
LINE
8
BLACK
6
CONTINUOUS
10
6.2531666535433068
20
-5.8597875984251964
11
6.2606657480314958
21
-5.8635371259842515
0
LINE
8
BLACK
6
CONTINUOUS
10
6.2606657480314958
20
-5.8635371259842515
11
6.2644152755905509
21
-5.8710362204724404
0
LINE
8
BLACK
6
CONTINUOUS
10
6.2644152755905509
20
-5.8710362204724404
11
6.2644152755905509
21
-5.9122810629921254
0
LINE
8
BLACK
6
CONTINUOUS
10
6.4181460629921254
20
-5.8297913779527555
11
6.3506545275590547
21
-5.9310287007874019
0
LINE
8
BLACK
6
CONTINUOUS
10
6.5193834251968505
20
-5.8335409055118106
11
6.5268825196850395
21
-5.8335409055118106
0
LINE
8
BLACK
6
CONTINUOUS
10
6.5268825196850395
20
-5.8335409055118106
11
6.5343815748031497
21
-5.8372904330708657
0
LINE
8
BLACK
6
CONTINUOUS
10
6.5343815748031497
20
-5.8372904330708657
11
6.5381311023622048
21
-5.8410399606299208
0
LINE
8
BLACK
6
CONTINUOUS
10
6.5381311023622048
20
-5.8410399606299208
11
6.54188062992126
21
-5.848539015748031
0
LINE
8
BLACK
6
CONTINUOUS
10
6.54188062992126
20
-5.848539015748031
11
6.5456301574803151
21
-5.8635371259842515
0
LINE
8
BLACK
6
CONTINUOUS
10
6.5456301574803151
20
-5.8635371259842515
11
6.5456301574803151
21
-5.8822848031496058
0
LINE
8
BLACK
6
CONTINUOUS
10
6.5456301574803151
20
-5.8822848031496058
11
6.54188062992126
21
-5.8972829133858262
0
LINE
8
BLACK
6
CONTINUOUS
10
6.54188062992126
20
-5.8972829133858262
11
6.5381311023622048
21
-5.9047819685039364
0
LINE
8
BLACK
6
CONTINUOUS
10
6.5381311023622048
20
-5.9047819685039364
11
6.5343815748031497
21
-5.9085315354330703
0
LINE
8
BLACK
6
CONTINUOUS
10
6.5343815748031497
20
-5.9085315354330703
11
6.5268825196850395
21
-5.9122810629921254
0
LINE
8
BLACK
6
CONTINUOUS
10
6.5268825196850395
20
-5.9122810629921254
11
6.5193834251968505
21
-5.9122810629921254
0
LINE
8
BLACK
6
CONTINUOUS
10
6.5193834251968505
20
-5.9122810629921254
11
6.5118843700787403
21
-5.9085315354330703
0
LINE
8
BLACK
6
CONTINUOUS
10
6.5118843700787403
20
-5.9085315354330703
11
6.5081348425196852
21
-5.9047819685039364
0
LINE
8
BLACK
6
CONTINUOUS
10
6.5081348425196852
20
-5.9047819685039364
11
6.5043853149606301
21
-5.8972829133858262
0
LINE
8
BLACK
6
CONTINUOUS
10
6.5043853149606301
20
-5.8972829133858262
11
6.500635787401575
21
-5.8822848031496058
0
LINE
8
BLACK
6
CONTINUOUS
10
6.500635787401575
20
-5.8822848031496058
11
6.500635787401575
21
-5.8635371259842515
0
LINE
8
BLACK
6
CONTINUOUS
10
6.500635787401575
20
-5.8635371259842515
11
6.5043853149606301
21
-5.848539015748031
0
LINE
8
BLACK
6
CONTINUOUS
10
6.5043853149606301
20
-5.848539015748031
11
6.5081348425196852
21
-5.8410399606299208
0
LINE
8
BLACK
6
CONTINUOUS
10
6.5081348425196852
20
-5.8410399606299208
11
6.5118843700787403
21
-5.8372904330708657
0
LINE
8
BLACK
6
CONTINUOUS
10
6.5118843700787403
20
-5.8372904330708657
11
6.5193834251968505
21
-5.8335409055118106
0
LINE
8
BLACK
6
CONTINUOUS
10
6.5793759448818898
20
-5.9047819685039364
11
6.5831254724409449
21
-5.9085315354330703
0
LINE
8
BLACK
6
CONTINUOUS
10
6.5831254724409449
20
-5.9085315354330703
11
6.5793759448818898
21
-5.9122810629921254
0
LINE
8
BLACK
6
CONTINUOUS
10
6.5793759448818898
20
-5.9122810629921254
11
6.5756264173228347
21
-5.9085315354330703
0
LINE
8
BLACK
6
CONTINUOUS
10
6.5756264173228347
20
-5.9085315354330703
11
6.5793759448818898
21
-5.9047819685039364
0
LINE
8
BLACK
6
CONTINUOUS
10
6.5793759448818898
20
-5.9047819685039364
11
6.5793759448818898
21
-5.9122810629921254
0
LINE
8
BLACK
6
CONTINUOUS
10
6.6318693700787401
20
-5.8335409055118106
11
6.6393684645669291
21
-5.8335409055118106
0
LINE
8
BLACK
6
CONTINUOUS
10
6.6393684645669291
20
-5.8335409055118106
11
6.6468675196850393
21
-5.8372904330708657
0
LINE
8
BLACK
6
CONTINUOUS
10
6.6468675196850393
20
-5.8372904330708657
11
6.6506170472440944
21
-5.8410399606299208
0
LINE
8
BLACK
6
CONTINUOUS
10
6.6506170472440944
20
-5.8410399606299208
11
6.6543665748031495
21
-5.848539015748031
0
LINE
8
BLACK
6
CONTINUOUS
10
6.6543665748031495
20
-5.848539015748031
11
6.6581161023622046
21
-5.8635371259842515
0
LINE
8
BLACK
6
CONTINUOUS
10
6.6581161023622046
20
-5.8635371259842515
11
6.6581161023622046
21
-5.8822848031496058
0
LINE
8
BLACK
6
CONTINUOUS
10
6.6581161023622046
20
-5.8822848031496058
11
6.6543665748031495
21
-5.8972829133858262
0
LINE
8
BLACK
6
CONTINUOUS
10
6.6543665748031495
20
-5.8972829133858262
11
6.6506170472440944
21
-5.9047819685039364
0
LINE
8
BLACK
6
CONTINUOUS
10
6.6506170472440944
20
-5.9047819685039364
11
6.6468675196850393
21
-5.9085315354330703
0
LINE
8
BLACK
6
CONTINUOUS
10
6.6468675196850393
20
-5.9085315354330703
11
6.6393684645669291
21
-5.9122810629921254
0
LINE
8
BLACK
6
CONTINUOUS
10
6.6393684645669291
20
-5.9122810629921254
11
6.6318693700787401
21
-5.9122810629921254
0
LINE
8
BLACK
6
CONTINUOUS
10
6.6318693700787401
20
-5.9122810629921254
11
6.6243703149606299
21
-5.9085315354330703
0
LINE
8
BLACK
6
CONTINUOUS
10
6.6243703149606299
20
-5.9085315354330703
11
6.6206207874015748
21
-5.9047819685039364
0
LINE
8
BLACK
6
CONTINUOUS
10
6.6206207874015748
20
-5.9047819685039364
11
6.6168712598425197
21
-5.8972829133858262
0
LINE
8
BLACK
6
CONTINUOUS
10
6.6168712598425197
20
-5.8972829133858262
11
6.6131217322834646
21
-5.8822848031496058
0
LINE
8
BLACK
6
CONTINUOUS
10
6.6131217322834646
20
-5.8822848031496058
11
6.6131217322834646
21
-5.8635371259842515
0
LINE
8
BLACK
6
CONTINUOUS
10
6.6131217322834646
20
-5.8635371259842515
11
6.6168712598425197
21
-5.848539015748031
0
LINE
8
BLACK
6
CONTINUOUS
10
6.6168712598425197
20
-5.848539015748031
11
6.6206207874015748
21
-5.8410399606299208
0
LINE
8
BLACK
6
CONTINUOUS
10
6.6206207874015748
20
-5.8410399606299208
11
6.6243703149606299
21
-5.8372904330708657
0
LINE
8
BLACK
6
CONTINUOUS
10
6.6243703149606299
20
-5.8372904330708657
11
6.6318693700787401
21
-5.8335409055118106
0
LINE
8
BLACK
6
CONTINUOUS
10
6.6843628346456692
20
-5.8335409055118106
11
6.7368562598425195
21
-5.8335409055118106
0
LINE
8
BLACK
6
CONTINUOUS
10
6.7368562598425195
20
-5.8335409055118106
11
6.7031104724409447
21
-5.9122810629921254
0
LINE
8
BLACK
6
CONTINUOUS
10
6.7818506299212595
20
-5.8335409055118106
11
6.7893497244094485
21
-5.8335409055118106
0
LINE
8
BLACK
6
CONTINUOUS
10
6.7893497244094485
20
-5.8335409055118106
11
6.7968487795275587
21
-5.8372904330708657
0
LINE
8
BLACK
6
CONTINUOUS
10
6.7968487795275587
20
-5.8372904330708657
11
6.8005983070866138
21
-5.8410399606299208
0
LINE
8
BLACK
6
CONTINUOUS
10
6.8005983070866138
20
-5.8410399606299208
11
6.8043478346456689
21
-5.848539015748031
0
LINE
8
BLACK
6
CONTINUOUS
10
6.8043478346456689
20
-5.848539015748031
11
6.8080973622047241
21
-5.8635371259842515
0
LINE
8
BLACK
6
CONTINUOUS
10
6.8080973622047241
20
-5.8635371259842515
11
6.8080973622047241
21
-5.8822848031496058
0
LINE
8
BLACK
6
CONTINUOUS
10
6.8080973622047241
20
-5.8822848031496058
11
6.8043478346456689
21
-5.8972829133858262
0
LINE
8
BLACK
6
CONTINUOUS
10
6.8043478346456689
20
-5.8972829133858262
11
6.8005983070866138
21
-5.9047819685039364
0
LINE
8
BLACK
6
CONTINUOUS
10
6.8005983070866138
20
-5.9047819685039364
11
6.7968487795275587
21
-5.9085315354330703
0
LINE
8
BLACK
6
CONTINUOUS
10
6.7968487795275587
20
-5.9085315354330703
11
6.7893497244094485
21
-5.9122810629921254
0
LINE
8
BLACK
6
CONTINUOUS
10
6.7893497244094485
20
-5.9122810629921254
11
6.7818506299212595
21
-5.9122810629921254
0
LINE
8
BLACK
6
CONTINUOUS
10
6.7818506299212595
20
-5.9122810629921254
11
6.7743515748031493
21
-5.9085315354330703
0
LINE
8
BLACK
6
CONTINUOUS
10
6.7743515748031493
20
-5.9085315354330703
11
6.7706020472440942
21
-5.9047819685039364
0
LINE
8
BLACK
6
CONTINUOUS
10
6.7706020472440942
20
-5.9047819685039364
11
6.7668525196850391
21
-5.8972829133858262
0
LINE
8
BLACK
6
CONTINUOUS
10
6.7668525196850391
20
-5.8972829133858262
11
6.763102992125984
21
-5.8822848031496058
0
LINE
8
BLACK
6
CONTINUOUS
10
6.763102992125984
20
-5.8822848031496058
11
6.763102992125984
21
-5.8635371259842515
0
LINE
8
BLACK
6
CONTINUOUS
10
6.763102992125984
20
-5.8635371259842515
11
6.7668525196850391
21
-5.848539015748031
0
LINE
8
BLACK
6
CONTINUOUS
10
6.7668525196850391
20
-5.848539015748031
11
6.7706020472440942
21
-5.8410399606299208
0
LINE
8
BLACK
6
CONTINUOUS
10
6.7706020472440942
20
-5.8410399606299208
11
6.7743515748031493
21
-5.8372904330708657
0
LINE
8
BLACK
6
CONTINUOUS
10
6.7743515748031493
20
-5.8372904330708657
11
6.7818506299212595
21
-5.8335409055118106
0
LINE
8
BLACK
6
CONTINUOUS
10
6.8455926771653539
20
-5.9122810629921254
11
6.8605907874015744
21
-5.9122810629921254
0
LINE
8
BLACK
6
CONTINUOUS
10
6.8605907874015744
20
-5.9122810629921254
11
6.8680898818897633
21
-5.9085315354330703
0
LINE
8
BLACK
6
CONTINUOUS
10
6.8680898818897633
20
-5.9085315354330703
11
6.8718394094488184
21
-5.9047819685039364
0
LINE
8
BLACK
6
CONTINUOUS
10
6.8718394094488184
20
-5.9047819685039364
11
6.8793384645669287
21
-5.8935333858267711
0
LINE
8
BLACK
6
CONTINUOUS
10
6.8793384645669287
20
-5.8935333858267711
11
6.8830879921259838
21
-5.8785352755905507
0
LINE
8
BLACK
6
CONTINUOUS
10
6.8830879921259838
20
-5.8785352755905507
11
6.8830879921259838
21
-5.848539015748031
0
LINE
8
BLACK
6
CONTINUOUS
10
6.8830879921259838
20
-5.848539015748031
11
6.8793384645669287
21
-5.8410399606299208
0
LINE
8
BLACK
6
CONTINUOUS
10
6.8793384645669287
20
-5.8410399606299208
11
6.8755889370078735
21
-5.8372904330708657
0
LINE
8
BLACK
6
CONTINUOUS
10
6.8755889370078735
20
-5.8372904330708657
11
6.8680898818897633
21
-5.8335409055118106
0
LINE
8
BLACK
6
CONTINUOUS
10
6.8680898818897633
20
-5.8335409055118106
11
6.8530917322834641
21
-5.8335409055118106
0
LINE
8
BLACK
6
CONTINUOUS
10
6.8530917322834641
20
-5.8335409055118106
11
6.8455926771653539
21
-5.8372904330708657
0
LINE
8
BLACK
6
CONTINUOUS
10
6.8455926771653539
20
-5.8372904330708657
11
6.8418431496062988
21
-5.8410399606299208
0
LINE
8
BLACK
6
CONTINUOUS
10
6.8418431496062988
20
-5.8410399606299208
11
6.8380936220472437
21
-5.848539015748031
0
LINE
8
BLACK
6
CONTINUOUS
10
6.8380936220472437
20
-5.848539015748031
11
6.8380936220472437
21
-5.8672866535433066
0
LINE
8
BLACK
6
CONTINUOUS
10
6.8380936220472437
20
-5.8672866535433066
11
6.8418431496062988
21
-5.8747857480314956
0
LINE
8
BLACK
6
CONTINUOUS
10
6.8418431496062988
20
-5.8747857480314956
11
6.8455926771653539
21
-5.8785352755905507
0
LINE
8
BLACK
6
CONTINUOUS
10
6.8455926771653539
20
-5.8785352755905507
11
6.8530917322834641
21
-5.8822848031496058
0
LINE
8
BLACK
6
CONTINUOUS
10
6.8530917322834641
20
-5.8822848031496058
11
6.8680898818897633
21
-5.8822848031496058
0
LINE
8
BLACK
6
CONTINUOUS
10
6.8680898818897633
20
-5.8822848031496058
11
6.8755889370078735
21
-5.8785352755905507
0
LINE
8
BLACK
6
CONTINUOUS
10
6.8755889370078735
20
-5.8785352755905507
11
6.8793384645669287
21
-5.8747857480314956
0
LINE
8
BLACK
6
CONTINUOUS
10
6.8793384645669287
20
-5.8747857480314956
11
6.8830879921259838
21
-5.8672866535433066
0
LINE
8
BLACK
6
CONTINUOUS
10
6.9130842519685034
20
-5.8335409055118106
11
6.9130842519685034
21
-5.848539015748031
0
LINE
8
BLACK
6
CONTINUOUS
10
6.943080511811023
20
-5.8335409055118106
11
6.943080511811023
21
-5.848539015748031
0
LINE
8
BLACK
6
CONTINUOUS
10
7.0593160236220474
20
-5.9422772834645672
11
7.0555664566929135
21
-5.9385277559055121
0
LINE
8
BLACK
6
CONTINUOUS
10
7.0555664566929135
20
-5.9385277559055121
11
7.0480674015748033
21
-5.9272791732283467
0
LINE
8
BLACK
6
CONTINUOUS
10
7.0480674015748033
20
-5.9272791732283467
11
7.0443178740157482
21
-5.9197801181102365
0
LINE
8
BLACK
6
CONTINUOUS
10
7.0443178740157482
20
-5.9197801181102365
11
7.040568346456693
21
-5.9085315354330703
0
LINE
8
BLACK
6
CONTINUOUS
10
7.040568346456693
20
-5.9085315354330703
11
7.0368188188976379
21
-5.889783858267716
0
LINE
8
BLACK
6
CONTINUOUS
10
7.0368188188976379
20
-5.889783858267716
11
7.0368188188976379
21
-5.8747857480314956
0
LINE
8
BLACK
6
CONTINUOUS
10
7.0368188188976379
20
-5.8747857480314956
11
7.040568346456693
21
-5.8560380708661413
0
LINE
8
BLACK
6
CONTINUOUS
10
7.040568346456693
20
-5.8560380708661413
11
7.0443178740157482
21
-5.8447894881889759
0
LINE
8
BLACK
6
CONTINUOUS
10
7.0443178740157482
20
-5.8447894881889759
11
7.0480674015748033
21
-5.8372904330708657
0
LINE
8
BLACK
6
CONTINUOUS
10
7.0480674015748033
20
-5.8372904330708657
11
7.0555664566929135
21
-5.8260418110236216
0
LINE
8
BLACK
6
CONTINUOUS
10
7.0555664566929135
20
-5.8260418110236216
11
7.0593160236220474
21
-5.8222922834645665
0
LINE
8
BLACK
6
CONTINUOUS
10
7.0855627165354331
20
-5.8410399606299208
11
7.0893122440944882
21
-5.8372904330708657
0
LINE
8
BLACK
6
CONTINUOUS
10
7.0893122440944882
20
-5.8372904330708657
11
7.0968112992125985
21
-5.8335409055118106
0
LINE
8
BLACK
6
CONTINUOUS
10
7.0968112992125985
20
-5.8335409055118106
11
7.1155589763779528
21
-5.8335409055118106
0
LINE
8
BLACK
6
CONTINUOUS
10
7.1155589763779528
20
-5.8335409055118106
11
7.123058031496063
21
-5.8372904330708657
0
LINE
8
BLACK
6
CONTINUOUS
10
7.123058031496063
20
-5.8372904330708657
11
7.1268075590551181
21
-5.8410399606299208
0
LINE
8
BLACK
6
CONTINUOUS
10
7.1268075590551181
20
-5.8410399606299208
11
7.1305570866141732
21
-5.848539015748031
0
LINE
8
BLACK
6
CONTINUOUS
10
7.1305570866141732
20
-5.848539015748031
11
7.1305570866141732
21
-5.8560380708661413
0
LINE
8
BLACK
6
CONTINUOUS
10
7.1305570866141732
20
-5.8560380708661413
11
7.1268075590551181
21
-5.8672866535433066
0
LINE
8
BLACK
6
CONTINUOUS
10
7.1268075590551181
20
-5.8672866535433066
11
7.081813188976378
21
-5.9122810629921254
0
LINE
8
BLACK
6
CONTINUOUS
10
7.081813188976378
20
-5.9122810629921254
11
7.1305570866141732
21
-5.9122810629921254
0
LINE
8
BLACK
6
CONTINUOUS
10
7.1793009842519684
20
-5.8335409055118106
11
7.1868000787401574
21
-5.8335409055118106
0
LINE
8
BLACK
6
CONTINUOUS
10
7.1868000787401574
20
-5.8335409055118106
11
7.1942991338582676
21
-5.8372904330708657
0
LINE
8
BLACK
6
CONTINUOUS
10
7.1942991338582676
20
-5.8372904330708657
11
7.1980486614173227
21
-5.8410399606299208
0
LINE
8
BLACK
6
CONTINUOUS
10
7.1980486614173227
20
-5.8410399606299208
11
7.2017981889763778
21
-5.848539015748031
0
LINE
8
BLACK
6
CONTINUOUS
10
7.2017981889763778
20
-5.848539015748031
11
7.2055477165354329
21
-5.8635371259842515
0
LINE
8
BLACK
6
CONTINUOUS
10
7.2055477165354329
20
-5.8635371259842515
11
7.2055477165354329
21
-5.8822848031496058
0
LINE
8
BLACK
6
CONTINUOUS
10
7.2055477165354329
20
-5.8822848031496058
11
7.2017981889763778
21
-5.8972829133858262
0
LINE
8
BLACK
6
CONTINUOUS
10
7.2017981889763778
20
-5.8972829133858262
11
7.1980486614173227
21
-5.9047819685039364
0
LINE
8
BLACK
6
CONTINUOUS
10
7.1980486614173227
20
-5.9047819685039364
11
7.1942991338582676
21
-5.9085315354330703
0
LINE
8
BLACK
6
CONTINUOUS
10
7.1942991338582676
20
-5.9085315354330703
11
7.1868000787401574
21
-5.9122810629921254
0
LINE
8
BLACK
6
CONTINUOUS
10
7.1868000787401574
20
-5.9122810629921254
11
7.1793009842519684
21
-5.9122810629921254
0
LINE
8
BLACK
6
CONTINUOUS
10
7.1793009842519684
20
-5.9122810629921254
11
7.1718019291338582
21
-5.9085315354330703
0
LINE
8
BLACK
6
CONTINUOUS
10
7.1718019291338582
20
-5.9085315354330703
11
7.1680524015748031
21
-5.9047819685039364
0
LINE
8
BLACK
6
CONTINUOUS
10
7.1680524015748031
20
-5.9047819685039364
11
7.1643028740157479
21
-5.8972829133858262
0
LINE
8
BLACK
6
CONTINUOUS
10
7.1643028740157479
20
-5.8972829133858262
11
7.1605533464566928
21
-5.8822848031496058
0
LINE
8
BLACK
6
CONTINUOUS
10
7.1605533464566928
20
-5.8822848031496058
11
7.1605533464566928
21
-5.8635371259842515
0
LINE
8
BLACK
6
CONTINUOUS
10
7.1605533464566928
20
-5.8635371259842515
11
7.1643028740157479
21
-5.848539015748031
0
LINE
8
BLACK
6
CONTINUOUS
10
7.1643028740157479
20
-5.848539015748031
11
7.1680524015748031
21
-5.8410399606299208
0
LINE
8
BLACK
6
CONTINUOUS
10
7.1680524015748031
20
-5.8410399606299208
11
7.1718019291338582
21
-5.8372904330708657
0
LINE
8
BLACK
6
CONTINUOUS
10
7.1718019291338582
20
-5.8372904330708657
11
7.1793009842519684
21
-5.8335409055118106
0
LINE
8
BLACK
6
CONTINUOUS
10
7.2992860236220469
20
-5.9122810629921254
11
7.2992860236220469
21
-5.8335409055118106
0
LINE
8
BLACK
6
CONTINUOUS
10
7.3330318110236217
20
-5.9122810629921254
11
7.3330318110236217
21
-5.8710362204724404
0
LINE
8
BLACK
6
CONTINUOUS
10
7.3330318110236217
20
-5.8710362204724404
11
7.3292822834645666
21
-5.8635371259842515
0
LINE
8
BLACK
6
CONTINUOUS
10
7.3292822834645666
20
-5.8635371259842515
11
7.3217832283464563
21
-5.8597875984251964
0
LINE
8
BLACK
6
CONTINUOUS
10
7.3217832283464563
20
-5.8597875984251964
11
7.3105346062992123
21
-5.8597875984251964
0
LINE
8
BLACK
6
CONTINUOUS
10
7.3105346062992123
20
-5.8597875984251964
11
7.303035551181102
21
-5.8635371259842515
0
LINE
8
BLACK
6
CONTINUOUS
10
7.303035551181102
20
-5.8635371259842515
11
7.2992860236220469
21
-5.8672866535433066
0
LINE
8
BLACK
6
CONTINUOUS
10
7.3817757086614169
20
-5.9122810629921254
11
7.3742766535433066
21
-5.9085315354330703
0
LINE
8
BLACK
6
CONTINUOUS
10
7.3742766535433066
20
-5.9085315354330703
11
7.3705271259842515
21
-5.9047819685039364
0
LINE
8
BLACK
6
CONTINUOUS
10
7.3705271259842515
20
-5.9047819685039364
11
7.3667775984251964
21
-5.8972829133858262
0
LINE
8
BLACK
6
CONTINUOUS
10
7.3667775984251964
20
-5.8972829133858262
11
7.3667775984251964
21
-5.8747857480314956
0
LINE
8
BLACK
6
CONTINUOUS
10
7.3667775984251964
20
-5.8747857480314956
11
7.3705271259842515
21
-5.8672866535433066
0
LINE
8
BLACK
6
CONTINUOUS
10
7.3705271259842515
20
-5.8672866535433066
11
7.3742766535433066
21
-5.8635371259842515
0
LINE
8
BLACK
6
CONTINUOUS
10
7.3742766535433066
20
-5.8635371259842515
11
7.3817757086614169
21
-5.8597875984251964
0
LINE
8
BLACK
6
CONTINUOUS
10
7.3817757086614169
20
-5.8597875984251964
11
7.3930243307086609
21
-5.8597875984251964
0
LINE
8
BLACK
6
CONTINUOUS
10
7.3930243307086609
20
-5.8597875984251964
11
7.4005233858267712
21
-5.8635371259842515
0
LINE
8
BLACK
6
CONTINUOUS
10
7.4005233858267712
20
-5.8635371259842515
11
7.4042729133858263
21
-5.8672866535433066
0
LINE
8
BLACK
6
CONTINUOUS
10
7.4042729133858263
20
-5.8672866535433066
11
7.4080224409448814
21
-5.8747857480314956
0
LINE
8
BLACK
6
CONTINUOUS
10
7.4080224409448814
20
-5.8747857480314956
11
7.4080224409448814
21
-5.8972829133858262
0
LINE
8
BLACK
6
CONTINUOUS
10
7.4080224409448814
20
-5.8972829133858262
11
7.4042729133858263
21
-5.9047819685039364
0
LINE
8
BLACK
6
CONTINUOUS
10
7.4042729133858263
20
-5.9047819685039364
11
7.4005233858267712
21
-5.9085315354330703
0
LINE
8
BLACK
6
CONTINUOUS
10
7.4005233858267712
20
-5.9085315354330703
11
7.3930243307086609
21
-5.9122810629921254
0
LINE
8
BLACK
6
CONTINUOUS
10
7.3930243307086609
20
-5.9122810629921254
11
7.3817757086614169
21
-5.9122810629921254
0
LINE
8
BLACK
6
CONTINUOUS
10
7.4530168110236215
20
-5.9122810629921254
11
7.4455177559055112
21
-5.9085315354330703
0
LINE
8
BLACK
6
CONTINUOUS
10
7.4455177559055112
20
-5.9085315354330703
11
7.4417682283464561
21
-5.9010324409448813
0
LINE
8
BLACK
6
CONTINUOUS
10
7.4417682283464561
20
-5.9010324409448813
11
7.4417682283464561
21
-5.8335409055118106
0
LINE
8
BLACK
6
CONTINUOUS
10
7.5130093307086616
20
-5.9085315354330703
11
7.5055102755905514
21
-5.9122810629921254
0
LINE
8
BLACK
6
CONTINUOUS
10
7.5055102755905514
20
-5.9122810629921254
11
7.4905121259842522
21
-5.9122810629921254
0
LINE
8
BLACK
6
CONTINUOUS
10
7.4905121259842522
20
-5.9122810629921254
11
7.483013070866142
21
-5.9085315354330703
0
LINE
8
BLACK
6
CONTINUOUS
10
7.483013070866142
20
-5.9085315354330703
11
7.4792635433070869
21
-5.9010324409448813
0
LINE
8
BLACK
6
CONTINUOUS
10
7.4792635433070869
20
-5.9010324409448813
11
7.4792635433070869
21
-5.8710362204724404
0
LINE
8
BLACK
6
CONTINUOUS
10
7.4792635433070869
20
-5.8710362204724404
11
7.483013070866142
21
-5.8635371259842515
0
LINE
8
BLACK
6
CONTINUOUS
10
7.483013070866142
20
-5.8635371259842515
11
7.4905121259842522
21
-5.8597875984251964
0
LINE
8
BLACK
6
CONTINUOUS
10
7.4905121259842522
20
-5.8597875984251964
11
7.5055102755905514
21
-5.8597875984251964
0
LINE
8
BLACK
6
CONTINUOUS
10
7.5055102755905514
20
-5.8597875984251964
11
7.5130093307086616
21
-5.8635371259842515
0
LINE
8
BLACK
6
CONTINUOUS
10
7.5130093307086616
20
-5.8635371259842515
11
7.5167588582677167
21
-5.8710362204724404
0
LINE
8
BLACK
6
CONTINUOUS
10
7.5167588582677167
20
-5.8710362204724404
11
7.5167588582677167
21
-5.8785352755905507
0
LINE
8
BLACK
6
CONTINUOUS
10
7.5167588582677167
20
-5.8785352755905507
11
7.4792635433070869
21
-5.8860343307086609
0
LINE
8
BLACK
6
CONTINUOUS
10
7.5467551181102364
20
-5.9085315354330703
11
7.5542541732283466
21
-5.9122810629921254
0
LINE
8
BLACK
6
CONTINUOUS
10
7.5542541732283466
20
-5.9122810629921254
11
7.569252283464567
21
-5.9122810629921254
0
LINE
8
BLACK
6
CONTINUOUS
10
7.569252283464567
20
-5.9122810629921254
11
7.576751377952756
21
-5.9085315354330703
0
LINE
8
BLACK
6
CONTINUOUS
10
7.576751377952756
20
-5.9085315354330703
11
7.5805009055118111
21
-5.9010324409448813
0
LINE
8
BLACK
6
CONTINUOUS
10
7.5805009055118111
20
-5.9010324409448813
11
7.5805009055118111
21
-5.8972829133858262
0
LINE
8
BLACK
6
CONTINUOUS
10
7.5805009055118111
20
-5.8972829133858262
11
7.576751377952756
21
-5.889783858267716
0
LINE
8
BLACK
6
CONTINUOUS
10
7.576751377952756
20
-5.889783858267716
11
7.569252283464567
21
-5.8860343307086609
0
LINE
8
BLACK
6
CONTINUOUS
10
7.569252283464567
20
-5.8860343307086609
11
7.5580037007874017
21
-5.8860343307086609
0
LINE
8
BLACK
6
CONTINUOUS
10
7.5580037007874017
20
-5.8860343307086609
11
7.5505046456692915
21
-5.8822848031496058
0
LINE
8
BLACK
6
CONTINUOUS
10
7.5505046456692915
20
-5.8822848031496058
11
7.5467551181102364
21
-5.8747857480314956
0
LINE
8
BLACK
6
CONTINUOUS
10
7.5467551181102364
20
-5.8747857480314956
11
7.5467551181102364
21
-5.8710362204724404
0
LINE
8
BLACK
6
CONTINUOUS
10
7.5467551181102364
20
-5.8710362204724404
11
7.5505046456692915
21
-5.8635371259842515
0
LINE
8
BLACK
6
CONTINUOUS
10
7.5505046456692915
20
-5.8635371259842515
11
7.5580037007874017
21
-5.8597875984251964
0
LINE
8
BLACK
6
CONTINUOUS
10
7.5580037007874017
20
-5.8597875984251964
11
7.569252283464567
21
-5.8597875984251964
0
LINE
8
BLACK
6
CONTINUOUS
10
7.569252283464567
20
-5.8597875984251964
11
7.576751377952756
21
-5.8635371259842515
0
LINE
8
BLACK
6
CONTINUOUS
10
7.6067476377952756
20
-5.9422772834645672
11
7.6104971653543307
21
-5.9385277559055121
0
LINE
8
BLACK
6
CONTINUOUS
10
7.6104971653543307
20
-5.9385277559055121
11
7.617996220472441
21
-5.9272791732283467
0
LINE
8
BLACK
6
CONTINUOUS
10
7.617996220472441
20
-5.9272791732283467
11
7.6217457480314961
21
-5.9197801181102365
0
LINE
8
BLACK
6
CONTINUOUS
10
7.6217457480314961
20
-5.9197801181102365
11
7.6254952755905512
21
-5.9085315354330703
0
LINE
8
BLACK
6
CONTINUOUS
10
7.6254952755905512
20
-5.9085315354330703
11
7.6292448031496063
21
-5.889783858267716
0
LINE
8
BLACK
6
CONTINUOUS
10
7.6292448031496063
20
-5.889783858267716
11
7.6292448031496063
21
-5.8747857480314956
0
LINE
8
BLACK
6
CONTINUOUS
10
7.6292448031496063
20
-5.8747857480314956
11
7.6254952755905512
21
-5.8560380708661413
0
LINE
8
BLACK
6
CONTINUOUS
10
7.6254952755905512
20
-5.8560380708661413
11
7.6217457480314961
21
-5.8447894881889759
0
LINE
8
BLACK
6
CONTINUOUS
10
7.6217457480314961
20
-5.8447894881889759
11
7.617996220472441
21
-5.8372904330708657
0
LINE
8
BLACK
6
CONTINUOUS
10
7.617996220472441
20
-5.8372904330708657
11
7.6104971653543307
21
-5.8260418110236216
0
LINE
8
BLACK
6
CONTINUOUS
10
7.6104971653543307
20
-5.8260418110236216
11
7.6067476377952756
21
-5.8222922834645665
0
LINE
8
BLACK
6
CONTINUOUS
10
5.612440866141732
20
-5.9550039763779523
11
5.612440866141732
21
-6.033744133858268
0
LINE
8
BLACK
6
CONTINUOUS
10
5.5730707874015746
20
-5.9943740551181097
11
5.6518109448818894
21
-5.9943740551181097
0
LINE
8
BLACK
6
CONTINUOUS
10
5.7507294488188974
20
-5.9591501968503939
11
5.7544789763779525
21
-5.9554006692913388
0
LINE
8
BLACK
6
CONTINUOUS
10
5.7544789763779525
20
-5.9554006692913388
11
5.7619780314960627
21
-5.9516511417322837
0
LINE
8
BLACK
6
CONTINUOUS
10
5.7619780314960627
20
-5.9516511417322837
11
5.780725708661417
21
-5.9516511417322837
0
LINE
8
BLACK
6
CONTINUOUS
10
5.780725708661417
20
-5.9516511417322837
11
5.7882247637795272
21
-5.9554006692913388
0
LINE
8
BLACK
6
CONTINUOUS
10
5.7882247637795272
20
-5.9554006692913388
11
5.7919742913385823
21
-5.9591501968503939
0
LINE
8
BLACK
6
CONTINUOUS
10
5.7919742913385823
20
-5.9591501968503939
11
5.7957238188976374
21
-5.9666492519685042
0
LINE
8
BLACK
6
CONTINUOUS
10
5.7957238188976374
20
-5.9666492519685042
11
5.7957238188976374
21
-5.9741483070866144
0
LINE
8
BLACK
6
CONTINUOUS
10
5.7957238188976374
20
-5.9741483070866144
11
5.7919742913385823
21
-5.9853968897637797
0
LINE
8
BLACK
6
CONTINUOUS
10
5.7919742913385823
20
-5.9853968897637797
11
5.7469799212598422
21
-6.0303912992125985
0
LINE
8
BLACK
6
CONTINUOUS
10
5.7469799212598422
20
-6.0303912992125985
11
5.7957238188976374
21
-6.0303912992125985
0
LINE
8
BLACK
6
CONTINUOUS
10
5.8294696062992122
20
-6.0228922047244096
11
5.8332191338582673
21
-6.0266417716535434
0
LINE
8
BLACK
6
CONTINUOUS
10
5.8332191338582673
20
-6.0266417716535434
11
5.8294696062992122
21
-6.0303912992125985
0
LINE
8
BLACK
6
CONTINUOUS
10
5.8294696062992122
20
-6.0303912992125985
11
5.8257200787401571
21
-6.0266417716535434
0
LINE
8
BLACK
6
CONTINUOUS
10
5.8257200787401571
20
-6.0266417716535434
11
5.8294696062992122
21
-6.0228922047244096
0
LINE
8
BLACK
6
CONTINUOUS
10
5.8294696062992122
20
-6.0228922047244096
11
5.8294696062992122
21
-6.0303912992125985
0
LINE
8
BLACK
6
CONTINUOUS
10
5.908209763779527
20
-6.0303912992125985
11
5.8632153937007869
21
-6.0303912992125985
0
LINE
8
BLACK
6
CONTINUOUS
10
5.8857125590551176
20
-6.0303912992125985
11
5.8857125590551176
21
-5.9516511417322837
0
LINE
8
BLACK
6
CONTINUOUS
10
5.8857125590551176
20
-5.9516511417322837
11
5.8782135039370074
21
-5.962899724409449
0
LINE
8
BLACK
6
CONTINUOUS
10
5.8782135039370074
20
-5.962899724409449
11
5.8707144488188971
21
-5.9703987795275593
0
LINE
8
BLACK
6
CONTINUOUS
10
5.8707144488188971
20
-5.9703987795275593
11
5.8632153937007869
21
-5.9741483070866144
0
LINE
8
BLACK
6
CONTINUOUS
10
5.9569536614173231
20
-5.9516511417322837
11
5.964452755905512
21
-5.9516511417322837
0
LINE
8
BLACK
6
CONTINUOUS
10
5.964452755905512
20
-5.9516511417322837
11
5.9719518110236223
21
-5.9554006692913388
0
LINE
8
BLACK
6
CONTINUOUS
10
5.9719518110236223
20
-5.9554006692913388
11
5.9757013385826774
21
-5.9591501968503939
0
LINE
8
BLACK
6
CONTINUOUS
10
5.9757013385826774
20
-5.9591501968503939
11
5.9794508661417325
21
-5.9666492519685042
0
LINE
8
BLACK
6
CONTINUOUS
10
5.9794508661417325
20
-5.9666492519685042
11
5.9832003937007876
21
-5.9816473622047246
0
LINE
8
BLACK
6
CONTINUOUS
10
5.9832003937007876
20
-5.9816473622047246
11
5.9832003937007876
21
-6.0003950393700789
0
LINE
8
BLACK
6
CONTINUOUS
10
5.9832003937007876
20
-6.0003950393700789
11
5.9794508661417325
21
-6.0153931496062993
0
LINE
8
BLACK
6
CONTINUOUS
10
5.9794508661417325
20
-6.0153931496062993
11
5.9757013385826774
21
-6.0228922047244096
0
LINE
8
BLACK
6
CONTINUOUS
10
5.9757013385826774
20
-6.0228922047244096
11
5.9719518110236223
21
-6.0266417716535434
0
LINE
8
BLACK
6
CONTINUOUS
10
5.9719518110236223
20
-6.0266417716535434
11
5.964452755905512
21
-6.0303912992125985
0
LINE
8
BLACK
6
CONTINUOUS
10
5.964452755905512
20
-6.0303912992125985
11
5.9569536614173231
21
-6.0303912992125985
0
LINE
8
BLACK
6
CONTINUOUS
10
5.9569536614173231
20
-6.0303912992125985
11
5.9494546062992129
21
-6.0266417716535434
0
LINE
8
BLACK
6
CONTINUOUS
10
5.9494546062992129
20
-6.0266417716535434
11
5.9457050787401577
21
-6.0228922047244096
0
LINE
8
BLACK
6
CONTINUOUS
10
5.9457050787401577
20
-6.0228922047244096
11
5.9419555511811026
21
-6.0153931496062993
0
LINE
8
BLACK
6
CONTINUOUS
10
5.9419555511811026
20
-6.0153931496062993
11
5.9382060236220475
21
-6.0003950393700789
0
LINE
8
BLACK
6
CONTINUOUS
10
5.9382060236220475
20
-6.0003950393700789
11
5.9382060236220475
21
-5.9816473622047246
0
LINE
8
BLACK
6
CONTINUOUS
10
5.9382060236220475
20
-5.9816473622047246
11
5.9419555511811026
21
-5.9666492519685042
0
LINE
8
BLACK
6
CONTINUOUS
10
5.9419555511811026
20
-5.9666492519685042
11
5.9457050787401577
21
-5.9591501968503939
0
LINE
8
BLACK
6
CONTINUOUS
10
5.9457050787401577
20
-5.9591501968503939
11
5.9494546062992129
21
-5.9554006692913388
0
LINE
8
BLACK
6
CONTINUOUS
10
5.9494546062992129
20
-5.9554006692913388
11
5.9569536614173231
21
-5.9516511417322837
0
LINE
8
BLACK
6
CONTINUOUS
10
6.0281947637795277
20
-5.9853968897637797
11
6.0206957086614175
21
-5.9816473622047246
0
LINE
8
BLACK
6
CONTINUOUS
10
6.0206957086614175
20
-5.9816473622047246
11
6.0169461811023623
21
-5.9778978346456695
0
LINE
8
BLACK
6
CONTINUOUS
10
6.0169461811023623
20
-5.9778978346456695
11
6.0131966535433072
21
-5.9703987795275593
0
LINE
8
BLACK
6
CONTINUOUS
10
6.0131966535433072
20
-5.9703987795275593
11
6.0131966535433072
21
-5.9666492519685042
0
LINE
8
BLACK
6
CONTINUOUS
10
6.0131966535433072
20
-5.9666492519685042
11
6.0169461811023623
21
-5.9591501968503939
0
LINE
8
BLACK
6
CONTINUOUS
10
6.0169461811023623
20
-5.9591501968503939
11
6.0206957086614175
21
-5.9554006692913388
0
LINE
8
BLACK
6
CONTINUOUS
10
6.0206957086614175
20
-5.9554006692913388
11
6.0281947637795277
21
-5.9516511417322837
0
LINE
8
BLACK
6
CONTINUOUS
10
6.0281947637795277
20
-5.9516511417322837
11
6.0431929133858269
21
-5.9516511417322837
0
LINE
8
BLACK
6
CONTINUOUS
10
6.0431929133858269
20
-5.9516511417322837
11
6.0506919685039371
21
-5.9554006692913388
0
LINE
8
BLACK
6
CONTINUOUS
10
6.0506919685039371
20
-5.9554006692913388
11
6.0544414960629922
21
-5.9591501968503939
0
LINE
8
BLACK
6
CONTINUOUS
10
6.0544414960629922
20
-5.9591501968503939
11
6.0581910236220473
21
-5.9666492519685042
0
LINE
8
BLACK
6
CONTINUOUS
10
6.0581910236220473
20
-5.9666492519685042
11
6.0581910236220473
21
-5.9703987795275593
0
LINE
8
BLACK
6
CONTINUOUS
10
6.0581910236220473
20
-5.9703987795275593
11
6.0544414960629922
21
-5.9778978346456695
0
LINE
8
BLACK
6
CONTINUOUS
10
6.0544414960629922
20
-5.9778978346456695
11
6.0506919685039371
21
-5.9816473622047246
0
LINE
8
BLACK
6
CONTINUOUS
10
6.0506919685039371
20
-5.9816473622047246
11
6.0431929133858269
21
-5.9853968897637797
0
LINE
8
BLACK
6
CONTINUOUS
10
6.0431929133858269
20
-5.9853968897637797
11
6.0281947637795277
21
-5.9853968897637797
0
LINE
8
BLACK
6
CONTINUOUS
10
6.0281947637795277
20
-5.9853968897637797
11
6.0206957086614175
21
-5.9891464566929136
0
LINE
8
BLACK
6
CONTINUOUS
10
6.0206957086614175
20
-5.9891464566929136
11
6.0169461811023623
21
-5.9928959842519687
0
LINE
8
BLACK
6
CONTINUOUS
10
6.0169461811023623
20
-5.9928959842519687
11
6.0131966535433072
21
-6.0003950393700789
0
LINE
8
BLACK
6
CONTINUOUS
10
6.0131966535433072
20
-6.0003950393700789
11
6.0131966535433072
21
-6.0153931496062993
0
LINE
8
BLACK
6
CONTINUOUS
10
6.0131966535433072
20
-6.0153931496062993
11
6.0169461811023623
21
-6.0228922047244096
0
LINE
8
BLACK
6
CONTINUOUS
10
6.0169461811023623
20
-6.0228922047244096
11
6.0206957086614175
21
-6.0266417716535434
0
LINE
8
BLACK
6
CONTINUOUS
10
6.0206957086614175
20
-6.0266417716535434
11
6.0281947637795277
21
-6.0303912992125985
0
LINE
8
BLACK
6
CONTINUOUS
10
6.0281947637795277
20
-6.0303912992125985
11
6.0431929133858269
21
-6.0303912992125985
0
LINE
8
BLACK
6
CONTINUOUS
10
6.0431929133858269
20
-6.0303912992125985
11
6.0506919685039371
21
-6.0266417716535434
0
LINE
8
BLACK
6
CONTINUOUS
10
6.0506919685039371
20
-6.0266417716535434
11
6.0544414960629922
21
-6.0228922047244096
0
LINE
8
BLACK
6
CONTINUOUS
10
6.0544414960629922
20
-6.0228922047244096
11
6.0581910236220473
21
-6.0153931496062993
0
LINE
8
BLACK
6
CONTINUOUS
10
6.0581910236220473
20
-6.0153931496062993
11
6.0581910236220473
21
-6.0003950393700789
0
LINE
8
BLACK
6
CONTINUOUS
10
6.0581910236220473
20
-6.0003950393700789
11
6.0544414960629922
21
-5.9928959842519687
0
LINE
8
BLACK
6
CONTINUOUS
10
6.0544414960629922
20
-5.9928959842519687
11
6.0506919685039371
21
-5.9891464566929136
0
LINE
8
BLACK
6
CONTINUOUS
10
6.0506919685039371
20
-5.9891464566929136
11
6.0431929133858269
21
-5.9853968897637797
0
LINE
8
BLACK
6
CONTINUOUS
10
6.0919368110236221
20
-6.0303912992125985
11
6.0919368110236221
21
-5.9778978346456695
0
LINE
8
BLACK
6
CONTINUOUS
10
6.0919368110236221
20
-5.9853968897637797
11
6.0956863385826772
21
-5.9816473622047246
0
LINE
8
BLACK
6
CONTINUOUS
10
6.0956863385826772
20
-5.9816473622047246
11
6.1031853937007874
21
-5.9778978346456695
0
LINE
8
BLACK
6
CONTINUOUS
10
6.1031853937007874
20
-5.9778978346456695
11
6.1144340157480315
21
-5.9778978346456695
0
LINE
8
BLACK
6
CONTINUOUS
10
6.1144340157480315
20
-5.9778978346456695
11
6.1219330708661417
21
-5.9816473622047246
0
LINE
8
BLACK
6
CONTINUOUS
10
6.1219330708661417
20
-5.9816473622047246
11
6.1256825984251968
21
-5.9891464566929136
0
LINE
8
BLACK
6
CONTINUOUS
10
6.1256825984251968
20
-5.9891464566929136
11
6.1256825984251968
21
-6.0303912992125985
0
LINE
8
BLACK
6
CONTINUOUS
10
6.1256825984251968
20
-5.9891464566929136
11
6.1294321259842519
21
-5.9816473622047246
0
LINE
8
BLACK
6
CONTINUOUS
10
6.1294321259842519
20
-5.9816473622047246
11
6.1369311811023621
21
-5.9778978346456695
0
LINE
8
BLACK
6
CONTINUOUS
10
6.1369311811023621
20
-5.9778978346456695
11
6.1481797637795275
21
-5.9778978346456695
0
LINE
8
BLACK
6
CONTINUOUS
10
6.1481797637795275
20
-5.9778978346456695
11
6.1556788582677164
21
-5.9816473622047246
0
LINE
8
BLACK
6
CONTINUOUS
10
6.1556788582677164
20
-5.9816473622047246
11
6.1594283858267715
21
-5.9891464566929136
0
LINE
8
BLACK
6
CONTINUOUS
10
6.1594283858267715
20
-5.9891464566929136
11
6.1594283858267715
21
-6.0303912992125985
0
LINE
8
BLACK
6
CONTINUOUS
10
6.1969237007874014
20
-6.0303912992125985
11
6.1969237007874014
21
-5.9778978346456695
0
LINE
8
BLACK
6
CONTINUOUS
10
6.1969237007874014
20
-5.9853968897637797
11
6.2006732283464565
21
-5.9816473622047246
0
LINE
8
BLACK
6
CONTINUOUS
10
6.2006732283464565
20
-5.9816473622047246
11
6.2081722834645667
21
-5.9778978346456695
0
LINE
8
BLACK
6
CONTINUOUS
10
6.2081722834645667
20
-5.9778978346456695
11
6.2194209055118108
21
-5.9778978346456695
0
LINE
8
BLACK
6
CONTINUOUS
10
6.2194209055118108
20
-5.9778978346456695
11
6.226919960629921
21
-5.9816473622047246
0
LINE
8
BLACK
6
CONTINUOUS
10
6.226919960629921
20
-5.9816473622047246
11
6.2306694881889761
21
-5.9891464566929136
0
LINE
8
BLACK
6
CONTINUOUS
10
6.2306694881889761
20
-5.9891464566929136
11
6.2306694881889761
21
-6.0303912992125985
0
LINE
8
BLACK
6
CONTINUOUS
10
6.2306694881889761
20
-5.9891464566929136
11
6.2344190157480313
21
-5.9816473622047246
0
LINE
8
BLACK
6
CONTINUOUS
10
6.2344190157480313
20
-5.9816473622047246
11
6.2419180708661415
21
-5.9778978346456695
0
LINE
8
BLACK
6
CONTINUOUS
10
6.2419180708661415
20
-5.9778978346456695
11
6.2531666535433068
21
-5.9778978346456695
0
LINE
8
BLACK
6
CONTINUOUS
10
6.2531666535433068
20
-5.9778978346456695
11
6.2606657480314958
21
-5.9816473622047246
0
LINE
8
BLACK
6
CONTINUOUS
10
6.2606657480314958
20
-5.9816473622047246
11
6.2644152755905509
21
-5.9891464566929136
0
LINE
8
BLACK
6
CONTINUOUS
10
6.2644152755905509
20
-5.9891464566929136
11
6.2644152755905509
21
-6.0303912992125985
0
LINE
8
BLACK
6
CONTINUOUS
10
6.4181460629921254
20
-5.9479016141732286
11
6.3506545275590547
21
-6.0491389370078741
0
LINE
8
BLACK
6
CONTINUOUS
10
6.5193834251968505
20
-5.9516511417322837
11
6.5268825196850395
21
-5.9516511417322837
0
LINE
8
BLACK
6
CONTINUOUS
10
6.5268825196850395
20
-5.9516511417322837
11
6.5343815748031497
21
-5.9554006692913388
0
LINE
8
BLACK
6
CONTINUOUS
10
6.5343815748031497
20
-5.9554006692913388
11
6.5381311023622048
21
-5.9591501968503939
0
LINE
8
BLACK
6
CONTINUOUS
10
6.5381311023622048
20
-5.9591501968503939
11
6.54188062992126
21
-5.9666492519685042
0
LINE
8
BLACK
6
CONTINUOUS
10
6.54188062992126
20
-5.9666492519685042
11
6.5456301574803151
21
-5.9816473622047246
0
LINE
8
BLACK
6
CONTINUOUS
10
6.5456301574803151
20
-5.9816473622047246
11
6.5456301574803151
21
-6.0003950393700789
0
LINE
8
BLACK
6
CONTINUOUS
10
6.5456301574803151
20
-6.0003950393700789
11
6.54188062992126
21
-6.0153931496062993
0
LINE
8
BLACK
6
CONTINUOUS
10
6.54188062992126
20
-6.0153931496062993
11
6.5381311023622048
21
-6.0228922047244096
0
LINE
8
BLACK
6
CONTINUOUS
10
6.5381311023622048
20
-6.0228922047244096
11
6.5343815748031497
21
-6.0266417716535434
0
LINE
8
BLACK
6
CONTINUOUS
10
6.5343815748031497
20
-6.0266417716535434
11
6.5268825196850395
21
-6.0303912992125985
0
LINE
8
BLACK
6
CONTINUOUS
10
6.5268825196850395
20
-6.0303912992125985
11
6.5193834251968505
21
-6.0303912992125985
0
LINE
8
BLACK
6
CONTINUOUS
10
6.5193834251968505
20
-6.0303912992125985
11
6.5118843700787403
21
-6.0266417716535434
0
LINE
8
BLACK
6
CONTINUOUS
10
6.5118843700787403
20
-6.0266417716535434
11
6.5081348425196852
21
-6.0228922047244096
0
LINE
8
BLACK
6
CONTINUOUS
10
6.5081348425196852
20
-6.0228922047244096
11
6.5043853149606301
21
-6.0153931496062993
0
LINE
8
BLACK
6
CONTINUOUS
10
6.5043853149606301
20
-6.0153931496062993
11
6.500635787401575
21
-6.0003950393700789
0
LINE
8
BLACK
6
CONTINUOUS
10
6.500635787401575
20
-6.0003950393700789
11
6.500635787401575
21
-5.9816473622047246
0
LINE
8
BLACK
6
CONTINUOUS
10
6.500635787401575
20
-5.9816473622047246
11
6.5043853149606301
21
-5.9666492519685042
0
LINE
8
BLACK
6
CONTINUOUS
10
6.5043853149606301
20
-5.9666492519685042
11
6.5081348425196852
21
-5.9591501968503939
0
LINE
8
BLACK
6
CONTINUOUS
10
6.5081348425196852
20
-5.9591501968503939
11
6.5118843700787403
21
-5.9554006692913388
0
LINE
8
BLACK
6
CONTINUOUS
10
6.5118843700787403
20
-5.9554006692913388
11
6.5193834251968505
21
-5.9516511417322837
0
LINE
8
BLACK
6
CONTINUOUS
10
6.5793759448818898
20
-6.0228922047244096
11
6.5831254724409449
21
-6.0266417716535434
0
LINE
8
BLACK
6
CONTINUOUS
10
6.5831254724409449
20
-6.0266417716535434
11
6.5793759448818898
21
-6.0303912992125985
0
LINE
8
BLACK
6
CONTINUOUS
10
6.5793759448818898
20
-6.0303912992125985
11
6.5756264173228347
21
-6.0266417716535434
0
LINE
8
BLACK
6
CONTINUOUS
10
6.5756264173228347
20
-6.0266417716535434
11
6.5793759448818898
21
-6.0228922047244096
0
LINE
8
BLACK
6
CONTINUOUS
10
6.5793759448818898
20
-6.0228922047244096
11
6.5793759448818898
21
-6.0303912992125985
0
LINE
8
BLACK
6
CONTINUOUS
10
6.6318693700787401
20
-5.9516511417322837
11
6.6393684645669291
21
-5.9516511417322837
0
LINE
8
BLACK
6
CONTINUOUS
10
6.6393684645669291
20
-5.9516511417322837
11
6.6468675196850393
21
-5.9554006692913388
0
LINE
8
BLACK
6
CONTINUOUS
10
6.6468675196850393
20
-5.9554006692913388
11
6.6506170472440944
21
-5.9591501968503939
0
LINE
8
BLACK
6
CONTINUOUS
10
6.6506170472440944
20
-5.9591501968503939
11
6.6543665748031495
21
-5.9666492519685042
0
LINE
8
BLACK
6
CONTINUOUS
10
6.6543665748031495
20
-5.9666492519685042
11
6.6581161023622046
21
-5.9816473622047246
0
LINE
8
BLACK
6
CONTINUOUS
10
6.6581161023622046
20
-5.9816473622047246
11
6.6581161023622046
21
-6.0003950393700789
0
LINE
8
BLACK
6
CONTINUOUS
10
6.6581161023622046
20
-6.0003950393700789
11
6.6543665748031495
21
-6.0153931496062993
0
LINE
8
BLACK
6
CONTINUOUS
10
6.6543665748031495
20
-6.0153931496062993
11
6.6506170472440944
21
-6.0228922047244096
0
LINE
8
BLACK
6
CONTINUOUS
10
6.6506170472440944
20
-6.0228922047244096
11
6.6468675196850393
21
-6.0266417716535434
0
LINE
8
BLACK
6
CONTINUOUS
10
6.6468675196850393
20
-6.0266417716535434
11
6.6393684645669291
21
-6.0303912992125985
0
LINE
8
BLACK
6
CONTINUOUS
10
6.6393684645669291
20
-6.0303912992125985
11
6.6318693700787401
21
-6.0303912992125985
0
LINE
8
BLACK
6
CONTINUOUS
10
6.6318693700787401
20
-6.0303912992125985
11
6.6243703149606299
21
-6.0266417716535434
0
LINE
8
BLACK
6
CONTINUOUS
10
6.6243703149606299
20
-6.0266417716535434
11
6.6206207874015748
21
-6.0228922047244096
0
LINE
8
BLACK
6
CONTINUOUS
10
6.6206207874015748
20
-6.0228922047244096
11
6.6168712598425197
21
-6.0153931496062993
0
LINE
8
BLACK
6
CONTINUOUS
10
6.6168712598425197
20
-6.0153931496062993
11
6.6131217322834646
21
-6.0003950393700789
0
LINE
8
BLACK
6
CONTINUOUS
10
6.6131217322834646
20
-6.0003950393700789
11
6.6131217322834646
21
-5.9816473622047246
0
LINE
8
BLACK
6
CONTINUOUS
10
6.6131217322834646
20
-5.9816473622047246
11
6.6168712598425197
21
-5.9666492519685042
0
LINE
8
BLACK
6
CONTINUOUS
10
6.6168712598425197
20
-5.9666492519685042
11
6.6206207874015748
21
-5.9591501968503939
0
LINE
8
BLACK
6
CONTINUOUS
10
6.6206207874015748
20
-5.9591501968503939
11
6.6243703149606299
21
-5.9554006692913388
0
LINE
8
BLACK
6
CONTINUOUS
10
6.6243703149606299
20
-5.9554006692913388
11
6.6318693700787401
21
-5.9516511417322837
0
LINE
8
BLACK
6
CONTINUOUS
10
6.7031104724409447
20
-5.9853968897637797
11
6.6956114173228345
21
-5.9816473622047246
0
LINE
8
BLACK
6
CONTINUOUS
10
6.6956114173228345
20
-5.9816473622047246
11
6.6918618897637794
21
-5.9778978346456695
0
LINE
8
BLACK
6
CONTINUOUS
10
6.6918618897637794
20
-5.9778978346456695
11
6.6881123622047243
21
-5.9703987795275593
0
LINE
8
BLACK
6
CONTINUOUS
10
6.6881123622047243
20
-5.9703987795275593
11
6.6881123622047243
21
-5.9666492519685042
0
LINE
8
BLACK
6
CONTINUOUS
10
6.6881123622047243
20
-5.9666492519685042
11
6.6918618897637794
21
-5.9591501968503939
0
LINE
8
BLACK
6
CONTINUOUS
10
6.6918618897637794
20
-5.9591501968503939
11
6.6956114173228345
21
-5.9554006692913388
0
LINE
8
BLACK
6
CONTINUOUS
10
6.6956114173228345
20
-5.9554006692913388
11
6.7031104724409447
21
-5.9516511417322837
0
LINE
8
BLACK
6
CONTINUOUS
10
6.7031104724409447
20
-5.9516511417322837
11
6.7181086220472439
21
-5.9516511417322837
0
LINE
8
BLACK
6
CONTINUOUS
10
6.7181086220472439
20
-5.9516511417322837
11
6.7256076771653541
21
-5.9554006692913388
0
LINE
8
BLACK
6
CONTINUOUS
10
6.7256076771653541
20
-5.9554006692913388
11
6.7293572047244092
21
-5.9591501968503939
0
LINE
8
BLACK
6
CONTINUOUS
10
6.7293572047244092
20
-5.9591501968503939
11
6.7331067322834643
21
-5.9666492519685042
0
LINE
8
BLACK
6
CONTINUOUS
10
6.7331067322834643
20
-5.9666492519685042
11
6.7331067322834643
21
-5.9703987795275593
0
LINE
8
BLACK
6
CONTINUOUS
10
6.7331067322834643
20
-5.9703987795275593
11
6.7293572047244092
21
-5.9778978346456695
0
LINE
8
BLACK
6
CONTINUOUS
10
6.7293572047244092
20
-5.9778978346456695
11
6.7256076771653541
21
-5.9816473622047246
0
LINE
8
BLACK
6
CONTINUOUS
10
6.7256076771653541
20
-5.9816473622047246
11
6.7181086220472439
21
-5.9853968897637797
0
LINE
8
BLACK
6
CONTINUOUS
10
6.7181086220472439
20
-5.9853968897637797
11
6.7031104724409447
21
-5.9853968897637797
0
LINE
8
BLACK
6
CONTINUOUS
10
6.7031104724409447
20
-5.9853968897637797
11
6.6956114173228345
21
-5.9891464566929136
0
LINE
8
BLACK
6
CONTINUOUS
10
6.6956114173228345
20
-5.9891464566929136
11
6.6918618897637794
21
-5.9928959842519687
0
LINE
8
BLACK
6
CONTINUOUS
10
6.6918618897637794
20
-5.9928959842519687
11
6.6881123622047243
21
-6.0003950393700789
0
LINE
8
BLACK
6
CONTINUOUS
10
6.6881123622047243
20
-6.0003950393700789
11
6.6881123622047243
21
-6.0153931496062993
0
LINE
8
BLACK
6
CONTINUOUS
10
6.6881123622047243
20
-6.0153931496062993
11
6.6918618897637794
21
-6.0228922047244096
0
LINE
8
BLACK
6
CONTINUOUS
10
6.6918618897637794
20
-6.0228922047244096
11
6.6956114173228345
21
-6.0266417716535434
0
LINE
8
BLACK
6
CONTINUOUS
10
6.6956114173228345
20
-6.0266417716535434
11
6.7031104724409447
21
-6.0303912992125985
0
LINE
8
BLACK
6
CONTINUOUS
10
6.7031104724409447
20
-6.0303912992125985
11
6.7181086220472439
21
-6.0303912992125985
0
LINE
8
BLACK
6
CONTINUOUS
10
6.7181086220472439
20
-6.0303912992125985
11
6.7256076771653541
21
-6.0266417716535434
0
LINE
8
BLACK
6
CONTINUOUS
10
6.7256076771653541
20
-6.0266417716535434
11
6.7293572047244092
21
-6.0228922047244096
0
LINE
8
BLACK
6
CONTINUOUS
10
6.7293572047244092
20
-6.0228922047244096
11
6.7331067322834643
21
-6.0153931496062993
0
LINE
8
BLACK
6
CONTINUOUS
10
6.7331067322834643
20
-6.0153931496062993
11
6.7331067322834643
21
-6.0003950393700789
0
LINE
8
BLACK
6
CONTINUOUS
10
6.7331067322834643
20
-6.0003950393700789
11
6.7293572047244092
21
-5.9928959842519687
0
LINE
8
BLACK
6
CONTINUOUS
10
6.7293572047244092
20
-5.9928959842519687
11
6.7256076771653541
21
-5.9891464566929136
0
LINE
8
BLACK
6
CONTINUOUS
10
6.7256076771653541
20
-5.9891464566929136
11
6.7181086220472439
21
-5.9853968897637797
0
LINE
8
BLACK
6
CONTINUOUS
10
6.7593534645669289
20
-5.9516511417322837
11
6.8080973622047241
21
-5.9516511417322837
0
LINE
8
BLACK
6
CONTINUOUS
10
6.8080973622047241
20
-5.9516511417322837
11
6.7818506299212595
21
-5.9816473622047246
0
LINE
8
BLACK
6
CONTINUOUS
10
6.7818506299212595
20
-5.9816473622047246
11
6.7930992519685036
21
-5.9816473622047246
0
LINE
8
BLACK
6
CONTINUOUS
10
6.7930992519685036
20
-5.9816473622047246
11
6.8005983070866138
21
-5.9853968897637797
0
LINE
8
BLACK
6
CONTINUOUS
10
6.8005983070866138
20
-5.9853968897637797
11
6.8043478346456689
21
-5.9891464566929136
0
LINE
8
BLACK
6
CONTINUOUS
10
6.8043478346456689
20
-5.9891464566929136
11
6.8080973622047241
21
-5.9966455118110238
0
LINE
8
BLACK
6
CONTINUOUS
10
6.8080973622047241
20
-5.9966455118110238
11
6.8080973622047241
21
-6.0153931496062993
0
LINE
8
BLACK
6
CONTINUOUS
10
6.8080973622047241
20
-6.0153931496062993
11
6.8043478346456689
21
-6.0228922047244096
0
LINE
8
BLACK
6
CONTINUOUS
10
6.8043478346456689
20
-6.0228922047244096
11
6.8005983070866138
21
-6.0266417716535434
0
LINE
8
BLACK
6
CONTINUOUS
10
6.8005983070866138
20
-6.0266417716535434
11
6.7930992519685036
21
-6.0303912992125985
0
LINE
8
BLACK
6
CONTINUOUS
10
6.7930992519685036
20
-6.0303912992125985
11
6.7706020472440942
21
-6.0303912992125985
0
LINE
8
BLACK
6
CONTINUOUS
10
6.7706020472440942
20
-6.0303912992125985
11
6.763102992125984
21
-6.0266417716535434
0
LINE
8
BLACK
6
CONTINUOUS
10
6.763102992125984
20
-6.0266417716535434
11
6.7593534645669289
21
-6.0228922047244096
0
LINE
8
BLACK
6
CONTINUOUS
10
6.8568412598425192
20
-5.9516511417322837
11
6.8643403543307082
21
-5.9516511417322837
0
LINE
8
BLACK
6
CONTINUOUS
10
6.8643403543307082
20
-5.9516511417322837
11
6.8718394094488184
21
-5.9554006692913388
0
LINE
8
BLACK
6
CONTINUOUS
10
6.8718394094488184
20
-5.9554006692913388
11
6.8755889370078735
21
-5.9591501968503939
0
LINE
8
BLACK
6
CONTINUOUS
10
6.8755889370078735
20
-5.9591501968503939
11
6.8793384645669287
21
-5.9666492519685042
0
LINE
8
BLACK
6
CONTINUOUS
10
6.8793384645669287
20
-5.9666492519685042
11
6.8830879921259838
21
-5.9816473622047246
0
LINE
8
BLACK
6
CONTINUOUS
10
6.8830879921259838
20
-5.9816473622047246
11
6.8830879921259838
21
-6.0003950393700789
0
LINE
8
BLACK
6
CONTINUOUS
10
6.8830879921259838
20
-6.0003950393700789
11
6.8793384645669287
21
-6.0153931496062993
0
LINE
8
BLACK
6
CONTINUOUS
10
6.8793384645669287
20
-6.0153931496062993
11
6.8755889370078735
21
-6.0228922047244096
0
LINE
8
BLACK
6
CONTINUOUS
10
6.8755889370078735
20
-6.0228922047244096
11
6.8718394094488184
21
-6.0266417716535434
0
LINE
8
BLACK
6
CONTINUOUS
10
6.8718394094488184
20
-6.0266417716535434
11
6.8643403543307082
21
-6.0303912992125985
0
LINE
8
BLACK
6
CONTINUOUS
10
6.8643403543307082
20
-6.0303912992125985
11
6.8568412598425192
21
-6.0303912992125985
0
LINE
8
BLACK
6
CONTINUOUS
10
6.8568412598425192
20
-6.0303912992125985
11
6.849342204724409
21
-6.0266417716535434
0
LINE
8
BLACK
6
CONTINUOUS
10
6.849342204724409
20
-6.0266417716535434
11
6.8455926771653539
21
-6.0228922047244096
0
LINE
8
BLACK
6
CONTINUOUS
10
6.8455926771653539
20
-6.0228922047244096
11
6.8418431496062988
21
-6.0153931496062993
0
LINE
8
BLACK
6
CONTINUOUS
10
6.8418431496062988
20
-6.0153931496062993
11
6.8380936220472437
21
-6.0003950393700789
0
LINE
8
BLACK
6
CONTINUOUS
10
6.8380936220472437
20
-6.0003950393700789
11
6.8380936220472437
21
-5.9816473622047246
0
LINE
8
BLACK
6
CONTINUOUS
10
6.8380936220472437
20
-5.9816473622047246
11
6.8418431496062988
21
-5.9666492519685042
0
LINE
8
BLACK
6
CONTINUOUS
10
6.8418431496062988
20
-5.9666492519685042
11
6.8455926771653539
21
-5.9591501968503939
0
LINE
8
BLACK
6
CONTINUOUS
10
6.8455926771653539
20
-5.9591501968503939
11
6.849342204724409
21
-5.9554006692913388
0
LINE
8
BLACK
6
CONTINUOUS
10
6.849342204724409
20
-5.9554006692913388
11
6.8568412598425192
21
-5.9516511417322837
0
LINE
8
BLACK
6
CONTINUOUS
10
6.9130842519685034
20
-5.9516511417322837
11
6.9130842519685034
21
-5.9666492519685042
0
LINE
8
BLACK
6
CONTINUOUS
10
6.943080511811023
20
-5.9516511417322837
11
6.943080511811023
21
-5.9666492519685042
0
LINE
8
BLACK
6
CONTINUOUS
10
7.0593160236220474
20
-6.0603875196850394
11
7.0555664566929135
21
-6.0566379921259843
0
LINE
8
BLACK
6
CONTINUOUS
10
7.0555664566929135
20
-6.0566379921259843
11
7.0480674015748033
21
-6.045389409448819
0
LINE
8
BLACK
6
CONTINUOUS
10
7.0480674015748033
20
-6.045389409448819
11
7.0443178740157482
21
-6.0378903543307088
0
LINE
8
BLACK
6
CONTINUOUS
10
7.0443178740157482
20
-6.0378903543307088
11
7.040568346456693
21
-6.0266417716535434
0
LINE
8
BLACK
6
CONTINUOUS
10
7.040568346456693
20
-6.0266417716535434
11
7.0368188188976379
21
-6.0078940944881891
0
LINE
8
BLACK
6
CONTINUOUS
10
7.0368188188976379
20
-6.0078940944881891
11
7.0368188188976379
21
-5.9928959842519687
0
LINE
8
BLACK
6
CONTINUOUS
10
7.0368188188976379
20
-5.9928959842519687
11
7.040568346456693
21
-5.9741483070866144
0
LINE
8
BLACK
6
CONTINUOUS
10
7.040568346456693
20
-5.9741483070866144
11
7.0443178740157482
21
-5.962899724409449
0
LINE
8
BLACK
6
CONTINUOUS
10
7.0443178740157482
20
-5.962899724409449
11
7.0480674015748033
21
-5.9554006692913388
0
LINE
8
BLACK
6
CONTINUOUS
10
7.0480674015748033
20
-5.9554006692913388
11
7.0555664566929135
21
-5.9441520472440947
0
LINE
8
BLACK
6
CONTINUOUS
10
7.0555664566929135
20
-5.9441520472440947
11
7.0593160236220474
21
-5.9404025196850396
0
LINE
8
BLACK
6
CONTINUOUS
10
7.1005608267716536
20
-5.9853968897637797
11
7.0930617716535433
21
-5.9816473622047246
0
LINE
8
BLACK
6
CONTINUOUS
10
7.0930617716535433
20
-5.9816473622047246
11
7.0893122440944882
21
-5.9778978346456695
0
LINE
8
BLACK
6
CONTINUOUS
10
7.0893122440944882
20
-5.9778978346456695
11
7.0855627165354331
21
-5.9703987795275593
0
LINE
8
BLACK
6
CONTINUOUS
10
7.0855627165354331
20
-5.9703987795275593
11
7.0855627165354331
21
-5.9666492519685042
0
LINE
8
BLACK
6
CONTINUOUS
10
7.0855627165354331
20
-5.9666492519685042
11
7.0893122440944882
21
-5.9591501968503939
0
LINE
8
BLACK
6
CONTINUOUS
10
7.0893122440944882
20
-5.9591501968503939
11
7.0930617716535433
21
-5.9554006692913388
0
LINE
8
BLACK
6
CONTINUOUS
10
7.0930617716535433
20
-5.9554006692913388
11
7.1005608267716536
21
-5.9516511417322837
0
LINE
8
BLACK
6
CONTINUOUS
10
7.1005608267716536
20
-5.9516511417322837
11
7.1155589763779528
21
-5.9516511417322837
0
LINE
8
BLACK
6
CONTINUOUS
10
7.1155589763779528
20
-5.9516511417322837
11
7.123058031496063
21
-5.9554006692913388
0
LINE
8
BLACK
6
CONTINUOUS
10
7.123058031496063
20
-5.9554006692913388
11
7.1268075590551181
21
-5.9591501968503939
0
LINE
8
BLACK
6
CONTINUOUS
10
7.1268075590551181
20
-5.9591501968503939
11
7.1305570866141732
21
-5.9666492519685042
0
LINE
8
BLACK
6
CONTINUOUS
10
7.1305570866141732
20
-5.9666492519685042
11
7.1305570866141732
21
-5.9703987795275593
0
LINE
8
BLACK
6
CONTINUOUS
10
7.1305570866141732
20
-5.9703987795275593
11
7.1268075590551181
21
-5.9778978346456695
0
LINE
8
BLACK
6
CONTINUOUS
10
7.1268075590551181
20
-5.9778978346456695
11
7.123058031496063
21
-5.9816473622047246
0
LINE
8
BLACK
6
CONTINUOUS
10
7.123058031496063
20
-5.9816473622047246
11
7.1155589763779528
21
-5.9853968897637797
0
LINE
8
BLACK
6
CONTINUOUS
10
7.1155589763779528
20
-5.9853968897637797
11
7.1005608267716536
21
-5.9853968897637797
0
LINE
8
BLACK
6
CONTINUOUS
10
7.1005608267716536
20
-5.9853968897637797
11
7.0930617716535433
21
-5.9891464566929136
0
LINE
8
BLACK
6
CONTINUOUS
10
7.0930617716535433
20
-5.9891464566929136
11
7.0893122440944882
21
-5.9928959842519687
0
LINE
8
BLACK
6
CONTINUOUS
10
7.0893122440944882
20
-5.9928959842519687
11
7.0855627165354331
21
-6.0003950393700789
0
LINE
8
BLACK
6
CONTINUOUS
10
7.0855627165354331
20
-6.0003950393700789
11
7.0855627165354331
21
-6.0153931496062993
0
LINE
8
BLACK
6
CONTINUOUS
10
7.0855627165354331
20
-6.0153931496062993
11
7.0893122440944882
21
-6.0228922047244096
0
LINE
8
BLACK
6
CONTINUOUS
10
7.0893122440944882
20
-6.0228922047244096
11
7.0930617716535433
21
-6.0266417716535434
0
LINE
8
BLACK
6
CONTINUOUS
10
7.0930617716535433
20
-6.0266417716535434
11
7.1005608267716536
21
-6.0303912992125985
0
LINE
8
BLACK
6
CONTINUOUS
10
7.1005608267716536
20
-6.0303912992125985
11
7.1155589763779528
21
-6.0303912992125985
0
LINE
8
BLACK
6
CONTINUOUS
10
7.1155589763779528
20
-6.0303912992125985
11
7.123058031496063
21
-6.0266417716535434
0
LINE
8
BLACK
6
CONTINUOUS
10
7.123058031496063
20
-6.0266417716535434
11
7.1268075590551181
21
-6.0228922047244096
0
LINE
8
BLACK
6
CONTINUOUS
10
7.1268075590551181
20
-6.0228922047244096
11
7.1305570866141732
21
-6.0153931496062993
0
LINE
8
BLACK
6
CONTINUOUS
10
7.1305570866141732
20
-6.0153931496062993
11
7.1305570866141732
21
-6.0003950393700789
0
LINE
8
BLACK
6
CONTINUOUS
10
7.1305570866141732
20
-6.0003950393700789
11
7.1268075590551181
21
-5.9928959842519687
0
LINE
8
BLACK
6
CONTINUOUS
10
7.1268075590551181
20
-5.9928959842519687
11
7.123058031496063
21
-5.9891464566929136
0
LINE
8
BLACK
6
CONTINUOUS
10
7.123058031496063
20
-5.9891464566929136
11
7.1155589763779528
21
-5.9853968897637797
0
LINE
8
BLACK
6
CONTINUOUS
10
7.2242953937007872
20
-6.0303912992125985
11
7.2242953937007872
21
-5.9516511417322837
0
LINE
8
BLACK
6
CONTINUOUS
10
7.258041181102362
20
-6.0303912992125985
11
7.258041181102362
21
-5.9891464566929136
0
LINE
8
BLACK
6
CONTINUOUS
10
7.258041181102362
20
-5.9891464566929136
11
7.2542916535433069
21
-5.9816473622047246
0
LINE
8
BLACK
6
CONTINUOUS
10
7.2542916535433069
20
-5.9816473622047246
11
7.2467925984251966
21
-5.9778978346456695
0
LINE
8
BLACK
6
CONTINUOUS
10
7.2467925984251966
20
-5.9778978346456695
11
7.2355439763779525
21
-5.9778978346456695
0
LINE
8
BLACK
6
CONTINUOUS
10
7.2355439763779525
20
-5.9778978346456695
11
7.2280449212598423
21
-5.9816473622047246
0
LINE
8
BLACK
6
CONTINUOUS
10
7.2280449212598423
20
-5.9816473622047246
11
7.2242953937007872
21
-5.9853968897637797
0
LINE
8
BLACK
6
CONTINUOUS
10
7.3067850787401571
20
-6.0303912992125985
11
7.2992860236220469
21
-6.0266417716535434
0
LINE
8
BLACK
6
CONTINUOUS
10
7.2992860236220469
20
-6.0266417716535434
11
7.2955364960629918
21
-6.0228922047244096
0
LINE
8
BLACK
6
CONTINUOUS
10
7.2955364960629918
20
-6.0228922047244096
11
7.2917869685039367
21
-6.0153931496062993
0
LINE
8
BLACK
6
CONTINUOUS
10
7.2917869685039367
20
-6.0153931496062993
11
7.2917869685039367
21
-5.9928959842519687
0
LINE
8
BLACK
6
CONTINUOUS
10
7.2917869685039367
20
-5.9928959842519687
11
7.2955364960629918
21
-5.9853968897637797
0
LINE
8
BLACK
6
CONTINUOUS
10
7.2955364960629918
20
-5.9853968897637797
11
7.2992860236220469
21
-5.9816473622047246
0
LINE
8
BLACK
6
CONTINUOUS
10
7.2992860236220469
20
-5.9816473622047246
11
7.3067850787401571
21
-5.9778978346456695
0
LINE
8
BLACK
6
CONTINUOUS
10
7.3067850787401571
20
-5.9778978346456695
11
7.3180337007874012
21
-5.9778978346456695
0
LINE
8
BLACK
6
CONTINUOUS
10
7.3180337007874012
20
-5.9778978346456695
11
7.3255327559055115
21
-5.9816473622047246
0
LINE
8
BLACK
6
CONTINUOUS
10
7.3255327559055115
20
-5.9816473622047246
11
7.3292822834645666
21
-5.9853968897637797
0
LINE
8
BLACK
6
CONTINUOUS
10
7.3292822834645666
20
-5.9853968897637797
11
7.3330318110236217
21
-5.9928959842519687
0
LINE
8
BLACK
6
CONTINUOUS
10
7.3330318110236217
20
-5.9928959842519687
11
7.3330318110236217
21
-6.0153931496062993
0
LINE
8
BLACK
6
CONTINUOUS
10
7.3330318110236217
20
-6.0153931496062993
11
7.3292822834645666
21
-6.0228922047244096
0
LINE
8
BLACK
6
CONTINUOUS
10
7.3292822834645666
20
-6.0228922047244096
11
7.3255327559055115
21
-6.0266417716535434
0
LINE
8
BLACK
6
CONTINUOUS
10
7.3255327559055115
20
-6.0266417716535434
11
7.3180337007874012
21
-6.0303912992125985
0
LINE
8
BLACK
6
CONTINUOUS
10
7.3180337007874012
20
-6.0303912992125985
11
7.3067850787401571
21
-6.0303912992125985
0
LINE
8
BLACK
6
CONTINUOUS
10
7.3780261811023617
20
-6.0303912992125985
11
7.3705271259842515
21
-6.0266417716535434
0
LINE
8
BLACK
6
CONTINUOUS
10
7.3705271259842515
20
-6.0266417716535434
11
7.3667775984251964
21
-6.0191426771653544
0
LINE
8
BLACK
6
CONTINUOUS
10
7.3667775984251964
20
-6.0191426771653544
11
7.3667775984251964
21
-5.9516511417322837
0
LINE
8
BLACK
6
CONTINUOUS
10
7.438018700787401
20
-6.0266417716535434
11
7.4305196456692908
21
-6.0303912992125985
0
LINE
8
BLACK
6
CONTINUOUS
10
7.4305196456692908
20
-6.0303912992125985
11
7.4155214960629916
21
-6.0303912992125985
0
LINE
8
BLACK
6
CONTINUOUS
10
7.4155214960629916
20
-6.0303912992125985
11
7.4080224409448814
21
-6.0266417716535434
0
LINE
8
BLACK
6
CONTINUOUS
10
7.4080224409448814
20
-6.0266417716535434
11
7.4042729133858263
21
-6.0191426771653544
0
LINE
8
BLACK
6
CONTINUOUS
10
7.4042729133858263
20
-6.0191426771653544
11
7.4042729133858263
21
-5.9891464566929136
0
LINE
8
BLACK
6
CONTINUOUS
10
7.4042729133858263
20
-5.9891464566929136
11
7.4080224409448814
21
-5.9816473622047246
0
LINE
8
BLACK
6
CONTINUOUS
10
7.4080224409448814
20
-5.9816473622047246
11
7.4155214960629916
21
-5.9778978346456695
0
LINE
8
BLACK
6
CONTINUOUS
10
7.4155214960629916
20
-5.9778978346456695
11
7.4305196456692908
21
-5.9778978346456695
0
LINE
8
BLACK
6
CONTINUOUS
10
7.4305196456692908
20
-5.9778978346456695
11
7.438018700787401
21
-5.9816473622047246
0
LINE
8
BLACK
6
CONTINUOUS
10
7.438018700787401
20
-5.9816473622047246
11
7.4417682283464561
21
-5.9891464566929136
0
LINE
8
BLACK
6
CONTINUOUS
10
7.4417682283464561
20
-5.9891464566929136
11
7.4417682283464561
21
-5.9966455118110238
0
LINE
8
BLACK
6
CONTINUOUS
10
7.4417682283464561
20
-5.9966455118110238
11
7.4042729133858263
21
-6.004144566929134
0
LINE
8
BLACK
6
CONTINUOUS
10
7.4717644881889766
20
-6.0266417716535434
11
7.4792635433070869
21
-6.0303912992125985
0
LINE
8
BLACK
6
CONTINUOUS
10
7.4792635433070869
20
-6.0303912992125985
11
7.4942616535433073
21
-6.0303912992125985
0
LINE
8
BLACK
6
CONTINUOUS
10
7.4942616535433073
20
-6.0303912992125985
11
7.5017607480314963
21
-6.0266417716535434
0
LINE
8
BLACK
6
CONTINUOUS
10
7.5017607480314963
20
-6.0266417716535434
11
7.5055102755905514
21
-6.0191426771653544
0
LINE
8
BLACK
6
CONTINUOUS
10
7.5055102755905514
20
-6.0191426771653544
11
7.5055102755905514
21
-6.0153931496062993
0
LINE
8
BLACK
6
CONTINUOUS
10
7.5055102755905514
20
-6.0153931496062993
11
7.5017607480314963
21
-6.0078940944881891
0
LINE
8
BLACK
6
CONTINUOUS
10
7.5017607480314963
20
-6.0078940944881891
11
7.4942616535433073
21
-6.004144566929134
0
LINE
8
BLACK
6
CONTINUOUS
10
7.4942616535433073
20
-6.004144566929134
11
7.483013070866142
21
-6.004144566929134
0
LINE
8
BLACK
6
CONTINUOUS
10
7.483013070866142
20
-6.004144566929134
11
7.4755140157480318
21
-6.0003950393700789
0
LINE
8
BLACK
6
CONTINUOUS
10
7.4755140157480318
20
-6.0003950393700789
11
7.4717644881889766
21
-5.9928959842519687
0
LINE
8
BLACK
6
CONTINUOUS
10
7.4717644881889766
20
-5.9928959842519687
11
7.4717644881889766
21
-5.9891464566929136
0
LINE
8
BLACK
6
CONTINUOUS
10
7.4717644881889766
20
-5.9891464566929136
11
7.4755140157480318
21
-5.9816473622047246
0
LINE
8
BLACK
6
CONTINUOUS
10
7.4755140157480318
20
-5.9816473622047246
11
7.483013070866142
21
-5.9778978346456695
0
LINE
8
BLACK
6
CONTINUOUS
10
7.483013070866142
20
-5.9778978346456695
11
7.4942616535433073
21
-5.9778978346456695
0
LINE
8
BLACK
6
CONTINUOUS
10
7.4942616535433073
20
-5.9778978346456695
11
7.5017607480314963
21
-5.9816473622047246
0
LINE
8
BLACK
6
CONTINUOUS
10
7.5317570078740159
20
-6.0603875196850394
11
7.535506535433071
21
-6.0566379921259843
0
LINE
8
BLACK
6
CONTINUOUS
10
7.535506535433071
20
-6.0566379921259843
11
7.5430055905511812
21
-6.045389409448819
0
LINE
8
BLACK
6
CONTINUOUS
10
7.5430055905511812
20
-6.045389409448819
11
7.5467551181102364
21
-6.0378903543307088
0
LINE
8
BLACK
6
CONTINUOUS
10
7.5467551181102364
20
-6.0378903543307088
11
7.5505046456692915
21
-6.0266417716535434
0
LINE
8
BLACK
6
CONTINUOUS
10
7.5505046456692915
20
-6.0266417716535434
11
7.5542541732283466
21
-6.0078940944881891
0
LINE
8
BLACK
6
CONTINUOUS
10
7.5542541732283466
20
-6.0078940944881891
11
7.5542541732283466
21
-5.9928959842519687
0
LINE
8
BLACK
6
CONTINUOUS
10
7.5542541732283466
20
-5.9928959842519687
11
7.5505046456692915
21
-5.9741483070866144
0
LINE
8
BLACK
6
CONTINUOUS
10
7.5505046456692915
20
-5.9741483070866144
11
7.5467551181102364
21
-5.962899724409449
0
LINE
8
BLACK
6
CONTINUOUS
10
7.5467551181102364
20
-5.962899724409449
11
7.5430055905511812
21
-5.9554006692913388
0
LINE
8
BLACK
6
CONTINUOUS
10
7.5430055905511812
20
-5.9554006692913388
11
7.535506535433071
21
-5.9441520472440947
0
LINE
8
BLACK
6
CONTINUOUS
10
7.535506535433071
20
-5.9441520472440947
11
7.5317570078740159
21
-5.9404025196850396
0
LINE
8
BLACK
6
CONTINUOUS
10
5.6402799999999997
20
-6.1481974409448821
11
5.6402799999999997
21
-6.0925191732283466
0
LINE
8
BLACK
6
CONTINUOUS
10
5.6402799999999997
20
-6.0925191732283466
11
5.5846017322834642
21
-6.0925191732283466
0
LINE
8
BLACK
6
CONTINUOUS
10
5.5846017322834642
20
-6.0925191732283466
11
5.5846017322834642
21
-6.1481974409448821
0
LINE
8
BLACK
6
CONTINUOUS
10
5.5846017322834642
20
-6.1481974409448821
11
5.6402799999999997
21
-6.1481974409448821
0
LINE
8
BLACK
6
CONTINUOUS
10
5.7469799212598422
20
-6.0776353937007874
11
5.7957238188976374
21
-6.0776353937007874
0
LINE
8
BLACK
6
CONTINUOUS
10
5.7957238188976374
20
-6.0776353937007874
11
5.7694770866141729
21
-6.1076316141732283
0
LINE
8
BLACK
6
CONTINUOUS
10
5.7694770866141729
20
-6.1076316141732283
11
5.780725708661417
21
-6.1076316141732283
0
LINE
8
BLACK
6
CONTINUOUS
10
5.780725708661417
20
-6.1076316141732283
11
5.7882247637795272
21
-6.1113811417322834
0
LINE
8
BLACK
6
CONTINUOUS
10
5.7882247637795272
20
-6.1113811417322834
11
5.7919742913385823
21
-6.1151307086614173
0
LINE
8
BLACK
6
CONTINUOUS
10
5.7919742913385823
20
-6.1151307086614173
11
5.7957238188976374
21
-6.1226297637795275
0
LINE
8
BLACK
6
CONTINUOUS
10
5.7957238188976374
20
-6.1226297637795275
11
5.7957238188976374
21
-6.1413774015748031
0
LINE
8
BLACK
6
CONTINUOUS
10
5.7957238188976374
20
-6.1413774015748031
11
5.7919742913385823
21
-6.1488764566929133
0
LINE
8
BLACK
6
CONTINUOUS
10
5.7919742913385823
20
-6.1488764566929133
11
5.7882247637795272
21
-6.1526260236220471
0
LINE
8
BLACK
6
CONTINUOUS
10
5.7882247637795272
20
-6.1526260236220471
11
5.780725708661417
21
-6.1563755511811022
0
LINE
8
BLACK
6
CONTINUOUS
10
5.780725708661417
20
-6.1563755511811022
11
5.7582285039370076
21
-6.1563755511811022
0
LINE
8
BLACK
6
CONTINUOUS
10
5.7582285039370076
20
-6.1563755511811022
11
5.7507294488188974
21
-6.1526260236220471
0
LINE
8
BLACK
6
CONTINUOUS
10
5.7507294488188974
20
-6.1526260236220471
11
5.7469799212598422
21
-6.1488764566929133
0
LINE
8
BLACK
6
CONTINUOUS
10
5.8294696062992122
20
-6.1488764566929133
11
5.8332191338582673
21
-6.1526260236220471
0
LINE
8
BLACK
6
CONTINUOUS
10
5.8332191338582673
20
-6.1526260236220471
11
5.8294696062992122
21
-6.1563755511811022
0
LINE
8
BLACK
6
CONTINUOUS
10
5.8294696062992122
20
-6.1563755511811022
11
5.8257200787401571
21
-6.1526260236220471
0
LINE
8
BLACK
6
CONTINUOUS
10
5.8257200787401571
20
-6.1526260236220471
11
5.8294696062992122
21
-6.1488764566929133
0
LINE
8
BLACK
6
CONTINUOUS
10
5.8294696062992122
20
-6.1488764566929133
11
5.8294696062992122
21
-6.1563755511811022
0
LINE
8
BLACK
6
CONTINUOUS
10
5.908209763779527
20
-6.1563755511811022
11
5.8632153937007869
21
-6.1563755511811022
0
LINE
8
BLACK
6
CONTINUOUS
10
5.8857125590551176
20
-6.1563755511811022
11
5.8857125590551176
21
-6.0776353937007874
0
LINE
8
BLACK
6
CONTINUOUS
10
5.8857125590551176
20
-6.0776353937007874
11
5.8782135039370074
21
-6.0888839763779528
0
LINE
8
BLACK
6
CONTINUOUS
10
5.8782135039370074
20
-6.0888839763779528
11
5.8707144488188971
21
-6.096383031496063
0
LINE
8
BLACK
6
CONTINUOUS
10
5.8707144488188971
20
-6.096383031496063
11
5.8632153937007869
21
-6.1001325590551181
0
LINE
8
BLACK
6
CONTINUOUS
10
5.9344564960629924
20
-6.0776353937007874
11
5.9869499212598427
21
-6.0776353937007874
0
LINE
8
BLACK
6
CONTINUOUS
10
5.9869499212598427
20
-6.0776353937007874
11
5.953204133858268
21
-6.1563755511811022
0
LINE
8
BLACK
6
CONTINUOUS
10
6.0544414960629922
20
-6.0776353937007874
11
6.0169461811023623
21
-6.0776353937007874
0
LINE
8
BLACK
6
CONTINUOUS
10
6.0169461811023623
20
-6.0776353937007874
11
6.0131966535433072
21
-6.1151307086614173
0
LINE
8
BLACK
6
CONTINUOUS
10
6.0131966535433072
20
-6.1151307086614173
11
6.0169461811023623
21
-6.1113811417322834
0
LINE
8
BLACK
6
CONTINUOUS
10
6.0169461811023623
20
-6.1113811417322834
11
6.0244452362204726
21
-6.1076316141732283
0
LINE
8
BLACK
6
CONTINUOUS
10
6.0244452362204726
20
-6.1076316141732283
11
6.0431929133858269
21
-6.1076316141732283
0
LINE
8
BLACK
6
CONTINUOUS
10
6.0431929133858269
20
-6.1076316141732283
11
6.0506919685039371
21
-6.1113811417322834
0
LINE
8
BLACK
6
CONTINUOUS
10
6.0506919685039371
20
-6.1113811417322834
11
6.0544414960629922
21
-6.1151307086614173
0
LINE
8
BLACK
6
CONTINUOUS
10
6.0544414960629922
20
-6.1151307086614173
11
6.0581910236220473
21
-6.1226297637795275
0
LINE
8
BLACK
6
CONTINUOUS
10
6.0581910236220473
20
-6.1226297637795275
11
6.0581910236220473
21
-6.1413774015748031
0
LINE
8
BLACK
6
CONTINUOUS
10
6.0581910236220473
20
-6.1413774015748031
11
6.0544414960629922
21
-6.1488764566929133
0
LINE
8
BLACK
6
CONTINUOUS
10
6.0544414960629922
20
-6.1488764566929133
11
6.0506919685039371
21
-6.1526260236220471
0
LINE
8
BLACK
6
CONTINUOUS
10
6.0506919685039371
20
-6.1526260236220471
11
6.0431929133858269
21
-6.1563755511811022
0
LINE
8
BLACK
6
CONTINUOUS
10
6.0431929133858269
20
-6.1563755511811022
11
6.0244452362204726
21
-6.1563755511811022
0
LINE
8
BLACK
6
CONTINUOUS
10
6.0244452362204726
20
-6.1563755511811022
11
6.0169461811023623
21
-6.1526260236220471
0
LINE
8
BLACK
6
CONTINUOUS
10
6.0169461811023623
20
-6.1526260236220471
11
6.0131966535433072
21
-6.1488764566929133
0
LINE
8
BLACK
6
CONTINUOUS
10
6.0919368110236221
20
-6.1563755511811022
11
6.0919368110236221
21
-6.1038820866141732
0
LINE
8
BLACK
6
CONTINUOUS
10
6.0919368110236221
20
-6.1113811417322834
11
6.0956863385826772
21
-6.1076316141732283
0
LINE
8
BLACK
6
CONTINUOUS
10
6.0956863385826772
20
-6.1076316141732283
11
6.1031853937007874
21
-6.1038820866141732
0
LINE
8
BLACK
6
CONTINUOUS
10
6.1031853937007874
20
-6.1038820866141732
11
6.1144340157480315
21
-6.1038820866141732
0
LINE
8
BLACK
6
CONTINUOUS
10
6.1144340157480315
20
-6.1038820866141732
11
6.1219330708661417
21
-6.1076316141732283
0
LINE
8
BLACK
6
CONTINUOUS
10
6.1219330708661417
20
-6.1076316141732283
11
6.1256825984251968
21
-6.1151307086614173
0
LINE
8
BLACK
6
CONTINUOUS
10
6.1256825984251968
20
-6.1151307086614173
11
6.1256825984251968
21
-6.1563755511811022
0
LINE
8
BLACK
6
CONTINUOUS
10
6.1256825984251968
20
-6.1151307086614173
11
6.1294321259842519
21
-6.1076316141732283
0
LINE
8
BLACK
6
CONTINUOUS
10
6.1294321259842519
20
-6.1076316141732283
11
6.1369311811023621
21
-6.1038820866141732
0
LINE
8
BLACK
6
CONTINUOUS
10
6.1369311811023621
20
-6.1038820866141732
11
6.1481797637795275
21
-6.1038820866141732
0
LINE
8
BLACK
6
CONTINUOUS
10
6.1481797637795275
20
-6.1038820866141732
11
6.1556788582677164
21
-6.1076316141732283
0
LINE
8
BLACK
6
CONTINUOUS
10
6.1556788582677164
20
-6.1076316141732283
11
6.1594283858267715
21
-6.1151307086614173
0
LINE
8
BLACK
6
CONTINUOUS
10
6.1594283858267715
20
-6.1151307086614173
11
6.1594283858267715
21
-6.1563755511811022
0
LINE
8
BLACK
6
CONTINUOUS
10
6.1969237007874014
20
-6.1563755511811022
11
6.1969237007874014
21
-6.1038820866141732
0
LINE
8
BLACK
6
CONTINUOUS
10
6.1969237007874014
20
-6.1113811417322834
11
6.2006732283464565
21
-6.1076316141732283
0
LINE
8
BLACK
6
CONTINUOUS
10
6.2006732283464565
20
-6.1076316141732283
11
6.2081722834645667
21
-6.1038820866141732
0
LINE
8
BLACK
6
CONTINUOUS
10
6.2081722834645667
20
-6.1038820866141732
11
6.2194209055118108
21
-6.1038820866141732
0
LINE
8
BLACK
6
CONTINUOUS
10
6.2194209055118108
20
-6.1038820866141732
11
6.226919960629921
21
-6.1076316141732283
0
LINE
8
BLACK
6
CONTINUOUS
10
6.226919960629921
20
-6.1076316141732283
11
6.2306694881889761
21
-6.1151307086614173
0
LINE
8
BLACK
6
CONTINUOUS
10
6.2306694881889761
20
-6.1151307086614173
11
6.2306694881889761
21
-6.1563755511811022
0
LINE
8
BLACK
6
CONTINUOUS
10
6.2306694881889761
20
-6.1151307086614173
11
6.2344190157480313
21
-6.1076316141732283
0
LINE
8
BLACK
6
CONTINUOUS
10
6.2344190157480313
20
-6.1076316141732283
11
6.2419180708661415
21
-6.1038820866141732
0
LINE
8
BLACK
6
CONTINUOUS
10
6.2419180708661415
20
-6.1038820866141732
11
6.2531666535433068
21
-6.1038820866141732
0
LINE
8
BLACK
6
CONTINUOUS
10
6.2531666535433068
20
-6.1038820866141732
11
6.2606657480314958
21
-6.1076316141732283
0
LINE
8
BLACK
6
CONTINUOUS
10
6.2606657480314958
20
-6.1076316141732283
11
6.2644152755905509
21
-6.1151307086614173
0
LINE
8
BLACK
6
CONTINUOUS
10
6.2644152755905509
20
-6.1151307086614173
11
6.2644152755905509
21
-6.1563755511811022
0
LINE
8
BLACK
6
CONTINUOUS
10
6.4181460629921254
20
-6.0738858661417323
11
6.3506545275590547
21
-6.1751231889763778
0
LINE
8
BLACK
6
CONTINUOUS
10
6.5193834251968505
20
-6.0776353937007874
11
6.5268825196850395
21
-6.0776353937007874
0
LINE
8
BLACK
6
CONTINUOUS
10
6.5268825196850395
20
-6.0776353937007874
11
6.5343815748031497
21
-6.0813849212598425
0
LINE
8
BLACK
6
CONTINUOUS
10
6.5343815748031497
20
-6.0813849212598425
11
6.5381311023622048
21
-6.0851344488188976
0
LINE
8
BLACK
6
CONTINUOUS
10
6.5381311023622048
20
-6.0851344488188976
11
6.54188062992126
21
-6.0926335039370079
0
LINE
8
BLACK
6
CONTINUOUS
10
6.54188062992126
20
-6.0926335039370079
11
6.5456301574803151
21
-6.1076316141732283
0
LINE
8
BLACK
6
CONTINUOUS
10
6.5456301574803151
20
-6.1076316141732283
11
6.5456301574803151
21
-6.1263792913385826
0
LINE
8
BLACK
6
CONTINUOUS
10
6.5456301574803151
20
-6.1263792913385826
11
6.54188062992126
21
-6.1413774015748031
0
LINE
8
BLACK
6
CONTINUOUS
10
6.54188062992126
20
-6.1413774015748031
11
6.5381311023622048
21
-6.1488764566929133
0
LINE
8
BLACK
6
CONTINUOUS
10
6.5381311023622048
20
-6.1488764566929133
11
6.5343815748031497
21
-6.1526260236220471
0
LINE
8
BLACK
6
CONTINUOUS
10
6.5343815748031497
20
-6.1526260236220471
11
6.5268825196850395
21
-6.1563755511811022
0
LINE
8
BLACK
6
CONTINUOUS
10
6.5268825196850395
20
-6.1563755511811022
11
6.5193834251968505
21
-6.1563755511811022
0
LINE
8
BLACK
6
CONTINUOUS
10
6.5193834251968505
20
-6.1563755511811022
11
6.5118843700787403
21
-6.1526260236220471
0
LINE
8
BLACK
6
CONTINUOUS
10
6.5118843700787403
20
-6.1526260236220471
11
6.5081348425196852
21
-6.1488764566929133
0
LINE
8
BLACK
6
CONTINUOUS
10
6.5081348425196852
20
-6.1488764566929133
11
6.5043853149606301
21
-6.1413774015748031
0
LINE
8
BLACK
6
CONTINUOUS
10
6.5043853149606301
20
-6.1413774015748031
11
6.500635787401575
21
-6.1263792913385826
0
LINE
8
BLACK
6
CONTINUOUS
10
6.500635787401575
20
-6.1263792913385826
11
6.500635787401575
21
-6.1076316141732283
0
LINE
8
BLACK
6
CONTINUOUS
10
6.500635787401575
20
-6.1076316141732283
11
6.5043853149606301
21
-6.0926335039370079
0
LINE
8
BLACK
6
CONTINUOUS
10
6.5043853149606301
20
-6.0926335039370079
11
6.5081348425196852
21
-6.0851344488188976
0
LINE
8
BLACK
6
CONTINUOUS
10
6.5081348425196852
20
-6.0851344488188976
11
6.5118843700787403
21
-6.0813849212598425
0
LINE
8
BLACK
6
CONTINUOUS
10
6.5118843700787403
20
-6.0813849212598425
11
6.5193834251968505
21
-6.0776353937007874
0
LINE
8
BLACK
6
CONTINUOUS
10
6.5793759448818898
20
-6.1488764566929133
11
6.5831254724409449
21
-6.1526260236220471
0
LINE
8
BLACK
6
CONTINUOUS
10
6.5831254724409449
20
-6.1526260236220471
11
6.5793759448818898
21
-6.1563755511811022
0
LINE
8
BLACK
6
CONTINUOUS
10
6.5793759448818898
20
-6.1563755511811022
11
6.5756264173228347
21
-6.1526260236220471
0
LINE
8
BLACK
6
CONTINUOUS
10
6.5756264173228347
20
-6.1526260236220471
11
6.5793759448818898
21
-6.1488764566929133
0
LINE
8
BLACK
6
CONTINUOUS
10
6.5793759448818898
20
-6.1488764566929133
11
6.5793759448818898
21
-6.1563755511811022
0
LINE
8
BLACK
6
CONTINUOUS
10
6.6581161023622046
20
-6.1563755511811022
11
6.6131217322834646
21
-6.1563755511811022
0
LINE
8
BLACK
6
CONTINUOUS
10
6.6356188976377952
20
-6.1563755511811022
11
6.6356188976377952
21
-6.0776353937007874
0
LINE
8
BLACK
6
CONTINUOUS
10
6.6356188976377952
20
-6.0776353937007874
11
6.628119842519685
21
-6.0888839763779528
0
LINE
8
BLACK
6
CONTINUOUS
10
6.628119842519685
20
-6.0888839763779528
11
6.6206207874015748
21
-6.096383031496063
0
LINE
8
BLACK
6
CONTINUOUS
10
6.6206207874015748
20
-6.096383031496063
11
6.6131217322834646
21
-6.1001325590551181
0
LINE
8
BLACK
6
CONTINUOUS
10
6.6881123622047243
20
-6.0851344488188976
11
6.6918618897637794
21
-6.0813849212598425
0
LINE
8
BLACK
6
CONTINUOUS
10
6.6918618897637794
20
-6.0813849212598425
11
6.6993609448818896
21
-6.0776353937007874
0
LINE
8
BLACK
6
CONTINUOUS
10
6.6993609448818896
20
-6.0776353937007874
11
6.7181086220472439
21
-6.0776353937007874
0
LINE
8
BLACK
6
CONTINUOUS
10
6.7181086220472439
20
-6.0776353937007874
11
6.7256076771653541
21
-6.0813849212598425
0
LINE
8
BLACK
6
CONTINUOUS
10
6.7256076771653541
20
-6.0813849212598425
11
6.7293572047244092
21
-6.0851344488188976
0
LINE
8
BLACK
6
CONTINUOUS
10
6.7293572047244092
20
-6.0851344488188976
11
6.7331067322834643
21
-6.0926335039370079
0
LINE
8
BLACK
6
CONTINUOUS
10
6.7331067322834643
20
-6.0926335039370079
11
6.7331067322834643
21
-6.1001325590551181
0
LINE
8
BLACK
6
CONTINUOUS
10
6.7331067322834643
20
-6.1001325590551181
11
6.7293572047244092
21
-6.1113811417322834
0
LINE
8
BLACK
6
CONTINUOUS
10
6.7293572047244092
20
-6.1113811417322834
11
6.6843628346456692
21
-6.1563755511811022
0
LINE
8
BLACK
6
CONTINUOUS
10
6.6843628346456692
20
-6.1563755511811022
11
6.7331067322834643
21
-6.1563755511811022
0
LINE
8
BLACK
6
CONTINUOUS
10
6.8043478346456689
20
-6.0776353937007874
11
6.7668525196850391
21
-6.0776353937007874
0
LINE
8
BLACK
6
CONTINUOUS
10
6.7668525196850391
20
-6.0776353937007874
11
6.763102992125984
21
-6.1151307086614173
0
LINE
8
BLACK
6
CONTINUOUS
10
6.763102992125984
20
-6.1151307086614173
11
6.7668525196850391
21
-6.1113811417322834
0
LINE
8
BLACK
6
CONTINUOUS
10
6.7668525196850391
20
-6.1113811417322834
11
6.7743515748031493
21
-6.1076316141732283
0
LINE
8
BLACK
6
CONTINUOUS
10
6.7743515748031493
20
-6.1076316141732283
11
6.7930992519685036
21
-6.1076316141732283
0
LINE
8
BLACK
6
CONTINUOUS
10
6.7930992519685036
20
-6.1076316141732283
11
6.8005983070866138
21
-6.1113811417322834
0
LINE
8
BLACK
6
CONTINUOUS
10
6.8005983070866138
20
-6.1113811417322834
11
6.8043478346456689
21
-6.1151307086614173
0
LINE
8
BLACK
6
CONTINUOUS
10
6.8043478346456689
20
-6.1151307086614173
11
6.8080973622047241
21
-6.1226297637795275
0
LINE
8
BLACK
6
CONTINUOUS
10
6.8080973622047241
20
-6.1226297637795275
11
6.8080973622047241
21
-6.1413774015748031
0
LINE
8
BLACK
6
CONTINUOUS
10
6.8080973622047241
20
-6.1413774015748031
11
6.8043478346456689
21
-6.1488764566929133
0
LINE
8
BLACK
6
CONTINUOUS
10
6.8043478346456689
20
-6.1488764566929133
11
6.8005983070866138
21
-6.1526260236220471
0
LINE
8
BLACK
6
CONTINUOUS
10
6.8005983070866138
20
-6.1526260236220471
11
6.7930992519685036
21
-6.1563755511811022
0
LINE
8
BLACK
6
CONTINUOUS
10
6.7930992519685036
20
-6.1563755511811022
11
6.7743515748031493
21
-6.1563755511811022
0
LINE
8
BLACK
6
CONTINUOUS
10
6.7743515748031493
20
-6.1563755511811022
11
6.7668525196850391
21
-6.1526260236220471
0
LINE
8
BLACK
6
CONTINUOUS
10
6.7668525196850391
20
-6.1526260236220471
11
6.763102992125984
21
-6.1488764566929133
0
LINE
8
BLACK
6
CONTINUOUS
10
6.8568412598425192
20
-6.0776353937007874
11
6.8643403543307082
21
-6.0776353937007874
0
LINE
8
BLACK
6
CONTINUOUS
10
6.8643403543307082
20
-6.0776353937007874
11
6.8718394094488184
21
-6.0813849212598425
0
LINE
8
BLACK
6
CONTINUOUS
10
6.8718394094488184
20
-6.0813849212598425
11
6.8755889370078735
21
-6.0851344488188976
0
LINE
8
BLACK
6
CONTINUOUS
10
6.8755889370078735
20
-6.0851344488188976
11
6.8793384645669287
21
-6.0926335039370079
0
LINE
8
BLACK
6
CONTINUOUS
10
6.8793384645669287
20
-6.0926335039370079
11
6.8830879921259838
21
-6.1076316141732283
0
LINE
8
BLACK
6
CONTINUOUS
10
6.8830879921259838
20
-6.1076316141732283
11
6.8830879921259838
21
-6.1263792913385826
0
LINE
8
BLACK
6
CONTINUOUS
10
6.8830879921259838
20
-6.1263792913385826
11
6.8793384645669287
21
-6.1413774015748031
0
LINE
8
BLACK
6
CONTINUOUS
10
6.8793384645669287
20
-6.1413774015748031
11
6.8755889370078735
21
-6.1488764566929133
0
LINE
8
BLACK
6
CONTINUOUS
10
6.8755889370078735
20
-6.1488764566929133
11
6.8718394094488184
21
-6.1526260236220471
0
LINE
8
BLACK
6
CONTINUOUS
10
6.8718394094488184
20
-6.1526260236220471
11
6.8643403543307082
21
-6.1563755511811022
0
LINE
8
BLACK
6
CONTINUOUS
10
6.8643403543307082
20
-6.1563755511811022
11
6.8568412598425192
21
-6.1563755511811022
0
LINE
8
BLACK
6
CONTINUOUS
10
6.8568412598425192
20
-6.1563755511811022
11
6.849342204724409
21
-6.1526260236220471
0
LINE
8
BLACK
6
CONTINUOUS
10
6.849342204724409
20
-6.1526260236220471
11
6.8455926771653539
21
-6.1488764566929133
0
LINE
8
BLACK
6
CONTINUOUS
10
6.8455926771653539
20
-6.1488764566929133
11
6.8418431496062988
21
-6.1413774015748031
0
LINE
8
BLACK
6
CONTINUOUS
10
6.8418431496062988
20
-6.1413774015748031
11
6.8380936220472437
21
-6.1263792913385826
0
LINE
8
BLACK
6
CONTINUOUS
10
6.8380936220472437
20
-6.1263792913385826
11
6.8380936220472437
21
-6.1076316141732283
0
LINE
8
BLACK
6
CONTINUOUS
10
6.8380936220472437
20
-6.1076316141732283
11
6.8418431496062988
21
-6.0926335039370079
0
LINE
8
BLACK
6
CONTINUOUS
10
6.8418431496062988
20
-6.0926335039370079
11
6.8455926771653539
21
-6.0851344488188976
0
LINE
8
BLACK
6
CONTINUOUS
10
6.8455926771653539
20
-6.0851344488188976
11
6.849342204724409
21
-6.0813849212598425
0
LINE
8
BLACK
6
CONTINUOUS
10
6.849342204724409
20
-6.0813849212598425
11
6.8568412598425192
21
-6.0776353937007874
0
LINE
8
BLACK
6
CONTINUOUS
10
6.9130842519685034
20
-6.0776353937007874
11
6.9130842519685034
21
-6.0926335039370079
0
LINE
8
BLACK
6
CONTINUOUS
10
6.943080511811023
20
-6.0776353937007874
11
6.943080511811023
21
-6.0926335039370079
0
LINE
8
BLACK
6
CONTINUOUS
10
7.0593160236220474
20
-6.1863717716535431
11
7.0555664566929135
21
-6.182622244094488
0
LINE
8
BLACK
6
CONTINUOUS
10
7.0555664566929135
20
-6.182622244094488
11
7.0480674015748033
21
-6.1713736614173227
0
LINE
8
BLACK
6
CONTINUOUS
10
7.0480674015748033
20
-6.1713736614173227
11
7.0443178740157482
21
-6.1638746062992125
0
LINE
8
BLACK
6
CONTINUOUS
10
7.0443178740157482
20
-6.1638746062992125
11
7.040568346456693
21
-6.1526260236220471
0
LINE
8
BLACK
6
CONTINUOUS
10
7.040568346456693
20
-6.1526260236220471
11
7.0368188188976379
21
-6.1338783464566928
0
LINE
8
BLACK
6
CONTINUOUS
10
7.0368188188976379
20
-6.1338783464566928
11
7.0368188188976379
21
-6.1188802362204724
0
LINE
8
BLACK
6
CONTINUOUS
10
7.0368188188976379
20
-6.1188802362204724
11
7.040568346456693
21
-6.1001325590551181
0
LINE
8
BLACK
6
CONTINUOUS
10
7.040568346456693
20
-6.1001325590551181
11
7.0443178740157482
21
-6.0888839763779528
0
LINE
8
BLACK
6
CONTINUOUS
10
7.0443178740157482
20
-6.0888839763779528
11
7.0480674015748033
21
-6.0813849212598425
0
LINE
8
BLACK
6
CONTINUOUS
10
7.0480674015748033
20
-6.0813849212598425
11
7.0555664566929135
21
-6.0701362992125985
0
LINE
8
BLACK
6
CONTINUOUS
10
7.0555664566929135
20
-6.0701362992125985
11
7.0593160236220474
21
-6.0663867716535433
0
LINE
8
BLACK
6
CONTINUOUS
10
7.123058031496063
20
-6.1038820866141732
11
7.123058031496063
21
-6.1563755511811022
0
LINE
8
BLACK
6
CONTINUOUS
10
7.1043103543307087
20
-6.0738858661417323
11
7.0855627165354331
21
-6.1301288188976377
0
LINE
8
BLACK
6
CONTINUOUS
10
7.0855627165354331
20
-6.1301288188976377
11
7.1343066141732283
21
-6.1301288188976377
0
LINE
8
BLACK
6
CONTINUOUS
10
7.2242953937007872
20
-6.1563755511811022
11
7.2242953937007872
21
-6.0776353937007874
0
LINE
8
BLACK
6
CONTINUOUS
10
7.258041181102362
20
-6.1563755511811022
11
7.258041181102362
21
-6.1151307086614173
0
LINE
8
BLACK
6
CONTINUOUS
10
7.258041181102362
20
-6.1151307086614173
11
7.2542916535433069
21
-6.1076316141732283
0
LINE
8
BLACK
6
CONTINUOUS
10
7.2542916535433069
20
-6.1076316141732283
11
7.2467925984251966
21
-6.1038820866141732
0
LINE
8
BLACK
6
CONTINUOUS
10
7.2467925984251966
20
-6.1038820866141732
11
7.2355439763779525
21
-6.1038820866141732
0
LINE
8
BLACK
6
CONTINUOUS
10
7.2355439763779525
20
-6.1038820866141732
11
7.2280449212598423
21
-6.1076316141732283
0
LINE
8
BLACK
6
CONTINUOUS
10
7.2280449212598423
20
-6.1076316141732283
11
7.2242953937007872
21
-6.1113811417322834
0
LINE
8
BLACK
6
CONTINUOUS
10
7.3067850787401571
20
-6.1563755511811022
11
7.2992860236220469
21
-6.1526260236220471
0
LINE
8
BLACK
6
CONTINUOUS
10
7.2992860236220469
20
-6.1526260236220471
11
7.2955364960629918
21
-6.1488764566929133
0
LINE
8
BLACK
6
CONTINUOUS
10
7.2955364960629918
20
-6.1488764566929133
11
7.2917869685039367
21
-6.1413774015748031
0
LINE
8
BLACK
6
CONTINUOUS
10
7.2917869685039367
20
-6.1413774015748031
11
7.2917869685039367
21
-6.1188802362204724
0
LINE
8
BLACK
6
CONTINUOUS
10
7.2917869685039367
20
-6.1188802362204724
11
7.2955364960629918
21
-6.1113811417322834
0
LINE
8
BLACK
6
CONTINUOUS
10
7.2955364960629918
20
-6.1113811417322834
11
7.2992860236220469
21
-6.1076316141732283
0
LINE
8
BLACK
6
CONTINUOUS
10
7.2992860236220469
20
-6.1076316141732283
11
7.3067850787401571
21
-6.1038820866141732
0
LINE
8
BLACK
6
CONTINUOUS
10
7.3067850787401571
20
-6.1038820866141732
11
7.3180337007874012
21
-6.1038820866141732
0
LINE
8
BLACK
6
CONTINUOUS
10
7.3180337007874012
20
-6.1038820866141732
11
7.3255327559055115
21
-6.1076316141732283
0
LINE
8
BLACK
6
CONTINUOUS
10
7.3255327559055115
20
-6.1076316141732283
11
7.3292822834645666
21
-6.1113811417322834
0
LINE
8
BLACK
6
CONTINUOUS
10
7.3292822834645666
20
-6.1113811417322834
11
7.3330318110236217
21
-6.1188802362204724
0
LINE
8
BLACK
6
CONTINUOUS
10
7.3330318110236217
20
-6.1188802362204724
11
7.3330318110236217
21
-6.1413774015748031
0
LINE
8
BLACK
6
CONTINUOUS
10
7.3330318110236217
20
-6.1413774015748031
11
7.3292822834645666
21
-6.1488764566929133
0
LINE
8
BLACK
6
CONTINUOUS
10
7.3292822834645666
20
-6.1488764566929133
11
7.3255327559055115
21
-6.1526260236220471
0
LINE
8
BLACK
6
CONTINUOUS
10
7.3255327559055115
20
-6.1526260236220471
11
7.3180337007874012
21
-6.1563755511811022
0
LINE
8
BLACK
6
CONTINUOUS
10
7.3180337007874012
20
-6.1563755511811022
11
7.3067850787401571
21
-6.1563755511811022
0
LINE
8
BLACK
6
CONTINUOUS
10
7.3780261811023617
20
-6.1563755511811022
11
7.3705271259842515
21
-6.1526260236220471
0
LINE
8
BLACK
6
CONTINUOUS
10
7.3705271259842515
20
-6.1526260236220471
11
7.3667775984251964
21
-6.1451269291338582
0
LINE
8
BLACK
6
CONTINUOUS
10
7.3667775984251964
20
-6.1451269291338582
11
7.3667775984251964
21
-6.0776353937007874
0
LINE
8
BLACK
6
CONTINUOUS
10
7.438018700787401
20
-6.1526260236220471
11
7.4305196456692908
21
-6.1563755511811022
0
LINE
8
BLACK
6
CONTINUOUS
10
7.4305196456692908
20
-6.1563755511811022
11
7.4155214960629916
21
-6.1563755511811022
0
LINE
8
BLACK
6
CONTINUOUS
10
7.4155214960629916
20
-6.1563755511811022
11
7.4080224409448814
21
-6.1526260236220471
0
LINE
8
BLACK
6
CONTINUOUS
10
7.4080224409448814
20
-6.1526260236220471
11
7.4042729133858263
21
-6.1451269291338582
0
LINE
8
BLACK
6
CONTINUOUS
10
7.4042729133858263
20
-6.1451269291338582
11
7.4042729133858263
21
-6.1151307086614173
0
LINE
8
BLACK
6
CONTINUOUS
10
7.4042729133858263
20
-6.1151307086614173
11
7.4080224409448814
21
-6.1076316141732283
0
LINE
8
BLACK
6
CONTINUOUS
10
7.4080224409448814
20
-6.1076316141732283
11
7.4155214960629916
21
-6.1038820866141732
0
LINE
8
BLACK
6
CONTINUOUS
10
7.4155214960629916
20
-6.1038820866141732
11
7.4305196456692908
21
-6.1038820866141732
0
LINE
8
BLACK
6
CONTINUOUS
10
7.4305196456692908
20
-6.1038820866141732
11
7.438018700787401
21
-6.1076316141732283
0
LINE
8
BLACK
6
CONTINUOUS
10
7.438018700787401
20
-6.1076316141732283
11
7.4417682283464561
21
-6.1151307086614173
0
LINE
8
BLACK
6
CONTINUOUS
10
7.4417682283464561
20
-6.1151307086614173
11
7.4417682283464561
21
-6.1226297637795275
0
LINE
8
BLACK
6
CONTINUOUS
10
7.4417682283464561
20
-6.1226297637795275
11
7.4042729133858263
21
-6.1301288188976377
0
LINE
8
BLACK
6
CONTINUOUS
10
7.4717644881889766
20
-6.1526260236220471
11
7.4792635433070869
21
-6.1563755511811022
0
LINE
8
BLACK
6
CONTINUOUS
10
7.4792635433070869
20
-6.1563755511811022
11
7.4942616535433073
21
-6.1563755511811022
0
LINE
8
BLACK
6
CONTINUOUS
10
7.4942616535433073
20
-6.1563755511811022
11
7.5017607480314963
21
-6.1526260236220471
0
LINE
8
BLACK
6
CONTINUOUS
10
7.5017607480314963
20
-6.1526260236220471
11
7.5055102755905514
21
-6.1451269291338582
0
LINE
8
BLACK
6
CONTINUOUS
10
7.5055102755905514
20
-6.1451269291338582
11
7.5055102755905514
21
-6.1413774015748031
0
LINE
8
BLACK
6
CONTINUOUS
10
7.5055102755905514
20
-6.1413774015748031
11
7.5017607480314963
21
-6.1338783464566928
0
LINE
8
BLACK
6
CONTINUOUS
10
7.5017607480314963
20
-6.1338783464566928
11
7.4942616535433073
21
-6.1301288188976377
0
LINE
8
BLACK
6
CONTINUOUS
10
7.4942616535433073
20
-6.1301288188976377
11
7.483013070866142
21
-6.1301288188976377
0
LINE
8
BLACK
6
CONTINUOUS
10
7.483013070866142
20
-6.1301288188976377
11
7.4755140157480318
21
-6.1263792913385826
0
LINE
8
BLACK
6
CONTINUOUS
10
7.4755140157480318
20
-6.1263792913385826
11
7.4717644881889766
21
-6.1188802362204724
0
LINE
8
BLACK
6
CONTINUOUS
10
7.4717644881889766
20
-6.1188802362204724
11
7.4717644881889766
21
-6.1151307086614173
0
LINE
8
BLACK
6
CONTINUOUS
10
7.4717644881889766
20
-6.1151307086614173
11
7.4755140157480318
21
-6.1076316141732283
0
LINE
8
BLACK
6
CONTINUOUS
10
7.4755140157480318
20
-6.1076316141732283
11
7.483013070866142
21
-6.1038820866141732
0
LINE
8
BLACK
6
CONTINUOUS
10
7.483013070866142
20
-6.1038820866141732
11
7.4942616535433073
21
-6.1038820866141732
0
LINE
8
BLACK
6
CONTINUOUS
10
7.4942616535433073
20
-6.1038820866141732
11
7.5017607480314963
21
-6.1076316141732283
0
LINE
8
BLACK
6
CONTINUOUS
10
7.5317570078740159
20
-6.1863717716535431
11
7.535506535433071
21
-6.182622244094488
0
LINE
8
BLACK
6
CONTINUOUS
10
7.535506535433071
20
-6.182622244094488
11
7.5430055905511812
21
-6.1713736614173227
0
LINE
8
BLACK
6
CONTINUOUS
10
7.5430055905511812
20
-6.1713736614173227
11
7.5467551181102364
21
-6.1638746062992125
0
LINE
8
BLACK
6
CONTINUOUS
10
7.5467551181102364
20
-6.1638746062992125
11
7.5505046456692915
21
-6.1526260236220471
0
LINE
8
BLACK
6
CONTINUOUS
10
7.5505046456692915
20
-6.1526260236220471
11
7.5542541732283466
21
-6.1338783464566928
0
LINE
8
BLACK
6
CONTINUOUS
10
7.5542541732283466
20
-6.1338783464566928
11
7.5542541732283466
21
-6.1188802362204724
0
LINE
8
BLACK
6
CONTINUOUS
10
7.5542541732283466
20
-6.1188802362204724
11
7.5505046456692915
21
-6.1001325590551181
0
LINE
8
BLACK
6
CONTINUOUS
10
7.5505046456692915
20
-6.1001325590551181
11
7.5467551181102364
21
-6.0888839763779528
0
LINE
8
BLACK
6
CONTINUOUS
10
7.5467551181102364
20
-6.0888839763779528
11
7.5430055905511812
21
-6.0813849212598425
0
LINE
8
BLACK
6
CONTINUOUS
10
7.5430055905511812
20
-6.0813849212598425
11
7.535506535433071
21
-6.0701362992125985
0
LINE
8
BLACK
6
CONTINUOUS
10
7.535506535433071
20
-6.0701362992125985
11
7.5317570078740159
21
-6.0663867716535433
0
LINE
8
BLACK
6
CONTINUOUS
10
7.6742392125984251
20
-6.1863717716535431
11
7.6704896456692913
21
-6.182622244094488
0
LINE
8
BLACK
6
CONTINUOUS
10
7.6704896456692913
20
-6.182622244094488
11
7.662990590551181
21
-6.1713736614173227
0
LINE
8
BLACK
6
CONTINUOUS
10
7.662990590551181
20
-6.1713736614173227
11
7.6592410629921259
21
-6.1638746062992125
0
LINE
8
BLACK
6
CONTINUOUS
10
7.6592410629921259
20
-6.1638746062992125
11
7.6554915354330708
21
-6.1526260236220471
0
LINE
8
BLACK
6
CONTINUOUS
10
7.6554915354330708
20
-6.1526260236220471
11
7.6517420078740157
21
-6.1338783464566928
0
LINE
8
BLACK
6
CONTINUOUS
10
7.6517420078740157
20
-6.1338783464566928
11
7.6517420078740157
21
-6.1188802362204724
0
LINE
8
BLACK
6
CONTINUOUS
10
7.6517420078740157
20
-6.1188802362204724
11
7.6554915354330708
21
-6.1001325590551181
0
LINE
8
BLACK
6
CONTINUOUS
10
7.6554915354330708
20
-6.1001325590551181
11
7.6592410629921259
21
-6.0888839763779528
0
LINE
8
BLACK
6
CONTINUOUS
10
7.6592410629921259
20
-6.0888839763779528
11
7.662990590551181
21
-6.0813849212598425
0
LINE
8
BLACK
6
CONTINUOUS
10
7.662990590551181
20
-6.0813849212598425
11
7.6704896456692913
21
-6.0701362992125985
0
LINE
8
BLACK
6
CONTINUOUS
10
7.6704896456692913
20
-6.0701362992125985
11
7.6742392125984251
21
-6.0663867716535433
0
LINE
8
BLACK
6
CONTINUOUS
10
7.704235433070866
20
-6.1038820866141732
11
7.704235433070866
21
-6.1563755511811022
0
LINE
8
BLACK
6
CONTINUOUS
10
7.704235433070866
20
-6.1113811417322834
11
7.7079849606299211
21
-6.1076316141732283
0
LINE
8
BLACK
6
CONTINUOUS
10
7.7079849606299211
20
-6.1076316141732283
11
7.7154840157480313
21
-6.1038820866141732
0
LINE
8
BLACK
6
CONTINUOUS
10
7.7154840157480313
20
-6.1038820866141732
11
7.7267326377952754
21
-6.1038820866141732
0
LINE
8
BLACK
6
CONTINUOUS
10
7.7267326377952754
20
-6.1038820866141732
11
7.7342316929133856
21
-6.1076316141732283
0
LINE
8
BLACK
6
CONTINUOUS
10
7.7342316929133856
20
-6.1076316141732283
11
7.7379812204724407
21
-6.1151307086614173
0
LINE
8
BLACK
6
CONTINUOUS
10
7.7379812204724407
20
-6.1151307086614173
11
7.7379812204724407
21
-6.1563755511811022
0
LINE
8
BLACK
6
CONTINUOUS
10
7.7867251181102359
20
-6.1563755511811022
11
7.7792260629921257
21
-6.1526260236220471
0
LINE
8
BLACK
6
CONTINUOUS
10
7.7792260629921257
20
-6.1526260236220471
11
7.7754765354330706
21
-6.1488764566929133
0
LINE
8
BLACK
6
CONTINUOUS
10
7.7754765354330706
20
-6.1488764566929133
11
7.7717270078740155
21
-6.1413774015748031
0
LINE
8
BLACK
6
CONTINUOUS
10
7.7717270078740155
20
-6.1413774015748031
11
7.7717270078740155
21
-6.1188802362204724
0
LINE
8
BLACK
6
CONTINUOUS
10
7.7717270078740155
20
-6.1188802362204724
11
7.7754765354330706
21
-6.1113811417322834
0
LINE
8
BLACK
6
CONTINUOUS
10
7.7754765354330706
20
-6.1113811417322834
11
7.7792260629921257
21
-6.1076316141732283
0
LINE
8
BLACK
6
CONTINUOUS
10
7.7792260629921257
20
-6.1076316141732283
11
7.7867251181102359
21
-6.1038820866141732
0
LINE
8
BLACK
6
CONTINUOUS
10
7.7867251181102359
20
-6.1038820866141732
11
7.79797374015748
21
-6.1038820866141732
0
LINE
8
BLACK
6
CONTINUOUS
10
7.79797374015748
20
-6.1038820866141732
11
7.8054727952755902
21
-6.1076316141732283
0
LINE
8
BLACK
6
CONTINUOUS
10
7.8054727952755902
20
-6.1076316141732283
11
7.8092223228346453
21
-6.1113811417322834
0
LINE
8
BLACK
6
CONTINUOUS
10
7.8092223228346453
20
-6.1113811417322834
11
7.8129718503937005
21
-6.1188802362204724
0
LINE
8
BLACK
6
CONTINUOUS
10
7.8129718503937005
20
-6.1188802362204724
11
7.8129718503937005
21
-6.1413774015748031
0
LINE
8
BLACK
6
CONTINUOUS
10
7.8129718503937005
20
-6.1413774015748031
11
7.8092223228346453
21
-6.1488764566929133
0
LINE
8
BLACK
6
CONTINUOUS
10
7.8092223228346453
20
-6.1488764566929133
11
7.8054727952755902
21
-6.1526260236220471
0
LINE
8
BLACK
6
CONTINUOUS
10
7.8054727952755902
20
-6.1526260236220471
11
7.79797374015748
21
-6.1563755511811022
0
LINE
8
BLACK
6
CONTINUOUS
10
7.79797374015748
20
-6.1563755511811022
11
7.7867251181102359
21
-6.1563755511811022
0
LINE
8
BLACK
6
CONTINUOUS
10
7.8354690551181099
20
-6.1038820866141732
11
7.8654652755905508
21
-6.1038820866141732
0
LINE
8
BLACK
6
CONTINUOUS
10
7.8467176377952752
20
-6.0776353937007874
11
7.8467176377952752
21
-6.1451269291338582
0
LINE
8
BLACK
6
CONTINUOUS
10
7.8467176377952752
20
-6.1451269291338582
11
7.8504671653543303
21
-6.1526260236220471
0
LINE
8
BLACK
6
CONTINUOUS
10
7.8504671653543303
20
-6.1526260236220471
11
7.8579662204724405
21
-6.1563755511811022
0
LINE
8
BLACK
6
CONTINUOUS
10
7.8579662204724405
20
-6.1563755511811022
11
7.8654652755905508
21
-6.1563755511811022
0
LINE
8
BLACK
6
CONTINUOUS
10
7.9517045275590545
20
-6.1038820866141732
11
7.9517045275590545
21
-6.182622244094488
0
LINE
8
BLACK
6
CONTINUOUS
10
7.9517045275590545
20
-6.1076316141732283
11
7.9592035826771648
21
-6.1038820866141732
0
LINE
8
BLACK
6
CONTINUOUS
10
7.9592035826771648
20
-6.1038820866141732
11
7.974201732283464
21
-6.1038820866141732
0
LINE
8
BLACK
6
CONTINUOUS
10
7.974201732283464
20
-6.1038820866141732
11
7.9817007874015742
21
-6.1076316141732283
0
LINE
8
BLACK
6
CONTINUOUS
10
7.9817007874015742
20
-6.1076316141732283
11
7.9854503149606302
21
-6.1113811417322834
0
LINE
8
BLACK
6
CONTINUOUS
10
7.9854503149606302
20
-6.1113811417322834
11
7.9891998425196853
21
-6.1188802362204724
0
LINE
8
BLACK
6
CONTINUOUS
10
7.9891998425196853
20
-6.1188802362204724
11
7.9891998425196853
21
-6.1413774015748031
0
LINE
8
BLACK
6
CONTINUOUS
10
7.9891998425196853
20
-6.1413774015748031
11
7.9854503149606302
21
-6.1488764566929133
0
LINE
8
BLACK
6
CONTINUOUS
10
7.9854503149606302
20
-6.1488764566929133
11
7.9817007874015742
21
-6.1526260236220471
0
LINE
8
BLACK
6
CONTINUOUS
10
7.9817007874015742
20
-6.1526260236220471
11
7.974201732283464
21
-6.1563755511811022
0
LINE
8
BLACK
6
CONTINUOUS
10
7.974201732283464
20
-6.1563755511811022
11
7.9592035826771648
21
-6.1563755511811022
0
LINE
8
BLACK
6
CONTINUOUS
10
7.9592035826771648
20
-6.1563755511811022
11
7.9517045275590545
21
-6.1526260236220471
0
LINE
8
BLACK
6
CONTINUOUS
10
8.0341942125984254
20
-6.1563755511811022
11
8.0266951574803151
21
-6.1526260236220471
0
LINE
8
BLACK
6
CONTINUOUS
10
8.0266951574803151
20
-6.1526260236220471
11
8.02294562992126
21
-6.1451269291338582
0
LINE
8
BLACK
6
CONTINUOUS
10
8.02294562992126
20
-6.1451269291338582
11
8.02294562992126
21
-6.0776353937007874
0
LINE
8
BLACK
6
CONTINUOUS
10
8.0979362598425197
20
-6.1563755511811022
11
8.0979362598425197
21
-6.1151307086614173
0
LINE
8
BLACK
6
CONTINUOUS
10
8.0979362598425197
20
-6.1151307086614173
11
8.0941867322834646
21
-6.1076316141732283
0
LINE
8
BLACK
6
CONTINUOUS
10
8.0941867322834646
20
-6.1076316141732283
11
8.0866876771653544
21
-6.1038820866141732
0
LINE
8
BLACK
6
CONTINUOUS
10
8.0866876771653544
20
-6.1038820866141732
11
8.0716895275590552
21
-6.1038820866141732
0
LINE
8
BLACK
6
CONTINUOUS
10
8.0716895275590552
20
-6.1038820866141732
11
8.064190472440945
21
-6.1076316141732283
0
LINE
8
BLACK
6
CONTINUOUS
10
8.0979362598425197
20
-6.1526260236220471
11
8.0904372047244095
21
-6.1563755511811022
0
LINE
8
BLACK
6
CONTINUOUS
10
8.0904372047244095
20
-6.1563755511811022
11
8.0716895275590552
21
-6.1563755511811022
0
LINE
8
BLACK
6
CONTINUOUS
10
8.0716895275590552
20
-6.1563755511811022
11
8.064190472440945
21
-6.1526260236220471
0
LINE
8
BLACK
6
CONTINUOUS
10
8.064190472440945
20
-6.1526260236220471
11
8.0604409448818899
21
-6.1451269291338582
0
LINE
8
BLACK
6
CONTINUOUS
10
8.0604409448818899
20
-6.1451269291338582
11
8.0604409448818899
21
-6.1376278740157479
0
LINE
8
BLACK
6
CONTINUOUS
10
8.0604409448818899
20
-6.1376278740157479
11
8.064190472440945
21
-6.1301288188976377
0
LINE
8
BLACK
6
CONTINUOUS
10
8.064190472440945
20
-6.1301288188976377
11
8.0716895275590552
21
-6.1263792913385826
0
LINE
8
BLACK
6
CONTINUOUS
10
8.0716895275590552
20
-6.1263792913385826
11
8.0904372047244095
21
-6.1263792913385826
0
LINE
8
BLACK
6
CONTINUOUS
10
8.0904372047244095
20
-6.1263792913385826
11
8.0979362598425197
21
-6.1226297637795275
0
LINE
8
BLACK
6
CONTINUOUS
10
8.1241829921259843
20
-6.1038820866141732
11
8.1541792125984252
21
-6.1038820866141732
0
LINE
8
BLACK
6
CONTINUOUS
10
8.1354315748031496
20
-6.0776353937007874
11
8.1354315748031496
21
-6.1451269291338582
0
LINE
8
BLACK
6
CONTINUOUS
10
8.1354315748031496
20
-6.1451269291338582
11
8.1391811023622047
21
-6.1526260236220471
0
LINE
8
BLACK
6
CONTINUOUS
10
8.1391811023622047
20
-6.1526260236220471
11
8.1466801574803149
21
-6.1563755511811022
0
LINE
8
BLACK
6
CONTINUOUS
10
8.1466801574803149
20
-6.1563755511811022
11
8.1541792125984252
21
-6.1563755511811022
0
LINE
8
BLACK
6
CONTINUOUS
10
8.2104222047244093
20
-6.1526260236220471
11
8.2029231496062991
21
-6.1563755511811022
0
LINE
8
BLACK
6
CONTINUOUS
10
8.2029231496062991
20
-6.1563755511811022
11
8.1879249999999999
21
-6.1563755511811022
0
LINE
8
BLACK
6
CONTINUOUS
10
8.1879249999999999
20
-6.1563755511811022
11
8.1804259448818897
21
-6.1526260236220471
0
LINE
8
BLACK
6
CONTINUOUS
10
8.1804259448818897
20
-6.1526260236220471
11
8.1766764173228346
21
-6.1451269291338582
0
LINE
8
BLACK
6
CONTINUOUS
10
8.1766764173228346
20
-6.1451269291338582
11
8.1766764173228346
21
-6.1151307086614173
0
LINE
8
BLACK
6
CONTINUOUS
10
8.1766764173228346
20
-6.1151307086614173
11
8.1804259448818897
21
-6.1076316141732283
0
LINE
8
BLACK
6
CONTINUOUS
10
8.1804259448818897
20
-6.1076316141732283
11
8.1879249999999999
21
-6.1038820866141732
0
LINE
8
BLACK
6
CONTINUOUS
10
8.1879249999999999
20
-6.1038820866141732
11
8.2029231496062991
21
-6.1038820866141732
0
LINE
8
BLACK
6
CONTINUOUS
10
8.2029231496062991
20
-6.1038820866141732
11
8.2104222047244093
21
-6.1076316141732283
0
LINE
8
BLACK
6
CONTINUOUS
10
8.2104222047244093
20
-6.1076316141732283
11
8.2141717322834644
21
-6.1151307086614173
0
LINE
8
BLACK
6
CONTINUOUS
10
8.2141717322834644
20
-6.1151307086614173
11
8.2141717322834644
21
-6.1226297637795275
0
LINE
8
BLACK
6
CONTINUOUS
10
8.2141717322834644
20
-6.1226297637795275
11
8.1766764173228346
21
-6.1301288188976377
0
LINE
8
BLACK
6
CONTINUOUS
10
8.2816633070866139
20
-6.1563755511811022
11
8.2816633070866139
21
-6.0776353937007874
0
LINE
8
BLACK
6
CONTINUOUS
10
8.2816633070866139
20
-6.1526260236220471
11
8.2741642519685037
21
-6.1563755511811022
0
LINE
8
BLACK
6
CONTINUOUS
10
8.2741642519685037
20
-6.1563755511811022
11
8.2591661023622045
21
-6.1563755511811022
0
LINE
8
BLACK
6
CONTINUOUS
10
8.2591661023622045
20
-6.1563755511811022
11
8.2516670472440943
21
-6.1526260236220471
0
LINE
8
BLACK
6
CONTINUOUS
10
8.2516670472440943
20
-6.1526260236220471
11
8.2479175196850392
21
-6.1488764566929133
0
LINE
8
BLACK
6
CONTINUOUS
10
8.2479175196850392
20
-6.1488764566929133
11
8.2441679921259841
21
-6.1413774015748031
0
LINE
8
BLACK
6
CONTINUOUS
10
8.2441679921259841
20
-6.1413774015748031
11
8.2441679921259841
21
-6.1188802362204724
0
LINE
8
BLACK
6
CONTINUOUS
10
8.2441679921259841
20
-6.1188802362204724
11
8.2479175196850392
21
-6.1113811417322834
0
LINE
8
BLACK
6
CONTINUOUS
10
8.2479175196850392
20
-6.1113811417322834
11
8.2516670472440943
21
-6.1076316141732283
0
LINE
8
BLACK
6
CONTINUOUS
10
8.2516670472440943
20
-6.1076316141732283
11
8.2591661023622045
21
-6.1038820866141732
0
LINE
8
BLACK
6
CONTINUOUS
10
8.2591661023622045
20
-6.1038820866141732
11
8.2741642519685037
21
-6.1038820866141732
0
LINE
8
BLACK
6
CONTINUOUS
10
8.2741642519685037
20
-6.1038820866141732
11
8.2816633070866139
21
-6.1076316141732283
0
LINE
8
BLACK
6
CONTINUOUS
10
8.3116595669291335
20
-6.1863717716535431
11
8.3154090944881887
21
-6.182622244094488
0
LINE
8
BLACK
6
CONTINUOUS
10
8.3154090944881887
20
-6.182622244094488
11
8.3229081496062989
21
-6.1713736614173227
0
LINE
8
BLACK
6
CONTINUOUS
10
8.3229081496062989
20
-6.1713736614173227
11
8.326657677165354
21
-6.1638746062992125
0
LINE
8
BLACK
6
CONTINUOUS
10
8.326657677165354
20
-6.1638746062992125
11
8.3304072047244091
21
-6.1526260236220471
0
LINE
8
BLACK
6
CONTINUOUS
10
8.3304072047244091
20
-6.1526260236220471
11
8.3341567322834642
21
-6.1338783464566928
0
LINE
8
BLACK
6
CONTINUOUS
10
8.3341567322834642
20
-6.1338783464566928
11
8.3341567322834642
21
-6.1188802362204724
0
LINE
8
BLACK
6
CONTINUOUS
10
8.3341567322834642
20
-6.1188802362204724
11
8.3304072047244091
21
-6.1001325590551181
0
LINE
8
BLACK
6
CONTINUOUS
10
8.3304072047244091
20
-6.1001325590551181
11
8.326657677165354
21
-6.0888839763779528
0
LINE
8
BLACK
6
CONTINUOUS
10
8.326657677165354
20
-6.0888839763779528
11
8.3229081496062989
21
-6.0813849212598425
0
LINE
8
BLACK
6
CONTINUOUS
10
8.3229081496062989
20
-6.0813849212598425
11
8.3154090944881887
21
-6.0701362992125985
0
LINE
8
BLACK
6
CONTINUOUS
10
8.3154090944881887
20
-6.0701362992125985
11
8.3116595669291335
21
-6.0663867716535433
  0
ENDSEC
  0
EOF
