%TF.GenerationSoftware,KiCad,Pcbnew,6.0.7-f9a2dced07~116~ubuntu20.04.1*%
%TF.CreationDate,2022-12-18T15:13:05-08:00*%
%TF.ProjectId,ButtonBd2,42757474-6f6e-4426-9432-2e6b69636164,rev?*%
%TF.SameCoordinates,Original*%
%TF.FileFunction,Soldermask,Top*%
%TF.FilePolarity,Negative*%
%FSLAX46Y46*%
G04 Gerber Fmt 4.6, Leading zero omitted, Abs format (unit mm)*
G04 Created by KiCad (PCBNEW 6.0.7-f9a2dced07~116~ubuntu20.04.1) date 2022-12-18 15:13:05*
%MOMM*%
%LPD*%
G01*
G04 APERTURE LIST*
G04 Aperture macros list*
%AMRoundRect*
0 Rectangle with rounded corners*
0 $1 Rounding radius*
0 $2 $3 $4 $5 $6 $7 $8 $9 X,Y pos of 4 corners*
0 Add a 4 corners polygon primitive as box body*
4,1,4,$2,$3,$4,$5,$6,$7,$8,$9,$2,$3,0*
0 Add four circle primitives for the rounded corners*
1,1,$1+$1,$2,$3*
1,1,$1+$1,$4,$5*
1,1,$1+$1,$6,$7*
1,1,$1+$1,$8,$9*
0 Add four rect primitives between the rounded corners*
20,1,$1+$1,$2,$3,$4,$5,0*
20,1,$1+$1,$4,$5,$6,$7,0*
20,1,$1+$1,$6,$7,$8,$9,0*
20,1,$1+$1,$8,$9,$2,$3,0*%
G04 Aperture macros list end*
%ADD10RoundRect,0.218750X0.256250X-0.218750X0.256250X0.218750X-0.256250X0.218750X-0.256250X-0.218750X0*%
%ADD11R,1.600200X1.905000*%
%ADD12O,1.600200X1.905000*%
%ADD13RoundRect,0.200000X0.275000X-0.200000X0.275000X0.200000X-0.275000X0.200000X-0.275000X-0.200000X0*%
%ADD14RoundRect,0.225000X0.250000X-0.225000X0.250000X0.225000X-0.250000X0.225000X-0.250000X-0.225000X0*%
%ADD15R,1.905000X1.600200*%
%ADD16O,1.905000X1.600200*%
%ADD17RoundRect,0.218750X0.218750X0.256250X-0.218750X0.256250X-0.218750X-0.256250X0.218750X-0.256250X0*%
%ADD18C,3.200000*%
%ADD19RoundRect,0.225000X-0.250000X0.225000X-0.250000X-0.225000X0.250000X-0.225000X0.250000X0.225000X0*%
%ADD20RoundRect,0.150000X0.587500X0.150000X-0.587500X0.150000X-0.587500X-0.150000X0.587500X-0.150000X0*%
%ADD21RoundRect,0.218750X-0.218750X-0.256250X0.218750X-0.256250X0.218750X0.256250X-0.218750X0.256250X0*%
%ADD22RoundRect,0.250000X0.262500X0.450000X-0.262500X0.450000X-0.262500X-0.450000X0.262500X-0.450000X0*%
%ADD23RoundRect,0.200000X-0.275000X0.200000X-0.275000X-0.200000X0.275000X-0.200000X0.275000X0.200000X0*%
%ADD24RoundRect,0.150000X0.150000X-0.587500X0.150000X0.587500X-0.150000X0.587500X-0.150000X-0.587500X0*%
%ADD25R,1.700000X1.700000*%
%ADD26C,1.700000*%
%ADD27RoundRect,0.225000X0.225000X0.250000X-0.225000X0.250000X-0.225000X-0.250000X0.225000X-0.250000X0*%
G04 APERTURE END LIST*
D10*
%TO.C,D21*%
X145542000Y-94005500D03*
X145542000Y-92430500D03*
%TD*%
D11*
%TO.C,J22*%
X113030000Y-100965000D03*
D12*
X115570000Y-100965000D03*
%TD*%
D13*
%TO.C,R2*%
X94996000Y-70548000D03*
X94996000Y-68898000D03*
%TD*%
D11*
%TO.C,J24*%
X128270000Y-100965000D03*
D12*
X130810000Y-100965000D03*
%TD*%
D14*
%TO.C,C4*%
X136398000Y-86754000D03*
X136398000Y-85204000D03*
%TD*%
D15*
%TO.C,J13*%
X149733000Y-86360000D03*
D16*
X149733000Y-83820000D03*
X149733000Y-81280000D03*
X149733000Y-78740000D03*
X149733000Y-76200000D03*
X149733000Y-73660000D03*
X149733000Y-71120000D03*
X149733000Y-68580000D03*
%TD*%
D10*
%TO.C,D11*%
X93472000Y-70510500D03*
X93472000Y-68935500D03*
%TD*%
D11*
%TO.C,J6*%
X102870000Y-61595000D03*
D12*
X100330000Y-61595000D03*
%TD*%
D17*
%TO.C,D3*%
X79527500Y-65786000D03*
X77952500Y-65786000D03*
%TD*%
D10*
%TO.C,D16*%
X108712000Y-70510500D03*
X108712000Y-68935500D03*
%TD*%
%TO.C,D15*%
X105664000Y-70510500D03*
X105664000Y-68935500D03*
%TD*%
D14*
%TO.C,C1*%
X139954000Y-71387000D03*
X139954000Y-69837000D03*
%TD*%
D11*
%TO.C,J16*%
X62230000Y-100965000D03*
D12*
X64770000Y-100965000D03*
X67310000Y-100965000D03*
X69850000Y-100965000D03*
%TD*%
D18*
%TO.C,H2*%
X150495000Y-60960000D03*
%TD*%
D10*
%TO.C,D13*%
X99568000Y-70510500D03*
X99568000Y-68935500D03*
%TD*%
D19*
%TO.C,C3*%
X140032500Y-79301000D03*
X140032500Y-80851000D03*
%TD*%
D11*
%TO.C,J3*%
X80010000Y-61595000D03*
D12*
X77470000Y-61595000D03*
%TD*%
D15*
%TO.C,J15*%
X149733000Y-94615000D03*
D16*
X149733000Y-92075000D03*
%TD*%
D18*
%TO.C,H3*%
X54610000Y-101600000D03*
%TD*%
D17*
%TO.C,D8*%
X117627500Y-65786000D03*
X116052500Y-65786000D03*
%TD*%
D20*
%TO.C,D20*%
X136446500Y-90358000D03*
X136446500Y-88458000D03*
X134571500Y-89408000D03*
%TD*%
D21*
%TO.C,D24*%
X83032500Y-96774000D03*
X84607500Y-96774000D03*
%TD*%
D11*
%TO.C,J12*%
X118110000Y-74295000D03*
D12*
X120650000Y-74295000D03*
X123190000Y-74295000D03*
X125730000Y-74295000D03*
X128270000Y-74295000D03*
X130810000Y-74295000D03*
%TD*%
D11*
%TO.C,J2*%
X72390000Y-61595000D03*
D12*
X69850000Y-61595000D03*
%TD*%
D10*
%TO.C,D14*%
X102616000Y-70510500D03*
X102616000Y-68935500D03*
%TD*%
D11*
%TO.C,J19*%
X90170000Y-100965000D03*
D12*
X92710000Y-100965000D03*
%TD*%
D11*
%TO.C,J14*%
X118110000Y-86995000D03*
D12*
X120650000Y-86995000D03*
X123190000Y-86995000D03*
X125730000Y-86995000D03*
X128270000Y-86995000D03*
X130810000Y-86995000D03*
%TD*%
D21*
%TO.C,D25*%
X90652500Y-96774000D03*
X92227500Y-96774000D03*
%TD*%
%TO.C,D30*%
X128752500Y-96774000D03*
X130327500Y-96774000D03*
%TD*%
D10*
%TO.C,D12*%
X96520000Y-70510500D03*
X96520000Y-68935500D03*
%TD*%
D11*
%TO.C,J18*%
X82550000Y-100965000D03*
D12*
X85090000Y-100965000D03*
%TD*%
D11*
%TO.C,J11*%
X56515000Y-68707000D03*
D12*
X53975000Y-68707000D03*
%TD*%
D20*
%TO.C,D17*%
X143685500Y-71562000D03*
X143685500Y-69662000D03*
X141810500Y-70612000D03*
%TD*%
D13*
%TO.C,R3*%
X98044000Y-70548000D03*
X98044000Y-68898000D03*
%TD*%
D21*
%TO.C,D27*%
X105892500Y-96774000D03*
X107467500Y-96774000D03*
%TD*%
D11*
%TO.C,J4*%
X87630000Y-61595000D03*
D12*
X85090000Y-61595000D03*
%TD*%
D22*
%TO.C,R8*%
X65682500Y-96774000D03*
X63857500Y-96774000D03*
%TD*%
D23*
%TO.C,R7*%
X114427000Y-73343000D03*
X114427000Y-74993000D03*
%TD*%
D11*
%TO.C,J23*%
X120650000Y-100965000D03*
D12*
X123190000Y-100965000D03*
%TD*%
D21*
%TO.C,D28*%
X113512500Y-96774000D03*
X115087500Y-96774000D03*
%TD*%
D17*
%TO.C,D6*%
X102387500Y-65786000D03*
X100812500Y-65786000D03*
%TD*%
D13*
%TO.C,R4*%
X101092000Y-70548000D03*
X101092000Y-68898000D03*
%TD*%
D18*
%TO.C,H4*%
X150495000Y-101600000D03*
%TD*%
D13*
%TO.C,R1*%
X91948000Y-70548000D03*
X91948000Y-68898000D03*
%TD*%
D11*
%TO.C,J20*%
X97790000Y-100965000D03*
D12*
X100330000Y-100965000D03*
%TD*%
D11*
%TO.C,J10*%
X133350000Y-61595000D03*
D12*
X130810000Y-61595000D03*
%TD*%
D11*
%TO.C,J1*%
X64770000Y-61595000D03*
D12*
X62230000Y-61595000D03*
%TD*%
D11*
%TO.C,J8*%
X118110000Y-61595000D03*
D12*
X115570000Y-61595000D03*
%TD*%
D17*
%TO.C,D4*%
X87147500Y-65786000D03*
X85572500Y-65786000D03*
%TD*%
D13*
%TO.C,R6*%
X107188000Y-70548000D03*
X107188000Y-68898000D03*
%TD*%
D17*
%TO.C,D1*%
X64287500Y-65786000D03*
X62712500Y-65786000D03*
%TD*%
%TO.C,D9*%
X125247500Y-65786000D03*
X123672500Y-65786000D03*
%TD*%
D24*
%TO.C,D22*%
X67630000Y-96949500D03*
X69530000Y-96949500D03*
X68580000Y-95074500D03*
%TD*%
D18*
%TO.C,H1*%
X54610000Y-60960000D03*
%TD*%
D17*
%TO.C,D5*%
X94767500Y-65786000D03*
X93192500Y-65786000D03*
%TD*%
%TO.C,D10*%
X132867500Y-65786000D03*
X131292500Y-65786000D03*
%TD*%
%TO.C,D2*%
X71907500Y-65786000D03*
X70332500Y-65786000D03*
%TD*%
D11*
%TO.C,J9*%
X125730000Y-61595000D03*
D12*
X123190000Y-61595000D03*
%TD*%
D11*
%TO.C,J7*%
X110490000Y-61595000D03*
D12*
X107950000Y-61595000D03*
%TD*%
D11*
%TO.C,J17*%
X74930000Y-100965000D03*
D12*
X77470000Y-100965000D03*
%TD*%
D21*
%TO.C,D29*%
X121132500Y-96774000D03*
X122707500Y-96774000D03*
%TD*%
%TO.C,D31*%
X136372500Y-96774000D03*
X137947500Y-96774000D03*
%TD*%
D20*
%TO.C,D19*%
X143764000Y-81026000D03*
X143764000Y-79126000D03*
X141889000Y-80076000D03*
%TD*%
D21*
%TO.C,D23*%
X75666500Y-96774000D03*
X77241500Y-96774000D03*
%TD*%
%TO.C,D26*%
X98272500Y-96774000D03*
X99847500Y-96774000D03*
%TD*%
D25*
%TO.C,U1*%
X53340000Y-88900000D03*
D26*
X55880000Y-88900000D03*
X58420000Y-88900000D03*
X60960000Y-88900000D03*
X63500000Y-88900000D03*
X66040000Y-88900000D03*
X68580000Y-88900000D03*
X71120000Y-88900000D03*
X73660000Y-88900000D03*
X76200000Y-88900000D03*
X78740000Y-88900000D03*
X81280000Y-88900000D03*
X83820000Y-88900000D03*
X86360000Y-88900000D03*
X88900000Y-88900000D03*
X91440000Y-88900000D03*
X93980000Y-88900000D03*
X96520000Y-88900000D03*
X99060000Y-88900000D03*
X101600000Y-88900000D03*
X104140000Y-88900000D03*
X106680000Y-88900000D03*
X109220000Y-88900000D03*
X111760000Y-88900000D03*
X111760000Y-73660000D03*
X109220000Y-73660000D03*
X106680000Y-73660000D03*
X104140000Y-73660000D03*
X101600000Y-73660000D03*
X99060000Y-73660000D03*
X96520000Y-73660000D03*
X93980000Y-73660000D03*
X91440000Y-73660000D03*
X88900000Y-73660000D03*
X86360000Y-73660000D03*
X83820000Y-73660000D03*
X81280000Y-73660000D03*
X78740000Y-73660000D03*
X76200000Y-73660000D03*
X73660000Y-73660000D03*
X71120000Y-73660000D03*
X68580000Y-73660000D03*
X66040000Y-73660000D03*
X63500000Y-73660000D03*
X60960000Y-73660000D03*
X58420000Y-73660000D03*
X55880000Y-73660000D03*
X53340000Y-73660000D03*
%TD*%
D27*
%TO.C,C5*%
X65799000Y-93472000D03*
X64249000Y-93472000D03*
%TD*%
D20*
%TO.C,D18*%
X136827500Y-73340000D03*
X136827500Y-71440000D03*
X134952500Y-72390000D03*
%TD*%
D11*
%TO.C,J21*%
X105410000Y-100965000D03*
D12*
X107950000Y-100965000D03*
%TD*%
D14*
%TO.C,C2*%
X136779000Y-76848000D03*
X136779000Y-75298000D03*
%TD*%
D17*
%TO.C,D7*%
X110007500Y-65786000D03*
X108432500Y-65786000D03*
%TD*%
D13*
%TO.C,R5*%
X104140000Y-70548000D03*
X104140000Y-68898000D03*
%TD*%
D11*
%TO.C,J25*%
X135890000Y-100965000D03*
D12*
X138430000Y-100965000D03*
%TD*%
D11*
%TO.C,J5*%
X95250000Y-61595000D03*
D12*
X92710000Y-61595000D03*
%TD*%
M02*
