%TF.GenerationSoftware,KiCad,Pcbnew,6.0.7-f9a2dced07~116~ubuntu20.04.1*%
%TF.CreationDate,2022-12-18T15:13:05-08:00*%
%TF.ProjectId,ButtonBd2,42757474-6f6e-4426-9432-2e6b69636164,rev?*%
%TF.SameCoordinates,Original*%
%TF.FileFunction,Copper,L4,Bot*%
%TF.FilePolarity,Positive*%
%FSLAX46Y46*%
G04 Gerber Fmt 4.6, Leading zero omitted, Abs format (unit mm)*
G04 Created by KiCad (PCBNEW 6.0.7-f9a2dced07~116~ubuntu20.04.1) date 2022-12-18 15:13:05*
%MOMM*%
%LPD*%
G01*
G04 APERTURE LIST*
G04 Aperture macros list*
%AMRoundRect*
0 Rectangle with rounded corners*
0 $1 Rounding radius*
0 $2 $3 $4 $5 $6 $7 $8 $9 X,Y pos of 4 corners*
0 Add a 4 corners polygon primitive as box body*
4,1,4,$2,$3,$4,$5,$6,$7,$8,$9,$2,$3,0*
0 Add four circle primitives for the rounded corners*
1,1,$1+$1,$2,$3*
1,1,$1+$1,$4,$5*
1,1,$1+$1,$6,$7*
1,1,$1+$1,$8,$9*
0 Add four rect primitives between the rounded corners*
20,1,$1+$1,$2,$3,$4,$5,0*
20,1,$1+$1,$4,$5,$6,$7,0*
20,1,$1+$1,$6,$7,$8,$9,0*
20,1,$1+$1,$8,$9,$2,$3,0*%
G04 Aperture macros list end*
%TA.AperFunction,ComponentPad*%
%ADD10R,1.600200X1.905000*%
%TD*%
%TA.AperFunction,ComponentPad*%
%ADD11O,1.600200X1.905000*%
%TD*%
%TA.AperFunction,ComponentPad*%
%ADD12R,1.905000X1.600200*%
%TD*%
%TA.AperFunction,ComponentPad*%
%ADD13O,1.905000X1.600200*%
%TD*%
%TA.AperFunction,ComponentPad*%
%ADD14R,1.700000X1.700000*%
%TD*%
%TA.AperFunction,ComponentPad*%
%ADD15C,1.700000*%
%TD*%
%TA.AperFunction,SMDPad,CuDef*%
%ADD16RoundRect,0.200000X0.200000X0.275000X-0.200000X0.275000X-0.200000X-0.275000X0.200000X-0.275000X0*%
%TD*%
%TA.AperFunction,SMDPad,CuDef*%
%ADD17RoundRect,0.200000X0.275000X-0.200000X0.275000X0.200000X-0.275000X0.200000X-0.275000X-0.200000X0*%
%TD*%
%TA.AperFunction,SMDPad,CuDef*%
%ADD18RoundRect,0.200000X-0.200000X-0.275000X0.200000X-0.275000X0.200000X0.275000X-0.200000X0.275000X0*%
%TD*%
%TA.AperFunction,SMDPad,CuDef*%
%ADD19RoundRect,0.150000X0.825000X0.150000X-0.825000X0.150000X-0.825000X-0.150000X0.825000X-0.150000X0*%
%TD*%
%TA.AperFunction,SMDPad,CuDef*%
%ADD20RoundRect,0.225000X-0.225000X-0.250000X0.225000X-0.250000X0.225000X0.250000X-0.225000X0.250000X0*%
%TD*%
%TA.AperFunction,SMDPad,CuDef*%
%ADD21RoundRect,0.150000X0.587500X0.150000X-0.587500X0.150000X-0.587500X-0.150000X0.587500X-0.150000X0*%
%TD*%
%TA.AperFunction,SMDPad,CuDef*%
%ADD22RoundRect,0.225000X0.250000X-0.225000X0.250000X0.225000X-0.250000X0.225000X-0.250000X-0.225000X0*%
%TD*%
%TA.AperFunction,SMDPad,CuDef*%
%ADD23RoundRect,0.225000X0.225000X0.250000X-0.225000X0.250000X-0.225000X-0.250000X0.225000X-0.250000X0*%
%TD*%
%TA.AperFunction,SMDPad,CuDef*%
%ADD24RoundRect,0.225000X-0.250000X0.225000X-0.250000X-0.225000X0.250000X-0.225000X0.250000X0.225000X0*%
%TD*%
%TA.AperFunction,SMDPad,CuDef*%
%ADD25RoundRect,0.200000X-0.275000X0.200000X-0.275000X-0.200000X0.275000X-0.200000X0.275000X0.200000X0*%
%TD*%
%TA.AperFunction,SMDPad,CuDef*%
%ADD26RoundRect,0.250000X-0.250000X-0.475000X0.250000X-0.475000X0.250000X0.475000X-0.250000X0.475000X0*%
%TD*%
%TA.AperFunction,SMDPad,CuDef*%
%ADD27RoundRect,0.150000X-0.587500X-0.150000X0.587500X-0.150000X0.587500X0.150000X-0.587500X0.150000X0*%
%TD*%
%TA.AperFunction,SMDPad,CuDef*%
%ADD28R,0.600000X0.700000*%
%TD*%
%TA.AperFunction,SMDPad,CuDef*%
%ADD29RoundRect,0.150000X-0.825000X-0.150000X0.825000X-0.150000X0.825000X0.150000X-0.825000X0.150000X0*%
%TD*%
%TA.AperFunction,SMDPad,CuDef*%
%ADD30R,1.100000X1.100000*%
%TD*%
%TA.AperFunction,SMDPad,CuDef*%
%ADD31RoundRect,0.150000X-0.150000X0.725000X-0.150000X-0.725000X0.150000X-0.725000X0.150000X0.725000X0*%
%TD*%
%TA.AperFunction,ViaPad*%
%ADD32C,0.800000*%
%TD*%
%TA.AperFunction,Conductor*%
%ADD33C,0.381000*%
%TD*%
%TA.AperFunction,Conductor*%
%ADD34C,0.508000*%
%TD*%
%TA.AperFunction,Conductor*%
%ADD35C,0.635000*%
%TD*%
G04 APERTURE END LIST*
D10*
%TO.P,J22,1,Pin_1*%
%TO.N,GND*%
X113030000Y-100965000D03*
D11*
%TO.P,J22,2,Pin_2*%
%TO.N,/Button Inputs/BN14*%
X115570000Y-100965000D03*
%TD*%
D10*
%TO.P,J24,1,Pin_1*%
%TO.N,GND*%
X128270000Y-100965000D03*
D11*
%TO.P,J24,2,Pin_2*%
%TO.N,/Button Inputs/BN12*%
X130810000Y-100965000D03*
%TD*%
D12*
%TO.P,J13,1,Pin_1*%
%TO.N,GND*%
X149733000Y-86360000D03*
D13*
%TO.P,J13,2,Pin_2*%
%TO.N,+3.3V*%
X149733000Y-83820000D03*
%TO.P,J13,3,Pin_3*%
%TO.N,/ABS0*%
X149733000Y-81280000D03*
%TO.P,J13,4,Pin_4*%
%TO.N,/ABS1*%
X149733000Y-78740000D03*
%TO.P,J13,5,Pin_5*%
%TO.N,GND*%
X149733000Y-76200000D03*
%TO.P,J13,6,Pin_6*%
%TO.N,+3.3V*%
X149733000Y-73660000D03*
%TO.P,J13,7,Pin_7*%
%TO.N,/ABS2*%
X149733000Y-71120000D03*
%TO.P,J13,8,Pin_8*%
%TO.N,/ABS3*%
X149733000Y-68580000D03*
%TD*%
D10*
%TO.P,J6,1,Pin_1*%
%TO.N,GND*%
X102870000Y-61595000D03*
D11*
%TO.P,J6,2,Pin_2*%
%TO.N,/Button Inputs/BN5*%
X100330000Y-61595000D03*
%TD*%
D10*
%TO.P,J16,1,Pin_1*%
%TO.N,GND*%
X62230000Y-100965000D03*
D11*
%TO.P,J16,2,Pin_2*%
%TO.N,/+5V_{IN}*%
X64770000Y-100965000D03*
%TO.P,J16,3,Pin_3*%
%TO.N,/CAN_H*%
X67310000Y-100965000D03*
%TO.P,J16,4,Pin_4*%
%TO.N,/CAN_L*%
X69850000Y-100965000D03*
%TD*%
D10*
%TO.P,J3,1,Pin_1*%
%TO.N,GND*%
X80010000Y-61595000D03*
D11*
%TO.P,J3,2,Pin_2*%
%TO.N,/Button Inputs/BN2*%
X77470000Y-61595000D03*
%TD*%
D12*
%TO.P,J15,1,Pin_1*%
%TO.N,GND*%
X149733000Y-94615000D03*
D13*
%TO.P,J15,2,Pin_2*%
%TO.N,/Button Inputs/BN10*%
X149733000Y-92075000D03*
%TD*%
D10*
%TO.P,J12,1,Pin_1*%
%TO.N,GND*%
X118110000Y-74295000D03*
D11*
%TO.P,J12,2,Pin_2*%
%TO.N,+5V*%
X120650000Y-74295000D03*
%TO.P,J12,3,Pin_3*%
%TO.N,+3.3V*%
X123190000Y-74295000D03*
%TO.P,J12,4,Pin_4*%
%TO.N,/ENC1_A*%
X125730000Y-74295000D03*
%TO.P,J12,5,Pin_5*%
%TO.N,/ENC1_B*%
X128270000Y-74295000D03*
%TO.P,J12,6,Pin_6*%
%TO.N,/ENC1_ABS*%
X130810000Y-74295000D03*
%TD*%
D10*
%TO.P,J2,1,Pin_1*%
%TO.N,GND*%
X72390000Y-61595000D03*
D11*
%TO.P,J2,2,Pin_2*%
%TO.N,/Button Inputs/BN1*%
X69850000Y-61595000D03*
%TD*%
D10*
%TO.P,J19,1,Pin_1*%
%TO.N,GND*%
X90170000Y-100965000D03*
D11*
%TO.P,J19,2,Pin_2*%
%TO.N,/Button Inputs/BN17*%
X92710000Y-100965000D03*
%TD*%
D10*
%TO.P,J14,1,Pin_1*%
%TO.N,GND*%
X118110000Y-86995000D03*
D11*
%TO.P,J14,2,Pin_2*%
%TO.N,+5V*%
X120650000Y-86995000D03*
%TO.P,J14,3,Pin_3*%
%TO.N,+3.3V*%
X123190000Y-86995000D03*
%TO.P,J14,4,Pin_4*%
%TO.N,/ENC0_A*%
X125730000Y-86995000D03*
%TO.P,J14,5,Pin_5*%
%TO.N,/ENC0_B*%
X128270000Y-86995000D03*
%TO.P,J14,6,Pin_6*%
%TO.N,/ENC0_ABS*%
X130810000Y-86995000D03*
%TD*%
D10*
%TO.P,J18,1,Pin_1*%
%TO.N,GND*%
X82550000Y-100965000D03*
D11*
%TO.P,J18,2,Pin_2*%
%TO.N,/Button Inputs/BN18*%
X85090000Y-100965000D03*
%TD*%
D10*
%TO.P,J11,1,Pin_1*%
%TO.N,GND*%
X56515000Y-68707000D03*
D11*
%TO.P,J11,2,Pin_2*%
%TO.N,/+5V_{IN}*%
X53975000Y-68707000D03*
%TD*%
D10*
%TO.P,J4,1,Pin_1*%
%TO.N,GND*%
X87630000Y-61595000D03*
D11*
%TO.P,J4,2,Pin_2*%
%TO.N,/Button Inputs/BN3*%
X85090000Y-61595000D03*
%TD*%
D10*
%TO.P,J23,1,Pin_1*%
%TO.N,GND*%
X120650000Y-100965000D03*
D11*
%TO.P,J23,2,Pin_2*%
%TO.N,/Button Inputs/BN13*%
X123190000Y-100965000D03*
%TD*%
D10*
%TO.P,J20,1,Pin_1*%
%TO.N,GND*%
X97790000Y-100965000D03*
D11*
%TO.P,J20,2,Pin_2*%
%TO.N,/Button Inputs/BN16*%
X100330000Y-100965000D03*
%TD*%
D10*
%TO.P,J10,1,Pin_1*%
%TO.N,GND*%
X133350000Y-61595000D03*
D11*
%TO.P,J10,2,Pin_2*%
%TO.N,/Button Inputs/BN9*%
X130810000Y-61595000D03*
%TD*%
D10*
%TO.P,J1,1,Pin_1*%
%TO.N,GND*%
X64770000Y-61595000D03*
D11*
%TO.P,J1,2,Pin_2*%
%TO.N,/Button Inputs/BN0*%
X62230000Y-61595000D03*
%TD*%
D10*
%TO.P,J8,1,Pin_1*%
%TO.N,GND*%
X118110000Y-61595000D03*
D11*
%TO.P,J8,2,Pin_2*%
%TO.N,/Button Inputs/BN7*%
X115570000Y-61595000D03*
%TD*%
D10*
%TO.P,J9,1,Pin_1*%
%TO.N,GND*%
X125730000Y-61595000D03*
D11*
%TO.P,J9,2,Pin_2*%
%TO.N,/Button Inputs/BN8*%
X123190000Y-61595000D03*
%TD*%
D10*
%TO.P,J7,1,Pin_1*%
%TO.N,GND*%
X110490000Y-61595000D03*
D11*
%TO.P,J7,2,Pin_2*%
%TO.N,/Button Inputs/BN6*%
X107950000Y-61595000D03*
%TD*%
D10*
%TO.P,J17,1,Pin_1*%
%TO.N,GND*%
X74930000Y-100965000D03*
D11*
%TO.P,J17,2,Pin_2*%
%TO.N,/Button Inputs/BN19*%
X77470000Y-100965000D03*
%TD*%
D14*
%TO.P,U1,1,GND*%
%TO.N,GND*%
X53340000Y-88900000D03*
D15*
%TO.P,U1,2,P0*%
%TO.N,/BTN19*%
X55880000Y-88900000D03*
%TO.P,U1,3,P1*%
%TO.N,/BTN18*%
X58420000Y-88900000D03*
%TO.P,U1,4,P2/FTM3_CH0*%
%TO.N,/ENC0_ABS*%
X60960000Y-88900000D03*
%TO.P,U1,5,P3/CAN_TX*%
%TO.N,/CAN_TX*%
X63500000Y-88900000D03*
%TO.P,U1,6,P4/CAN_RX*%
%TO.N,/CAN_RX*%
X66040000Y-88900000D03*
%TO.P,U1,7,P5*%
%TO.N,/BTN14*%
X68580000Y-88900000D03*
%TO.P,U1,8,P6*%
%TO.N,/BTN17*%
X71120000Y-88900000D03*
%TO.P,U1,9,P7*%
%TO.N,/BTN13*%
X73660000Y-88900000D03*
%TO.P,U1,10,P8*%
%TO.N,/BTN12*%
X76200000Y-88900000D03*
%TO.P,U1,11,P9*%
%TO.N,/BTN10*%
X78740000Y-88900000D03*
%TO.P,U1,12,P10*%
%TO.N,/LED1Y*%
X81280000Y-88900000D03*
%TO.P,U1,13,P11*%
%TO.N,/LED0R*%
X83820000Y-88900000D03*
%TO.P,U1,14,P12*%
%TO.N,/BTN11*%
X86360000Y-88900000D03*
%TO.P,U1,15,3V3*%
%TO.N,+3.3V*%
X88900000Y-88900000D03*
%TO.P,U1,16,P24*%
%TO.N,/BTN5*%
X91440000Y-88900000D03*
%TO.P,U1,17,P25*%
%TO.N,/BTN9*%
X93980000Y-88900000D03*
%TO.P,U1,18,P26*%
%TO.N,/BTN4*%
X96520000Y-88900000D03*
%TO.P,U1,19,P27*%
%TO.N,/BTN7*%
X99060000Y-88900000D03*
%TO.P,U1,20,P28*%
%TO.N,/BTN6*%
X101600000Y-88900000D03*
%TO.P,U1,21,P29/FTM2_QD_PHA*%
%TO.N,/ENC0_A*%
X104140000Y-88900000D03*
%TO.P,U1,22,P30/FTM2_QD_PHB*%
%TO.N,/ENC0_B*%
X106680000Y-88900000D03*
%TO.P,U1,23,P31*%
%TO.N,/BTN15*%
X109220000Y-88900000D03*
%TO.P,U1,24,P32*%
%TO.N,/BTN16*%
X111760000Y-88900000D03*
%TO.P,U1,25,P33/ADC0_SE17*%
%TO.N,/ENC1_ABS_ADC*%
X111760000Y-73660000D03*
%TO.P,U1,26,P34*%
%TO.N,/BTN8*%
X109220000Y-73660000D03*
%TO.P,U1,27,P35*%
%TO.N,/LED1G*%
X106680000Y-73660000D03*
%TO.P,U1,28,P36/ADC1_SE5b*%
%TO.N,unconnected-(U1-Pad28)*%
X104140000Y-73660000D03*
%TO.P,U1,29,P37*%
%TO.N,/LED1R*%
X101600000Y-73660000D03*
%TO.P,U1,30,P38*%
%TO.N,/LED0G*%
X99060000Y-73660000D03*
%TO.P,U1,31,P39*%
%TO.N,/LED0Y*%
X96520000Y-73660000D03*
%TO.P,U1,32,A21*%
%TO.N,unconnected-(U1-Pad32)*%
X93980000Y-73660000D03*
%TO.P,U1,33,A22/ADC1_SE23*%
%TO.N,/+5V_MON_ADC*%
X91440000Y-73660000D03*
%TO.P,U1,34,GND*%
%TO.N,GND*%
X88900000Y-73660000D03*
%TO.P,U1,35,P13/LED*%
%TO.N,unconnected-(U1-Pad35)*%
X86360000Y-73660000D03*
%TO.P,U1,36,P14/ADC0_SE5b*%
%TO.N,/ENC0_ABS_ADC*%
X83820000Y-73660000D03*
%TO.P,U1,37,P15*%
%TO.N,/BTN1*%
X81280000Y-73660000D03*
%TO.P,U1,38,P16/FTM1_QD_PHA*%
%TO.N,/ENC1_B*%
X78740000Y-73660000D03*
%TO.P,U1,39,P17/FTM1_QD_PHB*%
%TO.N,/ENC1_A*%
X76200000Y-73660000D03*
%TO.P,U1,40,P18*%
%TO.N,/BTN2*%
X73660000Y-73660000D03*
%TO.P,U1,41,P19*%
%TO.N,/BTN3*%
X71120000Y-73660000D03*
%TO.P,U1,42,P20*%
%TO.N,/BTN0*%
X68580000Y-73660000D03*
%TO.P,U1,43,P21/FTM0_CH6*%
%TO.N,/ENC1_ABS*%
X66040000Y-73660000D03*
%TO.P,U1,44,P22/ADC0_SE15*%
%TO.N,/ABS2_ADC*%
X63500000Y-73660000D03*
%TO.P,U1,45,P23/ADC0_SE4b*%
%TO.N,/ABS3_ADC*%
X60960000Y-73660000D03*
%TO.P,U1,46,3V3*%
%TO.N,+3.3V*%
X58420000Y-73660000D03*
%TO.P,U1,47,AGND*%
%TO.N,GND*%
X55880000Y-73660000D03*
%TO.P,U1,48,V_{IN}*%
%TO.N,/V_{IN}*%
X53340000Y-73660000D03*
%TD*%
D10*
%TO.P,J21,1,Pin_1*%
%TO.N,GND*%
X105410000Y-100965000D03*
D11*
%TO.P,J21,2,Pin_2*%
%TO.N,/Button Inputs/BN15*%
X107950000Y-100965000D03*
%TD*%
D10*
%TO.P,J25,1,Pin_1*%
%TO.N,GND*%
X135890000Y-100965000D03*
D11*
%TO.P,J25,2,Pin_2*%
%TO.N,/Button Inputs/BN11*%
X138430000Y-100965000D03*
%TD*%
D10*
%TO.P,J5,1,Pin_1*%
%TO.N,GND*%
X95250000Y-61595000D03*
D11*
%TO.P,J5,2,Pin_2*%
%TO.N,/Button Inputs/BN4*%
X92710000Y-61595000D03*
%TD*%
D16*
%TO.P,R15,1*%
%TO.N,Net-(D4-Pad1)*%
X87185000Y-65786000D03*
%TO.P,R15,2*%
%TO.N,/Button Inputs/BN3*%
X85535000Y-65786000D03*
%TD*%
D17*
%TO.P,R31,1*%
%TO.N,/ABS3_ADC*%
X59436000Y-71183000D03*
%TO.P,R31,2*%
%TO.N,/ABS3*%
X59436000Y-69533000D03*
%TD*%
D18*
%TO.P,R21,1*%
%TO.N,/Button Inputs/BN7*%
X116015000Y-67310000D03*
%TO.P,R21,2*%
%TO.N,/BTN7*%
X117665000Y-67310000D03*
%TD*%
D19*
%TO.P,Q1,1,S*%
%TO.N,+5V*%
X60641000Y-79883000D03*
%TO.P,Q1,2,S*%
X60641000Y-81153000D03*
%TO.P,Q1,3,S*%
X60641000Y-82423000D03*
%TO.P,Q1,4,G*%
%TO.N,Net-(D40-Pad2)*%
X60641000Y-83693000D03*
%TO.P,Q1,5,D*%
%TO.N,/+5V_{IN}*%
X55691000Y-83693000D03*
%TO.P,Q1,6,D*%
X55691000Y-82423000D03*
%TO.P,Q1,7,D*%
X55691000Y-81153000D03*
%TO.P,Q1,8,D*%
X55691000Y-79883000D03*
%TD*%
D18*
%TO.P,R57,1*%
%TO.N,Net-(D23-Pad1)*%
X75629000Y-96774000D03*
%TO.P,R57,2*%
%TO.N,/Button Inputs/BN19*%
X77279000Y-96774000D03*
%TD*%
%TO.P,R28,1*%
%TO.N,/Button Inputs/BN0*%
X62675000Y-67310000D03*
%TO.P,R28,2*%
%TO.N,/BTN0*%
X64325000Y-67310000D03*
%TD*%
D20*
%TO.P,C9,1*%
%TO.N,/Button Inputs/BN6*%
X108445000Y-64262000D03*
%TO.P,C9,2*%
%TO.N,GND*%
X109995000Y-64262000D03*
%TD*%
D21*
%TO.P,D34,1,K*%
%TO.N,GND*%
X136827500Y-74996000D03*
%TO.P,D34,2,A*%
%TO.N,+5V*%
X136827500Y-76896000D03*
%TO.P,D34,3,K*%
%TO.N,/ENC1_ABS*%
X134952500Y-75946000D03*
%TD*%
D18*
%TO.P,R50,1*%
%TO.N,Net-(D30-Pad1)*%
X128715000Y-96774000D03*
%TO.P,R50,2*%
%TO.N,/Button Inputs/BN12*%
X130365000Y-96774000D03*
%TD*%
D22*
%TO.P,C16,1*%
%TO.N,/ABS2_ADC*%
X63500000Y-71133000D03*
%TO.P,C16,2*%
%TO.N,GND*%
X63500000Y-69583000D03*
%TD*%
D16*
%TO.P,R36,1*%
%TO.N,GND*%
X65785000Y-86360000D03*
%TO.P,R36,2*%
%TO.N,Net-(D40-Pad2)*%
X64135000Y-86360000D03*
%TD*%
%TO.P,R16,1*%
%TO.N,Net-(D3-Pad1)*%
X79565000Y-65786000D03*
%TO.P,R16,2*%
%TO.N,/Button Inputs/BN2*%
X77915000Y-65786000D03*
%TD*%
D18*
%TO.P,R55,1*%
%TO.N,Net-(D25-Pad1)*%
X90615000Y-96774000D03*
%TO.P,R55,2*%
%TO.N,/Button Inputs/BN17*%
X92265000Y-96774000D03*
%TD*%
D23*
%TO.P,C28,1*%
%TO.N,/Button Inputs/BN13*%
X122695000Y-98298000D03*
%TO.P,C28,2*%
%TO.N,GND*%
X121145000Y-98298000D03*
%TD*%
D20*
%TO.P,C22,1*%
%TO.N,Net-(C22-Pad1)*%
X72123000Y-82169000D03*
%TO.P,C22,2*%
%TO.N,GND*%
X73673000Y-82169000D03*
%TD*%
D16*
%TO.P,R43,1*%
%TO.N,/Button Inputs/BN14*%
X115112254Y-95250000D03*
%TO.P,R43,2*%
%TO.N,/BTN14*%
X113462254Y-95250000D03*
%TD*%
%TO.P,R46,1*%
%TO.N,/Button Inputs/BN17*%
X92265000Y-95250000D03*
%TO.P,R46,2*%
%TO.N,/BTN17*%
X90615000Y-95250000D03*
%TD*%
%TO.P,R18,1*%
%TO.N,Net-(D1-Pad1)*%
X64325000Y-65786000D03*
%TO.P,R18,2*%
%TO.N,/Button Inputs/BN0*%
X62675000Y-65786000D03*
%TD*%
D18*
%TO.P,R24,1*%
%TO.N,/Button Inputs/BN4*%
X93155000Y-67310000D03*
%TO.P,R24,2*%
%TO.N,/BTN4*%
X94805000Y-67310000D03*
%TD*%
D22*
%TO.P,C17,1*%
%TO.N,/ABS3_ADC*%
X61214000Y-71133000D03*
%TO.P,C17,2*%
%TO.N,GND*%
X61214000Y-69583000D03*
%TD*%
D17*
%TO.P,R38,1*%
%TO.N,Net-(D21-Pad1)*%
X145542000Y-94043000D03*
%TO.P,R38,2*%
%TO.N,/Button Inputs/BN10*%
X145542000Y-92393000D03*
%TD*%
D18*
%TO.P,R51,1*%
%TO.N,Net-(D29-Pad1)*%
X121095000Y-96774000D03*
%TO.P,R51,2*%
%TO.N,/Button Inputs/BN13*%
X122745000Y-96774000D03*
%TD*%
D17*
%TO.P,R29,1*%
%TO.N,/+5V_MON_ADC*%
X91440000Y-70548000D03*
%TO.P,R29,2*%
%TO.N,GND*%
X91440000Y-68898000D03*
%TD*%
D16*
%TO.P,R10,1*%
%TO.N,Net-(D9-Pad1)*%
X125285000Y-65786000D03*
%TO.P,R10,2*%
%TO.N,/Button Inputs/BN8*%
X123635000Y-65786000D03*
%TD*%
D24*
%TO.P,C20,1*%
%TO.N,/ENC0_ABS_ADC*%
X80772000Y-76428000D03*
%TO.P,C20,2*%
%TO.N,GND*%
X80772000Y-77978000D03*
%TD*%
D23*
%TO.P,C33,1*%
%TO.N,/Button Inputs/BN18*%
X84595000Y-98298000D03*
%TO.P,C33,2*%
%TO.N,GND*%
X83045000Y-98298000D03*
%TD*%
D25*
%TO.P,R33,1*%
%TO.N,/ENC0_ABS_ADC*%
X83820000Y-76391000D03*
%TO.P,R33,2*%
%TO.N,/ABS0*%
X83820000Y-78041000D03*
%TD*%
D21*
%TO.P,D39,1,K*%
%TO.N,GND*%
X136446500Y-85029000D03*
%TO.P,D39,2,A*%
%TO.N,+5V*%
X136446500Y-86929000D03*
%TO.P,D39,3,K*%
%TO.N,/ENC0_ABS*%
X134571500Y-85979000D03*
%TD*%
D26*
%TO.P,C21,1*%
%TO.N,Net-(C21-Pad1)*%
X66106000Y-78867000D03*
%TO.P,C21,2*%
%TO.N,GND*%
X68006000Y-78867000D03*
%TD*%
D16*
%TO.P,R45,1*%
%TO.N,/Button Inputs/BN16*%
X99885000Y-95250000D03*
%TO.P,R45,2*%
%TO.N,/BTN16*%
X98235000Y-95250000D03*
%TD*%
D27*
%TO.P,D32,1,K*%
%TO.N,GND*%
X141937500Y-71562000D03*
%TO.P,D32,2,A*%
%TO.N,+3.3V*%
X141937500Y-69662000D03*
%TO.P,D32,3,K*%
%TO.N,/ABS3*%
X143812500Y-70612000D03*
%TD*%
D20*
%TO.P,C18,1*%
%TO.N,/+5V_MON_ADC*%
X90665000Y-76327000D03*
%TO.P,C18,2*%
%TO.N,GND*%
X92215000Y-76327000D03*
%TD*%
D28*
%TO.P,D37,1,K*%
%TO.N,+5VD*%
X55564000Y-77470000D03*
%TO.P,D37,2,A*%
%TO.N,/V_{IN}*%
X54164000Y-77470000D03*
%TD*%
D16*
%TO.P,R41,1*%
%TO.N,/Button Inputs/BN12*%
X130365000Y-95250000D03*
%TO.P,R41,2*%
%TO.N,/BTN12*%
X128715000Y-95250000D03*
%TD*%
D18*
%TO.P,R49,1*%
%TO.N,Net-(D31-Pad1)*%
X136335000Y-96774000D03*
%TO.P,R49,2*%
%TO.N,/Button Inputs/BN11*%
X137985000Y-96774000D03*
%TD*%
D23*
%TO.P,C29,1*%
%TO.N,/Button Inputs/BN14*%
X115075000Y-98298000D03*
%TO.P,C29,2*%
%TO.N,GND*%
X113525000Y-98298000D03*
%TD*%
D29*
%TO.P,U2,1,Vin*%
%TO.N,Net-(C21-Pad1)*%
X64708000Y-84709000D03*
%TO.P,U2,2,Vin*%
X64708000Y-83439000D03*
%TO.P,U2,3,~{SHDN}*%
X64708000Y-82169000D03*
%TO.P,U2,4,GND*%
%TO.N,GND*%
X64708000Y-80899000D03*
%TO.P,U2,5,PWRGD*%
%TO.N,unconnected-(U2-Pad5)*%
X69658000Y-80899000D03*
%TO.P,U2,6,Cdelay*%
%TO.N,Net-(C22-Pad1)*%
X69658000Y-82169000D03*
%TO.P,U2,7,Sense*%
%TO.N,+3.3V*%
X69658000Y-83439000D03*
%TO.P,U2,8,Vout*%
X69658000Y-84709000D03*
%TD*%
D30*
%TO.P,D40,1,K*%
%TO.N,+5V*%
X58290000Y-85725000D03*
%TO.P,D40,2,A*%
%TO.N,Net-(D40-Pad2)*%
X61090000Y-85725000D03*
%TD*%
D16*
%TO.P,R40,1*%
%TO.N,/Button Inputs/BN11*%
X137985000Y-95250000D03*
%TO.P,R40,2*%
%TO.N,/BTN11*%
X136335000Y-95250000D03*
%TD*%
D18*
%TO.P,R37,1*%
%TO.N,Net-(D40-Pad2)*%
X55055000Y-85725000D03*
%TO.P,R37,2*%
%TO.N,+5V*%
X56705000Y-85725000D03*
%TD*%
D25*
%TO.P,R39,1*%
%TO.N,/Button Inputs/BN10*%
X144018000Y-92393000D03*
%TO.P,R39,2*%
%TO.N,/BTN10*%
X144018000Y-94043000D03*
%TD*%
D16*
%TO.P,R13,1*%
%TO.N,Net-(D6-Pad1)*%
X102425000Y-65786000D03*
%TO.P,R13,2*%
%TO.N,/Button Inputs/BN5*%
X100775000Y-65786000D03*
%TD*%
D27*
%TO.P,D41,1,K*%
%TO.N,GND*%
X134571500Y-90358000D03*
%TO.P,D41,2,A*%
%TO.N,+5V*%
X134571500Y-88458000D03*
%TO.P,D41,3,K*%
%TO.N,/ENC0_B*%
X136446500Y-89408000D03*
%TD*%
D17*
%TO.P,R30,1*%
%TO.N,/ABS2_ADC*%
X65278000Y-71183000D03*
%TO.P,R30,2*%
%TO.N,/ABS2*%
X65278000Y-69533000D03*
%TD*%
D23*
%TO.P,C31,1*%
%TO.N,/Button Inputs/BN16*%
X99835000Y-98298000D03*
%TO.P,C31,2*%
%TO.N,GND*%
X98285000Y-98298000D03*
%TD*%
D18*
%TO.P,R23,1*%
%TO.N,/Button Inputs/BN5*%
X100775000Y-67310000D03*
%TO.P,R23,2*%
%TO.N,/BTN5*%
X102425000Y-67310000D03*
%TD*%
D20*
%TO.P,C11,1*%
%TO.N,/Button Inputs/BN4*%
X93205000Y-64262000D03*
%TO.P,C11,2*%
%TO.N,GND*%
X94755000Y-64262000D03*
%TD*%
D27*
%TO.P,D33,1,K*%
%TO.N,GND*%
X134952500Y-73340000D03*
%TO.P,D33,2,A*%
%TO.N,+5V*%
X134952500Y-71440000D03*
%TO.P,D33,3,K*%
%TO.N,/ENC1_B*%
X136827500Y-72390000D03*
%TD*%
D16*
%TO.P,R47,1*%
%TO.N,/Button Inputs/BN18*%
X84645000Y-95250000D03*
%TO.P,R47,2*%
%TO.N,/BTN18*%
X82995000Y-95250000D03*
%TD*%
%TO.P,R14,1*%
%TO.N,Net-(D5-Pad1)*%
X94805000Y-65786000D03*
%TO.P,R14,2*%
%TO.N,/Button Inputs/BN4*%
X93155000Y-65786000D03*
%TD*%
D20*
%TO.P,C12,1*%
%TO.N,/Button Inputs/BN3*%
X85585000Y-64262000D03*
%TO.P,C12,2*%
%TO.N,GND*%
X87135000Y-64262000D03*
%TD*%
D18*
%TO.P,R52,1*%
%TO.N,Net-(D28-Pad1)*%
X113475000Y-96774000D03*
%TO.P,R52,2*%
%TO.N,/Button Inputs/BN14*%
X115125000Y-96774000D03*
%TD*%
D28*
%TO.P,D35,1,K*%
%TO.N,Net-(C21-Pad1)*%
X62676000Y-77470000D03*
%TO.P,D35,2,A*%
%TO.N,+5V*%
X61276000Y-77470000D03*
%TD*%
D16*
%TO.P,R11,1*%
%TO.N,Net-(D8-Pad1)*%
X117665000Y-65786000D03*
%TO.P,R11,2*%
%TO.N,/Button Inputs/BN7*%
X116015000Y-65786000D03*
%TD*%
D18*
%TO.P,R19,1*%
%TO.N,/Button Inputs/BN9*%
X131255000Y-67310000D03*
%TO.P,R19,2*%
%TO.N,/BTN9*%
X132905000Y-67310000D03*
%TD*%
%TO.P,R26,1*%
%TO.N,/Button Inputs/BN2*%
X77915000Y-67310000D03*
%TO.P,R26,2*%
%TO.N,/BTN2*%
X79565000Y-67310000D03*
%TD*%
D16*
%TO.P,R32,1*%
%TO.N,/+5V_MON_ADC*%
X88328000Y-76327000D03*
%TO.P,R32,2*%
%TO.N,+5V*%
X86678000Y-76327000D03*
%TD*%
D20*
%TO.P,C6,1*%
%TO.N,/Button Inputs/BN9*%
X131305000Y-64262000D03*
%TO.P,C6,2*%
%TO.N,GND*%
X132855000Y-64262000D03*
%TD*%
D16*
%TO.P,R42,1*%
%TO.N,/Button Inputs/BN13*%
X122745000Y-95250000D03*
%TO.P,R42,2*%
%TO.N,/BTN13*%
X121095000Y-95250000D03*
%TD*%
%TO.P,R44,1*%
%TO.N,/Button Inputs/BN15*%
X107505000Y-95250000D03*
%TO.P,R44,2*%
%TO.N,/BTN15*%
X105855000Y-95250000D03*
%TD*%
D20*
%TO.P,C8,1*%
%TO.N,/Button Inputs/BN7*%
X116065000Y-64262000D03*
%TO.P,C8,2*%
%TO.N,GND*%
X117615000Y-64262000D03*
%TD*%
D18*
%TO.P,R54,1*%
%TO.N,Net-(D26-Pad1)*%
X98235000Y-96774000D03*
%TO.P,R54,2*%
%TO.N,/Button Inputs/BN16*%
X99885000Y-96774000D03*
%TD*%
D20*
%TO.P,C14,1*%
%TO.N,/Button Inputs/BN1*%
X70345000Y-64262000D03*
%TO.P,C14,2*%
%TO.N,GND*%
X71895000Y-64262000D03*
%TD*%
D18*
%TO.P,R22,1*%
%TO.N,/Button Inputs/BN6*%
X108395000Y-67310000D03*
%TO.P,R22,2*%
%TO.N,/BTN6*%
X110045000Y-67310000D03*
%TD*%
D31*
%TO.P,U3,1,TXD*%
%TO.N,/CAN_TX*%
X62865000Y-91659000D03*
%TO.P,U3,2,VSS*%
%TO.N,GND*%
X64135000Y-91659000D03*
%TO.P,U3,3,VDD*%
%TO.N,+5V*%
X65405000Y-91659000D03*
%TO.P,U3,4,RXD*%
%TO.N,/CAN_RX*%
X66675000Y-91659000D03*
%TO.P,U3,5,VIO*%
%TO.N,+3.3V*%
X66675000Y-96809000D03*
%TO.P,U3,6,CANL*%
%TO.N,/CAN_L*%
X65405000Y-96809000D03*
%TO.P,U3,7,CANH*%
%TO.N,/CAN_H*%
X64135000Y-96809000D03*
%TO.P,U3,8,STBY*%
%TO.N,GND*%
X62865000Y-96809000D03*
%TD*%
D26*
%TO.P,C23,1*%
%TO.N,+3.3V*%
X72202000Y-84709000D03*
%TO.P,C23,2*%
%TO.N,GND*%
X74102000Y-84709000D03*
%TD*%
D18*
%TO.P,R20,1*%
%TO.N,/Button Inputs/BN8*%
X123635000Y-67310000D03*
%TO.P,R20,2*%
%TO.N,/BTN8*%
X125285000Y-67310000D03*
%TD*%
D20*
%TO.P,C19,1*%
%TO.N,/ENC1_ABS_ADC*%
X111366000Y-76581000D03*
%TO.P,C19,2*%
%TO.N,GND*%
X112916000Y-76581000D03*
%TD*%
D18*
%TO.P,R35,1*%
%TO.N,/ENC1_ABS_ADC*%
X111316000Y-78105000D03*
%TO.P,R35,2*%
%TO.N,/ABS1*%
X112966000Y-78105000D03*
%TD*%
D23*
%TO.P,C30,1*%
%TO.N,/Button Inputs/BN15*%
X107455000Y-98298000D03*
%TO.P,C30,2*%
%TO.N,GND*%
X105905000Y-98298000D03*
%TD*%
D18*
%TO.P,R27,1*%
%TO.N,/Button Inputs/BN1*%
X70295000Y-67310000D03*
%TO.P,R27,2*%
%TO.N,/BTN1*%
X71945000Y-67310000D03*
%TD*%
D16*
%TO.P,R12,1*%
%TO.N,Net-(D7-Pad1)*%
X110045000Y-65786000D03*
%TO.P,R12,2*%
%TO.N,/Button Inputs/BN6*%
X108395000Y-65786000D03*
%TD*%
%TO.P,R9,1*%
%TO.N,Net-(D10-Pad1)*%
X132905000Y-65786000D03*
%TO.P,R9,2*%
%TO.N,/Button Inputs/BN9*%
X131255000Y-65786000D03*
%TD*%
D28*
%TO.P,D36,1,K*%
%TO.N,+5VD*%
X57847000Y-77470000D03*
%TO.P,D36,2,A*%
%TO.N,+5V*%
X59247000Y-77470000D03*
%TD*%
D16*
%TO.P,R17,1*%
%TO.N,Net-(D2-Pad1)*%
X71945000Y-65786000D03*
%TO.P,R17,2*%
%TO.N,/Button Inputs/BN1*%
X70295000Y-65786000D03*
%TD*%
D24*
%TO.P,C24,1*%
%TO.N,/Button Inputs/BN10*%
X147066000Y-92443000D03*
%TO.P,C24,2*%
%TO.N,GND*%
X147066000Y-93993000D03*
%TD*%
D22*
%TO.P,C25,1*%
%TO.N,+3.3V*%
X68707000Y-96533000D03*
%TO.P,C25,2*%
%TO.N,GND*%
X68707000Y-94983000D03*
%TD*%
D23*
%TO.P,C26,1*%
%TO.N,/Button Inputs/BN11*%
X137935000Y-98298000D03*
%TO.P,C26,2*%
%TO.N,GND*%
X136385000Y-98298000D03*
%TD*%
D20*
%TO.P,C15,1*%
%TO.N,/Button Inputs/BN0*%
X62725000Y-64262000D03*
%TO.P,C15,2*%
%TO.N,GND*%
X64275000Y-64262000D03*
%TD*%
D23*
%TO.P,C34,1*%
%TO.N,/Button Inputs/BN19*%
X77229000Y-98298000D03*
%TO.P,C34,2*%
%TO.N,GND*%
X75679000Y-98298000D03*
%TD*%
%TO.P,C32,1*%
%TO.N,/Button Inputs/BN17*%
X92215000Y-98298000D03*
%TO.P,C32,2*%
%TO.N,GND*%
X90665000Y-98298000D03*
%TD*%
D18*
%TO.P,R25,1*%
%TO.N,/Button Inputs/BN3*%
X85535000Y-67310000D03*
%TO.P,R25,2*%
%TO.N,/BTN3*%
X87185000Y-67310000D03*
%TD*%
D20*
%TO.P,C10,1*%
%TO.N,/Button Inputs/BN5*%
X100838000Y-64262000D03*
%TO.P,C10,2*%
%TO.N,GND*%
X102388000Y-64262000D03*
%TD*%
D18*
%TO.P,R56,1*%
%TO.N,Net-(D24-Pad1)*%
X82995000Y-96774000D03*
%TO.P,R56,2*%
%TO.N,/Button Inputs/BN18*%
X84645000Y-96774000D03*
%TD*%
%TO.P,R53,1*%
%TO.N,Net-(D27-Pad1)*%
X105855000Y-96774000D03*
%TO.P,R53,2*%
%TO.N,/Button Inputs/BN15*%
X107505000Y-96774000D03*
%TD*%
D20*
%TO.P,C7,1*%
%TO.N,/Button Inputs/BN8*%
X123685000Y-64262000D03*
%TO.P,C7,2*%
%TO.N,GND*%
X125235000Y-64262000D03*
%TD*%
D27*
%TO.P,D38,1,K*%
%TO.N,GND*%
X141889000Y-81026000D03*
%TO.P,D38,2,A*%
%TO.N,+3.3V*%
X141889000Y-79126000D03*
%TO.P,D38,3,K*%
%TO.N,/ABS1*%
X143764000Y-80076000D03*
%TD*%
D16*
%TO.P,R48,1*%
%TO.N,/Button Inputs/BN19*%
X77279000Y-95250000D03*
%TO.P,R48,2*%
%TO.N,/BTN19*%
X75629000Y-95250000D03*
%TD*%
D23*
%TO.P,C27,1*%
%TO.N,/Button Inputs/BN12*%
X130315000Y-98298000D03*
%TO.P,C27,2*%
%TO.N,GND*%
X128765000Y-98298000D03*
%TD*%
D20*
%TO.P,C13,1*%
%TO.N,/Button Inputs/BN2*%
X77965000Y-64262000D03*
%TO.P,C13,2*%
%TO.N,GND*%
X79515000Y-64262000D03*
%TD*%
D25*
%TO.P,R34,1*%
%TO.N,/ENC0_ABS_ADC*%
X82296000Y-76391000D03*
%TO.P,R34,2*%
%TO.N,/ENC0_ABS*%
X82296000Y-78041000D03*
%TD*%
D32*
%TO.N,GND*%
X114046000Y-76581000D03*
X143637000Y-72771000D03*
X93472000Y-71755000D03*
X137922000Y-84963000D03*
X102616000Y-71755000D03*
X105664000Y-71755000D03*
X96520000Y-71755000D03*
X69342000Y-78867000D03*
X81297242Y-79290417D03*
X62357000Y-68707000D03*
X91313000Y-67564000D03*
X68580000Y-93599000D03*
X74803000Y-82169000D03*
X99568000Y-71755000D03*
X75311000Y-84709000D03*
X108712000Y-71755000D03*
X93599000Y-75946000D03*
X138303000Y-73279000D03*
X63119000Y-93472000D03*
X143129000Y-82169000D03*
X67056000Y-86360000D03*
X66294000Y-80899000D03*
X137922000Y-90424000D03*
%TO.N,+5V*%
X138303000Y-76835000D03*
X58928000Y-81153000D03*
X58928000Y-82423000D03*
X67897585Y-81969500D03*
X58928000Y-79883000D03*
X66929000Y-93472000D03*
X138303000Y-71501000D03*
X137922000Y-88519000D03*
X85217000Y-76962000D03*
%TO.N,+3.3V*%
X141986000Y-68453000D03*
X68072000Y-84709000D03*
X143764000Y-77978000D03*
X141859000Y-77978000D03*
X143637000Y-68453000D03*
X70485000Y-77724000D03*
X71374000Y-77724000D03*
X66675000Y-95123000D03*
X68051479Y-83549500D03*
%TO.N,Net-(D1-Pad1)*%
X65659000Y-65786000D03*
%TO.N,Net-(D2-Pad1)*%
X73279000Y-65786000D03*
%TO.N,Net-(D3-Pad1)*%
X80899000Y-65786000D03*
%TO.N,Net-(D4-Pad1)*%
X88519000Y-65786000D03*
%TO.N,Net-(D5-Pad1)*%
X96139000Y-65786000D03*
%TO.N,Net-(D6-Pad1)*%
X103759000Y-65786000D03*
%TO.N,/ENC1_A*%
X87477600Y-79400400D03*
X78740000Y-81661000D03*
%TO.N,/ENC1_B*%
X80264000Y-82860000D03*
X88646000Y-79756000D03*
%TO.N,/ENC0_B*%
X116078000Y-85979000D03*
%TO.N,/ABS2*%
X65786000Y-68300600D03*
X94742000Y-77571600D03*
X142748000Y-76454000D03*
X84610000Y-79790154D03*
X99644200Y-77673200D03*
X137922000Y-80645000D03*
X108204000Y-78232000D03*
%TO.N,/ENC1_ABS*%
X86614000Y-82931000D03*
X122809000Y-76962000D03*
X91389200Y-81508600D03*
X98298000Y-77622400D03*
X114808000Y-78105000D03*
X77089000Y-82169000D03*
%TO.N,/ABS1*%
X121031000Y-76835000D03*
X143256000Y-75311000D03*
%TO.N,/ENC0_ABS*%
X76327000Y-86233000D03*
%TO.N,/ABS3*%
X59055000Y-68453000D03*
X128397000Y-83058000D03*
X125984000Y-83566000D03*
X88900000Y-82677000D03*
%TO.N,/ABS0*%
X99745800Y-76403200D03*
X135128000Y-81153000D03*
X108966000Y-77216000D03*
X95250000Y-75692000D03*
X137541000Y-81915000D03*
%TO.N,Net-(D7-Pad1)*%
X111379000Y-65786000D03*
%TO.N,+5VD*%
X75692000Y-65786000D03*
X110010000Y-96774000D03*
X140589000Y-96774000D03*
X113764000Y-65786000D03*
X56769000Y-77470000D03*
X79403000Y-96774000D03*
X132969000Y-96774000D03*
X102390000Y-96774000D03*
X60579000Y-65786000D03*
X98425000Y-65786000D03*
X83411000Y-65788875D03*
X56769000Y-78486000D03*
X121285000Y-65786000D03*
X94897000Y-96774000D03*
X91059000Y-65786000D03*
X68072000Y-65786000D03*
X125349000Y-96774000D03*
X117376000Y-96774000D03*
X86995000Y-96774000D03*
X129032000Y-65786000D03*
X145542000Y-90396000D03*
X106045000Y-65786000D03*
%TO.N,Net-(D8-Pad1)*%
X118872000Y-65786000D03*
%TO.N,Net-(D9-Pad1)*%
X126619000Y-65786000D03*
%TO.N,Net-(D10-Pad1)*%
X134239000Y-65786000D03*
%TO.N,Net-(D24-Pad1)*%
X81915000Y-96774000D03*
%TO.N,Net-(D26-Pad1)*%
X97028000Y-96774000D03*
%TO.N,Net-(D27-Pad1)*%
X104648000Y-96774000D03*
%TO.N,Net-(D28-Pad1)*%
X112268000Y-96774000D03*
%TO.N,Net-(D29-Pad1)*%
X119761000Y-96774000D03*
%TO.N,Net-(D30-Pad1)*%
X127381000Y-96774000D03*
%TO.N,Net-(D31-Pad1)*%
X135128000Y-96774000D03*
%TO.N,Net-(D21-Pad1)*%
X145542000Y-95377000D03*
%TO.N,Net-(D23-Pad1)*%
X74549000Y-96774000D03*
%TO.N,Net-(D25-Pad1)*%
X89408000Y-96774000D03*
%TO.N,Net-(D40-Pad2)*%
X55880000Y-86614000D03*
X58674000Y-83693000D03*
%TO.N,/CAN_L*%
X65405000Y-95123000D03*
%TO.N,/LED1Y*%
X96012000Y-83566000D03*
%TO.N,/BTN1*%
X74295000Y-67310000D03*
%TO.N,/BTN3*%
X76835000Y-71247000D03*
%TO.N,/BTN4*%
X96266000Y-78867000D03*
X90170000Y-86969600D03*
%TO.N,/BTN5*%
X98171000Y-78867000D03*
%TO.N,/BTN6*%
X102870000Y-75946000D03*
%TO.N,/BTN7*%
X102743000Y-86995000D03*
X112141000Y-69850000D03*
%TO.N,/BTN9*%
X99695000Y-81661000D03*
X116459000Y-72009000D03*
X115824000Y-81661000D03*
%TO.N,/BTN10*%
X78740000Y-86332000D03*
X83820000Y-85344000D03*
%TO.N,/BTN11*%
X89408000Y-85341400D03*
%TO.N,/BTN12*%
X82664115Y-87236115D03*
%TO.N,/BTN13*%
X115316000Y-92456000D03*
X110490000Y-90805000D03*
%TO.N,/BTN14*%
X99568000Y-93218000D03*
%TO.N,/BTN15*%
X104267000Y-93980000D03*
%TO.N,/BTN18*%
X71501000Y-93980000D03*
%TO.N,/BTN19*%
X69773800Y-93954600D03*
%TO.N,/+5V_{IN}*%
X53975000Y-83693000D03*
X53975000Y-79883000D03*
X53975000Y-82423000D03*
X53975000Y-81153000D03*
%TD*%
D33*
%TO.N,/+5V_MON_ADC*%
X88328000Y-76327000D02*
X89154000Y-76327000D01*
X88328000Y-76327000D02*
X89408000Y-76327000D01*
X91440000Y-70548000D02*
X91440000Y-73660000D01*
X91440000Y-73660000D02*
X91440000Y-73685400D01*
X89509600Y-75615800D02*
X89509600Y-76327000D01*
X91440000Y-73685400D02*
X89509600Y-75615800D01*
X89408000Y-76327000D02*
X90665000Y-76327000D01*
%TO.N,GND*%
X64275000Y-64262000D02*
X65659000Y-64262000D01*
X142240000Y-82169000D02*
X143129000Y-82169000D01*
X148463000Y-95885000D02*
X149733000Y-94615000D01*
X97028000Y-98298000D02*
X96393000Y-98933000D01*
X111379000Y-99314000D02*
X113030000Y-100965000D01*
X64708000Y-80899000D02*
X66294000Y-80899000D01*
X147066000Y-95631000D02*
X147320000Y-95885000D01*
X80772000Y-78765175D02*
X81297242Y-79290417D01*
X94755000Y-64262000D02*
X95885000Y-64262000D01*
X134493000Y-99568000D02*
X135890000Y-100965000D01*
X63754000Y-93472000D02*
X63119000Y-93472000D01*
X63119000Y-94742000D02*
X63119000Y-93472000D01*
X113525000Y-98298000D02*
X111887000Y-98298000D01*
X136827500Y-74996000D02*
X136827500Y-73484500D01*
X141889000Y-81026000D02*
X141889000Y-81818000D01*
X61214000Y-68961000D02*
X61468000Y-68707000D01*
X63500000Y-69583000D02*
X63500000Y-68961000D01*
X112916000Y-76581000D02*
X114046000Y-76581000D01*
X88773000Y-64262000D02*
X89154000Y-63881000D01*
X63500000Y-68961000D02*
X63246000Y-68707000D01*
X96393000Y-99568000D02*
X97790000Y-100965000D01*
X136446500Y-85029000D02*
X137856000Y-85029000D01*
X136385000Y-98298000D02*
X134874000Y-98298000D01*
X91440000Y-67691000D02*
X91313000Y-67564000D01*
X74676000Y-98298000D02*
X74549000Y-98425000D01*
X96393000Y-98933000D02*
X96393000Y-99568000D01*
X98285000Y-98298000D02*
X97028000Y-98298000D01*
X80772000Y-64262000D02*
X81407000Y-63627000D01*
X93599000Y-75946000D02*
X93218000Y-76327000D01*
X134747000Y-63754000D02*
X134747000Y-62992000D01*
X117615000Y-64262000D02*
X118872000Y-64262000D01*
X74803000Y-82169000D02*
X73673000Y-82169000D01*
X79515000Y-64262000D02*
X80772000Y-64262000D01*
X141889000Y-81818000D02*
X142240000Y-82169000D01*
X147320000Y-95885000D02*
X148463000Y-95885000D01*
X121145000Y-98298000D02*
X119253000Y-98298000D01*
X93218000Y-76327000D02*
X92215000Y-76327000D01*
X65659000Y-64262000D02*
X66040000Y-63881000D01*
X137922000Y-90424000D02*
X137856000Y-90358000D01*
X127127000Y-63500000D02*
X127127000Y-62992000D01*
X137856000Y-85029000D02*
X137922000Y-84963000D01*
X68707000Y-94983000D02*
X68707000Y-93726000D01*
X111760000Y-63500000D02*
X111760000Y-62865000D01*
X134747000Y-62992000D02*
X133350000Y-61595000D01*
X61468000Y-68707000D02*
X62357000Y-68707000D01*
X91440000Y-68898000D02*
X91440000Y-67691000D01*
X105905000Y-98298000D02*
X104648000Y-98298000D01*
X89027000Y-99822000D02*
X90170000Y-100965000D01*
X111379000Y-98806000D02*
X111379000Y-99314000D01*
X102388000Y-64262000D02*
X103759000Y-64262000D01*
X81407000Y-63627000D02*
X81407000Y-62992000D01*
X89408000Y-98298000D02*
X89027000Y-98679000D01*
X87757000Y-61595000D02*
X87630000Y-61595000D01*
X104140000Y-63881000D02*
X104140000Y-62865000D01*
X83045000Y-98298000D02*
X82042000Y-98298000D01*
X104013000Y-99695000D02*
X105283000Y-100965000D01*
X125235000Y-64262000D02*
X126365000Y-64262000D01*
X81788000Y-98552000D02*
X81788000Y-99060000D01*
X80772000Y-77978000D02*
X80772000Y-78765175D01*
X119253000Y-98298000D02*
X118999000Y-98552000D01*
X119253000Y-62738000D02*
X118110000Y-61595000D01*
X119253000Y-63881000D02*
X119253000Y-62738000D01*
X74549000Y-98425000D02*
X74549000Y-99187000D01*
X71895000Y-64262000D02*
X73152000Y-64262000D01*
X118999000Y-99314000D02*
X120650000Y-100965000D01*
X73152000Y-64262000D02*
X73660000Y-63754000D01*
X104140000Y-62865000D02*
X102870000Y-61595000D01*
X68707000Y-93726000D02*
X68580000Y-93599000D01*
X141937500Y-72468500D02*
X142240000Y-72771000D01*
X64135000Y-93091000D02*
X63754000Y-93472000D01*
X134493000Y-98679000D02*
X134493000Y-99568000D01*
X132855000Y-64262000D02*
X134239000Y-64262000D01*
X104648000Y-98298000D02*
X104013000Y-98933000D01*
X62865000Y-96809000D02*
X62865000Y-94996000D01*
X89154000Y-63881000D02*
X89154000Y-62992000D01*
X127254000Y-98298000D02*
X126873000Y-98679000D01*
X134874000Y-98298000D02*
X134493000Y-98679000D01*
X82550000Y-99822000D02*
X82550000Y-100965000D01*
X126873000Y-98679000D02*
X126873000Y-99568000D01*
X137856000Y-90358000D02*
X134571500Y-90358000D01*
X147066000Y-93993000D02*
X147066000Y-95631000D01*
X65785000Y-86360000D02*
X67056000Y-86360000D01*
D34*
X68006000Y-78867000D02*
X69342000Y-78867000D01*
D33*
X141937500Y-71562000D02*
X141937500Y-72468500D01*
X136972000Y-73340000D02*
X138242000Y-73340000D01*
X104013000Y-98933000D02*
X104013000Y-99695000D01*
X96393000Y-63754000D02*
X96393000Y-62738000D01*
X75679000Y-98298000D02*
X74676000Y-98298000D01*
X89027000Y-98679000D02*
X89027000Y-99822000D01*
X74930000Y-99568000D02*
X74930000Y-100965000D01*
X111887000Y-98298000D02*
X111379000Y-98806000D01*
X118872000Y-64262000D02*
X119253000Y-63881000D01*
X134952500Y-73340000D02*
X136972000Y-73340000D01*
X126873000Y-99568000D02*
X128270000Y-100965000D01*
X81407000Y-62992000D02*
X80010000Y-61595000D01*
X103759000Y-64262000D02*
X104140000Y-63881000D01*
X74549000Y-99187000D02*
X74930000Y-99568000D01*
X81788000Y-99060000D02*
X82550000Y-99822000D01*
X126365000Y-64262000D02*
X127127000Y-63500000D01*
X127127000Y-62992000D02*
X125730000Y-61595000D01*
X64135000Y-91659000D02*
X64135000Y-93091000D01*
X142240000Y-72771000D02*
X143637000Y-72771000D01*
X63246000Y-68707000D02*
X62357000Y-68707000D01*
X87135000Y-64262000D02*
X88773000Y-64262000D01*
X138242000Y-73340000D02*
X138303000Y-73279000D01*
X136827500Y-73484500D02*
X136972000Y-73340000D01*
X66040000Y-63881000D02*
X66040000Y-62865000D01*
X128765000Y-98298000D02*
X127254000Y-98298000D01*
X110998000Y-64262000D02*
X111760000Y-63500000D01*
X95885000Y-64262000D02*
X96393000Y-63754000D01*
X109995000Y-64262000D02*
X110998000Y-64262000D01*
X62865000Y-94996000D02*
X63119000Y-94742000D01*
X111760000Y-62865000D02*
X110490000Y-61595000D01*
X134239000Y-64262000D02*
X134747000Y-63754000D01*
X96393000Y-62738000D02*
X95250000Y-61595000D01*
X105283000Y-100965000D02*
X105410000Y-100965000D01*
X90665000Y-98298000D02*
X89408000Y-98298000D01*
X73660000Y-62865000D02*
X72390000Y-61595000D01*
X118999000Y-98552000D02*
X118999000Y-99314000D01*
X82042000Y-98298000D02*
X81788000Y-98552000D01*
X73660000Y-63754000D02*
X73660000Y-62865000D01*
X89154000Y-62992000D02*
X87757000Y-61595000D01*
X74102000Y-84709000D02*
X75311000Y-84709000D01*
X66040000Y-62865000D02*
X64770000Y-61595000D01*
X61214000Y-69583000D02*
X61214000Y-68961000D01*
%TO.N,/ENC1_ABS_ADC*%
X110109000Y-77724000D02*
X110109000Y-76708000D01*
X110490000Y-78105000D02*
X110109000Y-77724000D01*
X110109000Y-75311000D02*
X111760000Y-73660000D01*
X110109000Y-76708000D02*
X110109000Y-75311000D01*
X111366000Y-76581000D02*
X110236000Y-76581000D01*
X111316000Y-78105000D02*
X110490000Y-78105000D01*
X110236000Y-76581000D02*
X110109000Y-76708000D01*
%TO.N,/ABS3_ADC*%
X61214000Y-71882000D02*
X61087000Y-72009000D01*
X61214000Y-72009000D02*
X59563000Y-72009000D01*
X61087000Y-73533000D02*
X60960000Y-73660000D01*
X59436000Y-71882000D02*
X59436000Y-71183000D01*
X61087000Y-72009000D02*
X61087000Y-73533000D01*
X61214000Y-71133000D02*
X61214000Y-71882000D01*
X59563000Y-72009000D02*
X59436000Y-71882000D01*
%TO.N,/ABS2_ADC*%
X65151000Y-72009000D02*
X63500000Y-72009000D01*
X63500000Y-71133000D02*
X63500000Y-72263000D01*
X65278000Y-71882000D02*
X65151000Y-72009000D01*
X65278000Y-71183000D02*
X65278000Y-71882000D01*
X63500000Y-72263000D02*
X63500000Y-73660000D01*
X63500000Y-72009000D02*
X63500000Y-72263000D01*
%TO.N,+5V*%
X65405000Y-92964000D02*
X65532000Y-93091000D01*
X136446500Y-86929000D02*
X136446500Y-88445500D01*
X134952500Y-71440000D02*
X138242000Y-71440000D01*
X58290000Y-85725000D02*
X58290000Y-84833000D01*
X86297000Y-75946000D02*
X85471000Y-75946000D01*
X137861000Y-88458000D02*
X136459000Y-88458000D01*
X65532000Y-93091000D02*
X65913000Y-93472000D01*
D34*
X59247000Y-77470000D02*
X60325000Y-77470000D01*
X60325000Y-77470000D02*
X60325000Y-78613000D01*
X60641000Y-78929000D02*
X60641000Y-79883000D01*
D33*
X137922000Y-88519000D02*
X137861000Y-88458000D01*
X58290000Y-85725000D02*
X57531000Y-85725000D01*
X86678000Y-76327000D02*
X86297000Y-75946000D01*
X138242000Y-71440000D02*
X138303000Y-71501000D01*
D34*
X60641000Y-79883000D02*
X58928000Y-79883000D01*
D33*
X65913000Y-93472000D02*
X66929000Y-93472000D01*
X58290000Y-84833000D02*
X57531000Y-84074000D01*
X65405000Y-91659000D02*
X65405000Y-92964000D01*
X136827500Y-76896000D02*
X138242000Y-76896000D01*
X85471000Y-75946000D02*
X85217000Y-76200000D01*
D34*
X60641000Y-81153000D02*
X58928000Y-81153000D01*
D33*
X138242000Y-76896000D02*
X138303000Y-76835000D01*
D34*
X60325000Y-78613000D02*
X60641000Y-78929000D01*
D33*
X85217000Y-76200000D02*
X85217000Y-76962000D01*
X136446500Y-88445500D02*
X136459000Y-88458000D01*
X57531000Y-84074000D02*
X57531000Y-82931000D01*
X136459000Y-88458000D02*
X134571500Y-88458000D01*
X57658000Y-85725000D02*
X56705000Y-85725000D01*
D34*
X60325000Y-77470000D02*
X61276000Y-77470000D01*
D33*
X58039000Y-82423000D02*
X58928000Y-82423000D01*
D34*
X60641000Y-82423000D02*
X58928000Y-82423000D01*
D33*
X57531000Y-82931000D02*
X58039000Y-82423000D01*
%TO.N,/ENC0_ABS_ADC*%
X83820000Y-75488800D02*
X83820000Y-75311000D01*
X80822800Y-75514200D02*
X82296000Y-75514200D01*
X80772000Y-76428000D02*
X80772000Y-75565000D01*
X82296000Y-75514200D02*
X83794600Y-75514200D01*
X82296000Y-75514200D02*
X82296000Y-76391000D01*
X83820000Y-75311000D02*
X83820000Y-73660000D01*
X83820000Y-76391000D02*
X83820000Y-75311000D01*
X83794600Y-75514200D02*
X83820000Y-75488800D01*
X80772000Y-75565000D02*
X80822800Y-75514200D01*
D35*
%TO.N,+3.3V*%
X65659000Y-76962000D02*
X69723000Y-76962000D01*
D34*
X68161979Y-83439000D02*
X68051479Y-83549500D01*
D33*
X67932000Y-96533000D02*
X67656000Y-96809000D01*
D34*
X69658000Y-83439000D02*
X69658000Y-84709000D01*
D35*
X58420000Y-75184000D02*
X59309000Y-76073000D01*
D33*
X68707000Y-96533000D02*
X67932000Y-96533000D01*
D34*
X69658000Y-84709000D02*
X72202000Y-84709000D01*
D33*
X67656000Y-96809000D02*
X66675000Y-96809000D01*
D34*
X69658000Y-83439000D02*
X68161979Y-83439000D01*
D35*
X70485000Y-77724000D02*
X71374000Y-77724000D01*
D33*
X66675000Y-96809000D02*
X66675000Y-95123000D01*
D35*
X64770000Y-76073000D02*
X65659000Y-76962000D01*
X69723000Y-76962000D02*
X70485000Y-77724000D01*
D33*
X141937500Y-69662000D02*
X141937500Y-68501500D01*
D34*
X69658000Y-84709000D02*
X68072000Y-84709000D01*
D35*
X58420000Y-73660000D02*
X58420000Y-75184000D01*
D33*
X141889000Y-79126000D02*
X141889000Y-78008000D01*
D35*
X59309000Y-76073000D02*
X64770000Y-76073000D01*
D33*
X141889000Y-78008000D02*
X141859000Y-77978000D01*
X141937500Y-68501500D02*
X141986000Y-68453000D01*
D34*
%TO.N,Net-(C21-Pad1)*%
X62992000Y-82169000D02*
X62992000Y-81788000D01*
X64708000Y-84709000D02*
X63500000Y-84709000D01*
X63119000Y-83439000D02*
X62992000Y-83312000D01*
X64708000Y-83439000D02*
X63119000Y-83439000D01*
X62676000Y-77470000D02*
X64008000Y-77470000D01*
X62992000Y-80327500D02*
X64135000Y-79184500D01*
X63500000Y-84709000D02*
X62992000Y-84201000D01*
X62992000Y-83312000D02*
X62992000Y-81788000D01*
X64135000Y-77597000D02*
X64135000Y-78867000D01*
X62992000Y-84201000D02*
X62992000Y-83312000D01*
X64135000Y-79184500D02*
X64135000Y-78867000D01*
X64708000Y-83439000D02*
X64708000Y-82169000D01*
X64135000Y-78867000D02*
X66106000Y-78867000D01*
X62992000Y-81788000D02*
X62992000Y-80327500D01*
X64708000Y-82169000D02*
X62992000Y-82169000D01*
X64008000Y-77470000D02*
X64135000Y-77597000D01*
X64708000Y-84709000D02*
X64708000Y-83439000D01*
D33*
%TO.N,Net-(C22-Pad1)*%
X69658000Y-82169000D02*
X72123000Y-82169000D01*
%TO.N,Net-(D1-Pad1)*%
X64325000Y-65786000D02*
X65659000Y-65786000D01*
%TO.N,Net-(D2-Pad1)*%
X71945000Y-65786000D02*
X73279000Y-65786000D01*
%TO.N,Net-(D3-Pad1)*%
X79565000Y-65786000D02*
X80899000Y-65786000D01*
%TO.N,Net-(D4-Pad1)*%
X87185000Y-65786000D02*
X88519000Y-65786000D01*
%TO.N,Net-(D5-Pad1)*%
X94805000Y-65786000D02*
X96139000Y-65786000D01*
%TO.N,Net-(D6-Pad1)*%
X102425000Y-65786000D02*
X103759000Y-65786000D01*
%TO.N,/ENC1_A*%
X125730000Y-75565000D02*
X125730000Y-74295000D01*
X95631000Y-80010000D02*
X121285000Y-80010000D01*
X94488000Y-78867000D02*
X95631000Y-80010000D01*
X78740000Y-81661000D02*
X78867000Y-81534000D01*
X78867000Y-80137000D02*
X76200000Y-77470000D01*
X76200000Y-77470000D02*
X76200000Y-73660000D01*
X78867000Y-81534000D02*
X78867000Y-80137000D01*
X87477600Y-79400400D02*
X88011000Y-78867000D01*
X88011000Y-78867000D02*
X94488000Y-78867000D01*
X121285000Y-80010000D02*
X125730000Y-75565000D01*
%TO.N,/ENC1_B*%
X93759671Y-79756000D02*
X94775671Y-80772000D01*
X78740000Y-78105000D02*
X78740000Y-73660000D01*
X129667000Y-72390000D02*
X128270000Y-73787000D01*
X80264000Y-82860000D02*
X80264000Y-79629000D01*
X88646000Y-79756000D02*
X93759671Y-79756000D01*
X136827500Y-72390000D02*
X129667000Y-72390000D01*
X80264000Y-79629000D02*
X78740000Y-78105000D01*
X128270000Y-73787000D02*
X128270000Y-74295000D01*
X121793000Y-80772000D02*
X128270000Y-74295000D01*
X94775671Y-80772000D02*
X121793000Y-80772000D01*
%TO.N,/ENC0_B*%
X128270000Y-86741000D02*
X128270000Y-86995000D01*
X116078000Y-85979000D02*
X116967000Y-85090000D01*
X136446500Y-89408000D02*
X129159000Y-89408000D01*
X129159000Y-89408000D02*
X128270000Y-88519000D01*
X116967000Y-85090000D02*
X126619000Y-85090000D01*
X126619000Y-85090000D02*
X128270000Y-86741000D01*
X128270000Y-88519000D02*
X128270000Y-86995000D01*
%TO.N,/ABS2*%
X85868646Y-79790154D02*
X84610000Y-79790154D01*
X87452200Y-78206600D02*
X85868646Y-79790154D01*
X100203000Y-78232000D02*
X108204000Y-78232000D01*
X99644200Y-77673200D02*
X100203000Y-78232000D01*
X142113000Y-76454000D02*
X137922000Y-80645000D01*
X94107000Y-78206600D02*
X87452200Y-78206600D01*
X94742000Y-77571600D02*
X94107000Y-78206600D01*
X65786000Y-68300600D02*
X65278000Y-68808600D01*
X142748000Y-76454000D02*
X142113000Y-76454000D01*
X65278000Y-68808600D02*
X65278000Y-69533000D01*
%TO.N,/ENC1_ABS*%
X134952500Y-75946000D02*
X132080000Y-75946000D01*
X88138000Y-81407000D02*
X86614000Y-82931000D01*
X114300000Y-79302000D02*
X114808000Y-78794000D01*
X99977600Y-79302000D02*
X114300000Y-79302000D01*
X116586000Y-78105000D02*
X121666000Y-78105000D01*
X114808000Y-78105000D02*
X116586000Y-78105000D01*
X121666000Y-78105000D02*
X122809000Y-76962000D01*
X91389200Y-81508600D02*
X91287600Y-81407000D01*
X98298000Y-77622400D02*
X99977600Y-79302000D01*
X72847200Y-75895200D02*
X66827400Y-75895200D01*
X91287600Y-81407000D02*
X88138000Y-81407000D01*
X77089000Y-80137000D02*
X72847200Y-75895200D01*
X66827400Y-75895200D02*
X66040000Y-75107800D01*
X130810000Y-74676000D02*
X130810000Y-74295000D01*
X77089000Y-82169000D02*
X77089000Y-80137000D01*
X114808000Y-78794000D02*
X114808000Y-78105000D01*
X132080000Y-75946000D02*
X130810000Y-74676000D01*
X66040000Y-75107800D02*
X66040000Y-73660000D01*
%TO.N,/ABS1*%
X147320000Y-78740000D02*
X147320000Y-79375000D01*
X145415000Y-75311000D02*
X143383000Y-75311000D01*
X114554000Y-77216000D02*
X116586000Y-77216000D01*
X147320000Y-78740000D02*
X147320000Y-77216000D01*
X116586000Y-77216000D02*
X120650000Y-77216000D01*
X112966000Y-78105000D02*
X113665000Y-78105000D01*
X120650000Y-77216000D02*
X121031000Y-76835000D01*
X146619000Y-80076000D02*
X143764000Y-80076000D01*
X143383000Y-75311000D02*
X143256000Y-75311000D01*
X113665000Y-78105000D02*
X114554000Y-77216000D01*
X147320000Y-79375000D02*
X146619000Y-80076000D01*
X149733000Y-78740000D02*
X147320000Y-78740000D01*
X147320000Y-77216000D02*
X145415000Y-75311000D01*
%TO.N,/ENC0_ABS*%
X93853000Y-81661000D02*
X92837000Y-80645000D01*
X76327000Y-86233000D02*
X77851000Y-84709000D01*
X133223000Y-85979000D02*
X132207000Y-86995000D01*
X97409000Y-81661000D02*
X93853000Y-81661000D01*
X132207000Y-86995000D02*
X130810000Y-86995000D01*
X82296000Y-78041000D02*
X82296000Y-78867000D01*
X98298000Y-82550000D02*
X97409000Y-81661000D01*
X77851000Y-84709000D02*
X80899000Y-84709000D01*
X80899000Y-84709000D02*
X83820000Y-81788000D01*
X82296000Y-78867000D02*
X83820000Y-80391000D01*
X126365000Y-82550000D02*
X98298000Y-82550000D01*
X86233000Y-81788000D02*
X83820000Y-81788000D01*
X87376000Y-80645000D02*
X86233000Y-81788000D01*
X92837000Y-80645000D02*
X87376000Y-80645000D01*
X134571500Y-85979000D02*
X133223000Y-85979000D01*
X83820000Y-80391000D02*
X83820000Y-81788000D01*
X130810000Y-86995000D02*
X126365000Y-82550000D01*
%TO.N,/ABS3*%
X88900000Y-82677000D02*
X88928500Y-82648500D01*
X97790000Y-83439000D02*
X125857000Y-83439000D01*
X131318000Y-80137000D02*
X137083800Y-80137000D01*
X88928500Y-82648500D02*
X96999500Y-82648500D01*
X59436000Y-68834000D02*
X59436000Y-69533000D01*
X59055000Y-68453000D02*
X59436000Y-68834000D01*
X137083800Y-80137000D02*
X143306800Y-73914000D01*
X128397000Y-83058000D02*
X131318000Y-80137000D01*
X146685000Y-70612000D02*
X147701000Y-70612000D01*
X147701000Y-70612000D02*
X149733000Y-68580000D01*
X125857000Y-83439000D02*
X125984000Y-83566000D01*
X146939000Y-73533000D02*
X146939000Y-70612000D01*
X146558000Y-73914000D02*
X146939000Y-73533000D01*
X146685000Y-70612000D02*
X143812500Y-70612000D01*
X143306800Y-73914000D02*
X146558000Y-73914000D01*
X96999500Y-82648500D02*
X97790000Y-83439000D01*
X146939000Y-70612000D02*
X146685000Y-70612000D01*
%TO.N,/ABS0*%
X135128000Y-81153000D02*
X136779000Y-81153000D01*
X100558600Y-77216000D02*
X108966000Y-77216000D01*
X86995000Y-77546200D02*
X85634421Y-78906779D01*
X83820000Y-78740000D02*
X83820000Y-78041000D01*
X99745800Y-76403200D02*
X100558600Y-77216000D01*
X93395800Y-77546200D02*
X86995000Y-77546200D01*
X85634421Y-78906779D02*
X83986779Y-78906779D01*
X83986779Y-78906779D02*
X83820000Y-78740000D01*
X95250000Y-75692000D02*
X93395800Y-77546200D01*
X136779000Y-81153000D02*
X137541000Y-81915000D01*
%TO.N,Net-(D7-Pad1)*%
X110045000Y-65786000D02*
X111379000Y-65786000D01*
D35*
%TO.N,+5VD*%
X56769000Y-77470000D02*
X57847000Y-77470000D01*
X56769000Y-77470000D02*
X55564000Y-77470000D01*
X56769000Y-77470000D02*
X56769000Y-78486000D01*
D33*
%TO.N,Net-(D8-Pad1)*%
X117665000Y-65786000D02*
X118872000Y-65786000D01*
%TO.N,Net-(D9-Pad1)*%
X125285000Y-65786000D02*
X126619000Y-65786000D01*
%TO.N,Net-(D10-Pad1)*%
X132905000Y-65786000D02*
X134239000Y-65786000D01*
%TO.N,Net-(D24-Pad1)*%
X82995000Y-96774000D02*
X81915000Y-96774000D01*
%TO.N,Net-(D26-Pad1)*%
X98235000Y-96774000D02*
X97028000Y-96774000D01*
%TO.N,Net-(D27-Pad1)*%
X105855000Y-96774000D02*
X104648000Y-96774000D01*
%TO.N,Net-(D28-Pad1)*%
X113475000Y-96774000D02*
X112268000Y-96774000D01*
%TO.N,Net-(D29-Pad1)*%
X121095000Y-96774000D02*
X119761000Y-96774000D01*
%TO.N,Net-(D30-Pad1)*%
X128715000Y-96774000D02*
X127381000Y-96774000D01*
%TO.N,Net-(D31-Pad1)*%
X136335000Y-96774000D02*
X135128000Y-96774000D01*
%TO.N,Net-(D21-Pad1)*%
X145542000Y-94043000D02*
X145542000Y-95377000D01*
%TO.N,Net-(D23-Pad1)*%
X75629000Y-96774000D02*
X74549000Y-96774000D01*
%TO.N,Net-(D25-Pad1)*%
X90615000Y-96774000D02*
X89408000Y-96774000D01*
%TO.N,Net-(D40-Pad2)*%
X55055000Y-85725000D02*
X54102000Y-85725000D01*
X60641000Y-83693000D02*
X60641000Y-84390000D01*
X53848000Y-86614000D02*
X55880000Y-86614000D01*
X62738000Y-85725000D02*
X61090000Y-85725000D01*
X64135000Y-86360000D02*
X63373000Y-86360000D01*
X63373000Y-86360000D02*
X62738000Y-85725000D01*
X60641000Y-84390000D02*
X61090000Y-84839000D01*
X60641000Y-83693000D02*
X58674000Y-83693000D01*
X53848000Y-85979000D02*
X53848000Y-86614000D01*
X54102000Y-85725000D02*
X53848000Y-85979000D01*
X61090000Y-84839000D02*
X61090000Y-85725000D01*
%TO.N,/CAN_H*%
X66929000Y-99187000D02*
X67310000Y-99568000D01*
X67310000Y-99568000D02*
X67310000Y-100838000D01*
X64135000Y-96809000D02*
X64135000Y-98171000D01*
X65151000Y-99187000D02*
X66929000Y-99187000D01*
X64135000Y-98171000D02*
X65151000Y-99187000D01*
%TO.N,/CAN_L*%
X69088000Y-98425000D02*
X69850000Y-99187000D01*
X69850000Y-99187000D02*
X69850000Y-100838000D01*
X65405000Y-97917000D02*
X65913000Y-98425000D01*
X65405000Y-96809000D02*
X65405000Y-97917000D01*
X65405000Y-95123000D02*
X65405000Y-96809000D01*
X65913000Y-98425000D02*
X69088000Y-98425000D01*
D35*
%TO.N,/V_{IN}*%
X52959000Y-74041000D02*
X53340000Y-73660000D01*
X53213000Y-77470000D02*
X52959000Y-77216000D01*
X54164000Y-77470000D02*
X53213000Y-77470000D01*
X52959000Y-77216000D02*
X52959000Y-74041000D01*
D33*
%TO.N,/LED1Y*%
X81280000Y-86614000D02*
X81280000Y-88900000D01*
X86868000Y-84328000D02*
X83566000Y-84328000D01*
X83566000Y-84328000D02*
X81280000Y-86614000D01*
X87503000Y-83693000D02*
X86868000Y-84328000D01*
X95885000Y-83693000D02*
X87503000Y-83693000D01*
X96012000Y-83566000D02*
X95885000Y-83693000D01*
%TO.N,/BTN0*%
X64325000Y-67310000D02*
X66421000Y-67310000D01*
X66421000Y-67310000D02*
X68580000Y-69469000D01*
X68580000Y-69469000D02*
X68580000Y-73660000D01*
%TO.N,/BTN1*%
X74295000Y-67310000D02*
X71945000Y-67310000D01*
%TO.N,/BTN2*%
X80264000Y-70104000D02*
X75311000Y-70104000D01*
X81153000Y-69215000D02*
X80264000Y-70104000D01*
X81153000Y-67691000D02*
X81153000Y-69215000D01*
X75311000Y-70104000D02*
X73660000Y-71755000D01*
X80772000Y-67310000D02*
X81153000Y-67691000D01*
X79565000Y-67310000D02*
X80772000Y-67310000D01*
X73660000Y-71755000D02*
X73660000Y-73660000D01*
%TO.N,/BTN3*%
X88646000Y-69215000D02*
X88265000Y-69596000D01*
X87185000Y-67310000D02*
X88265000Y-67310000D01*
X88646000Y-67691000D02*
X88646000Y-69215000D01*
X88265000Y-67310000D02*
X88646000Y-67691000D01*
X86614000Y-71247000D02*
X76835000Y-71247000D01*
X88265000Y-69596000D02*
X86614000Y-71247000D01*
%TO.N,/BTN4*%
X90170000Y-86969600D02*
X90195400Y-86944200D01*
X96266000Y-76327000D02*
X97790000Y-74803000D01*
X96520000Y-87299800D02*
X96520000Y-88900000D01*
X97790000Y-74803000D02*
X97790000Y-68453000D01*
X97790000Y-68453000D02*
X96647000Y-67310000D01*
X96164400Y-86944200D02*
X96520000Y-87299800D01*
X90195400Y-86944200D02*
X96164400Y-86944200D01*
X96266000Y-78867000D02*
X96266000Y-76327000D01*
X96647000Y-67310000D02*
X94805000Y-67310000D01*
%TO.N,/BTN5*%
X103759000Y-67691000D02*
X103378000Y-67310000D01*
X103378000Y-67310000D02*
X102425000Y-67310000D01*
X103759000Y-68834000D02*
X103759000Y-67691000D01*
X98171000Y-78867000D02*
X97155000Y-77851000D01*
X97155000Y-77851000D02*
X97155000Y-76581000D01*
X97155000Y-76581000D02*
X98123300Y-75612700D01*
X98123300Y-75612700D02*
X99875900Y-75612700D01*
X100330000Y-75158600D02*
X100330000Y-72263000D01*
X100330000Y-72263000D02*
X103759000Y-68834000D01*
X99875900Y-75612700D02*
X100330000Y-75158600D01*
%TO.N,/BTN6*%
X111252000Y-69088000D02*
X111252000Y-67691000D01*
X110236000Y-70104000D02*
X111252000Y-69088000D01*
X105537000Y-70104000D02*
X110236000Y-70104000D01*
X102870000Y-72771000D02*
X105537000Y-70104000D01*
X110871000Y-67310000D02*
X110045000Y-67310000D01*
X111252000Y-67691000D02*
X110871000Y-67310000D01*
X102870000Y-75946000D02*
X102870000Y-72771000D01*
%TO.N,/BTN7*%
X99060000Y-87198200D02*
X99060000Y-88900000D01*
X119126000Y-67818000D02*
X119126000Y-68707000D01*
X119126000Y-68707000D02*
X118618000Y-69215000D01*
X117983000Y-69850000D02*
X112141000Y-69850000D01*
X118618000Y-67310000D02*
X119126000Y-67818000D01*
X102743000Y-86995000D02*
X99263200Y-86995000D01*
X118618000Y-69215000D02*
X117983000Y-69850000D01*
X117665000Y-67310000D02*
X118618000Y-67310000D01*
X99263200Y-86995000D02*
X99060000Y-87198200D01*
%TO.N,/BTN8*%
X109220000Y-72644000D02*
X109220000Y-73660000D01*
X124587000Y-70993000D02*
X110871000Y-70993000D01*
X126619000Y-67691000D02*
X126619000Y-68961000D01*
X110871000Y-70993000D02*
X109220000Y-72644000D01*
X126238000Y-67310000D02*
X126619000Y-67691000D01*
X126619000Y-68961000D02*
X124587000Y-70993000D01*
X125285000Y-67310000D02*
X126238000Y-67310000D01*
%TO.N,/BTN9*%
X134035800Y-69062600D02*
X134518400Y-68580000D01*
X125349000Y-72009000D02*
X128295400Y-69062600D01*
X115824000Y-81661000D02*
X99695000Y-81661000D01*
X134112000Y-67310000D02*
X132905000Y-67310000D01*
X116459000Y-72009000D02*
X125349000Y-72009000D01*
X128295400Y-69062600D02*
X134035800Y-69062600D01*
X134518400Y-68580000D02*
X134518400Y-67716400D01*
X134518400Y-67716400D02*
X134112000Y-67310000D01*
%TO.N,/BTN10*%
X144018000Y-94043000D02*
X144018000Y-94742000D01*
X78740000Y-86332000D02*
X78740000Y-88900000D01*
X143637000Y-95123000D02*
X142621000Y-95123000D01*
X144018000Y-94742000D02*
X143637000Y-95123000D01*
X133223000Y-93091000D02*
X131191000Y-91059000D01*
X131191000Y-91059000D02*
X119253000Y-91059000D01*
X142621000Y-95123000D02*
X140589000Y-93091000D01*
X119253000Y-91059000D02*
X112744900Y-84550900D01*
X112744900Y-84550900D02*
X87661100Y-84550900D01*
X86868000Y-85344000D02*
X83820000Y-85344000D01*
X140589000Y-93091000D02*
X133223000Y-93091000D01*
X87661100Y-84550900D02*
X86868000Y-85344000D01*
%TO.N,/BTN11*%
X133350000Y-95250000D02*
X136335000Y-95250000D01*
X89408000Y-85341400D02*
X89410600Y-85344000D01*
X130175000Y-92075000D02*
X133350000Y-95250000D01*
X118999000Y-92075000D02*
X130175000Y-92075000D01*
X89410600Y-85344000D02*
X112268000Y-85344000D01*
X112268000Y-85344000D02*
X118999000Y-92075000D01*
%TO.N,/BTN12*%
X84150536Y-86131400D02*
X84147436Y-86134500D01*
X118745000Y-93091000D02*
X111785400Y-86131400D01*
X128715000Y-95250000D02*
X127381000Y-95250000D01*
X125222000Y-93091000D02*
X118745000Y-93091000D01*
X111785400Y-86131400D02*
X84150536Y-86131400D01*
X84147436Y-86134500D02*
X83765730Y-86134500D01*
X127381000Y-95250000D02*
X125222000Y-93091000D01*
X83765730Y-86134500D02*
X82664115Y-87236115D01*
%TO.N,/BTN13*%
X115316000Y-92557600D02*
X116078000Y-93319600D01*
X116078000Y-93319600D02*
X116078000Y-93345000D01*
X73660000Y-90627200D02*
X73660000Y-88900000D01*
X117983000Y-95250000D02*
X121095000Y-95250000D01*
X115316000Y-92456000D02*
X115316000Y-92557600D01*
X110490000Y-90805000D02*
X110363000Y-90932000D01*
X73964800Y-90932000D02*
X73660000Y-90627200D01*
X116078000Y-93345000D02*
X117983000Y-95250000D01*
X110363000Y-90932000D02*
X73964800Y-90932000D01*
%TO.N,/BTN14*%
X111147754Y-92935500D02*
X104193564Y-92935500D01*
X99850500Y-92935500D02*
X99568000Y-93218000D01*
X113462254Y-95250000D02*
X111147754Y-92935500D01*
X104193564Y-92935500D02*
X99850500Y-92935500D01*
%TO.N,/BTN15*%
X104902000Y-95250000D02*
X105855000Y-95250000D01*
X104267000Y-94615000D02*
X104902000Y-95250000D01*
X104267000Y-93980000D02*
X104267000Y-94615000D01*
%TO.N,/BTN16*%
X98235000Y-92519000D02*
X98806000Y-91948000D01*
X98806000Y-91948000D02*
X110871000Y-91948000D01*
X98235000Y-95250000D02*
X98235000Y-92519000D01*
X111760000Y-91059000D02*
X111760000Y-88900000D01*
X110871000Y-91948000D02*
X111760000Y-91059000D01*
%TO.N,/BTN17*%
X88202000Y-92837000D02*
X72796400Y-92837000D01*
X90615000Y-95250000D02*
X88202000Y-92837000D01*
X71120000Y-91160600D02*
X71120000Y-88900000D01*
X72796400Y-92837000D02*
X71120000Y-91160600D01*
%TO.N,/BTN18*%
X71501000Y-93980000D02*
X81725000Y-93980000D01*
X81725000Y-93980000D02*
X82995000Y-95250000D01*
%TO.N,/BTN19*%
X69773800Y-93954600D02*
X71069200Y-95250000D01*
X71069200Y-95250000D02*
X75629000Y-95250000D01*
%TO.N,/CAN_TX*%
X62865000Y-89535000D02*
X63500000Y-88900000D01*
X62865000Y-91659000D02*
X62865000Y-89535000D01*
%TO.N,/CAN_RX*%
X66040000Y-89535000D02*
X66675000Y-90170000D01*
X66040000Y-88900000D02*
X66040000Y-89535000D01*
X66675000Y-90170000D02*
X66675000Y-91659000D01*
%TO.N,/Button Inputs/BN0*%
X62725000Y-64262000D02*
X61595000Y-64262000D01*
X61468000Y-65913000D02*
X61468000Y-64135000D01*
X61468000Y-64135000D02*
X61468000Y-62357000D01*
X61595000Y-64262000D02*
X61468000Y-64135000D01*
X61595000Y-65786000D02*
X61468000Y-65913000D01*
X62675000Y-67310000D02*
X61976000Y-67310000D01*
X61468000Y-62357000D02*
X62230000Y-61595000D01*
X62675000Y-65786000D02*
X61595000Y-65786000D01*
X61468000Y-66802000D02*
X61468000Y-65913000D01*
X61976000Y-67310000D02*
X61468000Y-66802000D01*
%TO.N,/Button Inputs/BN1*%
X68961000Y-65786000D02*
X68961000Y-64389000D01*
X70295000Y-67310000D02*
X69596000Y-67310000D01*
X70295000Y-65786000D02*
X68961000Y-65786000D01*
X69088000Y-64262000D02*
X68961000Y-64389000D01*
X70345000Y-64262000D02*
X69088000Y-64262000D01*
X68961000Y-64389000D02*
X68961000Y-62484000D01*
X68961000Y-62484000D02*
X69850000Y-61595000D01*
X69596000Y-67310000D02*
X68961000Y-66675000D01*
X68961000Y-66675000D02*
X68961000Y-65786000D01*
%TO.N,/Button Inputs/BN2*%
X76581000Y-62484000D02*
X77470000Y-61595000D01*
X76962000Y-67310000D02*
X76581000Y-66929000D01*
X76708000Y-65786000D02*
X76581000Y-65913000D01*
X77915000Y-65786000D02*
X76708000Y-65786000D01*
X77965000Y-64262000D02*
X76581000Y-64262000D01*
X76581000Y-65913000D02*
X76581000Y-64262000D01*
X77915000Y-67310000D02*
X76962000Y-67310000D01*
X76581000Y-64262000D02*
X76581000Y-62484000D01*
X76581000Y-66929000D02*
X76581000Y-65913000D01*
%TO.N,/Button Inputs/BN3*%
X85585000Y-64262000D02*
X84328000Y-64262000D01*
X84201000Y-64389000D02*
X84201000Y-62484000D01*
X84709000Y-67310000D02*
X84201000Y-66802000D01*
X84201000Y-66802000D02*
X84201000Y-65659000D01*
X84328000Y-64262000D02*
X84201000Y-64389000D01*
X84328000Y-65786000D02*
X84201000Y-65659000D01*
X84201000Y-65659000D02*
X84201000Y-64389000D01*
X84201000Y-62484000D02*
X85090000Y-61595000D01*
X85535000Y-65786000D02*
X84328000Y-65786000D01*
X85535000Y-67310000D02*
X84709000Y-67310000D01*
%TO.N,/Button Inputs/BN4*%
X91948000Y-64135000D02*
X91948000Y-62357000D01*
X92075000Y-64262000D02*
X91948000Y-64135000D01*
X93155000Y-65786000D02*
X91948000Y-65786000D01*
X92202000Y-67310000D02*
X91948000Y-67056000D01*
X91948000Y-65786000D02*
X91948000Y-64135000D01*
X93205000Y-64262000D02*
X92075000Y-64262000D01*
X91948000Y-67056000D02*
X91948000Y-65786000D01*
X91948000Y-62357000D02*
X92710000Y-61595000D01*
X93155000Y-67310000D02*
X92202000Y-67310000D01*
%TO.N,/Button Inputs/BN5*%
X100775000Y-67310000D02*
X99822000Y-67310000D01*
X99568000Y-65786000D02*
X99441000Y-65913000D01*
X100775000Y-65786000D02*
X99568000Y-65786000D01*
X99441000Y-64135000D02*
X99441000Y-62484000D01*
X99441000Y-66929000D02*
X99441000Y-65913000D01*
X99441000Y-62484000D02*
X100330000Y-61595000D01*
X100838000Y-64262000D02*
X99568000Y-64262000D01*
X99441000Y-65913000D02*
X99441000Y-64135000D01*
X99568000Y-64262000D02*
X99441000Y-64135000D01*
X99822000Y-67310000D02*
X99441000Y-66929000D01*
%TO.N,/Button Inputs/BN6*%
X108395000Y-65786000D02*
X107061000Y-65786000D01*
X106934000Y-64135000D02*
X106934000Y-62611000D01*
X108395000Y-67310000D02*
X107569000Y-67310000D01*
X106934000Y-62611000D02*
X107950000Y-61595000D01*
X106934000Y-65659000D02*
X106934000Y-64135000D01*
X107569000Y-67310000D02*
X106934000Y-66675000D01*
X106934000Y-66675000D02*
X106934000Y-65659000D01*
X107061000Y-65786000D02*
X106934000Y-65659000D01*
X107061000Y-64262000D02*
X106934000Y-64135000D01*
X108445000Y-64262000D02*
X107061000Y-64262000D01*
%TO.N,/Button Inputs/BN7*%
X116065000Y-64262000D02*
X114681000Y-64262000D01*
X114554000Y-65786000D02*
X114554000Y-64135000D01*
X116015000Y-67310000D02*
X114935000Y-67310000D01*
X114681000Y-64262000D02*
X114554000Y-64135000D01*
X114935000Y-67310000D02*
X114554000Y-66929000D01*
X114554000Y-64135000D02*
X114554000Y-62611000D01*
X114554000Y-66929000D02*
X114554000Y-65786000D01*
X114554000Y-62611000D02*
X115570000Y-61595000D01*
X116015000Y-65786000D02*
X114554000Y-65786000D01*
%TO.N,/Button Inputs/BN8*%
X122174000Y-65913000D02*
X122174000Y-64262000D01*
X122174000Y-64262000D02*
X122174000Y-62611000D01*
X123685000Y-64262000D02*
X122174000Y-64262000D01*
X122174000Y-66675000D02*
X122174000Y-65913000D01*
X122301000Y-65786000D02*
X122174000Y-65913000D01*
X122809000Y-67310000D02*
X122174000Y-66675000D01*
X123635000Y-65786000D02*
X122301000Y-65786000D01*
X123635000Y-67310000D02*
X122809000Y-67310000D01*
X122174000Y-62611000D02*
X123190000Y-61595000D01*
%TO.N,/Button Inputs/BN9*%
X131305000Y-64262000D02*
X129921000Y-64262000D01*
X129921000Y-64262000D02*
X129921000Y-62484000D01*
X130048000Y-65786000D02*
X129921000Y-65913000D01*
X130556000Y-67310000D02*
X129921000Y-66675000D01*
X129921000Y-66675000D02*
X129921000Y-65913000D01*
X131255000Y-65786000D02*
X130048000Y-65786000D01*
X129921000Y-65913000D02*
X129921000Y-64262000D01*
X129921000Y-62484000D02*
X130810000Y-61595000D01*
X131255000Y-67310000D02*
X130556000Y-67310000D01*
%TO.N,/Button Inputs/BN10*%
X148844000Y-91186000D02*
X149733000Y-92075000D01*
X145542000Y-92393000D02*
X145542000Y-91313000D01*
X144018000Y-92393000D02*
X144018000Y-91567000D01*
X147066000Y-91313000D02*
X147193000Y-91186000D01*
X144399000Y-91186000D02*
X145669000Y-91186000D01*
X147193000Y-91186000D02*
X148844000Y-91186000D01*
X147066000Y-92443000D02*
X147066000Y-91313000D01*
X144018000Y-91567000D02*
X144399000Y-91186000D01*
X145669000Y-91186000D02*
X147193000Y-91186000D01*
X145542000Y-91313000D02*
X145669000Y-91186000D01*
%TO.N,/Button Inputs/BN11*%
X139573000Y-96774000D02*
X139573000Y-98298000D01*
X139573000Y-99822000D02*
X138430000Y-100965000D01*
X137985000Y-96774000D02*
X139573000Y-96774000D01*
X139573000Y-98298000D02*
X139573000Y-99822000D01*
X139065000Y-95250000D02*
X139573000Y-95758000D01*
X139573000Y-95758000D02*
X139573000Y-96774000D01*
X137985000Y-95250000D02*
X139065000Y-95250000D01*
X137935000Y-98298000D02*
X139573000Y-98298000D01*
%TO.N,/Button Inputs/BN12*%
X131953000Y-95885000D02*
X131953000Y-96901000D01*
X131826000Y-96774000D02*
X131953000Y-96901000D01*
X130365000Y-96774000D02*
X131826000Y-96774000D01*
X130315000Y-98298000D02*
X131953000Y-98298000D01*
X131318000Y-95250000D02*
X131953000Y-95885000D01*
X130365000Y-95250000D02*
X131318000Y-95250000D01*
X131953000Y-96901000D02*
X131953000Y-98298000D01*
X131953000Y-99822000D02*
X130810000Y-100965000D01*
X131953000Y-98298000D02*
X131953000Y-99822000D01*
%TO.N,/Button Inputs/BN13*%
X124206000Y-99949000D02*
X123190000Y-100965000D01*
X124206000Y-96901000D02*
X124206000Y-98425000D01*
X124206000Y-98425000D02*
X124206000Y-99949000D01*
X123698000Y-95250000D02*
X124206000Y-95758000D01*
X124079000Y-96774000D02*
X124206000Y-96901000D01*
X124079000Y-98298000D02*
X124206000Y-98425000D01*
X124206000Y-95758000D02*
X124206000Y-96901000D01*
X122745000Y-95250000D02*
X123698000Y-95250000D01*
X122745000Y-96774000D02*
X124079000Y-96774000D01*
X122695000Y-98298000D02*
X124079000Y-98298000D01*
%TO.N,/Button Inputs/BN14*%
X116586000Y-96012000D02*
X116586000Y-96647000D01*
X115112254Y-95250000D02*
X115824000Y-95250000D01*
X116586000Y-96647000D02*
X116586000Y-98425000D01*
X116459000Y-98298000D02*
X116586000Y-98425000D01*
X115824000Y-95250000D02*
X116586000Y-96012000D01*
X116586000Y-99949000D02*
X115570000Y-100965000D01*
X115075000Y-98298000D02*
X116459000Y-98298000D01*
X116586000Y-98425000D02*
X116586000Y-99949000D01*
X116459000Y-96774000D02*
X116586000Y-96647000D01*
X115125000Y-96774000D02*
X116459000Y-96774000D01*
%TO.N,/Button Inputs/BN15*%
X109220000Y-99695000D02*
X107950000Y-100965000D01*
X109220000Y-98044000D02*
X109220000Y-99695000D01*
X109093000Y-98298000D02*
X109220000Y-98425000D01*
X109220000Y-96774000D02*
X109220000Y-98044000D01*
X107505000Y-96774000D02*
X109220000Y-96774000D01*
X109220000Y-98425000D02*
X109220000Y-98044000D01*
X109220000Y-95885000D02*
X109220000Y-96774000D01*
X107505000Y-95250000D02*
X108585000Y-95250000D01*
X108585000Y-95250000D02*
X109220000Y-95885000D01*
X107455000Y-98298000D02*
X109093000Y-98298000D01*
%TO.N,/Button Inputs/BN16*%
X101600000Y-96647000D02*
X101600000Y-98425000D01*
X101600000Y-95885000D02*
X101600000Y-96647000D01*
X99885000Y-95250000D02*
X100965000Y-95250000D01*
X101600000Y-99695000D02*
X100330000Y-100965000D01*
X101473000Y-96774000D02*
X101600000Y-96647000D01*
X99885000Y-96774000D02*
X101473000Y-96774000D01*
X100965000Y-95250000D02*
X101600000Y-95885000D01*
X99835000Y-98298000D02*
X101473000Y-98298000D01*
X101600000Y-98425000D02*
X101600000Y-99695000D01*
X101473000Y-98298000D02*
X101600000Y-98425000D01*
%TO.N,/Button Inputs/BN17*%
X94107000Y-98298000D02*
X94107000Y-99568000D01*
X94107000Y-99568000D02*
X92710000Y-100965000D01*
X92265000Y-95250000D02*
X93599000Y-95250000D01*
X92215000Y-98298000D02*
X94107000Y-98298000D01*
X93980000Y-96774000D02*
X94107000Y-96647000D01*
X92265000Y-96774000D02*
X93980000Y-96774000D01*
X94107000Y-95758000D02*
X94107000Y-96647000D01*
X94107000Y-96647000D02*
X94107000Y-98298000D01*
X93599000Y-95250000D02*
X94107000Y-95758000D01*
%TO.N,/Button Inputs/BN18*%
X86106000Y-99949000D02*
X85090000Y-100965000D01*
X84645000Y-96774000D02*
X85979000Y-96774000D01*
X86106000Y-98425000D02*
X86106000Y-99949000D01*
X84645000Y-95250000D02*
X85598000Y-95250000D01*
X84595000Y-98298000D02*
X85979000Y-98298000D01*
X85598000Y-95250000D02*
X86106000Y-95758000D01*
X86106000Y-95758000D02*
X86106000Y-96901000D01*
X85979000Y-98298000D02*
X86106000Y-98425000D01*
X85979000Y-96774000D02*
X86106000Y-96901000D01*
X86106000Y-96901000D02*
X86106000Y-98425000D01*
%TO.N,/Button Inputs/BN19*%
X77279000Y-96774000D02*
X78613000Y-96774000D01*
X77724000Y-100965000D02*
X77470000Y-100965000D01*
X78232000Y-95250000D02*
X78613000Y-95631000D01*
X78613000Y-96774000D02*
X78613000Y-98298000D01*
X77229000Y-98298000D02*
X78613000Y-98298000D01*
X78613000Y-100076000D02*
X77724000Y-100965000D01*
X78613000Y-95631000D02*
X78613000Y-96774000D01*
X78613000Y-98298000D02*
X78613000Y-100076000D01*
X77279000Y-95250000D02*
X78232000Y-95250000D01*
D34*
%TO.N,/+5V_{IN}*%
X55691000Y-82423000D02*
X53975000Y-82423000D01*
X55691000Y-79883000D02*
X53975000Y-79883000D01*
X55691000Y-81153000D02*
X53975000Y-81153000D01*
X55691000Y-83693000D02*
X53975000Y-83693000D01*
%TD*%
M02*
