<?xml version="1.0" standalone="no"?>
 <!DOCTYPE svg PUBLIC "-//W3C//DTD SVG 1.1//EN" 
 "http://www.w3.org/Graphics/SVG/1.1/DTD/svg11.dtd"> 
<svg
  xmlns:svg="http://www.w3.org/2000/svg"
  xmlns="http://www.w3.org/2000/svg"
  xmlns:xlink="http://www.w3.org/1999/xlink"
  version="1.1"
  width="431.8000mm" height="279.4000mm" viewBox="0.0000 0.0000 431.8000 279.4000">
<title>SVG Image created as NX-ButtonInterface-B_Silkscreen.svg date 2024/08/16 20:35:22 </title>
  <desc>Image generated by PCBNEW </desc>
<g style="fill:#000000; fill-opacity:1.0000;stroke:#000000; stroke-opacity:1.0000;
stroke-linecap:round; stroke-linejoin:round;"
 transform="translate(0 0) scale(1 1)">
</g>
<g style="fill:none; 
stroke:#000000; stroke-width:0.1778; stroke-opacity:1; 
stroke-linecap:round; stroke-linejoin:round;">
<text x="312.9280" y="100.5983"
textLength="6.3270" font-size="1.6933" lengthAdjust="spacingAndGlyphs"
text-anchor="start" opacity="0" stroke-opacity="0">7 GND</text>
<g class="stroked-text"><desc>7 GND</desc>
<path d="M313.2264 99.2716
L314.0731 99.2716
" />
<path d="M314.0731 99.2716
L313.5288 100.5416
" />
<path d="M316.1897 99.3320
L316.0688 99.2716
" />
<path d="M316.0688 99.2716
L315.8874 99.2716
" />
<path d="M315.8874 99.2716
L315.7059 99.3320
" />
<path d="M315.7059 99.3320
L315.5850 99.4530
" />
<path d="M315.5850 99.4530
L315.5245 99.5739
" />
<path d="M315.5245 99.5739
L315.4640 99.8159
" />
<path d="M315.4640 99.8159
L315.4640 99.9973
" />
<path d="M315.4640 99.9973
L315.5245 100.2392
" />
<path d="M315.5245 100.2392
L315.5850 100.3601
" />
<path d="M315.5850 100.3601
L315.7059 100.4811
" />
<path d="M315.7059 100.4811
L315.8874 100.5416
" />
<path d="M315.8874 100.5416
L316.0083 100.5416
" />
<path d="M316.0083 100.5416
L316.1897 100.4811
" />
<path d="M316.1897 100.4811
L316.2502 100.4206
" />
<path d="M316.2502 100.4206
L316.2502 99.9973
" />
<path d="M316.2502 99.9973
L316.0083 99.9973
" />
<path d="M316.7945 100.5416
L316.7945 99.2716
" />
<path d="M316.7945 99.2716
L317.5202 100.5416
" />
<path d="M317.5202 100.5416
L317.5202 99.2716
" />
<path d="M318.1250 100.5416
L318.1250 99.2716
" />
<path d="M318.1250 99.2716
L318.4274 99.2716
" />
<path d="M318.4274 99.2716
L318.6088 99.3320
" />
<path d="M318.6088 99.3320
L318.7297 99.4530
" />
<path d="M318.7297 99.4530
L318.7902 99.5739
" />
<path d="M318.7902 99.5739
L318.8507 99.8159
" />
<path d="M318.8507 99.8159
L318.8507 99.9973
" />
<path d="M318.8507 99.9973
L318.7902 100.2392
" />
<path d="M318.7902 100.2392
L318.7297 100.3601
" />
<path d="M318.7297 100.3601
L318.6088 100.4811
" />
<path d="M318.6088 100.4811
L318.4274 100.5416
" />
<path d="M318.4274 100.5416
L318.1250 100.5416
" />
</g><text x="333.7560" y="105.5370"
textLength="7.4761" font-size="1.6933" lengthAdjust="spacingAndGlyphs"
text-anchor="end" opacity="0" stroke-opacity="0">LED+ 1</text>
<g class="stroked-text"><desc>LED+ 1</desc>
<path d="M327.3495 105.4803
L326.7447 105.4803
" />
<path d="M326.7447 105.4803
L326.7447 104.2103
" />
<path d="M327.7728 104.8150
L328.1962 104.8150
" />
<path d="M328.3776 105.4803
L327.7728 105.4803
" />
<path d="M327.7728 105.4803
L327.7728 104.2103
" />
<path d="M327.7728 104.2103
L328.3776 104.2103
" />
<path d="M328.9219 105.4803
L328.9219 104.2103
" />
<path d="M328.9219 104.2103
L329.2243 104.2103
" />
<path d="M329.2243 104.2103
L329.4057 104.2708
" />
<path d="M329.4057 104.2708
L329.5266 104.3917
" />
<path d="M329.5266 104.3917
L329.5871 104.5127
" />
<path d="M329.5871 104.5127
L329.6476 104.7546
" />
<path d="M329.6476 104.7546
L329.6476 104.9360
" />
<path d="M329.6476 104.9360
L329.5871 105.1779
" />
<path d="M329.5871 105.1779
L329.5266 105.2989
" />
<path d="M329.5266 105.2989
L329.4057 105.4198
" />
<path d="M329.4057 105.4198
L329.2243 105.4803
" />
<path d="M329.2243 105.4803
L328.9219 105.4803
" />
<path d="M330.1919 104.9965
L331.1595 104.9965
" />
<path d="M330.6757 105.4803
L330.6757 104.5127
" />
<path d="M333.3971 105.4803
L332.6714 105.4803
" />
<path d="M333.0343 105.4803
L333.0343 104.2103
" />
<path d="M333.0343 104.2103
L332.9133 104.3917
" />
<path d="M332.9133 104.3917
L332.7924 104.5127
" />
<path d="M332.7924 104.5127
L332.6714 104.5731
" />
</g><text x="312.9280" y="103.6606"
textLength="6.2061" font-size="1.6933" lengthAdjust="spacingAndGlyphs"
text-anchor="start" opacity="0" stroke-opacity="0">5 RXD</text>
<g class="stroked-text"><desc>5 RXD</desc>
<path d="M313.9521 102.3339
L313.3474 102.3339
" />
<path d="M313.3474 102.3339
L313.2869 102.9386
" />
<path d="M313.2869 102.9386
L313.3474 102.8781
" />
<path d="M313.3474 102.8781
L313.4683 102.8177
" />
<path d="M313.4683 102.8177
L313.7707 102.8177
" />
<path d="M313.7707 102.8177
L313.8916 102.8781
" />
<path d="M313.8916 102.8781
L313.9521 102.9386
" />
<path d="M313.9521 102.9386
L314.0126 103.0596
" />
<path d="M314.0126 103.0596
L314.0126 103.3619
" />
<path d="M314.0126 103.3619
L313.9521 103.4829
" />
<path d="M313.9521 103.4829
L313.8916 103.5434
" />
<path d="M313.8916 103.5434
L313.7707 103.6039
" />
<path d="M313.7707 103.6039
L313.4683 103.6039
" />
<path d="M313.4683 103.6039
L313.3474 103.5434
" />
<path d="M313.3474 103.5434
L313.2869 103.4829
" />
<path d="M316.2502 103.6039
L315.8269 102.9991
" />
<path d="M315.5245 103.6039
L315.5245 102.3339
" />
<path d="M315.5245 102.3339
L316.0083 102.3339
" />
<path d="M316.0083 102.3339
L316.1293 102.3943
" />
<path d="M316.1293 102.3943
L316.1897 102.4548
" />
<path d="M316.1897 102.4548
L316.2502 102.5758
" />
<path d="M316.2502 102.5758
L316.2502 102.7572
" />
<path d="M316.2502 102.7572
L316.1897 102.8781
" />
<path d="M316.1897 102.8781
L316.1293 102.9386
" />
<path d="M316.1293 102.9386
L316.0083 102.9991
" />
<path d="M316.0083 102.9991
L315.5245 102.9991
" />
<path d="M316.6735 102.3339
L317.5202 103.6039
" />
<path d="M317.5202 102.3339
L316.6735 103.6039
" />
<path d="M318.0040 103.6039
L318.0040 102.3339
" />
<path d="M318.0040 102.3339
L318.3064 102.3339
" />
<path d="M318.3064 102.3339
L318.4878 102.3943
" />
<path d="M318.4878 102.3943
L318.6088 102.5153
" />
<path d="M318.6088 102.5153
L318.6693 102.6362
" />
<path d="M318.6693 102.6362
L318.7297 102.8781
" />
<path d="M318.7297 102.8781
L318.7297 103.0596
" />
<path d="M318.7297 103.0596
L318.6693 103.3015
" />
<path d="M318.6693 103.3015
L318.6088 103.4224
" />
<path d="M318.6088 103.4224
L318.4878 103.5434
" />
<path d="M318.4878 103.5434
L318.3064 103.6039
" />
<path d="M318.3064 103.6039
L318.0040 103.6039
" />
</g><text x="333.7560" y="108.5850"
textLength="7.4761" font-size="1.6933" lengthAdjust="spacingAndGlyphs"
text-anchor="end" opacity="0" stroke-opacity="0">LED- 2</text>
<g class="stroked-text"><desc>LED- 2</desc>
<path d="M327.3495 108.5283
L326.7447 108.5283
" />
<path d="M326.7447 108.5283
L326.7447 107.2583
" />
<path d="M327.7728 107.8630
L328.1962 107.8630
" />
<path d="M328.3776 108.5283
L327.7728 108.5283
" />
<path d="M327.7728 108.5283
L327.7728 107.2583
" />
<path d="M327.7728 107.2583
L328.3776 107.2583
" />
<path d="M328.9219 108.5283
L328.9219 107.2583
" />
<path d="M328.9219 107.2583
L329.2243 107.2583
" />
<path d="M329.2243 107.2583
L329.4057 107.3188
" />
<path d="M329.4057 107.3188
L329.5266 107.4397
" />
<path d="M329.5266 107.4397
L329.5871 107.5607
" />
<path d="M329.5871 107.5607
L329.6476 107.8026
" />
<path d="M329.6476 107.8026
L329.6476 107.9840
" />
<path d="M329.6476 107.9840
L329.5871 108.2259
" />
<path d="M329.5871 108.2259
L329.5266 108.3469
" />
<path d="M329.5266 108.3469
L329.4057 108.4678
" />
<path d="M329.4057 108.4678
L329.2243 108.5283
" />
<path d="M329.2243 108.5283
L328.9219 108.5283
" />
<path d="M330.1919 108.0445
L331.1595 108.0445
" />
<path d="M332.6714 107.3792
L332.7319 107.3188
" />
<path d="M332.7319 107.3188
L332.8528 107.2583
" />
<path d="M332.8528 107.2583
L333.1552 107.2583
" />
<path d="M333.1552 107.2583
L333.2762 107.3188
" />
<path d="M333.2762 107.3188
L333.3366 107.3792
" />
<path d="M333.3366 107.3792
L333.3971 107.5002
" />
<path d="M333.3971 107.5002
L333.3971 107.6211
" />
<path d="M333.3971 107.6211
L333.3366 107.8026
" />
<path d="M333.3366 107.8026
L332.6109 108.5283
" />
<path d="M332.6109 108.5283
L333.3971 108.5283
" />
</g></g>
<g style="fill:none; 
stroke:#000000; stroke-width:0.2286; stroke-opacity:1; 
stroke-linecap:round; stroke-linejoin:round;">
<text x="333.8830" y="97.5234"
textLength="18.8770" font-size="1.6933" lengthAdjust="spacingAndGlyphs"
text-anchor="middle" opacity="0" stroke-opacity="0">SPARTAN ROBOTICS</text>
<g class="stroked-text"><desc>SPARTAN ROBOTICS</desc>
<path d="M324.9023 97.4035
L325.0837 97.4640
" />
<path d="M325.0837 97.4640
L325.3861 97.4640
" />
<path d="M325.3861 97.4640
L325.5070 97.4035
" />
<path d="M325.5070 97.4035
L325.5675 97.3431
" />
<path d="M325.5675 97.3431
L325.6280 97.2221
" />
<path d="M325.6280 97.2221
L325.6280 97.1012
" />
<path d="M325.6280 97.1012
L325.5675 96.9802
" />
<path d="M325.5675 96.9802
L325.5070 96.9197
" />
<path d="M325.5070 96.9197
L325.3861 96.8592
" />
<path d="M325.3861 96.8592
L325.1442 96.7988
" />
<path d="M325.1442 96.7988
L325.0232 96.7383
" />
<path d="M325.0232 96.7383
L324.9628 96.6778
" />
<path d="M324.9628 96.6778
L324.9023 96.5569
" />
<path d="M324.9023 96.5569
L324.9023 96.4359
" />
<path d="M324.9023 96.4359
L324.9628 96.3150
" />
<path d="M324.9628 96.3150
L325.0232 96.2545
" />
<path d="M325.0232 96.2545
L325.1442 96.1940
" />
<path d="M325.1442 96.1940
L325.4466 96.1940
" />
<path d="M325.4466 96.1940
L325.6280 96.2545
" />
<path d="M326.1723 97.4640
L326.1723 96.1940
" />
<path d="M326.1723 96.1940
L326.6561 96.1940
" />
<path d="M326.6561 96.1940
L326.7770 96.2545
" />
<path d="M326.7770 96.2545
L326.8375 96.3150
" />
<path d="M326.8375 96.3150
L326.8980 96.4359
" />
<path d="M326.8980 96.4359
L326.8980 96.6173
" />
<path d="M326.8980 96.6173
L326.8375 96.7383
" />
<path d="M326.8375 96.7383
L326.7770 96.7988
" />
<path d="M326.7770 96.7988
L326.6561 96.8592
" />
<path d="M326.6561 96.8592
L326.1723 96.8592
" />
<path d="M327.3818 97.1012
L327.9866 97.1012
" />
<path d="M327.2609 97.4640
L327.6842 96.1940
" />
<path d="M327.6842 96.1940
L328.1075 97.4640
" />
<path d="M329.2566 97.4640
L328.8332 96.8592
" />
<path d="M328.5309 97.4640
L328.5309 96.1940
" />
<path d="M328.5309 96.1940
L329.0147 96.1940
" />
<path d="M329.0147 96.1940
L329.1356 96.2545
" />
<path d="M329.1356 96.2545
L329.1961 96.3150
" />
<path d="M329.1961 96.3150
L329.2566 96.4359
" />
<path d="M329.2566 96.4359
L329.2566 96.6173
" />
<path d="M329.2566 96.6173
L329.1961 96.7383
" />
<path d="M329.1961 96.7383
L329.1356 96.7988
" />
<path d="M329.1356 96.7988
L329.0147 96.8592
" />
<path d="M329.0147 96.8592
L328.5309 96.8592
" />
<path d="M329.6194 96.1940
L330.3451 96.1940
" />
<path d="M329.9823 97.4640
L329.9823 96.1940
" />
<path d="M330.7080 97.1012
L331.3128 97.1012
" />
<path d="M330.5870 97.4640
L331.0104 96.1940
" />
<path d="M331.0104 96.1940
L331.4337 97.4640
" />
<path d="M331.8570 97.4640
L331.8570 96.1940
" />
<path d="M331.8570 96.1940
L332.5828 97.4640
" />
<path d="M332.5828 97.4640
L332.5828 96.1940
" />
<path d="M334.8809 97.4640
L334.4575 96.8592
" />
<path d="M334.1551 97.4640
L334.1551 96.1940
" />
<path d="M334.1551 96.1940
L334.6390 96.1940
" />
<path d="M334.6390 96.1940
L334.7599 96.2545
" />
<path d="M334.7599 96.2545
L334.8204 96.3150
" />
<path d="M334.8204 96.3150
L334.8809 96.4359
" />
<path d="M334.8809 96.4359
L334.8809 96.6173
" />
<path d="M334.8809 96.6173
L334.8204 96.7383
" />
<path d="M334.8204 96.7383
L334.7599 96.7988
" />
<path d="M334.7599 96.7988
L334.6390 96.8592
" />
<path d="M334.6390 96.8592
L334.1551 96.8592
" />
<path d="M335.6670 96.1940
L335.9090 96.1940
" />
<path d="M335.9090 96.1940
L336.0299 96.2545
" />
<path d="M336.0299 96.2545
L336.1509 96.3754
" />
<path d="M336.1509 96.3754
L336.2113 96.6173
" />
<path d="M336.2113 96.6173
L336.2113 97.0407
" />
<path d="M336.2113 97.0407
L336.1509 97.2826
" />
<path d="M336.1509 97.2826
L336.0299 97.4035
" />
<path d="M336.0299 97.4035
L335.9090 97.4640
" />
<path d="M335.9090 97.4640
L335.6670 97.4640
" />
<path d="M335.6670 97.4640
L335.5461 97.4035
" />
<path d="M335.5461 97.4035
L335.4251 97.2826
" />
<path d="M335.4251 97.2826
L335.3647 97.0407
" />
<path d="M335.3647 97.0407
L335.3647 96.6173
" />
<path d="M335.3647 96.6173
L335.4251 96.3754
" />
<path d="M335.4251 96.3754
L335.5461 96.2545
" />
<path d="M335.5461 96.2545
L335.6670 96.1940
" />
<path d="M337.1790 96.7988
L337.3604 96.8592
" />
<path d="M337.3604 96.8592
L337.4209 96.9197
" />
<path d="M337.4209 96.9197
L337.4813 97.0407
" />
<path d="M337.4813 97.0407
L337.4813 97.2221
" />
<path d="M337.4813 97.2221
L337.4209 97.3431
" />
<path d="M337.4209 97.3431
L337.3604 97.4035
" />
<path d="M337.3604 97.4035
L337.2394 97.4640
" />
<path d="M337.2394 97.4640
L336.7556 97.4640
" />
<path d="M336.7556 97.4640
L336.7556 96.1940
" />
<path d="M336.7556 96.1940
L337.1790 96.1940
" />
<path d="M337.1790 96.1940
L337.2999 96.2545
" />
<path d="M337.2999 96.2545
L337.3604 96.3150
" />
<path d="M337.3604 96.3150
L337.4209 96.4359
" />
<path d="M337.4209 96.4359
L337.4209 96.5569
" />
<path d="M337.4209 96.5569
L337.3604 96.6778
" />
<path d="M337.3604 96.6778
L337.2999 96.7383
" />
<path d="M337.2999 96.7383
L337.1790 96.7988
" />
<path d="M337.1790 96.7988
L336.7556 96.7988
" />
<path d="M338.2675 96.1940
L338.5094 96.1940
" />
<path d="M338.5094 96.1940
L338.6304 96.2545
" />
<path d="M338.6304 96.2545
L338.7513 96.3754
" />
<path d="M338.7513 96.3754
L338.8118 96.6173
" />
<path d="M338.8118 96.6173
L338.8118 97.0407
" />
<path d="M338.8118 97.0407
L338.7513 97.2826
" />
<path d="M338.7513 97.2826
L338.6304 97.4035
" />
<path d="M338.6304 97.4035
L338.5094 97.4640
" />
<path d="M338.5094 97.4640
L338.2675 97.4640
" />
<path d="M338.2675 97.4640
L338.1466 97.4035
" />
<path d="M338.1466 97.4035
L338.0256 97.2826
" />
<path d="M338.0256 97.2826
L337.9651 97.0407
" />
<path d="M337.9651 97.0407
L337.9651 96.6173
" />
<path d="M337.9651 96.6173
L338.0256 96.3754
" />
<path d="M338.0256 96.3754
L338.1466 96.2545
" />
<path d="M338.1466 96.2545
L338.2675 96.1940
" />
<path d="M339.1747 96.1940
L339.9004 96.1940
" />
<path d="M339.5375 97.4640
L339.5375 96.1940
" />
<path d="M340.3237 97.4640
L340.3237 96.1940
" />
<path d="M341.6542 97.3431
L341.5937 97.4035
" />
<path d="M341.5937 97.4035
L341.4123 97.4640
" />
<path d="M341.4123 97.4640
L341.2913 97.4640
" />
<path d="M341.2913 97.4640
L341.1099 97.4035
" />
<path d="M341.1099 97.4035
L340.9890 97.2826
" />
<path d="M340.9890 97.2826
L340.9285 97.1616
" />
<path d="M340.9285 97.1616
L340.8680 96.9197
" />
<path d="M340.8680 96.9197
L340.8680 96.7383
" />
<path d="M340.8680 96.7383
L340.9285 96.4964
" />
<path d="M340.9285 96.4964
L340.9890 96.3754
" />
<path d="M340.9890 96.3754
L341.1099 96.2545
" />
<path d="M341.1099 96.2545
L341.2913 96.1940
" />
<path d="M341.2913 96.1940
L341.4123 96.1940
" />
<path d="M341.4123 96.1940
L341.5937 96.2545
" />
<path d="M341.5937 96.2545
L341.6542 96.3150
" />
<path d="M342.1380 97.4035
L342.3194 97.4640
" />
<path d="M342.3194 97.4640
L342.6218 97.4640
" />
<path d="M342.6218 97.4640
L342.7428 97.4035
" />
<path d="M342.7428 97.4035
L342.8032 97.3431
" />
<path d="M342.8032 97.3431
L342.8637 97.2221
" />
<path d="M342.8637 97.2221
L342.8637 97.1012
" />
<path d="M342.8637 97.1012
L342.8032 96.9802
" />
<path d="M342.8032 96.9802
L342.7428 96.9197
" />
<path d="M342.7428 96.9197
L342.6218 96.8592
" />
<path d="M342.6218 96.8592
L342.3799 96.7988
" />
<path d="M342.3799 96.7988
L342.2590 96.7383
" />
<path d="M342.2590 96.7383
L342.1985 96.6778
" />
<path d="M342.1985 96.6778
L342.1380 96.5569
" />
<path d="M342.1380 96.5569
L342.1380 96.4359
" />
<path d="M342.1380 96.4359
L342.1985 96.3150
" />
<path d="M342.1985 96.3150
L342.2590 96.2545
" />
<path d="M342.2590 96.2545
L342.3799 96.1940
" />
<path d="M342.3799 96.1940
L342.6823 96.1940
" />
<path d="M342.6823 96.1940
L342.8637 96.2545
" />
</g><text x="333.8830" y="99.5680"
textLength="5.2699" font-size="1.6933" lengthAdjust="spacingAndGlyphs"
text-anchor="middle" opacity="0" stroke-opacity="0">2024</text>
<g class="stroked-text"><desc>2024</desc>
<path d="M331.7059 98.3596
L331.7663 98.2991
" />
<path d="M331.7663 98.2991
L331.8873 98.2386
" />
<path d="M331.8873 98.2386
L332.1897 98.2386
" />
<path d="M332.1897 98.2386
L332.3106 98.2991
" />
<path d="M332.3106 98.2991
L332.3711 98.3596
" />
<path d="M332.3711 98.3596
L332.4316 98.4805
" />
<path d="M332.4316 98.4805
L332.4316 98.6015
" />
<path d="M332.4316 98.6015
L332.3711 98.7829
" />
<path d="M332.3711 98.7829
L331.6454 99.5086
" />
<path d="M331.6454 99.5086
L332.4316 99.5086
" />
<path d="M333.2178 98.2386
L333.3387 98.2386
" />
<path d="M333.3387 98.2386
L333.4597 98.2991
" />
<path d="M333.4597 98.2991
L333.5201 98.3596
" />
<path d="M333.5201 98.3596
L333.5806 98.4805
" />
<path d="M333.5806 98.4805
L333.6411 98.7224
" />
<path d="M333.6411 98.7224
L333.6411 99.0248
" />
<path d="M333.6411 99.0248
L333.5806 99.2667
" />
<path d="M333.5806 99.2667
L333.5201 99.3877
" />
<path d="M333.5201 99.3877
L333.4597 99.4482
" />
<path d="M333.4597 99.4482
L333.3387 99.5086
" />
<path d="M333.3387 99.5086
L333.2178 99.5086
" />
<path d="M333.2178 99.5086
L333.0968 99.4482
" />
<path d="M333.0968 99.4482
L333.0363 99.3877
" />
<path d="M333.0363 99.3877
L332.9759 99.2667
" />
<path d="M332.9759 99.2667
L332.9154 99.0248
" />
<path d="M332.9154 99.0248
L332.9154 98.7224
" />
<path d="M332.9154 98.7224
L332.9759 98.4805
" />
<path d="M332.9759 98.4805
L333.0363 98.3596
" />
<path d="M333.0363 98.3596
L333.0968 98.2991
" />
<path d="M333.0968 98.2991
L333.2178 98.2386
" />
<path d="M334.1249 98.3596
L334.1854 98.2991
" />
<path d="M334.1854 98.2991
L334.3063 98.2386
" />
<path d="M334.3063 98.2386
L334.6087 98.2386
" />
<path d="M334.6087 98.2386
L334.7297 98.2991
" />
<path d="M334.7297 98.2991
L334.7901 98.3596
" />
<path d="M334.7901 98.3596
L334.8506 98.4805
" />
<path d="M334.8506 98.4805
L334.8506 98.6015
" />
<path d="M334.8506 98.6015
L334.7901 98.7829
" />
<path d="M334.7901 98.7829
L334.0644 99.5086
" />
<path d="M334.0644 99.5086
L334.8506 99.5086
" />
<path d="M335.9392 98.6620
L335.9392 99.5086
" />
<path d="M335.6368 98.1782
L335.3344 99.0853
" />
<path d="M335.3344 99.0853
L336.1206 99.0853
" />
</g><text x="333.8830" y="101.6126"
textLength="25.2875" font-size="1.6933" lengthAdjust="spacingAndGlyphs"
text-anchor="middle" opacity="0" stroke-opacity="0">NX BUTTON INTERFACE V2</text>
<g class="stroked-text"><desc>NX BUTTON INTERFACE V2</desc>
<path d="M321.7575 101.5533
L321.7575 100.2833
" />
<path d="M321.7575 100.2833
L322.4832 101.5533
" />
<path d="M322.4832 101.5533
L322.4832 100.2833
" />
<path d="M322.9670 100.2833
L323.8137 101.5533
" />
<path d="M323.8137 100.2833
L322.9670 101.5533
" />
<path d="M325.6885 100.8880
L325.8699 100.9485
" />
<path d="M325.8699 100.9485
L325.9304 101.0090
" />
<path d="M325.9304 101.0090
L325.9909 101.1299
" />
<path d="M325.9909 101.1299
L325.9909 101.3114
" />
<path d="M325.9909 101.3114
L325.9304 101.4323
" />
<path d="M325.9304 101.4323
L325.8699 101.4928
" />
<path d="M325.8699 101.4928
L325.7490 101.5533
" />
<path d="M325.7490 101.5533
L325.2651 101.5533
" />
<path d="M325.2651 101.5533
L325.2651 100.2833
" />
<path d="M325.2651 100.2833
L325.6885 100.2833
" />
<path d="M325.6885 100.2833
L325.8094 100.3437
" />
<path d="M325.8094 100.3437
L325.8699 100.4042
" />
<path d="M325.8699 100.4042
L325.9304 100.5252
" />
<path d="M325.9304 100.5252
L325.9304 100.6461
" />
<path d="M325.9304 100.6461
L325.8699 100.7671
" />
<path d="M325.8699 100.7671
L325.8094 100.8276
" />
<path d="M325.8094 100.8276
L325.6885 100.8880
" />
<path d="M325.6885 100.8880
L325.2651 100.8880
" />
<path d="M326.5351 100.2833
L326.5351 101.3114
" />
<path d="M326.5351 101.3114
L326.5956 101.4323
" />
<path d="M326.5956 101.4323
L326.6561 101.4928
" />
<path d="M326.6561 101.4928
L326.7770 101.5533
" />
<path d="M326.7770 101.5533
L327.0190 101.5533
" />
<path d="M327.0190 101.5533
L327.1399 101.4928
" />
<path d="M327.1399 101.4928
L327.2004 101.4323
" />
<path d="M327.2004 101.4323
L327.2609 101.3114
" />
<path d="M327.2609 101.3114
L327.2609 100.2833
" />
<path d="M327.6842 100.2833
L328.4099 100.2833
" />
<path d="M328.0470 101.5533
L328.0470 100.2833
" />
<path d="M328.6518 100.2833
L329.3775 100.2833
" />
<path d="M329.0147 101.5533
L329.0147 100.2833
" />
<path d="M330.0428 100.2833
L330.2847 100.2833
" />
<path d="M330.2847 100.2833
L330.4056 100.3437
" />
<path d="M330.4056 100.3437
L330.5266 100.4647
" />
<path d="M330.5266 100.4647
L330.5870 100.7066
" />
<path d="M330.5870 100.7066
L330.5870 101.1299
" />
<path d="M330.5870 101.1299
L330.5266 101.3718
" />
<path d="M330.5266 101.3718
L330.4056 101.4928
" />
<path d="M330.4056 101.4928
L330.2847 101.5533
" />
<path d="M330.2847 101.5533
L330.0428 101.5533
" />
<path d="M330.0428 101.5533
L329.9218 101.4928
" />
<path d="M329.9218 101.4928
L329.8009 101.3718
" />
<path d="M329.8009 101.3718
L329.7404 101.1299
" />
<path d="M329.7404 101.1299
L329.7404 100.7066
" />
<path d="M329.7404 100.7066
L329.8009 100.4647
" />
<path d="M329.8009 100.4647
L329.9218 100.3437
" />
<path d="M329.9218 100.3437
L330.0428 100.2833
" />
<path d="M331.1313 101.5533
L331.1313 100.2833
" />
<path d="M331.1313 100.2833
L331.8570 101.5533
" />
<path d="M331.8570 101.5533
L331.8570 100.2833
" />
<path d="M333.4294 101.5533
L333.4294 100.2833
" />
<path d="M334.0342 101.5533
L334.0342 100.2833
" />
<path d="M334.0342 100.2833
L334.7599 101.5533
" />
<path d="M334.7599 101.5533
L334.7599 100.2833
" />
<path d="M335.1832 100.2833
L335.9090 100.2833
" />
<path d="M335.5461 101.5533
L335.5461 100.2833
" />
<path d="M336.3323 100.8880
L336.7556 100.8880
" />
<path d="M336.9370 101.5533
L336.3323 101.5533
" />
<path d="M336.3323 101.5533
L336.3323 100.2833
" />
<path d="M336.3323 100.2833
L336.9370 100.2833
" />
<path d="M338.2070 101.5533
L337.7837 100.9485
" />
<path d="M337.4813 101.5533
L337.4813 100.2833
" />
<path d="M337.4813 100.2833
L337.9651 100.2833
" />
<path d="M337.9651 100.2833
L338.0861 100.3437
" />
<path d="M338.0861 100.3437
L338.1466 100.4042
" />
<path d="M338.1466 100.4042
L338.2070 100.5252
" />
<path d="M338.2070 100.5252
L338.2070 100.7066
" />
<path d="M338.2070 100.7066
L338.1466 100.8276
" />
<path d="M338.1466 100.8276
L338.0861 100.8880
" />
<path d="M338.0861 100.8880
L337.9651 100.9485
" />
<path d="M337.9651 100.9485
L337.4813 100.9485
" />
<path d="M339.1747 100.8880
L338.7513 100.8880
" />
<path d="M338.7513 101.5533
L338.7513 100.2833
" />
<path d="M338.7513 100.2833
L339.3561 100.2833
" />
<path d="M339.7794 101.1904
L340.3842 101.1904
" />
<path d="M339.6585 101.5533
L340.0818 100.2833
" />
<path d="M340.0818 100.2833
L340.5051 101.5533
" />
<path d="M341.6542 101.4323
L341.5937 101.4928
" />
<path d="M341.5937 101.4928
L341.4123 101.5533
" />
<path d="M341.4123 101.5533
L341.2913 101.5533
" />
<path d="M341.2913 101.5533
L341.1099 101.4928
" />
<path d="M341.1099 101.4928
L340.9890 101.3718
" />
<path d="M340.9890 101.3718
L340.9285 101.2509
" />
<path d="M340.9285 101.2509
L340.8680 101.0090
" />
<path d="M340.8680 101.0090
L340.8680 100.8276
" />
<path d="M340.8680 100.8276
L340.9285 100.5856
" />
<path d="M340.9285 100.5856
L340.9890 100.4647
" />
<path d="M340.9890 100.4647
L341.1099 100.3437
" />
<path d="M341.1099 100.3437
L341.2913 100.2833
" />
<path d="M341.2913 100.2833
L341.4123 100.2833
" />
<path d="M341.4123 100.2833
L341.5937 100.3437
" />
<path d="M341.5937 100.3437
L341.6542 100.4042
" />
<path d="M342.1985 100.8880
L342.6218 100.8880
" />
<path d="M342.8032 101.5533
L342.1985 101.5533
" />
<path d="M342.1985 101.5533
L342.1985 100.2833
" />
<path d="M342.1985 100.2833
L342.8032 100.2833
" />
<path d="M344.1337 100.2833
L344.5570 101.5533
" />
<path d="M344.5570 101.5533
L344.9804 100.2833
" />
<path d="M345.3432 100.4042
L345.4037 100.3437
" />
<path d="M345.4037 100.3437
L345.5247 100.2833
" />
<path d="M345.5247 100.2833
L345.8270 100.2833
" />
<path d="M345.8270 100.2833
L345.9480 100.3437
" />
<path d="M345.9480 100.3437
L346.0085 100.4042
" />
<path d="M346.0085 100.4042
L346.0690 100.5252
" />
<path d="M346.0690 100.5252
L346.0690 100.6461
" />
<path d="M346.0690 100.6461
L346.0085 100.8276
" />
<path d="M346.0085 100.8276
L345.2828 101.5533
" />
<path d="M345.2828 101.5533
L346.0690 101.5533
" />
</g></g>
<g style="fill:none; 
stroke:#000000; stroke-width:0.1778; stroke-opacity:1; 
stroke-linecap:round; stroke-linejoin:round;">
<text x="312.9280" y="106.8731"
textLength="8.2018" font-size="1.6933" lengthAdjust="spacingAndGlyphs"
text-anchor="start" opacity="0" stroke-opacity="0">3 ~{RESET}</text>
<g class="stroked-text"><desc>3 ~{RESET}</desc>
<path d="M313.2264 105.5464
L314.0126 105.5464
" />
<path d="M314.0126 105.5464
L313.5893 106.0302
" />
<path d="M313.5893 106.0302
L313.7707 106.0302
" />
<path d="M313.7707 106.0302
L313.8916 106.0907
" />
<path d="M313.8916 106.0907
L313.9521 106.1512
" />
<path d="M313.9521 106.1512
L314.0126 106.2721
" />
<path d="M314.0126 106.2721
L314.0126 106.5745
" />
<path d="M314.0126 106.5745
L313.9521 106.6955
" />
<path d="M313.9521 106.6955
L313.8916 106.7559
" />
<path d="M313.8916 106.7559
L313.7707 106.8164
" />
<path d="M313.7707 106.8164
L313.4078 106.8164
" />
<path d="M313.4078 106.8164
L313.2869 106.7559
" />
<path d="M313.2869 106.7559
L313.2264 106.6955
" />
<path d="M316.2502 106.8164
L315.8269 106.2117
" />
<path d="M315.5245 106.8164
L315.5245 105.5464
" />
<path d="M315.5245 105.5464
L316.0083 105.5464
" />
<path d="M316.0083 105.5464
L316.1293 105.6069
" />
<path d="M316.1293 105.6069
L316.1897 105.6674
" />
<path d="M316.1897 105.6674
L316.2502 105.7883
" />
<path d="M316.2502 105.7883
L316.2502 105.9698
" />
<path d="M316.2502 105.9698
L316.1897 106.0907
" />
<path d="M316.1897 106.0907
L316.1293 106.1512
" />
<path d="M316.1293 106.1512
L316.0083 106.2117
" />
<path d="M316.0083 106.2117
L315.5245 106.2117
" />
<path d="M316.7945 106.1512
L317.2178 106.1512
" />
<path d="M317.3993 106.8164
L316.7945 106.8164
" />
<path d="M316.7945 106.8164
L316.7945 105.5464
" />
<path d="M316.7945 105.5464
L317.3993 105.5464
" />
<path d="M317.8831 106.7559
L318.0645 106.8164
" />
<path d="M318.0645 106.8164
L318.3669 106.8164
" />
<path d="M318.3669 106.8164
L318.4878 106.7559
" />
<path d="M318.4878 106.7559
L318.5483 106.6955
" />
<path d="M318.5483 106.6955
L318.6088 106.5745
" />
<path d="M318.6088 106.5745
L318.6088 106.4536
" />
<path d="M318.6088 106.4536
L318.5483 106.3326
" />
<path d="M318.5483 106.3326
L318.4878 106.2721
" />
<path d="M318.4878 106.2721
L318.3669 106.2117
" />
<path d="M318.3669 106.2117
L318.1250 106.1512
" />
<path d="M318.1250 106.1512
L318.0040 106.0907
" />
<path d="M318.0040 106.0907
L317.9435 106.0302
" />
<path d="M317.9435 106.0302
L317.8831 105.9093
" />
<path d="M317.8831 105.9093
L317.8831 105.7883
" />
<path d="M317.8831 105.7883
L317.9435 105.6674
" />
<path d="M317.9435 105.6674
L318.0040 105.6069
" />
<path d="M318.0040 105.6069
L318.1250 105.5464
" />
<path d="M318.1250 105.5464
L318.4274 105.5464
" />
<path d="M318.4274 105.5464
L318.6088 105.6069
" />
<path d="M319.1531 106.1512
L319.5764 106.1512
" />
<path d="M319.7578 106.8164
L319.1531 106.8164
" />
<path d="M319.1531 106.8164
L319.1531 105.5464
" />
<path d="M319.1531 105.5464
L319.7578 105.5464
" />
<path d="M320.1207 105.5464
L320.8464 105.5464
" />
<path d="M320.4835 106.8164
L320.4835 105.5464
" />
<path d="M315.3491 105.1938
L320.8404 105.1938
" />
</g><text x="312.9280" y="97.5360"
textLength="9.2904" font-size="1.6933" lengthAdjust="spacingAndGlyphs"
text-anchor="start" opacity="0" stroke-opacity="0">9 CAN TX</text>
<g class="stroked-text"><desc>9 CAN TX</desc>
<path d="M313.4078 97.4793
L313.6497 97.4793
" />
<path d="M313.6497 97.4793
L313.7707 97.4188
" />
<path d="M313.7707 97.4188
L313.8312 97.3583
" />
<path d="M313.8312 97.3583
L313.9521 97.1769
" />
<path d="M313.9521 97.1769
L314.0126 96.9350
" />
<path d="M314.0126 96.9350
L314.0126 96.4512
" />
<path d="M314.0126 96.4512
L313.9521 96.3302
" />
<path d="M313.9521 96.3302
L313.8916 96.2698
" />
<path d="M313.8916 96.2698
L313.7707 96.2093
" />
<path d="M313.7707 96.2093
L313.5288 96.2093
" />
<path d="M313.5288 96.2093
L313.4078 96.2698
" />
<path d="M313.4078 96.2698
L313.3474 96.3302
" />
<path d="M313.3474 96.3302
L313.2869 96.4512
" />
<path d="M313.2869 96.4512
L313.2869 96.7536
" />
<path d="M313.2869 96.7536
L313.3474 96.8745
" />
<path d="M313.3474 96.8745
L313.4078 96.9350
" />
<path d="M313.4078 96.9350
L313.5288 96.9955
" />
<path d="M313.5288 96.9955
L313.7707 96.9955
" />
<path d="M313.7707 96.9955
L313.8916 96.9350
" />
<path d="M313.8916 96.9350
L313.9521 96.8745
" />
<path d="M313.9521 96.8745
L314.0126 96.7536
" />
<path d="M316.2502 97.3583
L316.1897 97.4188
" />
<path d="M316.1897 97.4188
L316.0083 97.4793
" />
<path d="M316.0083 97.4793
L315.8874 97.4793
" />
<path d="M315.8874 97.4793
L315.7059 97.4188
" />
<path d="M315.7059 97.4188
L315.5850 97.2979
" />
<path d="M315.5850 97.2979
L315.5245 97.1769
" />
<path d="M315.5245 97.1769
L315.4640 96.9350
" />
<path d="M315.4640 96.9350
L315.4640 96.7536
" />
<path d="M315.4640 96.7536
L315.5245 96.5117
" />
<path d="M315.5245 96.5117
L315.5850 96.3907
" />
<path d="M315.5850 96.3907
L315.7059 96.2698
" />
<path d="M315.7059 96.2698
L315.8874 96.2093
" />
<path d="M315.8874 96.2093
L316.0083 96.2093
" />
<path d="M316.0083 96.2093
L316.1897 96.2698
" />
<path d="M316.1897 96.2698
L316.2502 96.3302
" />
<path d="M316.7340 97.1164
L317.3388 97.1164
" />
<path d="M316.6131 97.4793
L317.0364 96.2093
" />
<path d="M317.0364 96.2093
L317.4597 97.4793
" />
<path d="M317.8831 97.4793
L317.8831 96.2093
" />
<path d="M317.8831 96.2093
L318.6088 97.4793
" />
<path d="M318.6088 97.4793
L318.6088 96.2093
" />
<path d="M319.9997 96.2093
L320.7254 96.2093
" />
<path d="M320.3626 97.4793
L320.3626 96.2093
" />
<path d="M321.0278 96.2093
L321.8745 97.4793
" />
<path d="M321.8745 96.2093
L321.0278 97.4793
" />
</g><text x="312.9280" y="110.2360"
textLength="6.1456" font-size="1.6933" lengthAdjust="spacingAndGlyphs"
text-anchor="start" opacity="0" stroke-opacity="0">1 ~{REC}</text>
<g class="stroked-text"><desc>1 ~{REC}</desc>
<path d="M314.0126 110.1793
L313.2869 110.1793
" />
<path d="M313.6497 110.1793
L313.6497 108.9093
" />
<path d="M313.6497 108.9093
L313.5288 109.0907
" />
<path d="M313.5288 109.0907
L313.4078 109.2117
" />
<path d="M313.4078 109.2117
L313.2869 109.2721
" />
<path d="M316.2502 110.1793
L315.8269 109.5745
" />
<path d="M315.5245 110.1793
L315.5245 108.9093
" />
<path d="M315.5245 108.9093
L316.0083 108.9093
" />
<path d="M316.0083 108.9093
L316.1293 108.9698
" />
<path d="M316.1293 108.9698
L316.1897 109.0302
" />
<path d="M316.1897 109.0302
L316.2502 109.1512
" />
<path d="M316.2502 109.1512
L316.2502 109.3326
" />
<path d="M316.2502 109.3326
L316.1897 109.4536
" />
<path d="M316.1897 109.4536
L316.1293 109.5140
" />
<path d="M316.1293 109.5140
L316.0083 109.5745
" />
<path d="M316.0083 109.5745
L315.5245 109.5745
" />
<path d="M316.7945 109.5140
L317.2178 109.5140
" />
<path d="M317.3993 110.1793
L316.7945 110.1793
" />
<path d="M316.7945 110.1793
L316.7945 108.9093
" />
<path d="M316.7945 108.9093
L317.3993 108.9093
" />
<path d="M318.6693 110.0583
L318.6088 110.1188
" />
<path d="M318.6088 110.1188
L318.4274 110.1793
" />
<path d="M318.4274 110.1793
L318.3064 110.1793
" />
<path d="M318.3064 110.1793
L318.1250 110.1188
" />
<path d="M318.1250 110.1188
L318.0040 109.9979
" />
<path d="M318.0040 109.9979
L317.9435 109.8769
" />
<path d="M317.9435 109.8769
L317.8831 109.6350
" />
<path d="M317.8831 109.6350
L317.8831 109.4536
" />
<path d="M317.8831 109.4536
L317.9435 109.2117
" />
<path d="M317.9435 109.2117
L318.0040 109.0907
" />
<path d="M318.0040 109.0907
L318.1250 108.9698
" />
<path d="M318.1250 108.9698
L318.3064 108.9093
" />
<path d="M318.3064 108.9093
L318.4274 108.9093
" />
<path d="M318.4274 108.9093
L318.6088 108.9698
" />
<path d="M318.6088 108.9698
L318.6693 109.0302
" />
<path d="M315.3491 108.5567
L318.7842 108.5567
" />
</g><path style="fill:#000000; fill-opacity:1.0000; stroke:none;fill-rule:evenodd;"
d="M 334.2388,108.6104
334.2583,108.7583
334.3154,108.8961
334.4062,109.0145
334.5245,109.1053
334.6624,109.1624
334.8103,109.1819
346.3673,109.1819
346.5152,109.1624
346.6531,109.1053
346.7714,109.0145
346.8622,108.8961
346.9193,108.7583
346.9388,108.6104
346.9388,107.4674
346.9193,107.3195
346.8622,107.1816
346.7714,107.0633
346.6531,106.9725
346.5152,106.9154
346.3673,106.8959
334.8103,106.8959
334.6624,106.9154
334.5245,106.9725
334.4062,107.0633
334.3154,107.1816
334.2583,107.3195
334.2388,107.4674
Z" /> 
<path style="fill:#000000; fill-opacity:1.0000; stroke:none;fill-rule:evenodd;"
d="M 334.2388,105.4354
334.2583,105.5833
334.3154,105.7211
334.4062,105.8395
334.5245,105.9303
334.6624,105.9874
334.8103,106.0069
346.3673,106.0069
346.5152,105.9874
346.6531,105.9303
346.7714,105.8395
346.8622,105.7211
346.9193,105.5833
346.9388,105.4354
346.9388,104.2924
346.9193,104.1445
346.8622,104.0066
346.7714,103.8883
346.6531,103.7975
346.5152,103.7404
346.3673,103.7209
334.8103,103.7209
334.6624,103.7404
334.5245,103.7975
334.4062,103.8883
334.3154,104.0066
334.2583,104.1445
334.2388,104.2924
Z" /> 
<path style="fill:#000000; fill-opacity:1.0000; stroke:none;fill-rule:evenodd;"
d="M 312.6867,109.0041
312.6672,108.8562
312.6101,108.7184
312.5193,108.6000
312.4009,108.5092
312.2631,108.4521
312.1152,108.4326
300.5582,108.4326
300.4103,108.4521
300.2724,108.5092
300.1541,108.6000
300.0633,108.7184
300.0062,108.8562
299.9867,109.0041
299.9867,110.1471
300.0062,110.2950
300.0633,110.4329
300.1541,110.5512
300.2724,110.6420
300.4103,110.6991
300.5582,110.7186
312.1152,110.7186
312.2631,110.6991
312.4009,110.6420
312.5193,110.5512
312.6101,110.4329
312.6672,110.2950
312.6867,110.1471
Z" /> 
<path style="fill:#000000; fill-opacity:1.0000; stroke:none;fill-rule:evenodd;"
d="M 312.6867,105.8291
312.6672,105.6812
312.6101,105.5433
312.5193,105.4250
312.4009,105.3342
312.2631,105.2771
312.1152,105.2576
300.5582,105.2576
300.4103,105.2771
300.2724,105.3342
300.1541,105.4250
300.0633,105.5433
300.0062,105.6812
299.9867,105.8291
299.9867,106.9721
300.0062,107.1200
300.0633,107.2578
300.1541,107.3762
300.2724,107.4670
300.4103,107.5241
300.5582,107.5436
312.1152,107.5436
312.2631,107.5241
312.4009,107.4670
312.5193,107.3762
312.6101,107.2578
312.6672,107.1200
312.6867,106.9721
Z" /> 
<path style="fill:#000000; fill-opacity:1.0000; stroke:none;fill-rule:evenodd;"
d="M 312.6867,102.6541
312.6672,102.5062
312.6101,102.3683
312.5193,102.2500
312.4009,102.1592
312.2631,102.1021
312.1152,102.0826
300.5582,102.0826
300.4103,102.1021
300.2724,102.1592
300.1541,102.2500
300.0633,102.3683
300.0062,102.5062
299.9867,102.6541
299.9867,103.7971
300.0062,103.9450
300.0633,104.0828
300.1541,104.2012
300.2724,104.2920
300.4103,104.3491
300.5582,104.3686
312.1152,104.3686
312.2631,104.3491
312.4009,104.2920
312.5193,104.2012
312.6101,104.0828
312.6672,103.9450
312.6867,103.7971
Z" /> 
<path style="fill:#000000; fill-opacity:1.0000; stroke:none;fill-rule:evenodd;"
d="M 312.6867,99.4791
312.6672,99.3312
312.6101,99.1933
312.5193,99.0750
312.4009,98.9842
312.2631,98.9271
312.1152,98.9076
300.5582,98.9076
300.4103,98.9271
300.2724,98.9842
300.1541,99.0750
300.0633,99.1933
300.0062,99.3312
299.9867,99.4791
299.9867,100.6221
300.0062,100.7700
300.0633,100.9078
300.1541,101.0262
300.2724,101.1170
300.4103,101.1741
300.5582,101.1936
312.1152,101.1936
312.2631,101.1741
312.4009,101.1170
312.5193,101.0262
312.6101,100.9078
312.6672,100.7700
312.6867,100.6221
Z" /> 
<path style="fill:#000000; fill-opacity:1.0000; stroke:none;fill-rule:evenodd;"
d="M 312.6867,96.3041
312.6672,96.1562
312.6101,96.0183
312.5193,95.9000
312.4009,95.8092
312.2631,95.7521
312.1152,95.7326
300.5582,95.7326
300.4103,95.7521
300.2724,95.8092
300.1541,95.9000
300.0633,96.0183
300.0062,96.1562
299.9867,96.3041
299.9867,97.4471
300.0062,97.5950
300.0633,97.7328
300.1541,97.8512
300.2724,97.9420
300.4103,97.9991
300.5582,98.0186
312.1152,98.0186
312.2631,97.9991
312.4009,97.9420
312.5193,97.8512
312.6101,97.7328
312.6672,97.5950
312.6867,97.4471
Z" /> 
<path style="fill:#000000; fill-opacity:1.0000; stroke:none;fill-rule:evenodd;"
d="M 302.7290,92.1140
301.0290,92.1140
301.0290,93.8140
302.7290,93.8140
Z" /> 
</g>
<g style="fill:#000000; fill-opacity:1.0000; stroke:none;">
<circle cx="304.4190" cy="92.9640" r="0.8500" /> 
<circle cx="306.9590" cy="92.9640" r="0.8500" /> 
<circle cx="309.4990" cy="92.9640" r="0.8500" /> 
<circle cx="312.0390" cy="92.9640" r="0.8500" /> 
<circle cx="314.5790" cy="92.9640" r="0.8500" /> 
<circle cx="317.1190" cy="92.9640" r="0.8500" /> 
<circle cx="319.6590" cy="92.9640" r="0.8500" /> 
<circle cx="322.1990" cy="92.9640" r="0.8500" /> 
<circle cx="324.7390" cy="92.9640" r="0.8500" /> 
<circle cx="327.2790" cy="92.9640" r="0.8500" /> 
<circle cx="329.8190" cy="92.9640" r="0.8500" /> 
<circle cx="332.3590" cy="92.9640" r="0.8500" /> 
<circle cx="334.8990" cy="92.9640" r="0.8500" /> 
<circle cx="337.4390" cy="92.9640" r="0.8500" /> 
<circle cx="339.9790" cy="92.9640" r="0.8500" /> 
<circle cx="342.5190" cy="92.9640" r="0.8500" /> 
<circle cx="345.0590" cy="92.9640" r="0.8500" /> 
</g>
<g style="fill:none; 
stroke:#000000; stroke-width:0.1000; stroke-opacity:1; 
stroke-linecap:round; stroke-linejoin:round;">
<path d="M299.3390 91.6940
L299.3390 110.3630
" />
<path d="M346.3290 111.6330 A1.2700 1.2700 0.0 0 0 347.5990 110.3630" />
<path d="M346.3290 90.4240
L300.6090 90.4240
" />
<path d="M300.6090 90.4240 A1.2700 1.2700 0.0 0 0 299.3390 91.6940" />
<path d="M299.3390 110.3630 A1.2700 1.2700 0.0 0 0 300.6090 111.6330" />
<path d="M347.5990 91.6940 A1.2700 1.2700 0.0 0 0 346.3290 90.4240" />
<path d="M347.5990 110.3630
L347.5990 91.6940
" />
<path d="M300.6090 111.6330
L346.3290 111.6330
" />
</g> 
</svg>
