<?xml version="1.0" standalone="no"?>
 <!DOCTYPE svg PUBLIC "-//W3C//DTD SVG 1.1//EN" 
 "http://www.w3.org/Graphics/SVG/1.1/DTD/svg11.dtd"> 
<svg
  xmlns:svg="http://www.w3.org/2000/svg"
  xmlns="http://www.w3.org/2000/svg"
  xmlns:xlink="http://www.w3.org/1999/xlink"
  version="1.1"
  width="279.4000mm" height="215.9000mm" viewBox="0.0000 0.0000 279.4000 215.9000">
<title>SVG Image created as NX-ButtonInterface-B_Silkscreen.svg date 2024/08/11 09:06:34 </title>
  <desc>Image generated by PCBNEW </desc>
<g style="fill:#000000; fill-opacity:1.0000;stroke:#000000; stroke-opacity:1.0000;
stroke-linecap:round; stroke-linejoin:round;"
 transform="translate(0 0) scale(1 1)">
</g>
<g style="fill:none; 
stroke:#000000; stroke-width:0.1778; stroke-opacity:1; 
stroke-linecap:round; stroke-linejoin:round;">
<text x="98.2980" y="107.0483"
transform="scale(-1 1) translate(-196.596000 0)"
textLength="6.3270" font-size="1.6933" lengthAdjust="spacingAndGlyphs"
text-anchor="end" opacity="0" stroke-opacity="0">GND 3</text>
<g class="stroked-text"><desc>GND 3</desc>
<path d="M103.4950 105.7821
L103.6159 105.7216
" />
<path d="M103.6159 105.7216
L103.7974 105.7216
" />
<path d="M103.7974 105.7216
L103.9788 105.7821
" />
<path d="M103.9788 105.7821
L104.0997 105.9030
" />
<path d="M104.0997 105.9030
L104.1602 106.0240
" />
<path d="M104.1602 106.0240
L104.2207 106.2659
" />
<path d="M104.2207 106.2659
L104.2207 106.4473
" />
<path d="M104.2207 106.4473
L104.1602 106.6892
" />
<path d="M104.1602 106.6892
L104.0997 106.8102
" />
<path d="M104.0997 106.8102
L103.9788 106.9311
" />
<path d="M103.9788 106.9311
L103.7974 106.9916
" />
<path d="M103.7974 106.9916
L103.6764 106.9916
" />
<path d="M103.6764 106.9916
L103.4950 106.9311
" />
<path d="M103.4950 106.9311
L103.4345 106.8706
" />
<path d="M103.4345 106.8706
L103.4345 106.4473
" />
<path d="M103.4345 106.4473
L103.6764 106.4473
" />
<path d="M102.8902 106.9916
L102.8902 105.7216
" />
<path d="M102.8902 105.7216
L102.1645 106.9916
" />
<path d="M102.1645 106.9916
L102.1645 105.7216
" />
<path d="M101.5597 106.9916
L101.5597 105.7216
" />
<path d="M101.5597 105.7216
L101.2574 105.7216
" />
<path d="M101.2574 105.7216
L101.0759 105.7821
" />
<path d="M101.0759 105.7821
L100.9550 105.9030
" />
<path d="M100.9550 105.9030
L100.8945 106.0240
" />
<path d="M100.8945 106.0240
L100.8340 106.2659
" />
<path d="M100.8340 106.2659
L100.8340 106.4473
" />
<path d="M100.8340 106.4473
L100.8945 106.6892
" />
<path d="M100.8945 106.6892
L100.9550 106.8102
" />
<path d="M100.9550 106.8102
L101.0759 106.9311
" />
<path d="M101.0759 106.9311
L101.2574 106.9916
" />
<path d="M101.2574 106.9916
L101.5597 106.9916
" />
<path d="M99.4431 105.7216
L98.6569 105.7216
" />
<path d="M98.6569 105.7216
L99.0802 106.2054
" />
<path d="M99.0802 106.2054
L98.8988 106.2054
" />
<path d="M98.8988 106.2054
L98.7778 106.2659
" />
<path d="M98.7778 106.2659
L98.7174 106.3263
" />
<path d="M98.7174 106.3263
L98.6569 106.4473
" />
<path d="M98.6569 106.4473
L98.6569 106.7497
" />
<path d="M98.6569 106.7497
L98.7174 106.8706
" />
<path d="M98.7174 106.8706
L98.7778 106.9311
" />
<path d="M98.7778 106.9311
L98.8988 106.9916
" />
<path d="M98.8988 106.9916
L99.2616 106.9916
" />
<path d="M99.2616 106.9916
L99.3826 106.9311
" />
<path d="M99.3826 106.9311
L99.4431 106.8706
" />
</g><text x="117.6020" y="108.6866"
transform="scale(-1 1) translate(-235.204000 0)"
textLength="7.4761" font-size="1.6933" lengthAdjust="spacingAndGlyphs"
text-anchor="start" opacity="0" stroke-opacity="0">2 LED+</text>
<g class="stroked-text"><desc>2 LED+</desc>
<path d="M117.2431 107.4808
L117.1826 107.4204
" />
<path d="M117.1826 107.4204
L117.0617 107.3599
" />
<path d="M117.0617 107.3599
L116.7593 107.3599
" />
<path d="M116.7593 107.3599
L116.6384 107.4204
" />
<path d="M116.6384 107.4204
L116.5779 107.4808
" />
<path d="M116.5779 107.4808
L116.5174 107.6018
" />
<path d="M116.5174 107.6018
L116.5174 107.7227
" />
<path d="M116.5174 107.7227
L116.5779 107.9042
" />
<path d="M116.5779 107.9042
L117.3036 108.6299
" />
<path d="M117.3036 108.6299
L116.5174 108.6299
" />
<path d="M114.4007 108.6299
L115.0055 108.6299
" />
<path d="M115.0055 108.6299
L115.0055 107.3599
" />
<path d="M113.9774 107.9646
L113.5541 107.9646
" />
<path d="M113.3726 108.6299
L113.9774 108.6299
" />
<path d="M113.9774 108.6299
L113.9774 107.3599
" />
<path d="M113.9774 107.3599
L113.3726 107.3599
" />
<path d="M112.8284 108.6299
L112.8284 107.3599
" />
<path d="M112.8284 107.3599
L112.5260 107.3599
" />
<path d="M112.5260 107.3599
L112.3445 107.4204
" />
<path d="M112.3445 107.4204
L112.2236 107.5413
" />
<path d="M112.2236 107.5413
L112.1631 107.6623
" />
<path d="M112.1631 107.6623
L112.1026 107.9042
" />
<path d="M112.1026 107.9042
L112.1026 108.0856
" />
<path d="M112.1026 108.0856
L112.1631 108.3275
" />
<path d="M112.1631 108.3275
L112.2236 108.4485
" />
<path d="M112.2236 108.4485
L112.3445 108.5694
" />
<path d="M112.3445 108.5694
L112.5260 108.6299
" />
<path d="M112.5260 108.6299
L112.8284 108.6299
" />
<path d="M111.5584 108.1461
L110.5907 108.1461
" />
<path d="M111.0745 108.6299
L111.0745 107.6623
" />
</g><text x="98.2980" y="103.8606"
transform="scale(-1 1) translate(-196.596000 0)"
textLength="6.2061" font-size="1.6933" lengthAdjust="spacingAndGlyphs"
text-anchor="end" opacity="0" stroke-opacity="0">RXD 5</text>
<g class="stroked-text"><desc>RXD 5</desc>
<path d="M103.3135 103.8039
L103.7369 103.1991
" />
<path d="M104.0393 103.8039
L104.0393 102.5339
" />
<path d="M104.0393 102.5339
L103.5554 102.5339
" />
<path d="M103.5554 102.5339
L103.4345 102.5944
" />
<path d="M103.4345 102.5944
L103.3740 102.6548
" />
<path d="M103.3740 102.6548
L103.3135 102.7758
" />
<path d="M103.3135 102.7758
L103.3135 102.9572
" />
<path d="M103.3135 102.9572
L103.3740 103.0782
" />
<path d="M103.3740 103.0782
L103.4345 103.1386
" />
<path d="M103.4345 103.1386
L103.5554 103.1991
" />
<path d="M103.5554 103.1991
L104.0393 103.1991
" />
<path d="M102.8902 102.5339
L102.0435 103.8039
" />
<path d="M102.0435 102.5339
L102.8902 103.8039
" />
<path d="M101.5597 103.8039
L101.5597 102.5339
" />
<path d="M101.5597 102.5339
L101.2574 102.5339
" />
<path d="M101.2574 102.5339
L101.0759 102.5944
" />
<path d="M101.0759 102.5944
L100.9550 102.7153
" />
<path d="M100.9550 102.7153
L100.8945 102.8363
" />
<path d="M100.8945 102.8363
L100.8340 103.0782
" />
<path d="M100.8340 103.0782
L100.8340 103.2596
" />
<path d="M100.8340 103.2596
L100.8945 103.5015
" />
<path d="M100.8945 103.5015
L100.9550 103.6225
" />
<path d="M100.9550 103.6225
L101.0759 103.7434
" />
<path d="M101.0759 103.7434
L101.2574 103.8039
" />
<path d="M101.2574 103.8039
L101.5597 103.8039
" />
<path d="M98.7174 102.5339
L99.3221 102.5339
" />
<path d="M99.3221 102.5339
L99.3826 103.1386
" />
<path d="M99.3826 103.1386
L99.3221 103.0782
" />
<path d="M99.3221 103.0782
L99.2012 103.0177
" />
<path d="M99.2012 103.0177
L98.8988 103.0177
" />
<path d="M98.8988 103.0177
L98.7778 103.0782
" />
<path d="M98.7778 103.0782
L98.7174 103.1386
" />
<path d="M98.7174 103.1386
L98.6569 103.2596
" />
<path d="M98.6569 103.2596
L98.6569 103.5620
" />
<path d="M98.6569 103.5620
L98.7174 103.6829
" />
<path d="M98.7174 103.6829
L98.7778 103.7434
" />
<path d="M98.7778 103.7434
L98.8988 103.8039
" />
<path d="M98.8988 103.8039
L99.2012 103.8039
" />
<path d="M99.2012 103.8039
L99.3221 103.7434
" />
<path d="M99.3221 103.7434
L99.3826 103.6829
" />
</g><text x="117.5766" y="105.4862"
transform="scale(-1 1) translate(-235.153200 0)"
textLength="7.4761" font-size="1.6933" lengthAdjust="spacingAndGlyphs"
text-anchor="start" opacity="0" stroke-opacity="0">1 LED-</text>
<g class="stroked-text"><desc>1 LED-</desc>
<path d="M116.4920 105.4295
L117.2177 105.4295
" />
<path d="M116.8549 105.4295
L116.8549 104.1595
" />
<path d="M116.8549 104.1595
L116.9758 104.3409
" />
<path d="M116.9758 104.3409
L117.0968 104.4619
" />
<path d="M117.0968 104.4619
L117.2177 104.5223
" />
<path d="M114.3753 105.4295
L114.9801 105.4295
" />
<path d="M114.9801 105.4295
L114.9801 104.1595
" />
<path d="M113.9520 104.7642
L113.5287 104.7642
" />
<path d="M113.3472 105.4295
L113.9520 105.4295
" />
<path d="M113.9520 105.4295
L113.9520 104.1595
" />
<path d="M113.9520 104.1595
L113.3472 104.1595
" />
<path d="M112.8030 105.4295
L112.8030 104.1595
" />
<path d="M112.8030 104.1595
L112.5006 104.1595
" />
<path d="M112.5006 104.1595
L112.3191 104.2200
" />
<path d="M112.3191 104.2200
L112.1982 104.3409
" />
<path d="M112.1982 104.3409
L112.1377 104.4619
" />
<path d="M112.1377 104.4619
L112.0772 104.7038
" />
<path d="M112.0772 104.7038
L112.0772 104.8852
" />
<path d="M112.0772 104.8852
L112.1377 105.1271
" />
<path d="M112.1377 105.1271
L112.1982 105.2481
" />
<path d="M112.1982 105.2481
L112.3191 105.3690
" />
<path d="M112.3191 105.3690
L112.5006 105.4295
" />
<path d="M112.5006 105.4295
L112.8030 105.4295
" />
<path d="M111.5330 104.9457
L110.5653 104.9457
" />
</g></g>
<g style="fill:none; 
stroke:#000000; stroke-width:0.2286; stroke-opacity:1; 
stroke-linecap:round; stroke-linejoin:round;">
<text x="131.0000" y="96.3404"
transform="scale(-1 1) translate(-262.000000 0)"
textLength="25.2875" font-size="1.6933" lengthAdjust="spacingAndGlyphs"
text-anchor="start" opacity="0" stroke-opacity="0">NX BUTTON INTERFACE V2</text>
<g class="stroked-text"><desc>NX BUTTON INTERFACE V2</desc>
<path d="M130.5472 96.2810
L130.5472 95.0110
" />
<path d="M130.5472 95.0110
L129.8215 96.2810
" />
<path d="M129.8215 96.2810
L129.8215 95.0110
" />
<path d="M129.3377 95.0110
L128.4910 96.2810
" />
<path d="M128.4910 95.0110
L129.3377 96.2810
" />
<path d="M126.6163 95.6158
L126.4348 95.6762
" />
<path d="M126.4348 95.6762
L126.3744 95.7367
" />
<path d="M126.3744 95.7367
L126.3139 95.8577
" />
<path d="M126.3139 95.8577
L126.3139 96.0391
" />
<path d="M126.3139 96.0391
L126.3744 96.1601
" />
<path d="M126.3744 96.1601
L126.4348 96.2205
" />
<path d="M126.4348 96.2205
L126.5558 96.2810
" />
<path d="M126.5558 96.2810
L127.0396 96.2810
" />
<path d="M127.0396 96.2810
L127.0396 95.0110
" />
<path d="M127.0396 95.0110
L126.6163 95.0110
" />
<path d="M126.6163 95.0110
L126.4953 95.0715
" />
<path d="M126.4953 95.0715
L126.4348 95.1320
" />
<path d="M126.4348 95.1320
L126.3744 95.2529
" />
<path d="M126.3744 95.2529
L126.3744 95.3739
" />
<path d="M126.3744 95.3739
L126.4348 95.4948
" />
<path d="M126.4348 95.4948
L126.4953 95.5553
" />
<path d="M126.4953 95.5553
L126.6163 95.6158
" />
<path d="M126.6163 95.6158
L127.0396 95.6158
" />
<path d="M125.7696 95.0110
L125.7696 96.0391
" />
<path d="M125.7696 96.0391
L125.7091 96.1601
" />
<path d="M125.7091 96.1601
L125.6487 96.2205
" />
<path d="M125.6487 96.2205
L125.5277 96.2810
" />
<path d="M125.5277 96.2810
L125.2858 96.2810
" />
<path d="M125.2858 96.2810
L125.1648 96.2205
" />
<path d="M125.1648 96.2205
L125.1044 96.1601
" />
<path d="M125.1044 96.1601
L125.0439 96.0391
" />
<path d="M125.0439 96.0391
L125.0439 95.0110
" />
<path d="M124.6206 95.0110
L123.8948 95.0110
" />
<path d="M124.2577 96.2810
L124.2577 95.0110
" />
<path d="M123.6529 95.0110
L122.9272 95.0110
" />
<path d="M123.2901 96.2810
L123.2901 95.0110
" />
<path d="M122.2620 95.0110
L122.0201 95.0110
" />
<path d="M122.0201 95.0110
L121.8991 95.0715
" />
<path d="M121.8991 95.0715
L121.7782 95.1924
" />
<path d="M121.7782 95.1924
L121.7177 95.4343
" />
<path d="M121.7177 95.4343
L121.7177 95.8577
" />
<path d="M121.7177 95.8577
L121.7782 96.0996
" />
<path d="M121.7782 96.0996
L121.8991 96.2205
" />
<path d="M121.8991 96.2205
L122.0201 96.2810
" />
<path d="M122.0201 96.2810
L122.2620 96.2810
" />
<path d="M122.2620 96.2810
L122.3829 96.2205
" />
<path d="M122.3829 96.2205
L122.5039 96.0996
" />
<path d="M122.5039 96.0996
L122.5644 95.8577
" />
<path d="M122.5644 95.8577
L122.5644 95.4343
" />
<path d="M122.5644 95.4343
L122.5039 95.1924
" />
<path d="M122.5039 95.1924
L122.3829 95.0715
" />
<path d="M122.3829 95.0715
L122.2620 95.0110
" />
<path d="M121.1734 96.2810
L121.1734 95.0110
" />
<path d="M121.1734 95.0110
L120.4477 96.2810
" />
<path d="M120.4477 96.2810
L120.4477 95.0110
" />
<path d="M118.8753 96.2810
L118.8753 95.0110
" />
<path d="M118.2706 96.2810
L118.2706 95.0110
" />
<path d="M118.2706 95.0110
L117.5448 96.2810
" />
<path d="M117.5448 96.2810
L117.5448 95.0110
" />
<path d="M117.1215 95.0110
L116.3958 95.0110
" />
<path d="M116.7587 96.2810
L116.7587 95.0110
" />
<path d="M115.9725 95.6158
L115.5491 95.6158
" />
<path d="M115.3677 96.2810
L115.9725 96.2810
" />
<path d="M115.9725 96.2810
L115.9725 95.0110
" />
<path d="M115.9725 95.0110
L115.3677 95.0110
" />
<path d="M114.0977 96.2810
L114.5210 95.6762
" />
<path d="M114.8234 96.2810
L114.8234 95.0110
" />
<path d="M114.8234 95.0110
L114.3396 95.0110
" />
<path d="M114.3396 95.0110
L114.2187 95.0715
" />
<path d="M114.2187 95.0715
L114.1582 95.1320
" />
<path d="M114.1582 95.1320
L114.0977 95.2529
" />
<path d="M114.0977 95.2529
L114.0977 95.4343
" />
<path d="M114.0977 95.4343
L114.1582 95.5553
" />
<path d="M114.1582 95.5553
L114.2187 95.6158
" />
<path d="M114.2187 95.6158
L114.3396 95.6762
" />
<path d="M114.3396 95.6762
L114.8234 95.6762
" />
<path d="M113.1301 95.6158
L113.5534 95.6158
" />
<path d="M113.5534 96.2810
L113.5534 95.0110
" />
<path d="M113.5534 95.0110
L112.9487 95.0110
" />
<path d="M112.5253 95.9182
L111.9206 95.9182
" />
<path d="M112.6463 96.2810
L112.2229 95.0110
" />
<path d="M112.2229 95.0110
L111.7996 96.2810
" />
<path d="M110.6506 96.1601
L110.7110 96.2205
" />
<path d="M110.7110 96.2205
L110.8925 96.2810
" />
<path d="M110.8925 96.2810
L111.0134 96.2810
" />
<path d="M111.0134 96.2810
L111.1948 96.2205
" />
<path d="M111.1948 96.2205
L111.3158 96.0996
" />
<path d="M111.3158 96.0996
L111.3763 95.9786
" />
<path d="M111.3763 95.9786
L111.4367 95.7367
" />
<path d="M111.4367 95.7367
L111.4367 95.5553
" />
<path d="M111.4367 95.5553
L111.3763 95.3134
" />
<path d="M111.3763 95.3134
L111.3158 95.1924
" />
<path d="M111.3158 95.1924
L111.1948 95.0715
" />
<path d="M111.1948 95.0715
L111.0134 95.0110
" />
<path d="M111.0134 95.0110
L110.8925 95.0110
" />
<path d="M110.8925 95.0110
L110.7110 95.0715
" />
<path d="M110.7110 95.0715
L110.6506 95.1320
" />
<path d="M110.1063 95.6158
L109.6829 95.6158
" />
<path d="M109.5015 96.2810
L110.1063 96.2810
" />
<path d="M110.1063 96.2810
L110.1063 95.0110
" />
<path d="M110.1063 95.0110
L109.5015 95.0110
" />
<path d="M108.1710 95.0110
L107.7477 96.2810
" />
<path d="M107.7477 96.2810
L107.3244 95.0110
" />
<path d="M106.9615 95.1320
L106.9010 95.0715
" />
<path d="M106.9010 95.0715
L106.7801 95.0110
" />
<path d="M106.7801 95.0110
L106.4777 95.0110
" />
<path d="M106.4777 95.0110
L106.3567 95.0715
" />
<path d="M106.3567 95.0715
L106.2963 95.1320
" />
<path d="M106.2963 95.1320
L106.2358 95.2529
" />
<path d="M106.2358 95.2529
L106.2358 95.3739
" />
<path d="M106.2358 95.3739
L106.2963 95.5553
" />
<path d="M106.2963 95.5553
L107.0220 96.2810
" />
<path d="M107.0220 96.2810
L106.2358 96.2810
" />
</g><text x="131.0000" y="98.3850"
transform="scale(-1 1) translate(-262.000000 0)"
textLength="18.8770" font-size="1.6933" lengthAdjust="spacingAndGlyphs"
text-anchor="start" opacity="0" stroke-opacity="0">SPARTAN ROBOTICS</text>
<g class="stroked-text"><desc>SPARTAN ROBOTICS</desc>
<path d="M130.6077 98.2652
L130.4263 98.3256
" />
<path d="M130.4263 98.3256
L130.1239 98.3256
" />
<path d="M130.1239 98.3256
L130.0029 98.2652
" />
<path d="M130.0029 98.2652
L129.9425 98.2047
" />
<path d="M129.9425 98.2047
L129.8820 98.0837
" />
<path d="M129.8820 98.0837
L129.8820 97.9628
" />
<path d="M129.8820 97.9628
L129.9425 97.8418
" />
<path d="M129.9425 97.8418
L130.0029 97.7814
" />
<path d="M130.0029 97.7814
L130.1239 97.7209
" />
<path d="M130.1239 97.7209
L130.3658 97.6604
" />
<path d="M130.3658 97.6604
L130.4867 97.5999
" />
<path d="M130.4867 97.5999
L130.5472 97.5394
" />
<path d="M130.5472 97.5394
L130.6077 97.4185
" />
<path d="M130.6077 97.4185
L130.6077 97.2975
" />
<path d="M130.6077 97.2975
L130.5472 97.1766
" />
<path d="M130.5472 97.1766
L130.4867 97.1161
" />
<path d="M130.4867 97.1161
L130.3658 97.0556
" />
<path d="M130.3658 97.0556
L130.0634 97.0556
" />
<path d="M130.0634 97.0556
L129.8820 97.1161
" />
<path d="M129.3377 98.3256
L129.3377 97.0556
" />
<path d="M129.3377 97.0556
L128.8539 97.0556
" />
<path d="M128.8539 97.0556
L128.7329 97.1161
" />
<path d="M128.7329 97.1161
L128.6725 97.1766
" />
<path d="M128.6725 97.1766
L128.6120 97.2975
" />
<path d="M128.6120 97.2975
L128.6120 97.4790
" />
<path d="M128.6120 97.4790
L128.6725 97.5999
" />
<path d="M128.6725 97.5999
L128.7329 97.6604
" />
<path d="M128.7329 97.6604
L128.8539 97.7209
" />
<path d="M128.8539 97.7209
L129.3377 97.7209
" />
<path d="M128.1282 97.9628
L127.5234 97.9628
" />
<path d="M128.2491 98.3256
L127.8258 97.0556
" />
<path d="M127.8258 97.0556
L127.4025 98.3256
" />
<path d="M126.2534 98.3256
L126.6767 97.7209
" />
<path d="M126.9791 98.3256
L126.9791 97.0556
" />
<path d="M126.9791 97.0556
L126.4953 97.0556
" />
<path d="M126.4953 97.0556
L126.3744 97.1161
" />
<path d="M126.3744 97.1161
L126.3139 97.1766
" />
<path d="M126.3139 97.1766
L126.2534 97.2975
" />
<path d="M126.2534 97.2975
L126.2534 97.4790
" />
<path d="M126.2534 97.4790
L126.3139 97.5999
" />
<path d="M126.3139 97.5999
L126.3744 97.6604
" />
<path d="M126.3744 97.6604
L126.4953 97.7209
" />
<path d="M126.4953 97.7209
L126.9791 97.7209
" />
<path d="M125.8906 97.0556
L125.1648 97.0556
" />
<path d="M125.5277 98.3256
L125.5277 97.0556
" />
<path d="M124.8020 97.9628
L124.1972 97.9628
" />
<path d="M124.9229 98.3256
L124.4996 97.0556
" />
<path d="M124.4996 97.0556
L124.0763 98.3256
" />
<path d="M123.6529 98.3256
L123.6529 97.0556
" />
<path d="M123.6529 97.0556
L122.9272 98.3256
" />
<path d="M122.9272 98.3256
L122.9272 97.0556
" />
<path d="M120.6291 98.3256
L121.0525 97.7209
" />
<path d="M121.3548 98.3256
L121.3548 97.0556
" />
<path d="M121.3548 97.0556
L120.8710 97.0556
" />
<path d="M120.8710 97.0556
L120.7501 97.1161
" />
<path d="M120.7501 97.1161
L120.6896 97.1766
" />
<path d="M120.6896 97.1766
L120.6291 97.2975
" />
<path d="M120.6291 97.2975
L120.6291 97.4790
" />
<path d="M120.6291 97.4790
L120.6896 97.5999
" />
<path d="M120.6896 97.5999
L120.7501 97.6604
" />
<path d="M120.7501 97.6604
L120.8710 97.7209
" />
<path d="M120.8710 97.7209
L121.3548 97.7209
" />
<path d="M119.8429 97.0556
L119.6010 97.0556
" />
<path d="M119.6010 97.0556
L119.4801 97.1161
" />
<path d="M119.4801 97.1161
L119.3591 97.2371
" />
<path d="M119.3591 97.2371
L119.2987 97.4790
" />
<path d="M119.2987 97.4790
L119.2987 97.9023
" />
<path d="M119.2987 97.9023
L119.3591 98.1442
" />
<path d="M119.3591 98.1442
L119.4801 98.2652
" />
<path d="M119.4801 98.2652
L119.6010 98.3256
" />
<path d="M119.6010 98.3256
L119.8429 98.3256
" />
<path d="M119.8429 98.3256
L119.9639 98.2652
" />
<path d="M119.9639 98.2652
L120.0848 98.1442
" />
<path d="M120.0848 98.1442
L120.1453 97.9023
" />
<path d="M120.1453 97.9023
L120.1453 97.4790
" />
<path d="M120.1453 97.4790
L120.0848 97.2371
" />
<path d="M120.0848 97.2371
L119.9639 97.1161
" />
<path d="M119.9639 97.1161
L119.8429 97.0556
" />
<path d="M118.3310 97.6604
L118.1496 97.7209
" />
<path d="M118.1496 97.7209
L118.0891 97.7814
" />
<path d="M118.0891 97.7814
L118.0287 97.9023
" />
<path d="M118.0287 97.9023
L118.0287 98.0837
" />
<path d="M118.0287 98.0837
L118.0891 98.2047
" />
<path d="M118.0891 98.2047
L118.1496 98.2652
" />
<path d="M118.1496 98.2652
L118.2706 98.3256
" />
<path d="M118.2706 98.3256
L118.7544 98.3256
" />
<path d="M118.7544 98.3256
L118.7544 97.0556
" />
<path d="M118.7544 97.0556
L118.3310 97.0556
" />
<path d="M118.3310 97.0556
L118.2101 97.1161
" />
<path d="M118.2101 97.1161
L118.1496 97.1766
" />
<path d="M118.1496 97.1766
L118.0891 97.2975
" />
<path d="M118.0891 97.2975
L118.0891 97.4185
" />
<path d="M118.0891 97.4185
L118.1496 97.5394
" />
<path d="M118.1496 97.5394
L118.2101 97.5999
" />
<path d="M118.2101 97.5999
L118.3310 97.6604
" />
<path d="M118.3310 97.6604
L118.7544 97.6604
" />
<path d="M117.2425 97.0556
L117.0006 97.0556
" />
<path d="M117.0006 97.0556
L116.8796 97.1161
" />
<path d="M116.8796 97.1161
L116.7587 97.2371
" />
<path d="M116.7587 97.2371
L116.6982 97.4790
" />
<path d="M116.6982 97.4790
L116.6982 97.9023
" />
<path d="M116.6982 97.9023
L116.7587 98.1442
" />
<path d="M116.7587 98.1442
L116.8796 98.2652
" />
<path d="M116.8796 98.2652
L117.0006 98.3256
" />
<path d="M117.0006 98.3256
L117.2425 98.3256
" />
<path d="M117.2425 98.3256
L117.3634 98.2652
" />
<path d="M117.3634 98.2652
L117.4844 98.1442
" />
<path d="M117.4844 98.1442
L117.5448 97.9023
" />
<path d="M117.5448 97.9023
L117.5448 97.4790
" />
<path d="M117.5448 97.4790
L117.4844 97.2371
" />
<path d="M117.4844 97.2371
L117.3634 97.1161
" />
<path d="M117.3634 97.1161
L117.2425 97.0556
" />
<path d="M116.3353 97.0556
L115.6096 97.0556
" />
<path d="M115.9725 98.3256
L115.9725 97.0556
" />
<path d="M115.1863 98.3256
L115.1863 97.0556
" />
<path d="M113.8558 98.2047
L113.9163 98.2652
" />
<path d="M113.9163 98.2652
L114.0977 98.3256
" />
<path d="M114.0977 98.3256
L114.2187 98.3256
" />
<path d="M114.2187 98.3256
L114.4001 98.2652
" />
<path d="M114.4001 98.2652
L114.5210 98.1442
" />
<path d="M114.5210 98.1442
L114.5815 98.0233
" />
<path d="M114.5815 98.0233
L114.6420 97.7814
" />
<path d="M114.6420 97.7814
L114.6420 97.5999
" />
<path d="M114.6420 97.5999
L114.5815 97.3580
" />
<path d="M114.5815 97.3580
L114.5210 97.2371
" />
<path d="M114.5210 97.2371
L114.4001 97.1161
" />
<path d="M114.4001 97.1161
L114.2187 97.0556
" />
<path d="M114.2187 97.0556
L114.0977 97.0556
" />
<path d="M114.0977 97.0556
L113.9163 97.1161
" />
<path d="M113.9163 97.1161
L113.8558 97.1766
" />
<path d="M113.3720 98.2652
L113.1906 98.3256
" />
<path d="M113.1906 98.3256
L112.8882 98.3256
" />
<path d="M112.8882 98.3256
L112.7672 98.2652
" />
<path d="M112.7672 98.2652
L112.7067 98.2047
" />
<path d="M112.7067 98.2047
L112.6463 98.0837
" />
<path d="M112.6463 98.0837
L112.6463 97.9628
" />
<path d="M112.6463 97.9628
L112.7067 97.8418
" />
<path d="M112.7067 97.8418
L112.7672 97.7814
" />
<path d="M112.7672 97.7814
L112.8882 97.7209
" />
<path d="M112.8882 97.7209
L113.1301 97.6604
" />
<path d="M113.1301 97.6604
L113.2510 97.5999
" />
<path d="M113.2510 97.5999
L113.3115 97.5394
" />
<path d="M113.3115 97.5394
L113.3720 97.4185
" />
<path d="M113.3720 97.4185
L113.3720 97.2975
" />
<path d="M113.3720 97.2975
L113.3115 97.1766
" />
<path d="M113.3115 97.1766
L113.2510 97.1161
" />
<path d="M113.2510 97.1161
L113.1301 97.0556
" />
<path d="M113.1301 97.0556
L112.8277 97.0556
" />
<path d="M112.8277 97.0556
L112.6463 97.1161
" />
</g><text x="131.0000" y="100.4296"
transform="scale(-1 1) translate(-262.000000 0)"
textLength="5.2699" font-size="1.6933" lengthAdjust="spacingAndGlyphs"
text-anchor="start" opacity="0" stroke-opacity="0">2024</text>
<g class="stroked-text"><desc>2024</desc>
<path d="M130.6077 99.2212
L130.5472 99.1607
" />
<path d="M130.5472 99.1607
L130.4263 99.1003
" />
<path d="M130.4263 99.1003
L130.1239 99.1003
" />
<path d="M130.1239 99.1003
L130.0029 99.1607
" />
<path d="M130.0029 99.1607
L129.9425 99.2212
" />
<path d="M129.9425 99.2212
L129.8820 99.3422
" />
<path d="M129.8820 99.3422
L129.8820 99.4631
" />
<path d="M129.8820 99.4631
L129.9425 99.6446
" />
<path d="M129.9425 99.6446
L130.6682 100.3703
" />
<path d="M130.6682 100.3703
L129.8820 100.3703
" />
<path d="M129.0958 99.1003
L128.9748 99.1003
" />
<path d="M128.9748 99.1003
L128.8539 99.1607
" />
<path d="M128.8539 99.1607
L128.7934 99.2212
" />
<path d="M128.7934 99.2212
L128.7329 99.3422
" />
<path d="M128.7329 99.3422
L128.6725 99.5841
" />
<path d="M128.6725 99.5841
L128.6725 99.8865
" />
<path d="M128.6725 99.8865
L128.7329 100.1284
" />
<path d="M128.7329 100.1284
L128.7934 100.2493
" />
<path d="M128.7934 100.2493
L128.8539 100.3098
" />
<path d="M128.8539 100.3098
L128.9748 100.3703
" />
<path d="M128.9748 100.3703
L129.0958 100.3703
" />
<path d="M129.0958 100.3703
L129.2167 100.3098
" />
<path d="M129.2167 100.3098
L129.2772 100.2493
" />
<path d="M129.2772 100.2493
L129.3377 100.1284
" />
<path d="M129.3377 100.1284
L129.3982 99.8865
" />
<path d="M129.3982 99.8865
L129.3982 99.5841
" />
<path d="M129.3982 99.5841
L129.3377 99.3422
" />
<path d="M129.3377 99.3422
L129.2772 99.2212
" />
<path d="M129.2772 99.2212
L129.2167 99.1607
" />
<path d="M129.2167 99.1607
L129.0958 99.1003
" />
<path d="M128.1887 99.2212
L128.1282 99.1607
" />
<path d="M128.1282 99.1607
L128.0072 99.1003
" />
<path d="M128.0072 99.1003
L127.7048 99.1003
" />
<path d="M127.7048 99.1003
L127.5839 99.1607
" />
<path d="M127.5839 99.1607
L127.5234 99.2212
" />
<path d="M127.5234 99.2212
L127.4629 99.3422
" />
<path d="M127.4629 99.3422
L127.4629 99.4631
" />
<path d="M127.4629 99.4631
L127.5234 99.6446
" />
<path d="M127.5234 99.6446
L128.2491 100.3703
" />
<path d="M128.2491 100.3703
L127.4629 100.3703
" />
<path d="M126.3744 99.5236
L126.3744 100.3703
" />
<path d="M126.6767 99.0398
L126.9791 99.9469
" />
<path d="M126.9791 99.9469
L126.1929 99.9469
" />
</g></g>
<g style="fill:none; 
stroke:#000000; stroke-width:0.1778; stroke-opacity:1; 
stroke-linecap:round; stroke-linejoin:round;">
<text x="98.2980" y="100.6729"
transform="scale(-1 1) translate(-196.596000 0)"
textLength="8.2018" font-size="1.6933" lengthAdjust="spacingAndGlyphs"
text-anchor="end" opacity="0" stroke-opacity="0">~{RESET} 7</text>
<g class="stroked-text"><desc>~{RESET} 7</desc>
<path d="M105.3093 100.6162
L105.7326 100.0114
" />
<path d="M106.0350 100.6162
L106.0350 99.3462
" />
<path d="M106.0350 99.3462
L105.5512 99.3462
" />
<path d="M105.5512 99.3462
L105.4302 99.4067
" />
<path d="M105.4302 99.4067
L105.3697 99.4671
" />
<path d="M105.3697 99.4671
L105.3093 99.5881
" />
<path d="M105.3093 99.5881
L105.3093 99.7695
" />
<path d="M105.3093 99.7695
L105.3697 99.8905
" />
<path d="M105.3697 99.8905
L105.4302 99.9509
" />
<path d="M105.4302 99.9509
L105.5512 100.0114
" />
<path d="M105.5512 100.0114
L106.0350 100.0114
" />
<path d="M104.7650 99.9509
L104.3416 99.9509
" />
<path d="M104.1602 100.6162
L104.7650 100.6162
" />
<path d="M104.7650 100.6162
L104.7650 99.3462
" />
<path d="M104.7650 99.3462
L104.1602 99.3462
" />
<path d="M103.6764 100.5557
L103.4950 100.6162
" />
<path d="M103.4950 100.6162
L103.1926 100.6162
" />
<path d="M103.1926 100.6162
L103.0716 100.5557
" />
<path d="M103.0716 100.5557
L103.0112 100.4952
" />
<path d="M103.0112 100.4952
L102.9507 100.3743
" />
<path d="M102.9507 100.3743
L102.9507 100.2533
" />
<path d="M102.9507 100.2533
L103.0112 100.1324
" />
<path d="M103.0112 100.1324
L103.0716 100.0719
" />
<path d="M103.0716 100.0719
L103.1926 100.0114
" />
<path d="M103.1926 100.0114
L103.4345 99.9509
" />
<path d="M103.4345 99.9509
L103.5554 99.8905
" />
<path d="M103.5554 99.8905
L103.6159 99.8300
" />
<path d="M103.6159 99.8300
L103.6764 99.7090
" />
<path d="M103.6764 99.7090
L103.6764 99.5881
" />
<path d="M103.6764 99.5881
L103.6159 99.4671
" />
<path d="M103.6159 99.4671
L103.5554 99.4067
" />
<path d="M103.5554 99.4067
L103.4345 99.3462
" />
<path d="M103.4345 99.3462
L103.1321 99.3462
" />
<path d="M103.1321 99.3462
L102.9507 99.4067
" />
<path d="M102.4064 99.9509
L101.9831 99.9509
" />
<path d="M101.8016 100.6162
L102.4064 100.6162
" />
<path d="M102.4064 100.6162
L102.4064 99.3462
" />
<path d="M102.4064 99.3462
L101.8016 99.3462
" />
<path d="M101.4388 99.3462
L100.7131 99.3462
" />
<path d="M101.0759 100.6162
L101.0759 99.3462
" />
<path d="M106.2104 98.9936
L100.7191 98.9936
" />
<path d="M99.4431 99.3462
L98.5964 99.3462
" />
<path d="M98.5964 99.3462
L99.1407 100.6162
" />
</g><text x="98.2980" y="110.2360"
transform="scale(-1 1) translate(-196.596000 0)"
textLength="9.2904" font-size="1.6933" lengthAdjust="spacingAndGlyphs"
text-anchor="end" opacity="0" stroke-opacity="0">CAN TX 1</text>
<g class="stroked-text"><desc>CAN TX 1</desc>
<path d="M106.3978 110.0583
L106.4583 110.1188
" />
<path d="M106.4583 110.1188
L106.6397 110.1793
" />
<path d="M106.6397 110.1793
L106.7607 110.1793
" />
<path d="M106.7607 110.1793
L106.9421 110.1188
" />
<path d="M106.9421 110.1188
L107.0631 109.9979
" />
<path d="M107.0631 109.9979
L107.1235 109.8769
" />
<path d="M107.1235 109.8769
L107.1840 109.6350
" />
<path d="M107.1840 109.6350
L107.1840 109.4536
" />
<path d="M107.1840 109.4536
L107.1235 109.2117
" />
<path d="M107.1235 109.2117
L107.0631 109.0907
" />
<path d="M107.0631 109.0907
L106.9421 108.9698
" />
<path d="M106.9421 108.9698
L106.7607 108.9093
" />
<path d="M106.7607 108.9093
L106.6397 108.9093
" />
<path d="M106.6397 108.9093
L106.4583 108.9698
" />
<path d="M106.4583 108.9698
L106.3978 109.0302
" />
<path d="M105.9140 109.8164
L105.3093 109.8164
" />
<path d="M106.0350 110.1793
L105.6116 108.9093
" />
<path d="M105.6116 108.9093
L105.1883 110.1793
" />
<path d="M104.7650 110.1793
L104.7650 108.9093
" />
<path d="M104.7650 108.9093
L104.0393 110.1793
" />
<path d="M104.0393 110.1793
L104.0393 108.9093
" />
<path d="M102.6483 108.9093
L101.9226 108.9093
" />
<path d="M102.2854 110.1793
L102.2854 108.9093
" />
<path d="M101.6202 108.9093
L100.7735 110.1793
" />
<path d="M100.7735 108.9093
L101.6202 110.1793
" />
<path d="M98.6569 110.1793
L99.3826 110.1793
" />
<path d="M99.0197 110.1793
L99.0197 108.9093
" />
<path d="M99.0197 108.9093
L99.1407 109.0907
" />
<path d="M99.1407 109.0907
L99.2616 109.2117
" />
<path d="M99.2616 109.2117
L99.3826 109.2721
" />
</g><text x="98.2980" y="97.4852"
transform="scale(-1 1) translate(-196.596000 0)"
textLength="6.1456" font-size="1.6933" lengthAdjust="spacingAndGlyphs"
text-anchor="end" opacity="0" stroke-opacity="0">~{REC} 9</text>
<g class="stroked-text"><desc>~{REC} 9</desc>
<path d="M103.2531 97.4285
L103.6764 96.8237
" />
<path d="M103.9788 97.4285
L103.9788 96.1585
" />
<path d="M103.9788 96.1585
L103.4950 96.1585
" />
<path d="M103.4950 96.1585
L103.3740 96.2190
" />
<path d="M103.3740 96.2190
L103.3135 96.2794
" />
<path d="M103.3135 96.2794
L103.2531 96.4004
" />
<path d="M103.2531 96.4004
L103.2531 96.5818
" />
<path d="M103.2531 96.5818
L103.3135 96.7028
" />
<path d="M103.3135 96.7028
L103.3740 96.7632
" />
<path d="M103.3740 96.7632
L103.4950 96.8237
" />
<path d="M103.4950 96.8237
L103.9788 96.8237
" />
<path d="M102.7088 96.7632
L102.2854 96.7632
" />
<path d="M102.1040 97.4285
L102.7088 97.4285
" />
<path d="M102.7088 97.4285
L102.7088 96.1585
" />
<path d="M102.7088 96.1585
L102.1040 96.1585
" />
<path d="M100.8340 97.3075
L100.8945 97.3680
" />
<path d="M100.8945 97.3680
L101.0759 97.4285
" />
<path d="M101.0759 97.4285
L101.1969 97.4285
" />
<path d="M101.1969 97.4285
L101.3783 97.3680
" />
<path d="M101.3783 97.3680
L101.4993 97.2471
" />
<path d="M101.4993 97.2471
L101.5597 97.1261
" />
<path d="M101.5597 97.1261
L101.6202 96.8842
" />
<path d="M101.6202 96.8842
L101.6202 96.7028
" />
<path d="M101.6202 96.7028
L101.5597 96.4609
" />
<path d="M101.5597 96.4609
L101.4993 96.3399
" />
<path d="M101.4993 96.3399
L101.3783 96.2190
" />
<path d="M101.3783 96.2190
L101.1969 96.1585
" />
<path d="M101.1969 96.1585
L101.0759 96.1585
" />
<path d="M101.0759 96.1585
L100.8945 96.2190
" />
<path d="M100.8945 96.2190
L100.8340 96.2794
" />
<path d="M104.1542 95.8059
L100.7191 95.8059
" />
<path d="M99.2616 97.4285
L99.0197 97.4285
" />
<path d="M99.0197 97.4285
L98.8988 97.3680
" />
<path d="M98.8988 97.3680
L98.8383 97.3075
" />
<path d="M98.8383 97.3075
L98.7174 97.1261
" />
<path d="M98.7174 97.1261
L98.6569 96.8842
" />
<path d="M98.6569 96.8842
L98.6569 96.4004
" />
<path d="M98.6569 96.4004
L98.7174 96.2794
" />
<path d="M98.7174 96.2794
L98.7778 96.2190
" />
<path d="M98.7778 96.2190
L98.8988 96.1585
" />
<path d="M98.8988 96.1585
L99.1407 96.1585
" />
<path d="M99.1407 96.1585
L99.2616 96.2190
" />
<path d="M99.2616 96.2190
L99.3221 96.2794
" />
<path d="M99.3221 96.2794
L99.3826 96.4004
" />
<path d="M99.3826 96.4004
L99.3826 96.7028
" />
<path d="M99.3826 96.7028
L99.3221 96.8237
" />
<path d="M99.3221 96.8237
L99.2616 96.8842
" />
<path d="M99.2616 96.8842
L99.1407 96.9447
" />
<path d="M99.1407 96.9447
L98.8988 96.9447
" />
<path d="M98.8988 96.9447
L98.7778 96.8842
" />
<path d="M98.7778 96.8842
L98.7174 96.8237
" />
<path d="M98.7174 96.8237
L98.6569 96.7028
" />
</g></g>
<g style="fill:none; 
stroke:#000000; stroke-width:0.1000; stroke-opacity:1; 
stroke-linecap:round; stroke-linejoin:round;">
<path d="M118.6051 103.3399
L131.0511 103.3399
" />
<path d="M118.6051 109.5629
L118.6051 103.3399
" />
<path d="M131.0511 109.5629
L118.6051 109.5629
" />
<path d="M85.6234 95.3516
L98.0694 95.3516
" />
<path d="M98.0694 95.3516
L98.0694 111.0996
" />
<path d="M98.0694 111.0996
L85.6234 111.0996
" />
<path style="fill:#000000; fill-opacity:1.0000; stroke:none;fill-rule:evenodd;"
d="M 129.0710,92.1140
130.7710,92.1140
130.7710,93.8140
129.0710,93.8140
Z" /> 
</g>
<g style="fill:#000000; fill-opacity:1.0000; stroke:none;">
<circle cx="127.3810" cy="92.9640" r="0.8500" /> 
<circle cx="124.8410" cy="92.9640" r="0.8500" /> 
<circle cx="122.3010" cy="92.9640" r="0.8500" /> 
<circle cx="119.7610" cy="92.9640" r="0.8500" /> 
<circle cx="117.2210" cy="92.9640" r="0.8500" /> 
<circle cx="114.6810" cy="92.9640" r="0.8500" /> 
<circle cx="112.1410" cy="92.9640" r="0.8500" /> 
<circle cx="109.6010" cy="92.9640" r="0.8500" /> 
<circle cx="107.0610" cy="92.9640" r="0.8500" /> 
<circle cx="104.5210" cy="92.9640" r="0.8500" /> 
<circle cx="101.9810" cy="92.9640" r="0.8500" /> 
<circle cx="99.4410" cy="92.9640" r="0.8500" /> 
<circle cx="96.9010" cy="92.9640" r="0.8500" /> 
<circle cx="94.3610" cy="92.9640" r="0.8500" /> 
<circle cx="91.8210" cy="92.9640" r="0.8500" /> 
<circle cx="89.2810" cy="92.9640" r="0.8500" /> 
<circle cx="86.7410" cy="92.9640" r="0.8500" /> 
<path style="fill:#000000; fill-opacity:1.0000; stroke:none;fill-rule:evenodd;"
d="M 131.8131,105.4354
131.7936,105.5833
131.7365,105.7211
131.6457,105.8395
131.5273,105.9303
131.3895,105.9874
131.2416,106.0069
119.6846,106.0069
119.5367,105.9874
119.3988,105.9303
119.2805,105.8395
119.1897,105.7211
119.1326,105.5833
119.1131,105.4354
119.1131,104.2924
119.1326,104.1445
119.1897,104.0066
119.2805,103.8883
119.3988,103.7975
119.5367,103.7404
119.6846,103.7209
131.2416,103.7209
131.3895,103.7404
131.5273,103.7975
131.6457,103.8883
131.7365,104.0066
131.7936,104.1445
131.8131,104.2924
Z" /> 
<path style="fill:#000000; fill-opacity:1.0000; stroke:none;fill-rule:evenodd;"
d="M 131.8131,108.6104
131.7936,108.7583
131.7365,108.8961
131.6457,109.0145
131.5273,109.1053
131.3895,109.1624
131.2416,109.1819
119.6846,109.1819
119.5367,109.1624
119.3988,109.1053
119.2805,109.0145
119.1897,108.8961
119.1326,108.7583
119.1131,108.6104
119.1131,107.4674
119.1326,107.3195
119.1897,107.1816
119.2805,107.0633
119.3988,106.9725
119.5367,106.9154
119.6846,106.8959
131.2416,106.8959
131.3895,106.9154
131.5273,106.9725
131.6457,107.0633
131.7365,107.1816
131.7936,107.3195
131.8131,107.4674
Z" /> 
<path style="fill:#000000; fill-opacity:1.0000; stroke:none;fill-rule:evenodd;"
d="M 84.8614,109.0041
84.8809,108.8562
84.9380,108.7184
85.0288,108.6000
85.1471,108.5092
85.2850,108.4521
85.4329,108.4326
96.9899,108.4326
97.1378,108.4521
97.2756,108.5092
97.3940,108.6000
97.4848,108.7184
97.5419,108.8562
97.5614,109.0041
97.5614,110.1471
97.5419,110.2950
97.4848,110.4329
97.3940,110.5512
97.2756,110.6420
97.1378,110.6991
96.9899,110.7186
85.4329,110.7186
85.2850,110.6991
85.1471,110.6420
85.0288,110.5512
84.9380,110.4329
84.8809,110.2950
84.8614,110.1471
Z" /> 
<path style="fill:#000000; fill-opacity:1.0000; stroke:none;fill-rule:evenodd;"
d="M 84.8614,105.8291
84.8809,105.6812
84.9380,105.5433
85.0288,105.4250
85.1471,105.3342
85.2850,105.2771
85.4329,105.2576
96.9899,105.2576
97.1378,105.2771
97.2756,105.3342
97.3940,105.4250
97.4848,105.5433
97.5419,105.6812
97.5614,105.8291
97.5614,106.9721
97.5419,107.1200
97.4848,107.2578
97.3940,107.3762
97.2756,107.4670
97.1378,107.5241
96.9899,107.5436
85.4329,107.5436
85.2850,107.5241
85.1471,107.4670
85.0288,107.3762
84.9380,107.2578
84.8809,107.1200
84.8614,106.9721
Z" /> 
<path style="fill:#000000; fill-opacity:1.0000; stroke:none;fill-rule:evenodd;"
d="M 84.8614,102.6541
84.8809,102.5062
84.9380,102.3683
85.0288,102.2500
85.1471,102.1592
85.2850,102.1021
85.4329,102.0826
96.9899,102.0826
97.1378,102.1021
97.2756,102.1592
97.3940,102.2500
97.4848,102.3683
97.5419,102.5062
97.5614,102.6541
97.5614,103.7971
97.5419,103.9450
97.4848,104.0828
97.3940,104.2012
97.2756,104.2920
97.1378,104.3491
96.9899,104.3686
85.4329,104.3686
85.2850,104.3491
85.1471,104.2920
85.0288,104.2012
84.9380,104.0828
84.8809,103.9450
84.8614,103.7971
Z" /> 
<path style="fill:#000000; fill-opacity:1.0000; stroke:none;fill-rule:evenodd;"
d="M 84.8614,99.4791
84.8809,99.3312
84.9380,99.1933
85.0288,99.0750
85.1471,98.9842
85.2850,98.9271
85.4329,98.9076
96.9899,98.9076
97.1378,98.9271
97.2756,98.9842
97.3940,99.0750
97.4848,99.1933
97.5419,99.3312
97.5614,99.4791
97.5614,100.6221
97.5419,100.7700
97.4848,100.9078
97.3940,101.0262
97.2756,101.1170
97.1378,101.1741
96.9899,101.1936
85.4329,101.1936
85.2850,101.1741
85.1471,101.1170
85.0288,101.0262
84.9380,100.9078
84.8809,100.7700
84.8614,100.6221
Z" /> 
<path style="fill:#000000; fill-opacity:1.0000; stroke:none;fill-rule:evenodd;"
d="M 84.8614,96.3041
84.8809,96.1562
84.9380,96.0183
85.0288,95.9000
85.1471,95.8092
85.2850,95.7521
85.4329,95.7326
96.9899,95.7326
97.1378,95.7521
97.2756,95.8092
97.3940,95.9000
97.4848,96.0183
97.5419,96.1562
97.5614,96.3041
97.5614,97.4471
97.5419,97.5950
97.4848,97.7328
97.3940,97.8512
97.2756,97.9420
97.1378,97.9991
96.9899,98.0186
85.4329,98.0186
85.2850,97.9991
85.1471,97.9420
85.0288,97.8512
84.9380,97.7328
84.8809,97.5950
84.8614,97.4471
Z" /> 
</g>
<g style="fill:none; 
stroke:#000000; stroke-width:0.1000; stroke-opacity:1; 
stroke-linecap:round; stroke-linejoin:round;">
<path d="M132.4610 91.6940
L132.4610 110.3630
" />
<path d="M84.2010 110.3630 A1.2700 1.2700 0.0 0 0 85.4710 111.6330" />
<path d="M85.4710 90.4240
L131.1910 90.4240
" />
<path d="M132.4610 91.6940 A1.2700 1.2700 0.0 0 0 131.1910 90.4240" />
<path d="M131.1910 111.6330 A1.2700 1.2700 0.0 0 0 132.4610 110.3630" />
<path d="M85.4710 90.4240 A1.2700 1.2700 0.0 0 0 84.2010 91.6940" />
<path d="M84.2010 110.3630
L84.2010 91.6940
" />
<path d="M131.1910 111.6330
L85.4710 111.6330
" />
</g> 
</svg>
