<?xml version="1.0" standalone="no"?>
 <!DOCTYPE svg PUBLIC "-//W3C//DTD SVG 1.1//EN" 
 "http://www.w3.org/Graphics/SVG/1.1/DTD/svg11.dtd"> 
<svg
  xmlns:svg="http://www.w3.org/2000/svg"
  xmlns="http://www.w3.org/2000/svg"
  xmlns:xlink="http://www.w3.org/1999/xlink"
  version="1.1"
  width="431.8000mm" height="279.4000mm" viewBox="0.0000 0.0000 431.8000 279.4000">
<title>SVG Image created as NX-ButtonInterface-F_Silkscreen.svg date 2024/08/16 20:35:12 </title>
  <desc>Image generated by PCBNEW </desc>
<g style="fill:#000000; fill-opacity:1.0000;stroke:#000000; stroke-opacity:1.0000;
stroke-linecap:round; stroke-linejoin:round;"
 transform="translate(0 0) scale(1 1)">
</g>
<g style="fill:none; 
stroke:#000000; stroke-width:0.1778; stroke-opacity:1; 
stroke-linecap:round; stroke-linejoin:round;">
<text x="112.6430" y="105.6217"
textLength="5.9037" font-size="1.6933" lengthAdjust="spacingAndGlyphs"
text-anchor="start" opacity="0" stroke-opacity="0">TXD 4</text>
<g class="stroked-text"><desc>TXD 4</desc>
<path d="M112.8809 104.2949
L113.6066 104.2949
" />
<path d="M113.2437 105.5649
L113.2437 104.2949
" />
<path d="M113.9090 104.2949
L114.7556 105.5649
" />
<path d="M114.7556 104.2949
L113.9090 105.5649
" />
<path d="M115.2394 105.5649
L115.2394 104.2949
" />
<path d="M115.2394 104.2949
L115.5418 104.2949
" />
<path d="M115.5418 104.2949
L115.7233 104.3554
" />
<path d="M115.7233 104.3554
L115.8442 104.4764
" />
<path d="M115.8442 104.4764
L115.9047 104.5973
" />
<path d="M115.9047 104.5973
L115.9652 104.8392
" />
<path d="M115.9652 104.8392
L115.9652 105.0207
" />
<path d="M115.9652 105.0207
L115.9047 105.2626
" />
<path d="M115.9047 105.2626
L115.8442 105.3835
" />
<path d="M115.8442 105.3835
L115.7233 105.5045
" />
<path d="M115.7233 105.5045
L115.5418 105.5649
" />
<path d="M115.5418 105.5649
L115.2394 105.5649
" />
<path d="M118.0214 104.7183
L118.0214 105.5649
" />
<path d="M117.7190 104.2345
L117.4166 105.1416
" />
<path d="M117.4166 105.1416
L118.2028 105.1416
" />
</g><text x="108.9539" y="99.1870"
textLength="9.5927" font-size="1.6933" lengthAdjust="spacingAndGlyphs"
text-anchor="start" opacity="0" stroke-opacity="0">CAN RX 8</text>
<g class="stroked-text"><desc>CAN RX 8</desc>
<path d="M110.0990 99.0093
L110.0385 99.0698
" />
<path d="M110.0385 99.0698
L109.8571 99.1303
" />
<path d="M109.8571 99.1303
L109.7361 99.1303
" />
<path d="M109.7361 99.1303
L109.5547 99.0698
" />
<path d="M109.5547 99.0698
L109.4337 98.9489
" />
<path d="M109.4337 98.9489
L109.3733 98.8279
" />
<path d="M109.3733 98.8279
L109.3128 98.5860
" />
<path d="M109.3128 98.5860
L109.3128 98.4046
" />
<path d="M109.3128 98.4046
L109.3733 98.1627
" />
<path d="M109.3733 98.1627
L109.4337 98.0417
" />
<path d="M109.4337 98.0417
L109.5547 97.9208
" />
<path d="M109.5547 97.9208
L109.7361 97.8603
" />
<path d="M109.7361 97.8603
L109.8571 97.8603
" />
<path d="M109.8571 97.8603
L110.0385 97.9208
" />
<path d="M110.0385 97.9208
L110.0990 97.9812
" />
<path d="M110.5828 98.7674
L111.1875 98.7674
" />
<path d="M110.4618 99.1303
L110.8852 97.8603
" />
<path d="M110.8852 97.8603
L111.3085 99.1303
" />
<path d="M111.7318 99.1303
L111.7318 97.8603
" />
<path d="M111.7318 97.8603
L112.4575 99.1303
" />
<path d="M112.4575 99.1303
L112.4575 97.8603
" />
<path d="M114.7556 99.1303
L114.3323 98.5255
" />
<path d="M114.0299 99.1303
L114.0299 97.8603
" />
<path d="M114.0299 97.8603
L114.5137 97.8603
" />
<path d="M114.5137 97.8603
L114.6347 97.9208
" />
<path d="M114.6347 97.9208
L114.6952 97.9812
" />
<path d="M114.6952 97.9812
L114.7556 98.1022
" />
<path d="M114.7556 98.1022
L114.7556 98.2836
" />
<path d="M114.7556 98.2836
L114.6952 98.4046
" />
<path d="M114.6952 98.4046
L114.6347 98.4650
" />
<path d="M114.6347 98.4650
L114.5137 98.5255
" />
<path d="M114.5137 98.5255
L114.0299 98.5255
" />
<path d="M115.1790 97.8603
L116.0256 99.1303
" />
<path d="M116.0256 97.8603
L115.1790 99.1303
" />
<path d="M117.6585 98.4046
L117.5375 98.3441
" />
<path d="M117.5375 98.3441
L117.4771 98.2836
" />
<path d="M117.4771 98.2836
L117.4166 98.1627
" />
<path d="M117.4166 98.1627
L117.4166 98.1022
" />
<path d="M117.4166 98.1022
L117.4771 97.9812
" />
<path d="M117.4771 97.9812
L117.5375 97.9208
" />
<path d="M117.5375 97.9208
L117.6585 97.8603
" />
<path d="M117.6585 97.8603
L117.9004 97.8603
" />
<path d="M117.9004 97.8603
L118.0214 97.9208
" />
<path d="M118.0214 97.9208
L118.0818 97.9812
" />
<path d="M118.0818 97.9812
L118.1423 98.1022
" />
<path d="M118.1423 98.1022
L118.1423 98.1627
" />
<path d="M118.1423 98.1627
L118.0818 98.2836
" />
<path d="M118.0818 98.2836
L118.0214 98.3441
" />
<path d="M118.0214 98.3441
L117.9004 98.4046
" />
<path d="M117.9004 98.4046
L117.6585 98.4046
" />
<path d="M117.6585 98.4046
L117.5375 98.4650
" />
<path d="M117.5375 98.4650
L117.4771 98.5255
" />
<path d="M117.4771 98.5255
L117.4166 98.6465
" />
<path d="M117.4166 98.6465
L117.4166 98.8884
" />
<path d="M117.4166 98.8884
L117.4771 99.0093
" />
<path d="M117.4771 99.0093
L117.5375 99.0698
" />
<path d="M117.5375 99.0698
L117.6585 99.1303
" />
<path d="M117.6585 99.1303
L117.9004 99.1303
" />
<path d="M117.9004 99.1303
L118.0214 99.0698
" />
<path d="M118.0214 99.0698
L118.0818 99.0093
" />
<path d="M118.0818 99.0093
L118.1423 98.8884
" />
<path d="M118.1423 98.8884
L118.1423 98.6465
" />
<path d="M118.1423 98.6465
L118.0818 98.5255
" />
<path d="M118.0818 98.5255
L118.0214 98.4650
" />
<path d="M118.0214 98.4650
L117.9004 98.4046
" />
</g><text x="112.5220" y="108.8390"
textLength="6.0246" font-size="1.6933" lengthAdjust="spacingAndGlyphs"
text-anchor="start" opacity="0" stroke-opacity="0">RTN 2</text>
<g class="stroked-text"><desc>RTN 2</desc>
<path d="M113.6671 108.7823
L113.2437 108.1775
" />
<path d="M112.9414 108.7823
L112.9414 107.5123
" />
<path d="M112.9414 107.5123
L113.4252 107.5123
" />
<path d="M113.4252 107.5123
L113.5461 107.5728
" />
<path d="M113.5461 107.5728
L113.6066 107.6332
" />
<path d="M113.6066 107.6332
L113.6671 107.7542
" />
<path d="M113.6671 107.7542
L113.6671 107.9356
" />
<path d="M113.6671 107.9356
L113.6066 108.0566
" />
<path d="M113.6066 108.0566
L113.5461 108.1170
" />
<path d="M113.5461 108.1170
L113.4252 108.1775
" />
<path d="M113.4252 108.1775
L112.9414 108.1775
" />
<path d="M114.0299 107.5123
L114.7556 107.5123
" />
<path d="M114.3928 108.7823
L114.3928 107.5123
" />
<path d="M115.1790 108.7823
L115.1790 107.5123
" />
<path d="M115.1790 107.5123
L115.9047 108.7823
" />
<path d="M115.9047 108.7823
L115.9047 107.5123
" />
<path d="M117.4166 107.6332
L117.4771 107.5728
" />
<path d="M117.4771 107.5728
L117.5980 107.5123
" />
<path d="M117.5980 107.5123
L117.9004 107.5123
" />
<path d="M117.9004 107.5123
L118.0214 107.5728
" />
<path d="M118.0214 107.5728
L118.0818 107.6332
" />
<path d="M118.0818 107.6332
L118.1423 107.7542
" />
<path d="M118.1423 107.7542
L118.1423 107.8751
" />
<path d="M118.1423 107.8751
L118.0818 108.0566
" />
<path d="M118.0818 108.0566
L117.3561 108.7823
" />
<path d="M117.3561 108.7823
L118.1423 108.7823
" />
</g><text x="112.5825" y="102.4043"
textLength="5.9642" font-size="1.6933" lengthAdjust="spacingAndGlyphs"
text-anchor="start" opacity="0" stroke-opacity="0">3V3 6</text>
<g class="stroked-text"><desc>3V3 6</desc>
<path d="M112.8809 101.0776
L113.6671 101.0776
" />
<path d="M113.6671 101.0776
L113.2437 101.5614
" />
<path d="M113.2437 101.5614
L113.4252 101.5614
" />
<path d="M113.4252 101.5614
L113.5461 101.6219
" />
<path d="M113.5461 101.6219
L113.6066 101.6824
" />
<path d="M113.6066 101.6824
L113.6671 101.8033
" />
<path d="M113.6671 101.8033
L113.6671 102.1057
" />
<path d="M113.6671 102.1057
L113.6066 102.2267
" />
<path d="M113.6066 102.2267
L113.5461 102.2871
" />
<path d="M113.5461 102.2871
L113.4252 102.3476
" />
<path d="M113.4252 102.3476
L113.0623 102.3476
" />
<path d="M113.0623 102.3476
L112.9414 102.2871
" />
<path d="M112.9414 102.2871
L112.8809 102.2267
" />
<path d="M114.0299 101.0776
L114.4533 102.3476
" />
<path d="M114.4533 102.3476
L114.8766 101.0776
" />
<path d="M115.1790 101.0776
L115.9652 101.0776
" />
<path d="M115.9652 101.0776
L115.5418 101.5614
" />
<path d="M115.5418 101.5614
L115.7233 101.5614
" />
<path d="M115.7233 101.5614
L115.8442 101.6219
" />
<path d="M115.8442 101.6219
L115.9047 101.6824
" />
<path d="M115.9047 101.6824
L115.9652 101.8033
" />
<path d="M115.9652 101.8033
L115.9652 102.1057
" />
<path d="M115.9652 102.1057
L115.9047 102.2267
" />
<path d="M115.9047 102.2267
L115.8442 102.2871
" />
<path d="M115.8442 102.2871
L115.7233 102.3476
" />
<path d="M115.7233 102.3476
L115.3604 102.3476
" />
<path d="M115.3604 102.3476
L115.2394 102.2871
" />
<path d="M115.2394 102.2871
L115.1790 102.2267
" />
<path d="M118.0214 101.0776
L117.7794 101.0776
" />
<path d="M117.7794 101.0776
L117.6585 101.1381
" />
<path d="M117.6585 101.1381
L117.5980 101.1986
" />
<path d="M117.5980 101.1986
L117.4771 101.3800
" />
<path d="M117.4771 101.3800
L117.4166 101.6219
" />
<path d="M117.4166 101.6219
L117.4166 102.1057
" />
<path d="M117.4166 102.1057
L117.4771 102.2267
" />
<path d="M117.4771 102.2267
L117.5375 102.2871
" />
<path d="M117.5375 102.2871
L117.6585 102.3476
" />
<path d="M117.6585 102.3476
L117.9004 102.3476
" />
<path d="M117.9004 102.3476
L118.0214 102.2871
" />
<path d="M118.0214 102.2871
L118.0818 102.2267
" />
<path d="M118.0818 102.2267
L118.1423 102.1057
" />
<path d="M118.1423 102.1057
L118.1423 101.8033
" />
<path d="M118.1423 101.8033
L118.0818 101.6824
" />
<path d="M118.0818 101.6824
L118.0214 101.6219
" />
<path d="M118.0214 101.6219
L117.9004 101.5614
" />
<path d="M117.9004 101.5614
L117.6585 101.5614
" />
<path d="M117.6585 101.5614
L117.5375 101.6219
" />
<path d="M117.5375 101.6219
L117.4771 101.6824
" />
<path d="M117.4771 101.6824
L117.4166 101.8033
" />
</g></g>
<g style="fill:none; 
stroke:#000000; stroke-width:0.1500; stroke-opacity:1; 
stroke-linecap:round; stroke-linejoin:round;">
<text x="108.5000" y="95.8770"
textLength="16.1548" font-size="1.3333" lengthAdjust="spacingAndGlyphs"
text-anchor="middle" opacity="0" stroke-opacity="0">NX CONTROL &amp; UART</text>
<g class="stroked-text"><desc>NX CONTROL &amp; UART</desc>
<path d="M100.7857 95.8318
L100.7857 94.8318
" />
<path d="M100.7857 94.8318
L101.3571 95.8318
" />
<path d="M101.3571 95.8318
L101.3571 94.8318
" />
<path d="M101.7381 94.8318
L102.4048 95.8318
" />
<path d="M102.4048 94.8318
L101.7381 95.8318
" />
<path d="M104.1190 95.7366
L104.0714 95.7842
" />
<path d="M104.0714 95.7842
L103.9286 95.8318
" />
<path d="M103.9286 95.8318
L103.8333 95.8318
" />
<path d="M103.8333 95.8318
L103.6905 95.7842
" />
<path d="M103.6905 95.7842
L103.5952 95.6890
" />
<path d="M103.5952 95.6890
L103.5476 95.5937
" />
<path d="M103.5476 95.5937
L103.5000 95.4032
" />
<path d="M103.5000 95.4032
L103.5000 95.2604
" />
<path d="M103.5000 95.2604
L103.5476 95.0699
" />
<path d="M103.5476 95.0699
L103.5952 94.9747
" />
<path d="M103.5952 94.9747
L103.6905 94.8794
" />
<path d="M103.6905 94.8794
L103.8333 94.8318
" />
<path d="M103.8333 94.8318
L103.9286 94.8318
" />
<path d="M103.9286 94.8318
L104.0714 94.8794
" />
<path d="M104.0714 94.8794
L104.1190 94.9271
" />
<path d="M104.7381 94.8318
L104.9286 94.8318
" />
<path d="M104.9286 94.8318
L105.0238 94.8794
" />
<path d="M105.0238 94.8794
L105.1190 94.9747
" />
<path d="M105.1190 94.9747
L105.1667 95.1652
" />
<path d="M105.1667 95.1652
L105.1667 95.4985
" />
<path d="M105.1667 95.4985
L105.1190 95.6890
" />
<path d="M105.1190 95.6890
L105.0238 95.7842
" />
<path d="M105.0238 95.7842
L104.9286 95.8318
" />
<path d="M104.9286 95.8318
L104.7381 95.8318
" />
<path d="M104.7381 95.8318
L104.6429 95.7842
" />
<path d="M104.6429 95.7842
L104.5476 95.6890
" />
<path d="M104.5476 95.6890
L104.5000 95.4985
" />
<path d="M104.5000 95.4985
L104.5000 95.1652
" />
<path d="M104.5000 95.1652
L104.5476 94.9747
" />
<path d="M104.5476 94.9747
L104.6429 94.8794
" />
<path d="M104.6429 94.8794
L104.7381 94.8318
" />
<path d="M105.5952 95.8318
L105.5952 94.8318
" />
<path d="M105.5952 94.8318
L106.1667 95.8318
" />
<path d="M106.1667 95.8318
L106.1667 94.8318
" />
<path d="M106.5000 94.8318
L107.0714 94.8318
" />
<path d="M106.7857 95.8318
L106.7857 94.8318
" />
<path d="M107.9762 95.8318
L107.6429 95.3556
" />
<path d="M107.4048 95.8318
L107.4048 94.8318
" />
<path d="M107.4048 94.8318
L107.7857 94.8318
" />
<path d="M107.7857 94.8318
L107.8810 94.8794
" />
<path d="M107.8810 94.8794
L107.9286 94.9271
" />
<path d="M107.9286 94.9271
L107.9762 95.0223
" />
<path d="M107.9762 95.0223
L107.9762 95.1652
" />
<path d="M107.9762 95.1652
L107.9286 95.2604
" />
<path d="M107.9286 95.2604
L107.8810 95.3080
" />
<path d="M107.8810 95.3080
L107.7857 95.3556
" />
<path d="M107.7857 95.3556
L107.4048 95.3556
" />
<path d="M108.5952 94.8318
L108.7857 94.8318
" />
<path d="M108.7857 94.8318
L108.8810 94.8794
" />
<path d="M108.8810 94.8794
L108.9762 94.9747
" />
<path d="M108.9762 94.9747
L109.0238 95.1652
" />
<path d="M109.0238 95.1652
L109.0238 95.4985
" />
<path d="M109.0238 95.4985
L108.9762 95.6890
" />
<path d="M108.9762 95.6890
L108.8810 95.7842
" />
<path d="M108.8810 95.7842
L108.7857 95.8318
" />
<path d="M108.7857 95.8318
L108.5952 95.8318
" />
<path d="M108.5952 95.8318
L108.5000 95.7842
" />
<path d="M108.5000 95.7842
L108.4048 95.6890
" />
<path d="M108.4048 95.6890
L108.3571 95.4985
" />
<path d="M108.3571 95.4985
L108.3571 95.1652
" />
<path d="M108.3571 95.1652
L108.4048 94.9747
" />
<path d="M108.4048 94.9747
L108.5000 94.8794
" />
<path d="M108.5000 94.8794
L108.5952 94.8318
" />
<path d="M109.9286 95.8318
L109.4524 95.8318
" />
<path d="M109.4524 95.8318
L109.4524 94.8318
" />
<path d="M111.8333 95.8318
L111.7857 95.8318
" />
<path d="M111.7857 95.8318
L111.6905 95.7842
" />
<path d="M111.6905 95.7842
L111.5476 95.6413
" />
<path d="M111.5476 95.6413
L111.3095 95.3556
" />
<path d="M111.3095 95.3556
L111.2143 95.2128
" />
<path d="M111.2143 95.2128
L111.1667 95.0699
" />
<path d="M111.1667 95.0699
L111.1667 94.9747
" />
<path d="M111.1667 94.9747
L111.2143 94.8794
" />
<path d="M111.2143 94.8794
L111.3095 94.8318
" />
<path d="M111.3095 94.8318
L111.3571 94.8318
" />
<path d="M111.3571 94.8318
L111.4524 94.8794
" />
<path d="M111.4524 94.8794
L111.5000 94.9747
" />
<path d="M111.5000 94.9747
L111.5000 95.0223
" />
<path d="M111.5000 95.0223
L111.4524 95.1175
" />
<path d="M111.4524 95.1175
L111.4048 95.1652
" />
<path d="M111.4048 95.1652
L111.1190 95.3556
" />
<path d="M111.1190 95.3556
L111.0714 95.4032
" />
<path d="M111.0714 95.4032
L111.0238 95.4985
" />
<path d="M111.0238 95.4985
L111.0238 95.6413
" />
<path d="M111.0238 95.6413
L111.0714 95.7366
" />
<path d="M111.0714 95.7366
L111.1190 95.7842
" />
<path d="M111.1190 95.7842
L111.2143 95.8318
" />
<path d="M111.2143 95.8318
L111.3571 95.8318
" />
<path d="M111.3571 95.8318
L111.4524 95.7842
" />
<path d="M111.4524 95.7842
L111.5000 95.7366
" />
<path d="M111.5000 95.7366
L111.6429 95.5461
" />
<path d="M111.6429 95.5461
L111.6905 95.4032
" />
<path d="M111.6905 95.4032
L111.6905 95.3080
" />
<path d="M113.0238 94.8318
L113.0238 95.6413
" />
<path d="M113.0238 95.6413
L113.0714 95.7366
" />
<path d="M113.0714 95.7366
L113.1190 95.7842
" />
<path d="M113.1190 95.7842
L113.2143 95.8318
" />
<path d="M113.2143 95.8318
L113.4048 95.8318
" />
<path d="M113.4048 95.8318
L113.5000 95.7842
" />
<path d="M113.5000 95.7842
L113.5476 95.7366
" />
<path d="M113.5476 95.7366
L113.5952 95.6413
" />
<path d="M113.5952 95.6413
L113.5952 94.8318
" />
<path d="M114.0238 95.5461
L114.5000 95.5461
" />
<path d="M113.9286 95.8318
L114.2619 94.8318
" />
<path d="M114.2619 94.8318
L114.5952 95.8318
" />
<path d="M115.5000 95.8318
L115.1667 95.3556
" />
<path d="M114.9286 95.8318
L114.9286 94.8318
" />
<path d="M114.9286 94.8318
L115.3095 94.8318
" />
<path d="M115.3095 94.8318
L115.4048 94.8794
" />
<path d="M115.4048 94.8794
L115.4524 94.9271
" />
<path d="M115.4524 94.9271
L115.5000 95.0223
" />
<path d="M115.5000 95.0223
L115.5000 95.1652
" />
<path d="M115.5000 95.1652
L115.4524 95.2604
" />
<path d="M115.4524 95.2604
L115.4048 95.3080
" />
<path d="M115.4048 95.3080
L115.3095 95.3556
" />
<path d="M115.3095 95.3556
L114.9286 95.3556
" />
<path d="M115.7857 94.8318
L116.3571 94.8318
" />
<path d="M116.0714 95.8318
L116.0714 94.8318
" />
</g></g>
<g style="fill:none; 
stroke:#000000; stroke-width:0.1200; stroke-opacity:1; 
stroke-linecap:round; stroke-linejoin:round;">
<path d="M85.4110 91.6340
L85.4110 94.2940
" />
<path d="M128.6510 91.6340
L85.4110 91.6340
" />
<path d="M128.6510 91.6340
L128.6510 94.2940
" />
<path d="M128.6510 94.2940
L85.4110 94.2940
" />
<path d="M131.2510 92.9640
L131.2510 94.2940
" />
<path d="M131.2510 94.2940
L129.9210 94.2940
" />
<path style="fill:#000000; fill-opacity:1.0000; stroke:none;fill-rule:evenodd;"
d="M 119.1133,107.4166
119.1328,107.2687
119.1899,107.1308
119.2807,107.0125
119.3990,106.9217
119.5369,106.8646
119.6848,106.8451
131.2418,106.8451
131.3897,106.8646
131.5275,106.9217
131.6459,107.0125
131.7367,107.1308
131.7938,107.2687
131.8133,107.4166
131.8133,108.5596
131.7938,108.7075
131.7367,108.8453
131.6459,108.9637
131.5275,109.0545
131.3897,109.1116
131.2418,109.1311
119.6848,109.1311
119.5369,109.1116
119.3990,109.0545
119.2807,108.9637
119.1899,108.8453
119.1328,108.7075
119.1133,108.5596
Z" /> 
<path style="fill:#000000; fill-opacity:1.0000; stroke:none;fill-rule:evenodd;"
d="M 119.1133,104.2416
119.1328,104.0937
119.1899,103.9558
119.2807,103.8375
119.3990,103.7467
119.5369,103.6896
119.6848,103.6701
131.2418,103.6701
131.3897,103.6896
131.5275,103.7467
131.6459,103.8375
131.7367,103.9558
131.7938,104.0937
131.8133,104.2416
131.8133,105.3846
131.7938,105.5325
131.7367,105.6703
131.6459,105.7887
131.5275,105.8795
131.3897,105.9366
131.2418,105.9561
119.6848,105.9561
119.5369,105.9366
119.3990,105.8795
119.2807,105.7887
119.1899,105.6703
119.1328,105.5325
119.1133,105.3846
Z" /> 
<path style="fill:#000000; fill-opacity:1.0000; stroke:none;fill-rule:evenodd;"
d="M 119.1133,101.0666
119.1328,100.9187
119.1899,100.7809
119.2807,100.6625
119.3990,100.5717
119.5369,100.5146
119.6848,100.4951
131.2418,100.4951
131.3897,100.5146
131.5275,100.5717
131.6459,100.6625
131.7367,100.7809
131.7938,100.9187
131.8133,101.0666
131.8133,102.2096
131.7938,102.3575
131.7367,102.4954
131.6459,102.6137
131.5275,102.7045
131.3897,102.7616
131.2418,102.7811
119.6848,102.7811
119.5369,102.7616
119.3990,102.7045
119.2807,102.6137
119.1899,102.4954
119.1328,102.3575
119.1133,102.2096
Z" /> 
<path style="fill:#000000; fill-opacity:1.0000; stroke:none;fill-rule:evenodd;"
d="M 119.1133,97.8916
119.1328,97.7437
119.1899,97.6058
119.2807,97.4875
119.3990,97.3967
119.5369,97.3396
119.6848,97.3201
131.2418,97.3201
131.3897,97.3396
131.5275,97.3967
131.6459,97.4875
131.7367,97.6058
131.7938,97.7437
131.8133,97.8916
131.8133,99.0346
131.7938,99.1825
131.7367,99.3203
131.6459,99.4387
131.5275,99.5295
131.3897,99.5866
131.2418,99.6061
119.6848,99.6061
119.5369,99.5866
119.3990,99.5295
119.2807,99.4387
119.1899,99.3203
119.1328,99.1825
119.1133,99.0346
Z" /> 
<path style="fill:#000000; fill-opacity:1.0000; stroke:none;fill-rule:evenodd;"
d="M 129.0710,92.1140
130.7710,92.1140
130.7710,93.8140
129.0710,93.8140
Z" /> 
</g>
<g style="fill:#000000; fill-opacity:1.0000; stroke:none;">
<circle cx="127.3810" cy="92.9640" r="0.8500" /> 
<circle cx="124.8410" cy="92.9640" r="0.8500" /> 
<circle cx="122.3010" cy="92.9640" r="0.8500" /> 
<circle cx="119.7610" cy="92.9640" r="0.8500" /> 
<circle cx="117.2210" cy="92.9640" r="0.8500" /> 
<circle cx="114.6810" cy="92.9640" r="0.8500" /> 
<circle cx="112.1410" cy="92.9640" r="0.8500" /> 
<circle cx="109.6010" cy="92.9640" r="0.8500" /> 
<circle cx="107.0610" cy="92.9640" r="0.8500" /> 
<circle cx="104.5210" cy="92.9640" r="0.8500" /> 
<circle cx="101.9810" cy="92.9640" r="0.8500" /> 
<circle cx="99.4410" cy="92.9640" r="0.8500" /> 
<circle cx="96.9010" cy="92.9640" r="0.8500" /> 
<circle cx="94.3610" cy="92.9640" r="0.8500" /> 
<circle cx="91.8210" cy="92.9640" r="0.8500" /> 
<circle cx="89.2810" cy="92.9640" r="0.8500" /> 
<circle cx="86.7410" cy="92.9640" r="0.8500" /> 
</g>
<g style="fill:none; 
stroke:#000000; stroke-width:0.1000; stroke-opacity:1; 
stroke-linecap:round; stroke-linejoin:round;">
<path d="M132.4610 91.6940
L132.4610 110.3630
" />
<path d="M84.2010 110.3630 A1.2700 1.2700 0.0 0 0 85.4710 111.6330" />
<path d="M85.4710 90.4240
L131.1910 90.4240
" />
<path d="M132.4610 91.6940 A1.2700 1.2700 0.0 0 0 131.1910 90.4240" />
<path d="M131.1910 111.6330 A1.2700 1.2700 0.0 0 0 132.4610 110.3630" />
<path d="M85.4710 90.4240 A1.2700 1.2700 0.0 0 0 84.2010 91.6940" />
<path d="M84.2010 110.3630
L84.2010 91.6940
" />
<path d="M131.1910 111.6330
L85.4710 111.6330
" />
</g> 
</svg>
