<?xml version="1.0" standalone="no"?>
 <!DOCTYPE svg PUBLIC "-//W3C//DTD SVG 1.1//EN" 
 "http://www.w3.org/Graphics/SVG/1.1/DTD/svg11.dtd"> 
<svg
  xmlns:svg="http://www.w3.org/2000/svg"
  xmlns="http://www.w3.org/2000/svg"
  xmlns:xlink="http://www.w3.org/1999/xlink"
  version="1.1"
  width="279.4000mm" height="215.9000mm" viewBox="0.0000 0.0000 279.4000 215.9000">
<title>SVG Image created as NX-ButtonInterface-F_Silkscreen.svg date 2024/08/11 09:05:47 </title>
  <desc>Image generated by PCBNEW </desc>
<g style="fill:#000000; fill-opacity:1.0000;stroke:#000000; stroke-opacity:1.0000;
stroke-linecap:round; stroke-linejoin:round;"
 transform="translate(0 0) scale(1 1)">
</g>
<g style="fill:none; 
stroke:#000000; stroke-width:0.1778; stroke-opacity:1; 
stroke-linecap:round; stroke-linejoin:round;">
<text x="99.7204" y="102.2943"
textLength="5.9037" font-size="1.6933" lengthAdjust="spacingAndGlyphs"
text-anchor="start" opacity="0" stroke-opacity="0">6 TXD</text>
<g class="stroked-text"><desc>6 TXD</desc>
<path d="M100.6840 100.9675
L100.4421 100.9675
" />
<path d="M100.4421 100.9675
L100.3212 101.0280
" />
<path d="M100.3212 101.0280
L100.2607 101.0885
" />
<path d="M100.2607 101.0885
L100.1398 101.2699
" />
<path d="M100.1398 101.2699
L100.0793 101.5118
" />
<path d="M100.0793 101.5118
L100.0793 101.9956
" />
<path d="M100.0793 101.9956
L100.1398 102.1166
" />
<path d="M100.1398 102.1166
L100.2002 102.1771
" />
<path d="M100.2002 102.1771
L100.3212 102.2375
" />
<path d="M100.3212 102.2375
L100.5631 102.2375
" />
<path d="M100.5631 102.2375
L100.6840 102.1771
" />
<path d="M100.6840 102.1771
L100.7445 102.1166
" />
<path d="M100.7445 102.1166
L100.8050 101.9956
" />
<path d="M100.8050 101.9956
L100.8050 101.6933
" />
<path d="M100.8050 101.6933
L100.7445 101.5723
" />
<path d="M100.7445 101.5723
L100.6840 101.5118
" />
<path d="M100.6840 101.5118
L100.5631 101.4514
" />
<path d="M100.5631 101.4514
L100.3212 101.4514
" />
<path d="M100.3212 101.4514
L100.2002 101.5118
" />
<path d="M100.2002 101.5118
L100.1398 101.5723
" />
<path d="M100.1398 101.5723
L100.0793 101.6933
" />
<path d="M102.1355 100.9675
L102.8612 100.9675
" />
<path d="M102.4983 102.2375
L102.4983 100.9675
" />
<path d="M103.1636 100.9675
L104.0102 102.2375
" />
<path d="M104.0102 100.9675
L103.1636 102.2375
" />
<path d="M104.4940 102.2375
L104.4940 100.9675
" />
<path d="M104.4940 100.9675
L104.7964 100.9675
" />
<path d="M104.7964 100.9675
L104.9778 101.0280
" />
<path d="M104.9778 101.0280
L105.0988 101.1490
" />
<path d="M105.0988 101.1490
L105.1593 101.2699
" />
<path d="M105.1593 101.2699
L105.2198 101.5118
" />
<path d="M105.2198 101.5118
L105.2198 101.6933
" />
<path d="M105.2198 101.6933
L105.1593 101.9352
" />
<path d="M105.1593 101.9352
L105.0988 102.0561
" />
<path d="M105.0988 102.0561
L104.9778 102.1771
" />
<path d="M104.9778 102.1771
L104.7964 102.2375
" />
<path d="M104.7964 102.2375
L104.4940 102.2375
" />
</g><text x="99.7204" y="108.6358"
textLength="9.5927" font-size="1.6933" lengthAdjust="spacingAndGlyphs"
text-anchor="start" opacity="0" stroke-opacity="0">2 CAN RX</text>
<g class="stroked-text"><desc>2 CAN RX</desc>
<path d="M100.0793 107.4300
L100.1398 107.3696
" />
<path d="M100.1398 107.3696
L100.2607 107.3091
" />
<path d="M100.2607 107.3091
L100.5631 107.3091
" />
<path d="M100.5631 107.3091
L100.6840 107.3696
" />
<path d="M100.6840 107.3696
L100.7445 107.4300
" />
<path d="M100.7445 107.4300
L100.8050 107.5510
" />
<path d="M100.8050 107.5510
L100.8050 107.6719
" />
<path d="M100.8050 107.6719
L100.7445 107.8534
" />
<path d="M100.7445 107.8534
L100.0188 108.5791
" />
<path d="M100.0188 108.5791
L100.8050 108.5791
" />
<path d="M103.0426 108.4581
L102.9821 108.5186
" />
<path d="M102.9821 108.5186
L102.8007 108.5791
" />
<path d="M102.8007 108.5791
L102.6798 108.5791
" />
<path d="M102.6798 108.5791
L102.4983 108.5186
" />
<path d="M102.4983 108.5186
L102.3774 108.3977
" />
<path d="M102.3774 108.3977
L102.3169 108.2767
" />
<path d="M102.3169 108.2767
L102.2564 108.0348
" />
<path d="M102.2564 108.0348
L102.2564 107.8534
" />
<path d="M102.2564 107.8534
L102.3169 107.6115
" />
<path d="M102.3169 107.6115
L102.3774 107.4905
" />
<path d="M102.3774 107.4905
L102.4983 107.3696
" />
<path d="M102.4983 107.3696
L102.6798 107.3091
" />
<path d="M102.6798 107.3091
L102.8007 107.3091
" />
<path d="M102.8007 107.3091
L102.9821 107.3696
" />
<path d="M102.9821 107.3696
L103.0426 107.4300
" />
<path d="M103.5264 108.2162
L104.1312 108.2162
" />
<path d="M103.4055 108.5791
L103.8288 107.3091
" />
<path d="M103.8288 107.3091
L104.2521 108.5791
" />
<path d="M104.6755 108.5791
L104.6755 107.3091
" />
<path d="M104.6755 107.3091
L105.4012 108.5791
" />
<path d="M105.4012 108.5791
L105.4012 107.3091
" />
<path d="M107.6993 108.5791
L107.2759 107.9743
" />
<path d="M106.9736 108.5791
L106.9736 107.3091
" />
<path d="M106.9736 107.3091
L107.4574 107.3091
" />
<path d="M107.4574 107.3091
L107.5783 107.3696
" />
<path d="M107.5783 107.3696
L107.6388 107.4300
" />
<path d="M107.6388 107.4300
L107.6993 107.5510
" />
<path d="M107.6993 107.5510
L107.6993 107.7324
" />
<path d="M107.6993 107.7324
L107.6388 107.8534
" />
<path d="M107.6388 107.8534
L107.5783 107.9138
" />
<path d="M107.5783 107.9138
L107.4574 107.9743
" />
<path d="M107.4574 107.9743
L106.9736 107.9743
" />
<path d="M108.1226 107.3091
L108.9693 108.5791
" />
<path d="M108.9693 107.3091
L108.1226 108.5791
" />
</g><text x="99.7204" y="99.1108"
textLength="6.0246" font-size="1.6933" lengthAdjust="spacingAndGlyphs"
text-anchor="start" opacity="0" stroke-opacity="0">8 RTN</text>
<g class="stroked-text"><desc>8 RTN</desc>
<path d="M100.3212 98.3284
L100.2002 98.2679
" />
<path d="M100.2002 98.2679
L100.1398 98.2074
" />
<path d="M100.1398 98.2074
L100.0793 98.0865
" />
<path d="M100.0793 98.0865
L100.0793 98.0260
" />
<path d="M100.0793 98.0260
L100.1398 97.9050
" />
<path d="M100.1398 97.9050
L100.2002 97.8446
" />
<path d="M100.2002 97.8446
L100.3212 97.7841
" />
<path d="M100.3212 97.7841
L100.5631 97.7841
" />
<path d="M100.5631 97.7841
L100.6840 97.8446
" />
<path d="M100.6840 97.8446
L100.7445 97.9050
" />
<path d="M100.7445 97.9050
L100.8050 98.0260
" />
<path d="M100.8050 98.0260
L100.8050 98.0865
" />
<path d="M100.8050 98.0865
L100.7445 98.2074
" />
<path d="M100.7445 98.2074
L100.6840 98.2679
" />
<path d="M100.6840 98.2679
L100.5631 98.3284
" />
<path d="M100.5631 98.3284
L100.3212 98.3284
" />
<path d="M100.3212 98.3284
L100.2002 98.3888
" />
<path d="M100.2002 98.3888
L100.1398 98.4493
" />
<path d="M100.1398 98.4493
L100.0793 98.5703
" />
<path d="M100.0793 98.5703
L100.0793 98.8122
" />
<path d="M100.0793 98.8122
L100.1398 98.9331
" />
<path d="M100.1398 98.9331
L100.2002 98.9936
" />
<path d="M100.2002 98.9936
L100.3212 99.0541
" />
<path d="M100.3212 99.0541
L100.5631 99.0541
" />
<path d="M100.5631 99.0541
L100.6840 98.9936
" />
<path d="M100.6840 98.9936
L100.7445 98.9331
" />
<path d="M100.7445 98.9331
L100.8050 98.8122
" />
<path d="M100.8050 98.8122
L100.8050 98.5703
" />
<path d="M100.8050 98.5703
L100.7445 98.4493
" />
<path d="M100.7445 98.4493
L100.6840 98.3888
" />
<path d="M100.6840 98.3888
L100.5631 98.3284
" />
<path d="M103.0426 99.0541
L102.6193 98.4493
" />
<path d="M102.3169 99.0541
L102.3169 97.7841
" />
<path d="M102.3169 97.7841
L102.8007 97.7841
" />
<path d="M102.8007 97.7841
L102.9217 97.8446
" />
<path d="M102.9217 97.8446
L102.9821 97.9050
" />
<path d="M102.9821 97.9050
L103.0426 98.0260
" />
<path d="M103.0426 98.0260
L103.0426 98.2074
" />
<path d="M103.0426 98.2074
L102.9821 98.3284
" />
<path d="M102.9821 98.3284
L102.9217 98.3888
" />
<path d="M102.9217 98.3888
L102.8007 98.4493
" />
<path d="M102.8007 98.4493
L102.3169 98.4493
" />
<path d="M103.4055 97.7841
L104.1312 97.7841
" />
<path d="M103.7683 99.0541
L103.7683 97.7841
" />
<path d="M104.5545 99.0541
L104.5545 97.7841
" />
<path d="M104.5545 97.7841
L105.2802 99.0541
" />
<path d="M105.2802 99.0541
L105.2802 97.7841
" />
</g><text x="99.7204" y="105.4777"
textLength="5.9642" font-size="1.6933" lengthAdjust="spacingAndGlyphs"
text-anchor="start" opacity="0" stroke-opacity="0">4 3V3</text>
<g class="stroked-text"><desc>4 3V3</desc>
<path d="M100.6840 104.5743
L100.6840 105.4210
" />
<path d="M100.3817 104.0905
L100.0793 104.9977
" />
<path d="M100.0793 104.9977
L100.8655 104.9977
" />
<path d="M102.1959 104.1510
L102.9821 104.1510
" />
<path d="M102.9821 104.1510
L102.5588 104.6348
" />
<path d="M102.5588 104.6348
L102.7402 104.6348
" />
<path d="M102.7402 104.6348
L102.8612 104.6953
" />
<path d="M102.8612 104.6953
L102.9217 104.7558
" />
<path d="M102.9217 104.7558
L102.9821 104.8767
" />
<path d="M102.9821 104.8767
L102.9821 105.1791
" />
<path d="M102.9821 105.1791
L102.9217 105.3001
" />
<path d="M102.9217 105.3001
L102.8612 105.3605
" />
<path d="M102.8612 105.3605
L102.7402 105.4210
" />
<path d="M102.7402 105.4210
L102.3774 105.4210
" />
<path d="M102.3774 105.4210
L102.2564 105.3605
" />
<path d="M102.2564 105.3605
L102.1959 105.3001
" />
<path d="M103.3450 104.1510
L103.7683 105.4210
" />
<path d="M103.7683 105.4210
L104.1917 104.1510
" />
<path d="M104.4940 104.1510
L105.2802 104.1510
" />
<path d="M105.2802 104.1510
L104.8569 104.6348
" />
<path d="M104.8569 104.6348
L105.0383 104.6348
" />
<path d="M105.0383 104.6348
L105.1593 104.6953
" />
<path d="M105.1593 104.6953
L105.2198 104.7558
" />
<path d="M105.2198 104.7558
L105.2802 104.8767
" />
<path d="M105.2802 104.8767
L105.2802 105.1791
" />
<path d="M105.2802 105.1791
L105.2198 105.3001
" />
<path d="M105.2198 105.3001
L105.1593 105.3605
" />
<path d="M105.1593 105.3605
L105.0383 105.4210
" />
<path d="M105.0383 105.4210
L104.6755 105.4210
" />
<path d="M104.6755 105.4210
L104.5545 105.3605
" />
<path d="M104.5545 105.3605
L104.4940 105.3001
" />
</g></g>
<g style="fill:none; 
stroke:#000000; stroke-width:0.1500; stroke-opacity:1; 
stroke-linecap:round; stroke-linejoin:round;">
<text x="108.5000" y="95.8770"
textLength="16.1548" font-size="1.3333" lengthAdjust="spacingAndGlyphs"
text-anchor="middle" opacity="0" stroke-opacity="0">NX CONTROL &amp; UART</text>
<g class="stroked-text"><desc>NX CONTROL &amp; UART</desc>
<path d="M100.7857 95.8318
L100.7857 94.8318
" />
<path d="M100.7857 94.8318
L101.3571 95.8318
" />
<path d="M101.3571 95.8318
L101.3571 94.8318
" />
<path d="M101.7381 94.8318
L102.4048 95.8318
" />
<path d="M102.4048 94.8318
L101.7381 95.8318
" />
<path d="M104.1190 95.7366
L104.0714 95.7842
" />
<path d="M104.0714 95.7842
L103.9286 95.8318
" />
<path d="M103.9286 95.8318
L103.8333 95.8318
" />
<path d="M103.8333 95.8318
L103.6905 95.7842
" />
<path d="M103.6905 95.7842
L103.5952 95.6890
" />
<path d="M103.5952 95.6890
L103.5476 95.5937
" />
<path d="M103.5476 95.5937
L103.5000 95.4032
" />
<path d="M103.5000 95.4032
L103.5000 95.2604
" />
<path d="M103.5000 95.2604
L103.5476 95.0699
" />
<path d="M103.5476 95.0699
L103.5952 94.9747
" />
<path d="M103.5952 94.9747
L103.6905 94.8794
" />
<path d="M103.6905 94.8794
L103.8333 94.8318
" />
<path d="M103.8333 94.8318
L103.9286 94.8318
" />
<path d="M103.9286 94.8318
L104.0714 94.8794
" />
<path d="M104.0714 94.8794
L104.1190 94.9271
" />
<path d="M104.7381 94.8318
L104.9286 94.8318
" />
<path d="M104.9286 94.8318
L105.0238 94.8794
" />
<path d="M105.0238 94.8794
L105.1190 94.9747
" />
<path d="M105.1190 94.9747
L105.1667 95.1652
" />
<path d="M105.1667 95.1652
L105.1667 95.4985
" />
<path d="M105.1667 95.4985
L105.1190 95.6890
" />
<path d="M105.1190 95.6890
L105.0238 95.7842
" />
<path d="M105.0238 95.7842
L104.9286 95.8318
" />
<path d="M104.9286 95.8318
L104.7381 95.8318
" />
<path d="M104.7381 95.8318
L104.6429 95.7842
" />
<path d="M104.6429 95.7842
L104.5476 95.6890
" />
<path d="M104.5476 95.6890
L104.5000 95.4985
" />
<path d="M104.5000 95.4985
L104.5000 95.1652
" />
<path d="M104.5000 95.1652
L104.5476 94.9747
" />
<path d="M104.5476 94.9747
L104.6429 94.8794
" />
<path d="M104.6429 94.8794
L104.7381 94.8318
" />
<path d="M105.5952 95.8318
L105.5952 94.8318
" />
<path d="M105.5952 94.8318
L106.1667 95.8318
" />
<path d="M106.1667 95.8318
L106.1667 94.8318
" />
<path d="M106.5000 94.8318
L107.0714 94.8318
" />
<path d="M106.7857 95.8318
L106.7857 94.8318
" />
<path d="M107.9762 95.8318
L107.6429 95.3556
" />
<path d="M107.4048 95.8318
L107.4048 94.8318
" />
<path d="M107.4048 94.8318
L107.7857 94.8318
" />
<path d="M107.7857 94.8318
L107.8810 94.8794
" />
<path d="M107.8810 94.8794
L107.9286 94.9271
" />
<path d="M107.9286 94.9271
L107.9762 95.0223
" />
<path d="M107.9762 95.0223
L107.9762 95.1652
" />
<path d="M107.9762 95.1652
L107.9286 95.2604
" />
<path d="M107.9286 95.2604
L107.8810 95.3080
" />
<path d="M107.8810 95.3080
L107.7857 95.3556
" />
<path d="M107.7857 95.3556
L107.4048 95.3556
" />
<path d="M108.5952 94.8318
L108.7857 94.8318
" />
<path d="M108.7857 94.8318
L108.8810 94.8794
" />
<path d="M108.8810 94.8794
L108.9762 94.9747
" />
<path d="M108.9762 94.9747
L109.0238 95.1652
" />
<path d="M109.0238 95.1652
L109.0238 95.4985
" />
<path d="M109.0238 95.4985
L108.9762 95.6890
" />
<path d="M108.9762 95.6890
L108.8810 95.7842
" />
<path d="M108.8810 95.7842
L108.7857 95.8318
" />
<path d="M108.7857 95.8318
L108.5952 95.8318
" />
<path d="M108.5952 95.8318
L108.5000 95.7842
" />
<path d="M108.5000 95.7842
L108.4048 95.6890
" />
<path d="M108.4048 95.6890
L108.3571 95.4985
" />
<path d="M108.3571 95.4985
L108.3571 95.1652
" />
<path d="M108.3571 95.1652
L108.4048 94.9747
" />
<path d="M108.4048 94.9747
L108.5000 94.8794
" />
<path d="M108.5000 94.8794
L108.5952 94.8318
" />
<path d="M109.9286 95.8318
L109.4524 95.8318
" />
<path d="M109.4524 95.8318
L109.4524 94.8318
" />
<path d="M111.8333 95.8318
L111.7857 95.8318
" />
<path d="M111.7857 95.8318
L111.6905 95.7842
" />
<path d="M111.6905 95.7842
L111.5476 95.6413
" />
<path d="M111.5476 95.6413
L111.3095 95.3556
" />
<path d="M111.3095 95.3556
L111.2143 95.2128
" />
<path d="M111.2143 95.2128
L111.1667 95.0699
" />
<path d="M111.1667 95.0699
L111.1667 94.9747
" />
<path d="M111.1667 94.9747
L111.2143 94.8794
" />
<path d="M111.2143 94.8794
L111.3095 94.8318
" />
<path d="M111.3095 94.8318
L111.3571 94.8318
" />
<path d="M111.3571 94.8318
L111.4524 94.8794
" />
<path d="M111.4524 94.8794
L111.5000 94.9747
" />
<path d="M111.5000 94.9747
L111.5000 95.0223
" />
<path d="M111.5000 95.0223
L111.4524 95.1175
" />
<path d="M111.4524 95.1175
L111.4048 95.1652
" />
<path d="M111.4048 95.1652
L111.1190 95.3556
" />
<path d="M111.1190 95.3556
L111.0714 95.4032
" />
<path d="M111.0714 95.4032
L111.0238 95.4985
" />
<path d="M111.0238 95.4985
L111.0238 95.6413
" />
<path d="M111.0238 95.6413
L111.0714 95.7366
" />
<path d="M111.0714 95.7366
L111.1190 95.7842
" />
<path d="M111.1190 95.7842
L111.2143 95.8318
" />
<path d="M111.2143 95.8318
L111.3571 95.8318
" />
<path d="M111.3571 95.8318
L111.4524 95.7842
" />
<path d="M111.4524 95.7842
L111.5000 95.7366
" />
<path d="M111.5000 95.7366
L111.6429 95.5461
" />
<path d="M111.6429 95.5461
L111.6905 95.4032
" />
<path d="M111.6905 95.4032
L111.6905 95.3080
" />
<path d="M113.0238 94.8318
L113.0238 95.6413
" />
<path d="M113.0238 95.6413
L113.0714 95.7366
" />
<path d="M113.0714 95.7366
L113.1190 95.7842
" />
<path d="M113.1190 95.7842
L113.2143 95.8318
" />
<path d="M113.2143 95.8318
L113.4048 95.8318
" />
<path d="M113.4048 95.8318
L113.5000 95.7842
" />
<path d="M113.5000 95.7842
L113.5476 95.7366
" />
<path d="M113.5476 95.7366
L113.5952 95.6413
" />
<path d="M113.5952 95.6413
L113.5952 94.8318
" />
<path d="M114.0238 95.5461
L114.5000 95.5461
" />
<path d="M113.9286 95.8318
L114.2619 94.8318
" />
<path d="M114.2619 94.8318
L114.5952 95.8318
" />
<path d="M115.5000 95.8318
L115.1667 95.3556
" />
<path d="M114.9286 95.8318
L114.9286 94.8318
" />
<path d="M114.9286 94.8318
L115.3095 94.8318
" />
<path d="M115.3095 94.8318
L115.4048 94.8794
" />
<path d="M115.4048 94.8794
L115.4524 94.9271
" />
<path d="M115.4524 94.9271
L115.5000 95.0223
" />
<path d="M115.5000 95.0223
L115.5000 95.1652
" />
<path d="M115.5000 95.1652
L115.4524 95.2604
" />
<path d="M115.4524 95.2604
L115.4048 95.3080
" />
<path d="M115.4048 95.3080
L115.3095 95.3556
" />
<path d="M115.3095 95.3556
L114.9286 95.3556
" />
<path d="M115.7857 94.8318
L116.3571 94.8318
" />
<path d="M116.0714 95.8318
L116.0714 94.8318
" />
</g></g>
<g style="fill:none; 
stroke:#000000; stroke-width:0.1200; stroke-opacity:1; 
stroke-linecap:round; stroke-linejoin:round;">
<path d="M85.4110 91.6340
L85.4110 94.2940
" />
<path d="M128.6510 91.6340
L85.4110 91.6340
" />
<path d="M128.6510 91.6340
L128.6510 94.2940
" />
<path d="M128.6510 94.2940
L85.4110 94.2940
" />
<path d="M131.2510 92.9640
L131.2510 94.2940
" />
<path d="M131.2510 94.2940
L129.9210 94.2940
" />
</g>
<g style="fill:none; 
stroke:#000000; stroke-width:0.1000; stroke-opacity:1; 
stroke-linecap:round; stroke-linejoin:round;">
<path d="M98.0694 96.8756
L85.6234 96.8756
" />
<path d="M98.0694 109.5121
L85.6234 109.5121
" />
<path d="M98.0695 109.5132
L98.0694 96.8756
" />
<path style="fill:#000000; fill-opacity:1.0000; stroke:none;fill-rule:evenodd;"
d="M 129.0710,92.1140
130.7710,92.1140
130.7710,93.8140
129.0710,93.8140
Z" /> 
</g>
<g style="fill:#000000; fill-opacity:1.0000; stroke:none;">
<circle cx="127.3810" cy="92.9640" r="0.8500" /> 
<circle cx="124.8410" cy="92.9640" r="0.8500" /> 
<circle cx="122.3010" cy="92.9640" r="0.8500" /> 
<circle cx="119.7610" cy="92.9640" r="0.8500" /> 
<circle cx="117.2210" cy="92.9640" r="0.8500" /> 
<circle cx="114.6810" cy="92.9640" r="0.8500" /> 
<circle cx="112.1410" cy="92.9640" r="0.8500" /> 
<circle cx="109.6010" cy="92.9640" r="0.8500" /> 
<circle cx="107.0610" cy="92.9640" r="0.8500" /> 
<circle cx="104.5210" cy="92.9640" r="0.8500" /> 
<circle cx="101.9810" cy="92.9640" r="0.8500" /> 
<circle cx="99.4410" cy="92.9640" r="0.8500" /> 
<circle cx="96.9010" cy="92.9640" r="0.8500" /> 
<circle cx="94.3610" cy="92.9640" r="0.8500" /> 
<circle cx="91.8210" cy="92.9640" r="0.8500" /> 
<circle cx="89.2810" cy="92.9640" r="0.8500" /> 
<circle cx="86.7410" cy="92.9640" r="0.8500" /> 
<path style="fill:#000000; fill-opacity:1.0000; stroke:none;fill-rule:evenodd;"
d="M 84.8614,107.4166
84.8809,107.2687
84.9380,107.1308
85.0288,107.0125
85.1471,106.9217
85.2850,106.8646
85.4329,106.8451
96.9899,106.8451
97.1378,106.8646
97.2756,106.9217
97.3940,107.0125
97.4848,107.1308
97.5419,107.2687
97.5614,107.4166
97.5614,108.5596
97.5419,108.7075
97.4848,108.8453
97.3940,108.9637
97.2756,109.0545
97.1378,109.1116
96.9899,109.1311
85.4329,109.1311
85.2850,109.1116
85.1471,109.0545
85.0288,108.9637
84.9380,108.8453
84.8809,108.7075
84.8614,108.5596
Z" /> 
<path style="fill:#000000; fill-opacity:1.0000; stroke:none;fill-rule:evenodd;"
d="M 84.8614,104.2416
84.8809,104.0937
84.9380,103.9558
85.0288,103.8375
85.1471,103.7467
85.2850,103.6896
85.4329,103.6701
96.9899,103.6701
97.1378,103.6896
97.2756,103.7467
97.3940,103.8375
97.4848,103.9558
97.5419,104.0937
97.5614,104.2416
97.5614,105.3846
97.5419,105.5325
97.4848,105.6703
97.3940,105.7887
97.2756,105.8795
97.1378,105.9366
96.9899,105.9561
85.4329,105.9561
85.2850,105.9366
85.1471,105.8795
85.0288,105.7887
84.9380,105.6703
84.8809,105.5325
84.8614,105.3846
Z" /> 
<path style="fill:#000000; fill-opacity:1.0000; stroke:none;fill-rule:evenodd;"
d="M 84.8614,101.0666
84.8809,100.9187
84.9380,100.7809
85.0288,100.6625
85.1471,100.5717
85.2850,100.5146
85.4329,100.4951
96.9899,100.4951
97.1378,100.5146
97.2756,100.5717
97.3940,100.6625
97.4848,100.7809
97.5419,100.9187
97.5614,101.0666
97.5614,102.2096
97.5419,102.3575
97.4848,102.4954
97.3940,102.6137
97.2756,102.7045
97.1378,102.7616
96.9899,102.7811
85.4329,102.7811
85.2850,102.7616
85.1471,102.7045
85.0288,102.6137
84.9380,102.4954
84.8809,102.3575
84.8614,102.2096
Z" /> 
<path style="fill:#000000; fill-opacity:1.0000; stroke:none;fill-rule:evenodd;"
d="M 84.8614,97.8916
84.8809,97.7437
84.9380,97.6058
85.0288,97.4875
85.1471,97.3967
85.2850,97.3396
85.4329,97.3201
96.9899,97.3201
97.1378,97.3396
97.2756,97.3967
97.3940,97.4875
97.4848,97.6058
97.5419,97.7437
97.5614,97.8916
97.5614,99.0346
97.5419,99.1825
97.4848,99.3203
97.3940,99.4387
97.2756,99.5295
97.1378,99.5866
96.9899,99.6061
85.4329,99.6061
85.2850,99.5866
85.1471,99.5295
85.0288,99.4387
84.9380,99.3203
84.8809,99.1825
84.8614,99.0346
Z" /> 
</g>
<g style="fill:none; 
stroke:#000000; stroke-width:0.1000; stroke-opacity:1; 
stroke-linecap:round; stroke-linejoin:round;">
<path d="M132.4610 91.6940
L132.4610 110.3630
" />
<path d="M84.2010 110.3630 A1.2700 1.2700 0.0 0 0 85.4710 111.6330" />
<path d="M85.4710 90.4240
L131.1910 90.4240
" />
<path d="M132.4610 91.6940 A1.2700 1.2700 0.0 0 0 131.1910 90.4240" />
<path d="M131.1910 111.6330 A1.2700 1.2700 0.0 0 0 132.4610 110.3630" />
<path d="M85.4710 90.4240 A1.2700 1.2700 0.0 0 0 84.2010 91.6940" />
<path d="M84.2010 110.3630
L84.2010 91.6940
" />
<path d="M131.1910 111.6330
L85.4710 111.6330
" />
</g> 
</svg>
