M48
; DRILL file {KiCad 7.0.9-7.0.9~ubuntu20.04.1} date Fri 22 Dec 2023 10:27:12 AM PST
; FORMAT={-:-/ absolute / metric / decimal}
; #@! TF.CreationDate,2023-12-22T10:27:12-08:00
; #@! TF.GenerationSoftware,Kicad,Pcbnew,7.0.9-7.0.9~ubuntu20.04.1
; #@! TF.FileFunction,MixedPlating,1,4
FMAT,2
METRIC
; #@! TA.AperFunction,Plated,PTH,ViaDrill
T1C0.406
; #@! TA.AperFunction,Plated,PTH,ComponentDrill
T2C0.800
; #@! TA.AperFunction,Plated,PTH,ComponentDrill
T3C0.900
; #@! TA.AperFunction,Plated,PTH,ComponentDrill
T4C1.000
; #@! TA.AperFunction,Plated,PTH,ComponentDrill
T5C1.067
; #@! TA.AperFunction,Plated,PTH,ComponentDrill
T6C1.092
; #@! TA.AperFunction,Plated,PTH,ComponentDrill
T7C1.100
; #@! TA.AperFunction,Plated,PTH,ComponentDrill
T8C1.194
; #@! TA.AperFunction,Plated,PTH,ComponentDrill
T9C2.700
; #@! TA.AperFunction,NonPlated,NPTH,ComponentDrill
T10C3.400
; #@! TA.AperFunction,NonPlated,NPTH,ComponentDrill
T11C3.404
%
G90
G05
T1
X222.758Y-99.695
X222.758Y-100.965
X222.758Y-102.235
X222.758Y-103.505
X224.79Y-135.89
X225.806Y-131.953
X226.187Y-100.965
X226.187Y-102.235
X226.187Y-103.505
X226.314Y-133.858
X226.822Y-137.795
X227.965Y-100.965
X227.965Y-102.235
X227.965Y-103.505
X231.267Y-100.965
X231.267Y-102.235
X231.267Y-103.505
X231.267Y-137.795
X231.902Y-131.953
X232.029Y-133.985
X233.172Y-135.89
X234.569Y-96.52
X235.966Y-153.543
X241.935Y-138.903
X244.73Y-147.158
X244.983Y-138.903
X245.491Y-151.222
X245.745Y-147.158
X246.761Y-147.158
X247.777Y-93.472
X247.777Y-98.806
X247.777Y-104.14
X248.031Y-138.903
X248.539Y-151.222
X248.666Y-93.472
X248.666Y-98.806
X248.666Y-104.14
X250.063Y-151.222
X251.079Y-138.903
X251.46Y-151.222
X252.984Y-151.222
X253.619Y-84.836
X254.0Y-135.728
X255.016Y-138.903
X255.905Y-135.728
X257.429Y-83.566
X257.555Y-88.157
X257.619Y-87.144
X259.334Y-88.392
X261.366Y-83.566
X264.287Y-88.392
X264.414Y-82.677
X265.963Y-138.903
X266.065Y-83.693
X268.733Y-147.285
X268.986Y-138.903
X269.519Y-151.247
X269.748Y-147.285
X270.764Y-147.285
X271.653Y-83.439
X272.186Y-138.928
X272.491Y-151.247
X272.542Y-82.58
X272.542Y-83.439
X273.99Y-151.247
X274.706Y-139.031
X275.514Y-151.247
X276.606Y-82.804
X276.606Y-83.693
X276.606Y-84.552
X276.987Y-151.273
X277.978Y-135.699
X279.019Y-139.03
X280.003Y-135.569
X281.813Y-88.011
X283.21Y-88.011
X284.607Y-88.011
X286.004Y-88.011
X287.274Y-88.011
X299.974Y-92.583
X299.974Y-99.06
X301.498Y-99.06
X304.927Y-88.646
X306.07Y-96.393
X306.07Y-99.441
X307.721Y-92.583
X308.737Y-105.283
X309.499Y-92.329
X309.753Y-88.519
X310.896Y-99.314
X312.039Y-105.537
X312.547Y-102.616
X313.606Y-90.114
X313.817Y-88.738
X317.119Y-103.886
X317.119Y-105.664
X317.881Y-89.535
X317.881Y-93.345
X318.897Y-87.884
X319.913Y-95.631
X321.183Y-105.156
X322.199Y-90.297
X322.326Y-92.075
X322.326Y-93.345
X323.342Y-88.646
X323.85Y-86.614
T2
X279.908Y-84.513
X279.908Y-88.013
X288.798Y-84.582
X288.798Y-88.082
T4
X241.554Y-98.714
X241.554Y-103.714
T5
X290.195Y-147.574
X292.735Y-147.574
X300.355Y-147.574
X302.895Y-147.574
X310.515Y-147.574
X313.055Y-147.574
X320.675Y-147.574
X323.215Y-147.574
T6
X299.974Y-84.582
X302.514Y-84.582
X325.12Y-95.758
X325.12Y-98.298
X325.12Y-100.838
X325.12Y-103.378
T7
X225.774Y-148.004
X225.774Y-156.204
X230.854Y-148.004
X230.854Y-156.204
T8
X238.561Y-83.407
X238.561Y-88.407
X243.561Y-83.407
X243.561Y-88.407
T9
X229.0Y-84.0
X229.0Y-142.0
X315.0Y-84.0
X315.0Y-142.0
T10
X288.795Y-156.214
X294.135Y-156.214
X298.955Y-156.214
X304.295Y-156.214
X309.115Y-156.214
X314.455Y-156.214
X319.275Y-156.214
X324.615Y-156.214
T11
X295.91Y-83.82
X306.578Y-83.82
T3
X241.75Y-149.175G85X241.75Y-150.975
G05
X241.75Y-155.635G85X241.75Y-156.435
G05
X256.25Y-149.175G85X256.25Y-150.975
G05
X256.25Y-155.635G85X256.25Y-156.435
G05
X265.75Y-149.175G85X265.75Y-150.975
G05
X265.75Y-155.635G85X265.75Y-156.435
G05
X280.25Y-149.175G85X280.25Y-150.975
G05
X280.25Y-155.635G85X280.25Y-156.435
G05
T0
M30
