%TF.GenerationSoftware,KiCad,Pcbnew,8.0.2-1*%
%TF.CreationDate,2024-09-28T15:44:50-07:00*%
%TF.ProjectId,TEE-CAN,5445452d-4341-44e2-9e6b-696361645f70,rev?*%
%TF.SameCoordinates,Original*%
%TF.FileFunction,Profile,NP*%
%FSLAX46Y46*%
G04 Gerber Fmt 4.6, Leading zero omitted, Abs format (unit mm)*
G04 Created by KiCad (PCBNEW 8.0.2-1) date 2024-09-28 15:44:50*
%MOMM*%
%LPD*%
G01*
G04 APERTURE LIST*
%TA.AperFunction,Profile*%
%ADD10C,0.050000*%
%TD*%
G04 APERTURE END LIST*
D10*
X140335000Y-104140000D02*
G75*
G02*
X139065000Y-102870000I0J1270000D01*
G01*
X140970000Y-71120000D02*
X140335000Y-71120000D01*
X140970000Y-104140000D02*
X140335000Y-104140000D01*
X154940000Y-105410000D02*
G75*
G02*
X156210000Y-104140000I1270000J0D01*
G01*
X142240000Y-68580000D02*
G75*
G02*
X154940000Y-68580000I6350000J0D01*
G01*
X156210000Y-71120000D02*
X156845000Y-71120000D01*
X139065000Y-72390000D02*
X139065000Y-102870000D01*
X154940000Y-68580000D02*
X154940000Y-69850000D01*
X142240000Y-69850000D02*
G75*
G02*
X140970000Y-71120000I-1270000J0D01*
G01*
X139065000Y-72390000D02*
G75*
G02*
X140335000Y-71120000I1270000J0D01*
G01*
X156210000Y-104140000D02*
X156845000Y-104140000D01*
X158115000Y-72390000D02*
X158115000Y-102870000D01*
X156210000Y-71120000D02*
G75*
G02*
X154940000Y-69850000I0J1270000D01*
G01*
X158115000Y-102870000D02*
G75*
G02*
X156845000Y-104140000I-1270000J0D01*
G01*
X142240000Y-68580000D02*
X142240000Y-69850000D01*
X140970000Y-104140000D02*
G75*
G02*
X142240000Y-105410000I0J-1270000D01*
G01*
X154940000Y-106680000D02*
X154940000Y-105410000D01*
X156845000Y-71120000D02*
G75*
G02*
X158115000Y-72390000I0J-1270000D01*
G01*
X142240000Y-106680000D02*
X142240000Y-105410000D01*
X154940000Y-106680000D02*
G75*
G02*
X142240000Y-106680000I-6350000J0D01*
G01*
M02*
