%TF.GenerationSoftware,KiCad,Pcbnew,7.0.9-7.0.9~ubuntu22.04.1*%
%TF.CreationDate,2023-12-27T17:21:17-08:00*%
%TF.ProjectId,NX-J401-Adapter,4e582d4a-3430-4312-9d41-646170746572,1*%
%TF.SameCoordinates,Original*%
%TF.FileFunction,Copper,L2,Inr*%
%TF.FilePolarity,Positive*%
%FSLAX46Y46*%
G04 Gerber Fmt 4.6, Leading zero omitted, Abs format (unit mm)*
G04 Created by KiCad (PCBNEW 7.0.9-7.0.9~ubuntu22.04.1) date 2023-12-27 17:21:17*
%MOMM*%
%LPD*%
G01*
G04 APERTURE LIST*
%ADD10C,0.300000*%
%TA.AperFunction,NonConductor*%
%ADD11C,0.300000*%
%TD*%
%TA.AperFunction,ComponentPad*%
%ADD12R,1.778000X1.778000*%
%TD*%
%TA.AperFunction,ComponentPad*%
%ADD13C,1.778000*%
%TD*%
%TA.AperFunction,ComponentPad*%
%ADD14R,2.000000X2.000000*%
%TD*%
%TA.AperFunction,ComponentPad*%
%ADD15C,2.000000*%
%TD*%
%TA.AperFunction,ComponentPad*%
%ADD16C,2.200000*%
%TD*%
%TA.AperFunction,ComponentPad*%
%ADD17R,1.600000X1.600000*%
%TD*%
%TA.AperFunction,ComponentPad*%
%ADD18C,1.600000*%
%TD*%
%TA.AperFunction,ComponentPad*%
%ADD19O,1.500000X3.300000*%
%TD*%
%TA.AperFunction,ComponentPad*%
%ADD20O,1.500000X2.300000*%
%TD*%
%TA.AperFunction,ComponentPad*%
%ADD21C,1.701800*%
%TD*%
%TA.AperFunction,ComponentPad*%
%ADD22R,1.905000X1.600200*%
%TD*%
%TA.AperFunction,ComponentPad*%
%ADD23O,1.905000X1.600200*%
%TD*%
%TA.AperFunction,ViaPad*%
%ADD24C,0.812800*%
%TD*%
G04 APERTURE END LIST*
D10*
D11*
G36*
X359350399Y-95029267D02*
G01*
X359350399Y-96852741D01*
X358975195Y-96852741D01*
X358975195Y-95029267D01*
X359350399Y-95029267D01*
G37*
G36*
X359708667Y-95502180D02*
G01*
X360059118Y-95502180D01*
X360059118Y-95697165D01*
X360077698Y-95670819D01*
X360097177Y-95646173D01*
X360117555Y-95623226D01*
X360138832Y-95601979D01*
X360161008Y-95582432D01*
X360184084Y-95564585D01*
X360208058Y-95548438D01*
X360232932Y-95533990D01*
X360258704Y-95521242D01*
X360285376Y-95510194D01*
X360312946Y-95500845D01*
X360341416Y-95493196D01*
X360370785Y-95487247D01*
X360401053Y-95482998D01*
X360432220Y-95480448D01*
X360464286Y-95479598D01*
X360490779Y-95480077D01*
X360516519Y-95481512D01*
X360541507Y-95483904D01*
X360565740Y-95487252D01*
X360589221Y-95491558D01*
X360611949Y-95496820D01*
X360633923Y-95503038D01*
X360655145Y-95510214D01*
X360675613Y-95518346D01*
X360695328Y-95527435D01*
X360714289Y-95537481D01*
X360732498Y-95548484D01*
X360749953Y-95560443D01*
X360766655Y-95573359D01*
X360782604Y-95587231D01*
X360797800Y-95602061D01*
X360812209Y-95617760D01*
X360825688Y-95634244D01*
X360838238Y-95651511D01*
X360849858Y-95669562D01*
X360860548Y-95688396D01*
X360870309Y-95708014D01*
X360879140Y-95728416D01*
X360887041Y-95749602D01*
X360894013Y-95771571D01*
X360900056Y-95794324D01*
X360905169Y-95817861D01*
X360909352Y-95842182D01*
X360912605Y-95867286D01*
X360914929Y-95893174D01*
X360916324Y-95919845D01*
X360916788Y-95947301D01*
X360916788Y-96852741D01*
X360566772Y-96852741D01*
X360566772Y-96019823D01*
X360565893Y-95990427D01*
X360563257Y-95962927D01*
X360558864Y-95937324D01*
X360552713Y-95913618D01*
X360544804Y-95891808D01*
X360535138Y-95871895D01*
X360523715Y-95853878D01*
X360510535Y-95837757D01*
X360495597Y-95823534D01*
X360478901Y-95811206D01*
X360460448Y-95800776D01*
X360440238Y-95792241D01*
X360418271Y-95785603D01*
X360394546Y-95780862D01*
X360369063Y-95778017D01*
X360341823Y-95777069D01*
X360318323Y-95777707D01*
X360295701Y-95779619D01*
X360273957Y-95782806D01*
X360253091Y-95787268D01*
X360233102Y-95793004D01*
X360213992Y-95800016D01*
X360195759Y-95808302D01*
X360178404Y-95817863D01*
X360161927Y-95828699D01*
X360146328Y-95840809D01*
X360136416Y-95849591D01*
X360122602Y-95863609D01*
X360110147Y-95878466D01*
X360099050Y-95894163D01*
X360089312Y-95910700D01*
X360080933Y-95928077D01*
X360073913Y-95946293D01*
X360068251Y-95965349D01*
X360063949Y-95985244D01*
X360061005Y-96005980D01*
X360059419Y-96027554D01*
X360059118Y-96042404D01*
X360059118Y-96852741D01*
X359708667Y-96852741D01*
X359708667Y-95502180D01*
G37*
G36*
X361666762Y-95629419D02*
G01*
X361241618Y-95629419D01*
X361241618Y-95397088D01*
X361270019Y-95396778D01*
X361297682Y-95395847D01*
X361324607Y-95394294D01*
X361350794Y-95392121D01*
X361376244Y-95389328D01*
X361400955Y-95385913D01*
X361424929Y-95381877D01*
X361448164Y-95377221D01*
X361470662Y-95371943D01*
X361492422Y-95366045D01*
X361513444Y-95359526D01*
X361533728Y-95352386D01*
X361553274Y-95344626D01*
X361572082Y-95336244D01*
X361590153Y-95327241D01*
X361607485Y-95317618D01*
X361624079Y-95307374D01*
X361639936Y-95296509D01*
X361655055Y-95285023D01*
X361669435Y-95272916D01*
X361683078Y-95260188D01*
X361695983Y-95246840D01*
X361708150Y-95232870D01*
X361719579Y-95218280D01*
X361730271Y-95203069D01*
X361740224Y-95187237D01*
X361749439Y-95170784D01*
X361757917Y-95153711D01*
X361765656Y-95136016D01*
X361772658Y-95117701D01*
X361778922Y-95098764D01*
X361784448Y-95079207D01*
X362016779Y-95079207D01*
X362016779Y-96852741D01*
X361666762Y-96852741D01*
X361666762Y-95629419D01*
G37*
G36*
X362954354Y-96487525D02*
G01*
X362954354Y-96852741D01*
X362579150Y-96852741D01*
X362579150Y-96487525D01*
X362954354Y-96487525D01*
G37*
G36*
X364414349Y-95647224D02*
G01*
X364409708Y-95627053D01*
X364404580Y-95607521D01*
X364398964Y-95588630D01*
X364392860Y-95570380D01*
X364386268Y-95552770D01*
X364379189Y-95535800D01*
X364371622Y-95519471D01*
X364363567Y-95503781D01*
X364345995Y-95474324D01*
X364326472Y-95447429D01*
X364304998Y-95423095D01*
X364281573Y-95401322D01*
X364256197Y-95382111D01*
X364228871Y-95365462D01*
X364199594Y-95351374D01*
X364168366Y-95339847D01*
X364135187Y-95330882D01*
X364117866Y-95327360D01*
X364100057Y-95324478D01*
X364081761Y-95322237D01*
X364062977Y-95320636D01*
X364043705Y-95319675D01*
X364023946Y-95319355D01*
X363996480Y-95320020D01*
X363969778Y-95322015D01*
X363943839Y-95325340D01*
X363918664Y-95329995D01*
X363894252Y-95335979D01*
X363870603Y-95343294D01*
X363847718Y-95351938D01*
X363825596Y-95361913D01*
X363804237Y-95373217D01*
X363783642Y-95385852D01*
X363763810Y-95399816D01*
X363744741Y-95415110D01*
X363726436Y-95431734D01*
X363708894Y-95449689D01*
X363692116Y-95468973D01*
X363676101Y-95489586D01*
X363660956Y-95511330D01*
X363646788Y-95534112D01*
X363633597Y-95557932D01*
X363621383Y-95582790D01*
X363610147Y-95608687D01*
X363599887Y-95635621D01*
X363590605Y-95663594D01*
X363582300Y-95692605D01*
X363574971Y-95722654D01*
X363568620Y-95753741D01*
X363563246Y-95785866D01*
X363558849Y-95819030D01*
X363555429Y-95853232D01*
X363554086Y-95870722D01*
X363552987Y-95888471D01*
X363552132Y-95906481D01*
X363551521Y-95924749D01*
X363551155Y-95943278D01*
X363551033Y-95962065D01*
X363551151Y-95980557D01*
X363551506Y-95998795D01*
X363552097Y-96016778D01*
X363552926Y-96034506D01*
X363553991Y-96051980D01*
X363556830Y-96086165D01*
X363560616Y-96119332D01*
X363565349Y-96151481D01*
X363571029Y-96182612D01*
X363577655Y-96212726D01*
X363585227Y-96241821D01*
X363593746Y-96269899D01*
X363603212Y-96296959D01*
X363613624Y-96323001D01*
X363624983Y-96348026D01*
X363637288Y-96372033D01*
X363650540Y-96395021D01*
X363664738Y-96416992D01*
X363672192Y-96427596D01*
X363687766Y-96447895D01*
X363704090Y-96466884D01*
X363721164Y-96484563D01*
X363738987Y-96500933D01*
X363757561Y-96515993D01*
X363776884Y-96529743D01*
X363796956Y-96542184D01*
X363817779Y-96553316D01*
X363839351Y-96563137D01*
X363861674Y-96571650D01*
X363884746Y-96578852D01*
X363908567Y-96584745D01*
X363933139Y-96589329D01*
X363958460Y-96592603D01*
X363984531Y-96594567D01*
X364011352Y-96595222D01*
X364032955Y-96594851D01*
X364054012Y-96593736D01*
X364074522Y-96591879D01*
X364094487Y-96589278D01*
X364113905Y-96585935D01*
X364132776Y-96581848D01*
X364151102Y-96577019D01*
X364168881Y-96571446D01*
X364186115Y-96565131D01*
X364202801Y-96558072D01*
X364218942Y-96550271D01*
X364234537Y-96541726D01*
X364249585Y-96532439D01*
X364264087Y-96522408D01*
X364278043Y-96511635D01*
X364291452Y-96500118D01*
X364304248Y-96487918D01*
X364316361Y-96475094D01*
X364327793Y-96461645D01*
X364338543Y-96447572D01*
X364348611Y-96432875D01*
X364357996Y-96417554D01*
X364366700Y-96401608D01*
X364374722Y-96385038D01*
X364382062Y-96367844D01*
X364388721Y-96350026D01*
X364394697Y-96331583D01*
X364399991Y-96312516D01*
X364404603Y-96292825D01*
X364408534Y-96272510D01*
X364411782Y-96251570D01*
X364414349Y-96230006D01*
X364779565Y-96230006D01*
X364778264Y-96249422D01*
X364776588Y-96268586D01*
X364774536Y-96287498D01*
X364772108Y-96306158D01*
X364769304Y-96324567D01*
X364766125Y-96342723D01*
X364762570Y-96360628D01*
X364758639Y-96378280D01*
X364754332Y-96395681D01*
X364749650Y-96412830D01*
X364744592Y-96429726D01*
X364739158Y-96446371D01*
X364733348Y-96462764D01*
X364720602Y-96494795D01*
X364706353Y-96525817D01*
X364690601Y-96555833D01*
X364673345Y-96584840D01*
X364654587Y-96612840D01*
X364634326Y-96639832D01*
X364612562Y-96665817D01*
X364589295Y-96690794D01*
X364564525Y-96714763D01*
X364551576Y-96726370D01*
X364538339Y-96737671D01*
X364524847Y-96748614D01*
X364497097Y-96769423D01*
X364468325Y-96788797D01*
X364453556Y-96797946D01*
X364438532Y-96806736D01*
X364423253Y-96815167D01*
X364407718Y-96823239D01*
X364391928Y-96830953D01*
X364375883Y-96838308D01*
X364359582Y-96845304D01*
X364343026Y-96851942D01*
X364326215Y-96858220D01*
X364309149Y-96864140D01*
X364291827Y-96869701D01*
X364274250Y-96874903D01*
X364256417Y-96879747D01*
X364238330Y-96884231D01*
X364219987Y-96888357D01*
X364201388Y-96892124D01*
X364182535Y-96895533D01*
X364163426Y-96898582D01*
X364144062Y-96901273D01*
X364124442Y-96903605D01*
X364104568Y-96905579D01*
X364084437Y-96907193D01*
X364064052Y-96908449D01*
X364043411Y-96909346D01*
X364022515Y-96909884D01*
X364001364Y-96910063D01*
X363977769Y-96909813D01*
X363954481Y-96909062D01*
X363931499Y-96907811D01*
X363908825Y-96906060D01*
X363886458Y-96903808D01*
X363864398Y-96901056D01*
X363842645Y-96897803D01*
X363821199Y-96894050D01*
X363800060Y-96889796D01*
X363779228Y-96885042D01*
X363758703Y-96879788D01*
X363738485Y-96874033D01*
X363718574Y-96867778D01*
X363698971Y-96861022D01*
X363679674Y-96853766D01*
X363660684Y-96846009D01*
X363642002Y-96837752D01*
X363623626Y-96828995D01*
X363605557Y-96819737D01*
X363587796Y-96809979D01*
X363570341Y-96799720D01*
X363553194Y-96788961D01*
X363536353Y-96777702D01*
X363519820Y-96765942D01*
X363503594Y-96753682D01*
X363487674Y-96740921D01*
X363472062Y-96727660D01*
X363456757Y-96713898D01*
X363441758Y-96699636D01*
X363427067Y-96684874D01*
X363412683Y-96669611D01*
X363398606Y-96653848D01*
X363384900Y-96637654D01*
X363371629Y-96621101D01*
X363358793Y-96604189D01*
X363346393Y-96586917D01*
X363334427Y-96569285D01*
X363322897Y-96551294D01*
X363311801Y-96532943D01*
X363301141Y-96514232D01*
X363290916Y-96495162D01*
X363281126Y-96475732D01*
X363271771Y-96455942D01*
X363262851Y-96435793D01*
X363254366Y-96415284D01*
X363246317Y-96394416D01*
X363238702Y-96373188D01*
X363231523Y-96351600D01*
X363224779Y-96329653D01*
X363218470Y-96307346D01*
X363212596Y-96284679D01*
X363207157Y-96261653D01*
X363202153Y-96238267D01*
X363197584Y-96214522D01*
X363193451Y-96190417D01*
X363189752Y-96165952D01*
X363186489Y-96141128D01*
X363183661Y-96115944D01*
X363181268Y-96090401D01*
X363179310Y-96064497D01*
X363177787Y-96038235D01*
X363176699Y-96011612D01*
X363176046Y-95984630D01*
X363175829Y-95957289D01*
X363176048Y-95929785D01*
X363176707Y-95902644D01*
X363177806Y-95875865D01*
X363179343Y-95849449D01*
X363181321Y-95823394D01*
X363183737Y-95797702D01*
X363186593Y-95772372D01*
X363189888Y-95747403D01*
X363193622Y-95722798D01*
X363197796Y-95698554D01*
X363202410Y-95674672D01*
X363207462Y-95651153D01*
X363212954Y-95627996D01*
X363218885Y-95605201D01*
X363225256Y-95582768D01*
X363232066Y-95560697D01*
X363239315Y-95538989D01*
X363247004Y-95517642D01*
X363255132Y-95496658D01*
X363263699Y-95476036D01*
X363272706Y-95455776D01*
X363282152Y-95435879D01*
X363292037Y-95416343D01*
X363302362Y-95397170D01*
X363313126Y-95378359D01*
X363324330Y-95359910D01*
X363335973Y-95341823D01*
X363348055Y-95324098D01*
X363360577Y-95306736D01*
X363373537Y-95289735D01*
X363386938Y-95273097D01*
X363400777Y-95256821D01*
X363415020Y-95240978D01*
X363429574Y-95225637D01*
X363444441Y-95210800D01*
X363459620Y-95196465D01*
X363475111Y-95182634D01*
X363490914Y-95169305D01*
X363507029Y-95156479D01*
X363523457Y-95144157D01*
X363540196Y-95132337D01*
X363557248Y-95121020D01*
X363574612Y-95110207D01*
X363592288Y-95099896D01*
X363610276Y-95090088D01*
X363628576Y-95080783D01*
X363647188Y-95071981D01*
X363666112Y-95063682D01*
X363685349Y-95055886D01*
X363704898Y-95048593D01*
X363724758Y-95041803D01*
X363744931Y-95035516D01*
X363765416Y-95029732D01*
X363786214Y-95024451D01*
X363807323Y-95019673D01*
X363828744Y-95015398D01*
X363850478Y-95011625D01*
X363872523Y-95008356D01*
X363894881Y-95005590D01*
X363917551Y-95003326D01*
X363940533Y-95001566D01*
X363963827Y-95000309D01*
X363987434Y-94999554D01*
X364011352Y-94999303D01*
X364031405Y-94999471D01*
X364051230Y-94999978D01*
X364070828Y-95000822D01*
X364090198Y-95002003D01*
X364109341Y-95003522D01*
X364128257Y-95005379D01*
X364146946Y-95007573D01*
X364165407Y-95010105D01*
X364183641Y-95012974D01*
X364201648Y-95016181D01*
X364219427Y-95019726D01*
X364236979Y-95023608D01*
X364254304Y-95027828D01*
X364271402Y-95032385D01*
X364288272Y-95037280D01*
X364304915Y-95042512D01*
X364337518Y-95053989D01*
X364369213Y-95066817D01*
X364399998Y-95080995D01*
X364429874Y-95096523D01*
X364458841Y-95113402D01*
X364486898Y-95131631D01*
X364514046Y-95151210D01*
X364540285Y-95172140D01*
X364565413Y-95194199D01*
X364589120Y-95217276D01*
X364611405Y-95241371D01*
X364632268Y-95266483D01*
X364651710Y-95292614D01*
X364669730Y-95319762D01*
X364686329Y-95347928D01*
X364701506Y-95377112D01*
X364715262Y-95407314D01*
X364727596Y-95438533D01*
X364738508Y-95470771D01*
X364747999Y-95504026D01*
X364752212Y-95521035D01*
X364756069Y-95538299D01*
X364759570Y-95555817D01*
X364762717Y-95573589D01*
X364765508Y-95591616D01*
X364767943Y-95609898D01*
X364770023Y-95628434D01*
X364771748Y-95647224D01*
X364414349Y-95647224D01*
G37*
G36*
X366240862Y-96852741D02*
G01*
X365890846Y-96852741D01*
X365890846Y-96692497D01*
X365872266Y-96718843D01*
X365852787Y-96743489D01*
X365832409Y-96766436D01*
X365811131Y-96787682D01*
X365788955Y-96807229D01*
X365765880Y-96825077D01*
X365741905Y-96841224D01*
X365717032Y-96855672D01*
X365691259Y-96868420D01*
X365664588Y-96879468D01*
X365637017Y-96888817D01*
X365608547Y-96896465D01*
X365579178Y-96902415D01*
X365548911Y-96906664D01*
X365517744Y-96909213D01*
X365485678Y-96910063D01*
X365459183Y-96909585D01*
X365433437Y-96908150D01*
X365408442Y-96905758D01*
X365384196Y-96902409D01*
X365360700Y-96898104D01*
X365337953Y-96892842D01*
X365315957Y-96886623D01*
X365294710Y-96879448D01*
X365274213Y-96871315D01*
X365254466Y-96862226D01*
X365235469Y-96852181D01*
X365217221Y-96841178D01*
X365199724Y-96829219D01*
X365182976Y-96816303D01*
X365166977Y-96802430D01*
X365151729Y-96787601D01*
X365137320Y-96771901D01*
X365123841Y-96755418D01*
X365111291Y-96738151D01*
X365099672Y-96720100D01*
X365088981Y-96701266D01*
X365079220Y-96681647D01*
X365070389Y-96661245D01*
X365062488Y-96640060D01*
X365055516Y-96618090D01*
X365049473Y-96595337D01*
X365044361Y-96571801D01*
X365040177Y-96547480D01*
X365036924Y-96522376D01*
X365034600Y-96496488D01*
X365033205Y-96469817D01*
X365032741Y-96442361D01*
X365032741Y-95502180D01*
X365383191Y-95502180D01*
X365383191Y-96369839D01*
X365384070Y-96399235D01*
X365386706Y-96426735D01*
X365391100Y-96452337D01*
X365397251Y-96476044D01*
X365405159Y-96497854D01*
X365414825Y-96517767D01*
X365426248Y-96535784D01*
X365439429Y-96551904D01*
X365454367Y-96566128D01*
X365471062Y-96578455D01*
X365489515Y-96588886D01*
X365509725Y-96597421D01*
X365531693Y-96604058D01*
X365555418Y-96608800D01*
X365580900Y-96611644D01*
X365608140Y-96612593D01*
X365631636Y-96611955D01*
X365654247Y-96610043D01*
X365675972Y-96606856D01*
X365696811Y-96602394D01*
X365716765Y-96596658D01*
X365735834Y-96589646D01*
X365754017Y-96581360D01*
X365771315Y-96571799D01*
X365787727Y-96560963D01*
X365803253Y-96548853D01*
X365813113Y-96540071D01*
X365827004Y-96526053D01*
X365839530Y-96511195D01*
X365850689Y-96495498D01*
X365860481Y-96478962D01*
X365868907Y-96461585D01*
X365875967Y-96443369D01*
X365881661Y-96424313D01*
X365885988Y-96404417D01*
X365888948Y-96383682D01*
X365890542Y-96362107D01*
X365890846Y-96347257D01*
X365890846Y-95502180D01*
X366240862Y-95502180D01*
X366240862Y-96852741D01*
G37*
D10*
D11*
G36*
X309588069Y-84765363D02*
G01*
X309603549Y-84765573D01*
X309618849Y-84766205D01*
X309633969Y-84767256D01*
X309648908Y-84768729D01*
X309663667Y-84770622D01*
X309678246Y-84772937D01*
X309692644Y-84775671D01*
X309713904Y-84780563D01*
X309734757Y-84786400D01*
X309755205Y-84793185D01*
X309775248Y-84800916D01*
X309794884Y-84809594D01*
X309814115Y-84819219D01*
X309832788Y-84829502D01*
X309850888Y-84840295D01*
X309868414Y-84851596D01*
X309885367Y-84863406D01*
X309901748Y-84875724D01*
X309917555Y-84888552D01*
X309932788Y-84901888D01*
X309947449Y-84915733D01*
X309961537Y-84930086D01*
X309975051Y-84944949D01*
X309983742Y-84955140D01*
X309996497Y-84970631D01*
X310009073Y-84986193D01*
X310021468Y-85001827D01*
X310033682Y-85017530D01*
X310045716Y-85033305D01*
X310057570Y-85049151D01*
X310069244Y-85065067D01*
X310080737Y-85081055D01*
X310092050Y-85097113D01*
X310103182Y-85113242D01*
X310110504Y-85124034D01*
X310121451Y-85140191D01*
X310132585Y-85156238D01*
X310143905Y-85172176D01*
X310155412Y-85188004D01*
X310167106Y-85203723D01*
X310178987Y-85219333D01*
X310191054Y-85234833D01*
X310203309Y-85250223D01*
X310215750Y-85265504D01*
X310228377Y-85280676D01*
X310236900Y-85290729D01*
X310249774Y-85305364D01*
X310262707Y-85319181D01*
X310275697Y-85332180D01*
X310288746Y-85344362D01*
X310301852Y-85355725D01*
X310315017Y-85366271D01*
X310328239Y-85375998D01*
X310341520Y-85384908D01*
X310354858Y-85393000D01*
X310368254Y-85400274D01*
X310377217Y-85404669D01*
X310377217Y-84771591D01*
X310641000Y-84771591D01*
X310641000Y-85788618D01*
X310615504Y-85787049D01*
X310590676Y-85784995D01*
X310566514Y-85782458D01*
X310543020Y-85779436D01*
X310520192Y-85775932D01*
X310498032Y-85771943D01*
X310476538Y-85767471D01*
X310455711Y-85762515D01*
X310435551Y-85757075D01*
X310416058Y-85751152D01*
X310397231Y-85744745D01*
X310379072Y-85737854D01*
X310361579Y-85730480D01*
X310344754Y-85722621D01*
X310328595Y-85714279D01*
X310313103Y-85705454D01*
X310297855Y-85695884D01*
X310282518Y-85685401D01*
X310267092Y-85674005D01*
X310251577Y-85661696D01*
X310235974Y-85648474D01*
X310220282Y-85634339D01*
X310204501Y-85619291D01*
X310188631Y-85603330D01*
X310172673Y-85586456D01*
X310156626Y-85568668D01*
X310140490Y-85549968D01*
X310124266Y-85530355D01*
X310107952Y-85509828D01*
X310091550Y-85488389D01*
X310075060Y-85466036D01*
X310058480Y-85442771D01*
X310047760Y-85427513D01*
X310037215Y-85412606D01*
X310026846Y-85398049D01*
X310016652Y-85383843D01*
X310006633Y-85369988D01*
X309996789Y-85356483D01*
X309987121Y-85343329D01*
X309977628Y-85330526D01*
X309968311Y-85318073D01*
X309959168Y-85305971D01*
X309950201Y-85294219D01*
X309932793Y-85271768D01*
X309916087Y-85250719D01*
X309900081Y-85231073D01*
X309884777Y-85212829D01*
X309870174Y-85195988D01*
X309856272Y-85180549D01*
X309843071Y-85166513D01*
X309830572Y-85153879D01*
X309818774Y-85142647D01*
X309807677Y-85132819D01*
X309802392Y-85128430D01*
X309786369Y-85116318D01*
X309769625Y-85105396D01*
X309752160Y-85095667D01*
X309733973Y-85087128D01*
X309715065Y-85079781D01*
X309695436Y-85073626D01*
X309675086Y-85068662D01*
X309654014Y-85064889D01*
X309632221Y-85062307D01*
X309617292Y-85061248D01*
X309602042Y-85060719D01*
X309594297Y-85060653D01*
X309573761Y-85061145D01*
X309554055Y-85062623D01*
X309535181Y-85065087D01*
X309517137Y-85068535D01*
X309499924Y-85072969D01*
X309483542Y-85078388D01*
X309467990Y-85084793D01*
X309453269Y-85092183D01*
X309439379Y-85100558D01*
X309426320Y-85109919D01*
X309418076Y-85116706D01*
X309406552Y-85127531D01*
X309396162Y-85139122D01*
X309386906Y-85151479D01*
X309378783Y-85164603D01*
X309371793Y-85178493D01*
X309365937Y-85193149D01*
X309361215Y-85208572D01*
X309357625Y-85224761D01*
X309355170Y-85241716D01*
X309353847Y-85259438D01*
X309353595Y-85271678D01*
X309354210Y-85290242D01*
X309356056Y-85308013D01*
X309359131Y-85324992D01*
X309363436Y-85341179D01*
X309368971Y-85356574D01*
X309375736Y-85371176D01*
X309383731Y-85384987D01*
X309392957Y-85398005D01*
X309403412Y-85410232D01*
X309415097Y-85421666D01*
X309423571Y-85428849D01*
X309437103Y-85438866D01*
X309451594Y-85447898D01*
X309467044Y-85455945D01*
X309483454Y-85463007D01*
X309500824Y-85469083D01*
X309519153Y-85474173D01*
X309538442Y-85478279D01*
X309558691Y-85481399D01*
X309579899Y-85483534D01*
X309594570Y-85484410D01*
X309609669Y-85484848D01*
X309617378Y-85484903D01*
X309666104Y-85484903D01*
X309666104Y-85767736D01*
X309651035Y-85768702D01*
X309636371Y-85769265D01*
X309620664Y-85769539D01*
X309613348Y-85769568D01*
X309598681Y-85769441D01*
X309569958Y-85768428D01*
X309542052Y-85766401D01*
X309514961Y-85763362D01*
X309488685Y-85759309D01*
X309463226Y-85754242D01*
X309438582Y-85748163D01*
X309414754Y-85741071D01*
X309391742Y-85732965D01*
X309369546Y-85723846D01*
X309348165Y-85713713D01*
X309327600Y-85702568D01*
X309307850Y-85690409D01*
X309288917Y-85677237D01*
X309270799Y-85663052D01*
X309253497Y-85647854D01*
X309245152Y-85639875D01*
X309229180Y-85623262D01*
X309214240Y-85605849D01*
X309200329Y-85587633D01*
X309187449Y-85568617D01*
X309175600Y-85548799D01*
X309164780Y-85528179D01*
X309154992Y-85506758D01*
X309146233Y-85484536D01*
X309138505Y-85461512D01*
X309131808Y-85437687D01*
X309126140Y-85413061D01*
X309121504Y-85387633D01*
X309117897Y-85361403D01*
X309115321Y-85334373D01*
X309113776Y-85306540D01*
X309113260Y-85277907D01*
X309113386Y-85263234D01*
X309114391Y-85234462D01*
X309116400Y-85206458D01*
X309119414Y-85179222D01*
X309123432Y-85152752D01*
X309128456Y-85127049D01*
X309134484Y-85102113D01*
X309141516Y-85077945D01*
X309149553Y-85054543D01*
X309158595Y-85031909D01*
X309168641Y-85010041D01*
X309179692Y-84988941D01*
X309191748Y-84968608D01*
X309204808Y-84949042D01*
X309218873Y-84930243D01*
X309233943Y-84912211D01*
X309241854Y-84903482D01*
X309258276Y-84886757D01*
X309275394Y-84871111D01*
X309293207Y-84856543D01*
X309311715Y-84843055D01*
X309330920Y-84830646D01*
X309350819Y-84819316D01*
X309371414Y-84809065D01*
X309392705Y-84799893D01*
X309414691Y-84791800D01*
X309437373Y-84784786D01*
X309460750Y-84778851D01*
X309484823Y-84773996D01*
X309509591Y-84770219D01*
X309535055Y-84767521D01*
X309561214Y-84765903D01*
X309588069Y-84765363D01*
G37*
D12*
%TO.N,/CAN_FD_DC2_L*%
%TO.C,J10*%
X302895000Y-147574000D03*
D13*
%TO.N,/CAN_FD_DC2_H*%
X300355000Y-147574000D03*
%TD*%
D14*
%TO.N,/Power Supply/V_IN*%
%TO.C,C8*%
X241554000Y-103713677D03*
D15*
%TO.N,GND*%
X241554000Y-98713677D03*
%TD*%
D16*
%TO.N,/Power Supply/V_{BAT}*%
%TO.C,J13*%
X225774000Y-148004000D03*
X225774000Y-156204000D03*
%TO.N,GND*%
X230854000Y-148004000D03*
X230854000Y-156204000D03*
%TD*%
D17*
%TO.N,/Power Supply/+18V*%
%TO.C,C3*%
X279908000Y-88012651D03*
D18*
%TO.N,GND*%
X279908000Y-84512651D03*
%TD*%
D12*
%TO.N,/CAN_FD2_L*%
%TO.C,J9*%
X292735000Y-147574000D03*
D13*
%TO.N,/CAN_FD2_H*%
X290195000Y-147574000D03*
%TD*%
D17*
%TO.N,/Power Supply/+18V*%
%TO.C,C4*%
X288798000Y-88082000D03*
D18*
%TO.N,GND*%
X288798000Y-84582000D03*
%TD*%
D12*
%TO.N,/CAN_FD1_L*%
%TO.C,J11*%
X313055000Y-147574000D03*
D13*
%TO.N,/CAN_FD1_H*%
X310515000Y-147574000D03*
%TD*%
D19*
%TO.N,/MIPI-HDMI-1/GND_MIPI*%
%TO.C,J14*%
X256250000Y-150075000D03*
X241750000Y-150075000D03*
D20*
X256250000Y-156035000D03*
X241750000Y-156035000D03*
%TD*%
D21*
%TO.N,/Power Supply/+18V*%
%TO.C,J2*%
X238561113Y-88406784D03*
X243561113Y-88406784D03*
%TO.N,GND*%
X238561113Y-83406784D03*
X243561113Y-83406784D03*
%TD*%
D19*
%TO.N,/MIPI-HDMI-2/GND_MIPI*%
%TO.C,J15*%
X280250000Y-150075000D03*
X265750000Y-150075000D03*
D20*
X280250000Y-156035000D03*
X265750000Y-156035000D03*
%TD*%
D12*
%TO.N,/CAN_FD_DC1_L*%
%TO.C,J12*%
X323215000Y-147574000D03*
D13*
%TO.N,/CAN_FD_DC1_H*%
X320675000Y-147574000D03*
%TD*%
D22*
%TO.N,GND*%
%TO.C,J4*%
X325120000Y-103378000D03*
D23*
%TO.N,/FAN_PWR*%
X325120000Y-100838000D03*
%TO.N,/FAN_PWM*%
X325120000Y-98298000D03*
%TO.N,/FAN_TACH*%
X325120000Y-95758000D03*
%TD*%
D24*
%TO.N,GND*%
X317072448Y-105693329D03*
X276631400Y-84556600D03*
X235966000Y-157327600D03*
X224028000Y-136652000D03*
X309499000Y-92329000D03*
X233680000Y-137160000D03*
X276606000Y-82829400D03*
X306070000Y-99441000D03*
X222504000Y-136652000D03*
X234645200Y-96520000D03*
X320014600Y-95529400D03*
X317881000Y-93345000D03*
X301523400Y-99034600D03*
X308803000Y-105217000D03*
X276606000Y-83693000D03*
X323874000Y-86638000D03*
X306070000Y-96367600D03*
X264349000Y-88330000D03*
X253619000Y-84836000D03*
X261416800Y-83566000D03*
X257404907Y-88007497D03*
X322173600Y-90220800D03*
X259399000Y-88327000D03*
X310896000Y-99339400D03*
X235204000Y-137160000D03*
%TO.N,/Power Supply/V_{BAT}*%
X235204000Y-142748000D03*
X233680000Y-142748000D03*
X224028000Y-145034000D03*
X222504000Y-145034000D03*
X312547000Y-102616000D03*
%TO.N,/Power Supply/V_IN*%
X264414000Y-82677000D03*
%TO.N,/MIPI-HDMI-2/GND_MIPI*%
X265988800Y-143992600D03*
X269036800Y-143992600D03*
X272034000Y-144018000D03*
X269353863Y-151830101D03*
X277520400Y-151384000D03*
X275031200Y-140893800D03*
X274015200Y-151231600D03*
X272516600Y-151231600D03*
X275564600Y-151231600D03*
%TO.N,/MIPI-HDMI-2/PWR_DN_LS*%
X276504400Y-151714200D03*
X275996400Y-140462000D03*
%TO.N,/MIPI-HDMI-2/CAM_MCLK*%
X277600373Y-140153144D03*
X278282400Y-149275800D03*
%TO.N,/MIPI-HDMI-2/CAM_SCL*%
X279500000Y-140167456D03*
X271272000Y-151358600D03*
%TO.N,/MIPI-HDMI-2/CAM_SDA*%
X270200000Y-152900000D03*
X281000000Y-140900000D03*
%TO.N,/MIPI-HDMI-2/CAM_3V3*%
X268397697Y-151498766D03*
X281900000Y-139400000D03*
%TO.N,/MIPI-HDMI-1/GND_MIPI*%
X250012200Y-151231600D03*
X248513600Y-151231600D03*
X241985800Y-143992600D03*
X245350863Y-151830101D03*
X245033800Y-143992600D03*
X251561600Y-151231600D03*
X248031000Y-144018000D03*
X253517400Y-151384000D03*
X251028200Y-140893800D03*
%TO.N,/MIPI-HDMI-1/PWR_DN_LS*%
X251993400Y-140462000D03*
X252501400Y-151714200D03*
%TO.N,/MIPI-HDMI-1/CAM_MCLK*%
X253700000Y-140200000D03*
X254279400Y-149275800D03*
%TO.N,/MIPI-HDMI-1/CAM_SCL*%
X255500000Y-140200000D03*
X247269000Y-151358600D03*
%TO.N,/MIPI-HDMI-1/CAM_SDA*%
X246422546Y-152700000D03*
X257082013Y-141082013D03*
%TO.N,/MIPI-HDMI-1/CAM_3V3*%
X258000000Y-138900000D03*
X244394697Y-151498766D03*
%TO.N,Net-(D4-K-Pad3)*%
X312039000Y-105537000D03*
%TO.N,Net-(U1-I_{SEN})*%
X257429000Y-83566000D03*
%TO.N,Net-(U1-FA{slash}SD)*%
X266065000Y-83693000D03*
%TO.N,Net-(Q1-S-Pad1)*%
X271653000Y-83439000D03*
X272542000Y-82579897D03*
X272542000Y-83439000D03*
%TO.N,Net-(U1-FB)*%
X257648472Y-87025299D03*
%TO.N,+3V3*%
X317881000Y-89535000D03*
X309753000Y-88519000D03*
X318770000Y-87942412D03*
X299974000Y-99060000D03*
%TO.N,/FAN_PWM*%
X307640500Y-92502500D03*
%TO.N,/Fan Control/I2C_SDA*%
X313594929Y-90104797D03*
X323350000Y-88638000D03*
X322326000Y-93345000D03*
%TO.N,/Fan Control/I2C_SCL*%
X313817000Y-88738456D03*
X322326000Y-92075000D03*
%TO.N,Net-(U5-IN)*%
X317119000Y-103886000D03*
%TO.N,Net-(U5-GND)*%
X321183000Y-105156000D03*
%TD*%
%TA.AperFunction,Conductor*%
%TO.N,+3V3*%
G36*
X308553039Y-81299685D02*
G01*
X308598794Y-81352489D01*
X308610000Y-81404000D01*
X308610000Y-87884000D01*
X310896000Y-87884000D01*
X310896000Y-87500000D01*
X310915685Y-87432961D01*
X310968489Y-87387206D01*
X311020000Y-87376000D01*
X328552000Y-87376000D01*
X328619039Y-87395685D01*
X328664794Y-87448489D01*
X328676000Y-87500000D01*
X328676000Y-102111000D01*
X328656315Y-102178039D01*
X328603511Y-102223794D01*
X328552000Y-102235000D01*
X313152148Y-102235000D01*
X313085109Y-102215315D01*
X313050097Y-102181438D01*
X313045325Y-102174524D01*
X313031765Y-102162511D01*
X312925191Y-102068095D01*
X312783080Y-101993509D01*
X312783079Y-101993508D01*
X312783076Y-101993507D01*
X312627248Y-101955100D01*
X312466752Y-101955100D01*
X312310923Y-101993507D01*
X312168809Y-102068095D01*
X312048674Y-102174524D01*
X312043903Y-102181438D01*
X311989621Y-102225429D01*
X311941852Y-102235000D01*
X298701000Y-102235000D01*
X298633961Y-102215315D01*
X298588206Y-102162511D01*
X298577000Y-102111000D01*
X298577000Y-100838000D01*
X323907897Y-100838000D01*
X323928258Y-101044736D01*
X323988563Y-101243535D01*
X324086485Y-101426733D01*
X324086489Y-101426740D01*
X324218276Y-101587323D01*
X324378859Y-101719110D01*
X324378866Y-101719114D01*
X324562064Y-101817036D01*
X324562066Y-101817036D01*
X324562069Y-101817038D01*
X324760862Y-101877341D01*
X324760861Y-101877341D01*
X324799593Y-101881155D01*
X324915789Y-101892600D01*
X324915792Y-101892600D01*
X325324208Y-101892600D01*
X325324211Y-101892600D01*
X325479138Y-101877341D01*
X325677931Y-101817038D01*
X325861139Y-101719111D01*
X326021723Y-101587323D01*
X326153511Y-101426739D01*
X326251438Y-101243531D01*
X326311741Y-101044738D01*
X326332103Y-100838000D01*
X326311741Y-100631262D01*
X326251438Y-100432469D01*
X326251436Y-100432466D01*
X326251436Y-100432464D01*
X326153514Y-100249266D01*
X326153510Y-100249259D01*
X326021723Y-100088676D01*
X325861140Y-99956889D01*
X325861133Y-99956885D01*
X325677935Y-99858963D01*
X325578534Y-99828810D01*
X325479138Y-99798659D01*
X325479136Y-99798658D01*
X325479138Y-99798658D01*
X325359544Y-99786880D01*
X325324211Y-99783400D01*
X324915789Y-99783400D01*
X324877547Y-99787166D01*
X324760863Y-99798658D01*
X324562064Y-99858963D01*
X324378866Y-99956885D01*
X324378859Y-99956889D01*
X324218276Y-100088676D01*
X324086489Y-100249259D01*
X324086485Y-100249266D01*
X323988563Y-100432464D01*
X323928258Y-100631263D01*
X323907897Y-100838000D01*
X298577000Y-100838000D01*
X298577000Y-99034600D01*
X300857646Y-99034600D01*
X300876991Y-99193923D01*
X300876992Y-99193928D01*
X300910271Y-99281676D01*
X300933904Y-99343991D01*
X301025076Y-99476077D01*
X301145209Y-99582505D01*
X301287320Y-99657091D01*
X301287322Y-99657091D01*
X301287323Y-99657092D01*
X301443152Y-99695500D01*
X301603648Y-99695500D01*
X301759476Y-99657092D01*
X301759476Y-99657091D01*
X301759480Y-99657091D01*
X301901591Y-99582505D01*
X302021724Y-99476077D01*
X302045936Y-99441000D01*
X305404246Y-99441000D01*
X305423591Y-99600323D01*
X305423592Y-99600328D01*
X305480504Y-99750391D01*
X305513820Y-99798658D01*
X305555445Y-99858963D01*
X305571676Y-99882477D01*
X305691809Y-99988905D01*
X305833920Y-100063491D01*
X305833922Y-100063491D01*
X305833923Y-100063492D01*
X305989752Y-100101900D01*
X306150248Y-100101900D01*
X306306076Y-100063492D01*
X306306076Y-100063491D01*
X306306080Y-100063491D01*
X306448191Y-99988905D01*
X306568324Y-99882477D01*
X306659496Y-99750391D01*
X306716408Y-99600325D01*
X306735754Y-99441000D01*
X306723417Y-99339400D01*
X310230246Y-99339400D01*
X310249591Y-99498723D01*
X310249592Y-99498728D01*
X310306504Y-99648791D01*
X310397676Y-99780877D01*
X310517809Y-99887305D01*
X310659920Y-99961891D01*
X310659922Y-99961891D01*
X310659923Y-99961892D01*
X310815752Y-100000300D01*
X310976248Y-100000300D01*
X311132076Y-99961892D01*
X311132076Y-99961891D01*
X311132080Y-99961891D01*
X311274191Y-99887305D01*
X311394324Y-99780877D01*
X311485496Y-99648791D01*
X311542408Y-99498725D01*
X311561754Y-99339400D01*
X311542408Y-99180075D01*
X311542407Y-99180073D01*
X311542407Y-99180071D01*
X311487237Y-99034600D01*
X311485496Y-99030009D01*
X311394324Y-98897923D01*
X311274191Y-98791495D01*
X311132080Y-98716909D01*
X311132079Y-98716908D01*
X311132076Y-98716907D01*
X310976248Y-98678500D01*
X310815752Y-98678500D01*
X310659923Y-98716907D01*
X310517809Y-98791495D01*
X310397675Y-98897923D01*
X310306505Y-99030007D01*
X310306504Y-99030008D01*
X310249592Y-99180071D01*
X310249591Y-99180076D01*
X310230246Y-99339400D01*
X306723417Y-99339400D01*
X306716408Y-99281675D01*
X306716407Y-99281673D01*
X306716407Y-99281671D01*
X306677877Y-99180076D01*
X306659496Y-99131609D01*
X306568324Y-98999523D01*
X306448191Y-98893095D01*
X306306080Y-98818509D01*
X306306079Y-98818508D01*
X306306076Y-98818507D01*
X306150248Y-98780100D01*
X305989752Y-98780100D01*
X305833923Y-98818507D01*
X305691809Y-98893095D01*
X305571675Y-98999523D01*
X305480505Y-99131607D01*
X305480504Y-99131608D01*
X305423592Y-99281671D01*
X305423591Y-99281676D01*
X305404246Y-99441000D01*
X302045936Y-99441000D01*
X302112896Y-99343991D01*
X302169808Y-99193925D01*
X302189154Y-99034600D01*
X302169808Y-98875275D01*
X302169807Y-98875273D01*
X302169807Y-98875271D01*
X302133713Y-98780100D01*
X302112896Y-98725209D01*
X302021724Y-98593123D01*
X301901591Y-98486695D01*
X301759480Y-98412109D01*
X301759479Y-98412108D01*
X301759476Y-98412107D01*
X301603648Y-98373700D01*
X301443152Y-98373700D01*
X301287323Y-98412107D01*
X301145209Y-98486695D01*
X301025075Y-98593123D01*
X300933905Y-98725207D01*
X300933904Y-98725208D01*
X300876992Y-98875271D01*
X300876991Y-98875276D01*
X300857646Y-99034600D01*
X298577000Y-99034600D01*
X298577000Y-98298000D01*
X323907897Y-98298000D01*
X323928258Y-98504736D01*
X323988563Y-98703535D01*
X324086485Y-98886733D01*
X324086489Y-98886740D01*
X324218276Y-99047323D01*
X324378859Y-99179110D01*
X324378866Y-99179114D01*
X324562064Y-99277036D01*
X324562066Y-99277036D01*
X324562069Y-99277038D01*
X324760862Y-99337341D01*
X324760861Y-99337341D01*
X324781767Y-99339400D01*
X324915789Y-99352600D01*
X324915792Y-99352600D01*
X325324208Y-99352600D01*
X325324211Y-99352600D01*
X325479138Y-99337341D01*
X325677931Y-99277038D01*
X325861139Y-99179111D01*
X326021723Y-99047323D01*
X326153511Y-98886739D01*
X326251438Y-98703531D01*
X326311741Y-98504738D01*
X326332103Y-98298000D01*
X326311741Y-98091262D01*
X326251438Y-97892469D01*
X326251436Y-97892466D01*
X326251436Y-97892464D01*
X326153514Y-97709266D01*
X326153510Y-97709259D01*
X326021723Y-97548676D01*
X325861140Y-97416889D01*
X325861133Y-97416885D01*
X325677935Y-97318963D01*
X325578534Y-97288810D01*
X325479138Y-97258659D01*
X325479136Y-97258658D01*
X325479138Y-97258658D01*
X325359544Y-97246880D01*
X325324211Y-97243400D01*
X324915789Y-97243400D01*
X324877547Y-97247166D01*
X324760863Y-97258658D01*
X324562064Y-97318963D01*
X324378866Y-97416885D01*
X324378859Y-97416889D01*
X324218276Y-97548676D01*
X324086489Y-97709259D01*
X324086485Y-97709266D01*
X323988563Y-97892464D01*
X323928258Y-98091263D01*
X323907897Y-98298000D01*
X298577000Y-98298000D01*
X298577000Y-96367600D01*
X305404246Y-96367600D01*
X305423591Y-96526923D01*
X305423592Y-96526928D01*
X305466138Y-96639111D01*
X305480504Y-96676991D01*
X305571676Y-96809077D01*
X305691809Y-96915505D01*
X305833920Y-96990091D01*
X305833922Y-96990091D01*
X305833923Y-96990092D01*
X305989752Y-97028500D01*
X306150248Y-97028500D01*
X306306076Y-96990092D01*
X306306076Y-96990091D01*
X306306080Y-96990091D01*
X306448191Y-96915505D01*
X306568324Y-96809077D01*
X306659496Y-96676991D01*
X306716408Y-96526925D01*
X306735754Y-96367600D01*
X306716408Y-96208275D01*
X306716407Y-96208273D01*
X306716407Y-96208271D01*
X306666738Y-96077305D01*
X306659496Y-96058209D01*
X306568324Y-95926123D01*
X306448191Y-95819695D01*
X306306080Y-95745109D01*
X306306079Y-95745108D01*
X306306076Y-95745107D01*
X306150248Y-95706700D01*
X305989752Y-95706700D01*
X305833923Y-95745107D01*
X305691809Y-95819695D01*
X305571675Y-95926123D01*
X305480505Y-96058207D01*
X305480504Y-96058208D01*
X305423592Y-96208271D01*
X305423591Y-96208276D01*
X305404246Y-96367600D01*
X298577000Y-96367600D01*
X298577000Y-95529400D01*
X319348846Y-95529400D01*
X319368191Y-95688723D01*
X319368192Y-95688728D01*
X319425104Y-95838791D01*
X319425105Y-95838792D01*
X319512038Y-95964738D01*
X319516276Y-95970877D01*
X319636409Y-96077305D01*
X319778520Y-96151891D01*
X319778522Y-96151891D01*
X319778523Y-96151892D01*
X319934352Y-96190300D01*
X320094848Y-96190300D01*
X320250676Y-96151892D01*
X320250676Y-96151891D01*
X320250680Y-96151891D01*
X320392791Y-96077305D01*
X320512924Y-95970877D01*
X320604096Y-95838791D01*
X320634736Y-95758000D01*
X323907897Y-95758000D01*
X323928258Y-95964736D01*
X323988563Y-96163535D01*
X324086485Y-96346733D01*
X324086489Y-96346740D01*
X324218276Y-96507323D01*
X324378859Y-96639110D01*
X324378866Y-96639114D01*
X324562064Y-96737036D01*
X324562066Y-96737036D01*
X324562069Y-96737038D01*
X324760862Y-96797341D01*
X324760861Y-96797341D01*
X324799593Y-96801155D01*
X324915789Y-96812600D01*
X324915792Y-96812600D01*
X325324208Y-96812600D01*
X325324211Y-96812600D01*
X325479138Y-96797341D01*
X325677931Y-96737038D01*
X325861139Y-96639111D01*
X326021723Y-96507323D01*
X326153511Y-96346739D01*
X326251438Y-96163531D01*
X326311741Y-95964738D01*
X326332103Y-95758000D01*
X326311741Y-95551262D01*
X326251438Y-95352469D01*
X326251436Y-95352466D01*
X326251436Y-95352464D01*
X326153514Y-95169266D01*
X326153510Y-95169259D01*
X326021723Y-95008676D01*
X325861140Y-94876889D01*
X325861133Y-94876885D01*
X325677935Y-94778963D01*
X325578534Y-94748810D01*
X325479138Y-94718659D01*
X325479136Y-94718658D01*
X325479138Y-94718658D01*
X325359544Y-94706880D01*
X325324211Y-94703400D01*
X324915789Y-94703400D01*
X324877547Y-94707166D01*
X324760863Y-94718658D01*
X324562064Y-94778963D01*
X324378866Y-94876885D01*
X324378859Y-94876889D01*
X324218276Y-95008676D01*
X324086489Y-95169259D01*
X324086485Y-95169266D01*
X323988563Y-95352464D01*
X323928258Y-95551263D01*
X323907897Y-95758000D01*
X320634736Y-95758000D01*
X320661008Y-95688725D01*
X320680354Y-95529400D01*
X320661008Y-95370075D01*
X320661007Y-95370073D01*
X320661007Y-95370071D01*
X320635146Y-95301882D01*
X320604096Y-95220009D01*
X320512924Y-95087923D01*
X320392791Y-94981495D01*
X320250680Y-94906909D01*
X320250679Y-94906908D01*
X320250676Y-94906907D01*
X320094848Y-94868500D01*
X319934352Y-94868500D01*
X319778523Y-94906907D01*
X319636409Y-94981495D01*
X319516275Y-95087923D01*
X319425105Y-95220007D01*
X319425104Y-95220008D01*
X319368192Y-95370071D01*
X319368191Y-95370076D01*
X319348846Y-95529400D01*
X298577000Y-95529400D01*
X298577000Y-93345000D01*
X317215246Y-93345000D01*
X317234591Y-93504323D01*
X317234592Y-93504328D01*
X317291504Y-93654391D01*
X317382676Y-93786477D01*
X317502809Y-93892905D01*
X317644920Y-93967491D01*
X317644922Y-93967491D01*
X317644923Y-93967492D01*
X317800752Y-94005900D01*
X317961248Y-94005900D01*
X318117076Y-93967492D01*
X318117076Y-93967491D01*
X318117080Y-93967491D01*
X318259191Y-93892905D01*
X318379324Y-93786477D01*
X318470496Y-93654391D01*
X318527408Y-93504325D01*
X318546754Y-93345000D01*
X321660246Y-93345000D01*
X321679591Y-93504323D01*
X321679592Y-93504328D01*
X321736504Y-93654391D01*
X321827676Y-93786477D01*
X321947809Y-93892905D01*
X322089920Y-93967491D01*
X322089922Y-93967491D01*
X322089923Y-93967492D01*
X322245752Y-94005900D01*
X322406248Y-94005900D01*
X322562076Y-93967492D01*
X322562076Y-93967491D01*
X322562080Y-93967491D01*
X322704191Y-93892905D01*
X322824324Y-93786477D01*
X322915496Y-93654391D01*
X322972408Y-93504325D01*
X322991754Y-93345000D01*
X322972408Y-93185675D01*
X322972407Y-93185673D01*
X322972407Y-93185671D01*
X322921107Y-93050405D01*
X322915496Y-93035609D01*
X322824324Y-92903523D01*
X322710647Y-92802814D01*
X322673521Y-92743626D01*
X322674289Y-92673761D01*
X322710647Y-92617185D01*
X322824324Y-92516477D01*
X322915496Y-92384391D01*
X322972408Y-92234325D01*
X322991754Y-92075000D01*
X322972408Y-91915675D01*
X322972407Y-91915673D01*
X322972407Y-91915671D01*
X322921369Y-91781095D01*
X322915496Y-91765609D01*
X322824324Y-91633523D01*
X322704191Y-91527095D01*
X322562080Y-91452509D01*
X322562079Y-91452508D01*
X322562076Y-91452507D01*
X322406248Y-91414100D01*
X322245752Y-91414100D01*
X322089923Y-91452507D01*
X321947809Y-91527095D01*
X321827675Y-91633523D01*
X321736505Y-91765607D01*
X321736504Y-91765608D01*
X321679592Y-91915671D01*
X321679591Y-91915676D01*
X321660246Y-92075000D01*
X321679591Y-92234323D01*
X321679592Y-92234328D01*
X321715497Y-92329000D01*
X321736504Y-92384391D01*
X321827676Y-92516476D01*
X321827677Y-92516478D01*
X321941351Y-92617185D01*
X321978478Y-92676374D01*
X321977710Y-92746240D01*
X321941351Y-92802815D01*
X321827677Y-92903521D01*
X321736505Y-93035607D01*
X321736504Y-93035608D01*
X321679592Y-93185671D01*
X321679591Y-93185676D01*
X321660246Y-93345000D01*
X318546754Y-93345000D01*
X318527408Y-93185675D01*
X318527407Y-93185673D01*
X318527407Y-93185671D01*
X318476107Y-93050405D01*
X318470496Y-93035609D01*
X318379324Y-92903523D01*
X318259191Y-92797095D01*
X318117080Y-92722509D01*
X318117079Y-92722508D01*
X318117076Y-92722507D01*
X317961248Y-92684100D01*
X317800752Y-92684100D01*
X317644923Y-92722507D01*
X317502809Y-92797095D01*
X317382675Y-92903523D01*
X317291505Y-93035607D01*
X317291504Y-93035608D01*
X317234592Y-93185671D01*
X317234591Y-93185676D01*
X317215246Y-93345000D01*
X298577000Y-93345000D01*
X298577000Y-92502500D01*
X306974746Y-92502500D01*
X306994091Y-92661823D01*
X306994092Y-92661828D01*
X307035298Y-92770477D01*
X307051004Y-92811891D01*
X307142176Y-92943977D01*
X307262309Y-93050405D01*
X307404420Y-93124991D01*
X307404422Y-93124991D01*
X307404423Y-93124992D01*
X307560252Y-93163400D01*
X307720748Y-93163400D01*
X307876576Y-93124992D01*
X307876576Y-93124991D01*
X307876580Y-93124991D01*
X308018691Y-93050405D01*
X308138824Y-92943977D01*
X308229996Y-92811891D01*
X308286908Y-92661825D01*
X308306254Y-92502500D01*
X308286908Y-92343175D01*
X308286907Y-92343173D01*
X308286907Y-92343171D01*
X308281533Y-92329000D01*
X308833246Y-92329000D01*
X308852591Y-92488323D01*
X308852592Y-92488328D01*
X308901461Y-92617184D01*
X308909504Y-92638391D01*
X309000676Y-92770477D01*
X309120809Y-92876905D01*
X309262920Y-92951491D01*
X309262922Y-92951491D01*
X309262923Y-92951492D01*
X309418752Y-92989900D01*
X309579248Y-92989900D01*
X309735076Y-92951492D01*
X309735076Y-92951491D01*
X309735080Y-92951491D01*
X309877191Y-92876905D01*
X309997324Y-92770477D01*
X310088496Y-92638391D01*
X310145408Y-92488325D01*
X310164754Y-92329000D01*
X310145408Y-92169675D01*
X310145407Y-92169673D01*
X310145407Y-92169671D01*
X310104202Y-92061023D01*
X310088496Y-92019609D01*
X309997324Y-91887523D01*
X309877191Y-91781095D01*
X309735080Y-91706509D01*
X309735079Y-91706508D01*
X309735076Y-91706507D01*
X309579248Y-91668100D01*
X309418752Y-91668100D01*
X309262923Y-91706507D01*
X309120809Y-91781095D01*
X309000675Y-91887523D01*
X308909505Y-92019607D01*
X308909504Y-92019608D01*
X308852592Y-92169671D01*
X308852591Y-92169676D01*
X308833246Y-92329000D01*
X308281533Y-92329000D01*
X308245626Y-92234323D01*
X308229996Y-92193109D01*
X308138824Y-92061023D01*
X308018691Y-91954595D01*
X307876580Y-91880009D01*
X307876579Y-91880008D01*
X307876576Y-91880007D01*
X307720748Y-91841600D01*
X307560252Y-91841600D01*
X307404423Y-91880007D01*
X307262309Y-91954595D01*
X307142175Y-92061023D01*
X307051005Y-92193107D01*
X307051004Y-92193108D01*
X306994092Y-92343171D01*
X306994091Y-92343176D01*
X306974746Y-92502500D01*
X298577000Y-92502500D01*
X298577000Y-90104797D01*
X312929175Y-90104797D01*
X312948520Y-90264120D01*
X312948521Y-90264125D01*
X312992516Y-90380128D01*
X313005433Y-90414188D01*
X313096605Y-90546274D01*
X313216738Y-90652702D01*
X313358849Y-90727288D01*
X313358851Y-90727288D01*
X313358852Y-90727289D01*
X313514681Y-90765697D01*
X313675177Y-90765697D01*
X313831005Y-90727289D01*
X313831005Y-90727288D01*
X313831009Y-90727288D01*
X313973120Y-90652702D01*
X314093253Y-90546274D01*
X314184425Y-90414188D01*
X314241337Y-90264122D01*
X314246597Y-90220800D01*
X321507846Y-90220800D01*
X321527191Y-90380123D01*
X321527192Y-90380128D01*
X321584104Y-90530191D01*
X321675276Y-90662277D01*
X321795409Y-90768705D01*
X321937520Y-90843291D01*
X321937522Y-90843291D01*
X321937523Y-90843292D01*
X322093352Y-90881700D01*
X322253848Y-90881700D01*
X322409676Y-90843292D01*
X322409676Y-90843291D01*
X322409680Y-90843291D01*
X322551791Y-90768705D01*
X322671924Y-90662277D01*
X322763096Y-90530191D01*
X322820008Y-90380125D01*
X322839354Y-90220800D01*
X322820008Y-90061475D01*
X322820007Y-90061473D01*
X322820007Y-90061471D01*
X322794146Y-89993282D01*
X322763096Y-89911409D01*
X322671924Y-89779323D01*
X322551791Y-89672895D01*
X322409680Y-89598309D01*
X322409679Y-89598308D01*
X322409676Y-89598307D01*
X322253848Y-89559900D01*
X322093352Y-89559900D01*
X321937523Y-89598307D01*
X321795409Y-89672895D01*
X321675275Y-89779323D01*
X321584105Y-89911407D01*
X321584104Y-89911408D01*
X321527192Y-90061471D01*
X321527191Y-90061476D01*
X321507846Y-90220800D01*
X314246597Y-90220800D01*
X314260683Y-90104797D01*
X314241337Y-89945472D01*
X314241336Y-89945470D01*
X314241336Y-89945468D01*
X314215475Y-89877279D01*
X314184425Y-89795406D01*
X314093253Y-89663320D01*
X314093251Y-89663318D01*
X313994334Y-89575685D01*
X313957207Y-89516496D01*
X313957975Y-89446630D01*
X313996392Y-89388271D01*
X314046891Y-89362472D01*
X314053080Y-89360947D01*
X314195191Y-89286361D01*
X314315324Y-89179933D01*
X314406496Y-89047847D01*
X314463408Y-88897781D01*
X314482754Y-88738456D01*
X314470556Y-88638000D01*
X322684246Y-88638000D01*
X322703591Y-88797323D01*
X322703592Y-88797328D01*
X322760504Y-88947391D01*
X322851676Y-89079477D01*
X322971809Y-89185905D01*
X323113920Y-89260491D01*
X323113922Y-89260491D01*
X323113923Y-89260492D01*
X323269752Y-89298900D01*
X323430248Y-89298900D01*
X323586076Y-89260492D01*
X323586076Y-89260491D01*
X323586080Y-89260491D01*
X323728191Y-89185905D01*
X323848324Y-89079477D01*
X323939496Y-88947391D01*
X323996408Y-88797325D01*
X324015754Y-88638000D01*
X323996408Y-88478675D01*
X323996407Y-88478673D01*
X323996407Y-88478671D01*
X323970546Y-88410482D01*
X323939496Y-88328609D01*
X323848324Y-88196523D01*
X323728191Y-88090095D01*
X323586080Y-88015509D01*
X323586079Y-88015508D01*
X323586076Y-88015507D01*
X323430248Y-87977100D01*
X323269752Y-87977100D01*
X323113923Y-88015507D01*
X322971809Y-88090095D01*
X322851675Y-88196523D01*
X322760505Y-88328607D01*
X322760504Y-88328608D01*
X322703592Y-88478671D01*
X322703591Y-88478676D01*
X322684246Y-88638000D01*
X314470556Y-88638000D01*
X314463408Y-88579131D01*
X314463407Y-88579129D01*
X314463407Y-88579127D01*
X314425309Y-88478671D01*
X314406496Y-88429065D01*
X314315324Y-88296979D01*
X314195191Y-88190551D01*
X314053080Y-88115965D01*
X314053079Y-88115964D01*
X314053076Y-88115963D01*
X313897248Y-88077556D01*
X313736752Y-88077556D01*
X313580923Y-88115963D01*
X313438809Y-88190551D01*
X313318675Y-88296979D01*
X313227505Y-88429063D01*
X313227504Y-88429064D01*
X313170592Y-88579127D01*
X313170591Y-88579132D01*
X313151246Y-88738456D01*
X313170591Y-88897779D01*
X313170592Y-88897784D01*
X313227504Y-89047847D01*
X313318676Y-89179932D01*
X313318677Y-89179934D01*
X313417594Y-89267567D01*
X313454721Y-89326756D01*
X313453953Y-89396621D01*
X313415536Y-89454981D01*
X313365046Y-89480778D01*
X313358853Y-89482304D01*
X313216738Y-89556892D01*
X313096604Y-89663320D01*
X313005434Y-89795404D01*
X313005433Y-89795405D01*
X312948521Y-89945468D01*
X312948520Y-89945473D01*
X312929175Y-90104797D01*
X298577000Y-90104797D01*
X298577000Y-81404000D01*
X298596685Y-81336961D01*
X298649489Y-81291206D01*
X298701000Y-81280000D01*
X308486000Y-81280000D01*
X308553039Y-81299685D01*
G37*
%TD.AperFunction*%
%TD*%
%TA.AperFunction,Conductor*%
%TO.N,GND*%
G36*
X298260539Y-81299685D02*
G01*
X298306294Y-81352489D01*
X298317500Y-81404000D01*
X298317500Y-102111008D01*
X298323430Y-102166161D01*
X298334639Y-102217684D01*
X298334639Y-102217683D01*
X298341986Y-102244463D01*
X298386642Y-102322883D01*
X298392089Y-102332448D01*
X298437844Y-102385252D01*
X298471131Y-102417371D01*
X298560849Y-102464303D01*
X298627888Y-102483988D01*
X298627892Y-102483988D01*
X298627894Y-102483989D01*
X298639707Y-102485687D01*
X298701000Y-102494500D01*
X311757246Y-102494500D01*
X311824285Y-102514185D01*
X311870040Y-102566989D01*
X311879114Y-102608703D01*
X311880342Y-102608554D01*
X311900591Y-102775323D01*
X311900592Y-102775328D01*
X311937408Y-102872402D01*
X311957504Y-102925391D01*
X312048676Y-103057477D01*
X312168809Y-103163905D01*
X312310920Y-103238491D01*
X312310922Y-103238491D01*
X312310923Y-103238492D01*
X312466752Y-103276900D01*
X312627248Y-103276900D01*
X312783076Y-103238492D01*
X312783076Y-103238491D01*
X312783080Y-103238491D01*
X312925191Y-103163905D01*
X313045324Y-103057477D01*
X313136496Y-102925391D01*
X313193408Y-102775325D01*
X313212754Y-102616000D01*
X313212753Y-102615999D01*
X313213658Y-102608554D01*
X313215605Y-102608790D01*
X313232439Y-102551461D01*
X313285243Y-102505706D01*
X313336754Y-102494500D01*
X323662500Y-102494500D01*
X323729539Y-102514185D01*
X323775294Y-102566989D01*
X323786500Y-102618500D01*
X323786500Y-103124000D01*
X324630847Y-103124000D01*
X324630567Y-103124397D01*
X324580296Y-103265848D01*
X324570051Y-103415618D01*
X324600594Y-103562597D01*
X324636555Y-103632000D01*
X323786500Y-103632000D01*
X323786500Y-104214252D01*
X323797290Y-104288316D01*
X323853137Y-104402553D01*
X323943046Y-104492462D01*
X324057283Y-104548309D01*
X324131347Y-104559100D01*
X324866000Y-104559100D01*
X324866000Y-103862686D01*
X324900388Y-103883598D01*
X325044940Y-103924100D01*
X325157353Y-103924100D01*
X325268721Y-103908793D01*
X325374000Y-103863063D01*
X325374000Y-104559100D01*
X326108653Y-104559100D01*
X326182716Y-104548309D01*
X326296953Y-104492462D01*
X326386862Y-104402553D01*
X326442709Y-104288316D01*
X326453500Y-104214252D01*
X326453500Y-103632000D01*
X325609153Y-103632000D01*
X325609433Y-103631603D01*
X325659704Y-103490152D01*
X325669949Y-103340382D01*
X325639406Y-103193403D01*
X325603445Y-103124000D01*
X326453500Y-103124000D01*
X326453500Y-102618500D01*
X326473185Y-102551461D01*
X326525989Y-102505706D01*
X326577500Y-102494500D01*
X328552000Y-102494500D01*
X328619039Y-102514185D01*
X328664794Y-102566989D01*
X328676000Y-102618500D01*
X328676000Y-136131787D01*
X328673617Y-136155980D01*
X328661476Y-136217012D01*
X328642962Y-136261708D01*
X328615309Y-136303095D01*
X328581095Y-136337309D01*
X328539708Y-136364962D01*
X328495012Y-136383476D01*
X328446989Y-136393029D01*
X328433978Y-136395617D01*
X328409788Y-136398000D01*
X236728000Y-136398000D01*
X236728000Y-136651995D01*
X236728000Y-157721787D01*
X236725617Y-157745980D01*
X236713476Y-157807012D01*
X236694962Y-157851708D01*
X236667309Y-157893095D01*
X236633095Y-157927309D01*
X236591708Y-157954962D01*
X236547012Y-157973476D01*
X236498989Y-157983029D01*
X236485978Y-157985617D01*
X236461788Y-157988000D01*
X221246212Y-157988000D01*
X221222021Y-157985617D01*
X221205690Y-157982368D01*
X221160987Y-157973476D01*
X221116291Y-157954962D01*
X221074904Y-157927309D01*
X221040691Y-157893096D01*
X221013037Y-157851708D01*
X220994523Y-157807010D01*
X220982383Y-157745978D01*
X220980000Y-157721787D01*
X220980000Y-156204005D01*
X224414858Y-156204005D01*
X224433394Y-156427703D01*
X224488499Y-156645311D01*
X224578670Y-156850881D01*
X224618138Y-156911290D01*
X224701446Y-157038802D01*
X224853478Y-157203953D01*
X224853481Y-157203955D01*
X224853484Y-157203958D01*
X225030611Y-157341822D01*
X225030617Y-157341826D01*
X225030620Y-157341828D01*
X225104537Y-157381830D01*
X225226974Y-157448090D01*
X225228039Y-157448666D01*
X225440350Y-157521553D01*
X225661763Y-157558500D01*
X225886237Y-157558500D01*
X226107650Y-157521553D01*
X226319961Y-157448666D01*
X226517380Y-157341828D01*
X226694522Y-157203953D01*
X226846554Y-157038802D01*
X226969330Y-156850880D01*
X227059500Y-156645313D01*
X227114605Y-156427707D01*
X227130003Y-156241886D01*
X227133142Y-156204005D01*
X229367924Y-156204005D01*
X229388190Y-156448591D01*
X229388192Y-156448603D01*
X229448443Y-156686526D01*
X229547033Y-156911290D01*
X229642055Y-157056732D01*
X230327097Y-156371691D01*
X230330884Y-156389915D01*
X230400442Y-156524156D01*
X230503638Y-156634652D01*
X230632819Y-156713209D01*
X230688421Y-156728788D01*
X230000663Y-157416546D01*
X230041194Y-157448093D01*
X230257048Y-157564908D01*
X230257053Y-157564910D01*
X230489186Y-157644601D01*
X230731282Y-157685000D01*
X230976718Y-157685000D01*
X231218813Y-157644601D01*
X231450946Y-157564910D01*
X231450951Y-157564908D01*
X231666808Y-157448091D01*
X231666809Y-157448090D01*
X231707335Y-157416547D01*
X231707336Y-157416545D01*
X231021625Y-156730834D01*
X231142458Y-156678349D01*
X231259739Y-156582934D01*
X231346928Y-156459415D01*
X231378838Y-156369628D01*
X232065943Y-157056733D01*
X232160964Y-156911295D01*
X232259556Y-156686526D01*
X232319807Y-156448603D01*
X232319809Y-156448591D01*
X232340076Y-156204005D01*
X232340076Y-156203994D01*
X232319809Y-155959408D01*
X232319807Y-155959396D01*
X232259556Y-155721473D01*
X232160966Y-155496709D01*
X232065943Y-155351265D01*
X231380902Y-156036306D01*
X231377116Y-156018085D01*
X231307558Y-155883844D01*
X231204362Y-155773348D01*
X231075181Y-155694791D01*
X231019577Y-155679211D01*
X231707335Y-154991452D01*
X231707335Y-154991451D01*
X231666809Y-154959908D01*
X231450951Y-154843091D01*
X231450946Y-154843089D01*
X231218813Y-154763398D01*
X230976718Y-154723000D01*
X230731282Y-154723000D01*
X230489186Y-154763398D01*
X230257053Y-154843089D01*
X230257048Y-154843091D01*
X230041195Y-154959906D01*
X230000662Y-154991452D01*
X230686376Y-155677165D01*
X230565542Y-155729651D01*
X230448261Y-155825066D01*
X230361072Y-155948585D01*
X230329161Y-156038371D01*
X229642054Y-155351265D01*
X229547034Y-155496706D01*
X229448443Y-155721473D01*
X229388192Y-155959396D01*
X229388190Y-155959408D01*
X229367924Y-156203994D01*
X229367924Y-156204005D01*
X227133142Y-156204005D01*
X227133142Y-156203994D01*
X227120784Y-156054862D01*
X227114605Y-155980293D01*
X227059500Y-155762687D01*
X226969330Y-155557120D01*
X226929859Y-155496706D01*
X226887423Y-155431753D01*
X226846554Y-155369198D01*
X226694522Y-155204047D01*
X226694517Y-155204043D01*
X226694515Y-155204041D01*
X226517388Y-155066177D01*
X226517382Y-155066173D01*
X226319962Y-154959334D01*
X226319953Y-154959331D01*
X226107652Y-154886447D01*
X225886237Y-154849500D01*
X225661763Y-154849500D01*
X225440347Y-154886447D01*
X225228046Y-154959331D01*
X225228037Y-154959334D01*
X225030617Y-155066173D01*
X225030611Y-155066177D01*
X224853484Y-155204041D01*
X224853481Y-155204044D01*
X224701447Y-155369196D01*
X224701444Y-155369200D01*
X224578670Y-155557118D01*
X224488499Y-155762688D01*
X224433394Y-155980296D01*
X224414858Y-156203994D01*
X224414858Y-156204005D01*
X220980000Y-156204005D01*
X220980000Y-148004005D01*
X224414858Y-148004005D01*
X224433394Y-148227703D01*
X224488499Y-148445311D01*
X224578670Y-148650881D01*
X224698520Y-148834323D01*
X224701446Y-148838802D01*
X224853478Y-149003953D01*
X224853481Y-149003955D01*
X224853484Y-149003958D01*
X225030611Y-149141822D01*
X225030617Y-149141826D01*
X225030620Y-149141828D01*
X225168685Y-149216545D01*
X225226974Y-149248090D01*
X225228039Y-149248666D01*
X225440350Y-149321553D01*
X225661763Y-149358500D01*
X225886237Y-149358500D01*
X226107650Y-149321553D01*
X226319961Y-149248666D01*
X226517380Y-149141828D01*
X226540209Y-149124060D01*
X226606000Y-149072852D01*
X226694522Y-149003953D01*
X226846554Y-148838802D01*
X226969330Y-148650880D01*
X227059500Y-148445313D01*
X227114605Y-148227707D01*
X227133142Y-148004005D01*
X229367924Y-148004005D01*
X229388190Y-148248591D01*
X229388192Y-148248603D01*
X229448443Y-148486526D01*
X229547033Y-148711290D01*
X229642055Y-148856732D01*
X230327097Y-148171691D01*
X230330884Y-148189915D01*
X230400442Y-148324156D01*
X230503638Y-148434652D01*
X230632819Y-148513209D01*
X230688421Y-148528788D01*
X230000663Y-149216546D01*
X230041194Y-149248093D01*
X230257048Y-149364908D01*
X230257053Y-149364910D01*
X230489186Y-149444601D01*
X230731282Y-149485000D01*
X230976718Y-149485000D01*
X231218813Y-149444601D01*
X231450946Y-149364910D01*
X231450951Y-149364908D01*
X231666808Y-149248091D01*
X231666809Y-149248090D01*
X231707335Y-149216547D01*
X231707336Y-149216545D01*
X231021625Y-148530834D01*
X231142458Y-148478349D01*
X231259739Y-148382934D01*
X231346928Y-148259415D01*
X231378838Y-148169628D01*
X232065943Y-148856733D01*
X232160964Y-148711295D01*
X232259556Y-148486526D01*
X232319807Y-148248603D01*
X232319809Y-148248591D01*
X232340076Y-148004005D01*
X232340076Y-148003994D01*
X232319809Y-147759408D01*
X232319807Y-147759396D01*
X232259556Y-147521473D01*
X232160966Y-147296709D01*
X232065943Y-147151265D01*
X231380902Y-147836306D01*
X231377116Y-147818085D01*
X231307558Y-147683844D01*
X231204362Y-147573348D01*
X231075181Y-147494791D01*
X231019577Y-147479211D01*
X231707335Y-146791452D01*
X231707335Y-146791451D01*
X231666809Y-146759908D01*
X231450951Y-146643091D01*
X231450946Y-146643089D01*
X231218813Y-146563398D01*
X230976718Y-146523000D01*
X230731282Y-146523000D01*
X230489186Y-146563398D01*
X230257053Y-146643089D01*
X230257048Y-146643091D01*
X230041195Y-146759906D01*
X230000662Y-146791452D01*
X230686376Y-147477165D01*
X230565542Y-147529651D01*
X230448261Y-147625066D01*
X230361072Y-147748585D01*
X230329161Y-147838371D01*
X229642054Y-147151265D01*
X229547034Y-147296706D01*
X229448443Y-147521473D01*
X229388192Y-147759396D01*
X229388190Y-147759408D01*
X229367924Y-148003994D01*
X229367924Y-148004005D01*
X227133142Y-148004005D01*
X227133142Y-148004000D01*
X227123782Y-147891047D01*
X227120784Y-147854862D01*
X227114605Y-147780293D01*
X227059500Y-147562687D01*
X226969330Y-147357120D01*
X226929859Y-147296706D01*
X226846555Y-147169200D01*
X226846554Y-147169198D01*
X226694522Y-147004047D01*
X226694517Y-147004043D01*
X226694515Y-147004041D01*
X226517388Y-146866177D01*
X226517382Y-146866173D01*
X226319962Y-146759334D01*
X226319953Y-146759331D01*
X226107652Y-146686447D01*
X225886237Y-146649500D01*
X225661763Y-146649500D01*
X225440347Y-146686447D01*
X225228046Y-146759331D01*
X225228037Y-146759334D01*
X225030617Y-146866173D01*
X225030611Y-146866177D01*
X224853484Y-147004041D01*
X224853481Y-147004044D01*
X224701447Y-147169196D01*
X224701444Y-147169200D01*
X224578670Y-147357118D01*
X224488499Y-147562688D01*
X224433394Y-147780296D01*
X224414858Y-148003994D01*
X224414858Y-148004005D01*
X220980000Y-148004005D01*
X220980000Y-145034000D01*
X221838246Y-145034000D01*
X221857591Y-145193323D01*
X221857592Y-145193328D01*
X221914504Y-145343391D01*
X222005676Y-145475477D01*
X222125809Y-145581905D01*
X222267920Y-145656491D01*
X222267922Y-145656491D01*
X222267923Y-145656492D01*
X222423752Y-145694900D01*
X222584248Y-145694900D01*
X222740076Y-145656492D01*
X222740076Y-145656491D01*
X222740080Y-145656491D01*
X222882191Y-145581905D01*
X223002324Y-145475477D01*
X223093496Y-145343391D01*
X223150058Y-145194248D01*
X223192236Y-145138545D01*
X223257833Y-145114488D01*
X223326024Y-145129715D01*
X223375157Y-145179391D01*
X223381942Y-145194248D01*
X223438504Y-145343391D01*
X223529676Y-145475477D01*
X223649809Y-145581905D01*
X223791920Y-145656491D01*
X223791922Y-145656491D01*
X223791923Y-145656492D01*
X223947752Y-145694900D01*
X224108248Y-145694900D01*
X224264076Y-145656492D01*
X224264076Y-145656491D01*
X224264080Y-145656491D01*
X224406191Y-145581905D01*
X224526324Y-145475477D01*
X224617496Y-145343391D01*
X224674408Y-145193325D01*
X224693754Y-145034000D01*
X224674408Y-144874675D01*
X224674407Y-144874673D01*
X224674407Y-144874671D01*
X224648546Y-144806482D01*
X224617496Y-144724609D01*
X224526324Y-144592523D01*
X224406191Y-144486095D01*
X224264080Y-144411509D01*
X224264079Y-144411508D01*
X224264076Y-144411507D01*
X224108248Y-144373100D01*
X223947752Y-144373100D01*
X223791923Y-144411507D01*
X223649809Y-144486095D01*
X223529675Y-144592523D01*
X223438505Y-144724607D01*
X223438504Y-144724608D01*
X223381942Y-144873751D01*
X223339764Y-144929454D01*
X223274166Y-144953511D01*
X223205976Y-144938284D01*
X223156843Y-144888608D01*
X223150058Y-144873751D01*
X223127111Y-144813245D01*
X223093496Y-144724609D01*
X223002324Y-144592523D01*
X222882191Y-144486095D01*
X222740080Y-144411509D01*
X222740079Y-144411508D01*
X222740076Y-144411507D01*
X222584248Y-144373100D01*
X222423752Y-144373100D01*
X222267923Y-144411507D01*
X222125809Y-144486095D01*
X222005675Y-144592523D01*
X221914505Y-144724607D01*
X221914504Y-144724608D01*
X221857592Y-144874671D01*
X221857591Y-144874676D01*
X221838246Y-145034000D01*
X220980000Y-145034000D01*
X220980000Y-143200000D01*
X226000000Y-143200000D01*
X227800000Y-145000000D01*
X230200000Y-145000000D01*
X232000000Y-143200000D01*
X232000000Y-142748000D01*
X233014246Y-142748000D01*
X233033591Y-142907323D01*
X233033592Y-142907328D01*
X233090504Y-143057391D01*
X233181676Y-143189477D01*
X233301809Y-143295905D01*
X233443920Y-143370491D01*
X233443922Y-143370491D01*
X233443923Y-143370492D01*
X233599752Y-143408900D01*
X233760248Y-143408900D01*
X233916076Y-143370492D01*
X233916076Y-143370491D01*
X233916080Y-143370491D01*
X234058191Y-143295905D01*
X234178324Y-143189477D01*
X234269496Y-143057391D01*
X234326058Y-142908248D01*
X234368236Y-142852545D01*
X234433833Y-142828488D01*
X234502024Y-142843715D01*
X234551157Y-142893391D01*
X234557942Y-142908248D01*
X234614504Y-143057391D01*
X234705676Y-143189477D01*
X234825809Y-143295905D01*
X234967920Y-143370491D01*
X234967922Y-143370491D01*
X234967923Y-143370492D01*
X235123752Y-143408900D01*
X235284248Y-143408900D01*
X235440076Y-143370492D01*
X235440076Y-143370491D01*
X235440080Y-143370491D01*
X235582191Y-143295905D01*
X235702324Y-143189477D01*
X235793496Y-143057391D01*
X235850408Y-142907325D01*
X235869754Y-142748000D01*
X235850408Y-142588675D01*
X235850407Y-142588673D01*
X235850407Y-142588671D01*
X235815303Y-142496111D01*
X235793496Y-142438609D01*
X235702324Y-142306523D01*
X235582191Y-142200095D01*
X235440080Y-142125509D01*
X235440079Y-142125508D01*
X235440076Y-142125507D01*
X235284248Y-142087100D01*
X235123752Y-142087100D01*
X234967923Y-142125507D01*
X234825809Y-142200095D01*
X234705675Y-142306523D01*
X234614505Y-142438607D01*
X234614504Y-142438608D01*
X234557942Y-142587751D01*
X234515764Y-142643454D01*
X234450166Y-142667511D01*
X234381976Y-142652284D01*
X234332843Y-142602608D01*
X234326058Y-142587751D01*
X234291303Y-142496111D01*
X234269496Y-142438609D01*
X234178324Y-142306523D01*
X234058191Y-142200095D01*
X233916080Y-142125509D01*
X233916079Y-142125508D01*
X233916076Y-142125507D01*
X233760248Y-142087100D01*
X233599752Y-142087100D01*
X233443923Y-142125507D01*
X233301809Y-142200095D01*
X233181675Y-142306523D01*
X233090505Y-142438607D01*
X233090504Y-142438608D01*
X233033592Y-142588671D01*
X233033591Y-142588676D01*
X233014246Y-142748000D01*
X232000000Y-142748000D01*
X232000000Y-140700000D01*
X230300000Y-139000000D01*
X227800000Y-139000000D01*
X226000000Y-140700000D01*
X226000000Y-143200000D01*
X220980000Y-143200000D01*
X220980000Y-105537000D01*
X311373246Y-105537000D01*
X311392591Y-105696323D01*
X311392592Y-105696328D01*
X311449504Y-105846391D01*
X311540676Y-105978477D01*
X311660809Y-106084905D01*
X311802920Y-106159491D01*
X311802922Y-106159491D01*
X311802923Y-106159492D01*
X311958752Y-106197900D01*
X312119248Y-106197900D01*
X312275076Y-106159492D01*
X312275076Y-106159491D01*
X312275080Y-106159491D01*
X312417191Y-106084905D01*
X312537324Y-105978477D01*
X312628496Y-105846391D01*
X312685408Y-105696325D01*
X312704754Y-105537000D01*
X312685408Y-105377675D01*
X312685407Y-105377673D01*
X312685407Y-105377671D01*
X312659546Y-105309482D01*
X312628496Y-105227609D01*
X312579068Y-105156000D01*
X320517246Y-105156000D01*
X320536591Y-105315323D01*
X320536592Y-105315328D01*
X320560238Y-105377676D01*
X320593504Y-105465391D01*
X320684676Y-105597477D01*
X320804809Y-105703905D01*
X320946920Y-105778491D01*
X320946922Y-105778491D01*
X320946923Y-105778492D01*
X321102752Y-105816900D01*
X321263248Y-105816900D01*
X321419076Y-105778492D01*
X321419076Y-105778491D01*
X321419080Y-105778491D01*
X321561191Y-105703905D01*
X321681324Y-105597477D01*
X321772496Y-105465391D01*
X321829408Y-105315325D01*
X321848754Y-105156000D01*
X321829408Y-104996675D01*
X321829407Y-104996673D01*
X321829407Y-104996671D01*
X321798246Y-104914507D01*
X321772496Y-104846609D01*
X321681324Y-104714523D01*
X321561191Y-104608095D01*
X321419080Y-104533509D01*
X321419079Y-104533508D01*
X321419076Y-104533507D01*
X321263248Y-104495100D01*
X321102752Y-104495100D01*
X320946923Y-104533507D01*
X320804809Y-104608095D01*
X320684675Y-104714523D01*
X320593505Y-104846607D01*
X320593504Y-104846608D01*
X320536592Y-104996671D01*
X320536591Y-104996676D01*
X320517246Y-105156000D01*
X312579068Y-105156000D01*
X312537324Y-105095523D01*
X312417191Y-104989095D01*
X312275080Y-104914509D01*
X312275079Y-104914508D01*
X312275076Y-104914507D01*
X312119248Y-104876100D01*
X311958752Y-104876100D01*
X311802923Y-104914507D01*
X311660809Y-104989095D01*
X311540675Y-105095523D01*
X311449505Y-105227607D01*
X311449504Y-105227608D01*
X311392592Y-105377671D01*
X311392591Y-105377676D01*
X311373246Y-105537000D01*
X220980000Y-105537000D01*
X220980000Y-104738740D01*
X240299500Y-104738740D01*
X240314266Y-104812978D01*
X240370515Y-104897161D01*
X240396476Y-104914507D01*
X240454699Y-104953411D01*
X240454702Y-104953411D01*
X240454703Y-104953412D01*
X240479666Y-104958377D01*
X240528933Y-104968177D01*
X242579066Y-104968176D01*
X242653301Y-104953411D01*
X242737484Y-104897161D01*
X242793734Y-104812978D01*
X242808500Y-104738744D01*
X242808500Y-103886000D01*
X316453246Y-103886000D01*
X316472591Y-104045323D01*
X316472592Y-104045328D01*
X316529504Y-104195391D01*
X316620676Y-104327477D01*
X316740809Y-104433905D01*
X316882920Y-104508491D01*
X316882922Y-104508491D01*
X316882923Y-104508492D01*
X317038752Y-104546900D01*
X317199248Y-104546900D01*
X317355076Y-104508492D01*
X317355076Y-104508491D01*
X317355080Y-104508491D01*
X317497191Y-104433905D01*
X317617324Y-104327477D01*
X317708496Y-104195391D01*
X317765408Y-104045325D01*
X317784754Y-103886000D01*
X317765408Y-103726675D01*
X317765407Y-103726673D01*
X317765407Y-103726671D01*
X317729352Y-103631603D01*
X317708496Y-103576609D01*
X317617324Y-103444523D01*
X317497191Y-103338095D01*
X317355080Y-103263509D01*
X317355079Y-103263508D01*
X317355076Y-103263507D01*
X317199248Y-103225100D01*
X317038752Y-103225100D01*
X316882923Y-103263507D01*
X316740809Y-103338095D01*
X316620675Y-103444523D01*
X316529505Y-103576607D01*
X316529504Y-103576608D01*
X316472592Y-103726671D01*
X316472591Y-103726676D01*
X316453246Y-103886000D01*
X242808500Y-103886000D01*
X242808499Y-102688611D01*
X242793734Y-102614376D01*
X242751695Y-102551461D01*
X242737484Y-102530192D01*
X242675190Y-102488569D01*
X242653301Y-102473943D01*
X242653299Y-102473942D01*
X242653296Y-102473941D01*
X242579069Y-102459177D01*
X240528936Y-102459177D01*
X240454698Y-102473943D01*
X240370515Y-102530192D01*
X240314266Y-102614376D01*
X240314264Y-102614380D01*
X240299500Y-102688605D01*
X240299500Y-104738740D01*
X220980000Y-104738740D01*
X220980000Y-98713682D01*
X240168267Y-98713682D01*
X240187166Y-98941757D01*
X240243349Y-99163622D01*
X240335282Y-99373209D01*
X240414304Y-99494162D01*
X241069638Y-98838827D01*
X241094507Y-98923521D01*
X241172239Y-99044475D01*
X241280900Y-99138629D01*
X241411685Y-99198357D01*
X241426412Y-99200474D01*
X240771920Y-99854964D01*
X240771921Y-99854965D01*
X240796074Y-99873764D01*
X240997355Y-99982693D01*
X240997364Y-99982696D01*
X241213819Y-100057006D01*
X241439568Y-100094677D01*
X241668432Y-100094677D01*
X241894180Y-100057006D01*
X242110635Y-99982696D01*
X242110643Y-99982693D01*
X242311926Y-99873764D01*
X242311929Y-99873762D01*
X242336077Y-99854965D01*
X242336077Y-99854964D01*
X241681587Y-99200474D01*
X241696315Y-99198357D01*
X241827100Y-99138629D01*
X241935761Y-99044475D01*
X242013493Y-98923521D01*
X242038360Y-98838828D01*
X242693694Y-99494162D01*
X242772717Y-99373210D01*
X242772718Y-99373208D01*
X242864650Y-99163622D01*
X242920833Y-98941757D01*
X242939733Y-98713682D01*
X242939733Y-98713671D01*
X242920833Y-98485596D01*
X242864650Y-98263731D01*
X242772717Y-98054144D01*
X242693694Y-97933190D01*
X242038360Y-98588525D01*
X242013493Y-98503833D01*
X241935761Y-98382879D01*
X241827100Y-98288725D01*
X241696315Y-98228997D01*
X241681587Y-98226879D01*
X242336077Y-97572388D01*
X242336077Y-97572387D01*
X242311925Y-97553589D01*
X242110644Y-97444660D01*
X242110635Y-97444657D01*
X241894180Y-97370347D01*
X241668432Y-97332677D01*
X241439568Y-97332677D01*
X241213819Y-97370347D01*
X240997364Y-97444657D01*
X240997355Y-97444660D01*
X240796078Y-97553587D01*
X240771920Y-97572388D01*
X241426412Y-98226879D01*
X241411685Y-98228997D01*
X241280900Y-98288725D01*
X241172239Y-98382879D01*
X241094507Y-98503833D01*
X241069639Y-98588526D01*
X240414303Y-97933190D01*
X240335283Y-98054141D01*
X240243349Y-98263731D01*
X240187166Y-98485596D01*
X240168267Y-98713671D01*
X240168267Y-98713682D01*
X220980000Y-98713682D01*
X220980000Y-88406784D01*
X237450977Y-88406784D01*
X237469878Y-88610770D01*
X237525941Y-88807808D01*
X237525946Y-88807821D01*
X237617256Y-88991195D01*
X237740714Y-89154680D01*
X237892106Y-89292691D01*
X237892108Y-89292693D01*
X238066279Y-89400535D01*
X238066285Y-89400538D01*
X238106753Y-89416215D01*
X238257310Y-89474541D01*
X238458683Y-89512184D01*
X238458685Y-89512184D01*
X238663541Y-89512184D01*
X238663543Y-89512184D01*
X238864916Y-89474541D01*
X239055943Y-89400537D01*
X239230119Y-89292692D01*
X239381513Y-89154678D01*
X239504970Y-88991195D01*
X239596284Y-88807811D01*
X239652347Y-88610771D01*
X239671249Y-88406784D01*
X242450977Y-88406784D01*
X242469878Y-88610770D01*
X242525941Y-88807808D01*
X242525946Y-88807821D01*
X242617256Y-88991195D01*
X242740714Y-89154680D01*
X242892106Y-89292691D01*
X242892108Y-89292693D01*
X243066279Y-89400535D01*
X243066285Y-89400538D01*
X243106753Y-89416215D01*
X243257310Y-89474541D01*
X243458683Y-89512184D01*
X243458685Y-89512184D01*
X243663541Y-89512184D01*
X243663543Y-89512184D01*
X243864916Y-89474541D01*
X244055943Y-89400537D01*
X244230119Y-89292692D01*
X244381513Y-89154678D01*
X244504970Y-88991195D01*
X244581394Y-88837714D01*
X278853500Y-88837714D01*
X278868266Y-88911952D01*
X278924515Y-88996135D01*
X278958234Y-89018665D01*
X279008699Y-89052385D01*
X279008702Y-89052385D01*
X279008703Y-89052386D01*
X279033666Y-89057351D01*
X279082933Y-89067151D01*
X280733066Y-89067150D01*
X280807301Y-89052385D01*
X280891484Y-88996135D01*
X280947734Y-88911952D01*
X280948706Y-88907063D01*
X287743500Y-88907063D01*
X287758266Y-88981301D01*
X287814515Y-89065484D01*
X287848234Y-89088014D01*
X287898699Y-89121734D01*
X287898702Y-89121734D01*
X287898703Y-89121735D01*
X287923666Y-89126700D01*
X287972933Y-89136500D01*
X289623066Y-89136499D01*
X289697301Y-89121734D01*
X289781484Y-89065484D01*
X289837734Y-88981301D01*
X289852500Y-88907067D01*
X289852499Y-87256934D01*
X289837734Y-87182699D01*
X289808127Y-87138390D01*
X289781484Y-87098515D01*
X289731019Y-87064796D01*
X289697301Y-87042266D01*
X289697299Y-87042265D01*
X289697296Y-87042264D01*
X289623069Y-87027500D01*
X287972936Y-87027500D01*
X287898698Y-87042266D01*
X287814515Y-87098515D01*
X287758266Y-87182699D01*
X287758264Y-87182703D01*
X287743500Y-87256928D01*
X287743500Y-88907063D01*
X280948706Y-88907063D01*
X280962500Y-88837718D01*
X280962499Y-87187585D01*
X280947734Y-87113350D01*
X280900237Y-87042266D01*
X280891484Y-87029166D01*
X280840350Y-86995000D01*
X280807301Y-86972917D01*
X280807299Y-86972916D01*
X280807296Y-86972915D01*
X280733069Y-86958151D01*
X279082936Y-86958151D01*
X279008698Y-86972917D01*
X278924515Y-87029166D01*
X278868266Y-87113350D01*
X278868264Y-87113354D01*
X278853500Y-87187579D01*
X278853500Y-88837714D01*
X244581394Y-88837714D01*
X244596284Y-88807811D01*
X244652347Y-88610771D01*
X244671249Y-88406784D01*
X244652347Y-88202797D01*
X244596284Y-88005757D01*
X244504970Y-87822373D01*
X244381513Y-87658890D01*
X244381511Y-87658887D01*
X244230119Y-87520876D01*
X244230117Y-87520874D01*
X244055946Y-87413032D01*
X244055940Y-87413029D01*
X243905386Y-87354705D01*
X243864916Y-87339027D01*
X243663543Y-87301384D01*
X243458683Y-87301384D01*
X243257310Y-87339027D01*
X243257307Y-87339027D01*
X243257307Y-87339028D01*
X243066285Y-87413029D01*
X243066279Y-87413032D01*
X242892108Y-87520874D01*
X242892106Y-87520876D01*
X242740714Y-87658887D01*
X242617256Y-87822372D01*
X242525946Y-88005746D01*
X242525941Y-88005759D01*
X242469878Y-88202797D01*
X242450977Y-88406783D01*
X242450977Y-88406784D01*
X239671249Y-88406784D01*
X239652347Y-88202797D01*
X239596284Y-88005757D01*
X239504970Y-87822373D01*
X239381513Y-87658890D01*
X239381511Y-87658887D01*
X239230119Y-87520876D01*
X239230117Y-87520874D01*
X239055946Y-87413032D01*
X239055940Y-87413029D01*
X238905386Y-87354705D01*
X238864916Y-87339027D01*
X238663543Y-87301384D01*
X238458683Y-87301384D01*
X238257310Y-87339027D01*
X238257307Y-87339027D01*
X238257307Y-87339028D01*
X238066285Y-87413029D01*
X238066279Y-87413032D01*
X237892108Y-87520874D01*
X237892106Y-87520876D01*
X237740714Y-87658887D01*
X237617256Y-87822372D01*
X237525946Y-88005746D01*
X237525941Y-88005759D01*
X237469878Y-88202797D01*
X237450977Y-88406783D01*
X237450977Y-88406784D01*
X220980000Y-88406784D01*
X220980000Y-88150212D01*
X220982383Y-88126021D01*
X220994523Y-88064989D01*
X221013037Y-88020291D01*
X221022747Y-88005759D01*
X221040693Y-87978900D01*
X221074900Y-87944693D01*
X221116292Y-87917036D01*
X221160989Y-87898523D01*
X221222021Y-87886383D01*
X221246212Y-87884000D01*
X232918002Y-87884000D01*
X233172000Y-87884000D01*
X233172000Y-87025299D01*
X256982718Y-87025299D01*
X257002063Y-87184622D01*
X257002064Y-87184627D01*
X257046345Y-87301384D01*
X257058976Y-87334690D01*
X257080960Y-87366539D01*
X257135004Y-87444837D01*
X257150148Y-87466776D01*
X257270281Y-87573204D01*
X257412392Y-87647790D01*
X257412394Y-87647790D01*
X257412395Y-87647791D01*
X257568224Y-87686199D01*
X257728720Y-87686199D01*
X257884548Y-87647791D01*
X257884548Y-87647790D01*
X257884552Y-87647790D01*
X258026663Y-87573204D01*
X258146796Y-87466776D01*
X258237968Y-87334690D01*
X258293757Y-87187585D01*
X258294879Y-87184627D01*
X258294880Y-87184622D01*
X258295113Y-87182703D01*
X258314226Y-87025299D01*
X258294880Y-86865974D01*
X258294879Y-86865972D01*
X258294879Y-86865970D01*
X258269018Y-86797781D01*
X258237968Y-86715908D01*
X258146796Y-86583822D01*
X258026663Y-86477394D01*
X257884552Y-86402808D01*
X257884551Y-86402807D01*
X257884548Y-86402806D01*
X257728720Y-86364399D01*
X257568224Y-86364399D01*
X257412395Y-86402806D01*
X257270281Y-86477394D01*
X257150147Y-86583822D01*
X257058977Y-86715906D01*
X257058976Y-86715907D01*
X257002064Y-86865970D01*
X257002063Y-86865975D01*
X256982718Y-87025299D01*
X233172000Y-87025299D01*
X233172000Y-83406784D01*
X237324507Y-83406784D01*
X237343293Y-83621513D01*
X237343295Y-83621523D01*
X237399080Y-83829720D01*
X237399084Y-83829729D01*
X237490179Y-84025084D01*
X237528654Y-84080032D01*
X237999054Y-83609631D01*
X238039722Y-83707809D01*
X238135399Y-83832498D01*
X238260088Y-83928175D01*
X238358264Y-83968841D01*
X237887863Y-84439241D01*
X237942812Y-84477717D01*
X238138167Y-84568812D01*
X238138176Y-84568816D01*
X238346373Y-84624601D01*
X238346383Y-84624603D01*
X238561112Y-84643390D01*
X238561114Y-84643390D01*
X238775842Y-84624603D01*
X238775852Y-84624601D01*
X238984049Y-84568816D01*
X238984058Y-84568812D01*
X239179413Y-84477717D01*
X239234361Y-84439241D01*
X238763961Y-83968841D01*
X238862138Y-83928175D01*
X238986827Y-83832498D01*
X239082504Y-83707810D01*
X239123171Y-83609632D01*
X239593570Y-84080031D01*
X239632046Y-84025084D01*
X239723141Y-83829729D01*
X239723145Y-83829720D01*
X239778930Y-83621523D01*
X239778932Y-83621513D01*
X239797719Y-83406784D01*
X242324507Y-83406784D01*
X242343293Y-83621513D01*
X242343295Y-83621523D01*
X242399080Y-83829720D01*
X242399084Y-83829729D01*
X242490179Y-84025084D01*
X242528654Y-84080032D01*
X242999054Y-83609631D01*
X243039722Y-83707809D01*
X243135399Y-83832498D01*
X243260088Y-83928175D01*
X243358264Y-83968841D01*
X242887863Y-84439241D01*
X242942812Y-84477717D01*
X243138167Y-84568812D01*
X243138176Y-84568816D01*
X243346373Y-84624601D01*
X243346383Y-84624603D01*
X243561112Y-84643390D01*
X243561114Y-84643390D01*
X243775842Y-84624603D01*
X243775852Y-84624601D01*
X243984049Y-84568816D01*
X243984058Y-84568812D01*
X244104496Y-84512651D01*
X278721940Y-84512651D01*
X278742134Y-84730588D01*
X278742135Y-84730591D01*
X278802029Y-84941100D01*
X278802034Y-84941111D01*
X278899584Y-85137020D01*
X278899588Y-85137027D01*
X278910269Y-85151169D01*
X279509272Y-84552167D01*
X279522835Y-84637799D01*
X279580359Y-84750696D01*
X279669955Y-84840292D01*
X279782852Y-84897816D01*
X279868482Y-84911378D01*
X279271967Y-85507892D01*
X279379326Y-85574367D01*
X279379328Y-85574368D01*
X279583411Y-85653430D01*
X279583421Y-85653433D01*
X279798567Y-85693651D01*
X280017433Y-85693651D01*
X280232578Y-85653433D01*
X280232588Y-85653430D01*
X280436671Y-85574368D01*
X280436675Y-85574366D01*
X280544030Y-85507893D01*
X280544030Y-85507892D01*
X279947517Y-84911378D01*
X280033148Y-84897816D01*
X280146045Y-84840292D01*
X280235641Y-84750696D01*
X280293165Y-84637799D01*
X280306727Y-84552168D01*
X280905728Y-85151170D01*
X280905730Y-85151169D01*
X280916405Y-85137036D01*
X280916408Y-85137031D01*
X281013967Y-84941106D01*
X281013970Y-84941100D01*
X281073864Y-84730591D01*
X281073865Y-84730588D01*
X281087634Y-84582000D01*
X287611940Y-84582000D01*
X287632134Y-84799937D01*
X287632135Y-84799940D01*
X287692029Y-85010449D01*
X287692034Y-85010460D01*
X287789584Y-85206369D01*
X287789588Y-85206376D01*
X287800269Y-85220518D01*
X288399272Y-84621516D01*
X288412835Y-84707148D01*
X288470359Y-84820045D01*
X288559955Y-84909641D01*
X288672852Y-84967165D01*
X288758482Y-84980727D01*
X288161967Y-85577241D01*
X288269326Y-85643716D01*
X288269328Y-85643717D01*
X288473411Y-85722779D01*
X288473421Y-85722782D01*
X288688567Y-85763000D01*
X288907433Y-85763000D01*
X289122578Y-85722782D01*
X289122588Y-85722779D01*
X289326671Y-85643717D01*
X289326675Y-85643715D01*
X289434030Y-85577242D01*
X289434030Y-85577241D01*
X288837517Y-84980727D01*
X288923148Y-84967165D01*
X289036045Y-84909641D01*
X289125641Y-84820045D01*
X289183165Y-84707148D01*
X289196727Y-84621517D01*
X289795728Y-85220519D01*
X289795730Y-85220518D01*
X289806405Y-85206385D01*
X289806408Y-85206380D01*
X289903967Y-85010455D01*
X289903970Y-85010449D01*
X289963864Y-84799940D01*
X289963865Y-84799937D01*
X289984060Y-84582000D01*
X289984060Y-84581999D01*
X289963865Y-84364062D01*
X289963864Y-84364059D01*
X289903970Y-84153550D01*
X289903967Y-84153544D01*
X289806408Y-83957619D01*
X289806406Y-83957616D01*
X289795730Y-83943480D01*
X289795729Y-83943479D01*
X289196727Y-84542481D01*
X289183165Y-84456852D01*
X289125641Y-84343955D01*
X289036045Y-84254359D01*
X288923148Y-84196835D01*
X288837517Y-84183272D01*
X289434031Y-83586757D01*
X289326673Y-83520283D01*
X289326671Y-83520282D01*
X289122588Y-83441220D01*
X289122578Y-83441217D01*
X288907433Y-83401000D01*
X288688567Y-83401000D01*
X288473421Y-83441217D01*
X288473420Y-83441217D01*
X288269330Y-83520281D01*
X288269324Y-83520284D01*
X288161968Y-83586756D01*
X288161967Y-83586757D01*
X288758483Y-84183272D01*
X288672852Y-84196835D01*
X288559955Y-84254359D01*
X288470359Y-84343955D01*
X288412835Y-84456852D01*
X288399272Y-84542482D01*
X287800269Y-83943479D01*
X287800268Y-83943479D01*
X287789592Y-83957616D01*
X287692032Y-84153544D01*
X287692029Y-84153550D01*
X287632135Y-84364059D01*
X287632134Y-84364062D01*
X287611940Y-84581999D01*
X287611940Y-84582000D01*
X281087634Y-84582000D01*
X281094060Y-84512651D01*
X281094060Y-84512650D01*
X281073865Y-84294713D01*
X281073864Y-84294710D01*
X281013970Y-84084201D01*
X281013967Y-84084195D01*
X280916408Y-83888270D01*
X280916406Y-83888267D01*
X280905730Y-83874131D01*
X280905729Y-83874130D01*
X280306727Y-84473132D01*
X280293165Y-84387503D01*
X280235641Y-84274606D01*
X280146045Y-84185010D01*
X280033148Y-84127486D01*
X279947517Y-84113923D01*
X280544031Y-83517408D01*
X280436673Y-83450934D01*
X280436671Y-83450933D01*
X280232588Y-83371871D01*
X280232578Y-83371868D01*
X280017433Y-83331651D01*
X279798567Y-83331651D01*
X279583421Y-83371868D01*
X279583420Y-83371868D01*
X279379330Y-83450932D01*
X279379324Y-83450935D01*
X279271968Y-83517407D01*
X279271967Y-83517408D01*
X279868483Y-84113923D01*
X279782852Y-84127486D01*
X279669955Y-84185010D01*
X279580359Y-84274606D01*
X279522835Y-84387503D01*
X279509272Y-84473133D01*
X278910269Y-83874130D01*
X278910268Y-83874130D01*
X278899592Y-83888267D01*
X278802032Y-84084195D01*
X278802029Y-84084201D01*
X278742135Y-84294710D01*
X278742134Y-84294713D01*
X278721940Y-84512650D01*
X278721940Y-84512651D01*
X244104496Y-84512651D01*
X244179413Y-84477717D01*
X244234361Y-84439241D01*
X243763961Y-83968841D01*
X243862138Y-83928175D01*
X243986827Y-83832498D01*
X244082504Y-83707810D01*
X244123171Y-83609632D01*
X244593570Y-84080031D01*
X244632046Y-84025084D01*
X244723141Y-83829729D01*
X244723145Y-83829720D01*
X244778930Y-83621523D01*
X244778932Y-83621513D01*
X244783789Y-83566000D01*
X256763246Y-83566000D01*
X256782591Y-83725323D01*
X256782592Y-83725328D01*
X256839504Y-83875391D01*
X256839505Y-83875392D01*
X256917453Y-83988321D01*
X256930676Y-84007477D01*
X257050809Y-84113905D01*
X257192920Y-84188491D01*
X257192922Y-84188491D01*
X257192923Y-84188492D01*
X257348752Y-84226900D01*
X257509248Y-84226900D01*
X257665076Y-84188492D01*
X257665076Y-84188491D01*
X257665080Y-84188491D01*
X257807191Y-84113905D01*
X257927324Y-84007477D01*
X258018496Y-83875391D01*
X258075408Y-83725325D01*
X258079333Y-83693000D01*
X265399246Y-83693000D01*
X265418591Y-83852323D01*
X265418592Y-83852328D01*
X265469631Y-83986905D01*
X265475504Y-84002391D01*
X265479014Y-84007476D01*
X265552475Y-84113904D01*
X265566676Y-84134477D01*
X265686809Y-84240905D01*
X265828920Y-84315491D01*
X265828922Y-84315491D01*
X265828923Y-84315492D01*
X265984752Y-84353900D01*
X266145248Y-84353900D01*
X266301076Y-84315492D01*
X266301076Y-84315491D01*
X266301080Y-84315491D01*
X266443191Y-84240905D01*
X266563324Y-84134477D01*
X266654496Y-84002391D01*
X266711408Y-83852325D01*
X266730754Y-83693000D01*
X266711408Y-83533675D01*
X266711407Y-83533673D01*
X266711407Y-83533671D01*
X266676345Y-83441220D01*
X266675503Y-83439000D01*
X270987246Y-83439000D01*
X271006591Y-83598323D01*
X271006592Y-83598328D01*
X271054756Y-83725325D01*
X271063504Y-83748391D01*
X271109090Y-83814434D01*
X271150295Y-83874131D01*
X271154676Y-83880477D01*
X271274809Y-83986905D01*
X271416920Y-84061491D01*
X271416922Y-84061491D01*
X271416923Y-84061492D01*
X271572752Y-84099900D01*
X271733248Y-84099900D01*
X271889076Y-84061492D01*
X271889076Y-84061491D01*
X271889080Y-84061491D01*
X272031191Y-83986905D01*
X272031192Y-83986903D01*
X272037832Y-83983419D01*
X272039079Y-83985796D01*
X272093394Y-83967874D01*
X272156748Y-83984218D01*
X272157168Y-83983419D01*
X272160570Y-83985204D01*
X272161048Y-83985328D01*
X272162129Y-83986022D01*
X272163805Y-83986901D01*
X272163809Y-83986905D01*
X272305920Y-84061491D01*
X272305922Y-84061491D01*
X272305923Y-84061492D01*
X272461752Y-84099900D01*
X272622248Y-84099900D01*
X272778076Y-84061492D01*
X272778076Y-84061491D01*
X272778080Y-84061491D01*
X272920191Y-83986905D01*
X273040324Y-83880477D01*
X273131496Y-83748391D01*
X273188408Y-83598325D01*
X273207754Y-83439000D01*
X273188408Y-83279675D01*
X273188407Y-83279673D01*
X273188407Y-83279671D01*
X273137369Y-83145095D01*
X273131496Y-83129609D01*
X273097175Y-83079887D01*
X273075293Y-83013534D01*
X273092758Y-82945882D01*
X273097177Y-82939007D01*
X273131496Y-82889288D01*
X273188408Y-82739222D01*
X273207754Y-82579897D01*
X273188408Y-82420572D01*
X273188407Y-82420570D01*
X273188407Y-82420568D01*
X273156277Y-82335850D01*
X273131496Y-82270506D01*
X273040324Y-82138420D01*
X272920191Y-82031992D01*
X272778080Y-81957406D01*
X272778079Y-81957405D01*
X272778076Y-81957404D01*
X272622248Y-81918997D01*
X272461752Y-81918997D01*
X272305923Y-81957404D01*
X272163809Y-82031992D01*
X272043675Y-82138420D01*
X271952505Y-82270504D01*
X271952504Y-82270505D01*
X271895592Y-82420568D01*
X271895591Y-82420573D01*
X271876246Y-82579897D01*
X271883812Y-82642213D01*
X271872351Y-82711137D01*
X271825447Y-82762922D01*
X271757991Y-82781129D01*
X271740714Y-82778838D01*
X271740694Y-82779004D01*
X271733248Y-82778100D01*
X271572752Y-82778100D01*
X271416923Y-82816507D01*
X271274809Y-82891095D01*
X271154675Y-82997523D01*
X271063505Y-83129607D01*
X271063504Y-83129608D01*
X271006592Y-83279671D01*
X271006591Y-83279676D01*
X270987246Y-83439000D01*
X266675503Y-83439000D01*
X266654496Y-83383609D01*
X266563324Y-83251523D01*
X266443191Y-83145095D01*
X266301080Y-83070509D01*
X266301079Y-83070508D01*
X266301076Y-83070507D01*
X266145248Y-83032100D01*
X265984752Y-83032100D01*
X265828923Y-83070507D01*
X265686809Y-83145095D01*
X265566675Y-83251523D01*
X265475505Y-83383607D01*
X265475504Y-83383608D01*
X265418592Y-83533671D01*
X265418591Y-83533676D01*
X265399246Y-83693000D01*
X258079333Y-83693000D01*
X258094754Y-83566000D01*
X258075408Y-83406675D01*
X258075407Y-83406673D01*
X258075407Y-83406671D01*
X258027244Y-83279676D01*
X258018496Y-83256609D01*
X257927324Y-83124523D01*
X257807191Y-83018095D01*
X257665080Y-82943509D01*
X257665079Y-82943508D01*
X257665076Y-82943507D01*
X257509248Y-82905100D01*
X257348752Y-82905100D01*
X257192923Y-82943507D01*
X257050809Y-83018095D01*
X256930675Y-83124523D01*
X256839505Y-83256607D01*
X256839504Y-83256608D01*
X256782592Y-83406671D01*
X256782591Y-83406676D01*
X256763246Y-83566000D01*
X244783789Y-83566000D01*
X244797719Y-83406784D01*
X244797719Y-83406783D01*
X244778932Y-83192054D01*
X244778930Y-83192044D01*
X244723145Y-82983847D01*
X244723141Y-82983838D01*
X244632046Y-82788483D01*
X244593570Y-82733534D01*
X244123170Y-83203934D01*
X244082504Y-83105759D01*
X243986827Y-82981070D01*
X243862138Y-82885393D01*
X243763961Y-82844726D01*
X243931687Y-82677000D01*
X263748246Y-82677000D01*
X263767591Y-82836323D01*
X263767592Y-82836328D01*
X263808240Y-82943507D01*
X263824504Y-82986391D01*
X263846388Y-83018095D01*
X263906896Y-83105758D01*
X263915676Y-83118477D01*
X264035809Y-83224905D01*
X264177920Y-83299491D01*
X264177922Y-83299491D01*
X264177923Y-83299492D01*
X264333752Y-83337900D01*
X264494248Y-83337900D01*
X264650076Y-83299492D01*
X264650076Y-83299491D01*
X264650080Y-83299491D01*
X264792191Y-83224905D01*
X264912324Y-83118477D01*
X265003496Y-82986391D01*
X265060408Y-82836325D01*
X265079754Y-82677000D01*
X265060408Y-82517675D01*
X265060407Y-82517673D01*
X265060407Y-82517671D01*
X265023582Y-82420572D01*
X265003496Y-82367609D01*
X264912324Y-82235523D01*
X264792191Y-82129095D01*
X264650080Y-82054509D01*
X264650079Y-82054508D01*
X264650076Y-82054507D01*
X264494248Y-82016100D01*
X264333752Y-82016100D01*
X264177923Y-82054507D01*
X264035809Y-82129095D01*
X263915675Y-82235523D01*
X263824505Y-82367607D01*
X263824504Y-82367608D01*
X263767592Y-82517671D01*
X263767591Y-82517676D01*
X263748246Y-82677000D01*
X243931687Y-82677000D01*
X244234361Y-82374325D01*
X244179413Y-82335850D01*
X243984058Y-82244755D01*
X243984049Y-82244751D01*
X243775852Y-82188966D01*
X243775842Y-82188964D01*
X243561114Y-82170178D01*
X243561112Y-82170178D01*
X243346383Y-82188964D01*
X243346373Y-82188966D01*
X243138176Y-82244751D01*
X243138167Y-82244754D01*
X242942811Y-82335851D01*
X242942809Y-82335852D01*
X242887864Y-82374325D01*
X242887863Y-82374325D01*
X243358264Y-82844726D01*
X243260088Y-82885393D01*
X243135399Y-82981070D01*
X243039722Y-83105758D01*
X242999055Y-83203935D01*
X242528654Y-82733534D01*
X242528654Y-82733535D01*
X242490181Y-82788480D01*
X242490180Y-82788482D01*
X242399083Y-82983838D01*
X242399080Y-82983847D01*
X242343295Y-83192044D01*
X242343293Y-83192054D01*
X242324507Y-83406783D01*
X242324507Y-83406784D01*
X239797719Y-83406784D01*
X239797719Y-83406783D01*
X239778932Y-83192054D01*
X239778930Y-83192044D01*
X239723145Y-82983847D01*
X239723141Y-82983838D01*
X239632046Y-82788483D01*
X239593570Y-82733534D01*
X239123170Y-83203934D01*
X239082504Y-83105759D01*
X238986827Y-82981070D01*
X238862138Y-82885393D01*
X238763961Y-82844726D01*
X239234361Y-82374325D01*
X239179413Y-82335850D01*
X238984058Y-82244755D01*
X238984049Y-82244751D01*
X238775852Y-82188966D01*
X238775842Y-82188964D01*
X238561114Y-82170178D01*
X238561112Y-82170178D01*
X238346383Y-82188964D01*
X238346373Y-82188966D01*
X238138176Y-82244751D01*
X238138167Y-82244754D01*
X237942811Y-82335851D01*
X237942809Y-82335852D01*
X237887864Y-82374325D01*
X237887863Y-82374325D01*
X238358264Y-82844726D01*
X238260088Y-82885393D01*
X238135399Y-82981070D01*
X238039722Y-83105758D01*
X237999055Y-83203935D01*
X237528654Y-82733534D01*
X237528654Y-82733535D01*
X237490181Y-82788480D01*
X237490180Y-82788482D01*
X237399083Y-82983838D01*
X237399080Y-82983847D01*
X237343295Y-83192044D01*
X237343293Y-83192054D01*
X237324507Y-83406783D01*
X237324507Y-83406784D01*
X233172000Y-83406784D01*
X233172000Y-81546212D01*
X233174383Y-81522021D01*
X233186523Y-81460989D01*
X233205037Y-81416291D01*
X233232693Y-81374900D01*
X233266900Y-81340693D01*
X233308292Y-81313036D01*
X233352989Y-81294523D01*
X233414021Y-81282383D01*
X233438212Y-81280000D01*
X298193500Y-81280000D01*
X298260539Y-81299685D01*
G37*
%TD.AperFunction*%
%TA.AperFunction,Conductor*%
G36*
X306133357Y-99043202D02*
G01*
X306198759Y-99059322D01*
X306226709Y-99069922D01*
X306286366Y-99101232D01*
X306310963Y-99118210D01*
X306361389Y-99162884D01*
X306381209Y-99185256D01*
X306419477Y-99240697D01*
X306433368Y-99267164D01*
X306457256Y-99330148D01*
X306464410Y-99359166D01*
X306465808Y-99370678D01*
X306472532Y-99426053D01*
X306472532Y-99455947D01*
X306464411Y-99522824D01*
X306457257Y-99551847D01*
X306433371Y-99614830D01*
X306419479Y-99641298D01*
X306381210Y-99696741D01*
X306361389Y-99719114D01*
X306310968Y-99763785D01*
X306286367Y-99780765D01*
X306226711Y-99812075D01*
X306198762Y-99822675D01*
X306133360Y-99838796D01*
X306103683Y-99842400D01*
X306036321Y-99842400D01*
X306006645Y-99838797D01*
X305941233Y-99822674D01*
X305913283Y-99812073D01*
X305853635Y-99780767D01*
X305829034Y-99763786D01*
X305778610Y-99719114D01*
X305758788Y-99696740D01*
X305734936Y-99662185D01*
X305720517Y-99641295D01*
X305706626Y-99614828D01*
X305699159Y-99595140D01*
X305682741Y-99551847D01*
X305675587Y-99522826D01*
X305674422Y-99513230D01*
X305667465Y-99455937D01*
X305667465Y-99426059D01*
X305675586Y-99359174D01*
X305682739Y-99330157D01*
X305682743Y-99330148D01*
X305706630Y-99267164D01*
X305720517Y-99240701D01*
X305758790Y-99185253D01*
X305778606Y-99162885D01*
X305829039Y-99118207D01*
X305853634Y-99101231D01*
X305913286Y-99069923D01*
X305941237Y-99059322D01*
X306006641Y-99043202D01*
X306036314Y-99039600D01*
X306103684Y-99039600D01*
X306133357Y-99043202D01*
G37*
%TD.AperFunction*%
%TA.AperFunction,Conductor*%
G36*
X310959357Y-98941602D02*
G01*
X311024759Y-98957722D01*
X311052709Y-98968322D01*
X311112366Y-98999632D01*
X311136963Y-99016610D01*
X311187389Y-99061284D01*
X311207208Y-99083653D01*
X311245479Y-99139100D01*
X311259369Y-99165565D01*
X311283257Y-99228553D01*
X311290411Y-99257576D01*
X311298532Y-99324451D01*
X311298532Y-99354347D01*
X311290411Y-99421224D01*
X311283257Y-99450247D01*
X311259371Y-99513230D01*
X311245479Y-99539698D01*
X311207210Y-99595141D01*
X311187389Y-99617514D01*
X311136968Y-99662185D01*
X311112367Y-99679165D01*
X311052711Y-99710475D01*
X311024762Y-99721075D01*
X310959360Y-99737196D01*
X310929683Y-99740800D01*
X310862321Y-99740800D01*
X310832645Y-99737197D01*
X310767233Y-99721074D01*
X310739283Y-99710473D01*
X310679635Y-99679167D01*
X310655034Y-99662186D01*
X310604610Y-99617514D01*
X310584788Y-99595140D01*
X310565653Y-99567419D01*
X310546517Y-99539695D01*
X310532626Y-99513228D01*
X310525395Y-99494162D01*
X310516820Y-99471551D01*
X310508741Y-99450247D01*
X310501587Y-99421226D01*
X310500986Y-99416274D01*
X310493465Y-99354337D01*
X310493465Y-99324459D01*
X310501586Y-99257574D01*
X310508739Y-99228557D01*
X310532630Y-99165564D01*
X310546517Y-99139101D01*
X310584790Y-99083653D01*
X310604606Y-99061285D01*
X310655039Y-99016607D01*
X310679634Y-98999631D01*
X310739286Y-98968323D01*
X310767237Y-98957722D01*
X310832641Y-98941602D01*
X310862314Y-98938000D01*
X310929684Y-98938000D01*
X310959357Y-98941602D01*
G37*
%TD.AperFunction*%
%TA.AperFunction,Conductor*%
G36*
X301586757Y-98636802D02*
G01*
X301652159Y-98652922D01*
X301680109Y-98663522D01*
X301739766Y-98694832D01*
X301764363Y-98711810D01*
X301814789Y-98756484D01*
X301834608Y-98778853D01*
X301872879Y-98834300D01*
X301886769Y-98860765D01*
X301910657Y-98923753D01*
X301917811Y-98952776D01*
X301925932Y-99019651D01*
X301925932Y-99049547D01*
X301917811Y-99116424D01*
X301910657Y-99145447D01*
X301886770Y-99208432D01*
X301872879Y-99234899D01*
X301834617Y-99290333D01*
X301814794Y-99312710D01*
X301764367Y-99357385D01*
X301739765Y-99374366D01*
X301680111Y-99405675D01*
X301652162Y-99416275D01*
X301586760Y-99432396D01*
X301557083Y-99436000D01*
X301489721Y-99436000D01*
X301460045Y-99432397D01*
X301394633Y-99416274D01*
X301366683Y-99405673D01*
X301307035Y-99374367D01*
X301282434Y-99357386D01*
X301232010Y-99312714D01*
X301212188Y-99290340D01*
X301179259Y-99242635D01*
X301173917Y-99234895D01*
X301160026Y-99208428D01*
X301136141Y-99145447D01*
X301128987Y-99116426D01*
X301128987Y-99116424D01*
X301120865Y-99049537D01*
X301120865Y-99019659D01*
X301128986Y-98952774D01*
X301136139Y-98923757D01*
X301160030Y-98860764D01*
X301173917Y-98834301D01*
X301212190Y-98778853D01*
X301232006Y-98756485D01*
X301282439Y-98711807D01*
X301307034Y-98694831D01*
X301366686Y-98663523D01*
X301394637Y-98652922D01*
X301460041Y-98636802D01*
X301489714Y-98633200D01*
X301557084Y-98633200D01*
X301586757Y-98636802D01*
G37*
%TD.AperFunction*%
%TA.AperFunction,Conductor*%
G36*
X306133357Y-95969802D02*
G01*
X306198759Y-95985922D01*
X306226709Y-95996522D01*
X306286366Y-96027832D01*
X306310963Y-96044810D01*
X306361389Y-96089484D01*
X306381208Y-96111853D01*
X306419479Y-96167300D01*
X306433369Y-96193765D01*
X306457257Y-96256753D01*
X306464411Y-96285776D01*
X306472532Y-96352651D01*
X306472532Y-96382547D01*
X306464411Y-96449424D01*
X306457257Y-96478447D01*
X306433371Y-96541430D01*
X306419479Y-96567898D01*
X306381210Y-96623341D01*
X306361389Y-96645714D01*
X306310968Y-96690385D01*
X306286367Y-96707365D01*
X306226711Y-96738675D01*
X306198762Y-96749275D01*
X306133360Y-96765396D01*
X306103683Y-96769000D01*
X306036321Y-96769000D01*
X306006645Y-96765397D01*
X305941233Y-96749274D01*
X305913283Y-96738673D01*
X305853635Y-96707367D01*
X305829034Y-96690386D01*
X305778610Y-96645714D01*
X305758788Y-96623340D01*
X305739653Y-96595619D01*
X305720517Y-96567895D01*
X305706626Y-96541428D01*
X305682741Y-96478447D01*
X305675587Y-96449426D01*
X305675587Y-96449424D01*
X305667465Y-96382537D01*
X305667465Y-96352659D01*
X305675586Y-96285774D01*
X305682739Y-96256757D01*
X305706630Y-96193764D01*
X305720517Y-96167301D01*
X305758790Y-96111853D01*
X305778606Y-96089485D01*
X305829039Y-96044807D01*
X305853634Y-96027831D01*
X305913286Y-95996523D01*
X305941237Y-95985922D01*
X306006641Y-95969802D01*
X306036314Y-95966200D01*
X306103684Y-95966200D01*
X306133357Y-95969802D01*
G37*
%TD.AperFunction*%
%TA.AperFunction,Conductor*%
G36*
X320077957Y-95131602D02*
G01*
X320143359Y-95147722D01*
X320171309Y-95158322D01*
X320230966Y-95189632D01*
X320255563Y-95206610D01*
X320305989Y-95251284D01*
X320325808Y-95273653D01*
X320364079Y-95329100D01*
X320377969Y-95355565D01*
X320401857Y-95418553D01*
X320409011Y-95447576D01*
X320417132Y-95514451D01*
X320417132Y-95544347D01*
X320409011Y-95611225D01*
X320401859Y-95640242D01*
X320396312Y-95654870D01*
X320392099Y-95665981D01*
X320377971Y-95703231D01*
X320377971Y-95703232D01*
X320364081Y-95729696D01*
X320344546Y-95757999D01*
X320325808Y-95785145D01*
X320305989Y-95807515D01*
X320255568Y-95852185D01*
X320230967Y-95869165D01*
X320171311Y-95900475D01*
X320143362Y-95911075D01*
X320077960Y-95927196D01*
X320048283Y-95930800D01*
X319980921Y-95930800D01*
X319951245Y-95927197D01*
X319885833Y-95911074D01*
X319857883Y-95900473D01*
X319798235Y-95869167D01*
X319773634Y-95852186D01*
X319723210Y-95807514D01*
X319703387Y-95785140D01*
X319684653Y-95757999D01*
X319665115Y-95729692D01*
X319651231Y-95703240D01*
X319627338Y-95640241D01*
X319620186Y-95611225D01*
X319612065Y-95544338D01*
X319612065Y-95514459D01*
X319620186Y-95447574D01*
X319627339Y-95418557D01*
X319651230Y-95355564D01*
X319665117Y-95329101D01*
X319703390Y-95273653D01*
X319723206Y-95251285D01*
X319773639Y-95206607D01*
X319798234Y-95189631D01*
X319857886Y-95158323D01*
X319885837Y-95147722D01*
X319951241Y-95131602D01*
X319980914Y-95128000D01*
X320048284Y-95128000D01*
X320077957Y-95131602D01*
G37*
%TD.AperFunction*%
%TA.AperFunction,Conductor*%
G36*
X317944357Y-92947202D02*
G01*
X318009759Y-92963322D01*
X318037709Y-92973922D01*
X318097366Y-93005232D01*
X318121963Y-93022210D01*
X318172389Y-93066884D01*
X318192208Y-93089253D01*
X318230479Y-93144700D01*
X318244369Y-93171165D01*
X318268257Y-93234153D01*
X318275411Y-93263176D01*
X318283532Y-93330051D01*
X318283532Y-93359947D01*
X318275411Y-93426824D01*
X318268257Y-93455847D01*
X318244371Y-93518830D01*
X318230479Y-93545298D01*
X318192210Y-93600741D01*
X318172389Y-93623114D01*
X318121968Y-93667785D01*
X318097367Y-93684765D01*
X318037711Y-93716075D01*
X318009762Y-93726675D01*
X317944360Y-93742796D01*
X317914683Y-93746400D01*
X317847321Y-93746400D01*
X317817645Y-93742797D01*
X317752233Y-93726674D01*
X317724283Y-93716073D01*
X317664635Y-93684767D01*
X317640034Y-93667786D01*
X317589610Y-93623114D01*
X317569788Y-93600740D01*
X317550653Y-93573019D01*
X317531517Y-93545295D01*
X317517626Y-93518828D01*
X317493741Y-93455847D01*
X317486587Y-93426826D01*
X317486587Y-93426824D01*
X317478465Y-93359937D01*
X317478465Y-93330059D01*
X317486586Y-93263174D01*
X317493739Y-93234157D01*
X317517630Y-93171164D01*
X317531517Y-93144701D01*
X317569790Y-93089253D01*
X317589606Y-93066885D01*
X317640039Y-93022207D01*
X317664634Y-93005231D01*
X317724286Y-92973923D01*
X317752237Y-92963322D01*
X317817641Y-92947202D01*
X317847314Y-92943600D01*
X317914684Y-92943600D01*
X317944357Y-92947202D01*
G37*
%TD.AperFunction*%
%TA.AperFunction,Conductor*%
G36*
X309562357Y-91931202D02*
G01*
X309627759Y-91947322D01*
X309655709Y-91957922D01*
X309715366Y-91989232D01*
X309739963Y-92006210D01*
X309790389Y-92050884D01*
X309810208Y-92073253D01*
X309848479Y-92128700D01*
X309862369Y-92155165D01*
X309886257Y-92218153D01*
X309893411Y-92247176D01*
X309901532Y-92314051D01*
X309901532Y-92343947D01*
X309893411Y-92410824D01*
X309886257Y-92439847D01*
X309862371Y-92502830D01*
X309848479Y-92529298D01*
X309810210Y-92584741D01*
X309790389Y-92607114D01*
X309739968Y-92651785D01*
X309715367Y-92668765D01*
X309655711Y-92700075D01*
X309627762Y-92710675D01*
X309562360Y-92726796D01*
X309532683Y-92730400D01*
X309465321Y-92730400D01*
X309435645Y-92726797D01*
X309370233Y-92710674D01*
X309342283Y-92700073D01*
X309282635Y-92668767D01*
X309258034Y-92651786D01*
X309207610Y-92607114D01*
X309187788Y-92584740D01*
X309168653Y-92557019D01*
X309149517Y-92529295D01*
X309135626Y-92502828D01*
X309135501Y-92502499D01*
X309111741Y-92439847D01*
X309104587Y-92410826D01*
X309104587Y-92410824D01*
X309096465Y-92343937D01*
X309096465Y-92314059D01*
X309104586Y-92247174D01*
X309111739Y-92218157D01*
X309135630Y-92155164D01*
X309149517Y-92128701D01*
X309187790Y-92073253D01*
X309207606Y-92050885D01*
X309258039Y-92006207D01*
X309282634Y-91989231D01*
X309342286Y-91957923D01*
X309370237Y-91947322D01*
X309435641Y-91931202D01*
X309465314Y-91927600D01*
X309532684Y-91927600D01*
X309562357Y-91931202D01*
G37*
%TD.AperFunction*%
%TA.AperFunction,Conductor*%
G36*
X322236957Y-89823002D02*
G01*
X322302359Y-89839122D01*
X322330309Y-89849722D01*
X322389966Y-89881032D01*
X322414563Y-89898010D01*
X322464989Y-89942684D01*
X322484808Y-89965053D01*
X322523079Y-90020500D01*
X322536969Y-90046965D01*
X322560857Y-90109953D01*
X322568011Y-90138976D01*
X322576132Y-90205851D01*
X322576132Y-90235747D01*
X322568011Y-90302624D01*
X322560857Y-90331647D01*
X322536971Y-90394630D01*
X322523079Y-90421098D01*
X322484810Y-90476541D01*
X322464989Y-90498914D01*
X322414568Y-90543585D01*
X322389967Y-90560565D01*
X322330311Y-90591875D01*
X322302362Y-90602475D01*
X322236960Y-90618596D01*
X322207283Y-90622200D01*
X322139921Y-90622200D01*
X322110245Y-90618597D01*
X322044833Y-90602474D01*
X322016883Y-90591873D01*
X321957235Y-90560567D01*
X321932634Y-90543586D01*
X321882210Y-90498914D01*
X321862388Y-90476540D01*
X321843253Y-90448819D01*
X321824117Y-90421095D01*
X321810226Y-90394628D01*
X321786341Y-90331647D01*
X321779187Y-90302626D01*
X321779187Y-90302624D01*
X321771065Y-90235737D01*
X321771065Y-90205859D01*
X321779186Y-90138974D01*
X321786339Y-90109957D01*
X321810230Y-90046964D01*
X321824117Y-90020501D01*
X321862390Y-89965053D01*
X321882206Y-89942685D01*
X321932639Y-89898007D01*
X321957234Y-89881031D01*
X322016886Y-89849723D01*
X322044837Y-89839122D01*
X322110241Y-89823002D01*
X322139914Y-89819400D01*
X322207284Y-89819400D01*
X322236957Y-89823002D01*
G37*
%TD.AperFunction*%
%TD*%
%TA.AperFunction,Conductor*%
%TO.N,/MIPI-HDMI-2/GND_MIPI*%
G36*
X284237980Y-136908383D02*
G01*
X284299011Y-136920523D01*
X284343709Y-136939037D01*
X284385096Y-136966691D01*
X284419309Y-137000904D01*
X284446962Y-137042291D01*
X284465476Y-137086987D01*
X284477617Y-137148019D01*
X284480000Y-137172212D01*
X284480000Y-157721787D01*
X284477617Y-157745980D01*
X284465476Y-157807012D01*
X284446962Y-157851708D01*
X284419309Y-157893095D01*
X284385095Y-157927309D01*
X284343708Y-157954962D01*
X284299012Y-157973476D01*
X284250989Y-157983029D01*
X284237978Y-157985617D01*
X284213788Y-157988000D01*
X261886212Y-157988000D01*
X261862021Y-157985617D01*
X261845690Y-157982368D01*
X261800987Y-157973476D01*
X261756291Y-157954962D01*
X261714904Y-157927309D01*
X261680691Y-157893096D01*
X261653037Y-157851708D01*
X261634523Y-157807010D01*
X261622383Y-157745978D01*
X261620000Y-157721787D01*
X261620000Y-156488874D01*
X264619000Y-156488874D01*
X264634387Y-156650016D01*
X264634388Y-156650023D01*
X264695237Y-156857258D01*
X264794214Y-157049246D01*
X264927732Y-157219029D01*
X264927733Y-157219030D01*
X265090973Y-157360478D01*
X265278027Y-157468473D01*
X265278029Y-157468474D01*
X265482138Y-157539117D01*
X265482143Y-157539118D01*
X265496000Y-157541110D01*
X265496000Y-156807968D01*
X265583740Y-156858625D01*
X265715992Y-156888810D01*
X265851265Y-156878673D01*
X265977541Y-156829113D01*
X266004000Y-156808012D01*
X266004000Y-157537185D01*
X266121598Y-157508657D01*
X266121600Y-157508656D01*
X266318070Y-157418930D01*
X266494022Y-157293635D01*
X266494024Y-157293634D01*
X266643069Y-157137319D01*
X266759844Y-156955614D01*
X266840123Y-156755087D01*
X266881000Y-156542997D01*
X266881000Y-156488874D01*
X279119000Y-156488874D01*
X279134387Y-156650016D01*
X279134388Y-156650023D01*
X279195237Y-156857258D01*
X279294214Y-157049246D01*
X279427732Y-157219029D01*
X279427733Y-157219030D01*
X279590973Y-157360478D01*
X279778027Y-157468473D01*
X279778029Y-157468474D01*
X279982138Y-157539117D01*
X279982143Y-157539118D01*
X279996000Y-157541110D01*
X279996000Y-156807968D01*
X280083740Y-156858625D01*
X280215992Y-156888810D01*
X280351265Y-156878673D01*
X280477541Y-156829113D01*
X280504000Y-156808012D01*
X280504000Y-157537185D01*
X280621598Y-157508657D01*
X280621600Y-157508656D01*
X280818070Y-157418930D01*
X280994022Y-157293635D01*
X280994024Y-157293634D01*
X281143069Y-157137319D01*
X281259844Y-156955614D01*
X281340123Y-156755087D01*
X281381000Y-156542997D01*
X281381000Y-156289000D01*
X280700000Y-156289000D01*
X280700000Y-155781000D01*
X281381000Y-155781000D01*
X281381000Y-155581125D01*
X281365612Y-155419983D01*
X281365611Y-155419976D01*
X281304762Y-155212741D01*
X281205785Y-155020753D01*
X281072267Y-154850970D01*
X281072266Y-154850969D01*
X280909026Y-154709521D01*
X280721972Y-154601526D01*
X280721970Y-154601525D01*
X280517856Y-154530881D01*
X280504000Y-154528888D01*
X280504000Y-155262031D01*
X280416260Y-155211375D01*
X280284008Y-155181190D01*
X280148735Y-155191327D01*
X280022459Y-155240887D01*
X279996000Y-155261987D01*
X279996000Y-154532813D01*
X279878401Y-154561342D01*
X279681929Y-154651069D01*
X279505977Y-154776364D01*
X279505975Y-154776365D01*
X279356930Y-154932680D01*
X279240155Y-155114385D01*
X279159876Y-155314912D01*
X279119000Y-155527002D01*
X279119000Y-155781000D01*
X279800000Y-155781000D01*
X279800000Y-156289000D01*
X279119000Y-156289000D01*
X279119000Y-156488874D01*
X266881000Y-156488874D01*
X266881000Y-156289000D01*
X266200000Y-156289000D01*
X266200000Y-155781000D01*
X266881000Y-155781000D01*
X266881000Y-155581125D01*
X266865612Y-155419983D01*
X266865611Y-155419976D01*
X266804762Y-155212741D01*
X266705785Y-155020753D01*
X266572267Y-154850970D01*
X266572266Y-154850969D01*
X266409026Y-154709521D01*
X266221972Y-154601526D01*
X266221970Y-154601525D01*
X266017856Y-154530881D01*
X266004000Y-154528888D01*
X266004000Y-155262031D01*
X265916260Y-155211375D01*
X265784008Y-155181190D01*
X265648735Y-155191327D01*
X265522459Y-155240887D01*
X265496000Y-155261987D01*
X265496000Y-154532813D01*
X265378401Y-154561342D01*
X265181929Y-154651069D01*
X265005977Y-154776364D01*
X265005975Y-154776365D01*
X264856930Y-154932680D01*
X264740155Y-155114385D01*
X264659876Y-155314912D01*
X264619000Y-155527002D01*
X264619000Y-155781000D01*
X265300000Y-155781000D01*
X265300000Y-156289000D01*
X264619000Y-156289000D01*
X264619000Y-156488874D01*
X261620000Y-156488874D01*
X261620000Y-152900000D01*
X269534246Y-152900000D01*
X269553591Y-153059323D01*
X269553592Y-153059328D01*
X269610504Y-153209391D01*
X269701676Y-153341477D01*
X269821809Y-153447905D01*
X269963920Y-153522491D01*
X269963922Y-153522491D01*
X269963923Y-153522492D01*
X270119752Y-153560900D01*
X270280248Y-153560900D01*
X270436076Y-153522492D01*
X270436076Y-153522491D01*
X270436080Y-153522491D01*
X270578191Y-153447905D01*
X270698324Y-153341477D01*
X270789496Y-153209391D01*
X270846408Y-153059325D01*
X270865754Y-152900000D01*
X270846408Y-152740675D01*
X270846407Y-152740673D01*
X270846407Y-152740671D01*
X270820546Y-152672482D01*
X270789496Y-152590609D01*
X270698324Y-152458523D01*
X270578191Y-152352095D01*
X270436080Y-152277509D01*
X270436079Y-152277508D01*
X270436076Y-152277507D01*
X270280248Y-152239100D01*
X270119752Y-152239100D01*
X269963923Y-152277507D01*
X269821809Y-152352095D01*
X269701675Y-152458523D01*
X269610505Y-152590607D01*
X269610504Y-152590608D01*
X269553592Y-152740671D01*
X269553591Y-152740676D01*
X269534246Y-152900000D01*
X261620000Y-152900000D01*
X261620000Y-151028874D01*
X264619000Y-151028874D01*
X264634387Y-151190016D01*
X264634388Y-151190023D01*
X264695237Y-151397258D01*
X264794214Y-151589246D01*
X264927732Y-151759029D01*
X264927733Y-151759030D01*
X265090973Y-151900478D01*
X265278027Y-152008473D01*
X265278029Y-152008474D01*
X265482138Y-152079117D01*
X265482143Y-152079118D01*
X265496000Y-152081110D01*
X265496000Y-151347968D01*
X265583740Y-151398625D01*
X265715992Y-151428810D01*
X265851265Y-151418673D01*
X265977541Y-151369113D01*
X266004000Y-151348012D01*
X266004000Y-152077185D01*
X266121598Y-152048657D01*
X266121600Y-152048656D01*
X266318070Y-151958930D01*
X266494022Y-151833635D01*
X266494024Y-151833634D01*
X266643069Y-151677319D01*
X266757818Y-151498766D01*
X267731943Y-151498766D01*
X267751288Y-151658089D01*
X267751289Y-151658094D01*
X267805136Y-151800076D01*
X267808201Y-151808157D01*
X267899373Y-151940243D01*
X268019506Y-152046671D01*
X268161617Y-152121257D01*
X268161619Y-152121257D01*
X268161620Y-152121258D01*
X268317449Y-152159666D01*
X268477945Y-152159666D01*
X268633773Y-152121258D01*
X268633773Y-152121257D01*
X268633777Y-152121257D01*
X268775888Y-152046671D01*
X268896021Y-151940243D01*
X268987193Y-151808157D01*
X269040350Y-151667992D01*
X269044104Y-151658094D01*
X269044105Y-151658089D01*
X269052464Y-151589246D01*
X269063451Y-151498766D01*
X269046431Y-151358600D01*
X270606246Y-151358600D01*
X270625591Y-151517923D01*
X270625592Y-151517928D01*
X270652640Y-151589246D01*
X270682504Y-151667991D01*
X270773676Y-151800077D01*
X270893809Y-151906505D01*
X271035920Y-151981091D01*
X271035922Y-151981091D01*
X271035923Y-151981092D01*
X271191752Y-152019500D01*
X271352248Y-152019500D01*
X271508076Y-151981092D01*
X271508076Y-151981091D01*
X271508080Y-151981091D01*
X271650191Y-151906505D01*
X271770324Y-151800077D01*
X271829600Y-151714200D01*
X275838646Y-151714200D01*
X275857991Y-151873523D01*
X275857992Y-151873528D01*
X275914904Y-152023591D01*
X276006076Y-152155677D01*
X276126209Y-152262105D01*
X276268320Y-152336691D01*
X276268322Y-152336691D01*
X276268323Y-152336692D01*
X276424152Y-152375100D01*
X276584648Y-152375100D01*
X276740476Y-152336692D01*
X276740476Y-152336691D01*
X276740480Y-152336691D01*
X276882591Y-152262105D01*
X277002724Y-152155677D01*
X277093896Y-152023591D01*
X277150808Y-151873525D01*
X277170154Y-151714200D01*
X277150808Y-151554875D01*
X277150807Y-151554873D01*
X277150807Y-151554871D01*
X277102998Y-151428810D01*
X277093896Y-151404809D01*
X277002724Y-151272723D01*
X276882591Y-151166295D01*
X276740480Y-151091709D01*
X276740479Y-151091708D01*
X276740476Y-151091707D01*
X276584648Y-151053300D01*
X276424152Y-151053300D01*
X276268323Y-151091707D01*
X276126209Y-151166295D01*
X276006075Y-151272723D01*
X275914905Y-151404807D01*
X275914904Y-151404808D01*
X275857992Y-151554871D01*
X275857991Y-151554876D01*
X275838646Y-151714200D01*
X271829600Y-151714200D01*
X271861496Y-151667991D01*
X271918408Y-151517925D01*
X271937754Y-151358600D01*
X271918408Y-151199275D01*
X271918407Y-151199273D01*
X271918407Y-151199271D01*
X271863047Y-151053300D01*
X271861496Y-151049209D01*
X271770324Y-150917123D01*
X271650191Y-150810695D01*
X271508080Y-150736109D01*
X271508079Y-150736108D01*
X271508076Y-150736107D01*
X271352248Y-150697700D01*
X271191752Y-150697700D01*
X271035923Y-150736107D01*
X270893809Y-150810695D01*
X270773675Y-150917123D01*
X270682505Y-151049207D01*
X270682504Y-151049208D01*
X270625592Y-151199271D01*
X270625591Y-151199276D01*
X270606246Y-151358600D01*
X269046431Y-151358600D01*
X269044105Y-151339441D01*
X269044104Y-151339439D01*
X269044104Y-151339437D01*
X269018243Y-151271248D01*
X268987193Y-151189375D01*
X268896021Y-151057289D01*
X268775888Y-150950861D01*
X268633777Y-150876275D01*
X268633776Y-150876274D01*
X268633773Y-150876273D01*
X268477945Y-150837866D01*
X268317449Y-150837866D01*
X268161620Y-150876273D01*
X268019506Y-150950861D01*
X267899372Y-151057289D01*
X267808202Y-151189373D01*
X267808201Y-151189374D01*
X267751289Y-151339437D01*
X267751288Y-151339442D01*
X267731943Y-151498766D01*
X266757818Y-151498766D01*
X266759844Y-151495614D01*
X266840123Y-151295087D01*
X266881000Y-151082997D01*
X266881000Y-150329000D01*
X266200000Y-150329000D01*
X266200000Y-149821000D01*
X266881000Y-149821000D01*
X266881000Y-149275800D01*
X277616646Y-149275800D01*
X277635991Y-149435123D01*
X277635992Y-149435128D01*
X277685742Y-149566306D01*
X277692904Y-149585191D01*
X277784076Y-149717277D01*
X277904209Y-149823705D01*
X278046320Y-149898291D01*
X278046322Y-149898291D01*
X278046323Y-149898292D01*
X278202152Y-149936700D01*
X278362648Y-149936700D01*
X278518476Y-149898292D01*
X278518476Y-149898291D01*
X278518480Y-149898291D01*
X278660591Y-149823705D01*
X278780724Y-149717277D01*
X278871896Y-149585191D01*
X278879058Y-149566305D01*
X278921235Y-149510603D01*
X278986833Y-149486545D01*
X279055023Y-149501771D01*
X279104157Y-149551447D01*
X279119000Y-149610276D01*
X279119000Y-149821000D01*
X279800000Y-149821000D01*
X279800000Y-150329000D01*
X279119000Y-150329000D01*
X279119000Y-151028874D01*
X279134387Y-151190016D01*
X279134388Y-151190023D01*
X279195237Y-151397258D01*
X279294214Y-151589246D01*
X279427732Y-151759029D01*
X279427733Y-151759030D01*
X279590973Y-151900478D01*
X279778027Y-152008473D01*
X279778029Y-152008474D01*
X279982138Y-152079117D01*
X279982143Y-152079118D01*
X279996000Y-152081110D01*
X279996000Y-151347968D01*
X280083740Y-151398625D01*
X280215992Y-151428810D01*
X280351265Y-151418673D01*
X280477541Y-151369113D01*
X280504000Y-151348012D01*
X280504000Y-152077185D01*
X280621598Y-152048657D01*
X280621600Y-152048656D01*
X280818070Y-151958930D01*
X280994022Y-151833635D01*
X280994024Y-151833634D01*
X281143069Y-151677319D01*
X281259844Y-151495614D01*
X281340123Y-151295087D01*
X281381000Y-151082997D01*
X281381000Y-150329000D01*
X280700000Y-150329000D01*
X280700000Y-149821000D01*
X281381000Y-149821000D01*
X281381000Y-149121125D01*
X281365612Y-148959983D01*
X281365611Y-148959976D01*
X281304762Y-148752741D01*
X281205785Y-148560753D01*
X281072267Y-148390970D01*
X281072266Y-148390969D01*
X280909026Y-148249521D01*
X280721972Y-148141526D01*
X280721970Y-148141525D01*
X280517856Y-148070881D01*
X280504000Y-148068888D01*
X280504000Y-148802031D01*
X280416260Y-148751375D01*
X280284008Y-148721190D01*
X280148735Y-148731327D01*
X280022459Y-148780887D01*
X279996000Y-148801987D01*
X279996000Y-148072813D01*
X279878401Y-148101342D01*
X279681929Y-148191069D01*
X279505977Y-148316364D01*
X279505975Y-148316365D01*
X279356930Y-148472680D01*
X279240155Y-148654385D01*
X279159877Y-148854911D01*
X279131306Y-149003150D01*
X279099290Y-149065252D01*
X279038781Y-149100187D01*
X278968990Y-149096862D01*
X278912076Y-149056333D01*
X278893605Y-149023652D01*
X278871896Y-148966410D01*
X278871896Y-148966409D01*
X278780724Y-148834323D01*
X278660591Y-148727895D01*
X278518480Y-148653309D01*
X278518479Y-148653308D01*
X278518476Y-148653307D01*
X278362648Y-148614900D01*
X278202152Y-148614900D01*
X278046323Y-148653307D01*
X277904209Y-148727895D01*
X277784075Y-148834323D01*
X277692905Y-148966407D01*
X277692904Y-148966408D01*
X277635992Y-149116471D01*
X277635991Y-149116476D01*
X277616646Y-149275800D01*
X266881000Y-149275800D01*
X266881000Y-149121125D01*
X266865612Y-148959983D01*
X266865611Y-148959976D01*
X266804762Y-148752741D01*
X266705785Y-148560753D01*
X266572267Y-148390970D01*
X266572266Y-148390969D01*
X266409026Y-148249521D01*
X266221972Y-148141526D01*
X266221970Y-148141525D01*
X266017856Y-148070881D01*
X266004000Y-148068888D01*
X266004000Y-148802031D01*
X265916260Y-148751375D01*
X265784008Y-148721190D01*
X265648735Y-148731327D01*
X265522459Y-148780887D01*
X265496000Y-148801987D01*
X265496000Y-148072813D01*
X265378401Y-148101342D01*
X265181929Y-148191069D01*
X265005977Y-148316364D01*
X265005975Y-148316365D01*
X264856930Y-148472680D01*
X264740155Y-148654385D01*
X264659876Y-148854912D01*
X264619000Y-149067002D01*
X264619000Y-149821000D01*
X265300000Y-149821000D01*
X265300000Y-150329000D01*
X264619000Y-150329000D01*
X264619000Y-151028874D01*
X261620000Y-151028874D01*
X261620000Y-140462000D01*
X275330646Y-140462000D01*
X275349991Y-140621323D01*
X275349992Y-140621328D01*
X275395255Y-140740675D01*
X275406904Y-140771391D01*
X275498076Y-140903477D01*
X275618209Y-141009905D01*
X275760320Y-141084491D01*
X275760322Y-141084491D01*
X275760323Y-141084492D01*
X275916152Y-141122900D01*
X276076648Y-141122900D01*
X276232476Y-141084492D01*
X276232476Y-141084491D01*
X276232480Y-141084491D01*
X276374591Y-141009905D01*
X276494724Y-140903477D01*
X276497124Y-140900000D01*
X280334246Y-140900000D01*
X280353591Y-141059323D01*
X280353592Y-141059328D01*
X280410504Y-141209391D01*
X280501676Y-141341477D01*
X280621809Y-141447905D01*
X280763920Y-141522491D01*
X280763922Y-141522491D01*
X280763923Y-141522492D01*
X280919752Y-141560900D01*
X281080248Y-141560900D01*
X281236076Y-141522492D01*
X281236076Y-141522491D01*
X281236080Y-141522491D01*
X281378191Y-141447905D01*
X281498324Y-141341477D01*
X281589496Y-141209391D01*
X281646408Y-141059325D01*
X281665754Y-140900000D01*
X281646408Y-140740675D01*
X281646407Y-140740673D01*
X281646407Y-140740671D01*
X281596445Y-140608933D01*
X281589496Y-140590609D01*
X281498324Y-140458523D01*
X281378191Y-140352095D01*
X281236080Y-140277509D01*
X281236079Y-140277508D01*
X281236076Y-140277507D01*
X281080248Y-140239100D01*
X280919752Y-140239100D01*
X280763923Y-140277507D01*
X280621809Y-140352095D01*
X280501675Y-140458523D01*
X280410505Y-140590607D01*
X280410504Y-140590608D01*
X280353592Y-140740671D01*
X280353591Y-140740676D01*
X280334246Y-140900000D01*
X276497124Y-140900000D01*
X276585896Y-140771391D01*
X276642808Y-140621325D01*
X276662154Y-140462000D01*
X276642808Y-140302675D01*
X276642807Y-140302673D01*
X276642807Y-140302671D01*
X276616946Y-140234482D01*
X276586099Y-140153144D01*
X276934619Y-140153144D01*
X276953964Y-140312467D01*
X276953965Y-140312472D01*
X277010877Y-140462535D01*
X277010878Y-140462536D01*
X277099279Y-140590609D01*
X277102049Y-140594621D01*
X277222182Y-140701049D01*
X277364293Y-140775635D01*
X277364295Y-140775635D01*
X277364296Y-140775636D01*
X277520125Y-140814044D01*
X277680621Y-140814044D01*
X277836449Y-140775636D01*
X277836449Y-140775635D01*
X277836453Y-140775635D01*
X277978564Y-140701049D01*
X278098697Y-140594621D01*
X278189869Y-140462535D01*
X278246781Y-140312469D01*
X278264389Y-140167456D01*
X278834246Y-140167456D01*
X278853591Y-140326779D01*
X278853592Y-140326784D01*
X278910504Y-140476847D01*
X278910505Y-140476848D01*
X278989026Y-140590607D01*
X279001676Y-140608933D01*
X279121809Y-140715361D01*
X279263920Y-140789947D01*
X279263922Y-140789947D01*
X279263923Y-140789948D01*
X279419752Y-140828356D01*
X279580248Y-140828356D01*
X279736076Y-140789948D01*
X279736076Y-140789947D01*
X279736080Y-140789947D01*
X279878191Y-140715361D01*
X279998324Y-140608933D01*
X280089496Y-140476847D01*
X280146408Y-140326781D01*
X280165754Y-140167456D01*
X280146408Y-140008131D01*
X280146407Y-140008129D01*
X280146407Y-140008127D01*
X280110745Y-139914095D01*
X280089496Y-139858065D01*
X279998324Y-139725979D01*
X279878191Y-139619551D01*
X279736080Y-139544965D01*
X279736079Y-139544964D01*
X279736076Y-139544963D01*
X279580248Y-139506556D01*
X279419752Y-139506556D01*
X279263923Y-139544963D01*
X279121809Y-139619551D01*
X279001675Y-139725979D01*
X278910505Y-139858063D01*
X278910504Y-139858064D01*
X278853592Y-140008127D01*
X278853591Y-140008132D01*
X278834246Y-140167456D01*
X278264389Y-140167456D01*
X278266127Y-140153144D01*
X278246781Y-139993819D01*
X278246780Y-139993817D01*
X278246780Y-139993815D01*
X278216546Y-139914095D01*
X278189869Y-139843753D01*
X278098697Y-139711667D01*
X277978564Y-139605239D01*
X277836453Y-139530653D01*
X277836452Y-139530652D01*
X277836449Y-139530651D01*
X277680621Y-139492244D01*
X277520125Y-139492244D01*
X277364296Y-139530651D01*
X277222182Y-139605239D01*
X277102048Y-139711667D01*
X277010878Y-139843751D01*
X277010877Y-139843752D01*
X276953965Y-139993815D01*
X276953964Y-139993820D01*
X276934619Y-140153144D01*
X276586099Y-140153144D01*
X276585896Y-140152609D01*
X276494724Y-140020523D01*
X276374591Y-139914095D01*
X276232480Y-139839509D01*
X276232479Y-139839508D01*
X276232476Y-139839507D01*
X276076648Y-139801100D01*
X275916152Y-139801100D01*
X275760323Y-139839507D01*
X275618209Y-139914095D01*
X275498075Y-140020523D01*
X275406905Y-140152607D01*
X275406904Y-140152608D01*
X275349992Y-140302671D01*
X275349991Y-140302676D01*
X275330646Y-140462000D01*
X261620000Y-140462000D01*
X261620000Y-139400000D01*
X281234246Y-139400000D01*
X281253591Y-139559323D01*
X281253592Y-139559328D01*
X281310504Y-139709391D01*
X281310505Y-139709392D01*
X281400317Y-139839509D01*
X281401676Y-139841477D01*
X281521809Y-139947905D01*
X281663920Y-140022491D01*
X281663922Y-140022491D01*
X281663923Y-140022492D01*
X281819752Y-140060900D01*
X281980248Y-140060900D01*
X282136076Y-140022492D01*
X282136076Y-140022491D01*
X282136080Y-140022491D01*
X282278191Y-139947905D01*
X282398324Y-139841477D01*
X282489496Y-139709391D01*
X282546408Y-139559325D01*
X282565754Y-139400000D01*
X282546408Y-139240675D01*
X282546407Y-139240673D01*
X282546407Y-139240671D01*
X282520546Y-139172482D01*
X282489496Y-139090609D01*
X282398324Y-138958523D01*
X282278191Y-138852095D01*
X282136080Y-138777509D01*
X282136079Y-138777508D01*
X282136076Y-138777507D01*
X281980248Y-138739100D01*
X281819752Y-138739100D01*
X281663923Y-138777507D01*
X281521809Y-138852095D01*
X281401675Y-138958523D01*
X281310505Y-139090607D01*
X281310504Y-139090608D01*
X281253592Y-139240671D01*
X281253591Y-139240676D01*
X281234246Y-139400000D01*
X261620000Y-139400000D01*
X261620000Y-137172212D01*
X261622383Y-137148021D01*
X261634523Y-137086989D01*
X261653037Y-137042291D01*
X261680693Y-137000900D01*
X261714900Y-136966693D01*
X261756292Y-136939036D01*
X261800989Y-136920523D01*
X261862021Y-136908383D01*
X261886212Y-136906000D01*
X284213788Y-136906000D01*
X284237980Y-136908383D01*
G37*
%TD.AperFunction*%
%TD*%
%TA.AperFunction,Conductor*%
%TO.N,/MIPI-HDMI-1/GND_MIPI*%
G36*
X260361980Y-136908383D02*
G01*
X260423011Y-136920523D01*
X260467709Y-136939037D01*
X260509096Y-136966691D01*
X260543309Y-137000904D01*
X260570962Y-137042291D01*
X260589476Y-137086987D01*
X260601617Y-137148019D01*
X260604000Y-137172212D01*
X260604000Y-157721787D01*
X260601617Y-157745980D01*
X260589476Y-157807012D01*
X260570962Y-157851708D01*
X260543309Y-157893095D01*
X260509095Y-157927309D01*
X260467708Y-157954962D01*
X260423012Y-157973476D01*
X260374989Y-157983029D01*
X260361978Y-157985617D01*
X260337788Y-157988000D01*
X237502212Y-157988000D01*
X237478021Y-157985617D01*
X237461690Y-157982368D01*
X237416987Y-157973476D01*
X237372291Y-157954962D01*
X237330904Y-157927309D01*
X237296691Y-157893096D01*
X237269037Y-157851708D01*
X237250523Y-157807010D01*
X237238383Y-157745978D01*
X237236000Y-157721787D01*
X237236000Y-156488874D01*
X240619000Y-156488874D01*
X240634387Y-156650016D01*
X240634388Y-156650023D01*
X240695237Y-156857258D01*
X240794214Y-157049246D01*
X240927732Y-157219029D01*
X240927733Y-157219030D01*
X241090973Y-157360478D01*
X241278027Y-157468473D01*
X241278029Y-157468474D01*
X241482138Y-157539117D01*
X241482143Y-157539118D01*
X241496000Y-157541110D01*
X241496000Y-156807968D01*
X241583740Y-156858625D01*
X241715992Y-156888810D01*
X241851265Y-156878673D01*
X241977541Y-156829113D01*
X242004000Y-156808012D01*
X242004000Y-157537185D01*
X242121598Y-157508657D01*
X242121600Y-157508656D01*
X242318070Y-157418930D01*
X242494022Y-157293635D01*
X242494024Y-157293634D01*
X242643069Y-157137319D01*
X242759844Y-156955614D01*
X242840123Y-156755087D01*
X242881000Y-156542997D01*
X242881000Y-156488874D01*
X255119000Y-156488874D01*
X255134387Y-156650016D01*
X255134388Y-156650023D01*
X255195237Y-156857258D01*
X255294214Y-157049246D01*
X255427732Y-157219029D01*
X255427733Y-157219030D01*
X255590973Y-157360478D01*
X255778027Y-157468473D01*
X255778029Y-157468474D01*
X255982138Y-157539117D01*
X255982143Y-157539118D01*
X255996000Y-157541110D01*
X255996000Y-156807968D01*
X256083740Y-156858625D01*
X256215992Y-156888810D01*
X256351265Y-156878673D01*
X256477541Y-156829113D01*
X256504000Y-156808012D01*
X256504000Y-157537185D01*
X256621598Y-157508657D01*
X256621600Y-157508656D01*
X256818070Y-157418930D01*
X256994022Y-157293635D01*
X256994024Y-157293634D01*
X257143069Y-157137319D01*
X257259844Y-156955614D01*
X257340123Y-156755087D01*
X257381000Y-156542997D01*
X257381000Y-156289000D01*
X256700000Y-156289000D01*
X256700000Y-155781000D01*
X257381000Y-155781000D01*
X257381000Y-155581125D01*
X257365612Y-155419983D01*
X257365611Y-155419976D01*
X257304762Y-155212741D01*
X257205785Y-155020753D01*
X257072267Y-154850970D01*
X257072266Y-154850969D01*
X256909026Y-154709521D01*
X256721972Y-154601526D01*
X256721970Y-154601525D01*
X256517856Y-154530881D01*
X256504000Y-154528888D01*
X256504000Y-155262031D01*
X256416260Y-155211375D01*
X256284008Y-155181190D01*
X256148735Y-155191327D01*
X256022459Y-155240887D01*
X255996000Y-155261987D01*
X255996000Y-154532813D01*
X255878401Y-154561342D01*
X255681929Y-154651069D01*
X255505977Y-154776364D01*
X255505975Y-154776365D01*
X255356930Y-154932680D01*
X255240155Y-155114385D01*
X255159876Y-155314912D01*
X255119000Y-155527002D01*
X255119000Y-155781000D01*
X255800000Y-155781000D01*
X255800000Y-156289000D01*
X255119000Y-156289000D01*
X255119000Y-156488874D01*
X242881000Y-156488874D01*
X242881000Y-156289000D01*
X242200000Y-156289000D01*
X242200000Y-155781000D01*
X242881000Y-155781000D01*
X242881000Y-155581125D01*
X242865612Y-155419983D01*
X242865611Y-155419976D01*
X242804762Y-155212741D01*
X242705785Y-155020753D01*
X242572267Y-154850970D01*
X242572266Y-154850969D01*
X242409026Y-154709521D01*
X242221972Y-154601526D01*
X242221970Y-154601525D01*
X242017856Y-154530881D01*
X242004000Y-154528888D01*
X242004000Y-155262031D01*
X241916260Y-155211375D01*
X241784008Y-155181190D01*
X241648735Y-155191327D01*
X241522459Y-155240887D01*
X241496000Y-155261987D01*
X241496000Y-154532813D01*
X241378401Y-154561342D01*
X241181929Y-154651069D01*
X241005977Y-154776364D01*
X241005975Y-154776365D01*
X240856930Y-154932680D01*
X240740155Y-155114385D01*
X240659876Y-155314912D01*
X240619000Y-155527002D01*
X240619000Y-155781000D01*
X241300000Y-155781000D01*
X241300000Y-156289000D01*
X240619000Y-156289000D01*
X240619000Y-156488874D01*
X237236000Y-156488874D01*
X237236000Y-152700000D01*
X245756792Y-152700000D01*
X245776137Y-152859323D01*
X245776138Y-152859328D01*
X245833050Y-153009391D01*
X245924222Y-153141477D01*
X246044355Y-153247905D01*
X246186466Y-153322491D01*
X246186468Y-153322491D01*
X246186469Y-153322492D01*
X246342298Y-153360900D01*
X246502794Y-153360900D01*
X246658622Y-153322492D01*
X246658622Y-153322491D01*
X246658626Y-153322491D01*
X246800737Y-153247905D01*
X246920870Y-153141477D01*
X247012042Y-153009391D01*
X247068954Y-152859325D01*
X247088300Y-152700000D01*
X247068954Y-152540675D01*
X247068953Y-152540673D01*
X247068953Y-152540671D01*
X247043092Y-152472482D01*
X247012042Y-152390609D01*
X246920870Y-152258523D01*
X246800737Y-152152095D01*
X246658626Y-152077509D01*
X246658625Y-152077508D01*
X246658622Y-152077507D01*
X246502794Y-152039100D01*
X246342298Y-152039100D01*
X246186469Y-152077507D01*
X246044355Y-152152095D01*
X245924221Y-152258523D01*
X245833051Y-152390607D01*
X245833050Y-152390608D01*
X245776138Y-152540671D01*
X245776137Y-152540676D01*
X245756792Y-152700000D01*
X237236000Y-152700000D01*
X237236000Y-151028874D01*
X240619000Y-151028874D01*
X240634387Y-151190016D01*
X240634388Y-151190023D01*
X240695237Y-151397258D01*
X240794214Y-151589246D01*
X240927732Y-151759029D01*
X240927733Y-151759030D01*
X241090973Y-151900478D01*
X241278027Y-152008473D01*
X241278029Y-152008474D01*
X241482138Y-152079117D01*
X241482143Y-152079118D01*
X241496000Y-152081110D01*
X241496000Y-151347968D01*
X241583740Y-151398625D01*
X241715992Y-151428810D01*
X241851265Y-151418673D01*
X241977541Y-151369113D01*
X242004000Y-151348012D01*
X242004000Y-152077185D01*
X242121598Y-152048657D01*
X242121600Y-152048656D01*
X242318070Y-151958930D01*
X242494022Y-151833635D01*
X242494024Y-151833634D01*
X242643069Y-151677319D01*
X242757818Y-151498766D01*
X243728943Y-151498766D01*
X243748288Y-151658089D01*
X243748289Y-151658094D01*
X243802136Y-151800076D01*
X243805201Y-151808157D01*
X243896373Y-151940243D01*
X244016506Y-152046671D01*
X244158617Y-152121257D01*
X244158619Y-152121257D01*
X244158620Y-152121258D01*
X244314449Y-152159666D01*
X244474945Y-152159666D01*
X244630773Y-152121258D01*
X244630773Y-152121257D01*
X244630777Y-152121257D01*
X244772888Y-152046671D01*
X244893021Y-151940243D01*
X244984193Y-151808157D01*
X245037350Y-151667992D01*
X245041104Y-151658094D01*
X245041105Y-151658089D01*
X245049464Y-151589246D01*
X245060451Y-151498766D01*
X245043431Y-151358600D01*
X246603246Y-151358600D01*
X246622591Y-151517923D01*
X246622592Y-151517928D01*
X246649640Y-151589246D01*
X246679504Y-151667991D01*
X246770676Y-151800077D01*
X246890809Y-151906505D01*
X247032920Y-151981091D01*
X247032922Y-151981091D01*
X247032923Y-151981092D01*
X247188752Y-152019500D01*
X247349248Y-152019500D01*
X247505076Y-151981092D01*
X247505076Y-151981091D01*
X247505080Y-151981091D01*
X247647191Y-151906505D01*
X247767324Y-151800077D01*
X247826600Y-151714200D01*
X251835646Y-151714200D01*
X251854991Y-151873523D01*
X251854992Y-151873528D01*
X251911904Y-152023591D01*
X251911905Y-152023592D01*
X252000603Y-152152095D01*
X252003076Y-152155677D01*
X252123209Y-152262105D01*
X252265320Y-152336691D01*
X252265322Y-152336691D01*
X252265323Y-152336692D01*
X252421152Y-152375100D01*
X252581648Y-152375100D01*
X252737476Y-152336692D01*
X252737476Y-152336691D01*
X252737480Y-152336691D01*
X252879591Y-152262105D01*
X252999724Y-152155677D01*
X253090896Y-152023591D01*
X253147808Y-151873525D01*
X253167154Y-151714200D01*
X253147808Y-151554875D01*
X253147807Y-151554873D01*
X253147807Y-151554871D01*
X253099998Y-151428810D01*
X253090896Y-151404809D01*
X252999724Y-151272723D01*
X252879591Y-151166295D01*
X252737480Y-151091709D01*
X252737479Y-151091708D01*
X252737476Y-151091707D01*
X252581648Y-151053300D01*
X252421152Y-151053300D01*
X252265323Y-151091707D01*
X252123209Y-151166295D01*
X252003075Y-151272723D01*
X251911905Y-151404807D01*
X251911904Y-151404808D01*
X251854992Y-151554871D01*
X251854991Y-151554876D01*
X251835646Y-151714200D01*
X247826600Y-151714200D01*
X247858496Y-151667991D01*
X247915408Y-151517925D01*
X247934754Y-151358600D01*
X247915408Y-151199275D01*
X247915407Y-151199273D01*
X247915407Y-151199271D01*
X247860047Y-151053300D01*
X247858496Y-151049209D01*
X247767324Y-150917123D01*
X247647191Y-150810695D01*
X247505080Y-150736109D01*
X247505079Y-150736108D01*
X247505076Y-150736107D01*
X247349248Y-150697700D01*
X247188752Y-150697700D01*
X247032923Y-150736107D01*
X246890809Y-150810695D01*
X246770675Y-150917123D01*
X246679505Y-151049207D01*
X246679504Y-151049208D01*
X246622592Y-151199271D01*
X246622591Y-151199276D01*
X246603246Y-151358600D01*
X245043431Y-151358600D01*
X245041105Y-151339441D01*
X245041104Y-151339439D01*
X245041104Y-151339437D01*
X245015243Y-151271248D01*
X244984193Y-151189375D01*
X244893021Y-151057289D01*
X244772888Y-150950861D01*
X244630777Y-150876275D01*
X244630776Y-150876274D01*
X244630773Y-150876273D01*
X244474945Y-150837866D01*
X244314449Y-150837866D01*
X244158620Y-150876273D01*
X244016506Y-150950861D01*
X243896372Y-151057289D01*
X243805202Y-151189373D01*
X243805201Y-151189374D01*
X243748289Y-151339437D01*
X243748288Y-151339442D01*
X243728943Y-151498766D01*
X242757818Y-151498766D01*
X242759844Y-151495614D01*
X242840123Y-151295087D01*
X242881000Y-151082997D01*
X242881000Y-150329000D01*
X242200000Y-150329000D01*
X242200000Y-149821000D01*
X242881000Y-149821000D01*
X242881000Y-149275800D01*
X253613646Y-149275800D01*
X253632991Y-149435123D01*
X253632992Y-149435128D01*
X253674107Y-149543538D01*
X253689904Y-149585191D01*
X253781076Y-149717277D01*
X253901209Y-149823705D01*
X254043320Y-149898291D01*
X254043322Y-149898291D01*
X254043323Y-149898292D01*
X254199152Y-149936700D01*
X254359648Y-149936700D01*
X254515476Y-149898292D01*
X254515476Y-149898291D01*
X254515480Y-149898291D01*
X254657591Y-149823705D01*
X254777724Y-149717277D01*
X254868896Y-149585191D01*
X254879058Y-149558394D01*
X254921236Y-149502692D01*
X254986833Y-149478635D01*
X255055024Y-149493862D01*
X255104157Y-149543538D01*
X255119000Y-149602366D01*
X255119000Y-149821000D01*
X255800000Y-149821000D01*
X255800000Y-150329000D01*
X255119000Y-150329000D01*
X255119000Y-151028874D01*
X255134387Y-151190016D01*
X255134388Y-151190023D01*
X255195237Y-151397258D01*
X255294214Y-151589246D01*
X255427732Y-151759029D01*
X255427733Y-151759030D01*
X255590973Y-151900478D01*
X255778027Y-152008473D01*
X255778029Y-152008474D01*
X255982138Y-152079117D01*
X255982143Y-152079118D01*
X255996000Y-152081110D01*
X255996000Y-151347968D01*
X256083740Y-151398625D01*
X256215992Y-151428810D01*
X256351265Y-151418673D01*
X256477541Y-151369113D01*
X256504000Y-151348012D01*
X256504000Y-152077185D01*
X256621598Y-152048657D01*
X256621600Y-152048656D01*
X256818070Y-151958930D01*
X256994022Y-151833635D01*
X256994024Y-151833634D01*
X257143069Y-151677319D01*
X257259844Y-151495614D01*
X257340123Y-151295087D01*
X257381000Y-151082997D01*
X257381000Y-150329000D01*
X256700000Y-150329000D01*
X256700000Y-149821000D01*
X257381000Y-149821000D01*
X257381000Y-149121125D01*
X257365612Y-148959983D01*
X257365611Y-148959976D01*
X257304762Y-148752741D01*
X257205785Y-148560753D01*
X257072267Y-148390970D01*
X257072266Y-148390969D01*
X256909026Y-148249521D01*
X256721972Y-148141526D01*
X256721970Y-148141525D01*
X256517856Y-148070881D01*
X256504000Y-148068888D01*
X256504000Y-148802031D01*
X256416260Y-148751375D01*
X256284008Y-148721190D01*
X256148735Y-148731327D01*
X256022459Y-148780887D01*
X255996000Y-148801987D01*
X255996000Y-148072813D01*
X255878401Y-148101342D01*
X255681929Y-148191069D01*
X255505977Y-148316364D01*
X255505975Y-148316365D01*
X255356930Y-148472680D01*
X255240155Y-148654385D01*
X255159877Y-148854911D01*
X255130295Y-149008395D01*
X255098279Y-149070497D01*
X255037770Y-149105432D01*
X254967979Y-149102107D01*
X254911065Y-149061578D01*
X254892594Y-149028897D01*
X254868896Y-148966410D01*
X254868896Y-148966409D01*
X254777724Y-148834323D01*
X254657591Y-148727895D01*
X254515480Y-148653309D01*
X254515479Y-148653308D01*
X254515476Y-148653307D01*
X254359648Y-148614900D01*
X254199152Y-148614900D01*
X254043323Y-148653307D01*
X253901209Y-148727895D01*
X253781075Y-148834323D01*
X253689905Y-148966407D01*
X253689904Y-148966408D01*
X253632992Y-149116471D01*
X253632991Y-149116476D01*
X253613646Y-149275800D01*
X242881000Y-149275800D01*
X242881000Y-149121125D01*
X242865612Y-148959983D01*
X242865611Y-148959976D01*
X242804762Y-148752741D01*
X242705785Y-148560753D01*
X242572267Y-148390970D01*
X242572266Y-148390969D01*
X242409026Y-148249521D01*
X242221972Y-148141526D01*
X242221970Y-148141525D01*
X242017856Y-148070881D01*
X242004000Y-148068888D01*
X242004000Y-148802031D01*
X241916260Y-148751375D01*
X241784008Y-148721190D01*
X241648735Y-148731327D01*
X241522459Y-148780887D01*
X241496000Y-148801987D01*
X241496000Y-148072813D01*
X241378401Y-148101342D01*
X241181929Y-148191069D01*
X241005977Y-148316364D01*
X241005975Y-148316365D01*
X240856930Y-148472680D01*
X240740155Y-148654385D01*
X240659876Y-148854912D01*
X240619000Y-149067002D01*
X240619000Y-149821000D01*
X241300000Y-149821000D01*
X241300000Y-150329000D01*
X240619000Y-150329000D01*
X240619000Y-151028874D01*
X237236000Y-151028874D01*
X237236000Y-140462000D01*
X251327646Y-140462000D01*
X251346991Y-140621323D01*
X251346992Y-140621328D01*
X251394997Y-140747905D01*
X251403904Y-140771391D01*
X251495076Y-140903477D01*
X251615209Y-141009905D01*
X251757320Y-141084491D01*
X251757322Y-141084491D01*
X251757323Y-141084492D01*
X251913152Y-141122900D01*
X252073648Y-141122900D01*
X252229476Y-141084492D01*
X252229476Y-141084491D01*
X252229480Y-141084491D01*
X252234201Y-141082013D01*
X256416259Y-141082013D01*
X256435604Y-141241336D01*
X256435605Y-141241341D01*
X256492517Y-141391404D01*
X256583689Y-141523490D01*
X256703822Y-141629918D01*
X256845933Y-141704504D01*
X256845935Y-141704504D01*
X256845936Y-141704505D01*
X257001765Y-141742913D01*
X257162261Y-141742913D01*
X257318089Y-141704505D01*
X257318089Y-141704504D01*
X257318093Y-141704504D01*
X257460204Y-141629918D01*
X257580337Y-141523490D01*
X257671509Y-141391404D01*
X257728421Y-141241338D01*
X257747767Y-141082013D01*
X257728421Y-140922688D01*
X257728420Y-140922686D01*
X257728420Y-140922684D01*
X257690422Y-140822492D01*
X257671509Y-140772622D01*
X257580337Y-140640536D01*
X257460204Y-140534108D01*
X257318093Y-140459522D01*
X257318092Y-140459521D01*
X257318089Y-140459520D01*
X257162261Y-140421113D01*
X257001765Y-140421113D01*
X256845936Y-140459520D01*
X256703822Y-140534108D01*
X256583688Y-140640536D01*
X256492518Y-140772620D01*
X256492517Y-140772621D01*
X256435605Y-140922684D01*
X256435604Y-140922689D01*
X256416259Y-141082013D01*
X252234201Y-141082013D01*
X252371591Y-141009905D01*
X252491724Y-140903477D01*
X252582896Y-140771391D01*
X252639808Y-140621325D01*
X252659154Y-140462000D01*
X252639808Y-140302675D01*
X252639807Y-140302673D01*
X252639807Y-140302671D01*
X252600869Y-140200000D01*
X253034246Y-140200000D01*
X253053591Y-140359323D01*
X253053592Y-140359328D01*
X253091591Y-140459522D01*
X253110504Y-140509391D01*
X253201676Y-140641477D01*
X253321809Y-140747905D01*
X253463920Y-140822491D01*
X253463922Y-140822491D01*
X253463923Y-140822492D01*
X253619752Y-140860900D01*
X253780248Y-140860900D01*
X253936076Y-140822492D01*
X253936076Y-140822491D01*
X253936080Y-140822491D01*
X254078191Y-140747905D01*
X254198324Y-140641477D01*
X254289496Y-140509391D01*
X254346408Y-140359325D01*
X254365754Y-140200000D01*
X254834246Y-140200000D01*
X254853591Y-140359323D01*
X254853592Y-140359328D01*
X254891591Y-140459522D01*
X254910504Y-140509391D01*
X255001676Y-140641477D01*
X255121809Y-140747905D01*
X255263920Y-140822491D01*
X255263922Y-140822491D01*
X255263923Y-140822492D01*
X255419752Y-140860900D01*
X255580248Y-140860900D01*
X255736076Y-140822492D01*
X255736076Y-140822491D01*
X255736080Y-140822491D01*
X255878191Y-140747905D01*
X255998324Y-140641477D01*
X256089496Y-140509391D01*
X256146408Y-140359325D01*
X256165754Y-140200000D01*
X256146408Y-140040675D01*
X256146407Y-140040673D01*
X256146407Y-140040671D01*
X256098403Y-139914095D01*
X256089496Y-139890609D01*
X255998324Y-139758523D01*
X255878191Y-139652095D01*
X255736080Y-139577509D01*
X255736079Y-139577508D01*
X255736076Y-139577507D01*
X255580248Y-139539100D01*
X255419752Y-139539100D01*
X255263923Y-139577507D01*
X255121809Y-139652095D01*
X255001675Y-139758523D01*
X254910505Y-139890607D01*
X254910504Y-139890608D01*
X254853592Y-140040671D01*
X254853591Y-140040676D01*
X254834246Y-140200000D01*
X254365754Y-140200000D01*
X254346408Y-140040675D01*
X254346407Y-140040673D01*
X254346407Y-140040671D01*
X254298403Y-139914095D01*
X254289496Y-139890609D01*
X254198324Y-139758523D01*
X254078191Y-139652095D01*
X253936080Y-139577509D01*
X253936079Y-139577508D01*
X253936076Y-139577507D01*
X253780248Y-139539100D01*
X253619752Y-139539100D01*
X253463923Y-139577507D01*
X253321809Y-139652095D01*
X253201675Y-139758523D01*
X253110505Y-139890607D01*
X253110504Y-139890608D01*
X253053592Y-140040671D01*
X253053591Y-140040676D01*
X253034246Y-140200000D01*
X252600869Y-140200000D01*
X252582896Y-140152609D01*
X252491724Y-140020523D01*
X252371591Y-139914095D01*
X252229480Y-139839509D01*
X252229479Y-139839508D01*
X252229476Y-139839507D01*
X252073648Y-139801100D01*
X251913152Y-139801100D01*
X251757323Y-139839507D01*
X251615209Y-139914095D01*
X251495075Y-140020523D01*
X251403905Y-140152607D01*
X251403904Y-140152608D01*
X251346992Y-140302671D01*
X251346991Y-140302676D01*
X251327646Y-140462000D01*
X237236000Y-140462000D01*
X237236000Y-138900000D01*
X257334246Y-138900000D01*
X257353591Y-139059323D01*
X257353592Y-139059328D01*
X257410504Y-139209391D01*
X257501676Y-139341477D01*
X257621809Y-139447905D01*
X257763920Y-139522491D01*
X257763922Y-139522491D01*
X257763923Y-139522492D01*
X257919752Y-139560900D01*
X258080248Y-139560900D01*
X258236076Y-139522492D01*
X258236076Y-139522491D01*
X258236080Y-139522491D01*
X258378191Y-139447905D01*
X258498324Y-139341477D01*
X258589496Y-139209391D01*
X258646408Y-139059325D01*
X258665754Y-138900000D01*
X258646408Y-138740675D01*
X258646407Y-138740673D01*
X258646407Y-138740671D01*
X258620546Y-138672482D01*
X258589496Y-138590609D01*
X258498324Y-138458523D01*
X258378191Y-138352095D01*
X258236080Y-138277509D01*
X258236079Y-138277508D01*
X258236076Y-138277507D01*
X258080248Y-138239100D01*
X257919752Y-138239100D01*
X257763923Y-138277507D01*
X257621809Y-138352095D01*
X257501675Y-138458523D01*
X257410505Y-138590607D01*
X257410504Y-138590608D01*
X257353592Y-138740671D01*
X257353591Y-138740676D01*
X257334246Y-138900000D01*
X237236000Y-138900000D01*
X237236000Y-137172212D01*
X237238383Y-137148021D01*
X237250523Y-137086989D01*
X237269037Y-137042291D01*
X237296693Y-137000900D01*
X237330900Y-136966693D01*
X237372292Y-136939036D01*
X237416989Y-136920523D01*
X237478021Y-136908383D01*
X237502212Y-136906000D01*
X260337788Y-136906000D01*
X260361980Y-136908383D01*
G37*
%TD.AperFunction*%
%TD*%
M02*
