%TF.GenerationSoftware,KiCad,Pcbnew,7.0.9-7.0.9~ubuntu20.04.1*%
%TF.CreationDate,2023-12-22T10:27:10-08:00*%
%TF.ProjectId,NX-J401-Adapter,4e582d4a-3430-4312-9d41-646170746572,1*%
%TF.SameCoordinates,Original*%
%TF.FileFunction,Paste,Top*%
%TF.FilePolarity,Positive*%
%FSLAX46Y46*%
G04 Gerber Fmt 4.6, Leading zero omitted, Abs format (unit mm)*
G04 Created by KiCad (PCBNEW 7.0.9-7.0.9~ubuntu20.04.1) date 2023-12-22 10:27:10*
%MOMM*%
%LPD*%
G01*
G04 APERTURE LIST*
G04 Aperture macros list*
%AMRoundRect*
0 Rectangle with rounded corners*
0 $1 Rounding radius*
0 $2 $3 $4 $5 $6 $7 $8 $9 X,Y pos of 4 corners*
0 Add a 4 corners polygon primitive as box body*
4,1,4,$2,$3,$4,$5,$6,$7,$8,$9,$2,$3,0*
0 Add four circle primitives for the rounded corners*
1,1,$1+$1,$2,$3*
1,1,$1+$1,$4,$5*
1,1,$1+$1,$6,$7*
1,1,$1+$1,$8,$9*
0 Add four rect primitives between the rounded corners*
20,1,$1+$1,$2,$3,$4,$5,0*
20,1,$1+$1,$4,$5,$6,$7,0*
20,1,$1+$1,$6,$7,$8,$9,0*
20,1,$1+$1,$8,$9,$2,$3,0*%
G04 Aperture macros list end*
%ADD10C,0.300000*%
%ADD11RoundRect,0.250000X0.325000X1.100000X-0.325000X1.100000X-0.325000X-1.100000X0.325000X-1.100000X0*%
%ADD12R,0.550000X2.000000*%
%ADD13RoundRect,0.200000X-0.200000X-0.275000X0.200000X-0.275000X0.200000X0.275000X-0.200000X0.275000X0*%
%ADD14RoundRect,0.200000X0.200000X0.275000X-0.200000X0.275000X-0.200000X-0.275000X0.200000X-0.275000X0*%
%ADD15RoundRect,0.250000X1.000000X0.900000X-1.000000X0.900000X-1.000000X-0.900000X1.000000X-0.900000X0*%
%ADD16RoundRect,0.150000X0.825000X0.150000X-0.825000X0.150000X-0.825000X-0.150000X0.825000X-0.150000X0*%
%ADD17RoundRect,0.150000X-0.625000X0.150000X-0.625000X-0.150000X0.625000X-0.150000X0.625000X0.150000X0*%
%ADD18RoundRect,0.250000X-0.650000X0.350000X-0.650000X-0.350000X0.650000X-0.350000X0.650000X0.350000X0*%
%ADD19RoundRect,0.200000X0.275000X-0.200000X0.275000X0.200000X-0.275000X0.200000X-0.275000X-0.200000X0*%
%ADD20RoundRect,0.225000X0.225000X0.250000X-0.225000X0.250000X-0.225000X-0.250000X0.225000X-0.250000X0*%
%ADD21RoundRect,0.250000X-0.475000X0.250000X-0.475000X-0.250000X0.475000X-0.250000X0.475000X0.250000X0*%
%ADD22RoundRect,0.100000X-0.712500X-0.100000X0.712500X-0.100000X0.712500X0.100000X-0.712500X0.100000X0*%
%ADD23R,0.508000X1.092200*%
%ADD24R,1.193800X1.701800*%
%ADD25RoundRect,0.150000X-0.587500X-0.150000X0.587500X-0.150000X0.587500X0.150000X-0.587500X0.150000X0*%
%ADD26RoundRect,0.250000X-0.300000X0.300000X-0.300000X-0.300000X0.300000X-0.300000X0.300000X0.300000X0*%
%ADD27R,1.500000X2.000000*%
%ADD28R,3.800000X2.000000*%
%ADD29RoundRect,0.225000X-0.250000X0.225000X-0.250000X-0.225000X0.250000X-0.225000X0.250000X0.225000X0*%
%ADD30RoundRect,0.150000X0.725000X0.150000X-0.725000X0.150000X-0.725000X-0.150000X0.725000X-0.150000X0*%
%ADD31R,0.660000X0.750000*%
%ADD32R,2.895600X12.446000*%
%ADD33R,0.300000X2.600000*%
%ADD34RoundRect,0.250000X-2.050000X-0.300000X2.050000X-0.300000X2.050000X0.300000X-2.050000X0.300000X0*%
%ADD35RoundRect,0.250000X-2.025000X-2.375000X2.025000X-2.375000X2.025000X2.375000X-2.025000X2.375000X0*%
%ADD36R,0.600000X1.850000*%
%ADD37R,0.600000X1.650000*%
%ADD38RoundRect,0.150000X-0.825000X-0.150000X0.825000X-0.150000X0.825000X0.150000X-0.825000X0.150000X0*%
G04 APERTURE END LIST*
D10*
G36*
X359350399Y-103687157D02*
G01*
X359350399Y-104472741D01*
X358975195Y-104472741D01*
X358975195Y-102649267D01*
X360255839Y-102649267D01*
X360255839Y-102961937D01*
X359350399Y-102961937D01*
X359350399Y-103374487D01*
X360148142Y-103374487D01*
X360148142Y-103687157D01*
X359350399Y-103687157D01*
G37*
G36*
X360847306Y-104107525D02*
G01*
X360847306Y-104472741D01*
X360472102Y-104472741D01*
X360472102Y-104107525D01*
X360847306Y-104107525D01*
G37*
G36*
X361992329Y-102649409D02*
G01*
X362009742Y-102649833D01*
X362043784Y-102651533D01*
X362076782Y-102654366D01*
X362108734Y-102658332D01*
X362139641Y-102663431D01*
X362169504Y-102669664D01*
X362198321Y-102677029D01*
X362226094Y-102685528D01*
X362252821Y-102695160D01*
X362278504Y-102705925D01*
X362303142Y-102717823D01*
X362326734Y-102730854D01*
X362349282Y-102745019D01*
X362370785Y-102760316D01*
X362391243Y-102776747D01*
X362410656Y-102794311D01*
X362429009Y-102812950D01*
X362446177Y-102832608D01*
X362462162Y-102853283D01*
X362476963Y-102874975D01*
X362490579Y-102897686D01*
X362503012Y-102921415D01*
X362514260Y-102946161D01*
X362524324Y-102971925D01*
X362533205Y-102998707D01*
X362540901Y-103026506D01*
X362547413Y-103055324D01*
X362552742Y-103085159D01*
X362556886Y-103116012D01*
X362559846Y-103147883D01*
X362561622Y-103180772D01*
X362562214Y-103214678D01*
X362561627Y-103248926D01*
X362559866Y-103282295D01*
X362556932Y-103314785D01*
X362552823Y-103346396D01*
X362547541Y-103377129D01*
X362541084Y-103406983D01*
X362533454Y-103435958D01*
X362524650Y-103464054D01*
X362514672Y-103491272D01*
X362503520Y-103517611D01*
X362491195Y-103543072D01*
X362477695Y-103567653D01*
X362463022Y-103591356D01*
X362447175Y-103614181D01*
X362430154Y-103636126D01*
X362411959Y-103657193D01*
X362392839Y-103677176D01*
X362372936Y-103695870D01*
X362352249Y-103713274D01*
X362330778Y-103729389D01*
X362308524Y-103744216D01*
X362285486Y-103757752D01*
X362261664Y-103770000D01*
X362237059Y-103780958D01*
X362211670Y-103790627D01*
X362185497Y-103799007D01*
X362158540Y-103806098D01*
X362130800Y-103811900D01*
X362102276Y-103816412D01*
X362072968Y-103819635D01*
X362042877Y-103821569D01*
X362012002Y-103822213D01*
X361544300Y-103822213D01*
X361544300Y-104472741D01*
X361169096Y-104472741D01*
X361169096Y-102961937D01*
X361544300Y-102961937D01*
X361544300Y-103509543D01*
X361894316Y-103509543D01*
X361912324Y-103509278D01*
X361929760Y-103508480D01*
X361962916Y-103505289D01*
X361993786Y-103499971D01*
X362022370Y-103492526D01*
X362048666Y-103482953D01*
X362072677Y-103471254D01*
X362094400Y-103457427D01*
X362113837Y-103441473D01*
X362130987Y-103423391D01*
X362145850Y-103403183D01*
X362158427Y-103380847D01*
X362168717Y-103356384D01*
X362176720Y-103329794D01*
X362182437Y-103301076D01*
X362185867Y-103270232D01*
X362187010Y-103237260D01*
X362186384Y-103211601D01*
X362184506Y-103187225D01*
X362181376Y-103164131D01*
X362176995Y-103142319D01*
X362171361Y-103121790D01*
X362164476Y-103102543D01*
X362156338Y-103084579D01*
X362146949Y-103067897D01*
X362136308Y-103052498D01*
X362124415Y-103038381D01*
X362115791Y-103029682D01*
X362101743Y-103017575D01*
X362086305Y-103006659D01*
X362069478Y-102996934D01*
X362051262Y-102988400D01*
X362031656Y-102981056D01*
X362010662Y-102974904D01*
X361988278Y-102969942D01*
X361964504Y-102966171D01*
X361939341Y-102963591D01*
X361921794Y-102962532D01*
X361903630Y-102962003D01*
X361894316Y-102961937D01*
X361544300Y-102961937D01*
X361169096Y-102961937D01*
X361169096Y-102649267D01*
X361974655Y-102649267D01*
X361992329Y-102649409D01*
G37*
G36*
X363395705Y-103100004D02*
G01*
X363428636Y-103101220D01*
X363460488Y-103103247D01*
X363491260Y-103106085D01*
X363520953Y-103109734D01*
X363549565Y-103114194D01*
X363577098Y-103119464D01*
X363603551Y-103125546D01*
X363628925Y-103132438D01*
X363653219Y-103140141D01*
X363676433Y-103148655D01*
X363698567Y-103157980D01*
X363719621Y-103168115D01*
X363739596Y-103179062D01*
X363758491Y-103190819D01*
X363776307Y-103203387D01*
X363793043Y-103216767D01*
X363808699Y-103230956D01*
X363823275Y-103245957D01*
X363836771Y-103261769D01*
X363849188Y-103278391D01*
X363860525Y-103295825D01*
X363870783Y-103314069D01*
X363879960Y-103333124D01*
X363888058Y-103352990D01*
X363895076Y-103373666D01*
X363901015Y-103395154D01*
X363905874Y-103417452D01*
X363909653Y-103440562D01*
X363912352Y-103464482D01*
X363913972Y-103489213D01*
X363914511Y-103514755D01*
X363914511Y-104265162D01*
X363915760Y-104287975D01*
X363919505Y-104310163D01*
X363925748Y-104331727D01*
X363934487Y-104352667D01*
X363945724Y-104372982D01*
X363955790Y-104387809D01*
X363967261Y-104402285D01*
X363980136Y-104416409D01*
X363994416Y-104430183D01*
X363994416Y-104472741D01*
X363614435Y-104472741D01*
X363602925Y-104456275D01*
X363593367Y-104438093D01*
X363585758Y-104418192D01*
X363581077Y-104401036D01*
X363577643Y-104382780D01*
X363575458Y-104363424D01*
X363574522Y-104342970D01*
X363574483Y-104337684D01*
X363551150Y-104360980D01*
X363527508Y-104382773D01*
X363503557Y-104403063D01*
X363479298Y-104421850D01*
X363454729Y-104439134D01*
X363429853Y-104454915D01*
X363404667Y-104469193D01*
X363379173Y-104481969D01*
X363353370Y-104493241D01*
X363327258Y-104503010D01*
X363300837Y-104511276D01*
X363274108Y-104518040D01*
X363247070Y-104523300D01*
X363219723Y-104527057D01*
X363192068Y-104529312D01*
X363164104Y-104530063D01*
X363141261Y-104529629D01*
X363118981Y-104528326D01*
X363097264Y-104526155D01*
X363076111Y-104523115D01*
X363055521Y-104519207D01*
X363035494Y-104514430D01*
X363016030Y-104508784D01*
X362997129Y-104502270D01*
X362978792Y-104494888D01*
X362961017Y-104486637D01*
X362943806Y-104477517D01*
X362927158Y-104467529D01*
X362911074Y-104456673D01*
X362895552Y-104444948D01*
X362880594Y-104432354D01*
X362866199Y-104418892D01*
X362852579Y-104404715D01*
X362839837Y-104389979D01*
X362827975Y-104374683D01*
X362816991Y-104358828D01*
X362806886Y-104342412D01*
X362797660Y-104325437D01*
X362789312Y-104307902D01*
X362781843Y-104289807D01*
X362775253Y-104271152D01*
X362769541Y-104251938D01*
X362764708Y-104232163D01*
X362760754Y-104211829D01*
X362757678Y-104190936D01*
X362755482Y-104169482D01*
X362754164Y-104147468D01*
X362753724Y-104124895D01*
X362754113Y-104102841D01*
X362755083Y-104084943D01*
X363104175Y-104084943D01*
X363104976Y-104103236D01*
X363107378Y-104120553D01*
X363112632Y-104140824D01*
X363120389Y-104159568D01*
X363130647Y-104176786D01*
X363143408Y-104192478D01*
X363155418Y-104203931D01*
X363172322Y-104216567D01*
X363191008Y-104227061D01*
X363207238Y-104233914D01*
X363224609Y-104239397D01*
X363243119Y-104243509D01*
X363262770Y-104246250D01*
X363283560Y-104247621D01*
X363294383Y-104247792D01*
X363318690Y-104247067D01*
X363341945Y-104244891D01*
X363364146Y-104241265D01*
X363385293Y-104236189D01*
X363405387Y-104229662D01*
X363424428Y-104221685D01*
X363442415Y-104212258D01*
X363459349Y-104201380D01*
X363475229Y-104189052D01*
X363490056Y-104175273D01*
X363499355Y-104165282D01*
X363512316Y-104149119D01*
X363524001Y-104131735D01*
X363534412Y-104113129D01*
X363543548Y-104093303D01*
X363551410Y-104072254D01*
X363557996Y-104049985D01*
X363563308Y-104026494D01*
X363567345Y-104001781D01*
X363570107Y-103975848D01*
X363571240Y-103957880D01*
X363571806Y-103939370D01*
X363571877Y-103929911D01*
X363571877Y-103834807D01*
X363555677Y-103841800D01*
X363536933Y-103848666D01*
X363520105Y-103854067D01*
X363501649Y-103859387D01*
X363481564Y-103864625D01*
X363459851Y-103869782D01*
X363442497Y-103873596D01*
X363424228Y-103877365D01*
X363304371Y-103899947D01*
X363284261Y-103904356D01*
X363265297Y-103909117D01*
X363247478Y-103914229D01*
X363230804Y-103919692D01*
X363210353Y-103927522D01*
X363191937Y-103935977D01*
X363175557Y-103945056D01*
X363157945Y-103957282D01*
X363148904Y-103965086D01*
X363136018Y-103979234D01*
X363125317Y-103995077D01*
X363116799Y-104012618D01*
X363110465Y-104031854D01*
X363106316Y-104052787D01*
X363104568Y-104070755D01*
X363104175Y-104084943D01*
X362755083Y-104084943D01*
X362755278Y-104081352D01*
X362757220Y-104060429D01*
X362759940Y-104040071D01*
X362763436Y-104020280D01*
X362767709Y-104001054D01*
X362772759Y-103982394D01*
X362778586Y-103964299D01*
X362785190Y-103946770D01*
X362792571Y-103929807D01*
X362800728Y-103913410D01*
X362809663Y-103897578D01*
X362819374Y-103882313D01*
X362829863Y-103867613D01*
X362841128Y-103853478D01*
X362853171Y-103839910D01*
X362865990Y-103826907D01*
X362879586Y-103814470D01*
X362893959Y-103802598D01*
X362909109Y-103791292D01*
X362925036Y-103780552D01*
X362941740Y-103770378D01*
X362959221Y-103760770D01*
X362977479Y-103751727D01*
X362996513Y-103743250D01*
X363016325Y-103735339D01*
X363036913Y-103727993D01*
X363058279Y-103721213D01*
X363080421Y-103714999D01*
X363103341Y-103709351D01*
X363127037Y-103704268D01*
X363151510Y-103699751D01*
X363291777Y-103674998D01*
X363309930Y-103673074D01*
X363328590Y-103670670D01*
X363341717Y-103668918D01*
X363359897Y-103666193D01*
X363378630Y-103663056D01*
X363396470Y-103659252D01*
X363399040Y-103658496D01*
X363415999Y-103654068D01*
X363433031Y-103650269D01*
X363447678Y-103647205D01*
X363466479Y-103642846D01*
X363483341Y-103637520D01*
X363498921Y-103629834D01*
X363513384Y-103619931D01*
X363527633Y-103609590D01*
X363535399Y-103603779D01*
X363548386Y-103591869D01*
X363558809Y-103577589D01*
X363564060Y-103565998D01*
X363568824Y-103549184D01*
X363571389Y-103530660D01*
X363571877Y-103517360D01*
X363570095Y-103493224D01*
X363564748Y-103471462D01*
X363555835Y-103452074D01*
X363543358Y-103435060D01*
X363527316Y-103420421D01*
X363507710Y-103408155D01*
X363484538Y-103398263D01*
X363467110Y-103392987D01*
X363448097Y-103388767D01*
X363427500Y-103385601D01*
X363405319Y-103383491D01*
X363381553Y-103382436D01*
X363369076Y-103382304D01*
X363345410Y-103382655D01*
X363323102Y-103383709D01*
X363302153Y-103385464D01*
X363282563Y-103387922D01*
X363264331Y-103391083D01*
X363242136Y-103396389D01*
X363222357Y-103402944D01*
X363204993Y-103410747D01*
X363190045Y-103419798D01*
X363186685Y-103422256D01*
X363171240Y-103436332D01*
X363160288Y-103449882D01*
X363150585Y-103465468D01*
X363142131Y-103483090D01*
X363134925Y-103502747D01*
X363128967Y-103524440D01*
X363125318Y-103542045D01*
X363122372Y-103560796D01*
X363121546Y-103567301D01*
X362784123Y-103567301D01*
X362786632Y-103538526D01*
X362790145Y-103510665D01*
X362794660Y-103483717D01*
X362800177Y-103457683D01*
X362806697Y-103432562D01*
X362814219Y-103408355D01*
X362822744Y-103385061D01*
X362832272Y-103362681D01*
X362842802Y-103341214D01*
X362854334Y-103320661D01*
X362866869Y-103301021D01*
X362880407Y-103282295D01*
X362894947Y-103264482D01*
X362910490Y-103247582D01*
X362927035Y-103231596D01*
X362944583Y-103216524D01*
X362963134Y-103202365D01*
X362982686Y-103189120D01*
X363003242Y-103176788D01*
X363024800Y-103165369D01*
X363047360Y-103154864D01*
X363070923Y-103145272D01*
X363095489Y-103136594D01*
X363121057Y-103128830D01*
X363147628Y-103121979D01*
X363175201Y-103116041D01*
X363203777Y-103111017D01*
X363233355Y-103106906D01*
X363263936Y-103103709D01*
X363295519Y-103101425D01*
X363328105Y-103100055D01*
X363361694Y-103099598D01*
X363395705Y-103100004D01*
G37*
G36*
X364480357Y-104080166D02*
G01*
X364485270Y-104100821D01*
X364491322Y-104120227D01*
X364498515Y-104138385D01*
X364506847Y-104155294D01*
X364516320Y-104170954D01*
X364526932Y-104185366D01*
X364538684Y-104198530D01*
X364551576Y-104210445D01*
X364566545Y-104220929D01*
X364584526Y-104230014D01*
X364605520Y-104237702D01*
X364623243Y-104242551D01*
X364642660Y-104246613D01*
X364663772Y-104249889D01*
X364686578Y-104252379D01*
X364711079Y-104254082D01*
X364737275Y-104255000D01*
X364755680Y-104255174D01*
X364778169Y-104254869D01*
X364799711Y-104253953D01*
X364820306Y-104252426D01*
X364839955Y-104250289D01*
X364858657Y-104247541D01*
X364876412Y-104244182D01*
X364898614Y-104238754D01*
X364919133Y-104232240D01*
X364937969Y-104224640D01*
X364946756Y-104220433D01*
X364962939Y-104211212D01*
X364980134Y-104198483D01*
X364993957Y-104184418D01*
X365004409Y-104169018D01*
X365011489Y-104152281D01*
X365015197Y-104134209D01*
X365015804Y-104122724D01*
X365014149Y-104103508D01*
X365009182Y-104086246D01*
X365000904Y-104070938D01*
X364989314Y-104057584D01*
X364973844Y-104045316D01*
X364956299Y-104035116D01*
X364938284Y-104026770D01*
X364921172Y-104020095D01*
X364902152Y-104013674D01*
X364898119Y-104012421D01*
X364480357Y-103882576D01*
X364462281Y-103877691D01*
X364449959Y-103873891D01*
X364433048Y-103868134D01*
X364416108Y-103861938D01*
X364411309Y-103859994D01*
X364394259Y-103852742D01*
X364377348Y-103846220D01*
X364370054Y-103843492D01*
X364352641Y-103836351D01*
X364336524Y-103828299D01*
X364323588Y-103820042D01*
X364309028Y-103808806D01*
X364294356Y-103797732D01*
X364282333Y-103788775D01*
X364267922Y-103776536D01*
X364255632Y-103763703D01*
X364244562Y-103748901D01*
X364243683Y-103747520D01*
X364234223Y-103731277D01*
X364225266Y-103715263D01*
X364216915Y-103699836D01*
X364215022Y-103696277D01*
X364207266Y-103679258D01*
X364200610Y-103660934D01*
X364195616Y-103643549D01*
X364192440Y-103629834D01*
X364189210Y-103610673D01*
X364186903Y-103590968D01*
X364185642Y-103573281D01*
X364185087Y-103555178D01*
X364185058Y-103549930D01*
X364185640Y-103524268D01*
X364187385Y-103499284D01*
X364190294Y-103474979D01*
X364194367Y-103451352D01*
X364199604Y-103428404D01*
X364206004Y-103406134D01*
X364213568Y-103384543D01*
X364222296Y-103363631D01*
X364232187Y-103343397D01*
X364243242Y-103323841D01*
X364255461Y-103304964D01*
X364268843Y-103286766D01*
X364283390Y-103269246D01*
X364299099Y-103252405D01*
X364315973Y-103236242D01*
X364334010Y-103220758D01*
X364353053Y-103206086D01*
X364372945Y-103192361D01*
X364393684Y-103179583D01*
X364415272Y-103167751D01*
X364437708Y-103156865D01*
X364460992Y-103146926D01*
X364485124Y-103137934D01*
X364510104Y-103129888D01*
X364535933Y-103122789D01*
X364562609Y-103116636D01*
X364590134Y-103111430D01*
X364618507Y-103107171D01*
X364647728Y-103103858D01*
X364677798Y-103101492D01*
X364708715Y-103100072D01*
X364740481Y-103099598D01*
X364774111Y-103100072D01*
X364806822Y-103101492D01*
X364838613Y-103103858D01*
X364869485Y-103107171D01*
X364899437Y-103111430D01*
X364928470Y-103116636D01*
X364956583Y-103122789D01*
X364983777Y-103129888D01*
X365010052Y-103137934D01*
X365035407Y-103146926D01*
X365059843Y-103156865D01*
X365083359Y-103167751D01*
X365105956Y-103179583D01*
X365127634Y-103192361D01*
X365148392Y-103206086D01*
X365168231Y-103220758D01*
X365187025Y-103236271D01*
X365204648Y-103252520D01*
X365221101Y-103269506D01*
X365236383Y-103287228D01*
X365250495Y-103305685D01*
X365263436Y-103324880D01*
X365275207Y-103344810D01*
X365285808Y-103365476D01*
X365295238Y-103386879D01*
X365303497Y-103409018D01*
X365310586Y-103431893D01*
X365316505Y-103455505D01*
X365321253Y-103479852D01*
X365324830Y-103504936D01*
X365327238Y-103530756D01*
X365328474Y-103557312D01*
X364990617Y-103557312D01*
X364989324Y-103535173D01*
X364986098Y-103514463D01*
X364980938Y-103495180D01*
X364973844Y-103477326D01*
X364964816Y-103460901D01*
X364953854Y-103445903D01*
X364940958Y-103432334D01*
X364926129Y-103420194D01*
X364909366Y-103409481D01*
X364890668Y-103400197D01*
X364870038Y-103392341D01*
X364847473Y-103385914D01*
X364822974Y-103380915D01*
X364796542Y-103377344D01*
X364768176Y-103375202D01*
X364737875Y-103374487D01*
X364715334Y-103375017D01*
X364693961Y-103376604D01*
X364673754Y-103379251D01*
X364654714Y-103382956D01*
X364636841Y-103387719D01*
X364620136Y-103393541D01*
X364600895Y-103402307D01*
X364590226Y-103408360D01*
X364574463Y-103419518D01*
X364561371Y-103431820D01*
X364549188Y-103448095D01*
X364540852Y-103466019D01*
X364536364Y-103485591D01*
X364535509Y-103499555D01*
X364537056Y-103518554D01*
X364542495Y-103537073D01*
X364551849Y-103552569D01*
X364560262Y-103561221D01*
X364575814Y-103571752D01*
X364591361Y-103579792D01*
X364610236Y-103587955D01*
X364628508Y-103594851D01*
X364649091Y-103601831D01*
X364657971Y-103604647D01*
X365100486Y-103732321D01*
X365132616Y-103742758D01*
X365162674Y-103754638D01*
X365190658Y-103767959D01*
X365216570Y-103782722D01*
X365240409Y-103798928D01*
X365262174Y-103816575D01*
X365281867Y-103835664D01*
X365299487Y-103856194D01*
X365315034Y-103878167D01*
X365328508Y-103901582D01*
X365339909Y-103926438D01*
X365349237Y-103952737D01*
X365356493Y-103980477D01*
X365361675Y-104009659D01*
X365364784Y-104040283D01*
X365365821Y-104072349D01*
X365365387Y-104091722D01*
X365364084Y-104110972D01*
X365361913Y-104130100D01*
X365358873Y-104149105D01*
X365354964Y-104167989D01*
X365350187Y-104186751D01*
X365344542Y-104205390D01*
X365338028Y-104223907D01*
X365330659Y-104242343D01*
X365322232Y-104260738D01*
X365312746Y-104279093D01*
X365302201Y-104297406D01*
X365290598Y-104315680D01*
X365277937Y-104333912D01*
X365264217Y-104352103D01*
X365253232Y-104365720D01*
X365249438Y-104370254D01*
X365237419Y-104383596D01*
X365224324Y-104396427D01*
X365210152Y-104408746D01*
X365194904Y-104420554D01*
X365178580Y-104431851D01*
X365161179Y-104442636D01*
X365142702Y-104452909D01*
X365123149Y-104462671D01*
X365102519Y-104471922D01*
X365080813Y-104480661D01*
X365065745Y-104486203D01*
X365042386Y-104494041D01*
X365018233Y-104501108D01*
X364993287Y-104507405D01*
X364976215Y-104511174D01*
X364958790Y-104514601D01*
X364941013Y-104517685D01*
X364922882Y-104520426D01*
X364904399Y-104522825D01*
X364885562Y-104524881D01*
X364866373Y-104526594D01*
X364846832Y-104527965D01*
X364826937Y-104528993D01*
X364806689Y-104529678D01*
X364786089Y-104530020D01*
X364775656Y-104530063D01*
X364737303Y-104529624D01*
X364700137Y-104528306D01*
X364664160Y-104526109D01*
X364629371Y-104523034D01*
X364595770Y-104519079D01*
X364563357Y-104514247D01*
X364532133Y-104508535D01*
X364502097Y-104501945D01*
X364473250Y-104494476D01*
X364445591Y-104486128D01*
X364419120Y-104476902D01*
X364393837Y-104466797D01*
X364369742Y-104455813D01*
X364346836Y-104443950D01*
X364325118Y-104431209D01*
X364304589Y-104417589D01*
X364285248Y-104403090D01*
X364267095Y-104387713D01*
X364250130Y-104371457D01*
X364234353Y-104354322D01*
X364219765Y-104336309D01*
X364206365Y-104317417D01*
X364194154Y-104297646D01*
X364183131Y-104276996D01*
X364173296Y-104255468D01*
X364164649Y-104233061D01*
X364157191Y-104209775D01*
X364150920Y-104185611D01*
X364145839Y-104160568D01*
X364141945Y-104134646D01*
X364139240Y-104107845D01*
X364137723Y-104080166D01*
X364480357Y-104080166D01*
G37*
G36*
X366215675Y-103149539D02*
G01*
X366215675Y-103382304D01*
X366020691Y-103382304D01*
X366020691Y-104117513D01*
X366021037Y-104139036D01*
X366022075Y-104158659D01*
X366023805Y-104176383D01*
X366026941Y-104195865D01*
X366032132Y-104215326D01*
X366040156Y-104232627D01*
X366042838Y-104236501D01*
X366057115Y-104249040D01*
X366074505Y-104257073D01*
X366093049Y-104261776D01*
X366111068Y-104264155D01*
X366131420Y-104265134D01*
X366135771Y-104265162D01*
X366153152Y-104264578D01*
X366171948Y-104263079D01*
X366190976Y-104261010D01*
X366209205Y-104258674D01*
X366215675Y-104257780D01*
X366215675Y-104502705D01*
X366193894Y-104509117D01*
X366176899Y-104513365D01*
X366159340Y-104517132D01*
X366141215Y-104520418D01*
X366122526Y-104523224D01*
X366103271Y-104525548D01*
X366083452Y-104527392D01*
X366063068Y-104528754D01*
X366042119Y-104529636D01*
X366020605Y-104530037D01*
X366013308Y-104530063D01*
X365992201Y-104529753D01*
X365971765Y-104528823D01*
X365951998Y-104527273D01*
X365932902Y-104525103D01*
X365914475Y-104522313D01*
X365896719Y-104518903D01*
X365879632Y-104514873D01*
X365847470Y-104504953D01*
X365817987Y-104492553D01*
X365791185Y-104477672D01*
X365767063Y-104460312D01*
X365745621Y-104440471D01*
X365726860Y-104418151D01*
X365710778Y-104393350D01*
X365697377Y-104366070D01*
X365686656Y-104336309D01*
X365678616Y-104304068D01*
X365673255Y-104269348D01*
X365671580Y-104251057D01*
X365670575Y-104232147D01*
X365670240Y-104212616D01*
X365670240Y-103382304D01*
X365497837Y-103382304D01*
X365497837Y-103149539D01*
X365670240Y-103149539D01*
X365670240Y-102786928D01*
X366020691Y-102786928D01*
X366020691Y-103149539D01*
X366215675Y-103149539D01*
G37*
G36*
X367033095Y-103099911D02*
G01*
X367054781Y-103100847D01*
X367076305Y-103102408D01*
X367097665Y-103104592D01*
X367118862Y-103107402D01*
X367139897Y-103110835D01*
X367160769Y-103114893D01*
X367181478Y-103119575D01*
X367202166Y-103125077D01*
X367222977Y-103131598D01*
X367243910Y-103139137D01*
X367264965Y-103147693D01*
X367280836Y-103154778D01*
X367296777Y-103162436D01*
X367312785Y-103170666D01*
X367328863Y-103179469D01*
X367345009Y-103188844D01*
X367350406Y-103192097D01*
X367366408Y-103202201D01*
X367382004Y-103212809D01*
X367397196Y-103223921D01*
X367411984Y-103235537D01*
X367426367Y-103247656D01*
X367440345Y-103260279D01*
X367453919Y-103273407D01*
X367467088Y-103287038D01*
X367479852Y-103301172D01*
X367492212Y-103315811D01*
X367500227Y-103325850D01*
X367511987Y-103341542D01*
X367523327Y-103358165D01*
X367534246Y-103375720D01*
X367544746Y-103394206D01*
X367554826Y-103413623D01*
X367564487Y-103433971D01*
X367573727Y-103455251D01*
X367582548Y-103477462D01*
X367590948Y-103500605D01*
X367598929Y-103524678D01*
X367604016Y-103541245D01*
X367608907Y-103558115D01*
X367613482Y-103575287D01*
X367617742Y-103592761D01*
X367621686Y-103610537D01*
X367625314Y-103628615D01*
X367628627Y-103646995D01*
X367631624Y-103665677D01*
X367634306Y-103684660D01*
X367636673Y-103703946D01*
X367638724Y-103723534D01*
X367640459Y-103743423D01*
X367641879Y-103763615D01*
X367642983Y-103784108D01*
X367643772Y-103804904D01*
X367644245Y-103826001D01*
X367644403Y-103847401D01*
X367644149Y-103866128D01*
X367643385Y-103884856D01*
X367642113Y-103903584D01*
X367641797Y-103907329D01*
X366736357Y-103907329D01*
X366737138Y-103926430D01*
X366738176Y-103944866D01*
X366739472Y-103962637D01*
X366741455Y-103983915D01*
X366743840Y-104004155D01*
X366746628Y-104023355D01*
X366749820Y-104041517D01*
X366753772Y-104058970D01*
X366758573Y-104076317D01*
X366764222Y-104093558D01*
X366770719Y-104110693D01*
X366778064Y-104127723D01*
X366786257Y-104144646D01*
X366789772Y-104151385D01*
X366799522Y-104167598D01*
X366810586Y-104182581D01*
X366822965Y-104196334D01*
X366836659Y-104208857D01*
X366851667Y-104220151D01*
X366867990Y-104230214D01*
X366874888Y-104233895D01*
X366893229Y-104242152D01*
X366912970Y-104249010D01*
X366929771Y-104253488D01*
X366947467Y-104257071D01*
X366966059Y-104259758D01*
X366985547Y-104261549D01*
X367005930Y-104262445D01*
X367016458Y-104262557D01*
X367040963Y-104261892D01*
X367064430Y-104259897D01*
X367086859Y-104256572D01*
X367108250Y-104251917D01*
X367128603Y-104245933D01*
X367147917Y-104238618D01*
X367166194Y-104229973D01*
X367183432Y-104219999D01*
X367199632Y-104208695D01*
X367214794Y-104196060D01*
X367228918Y-104182096D01*
X367242003Y-104166802D01*
X367254051Y-104150178D01*
X367265060Y-104132223D01*
X367275031Y-104112939D01*
X367283964Y-104092325D01*
X367629204Y-104092325D01*
X367621597Y-104117033D01*
X367613109Y-104141105D01*
X367603738Y-104164544D01*
X367593486Y-104187348D01*
X367582351Y-104209517D01*
X367570334Y-104231052D01*
X367557435Y-104251953D01*
X367543654Y-104272219D01*
X367528991Y-104291851D01*
X367513445Y-104310848D01*
X367497018Y-104329211D01*
X367479708Y-104346940D01*
X367461517Y-104364034D01*
X367442443Y-104380493D01*
X367422487Y-104396319D01*
X367401650Y-104411509D01*
X367380147Y-104425865D01*
X367358196Y-104439295D01*
X367335798Y-104451799D01*
X367312951Y-104463377D01*
X367289657Y-104474028D01*
X367265915Y-104483753D01*
X367241725Y-104492552D01*
X367217087Y-104500425D01*
X367192002Y-104507371D01*
X367166469Y-104513392D01*
X367140487Y-104518486D01*
X367114058Y-104522654D01*
X367087181Y-104525895D01*
X367059857Y-104528211D01*
X367032084Y-104529600D01*
X367003864Y-104530063D01*
X366986015Y-104529881D01*
X366968405Y-104529336D01*
X366951033Y-104528426D01*
X366917005Y-104525515D01*
X366883929Y-104521149D01*
X366851808Y-104515327D01*
X366820639Y-104508049D01*
X366790424Y-104499317D01*
X366761162Y-104489128D01*
X366732853Y-104477485D01*
X366705498Y-104464386D01*
X366679096Y-104449831D01*
X366653648Y-104433821D01*
X366629152Y-104416355D01*
X366605611Y-104397434D01*
X366583022Y-104377058D01*
X366561387Y-104355226D01*
X366550927Y-104343764D01*
X366530944Y-104319934D01*
X366512250Y-104295018D01*
X366494846Y-104269017D01*
X366478730Y-104241929D01*
X366463904Y-104213756D01*
X366450368Y-104184498D01*
X366438120Y-104154154D01*
X366427162Y-104122724D01*
X366417492Y-104090208D01*
X366409113Y-104056607D01*
X366405406Y-104039400D01*
X366402022Y-104021920D01*
X366398960Y-104004170D01*
X366396220Y-103986148D01*
X366393803Y-103967855D01*
X366391708Y-103949290D01*
X366389935Y-103930454D01*
X366388485Y-103911346D01*
X366387357Y-103891967D01*
X366386551Y-103872317D01*
X366386068Y-103852395D01*
X366385907Y-103832201D01*
X366386070Y-103811090D01*
X366386561Y-103790259D01*
X366387380Y-103769709D01*
X366388526Y-103749440D01*
X366389999Y-103729452D01*
X366391800Y-103709744D01*
X366393928Y-103690317D01*
X366395892Y-103674998D01*
X366741134Y-103674998D01*
X367279187Y-103674998D01*
X367277392Y-103656806D01*
X367275157Y-103639144D01*
X367270976Y-103613643D01*
X367265803Y-103589333D01*
X367259638Y-103566213D01*
X367252480Y-103544285D01*
X367244330Y-103523547D01*
X367235187Y-103504000D01*
X367225053Y-103485644D01*
X367213925Y-103468478D01*
X367201806Y-103452504D01*
X367197546Y-103447444D01*
X367184207Y-103433086D01*
X367169922Y-103420141D01*
X367154691Y-103408608D01*
X367138513Y-103398487D01*
X367121388Y-103389779D01*
X367103317Y-103382482D01*
X367084299Y-103376598D01*
X367064335Y-103372126D01*
X367043424Y-103369066D01*
X367021567Y-103367419D01*
X367006469Y-103367105D01*
X366978461Y-103368308D01*
X366951976Y-103371916D01*
X366927014Y-103377929D01*
X366903576Y-103386348D01*
X366881661Y-103397173D01*
X366861269Y-103410402D01*
X366842401Y-103426038D01*
X366825056Y-103444078D01*
X366809234Y-103464524D01*
X366794936Y-103487376D01*
X366782160Y-103512632D01*
X366770909Y-103540295D01*
X366761180Y-103570362D01*
X366752975Y-103602836D01*
X366749443Y-103619974D01*
X366746293Y-103637714D01*
X366743523Y-103656055D01*
X366741134Y-103674998D01*
X366395892Y-103674998D01*
X366396383Y-103671171D01*
X366399166Y-103652306D01*
X366402276Y-103633721D01*
X366405714Y-103615417D01*
X366409479Y-103597394D01*
X366413571Y-103579651D01*
X366417991Y-103562189D01*
X366422738Y-103545008D01*
X366427813Y-103528108D01*
X366433215Y-103511489D01*
X366445001Y-103479092D01*
X366458097Y-103447818D01*
X366472502Y-103417667D01*
X366488217Y-103388640D01*
X366505242Y-103360735D01*
X366523576Y-103333953D01*
X366543219Y-103308294D01*
X366553532Y-103295886D01*
X366574964Y-103272116D01*
X366597352Y-103249881D01*
X366620697Y-103229179D01*
X366644999Y-103210010D01*
X366670258Y-103192375D01*
X366696473Y-103176273D01*
X366723645Y-103161705D01*
X366751774Y-103148670D01*
X366780859Y-103137169D01*
X366810902Y-103127201D01*
X366841900Y-103118767D01*
X366873856Y-103111866D01*
X366906769Y-103106499D01*
X366940638Y-103102665D01*
X366975464Y-103100365D01*
X366993235Y-103099790D01*
X367011246Y-103099598D01*
X367033095Y-103099911D01*
G37*
%TO.C,Q1*%
G36*
X270123000Y-90097000D02*
G01*
X270623000Y-90097000D01*
X270623000Y-89597000D01*
X270123000Y-89597000D01*
X270123000Y-90097000D01*
G37*
G36*
X271403000Y-90097000D02*
G01*
X271903000Y-90097000D01*
X271903000Y-89597000D01*
X271403000Y-89597000D01*
X271403000Y-90097000D01*
G37*
G36*
X272671462Y-90097000D02*
G01*
X273171462Y-90097000D01*
X273171462Y-89597000D01*
X272671462Y-89597000D01*
X272671462Y-90097000D01*
G37*
G36*
X273953000Y-90097000D02*
G01*
X274453000Y-90097000D01*
X274453000Y-89597000D01*
X273953000Y-89597000D01*
X273953000Y-90097000D01*
G37*
G36*
X270408000Y-88982000D02*
G01*
X271978000Y-88982000D01*
X271978000Y-87397000D01*
X270408000Y-87397000D01*
X270408000Y-88982000D01*
G37*
G36*
X272598000Y-88982000D02*
G01*
X274168000Y-88982000D01*
X274168000Y-87397000D01*
X272598000Y-87397000D01*
X272598000Y-88982000D01*
G37*
G36*
X270408000Y-85859500D02*
G01*
X271978000Y-85859500D01*
X271978000Y-87094500D01*
X270408000Y-87094500D01*
X270408000Y-85859500D01*
G37*
G36*
X272598000Y-85859500D02*
G01*
X274168000Y-85859500D01*
X274168000Y-87094500D01*
X272598000Y-87094500D01*
X272598000Y-85859500D01*
G37*
%TD*%
D11*
%TO.C,C9*%
X230329000Y-131953000D03*
X227379000Y-131953000D03*
%TD*%
D12*
%TO.C,D6*%
X238396000Y-157429000D03*
X238396000Y-154229000D03*
X237346000Y-157429000D03*
X237346000Y-154229000D03*
%TD*%
D13*
%TO.C,R5*%
X310579000Y-92964000D03*
X312229000Y-92964000D03*
%TD*%
D14*
%TO.C,R2*%
X321881000Y-87630000D03*
X320231000Y-87630000D03*
%TD*%
D15*
%TO.C,D5*%
X231131000Y-135890000D03*
X226831000Y-135890000D03*
%TD*%
D16*
%TO.C,Q2*%
X229551000Y-103505000D03*
X229551000Y-102235000D03*
X229551000Y-100965000D03*
X229551000Y-99695000D03*
X224601000Y-99695000D03*
X224601000Y-100965000D03*
X224601000Y-102235000D03*
X224601000Y-103505000D03*
%TD*%
D17*
%TO.C,J3*%
X325319000Y-86638000D03*
X325319000Y-87638000D03*
X325319000Y-88638000D03*
X325319000Y-89638000D03*
D18*
X327844000Y-85338000D03*
X327844000Y-90938000D03*
%TD*%
D19*
%TO.C,R9*%
X299974000Y-97980000D03*
X299974000Y-96330000D03*
%TD*%
D20*
%TO.C,C1*%
X256299000Y-84836000D03*
X254749000Y-84836000D03*
%TD*%
D21*
%TO.C,C7*%
X310896000Y-96205000D03*
X310896000Y-98105000D03*
%TD*%
D14*
%TO.C,R7*%
X315658000Y-96012000D03*
X314008000Y-96012000D03*
%TD*%
%TO.C,R1*%
X256349000Y-87884000D03*
X254699000Y-87884000D03*
%TD*%
D22*
%TO.C,U2*%
X307640500Y-89449000D03*
X307640500Y-90099000D03*
X307640500Y-90749000D03*
X307640500Y-91399000D03*
X311865500Y-91399000D03*
X311865500Y-90749000D03*
X311865500Y-90099000D03*
X311865500Y-89449000D03*
%TD*%
D20*
%TO.C,C2*%
X256299000Y-86360000D03*
X254749000Y-86360000D03*
%TD*%
D23*
%TO.C,J8*%
X324484799Y-143889300D03*
X323684801Y-143889300D03*
X322884800Y-143889300D03*
X322084799Y-143889300D03*
X321284801Y-143889300D03*
D24*
X325784799Y-142489300D03*
X319984801Y-142489300D03*
%TD*%
D25*
%TO.C,D3*%
X318340500Y-95951000D03*
X318340500Y-97851000D03*
X320215500Y-96901000D03*
%TD*%
D26*
%TO.C,D1*%
X227838000Y-94231000D03*
X227838000Y-97031000D03*
%TD*%
D27*
%TO.C,U4*%
X308370000Y-94767000D03*
X306070000Y-94767000D03*
D28*
X306070000Y-101067000D03*
D27*
X303770000Y-94767000D03*
%TD*%
D29*
%TO.C,C6*%
X301498000Y-96380000D03*
X301498000Y-97930000D03*
%TD*%
D30*
%TO.C,U5*%
X319567000Y-105156000D03*
X319567000Y-103886000D03*
X319567000Y-102616000D03*
X319567000Y-101346000D03*
X314417000Y-101346000D03*
X314417000Y-102616000D03*
X314417000Y-103886000D03*
X314417000Y-105156000D03*
%TD*%
D31*
%TO.C,Q1*%
X274208000Y-84372000D03*
X272928000Y-84372000D03*
X271648000Y-84372000D03*
X270368000Y-84372000D03*
%TD*%
D32*
%TO.C,L1*%
X251142500Y-98806000D03*
X266433300Y-98806000D03*
%TD*%
D19*
%TO.C,R6*%
X229870000Y-96583000D03*
X229870000Y-94933000D03*
%TD*%
D33*
%TO.C,J14*%
X253500000Y-149315000D03*
X253000000Y-149315000D03*
X252500000Y-149315000D03*
X252000000Y-149315000D03*
X251500000Y-149315000D03*
X251000000Y-149315000D03*
X250500000Y-149315000D03*
X250000000Y-149315000D03*
X249500000Y-149315000D03*
X249000000Y-149315000D03*
X248500000Y-149315000D03*
X248000000Y-149315000D03*
X247500000Y-149315000D03*
X247000000Y-149315000D03*
X246500000Y-149315000D03*
X246000000Y-149315000D03*
X245500000Y-149315000D03*
X245000000Y-149315000D03*
X244500000Y-149315000D03*
%TD*%
D34*
%TO.C,D2*%
X272258000Y-94234000D03*
D35*
X278983000Y-93999000D03*
X278983000Y-99549000D03*
X283833000Y-93999000D03*
X283833000Y-99549000D03*
D34*
X272258000Y-99314000D03*
%TD*%
D36*
%TO.C,J5*%
X242000000Y-137350000D03*
D37*
X242000000Y-133600000D03*
D36*
X243000000Y-137350000D03*
D37*
X243000000Y-133600000D03*
D36*
X244000000Y-137350000D03*
D37*
X244000000Y-133600000D03*
D36*
X245000000Y-137350000D03*
D37*
X245000000Y-133600000D03*
D36*
X246000000Y-137350000D03*
D37*
X246000000Y-133600000D03*
D36*
X247000000Y-137350000D03*
D37*
X247000000Y-133600000D03*
D36*
X248000000Y-137350000D03*
D37*
X248000000Y-133600000D03*
D36*
X249000000Y-137350000D03*
D37*
X249000000Y-133600000D03*
D36*
X250000000Y-137350000D03*
D37*
X250000000Y-133600000D03*
D36*
X251000000Y-137350000D03*
D37*
X251000000Y-133600000D03*
D36*
X252000000Y-137350000D03*
D37*
X252000000Y-133600000D03*
D36*
X253000000Y-137350000D03*
D37*
X253000000Y-133600000D03*
D36*
X254000000Y-137350000D03*
D37*
X254000000Y-133600000D03*
D36*
X255000000Y-137350000D03*
D37*
X255000000Y-133600000D03*
D36*
X256000000Y-137350000D03*
D37*
X256000000Y-133600000D03*
%TD*%
D38*
%TO.C,U1*%
X259399000Y-83693000D03*
X259399000Y-84963000D03*
X259399000Y-86233000D03*
X259399000Y-87503000D03*
X264349000Y-87503000D03*
X264349000Y-86233000D03*
X264349000Y-84963000D03*
X264349000Y-83693000D03*
%TD*%
D19*
%TO.C,R11*%
X237109000Y-148018000D03*
X237109000Y-146368000D03*
%TD*%
D23*
%TO.C,J7*%
X298246599Y-143889300D03*
X297446601Y-143889300D03*
X296646600Y-143889300D03*
X295846599Y-143889300D03*
X295046601Y-143889300D03*
D24*
X299546599Y-142489300D03*
X293746601Y-142489300D03*
%TD*%
D36*
%TO.C,J6*%
X266000000Y-137349440D03*
D37*
X266000000Y-133599440D03*
D36*
X267000000Y-137349440D03*
D37*
X267000000Y-133599440D03*
D36*
X268000000Y-137349440D03*
D37*
X268000000Y-133599440D03*
D36*
X269000000Y-137349440D03*
D37*
X269000000Y-133599440D03*
D36*
X270000000Y-137349440D03*
D37*
X270000000Y-133599440D03*
D36*
X271000000Y-137349440D03*
D37*
X271000000Y-133599440D03*
D36*
X272000000Y-137349440D03*
D37*
X272000000Y-133599440D03*
D36*
X273000000Y-137349440D03*
D37*
X273000000Y-133599440D03*
D36*
X274000000Y-137349440D03*
D37*
X274000000Y-133599440D03*
D36*
X275000000Y-137349440D03*
D37*
X275000000Y-133599440D03*
D36*
X276000000Y-137349440D03*
D37*
X276000000Y-133599440D03*
D36*
X277000000Y-137349440D03*
D37*
X277000000Y-133599440D03*
D36*
X278000000Y-137349440D03*
D37*
X278000000Y-133599440D03*
D36*
X279000000Y-137349440D03*
D37*
X279000000Y-133599440D03*
D36*
X280000000Y-137349440D03*
D37*
X280000000Y-133599440D03*
%TD*%
D14*
%TO.C,R8*%
X233489000Y-96520000D03*
X231839000Y-96520000D03*
%TD*%
D33*
%TO.C,J15*%
X277500000Y-149315000D03*
X277000000Y-149315000D03*
X276500000Y-149315000D03*
X276000000Y-149315000D03*
X275500000Y-149315000D03*
X275000000Y-149315000D03*
X274500000Y-149315000D03*
X274000000Y-149315000D03*
X273500000Y-149315000D03*
X273000000Y-149315000D03*
X272500000Y-149315000D03*
X272000000Y-149315000D03*
X271500000Y-149315000D03*
X271000000Y-149315000D03*
X270500000Y-149315000D03*
X270000000Y-149315000D03*
X269500000Y-149315000D03*
X269000000Y-149315000D03*
X268500000Y-149315000D03*
%TD*%
D19*
%TO.C,R4*%
X302514000Y-91503000D03*
X302514000Y-89853000D03*
%TD*%
D29*
%TO.C,C5*%
X304927000Y-89903000D03*
X304927000Y-91453000D03*
%TD*%
D25*
%TO.C,D4*%
X310212500Y-103317000D03*
X310212500Y-105217000D03*
X312087500Y-104267000D03*
%TD*%
D14*
%TO.C,R10*%
X315658000Y-97536000D03*
X314008000Y-97536000D03*
%TD*%
D38*
%TO.C,U3*%
X315406000Y-89535000D03*
X315406000Y-90805000D03*
X315406000Y-92075000D03*
X315406000Y-93345000D03*
X320356000Y-93345000D03*
X320356000Y-92075000D03*
X320356000Y-90805000D03*
X320356000Y-89535000D03*
%TD*%
D19*
%TO.C,R3*%
X299974000Y-91503000D03*
X299974000Y-89853000D03*
%TD*%
M02*
