%TF.GenerationSoftware,KiCad,Pcbnew,7.0.9-7.0.9~ubuntu22.04.1*%
%TF.CreationDate,2023-12-27T17:21:17-08:00*%
%TF.ProjectId,NX-J401-Adapter,4e582d4a-3430-4312-9d41-646170746572,1*%
%TF.SameCoordinates,Original*%
%TF.FileFunction,Copper,L3,Inr*%
%TF.FilePolarity,Positive*%
%FSLAX46Y46*%
G04 Gerber Fmt 4.6, Leading zero omitted, Abs format (unit mm)*
G04 Created by KiCad (PCBNEW 7.0.9-7.0.9~ubuntu22.04.1) date 2023-12-27 17:21:17*
%MOMM*%
%LPD*%
G01*
G04 APERTURE LIST*
%ADD10C,0.300000*%
%TA.AperFunction,NonConductor*%
%ADD11C,0.300000*%
%TD*%
%TA.AperFunction,ComponentPad*%
%ADD12R,1.778000X1.778000*%
%TD*%
%TA.AperFunction,ComponentPad*%
%ADD13C,1.778000*%
%TD*%
%TA.AperFunction,ComponentPad*%
%ADD14R,2.000000X2.000000*%
%TD*%
%TA.AperFunction,ComponentPad*%
%ADD15C,2.000000*%
%TD*%
%TA.AperFunction,ComponentPad*%
%ADD16C,2.200000*%
%TD*%
%TA.AperFunction,ComponentPad*%
%ADD17R,1.600000X1.600000*%
%TD*%
%TA.AperFunction,ComponentPad*%
%ADD18C,1.600000*%
%TD*%
%TA.AperFunction,ComponentPad*%
%ADD19O,1.500000X3.300000*%
%TD*%
%TA.AperFunction,ComponentPad*%
%ADD20O,1.500000X2.300000*%
%TD*%
%TA.AperFunction,ComponentPad*%
%ADD21C,1.701800*%
%TD*%
%TA.AperFunction,ComponentPad*%
%ADD22R,1.905000X1.600200*%
%TD*%
%TA.AperFunction,ComponentPad*%
%ADD23O,1.905000X1.600200*%
%TD*%
%TA.AperFunction,ViaPad*%
%ADD24C,0.812800*%
%TD*%
G04 APERTURE END LIST*
D10*
D11*
G36*
X309590267Y-83392233D02*
G01*
X309568732Y-83392520D01*
X309547681Y-83393380D01*
X309527113Y-83394812D01*
X309507028Y-83396819D01*
X309487425Y-83399398D01*
X309468306Y-83402550D01*
X309449670Y-83406276D01*
X309431517Y-83410574D01*
X309413846Y-83415446D01*
X309396659Y-83420891D01*
X309385469Y-83424840D01*
X309369180Y-83431102D01*
X309353561Y-83437660D01*
X309338612Y-83444514D01*
X309324332Y-83451664D01*
X309310722Y-83459111D01*
X309297782Y-83466854D01*
X309285512Y-83474893D01*
X309270193Y-83486073D01*
X309256065Y-83497780D01*
X309246251Y-83506905D01*
X309233840Y-83519636D01*
X309222071Y-83532917D01*
X309210942Y-83546747D01*
X309200455Y-83561127D01*
X309190609Y-83576057D01*
X309181404Y-83591535D01*
X309172840Y-83607564D01*
X309164918Y-83624142D01*
X309157545Y-83640966D01*
X309150813Y-83657550D01*
X309144722Y-83673893D01*
X309139272Y-83689996D01*
X309134464Y-83705858D01*
X309130296Y-83721480D01*
X309126770Y-83736862D01*
X309123885Y-83752003D01*
X309121395Y-83767110D01*
X309119237Y-83782388D01*
X309117411Y-83797839D01*
X309115917Y-83813461D01*
X309114755Y-83829254D01*
X309113925Y-83845220D01*
X309113426Y-83861357D01*
X309113260Y-83877666D01*
X309113694Y-83904476D01*
X309114995Y-83930594D01*
X309117163Y-83956019D01*
X309120199Y-83980752D01*
X309124101Y-84004791D01*
X309128871Y-84028139D01*
X309134508Y-84050793D01*
X309141013Y-84072755D01*
X309148384Y-84094024D01*
X309156623Y-84114601D01*
X309165729Y-84134484D01*
X309175703Y-84153676D01*
X309186543Y-84172174D01*
X309198251Y-84189980D01*
X309210826Y-84207093D01*
X309224269Y-84223514D01*
X309238391Y-84239130D01*
X309253097Y-84253739D01*
X309268387Y-84267340D01*
X309284261Y-84279934D01*
X309300719Y-84291520D01*
X309317760Y-84302099D01*
X309335386Y-84311670D01*
X309353595Y-84320234D01*
X309372389Y-84327790D01*
X309391766Y-84334339D01*
X309411727Y-84339880D01*
X309432272Y-84344414D01*
X309453401Y-84347940D01*
X309475114Y-84350459D01*
X309497411Y-84351970D01*
X309520291Y-84352474D01*
X309539480Y-84352065D01*
X309558167Y-84350838D01*
X309576351Y-84348794D01*
X309594033Y-84345931D01*
X309611213Y-84342251D01*
X309627891Y-84337752D01*
X309644066Y-84332436D01*
X309659739Y-84326302D01*
X309674909Y-84319350D01*
X309689577Y-84311580D01*
X309699077Y-84305946D01*
X309713007Y-84296723D01*
X309726769Y-84286501D01*
X309740364Y-84275282D01*
X309753791Y-84263064D01*
X309767051Y-84249848D01*
X309780144Y-84235634D01*
X309793069Y-84220422D01*
X309805826Y-84204211D01*
X309818417Y-84187002D01*
X309830839Y-84168795D01*
X309839028Y-84156103D01*
X309846788Y-84171683D01*
X309854770Y-84186734D01*
X309862976Y-84201256D01*
X309871406Y-84215248D01*
X309880058Y-84228710D01*
X309888934Y-84241643D01*
X309898033Y-84254047D01*
X309907355Y-84265920D01*
X309916901Y-84277265D01*
X309931637Y-84293289D01*
X309946877Y-84308121D01*
X309962618Y-84321762D01*
X309978862Y-84334212D01*
X309989970Y-84341849D01*
X310007161Y-84352391D01*
X310025072Y-84361895D01*
X310043706Y-84370363D01*
X310063060Y-84377793D01*
X310083135Y-84384187D01*
X310103932Y-84389544D01*
X310125451Y-84393864D01*
X310140197Y-84396168D01*
X310155263Y-84398012D01*
X310170651Y-84399394D01*
X310186359Y-84400316D01*
X310202387Y-84400777D01*
X310210521Y-84400834D01*
X310237602Y-84400277D01*
X310263982Y-84398607D01*
X310289660Y-84395824D01*
X310314638Y-84391927D01*
X310338914Y-84386917D01*
X310362488Y-84380793D01*
X310385362Y-84373556D01*
X310407534Y-84365205D01*
X310429005Y-84355741D01*
X310449775Y-84345164D01*
X310469843Y-84333473D01*
X310489210Y-84320669D01*
X310507876Y-84306751D01*
X310525841Y-84291721D01*
X310543104Y-84275576D01*
X310559667Y-84258318D01*
X310575372Y-84240173D01*
X310590063Y-84221276D01*
X310603742Y-84201625D01*
X310616407Y-84181222D01*
X310628059Y-84160066D01*
X310638698Y-84138157D01*
X310648324Y-84115495D01*
X310656936Y-84092081D01*
X310664536Y-84067913D01*
X310671122Y-84042994D01*
X310676694Y-84017321D01*
X310681254Y-83990895D01*
X310684800Y-83963717D01*
X310687333Y-83935786D01*
X310688853Y-83907102D01*
X310689360Y-83877666D01*
X310688844Y-83849273D01*
X310687299Y-83821612D01*
X310684723Y-83794684D01*
X310681116Y-83768489D01*
X310676480Y-83743027D01*
X310670812Y-83718297D01*
X310664115Y-83694301D01*
X310656387Y-83671036D01*
X310647628Y-83648505D01*
X310637840Y-83626706D01*
X310627020Y-83605640D01*
X310615171Y-83585307D01*
X310602291Y-83565707D01*
X310588380Y-83546839D01*
X310573440Y-83528704D01*
X310557468Y-83511302D01*
X310540624Y-83494834D01*
X310523065Y-83479411D01*
X310504789Y-83465032D01*
X310485798Y-83451699D01*
X310466092Y-83439410D01*
X310445670Y-83428166D01*
X310424533Y-83417966D01*
X310402680Y-83408811D01*
X310380111Y-83400701D01*
X310356827Y-83393636D01*
X310332827Y-83387615D01*
X310308112Y-83382639D01*
X310282681Y-83378708D01*
X310256535Y-83375821D01*
X310229673Y-83373979D01*
X310202095Y-83373182D01*
X310202095Y-83660046D01*
X310230444Y-83662423D01*
X310256964Y-83666348D01*
X310281655Y-83671822D01*
X310304517Y-83678845D01*
X310325550Y-83687416D01*
X310344754Y-83697535D01*
X310362129Y-83709203D01*
X310377675Y-83722419D01*
X310391392Y-83737184D01*
X310403281Y-83753497D01*
X310413340Y-83771359D01*
X310421570Y-83790769D01*
X310427972Y-83811728D01*
X310432544Y-83834235D01*
X310435287Y-83858290D01*
X310436202Y-83883894D01*
X310435648Y-83901792D01*
X310433987Y-83919078D01*
X310431217Y-83935752D01*
X310427340Y-83951815D01*
X310422356Y-83967265D01*
X310416264Y-83982104D01*
X310409064Y-83996331D01*
X310400756Y-84009946D01*
X310391341Y-84022950D01*
X310380818Y-84035341D01*
X310373187Y-84043263D01*
X310360988Y-84054393D01*
X310348157Y-84064429D01*
X310334695Y-84073370D01*
X310320602Y-84081216D01*
X310305879Y-84087967D01*
X310290523Y-84093623D01*
X310274537Y-84098185D01*
X310257920Y-84101652D01*
X310240671Y-84104024D01*
X310222792Y-84105301D01*
X310210521Y-84105545D01*
X310195262Y-84105155D01*
X310180395Y-84103986D01*
X310161184Y-84101215D01*
X310142671Y-84097059D01*
X310124857Y-84091518D01*
X310107741Y-84084592D01*
X310091323Y-84076280D01*
X310075604Y-84066583D01*
X310068006Y-84061214D01*
X310053592Y-84049668D01*
X310040391Y-84037195D01*
X310028404Y-84023794D01*
X310017631Y-84009465D01*
X310008071Y-83994210D01*
X309999725Y-83978027D01*
X309992592Y-83960916D01*
X309986673Y-83942879D01*
X309983238Y-83927274D01*
X309980262Y-83909952D01*
X309977743Y-83890912D01*
X309976154Y-83875506D01*
X309974823Y-83859133D01*
X309973750Y-83841794D01*
X309972934Y-83823490D01*
X309972376Y-83804219D01*
X309972076Y-83783983D01*
X309972018Y-83769955D01*
X309773815Y-83769955D01*
X309773815Y-83795234D01*
X309773595Y-83811328D01*
X309772932Y-83826910D01*
X309771829Y-83841982D01*
X309768297Y-83870593D01*
X309762999Y-83897160D01*
X309755935Y-83921683D01*
X309747105Y-83944163D01*
X309736509Y-83964599D01*
X309724147Y-83982992D01*
X309710019Y-83999341D01*
X309694125Y-84013646D01*
X309676465Y-84025908D01*
X309657039Y-84036126D01*
X309635847Y-84044301D01*
X309612889Y-84050432D01*
X309588166Y-84054519D01*
X309561676Y-84056563D01*
X309547769Y-84056818D01*
X309530750Y-84056390D01*
X309514452Y-84055105D01*
X309498876Y-84052964D01*
X309484021Y-84049966D01*
X309465337Y-84044636D01*
X309447934Y-84037784D01*
X309431814Y-84029409D01*
X309416976Y-84019512D01*
X309403421Y-84008092D01*
X309391314Y-83995372D01*
X309380821Y-83981393D01*
X309371942Y-83966154D01*
X309364678Y-83949657D01*
X309359028Y-83931899D01*
X309354992Y-83912883D01*
X309353025Y-83897794D01*
X309351965Y-83881996D01*
X309351764Y-83871071D01*
X309352340Y-83850008D01*
X309354069Y-83830233D01*
X309356951Y-83811746D01*
X309360986Y-83794547D01*
X309366173Y-83778636D01*
X309372513Y-83764013D01*
X309380006Y-83750678D01*
X309388652Y-83738631D01*
X309401973Y-83724571D01*
X309417343Y-83712802D01*
X309430166Y-83705237D01*
X309444180Y-83698342D01*
X309459386Y-83692117D01*
X309475784Y-83686561D01*
X309493372Y-83681675D01*
X309512152Y-83677459D01*
X309532124Y-83673913D01*
X309553287Y-83671036D01*
X309568057Y-83669491D01*
X309583357Y-83668243D01*
X309599187Y-83667293D01*
X309615546Y-83666640D01*
X309615546Y-83392233D01*
X309590267Y-83392233D01*
G37*
D10*
D11*
G36*
X359350399Y-97569267D02*
G01*
X359350399Y-99392741D01*
X358975195Y-99392741D01*
X358975195Y-97569267D01*
X359350399Y-97569267D01*
G37*
G36*
X359708667Y-98042180D02*
G01*
X360059118Y-98042180D01*
X360059118Y-98237165D01*
X360077698Y-98210819D01*
X360097177Y-98186173D01*
X360117555Y-98163226D01*
X360138832Y-98141979D01*
X360161008Y-98122432D01*
X360184084Y-98104585D01*
X360208058Y-98088438D01*
X360232932Y-98073990D01*
X360258704Y-98061242D01*
X360285376Y-98050194D01*
X360312946Y-98040845D01*
X360341416Y-98033196D01*
X360370785Y-98027247D01*
X360401053Y-98022998D01*
X360432220Y-98020448D01*
X360464286Y-98019598D01*
X360490779Y-98020077D01*
X360516519Y-98021512D01*
X360541507Y-98023904D01*
X360565740Y-98027252D01*
X360589221Y-98031558D01*
X360611949Y-98036820D01*
X360633923Y-98043038D01*
X360655145Y-98050214D01*
X360675613Y-98058346D01*
X360695328Y-98067435D01*
X360714289Y-98077481D01*
X360732498Y-98088484D01*
X360749953Y-98100443D01*
X360766655Y-98113359D01*
X360782604Y-98127231D01*
X360797800Y-98142061D01*
X360812209Y-98157760D01*
X360825688Y-98174244D01*
X360838238Y-98191511D01*
X360849858Y-98209562D01*
X360860548Y-98228396D01*
X360870309Y-98248014D01*
X360879140Y-98268416D01*
X360887041Y-98289602D01*
X360894013Y-98311571D01*
X360900056Y-98334324D01*
X360905169Y-98357861D01*
X360909352Y-98382182D01*
X360912605Y-98407286D01*
X360914929Y-98433174D01*
X360916324Y-98459845D01*
X360916788Y-98487301D01*
X360916788Y-99392741D01*
X360566772Y-99392741D01*
X360566772Y-98559823D01*
X360565893Y-98530427D01*
X360563257Y-98502927D01*
X360558864Y-98477324D01*
X360552713Y-98453618D01*
X360544804Y-98431808D01*
X360535138Y-98411895D01*
X360523715Y-98393878D01*
X360510535Y-98377757D01*
X360495597Y-98363534D01*
X360478901Y-98351206D01*
X360460448Y-98340776D01*
X360440238Y-98332241D01*
X360418271Y-98325603D01*
X360394546Y-98320862D01*
X360369063Y-98318017D01*
X360341823Y-98317069D01*
X360318323Y-98317707D01*
X360295701Y-98319619D01*
X360273957Y-98322806D01*
X360253091Y-98327268D01*
X360233102Y-98333004D01*
X360213992Y-98340016D01*
X360195759Y-98348302D01*
X360178404Y-98357863D01*
X360161927Y-98368699D01*
X360146328Y-98380809D01*
X360136416Y-98389591D01*
X360122602Y-98403609D01*
X360110147Y-98418466D01*
X360099050Y-98434163D01*
X360089312Y-98450700D01*
X360080933Y-98468077D01*
X360073913Y-98486293D01*
X360068251Y-98505349D01*
X360063949Y-98525244D01*
X360061005Y-98545980D01*
X360059419Y-98567554D01*
X360059118Y-98582404D01*
X360059118Y-99392741D01*
X359708667Y-99392741D01*
X359708667Y-98042180D01*
G37*
G36*
X362359413Y-98144666D02*
G01*
X362359163Y-98163016D01*
X362358415Y-98181151D01*
X362357168Y-98199073D01*
X362355423Y-98216781D01*
X362353179Y-98234276D01*
X362350436Y-98251556D01*
X362347194Y-98268623D01*
X362341396Y-98293823D01*
X362334477Y-98318542D01*
X362326435Y-98342779D01*
X362317271Y-98366536D01*
X362306984Y-98389812D01*
X362295576Y-98412607D01*
X362283386Y-98434741D01*
X362270594Y-98456195D01*
X362257198Y-98476969D01*
X362243200Y-98497065D01*
X362228598Y-98516481D01*
X362213393Y-98535217D01*
X362197585Y-98553274D01*
X362181175Y-98570652D01*
X362164161Y-98587350D01*
X362146544Y-98603369D01*
X362134464Y-98613671D01*
X362116102Y-98628791D01*
X362097655Y-98643697D01*
X362079125Y-98658389D01*
X362060510Y-98672867D01*
X362041812Y-98687131D01*
X362023030Y-98701182D01*
X362004163Y-98715019D01*
X361985213Y-98728643D01*
X361966179Y-98742052D01*
X361947061Y-98755248D01*
X361934269Y-98763927D01*
X361915117Y-98776902D01*
X361896096Y-98790099D01*
X361877204Y-98803518D01*
X361858442Y-98817158D01*
X361839810Y-98831019D01*
X361821307Y-98845102D01*
X361802935Y-98859406D01*
X361784692Y-98873931D01*
X361766579Y-98888678D01*
X361748595Y-98903646D01*
X361736678Y-98913748D01*
X361719331Y-98929008D01*
X361702954Y-98944338D01*
X361687545Y-98959736D01*
X361673106Y-98975203D01*
X361659637Y-98990738D01*
X361647137Y-99006342D01*
X361635607Y-99022015D01*
X361625046Y-99037757D01*
X361615454Y-99053567D01*
X361606832Y-99069446D01*
X361601622Y-99080071D01*
X362352030Y-99080071D01*
X362352030Y-99392741D01*
X361146514Y-99392741D01*
X361148375Y-99362520D01*
X361150809Y-99333090D01*
X361153817Y-99304451D01*
X361157398Y-99276602D01*
X361161552Y-99249544D01*
X361166280Y-99223276D01*
X361171581Y-99197798D01*
X361177455Y-99173112D01*
X361183903Y-99149215D01*
X361190924Y-99126109D01*
X361198519Y-99103794D01*
X361206687Y-99082269D01*
X361215428Y-99061535D01*
X361224743Y-99041591D01*
X361234631Y-99022437D01*
X361245092Y-99004074D01*
X361256435Y-98986000D01*
X361268861Y-98967820D01*
X361282369Y-98949535D01*
X361296959Y-98931145D01*
X361312632Y-98912650D01*
X361329387Y-98894050D01*
X361347224Y-98875344D01*
X361366143Y-98856533D01*
X361386145Y-98837617D01*
X361407228Y-98818596D01*
X361429394Y-98799470D01*
X361452643Y-98780239D01*
X361476973Y-98760902D01*
X361502386Y-98741460D01*
X361528882Y-98721913D01*
X361556459Y-98702261D01*
X361574545Y-98689554D01*
X361592215Y-98677055D01*
X361609469Y-98664764D01*
X361626308Y-98652680D01*
X361642731Y-98640805D01*
X361658738Y-98629137D01*
X361674330Y-98617677D01*
X361689507Y-98606424D01*
X361704267Y-98595380D01*
X361718612Y-98584543D01*
X361732542Y-98573915D01*
X361759154Y-98553280D01*
X361784104Y-98533477D01*
X361807391Y-98514505D01*
X361829016Y-98496364D01*
X361848979Y-98479055D01*
X361867279Y-98462577D01*
X361883917Y-98446930D01*
X361898892Y-98432114D01*
X361912205Y-98418129D01*
X361923856Y-98404976D01*
X361929057Y-98398711D01*
X361943415Y-98379718D01*
X361956360Y-98359871D01*
X361967893Y-98339169D01*
X361978014Y-98317612D01*
X361986722Y-98295200D01*
X361994019Y-98271933D01*
X361999903Y-98247811D01*
X362004375Y-98222834D01*
X362007435Y-98197002D01*
X362008690Y-98179306D01*
X362009318Y-98161229D01*
X362009396Y-98152049D01*
X362008812Y-98127707D01*
X362007060Y-98104349D01*
X362004140Y-98081977D01*
X362000053Y-98060589D01*
X361994797Y-98040186D01*
X361988373Y-98020767D01*
X361980782Y-98002333D01*
X361972022Y-97984884D01*
X361962095Y-97968420D01*
X361951000Y-97952941D01*
X361942954Y-97943168D01*
X361930123Y-97929509D01*
X361916384Y-97917194D01*
X361901736Y-97906222D01*
X361886181Y-97896593D01*
X361869716Y-97888308D01*
X361852344Y-97881367D01*
X361834063Y-97875769D01*
X361814873Y-97871514D01*
X361794775Y-97868604D01*
X361773769Y-97867036D01*
X361759260Y-97866738D01*
X361737257Y-97867467D01*
X361716192Y-97869654D01*
X361696066Y-97873299D01*
X361676879Y-97878402D01*
X361658631Y-97884963D01*
X361641322Y-97892982D01*
X361624952Y-97902459D01*
X361609521Y-97913394D01*
X361595028Y-97925787D01*
X361581475Y-97939638D01*
X361572961Y-97949682D01*
X361561087Y-97965721D01*
X361550381Y-97982898D01*
X361540843Y-98001212D01*
X361532473Y-98020664D01*
X361525270Y-98041253D01*
X361519236Y-98062979D01*
X361514370Y-98085843D01*
X361510671Y-98109844D01*
X361508141Y-98134982D01*
X361507103Y-98152373D01*
X361506584Y-98170270D01*
X361506519Y-98179407D01*
X361506519Y-98237165D01*
X361171267Y-98237165D01*
X361170122Y-98219302D01*
X361169454Y-98201921D01*
X361169130Y-98183302D01*
X361169096Y-98174631D01*
X361169246Y-98157245D01*
X361170447Y-98123200D01*
X361172849Y-98090121D01*
X361176452Y-98058009D01*
X361181256Y-98026864D01*
X361187261Y-97996686D01*
X361194467Y-97967475D01*
X361202874Y-97939231D01*
X361212482Y-97911954D01*
X361223291Y-97885644D01*
X361235301Y-97860300D01*
X361248513Y-97835924D01*
X361262925Y-97812514D01*
X361278538Y-97790072D01*
X361295352Y-97768596D01*
X361313367Y-97748087D01*
X361322825Y-97738195D01*
X361342516Y-97719264D01*
X361363157Y-97701554D01*
X361384748Y-97685066D01*
X361407289Y-97669799D01*
X361430780Y-97655753D01*
X361455221Y-97642929D01*
X361480612Y-97631326D01*
X361506953Y-97620944D01*
X361534244Y-97611784D01*
X361562484Y-97603845D01*
X361591675Y-97597128D01*
X361621816Y-97591631D01*
X361652906Y-97587357D01*
X361684947Y-97584303D01*
X361717937Y-97582471D01*
X361751878Y-97581861D01*
X361769270Y-97582009D01*
X361803374Y-97583200D01*
X361836568Y-97585582D01*
X361868852Y-97589154D01*
X361900228Y-97593918D01*
X361930694Y-97599872D01*
X361960251Y-97607017D01*
X361988899Y-97615353D01*
X362016638Y-97624879D01*
X362043467Y-97635597D01*
X362069387Y-97647505D01*
X362094398Y-97660604D01*
X362118500Y-97674894D01*
X362141692Y-97690375D01*
X362163975Y-97707047D01*
X362185349Y-97724909D01*
X362195695Y-97734287D01*
X362215520Y-97753753D01*
X362234067Y-97774043D01*
X362251334Y-97795157D01*
X362267322Y-97817096D01*
X362282031Y-97839859D01*
X362295461Y-97863447D01*
X362307612Y-97887859D01*
X362318483Y-97913095D01*
X362328076Y-97939156D01*
X362336390Y-97966041D01*
X362343425Y-97993751D01*
X362349180Y-98022285D01*
X362353657Y-98051644D01*
X362356855Y-98081827D01*
X362358773Y-98112835D01*
X362359413Y-98144666D01*
G37*
G36*
X362954354Y-99027525D02*
G01*
X362954354Y-99392741D01*
X362579150Y-99392741D01*
X362579150Y-99027525D01*
X362954354Y-99027525D01*
G37*
G36*
X364414349Y-98187224D02*
G01*
X364409708Y-98167053D01*
X364404580Y-98147521D01*
X364398964Y-98128630D01*
X364392860Y-98110380D01*
X364386268Y-98092770D01*
X364379189Y-98075800D01*
X364371622Y-98059471D01*
X364363567Y-98043781D01*
X364345995Y-98014324D01*
X364326472Y-97987429D01*
X364304998Y-97963095D01*
X364281573Y-97941322D01*
X364256197Y-97922111D01*
X364228871Y-97905462D01*
X364199594Y-97891374D01*
X364168366Y-97879847D01*
X364135187Y-97870882D01*
X364117866Y-97867360D01*
X364100057Y-97864478D01*
X364081761Y-97862237D01*
X364062977Y-97860636D01*
X364043705Y-97859675D01*
X364023946Y-97859355D01*
X363996480Y-97860020D01*
X363969778Y-97862015D01*
X363943839Y-97865340D01*
X363918664Y-97869995D01*
X363894252Y-97875979D01*
X363870603Y-97883294D01*
X363847718Y-97891938D01*
X363825596Y-97901913D01*
X363804237Y-97913217D01*
X363783642Y-97925852D01*
X363763810Y-97939816D01*
X363744741Y-97955110D01*
X363726436Y-97971734D01*
X363708894Y-97989689D01*
X363692116Y-98008973D01*
X363676101Y-98029586D01*
X363660956Y-98051330D01*
X363646788Y-98074112D01*
X363633597Y-98097932D01*
X363621383Y-98122790D01*
X363610147Y-98148687D01*
X363599887Y-98175621D01*
X363590605Y-98203594D01*
X363582300Y-98232605D01*
X363574971Y-98262654D01*
X363568620Y-98293741D01*
X363563246Y-98325866D01*
X363558849Y-98359030D01*
X363555429Y-98393232D01*
X363554086Y-98410722D01*
X363552987Y-98428471D01*
X363552132Y-98446481D01*
X363551521Y-98464749D01*
X363551155Y-98483278D01*
X363551033Y-98502065D01*
X363551151Y-98520557D01*
X363551506Y-98538795D01*
X363552097Y-98556778D01*
X363552926Y-98574506D01*
X363553991Y-98591980D01*
X363556830Y-98626165D01*
X363560616Y-98659332D01*
X363565349Y-98691481D01*
X363571029Y-98722612D01*
X363577655Y-98752726D01*
X363585227Y-98781821D01*
X363593746Y-98809899D01*
X363603212Y-98836959D01*
X363613624Y-98863001D01*
X363624983Y-98888026D01*
X363637288Y-98912033D01*
X363650540Y-98935021D01*
X363664738Y-98956992D01*
X363672192Y-98967596D01*
X363687766Y-98987895D01*
X363704090Y-99006884D01*
X363721164Y-99024563D01*
X363738987Y-99040933D01*
X363757561Y-99055993D01*
X363776884Y-99069743D01*
X363796956Y-99082184D01*
X363817779Y-99093316D01*
X363839351Y-99103137D01*
X363861674Y-99111650D01*
X363884746Y-99118852D01*
X363908567Y-99124745D01*
X363933139Y-99129329D01*
X363958460Y-99132603D01*
X363984531Y-99134567D01*
X364011352Y-99135222D01*
X364032955Y-99134851D01*
X364054012Y-99133736D01*
X364074522Y-99131879D01*
X364094487Y-99129278D01*
X364113905Y-99125935D01*
X364132776Y-99121848D01*
X364151102Y-99117019D01*
X364168881Y-99111446D01*
X364186115Y-99105131D01*
X364202801Y-99098072D01*
X364218942Y-99090271D01*
X364234537Y-99081726D01*
X364249585Y-99072439D01*
X364264087Y-99062408D01*
X364278043Y-99051635D01*
X364291452Y-99040118D01*
X364304248Y-99027918D01*
X364316361Y-99015094D01*
X364327793Y-99001645D01*
X364338543Y-98987572D01*
X364348611Y-98972875D01*
X364357996Y-98957554D01*
X364366700Y-98941608D01*
X364374722Y-98925038D01*
X364382062Y-98907844D01*
X364388721Y-98890026D01*
X364394697Y-98871583D01*
X364399991Y-98852516D01*
X364404603Y-98832825D01*
X364408534Y-98812510D01*
X364411782Y-98791570D01*
X364414349Y-98770006D01*
X364779565Y-98770006D01*
X364778264Y-98789422D01*
X364776588Y-98808586D01*
X364774536Y-98827498D01*
X364772108Y-98846158D01*
X364769304Y-98864567D01*
X364766125Y-98882723D01*
X364762570Y-98900628D01*
X364758639Y-98918280D01*
X364754332Y-98935681D01*
X364749650Y-98952830D01*
X364744592Y-98969726D01*
X364739158Y-98986371D01*
X364733348Y-99002764D01*
X364720602Y-99034795D01*
X364706353Y-99065817D01*
X364690601Y-99095833D01*
X364673345Y-99124840D01*
X364654587Y-99152840D01*
X364634326Y-99179832D01*
X364612562Y-99205817D01*
X364589295Y-99230794D01*
X364564525Y-99254763D01*
X364551576Y-99266370D01*
X364538339Y-99277671D01*
X364524847Y-99288614D01*
X364497097Y-99309423D01*
X364468325Y-99328797D01*
X364453556Y-99337946D01*
X364438532Y-99346736D01*
X364423253Y-99355167D01*
X364407718Y-99363239D01*
X364391928Y-99370953D01*
X364375883Y-99378308D01*
X364359582Y-99385304D01*
X364343026Y-99391942D01*
X364326215Y-99398220D01*
X364309149Y-99404140D01*
X364291827Y-99409701D01*
X364274250Y-99414903D01*
X364256417Y-99419747D01*
X364238330Y-99424231D01*
X364219987Y-99428357D01*
X364201388Y-99432124D01*
X364182535Y-99435533D01*
X364163426Y-99438582D01*
X364144062Y-99441273D01*
X364124442Y-99443605D01*
X364104568Y-99445579D01*
X364084437Y-99447193D01*
X364064052Y-99448449D01*
X364043411Y-99449346D01*
X364022515Y-99449884D01*
X364001364Y-99450063D01*
X363977769Y-99449813D01*
X363954481Y-99449062D01*
X363931499Y-99447811D01*
X363908825Y-99446060D01*
X363886458Y-99443808D01*
X363864398Y-99441056D01*
X363842645Y-99437803D01*
X363821199Y-99434050D01*
X363800060Y-99429796D01*
X363779228Y-99425042D01*
X363758703Y-99419788D01*
X363738485Y-99414033D01*
X363718574Y-99407778D01*
X363698971Y-99401022D01*
X363679674Y-99393766D01*
X363660684Y-99386009D01*
X363642002Y-99377752D01*
X363623626Y-99368995D01*
X363605557Y-99359737D01*
X363587796Y-99349979D01*
X363570341Y-99339720D01*
X363553194Y-99328961D01*
X363536353Y-99317702D01*
X363519820Y-99305942D01*
X363503594Y-99293682D01*
X363487674Y-99280921D01*
X363472062Y-99267660D01*
X363456757Y-99253898D01*
X363441758Y-99239636D01*
X363427067Y-99224874D01*
X363412683Y-99209611D01*
X363398606Y-99193848D01*
X363384900Y-99177654D01*
X363371629Y-99161101D01*
X363358793Y-99144189D01*
X363346393Y-99126917D01*
X363334427Y-99109285D01*
X363322897Y-99091294D01*
X363311801Y-99072943D01*
X363301141Y-99054232D01*
X363290916Y-99035162D01*
X363281126Y-99015732D01*
X363271771Y-98995942D01*
X363262851Y-98975793D01*
X363254366Y-98955284D01*
X363246317Y-98934416D01*
X363238702Y-98913188D01*
X363231523Y-98891600D01*
X363224779Y-98869653D01*
X363218470Y-98847346D01*
X363212596Y-98824679D01*
X363207157Y-98801653D01*
X363202153Y-98778267D01*
X363197584Y-98754522D01*
X363193451Y-98730417D01*
X363189752Y-98705952D01*
X363186489Y-98681128D01*
X363183661Y-98655944D01*
X363181268Y-98630401D01*
X363179310Y-98604497D01*
X363177787Y-98578235D01*
X363176699Y-98551612D01*
X363176046Y-98524630D01*
X363175829Y-98497289D01*
X363176048Y-98469785D01*
X363176707Y-98442644D01*
X363177806Y-98415865D01*
X363179343Y-98389449D01*
X363181321Y-98363394D01*
X363183737Y-98337702D01*
X363186593Y-98312372D01*
X363189888Y-98287403D01*
X363193622Y-98262798D01*
X363197796Y-98238554D01*
X363202410Y-98214672D01*
X363207462Y-98191153D01*
X363212954Y-98167996D01*
X363218885Y-98145201D01*
X363225256Y-98122768D01*
X363232066Y-98100697D01*
X363239315Y-98078989D01*
X363247004Y-98057642D01*
X363255132Y-98036658D01*
X363263699Y-98016036D01*
X363272706Y-97995776D01*
X363282152Y-97975879D01*
X363292037Y-97956343D01*
X363302362Y-97937170D01*
X363313126Y-97918359D01*
X363324330Y-97899910D01*
X363335973Y-97881823D01*
X363348055Y-97864098D01*
X363360577Y-97846736D01*
X363373537Y-97829735D01*
X363386938Y-97813097D01*
X363400777Y-97796821D01*
X363415020Y-97780978D01*
X363429574Y-97765637D01*
X363444441Y-97750800D01*
X363459620Y-97736465D01*
X363475111Y-97722634D01*
X363490914Y-97709305D01*
X363507029Y-97696479D01*
X363523457Y-97684157D01*
X363540196Y-97672337D01*
X363557248Y-97661020D01*
X363574612Y-97650207D01*
X363592288Y-97639896D01*
X363610276Y-97630088D01*
X363628576Y-97620783D01*
X363647188Y-97611981D01*
X363666112Y-97603682D01*
X363685349Y-97595886D01*
X363704898Y-97588593D01*
X363724758Y-97581803D01*
X363744931Y-97575516D01*
X363765416Y-97569732D01*
X363786214Y-97564451D01*
X363807323Y-97559673D01*
X363828744Y-97555398D01*
X363850478Y-97551625D01*
X363872523Y-97548356D01*
X363894881Y-97545590D01*
X363917551Y-97543326D01*
X363940533Y-97541566D01*
X363963827Y-97540309D01*
X363987434Y-97539554D01*
X364011352Y-97539303D01*
X364031405Y-97539471D01*
X364051230Y-97539978D01*
X364070828Y-97540822D01*
X364090198Y-97542003D01*
X364109341Y-97543522D01*
X364128257Y-97545379D01*
X364146946Y-97547573D01*
X364165407Y-97550105D01*
X364183641Y-97552974D01*
X364201648Y-97556181D01*
X364219427Y-97559726D01*
X364236979Y-97563608D01*
X364254304Y-97567828D01*
X364271402Y-97572385D01*
X364288272Y-97577280D01*
X364304915Y-97582512D01*
X364337518Y-97593989D01*
X364369213Y-97606817D01*
X364399998Y-97620995D01*
X364429874Y-97636523D01*
X364458841Y-97653402D01*
X364486898Y-97671631D01*
X364514046Y-97691210D01*
X364540285Y-97712140D01*
X364565413Y-97734199D01*
X364589120Y-97757276D01*
X364611405Y-97781371D01*
X364632268Y-97806483D01*
X364651710Y-97832614D01*
X364669730Y-97859762D01*
X364686329Y-97887928D01*
X364701506Y-97917112D01*
X364715262Y-97947314D01*
X364727596Y-97978533D01*
X364738508Y-98010771D01*
X364747999Y-98044026D01*
X364752212Y-98061035D01*
X364756069Y-98078299D01*
X364759570Y-98095817D01*
X364762717Y-98113589D01*
X364765508Y-98131616D01*
X364767943Y-98149898D01*
X364770023Y-98168434D01*
X364771748Y-98187224D01*
X364414349Y-98187224D01*
G37*
G36*
X366240862Y-99392741D02*
G01*
X365890846Y-99392741D01*
X365890846Y-99232497D01*
X365872266Y-99258843D01*
X365852787Y-99283489D01*
X365832409Y-99306436D01*
X365811131Y-99327682D01*
X365788955Y-99347229D01*
X365765880Y-99365077D01*
X365741905Y-99381224D01*
X365717032Y-99395672D01*
X365691259Y-99408420D01*
X365664588Y-99419468D01*
X365637017Y-99428817D01*
X365608547Y-99436465D01*
X365579178Y-99442415D01*
X365548911Y-99446664D01*
X365517744Y-99449213D01*
X365485678Y-99450063D01*
X365459183Y-99449585D01*
X365433437Y-99448150D01*
X365408442Y-99445758D01*
X365384196Y-99442409D01*
X365360700Y-99438104D01*
X365337953Y-99432842D01*
X365315957Y-99426623D01*
X365294710Y-99419448D01*
X365274213Y-99411315D01*
X365254466Y-99402226D01*
X365235469Y-99392181D01*
X365217221Y-99381178D01*
X365199724Y-99369219D01*
X365182976Y-99356303D01*
X365166977Y-99342430D01*
X365151729Y-99327601D01*
X365137320Y-99311901D01*
X365123841Y-99295418D01*
X365111291Y-99278151D01*
X365099672Y-99260100D01*
X365088981Y-99241266D01*
X365079220Y-99221647D01*
X365070389Y-99201245D01*
X365062488Y-99180060D01*
X365055516Y-99158090D01*
X365049473Y-99135337D01*
X365044361Y-99111801D01*
X365040177Y-99087480D01*
X365036924Y-99062376D01*
X365034600Y-99036488D01*
X365033205Y-99009817D01*
X365032741Y-98982361D01*
X365032741Y-98042180D01*
X365383191Y-98042180D01*
X365383191Y-98909839D01*
X365384070Y-98939235D01*
X365386706Y-98966735D01*
X365391100Y-98992337D01*
X365397251Y-99016044D01*
X365405159Y-99037854D01*
X365414825Y-99057767D01*
X365426248Y-99075784D01*
X365439429Y-99091904D01*
X365454367Y-99106128D01*
X365471062Y-99118455D01*
X365489515Y-99128886D01*
X365509725Y-99137421D01*
X365531693Y-99144058D01*
X365555418Y-99148800D01*
X365580900Y-99151644D01*
X365608140Y-99152593D01*
X365631636Y-99151955D01*
X365654247Y-99150043D01*
X365675972Y-99146856D01*
X365696811Y-99142394D01*
X365716765Y-99136658D01*
X365735834Y-99129646D01*
X365754017Y-99121360D01*
X365771315Y-99111799D01*
X365787727Y-99100963D01*
X365803253Y-99088853D01*
X365813113Y-99080071D01*
X365827004Y-99066053D01*
X365839530Y-99051195D01*
X365850689Y-99035498D01*
X365860481Y-99018962D01*
X365868907Y-99001585D01*
X365875967Y-98983369D01*
X365881661Y-98964313D01*
X365885988Y-98944417D01*
X365888948Y-98923682D01*
X365890542Y-98902107D01*
X365890846Y-98887257D01*
X365890846Y-98042180D01*
X366240862Y-98042180D01*
X366240862Y-99392741D01*
G37*
D12*
%TO.N,/CAN_FD_DC2_L*%
%TO.C,J10*%
X302895000Y-147574000D03*
D13*
%TO.N,/CAN_FD_DC2_H*%
X300355000Y-147574000D03*
%TD*%
D14*
%TO.N,/Power Supply/V_IN*%
%TO.C,C8*%
X241554000Y-103713677D03*
D15*
%TO.N,GND*%
X241554000Y-98713677D03*
%TD*%
D16*
%TO.N,/Power Supply/V_{BAT}*%
%TO.C,J13*%
X225774000Y-148004000D03*
X225774000Y-156204000D03*
%TO.N,GND*%
X230854000Y-148004000D03*
X230854000Y-156204000D03*
%TD*%
D17*
%TO.N,/Power Supply/+18V*%
%TO.C,C3*%
X279908000Y-88012651D03*
D18*
%TO.N,GND*%
X279908000Y-84512651D03*
%TD*%
D12*
%TO.N,/CAN_FD2_L*%
%TO.C,J9*%
X292735000Y-147574000D03*
D13*
%TO.N,/CAN_FD2_H*%
X290195000Y-147574000D03*
%TD*%
D17*
%TO.N,/Power Supply/+18V*%
%TO.C,C4*%
X288798000Y-88082000D03*
D18*
%TO.N,GND*%
X288798000Y-84582000D03*
%TD*%
D12*
%TO.N,/CAN_FD1_L*%
%TO.C,J11*%
X313055000Y-147574000D03*
D13*
%TO.N,/CAN_FD1_H*%
X310515000Y-147574000D03*
%TD*%
D19*
%TO.N,/MIPI-HDMI-1/GND_MIPI*%
%TO.C,J14*%
X256250000Y-150075000D03*
X241750000Y-150075000D03*
D20*
X256250000Y-156035000D03*
X241750000Y-156035000D03*
%TD*%
D21*
%TO.N,/Power Supply/+18V*%
%TO.C,J2*%
X238561113Y-88406784D03*
X243561113Y-88406784D03*
%TO.N,GND*%
X238561113Y-83406784D03*
X243561113Y-83406784D03*
%TD*%
D19*
%TO.N,/MIPI-HDMI-2/GND_MIPI*%
%TO.C,J15*%
X280250000Y-150075000D03*
X265750000Y-150075000D03*
D20*
X280250000Y-156035000D03*
X265750000Y-156035000D03*
%TD*%
D12*
%TO.N,/CAN_FD_DC1_L*%
%TO.C,J12*%
X323215000Y-147574000D03*
D13*
%TO.N,/CAN_FD_DC1_H*%
X320675000Y-147574000D03*
%TD*%
D22*
%TO.N,GND*%
%TO.C,J4*%
X325120000Y-103378000D03*
D23*
%TO.N,/FAN_PWR*%
X325120000Y-100838000D03*
%TO.N,/FAN_PWM*%
X325120000Y-98298000D03*
%TO.N,/FAN_TACH*%
X325120000Y-95758000D03*
%TD*%
D24*
%TO.N,GND*%
X317072448Y-105693329D03*
X276631400Y-84556600D03*
X235966000Y-157327600D03*
X224028000Y-136652000D03*
X309499000Y-92329000D03*
X233680000Y-137160000D03*
X276606000Y-82829400D03*
X306070000Y-99441000D03*
X222504000Y-136652000D03*
X234645200Y-96520000D03*
X320014600Y-95529400D03*
X317881000Y-93345000D03*
X301523400Y-99034600D03*
X308803000Y-105217000D03*
X276606000Y-83693000D03*
X323874000Y-86638000D03*
X306070000Y-96367600D03*
X264349000Y-88330000D03*
X253619000Y-84836000D03*
X261416800Y-83566000D03*
X257404907Y-88007497D03*
X322173600Y-90220800D03*
X259399000Y-88327000D03*
X310896000Y-99339400D03*
X235204000Y-137160000D03*
%TO.N,/Power Supply/V_{BAT}*%
X235204000Y-142748000D03*
X233680000Y-142748000D03*
X224028000Y-145034000D03*
X222504000Y-145034000D03*
X312547000Y-102616000D03*
%TO.N,/Power Supply/V_IN*%
X264414000Y-82677000D03*
%TO.N,/MIPI-HDMI-2/GND_MIPI*%
X265988800Y-143992600D03*
X269036800Y-143992600D03*
X272034000Y-144018000D03*
X269353863Y-151830101D03*
X277520400Y-151384000D03*
X275031200Y-140893800D03*
X274015200Y-151231600D03*
X272516600Y-151231600D03*
X275564600Y-151231600D03*
%TO.N,/MIPI-HDMI-2/PWR_DN_LS*%
X276504400Y-151714200D03*
X275996400Y-140462000D03*
%TO.N,/MIPI-HDMI-2/CAM_MCLK*%
X277600373Y-140153144D03*
X278282400Y-149275800D03*
%TO.N,/MIPI-HDMI-2/CAM_SCL*%
X279500000Y-140167456D03*
X271272000Y-151358600D03*
%TO.N,/MIPI-HDMI-2/CAM_SDA*%
X270200000Y-152900000D03*
X281000000Y-140900000D03*
%TO.N,/MIPI-HDMI-2/CAM_3V3*%
X268397697Y-151498766D03*
X281900000Y-139400000D03*
%TO.N,/MIPI-HDMI-1/GND_MIPI*%
X250012200Y-151231600D03*
X248513600Y-151231600D03*
X241985800Y-143992600D03*
X245350863Y-151830101D03*
X245033800Y-143992600D03*
X251561600Y-151231600D03*
X248031000Y-144018000D03*
X253517400Y-151384000D03*
X251028200Y-140893800D03*
%TO.N,/MIPI-HDMI-1/PWR_DN_LS*%
X251993400Y-140462000D03*
X252501400Y-151714200D03*
%TO.N,/MIPI-HDMI-1/CAM_MCLK*%
X253700000Y-140200000D03*
X254279400Y-149275800D03*
%TO.N,/MIPI-HDMI-1/CAM_SCL*%
X255500000Y-140200000D03*
X247269000Y-151358600D03*
%TO.N,/MIPI-HDMI-1/CAM_SDA*%
X246422546Y-152700000D03*
X257082013Y-141082013D03*
%TO.N,/MIPI-HDMI-1/CAM_3V3*%
X258000000Y-138900000D03*
X244394697Y-151498766D03*
%TO.N,Net-(D4-K-Pad3)*%
X312039000Y-105537000D03*
%TO.N,Net-(U1-I_{SEN})*%
X257429000Y-83566000D03*
%TO.N,Net-(U1-FA{slash}SD)*%
X266065000Y-83693000D03*
%TO.N,Net-(Q1-S-Pad1)*%
X271653000Y-83439000D03*
X272542000Y-82579897D03*
X272542000Y-83439000D03*
%TO.N,Net-(U1-FB)*%
X257648472Y-87025299D03*
%TO.N,+3V3*%
X317881000Y-89535000D03*
X309753000Y-88519000D03*
X318770000Y-87942412D03*
X299974000Y-99060000D03*
%TO.N,/FAN_PWM*%
X307640500Y-92502500D03*
%TO.N,/Fan Control/I2C_SDA*%
X313594929Y-90104797D03*
X323350000Y-88638000D03*
X322326000Y-93345000D03*
%TO.N,/Fan Control/I2C_SCL*%
X313817000Y-88738456D03*
X322326000Y-92075000D03*
%TO.N,Net-(U5-IN)*%
X317119000Y-103886000D03*
%TO.N,Net-(U5-GND)*%
X321183000Y-105156000D03*
%TD*%
%TA.AperFunction,Conductor*%
%TO.N,/Power Supply/V_{BAT}*%
G36*
X226325980Y-98681383D02*
G01*
X226387011Y-98693523D01*
X226431709Y-98712037D01*
X226473096Y-98739691D01*
X226507309Y-98773904D01*
X226534962Y-98815291D01*
X226553476Y-98859987D01*
X226565617Y-98921019D01*
X226568000Y-98945212D01*
X226568000Y-106426000D01*
X233030078Y-110813830D01*
X236790398Y-113367135D01*
X236790400Y-113367136D01*
X236855000Y-113411000D01*
X249809000Y-113411000D01*
X249809002Y-113411000D01*
X250063000Y-113411000D01*
X250063000Y-110121212D01*
X250065383Y-110097021D01*
X250077523Y-110035989D01*
X250096037Y-109991291D01*
X250123693Y-109949900D01*
X250157900Y-109915693D01*
X250199292Y-109888036D01*
X250243989Y-109869523D01*
X250305021Y-109857383D01*
X250329212Y-109855000D01*
X310010545Y-109855000D01*
X310010547Y-109855000D01*
X310134000Y-109855000D01*
X312928000Y-106299000D01*
X312928000Y-100977212D01*
X312930383Y-100953021D01*
X312942523Y-100891989D01*
X312961037Y-100847291D01*
X312988693Y-100805900D01*
X313022900Y-100771693D01*
X313064292Y-100744036D01*
X313108989Y-100725523D01*
X313170021Y-100713383D01*
X313194212Y-100711000D01*
X316088156Y-100711000D01*
X316112498Y-100713413D01*
X316173890Y-100725704D01*
X316218823Y-100744446D01*
X316260358Y-100772425D01*
X316294611Y-100807023D01*
X316322172Y-100848835D01*
X316340465Y-100893952D01*
X316351678Y-100953021D01*
X316352142Y-100955461D01*
X316354311Y-100979818D01*
X316264953Y-109915690D01*
X316230439Y-113367135D01*
X316230000Y-113411000D01*
X316229998Y-113411343D01*
X316229996Y-113411614D01*
X316104463Y-136133232D01*
X316101964Y-136157326D01*
X316089571Y-136218092D01*
X316070936Y-136262559D01*
X316043231Y-136303714D01*
X316009042Y-136337714D01*
X315967738Y-136365188D01*
X315923172Y-136383576D01*
X315882836Y-136391571D01*
X315862335Y-136395634D01*
X315838229Y-136398000D01*
X236728000Y-136398000D01*
X236728000Y-136651995D01*
X236728000Y-145275787D01*
X236725617Y-145299980D01*
X236713476Y-145361012D01*
X236694962Y-145405708D01*
X236667309Y-145447095D01*
X236633095Y-145481309D01*
X236591708Y-145508962D01*
X236547012Y-145527476D01*
X236498989Y-145537029D01*
X236485978Y-145539617D01*
X236461788Y-145542000D01*
X234950000Y-145542000D01*
X234950000Y-145795995D01*
X234950000Y-157721787D01*
X234947617Y-157745980D01*
X234935476Y-157807012D01*
X234916962Y-157851708D01*
X234889309Y-157893095D01*
X234855095Y-157927309D01*
X234813708Y-157954962D01*
X234769012Y-157973476D01*
X234720989Y-157983029D01*
X234707978Y-157985617D01*
X234683788Y-157988000D01*
X221246212Y-157988000D01*
X221222021Y-157985617D01*
X221205690Y-157982368D01*
X221160987Y-157973476D01*
X221116291Y-157954962D01*
X221074904Y-157927309D01*
X221040691Y-157893096D01*
X221013037Y-157851708D01*
X220994523Y-157807010D01*
X220982383Y-157745978D01*
X220980000Y-157721787D01*
X220980000Y-156204005D01*
X224287924Y-156204005D01*
X224308190Y-156448591D01*
X224308192Y-156448603D01*
X224368443Y-156686526D01*
X224467035Y-156911295D01*
X224526569Y-157002417D01*
X225231646Y-156297340D01*
X225250884Y-156389915D01*
X225320442Y-156524156D01*
X225423638Y-156634652D01*
X225552819Y-156713209D01*
X225678569Y-156748442D01*
X224972695Y-157454316D01*
X225177048Y-157564908D01*
X225177053Y-157564910D01*
X225409186Y-157644601D01*
X225651282Y-157685000D01*
X225896718Y-157685000D01*
X226138813Y-157644601D01*
X226370946Y-157564910D01*
X226370960Y-157564903D01*
X226575303Y-157454317D01*
X226575303Y-157454316D01*
X225867330Y-156746343D01*
X225923783Y-156738584D01*
X226062458Y-156678349D01*
X226179739Y-156582934D01*
X226266928Y-156459415D01*
X226317559Y-156316953D01*
X226318737Y-156299724D01*
X227021429Y-157002417D01*
X227080966Y-156911291D01*
X227080967Y-156911289D01*
X227179556Y-156686526D01*
X227239807Y-156448603D01*
X227239809Y-156448591D01*
X227260076Y-156204005D01*
X229494858Y-156204005D01*
X229513394Y-156427703D01*
X229568499Y-156645311D01*
X229658670Y-156850881D01*
X229698141Y-156911295D01*
X229781446Y-157038802D01*
X229933478Y-157203953D01*
X229933481Y-157203955D01*
X229933484Y-157203958D01*
X230110611Y-157341822D01*
X230110617Y-157341826D01*
X230110620Y-157341828D01*
X230308039Y-157448666D01*
X230520350Y-157521553D01*
X230741763Y-157558500D01*
X230966237Y-157558500D01*
X231187650Y-157521553D01*
X231399961Y-157448666D01*
X231597380Y-157341828D01*
X231774522Y-157203953D01*
X231926554Y-157038802D01*
X232049330Y-156850880D01*
X232139500Y-156645313D01*
X232194605Y-156427707D01*
X232210003Y-156241886D01*
X232213142Y-156204005D01*
X232213142Y-156203994D01*
X232200784Y-156054862D01*
X232194605Y-155980293D01*
X232139500Y-155762687D01*
X232049330Y-155557120D01*
X232009859Y-155496706D01*
X231950324Y-155405581D01*
X231926554Y-155369198D01*
X231774522Y-155204047D01*
X231774517Y-155204043D01*
X231774515Y-155204041D01*
X231597388Y-155066177D01*
X231597382Y-155066173D01*
X231399962Y-154959334D01*
X231399953Y-154959331D01*
X231187652Y-154886447D01*
X230966237Y-154849500D01*
X230741763Y-154849500D01*
X230520347Y-154886447D01*
X230308046Y-154959331D01*
X230308037Y-154959334D01*
X230110617Y-155066173D01*
X230110611Y-155066177D01*
X229933484Y-155204041D01*
X229933481Y-155204044D01*
X229781447Y-155369196D01*
X229781444Y-155369200D01*
X229658670Y-155557118D01*
X229568499Y-155762688D01*
X229513394Y-155980296D01*
X229494858Y-156203994D01*
X229494858Y-156204005D01*
X227260076Y-156204005D01*
X227260076Y-156203994D01*
X227239809Y-155959408D01*
X227239807Y-155959396D01*
X227179556Y-155721473D01*
X227080964Y-155496704D01*
X227021429Y-155405581D01*
X226316353Y-156110658D01*
X226297116Y-156018085D01*
X226227558Y-155883844D01*
X226124362Y-155773348D01*
X225995181Y-155694791D01*
X225869430Y-155659557D01*
X226575303Y-154953682D01*
X226370951Y-154843091D01*
X226370946Y-154843089D01*
X226138813Y-154763398D01*
X225896718Y-154723000D01*
X225651282Y-154723000D01*
X225409186Y-154763398D01*
X225177053Y-154843089D01*
X225177043Y-154843094D01*
X224972695Y-154953681D01*
X224972695Y-154953682D01*
X225680669Y-155661656D01*
X225624217Y-155669416D01*
X225485542Y-155729651D01*
X225368261Y-155825066D01*
X225281072Y-155948585D01*
X225230441Y-156091047D01*
X225229262Y-156108274D01*
X224526569Y-155405581D01*
X224467034Y-155496706D01*
X224368443Y-155721473D01*
X224308192Y-155959396D01*
X224308190Y-155959408D01*
X224287924Y-156203994D01*
X224287924Y-156204005D01*
X220980000Y-156204005D01*
X220980000Y-148004005D01*
X224287924Y-148004005D01*
X224308190Y-148248591D01*
X224308192Y-148248603D01*
X224368443Y-148486526D01*
X224467035Y-148711295D01*
X224526569Y-148802417D01*
X225231646Y-148097340D01*
X225250884Y-148189915D01*
X225320442Y-148324156D01*
X225423638Y-148434652D01*
X225552819Y-148513209D01*
X225678569Y-148548442D01*
X224972695Y-149254316D01*
X225177048Y-149364908D01*
X225177053Y-149364910D01*
X225409186Y-149444601D01*
X225651282Y-149485000D01*
X225896718Y-149485000D01*
X226138813Y-149444601D01*
X226370946Y-149364910D01*
X226370960Y-149364903D01*
X226575303Y-149254317D01*
X226575303Y-149254316D01*
X225867330Y-148546343D01*
X225923783Y-148538584D01*
X226062458Y-148478349D01*
X226179739Y-148382934D01*
X226266928Y-148259415D01*
X226317559Y-148116953D01*
X226318737Y-148099724D01*
X227021429Y-148802417D01*
X227080966Y-148711291D01*
X227080967Y-148711289D01*
X227179556Y-148486526D01*
X227239807Y-148248603D01*
X227239809Y-148248591D01*
X227260076Y-148004005D01*
X229494858Y-148004005D01*
X229513394Y-148227703D01*
X229568499Y-148445311D01*
X229658670Y-148650881D01*
X229757674Y-148802417D01*
X229781446Y-148838802D01*
X229933478Y-149003953D01*
X229933481Y-149003955D01*
X229933484Y-149003958D01*
X230110611Y-149141822D01*
X230110617Y-149141826D01*
X230110620Y-149141828D01*
X230308039Y-149248666D01*
X230520350Y-149321553D01*
X230741763Y-149358500D01*
X230966237Y-149358500D01*
X231187650Y-149321553D01*
X231399961Y-149248666D01*
X231597380Y-149141828D01*
X231620209Y-149124060D01*
X231686000Y-149072852D01*
X231774522Y-149003953D01*
X231926554Y-148838802D01*
X232049330Y-148650880D01*
X232139500Y-148445313D01*
X232194605Y-148227707D01*
X232213142Y-148004000D01*
X232203782Y-147891047D01*
X232200784Y-147854862D01*
X232194605Y-147780293D01*
X232139500Y-147562687D01*
X232049330Y-147357120D01*
X232009859Y-147296706D01*
X231926555Y-147169200D01*
X231926554Y-147169198D01*
X231774522Y-147004047D01*
X231774517Y-147004043D01*
X231774515Y-147004041D01*
X231597388Y-146866177D01*
X231597382Y-146866173D01*
X231399962Y-146759334D01*
X231399953Y-146759331D01*
X231187652Y-146686447D01*
X230966237Y-146649500D01*
X230741763Y-146649500D01*
X230520347Y-146686447D01*
X230308046Y-146759331D01*
X230308037Y-146759334D01*
X230110617Y-146866173D01*
X230110611Y-146866177D01*
X229933484Y-147004041D01*
X229933481Y-147004044D01*
X229781447Y-147169196D01*
X229781444Y-147169200D01*
X229658670Y-147357118D01*
X229568499Y-147562688D01*
X229513394Y-147780296D01*
X229494858Y-148003994D01*
X229494858Y-148004005D01*
X227260076Y-148004005D01*
X227260076Y-148003994D01*
X227239809Y-147759408D01*
X227239807Y-147759396D01*
X227179556Y-147521473D01*
X227080964Y-147296704D01*
X227021429Y-147205581D01*
X226316353Y-147910658D01*
X226297116Y-147818085D01*
X226227558Y-147683844D01*
X226124362Y-147573348D01*
X225995181Y-147494791D01*
X225869430Y-147459557D01*
X226575303Y-146753682D01*
X226370951Y-146643091D01*
X226370946Y-146643089D01*
X226138813Y-146563398D01*
X225896718Y-146523000D01*
X225651282Y-146523000D01*
X225409186Y-146563398D01*
X225177053Y-146643089D01*
X225177043Y-146643094D01*
X224972695Y-146753681D01*
X224972695Y-146753682D01*
X225680669Y-147461656D01*
X225624217Y-147469416D01*
X225485542Y-147529651D01*
X225368261Y-147625066D01*
X225281072Y-147748585D01*
X225230441Y-147891047D01*
X225229262Y-147908274D01*
X224526569Y-147205581D01*
X224467034Y-147296706D01*
X224368443Y-147521473D01*
X224308192Y-147759396D01*
X224308190Y-147759408D01*
X224287924Y-148003994D01*
X224287924Y-148004005D01*
X220980000Y-148004005D01*
X220980000Y-143200000D01*
X226000000Y-143200000D01*
X227800000Y-145000000D01*
X230200000Y-145000000D01*
X232000000Y-143200000D01*
X232000000Y-140700000D01*
X230300000Y-139000000D01*
X227800000Y-139000000D01*
X226000000Y-140700000D01*
X226000000Y-143200000D01*
X220980000Y-143200000D01*
X220980000Y-136652000D01*
X221838246Y-136652000D01*
X221857591Y-136811323D01*
X221857592Y-136811328D01*
X221914504Y-136961391D01*
X221914505Y-136961392D01*
X221985525Y-137064284D01*
X222005676Y-137093477D01*
X222125809Y-137199905D01*
X222267920Y-137274491D01*
X222267922Y-137274491D01*
X222267923Y-137274492D01*
X222423752Y-137312900D01*
X222584248Y-137312900D01*
X222740076Y-137274492D01*
X222740076Y-137274491D01*
X222740080Y-137274491D01*
X222882191Y-137199905D01*
X223002324Y-137093477D01*
X223093496Y-136961391D01*
X223150058Y-136812248D01*
X223192236Y-136756545D01*
X223257833Y-136732488D01*
X223326024Y-136747715D01*
X223375157Y-136797391D01*
X223381942Y-136812248D01*
X223438504Y-136961391D01*
X223438505Y-136961392D01*
X223509525Y-137064284D01*
X223529676Y-137093477D01*
X223649809Y-137199905D01*
X223791920Y-137274491D01*
X223791922Y-137274491D01*
X223791923Y-137274492D01*
X223947752Y-137312900D01*
X224108248Y-137312900D01*
X224264076Y-137274492D01*
X224264076Y-137274491D01*
X224264080Y-137274491D01*
X224406191Y-137199905D01*
X224451235Y-137160000D01*
X233014246Y-137160000D01*
X233033591Y-137319323D01*
X233033592Y-137319328D01*
X233090504Y-137469391D01*
X233181676Y-137601477D01*
X233301809Y-137707905D01*
X233443920Y-137782491D01*
X233443922Y-137782491D01*
X233443923Y-137782492D01*
X233599752Y-137820900D01*
X233760248Y-137820900D01*
X233916076Y-137782492D01*
X233916076Y-137782491D01*
X233916080Y-137782491D01*
X234058191Y-137707905D01*
X234178324Y-137601477D01*
X234269496Y-137469391D01*
X234326058Y-137320248D01*
X234368236Y-137264545D01*
X234433833Y-137240488D01*
X234502024Y-137255715D01*
X234551157Y-137305391D01*
X234557942Y-137320248D01*
X234614504Y-137469391D01*
X234705676Y-137601477D01*
X234825809Y-137707905D01*
X234967920Y-137782491D01*
X234967922Y-137782491D01*
X234967923Y-137782492D01*
X235123752Y-137820900D01*
X235284248Y-137820900D01*
X235440076Y-137782492D01*
X235440076Y-137782491D01*
X235440080Y-137782491D01*
X235582191Y-137707905D01*
X235702324Y-137601477D01*
X235793496Y-137469391D01*
X235850408Y-137319325D01*
X235869754Y-137160000D01*
X235850408Y-137000675D01*
X235850407Y-137000673D01*
X235850407Y-137000671D01*
X235824546Y-136932482D01*
X235793496Y-136850609D01*
X235702324Y-136718523D01*
X235582191Y-136612095D01*
X235440080Y-136537509D01*
X235440079Y-136537508D01*
X235440076Y-136537507D01*
X235284248Y-136499100D01*
X235123752Y-136499100D01*
X234967923Y-136537507D01*
X234825809Y-136612095D01*
X234705675Y-136718523D01*
X234614505Y-136850607D01*
X234614504Y-136850608D01*
X234557942Y-136999751D01*
X234515764Y-137055454D01*
X234450166Y-137079511D01*
X234381976Y-137064284D01*
X234332843Y-137014608D01*
X234326058Y-136999751D01*
X234303111Y-136939245D01*
X234269496Y-136850609D01*
X234178324Y-136718523D01*
X234058191Y-136612095D01*
X233916080Y-136537509D01*
X233916079Y-136537508D01*
X233916076Y-136537507D01*
X233760248Y-136499100D01*
X233599752Y-136499100D01*
X233443923Y-136537507D01*
X233301809Y-136612095D01*
X233181675Y-136718523D01*
X233090505Y-136850607D01*
X233090504Y-136850608D01*
X233033592Y-137000671D01*
X233033591Y-137000676D01*
X233014246Y-137160000D01*
X224451235Y-137160000D01*
X224526324Y-137093477D01*
X224617496Y-136961391D01*
X224674408Y-136811325D01*
X224693754Y-136652000D01*
X224674408Y-136492675D01*
X224674407Y-136492673D01*
X224674407Y-136492671D01*
X224638503Y-136398000D01*
X224617496Y-136342609D01*
X224526324Y-136210523D01*
X224406191Y-136104095D01*
X224264080Y-136029509D01*
X224264079Y-136029508D01*
X224264076Y-136029507D01*
X224108248Y-135991100D01*
X223947752Y-135991100D01*
X223791923Y-136029507D01*
X223649809Y-136104095D01*
X223529675Y-136210523D01*
X223438505Y-136342607D01*
X223438504Y-136342608D01*
X223381942Y-136491751D01*
X223339764Y-136547454D01*
X223274166Y-136571511D01*
X223205976Y-136556284D01*
X223156843Y-136506608D01*
X223150058Y-136491751D01*
X223114503Y-136398000D01*
X223093496Y-136342609D01*
X223002324Y-136210523D01*
X222882191Y-136104095D01*
X222740080Y-136029509D01*
X222740079Y-136029508D01*
X222740076Y-136029507D01*
X222584248Y-135991100D01*
X222423752Y-135991100D01*
X222267923Y-136029507D01*
X222125809Y-136104095D01*
X222005675Y-136210523D01*
X221914505Y-136342607D01*
X221914504Y-136342608D01*
X221857592Y-136492671D01*
X221857591Y-136492676D01*
X221838246Y-136652000D01*
X220980000Y-136652000D01*
X220980000Y-98945212D01*
X220982383Y-98921021D01*
X220994523Y-98859989D01*
X221013037Y-98815291D01*
X221040693Y-98773900D01*
X221074900Y-98739693D01*
X221116292Y-98712036D01*
X221160989Y-98693523D01*
X221222021Y-98681383D01*
X221246212Y-98679000D01*
X226301788Y-98679000D01*
X226325980Y-98681383D01*
G37*
%TD.AperFunction*%
%TD*%
%TA.AperFunction,Conductor*%
%TO.N,/Power Supply/V_IN*%
G36*
X249185980Y-92458383D02*
G01*
X249247011Y-92470523D01*
X249291709Y-92489037D01*
X249333096Y-92516691D01*
X249367309Y-92550904D01*
X249394962Y-92592291D01*
X249413476Y-92636987D01*
X249425617Y-92698019D01*
X249428000Y-92722212D01*
X249428000Y-112509787D01*
X249425617Y-112533980D01*
X249413476Y-112595012D01*
X249394962Y-112639708D01*
X249367309Y-112681095D01*
X249333095Y-112715309D01*
X249291708Y-112742962D01*
X249247012Y-112761476D01*
X249198989Y-112771029D01*
X249185978Y-112773617D01*
X249161788Y-112776000D01*
X236815893Y-112776000D01*
X236797362Y-112774607D01*
X236778913Y-112771818D01*
X236750043Y-112767455D01*
X236714635Y-112756501D01*
X236671539Y-112735681D01*
X236655458Y-112726366D01*
X236374278Y-112533980D01*
X233700503Y-110704554D01*
X227199048Y-106256190D01*
X227176509Y-106236367D01*
X227125761Y-106179438D01*
X227097960Y-106126729D01*
X227079632Y-106052698D01*
X227076000Y-106022904D01*
X227076000Y-104749829D01*
X240173000Y-104749829D01*
X240183790Y-104823893D01*
X240239637Y-104938130D01*
X240329546Y-105028039D01*
X240443783Y-105083886D01*
X240517847Y-105094677D01*
X241236500Y-105094677D01*
X241236500Y-104100156D01*
X241280900Y-104138629D01*
X241411685Y-104198357D01*
X241518237Y-104213677D01*
X241589763Y-104213677D01*
X241696315Y-104198357D01*
X241827100Y-104138629D01*
X241871500Y-104100156D01*
X241871500Y-105094677D01*
X242590153Y-105094677D01*
X242664216Y-105083886D01*
X242778453Y-105028039D01*
X242868362Y-104938130D01*
X242924209Y-104823893D01*
X242935000Y-104749829D01*
X242935000Y-104031177D01*
X241944307Y-104031177D01*
X242013493Y-103923521D01*
X242054000Y-103785566D01*
X242054000Y-103641788D01*
X242013493Y-103503833D01*
X241944307Y-103396177D01*
X242935000Y-103396177D01*
X242935000Y-102677524D01*
X242924209Y-102603460D01*
X242868362Y-102489223D01*
X242778453Y-102399314D01*
X242664216Y-102343467D01*
X242590153Y-102332677D01*
X241871500Y-102332677D01*
X241871500Y-103327197D01*
X241827100Y-103288725D01*
X241696315Y-103228997D01*
X241589763Y-103213677D01*
X241518237Y-103213677D01*
X241411685Y-103228997D01*
X241280900Y-103288725D01*
X241236500Y-103327197D01*
X241236500Y-102332677D01*
X240517847Y-102332677D01*
X240443783Y-102343467D01*
X240329546Y-102399314D01*
X240239637Y-102489223D01*
X240183790Y-102603460D01*
X240173000Y-102677524D01*
X240173000Y-103396177D01*
X241163693Y-103396177D01*
X241094507Y-103503833D01*
X241054000Y-103641788D01*
X241054000Y-103785566D01*
X241094507Y-103923521D01*
X241163693Y-104031177D01*
X240173000Y-104031177D01*
X240173000Y-104749829D01*
X227076000Y-104749829D01*
X227076000Y-98183212D01*
X227078383Y-98159021D01*
X227090523Y-98097989D01*
X227109037Y-98053291D01*
X227136693Y-98011900D01*
X227170900Y-97977693D01*
X227212292Y-97950036D01*
X227256989Y-97931523D01*
X227318021Y-97919383D01*
X227342212Y-97917000D01*
X240346668Y-97917000D01*
X240413707Y-97936685D01*
X240459462Y-97989489D01*
X240469406Y-98058647D01*
X240459050Y-98093404D01*
X240370655Y-98282968D01*
X240313839Y-98495001D01*
X240313838Y-98495008D01*
X240294708Y-98713674D01*
X240294708Y-98713677D01*
X240313839Y-98932351D01*
X240370653Y-99144380D01*
X240370654Y-99144383D01*
X240370655Y-99144385D01*
X240463419Y-99343319D01*
X240463423Y-99343327D01*
X240589322Y-99523129D01*
X240589327Y-99523135D01*
X240744541Y-99678349D01*
X240744547Y-99678354D01*
X240924349Y-99804253D01*
X240924351Y-99804254D01*
X240924354Y-99804256D01*
X241123297Y-99897024D01*
X241335326Y-99953838D01*
X241491521Y-99967503D01*
X241553998Y-99972969D01*
X241554000Y-99972969D01*
X241554002Y-99972969D01*
X241608668Y-99968186D01*
X241772674Y-99953838D01*
X241984703Y-99897024D01*
X242183646Y-99804256D01*
X242363457Y-99678351D01*
X242518674Y-99523134D01*
X242644579Y-99343323D01*
X242737347Y-99144380D01*
X242794161Y-98932351D01*
X242813292Y-98713677D01*
X242794161Y-98495003D01*
X242737347Y-98282974D01*
X242644579Y-98084031D01*
X242644577Y-98084028D01*
X242644576Y-98084026D01*
X242518677Y-97904224D01*
X242518672Y-97904218D01*
X242363458Y-97749004D01*
X242363452Y-97748999D01*
X242183650Y-97623100D01*
X242136606Y-97601163D01*
X242084167Y-97554990D01*
X242065016Y-97487796D01*
X242080734Y-97428351D01*
X244777967Y-92595806D01*
X244790287Y-92577703D01*
X244825930Y-92534166D01*
X244859088Y-92505792D01*
X244897972Y-92482964D01*
X244938914Y-92467838D01*
X244966119Y-92462973D01*
X244994294Y-92457936D01*
X245016120Y-92456000D01*
X249161788Y-92456000D01*
X249185980Y-92458383D01*
G37*
%TD.AperFunction*%
%TD*%
%TA.AperFunction,Conductor*%
%TO.N,GND*%
G36*
X236649398Y-145791762D02*
G01*
X236704576Y-145834624D01*
X236727822Y-145900513D01*
X236728000Y-145907153D01*
X236728000Y-157721787D01*
X236725617Y-157745980D01*
X236713476Y-157807012D01*
X236694962Y-157851708D01*
X236667309Y-157893095D01*
X236633095Y-157927309D01*
X236591708Y-157954962D01*
X236547012Y-157973476D01*
X236498989Y-157983029D01*
X236485978Y-157985617D01*
X236461788Y-157988000D01*
X235315154Y-157988000D01*
X235248115Y-157968315D01*
X235202360Y-157915511D01*
X235192416Y-157846353D01*
X235193537Y-157839807D01*
X235203373Y-157790363D01*
X235203373Y-157790362D01*
X235205244Y-157777757D01*
X235208875Y-157740885D01*
X235209500Y-157728152D01*
X235209500Y-145925500D01*
X235229185Y-145858461D01*
X235281989Y-145812706D01*
X235333500Y-145801500D01*
X236468153Y-145801500D01*
X236468160Y-145801500D01*
X236475013Y-145801163D01*
X236480894Y-145800875D01*
X236480891Y-145800875D01*
X236490812Y-145799897D01*
X236517758Y-145797242D01*
X236522654Y-145796515D01*
X236530355Y-145795374D01*
X236530354Y-145795374D01*
X236530751Y-145795294D01*
X236579808Y-145785536D01*
X236649398Y-145791762D01*
G37*
%TD.AperFunction*%
%TA.AperFunction,Conductor*%
G36*
X233743357Y-136762202D02*
G01*
X233808759Y-136778322D01*
X233836709Y-136788922D01*
X233896366Y-136820232D01*
X233920962Y-136837208D01*
X233971394Y-136881887D01*
X233991207Y-136904252D01*
X234009058Y-136930114D01*
X234029479Y-136959699D01*
X234043369Y-136986166D01*
X234084938Y-137095770D01*
X234088233Y-137103664D01*
X234091256Y-137110284D01*
X234101200Y-137179443D01*
X234086966Y-137221819D01*
X234083425Y-137228218D01*
X234043371Y-137333831D01*
X234029479Y-137360298D01*
X233991210Y-137415741D01*
X233971389Y-137438114D01*
X233920968Y-137482785D01*
X233896367Y-137499765D01*
X233836711Y-137531075D01*
X233808762Y-137541675D01*
X233743360Y-137557796D01*
X233713683Y-137561400D01*
X233646321Y-137561400D01*
X233616645Y-137557797D01*
X233551233Y-137541674D01*
X233523283Y-137531073D01*
X233463635Y-137499767D01*
X233439034Y-137482786D01*
X233388610Y-137438114D01*
X233368788Y-137415740D01*
X233349653Y-137388019D01*
X233330517Y-137360295D01*
X233316626Y-137333828D01*
X233292741Y-137270847D01*
X233285587Y-137241826D01*
X233283936Y-137228229D01*
X233277465Y-137174937D01*
X233277465Y-137145059D01*
X233285586Y-137078174D01*
X233292739Y-137049157D01*
X233316630Y-136986164D01*
X233330519Y-136959699D01*
X233368790Y-136904253D01*
X233388606Y-136881885D01*
X233439039Y-136837207D01*
X233463634Y-136820231D01*
X233523286Y-136788923D01*
X233551237Y-136778322D01*
X233616641Y-136762202D01*
X233646314Y-136758600D01*
X233713684Y-136758600D01*
X233743357Y-136762202D01*
G37*
%TD.AperFunction*%
%TA.AperFunction,Conductor*%
G36*
X235267357Y-136762202D02*
G01*
X235332759Y-136778322D01*
X235360709Y-136788922D01*
X235420366Y-136820232D01*
X235444963Y-136837210D01*
X235495389Y-136881884D01*
X235515208Y-136904253D01*
X235553479Y-136959699D01*
X235567369Y-136986165D01*
X235591257Y-137049153D01*
X235598411Y-137078176D01*
X235605312Y-137135010D01*
X235605986Y-137140559D01*
X235606532Y-137145051D01*
X235606532Y-137174947D01*
X235598411Y-137241824D01*
X235591257Y-137270847D01*
X235567371Y-137333830D01*
X235553479Y-137360298D01*
X235515210Y-137415741D01*
X235495389Y-137438114D01*
X235444968Y-137482785D01*
X235420367Y-137499765D01*
X235360711Y-137531075D01*
X235332762Y-137541675D01*
X235267360Y-137557796D01*
X235237683Y-137561400D01*
X235170321Y-137561400D01*
X235140645Y-137557797D01*
X235075233Y-137541674D01*
X235047283Y-137531073D01*
X234987635Y-137499767D01*
X234963034Y-137482787D01*
X234963032Y-137482785D01*
X234912606Y-137438112D01*
X234892786Y-137415738D01*
X234854519Y-137360298D01*
X234840630Y-137333837D01*
X234799063Y-137224230D01*
X234795768Y-137216337D01*
X234792743Y-137209715D01*
X234782799Y-137140559D01*
X234797034Y-137098177D01*
X234800579Y-137091770D01*
X234840630Y-136986160D01*
X234854519Y-136959699D01*
X234874940Y-136930114D01*
X234892786Y-136904257D01*
X234912606Y-136881886D01*
X234963039Y-136837207D01*
X234987634Y-136820231D01*
X235047286Y-136788923D01*
X235075237Y-136778322D01*
X235140641Y-136762202D01*
X235170314Y-136758600D01*
X235237684Y-136758600D01*
X235267357Y-136762202D01*
G37*
%TD.AperFunction*%
%TA.AperFunction,Conductor*%
G36*
X222567357Y-136254202D02*
G01*
X222632759Y-136270322D01*
X222660709Y-136280922D01*
X222720366Y-136312232D01*
X222744962Y-136329208D01*
X222795394Y-136373887D01*
X222815207Y-136396252D01*
X222822953Y-136407474D01*
X222853479Y-136451699D01*
X222867369Y-136478166D01*
X222908938Y-136587770D01*
X222912233Y-136595664D01*
X222915256Y-136602284D01*
X222925200Y-136671443D01*
X222910966Y-136713819D01*
X222907425Y-136720218D01*
X222867371Y-136825831D01*
X222853479Y-136852298D01*
X222815210Y-136907741D01*
X222795389Y-136930114D01*
X222748012Y-136972088D01*
X222744968Y-136974785D01*
X222720367Y-136991765D01*
X222660711Y-137023075D01*
X222632762Y-137033675D01*
X222567360Y-137049796D01*
X222537683Y-137053400D01*
X222470321Y-137053400D01*
X222440645Y-137049797D01*
X222438048Y-137049157D01*
X222375233Y-137033674D01*
X222347283Y-137023073D01*
X222287635Y-136991767D01*
X222263034Y-136974786D01*
X222212610Y-136930114D01*
X222192787Y-136907740D01*
X222154515Y-136852292D01*
X222140631Y-136825840D01*
X222116738Y-136762841D01*
X222109586Y-136733823D01*
X222101465Y-136666938D01*
X222101465Y-136637059D01*
X222109586Y-136570174D01*
X222116739Y-136541157D01*
X222140630Y-136478164D01*
X222154519Y-136451699D01*
X222192790Y-136396253D01*
X222212606Y-136373885D01*
X222263039Y-136329207D01*
X222287634Y-136312231D01*
X222347286Y-136280923D01*
X222375237Y-136270322D01*
X222440641Y-136254202D01*
X222470314Y-136250600D01*
X222537684Y-136250600D01*
X222567357Y-136254202D01*
G37*
%TD.AperFunction*%
%TA.AperFunction,Conductor*%
G36*
X224091357Y-136254202D02*
G01*
X224156759Y-136270322D01*
X224184709Y-136280922D01*
X224244366Y-136312232D01*
X224268963Y-136329210D01*
X224319389Y-136373884D01*
X224339208Y-136396253D01*
X224377479Y-136451699D01*
X224391369Y-136478165D01*
X224415257Y-136541153D01*
X224422411Y-136570176D01*
X224430532Y-136637051D01*
X224430532Y-136666947D01*
X224422411Y-136733824D01*
X224415257Y-136762847D01*
X224391371Y-136825830D01*
X224377479Y-136852299D01*
X224339211Y-136907740D01*
X224319390Y-136930113D01*
X224279152Y-136965763D01*
X224268958Y-136974792D01*
X224244367Y-136991765D01*
X224184712Y-137023075D01*
X224156762Y-137033675D01*
X224091360Y-137049796D01*
X224061683Y-137053400D01*
X223994321Y-137053400D01*
X223964645Y-137049797D01*
X223962048Y-137049157D01*
X223899233Y-137033674D01*
X223871283Y-137023073D01*
X223811635Y-136991767D01*
X223787034Y-136974787D01*
X223783989Y-136972089D01*
X223736606Y-136930112D01*
X223716787Y-136907740D01*
X223678518Y-136852298D01*
X223664629Y-136825835D01*
X223623062Y-136716230D01*
X223619768Y-136708337D01*
X223616746Y-136701720D01*
X223606798Y-136632562D01*
X223621034Y-136590177D01*
X223624579Y-136583770D01*
X223664630Y-136478160D01*
X223678519Y-136451699D01*
X223716786Y-136396259D01*
X223736606Y-136373886D01*
X223787039Y-136329207D01*
X223811634Y-136312231D01*
X223871286Y-136280923D01*
X223899237Y-136270322D01*
X223964641Y-136254202D01*
X223994314Y-136250600D01*
X224061684Y-136250600D01*
X224091357Y-136254202D01*
G37*
%TD.AperFunction*%
%TA.AperFunction,Conductor*%
G36*
X308553039Y-81299685D02*
G01*
X308598794Y-81352489D01*
X308610000Y-81404000D01*
X308610000Y-87884000D01*
X309151993Y-87884000D01*
X309219032Y-87903685D01*
X309264787Y-87956489D01*
X309274731Y-88025647D01*
X309254043Y-88078440D01*
X309163505Y-88209607D01*
X309163504Y-88209608D01*
X309106592Y-88359671D01*
X309106591Y-88359676D01*
X309087246Y-88519000D01*
X309106591Y-88678323D01*
X309106592Y-88678328D01*
X309151722Y-88797325D01*
X309163504Y-88828391D01*
X309254676Y-88960477D01*
X309374809Y-89066905D01*
X309516920Y-89141491D01*
X309516922Y-89141491D01*
X309516923Y-89141492D01*
X309672752Y-89179900D01*
X309833248Y-89179900D01*
X309989076Y-89141492D01*
X309989076Y-89141491D01*
X309989080Y-89141491D01*
X310131191Y-89066905D01*
X310251324Y-88960477D01*
X310342496Y-88828391D01*
X310399408Y-88678325D01*
X310418754Y-88519000D01*
X310399408Y-88359675D01*
X310399407Y-88359673D01*
X310399407Y-88359671D01*
X310358498Y-88251803D01*
X310342496Y-88209609D01*
X310251957Y-88078440D01*
X310230074Y-88012085D01*
X310247540Y-87944434D01*
X310298807Y-87896964D01*
X310354007Y-87884000D01*
X310896000Y-87884000D01*
X310896000Y-87476570D01*
X310915685Y-87409531D01*
X310954382Y-87376000D01*
X311149998Y-87376000D01*
X318121650Y-87376000D01*
X318188689Y-87395685D01*
X318234444Y-87448489D01*
X318244388Y-87517647D01*
X318223700Y-87570440D01*
X318180505Y-87633019D01*
X318180504Y-87633020D01*
X318123592Y-87783083D01*
X318123591Y-87783088D01*
X318104246Y-87942412D01*
X318123591Y-88101735D01*
X318123592Y-88101740D01*
X318180504Y-88251803D01*
X318180505Y-88251804D01*
X318254959Y-88359671D01*
X318271676Y-88383889D01*
X318391809Y-88490317D01*
X318533920Y-88564903D01*
X318533922Y-88564903D01*
X318533923Y-88564904D01*
X318689752Y-88603312D01*
X318850248Y-88603312D01*
X319006076Y-88564904D01*
X319006076Y-88564903D01*
X319006080Y-88564903D01*
X319148191Y-88490317D01*
X319268324Y-88383889D01*
X319359496Y-88251803D01*
X319416408Y-88101737D01*
X319435754Y-87942412D01*
X319416408Y-87783087D01*
X319416407Y-87783085D01*
X319416407Y-87783083D01*
X319390546Y-87714894D01*
X319359496Y-87633021D01*
X319268324Y-87500935D01*
X319148191Y-87394507D01*
X319148189Y-87394506D01*
X319145215Y-87391871D01*
X319135260Y-87376000D01*
X319151000Y-87376000D01*
X319151000Y-84213212D01*
X319153383Y-84189021D01*
X319165523Y-84127989D01*
X319184037Y-84083291D01*
X319186215Y-84080032D01*
X319211693Y-84041900D01*
X319245900Y-84007693D01*
X319287292Y-83980036D01*
X319331989Y-83961523D01*
X319393021Y-83949383D01*
X319417212Y-83947000D01*
X328409788Y-83947000D01*
X328433979Y-83949382D01*
X328475384Y-83957619D01*
X328495011Y-83961523D01*
X328539708Y-83980037D01*
X328549986Y-83986904D01*
X328581096Y-84007691D01*
X328615309Y-84041904D01*
X328642962Y-84083291D01*
X328661476Y-84127987D01*
X328673617Y-84189019D01*
X328676000Y-84213212D01*
X328676000Y-136131787D01*
X328673617Y-136155980D01*
X328661476Y-136217012D01*
X328642962Y-136261708D01*
X328615309Y-136303095D01*
X328581095Y-136337309D01*
X328539708Y-136364962D01*
X328495012Y-136383476D01*
X328446989Y-136393029D01*
X328433978Y-136395617D01*
X328409788Y-136398000D01*
X316469564Y-136398000D01*
X316402525Y-136378315D01*
X316356770Y-136325511D01*
X316346826Y-136256353D01*
X316348065Y-136249222D01*
X316354217Y-136219052D01*
X316357499Y-136202962D01*
X316359424Y-136190412D01*
X316363233Y-136153690D01*
X316363924Y-136141013D01*
X316489489Y-113413628D01*
X316572063Y-105156000D01*
X320517246Y-105156000D01*
X320536591Y-105315323D01*
X320536592Y-105315328D01*
X320560238Y-105377676D01*
X320593504Y-105465391D01*
X320684676Y-105597477D01*
X320804809Y-105703905D01*
X320946920Y-105778491D01*
X320946922Y-105778491D01*
X320946923Y-105778492D01*
X321102752Y-105816900D01*
X321263248Y-105816900D01*
X321419076Y-105778492D01*
X321419076Y-105778491D01*
X321419080Y-105778491D01*
X321561191Y-105703905D01*
X321681324Y-105597477D01*
X321772496Y-105465391D01*
X321829408Y-105315325D01*
X321848754Y-105156000D01*
X321829408Y-104996675D01*
X321829407Y-104996673D01*
X321829407Y-104996671D01*
X321783680Y-104876100D01*
X321772496Y-104846609D01*
X321681324Y-104714523D01*
X321561191Y-104608095D01*
X321419080Y-104533509D01*
X321419079Y-104533508D01*
X321419076Y-104533507D01*
X321263248Y-104495100D01*
X321102752Y-104495100D01*
X320946923Y-104533507D01*
X320804809Y-104608095D01*
X320684675Y-104714523D01*
X320593505Y-104846607D01*
X320593504Y-104846608D01*
X320536592Y-104996671D01*
X320536591Y-104996676D01*
X320517246Y-105156000D01*
X316572063Y-105156000D01*
X316578099Y-104552385D01*
X316598453Y-104485547D01*
X316651712Y-104440322D01*
X316720966Y-104431071D01*
X316759719Y-104443830D01*
X316882920Y-104508491D01*
X316882919Y-104508491D01*
X317038752Y-104546900D01*
X317199248Y-104546900D01*
X317355076Y-104508492D01*
X317355076Y-104508491D01*
X317355080Y-104508491D01*
X317497191Y-104433905D01*
X317617324Y-104327477D01*
X317695477Y-104214252D01*
X323786500Y-104214252D01*
X323797290Y-104288316D01*
X323853137Y-104402553D01*
X323943046Y-104492462D01*
X324057283Y-104548309D01*
X324131347Y-104559100D01*
X324866000Y-104559100D01*
X324866000Y-103862686D01*
X324900388Y-103883598D01*
X325044940Y-103924100D01*
X325157353Y-103924100D01*
X325268721Y-103908793D01*
X325374000Y-103863063D01*
X325374000Y-104559100D01*
X326108653Y-104559100D01*
X326182716Y-104548309D01*
X326296953Y-104492462D01*
X326386862Y-104402553D01*
X326442709Y-104288316D01*
X326453500Y-104214252D01*
X326453500Y-103632000D01*
X325609153Y-103632000D01*
X325609433Y-103631603D01*
X325659704Y-103490152D01*
X325669949Y-103340382D01*
X325639406Y-103193403D01*
X325603445Y-103124000D01*
X326453500Y-103124000D01*
X326453500Y-102541747D01*
X326442709Y-102467683D01*
X326386862Y-102353446D01*
X326296953Y-102263537D01*
X326182716Y-102207690D01*
X326108653Y-102196900D01*
X325374000Y-102196900D01*
X325374000Y-102893313D01*
X325339612Y-102872402D01*
X325195060Y-102831900D01*
X325082647Y-102831900D01*
X324971279Y-102847207D01*
X324866000Y-102892936D01*
X324866000Y-102196900D01*
X324131347Y-102196900D01*
X324057283Y-102207690D01*
X323943046Y-102263537D01*
X323853137Y-102353446D01*
X323797290Y-102467683D01*
X323786500Y-102541747D01*
X323786500Y-103124000D01*
X324630847Y-103124000D01*
X324630567Y-103124397D01*
X324580296Y-103265848D01*
X324570051Y-103415618D01*
X324600594Y-103562597D01*
X324636555Y-103632000D01*
X323786500Y-103632000D01*
X323786500Y-104214252D01*
X317695477Y-104214252D01*
X317708496Y-104195391D01*
X317765408Y-104045325D01*
X317784754Y-103886000D01*
X317765408Y-103726675D01*
X317765407Y-103726673D01*
X317765407Y-103726671D01*
X317729352Y-103631603D01*
X317708496Y-103576609D01*
X317617324Y-103444523D01*
X317497191Y-103338095D01*
X317355080Y-103263509D01*
X317355079Y-103263508D01*
X317355076Y-103263507D01*
X317199248Y-103225100D01*
X317038752Y-103225100D01*
X316882921Y-103263508D01*
X316773140Y-103321126D01*
X316704632Y-103334850D01*
X316639579Y-103309358D01*
X316598635Y-103252742D01*
X316591521Y-103210089D01*
X316593605Y-103001754D01*
X316613862Y-100976001D01*
X316613357Y-100963187D01*
X316610051Y-100926058D01*
X316608284Y-100913359D01*
X316595412Y-100845552D01*
X316593188Y-100838000D01*
X323907897Y-100838000D01*
X323928258Y-101044736D01*
X323988563Y-101243535D01*
X324086485Y-101426733D01*
X324086489Y-101426740D01*
X324218276Y-101587323D01*
X324378859Y-101719110D01*
X324378866Y-101719114D01*
X324562064Y-101817036D01*
X324562066Y-101817036D01*
X324562069Y-101817038D01*
X324760862Y-101877341D01*
X324760861Y-101877341D01*
X324799593Y-101881155D01*
X324915789Y-101892600D01*
X324915792Y-101892600D01*
X325324208Y-101892600D01*
X325324211Y-101892600D01*
X325479138Y-101877341D01*
X325677931Y-101817038D01*
X325861139Y-101719111D01*
X326021723Y-101587323D01*
X326153511Y-101426739D01*
X326251438Y-101243531D01*
X326311741Y-101044738D01*
X326332103Y-100838000D01*
X326311741Y-100631262D01*
X326251438Y-100432469D01*
X326251436Y-100432466D01*
X326251436Y-100432464D01*
X326153514Y-100249266D01*
X326153510Y-100249259D01*
X326021723Y-100088676D01*
X325861140Y-99956889D01*
X325861133Y-99956885D01*
X325677935Y-99858963D01*
X325578534Y-99828810D01*
X325479138Y-99798659D01*
X325479136Y-99798658D01*
X325479138Y-99798658D01*
X325359544Y-99786880D01*
X325324211Y-99783400D01*
X324915789Y-99783400D01*
X324877547Y-99787166D01*
X324760863Y-99798658D01*
X324562064Y-99858963D01*
X324378866Y-99956885D01*
X324378859Y-99956889D01*
X324218276Y-100088676D01*
X324086489Y-100249259D01*
X324086485Y-100249266D01*
X323988563Y-100432464D01*
X323928258Y-100631263D01*
X323907897Y-100838000D01*
X316593188Y-100838000D01*
X316580950Y-100796446D01*
X316579423Y-100792681D01*
X316562655Y-100751325D01*
X316562654Y-100751324D01*
X316538836Y-100706018D01*
X316511275Y-100664206D01*
X316511272Y-100664203D01*
X316511268Y-100664196D01*
X316479023Y-100624452D01*
X316479017Y-100624445D01*
X316444774Y-100589857D01*
X316405338Y-100557202D01*
X316403424Y-100555913D01*
X316363803Y-100529223D01*
X316362046Y-100528277D01*
X316348824Y-100521156D01*
X316318721Y-100504945D01*
X316318718Y-100504943D01*
X316318713Y-100504941D01*
X316273797Y-100486206D01*
X316273790Y-100486203D01*
X316273788Y-100486203D01*
X316224832Y-100471253D01*
X316224826Y-100471251D01*
X316224821Y-100471250D01*
X316170778Y-100460431D01*
X316157155Y-100457704D01*
X316157151Y-100457703D01*
X316157150Y-100457703D01*
X316148172Y-100456363D01*
X316144475Y-100455811D01*
X316107374Y-100452133D01*
X316094567Y-100451500D01*
X313187841Y-100451500D01*
X313178931Y-100451937D01*
X313175110Y-100452125D01*
X313175111Y-100452125D01*
X313138242Y-100455757D01*
X313138241Y-100455757D01*
X313132914Y-100456547D01*
X313125645Y-100457626D01*
X313125646Y-100457626D01*
X313058369Y-100471007D01*
X313058367Y-100471008D01*
X313058365Y-100471008D01*
X313058363Y-100471009D01*
X313057569Y-100471250D01*
X313009685Y-100485775D01*
X312964989Y-100504287D01*
X312920117Y-100528271D01*
X312920108Y-100528277D01*
X312878747Y-100555913D01*
X312878726Y-100555928D01*
X312839415Y-100588190D01*
X312839404Y-100588200D01*
X312805202Y-100622401D01*
X312772930Y-100661726D01*
X312772915Y-100661745D01*
X312745275Y-100703112D01*
X312745261Y-100703135D01*
X312721291Y-100747980D01*
X312721287Y-100747988D01*
X312702776Y-100792681D01*
X312688007Y-100841368D01*
X312674626Y-100908646D01*
X312674626Y-100908645D01*
X312672758Y-100921239D01*
X312672757Y-100921242D01*
X312669125Y-100958111D01*
X312669125Y-100958110D01*
X312668500Y-100970848D01*
X312668500Y-101831100D01*
X312648815Y-101898139D01*
X312596011Y-101943894D01*
X312544500Y-101955100D01*
X312466752Y-101955100D01*
X312310923Y-101993507D01*
X312168809Y-102068095D01*
X312048675Y-102174523D01*
X311957505Y-102306607D01*
X311957504Y-102306608D01*
X311900592Y-102456671D01*
X311900591Y-102456676D01*
X311881246Y-102616000D01*
X311900591Y-102775323D01*
X311900592Y-102775328D01*
X311937408Y-102872402D01*
X311957504Y-102925391D01*
X312048676Y-103057477D01*
X312168809Y-103163905D01*
X312310920Y-103238491D01*
X312310922Y-103238491D01*
X312310923Y-103238492D01*
X312466752Y-103276900D01*
X312544500Y-103276900D01*
X312611539Y-103296585D01*
X312657294Y-103349389D01*
X312668500Y-103400900D01*
X312668500Y-104936218D01*
X312648815Y-105003257D01*
X312596011Y-105049012D01*
X312526853Y-105058956D01*
X312463297Y-105029931D01*
X312462274Y-105029034D01*
X312417193Y-104989096D01*
X312275076Y-104914507D01*
X312119248Y-104876100D01*
X311958752Y-104876100D01*
X311802923Y-104914507D01*
X311660809Y-104989095D01*
X311540675Y-105095523D01*
X311449505Y-105227607D01*
X311449504Y-105227608D01*
X311392592Y-105377671D01*
X311392591Y-105377676D01*
X311373246Y-105537000D01*
X311392591Y-105696323D01*
X311392592Y-105696328D01*
X311449504Y-105846391D01*
X311540676Y-105978477D01*
X311660809Y-106084905D01*
X311802920Y-106159491D01*
X311802922Y-106159491D01*
X311802923Y-106159492D01*
X311958752Y-106197900D01*
X312119248Y-106197900D01*
X312275076Y-106159492D01*
X312275076Y-106159491D01*
X312275080Y-106159491D01*
X312417191Y-106084905D01*
X312462273Y-106044965D01*
X312525505Y-106015244D01*
X312594769Y-106024427D01*
X312648073Y-106069599D01*
X312668493Y-106136419D01*
X312668500Y-106137781D01*
X312668500Y-106166360D01*
X312648815Y-106233399D01*
X312642003Y-106242970D01*
X310045108Y-109548110D01*
X309988212Y-109588663D01*
X309947605Y-109595500D01*
X250322841Y-109595500D01*
X250313931Y-109595937D01*
X250310110Y-109596125D01*
X250310111Y-109596125D01*
X250273242Y-109599757D01*
X250273241Y-109599757D01*
X250267914Y-109600547D01*
X250260645Y-109601626D01*
X250260646Y-109601626D01*
X250193369Y-109615007D01*
X250193367Y-109615008D01*
X250193365Y-109615008D01*
X250193363Y-109615009D01*
X250144688Y-109629774D01*
X250144685Y-109629775D01*
X250099989Y-109648287D01*
X250055117Y-109672271D01*
X250055108Y-109672277D01*
X250013747Y-109699913D01*
X250013726Y-109699928D01*
X249974415Y-109732190D01*
X249974404Y-109732200D01*
X249940201Y-109766402D01*
X249907352Y-109806429D01*
X249849606Y-109845763D01*
X249779762Y-109847632D01*
X249719994Y-109811445D01*
X249689278Y-109748688D01*
X249687500Y-109727763D01*
X249687500Y-99060000D01*
X299308246Y-99060000D01*
X299327591Y-99219323D01*
X299327592Y-99219328D01*
X299384504Y-99369391D01*
X299384505Y-99369392D01*
X299460024Y-99478802D01*
X299475676Y-99501477D01*
X299595809Y-99607905D01*
X299737920Y-99682491D01*
X299737922Y-99682491D01*
X299737923Y-99682492D01*
X299893752Y-99720900D01*
X300054248Y-99720900D01*
X300210076Y-99682492D01*
X300210076Y-99682491D01*
X300210080Y-99682491D01*
X300352191Y-99607905D01*
X300472324Y-99501477D01*
X300563496Y-99369391D01*
X300620408Y-99219325D01*
X300639754Y-99060000D01*
X300620408Y-98900675D01*
X300620407Y-98900673D01*
X300620407Y-98900671D01*
X300567317Y-98760685D01*
X300563496Y-98750609D01*
X300472324Y-98618523D01*
X300352191Y-98512095D01*
X300210080Y-98437509D01*
X300210079Y-98437508D01*
X300210076Y-98437507D01*
X300054248Y-98399100D01*
X299893752Y-98399100D01*
X299737923Y-98437507D01*
X299595809Y-98512095D01*
X299475675Y-98618523D01*
X299384505Y-98750607D01*
X299384504Y-98750608D01*
X299327592Y-98900671D01*
X299327591Y-98900676D01*
X299308246Y-99060000D01*
X249687500Y-99060000D01*
X249687500Y-98298000D01*
X323907897Y-98298000D01*
X323928258Y-98504736D01*
X323988563Y-98703535D01*
X324086485Y-98886733D01*
X324086489Y-98886740D01*
X324218276Y-99047323D01*
X324378859Y-99179110D01*
X324378866Y-99179114D01*
X324562064Y-99277036D01*
X324562066Y-99277036D01*
X324562069Y-99277038D01*
X324760862Y-99337341D01*
X324760861Y-99337341D01*
X324799593Y-99341155D01*
X324915789Y-99352600D01*
X324915792Y-99352600D01*
X325324208Y-99352600D01*
X325324211Y-99352600D01*
X325479138Y-99337341D01*
X325677931Y-99277038D01*
X325861139Y-99179111D01*
X326021723Y-99047323D01*
X326153511Y-98886739D01*
X326251438Y-98703531D01*
X326311741Y-98504738D01*
X326332103Y-98298000D01*
X326311741Y-98091262D01*
X326251438Y-97892469D01*
X326251436Y-97892466D01*
X326251436Y-97892464D01*
X326153514Y-97709266D01*
X326153510Y-97709259D01*
X326021723Y-97548676D01*
X325861140Y-97416889D01*
X325861133Y-97416885D01*
X325677935Y-97318963D01*
X325578534Y-97288810D01*
X325479138Y-97258659D01*
X325479136Y-97258658D01*
X325479138Y-97258658D01*
X325359544Y-97246880D01*
X325324211Y-97243400D01*
X324915789Y-97243400D01*
X324877547Y-97247166D01*
X324760863Y-97258658D01*
X324562064Y-97318963D01*
X324378866Y-97416885D01*
X324378859Y-97416889D01*
X324218276Y-97548676D01*
X324086489Y-97709259D01*
X324086485Y-97709266D01*
X323988563Y-97892464D01*
X323928258Y-98091263D01*
X323907897Y-98298000D01*
X249687500Y-98298000D01*
X249687500Y-95758000D01*
X323907897Y-95758000D01*
X323928258Y-95964736D01*
X323988563Y-96163535D01*
X324086485Y-96346733D01*
X324086489Y-96346740D01*
X324218276Y-96507323D01*
X324378859Y-96639110D01*
X324378866Y-96639114D01*
X324562064Y-96737036D01*
X324562066Y-96737036D01*
X324562069Y-96737038D01*
X324760862Y-96797341D01*
X324760861Y-96797341D01*
X324799593Y-96801155D01*
X324915789Y-96812600D01*
X324915792Y-96812600D01*
X325324208Y-96812600D01*
X325324211Y-96812600D01*
X325479138Y-96797341D01*
X325677931Y-96737038D01*
X325861139Y-96639111D01*
X326021723Y-96507323D01*
X326153511Y-96346739D01*
X326251438Y-96163531D01*
X326311741Y-95964738D01*
X326332103Y-95758000D01*
X326311741Y-95551262D01*
X326251438Y-95352469D01*
X326251436Y-95352466D01*
X326251436Y-95352464D01*
X326153514Y-95169266D01*
X326153510Y-95169259D01*
X326021723Y-95008676D01*
X325861140Y-94876889D01*
X325861133Y-94876885D01*
X325677935Y-94778963D01*
X325578534Y-94748810D01*
X325479138Y-94718659D01*
X325479136Y-94718658D01*
X325479138Y-94718658D01*
X325359544Y-94706880D01*
X325324211Y-94703400D01*
X324915789Y-94703400D01*
X324877547Y-94707166D01*
X324760863Y-94718658D01*
X324562064Y-94778963D01*
X324378866Y-94876885D01*
X324378859Y-94876889D01*
X324218276Y-95008676D01*
X324086489Y-95169259D01*
X324086485Y-95169266D01*
X323988563Y-95352464D01*
X323928258Y-95551263D01*
X323907897Y-95758000D01*
X249687500Y-95758000D01*
X249687500Y-93345000D01*
X321660246Y-93345000D01*
X321679591Y-93504323D01*
X321679592Y-93504328D01*
X321736504Y-93654391D01*
X321827676Y-93786477D01*
X321947809Y-93892905D01*
X322089920Y-93967491D01*
X322089922Y-93967491D01*
X322089923Y-93967492D01*
X322245752Y-94005900D01*
X322406248Y-94005900D01*
X322562076Y-93967492D01*
X322562076Y-93967491D01*
X322562080Y-93967491D01*
X322704191Y-93892905D01*
X322824324Y-93786477D01*
X322915496Y-93654391D01*
X322972408Y-93504325D01*
X322991754Y-93345000D01*
X322972408Y-93185675D01*
X322972407Y-93185673D01*
X322972407Y-93185671D01*
X322921107Y-93050405D01*
X322915496Y-93035609D01*
X322824324Y-92903523D01*
X322710647Y-92802814D01*
X322673521Y-92743626D01*
X322674289Y-92673761D01*
X322710647Y-92617185D01*
X322824324Y-92516477D01*
X322915496Y-92384391D01*
X322972408Y-92234325D01*
X322991754Y-92075000D01*
X322972408Y-91915675D01*
X322972407Y-91915673D01*
X322972407Y-91915671D01*
X322944315Y-91841600D01*
X322915496Y-91765609D01*
X322824324Y-91633523D01*
X322704191Y-91527095D01*
X322562080Y-91452509D01*
X322562079Y-91452508D01*
X322562076Y-91452507D01*
X322406248Y-91414100D01*
X322245752Y-91414100D01*
X322089923Y-91452507D01*
X321947809Y-91527095D01*
X321827675Y-91633523D01*
X321736505Y-91765607D01*
X321736504Y-91765608D01*
X321679592Y-91915671D01*
X321679591Y-91915676D01*
X321660246Y-92075000D01*
X321679591Y-92234323D01*
X321679592Y-92234328D01*
X321717090Y-92333201D01*
X321736504Y-92384391D01*
X321827676Y-92516476D01*
X321827677Y-92516478D01*
X321941351Y-92617185D01*
X321978478Y-92676374D01*
X321977710Y-92746240D01*
X321941351Y-92802815D01*
X321827677Y-92903521D01*
X321736505Y-93035607D01*
X321736504Y-93035608D01*
X321679592Y-93185671D01*
X321679591Y-93185676D01*
X321660246Y-93345000D01*
X249687500Y-93345000D01*
X249687500Y-92715847D01*
X249686875Y-92703114D01*
X249683244Y-92666244D01*
X249681373Y-92653637D01*
X249681373Y-92653636D01*
X249674725Y-92620220D01*
X249667989Y-92586357D01*
X249667984Y-92586340D01*
X249653227Y-92537693D01*
X249653218Y-92537668D01*
X249638651Y-92502500D01*
X306974746Y-92502500D01*
X306994091Y-92661823D01*
X306994092Y-92661828D01*
X307026106Y-92746240D01*
X307051004Y-92811891D01*
X307142176Y-92943977D01*
X307262309Y-93050405D01*
X307404420Y-93124991D01*
X307404422Y-93124991D01*
X307404423Y-93124992D01*
X307560252Y-93163400D01*
X307720748Y-93163400D01*
X307876576Y-93124992D01*
X307876576Y-93124991D01*
X307876580Y-93124991D01*
X308018691Y-93050405D01*
X308138824Y-92943977D01*
X308229996Y-92811891D01*
X308286908Y-92661825D01*
X308306254Y-92502500D01*
X308286908Y-92343175D01*
X308286907Y-92343173D01*
X308286907Y-92343171D01*
X308260397Y-92273271D01*
X308229996Y-92193109D01*
X308138824Y-92061023D01*
X308018691Y-91954595D01*
X307876580Y-91880009D01*
X307876579Y-91880008D01*
X307876576Y-91880007D01*
X307720748Y-91841600D01*
X307560252Y-91841600D01*
X307404423Y-91880007D01*
X307262309Y-91954595D01*
X307142175Y-92061023D01*
X307051005Y-92193107D01*
X307051004Y-92193108D01*
X306994092Y-92343171D01*
X306994091Y-92343176D01*
X306974746Y-92502500D01*
X249638651Y-92502500D01*
X249634708Y-92492982D01*
X249634705Y-92492976D01*
X249610738Y-92448137D01*
X249610737Y-92448136D01*
X249610731Y-92448124D01*
X249583078Y-92406737D01*
X249583076Y-92406734D01*
X249583074Y-92406730D01*
X249550800Y-92367406D01*
X249516595Y-92333201D01*
X249511638Y-92329133D01*
X249477267Y-92300925D01*
X249477258Y-92300919D01*
X249477249Y-92300912D01*
X249435896Y-92273281D01*
X249435868Y-92273264D01*
X249391010Y-92249287D01*
X249346315Y-92230775D01*
X249297632Y-92216007D01*
X249230355Y-92202626D01*
X249230357Y-92202626D01*
X249224058Y-92201692D01*
X249217758Y-92200757D01*
X249180886Y-92197125D01*
X249180887Y-92197125D01*
X249179067Y-92197035D01*
X249168159Y-92196500D01*
X245010380Y-92196500D01*
X244998910Y-92197008D01*
X244965649Y-92199958D01*
X244954270Y-92201477D01*
X244893239Y-92212389D01*
X244893232Y-92212390D01*
X244893231Y-92212391D01*
X244848986Y-92224418D01*
X244848983Y-92224419D01*
X244808041Y-92239545D01*
X244808037Y-92239547D01*
X244808037Y-92239546D01*
X244766592Y-92259178D01*
X244766593Y-92259178D01*
X244745502Y-92271560D01*
X244727708Y-92282007D01*
X244701190Y-92300912D01*
X244690374Y-92308622D01*
X244690370Y-92308624D01*
X244690369Y-92308626D01*
X244657211Y-92337000D01*
X244625137Y-92369781D01*
X244594888Y-92406730D01*
X244585858Y-92417760D01*
X244578984Y-92426957D01*
X244560203Y-92454554D01*
X244554168Y-92464323D01*
X241865149Y-97282153D01*
X241815287Y-97331099D01*
X241746880Y-97345317D01*
X241736463Y-97344029D01*
X241668433Y-97332677D01*
X241439568Y-97332677D01*
X241213819Y-97370347D01*
X240997364Y-97444657D01*
X240997355Y-97444660D01*
X240796074Y-97553589D01*
X240631676Y-97681544D01*
X240566682Y-97707186D01*
X240498142Y-97693619D01*
X240498040Y-97693566D01*
X240486819Y-97687696D01*
X240486817Y-97687695D01*
X240419785Y-97668013D01*
X240419773Y-97668010D01*
X240346669Y-97657500D01*
X240346668Y-97657500D01*
X227335841Y-97657500D01*
X227326931Y-97657937D01*
X227323110Y-97658125D01*
X227323111Y-97658125D01*
X227286242Y-97661757D01*
X227286241Y-97661757D01*
X227280914Y-97662547D01*
X227273645Y-97663626D01*
X227273646Y-97663626D01*
X227206369Y-97677007D01*
X227206367Y-97677008D01*
X227206365Y-97677008D01*
X227206363Y-97677009D01*
X227157688Y-97691774D01*
X227157685Y-97691775D01*
X227112989Y-97710287D01*
X227068117Y-97734271D01*
X227068108Y-97734277D01*
X227026747Y-97761913D01*
X227026726Y-97761928D01*
X226987415Y-97794190D01*
X226987404Y-97794200D01*
X226953202Y-97828401D01*
X226920928Y-97867727D01*
X226920915Y-97867745D01*
X226893275Y-97909112D01*
X226893261Y-97909135D01*
X226869291Y-97953980D01*
X226869287Y-97953988D01*
X226850776Y-97998681D01*
X226836007Y-98047368D01*
X226822626Y-98114646D01*
X226822626Y-98114645D01*
X226820758Y-98127239D01*
X226820757Y-98127242D01*
X226817125Y-98164111D01*
X226817125Y-98164110D01*
X226816500Y-98176848D01*
X226816500Y-98425340D01*
X226796815Y-98492379D01*
X226744011Y-98538134D01*
X226674853Y-98548078D01*
X226619901Y-98525461D01*
X226619799Y-98525616D01*
X226619033Y-98525104D01*
X226618641Y-98524943D01*
X226617267Y-98523924D01*
X226575896Y-98496281D01*
X226575868Y-98496264D01*
X226531010Y-98472287D01*
X226486315Y-98453775D01*
X226437632Y-98439007D01*
X226370355Y-98425626D01*
X226370357Y-98425626D01*
X226364058Y-98424692D01*
X226357758Y-98423757D01*
X226320886Y-98420125D01*
X226320887Y-98420125D01*
X226319067Y-98420035D01*
X226308159Y-98419500D01*
X221239841Y-98419500D01*
X221230931Y-98419937D01*
X221227110Y-98420125D01*
X221227111Y-98420125D01*
X221190242Y-98423757D01*
X221190241Y-98423757D01*
X221184914Y-98424547D01*
X221177645Y-98425626D01*
X221177646Y-98425626D01*
X221128189Y-98435463D01*
X221058597Y-98429234D01*
X221003421Y-98386370D01*
X220980178Y-98320480D01*
X220980000Y-98313845D01*
X220980000Y-90104797D01*
X312929175Y-90104797D01*
X312948520Y-90264120D01*
X312948521Y-90264125D01*
X313005433Y-90414188D01*
X313096605Y-90546274D01*
X313216738Y-90652702D01*
X313358849Y-90727288D01*
X313358851Y-90727288D01*
X313358852Y-90727289D01*
X313514681Y-90765697D01*
X313675177Y-90765697D01*
X313831005Y-90727289D01*
X313831005Y-90727288D01*
X313831009Y-90727288D01*
X313973120Y-90652702D01*
X314093253Y-90546274D01*
X314184425Y-90414188D01*
X314241337Y-90264122D01*
X314260683Y-90104797D01*
X314241337Y-89945472D01*
X314241336Y-89945470D01*
X314241336Y-89945468D01*
X314203002Y-89844391D01*
X314184425Y-89795406D01*
X314093253Y-89663320D01*
X314093251Y-89663318D01*
X313994334Y-89575685D01*
X313968814Y-89535000D01*
X317215246Y-89535000D01*
X317234591Y-89694323D01*
X317234592Y-89694328D01*
X317291504Y-89844391D01*
X317291505Y-89844392D01*
X317361275Y-89945473D01*
X317382676Y-89976477D01*
X317502809Y-90082905D01*
X317644920Y-90157491D01*
X317644922Y-90157491D01*
X317644923Y-90157492D01*
X317800752Y-90195900D01*
X317961248Y-90195900D01*
X318117076Y-90157492D01*
X318117076Y-90157491D01*
X318117080Y-90157491D01*
X318259191Y-90082905D01*
X318379324Y-89976477D01*
X318470496Y-89844391D01*
X318527408Y-89694325D01*
X318546754Y-89535000D01*
X318527408Y-89375675D01*
X318527407Y-89375673D01*
X318527407Y-89375671D01*
X318495937Y-89292692D01*
X318470496Y-89225609D01*
X318379324Y-89093523D01*
X318259191Y-88987095D01*
X318117080Y-88912509D01*
X318117079Y-88912508D01*
X318117076Y-88912507D01*
X317961248Y-88874100D01*
X317800752Y-88874100D01*
X317644923Y-88912507D01*
X317502809Y-88987095D01*
X317382675Y-89093523D01*
X317291505Y-89225607D01*
X317291504Y-89225608D01*
X317234592Y-89375671D01*
X317234591Y-89375676D01*
X317215246Y-89535000D01*
X313968814Y-89535000D01*
X313957207Y-89516496D01*
X313957975Y-89446630D01*
X313996392Y-89388271D01*
X314046891Y-89362472D01*
X314053080Y-89360947D01*
X314195191Y-89286361D01*
X314315324Y-89179933D01*
X314406496Y-89047847D01*
X314463408Y-88897781D01*
X314482754Y-88738456D01*
X314470556Y-88638000D01*
X322684246Y-88638000D01*
X322703591Y-88797323D01*
X322703592Y-88797328D01*
X322760504Y-88947391D01*
X322760505Y-88947392D01*
X322842997Y-89066904D01*
X322851676Y-89079477D01*
X322971809Y-89185905D01*
X323113920Y-89260491D01*
X323113922Y-89260491D01*
X323113923Y-89260492D01*
X323269752Y-89298900D01*
X323430248Y-89298900D01*
X323586076Y-89260492D01*
X323586076Y-89260491D01*
X323586080Y-89260491D01*
X323728191Y-89185905D01*
X323848324Y-89079477D01*
X323939496Y-88947391D01*
X323996408Y-88797325D01*
X324015754Y-88638000D01*
X323996408Y-88478675D01*
X323996407Y-88478673D01*
X323996407Y-88478671D01*
X323951278Y-88359676D01*
X323939496Y-88328609D01*
X323848324Y-88196523D01*
X323728191Y-88090095D01*
X323586080Y-88015509D01*
X323586079Y-88015508D01*
X323586076Y-88015507D01*
X323430248Y-87977100D01*
X323269752Y-87977100D01*
X323113923Y-88015507D01*
X322971809Y-88090095D01*
X322851675Y-88196523D01*
X322760505Y-88328607D01*
X322760504Y-88328608D01*
X322703592Y-88478671D01*
X322703591Y-88478676D01*
X322684246Y-88638000D01*
X314470556Y-88638000D01*
X314463408Y-88579131D01*
X314463407Y-88579129D01*
X314463407Y-88579127D01*
X314437546Y-88510938D01*
X314406496Y-88429065D01*
X314315324Y-88296979D01*
X314195191Y-88190551D01*
X314053080Y-88115965D01*
X314053079Y-88115964D01*
X314053076Y-88115963D01*
X313897248Y-88077556D01*
X313736752Y-88077556D01*
X313580923Y-88115963D01*
X313438809Y-88190551D01*
X313318675Y-88296979D01*
X313227505Y-88429063D01*
X313227504Y-88429064D01*
X313170592Y-88579127D01*
X313170591Y-88579132D01*
X313151246Y-88738456D01*
X313170591Y-88897779D01*
X313170592Y-88897784D01*
X313207892Y-88996135D01*
X313227504Y-89047847D01*
X313318676Y-89179932D01*
X313318677Y-89179934D01*
X313417594Y-89267567D01*
X313454721Y-89326756D01*
X313453953Y-89396621D01*
X313415536Y-89454981D01*
X313365046Y-89480778D01*
X313358853Y-89482304D01*
X313216738Y-89556892D01*
X313096604Y-89663320D01*
X313005434Y-89795404D01*
X313005433Y-89795405D01*
X312948521Y-89945468D01*
X312948520Y-89945473D01*
X312929175Y-90104797D01*
X220980000Y-90104797D01*
X220980000Y-88406784D01*
X237450977Y-88406784D01*
X237469878Y-88610770D01*
X237525941Y-88807808D01*
X237525946Y-88807821D01*
X237617256Y-88991195D01*
X237740714Y-89154680D01*
X237892106Y-89292691D01*
X237892108Y-89292693D01*
X238066279Y-89400535D01*
X238066285Y-89400538D01*
X238106753Y-89416215D01*
X238257310Y-89474541D01*
X238458683Y-89512184D01*
X238458685Y-89512184D01*
X238663541Y-89512184D01*
X238663543Y-89512184D01*
X238864916Y-89474541D01*
X239055943Y-89400537D01*
X239230119Y-89292692D01*
X239381513Y-89154678D01*
X239504970Y-88991195D01*
X239596284Y-88807811D01*
X239652347Y-88610771D01*
X239671249Y-88406784D01*
X242450977Y-88406784D01*
X242469878Y-88610770D01*
X242525941Y-88807808D01*
X242525946Y-88807821D01*
X242617256Y-88991195D01*
X242740714Y-89154680D01*
X242892106Y-89292691D01*
X242892108Y-89292693D01*
X243066279Y-89400535D01*
X243066285Y-89400538D01*
X243106753Y-89416215D01*
X243257310Y-89474541D01*
X243458683Y-89512184D01*
X243458685Y-89512184D01*
X243663541Y-89512184D01*
X243663543Y-89512184D01*
X243864916Y-89474541D01*
X244055943Y-89400537D01*
X244230119Y-89292692D01*
X244381513Y-89154678D01*
X244504970Y-88991195D01*
X244581394Y-88837714D01*
X278853500Y-88837714D01*
X278868266Y-88911952D01*
X278924515Y-88996135D01*
X278958234Y-89018665D01*
X279008699Y-89052385D01*
X279008702Y-89052385D01*
X279008703Y-89052386D01*
X279033666Y-89057351D01*
X279082933Y-89067151D01*
X280733066Y-89067150D01*
X280807301Y-89052385D01*
X280891484Y-88996135D01*
X280947734Y-88911952D01*
X280948706Y-88907063D01*
X287743500Y-88907063D01*
X287758266Y-88981301D01*
X287814515Y-89065484D01*
X287848234Y-89088014D01*
X287898699Y-89121734D01*
X287898702Y-89121734D01*
X287898703Y-89121735D01*
X287923666Y-89126700D01*
X287972933Y-89136500D01*
X289623066Y-89136499D01*
X289697301Y-89121734D01*
X289781484Y-89065484D01*
X289837734Y-88981301D01*
X289852500Y-88907067D01*
X289852499Y-87256934D01*
X289837734Y-87182699D01*
X289791396Y-87113350D01*
X289781484Y-87098515D01*
X289731019Y-87064796D01*
X289697301Y-87042266D01*
X289697299Y-87042265D01*
X289697296Y-87042264D01*
X289623069Y-87027500D01*
X287972936Y-87027500D01*
X287898698Y-87042266D01*
X287814515Y-87098515D01*
X287758266Y-87182699D01*
X287758264Y-87182703D01*
X287743500Y-87256928D01*
X287743500Y-88907063D01*
X280948706Y-88907063D01*
X280962500Y-88837718D01*
X280962499Y-87187585D01*
X280947734Y-87113350D01*
X280900237Y-87042266D01*
X280891484Y-87029166D01*
X280841019Y-86995447D01*
X280807301Y-86972917D01*
X280807299Y-86972916D01*
X280807296Y-86972915D01*
X280733069Y-86958151D01*
X279082936Y-86958151D01*
X279008698Y-86972917D01*
X278924515Y-87029166D01*
X278868266Y-87113350D01*
X278868264Y-87113354D01*
X278853500Y-87187579D01*
X278853500Y-88837714D01*
X244581394Y-88837714D01*
X244596284Y-88807811D01*
X244652347Y-88610771D01*
X244671249Y-88406784D01*
X244669127Y-88383889D01*
X244652347Y-88202797D01*
X244627640Y-88115963D01*
X244596284Y-88005757D01*
X244579024Y-87971095D01*
X244535656Y-87884000D01*
X244504970Y-87822373D01*
X244381513Y-87658890D01*
X244381511Y-87658887D01*
X244230119Y-87520876D01*
X244230117Y-87520874D01*
X244055946Y-87413032D01*
X244055940Y-87413029D01*
X243905386Y-87354705D01*
X243864916Y-87339027D01*
X243663543Y-87301384D01*
X243458683Y-87301384D01*
X243257310Y-87339027D01*
X243257307Y-87339027D01*
X243257307Y-87339028D01*
X243066285Y-87413029D01*
X243066279Y-87413032D01*
X242892108Y-87520874D01*
X242892106Y-87520876D01*
X242740714Y-87658887D01*
X242617256Y-87822372D01*
X242525946Y-88005746D01*
X242525941Y-88005759D01*
X242469878Y-88202797D01*
X242450977Y-88406783D01*
X242450977Y-88406784D01*
X239671249Y-88406784D01*
X239669127Y-88383889D01*
X239652347Y-88202797D01*
X239627640Y-88115963D01*
X239596284Y-88005757D01*
X239579024Y-87971095D01*
X239535656Y-87884000D01*
X239504970Y-87822373D01*
X239381513Y-87658890D01*
X239381511Y-87658887D01*
X239230119Y-87520876D01*
X239230117Y-87520874D01*
X239055946Y-87413032D01*
X239055940Y-87413029D01*
X238905386Y-87354705D01*
X238864916Y-87339027D01*
X238663543Y-87301384D01*
X238458683Y-87301384D01*
X238257310Y-87339027D01*
X238257307Y-87339027D01*
X238257307Y-87339028D01*
X238066285Y-87413029D01*
X238066279Y-87413032D01*
X237892108Y-87520874D01*
X237892106Y-87520876D01*
X237740714Y-87658887D01*
X237617256Y-87822372D01*
X237525946Y-88005746D01*
X237525941Y-88005759D01*
X237469878Y-88202797D01*
X237450977Y-88406783D01*
X237450977Y-88406784D01*
X220980000Y-88406784D01*
X220980000Y-88150212D01*
X220982383Y-88126021D01*
X220994523Y-88064989D01*
X221013037Y-88020291D01*
X221040693Y-87978900D01*
X221074900Y-87944693D01*
X221116292Y-87917036D01*
X221160989Y-87898523D01*
X221222021Y-87886383D01*
X221246212Y-87884000D01*
X232918002Y-87884000D01*
X233172000Y-87884000D01*
X233172000Y-87025299D01*
X256982718Y-87025299D01*
X257002063Y-87184622D01*
X257002064Y-87184627D01*
X257038808Y-87281512D01*
X257058976Y-87334690D01*
X257150148Y-87466776D01*
X257270281Y-87573204D01*
X257412392Y-87647790D01*
X257412394Y-87647790D01*
X257412395Y-87647791D01*
X257568224Y-87686199D01*
X257728720Y-87686199D01*
X257884548Y-87647791D01*
X257884548Y-87647790D01*
X257884552Y-87647790D01*
X258026663Y-87573204D01*
X258146796Y-87466776D01*
X258237968Y-87334690D01*
X258293757Y-87187585D01*
X258294879Y-87184627D01*
X258294880Y-87184622D01*
X258295113Y-87182703D01*
X258314226Y-87025299D01*
X258294880Y-86865974D01*
X258294879Y-86865972D01*
X258294879Y-86865970D01*
X258269018Y-86797781D01*
X258237968Y-86715908D01*
X258146796Y-86583822D01*
X258026663Y-86477394D01*
X257884552Y-86402808D01*
X257884551Y-86402807D01*
X257884548Y-86402806D01*
X257728720Y-86364399D01*
X257568224Y-86364399D01*
X257412395Y-86402806D01*
X257270281Y-86477394D01*
X257150147Y-86583822D01*
X257058977Y-86715906D01*
X257058976Y-86715907D01*
X257002064Y-86865970D01*
X257002063Y-86865975D01*
X256982718Y-87025299D01*
X233172000Y-87025299D01*
X233172000Y-83406784D01*
X237324507Y-83406784D01*
X237343293Y-83621513D01*
X237343295Y-83621523D01*
X237399080Y-83829720D01*
X237399084Y-83829729D01*
X237490179Y-84025084D01*
X237528654Y-84080032D01*
X237999054Y-83609631D01*
X238039722Y-83707809D01*
X238135399Y-83832498D01*
X238260088Y-83928175D01*
X238358264Y-83968841D01*
X237887863Y-84439241D01*
X237942812Y-84477717D01*
X238138167Y-84568812D01*
X238138176Y-84568816D01*
X238346373Y-84624601D01*
X238346383Y-84624603D01*
X238561112Y-84643390D01*
X238561114Y-84643390D01*
X238775842Y-84624603D01*
X238775852Y-84624601D01*
X238984049Y-84568816D01*
X238984058Y-84568812D01*
X239179413Y-84477717D01*
X239234361Y-84439241D01*
X238763961Y-83968841D01*
X238862138Y-83928175D01*
X238986827Y-83832498D01*
X239082504Y-83707810D01*
X239123171Y-83609632D01*
X239593570Y-84080031D01*
X239632046Y-84025084D01*
X239723141Y-83829729D01*
X239723145Y-83829720D01*
X239778930Y-83621523D01*
X239778932Y-83621513D01*
X239797719Y-83406784D01*
X242324507Y-83406784D01*
X242343293Y-83621513D01*
X242343295Y-83621523D01*
X242399080Y-83829720D01*
X242399084Y-83829729D01*
X242490179Y-84025084D01*
X242528654Y-84080032D01*
X242999054Y-83609631D01*
X243039722Y-83707809D01*
X243135399Y-83832498D01*
X243260088Y-83928175D01*
X243358264Y-83968841D01*
X242887863Y-84439241D01*
X242942812Y-84477717D01*
X243138167Y-84568812D01*
X243138176Y-84568816D01*
X243346373Y-84624601D01*
X243346383Y-84624603D01*
X243561112Y-84643390D01*
X243561114Y-84643390D01*
X243775842Y-84624603D01*
X243775852Y-84624601D01*
X243984049Y-84568816D01*
X243984058Y-84568812D01*
X244104496Y-84512651D01*
X278721940Y-84512651D01*
X278742134Y-84730588D01*
X278742135Y-84730591D01*
X278802029Y-84941100D01*
X278802034Y-84941111D01*
X278899584Y-85137020D01*
X278899588Y-85137027D01*
X278910269Y-85151169D01*
X279509272Y-84552167D01*
X279522835Y-84637799D01*
X279580359Y-84750696D01*
X279669955Y-84840292D01*
X279782852Y-84897816D01*
X279868482Y-84911378D01*
X279271967Y-85507892D01*
X279379326Y-85574367D01*
X279379328Y-85574368D01*
X279583411Y-85653430D01*
X279583421Y-85653433D01*
X279798567Y-85693651D01*
X280017433Y-85693651D01*
X280232578Y-85653433D01*
X280232588Y-85653430D01*
X280436671Y-85574368D01*
X280436675Y-85574366D01*
X280544030Y-85507893D01*
X280544030Y-85507892D01*
X279947517Y-84911378D01*
X280033148Y-84897816D01*
X280146045Y-84840292D01*
X280235641Y-84750696D01*
X280293165Y-84637799D01*
X280306727Y-84552168D01*
X280905728Y-85151170D01*
X280905730Y-85151169D01*
X280916405Y-85137036D01*
X280916408Y-85137031D01*
X281013967Y-84941106D01*
X281013970Y-84941100D01*
X281073864Y-84730591D01*
X281073865Y-84730588D01*
X281087634Y-84582000D01*
X287611940Y-84582000D01*
X287632134Y-84799937D01*
X287632135Y-84799940D01*
X287692029Y-85010449D01*
X287692034Y-85010460D01*
X287789584Y-85206369D01*
X287789588Y-85206376D01*
X287800269Y-85220518D01*
X288399272Y-84621516D01*
X288412835Y-84707148D01*
X288470359Y-84820045D01*
X288559955Y-84909641D01*
X288672852Y-84967165D01*
X288758482Y-84980727D01*
X288161967Y-85577241D01*
X288269326Y-85643716D01*
X288269328Y-85643717D01*
X288473411Y-85722779D01*
X288473421Y-85722782D01*
X288688567Y-85763000D01*
X288907433Y-85763000D01*
X289122578Y-85722782D01*
X289122588Y-85722779D01*
X289326671Y-85643717D01*
X289326675Y-85643715D01*
X289434030Y-85577242D01*
X289434030Y-85577241D01*
X288837517Y-84980727D01*
X288923148Y-84967165D01*
X289036045Y-84909641D01*
X289125641Y-84820045D01*
X289183165Y-84707148D01*
X289196727Y-84621517D01*
X289795728Y-85220519D01*
X289795730Y-85220518D01*
X289806405Y-85206385D01*
X289806408Y-85206380D01*
X289903967Y-85010455D01*
X289903970Y-85010449D01*
X289963864Y-84799940D01*
X289963865Y-84799937D01*
X289984060Y-84582000D01*
X289984060Y-84581999D01*
X289963865Y-84364062D01*
X289963864Y-84364059D01*
X289903970Y-84153550D01*
X289903967Y-84153544D01*
X289806408Y-83957619D01*
X289806406Y-83957616D01*
X289795730Y-83943480D01*
X289795729Y-83943479D01*
X289196727Y-84542481D01*
X289183165Y-84456852D01*
X289125641Y-84343955D01*
X289036045Y-84254359D01*
X288923148Y-84196835D01*
X288837517Y-84183272D01*
X289434031Y-83586757D01*
X289326673Y-83520283D01*
X289326671Y-83520282D01*
X289122588Y-83441220D01*
X289122578Y-83441217D01*
X288907433Y-83401000D01*
X288688567Y-83401000D01*
X288473421Y-83441217D01*
X288473420Y-83441217D01*
X288269330Y-83520281D01*
X288269324Y-83520284D01*
X288161968Y-83586756D01*
X288161967Y-83586757D01*
X288758483Y-84183272D01*
X288672852Y-84196835D01*
X288559955Y-84254359D01*
X288470359Y-84343955D01*
X288412835Y-84456852D01*
X288399272Y-84542482D01*
X287800269Y-83943479D01*
X287800268Y-83943479D01*
X287789592Y-83957616D01*
X287692032Y-84153544D01*
X287692029Y-84153550D01*
X287632135Y-84364059D01*
X287632134Y-84364062D01*
X287611940Y-84581999D01*
X287611940Y-84582000D01*
X281087634Y-84582000D01*
X281094060Y-84512651D01*
X281094060Y-84512650D01*
X281073865Y-84294713D01*
X281073864Y-84294710D01*
X281013970Y-84084201D01*
X281013967Y-84084195D01*
X280916408Y-83888270D01*
X280916406Y-83888267D01*
X280905730Y-83874131D01*
X280905729Y-83874130D01*
X280306727Y-84473132D01*
X280293165Y-84387503D01*
X280235641Y-84274606D01*
X280146045Y-84185010D01*
X280033148Y-84127486D01*
X279947517Y-84113923D01*
X280544031Y-83517408D01*
X280436673Y-83450934D01*
X280436671Y-83450933D01*
X280232588Y-83371871D01*
X280232578Y-83371868D01*
X280017433Y-83331651D01*
X279798567Y-83331651D01*
X279583421Y-83371868D01*
X279583420Y-83371868D01*
X279379330Y-83450932D01*
X279379324Y-83450935D01*
X279271968Y-83517407D01*
X279271967Y-83517408D01*
X279868483Y-84113923D01*
X279782852Y-84127486D01*
X279669955Y-84185010D01*
X279580359Y-84274606D01*
X279522835Y-84387503D01*
X279509272Y-84473133D01*
X278910269Y-83874130D01*
X278910268Y-83874130D01*
X278899592Y-83888267D01*
X278802032Y-84084195D01*
X278802029Y-84084201D01*
X278742135Y-84294710D01*
X278742134Y-84294713D01*
X278721940Y-84512650D01*
X278721940Y-84512651D01*
X244104496Y-84512651D01*
X244179413Y-84477717D01*
X244234361Y-84439241D01*
X243763961Y-83968841D01*
X243862138Y-83928175D01*
X243986827Y-83832498D01*
X244082504Y-83707810D01*
X244123171Y-83609632D01*
X244593570Y-84080031D01*
X244632046Y-84025084D01*
X244723141Y-83829729D01*
X244723145Y-83829720D01*
X244778930Y-83621523D01*
X244778932Y-83621513D01*
X244783789Y-83566000D01*
X256763246Y-83566000D01*
X256782591Y-83725323D01*
X256782592Y-83725328D01*
X256839504Y-83875391D01*
X256839505Y-83875392D01*
X256917453Y-83988321D01*
X256930676Y-84007477D01*
X257050809Y-84113905D01*
X257192920Y-84188491D01*
X257192922Y-84188491D01*
X257192923Y-84188492D01*
X257348752Y-84226900D01*
X257509248Y-84226900D01*
X257665076Y-84188492D01*
X257665076Y-84188491D01*
X257665080Y-84188491D01*
X257807191Y-84113905D01*
X257927324Y-84007477D01*
X258018496Y-83875391D01*
X258075408Y-83725325D01*
X258079333Y-83693000D01*
X265399246Y-83693000D01*
X265418591Y-83852323D01*
X265418592Y-83852328D01*
X265469631Y-83986905D01*
X265475504Y-84002391D01*
X265479164Y-84007693D01*
X265562197Y-84127989D01*
X265566676Y-84134477D01*
X265686809Y-84240905D01*
X265828920Y-84315491D01*
X265828922Y-84315491D01*
X265828923Y-84315492D01*
X265984752Y-84353900D01*
X266145248Y-84353900D01*
X266301076Y-84315492D01*
X266301076Y-84315491D01*
X266301080Y-84315491D01*
X266443191Y-84240905D01*
X266563324Y-84134477D01*
X266654496Y-84002391D01*
X266711408Y-83852325D01*
X266730754Y-83693000D01*
X266711408Y-83533675D01*
X266711407Y-83533673D01*
X266711407Y-83533671D01*
X266676345Y-83441220D01*
X266675503Y-83439000D01*
X270987246Y-83439000D01*
X271006591Y-83598323D01*
X271006592Y-83598328D01*
X271054756Y-83725325D01*
X271063504Y-83748391D01*
X271109090Y-83814434D01*
X271150295Y-83874131D01*
X271154676Y-83880477D01*
X271274809Y-83986905D01*
X271416920Y-84061491D01*
X271416922Y-84061491D01*
X271416923Y-84061492D01*
X271572752Y-84099900D01*
X271733248Y-84099900D01*
X271889076Y-84061492D01*
X271889076Y-84061491D01*
X271889080Y-84061491D01*
X272031191Y-83986905D01*
X272031192Y-83986903D01*
X272037832Y-83983419D01*
X272039079Y-83985796D01*
X272093394Y-83967874D01*
X272156748Y-83984218D01*
X272157168Y-83983419D01*
X272160570Y-83985204D01*
X272161048Y-83985328D01*
X272162129Y-83986022D01*
X272163805Y-83986901D01*
X272163809Y-83986905D01*
X272305920Y-84061491D01*
X272305922Y-84061491D01*
X272305923Y-84061492D01*
X272461752Y-84099900D01*
X272622248Y-84099900D01*
X272778076Y-84061492D01*
X272778076Y-84061491D01*
X272778080Y-84061491D01*
X272920191Y-83986905D01*
X273040324Y-83880477D01*
X273131496Y-83748391D01*
X273188408Y-83598325D01*
X273207754Y-83439000D01*
X273188408Y-83279675D01*
X273188407Y-83279673D01*
X273188407Y-83279671D01*
X273137369Y-83145095D01*
X273131496Y-83129609D01*
X273097175Y-83079887D01*
X273075293Y-83013534D01*
X273092758Y-82945882D01*
X273097177Y-82939007D01*
X273131496Y-82889288D01*
X273188408Y-82739222D01*
X273207754Y-82579897D01*
X273188408Y-82420572D01*
X273188407Y-82420570D01*
X273188407Y-82420568D01*
X273156277Y-82335850D01*
X273131496Y-82270506D01*
X273040324Y-82138420D01*
X272920191Y-82031992D01*
X272778080Y-81957406D01*
X272778079Y-81957405D01*
X272778076Y-81957404D01*
X272622248Y-81918997D01*
X272461752Y-81918997D01*
X272305923Y-81957404D01*
X272163809Y-82031992D01*
X272043675Y-82138420D01*
X271952505Y-82270504D01*
X271952504Y-82270505D01*
X271895592Y-82420568D01*
X271895591Y-82420573D01*
X271876246Y-82579897D01*
X271883812Y-82642213D01*
X271872351Y-82711137D01*
X271825447Y-82762922D01*
X271757991Y-82781129D01*
X271740714Y-82778838D01*
X271740694Y-82779004D01*
X271733248Y-82778100D01*
X271572752Y-82778100D01*
X271416923Y-82816507D01*
X271274809Y-82891095D01*
X271154675Y-82997523D01*
X271063505Y-83129607D01*
X271063504Y-83129608D01*
X271006592Y-83279671D01*
X271006591Y-83279676D01*
X270987246Y-83439000D01*
X266675503Y-83439000D01*
X266654496Y-83383609D01*
X266563324Y-83251523D01*
X266443191Y-83145095D01*
X266301080Y-83070509D01*
X266301079Y-83070508D01*
X266301076Y-83070507D01*
X266145248Y-83032100D01*
X265984752Y-83032100D01*
X265828923Y-83070507D01*
X265686809Y-83145095D01*
X265566675Y-83251523D01*
X265475505Y-83383607D01*
X265475504Y-83383608D01*
X265418592Y-83533671D01*
X265418591Y-83533676D01*
X265399246Y-83693000D01*
X258079333Y-83693000D01*
X258094754Y-83566000D01*
X258075408Y-83406675D01*
X258075407Y-83406673D01*
X258075407Y-83406671D01*
X258027244Y-83279676D01*
X258018496Y-83256609D01*
X257927324Y-83124523D01*
X257807191Y-83018095D01*
X257665080Y-82943509D01*
X257665079Y-82943508D01*
X257665076Y-82943507D01*
X257509248Y-82905100D01*
X257348752Y-82905100D01*
X257192923Y-82943507D01*
X257050809Y-83018095D01*
X256930675Y-83124523D01*
X256839505Y-83256607D01*
X256839504Y-83256608D01*
X256782592Y-83406671D01*
X256782591Y-83406676D01*
X256763246Y-83566000D01*
X244783789Y-83566000D01*
X244797719Y-83406784D01*
X244797719Y-83406783D01*
X244778932Y-83192054D01*
X244778930Y-83192044D01*
X244723145Y-82983847D01*
X244723141Y-82983838D01*
X244632046Y-82788483D01*
X244593570Y-82733534D01*
X244123170Y-83203934D01*
X244082504Y-83105759D01*
X243986827Y-82981070D01*
X243862138Y-82885393D01*
X243763961Y-82844726D01*
X243931687Y-82677000D01*
X263748246Y-82677000D01*
X263767591Y-82836323D01*
X263767592Y-82836328D01*
X263808240Y-82943507D01*
X263824504Y-82986391D01*
X263846388Y-83018095D01*
X263906896Y-83105758D01*
X263915676Y-83118477D01*
X264035809Y-83224905D01*
X264177920Y-83299491D01*
X264177922Y-83299491D01*
X264177923Y-83299492D01*
X264333752Y-83337900D01*
X264494248Y-83337900D01*
X264650076Y-83299492D01*
X264650076Y-83299491D01*
X264650080Y-83299491D01*
X264792191Y-83224905D01*
X264912324Y-83118477D01*
X265003496Y-82986391D01*
X265060408Y-82836325D01*
X265079754Y-82677000D01*
X265060408Y-82517675D01*
X265060407Y-82517673D01*
X265060407Y-82517671D01*
X265023582Y-82420572D01*
X265003496Y-82367609D01*
X264912324Y-82235523D01*
X264792191Y-82129095D01*
X264650080Y-82054509D01*
X264650079Y-82054508D01*
X264650076Y-82054507D01*
X264494248Y-82016100D01*
X264333752Y-82016100D01*
X264177923Y-82054507D01*
X264035809Y-82129095D01*
X263915675Y-82235523D01*
X263824505Y-82367607D01*
X263824504Y-82367608D01*
X263767592Y-82517671D01*
X263767591Y-82517676D01*
X263748246Y-82677000D01*
X243931687Y-82677000D01*
X244234361Y-82374325D01*
X244179413Y-82335850D01*
X243984058Y-82244755D01*
X243984049Y-82244751D01*
X243775852Y-82188966D01*
X243775842Y-82188964D01*
X243561114Y-82170178D01*
X243561112Y-82170178D01*
X243346383Y-82188964D01*
X243346373Y-82188966D01*
X243138176Y-82244751D01*
X243138167Y-82244754D01*
X242942811Y-82335851D01*
X242942809Y-82335852D01*
X242887864Y-82374325D01*
X242887863Y-82374325D01*
X243358264Y-82844726D01*
X243260088Y-82885393D01*
X243135399Y-82981070D01*
X243039722Y-83105758D01*
X242999055Y-83203935D01*
X242528654Y-82733534D01*
X242528654Y-82733535D01*
X242490181Y-82788480D01*
X242490180Y-82788482D01*
X242399083Y-82983838D01*
X242399080Y-82983847D01*
X242343295Y-83192044D01*
X242343293Y-83192054D01*
X242324507Y-83406783D01*
X242324507Y-83406784D01*
X239797719Y-83406784D01*
X239797719Y-83406783D01*
X239778932Y-83192054D01*
X239778930Y-83192044D01*
X239723145Y-82983847D01*
X239723141Y-82983838D01*
X239632046Y-82788483D01*
X239593570Y-82733534D01*
X239123170Y-83203934D01*
X239082504Y-83105759D01*
X238986827Y-82981070D01*
X238862138Y-82885393D01*
X238763961Y-82844726D01*
X239234361Y-82374325D01*
X239179413Y-82335850D01*
X238984058Y-82244755D01*
X238984049Y-82244751D01*
X238775852Y-82188966D01*
X238775842Y-82188964D01*
X238561114Y-82170178D01*
X238561112Y-82170178D01*
X238346383Y-82188964D01*
X238346373Y-82188966D01*
X238138176Y-82244751D01*
X238138167Y-82244754D01*
X237942811Y-82335851D01*
X237942809Y-82335852D01*
X237887864Y-82374325D01*
X237887863Y-82374325D01*
X238358264Y-82844726D01*
X238260088Y-82885393D01*
X238135399Y-82981070D01*
X238039722Y-83105758D01*
X237999055Y-83203935D01*
X237528654Y-82733534D01*
X237528654Y-82733535D01*
X237490181Y-82788480D01*
X237490180Y-82788482D01*
X237399083Y-82983838D01*
X237399080Y-82983847D01*
X237343295Y-83192044D01*
X237343293Y-83192054D01*
X237324507Y-83406783D01*
X237324507Y-83406784D01*
X233172000Y-83406784D01*
X233172000Y-81546212D01*
X233174383Y-81522021D01*
X233186523Y-81460989D01*
X233205037Y-81416291D01*
X233232693Y-81374900D01*
X233266900Y-81340693D01*
X233308292Y-81313036D01*
X233352989Y-81294523D01*
X233414021Y-81282383D01*
X233438212Y-81280000D01*
X308486000Y-81280000D01*
X308553039Y-81299685D01*
G37*
%TD.AperFunction*%
%TD*%
%TA.AperFunction,Conductor*%
%TO.N,/MIPI-HDMI-2/GND_MIPI*%
G36*
X284237980Y-136908383D02*
G01*
X284299011Y-136920523D01*
X284343709Y-136939037D01*
X284385096Y-136966691D01*
X284419309Y-137000904D01*
X284446962Y-137042291D01*
X284465476Y-137086987D01*
X284477617Y-137148019D01*
X284480000Y-137172212D01*
X284480000Y-157721787D01*
X284477617Y-157745980D01*
X284465476Y-157807012D01*
X284446962Y-157851708D01*
X284419309Y-157893095D01*
X284385095Y-157927309D01*
X284343708Y-157954962D01*
X284299012Y-157973476D01*
X284250989Y-157983029D01*
X284237978Y-157985617D01*
X284213788Y-157988000D01*
X261886212Y-157988000D01*
X261862021Y-157985617D01*
X261845690Y-157982368D01*
X261800987Y-157973476D01*
X261756291Y-157954962D01*
X261714904Y-157927309D01*
X261680691Y-157893096D01*
X261653037Y-157851708D01*
X261634523Y-157807010D01*
X261622383Y-157745978D01*
X261620000Y-157721787D01*
X261620000Y-156488874D01*
X264619000Y-156488874D01*
X264634387Y-156650016D01*
X264634388Y-156650023D01*
X264695237Y-156857258D01*
X264794214Y-157049246D01*
X264927732Y-157219029D01*
X264927733Y-157219030D01*
X265090973Y-157360478D01*
X265278027Y-157468473D01*
X265278029Y-157468474D01*
X265482138Y-157539117D01*
X265482143Y-157539118D01*
X265496000Y-157541110D01*
X265496000Y-156807968D01*
X265583740Y-156858625D01*
X265715992Y-156888810D01*
X265851265Y-156878673D01*
X265977541Y-156829113D01*
X266004000Y-156808012D01*
X266004000Y-157537185D01*
X266121598Y-157508657D01*
X266121600Y-157508656D01*
X266318070Y-157418930D01*
X266494022Y-157293635D01*
X266494024Y-157293634D01*
X266643069Y-157137319D01*
X266759844Y-156955614D01*
X266840123Y-156755087D01*
X266881000Y-156542997D01*
X266881000Y-156488874D01*
X279119000Y-156488874D01*
X279134387Y-156650016D01*
X279134388Y-156650023D01*
X279195237Y-156857258D01*
X279294214Y-157049246D01*
X279427732Y-157219029D01*
X279427733Y-157219030D01*
X279590973Y-157360478D01*
X279778027Y-157468473D01*
X279778029Y-157468474D01*
X279982138Y-157539117D01*
X279982143Y-157539118D01*
X279996000Y-157541110D01*
X279996000Y-156807968D01*
X280083740Y-156858625D01*
X280215992Y-156888810D01*
X280351265Y-156878673D01*
X280477541Y-156829113D01*
X280504000Y-156808012D01*
X280504000Y-157537185D01*
X280621598Y-157508657D01*
X280621600Y-157508656D01*
X280818070Y-157418930D01*
X280994022Y-157293635D01*
X280994024Y-157293634D01*
X281143069Y-157137319D01*
X281259844Y-156955614D01*
X281340123Y-156755087D01*
X281381000Y-156542997D01*
X281381000Y-156289000D01*
X280700000Y-156289000D01*
X280700000Y-155781000D01*
X281381000Y-155781000D01*
X281381000Y-155581125D01*
X281365612Y-155419983D01*
X281365611Y-155419976D01*
X281304762Y-155212741D01*
X281205785Y-155020753D01*
X281072267Y-154850970D01*
X281072266Y-154850969D01*
X280909026Y-154709521D01*
X280721972Y-154601526D01*
X280721970Y-154601525D01*
X280517856Y-154530881D01*
X280504000Y-154528888D01*
X280504000Y-155262031D01*
X280416260Y-155211375D01*
X280284008Y-155181190D01*
X280148735Y-155191327D01*
X280022459Y-155240887D01*
X279996000Y-155261987D01*
X279996000Y-154532813D01*
X279878401Y-154561342D01*
X279681929Y-154651069D01*
X279505977Y-154776364D01*
X279505975Y-154776365D01*
X279356930Y-154932680D01*
X279240155Y-155114385D01*
X279159876Y-155314912D01*
X279119000Y-155527002D01*
X279119000Y-155781000D01*
X279800000Y-155781000D01*
X279800000Y-156289000D01*
X279119000Y-156289000D01*
X279119000Y-156488874D01*
X266881000Y-156488874D01*
X266881000Y-156289000D01*
X266200000Y-156289000D01*
X266200000Y-155781000D01*
X266881000Y-155781000D01*
X266881000Y-155581125D01*
X266865612Y-155419983D01*
X266865611Y-155419976D01*
X266804762Y-155212741D01*
X266705785Y-155020753D01*
X266572267Y-154850970D01*
X266572266Y-154850969D01*
X266409026Y-154709521D01*
X266221972Y-154601526D01*
X266221970Y-154601525D01*
X266017856Y-154530881D01*
X266004000Y-154528888D01*
X266004000Y-155262031D01*
X265916260Y-155211375D01*
X265784008Y-155181190D01*
X265648735Y-155191327D01*
X265522459Y-155240887D01*
X265496000Y-155261987D01*
X265496000Y-154532813D01*
X265378401Y-154561342D01*
X265181929Y-154651069D01*
X265005977Y-154776364D01*
X265005975Y-154776365D01*
X264856930Y-154932680D01*
X264740155Y-155114385D01*
X264659876Y-155314912D01*
X264619000Y-155527002D01*
X264619000Y-155781000D01*
X265300000Y-155781000D01*
X265300000Y-156289000D01*
X264619000Y-156289000D01*
X264619000Y-156488874D01*
X261620000Y-156488874D01*
X261620000Y-152900000D01*
X269534246Y-152900000D01*
X269553591Y-153059323D01*
X269553592Y-153059328D01*
X269610504Y-153209391D01*
X269701676Y-153341477D01*
X269821809Y-153447905D01*
X269963920Y-153522491D01*
X269963922Y-153522491D01*
X269963923Y-153522492D01*
X270119752Y-153560900D01*
X270280248Y-153560900D01*
X270436076Y-153522492D01*
X270436076Y-153522491D01*
X270436080Y-153522491D01*
X270578191Y-153447905D01*
X270698324Y-153341477D01*
X270789496Y-153209391D01*
X270846408Y-153059325D01*
X270865754Y-152900000D01*
X270846408Y-152740675D01*
X270846407Y-152740673D01*
X270846407Y-152740671D01*
X270820546Y-152672482D01*
X270789496Y-152590609D01*
X270698324Y-152458523D01*
X270578191Y-152352095D01*
X270436080Y-152277509D01*
X270436079Y-152277508D01*
X270436076Y-152277507D01*
X270280248Y-152239100D01*
X270119752Y-152239100D01*
X269963923Y-152277507D01*
X269821809Y-152352095D01*
X269701675Y-152458523D01*
X269610505Y-152590607D01*
X269610504Y-152590608D01*
X269553592Y-152740671D01*
X269553591Y-152740676D01*
X269534246Y-152900000D01*
X261620000Y-152900000D01*
X261620000Y-151028874D01*
X264619000Y-151028874D01*
X264634387Y-151190016D01*
X264634388Y-151190023D01*
X264695237Y-151397258D01*
X264794214Y-151589246D01*
X264927732Y-151759029D01*
X264927733Y-151759030D01*
X265090973Y-151900478D01*
X265278027Y-152008473D01*
X265278029Y-152008474D01*
X265482138Y-152079117D01*
X265482143Y-152079118D01*
X265496000Y-152081110D01*
X265496000Y-151347968D01*
X265583740Y-151398625D01*
X265715992Y-151428810D01*
X265851265Y-151418673D01*
X265977541Y-151369113D01*
X266004000Y-151348012D01*
X266004000Y-152077185D01*
X266121598Y-152048657D01*
X266121600Y-152048656D01*
X266318070Y-151958930D01*
X266494022Y-151833635D01*
X266494024Y-151833634D01*
X266643069Y-151677319D01*
X266757818Y-151498766D01*
X267731943Y-151498766D01*
X267751288Y-151658089D01*
X267751289Y-151658094D01*
X267805136Y-151800076D01*
X267808201Y-151808157D01*
X267899373Y-151940243D01*
X268019506Y-152046671D01*
X268161617Y-152121257D01*
X268161619Y-152121257D01*
X268161620Y-152121258D01*
X268317449Y-152159666D01*
X268477945Y-152159666D01*
X268633773Y-152121258D01*
X268633773Y-152121257D01*
X268633777Y-152121257D01*
X268775888Y-152046671D01*
X268896021Y-151940243D01*
X268987193Y-151808157D01*
X269040350Y-151667992D01*
X269044104Y-151658094D01*
X269044105Y-151658089D01*
X269052464Y-151589246D01*
X269063451Y-151498766D01*
X269046431Y-151358600D01*
X270606246Y-151358600D01*
X270625591Y-151517923D01*
X270625592Y-151517928D01*
X270652640Y-151589246D01*
X270682504Y-151667991D01*
X270773676Y-151800077D01*
X270893809Y-151906505D01*
X271035920Y-151981091D01*
X271035922Y-151981091D01*
X271035923Y-151981092D01*
X271191752Y-152019500D01*
X271352248Y-152019500D01*
X271508076Y-151981092D01*
X271508076Y-151981091D01*
X271508080Y-151981091D01*
X271650191Y-151906505D01*
X271770324Y-151800077D01*
X271829600Y-151714200D01*
X275838646Y-151714200D01*
X275857991Y-151873523D01*
X275857992Y-151873528D01*
X275914904Y-152023591D01*
X276006076Y-152155677D01*
X276126209Y-152262105D01*
X276268320Y-152336691D01*
X276268322Y-152336691D01*
X276268323Y-152336692D01*
X276424152Y-152375100D01*
X276584648Y-152375100D01*
X276740476Y-152336692D01*
X276740476Y-152336691D01*
X276740480Y-152336691D01*
X276882591Y-152262105D01*
X277002724Y-152155677D01*
X277093896Y-152023591D01*
X277150808Y-151873525D01*
X277170154Y-151714200D01*
X277150808Y-151554875D01*
X277150807Y-151554873D01*
X277150807Y-151554871D01*
X277102998Y-151428810D01*
X277093896Y-151404809D01*
X277002724Y-151272723D01*
X276882591Y-151166295D01*
X276740480Y-151091709D01*
X276740479Y-151091708D01*
X276740476Y-151091707D01*
X276584648Y-151053300D01*
X276424152Y-151053300D01*
X276268323Y-151091707D01*
X276126209Y-151166295D01*
X276006075Y-151272723D01*
X275914905Y-151404807D01*
X275914904Y-151404808D01*
X275857992Y-151554871D01*
X275857991Y-151554876D01*
X275838646Y-151714200D01*
X271829600Y-151714200D01*
X271861496Y-151667991D01*
X271918408Y-151517925D01*
X271937754Y-151358600D01*
X271918408Y-151199275D01*
X271918407Y-151199273D01*
X271918407Y-151199271D01*
X271863047Y-151053300D01*
X271861496Y-151049209D01*
X271770324Y-150917123D01*
X271650191Y-150810695D01*
X271508080Y-150736109D01*
X271508079Y-150736108D01*
X271508076Y-150736107D01*
X271352248Y-150697700D01*
X271191752Y-150697700D01*
X271035923Y-150736107D01*
X270893809Y-150810695D01*
X270773675Y-150917123D01*
X270682505Y-151049207D01*
X270682504Y-151049208D01*
X270625592Y-151199271D01*
X270625591Y-151199276D01*
X270606246Y-151358600D01*
X269046431Y-151358600D01*
X269044105Y-151339441D01*
X269044104Y-151339439D01*
X269044104Y-151339437D01*
X269018243Y-151271248D01*
X268987193Y-151189375D01*
X268896021Y-151057289D01*
X268775888Y-150950861D01*
X268633777Y-150876275D01*
X268633776Y-150876274D01*
X268633773Y-150876273D01*
X268477945Y-150837866D01*
X268317449Y-150837866D01*
X268161620Y-150876273D01*
X268019506Y-150950861D01*
X267899372Y-151057289D01*
X267808202Y-151189373D01*
X267808201Y-151189374D01*
X267751289Y-151339437D01*
X267751288Y-151339442D01*
X267731943Y-151498766D01*
X266757818Y-151498766D01*
X266759844Y-151495614D01*
X266840123Y-151295087D01*
X266881000Y-151082997D01*
X266881000Y-150329000D01*
X266200000Y-150329000D01*
X266200000Y-149821000D01*
X266881000Y-149821000D01*
X266881000Y-149275800D01*
X277616646Y-149275800D01*
X277635991Y-149435123D01*
X277635992Y-149435128D01*
X277685742Y-149566306D01*
X277692904Y-149585191D01*
X277784076Y-149717277D01*
X277904209Y-149823705D01*
X278046320Y-149898291D01*
X278046322Y-149898291D01*
X278046323Y-149898292D01*
X278202152Y-149936700D01*
X278362648Y-149936700D01*
X278518476Y-149898292D01*
X278518476Y-149898291D01*
X278518480Y-149898291D01*
X278660591Y-149823705D01*
X278780724Y-149717277D01*
X278871896Y-149585191D01*
X278879058Y-149566305D01*
X278921235Y-149510603D01*
X278986833Y-149486545D01*
X279055023Y-149501771D01*
X279104157Y-149551447D01*
X279119000Y-149610276D01*
X279119000Y-149821000D01*
X279800000Y-149821000D01*
X279800000Y-150329000D01*
X279119000Y-150329000D01*
X279119000Y-151028874D01*
X279134387Y-151190016D01*
X279134388Y-151190023D01*
X279195237Y-151397258D01*
X279294214Y-151589246D01*
X279427732Y-151759029D01*
X279427733Y-151759030D01*
X279590973Y-151900478D01*
X279778027Y-152008473D01*
X279778029Y-152008474D01*
X279982138Y-152079117D01*
X279982143Y-152079118D01*
X279996000Y-152081110D01*
X279996000Y-151347968D01*
X280083740Y-151398625D01*
X280215992Y-151428810D01*
X280351265Y-151418673D01*
X280477541Y-151369113D01*
X280504000Y-151348012D01*
X280504000Y-152077185D01*
X280621598Y-152048657D01*
X280621600Y-152048656D01*
X280818070Y-151958930D01*
X280994022Y-151833635D01*
X280994024Y-151833634D01*
X281143069Y-151677319D01*
X281259844Y-151495614D01*
X281340123Y-151295087D01*
X281381000Y-151082997D01*
X281381000Y-150329000D01*
X280700000Y-150329000D01*
X280700000Y-149821000D01*
X281381000Y-149821000D01*
X281381000Y-149121125D01*
X281365612Y-148959983D01*
X281365611Y-148959976D01*
X281304762Y-148752741D01*
X281205785Y-148560753D01*
X281072267Y-148390970D01*
X281072266Y-148390969D01*
X280909026Y-148249521D01*
X280721972Y-148141526D01*
X280721970Y-148141525D01*
X280517856Y-148070881D01*
X280504000Y-148068888D01*
X280504000Y-148802031D01*
X280416260Y-148751375D01*
X280284008Y-148721190D01*
X280148735Y-148731327D01*
X280022459Y-148780887D01*
X279996000Y-148801987D01*
X279996000Y-148072813D01*
X279878401Y-148101342D01*
X279681929Y-148191069D01*
X279505977Y-148316364D01*
X279505975Y-148316365D01*
X279356930Y-148472680D01*
X279240155Y-148654385D01*
X279159877Y-148854911D01*
X279131306Y-149003150D01*
X279099290Y-149065252D01*
X279038781Y-149100187D01*
X278968990Y-149096862D01*
X278912076Y-149056333D01*
X278893605Y-149023652D01*
X278871896Y-148966410D01*
X278871896Y-148966409D01*
X278780724Y-148834323D01*
X278660591Y-148727895D01*
X278518480Y-148653309D01*
X278518479Y-148653308D01*
X278518476Y-148653307D01*
X278362648Y-148614900D01*
X278202152Y-148614900D01*
X278046323Y-148653307D01*
X277904209Y-148727895D01*
X277784075Y-148834323D01*
X277692905Y-148966407D01*
X277692904Y-148966408D01*
X277635992Y-149116471D01*
X277635991Y-149116476D01*
X277616646Y-149275800D01*
X266881000Y-149275800D01*
X266881000Y-149121125D01*
X266865612Y-148959983D01*
X266865611Y-148959976D01*
X266804762Y-148752741D01*
X266705785Y-148560753D01*
X266572267Y-148390970D01*
X266572266Y-148390969D01*
X266409026Y-148249521D01*
X266221972Y-148141526D01*
X266221970Y-148141525D01*
X266017856Y-148070881D01*
X266004000Y-148068888D01*
X266004000Y-148802031D01*
X265916260Y-148751375D01*
X265784008Y-148721190D01*
X265648735Y-148731327D01*
X265522459Y-148780887D01*
X265496000Y-148801987D01*
X265496000Y-148072813D01*
X265378401Y-148101342D01*
X265181929Y-148191069D01*
X265005977Y-148316364D01*
X265005975Y-148316365D01*
X264856930Y-148472680D01*
X264740155Y-148654385D01*
X264659876Y-148854912D01*
X264619000Y-149067002D01*
X264619000Y-149821000D01*
X265300000Y-149821000D01*
X265300000Y-150329000D01*
X264619000Y-150329000D01*
X264619000Y-151028874D01*
X261620000Y-151028874D01*
X261620000Y-140462000D01*
X275330646Y-140462000D01*
X275349991Y-140621323D01*
X275349992Y-140621328D01*
X275395255Y-140740675D01*
X275406904Y-140771391D01*
X275498076Y-140903477D01*
X275618209Y-141009905D01*
X275760320Y-141084491D01*
X275760322Y-141084491D01*
X275760323Y-141084492D01*
X275916152Y-141122900D01*
X276076648Y-141122900D01*
X276232476Y-141084492D01*
X276232476Y-141084491D01*
X276232480Y-141084491D01*
X276374591Y-141009905D01*
X276494724Y-140903477D01*
X276497124Y-140900000D01*
X280334246Y-140900000D01*
X280353591Y-141059323D01*
X280353592Y-141059328D01*
X280410504Y-141209391D01*
X280501676Y-141341477D01*
X280621809Y-141447905D01*
X280763920Y-141522491D01*
X280763922Y-141522491D01*
X280763923Y-141522492D01*
X280919752Y-141560900D01*
X281080248Y-141560900D01*
X281236076Y-141522492D01*
X281236076Y-141522491D01*
X281236080Y-141522491D01*
X281378191Y-141447905D01*
X281498324Y-141341477D01*
X281589496Y-141209391D01*
X281646408Y-141059325D01*
X281665754Y-140900000D01*
X281646408Y-140740675D01*
X281646407Y-140740673D01*
X281646407Y-140740671D01*
X281596445Y-140608933D01*
X281589496Y-140590609D01*
X281498324Y-140458523D01*
X281378191Y-140352095D01*
X281236080Y-140277509D01*
X281236079Y-140277508D01*
X281236076Y-140277507D01*
X281080248Y-140239100D01*
X280919752Y-140239100D01*
X280763923Y-140277507D01*
X280621809Y-140352095D01*
X280501675Y-140458523D01*
X280410505Y-140590607D01*
X280410504Y-140590608D01*
X280353592Y-140740671D01*
X280353591Y-140740676D01*
X280334246Y-140900000D01*
X276497124Y-140900000D01*
X276585896Y-140771391D01*
X276642808Y-140621325D01*
X276662154Y-140462000D01*
X276642808Y-140302675D01*
X276642807Y-140302673D01*
X276642807Y-140302671D01*
X276616946Y-140234482D01*
X276586099Y-140153144D01*
X276934619Y-140153144D01*
X276953964Y-140312467D01*
X276953965Y-140312472D01*
X277010877Y-140462535D01*
X277010878Y-140462536D01*
X277099279Y-140590609D01*
X277102049Y-140594621D01*
X277222182Y-140701049D01*
X277364293Y-140775635D01*
X277364295Y-140775635D01*
X277364296Y-140775636D01*
X277520125Y-140814044D01*
X277680621Y-140814044D01*
X277836449Y-140775636D01*
X277836449Y-140775635D01*
X277836453Y-140775635D01*
X277978564Y-140701049D01*
X278098697Y-140594621D01*
X278189869Y-140462535D01*
X278246781Y-140312469D01*
X278264389Y-140167456D01*
X278834246Y-140167456D01*
X278853591Y-140326779D01*
X278853592Y-140326784D01*
X278910504Y-140476847D01*
X278910505Y-140476848D01*
X278989026Y-140590607D01*
X279001676Y-140608933D01*
X279121809Y-140715361D01*
X279263920Y-140789947D01*
X279263922Y-140789947D01*
X279263923Y-140789948D01*
X279419752Y-140828356D01*
X279580248Y-140828356D01*
X279736076Y-140789948D01*
X279736076Y-140789947D01*
X279736080Y-140789947D01*
X279878191Y-140715361D01*
X279998324Y-140608933D01*
X280089496Y-140476847D01*
X280146408Y-140326781D01*
X280165754Y-140167456D01*
X280146408Y-140008131D01*
X280146407Y-140008129D01*
X280146407Y-140008127D01*
X280110745Y-139914095D01*
X280089496Y-139858065D01*
X279998324Y-139725979D01*
X279878191Y-139619551D01*
X279736080Y-139544965D01*
X279736079Y-139544964D01*
X279736076Y-139544963D01*
X279580248Y-139506556D01*
X279419752Y-139506556D01*
X279263923Y-139544963D01*
X279121809Y-139619551D01*
X279001675Y-139725979D01*
X278910505Y-139858063D01*
X278910504Y-139858064D01*
X278853592Y-140008127D01*
X278853591Y-140008132D01*
X278834246Y-140167456D01*
X278264389Y-140167456D01*
X278266127Y-140153144D01*
X278246781Y-139993819D01*
X278246780Y-139993817D01*
X278246780Y-139993815D01*
X278216546Y-139914095D01*
X278189869Y-139843753D01*
X278098697Y-139711667D01*
X277978564Y-139605239D01*
X277836453Y-139530653D01*
X277836452Y-139530652D01*
X277836449Y-139530651D01*
X277680621Y-139492244D01*
X277520125Y-139492244D01*
X277364296Y-139530651D01*
X277222182Y-139605239D01*
X277102048Y-139711667D01*
X277010878Y-139843751D01*
X277010877Y-139843752D01*
X276953965Y-139993815D01*
X276953964Y-139993820D01*
X276934619Y-140153144D01*
X276586099Y-140153144D01*
X276585896Y-140152609D01*
X276494724Y-140020523D01*
X276374591Y-139914095D01*
X276232480Y-139839509D01*
X276232479Y-139839508D01*
X276232476Y-139839507D01*
X276076648Y-139801100D01*
X275916152Y-139801100D01*
X275760323Y-139839507D01*
X275618209Y-139914095D01*
X275498075Y-140020523D01*
X275406905Y-140152607D01*
X275406904Y-140152608D01*
X275349992Y-140302671D01*
X275349991Y-140302676D01*
X275330646Y-140462000D01*
X261620000Y-140462000D01*
X261620000Y-139400000D01*
X281234246Y-139400000D01*
X281253591Y-139559323D01*
X281253592Y-139559328D01*
X281310504Y-139709391D01*
X281310505Y-139709392D01*
X281400317Y-139839509D01*
X281401676Y-139841477D01*
X281521809Y-139947905D01*
X281663920Y-140022491D01*
X281663922Y-140022491D01*
X281663923Y-140022492D01*
X281819752Y-140060900D01*
X281980248Y-140060900D01*
X282136076Y-140022492D01*
X282136076Y-140022491D01*
X282136080Y-140022491D01*
X282278191Y-139947905D01*
X282398324Y-139841477D01*
X282489496Y-139709391D01*
X282546408Y-139559325D01*
X282565754Y-139400000D01*
X282546408Y-139240675D01*
X282546407Y-139240673D01*
X282546407Y-139240671D01*
X282520546Y-139172482D01*
X282489496Y-139090609D01*
X282398324Y-138958523D01*
X282278191Y-138852095D01*
X282136080Y-138777509D01*
X282136079Y-138777508D01*
X282136076Y-138777507D01*
X281980248Y-138739100D01*
X281819752Y-138739100D01*
X281663923Y-138777507D01*
X281521809Y-138852095D01*
X281401675Y-138958523D01*
X281310505Y-139090607D01*
X281310504Y-139090608D01*
X281253592Y-139240671D01*
X281253591Y-139240676D01*
X281234246Y-139400000D01*
X261620000Y-139400000D01*
X261620000Y-137172212D01*
X261622383Y-137148021D01*
X261634523Y-137086989D01*
X261653037Y-137042291D01*
X261680693Y-137000900D01*
X261714900Y-136966693D01*
X261756292Y-136939036D01*
X261800989Y-136920523D01*
X261862021Y-136908383D01*
X261886212Y-136906000D01*
X284213788Y-136906000D01*
X284237980Y-136908383D01*
G37*
%TD.AperFunction*%
%TD*%
%TA.AperFunction,Conductor*%
%TO.N,/MIPI-HDMI-1/GND_MIPI*%
G36*
X260361980Y-136908383D02*
G01*
X260423011Y-136920523D01*
X260467709Y-136939037D01*
X260509096Y-136966691D01*
X260543309Y-137000904D01*
X260570962Y-137042291D01*
X260589476Y-137086987D01*
X260601617Y-137148019D01*
X260604000Y-137172212D01*
X260604000Y-157721787D01*
X260601617Y-157745980D01*
X260589476Y-157807012D01*
X260570962Y-157851708D01*
X260543309Y-157893095D01*
X260509095Y-157927309D01*
X260467708Y-157954962D01*
X260423012Y-157973476D01*
X260374989Y-157983029D01*
X260361978Y-157985617D01*
X260337788Y-157988000D01*
X237502212Y-157988000D01*
X237478021Y-157985617D01*
X237461690Y-157982368D01*
X237416987Y-157973476D01*
X237372291Y-157954962D01*
X237330904Y-157927309D01*
X237296691Y-157893096D01*
X237269037Y-157851708D01*
X237250523Y-157807010D01*
X237238383Y-157745978D01*
X237236000Y-157721787D01*
X237236000Y-156488874D01*
X240619000Y-156488874D01*
X240634387Y-156650016D01*
X240634388Y-156650023D01*
X240695237Y-156857258D01*
X240794214Y-157049246D01*
X240927732Y-157219029D01*
X240927733Y-157219030D01*
X241090973Y-157360478D01*
X241278027Y-157468473D01*
X241278029Y-157468474D01*
X241482138Y-157539117D01*
X241482143Y-157539118D01*
X241496000Y-157541110D01*
X241496000Y-156807968D01*
X241583740Y-156858625D01*
X241715992Y-156888810D01*
X241851265Y-156878673D01*
X241977541Y-156829113D01*
X242004000Y-156808012D01*
X242004000Y-157537185D01*
X242121598Y-157508657D01*
X242121600Y-157508656D01*
X242318070Y-157418930D01*
X242494022Y-157293635D01*
X242494024Y-157293634D01*
X242643069Y-157137319D01*
X242759844Y-156955614D01*
X242840123Y-156755087D01*
X242881000Y-156542997D01*
X242881000Y-156488874D01*
X255119000Y-156488874D01*
X255134387Y-156650016D01*
X255134388Y-156650023D01*
X255195237Y-156857258D01*
X255294214Y-157049246D01*
X255427732Y-157219029D01*
X255427733Y-157219030D01*
X255590973Y-157360478D01*
X255778027Y-157468473D01*
X255778029Y-157468474D01*
X255982138Y-157539117D01*
X255982143Y-157539118D01*
X255996000Y-157541110D01*
X255996000Y-156807968D01*
X256083740Y-156858625D01*
X256215992Y-156888810D01*
X256351265Y-156878673D01*
X256477541Y-156829113D01*
X256504000Y-156808012D01*
X256504000Y-157537185D01*
X256621598Y-157508657D01*
X256621600Y-157508656D01*
X256818070Y-157418930D01*
X256994022Y-157293635D01*
X256994024Y-157293634D01*
X257143069Y-157137319D01*
X257259844Y-156955614D01*
X257340123Y-156755087D01*
X257381000Y-156542997D01*
X257381000Y-156289000D01*
X256700000Y-156289000D01*
X256700000Y-155781000D01*
X257381000Y-155781000D01*
X257381000Y-155581125D01*
X257365612Y-155419983D01*
X257365611Y-155419976D01*
X257304762Y-155212741D01*
X257205785Y-155020753D01*
X257072267Y-154850970D01*
X257072266Y-154850969D01*
X256909026Y-154709521D01*
X256721972Y-154601526D01*
X256721970Y-154601525D01*
X256517856Y-154530881D01*
X256504000Y-154528888D01*
X256504000Y-155262031D01*
X256416260Y-155211375D01*
X256284008Y-155181190D01*
X256148735Y-155191327D01*
X256022459Y-155240887D01*
X255996000Y-155261987D01*
X255996000Y-154532813D01*
X255878401Y-154561342D01*
X255681929Y-154651069D01*
X255505977Y-154776364D01*
X255505975Y-154776365D01*
X255356930Y-154932680D01*
X255240155Y-155114385D01*
X255159876Y-155314912D01*
X255119000Y-155527002D01*
X255119000Y-155781000D01*
X255800000Y-155781000D01*
X255800000Y-156289000D01*
X255119000Y-156289000D01*
X255119000Y-156488874D01*
X242881000Y-156488874D01*
X242881000Y-156289000D01*
X242200000Y-156289000D01*
X242200000Y-155781000D01*
X242881000Y-155781000D01*
X242881000Y-155581125D01*
X242865612Y-155419983D01*
X242865611Y-155419976D01*
X242804762Y-155212741D01*
X242705785Y-155020753D01*
X242572267Y-154850970D01*
X242572266Y-154850969D01*
X242409026Y-154709521D01*
X242221972Y-154601526D01*
X242221970Y-154601525D01*
X242017856Y-154530881D01*
X242004000Y-154528888D01*
X242004000Y-155262031D01*
X241916260Y-155211375D01*
X241784008Y-155181190D01*
X241648735Y-155191327D01*
X241522459Y-155240887D01*
X241496000Y-155261987D01*
X241496000Y-154532813D01*
X241378401Y-154561342D01*
X241181929Y-154651069D01*
X241005977Y-154776364D01*
X241005975Y-154776365D01*
X240856930Y-154932680D01*
X240740155Y-155114385D01*
X240659876Y-155314912D01*
X240619000Y-155527002D01*
X240619000Y-155781000D01*
X241300000Y-155781000D01*
X241300000Y-156289000D01*
X240619000Y-156289000D01*
X240619000Y-156488874D01*
X237236000Y-156488874D01*
X237236000Y-152700000D01*
X245756792Y-152700000D01*
X245776137Y-152859323D01*
X245776138Y-152859328D01*
X245833050Y-153009391D01*
X245924222Y-153141477D01*
X246044355Y-153247905D01*
X246186466Y-153322491D01*
X246186468Y-153322491D01*
X246186469Y-153322492D01*
X246342298Y-153360900D01*
X246502794Y-153360900D01*
X246658622Y-153322492D01*
X246658622Y-153322491D01*
X246658626Y-153322491D01*
X246800737Y-153247905D01*
X246920870Y-153141477D01*
X247012042Y-153009391D01*
X247068954Y-152859325D01*
X247088300Y-152700000D01*
X247068954Y-152540675D01*
X247068953Y-152540673D01*
X247068953Y-152540671D01*
X247043092Y-152472482D01*
X247012042Y-152390609D01*
X246920870Y-152258523D01*
X246800737Y-152152095D01*
X246658626Y-152077509D01*
X246658625Y-152077508D01*
X246658622Y-152077507D01*
X246502794Y-152039100D01*
X246342298Y-152039100D01*
X246186469Y-152077507D01*
X246044355Y-152152095D01*
X245924221Y-152258523D01*
X245833051Y-152390607D01*
X245833050Y-152390608D01*
X245776138Y-152540671D01*
X245776137Y-152540676D01*
X245756792Y-152700000D01*
X237236000Y-152700000D01*
X237236000Y-151028874D01*
X240619000Y-151028874D01*
X240634387Y-151190016D01*
X240634388Y-151190023D01*
X240695237Y-151397258D01*
X240794214Y-151589246D01*
X240927732Y-151759029D01*
X240927733Y-151759030D01*
X241090973Y-151900478D01*
X241278027Y-152008473D01*
X241278029Y-152008474D01*
X241482138Y-152079117D01*
X241482143Y-152079118D01*
X241496000Y-152081110D01*
X241496000Y-151347968D01*
X241583740Y-151398625D01*
X241715992Y-151428810D01*
X241851265Y-151418673D01*
X241977541Y-151369113D01*
X242004000Y-151348012D01*
X242004000Y-152077185D01*
X242121598Y-152048657D01*
X242121600Y-152048656D01*
X242318070Y-151958930D01*
X242494022Y-151833635D01*
X242494024Y-151833634D01*
X242643069Y-151677319D01*
X242757818Y-151498766D01*
X243728943Y-151498766D01*
X243748288Y-151658089D01*
X243748289Y-151658094D01*
X243802136Y-151800076D01*
X243805201Y-151808157D01*
X243896373Y-151940243D01*
X244016506Y-152046671D01*
X244158617Y-152121257D01*
X244158619Y-152121257D01*
X244158620Y-152121258D01*
X244314449Y-152159666D01*
X244474945Y-152159666D01*
X244630773Y-152121258D01*
X244630773Y-152121257D01*
X244630777Y-152121257D01*
X244772888Y-152046671D01*
X244893021Y-151940243D01*
X244984193Y-151808157D01*
X245037350Y-151667992D01*
X245041104Y-151658094D01*
X245041105Y-151658089D01*
X245049464Y-151589246D01*
X245060451Y-151498766D01*
X245043431Y-151358600D01*
X246603246Y-151358600D01*
X246622591Y-151517923D01*
X246622592Y-151517928D01*
X246649640Y-151589246D01*
X246679504Y-151667991D01*
X246770676Y-151800077D01*
X246890809Y-151906505D01*
X247032920Y-151981091D01*
X247032922Y-151981091D01*
X247032923Y-151981092D01*
X247188752Y-152019500D01*
X247349248Y-152019500D01*
X247505076Y-151981092D01*
X247505076Y-151981091D01*
X247505080Y-151981091D01*
X247647191Y-151906505D01*
X247767324Y-151800077D01*
X247826600Y-151714200D01*
X251835646Y-151714200D01*
X251854991Y-151873523D01*
X251854992Y-151873528D01*
X251911904Y-152023591D01*
X251911905Y-152023592D01*
X252000603Y-152152095D01*
X252003076Y-152155677D01*
X252123209Y-152262105D01*
X252265320Y-152336691D01*
X252265322Y-152336691D01*
X252265323Y-152336692D01*
X252421152Y-152375100D01*
X252581648Y-152375100D01*
X252737476Y-152336692D01*
X252737476Y-152336691D01*
X252737480Y-152336691D01*
X252879591Y-152262105D01*
X252999724Y-152155677D01*
X253090896Y-152023591D01*
X253147808Y-151873525D01*
X253167154Y-151714200D01*
X253147808Y-151554875D01*
X253147807Y-151554873D01*
X253147807Y-151554871D01*
X253099998Y-151428810D01*
X253090896Y-151404809D01*
X252999724Y-151272723D01*
X252879591Y-151166295D01*
X252737480Y-151091709D01*
X252737479Y-151091708D01*
X252737476Y-151091707D01*
X252581648Y-151053300D01*
X252421152Y-151053300D01*
X252265323Y-151091707D01*
X252123209Y-151166295D01*
X252003075Y-151272723D01*
X251911905Y-151404807D01*
X251911904Y-151404808D01*
X251854992Y-151554871D01*
X251854991Y-151554876D01*
X251835646Y-151714200D01*
X247826600Y-151714200D01*
X247858496Y-151667991D01*
X247915408Y-151517925D01*
X247934754Y-151358600D01*
X247915408Y-151199275D01*
X247915407Y-151199273D01*
X247915407Y-151199271D01*
X247860047Y-151053300D01*
X247858496Y-151049209D01*
X247767324Y-150917123D01*
X247647191Y-150810695D01*
X247505080Y-150736109D01*
X247505079Y-150736108D01*
X247505076Y-150736107D01*
X247349248Y-150697700D01*
X247188752Y-150697700D01*
X247032923Y-150736107D01*
X246890809Y-150810695D01*
X246770675Y-150917123D01*
X246679505Y-151049207D01*
X246679504Y-151049208D01*
X246622592Y-151199271D01*
X246622591Y-151199276D01*
X246603246Y-151358600D01*
X245043431Y-151358600D01*
X245041105Y-151339441D01*
X245041104Y-151339439D01*
X245041104Y-151339437D01*
X245015243Y-151271248D01*
X244984193Y-151189375D01*
X244893021Y-151057289D01*
X244772888Y-150950861D01*
X244630777Y-150876275D01*
X244630776Y-150876274D01*
X244630773Y-150876273D01*
X244474945Y-150837866D01*
X244314449Y-150837866D01*
X244158620Y-150876273D01*
X244016506Y-150950861D01*
X243896372Y-151057289D01*
X243805202Y-151189373D01*
X243805201Y-151189374D01*
X243748289Y-151339437D01*
X243748288Y-151339442D01*
X243728943Y-151498766D01*
X242757818Y-151498766D01*
X242759844Y-151495614D01*
X242840123Y-151295087D01*
X242881000Y-151082997D01*
X242881000Y-150329000D01*
X242200000Y-150329000D01*
X242200000Y-149821000D01*
X242881000Y-149821000D01*
X242881000Y-149275800D01*
X253613646Y-149275800D01*
X253632991Y-149435123D01*
X253632992Y-149435128D01*
X253674107Y-149543538D01*
X253689904Y-149585191D01*
X253781076Y-149717277D01*
X253901209Y-149823705D01*
X254043320Y-149898291D01*
X254043322Y-149898291D01*
X254043323Y-149898292D01*
X254199152Y-149936700D01*
X254359648Y-149936700D01*
X254515476Y-149898292D01*
X254515476Y-149898291D01*
X254515480Y-149898291D01*
X254657591Y-149823705D01*
X254777724Y-149717277D01*
X254868896Y-149585191D01*
X254879058Y-149558394D01*
X254921236Y-149502692D01*
X254986833Y-149478635D01*
X255055024Y-149493862D01*
X255104157Y-149543538D01*
X255119000Y-149602366D01*
X255119000Y-149821000D01*
X255800000Y-149821000D01*
X255800000Y-150329000D01*
X255119000Y-150329000D01*
X255119000Y-151028874D01*
X255134387Y-151190016D01*
X255134388Y-151190023D01*
X255195237Y-151397258D01*
X255294214Y-151589246D01*
X255427732Y-151759029D01*
X255427733Y-151759030D01*
X255590973Y-151900478D01*
X255778027Y-152008473D01*
X255778029Y-152008474D01*
X255982138Y-152079117D01*
X255982143Y-152079118D01*
X255996000Y-152081110D01*
X255996000Y-151347968D01*
X256083740Y-151398625D01*
X256215992Y-151428810D01*
X256351265Y-151418673D01*
X256477541Y-151369113D01*
X256504000Y-151348012D01*
X256504000Y-152077185D01*
X256621598Y-152048657D01*
X256621600Y-152048656D01*
X256818070Y-151958930D01*
X256994022Y-151833635D01*
X256994024Y-151833634D01*
X257143069Y-151677319D01*
X257259844Y-151495614D01*
X257340123Y-151295087D01*
X257381000Y-151082997D01*
X257381000Y-150329000D01*
X256700000Y-150329000D01*
X256700000Y-149821000D01*
X257381000Y-149821000D01*
X257381000Y-149121125D01*
X257365612Y-148959983D01*
X257365611Y-148959976D01*
X257304762Y-148752741D01*
X257205785Y-148560753D01*
X257072267Y-148390970D01*
X257072266Y-148390969D01*
X256909026Y-148249521D01*
X256721972Y-148141526D01*
X256721970Y-148141525D01*
X256517856Y-148070881D01*
X256504000Y-148068888D01*
X256504000Y-148802031D01*
X256416260Y-148751375D01*
X256284008Y-148721190D01*
X256148735Y-148731327D01*
X256022459Y-148780887D01*
X255996000Y-148801987D01*
X255996000Y-148072813D01*
X255878401Y-148101342D01*
X255681929Y-148191069D01*
X255505977Y-148316364D01*
X255505975Y-148316365D01*
X255356930Y-148472680D01*
X255240155Y-148654385D01*
X255159877Y-148854911D01*
X255130295Y-149008395D01*
X255098279Y-149070497D01*
X255037770Y-149105432D01*
X254967979Y-149102107D01*
X254911065Y-149061578D01*
X254892594Y-149028897D01*
X254868896Y-148966410D01*
X254868896Y-148966409D01*
X254777724Y-148834323D01*
X254657591Y-148727895D01*
X254515480Y-148653309D01*
X254515479Y-148653308D01*
X254515476Y-148653307D01*
X254359648Y-148614900D01*
X254199152Y-148614900D01*
X254043323Y-148653307D01*
X253901209Y-148727895D01*
X253781075Y-148834323D01*
X253689905Y-148966407D01*
X253689904Y-148966408D01*
X253632992Y-149116471D01*
X253632991Y-149116476D01*
X253613646Y-149275800D01*
X242881000Y-149275800D01*
X242881000Y-149121125D01*
X242865612Y-148959983D01*
X242865611Y-148959976D01*
X242804762Y-148752741D01*
X242705785Y-148560753D01*
X242572267Y-148390970D01*
X242572266Y-148390969D01*
X242409026Y-148249521D01*
X242221972Y-148141526D01*
X242221970Y-148141525D01*
X242017856Y-148070881D01*
X242004000Y-148068888D01*
X242004000Y-148802031D01*
X241916260Y-148751375D01*
X241784008Y-148721190D01*
X241648735Y-148731327D01*
X241522459Y-148780887D01*
X241496000Y-148801987D01*
X241496000Y-148072813D01*
X241378401Y-148101342D01*
X241181929Y-148191069D01*
X241005977Y-148316364D01*
X241005975Y-148316365D01*
X240856930Y-148472680D01*
X240740155Y-148654385D01*
X240659876Y-148854912D01*
X240619000Y-149067002D01*
X240619000Y-149821000D01*
X241300000Y-149821000D01*
X241300000Y-150329000D01*
X240619000Y-150329000D01*
X240619000Y-151028874D01*
X237236000Y-151028874D01*
X237236000Y-140462000D01*
X251327646Y-140462000D01*
X251346991Y-140621323D01*
X251346992Y-140621328D01*
X251394997Y-140747905D01*
X251403904Y-140771391D01*
X251495076Y-140903477D01*
X251615209Y-141009905D01*
X251757320Y-141084491D01*
X251757322Y-141084491D01*
X251757323Y-141084492D01*
X251913152Y-141122900D01*
X252073648Y-141122900D01*
X252229476Y-141084492D01*
X252229476Y-141084491D01*
X252229480Y-141084491D01*
X252234201Y-141082013D01*
X256416259Y-141082013D01*
X256435604Y-141241336D01*
X256435605Y-141241341D01*
X256492517Y-141391404D01*
X256583689Y-141523490D01*
X256703822Y-141629918D01*
X256845933Y-141704504D01*
X256845935Y-141704504D01*
X256845936Y-141704505D01*
X257001765Y-141742913D01*
X257162261Y-141742913D01*
X257318089Y-141704505D01*
X257318089Y-141704504D01*
X257318093Y-141704504D01*
X257460204Y-141629918D01*
X257580337Y-141523490D01*
X257671509Y-141391404D01*
X257728421Y-141241338D01*
X257747767Y-141082013D01*
X257728421Y-140922688D01*
X257728420Y-140922686D01*
X257728420Y-140922684D01*
X257690422Y-140822492D01*
X257671509Y-140772622D01*
X257580337Y-140640536D01*
X257460204Y-140534108D01*
X257318093Y-140459522D01*
X257318092Y-140459521D01*
X257318089Y-140459520D01*
X257162261Y-140421113D01*
X257001765Y-140421113D01*
X256845936Y-140459520D01*
X256703822Y-140534108D01*
X256583688Y-140640536D01*
X256492518Y-140772620D01*
X256492517Y-140772621D01*
X256435605Y-140922684D01*
X256435604Y-140922689D01*
X256416259Y-141082013D01*
X252234201Y-141082013D01*
X252371591Y-141009905D01*
X252491724Y-140903477D01*
X252582896Y-140771391D01*
X252639808Y-140621325D01*
X252659154Y-140462000D01*
X252639808Y-140302675D01*
X252639807Y-140302673D01*
X252639807Y-140302671D01*
X252600869Y-140200000D01*
X253034246Y-140200000D01*
X253053591Y-140359323D01*
X253053592Y-140359328D01*
X253091591Y-140459522D01*
X253110504Y-140509391D01*
X253201676Y-140641477D01*
X253321809Y-140747905D01*
X253463920Y-140822491D01*
X253463922Y-140822491D01*
X253463923Y-140822492D01*
X253619752Y-140860900D01*
X253780248Y-140860900D01*
X253936076Y-140822492D01*
X253936076Y-140822491D01*
X253936080Y-140822491D01*
X254078191Y-140747905D01*
X254198324Y-140641477D01*
X254289496Y-140509391D01*
X254346408Y-140359325D01*
X254365754Y-140200000D01*
X254834246Y-140200000D01*
X254853591Y-140359323D01*
X254853592Y-140359328D01*
X254891591Y-140459522D01*
X254910504Y-140509391D01*
X255001676Y-140641477D01*
X255121809Y-140747905D01*
X255263920Y-140822491D01*
X255263922Y-140822491D01*
X255263923Y-140822492D01*
X255419752Y-140860900D01*
X255580248Y-140860900D01*
X255736076Y-140822492D01*
X255736076Y-140822491D01*
X255736080Y-140822491D01*
X255878191Y-140747905D01*
X255998324Y-140641477D01*
X256089496Y-140509391D01*
X256146408Y-140359325D01*
X256165754Y-140200000D01*
X256146408Y-140040675D01*
X256146407Y-140040673D01*
X256146407Y-140040671D01*
X256098403Y-139914095D01*
X256089496Y-139890609D01*
X255998324Y-139758523D01*
X255878191Y-139652095D01*
X255736080Y-139577509D01*
X255736079Y-139577508D01*
X255736076Y-139577507D01*
X255580248Y-139539100D01*
X255419752Y-139539100D01*
X255263923Y-139577507D01*
X255121809Y-139652095D01*
X255001675Y-139758523D01*
X254910505Y-139890607D01*
X254910504Y-139890608D01*
X254853592Y-140040671D01*
X254853591Y-140040676D01*
X254834246Y-140200000D01*
X254365754Y-140200000D01*
X254346408Y-140040675D01*
X254346407Y-140040673D01*
X254346407Y-140040671D01*
X254298403Y-139914095D01*
X254289496Y-139890609D01*
X254198324Y-139758523D01*
X254078191Y-139652095D01*
X253936080Y-139577509D01*
X253936079Y-139577508D01*
X253936076Y-139577507D01*
X253780248Y-139539100D01*
X253619752Y-139539100D01*
X253463923Y-139577507D01*
X253321809Y-139652095D01*
X253201675Y-139758523D01*
X253110505Y-139890607D01*
X253110504Y-139890608D01*
X253053592Y-140040671D01*
X253053591Y-140040676D01*
X253034246Y-140200000D01*
X252600869Y-140200000D01*
X252582896Y-140152609D01*
X252491724Y-140020523D01*
X252371591Y-139914095D01*
X252229480Y-139839509D01*
X252229479Y-139839508D01*
X252229476Y-139839507D01*
X252073648Y-139801100D01*
X251913152Y-139801100D01*
X251757323Y-139839507D01*
X251615209Y-139914095D01*
X251495075Y-140020523D01*
X251403905Y-140152607D01*
X251403904Y-140152608D01*
X251346992Y-140302671D01*
X251346991Y-140302676D01*
X251327646Y-140462000D01*
X237236000Y-140462000D01*
X237236000Y-138900000D01*
X257334246Y-138900000D01*
X257353591Y-139059323D01*
X257353592Y-139059328D01*
X257410504Y-139209391D01*
X257501676Y-139341477D01*
X257621809Y-139447905D01*
X257763920Y-139522491D01*
X257763922Y-139522491D01*
X257763923Y-139522492D01*
X257919752Y-139560900D01*
X258080248Y-139560900D01*
X258236076Y-139522492D01*
X258236076Y-139522491D01*
X258236080Y-139522491D01*
X258378191Y-139447905D01*
X258498324Y-139341477D01*
X258589496Y-139209391D01*
X258646408Y-139059325D01*
X258665754Y-138900000D01*
X258646408Y-138740675D01*
X258646407Y-138740673D01*
X258646407Y-138740671D01*
X258620546Y-138672482D01*
X258589496Y-138590609D01*
X258498324Y-138458523D01*
X258378191Y-138352095D01*
X258236080Y-138277509D01*
X258236079Y-138277508D01*
X258236076Y-138277507D01*
X258080248Y-138239100D01*
X257919752Y-138239100D01*
X257763923Y-138277507D01*
X257621809Y-138352095D01*
X257501675Y-138458523D01*
X257410505Y-138590607D01*
X257410504Y-138590608D01*
X257353592Y-138740671D01*
X257353591Y-138740676D01*
X257334246Y-138900000D01*
X237236000Y-138900000D01*
X237236000Y-137172212D01*
X237238383Y-137148021D01*
X237250523Y-137086989D01*
X237269037Y-137042291D01*
X237296693Y-137000900D01*
X237330900Y-136966693D01*
X237372292Y-136939036D01*
X237416989Y-136920523D01*
X237478021Y-136908383D01*
X237502212Y-136906000D01*
X260337788Y-136906000D01*
X260361980Y-136908383D01*
G37*
%TD.AperFunction*%
%TD*%
M02*
