%TF.GenerationSoftware,KiCad,Pcbnew,7.0.9-7.0.9~ubuntu22.04.1*%
%TF.CreationDate,2023-12-27T17:21:17-08:00*%
%TF.ProjectId,NX-J401-Adapter,4e582d4a-3430-4312-9d41-646170746572,1*%
%TF.SameCoordinates,Original*%
%TF.FileFunction,Copper,L1,Top*%
%TF.FilePolarity,Positive*%
%FSLAX46Y46*%
G04 Gerber Fmt 4.6, Leading zero omitted, Abs format (unit mm)*
G04 Created by KiCad (PCBNEW 7.0.9-7.0.9~ubuntu22.04.1) date 2023-12-27 17:21:17*
%MOMM*%
%LPD*%
G01*
G04 APERTURE LIST*
G04 Aperture macros list*
%AMRoundRect*
0 Rectangle with rounded corners*
0 $1 Rounding radius*
0 $2 $3 $4 $5 $6 $7 $8 $9 X,Y pos of 4 corners*
0 Add a 4 corners polygon primitive as box body*
4,1,4,$2,$3,$4,$5,$6,$7,$8,$9,$2,$3,0*
0 Add four circle primitives for the rounded corners*
1,1,$1+$1,$2,$3*
1,1,$1+$1,$4,$5*
1,1,$1+$1,$6,$7*
1,1,$1+$1,$8,$9*
0 Add four rect primitives between the rounded corners*
20,1,$1+$1,$2,$3,$4,$5,0*
20,1,$1+$1,$4,$5,$6,$7,0*
20,1,$1+$1,$6,$7,$8,$9,0*
20,1,$1+$1,$8,$9,$2,$3,0*%
%AMFreePoly0*
4,1,18,2.145000,-2.250000,-2.145000,-2.250000,-2.805000,-2.250000,-2.805000,-1.590000,-2.145000,-1.590000,-2.145000,-0.970000,-2.805000,-0.970000,-2.805000,-0.310000,-2.145000,-0.310000,-2.145000,0.310000,-2.805000,0.310000,-2.805000,0.970000,-2.145000,0.970000,-2.145000,1.590000,-2.805000,1.590000,-2.805000,2.250000,2.145000,2.250000,2.145000,-2.250000,2.145000,-2.250000,$1*%
G04 Aperture macros list end*
%ADD10C,0.300000*%
%TA.AperFunction,NonConductor*%
%ADD11C,0.300000*%
%TD*%
%TA.AperFunction,SMDPad,CuDef*%
%ADD12RoundRect,0.250000X-1.100000X0.325000X-1.100000X-0.325000X1.100000X-0.325000X1.100000X0.325000X0*%
%TD*%
%TA.AperFunction,ComponentPad*%
%ADD13R,1.778000X1.778000*%
%TD*%
%TA.AperFunction,ComponentPad*%
%ADD14C,1.778000*%
%TD*%
%TA.AperFunction,ComponentPad*%
%ADD15R,2.000000X2.000000*%
%TD*%
%TA.AperFunction,ComponentPad*%
%ADD16C,2.000000*%
%TD*%
%TA.AperFunction,ComponentPad*%
%ADD17C,2.200000*%
%TD*%
%TA.AperFunction,SMDPad,CuDef*%
%ADD18RoundRect,0.200000X-0.200000X-0.275000X0.200000X-0.275000X0.200000X0.275000X-0.200000X0.275000X0*%
%TD*%
%TA.AperFunction,SMDPad,CuDef*%
%ADD19RoundRect,0.200000X0.200000X0.275000X-0.200000X0.275000X-0.200000X-0.275000X0.200000X-0.275000X0*%
%TD*%
%TA.AperFunction,SMDPad,CuDef*%
%ADD20RoundRect,0.250000X-0.900000X1.000000X-0.900000X-1.000000X0.900000X-1.000000X0.900000X1.000000X0*%
%TD*%
%TA.AperFunction,SMDPad,CuDef*%
%ADD21RoundRect,0.150000X0.825000X0.150000X-0.825000X0.150000X-0.825000X-0.150000X0.825000X-0.150000X0*%
%TD*%
%TA.AperFunction,SMDPad,CuDef*%
%ADD22RoundRect,0.150000X-0.625000X0.150000X-0.625000X-0.150000X0.625000X-0.150000X0.625000X0.150000X0*%
%TD*%
%TA.AperFunction,SMDPad,CuDef*%
%ADD23RoundRect,0.250000X-0.650000X0.350000X-0.650000X-0.350000X0.650000X-0.350000X0.650000X0.350000X0*%
%TD*%
%TA.AperFunction,SMDPad,CuDef*%
%ADD24RoundRect,0.200000X0.275000X-0.200000X0.275000X0.200000X-0.275000X0.200000X-0.275000X-0.200000X0*%
%TD*%
%TA.AperFunction,ComponentPad*%
%ADD25R,1.600000X1.600000*%
%TD*%
%TA.AperFunction,ComponentPad*%
%ADD26C,1.600000*%
%TD*%
%TA.AperFunction,SMDPad,CuDef*%
%ADD27RoundRect,0.225000X0.225000X0.250000X-0.225000X0.250000X-0.225000X-0.250000X0.225000X-0.250000X0*%
%TD*%
%TA.AperFunction,SMDPad,CuDef*%
%ADD28RoundRect,0.250000X-0.475000X0.250000X-0.475000X-0.250000X0.475000X-0.250000X0.475000X0.250000X0*%
%TD*%
%TA.AperFunction,SMDPad,CuDef*%
%ADD29RoundRect,0.150000X-0.150000X-0.625000X0.150000X-0.625000X0.150000X0.625000X-0.150000X0.625000X0*%
%TD*%
%TA.AperFunction,SMDPad,CuDef*%
%ADD30RoundRect,0.250000X-0.350000X-0.650000X0.350000X-0.650000X0.350000X0.650000X-0.350000X0.650000X0*%
%TD*%
%TA.AperFunction,SMDPad,CuDef*%
%ADD31RoundRect,0.100000X-0.712500X-0.100000X0.712500X-0.100000X0.712500X0.100000X-0.712500X0.100000X0*%
%TD*%
%TA.AperFunction,SMDPad,CuDef*%
%ADD32R,0.508000X1.092200*%
%TD*%
%TA.AperFunction,SMDPad,CuDef*%
%ADD33R,1.193800X1.701800*%
%TD*%
%TA.AperFunction,SMDPad,CuDef*%
%ADD34RoundRect,0.150000X-0.587500X-0.150000X0.587500X-0.150000X0.587500X0.150000X-0.587500X0.150000X0*%
%TD*%
%TA.AperFunction,SMDPad,CuDef*%
%ADD35RoundRect,0.250000X-0.300000X0.300000X-0.300000X-0.300000X0.300000X-0.300000X0.300000X0.300000X0*%
%TD*%
%TA.AperFunction,SMDPad,CuDef*%
%ADD36R,1.500000X2.000000*%
%TD*%
%TA.AperFunction,SMDPad,CuDef*%
%ADD37R,3.800000X2.000000*%
%TD*%
%TA.AperFunction,SMDPad,CuDef*%
%ADD38RoundRect,0.225000X-0.250000X0.225000X-0.250000X-0.225000X0.250000X-0.225000X0.250000X0.225000X0*%
%TD*%
%TA.AperFunction,SMDPad,CuDef*%
%ADD39RoundRect,0.150000X0.725000X0.150000X-0.725000X0.150000X-0.725000X-0.150000X0.725000X-0.150000X0*%
%TD*%
%TA.AperFunction,SMDPad,CuDef*%
%ADD40R,0.660000X0.750000*%
%TD*%
%TA.AperFunction,SMDPad,CuDef*%
%ADD41FreePoly0,90.000000*%
%TD*%
%TA.AperFunction,SMDPad,CuDef*%
%ADD42R,2.895600X12.446000*%
%TD*%
%TA.AperFunction,SMDPad,CuDef*%
%ADD43R,1.090000X1.500000*%
%TD*%
%TA.AperFunction,SMDPad,CuDef*%
%ADD44R,0.300000X2.600000*%
%TD*%
%TA.AperFunction,ComponentPad*%
%ADD45O,1.500000X3.300000*%
%TD*%
%TA.AperFunction,ComponentPad*%
%ADD46O,1.500000X2.300000*%
%TD*%
%TA.AperFunction,SMDPad,CuDef*%
%ADD47RoundRect,0.250000X-2.050000X-0.300000X2.050000X-0.300000X2.050000X0.300000X-2.050000X0.300000X0*%
%TD*%
%TA.AperFunction,SMDPad,CuDef*%
%ADD48RoundRect,0.250000X-2.025000X-2.375000X2.025000X-2.375000X2.025000X2.375000X-2.025000X2.375000X0*%
%TD*%
%TA.AperFunction,SMDPad,CuDef*%
%ADD49RoundRect,0.250002X-4.449998X-5.149998X4.449998X-5.149998X4.449998X5.149998X-4.449998X5.149998X0*%
%TD*%
%TA.AperFunction,SMDPad,CuDef*%
%ADD50R,0.600000X1.850000*%
%TD*%
%TA.AperFunction,SMDPad,CuDef*%
%ADD51R,0.600000X1.650000*%
%TD*%
%TA.AperFunction,SMDPad,CuDef*%
%ADD52RoundRect,0.150000X-0.825000X-0.150000X0.825000X-0.150000X0.825000X0.150000X-0.825000X0.150000X0*%
%TD*%
%TA.AperFunction,ComponentPad*%
%ADD53C,1.701800*%
%TD*%
%TA.AperFunction,ComponentPad*%
%ADD54R,1.905000X1.600200*%
%TD*%
%TA.AperFunction,ComponentPad*%
%ADD55O,1.905000X1.600200*%
%TD*%
%TA.AperFunction,ViaPad*%
%ADD56C,0.812800*%
%TD*%
%TA.AperFunction,Conductor*%
%ADD57C,0.381000*%
%TD*%
%TA.AperFunction,Conductor*%
%ADD58C,0.762000*%
%TD*%
%TA.AperFunction,Conductor*%
%ADD59C,0.508000*%
%TD*%
%TA.AperFunction,Conductor*%
%ADD60C,0.254000*%
%TD*%
%TA.AperFunction,Conductor*%
%ADD61C,1.270000*%
%TD*%
%TA.AperFunction,Conductor*%
%ADD62C,0.283210*%
%TD*%
%TA.AperFunction,Conductor*%
%ADD63C,0.635000*%
%TD*%
G04 APERTURE END LIST*
D10*
D11*
G36*
X309608951Y-86873714D02*
G01*
X309608951Y-87232385D01*
X309412946Y-87232385D01*
X309412685Y-87208424D01*
X309411899Y-87185087D01*
X309410589Y-87162371D01*
X309408756Y-87140278D01*
X309406399Y-87118808D01*
X309403518Y-87097961D01*
X309400114Y-87077735D01*
X309396185Y-87058133D01*
X309391733Y-87039153D01*
X309386757Y-87020795D01*
X309381257Y-87003060D01*
X309375234Y-86985947D01*
X309368687Y-86969458D01*
X309361615Y-86953590D01*
X309354020Y-86938345D01*
X309345902Y-86923723D01*
X309337259Y-86909723D01*
X309328093Y-86896346D01*
X309318403Y-86883591D01*
X309308189Y-86871459D01*
X309297452Y-86859949D01*
X309286190Y-86849062D01*
X309274405Y-86838797D01*
X309262096Y-86829155D01*
X309249263Y-86820135D01*
X309235907Y-86811738D01*
X309222026Y-86803964D01*
X309207622Y-86796812D01*
X309192694Y-86790282D01*
X309177243Y-86784376D01*
X309161267Y-86779091D01*
X309144768Y-86774429D01*
X309144768Y-86578424D01*
X310641000Y-86578424D01*
X310641000Y-86873714D01*
X309608951Y-86873714D01*
G37*
D10*
D11*
G36*
X359350399Y-93527157D02*
G01*
X359350399Y-94312741D01*
X358975195Y-94312741D01*
X358975195Y-92489267D01*
X360255839Y-92489267D01*
X360255839Y-92801937D01*
X359350399Y-92801937D01*
X359350399Y-93214487D01*
X360148142Y-93214487D01*
X360148142Y-93527157D01*
X359350399Y-93527157D01*
G37*
G36*
X360847306Y-93947525D02*
G01*
X360847306Y-94312741D01*
X360472102Y-94312741D01*
X360472102Y-93947525D01*
X360847306Y-93947525D01*
G37*
G36*
X362307301Y-93107224D02*
G01*
X362302660Y-93087053D01*
X362297532Y-93067521D01*
X362291916Y-93048630D01*
X362285812Y-93030380D01*
X362279220Y-93012770D01*
X362272141Y-92995800D01*
X362264574Y-92979471D01*
X362256519Y-92963781D01*
X362238947Y-92934324D01*
X362219424Y-92907429D01*
X362197950Y-92883095D01*
X362174525Y-92861322D01*
X362149149Y-92842111D01*
X362121823Y-92825462D01*
X362092546Y-92811374D01*
X362061318Y-92799847D01*
X362028139Y-92790882D01*
X362010818Y-92787360D01*
X361993009Y-92784478D01*
X361974713Y-92782237D01*
X361955929Y-92780636D01*
X361936657Y-92779675D01*
X361916898Y-92779355D01*
X361889432Y-92780020D01*
X361862730Y-92782015D01*
X361836792Y-92785340D01*
X361811616Y-92789995D01*
X361787204Y-92795979D01*
X361763555Y-92803294D01*
X361740670Y-92811938D01*
X361718548Y-92821913D01*
X361697189Y-92833217D01*
X361676594Y-92845852D01*
X361656762Y-92859816D01*
X361637693Y-92875110D01*
X361619388Y-92891734D01*
X361601846Y-92909689D01*
X361585068Y-92928973D01*
X361569053Y-92949586D01*
X361553908Y-92971330D01*
X361539740Y-92994112D01*
X361526549Y-93017932D01*
X361514335Y-93042790D01*
X361503099Y-93068687D01*
X361492839Y-93095621D01*
X361483557Y-93123594D01*
X361475252Y-93152605D01*
X361467923Y-93182654D01*
X361461572Y-93213741D01*
X361456198Y-93245866D01*
X361451801Y-93279030D01*
X361448382Y-93313232D01*
X361447038Y-93330722D01*
X361445939Y-93348471D01*
X361445084Y-93366481D01*
X361444473Y-93384749D01*
X361444107Y-93403278D01*
X361443985Y-93422065D01*
X361444103Y-93440557D01*
X361444458Y-93458795D01*
X361445050Y-93476778D01*
X361445878Y-93494506D01*
X361446943Y-93511980D01*
X361449782Y-93546165D01*
X361453569Y-93579332D01*
X361458301Y-93611481D01*
X361463981Y-93642612D01*
X361470607Y-93672726D01*
X361478179Y-93701821D01*
X361486698Y-93729899D01*
X361496164Y-93756959D01*
X361506576Y-93783001D01*
X361517935Y-93808026D01*
X361530240Y-93832033D01*
X361543492Y-93855021D01*
X361557690Y-93876992D01*
X361565144Y-93887596D01*
X361580718Y-93907895D01*
X361597042Y-93926884D01*
X361614116Y-93944563D01*
X361631939Y-93960933D01*
X361650513Y-93975993D01*
X361669836Y-93989743D01*
X361689909Y-94002184D01*
X361710731Y-94013316D01*
X361732304Y-94023137D01*
X361754626Y-94031650D01*
X361777698Y-94038852D01*
X361801520Y-94044745D01*
X361826091Y-94049329D01*
X361851412Y-94052603D01*
X361877483Y-94054567D01*
X361904304Y-94055222D01*
X361925907Y-94054851D01*
X361946964Y-94053736D01*
X361967474Y-94051879D01*
X361987439Y-94049278D01*
X362006857Y-94045935D01*
X362025729Y-94041848D01*
X362044054Y-94037019D01*
X362061834Y-94031446D01*
X362079067Y-94025131D01*
X362095754Y-94018072D01*
X362111894Y-94010271D01*
X362127489Y-94001726D01*
X362142537Y-93992439D01*
X362157039Y-93982408D01*
X362170995Y-93971635D01*
X362184404Y-93960118D01*
X362197200Y-93947918D01*
X362209314Y-93935094D01*
X362220745Y-93921645D01*
X362231495Y-93907572D01*
X362241563Y-93892875D01*
X362250949Y-93877554D01*
X362259653Y-93861608D01*
X362267675Y-93845038D01*
X362275015Y-93827844D01*
X362281673Y-93810026D01*
X362287649Y-93791583D01*
X362292943Y-93772516D01*
X362297556Y-93752825D01*
X362301486Y-93732510D01*
X362304735Y-93711570D01*
X362307301Y-93690006D01*
X362672517Y-93690006D01*
X362671216Y-93709422D01*
X362669540Y-93728586D01*
X362667488Y-93747498D01*
X362665060Y-93766158D01*
X362662256Y-93784567D01*
X362659077Y-93802723D01*
X362655522Y-93820628D01*
X362651591Y-93838280D01*
X362647284Y-93855681D01*
X362642602Y-93872830D01*
X362637544Y-93889726D01*
X362632110Y-93906371D01*
X362626301Y-93922764D01*
X362613554Y-93954795D01*
X362599305Y-93985817D01*
X362583553Y-94015833D01*
X362566297Y-94044840D01*
X362547539Y-94072840D01*
X362527278Y-94099832D01*
X362505514Y-94125817D01*
X362482247Y-94150794D01*
X362457477Y-94174763D01*
X362444528Y-94186370D01*
X362431291Y-94197671D01*
X362417799Y-94208614D01*
X362390049Y-94229423D01*
X362361277Y-94248797D01*
X362346508Y-94257946D01*
X362331484Y-94266736D01*
X362316205Y-94275167D01*
X362300670Y-94283239D01*
X362284880Y-94290953D01*
X362268835Y-94298308D01*
X362252534Y-94305304D01*
X362235978Y-94311942D01*
X362219167Y-94318220D01*
X362202101Y-94324140D01*
X362184779Y-94329701D01*
X362167202Y-94334903D01*
X362149369Y-94339747D01*
X362131282Y-94344231D01*
X362112939Y-94348357D01*
X362094341Y-94352124D01*
X362075487Y-94355533D01*
X362056378Y-94358582D01*
X362037014Y-94361273D01*
X362017394Y-94363605D01*
X361997520Y-94365579D01*
X361977390Y-94367193D01*
X361957004Y-94368449D01*
X361936363Y-94369346D01*
X361915468Y-94369884D01*
X361894316Y-94370063D01*
X361870721Y-94369813D01*
X361847433Y-94369062D01*
X361824452Y-94367811D01*
X361801777Y-94366060D01*
X361779410Y-94363808D01*
X361757350Y-94361056D01*
X361735597Y-94357803D01*
X361714151Y-94354050D01*
X361693012Y-94349796D01*
X361672180Y-94345042D01*
X361651655Y-94339788D01*
X361631437Y-94334033D01*
X361611527Y-94327778D01*
X361591923Y-94321022D01*
X361572626Y-94313766D01*
X361553636Y-94306009D01*
X361534954Y-94297752D01*
X361516578Y-94288995D01*
X361498509Y-94279737D01*
X361480748Y-94269979D01*
X361463293Y-94259720D01*
X361446146Y-94248961D01*
X361429305Y-94237702D01*
X361412772Y-94225942D01*
X361396546Y-94213682D01*
X361380626Y-94200921D01*
X361365014Y-94187660D01*
X361349709Y-94173898D01*
X361334711Y-94159636D01*
X361320019Y-94144874D01*
X361305635Y-94129611D01*
X361291558Y-94113848D01*
X361277852Y-94097654D01*
X361264581Y-94081101D01*
X361251745Y-94064189D01*
X361239345Y-94046917D01*
X361227379Y-94029285D01*
X361215849Y-94011294D01*
X361204753Y-93992943D01*
X361194093Y-93974232D01*
X361183868Y-93955162D01*
X361174078Y-93935732D01*
X361164723Y-93915942D01*
X361155803Y-93895793D01*
X361147319Y-93875284D01*
X361139269Y-93854416D01*
X361131654Y-93833188D01*
X361124475Y-93811600D01*
X361117731Y-93789653D01*
X361111422Y-93767346D01*
X361105548Y-93744679D01*
X361100109Y-93721653D01*
X361095105Y-93698267D01*
X361090536Y-93674522D01*
X361086403Y-93650417D01*
X361082704Y-93625952D01*
X361079441Y-93601128D01*
X361076613Y-93575944D01*
X361074220Y-93550401D01*
X361072262Y-93524497D01*
X361070739Y-93498235D01*
X361069651Y-93471612D01*
X361068998Y-93444630D01*
X361068781Y-93417289D01*
X361069000Y-93389785D01*
X361069660Y-93362644D01*
X361070758Y-93335865D01*
X361072296Y-93309449D01*
X361074273Y-93283394D01*
X361076689Y-93257702D01*
X361079545Y-93232372D01*
X361082840Y-93207403D01*
X361086575Y-93182798D01*
X361090748Y-93158554D01*
X361095362Y-93134672D01*
X361100414Y-93111153D01*
X361105906Y-93087996D01*
X361111837Y-93065201D01*
X361118208Y-93042768D01*
X361125018Y-93020697D01*
X361132267Y-92998989D01*
X361139956Y-92977642D01*
X361148084Y-92956658D01*
X361156651Y-92936036D01*
X361165658Y-92915776D01*
X361175104Y-92895879D01*
X361184990Y-92876343D01*
X361195314Y-92857170D01*
X361206079Y-92838359D01*
X361217282Y-92819910D01*
X361228925Y-92801823D01*
X361241007Y-92784098D01*
X361253529Y-92766736D01*
X361266490Y-92749735D01*
X361279890Y-92733097D01*
X361293729Y-92716821D01*
X361307972Y-92700978D01*
X361322527Y-92685637D01*
X361337393Y-92670800D01*
X361352572Y-92656465D01*
X361368063Y-92642634D01*
X361383866Y-92629305D01*
X361399982Y-92616479D01*
X361416409Y-92604157D01*
X361433148Y-92592337D01*
X361450200Y-92581020D01*
X361467564Y-92570207D01*
X361485240Y-92559896D01*
X361503228Y-92550088D01*
X361521528Y-92540783D01*
X361540140Y-92531981D01*
X361559065Y-92523682D01*
X361578301Y-92515886D01*
X361597850Y-92508593D01*
X361617711Y-92501803D01*
X361637883Y-92495516D01*
X361658369Y-92489732D01*
X361679166Y-92484451D01*
X361700275Y-92479673D01*
X361721696Y-92475398D01*
X361743430Y-92471625D01*
X361765476Y-92468356D01*
X361787833Y-92465590D01*
X361810503Y-92463326D01*
X361833485Y-92461566D01*
X361856780Y-92460309D01*
X361880386Y-92459554D01*
X361904304Y-92459303D01*
X361924357Y-92459471D01*
X361944182Y-92459978D01*
X361963780Y-92460822D01*
X361983150Y-92462003D01*
X362002294Y-92463522D01*
X362021209Y-92465379D01*
X362039898Y-92467573D01*
X362058359Y-92470105D01*
X362076593Y-92472974D01*
X362094600Y-92476181D01*
X362112379Y-92479726D01*
X362129931Y-92483608D01*
X362147256Y-92487828D01*
X362164354Y-92492385D01*
X362181224Y-92497280D01*
X362197867Y-92502512D01*
X362230470Y-92513989D01*
X362262165Y-92526817D01*
X362292950Y-92540995D01*
X362322826Y-92556523D01*
X362351793Y-92573402D01*
X362379850Y-92591631D01*
X362406999Y-92611210D01*
X362433238Y-92632140D01*
X362458366Y-92654199D01*
X362482072Y-92677276D01*
X362504357Y-92701371D01*
X362525220Y-92726483D01*
X362544662Y-92752614D01*
X362562682Y-92779762D01*
X362579281Y-92807928D01*
X362594458Y-92837112D01*
X362608214Y-92867314D01*
X362620548Y-92898533D01*
X362631460Y-92930771D01*
X362640951Y-92964026D01*
X362645164Y-92981035D01*
X362649021Y-92998299D01*
X362652523Y-93015817D01*
X362655669Y-93033589D01*
X362658460Y-93051616D01*
X362660895Y-93069898D01*
X362662975Y-93088434D01*
X362664700Y-93107224D01*
X362307301Y-93107224D01*
G37*
G36*
X364133815Y-94312741D02*
G01*
X363783798Y-94312741D01*
X363783798Y-94152497D01*
X363765218Y-94178843D01*
X363745739Y-94203489D01*
X363725361Y-94226436D01*
X363704083Y-94247682D01*
X363681907Y-94267229D01*
X363658832Y-94285077D01*
X363634857Y-94301224D01*
X363609984Y-94315672D01*
X363584211Y-94328420D01*
X363557540Y-94339468D01*
X363529969Y-94348817D01*
X363501499Y-94356465D01*
X363472131Y-94362415D01*
X363441863Y-94366664D01*
X363410696Y-94369213D01*
X363378630Y-94370063D01*
X363352135Y-94369585D01*
X363326389Y-94368150D01*
X363301394Y-94365758D01*
X363277148Y-94362409D01*
X363253652Y-94358104D01*
X363230906Y-94352842D01*
X363208909Y-94346623D01*
X363187662Y-94339448D01*
X363167165Y-94331315D01*
X363147418Y-94322226D01*
X363128421Y-94312181D01*
X363110173Y-94301178D01*
X363092676Y-94289219D01*
X363075928Y-94276303D01*
X363059929Y-94262430D01*
X363044681Y-94247601D01*
X363030272Y-94231901D01*
X363016793Y-94215418D01*
X363004244Y-94198151D01*
X362992624Y-94180100D01*
X362981933Y-94161266D01*
X362972173Y-94141647D01*
X362963341Y-94121245D01*
X362955440Y-94100060D01*
X362948468Y-94078090D01*
X362942425Y-94055337D01*
X362937313Y-94031801D01*
X362933129Y-94007480D01*
X362929876Y-93982376D01*
X362927552Y-93956488D01*
X362926158Y-93929817D01*
X362925693Y-93902361D01*
X362925693Y-92962180D01*
X363276144Y-92962180D01*
X363276144Y-93829839D01*
X363277022Y-93859235D01*
X363279658Y-93886735D01*
X363284052Y-93912337D01*
X363290203Y-93936044D01*
X363298111Y-93957854D01*
X363307777Y-93977767D01*
X363319200Y-93995784D01*
X363332381Y-94011904D01*
X363347319Y-94026128D01*
X363364014Y-94038455D01*
X363382467Y-94048886D01*
X363402677Y-94057421D01*
X363424645Y-94064058D01*
X363448370Y-94068800D01*
X363473852Y-94071644D01*
X363501092Y-94072593D01*
X363524588Y-94071955D01*
X363547199Y-94070043D01*
X363568924Y-94066856D01*
X363589763Y-94062394D01*
X363609718Y-94056658D01*
X363628786Y-94049646D01*
X363646969Y-94041360D01*
X363664267Y-94031799D01*
X363680679Y-94020963D01*
X363696206Y-94008853D01*
X363706065Y-94000071D01*
X363719957Y-93986053D01*
X363732482Y-93971195D01*
X363743641Y-93955498D01*
X363753433Y-93938962D01*
X363761860Y-93921585D01*
X363768919Y-93903369D01*
X363774613Y-93884313D01*
X363778940Y-93864417D01*
X363781900Y-93843682D01*
X363783494Y-93822107D01*
X363783798Y-93807257D01*
X363783798Y-92962180D01*
X364133815Y-92962180D01*
X364133815Y-94312741D01*
G37*
D12*
%TO.P,C9,1*%
%TO.N,GND*%
X234442000Y-138479000D03*
%TO.P,C9,2*%
%TO.N,/Power Supply/V_{BAT}*%
X234442000Y-141429000D03*
%TD*%
D13*
%TO.P,J10,1,Pin_1*%
%TO.N,/CAN_FD_DC2_L*%
X302895000Y-147574000D03*
D14*
%TO.P,J10,2,Pin_2*%
%TO.N,/CAN_FD_DC2_H*%
X300355000Y-147574000D03*
%TD*%
D15*
%TO.P,C8,1*%
%TO.N,/Power Supply/V_IN*%
X241554000Y-103713677D03*
D16*
%TO.P,C8,2*%
%TO.N,GND*%
X241554000Y-98713677D03*
%TD*%
D17*
%TO.P,J13,1,Pin_1*%
%TO.N,/Power Supply/V_{BAT}*%
X225774000Y-148004000D03*
X225774000Y-156204000D03*
%TO.P,J13,2,Pin_2*%
%TO.N,GND*%
X230854000Y-148004000D03*
X230854000Y-156204000D03*
%TD*%
D18*
%TO.P,R5,1*%
%TO.N,GND*%
X310579000Y-92964000D03*
%TO.P,R5,2*%
%TO.N,Net-(U2-~{ALERT}{slash}TACH)*%
X312229000Y-92964000D03*
%TD*%
D19*
%TO.P,R2,1*%
%TO.N,Net-(J3-Pin_2)*%
X321881000Y-87630000D03*
%TO.P,R2,2*%
%TO.N,+3V3*%
X320231000Y-87630000D03*
%TD*%
D20*
%TO.P,D5,1,A1*%
%TO.N,GND*%
X223266000Y-138566000D03*
%TO.P,D5,2,A2*%
%TO.N,/Power Supply/V_{BAT}*%
X223266000Y-142866000D03*
%TD*%
D21*
%TO.P,Q2,1,S*%
%TO.N,/Power Supply/V_IN*%
X229551000Y-103505000D03*
%TO.P,Q2,2,S*%
X229551000Y-102235000D03*
%TO.P,Q2,3,S*%
X229551000Y-100965000D03*
%TO.P,Q2,4,G*%
%TO.N,Net-(D1-A)*%
X229551000Y-99695000D03*
%TO.P,Q2,5,D*%
%TO.N,/Power Supply/V_{BAT}*%
X224601000Y-99695000D03*
%TO.P,Q2,6,D*%
X224601000Y-100965000D03*
%TO.P,Q2,7,D*%
X224601000Y-102235000D03*
%TO.P,Q2,8,D*%
X224601000Y-103505000D03*
%TD*%
D22*
%TO.P,J3,1,Pin_1*%
%TO.N,GND*%
X325319000Y-86638000D03*
%TO.P,J3,2,Pin_2*%
%TO.N,Net-(J3-Pin_2)*%
X325319000Y-87638000D03*
%TO.P,J3,3,Pin_3*%
%TO.N,/Fan Control/I2C_SDA*%
X325319000Y-88638000D03*
%TO.P,J3,4,Pin_4*%
%TO.N,/Fan Control/I2C_SCL*%
X325319000Y-89638000D03*
D23*
%TO.P,J3,MP*%
%TO.N,N/C*%
X327844000Y-85338000D03*
X327844000Y-90938000D03*
%TD*%
D24*
%TO.P,R9,1*%
%TO.N,+3V3*%
X299974000Y-97980000D03*
%TO.P,R9,2*%
%TO.N,Net-(U4-OUT)*%
X299974000Y-96330000D03*
%TD*%
D25*
%TO.P,C3,1*%
%TO.N,/Power Supply/+18V*%
X279908000Y-88012651D03*
D26*
%TO.P,C3,2*%
%TO.N,GND*%
X279908000Y-84512651D03*
%TD*%
D27*
%TO.P,C1,1*%
%TO.N,Net-(U1-COMP)*%
X256299000Y-84836000D03*
%TO.P,C1,2*%
%TO.N,GND*%
X254749000Y-84836000D03*
%TD*%
D28*
%TO.P,C7,1*%
%TO.N,/Power Supply/V_IN*%
X310896000Y-96205000D03*
%TO.P,C7,2*%
%TO.N,GND*%
X310896000Y-98105000D03*
%TD*%
D19*
%TO.P,R7,1*%
%TO.N,/FAN_TACH*%
X315658000Y-96012000D03*
%TO.P,R7,2*%
%TO.N,Net-(U2-~{ALERT}{slash}TACH)*%
X314008000Y-96012000D03*
%TD*%
D29*
%TO.P,J1,1,Pin_1*%
%TO.N,/Fan Control/TMP_DN*%
X303182400Y-84586200D03*
%TO.P,J1,2,Pin_2*%
%TO.N,/Fan Control/TMP_DP*%
X304182400Y-84586200D03*
D30*
%TO.P,J1,MP*%
%TO.N,N/C*%
X301882400Y-82061200D03*
X305482400Y-82061200D03*
%TD*%
D13*
%TO.P,J9,1,Pin_1*%
%TO.N,/CAN_FD2_L*%
X292735000Y-147574000D03*
D14*
%TO.P,J9,2,Pin_2*%
%TO.N,/CAN_FD2_H*%
X290195000Y-147574000D03*
%TD*%
D19*
%TO.P,R1,1*%
%TO.N,GND*%
X256349000Y-87884000D03*
%TO.P,R1,2*%
%TO.N,Net-(C2-Pad2)*%
X254699000Y-87884000D03*
%TD*%
D31*
%TO.P,U2,1,VDD*%
%TO.N,+3V3*%
X307640500Y-89449000D03*
%TO.P,U2,2,DP*%
%TO.N,Net-(U2-DP)*%
X307640500Y-90099000D03*
%TO.P,U2,3,DN*%
%TO.N,Net-(U2-DN)*%
X307640500Y-90749000D03*
%TO.P,U2,4,FAN*%
%TO.N,/FAN_PWM*%
X307640500Y-91399000D03*
%TO.P,U2,5,GND*%
%TO.N,GND*%
X311865500Y-91399000D03*
%TO.P,U2,6,~{ALERT}/TACH*%
%TO.N,Net-(U2-~{ALERT}{slash}TACH)*%
X311865500Y-90749000D03*
%TO.P,U2,7,SMDATA*%
%TO.N,/Fan Control/I2C_SDA*%
X311865500Y-90099000D03*
%TO.P,U2,8,SMCLK*%
%TO.N,/Fan Control/I2C_SCL*%
X311865500Y-89449000D03*
%TD*%
D27*
%TO.P,C2,1*%
%TO.N,Net-(U1-COMP)*%
X256299000Y-86360000D03*
%TO.P,C2,2*%
%TO.N,Net-(C2-Pad2)*%
X254749000Y-86360000D03*
%TD*%
D32*
%TO.P,J8,1,Pin_1*%
%TO.N,/CAN_FD_DC1_H*%
X324484799Y-143889300D03*
%TO.P,J8,2,Pin_2*%
%TO.N,/CAN_FD_DC1_L*%
X323684801Y-143889300D03*
%TO.P,J8,3,Pin_3*%
%TO.N,unconnected-(J8-Pin_3-Pad3)*%
X322884800Y-143889300D03*
%TO.P,J8,4,Pin_4*%
%TO.N,/CAN_FD1_H*%
X322084799Y-143889300D03*
%TO.P,J8,5,Pin_5*%
%TO.N,/CAN_FD1_L*%
X321284801Y-143889300D03*
D33*
%TO.P,J8,6*%
%TO.N,N/C*%
X325784799Y-142489300D03*
%TO.P,J8,7*%
X319984801Y-142489300D03*
%TD*%
D34*
%TO.P,D3,1,A*%
%TO.N,GND*%
X318340500Y-95951000D03*
%TO.P,D3,2*%
%TO.N,N/C*%
X318340500Y-97851000D03*
%TO.P,D3,3,K*%
%TO.N,/FAN_PWM*%
X320215500Y-96901000D03*
%TD*%
D35*
%TO.P,D1,1,K*%
%TO.N,/Power Supply/V_IN*%
X227838000Y-94231000D03*
%TO.P,D1,2,A*%
%TO.N,Net-(D1-A)*%
X227838000Y-97031000D03*
%TD*%
D36*
%TO.P,U4,1,IN*%
%TO.N,/Power Supply/V_IN*%
X308370000Y-94767000D03*
%TO.P,U4,2,GND*%
%TO.N,GND*%
X306070000Y-94767000D03*
D37*
X306070000Y-101067000D03*
D36*
%TO.P,U4,3,OUT*%
%TO.N,Net-(U4-OUT)*%
X303770000Y-94767000D03*
%TD*%
D38*
%TO.P,C6,1*%
%TO.N,Net-(U4-OUT)*%
X301498000Y-96380000D03*
%TO.P,C6,2*%
%TO.N,GND*%
X301498000Y-97930000D03*
%TD*%
D39*
%TO.P,U5,1,GND*%
%TO.N,Net-(U5-GND)*%
X319567000Y-105156000D03*
%TO.P,U5,2,IN*%
%TO.N,Net-(U5-IN)*%
X319567000Y-103886000D03*
%TO.P,U5,3,OUT*%
%TO.N,/FAN_PWR*%
X319567000Y-102616000D03*
%TO.P,U5,4,NC*%
%TO.N,unconnected-(U5-NC-Pad4)*%
X319567000Y-101346000D03*
%TO.P,U5,5,Vbb*%
%TO.N,/Power Supply/V_{BAT}*%
X314417000Y-101346000D03*
%TO.P,U5,6,Vbb*%
X314417000Y-102616000D03*
%TO.P,U5,7,Vbb*%
X314417000Y-103886000D03*
%TO.P,U5,8,Vbb*%
X314417000Y-105156000D03*
%TD*%
D40*
%TO.P,Q1,1,S*%
%TO.N,Net-(Q1-S-Pad1)*%
X274208000Y-84372000D03*
%TO.P,Q1,2,S*%
X272928000Y-84372000D03*
%TO.P,Q1,3,S*%
X271648000Y-84372000D03*
%TO.P,Q1,4,G*%
%TO.N,Net-(Q1-G)*%
X270368000Y-84372000D03*
D41*
%TO.P,Q1,5,D*%
%TO.N,/Power Supply/SW*%
X272288000Y-87442000D03*
%TD*%
D25*
%TO.P,C4,1*%
%TO.N,/Power Supply/+18V*%
X288798000Y-88082000D03*
D26*
%TO.P,C4,2*%
%TO.N,GND*%
X288798000Y-84582000D03*
%TD*%
D42*
%TO.P,L1,1,1*%
%TO.N,/Power Supply/V_IN*%
X251142500Y-98806000D03*
%TO.P,L1,2,2*%
%TO.N,/Power Supply/SW*%
X266433300Y-98806000D03*
%TD*%
D43*
%TO.P,D6,1,Red-K*%
%TO.N,Net-(D6A-Red-K)*%
X238748000Y-154361800D03*
%TO.P,D6,2,RedA*%
%TO.N,GND*%
X238748000Y-157361800D03*
%TO.P,D6,3,Green-A*%
%TO.N,Net-(D6A-Red-K)*%
X237248000Y-154361800D03*
%TO.P,D6,4,Green-K*%
%TO.N,GND*%
X237248000Y-157361800D03*
%TD*%
D24*
%TO.P,R6,1*%
%TO.N,Net-(D1-A)*%
X229870000Y-96583000D03*
%TO.P,R6,2*%
%TO.N,/Power Supply/V_IN*%
X229870000Y-94933000D03*
%TD*%
D13*
%TO.P,J11,1,Pin_1*%
%TO.N,/CAN_FD1_L*%
X313055000Y-147574000D03*
D14*
%TO.P,J11,2,Pin_2*%
%TO.N,/CAN_FD1_H*%
X310515000Y-147574000D03*
%TD*%
D44*
%TO.P,J14,1,D2+*%
%TO.N,/MIPI-HDMI-1/CAM_MCLK*%
X253500000Y-149315000D03*
%TO.P,J14,2,D2S*%
%TO.N,/MIPI-HDMI-1/GND_MIPI*%
X253000000Y-149315000D03*
%TO.P,J14,3,D2-*%
%TO.N,/MIPI-HDMI-1/PWR_DN_LS*%
X252500000Y-149315000D03*
%TO.P,J14,4,D1+*%
%TO.N,/MIPI-HDMI-1/CAM_CK_P*%
X252000000Y-149315000D03*
%TO.P,J14,5,D1S*%
%TO.N,/MIPI-HDMI-1/GND_MIPI*%
X251500000Y-149315000D03*
%TO.P,J14,6,D1-*%
%TO.N,/MIPI-HDMI-1/CAM_CK_N*%
X251000000Y-149315000D03*
%TO.P,J14,7,D0+*%
%TO.N,/MIPI-HDMI-1/CAM_D1_P*%
X250500000Y-149315000D03*
%TO.P,J14,8,D0S*%
%TO.N,/MIPI-HDMI-1/GND_MIPI*%
X250000000Y-149315000D03*
%TO.P,J14,9,D0-*%
%TO.N,/MIPI-HDMI-1/CAM_D1_N*%
X249500000Y-149315000D03*
%TO.P,J14,10,CK+*%
%TO.N,/MIPI-HDMI-1/CAM_D0_P*%
X249000000Y-149315000D03*
%TO.P,J14,11,CKS*%
%TO.N,/MIPI-HDMI-1/GND_MIPI*%
X248500000Y-149315000D03*
%TO.P,J14,12,CK-*%
%TO.N,/MIPI-HDMI-1/CAM_D0_N*%
X248000000Y-149315000D03*
%TO.P,J14,13,CEC*%
%TO.N,unconnected-(J14-CEC-Pad13)*%
X247500000Y-149315000D03*
%TO.P,J14,14,UTILITY*%
%TO.N,unconnected-(J14-UTILITY-Pad14)*%
X247000000Y-149315000D03*
%TO.P,J14,15,SCL*%
%TO.N,/MIPI-HDMI-1/CAM_SCL*%
X246500000Y-149315000D03*
%TO.P,J14,16,SDA*%
%TO.N,/MIPI-HDMI-1/CAM_SDA*%
X246000000Y-149315000D03*
%TO.P,J14,17,GND*%
%TO.N,/MIPI-HDMI-1/GND_MIPI*%
X245500000Y-149315000D03*
%TO.P,J14,18,+5V*%
%TO.N,/MIPI-HDMI-1/CAM_3V3*%
X245000000Y-149315000D03*
%TO.P,J14,19,HPD*%
%TO.N,unconnected-(J14-HPD-Pad19)*%
X244500000Y-149315000D03*
D45*
%TO.P,J14,SH,SH*%
%TO.N,/MIPI-HDMI-1/GND_MIPI*%
X256250000Y-150075000D03*
X241750000Y-150075000D03*
D46*
X256250000Y-156035000D03*
X241750000Y-156035000D03*
%TD*%
D47*
%TO.P,D2,1,A*%
%TO.N,/Power Supply/SW*%
X272258000Y-94234000D03*
D48*
%TO.P,D2,2,K*%
%TO.N,/Power Supply/+18V*%
X278983000Y-93999000D03*
X278983000Y-99549000D03*
D49*
X281408000Y-96774000D03*
D48*
X283833000Y-93999000D03*
X283833000Y-99549000D03*
D47*
%TO.P,D2,3,A*%
%TO.N,/Power Supply/SW*%
X272258000Y-99314000D03*
%TD*%
D50*
%TO.P,J5,1,Pin_1*%
%TO.N,/MIPI-HDMI-1/GND_MIPI*%
X242000000Y-142430000D03*
D51*
%TO.P,J5,1_1*%
%TO.N,N/C*%
X242000000Y-138680000D03*
D50*
%TO.P,J5,2,Pin_2*%
%TO.N,/MIPI-HDMI-1/CAM_D0_N*%
X243000000Y-142430000D03*
D51*
%TO.P,J5,2_1*%
%TO.N,N/C*%
X243000000Y-138680000D03*
D50*
%TO.P,J5,3,Pin_3*%
%TO.N,/MIPI-HDMI-1/CAM_D0_P*%
X244000000Y-142430000D03*
D51*
%TO.P,J5,3_1*%
%TO.N,N/C*%
X244000000Y-138680000D03*
D50*
%TO.P,J5,4,Pin_4*%
%TO.N,/MIPI-HDMI-1/GND_MIPI*%
X245000000Y-142430000D03*
D51*
%TO.P,J5,4_1*%
%TO.N,N/C*%
X245000000Y-138680000D03*
D50*
%TO.P,J5,5,Pin_5*%
%TO.N,/MIPI-HDMI-1/CAM_D1_N*%
X246000000Y-142430000D03*
D51*
%TO.P,J5,5_1*%
%TO.N,N/C*%
X246000000Y-138680000D03*
D50*
%TO.P,J5,6,Pin_6*%
%TO.N,/MIPI-HDMI-1/CAM_D1_P*%
X247000000Y-142430000D03*
D51*
%TO.P,J5,6_1*%
%TO.N,N/C*%
X247000000Y-138680000D03*
D50*
%TO.P,J5,7,Pin_7*%
%TO.N,/MIPI-HDMI-1/GND_MIPI*%
X248000000Y-142430000D03*
D51*
%TO.P,J5,7_1*%
%TO.N,N/C*%
X248000000Y-138680000D03*
D50*
%TO.P,J5,8,Pin_8*%
%TO.N,/MIPI-HDMI-1/CAM_CK_N*%
X249000000Y-142430000D03*
D51*
%TO.P,J5,8_1*%
%TO.N,N/C*%
X249000000Y-138680000D03*
D50*
%TO.P,J5,9,Pin_9*%
%TO.N,/MIPI-HDMI-1/CAM_CK_P*%
X250000000Y-142430000D03*
D51*
%TO.P,J5,9_1*%
%TO.N,N/C*%
X250000000Y-138680000D03*
D50*
%TO.P,J5,10,Pin_10*%
%TO.N,/MIPI-HDMI-1/GND_MIPI*%
X251000000Y-142430000D03*
D51*
%TO.P,J5,10_1*%
%TO.N,N/C*%
X251000000Y-138680000D03*
D50*
%TO.P,J5,11,Pin_11*%
%TO.N,/MIPI-HDMI-1/PWR_DN_LS*%
X252000000Y-142430000D03*
D51*
%TO.P,J5,11_1*%
%TO.N,N/C*%
X252000000Y-138680000D03*
D50*
%TO.P,J5,12,Pin_12*%
%TO.N,/MIPI-HDMI-1/CAM_MCLK*%
X253000000Y-142430000D03*
D51*
%TO.P,J5,12_1*%
%TO.N,N/C*%
X253000000Y-138680000D03*
D50*
%TO.P,J5,13,Pin_13*%
%TO.N,/MIPI-HDMI-1/CAM_SCL*%
X254000000Y-142430000D03*
D51*
%TO.P,J5,13_1*%
%TO.N,N/C*%
X254000000Y-138680000D03*
D50*
%TO.P,J5,14,Pin_14*%
%TO.N,/MIPI-HDMI-1/CAM_SDA*%
X255000000Y-142430000D03*
D51*
%TO.P,J5,14_1*%
%TO.N,N/C*%
X255000000Y-138680000D03*
D50*
%TO.P,J5,15,Pin_15*%
%TO.N,/MIPI-HDMI-1/CAM_3V3*%
X256000000Y-142430000D03*
D51*
%TO.P,J5,15_1*%
%TO.N,N/C*%
X256000000Y-138680000D03*
%TD*%
D52*
%TO.P,U1,1,I_{SEN}*%
%TO.N,Net-(U1-I_{SEN})*%
X259399000Y-83693000D03*
%TO.P,U1,2,COMP*%
%TO.N,Net-(U1-COMP)*%
X259399000Y-84963000D03*
%TO.P,U1,3,FB*%
%TO.N,Net-(U1-FB)*%
X259399000Y-86233000D03*
%TO.P,U1,4,AGND*%
%TO.N,GND*%
X259399000Y-87503000D03*
%TO.P,U1,5,PGND*%
X264349000Y-87503000D03*
%TO.P,U1,6,DR*%
%TO.N,Net-(Q1-G)*%
X264349000Y-86233000D03*
%TO.P,U1,7,FA/SD*%
%TO.N,Net-(U1-FA{slash}SD)*%
X264349000Y-84963000D03*
%TO.P,U1,8,V_{IN}*%
%TO.N,/Power Supply/V_IN*%
X264349000Y-83693000D03*
%TD*%
D24*
%TO.P,R11,1*%
%TO.N,Net-(D6A-Red-K)*%
X238785400Y-149338800D03*
%TO.P,R11,2*%
%TO.N,/Power Supply/V_{BAT}*%
X238785400Y-147688800D03*
%TD*%
D32*
%TO.P,J7,1,Pin_1*%
%TO.N,/CAN_FD_DC2_H*%
X298246599Y-143889300D03*
%TO.P,J7,2,Pin_2*%
%TO.N,/CAN_FD_DC2_L*%
X297446601Y-143889300D03*
%TO.P,J7,3,Pin_3*%
%TO.N,unconnected-(J7-Pin_3-Pad3)*%
X296646600Y-143889300D03*
%TO.P,J7,4,Pin_4*%
%TO.N,/CAN_FD2_H*%
X295846599Y-143889300D03*
%TO.P,J7,5,Pin_5*%
%TO.N,/CAN_FD2_L*%
X295046601Y-143889300D03*
D33*
%TO.P,J7,6*%
%TO.N,N/C*%
X299546599Y-142489300D03*
%TO.P,J7,7*%
X293746601Y-142489300D03*
%TD*%
D50*
%TO.P,J6,1,Pin_1*%
%TO.N,/MIPI-HDMI-2/GND_MIPI*%
X266000000Y-142429440D03*
D51*
%TO.P,J6,1_1*%
%TO.N,N/C*%
X266000000Y-138679440D03*
D50*
%TO.P,J6,2,Pin_2*%
%TO.N,/MIPI-HDMI-2/CAM_D0_N*%
X267000000Y-142429440D03*
D51*
%TO.P,J6,2_1*%
%TO.N,N/C*%
X267000000Y-138679440D03*
D50*
%TO.P,J6,3,Pin_3*%
%TO.N,/MIPI-HDMI-2/CAM_D0_P*%
X268000000Y-142429440D03*
D51*
%TO.P,J6,3_1*%
%TO.N,N/C*%
X268000000Y-138679440D03*
D50*
%TO.P,J6,4,Pin_4*%
%TO.N,/MIPI-HDMI-2/GND_MIPI*%
X269000000Y-142429440D03*
D51*
%TO.P,J6,4_1*%
%TO.N,N/C*%
X269000000Y-138679440D03*
D50*
%TO.P,J6,5,Pin_5*%
%TO.N,/MIPI-HDMI-2/CAM_D1_N*%
X270000000Y-142429440D03*
D51*
%TO.P,J6,5_1*%
%TO.N,N/C*%
X270000000Y-138679440D03*
D50*
%TO.P,J6,6,Pin_6*%
%TO.N,/MIPI-HDMI-2/CAM_D1_P*%
X271000000Y-142429440D03*
D51*
%TO.P,J6,6_1*%
%TO.N,N/C*%
X271000000Y-138679440D03*
D50*
%TO.P,J6,7,Pin_7*%
%TO.N,/MIPI-HDMI-2/GND_MIPI*%
X272000000Y-142429440D03*
D51*
%TO.P,J6,7_1*%
%TO.N,N/C*%
X272000000Y-138679440D03*
D50*
%TO.P,J6,8,Pin_8*%
%TO.N,/MIPI-HDMI-2/CAM_CK_N*%
X273000000Y-142429440D03*
D51*
%TO.P,J6,8_1*%
%TO.N,N/C*%
X273000000Y-138679440D03*
D50*
%TO.P,J6,9,Pin_9*%
%TO.N,/MIPI-HDMI-2/CAM_CK_P*%
X274000000Y-142429440D03*
D51*
%TO.P,J6,9_1*%
%TO.N,N/C*%
X274000000Y-138679440D03*
D50*
%TO.P,J6,10,Pin_10*%
%TO.N,/MIPI-HDMI-2/GND_MIPI*%
X275000000Y-142429440D03*
D51*
%TO.P,J6,10_1*%
%TO.N,N/C*%
X275000000Y-138679440D03*
D50*
%TO.P,J6,11,Pin_11*%
%TO.N,/MIPI-HDMI-2/PWR_DN_LS*%
X276000000Y-142429440D03*
D51*
%TO.P,J6,11_1*%
%TO.N,N/C*%
X276000000Y-138679440D03*
D50*
%TO.P,J6,12,Pin_12*%
%TO.N,/MIPI-HDMI-2/CAM_MCLK*%
X277000000Y-142429440D03*
D51*
%TO.P,J6,12_1*%
%TO.N,N/C*%
X277000000Y-138679440D03*
D50*
%TO.P,J6,13,Pin_13*%
%TO.N,/MIPI-HDMI-2/CAM_SCL*%
X278000000Y-142429440D03*
D51*
%TO.P,J6,13_1*%
%TO.N,N/C*%
X278000000Y-138679440D03*
D50*
%TO.P,J6,14,Pin_14*%
%TO.N,/MIPI-HDMI-2/CAM_SDA*%
X279000000Y-142429440D03*
D51*
%TO.P,J6,14_1*%
%TO.N,N/C*%
X279000000Y-138679440D03*
D50*
%TO.P,J6,15,Pin_15*%
%TO.N,/MIPI-HDMI-2/CAM_3V3*%
X280000000Y-142429440D03*
D51*
%TO.P,J6,15_1*%
%TO.N,N/C*%
X280000000Y-138679440D03*
%TD*%
D53*
%TO.P,J2,1,Pin_1*%
%TO.N,/Power Supply/+18V*%
X238561113Y-88406784D03*
X243561113Y-88406784D03*
%TO.P,J2,2,Pin_2*%
%TO.N,GND*%
X238561113Y-83406784D03*
X243561113Y-83406784D03*
%TD*%
D19*
%TO.P,R8,1*%
%TO.N,GND*%
X233489000Y-96520000D03*
%TO.P,R8,2*%
%TO.N,Net-(D1-A)*%
X231839000Y-96520000D03*
%TD*%
D44*
%TO.P,J15,1,D2+*%
%TO.N,/MIPI-HDMI-2/CAM_MCLK*%
X277500000Y-149315000D03*
%TO.P,J15,2,D2S*%
%TO.N,/MIPI-HDMI-2/GND_MIPI*%
X277000000Y-149315000D03*
%TO.P,J15,3,D2-*%
%TO.N,/MIPI-HDMI-2/PWR_DN_LS*%
X276500000Y-149315000D03*
%TO.P,J15,4,D1+*%
%TO.N,/MIPI-HDMI-2/CAM_CK_P*%
X276000000Y-149315000D03*
%TO.P,J15,5,D1S*%
%TO.N,/MIPI-HDMI-2/GND_MIPI*%
X275500000Y-149315000D03*
%TO.P,J15,6,D1-*%
%TO.N,/MIPI-HDMI-2/CAM_CK_N*%
X275000000Y-149315000D03*
%TO.P,J15,7,D0+*%
%TO.N,/MIPI-HDMI-2/CAM_D1_P*%
X274500000Y-149315000D03*
%TO.P,J15,8,D0S*%
%TO.N,/MIPI-HDMI-2/GND_MIPI*%
X274000000Y-149315000D03*
%TO.P,J15,9,D0-*%
%TO.N,/MIPI-HDMI-2/CAM_D1_N*%
X273500000Y-149315000D03*
%TO.P,J15,10,CK+*%
%TO.N,/MIPI-HDMI-2/CAM_D0_P*%
X273000000Y-149315000D03*
%TO.P,J15,11,CKS*%
%TO.N,/MIPI-HDMI-2/GND_MIPI*%
X272500000Y-149315000D03*
%TO.P,J15,12,CK-*%
%TO.N,/MIPI-HDMI-2/CAM_D0_N*%
X272000000Y-149315000D03*
%TO.P,J15,13,CEC*%
%TO.N,unconnected-(J15-CEC-Pad13)*%
X271500000Y-149315000D03*
%TO.P,J15,14,UTILITY*%
%TO.N,unconnected-(J15-UTILITY-Pad14)*%
X271000000Y-149315000D03*
%TO.P,J15,15,SCL*%
%TO.N,/MIPI-HDMI-2/CAM_SCL*%
X270500000Y-149315000D03*
%TO.P,J15,16,SDA*%
%TO.N,/MIPI-HDMI-2/CAM_SDA*%
X270000000Y-149315000D03*
%TO.P,J15,17,GND*%
%TO.N,/MIPI-HDMI-2/GND_MIPI*%
X269500000Y-149315000D03*
%TO.P,J15,18,+5V*%
%TO.N,/MIPI-HDMI-2/CAM_3V3*%
X269000000Y-149315000D03*
%TO.P,J15,19,HPD*%
%TO.N,unconnected-(J15-HPD-Pad19)*%
X268500000Y-149315000D03*
D45*
%TO.P,J15,SH,SH*%
%TO.N,/MIPI-HDMI-2/GND_MIPI*%
X280250000Y-150075000D03*
X265750000Y-150075000D03*
D46*
X280250000Y-156035000D03*
X265750000Y-156035000D03*
%TD*%
D24*
%TO.P,R4,1*%
%TO.N,Net-(U2-DN)*%
X299974000Y-91503000D03*
%TO.P,R4,2*%
%TO.N,/Fan Control/TMP_DN*%
X299974000Y-89853000D03*
%TD*%
D38*
%TO.P,C5,1*%
%TO.N,Net-(U2-DP)*%
X304927000Y-89903000D03*
%TO.P,C5,2*%
%TO.N,Net-(U2-DN)*%
X304927000Y-91453000D03*
%TD*%
D34*
%TO.P,D4,1,K*%
%TO.N,unconnected-(D4-K-Pad1)*%
X310212500Y-103317000D03*
%TO.P,D4,2,A*%
%TO.N,GND*%
X310212500Y-105217000D03*
%TO.P,D4,3,K*%
%TO.N,Net-(D4-K-Pad3)*%
X312087500Y-104267000D03*
%TD*%
D13*
%TO.P,J12,1,Pin_1*%
%TO.N,/CAN_FD_DC1_L*%
X323215000Y-147574000D03*
D14*
%TO.P,J12,2,Pin_2*%
%TO.N,/CAN_FD_DC1_H*%
X320675000Y-147574000D03*
%TD*%
D19*
%TO.P,R10,1*%
%TO.N,/FAN_TACH*%
X315658000Y-97536000D03*
%TO.P,R10,2*%
%TO.N,/FAN_PWR*%
X314008000Y-97536000D03*
%TD*%
D54*
%TO.P,J4,1,Pin_1*%
%TO.N,GND*%
X325120000Y-103378000D03*
D55*
%TO.P,J4,2,Pin_2*%
%TO.N,/FAN_PWR*%
X325120000Y-100838000D03*
%TO.P,J4,3,Pin_3*%
%TO.N,/FAN_PWM*%
X325120000Y-98298000D03*
%TO.P,J4,4,Pin_4*%
%TO.N,/FAN_TACH*%
X325120000Y-95758000D03*
%TD*%
D52*
%TO.P,U3,1,A0*%
%TO.N,GND*%
X315406000Y-89535000D03*
%TO.P,U3,2,A1*%
X315406000Y-90805000D03*
%TO.P,U3,3,A2*%
X315406000Y-92075000D03*
%TO.P,U3,4,GND*%
X315406000Y-93345000D03*
%TO.P,U3,5,SDA*%
%TO.N,/Fan Control/I2C_SDA*%
X320356000Y-93345000D03*
%TO.P,U3,6,SCL*%
%TO.N,/Fan Control/I2C_SCL*%
X320356000Y-92075000D03*
%TO.P,U3,7,WP*%
%TO.N,GND*%
X320356000Y-90805000D03*
%TO.P,U3,8,VCC*%
%TO.N,+3V3*%
X320356000Y-89535000D03*
%TD*%
D24*
%TO.P,R3,1*%
%TO.N,Net-(U2-DP)*%
X302514000Y-91503000D03*
%TO.P,R3,2*%
%TO.N,/Fan Control/TMP_DP*%
X302514000Y-89853000D03*
%TD*%
D56*
%TO.N,GND*%
X317072448Y-105693329D03*
X276631400Y-84556600D03*
X235966000Y-157327600D03*
X224028000Y-136652000D03*
X309499000Y-92329000D03*
X233680000Y-137160000D03*
X276606000Y-82829400D03*
X306070000Y-99441000D03*
X222504000Y-136652000D03*
X234645200Y-96520000D03*
X320014600Y-95529400D03*
X317881000Y-93345000D03*
X301523400Y-99034600D03*
X308803000Y-105217000D03*
X276606000Y-83693000D03*
X323874000Y-86638000D03*
X306070000Y-96367600D03*
X264349000Y-88330000D03*
X253619000Y-84836000D03*
X261416800Y-83566000D03*
X257404907Y-88007497D03*
X322173600Y-90220800D03*
X259399000Y-88327000D03*
X310896000Y-99339400D03*
X235204000Y-137160000D03*
%TO.N,/Power Supply/V_{BAT}*%
X235204000Y-142748000D03*
X233680000Y-142748000D03*
X224028000Y-145034000D03*
X222504000Y-145034000D03*
X312547000Y-102616000D03*
%TO.N,/Power Supply/V_IN*%
X264414000Y-82677000D03*
%TO.N,/MIPI-HDMI-2/GND_MIPI*%
X265988800Y-143992600D03*
X269036800Y-143992600D03*
X272034000Y-144018000D03*
X269353863Y-151830101D03*
X277520400Y-151384000D03*
X275031200Y-140893800D03*
X274015200Y-151231600D03*
X272516600Y-151231600D03*
X275564600Y-151231600D03*
%TO.N,/MIPI-HDMI-2/PWR_DN_LS*%
X276504400Y-151714200D03*
X275996400Y-140462000D03*
%TO.N,/MIPI-HDMI-2/CAM_MCLK*%
X277600373Y-140153144D03*
X278282400Y-149275800D03*
%TO.N,/MIPI-HDMI-2/CAM_SCL*%
X279500000Y-140167456D03*
X271272000Y-151358600D03*
%TO.N,/MIPI-HDMI-2/CAM_SDA*%
X270200000Y-152900000D03*
X281000000Y-140900000D03*
%TO.N,/MIPI-HDMI-2/CAM_3V3*%
X268397697Y-151498766D03*
X281900000Y-139400000D03*
%TO.N,/MIPI-HDMI-1/GND_MIPI*%
X250012200Y-151231600D03*
X248513600Y-151231600D03*
X241985800Y-143992600D03*
X245350863Y-151830101D03*
X245033800Y-143992600D03*
X251561600Y-151231600D03*
X248031000Y-144018000D03*
X253517400Y-151384000D03*
X251028200Y-140893800D03*
%TO.N,/MIPI-HDMI-1/PWR_DN_LS*%
X251993400Y-140462000D03*
X252501400Y-151714200D03*
%TO.N,/MIPI-HDMI-1/CAM_MCLK*%
X253700000Y-140200000D03*
X254279400Y-149275800D03*
%TO.N,/MIPI-HDMI-1/CAM_SCL*%
X255500000Y-140200000D03*
X247269000Y-151358600D03*
%TO.N,/MIPI-HDMI-1/CAM_SDA*%
X246422546Y-152700000D03*
X257082013Y-141082013D03*
%TO.N,/MIPI-HDMI-1/CAM_3V3*%
X258000000Y-138900000D03*
X244394697Y-151498766D03*
%TO.N,Net-(D4-K-Pad3)*%
X312039000Y-105537000D03*
%TO.N,Net-(U1-I_{SEN})*%
X257429000Y-83566000D03*
%TO.N,Net-(U1-FA{slash}SD)*%
X266065000Y-83693000D03*
%TO.N,Net-(Q1-S-Pad1)*%
X271653000Y-83439000D03*
X272542000Y-82579897D03*
X272542000Y-83439000D03*
%TO.N,Net-(U1-FB)*%
X257648472Y-87025299D03*
%TO.N,+3V3*%
X317881000Y-89535000D03*
X309753000Y-88519000D03*
X318770000Y-87942412D03*
X299974000Y-99060000D03*
%TO.N,/FAN_PWM*%
X307640500Y-92502500D03*
%TO.N,/Fan Control/I2C_SDA*%
X313594929Y-90104797D03*
X323350000Y-88638000D03*
X322326000Y-93345000D03*
%TO.N,/Fan Control/I2C_SCL*%
X313817000Y-88738456D03*
X322326000Y-92075000D03*
%TO.N,Net-(U5-IN)*%
X317119000Y-103886000D03*
%TO.N,Net-(U5-GND)*%
X321183000Y-105156000D03*
%TD*%
D57*
%TO.N,GND*%
X306070000Y-94767000D02*
X306070000Y-96393000D01*
X315406000Y-89535000D02*
X315406000Y-90805000D01*
X319913000Y-95631000D02*
X320014600Y-95529400D01*
X322199000Y-90246200D02*
X322173600Y-90220800D01*
X310212500Y-105217000D02*
X308803000Y-105217000D01*
X309499000Y-92583000D02*
X309880000Y-92964000D01*
X309499000Y-92075000D02*
X310175000Y-91399000D01*
X310896000Y-98105000D02*
X310896000Y-99314000D01*
D58*
X234442000Y-138479000D02*
X234442000Y-137160000D01*
X222504000Y-136652000D02*
X224028000Y-136652000D01*
D57*
X257554772Y-88157362D02*
X257404907Y-88007497D01*
X323850000Y-86614000D02*
X323874000Y-86638000D01*
X322199000Y-90297000D02*
X322199000Y-90246200D01*
X238748000Y-157361800D02*
X237248000Y-157361800D01*
D59*
X259334000Y-88392000D02*
X259399000Y-88327000D01*
D57*
X318340500Y-95951000D02*
X319593000Y-95951000D01*
X320356000Y-90805000D02*
X321691000Y-90805000D01*
X309880000Y-92964000D02*
X310579000Y-92964000D01*
X264349000Y-87503000D02*
X264349000Y-88330000D01*
D60*
X264349000Y-88330000D02*
X264287000Y-88392000D01*
D57*
X236000200Y-157361800D02*
X235966000Y-157327600D01*
X257261347Y-88007497D02*
X257137850Y-87884000D01*
X301498000Y-99060000D02*
X301498000Y-97930000D01*
X301498000Y-99060000D02*
X301523400Y-99034600D01*
X237248000Y-157361800D02*
X236000200Y-157361800D01*
X233489000Y-96520000D02*
X234569000Y-96520000D01*
D58*
X223266000Y-136652000D02*
X222504000Y-136652000D01*
D57*
X315406000Y-90805000D02*
X315406000Y-92075000D01*
D58*
X223266000Y-138566000D02*
X223266000Y-136652000D01*
D57*
X234569000Y-96520000D02*
X234645200Y-96520000D01*
X257137850Y-87884000D02*
X256349000Y-87884000D01*
X315406000Y-92075000D02*
X315406000Y-93345000D01*
D59*
X254749000Y-84836000D02*
X253619000Y-84836000D01*
D57*
X306070000Y-101067000D02*
X306070000Y-99441000D01*
X321691000Y-90805000D02*
X322199000Y-90297000D01*
X308737000Y-105283000D02*
X308803000Y-105217000D01*
X306070000Y-96393000D02*
X306070000Y-96367600D01*
D59*
X259399000Y-87503000D02*
X259399000Y-88327000D01*
D58*
X234442000Y-137160000D02*
X235204000Y-137160000D01*
D57*
X319593000Y-95951000D02*
X319913000Y-95631000D01*
X325319000Y-86638000D02*
X323874000Y-86638000D01*
X309499000Y-92329000D02*
X309499000Y-92583000D01*
D58*
X234442000Y-137160000D02*
X233680000Y-137160000D01*
D57*
X310175000Y-91399000D02*
X311865500Y-91399000D01*
X317881000Y-93345000D02*
X315406000Y-93345000D01*
X309499000Y-92329000D02*
X309499000Y-92075000D01*
X310896000Y-99314000D02*
X310896000Y-99339400D01*
X257404907Y-88007497D02*
X257261347Y-88007497D01*
D58*
%TO.N,/Power Supply/V_{BAT}*%
X223266000Y-145034000D02*
X222504000Y-145034000D01*
X234188000Y-142748000D02*
X235204000Y-142748000D01*
D57*
X237515400Y-145288000D02*
X236474000Y-145288000D01*
D58*
X234442000Y-142494000D02*
X234188000Y-142748000D01*
X234188000Y-142748000D02*
X233680000Y-142748000D01*
X223266000Y-142866000D02*
X223266000Y-145034000D01*
D57*
X312547000Y-102616000D02*
X314417000Y-102616000D01*
D58*
X234442000Y-141429000D02*
X234442000Y-142494000D01*
X223266000Y-145034000D02*
X224028000Y-145034000D01*
D57*
X238785400Y-146558000D02*
X237515400Y-145288000D01*
X238785400Y-147688800D02*
X238785400Y-146558000D01*
%TO.N,/Power Supply/V_IN*%
X226822000Y-93091000D02*
X226314000Y-93599000D01*
X312293000Y-99314000D02*
X308356000Y-103251000D01*
X227457000Y-98552000D02*
X227347223Y-98552000D01*
X226314000Y-93599000D02*
X226314000Y-97214155D01*
X227838000Y-93091000D02*
X226822000Y-93091000D01*
D61*
X248158000Y-98806000D02*
X247904000Y-98552000D01*
D57*
X311810000Y-94767000D02*
X312293000Y-95250000D01*
D61*
X251142500Y-101409500D02*
X250952000Y-101600000D01*
D57*
X310896000Y-94767000D02*
X311810000Y-94767000D01*
D59*
X264414000Y-83628000D02*
X264349000Y-83693000D01*
D57*
X312293000Y-95250000D02*
X312293000Y-99314000D01*
D58*
X302895000Y-108712000D02*
X247777000Y-108712000D01*
D59*
X264349000Y-83693000D02*
X263017000Y-83693000D01*
X247904000Y-86741000D02*
X247904000Y-98552000D01*
D61*
X251142500Y-98806000D02*
X251142500Y-93662500D01*
X251142500Y-98806000D02*
X251142500Y-103949500D01*
X251142500Y-93662500D02*
X250952000Y-93472000D01*
X251142500Y-103949500D02*
X250952000Y-104140000D01*
D57*
X229870000Y-93472000D02*
X229489000Y-93091000D01*
D61*
X251142500Y-98806000D02*
X251142500Y-101409500D01*
X251142500Y-98806000D02*
X248158000Y-98806000D01*
D58*
X302895000Y-108712000D02*
X308356000Y-103251000D01*
D59*
X252095000Y-82550000D02*
X247904000Y-86741000D01*
D57*
X226314000Y-97214155D02*
X227457000Y-98357155D01*
X227457000Y-98357155D02*
X227457000Y-98552000D01*
D59*
X263017000Y-83693000D02*
X261874000Y-82550000D01*
D57*
X310896000Y-94767000D02*
X308370000Y-94767000D01*
D59*
X264414000Y-82677000D02*
X264414000Y-83628000D01*
D61*
X250952000Y-93472000D02*
X248412000Y-93472000D01*
D57*
X310896000Y-96205000D02*
X310896000Y-94767000D01*
X229489000Y-93091000D02*
X227838000Y-93091000D01*
X227838000Y-93091000D02*
X227838000Y-94231000D01*
X227347223Y-98552000D02*
X227304689Y-98509466D01*
D61*
X250952000Y-104140000D02*
X248412000Y-104140000D01*
D57*
X229870000Y-94933000D02*
X229870000Y-93472000D01*
D59*
X261874000Y-82550000D02*
X252095000Y-82550000D01*
D57*
%TO.N,Net-(U1-COMP)*%
X256299000Y-86360000D02*
X257048000Y-86360000D01*
X257048000Y-86360000D02*
X257683000Y-85725000D01*
X257683000Y-84963000D02*
X257556000Y-84836000D01*
X257556000Y-84836000D02*
X256299000Y-84836000D01*
X257683000Y-85725000D02*
X257683000Y-84963000D01*
X259399000Y-84963000D02*
X257683000Y-84963000D01*
%TO.N,Net-(C2-Pad2)*%
X253746000Y-86360000D02*
X254749000Y-86360000D01*
X254699000Y-87884000D02*
X253746000Y-87884000D01*
X253746000Y-87884000D02*
X253746000Y-86360000D01*
D60*
%TO.N,/MIPI-HDMI-2/GND_MIPI*%
X275003000Y-140922000D02*
X275031200Y-140893800D01*
X277003000Y-150866600D02*
X277003000Y-149315000D01*
X266003000Y-142430000D02*
X266003000Y-143978400D01*
X272003000Y-143987000D02*
X272034000Y-144018000D01*
X272503000Y-149315000D02*
X272503000Y-151218000D01*
X272003000Y-142430000D02*
X272003000Y-143987000D01*
X274003000Y-149315000D02*
X274003000Y-151219400D01*
X266003000Y-143978400D02*
X265988800Y-143992600D01*
X274003000Y-151219400D02*
X274015200Y-151231600D01*
X269003000Y-143958800D02*
X269036800Y-143992600D01*
X275003000Y-142430000D02*
X275003000Y-140922000D01*
X269503000Y-149315000D02*
X269503000Y-151680964D01*
X275503000Y-151170000D02*
X275503000Y-149315000D01*
X269003000Y-142430000D02*
X269003000Y-143958800D01*
X269503000Y-151680964D02*
X269353863Y-151830101D01*
X275564600Y-151231600D02*
X275503000Y-151170000D01*
X272503000Y-151218000D02*
X272516600Y-151231600D01*
X277520400Y-151384000D02*
X277003000Y-150866600D01*
D62*
%TO.N,/MIPI-HDMI-2/CAM_D0_N*%
X268529661Y-146623405D02*
X271780861Y-146623405D01*
X272259795Y-147108204D02*
X272003000Y-147364999D01*
X267259795Y-144074296D02*
X267259795Y-145353539D01*
X267259795Y-145353539D02*
X268529661Y-146623405D01*
X267003000Y-142430000D02*
X267003000Y-143817501D01*
X267003000Y-143817501D02*
X267259795Y-144074296D01*
X271780861Y-146623405D02*
X272259795Y-147102339D01*
X272259795Y-147102339D02*
X272259795Y-147108204D01*
X272003000Y-147364999D02*
X272003000Y-149315000D01*
%TO.N,/MIPI-HDMI-2/CAM_D0_P*%
X268003000Y-142430000D02*
X268003000Y-143817501D01*
X272746205Y-147108204D02*
X273003000Y-147364999D01*
X271982339Y-146136995D02*
X272746205Y-146900861D01*
X267746205Y-144074296D02*
X267746205Y-145152061D01*
X272746205Y-146900861D02*
X272746205Y-147108204D01*
X268731139Y-146136995D02*
X271982339Y-146136995D01*
X268003000Y-143817501D02*
X267746205Y-144074296D01*
X273003000Y-147364999D02*
X273003000Y-149315000D01*
X267746205Y-145152061D02*
X268731139Y-146136995D01*
%TO.N,/MIPI-HDMI-2/CAM_D1_N*%
X273503000Y-148165000D02*
X273511751Y-148156249D01*
X274827854Y-146062658D02*
X274296401Y-145531205D01*
X274827854Y-146329965D02*
X274827854Y-146062658D01*
X273759795Y-147673751D02*
X273759795Y-147398024D01*
X273511751Y-147673751D02*
X273759795Y-147673751D01*
X274296401Y-145531205D02*
X271526861Y-145531205D01*
X270259795Y-144264139D02*
X270259795Y-143311795D01*
X273503000Y-149315000D02*
X273503000Y-148165000D01*
X270003000Y-143055000D02*
X270003000Y-142430000D01*
X270259795Y-143311795D02*
X270003000Y-143055000D01*
X271526861Y-145531205D02*
X270259795Y-144264139D01*
X273511751Y-148156249D02*
X273511751Y-147673751D01*
X273759795Y-147398024D02*
X274827854Y-146329965D01*
%TO.N,/MIPI-HDMI-2/CAM_D1_P*%
X271003000Y-143055000D02*
X271003000Y-142430000D01*
X274246205Y-147599502D02*
X275314264Y-146531443D01*
X274494249Y-148156249D02*
X274494249Y-147673751D01*
X275314264Y-145861180D02*
X274497879Y-145044795D01*
X274497879Y-145044795D02*
X271728339Y-145044795D01*
X274503000Y-148165000D02*
X274494249Y-148156249D01*
X270746205Y-143311795D02*
X271003000Y-143055000D01*
X274494249Y-147673751D02*
X274246205Y-147673751D01*
X274503000Y-149315000D02*
X274503000Y-148165000D01*
X270746205Y-144062661D02*
X270746205Y-143311795D01*
X275314264Y-146531443D02*
X275314264Y-145861180D01*
X274246205Y-147673751D02*
X274246205Y-147599502D01*
X271728339Y-145044795D02*
X270746205Y-144062661D01*
%TO.N,/MIPI-HDMI-2/CAM_CK_N*%
X273259795Y-143311795D02*
X273259795Y-143885939D01*
X276921595Y-145058539D02*
X276921595Y-146050861D01*
X273003000Y-143055000D02*
X273259795Y-143311795D01*
X275003000Y-148165000D02*
X275003000Y-149315000D01*
X276921595Y-146050861D02*
X276556061Y-146416395D01*
X275259795Y-147673751D02*
X275011751Y-147673751D01*
X273899856Y-144526000D02*
X276389056Y-144526000D01*
X273003000Y-142430000D02*
X273003000Y-143055000D01*
X276110928Y-146416395D02*
X275259795Y-147267528D01*
X273259795Y-143885939D02*
X273899856Y-144526000D01*
X276556061Y-146416395D02*
X276110928Y-146416395D01*
X275011751Y-148156249D02*
X275003000Y-148165000D01*
X276389056Y-144526000D02*
X276921595Y-145058539D01*
X275259795Y-147267528D02*
X275259795Y-147673751D01*
X275011751Y-147673751D02*
X275011751Y-148156249D01*
%TO.N,/MIPI-HDMI-2/CAM_CK_P*%
X274003000Y-142430000D02*
X274003000Y-143055000D01*
X275746205Y-147673751D02*
X275994249Y-147673751D01*
X276757539Y-146902805D02*
X276312406Y-146902805D01*
X277408005Y-144857061D02*
X277408005Y-146252339D01*
X276003000Y-148165000D02*
X276003000Y-149315000D01*
X275994249Y-147673751D02*
X275994249Y-148156249D01*
X277408005Y-146252339D02*
X276757539Y-146902805D01*
X276312406Y-146902805D02*
X275746205Y-147469006D01*
X273746205Y-143311795D02*
X273746205Y-143684461D01*
X275994249Y-148156249D02*
X276003000Y-148165000D01*
X276579739Y-144028795D02*
X277408005Y-144857061D01*
X274003000Y-143055000D02*
X273746205Y-143311795D01*
X273746205Y-143684461D02*
X274090539Y-144028795D01*
X274090539Y-144028795D02*
X276579739Y-144028795D01*
X275746205Y-147469006D02*
X275746205Y-147673751D01*
D60*
%TO.N,/MIPI-HDMI-2/PWR_DN_LS*%
X276503000Y-151712800D02*
X276504400Y-151714200D01*
X276503000Y-149315000D02*
X276503000Y-151712800D01*
X276003000Y-140468600D02*
X275996400Y-140462000D01*
X276003000Y-142430000D02*
X276003000Y-140468600D01*
%TO.N,/MIPI-HDMI-2/CAM_MCLK*%
X277503000Y-149315000D02*
X278243200Y-149315000D01*
X277600373Y-140153144D02*
X277003000Y-140750517D01*
X277003000Y-140750517D02*
X277003000Y-142430000D01*
X278243200Y-149315000D02*
X278282400Y-149275800D01*
D57*
%TO.N,Net-(U2-DP)*%
X302514000Y-91503000D02*
X302514000Y-92252800D01*
X303758600Y-92049600D02*
X303758600Y-89255600D01*
X304165000Y-88849200D02*
X304901600Y-88849200D01*
X304927000Y-88874600D02*
X304901600Y-88849200D01*
X303399444Y-92408756D02*
X303758600Y-92049600D01*
X303758600Y-89255600D02*
X304165000Y-88849200D01*
X302514000Y-92252800D02*
X302669956Y-92408756D01*
X305993800Y-89712800D02*
X306380000Y-90099000D01*
X302669956Y-92408756D02*
X303399444Y-92408756D01*
X305993800Y-89230200D02*
X305993800Y-89712800D01*
X305612800Y-88849200D02*
X305993800Y-89230200D01*
X304927000Y-89903000D02*
X304927000Y-88874600D01*
X304901600Y-88849200D02*
X305612800Y-88849200D01*
X306380000Y-90099000D02*
X307640500Y-90099000D01*
%TO.N,Net-(U2-DN)*%
X304927000Y-91453000D02*
X304927000Y-92456000D01*
X306146200Y-91084400D02*
X306146200Y-92024200D01*
X306776860Y-90754200D02*
X306476400Y-90754200D01*
X307640500Y-90749000D02*
X306782060Y-90749000D01*
X304927000Y-92456000D02*
X304266600Y-93116400D01*
X299974000Y-92329000D02*
X299974000Y-91503000D01*
X305714400Y-92456000D02*
X304927000Y-92456000D01*
X306476400Y-90754200D02*
X306146200Y-91084400D01*
X306782060Y-90749000D02*
X306776860Y-90754200D01*
X300761400Y-93116400D02*
X299974000Y-92329000D01*
X304266600Y-93116400D02*
X300761400Y-93116400D01*
X306146200Y-92024200D02*
X305714400Y-92456000D01*
D60*
%TO.N,/MIPI-HDMI-2/CAM_SCL*%
X270503000Y-150918288D02*
X270943312Y-151358600D01*
X270943312Y-151358600D02*
X271272000Y-151358600D01*
X278003000Y-141097000D02*
X278003000Y-142430000D01*
X270503000Y-149315000D02*
X270503000Y-150918288D01*
X278932544Y-140167456D02*
X278003000Y-141097000D01*
X279500000Y-140167456D02*
X278932544Y-140167456D01*
%TO.N,/MIPI-HDMI-2/CAM_SDA*%
X279500000Y-140900000D02*
X279003000Y-141397000D01*
X281000000Y-140900000D02*
X279500000Y-140900000D01*
X270003000Y-151442557D02*
X270003000Y-149315000D01*
X279003000Y-141397000D02*
X279003000Y-142430000D01*
X270200000Y-152900000D02*
X270200000Y-151639557D01*
X270200000Y-151639557D02*
X270003000Y-151442557D01*
%TO.N,/MIPI-HDMI-2/CAM_3V3*%
X281900000Y-139400000D02*
X281900000Y-141300000D01*
X281900000Y-141300000D02*
X280770000Y-142430000D01*
X269003000Y-149315000D02*
X269003000Y-150893463D01*
X269003000Y-150893463D02*
X268397697Y-151498766D01*
X280770000Y-142430000D02*
X280003000Y-142430000D01*
D57*
%TO.N,Net-(U4-OUT)*%
X300457000Y-94767000D02*
X301854000Y-94767000D01*
X301498000Y-94767000D02*
X301498000Y-96380000D01*
X299974000Y-95250000D02*
X300457000Y-94767000D01*
X299974000Y-96330000D02*
X299974000Y-95250000D01*
X303770000Y-94767000D02*
X301854000Y-94767000D01*
D60*
%TO.N,/MIPI-HDMI-1/GND_MIPI*%
X242000000Y-143978400D02*
X241985800Y-143992600D01*
X248000000Y-142430000D02*
X248000000Y-143987000D01*
X251000000Y-142430000D02*
X251000000Y-140922000D01*
X250000000Y-151219400D02*
X250012200Y-151231600D01*
X253000000Y-150866600D02*
X253000000Y-149315000D01*
X245000000Y-143958800D02*
X245033800Y-143992600D01*
X250000000Y-149315000D02*
X250000000Y-151219400D01*
X251000000Y-140922000D02*
X251028200Y-140893800D01*
X245500000Y-149315000D02*
X245500000Y-151680964D01*
X248500000Y-149315000D02*
X248500000Y-151218000D01*
X248000000Y-143987000D02*
X248031000Y-144018000D01*
X248500000Y-151218000D02*
X248513600Y-151231600D01*
X253517400Y-151384000D02*
X253000000Y-150866600D01*
X251500000Y-151170000D02*
X251500000Y-149315000D01*
X245000000Y-142430000D02*
X245000000Y-143958800D01*
X242000000Y-142430000D02*
X242000000Y-143978400D01*
X245500000Y-151680964D02*
X245350863Y-151830101D01*
X251561600Y-151231600D02*
X251500000Y-151170000D01*
D62*
%TO.N,/MIPI-HDMI-1/CAM_D0_N*%
X248256795Y-147102339D02*
X248256795Y-147108204D01*
X243000000Y-143817501D02*
X243256795Y-144074296D01*
X247777861Y-146623405D02*
X248256795Y-147102339D01*
X248000000Y-147364999D02*
X248000000Y-149315000D01*
X244526661Y-146623405D02*
X247777861Y-146623405D01*
X243256795Y-144074296D02*
X243256795Y-145353539D01*
X248256795Y-147108204D02*
X248000000Y-147364999D01*
X243000000Y-142430000D02*
X243000000Y-143817501D01*
X243256795Y-145353539D02*
X244526661Y-146623405D01*
%TO.N,/MIPI-HDMI-1/CAM_D0_P*%
X247979339Y-146136995D02*
X248743205Y-146900861D01*
X248743205Y-147108204D02*
X249000000Y-147364999D01*
X249000000Y-147364999D02*
X249000000Y-149315000D01*
X244000000Y-143817501D02*
X243743205Y-144074296D01*
X248743205Y-146900861D02*
X248743205Y-147108204D01*
X244000000Y-142430000D02*
X244000000Y-143817501D01*
X243743205Y-145152061D02*
X244728139Y-146136995D01*
X244728139Y-146136995D02*
X247979339Y-146136995D01*
X243743205Y-144074296D02*
X243743205Y-145152061D01*
%TO.N,/MIPI-HDMI-1/CAM_D1_N*%
X247523861Y-145531205D02*
X246256795Y-144264139D01*
X250293401Y-145531205D02*
X247523861Y-145531205D01*
X249500000Y-148165000D02*
X249508751Y-148156249D01*
X250824854Y-146062658D02*
X250293401Y-145531205D01*
X249756795Y-147673751D02*
X249756795Y-147398024D01*
X249500000Y-149315000D02*
X249500000Y-148165000D01*
X249508751Y-147673751D02*
X249756795Y-147673751D01*
X246256795Y-144264139D02*
X246256795Y-143311795D01*
X249756795Y-147398024D02*
X250824854Y-146329965D01*
X246256795Y-143311795D02*
X246000000Y-143055000D01*
X246000000Y-143055000D02*
X246000000Y-142430000D01*
X250824854Y-146329965D02*
X250824854Y-146062658D01*
X249508751Y-148156249D02*
X249508751Y-147673751D01*
%TO.N,/MIPI-HDMI-1/CAM_D1_P*%
X250500000Y-149315000D02*
X250500000Y-148165000D01*
X250243205Y-147673751D02*
X250243205Y-147599502D01*
X250500000Y-148165000D02*
X250491249Y-148156249D01*
X246743205Y-144062661D02*
X246743205Y-143311795D01*
X247725339Y-145044795D02*
X246743205Y-144062661D01*
X250491249Y-147673751D02*
X250243205Y-147673751D01*
X251311264Y-146531443D02*
X251311264Y-145861180D01*
X250494879Y-145044795D02*
X247725339Y-145044795D01*
X247000000Y-143055000D02*
X247000000Y-142430000D01*
X250491249Y-148156249D02*
X250491249Y-147673751D01*
X251311264Y-145861180D02*
X250494879Y-145044795D01*
X246743205Y-143311795D02*
X247000000Y-143055000D01*
X250243205Y-147599502D02*
X251311264Y-146531443D01*
%TO.N,/MIPI-HDMI-1/CAM_CK_N*%
X252553061Y-146416395D02*
X252107928Y-146416395D01*
X252386056Y-144526000D02*
X252918595Y-145058539D01*
X249256795Y-143311795D02*
X249256795Y-143885939D01*
X252918595Y-146050861D02*
X252553061Y-146416395D01*
X251256795Y-147673751D02*
X251008751Y-147673751D01*
X249256795Y-143885939D02*
X249896856Y-144526000D01*
X251256795Y-147267528D02*
X251256795Y-147673751D01*
X249896856Y-144526000D02*
X252386056Y-144526000D01*
X252918595Y-145058539D02*
X252918595Y-146050861D01*
X249000000Y-143055000D02*
X249256795Y-143311795D01*
X252107928Y-146416395D02*
X251256795Y-147267528D01*
X249000000Y-142430000D02*
X249000000Y-143055000D01*
X251008751Y-148156249D02*
X251000000Y-148165000D01*
X251008751Y-147673751D02*
X251008751Y-148156249D01*
X251000000Y-148165000D02*
X251000000Y-149315000D01*
%TO.N,/MIPI-HDMI-1/CAM_CK_P*%
X251991249Y-148156249D02*
X252000000Y-148165000D01*
X250087539Y-144028795D02*
X252576739Y-144028795D01*
X252576739Y-144028795D02*
X253405005Y-144857061D01*
X253405005Y-144857061D02*
X253405005Y-146252339D01*
X252309406Y-146902805D02*
X251743205Y-147469006D01*
X250000000Y-143055000D02*
X249743205Y-143311795D01*
X249743205Y-143684461D02*
X250087539Y-144028795D01*
X249743205Y-143311795D02*
X249743205Y-143684461D01*
X251743205Y-147673751D02*
X251991249Y-147673751D01*
X253405005Y-146252339D02*
X252754539Y-146902805D01*
X250000000Y-142430000D02*
X250000000Y-143055000D01*
X252000000Y-148165000D02*
X252000000Y-149315000D01*
X252754539Y-146902805D02*
X252309406Y-146902805D01*
X251743205Y-147469006D02*
X251743205Y-147673751D01*
X251991249Y-147673751D02*
X251991249Y-148156249D01*
D60*
%TO.N,/MIPI-HDMI-1/PWR_DN_LS*%
X252000000Y-140468600D02*
X251993400Y-140462000D01*
X252500000Y-151712800D02*
X252501400Y-151714200D01*
X252500000Y-149315000D02*
X252500000Y-151712800D01*
X252000000Y-142430000D02*
X252000000Y-140468600D01*
%TO.N,/MIPI-HDMI-1/CAM_MCLK*%
X254240200Y-149315000D02*
X254279400Y-149275800D01*
X253000000Y-140900000D02*
X253000000Y-142430000D01*
X253700000Y-140200000D02*
X253000000Y-140900000D01*
X253500000Y-149315000D02*
X254240200Y-149315000D01*
%TO.N,/MIPI-HDMI-1/CAM_SCL*%
X246500000Y-149315000D02*
X246500000Y-150918288D01*
X246940312Y-151358600D02*
X247269000Y-151358600D01*
X255500000Y-140200000D02*
X255000000Y-140200000D01*
X246500000Y-150918288D02*
X246940312Y-151358600D01*
X255000000Y-140200000D02*
X254000000Y-141200000D01*
X254000000Y-141200000D02*
X254000000Y-142430000D01*
%TO.N,/MIPI-HDMI-1/CAM_SDA*%
X257082013Y-141082013D02*
X255469699Y-141082013D01*
X246422546Y-152700000D02*
X246422546Y-151865103D01*
X246000000Y-151442557D02*
X246000000Y-149315000D01*
X246422546Y-151865103D02*
X246000000Y-151442557D01*
X255469699Y-141082013D02*
X255000000Y-141551712D01*
X255000000Y-141551712D02*
X255000000Y-142430000D01*
%TO.N,/MIPI-HDMI-1/CAM_3V3*%
X245000000Y-150893463D02*
X244394697Y-151498766D01*
X256770000Y-142430000D02*
X256000000Y-142430000D01*
X258000000Y-141200000D02*
X256770000Y-142430000D01*
X258000000Y-138900000D02*
X258000000Y-141200000D01*
X245000000Y-149315000D02*
X245000000Y-150893463D01*
D57*
%TO.N,Net-(D1-A)*%
X229551000Y-98363000D02*
X229551000Y-99695000D01*
X230886000Y-98298000D02*
X229870000Y-98298000D01*
X229870000Y-96583000D02*
X229870000Y-98298000D01*
X231839000Y-96520000D02*
X231013000Y-96520000D01*
X230886000Y-96647000D02*
X230886000Y-98298000D01*
X228219000Y-98298000D02*
X227838000Y-97917000D01*
X229870000Y-98298000D02*
X229616000Y-98298000D01*
X227838000Y-97917000D02*
X227838000Y-97031000D01*
X229616000Y-98298000D02*
X229551000Y-98363000D01*
X231013000Y-96520000D02*
X230886000Y-96647000D01*
X229870000Y-98298000D02*
X228219000Y-98298000D01*
%TO.N,Net-(D4-K-Pad3)*%
X312087500Y-105488500D02*
X312087500Y-104267000D01*
X312039000Y-105537000D02*
X312087500Y-105488500D01*
%TO.N,Net-(U1-I_{SEN})*%
X257556000Y-83693000D02*
X259399000Y-83693000D01*
X257429000Y-83566000D02*
X257556000Y-83693000D01*
D59*
%TO.N,/Power Supply/+18V*%
X281813000Y-88011000D02*
X283210000Y-88011000D01*
X279908000Y-88012651D02*
X281811349Y-88012651D01*
X286004000Y-88011000D02*
X287274000Y-88011000D01*
X283210000Y-88011000D02*
X284607000Y-88011000D01*
X281811349Y-88012651D02*
X281813000Y-88011000D01*
X284607000Y-88011000D02*
X286004000Y-88011000D01*
D57*
%TO.N,Net-(J3-Pin_2)*%
X321889000Y-87638000D02*
X321881000Y-87630000D01*
X325319000Y-87638000D02*
X321889000Y-87638000D01*
D58*
%TO.N,/Power Supply/SW*%
X272288000Y-103505000D02*
X267716000Y-103505000D01*
X266433300Y-102222300D02*
X266433300Y-98806000D01*
X272258000Y-99314000D02*
X272258000Y-103475000D01*
X266433300Y-94234000D02*
X266433300Y-98806000D01*
X272258000Y-94234000D02*
X266433300Y-94234000D01*
X267716000Y-103505000D02*
X266433300Y-102222300D01*
X272258000Y-103475000D02*
X272288000Y-103505000D01*
X266433300Y-98806000D02*
X268859000Y-98806000D01*
D57*
%TO.N,/CAN_FD1_H*%
X322084799Y-143889300D02*
X322084799Y-144957701D01*
X320865500Y-146177000D02*
X316992000Y-146177000D01*
X311912000Y-148971000D02*
X310515000Y-147574000D01*
X316992000Y-146177000D02*
X314198000Y-148971000D01*
X322084799Y-144957701D02*
X320865500Y-146177000D01*
X314198000Y-148971000D02*
X311912000Y-148971000D01*
%TO.N,/CAN_FD1_L*%
X321284801Y-144805199D02*
X320548000Y-145542000D01*
X321284801Y-143889300D02*
X321284801Y-144805199D01*
X315087000Y-145542000D02*
X313055000Y-147574000D01*
X320548000Y-145542000D02*
X315087000Y-145542000D01*
%TO.N,/CAN_FD_DC1_H*%
X322072000Y-148971000D02*
X320675000Y-147574000D01*
X324612000Y-148971000D02*
X322072000Y-148971000D01*
X324484799Y-145922799D02*
X324739000Y-146177000D01*
X324739000Y-148844000D02*
X324612000Y-148971000D01*
X324739000Y-146177000D02*
X324739000Y-148844000D01*
X324484799Y-143889300D02*
X324484799Y-145922799D01*
%TO.N,/CAN_FD_DC1_L*%
X323684801Y-145580199D02*
X323215000Y-146050000D01*
X323215000Y-146050000D02*
X323215000Y-147574000D01*
X323684801Y-143889300D02*
X323684801Y-145580199D01*
%TO.N,/CAN_FD_DC2_H*%
X298246599Y-145465599D02*
X300355000Y-147574000D01*
X298246599Y-143889300D02*
X298246599Y-145465599D01*
%TO.N,/CAN_FD_DC2_L*%
X297446601Y-146697601D02*
X299847000Y-149098000D01*
X299847000Y-149098000D02*
X301371000Y-149098000D01*
X297446601Y-143889300D02*
X297446601Y-146697601D01*
X301371000Y-149098000D02*
X302895000Y-147574000D01*
%TO.N,/CAN_FD2_H*%
X294132000Y-149098000D02*
X291719000Y-149098000D01*
X295846599Y-143889300D02*
X295846599Y-147383401D01*
X295846599Y-147383401D02*
X294132000Y-149098000D01*
X291719000Y-149098000D02*
X290195000Y-147574000D01*
%TO.N,/CAN_FD2_L*%
X295046601Y-143889300D02*
X295046601Y-145262399D01*
X295046601Y-145262399D02*
X292735000Y-147574000D01*
%TO.N,Net-(U1-FA{slash}SD)*%
X266065000Y-83693000D02*
X266065000Y-84582000D01*
X265684000Y-84963000D02*
X264349000Y-84963000D01*
X266065000Y-84582000D02*
X265684000Y-84963000D01*
D59*
%TO.N,Net-(Q1-S-Pad1)*%
X273289052Y-83326948D02*
X272542000Y-82579897D01*
X272542000Y-82579897D02*
X273079897Y-82579897D01*
X274208000Y-83708000D02*
X273826948Y-83326948D01*
X272542000Y-83439000D02*
X272542000Y-82579897D01*
X272928000Y-84372000D02*
X272928000Y-83825000D01*
X274208000Y-84372000D02*
X274208000Y-83708000D01*
X272542000Y-83439000D02*
X273177000Y-83439000D01*
X272928000Y-83825000D02*
X272542000Y-83439000D01*
X271648000Y-83444000D02*
X271653000Y-83439000D01*
X273826948Y-83326948D02*
X273289052Y-83326948D01*
X271682897Y-83439000D02*
X272542000Y-82579897D01*
X271653000Y-83439000D02*
X272542000Y-83439000D01*
X271648000Y-84372000D02*
X271648000Y-83444000D01*
X271653000Y-83439000D02*
X271682897Y-83439000D01*
X273177000Y-83439000D02*
X273289052Y-83326948D01*
X273079897Y-82579897D02*
X274208000Y-83708000D01*
%TO.N,Net-(Q1-G)*%
X270368000Y-84372000D02*
X270349400Y-84353400D01*
X268198600Y-84353400D02*
X266319000Y-86233000D01*
X270349400Y-84353400D02*
X268198600Y-84353400D01*
X266319000Y-86233000D02*
X264349000Y-86233000D01*
D57*
%TO.N,Net-(U1-FB)*%
X258191000Y-86233000D02*
X257619062Y-86804938D01*
X259399000Y-86233000D02*
X258191000Y-86233000D01*
X257619062Y-86804938D02*
X257619062Y-87143897D01*
%TO.N,+3V3*%
X318897000Y-87884000D02*
X319151000Y-87630000D01*
X318897000Y-87884000D02*
X318838588Y-87942412D01*
X309331000Y-89449000D02*
X309753000Y-89027000D01*
X320356000Y-89535000D02*
X317881000Y-89535000D01*
X319151000Y-87630000D02*
X320231000Y-87630000D01*
X307640500Y-89449000D02*
X309331000Y-89449000D01*
X309753000Y-89027000D02*
X309753000Y-88519000D01*
X318838588Y-87942412D02*
X318770000Y-87942412D01*
X299974000Y-97980000D02*
X299974000Y-99060000D01*
D63*
%TO.N,/FAN_PWR*%
X321437000Y-102616000D02*
X323215000Y-100838000D01*
D57*
X315722000Y-99695000D02*
X313436000Y-99695000D01*
X316865000Y-100838000D02*
X315722000Y-99695000D01*
D63*
X319567000Y-102616000D02*
X321437000Y-102616000D01*
D57*
X316865000Y-101981000D02*
X316865000Y-100838000D01*
X319567000Y-102616000D02*
X317500000Y-102616000D01*
X312928000Y-97790000D02*
X313182000Y-97536000D01*
D63*
X323215000Y-100838000D02*
X325120000Y-100838000D01*
D57*
X312928000Y-99187000D02*
X312928000Y-97790000D01*
X313436000Y-99695000D02*
X312928000Y-99187000D01*
X317500000Y-102616000D02*
X316865000Y-101981000D01*
X313182000Y-97536000D02*
X314008000Y-97536000D01*
%TO.N,/FAN_PWM*%
X321818000Y-96901000D02*
X323215000Y-98298000D01*
X320215500Y-96901000D02*
X321818000Y-96901000D01*
X307721000Y-92583000D02*
X307640500Y-92502500D01*
X307640500Y-92502500D02*
X307640500Y-91399000D01*
X323215000Y-98298000D02*
X325120000Y-98298000D01*
%TO.N,Net-(U2-~{ALERT}{slash}TACH)*%
X313309000Y-93853000D02*
X313309000Y-92964000D01*
X311865500Y-90749000D02*
X313126000Y-90749000D01*
X313182000Y-96012000D02*
X312928000Y-95758000D01*
X313309000Y-92964000D02*
X312229000Y-92964000D01*
X312928000Y-94234000D02*
X313309000Y-93853000D01*
X314008000Y-96012000D02*
X313182000Y-96012000D01*
X313309000Y-90932000D02*
X313309000Y-92964000D01*
X313126000Y-90749000D02*
X313309000Y-90932000D01*
X312928000Y-95758000D02*
X312928000Y-94234000D01*
%TO.N,/Fan Control/TMP_DN*%
X299974000Y-88976200D02*
X299974000Y-89853000D01*
X303182400Y-85767800D02*
X299974000Y-88976200D01*
X303182400Y-84586200D02*
X303182400Y-85767800D01*
%TO.N,/Fan Control/TMP_DP*%
X304182400Y-84586200D02*
X304182400Y-86139400D01*
X304182400Y-86139400D02*
X302514000Y-87807800D01*
X302514000Y-87807800D02*
X302514000Y-89853000D01*
%TO.N,/Fan Control/I2C_SDA*%
X322326000Y-93345000D02*
X320356000Y-93345000D01*
X313590940Y-90099000D02*
X313605556Y-90113616D01*
X311865500Y-90099000D02*
X313590940Y-90099000D01*
X325319000Y-88638000D02*
X323350000Y-88638000D01*
X323350000Y-88638000D02*
X323342000Y-88646000D01*
%TO.N,/Fan Control/I2C_SCL*%
X322326000Y-91440000D02*
X324128000Y-89638000D01*
X313817000Y-88775688D02*
X313143688Y-89449000D01*
X313817000Y-88738456D02*
X313817000Y-88775688D01*
X324128000Y-89638000D02*
X325319000Y-89638000D01*
X322326000Y-92075000D02*
X320356000Y-92075000D01*
X313143688Y-89449000D02*
X311865500Y-89449000D01*
X322326000Y-92075000D02*
X322326000Y-91440000D01*
%TO.N,/FAN_TACH*%
X316992000Y-97282000D02*
X316738000Y-97536000D01*
X321564000Y-94615000D02*
X317500000Y-94615000D01*
X322707000Y-95758000D02*
X321564000Y-94615000D01*
X315658000Y-96012000D02*
X316992000Y-96012000D01*
X317500000Y-94615000D02*
X316992000Y-95123000D01*
X316738000Y-97536000D02*
X315658000Y-97536000D01*
X316992000Y-96012000D02*
X316992000Y-97282000D01*
X325120000Y-95758000D02*
X322707000Y-95758000D01*
X316992000Y-95123000D02*
X316992000Y-96012000D01*
%TO.N,Net-(U5-IN)*%
X317119000Y-103886000D02*
X319567000Y-103886000D01*
%TO.N,Net-(U5-GND)*%
X321183000Y-105156000D02*
X319567000Y-105156000D01*
%TO.N,Net-(D6A-Red-K)*%
X237248000Y-153124600D02*
X237693200Y-152679400D01*
X237693200Y-152679400D02*
X238785400Y-152679400D01*
X238785400Y-152679400D02*
X238785400Y-154324400D01*
X238785400Y-149338800D02*
X238785400Y-152679400D01*
X238785400Y-154324400D02*
X238748000Y-154361800D01*
X237248000Y-154361800D02*
X237248000Y-153124600D01*
%TD*%
%TA.AperFunction,Conductor*%
%TO.N,/Power Supply/SW*%
G36*
X274517039Y-85363685D02*
G01*
X274562794Y-85416489D01*
X274574000Y-85468000D01*
X274574000Y-93189036D01*
X274554315Y-93256075D01*
X274501511Y-93301830D01*
X274432353Y-93311774D01*
X274415410Y-93308114D01*
X274407496Y-93305815D01*
X274407493Y-93305814D01*
X274371727Y-93303000D01*
X272639000Y-93303000D01*
X272639000Y-95164999D01*
X274371724Y-95164999D01*
X274407495Y-95162184D01*
X274415405Y-95159887D01*
X274485274Y-95160086D01*
X274543944Y-95198028D01*
X274572788Y-95261666D01*
X274574000Y-95278963D01*
X274574000Y-98269036D01*
X274554315Y-98336075D01*
X274501511Y-98381830D01*
X274432353Y-98391774D01*
X274415410Y-98388114D01*
X274407496Y-98385815D01*
X274407493Y-98385814D01*
X274371727Y-98383000D01*
X272639000Y-98383000D01*
X272639000Y-100244999D01*
X274371724Y-100244999D01*
X274407495Y-100242184D01*
X274415405Y-100239887D01*
X274485274Y-100240086D01*
X274543944Y-100278028D01*
X274572788Y-100341666D01*
X274574000Y-100358963D01*
X274574000Y-104904530D01*
X274554315Y-104971569D01*
X274501511Y-105017324D01*
X274449531Y-105028529D01*
X268385631Y-105005615D01*
X268318667Y-104985677D01*
X268273112Y-104932701D01*
X268262100Y-104881616D01*
X268262100Y-99695000D01*
X269578360Y-99695000D01*
X269579815Y-99713496D01*
X269624292Y-99866588D01*
X269624292Y-99866589D01*
X269705450Y-100003817D01*
X269705454Y-100003823D01*
X269818176Y-100116545D01*
X269818182Y-100116549D01*
X269955411Y-100197707D01*
X270108500Y-100242184D01*
X270108506Y-100242185D01*
X270144273Y-100245000D01*
X271876999Y-100244999D01*
X271877000Y-100244998D01*
X271877000Y-99695000D01*
X269578360Y-99695000D01*
X268262100Y-99695000D01*
X268262100Y-99187000D01*
X267865574Y-99187000D01*
X267866171Y-98933000D01*
X269578360Y-98933000D01*
X271877000Y-98933000D01*
X271877000Y-98383000D01*
X271876999Y-98383000D01*
X270144276Y-98383001D01*
X270108504Y-98385815D01*
X269955411Y-98430292D01*
X269955410Y-98430292D01*
X269818182Y-98511450D01*
X269818176Y-98511454D01*
X269705454Y-98624176D01*
X269705450Y-98624182D01*
X269624292Y-98761410D01*
X269624292Y-98761411D01*
X269579816Y-98914498D01*
X269579816Y-98914499D01*
X269578360Y-98933000D01*
X267866171Y-98933000D01*
X267867366Y-98425000D01*
X268262100Y-98425000D01*
X268262100Y-94615000D01*
X269578360Y-94615000D01*
X269579815Y-94633496D01*
X269624292Y-94786588D01*
X269624292Y-94786589D01*
X269705450Y-94923817D01*
X269705454Y-94923823D01*
X269818176Y-95036545D01*
X269818182Y-95036549D01*
X269955411Y-95117707D01*
X270108500Y-95162184D01*
X270108506Y-95162185D01*
X270144273Y-95165000D01*
X271876999Y-95164999D01*
X271877000Y-95164998D01*
X271877000Y-94615000D01*
X269578360Y-94615000D01*
X268262100Y-94615000D01*
X268262100Y-93853000D01*
X269578360Y-93853000D01*
X271877000Y-93853000D01*
X271877000Y-93303000D01*
X271876999Y-93303000D01*
X270144276Y-93303001D01*
X270108504Y-93305815D01*
X269955411Y-93350292D01*
X269955410Y-93350292D01*
X269818182Y-93431450D01*
X269818176Y-93431454D01*
X269705454Y-93544176D01*
X269705450Y-93544182D01*
X269624292Y-93681410D01*
X269624292Y-93681411D01*
X269579816Y-93834498D01*
X269579816Y-93834499D01*
X269578360Y-93853000D01*
X268262100Y-93853000D01*
X268262100Y-92546847D01*
X268251309Y-92472783D01*
X268195462Y-92358546D01*
X268105552Y-92268636D01*
X268090912Y-92261479D01*
X268039330Y-92214351D01*
X268021416Y-92146817D01*
X268026949Y-92113315D01*
X270101914Y-85431227D01*
X270140594Y-85373041D01*
X270204592Y-85345004D01*
X270220336Y-85344000D01*
X274450000Y-85344000D01*
X274517039Y-85363685D01*
G37*
%TD.AperFunction*%
%TD*%
%TA.AperFunction,Conductor*%
%TO.N,/Power Supply/+18V*%
G36*
X298519435Y-81300017D02*
G01*
X298565495Y-81352555D01*
X298577000Y-81404718D01*
X298577000Y-106175000D01*
X298557315Y-106242039D01*
X298504511Y-106287794D01*
X298453000Y-106299000D01*
X276730000Y-106299000D01*
X276662961Y-106279315D01*
X276617206Y-106226511D01*
X276606000Y-106175000D01*
X276606000Y-102643978D01*
X276625685Y-102576939D01*
X276678489Y-102531184D01*
X276747647Y-102521240D01*
X276764595Y-102524902D01*
X276858500Y-102552184D01*
X276858506Y-102552185D01*
X276874696Y-102553459D01*
X276881112Y-102554999D01*
X276891835Y-102554999D01*
X276896707Y-102555190D01*
X276909645Y-102556209D01*
X276916418Y-102554999D01*
X278665499Y-102554999D01*
X278665500Y-102554998D01*
X278665500Y-99866500D01*
X279300500Y-99866500D01*
X279300500Y-102554999D01*
X281090500Y-102554999D01*
X281090500Y-99866500D01*
X281725500Y-99866500D01*
X281725500Y-102554999D01*
X283515499Y-102554999D01*
X283515500Y-102554998D01*
X283515500Y-99866500D01*
X284150500Y-99866500D01*
X284150500Y-102554999D01*
X285921724Y-102554999D01*
X285957495Y-102552184D01*
X286110588Y-102507707D01*
X286110589Y-102507707D01*
X286247817Y-102426549D01*
X286247823Y-102426545D01*
X286360545Y-102313823D01*
X286360549Y-102313817D01*
X286441707Y-102176589D01*
X286441707Y-102176588D01*
X286486184Y-102023499D01*
X286486185Y-102023493D01*
X286489000Y-101987727D01*
X286489000Y-99866500D01*
X284150500Y-99866500D01*
X283515500Y-99866500D01*
X281725500Y-99866500D01*
X281090500Y-99866500D01*
X279300500Y-99866500D01*
X278665500Y-99866500D01*
X278665500Y-94316500D01*
X279300500Y-94316500D01*
X279300500Y-99231500D01*
X281090500Y-99231500D01*
X281090500Y-97091500D01*
X281725500Y-97091500D01*
X281725500Y-99231500D01*
X283515500Y-99231500D01*
X283515500Y-97091500D01*
X284150500Y-97091500D01*
X284150500Y-99231500D01*
X286488999Y-99231500D01*
X286488999Y-97091500D01*
X284150500Y-97091500D01*
X283515500Y-97091500D01*
X281725500Y-97091500D01*
X281090500Y-97091500D01*
X281090500Y-94316500D01*
X281725500Y-94316500D01*
X281725500Y-96456500D01*
X283515500Y-96456500D01*
X283515500Y-94316500D01*
X284150500Y-94316500D01*
X284150500Y-96456500D01*
X286488999Y-96456500D01*
X286488999Y-96440282D01*
X286489000Y-96440257D01*
X286489000Y-94316500D01*
X284150500Y-94316500D01*
X283515500Y-94316500D01*
X281725500Y-94316500D01*
X281090500Y-94316500D01*
X279300500Y-94316500D01*
X278665500Y-94316500D01*
X278665500Y-90993000D01*
X279300500Y-90993000D01*
X279300500Y-93681500D01*
X281090500Y-93681500D01*
X281090500Y-90993000D01*
X281725500Y-90993000D01*
X281725500Y-93681500D01*
X283515500Y-93681500D01*
X283515500Y-90993000D01*
X284150500Y-90993000D01*
X284150500Y-93681500D01*
X286488999Y-93681500D01*
X286488999Y-91560276D01*
X286486184Y-91524504D01*
X286441707Y-91371411D01*
X286441707Y-91371410D01*
X286360549Y-91234182D01*
X286360545Y-91234176D01*
X286247823Y-91121454D01*
X286247817Y-91121450D01*
X286110588Y-91040292D01*
X285957499Y-90995815D01*
X285957493Y-90995814D01*
X285921727Y-90993000D01*
X284150500Y-90993000D01*
X283515500Y-90993000D01*
X281725500Y-90993000D01*
X281090500Y-90993000D01*
X279300500Y-90993000D01*
X278665500Y-90993000D01*
X278665499Y-90993000D01*
X276894276Y-90993001D01*
X276858504Y-90995815D01*
X276764595Y-91023098D01*
X276694725Y-91022899D01*
X276636055Y-90984957D01*
X276607212Y-90921318D01*
X276606000Y-90904022D01*
X276606000Y-88330151D01*
X278727000Y-88330151D01*
X278727000Y-88848803D01*
X278737790Y-88922867D01*
X278793637Y-89037104D01*
X278883546Y-89127013D01*
X278997783Y-89182860D01*
X279071847Y-89193651D01*
X279590500Y-89193651D01*
X279590500Y-88330151D01*
X278727000Y-88330151D01*
X276606000Y-88330151D01*
X276606000Y-88012651D01*
X279503014Y-88012651D01*
X279522835Y-88137799D01*
X279580359Y-88250696D01*
X279669955Y-88340292D01*
X279782852Y-88397816D01*
X279876519Y-88412651D01*
X279939481Y-88412651D01*
X280033148Y-88397816D01*
X280146045Y-88340292D01*
X280156186Y-88330151D01*
X280225500Y-88330151D01*
X280225500Y-89193651D01*
X280744153Y-89193651D01*
X280818216Y-89182860D01*
X280932453Y-89127013D01*
X281022362Y-89037104D01*
X281078209Y-88922867D01*
X281089000Y-88848803D01*
X281089000Y-88399500D01*
X287617000Y-88399500D01*
X287617000Y-88918152D01*
X287627790Y-88992216D01*
X287683637Y-89106453D01*
X287773546Y-89196362D01*
X287887783Y-89252209D01*
X287961847Y-89263000D01*
X288480500Y-89263000D01*
X288480500Y-88399500D01*
X287617000Y-88399500D01*
X281089000Y-88399500D01*
X281089000Y-88330151D01*
X280225500Y-88330151D01*
X280156186Y-88330151D01*
X280235641Y-88250696D01*
X280293165Y-88137799D01*
X280302002Y-88082000D01*
X288393014Y-88082000D01*
X288412835Y-88207148D01*
X288470359Y-88320045D01*
X288559955Y-88409641D01*
X288672852Y-88467165D01*
X288766519Y-88482000D01*
X288829481Y-88482000D01*
X288923148Y-88467165D01*
X289036045Y-88409641D01*
X289046186Y-88399500D01*
X289115500Y-88399500D01*
X289115500Y-89263000D01*
X289634153Y-89263000D01*
X289708216Y-89252209D01*
X289822453Y-89196362D01*
X289912362Y-89106453D01*
X289968209Y-88992216D01*
X289979000Y-88918152D01*
X289979000Y-88399500D01*
X289115500Y-88399500D01*
X289046186Y-88399500D01*
X289125641Y-88320045D01*
X289183165Y-88207148D01*
X289202986Y-88082000D01*
X289183165Y-87956852D01*
X289125641Y-87843955D01*
X289036045Y-87754359D01*
X288923148Y-87696835D01*
X288829481Y-87682000D01*
X288766519Y-87682000D01*
X288672852Y-87696835D01*
X288559955Y-87754359D01*
X288470359Y-87843955D01*
X288412835Y-87956852D01*
X288393014Y-88082000D01*
X280302002Y-88082000D01*
X280312986Y-88012651D01*
X280293165Y-87887503D01*
X280235641Y-87774606D01*
X280225535Y-87764500D01*
X287617000Y-87764500D01*
X288480500Y-87764500D01*
X288480500Y-86901000D01*
X289115500Y-86901000D01*
X289115500Y-87764500D01*
X289979000Y-87764500D01*
X289979000Y-87245847D01*
X289968209Y-87171783D01*
X289912362Y-87057546D01*
X289822453Y-86967637D01*
X289708216Y-86911790D01*
X289634153Y-86901000D01*
X289115500Y-86901000D01*
X288480500Y-86901000D01*
X287961847Y-86901000D01*
X287887783Y-86911790D01*
X287773546Y-86967637D01*
X287683637Y-87057546D01*
X287627790Y-87171783D01*
X287617000Y-87245847D01*
X287617000Y-87764500D01*
X280225535Y-87764500D01*
X280146045Y-87685010D01*
X280033148Y-87627486D01*
X279939481Y-87612651D01*
X279876519Y-87612651D01*
X279782852Y-87627486D01*
X279669955Y-87685010D01*
X279580359Y-87774606D01*
X279522835Y-87887503D01*
X279503014Y-88012651D01*
X276606000Y-88012651D01*
X276606000Y-87695151D01*
X278727000Y-87695151D01*
X279590500Y-87695151D01*
X279590500Y-86831651D01*
X280225500Y-86831651D01*
X280225500Y-87695151D01*
X281089000Y-87695151D01*
X281089000Y-87176498D01*
X281078209Y-87102434D01*
X281022362Y-86988197D01*
X280932453Y-86898288D01*
X280818216Y-86842441D01*
X280744153Y-86831651D01*
X280225500Y-86831651D01*
X279590500Y-86831651D01*
X279071847Y-86831651D01*
X278997783Y-86842441D01*
X278883546Y-86898288D01*
X278793637Y-86988197D01*
X278737790Y-87102434D01*
X278727000Y-87176498D01*
X278727000Y-87695151D01*
X276606000Y-87695151D01*
X276606000Y-85340182D01*
X276625685Y-85273143D01*
X276678489Y-85227388D01*
X276704550Y-85220047D01*
X276704365Y-85219295D01*
X276867476Y-85179092D01*
X276867476Y-85179091D01*
X276867480Y-85179091D01*
X277009591Y-85104505D01*
X277129724Y-84998077D01*
X277220896Y-84865991D01*
X277277808Y-84715925D01*
X277297154Y-84556600D01*
X277291818Y-84512651D01*
X278848398Y-84512651D01*
X278868757Y-84719367D01*
X278929056Y-84918147D01*
X279026969Y-85101328D01*
X279026972Y-85101332D01*
X279026973Y-85101334D01*
X279047011Y-85125750D01*
X279158747Y-85261903D01*
X279243250Y-85331252D01*
X279319317Y-85393678D01*
X279319320Y-85393679D01*
X279319322Y-85393681D01*
X279502503Y-85491594D01*
X279502505Y-85491594D01*
X279502508Y-85491596D01*
X279701282Y-85551893D01*
X279908000Y-85572253D01*
X280114718Y-85551893D01*
X280313492Y-85491596D01*
X280496683Y-85393678D01*
X280657252Y-85261903D01*
X280789027Y-85101334D01*
X280886945Y-84918143D01*
X280947242Y-84719369D01*
X280960772Y-84582000D01*
X287738398Y-84582000D01*
X287758757Y-84788716D01*
X287819056Y-84987496D01*
X287916969Y-85170677D01*
X287916974Y-85170684D01*
X288048747Y-85331252D01*
X288124818Y-85393681D01*
X288209317Y-85463027D01*
X288209320Y-85463028D01*
X288209322Y-85463030D01*
X288392503Y-85560943D01*
X288392505Y-85560943D01*
X288392508Y-85560945D01*
X288591282Y-85621242D01*
X288798000Y-85641602D01*
X289004718Y-85621242D01*
X289203492Y-85560945D01*
X289386683Y-85463027D01*
X289547252Y-85331252D01*
X289679027Y-85170683D01*
X289776945Y-84987492D01*
X289837242Y-84788718D01*
X289857602Y-84582000D01*
X289837242Y-84375282D01*
X289776945Y-84176508D01*
X289776943Y-84176505D01*
X289776943Y-84176503D01*
X289679030Y-83993322D01*
X289679028Y-83993320D01*
X289679027Y-83993317D01*
X289622114Y-83923968D01*
X289547252Y-83832747D01*
X289386684Y-83700974D01*
X289386677Y-83700969D01*
X289203496Y-83603056D01*
X289004716Y-83542757D01*
X288798000Y-83522398D01*
X288591283Y-83542757D01*
X288392503Y-83603056D01*
X288209322Y-83700969D01*
X288209315Y-83700974D01*
X288048747Y-83832747D01*
X287916974Y-83993315D01*
X287916969Y-83993322D01*
X287819056Y-84176503D01*
X287758757Y-84375283D01*
X287738398Y-84582000D01*
X280960772Y-84582000D01*
X280967602Y-84512651D01*
X280947242Y-84305933D01*
X280886945Y-84107159D01*
X280886943Y-84107156D01*
X280886943Y-84107154D01*
X280789030Y-83923973D01*
X280789028Y-83923971D01*
X280789027Y-83923968D01*
X280730234Y-83852328D01*
X280657252Y-83763398D01*
X280496684Y-83631625D01*
X280496677Y-83631620D01*
X280313496Y-83533707D01*
X280114716Y-83473408D01*
X279908000Y-83453049D01*
X279701283Y-83473408D01*
X279502503Y-83533707D01*
X279319322Y-83631620D01*
X279319315Y-83631625D01*
X279158747Y-83763398D01*
X279026974Y-83923966D01*
X279026969Y-83923973D01*
X278929056Y-84107154D01*
X278868757Y-84305934D01*
X278848398Y-84512651D01*
X277291818Y-84512651D01*
X277277808Y-84397275D01*
X277277807Y-84397273D01*
X277277807Y-84397271D01*
X277243167Y-84305933D01*
X277220896Y-84247209D01*
X277172324Y-84176840D01*
X277150441Y-84110485D01*
X277167906Y-84042834D01*
X277172307Y-84035985D01*
X277195496Y-84002391D01*
X277252408Y-83852325D01*
X277271754Y-83693000D01*
X277252408Y-83533675D01*
X277252407Y-83533673D01*
X277252407Y-83533671D01*
X277195496Y-83383610D01*
X277195496Y-83383609D01*
X277159623Y-83331638D01*
X277137741Y-83265286D01*
X277155206Y-83197634D01*
X277159610Y-83190780D01*
X277195496Y-83138791D01*
X277252408Y-82988725D01*
X277271754Y-82829400D01*
X277252408Y-82670075D01*
X277252407Y-82670073D01*
X277252407Y-82670071D01*
X277226546Y-82601882D01*
X277195496Y-82520009D01*
X277104324Y-82387923D01*
X276984191Y-82281495D01*
X276842080Y-82206909D01*
X276842079Y-82206908D01*
X276842076Y-82206907D01*
X276700325Y-82171969D01*
X276639944Y-82136812D01*
X276608156Y-82074593D01*
X276606000Y-82051572D01*
X276606000Y-81530285D01*
X276625685Y-81463246D01*
X276678489Y-81417491D01*
X276729281Y-81406287D01*
X298452286Y-81280720D01*
X298519435Y-81300017D01*
G37*
%TD.AperFunction*%
%TD*%
%TA.AperFunction,Conductor*%
%TO.N,/Power Supply/V_{BAT}*%
G36*
X226325980Y-98681383D02*
G01*
X226387011Y-98693523D01*
X226431709Y-98712037D01*
X226473096Y-98739691D01*
X226507309Y-98773904D01*
X226534962Y-98815291D01*
X226553476Y-98859987D01*
X226565617Y-98921019D01*
X226568000Y-98945212D01*
X226568000Y-106426000D01*
X233030078Y-110813830D01*
X236790398Y-113367135D01*
X236790400Y-113367136D01*
X236855000Y-113411000D01*
X249809000Y-113411000D01*
X249809002Y-113411000D01*
X250063000Y-113411000D01*
X250063000Y-110121212D01*
X250065383Y-110097021D01*
X250077523Y-110035989D01*
X250096037Y-109991291D01*
X250123693Y-109949900D01*
X250157900Y-109915693D01*
X250199292Y-109888036D01*
X250243989Y-109869523D01*
X250305021Y-109857383D01*
X250329212Y-109855000D01*
X310010545Y-109855000D01*
X310010547Y-109855000D01*
X310134000Y-109855000D01*
X312928000Y-106299000D01*
X312928000Y-105467132D01*
X312947685Y-105400093D01*
X313000489Y-105354338D01*
X313069647Y-105344394D01*
X313133203Y-105373419D01*
X313167012Y-105426028D01*
X313168332Y-105425508D01*
X313170958Y-105432167D01*
X313170977Y-105432197D01*
X313170993Y-105432256D01*
X313224798Y-105568697D01*
X313312996Y-105685003D01*
X313429302Y-105773201D01*
X313565098Y-105826752D01*
X313650430Y-105836999D01*
X314116999Y-105836999D01*
X314117000Y-105836998D01*
X314117000Y-105456000D01*
X314717000Y-105456000D01*
X314717000Y-105836999D01*
X315183562Y-105836999D01*
X315268902Y-105826752D01*
X315404697Y-105773201D01*
X315521003Y-105685003D01*
X315609201Y-105568697D01*
X315653643Y-105456000D01*
X314717000Y-105456000D01*
X314117000Y-105456000D01*
X314117000Y-104186000D01*
X314717000Y-104186000D01*
X314717000Y-104856000D01*
X315653643Y-104856000D01*
X315609201Y-104743302D01*
X315521004Y-104626997D01*
X315511520Y-104619805D01*
X315469996Y-104563613D01*
X315465443Y-104493892D01*
X315499307Y-104432778D01*
X315511520Y-104422195D01*
X315521004Y-104415002D01*
X315609201Y-104298697D01*
X315653643Y-104186000D01*
X314717000Y-104186000D01*
X314117000Y-104186000D01*
X314117000Y-102916000D01*
X314717000Y-102916000D01*
X314717000Y-103586000D01*
X315653643Y-103586000D01*
X315609201Y-103473302D01*
X315521004Y-103356997D01*
X315511520Y-103349805D01*
X315469996Y-103293613D01*
X315465443Y-103223892D01*
X315499307Y-103162778D01*
X315511520Y-103152195D01*
X315521004Y-103145002D01*
X315609201Y-103028697D01*
X315653643Y-102916000D01*
X314717000Y-102916000D01*
X314117000Y-102916000D01*
X314117000Y-101646000D01*
X314717000Y-101646000D01*
X314717000Y-102316000D01*
X315653643Y-102316000D01*
X315609201Y-102203302D01*
X315521004Y-102086997D01*
X315511520Y-102079805D01*
X315469996Y-102023613D01*
X315465443Y-101953892D01*
X315499307Y-101892778D01*
X315511520Y-101882195D01*
X315521004Y-101875002D01*
X315609201Y-101758697D01*
X315653643Y-101646000D01*
X314717000Y-101646000D01*
X314117000Y-101646000D01*
X314117000Y-101170000D01*
X314136685Y-101102961D01*
X314189489Y-101057206D01*
X314241000Y-101046000D01*
X315653643Y-101046000D01*
X315609201Y-100933302D01*
X315591474Y-100909925D01*
X315566651Y-100844613D01*
X315581079Y-100776249D01*
X315630177Y-100726538D01*
X315690278Y-100711000D01*
X316057313Y-100711000D01*
X316124352Y-100730685D01*
X316144994Y-100747319D01*
X316317707Y-100920032D01*
X316351192Y-100981355D01*
X316354019Y-101008951D01*
X316319888Y-104422195D01*
X316230439Y-113367135D01*
X316230000Y-113411000D01*
X316229998Y-113411343D01*
X316229996Y-113411614D01*
X316104463Y-136133232D01*
X316101964Y-136157326D01*
X316089571Y-136218092D01*
X316070936Y-136262559D01*
X316043231Y-136303714D01*
X316009042Y-136337714D01*
X315967738Y-136365188D01*
X315923172Y-136383576D01*
X315882836Y-136391571D01*
X315862335Y-136395634D01*
X315838229Y-136398000D01*
X236728000Y-136398000D01*
X236728000Y-136651995D01*
X236728000Y-145275787D01*
X236725617Y-145299980D01*
X236713476Y-145361012D01*
X236694962Y-145405708D01*
X236667309Y-145447095D01*
X236633095Y-145481309D01*
X236591708Y-145508962D01*
X236547012Y-145527476D01*
X236498989Y-145537029D01*
X236485978Y-145539617D01*
X236461788Y-145542000D01*
X234950000Y-145542000D01*
X234950000Y-145795995D01*
X234950000Y-157721787D01*
X234947617Y-157745980D01*
X234935476Y-157807012D01*
X234916962Y-157851708D01*
X234889309Y-157893095D01*
X234855095Y-157927309D01*
X234813708Y-157954962D01*
X234769012Y-157973476D01*
X234720989Y-157983029D01*
X234707978Y-157985617D01*
X234683788Y-157988000D01*
X221246212Y-157988000D01*
X221222021Y-157985617D01*
X221205690Y-157982368D01*
X221160987Y-157973476D01*
X221116291Y-157954962D01*
X221074904Y-157927309D01*
X221040691Y-157893096D01*
X221013037Y-157851708D01*
X220994523Y-157807010D01*
X220982383Y-157745978D01*
X220980000Y-157721787D01*
X220980000Y-156204005D01*
X224287924Y-156204005D01*
X224308190Y-156448591D01*
X224308192Y-156448603D01*
X224368443Y-156686526D01*
X224467035Y-156911295D01*
X224526569Y-157002417D01*
X225231646Y-156297340D01*
X225250884Y-156389915D01*
X225320442Y-156524156D01*
X225423638Y-156634652D01*
X225552819Y-156713209D01*
X225678569Y-156748442D01*
X224972695Y-157454316D01*
X225177048Y-157564908D01*
X225177053Y-157564910D01*
X225409186Y-157644601D01*
X225651282Y-157685000D01*
X225896718Y-157685000D01*
X226138813Y-157644601D01*
X226370946Y-157564910D01*
X226370960Y-157564903D01*
X226575303Y-157454317D01*
X226575303Y-157454316D01*
X225867330Y-156746343D01*
X225923783Y-156738584D01*
X226062458Y-156678349D01*
X226179739Y-156582934D01*
X226266928Y-156459415D01*
X226317559Y-156316953D01*
X226318737Y-156299724D01*
X227021429Y-157002417D01*
X227080966Y-156911291D01*
X227080967Y-156911289D01*
X227179556Y-156686526D01*
X227239807Y-156448603D01*
X227239809Y-156448591D01*
X227260076Y-156204005D01*
X229494858Y-156204005D01*
X229513394Y-156427703D01*
X229568499Y-156645311D01*
X229658670Y-156850881D01*
X229698141Y-156911295D01*
X229781446Y-157038802D01*
X229933478Y-157203953D01*
X229933481Y-157203955D01*
X229933484Y-157203958D01*
X230110611Y-157341822D01*
X230110617Y-157341826D01*
X230110620Y-157341828D01*
X230308039Y-157448666D01*
X230520350Y-157521553D01*
X230741763Y-157558500D01*
X230966237Y-157558500D01*
X231187650Y-157521553D01*
X231399961Y-157448666D01*
X231597380Y-157341828D01*
X231774522Y-157203953D01*
X231926554Y-157038802D01*
X232049330Y-156850880D01*
X232139500Y-156645313D01*
X232194605Y-156427707D01*
X232210003Y-156241886D01*
X232213142Y-156204005D01*
X232213142Y-156203994D01*
X232200784Y-156054862D01*
X232194605Y-155980293D01*
X232139500Y-155762687D01*
X232049330Y-155557120D01*
X232009859Y-155496706D01*
X231950324Y-155405581D01*
X231926554Y-155369198D01*
X231774522Y-155204047D01*
X231774517Y-155204043D01*
X231774515Y-155204041D01*
X231597388Y-155066177D01*
X231597382Y-155066173D01*
X231399962Y-154959334D01*
X231399953Y-154959331D01*
X231187652Y-154886447D01*
X230966237Y-154849500D01*
X230741763Y-154849500D01*
X230520347Y-154886447D01*
X230308046Y-154959331D01*
X230308037Y-154959334D01*
X230110617Y-155066173D01*
X230110611Y-155066177D01*
X229933484Y-155204041D01*
X229933481Y-155204044D01*
X229933478Y-155204046D01*
X229933478Y-155204047D01*
X229903302Y-155236827D01*
X229781447Y-155369196D01*
X229781444Y-155369200D01*
X229658670Y-155557118D01*
X229568499Y-155762688D01*
X229513394Y-155980296D01*
X229494858Y-156203994D01*
X229494858Y-156204005D01*
X227260076Y-156204005D01*
X227260076Y-156203994D01*
X227239809Y-155959408D01*
X227239807Y-155959396D01*
X227179556Y-155721473D01*
X227080964Y-155496704D01*
X227021429Y-155405581D01*
X226316353Y-156110658D01*
X226297116Y-156018085D01*
X226227558Y-155883844D01*
X226124362Y-155773348D01*
X225995181Y-155694791D01*
X225869430Y-155659557D01*
X226575303Y-154953682D01*
X226370951Y-154843091D01*
X226370946Y-154843089D01*
X226138813Y-154763398D01*
X225896718Y-154723000D01*
X225651282Y-154723000D01*
X225409186Y-154763398D01*
X225177053Y-154843089D01*
X225177043Y-154843094D01*
X224972695Y-154953681D01*
X224972695Y-154953682D01*
X225680669Y-155661656D01*
X225624217Y-155669416D01*
X225485542Y-155729651D01*
X225368261Y-155825066D01*
X225281072Y-155948585D01*
X225230441Y-156091047D01*
X225229262Y-156108274D01*
X224526569Y-155405581D01*
X224467034Y-155496706D01*
X224368443Y-155721473D01*
X224308192Y-155959396D01*
X224308190Y-155959408D01*
X224287924Y-156203994D01*
X224287924Y-156204005D01*
X220980000Y-156204005D01*
X220980000Y-148004005D01*
X224287924Y-148004005D01*
X224308190Y-148248591D01*
X224308192Y-148248603D01*
X224368443Y-148486526D01*
X224467035Y-148711295D01*
X224526569Y-148802417D01*
X225231646Y-148097340D01*
X225250884Y-148189915D01*
X225320442Y-148324156D01*
X225423638Y-148434652D01*
X225552819Y-148513209D01*
X225678569Y-148548442D01*
X224972695Y-149254316D01*
X225177048Y-149364908D01*
X225177053Y-149364910D01*
X225409186Y-149444601D01*
X225651282Y-149485000D01*
X225896718Y-149485000D01*
X226138813Y-149444601D01*
X226370946Y-149364910D01*
X226370960Y-149364903D01*
X226575303Y-149254317D01*
X226575303Y-149254316D01*
X225867330Y-148546343D01*
X225923783Y-148538584D01*
X226062458Y-148478349D01*
X226179739Y-148382934D01*
X226266928Y-148259415D01*
X226317559Y-148116953D01*
X226318737Y-148099724D01*
X227021429Y-148802417D01*
X227080966Y-148711291D01*
X227080967Y-148711289D01*
X227179556Y-148486526D01*
X227239807Y-148248603D01*
X227239809Y-148248591D01*
X227260076Y-148004005D01*
X229494858Y-148004005D01*
X229513394Y-148227703D01*
X229568499Y-148445311D01*
X229658670Y-148650881D01*
X229757674Y-148802417D01*
X229781446Y-148838802D01*
X229933478Y-149003953D01*
X229933481Y-149003955D01*
X229933484Y-149003958D01*
X230110611Y-149141822D01*
X230110617Y-149141826D01*
X230110620Y-149141828D01*
X230308039Y-149248666D01*
X230520350Y-149321553D01*
X230741763Y-149358500D01*
X230966237Y-149358500D01*
X231187650Y-149321553D01*
X231399961Y-149248666D01*
X231597380Y-149141828D01*
X231620209Y-149124060D01*
X231711058Y-149053349D01*
X231774522Y-149003953D01*
X231926554Y-148838802D01*
X232049330Y-148650880D01*
X232139500Y-148445313D01*
X232194605Y-148227707D01*
X232213142Y-148004000D01*
X232211976Y-147989934D01*
X232198849Y-147831516D01*
X232194605Y-147780293D01*
X232139500Y-147562687D01*
X232049330Y-147357120D01*
X232033581Y-147333015D01*
X231940420Y-147190422D01*
X231926554Y-147169198D01*
X231774522Y-147004047D01*
X231774517Y-147004043D01*
X231774515Y-147004041D01*
X231597388Y-146866177D01*
X231597382Y-146866173D01*
X231399962Y-146759334D01*
X231399953Y-146759331D01*
X231187652Y-146686447D01*
X230966237Y-146649500D01*
X230741763Y-146649500D01*
X230520347Y-146686447D01*
X230308046Y-146759331D01*
X230308037Y-146759334D01*
X230110617Y-146866173D01*
X230110611Y-146866177D01*
X229933484Y-147004041D01*
X229933481Y-147004044D01*
X229933478Y-147004046D01*
X229933478Y-147004047D01*
X229931327Y-147006384D01*
X229781447Y-147169196D01*
X229781444Y-147169200D01*
X229658670Y-147357118D01*
X229568499Y-147562688D01*
X229513394Y-147780296D01*
X229494858Y-148003994D01*
X229494858Y-148004005D01*
X227260076Y-148004005D01*
X227260076Y-148003994D01*
X227239809Y-147759408D01*
X227239807Y-147759396D01*
X227179556Y-147521473D01*
X227080964Y-147296704D01*
X227021429Y-147205581D01*
X226316353Y-147910658D01*
X226297116Y-147818085D01*
X226227558Y-147683844D01*
X226124362Y-147573348D01*
X225995181Y-147494791D01*
X225869430Y-147459557D01*
X226575303Y-146753682D01*
X226370951Y-146643091D01*
X226370946Y-146643089D01*
X226138813Y-146563398D01*
X225896718Y-146523000D01*
X225651282Y-146523000D01*
X225409186Y-146563398D01*
X225177053Y-146643089D01*
X225177043Y-146643094D01*
X224972695Y-146753681D01*
X224972695Y-146753682D01*
X225680669Y-147461656D01*
X225624217Y-147469416D01*
X225485542Y-147529651D01*
X225368261Y-147625066D01*
X225281072Y-147748585D01*
X225230441Y-147891047D01*
X225229262Y-147908274D01*
X224526569Y-147205581D01*
X224467034Y-147296706D01*
X224368443Y-147521473D01*
X224308192Y-147759396D01*
X224308190Y-147759408D01*
X224287924Y-148003994D01*
X224287924Y-148004005D01*
X220980000Y-148004005D01*
X220980000Y-143183500D01*
X221735001Y-143183500D01*
X221735001Y-143929724D01*
X221737815Y-143965495D01*
X221782292Y-144118588D01*
X221782292Y-144118589D01*
X221863450Y-144255817D01*
X221863454Y-144255823D01*
X221976176Y-144368545D01*
X221976182Y-144368549D01*
X222113411Y-144449707D01*
X222266500Y-144494184D01*
X222266506Y-144494185D01*
X222302273Y-144497000D01*
X222948499Y-144496999D01*
X222948500Y-144496998D01*
X222948500Y-143183500D01*
X223583500Y-143183500D01*
X223583500Y-144496999D01*
X224229724Y-144496999D01*
X224265495Y-144494184D01*
X224418588Y-144449707D01*
X224418589Y-144449707D01*
X224555817Y-144368549D01*
X224555823Y-144368545D01*
X224668545Y-144255823D01*
X224668549Y-144255817D01*
X224749707Y-144118589D01*
X224749707Y-144118588D01*
X224794184Y-143965499D01*
X224794185Y-143965493D01*
X224797000Y-143929727D01*
X224797000Y-143200000D01*
X226000000Y-143200000D01*
X227800000Y-145000000D01*
X230200000Y-145000000D01*
X232000000Y-143200000D01*
X232000000Y-141746500D01*
X232711001Y-141746500D01*
X232711001Y-141817724D01*
X232713815Y-141853495D01*
X232758292Y-142006588D01*
X232758292Y-142006589D01*
X232839450Y-142143817D01*
X232839454Y-142143823D01*
X232952176Y-142256545D01*
X232952182Y-142256549D01*
X233089411Y-142337707D01*
X233242500Y-142382184D01*
X233242506Y-142382185D01*
X233278273Y-142385000D01*
X234124499Y-142384999D01*
X234124500Y-142384998D01*
X234124500Y-141746500D01*
X234759500Y-141746500D01*
X234759500Y-142384999D01*
X235605724Y-142384999D01*
X235641495Y-142382184D01*
X235794588Y-142337707D01*
X235794589Y-142337707D01*
X235931817Y-142256549D01*
X235931823Y-142256545D01*
X236044545Y-142143823D01*
X236044549Y-142143817D01*
X236125707Y-142006589D01*
X236125707Y-142006588D01*
X236170184Y-141853499D01*
X236170185Y-141853493D01*
X236173000Y-141817727D01*
X236173000Y-141746500D01*
X234759500Y-141746500D01*
X234124500Y-141746500D01*
X232711001Y-141746500D01*
X232000000Y-141746500D01*
X232000000Y-141111500D01*
X232711000Y-141111500D01*
X234124500Y-141111500D01*
X234124500Y-140473000D01*
X234759500Y-140473000D01*
X234759500Y-141111500D01*
X236172999Y-141111500D01*
X236172999Y-141040276D01*
X236170184Y-141004504D01*
X236125707Y-140851411D01*
X236125707Y-140851410D01*
X236044549Y-140714182D01*
X236044545Y-140714176D01*
X235931823Y-140601454D01*
X235931817Y-140601450D01*
X235794588Y-140520292D01*
X235641499Y-140475815D01*
X235641493Y-140475814D01*
X235605727Y-140473000D01*
X234759500Y-140473000D01*
X234124500Y-140473000D01*
X234124499Y-140473000D01*
X233278276Y-140473001D01*
X233242504Y-140475815D01*
X233089411Y-140520292D01*
X233089410Y-140520292D01*
X232952182Y-140601450D01*
X232952176Y-140601454D01*
X232839454Y-140714176D01*
X232839450Y-140714182D01*
X232758292Y-140851410D01*
X232758292Y-140851411D01*
X232713815Y-141004500D01*
X232713814Y-141004506D01*
X232711000Y-141040273D01*
X232711000Y-141111500D01*
X232000000Y-141111500D01*
X232000000Y-140700000D01*
X230300000Y-139000000D01*
X227800000Y-139000000D01*
X226000000Y-140700000D01*
X226000000Y-143200000D01*
X224797000Y-143200000D01*
X224797000Y-143183500D01*
X223583500Y-143183500D01*
X222948500Y-143183500D01*
X221735001Y-143183500D01*
X220980000Y-143183500D01*
X220980000Y-142548500D01*
X221735000Y-142548500D01*
X222948500Y-142548500D01*
X222948500Y-141235000D01*
X223583500Y-141235000D01*
X223583500Y-142548500D01*
X224796999Y-142548500D01*
X224796999Y-141802276D01*
X224794184Y-141766504D01*
X224749707Y-141613411D01*
X224749707Y-141613410D01*
X224668549Y-141476182D01*
X224668545Y-141476176D01*
X224555823Y-141363454D01*
X224555817Y-141363450D01*
X224418588Y-141282292D01*
X224265499Y-141237815D01*
X224265493Y-141237814D01*
X224229727Y-141235000D01*
X223583500Y-141235000D01*
X222948500Y-141235000D01*
X222948499Y-141235000D01*
X222302276Y-141235001D01*
X222266504Y-141237815D01*
X222113411Y-141282292D01*
X222113410Y-141282292D01*
X221976182Y-141363450D01*
X221976176Y-141363454D01*
X221863454Y-141476176D01*
X221863450Y-141476182D01*
X221782292Y-141613410D01*
X221782292Y-141613411D01*
X221737815Y-141766500D01*
X221737814Y-141766506D01*
X221735000Y-141802273D01*
X221735000Y-142548500D01*
X220980000Y-142548500D01*
X220980000Y-136652000D01*
X221838246Y-136652000D01*
X221857591Y-136811323D01*
X221857592Y-136811328D01*
X221914504Y-136961391D01*
X221995254Y-137078378D01*
X222017137Y-137144733D01*
X221999672Y-137212384D01*
X221992472Y-137223127D01*
X221920458Y-137319328D01*
X221918658Y-137321733D01*
X221867960Y-137457658D01*
X221867959Y-137457662D01*
X221861500Y-137517728D01*
X221861500Y-139614251D01*
X221861501Y-139614257D01*
X221867960Y-139674344D01*
X221918655Y-139810261D01*
X221918656Y-139810264D01*
X221918658Y-139810267D01*
X221940548Y-139839509D01*
X222005595Y-139926404D01*
X222063443Y-139969707D01*
X222121733Y-140013342D01*
X222257658Y-140064040D01*
X222317745Y-140070500D01*
X224214254Y-140070499D01*
X224274342Y-140064040D01*
X224410267Y-140013342D01*
X224526404Y-139926404D01*
X224613342Y-139810267D01*
X224664040Y-139674342D01*
X224666800Y-139648664D01*
X224670499Y-139614271D01*
X224670499Y-139614264D01*
X224670500Y-139614255D01*
X224670500Y-138852251D01*
X232837500Y-138852251D01*
X232837501Y-138852257D01*
X232843960Y-138912344D01*
X232894655Y-139048261D01*
X232894656Y-139048264D01*
X232894658Y-139048267D01*
X232902936Y-139059325D01*
X232981595Y-139164404D01*
X233039443Y-139207707D01*
X233097733Y-139251342D01*
X233233658Y-139302040D01*
X233293745Y-139308500D01*
X235590254Y-139308499D01*
X235650342Y-139302040D01*
X235786267Y-139251342D01*
X235902404Y-139164404D01*
X235989342Y-139048267D01*
X236040040Y-138912342D01*
X236042800Y-138886664D01*
X236046499Y-138852271D01*
X236046499Y-138852264D01*
X236046500Y-138852255D01*
X236046499Y-138105746D01*
X236040040Y-138045658D01*
X235989342Y-137909733D01*
X235929186Y-137829373D01*
X235902404Y-137793595D01*
X235779168Y-137701344D01*
X235781311Y-137698480D01*
X235743957Y-137661079D01*
X235729147Y-137592797D01*
X235750777Y-137531280D01*
X235793496Y-137469391D01*
X235850408Y-137319325D01*
X235869754Y-137160000D01*
X235850408Y-137000675D01*
X235850407Y-137000673D01*
X235850407Y-137000671D01*
X235824546Y-136932482D01*
X235793496Y-136850609D01*
X235702324Y-136718523D01*
X235582191Y-136612095D01*
X235440080Y-136537509D01*
X235440079Y-136537508D01*
X235440076Y-136537507D01*
X235284248Y-136499100D01*
X235123752Y-136499100D01*
X235036065Y-136520713D01*
X235035318Y-136520897D01*
X235005643Y-136524500D01*
X234513794Y-136524500D01*
X234490561Y-136522304D01*
X234482221Y-136520713D01*
X234482219Y-136520713D01*
X234473179Y-136521281D01*
X234423957Y-136524378D01*
X234420085Y-136524500D01*
X233878357Y-136524500D01*
X233848682Y-136520897D01*
X233847935Y-136520713D01*
X233760248Y-136499100D01*
X233599752Y-136499100D01*
X233443923Y-136537507D01*
X233301809Y-136612095D01*
X233181675Y-136718523D01*
X233090505Y-136850607D01*
X233090504Y-136850608D01*
X233033592Y-137000671D01*
X233033591Y-137000676D01*
X233014246Y-137160000D01*
X233033591Y-137319323D01*
X233033592Y-137319328D01*
X233086053Y-137457655D01*
X233090504Y-137469391D01*
X233133222Y-137531279D01*
X233133223Y-137531280D01*
X233155106Y-137597634D01*
X233137641Y-137665286D01*
X233102898Y-137698760D01*
X233104832Y-137701344D01*
X232981595Y-137793595D01*
X232894660Y-137909730D01*
X232894658Y-137909733D01*
X232843960Y-138045658D01*
X232843959Y-138045662D01*
X232837500Y-138105728D01*
X232837500Y-138852251D01*
X224670500Y-138852251D01*
X224670499Y-137517746D01*
X224664040Y-137457658D01*
X224613342Y-137321733D01*
X224539527Y-137223127D01*
X224515111Y-137157663D01*
X224529963Y-137089391D01*
X224536736Y-137078392D01*
X224617496Y-136961391D01*
X224674408Y-136811325D01*
X224693754Y-136652000D01*
X224674408Y-136492675D01*
X224674407Y-136492673D01*
X224674407Y-136492671D01*
X224638503Y-136398000D01*
X224617496Y-136342609D01*
X224526324Y-136210523D01*
X224406191Y-136104095D01*
X224264080Y-136029509D01*
X224264079Y-136029508D01*
X224264076Y-136029507D01*
X224108248Y-135991100D01*
X223947752Y-135991100D01*
X223860065Y-136012713D01*
X223859318Y-136012897D01*
X223829643Y-136016500D01*
X223337794Y-136016500D01*
X223314561Y-136014304D01*
X223306221Y-136012713D01*
X223306219Y-136012713D01*
X223297179Y-136013281D01*
X223247957Y-136016378D01*
X223244085Y-136016500D01*
X222702357Y-136016500D01*
X222672682Y-136012897D01*
X222671935Y-136012713D01*
X222584248Y-135991100D01*
X222423752Y-135991100D01*
X222267923Y-136029507D01*
X222125809Y-136104095D01*
X222005675Y-136210523D01*
X221914505Y-136342607D01*
X221914504Y-136342608D01*
X221857592Y-136492671D01*
X221857591Y-136492676D01*
X221838246Y-136652000D01*
X220980000Y-136652000D01*
X220980000Y-103805000D01*
X223264357Y-103805000D01*
X223308798Y-103917697D01*
X223396996Y-104034003D01*
X223513302Y-104122201D01*
X223649098Y-104175752D01*
X223734430Y-104185999D01*
X224300999Y-104185999D01*
X224301000Y-104185998D01*
X224301000Y-103805000D01*
X224901000Y-103805000D01*
X224901000Y-104185999D01*
X225467562Y-104185999D01*
X225552902Y-104175752D01*
X225688697Y-104122201D01*
X225805003Y-104034003D01*
X225893201Y-103917697D01*
X225937643Y-103805000D01*
X224901000Y-103805000D01*
X224301000Y-103805000D01*
X223264357Y-103805000D01*
X220980000Y-103805000D01*
X220980000Y-102535000D01*
X223264357Y-102535000D01*
X223308798Y-102647697D01*
X223396996Y-102764004D01*
X223406481Y-102771197D01*
X223448004Y-102827390D01*
X223452555Y-102897111D01*
X223418689Y-102958225D01*
X223406481Y-102968803D01*
X223396996Y-102975995D01*
X223308798Y-103092302D01*
X223264357Y-103205000D01*
X224301000Y-103205000D01*
X224301000Y-102535000D01*
X224901000Y-102535000D01*
X224901000Y-103205000D01*
X225937643Y-103205000D01*
X225893201Y-103092302D01*
X225805004Y-102975997D01*
X225795520Y-102968805D01*
X225753996Y-102912613D01*
X225749443Y-102842892D01*
X225783307Y-102781778D01*
X225795520Y-102771195D01*
X225805004Y-102764002D01*
X225893201Y-102647697D01*
X225937643Y-102535000D01*
X224901000Y-102535000D01*
X224301000Y-102535000D01*
X223264357Y-102535000D01*
X220980000Y-102535000D01*
X220980000Y-101265000D01*
X223264357Y-101265000D01*
X223308798Y-101377697D01*
X223396996Y-101494004D01*
X223406481Y-101501197D01*
X223448004Y-101557390D01*
X223452555Y-101627111D01*
X223418689Y-101688225D01*
X223406481Y-101698803D01*
X223396996Y-101705995D01*
X223308798Y-101822302D01*
X223264357Y-101935000D01*
X224301000Y-101935000D01*
X224301000Y-101265000D01*
X224901000Y-101265000D01*
X224901000Y-101935000D01*
X225937643Y-101935000D01*
X225893201Y-101822302D01*
X225805004Y-101705997D01*
X225795520Y-101698805D01*
X225753996Y-101642613D01*
X225749443Y-101572892D01*
X225783307Y-101511778D01*
X225795520Y-101501195D01*
X225805004Y-101494002D01*
X225893201Y-101377697D01*
X225937643Y-101265000D01*
X224901000Y-101265000D01*
X224301000Y-101265000D01*
X223264357Y-101265000D01*
X220980000Y-101265000D01*
X220980000Y-99995000D01*
X223264357Y-99995000D01*
X223308798Y-100107697D01*
X223396996Y-100224004D01*
X223406481Y-100231197D01*
X223448004Y-100287390D01*
X223452555Y-100357111D01*
X223418689Y-100418225D01*
X223406481Y-100428803D01*
X223396996Y-100435995D01*
X223308798Y-100552302D01*
X223264357Y-100665000D01*
X224301000Y-100665000D01*
X224301000Y-99995000D01*
X224901000Y-99995000D01*
X224901000Y-100665000D01*
X225937643Y-100665000D01*
X225893201Y-100552302D01*
X225805004Y-100435997D01*
X225795520Y-100428805D01*
X225753996Y-100372613D01*
X225749443Y-100302892D01*
X225783307Y-100241778D01*
X225795520Y-100231195D01*
X225805004Y-100224002D01*
X225893201Y-100107697D01*
X225937643Y-99995000D01*
X224901000Y-99995000D01*
X224301000Y-99995000D01*
X223264357Y-99995000D01*
X220980000Y-99995000D01*
X220980000Y-99395000D01*
X223264357Y-99395000D01*
X224301000Y-99395000D01*
X224301000Y-99014000D01*
X224901000Y-99014000D01*
X224901000Y-99395000D01*
X225937643Y-99395000D01*
X225893201Y-99282302D01*
X225805003Y-99165996D01*
X225688697Y-99077798D01*
X225552901Y-99024247D01*
X225467570Y-99014000D01*
X224901000Y-99014000D01*
X224301000Y-99014000D01*
X223734438Y-99014000D01*
X223649097Y-99024247D01*
X223513302Y-99077798D01*
X223396996Y-99165996D01*
X223308798Y-99282302D01*
X223264357Y-99395000D01*
X220980000Y-99395000D01*
X220980000Y-98945212D01*
X220982383Y-98921021D01*
X220994523Y-98859989D01*
X221013037Y-98815291D01*
X221040693Y-98773900D01*
X221074900Y-98739693D01*
X221116292Y-98712036D01*
X221160989Y-98693523D01*
X221222021Y-98681383D01*
X221246212Y-98679000D01*
X226301788Y-98679000D01*
X226325980Y-98681383D01*
G37*
%TD.AperFunction*%
%TA.AperFunction,Conductor*%
G36*
X313133203Y-102833419D02*
G01*
X313167012Y-102886028D01*
X313168332Y-102885508D01*
X313170958Y-102892167D01*
X313170977Y-102892197D01*
X313170993Y-102892256D01*
X313224798Y-103028697D01*
X313312996Y-103145004D01*
X313322481Y-103152197D01*
X313364004Y-103208390D01*
X313368555Y-103278111D01*
X313334689Y-103339225D01*
X313322481Y-103349803D01*
X313312996Y-103356995D01*
X313224798Y-103473302D01*
X313168332Y-103616492D01*
X313166105Y-103615613D01*
X313136705Y-103665427D01*
X313074298Y-103696846D01*
X313004811Y-103689537D01*
X312950307Y-103645822D01*
X312928090Y-103579578D01*
X312928000Y-103574867D01*
X312928000Y-102927132D01*
X312947685Y-102860093D01*
X313000489Y-102814338D01*
X313069647Y-102804394D01*
X313133203Y-102833419D01*
G37*
%TD.AperFunction*%
%TA.AperFunction,Conductor*%
G36*
X313133203Y-101563419D02*
G01*
X313167012Y-101616028D01*
X313168332Y-101615508D01*
X313170958Y-101622167D01*
X313170977Y-101622197D01*
X313170993Y-101622256D01*
X313224798Y-101758697D01*
X313312996Y-101875004D01*
X313322481Y-101882197D01*
X313364004Y-101938390D01*
X313368555Y-102008111D01*
X313334689Y-102069225D01*
X313322481Y-102079803D01*
X313312996Y-102086995D01*
X313224798Y-102203302D01*
X313168332Y-102346492D01*
X313166105Y-102345613D01*
X313136705Y-102395427D01*
X313074298Y-102426846D01*
X313004811Y-102419537D01*
X312950307Y-102375822D01*
X312928090Y-102309578D01*
X312928000Y-102304867D01*
X312928000Y-101657132D01*
X312947685Y-101590093D01*
X313000489Y-101544338D01*
X313069647Y-101534394D01*
X313133203Y-101563419D01*
G37*
%TD.AperFunction*%
%TD*%
%TA.AperFunction,Conductor*%
%TO.N,/Power Supply/V_IN*%
G36*
X249185979Y-92458383D02*
G01*
X249213891Y-92463935D01*
X249275802Y-92496320D01*
X249310376Y-92557035D01*
X249313700Y-92585552D01*
X249313700Y-98488500D01*
X249428000Y-98488500D01*
X249428000Y-99123500D01*
X249313700Y-99123500D01*
X249313700Y-105065152D01*
X249324490Y-105139216D01*
X249380336Y-105253450D01*
X249391679Y-105264793D01*
X249425166Y-105326116D01*
X249428000Y-105352477D01*
X249428000Y-112509787D01*
X249425617Y-112533980D01*
X249413476Y-112595012D01*
X249394962Y-112639708D01*
X249367309Y-112681095D01*
X249333095Y-112715309D01*
X249291708Y-112742962D01*
X249247012Y-112761476D01*
X249198989Y-112771029D01*
X249185978Y-112773617D01*
X249161788Y-112776000D01*
X236815893Y-112776000D01*
X236797362Y-112774607D01*
X236778913Y-112771818D01*
X236750043Y-112767455D01*
X236714635Y-112756501D01*
X236671539Y-112735681D01*
X236655458Y-112726366D01*
X236374278Y-112533980D01*
X233700503Y-110704554D01*
X227199048Y-106256190D01*
X227176509Y-106236367D01*
X227125761Y-106179438D01*
X227097960Y-106126729D01*
X227079632Y-106052698D01*
X227076000Y-106022904D01*
X227076000Y-104749829D01*
X240173000Y-104749829D01*
X240183790Y-104823893D01*
X240239637Y-104938130D01*
X240329546Y-105028039D01*
X240443783Y-105083886D01*
X240517847Y-105094677D01*
X241236500Y-105094677D01*
X241236500Y-104100156D01*
X241280900Y-104138629D01*
X241411685Y-104198357D01*
X241518237Y-104213677D01*
X241589763Y-104213677D01*
X241696315Y-104198357D01*
X241827100Y-104138629D01*
X241871500Y-104100156D01*
X241871500Y-105094677D01*
X242590153Y-105094677D01*
X242664216Y-105083886D01*
X242778453Y-105028039D01*
X242868362Y-104938130D01*
X242924209Y-104823893D01*
X242935000Y-104749829D01*
X242935000Y-104031177D01*
X241944307Y-104031177D01*
X242013493Y-103923521D01*
X242054000Y-103785566D01*
X242054000Y-103641788D01*
X242013493Y-103503833D01*
X241944307Y-103396177D01*
X242935000Y-103396177D01*
X242935000Y-102677524D01*
X242924209Y-102603460D01*
X242868362Y-102489223D01*
X242778453Y-102399314D01*
X242664216Y-102343467D01*
X242590153Y-102332677D01*
X241871500Y-102332677D01*
X241871500Y-103327197D01*
X241827100Y-103288725D01*
X241696315Y-103228997D01*
X241589763Y-103213677D01*
X241518237Y-103213677D01*
X241411685Y-103228997D01*
X241280900Y-103288725D01*
X241236500Y-103327197D01*
X241236500Y-102332677D01*
X240517847Y-102332677D01*
X240443783Y-102343467D01*
X240329546Y-102399314D01*
X240239637Y-102489223D01*
X240183790Y-102603460D01*
X240173000Y-102677524D01*
X240173000Y-103396177D01*
X241163693Y-103396177D01*
X241094507Y-103503833D01*
X241054000Y-103641788D01*
X241054000Y-103785566D01*
X241094507Y-103923521D01*
X241163693Y-104031177D01*
X240173000Y-104031177D01*
X240173000Y-104749829D01*
X227076000Y-104749829D01*
X227076000Y-103805000D01*
X228214357Y-103805000D01*
X228258798Y-103917697D01*
X228346996Y-104034003D01*
X228463302Y-104122201D01*
X228599098Y-104175752D01*
X228684430Y-104185999D01*
X229250999Y-104185999D01*
X229251000Y-104185998D01*
X229251000Y-103805000D01*
X229851000Y-103805000D01*
X229851000Y-104185999D01*
X230417562Y-104185999D01*
X230502902Y-104175752D01*
X230638697Y-104122201D01*
X230755003Y-104034003D01*
X230843201Y-103917697D01*
X230887643Y-103805000D01*
X229851000Y-103805000D01*
X229251000Y-103805000D01*
X228214357Y-103805000D01*
X227076000Y-103805000D01*
X227076000Y-102535000D01*
X228214357Y-102535000D01*
X228258798Y-102647697D01*
X228346996Y-102764004D01*
X228356481Y-102771197D01*
X228398004Y-102827390D01*
X228402555Y-102897111D01*
X228368689Y-102958225D01*
X228356481Y-102968803D01*
X228346996Y-102975995D01*
X228258798Y-103092302D01*
X228214357Y-103205000D01*
X229251000Y-103205000D01*
X229251000Y-102535000D01*
X229851000Y-102535000D01*
X229851000Y-103205000D01*
X230887643Y-103205000D01*
X230843201Y-103092302D01*
X230755004Y-102975997D01*
X230745520Y-102968805D01*
X230703996Y-102912613D01*
X230699443Y-102842892D01*
X230733307Y-102781778D01*
X230745520Y-102771195D01*
X230755004Y-102764002D01*
X230843201Y-102647697D01*
X230887643Y-102535000D01*
X229851000Y-102535000D01*
X229251000Y-102535000D01*
X228214357Y-102535000D01*
X227076000Y-102535000D01*
X227076000Y-101265000D01*
X228214357Y-101265000D01*
X228258798Y-101377697D01*
X228346996Y-101494004D01*
X228356481Y-101501197D01*
X228398004Y-101557390D01*
X228402555Y-101627111D01*
X228368689Y-101688225D01*
X228356481Y-101698803D01*
X228346996Y-101705995D01*
X228258798Y-101822302D01*
X228214357Y-101935000D01*
X229251000Y-101935000D01*
X229251000Y-101265000D01*
X229851000Y-101265000D01*
X229851000Y-101935000D01*
X230887643Y-101935000D01*
X230843201Y-101822302D01*
X230755004Y-101705997D01*
X230745520Y-101698805D01*
X230703996Y-101642613D01*
X230699443Y-101572892D01*
X230733307Y-101511778D01*
X230745520Y-101501195D01*
X230755004Y-101494002D01*
X230843201Y-101377697D01*
X230887643Y-101265000D01*
X229851000Y-101265000D01*
X229251000Y-101265000D01*
X228214357Y-101265000D01*
X227076000Y-101265000D01*
X227076000Y-98183212D01*
X227078383Y-98159021D01*
X227090523Y-98097989D01*
X227109037Y-98053291D01*
X227136693Y-98011900D01*
X227170900Y-97977693D01*
X227212292Y-97950036D01*
X227256946Y-97931531D01*
X227258811Y-97931160D01*
X227328400Y-97937366D01*
X227383591Y-97980211D01*
X227405652Y-98034288D01*
X227407967Y-98049646D01*
X227410440Y-98057666D01*
X227413226Y-98065626D01*
X227413228Y-98065634D01*
X227424305Y-98086593D01*
X227440678Y-98117574D01*
X227466172Y-98170511D01*
X227470917Y-98177471D01*
X227475911Y-98184237D01*
X227517458Y-98225783D01*
X227557413Y-98268844D01*
X227564681Y-98274640D01*
X227564150Y-98275305D01*
X227576307Y-98284632D01*
X227884204Y-98592529D01*
X227888840Y-98597716D01*
X227912905Y-98627892D01*
X227961431Y-98660976D01*
X228008716Y-98695875D01*
X228008718Y-98695876D01*
X228016135Y-98699796D01*
X228023738Y-98703457D01*
X228023741Y-98703459D01*
X228079882Y-98720776D01*
X228135335Y-98740180D01*
X228135337Y-98740180D01*
X228143652Y-98741753D01*
X228151924Y-98743000D01*
X228151927Y-98743000D01*
X228210699Y-98743000D01*
X228269386Y-98745196D01*
X228278621Y-98744156D01*
X228278716Y-98745000D01*
X228293908Y-98743000D01*
X228982000Y-98743000D01*
X229049039Y-98762685D01*
X229094794Y-98815489D01*
X229106000Y-98867000D01*
X229106000Y-99016500D01*
X229086315Y-99083539D01*
X229033511Y-99129294D01*
X228982000Y-99140500D01*
X228694161Y-99140500D01*
X228599447Y-99155500D01*
X228523333Y-99194283D01*
X228485277Y-99213674D01*
X228485276Y-99213675D01*
X228485271Y-99213678D01*
X228394678Y-99304271D01*
X228394675Y-99304276D01*
X228336500Y-99418447D01*
X228321500Y-99513160D01*
X228321500Y-99876839D01*
X228336500Y-99971552D01*
X228336502Y-99971555D01*
X228394674Y-100085723D01*
X228394676Y-100085725D01*
X228394678Y-100085728D01*
X228472762Y-100163812D01*
X228506247Y-100225135D01*
X228501263Y-100294827D01*
X228460007Y-100350296D01*
X228346996Y-100435995D01*
X228258798Y-100552302D01*
X228214357Y-100665000D01*
X230887643Y-100665000D01*
X230843201Y-100552302D01*
X230755003Y-100435996D01*
X230641993Y-100350297D01*
X230600469Y-100294104D01*
X230595918Y-100224383D01*
X230629235Y-100163813D01*
X230707326Y-100085723D01*
X230765498Y-99971555D01*
X230765498Y-99971553D01*
X230765499Y-99971552D01*
X230780500Y-99876839D01*
X230780500Y-99513160D01*
X230765499Y-99418447D01*
X230765498Y-99418445D01*
X230707326Y-99304277D01*
X230707322Y-99304273D01*
X230707321Y-99304271D01*
X230616728Y-99213678D01*
X230616725Y-99213676D01*
X230616723Y-99213674D01*
X230502555Y-99155502D01*
X230502554Y-99155501D01*
X230502551Y-99155500D01*
X230502552Y-99155500D01*
X230407839Y-99140500D01*
X230407834Y-99140500D01*
X230120000Y-99140500D01*
X230052961Y-99120815D01*
X230007206Y-99068011D01*
X229996000Y-99016500D01*
X229996000Y-98867000D01*
X230015685Y-98799961D01*
X230068489Y-98754206D01*
X230120000Y-98743000D01*
X230821889Y-98743000D01*
X230849482Y-98746108D01*
X230852370Y-98746768D01*
X230900350Y-98743172D01*
X230904967Y-98743000D01*
X230919340Y-98743000D01*
X230919346Y-98743000D01*
X230933581Y-98740854D01*
X230938147Y-98740339D01*
X230986140Y-98736743D01*
X230988892Y-98735662D01*
X231015718Y-98728474D01*
X231018647Y-98728033D01*
X231061989Y-98707159D01*
X231066234Y-98705307D01*
X231111013Y-98687734D01*
X231113320Y-98685893D01*
X231136845Y-98671111D01*
X231139509Y-98669829D01*
X231174783Y-98637097D01*
X231178271Y-98634095D01*
X231215892Y-98604095D01*
X231217556Y-98601653D01*
X231235678Y-98580595D01*
X231237844Y-98578587D01*
X231261900Y-98536918D01*
X231264357Y-98533008D01*
X231291459Y-98493259D01*
X231292331Y-98490431D01*
X231303438Y-98464974D01*
X231304917Y-98462413D01*
X231315622Y-98415508D01*
X231316814Y-98411058D01*
X231331000Y-98365073D01*
X231331000Y-98362111D01*
X231334109Y-98334517D01*
X231334768Y-98331629D01*
X231334391Y-98326603D01*
X231331172Y-98283650D01*
X231331000Y-98279032D01*
X231331000Y-98041000D01*
X231350685Y-97973961D01*
X231403489Y-97928206D01*
X231455000Y-97917000D01*
X240346668Y-97917000D01*
X240413707Y-97936685D01*
X240459462Y-97989489D01*
X240469406Y-98058647D01*
X240459050Y-98093404D01*
X240370655Y-98282968D01*
X240370653Y-98282972D01*
X240370653Y-98282974D01*
X240356842Y-98334517D01*
X240313839Y-98495001D01*
X240313838Y-98495008D01*
X240294708Y-98713674D01*
X240294708Y-98713679D01*
X240308121Y-98867000D01*
X240313839Y-98932351D01*
X240370653Y-99144380D01*
X240370654Y-99144383D01*
X240370655Y-99144385D01*
X240463419Y-99343319D01*
X240463423Y-99343327D01*
X240589322Y-99523129D01*
X240589327Y-99523135D01*
X240744541Y-99678349D01*
X240744547Y-99678354D01*
X240924349Y-99804253D01*
X240924351Y-99804254D01*
X240924354Y-99804256D01*
X241123297Y-99897024D01*
X241335326Y-99953838D01*
X241491521Y-99967503D01*
X241553998Y-99972969D01*
X241554000Y-99972969D01*
X241554002Y-99972969D01*
X241608668Y-99968186D01*
X241772674Y-99953838D01*
X241984703Y-99897024D01*
X242183646Y-99804256D01*
X242363457Y-99678351D01*
X242518674Y-99523134D01*
X242644579Y-99343323D01*
X242737347Y-99144380D01*
X242794161Y-98932351D01*
X242810973Y-98740180D01*
X242813292Y-98713679D01*
X242813292Y-98713674D01*
X242801473Y-98578585D01*
X242794161Y-98495003D01*
X242737347Y-98282974D01*
X242644579Y-98084031D01*
X242644577Y-98084028D01*
X242644576Y-98084026D01*
X242518677Y-97904224D01*
X242518672Y-97904218D01*
X242363458Y-97749004D01*
X242363452Y-97748999D01*
X242183650Y-97623100D01*
X242136606Y-97601163D01*
X242084167Y-97554990D01*
X242065016Y-97487796D01*
X242080734Y-97428351D01*
X244777967Y-92595806D01*
X244790287Y-92577703D01*
X244825930Y-92534166D01*
X244859088Y-92505792D01*
X244897972Y-92482964D01*
X244938914Y-92467838D01*
X244966119Y-92462973D01*
X244994294Y-92457936D01*
X245016120Y-92456000D01*
X249161788Y-92456000D01*
X249185979Y-92458383D01*
G37*
%TD.AperFunction*%
%TD*%
M02*
