%TF.GenerationSoftware,KiCad,Pcbnew,7.0.10-7.0.10~ubuntu22.04.1*%
%TF.CreationDate,2024-01-21T09:44:26-08:00*%
%TF.ProjectId,PowerDistribution,506f7765-7244-4697-9374-726962757469,R1*%
%TF.SameCoordinates,Original*%
%TF.FileFunction,Soldermask,Top*%
%TF.FilePolarity,Negative*%
%FSLAX46Y46*%
G04 Gerber Fmt 4.6, Leading zero omitted, Abs format (unit mm)*
G04 Created by KiCad (PCBNEW 7.0.10-7.0.10~ubuntu22.04.1) date 2024-01-21 09:44:26*
%MOMM*%
%LPD*%
G01*
G04 APERTURE LIST*
G04 Aperture macros list*
%AMRoundRect*
0 Rectangle with rounded corners*
0 $1 Rounding radius*
0 $2 $3 $4 $5 $6 $7 $8 $9 X,Y pos of 4 corners*
0 Add a 4 corners polygon primitive as box body*
4,1,4,$2,$3,$4,$5,$6,$7,$8,$9,$2,$3,0*
0 Add four circle primitives for the rounded corners*
1,1,$1+$1,$2,$3*
1,1,$1+$1,$4,$5*
1,1,$1+$1,$6,$7*
1,1,$1+$1,$8,$9*
0 Add four rect primitives between the rounded corners*
20,1,$1+$1,$2,$3,$4,$5,0*
20,1,$1+$1,$4,$5,$6,$7,0*
20,1,$1+$1,$6,$7,$8,$9,0*
20,1,$1+$1,$8,$9,$2,$3,0*%
G04 Aperture macros list end*
%ADD10RoundRect,0.250001X0.462499X0.624999X-0.462499X0.624999X-0.462499X-0.624999X0.462499X-0.624999X0*%
%ADD11C,3.175000*%
%ADD12C,3.204000*%
%ADD13C,2.500000*%
%ADD14C,4.000000*%
G04 APERTURE END LIST*
D10*
%TO.C,R1*%
X204707500Y-73290000D03*
X201732500Y-73290000D03*
%TD*%
%TO.C,R2*%
X204707500Y-83290000D03*
X201732500Y-83290000D03*
%TD*%
%TO.C,R5*%
X204730000Y-113290000D03*
X201755000Y-113290000D03*
%TD*%
D11*
%TO.C,H5*%
X147780000Y-66755000D03*
%TD*%
D10*
%TO.C,D2*%
X204667500Y-88290000D03*
X201692500Y-88290000D03*
%TD*%
%TO.C,D4*%
X204707500Y-108290000D03*
X201732500Y-108290000D03*
%TD*%
D12*
%TO.C,F1*%
X175429001Y-122465899D03*
X175429001Y-119065899D03*
X165509001Y-122465899D03*
X165509001Y-119065899D03*
%TD*%
D10*
%TO.C,R3*%
X204707500Y-93290000D03*
X201732500Y-93290000D03*
%TD*%
D11*
%TO.C,H1*%
X201470000Y-129455000D03*
%TD*%
D10*
%TO.C,D1*%
X204667500Y-78290000D03*
X201692500Y-78290000D03*
%TD*%
D12*
%TO.C,F2*%
X175419001Y-112505899D03*
X175419001Y-109105899D03*
X165499001Y-112505899D03*
X165499001Y-109105899D03*
%TD*%
D13*
%TO.C,J2*%
X182149002Y-120765902D03*
X190349001Y-120765902D03*
X182149002Y-115765900D03*
X190349001Y-115765900D03*
X182149002Y-110765899D03*
X190349001Y-110765899D03*
X182149002Y-105765899D03*
X190349001Y-105765899D03*
X182149002Y-100765899D03*
X190349001Y-100765899D03*
X182149002Y-95765899D03*
X190349001Y-95765899D03*
X182149002Y-90765899D03*
X190349001Y-90765899D03*
X182149002Y-85765899D03*
X190349001Y-85765899D03*
X182149002Y-80765899D03*
X190349001Y-80765899D03*
X182149002Y-75765898D03*
X190349001Y-75765898D03*
%TD*%
D10*
%TO.C,D5*%
X204727500Y-118290000D03*
X201752500Y-118290000D03*
%TD*%
%TO.C,D3*%
X204707500Y-98290000D03*
X201732500Y-98290000D03*
%TD*%
D12*
%TO.C,F5*%
X175379001Y-82485899D03*
X175379001Y-79085899D03*
X165459001Y-82485899D03*
X165459001Y-79085899D03*
%TD*%
%TO.C,F3*%
X175349001Y-102445899D03*
X175349001Y-99045899D03*
X165429001Y-102445899D03*
X165429001Y-99045899D03*
%TD*%
D10*
%TO.C,R4*%
X204730000Y-103290000D03*
X201755000Y-103290000D03*
%TD*%
D11*
%TO.C,H6*%
X147780000Y-129455000D03*
%TD*%
%TO.C,H2*%
X201470000Y-66755000D03*
%TD*%
D12*
%TO.C,F4*%
X175419001Y-92455899D03*
X175419001Y-89055899D03*
X165499001Y-92455899D03*
X165499001Y-89055899D03*
%TD*%
D14*
%TO.C,J1*%
X150435000Y-89858000D03*
X150435000Y-102358000D03*
X157935000Y-89858000D03*
X157935000Y-102358000D03*
%TD*%
M02*
