%TF.GenerationSoftware,KiCad,Pcbnew,7.0.10-7.0.10~ubuntu22.04.1*%
%TF.CreationDate,2024-01-21T09:44:27-08:00*%
%TF.ProjectId,PowerDistribution,506f7765-7244-4697-9374-726962757469,R1*%
%TF.SameCoordinates,Original*%
%TF.FileFunction,Legend,Bot*%
%TF.FilePolarity,Positive*%
%FSLAX46Y46*%
G04 Gerber Fmt 4.6, Leading zero omitted, Abs format (unit mm)*
G04 Created by KiCad (PCBNEW 7.0.10-7.0.10~ubuntu22.04.1) date 2024-01-21 09:44:27*
%MOMM*%
%LPD*%
G01*
G04 APERTURE LIST*
%ADD10C,0.300000*%
%ADD11C,0.152400*%
G04 APERTURE END LIST*
D10*
X154491427Y-118959757D02*
X154634285Y-118888328D01*
X154634285Y-118888328D02*
X154848570Y-118888328D01*
X154848570Y-118888328D02*
X155062856Y-118959757D01*
X155062856Y-118959757D02*
X155205713Y-119102614D01*
X155205713Y-119102614D02*
X155277142Y-119245471D01*
X155277142Y-119245471D02*
X155348570Y-119531185D01*
X155348570Y-119531185D02*
X155348570Y-119745471D01*
X155348570Y-119745471D02*
X155277142Y-120031185D01*
X155277142Y-120031185D02*
X155205713Y-120174042D01*
X155205713Y-120174042D02*
X155062856Y-120316900D01*
X155062856Y-120316900D02*
X154848570Y-120388328D01*
X154848570Y-120388328D02*
X154705713Y-120388328D01*
X154705713Y-120388328D02*
X154491427Y-120316900D01*
X154491427Y-120316900D02*
X154419999Y-120245471D01*
X154419999Y-120245471D02*
X154419999Y-119745471D01*
X154419999Y-119745471D02*
X154705713Y-119745471D01*
X153562856Y-118888328D02*
X153562856Y-119245471D01*
X153919999Y-119102614D02*
X153562856Y-119245471D01*
X153562856Y-119245471D02*
X153205713Y-119102614D01*
X153777142Y-119531185D02*
X153562856Y-119245471D01*
X153562856Y-119245471D02*
X153348570Y-119531185D01*
X152419999Y-118888328D02*
X152419999Y-119245471D01*
X152777142Y-119102614D02*
X152419999Y-119245471D01*
X152419999Y-119245471D02*
X152062856Y-119102614D01*
X152634285Y-119531185D02*
X152419999Y-119245471D01*
X152419999Y-119245471D02*
X152205713Y-119531185D01*
X151277142Y-118888328D02*
X151277142Y-119245471D01*
X151634285Y-119102614D02*
X151277142Y-119245471D01*
X151277142Y-119245471D02*
X150919999Y-119102614D01*
X151491428Y-119531185D02*
X151277142Y-119245471D01*
X151277142Y-119245471D02*
X151062856Y-119531185D01*
D11*
%TO.C,J2*%
X182530002Y-126273801D02*
G75*
G03*
X181768002Y-126273801I-381000J0D01*
G01*
X181768002Y-126273801D02*
G75*
G03*
X182530002Y-126273801I381000J0D01*
G01*
%TO.C,J1*%
X142005901Y-89858000D02*
G75*
G03*
X141243901Y-89858000I-381000J0D01*
G01*
X141243901Y-89858000D02*
G75*
G03*
X142005901Y-89858000I381000J0D01*
G01*
%TO.C,G\u002A\u002A\u002A*%
G36*
X148401761Y-119893835D02*
G01*
X148483888Y-119929668D01*
X148581477Y-119979121D01*
X149445722Y-119955210D01*
X149593326Y-119951310D01*
X149762506Y-119947311D01*
X149917404Y-119944160D01*
X150054098Y-119941910D01*
X150168669Y-119940614D01*
X150257196Y-119940327D01*
X150315756Y-119941101D01*
X150340430Y-119942990D01*
X150360814Y-119963051D01*
X150370893Y-120010854D01*
X150370705Y-120023643D01*
X150364322Y-120053407D01*
X150341073Y-120068290D01*
X150290514Y-120076874D01*
X150274674Y-120078256D01*
X150218492Y-120081205D01*
X150132504Y-120084451D01*
X150021959Y-120087840D01*
X149892104Y-120091218D01*
X149748190Y-120094429D01*
X149595465Y-120097320D01*
X149535930Y-120098385D01*
X149375548Y-120101610D01*
X149219678Y-120105221D01*
X149074983Y-120109037D01*
X148948124Y-120112874D01*
X148845763Y-120116549D01*
X148774562Y-120119878D01*
X148749528Y-120121355D01*
X148664933Y-120127347D01*
X148607364Y-120134576D01*
X148568119Y-120145188D01*
X148538493Y-120161329D01*
X148509782Y-120185144D01*
X148439901Y-120227148D01*
X148352774Y-120239501D01*
X148258610Y-120217895D01*
X148205368Y-120196229D01*
X148295114Y-120169539D01*
X148333507Y-120156342D01*
X148389325Y-120123263D01*
X148409978Y-120081978D01*
X148397049Y-120030321D01*
X148394988Y-120026357D01*
X148375473Y-120000420D01*
X148346582Y-119988495D01*
X148299217Y-119989006D01*
X148224281Y-120000375D01*
X148148630Y-120013792D01*
X148219275Y-119947004D01*
X148228043Y-119938873D01*
X148283957Y-119897774D01*
X148338490Y-119882983D01*
X148401761Y-119893835D01*
G37*
G36*
X149941740Y-116459068D02*
G01*
X150016960Y-116482760D01*
X150070425Y-116536527D01*
X150104043Y-116621981D01*
X150104487Y-116623820D01*
X150111053Y-116646156D01*
X150121181Y-116669346D01*
X150137212Y-116695957D01*
X150161489Y-116728554D01*
X150196350Y-116769706D01*
X150244138Y-116821977D01*
X150307193Y-116887935D01*
X150387857Y-116970147D01*
X150488470Y-117071179D01*
X150611372Y-117193597D01*
X150758906Y-117339969D01*
X150881559Y-117462068D01*
X151001200Y-117582270D01*
X151109674Y-117692378D01*
X151204343Y-117789657D01*
X151282567Y-117871376D01*
X151341709Y-117934802D01*
X151379129Y-117977201D01*
X151392189Y-117995841D01*
X151386659Y-118017711D01*
X151362469Y-118053772D01*
X151340817Y-118071257D01*
X151311122Y-118083492D01*
X151297626Y-118073842D01*
X151259451Y-118039921D01*
X151199723Y-117984122D01*
X151121194Y-117909096D01*
X151026620Y-117817499D01*
X150918754Y-117711982D01*
X150800351Y-117595200D01*
X150674163Y-117469806D01*
X150568773Y-117365181D01*
X150446571Y-117245111D01*
X150333398Y-117135245D01*
X150232187Y-117038363D01*
X150145869Y-116957241D01*
X150077376Y-116894659D01*
X150029638Y-116853394D01*
X150005589Y-116836224D01*
X149958456Y-116823328D01*
X149899771Y-116816329D01*
X149891009Y-116816059D01*
X149843396Y-116801546D01*
X149801115Y-116760928D01*
X149758020Y-116688667D01*
X149740363Y-116649854D01*
X149740217Y-116631019D01*
X149764034Y-116636963D01*
X149815156Y-116666381D01*
X149837971Y-116679260D01*
X149902296Y-116698933D01*
X149951104Y-116685587D01*
X149982368Y-116639546D01*
X149988771Y-116618971D01*
X149988818Y-116584638D01*
X149963836Y-116557825D01*
X149926724Y-116529999D01*
X149879158Y-116494068D01*
X149831876Y-116458183D01*
X149909705Y-116457583D01*
X149941740Y-116459068D01*
G37*
G36*
X151537051Y-115366163D02*
G01*
X151594201Y-115400906D01*
X151637181Y-115447375D01*
X151657314Y-115508849D01*
X151660233Y-115595831D01*
X151659775Y-115614875D01*
X151660666Y-115646934D01*
X151664650Y-115681147D01*
X151672877Y-115720445D01*
X151686498Y-115767759D01*
X151706663Y-115826019D01*
X151734524Y-115898155D01*
X151771231Y-115987099D01*
X151817934Y-116095780D01*
X151875785Y-116227130D01*
X151945933Y-116384079D01*
X152029530Y-116569558D01*
X152127726Y-116786497D01*
X152146832Y-116828672D01*
X152211727Y-116972380D01*
X152262619Y-117086414D01*
X152300899Y-117174524D01*
X152327957Y-117240464D01*
X152345183Y-117287983D01*
X152353968Y-117320835D01*
X152355702Y-117342771D01*
X152351776Y-117357542D01*
X152343580Y-117368901D01*
X152343093Y-117369439D01*
X152325096Y-117387896D01*
X152308285Y-117399466D01*
X152291164Y-117401630D01*
X152272235Y-117391869D01*
X152250001Y-117367664D01*
X152222965Y-117326494D01*
X152189630Y-117265840D01*
X152148498Y-117183183D01*
X152098073Y-117076003D01*
X152036858Y-116941780D01*
X151963354Y-116777995D01*
X151876066Y-116582128D01*
X151515123Y-115771084D01*
X151425286Y-115725958D01*
X151390632Y-115707510D01*
X151350572Y-115682521D01*
X151334627Y-115667009D01*
X151333949Y-115661159D01*
X151328073Y-115625636D01*
X151318348Y-115573325D01*
X151314761Y-115552565D01*
X151310352Y-115506215D01*
X151313725Y-115482631D01*
X151321000Y-115483171D01*
X151347330Y-115503321D01*
X151383299Y-115541766D01*
X151384819Y-115543573D01*
X151424680Y-115585540D01*
X151456330Y-115602041D01*
X151491506Y-115599319D01*
X151519423Y-115588865D01*
X151550788Y-115553960D01*
X151549504Y-115501461D01*
X151515382Y-115432688D01*
X151484999Y-115382445D01*
X151475976Y-115352489D01*
X151493146Y-115347614D01*
X151537051Y-115366163D01*
G37*
G36*
X155114019Y-115064213D02*
G01*
X155115435Y-115122244D01*
X155115240Y-115126466D01*
X155122246Y-115201630D01*
X155149284Y-115248997D01*
X155194643Y-115265473D01*
X155198052Y-115265412D01*
X155246777Y-115246822D01*
X155277531Y-115197265D01*
X155288242Y-115119959D01*
X155288283Y-115108472D01*
X155290707Y-115063204D01*
X155298894Y-115048079D01*
X155315644Y-115056628D01*
X155334338Y-115078694D01*
X155360333Y-115133922D01*
X155375207Y-115196192D01*
X155373283Y-115246772D01*
X155362711Y-115268600D01*
X155331523Y-115315328D01*
X155289885Y-115367596D01*
X155281454Y-115377442D01*
X155265915Y-115396976D01*
X155251527Y-115418630D01*
X155237479Y-115445297D01*
X155222956Y-115479871D01*
X155207148Y-115525244D01*
X155189240Y-115584310D01*
X155168421Y-115659960D01*
X155143876Y-115755088D01*
X155114794Y-115872586D01*
X155080362Y-116015348D01*
X155039766Y-116186266D01*
X154992194Y-116388233D01*
X154936834Y-116624143D01*
X154932533Y-116642464D01*
X154900939Y-116775980D01*
X154871873Y-116896975D01*
X154846539Y-117000584D01*
X154826136Y-117081940D01*
X154811867Y-117136178D01*
X154804932Y-117158432D01*
X154798043Y-117165487D01*
X154762567Y-117175106D01*
X154718826Y-117169795D01*
X154685917Y-117150783D01*
X154681574Y-117143420D01*
X154677577Y-117110498D01*
X154684853Y-117053414D01*
X154703965Y-116966382D01*
X154716991Y-116912481D01*
X154737741Y-116826317D01*
X154764778Y-116713872D01*
X154796828Y-116580449D01*
X154832618Y-116431346D01*
X154870875Y-116271867D01*
X154910324Y-116107311D01*
X155077978Y-115407749D01*
X155041264Y-115324750D01*
X155035342Y-115311331D01*
X155013564Y-115256941D01*
X155007611Y-115217745D01*
X155017703Y-115177545D01*
X155044062Y-115120141D01*
X155050274Y-115107596D01*
X155080838Y-115056871D01*
X155102287Y-115042416D01*
X155114019Y-115064213D01*
G37*
G36*
X148845701Y-118069511D02*
G01*
X148895275Y-118105599D01*
X148959117Y-118167338D01*
X148969124Y-118177397D01*
X148992594Y-118198670D01*
X149019933Y-118218800D01*
X149055101Y-118239550D01*
X149102056Y-118262679D01*
X149164757Y-118289950D01*
X149247164Y-118323123D01*
X149353235Y-118363960D01*
X149486928Y-118414222D01*
X149652204Y-118475670D01*
X149742908Y-118509278D01*
X149897610Y-118566492D01*
X150046920Y-118621586D01*
X150184823Y-118672348D01*
X150305308Y-118716567D01*
X150402363Y-118752030D01*
X150469975Y-118776525D01*
X150543297Y-118804225D01*
X150612848Y-118833555D01*
X150661675Y-118857719D01*
X150682214Y-118873269D01*
X150683825Y-118900129D01*
X150673437Y-118944192D01*
X150656798Y-118975681D01*
X150637413Y-118991310D01*
X150624907Y-118987683D01*
X150579898Y-118972154D01*
X150505875Y-118945632D01*
X150406491Y-118909455D01*
X150285399Y-118864962D01*
X150146254Y-118813491D01*
X149992709Y-118756380D01*
X149828419Y-118694969D01*
X149777082Y-118675741D01*
X149588964Y-118605546D01*
X149431750Y-118547598D01*
X149301879Y-118500902D01*
X149195792Y-118464462D01*
X149109928Y-118437281D01*
X149040726Y-118418363D01*
X148984626Y-118406713D01*
X148938068Y-118401334D01*
X148897490Y-118401231D01*
X148859334Y-118405406D01*
X148820037Y-118412865D01*
X148790599Y-118417553D01*
X148742185Y-118411989D01*
X148689105Y-118382909D01*
X148680493Y-118376974D01*
X148632165Y-118338487D01*
X148618617Y-118314244D01*
X148639913Y-118303537D01*
X148696118Y-118305662D01*
X148714335Y-118307335D01*
X148784613Y-118302288D01*
X148825628Y-118274706D01*
X148838950Y-118223688D01*
X148837956Y-118209878D01*
X148820522Y-118175478D01*
X148776902Y-118150903D01*
X148701306Y-118132308D01*
X148657216Y-118120224D01*
X148643180Y-118103748D01*
X148666263Y-118084887D01*
X148726192Y-118064386D01*
X148752727Y-118058100D01*
X148801238Y-118055028D01*
X148845701Y-118069511D01*
G37*
G36*
X153460778Y-114923838D02*
G01*
X153500293Y-114976713D01*
X153512711Y-114995915D01*
X153542887Y-115066220D01*
X153540459Y-115132516D01*
X153505703Y-115206502D01*
X153497349Y-115220432D01*
X153487601Y-115239936D01*
X153479736Y-115262886D01*
X153473746Y-115292404D01*
X153469623Y-115331611D01*
X153467361Y-115383629D01*
X153466952Y-115451578D01*
X153468389Y-115538582D01*
X153471665Y-115647761D01*
X153476772Y-115782236D01*
X153483703Y-115945130D01*
X153492452Y-116139564D01*
X153503010Y-116368659D01*
X153503915Y-116388215D01*
X153512175Y-116570703D01*
X153518447Y-116719241D01*
X153522759Y-116837316D01*
X153525141Y-116928413D01*
X153525621Y-116996019D01*
X153524228Y-117043619D01*
X153520992Y-117074700D01*
X153515941Y-117092745D01*
X153509104Y-117101243D01*
X153474876Y-117115980D01*
X153428761Y-117111532D01*
X153398152Y-117076381D01*
X153396000Y-117066170D01*
X153391070Y-117020216D01*
X153385183Y-116942832D01*
X153378578Y-116838177D01*
X153371492Y-116710410D01*
X153364164Y-116563691D01*
X153356830Y-116402177D01*
X153349730Y-116230030D01*
X153346214Y-116142310D01*
X153338985Y-115972913D01*
X153331685Y-115815133D01*
X153324552Y-115673333D01*
X153317819Y-115551878D01*
X153311724Y-115455132D01*
X153306501Y-115387460D01*
X153302387Y-115353225D01*
X153301133Y-115347901D01*
X153274511Y-115282921D01*
X153235164Y-115226571D01*
X153230612Y-115221774D01*
X153201037Y-115183518D01*
X153190454Y-115143893D01*
X153193658Y-115085163D01*
X153198371Y-115050471D01*
X153212194Y-114995128D01*
X153228967Y-114975331D01*
X153247321Y-114991832D01*
X153265886Y-115045387D01*
X153277191Y-115083861D01*
X153299815Y-115125976D01*
X153331298Y-115144364D01*
X153356744Y-115147919D01*
X153406726Y-115138115D01*
X153440572Y-115109885D01*
X153447587Y-115070062D01*
X153442010Y-115045254D01*
X153426637Y-114963493D01*
X153424364Y-114916493D01*
X153435606Y-114903519D01*
X153460778Y-114923838D01*
G37*
G36*
X157009826Y-115764528D02*
G01*
X156990354Y-115818675D01*
X156989326Y-115820974D01*
X156968918Y-115873450D01*
X156965991Y-115907463D01*
X156979239Y-115936880D01*
X157006291Y-115962195D01*
X157053666Y-115980657D01*
X157062489Y-115981484D01*
X157092331Y-115976612D01*
X157116836Y-115952215D01*
X157145125Y-115900277D01*
X157161227Y-115869230D01*
X157186017Y-115829491D01*
X157202212Y-115813946D01*
X157206451Y-115817258D01*
X157214260Y-115846629D01*
X157217356Y-115896504D01*
X157217334Y-115900193D01*
X157200378Y-115988307D01*
X157152977Y-116054750D01*
X157076733Y-116097236D01*
X157070118Y-116099518D01*
X157046212Y-116109932D01*
X157021035Y-116125543D01*
X156992462Y-116148870D01*
X156958369Y-116182432D01*
X156916632Y-116228749D01*
X156865125Y-116290342D01*
X156801724Y-116369729D01*
X156724304Y-116469431D01*
X156630741Y-116591967D01*
X156518910Y-116739857D01*
X156386687Y-116915622D01*
X156315356Y-117010425D01*
X156204659Y-117156652D01*
X156113272Y-117275897D01*
X156039309Y-117370465D01*
X155980883Y-117442666D01*
X155936108Y-117494805D01*
X155903097Y-117529191D01*
X155879964Y-117548131D01*
X155864823Y-117553931D01*
X155852057Y-117553117D01*
X155808528Y-117535161D01*
X155786024Y-117501498D01*
X155792770Y-117462560D01*
X155798568Y-117454293D01*
X155825493Y-117417709D01*
X155871457Y-117356103D01*
X155933984Y-117272768D01*
X156010599Y-117170995D01*
X156098826Y-117054075D01*
X156196189Y-116925300D01*
X156300212Y-116787960D01*
X156355206Y-116715357D01*
X156457210Y-116580378D01*
X156551833Y-116454765D01*
X156636489Y-116341975D01*
X156708593Y-116245465D01*
X156765557Y-116168691D01*
X156804797Y-116115112D01*
X156823724Y-116088183D01*
X156849225Y-116027681D01*
X156848701Y-115957340D01*
X156845486Y-115931335D01*
X156847912Y-115892036D01*
X156866918Y-115856672D01*
X156908400Y-115810765D01*
X156937854Y-115781884D01*
X156982649Y-115746044D01*
X157006949Y-115740288D01*
X157009826Y-115764528D01*
G37*
G36*
X150277313Y-120959862D02*
G01*
X150309462Y-120981989D01*
X150338626Y-121017688D01*
X150350738Y-121051018D01*
X150349639Y-121054255D01*
X150328030Y-121080076D01*
X150282167Y-121124140D01*
X150216486Y-121182477D01*
X150135420Y-121251119D01*
X150043403Y-121326097D01*
X149904109Y-121437631D01*
X149716196Y-121588469D01*
X149554718Y-121718708D01*
X149417706Y-121830049D01*
X149303195Y-121924195D01*
X149209214Y-122002849D01*
X149133798Y-122067712D01*
X149074978Y-122120488D01*
X149030786Y-122162878D01*
X148999255Y-122196586D01*
X148978417Y-122223313D01*
X148966304Y-122244762D01*
X148960949Y-122262636D01*
X148955846Y-122291627D01*
X148937661Y-122349372D01*
X148904703Y-122389953D01*
X148846593Y-122428416D01*
X148826487Y-122439416D01*
X148778233Y-122461884D01*
X148746798Y-122470970D01*
X148733704Y-122467353D01*
X148736720Y-122451772D01*
X148760107Y-122419075D01*
X148806740Y-122364141D01*
X148812628Y-122356878D01*
X148831928Y-122305654D01*
X148816493Y-122257290D01*
X148768513Y-122220039D01*
X148749886Y-122212488D01*
X148723414Y-122210889D01*
X148696062Y-122228887D01*
X148656676Y-122271626D01*
X148656616Y-122271695D01*
X148612146Y-122317655D01*
X148585643Y-122330793D01*
X148575884Y-122310880D01*
X148581645Y-122257689D01*
X148585340Y-122241383D01*
X148619880Y-122174209D01*
X148683827Y-122126092D01*
X148779941Y-122094764D01*
X148783868Y-122093946D01*
X148808001Y-122088830D01*
X148830236Y-122082966D01*
X148853174Y-122074421D01*
X148879416Y-122061269D01*
X148911565Y-122041579D01*
X148952220Y-122013421D01*
X149003983Y-121974867D01*
X149069456Y-121923987D01*
X149151240Y-121858852D01*
X149251936Y-121777532D01*
X149374144Y-121678099D01*
X149520468Y-121558622D01*
X149693507Y-121417172D01*
X149716936Y-121398030D01*
X149841053Y-121296960D01*
X149955515Y-121204303D01*
X150057061Y-121122660D01*
X150142429Y-121054632D01*
X150208359Y-121002821D01*
X150251590Y-120969826D01*
X150268861Y-120958250D01*
X150277313Y-120959862D01*
G37*
G36*
X150778147Y-115782039D02*
G01*
X150819303Y-115804568D01*
X150872520Y-115843806D01*
X150930516Y-115894358D01*
X150986009Y-115950829D01*
X151073211Y-116047818D01*
X151060346Y-116229280D01*
X151047481Y-116410742D01*
X151180554Y-116608807D01*
X151200460Y-116638163D01*
X151259314Y-116723273D01*
X151332896Y-116828038D01*
X151415884Y-116944944D01*
X151502956Y-117066479D01*
X151588791Y-117185130D01*
X151645505Y-117263910D01*
X151715976Y-117364291D01*
X151776110Y-117452841D01*
X151822846Y-117524931D01*
X151853123Y-117575931D01*
X151863881Y-117601214D01*
X151861548Y-117622652D01*
X151833433Y-117675889D01*
X151770967Y-117729744D01*
X151732187Y-117751917D01*
X151700260Y-117761973D01*
X151698885Y-117761818D01*
X151675086Y-117744755D01*
X151638240Y-117704986D01*
X151595719Y-117650380D01*
X151566861Y-117610351D01*
X151517396Y-117541629D01*
X151453317Y-117452534D01*
X151378536Y-117348507D01*
X151296965Y-117234989D01*
X151212517Y-117117422D01*
X151173654Y-117063381D01*
X151070744Y-116921455D01*
X150985051Y-116805954D01*
X150913374Y-116713354D01*
X150852511Y-116640131D01*
X150799261Y-116582761D01*
X150750424Y-116537721D01*
X150702797Y-116501485D01*
X150653181Y-116470531D01*
X150598375Y-116441334D01*
X150531874Y-116405211D01*
X150458556Y-116352120D01*
X150412918Y-116293608D01*
X150389378Y-116221574D01*
X150382352Y-116127918D01*
X150385257Y-116038312D01*
X150395180Y-115966803D01*
X150411075Y-115923481D01*
X150431853Y-115913070D01*
X150433722Y-115914037D01*
X150452722Y-115938414D01*
X150479491Y-115987345D01*
X150508857Y-116051532D01*
X150518412Y-116074131D01*
X150550968Y-116147202D01*
X150577122Y-116192972D01*
X150602863Y-116217796D01*
X150634179Y-116228031D01*
X150677059Y-116230030D01*
X150681081Y-116230016D01*
X150757786Y-116221071D01*
X150808622Y-116192386D01*
X150842145Y-116139257D01*
X150845130Y-116131696D01*
X150852594Y-116100315D01*
X150849760Y-116064078D01*
X150834869Y-116013114D01*
X150806157Y-115937553D01*
X150796375Y-115912459D01*
X150773228Y-115848285D01*
X150759139Y-115801563D01*
X150756856Y-115781024D01*
X150778147Y-115782039D01*
G37*
G36*
X157949267Y-116292628D02*
G01*
X157994547Y-116304722D01*
X158011697Y-116322975D01*
X158008076Y-116327792D01*
X157979233Y-116348472D01*
X157927836Y-116379532D01*
X157861423Y-116416291D01*
X157846474Y-116424380D01*
X157773437Y-116468163D01*
X157722086Y-116506551D01*
X157698956Y-116534776D01*
X157693144Y-116573139D01*
X157704963Y-116638380D01*
X157737096Y-116698461D01*
X157782915Y-116742493D01*
X157835794Y-116759590D01*
X157840302Y-116759321D01*
X157882659Y-116748337D01*
X157944499Y-116724481D01*
X158014108Y-116692181D01*
X158031593Y-116683493D01*
X158092465Y-116655216D01*
X158137187Y-116637512D01*
X158157099Y-116633907D01*
X158158390Y-116655418D01*
X158139843Y-116699319D01*
X158104746Y-116757033D01*
X158057719Y-116821050D01*
X158003378Y-116883859D01*
X157905867Y-116986976D01*
X157745242Y-116983977D01*
X157664935Y-116984768D01*
X157586512Y-116991972D01*
X157538105Y-117005345D01*
X157536683Y-117006102D01*
X157509522Y-117023387D01*
X157468791Y-117053620D01*
X157412401Y-117098552D01*
X157338260Y-117159936D01*
X157244278Y-117239521D01*
X157128366Y-117339060D01*
X156988432Y-117460303D01*
X156822386Y-117605003D01*
X156748765Y-117668641D01*
X156655430Y-117747355D01*
X156573118Y-117814554D01*
X156506128Y-117866820D01*
X156458759Y-117900733D01*
X156435309Y-117912874D01*
X156409493Y-117904653D01*
X156365913Y-117874761D01*
X156321001Y-117832988D01*
X156285890Y-117789983D01*
X156271712Y-117756394D01*
X156283410Y-117737945D01*
X156319792Y-117698627D01*
X156376368Y-117643564D01*
X156448553Y-117577204D01*
X156531764Y-117503994D01*
X156541208Y-117495855D01*
X156719956Y-117341670D01*
X156872402Y-117209704D01*
X157000853Y-117097668D01*
X157107614Y-117003276D01*
X157194989Y-116924239D01*
X157265285Y-116858270D01*
X157320806Y-116803081D01*
X157363858Y-116756386D01*
X157396746Y-116715895D01*
X157421776Y-116679323D01*
X157441252Y-116644382D01*
X157457480Y-116608783D01*
X157472765Y-116570239D01*
X157518513Y-116465263D01*
X157566818Y-116389004D01*
X157621225Y-116338871D01*
X157686524Y-116309011D01*
X157737183Y-116297264D01*
X157811331Y-116288501D01*
X157885110Y-116287088D01*
X157949267Y-116292628D01*
G37*
G36*
X150383328Y-121508737D02*
G01*
X150438085Y-121536005D01*
X150482116Y-121570519D01*
X150523249Y-121614303D01*
X150097398Y-122260443D01*
X149993140Y-122418801D01*
X149876510Y-122596603D01*
X149778126Y-122747651D01*
X149696417Y-122874580D01*
X149629810Y-122980023D01*
X149576733Y-123066615D01*
X149535615Y-123136989D01*
X149504883Y-123193778D01*
X149482966Y-123239617D01*
X149468291Y-123277139D01*
X149459286Y-123308979D01*
X149454379Y-123337769D01*
X149440799Y-123442071D01*
X149422008Y-123549457D01*
X149398980Y-123629487D01*
X149368397Y-123688075D01*
X149326940Y-123731132D01*
X149271289Y-123764570D01*
X149198128Y-123794303D01*
X149185551Y-123798709D01*
X149112622Y-123819789D01*
X149050201Y-123830916D01*
X149006630Y-123831087D01*
X148990253Y-123819298D01*
X148994078Y-123812088D01*
X149018751Y-123781903D01*
X149061257Y-123735402D01*
X149115675Y-123679197D01*
X149153211Y-123640914D01*
X149198349Y-123591429D01*
X149222889Y-123556418D01*
X149231333Y-123528766D01*
X149228184Y-123501355D01*
X149227310Y-123498095D01*
X149201432Y-123445876D01*
X149159137Y-123395048D01*
X149111304Y-123356538D01*
X149068810Y-123341273D01*
X149044402Y-123346377D01*
X148993886Y-123374230D01*
X148924665Y-123427920D01*
X148834222Y-123509254D01*
X148763298Y-123575904D01*
X148763298Y-123525493D01*
X148765522Y-123500622D01*
X148782023Y-123432275D01*
X148810361Y-123351681D01*
X148845450Y-123272413D01*
X148882206Y-123208049D01*
X148893509Y-123192657D01*
X148927162Y-123160742D01*
X148974950Y-123137337D01*
X149048586Y-123115959D01*
X149112136Y-123097703D01*
X149179515Y-123073205D01*
X149225608Y-123050555D01*
X149238093Y-123038341D01*
X149272634Y-122995377D01*
X149324513Y-122925233D01*
X149391814Y-122830651D01*
X149472616Y-122714373D01*
X149565001Y-122579141D01*
X149667050Y-122427699D01*
X149776844Y-122262787D01*
X149777866Y-122261244D01*
X149878283Y-122109923D01*
X149972724Y-121968295D01*
X150059071Y-121839490D01*
X150135204Y-121726633D01*
X150199006Y-121632855D01*
X150248358Y-121561282D01*
X150281142Y-121515044D01*
X150295240Y-121497268D01*
X150295554Y-121497078D01*
X150331324Y-121494001D01*
X150383328Y-121508737D01*
G37*
G36*
X149327431Y-117103600D02*
G01*
X149386259Y-117114946D01*
X149455561Y-117134957D01*
X149527115Y-117161231D01*
X149592704Y-117191368D01*
X149644106Y-117222964D01*
X149667875Y-117243756D01*
X149701731Y-117294040D01*
X149724860Y-117368263D01*
X149730943Y-117395630D01*
X149740820Y-117436604D01*
X149752559Y-117472673D01*
X149768949Y-117506037D01*
X149792778Y-117538897D01*
X149826834Y-117573452D01*
X149873905Y-117611904D01*
X149936780Y-117656452D01*
X150018247Y-117709296D01*
X150121093Y-117772637D01*
X150248108Y-117848675D01*
X150402080Y-117939610D01*
X150585796Y-118047643D01*
X151023388Y-118304943D01*
X151021292Y-118373191D01*
X151021230Y-118374925D01*
X151010297Y-118436452D01*
X150987759Y-118489420D01*
X150956395Y-118522717D01*
X150922422Y-118537401D01*
X150918611Y-118536624D01*
X150885855Y-118522144D01*
X150826315Y-118491217D01*
X150744350Y-118446262D01*
X150644316Y-118389701D01*
X150530574Y-118323954D01*
X150407482Y-118251441D01*
X150373411Y-118231191D01*
X150199793Y-118128274D01*
X150054397Y-118042870D01*
X149933682Y-117973271D01*
X149834104Y-117917767D01*
X149752121Y-117874647D01*
X149684189Y-117842202D01*
X149626767Y-117818720D01*
X149576312Y-117802493D01*
X149529280Y-117791810D01*
X149482130Y-117784960D01*
X149431318Y-117780235D01*
X149355993Y-117773297D01*
X149269558Y-117760236D01*
X149207691Y-117741579D01*
X149162451Y-117714633D01*
X149125898Y-117676708D01*
X149108325Y-117651335D01*
X149077404Y-117593583D01*
X149049401Y-117527184D01*
X149027029Y-117460676D01*
X149013000Y-117402599D01*
X149010026Y-117361490D01*
X149020819Y-117345890D01*
X149026478Y-117348646D01*
X149055734Y-117370444D01*
X149102728Y-117409245D01*
X149160469Y-117459367D01*
X149223195Y-117512750D01*
X149279979Y-117552371D01*
X149324638Y-117568614D01*
X149364491Y-117563890D01*
X149406856Y-117540615D01*
X149413238Y-117536161D01*
X149472017Y-117485480D01*
X149499140Y-117435560D01*
X149494293Y-117381550D01*
X149457159Y-117318602D01*
X149387423Y-117241869D01*
X149368211Y-117222644D01*
X149320062Y-117172306D01*
X149286530Y-117133995D01*
X149273946Y-117114799D01*
X149287296Y-117103322D01*
X149327431Y-117103600D01*
G37*
G36*
X152635240Y-115066777D02*
G01*
X152666745Y-115111344D01*
X152701302Y-115172536D01*
X152734996Y-115242483D01*
X152763911Y-115313313D01*
X152784132Y-115377154D01*
X152791742Y-115426136D01*
X152789395Y-115438780D01*
X152771877Y-115481078D01*
X152742859Y-115532790D01*
X152731600Y-115551393D01*
X152695435Y-115619766D01*
X152668445Y-115682585D01*
X152663955Y-115696934D01*
X152658774Y-115724083D01*
X152657298Y-115757468D01*
X152660186Y-115800461D01*
X152668095Y-115856434D01*
X152681681Y-115928758D01*
X152701603Y-116020805D01*
X152728518Y-116135948D01*
X152763083Y-116277557D01*
X152805956Y-116449003D01*
X152857795Y-116653660D01*
X152885559Y-116764694D01*
X152914260Y-116883925D01*
X152937950Y-116987332D01*
X152955483Y-117069723D01*
X152965714Y-117125908D01*
X152967497Y-117150694D01*
X152946941Y-117176193D01*
X152907705Y-117204336D01*
X152907631Y-117204377D01*
X152853055Y-117222477D01*
X152791742Y-117227407D01*
X152725547Y-117222956D01*
X152572810Y-116608287D01*
X152568025Y-116589036D01*
X152519442Y-116394308D01*
X152478391Y-116232270D01*
X152443592Y-116099190D01*
X152413761Y-115991338D01*
X152387617Y-115904982D01*
X152363876Y-115836391D01*
X152341257Y-115781835D01*
X152318477Y-115737582D01*
X152294254Y-115699901D01*
X152267305Y-115665062D01*
X152236349Y-115629332D01*
X152211582Y-115601036D01*
X152148891Y-115520272D01*
X152111769Y-115451580D01*
X152096642Y-115386792D01*
X152099934Y-115317744D01*
X152103270Y-115299930D01*
X152122899Y-115234824D01*
X152151824Y-115167477D01*
X152184941Y-115107486D01*
X152217149Y-115064452D01*
X152243343Y-115047975D01*
X152245160Y-115048053D01*
X152258514Y-115057031D01*
X152267497Y-115085252D01*
X152273295Y-115138907D01*
X152277093Y-115224187D01*
X152282547Y-115400400D01*
X152347408Y-115427501D01*
X152349935Y-115428549D01*
X152430080Y-115451686D01*
X152492543Y-115445458D01*
X152544071Y-115409239D01*
X152547010Y-115406065D01*
X152567691Y-115377827D01*
X152579721Y-115342752D01*
X152585314Y-115290530D01*
X152586687Y-115210847D01*
X152586848Y-115189516D01*
X152589775Y-115120553D01*
X152595621Y-115069974D01*
X152603392Y-115047494D01*
X152610703Y-115046708D01*
X152635240Y-115066777D01*
G37*
G36*
X154193937Y-114848256D02*
G01*
X154191871Y-114885347D01*
X154179373Y-114947343D01*
X154157858Y-115026494D01*
X154107550Y-115194142D01*
X154168634Y-115248720D01*
X154182020Y-115259810D01*
X154252125Y-115295709D01*
X154323785Y-115301478D01*
X154386705Y-115275835D01*
X154389099Y-115273792D01*
X154412341Y-115239751D01*
X154439469Y-115181930D01*
X154465098Y-115111612D01*
X154469353Y-115098426D01*
X154492481Y-115034048D01*
X154513144Y-114987285D01*
X154527302Y-114967494D01*
X154529698Y-114967094D01*
X154546404Y-114984035D01*
X154562302Y-115029670D01*
X154575725Y-115096041D01*
X154585002Y-115175188D01*
X154588466Y-115259154D01*
X154588466Y-115387389D01*
X154472951Y-115503940D01*
X154429600Y-115549131D01*
X154383488Y-115604999D01*
X154356460Y-115653095D01*
X154342201Y-115703034D01*
X154339599Y-115721299D01*
X154333525Y-115779577D01*
X154325780Y-115867377D01*
X154316776Y-115979494D01*
X154306923Y-116110723D01*
X154296634Y-116255861D01*
X154286319Y-116409702D01*
X154279773Y-116508999D01*
X154270018Y-116652479D01*
X154260907Y-116781328D01*
X154252785Y-116890920D01*
X154245999Y-116976633D01*
X154240894Y-117033841D01*
X154237816Y-117057923D01*
X154223436Y-117076777D01*
X154186986Y-117099278D01*
X154144800Y-117111980D01*
X154070857Y-117115022D01*
X154011630Y-117092910D01*
X154003284Y-117086047D01*
X153995674Y-117075434D01*
X153990287Y-117058233D01*
X153987160Y-117030549D01*
X153986331Y-116988488D01*
X153987836Y-116928155D01*
X153991712Y-116845657D01*
X153997997Y-116737100D01*
X154006726Y-116598589D01*
X154017936Y-116426231D01*
X154021095Y-116378030D01*
X154033572Y-116188031D01*
X154043571Y-116030459D01*
X154050846Y-115900970D01*
X154055152Y-115795215D01*
X154056240Y-115708848D01*
X154053866Y-115637524D01*
X154047784Y-115576896D01*
X154037746Y-115522616D01*
X154023506Y-115470340D01*
X154004820Y-115415720D01*
X153981439Y-115354409D01*
X153953119Y-115282063D01*
X153949584Y-115272881D01*
X153931803Y-115216010D01*
X153930111Y-115169741D01*
X153943325Y-115113730D01*
X153958756Y-115078315D01*
X153992892Y-115024312D01*
X154037329Y-114966937D01*
X154085739Y-114913112D01*
X154131797Y-114869759D01*
X154169176Y-114843798D01*
X154191549Y-114842153D01*
X154193937Y-114848256D01*
G37*
G36*
X156189228Y-115252336D02*
G01*
X156188942Y-115259269D01*
X156172685Y-115291142D01*
X156139714Y-115341533D01*
X156094541Y-115403246D01*
X156070971Y-115434793D01*
X156028423Y-115496338D01*
X155999004Y-115545384D01*
X155988019Y-115573454D01*
X155990539Y-115585331D01*
X156011481Y-115625035D01*
X156046717Y-115671442D01*
X156060253Y-115686213D01*
X156110844Y-115726285D01*
X156161649Y-115738295D01*
X156165845Y-115738243D01*
X156198105Y-115733043D01*
X156231207Y-115716099D01*
X156270693Y-115682838D01*
X156322102Y-115628692D01*
X156390974Y-115549089D01*
X156462953Y-115464058D01*
X156454620Y-115578013D01*
X156448580Y-115626588D01*
X156428554Y-115718716D01*
X156401553Y-115801816D01*
X156387595Y-115835394D01*
X156364550Y-115880828D01*
X156337064Y-115911242D01*
X156294897Y-115936292D01*
X156227808Y-115965632D01*
X156223029Y-115967639D01*
X156155994Y-115997431D01*
X156101201Y-116024571D01*
X156070107Y-116043407D01*
X156064056Y-116049356D01*
X156041211Y-116081198D01*
X156009067Y-116136771D01*
X155966706Y-116217924D01*
X155913211Y-116326501D01*
X155847665Y-116464349D01*
X155769151Y-116633314D01*
X155676752Y-116835242D01*
X155629677Y-116938243D01*
X155576632Y-117053140D01*
X155529432Y-117154134D01*
X155490501Y-117236080D01*
X155462267Y-117293834D01*
X155447153Y-117322249D01*
X155420065Y-117349982D01*
X155381763Y-117364803D01*
X155331638Y-117356458D01*
X155274911Y-117335289D01*
X155226594Y-117307949D01*
X155201054Y-117281094D01*
X155200685Y-117278838D01*
X155207781Y-117247938D01*
X155228600Y-117189633D01*
X155260884Y-117109566D01*
X155302376Y-117013378D01*
X155350821Y-116906711D01*
X155435036Y-116725522D01*
X155517988Y-116546399D01*
X155587266Y-116395355D01*
X155644100Y-116269073D01*
X155689724Y-116164232D01*
X155725367Y-116077513D01*
X155752263Y-116005598D01*
X155771642Y-115945167D01*
X155784735Y-115892900D01*
X155792775Y-115845479D01*
X155796994Y-115799585D01*
X155798621Y-115751898D01*
X155798890Y-115699098D01*
X155799086Y-115664289D01*
X155803886Y-115561728D01*
X155817655Y-115486177D01*
X155843766Y-115429417D01*
X155885593Y-115383228D01*
X155946508Y-115339392D01*
X155978452Y-115320326D01*
X156046856Y-115285951D01*
X156111061Y-115260911D01*
X156161656Y-115248580D01*
X156189228Y-115252336D01*
G37*
G36*
X150260073Y-120414847D02*
G01*
X150271445Y-120420820D01*
X150278196Y-120425762D01*
X150310455Y-120461285D01*
X150342524Y-120510448D01*
X150357007Y-120539012D01*
X150368930Y-120580921D01*
X150359637Y-120612466D01*
X150356694Y-120615668D01*
X150325063Y-120635514D01*
X150265192Y-120665684D01*
X150182659Y-120703592D01*
X150083044Y-120746651D01*
X149971923Y-120792272D01*
X149856656Y-120838447D01*
X149662918Y-120916404D01*
X149499261Y-120983121D01*
X149362351Y-121040358D01*
X149248854Y-121089872D01*
X149155436Y-121133423D01*
X149078763Y-121172768D01*
X149015502Y-121209666D01*
X148962320Y-121245875D01*
X148915882Y-121283153D01*
X148872854Y-121323259D01*
X148829904Y-121367951D01*
X148783697Y-121418988D01*
X148760753Y-121443230D01*
X148715133Y-121484608D01*
X148679676Y-121508494D01*
X148672098Y-121511321D01*
X148622504Y-121518711D01*
X148557285Y-121516887D01*
X148484058Y-121507623D01*
X148410439Y-121492693D01*
X148344045Y-121473871D01*
X148292492Y-121452929D01*
X148263396Y-121431642D01*
X148264374Y-121411783D01*
X148269779Y-121408311D01*
X148306535Y-121395613D01*
X148367284Y-121380634D01*
X148442134Y-121365926D01*
X148443755Y-121365642D01*
X148536102Y-121346485D01*
X148596629Y-121324198D01*
X148631200Y-121293635D01*
X148645678Y-121249653D01*
X148645925Y-121187108D01*
X148642547Y-121154805D01*
X148625740Y-121103627D01*
X148590053Y-121066478D01*
X148573281Y-121054687D01*
X148546441Y-121041913D01*
X148512894Y-121037646D01*
X148462444Y-121041152D01*
X148384893Y-121051695D01*
X148360442Y-121055131D01*
X148292079Y-121063108D01*
X148242199Y-121066484D01*
X148220229Y-121064523D01*
X148218575Y-121060663D01*
X148231808Y-121037154D01*
X148268872Y-121001684D01*
X148322923Y-120959700D01*
X148387118Y-120916648D01*
X148454613Y-120877976D01*
X148571879Y-120817176D01*
X148734024Y-120873382D01*
X148896169Y-120929588D01*
X149018434Y-120886917D01*
X149048695Y-120875884D01*
X149119962Y-120848584D01*
X149215362Y-120811079D01*
X149328343Y-120765974D01*
X149452357Y-120715871D01*
X149580852Y-120663374D01*
X149633213Y-120641861D01*
X149791714Y-120576848D01*
X149919792Y-120524667D01*
X150020966Y-120484080D01*
X150098754Y-120453853D01*
X150156676Y-120432749D01*
X150198250Y-120419532D01*
X150226994Y-120412967D01*
X150246429Y-120411817D01*
X150260073Y-120414847D01*
G37*
G36*
X148713270Y-118791564D02*
G01*
X148725627Y-118793136D01*
X148781017Y-118802781D01*
X148819126Y-118819327D01*
X148852865Y-118850860D01*
X148895142Y-118905463D01*
X148912401Y-118928879D01*
X148940784Y-118966228D01*
X148968331Y-118997866D01*
X148998509Y-119024879D01*
X149034786Y-119048350D01*
X149080630Y-119069366D01*
X149139509Y-119089012D01*
X149214890Y-119108372D01*
X149310243Y-119128532D01*
X149429034Y-119150576D01*
X149574732Y-119175590D01*
X149750803Y-119204659D01*
X149960717Y-119238868D01*
X150081570Y-119258915D01*
X150217989Y-119282888D01*
X150321460Y-119303074D01*
X150394638Y-119320046D01*
X150440176Y-119334375D01*
X150460729Y-119346634D01*
X150470824Y-119364712D01*
X150482778Y-119421600D01*
X150480459Y-119487182D01*
X150463600Y-119543255D01*
X150463351Y-119543721D01*
X150456419Y-119555635D01*
X150447363Y-119564798D01*
X150432666Y-119570851D01*
X150408812Y-119573435D01*
X150372283Y-119572190D01*
X150319564Y-119566757D01*
X150247137Y-119556776D01*
X150151487Y-119541889D01*
X150029097Y-119521735D01*
X149876450Y-119495955D01*
X149690030Y-119464190D01*
X149686591Y-119463604D01*
X149489709Y-119430694D01*
X149325685Y-119404994D01*
X149190362Y-119386242D01*
X149079584Y-119374178D01*
X148989196Y-119368539D01*
X148915040Y-119369066D01*
X148852962Y-119375496D01*
X148798805Y-119387568D01*
X148748414Y-119405022D01*
X148661422Y-119434140D01*
X148569372Y-119445036D01*
X148487066Y-119426420D01*
X148406908Y-119376293D01*
X148321305Y-119292657D01*
X148278482Y-119241746D01*
X148243108Y-119188567D01*
X148233578Y-119154575D01*
X148251222Y-119142614D01*
X148254704Y-119143096D01*
X148286992Y-119152925D01*
X148342104Y-119172821D01*
X148410403Y-119199352D01*
X148427393Y-119206073D01*
X148495871Y-119231516D01*
X148550629Y-119249361D01*
X148581086Y-119256091D01*
X148595399Y-119252624D01*
X148631800Y-119224283D01*
X148667833Y-119177217D01*
X148695290Y-119123357D01*
X148705958Y-119074633D01*
X148705027Y-119055183D01*
X148694101Y-119013305D01*
X148665892Y-118978490D01*
X148614128Y-118944622D01*
X148532535Y-118905585D01*
X148524957Y-118902201D01*
X148463754Y-118872558D01*
X148419079Y-118846934D01*
X148400145Y-118830551D01*
X148407167Y-118819244D01*
X148442963Y-118806015D01*
X148500540Y-118795504D01*
X148570829Y-118788839D01*
X148644761Y-118787149D01*
X148713270Y-118791564D01*
G37*
G36*
X156263456Y-118633441D02*
G01*
X156335577Y-118706765D01*
X156424563Y-118806615D01*
X156528328Y-118930766D01*
X156765268Y-119221540D01*
X157055896Y-120510707D01*
X157088706Y-120656209D01*
X157136047Y-120866008D01*
X157180720Y-121063820D01*
X157222020Y-121246531D01*
X157259241Y-121411025D01*
X157291679Y-121554189D01*
X157318627Y-121672909D01*
X157339381Y-121764070D01*
X157353235Y-121824558D01*
X157359485Y-121851258D01*
X157359541Y-121851480D01*
X157362511Y-121870321D01*
X157356530Y-121878039D01*
X157337146Y-121872584D01*
X157299906Y-121851908D01*
X157240359Y-121813961D01*
X157154053Y-121756694D01*
X157072642Y-121700417D01*
X156994778Y-121641647D01*
X156941303Y-121594854D01*
X156916428Y-121563462D01*
X156916236Y-121562989D01*
X156904955Y-121533540D01*
X156882233Y-121473042D01*
X156849658Y-121385765D01*
X156808818Y-121275977D01*
X156761301Y-121147946D01*
X156708695Y-121005941D01*
X156652588Y-120854229D01*
X156597337Y-120704775D01*
X156542364Y-120556199D01*
X156491577Y-120419065D01*
X156446761Y-120298182D01*
X156409696Y-120198358D01*
X156382167Y-120124402D01*
X156365956Y-120081121D01*
X156323931Y-119969964D01*
X156203704Y-119979615D01*
X156172677Y-119983279D01*
X156052509Y-120014470D01*
X155920446Y-120070669D01*
X155784120Y-120147234D01*
X155651168Y-120239521D01*
X155529222Y-120342887D01*
X155425917Y-120452688D01*
X155345662Y-120550525D01*
X155404994Y-120611740D01*
X155459648Y-120658512D01*
X155561930Y-120722706D01*
X155693052Y-120786849D01*
X155847981Y-120848776D01*
X156021683Y-120906324D01*
X156209122Y-120957331D01*
X156382943Y-120999754D01*
X156438549Y-121153946D01*
X156442583Y-121165217D01*
X156489044Y-121305323D01*
X156540906Y-121478511D01*
X156597229Y-121680950D01*
X156657073Y-121908805D01*
X156719497Y-122158244D01*
X156783562Y-122425432D01*
X156848325Y-122706537D01*
X156912848Y-122997725D01*
X156976190Y-123295162D01*
X157037409Y-123595016D01*
X157071638Y-123769082D01*
X157108038Y-123961051D01*
X157139083Y-124132794D01*
X157164209Y-124280968D01*
X157182853Y-124402233D01*
X157194452Y-124493248D01*
X157198444Y-124550671D01*
X157198458Y-124553327D01*
X157198327Y-124566919D01*
X157195263Y-124576429D01*
X157185727Y-124580657D01*
X157166180Y-124578407D01*
X157133084Y-124568478D01*
X157082901Y-124549674D01*
X157012090Y-124520795D01*
X156917115Y-124480643D01*
X156794435Y-124428020D01*
X156640514Y-124361727D01*
X156623424Y-124354363D01*
X156272268Y-124201102D01*
X155936040Y-124050676D01*
X155617321Y-123904339D01*
X155318689Y-123763346D01*
X155042726Y-123628954D01*
X154792009Y-123502417D01*
X154569120Y-123384991D01*
X154376639Y-123277930D01*
X154217144Y-123182491D01*
X154063319Y-123085949D01*
X153875694Y-122717148D01*
X153802272Y-122575124D01*
X153709617Y-122402668D01*
X153623095Y-122249284D01*
X153544976Y-122118862D01*
X153477534Y-122015290D01*
X153423041Y-121942457D01*
X153414347Y-121933126D01*
X153352009Y-121889963D01*
X153261653Y-121850948D01*
X153151354Y-121817836D01*
X153029185Y-121792378D01*
X152903222Y-121776328D01*
X152781539Y-121771438D01*
X152672210Y-121779462D01*
X152642566Y-121785136D01*
X152601195Y-121799729D01*
X152557356Y-121826027D01*
X152503056Y-121869143D01*
X152430301Y-121934189D01*
X152392191Y-121968915D01*
X152148856Y-122177931D01*
X151914394Y-122357130D01*
X151690068Y-122505803D01*
X151477140Y-122623244D01*
X151276872Y-122708745D01*
X151090527Y-122761598D01*
X150919367Y-122781096D01*
X150880530Y-122781588D01*
X150823244Y-122780547D01*
X150791491Y-122774804D01*
X150776967Y-122762051D01*
X150771371Y-122739981D01*
X150771188Y-122732857D01*
X150785383Y-122685983D01*
X150823003Y-122612616D01*
X150883137Y-122514595D01*
X150944132Y-122417225D01*
X151009263Y-122298566D01*
X151053137Y-122191095D01*
X151076519Y-122087288D01*
X151080175Y-121979622D01*
X151064869Y-121860571D01*
X151031368Y-121722611D01*
X150980438Y-121558219D01*
X150914335Y-121346391D01*
X150864989Y-121160995D01*
X150831311Y-120996377D01*
X150812034Y-120846339D01*
X150805890Y-120704684D01*
X150805890Y-120523254D01*
X150753879Y-120522996D01*
X150693739Y-120518326D01*
X150638474Y-120502679D01*
X150611236Y-120478836D01*
X150609589Y-120465424D01*
X151146321Y-120465424D01*
X151148765Y-120484203D01*
X151167395Y-120500302D01*
X151213110Y-120504341D01*
X151220788Y-120504189D01*
X151265218Y-120496511D01*
X151287100Y-120480700D01*
X151287433Y-120479549D01*
X151294670Y-120449552D01*
X151307838Y-120391251D01*
X151325177Y-120312543D01*
X151344927Y-120221326D01*
X151397435Y-120002896D01*
X151495131Y-119691492D01*
X151613789Y-119409767D01*
X151754230Y-119156102D01*
X151917277Y-118928877D01*
X152103751Y-118726475D01*
X152274963Y-118577941D01*
X152516563Y-118412702D01*
X152782009Y-118276468D01*
X153070815Y-118169445D01*
X153382495Y-118091837D01*
X153716563Y-118043852D01*
X153849503Y-118035276D01*
X154135816Y-118043572D01*
X154433547Y-118087392D01*
X154742872Y-118166786D01*
X155063964Y-118281804D01*
X155396999Y-118432495D01*
X155742152Y-118618910D01*
X155921824Y-118723405D01*
X155957281Y-118667436D01*
X155961684Y-118660343D01*
X155981381Y-118623293D01*
X155985650Y-118604556D01*
X155980881Y-118600566D01*
X155945132Y-118577028D01*
X155884010Y-118540723D01*
X155803882Y-118495182D01*
X155711113Y-118443936D01*
X155612071Y-118390514D01*
X155513122Y-118338446D01*
X155420633Y-118291263D01*
X155335791Y-118249622D01*
X155064171Y-118128253D01*
X154808250Y-118034189D01*
X154561695Y-117965889D01*
X154318176Y-117921811D01*
X154071361Y-117900412D01*
X153814920Y-117900151D01*
X153736872Y-117903928D01*
X153405048Y-117940649D01*
X153091375Y-118009730D01*
X152796833Y-118110564D01*
X152522400Y-118242543D01*
X152269053Y-118405057D01*
X152037771Y-118597500D01*
X151829532Y-118819262D01*
X151645314Y-119069735D01*
X151486096Y-119348311D01*
X151446773Y-119432326D01*
X151393722Y-119560551D01*
X151340844Y-119703020D01*
X151290268Y-119852742D01*
X151244118Y-120002724D01*
X151204522Y-120145975D01*
X151173606Y-120275504D01*
X151153497Y-120384317D01*
X151146321Y-120465424D01*
X150609589Y-120465424D01*
X150607341Y-120447123D01*
X150608328Y-120383526D01*
X150614022Y-120297091D01*
X150623618Y-120195378D01*
X150636311Y-120085950D01*
X150651294Y-119976367D01*
X150667764Y-119874191D01*
X150684914Y-119786984D01*
X150707425Y-119692327D01*
X150805863Y-119373356D01*
X150935334Y-119074241D01*
X151097199Y-118792527D01*
X151292816Y-118525757D01*
X151523546Y-118271474D01*
X151616819Y-118181562D01*
X151881915Y-117960152D01*
X152164694Y-117771923D01*
X152466126Y-117616350D01*
X152787180Y-117492909D01*
X153128824Y-117401073D01*
X153147579Y-117397193D01*
X153281167Y-117376594D01*
X153441451Y-117361344D01*
X153619169Y-117351660D01*
X153805058Y-117347761D01*
X153989854Y-117349867D01*
X154164294Y-117358196D01*
X154319116Y-117372967D01*
X154386383Y-117382144D01*
X154704257Y-117441118D01*
X155025631Y-117524912D01*
X155342529Y-117630633D01*
X155646975Y-117755388D01*
X155930992Y-117896282D01*
X156186604Y-118050423D01*
X156220560Y-118074581D01*
X156259504Y-118112449D01*
X156275548Y-118152757D01*
X156268683Y-118202413D01*
X156238899Y-118268329D01*
X156186187Y-118357413D01*
X156168979Y-118385667D01*
X156134849Y-118446515D01*
X156113321Y-118492191D01*
X156108468Y-118514468D01*
X156118893Y-118524839D01*
X156154723Y-118551890D01*
X156204949Y-118585353D01*
X156210281Y-118588869D01*
X156228996Y-118604556D01*
X156263456Y-118633441D01*
G37*
%TD*%
M02*
