M48
; DRILL file {KiCad 7.0.9-7.0.9~ubuntu22.04.1} date Thu 28 Dec 2023 10:57:10 PM PST
; FORMAT={-:-/ absolute / metric / decimal}
; #@! TF.CreationDate,2023-12-28T22:57:10-08:00
; #@! TF.GenerationSoftware,Kicad,Pcbnew,7.0.9-7.0.9~ubuntu22.04.1
; #@! TF.FileFunction,MixedPlating,1,2
FMAT,2
METRIC
; #@! TA.AperFunction,Plated,PTH,ComponentDrill
T1C0.635
; #@! TA.AperFunction,Plated,PTH,ComponentDrill
T2C1.270
; #@! TA.AperFunction,Plated,PTH,ComponentDrill
T3C3.658
; #@! TA.AperFunction,NonPlated,NPTH,ComponentDrill
T4C5.000
%
G90
G05
T1
X89.154Y-105.08
X89.987Y-103.068
X89.987Y-107.091
X91.999Y-102.235
X91.999Y-107.925
X94.01Y-103.068
X94.01Y-107.091
X94.844Y-105.08
X102.207Y-128.27
X102.207Y-129.286
X102.207Y-130.302
X102.207Y-131.318
X102.207Y-132.334
X105.509Y-128.27
X105.509Y-129.286
X105.509Y-130.302
X105.509Y-131.318
X105.509Y-132.334
X110.081Y-128.27
X110.081Y-129.286
X110.081Y-130.302
X110.081Y-131.318
X110.081Y-132.334
X113.383Y-128.27
X113.383Y-129.286
X113.383Y-130.302
X113.383Y-131.318
X113.383Y-132.334
X117.653Y-105.08
X118.486Y-103.068
X118.486Y-107.091
X120.498Y-102.235
X120.498Y-107.925
X122.509Y-103.068
X122.509Y-107.091
X123.342Y-105.08
T3
X91.999Y-105.08
X120.498Y-105.08
T4
X99.746Y-110.388
X112.751Y-110.363
T2
X103.858Y-132.283G85X103.858Y-128.321
G05
X111.732Y-132.283G85X111.732Y-128.321
G05
T0
M30
