%TF.GenerationSoftware,KiCad,Pcbnew,8.0.4-8.0.4-0~ubuntu22.04.1*%
%TF.CreationDate,2024-07-29T20:28:28-07:00*%
%TF.ProjectId,kraken-pwm-controller,6b72616b-656e-42d7-9077-6d2d636f6e74,rev?*%
%TF.SameCoordinates,Original*%
%TF.FileFunction,Copper,L2,Bot*%
%TF.FilePolarity,Positive*%
%FSLAX46Y46*%
G04 Gerber Fmt 4.6, Leading zero omitted, Abs format (unit mm)*
G04 Created by KiCad (PCBNEW 8.0.4-8.0.4-0~ubuntu22.04.1) date 2024-07-29 20:28:28*
%MOMM*%
%LPD*%
G01*
G04 APERTURE LIST*
%TA.AperFunction,ComponentPad*%
%ADD10C,1.800000*%
%TD*%
%TA.AperFunction,ComponentPad*%
%ADD11C,4.460000*%
%TD*%
%TA.AperFunction,ComponentPad*%
%ADD12C,1.676400*%
%TD*%
%TA.AperFunction,ComponentPad*%
%ADD13O,1.508000X3.016000*%
%TD*%
%TA.AperFunction,ComponentPad*%
%ADD14O,3.016000X1.508000*%
%TD*%
%TA.AperFunction,ComponentPad*%
%ADD15R,1.295400X1.295400*%
%TD*%
%TA.AperFunction,ComponentPad*%
%ADD16C,1.295400*%
%TD*%
%TA.AperFunction,ComponentPad*%
%ADD17R,1.320800X1.320800*%
%TD*%
%TA.AperFunction,ComponentPad*%
%ADD18C,1.320800*%
%TD*%
%TA.AperFunction,ComponentPad*%
%ADD19R,2.000000X1.905000*%
%TD*%
%TA.AperFunction,ComponentPad*%
%ADD20O,2.000000X1.905000*%
%TD*%
%TA.AperFunction,ViaPad*%
%ADD21C,1.143000*%
%TD*%
%TA.AperFunction,Conductor*%
%ADD22C,0.635000*%
%TD*%
%TA.AperFunction,Conductor*%
%ADD23C,0.508000*%
%TD*%
G04 APERTURE END LIST*
D10*
%TO.P,RV1,1,1*%
%TO.N,3v3*%
X150242000Y-100076000D03*
%TO.P,RV1,2,2*%
%TO.N,Net-(U2-GP26)*%
X147742000Y-100076000D03*
%TO.P,RV1,3,3*%
%TO.N,GND*%
X145242000Y-100076000D03*
D11*
%TO.P,RV1,4*%
%TO.N,N/C*%
X152142000Y-107076000D03*
%TO.P,RV1,5*%
X143342000Y-107076000D03*
%TD*%
D12*
%TO.P,J2,1,Pin_1*%
%TO.N,Net-(J2-Pin_1)*%
X136093800Y-73406000D03*
%TO.P,J2,2,Pin_2*%
%TO.N,GND*%
X138633800Y-73406000D03*
%TD*%
%TO.P,J4,1,Pin_1*%
%TO.N,Net-(J4-Pin_1)*%
X113367400Y-73406000D03*
%TO.P,J4,2,Pin_2*%
%TO.N,GND*%
X115907400Y-73406000D03*
%TD*%
D13*
%TO.P,J5,1*%
%TO.N,Net-(U1-VI)*%
X148440000Y-87025000D03*
%TO.P,J5,2*%
%TO.N,GND*%
X154440000Y-87025000D03*
D14*
%TO.P,J5,3*%
X151440000Y-82325000D03*
%TD*%
D10*
%TO.P,RV3,1,1*%
%TO.N,3v3*%
X117522000Y-100076000D03*
%TO.P,RV3,2,2*%
%TO.N,Net-(U2-GP28)*%
X115022000Y-100076000D03*
%TO.P,RV3,3,3*%
%TO.N,GND*%
X112522000Y-100076000D03*
D11*
%TO.P,RV3,4*%
%TO.N,N/C*%
X119422000Y-107076000D03*
%TO.P,RV3,5*%
X110622000Y-107076000D03*
%TD*%
D12*
%TO.P,J1,1,Pin_1*%
%TO.N,Net-(J1-Pin_1)*%
X147320000Y-73406000D03*
%TO.P,J1,2,Pin_2*%
%TO.N,unconnected-(J1-Pin_2-Pad2)*%
X149860000Y-73406000D03*
%TD*%
%TO.P,J3,1,Pin_1*%
%TO.N,Net-(J3-Pin_1)*%
X124730600Y-73406000D03*
%TO.P,J3,2,Pin_2*%
%TO.N,GND*%
X127270600Y-73406000D03*
%TD*%
D15*
%TO.P,U4,1*%
%TO.N,Net-(U2-GP0)*%
X122428000Y-94488000D03*
D16*
%TO.P,U4,2*%
X122428000Y-91948000D03*
%TO.P,U4,3*%
%TO.N,Net-(J1-Pin_1)*%
X122428000Y-89408000D03*
%TO.P,U4,4*%
%TO.N,Net-(U2-GP1)*%
X122428000Y-86868000D03*
%TO.P,U4,5*%
X122428000Y-84328000D03*
%TO.P,U4,6*%
%TO.N,Net-(J2-Pin_1)*%
X122428000Y-81788000D03*
%TO.P,U4,7,GND*%
%TO.N,GND*%
X122428000Y-79248000D03*
%TO.P,U4,8*%
%TO.N,Net-(J3-Pin_1)*%
X114808000Y-79248000D03*
%TO.P,U4,9*%
%TO.N,Net-(U2-GP8)*%
X114808000Y-81788000D03*
%TO.P,U4,10*%
X114808000Y-84328000D03*
%TO.P,U4,11*%
%TO.N,Net-(J4-Pin_1)*%
X114808000Y-86868000D03*
%TO.P,U4,12*%
%TO.N,Net-(U2-GP9)*%
X114808000Y-89408000D03*
%TO.P,U4,13*%
X114808000Y-91948000D03*
%TO.P,U4,14,VCC*%
%TO.N,+5V*%
X114808000Y-94488000D03*
%TD*%
D17*
%TO.P,C3,1*%
%TO.N,+5V*%
X127000000Y-89408000D03*
D18*
%TO.P,C3,2*%
%TO.N,GND*%
X127000000Y-84328000D03*
%TD*%
D19*
%TO.P,U1,1,VI*%
%TO.N,Net-(U1-VI)*%
X135382000Y-89408000D03*
D20*
%TO.P,U1,2,GND*%
%TO.N,GND*%
X135382000Y-86868000D03*
%TO.P,U1,3,VO*%
%TO.N,+5V*%
X135382000Y-84328000D03*
%TD*%
D17*
%TO.P,C1,1*%
%TO.N,GND*%
X128524000Y-94742000D03*
D18*
%TO.P,C1,2*%
%TO.N,Net-(U1-VI)*%
X133604000Y-94742000D03*
%TD*%
D10*
%TO.P,RV2,1,1*%
%TO.N,3v3*%
X133882000Y-100076000D03*
%TO.P,RV2,2,2*%
%TO.N,Net-(U2-GP27)*%
X131382000Y-100076000D03*
%TO.P,RV2,3,3*%
%TO.N,GND*%
X128882000Y-100076000D03*
D11*
%TO.P,RV2,4*%
%TO.N,N/C*%
X135782000Y-107076000D03*
%TO.P,RV2,5*%
X126982000Y-107076000D03*
%TD*%
D21*
%TO.N,GND*%
X101346000Y-93472000D03*
X88138000Y-106172000D03*
X88138000Y-80772000D03*
X101346000Y-106172000D03*
X101346000Y-68072000D03*
X88138000Y-93472000D03*
X87630000Y-68072000D03*
X101346000Y-80772000D03*
%TO.N,+5V*%
X110286447Y-72948447D03*
X110236000Y-69850000D03*
%TO.N,Net-(U2-GP0)*%
X101346000Y-88138000D03*
X111506000Y-88138000D03*
%TO.N,Net-(U2-GP1)*%
X99822000Y-84836000D03*
X113030000Y-84836000D03*
%TO.N,Net-(U2-GP8)*%
X97409000Y-81915000D03*
%TO.N,Net-(U2-GP9)*%
X101346000Y-90932000D03*
%TD*%
D22*
%TO.N,+5V*%
X110236000Y-69850000D02*
X110236000Y-72898000D01*
X110236000Y-72898000D02*
X110286447Y-72948447D01*
D23*
%TO.N,Net-(U2-GP0)*%
X111506000Y-88138000D02*
X101346000Y-88138000D01*
%TO.N,Net-(U2-GP1)*%
X99822000Y-84836000D02*
X113030000Y-84836000D01*
%TO.N,Net-(U2-GP8)*%
X97409000Y-81915000D02*
X114681000Y-81915000D01*
X114681000Y-81915000D02*
X114808000Y-81788000D01*
%TO.N,Net-(U2-GP9)*%
X101346000Y-90932000D02*
X113030000Y-90932000D01*
X114046000Y-91948000D02*
X114808000Y-91948000D01*
X114808000Y-89408000D02*
X114681000Y-89535000D01*
X113030000Y-90932000D02*
X114046000Y-91948000D01*
%TD*%
%TA.AperFunction,Conductor*%
%TO.N,GND*%
G36*
X158185039Y-68599685D02*
G01*
X158230794Y-68652489D01*
X158242000Y-68704000D01*
X158242000Y-105032000D01*
X158222315Y-105099039D01*
X158169511Y-105144794D01*
X158118000Y-105156000D01*
X154432000Y-105156000D01*
X154432000Y-87825000D01*
X154505826Y-87825000D01*
X154632993Y-87790925D01*
X154690000Y-87758012D01*
X154690000Y-89009034D01*
X154733644Y-89002123D01*
X154921373Y-88941126D01*
X155097242Y-88851514D01*
X155256919Y-88735503D01*
X155256924Y-88735499D01*
X155396499Y-88595924D01*
X155396503Y-88595919D01*
X155512514Y-88436242D01*
X155602126Y-88260373D01*
X155663123Y-88072646D01*
X155694000Y-87877697D01*
X155694000Y-87275000D01*
X154940000Y-87275000D01*
X154940000Y-86775000D01*
X155694000Y-86775000D01*
X155694000Y-86172302D01*
X155663123Y-85977353D01*
X155602126Y-85789626D01*
X155512514Y-85613757D01*
X155396503Y-85454080D01*
X155396499Y-85454075D01*
X155256924Y-85314500D01*
X155256919Y-85314496D01*
X155097242Y-85198485D01*
X154921371Y-85108873D01*
X154733642Y-85047876D01*
X154690000Y-85040963D01*
X154690000Y-86291988D01*
X154632993Y-86259075D01*
X154505826Y-86225000D01*
X154432000Y-86225000D01*
X154432000Y-68580000D01*
X154649541Y-68580000D01*
X158118000Y-68580000D01*
X158185039Y-68599685D01*
G37*
%TD.AperFunction*%
%TD*%
%TA.AperFunction,Conductor*%
%TO.N,GND*%
G36*
X154628444Y-60979685D02*
G01*
X154674199Y-61032489D01*
X154685403Y-61084592D01*
X154649540Y-68580000D01*
X154432000Y-68580000D01*
X154432000Y-86225000D01*
X154374174Y-86225000D01*
X154247007Y-86259075D01*
X154190000Y-86291988D01*
X154190000Y-85040963D01*
X154146357Y-85047876D01*
X154146356Y-85047876D01*
X153958628Y-85108873D01*
X153782757Y-85198485D01*
X153623080Y-85314496D01*
X153623075Y-85314500D01*
X153483500Y-85454075D01*
X153483496Y-85454080D01*
X153367485Y-85613757D01*
X153277873Y-85789626D01*
X153216876Y-85977353D01*
X153186000Y-86172302D01*
X153186000Y-86775000D01*
X153940000Y-86775000D01*
X153940000Y-87275000D01*
X153186000Y-87275000D01*
X153186000Y-87877697D01*
X153216876Y-88072646D01*
X153277873Y-88260373D01*
X153367485Y-88436242D01*
X153483496Y-88595919D01*
X153483500Y-88595924D01*
X153623075Y-88735499D01*
X153623080Y-88735503D01*
X153782757Y-88851514D01*
X153958626Y-88941126D01*
X154146355Y-89002123D01*
X154189999Y-89009034D01*
X154190000Y-89009034D01*
X154190000Y-87758012D01*
X154247007Y-87790925D01*
X154374174Y-87825000D01*
X154432000Y-87825000D01*
X154432000Y-105156000D01*
X154474536Y-105156000D01*
X154473090Y-105458166D01*
X154453084Y-105525111D01*
X154400062Y-105570613D01*
X154330857Y-105580225D01*
X154267441Y-105550896D01*
X154251480Y-105534046D01*
X154100305Y-105341086D01*
X153876913Y-105117694D01*
X153628216Y-104922853D01*
X153628215Y-104922852D01*
X153628212Y-104922850D01*
X153357843Y-104759405D01*
X153069743Y-104629742D01*
X153069738Y-104629740D01*
X153069735Y-104629739D01*
X153069724Y-104629735D01*
X152768114Y-104535750D01*
X152457352Y-104478802D01*
X152142000Y-104459727D01*
X151826647Y-104478802D01*
X151515885Y-104535750D01*
X151214275Y-104629735D01*
X151214264Y-104629739D01*
X150926156Y-104759405D01*
X150655783Y-104922853D01*
X150407086Y-105117694D01*
X150183694Y-105341086D01*
X149988853Y-105589783D01*
X149825405Y-105860156D01*
X149695739Y-106148264D01*
X149695735Y-106148275D01*
X149601750Y-106449885D01*
X149544802Y-106760647D01*
X149525727Y-107076000D01*
X149544802Y-107391352D01*
X149601750Y-107702114D01*
X149695735Y-108003724D01*
X149695739Y-108003735D01*
X149695740Y-108003738D01*
X149695742Y-108003743D01*
X149825405Y-108291843D01*
X149988850Y-108562212D01*
X149988852Y-108562215D01*
X149988853Y-108562216D01*
X150183694Y-108810913D01*
X150407086Y-109034305D01*
X150407090Y-109034308D01*
X150655788Y-109229150D01*
X150926157Y-109392595D01*
X151214257Y-109522258D01*
X151214267Y-109522261D01*
X151214275Y-109522264D01*
X151515885Y-109616249D01*
X151826643Y-109673197D01*
X152142000Y-109692273D01*
X152457357Y-109673197D01*
X152768115Y-109616249D01*
X153069743Y-109522258D01*
X153357843Y-109392595D01*
X153628212Y-109229150D01*
X153876910Y-109034308D01*
X154100308Y-108810910D01*
X154235898Y-108637841D01*
X154292735Y-108597211D01*
X154362520Y-108593758D01*
X154423093Y-108628582D01*
X154455223Y-108690625D01*
X154457506Y-108714909D01*
X154432590Y-113922593D01*
X154412584Y-113989538D01*
X154359562Y-114035040D01*
X154308591Y-114046000D01*
X82420000Y-114046000D01*
X82352961Y-114026315D01*
X82307206Y-113973511D01*
X82296000Y-113922000D01*
X82296000Y-107076000D01*
X108005727Y-107076000D01*
X108024802Y-107391352D01*
X108081750Y-107702114D01*
X108175735Y-108003724D01*
X108175739Y-108003735D01*
X108175740Y-108003738D01*
X108175742Y-108003743D01*
X108305405Y-108291843D01*
X108468850Y-108562212D01*
X108468852Y-108562215D01*
X108468853Y-108562216D01*
X108663694Y-108810913D01*
X108887086Y-109034305D01*
X108887090Y-109034308D01*
X109135788Y-109229150D01*
X109406157Y-109392595D01*
X109694257Y-109522258D01*
X109694267Y-109522261D01*
X109694275Y-109522264D01*
X109995885Y-109616249D01*
X110306643Y-109673197D01*
X110622000Y-109692273D01*
X110937357Y-109673197D01*
X111248115Y-109616249D01*
X111549743Y-109522258D01*
X111837843Y-109392595D01*
X112108212Y-109229150D01*
X112356910Y-109034308D01*
X112580308Y-108810910D01*
X112775150Y-108562212D01*
X112938595Y-108291843D01*
X113068258Y-108003743D01*
X113162249Y-107702115D01*
X113219197Y-107391357D01*
X113238273Y-107076000D01*
X116805727Y-107076000D01*
X116824802Y-107391352D01*
X116881750Y-107702114D01*
X116975735Y-108003724D01*
X116975739Y-108003735D01*
X116975740Y-108003738D01*
X116975742Y-108003743D01*
X117105405Y-108291843D01*
X117268850Y-108562212D01*
X117268852Y-108562215D01*
X117268853Y-108562216D01*
X117463694Y-108810913D01*
X117687086Y-109034305D01*
X117687090Y-109034308D01*
X117935788Y-109229150D01*
X118206157Y-109392595D01*
X118494257Y-109522258D01*
X118494267Y-109522261D01*
X118494275Y-109522264D01*
X118795885Y-109616249D01*
X119106643Y-109673197D01*
X119422000Y-109692273D01*
X119737357Y-109673197D01*
X120048115Y-109616249D01*
X120349743Y-109522258D01*
X120637843Y-109392595D01*
X120908212Y-109229150D01*
X121156910Y-109034308D01*
X121380308Y-108810910D01*
X121575150Y-108562212D01*
X121738595Y-108291843D01*
X121868258Y-108003743D01*
X121962249Y-107702115D01*
X122019197Y-107391357D01*
X122038273Y-107076000D01*
X124365727Y-107076000D01*
X124384802Y-107391352D01*
X124441750Y-107702114D01*
X124535735Y-108003724D01*
X124535739Y-108003735D01*
X124535740Y-108003738D01*
X124535742Y-108003743D01*
X124665405Y-108291843D01*
X124828850Y-108562212D01*
X124828852Y-108562215D01*
X124828853Y-108562216D01*
X125023694Y-108810913D01*
X125247086Y-109034305D01*
X125247090Y-109034308D01*
X125495788Y-109229150D01*
X125766157Y-109392595D01*
X126054257Y-109522258D01*
X126054267Y-109522261D01*
X126054275Y-109522264D01*
X126355885Y-109616249D01*
X126666643Y-109673197D01*
X126982000Y-109692273D01*
X127297357Y-109673197D01*
X127608115Y-109616249D01*
X127909743Y-109522258D01*
X128197843Y-109392595D01*
X128468212Y-109229150D01*
X128716910Y-109034308D01*
X128940308Y-108810910D01*
X129135150Y-108562212D01*
X129298595Y-108291843D01*
X129428258Y-108003743D01*
X129522249Y-107702115D01*
X129579197Y-107391357D01*
X129598273Y-107076000D01*
X133165727Y-107076000D01*
X133184802Y-107391352D01*
X133241750Y-107702114D01*
X133335735Y-108003724D01*
X133335739Y-108003735D01*
X133335740Y-108003738D01*
X133335742Y-108003743D01*
X133465405Y-108291843D01*
X133628850Y-108562212D01*
X133628852Y-108562215D01*
X133628853Y-108562216D01*
X133823694Y-108810913D01*
X134047086Y-109034305D01*
X134047090Y-109034308D01*
X134295788Y-109229150D01*
X134566157Y-109392595D01*
X134854257Y-109522258D01*
X134854267Y-109522261D01*
X134854275Y-109522264D01*
X135155885Y-109616249D01*
X135466643Y-109673197D01*
X135782000Y-109692273D01*
X136097357Y-109673197D01*
X136408115Y-109616249D01*
X136709743Y-109522258D01*
X136997843Y-109392595D01*
X137268212Y-109229150D01*
X137516910Y-109034308D01*
X137740308Y-108810910D01*
X137935150Y-108562212D01*
X138098595Y-108291843D01*
X138228258Y-108003743D01*
X138322249Y-107702115D01*
X138379197Y-107391357D01*
X138398273Y-107076000D01*
X140725727Y-107076000D01*
X140744802Y-107391352D01*
X140801750Y-107702114D01*
X140895735Y-108003724D01*
X140895739Y-108003735D01*
X140895740Y-108003738D01*
X140895742Y-108003743D01*
X141025405Y-108291843D01*
X141188850Y-108562212D01*
X141188852Y-108562215D01*
X141188853Y-108562216D01*
X141383694Y-108810913D01*
X141607086Y-109034305D01*
X141607090Y-109034308D01*
X141855788Y-109229150D01*
X142126157Y-109392595D01*
X142414257Y-109522258D01*
X142414267Y-109522261D01*
X142414275Y-109522264D01*
X142715885Y-109616249D01*
X143026643Y-109673197D01*
X143342000Y-109692273D01*
X143657357Y-109673197D01*
X143968115Y-109616249D01*
X144269743Y-109522258D01*
X144557843Y-109392595D01*
X144828212Y-109229150D01*
X145076910Y-109034308D01*
X145300308Y-108810910D01*
X145495150Y-108562212D01*
X145658595Y-108291843D01*
X145788258Y-108003743D01*
X145882249Y-107702115D01*
X145939197Y-107391357D01*
X145958273Y-107076000D01*
X145939197Y-106760643D01*
X145882249Y-106449885D01*
X145788258Y-106148257D01*
X145658595Y-105860157D01*
X145495150Y-105589788D01*
X145300308Y-105341090D01*
X145300305Y-105341086D01*
X145076913Y-105117694D01*
X144828216Y-104922853D01*
X144828215Y-104922852D01*
X144828212Y-104922850D01*
X144557843Y-104759405D01*
X144269743Y-104629742D01*
X144269738Y-104629740D01*
X144269735Y-104629739D01*
X144269724Y-104629735D01*
X143968114Y-104535750D01*
X143657352Y-104478802D01*
X143342000Y-104459727D01*
X143026647Y-104478802D01*
X142715885Y-104535750D01*
X142414275Y-104629735D01*
X142414264Y-104629739D01*
X142126156Y-104759405D01*
X141855783Y-104922853D01*
X141607086Y-105117694D01*
X141383694Y-105341086D01*
X141188853Y-105589783D01*
X141025405Y-105860156D01*
X140895739Y-106148264D01*
X140895735Y-106148275D01*
X140801750Y-106449885D01*
X140744802Y-106760647D01*
X140725727Y-107076000D01*
X138398273Y-107076000D01*
X138379197Y-106760643D01*
X138322249Y-106449885D01*
X138228258Y-106148257D01*
X138098595Y-105860157D01*
X137935150Y-105589788D01*
X137740308Y-105341090D01*
X137740305Y-105341086D01*
X137516913Y-105117694D01*
X137268216Y-104922853D01*
X137268215Y-104922852D01*
X137268212Y-104922850D01*
X136997843Y-104759405D01*
X136709743Y-104629742D01*
X136709738Y-104629740D01*
X136709735Y-104629739D01*
X136709724Y-104629735D01*
X136408114Y-104535750D01*
X136097352Y-104478802D01*
X135782000Y-104459727D01*
X135466647Y-104478802D01*
X135155885Y-104535750D01*
X134854275Y-104629735D01*
X134854264Y-104629739D01*
X134566156Y-104759405D01*
X134295783Y-104922853D01*
X134047086Y-105117694D01*
X133823694Y-105341086D01*
X133628853Y-105589783D01*
X133465405Y-105860156D01*
X133335739Y-106148264D01*
X133335735Y-106148275D01*
X133241750Y-106449885D01*
X133184802Y-106760647D01*
X133165727Y-107076000D01*
X129598273Y-107076000D01*
X129579197Y-106760643D01*
X129522249Y-106449885D01*
X129428258Y-106148257D01*
X129298595Y-105860157D01*
X129135150Y-105589788D01*
X128940308Y-105341090D01*
X128940305Y-105341086D01*
X128716913Y-105117694D01*
X128468216Y-104922853D01*
X128468215Y-104922852D01*
X128468212Y-104922850D01*
X128197843Y-104759405D01*
X127909743Y-104629742D01*
X127909738Y-104629740D01*
X127909735Y-104629739D01*
X127909724Y-104629735D01*
X127608114Y-104535750D01*
X127297352Y-104478802D01*
X126982000Y-104459727D01*
X126666647Y-104478802D01*
X126355885Y-104535750D01*
X126054275Y-104629735D01*
X126054264Y-104629739D01*
X125766156Y-104759405D01*
X125495783Y-104922853D01*
X125247086Y-105117694D01*
X125023694Y-105341086D01*
X124828853Y-105589783D01*
X124665405Y-105860156D01*
X124535739Y-106148264D01*
X124535735Y-106148275D01*
X124441750Y-106449885D01*
X124384802Y-106760647D01*
X124365727Y-107076000D01*
X122038273Y-107076000D01*
X122019197Y-106760643D01*
X121962249Y-106449885D01*
X121868258Y-106148257D01*
X121738595Y-105860157D01*
X121575150Y-105589788D01*
X121380308Y-105341090D01*
X121380305Y-105341086D01*
X121156913Y-105117694D01*
X120908216Y-104922853D01*
X120908215Y-104922852D01*
X120908212Y-104922850D01*
X120637843Y-104759405D01*
X120349743Y-104629742D01*
X120349738Y-104629740D01*
X120349735Y-104629739D01*
X120349724Y-104629735D01*
X120048114Y-104535750D01*
X119737352Y-104478802D01*
X119422000Y-104459727D01*
X119106647Y-104478802D01*
X118795885Y-104535750D01*
X118494275Y-104629735D01*
X118494264Y-104629739D01*
X118206156Y-104759405D01*
X117935783Y-104922853D01*
X117687086Y-105117694D01*
X117463694Y-105341086D01*
X117268853Y-105589783D01*
X117105405Y-105860156D01*
X116975739Y-106148264D01*
X116975735Y-106148275D01*
X116881750Y-106449885D01*
X116824802Y-106760647D01*
X116805727Y-107076000D01*
X113238273Y-107076000D01*
X113219197Y-106760643D01*
X113162249Y-106449885D01*
X113068258Y-106148257D01*
X112938595Y-105860157D01*
X112775150Y-105589788D01*
X112580308Y-105341090D01*
X112580305Y-105341086D01*
X112356913Y-105117694D01*
X112108216Y-104922853D01*
X112108215Y-104922852D01*
X112108212Y-104922850D01*
X111837843Y-104759405D01*
X111549743Y-104629742D01*
X111549738Y-104629740D01*
X111549735Y-104629739D01*
X111549724Y-104629735D01*
X111248114Y-104535750D01*
X110937352Y-104478802D01*
X110622000Y-104459727D01*
X110306647Y-104478802D01*
X109995885Y-104535750D01*
X109694275Y-104629735D01*
X109694264Y-104629739D01*
X109406156Y-104759405D01*
X109135783Y-104922853D01*
X108887086Y-105117694D01*
X108663694Y-105341086D01*
X108468853Y-105589783D01*
X108305405Y-105860156D01*
X108175739Y-106148264D01*
X108175735Y-106148275D01*
X108081750Y-106449885D01*
X108024802Y-106760647D01*
X108005727Y-107076000D01*
X82296000Y-107076000D01*
X82296000Y-100075994D01*
X111117202Y-100075994D01*
X111117202Y-100076005D01*
X111136361Y-100307218D01*
X111193317Y-100532135D01*
X111286515Y-100744606D01*
X111370812Y-100873633D01*
X111957387Y-100287058D01*
X111962889Y-100307591D01*
X112041881Y-100444408D01*
X112153592Y-100556119D01*
X112290409Y-100635111D01*
X112310940Y-100640612D01*
X111723201Y-101228351D01*
X111753649Y-101252050D01*
X111957697Y-101362476D01*
X111957706Y-101362479D01*
X112177139Y-101437811D01*
X112405993Y-101476000D01*
X112638007Y-101476000D01*
X112866860Y-101437811D01*
X113086293Y-101362479D01*
X113086301Y-101362476D01*
X113290355Y-101252047D01*
X113320797Y-101228351D01*
X113320798Y-101228350D01*
X112733060Y-100640612D01*
X112753591Y-100635111D01*
X112890408Y-100556119D01*
X113002119Y-100444408D01*
X113081111Y-100307591D01*
X113086612Y-100287059D01*
X113673186Y-100873633D01*
X113738448Y-100773744D01*
X113791594Y-100728388D01*
X113860825Y-100718964D01*
X113924161Y-100748466D01*
X113943828Y-100770439D01*
X114036564Y-100902879D01*
X114195121Y-101061436D01*
X114378802Y-101190051D01*
X114582027Y-101284816D01*
X114798620Y-101342852D01*
X114958177Y-101356811D01*
X115021998Y-101362395D01*
X115022000Y-101362395D01*
X115022002Y-101362395D01*
X115077845Y-101357509D01*
X115245380Y-101342852D01*
X115461973Y-101284816D01*
X115665198Y-101190051D01*
X115848879Y-101061436D01*
X116007436Y-100902879D01*
X116136051Y-100719198D01*
X116159618Y-100668657D01*
X116205790Y-100616218D01*
X116272983Y-100597066D01*
X116339864Y-100617281D01*
X116384381Y-100668657D01*
X116407949Y-100719198D01*
X116536564Y-100902879D01*
X116695121Y-101061436D01*
X116878802Y-101190051D01*
X117082027Y-101284816D01*
X117298620Y-101342852D01*
X117458177Y-101356811D01*
X117521998Y-101362395D01*
X117522000Y-101362395D01*
X117522002Y-101362395D01*
X117577845Y-101357509D01*
X117745380Y-101342852D01*
X117961973Y-101284816D01*
X118165198Y-101190051D01*
X118348879Y-101061436D01*
X118507436Y-100902879D01*
X118636051Y-100719198D01*
X118730816Y-100515973D01*
X118788852Y-100299380D01*
X118808395Y-100076000D01*
X118808394Y-100075994D01*
X127477202Y-100075994D01*
X127477202Y-100076005D01*
X127496361Y-100307218D01*
X127553317Y-100532135D01*
X127646515Y-100744606D01*
X127730812Y-100873633D01*
X128317387Y-100287058D01*
X128322889Y-100307591D01*
X128401881Y-100444408D01*
X128513592Y-100556119D01*
X128650409Y-100635111D01*
X128670940Y-100640612D01*
X128083201Y-101228351D01*
X128113649Y-101252050D01*
X128317697Y-101362476D01*
X128317706Y-101362479D01*
X128537139Y-101437811D01*
X128765993Y-101476000D01*
X128998007Y-101476000D01*
X129226860Y-101437811D01*
X129446293Y-101362479D01*
X129446301Y-101362476D01*
X129650355Y-101252047D01*
X129680797Y-101228351D01*
X129680798Y-101228350D01*
X129093060Y-100640612D01*
X129113591Y-100635111D01*
X129250408Y-100556119D01*
X129362119Y-100444408D01*
X129441111Y-100307591D01*
X129446612Y-100287059D01*
X130033186Y-100873633D01*
X130098448Y-100773744D01*
X130151594Y-100728388D01*
X130220825Y-100718964D01*
X130284161Y-100748466D01*
X130303828Y-100770439D01*
X130396564Y-100902879D01*
X130555121Y-101061436D01*
X130738802Y-101190051D01*
X130942027Y-101284816D01*
X131158620Y-101342852D01*
X131318177Y-101356811D01*
X131381998Y-101362395D01*
X131382000Y-101362395D01*
X131382002Y-101362395D01*
X131437845Y-101357509D01*
X131605380Y-101342852D01*
X131821973Y-101284816D01*
X132025198Y-101190051D01*
X132208879Y-101061436D01*
X132367436Y-100902879D01*
X132496051Y-100719198D01*
X132519618Y-100668657D01*
X132565790Y-100616218D01*
X132632983Y-100597066D01*
X132699864Y-100617281D01*
X132744381Y-100668657D01*
X132767949Y-100719198D01*
X132896564Y-100902879D01*
X133055121Y-101061436D01*
X133238802Y-101190051D01*
X133442027Y-101284816D01*
X133658620Y-101342852D01*
X133818177Y-101356811D01*
X133881998Y-101362395D01*
X133882000Y-101362395D01*
X133882002Y-101362395D01*
X133937845Y-101357509D01*
X134105380Y-101342852D01*
X134321973Y-101284816D01*
X134525198Y-101190051D01*
X134708879Y-101061436D01*
X134867436Y-100902879D01*
X134996051Y-100719198D01*
X135090816Y-100515973D01*
X135148852Y-100299380D01*
X135168395Y-100076000D01*
X135168394Y-100075994D01*
X143837202Y-100075994D01*
X143837202Y-100076005D01*
X143856361Y-100307218D01*
X143913317Y-100532135D01*
X144006515Y-100744606D01*
X144090812Y-100873633D01*
X144677387Y-100287058D01*
X144682889Y-100307591D01*
X144761881Y-100444408D01*
X144873592Y-100556119D01*
X145010409Y-100635111D01*
X145030940Y-100640612D01*
X144443201Y-101228351D01*
X144473649Y-101252050D01*
X144677697Y-101362476D01*
X144677706Y-101362479D01*
X144897139Y-101437811D01*
X145125993Y-101476000D01*
X145358007Y-101476000D01*
X145586860Y-101437811D01*
X145806293Y-101362479D01*
X145806301Y-101362476D01*
X146010355Y-101252047D01*
X146040797Y-101228351D01*
X146040798Y-101228350D01*
X145453060Y-100640612D01*
X145473591Y-100635111D01*
X145610408Y-100556119D01*
X145722119Y-100444408D01*
X145801111Y-100307591D01*
X145806612Y-100287059D01*
X146393186Y-100873633D01*
X146458448Y-100773744D01*
X146511594Y-100728388D01*
X146580825Y-100718964D01*
X146644161Y-100748466D01*
X146663828Y-100770439D01*
X146756564Y-100902879D01*
X146915121Y-101061436D01*
X147098802Y-101190051D01*
X147302027Y-101284816D01*
X147518620Y-101342852D01*
X147678177Y-101356811D01*
X147741998Y-101362395D01*
X147742000Y-101362395D01*
X147742002Y-101362395D01*
X147797845Y-101357509D01*
X147965380Y-101342852D01*
X148181973Y-101284816D01*
X148385198Y-101190051D01*
X148568879Y-101061436D01*
X148727436Y-100902879D01*
X148856051Y-100719198D01*
X148879618Y-100668657D01*
X148925790Y-100616218D01*
X148992983Y-100597066D01*
X149059864Y-100617281D01*
X149104381Y-100668657D01*
X149127949Y-100719198D01*
X149256564Y-100902879D01*
X149415121Y-101061436D01*
X149598802Y-101190051D01*
X149802027Y-101284816D01*
X150018620Y-101342852D01*
X150178177Y-101356811D01*
X150241998Y-101362395D01*
X150242000Y-101362395D01*
X150242002Y-101362395D01*
X150297845Y-101357509D01*
X150465380Y-101342852D01*
X150681973Y-101284816D01*
X150885198Y-101190051D01*
X151068879Y-101061436D01*
X151227436Y-100902879D01*
X151356051Y-100719198D01*
X151450816Y-100515973D01*
X151508852Y-100299380D01*
X151528395Y-100076000D01*
X151528394Y-100075994D01*
X151508852Y-99852625D01*
X151508852Y-99852620D01*
X151450816Y-99636027D01*
X151356051Y-99432803D01*
X151227436Y-99249121D01*
X151068879Y-99090564D01*
X150885198Y-98961949D01*
X150681973Y-98867184D01*
X150681969Y-98867183D01*
X150681965Y-98867181D01*
X150465385Y-98809149D01*
X150465381Y-98809148D01*
X150465380Y-98809148D01*
X150465379Y-98809147D01*
X150465374Y-98809147D01*
X150242002Y-98789605D01*
X150241998Y-98789605D01*
X150018625Y-98809147D01*
X150018614Y-98809149D01*
X149802034Y-98867181D01*
X149802025Y-98867185D01*
X149598804Y-98961948D01*
X149598802Y-98961949D01*
X149415118Y-99090565D01*
X149256565Y-99249118D01*
X149127949Y-99432802D01*
X149127948Y-99432804D01*
X149104382Y-99483343D01*
X149058210Y-99535782D01*
X148991016Y-99554934D01*
X148924135Y-99534718D01*
X148879618Y-99483343D01*
X148856051Y-99432804D01*
X148856050Y-99432802D01*
X148855750Y-99432374D01*
X148727436Y-99249121D01*
X148568879Y-99090564D01*
X148385198Y-98961949D01*
X148181973Y-98867184D01*
X148181969Y-98867183D01*
X148181965Y-98867181D01*
X147965385Y-98809149D01*
X147965381Y-98809148D01*
X147965380Y-98809148D01*
X147965379Y-98809147D01*
X147965374Y-98809147D01*
X147742002Y-98789605D01*
X147741998Y-98789605D01*
X147518625Y-98809147D01*
X147518614Y-98809149D01*
X147302034Y-98867181D01*
X147302025Y-98867185D01*
X147098804Y-98961948D01*
X147098802Y-98961949D01*
X146915118Y-99090565D01*
X146756567Y-99249116D01*
X146663831Y-99381557D01*
X146609254Y-99425182D01*
X146539755Y-99432374D01*
X146477401Y-99400852D01*
X146458447Y-99378254D01*
X146393186Y-99278365D01*
X145806612Y-99864939D01*
X145801111Y-99844409D01*
X145722119Y-99707592D01*
X145610408Y-99595881D01*
X145473591Y-99516889D01*
X145453058Y-99511387D01*
X146040797Y-98923647D01*
X146040797Y-98923645D01*
X146010360Y-98899955D01*
X146010354Y-98899951D01*
X145806302Y-98789523D01*
X145806293Y-98789520D01*
X145586860Y-98714188D01*
X145358007Y-98676000D01*
X145125993Y-98676000D01*
X144897139Y-98714188D01*
X144677706Y-98789520D01*
X144677697Y-98789523D01*
X144473650Y-98899949D01*
X144443200Y-98923647D01*
X145030941Y-99511387D01*
X145010409Y-99516889D01*
X144873592Y-99595881D01*
X144761881Y-99707592D01*
X144682889Y-99844409D01*
X144677387Y-99864941D01*
X144090811Y-99278365D01*
X144006516Y-99407390D01*
X143913317Y-99619864D01*
X143856361Y-99844781D01*
X143837202Y-100075994D01*
X135168394Y-100075994D01*
X135148852Y-99852625D01*
X135148852Y-99852620D01*
X135090816Y-99636027D01*
X134996051Y-99432803D01*
X134867436Y-99249121D01*
X134708879Y-99090564D01*
X134525198Y-98961949D01*
X134321973Y-98867184D01*
X134321969Y-98867183D01*
X134321965Y-98867181D01*
X134105385Y-98809149D01*
X134105381Y-98809148D01*
X134105380Y-98809148D01*
X134105379Y-98809147D01*
X134105374Y-98809147D01*
X133882002Y-98789605D01*
X133881998Y-98789605D01*
X133658625Y-98809147D01*
X133658614Y-98809149D01*
X133442034Y-98867181D01*
X133442025Y-98867185D01*
X133238804Y-98961948D01*
X133238802Y-98961949D01*
X133055118Y-99090565D01*
X132896565Y-99249118D01*
X132767949Y-99432802D01*
X132767948Y-99432804D01*
X132744382Y-99483343D01*
X132698210Y-99535782D01*
X132631016Y-99554934D01*
X132564135Y-99534718D01*
X132519618Y-99483343D01*
X132496051Y-99432804D01*
X132496050Y-99432802D01*
X132495750Y-99432374D01*
X132367436Y-99249121D01*
X132208879Y-99090564D01*
X132025198Y-98961949D01*
X131821973Y-98867184D01*
X131821969Y-98867183D01*
X131821965Y-98867181D01*
X131605385Y-98809149D01*
X131605381Y-98809148D01*
X131605380Y-98809148D01*
X131605379Y-98809147D01*
X131605374Y-98809147D01*
X131382002Y-98789605D01*
X131381998Y-98789605D01*
X131158625Y-98809147D01*
X131158614Y-98809149D01*
X130942034Y-98867181D01*
X130942025Y-98867185D01*
X130738804Y-98961948D01*
X130738802Y-98961949D01*
X130555118Y-99090565D01*
X130396567Y-99249116D01*
X130303831Y-99381557D01*
X130249254Y-99425182D01*
X130179755Y-99432374D01*
X130117401Y-99400852D01*
X130098447Y-99378254D01*
X130033186Y-99278365D01*
X129446612Y-99864939D01*
X129441111Y-99844409D01*
X129362119Y-99707592D01*
X129250408Y-99595881D01*
X129113591Y-99516889D01*
X129093058Y-99511387D01*
X129680797Y-98923647D01*
X129680797Y-98923645D01*
X129650360Y-98899955D01*
X129650354Y-98899951D01*
X129446302Y-98789523D01*
X129446293Y-98789520D01*
X129226860Y-98714188D01*
X128998007Y-98676000D01*
X128765993Y-98676000D01*
X128537139Y-98714188D01*
X128317706Y-98789520D01*
X128317697Y-98789523D01*
X128113650Y-98899949D01*
X128083200Y-98923647D01*
X128670941Y-99511387D01*
X128650409Y-99516889D01*
X128513592Y-99595881D01*
X128401881Y-99707592D01*
X128322889Y-99844409D01*
X128317387Y-99864941D01*
X127730811Y-99278365D01*
X127646516Y-99407390D01*
X127553317Y-99619864D01*
X127496361Y-99844781D01*
X127477202Y-100075994D01*
X118808394Y-100075994D01*
X118788852Y-99852625D01*
X118788852Y-99852620D01*
X118730816Y-99636027D01*
X118636051Y-99432803D01*
X118507436Y-99249121D01*
X118348879Y-99090564D01*
X118165198Y-98961949D01*
X117961973Y-98867184D01*
X117961969Y-98867183D01*
X117961965Y-98867181D01*
X117745385Y-98809149D01*
X117745381Y-98809148D01*
X117745380Y-98809148D01*
X117745379Y-98809147D01*
X117745374Y-98809147D01*
X117522002Y-98789605D01*
X117521998Y-98789605D01*
X117298625Y-98809147D01*
X117298614Y-98809149D01*
X117082034Y-98867181D01*
X117082025Y-98867185D01*
X116878804Y-98961948D01*
X116878802Y-98961949D01*
X116695118Y-99090565D01*
X116536565Y-99249118D01*
X116407949Y-99432802D01*
X116407948Y-99432804D01*
X116384382Y-99483343D01*
X116338210Y-99535782D01*
X116271016Y-99554934D01*
X116204135Y-99534718D01*
X116159618Y-99483343D01*
X116136051Y-99432804D01*
X116136050Y-99432802D01*
X116135750Y-99432374D01*
X116007436Y-99249121D01*
X115848879Y-99090564D01*
X115665198Y-98961949D01*
X115461973Y-98867184D01*
X115461969Y-98867183D01*
X115461965Y-98867181D01*
X115245385Y-98809149D01*
X115245381Y-98809148D01*
X115245380Y-98809148D01*
X115245379Y-98809147D01*
X115245374Y-98809147D01*
X115022002Y-98789605D01*
X115021998Y-98789605D01*
X114798625Y-98809147D01*
X114798614Y-98809149D01*
X114582034Y-98867181D01*
X114582025Y-98867185D01*
X114378804Y-98961948D01*
X114378802Y-98961949D01*
X114195118Y-99090565D01*
X114036567Y-99249116D01*
X113943831Y-99381557D01*
X113889254Y-99425182D01*
X113819755Y-99432374D01*
X113757401Y-99400852D01*
X113738447Y-99378254D01*
X113673186Y-99278365D01*
X113086612Y-99864939D01*
X113081111Y-99844409D01*
X113002119Y-99707592D01*
X112890408Y-99595881D01*
X112753591Y-99516889D01*
X112733058Y-99511387D01*
X113320797Y-98923647D01*
X113320797Y-98923645D01*
X113290360Y-98899955D01*
X113290354Y-98899951D01*
X113086302Y-98789523D01*
X113086293Y-98789520D01*
X112866860Y-98714188D01*
X112638007Y-98676000D01*
X112405993Y-98676000D01*
X112177139Y-98714188D01*
X111957706Y-98789520D01*
X111957697Y-98789523D01*
X111753650Y-98899949D01*
X111723200Y-98923647D01*
X112310941Y-99511387D01*
X112290409Y-99516889D01*
X112153592Y-99595881D01*
X112041881Y-99707592D01*
X111962889Y-99844409D01*
X111957387Y-99864941D01*
X111370811Y-99278365D01*
X111286516Y-99407390D01*
X111193317Y-99619864D01*
X111136361Y-99844781D01*
X111117202Y-100075994D01*
X82296000Y-100075994D01*
X82296000Y-94488000D01*
X113773820Y-94488000D01*
X113793690Y-94689756D01*
X113852544Y-94883769D01*
X113948106Y-95062554D01*
X113948112Y-95062561D01*
X114076723Y-95219276D01*
X114109365Y-95246064D01*
X114203903Y-95323649D01*
X114233438Y-95347887D01*
X114233445Y-95347893D01*
X114412230Y-95443455D01*
X114412236Y-95443458D01*
X114606241Y-95502309D01*
X114808000Y-95522180D01*
X115009759Y-95502309D01*
X115203764Y-95443458D01*
X115256020Y-95415526D01*
X115382554Y-95347893D01*
X115382556Y-95347890D01*
X115382560Y-95347889D01*
X115539276Y-95219276D01*
X115667889Y-95062560D01*
X115667890Y-95062556D01*
X115667893Y-95062554D01*
X115763455Y-94883769D01*
X115763458Y-94883764D01*
X115822309Y-94689759D01*
X115842180Y-94488000D01*
X115822309Y-94286241D01*
X115763458Y-94092236D01*
X115763455Y-94092230D01*
X115667893Y-93913445D01*
X115667887Y-93913438D01*
X115578152Y-93804094D01*
X121398800Y-93804094D01*
X121398800Y-95171906D01*
X121409604Y-95246061D01*
X121409604Y-95246062D01*
X121409605Y-95246064D01*
X121465521Y-95360443D01*
X121465523Y-95360446D01*
X121555553Y-95450476D01*
X121555556Y-95450478D01*
X121661579Y-95502309D01*
X121669939Y-95506396D01*
X121744094Y-95517200D01*
X121744100Y-95517200D01*
X123111900Y-95517200D01*
X123111906Y-95517200D01*
X123186061Y-95506396D01*
X123243253Y-95478436D01*
X123300443Y-95450478D01*
X123300446Y-95450476D01*
X123390476Y-95360446D01*
X123390478Y-95360443D01*
X123418436Y-95303253D01*
X123446396Y-95246061D01*
X123457200Y-95171906D01*
X123457200Y-94033755D01*
X127363600Y-94033755D01*
X127363600Y-94492000D01*
X128199263Y-94492000D01*
X128198799Y-94492464D01*
X128145295Y-94585135D01*
X128117600Y-94688496D01*
X128117600Y-94795504D01*
X128145295Y-94898865D01*
X128198799Y-94991536D01*
X128199263Y-94992000D01*
X127363600Y-94992000D01*
X127363600Y-95450244D01*
X127370001Y-95509772D01*
X127370003Y-95509779D01*
X127420245Y-95644486D01*
X127420249Y-95644493D01*
X127506409Y-95759587D01*
X127506412Y-95759590D01*
X127621506Y-95845750D01*
X127621513Y-95845754D01*
X127756220Y-95895996D01*
X127756227Y-95895998D01*
X127815755Y-95902399D01*
X127815772Y-95902400D01*
X128274000Y-95902400D01*
X128274000Y-95066737D01*
X128274464Y-95067201D01*
X128367135Y-95120705D01*
X128470496Y-95148400D01*
X128577504Y-95148400D01*
X128680865Y-95120705D01*
X128773536Y-95067201D01*
X128774000Y-95066737D01*
X128774000Y-95902400D01*
X129232228Y-95902400D01*
X129232244Y-95902399D01*
X129291772Y-95895998D01*
X129291779Y-95895996D01*
X129426486Y-95845754D01*
X129426493Y-95845750D01*
X129541587Y-95759590D01*
X129541590Y-95759587D01*
X129627750Y-95644493D01*
X129627754Y-95644486D01*
X129677996Y-95509779D01*
X129677998Y-95509772D01*
X129684399Y-95450244D01*
X129684400Y-95450227D01*
X129684400Y-94992000D01*
X128848737Y-94992000D01*
X128849201Y-94991536D01*
X128902705Y-94898865D01*
X128930400Y-94795504D01*
X128930400Y-94742000D01*
X132557059Y-94742000D01*
X132577175Y-94946246D01*
X132636754Y-95142651D01*
X132733498Y-95323647D01*
X132733500Y-95323650D01*
X132863700Y-95482299D01*
X133022349Y-95612499D01*
X133022352Y-95612501D01*
X133203348Y-95709245D01*
X133203350Y-95709245D01*
X133203353Y-95709247D01*
X133399752Y-95768824D01*
X133399751Y-95768824D01*
X133418064Y-95770627D01*
X133604000Y-95788941D01*
X133808248Y-95768824D01*
X134004647Y-95709247D01*
X134185649Y-95612500D01*
X134344299Y-95482299D01*
X134474500Y-95323649D01*
X134571247Y-95142647D01*
X134630824Y-94946248D01*
X134650941Y-94742000D01*
X134630824Y-94537752D01*
X134571247Y-94341353D01*
X134571245Y-94341350D01*
X134571245Y-94341348D01*
X134474501Y-94160352D01*
X134474499Y-94160349D01*
X134344299Y-94001700D01*
X134185650Y-93871500D01*
X134185647Y-93871498D01*
X134004651Y-93774754D01*
X133945210Y-93756723D01*
X133808248Y-93715176D01*
X133808245Y-93715175D01*
X133808248Y-93715175D01*
X133604000Y-93695059D01*
X133399753Y-93715175D01*
X133203348Y-93774754D01*
X133022352Y-93871498D01*
X133022349Y-93871500D01*
X132863700Y-94001700D01*
X132733500Y-94160349D01*
X132733498Y-94160352D01*
X132636754Y-94341348D01*
X132577175Y-94537753D01*
X132557059Y-94742000D01*
X128930400Y-94742000D01*
X128930400Y-94688496D01*
X128902705Y-94585135D01*
X128849201Y-94492464D01*
X128848737Y-94492000D01*
X129684400Y-94492000D01*
X129684400Y-94033772D01*
X129684399Y-94033755D01*
X129677998Y-93974227D01*
X129677996Y-93974220D01*
X129627754Y-93839513D01*
X129627750Y-93839506D01*
X129541590Y-93724412D01*
X129541587Y-93724409D01*
X129426493Y-93638249D01*
X129426486Y-93638245D01*
X129291779Y-93588003D01*
X129291772Y-93588001D01*
X129232244Y-93581600D01*
X128774000Y-93581600D01*
X128774000Y-94417263D01*
X128773536Y-94416799D01*
X128680865Y-94363295D01*
X128577504Y-94335600D01*
X128470496Y-94335600D01*
X128367135Y-94363295D01*
X128274464Y-94416799D01*
X128274000Y-94417263D01*
X128274000Y-93581600D01*
X127815755Y-93581600D01*
X127756227Y-93588001D01*
X127756220Y-93588003D01*
X127621513Y-93638245D01*
X127621506Y-93638249D01*
X127506412Y-93724409D01*
X127506409Y-93724412D01*
X127420249Y-93839506D01*
X127420245Y-93839513D01*
X127370003Y-93974220D01*
X127370001Y-93974227D01*
X127363600Y-94033755D01*
X123457200Y-94033755D01*
X123457200Y-93804094D01*
X123446396Y-93729939D01*
X123429344Y-93695059D01*
X123390478Y-93615556D01*
X123390476Y-93615553D01*
X123300446Y-93525523D01*
X123300443Y-93525521D01*
X123186064Y-93469605D01*
X123186062Y-93469604D01*
X123186061Y-93469604D01*
X123111906Y-93458800D01*
X121744094Y-93458800D01*
X121669939Y-93469604D01*
X121669937Y-93469604D01*
X121669935Y-93469605D01*
X121555556Y-93525521D01*
X121555553Y-93525523D01*
X121465523Y-93615553D01*
X121465521Y-93615556D01*
X121409605Y-93729935D01*
X121409604Y-93729937D01*
X121409604Y-93729939D01*
X121398800Y-93804094D01*
X115578152Y-93804094D01*
X115539276Y-93756723D01*
X115382561Y-93628112D01*
X115382554Y-93628106D01*
X115203769Y-93532544D01*
X115203766Y-93532543D01*
X115203764Y-93532542D01*
X115009759Y-93473691D01*
X115009756Y-93473690D01*
X114808000Y-93453820D01*
X114606243Y-93473690D01*
X114473123Y-93514071D01*
X114412236Y-93532542D01*
X114412235Y-93532542D01*
X114412230Y-93532544D01*
X114233445Y-93628106D01*
X114233438Y-93628112D01*
X114076723Y-93756723D01*
X113948112Y-93913438D01*
X113948106Y-93913445D01*
X113852544Y-94092230D01*
X113793690Y-94286243D01*
X113773820Y-94488000D01*
X82296000Y-94488000D01*
X82296000Y-90932000D01*
X100388389Y-90932000D01*
X100406789Y-91118823D01*
X100461283Y-91298463D01*
X100549772Y-91464014D01*
X100549777Y-91464021D01*
X100668866Y-91609133D01*
X100769847Y-91692005D01*
X100813980Y-91728224D01*
X100813983Y-91728225D01*
X100813985Y-91728227D01*
X100847687Y-91746241D01*
X100979538Y-91816717D01*
X101159179Y-91871211D01*
X101346000Y-91889611D01*
X101532821Y-91871211D01*
X101712462Y-91816717D01*
X101878020Y-91728224D01*
X102023133Y-91609133D01*
X102023137Y-91609127D01*
X102027436Y-91604830D01*
X102029219Y-91606613D01*
X102077868Y-91573492D01*
X102115948Y-91567500D01*
X112715405Y-91567500D01*
X112782444Y-91587185D01*
X112803086Y-91603819D01*
X113640888Y-92441622D01*
X113640892Y-92441625D01*
X113744971Y-92511169D01*
X113744984Y-92511176D01*
X113860626Y-92559076D01*
X113860631Y-92559078D01*
X113926760Y-92572231D01*
X113957477Y-92578342D01*
X114019388Y-92610726D01*
X114029139Y-92621294D01*
X114076723Y-92679276D01*
X114233438Y-92807887D01*
X114233445Y-92807893D01*
X114412230Y-92903455D01*
X114412236Y-92903458D01*
X114606241Y-92962309D01*
X114808000Y-92982180D01*
X115009759Y-92962309D01*
X115203764Y-92903458D01*
X115256020Y-92875526D01*
X115382554Y-92807893D01*
X115382556Y-92807890D01*
X115382560Y-92807889D01*
X115539276Y-92679276D01*
X115667889Y-92522560D01*
X115667890Y-92522556D01*
X115667893Y-92522554D01*
X115763455Y-92343769D01*
X115763458Y-92343764D01*
X115822309Y-92149759D01*
X115842180Y-91948000D01*
X121393820Y-91948000D01*
X121413690Y-92149756D01*
X121472544Y-92343769D01*
X121568106Y-92522554D01*
X121568112Y-92522561D01*
X121696723Y-92679276D01*
X121853438Y-92807887D01*
X121853445Y-92807893D01*
X122032230Y-92903455D01*
X122032236Y-92903458D01*
X122226241Y-92962309D01*
X122428000Y-92982180D01*
X122629759Y-92962309D01*
X122823764Y-92903458D01*
X122876020Y-92875526D01*
X123002554Y-92807893D01*
X123002556Y-92807890D01*
X123002560Y-92807889D01*
X123159276Y-92679276D01*
X123287889Y-92522560D01*
X123287890Y-92522556D01*
X123287893Y-92522554D01*
X123383455Y-92343769D01*
X123383458Y-92343764D01*
X123442309Y-92149759D01*
X123462180Y-91948000D01*
X123442309Y-91746241D01*
X123383458Y-91552236D01*
X123383455Y-91552230D01*
X123287893Y-91373445D01*
X123287887Y-91373438D01*
X123159276Y-91216723D01*
X123009102Y-91093480D01*
X123002560Y-91088111D01*
X123002559Y-91088110D01*
X123002554Y-91088106D01*
X122823769Y-90992544D01*
X122823766Y-90992543D01*
X122823764Y-90992542D01*
X122629759Y-90933691D01*
X122629756Y-90933690D01*
X122428000Y-90913820D01*
X122226243Y-90933690D01*
X122093123Y-90974071D01*
X122032236Y-90992542D01*
X122032235Y-90992542D01*
X122032230Y-90992544D01*
X121853445Y-91088106D01*
X121853438Y-91088112D01*
X121696723Y-91216723D01*
X121568112Y-91373438D01*
X121568106Y-91373445D01*
X121472544Y-91552230D01*
X121413690Y-91746243D01*
X121393820Y-91948000D01*
X115842180Y-91948000D01*
X115822309Y-91746241D01*
X115763458Y-91552236D01*
X115763455Y-91552230D01*
X115667893Y-91373445D01*
X115667887Y-91373438D01*
X115539276Y-91216723D01*
X115389102Y-91093480D01*
X115382560Y-91088111D01*
X115382559Y-91088110D01*
X115382554Y-91088106D01*
X115203769Y-90992544D01*
X115203766Y-90992543D01*
X115203764Y-90992542D01*
X115009759Y-90933691D01*
X115009756Y-90933690D01*
X114808000Y-90913820D01*
X114606243Y-90933690D01*
X114473123Y-90974071D01*
X114412236Y-90992542D01*
X114412235Y-90992542D01*
X114412230Y-90992544D01*
X114233442Y-91088108D01*
X114228968Y-91091098D01*
X114162289Y-91111970D01*
X114094910Y-91093480D01*
X114072404Y-91075671D01*
X113435111Y-90438377D01*
X113435107Y-90438374D01*
X113331028Y-90368830D01*
X113331015Y-90368823D01*
X113215373Y-90320923D01*
X113215361Y-90320920D01*
X113092595Y-90296500D01*
X113092591Y-90296500D01*
X102115948Y-90296500D01*
X102048909Y-90276815D01*
X102028211Y-90258394D01*
X102027436Y-90259170D01*
X102023132Y-90254866D01*
X101878021Y-90135777D01*
X101878014Y-90135772D01*
X101712463Y-90047283D01*
X101532823Y-89992789D01*
X101346000Y-89974389D01*
X101159176Y-89992789D01*
X100979536Y-90047283D01*
X100813985Y-90135772D01*
X100813978Y-90135777D01*
X100668866Y-90254866D01*
X100549777Y-90399978D01*
X100549772Y-90399985D01*
X100461283Y-90565536D01*
X100406789Y-90745176D01*
X100388389Y-90932000D01*
X82296000Y-90932000D01*
X82296000Y-89408000D01*
X113773820Y-89408000D01*
X113793690Y-89609756D01*
X113852544Y-89803769D01*
X113948106Y-89982554D01*
X113948112Y-89982561D01*
X114076723Y-90139276D01*
X114124840Y-90178764D01*
X114221870Y-90258394D01*
X114233438Y-90267887D01*
X114233445Y-90267893D01*
X114412230Y-90363455D01*
X114412236Y-90363458D01*
X114606241Y-90422309D01*
X114808000Y-90442180D01*
X115009759Y-90422309D01*
X115203764Y-90363458D01*
X115283347Y-90320920D01*
X115382554Y-90267893D01*
X115382556Y-90267890D01*
X115382560Y-90267889D01*
X115539276Y-90139276D01*
X115667889Y-89982560D01*
X115667890Y-89982556D01*
X115667893Y-89982554D01*
X115763455Y-89803769D01*
X115763458Y-89803764D01*
X115822309Y-89609759D01*
X115842180Y-89408000D01*
X121393820Y-89408000D01*
X121413690Y-89609756D01*
X121472544Y-89803769D01*
X121568106Y-89982554D01*
X121568112Y-89982561D01*
X121696723Y-90139276D01*
X121744840Y-90178764D01*
X121841870Y-90258394D01*
X121853438Y-90267887D01*
X121853445Y-90267893D01*
X122032230Y-90363455D01*
X122032236Y-90363458D01*
X122226241Y-90422309D01*
X122428000Y-90442180D01*
X122629759Y-90422309D01*
X122823764Y-90363458D01*
X122903347Y-90320920D01*
X123002554Y-90267893D01*
X123002556Y-90267890D01*
X123002560Y-90267889D01*
X123159276Y-90139276D01*
X123287889Y-89982560D01*
X123287890Y-89982556D01*
X123287893Y-89982554D01*
X123383455Y-89803769D01*
X123383458Y-89803764D01*
X123442309Y-89609759D01*
X123462180Y-89408000D01*
X123442309Y-89206241D01*
X123383458Y-89012236D01*
X123383455Y-89012230D01*
X123287893Y-88833445D01*
X123287887Y-88833438D01*
X123269969Y-88811605D01*
X123219548Y-88750166D01*
X123187729Y-88711394D01*
X125958100Y-88711394D01*
X125958100Y-90104606D01*
X125968904Y-90178761D01*
X125968904Y-90178762D01*
X125968905Y-90178764D01*
X126024821Y-90293143D01*
X126024823Y-90293146D01*
X126114853Y-90383176D01*
X126114856Y-90383178D01*
X126224463Y-90436761D01*
X126229239Y-90439096D01*
X126303394Y-90449900D01*
X126303400Y-90449900D01*
X127696600Y-90449900D01*
X127696606Y-90449900D01*
X127770761Y-90439096D01*
X127850763Y-90399985D01*
X127885143Y-90383178D01*
X127885146Y-90383176D01*
X127975176Y-90293146D01*
X127975178Y-90293143D01*
X128003136Y-90235953D01*
X128031096Y-90178761D01*
X128041900Y-90104606D01*
X128041900Y-88711394D01*
X128031096Y-88637239D01*
X128010896Y-88595919D01*
X127975178Y-88522856D01*
X127975176Y-88522853D01*
X127885146Y-88432823D01*
X127885143Y-88432821D01*
X127770764Y-88376905D01*
X127770762Y-88376904D01*
X127770761Y-88376904D01*
X127696606Y-88366100D01*
X126303394Y-88366100D01*
X126229239Y-88376904D01*
X126229237Y-88376904D01*
X126229235Y-88376905D01*
X126114856Y-88432821D01*
X126114853Y-88432823D01*
X126024823Y-88522853D01*
X126024821Y-88522856D01*
X125968905Y-88637235D01*
X125968904Y-88637237D01*
X125968904Y-88637239D01*
X125958100Y-88711394D01*
X123187729Y-88711394D01*
X123159276Y-88676723D01*
X123002561Y-88548112D01*
X123002554Y-88548106D01*
X122823769Y-88452544D01*
X122823766Y-88452543D01*
X122823764Y-88452542D01*
X122629759Y-88393691D01*
X122629756Y-88393690D01*
X122428000Y-88373820D01*
X122226243Y-88393690D01*
X122141823Y-88419299D01*
X122032236Y-88452542D01*
X122032235Y-88452542D01*
X122032230Y-88452544D01*
X121853445Y-88548106D01*
X121853438Y-88548112D01*
X121696723Y-88676723D01*
X121568112Y-88833438D01*
X121568106Y-88833445D01*
X121472544Y-89012230D01*
X121413690Y-89206243D01*
X121393820Y-89408000D01*
X115842180Y-89408000D01*
X115822309Y-89206241D01*
X115763458Y-89012236D01*
X115763455Y-89012230D01*
X115667893Y-88833445D01*
X115667887Y-88833438D01*
X115649969Y-88811605D01*
X115599548Y-88750166D01*
X115539276Y-88676723D01*
X115382561Y-88548112D01*
X115382554Y-88548106D01*
X115203769Y-88452544D01*
X115203766Y-88452543D01*
X115203764Y-88452542D01*
X115009759Y-88393691D01*
X115009756Y-88393690D01*
X114808000Y-88373820D01*
X114606243Y-88393690D01*
X114521823Y-88419299D01*
X114412236Y-88452542D01*
X114412235Y-88452542D01*
X114412230Y-88452544D01*
X114233445Y-88548106D01*
X114233438Y-88548112D01*
X114076723Y-88676723D01*
X113948112Y-88833438D01*
X113948106Y-88833445D01*
X113852544Y-89012230D01*
X113793690Y-89206243D01*
X113773820Y-89408000D01*
X82296000Y-89408000D01*
X82296000Y-88138000D01*
X100388389Y-88138000D01*
X100406789Y-88324823D01*
X100461283Y-88504463D01*
X100549772Y-88670014D01*
X100549777Y-88670021D01*
X100668866Y-88815133D01*
X100755877Y-88886540D01*
X100813980Y-88934224D01*
X100813983Y-88934225D01*
X100813985Y-88934227D01*
X100979536Y-89022716D01*
X100979538Y-89022717D01*
X101159179Y-89077211D01*
X101346000Y-89095611D01*
X101532821Y-89077211D01*
X101712462Y-89022717D01*
X101878020Y-88934224D01*
X102023133Y-88815133D01*
X102023137Y-88815127D01*
X102027436Y-88810830D01*
X102029219Y-88812613D01*
X102077868Y-88779492D01*
X102115948Y-88773500D01*
X110736052Y-88773500D01*
X110803091Y-88793185D01*
X110823788Y-88811605D01*
X110824564Y-88810830D01*
X110828867Y-88815133D01*
X110973980Y-88934224D01*
X110973983Y-88934225D01*
X110973985Y-88934227D01*
X111139536Y-89022716D01*
X111139538Y-89022717D01*
X111319179Y-89077211D01*
X111506000Y-89095611D01*
X111692821Y-89077211D01*
X111872462Y-89022717D01*
X112038020Y-88934224D01*
X112183133Y-88815133D01*
X112302224Y-88670020D01*
X112390717Y-88504462D01*
X112445211Y-88324821D01*
X112463611Y-88138000D01*
X112445211Y-87951179D01*
X112390717Y-87771538D01*
X112302224Y-87605980D01*
X112230015Y-87517993D01*
X112183133Y-87460866D01*
X112038021Y-87341777D01*
X112038014Y-87341772D01*
X111872463Y-87253283D01*
X111692823Y-87198789D01*
X111506000Y-87180389D01*
X111319176Y-87198789D01*
X111139536Y-87253283D01*
X110973985Y-87341772D01*
X110973978Y-87341777D01*
X110828867Y-87460866D01*
X110824564Y-87465170D01*
X110822780Y-87463386D01*
X110774132Y-87496508D01*
X110736052Y-87502500D01*
X102115948Y-87502500D01*
X102048909Y-87482815D01*
X102028211Y-87464394D01*
X102027436Y-87465170D01*
X102023132Y-87460866D01*
X101878021Y-87341777D01*
X101878014Y-87341772D01*
X101712463Y-87253283D01*
X101532823Y-87198789D01*
X101346000Y-87180389D01*
X101159176Y-87198789D01*
X100979536Y-87253283D01*
X100813985Y-87341772D01*
X100813978Y-87341777D01*
X100668866Y-87460866D01*
X100549777Y-87605978D01*
X100549772Y-87605985D01*
X100461283Y-87771536D01*
X100406789Y-87951176D01*
X100388389Y-88138000D01*
X82296000Y-88138000D01*
X82296000Y-86868000D01*
X113773820Y-86868000D01*
X113793690Y-87069756D01*
X113793691Y-87069759D01*
X113827250Y-87180389D01*
X113852544Y-87263769D01*
X113948106Y-87442554D01*
X113948112Y-87442561D01*
X114076723Y-87599276D01*
X114185778Y-87688774D01*
X114230040Y-87725099D01*
X114233438Y-87727887D01*
X114233445Y-87727893D01*
X114394994Y-87814242D01*
X114412236Y-87823458D01*
X114606241Y-87882309D01*
X114808000Y-87902180D01*
X115009759Y-87882309D01*
X115203764Y-87823458D01*
X115300903Y-87771536D01*
X115382554Y-87727893D01*
X115382556Y-87727890D01*
X115382560Y-87727889D01*
X115539276Y-87599276D01*
X115667889Y-87442560D01*
X115667890Y-87442556D01*
X115667893Y-87442554D01*
X115763455Y-87263769D01*
X115763458Y-87263764D01*
X115822309Y-87069759D01*
X115842180Y-86868000D01*
X121393820Y-86868000D01*
X121413690Y-87069756D01*
X121413691Y-87069759D01*
X121447250Y-87180389D01*
X121472544Y-87263769D01*
X121568106Y-87442554D01*
X121568112Y-87442561D01*
X121696723Y-87599276D01*
X121805778Y-87688774D01*
X121850040Y-87725099D01*
X121853438Y-87727887D01*
X121853445Y-87727893D01*
X122014994Y-87814242D01*
X122032236Y-87823458D01*
X122226241Y-87882309D01*
X122428000Y-87902180D01*
X122629759Y-87882309D01*
X122823764Y-87823458D01*
X122920903Y-87771536D01*
X123002554Y-87727893D01*
X123002556Y-87727890D01*
X123002560Y-87727889D01*
X123159276Y-87599276D01*
X123287889Y-87442560D01*
X123287890Y-87442556D01*
X123287893Y-87442554D01*
X123383455Y-87263769D01*
X123383458Y-87263764D01*
X123442309Y-87069759D01*
X123462180Y-86868000D01*
X123442309Y-86666241D01*
X123427675Y-86618000D01*
X133903491Y-86618000D01*
X134891252Y-86618000D01*
X134869482Y-86655708D01*
X134832000Y-86795591D01*
X134832000Y-86940409D01*
X134869482Y-87080292D01*
X134891252Y-87118000D01*
X133903491Y-87118000D01*
X133917765Y-87208128D01*
X133988417Y-87425570D01*
X134092211Y-87629276D01*
X134226597Y-87814242D01*
X134300304Y-87887949D01*
X134333789Y-87949272D01*
X134328805Y-88018964D01*
X134286933Y-88074897D01*
X134267084Y-88087030D01*
X134157254Y-88140723D01*
X134157253Y-88140723D01*
X134067223Y-88230753D01*
X134067221Y-88230756D01*
X134011305Y-88345135D01*
X134011304Y-88345137D01*
X134011304Y-88345139D01*
X134000500Y-88419294D01*
X134000500Y-90396706D01*
X134011304Y-90470861D01*
X134011304Y-90470862D01*
X134011305Y-90470864D01*
X134067221Y-90585243D01*
X134067223Y-90585246D01*
X134157253Y-90675276D01*
X134157256Y-90675278D01*
X134266863Y-90728861D01*
X134271639Y-90731196D01*
X134345794Y-90742000D01*
X134345800Y-90742000D01*
X136418200Y-90742000D01*
X136418206Y-90742000D01*
X136492361Y-90731196D01*
X136549553Y-90703236D01*
X136606743Y-90675278D01*
X136606746Y-90675276D01*
X136696776Y-90585246D01*
X136696778Y-90585243D01*
X136724736Y-90528053D01*
X136752696Y-90470861D01*
X136763500Y-90396706D01*
X136763500Y-88419294D01*
X136752696Y-88345139D01*
X136742763Y-88324821D01*
X136696778Y-88230756D01*
X136696776Y-88230753D01*
X136606746Y-88140723D01*
X136606743Y-88140721D01*
X136496916Y-88087030D01*
X136445333Y-88039902D01*
X136427419Y-87972368D01*
X136448860Y-87905870D01*
X136463695Y-87887948D01*
X136537405Y-87814238D01*
X136671788Y-87629276D01*
X136775582Y-87425570D01*
X136846234Y-87208128D01*
X136860509Y-87118000D01*
X135872748Y-87118000D01*
X135894518Y-87080292D01*
X135932000Y-86940409D01*
X135932000Y-86795591D01*
X135894518Y-86655708D01*
X135872748Y-86618000D01*
X136860509Y-86618000D01*
X136846234Y-86527871D01*
X136775582Y-86310429D01*
X136709957Y-86181634D01*
X147304500Y-86181634D01*
X147304500Y-87868366D01*
X147309856Y-87902180D01*
X147332460Y-88044898D01*
X147332460Y-88044901D01*
X147387689Y-88214878D01*
X147387691Y-88214881D01*
X147468833Y-88374132D01*
X147573889Y-88518728D01*
X147700272Y-88645111D01*
X147844868Y-88750167D01*
X148004119Y-88831309D01*
X148004121Y-88831310D01*
X148162670Y-88882825D01*
X148174103Y-88886540D01*
X148350634Y-88914500D01*
X148350635Y-88914500D01*
X148529365Y-88914500D01*
X148529366Y-88914500D01*
X148705897Y-88886540D01*
X148705900Y-88886539D01*
X148705901Y-88886539D01*
X148875878Y-88831310D01*
X148875878Y-88831309D01*
X148875881Y-88831309D01*
X149035132Y-88750167D01*
X149179728Y-88645111D01*
X149306111Y-88518728D01*
X149411167Y-88374132D01*
X149492309Y-88214881D01*
X149533850Y-88087030D01*
X149547539Y-88044901D01*
X149547539Y-88044900D01*
X149547540Y-88044897D01*
X149575500Y-87868366D01*
X149575500Y-86181634D01*
X149547540Y-86005103D01*
X149547539Y-86005099D01*
X149547539Y-86005098D01*
X149492310Y-85835121D01*
X149492308Y-85835118D01*
X149471160Y-85793611D01*
X149411167Y-85675868D01*
X149306111Y-85531272D01*
X149179728Y-85404889D01*
X149035132Y-85299833D01*
X148875881Y-85218691D01*
X148875878Y-85218689D01*
X148705899Y-85163460D01*
X148588209Y-85144820D01*
X148529366Y-85135500D01*
X148350634Y-85135500D01*
X148291790Y-85144820D01*
X148174101Y-85163460D01*
X148174098Y-85163460D01*
X148004121Y-85218689D01*
X148004118Y-85218691D01*
X147844867Y-85299833D01*
X147700270Y-85404890D01*
X147573890Y-85531270D01*
X147468833Y-85675867D01*
X147387691Y-85835118D01*
X147387689Y-85835121D01*
X147332460Y-86005098D01*
X147332460Y-86005101D01*
X147331983Y-86008112D01*
X147304500Y-86181634D01*
X136709957Y-86181634D01*
X136671788Y-86106723D01*
X136537402Y-85921757D01*
X136375742Y-85760097D01*
X136375736Y-85760092D01*
X136189909Y-85625081D01*
X136147243Y-85569751D01*
X136141264Y-85500138D01*
X136173870Y-85438343D01*
X136189902Y-85424449D01*
X136298543Y-85345518D01*
X136447018Y-85197043D01*
X136570439Y-85027168D01*
X136665766Y-84840078D01*
X136703559Y-84723764D01*
X136730651Y-84640383D01*
X136730651Y-84640382D01*
X136730652Y-84640379D01*
X136763500Y-84432988D01*
X136763500Y-84223012D01*
X136730652Y-84015621D01*
X136730651Y-84015617D01*
X136730651Y-84015616D01*
X136665767Y-83815924D01*
X136633929Y-83753438D01*
X136570439Y-83628832D01*
X136467484Y-83487126D01*
X136447023Y-83458963D01*
X136447019Y-83458958D01*
X136298541Y-83310480D01*
X136298536Y-83310476D01*
X136128671Y-83187063D01*
X136128670Y-83187062D01*
X136128668Y-83187061D01*
X136035123Y-83139397D01*
X135941575Y-83091732D01*
X135741882Y-83026848D01*
X135586335Y-83002212D01*
X135534488Y-82994000D01*
X135229512Y-82994000D01*
X135160381Y-83004949D01*
X135022119Y-83026848D01*
X135022116Y-83026848D01*
X134822424Y-83091732D01*
X134635328Y-83187063D01*
X134465463Y-83310476D01*
X134465458Y-83310480D01*
X134316980Y-83458958D01*
X134316976Y-83458963D01*
X134193563Y-83628828D01*
X134098232Y-83815924D01*
X134033348Y-84015616D01*
X134033348Y-84015619D01*
X134000500Y-84223012D01*
X134000500Y-84432987D01*
X134033348Y-84640380D01*
X134033348Y-84640383D01*
X134098232Y-84840075D01*
X134145897Y-84933623D01*
X134191347Y-85022823D01*
X134193563Y-85027171D01*
X134316976Y-85197036D01*
X134316980Y-85197041D01*
X134465458Y-85345519D01*
X134465463Y-85345523D01*
X134574090Y-85424445D01*
X134616756Y-85479774D01*
X134622735Y-85549388D01*
X134590130Y-85611183D01*
X134574091Y-85625081D01*
X134388257Y-85760097D01*
X134226597Y-85921757D01*
X134092211Y-86106723D01*
X133988417Y-86310429D01*
X133917765Y-86527871D01*
X133903491Y-86618000D01*
X123427675Y-86618000D01*
X123383458Y-86472236D01*
X123383455Y-86472230D01*
X123287893Y-86293445D01*
X123287887Y-86293438D01*
X123159276Y-86136723D01*
X123002561Y-86008112D01*
X123002554Y-86008106D01*
X122823769Y-85912544D01*
X122823766Y-85912543D01*
X122823764Y-85912542D01*
X122629759Y-85853691D01*
X122629756Y-85853690D01*
X122428000Y-85833820D01*
X122226243Y-85853690D01*
X122093123Y-85894071D01*
X122032236Y-85912542D01*
X122032235Y-85912542D01*
X122032230Y-85912544D01*
X121853445Y-86008106D01*
X121853438Y-86008112D01*
X121696723Y-86136723D01*
X121568112Y-86293438D01*
X121568106Y-86293445D01*
X121472544Y-86472230D01*
X121413690Y-86666243D01*
X121393820Y-86868000D01*
X115842180Y-86868000D01*
X115822309Y-86666241D01*
X115763458Y-86472236D01*
X115763455Y-86472230D01*
X115667893Y-86293445D01*
X115667887Y-86293438D01*
X115539276Y-86136723D01*
X115382561Y-86008112D01*
X115382554Y-86008106D01*
X115203769Y-85912544D01*
X115203766Y-85912543D01*
X115203764Y-85912542D01*
X115009759Y-85853691D01*
X115009756Y-85853690D01*
X114808000Y-85833820D01*
X114606243Y-85853690D01*
X114473123Y-85894071D01*
X114412236Y-85912542D01*
X114412235Y-85912542D01*
X114412230Y-85912544D01*
X114233445Y-86008106D01*
X114233438Y-86008112D01*
X114076723Y-86136723D01*
X113948112Y-86293438D01*
X113948106Y-86293445D01*
X113852544Y-86472230D01*
X113793690Y-86666243D01*
X113773820Y-86868000D01*
X82296000Y-86868000D01*
X82296000Y-84836000D01*
X98864389Y-84836000D01*
X98882789Y-85022823D01*
X98937283Y-85202463D01*
X99025772Y-85368014D01*
X99025777Y-85368021D01*
X99144866Y-85513133D01*
X99213856Y-85569751D01*
X99289980Y-85632224D01*
X99289983Y-85632225D01*
X99289985Y-85632227D01*
X99455536Y-85720716D01*
X99455538Y-85720717D01*
X99635179Y-85775211D01*
X99822000Y-85793611D01*
X100008821Y-85775211D01*
X100188462Y-85720717D01*
X100354020Y-85632224D01*
X100499133Y-85513133D01*
X100499137Y-85513127D01*
X100503436Y-85508830D01*
X100505219Y-85510613D01*
X100553868Y-85477492D01*
X100591948Y-85471500D01*
X112260052Y-85471500D01*
X112327091Y-85491185D01*
X112347788Y-85509605D01*
X112348564Y-85508830D01*
X112352867Y-85513133D01*
X112497980Y-85632224D01*
X112497983Y-85632225D01*
X112497985Y-85632227D01*
X112663536Y-85720716D01*
X112663538Y-85720717D01*
X112843179Y-85775211D01*
X113030000Y-85793611D01*
X113216821Y-85775211D01*
X113396462Y-85720717D01*
X113562020Y-85632224D01*
X113707133Y-85513133D01*
X113826224Y-85368020D01*
X113914717Y-85202462D01*
X113927916Y-85158949D01*
X113966212Y-85100513D01*
X114030024Y-85072056D01*
X114099091Y-85082615D01*
X114125241Y-85099093D01*
X114233438Y-85187887D01*
X114233445Y-85187893D01*
X114412230Y-85283455D01*
X114412236Y-85283458D01*
X114606241Y-85342309D01*
X114808000Y-85362180D01*
X115009759Y-85342309D01*
X115203764Y-85283458D01*
X115256020Y-85255526D01*
X115382554Y-85187893D01*
X115382556Y-85187890D01*
X115382560Y-85187889D01*
X115539276Y-85059276D01*
X115667889Y-84902560D01*
X115667890Y-84902556D01*
X115667893Y-84902554D01*
X115735526Y-84776020D01*
X115763458Y-84723764D01*
X115822309Y-84529759D01*
X115842180Y-84328000D01*
X121393820Y-84328000D01*
X121413690Y-84529756D01*
X121413691Y-84529759D01*
X121467367Y-84706705D01*
X121472544Y-84723769D01*
X121568106Y-84902554D01*
X121568112Y-84902561D01*
X121696723Y-85059276D01*
X121853438Y-85187887D01*
X121853445Y-85187893D01*
X122032230Y-85283455D01*
X122032236Y-85283458D01*
X122226241Y-85342309D01*
X122428000Y-85362180D01*
X122629759Y-85342309D01*
X122823764Y-85283458D01*
X122876020Y-85255526D01*
X123002554Y-85187893D01*
X123002556Y-85187890D01*
X123002560Y-85187889D01*
X123159276Y-85059276D01*
X123287889Y-84902560D01*
X123287890Y-84902556D01*
X123287893Y-84902554D01*
X123355526Y-84776020D01*
X123383458Y-84723764D01*
X123442309Y-84529759D01*
X123462180Y-84328000D01*
X125834629Y-84328000D01*
X125854471Y-84542131D01*
X125913325Y-84748984D01*
X126009182Y-84941489D01*
X126019410Y-84955034D01*
X126019411Y-84955035D01*
X126593600Y-84380846D01*
X126593600Y-84381504D01*
X126621295Y-84484865D01*
X126674799Y-84577536D01*
X126750464Y-84653201D01*
X126843135Y-84706705D01*
X126946496Y-84734400D01*
X126947153Y-84734400D01*
X126375436Y-85306114D01*
X126480545Y-85371195D01*
X126480551Y-85371197D01*
X126681083Y-85448883D01*
X126892475Y-85488400D01*
X127107525Y-85488400D01*
X127318916Y-85448883D01*
X127318917Y-85448883D01*
X127519448Y-85371197D01*
X127519449Y-85371197D01*
X127624562Y-85306114D01*
X127052848Y-84734400D01*
X127053504Y-84734400D01*
X127156865Y-84706705D01*
X127249536Y-84653201D01*
X127325201Y-84577536D01*
X127378705Y-84484865D01*
X127406400Y-84381504D01*
X127406400Y-84380847D01*
X127980588Y-84955035D01*
X127990816Y-84941491D01*
X128086674Y-84748984D01*
X128145528Y-84542131D01*
X128165370Y-84328000D01*
X128145528Y-84113868D01*
X128086674Y-83907015D01*
X127990821Y-83714517D01*
X127990813Y-83714504D01*
X127980587Y-83700963D01*
X127406400Y-84275151D01*
X127406400Y-84274496D01*
X127378705Y-84171135D01*
X127325201Y-84078464D01*
X127249536Y-84002799D01*
X127156865Y-83949295D01*
X127053504Y-83921600D01*
X127052848Y-83921600D01*
X127624562Y-83349884D01*
X127519447Y-83284801D01*
X127318916Y-83207116D01*
X127107525Y-83167600D01*
X126892475Y-83167600D01*
X126681083Y-83207116D01*
X126681082Y-83207116D01*
X126480551Y-83284802D01*
X126480548Y-83284803D01*
X126375436Y-83349884D01*
X126947153Y-83921600D01*
X126946496Y-83921600D01*
X126843135Y-83949295D01*
X126750464Y-84002799D01*
X126674799Y-84078464D01*
X126621295Y-84171135D01*
X126593600Y-84274496D01*
X126593600Y-84275153D01*
X126019411Y-83700964D01*
X126009179Y-83714515D01*
X125913325Y-83907015D01*
X125854471Y-84113868D01*
X125834629Y-84328000D01*
X123462180Y-84328000D01*
X123442309Y-84126241D01*
X123383458Y-83932236D01*
X123369977Y-83907015D01*
X123287893Y-83753445D01*
X123287887Y-83753438D01*
X123159276Y-83596723D01*
X123002561Y-83468112D01*
X123002554Y-83468106D01*
X122823769Y-83372544D01*
X122823766Y-83372543D01*
X122823764Y-83372542D01*
X122629759Y-83313691D01*
X122629756Y-83313690D01*
X122428000Y-83293820D01*
X122226243Y-83313690D01*
X122106929Y-83349884D01*
X122032236Y-83372542D01*
X122032235Y-83372542D01*
X122032230Y-83372544D01*
X121853445Y-83468106D01*
X121853438Y-83468112D01*
X121696723Y-83596723D01*
X121568112Y-83753438D01*
X121568106Y-83753445D01*
X121472544Y-83932230D01*
X121413690Y-84126243D01*
X121393820Y-84328000D01*
X115842180Y-84328000D01*
X115822309Y-84126241D01*
X115763458Y-83932236D01*
X115749977Y-83907015D01*
X115667893Y-83753445D01*
X115667887Y-83753438D01*
X115539276Y-83596723D01*
X115382561Y-83468112D01*
X115382554Y-83468106D01*
X115203769Y-83372544D01*
X115203766Y-83372543D01*
X115203764Y-83372542D01*
X115009759Y-83313691D01*
X115009756Y-83313690D01*
X114808000Y-83293820D01*
X114606243Y-83313690D01*
X114486929Y-83349884D01*
X114412236Y-83372542D01*
X114412235Y-83372542D01*
X114412230Y-83372544D01*
X114233445Y-83468106D01*
X114233438Y-83468112D01*
X114076723Y-83596723D01*
X113948112Y-83753438D01*
X113948106Y-83753445D01*
X113852542Y-83932233D01*
X113822383Y-84031653D01*
X113784085Y-84090091D01*
X113720273Y-84118547D01*
X113651206Y-84107986D01*
X113625059Y-84091510D01*
X113562020Y-84039776D01*
X113562014Y-84039772D01*
X113396463Y-83951283D01*
X113216823Y-83896789D01*
X113030000Y-83878389D01*
X112843176Y-83896789D01*
X112663536Y-83951283D01*
X112497985Y-84039772D01*
X112497978Y-84039777D01*
X112352867Y-84158866D01*
X112348564Y-84163170D01*
X112346780Y-84161386D01*
X112298132Y-84194508D01*
X112260052Y-84200500D01*
X100591948Y-84200500D01*
X100524909Y-84180815D01*
X100504211Y-84162394D01*
X100503436Y-84163170D01*
X100499132Y-84158866D01*
X100415329Y-84090091D01*
X100354020Y-84039776D01*
X100354018Y-84039775D01*
X100354014Y-84039772D01*
X100188463Y-83951283D01*
X100008823Y-83896789D01*
X99822000Y-83878389D01*
X99635176Y-83896789D01*
X99455536Y-83951283D01*
X99289985Y-84039772D01*
X99289978Y-84039777D01*
X99144866Y-84158866D01*
X99025777Y-84303978D01*
X99025772Y-84303985D01*
X98937283Y-84469536D01*
X98882789Y-84649176D01*
X98864389Y-84836000D01*
X82296000Y-84836000D01*
X82296000Y-81915000D01*
X96451389Y-81915000D01*
X96469789Y-82101823D01*
X96524283Y-82281463D01*
X96612772Y-82447014D01*
X96612777Y-82447021D01*
X96731866Y-82592133D01*
X96799806Y-82647889D01*
X96876980Y-82711224D01*
X96876983Y-82711225D01*
X96876985Y-82711227D01*
X96937285Y-82743458D01*
X97042538Y-82799717D01*
X97222179Y-82854211D01*
X97409000Y-82872611D01*
X97595821Y-82854211D01*
X97775462Y-82799717D01*
X97941020Y-82711224D01*
X98086133Y-82592133D01*
X98086137Y-82592127D01*
X98090436Y-82587830D01*
X98092219Y-82589613D01*
X98140868Y-82556492D01*
X98178948Y-82550500D01*
X114070403Y-82550500D01*
X114137442Y-82570185D01*
X114149068Y-82578647D01*
X114233438Y-82647888D01*
X114233445Y-82647893D01*
X114412230Y-82743455D01*
X114412236Y-82743458D01*
X114606241Y-82802309D01*
X114808000Y-82822180D01*
X115009759Y-82802309D01*
X115203764Y-82743458D01*
X115264073Y-82711222D01*
X115382554Y-82647893D01*
X115382556Y-82647890D01*
X115382560Y-82647889D01*
X115539276Y-82519276D01*
X115667889Y-82362560D01*
X115667890Y-82362556D01*
X115667893Y-82362554D01*
X115763455Y-82183769D01*
X115763458Y-82183764D01*
X115822309Y-81989759D01*
X115842180Y-81788000D01*
X121393820Y-81788000D01*
X121413690Y-81989756D01*
X121413691Y-81989759D01*
X121447685Y-82101823D01*
X121472544Y-82183769D01*
X121568106Y-82362554D01*
X121568112Y-82362561D01*
X121696723Y-82519276D01*
X121853438Y-82647887D01*
X121853445Y-82647893D01*
X122032230Y-82743455D01*
X122032236Y-82743458D01*
X122226241Y-82802309D01*
X122428000Y-82822180D01*
X122629759Y-82802309D01*
X122823764Y-82743458D01*
X122884073Y-82711222D01*
X123002554Y-82647893D01*
X123002556Y-82647890D01*
X123002560Y-82647889D01*
X123159276Y-82519276D01*
X123287889Y-82362560D01*
X123287890Y-82362556D01*
X123287893Y-82362554D01*
X123383455Y-82183769D01*
X123383458Y-82183764D01*
X123416451Y-82075000D01*
X149455964Y-82075000D01*
X150706988Y-82075000D01*
X150674075Y-82132007D01*
X150640000Y-82259174D01*
X150640000Y-82390826D01*
X150674075Y-82517993D01*
X150706988Y-82575000D01*
X149455964Y-82575000D01*
X149462876Y-82618642D01*
X149462876Y-82618643D01*
X149523873Y-82806371D01*
X149613485Y-82982242D01*
X149729496Y-83141919D01*
X149729500Y-83141924D01*
X149869075Y-83281499D01*
X149869080Y-83281503D01*
X150028757Y-83397514D01*
X150204626Y-83487126D01*
X150392353Y-83548123D01*
X150587303Y-83579000D01*
X151190000Y-83579000D01*
X151190000Y-82825000D01*
X151690000Y-82825000D01*
X151690000Y-83579000D01*
X152292697Y-83579000D01*
X152487646Y-83548123D01*
X152675373Y-83487126D01*
X152851242Y-83397514D01*
X153010919Y-83281503D01*
X153010924Y-83281499D01*
X153150499Y-83141924D01*
X153150503Y-83141919D01*
X153266514Y-82982242D01*
X153356126Y-82806371D01*
X153417123Y-82618643D01*
X153417123Y-82618642D01*
X153424036Y-82575000D01*
X152173012Y-82575000D01*
X152205925Y-82517993D01*
X152240000Y-82390826D01*
X152240000Y-82259174D01*
X152205925Y-82132007D01*
X152173012Y-82075000D01*
X153424036Y-82075000D01*
X153417123Y-82031357D01*
X153417123Y-82031356D01*
X153356126Y-81843628D01*
X153266514Y-81667757D01*
X153150503Y-81508080D01*
X153150499Y-81508075D01*
X153010924Y-81368500D01*
X153010919Y-81368496D01*
X152851242Y-81252485D01*
X152675373Y-81162873D01*
X152487646Y-81101876D01*
X152292697Y-81071000D01*
X151690000Y-81071000D01*
X151690000Y-81825000D01*
X151190000Y-81825000D01*
X151190000Y-81071000D01*
X150587303Y-81071000D01*
X150392353Y-81101876D01*
X150204626Y-81162873D01*
X150028757Y-81252485D01*
X149869080Y-81368496D01*
X149869075Y-81368500D01*
X149729500Y-81508075D01*
X149729496Y-81508080D01*
X149613485Y-81667757D01*
X149523873Y-81843628D01*
X149462876Y-82031356D01*
X149462876Y-82031357D01*
X149455964Y-82075000D01*
X123416451Y-82075000D01*
X123442309Y-81989759D01*
X123462180Y-81788000D01*
X123442309Y-81586241D01*
X123383458Y-81392236D01*
X123378511Y-81382980D01*
X123287893Y-81213445D01*
X123287887Y-81213438D01*
X123159276Y-81056723D01*
X123002561Y-80928112D01*
X123002554Y-80928106D01*
X122823769Y-80832544D01*
X122823766Y-80832543D01*
X122823764Y-80832542D01*
X122629759Y-80773691D01*
X122629756Y-80773690D01*
X122428000Y-80753820D01*
X122226243Y-80773690D01*
X122093123Y-80814071D01*
X122032236Y-80832542D01*
X122032235Y-80832542D01*
X122032230Y-80832544D01*
X121853445Y-80928106D01*
X121853438Y-80928112D01*
X121696723Y-81056723D01*
X121568112Y-81213438D01*
X121568106Y-81213445D01*
X121472544Y-81392230D01*
X121413690Y-81586243D01*
X121393820Y-81788000D01*
X115842180Y-81788000D01*
X115822309Y-81586241D01*
X115763458Y-81392236D01*
X115758511Y-81382980D01*
X115667893Y-81213445D01*
X115667887Y-81213438D01*
X115539276Y-81056723D01*
X115382561Y-80928112D01*
X115382554Y-80928106D01*
X115203769Y-80832544D01*
X115203766Y-80832543D01*
X115203764Y-80832542D01*
X115009759Y-80773691D01*
X115009756Y-80773690D01*
X114808000Y-80753820D01*
X114606243Y-80773690D01*
X114473123Y-80814071D01*
X114412236Y-80832542D01*
X114412235Y-80832542D01*
X114412230Y-80832544D01*
X114233445Y-80928106D01*
X114233438Y-80928112D01*
X114076723Y-81056723D01*
X113948112Y-81213438D01*
X113948107Y-81213445D01*
X113947837Y-81213951D01*
X113947625Y-81214166D01*
X113944725Y-81218507D01*
X113943901Y-81217957D01*
X113898876Y-81263796D01*
X113838478Y-81279500D01*
X98178948Y-81279500D01*
X98111909Y-81259815D01*
X98091211Y-81241394D01*
X98090436Y-81242170D01*
X98086132Y-81237866D01*
X97941021Y-81118777D01*
X97941014Y-81118772D01*
X97775463Y-81030283D01*
X97595823Y-80975789D01*
X97409000Y-80957389D01*
X97222176Y-80975789D01*
X97042536Y-81030283D01*
X96876985Y-81118772D01*
X96876978Y-81118777D01*
X96731866Y-81237866D01*
X96612777Y-81382978D01*
X96612772Y-81382985D01*
X96524283Y-81548536D01*
X96469789Y-81728176D01*
X96451389Y-81915000D01*
X82296000Y-81915000D01*
X82296000Y-79248000D01*
X113773820Y-79248000D01*
X113793690Y-79449756D01*
X113793691Y-79449759D01*
X113839737Y-79601553D01*
X113852544Y-79643769D01*
X113948106Y-79822554D01*
X113948112Y-79822561D01*
X114076723Y-79979276D01*
X114233438Y-80107887D01*
X114233445Y-80107893D01*
X114412230Y-80203455D01*
X114412236Y-80203458D01*
X114606241Y-80262309D01*
X114808000Y-80282180D01*
X115009759Y-80262309D01*
X115203764Y-80203458D01*
X115256020Y-80175526D01*
X115382554Y-80107893D01*
X115382556Y-80107890D01*
X115382560Y-80107889D01*
X115539276Y-79979276D01*
X115667889Y-79822560D01*
X115667890Y-79822556D01*
X115667893Y-79822554D01*
X115763455Y-79643769D01*
X115763458Y-79643764D01*
X115822309Y-79449759D01*
X115842180Y-79248000D01*
X115842180Y-79247999D01*
X121275383Y-79247999D01*
X121275383Y-79248000D01*
X121295008Y-79459793D01*
X121353217Y-79664372D01*
X121448025Y-79854775D01*
X121456477Y-79865968D01*
X122034300Y-79288145D01*
X122034300Y-79299832D01*
X122061130Y-79399962D01*
X122112962Y-79489737D01*
X122186263Y-79563038D01*
X122276038Y-79614870D01*
X122376168Y-79641700D01*
X122387853Y-79641700D01*
X121812662Y-80216889D01*
X121914235Y-80279780D01*
X121914236Y-80279781D01*
X122112563Y-80356613D01*
X122112573Y-80356616D01*
X122321653Y-80395700D01*
X122534347Y-80395700D01*
X122743426Y-80356616D01*
X122743436Y-80356613D01*
X122941765Y-80279780D01*
X122941767Y-80279779D01*
X123043336Y-80216889D01*
X122468148Y-79641700D01*
X122479832Y-79641700D01*
X122579962Y-79614870D01*
X122669737Y-79563038D01*
X122743038Y-79489737D01*
X122794870Y-79399962D01*
X122821700Y-79299832D01*
X122821700Y-79288147D01*
X123399521Y-79865967D01*
X123407974Y-79854775D01*
X123502782Y-79664372D01*
X123560991Y-79459793D01*
X123580617Y-79248000D01*
X123580617Y-79247999D01*
X123560991Y-79036206D01*
X123502781Y-78831623D01*
X123502781Y-78831621D01*
X123407976Y-78641226D01*
X123407975Y-78641224D01*
X123399522Y-78630031D01*
X123399521Y-78630031D01*
X122821700Y-79207852D01*
X122821700Y-79196168D01*
X122794870Y-79096038D01*
X122743038Y-79006263D01*
X122669737Y-78932962D01*
X122579962Y-78881130D01*
X122479832Y-78854300D01*
X122468147Y-78854300D01*
X123043336Y-78279109D01*
X123043335Y-78279108D01*
X122941769Y-78216221D01*
X122941763Y-78216218D01*
X122743427Y-78139383D01*
X122534347Y-78100300D01*
X122321653Y-78100300D01*
X122112573Y-78139383D01*
X122112572Y-78139383D01*
X121914237Y-78216218D01*
X121812662Y-78279109D01*
X122387854Y-78854300D01*
X122376168Y-78854300D01*
X122276038Y-78881130D01*
X122186263Y-78932962D01*
X122112962Y-79006263D01*
X122061130Y-79096038D01*
X122034300Y-79196168D01*
X122034300Y-79207853D01*
X121456477Y-78630031D01*
X121456476Y-78630031D01*
X121448025Y-78641224D01*
X121448023Y-78641228D01*
X121353218Y-78831621D01*
X121353218Y-78831623D01*
X121295008Y-79036206D01*
X121275383Y-79247999D01*
X115842180Y-79247999D01*
X115822309Y-79046241D01*
X115763458Y-78852236D01*
X115752439Y-78831621D01*
X115667893Y-78673445D01*
X115667887Y-78673438D01*
X115539276Y-78516723D01*
X115382561Y-78388112D01*
X115382554Y-78388106D01*
X115203769Y-78292544D01*
X115203766Y-78292543D01*
X115203764Y-78292542D01*
X115009759Y-78233691D01*
X115009756Y-78233690D01*
X114808000Y-78213820D01*
X114606243Y-78233690D01*
X114473123Y-78274071D01*
X114412236Y-78292542D01*
X114412235Y-78292542D01*
X114412230Y-78292544D01*
X114233445Y-78388106D01*
X114233438Y-78388112D01*
X114076723Y-78516723D01*
X113948112Y-78673438D01*
X113948106Y-78673445D01*
X113852544Y-78852230D01*
X113793690Y-79046243D01*
X113773820Y-79248000D01*
X82296000Y-79248000D01*
X82296000Y-69850000D01*
X109278389Y-69850000D01*
X109296789Y-70036823D01*
X109351282Y-70216461D01*
X109439778Y-70382023D01*
X109508853Y-70466190D01*
X109536166Y-70530499D01*
X109537000Y-70544855D01*
X109537000Y-72315060D01*
X109517315Y-72382099D01*
X109508856Y-72393722D01*
X109490219Y-72416432D01*
X109401730Y-72581983D01*
X109347236Y-72761623D01*
X109328836Y-72948447D01*
X109347236Y-73135270D01*
X109401730Y-73314910D01*
X109490219Y-73480461D01*
X109490224Y-73480468D01*
X109609313Y-73625580D01*
X109710294Y-73708452D01*
X109754427Y-73744671D01*
X109754430Y-73744672D01*
X109754432Y-73744674D01*
X109836333Y-73788451D01*
X109919985Y-73833164D01*
X110099626Y-73887658D01*
X110286447Y-73906058D01*
X110473268Y-73887658D01*
X110652909Y-73833164D01*
X110818467Y-73744671D01*
X110963580Y-73625580D01*
X111082671Y-73480467D01*
X111122475Y-73405999D01*
X112143041Y-73405999D01*
X112143041Y-73406000D01*
X112161641Y-73618603D01*
X112161643Y-73618613D01*
X112216876Y-73824747D01*
X112216881Y-73824761D01*
X112275462Y-73950388D01*
X112307074Y-74018180D01*
X112429487Y-74193003D01*
X112580397Y-74343913D01*
X112755220Y-74466326D01*
X112854140Y-74512453D01*
X112948638Y-74556518D01*
X112948640Y-74556518D01*
X112948645Y-74556521D01*
X113154792Y-74611758D01*
X113324878Y-74626638D01*
X113367399Y-74630359D01*
X113367400Y-74630359D01*
X113367401Y-74630359D01*
X113402834Y-74627258D01*
X113580008Y-74611758D01*
X113786155Y-74556521D01*
X113979580Y-74466326D01*
X114154403Y-74343913D01*
X114305313Y-74193003D01*
X114427726Y-74018180D01*
X114459643Y-73949732D01*
X114505813Y-73897295D01*
X114573006Y-73878142D01*
X114639888Y-73898357D01*
X114684406Y-73949733D01*
X114744057Y-74077654D01*
X114744058Y-74077656D01*
X114800945Y-74158899D01*
X114800946Y-74158900D01*
X115355687Y-73604158D01*
X115363012Y-73631493D01*
X115439924Y-73764707D01*
X115548693Y-73873476D01*
X115681907Y-73950388D01*
X115709240Y-73957711D01*
X115154498Y-74512453D01*
X115235743Y-74569341D01*
X115235745Y-74569342D01*
X115447958Y-74668298D01*
X115447967Y-74668302D01*
X115674131Y-74728902D01*
X115674141Y-74728904D01*
X115907398Y-74749312D01*
X115907402Y-74749312D01*
X116140658Y-74728904D01*
X116140668Y-74728902D01*
X116366832Y-74668302D01*
X116366841Y-74668298D01*
X116579055Y-74569342D01*
X116660300Y-74512453D01*
X116105559Y-73957711D01*
X116132893Y-73950388D01*
X116266107Y-73873476D01*
X116374876Y-73764707D01*
X116451788Y-73631493D01*
X116459112Y-73604159D01*
X117013853Y-74158900D01*
X117070742Y-74077655D01*
X117169698Y-73865441D01*
X117169702Y-73865432D01*
X117230302Y-73639268D01*
X117230304Y-73639258D01*
X117250712Y-73406001D01*
X117250712Y-73405999D01*
X123506241Y-73405999D01*
X123506241Y-73406000D01*
X123524841Y-73618603D01*
X123524843Y-73618613D01*
X123580076Y-73824747D01*
X123580081Y-73824761D01*
X123638662Y-73950388D01*
X123670274Y-74018180D01*
X123792687Y-74193003D01*
X123943597Y-74343913D01*
X124118420Y-74466326D01*
X124217340Y-74512453D01*
X124311838Y-74556518D01*
X124311840Y-74556518D01*
X124311845Y-74556521D01*
X124517992Y-74611758D01*
X124688078Y-74626638D01*
X124730599Y-74630359D01*
X124730600Y-74630359D01*
X124730601Y-74630359D01*
X124766034Y-74627258D01*
X124943208Y-74611758D01*
X125149355Y-74556521D01*
X125342780Y-74466326D01*
X125517603Y-74343913D01*
X125668513Y-74193003D01*
X125790926Y-74018180D01*
X125822843Y-73949732D01*
X125869013Y-73897295D01*
X125936206Y-73878142D01*
X126003088Y-73898357D01*
X126047606Y-73949733D01*
X126107257Y-74077654D01*
X126107258Y-74077656D01*
X126164145Y-74158899D01*
X126164146Y-74158900D01*
X126718887Y-73604158D01*
X126726212Y-73631493D01*
X126803124Y-73764707D01*
X126911893Y-73873476D01*
X127045107Y-73950388D01*
X127072440Y-73957711D01*
X126517698Y-74512453D01*
X126598943Y-74569341D01*
X126598945Y-74569342D01*
X126811158Y-74668298D01*
X126811167Y-74668302D01*
X127037331Y-74728902D01*
X127037341Y-74728904D01*
X127270598Y-74749312D01*
X127270602Y-74749312D01*
X127503858Y-74728904D01*
X127503868Y-74728902D01*
X127730032Y-74668302D01*
X127730041Y-74668298D01*
X127942255Y-74569342D01*
X128023500Y-74512453D01*
X127468759Y-73957711D01*
X127496093Y-73950388D01*
X127629307Y-73873476D01*
X127738076Y-73764707D01*
X127814988Y-73631493D01*
X127822312Y-73604159D01*
X128377053Y-74158900D01*
X128433942Y-74077655D01*
X128532898Y-73865441D01*
X128532902Y-73865432D01*
X128593502Y-73639268D01*
X128593504Y-73639258D01*
X128613912Y-73406001D01*
X128613912Y-73405999D01*
X134869441Y-73405999D01*
X134869441Y-73406000D01*
X134888041Y-73618603D01*
X134888043Y-73618613D01*
X134943276Y-73824747D01*
X134943281Y-73824761D01*
X135001862Y-73950388D01*
X135033474Y-74018180D01*
X135155887Y-74193003D01*
X135306797Y-74343913D01*
X135481620Y-74466326D01*
X135580540Y-74512453D01*
X135675038Y-74556518D01*
X135675040Y-74556518D01*
X135675045Y-74556521D01*
X135881192Y-74611758D01*
X136051278Y-74626638D01*
X136093799Y-74630359D01*
X136093800Y-74630359D01*
X136093801Y-74630359D01*
X136129234Y-74627258D01*
X136306408Y-74611758D01*
X136512555Y-74556521D01*
X136705980Y-74466326D01*
X136880803Y-74343913D01*
X137031713Y-74193003D01*
X137154126Y-74018180D01*
X137186043Y-73949732D01*
X137232213Y-73897295D01*
X137299406Y-73878142D01*
X137366288Y-73898357D01*
X137410806Y-73949733D01*
X137470457Y-74077654D01*
X137470458Y-74077656D01*
X137527345Y-74158899D01*
X137527346Y-74158900D01*
X138082087Y-73604158D01*
X138089412Y-73631493D01*
X138166324Y-73764707D01*
X138275093Y-73873476D01*
X138408307Y-73950388D01*
X138435640Y-73957711D01*
X137880898Y-74512453D01*
X137962143Y-74569341D01*
X137962145Y-74569342D01*
X138174358Y-74668298D01*
X138174367Y-74668302D01*
X138400531Y-74728902D01*
X138400541Y-74728904D01*
X138633798Y-74749312D01*
X138633802Y-74749312D01*
X138867058Y-74728904D01*
X138867068Y-74728902D01*
X139093232Y-74668302D01*
X139093241Y-74668298D01*
X139305455Y-74569342D01*
X139386700Y-74512453D01*
X138831959Y-73957711D01*
X138859293Y-73950388D01*
X138992507Y-73873476D01*
X139101276Y-73764707D01*
X139178188Y-73631493D01*
X139185512Y-73604159D01*
X139740253Y-74158900D01*
X139797142Y-74077655D01*
X139896098Y-73865441D01*
X139896102Y-73865432D01*
X139956702Y-73639268D01*
X139956704Y-73639258D01*
X139977112Y-73406001D01*
X139977112Y-73405999D01*
X146095641Y-73405999D01*
X146095641Y-73406000D01*
X146114241Y-73618603D01*
X146114243Y-73618613D01*
X146169476Y-73824747D01*
X146169481Y-73824761D01*
X146228062Y-73950388D01*
X146259674Y-74018180D01*
X146382087Y-74193003D01*
X146532997Y-74343913D01*
X146707820Y-74466326D01*
X146806740Y-74512453D01*
X146901238Y-74556518D01*
X146901240Y-74556518D01*
X146901245Y-74556521D01*
X147107392Y-74611758D01*
X147277478Y-74626638D01*
X147319999Y-74630359D01*
X147320000Y-74630359D01*
X147320001Y-74630359D01*
X147355434Y-74627258D01*
X147532608Y-74611758D01*
X147738755Y-74556521D01*
X147932180Y-74466326D01*
X148107003Y-74343913D01*
X148257913Y-74193003D01*
X148380326Y-74018180D01*
X148470521Y-73824755D01*
X148470523Y-73824746D01*
X148472375Y-73819661D01*
X148473708Y-73820146D01*
X148506590Y-73766200D01*
X148569436Y-73735671D01*
X148638812Y-73743965D01*
X148692690Y-73788451D01*
X148707040Y-73819873D01*
X148707625Y-73819661D01*
X148709481Y-73824761D01*
X148768062Y-73950388D01*
X148799674Y-74018180D01*
X148922087Y-74193003D01*
X149072997Y-74343913D01*
X149247820Y-74466326D01*
X149346740Y-74512453D01*
X149441238Y-74556518D01*
X149441240Y-74556518D01*
X149441245Y-74556521D01*
X149647392Y-74611758D01*
X149817478Y-74626638D01*
X149859999Y-74630359D01*
X149860000Y-74630359D01*
X149860001Y-74630359D01*
X149895434Y-74627258D01*
X150072608Y-74611758D01*
X150278755Y-74556521D01*
X150472180Y-74466326D01*
X150647003Y-74343913D01*
X150797913Y-74193003D01*
X150920326Y-74018180D01*
X151010521Y-73824755D01*
X151065758Y-73618608D01*
X151084359Y-73406000D01*
X151065758Y-73193392D01*
X151010521Y-72987245D01*
X150920326Y-72793821D01*
X150920324Y-72793818D01*
X150920323Y-72793816D01*
X150797916Y-72619001D01*
X150797911Y-72618995D01*
X150647003Y-72468087D01*
X150524200Y-72382099D01*
X150472180Y-72345674D01*
X150406528Y-72315060D01*
X150278761Y-72255481D01*
X150278747Y-72255476D01*
X150072613Y-72200243D01*
X150072603Y-72200241D01*
X149860001Y-72181641D01*
X149859999Y-72181641D01*
X149647396Y-72200241D01*
X149647386Y-72200243D01*
X149441252Y-72255476D01*
X149441243Y-72255480D01*
X149247820Y-72345674D01*
X149247816Y-72345676D01*
X149073001Y-72468083D01*
X149072995Y-72468088D01*
X148922088Y-72618995D01*
X148922083Y-72619001D01*
X148799676Y-72793816D01*
X148799674Y-72793820D01*
X148709480Y-72987243D01*
X148707625Y-72992339D01*
X148706292Y-72991854D01*
X148673405Y-73045804D01*
X148610556Y-73076329D01*
X148541181Y-73068031D01*
X148487306Y-73023542D01*
X148472958Y-72992126D01*
X148472375Y-72992339D01*
X148470524Y-72987258D01*
X148470521Y-72987245D01*
X148380326Y-72793821D01*
X148380324Y-72793818D01*
X148380323Y-72793816D01*
X148257916Y-72619001D01*
X148257911Y-72618995D01*
X148107003Y-72468087D01*
X147984200Y-72382099D01*
X147932180Y-72345674D01*
X147866528Y-72315060D01*
X147738761Y-72255481D01*
X147738747Y-72255476D01*
X147532613Y-72200243D01*
X147532603Y-72200241D01*
X147320001Y-72181641D01*
X147319999Y-72181641D01*
X147107396Y-72200241D01*
X147107386Y-72200243D01*
X146901252Y-72255476D01*
X146901243Y-72255480D01*
X146707820Y-72345674D01*
X146707816Y-72345676D01*
X146533001Y-72468083D01*
X146532995Y-72468088D01*
X146382088Y-72618995D01*
X146382083Y-72619001D01*
X146259676Y-72793816D01*
X146259674Y-72793820D01*
X146169480Y-72987243D01*
X146169476Y-72987252D01*
X146114243Y-73193386D01*
X146114241Y-73193396D01*
X146095641Y-73405999D01*
X139977112Y-73405999D01*
X139977112Y-73405998D01*
X139956704Y-73172741D01*
X139956702Y-73172731D01*
X139896102Y-72946567D01*
X139896098Y-72946558D01*
X139797142Y-72734345D01*
X139797141Y-72734343D01*
X139740253Y-72653099D01*
X139740253Y-72653098D01*
X139185511Y-73207839D01*
X139178188Y-73180507D01*
X139101276Y-73047293D01*
X138992507Y-72938524D01*
X138859293Y-72861612D01*
X138831958Y-72854287D01*
X139386700Y-72299546D01*
X139386699Y-72299545D01*
X139305456Y-72242658D01*
X139305454Y-72242657D01*
X139093241Y-72143701D01*
X139093232Y-72143697D01*
X138867068Y-72083097D01*
X138867058Y-72083095D01*
X138633802Y-72062688D01*
X138633798Y-72062688D01*
X138400541Y-72083095D01*
X138400531Y-72083097D01*
X138174367Y-72143697D01*
X138174358Y-72143701D01*
X137962141Y-72242659D01*
X137880899Y-72299544D01*
X137880898Y-72299545D01*
X138435641Y-72854287D01*
X138408307Y-72861612D01*
X138275093Y-72938524D01*
X138166324Y-73047293D01*
X138089412Y-73180507D01*
X138082087Y-73207840D01*
X137527345Y-72653098D01*
X137527344Y-72653099D01*
X137470459Y-72734341D01*
X137410806Y-72862267D01*
X137364633Y-72914706D01*
X137297440Y-72933858D01*
X137230559Y-72913642D01*
X137186044Y-72862269D01*
X137154126Y-72793821D01*
X137066637Y-72668874D01*
X137031716Y-72619001D01*
X137031711Y-72618995D01*
X136880803Y-72468087D01*
X136758000Y-72382099D01*
X136705980Y-72345674D01*
X136640328Y-72315060D01*
X136512561Y-72255481D01*
X136512547Y-72255476D01*
X136306413Y-72200243D01*
X136306403Y-72200241D01*
X136093801Y-72181641D01*
X136093799Y-72181641D01*
X135881196Y-72200241D01*
X135881186Y-72200243D01*
X135675052Y-72255476D01*
X135675043Y-72255480D01*
X135481620Y-72345674D01*
X135481616Y-72345676D01*
X135306801Y-72468083D01*
X135306795Y-72468088D01*
X135155888Y-72618995D01*
X135155883Y-72619001D01*
X135033476Y-72793816D01*
X135033474Y-72793820D01*
X134943280Y-72987243D01*
X134943276Y-72987252D01*
X134888043Y-73193386D01*
X134888041Y-73193396D01*
X134869441Y-73405999D01*
X128613912Y-73405999D01*
X128613912Y-73405998D01*
X128593504Y-73172741D01*
X128593502Y-73172731D01*
X128532902Y-72946567D01*
X128532898Y-72946558D01*
X128433942Y-72734345D01*
X128433941Y-72734343D01*
X128377053Y-72653099D01*
X128377053Y-72653098D01*
X127822311Y-73207839D01*
X127814988Y-73180507D01*
X127738076Y-73047293D01*
X127629307Y-72938524D01*
X127496093Y-72861612D01*
X127468758Y-72854287D01*
X128023500Y-72299546D01*
X128023499Y-72299545D01*
X127942256Y-72242658D01*
X127942254Y-72242657D01*
X127730041Y-72143701D01*
X127730032Y-72143697D01*
X127503868Y-72083097D01*
X127503858Y-72083095D01*
X127270602Y-72062688D01*
X127270598Y-72062688D01*
X127037341Y-72083095D01*
X127037331Y-72083097D01*
X126811167Y-72143697D01*
X126811158Y-72143701D01*
X126598941Y-72242659D01*
X126517699Y-72299544D01*
X126517698Y-72299545D01*
X127072441Y-72854287D01*
X127045107Y-72861612D01*
X126911893Y-72938524D01*
X126803124Y-73047293D01*
X126726212Y-73180507D01*
X126718887Y-73207840D01*
X126164145Y-72653098D01*
X126164144Y-72653099D01*
X126107259Y-72734341D01*
X126047606Y-72862267D01*
X126001433Y-72914706D01*
X125934240Y-72933858D01*
X125867359Y-72913642D01*
X125822844Y-72862269D01*
X125790926Y-72793821D01*
X125703437Y-72668874D01*
X125668516Y-72619001D01*
X125668511Y-72618995D01*
X125517603Y-72468087D01*
X125394800Y-72382099D01*
X125342780Y-72345674D01*
X125277128Y-72315060D01*
X125149361Y-72255481D01*
X125149347Y-72255476D01*
X124943213Y-72200243D01*
X124943203Y-72200241D01*
X124730601Y-72181641D01*
X124730599Y-72181641D01*
X124517996Y-72200241D01*
X124517986Y-72200243D01*
X124311852Y-72255476D01*
X124311843Y-72255480D01*
X124118420Y-72345674D01*
X124118416Y-72345676D01*
X123943601Y-72468083D01*
X123943595Y-72468088D01*
X123792688Y-72618995D01*
X123792683Y-72619001D01*
X123670276Y-72793816D01*
X123670274Y-72793820D01*
X123580080Y-72987243D01*
X123580076Y-72987252D01*
X123524843Y-73193386D01*
X123524841Y-73193396D01*
X123506241Y-73405999D01*
X117250712Y-73405999D01*
X117250712Y-73405998D01*
X117230304Y-73172741D01*
X117230302Y-73172731D01*
X117169702Y-72946567D01*
X117169698Y-72946558D01*
X117070742Y-72734345D01*
X117070741Y-72734343D01*
X117013853Y-72653099D01*
X117013853Y-72653098D01*
X116459111Y-73207839D01*
X116451788Y-73180507D01*
X116374876Y-73047293D01*
X116266107Y-72938524D01*
X116132893Y-72861612D01*
X116105558Y-72854287D01*
X116660300Y-72299546D01*
X116660299Y-72299545D01*
X116579056Y-72242658D01*
X116579054Y-72242657D01*
X116366841Y-72143701D01*
X116366832Y-72143697D01*
X116140668Y-72083097D01*
X116140658Y-72083095D01*
X115907402Y-72062688D01*
X115907398Y-72062688D01*
X115674141Y-72083095D01*
X115674131Y-72083097D01*
X115447967Y-72143697D01*
X115447958Y-72143701D01*
X115235741Y-72242659D01*
X115154499Y-72299544D01*
X115154498Y-72299545D01*
X115709241Y-72854287D01*
X115681907Y-72861612D01*
X115548693Y-72938524D01*
X115439924Y-73047293D01*
X115363012Y-73180507D01*
X115355687Y-73207840D01*
X114800945Y-72653098D01*
X114800944Y-72653099D01*
X114744059Y-72734341D01*
X114684406Y-72862267D01*
X114638233Y-72914706D01*
X114571040Y-72933858D01*
X114504159Y-72913642D01*
X114459644Y-72862269D01*
X114427726Y-72793821D01*
X114340237Y-72668874D01*
X114305316Y-72619001D01*
X114305311Y-72618995D01*
X114154403Y-72468087D01*
X114031600Y-72382099D01*
X113979580Y-72345674D01*
X113913928Y-72315060D01*
X113786161Y-72255481D01*
X113786147Y-72255476D01*
X113580013Y-72200243D01*
X113580003Y-72200241D01*
X113367401Y-72181641D01*
X113367399Y-72181641D01*
X113154796Y-72200241D01*
X113154786Y-72200243D01*
X112948652Y-72255476D01*
X112948643Y-72255480D01*
X112755220Y-72345674D01*
X112755216Y-72345676D01*
X112580401Y-72468083D01*
X112580395Y-72468088D01*
X112429488Y-72618995D01*
X112429483Y-72619001D01*
X112307076Y-72793816D01*
X112307074Y-72793820D01*
X112216880Y-72987243D01*
X112216876Y-72987252D01*
X112161643Y-73193386D01*
X112161641Y-73193396D01*
X112143041Y-73405999D01*
X111122475Y-73405999D01*
X111171164Y-73314909D01*
X111225658Y-73135268D01*
X111244058Y-72948447D01*
X111225658Y-72761626D01*
X111171164Y-72581985D01*
X111082671Y-72416427D01*
X111035893Y-72359428D01*
X110963146Y-72270784D01*
X110935834Y-72206474D01*
X110935000Y-72192120D01*
X110935000Y-70544855D01*
X110954685Y-70477816D01*
X110963147Y-70466190D01*
X111032224Y-70382020D01*
X111120717Y-70216462D01*
X111175211Y-70036821D01*
X111193611Y-69850000D01*
X111175211Y-69663179D01*
X111120717Y-69483538D01*
X111032224Y-69317980D01*
X110996005Y-69273847D01*
X110913133Y-69172866D01*
X110768021Y-69053777D01*
X110768014Y-69053772D01*
X110602463Y-68965283D01*
X110422823Y-68910789D01*
X110236000Y-68892389D01*
X110049176Y-68910789D01*
X109869536Y-68965283D01*
X109703985Y-69053772D01*
X109703978Y-69053777D01*
X109558866Y-69172866D01*
X109439777Y-69317978D01*
X109439772Y-69317985D01*
X109351283Y-69483536D01*
X109296789Y-69663176D01*
X109278389Y-69850000D01*
X82296000Y-69850000D01*
X82296000Y-64640381D01*
X110119700Y-64640381D01*
X110119700Y-64899618D01*
X110119701Y-64899634D01*
X110153538Y-65156656D01*
X110220637Y-65407073D01*
X110319844Y-65646582D01*
X110319852Y-65646598D01*
X110449470Y-65871101D01*
X110449481Y-65871117D01*
X110607294Y-66076784D01*
X110607300Y-66076791D01*
X110790608Y-66260099D01*
X110790614Y-66260104D01*
X110996291Y-66417925D01*
X110996298Y-66417929D01*
X111220801Y-66547547D01*
X111220817Y-66547555D01*
X111370177Y-66609421D01*
X111460325Y-66646762D01*
X111710742Y-66713861D01*
X111967775Y-66747700D01*
X111967782Y-66747700D01*
X112227018Y-66747700D01*
X112227025Y-66747700D01*
X112484058Y-66713861D01*
X112734475Y-66646762D01*
X112914769Y-66572081D01*
X112973982Y-66547555D01*
X112973985Y-66547553D01*
X112973991Y-66547551D01*
X113198509Y-66417925D01*
X113404186Y-66260104D01*
X113587504Y-66076786D01*
X113745325Y-65871109D01*
X113874951Y-65646591D01*
X113974162Y-65407075D01*
X114041261Y-65156658D01*
X114075100Y-64899625D01*
X114075100Y-64640381D01*
X115199700Y-64640381D01*
X115199700Y-64899618D01*
X115199701Y-64899634D01*
X115233538Y-65156656D01*
X115300637Y-65407073D01*
X115399844Y-65646582D01*
X115399852Y-65646598D01*
X115529470Y-65871101D01*
X115529481Y-65871117D01*
X115687294Y-66076784D01*
X115687300Y-66076791D01*
X115870608Y-66260099D01*
X115870614Y-66260104D01*
X116076291Y-66417925D01*
X116076298Y-66417929D01*
X116300801Y-66547547D01*
X116300817Y-66547555D01*
X116450177Y-66609421D01*
X116540325Y-66646762D01*
X116790742Y-66713861D01*
X117047775Y-66747700D01*
X117047782Y-66747700D01*
X117307018Y-66747700D01*
X117307025Y-66747700D01*
X117564058Y-66713861D01*
X117814475Y-66646762D01*
X117994769Y-66572081D01*
X118053982Y-66547555D01*
X118053985Y-66547553D01*
X118053991Y-66547551D01*
X118278509Y-66417925D01*
X118484186Y-66260104D01*
X118667504Y-66076786D01*
X118825325Y-65871109D01*
X118954951Y-65646591D01*
X119054162Y-65407075D01*
X119121261Y-65156658D01*
X119155100Y-64899625D01*
X119155100Y-64640381D01*
X121482900Y-64640381D01*
X121482900Y-64899618D01*
X121482901Y-64899634D01*
X121516738Y-65156656D01*
X121583837Y-65407073D01*
X121683044Y-65646582D01*
X121683052Y-65646598D01*
X121812670Y-65871101D01*
X121812681Y-65871117D01*
X121970494Y-66076784D01*
X121970500Y-66076791D01*
X122153808Y-66260099D01*
X122153814Y-66260104D01*
X122359491Y-66417925D01*
X122359498Y-66417929D01*
X122584001Y-66547547D01*
X122584017Y-66547555D01*
X122733377Y-66609421D01*
X122823525Y-66646762D01*
X123073942Y-66713861D01*
X123330975Y-66747700D01*
X123330982Y-66747700D01*
X123590218Y-66747700D01*
X123590225Y-66747700D01*
X123847258Y-66713861D01*
X124097675Y-66646762D01*
X124277969Y-66572081D01*
X124337182Y-66547555D01*
X124337185Y-66547553D01*
X124337191Y-66547551D01*
X124561709Y-66417925D01*
X124767386Y-66260104D01*
X124950704Y-66076786D01*
X125108525Y-65871109D01*
X125238151Y-65646591D01*
X125337362Y-65407075D01*
X125404461Y-65156658D01*
X125438300Y-64899625D01*
X125438300Y-64640381D01*
X126562900Y-64640381D01*
X126562900Y-64899618D01*
X126562901Y-64899634D01*
X126596738Y-65156656D01*
X126663837Y-65407073D01*
X126763044Y-65646582D01*
X126763052Y-65646598D01*
X126892670Y-65871101D01*
X126892681Y-65871117D01*
X127050494Y-66076784D01*
X127050500Y-66076791D01*
X127233808Y-66260099D01*
X127233814Y-66260104D01*
X127439491Y-66417925D01*
X127439498Y-66417929D01*
X127664001Y-66547547D01*
X127664017Y-66547555D01*
X127813377Y-66609421D01*
X127903525Y-66646762D01*
X128153942Y-66713861D01*
X128410975Y-66747700D01*
X128410982Y-66747700D01*
X128670218Y-66747700D01*
X128670225Y-66747700D01*
X128927258Y-66713861D01*
X129177675Y-66646762D01*
X129357969Y-66572081D01*
X129417182Y-66547555D01*
X129417185Y-66547553D01*
X129417191Y-66547551D01*
X129641709Y-66417925D01*
X129847386Y-66260104D01*
X130030704Y-66076786D01*
X130188525Y-65871109D01*
X130318151Y-65646591D01*
X130417362Y-65407075D01*
X130484461Y-65156658D01*
X130518300Y-64899625D01*
X130518300Y-64640381D01*
X132846100Y-64640381D01*
X132846100Y-64899618D01*
X132846101Y-64899634D01*
X132879938Y-65156656D01*
X132947037Y-65407073D01*
X133046244Y-65646582D01*
X133046252Y-65646598D01*
X133175870Y-65871101D01*
X133175881Y-65871117D01*
X133333694Y-66076784D01*
X133333700Y-66076791D01*
X133517008Y-66260099D01*
X133517014Y-66260104D01*
X133722691Y-66417925D01*
X133722698Y-66417929D01*
X133947201Y-66547547D01*
X133947217Y-66547555D01*
X134096577Y-66609421D01*
X134186725Y-66646762D01*
X134437142Y-66713861D01*
X134694175Y-66747700D01*
X134694182Y-66747700D01*
X134953418Y-66747700D01*
X134953425Y-66747700D01*
X135210458Y-66713861D01*
X135460875Y-66646762D01*
X135641169Y-66572081D01*
X135700382Y-66547555D01*
X135700385Y-66547553D01*
X135700391Y-66547551D01*
X135924909Y-66417925D01*
X136130586Y-66260104D01*
X136313904Y-66076786D01*
X136471725Y-65871109D01*
X136601351Y-65646591D01*
X136700562Y-65407075D01*
X136767661Y-65156658D01*
X136801500Y-64899625D01*
X136801500Y-64640381D01*
X137926100Y-64640381D01*
X137926100Y-64899618D01*
X137926101Y-64899634D01*
X137959938Y-65156656D01*
X138027037Y-65407073D01*
X138126244Y-65646582D01*
X138126252Y-65646598D01*
X138255870Y-65871101D01*
X138255881Y-65871117D01*
X138413694Y-66076784D01*
X138413700Y-66076791D01*
X138597008Y-66260099D01*
X138597014Y-66260104D01*
X138802691Y-66417925D01*
X138802698Y-66417929D01*
X139027201Y-66547547D01*
X139027217Y-66547555D01*
X139176577Y-66609421D01*
X139266725Y-66646762D01*
X139517142Y-66713861D01*
X139774175Y-66747700D01*
X139774182Y-66747700D01*
X140033418Y-66747700D01*
X140033425Y-66747700D01*
X140290458Y-66713861D01*
X140540875Y-66646762D01*
X140721169Y-66572081D01*
X140780382Y-66547555D01*
X140780385Y-66547553D01*
X140780391Y-66547551D01*
X141004909Y-66417925D01*
X141210586Y-66260104D01*
X141393904Y-66076786D01*
X141551725Y-65871109D01*
X141681351Y-65646591D01*
X141780562Y-65407075D01*
X141847661Y-65156658D01*
X141881500Y-64899625D01*
X141881500Y-64640381D01*
X144072300Y-64640381D01*
X144072300Y-64899618D01*
X144072301Y-64899634D01*
X144106138Y-65156656D01*
X144173237Y-65407073D01*
X144272444Y-65646582D01*
X144272452Y-65646598D01*
X144402070Y-65871101D01*
X144402081Y-65871117D01*
X144559894Y-66076784D01*
X144559900Y-66076791D01*
X144743208Y-66260099D01*
X144743214Y-66260104D01*
X144948891Y-66417925D01*
X144948898Y-66417929D01*
X145173401Y-66547547D01*
X145173417Y-66547555D01*
X145322777Y-66609421D01*
X145412925Y-66646762D01*
X145663342Y-66713861D01*
X145920375Y-66747700D01*
X145920382Y-66747700D01*
X146179618Y-66747700D01*
X146179625Y-66747700D01*
X146436658Y-66713861D01*
X146687075Y-66646762D01*
X146867369Y-66572081D01*
X146926582Y-66547555D01*
X146926585Y-66547553D01*
X146926591Y-66547551D01*
X147151109Y-66417925D01*
X147356786Y-66260104D01*
X147540104Y-66076786D01*
X147697925Y-65871109D01*
X147827551Y-65646591D01*
X147926762Y-65407075D01*
X147993861Y-65156658D01*
X148027700Y-64899625D01*
X148027700Y-64640381D01*
X149152300Y-64640381D01*
X149152300Y-64899618D01*
X149152301Y-64899634D01*
X149186138Y-65156656D01*
X149253237Y-65407073D01*
X149352444Y-65646582D01*
X149352452Y-65646598D01*
X149482070Y-65871101D01*
X149482081Y-65871117D01*
X149639894Y-66076784D01*
X149639900Y-66076791D01*
X149823208Y-66260099D01*
X149823214Y-66260104D01*
X150028891Y-66417925D01*
X150028898Y-66417929D01*
X150253401Y-66547547D01*
X150253417Y-66547555D01*
X150402777Y-66609421D01*
X150492925Y-66646762D01*
X150743342Y-66713861D01*
X151000375Y-66747700D01*
X151000382Y-66747700D01*
X151259618Y-66747700D01*
X151259625Y-66747700D01*
X151516658Y-66713861D01*
X151767075Y-66646762D01*
X151947369Y-66572081D01*
X152006582Y-66547555D01*
X152006585Y-66547553D01*
X152006591Y-66547551D01*
X152231109Y-66417925D01*
X152436786Y-66260104D01*
X152620104Y-66076786D01*
X152777925Y-65871109D01*
X152907551Y-65646591D01*
X153006762Y-65407075D01*
X153073861Y-65156658D01*
X153107700Y-64899625D01*
X153107700Y-64640375D01*
X153073861Y-64383342D01*
X153006762Y-64132925D01*
X152969421Y-64042777D01*
X152907555Y-63893417D01*
X152907547Y-63893401D01*
X152777929Y-63668898D01*
X152777925Y-63668891D01*
X152620104Y-63463214D01*
X152620099Y-63463208D01*
X152436791Y-63279900D01*
X152436784Y-63279894D01*
X152231117Y-63122081D01*
X152231115Y-63122079D01*
X152231109Y-63122075D01*
X152231104Y-63122072D01*
X152231101Y-63122070D01*
X152006598Y-62992452D01*
X152006582Y-62992444D01*
X151767073Y-62893237D01*
X151516656Y-62826138D01*
X151259634Y-62792301D01*
X151259631Y-62792300D01*
X151259625Y-62792300D01*
X151000375Y-62792300D01*
X151000369Y-62792300D01*
X151000365Y-62792301D01*
X150743343Y-62826138D01*
X150492926Y-62893237D01*
X150253417Y-62992444D01*
X150253401Y-62992452D01*
X150028898Y-63122070D01*
X150028882Y-63122081D01*
X149823215Y-63279894D01*
X149823208Y-63279900D01*
X149639900Y-63463208D01*
X149639894Y-63463215D01*
X149482081Y-63668882D01*
X149482070Y-63668898D01*
X149352452Y-63893401D01*
X149352444Y-63893417D01*
X149253237Y-64132926D01*
X149186138Y-64383343D01*
X149152301Y-64640365D01*
X149152300Y-64640381D01*
X148027700Y-64640381D01*
X148027700Y-64640375D01*
X147993861Y-64383342D01*
X147926762Y-64132925D01*
X147889421Y-64042777D01*
X147827555Y-63893417D01*
X147827547Y-63893401D01*
X147697929Y-63668898D01*
X147697925Y-63668891D01*
X147540104Y-63463214D01*
X147540099Y-63463208D01*
X147356791Y-63279900D01*
X147356784Y-63279894D01*
X147151117Y-63122081D01*
X147151115Y-63122079D01*
X147151109Y-63122075D01*
X147151104Y-63122072D01*
X147151101Y-63122070D01*
X146926598Y-62992452D01*
X146926582Y-62992444D01*
X146687073Y-62893237D01*
X146436656Y-62826138D01*
X146179634Y-62792301D01*
X146179631Y-62792300D01*
X146179625Y-62792300D01*
X145920375Y-62792300D01*
X145920369Y-62792300D01*
X145920365Y-62792301D01*
X145663343Y-62826138D01*
X145412926Y-62893237D01*
X145173417Y-62992444D01*
X145173401Y-62992452D01*
X144948898Y-63122070D01*
X144948882Y-63122081D01*
X144743215Y-63279894D01*
X144743208Y-63279900D01*
X144559900Y-63463208D01*
X144559894Y-63463215D01*
X144402081Y-63668882D01*
X144402070Y-63668898D01*
X144272452Y-63893401D01*
X144272444Y-63893417D01*
X144173237Y-64132926D01*
X144106138Y-64383343D01*
X144072301Y-64640365D01*
X144072300Y-64640381D01*
X141881500Y-64640381D01*
X141881500Y-64640375D01*
X141847661Y-64383342D01*
X141780562Y-64132925D01*
X141743221Y-64042777D01*
X141681355Y-63893417D01*
X141681347Y-63893401D01*
X141551729Y-63668898D01*
X141551725Y-63668891D01*
X141393904Y-63463214D01*
X141393899Y-63463208D01*
X141210591Y-63279900D01*
X141210584Y-63279894D01*
X141004917Y-63122081D01*
X141004915Y-63122079D01*
X141004909Y-63122075D01*
X141004904Y-63122072D01*
X141004901Y-63122070D01*
X140780398Y-62992452D01*
X140780382Y-62992444D01*
X140540873Y-62893237D01*
X140290456Y-62826138D01*
X140033434Y-62792301D01*
X140033431Y-62792300D01*
X140033425Y-62792300D01*
X139774175Y-62792300D01*
X139774169Y-62792300D01*
X139774165Y-62792301D01*
X139517143Y-62826138D01*
X139266726Y-62893237D01*
X139027217Y-62992444D01*
X139027201Y-62992452D01*
X138802698Y-63122070D01*
X138802682Y-63122081D01*
X138597015Y-63279894D01*
X138597008Y-63279900D01*
X138413700Y-63463208D01*
X138413694Y-63463215D01*
X138255881Y-63668882D01*
X138255870Y-63668898D01*
X138126252Y-63893401D01*
X138126244Y-63893417D01*
X138027037Y-64132926D01*
X137959938Y-64383343D01*
X137926101Y-64640365D01*
X137926100Y-64640381D01*
X136801500Y-64640381D01*
X136801500Y-64640375D01*
X136767661Y-64383342D01*
X136700562Y-64132925D01*
X136663221Y-64042777D01*
X136601355Y-63893417D01*
X136601347Y-63893401D01*
X136471729Y-63668898D01*
X136471725Y-63668891D01*
X136313904Y-63463214D01*
X136313899Y-63463208D01*
X136130591Y-63279900D01*
X136130584Y-63279894D01*
X135924917Y-63122081D01*
X135924915Y-63122079D01*
X135924909Y-63122075D01*
X135924904Y-63122072D01*
X135924901Y-63122070D01*
X135700398Y-62992452D01*
X135700382Y-62992444D01*
X135460873Y-62893237D01*
X135210456Y-62826138D01*
X134953434Y-62792301D01*
X134953431Y-62792300D01*
X134953425Y-62792300D01*
X134694175Y-62792300D01*
X134694169Y-62792300D01*
X134694165Y-62792301D01*
X134437143Y-62826138D01*
X134186726Y-62893237D01*
X133947217Y-62992444D01*
X133947201Y-62992452D01*
X133722698Y-63122070D01*
X133722682Y-63122081D01*
X133517015Y-63279894D01*
X133517008Y-63279900D01*
X133333700Y-63463208D01*
X133333694Y-63463215D01*
X133175881Y-63668882D01*
X133175870Y-63668898D01*
X133046252Y-63893401D01*
X133046244Y-63893417D01*
X132947037Y-64132926D01*
X132879938Y-64383343D01*
X132846101Y-64640365D01*
X132846100Y-64640381D01*
X130518300Y-64640381D01*
X130518300Y-64640375D01*
X130484461Y-64383342D01*
X130417362Y-64132925D01*
X130380021Y-64042777D01*
X130318155Y-63893417D01*
X130318147Y-63893401D01*
X130188529Y-63668898D01*
X130188525Y-63668891D01*
X130030704Y-63463214D01*
X130030699Y-63463208D01*
X129847391Y-63279900D01*
X129847384Y-63279894D01*
X129641717Y-63122081D01*
X129641715Y-63122079D01*
X129641709Y-63122075D01*
X129641704Y-63122072D01*
X129641701Y-63122070D01*
X129417198Y-62992452D01*
X129417182Y-62992444D01*
X129177673Y-62893237D01*
X128927256Y-62826138D01*
X128670234Y-62792301D01*
X128670231Y-62792300D01*
X128670225Y-62792300D01*
X128410975Y-62792300D01*
X128410969Y-62792300D01*
X128410965Y-62792301D01*
X128153943Y-62826138D01*
X127903526Y-62893237D01*
X127664017Y-62992444D01*
X127664001Y-62992452D01*
X127439498Y-63122070D01*
X127439482Y-63122081D01*
X127233815Y-63279894D01*
X127233808Y-63279900D01*
X127050500Y-63463208D01*
X127050494Y-63463215D01*
X126892681Y-63668882D01*
X126892670Y-63668898D01*
X126763052Y-63893401D01*
X126763044Y-63893417D01*
X126663837Y-64132926D01*
X126596738Y-64383343D01*
X126562901Y-64640365D01*
X126562900Y-64640381D01*
X125438300Y-64640381D01*
X125438300Y-64640375D01*
X125404461Y-64383342D01*
X125337362Y-64132925D01*
X125300021Y-64042777D01*
X125238155Y-63893417D01*
X125238147Y-63893401D01*
X125108529Y-63668898D01*
X125108525Y-63668891D01*
X124950704Y-63463214D01*
X124950699Y-63463208D01*
X124767391Y-63279900D01*
X124767384Y-63279894D01*
X124561717Y-63122081D01*
X124561715Y-63122079D01*
X124561709Y-63122075D01*
X124561704Y-63122072D01*
X124561701Y-63122070D01*
X124337198Y-62992452D01*
X124337182Y-62992444D01*
X124097673Y-62893237D01*
X123847256Y-62826138D01*
X123590234Y-62792301D01*
X123590231Y-62792300D01*
X123590225Y-62792300D01*
X123330975Y-62792300D01*
X123330969Y-62792300D01*
X123330965Y-62792301D01*
X123073943Y-62826138D01*
X122823526Y-62893237D01*
X122584017Y-62992444D01*
X122584001Y-62992452D01*
X122359498Y-63122070D01*
X122359482Y-63122081D01*
X122153815Y-63279894D01*
X122153808Y-63279900D01*
X121970500Y-63463208D01*
X121970494Y-63463215D01*
X121812681Y-63668882D01*
X121812670Y-63668898D01*
X121683052Y-63893401D01*
X121683044Y-63893417D01*
X121583837Y-64132926D01*
X121516738Y-64383343D01*
X121482901Y-64640365D01*
X121482900Y-64640381D01*
X119155100Y-64640381D01*
X119155100Y-64640375D01*
X119121261Y-64383342D01*
X119054162Y-64132925D01*
X119016821Y-64042777D01*
X118954955Y-63893417D01*
X118954947Y-63893401D01*
X118825329Y-63668898D01*
X118825325Y-63668891D01*
X118667504Y-63463214D01*
X118667499Y-63463208D01*
X118484191Y-63279900D01*
X118484184Y-63279894D01*
X118278517Y-63122081D01*
X118278515Y-63122079D01*
X118278509Y-63122075D01*
X118278504Y-63122072D01*
X118278501Y-63122070D01*
X118053998Y-62992452D01*
X118053982Y-62992444D01*
X117814473Y-62893237D01*
X117564056Y-62826138D01*
X117307034Y-62792301D01*
X117307031Y-62792300D01*
X117307025Y-62792300D01*
X117047775Y-62792300D01*
X117047769Y-62792300D01*
X117047765Y-62792301D01*
X116790743Y-62826138D01*
X116540326Y-62893237D01*
X116300817Y-62992444D01*
X116300801Y-62992452D01*
X116076298Y-63122070D01*
X116076282Y-63122081D01*
X115870615Y-63279894D01*
X115870608Y-63279900D01*
X115687300Y-63463208D01*
X115687294Y-63463215D01*
X115529481Y-63668882D01*
X115529470Y-63668898D01*
X115399852Y-63893401D01*
X115399844Y-63893417D01*
X115300637Y-64132926D01*
X115233538Y-64383343D01*
X115199701Y-64640365D01*
X115199700Y-64640381D01*
X114075100Y-64640381D01*
X114075100Y-64640375D01*
X114041261Y-64383342D01*
X113974162Y-64132925D01*
X113936821Y-64042777D01*
X113874955Y-63893417D01*
X113874947Y-63893401D01*
X113745329Y-63668898D01*
X113745325Y-63668891D01*
X113587504Y-63463214D01*
X113587499Y-63463208D01*
X113404191Y-63279900D01*
X113404184Y-63279894D01*
X113198517Y-63122081D01*
X113198515Y-63122079D01*
X113198509Y-63122075D01*
X113198504Y-63122072D01*
X113198501Y-63122070D01*
X112973998Y-62992452D01*
X112973982Y-62992444D01*
X112734473Y-62893237D01*
X112484056Y-62826138D01*
X112227034Y-62792301D01*
X112227031Y-62792300D01*
X112227025Y-62792300D01*
X111967775Y-62792300D01*
X111967769Y-62792300D01*
X111967765Y-62792301D01*
X111710743Y-62826138D01*
X111460326Y-62893237D01*
X111220817Y-62992444D01*
X111220801Y-62992452D01*
X110996298Y-63122070D01*
X110996282Y-63122081D01*
X110790615Y-63279894D01*
X110790608Y-63279900D01*
X110607300Y-63463208D01*
X110607294Y-63463215D01*
X110449481Y-63668882D01*
X110449470Y-63668898D01*
X110319852Y-63893401D01*
X110319844Y-63893417D01*
X110220637Y-64132926D01*
X110153538Y-64383343D01*
X110119701Y-64640365D01*
X110119700Y-64640381D01*
X82296000Y-64640381D01*
X82296000Y-61084000D01*
X82315685Y-61016961D01*
X82368489Y-60971206D01*
X82420000Y-60960000D01*
X154561405Y-60960000D01*
X154628444Y-60979685D01*
G37*
%TD.AperFunction*%
%TD*%
M02*
