%TF.GenerationSoftware,KiCad,Pcbnew,8.0.4-8.0.4-0~ubuntu22.04.1*%
%TF.CreationDate,2024-07-29T20:28:28-07:00*%
%TF.ProjectId,kraken-pwm-controller,6b72616b-656e-42d7-9077-6d2d636f6e74,rev?*%
%TF.SameCoordinates,Original*%
%TF.FileFunction,Soldermask,Bot*%
%TF.FilePolarity,Negative*%
%FSLAX46Y46*%
G04 Gerber Fmt 4.6, Leading zero omitted, Abs format (unit mm)*
G04 Created by KiCad (PCBNEW 8.0.4-8.0.4-0~ubuntu22.04.1) date 2024-07-29 20:28:28*
%MOMM*%
%LPD*%
G01*
G04 APERTURE LIST*
%ADD10C,1.800000*%
%ADD11C,4.460000*%
%ADD12C,1.676400*%
%ADD13C,3.454400*%
%ADD14O,1.712000X3.220000*%
%ADD15O,3.220000X1.712000*%
%ADD16C,3.200000*%
%ADD17R,1.295400X1.295400*%
%ADD18C,1.295400*%
%ADD19R,1.320800X1.320800*%
%ADD20C,1.320800*%
%ADD21R,2.000000X1.905000*%
%ADD22O,2.000000X1.905000*%
G04 APERTURE END LIST*
D10*
%TO.C,RV1*%
X150242000Y-100076000D03*
X147742000Y-100076000D03*
X145242000Y-100076000D03*
D11*
X152142000Y-107076000D03*
X143342000Y-107076000D03*
%TD*%
D12*
%TO.C,J2*%
X136093800Y-73406000D03*
X138633800Y-73406000D03*
%TD*%
D13*
%TO.C,J4*%
X112097400Y-64770000D03*
D12*
X113367400Y-73406000D03*
X115907400Y-73406000D03*
%TD*%
D14*
%TO.C,J5*%
X148440000Y-87025000D03*
X154440000Y-87025000D03*
D15*
X151440000Y-82325000D03*
%TD*%
D10*
%TO.C,RV3*%
X117522000Y-100076000D03*
X115022000Y-100076000D03*
X112522000Y-100076000D03*
D11*
X119422000Y-107076000D03*
X110622000Y-107076000D03*
%TD*%
D12*
%TO.C,J1*%
X147320000Y-73406000D03*
X149860000Y-73406000D03*
%TD*%
D16*
%TO.C,H4*%
X159258000Y-110744000D03*
%TD*%
D12*
%TO.C,J3*%
X124730600Y-73406000D03*
X127270600Y-73406000D03*
%TD*%
D17*
%TO.C,U4*%
X122428000Y-94488000D03*
D18*
X122428000Y-91948000D03*
X122428000Y-89408000D03*
X122428000Y-86868000D03*
X122428000Y-84328000D03*
X122428000Y-81788000D03*
X122428000Y-79248000D03*
X114808000Y-79248000D03*
X114808000Y-81788000D03*
X114808000Y-84328000D03*
X114808000Y-86868000D03*
X114808000Y-89408000D03*
X114808000Y-91948000D03*
X114808000Y-94488000D03*
%TD*%
D16*
%TO.C,H1*%
X78486000Y-63754000D03*
%TD*%
%TO.C,H2*%
X78740000Y-110744000D03*
%TD*%
D19*
%TO.C,C3*%
X127000000Y-89408000D03*
D20*
X127000000Y-84328000D03*
%TD*%
D21*
%TO.C,U1*%
X135382000Y-89408000D03*
D22*
X135382000Y-86868000D03*
X135382000Y-84328000D03*
%TD*%
D19*
%TO.C,C1*%
X128524000Y-94742000D03*
D20*
X133604000Y-94742000D03*
%TD*%
D16*
%TO.C,H3*%
X159258000Y-63754000D03*
%TD*%
D10*
%TO.C,RV2*%
X133882000Y-100076000D03*
X131382000Y-100076000D03*
X128882000Y-100076000D03*
D11*
X135782000Y-107076000D03*
X126982000Y-107076000D03*
%TD*%
M02*
