%TF.GenerationSoftware,KiCad,Pcbnew,8.0.4-8.0.4-0~ubuntu22.04.1*%
%TF.CreationDate,2024-07-29T20:28:28-07:00*%
%TF.ProjectId,kraken-pwm-controller,6b72616b-656e-42d7-9077-6d2d636f6e74,rev?*%
%TF.SameCoordinates,Original*%
%TF.FileFunction,Soldermask,Top*%
%TF.FilePolarity,Negative*%
%FSLAX46Y46*%
G04 Gerber Fmt 4.6, Leading zero omitted, Abs format (unit mm)*
G04 Created by KiCad (PCBNEW 8.0.4-8.0.4-0~ubuntu22.04.1) date 2024-07-29 20:28:28*
%MOMM*%
%LPD*%
G01*
G04 APERTURE LIST*
G04 Aperture macros list*
%AMRoundRect*
0 Rectangle with rounded corners*
0 $1 Rounding radius*
0 $2 $3 $4 $5 $6 $7 $8 $9 X,Y pos of 4 corners*
0 Add a 4 corners polygon primitive as box body*
4,1,4,$2,$3,$4,$5,$6,$7,$8,$9,$2,$3,0*
0 Add four circle primitives for the rounded corners*
1,1,$1+$1,$2,$3*
1,1,$1+$1,$4,$5*
1,1,$1+$1,$6,$7*
1,1,$1+$1,$8,$9*
0 Add four rect primitives between the rounded corners*
20,1,$1+$1,$2,$3,$4,$5,0*
20,1,$1+$1,$4,$5,$6,$7,0*
20,1,$1+$1,$6,$7,$8,$9,0*
20,1,$1+$1,$8,$9,$2,$3,0*%
G04 Aperture macros list end*
%ADD10C,0.010000*%
%ADD11C,1.800000*%
%ADD12C,4.460000*%
%ADD13C,1.676400*%
%ADD14C,3.454400*%
%ADD15O,1.712000X3.220000*%
%ADD16O,3.220000X1.712000*%
%ADD17C,3.200000*%
%ADD18R,1.295400X1.295400*%
%ADD19C,1.295400*%
%ADD20R,1.320800X1.320800*%
%ADD21C,1.320800*%
%ADD22O,1.304000X2.004000*%
%ADD23O,1.254000X1.654000*%
%ADD24RoundRect,0.340800X-0.511200X-0.511200X0.511200X-0.511200X0.511200X0.511200X-0.511200X0.511200X0*%
%ADD25R,2.000000X1.905000*%
%ADD26O,2.000000X1.905000*%
G04 APERTURE END LIST*
D10*
%TO.C,U2*%
X85861000Y-62093000D02*
X85908000Y-62097000D01*
X85955000Y-62103000D01*
X86001000Y-62112000D01*
X86047000Y-62123000D01*
X86092000Y-62136000D01*
X86137000Y-62152000D01*
X86180000Y-62170000D01*
X86223000Y-62190000D01*
X86264000Y-62213000D01*
X86304000Y-62237000D01*
X86343000Y-62264000D01*
X86380000Y-62293000D01*
X86416000Y-62323000D01*
X86450000Y-62356000D01*
X86483000Y-62390000D01*
X86513000Y-62426000D01*
X86542000Y-62463000D01*
X86569000Y-62502000D01*
X86593000Y-62542000D01*
X86616000Y-62583000D01*
X86636000Y-62626000D01*
X86654000Y-62669000D01*
X86670000Y-62714000D01*
X86683000Y-62759000D01*
X86694000Y-62805000D01*
X86703000Y-62851000D01*
X86709000Y-62898000D01*
X86713000Y-62945000D01*
X86714000Y-62992000D01*
X86713000Y-63039000D01*
X86709000Y-63086000D01*
X86703000Y-63133000D01*
X86694000Y-63179000D01*
X86683000Y-63225000D01*
X86670000Y-63270000D01*
X86654000Y-63315000D01*
X86636000Y-63358000D01*
X86616000Y-63401000D01*
X86593000Y-63442000D01*
X86569000Y-63482000D01*
X86542000Y-63521000D01*
X86513000Y-63558000D01*
X86483000Y-63594000D01*
X86450000Y-63628000D01*
X86416000Y-63661000D01*
X86380000Y-63691000D01*
X86343000Y-63720000D01*
X86304000Y-63747000D01*
X86264000Y-63771000D01*
X86223000Y-63794000D01*
X86180000Y-63814000D01*
X86137000Y-63832000D01*
X86092000Y-63848000D01*
X86047000Y-63861000D01*
X86001000Y-63872000D01*
X85955000Y-63881000D01*
X85908000Y-63887000D01*
X85861000Y-63891000D01*
X85814000Y-63892000D01*
X83314000Y-63892000D01*
X83314000Y-62092000D01*
X85814000Y-62092000D01*
X85861000Y-62093000D01*
G36*
X85861000Y-62093000D02*
G01*
X85908000Y-62097000D01*
X85955000Y-62103000D01*
X86001000Y-62112000D01*
X86047000Y-62123000D01*
X86092000Y-62136000D01*
X86137000Y-62152000D01*
X86180000Y-62170000D01*
X86223000Y-62190000D01*
X86264000Y-62213000D01*
X86304000Y-62237000D01*
X86343000Y-62264000D01*
X86380000Y-62293000D01*
X86416000Y-62323000D01*
X86450000Y-62356000D01*
X86483000Y-62390000D01*
X86513000Y-62426000D01*
X86542000Y-62463000D01*
X86569000Y-62502000D01*
X86593000Y-62542000D01*
X86616000Y-62583000D01*
X86636000Y-62626000D01*
X86654000Y-62669000D01*
X86670000Y-62714000D01*
X86683000Y-62759000D01*
X86694000Y-62805000D01*
X86703000Y-62851000D01*
X86709000Y-62898000D01*
X86713000Y-62945000D01*
X86714000Y-62992000D01*
X86713000Y-63039000D01*
X86709000Y-63086000D01*
X86703000Y-63133000D01*
X86694000Y-63179000D01*
X86683000Y-63225000D01*
X86670000Y-63270000D01*
X86654000Y-63315000D01*
X86636000Y-63358000D01*
X86616000Y-63401000D01*
X86593000Y-63442000D01*
X86569000Y-63482000D01*
X86542000Y-63521000D01*
X86513000Y-63558000D01*
X86483000Y-63594000D01*
X86450000Y-63628000D01*
X86416000Y-63661000D01*
X86380000Y-63691000D01*
X86343000Y-63720000D01*
X86304000Y-63747000D01*
X86264000Y-63771000D01*
X86223000Y-63794000D01*
X86180000Y-63814000D01*
X86137000Y-63832000D01*
X86092000Y-63848000D01*
X86047000Y-63861000D01*
X86001000Y-63872000D01*
X85955000Y-63881000D01*
X85908000Y-63887000D01*
X85861000Y-63891000D01*
X85814000Y-63892000D01*
X83314000Y-63892000D01*
X83314000Y-62092000D01*
X85814000Y-62092000D01*
X85861000Y-62093000D01*
G37*
X85861000Y-64633000D02*
X85908000Y-64637000D01*
X85955000Y-64643000D01*
X86001000Y-64652000D01*
X86047000Y-64663000D01*
X86092000Y-64676000D01*
X86137000Y-64692000D01*
X86180000Y-64710000D01*
X86223000Y-64730000D01*
X86264000Y-64753000D01*
X86304000Y-64777000D01*
X86343000Y-64804000D01*
X86380000Y-64833000D01*
X86416000Y-64863000D01*
X86450000Y-64896000D01*
X86483000Y-64930000D01*
X86513000Y-64966000D01*
X86542000Y-65003000D01*
X86569000Y-65042000D01*
X86593000Y-65082000D01*
X86616000Y-65123000D01*
X86636000Y-65166000D01*
X86654000Y-65209000D01*
X86670000Y-65254000D01*
X86683000Y-65299000D01*
X86694000Y-65345000D01*
X86703000Y-65391000D01*
X86709000Y-65438000D01*
X86713000Y-65485000D01*
X86714000Y-65532000D01*
X86713000Y-65579000D01*
X86709000Y-65626000D01*
X86703000Y-65673000D01*
X86694000Y-65719000D01*
X86683000Y-65765000D01*
X86670000Y-65810000D01*
X86654000Y-65855000D01*
X86636000Y-65898000D01*
X86616000Y-65941000D01*
X86593000Y-65982000D01*
X86569000Y-66022000D01*
X86542000Y-66061000D01*
X86513000Y-66098000D01*
X86483000Y-66134000D01*
X86450000Y-66168000D01*
X86416000Y-66201000D01*
X86380000Y-66231000D01*
X86343000Y-66260000D01*
X86304000Y-66287000D01*
X86264000Y-66311000D01*
X86223000Y-66334000D01*
X86180000Y-66354000D01*
X86137000Y-66372000D01*
X86092000Y-66388000D01*
X86047000Y-66401000D01*
X86001000Y-66412000D01*
X85955000Y-66421000D01*
X85908000Y-66427000D01*
X85861000Y-66431000D01*
X85814000Y-66432000D01*
X83314000Y-66432000D01*
X83314000Y-64632000D01*
X85814000Y-64632000D01*
X85861000Y-64633000D01*
G36*
X85861000Y-64633000D02*
G01*
X85908000Y-64637000D01*
X85955000Y-64643000D01*
X86001000Y-64652000D01*
X86047000Y-64663000D01*
X86092000Y-64676000D01*
X86137000Y-64692000D01*
X86180000Y-64710000D01*
X86223000Y-64730000D01*
X86264000Y-64753000D01*
X86304000Y-64777000D01*
X86343000Y-64804000D01*
X86380000Y-64833000D01*
X86416000Y-64863000D01*
X86450000Y-64896000D01*
X86483000Y-64930000D01*
X86513000Y-64966000D01*
X86542000Y-65003000D01*
X86569000Y-65042000D01*
X86593000Y-65082000D01*
X86616000Y-65123000D01*
X86636000Y-65166000D01*
X86654000Y-65209000D01*
X86670000Y-65254000D01*
X86683000Y-65299000D01*
X86694000Y-65345000D01*
X86703000Y-65391000D01*
X86709000Y-65438000D01*
X86713000Y-65485000D01*
X86714000Y-65532000D01*
X86713000Y-65579000D01*
X86709000Y-65626000D01*
X86703000Y-65673000D01*
X86694000Y-65719000D01*
X86683000Y-65765000D01*
X86670000Y-65810000D01*
X86654000Y-65855000D01*
X86636000Y-65898000D01*
X86616000Y-65941000D01*
X86593000Y-65982000D01*
X86569000Y-66022000D01*
X86542000Y-66061000D01*
X86513000Y-66098000D01*
X86483000Y-66134000D01*
X86450000Y-66168000D01*
X86416000Y-66201000D01*
X86380000Y-66231000D01*
X86343000Y-66260000D01*
X86304000Y-66287000D01*
X86264000Y-66311000D01*
X86223000Y-66334000D01*
X86180000Y-66354000D01*
X86137000Y-66372000D01*
X86092000Y-66388000D01*
X86047000Y-66401000D01*
X86001000Y-66412000D01*
X85955000Y-66421000D01*
X85908000Y-66427000D01*
X85861000Y-66431000D01*
X85814000Y-66432000D01*
X83314000Y-66432000D01*
X83314000Y-64632000D01*
X85814000Y-64632000D01*
X85861000Y-64633000D01*
G37*
X85861000Y-69713000D02*
X85908000Y-69717000D01*
X85955000Y-69723000D01*
X86001000Y-69732000D01*
X86047000Y-69743000D01*
X86092000Y-69756000D01*
X86137000Y-69772000D01*
X86180000Y-69790000D01*
X86223000Y-69810000D01*
X86264000Y-69833000D01*
X86304000Y-69857000D01*
X86343000Y-69884000D01*
X86380000Y-69913000D01*
X86416000Y-69943000D01*
X86450000Y-69976000D01*
X86483000Y-70010000D01*
X86513000Y-70046000D01*
X86542000Y-70083000D01*
X86569000Y-70122000D01*
X86593000Y-70162000D01*
X86616000Y-70203000D01*
X86636000Y-70246000D01*
X86654000Y-70289000D01*
X86670000Y-70334000D01*
X86683000Y-70379000D01*
X86694000Y-70425000D01*
X86703000Y-70471000D01*
X86709000Y-70518000D01*
X86713000Y-70565000D01*
X86714000Y-70612000D01*
X86713000Y-70659000D01*
X86709000Y-70706000D01*
X86703000Y-70753000D01*
X86694000Y-70799000D01*
X86683000Y-70845000D01*
X86670000Y-70890000D01*
X86654000Y-70935000D01*
X86636000Y-70978000D01*
X86616000Y-71021000D01*
X86593000Y-71062000D01*
X86569000Y-71102000D01*
X86542000Y-71141000D01*
X86513000Y-71178000D01*
X86483000Y-71214000D01*
X86450000Y-71248000D01*
X86416000Y-71281000D01*
X86380000Y-71311000D01*
X86343000Y-71340000D01*
X86304000Y-71367000D01*
X86264000Y-71391000D01*
X86223000Y-71414000D01*
X86180000Y-71434000D01*
X86137000Y-71452000D01*
X86092000Y-71468000D01*
X86047000Y-71481000D01*
X86001000Y-71492000D01*
X85955000Y-71501000D01*
X85908000Y-71507000D01*
X85861000Y-71511000D01*
X85814000Y-71512000D01*
X83314000Y-71512000D01*
X83314000Y-69712000D01*
X85814000Y-69712000D01*
X85861000Y-69713000D01*
G36*
X85861000Y-69713000D02*
G01*
X85908000Y-69717000D01*
X85955000Y-69723000D01*
X86001000Y-69732000D01*
X86047000Y-69743000D01*
X86092000Y-69756000D01*
X86137000Y-69772000D01*
X86180000Y-69790000D01*
X86223000Y-69810000D01*
X86264000Y-69833000D01*
X86304000Y-69857000D01*
X86343000Y-69884000D01*
X86380000Y-69913000D01*
X86416000Y-69943000D01*
X86450000Y-69976000D01*
X86483000Y-70010000D01*
X86513000Y-70046000D01*
X86542000Y-70083000D01*
X86569000Y-70122000D01*
X86593000Y-70162000D01*
X86616000Y-70203000D01*
X86636000Y-70246000D01*
X86654000Y-70289000D01*
X86670000Y-70334000D01*
X86683000Y-70379000D01*
X86694000Y-70425000D01*
X86703000Y-70471000D01*
X86709000Y-70518000D01*
X86713000Y-70565000D01*
X86714000Y-70612000D01*
X86713000Y-70659000D01*
X86709000Y-70706000D01*
X86703000Y-70753000D01*
X86694000Y-70799000D01*
X86683000Y-70845000D01*
X86670000Y-70890000D01*
X86654000Y-70935000D01*
X86636000Y-70978000D01*
X86616000Y-71021000D01*
X86593000Y-71062000D01*
X86569000Y-71102000D01*
X86542000Y-71141000D01*
X86513000Y-71178000D01*
X86483000Y-71214000D01*
X86450000Y-71248000D01*
X86416000Y-71281000D01*
X86380000Y-71311000D01*
X86343000Y-71340000D01*
X86304000Y-71367000D01*
X86264000Y-71391000D01*
X86223000Y-71414000D01*
X86180000Y-71434000D01*
X86137000Y-71452000D01*
X86092000Y-71468000D01*
X86047000Y-71481000D01*
X86001000Y-71492000D01*
X85955000Y-71501000D01*
X85908000Y-71507000D01*
X85861000Y-71511000D01*
X85814000Y-71512000D01*
X83314000Y-71512000D01*
X83314000Y-69712000D01*
X85814000Y-69712000D01*
X85861000Y-69713000D01*
G37*
X85861000Y-72253000D02*
X85908000Y-72257000D01*
X85955000Y-72263000D01*
X86001000Y-72272000D01*
X86047000Y-72283000D01*
X86092000Y-72296000D01*
X86137000Y-72312000D01*
X86180000Y-72330000D01*
X86223000Y-72350000D01*
X86264000Y-72373000D01*
X86304000Y-72397000D01*
X86343000Y-72424000D01*
X86380000Y-72453000D01*
X86416000Y-72483000D01*
X86450000Y-72516000D01*
X86483000Y-72550000D01*
X86513000Y-72586000D01*
X86542000Y-72623000D01*
X86569000Y-72662000D01*
X86593000Y-72702000D01*
X86616000Y-72743000D01*
X86636000Y-72786000D01*
X86654000Y-72829000D01*
X86670000Y-72874000D01*
X86683000Y-72919000D01*
X86694000Y-72965000D01*
X86703000Y-73011000D01*
X86709000Y-73058000D01*
X86713000Y-73105000D01*
X86714000Y-73152000D01*
X86713000Y-73199000D01*
X86709000Y-73246000D01*
X86703000Y-73293000D01*
X86694000Y-73339000D01*
X86683000Y-73385000D01*
X86670000Y-73430000D01*
X86654000Y-73475000D01*
X86636000Y-73518000D01*
X86616000Y-73561000D01*
X86593000Y-73602000D01*
X86569000Y-73642000D01*
X86542000Y-73681000D01*
X86513000Y-73718000D01*
X86483000Y-73754000D01*
X86450000Y-73788000D01*
X86416000Y-73821000D01*
X86380000Y-73851000D01*
X86343000Y-73880000D01*
X86304000Y-73907000D01*
X86264000Y-73931000D01*
X86223000Y-73954000D01*
X86180000Y-73974000D01*
X86137000Y-73992000D01*
X86092000Y-74008000D01*
X86047000Y-74021000D01*
X86001000Y-74032000D01*
X85955000Y-74041000D01*
X85908000Y-74047000D01*
X85861000Y-74051000D01*
X85814000Y-74052000D01*
X83314000Y-74052000D01*
X83314000Y-72252000D01*
X85814000Y-72252000D01*
X85861000Y-72253000D01*
G36*
X85861000Y-72253000D02*
G01*
X85908000Y-72257000D01*
X85955000Y-72263000D01*
X86001000Y-72272000D01*
X86047000Y-72283000D01*
X86092000Y-72296000D01*
X86137000Y-72312000D01*
X86180000Y-72330000D01*
X86223000Y-72350000D01*
X86264000Y-72373000D01*
X86304000Y-72397000D01*
X86343000Y-72424000D01*
X86380000Y-72453000D01*
X86416000Y-72483000D01*
X86450000Y-72516000D01*
X86483000Y-72550000D01*
X86513000Y-72586000D01*
X86542000Y-72623000D01*
X86569000Y-72662000D01*
X86593000Y-72702000D01*
X86616000Y-72743000D01*
X86636000Y-72786000D01*
X86654000Y-72829000D01*
X86670000Y-72874000D01*
X86683000Y-72919000D01*
X86694000Y-72965000D01*
X86703000Y-73011000D01*
X86709000Y-73058000D01*
X86713000Y-73105000D01*
X86714000Y-73152000D01*
X86713000Y-73199000D01*
X86709000Y-73246000D01*
X86703000Y-73293000D01*
X86694000Y-73339000D01*
X86683000Y-73385000D01*
X86670000Y-73430000D01*
X86654000Y-73475000D01*
X86636000Y-73518000D01*
X86616000Y-73561000D01*
X86593000Y-73602000D01*
X86569000Y-73642000D01*
X86542000Y-73681000D01*
X86513000Y-73718000D01*
X86483000Y-73754000D01*
X86450000Y-73788000D01*
X86416000Y-73821000D01*
X86380000Y-73851000D01*
X86343000Y-73880000D01*
X86304000Y-73907000D01*
X86264000Y-73931000D01*
X86223000Y-73954000D01*
X86180000Y-73974000D01*
X86137000Y-73992000D01*
X86092000Y-74008000D01*
X86047000Y-74021000D01*
X86001000Y-74032000D01*
X85955000Y-74041000D01*
X85908000Y-74047000D01*
X85861000Y-74051000D01*
X85814000Y-74052000D01*
X83314000Y-74052000D01*
X83314000Y-72252000D01*
X85814000Y-72252000D01*
X85861000Y-72253000D01*
G37*
X85861000Y-74793000D02*
X85908000Y-74797000D01*
X85955000Y-74803000D01*
X86001000Y-74812000D01*
X86047000Y-74823000D01*
X86092000Y-74836000D01*
X86137000Y-74852000D01*
X86180000Y-74870000D01*
X86223000Y-74890000D01*
X86264000Y-74913000D01*
X86304000Y-74937000D01*
X86343000Y-74964000D01*
X86380000Y-74993000D01*
X86416000Y-75023000D01*
X86450000Y-75056000D01*
X86483000Y-75090000D01*
X86513000Y-75126000D01*
X86542000Y-75163000D01*
X86569000Y-75202000D01*
X86593000Y-75242000D01*
X86616000Y-75283000D01*
X86636000Y-75326000D01*
X86654000Y-75369000D01*
X86670000Y-75414000D01*
X86683000Y-75459000D01*
X86694000Y-75505000D01*
X86703000Y-75551000D01*
X86709000Y-75598000D01*
X86713000Y-75645000D01*
X86714000Y-75692000D01*
X86713000Y-75739000D01*
X86709000Y-75786000D01*
X86703000Y-75833000D01*
X86694000Y-75879000D01*
X86683000Y-75925000D01*
X86670000Y-75970000D01*
X86654000Y-76015000D01*
X86636000Y-76058000D01*
X86616000Y-76101000D01*
X86593000Y-76142000D01*
X86569000Y-76182000D01*
X86542000Y-76221000D01*
X86513000Y-76258000D01*
X86483000Y-76294000D01*
X86450000Y-76328000D01*
X86416000Y-76361000D01*
X86380000Y-76391000D01*
X86343000Y-76420000D01*
X86304000Y-76447000D01*
X86264000Y-76471000D01*
X86223000Y-76494000D01*
X86180000Y-76514000D01*
X86137000Y-76532000D01*
X86092000Y-76548000D01*
X86047000Y-76561000D01*
X86001000Y-76572000D01*
X85955000Y-76581000D01*
X85908000Y-76587000D01*
X85861000Y-76591000D01*
X85814000Y-76592000D01*
X83314000Y-76592000D01*
X83314000Y-74792000D01*
X85814000Y-74792000D01*
X85861000Y-74793000D01*
G36*
X85861000Y-74793000D02*
G01*
X85908000Y-74797000D01*
X85955000Y-74803000D01*
X86001000Y-74812000D01*
X86047000Y-74823000D01*
X86092000Y-74836000D01*
X86137000Y-74852000D01*
X86180000Y-74870000D01*
X86223000Y-74890000D01*
X86264000Y-74913000D01*
X86304000Y-74937000D01*
X86343000Y-74964000D01*
X86380000Y-74993000D01*
X86416000Y-75023000D01*
X86450000Y-75056000D01*
X86483000Y-75090000D01*
X86513000Y-75126000D01*
X86542000Y-75163000D01*
X86569000Y-75202000D01*
X86593000Y-75242000D01*
X86616000Y-75283000D01*
X86636000Y-75326000D01*
X86654000Y-75369000D01*
X86670000Y-75414000D01*
X86683000Y-75459000D01*
X86694000Y-75505000D01*
X86703000Y-75551000D01*
X86709000Y-75598000D01*
X86713000Y-75645000D01*
X86714000Y-75692000D01*
X86713000Y-75739000D01*
X86709000Y-75786000D01*
X86703000Y-75833000D01*
X86694000Y-75879000D01*
X86683000Y-75925000D01*
X86670000Y-75970000D01*
X86654000Y-76015000D01*
X86636000Y-76058000D01*
X86616000Y-76101000D01*
X86593000Y-76142000D01*
X86569000Y-76182000D01*
X86542000Y-76221000D01*
X86513000Y-76258000D01*
X86483000Y-76294000D01*
X86450000Y-76328000D01*
X86416000Y-76361000D01*
X86380000Y-76391000D01*
X86343000Y-76420000D01*
X86304000Y-76447000D01*
X86264000Y-76471000D01*
X86223000Y-76494000D01*
X86180000Y-76514000D01*
X86137000Y-76532000D01*
X86092000Y-76548000D01*
X86047000Y-76561000D01*
X86001000Y-76572000D01*
X85955000Y-76581000D01*
X85908000Y-76587000D01*
X85861000Y-76591000D01*
X85814000Y-76592000D01*
X83314000Y-76592000D01*
X83314000Y-74792000D01*
X85814000Y-74792000D01*
X85861000Y-74793000D01*
G37*
X85861000Y-77333000D02*
X85908000Y-77337000D01*
X85955000Y-77343000D01*
X86001000Y-77352000D01*
X86047000Y-77363000D01*
X86092000Y-77376000D01*
X86137000Y-77392000D01*
X86180000Y-77410000D01*
X86223000Y-77430000D01*
X86264000Y-77453000D01*
X86304000Y-77477000D01*
X86343000Y-77504000D01*
X86380000Y-77533000D01*
X86416000Y-77563000D01*
X86450000Y-77596000D01*
X86483000Y-77630000D01*
X86513000Y-77666000D01*
X86542000Y-77703000D01*
X86569000Y-77742000D01*
X86593000Y-77782000D01*
X86616000Y-77823000D01*
X86636000Y-77866000D01*
X86654000Y-77909000D01*
X86670000Y-77954000D01*
X86683000Y-77999000D01*
X86694000Y-78045000D01*
X86703000Y-78091000D01*
X86709000Y-78138000D01*
X86713000Y-78185000D01*
X86714000Y-78232000D01*
X86713000Y-78279000D01*
X86709000Y-78326000D01*
X86703000Y-78373000D01*
X86694000Y-78419000D01*
X86683000Y-78465000D01*
X86670000Y-78510000D01*
X86654000Y-78555000D01*
X86636000Y-78598000D01*
X86616000Y-78641000D01*
X86593000Y-78682000D01*
X86569000Y-78722000D01*
X86542000Y-78761000D01*
X86513000Y-78798000D01*
X86483000Y-78834000D01*
X86450000Y-78868000D01*
X86416000Y-78901000D01*
X86380000Y-78931000D01*
X86343000Y-78960000D01*
X86304000Y-78987000D01*
X86264000Y-79011000D01*
X86223000Y-79034000D01*
X86180000Y-79054000D01*
X86137000Y-79072000D01*
X86092000Y-79088000D01*
X86047000Y-79101000D01*
X86001000Y-79112000D01*
X85955000Y-79121000D01*
X85908000Y-79127000D01*
X85861000Y-79131000D01*
X85814000Y-79132000D01*
X83314000Y-79132000D01*
X83314000Y-77332000D01*
X85814000Y-77332000D01*
X85861000Y-77333000D01*
G36*
X85861000Y-77333000D02*
G01*
X85908000Y-77337000D01*
X85955000Y-77343000D01*
X86001000Y-77352000D01*
X86047000Y-77363000D01*
X86092000Y-77376000D01*
X86137000Y-77392000D01*
X86180000Y-77410000D01*
X86223000Y-77430000D01*
X86264000Y-77453000D01*
X86304000Y-77477000D01*
X86343000Y-77504000D01*
X86380000Y-77533000D01*
X86416000Y-77563000D01*
X86450000Y-77596000D01*
X86483000Y-77630000D01*
X86513000Y-77666000D01*
X86542000Y-77703000D01*
X86569000Y-77742000D01*
X86593000Y-77782000D01*
X86616000Y-77823000D01*
X86636000Y-77866000D01*
X86654000Y-77909000D01*
X86670000Y-77954000D01*
X86683000Y-77999000D01*
X86694000Y-78045000D01*
X86703000Y-78091000D01*
X86709000Y-78138000D01*
X86713000Y-78185000D01*
X86714000Y-78232000D01*
X86713000Y-78279000D01*
X86709000Y-78326000D01*
X86703000Y-78373000D01*
X86694000Y-78419000D01*
X86683000Y-78465000D01*
X86670000Y-78510000D01*
X86654000Y-78555000D01*
X86636000Y-78598000D01*
X86616000Y-78641000D01*
X86593000Y-78682000D01*
X86569000Y-78722000D01*
X86542000Y-78761000D01*
X86513000Y-78798000D01*
X86483000Y-78834000D01*
X86450000Y-78868000D01*
X86416000Y-78901000D01*
X86380000Y-78931000D01*
X86343000Y-78960000D01*
X86304000Y-78987000D01*
X86264000Y-79011000D01*
X86223000Y-79034000D01*
X86180000Y-79054000D01*
X86137000Y-79072000D01*
X86092000Y-79088000D01*
X86047000Y-79101000D01*
X86001000Y-79112000D01*
X85955000Y-79121000D01*
X85908000Y-79127000D01*
X85861000Y-79131000D01*
X85814000Y-79132000D01*
X83314000Y-79132000D01*
X83314000Y-77332000D01*
X85814000Y-77332000D01*
X85861000Y-77333000D01*
G37*
X85861000Y-82413000D02*
X85908000Y-82417000D01*
X85955000Y-82423000D01*
X86001000Y-82432000D01*
X86047000Y-82443000D01*
X86092000Y-82456000D01*
X86137000Y-82472000D01*
X86180000Y-82490000D01*
X86223000Y-82510000D01*
X86264000Y-82533000D01*
X86304000Y-82557000D01*
X86343000Y-82584000D01*
X86380000Y-82613000D01*
X86416000Y-82643000D01*
X86450000Y-82676000D01*
X86483000Y-82710000D01*
X86513000Y-82746000D01*
X86542000Y-82783000D01*
X86569000Y-82822000D01*
X86593000Y-82862000D01*
X86616000Y-82903000D01*
X86636000Y-82946000D01*
X86654000Y-82989000D01*
X86670000Y-83034000D01*
X86683000Y-83079000D01*
X86694000Y-83125000D01*
X86703000Y-83171000D01*
X86709000Y-83218000D01*
X86713000Y-83265000D01*
X86714000Y-83312000D01*
X86713000Y-83359000D01*
X86709000Y-83406000D01*
X86703000Y-83453000D01*
X86694000Y-83499000D01*
X86683000Y-83545000D01*
X86670000Y-83590000D01*
X86654000Y-83635000D01*
X86636000Y-83678000D01*
X86616000Y-83721000D01*
X86593000Y-83762000D01*
X86569000Y-83802000D01*
X86542000Y-83841000D01*
X86513000Y-83878000D01*
X86483000Y-83914000D01*
X86450000Y-83948000D01*
X86416000Y-83981000D01*
X86380000Y-84011000D01*
X86343000Y-84040000D01*
X86304000Y-84067000D01*
X86264000Y-84091000D01*
X86223000Y-84114000D01*
X86180000Y-84134000D01*
X86137000Y-84152000D01*
X86092000Y-84168000D01*
X86047000Y-84181000D01*
X86001000Y-84192000D01*
X85955000Y-84201000D01*
X85908000Y-84207000D01*
X85861000Y-84211000D01*
X85814000Y-84212000D01*
X83314000Y-84212000D01*
X83314000Y-82412000D01*
X85814000Y-82412000D01*
X85861000Y-82413000D01*
G36*
X85861000Y-82413000D02*
G01*
X85908000Y-82417000D01*
X85955000Y-82423000D01*
X86001000Y-82432000D01*
X86047000Y-82443000D01*
X86092000Y-82456000D01*
X86137000Y-82472000D01*
X86180000Y-82490000D01*
X86223000Y-82510000D01*
X86264000Y-82533000D01*
X86304000Y-82557000D01*
X86343000Y-82584000D01*
X86380000Y-82613000D01*
X86416000Y-82643000D01*
X86450000Y-82676000D01*
X86483000Y-82710000D01*
X86513000Y-82746000D01*
X86542000Y-82783000D01*
X86569000Y-82822000D01*
X86593000Y-82862000D01*
X86616000Y-82903000D01*
X86636000Y-82946000D01*
X86654000Y-82989000D01*
X86670000Y-83034000D01*
X86683000Y-83079000D01*
X86694000Y-83125000D01*
X86703000Y-83171000D01*
X86709000Y-83218000D01*
X86713000Y-83265000D01*
X86714000Y-83312000D01*
X86713000Y-83359000D01*
X86709000Y-83406000D01*
X86703000Y-83453000D01*
X86694000Y-83499000D01*
X86683000Y-83545000D01*
X86670000Y-83590000D01*
X86654000Y-83635000D01*
X86636000Y-83678000D01*
X86616000Y-83721000D01*
X86593000Y-83762000D01*
X86569000Y-83802000D01*
X86542000Y-83841000D01*
X86513000Y-83878000D01*
X86483000Y-83914000D01*
X86450000Y-83948000D01*
X86416000Y-83981000D01*
X86380000Y-84011000D01*
X86343000Y-84040000D01*
X86304000Y-84067000D01*
X86264000Y-84091000D01*
X86223000Y-84114000D01*
X86180000Y-84134000D01*
X86137000Y-84152000D01*
X86092000Y-84168000D01*
X86047000Y-84181000D01*
X86001000Y-84192000D01*
X85955000Y-84201000D01*
X85908000Y-84207000D01*
X85861000Y-84211000D01*
X85814000Y-84212000D01*
X83314000Y-84212000D01*
X83314000Y-82412000D01*
X85814000Y-82412000D01*
X85861000Y-82413000D01*
G37*
X85861000Y-84953000D02*
X85908000Y-84957000D01*
X85955000Y-84963000D01*
X86001000Y-84972000D01*
X86047000Y-84983000D01*
X86092000Y-84996000D01*
X86137000Y-85012000D01*
X86180000Y-85030000D01*
X86223000Y-85050000D01*
X86264000Y-85073000D01*
X86304000Y-85097000D01*
X86343000Y-85124000D01*
X86380000Y-85153000D01*
X86416000Y-85183000D01*
X86450000Y-85216000D01*
X86483000Y-85250000D01*
X86513000Y-85286000D01*
X86542000Y-85323000D01*
X86569000Y-85362000D01*
X86593000Y-85402000D01*
X86616000Y-85443000D01*
X86636000Y-85486000D01*
X86654000Y-85529000D01*
X86670000Y-85574000D01*
X86683000Y-85619000D01*
X86694000Y-85665000D01*
X86703000Y-85711000D01*
X86709000Y-85758000D01*
X86713000Y-85805000D01*
X86714000Y-85852000D01*
X86713000Y-85899000D01*
X86709000Y-85946000D01*
X86703000Y-85993000D01*
X86694000Y-86039000D01*
X86683000Y-86085000D01*
X86670000Y-86130000D01*
X86654000Y-86175000D01*
X86636000Y-86218000D01*
X86616000Y-86261000D01*
X86593000Y-86302000D01*
X86569000Y-86342000D01*
X86542000Y-86381000D01*
X86513000Y-86418000D01*
X86483000Y-86454000D01*
X86450000Y-86488000D01*
X86416000Y-86521000D01*
X86380000Y-86551000D01*
X86343000Y-86580000D01*
X86304000Y-86607000D01*
X86264000Y-86631000D01*
X86223000Y-86654000D01*
X86180000Y-86674000D01*
X86137000Y-86692000D01*
X86092000Y-86708000D01*
X86047000Y-86721000D01*
X86001000Y-86732000D01*
X85955000Y-86741000D01*
X85908000Y-86747000D01*
X85861000Y-86751000D01*
X85814000Y-86752000D01*
X83314000Y-86752000D01*
X83314000Y-84952000D01*
X85814000Y-84952000D01*
X85861000Y-84953000D01*
G36*
X85861000Y-84953000D02*
G01*
X85908000Y-84957000D01*
X85955000Y-84963000D01*
X86001000Y-84972000D01*
X86047000Y-84983000D01*
X86092000Y-84996000D01*
X86137000Y-85012000D01*
X86180000Y-85030000D01*
X86223000Y-85050000D01*
X86264000Y-85073000D01*
X86304000Y-85097000D01*
X86343000Y-85124000D01*
X86380000Y-85153000D01*
X86416000Y-85183000D01*
X86450000Y-85216000D01*
X86483000Y-85250000D01*
X86513000Y-85286000D01*
X86542000Y-85323000D01*
X86569000Y-85362000D01*
X86593000Y-85402000D01*
X86616000Y-85443000D01*
X86636000Y-85486000D01*
X86654000Y-85529000D01*
X86670000Y-85574000D01*
X86683000Y-85619000D01*
X86694000Y-85665000D01*
X86703000Y-85711000D01*
X86709000Y-85758000D01*
X86713000Y-85805000D01*
X86714000Y-85852000D01*
X86713000Y-85899000D01*
X86709000Y-85946000D01*
X86703000Y-85993000D01*
X86694000Y-86039000D01*
X86683000Y-86085000D01*
X86670000Y-86130000D01*
X86654000Y-86175000D01*
X86636000Y-86218000D01*
X86616000Y-86261000D01*
X86593000Y-86302000D01*
X86569000Y-86342000D01*
X86542000Y-86381000D01*
X86513000Y-86418000D01*
X86483000Y-86454000D01*
X86450000Y-86488000D01*
X86416000Y-86521000D01*
X86380000Y-86551000D01*
X86343000Y-86580000D01*
X86304000Y-86607000D01*
X86264000Y-86631000D01*
X86223000Y-86654000D01*
X86180000Y-86674000D01*
X86137000Y-86692000D01*
X86092000Y-86708000D01*
X86047000Y-86721000D01*
X86001000Y-86732000D01*
X85955000Y-86741000D01*
X85908000Y-86747000D01*
X85861000Y-86751000D01*
X85814000Y-86752000D01*
X83314000Y-86752000D01*
X83314000Y-84952000D01*
X85814000Y-84952000D01*
X85861000Y-84953000D01*
G37*
X85861000Y-87493000D02*
X85908000Y-87497000D01*
X85955000Y-87503000D01*
X86001000Y-87512000D01*
X86047000Y-87523000D01*
X86092000Y-87536000D01*
X86137000Y-87552000D01*
X86180000Y-87570000D01*
X86223000Y-87590000D01*
X86264000Y-87613000D01*
X86304000Y-87637000D01*
X86343000Y-87664000D01*
X86380000Y-87693000D01*
X86416000Y-87723000D01*
X86450000Y-87756000D01*
X86483000Y-87790000D01*
X86513000Y-87826000D01*
X86542000Y-87863000D01*
X86569000Y-87902000D01*
X86593000Y-87942000D01*
X86616000Y-87983000D01*
X86636000Y-88026000D01*
X86654000Y-88069000D01*
X86670000Y-88114000D01*
X86683000Y-88159000D01*
X86694000Y-88205000D01*
X86703000Y-88251000D01*
X86709000Y-88298000D01*
X86713000Y-88345000D01*
X86714000Y-88392000D01*
X86713000Y-88439000D01*
X86709000Y-88486000D01*
X86703000Y-88533000D01*
X86694000Y-88579000D01*
X86683000Y-88625000D01*
X86670000Y-88670000D01*
X86654000Y-88715000D01*
X86636000Y-88758000D01*
X86616000Y-88801000D01*
X86593000Y-88842000D01*
X86569000Y-88882000D01*
X86542000Y-88921000D01*
X86513000Y-88958000D01*
X86483000Y-88994000D01*
X86450000Y-89028000D01*
X86416000Y-89061000D01*
X86380000Y-89091000D01*
X86343000Y-89120000D01*
X86304000Y-89147000D01*
X86264000Y-89171000D01*
X86223000Y-89194000D01*
X86180000Y-89214000D01*
X86137000Y-89232000D01*
X86092000Y-89248000D01*
X86047000Y-89261000D01*
X86001000Y-89272000D01*
X85955000Y-89281000D01*
X85908000Y-89287000D01*
X85861000Y-89291000D01*
X85814000Y-89292000D01*
X83314000Y-89292000D01*
X83314000Y-87492000D01*
X85814000Y-87492000D01*
X85861000Y-87493000D01*
G36*
X85861000Y-87493000D02*
G01*
X85908000Y-87497000D01*
X85955000Y-87503000D01*
X86001000Y-87512000D01*
X86047000Y-87523000D01*
X86092000Y-87536000D01*
X86137000Y-87552000D01*
X86180000Y-87570000D01*
X86223000Y-87590000D01*
X86264000Y-87613000D01*
X86304000Y-87637000D01*
X86343000Y-87664000D01*
X86380000Y-87693000D01*
X86416000Y-87723000D01*
X86450000Y-87756000D01*
X86483000Y-87790000D01*
X86513000Y-87826000D01*
X86542000Y-87863000D01*
X86569000Y-87902000D01*
X86593000Y-87942000D01*
X86616000Y-87983000D01*
X86636000Y-88026000D01*
X86654000Y-88069000D01*
X86670000Y-88114000D01*
X86683000Y-88159000D01*
X86694000Y-88205000D01*
X86703000Y-88251000D01*
X86709000Y-88298000D01*
X86713000Y-88345000D01*
X86714000Y-88392000D01*
X86713000Y-88439000D01*
X86709000Y-88486000D01*
X86703000Y-88533000D01*
X86694000Y-88579000D01*
X86683000Y-88625000D01*
X86670000Y-88670000D01*
X86654000Y-88715000D01*
X86636000Y-88758000D01*
X86616000Y-88801000D01*
X86593000Y-88842000D01*
X86569000Y-88882000D01*
X86542000Y-88921000D01*
X86513000Y-88958000D01*
X86483000Y-88994000D01*
X86450000Y-89028000D01*
X86416000Y-89061000D01*
X86380000Y-89091000D01*
X86343000Y-89120000D01*
X86304000Y-89147000D01*
X86264000Y-89171000D01*
X86223000Y-89194000D01*
X86180000Y-89214000D01*
X86137000Y-89232000D01*
X86092000Y-89248000D01*
X86047000Y-89261000D01*
X86001000Y-89272000D01*
X85955000Y-89281000D01*
X85908000Y-89287000D01*
X85861000Y-89291000D01*
X85814000Y-89292000D01*
X83314000Y-89292000D01*
X83314000Y-87492000D01*
X85814000Y-87492000D01*
X85861000Y-87493000D01*
G37*
X85861000Y-90033000D02*
X85908000Y-90037000D01*
X85955000Y-90043000D01*
X86001000Y-90052000D01*
X86047000Y-90063000D01*
X86092000Y-90076000D01*
X86137000Y-90092000D01*
X86180000Y-90110000D01*
X86223000Y-90130000D01*
X86264000Y-90153000D01*
X86304000Y-90177000D01*
X86343000Y-90204000D01*
X86380000Y-90233000D01*
X86416000Y-90263000D01*
X86450000Y-90296000D01*
X86483000Y-90330000D01*
X86513000Y-90366000D01*
X86542000Y-90403000D01*
X86569000Y-90442000D01*
X86593000Y-90482000D01*
X86616000Y-90523000D01*
X86636000Y-90566000D01*
X86654000Y-90609000D01*
X86670000Y-90654000D01*
X86683000Y-90699000D01*
X86694000Y-90745000D01*
X86703000Y-90791000D01*
X86709000Y-90838000D01*
X86713000Y-90885000D01*
X86714000Y-90932000D01*
X86713000Y-90979000D01*
X86709000Y-91026000D01*
X86703000Y-91073000D01*
X86694000Y-91119000D01*
X86683000Y-91165000D01*
X86670000Y-91210000D01*
X86654000Y-91255000D01*
X86636000Y-91298000D01*
X86616000Y-91341000D01*
X86593000Y-91382000D01*
X86569000Y-91422000D01*
X86542000Y-91461000D01*
X86513000Y-91498000D01*
X86483000Y-91534000D01*
X86450000Y-91568000D01*
X86416000Y-91601000D01*
X86380000Y-91631000D01*
X86343000Y-91660000D01*
X86304000Y-91687000D01*
X86264000Y-91711000D01*
X86223000Y-91734000D01*
X86180000Y-91754000D01*
X86137000Y-91772000D01*
X86092000Y-91788000D01*
X86047000Y-91801000D01*
X86001000Y-91812000D01*
X85955000Y-91821000D01*
X85908000Y-91827000D01*
X85861000Y-91831000D01*
X85814000Y-91832000D01*
X83314000Y-91832000D01*
X83314000Y-90032000D01*
X85814000Y-90032000D01*
X85861000Y-90033000D01*
G36*
X85861000Y-90033000D02*
G01*
X85908000Y-90037000D01*
X85955000Y-90043000D01*
X86001000Y-90052000D01*
X86047000Y-90063000D01*
X86092000Y-90076000D01*
X86137000Y-90092000D01*
X86180000Y-90110000D01*
X86223000Y-90130000D01*
X86264000Y-90153000D01*
X86304000Y-90177000D01*
X86343000Y-90204000D01*
X86380000Y-90233000D01*
X86416000Y-90263000D01*
X86450000Y-90296000D01*
X86483000Y-90330000D01*
X86513000Y-90366000D01*
X86542000Y-90403000D01*
X86569000Y-90442000D01*
X86593000Y-90482000D01*
X86616000Y-90523000D01*
X86636000Y-90566000D01*
X86654000Y-90609000D01*
X86670000Y-90654000D01*
X86683000Y-90699000D01*
X86694000Y-90745000D01*
X86703000Y-90791000D01*
X86709000Y-90838000D01*
X86713000Y-90885000D01*
X86714000Y-90932000D01*
X86713000Y-90979000D01*
X86709000Y-91026000D01*
X86703000Y-91073000D01*
X86694000Y-91119000D01*
X86683000Y-91165000D01*
X86670000Y-91210000D01*
X86654000Y-91255000D01*
X86636000Y-91298000D01*
X86616000Y-91341000D01*
X86593000Y-91382000D01*
X86569000Y-91422000D01*
X86542000Y-91461000D01*
X86513000Y-91498000D01*
X86483000Y-91534000D01*
X86450000Y-91568000D01*
X86416000Y-91601000D01*
X86380000Y-91631000D01*
X86343000Y-91660000D01*
X86304000Y-91687000D01*
X86264000Y-91711000D01*
X86223000Y-91734000D01*
X86180000Y-91754000D01*
X86137000Y-91772000D01*
X86092000Y-91788000D01*
X86047000Y-91801000D01*
X86001000Y-91812000D01*
X85955000Y-91821000D01*
X85908000Y-91827000D01*
X85861000Y-91831000D01*
X85814000Y-91832000D01*
X83314000Y-91832000D01*
X83314000Y-90032000D01*
X85814000Y-90032000D01*
X85861000Y-90033000D01*
G37*
X85861000Y-95113000D02*
X85908000Y-95117000D01*
X85955000Y-95123000D01*
X86001000Y-95132000D01*
X86047000Y-95143000D01*
X86092000Y-95156000D01*
X86137000Y-95172000D01*
X86180000Y-95190000D01*
X86223000Y-95210000D01*
X86264000Y-95233000D01*
X86304000Y-95257000D01*
X86343000Y-95284000D01*
X86380000Y-95313000D01*
X86416000Y-95343000D01*
X86450000Y-95376000D01*
X86483000Y-95410000D01*
X86513000Y-95446000D01*
X86542000Y-95483000D01*
X86569000Y-95522000D01*
X86593000Y-95562000D01*
X86616000Y-95603000D01*
X86636000Y-95646000D01*
X86654000Y-95689000D01*
X86670000Y-95734000D01*
X86683000Y-95779000D01*
X86694000Y-95825000D01*
X86703000Y-95871000D01*
X86709000Y-95918000D01*
X86713000Y-95965000D01*
X86714000Y-96012000D01*
X86713000Y-96059000D01*
X86709000Y-96106000D01*
X86703000Y-96153000D01*
X86694000Y-96199000D01*
X86683000Y-96245000D01*
X86670000Y-96290000D01*
X86654000Y-96335000D01*
X86636000Y-96378000D01*
X86616000Y-96421000D01*
X86593000Y-96462000D01*
X86569000Y-96502000D01*
X86542000Y-96541000D01*
X86513000Y-96578000D01*
X86483000Y-96614000D01*
X86450000Y-96648000D01*
X86416000Y-96681000D01*
X86380000Y-96711000D01*
X86343000Y-96740000D01*
X86304000Y-96767000D01*
X86264000Y-96791000D01*
X86223000Y-96814000D01*
X86180000Y-96834000D01*
X86137000Y-96852000D01*
X86092000Y-96868000D01*
X86047000Y-96881000D01*
X86001000Y-96892000D01*
X85955000Y-96901000D01*
X85908000Y-96907000D01*
X85861000Y-96911000D01*
X85814000Y-96912000D01*
X83314000Y-96912000D01*
X83314000Y-95112000D01*
X85814000Y-95112000D01*
X85861000Y-95113000D01*
G36*
X85861000Y-95113000D02*
G01*
X85908000Y-95117000D01*
X85955000Y-95123000D01*
X86001000Y-95132000D01*
X86047000Y-95143000D01*
X86092000Y-95156000D01*
X86137000Y-95172000D01*
X86180000Y-95190000D01*
X86223000Y-95210000D01*
X86264000Y-95233000D01*
X86304000Y-95257000D01*
X86343000Y-95284000D01*
X86380000Y-95313000D01*
X86416000Y-95343000D01*
X86450000Y-95376000D01*
X86483000Y-95410000D01*
X86513000Y-95446000D01*
X86542000Y-95483000D01*
X86569000Y-95522000D01*
X86593000Y-95562000D01*
X86616000Y-95603000D01*
X86636000Y-95646000D01*
X86654000Y-95689000D01*
X86670000Y-95734000D01*
X86683000Y-95779000D01*
X86694000Y-95825000D01*
X86703000Y-95871000D01*
X86709000Y-95918000D01*
X86713000Y-95965000D01*
X86714000Y-96012000D01*
X86713000Y-96059000D01*
X86709000Y-96106000D01*
X86703000Y-96153000D01*
X86694000Y-96199000D01*
X86683000Y-96245000D01*
X86670000Y-96290000D01*
X86654000Y-96335000D01*
X86636000Y-96378000D01*
X86616000Y-96421000D01*
X86593000Y-96462000D01*
X86569000Y-96502000D01*
X86542000Y-96541000D01*
X86513000Y-96578000D01*
X86483000Y-96614000D01*
X86450000Y-96648000D01*
X86416000Y-96681000D01*
X86380000Y-96711000D01*
X86343000Y-96740000D01*
X86304000Y-96767000D01*
X86264000Y-96791000D01*
X86223000Y-96814000D01*
X86180000Y-96834000D01*
X86137000Y-96852000D01*
X86092000Y-96868000D01*
X86047000Y-96881000D01*
X86001000Y-96892000D01*
X85955000Y-96901000D01*
X85908000Y-96907000D01*
X85861000Y-96911000D01*
X85814000Y-96912000D01*
X83314000Y-96912000D01*
X83314000Y-95112000D01*
X85814000Y-95112000D01*
X85861000Y-95113000D01*
G37*
X85861000Y-97653000D02*
X85908000Y-97657000D01*
X85955000Y-97663000D01*
X86001000Y-97672000D01*
X86047000Y-97683000D01*
X86092000Y-97696000D01*
X86137000Y-97712000D01*
X86180000Y-97730000D01*
X86223000Y-97750000D01*
X86264000Y-97773000D01*
X86304000Y-97797000D01*
X86343000Y-97824000D01*
X86380000Y-97853000D01*
X86416000Y-97883000D01*
X86450000Y-97916000D01*
X86483000Y-97950000D01*
X86513000Y-97986000D01*
X86542000Y-98023000D01*
X86569000Y-98062000D01*
X86593000Y-98102000D01*
X86616000Y-98143000D01*
X86636000Y-98186000D01*
X86654000Y-98229000D01*
X86670000Y-98274000D01*
X86683000Y-98319000D01*
X86694000Y-98365000D01*
X86703000Y-98411000D01*
X86709000Y-98458000D01*
X86713000Y-98505000D01*
X86714000Y-98552000D01*
X86713000Y-98599000D01*
X86709000Y-98646000D01*
X86703000Y-98693000D01*
X86694000Y-98739000D01*
X86683000Y-98785000D01*
X86670000Y-98830000D01*
X86654000Y-98875000D01*
X86636000Y-98918000D01*
X86616000Y-98961000D01*
X86593000Y-99002000D01*
X86569000Y-99042000D01*
X86542000Y-99081000D01*
X86513000Y-99118000D01*
X86483000Y-99154000D01*
X86450000Y-99188000D01*
X86416000Y-99221000D01*
X86380000Y-99251000D01*
X86343000Y-99280000D01*
X86304000Y-99307000D01*
X86264000Y-99331000D01*
X86223000Y-99354000D01*
X86180000Y-99374000D01*
X86137000Y-99392000D01*
X86092000Y-99408000D01*
X86047000Y-99421000D01*
X86001000Y-99432000D01*
X85955000Y-99441000D01*
X85908000Y-99447000D01*
X85861000Y-99451000D01*
X85814000Y-99452000D01*
X83314000Y-99452000D01*
X83314000Y-97652000D01*
X85814000Y-97652000D01*
X85861000Y-97653000D01*
G36*
X85861000Y-97653000D02*
G01*
X85908000Y-97657000D01*
X85955000Y-97663000D01*
X86001000Y-97672000D01*
X86047000Y-97683000D01*
X86092000Y-97696000D01*
X86137000Y-97712000D01*
X86180000Y-97730000D01*
X86223000Y-97750000D01*
X86264000Y-97773000D01*
X86304000Y-97797000D01*
X86343000Y-97824000D01*
X86380000Y-97853000D01*
X86416000Y-97883000D01*
X86450000Y-97916000D01*
X86483000Y-97950000D01*
X86513000Y-97986000D01*
X86542000Y-98023000D01*
X86569000Y-98062000D01*
X86593000Y-98102000D01*
X86616000Y-98143000D01*
X86636000Y-98186000D01*
X86654000Y-98229000D01*
X86670000Y-98274000D01*
X86683000Y-98319000D01*
X86694000Y-98365000D01*
X86703000Y-98411000D01*
X86709000Y-98458000D01*
X86713000Y-98505000D01*
X86714000Y-98552000D01*
X86713000Y-98599000D01*
X86709000Y-98646000D01*
X86703000Y-98693000D01*
X86694000Y-98739000D01*
X86683000Y-98785000D01*
X86670000Y-98830000D01*
X86654000Y-98875000D01*
X86636000Y-98918000D01*
X86616000Y-98961000D01*
X86593000Y-99002000D01*
X86569000Y-99042000D01*
X86542000Y-99081000D01*
X86513000Y-99118000D01*
X86483000Y-99154000D01*
X86450000Y-99188000D01*
X86416000Y-99221000D01*
X86380000Y-99251000D01*
X86343000Y-99280000D01*
X86304000Y-99307000D01*
X86264000Y-99331000D01*
X86223000Y-99354000D01*
X86180000Y-99374000D01*
X86137000Y-99392000D01*
X86092000Y-99408000D01*
X86047000Y-99421000D01*
X86001000Y-99432000D01*
X85955000Y-99441000D01*
X85908000Y-99447000D01*
X85861000Y-99451000D01*
X85814000Y-99452000D01*
X83314000Y-99452000D01*
X83314000Y-97652000D01*
X85814000Y-97652000D01*
X85861000Y-97653000D01*
G37*
X85861000Y-100193000D02*
X85908000Y-100197000D01*
X85955000Y-100203000D01*
X86001000Y-100212000D01*
X86047000Y-100223000D01*
X86092000Y-100236000D01*
X86137000Y-100252000D01*
X86180000Y-100270000D01*
X86223000Y-100290000D01*
X86264000Y-100313000D01*
X86304000Y-100337000D01*
X86343000Y-100364000D01*
X86380000Y-100393000D01*
X86416000Y-100423000D01*
X86450000Y-100456000D01*
X86483000Y-100490000D01*
X86513000Y-100526000D01*
X86542000Y-100563000D01*
X86569000Y-100602000D01*
X86593000Y-100642000D01*
X86616000Y-100683000D01*
X86636000Y-100726000D01*
X86654000Y-100769000D01*
X86670000Y-100814000D01*
X86683000Y-100859000D01*
X86694000Y-100905000D01*
X86703000Y-100951000D01*
X86709000Y-100998000D01*
X86713000Y-101045000D01*
X86714000Y-101092000D01*
X86713000Y-101139000D01*
X86709000Y-101186000D01*
X86703000Y-101233000D01*
X86694000Y-101279000D01*
X86683000Y-101325000D01*
X86670000Y-101370000D01*
X86654000Y-101415000D01*
X86636000Y-101458000D01*
X86616000Y-101501000D01*
X86593000Y-101542000D01*
X86569000Y-101582000D01*
X86542000Y-101621000D01*
X86513000Y-101658000D01*
X86483000Y-101694000D01*
X86450000Y-101728000D01*
X86416000Y-101761000D01*
X86380000Y-101791000D01*
X86343000Y-101820000D01*
X86304000Y-101847000D01*
X86264000Y-101871000D01*
X86223000Y-101894000D01*
X86180000Y-101914000D01*
X86137000Y-101932000D01*
X86092000Y-101948000D01*
X86047000Y-101961000D01*
X86001000Y-101972000D01*
X85955000Y-101981000D01*
X85908000Y-101987000D01*
X85861000Y-101991000D01*
X85814000Y-101992000D01*
X83314000Y-101992000D01*
X83314000Y-100192000D01*
X85814000Y-100192000D01*
X85861000Y-100193000D01*
G36*
X85861000Y-100193000D02*
G01*
X85908000Y-100197000D01*
X85955000Y-100203000D01*
X86001000Y-100212000D01*
X86047000Y-100223000D01*
X86092000Y-100236000D01*
X86137000Y-100252000D01*
X86180000Y-100270000D01*
X86223000Y-100290000D01*
X86264000Y-100313000D01*
X86304000Y-100337000D01*
X86343000Y-100364000D01*
X86380000Y-100393000D01*
X86416000Y-100423000D01*
X86450000Y-100456000D01*
X86483000Y-100490000D01*
X86513000Y-100526000D01*
X86542000Y-100563000D01*
X86569000Y-100602000D01*
X86593000Y-100642000D01*
X86616000Y-100683000D01*
X86636000Y-100726000D01*
X86654000Y-100769000D01*
X86670000Y-100814000D01*
X86683000Y-100859000D01*
X86694000Y-100905000D01*
X86703000Y-100951000D01*
X86709000Y-100998000D01*
X86713000Y-101045000D01*
X86714000Y-101092000D01*
X86713000Y-101139000D01*
X86709000Y-101186000D01*
X86703000Y-101233000D01*
X86694000Y-101279000D01*
X86683000Y-101325000D01*
X86670000Y-101370000D01*
X86654000Y-101415000D01*
X86636000Y-101458000D01*
X86616000Y-101501000D01*
X86593000Y-101542000D01*
X86569000Y-101582000D01*
X86542000Y-101621000D01*
X86513000Y-101658000D01*
X86483000Y-101694000D01*
X86450000Y-101728000D01*
X86416000Y-101761000D01*
X86380000Y-101791000D01*
X86343000Y-101820000D01*
X86304000Y-101847000D01*
X86264000Y-101871000D01*
X86223000Y-101894000D01*
X86180000Y-101914000D01*
X86137000Y-101932000D01*
X86092000Y-101948000D01*
X86047000Y-101961000D01*
X86001000Y-101972000D01*
X85955000Y-101981000D01*
X85908000Y-101987000D01*
X85861000Y-101991000D01*
X85814000Y-101992000D01*
X83314000Y-101992000D01*
X83314000Y-100192000D01*
X85814000Y-100192000D01*
X85861000Y-100193000D01*
G37*
X85861000Y-102733000D02*
X85908000Y-102737000D01*
X85955000Y-102743000D01*
X86001000Y-102752000D01*
X86047000Y-102763000D01*
X86092000Y-102776000D01*
X86137000Y-102792000D01*
X86180000Y-102810000D01*
X86223000Y-102830000D01*
X86264000Y-102853000D01*
X86304000Y-102877000D01*
X86343000Y-102904000D01*
X86380000Y-102933000D01*
X86416000Y-102963000D01*
X86450000Y-102996000D01*
X86483000Y-103030000D01*
X86513000Y-103066000D01*
X86542000Y-103103000D01*
X86569000Y-103142000D01*
X86593000Y-103182000D01*
X86616000Y-103223000D01*
X86636000Y-103266000D01*
X86654000Y-103309000D01*
X86670000Y-103354000D01*
X86683000Y-103399000D01*
X86694000Y-103445000D01*
X86703000Y-103491000D01*
X86709000Y-103538000D01*
X86713000Y-103585000D01*
X86714000Y-103632000D01*
X86713000Y-103679000D01*
X86709000Y-103726000D01*
X86703000Y-103773000D01*
X86694000Y-103819000D01*
X86683000Y-103865000D01*
X86670000Y-103910000D01*
X86654000Y-103955000D01*
X86636000Y-103998000D01*
X86616000Y-104041000D01*
X86593000Y-104082000D01*
X86569000Y-104122000D01*
X86542000Y-104161000D01*
X86513000Y-104198000D01*
X86483000Y-104234000D01*
X86450000Y-104268000D01*
X86416000Y-104301000D01*
X86380000Y-104331000D01*
X86343000Y-104360000D01*
X86304000Y-104387000D01*
X86264000Y-104411000D01*
X86223000Y-104434000D01*
X86180000Y-104454000D01*
X86137000Y-104472000D01*
X86092000Y-104488000D01*
X86047000Y-104501000D01*
X86001000Y-104512000D01*
X85955000Y-104521000D01*
X85908000Y-104527000D01*
X85861000Y-104531000D01*
X85814000Y-104532000D01*
X83314000Y-104532000D01*
X83314000Y-102732000D01*
X85814000Y-102732000D01*
X85861000Y-102733000D01*
G36*
X85861000Y-102733000D02*
G01*
X85908000Y-102737000D01*
X85955000Y-102743000D01*
X86001000Y-102752000D01*
X86047000Y-102763000D01*
X86092000Y-102776000D01*
X86137000Y-102792000D01*
X86180000Y-102810000D01*
X86223000Y-102830000D01*
X86264000Y-102853000D01*
X86304000Y-102877000D01*
X86343000Y-102904000D01*
X86380000Y-102933000D01*
X86416000Y-102963000D01*
X86450000Y-102996000D01*
X86483000Y-103030000D01*
X86513000Y-103066000D01*
X86542000Y-103103000D01*
X86569000Y-103142000D01*
X86593000Y-103182000D01*
X86616000Y-103223000D01*
X86636000Y-103266000D01*
X86654000Y-103309000D01*
X86670000Y-103354000D01*
X86683000Y-103399000D01*
X86694000Y-103445000D01*
X86703000Y-103491000D01*
X86709000Y-103538000D01*
X86713000Y-103585000D01*
X86714000Y-103632000D01*
X86713000Y-103679000D01*
X86709000Y-103726000D01*
X86703000Y-103773000D01*
X86694000Y-103819000D01*
X86683000Y-103865000D01*
X86670000Y-103910000D01*
X86654000Y-103955000D01*
X86636000Y-103998000D01*
X86616000Y-104041000D01*
X86593000Y-104082000D01*
X86569000Y-104122000D01*
X86542000Y-104161000D01*
X86513000Y-104198000D01*
X86483000Y-104234000D01*
X86450000Y-104268000D01*
X86416000Y-104301000D01*
X86380000Y-104331000D01*
X86343000Y-104360000D01*
X86304000Y-104387000D01*
X86264000Y-104411000D01*
X86223000Y-104434000D01*
X86180000Y-104454000D01*
X86137000Y-104472000D01*
X86092000Y-104488000D01*
X86047000Y-104501000D01*
X86001000Y-104512000D01*
X85955000Y-104521000D01*
X85908000Y-104527000D01*
X85861000Y-104531000D01*
X85814000Y-104532000D01*
X83314000Y-104532000D01*
X83314000Y-102732000D01*
X85814000Y-102732000D01*
X85861000Y-102733000D01*
G37*
X85861000Y-107813000D02*
X85908000Y-107817000D01*
X85955000Y-107823000D01*
X86001000Y-107832000D01*
X86047000Y-107843000D01*
X86092000Y-107856000D01*
X86137000Y-107872000D01*
X86180000Y-107890000D01*
X86223000Y-107910000D01*
X86264000Y-107933000D01*
X86304000Y-107957000D01*
X86343000Y-107984000D01*
X86380000Y-108013000D01*
X86416000Y-108043000D01*
X86450000Y-108076000D01*
X86483000Y-108110000D01*
X86513000Y-108146000D01*
X86542000Y-108183000D01*
X86569000Y-108222000D01*
X86593000Y-108262000D01*
X86616000Y-108303000D01*
X86636000Y-108346000D01*
X86654000Y-108389000D01*
X86670000Y-108434000D01*
X86683000Y-108479000D01*
X86694000Y-108525000D01*
X86703000Y-108571000D01*
X86709000Y-108618000D01*
X86713000Y-108665000D01*
X86714000Y-108712000D01*
X86713000Y-108759000D01*
X86709000Y-108806000D01*
X86703000Y-108853000D01*
X86694000Y-108899000D01*
X86683000Y-108945000D01*
X86670000Y-108990000D01*
X86654000Y-109035000D01*
X86636000Y-109078000D01*
X86616000Y-109121000D01*
X86593000Y-109162000D01*
X86569000Y-109202000D01*
X86542000Y-109241000D01*
X86513000Y-109278000D01*
X86483000Y-109314000D01*
X86450000Y-109348000D01*
X86416000Y-109381000D01*
X86380000Y-109411000D01*
X86343000Y-109440000D01*
X86304000Y-109467000D01*
X86264000Y-109491000D01*
X86223000Y-109514000D01*
X86180000Y-109534000D01*
X86137000Y-109552000D01*
X86092000Y-109568000D01*
X86047000Y-109581000D01*
X86001000Y-109592000D01*
X85955000Y-109601000D01*
X85908000Y-109607000D01*
X85861000Y-109611000D01*
X85814000Y-109612000D01*
X83314000Y-109612000D01*
X83314000Y-107812000D01*
X85814000Y-107812000D01*
X85861000Y-107813000D01*
G36*
X85861000Y-107813000D02*
G01*
X85908000Y-107817000D01*
X85955000Y-107823000D01*
X86001000Y-107832000D01*
X86047000Y-107843000D01*
X86092000Y-107856000D01*
X86137000Y-107872000D01*
X86180000Y-107890000D01*
X86223000Y-107910000D01*
X86264000Y-107933000D01*
X86304000Y-107957000D01*
X86343000Y-107984000D01*
X86380000Y-108013000D01*
X86416000Y-108043000D01*
X86450000Y-108076000D01*
X86483000Y-108110000D01*
X86513000Y-108146000D01*
X86542000Y-108183000D01*
X86569000Y-108222000D01*
X86593000Y-108262000D01*
X86616000Y-108303000D01*
X86636000Y-108346000D01*
X86654000Y-108389000D01*
X86670000Y-108434000D01*
X86683000Y-108479000D01*
X86694000Y-108525000D01*
X86703000Y-108571000D01*
X86709000Y-108618000D01*
X86713000Y-108665000D01*
X86714000Y-108712000D01*
X86713000Y-108759000D01*
X86709000Y-108806000D01*
X86703000Y-108853000D01*
X86694000Y-108899000D01*
X86683000Y-108945000D01*
X86670000Y-108990000D01*
X86654000Y-109035000D01*
X86636000Y-109078000D01*
X86616000Y-109121000D01*
X86593000Y-109162000D01*
X86569000Y-109202000D01*
X86542000Y-109241000D01*
X86513000Y-109278000D01*
X86483000Y-109314000D01*
X86450000Y-109348000D01*
X86416000Y-109381000D01*
X86380000Y-109411000D01*
X86343000Y-109440000D01*
X86304000Y-109467000D01*
X86264000Y-109491000D01*
X86223000Y-109514000D01*
X86180000Y-109534000D01*
X86137000Y-109552000D01*
X86092000Y-109568000D01*
X86047000Y-109581000D01*
X86001000Y-109592000D01*
X85955000Y-109601000D01*
X85908000Y-109607000D01*
X85861000Y-109611000D01*
X85814000Y-109612000D01*
X83314000Y-109612000D01*
X83314000Y-107812000D01*
X85814000Y-107812000D01*
X85861000Y-107813000D01*
G37*
X85861000Y-110353000D02*
X85908000Y-110357000D01*
X85955000Y-110363000D01*
X86001000Y-110372000D01*
X86047000Y-110383000D01*
X86092000Y-110396000D01*
X86137000Y-110412000D01*
X86180000Y-110430000D01*
X86223000Y-110450000D01*
X86264000Y-110473000D01*
X86304000Y-110497000D01*
X86343000Y-110524000D01*
X86380000Y-110553000D01*
X86416000Y-110583000D01*
X86450000Y-110616000D01*
X86483000Y-110650000D01*
X86513000Y-110686000D01*
X86542000Y-110723000D01*
X86569000Y-110762000D01*
X86593000Y-110802000D01*
X86616000Y-110843000D01*
X86636000Y-110886000D01*
X86654000Y-110929000D01*
X86670000Y-110974000D01*
X86683000Y-111019000D01*
X86694000Y-111065000D01*
X86703000Y-111111000D01*
X86709000Y-111158000D01*
X86713000Y-111205000D01*
X86714000Y-111252000D01*
X86713000Y-111299000D01*
X86709000Y-111346000D01*
X86703000Y-111393000D01*
X86694000Y-111439000D01*
X86683000Y-111485000D01*
X86670000Y-111530000D01*
X86654000Y-111575000D01*
X86636000Y-111618000D01*
X86616000Y-111661000D01*
X86593000Y-111702000D01*
X86569000Y-111742000D01*
X86542000Y-111781000D01*
X86513000Y-111818000D01*
X86483000Y-111854000D01*
X86450000Y-111888000D01*
X86416000Y-111921000D01*
X86380000Y-111951000D01*
X86343000Y-111980000D01*
X86304000Y-112007000D01*
X86264000Y-112031000D01*
X86223000Y-112054000D01*
X86180000Y-112074000D01*
X86137000Y-112092000D01*
X86092000Y-112108000D01*
X86047000Y-112121000D01*
X86001000Y-112132000D01*
X85955000Y-112141000D01*
X85908000Y-112147000D01*
X85861000Y-112151000D01*
X85814000Y-112152000D01*
X83314000Y-112152000D01*
X83314000Y-110352000D01*
X85814000Y-110352000D01*
X85861000Y-110353000D01*
G36*
X85861000Y-110353000D02*
G01*
X85908000Y-110357000D01*
X85955000Y-110363000D01*
X86001000Y-110372000D01*
X86047000Y-110383000D01*
X86092000Y-110396000D01*
X86137000Y-110412000D01*
X86180000Y-110430000D01*
X86223000Y-110450000D01*
X86264000Y-110473000D01*
X86304000Y-110497000D01*
X86343000Y-110524000D01*
X86380000Y-110553000D01*
X86416000Y-110583000D01*
X86450000Y-110616000D01*
X86483000Y-110650000D01*
X86513000Y-110686000D01*
X86542000Y-110723000D01*
X86569000Y-110762000D01*
X86593000Y-110802000D01*
X86616000Y-110843000D01*
X86636000Y-110886000D01*
X86654000Y-110929000D01*
X86670000Y-110974000D01*
X86683000Y-111019000D01*
X86694000Y-111065000D01*
X86703000Y-111111000D01*
X86709000Y-111158000D01*
X86713000Y-111205000D01*
X86714000Y-111252000D01*
X86713000Y-111299000D01*
X86709000Y-111346000D01*
X86703000Y-111393000D01*
X86694000Y-111439000D01*
X86683000Y-111485000D01*
X86670000Y-111530000D01*
X86654000Y-111575000D01*
X86636000Y-111618000D01*
X86616000Y-111661000D01*
X86593000Y-111702000D01*
X86569000Y-111742000D01*
X86542000Y-111781000D01*
X86513000Y-111818000D01*
X86483000Y-111854000D01*
X86450000Y-111888000D01*
X86416000Y-111921000D01*
X86380000Y-111951000D01*
X86343000Y-111980000D01*
X86304000Y-112007000D01*
X86264000Y-112031000D01*
X86223000Y-112054000D01*
X86180000Y-112074000D01*
X86137000Y-112092000D01*
X86092000Y-112108000D01*
X86047000Y-112121000D01*
X86001000Y-112132000D01*
X85955000Y-112141000D01*
X85908000Y-112147000D01*
X85861000Y-112151000D01*
X85814000Y-112152000D01*
X83314000Y-112152000D01*
X83314000Y-110352000D01*
X85814000Y-110352000D01*
X85861000Y-110353000D01*
G37*
X92211000Y-110123000D02*
X92258000Y-110127000D01*
X92305000Y-110133000D01*
X92351000Y-110142000D01*
X92397000Y-110153000D01*
X92442000Y-110166000D01*
X92487000Y-110182000D01*
X92530000Y-110200000D01*
X92573000Y-110220000D01*
X92614000Y-110243000D01*
X92654000Y-110267000D01*
X92693000Y-110294000D01*
X92730000Y-110323000D01*
X92766000Y-110353000D01*
X92800000Y-110386000D01*
X92833000Y-110420000D01*
X92863000Y-110456000D01*
X92892000Y-110493000D01*
X92919000Y-110532000D01*
X92943000Y-110572000D01*
X92966000Y-110613000D01*
X92986000Y-110656000D01*
X93004000Y-110699000D01*
X93020000Y-110744000D01*
X93033000Y-110789000D01*
X93044000Y-110835000D01*
X93053000Y-110881000D01*
X93059000Y-110928000D01*
X93063000Y-110975000D01*
X93064000Y-111022000D01*
X93064000Y-113522000D01*
X91264000Y-113522000D01*
X91264000Y-111022000D01*
X91265000Y-110975000D01*
X91269000Y-110928000D01*
X91275000Y-110881000D01*
X91284000Y-110835000D01*
X91295000Y-110789000D01*
X91308000Y-110744000D01*
X91324000Y-110699000D01*
X91342000Y-110656000D01*
X91362000Y-110613000D01*
X91385000Y-110572000D01*
X91409000Y-110532000D01*
X91436000Y-110493000D01*
X91465000Y-110456000D01*
X91495000Y-110420000D01*
X91528000Y-110386000D01*
X91562000Y-110353000D01*
X91598000Y-110323000D01*
X91635000Y-110294000D01*
X91674000Y-110267000D01*
X91714000Y-110243000D01*
X91755000Y-110220000D01*
X91798000Y-110200000D01*
X91841000Y-110182000D01*
X91886000Y-110166000D01*
X91931000Y-110153000D01*
X91977000Y-110142000D01*
X92023000Y-110133000D01*
X92070000Y-110127000D01*
X92117000Y-110123000D01*
X92164000Y-110122000D01*
X92211000Y-110123000D01*
G36*
X92211000Y-110123000D02*
G01*
X92258000Y-110127000D01*
X92305000Y-110133000D01*
X92351000Y-110142000D01*
X92397000Y-110153000D01*
X92442000Y-110166000D01*
X92487000Y-110182000D01*
X92530000Y-110200000D01*
X92573000Y-110220000D01*
X92614000Y-110243000D01*
X92654000Y-110267000D01*
X92693000Y-110294000D01*
X92730000Y-110323000D01*
X92766000Y-110353000D01*
X92800000Y-110386000D01*
X92833000Y-110420000D01*
X92863000Y-110456000D01*
X92892000Y-110493000D01*
X92919000Y-110532000D01*
X92943000Y-110572000D01*
X92966000Y-110613000D01*
X92986000Y-110656000D01*
X93004000Y-110699000D01*
X93020000Y-110744000D01*
X93033000Y-110789000D01*
X93044000Y-110835000D01*
X93053000Y-110881000D01*
X93059000Y-110928000D01*
X93063000Y-110975000D01*
X93064000Y-111022000D01*
X93064000Y-113522000D01*
X91264000Y-113522000D01*
X91264000Y-111022000D01*
X91265000Y-110975000D01*
X91269000Y-110928000D01*
X91275000Y-110881000D01*
X91284000Y-110835000D01*
X91295000Y-110789000D01*
X91308000Y-110744000D01*
X91324000Y-110699000D01*
X91342000Y-110656000D01*
X91362000Y-110613000D01*
X91385000Y-110572000D01*
X91409000Y-110532000D01*
X91436000Y-110493000D01*
X91465000Y-110456000D01*
X91495000Y-110420000D01*
X91528000Y-110386000D01*
X91562000Y-110353000D01*
X91598000Y-110323000D01*
X91635000Y-110294000D01*
X91674000Y-110267000D01*
X91714000Y-110243000D01*
X91755000Y-110220000D01*
X91798000Y-110200000D01*
X91841000Y-110182000D01*
X91886000Y-110166000D01*
X91931000Y-110153000D01*
X91977000Y-110142000D01*
X92023000Y-110133000D01*
X92070000Y-110127000D01*
X92117000Y-110123000D01*
X92164000Y-110122000D01*
X92211000Y-110123000D01*
G37*
X97291000Y-110123000D02*
X97338000Y-110127000D01*
X97385000Y-110133000D01*
X97431000Y-110142000D01*
X97477000Y-110153000D01*
X97522000Y-110166000D01*
X97567000Y-110182000D01*
X97610000Y-110200000D01*
X97653000Y-110220000D01*
X97694000Y-110243000D01*
X97734000Y-110267000D01*
X97773000Y-110294000D01*
X97810000Y-110323000D01*
X97846000Y-110353000D01*
X97880000Y-110386000D01*
X97913000Y-110420000D01*
X97943000Y-110456000D01*
X97972000Y-110493000D01*
X97999000Y-110532000D01*
X98023000Y-110572000D01*
X98046000Y-110613000D01*
X98066000Y-110656000D01*
X98084000Y-110699000D01*
X98100000Y-110744000D01*
X98113000Y-110789000D01*
X98124000Y-110835000D01*
X98133000Y-110881000D01*
X98139000Y-110928000D01*
X98143000Y-110975000D01*
X98144000Y-111022000D01*
X98144000Y-113522000D01*
X96344000Y-113522000D01*
X96344000Y-111022000D01*
X96345000Y-110975000D01*
X96349000Y-110928000D01*
X96355000Y-110881000D01*
X96364000Y-110835000D01*
X96375000Y-110789000D01*
X96388000Y-110744000D01*
X96404000Y-110699000D01*
X96422000Y-110656000D01*
X96442000Y-110613000D01*
X96465000Y-110572000D01*
X96489000Y-110532000D01*
X96516000Y-110493000D01*
X96545000Y-110456000D01*
X96575000Y-110420000D01*
X96608000Y-110386000D01*
X96642000Y-110353000D01*
X96678000Y-110323000D01*
X96715000Y-110294000D01*
X96754000Y-110267000D01*
X96794000Y-110243000D01*
X96835000Y-110220000D01*
X96878000Y-110200000D01*
X96921000Y-110182000D01*
X96966000Y-110166000D01*
X97011000Y-110153000D01*
X97057000Y-110142000D01*
X97103000Y-110133000D01*
X97150000Y-110127000D01*
X97197000Y-110123000D01*
X97244000Y-110122000D01*
X97291000Y-110123000D01*
G36*
X97291000Y-110123000D02*
G01*
X97338000Y-110127000D01*
X97385000Y-110133000D01*
X97431000Y-110142000D01*
X97477000Y-110153000D01*
X97522000Y-110166000D01*
X97567000Y-110182000D01*
X97610000Y-110200000D01*
X97653000Y-110220000D01*
X97694000Y-110243000D01*
X97734000Y-110267000D01*
X97773000Y-110294000D01*
X97810000Y-110323000D01*
X97846000Y-110353000D01*
X97880000Y-110386000D01*
X97913000Y-110420000D01*
X97943000Y-110456000D01*
X97972000Y-110493000D01*
X97999000Y-110532000D01*
X98023000Y-110572000D01*
X98046000Y-110613000D01*
X98066000Y-110656000D01*
X98084000Y-110699000D01*
X98100000Y-110744000D01*
X98113000Y-110789000D01*
X98124000Y-110835000D01*
X98133000Y-110881000D01*
X98139000Y-110928000D01*
X98143000Y-110975000D01*
X98144000Y-111022000D01*
X98144000Y-113522000D01*
X96344000Y-113522000D01*
X96344000Y-111022000D01*
X96345000Y-110975000D01*
X96349000Y-110928000D01*
X96355000Y-110881000D01*
X96364000Y-110835000D01*
X96375000Y-110789000D01*
X96388000Y-110744000D01*
X96404000Y-110699000D01*
X96422000Y-110656000D01*
X96442000Y-110613000D01*
X96465000Y-110572000D01*
X96489000Y-110532000D01*
X96516000Y-110493000D01*
X96545000Y-110456000D01*
X96575000Y-110420000D01*
X96608000Y-110386000D01*
X96642000Y-110353000D01*
X96678000Y-110323000D01*
X96715000Y-110294000D01*
X96754000Y-110267000D01*
X96794000Y-110243000D01*
X96835000Y-110220000D01*
X96878000Y-110200000D01*
X96921000Y-110182000D01*
X96966000Y-110166000D01*
X97011000Y-110153000D01*
X97057000Y-110142000D01*
X97103000Y-110133000D01*
X97150000Y-110127000D01*
X97197000Y-110123000D01*
X97244000Y-110122000D01*
X97291000Y-110123000D01*
G37*
X106094000Y-63892000D02*
X103594000Y-63892000D01*
X103547000Y-63891000D01*
X103500000Y-63887000D01*
X103453000Y-63881000D01*
X103407000Y-63872000D01*
X103361000Y-63861000D01*
X103316000Y-63848000D01*
X103271000Y-63832000D01*
X103228000Y-63814000D01*
X103185000Y-63794000D01*
X103144000Y-63771000D01*
X103104000Y-63747000D01*
X103065000Y-63720000D01*
X103028000Y-63691000D01*
X102992000Y-63661000D01*
X102958000Y-63628000D01*
X102925000Y-63594000D01*
X102895000Y-63558000D01*
X102866000Y-63521000D01*
X102839000Y-63482000D01*
X102815000Y-63442000D01*
X102792000Y-63401000D01*
X102772000Y-63358000D01*
X102754000Y-63315000D01*
X102738000Y-63270000D01*
X102725000Y-63225000D01*
X102714000Y-63179000D01*
X102705000Y-63133000D01*
X102699000Y-63086000D01*
X102695000Y-63039000D01*
X102694000Y-62992000D01*
X102695000Y-62945000D01*
X102699000Y-62898000D01*
X102705000Y-62851000D01*
X102714000Y-62805000D01*
X102725000Y-62759000D01*
X102738000Y-62714000D01*
X102754000Y-62669000D01*
X102772000Y-62626000D01*
X102792000Y-62583000D01*
X102815000Y-62542000D01*
X102839000Y-62502000D01*
X102866000Y-62463000D01*
X102895000Y-62426000D01*
X102925000Y-62390000D01*
X102958000Y-62356000D01*
X102992000Y-62323000D01*
X103028000Y-62293000D01*
X103065000Y-62264000D01*
X103104000Y-62237000D01*
X103144000Y-62213000D01*
X103185000Y-62190000D01*
X103228000Y-62170000D01*
X103271000Y-62152000D01*
X103316000Y-62136000D01*
X103361000Y-62123000D01*
X103407000Y-62112000D01*
X103453000Y-62103000D01*
X103500000Y-62097000D01*
X103547000Y-62093000D01*
X103594000Y-62092000D01*
X106094000Y-62092000D01*
X106094000Y-63892000D01*
G36*
X106094000Y-63892000D02*
G01*
X103594000Y-63892000D01*
X103547000Y-63891000D01*
X103500000Y-63887000D01*
X103453000Y-63881000D01*
X103407000Y-63872000D01*
X103361000Y-63861000D01*
X103316000Y-63848000D01*
X103271000Y-63832000D01*
X103228000Y-63814000D01*
X103185000Y-63794000D01*
X103144000Y-63771000D01*
X103104000Y-63747000D01*
X103065000Y-63720000D01*
X103028000Y-63691000D01*
X102992000Y-63661000D01*
X102958000Y-63628000D01*
X102925000Y-63594000D01*
X102895000Y-63558000D01*
X102866000Y-63521000D01*
X102839000Y-63482000D01*
X102815000Y-63442000D01*
X102792000Y-63401000D01*
X102772000Y-63358000D01*
X102754000Y-63315000D01*
X102738000Y-63270000D01*
X102725000Y-63225000D01*
X102714000Y-63179000D01*
X102705000Y-63133000D01*
X102699000Y-63086000D01*
X102695000Y-63039000D01*
X102694000Y-62992000D01*
X102695000Y-62945000D01*
X102699000Y-62898000D01*
X102705000Y-62851000D01*
X102714000Y-62805000D01*
X102725000Y-62759000D01*
X102738000Y-62714000D01*
X102754000Y-62669000D01*
X102772000Y-62626000D01*
X102792000Y-62583000D01*
X102815000Y-62542000D01*
X102839000Y-62502000D01*
X102866000Y-62463000D01*
X102895000Y-62426000D01*
X102925000Y-62390000D01*
X102958000Y-62356000D01*
X102992000Y-62323000D01*
X103028000Y-62293000D01*
X103065000Y-62264000D01*
X103104000Y-62237000D01*
X103144000Y-62213000D01*
X103185000Y-62190000D01*
X103228000Y-62170000D01*
X103271000Y-62152000D01*
X103316000Y-62136000D01*
X103361000Y-62123000D01*
X103407000Y-62112000D01*
X103453000Y-62103000D01*
X103500000Y-62097000D01*
X103547000Y-62093000D01*
X103594000Y-62092000D01*
X106094000Y-62092000D01*
X106094000Y-63892000D01*
G37*
X106094000Y-66432000D02*
X103594000Y-66432000D01*
X103547000Y-66431000D01*
X103500000Y-66427000D01*
X103453000Y-66421000D01*
X103407000Y-66412000D01*
X103361000Y-66401000D01*
X103316000Y-66388000D01*
X103271000Y-66372000D01*
X103228000Y-66354000D01*
X103185000Y-66334000D01*
X103144000Y-66311000D01*
X103104000Y-66287000D01*
X103065000Y-66260000D01*
X103028000Y-66231000D01*
X102992000Y-66201000D01*
X102958000Y-66168000D01*
X102925000Y-66134000D01*
X102895000Y-66098000D01*
X102866000Y-66061000D01*
X102839000Y-66022000D01*
X102815000Y-65982000D01*
X102792000Y-65941000D01*
X102772000Y-65898000D01*
X102754000Y-65855000D01*
X102738000Y-65810000D01*
X102725000Y-65765000D01*
X102714000Y-65719000D01*
X102705000Y-65673000D01*
X102699000Y-65626000D01*
X102695000Y-65579000D01*
X102694000Y-65532000D01*
X102695000Y-65485000D01*
X102699000Y-65438000D01*
X102705000Y-65391000D01*
X102714000Y-65345000D01*
X102725000Y-65299000D01*
X102738000Y-65254000D01*
X102754000Y-65209000D01*
X102772000Y-65166000D01*
X102792000Y-65123000D01*
X102815000Y-65082000D01*
X102839000Y-65042000D01*
X102866000Y-65003000D01*
X102895000Y-64966000D01*
X102925000Y-64930000D01*
X102958000Y-64896000D01*
X102992000Y-64863000D01*
X103028000Y-64833000D01*
X103065000Y-64804000D01*
X103104000Y-64777000D01*
X103144000Y-64753000D01*
X103185000Y-64730000D01*
X103228000Y-64710000D01*
X103271000Y-64692000D01*
X103316000Y-64676000D01*
X103361000Y-64663000D01*
X103407000Y-64652000D01*
X103453000Y-64643000D01*
X103500000Y-64637000D01*
X103547000Y-64633000D01*
X103594000Y-64632000D01*
X106094000Y-64632000D01*
X106094000Y-66432000D01*
G36*
X106094000Y-66432000D02*
G01*
X103594000Y-66432000D01*
X103547000Y-66431000D01*
X103500000Y-66427000D01*
X103453000Y-66421000D01*
X103407000Y-66412000D01*
X103361000Y-66401000D01*
X103316000Y-66388000D01*
X103271000Y-66372000D01*
X103228000Y-66354000D01*
X103185000Y-66334000D01*
X103144000Y-66311000D01*
X103104000Y-66287000D01*
X103065000Y-66260000D01*
X103028000Y-66231000D01*
X102992000Y-66201000D01*
X102958000Y-66168000D01*
X102925000Y-66134000D01*
X102895000Y-66098000D01*
X102866000Y-66061000D01*
X102839000Y-66022000D01*
X102815000Y-65982000D01*
X102792000Y-65941000D01*
X102772000Y-65898000D01*
X102754000Y-65855000D01*
X102738000Y-65810000D01*
X102725000Y-65765000D01*
X102714000Y-65719000D01*
X102705000Y-65673000D01*
X102699000Y-65626000D01*
X102695000Y-65579000D01*
X102694000Y-65532000D01*
X102695000Y-65485000D01*
X102699000Y-65438000D01*
X102705000Y-65391000D01*
X102714000Y-65345000D01*
X102725000Y-65299000D01*
X102738000Y-65254000D01*
X102754000Y-65209000D01*
X102772000Y-65166000D01*
X102792000Y-65123000D01*
X102815000Y-65082000D01*
X102839000Y-65042000D01*
X102866000Y-65003000D01*
X102895000Y-64966000D01*
X102925000Y-64930000D01*
X102958000Y-64896000D01*
X102992000Y-64863000D01*
X103028000Y-64833000D01*
X103065000Y-64804000D01*
X103104000Y-64777000D01*
X103144000Y-64753000D01*
X103185000Y-64730000D01*
X103228000Y-64710000D01*
X103271000Y-64692000D01*
X103316000Y-64676000D01*
X103361000Y-64663000D01*
X103407000Y-64652000D01*
X103453000Y-64643000D01*
X103500000Y-64637000D01*
X103547000Y-64633000D01*
X103594000Y-64632000D01*
X106094000Y-64632000D01*
X106094000Y-66432000D01*
G37*
X106094000Y-71512000D02*
X103594000Y-71512000D01*
X103547000Y-71511000D01*
X103500000Y-71507000D01*
X103453000Y-71501000D01*
X103407000Y-71492000D01*
X103361000Y-71481000D01*
X103316000Y-71468000D01*
X103271000Y-71452000D01*
X103228000Y-71434000D01*
X103185000Y-71414000D01*
X103144000Y-71391000D01*
X103104000Y-71367000D01*
X103065000Y-71340000D01*
X103028000Y-71311000D01*
X102992000Y-71281000D01*
X102958000Y-71248000D01*
X102925000Y-71214000D01*
X102895000Y-71178000D01*
X102866000Y-71141000D01*
X102839000Y-71102000D01*
X102815000Y-71062000D01*
X102792000Y-71021000D01*
X102772000Y-70978000D01*
X102754000Y-70935000D01*
X102738000Y-70890000D01*
X102725000Y-70845000D01*
X102714000Y-70799000D01*
X102705000Y-70753000D01*
X102699000Y-70706000D01*
X102695000Y-70659000D01*
X102694000Y-70612000D01*
X102695000Y-70565000D01*
X102699000Y-70518000D01*
X102705000Y-70471000D01*
X102714000Y-70425000D01*
X102725000Y-70379000D01*
X102738000Y-70334000D01*
X102754000Y-70289000D01*
X102772000Y-70246000D01*
X102792000Y-70203000D01*
X102815000Y-70162000D01*
X102839000Y-70122000D01*
X102866000Y-70083000D01*
X102895000Y-70046000D01*
X102925000Y-70010000D01*
X102958000Y-69976000D01*
X102992000Y-69943000D01*
X103028000Y-69913000D01*
X103065000Y-69884000D01*
X103104000Y-69857000D01*
X103144000Y-69833000D01*
X103185000Y-69810000D01*
X103228000Y-69790000D01*
X103271000Y-69772000D01*
X103316000Y-69756000D01*
X103361000Y-69743000D01*
X103407000Y-69732000D01*
X103453000Y-69723000D01*
X103500000Y-69717000D01*
X103547000Y-69713000D01*
X103594000Y-69712000D01*
X106094000Y-69712000D01*
X106094000Y-71512000D01*
G36*
X106094000Y-71512000D02*
G01*
X103594000Y-71512000D01*
X103547000Y-71511000D01*
X103500000Y-71507000D01*
X103453000Y-71501000D01*
X103407000Y-71492000D01*
X103361000Y-71481000D01*
X103316000Y-71468000D01*
X103271000Y-71452000D01*
X103228000Y-71434000D01*
X103185000Y-71414000D01*
X103144000Y-71391000D01*
X103104000Y-71367000D01*
X103065000Y-71340000D01*
X103028000Y-71311000D01*
X102992000Y-71281000D01*
X102958000Y-71248000D01*
X102925000Y-71214000D01*
X102895000Y-71178000D01*
X102866000Y-71141000D01*
X102839000Y-71102000D01*
X102815000Y-71062000D01*
X102792000Y-71021000D01*
X102772000Y-70978000D01*
X102754000Y-70935000D01*
X102738000Y-70890000D01*
X102725000Y-70845000D01*
X102714000Y-70799000D01*
X102705000Y-70753000D01*
X102699000Y-70706000D01*
X102695000Y-70659000D01*
X102694000Y-70612000D01*
X102695000Y-70565000D01*
X102699000Y-70518000D01*
X102705000Y-70471000D01*
X102714000Y-70425000D01*
X102725000Y-70379000D01*
X102738000Y-70334000D01*
X102754000Y-70289000D01*
X102772000Y-70246000D01*
X102792000Y-70203000D01*
X102815000Y-70162000D01*
X102839000Y-70122000D01*
X102866000Y-70083000D01*
X102895000Y-70046000D01*
X102925000Y-70010000D01*
X102958000Y-69976000D01*
X102992000Y-69943000D01*
X103028000Y-69913000D01*
X103065000Y-69884000D01*
X103104000Y-69857000D01*
X103144000Y-69833000D01*
X103185000Y-69810000D01*
X103228000Y-69790000D01*
X103271000Y-69772000D01*
X103316000Y-69756000D01*
X103361000Y-69743000D01*
X103407000Y-69732000D01*
X103453000Y-69723000D01*
X103500000Y-69717000D01*
X103547000Y-69713000D01*
X103594000Y-69712000D01*
X106094000Y-69712000D01*
X106094000Y-71512000D01*
G37*
X106094000Y-74052000D02*
X103594000Y-74052000D01*
X103547000Y-74051000D01*
X103500000Y-74047000D01*
X103453000Y-74041000D01*
X103407000Y-74032000D01*
X103361000Y-74021000D01*
X103316000Y-74008000D01*
X103271000Y-73992000D01*
X103228000Y-73974000D01*
X103185000Y-73954000D01*
X103144000Y-73931000D01*
X103104000Y-73907000D01*
X103065000Y-73880000D01*
X103028000Y-73851000D01*
X102992000Y-73821000D01*
X102958000Y-73788000D01*
X102925000Y-73754000D01*
X102895000Y-73718000D01*
X102866000Y-73681000D01*
X102839000Y-73642000D01*
X102815000Y-73602000D01*
X102792000Y-73561000D01*
X102772000Y-73518000D01*
X102754000Y-73475000D01*
X102738000Y-73430000D01*
X102725000Y-73385000D01*
X102714000Y-73339000D01*
X102705000Y-73293000D01*
X102699000Y-73246000D01*
X102695000Y-73199000D01*
X102694000Y-73152000D01*
X102695000Y-73105000D01*
X102699000Y-73058000D01*
X102705000Y-73011000D01*
X102714000Y-72965000D01*
X102725000Y-72919000D01*
X102738000Y-72874000D01*
X102754000Y-72829000D01*
X102772000Y-72786000D01*
X102792000Y-72743000D01*
X102815000Y-72702000D01*
X102839000Y-72662000D01*
X102866000Y-72623000D01*
X102895000Y-72586000D01*
X102925000Y-72550000D01*
X102958000Y-72516000D01*
X102992000Y-72483000D01*
X103028000Y-72453000D01*
X103065000Y-72424000D01*
X103104000Y-72397000D01*
X103144000Y-72373000D01*
X103185000Y-72350000D01*
X103228000Y-72330000D01*
X103271000Y-72312000D01*
X103316000Y-72296000D01*
X103361000Y-72283000D01*
X103407000Y-72272000D01*
X103453000Y-72263000D01*
X103500000Y-72257000D01*
X103547000Y-72253000D01*
X103594000Y-72252000D01*
X106094000Y-72252000D01*
X106094000Y-74052000D01*
G36*
X106094000Y-74052000D02*
G01*
X103594000Y-74052000D01*
X103547000Y-74051000D01*
X103500000Y-74047000D01*
X103453000Y-74041000D01*
X103407000Y-74032000D01*
X103361000Y-74021000D01*
X103316000Y-74008000D01*
X103271000Y-73992000D01*
X103228000Y-73974000D01*
X103185000Y-73954000D01*
X103144000Y-73931000D01*
X103104000Y-73907000D01*
X103065000Y-73880000D01*
X103028000Y-73851000D01*
X102992000Y-73821000D01*
X102958000Y-73788000D01*
X102925000Y-73754000D01*
X102895000Y-73718000D01*
X102866000Y-73681000D01*
X102839000Y-73642000D01*
X102815000Y-73602000D01*
X102792000Y-73561000D01*
X102772000Y-73518000D01*
X102754000Y-73475000D01*
X102738000Y-73430000D01*
X102725000Y-73385000D01*
X102714000Y-73339000D01*
X102705000Y-73293000D01*
X102699000Y-73246000D01*
X102695000Y-73199000D01*
X102694000Y-73152000D01*
X102695000Y-73105000D01*
X102699000Y-73058000D01*
X102705000Y-73011000D01*
X102714000Y-72965000D01*
X102725000Y-72919000D01*
X102738000Y-72874000D01*
X102754000Y-72829000D01*
X102772000Y-72786000D01*
X102792000Y-72743000D01*
X102815000Y-72702000D01*
X102839000Y-72662000D01*
X102866000Y-72623000D01*
X102895000Y-72586000D01*
X102925000Y-72550000D01*
X102958000Y-72516000D01*
X102992000Y-72483000D01*
X103028000Y-72453000D01*
X103065000Y-72424000D01*
X103104000Y-72397000D01*
X103144000Y-72373000D01*
X103185000Y-72350000D01*
X103228000Y-72330000D01*
X103271000Y-72312000D01*
X103316000Y-72296000D01*
X103361000Y-72283000D01*
X103407000Y-72272000D01*
X103453000Y-72263000D01*
X103500000Y-72257000D01*
X103547000Y-72253000D01*
X103594000Y-72252000D01*
X106094000Y-72252000D01*
X106094000Y-74052000D01*
G37*
X106094000Y-76592000D02*
X103594000Y-76592000D01*
X103547000Y-76591000D01*
X103500000Y-76587000D01*
X103453000Y-76581000D01*
X103407000Y-76572000D01*
X103361000Y-76561000D01*
X103316000Y-76548000D01*
X103271000Y-76532000D01*
X103228000Y-76514000D01*
X103185000Y-76494000D01*
X103144000Y-76471000D01*
X103104000Y-76447000D01*
X103065000Y-76420000D01*
X103028000Y-76391000D01*
X102992000Y-76361000D01*
X102958000Y-76328000D01*
X102925000Y-76294000D01*
X102895000Y-76258000D01*
X102866000Y-76221000D01*
X102839000Y-76182000D01*
X102815000Y-76142000D01*
X102792000Y-76101000D01*
X102772000Y-76058000D01*
X102754000Y-76015000D01*
X102738000Y-75970000D01*
X102725000Y-75925000D01*
X102714000Y-75879000D01*
X102705000Y-75833000D01*
X102699000Y-75786000D01*
X102695000Y-75739000D01*
X102694000Y-75692000D01*
X102695000Y-75645000D01*
X102699000Y-75598000D01*
X102705000Y-75551000D01*
X102714000Y-75505000D01*
X102725000Y-75459000D01*
X102738000Y-75414000D01*
X102754000Y-75369000D01*
X102772000Y-75326000D01*
X102792000Y-75283000D01*
X102815000Y-75242000D01*
X102839000Y-75202000D01*
X102866000Y-75163000D01*
X102895000Y-75126000D01*
X102925000Y-75090000D01*
X102958000Y-75056000D01*
X102992000Y-75023000D01*
X103028000Y-74993000D01*
X103065000Y-74964000D01*
X103104000Y-74937000D01*
X103144000Y-74913000D01*
X103185000Y-74890000D01*
X103228000Y-74870000D01*
X103271000Y-74852000D01*
X103316000Y-74836000D01*
X103361000Y-74823000D01*
X103407000Y-74812000D01*
X103453000Y-74803000D01*
X103500000Y-74797000D01*
X103547000Y-74793000D01*
X103594000Y-74792000D01*
X106094000Y-74792000D01*
X106094000Y-76592000D01*
G36*
X106094000Y-76592000D02*
G01*
X103594000Y-76592000D01*
X103547000Y-76591000D01*
X103500000Y-76587000D01*
X103453000Y-76581000D01*
X103407000Y-76572000D01*
X103361000Y-76561000D01*
X103316000Y-76548000D01*
X103271000Y-76532000D01*
X103228000Y-76514000D01*
X103185000Y-76494000D01*
X103144000Y-76471000D01*
X103104000Y-76447000D01*
X103065000Y-76420000D01*
X103028000Y-76391000D01*
X102992000Y-76361000D01*
X102958000Y-76328000D01*
X102925000Y-76294000D01*
X102895000Y-76258000D01*
X102866000Y-76221000D01*
X102839000Y-76182000D01*
X102815000Y-76142000D01*
X102792000Y-76101000D01*
X102772000Y-76058000D01*
X102754000Y-76015000D01*
X102738000Y-75970000D01*
X102725000Y-75925000D01*
X102714000Y-75879000D01*
X102705000Y-75833000D01*
X102699000Y-75786000D01*
X102695000Y-75739000D01*
X102694000Y-75692000D01*
X102695000Y-75645000D01*
X102699000Y-75598000D01*
X102705000Y-75551000D01*
X102714000Y-75505000D01*
X102725000Y-75459000D01*
X102738000Y-75414000D01*
X102754000Y-75369000D01*
X102772000Y-75326000D01*
X102792000Y-75283000D01*
X102815000Y-75242000D01*
X102839000Y-75202000D01*
X102866000Y-75163000D01*
X102895000Y-75126000D01*
X102925000Y-75090000D01*
X102958000Y-75056000D01*
X102992000Y-75023000D01*
X103028000Y-74993000D01*
X103065000Y-74964000D01*
X103104000Y-74937000D01*
X103144000Y-74913000D01*
X103185000Y-74890000D01*
X103228000Y-74870000D01*
X103271000Y-74852000D01*
X103316000Y-74836000D01*
X103361000Y-74823000D01*
X103407000Y-74812000D01*
X103453000Y-74803000D01*
X103500000Y-74797000D01*
X103547000Y-74793000D01*
X103594000Y-74792000D01*
X106094000Y-74792000D01*
X106094000Y-76592000D01*
G37*
X106094000Y-79132000D02*
X103594000Y-79132000D01*
X103547000Y-79131000D01*
X103500000Y-79127000D01*
X103453000Y-79121000D01*
X103407000Y-79112000D01*
X103361000Y-79101000D01*
X103316000Y-79088000D01*
X103271000Y-79072000D01*
X103228000Y-79054000D01*
X103185000Y-79034000D01*
X103144000Y-79011000D01*
X103104000Y-78987000D01*
X103065000Y-78960000D01*
X103028000Y-78931000D01*
X102992000Y-78901000D01*
X102958000Y-78868000D01*
X102925000Y-78834000D01*
X102895000Y-78798000D01*
X102866000Y-78761000D01*
X102839000Y-78722000D01*
X102815000Y-78682000D01*
X102792000Y-78641000D01*
X102772000Y-78598000D01*
X102754000Y-78555000D01*
X102738000Y-78510000D01*
X102725000Y-78465000D01*
X102714000Y-78419000D01*
X102705000Y-78373000D01*
X102699000Y-78326000D01*
X102695000Y-78279000D01*
X102694000Y-78232000D01*
X102695000Y-78185000D01*
X102699000Y-78138000D01*
X102705000Y-78091000D01*
X102714000Y-78045000D01*
X102725000Y-77999000D01*
X102738000Y-77954000D01*
X102754000Y-77909000D01*
X102772000Y-77866000D01*
X102792000Y-77823000D01*
X102815000Y-77782000D01*
X102839000Y-77742000D01*
X102866000Y-77703000D01*
X102895000Y-77666000D01*
X102925000Y-77630000D01*
X102958000Y-77596000D01*
X102992000Y-77563000D01*
X103028000Y-77533000D01*
X103065000Y-77504000D01*
X103104000Y-77477000D01*
X103144000Y-77453000D01*
X103185000Y-77430000D01*
X103228000Y-77410000D01*
X103271000Y-77392000D01*
X103316000Y-77376000D01*
X103361000Y-77363000D01*
X103407000Y-77352000D01*
X103453000Y-77343000D01*
X103500000Y-77337000D01*
X103547000Y-77333000D01*
X103594000Y-77332000D01*
X106094000Y-77332000D01*
X106094000Y-79132000D01*
G36*
X106094000Y-79132000D02*
G01*
X103594000Y-79132000D01*
X103547000Y-79131000D01*
X103500000Y-79127000D01*
X103453000Y-79121000D01*
X103407000Y-79112000D01*
X103361000Y-79101000D01*
X103316000Y-79088000D01*
X103271000Y-79072000D01*
X103228000Y-79054000D01*
X103185000Y-79034000D01*
X103144000Y-79011000D01*
X103104000Y-78987000D01*
X103065000Y-78960000D01*
X103028000Y-78931000D01*
X102992000Y-78901000D01*
X102958000Y-78868000D01*
X102925000Y-78834000D01*
X102895000Y-78798000D01*
X102866000Y-78761000D01*
X102839000Y-78722000D01*
X102815000Y-78682000D01*
X102792000Y-78641000D01*
X102772000Y-78598000D01*
X102754000Y-78555000D01*
X102738000Y-78510000D01*
X102725000Y-78465000D01*
X102714000Y-78419000D01*
X102705000Y-78373000D01*
X102699000Y-78326000D01*
X102695000Y-78279000D01*
X102694000Y-78232000D01*
X102695000Y-78185000D01*
X102699000Y-78138000D01*
X102705000Y-78091000D01*
X102714000Y-78045000D01*
X102725000Y-77999000D01*
X102738000Y-77954000D01*
X102754000Y-77909000D01*
X102772000Y-77866000D01*
X102792000Y-77823000D01*
X102815000Y-77782000D01*
X102839000Y-77742000D01*
X102866000Y-77703000D01*
X102895000Y-77666000D01*
X102925000Y-77630000D01*
X102958000Y-77596000D01*
X102992000Y-77563000D01*
X103028000Y-77533000D01*
X103065000Y-77504000D01*
X103104000Y-77477000D01*
X103144000Y-77453000D01*
X103185000Y-77430000D01*
X103228000Y-77410000D01*
X103271000Y-77392000D01*
X103316000Y-77376000D01*
X103361000Y-77363000D01*
X103407000Y-77352000D01*
X103453000Y-77343000D01*
X103500000Y-77337000D01*
X103547000Y-77333000D01*
X103594000Y-77332000D01*
X106094000Y-77332000D01*
X106094000Y-79132000D01*
G37*
X106094000Y-84212000D02*
X103594000Y-84212000D01*
X103547000Y-84211000D01*
X103500000Y-84207000D01*
X103453000Y-84201000D01*
X103407000Y-84192000D01*
X103361000Y-84181000D01*
X103316000Y-84168000D01*
X103271000Y-84152000D01*
X103228000Y-84134000D01*
X103185000Y-84114000D01*
X103144000Y-84091000D01*
X103104000Y-84067000D01*
X103065000Y-84040000D01*
X103028000Y-84011000D01*
X102992000Y-83981000D01*
X102958000Y-83948000D01*
X102925000Y-83914000D01*
X102895000Y-83878000D01*
X102866000Y-83841000D01*
X102839000Y-83802000D01*
X102815000Y-83762000D01*
X102792000Y-83721000D01*
X102772000Y-83678000D01*
X102754000Y-83635000D01*
X102738000Y-83590000D01*
X102725000Y-83545000D01*
X102714000Y-83499000D01*
X102705000Y-83453000D01*
X102699000Y-83406000D01*
X102695000Y-83359000D01*
X102694000Y-83312000D01*
X102695000Y-83265000D01*
X102699000Y-83218000D01*
X102705000Y-83171000D01*
X102714000Y-83125000D01*
X102725000Y-83079000D01*
X102738000Y-83034000D01*
X102754000Y-82989000D01*
X102772000Y-82946000D01*
X102792000Y-82903000D01*
X102815000Y-82862000D01*
X102839000Y-82822000D01*
X102866000Y-82783000D01*
X102895000Y-82746000D01*
X102925000Y-82710000D01*
X102958000Y-82676000D01*
X102992000Y-82643000D01*
X103028000Y-82613000D01*
X103065000Y-82584000D01*
X103104000Y-82557000D01*
X103144000Y-82533000D01*
X103185000Y-82510000D01*
X103228000Y-82490000D01*
X103271000Y-82472000D01*
X103316000Y-82456000D01*
X103361000Y-82443000D01*
X103407000Y-82432000D01*
X103453000Y-82423000D01*
X103500000Y-82417000D01*
X103547000Y-82413000D01*
X103594000Y-82412000D01*
X106094000Y-82412000D01*
X106094000Y-84212000D01*
G36*
X106094000Y-84212000D02*
G01*
X103594000Y-84212000D01*
X103547000Y-84211000D01*
X103500000Y-84207000D01*
X103453000Y-84201000D01*
X103407000Y-84192000D01*
X103361000Y-84181000D01*
X103316000Y-84168000D01*
X103271000Y-84152000D01*
X103228000Y-84134000D01*
X103185000Y-84114000D01*
X103144000Y-84091000D01*
X103104000Y-84067000D01*
X103065000Y-84040000D01*
X103028000Y-84011000D01*
X102992000Y-83981000D01*
X102958000Y-83948000D01*
X102925000Y-83914000D01*
X102895000Y-83878000D01*
X102866000Y-83841000D01*
X102839000Y-83802000D01*
X102815000Y-83762000D01*
X102792000Y-83721000D01*
X102772000Y-83678000D01*
X102754000Y-83635000D01*
X102738000Y-83590000D01*
X102725000Y-83545000D01*
X102714000Y-83499000D01*
X102705000Y-83453000D01*
X102699000Y-83406000D01*
X102695000Y-83359000D01*
X102694000Y-83312000D01*
X102695000Y-83265000D01*
X102699000Y-83218000D01*
X102705000Y-83171000D01*
X102714000Y-83125000D01*
X102725000Y-83079000D01*
X102738000Y-83034000D01*
X102754000Y-82989000D01*
X102772000Y-82946000D01*
X102792000Y-82903000D01*
X102815000Y-82862000D01*
X102839000Y-82822000D01*
X102866000Y-82783000D01*
X102895000Y-82746000D01*
X102925000Y-82710000D01*
X102958000Y-82676000D01*
X102992000Y-82643000D01*
X103028000Y-82613000D01*
X103065000Y-82584000D01*
X103104000Y-82557000D01*
X103144000Y-82533000D01*
X103185000Y-82510000D01*
X103228000Y-82490000D01*
X103271000Y-82472000D01*
X103316000Y-82456000D01*
X103361000Y-82443000D01*
X103407000Y-82432000D01*
X103453000Y-82423000D01*
X103500000Y-82417000D01*
X103547000Y-82413000D01*
X103594000Y-82412000D01*
X106094000Y-82412000D01*
X106094000Y-84212000D01*
G37*
X106094000Y-86752000D02*
X103594000Y-86752000D01*
X103547000Y-86751000D01*
X103500000Y-86747000D01*
X103453000Y-86741000D01*
X103407000Y-86732000D01*
X103361000Y-86721000D01*
X103316000Y-86708000D01*
X103271000Y-86692000D01*
X103228000Y-86674000D01*
X103185000Y-86654000D01*
X103144000Y-86631000D01*
X103104000Y-86607000D01*
X103065000Y-86580000D01*
X103028000Y-86551000D01*
X102992000Y-86521000D01*
X102958000Y-86488000D01*
X102925000Y-86454000D01*
X102895000Y-86418000D01*
X102866000Y-86381000D01*
X102839000Y-86342000D01*
X102815000Y-86302000D01*
X102792000Y-86261000D01*
X102772000Y-86218000D01*
X102754000Y-86175000D01*
X102738000Y-86130000D01*
X102725000Y-86085000D01*
X102714000Y-86039000D01*
X102705000Y-85993000D01*
X102699000Y-85946000D01*
X102695000Y-85899000D01*
X102694000Y-85852000D01*
X102695000Y-85805000D01*
X102699000Y-85758000D01*
X102705000Y-85711000D01*
X102714000Y-85665000D01*
X102725000Y-85619000D01*
X102738000Y-85574000D01*
X102754000Y-85529000D01*
X102772000Y-85486000D01*
X102792000Y-85443000D01*
X102815000Y-85402000D01*
X102839000Y-85362000D01*
X102866000Y-85323000D01*
X102895000Y-85286000D01*
X102925000Y-85250000D01*
X102958000Y-85216000D01*
X102992000Y-85183000D01*
X103028000Y-85153000D01*
X103065000Y-85124000D01*
X103104000Y-85097000D01*
X103144000Y-85073000D01*
X103185000Y-85050000D01*
X103228000Y-85030000D01*
X103271000Y-85012000D01*
X103316000Y-84996000D01*
X103361000Y-84983000D01*
X103407000Y-84972000D01*
X103453000Y-84963000D01*
X103500000Y-84957000D01*
X103547000Y-84953000D01*
X103594000Y-84952000D01*
X106094000Y-84952000D01*
X106094000Y-86752000D01*
G36*
X106094000Y-86752000D02*
G01*
X103594000Y-86752000D01*
X103547000Y-86751000D01*
X103500000Y-86747000D01*
X103453000Y-86741000D01*
X103407000Y-86732000D01*
X103361000Y-86721000D01*
X103316000Y-86708000D01*
X103271000Y-86692000D01*
X103228000Y-86674000D01*
X103185000Y-86654000D01*
X103144000Y-86631000D01*
X103104000Y-86607000D01*
X103065000Y-86580000D01*
X103028000Y-86551000D01*
X102992000Y-86521000D01*
X102958000Y-86488000D01*
X102925000Y-86454000D01*
X102895000Y-86418000D01*
X102866000Y-86381000D01*
X102839000Y-86342000D01*
X102815000Y-86302000D01*
X102792000Y-86261000D01*
X102772000Y-86218000D01*
X102754000Y-86175000D01*
X102738000Y-86130000D01*
X102725000Y-86085000D01*
X102714000Y-86039000D01*
X102705000Y-85993000D01*
X102699000Y-85946000D01*
X102695000Y-85899000D01*
X102694000Y-85852000D01*
X102695000Y-85805000D01*
X102699000Y-85758000D01*
X102705000Y-85711000D01*
X102714000Y-85665000D01*
X102725000Y-85619000D01*
X102738000Y-85574000D01*
X102754000Y-85529000D01*
X102772000Y-85486000D01*
X102792000Y-85443000D01*
X102815000Y-85402000D01*
X102839000Y-85362000D01*
X102866000Y-85323000D01*
X102895000Y-85286000D01*
X102925000Y-85250000D01*
X102958000Y-85216000D01*
X102992000Y-85183000D01*
X103028000Y-85153000D01*
X103065000Y-85124000D01*
X103104000Y-85097000D01*
X103144000Y-85073000D01*
X103185000Y-85050000D01*
X103228000Y-85030000D01*
X103271000Y-85012000D01*
X103316000Y-84996000D01*
X103361000Y-84983000D01*
X103407000Y-84972000D01*
X103453000Y-84963000D01*
X103500000Y-84957000D01*
X103547000Y-84953000D01*
X103594000Y-84952000D01*
X106094000Y-84952000D01*
X106094000Y-86752000D01*
G37*
X106094000Y-89292000D02*
X103594000Y-89292000D01*
X103547000Y-89291000D01*
X103500000Y-89287000D01*
X103453000Y-89281000D01*
X103407000Y-89272000D01*
X103361000Y-89261000D01*
X103316000Y-89248000D01*
X103271000Y-89232000D01*
X103228000Y-89214000D01*
X103185000Y-89194000D01*
X103144000Y-89171000D01*
X103104000Y-89147000D01*
X103065000Y-89120000D01*
X103028000Y-89091000D01*
X102992000Y-89061000D01*
X102958000Y-89028000D01*
X102925000Y-88994000D01*
X102895000Y-88958000D01*
X102866000Y-88921000D01*
X102839000Y-88882000D01*
X102815000Y-88842000D01*
X102792000Y-88801000D01*
X102772000Y-88758000D01*
X102754000Y-88715000D01*
X102738000Y-88670000D01*
X102725000Y-88625000D01*
X102714000Y-88579000D01*
X102705000Y-88533000D01*
X102699000Y-88486000D01*
X102695000Y-88439000D01*
X102694000Y-88392000D01*
X102695000Y-88345000D01*
X102699000Y-88298000D01*
X102705000Y-88251000D01*
X102714000Y-88205000D01*
X102725000Y-88159000D01*
X102738000Y-88114000D01*
X102754000Y-88069000D01*
X102772000Y-88026000D01*
X102792000Y-87983000D01*
X102815000Y-87942000D01*
X102839000Y-87902000D01*
X102866000Y-87863000D01*
X102895000Y-87826000D01*
X102925000Y-87790000D01*
X102958000Y-87756000D01*
X102992000Y-87723000D01*
X103028000Y-87693000D01*
X103065000Y-87664000D01*
X103104000Y-87637000D01*
X103144000Y-87613000D01*
X103185000Y-87590000D01*
X103228000Y-87570000D01*
X103271000Y-87552000D01*
X103316000Y-87536000D01*
X103361000Y-87523000D01*
X103407000Y-87512000D01*
X103453000Y-87503000D01*
X103500000Y-87497000D01*
X103547000Y-87493000D01*
X103594000Y-87492000D01*
X106094000Y-87492000D01*
X106094000Y-89292000D01*
G36*
X106094000Y-89292000D02*
G01*
X103594000Y-89292000D01*
X103547000Y-89291000D01*
X103500000Y-89287000D01*
X103453000Y-89281000D01*
X103407000Y-89272000D01*
X103361000Y-89261000D01*
X103316000Y-89248000D01*
X103271000Y-89232000D01*
X103228000Y-89214000D01*
X103185000Y-89194000D01*
X103144000Y-89171000D01*
X103104000Y-89147000D01*
X103065000Y-89120000D01*
X103028000Y-89091000D01*
X102992000Y-89061000D01*
X102958000Y-89028000D01*
X102925000Y-88994000D01*
X102895000Y-88958000D01*
X102866000Y-88921000D01*
X102839000Y-88882000D01*
X102815000Y-88842000D01*
X102792000Y-88801000D01*
X102772000Y-88758000D01*
X102754000Y-88715000D01*
X102738000Y-88670000D01*
X102725000Y-88625000D01*
X102714000Y-88579000D01*
X102705000Y-88533000D01*
X102699000Y-88486000D01*
X102695000Y-88439000D01*
X102694000Y-88392000D01*
X102695000Y-88345000D01*
X102699000Y-88298000D01*
X102705000Y-88251000D01*
X102714000Y-88205000D01*
X102725000Y-88159000D01*
X102738000Y-88114000D01*
X102754000Y-88069000D01*
X102772000Y-88026000D01*
X102792000Y-87983000D01*
X102815000Y-87942000D01*
X102839000Y-87902000D01*
X102866000Y-87863000D01*
X102895000Y-87826000D01*
X102925000Y-87790000D01*
X102958000Y-87756000D01*
X102992000Y-87723000D01*
X103028000Y-87693000D01*
X103065000Y-87664000D01*
X103104000Y-87637000D01*
X103144000Y-87613000D01*
X103185000Y-87590000D01*
X103228000Y-87570000D01*
X103271000Y-87552000D01*
X103316000Y-87536000D01*
X103361000Y-87523000D01*
X103407000Y-87512000D01*
X103453000Y-87503000D01*
X103500000Y-87497000D01*
X103547000Y-87493000D01*
X103594000Y-87492000D01*
X106094000Y-87492000D01*
X106094000Y-89292000D01*
G37*
X106094000Y-91832000D02*
X103594000Y-91832000D01*
X103547000Y-91831000D01*
X103500000Y-91827000D01*
X103453000Y-91821000D01*
X103407000Y-91812000D01*
X103361000Y-91801000D01*
X103316000Y-91788000D01*
X103271000Y-91772000D01*
X103228000Y-91754000D01*
X103185000Y-91734000D01*
X103144000Y-91711000D01*
X103104000Y-91687000D01*
X103065000Y-91660000D01*
X103028000Y-91631000D01*
X102992000Y-91601000D01*
X102958000Y-91568000D01*
X102925000Y-91534000D01*
X102895000Y-91498000D01*
X102866000Y-91461000D01*
X102839000Y-91422000D01*
X102815000Y-91382000D01*
X102792000Y-91341000D01*
X102772000Y-91298000D01*
X102754000Y-91255000D01*
X102738000Y-91210000D01*
X102725000Y-91165000D01*
X102714000Y-91119000D01*
X102705000Y-91073000D01*
X102699000Y-91026000D01*
X102695000Y-90979000D01*
X102694000Y-90932000D01*
X102695000Y-90885000D01*
X102699000Y-90838000D01*
X102705000Y-90791000D01*
X102714000Y-90745000D01*
X102725000Y-90699000D01*
X102738000Y-90654000D01*
X102754000Y-90609000D01*
X102772000Y-90566000D01*
X102792000Y-90523000D01*
X102815000Y-90482000D01*
X102839000Y-90442000D01*
X102866000Y-90403000D01*
X102895000Y-90366000D01*
X102925000Y-90330000D01*
X102958000Y-90296000D01*
X102992000Y-90263000D01*
X103028000Y-90233000D01*
X103065000Y-90204000D01*
X103104000Y-90177000D01*
X103144000Y-90153000D01*
X103185000Y-90130000D01*
X103228000Y-90110000D01*
X103271000Y-90092000D01*
X103316000Y-90076000D01*
X103361000Y-90063000D01*
X103407000Y-90052000D01*
X103453000Y-90043000D01*
X103500000Y-90037000D01*
X103547000Y-90033000D01*
X103594000Y-90032000D01*
X106094000Y-90032000D01*
X106094000Y-91832000D01*
G36*
X106094000Y-91832000D02*
G01*
X103594000Y-91832000D01*
X103547000Y-91831000D01*
X103500000Y-91827000D01*
X103453000Y-91821000D01*
X103407000Y-91812000D01*
X103361000Y-91801000D01*
X103316000Y-91788000D01*
X103271000Y-91772000D01*
X103228000Y-91754000D01*
X103185000Y-91734000D01*
X103144000Y-91711000D01*
X103104000Y-91687000D01*
X103065000Y-91660000D01*
X103028000Y-91631000D01*
X102992000Y-91601000D01*
X102958000Y-91568000D01*
X102925000Y-91534000D01*
X102895000Y-91498000D01*
X102866000Y-91461000D01*
X102839000Y-91422000D01*
X102815000Y-91382000D01*
X102792000Y-91341000D01*
X102772000Y-91298000D01*
X102754000Y-91255000D01*
X102738000Y-91210000D01*
X102725000Y-91165000D01*
X102714000Y-91119000D01*
X102705000Y-91073000D01*
X102699000Y-91026000D01*
X102695000Y-90979000D01*
X102694000Y-90932000D01*
X102695000Y-90885000D01*
X102699000Y-90838000D01*
X102705000Y-90791000D01*
X102714000Y-90745000D01*
X102725000Y-90699000D01*
X102738000Y-90654000D01*
X102754000Y-90609000D01*
X102772000Y-90566000D01*
X102792000Y-90523000D01*
X102815000Y-90482000D01*
X102839000Y-90442000D01*
X102866000Y-90403000D01*
X102895000Y-90366000D01*
X102925000Y-90330000D01*
X102958000Y-90296000D01*
X102992000Y-90263000D01*
X103028000Y-90233000D01*
X103065000Y-90204000D01*
X103104000Y-90177000D01*
X103144000Y-90153000D01*
X103185000Y-90130000D01*
X103228000Y-90110000D01*
X103271000Y-90092000D01*
X103316000Y-90076000D01*
X103361000Y-90063000D01*
X103407000Y-90052000D01*
X103453000Y-90043000D01*
X103500000Y-90037000D01*
X103547000Y-90033000D01*
X103594000Y-90032000D01*
X106094000Y-90032000D01*
X106094000Y-91832000D01*
G37*
X106094000Y-96912000D02*
X103594000Y-96912000D01*
X103547000Y-96911000D01*
X103500000Y-96907000D01*
X103453000Y-96901000D01*
X103407000Y-96892000D01*
X103361000Y-96881000D01*
X103316000Y-96868000D01*
X103271000Y-96852000D01*
X103228000Y-96834000D01*
X103185000Y-96814000D01*
X103144000Y-96791000D01*
X103104000Y-96767000D01*
X103065000Y-96740000D01*
X103028000Y-96711000D01*
X102992000Y-96681000D01*
X102958000Y-96648000D01*
X102925000Y-96614000D01*
X102895000Y-96578000D01*
X102866000Y-96541000D01*
X102839000Y-96502000D01*
X102815000Y-96462000D01*
X102792000Y-96421000D01*
X102772000Y-96378000D01*
X102754000Y-96335000D01*
X102738000Y-96290000D01*
X102725000Y-96245000D01*
X102714000Y-96199000D01*
X102705000Y-96153000D01*
X102699000Y-96106000D01*
X102695000Y-96059000D01*
X102694000Y-96012000D01*
X102695000Y-95965000D01*
X102699000Y-95918000D01*
X102705000Y-95871000D01*
X102714000Y-95825000D01*
X102725000Y-95779000D01*
X102738000Y-95734000D01*
X102754000Y-95689000D01*
X102772000Y-95646000D01*
X102792000Y-95603000D01*
X102815000Y-95562000D01*
X102839000Y-95522000D01*
X102866000Y-95483000D01*
X102895000Y-95446000D01*
X102925000Y-95410000D01*
X102958000Y-95376000D01*
X102992000Y-95343000D01*
X103028000Y-95313000D01*
X103065000Y-95284000D01*
X103104000Y-95257000D01*
X103144000Y-95233000D01*
X103185000Y-95210000D01*
X103228000Y-95190000D01*
X103271000Y-95172000D01*
X103316000Y-95156000D01*
X103361000Y-95143000D01*
X103407000Y-95132000D01*
X103453000Y-95123000D01*
X103500000Y-95117000D01*
X103547000Y-95113000D01*
X103594000Y-95112000D01*
X106094000Y-95112000D01*
X106094000Y-96912000D01*
G36*
X106094000Y-96912000D02*
G01*
X103594000Y-96912000D01*
X103547000Y-96911000D01*
X103500000Y-96907000D01*
X103453000Y-96901000D01*
X103407000Y-96892000D01*
X103361000Y-96881000D01*
X103316000Y-96868000D01*
X103271000Y-96852000D01*
X103228000Y-96834000D01*
X103185000Y-96814000D01*
X103144000Y-96791000D01*
X103104000Y-96767000D01*
X103065000Y-96740000D01*
X103028000Y-96711000D01*
X102992000Y-96681000D01*
X102958000Y-96648000D01*
X102925000Y-96614000D01*
X102895000Y-96578000D01*
X102866000Y-96541000D01*
X102839000Y-96502000D01*
X102815000Y-96462000D01*
X102792000Y-96421000D01*
X102772000Y-96378000D01*
X102754000Y-96335000D01*
X102738000Y-96290000D01*
X102725000Y-96245000D01*
X102714000Y-96199000D01*
X102705000Y-96153000D01*
X102699000Y-96106000D01*
X102695000Y-96059000D01*
X102694000Y-96012000D01*
X102695000Y-95965000D01*
X102699000Y-95918000D01*
X102705000Y-95871000D01*
X102714000Y-95825000D01*
X102725000Y-95779000D01*
X102738000Y-95734000D01*
X102754000Y-95689000D01*
X102772000Y-95646000D01*
X102792000Y-95603000D01*
X102815000Y-95562000D01*
X102839000Y-95522000D01*
X102866000Y-95483000D01*
X102895000Y-95446000D01*
X102925000Y-95410000D01*
X102958000Y-95376000D01*
X102992000Y-95343000D01*
X103028000Y-95313000D01*
X103065000Y-95284000D01*
X103104000Y-95257000D01*
X103144000Y-95233000D01*
X103185000Y-95210000D01*
X103228000Y-95190000D01*
X103271000Y-95172000D01*
X103316000Y-95156000D01*
X103361000Y-95143000D01*
X103407000Y-95132000D01*
X103453000Y-95123000D01*
X103500000Y-95117000D01*
X103547000Y-95113000D01*
X103594000Y-95112000D01*
X106094000Y-95112000D01*
X106094000Y-96912000D01*
G37*
X106094000Y-99452000D02*
X103594000Y-99452000D01*
X103547000Y-99451000D01*
X103500000Y-99447000D01*
X103453000Y-99441000D01*
X103407000Y-99432000D01*
X103361000Y-99421000D01*
X103316000Y-99408000D01*
X103271000Y-99392000D01*
X103228000Y-99374000D01*
X103185000Y-99354000D01*
X103144000Y-99331000D01*
X103104000Y-99307000D01*
X103065000Y-99280000D01*
X103028000Y-99251000D01*
X102992000Y-99221000D01*
X102958000Y-99188000D01*
X102925000Y-99154000D01*
X102895000Y-99118000D01*
X102866000Y-99081000D01*
X102839000Y-99042000D01*
X102815000Y-99002000D01*
X102792000Y-98961000D01*
X102772000Y-98918000D01*
X102754000Y-98875000D01*
X102738000Y-98830000D01*
X102725000Y-98785000D01*
X102714000Y-98739000D01*
X102705000Y-98693000D01*
X102699000Y-98646000D01*
X102695000Y-98599000D01*
X102694000Y-98552000D01*
X102695000Y-98505000D01*
X102699000Y-98458000D01*
X102705000Y-98411000D01*
X102714000Y-98365000D01*
X102725000Y-98319000D01*
X102738000Y-98274000D01*
X102754000Y-98229000D01*
X102772000Y-98186000D01*
X102792000Y-98143000D01*
X102815000Y-98102000D01*
X102839000Y-98062000D01*
X102866000Y-98023000D01*
X102895000Y-97986000D01*
X102925000Y-97950000D01*
X102958000Y-97916000D01*
X102992000Y-97883000D01*
X103028000Y-97853000D01*
X103065000Y-97824000D01*
X103104000Y-97797000D01*
X103144000Y-97773000D01*
X103185000Y-97750000D01*
X103228000Y-97730000D01*
X103271000Y-97712000D01*
X103316000Y-97696000D01*
X103361000Y-97683000D01*
X103407000Y-97672000D01*
X103453000Y-97663000D01*
X103500000Y-97657000D01*
X103547000Y-97653000D01*
X103594000Y-97652000D01*
X106094000Y-97652000D01*
X106094000Y-99452000D01*
G36*
X106094000Y-99452000D02*
G01*
X103594000Y-99452000D01*
X103547000Y-99451000D01*
X103500000Y-99447000D01*
X103453000Y-99441000D01*
X103407000Y-99432000D01*
X103361000Y-99421000D01*
X103316000Y-99408000D01*
X103271000Y-99392000D01*
X103228000Y-99374000D01*
X103185000Y-99354000D01*
X103144000Y-99331000D01*
X103104000Y-99307000D01*
X103065000Y-99280000D01*
X103028000Y-99251000D01*
X102992000Y-99221000D01*
X102958000Y-99188000D01*
X102925000Y-99154000D01*
X102895000Y-99118000D01*
X102866000Y-99081000D01*
X102839000Y-99042000D01*
X102815000Y-99002000D01*
X102792000Y-98961000D01*
X102772000Y-98918000D01*
X102754000Y-98875000D01*
X102738000Y-98830000D01*
X102725000Y-98785000D01*
X102714000Y-98739000D01*
X102705000Y-98693000D01*
X102699000Y-98646000D01*
X102695000Y-98599000D01*
X102694000Y-98552000D01*
X102695000Y-98505000D01*
X102699000Y-98458000D01*
X102705000Y-98411000D01*
X102714000Y-98365000D01*
X102725000Y-98319000D01*
X102738000Y-98274000D01*
X102754000Y-98229000D01*
X102772000Y-98186000D01*
X102792000Y-98143000D01*
X102815000Y-98102000D01*
X102839000Y-98062000D01*
X102866000Y-98023000D01*
X102895000Y-97986000D01*
X102925000Y-97950000D01*
X102958000Y-97916000D01*
X102992000Y-97883000D01*
X103028000Y-97853000D01*
X103065000Y-97824000D01*
X103104000Y-97797000D01*
X103144000Y-97773000D01*
X103185000Y-97750000D01*
X103228000Y-97730000D01*
X103271000Y-97712000D01*
X103316000Y-97696000D01*
X103361000Y-97683000D01*
X103407000Y-97672000D01*
X103453000Y-97663000D01*
X103500000Y-97657000D01*
X103547000Y-97653000D01*
X103594000Y-97652000D01*
X106094000Y-97652000D01*
X106094000Y-99452000D01*
G37*
X106094000Y-101992000D02*
X103594000Y-101992000D01*
X103547000Y-101991000D01*
X103500000Y-101987000D01*
X103453000Y-101981000D01*
X103407000Y-101972000D01*
X103361000Y-101961000D01*
X103316000Y-101948000D01*
X103271000Y-101932000D01*
X103228000Y-101914000D01*
X103185000Y-101894000D01*
X103144000Y-101871000D01*
X103104000Y-101847000D01*
X103065000Y-101820000D01*
X103028000Y-101791000D01*
X102992000Y-101761000D01*
X102958000Y-101728000D01*
X102925000Y-101694000D01*
X102895000Y-101658000D01*
X102866000Y-101621000D01*
X102839000Y-101582000D01*
X102815000Y-101542000D01*
X102792000Y-101501000D01*
X102772000Y-101458000D01*
X102754000Y-101415000D01*
X102738000Y-101370000D01*
X102725000Y-101325000D01*
X102714000Y-101279000D01*
X102705000Y-101233000D01*
X102699000Y-101186000D01*
X102695000Y-101139000D01*
X102694000Y-101092000D01*
X102695000Y-101045000D01*
X102699000Y-100998000D01*
X102705000Y-100951000D01*
X102714000Y-100905000D01*
X102725000Y-100859000D01*
X102738000Y-100814000D01*
X102754000Y-100769000D01*
X102772000Y-100726000D01*
X102792000Y-100683000D01*
X102815000Y-100642000D01*
X102839000Y-100602000D01*
X102866000Y-100563000D01*
X102895000Y-100526000D01*
X102925000Y-100490000D01*
X102958000Y-100456000D01*
X102992000Y-100423000D01*
X103028000Y-100393000D01*
X103065000Y-100364000D01*
X103104000Y-100337000D01*
X103144000Y-100313000D01*
X103185000Y-100290000D01*
X103228000Y-100270000D01*
X103271000Y-100252000D01*
X103316000Y-100236000D01*
X103361000Y-100223000D01*
X103407000Y-100212000D01*
X103453000Y-100203000D01*
X103500000Y-100197000D01*
X103547000Y-100193000D01*
X103594000Y-100192000D01*
X106094000Y-100192000D01*
X106094000Y-101992000D01*
G36*
X106094000Y-101992000D02*
G01*
X103594000Y-101992000D01*
X103547000Y-101991000D01*
X103500000Y-101987000D01*
X103453000Y-101981000D01*
X103407000Y-101972000D01*
X103361000Y-101961000D01*
X103316000Y-101948000D01*
X103271000Y-101932000D01*
X103228000Y-101914000D01*
X103185000Y-101894000D01*
X103144000Y-101871000D01*
X103104000Y-101847000D01*
X103065000Y-101820000D01*
X103028000Y-101791000D01*
X102992000Y-101761000D01*
X102958000Y-101728000D01*
X102925000Y-101694000D01*
X102895000Y-101658000D01*
X102866000Y-101621000D01*
X102839000Y-101582000D01*
X102815000Y-101542000D01*
X102792000Y-101501000D01*
X102772000Y-101458000D01*
X102754000Y-101415000D01*
X102738000Y-101370000D01*
X102725000Y-101325000D01*
X102714000Y-101279000D01*
X102705000Y-101233000D01*
X102699000Y-101186000D01*
X102695000Y-101139000D01*
X102694000Y-101092000D01*
X102695000Y-101045000D01*
X102699000Y-100998000D01*
X102705000Y-100951000D01*
X102714000Y-100905000D01*
X102725000Y-100859000D01*
X102738000Y-100814000D01*
X102754000Y-100769000D01*
X102772000Y-100726000D01*
X102792000Y-100683000D01*
X102815000Y-100642000D01*
X102839000Y-100602000D01*
X102866000Y-100563000D01*
X102895000Y-100526000D01*
X102925000Y-100490000D01*
X102958000Y-100456000D01*
X102992000Y-100423000D01*
X103028000Y-100393000D01*
X103065000Y-100364000D01*
X103104000Y-100337000D01*
X103144000Y-100313000D01*
X103185000Y-100290000D01*
X103228000Y-100270000D01*
X103271000Y-100252000D01*
X103316000Y-100236000D01*
X103361000Y-100223000D01*
X103407000Y-100212000D01*
X103453000Y-100203000D01*
X103500000Y-100197000D01*
X103547000Y-100193000D01*
X103594000Y-100192000D01*
X106094000Y-100192000D01*
X106094000Y-101992000D01*
G37*
X106094000Y-104532000D02*
X103594000Y-104532000D01*
X103547000Y-104531000D01*
X103500000Y-104527000D01*
X103453000Y-104521000D01*
X103407000Y-104512000D01*
X103361000Y-104501000D01*
X103316000Y-104488000D01*
X103271000Y-104472000D01*
X103228000Y-104454000D01*
X103185000Y-104434000D01*
X103144000Y-104411000D01*
X103104000Y-104387000D01*
X103065000Y-104360000D01*
X103028000Y-104331000D01*
X102992000Y-104301000D01*
X102958000Y-104268000D01*
X102925000Y-104234000D01*
X102895000Y-104198000D01*
X102866000Y-104161000D01*
X102839000Y-104122000D01*
X102815000Y-104082000D01*
X102792000Y-104041000D01*
X102772000Y-103998000D01*
X102754000Y-103955000D01*
X102738000Y-103910000D01*
X102725000Y-103865000D01*
X102714000Y-103819000D01*
X102705000Y-103773000D01*
X102699000Y-103726000D01*
X102695000Y-103679000D01*
X102694000Y-103632000D01*
X102695000Y-103585000D01*
X102699000Y-103538000D01*
X102705000Y-103491000D01*
X102714000Y-103445000D01*
X102725000Y-103399000D01*
X102738000Y-103354000D01*
X102754000Y-103309000D01*
X102772000Y-103266000D01*
X102792000Y-103223000D01*
X102815000Y-103182000D01*
X102839000Y-103142000D01*
X102866000Y-103103000D01*
X102895000Y-103066000D01*
X102925000Y-103030000D01*
X102958000Y-102996000D01*
X102992000Y-102963000D01*
X103028000Y-102933000D01*
X103065000Y-102904000D01*
X103104000Y-102877000D01*
X103144000Y-102853000D01*
X103185000Y-102830000D01*
X103228000Y-102810000D01*
X103271000Y-102792000D01*
X103316000Y-102776000D01*
X103361000Y-102763000D01*
X103407000Y-102752000D01*
X103453000Y-102743000D01*
X103500000Y-102737000D01*
X103547000Y-102733000D01*
X103594000Y-102732000D01*
X106094000Y-102732000D01*
X106094000Y-104532000D01*
G36*
X106094000Y-104532000D02*
G01*
X103594000Y-104532000D01*
X103547000Y-104531000D01*
X103500000Y-104527000D01*
X103453000Y-104521000D01*
X103407000Y-104512000D01*
X103361000Y-104501000D01*
X103316000Y-104488000D01*
X103271000Y-104472000D01*
X103228000Y-104454000D01*
X103185000Y-104434000D01*
X103144000Y-104411000D01*
X103104000Y-104387000D01*
X103065000Y-104360000D01*
X103028000Y-104331000D01*
X102992000Y-104301000D01*
X102958000Y-104268000D01*
X102925000Y-104234000D01*
X102895000Y-104198000D01*
X102866000Y-104161000D01*
X102839000Y-104122000D01*
X102815000Y-104082000D01*
X102792000Y-104041000D01*
X102772000Y-103998000D01*
X102754000Y-103955000D01*
X102738000Y-103910000D01*
X102725000Y-103865000D01*
X102714000Y-103819000D01*
X102705000Y-103773000D01*
X102699000Y-103726000D01*
X102695000Y-103679000D01*
X102694000Y-103632000D01*
X102695000Y-103585000D01*
X102699000Y-103538000D01*
X102705000Y-103491000D01*
X102714000Y-103445000D01*
X102725000Y-103399000D01*
X102738000Y-103354000D01*
X102754000Y-103309000D01*
X102772000Y-103266000D01*
X102792000Y-103223000D01*
X102815000Y-103182000D01*
X102839000Y-103142000D01*
X102866000Y-103103000D01*
X102895000Y-103066000D01*
X102925000Y-103030000D01*
X102958000Y-102996000D01*
X102992000Y-102963000D01*
X103028000Y-102933000D01*
X103065000Y-102904000D01*
X103104000Y-102877000D01*
X103144000Y-102853000D01*
X103185000Y-102830000D01*
X103228000Y-102810000D01*
X103271000Y-102792000D01*
X103316000Y-102776000D01*
X103361000Y-102763000D01*
X103407000Y-102752000D01*
X103453000Y-102743000D01*
X103500000Y-102737000D01*
X103547000Y-102733000D01*
X103594000Y-102732000D01*
X106094000Y-102732000D01*
X106094000Y-104532000D01*
G37*
X106094000Y-109612000D02*
X103594000Y-109612000D01*
X103547000Y-109611000D01*
X103500000Y-109607000D01*
X103453000Y-109601000D01*
X103407000Y-109592000D01*
X103361000Y-109581000D01*
X103316000Y-109568000D01*
X103271000Y-109552000D01*
X103228000Y-109534000D01*
X103185000Y-109514000D01*
X103144000Y-109491000D01*
X103104000Y-109467000D01*
X103065000Y-109440000D01*
X103028000Y-109411000D01*
X102992000Y-109381000D01*
X102958000Y-109348000D01*
X102925000Y-109314000D01*
X102895000Y-109278000D01*
X102866000Y-109241000D01*
X102839000Y-109202000D01*
X102815000Y-109162000D01*
X102792000Y-109121000D01*
X102772000Y-109078000D01*
X102754000Y-109035000D01*
X102738000Y-108990000D01*
X102725000Y-108945000D01*
X102714000Y-108899000D01*
X102705000Y-108853000D01*
X102699000Y-108806000D01*
X102695000Y-108759000D01*
X102694000Y-108712000D01*
X102695000Y-108665000D01*
X102699000Y-108618000D01*
X102705000Y-108571000D01*
X102714000Y-108525000D01*
X102725000Y-108479000D01*
X102738000Y-108434000D01*
X102754000Y-108389000D01*
X102772000Y-108346000D01*
X102792000Y-108303000D01*
X102815000Y-108262000D01*
X102839000Y-108222000D01*
X102866000Y-108183000D01*
X102895000Y-108146000D01*
X102925000Y-108110000D01*
X102958000Y-108076000D01*
X102992000Y-108043000D01*
X103028000Y-108013000D01*
X103065000Y-107984000D01*
X103104000Y-107957000D01*
X103144000Y-107933000D01*
X103185000Y-107910000D01*
X103228000Y-107890000D01*
X103271000Y-107872000D01*
X103316000Y-107856000D01*
X103361000Y-107843000D01*
X103407000Y-107832000D01*
X103453000Y-107823000D01*
X103500000Y-107817000D01*
X103547000Y-107813000D01*
X103594000Y-107812000D01*
X106094000Y-107812000D01*
X106094000Y-109612000D01*
G36*
X106094000Y-109612000D02*
G01*
X103594000Y-109612000D01*
X103547000Y-109611000D01*
X103500000Y-109607000D01*
X103453000Y-109601000D01*
X103407000Y-109592000D01*
X103361000Y-109581000D01*
X103316000Y-109568000D01*
X103271000Y-109552000D01*
X103228000Y-109534000D01*
X103185000Y-109514000D01*
X103144000Y-109491000D01*
X103104000Y-109467000D01*
X103065000Y-109440000D01*
X103028000Y-109411000D01*
X102992000Y-109381000D01*
X102958000Y-109348000D01*
X102925000Y-109314000D01*
X102895000Y-109278000D01*
X102866000Y-109241000D01*
X102839000Y-109202000D01*
X102815000Y-109162000D01*
X102792000Y-109121000D01*
X102772000Y-109078000D01*
X102754000Y-109035000D01*
X102738000Y-108990000D01*
X102725000Y-108945000D01*
X102714000Y-108899000D01*
X102705000Y-108853000D01*
X102699000Y-108806000D01*
X102695000Y-108759000D01*
X102694000Y-108712000D01*
X102695000Y-108665000D01*
X102699000Y-108618000D01*
X102705000Y-108571000D01*
X102714000Y-108525000D01*
X102725000Y-108479000D01*
X102738000Y-108434000D01*
X102754000Y-108389000D01*
X102772000Y-108346000D01*
X102792000Y-108303000D01*
X102815000Y-108262000D01*
X102839000Y-108222000D01*
X102866000Y-108183000D01*
X102895000Y-108146000D01*
X102925000Y-108110000D01*
X102958000Y-108076000D01*
X102992000Y-108043000D01*
X103028000Y-108013000D01*
X103065000Y-107984000D01*
X103104000Y-107957000D01*
X103144000Y-107933000D01*
X103185000Y-107910000D01*
X103228000Y-107890000D01*
X103271000Y-107872000D01*
X103316000Y-107856000D01*
X103361000Y-107843000D01*
X103407000Y-107832000D01*
X103453000Y-107823000D01*
X103500000Y-107817000D01*
X103547000Y-107813000D01*
X103594000Y-107812000D01*
X106094000Y-107812000D01*
X106094000Y-109612000D01*
G37*
X106094000Y-112152000D02*
X103594000Y-112152000D01*
X103547000Y-112151000D01*
X103500000Y-112147000D01*
X103453000Y-112141000D01*
X103407000Y-112132000D01*
X103361000Y-112121000D01*
X103316000Y-112108000D01*
X103271000Y-112092000D01*
X103228000Y-112074000D01*
X103185000Y-112054000D01*
X103144000Y-112031000D01*
X103104000Y-112007000D01*
X103065000Y-111980000D01*
X103028000Y-111951000D01*
X102992000Y-111921000D01*
X102958000Y-111888000D01*
X102925000Y-111854000D01*
X102895000Y-111818000D01*
X102866000Y-111781000D01*
X102839000Y-111742000D01*
X102815000Y-111702000D01*
X102792000Y-111661000D01*
X102772000Y-111618000D01*
X102754000Y-111575000D01*
X102738000Y-111530000D01*
X102725000Y-111485000D01*
X102714000Y-111439000D01*
X102705000Y-111393000D01*
X102699000Y-111346000D01*
X102695000Y-111299000D01*
X102694000Y-111252000D01*
X102695000Y-111205000D01*
X102699000Y-111158000D01*
X102705000Y-111111000D01*
X102714000Y-111065000D01*
X102725000Y-111019000D01*
X102738000Y-110974000D01*
X102754000Y-110929000D01*
X102772000Y-110886000D01*
X102792000Y-110843000D01*
X102815000Y-110802000D01*
X102839000Y-110762000D01*
X102866000Y-110723000D01*
X102895000Y-110686000D01*
X102925000Y-110650000D01*
X102958000Y-110616000D01*
X102992000Y-110583000D01*
X103028000Y-110553000D01*
X103065000Y-110524000D01*
X103104000Y-110497000D01*
X103144000Y-110473000D01*
X103185000Y-110450000D01*
X103228000Y-110430000D01*
X103271000Y-110412000D01*
X103316000Y-110396000D01*
X103361000Y-110383000D01*
X103407000Y-110372000D01*
X103453000Y-110363000D01*
X103500000Y-110357000D01*
X103547000Y-110353000D01*
X103594000Y-110352000D01*
X106094000Y-110352000D01*
X106094000Y-112152000D01*
G36*
X106094000Y-112152000D02*
G01*
X103594000Y-112152000D01*
X103547000Y-112151000D01*
X103500000Y-112147000D01*
X103453000Y-112141000D01*
X103407000Y-112132000D01*
X103361000Y-112121000D01*
X103316000Y-112108000D01*
X103271000Y-112092000D01*
X103228000Y-112074000D01*
X103185000Y-112054000D01*
X103144000Y-112031000D01*
X103104000Y-112007000D01*
X103065000Y-111980000D01*
X103028000Y-111951000D01*
X102992000Y-111921000D01*
X102958000Y-111888000D01*
X102925000Y-111854000D01*
X102895000Y-111818000D01*
X102866000Y-111781000D01*
X102839000Y-111742000D01*
X102815000Y-111702000D01*
X102792000Y-111661000D01*
X102772000Y-111618000D01*
X102754000Y-111575000D01*
X102738000Y-111530000D01*
X102725000Y-111485000D01*
X102714000Y-111439000D01*
X102705000Y-111393000D01*
X102699000Y-111346000D01*
X102695000Y-111299000D01*
X102694000Y-111252000D01*
X102695000Y-111205000D01*
X102699000Y-111158000D01*
X102705000Y-111111000D01*
X102714000Y-111065000D01*
X102725000Y-111019000D01*
X102738000Y-110974000D01*
X102754000Y-110929000D01*
X102772000Y-110886000D01*
X102792000Y-110843000D01*
X102815000Y-110802000D01*
X102839000Y-110762000D01*
X102866000Y-110723000D01*
X102895000Y-110686000D01*
X102925000Y-110650000D01*
X102958000Y-110616000D01*
X102992000Y-110583000D01*
X103028000Y-110553000D01*
X103065000Y-110524000D01*
X103104000Y-110497000D01*
X103144000Y-110473000D01*
X103185000Y-110450000D01*
X103228000Y-110430000D01*
X103271000Y-110412000D01*
X103316000Y-110396000D01*
X103361000Y-110383000D01*
X103407000Y-110372000D01*
X103453000Y-110363000D01*
X103500000Y-110357000D01*
X103547000Y-110353000D01*
X103594000Y-110352000D01*
X106094000Y-110352000D01*
X106094000Y-112152000D01*
G37*
X86445000Y-67174000D02*
X86461000Y-67176000D01*
X86476000Y-67179000D01*
X86492000Y-67182000D01*
X86507000Y-67187000D01*
X86522000Y-67192000D01*
X86536000Y-67198000D01*
X86550000Y-67205000D01*
X86564000Y-67212000D01*
X86577000Y-67220000D01*
X86590000Y-67229000D01*
X86603000Y-67239000D01*
X86615000Y-67249000D01*
X86626000Y-67260000D01*
X86637000Y-67271000D01*
X86647000Y-67283000D01*
X86657000Y-67296000D01*
X86666000Y-67309000D01*
X86674000Y-67322000D01*
X86681000Y-67336000D01*
X86688000Y-67350000D01*
X86694000Y-67364000D01*
X86699000Y-67379000D01*
X86704000Y-67394000D01*
X86707000Y-67410000D01*
X86710000Y-67425000D01*
X86712000Y-67441000D01*
X86714000Y-67456000D01*
X86714000Y-67472000D01*
X86714000Y-68672000D01*
X86714000Y-68688000D01*
X86712000Y-68703000D01*
X86710000Y-68719000D01*
X86707000Y-68734000D01*
X86704000Y-68750000D01*
X86699000Y-68765000D01*
X86694000Y-68780000D01*
X86688000Y-68794000D01*
X86681000Y-68808000D01*
X86674000Y-68822000D01*
X86666000Y-68835000D01*
X86657000Y-68848000D01*
X86647000Y-68861000D01*
X86637000Y-68873000D01*
X86626000Y-68884000D01*
X86615000Y-68895000D01*
X86603000Y-68905000D01*
X86590000Y-68915000D01*
X86577000Y-68924000D01*
X86564000Y-68932000D01*
X86550000Y-68939000D01*
X86536000Y-68946000D01*
X86522000Y-68952000D01*
X86507000Y-68957000D01*
X86492000Y-68962000D01*
X86476000Y-68965000D01*
X86461000Y-68968000D01*
X86445000Y-68970000D01*
X86430000Y-68972000D01*
X86414000Y-68972000D01*
X83314000Y-68972000D01*
X83314000Y-67172000D01*
X86414000Y-67172000D01*
X86430000Y-67172000D01*
X86445000Y-67174000D01*
G36*
X86445000Y-67174000D02*
G01*
X86461000Y-67176000D01*
X86476000Y-67179000D01*
X86492000Y-67182000D01*
X86507000Y-67187000D01*
X86522000Y-67192000D01*
X86536000Y-67198000D01*
X86550000Y-67205000D01*
X86564000Y-67212000D01*
X86577000Y-67220000D01*
X86590000Y-67229000D01*
X86603000Y-67239000D01*
X86615000Y-67249000D01*
X86626000Y-67260000D01*
X86637000Y-67271000D01*
X86647000Y-67283000D01*
X86657000Y-67296000D01*
X86666000Y-67309000D01*
X86674000Y-67322000D01*
X86681000Y-67336000D01*
X86688000Y-67350000D01*
X86694000Y-67364000D01*
X86699000Y-67379000D01*
X86704000Y-67394000D01*
X86707000Y-67410000D01*
X86710000Y-67425000D01*
X86712000Y-67441000D01*
X86714000Y-67456000D01*
X86714000Y-67472000D01*
X86714000Y-68672000D01*
X86714000Y-68688000D01*
X86712000Y-68703000D01*
X86710000Y-68719000D01*
X86707000Y-68734000D01*
X86704000Y-68750000D01*
X86699000Y-68765000D01*
X86694000Y-68780000D01*
X86688000Y-68794000D01*
X86681000Y-68808000D01*
X86674000Y-68822000D01*
X86666000Y-68835000D01*
X86657000Y-68848000D01*
X86647000Y-68861000D01*
X86637000Y-68873000D01*
X86626000Y-68884000D01*
X86615000Y-68895000D01*
X86603000Y-68905000D01*
X86590000Y-68915000D01*
X86577000Y-68924000D01*
X86564000Y-68932000D01*
X86550000Y-68939000D01*
X86536000Y-68946000D01*
X86522000Y-68952000D01*
X86507000Y-68957000D01*
X86492000Y-68962000D01*
X86476000Y-68965000D01*
X86461000Y-68968000D01*
X86445000Y-68970000D01*
X86430000Y-68972000D01*
X86414000Y-68972000D01*
X83314000Y-68972000D01*
X83314000Y-67172000D01*
X86414000Y-67172000D01*
X86430000Y-67172000D01*
X86445000Y-67174000D01*
G37*
X86445000Y-79874000D02*
X86461000Y-79876000D01*
X86476000Y-79879000D01*
X86492000Y-79882000D01*
X86507000Y-79887000D01*
X86522000Y-79892000D01*
X86536000Y-79898000D01*
X86550000Y-79905000D01*
X86564000Y-79912000D01*
X86577000Y-79920000D01*
X86590000Y-79929000D01*
X86603000Y-79939000D01*
X86615000Y-79949000D01*
X86626000Y-79960000D01*
X86637000Y-79971000D01*
X86647000Y-79983000D01*
X86657000Y-79996000D01*
X86666000Y-80009000D01*
X86674000Y-80022000D01*
X86681000Y-80036000D01*
X86688000Y-80050000D01*
X86694000Y-80064000D01*
X86699000Y-80079000D01*
X86704000Y-80094000D01*
X86707000Y-80110000D01*
X86710000Y-80125000D01*
X86712000Y-80141000D01*
X86714000Y-80156000D01*
X86714000Y-80172000D01*
X86714000Y-81372000D01*
X86714000Y-81388000D01*
X86712000Y-81403000D01*
X86710000Y-81419000D01*
X86707000Y-81434000D01*
X86704000Y-81450000D01*
X86699000Y-81465000D01*
X86694000Y-81480000D01*
X86688000Y-81494000D01*
X86681000Y-81508000D01*
X86674000Y-81522000D01*
X86666000Y-81535000D01*
X86657000Y-81548000D01*
X86647000Y-81561000D01*
X86637000Y-81573000D01*
X86626000Y-81584000D01*
X86615000Y-81595000D01*
X86603000Y-81605000D01*
X86590000Y-81615000D01*
X86577000Y-81624000D01*
X86564000Y-81632000D01*
X86550000Y-81639000D01*
X86536000Y-81646000D01*
X86522000Y-81652000D01*
X86507000Y-81657000D01*
X86492000Y-81662000D01*
X86476000Y-81665000D01*
X86461000Y-81668000D01*
X86445000Y-81670000D01*
X86430000Y-81672000D01*
X86414000Y-81672000D01*
X83314000Y-81672000D01*
X83314000Y-79872000D01*
X86414000Y-79872000D01*
X86430000Y-79872000D01*
X86445000Y-79874000D01*
G36*
X86445000Y-79874000D02*
G01*
X86461000Y-79876000D01*
X86476000Y-79879000D01*
X86492000Y-79882000D01*
X86507000Y-79887000D01*
X86522000Y-79892000D01*
X86536000Y-79898000D01*
X86550000Y-79905000D01*
X86564000Y-79912000D01*
X86577000Y-79920000D01*
X86590000Y-79929000D01*
X86603000Y-79939000D01*
X86615000Y-79949000D01*
X86626000Y-79960000D01*
X86637000Y-79971000D01*
X86647000Y-79983000D01*
X86657000Y-79996000D01*
X86666000Y-80009000D01*
X86674000Y-80022000D01*
X86681000Y-80036000D01*
X86688000Y-80050000D01*
X86694000Y-80064000D01*
X86699000Y-80079000D01*
X86704000Y-80094000D01*
X86707000Y-80110000D01*
X86710000Y-80125000D01*
X86712000Y-80141000D01*
X86714000Y-80156000D01*
X86714000Y-80172000D01*
X86714000Y-81372000D01*
X86714000Y-81388000D01*
X86712000Y-81403000D01*
X86710000Y-81419000D01*
X86707000Y-81434000D01*
X86704000Y-81450000D01*
X86699000Y-81465000D01*
X86694000Y-81480000D01*
X86688000Y-81494000D01*
X86681000Y-81508000D01*
X86674000Y-81522000D01*
X86666000Y-81535000D01*
X86657000Y-81548000D01*
X86647000Y-81561000D01*
X86637000Y-81573000D01*
X86626000Y-81584000D01*
X86615000Y-81595000D01*
X86603000Y-81605000D01*
X86590000Y-81615000D01*
X86577000Y-81624000D01*
X86564000Y-81632000D01*
X86550000Y-81639000D01*
X86536000Y-81646000D01*
X86522000Y-81652000D01*
X86507000Y-81657000D01*
X86492000Y-81662000D01*
X86476000Y-81665000D01*
X86461000Y-81668000D01*
X86445000Y-81670000D01*
X86430000Y-81672000D01*
X86414000Y-81672000D01*
X83314000Y-81672000D01*
X83314000Y-79872000D01*
X86414000Y-79872000D01*
X86430000Y-79872000D01*
X86445000Y-79874000D01*
G37*
X86445000Y-92574000D02*
X86461000Y-92576000D01*
X86476000Y-92579000D01*
X86492000Y-92582000D01*
X86507000Y-92587000D01*
X86522000Y-92592000D01*
X86536000Y-92598000D01*
X86550000Y-92605000D01*
X86564000Y-92612000D01*
X86577000Y-92620000D01*
X86590000Y-92629000D01*
X86603000Y-92639000D01*
X86615000Y-92649000D01*
X86626000Y-92660000D01*
X86637000Y-92671000D01*
X86647000Y-92683000D01*
X86657000Y-92696000D01*
X86666000Y-92709000D01*
X86674000Y-92722000D01*
X86681000Y-92736000D01*
X86688000Y-92750000D01*
X86694000Y-92764000D01*
X86699000Y-92779000D01*
X86704000Y-92794000D01*
X86707000Y-92810000D01*
X86710000Y-92825000D01*
X86712000Y-92841000D01*
X86714000Y-92856000D01*
X86714000Y-92872000D01*
X86714000Y-94072000D01*
X86714000Y-94088000D01*
X86712000Y-94103000D01*
X86710000Y-94119000D01*
X86707000Y-94134000D01*
X86704000Y-94150000D01*
X86699000Y-94165000D01*
X86694000Y-94180000D01*
X86688000Y-94194000D01*
X86681000Y-94208000D01*
X86674000Y-94222000D01*
X86666000Y-94235000D01*
X86657000Y-94248000D01*
X86647000Y-94261000D01*
X86637000Y-94273000D01*
X86626000Y-94284000D01*
X86615000Y-94295000D01*
X86603000Y-94305000D01*
X86590000Y-94315000D01*
X86577000Y-94324000D01*
X86564000Y-94332000D01*
X86550000Y-94339000D01*
X86536000Y-94346000D01*
X86522000Y-94352000D01*
X86507000Y-94357000D01*
X86492000Y-94362000D01*
X86476000Y-94365000D01*
X86461000Y-94368000D01*
X86445000Y-94370000D01*
X86430000Y-94372000D01*
X86414000Y-94372000D01*
X83314000Y-94372000D01*
X83314000Y-92572000D01*
X86414000Y-92572000D01*
X86430000Y-92572000D01*
X86445000Y-92574000D01*
G36*
X86445000Y-92574000D02*
G01*
X86461000Y-92576000D01*
X86476000Y-92579000D01*
X86492000Y-92582000D01*
X86507000Y-92587000D01*
X86522000Y-92592000D01*
X86536000Y-92598000D01*
X86550000Y-92605000D01*
X86564000Y-92612000D01*
X86577000Y-92620000D01*
X86590000Y-92629000D01*
X86603000Y-92639000D01*
X86615000Y-92649000D01*
X86626000Y-92660000D01*
X86637000Y-92671000D01*
X86647000Y-92683000D01*
X86657000Y-92696000D01*
X86666000Y-92709000D01*
X86674000Y-92722000D01*
X86681000Y-92736000D01*
X86688000Y-92750000D01*
X86694000Y-92764000D01*
X86699000Y-92779000D01*
X86704000Y-92794000D01*
X86707000Y-92810000D01*
X86710000Y-92825000D01*
X86712000Y-92841000D01*
X86714000Y-92856000D01*
X86714000Y-92872000D01*
X86714000Y-94072000D01*
X86714000Y-94088000D01*
X86712000Y-94103000D01*
X86710000Y-94119000D01*
X86707000Y-94134000D01*
X86704000Y-94150000D01*
X86699000Y-94165000D01*
X86694000Y-94180000D01*
X86688000Y-94194000D01*
X86681000Y-94208000D01*
X86674000Y-94222000D01*
X86666000Y-94235000D01*
X86657000Y-94248000D01*
X86647000Y-94261000D01*
X86637000Y-94273000D01*
X86626000Y-94284000D01*
X86615000Y-94295000D01*
X86603000Y-94305000D01*
X86590000Y-94315000D01*
X86577000Y-94324000D01*
X86564000Y-94332000D01*
X86550000Y-94339000D01*
X86536000Y-94346000D01*
X86522000Y-94352000D01*
X86507000Y-94357000D01*
X86492000Y-94362000D01*
X86476000Y-94365000D01*
X86461000Y-94368000D01*
X86445000Y-94370000D01*
X86430000Y-94372000D01*
X86414000Y-94372000D01*
X83314000Y-94372000D01*
X83314000Y-92572000D01*
X86414000Y-92572000D01*
X86430000Y-92572000D01*
X86445000Y-92574000D01*
G37*
X86445000Y-105274000D02*
X86461000Y-105276000D01*
X86476000Y-105279000D01*
X86492000Y-105282000D01*
X86507000Y-105287000D01*
X86522000Y-105292000D01*
X86536000Y-105298000D01*
X86550000Y-105305000D01*
X86564000Y-105312000D01*
X86577000Y-105320000D01*
X86590000Y-105329000D01*
X86603000Y-105339000D01*
X86615000Y-105349000D01*
X86626000Y-105360000D01*
X86637000Y-105371000D01*
X86647000Y-105383000D01*
X86657000Y-105396000D01*
X86666000Y-105409000D01*
X86674000Y-105422000D01*
X86681000Y-105436000D01*
X86688000Y-105450000D01*
X86694000Y-105464000D01*
X86699000Y-105479000D01*
X86704000Y-105494000D01*
X86707000Y-105510000D01*
X86710000Y-105525000D01*
X86712000Y-105541000D01*
X86714000Y-105556000D01*
X86714000Y-105572000D01*
X86714000Y-106772000D01*
X86714000Y-106788000D01*
X86712000Y-106803000D01*
X86710000Y-106819000D01*
X86707000Y-106834000D01*
X86704000Y-106850000D01*
X86699000Y-106865000D01*
X86694000Y-106880000D01*
X86688000Y-106894000D01*
X86681000Y-106908000D01*
X86674000Y-106922000D01*
X86666000Y-106935000D01*
X86657000Y-106948000D01*
X86647000Y-106961000D01*
X86637000Y-106973000D01*
X86626000Y-106984000D01*
X86615000Y-106995000D01*
X86603000Y-107005000D01*
X86590000Y-107015000D01*
X86577000Y-107024000D01*
X86564000Y-107032000D01*
X86550000Y-107039000D01*
X86536000Y-107046000D01*
X86522000Y-107052000D01*
X86507000Y-107057000D01*
X86492000Y-107062000D01*
X86476000Y-107065000D01*
X86461000Y-107068000D01*
X86445000Y-107070000D01*
X86430000Y-107072000D01*
X86414000Y-107072000D01*
X83314000Y-107072000D01*
X83314000Y-105272000D01*
X86414000Y-105272000D01*
X86430000Y-105272000D01*
X86445000Y-105274000D01*
G36*
X86445000Y-105274000D02*
G01*
X86461000Y-105276000D01*
X86476000Y-105279000D01*
X86492000Y-105282000D01*
X86507000Y-105287000D01*
X86522000Y-105292000D01*
X86536000Y-105298000D01*
X86550000Y-105305000D01*
X86564000Y-105312000D01*
X86577000Y-105320000D01*
X86590000Y-105329000D01*
X86603000Y-105339000D01*
X86615000Y-105349000D01*
X86626000Y-105360000D01*
X86637000Y-105371000D01*
X86647000Y-105383000D01*
X86657000Y-105396000D01*
X86666000Y-105409000D01*
X86674000Y-105422000D01*
X86681000Y-105436000D01*
X86688000Y-105450000D01*
X86694000Y-105464000D01*
X86699000Y-105479000D01*
X86704000Y-105494000D01*
X86707000Y-105510000D01*
X86710000Y-105525000D01*
X86712000Y-105541000D01*
X86714000Y-105556000D01*
X86714000Y-105572000D01*
X86714000Y-106772000D01*
X86714000Y-106788000D01*
X86712000Y-106803000D01*
X86710000Y-106819000D01*
X86707000Y-106834000D01*
X86704000Y-106850000D01*
X86699000Y-106865000D01*
X86694000Y-106880000D01*
X86688000Y-106894000D01*
X86681000Y-106908000D01*
X86674000Y-106922000D01*
X86666000Y-106935000D01*
X86657000Y-106948000D01*
X86647000Y-106961000D01*
X86637000Y-106973000D01*
X86626000Y-106984000D01*
X86615000Y-106995000D01*
X86603000Y-107005000D01*
X86590000Y-107015000D01*
X86577000Y-107024000D01*
X86564000Y-107032000D01*
X86550000Y-107039000D01*
X86536000Y-107046000D01*
X86522000Y-107052000D01*
X86507000Y-107057000D01*
X86492000Y-107062000D01*
X86476000Y-107065000D01*
X86461000Y-107068000D01*
X86445000Y-107070000D01*
X86430000Y-107072000D01*
X86414000Y-107072000D01*
X83314000Y-107072000D01*
X83314000Y-105272000D01*
X86414000Y-105272000D01*
X86430000Y-105272000D01*
X86445000Y-105274000D01*
G37*
X95335000Y-110124000D02*
X95351000Y-110126000D01*
X95366000Y-110129000D01*
X95382000Y-110132000D01*
X95397000Y-110137000D01*
X95412000Y-110142000D01*
X95426000Y-110148000D01*
X95440000Y-110155000D01*
X95454000Y-110162000D01*
X95467000Y-110170000D01*
X95480000Y-110179000D01*
X95493000Y-110189000D01*
X95505000Y-110199000D01*
X95516000Y-110210000D01*
X95527000Y-110221000D01*
X95537000Y-110233000D01*
X95547000Y-110246000D01*
X95556000Y-110259000D01*
X95564000Y-110272000D01*
X95571000Y-110286000D01*
X95578000Y-110300000D01*
X95584000Y-110314000D01*
X95589000Y-110329000D01*
X95594000Y-110344000D01*
X95597000Y-110360000D01*
X95600000Y-110375000D01*
X95602000Y-110391000D01*
X95604000Y-110406000D01*
X95604000Y-110422000D01*
X95604000Y-113522000D01*
X93804000Y-113522000D01*
X93804000Y-110422000D01*
X93804000Y-110406000D01*
X93806000Y-110391000D01*
X93808000Y-110375000D01*
X93811000Y-110360000D01*
X93814000Y-110344000D01*
X93819000Y-110329000D01*
X93824000Y-110314000D01*
X93830000Y-110300000D01*
X93837000Y-110286000D01*
X93844000Y-110272000D01*
X93852000Y-110259000D01*
X93861000Y-110246000D01*
X93871000Y-110233000D01*
X93881000Y-110221000D01*
X93892000Y-110210000D01*
X93903000Y-110199000D01*
X93915000Y-110189000D01*
X93928000Y-110179000D01*
X93941000Y-110170000D01*
X93954000Y-110162000D01*
X93968000Y-110155000D01*
X93982000Y-110148000D01*
X93996000Y-110142000D01*
X94011000Y-110137000D01*
X94026000Y-110132000D01*
X94042000Y-110129000D01*
X94057000Y-110126000D01*
X94073000Y-110124000D01*
X94088000Y-110122000D01*
X94104000Y-110122000D01*
X95304000Y-110122000D01*
X95320000Y-110122000D01*
X95335000Y-110124000D01*
G36*
X95335000Y-110124000D02*
G01*
X95351000Y-110126000D01*
X95366000Y-110129000D01*
X95382000Y-110132000D01*
X95397000Y-110137000D01*
X95412000Y-110142000D01*
X95426000Y-110148000D01*
X95440000Y-110155000D01*
X95454000Y-110162000D01*
X95467000Y-110170000D01*
X95480000Y-110179000D01*
X95493000Y-110189000D01*
X95505000Y-110199000D01*
X95516000Y-110210000D01*
X95527000Y-110221000D01*
X95537000Y-110233000D01*
X95547000Y-110246000D01*
X95556000Y-110259000D01*
X95564000Y-110272000D01*
X95571000Y-110286000D01*
X95578000Y-110300000D01*
X95584000Y-110314000D01*
X95589000Y-110329000D01*
X95594000Y-110344000D01*
X95597000Y-110360000D01*
X95600000Y-110375000D01*
X95602000Y-110391000D01*
X95604000Y-110406000D01*
X95604000Y-110422000D01*
X95604000Y-113522000D01*
X93804000Y-113522000D01*
X93804000Y-110422000D01*
X93804000Y-110406000D01*
X93806000Y-110391000D01*
X93808000Y-110375000D01*
X93811000Y-110360000D01*
X93814000Y-110344000D01*
X93819000Y-110329000D01*
X93824000Y-110314000D01*
X93830000Y-110300000D01*
X93837000Y-110286000D01*
X93844000Y-110272000D01*
X93852000Y-110259000D01*
X93861000Y-110246000D01*
X93871000Y-110233000D01*
X93881000Y-110221000D01*
X93892000Y-110210000D01*
X93903000Y-110199000D01*
X93915000Y-110189000D01*
X93928000Y-110179000D01*
X93941000Y-110170000D01*
X93954000Y-110162000D01*
X93968000Y-110155000D01*
X93982000Y-110148000D01*
X93996000Y-110142000D01*
X94011000Y-110137000D01*
X94026000Y-110132000D01*
X94042000Y-110129000D01*
X94057000Y-110126000D01*
X94073000Y-110124000D01*
X94088000Y-110122000D01*
X94104000Y-110122000D01*
X95304000Y-110122000D01*
X95320000Y-110122000D01*
X95335000Y-110124000D01*
G37*
X106094000Y-68972000D02*
X102994000Y-68972000D01*
X102978000Y-68972000D01*
X102963000Y-68970000D01*
X102947000Y-68968000D01*
X102932000Y-68965000D01*
X102916000Y-68962000D01*
X102901000Y-68957000D01*
X102886000Y-68952000D01*
X102872000Y-68946000D01*
X102858000Y-68939000D01*
X102844000Y-68932000D01*
X102831000Y-68924000D01*
X102818000Y-68915000D01*
X102805000Y-68905000D01*
X102793000Y-68895000D01*
X102782000Y-68884000D01*
X102771000Y-68873000D01*
X102761000Y-68861000D01*
X102751000Y-68848000D01*
X102742000Y-68835000D01*
X102734000Y-68822000D01*
X102727000Y-68808000D01*
X102720000Y-68794000D01*
X102714000Y-68780000D01*
X102709000Y-68765000D01*
X102704000Y-68750000D01*
X102701000Y-68734000D01*
X102698000Y-68719000D01*
X102696000Y-68703000D01*
X102694000Y-68688000D01*
X102694000Y-68672000D01*
X102694000Y-67472000D01*
X102694000Y-67456000D01*
X102696000Y-67441000D01*
X102698000Y-67425000D01*
X102701000Y-67410000D01*
X102704000Y-67394000D01*
X102709000Y-67379000D01*
X102714000Y-67364000D01*
X102720000Y-67350000D01*
X102727000Y-67336000D01*
X102734000Y-67322000D01*
X102742000Y-67309000D01*
X102751000Y-67296000D01*
X102761000Y-67283000D01*
X102771000Y-67271000D01*
X102782000Y-67260000D01*
X102793000Y-67249000D01*
X102805000Y-67239000D01*
X102818000Y-67229000D01*
X102831000Y-67220000D01*
X102844000Y-67212000D01*
X102858000Y-67205000D01*
X102872000Y-67198000D01*
X102886000Y-67192000D01*
X102901000Y-67187000D01*
X102916000Y-67182000D01*
X102932000Y-67179000D01*
X102947000Y-67176000D01*
X102963000Y-67174000D01*
X102978000Y-67172000D01*
X102994000Y-67172000D01*
X106094000Y-67172000D01*
X106094000Y-68972000D01*
G36*
X106094000Y-68972000D02*
G01*
X102994000Y-68972000D01*
X102978000Y-68972000D01*
X102963000Y-68970000D01*
X102947000Y-68968000D01*
X102932000Y-68965000D01*
X102916000Y-68962000D01*
X102901000Y-68957000D01*
X102886000Y-68952000D01*
X102872000Y-68946000D01*
X102858000Y-68939000D01*
X102844000Y-68932000D01*
X102831000Y-68924000D01*
X102818000Y-68915000D01*
X102805000Y-68905000D01*
X102793000Y-68895000D01*
X102782000Y-68884000D01*
X102771000Y-68873000D01*
X102761000Y-68861000D01*
X102751000Y-68848000D01*
X102742000Y-68835000D01*
X102734000Y-68822000D01*
X102727000Y-68808000D01*
X102720000Y-68794000D01*
X102714000Y-68780000D01*
X102709000Y-68765000D01*
X102704000Y-68750000D01*
X102701000Y-68734000D01*
X102698000Y-68719000D01*
X102696000Y-68703000D01*
X102694000Y-68688000D01*
X102694000Y-68672000D01*
X102694000Y-67472000D01*
X102694000Y-67456000D01*
X102696000Y-67441000D01*
X102698000Y-67425000D01*
X102701000Y-67410000D01*
X102704000Y-67394000D01*
X102709000Y-67379000D01*
X102714000Y-67364000D01*
X102720000Y-67350000D01*
X102727000Y-67336000D01*
X102734000Y-67322000D01*
X102742000Y-67309000D01*
X102751000Y-67296000D01*
X102761000Y-67283000D01*
X102771000Y-67271000D01*
X102782000Y-67260000D01*
X102793000Y-67249000D01*
X102805000Y-67239000D01*
X102818000Y-67229000D01*
X102831000Y-67220000D01*
X102844000Y-67212000D01*
X102858000Y-67205000D01*
X102872000Y-67198000D01*
X102886000Y-67192000D01*
X102901000Y-67187000D01*
X102916000Y-67182000D01*
X102932000Y-67179000D01*
X102947000Y-67176000D01*
X102963000Y-67174000D01*
X102978000Y-67172000D01*
X102994000Y-67172000D01*
X106094000Y-67172000D01*
X106094000Y-68972000D01*
G37*
X106094000Y-81672000D02*
X102994000Y-81672000D01*
X102978000Y-81672000D01*
X102963000Y-81670000D01*
X102947000Y-81668000D01*
X102932000Y-81665000D01*
X102916000Y-81662000D01*
X102901000Y-81657000D01*
X102886000Y-81652000D01*
X102872000Y-81646000D01*
X102858000Y-81639000D01*
X102844000Y-81632000D01*
X102831000Y-81624000D01*
X102818000Y-81615000D01*
X102805000Y-81605000D01*
X102793000Y-81595000D01*
X102782000Y-81584000D01*
X102771000Y-81573000D01*
X102761000Y-81561000D01*
X102751000Y-81548000D01*
X102742000Y-81535000D01*
X102734000Y-81522000D01*
X102727000Y-81508000D01*
X102720000Y-81494000D01*
X102714000Y-81480000D01*
X102709000Y-81465000D01*
X102704000Y-81450000D01*
X102701000Y-81434000D01*
X102698000Y-81419000D01*
X102696000Y-81403000D01*
X102694000Y-81388000D01*
X102694000Y-81372000D01*
X102694000Y-80172000D01*
X102694000Y-80156000D01*
X102696000Y-80141000D01*
X102698000Y-80125000D01*
X102701000Y-80110000D01*
X102704000Y-80094000D01*
X102709000Y-80079000D01*
X102714000Y-80064000D01*
X102720000Y-80050000D01*
X102727000Y-80036000D01*
X102734000Y-80022000D01*
X102742000Y-80009000D01*
X102751000Y-79996000D01*
X102761000Y-79983000D01*
X102771000Y-79971000D01*
X102782000Y-79960000D01*
X102793000Y-79949000D01*
X102805000Y-79939000D01*
X102818000Y-79929000D01*
X102831000Y-79920000D01*
X102844000Y-79912000D01*
X102858000Y-79905000D01*
X102872000Y-79898000D01*
X102886000Y-79892000D01*
X102901000Y-79887000D01*
X102916000Y-79882000D01*
X102932000Y-79879000D01*
X102947000Y-79876000D01*
X102963000Y-79874000D01*
X102978000Y-79872000D01*
X102994000Y-79872000D01*
X106094000Y-79872000D01*
X106094000Y-81672000D01*
G36*
X106094000Y-81672000D02*
G01*
X102994000Y-81672000D01*
X102978000Y-81672000D01*
X102963000Y-81670000D01*
X102947000Y-81668000D01*
X102932000Y-81665000D01*
X102916000Y-81662000D01*
X102901000Y-81657000D01*
X102886000Y-81652000D01*
X102872000Y-81646000D01*
X102858000Y-81639000D01*
X102844000Y-81632000D01*
X102831000Y-81624000D01*
X102818000Y-81615000D01*
X102805000Y-81605000D01*
X102793000Y-81595000D01*
X102782000Y-81584000D01*
X102771000Y-81573000D01*
X102761000Y-81561000D01*
X102751000Y-81548000D01*
X102742000Y-81535000D01*
X102734000Y-81522000D01*
X102727000Y-81508000D01*
X102720000Y-81494000D01*
X102714000Y-81480000D01*
X102709000Y-81465000D01*
X102704000Y-81450000D01*
X102701000Y-81434000D01*
X102698000Y-81419000D01*
X102696000Y-81403000D01*
X102694000Y-81388000D01*
X102694000Y-81372000D01*
X102694000Y-80172000D01*
X102694000Y-80156000D01*
X102696000Y-80141000D01*
X102698000Y-80125000D01*
X102701000Y-80110000D01*
X102704000Y-80094000D01*
X102709000Y-80079000D01*
X102714000Y-80064000D01*
X102720000Y-80050000D01*
X102727000Y-80036000D01*
X102734000Y-80022000D01*
X102742000Y-80009000D01*
X102751000Y-79996000D01*
X102761000Y-79983000D01*
X102771000Y-79971000D01*
X102782000Y-79960000D01*
X102793000Y-79949000D01*
X102805000Y-79939000D01*
X102818000Y-79929000D01*
X102831000Y-79920000D01*
X102844000Y-79912000D01*
X102858000Y-79905000D01*
X102872000Y-79898000D01*
X102886000Y-79892000D01*
X102901000Y-79887000D01*
X102916000Y-79882000D01*
X102932000Y-79879000D01*
X102947000Y-79876000D01*
X102963000Y-79874000D01*
X102978000Y-79872000D01*
X102994000Y-79872000D01*
X106094000Y-79872000D01*
X106094000Y-81672000D01*
G37*
X106094000Y-94372000D02*
X102994000Y-94372000D01*
X102978000Y-94372000D01*
X102963000Y-94370000D01*
X102947000Y-94368000D01*
X102932000Y-94365000D01*
X102916000Y-94362000D01*
X102901000Y-94357000D01*
X102886000Y-94352000D01*
X102872000Y-94346000D01*
X102858000Y-94339000D01*
X102844000Y-94332000D01*
X102831000Y-94324000D01*
X102818000Y-94315000D01*
X102805000Y-94305000D01*
X102793000Y-94295000D01*
X102782000Y-94284000D01*
X102771000Y-94273000D01*
X102761000Y-94261000D01*
X102751000Y-94248000D01*
X102742000Y-94235000D01*
X102734000Y-94222000D01*
X102727000Y-94208000D01*
X102720000Y-94194000D01*
X102714000Y-94180000D01*
X102709000Y-94165000D01*
X102704000Y-94150000D01*
X102701000Y-94134000D01*
X102698000Y-94119000D01*
X102696000Y-94103000D01*
X102694000Y-94088000D01*
X102694000Y-94072000D01*
X102694000Y-92872000D01*
X102694000Y-92856000D01*
X102696000Y-92841000D01*
X102698000Y-92825000D01*
X102701000Y-92810000D01*
X102704000Y-92794000D01*
X102709000Y-92779000D01*
X102714000Y-92764000D01*
X102720000Y-92750000D01*
X102727000Y-92736000D01*
X102734000Y-92722000D01*
X102742000Y-92709000D01*
X102751000Y-92696000D01*
X102761000Y-92683000D01*
X102771000Y-92671000D01*
X102782000Y-92660000D01*
X102793000Y-92649000D01*
X102805000Y-92639000D01*
X102818000Y-92629000D01*
X102831000Y-92620000D01*
X102844000Y-92612000D01*
X102858000Y-92605000D01*
X102872000Y-92598000D01*
X102886000Y-92592000D01*
X102901000Y-92587000D01*
X102916000Y-92582000D01*
X102932000Y-92579000D01*
X102947000Y-92576000D01*
X102963000Y-92574000D01*
X102978000Y-92572000D01*
X102994000Y-92572000D01*
X106094000Y-92572000D01*
X106094000Y-94372000D01*
G36*
X106094000Y-94372000D02*
G01*
X102994000Y-94372000D01*
X102978000Y-94372000D01*
X102963000Y-94370000D01*
X102947000Y-94368000D01*
X102932000Y-94365000D01*
X102916000Y-94362000D01*
X102901000Y-94357000D01*
X102886000Y-94352000D01*
X102872000Y-94346000D01*
X102858000Y-94339000D01*
X102844000Y-94332000D01*
X102831000Y-94324000D01*
X102818000Y-94315000D01*
X102805000Y-94305000D01*
X102793000Y-94295000D01*
X102782000Y-94284000D01*
X102771000Y-94273000D01*
X102761000Y-94261000D01*
X102751000Y-94248000D01*
X102742000Y-94235000D01*
X102734000Y-94222000D01*
X102727000Y-94208000D01*
X102720000Y-94194000D01*
X102714000Y-94180000D01*
X102709000Y-94165000D01*
X102704000Y-94150000D01*
X102701000Y-94134000D01*
X102698000Y-94119000D01*
X102696000Y-94103000D01*
X102694000Y-94088000D01*
X102694000Y-94072000D01*
X102694000Y-92872000D01*
X102694000Y-92856000D01*
X102696000Y-92841000D01*
X102698000Y-92825000D01*
X102701000Y-92810000D01*
X102704000Y-92794000D01*
X102709000Y-92779000D01*
X102714000Y-92764000D01*
X102720000Y-92750000D01*
X102727000Y-92736000D01*
X102734000Y-92722000D01*
X102742000Y-92709000D01*
X102751000Y-92696000D01*
X102761000Y-92683000D01*
X102771000Y-92671000D01*
X102782000Y-92660000D01*
X102793000Y-92649000D01*
X102805000Y-92639000D01*
X102818000Y-92629000D01*
X102831000Y-92620000D01*
X102844000Y-92612000D01*
X102858000Y-92605000D01*
X102872000Y-92598000D01*
X102886000Y-92592000D01*
X102901000Y-92587000D01*
X102916000Y-92582000D01*
X102932000Y-92579000D01*
X102947000Y-92576000D01*
X102963000Y-92574000D01*
X102978000Y-92572000D01*
X102994000Y-92572000D01*
X106094000Y-92572000D01*
X106094000Y-94372000D01*
G37*
X106094000Y-107072000D02*
X102994000Y-107072000D01*
X102978000Y-107072000D01*
X102963000Y-107070000D01*
X102947000Y-107068000D01*
X102932000Y-107065000D01*
X102916000Y-107062000D01*
X102901000Y-107057000D01*
X102886000Y-107052000D01*
X102872000Y-107046000D01*
X102858000Y-107039000D01*
X102844000Y-107032000D01*
X102831000Y-107024000D01*
X102818000Y-107015000D01*
X102805000Y-107005000D01*
X102793000Y-106995000D01*
X102782000Y-106984000D01*
X102771000Y-106973000D01*
X102761000Y-106961000D01*
X102751000Y-106948000D01*
X102742000Y-106935000D01*
X102734000Y-106922000D01*
X102727000Y-106908000D01*
X102720000Y-106894000D01*
X102714000Y-106880000D01*
X102709000Y-106865000D01*
X102704000Y-106850000D01*
X102701000Y-106834000D01*
X102698000Y-106819000D01*
X102696000Y-106803000D01*
X102694000Y-106788000D01*
X102694000Y-106772000D01*
X102694000Y-105572000D01*
X102694000Y-105556000D01*
X102696000Y-105541000D01*
X102698000Y-105525000D01*
X102701000Y-105510000D01*
X102704000Y-105494000D01*
X102709000Y-105479000D01*
X102714000Y-105464000D01*
X102720000Y-105450000D01*
X102727000Y-105436000D01*
X102734000Y-105422000D01*
X102742000Y-105409000D01*
X102751000Y-105396000D01*
X102761000Y-105383000D01*
X102771000Y-105371000D01*
X102782000Y-105360000D01*
X102793000Y-105349000D01*
X102805000Y-105339000D01*
X102818000Y-105329000D01*
X102831000Y-105320000D01*
X102844000Y-105312000D01*
X102858000Y-105305000D01*
X102872000Y-105298000D01*
X102886000Y-105292000D01*
X102901000Y-105287000D01*
X102916000Y-105282000D01*
X102932000Y-105279000D01*
X102947000Y-105276000D01*
X102963000Y-105274000D01*
X102978000Y-105272000D01*
X102994000Y-105272000D01*
X106094000Y-105272000D01*
X106094000Y-107072000D01*
G36*
X106094000Y-107072000D02*
G01*
X102994000Y-107072000D01*
X102978000Y-107072000D01*
X102963000Y-107070000D01*
X102947000Y-107068000D01*
X102932000Y-107065000D01*
X102916000Y-107062000D01*
X102901000Y-107057000D01*
X102886000Y-107052000D01*
X102872000Y-107046000D01*
X102858000Y-107039000D01*
X102844000Y-107032000D01*
X102831000Y-107024000D01*
X102818000Y-107015000D01*
X102805000Y-107005000D01*
X102793000Y-106995000D01*
X102782000Y-106984000D01*
X102771000Y-106973000D01*
X102761000Y-106961000D01*
X102751000Y-106948000D01*
X102742000Y-106935000D01*
X102734000Y-106922000D01*
X102727000Y-106908000D01*
X102720000Y-106894000D01*
X102714000Y-106880000D01*
X102709000Y-106865000D01*
X102704000Y-106850000D01*
X102701000Y-106834000D01*
X102698000Y-106819000D01*
X102696000Y-106803000D01*
X102694000Y-106788000D01*
X102694000Y-106772000D01*
X102694000Y-105572000D01*
X102694000Y-105556000D01*
X102696000Y-105541000D01*
X102698000Y-105525000D01*
X102701000Y-105510000D01*
X102704000Y-105494000D01*
X102709000Y-105479000D01*
X102714000Y-105464000D01*
X102720000Y-105450000D01*
X102727000Y-105436000D01*
X102734000Y-105422000D01*
X102742000Y-105409000D01*
X102751000Y-105396000D01*
X102761000Y-105383000D01*
X102771000Y-105371000D01*
X102782000Y-105360000D01*
X102793000Y-105349000D01*
X102805000Y-105339000D01*
X102818000Y-105329000D01*
X102831000Y-105320000D01*
X102844000Y-105312000D01*
X102858000Y-105305000D01*
X102872000Y-105298000D01*
X102886000Y-105292000D01*
X102901000Y-105287000D01*
X102916000Y-105282000D01*
X102932000Y-105279000D01*
X102947000Y-105276000D01*
X102963000Y-105274000D01*
X102978000Y-105272000D01*
X102994000Y-105272000D01*
X106094000Y-105272000D01*
X106094000Y-107072000D01*
G37*
%TD*%
D11*
%TO.C,RV1*%
X150242000Y-100076000D03*
X147742000Y-100076000D03*
X145242000Y-100076000D03*
D12*
X152142000Y-107076000D03*
X143342000Y-107076000D03*
%TD*%
D13*
%TO.C,J2*%
X136093800Y-73406000D03*
X138633800Y-73406000D03*
%TD*%
D14*
%TO.C,J4*%
X112097400Y-64770000D03*
D13*
X113367400Y-73406000D03*
X115907400Y-73406000D03*
%TD*%
D15*
%TO.C,J5*%
X148440000Y-87025000D03*
X154440000Y-87025000D03*
D16*
X151440000Y-82325000D03*
%TD*%
D11*
%TO.C,RV3*%
X117522000Y-100076000D03*
X115022000Y-100076000D03*
X112522000Y-100076000D03*
D12*
X119422000Y-107076000D03*
X110622000Y-107076000D03*
%TD*%
D13*
%TO.C,J1*%
X147320000Y-73406000D03*
X149860000Y-73406000D03*
%TD*%
D17*
%TO.C,H4*%
X159258000Y-110744000D03*
%TD*%
D13*
%TO.C,J3*%
X124730600Y-73406000D03*
X127270600Y-73406000D03*
%TD*%
D18*
%TO.C,U4*%
X122428000Y-94488000D03*
D19*
X122428000Y-91948000D03*
X122428000Y-89408000D03*
X122428000Y-86868000D03*
X122428000Y-84328000D03*
X122428000Y-81788000D03*
X122428000Y-79248000D03*
X114808000Y-79248000D03*
X114808000Y-81788000D03*
X114808000Y-84328000D03*
X114808000Y-86868000D03*
X114808000Y-89408000D03*
X114808000Y-91948000D03*
X114808000Y-94488000D03*
%TD*%
D17*
%TO.C,H1*%
X78486000Y-63754000D03*
%TD*%
%TO.C,H2*%
X78740000Y-110744000D03*
%TD*%
D20*
%TO.C,C3*%
X127000000Y-89408000D03*
D21*
X127000000Y-84328000D03*
%TD*%
D22*
%TO.C,U2*%
X91979000Y-63122000D03*
X97429000Y-63122000D03*
D23*
X92279000Y-66152000D03*
X97129000Y-66152000D03*
D24*
X94704000Y-66122000D03*
X95704000Y-62822000D03*
X93704000Y-62822000D03*
X92204000Y-69622000D03*
X92204000Y-72122000D03*
X92204000Y-74622000D03*
%TD*%
D25*
%TO.C,U1*%
X135382000Y-89408000D03*
D26*
X135382000Y-86868000D03*
X135382000Y-84328000D03*
%TD*%
D20*
%TO.C,C1*%
X128524000Y-94742000D03*
D21*
X133604000Y-94742000D03*
%TD*%
D17*
%TO.C,H3*%
X159258000Y-63754000D03*
%TD*%
D11*
%TO.C,RV2*%
X133882000Y-100076000D03*
X131382000Y-100076000D03*
X128882000Y-100076000D03*
D12*
X135782000Y-107076000D03*
X126982000Y-107076000D03*
%TD*%
M02*
