<?xml version="1.0" standalone="no"?>
 <!DOCTYPE svg PUBLIC "-//W3C//DTD SVG 1.1//EN" 
 "http://www.w3.org/Graphics/SVG/1.1/DTD/svg11.dtd"> 
<svg
  xmlns:svg="http://www.w3.org/2000/svg"
  xmlns="http://www.w3.org/2000/svg"
  xmlns:xlink="http://www.w3.org/1999/xlink"
  version="1.1"
  width="297.0022mm" height="210.0072mm" viewBox="0.0000 0.0000 297.0022 210.0072">
<title>SVG Image created as TEE-CAN-SL-F_Silkscreen.svg date 2024/10/12 12:49:48 </title>
  <desc>Image generated by PCBNEW </desc>
<g style="fill:#000000; fill-opacity:1.0000;stroke:#000000; stroke-opacity:1.0000;
stroke-linecap:round; stroke-linejoin:round;"
 transform="translate(0 0) scale(1 1)">
<path style="fill:#000000; fill-opacity:1.0000; stroke:none;fill-rule:evenodd;"
d="M 157.7388,82.2077
156.1979,82.2077
156.1979,82.0410
156.3719,82.0410
157.4351,82.0410
157.4351,81.7831
156.6767,81.7831
156.6767,80.5169
156.3719,80.5169
156.3719,82.0410
156.1979,82.0410
156.1979,79.5210
156.3646,79.5210
156.6694,79.5210
156.6694,78.8645
157.2673,78.8645
157.2673,79.5210
157.5721,79.5210
157.5721,77.9969
157.2673,77.9969
157.2673,78.6066
156.6694,78.6066
156.6694,77.9969
156.3646,77.9969
156.3646,79.5210
156.1979,79.5210
156.1979,77.8303
157.7388,77.8303
Z" /> 
</g>
<g style="fill:none; 
stroke:#000000; stroke-width:0.2286; stroke-opacity:1; 
stroke-linecap:round; stroke-linejoin:round;">
<g transform="rotate(-270.000000 147.9550 87.6300)">
<text x="147.9550" y="87.6300"
textLength="15.2079" font-size="1.6933" lengthAdjust="spacingAndGlyphs"
text-anchor="middle" opacity="0">Spartan Robotics </text>
</g>
<g class="stroked-text"><desc>Spartan Robotics </desc>
<path style="fill:#000000; fill-opacity:1.0000; stroke:none;fill-rule:evenodd;"
d="M 148.5878,80.0906
148.6076,80.3418
148.5437,80.3582
148.4847,80.3851
148.4346,80.4252
148.4271,80.4336
148.3943,80.4871
148.3751,80.5520
148.3694,80.6210
148.3735,80.6863
148.3877,80.7474
148.4180,80.8049
148.4212,80.8090
148.4701,80.8522
148.5299,80.8717
148.5428,80.8722
148.6045,80.8560
148.6188,80.8456
148.6565,80.7936
148.6734,80.7528
148.6924,80.6908
148.7097,80.6275
148.7260,80.5656
148.7311,80.5459
148.7482,80.4841
148.7703,80.4179
148.7939,80.3604
148.8236,80.3043
148.8601,80.2546
148.9091,80.2087
148.9625,80.1741
149.0204,80.1507
149.0827,80.1386
149.1204,80.1368
149.1867,80.1433
149.2500,80.1629
149.3049,80.1920
149.3548,80.2314
149.3966,80.2804
149.4304,80.3389
149.4362,80.3517
149.4579,80.4139
149.4713,80.4749
149.4790,80.5412
149.4811,80.6036
149.4785,80.6759
149.4706,80.7424
149.4573,80.8031
149.4345,80.8682
149.4041,80.9250
149.3729,80.9659
149.3221,81.0137
149.2643,81.0504
149.1997,81.0761
149.1387,81.0893
149.0841,81.0940
149.0841,80.8356
149.1480,80.8179
149.2034,80.7837
149.2209,80.7646
149.2495,80.7064
149.2613,80.6398
149.2628,80.6008
149.2583,80.5354
149.2433,80.4743
149.2175,80.4246
149.1653,80.3869
149.1393,80.3837
149.0799,80.4053
149.0633,80.4222
149.0322,80.4783
149.0106,80.5377
148.9911,80.6039
148.9768,80.6594
148.9595,80.7267
148.9421,80.7871
148.9216,80.8487
148.8980,80.9077
148.8831,80.9383
148.8498,80.9909
148.8053,81.0398
148.7525,81.0794
148.6910,81.1086
148.6271,81.1246
148.5631,81.1304
148.5481,81.1306
148.4804,81.1247
148.4155,81.1068
148.3533,81.0769
148.3412,81.0695
148.2909,81.0311
148.2484,80.9848
148.2137,80.9304
148.1979,80.8967
148.1774,80.8375
148.1628,80.7713
148.1548,80.7079
148.1512,80.6391
148.1510,80.6185
148.1538,80.5454
148.1619,80.4779
148.1755,80.4158
148.1990,80.3486
148.2303,80.2893
148.2624,80.2460
148.3079,80.2009
148.3605,80.1632
148.4203,80.1328
148.4873,80.1098
148.5486,80.0962
Z" /> 
<path style="fill:#000000; fill-opacity:1.0000; stroke:none;fill-rule:evenodd;"
d="M 149.1039,81.5609
148.9678,81.5609
149.0201,81.6021
149.0605,81.6495
149.0807,81.6812
149.1070,81.7405
149.1211,81.8044
149.1238,81.8496
149.1177,81.9179
149.0995,81.9815
149.0690,82.0404
149.0264,82.0946
148.9966,82.1235
148.9455,82.1618
148.8874,82.1921
148.8222,82.2146
148.7500,82.2291
148.6844,82.2351
148.6427,82.2361
148.5723,82.2334
148.5071,82.2250
148.4354,82.2078
148.3711,82.1825
148.3140,82.1492
148.2801,82.1226
148.2362,82.0784
148.1965,82.0226
148.1692,81.9622
148.1542,81.8971
148.1510,81.8478
148.1565,81.7876
148.3297,81.7876
148.3417,81.8523
148.3776,81.9075
148.4023,81.9297
148.4568,81.9596
148.5213,81.9771
148.5910,81.9850
148.6405,81.9864
148.7044,81.9836
148.7680,81.9736
148.8277,81.9535
148.8701,81.9278
148.9158,81.8801
148.9415,81.8196
148.9451,81.7833
148.9348,81.7201
148.9038,81.6656
148.8716,81.6341
148.8127,81.6003
148.7520,81.5831
148.6886,81.5757
148.6536,81.5748
148.5852,81.5778
148.5173,81.5884
148.4538,81.6095
148.4088,81.6365
148.3638,81.6824
148.3360,81.7397
148.3297,81.7876
148.1565,81.7876
148.1569,81.7834
148.1760,81.7204
148.1814,81.7085
148.2166,81.6527
148.2600,81.6029
148.2863,81.5773
147.8136,81.5773
147.8136,81.3322
149.1039,81.3322
Z" /> 
<path style="fill:#000000; fill-opacity:1.0000; stroke:none;fill-rule:evenodd;"
d="M 148.4912,82.3664
148.5514,82.3869
148.5714,82.3977
148.6205,82.4363
148.6584,82.4865
148.6672,82.5029
148.6909,82.5620
148.7089,82.6242
148.7236,82.6901
148.7252,82.6980
148.7394,82.7681
148.7550,82.8359
148.7719,82.8964
148.7863,82.9362
148.8114,82.9362
148.8733,82.9275
148.9144,82.9012
148.9393,82.8425
148.9451,82.7756
148.9451,82.7697
148.9368,82.7051
148.9188,82.6673
148.8702,82.6270
148.8260,82.6080
148.8657,82.3856
148.9272,82.4078
148.9862,82.4408
149.0344,82.4823
149.0605,82.5147
149.0911,82.5733
149.1099,82.6373
149.1198,82.7023
149.1236,82.7648
149.1238,82.7870
149.1219,82.8548
149.1152,82.9224
149.1018,82.9859
149.0847,83.0311
149.0524,83.0847
149.0073,83.1302
148.9855,83.1441
148.9264,83.1641
148.8635,83.1730
148.7942,83.1766
148.7649,83.1769
148.4771,83.1741
148.4131,83.1751
148.3487,83.1787
148.2959,83.1859
148.2355,83.2028
148.1751,83.2280
148.1709,83.2300
148.1709,82.9877
148.2315,82.9684
148.2466,82.9641
148.2767,82.9555
148.2339,82.9070
148.1976,82.8518
148.1824,82.8208
148.1621,82.7612
148.1590,82.7417
148.3297,82.7417
148.3400,82.8066
148.3684,82.8645
148.3710,82.8683
148.4159,82.9119
148.4479,82.9266
148.5102,82.9351
148.5614,82.9362
148.6076,82.9362
148.5913,82.8754
148.5771,82.8117
148.5720,82.7870
148.5580,82.7252
148.5379,82.6652
148.5316,82.6536
148.4845,82.6123
148.4498,82.6056
148.3887,82.6237
148.3651,82.6440
148.3347,82.7002
148.3297,82.7417
148.1590,82.7417
148.1521,82.6984
148.1510,82.6682
148.1560,82.6005
148.1733,82.5334
148.2031,82.4758
148.2298,82.4427
148.2775,82.4028
148.3382,82.3738
148.3998,82.3615
148.4293,82.3602
Z" /> 
<path style="fill:#000000; fill-opacity:1.0000; stroke:none;fill-rule:evenodd;"
d="M 148.1709,83.6484
148.1709,83.4034
149.1039,83.4034
149.1039,83.6311
148.9721,83.6311
149.0242,83.6663
149.0732,83.7088
149.0946,83.7359
149.1190,83.7960
149.1238,83.8423
149.1167,83.9042
149.0955,83.9644
149.0735,84.0036
148.8452,83.9276
148.8742,83.8714
148.8856,83.8125
148.8736,83.7516
148.8577,83.7250
148.8052,83.6864
148.7568,83.6689
148.6881,83.6572
148.6246,83.6523
148.5581,83.6497
148.4941,83.6486
148.4519,83.6484
Z" /> 
<path style="fill:#000000; fill-opacity:1.0000; stroke:none;fill-rule:evenodd;"
d="M 149.1039,84.5297
148.9253,84.5297
148.9253,84.3622
148.5202,84.3622
148.4532,84.3626
148.3904,84.3650
148.3766,84.3668
148.3427,84.3888
148.3297,84.4301
148.3409,84.4914
148.3533,84.5287
148.1833,84.5498
148.1649,84.4883
148.1542,84.4216
148.1510,84.3563
148.1568,84.2931
148.1740,84.2365
148.2079,84.1811
148.2332,84.1584
148.2920,84.1323
148.3316,84.1239
148.3980,84.1181
148.4623,84.1165
148.5093,84.1162
148.9253,84.1162
148.9253,84.0036
149.1039,84.0036
149.1039,84.1162
149.2826,84.1162
149.4216,84.3622
149.1039,84.3622
Z" /> 
<path style="fill:#000000; fill-opacity:1.0000; stroke:none;fill-rule:evenodd;"
d="M 148.4912,84.6382
148.5514,84.6587
148.5714,84.6696
148.6205,84.7082
148.6584,84.7583
148.6672,84.7747
148.6909,84.8338
148.7089,84.8960
148.7236,84.9619
148.7252,84.9698
148.7394,85.0400
148.7550,85.1078
148.7719,85.1683
148.7863,85.2080
148.8114,85.2080
148.8733,85.1993
148.9144,85.1730
148.9393,85.1143
148.9451,85.0475
148.9451,85.0415
148.9368,84.9769
148.9188,84.9391
148.8702,84.8988
148.8260,84.8799
148.8657,84.6575
148.9272,84.6796
148.9862,84.7126
149.0344,84.7541
149.0605,84.7865
149.0911,84.8452
149.1099,84.9091
149.1198,84.9741
149.1236,85.0366
149.1238,85.0588
149.1219,85.1266
149.1152,85.1942
149.1018,85.2577
149.0847,85.3030
149.0524,85.3565
149.0073,85.4020
148.9855,85.4159
148.9264,85.4359
148.8635,85.4449
148.7942,85.4485
148.7649,85.4488
148.4771,85.4460
148.4131,85.4469
148.3487,85.4506
148.2959,85.4578
148.2355,85.4747
148.1751,85.4998
148.1709,85.5018
148.1709,85.2595
148.2315,85.2402
148.2466,85.2360
148.2767,85.2273
148.2339,85.1788
148.1976,85.1236
148.1824,85.0927
148.1621,85.0331
148.1590,85.0136
148.3297,85.0136
148.3400,85.0784
148.3684,85.1364
148.3710,85.1401
148.4159,85.1837
148.4479,85.1984
148.5102,85.2069
148.5614,85.2080
148.6076,85.2080
148.5913,85.1472
148.5771,85.0835
148.5720,85.0588
148.5580,84.9970
148.5379,84.9370
148.5316,84.9255
148.4845,84.8841
148.4498,84.8774
148.3887,84.8956
148.3651,84.9159
148.3347,84.9720
148.3297,85.0136
148.1590,85.0136
148.1521,84.9702
148.1510,84.9400
148.1560,84.8723
148.1733,84.8052
148.2031,84.7476
148.2298,84.7145
148.2775,84.6747
148.3382,84.6456
148.3998,84.6333
148.4293,84.6320
Z" /> 
<path style="fill:#000000; fill-opacity:1.0000; stroke:none;fill-rule:evenodd;"
d="M 148.1709,86.5282
148.1709,86.2832
148.6526,86.2832
148.7223,86.2822
148.7846,86.2787
148.8476,86.2683
148.8505,86.2673
148.9048,86.2348
148.9203,86.2165
148.9432,86.1583
148.9451,86.1315
148.9351,86.0674
148.9095,86.0170
148.8652,85.9722
148.8152,85.9475
148.7511,85.9355
148.6875,85.9307
148.6177,85.9290
148.5983,85.9289
148.1709,85.9289
148.1709,85.6839
149.1039,85.6839
149.1039,85.9116
148.9678,85.9116
149.0208,85.9592
149.0629,86.0113
149.0939,86.0678
149.1140,86.1287
149.1232,86.1940
149.1238,86.2168
149.1189,86.2805
149.1028,86.3438
149.0943,86.3651
149.0632,86.4209
149.0193,86.4668
148.9640,86.4989
148.9157,86.5146
148.8505,86.5244
148.7825,86.5279
148.7500,86.5282
Z" /> 
<path style="fill:#000000; fill-opacity:1.0000; stroke:none;fill-rule:evenodd;"
d="M 149.4613,87.8111
149.4601,87.8841
149.4564,87.9491
149.4490,88.0150
149.4366,88.0772
149.4265,88.1089
149.3962,88.1685
149.3531,88.2193
149.3028,88.2578
149.2446,88.2873
149.1814,88.3058
149.1132,88.3134
149.0990,88.3137
149.0294,88.3084
148.9662,88.2925
148.9094,88.2660
148.8589,88.2290
148.8160,88.1815
148.7817,88.1236
148.7590,88.0643
148.7428,87.9969
148.7395,87.9762
148.7044,88.0303
148.6636,88.0813
148.6312,88.1142
148.5801,88.1562
148.5292,88.1924
148.4753,88.2279
148.4222,88.2612
148.1709,88.4176
148.1709,88.1086
148.4547,87.9219
148.5060,87.8868
148.5625,87.8468
148.6140,87.8080
148.6399,87.7857
148.6800,87.7358
148.6887,87.7169
148.9253,87.7169
148.9258,87.7816
148.9278,87.8448
148.9331,87.9118
148.9405,87.9489
148.9722,88.0029
148.9935,88.0211
149.0541,88.0449
149.0875,88.0475
149.1509,88.0366
149.1896,88.0131
149.2255,87.9621
149.2386,87.9157
149.2418,87.8529
149.2427,87.7901
149.2429,87.7274
149.2429,87.5258
148.9253,87.5258
148.9253,87.7169
148.6887,87.7169
148.6926,87.7082
148.7042,87.6469
148.7069,87.5837
148.7069,87.5782
148.7069,87.5258
148.1709,87.5258
148.1709,87.2677
149.4613,87.2677
Z" /> 
<path style="fill:#000000; fill-opacity:1.0000; stroke:none;fill-rule:evenodd;"
d="M 148.7189,88.4962
148.7861,88.5104
148.8447,88.5311
148.8881,88.5516
148.9420,88.5848
148.9947,88.6297
149.0387,88.6825
149.0633,88.7222
149.0898,88.7790
149.1087,88.8390
149.1200,88.9021
149.1238,88.9685
149.1205,89.0323
149.1076,89.1041
149.0851,89.1705
149.0530,89.2315
149.0112,89.2872
148.9867,89.3131
148.9327,89.3587
148.8737,89.3949
148.8095,89.4217
148.7402,89.4390
148.6786,89.4462
148.6399,89.4474
148.5757,89.4441
148.5034,89.4313
148.4361,89.4090
148.3739,89.3772
148.3167,89.3358
148.2900,89.3115
148.2428,89.2582
148.2053,89.2000
148.1776,89.1369
148.1597,89.0688
148.1516,88.9958
148.1510,88.9703
148.1511,88.9694
148.3297,88.9694
148.3391,89.0316
148.3706,89.0912
148.4088,89.1301
148.4654,89.1644
148.5284,89.1845
148.5938,89.1936
148.6393,89.1952
148.7087,89.1911
148.7696,89.1789
148.8279,89.1555
148.8657,89.1301
148.9109,89.0818
148.9388,89.0209
148.9451,88.9694
148.9357,88.9071
148.9041,88.8473
148.8657,88.8081
148.8094,88.7736
148.7471,88.7534
148.6823,88.7442
148.6374,88.7426
148.5672,88.7467
148.5057,88.7590
148.4469,88.7826
148.4088,88.8081
148.3638,88.8567
148.3360,88.9179
148.3297,88.9694
148.1511,88.9694
148.1547,88.9073
148.1655,88.8458
148.1835,88.7857
148.2087,88.7271
148.2411,88.6729
148.2855,88.6201
148.3384,88.5761
148.3784,88.5516
148.4373,88.5252
148.5023,88.5064
148.5641,88.4962
148.6306,88.4916
148.6505,88.4914
Z" /> 
<path style="fill:#000000; fill-opacity:1.0000; stroke:none;fill-rule:evenodd;"
d="M 149.4613,89.8683
148.9948,89.8683
149.0386,89.9124
149.0783,89.9674
149.1057,90.0265
149.1206,90.0895
149.1238,90.1369
149.1179,90.2082
149.1002,90.2739
149.0708,90.3340
149.0295,90.3884
149.0007,90.4170
148.9507,90.4547
148.8932,90.4845
148.8282,90.5066
148.7556,90.5209
148.6893,90.5268
148.6470,90.5278
148.5753,90.5250
148.5088,90.5168
148.4477,90.5030
148.3814,90.4792
148.3228,90.4474
148.2798,90.4149
148.2360,90.3708
148.1964,90.3151
148.1692,90.2548
148.1542,90.1899
148.1510,90.1407
148.1570,90.0811
148.3297,90.0811
148.3417,90.1431
148.3776,90.1972
148.4023,90.2195
148.4623,90.2519
148.5260,90.2685
148.5937,90.2756
148.6315,90.2765
148.6998,90.2738
148.7670,90.2639
148.8288,90.2441
148.8713,90.2188
148.9163,90.1712
148.9416,90.1093
148.9451,90.0715
148.9350,90.0096
148.9012,89.9518
148.8732,89.9248
148.8151,89.8916
148.7544,89.8747
148.6905,89.8674
148.6551,89.8665
148.5929,89.8686
148.5310,89.8764
148.4675,89.8941
148.4321,89.9117
148.3826,89.9510
148.3466,90.0023
148.3301,90.0681
148.3297,90.0811
148.1570,90.0811
148.1575,90.0765
148.1768,90.0131
148.1901,89.9840
148.2249,89.9291
148.2706,89.8802
148.3071,89.8509
148.1709,89.8509
148.1709,89.6233
149.4613,89.6233
Z" /> 
<path style="fill:#000000; fill-opacity:1.0000; stroke:none;fill-rule:evenodd;"
d="M 148.7189,90.6675
148.7861,90.6818
148.8447,90.7024
148.8881,90.7229
148.9420,90.7561
148.9947,90.8010
149.0387,90.8538
149.0633,90.8935
149.0898,90.9503
149.1087,91.0103
149.1200,91.0734
149.1238,91.1398
149.1205,91.2036
149.1076,91.2754
149.0851,91.3418
149.0530,91.4028
149.0112,91.4586
148.9867,91.4844
148.9327,91.5300
148.8737,91.5662
148.8095,91.5930
148.7402,91.6103
148.6786,91.6175
148.6399,91.6187
148.5757,91.6154
148.5034,91.6027
148.4361,91.5804
148.3739,91.5485
148.3167,91.5071
148.2900,91.4829
148.2428,91.4296
148.2053,91.3713
148.1776,91.3082
148.1597,91.2401
148.1516,91.1671
148.1510,91.1416
148.1511,91.1407
148.3297,91.1407
148.3391,91.2029
148.3706,91.2625
148.4088,91.3014
148.4654,91.3357
148.5284,91.3558
148.5938,91.3649
148.6393,91.3665
148.7087,91.3625
148.7696,91.3502
148.8279,91.3268
148.8657,91.3014
148.9109,91.2532
148.9388,91.1922
148.9451,91.1407
148.9357,91.0784
148.9041,91.0186
148.8657,90.9794
148.8094,90.9449
148.7471,90.9248
148.6823,90.9156
148.6374,90.9140
148.5672,90.9181
148.5057,90.9303
148.4469,90.9539
148.4088,90.9794
148.3638,91.0280
148.3360,91.0892
148.3297,91.1407
148.1511,91.1407
148.1547,91.0786
148.1655,91.0171
148.1835,90.9570
148.2087,90.8985
148.2411,90.8442
148.2855,90.7914
148.3384,90.7474
148.3784,90.7229
148.4373,90.6966
148.5023,90.6778
148.5641,90.6675
148.6306,90.6629
148.6505,90.6627
Z" /> 
<path style="fill:#000000; fill-opacity:1.0000; stroke:none;fill-rule:evenodd;"
d="M 149.1039,92.2298
148.9253,92.2298
148.9253,92.0623
148.5202,92.0623
148.4532,92.0627
148.3904,92.0651
148.3766,92.0669
148.3427,92.0890
148.3297,92.1302
148.3409,92.1915
148.3533,92.2289
148.1833,92.2499
148.1649,92.1884
148.1542,92.1217
148.1510,92.0564
148.1568,91.9933
148.1740,91.9367
148.2079,91.8813
148.2332,91.8585
148.2920,91.8325
148.3316,91.8241
148.3980,91.8182
148.4623,91.8166
148.5093,91.8163
148.9253,91.8163
148.9253,91.7037
149.1039,91.7037
149.1039,91.8163
149.2826,91.8163
149.4216,92.0623
149.1039,92.0623
Z" /> 
<path style="fill:#000000; fill-opacity:1.0000; stroke:none;fill-rule:evenodd;"
d="M 149.2429,92.3967
149.4613,92.3967
149.4613,92.6420
149.2429,92.6420
Z" /> 
<path style="fill:#000000; fill-opacity:1.0000; stroke:none;fill-rule:evenodd;"
d="M 148.1709,92.3967
149.1039,92.3967
149.1039,92.6420
148.1709,92.6420
Z" /> 
<path style="fill:#000000; fill-opacity:1.0000; stroke:none;fill-rule:evenodd;"
d="M 148.8459,93.6985
148.8062,93.4569
148.8667,93.4370
148.9101,93.4014
148.9384,93.3447
148.9451,93.2894
148.9356,93.2259
148.9039,93.1689
148.8775,93.1433
148.8203,93.1122
148.7575,93.0964
148.6896,93.0895
148.6514,93.0887
148.5889,93.0906
148.5253,93.0978
148.4646,93.1125
148.4070,93.1405
148.4023,93.1439
148.3581,93.1909
148.3343,93.2485
148.3297,93.2928
148.3397,93.3562
148.3697,93.4069
148.4203,93.4430
148.4791,93.4636
148.5084,93.4699
148.4687,93.7106
148.4036,93.6909
148.3458,93.6646
148.2888,93.6265
148.2414,93.5797
148.2311,93.5667
148.1961,93.5090
148.1736,93.4510
148.1589,93.3861
148.1518,93.3142
148.1510,93.2813
148.1556,93.2080
148.1692,93.1405
148.1918,93.0788
148.2235,93.0228
148.2642,92.9726
148.2798,92.9572
148.3316,92.9162
148.3904,92.8836
148.4562,92.8596
148.5288,92.8441
148.5947,92.8376
148.6365,92.8365
148.7060,92.8395
148.7706,92.8484
148.8414,92.8668
148.9052,92.8938
148.9617,92.9294
148.9954,92.9578
149.0390,93.0063
149.0736,93.0608
149.0992,93.1213
149.1158,93.1879
149.1233,93.2604
149.1238,93.2860
149.1205,93.3566
149.1106,93.4207
149.0913,93.4857
149.0633,93.5422
149.0549,93.5549
149.0107,93.6067
148.9618,93.6452
148.9039,93.6767
Z" /> 
<path style="fill:#000000; fill-opacity:1.0000; stroke:none;fill-rule:evenodd;"
d="M 148.4290,93.7931
148.4687,94.0391
148.4087,94.0629
148.3651,94.1027
148.3386,94.1604
148.3299,94.2267
148.3297,94.2373
148.3346,94.3019
148.3547,94.3642
148.3648,94.3803
148.4202,94.4121
148.4302,94.4126
148.4764,94.3952
148.5030,94.3354
148.5087,94.3130
148.5249,94.2423
148.5407,94.1783
148.5600,94.1079
148.5788,94.0481
148.6041,93.9822
148.6284,93.9371
148.6698,93.8890
148.7251,93.8514
148.7898,93.8311
148.8381,93.8273
148.9031,93.8348
148.9619,93.8573
149.0147,93.8948
149.0413,93.9222
149.0774,93.9763
149.1005,94.0344
149.1157,94.1025
149.1225,94.1689
149.1238,94.2172
149.1215,94.2850
149.1130,94.3555
149.0984,94.4167
149.0739,94.4751
149.0587,94.4997
149.0171,94.5473
148.9656,94.5857
148.9041,94.6150
148.8657,94.6272
148.8260,94.3958
148.8850,94.3687
148.9144,94.3394
148.9393,94.2818
148.9451,94.2215
148.9413,94.1566
148.9245,94.0942
148.9181,94.0828
148.8682,94.0549
148.8238,94.0794
148.7985,94.1396
148.7806,94.2019
148.7629,94.2731
148.7547,94.3084
148.7373,94.3776
148.7185,94.4386
148.6948,94.4992
148.6652,94.5547
148.6455,94.5819
148.5943,94.6256
148.5309,94.6511
148.4625,94.6586
148.3936,94.6501
148.3302,94.6249
148.2787,94.5883
148.2429,94.5522
148.2071,94.5007
148.1801,94.4395
148.1640,94.3793
148.1543,94.3119
148.1510,94.2373
148.1537,94.1690
148.1616,94.1063
148.1774,94.0401
148.2004,93.9816
148.2258,93.9374
148.2665,93.8871
148.3140,93.8463
148.3681,93.8149
Z" /> 
</g><path style="fill:#000000; fill-opacity:1.0000; stroke:none;fill-rule:evenodd;"
d="M 140.9748,97.4477
139.4339,97.4477
139.4339,97.2810
139.6006,97.2810
139.9054,97.2810
139.9054,96.6245
140.5033,96.6245
140.5033,97.2810
140.8081,97.2810
140.8081,95.7569
140.5033,95.7569
140.5033,96.3666
139.9054,96.3666
139.9054,95.7569
139.6006,95.7569
139.6006,97.2810
139.4339,97.2810
139.4339,94.7610
139.6079,94.7610
140.6711,94.7610
140.6711,94.5031
139.9127,94.5031
139.9127,93.2369
139.6079,93.2369
139.6079,94.7610
139.4339,94.7610
139.4339,93.0703
140.9748,93.0703
Z" /> 
<path style="fill:#000000; fill-opacity:1.0000; stroke:none;fill-rule:evenodd;"
d="M 157.7388,97.4477
156.1979,97.4477
156.1979,97.2810
156.3719,97.2810
157.4351,97.2810
157.4351,97.0231
156.6767,97.0231
156.6767,95.7569
156.3719,95.7569
156.3719,97.2810
156.1979,97.2810
156.1979,94.7610
156.3646,94.7610
156.6694,94.7610
156.6694,94.1045
157.2673,94.1045
157.2673,94.7610
157.5721,94.7610
157.5721,93.2369
157.2673,93.2369
157.2673,93.8466
156.6694,93.8466
156.6694,93.2369
156.3646,93.2369
156.3646,94.7610
156.1979,94.7610
156.1979,93.0703
157.7388,93.0703
Z" /> 
</g>
<g style="fill:none; 
stroke:#000000; stroke-width:0.2286; stroke-opacity:1; 
stroke-linecap:round; stroke-linejoin:round;">
<g transform="rotate(-270.000000 156.0830 87.6300)">
<text x="156.0830" y="87.6300"
textLength="10.7586" font-size="1.6933" lengthAdjust="spacingAndGlyphs"
text-anchor="middle" opacity="0">TEE-CAN-SL</text>
</g>
<g class="stroked-text"><desc>TEE-CAN-SL</desc>
<path style="fill:#000000; fill-opacity:1.0000; stroke:none;fill-rule:evenodd;"
d="M 156.2989,82.6685
157.3709,82.6685
157.3709,82.2892
157.5893,82.2892
157.5893,83.3054
157.3709,83.3054
157.3709,82.9269
156.2989,82.9269
Z" /> 
<path style="fill:#000000; fill-opacity:1.0000; stroke:none;fill-rule:evenodd;"
d="M 156.2989,83.4663
157.5893,83.4663
157.5893,84.4146
157.3709,84.4146
157.3709,83.7247
157.0930,83.7247
157.0930,84.3668
156.8746,84.3668
156.8746,83.7247
156.5173,83.7247
156.5173,84.4391
156.2989,84.4391
Z" /> 
<path style="fill:#000000; fill-opacity:1.0000; stroke:none;fill-rule:evenodd;"
d="M 156.2989,84.6513
157.5893,84.6513
157.5893,85.5995
157.3709,85.5995
157.3709,84.9096
157.0930,84.9096
157.0930,85.5517
156.8746,85.5517
156.8746,84.9096
156.5173,84.9096
156.5173,85.6240
156.2989,85.6240
Z" /> 
<path style="fill:#000000; fill-opacity:1.0000; stroke:none;fill-rule:evenodd;"
d="M 156.6364,85.8067
156.8548,85.8067
156.8548,86.2881
156.6364,86.2881
Z" /> 
<path style="fill:#000000; fill-opacity:1.0000; stroke:none;fill-rule:evenodd;"
d="M 156.7952,87.2463
156.7158,87.4966
156.6523,87.4767
156.5942,87.4531
156.5315,87.4198
156.4764,87.3812
156.4289,87.3372
156.4016,87.3049
156.3667,87.2522
156.3390,87.1945
156.3186,87.1317
156.3053,87.0637
156.2993,86.9907
156.2989,86.9653
156.3016,86.9030
156.3125,86.8292
156.3319,86.7598
156.3597,86.6948
156.3959,86.6342
156.4405,86.5781
156.4714,86.5465
156.5283,86.4993
156.5915,86.4601
156.6609,86.4290
156.7208,86.4098
156.7847,86.3957
156.8525,86.3867
156.9243,86.3829
156.9429,86.3827
157.0197,86.3853
157.0922,86.3930
157.1603,86.4059
157.2239,86.4239
157.2831,86.4471
157.3509,86.4833
157.4118,86.5275
157.4342,86.5474
157.4846,86.6015
157.5264,86.6607
157.5598,86.7249
157.5845,86.7942
157.6008,86.8685
157.6076,86.9316
157.6091,86.9811
157.6055,87.0523
157.5948,87.1192
157.5768,87.1818
157.5517,87.2401
157.5194,87.2940
157.4799,87.3437
157.4621,87.3623
157.4138,87.4032
157.3560,87.4386
157.2977,87.4652
157.2322,87.4876
157.2121,87.4932
157.1724,87.2376
157.2369,87.2162
157.2913,87.1832
157.3321,87.1430
157.3655,87.0899
157.3850,87.0294
157.3908,86.9681
157.3844,86.9004
157.3655,86.8393
157.3339,86.7850
157.2896,86.7373
157.2312,86.6986
157.1672,86.6738
157.1028,86.6593
157.0296,86.6510
156.9618,86.6489
156.8900,86.6510
156.8250,86.6574
156.7560,86.6707
156.6966,86.6901
156.6397,86.7205
156.6193,86.7360
156.5747,86.7829
156.5428,86.8363
156.5237,86.8963
156.5173,86.9628
156.5252,87.0302
156.5489,87.0908
156.5843,87.1399
156.6337,87.1821
156.6910,87.2132
156.7521,87.2352
Z" /> 
<path style="fill:#000000; fill-opacity:1.0000; stroke:none;fill-rule:evenodd;"
d="M 157.5893,88.0792
157.5893,88.3521
156.2989,88.8642
156.2989,88.5835
156.5967,88.4719
156.5967,88.3887
156.8151,88.3887
157.2716,88.2125
156.8151,88.0398
156.8151,88.3887
156.5967,88.3887
156.5967,87.9604
156.2989,87.8549
156.2989,87.5810
Z" /> 
<path style="fill:#000000; fill-opacity:1.0000; stroke:none;fill-rule:evenodd;"
d="M 156.2989,88.9967
157.5893,88.9967
157.5893,89.2479
156.7173,89.7712
157.5893,89.7712
157.5893,90.0110
156.2989,90.0110
156.2989,89.7520
157.1578,89.2365
156.2989,89.2365
Z" /> 
<path style="fill:#000000; fill-opacity:1.0000; stroke:none;fill-rule:evenodd;"
d="M 156.6364,90.2474
156.8548,90.2474
156.8548,90.7288
156.6364,90.7288
Z" /> 
<path style="fill:#000000; fill-opacity:1.0000; stroke:none;fill-rule:evenodd;"
d="M 156.7158,90.8032
156.7356,91.0545
156.6717,91.0709
156.6127,91.0978
156.5626,91.1378
156.5551,91.1463
156.5223,91.1998
156.5031,91.2647
156.4974,91.3336
156.5015,91.3989
156.5157,91.4601
156.5460,91.5176
156.5492,91.5216
156.5981,91.5649
156.6579,91.5843
156.6708,91.5849
156.7325,91.5686
156.7468,91.5582
156.7845,91.5062
156.8014,91.4655
156.8204,91.4034
156.8377,91.3402
156.8540,91.2783
156.8591,91.2586
156.8762,91.1968
156.8983,91.1305
156.9219,91.0730
156.9516,91.0169
156.9881,90.9673
157.0371,90.9214
157.0905,90.8867
157.1484,90.8634
157.2107,90.8513
157.2484,90.8494
157.3147,90.8560
157.3780,90.8755
157.4329,90.9047
157.4828,90.9441
157.5246,90.9931
157.5584,91.0516
157.5642,91.0644
157.5859,91.1266
157.5993,91.1876
157.6070,91.2539
157.6091,91.3163
157.6065,91.3886
157.5986,91.4551
157.5853,91.5158
157.5625,91.5809
157.5321,91.6377
157.5009,91.6786
157.4501,91.7264
157.3923,91.7631
157.3277,91.7887
157.2667,91.8019
157.2121,91.8067
157.2121,91.5483
157.2760,91.5306
157.3314,91.4964
157.3489,91.4773
157.3775,91.4190
157.3893,91.3525
157.3908,91.3135
157.3863,91.2480
157.3713,91.1869
157.3455,91.1373
157.2933,91.0996
157.2673,91.0964
157.2079,91.1180
157.1913,91.1348
157.1602,91.1910
157.1386,91.2503
157.1191,91.3166
157.1048,91.3721
157.0875,91.4394
157.0701,91.4997
157.0496,91.5614
157.0260,91.6204
157.0111,91.6510
156.9778,91.7035
156.9333,91.7525
156.8805,91.7921
156.8190,91.8212
156.7551,91.8372
156.6911,91.8431
156.6761,91.8433
156.6084,91.8373
156.5435,91.8194
156.4813,91.7896
156.4692,91.7822
156.4189,91.7438
156.3764,91.6974
156.3417,91.6431
156.3259,91.6094
156.3054,91.5501
156.2908,91.4840
156.2828,91.4205
156.2792,91.3518
156.2790,91.3312
156.2818,91.2581
156.2899,91.1906
156.3035,91.1285
156.3270,91.0613
156.3583,91.0020
156.3904,90.9586
156.4359,90.9136
156.4885,90.8759
156.5483,90.8455
156.6153,90.8225
156.6766,90.8089
Z" /> 
<path style="fill:#000000; fill-opacity:1.0000; stroke:none;fill-rule:evenodd;"
d="M 156.2989,92.0607
157.5893,92.0607
157.5893,92.3188
156.5173,92.3188
156.5173,92.9609
156.2989,92.9609
Z" /> 
</g><path style="fill:#000000; fill-opacity:1.0000; stroke:none;fill-rule:evenodd;"
d="M 140.9748,82.2077
139.4339,82.2077
139.4339,82.0410
139.6006,82.0410
139.9054,82.0410
139.9054,81.3845
140.5033,81.3845
140.5033,82.0410
140.8081,82.0410
140.8081,80.5169
140.5033,80.5169
140.5033,81.1266
139.9054,81.1266
139.9054,80.5169
139.6006,80.5169
139.6006,82.0410
139.4339,82.0410
139.4339,79.5210
139.6079,79.5210
140.6711,79.5210
140.6711,79.2631
139.9127,79.2631
139.9127,77.9969
139.6079,77.9969
139.6079,79.5210
139.4339,79.5210
139.4339,77.8303
140.9748,77.8303
Z" /> 
</g>
<g style="fill:none; 
stroke:#000000; stroke-width:0.3000; stroke-opacity:1; 
stroke-linecap:round; stroke-linejoin:round;">
<text x="54.1020" y="176.7840"
textLength="7.2698" font-size="2.7093" lengthAdjust="spacingAndGlyphs"
text-anchor="start" opacity="0">F.Silk</text>
<g class="stroked-text"><desc>F.Silk</desc>
<path style="fill:#000000; fill-opacity:1.0000; stroke:none;fill-rule:evenodd;"
d="M 54.3129,176.4386
54.3129,174.3739
55.7155,174.3739
55.7155,174.7233
54.7258,174.7233
54.7258,175.1998
55.5800,175.1998
55.5800,175.5492
54.7258,175.5492
54.7258,176.4386
Z" /> 
<path style="fill:#000000; fill-opacity:1.0000; stroke:none;fill-rule:evenodd;"
d="M 55.7284,176.4386
55.7284,176.0574
56.1210,176.0574
56.1210,176.4386
Z" /> 
<path style="fill:#000000; fill-opacity:1.0000; stroke:none;fill-rule:evenodd;"
d="M 56.4168,175.7715
56.8188,175.7398
56.8450,175.8421
56.8880,175.9364
56.9521,176.0167
56.9657,176.0286
57.0512,176.0812
57.1551,176.1119
57.2654,176.1209
57.3699,176.1144
57.4677,176.0917
57.5598,176.0431
57.5662,176.0380
57.6354,175.9598
57.6665,175.8641
57.6674,175.8435
57.6414,175.7449
57.6247,175.7219
57.5416,175.6617
57.4764,175.6346
57.3771,175.6042
57.2758,175.5764
57.1769,175.5504
57.1453,175.5422
57.0464,175.5148
56.9405,175.4796
56.8484,175.4417
56.7587,175.3943
56.6793,175.3358
56.6058,175.2575
56.5504,175.1720
56.5130,175.0794
56.4936,174.9796
56.4907,174.9194
56.5011,174.8133
56.5325,174.7120
56.5790,174.6241
56.6422,174.5443
56.7205,174.4774
56.8141,174.4234
56.8346,174.4141
56.9341,174.3794
57.0317,174.3580
57.1378,174.3456
57.2376,174.3422
57.3533,174.3464
57.4597,174.3591
57.5568,174.3802
57.6610,174.4168
57.7519,174.4655
57.8173,174.5154
57.8938,174.5967
57.9525,174.6891
57.9936,174.7925
58.0147,174.8900
58.0223,174.9774
57.6089,174.9774
57.5806,174.8752
57.5258,174.7865
57.4952,174.7586
57.4021,174.7128
57.2956,174.6939
57.2332,174.6916
57.1284,174.6987
57.0307,174.7228
56.9513,174.7640
56.8909,174.8475
56.8858,174.8891
56.9204,174.9841
56.9473,175.0107
57.0372,175.0604
57.1321,175.0950
57.2381,175.1263
57.3270,175.1492
57.4346,175.1768
57.5312,175.2047
57.6298,175.2374
57.7242,175.2752
57.7731,175.2991
57.8573,175.3523
57.9356,175.4235
57.9990,175.5080
58.0456,175.6064
58.0712,175.7086
58.0805,175.8110
58.0808,175.8351
58.0713,175.9433
58.0427,176.0472
57.9949,176.1467
57.9831,176.1661
57.9217,176.2466
57.8475,176.3146
57.7605,176.3700
57.7066,176.3954
57.6118,176.4282
57.5060,176.4516
57.4044,176.4644
57.2944,176.4700
57.2615,176.4703
57.1446,176.4660
57.0365,176.4529
56.9372,176.4312
56.8297,176.3936
56.7348,176.3435
56.6654,176.2922
56.5933,176.2194
56.5330,176.1352
56.4844,176.0395
56.4476,175.9323
56.4258,175.8342
Z" /> 
<path style="fill:#000000; fill-opacity:1.0000; stroke:none;fill-rule:evenodd;"
d="M 58.4144,174.7233
58.4144,174.3739
58.8069,174.3739
58.8069,174.7233
Z" /> 
<path style="fill:#000000; fill-opacity:1.0000; stroke:none;fill-rule:evenodd;"
d="M 58.4144,176.4386
58.4144,174.9457
58.8069,174.9457
58.8069,176.4386
Z" /> 
<path style="fill:#000000; fill-opacity:1.0000; stroke:none;fill-rule:evenodd;"
d="M 59.2045,176.4386
59.2045,174.3739
59.5970,174.3739
59.5970,176.4386
Z" /> 
<path style="fill:#000000; fill-opacity:1.0000; stroke:none;fill-rule:evenodd;"
d="M 59.9807,176.4386
59.9807,174.3739
60.3733,174.3739
60.3733,175.4713
60.8323,174.9457
61.3152,174.9457
60.8085,175.4916
61.3515,176.4386
60.9286,176.4386
60.5559,175.7651
60.3733,175.9606
60.3733,176.4386
Z" /> 
</g></g>
<g style="fill:none; 
stroke:#000000; stroke-width:0.1500; stroke-opacity:1; 
stroke-linecap:round; stroke-linejoin:round;">
<text x="155.8290" y="100.1950"
textLength="1.4782" font-size="1.3333" lengthAdjust="spacingAndGlyphs"
text-anchor="middle" opacity="0">J4</text>
<g class="stroked-text"><desc>J4</desc>
<path style="fill:#000000; fill-opacity:1.0000; stroke:none;fill-rule:evenodd;"
d="M 155.1305,99.8291
155.2506,99.8130
155.2552,99.8627
155.2667,99.9129
155.2915,99.9582
155.2939,99.9608
155.3365,99.9893
155.3879,100.0002
155.4004,100.0006
155.4497,99.9941
155.4868,99.9776
155.5236,99.9422
155.5371,99.9148
155.5474,99.8636
155.5505,99.8147
155.5508,99.7888
155.5508,99.0939
155.6842,99.0939
155.6842,99.7852
155.6827,99.8381
155.6775,99.8919
155.6670,99.9439
155.6536,99.9825
155.6284,100.0266
155.5947,100.0629
155.5567,100.0890
155.5084,100.1099
155.4598,100.1213
155.4067,100.1256
155.4011,100.1256
155.3460,100.1221
155.2970,100.1114
155.2482,100.0904
155.2072,100.0602
155.1981,100.0511
155.1675,100.0092
155.1460,99.9583
155.1347,99.9062
155.1306,99.8561
Z" /> 
<path style="fill:#000000; fill-opacity:1.0000; stroke:none;fill-rule:evenodd;"
d="M 156.3678,99.7505
156.5038,99.7505
156.5038,99.8755
156.3678,99.8755
156.3678,100.1100
156.2442,100.1100
156.2442,99.8755
155.8073,99.8755
155.8073,99.7505
155.9289,99.7505
156.2442,99.7505
156.2442,99.3108
155.9289,99.7505
155.8073,99.7505
156.2669,99.1096
156.3678,99.1096
Z" /> 
</g></g>
<g style="fill:none; 
stroke:#000000; stroke-width:0.1500; stroke-opacity:1; 
stroke-linecap:round; stroke-linejoin:round;">
<text x="155.8290" y="76.1920"
textLength="1.4782" font-size="1.3333" lengthAdjust="spacingAndGlyphs"
text-anchor="middle" opacity="0">J2</text>
<g class="stroked-text"><desc>J2</desc>
<path style="fill:#000000; fill-opacity:1.0000; stroke:none;fill-rule:evenodd;"
d="M 155.1305,75.8261
155.2506,75.8100
155.2552,75.8597
155.2667,75.9099
155.2915,75.9552
155.2939,75.9578
155.3365,75.9863
155.3879,75.9972
155.4004,75.9976
155.4497,75.9911
155.4868,75.9746
155.5236,75.9392
155.5371,75.9118
155.5474,75.8606
155.5505,75.8117
155.5508,75.7858
155.5508,75.0909
155.6842,75.0909
155.6842,75.7822
155.6827,75.8351
155.6775,75.8889
155.6670,75.9409
155.6536,75.9795
155.6284,76.0236
155.5947,76.0599
155.5567,76.0860
155.5084,76.1069
155.4598,76.1183
155.4067,76.1226
155.4011,76.1226
155.3460,76.1191
155.2970,76.1084
155.2482,76.0874
155.2072,76.0572
155.1981,76.0481
155.1675,76.0062
155.1460,75.9553
155.1347,75.9032
155.1306,75.8531
Z" /> 
<path style="fill:#000000; fill-opacity:1.0000; stroke:none;fill-rule:evenodd;"
d="M 156.4977,75.9819
156.4977,76.1070
155.8319,76.1070
155.8359,76.0570
155.8463,76.0196
155.8674,75.9723
155.8928,75.9297
155.9242,75.8875
155.9277,75.8833
155.9632,75.8441
156.0014,75.8069
156.0398,75.7726
156.0830,75.7366
156.0896,75.7314
156.1290,75.6993
156.1735,75.6617
156.2128,75.6268
156.2532,75.5887
156.2908,75.5493
156.3114,75.5245
156.3394,75.4828
156.3597,75.4382
156.3692,75.3868
156.3693,75.3826
156.3619,75.3331
156.3372,75.2865
156.3168,75.2644
156.2728,75.2349
156.2246,75.2198
156.1795,75.2160
156.1272,75.2205
156.0777,75.2357
156.0366,75.2617
156.0039,75.3008
155.9860,75.3498
155.9824,75.3879
155.8554,75.3723
155.8628,75.3231
155.8778,75.2716
155.8998,75.2262
155.9334,75.1820
155.9536,75.1630
155.9937,75.1349
156.0393,75.1137
156.0906,75.0995
156.1390,75.0927
156.1824,75.0909
156.2346,75.0938
156.2901,75.1044
156.3399,75.1228
156.3839,75.1490
156.4118,75.1725
156.4447,75.2100
156.4724,75.2574
156.4896,75.3096
156.4959,75.3594
156.4963,75.3743
156.4922,75.4238
156.4800,75.4726
156.4716,75.4949
156.4485,75.5401
156.4192,75.5832
156.3895,75.6195
156.3513,75.6598
156.3132,75.6959
156.2748,75.7302
156.2311,75.7675
156.1990,75.7941
156.1601,75.8261
156.1217,75.8581
156.0835,75.8911
156.0559,75.9170
156.0224,75.9554
156.0039,75.9819
Z" /> 
</g></g>
<g style="fill:none; 
stroke:#000000; stroke-width:0.1500; stroke-opacity:1; 
stroke-linecap:round; stroke-linejoin:round;">
<text x="141.4780" y="100.1950"
textLength="1.4782" font-size="1.3333" lengthAdjust="spacingAndGlyphs"
text-anchor="middle" opacity="0">J3</text>
<g class="stroked-text"><desc>J3</desc>
<path style="fill:#000000; fill-opacity:1.0000; stroke:none;fill-rule:evenodd;"
d="M 140.7795,99.8291
140.8996,99.8130
140.9042,99.8627
140.9157,99.9129
140.9405,99.9582
140.9429,99.9608
140.9855,99.9893
141.0369,100.0002
141.0494,100.0006
141.0987,99.9941
141.1358,99.9776
141.1726,99.9422
141.1861,99.9148
141.1964,99.8636
141.1995,99.8147
141.1998,99.7888
141.1998,99.0939
141.3332,99.0939
141.3332,99.7852
141.3317,99.8381
141.3265,99.8919
141.3160,99.9439
141.3026,99.9825
141.2774,100.0266
141.2437,100.0629
141.2057,100.0890
141.1574,100.1099
141.1088,100.1213
141.0557,100.1256
141.0501,100.1256
140.9950,100.1221
140.9460,100.1114
140.8972,100.0904
140.8562,100.0602
140.8471,100.0511
140.8165,100.0092
140.7950,99.9583
140.7837,99.9062
140.7796,99.8561
Z" /> 
<path style="fill:#000000; fill-opacity:1.0000; stroke:none;fill-rule:evenodd;"
d="M 141.4975,99.8443
141.6211,99.8286
141.6354,99.8760
141.6593,99.9229
141.6934,99.9603
141.7388,99.9864
141.7871,99.9986
141.8182,100.0006
141.8702,99.9949
141.9168,99.9781
141.9581,99.9499
141.9658,99.9429
141.9974,99.9041
142.0187,99.8551
142.0258,99.8049
142.0258,99.7996
142.0193,99.7469
141.9995,99.7009
141.9701,99.6650
141.9283,99.6347
141.8793,99.6169
141.8285,99.6117
141.7781,99.6171
141.7413,99.6254
141.7552,99.5004
141.7750,99.5016
141.8274,99.4974
141.8761,99.4847
141.9171,99.4659
141.9557,99.4336
141.9774,99.3863
141.9804,99.3555
141.9703,99.3046
141.9398,99.2627
141.9342,99.2578
141.8889,99.2313
141.8376,99.2199
141.8155,99.2190
141.7649,99.2245
141.7176,99.2429
141.6954,99.2581
141.6620,99.2963
141.6412,99.3430
141.6336,99.3753
141.5100,99.3597
141.5227,99.3071
141.5409,99.2599
141.5685,99.2126
141.6032,99.1725
141.6131,99.1636
141.6557,99.1331
141.7032,99.1114
141.7556,99.0983
141.8054,99.0940
141.8129,99.0939
141.8630,99.0973
141.9153,99.1088
141.9645,99.1284
142.0084,99.1549
142.0473,99.1907
142.0705,99.2222
142.0930,99.2677
142.1051,99.3153
142.1074,99.3482
142.1017,99.3978
142.0844,99.4436
142.0725,99.4635
142.0385,99.5023
141.9972,99.5318
141.9687,99.5463
142.0158,99.5618
142.0607,99.5875
142.0978,99.6221
142.1074,99.6342
142.1336,99.6792
142.1500,99.7307
142.1566,99.7828
142.1570,99.8013
142.1536,99.8507
142.1411,99.9048
142.1194,99.9548
142.0885,100.0009
142.0608,100.0314
142.0230,100.0634
141.9743,100.0924
141.9288,100.1101
141.8796,100.1211
141.8269,100.1255
141.8177,100.1256
141.7619,100.1219
141.7103,100.1106
141.6630,100.0919
141.6201,100.0656
141.5974,100.0472
141.5628,100.0107
141.5353,99.9698
141.5150,99.9244
141.5018,99.8747
Z" /> 
</g></g>
<g style="fill:none; 
stroke:#000000; stroke-width:0.1500; stroke-opacity:1; 
stroke-linecap:round; stroke-linejoin:round;">
<text x="141.3510" y="76.1920"
textLength="1.4782" font-size="1.3333" lengthAdjust="spacingAndGlyphs"
text-anchor="middle" opacity="0">J1</text>
<g class="stroked-text"><desc>J1</desc>
<path style="fill:#000000; fill-opacity:1.0000; stroke:none;fill-rule:evenodd;"
d="M 140.6525,75.8261
140.7726,75.8100
140.7772,75.8597
140.7887,75.9099
140.8135,75.9552
140.8159,75.9578
140.8585,75.9863
140.9099,75.9972
140.9224,75.9976
140.9717,75.9911
141.0088,75.9746
141.0456,75.9392
141.0591,75.9118
141.0694,75.8606
141.0725,75.8117
141.0728,75.7858
141.0728,75.0909
141.2062,75.0909
141.2062,75.7822
141.2047,75.8351
141.1995,75.8889
141.1890,75.9409
141.1756,75.9795
141.1504,76.0236
141.1167,76.0599
141.0787,76.0860
141.0304,76.1069
140.9818,76.1183
140.9287,76.1226
140.9231,76.1226
140.8680,76.1191
140.8190,76.1084
140.7702,76.0874
140.7292,76.0572
140.7201,76.0481
140.6895,76.0062
140.6680,75.9553
140.6567,75.9032
140.6526,75.8531
Z" /> 
<path style="fill:#000000; fill-opacity:1.0000; stroke:none;fill-rule:evenodd;"
d="M 141.8356,76.1070
141.7120,76.1070
141.7120,75.3152
141.6746,75.3473
141.6334,75.3767
141.5948,75.4009
141.5509,75.4255
141.5060,75.4478
141.4646,75.4651
141.4646,75.3450
141.5087,75.3225
141.5561,75.2944
141.6003,75.2638
141.6412,75.2306
141.6460,75.2263
141.6820,75.1916
141.7157,75.1533
141.7448,75.1115
141.7560,75.0909
141.8356,75.0909
Z" /> 
</g></g>
<g style="fill:none; 
stroke:#000000; stroke-width:0.1200; stroke-opacity:1; 
stroke-linecap:round; stroke-linejoin:round;">
<path d="M149.7330 91.4400
L149.7330 99.0600
" />
<path d="M149.7330 99.0600
L151.8141 99.0600
" />
<path d="M151.8141 91.4400
L149.7330 91.4400
" />
<path style="fill:#000000; fill-opacity:1.0000; 
stroke:#000000; stroke-width:0.2000; stroke-opacity:1; 
stroke-linecap:round; stroke-linejoin:round;fill-rule:evenodd;"
d="M 150.6220,99.5680
150.1140,99.5680
150.3680,99.3140
Z" /> 
</g>
<g style="fill:none; 
stroke:#000000; stroke-width:0.1200; stroke-opacity:1; 
stroke-linecap:round; stroke-linejoin:round;">
<path d="M149.7330 76.2000
L149.7330 83.8200
" />
<path d="M149.7330 83.8200
L151.8141 83.8200
" />
<path d="M151.8141 76.2000
L149.7330 76.2000
" />
<path style="fill:#000000; fill-opacity:1.0000; 
stroke:#000000; stroke-width:0.2000; stroke-opacity:1; 
stroke-linecap:round; stroke-linejoin:round;fill-rule:evenodd;"
d="M 150.6220,84.3280
150.1140,84.3280
150.3680,84.0740
Z" /> 
</g>
<g style="fill:none; 
stroke:#000000; stroke-width:0.1200; stroke-opacity:1; 
stroke-linecap:round; stroke-linejoin:round;">
<path d="M145.3659 99.0600
L147.4470 99.0600
" />
<path d="M147.4470 91.4400
L145.3659 91.4400
" />
<path d="M147.4470 99.0600
L147.4470 91.4400
" />
<path style="fill:#000000; fill-opacity:1.0000; 
stroke:#000000; stroke-width:0.2000; stroke-opacity:1; 
stroke-linecap:round; stroke-linejoin:round;fill-rule:evenodd;"
d="M 146.8120,91.1860
146.5580,90.9320
147.0660,90.9320
Z" /> 
</g>
<g style="fill:none; 
stroke:#000000; stroke-width:0.1200; stroke-opacity:1; 
stroke-linecap:round; stroke-linejoin:round;">
<path d="M145.3659 83.8200
L147.4470 83.8200
" />
<path d="M147.4470 76.2000
L145.3659 76.2000
" />
<path d="M147.4470 83.8200
L147.4470 76.2000
" />
<path style="fill:#000000; fill-opacity:1.0000; 
stroke:#000000; stroke-width:0.2000; stroke-opacity:1; 
stroke-linecap:round; stroke-linejoin:round;fill-rule:evenodd;"
d="M 146.8120,75.9460
146.5580,75.6920
147.0660,75.6920
Z" /> 
</g>
<g style="fill:#FFFFFF; fill-opacity:1.0000; stroke:none;">
<circle cx="153.1620" cy="100.5840" r="1.7018" /> 
</g>
<g style="fill:#FFFFFF; fill-opacity:1.0000; stroke:none;">
<circle cx="153.1620" cy="89.9160" r="1.7018" /> 
</g>
<g style="fill:#FFFFFF; fill-opacity:1.0000; stroke:none;">
<circle cx="152.4000" cy="96.5200" r="0.5461" /> 
</g>
<g style="fill:#FFFFFF; fill-opacity:1.0000; stroke:none;">
<circle cx="152.4000" cy="93.9800" r="0.5461" /> 
</g>
<g style="fill:#FFFFFF; fill-opacity:1.0000; stroke:none;">
<circle cx="148.5900" cy="106.6800" r="1.0500" /> 
</g>
<g style="fill:#FFFFFF; fill-opacity:1.0000; stroke:none;">
<circle cx="153.1620" cy="85.3440" r="1.7018" /> 
</g>
<g style="fill:#FFFFFF; fill-opacity:1.0000; stroke:none;">
<circle cx="153.1620" cy="74.6760" r="1.7018" /> 
</g>
<g style="fill:#FFFFFF; fill-opacity:1.0000; stroke:none;">
<circle cx="152.4000" cy="81.2800" r="0.5461" /> 
</g>
<g style="fill:#FFFFFF; fill-opacity:1.0000; stroke:none;">
<circle cx="152.4000" cy="78.7400" r="0.5461" /> 
</g>
<g style="fill:#FFFFFF; fill-opacity:1.0000; stroke:none;">
<circle cx="148.5900" cy="68.5800" r="1.0500" /> 
</g>
<g style="fill:#FFFFFF; fill-opacity:1.0000; stroke:none;">
<circle cx="144.0180" cy="89.9160" r="1.7018" /> 
</g>
<g style="fill:#FFFFFF; fill-opacity:1.0000; stroke:none;">
<circle cx="144.0180" cy="100.5840" r="1.7018" /> 
</g>
<g style="fill:#FFFFFF; fill-opacity:1.0000; stroke:none;">
<circle cx="144.7800" cy="93.9800" r="0.5461" /> 
</g>
<g style="fill:#FFFFFF; fill-opacity:1.0000; stroke:none;">
<circle cx="144.7800" cy="96.5200" r="0.5461" /> 
</g>
<g style="fill:#FFFFFF; fill-opacity:1.0000; stroke:none;">
<circle cx="144.0180" cy="74.6760" r="1.7018" /> 
</g>
<g style="fill:#FFFFFF; fill-opacity:1.0000; stroke:none;">
<circle cx="144.0180" cy="85.3440" r="1.7018" /> 
</g>
<g style="fill:#FFFFFF; fill-opacity:1.0000; stroke:none;">
<circle cx="144.7800" cy="78.7400" r="0.5461" /> 
</g>
<g style="fill:#FFFFFF; fill-opacity:1.0000; stroke:none;">
<circle cx="144.7800" cy="81.2800" r="0.5461" /> 
</g>
<g style="fill:none; 
stroke:#000000; stroke-width:0.0500; stroke-opacity:1; 
stroke-linecap:round; stroke-linejoin:round;">
<path d="M139.0650 102.8700 A1.2700 1.2700 0.0 0 0 140.3350 104.1400" />
<path d="M140.9700 71.1200
L140.3350 71.1200
" />
<path d="M140.9700 104.1400
L140.3350 104.1400
" />
<path d="M156.2100 104.1400 A1.2700 1.2700 0.0 0 0 154.9400 105.4100" />
<path d="M154.9400 68.5800 A6.3500 6.3500 0.0 0 0 142.2400 68.5800" />
<path d="M156.2100 71.1200
L156.8450 71.1200
" />
<path d="M139.0650 72.3900
L139.0650 102.8700
" />
<path d="M154.9400 68.5800
L154.9400 69.8500
" />
<path d="M140.9700 71.1200 A1.2700 1.2700 0.0 0 0 142.2400 69.8500" />
<path d="M140.3350 71.1200 A1.2700 1.2700 0.0 0 0 139.0650 72.3900" />
<path d="M156.2100 104.1400
L156.8450 104.1400
" />
<path d="M158.1150 72.3900
L158.1150 102.8700
" />
<path d="M154.9400 69.8500 A1.2700 1.2700 0.0 0 0 156.2100 71.1200" />
<path d="M156.8450 104.1400 A1.2700 1.2700 0.0 0 0 158.1150 102.8700" />
<path d="M142.2400 68.5800
L142.2400 69.8500
" />
<path d="M142.2400 105.4100 A1.2700 1.2700 0.0 0 0 140.9700 104.1400" />
<path d="M154.9400 106.6800
L154.9400 105.4100
" />
<path d="M158.1150 72.3900 A1.2700 1.2700 0.0 0 0 156.8450 71.1200" />
<path d="M142.2400 106.6800
L142.2400 105.4100
" />
<path d="M142.2400 106.6800 A6.3500 6.3500 0.0 0 0 154.9400 106.6800" />
</g> 
</svg>
