  0
SECTION
  2
HEADER
  9
$ANGBASE
  50
0.0
  9
$ANGDIR
  70
1
  9
$MEASUREMENT
  70
0
  0
ENDSEC
  0
SECTION
  2
TABLES
  0
TABLE
  2
LTYPE
  70
4
  0
LTYPE
  5
40F
  2
CONTINUOUS
  70
0
  3
Solid line
  72
65
  73
0
  40
0.0
  0
LTYPE
  5
410
  2
DASHDOT
 70
0
  3
Dash Dot ____ _ ____ _
 72
65
 73
4
 40
2.0
 49
1.25
 49
-0.25
 49
0.25
 49
-0.25
  0
LTYPE
  5
411
  2
DASHED
 70
0
  3
Dashed __ __ __ __ __
 72
65
 73
2
 40
0.75
 49
0.5
 49
-0.25
  0
LTYPE
  5
43B
  2
DOTTED
 70
0
  3
Dotted .  .  .  .
 72
65
 73
2
 40
0.2
 49
0.0
 49
-0.2
  0
ENDTAB
  0
TABLE
  2
STYLE
  70
4
  0
STYLE
  2
KICAD
  70
0
  40
0
  41
1
  42
1
  50
0
  71
0
  3
isocp.shx
  0
STYLE
  2
KICADB
  70
0
  40
0
  41
1
  42
1
  50
0
  71
0
  3
isocp.shx
  0
STYLE
  2
KICADI
  70
0
  40
0
  41
1
  42
1
  50
15
  71
0
  3
isocp.shx
  0
STYLE
  2
KICADBI
  70
0
  40
0
  41
1
  42
1
  50
15
  71
0
  3
isocp.shx
  0
ENDTAB
  0
TABLE
  2
LAYER
  70
1
  0
LAYER
  2
BLACK
  70
0
  62
7
  6
CONTINUOUS
  0
ENDTAB
  0
ENDSEC
  0
SECTION
  2
ENTITIES
0
ARC
8
BLACK
10
5.5249999999999995
20
-4.0499999999999998
40
0.05
50
-180.00000000
51
-90.00000000
0
LINE
8
BLACK
6
CONTINUOUS
10
5.5499999999999998
20
-2.7999999999999998
11
5.5249999999999995
21
-2.7999999999999998
0
LINE
8
BLACK
6
CONTINUOUS
10
5.5499999999999998
20
-4.0999999999999996
11
5.5249999999999995
21
-4.0999999999999996
0
ARC
8
BLACK
10
6.1499999999999995
20
-4.1499999999999995
40
0.05
50
90.00000000
51
180.00000000
0
ARC
8
BLACK
10
5.8499999999999996
20
-2.6999999999999997
40
0.25
50
0.00000000
51
180.00000000
0
LINE
8
BLACK
6
CONTINUOUS
10
6.1499999999999995
20
-2.7999999999999998
11
6.1749999999999998
21
-2.7999999999999998
0
LINE
8
BLACK
6
CONTINUOUS
10
5.4749999999999996
20
-2.8500000000000001
11
5.4749999999999996
21
-4.0499999999999998
0
LINE
8
BLACK
6
CONTINUOUS
10
6.0999999999999996
20
-2.6999999999999997
11
6.0999999999999996
21
-2.75
0
ARC
8
BLACK
10
5.5499999999999998
20
-2.75
40
0.05
50
-90.00000000
51
-0.00000000
0
ARC
8
BLACK
10
5.5249999999999995
20
-2.8500000000000001
40
0.05
50
90.00000000
51
180.00000000
0
LINE
8
BLACK
6
CONTINUOUS
10
6.1499999999999995
20
-4.0999999999999996
11
6.1749999999999998
21
-4.0999999999999996
0
LINE
8
BLACK
6
CONTINUOUS
10
6.2249999999999996
20
-2.8500000000000001
11
6.2249999999999996
21
-4.0499999999999998
0
ARC
8
BLACK
10
6.1499999999999995
20
-2.75
40
0.05
50
-180.00000000
51
-90.00000000
0
ARC
8
BLACK
10
6.1749999999999998
20
-4.0499999999999998
40
0.05
50
-90.00000000
51
-0.00000000
0
LINE
8
BLACK
6
CONTINUOUS
10
5.5999999999999996
20
-2.6999999999999997
11
5.5999999999999996
21
-2.75
0
ARC
8
BLACK
10
5.5499999999999998
20
-4.1499999999999995
40
0.05
50
0.00000000
51
90.00000000
0
LINE
8
BLACK
6
CONTINUOUS
10
6.0999999999999996
20
-4.2000000000000002
11
6.0999999999999996
21
-4.1499999999999995
0
ARC
8
BLACK
10
6.1749999999999998
20
-2.8500000000000001
40
0.05
50
0.00000000
51
90.00000000
0
LINE
8
BLACK
6
CONTINUOUS
10
5.5999999999999996
20
-4.2000000000000002
11
5.5999999999999996
21
-4.1499999999999995
0
ARC
8
BLACK
10
5.8499999999999996
20
-4.2000000000000002
40
0.25
50
-180.00000000
51
-0.00000000
0
LINE
8
BLACK
6
CONTINUOUS
10
5.6784999999999997
20
-3.0785
11
5.7214999999999998
21
-3.1214999999999997
0
LINE
8
BLACK
6
CONTINUOUS
10
5.7214999999999998
20
-3.0785
11
5.6784999999999997
21
-3.1214999999999997
0
LINE
8
BLACK
6
CONTINUOUS
10
5.6784999999999997
20
-3.1785000000000001
11
5.7214999999999998
21
-3.2214999999999998
0
LINE
8
BLACK
6
CONTINUOUS
10
5.7214999999999998
20
-3.1785000000000001
11
5.6784999999999997
21
-3.2214999999999998
0
LINE
8
BLACK
6
CONTINUOUS
10
5.6784999999999997
20
-3.6785000000000001
11
5.7214999999999998
21
-3.7214999999999998
0
LINE
8
BLACK
6
CONTINUOUS
10
5.7214999999999998
20
-3.6785000000000001
11
5.6784999999999997
21
-3.7214999999999998
0
LINE
8
BLACK
6
CONTINUOUS
10
5.6784999999999997
20
-3.7784999999999997
11
5.7214999999999998
21
-3.8214999999999999
0
LINE
8
BLACK
6
CONTINUOUS
10
5.7214999999999998
20
-3.7784999999999997
11
5.6784999999999997
21
-3.8214999999999999
0
LINE
8
BLACK
6
CONTINUOUS
10
5.9784999999999995
20
-3.0785
11
6.0214999999999996
21
-3.1214999999999997
0
LINE
8
BLACK
6
CONTINUOUS
10
6.0214999999999996
20
-3.0785
11
5.9784999999999995
21
-3.1214999999999997
0
LINE
8
BLACK
6
CONTINUOUS
10
5.9784999999999995
20
-3.1785000000000001
11
6.0214999999999996
21
-3.2214999999999998
0
LINE
8
BLACK
6
CONTINUOUS
10
6.0214999999999996
20
-3.1785000000000001
11
5.9784999999999995
21
-3.2214999999999998
0
LINE
8
BLACK
6
CONTINUOUS
10
5.9784999999999995
20
-3.6785000000000001
11
6.0214999999999996
21
-3.7214999999999998
0
LINE
8
BLACK
6
CONTINUOUS
10
6.0214999999999996
20
-3.6785000000000001
11
5.9784999999999995
21
-3.7214999999999998
0
LINE
8
BLACK
6
CONTINUOUS
10
5.9784999999999995
20
-3.7784999999999997
11
6.0214999999999996
21
-3.8214999999999999
0
LINE
8
BLACK
6
CONTINUOUS
10
6.0214999999999996
20
-3.7784999999999997
11
5.9784999999999995
21
-3.8214999999999999
0
CIRCLE
8
BLACK
10
5.6699999999999999
20
-2.9399999999999999
40
0.067
0
CIRCLE
8
BLACK
10
5.6699999999999999
20
-3.3599999999999999
40
0.067
0
CIRCLE
8
BLACK
10
5.6699999999999999
20
-3.54
40
0.067
0
CIRCLE
8
BLACK
10
5.6699999999999999
20
-3.96
40
0.067
0
CIRCLE
8
BLACK
10
6.0300000000000002
20
-2.9399999999999999
40
0.067
0
CIRCLE
8
BLACK
10
6.0300000000000002
20
-3.3599999999999999
40
0.067
0
CIRCLE
8
BLACK
10
6.0300000000000002
20
-3.54
40
0.067
0
CIRCLE
8
BLACK
10
6.0300000000000002
20
-3.96
40
0.067
0
LINE
8
BLACK
6
CONTINUOUS
10
5.8499999999999996
20
-2.6204999999999998
11
5.8499999999999996
21
-2.7795000000000001
0
LINE
8
BLACK
6
CONTINUOUS
10
5.7705000000000002
20
-2.6999999999999997
11
5.9295
21
-2.6999999999999997
0
LINE
8
BLACK
6
CONTINUOUS
10
5.8499999999999996
20
-4.1204999999999998
11
5.8499999999999996
21
-4.2794999999999996
0
LINE
8
BLACK
6
CONTINUOUS
10
5.7705000000000002
20
-4.2000000000000002
11
5.9295
21
-4.2000000000000002
0
LINE
8
BLACK
6
CONTINUOUS
10
5.576683779527559
20
-4.5736156692913381
11
5.576683779527559
21
-4.4948755118110233
0
LINE
8
BLACK
6
CONTINUOUS
10
5.576683779527559
20
-4.4948755118110233
11
5.5954314173228346
21
-4.4948755118110233
0
LINE
8
BLACK
6
CONTINUOUS
10
5.5954314173228346
20
-4.4948755118110233
11
5.6066800393700786
21
-4.4986250393700784
0
LINE
8
BLACK
6
CONTINUOUS
10
5.6066800393700786
20
-4.4986250393700784
11
5.6141790944881889
21
-4.5061240944881886
0
LINE
8
BLACK
6
CONTINUOUS
10
5.6141790944881889
20
-4.5061240944881886
11
5.617928622047244
21
-4.5136231496062988
0
LINE
8
BLACK
6
CONTINUOUS
10
5.617928622047244
20
-4.5136231496062988
11
5.6216781496062991
21
-4.5286212598425193
0
LINE
8
BLACK
6
CONTINUOUS
10
5.6216781496062991
20
-4.5286212598425193
11
5.6216781496062991
21
-4.5398698818897634
0
LINE
8
BLACK
6
CONTINUOUS
10
5.6216781496062991
20
-4.5398698818897634
11
5.617928622047244
21
-4.5548679921259838
0
LINE
8
BLACK
6
CONTINUOUS
10
5.617928622047244
20
-4.5548679921259838
11
5.6141790944881889
21
-4.562367047244094
0
LINE
8
BLACK
6
CONTINUOUS
10
5.6141790944881889
20
-4.562367047244094
11
5.6066800393700786
21
-4.569866141732283
0
LINE
8
BLACK
6
CONTINUOUS
10
5.6066800393700786
20
-4.569866141732283
11
5.5954314173228346
21
-4.5736156692913381
0
LINE
8
BLACK
6
CONTINUOUS
10
5.5954314173228346
20
-4.5736156692913381
11
5.576683779527559
21
-4.5736156692913381
0
LINE
8
BLACK
6
CONTINUOUS
10
5.6554239370078738
20
-4.5736156692913381
11
5.6554239370078738
21
-4.5211222047244091
0
LINE
8
BLACK
6
CONTINUOUS
10
5.6554239370078738
20
-4.5361203543307083
11
5.6591734645669289
21
-4.5286212598425193
0
LINE
8
BLACK
6
CONTINUOUS
10
5.6591734645669289
20
-4.5286212598425193
11
5.662922992125984
21
-4.5248717322834642
0
LINE
8
BLACK
6
CONTINUOUS
10
5.662922992125984
20
-4.5248717322834642
11
5.6704220472440943
21
-4.5211222047244091
0
LINE
8
BLACK
6
CONTINUOUS
10
5.6704220472440943
20
-4.5211222047244091
11
5.6779211417322832
21
-4.5211222047244091
0
LINE
8
BLACK
6
CONTINUOUS
10
5.704167834645669
20
-4.5736156692913381
11
5.704167834645669
21
-4.5211222047244091
0
LINE
8
BLACK
6
CONTINUOUS
10
5.704167834645669
20
-4.4948755118110233
11
5.7004183070866139
21
-4.4986250393700784
0
LINE
8
BLACK
6
CONTINUOUS
10
5.7004183070866139
20
-4.4986250393700784
11
5.704167834645669
21
-4.5023745669291335
0
LINE
8
BLACK
6
CONTINUOUS
10
5.704167834645669
20
-4.5023745669291335
11
5.7079173622047241
21
-4.4986250393700784
0
LINE
8
BLACK
6
CONTINUOUS
10
5.7079173622047241
20
-4.4986250393700784
11
5.704167834645669
21
-4.4948755118110233
0
LINE
8
BLACK
6
CONTINUOUS
10
5.704167834645669
20
-4.4948755118110233
11
5.704167834645669
21
-4.5023745669291335
0
LINE
8
BLACK
6
CONTINUOUS
10
5.7529117322834642
20
-4.5736156692913381
11
5.745412677165354
21
-4.569866141732283
0
LINE
8
BLACK
6
CONTINUOUS
10
5.745412677165354
20
-4.569866141732283
11
5.7416631496062989
21
-4.562367047244094
0
LINE
8
BLACK
6
CONTINUOUS
10
5.7416631496062989
20
-4.562367047244094
11
5.7416631496062989
21
-4.4948755118110233
0
LINE
8
BLACK
6
CONTINUOUS
10
5.7941565748031492
20
-4.5736156692913381
11
5.7866575196850389
21
-4.569866141732283
0
LINE
8
BLACK
6
CONTINUOUS
10
5.7866575196850389
20
-4.569866141732283
11
5.7829079921259838
21
-4.562367047244094
0
LINE
8
BLACK
6
CONTINUOUS
10
5.7829079921259838
20
-4.562367047244094
11
5.7829079921259838
21
-4.4948755118110233
0
LINE
8
BLACK
6
CONTINUOUS
10
5.884145354330709
20
-4.5736156692913381
11
5.884145354330709
21
-4.4948755118110233
0
LINE
8
BLACK
6
CONTINUOUS
10
5.884145354330709
20
-4.4948755118110233
11
5.9103920866141735
21
-4.5511184645669287
0
LINE
8
BLACK
6
CONTINUOUS
10
5.9103920866141735
20
-4.5511184645669287
11
5.9366387795275593
21
-4.4948755118110233
0
LINE
8
BLACK
6
CONTINUOUS
10
5.9366387795275593
20
-4.4948755118110233
11
5.9366387795275593
21
-4.5736156692913381
0
LINE
8
BLACK
6
CONTINUOUS
10
6.0078798818897639
20
-4.5736156692913381
11
6.0078798818897639
21
-4.5323708267716531
0
LINE
8
BLACK
6
CONTINUOUS
10
6.0078798818897639
20
-4.5323708267716531
11
6.0041303543307087
21
-4.5248717322834642
0
LINE
8
BLACK
6
CONTINUOUS
10
6.0041303543307087
20
-4.5248717322834642
11
5.9966312992125985
21
-4.5211222047244091
0
LINE
8
BLACK
6
CONTINUOUS
10
5.9966312992125985
20
-4.5211222047244091
11
5.9816331496062993
21
-4.5211222047244091
0
LINE
8
BLACK
6
CONTINUOUS
10
5.9816331496062993
20
-4.5211222047244091
11
5.9741340944881891
21
-4.5248717322834642
0
LINE
8
BLACK
6
CONTINUOUS
10
6.0078798818897639
20
-4.569866141732283
11
6.0003808267716536
21
-4.5736156692913381
0
LINE
8
BLACK
6
CONTINUOUS
10
6.0003808267716536
20
-4.5736156692913381
11
5.9816331496062993
21
-4.5736156692913381
0
LINE
8
BLACK
6
CONTINUOUS
10
5.9816331496062993
20
-4.5736156692913381
11
5.9741340944881891
21
-4.569866141732283
0
LINE
8
BLACK
6
CONTINUOUS
10
5.9741340944881891
20
-4.569866141732283
11
5.970384566929134
21
-4.562367047244094
0
LINE
8
BLACK
6
CONTINUOUS
10
5.970384566929134
20
-4.562367047244094
11
5.970384566929134
21
-4.5548679921259838
0
LINE
8
BLACK
6
CONTINUOUS
10
5.970384566929134
20
-4.5548679921259838
11
5.9741340944881891
21
-4.5473689370078736
0
LINE
8
BLACK
6
CONTINUOUS
10
5.9741340944881891
20
-4.5473689370078736
11
5.9816331496062993
21
-4.5436194094488185
0
LINE
8
BLACK
6
CONTINUOUS
10
5.9816331496062993
20
-4.5436194094488185
11
6.0003808267716536
21
-4.5436194094488185
0
LINE
8
BLACK
6
CONTINUOUS
10
6.0003808267716536
20
-4.5436194094488185
11
6.0078798818897639
21
-4.5398698818897634
0
LINE
8
BLACK
6
CONTINUOUS
10
6.0453751968503937
20
-4.5211222047244091
11
6.0453751968503937
21
-4.5998623622047239
0
LINE
8
BLACK
6
CONTINUOUS
10
6.0453751968503937
20
-4.5248717322834642
11
6.0528742519685039
21
-4.5211222047244091
0
LINE
8
BLACK
6
CONTINUOUS
10
6.0528742519685039
20
-4.5211222047244091
11
6.0678724015748031
21
-4.5211222047244091
0
LINE
8
BLACK
6
CONTINUOUS
10
6.0678724015748031
20
-4.5211222047244091
11
6.0753714566929133
21
-4.5248717322834642
0
LINE
8
BLACK
6
CONTINUOUS
10
6.0753714566929133
20
-4.5248717322834642
11
6.0791209842519685
21
-4.5286212598425193
0
LINE
8
BLACK
6
CONTINUOUS
10
6.0791209842519685
20
-4.5286212598425193
11
6.0828705118110236
21
-4.5361203543307083
0
LINE
8
BLACK
6
CONTINUOUS
10
6.0828705118110236
20
-4.5361203543307083
11
6.0828705118110236
21
-4.5586175196850389
0
LINE
8
BLACK
6
CONTINUOUS
10
6.0828705118110236
20
-4.5586175196850389
11
6.0791209842519685
21
-4.5661165748031491
0
LINE
8
BLACK
6
CONTINUOUS
10
6.0791209842519685
20
-4.5661165748031491
11
6.0753714566929133
21
-4.569866141732283
0
LINE
8
BLACK
6
CONTINUOUS
10
6.0753714566929133
20
-4.569866141732283
11
6.0678724015748031
21
-4.5736156692913381
0
LINE
8
BLACK
6
CONTINUOUS
10
6.0678724015748031
20
-4.5736156692913381
11
6.0528742519685039
21
-4.5736156692913381
0
LINE
8
BLACK
6
CONTINUOUS
10
6.0528742519685039
20
-4.5736156692913381
11
6.0453751968503937
21
-4.569866141732283
0
LINE
8
BLACK
6
CONTINUOUS
10
6.1166162992125983
20
-4.5661165748031491
11
6.1203658267716534
21
-4.569866141732283
0
LINE
8
BLACK
6
CONTINUOUS
10
6.1203658267716534
20
-4.569866141732283
11
6.1166162992125983
21
-4.5736156692913381
0
LINE
8
BLACK
6
CONTINUOUS
10
6.1166162992125983
20
-4.5736156692913381
11
6.1128667716535432
21
-4.569866141732283
0
LINE
8
BLACK
6
CONTINUOUS
10
6.1128667716535432
20
-4.569866141732283
11
6.1166162992125983
21
-4.5661165748031491
0
LINE
8
BLACK
6
CONTINUOUS
10
6.1166162992125983
20
-4.5661165748031491
11
6.1166162992125983
21
-4.5736156692913381
0
LINE
8
BLACK
6
CONTINUOUS
10
6.1166162992125983
20
-4.5248717322834642
11
6.1203658267716534
21
-4.5286212598425193
0
LINE
8
BLACK
6
CONTINUOUS
10
6.1203658267716534
20
-4.5286212598425193
11
6.1166162992125983
21
-4.5323708267716531
0
LINE
8
BLACK
6
CONTINUOUS
10
6.1166162992125983
20
-4.5323708267716531
11
6.1128667716535432
21
-4.5286212598425193
0
LINE
8
BLACK
6
CONTINUOUS
10
6.1128667716535432
20
-4.5286212598425193
11
6.1166162992125983
21
-4.5248717322834642
0
LINE
8
BLACK
6
CONTINUOUS
10
6.1166162992125983
20
-4.5248717322834642
11
6.1166162992125983
21
-4.5323708267716531
0
LINE
8
BLACK
6
CONTINUOUS
10
5.4310157480314958
20
-4.6814527559055117
11
5.4740157480314959
21
-4.7244527559055118
0
LINE
8
BLACK
6
CONTINUOUS
10
5.4740157480314959
20
-4.6814527559055117
11
5.4310157480314958
21
-4.7244527559055118
0
LINE
8
BLACK
6
CONTINUOUS
10
5.617928622047244
20
-4.7389700000000001
11
5.5729342519685039
21
-4.7389700000000001
0
LINE
8
BLACK
6
CONTINUOUS
10
5.5954314173228346
20
-4.7389700000000001
11
5.5954314173228346
21
-4.6602298425196853
0
LINE
8
BLACK
6
CONTINUOUS
10
5.5954314173228346
20
-4.6602298425196853
11
5.5879323622047243
21
-4.6714784251968506
0
LINE
8
BLACK
6
CONTINUOUS
10
5.5879323622047243
20
-4.6714784251968506
11
5.5804333070866141
21
-4.6789774803149609
0
LINE
8
BLACK
6
CONTINUOUS
10
5.5804333070866141
20
-4.6789774803149609
11
5.5729342519685039
21
-4.682727007874016
0
LINE
8
BLACK
6
CONTINUOUS
10
5.6516744094488187
20
-4.7314709055118112
11
5.6554239370078738
21
-4.735220472440945
0
LINE
8
BLACK
6
CONTINUOUS
10
5.6554239370078738
20
-4.735220472440945
11
5.6516744094488187
21
-4.7389700000000001
0
LINE
8
BLACK
6
CONTINUOUS
10
5.6516744094488187
20
-4.7389700000000001
11
5.6479248818897636
21
-4.735220472440945
0
LINE
8
BLACK
6
CONTINUOUS
10
5.6479248818897636
20
-4.735220472440945
11
5.6516744094488187
21
-4.7314709055118112
0
LINE
8
BLACK
6
CONTINUOUS
10
5.6516744094488187
20
-4.7314709055118112
11
5.6516744094488187
21
-4.7389700000000001
0
LINE
8
BLACK
6
CONTINUOUS
10
5.704167834645669
20
-4.6602298425196853
11
5.711666929133858
21
-4.6602298425196853
0
LINE
8
BLACK
6
CONTINUOUS
10
5.711666929133858
20
-4.6602298425196853
11
5.7191659842519682
21
-4.6639793700787404
0
LINE
8
BLACK
6
CONTINUOUS
10
5.7191659842519682
20
-4.6639793700787404
11
5.7229155118110233
21
-4.6677288976377955
0
LINE
8
BLACK
6
CONTINUOUS
10
5.7229155118110233
20
-4.6677288976377955
11
5.7266650393700784
21
-4.6752279527559057
0
LINE
8
BLACK
6
CONTINUOUS
10
5.7266650393700784
20
-4.6752279527559057
11
5.7304145669291335
21
-4.6902260629921262
0
LINE
8
BLACK
6
CONTINUOUS
10
5.7304145669291335
20
-4.6902260629921262
11
5.7304145669291335
21
-4.7089737401574805
0
LINE
8
BLACK
6
CONTINUOUS
10
5.7304145669291335
20
-4.7089737401574805
11
5.7266650393700784
21
-4.7239718503937009
0
LINE
8
BLACK
6
CONTINUOUS
10
5.7266650393700784
20
-4.7239718503937009
11
5.7229155118110233
21
-4.7314709055118112
0
LINE
8
BLACK
6
CONTINUOUS
10
5.7229155118110233
20
-4.7314709055118112
11
5.7191659842519682
21
-4.735220472440945
0
LINE
8
BLACK
6
CONTINUOUS
10
5.7191659842519682
20
-4.735220472440945
11
5.711666929133858
21
-4.7389700000000001
0
LINE
8
BLACK
6
CONTINUOUS
10
5.711666929133858
20
-4.7389700000000001
11
5.704167834645669
21
-4.7389700000000001
0
LINE
8
BLACK
6
CONTINUOUS
10
5.704167834645669
20
-4.7389700000000001
11
5.6966687795275588
21
-4.735220472440945
0
LINE
8
BLACK
6
CONTINUOUS
10
5.6966687795275588
20
-4.735220472440945
11
5.6929192519685037
21
-4.7314709055118112
0
LINE
8
BLACK
6
CONTINUOUS
10
5.6929192519685037
20
-4.7314709055118112
11
5.6891697244094486
21
-4.7239718503937009
0
LINE
8
BLACK
6
CONTINUOUS
10
5.6891697244094486
20
-4.7239718503937009
11
5.6854201968503935
21
-4.7089737401574805
0
LINE
8
BLACK
6
CONTINUOUS
10
5.6854201968503935
20
-4.7089737401574805
11
5.6854201968503935
21
-4.6902260629921262
0
LINE
8
BLACK
6
CONTINUOUS
10
5.6854201968503935
20
-4.6902260629921262
11
5.6891697244094486
21
-4.6752279527559057
0
LINE
8
BLACK
6
CONTINUOUS
10
5.6891697244094486
20
-4.6752279527559057
11
5.6929192519685037
21
-4.6677288976377955
0
LINE
8
BLACK
6
CONTINUOUS
10
5.6929192519685037
20
-4.6677288976377955
11
5.6966687795275588
21
-4.6639793700787404
0
LINE
8
BLACK
6
CONTINUOUS
10
5.6966687795275588
20
-4.6639793700787404
11
5.704167834645669
21
-4.6602298425196853
0
LINE
8
BLACK
6
CONTINUOUS
10
5.7679098818897634
20
-4.7389700000000001
11
5.7829079921259838
21
-4.7389700000000001
0
LINE
8
BLACK
6
CONTINUOUS
10
5.7829079921259838
20
-4.7389700000000001
11
5.7904070866141728
21
-4.735220472440945
0
LINE
8
BLACK
6
CONTINUOUS
10
5.7904070866141728
20
-4.735220472440945
11
5.7941566141732279
21
-4.7314709055118112
0
LINE
8
BLACK
6
CONTINUOUS
10
5.7941566141732279
20
-4.7314709055118112
11
5.8016556692913381
21
-4.7202223228346458
0
LINE
8
BLACK
6
CONTINUOUS
10
5.8016556692913381
20
-4.7202223228346458
11
5.8054051968503932
21
-4.7052242125984254
0
LINE
8
BLACK
6
CONTINUOUS
10
5.8054051968503932
20
-4.7052242125984254
11
5.8054051968503932
21
-4.6752279527559057
0
LINE
8
BLACK
6
CONTINUOUS
10
5.8054051968503932
20
-4.6752279527559057
11
5.8016556692913381
21
-4.6677288976377955
0
LINE
8
BLACK
6
CONTINUOUS
10
5.8016556692913381
20
-4.6677288976377955
11
5.797906141732283
21
-4.6639793700787404
0
LINE
8
BLACK
6
CONTINUOUS
10
5.797906141732283
20
-4.6639793700787404
11
5.7904070866141728
21
-4.6602298425196853
0
LINE
8
BLACK
6
CONTINUOUS
10
5.7904070866141728
20
-4.6602298425196853
11
5.7754089370078736
21
-4.6602298425196853
0
LINE
8
BLACK
6
CONTINUOUS
10
5.7754089370078736
20
-4.6602298425196853
11
5.7679098818897634
21
-4.6639793700787404
0
LINE
8
BLACK
6
CONTINUOUS
10
5.7679098818897634
20
-4.6639793700787404
11
5.7641603543307083
21
-4.6677288976377955
0
LINE
8
BLACK
6
CONTINUOUS
10
5.7641603543307083
20
-4.6677288976377955
11
5.7604108267716532
21
-4.6752279527559057
0
LINE
8
BLACK
6
CONTINUOUS
10
5.7604108267716532
20
-4.6752279527559057
11
5.7604108267716532
21
-4.6939755905511813
0
LINE
8
BLACK
6
CONTINUOUS
10
5.7604108267716532
20
-4.6939755905511813
11
5.7641603543307083
21
-4.7014746850393703
0
LINE
8
BLACK
6
CONTINUOUS
10
5.7641603543307083
20
-4.7014746850393703
11
5.7679098818897634
21
-4.7052242125984254
0
LINE
8
BLACK
6
CONTINUOUS
10
5.7679098818897634
20
-4.7052242125984254
11
5.7754089370078736
21
-4.7089737401574805
0
LINE
8
BLACK
6
CONTINUOUS
10
5.7754089370078736
20
-4.7089737401574805
11
5.7904070866141728
21
-4.7089737401574805
0
LINE
8
BLACK
6
CONTINUOUS
10
5.7904070866141728
20
-4.7089737401574805
11
5.797906141732283
21
-4.7052242125984254
0
LINE
8
BLACK
6
CONTINUOUS
10
5.797906141732283
20
-4.7052242125984254
11
5.8016556692913381
21
-4.7014746850393703
0
LINE
8
BLACK
6
CONTINUOUS
10
5.8016556692913381
20
-4.7014746850393703
11
5.8054051968503932
21
-4.6939755905511813
0
LINE
8
BLACK
6
CONTINUOUS
10
5.8354014566929129
20
-4.6677288976377955
11
5.839150984251968
21
-4.6639793700787404
0
LINE
8
BLACK
6
CONTINUOUS
10
5.839150984251968
20
-4.6639793700787404
11
5.8466500393700782
21
-4.6602298425196853
0
LINE
8
BLACK
6
CONTINUOUS
10
5.8466500393700782
20
-4.6602298425196853
11
5.8653977165354325
21
-4.6602298425196853
0
LINE
8
BLACK
6
CONTINUOUS
10
5.8653977165354325
20
-4.6602298425196853
11
5.8728967716535427
21
-4.6639793700787404
0
LINE
8
BLACK
6
CONTINUOUS
10
5.8728967716535427
20
-4.6639793700787404
11
5.8766462992125987
21
-4.6677288976377955
0
LINE
8
BLACK
6
CONTINUOUS
10
5.8766462992125987
20
-4.6677288976377955
11
5.8803958267716538
21
-4.6752279527559057
0
LINE
8
BLACK
6
CONTINUOUS
10
5.8803958267716538
20
-4.6752279527559057
11
5.8803958267716538
21
-4.682727007874016
0
LINE
8
BLACK
6
CONTINUOUS
10
5.8803958267716538
20
-4.682727007874016
11
5.8766462992125987
21
-4.6939755905511813
0
LINE
8
BLACK
6
CONTINUOUS
10
5.8766462992125987
20
-4.6939755905511813
11
5.8316519291338578
21
-4.7389700000000001
0
LINE
8
BLACK
6
CONTINUOUS
10
5.8316519291338578
20
-4.7389700000000001
11
5.8803958267716538
21
-4.7389700000000001
0
LINE
8
BLACK
6
CONTINUOUS
10
5.9141416141732286
20
-4.7389700000000001
11
5.9141416141732286
21
-4.6864765354330711
0
LINE
8
BLACK
6
CONTINUOUS
10
5.9141416141732286
20
-4.6939755905511813
11
5.9178911417322837
21
-4.6902260629921262
0
LINE
8
BLACK
6
CONTINUOUS
10
5.9178911417322837
20
-4.6902260629921262
11
5.9253901968503939
21
-4.6864765354330711
0
LINE
8
BLACK
6
CONTINUOUS
10
5.9253901968503939
20
-4.6864765354330711
11
5.936638818897638
21
-4.6864765354330711
0
LINE
8
BLACK
6
CONTINUOUS
10
5.936638818897638
20
-4.6864765354330711
11
5.9441378740157482
21
-4.6902260629921262
0
LINE
8
BLACK
6
CONTINUOUS
10
5.9441378740157482
20
-4.6902260629921262
11
5.9478874015748033
21
-4.6977251574803152
0
LINE
8
BLACK
6
CONTINUOUS
10
5.9478874015748033
20
-4.6977251574803152
11
5.9478874015748033
21
-4.7389700000000001
0
LINE
8
BLACK
6
CONTINUOUS
10
5.9478874015748033
20
-4.6977251574803152
11
5.9516369291338584
21
-4.6902260629921262
0
LINE
8
BLACK
6
CONTINUOUS
10
5.9516369291338584
20
-4.6902260629921262
11
5.9591359842519687
21
-4.6864765354330711
0
LINE
8
BLACK
6
CONTINUOUS
10
5.9591359842519687
20
-4.6864765354330711
11
5.970384566929134
21
-4.6864765354330711
0
LINE
8
BLACK
6
CONTINUOUS
10
5.970384566929134
20
-4.6864765354330711
11
5.977883661417323
21
-4.6902260629921262
0
LINE
8
BLACK
6
CONTINUOUS
10
5.977883661417323
20
-4.6902260629921262
11
5.9816331889763781
21
-4.6977251574803152
0
LINE
8
BLACK
6
CONTINUOUS
10
5.9816331889763781
20
-4.6977251574803152
11
5.9816331889763781
21
-4.7389700000000001
0
LINE
8
BLACK
6
CONTINUOUS
10
6.0191285039370079
20
-4.7389700000000001
11
6.0191285039370079
21
-4.6864765354330711
0
LINE
8
BLACK
6
CONTINUOUS
10
6.0191285039370079
20
-4.6939755905511813
11
6.022878031496063
21
-4.6902260629921262
0
LINE
8
BLACK
6
CONTINUOUS
10
6.022878031496063
20
-4.6902260629921262
11
6.0303770866141733
21
-4.6864765354330711
0
LINE
8
BLACK
6
CONTINUOUS
10
6.0303770866141733
20
-4.6864765354330711
11
6.0416257086614173
21
-4.6864765354330711
0
LINE
8
BLACK
6
CONTINUOUS
10
6.0416257086614173
20
-4.6864765354330711
11
6.0491247637795276
21
-4.6902260629921262
0
LINE
8
BLACK
6
CONTINUOUS
10
6.0491247637795276
20
-4.6902260629921262
11
6.0528742913385827
21
-4.6977251574803152
0
LINE
8
BLACK
6
CONTINUOUS
10
6.0528742913385827
20
-4.6977251574803152
11
6.0528742913385827
21
-4.7389700000000001
0
LINE
8
BLACK
6
CONTINUOUS
10
6.0528742913385827
20
-4.6977251574803152
11
6.0566238188976378
21
-4.6902260629921262
0
LINE
8
BLACK
6
CONTINUOUS
10
6.0566238188976378
20
-4.6902260629921262
11
6.064122874015748
21
-4.6864765354330711
0
LINE
8
BLACK
6
CONTINUOUS
10
6.064122874015748
20
-4.6864765354330711
11
6.0753714566929133
21
-4.6864765354330711
0
LINE
8
BLACK
6
CONTINUOUS
10
6.0753714566929133
20
-4.6864765354330711
11
6.0828705511811023
21
-4.6902260629921262
0
LINE
8
BLACK
6
CONTINUOUS
10
6.0828705511811023
20
-4.6902260629921262
11
6.0866200787401574
21
-4.6977251574803152
0
LINE
8
BLACK
6
CONTINUOUS
10
6.0866200787401574
20
-4.6977251574803152
11
6.0866200787401574
21
-4.7389700000000001
0
LINE
8
BLACK
6
CONTINUOUS
10
6.240350866141732
20
-4.6564803149606302
11
6.1728593307086612
21
-4.7577176377952757
0
LINE
8
BLACK
6
CONTINUOUS
10
6.3415882283464562
20
-4.6602298425196853
11
6.3490873228346452
21
-4.6602298425196853
0
LINE
8
BLACK
6
CONTINUOUS
10
6.3490873228346452
20
-4.6602298425196853
11
6.3565863779527554
21
-4.6639793700787404
0
LINE
8
BLACK
6
CONTINUOUS
10
6.3565863779527554
20
-4.6639793700787404
11
6.3603359055118105
21
-4.6677288976377955
0
LINE
8
BLACK
6
CONTINUOUS
10
6.3603359055118105
20
-4.6677288976377955
11
6.3640854330708656
21
-4.6752279527559057
0
LINE
8
BLACK
6
CONTINUOUS
10
6.3640854330708656
20
-4.6752279527559057
11
6.3678349606299207
21
-4.6902260629921262
0
LINE
8
BLACK
6
CONTINUOUS
10
6.3678349606299207
20
-4.6902260629921262
11
6.3678349606299207
21
-4.7089737401574805
0
LINE
8
BLACK
6
CONTINUOUS
10
6.3678349606299207
20
-4.7089737401574805
11
6.3640854330708656
21
-4.7239718503937009
0
LINE
8
BLACK
6
CONTINUOUS
10
6.3640854330708656
20
-4.7239718503937009
11
6.3603359055118105
21
-4.7314709055118112
0
LINE
8
BLACK
6
CONTINUOUS
10
6.3603359055118105
20
-4.7314709055118112
11
6.3565863779527554
21
-4.735220472440945
0
LINE
8
BLACK
6
CONTINUOUS
10
6.3565863779527554
20
-4.735220472440945
11
6.3490873228346452
21
-4.7389700000000001
0
LINE
8
BLACK
6
CONTINUOUS
10
6.3490873228346452
20
-4.7389700000000001
11
6.3415882283464562
21
-4.7389700000000001
0
LINE
8
BLACK
6
CONTINUOUS
10
6.3415882283464562
20
-4.7389700000000001
11
6.334089173228346
21
-4.735220472440945
0
LINE
8
BLACK
6
CONTINUOUS
10
6.334089173228346
20
-4.735220472440945
11
6.3303396456692909
21
-4.7314709055118112
0
LINE
8
BLACK
6
CONTINUOUS
10
6.3303396456692909
20
-4.7314709055118112
11
6.3265901181102357
21
-4.7239718503937009
0
LINE
8
BLACK
6
CONTINUOUS
10
6.3265901181102357
20
-4.7239718503937009
11
6.3228405905511806
21
-4.7089737401574805
0
LINE
8
BLACK
6
CONTINUOUS
10
6.3228405905511806
20
-4.7089737401574805
11
6.3228405905511806
21
-4.6902260629921262
0
LINE
8
BLACK
6
CONTINUOUS
10
6.3228405905511806
20
-4.6902260629921262
11
6.3265901181102357
21
-4.6752279527559057
0
LINE
8
BLACK
6
CONTINUOUS
10
6.3265901181102357
20
-4.6752279527559057
11
6.3303396456692909
21
-4.6677288976377955
0
LINE
8
BLACK
6
CONTINUOUS
10
6.3303396456692909
20
-4.6677288976377955
11
6.334089173228346
21
-4.6639793700787404
0
LINE
8
BLACK
6
CONTINUOUS
10
6.334089173228346
20
-4.6639793700787404
11
6.3415882283464562
21
-4.6602298425196853
0
LINE
8
BLACK
6
CONTINUOUS
10
6.4015807480314963
20
-4.7314709055118112
11
6.4053302755905515
21
-4.735220472440945
0
LINE
8
BLACK
6
CONTINUOUS
10
6.4053302755905515
20
-4.735220472440945
11
6.4015807480314963
21
-4.7389700000000001
0
LINE
8
BLACK
6
CONTINUOUS
10
6.4015807480314963
20
-4.7389700000000001
11
6.3978312204724412
21
-4.735220472440945
0
LINE
8
BLACK
6
CONTINUOUS
10
6.3978312204724412
20
-4.735220472440945
11
6.4015807480314963
21
-4.7314709055118112
0
LINE
8
BLACK
6
CONTINUOUS
10
6.4015807480314963
20
-4.7314709055118112
11
6.4015807480314963
21
-4.7389700000000001
0
LINE
8
BLACK
6
CONTINUOUS
10
6.4540741732283466
20
-4.6602298425196853
11
6.4615732677165356
21
-4.6602298425196853
0
LINE
8
BLACK
6
CONTINUOUS
10
6.4615732677165356
20
-4.6602298425196853
11
6.4690723228346458
21
-4.6639793700787404
0
LINE
8
BLACK
6
CONTINUOUS
10
6.4690723228346458
20
-4.6639793700787404
11
6.4728218503937009
21
-4.6677288976377955
0
LINE
8
BLACK
6
CONTINUOUS
10
6.4728218503937009
20
-4.6677288976377955
11
6.4765713779527561
21
-4.6752279527559057
0
LINE
8
BLACK
6
CONTINUOUS
10
6.4765713779527561
20
-4.6752279527559057
11
6.4803209055118112
21
-4.6902260629921262
0
LINE
8
BLACK
6
CONTINUOUS
10
6.4803209055118112
20
-4.6902260629921262
11
6.4803209055118112
21
-4.7089737401574805
0
LINE
8
BLACK
6
CONTINUOUS
10
6.4803209055118112
20
-4.7089737401574805
11
6.4765713779527561
21
-4.7239718503937009
0
LINE
8
BLACK
6
CONTINUOUS
10
6.4765713779527561
20
-4.7239718503937009
11
6.4728218503937009
21
-4.7314709055118112
0
LINE
8
BLACK
6
CONTINUOUS
10
6.4728218503937009
20
-4.7314709055118112
11
6.4690723228346458
21
-4.735220472440945
0
LINE
8
BLACK
6
CONTINUOUS
10
6.4690723228346458
20
-4.735220472440945
11
6.4615732677165356
21
-4.7389700000000001
0
LINE
8
BLACK
6
CONTINUOUS
10
6.4615732677165356
20
-4.7389700000000001
11
6.4540741732283466
21
-4.7389700000000001
0
LINE
8
BLACK
6
CONTINUOUS
10
6.4540741732283466
20
-4.7389700000000001
11
6.4465751181102364
21
-4.735220472440945
0
LINE
8
BLACK
6
CONTINUOUS
10
6.4465751181102364
20
-4.735220472440945
11
6.4428255905511813
21
-4.7314709055118112
0
LINE
8
BLACK
6
CONTINUOUS
10
6.4428255905511813
20
-4.7314709055118112
11
6.4390760629921262
21
-4.7239718503937009
0
LINE
8
BLACK
6
CONTINUOUS
10
6.4390760629921262
20
-4.7239718503937009
11
6.4353265354330711
21
-4.7089737401574805
0
LINE
8
BLACK
6
CONTINUOUS
10
6.4353265354330711
20
-4.7089737401574805
11
6.4353265354330711
21
-4.6902260629921262
0
LINE
8
BLACK
6
CONTINUOUS
10
6.4353265354330711
20
-4.6902260629921262
11
6.4390760629921262
21
-4.6752279527559057
0
LINE
8
BLACK
6
CONTINUOUS
10
6.4390760629921262
20
-4.6752279527559057
11
6.4428255905511813
21
-4.6677288976377955
0
LINE
8
BLACK
6
CONTINUOUS
10
6.4428255905511813
20
-4.6677288976377955
11
6.4465751181102364
21
-4.6639793700787404
0
LINE
8
BLACK
6
CONTINUOUS
10
6.4465751181102364
20
-4.6639793700787404
11
6.4540741732283466
21
-4.6602298425196853
0
LINE
8
BLACK
6
CONTINUOUS
10
6.5478124803149607
20
-4.6864765354330711
11
6.5478124803149607
21
-4.7389700000000001
0
LINE
8
BLACK
6
CONTINUOUS
10
6.5290648031496064
20
-4.6564803149606302
11
6.5103171653543308
21
-4.7127232677165356
0
LINE
8
BLACK
6
CONTINUOUS
10
6.5103171653543308
20
-4.7127232677165356
11
6.559061062992126
21
-4.7127232677165356
0
LINE
8
BLACK
6
CONTINUOUS
10
6.5815582677165354
20
-4.6602298425196853
11
6.6303021653543306
21
-4.6602298425196853
0
LINE
8
BLACK
6
CONTINUOUS
10
6.6303021653543306
20
-4.6602298425196853
11
6.6040554330708661
21
-4.6902260629921262
0
LINE
8
BLACK
6
CONTINUOUS
10
6.6040554330708661
20
-4.6902260629921262
11
6.6153040551181101
21
-4.6902260629921262
0
LINE
8
BLACK
6
CONTINUOUS
10
6.6153040551181101
20
-4.6902260629921262
11
6.6228031102362204
21
-4.6939755905511813
0
LINE
8
BLACK
6
CONTINUOUS
10
6.6228031102362204
20
-4.6939755905511813
11
6.6265526377952755
21
-4.6977251574803152
0
LINE
8
BLACK
6
CONTINUOUS
10
6.6265526377952755
20
-4.6977251574803152
11
6.6303021653543306
21
-4.7052242125984254
0
LINE
8
BLACK
6
CONTINUOUS
10
6.6303021653543306
20
-4.7052242125984254
11
6.6303021653543306
21
-4.7239718503937009
0
LINE
8
BLACK
6
CONTINUOUS
10
6.6303021653543306
20
-4.7239718503937009
11
6.6265526377952755
21
-4.7314709055118112
0
LINE
8
BLACK
6
CONTINUOUS
10
6.6265526377952755
20
-4.7314709055118112
11
6.6228031102362204
21
-4.735220472440945
0
LINE
8
BLACK
6
CONTINUOUS
10
6.6228031102362204
20
-4.735220472440945
11
6.6153040551181101
21
-4.7389700000000001
0
LINE
8
BLACK
6
CONTINUOUS
10
6.6153040551181101
20
-4.7389700000000001
11
6.5928068503937007
21
-4.7389700000000001
0
LINE
8
BLACK
6
CONTINUOUS
10
6.5928068503937007
20
-4.7389700000000001
11
6.5853077952755905
21
-4.735220472440945
0
LINE
8
BLACK
6
CONTINUOUS
10
6.5853077952755905
20
-4.735220472440945
11
6.5815582677165354
21
-4.7314709055118112
0
LINE
8
BLACK
6
CONTINUOUS
10
6.6790460629921258
20
-4.6602298425196853
11
6.6865451574803147
21
-4.6602298425196853
0
LINE
8
BLACK
6
CONTINUOUS
10
6.6865451574803147
20
-4.6602298425196853
11
6.694044212598425
21
-4.6639793700787404
0
LINE
8
BLACK
6
CONTINUOUS
10
6.694044212598425
20
-4.6639793700787404
11
6.6977937401574801
21
-4.6677288976377955
0
LINE
8
BLACK
6
CONTINUOUS
10
6.6977937401574801
20
-4.6677288976377955
11
6.7015432677165352
21
-4.6752279527559057
0
LINE
8
BLACK
6
CONTINUOUS
10
6.7015432677165352
20
-4.6752279527559057
11
6.7052927952755903
21
-4.6902260629921262
0
LINE
8
BLACK
6
CONTINUOUS
10
6.7052927952755903
20
-4.6902260629921262
11
6.7052927952755903
21
-4.7089737401574805
0
LINE
8
BLACK
6
CONTINUOUS
10
6.7052927952755903
20
-4.7089737401574805
11
6.7015432677165352
21
-4.7239718503937009
0
LINE
8
BLACK
6
CONTINUOUS
10
6.7015432677165352
20
-4.7239718503937009
11
6.6977937401574801
21
-4.7314709055118112
0
LINE
8
BLACK
6
CONTINUOUS
10
6.6977937401574801
20
-4.7314709055118112
11
6.694044212598425
21
-4.735220472440945
0
LINE
8
BLACK
6
CONTINUOUS
10
6.694044212598425
20
-4.735220472440945
11
6.6865451574803147
21
-4.7389700000000001
0
LINE
8
BLACK
6
CONTINUOUS
10
6.6865451574803147
20
-4.7389700000000001
11
6.6790460629921258
21
-4.7389700000000001
0
LINE
8
BLACK
6
CONTINUOUS
10
6.6790460629921258
20
-4.7389700000000001
11
6.6715470078740156
21
-4.735220472440945
0
LINE
8
BLACK
6
CONTINUOUS
10
6.6715470078740156
20
-4.735220472440945
11
6.6677974803149604
21
-4.7314709055118112
0
LINE
8
BLACK
6
CONTINUOUS
10
6.6677974803149604
20
-4.7314709055118112
11
6.6640479527559053
21
-4.7239718503937009
0
LINE
8
BLACK
6
CONTINUOUS
10
6.6640479527559053
20
-4.7239718503937009
11
6.6602984251968502
21
-4.7089737401574805
0
LINE
8
BLACK
6
CONTINUOUS
10
6.6602984251968502
20
-4.7089737401574805
11
6.6602984251968502
21
-4.6902260629921262
0
LINE
8
BLACK
6
CONTINUOUS
10
6.6602984251968502
20
-4.6902260629921262
11
6.6640479527559053
21
-4.6752279527559057
0
LINE
8
BLACK
6
CONTINUOUS
10
6.6640479527559053
20
-4.6752279527559057
11
6.6677974803149604
21
-4.6677288976377955
0
LINE
8
BLACK
6
CONTINUOUS
10
6.6677974803149604
20
-4.6677288976377955
11
6.6715470078740156
21
-4.6639793700787404
0
LINE
8
BLACK
6
CONTINUOUS
10
6.6715470078740156
20
-4.6639793700787404
11
6.6790460629921258
21
-4.6602298425196853
0
LINE
8
BLACK
6
CONTINUOUS
10
6.7352890551181099
20
-4.6602298425196853
11
6.7352890551181099
21
-4.6752279527559057
0
LINE
8
BLACK
6
CONTINUOUS
10
6.7652853149606296
20
-4.6602298425196853
11
6.7652853149606296
21
-4.6752279527559057
0
LINE
8
BLACK
6
CONTINUOUS
10
6.881520826771653
20
-4.768966220472441
11
6.8777712598425191
21
-4.7652166929133859
0
LINE
8
BLACK
6
CONTINUOUS
10
6.8777712598425191
20
-4.7652166929133859
11
6.8702722047244089
21
-4.7539681102362206
0
LINE
8
BLACK
6
CONTINUOUS
10
6.8702722047244089
20
-4.7539681102362206
11
6.8665226771653538
21
-4.7464690551181103
0
LINE
8
BLACK
6
CONTINUOUS
10
6.8665226771653538
20
-4.7464690551181103
11
6.8627731496062987
21
-4.735220472440945
0
LINE
8
BLACK
6
CONTINUOUS
10
6.8627731496062987
20
-4.735220472440945
11
6.8590236220472436
21
-4.7164727952755907
0
LINE
8
BLACK
6
CONTINUOUS
10
6.8590236220472436
20
-4.7164727952755907
11
6.8590236220472436
21
-4.7014746850393703
0
LINE
8
BLACK
6
CONTINUOUS
10
6.8590236220472436
20
-4.7014746850393703
11
6.8627731496062987
21
-4.682727007874016
0
LINE
8
BLACK
6
CONTINUOUS
10
6.8627731496062987
20
-4.682727007874016
11
6.8665226771653538
21
-4.6714784251968506
0
LINE
8
BLACK
6
CONTINUOUS
10
6.8665226771653538
20
-4.6714784251968506
11
6.8702722047244089
21
-4.6639793700787404
0
LINE
8
BLACK
6
CONTINUOUS
10
6.8702722047244089
20
-4.6639793700787404
11
6.8777712598425191
21
-4.6527307480314963
0
LINE
8
BLACK
6
CONTINUOUS
10
6.8777712598425191
20
-4.6527307480314963
11
6.881520826771653
21
-4.6489812204724412
0
LINE
8
BLACK
6
CONTINUOUS
10
6.9227656299212601
20
-4.6939755905511813
11
6.9152665748031499
21
-4.6902260629921262
0
LINE
8
BLACK
6
CONTINUOUS
10
6.9152665748031499
20
-4.6902260629921262
11
6.9115170472440948
21
-4.6864765354330711
0
LINE
8
BLACK
6
CONTINUOUS
10
6.9115170472440948
20
-4.6864765354330711
11
6.9077675196850388
21
-4.6789774803149609
0
LINE
8
BLACK
6
CONTINUOUS
10
6.9077675196850388
20
-4.6789774803149609
11
6.9077675196850388
21
-4.6752279527559057
0
LINE
8
BLACK
6
CONTINUOUS
10
6.9077675196850388
20
-4.6752279527559057
11
6.9115170472440948
21
-4.6677288976377955
0
LINE
8
BLACK
6
CONTINUOUS
10
6.9115170472440948
20
-4.6677288976377955
11
6.9152665748031499
21
-4.6639793700787404
0
LINE
8
BLACK
6
CONTINUOUS
10
6.9152665748031499
20
-4.6639793700787404
11
6.9227656299212601
21
-4.6602298425196853
0
LINE
8
BLACK
6
CONTINUOUS
10
6.9227656299212601
20
-4.6602298425196853
11
6.9377637795275593
21
-4.6602298425196853
0
LINE
8
BLACK
6
CONTINUOUS
10
6.9377637795275593
20
-4.6602298425196853
11
6.9452628346456695
21
-4.6639793700787404
0
LINE
8
BLACK
6
CONTINUOUS
10
6.9452628346456695
20
-4.6639793700787404
11
6.9490123622047246
21
-4.6677288976377955
0
LINE
8
BLACK
6
CONTINUOUS
10
6.9490123622047246
20
-4.6677288976377955
11
6.9527618897637797
21
-4.6752279527559057
0
LINE
8
BLACK
6
CONTINUOUS
10
6.9527618897637797
20
-4.6752279527559057
11
6.9527618897637797
21
-4.6789774803149609
0
LINE
8
BLACK
6
CONTINUOUS
10
6.9527618897637797
20
-4.6789774803149609
11
6.9490123622047246
21
-4.6864765354330711
0
LINE
8
BLACK
6
CONTINUOUS
10
6.9490123622047246
20
-4.6864765354330711
11
6.9452628346456695
21
-4.6902260629921262
0
LINE
8
BLACK
6
CONTINUOUS
10
6.9452628346456695
20
-4.6902260629921262
11
6.9377637795275593
21
-4.6939755905511813
0
LINE
8
BLACK
6
CONTINUOUS
10
6.9377637795275593
20
-4.6939755905511813
11
6.9227656299212601
21
-4.6939755905511813
0
LINE
8
BLACK
6
CONTINUOUS
10
6.9227656299212601
20
-4.6939755905511813
11
6.9152665748031499
21
-4.6977251574803152
0
LINE
8
BLACK
6
CONTINUOUS
10
6.9152665748031499
20
-4.6977251574803152
11
6.9115170472440948
21
-4.7014746850393703
0
LINE
8
BLACK
6
CONTINUOUS
10
6.9115170472440948
20
-4.7014746850393703
11
6.9077675196850388
21
-4.7089737401574805
0
LINE
8
BLACK
6
CONTINUOUS
10
6.9077675196850388
20
-4.7089737401574805
11
6.9077675196850388
21
-4.7239718503937009
0
LINE
8
BLACK
6
CONTINUOUS
10
6.9077675196850388
20
-4.7239718503937009
11
6.9115170472440948
21
-4.7314709055118112
0
LINE
8
BLACK
6
CONTINUOUS
10
6.9115170472440948
20
-4.7314709055118112
11
6.9152665748031499
21
-4.735220472440945
0
LINE
8
BLACK
6
CONTINUOUS
10
6.9152665748031499
20
-4.735220472440945
11
6.9227656299212601
21
-4.7389700000000001
0
LINE
8
BLACK
6
CONTINUOUS
10
6.9227656299212601
20
-4.7389700000000001
11
6.9377637795275593
21
-4.7389700000000001
0
LINE
8
BLACK
6
CONTINUOUS
10
6.9377637795275593
20
-4.7389700000000001
11
6.9452628346456695
21
-4.735220472440945
0
LINE
8
BLACK
6
CONTINUOUS
10
6.9452628346456695
20
-4.735220472440945
11
6.9490123622047246
21
-4.7314709055118112
0
LINE
8
BLACK
6
CONTINUOUS
10
6.9490123622047246
20
-4.7314709055118112
11
6.9527618897637797
21
-4.7239718503937009
0
LINE
8
BLACK
6
CONTINUOUS
10
6.9527618897637797
20
-4.7239718503937009
11
6.9527618897637797
21
-4.7089737401574805
0
LINE
8
BLACK
6
CONTINUOUS
10
6.9527618897637797
20
-4.7089737401574805
11
6.9490123622047246
21
-4.7014746850393703
0
LINE
8
BLACK
6
CONTINUOUS
10
6.9490123622047246
20
-4.7014746850393703
11
6.9452628346456695
21
-4.6977251574803152
0
LINE
8
BLACK
6
CONTINUOUS
10
6.9452628346456695
20
-4.6977251574803152
11
6.9377637795275593
21
-4.6939755905511813
0
LINE
8
BLACK
6
CONTINUOUS
10
7.0465001968503937
20
-4.7389700000000001
11
7.0465001968503937
21
-4.6602298425196853
0
LINE
8
BLACK
6
CONTINUOUS
10
7.0802459842519685
20
-4.7389700000000001
11
7.0802459842519685
21
-4.6977251574803152
0
LINE
8
BLACK
6
CONTINUOUS
10
7.0802459842519685
20
-4.6977251574803152
11
7.0764964566929134
21
-4.6902260629921262
0
LINE
8
BLACK
6
CONTINUOUS
10
7.0764964566929134
20
-4.6902260629921262
11
7.0689974015748032
21
-4.6864765354330711
0
LINE
8
BLACK
6
CONTINUOUS
10
7.0689974015748032
20
-4.6864765354330711
11
7.0577487795275591
21
-4.6864765354330711
0
LINE
8
BLACK
6
CONTINUOUS
10
7.0577487795275591
20
-4.6864765354330711
11
7.0502497244094489
21
-4.6902260629921262
0
LINE
8
BLACK
6
CONTINUOUS
10
7.0502497244094489
20
-4.6902260629921262
11
7.0465001968503937
21
-4.6939755905511813
0
LINE
8
BLACK
6
CONTINUOUS
10
7.1289898818897637
20
-4.7389700000000001
11
7.1214908267716535
21
-4.735220472440945
0
LINE
8
BLACK
6
CONTINUOUS
10
7.1214908267716535
20
-4.735220472440945
11
7.1177412992125983
21
-4.7314709055118112
0
LINE
8
BLACK
6
CONTINUOUS
10
7.1177412992125983
20
-4.7314709055118112
11
7.1139917716535432
21
-4.7239718503937009
0
LINE
8
BLACK
6
CONTINUOUS
10
7.1139917716535432
20
-4.7239718503937009
11
7.1139917716535432
21
-4.7014746850393703
0
LINE
8
BLACK
6
CONTINUOUS
10
7.1139917716535432
20
-4.7014746850393703
11
7.1177412992125983
21
-4.6939755905511813
0
LINE
8
BLACK
6
CONTINUOUS
10
7.1177412992125983
20
-4.6939755905511813
11
7.1214908267716535
21
-4.6902260629921262
0
LINE
8
BLACK
6
CONTINUOUS
10
7.1214908267716535
20
-4.6902260629921262
11
7.1289898818897637
21
-4.6864765354330711
0
LINE
8
BLACK
6
CONTINUOUS
10
7.1289898818897637
20
-4.6864765354330711
11
7.1402385039370078
21
-4.6864765354330711
0
LINE
8
BLACK
6
CONTINUOUS
10
7.1402385039370078
20
-4.6864765354330711
11
7.147737559055118
21
-4.6902260629921262
0
LINE
8
BLACK
6
CONTINUOUS
10
7.147737559055118
20
-4.6902260629921262
11
7.1514870866141731
21
-4.6939755905511813
0
LINE
8
BLACK
6
CONTINUOUS
10
7.1514870866141731
20
-4.6939755905511813
11
7.1552366141732282
21
-4.7014746850393703
0
LINE
8
BLACK
6
CONTINUOUS
10
7.1552366141732282
20
-4.7014746850393703
11
7.1552366141732282
21
-4.7239718503937009
0
LINE
8
BLACK
6
CONTINUOUS
10
7.1552366141732282
20
-4.7239718503937009
11
7.1514870866141731
21
-4.7314709055118112
0
LINE
8
BLACK
6
CONTINUOUS
10
7.1514870866141731
20
-4.7314709055118112
11
7.147737559055118
21
-4.735220472440945
0
LINE
8
BLACK
6
CONTINUOUS
10
7.147737559055118
20
-4.735220472440945
11
7.1402385039370078
21
-4.7389700000000001
0
LINE
8
BLACK
6
CONTINUOUS
10
7.1402385039370078
20
-4.7389700000000001
11
7.1289898818897637
21
-4.7389700000000001
0
LINE
8
BLACK
6
CONTINUOUS
10
7.2002309842519683
20
-4.7389700000000001
11
7.1927319291338581
21
-4.735220472440945
0
LINE
8
BLACK
6
CONTINUOUS
10
7.1927319291338581
20
-4.735220472440945
11
7.1889824015748029
21
-4.727721377952756
0
LINE
8
BLACK
6
CONTINUOUS
10
7.1889824015748029
20
-4.727721377952756
11
7.1889824015748029
21
-4.6602298425196853
0
LINE
8
BLACK
6
CONTINUOUS
10
7.2602235039370075
20
-4.735220472440945
11
7.2527244488188973
21
-4.7389700000000001
0
LINE
8
BLACK
6
CONTINUOUS
10
7.2527244488188973
20
-4.7389700000000001
11
7.2377262992125981
21
-4.7389700000000001
0
LINE
8
BLACK
6
CONTINUOUS
10
7.2377262992125981
20
-4.7389700000000001
11
7.2302272440944879
21
-4.735220472440945
0
LINE
8
BLACK
6
CONTINUOUS
10
7.2302272440944879
20
-4.735220472440945
11
7.2264777165354328
21
-4.727721377952756
0
LINE
8
BLACK
6
CONTINUOUS
10
7.2264777165354328
20
-4.727721377952756
11
7.2264777165354328
21
-4.6977251574803152
0
LINE
8
BLACK
6
CONTINUOUS
10
7.2264777165354328
20
-4.6977251574803152
11
7.2302272440944879
21
-4.6902260629921262
0
LINE
8
BLACK
6
CONTINUOUS
10
7.2302272440944879
20
-4.6902260629921262
11
7.2377262992125981
21
-4.6864765354330711
0
LINE
8
BLACK
6
CONTINUOUS
10
7.2377262992125981
20
-4.6864765354330711
11
7.2527244488188973
21
-4.6864765354330711
0
LINE
8
BLACK
6
CONTINUOUS
10
7.2527244488188973
20
-4.6864765354330711
11
7.2602235039370075
21
-4.6902260629921262
0
LINE
8
BLACK
6
CONTINUOUS
10
7.2602235039370075
20
-4.6902260629921262
11
7.2639730314960627
21
-4.6977251574803152
0
LINE
8
BLACK
6
CONTINUOUS
10
7.2639730314960627
20
-4.6977251574803152
11
7.2639730314960627
21
-4.7052242125984254
0
LINE
8
BLACK
6
CONTINUOUS
10
7.2639730314960627
20
-4.7052242125984254
11
7.2264777165354328
21
-4.7127232677165356
0
LINE
8
BLACK
6
CONTINUOUS
10
7.2939692913385823
20
-4.735220472440945
11
7.3014683464566925
21
-4.7389700000000001
0
LINE
8
BLACK
6
CONTINUOUS
10
7.3014683464566925
20
-4.7389700000000001
11
7.316466456692913
21
-4.7389700000000001
0
LINE
8
BLACK
6
CONTINUOUS
10
7.316466456692913
20
-4.7389700000000001
11
7.3239655511811019
21
-4.735220472440945
0
LINE
8
BLACK
6
CONTINUOUS
10
7.3239655511811019
20
-4.735220472440945
11
7.327715078740157
21
-4.727721377952756
0
LINE
8
BLACK
6
CONTINUOUS
10
7.327715078740157
20
-4.727721377952756
11
7.327715078740157
21
-4.7239718503937009
0
LINE
8
BLACK
6
CONTINUOUS
10
7.327715078740157
20
-4.7239718503937009
11
7.3239655511811019
21
-4.7164727952755907
0
LINE
8
BLACK
6
CONTINUOUS
10
7.3239655511811019
20
-4.7164727952755907
11
7.316466456692913
21
-4.7127232677165356
0
LINE
8
BLACK
6
CONTINUOUS
10
7.316466456692913
20
-4.7127232677165356
11
7.3052178740157476
21
-4.7127232677165356
0
LINE
8
BLACK
6
CONTINUOUS
10
7.3052178740157476
20
-4.7127232677165356
11
7.2977188188976374
21
-4.7089737401574805
0
LINE
8
BLACK
6
CONTINUOUS
10
7.2977188188976374
20
-4.7089737401574805
11
7.2939692913385823
21
-4.7014746850393703
0
LINE
8
BLACK
6
CONTINUOUS
10
7.2939692913385823
20
-4.7014746850393703
11
7.2939692913385823
21
-4.6977251574803152
0
LINE
8
BLACK
6
CONTINUOUS
10
7.2939692913385823
20
-4.6977251574803152
11
7.2977188188976374
21
-4.6902260629921262
0
LINE
8
BLACK
6
CONTINUOUS
10
7.2977188188976374
20
-4.6902260629921262
11
7.3052178740157476
21
-4.6864765354330711
0
LINE
8
BLACK
6
CONTINUOUS
10
7.3052178740157476
20
-4.6864765354330711
11
7.316466456692913
21
-4.6864765354330711
0
LINE
8
BLACK
6
CONTINUOUS
10
7.316466456692913
20
-4.6864765354330711
11
7.3239655511811019
21
-4.6902260629921262
0
LINE
8
BLACK
6
CONTINUOUS
10
7.3539618110236216
20
-4.768966220472441
11
7.3577113385826767
21
-4.7652166929133859
0
LINE
8
BLACK
6
CONTINUOUS
10
7.3577113385826767
20
-4.7652166929133859
11
7.3652103937007869
21
-4.7539681102362206
0
LINE
8
BLACK
6
CONTINUOUS
10
7.3652103937007869
20
-4.7539681102362206
11
7.368959921259842
21
-4.7464690551181103
0
LINE
8
BLACK
6
CONTINUOUS
10
7.368959921259842
20
-4.7464690551181103
11
7.3727094488188971
21
-4.735220472440945
0
LINE
8
BLACK
6
CONTINUOUS
10
7.3727094488188971
20
-4.735220472440945
11
7.3764589763779522
21
-4.7164727952755907
0
LINE
8
BLACK
6
CONTINUOUS
10
7.3764589763779522
20
-4.7164727952755907
11
7.3764589763779522
21
-4.7014746850393703
0
LINE
8
BLACK
6
CONTINUOUS
10
7.3764589763779522
20
-4.7014746850393703
11
7.3727094488188971
21
-4.682727007874016
0
LINE
8
BLACK
6
CONTINUOUS
10
7.3727094488188971
20
-4.682727007874016
11
7.368959921259842
21
-4.6714784251968506
0
LINE
8
BLACK
6
CONTINUOUS
10
7.368959921259842
20
-4.6714784251968506
11
7.3652103937007869
21
-4.6639793700787404
0
LINE
8
BLACK
6
CONTINUOUS
10
7.3652103937007869
20
-4.6639793700787404
11
7.3577113385826767
21
-4.6527307480314963
0
LINE
8
BLACK
6
CONTINUOUS
10
7.3577113385826767
20
-4.6527307480314963
11
7.3539618110236216
21
-4.6489812204724412
0
CIRCLE
8
BLACK
10
5.4346456692913385
20
-4.8068897637795276
40
0.0393700787401575
0
LINE
8
BLACK
6
CONTINUOUS
10
5.5691847244094488
20
-4.7641668503937007
11
5.617928622047244
21
-4.7641668503937007
0
LINE
8
BLACK
6
CONTINUOUS
10
5.617928622047244
20
-4.7641668503937007
11
5.5916818897637794
21
-4.7941630708661416
0
LINE
8
BLACK
6
CONTINUOUS
10
5.5916818897637794
20
-4.7941630708661416
11
5.6029305118110235
21
-4.7941630708661416
0
LINE
8
BLACK
6
CONTINUOUS
10
5.6029305118110235
20
-4.7941630708661416
11
5.6104295669291337
21
-4.7979125984251967
0
LINE
8
BLACK
6
CONTINUOUS
10
5.6104295669291337
20
-4.7979125984251967
11
5.6141790944881889
21
-4.8016621653543305
0
LINE
8
BLACK
6
CONTINUOUS
10
5.6141790944881889
20
-4.8016621653543305
11
5.617928622047244
21
-4.8091612204724408
0
LINE
8
BLACK
6
CONTINUOUS
10
5.617928622047244
20
-4.8091612204724408
11
5.617928622047244
21
-4.8279088582677163
0
LINE
8
BLACK
6
CONTINUOUS
10
5.617928622047244
20
-4.8279088582677163
11
5.6141790944881889
21
-4.8354079133858265
0
LINE
8
BLACK
6
CONTINUOUS
10
5.6141790944881889
20
-4.8354079133858265
11
5.6104295669291337
21
-4.8391574803149604
0
LINE
8
BLACK
6
CONTINUOUS
10
5.6104295669291337
20
-4.8391574803149604
11
5.6029305118110235
21
-4.8429070078740155
0
LINE
8
BLACK
6
CONTINUOUS
10
5.6029305118110235
20
-4.8429070078740155
11
5.5804333070866141
21
-4.8429070078740155
0
LINE
8
BLACK
6
CONTINUOUS
10
5.5804333070866141
20
-4.8429070078740155
11
5.5729342519685039
21
-4.8391574803149604
0
LINE
8
BLACK
6
CONTINUOUS
10
5.5729342519685039
20
-4.8391574803149604
11
5.5691847244094488
21
-4.8354079133858265
0
LINE
8
BLACK
6
CONTINUOUS
10
5.6516744094488187
20
-4.8354079133858265
11
5.6554239370078738
21
-4.8391574803149604
0
LINE
8
BLACK
6
CONTINUOUS
10
5.6554239370078738
20
-4.8391574803149604
11
5.6516744094488187
21
-4.8429070078740155
0
LINE
8
BLACK
6
CONTINUOUS
10
5.6516744094488187
20
-4.8429070078740155
11
5.6479248818897636
21
-4.8391574803149604
0
LINE
8
BLACK
6
CONTINUOUS
10
5.6479248818897636
20
-4.8391574803149604
11
5.6516744094488187
21
-4.8354079133858265
0
LINE
8
BLACK
6
CONTINUOUS
10
5.6516744094488187
20
-4.8354079133858265
11
5.6516744094488187
21
-4.8429070078740155
0
LINE
8
BLACK
6
CONTINUOUS
10
5.7229155118110233
20
-4.7904135433070865
11
5.7229155118110233
21
-4.8429070078740155
0
LINE
8
BLACK
6
CONTINUOUS
10
5.704167834645669
20
-4.7604173228346456
11
5.6854201968503935
21
-4.816660275590551
0
LINE
8
BLACK
6
CONTINUOUS
10
5.6854201968503935
20
-4.816660275590551
11
5.7341640944881886
21
-4.816660275590551
0
LINE
8
BLACK
6
CONTINUOUS
10
5.7791584645669287
20
-4.7641668503937007
11
5.7866575590551177
21
-4.7641668503937007
0
LINE
8
BLACK
6
CONTINUOUS
10
5.7866575590551177
20
-4.7641668503937007
11
5.7941566141732279
21
-4.7679163779527558
0
LINE
8
BLACK
6
CONTINUOUS
10
5.7941566141732279
20
-4.7679163779527558
11
5.797906141732283
21
-4.7716659055118109
0
LINE
8
BLACK
6
CONTINUOUS
10
5.797906141732283
20
-4.7716659055118109
11
5.8016556692913381
21
-4.7791649606299211
0
LINE
8
BLACK
6
CONTINUOUS
10
5.8016556692913381
20
-4.7791649606299211
11
5.8054051968503932
21
-4.7941630708661416
0
LINE
8
BLACK
6
CONTINUOUS
10
5.8054051968503932
20
-4.7941630708661416
11
5.8054051968503932
21
-4.8129107480314959
0
LINE
8
BLACK
6
CONTINUOUS
10
5.8054051968503932
20
-4.8129107480314959
11
5.8016556692913381
21
-4.8279088582677163
0
LINE
8
BLACK
6
CONTINUOUS
10
5.8016556692913381
20
-4.8279088582677163
11
5.797906141732283
21
-4.8354079133858265
0
LINE
8
BLACK
6
CONTINUOUS
10
5.797906141732283
20
-4.8354079133858265
11
5.7941566141732279
21
-4.8391574803149604
0
LINE
8
BLACK
6
CONTINUOUS
10
5.7941566141732279
20
-4.8391574803149604
11
5.7866575590551177
21
-4.8429070078740155
0
LINE
8
BLACK
6
CONTINUOUS
10
5.7866575590551177
20
-4.8429070078740155
11
5.7791584645669287
21
-4.8429070078740155
0
LINE
8
BLACK
6
CONTINUOUS
10
5.7791584645669287
20
-4.8429070078740155
11
5.7716594094488185
21
-4.8391574803149604
0
LINE
8
BLACK
6
CONTINUOUS
10
5.7716594094488185
20
-4.8391574803149604
11
5.7679098818897634
21
-4.8354079133858265
0
LINE
8
BLACK
6
CONTINUOUS
10
5.7679098818897634
20
-4.8354079133858265
11
5.7641603543307083
21
-4.8279088582677163
0
LINE
8
BLACK
6
CONTINUOUS
10
5.7641603543307083
20
-4.8279088582677163
11
5.7604108267716532
21
-4.8129107480314959
0
LINE
8
BLACK
6
CONTINUOUS
10
5.7604108267716532
20
-4.8129107480314959
11
5.7604108267716532
21
-4.7941630708661416
0
LINE
8
BLACK
6
CONTINUOUS
10
5.7604108267716532
20
-4.7941630708661416
11
5.7641603543307083
21
-4.7791649606299211
0
LINE
8
BLACK
6
CONTINUOUS
10
5.7641603543307083
20
-4.7791649606299211
11
5.7679098818897634
21
-4.7716659055118109
0
LINE
8
BLACK
6
CONTINUOUS
10
5.7679098818897634
20
-4.7716659055118109
11
5.7716594094488185
21
-4.7679163779527558
0
LINE
8
BLACK
6
CONTINUOUS
10
5.7716594094488185
20
-4.7679163779527558
11
5.7791584645669287
21
-4.7641668503937007
0
LINE
8
BLACK
6
CONTINUOUS
10
5.8728967716535427
20
-4.7904135433070865
11
5.8728967716535427
21
-4.8429070078740155
0
LINE
8
BLACK
6
CONTINUOUS
10
5.8541490944881884
20
-4.7604173228346456
11
5.8354014566929129
21
-4.816660275590551
0
LINE
8
BLACK
6
CONTINUOUS
10
5.8354014566929129
20
-4.816660275590551
11
5.884145354330709
21
-4.816660275590551
0
LINE
8
BLACK
6
CONTINUOUS
10
5.9141416141732286
20
-4.8429070078740155
11
5.9141416141732286
21
-4.7904135433070865
0
LINE
8
BLACK
6
CONTINUOUS
10
5.9141416141732286
20
-4.7979125984251967
11
5.9178911417322837
21
-4.7941630708661416
0
LINE
8
BLACK
6
CONTINUOUS
10
5.9178911417322837
20
-4.7941630708661416
11
5.9253901968503939
21
-4.7904135433070865
0
LINE
8
BLACK
6
CONTINUOUS
10
5.9253901968503939
20
-4.7904135433070865
11
5.936638818897638
21
-4.7904135433070865
0
LINE
8
BLACK
6
CONTINUOUS
10
5.936638818897638
20
-4.7904135433070865
11
5.9441378740157482
21
-4.7941630708661416
0
LINE
8
BLACK
6
CONTINUOUS
10
5.9441378740157482
20
-4.7941630708661416
11
5.9478874015748033
21
-4.8016621653543305
0
LINE
8
BLACK
6
CONTINUOUS
10
5.9478874015748033
20
-4.8016621653543305
11
5.9478874015748033
21
-4.8429070078740155
0
LINE
8
BLACK
6
CONTINUOUS
10
5.9478874015748033
20
-4.8016621653543305
11
5.9516369291338584
21
-4.7941630708661416
0
LINE
8
BLACK
6
CONTINUOUS
10
5.9516369291338584
20
-4.7941630708661416
11
5.9591359842519687
21
-4.7904135433070865
0
LINE
8
BLACK
6
CONTINUOUS
10
5.9591359842519687
20
-4.7904135433070865
11
5.970384566929134
21
-4.7904135433070865
0
LINE
8
BLACK
6
CONTINUOUS
10
5.970384566929134
20
-4.7904135433070865
11
5.977883661417323
21
-4.7941630708661416
0
LINE
8
BLACK
6
CONTINUOUS
10
5.977883661417323
20
-4.7941630708661416
11
5.9816331889763781
21
-4.8016621653543305
0
LINE
8
BLACK
6
CONTINUOUS
10
5.9816331889763781
20
-4.8016621653543305
11
5.9816331889763781
21
-4.8429070078740155
0
LINE
8
BLACK
6
CONTINUOUS
10
6.0191285039370079
20
-4.8429070078740155
11
6.0191285039370079
21
-4.7904135433070865
0
LINE
8
BLACK
6
CONTINUOUS
10
6.0191285039370079
20
-4.7979125984251967
11
6.022878031496063
21
-4.7941630708661416
0
LINE
8
BLACK
6
CONTINUOUS
10
6.022878031496063
20
-4.7941630708661416
11
6.0303770866141733
21
-4.7904135433070865
0
LINE
8
BLACK
6
CONTINUOUS
10
6.0303770866141733
20
-4.7904135433070865
11
6.0416257086614173
21
-4.7904135433070865
0
LINE
8
BLACK
6
CONTINUOUS
10
6.0416257086614173
20
-4.7904135433070865
11
6.0491247637795276
21
-4.7941630708661416
0
LINE
8
BLACK
6
CONTINUOUS
10
6.0491247637795276
20
-4.7941630708661416
11
6.0528742913385827
21
-4.8016621653543305
0
LINE
8
BLACK
6
CONTINUOUS
10
6.0528742913385827
20
-4.8016621653543305
11
6.0528742913385827
21
-4.8429070078740155
0
LINE
8
BLACK
6
CONTINUOUS
10
6.0528742913385827
20
-4.8016621653543305
11
6.0566238188976378
21
-4.7941630708661416
0
LINE
8
BLACK
6
CONTINUOUS
10
6.0566238188976378
20
-4.7941630708661416
11
6.064122874015748
21
-4.7904135433070865
0
LINE
8
BLACK
6
CONTINUOUS
10
6.064122874015748
20
-4.7904135433070865
11
6.0753714566929133
21
-4.7904135433070865
0
LINE
8
BLACK
6
CONTINUOUS
10
6.0753714566929133
20
-4.7904135433070865
11
6.0828705511811023
21
-4.7941630708661416
0
LINE
8
BLACK
6
CONTINUOUS
10
6.0828705511811023
20
-4.7941630708661416
11
6.0866200787401574
21
-4.8016621653543305
0
LINE
8
BLACK
6
CONTINUOUS
10
6.0866200787401574
20
-4.8016621653543305
11
6.0866200787401574
21
-4.8429070078740155
0
LINE
8
BLACK
6
CONTINUOUS
10
6.240350866141732
20
-4.7604173228346456
11
6.1728593307086612
21
-4.8616546456692911
0
LINE
8
BLACK
6
CONTINUOUS
10
6.3415882283464562
20
-4.7641668503937007
11
6.3490873228346452
21
-4.7641668503937007
0
LINE
8
BLACK
6
CONTINUOUS
10
6.3490873228346452
20
-4.7641668503937007
11
6.3565863779527554
21
-4.7679163779527558
0
LINE
8
BLACK
6
CONTINUOUS
10
6.3565863779527554
20
-4.7679163779527558
11
6.3603359055118105
21
-4.7716659055118109
0
LINE
8
BLACK
6
CONTINUOUS
10
6.3603359055118105
20
-4.7716659055118109
11
6.3640854330708656
21
-4.7791649606299211
0
LINE
8
BLACK
6
CONTINUOUS
10
6.3640854330708656
20
-4.7791649606299211
11
6.3678349606299207
21
-4.7941630708661416
0
LINE
8
BLACK
6
CONTINUOUS
10
6.3678349606299207
20
-4.7941630708661416
11
6.3678349606299207
21
-4.8129107480314959
0
LINE
8
BLACK
6
CONTINUOUS
10
6.3678349606299207
20
-4.8129107480314959
11
6.3640854330708656
21
-4.8279088582677163
0
LINE
8
BLACK
6
CONTINUOUS
10
6.3640854330708656
20
-4.8279088582677163
11
6.3603359055118105
21
-4.8354079133858265
0
LINE
8
BLACK
6
CONTINUOUS
10
6.3603359055118105
20
-4.8354079133858265
11
6.3565863779527554
21
-4.8391574803149604
0
LINE
8
BLACK
6
CONTINUOUS
10
6.3565863779527554
20
-4.8391574803149604
11
6.3490873228346452
21
-4.8429070078740155
0
LINE
8
BLACK
6
CONTINUOUS
10
6.3490873228346452
20
-4.8429070078740155
11
6.3415882283464562
21
-4.8429070078740155
0
LINE
8
BLACK
6
CONTINUOUS
10
6.3415882283464562
20
-4.8429070078740155
11
6.334089173228346
21
-4.8391574803149604
0
LINE
8
BLACK
6
CONTINUOUS
10
6.334089173228346
20
-4.8391574803149604
11
6.3303396456692909
21
-4.8354079133858265
0
LINE
8
BLACK
6
CONTINUOUS
10
6.3303396456692909
20
-4.8354079133858265
11
6.3265901181102357
21
-4.8279088582677163
0
LINE
8
BLACK
6
CONTINUOUS
10
6.3265901181102357
20
-4.8279088582677163
11
6.3228405905511806
21
-4.8129107480314959
0
LINE
8
BLACK
6
CONTINUOUS
10
6.3228405905511806
20
-4.8129107480314959
11
6.3228405905511806
21
-4.7941630708661416
0
LINE
8
BLACK
6
CONTINUOUS
10
6.3228405905511806
20
-4.7941630708661416
11
6.3265901181102357
21
-4.7791649606299211
0
LINE
8
BLACK
6
CONTINUOUS
10
6.3265901181102357
20
-4.7791649606299211
11
6.3303396456692909
21
-4.7716659055118109
0
LINE
8
BLACK
6
CONTINUOUS
10
6.3303396456692909
20
-4.7716659055118109
11
6.334089173228346
21
-4.7679163779527558
0
LINE
8
BLACK
6
CONTINUOUS
10
6.334089173228346
20
-4.7679163779527558
11
6.3415882283464562
21
-4.7641668503937007
0
LINE
8
BLACK
6
CONTINUOUS
10
6.4015807480314963
20
-4.8354079133858265
11
6.4053302755905515
21
-4.8391574803149604
0
LINE
8
BLACK
6
CONTINUOUS
10
6.4053302755905515
20
-4.8391574803149604
11
6.4015807480314963
21
-4.8429070078740155
0
LINE
8
BLACK
6
CONTINUOUS
10
6.4015807480314963
20
-4.8429070078740155
11
6.3978312204724412
21
-4.8391574803149604
0
LINE
8
BLACK
6
CONTINUOUS
10
6.3978312204724412
20
-4.8391574803149604
11
6.4015807480314963
21
-4.8354079133858265
0
LINE
8
BLACK
6
CONTINUOUS
10
6.4015807480314963
20
-4.8354079133858265
11
6.4015807480314963
21
-4.8429070078740155
0
LINE
8
BLACK
6
CONTINUOUS
10
6.4803209055118112
20
-4.8429070078740155
11
6.4353265354330711
21
-4.8429070078740155
0
LINE
8
BLACK
6
CONTINUOUS
10
6.4578237007874018
20
-4.8429070078740155
11
6.4578237007874018
21
-4.7641668503937007
0
LINE
8
BLACK
6
CONTINUOUS
10
6.4578237007874018
20
-4.7641668503937007
11
6.4503246456692915
21
-4.775415433070866
0
LINE
8
BLACK
6
CONTINUOUS
10
6.4503246456692915
20
-4.775415433070866
11
6.4428255905511813
21
-4.7829144881889762
0
LINE
8
BLACK
6
CONTINUOUS
10
6.4428255905511813
20
-4.7829144881889762
11
6.4353265354330711
21
-4.7866640157480314
0
LINE
8
BLACK
6
CONTINUOUS
10
6.5065676377952757
20
-4.7641668503937007
11
6.5553115354330709
21
-4.7641668503937007
0
LINE
8
BLACK
6
CONTINUOUS
10
6.5553115354330709
20
-4.7641668503937007
11
6.5290648031496064
21
-4.7941630708661416
0
LINE
8
BLACK
6
CONTINUOUS
10
6.5290648031496064
20
-4.7941630708661416
11
6.5403134251968504
21
-4.7941630708661416
0
LINE
8
BLACK
6
CONTINUOUS
10
6.5403134251968504
20
-4.7941630708661416
11
6.5478124803149607
21
-4.7979125984251967
0
LINE
8
BLACK
6
CONTINUOUS
10
6.5478124803149607
20
-4.7979125984251967
11
6.5515620078740158
21
-4.8016621653543305
0
LINE
8
BLACK
6
CONTINUOUS
10
6.5515620078740158
20
-4.8016621653543305
11
6.5553115354330709
21
-4.8091612204724408
0
LINE
8
BLACK
6
CONTINUOUS
10
6.5553115354330709
20
-4.8091612204724408
11
6.5553115354330709
21
-4.8279088582677163
0
LINE
8
BLACK
6
CONTINUOUS
10
6.5553115354330709
20
-4.8279088582677163
11
6.5515620078740158
21
-4.8354079133858265
0
LINE
8
BLACK
6
CONTINUOUS
10
6.5515620078740158
20
-4.8354079133858265
11
6.5478124803149607
21
-4.8391574803149604
0
LINE
8
BLACK
6
CONTINUOUS
10
6.5478124803149607
20
-4.8391574803149604
11
6.5403134251968504
21
-4.8429070078740155
0
LINE
8
BLACK
6
CONTINUOUS
10
6.5403134251968504
20
-4.8429070078740155
11
6.517816220472441
21
-4.8429070078740155
0
LINE
8
BLACK
6
CONTINUOUS
10
6.517816220472441
20
-4.8429070078740155
11
6.5103171653543308
21
-4.8391574803149604
0
LINE
8
BLACK
6
CONTINUOUS
10
6.5103171653543308
20
-4.8391574803149604
11
6.5065676377952757
21
-4.8354079133858265
0
LINE
8
BLACK
6
CONTINUOUS
10
6.6228031102362204
20
-4.7904135433070865
11
6.6228031102362204
21
-4.8429070078740155
0
LINE
8
BLACK
6
CONTINUOUS
10
6.6040554330708661
20
-4.7604173228346456
11
6.5853077952755905
21
-4.816660275590551
0
LINE
8
BLACK
6
CONTINUOUS
10
6.5853077952755905
20
-4.816660275590551
11
6.6340516929133857
21
-4.816660275590551
0
LINE
8
BLACK
6
CONTINUOUS
10
6.6790460629921258
20
-4.7641668503937007
11
6.6865451574803147
21
-4.7641668503937007
0
LINE
8
BLACK
6
CONTINUOUS
10
6.6865451574803147
20
-4.7641668503937007
11
6.694044212598425
21
-4.7679163779527558
0
LINE
8
BLACK
6
CONTINUOUS
10
6.694044212598425
20
-4.7679163779527558
11
6.6977937401574801
21
-4.7716659055118109
0
LINE
8
BLACK
6
CONTINUOUS
10
6.6977937401574801
20
-4.7716659055118109
11
6.7015432677165352
21
-4.7791649606299211
0
LINE
8
BLACK
6
CONTINUOUS
10
6.7015432677165352
20
-4.7791649606299211
11
6.7052927952755903
21
-4.7941630708661416
0
LINE
8
BLACK
6
CONTINUOUS
10
6.7052927952755903
20
-4.7941630708661416
11
6.7052927952755903
21
-4.8129107480314959
0
LINE
8
BLACK
6
CONTINUOUS
10
6.7052927952755903
20
-4.8129107480314959
11
6.7015432677165352
21
-4.8279088582677163
0
LINE
8
BLACK
6
CONTINUOUS
10
6.7015432677165352
20
-4.8279088582677163
11
6.6977937401574801
21
-4.8354079133858265
0
LINE
8
BLACK
6
CONTINUOUS
10
6.6977937401574801
20
-4.8354079133858265
11
6.694044212598425
21
-4.8391574803149604
0
LINE
8
BLACK
6
CONTINUOUS
10
6.694044212598425
20
-4.8391574803149604
11
6.6865451574803147
21
-4.8429070078740155
0
LINE
8
BLACK
6
CONTINUOUS
10
6.6865451574803147
20
-4.8429070078740155
11
6.6790460629921258
21
-4.8429070078740155
0
LINE
8
BLACK
6
CONTINUOUS
10
6.6790460629921258
20
-4.8429070078740155
11
6.6715470078740156
21
-4.8391574803149604
0
LINE
8
BLACK
6
CONTINUOUS
10
6.6715470078740156
20
-4.8391574803149604
11
6.6677974803149604
21
-4.8354079133858265
0
LINE
8
BLACK
6
CONTINUOUS
10
6.6677974803149604
20
-4.8354079133858265
11
6.6640479527559053
21
-4.8279088582677163
0
LINE
8
BLACK
6
CONTINUOUS
10
6.6640479527559053
20
-4.8279088582677163
11
6.6602984251968502
21
-4.8129107480314959
0
LINE
8
BLACK
6
CONTINUOUS
10
6.6602984251968502
20
-4.8129107480314959
11
6.6602984251968502
21
-4.7941630708661416
0
LINE
8
BLACK
6
CONTINUOUS
10
6.6602984251968502
20
-4.7941630708661416
11
6.6640479527559053
21
-4.7791649606299211
0
LINE
8
BLACK
6
CONTINUOUS
10
6.6640479527559053
20
-4.7791649606299211
11
6.6677974803149604
21
-4.7716659055118109
0
LINE
8
BLACK
6
CONTINUOUS
10
6.6677974803149604
20
-4.7716659055118109
11
6.6715470078740156
21
-4.7679163779527558
0
LINE
8
BLACK
6
CONTINUOUS
10
6.6715470078740156
20
-4.7679163779527558
11
6.6790460629921258
21
-4.7641668503937007
0
LINE
8
BLACK
6
CONTINUOUS
10
6.7352890551181099
20
-4.7641668503937007
11
6.7352890551181099
21
-4.7791649606299211
0
LINE
8
BLACK
6
CONTINUOUS
10
6.7652853149606296
20
-4.7641668503937007
11
6.7652853149606296
21
-4.7791649606299211
0
LINE
8
BLACK
6
CONTINUOUS
10
6.881520826771653
20
-4.8729032283464564
11
6.8777712598425191
21
-4.8691537007874013
0
LINE
8
BLACK
6
CONTINUOUS
10
6.8777712598425191
20
-4.8691537007874013
11
6.8702722047244089
21
-4.857905118110236
0
LINE
8
BLACK
6
CONTINUOUS
10
6.8702722047244089
20
-4.857905118110236
11
6.8665226771653538
21
-4.8504060629921257
0
LINE
8
BLACK
6
CONTINUOUS
10
6.8665226771653538
20
-4.8504060629921257
11
6.8627731496062987
21
-4.8391574803149604
0
LINE
8
BLACK
6
CONTINUOUS
10
6.8627731496062987
20
-4.8391574803149604
11
6.8590236220472436
21
-4.8204098031496061
0
LINE
8
BLACK
6
CONTINUOUS
10
6.8590236220472436
20
-4.8204098031496061
11
6.8590236220472436
21
-4.8054116929133857
0
LINE
8
BLACK
6
CONTINUOUS
10
6.8590236220472436
20
-4.8054116929133857
11
6.8627731496062987
21
-4.7866640157480314
0
LINE
8
BLACK
6
CONTINUOUS
10
6.8627731496062987
20
-4.7866640157480314
11
6.8665226771653538
21
-4.775415433070866
0
LINE
8
BLACK
6
CONTINUOUS
10
6.8665226771653538
20
-4.775415433070866
11
6.8702722047244089
21
-4.7679163779527558
0
LINE
8
BLACK
6
CONTINUOUS
10
6.8702722047244089
20
-4.7679163779527558
11
6.8777712598425191
21
-4.7566677559055117
0
LINE
8
BLACK
6
CONTINUOUS
10
6.8777712598425191
20
-4.7566677559055117
11
6.881520826771653
21
-4.7529182283464566
0
LINE
8
BLACK
6
CONTINUOUS
10
6.9227656299212601
20
-4.7979125984251967
11
6.9152665748031499
21
-4.7941630708661416
0
LINE
8
BLACK
6
CONTINUOUS
10
6.9152665748031499
20
-4.7941630708661416
11
6.9115170472440948
21
-4.7904135433070865
0
LINE
8
BLACK
6
CONTINUOUS
10
6.9115170472440948
20
-4.7904135433070865
11
6.9077675196850388
21
-4.7829144881889762
0
LINE
8
BLACK
6
CONTINUOUS
10
6.9077675196850388
20
-4.7829144881889762
11
6.9077675196850388
21
-4.7791649606299211
0
LINE
8
BLACK
6
CONTINUOUS
10
6.9077675196850388
20
-4.7791649606299211
11
6.9115170472440948
21
-4.7716659055118109
0
LINE
8
BLACK
6
CONTINUOUS
10
6.9115170472440948
20
-4.7716659055118109
11
6.9152665748031499
21
-4.7679163779527558
0
LINE
8
BLACK
6
CONTINUOUS
10
6.9152665748031499
20
-4.7679163779527558
11
6.9227656299212601
21
-4.7641668503937007
0
LINE
8
BLACK
6
CONTINUOUS
10
6.9227656299212601
20
-4.7641668503937007
11
6.9377637795275593
21
-4.7641668503937007
0
LINE
8
BLACK
6
CONTINUOUS
10
6.9377637795275593
20
-4.7641668503937007
11
6.9452628346456695
21
-4.7679163779527558
0
LINE
8
BLACK
6
CONTINUOUS
10
6.9452628346456695
20
-4.7679163779527558
11
6.9490123622047246
21
-4.7716659055118109
0
LINE
8
BLACK
6
CONTINUOUS
10
6.9490123622047246
20
-4.7716659055118109
11
6.9527618897637797
21
-4.7791649606299211
0
LINE
8
BLACK
6
CONTINUOUS
10
6.9527618897637797
20
-4.7791649606299211
11
6.9527618897637797
21
-4.7829144881889762
0
LINE
8
BLACK
6
CONTINUOUS
10
6.9527618897637797
20
-4.7829144881889762
11
6.9490123622047246
21
-4.7904135433070865
0
LINE
8
BLACK
6
CONTINUOUS
10
6.9490123622047246
20
-4.7904135433070865
11
6.9452628346456695
21
-4.7941630708661416
0
LINE
8
BLACK
6
CONTINUOUS
10
6.9452628346456695
20
-4.7941630708661416
11
6.9377637795275593
21
-4.7979125984251967
0
LINE
8
BLACK
6
CONTINUOUS
10
6.9377637795275593
20
-4.7979125984251967
11
6.9227656299212601
21
-4.7979125984251967
0
LINE
8
BLACK
6
CONTINUOUS
10
6.9227656299212601
20
-4.7979125984251967
11
6.9152665748031499
21
-4.8016621653543305
0
LINE
8
BLACK
6
CONTINUOUS
10
6.9152665748031499
20
-4.8016621653543305
11
6.9115170472440948
21
-4.8054116929133857
0
LINE
8
BLACK
6
CONTINUOUS
10
6.9115170472440948
20
-4.8054116929133857
11
6.9077675196850388
21
-4.8129107480314959
0
LINE
8
BLACK
6
CONTINUOUS
10
6.9077675196850388
20
-4.8129107480314959
11
6.9077675196850388
21
-4.8279088582677163
0
LINE
8
BLACK
6
CONTINUOUS
10
6.9077675196850388
20
-4.8279088582677163
11
6.9115170472440948
21
-4.8354079133858265
0
LINE
8
BLACK
6
CONTINUOUS
10
6.9115170472440948
20
-4.8354079133858265
11
6.9152665748031499
21
-4.8391574803149604
0
LINE
8
BLACK
6
CONTINUOUS
10
6.9152665748031499
20
-4.8391574803149604
11
6.9227656299212601
21
-4.8429070078740155
0
LINE
8
BLACK
6
CONTINUOUS
10
6.9227656299212601
20
-4.8429070078740155
11
6.9377637795275593
21
-4.8429070078740155
0
LINE
8
BLACK
6
CONTINUOUS
10
6.9377637795275593
20
-4.8429070078740155
11
6.9452628346456695
21
-4.8391574803149604
0
LINE
8
BLACK
6
CONTINUOUS
10
6.9452628346456695
20
-4.8391574803149604
11
6.9490123622047246
21
-4.8354079133858265
0
LINE
8
BLACK
6
CONTINUOUS
10
6.9490123622047246
20
-4.8354079133858265
11
6.9527618897637797
21
-4.8279088582677163
0
LINE
8
BLACK
6
CONTINUOUS
10
6.9527618897637797
20
-4.8279088582677163
11
6.9527618897637797
21
-4.8129107480314959
0
LINE
8
BLACK
6
CONTINUOUS
10
6.9527618897637797
20
-4.8129107480314959
11
6.9490123622047246
21
-4.8054116929133857
0
LINE
8
BLACK
6
CONTINUOUS
10
6.9490123622047246
20
-4.8054116929133857
11
6.9452628346456695
21
-4.8016621653543305
0
LINE
8
BLACK
6
CONTINUOUS
10
6.9452628346456695
20
-4.8016621653543305
11
6.9377637795275593
21
-4.7979125984251967
0
LINE
8
BLACK
6
CONTINUOUS
10
7.0465001968503937
20
-4.8429070078740155
11
7.0465001968503937
21
-4.7641668503937007
0
LINE
8
BLACK
6
CONTINUOUS
10
7.0802459842519685
20
-4.8429070078740155
11
7.0802459842519685
21
-4.8016621653543305
0
LINE
8
BLACK
6
CONTINUOUS
10
7.0802459842519685
20
-4.8016621653543305
11
7.0764964566929134
21
-4.7941630708661416
0
LINE
8
BLACK
6
CONTINUOUS
10
7.0764964566929134
20
-4.7941630708661416
11
7.0689974015748032
21
-4.7904135433070865
0
LINE
8
BLACK
6
CONTINUOUS
10
7.0689974015748032
20
-4.7904135433070865
11
7.0577487795275591
21
-4.7904135433070865
0
LINE
8
BLACK
6
CONTINUOUS
10
7.0577487795275591
20
-4.7904135433070865
11
7.0502497244094489
21
-4.7941630708661416
0
LINE
8
BLACK
6
CONTINUOUS
10
7.0502497244094489
20
-4.7941630708661416
11
7.0465001968503937
21
-4.7979125984251967
0
LINE
8
BLACK
6
CONTINUOUS
10
7.1289898818897637
20
-4.8429070078740155
11
7.1214908267716535
21
-4.8391574803149604
0
LINE
8
BLACK
6
CONTINUOUS
10
7.1214908267716535
20
-4.8391574803149604
11
7.1177412992125983
21
-4.8354079133858265
0
LINE
8
BLACK
6
CONTINUOUS
10
7.1177412992125983
20
-4.8354079133858265
11
7.1139917716535432
21
-4.8279088582677163
0
LINE
8
BLACK
6
CONTINUOUS
10
7.1139917716535432
20
-4.8279088582677163
11
7.1139917716535432
21
-4.8054116929133857
0
LINE
8
BLACK
6
CONTINUOUS
10
7.1139917716535432
20
-4.8054116929133857
11
7.1177412992125983
21
-4.7979125984251967
0
LINE
8
BLACK
6
CONTINUOUS
10
7.1177412992125983
20
-4.7979125984251967
11
7.1214908267716535
21
-4.7941630708661416
0
LINE
8
BLACK
6
CONTINUOUS
10
7.1214908267716535
20
-4.7941630708661416
11
7.1289898818897637
21
-4.7904135433070865
0
LINE
8
BLACK
6
CONTINUOUS
10
7.1289898818897637
20
-4.7904135433070865
11
7.1402385039370078
21
-4.7904135433070865
0
LINE
8
BLACK
6
CONTINUOUS
10
7.1402385039370078
20
-4.7904135433070865
11
7.147737559055118
21
-4.7941630708661416
0
LINE
8
BLACK
6
CONTINUOUS
10
7.147737559055118
20
-4.7941630708661416
11
7.1514870866141731
21
-4.7979125984251967
0
LINE
8
BLACK
6
CONTINUOUS
10
7.1514870866141731
20
-4.7979125984251967
11
7.1552366141732282
21
-4.8054116929133857
0
LINE
8
BLACK
6
CONTINUOUS
10
7.1552366141732282
20
-4.8054116929133857
11
7.1552366141732282
21
-4.8279088582677163
0
LINE
8
BLACK
6
CONTINUOUS
10
7.1552366141732282
20
-4.8279088582677163
11
7.1514870866141731
21
-4.8354079133858265
0
LINE
8
BLACK
6
CONTINUOUS
10
7.1514870866141731
20
-4.8354079133858265
11
7.147737559055118
21
-4.8391574803149604
0
LINE
8
BLACK
6
CONTINUOUS
10
7.147737559055118
20
-4.8391574803149604
11
7.1402385039370078
21
-4.8429070078740155
0
LINE
8
BLACK
6
CONTINUOUS
10
7.1402385039370078
20
-4.8429070078740155
11
7.1289898818897637
21
-4.8429070078740155
0
LINE
8
BLACK
6
CONTINUOUS
10
7.2002309842519683
20
-4.8429070078740155
11
7.1927319291338581
21
-4.8391574803149604
0
LINE
8
BLACK
6
CONTINUOUS
10
7.1927319291338581
20
-4.8391574803149604
11
7.1889824015748029
21
-4.8316583858267714
0
LINE
8
BLACK
6
CONTINUOUS
10
7.1889824015748029
20
-4.8316583858267714
11
7.1889824015748029
21
-4.7641668503937007
0
LINE
8
BLACK
6
CONTINUOUS
10
7.2602235039370075
20
-4.8391574803149604
11
7.2527244488188973
21
-4.8429070078740155
0
LINE
8
BLACK
6
CONTINUOUS
10
7.2527244488188973
20
-4.8429070078740155
11
7.2377262992125981
21
-4.8429070078740155
0
LINE
8
BLACK
6
CONTINUOUS
10
7.2377262992125981
20
-4.8429070078740155
11
7.2302272440944879
21
-4.8391574803149604
0
LINE
8
BLACK
6
CONTINUOUS
10
7.2302272440944879
20
-4.8391574803149604
11
7.2264777165354328
21
-4.8316583858267714
0
LINE
8
BLACK
6
CONTINUOUS
10
7.2264777165354328
20
-4.8316583858267714
11
7.2264777165354328
21
-4.8016621653543305
0
LINE
8
BLACK
6
CONTINUOUS
10
7.2264777165354328
20
-4.8016621653543305
11
7.2302272440944879
21
-4.7941630708661416
0
LINE
8
BLACK
6
CONTINUOUS
10
7.2302272440944879
20
-4.7941630708661416
11
7.2377262992125981
21
-4.7904135433070865
0
LINE
8
BLACK
6
CONTINUOUS
10
7.2377262992125981
20
-4.7904135433070865
11
7.2527244488188973
21
-4.7904135433070865
0
LINE
8
BLACK
6
CONTINUOUS
10
7.2527244488188973
20
-4.7904135433070865
11
7.2602235039370075
21
-4.7941630708661416
0
LINE
8
BLACK
6
CONTINUOUS
10
7.2602235039370075
20
-4.7941630708661416
11
7.2639730314960627
21
-4.8016621653543305
0
LINE
8
BLACK
6
CONTINUOUS
10
7.2639730314960627
20
-4.8016621653543305
11
7.2639730314960627
21
-4.8091612204724408
0
LINE
8
BLACK
6
CONTINUOUS
10
7.2639730314960627
20
-4.8091612204724408
11
7.2264777165354328
21
-4.816660275590551
0
LINE
8
BLACK
6
CONTINUOUS
10
7.2939692913385823
20
-4.8391574803149604
11
7.3014683464566925
21
-4.8429070078740155
0
LINE
8
BLACK
6
CONTINUOUS
10
7.3014683464566925
20
-4.8429070078740155
11
7.316466456692913
21
-4.8429070078740155
0
LINE
8
BLACK
6
CONTINUOUS
10
7.316466456692913
20
-4.8429070078740155
11
7.3239655511811019
21
-4.8391574803149604
0
LINE
8
BLACK
6
CONTINUOUS
10
7.3239655511811019
20
-4.8391574803149604
11
7.327715078740157
21
-4.8316583858267714
0
LINE
8
BLACK
6
CONTINUOUS
10
7.327715078740157
20
-4.8316583858267714
11
7.327715078740157
21
-4.8279088582677163
0
LINE
8
BLACK
6
CONTINUOUS
10
7.327715078740157
20
-4.8279088582677163
11
7.3239655511811019
21
-4.8204098031496061
0
LINE
8
BLACK
6
CONTINUOUS
10
7.3239655511811019
20
-4.8204098031496061
11
7.316466456692913
21
-4.816660275590551
0
LINE
8
BLACK
6
CONTINUOUS
10
7.316466456692913
20
-4.816660275590551
11
7.3052178740157476
21
-4.816660275590551
0
LINE
8
BLACK
6
CONTINUOUS
10
7.3052178740157476
20
-4.816660275590551
11
7.2977188188976374
21
-4.8129107480314959
0
LINE
8
BLACK
6
CONTINUOUS
10
7.2977188188976374
20
-4.8129107480314959
11
7.2939692913385823
21
-4.8054116929133857
0
LINE
8
BLACK
6
CONTINUOUS
10
7.2939692913385823
20
-4.8054116929133857
11
7.2939692913385823
21
-4.8016621653543305
0
LINE
8
BLACK
6
CONTINUOUS
10
7.2939692913385823
20
-4.8016621653543305
11
7.2977188188976374
21
-4.7941630708661416
0
LINE
8
BLACK
6
CONTINUOUS
10
7.2977188188976374
20
-4.7941630708661416
11
7.3052178740157476
21
-4.7904135433070865
0
LINE
8
BLACK
6
CONTINUOUS
10
7.3052178740157476
20
-4.7904135433070865
11
7.316466456692913
21
-4.7904135433070865
0
LINE
8
BLACK
6
CONTINUOUS
10
7.316466456692913
20
-4.7904135433070865
11
7.3239655511811019
21
-4.7941630708661416
0
LINE
8
BLACK
6
CONTINUOUS
10
7.3539618110236216
20
-4.8729032283464564
11
7.3577113385826767
21
-4.8691537007874013
0
LINE
8
BLACK
6
CONTINUOUS
10
7.3577113385826767
20
-4.8691537007874013
11
7.3652103937007869
21
-4.857905118110236
0
LINE
8
BLACK
6
CONTINUOUS
10
7.3652103937007869
20
-4.857905118110236
11
7.368959921259842
21
-4.8504060629921257
0
LINE
8
BLACK
6
CONTINUOUS
10
7.368959921259842
20
-4.8504060629921257
11
7.3727094488188971
21
-4.8391574803149604
0
LINE
8
BLACK
6
CONTINUOUS
10
7.3727094488188971
20
-4.8391574803149604
11
7.3764589763779522
21
-4.8204098031496061
0
LINE
8
BLACK
6
CONTINUOUS
10
7.3764589763779522
20
-4.8204098031496061
11
7.3764589763779522
21
-4.8054116929133857
0
LINE
8
BLACK
6
CONTINUOUS
10
7.3764589763779522
20
-4.8054116929133857
11
7.3727094488188971
21
-4.7866640157480314
0
LINE
8
BLACK
6
CONTINUOUS
10
7.3727094488188971
20
-4.7866640157480314
11
7.368959921259842
21
-4.775415433070866
0
LINE
8
BLACK
6
CONTINUOUS
10
7.368959921259842
20
-4.775415433070866
11
7.3652103937007869
21
-4.7679163779527558
0
LINE
8
BLACK
6
CONTINUOUS
10
7.3652103937007869
20
-4.7679163779527558
11
7.3577113385826767
21
-4.7566677559055117
0
LINE
8
BLACK
6
CONTINUOUS
10
7.3577113385826767
20
-4.7566677559055117
11
7.3539618110236216
21
-4.7529182283464566
0
LINE
8
BLACK
6
CONTINUOUS
10
7.4964440157480317
20
-4.8729032283464564
11
7.4926944488188978
21
-4.8691537007874013
0
LINE
8
BLACK
6
CONTINUOUS
10
7.4926944488188978
20
-4.8691537007874013
11
7.4851953937007876
21
-4.857905118110236
0
LINE
8
BLACK
6
CONTINUOUS
10
7.4851953937007876
20
-4.857905118110236
11
7.4814458661417325
21
-4.8504060629921257
0
LINE
8
BLACK
6
CONTINUOUS
10
7.4814458661417325
20
-4.8504060629921257
11
7.4776963385826773
21
-4.8391574803149604
0
LINE
8
BLACK
6
CONTINUOUS
10
7.4776963385826773
20
-4.8391574803149604
11
7.4739468110236222
21
-4.8204098031496061
0
LINE
8
BLACK
6
CONTINUOUS
10
7.4739468110236222
20
-4.8204098031496061
11
7.4739468110236222
21
-4.8054116929133857
0
LINE
8
BLACK
6
CONTINUOUS
10
7.4739468110236222
20
-4.8054116929133857
11
7.4776963385826773
21
-4.7866640157480314
0
LINE
8
BLACK
6
CONTINUOUS
10
7.4776963385826773
20
-4.7866640157480314
11
7.4814458661417325
21
-4.775415433070866
0
LINE
8
BLACK
6
CONTINUOUS
10
7.4814458661417325
20
-4.775415433070866
11
7.4851953937007876
21
-4.7679163779527558
0
LINE
8
BLACK
6
CONTINUOUS
10
7.4851953937007876
20
-4.7679163779527558
11
7.4926944488188978
21
-4.7566677559055117
0
LINE
8
BLACK
6
CONTINUOUS
10
7.4926944488188978
20
-4.7566677559055117
11
7.4964440157480317
21
-4.7529182283464566
0
LINE
8
BLACK
6
CONTINUOUS
10
7.5264402362204725
20
-4.7904135433070865
11
7.5264402362204725
21
-4.8429070078740155
0
LINE
8
BLACK
6
CONTINUOUS
10
7.5264402362204725
20
-4.7979125984251967
11
7.5301897637795276
21
-4.7941630708661416
0
LINE
8
BLACK
6
CONTINUOUS
10
7.5301897637795276
20
-4.7941630708661416
11
7.5376888188976379
21
-4.7904135433070865
0
LINE
8
BLACK
6
CONTINUOUS
10
7.5376888188976379
20
-4.7904135433070865
11
7.5489374409448819
21
-4.7904135433070865
0
LINE
8
BLACK
6
CONTINUOUS
10
7.5489374409448819
20
-4.7904135433070865
11
7.5564364960629922
21
-4.7941630708661416
0
LINE
8
BLACK
6
CONTINUOUS
10
7.5564364960629922
20
-4.7941630708661416
11
7.5601860236220473
21
-4.8016621653543305
0
LINE
8
BLACK
6
CONTINUOUS
10
7.5601860236220473
20
-4.8016621653543305
11
7.5601860236220473
21
-4.8429070078740155
0
LINE
8
BLACK
6
CONTINUOUS
10
7.6089299212598425
20
-4.8429070078740155
11
7.6014308661417322
21
-4.8391574803149604
0
LINE
8
BLACK
6
CONTINUOUS
10
7.6014308661417322
20
-4.8391574803149604
11
7.5976813385826771
21
-4.8354079133858265
0
LINE
8
BLACK
6
CONTINUOUS
10
7.5976813385826771
20
-4.8354079133858265
11
7.593931811023622
21
-4.8279088582677163
0
LINE
8
BLACK
6
CONTINUOUS
10
7.593931811023622
20
-4.8279088582677163
11
7.593931811023622
21
-4.8054116929133857
0
LINE
8
BLACK
6
CONTINUOUS
10
7.593931811023622
20
-4.8054116929133857
11
7.5976813385826771
21
-4.7979125984251967
0
LINE
8
BLACK
6
CONTINUOUS
10
7.5976813385826771
20
-4.7979125984251967
11
7.6014308661417322
21
-4.7941630708661416
0
LINE
8
BLACK
6
CONTINUOUS
10
7.6014308661417322
20
-4.7941630708661416
11
7.6089299212598425
21
-4.7904135433070865
0
LINE
8
BLACK
6
CONTINUOUS
10
7.6089299212598425
20
-4.7904135433070865
11
7.6201785433070865
21
-4.7904135433070865
0
LINE
8
BLACK
6
CONTINUOUS
10
7.6201785433070865
20
-4.7904135433070865
11
7.6276775984251968
21
-4.7941630708661416
0
LINE
8
BLACK
6
CONTINUOUS
10
7.6276775984251968
20
-4.7941630708661416
11
7.6314271259842519
21
-4.7979125984251967
0
LINE
8
BLACK
6
CONTINUOUS
10
7.6314271259842519
20
-4.7979125984251967
11
7.635176653543307
21
-4.8054116929133857
0
LINE
8
BLACK
6
CONTINUOUS
10
7.635176653543307
20
-4.8054116929133857
11
7.635176653543307
21
-4.8279088582677163
0
LINE
8
BLACK
6
CONTINUOUS
10
7.635176653543307
20
-4.8279088582677163
11
7.6314271259842519
21
-4.8354079133858265
0
LINE
8
BLACK
6
CONTINUOUS
10
7.6314271259842519
20
-4.8354079133858265
11
7.6276775984251968
21
-4.8391574803149604
0
LINE
8
BLACK
6
CONTINUOUS
10
7.6276775984251968
20
-4.8391574803149604
11
7.6201785433070865
21
-4.8429070078740155
0
LINE
8
BLACK
6
CONTINUOUS
10
7.6201785433070865
20
-4.8429070078740155
11
7.6089299212598425
21
-4.8429070078740155
0
LINE
8
BLACK
6
CONTINUOUS
10
7.6576738582677164
20
-4.7904135433070865
11
7.6876700787401573
21
-4.7904135433070865
0
LINE
8
BLACK
6
CONTINUOUS
10
7.6689224409448817
20
-4.7641668503937007
11
7.6689224409448817
21
-4.8316583858267714
0
LINE
8
BLACK
6
CONTINUOUS
10
7.6689224409448817
20
-4.8316583858267714
11
7.6726719685039368
21
-4.8391574803149604
0
LINE
8
BLACK
6
CONTINUOUS
10
7.6726719685039368
20
-4.8391574803149604
11
7.6801710236220471
21
-4.8429070078740155
0
LINE
8
BLACK
6
CONTINUOUS
10
7.6801710236220471
20
-4.8429070078740155
11
7.6876700787401573
21
-4.8429070078740155
0
LINE
8
BLACK
6
CONTINUOUS
10
7.7739093307086611
20
-4.7904135433070865
11
7.7739093307086611
21
-4.8691537007874013
0
LINE
8
BLACK
6
CONTINUOUS
10
7.7739093307086611
20
-4.7941630708661416
11
7.7814083858267713
21
-4.7904135433070865
0
LINE
8
BLACK
6
CONTINUOUS
10
7.7814083858267713
20
-4.7904135433070865
11
7.7964065354330705
21
-4.7904135433070865
0
LINE
8
BLACK
6
CONTINUOUS
10
7.7964065354330705
20
-4.7904135433070865
11
7.8039055905511807
21
-4.7941630708661416
0
LINE
8
BLACK
6
CONTINUOUS
10
7.8039055905511807
20
-4.7941630708661416
11
7.8076551181102358
21
-4.7979125984251967
0
LINE
8
BLACK
6
CONTINUOUS
10
7.8076551181102358
20
-4.7979125984251967
11
7.8114046456692909
21
-4.8054116929133857
0
LINE
8
BLACK
6
CONTINUOUS
10
7.8114046456692909
20
-4.8054116929133857
11
7.8114046456692909
21
-4.8279088582677163
0
LINE
8
BLACK
6
CONTINUOUS
10
7.8114046456692909
20
-4.8279088582677163
11
7.8076551181102358
21
-4.8354079133858265
0
LINE
8
BLACK
6
CONTINUOUS
10
7.8076551181102358
20
-4.8354079133858265
11
7.8039055905511807
21
-4.8391574803149604
0
LINE
8
BLACK
6
CONTINUOUS
10
7.8039055905511807
20
-4.8391574803149604
11
7.7964065354330705
21
-4.8429070078740155
0
LINE
8
BLACK
6
CONTINUOUS
10
7.7964065354330705
20
-4.8429070078740155
11
7.7814083858267713
21
-4.8429070078740155
0
LINE
8
BLACK
6
CONTINUOUS
10
7.7814083858267713
20
-4.8429070078740155
11
7.7739093307086611
21
-4.8391574803149604
0
LINE
8
BLACK
6
CONTINUOUS
10
7.856399015748031
20
-4.8429070078740155
11
7.8488999606299208
21
-4.8391574803149604
0
LINE
8
BLACK
6
CONTINUOUS
10
7.8488999606299208
20
-4.8391574803149604
11
7.8451504330708657
21
-4.8316583858267714
0
LINE
8
BLACK
6
CONTINUOUS
10
7.8451504330708657
20
-4.8316583858267714
11
7.8451504330708657
21
-4.7641668503937007
0
LINE
8
BLACK
6
CONTINUOUS
10
7.9201410629921254
20
-4.8429070078740155
11
7.9201410629921254
21
-4.8016621653543305
0
LINE
8
BLACK
6
CONTINUOUS
10
7.9201410629921254
20
-4.8016621653543305
11
7.9163915354330703
21
-4.7941630708661416
0
LINE
8
BLACK
6
CONTINUOUS
10
7.9163915354330703
20
-4.7941630708661416
11
7.9088924803149601
21
-4.7904135433070865
0
LINE
8
BLACK
6
CONTINUOUS
10
7.9088924803149601
20
-4.7904135433070865
11
7.8938943307086609
21
-4.7904135433070865
0
LINE
8
BLACK
6
CONTINUOUS
10
7.8938943307086609
20
-4.7904135433070865
11
7.8863952755905506
21
-4.7941630708661416
0
LINE
8
BLACK
6
CONTINUOUS
10
7.9201410629921254
20
-4.8391574803149604
11
7.9126420078740152
21
-4.8429070078740155
0
LINE
8
BLACK
6
CONTINUOUS
10
7.9126420078740152
20
-4.8429070078740155
11
7.8938943307086609
21
-4.8429070078740155
0
LINE
8
BLACK
6
CONTINUOUS
10
7.8938943307086609
20
-4.8429070078740155
11
7.8863952755905506
21
-4.8391574803149604
0
LINE
8
BLACK
6
CONTINUOUS
10
7.8863952755905506
20
-4.8391574803149604
11
7.8826457480314955
21
-4.8316583858267714
0
LINE
8
BLACK
6
CONTINUOUS
10
7.8826457480314955
20
-4.8316583858267714
11
7.8826457480314955
21
-4.8241593307086612
0
LINE
8
BLACK
6
CONTINUOUS
10
7.8826457480314955
20
-4.8241593307086612
11
7.8863952755905506
21
-4.816660275590551
0
LINE
8
BLACK
6
CONTINUOUS
10
7.8863952755905506
20
-4.816660275590551
11
7.8938943307086609
21
-4.8129107480314959
0
LINE
8
BLACK
6
CONTINUOUS
10
7.8938943307086609
20
-4.8129107480314959
11
7.9126420078740152
21
-4.8129107480314959
0
LINE
8
BLACK
6
CONTINUOUS
10
7.9126420078740152
20
-4.8129107480314959
11
7.9201410629921254
21
-4.8091612204724408
0
LINE
8
BLACK
6
CONTINUOUS
10
7.9463877952755908
20
-4.7904135433070865
11
7.9763840157480317
21
-4.7904135433070865
0
LINE
8
BLACK
6
CONTINUOUS
10
7.9576363779527561
20
-4.7641668503937007
11
7.9576363779527561
21
-4.8316583858267714
0
LINE
8
BLACK
6
CONTINUOUS
10
7.9576363779527561
20
-4.8316583858267714
11
7.9613859055118112
21
-4.8391574803149604
0
LINE
8
BLACK
6
CONTINUOUS
10
7.9613859055118112
20
-4.8391574803149604
11
7.9688849606299215
21
-4.8429070078740155
0
LINE
8
BLACK
6
CONTINUOUS
10
7.9688849606299215
20
-4.8429070078740155
11
7.9763840157480317
21
-4.8429070078740155
0
LINE
8
BLACK
6
CONTINUOUS
10
8.0326270078740158
20
-4.8391574803149604
11
8.0251279527559056
21
-4.8429070078740155
0
LINE
8
BLACK
6
CONTINUOUS
10
8.0251279527559056
20
-4.8429070078740155
11
8.0101298031496064
21
-4.8429070078740155
0
LINE
8
BLACK
6
CONTINUOUS
10
8.0101298031496064
20
-4.8429070078740155
11
8.0026307480314962
21
-4.8391574803149604
0
LINE
8
BLACK
6
CONTINUOUS
10
8.0026307480314962
20
-4.8391574803149604
11
7.9988812204724411
21
-4.8316583858267714
0
LINE
8
BLACK
6
CONTINUOUS
10
7.9988812204724411
20
-4.8316583858267714
11
7.9988812204724411
21
-4.8016621653543305
0
LINE
8
BLACK
6
CONTINUOUS
10
7.9988812204724411
20
-4.8016621653543305
11
8.0026307480314962
21
-4.7941630708661416
0
LINE
8
BLACK
6
CONTINUOUS
10
8.0026307480314962
20
-4.7941630708661416
11
8.0101298031496064
21
-4.7904135433070865
0
LINE
8
BLACK
6
CONTINUOUS
10
8.0101298031496064
20
-4.7904135433070865
11
8.0251279527559056
21
-4.7904135433070865
0
LINE
8
BLACK
6
CONTINUOUS
10
8.0251279527559056
20
-4.7904135433070865
11
8.0326270078740158
21
-4.7941630708661416
0
LINE
8
BLACK
6
CONTINUOUS
10
8.0326270078740158
20
-4.7941630708661416
11
8.036376535433071
21
-4.8016621653543305
0
LINE
8
BLACK
6
CONTINUOUS
10
8.036376535433071
20
-4.8016621653543305
11
8.036376535433071
21
-4.8091612204724408
0
LINE
8
BLACK
6
CONTINUOUS
10
8.036376535433071
20
-4.8091612204724408
11
7.9988812204724411
21
-4.816660275590551
0
LINE
8
BLACK
6
CONTINUOUS
10
8.1038681102362204
20
-4.8429070078740155
11
8.1038681102362204
21
-4.7641668503937007
0
LINE
8
BLACK
6
CONTINUOUS
10
8.1038681102362204
20
-4.8391574803149604
11
8.0963690551181102
21
-4.8429070078740155
0
LINE
8
BLACK
6
CONTINUOUS
10
8.0963690551181102
20
-4.8429070078740155
11
8.081370905511811
21
-4.8429070078740155
0
LINE
8
BLACK
6
CONTINUOUS
10
8.081370905511811
20
-4.8429070078740155
11
8.0738718503937008
21
-4.8391574803149604
0
LINE
8
BLACK
6
CONTINUOUS
10
8.0738718503937008
20
-4.8391574803149604
11
8.0701223228346457
21
-4.8354079133858265
0
LINE
8
BLACK
6
CONTINUOUS
10
8.0701223228346457
20
-4.8354079133858265
11
8.0663727952755906
21
-4.8279088582677163
0
LINE
8
BLACK
6
CONTINUOUS
10
8.0663727952755906
20
-4.8279088582677163
11
8.0663727952755906
21
-4.8054116929133857
0
LINE
8
BLACK
6
CONTINUOUS
10
8.0663727952755906
20
-4.8054116929133857
11
8.0701223228346457
21
-4.7979125984251967
0
LINE
8
BLACK
6
CONTINUOUS
10
8.0701223228346457
20
-4.7979125984251967
11
8.0738718503937008
21
-4.7941630708661416
0
LINE
8
BLACK
6
CONTINUOUS
10
8.0738718503937008
20
-4.7941630708661416
11
8.081370905511811
21
-4.7904135433070865
0
LINE
8
BLACK
6
CONTINUOUS
10
8.081370905511811
20
-4.7904135433070865
11
8.0963690551181102
21
-4.7904135433070865
0
LINE
8
BLACK
6
CONTINUOUS
10
8.0963690551181102
20
-4.7904135433070865
11
8.1038681102362204
21
-4.7941630708661416
0
LINE
8
BLACK
6
CONTINUOUS
10
8.1338643700787401
20
-4.8729032283464564
11
8.1376138976377952
21
-4.8691537007874013
0
LINE
8
BLACK
6
CONTINUOUS
10
8.1376138976377952
20
-4.8691537007874013
11
8.1451129527559054
21
-4.857905118110236
0
LINE
8
BLACK
6
CONTINUOUS
10
8.1451129527559054
20
-4.857905118110236
11
8.1488624803149605
21
-4.8504060629921257
0
LINE
8
BLACK
6
CONTINUOUS
10
8.1488624803149605
20
-4.8504060629921257
11
8.1526120078740156
21
-4.8391574803149604
0
LINE
8
BLACK
6
CONTINUOUS
10
8.1526120078740156
20
-4.8391574803149604
11
8.1563615354330707
21
-4.8204098031496061
0
LINE
8
BLACK
6
CONTINUOUS
10
8.1563615354330707
20
-4.8204098031496061
11
8.1563615354330707
21
-4.8054116929133857
0
LINE
8
BLACK
6
CONTINUOUS
10
8.1563615354330707
20
-4.8054116929133857
11
8.1526120078740156
21
-4.7866640157480314
0
LINE
8
BLACK
6
CONTINUOUS
10
8.1526120078740156
20
-4.7866640157480314
11
8.1488624803149605
21
-4.775415433070866
0
LINE
8
BLACK
6
CONTINUOUS
10
8.1488624803149605
20
-4.775415433070866
11
8.1451129527559054
21
-4.7679163779527558
0
LINE
8
BLACK
6
CONTINUOUS
10
8.1451129527559054
20
-4.7679163779527558
11
8.1376138976377952
21
-4.7566677559055117
0
LINE
8
BLACK
6
CONTINUOUS
10
8.1376138976377952
20
-4.7566677559055117
11
8.1338643700787401
21
-4.7529182283464566
0
LINE
8
BLACK
6
CONTINUOUS
10
5.4346456692913385
20
-4.8935039370078739
11
5.4346456692913385
21
-4.9722440944881887
0
LINE
8
BLACK
6
CONTINUOUS
10
5.3952755905511811
20
-4.9328740157480313
11
5.4740157480314959
21
-4.9328740157480313
0
LINE
8
BLACK
6
CONTINUOUS
10
5.6104295669291337
20
-4.9163977952755902
11
5.6104295669291337
21
-4.9688912598425192
0
LINE
8
BLACK
6
CONTINUOUS
10
5.5916818897637794
20
-4.8864015748031493
11
5.5729342519685039
21
-4.9426445275590547
0
LINE
8
BLACK
6
CONTINUOUS
10
5.5729342519685039
20
-4.9426445275590547
11
5.6216781496062991
21
-4.9426445275590547
0
LINE
8
BLACK
6
CONTINUOUS
10
5.6516744094488187
20
-4.9613921653543303
11
5.6554239370078738
21
-4.9651417322834641
0
LINE
8
BLACK
6
CONTINUOUS
10
5.6554239370078738
20
-4.9651417322834641
11
5.6516744094488187
21
-4.9688912598425192
0
LINE
8
BLACK
6
CONTINUOUS
10
5.6516744094488187
20
-4.9688912598425192
11
5.6479248818897636
21
-4.9651417322834641
0
LINE
8
BLACK
6
CONTINUOUS
10
5.6479248818897636
20
-4.9651417322834641
11
5.6516744094488187
21
-4.9613921653543303
0
LINE
8
BLACK
6
CONTINUOUS
10
5.6516744094488187
20
-4.9613921653543303
11
5.6516744094488187
21
-4.9688912598425192
0
LINE
8
BLACK
6
CONTINUOUS
10
5.704167834645669
20
-4.8901511023622044
11
5.711666929133858
21
-4.8901511023622044
0
LINE
8
BLACK
6
CONTINUOUS
10
5.711666929133858
20
-4.8901511023622044
11
5.7191659842519682
21
-4.8939006299212595
0
LINE
8
BLACK
6
CONTINUOUS
10
5.7191659842519682
20
-4.8939006299212595
11
5.7229155118110233
21
-4.8976501574803146
0
LINE
8
BLACK
6
CONTINUOUS
10
5.7229155118110233
20
-4.8976501574803146
11
5.7266650393700784
21
-4.9051492125984248
0
LINE
8
BLACK
6
CONTINUOUS
10
5.7266650393700784
20
-4.9051492125984248
11
5.7304145669291335
21
-4.9201473228346453
0
LINE
8
BLACK
6
CONTINUOUS
10
5.7304145669291335
20
-4.9201473228346453
11
5.7304145669291335
21
-4.9388949999999996
0
LINE
8
BLACK
6
CONTINUOUS
10
5.7304145669291335
20
-4.9388949999999996
11
5.7266650393700784
21
-4.95389311023622
0
LINE
8
BLACK
6
CONTINUOUS
10
5.7266650393700784
20
-4.95389311023622
11
5.7229155118110233
21
-4.9613921653543303
0
LINE
8
BLACK
6
CONTINUOUS
10
5.7229155118110233
20
-4.9613921653543303
11
5.7191659842519682
21
-4.9651417322834641
0
LINE
8
BLACK
6
CONTINUOUS
10
5.7191659842519682
20
-4.9651417322834641
11
5.711666929133858
21
-4.9688912598425192
0
LINE
8
BLACK
6
CONTINUOUS
10
5.711666929133858
20
-4.9688912598425192
11
5.704167834645669
21
-4.9688912598425192
0
LINE
8
BLACK
6
CONTINUOUS
10
5.704167834645669
20
-4.9688912598425192
11
5.6966687795275588
21
-4.9651417322834641
0
LINE
8
BLACK
6
CONTINUOUS
10
5.6966687795275588
20
-4.9651417322834641
11
5.6929192519685037
21
-4.9613921653543303
0
LINE
8
BLACK
6
CONTINUOUS
10
5.6929192519685037
20
-4.9613921653543303
11
5.6891697244094486
21
-4.95389311023622
0
LINE
8
BLACK
6
CONTINUOUS
10
5.6891697244094486
20
-4.95389311023622
11
5.6854201968503935
21
-4.9388949999999996
0
LINE
8
BLACK
6
CONTINUOUS
10
5.6854201968503935
20
-4.9388949999999996
11
5.6854201968503935
21
-4.9201473228346453
0
LINE
8
BLACK
6
CONTINUOUS
10
5.6854201968503935
20
-4.9201473228346453
11
5.6891697244094486
21
-4.9051492125984248
0
LINE
8
BLACK
6
CONTINUOUS
10
5.6891697244094486
20
-4.9051492125984248
11
5.6929192519685037
21
-4.8976501574803146
0
LINE
8
BLACK
6
CONTINUOUS
10
5.6929192519685037
20
-4.8976501574803146
11
5.6966687795275588
21
-4.8939006299212595
0
LINE
8
BLACK
6
CONTINUOUS
10
5.6966687795275588
20
-4.8939006299212595
11
5.704167834645669
21
-4.8901511023622044
0
LINE
8
BLACK
6
CONTINUOUS
10
5.7566612992125981
20
-4.8901511023622044
11
5.8054051968503932
21
-4.8901511023622044
0
LINE
8
BLACK
6
CONTINUOUS
10
5.8054051968503932
20
-4.8901511023622044
11
5.7791584645669287
21
-4.9201473228346453
0
LINE
8
BLACK
6
CONTINUOUS
10
5.7791584645669287
20
-4.9201473228346453
11
5.7904070866141728
21
-4.9201473228346453
0
LINE
8
BLACK
6
CONTINUOUS
10
5.7904070866141728
20
-4.9201473228346453
11
5.797906141732283
21
-4.9238968503937004
0
LINE
8
BLACK
6
CONTINUOUS
10
5.797906141732283
20
-4.9238968503937004
11
5.8016556692913381
21
-4.9276464173228343
0
LINE
8
BLACK
6
CONTINUOUS
10
5.8016556692913381
20
-4.9276464173228343
11
5.8054051968503932
21
-4.9351454724409445
0
LINE
8
BLACK
6
CONTINUOUS
10
5.8054051968503932
20
-4.9351454724409445
11
5.8054051968503932
21
-4.95389311023622
0
LINE
8
BLACK
6
CONTINUOUS
10
5.8054051968503932
20
-4.95389311023622
11
5.8016556692913381
21
-4.9613921653543303
0
LINE
8
BLACK
6
CONTINUOUS
10
5.8016556692913381
20
-4.9613921653543303
11
5.797906141732283
21
-4.9651417322834641
0
LINE
8
BLACK
6
CONTINUOUS
10
5.797906141732283
20
-4.9651417322834641
11
5.7904070866141728
21
-4.9688912598425192
0
LINE
8
BLACK
6
CONTINUOUS
10
5.7904070866141728
20
-4.9688912598425192
11
5.7679098818897634
21
-4.9688912598425192
0
LINE
8
BLACK
6
CONTINUOUS
10
5.7679098818897634
20
-4.9688912598425192
11
5.7604108267716532
21
-4.9651417322834641
0
LINE
8
BLACK
6
CONTINUOUS
10
5.7604108267716532
20
-4.9651417322834641
11
5.7566612992125981
21
-4.9613921653543303
0
LINE
8
BLACK
6
CONTINUOUS
10
5.8429005118110231
20
-4.9688912598425192
11
5.8578986220472435
21
-4.9688912598425192
0
LINE
8
BLACK
6
CONTINUOUS
10
5.8578986220472435
20
-4.9688912598425192
11
5.8653977165354325
21
-4.9651417322834641
0
LINE
8
BLACK
6
CONTINUOUS
10
5.8653977165354325
20
-4.9651417322834641
11
5.8691472440944876
21
-4.9613921653543303
0
LINE
8
BLACK
6
CONTINUOUS
10
5.8691472440944876
20
-4.9613921653543303
11
5.8766462992125987
21
-4.9501435826771649
0
LINE
8
BLACK
6
CONTINUOUS
10
5.8766462992125987
20
-4.9501435826771649
11
5.8803958267716538
21
-4.9351454724409445
0
LINE
8
BLACK
6
CONTINUOUS
10
5.8803958267716538
20
-4.9351454724409445
11
5.8803958267716538
21
-4.9051492125984248
0
LINE
8
BLACK
6
CONTINUOUS
10
5.8803958267716538
20
-4.9051492125984248
11
5.8766462992125987
21
-4.8976501574803146
0
LINE
8
BLACK
6
CONTINUOUS
10
5.8766462992125987
20
-4.8976501574803146
11
5.8728967716535427
21
-4.8939006299212595
0
LINE
8
BLACK
6
CONTINUOUS
10
5.8728967716535427
20
-4.8939006299212595
11
5.8653977165354325
21
-4.8901511023622044
0
LINE
8
BLACK
6
CONTINUOUS
10
5.8653977165354325
20
-4.8901511023622044
11
5.8503995669291333
21
-4.8901511023622044
0
LINE
8
BLACK
6
CONTINUOUS
10
5.8503995669291333
20
-4.8901511023622044
11
5.8429005118110231
21
-4.8939006299212595
0
LINE
8
BLACK
6
CONTINUOUS
10
5.8429005118110231
20
-4.8939006299212595
11
5.839150984251968
21
-4.8976501574803146
0
LINE
8
BLACK
6
CONTINUOUS
10
5.839150984251968
20
-4.8976501574803146
11
5.8354014566929129
21
-4.9051492125984248
0
LINE
8
BLACK
6
CONTINUOUS
10
5.8354014566929129
20
-4.9051492125984248
11
5.8354014566929129
21
-4.9238968503937004
0
LINE
8
BLACK
6
CONTINUOUS
10
5.8354014566929129
20
-4.9238968503937004
11
5.839150984251968
21
-4.9313959448818894
0
LINE
8
BLACK
6
CONTINUOUS
10
5.839150984251968
20
-4.9313959448818894
11
5.8429005118110231
21
-4.9351454724409445
0
LINE
8
BLACK
6
CONTINUOUS
10
5.8429005118110231
20
-4.9351454724409445
11
5.8503995669291333
21
-4.9388949999999996
0
LINE
8
BLACK
6
CONTINUOUS
10
5.8503995669291333
20
-4.9388949999999996
11
5.8653977165354325
21
-4.9388949999999996
0
LINE
8
BLACK
6
CONTINUOUS
10
5.8653977165354325
20
-4.9388949999999996
11
5.8728967716535427
21
-4.9351454724409445
0
LINE
8
BLACK
6
CONTINUOUS
10
5.8728967716535427
20
-4.9351454724409445
11
5.8766462992125987
21
-4.9313959448818894
0
LINE
8
BLACK
6
CONTINUOUS
10
5.8766462992125987
20
-4.9313959448818894
11
5.8803958267716538
21
-4.9238968503937004
0
LINE
8
BLACK
6
CONTINUOUS
10
5.9141416141732286
20
-4.9688912598425192
11
5.9141416141732286
21
-4.9163977952755902
0
LINE
8
BLACK
6
CONTINUOUS
10
5.9141416141732286
20
-4.9238968503937004
11
5.9178911417322837
21
-4.9201473228346453
0
LINE
8
BLACK
6
CONTINUOUS
10
5.9178911417322837
20
-4.9201473228346453
11
5.9253901968503939
21
-4.9163977952755902
0
LINE
8
BLACK
6
CONTINUOUS
10
5.9253901968503939
20
-4.9163977952755902
11
5.936638818897638
21
-4.9163977952755902
0
LINE
8
BLACK
6
CONTINUOUS
10
5.936638818897638
20
-4.9163977952755902
11
5.9441378740157482
21
-4.9201473228346453
0
LINE
8
BLACK
6
CONTINUOUS
10
5.9441378740157482
20
-4.9201473228346453
11
5.9478874015748033
21
-4.9276464173228343
0
LINE
8
BLACK
6
CONTINUOUS
10
5.9478874015748033
20
-4.9276464173228343
11
5.9478874015748033
21
-4.9688912598425192
0
LINE
8
BLACK
6
CONTINUOUS
10
5.9478874015748033
20
-4.9276464173228343
11
5.9516369291338584
21
-4.9201473228346453
0
LINE
8
BLACK
6
CONTINUOUS
10
5.9516369291338584
20
-4.9201473228346453
11
5.9591359842519687
21
-4.9163977952755902
0
LINE
8
BLACK
6
CONTINUOUS
10
5.9591359842519687
20
-4.9163977952755902
11
5.970384566929134
21
-4.9163977952755902
0
LINE
8
BLACK
6
CONTINUOUS
10
5.970384566929134
20
-4.9163977952755902
11
5.977883661417323
21
-4.9201473228346453
0
LINE
8
BLACK
6
CONTINUOUS
10
5.977883661417323
20
-4.9201473228346453
11
5.9816331889763781
21
-4.9276464173228343
0
LINE
8
BLACK
6
CONTINUOUS
10
5.9816331889763781
20
-4.9276464173228343
11
5.9816331889763781
21
-4.9688912598425192
0
LINE
8
BLACK
6
CONTINUOUS
10
6.0191285039370079
20
-4.9688912598425192
11
6.0191285039370079
21
-4.9163977952755902
0
LINE
8
BLACK
6
CONTINUOUS
10
6.0191285039370079
20
-4.9238968503937004
11
6.022878031496063
21
-4.9201473228346453
0
LINE
8
BLACK
6
CONTINUOUS
10
6.022878031496063
20
-4.9201473228346453
11
6.0303770866141733
21
-4.9163977952755902
0
LINE
8
BLACK
6
CONTINUOUS
10
6.0303770866141733
20
-4.9163977952755902
11
6.0416257086614173
21
-4.9163977952755902
0
LINE
8
BLACK
6
CONTINUOUS
10
6.0416257086614173
20
-4.9163977952755902
11
6.0491247637795276
21
-4.9201473228346453
0
LINE
8
BLACK
6
CONTINUOUS
10
6.0491247637795276
20
-4.9201473228346453
11
6.0528742913385827
21
-4.9276464173228343
0
LINE
8
BLACK
6
CONTINUOUS
10
6.0528742913385827
20
-4.9276464173228343
11
6.0528742913385827
21
-4.9688912598425192
0
LINE
8
BLACK
6
CONTINUOUS
10
6.0528742913385827
20
-4.9276464173228343
11
6.0566238188976378
21
-4.9201473228346453
0
LINE
8
BLACK
6
CONTINUOUS
10
6.0566238188976378
20
-4.9201473228346453
11
6.064122874015748
21
-4.9163977952755902
0
LINE
8
BLACK
6
CONTINUOUS
10
6.064122874015748
20
-4.9163977952755902
11
6.0753714566929133
21
-4.9163977952755902
0
LINE
8
BLACK
6
CONTINUOUS
10
6.0753714566929133
20
-4.9163977952755902
11
6.0828705511811023
21
-4.9201473228346453
0
LINE
8
BLACK
6
CONTINUOUS
10
6.0828705511811023
20
-4.9201473228346453
11
6.0866200787401574
21
-4.9276464173228343
0
LINE
8
BLACK
6
CONTINUOUS
10
6.0866200787401574
20
-4.9276464173228343
11
6.0866200787401574
21
-4.9688912598425192
0
LINE
8
BLACK
6
CONTINUOUS
10
6.240350866141732
20
-4.8864015748031493
11
6.1728593307086612
21
-4.9876388976377948
0
LINE
8
BLACK
6
CONTINUOUS
10
6.3415882283464562
20
-4.8901511023622044
11
6.3490873228346452
21
-4.8901511023622044
0
LINE
8
BLACK
6
CONTINUOUS
10
6.3490873228346452
20
-4.8901511023622044
11
6.3565863779527554
21
-4.8939006299212595
0
LINE
8
BLACK
6
CONTINUOUS
10
6.3565863779527554
20
-4.8939006299212595
11
6.3603359055118105
21
-4.8976501574803146
0
LINE
8
BLACK
6
CONTINUOUS
10
6.3603359055118105
20
-4.8976501574803146
11
6.3640854330708656
21
-4.9051492125984248
0
LINE
8
BLACK
6
CONTINUOUS
10
6.3640854330708656
20
-4.9051492125984248
11
6.3678349606299207
21
-4.9201473228346453
0
LINE
8
BLACK
6
CONTINUOUS
10
6.3678349606299207
20
-4.9201473228346453
11
6.3678349606299207
21
-4.9388949999999996
0
LINE
8
BLACK
6
CONTINUOUS
10
6.3678349606299207
20
-4.9388949999999996
11
6.3640854330708656
21
-4.95389311023622
0
LINE
8
BLACK
6
CONTINUOUS
10
6.3640854330708656
20
-4.95389311023622
11
6.3603359055118105
21
-4.9613921653543303
0
LINE
8
BLACK
6
CONTINUOUS
10
6.3603359055118105
20
-4.9613921653543303
11
6.3565863779527554
21
-4.9651417322834641
0
LINE
8
BLACK
6
CONTINUOUS
10
6.3565863779527554
20
-4.9651417322834641
11
6.3490873228346452
21
-4.9688912598425192
0
LINE
8
BLACK
6
CONTINUOUS
10
6.3490873228346452
20
-4.9688912598425192
11
6.3415882283464562
21
-4.9688912598425192
0
LINE
8
BLACK
6
CONTINUOUS
10
6.3415882283464562
20
-4.9688912598425192
11
6.334089173228346
21
-4.9651417322834641
0
LINE
8
BLACK
6
CONTINUOUS
10
6.334089173228346
20
-4.9651417322834641
11
6.3303396456692909
21
-4.9613921653543303
0
LINE
8
BLACK
6
CONTINUOUS
10
6.3303396456692909
20
-4.9613921653543303
11
6.3265901181102357
21
-4.95389311023622
0
LINE
8
BLACK
6
CONTINUOUS
10
6.3265901181102357
20
-4.95389311023622
11
6.3228405905511806
21
-4.9388949999999996
0
LINE
8
BLACK
6
CONTINUOUS
10
6.3228405905511806
20
-4.9388949999999996
11
6.3228405905511806
21
-4.9201473228346453
0
LINE
8
BLACK
6
CONTINUOUS
10
6.3228405905511806
20
-4.9201473228346453
11
6.3265901181102357
21
-4.9051492125984248
0
LINE
8
BLACK
6
CONTINUOUS
10
6.3265901181102357
20
-4.9051492125984248
11
6.3303396456692909
21
-4.8976501574803146
0
LINE
8
BLACK
6
CONTINUOUS
10
6.3303396456692909
20
-4.8976501574803146
11
6.334089173228346
21
-4.8939006299212595
0
LINE
8
BLACK
6
CONTINUOUS
10
6.334089173228346
20
-4.8939006299212595
11
6.3415882283464562
21
-4.8901511023622044
0
LINE
8
BLACK
6
CONTINUOUS
10
6.4015807480314963
20
-4.9613921653543303
11
6.4053302755905515
21
-4.9651417322834641
0
LINE
8
BLACK
6
CONTINUOUS
10
6.4053302755905515
20
-4.9651417322834641
11
6.4015807480314963
21
-4.9688912598425192
0
LINE
8
BLACK
6
CONTINUOUS
10
6.4015807480314963
20
-4.9688912598425192
11
6.3978312204724412
21
-4.9651417322834641
0
LINE
8
BLACK
6
CONTINUOUS
10
6.3978312204724412
20
-4.9651417322834641
11
6.4015807480314963
21
-4.9613921653543303
0
LINE
8
BLACK
6
CONTINUOUS
10
6.4015807480314963
20
-4.9613921653543303
11
6.4015807480314963
21
-4.9688912598425192
0
LINE
8
BLACK
6
CONTINUOUS
10
6.4803209055118112
20
-4.9688912598425192
11
6.4353265354330711
21
-4.9688912598425192
0
LINE
8
BLACK
6
CONTINUOUS
10
6.4578237007874018
20
-4.9688912598425192
11
6.4578237007874018
21
-4.8901511023622044
0
LINE
8
BLACK
6
CONTINUOUS
10
6.4578237007874018
20
-4.8901511023622044
11
6.4503246456692915
21
-4.9013996850393697
0
LINE
8
BLACK
6
CONTINUOUS
10
6.4503246456692915
20
-4.9013996850393697
11
6.4428255905511813
21
-4.90889874015748
0
LINE
8
BLACK
6
CONTINUOUS
10
6.4428255905511813
20
-4.90889874015748
11
6.4353265354330711
21
-4.9126482677165351
0
LINE
8
BLACK
6
CONTINUOUS
10
6.5515620078740158
20
-4.8901511023622044
11
6.5140666929133859
21
-4.8901511023622044
0
LINE
8
BLACK
6
CONTINUOUS
10
6.5140666929133859
20
-4.8901511023622044
11
6.5103171653543308
21
-4.9276464173228343
0
LINE
8
BLACK
6
CONTINUOUS
10
6.5103171653543308
20
-4.9276464173228343
11
6.5140666929133859
21
-4.9238968503937004
0
LINE
8
BLACK
6
CONTINUOUS
10
6.5140666929133859
20
-4.9238968503937004
11
6.5215657480314961
21
-4.9201473228346453
0
LINE
8
BLACK
6
CONTINUOUS
10
6.5215657480314961
20
-4.9201473228346453
11
6.5403134251968504
21
-4.9201473228346453
0
LINE
8
BLACK
6
CONTINUOUS
10
6.5403134251968504
20
-4.9201473228346453
11
6.5478124803149607
21
-4.9238968503937004
0
LINE
8
BLACK
6
CONTINUOUS
10
6.5478124803149607
20
-4.9238968503937004
11
6.5515620078740158
21
-4.9276464173228343
0
LINE
8
BLACK
6
CONTINUOUS
10
6.5515620078740158
20
-4.9276464173228343
11
6.5553115354330709
21
-4.9351454724409445
0
LINE
8
BLACK
6
CONTINUOUS
10
6.5553115354330709
20
-4.9351454724409445
11
6.5553115354330709
21
-4.95389311023622
0
LINE
8
BLACK
6
CONTINUOUS
10
6.5553115354330709
20
-4.95389311023622
11
6.5515620078740158
21
-4.9613921653543303
0
LINE
8
BLACK
6
CONTINUOUS
10
6.5515620078740158
20
-4.9613921653543303
11
6.5478124803149607
21
-4.9651417322834641
0
LINE
8
BLACK
6
CONTINUOUS
10
6.5478124803149607
20
-4.9651417322834641
11
6.5403134251968504
21
-4.9688912598425192
0
LINE
8
BLACK
6
CONTINUOUS
10
6.5403134251968504
20
-4.9688912598425192
11
6.5215657480314961
21
-4.9688912598425192
0
LINE
8
BLACK
6
CONTINUOUS
10
6.5215657480314961
20
-4.9688912598425192
11
6.5140666929133859
21
-4.9651417322834641
0
LINE
8
BLACK
6
CONTINUOUS
10
6.5140666929133859
20
-4.9651417322834641
11
6.5103171653543308
21
-4.9613921653543303
0
LINE
8
BLACK
6
CONTINUOUS
10
6.5928068503937007
20
-4.9688912598425192
11
6.6078049606299212
21
-4.9688912598425192
0
LINE
8
BLACK
6
CONTINUOUS
10
6.6078049606299212
20
-4.9688912598425192
11
6.6153040551181101
21
-4.9651417322834641
0
LINE
8
BLACK
6
CONTINUOUS
10
6.6153040551181101
20
-4.9651417322834641
11
6.6190535826771653
21
-4.9613921653543303
0
LINE
8
BLACK
6
CONTINUOUS
10
6.6190535826771653
20
-4.9613921653543303
11
6.6265526377952755
21
-4.9501435826771649
0
LINE
8
BLACK
6
CONTINUOUS
10
6.6265526377952755
20
-4.9501435826771649
11
6.6303021653543306
21
-4.9351454724409445
0
LINE
8
BLACK
6
CONTINUOUS
10
6.6303021653543306
20
-4.9351454724409445
11
6.6303021653543306
21
-4.9051492125984248
0
LINE
8
BLACK
6
CONTINUOUS
10
6.6303021653543306
20
-4.9051492125984248
11
6.6265526377952755
21
-4.8976501574803146
0
LINE
8
BLACK
6
CONTINUOUS
10
6.6265526377952755
20
-4.8976501574803146
11
6.6228031102362204
21
-4.8939006299212595
0
LINE
8
BLACK
6
CONTINUOUS
10
6.6228031102362204
20
-4.8939006299212595
11
6.6153040551181101
21
-4.8901511023622044
0
LINE
8
BLACK
6
CONTINUOUS
10
6.6153040551181101
20
-4.8901511023622044
11
6.600305905511811
21
-4.8901511023622044
0
LINE
8
BLACK
6
CONTINUOUS
10
6.600305905511811
20
-4.8901511023622044
11
6.5928068503937007
21
-4.8939006299212595
0
LINE
8
BLACK
6
CONTINUOUS
10
6.5928068503937007
20
-4.8939006299212595
11
6.5890573228346456
21
-4.8976501574803146
0
LINE
8
BLACK
6
CONTINUOUS
10
6.5890573228346456
20
-4.8976501574803146
11
6.5853077952755905
21
-4.9051492125984248
0
LINE
8
BLACK
6
CONTINUOUS
10
6.5853077952755905
20
-4.9051492125984248
11
6.5853077952755905
21
-4.9238968503937004
0
LINE
8
BLACK
6
CONTINUOUS
10
6.5853077952755905
20
-4.9238968503937004
11
6.5890573228346456
21
-4.9313959448818894
0
LINE
8
BLACK
6
CONTINUOUS
10
6.5890573228346456
20
-4.9313959448818894
11
6.5928068503937007
21
-4.9351454724409445
0
LINE
8
BLACK
6
CONTINUOUS
10
6.5928068503937007
20
-4.9351454724409445
11
6.600305905511811
21
-4.9388949999999996
0
LINE
8
BLACK
6
CONTINUOUS
10
6.600305905511811
20
-4.9388949999999996
11
6.6153040551181101
21
-4.9388949999999996
0
LINE
8
BLACK
6
CONTINUOUS
10
6.6153040551181101
20
-4.9388949999999996
11
6.6228031102362204
21
-4.9351454724409445
0
LINE
8
BLACK
6
CONTINUOUS
10
6.6228031102362204
20
-4.9351454724409445
11
6.6265526377952755
21
-4.9313959448818894
0
LINE
8
BLACK
6
CONTINUOUS
10
6.6265526377952755
20
-4.9313959448818894
11
6.6303021653543306
21
-4.9238968503937004
0
LINE
8
BLACK
6
CONTINUOUS
10
6.6790460629921258
20
-4.8901511023622044
11
6.6865451574803147
21
-4.8901511023622044
0
LINE
8
BLACK
6
CONTINUOUS
10
6.6865451574803147
20
-4.8901511023622044
11
6.694044212598425
21
-4.8939006299212595
0
LINE
8
BLACK
6
CONTINUOUS
10
6.694044212598425
20
-4.8939006299212595
11
6.6977937401574801
21
-4.8976501574803146
0
LINE
8
BLACK
6
CONTINUOUS
10
6.6977937401574801
20
-4.8976501574803146
11
6.7015432677165352
21
-4.9051492125984248
0
LINE
8
BLACK
6
CONTINUOUS
10
6.7015432677165352
20
-4.9051492125984248
11
6.7052927952755903
21
-4.9201473228346453
0
LINE
8
BLACK
6
CONTINUOUS
10
6.7052927952755903
20
-4.9201473228346453
11
6.7052927952755903
21
-4.9388949999999996
0
LINE
8
BLACK
6
CONTINUOUS
10
6.7052927952755903
20
-4.9388949999999996
11
6.7015432677165352
21
-4.95389311023622
0
LINE
8
BLACK
6
CONTINUOUS
10
6.7015432677165352
20
-4.95389311023622
11
6.6977937401574801
21
-4.9613921653543303
0
LINE
8
BLACK
6
CONTINUOUS
10
6.6977937401574801
20
-4.9613921653543303
11
6.694044212598425
21
-4.9651417322834641
0
LINE
8
BLACK
6
CONTINUOUS
10
6.694044212598425
20
-4.9651417322834641
11
6.6865451574803147
21
-4.9688912598425192
0
LINE
8
BLACK
6
CONTINUOUS
10
6.6865451574803147
20
-4.9688912598425192
11
6.6790460629921258
21
-4.9688912598425192
0
LINE
8
BLACK
6
CONTINUOUS
10
6.6790460629921258
20
-4.9688912598425192
11
6.6715470078740156
21
-4.9651417322834641
0
LINE
8
BLACK
6
CONTINUOUS
10
6.6715470078740156
20
-4.9651417322834641
11
6.6677974803149604
21
-4.9613921653543303
0
LINE
8
BLACK
6
CONTINUOUS
10
6.6677974803149604
20
-4.9613921653543303
11
6.6640479527559053
21
-4.95389311023622
0
LINE
8
BLACK
6
CONTINUOUS
10
6.6640479527559053
20
-4.95389311023622
11
6.6602984251968502
21
-4.9388949999999996
0
LINE
8
BLACK
6
CONTINUOUS
10
6.6602984251968502
20
-4.9388949999999996
11
6.6602984251968502
21
-4.9201473228346453
0
LINE
8
BLACK
6
CONTINUOUS
10
6.6602984251968502
20
-4.9201473228346453
11
6.6640479527559053
21
-4.9051492125984248
0
LINE
8
BLACK
6
CONTINUOUS
10
6.6640479527559053
20
-4.9051492125984248
11
6.6677974803149604
21
-4.8976501574803146
0
LINE
8
BLACK
6
CONTINUOUS
10
6.6677974803149604
20
-4.8976501574803146
11
6.6715470078740156
21
-4.8939006299212595
0
LINE
8
BLACK
6
CONTINUOUS
10
6.6715470078740156
20
-4.8939006299212595
11
6.6790460629921258
21
-4.8901511023622044
0
LINE
8
BLACK
6
CONTINUOUS
10
6.7352890551181099
20
-4.8901511023622044
11
6.7352890551181099
21
-4.9051492125984248
0
LINE
8
BLACK
6
CONTINUOUS
10
6.7652853149606296
20
-4.8901511023622044
11
6.7652853149606296
21
-4.9051492125984248
0
LINE
8
BLACK
6
CONTINUOUS
10
6.881520826771653
20
-4.9988874803149601
11
6.8777712598425191
21
-4.995137952755905
0
LINE
8
BLACK
6
CONTINUOUS
10
6.8777712598425191
20
-4.995137952755905
11
6.8702722047244089
21
-4.9838893700787397
0
LINE
8
BLACK
6
CONTINUOUS
10
6.8702722047244089
20
-4.9838893700787397
11
6.8665226771653538
21
-4.9763903149606294
0
LINE
8
BLACK
6
CONTINUOUS
10
6.8665226771653538
20
-4.9763903149606294
11
6.8627731496062987
21
-4.9651417322834641
0
LINE
8
BLACK
6
CONTINUOUS
10
6.8627731496062987
20
-4.9651417322834641
11
6.8590236220472436
21
-4.9463940551181098
0
LINE
8
BLACK
6
CONTINUOUS
10
6.8590236220472436
20
-4.9463940551181098
11
6.8590236220472436
21
-4.9313959448818894
0
LINE
8
BLACK
6
CONTINUOUS
10
6.8590236220472436
20
-4.9313959448818894
11
6.8627731496062987
21
-4.9126482677165351
0
LINE
8
BLACK
6
CONTINUOUS
10
6.8627731496062987
20
-4.9126482677165351
11
6.8665226771653538
21
-4.9013996850393697
0
LINE
8
BLACK
6
CONTINUOUS
10
6.8665226771653538
20
-4.9013996850393697
11
6.8702722047244089
21
-4.8939006299212595
0
LINE
8
BLACK
6
CONTINUOUS
10
6.8702722047244089
20
-4.8939006299212595
11
6.8777712598425191
21
-4.8826520078740154
0
LINE
8
BLACK
6
CONTINUOUS
10
6.8777712598425191
20
-4.8826520078740154
11
6.881520826771653
21
-4.8789024803149603
0
LINE
8
BLACK
6
CONTINUOUS
10
6.9077675196850388
20
-4.8976501574803146
11
6.9115170472440948
21
-4.8939006299212595
0
LINE
8
BLACK
6
CONTINUOUS
10
6.9115170472440948
20
-4.8939006299212595
11
6.919016102362205
21
-4.8901511023622044
0
LINE
8
BLACK
6
CONTINUOUS
10
6.919016102362205
20
-4.8901511023622044
11
6.9377637795275593
21
-4.8901511023622044
0
LINE
8
BLACK
6
CONTINUOUS
10
6.9377637795275593
20
-4.8901511023622044
11
6.9452628346456695
21
-4.8939006299212595
0
LINE
8
BLACK
6
CONTINUOUS
10
6.9452628346456695
20
-4.8939006299212595
11
6.9490123622047246
21
-4.8976501574803146
0
LINE
8
BLACK
6
CONTINUOUS
10
6.9490123622047246
20
-4.8976501574803146
11
6.9527618897637797
21
-4.9051492125984248
0
LINE
8
BLACK
6
CONTINUOUS
10
6.9527618897637797
20
-4.9051492125984248
11
6.9527618897637797
21
-4.9126482677165351
0
LINE
8
BLACK
6
CONTINUOUS
10
6.9527618897637797
20
-4.9126482677165351
11
6.9490123622047246
21
-4.9238968503937004
0
LINE
8
BLACK
6
CONTINUOUS
10
6.9490123622047246
20
-4.9238968503937004
11
6.9040179921259837
21
-4.9688912598425192
0
LINE
8
BLACK
6
CONTINUOUS
10
6.9040179921259837
20
-4.9688912598425192
11
6.9527618897637797
21
-4.9688912598425192
0
LINE
8
BLACK
6
CONTINUOUS
10
7.0465001968503937
20
-4.9688912598425192
11
7.0465001968503937
21
-4.8901511023622044
0
LINE
8
BLACK
6
CONTINUOUS
10
7.0802459842519685
20
-4.9688912598425192
11
7.0802459842519685
21
-4.9276464173228343
0
LINE
8
BLACK
6
CONTINUOUS
10
7.0802459842519685
20
-4.9276464173228343
11
7.0764964566929134
21
-4.9201473228346453
0
LINE
8
BLACK
6
CONTINUOUS
10
7.0764964566929134
20
-4.9201473228346453
11
7.0689974015748032
21
-4.9163977952755902
0
LINE
8
BLACK
6
CONTINUOUS
10
7.0689974015748032
20
-4.9163977952755902
11
7.0577487795275591
21
-4.9163977952755902
0
LINE
8
BLACK
6
CONTINUOUS
10
7.0577487795275591
20
-4.9163977952755902
11
7.0502497244094489
21
-4.9201473228346453
0
LINE
8
BLACK
6
CONTINUOUS
10
7.0502497244094489
20
-4.9201473228346453
11
7.0465001968503937
21
-4.9238968503937004
0
LINE
8
BLACK
6
CONTINUOUS
10
7.1289898818897637
20
-4.9688912598425192
11
7.1214908267716535
21
-4.9651417322834641
0
LINE
8
BLACK
6
CONTINUOUS
10
7.1214908267716535
20
-4.9651417322834641
11
7.1177412992125983
21
-4.9613921653543303
0
LINE
8
BLACK
6
CONTINUOUS
10
7.1177412992125983
20
-4.9613921653543303
11
7.1139917716535432
21
-4.95389311023622
0
LINE
8
BLACK
6
CONTINUOUS
10
7.1139917716535432
20
-4.95389311023622
11
7.1139917716535432
21
-4.9313959448818894
0
LINE
8
BLACK
6
CONTINUOUS
10
7.1139917716535432
20
-4.9313959448818894
11
7.1177412992125983
21
-4.9238968503937004
0
LINE
8
BLACK
6
CONTINUOUS
10
7.1177412992125983
20
-4.9238968503937004
11
7.1214908267716535
21
-4.9201473228346453
0
LINE
8
BLACK
6
CONTINUOUS
10
7.1214908267716535
20
-4.9201473228346453
11
7.1289898818897637
21
-4.9163977952755902
0
LINE
8
BLACK
6
CONTINUOUS
10
7.1289898818897637
20
-4.9163977952755902
11
7.1402385039370078
21
-4.9163977952755902
0
LINE
8
BLACK
6
CONTINUOUS
10
7.1402385039370078
20
-4.9163977952755902
11
7.147737559055118
21
-4.9201473228346453
0
LINE
8
BLACK
6
CONTINUOUS
10
7.147737559055118
20
-4.9201473228346453
11
7.1514870866141731
21
-4.9238968503937004
0
LINE
8
BLACK
6
CONTINUOUS
10
7.1514870866141731
20
-4.9238968503937004
11
7.1552366141732282
21
-4.9313959448818894
0
LINE
8
BLACK
6
CONTINUOUS
10
7.1552366141732282
20
-4.9313959448818894
11
7.1552366141732282
21
-4.95389311023622
0
LINE
8
BLACK
6
CONTINUOUS
10
7.1552366141732282
20
-4.95389311023622
11
7.1514870866141731
21
-4.9613921653543303
0
LINE
8
BLACK
6
CONTINUOUS
10
7.1514870866141731
20
-4.9613921653543303
11
7.147737559055118
21
-4.9651417322834641
0
LINE
8
BLACK
6
CONTINUOUS
10
7.147737559055118
20
-4.9651417322834641
11
7.1402385039370078
21
-4.9688912598425192
0
LINE
8
BLACK
6
CONTINUOUS
10
7.1402385039370078
20
-4.9688912598425192
11
7.1289898818897637
21
-4.9688912598425192
0
LINE
8
BLACK
6
CONTINUOUS
10
7.2002309842519683
20
-4.9688912598425192
11
7.1927319291338581
21
-4.9651417322834641
0
LINE
8
BLACK
6
CONTINUOUS
10
7.1927319291338581
20
-4.9651417322834641
11
7.1889824015748029
21
-4.9576426377952751
0
LINE
8
BLACK
6
CONTINUOUS
10
7.1889824015748029
20
-4.9576426377952751
11
7.1889824015748029
21
-4.8901511023622044
0
LINE
8
BLACK
6
CONTINUOUS
10
7.2602235039370075
20
-4.9651417322834641
11
7.2527244488188973
21
-4.9688912598425192
0
LINE
8
BLACK
6
CONTINUOUS
10
7.2527244488188973
20
-4.9688912598425192
11
7.2377262992125981
21
-4.9688912598425192
0
LINE
8
BLACK
6
CONTINUOUS
10
7.2377262992125981
20
-4.9688912598425192
11
7.2302272440944879
21
-4.9651417322834641
0
LINE
8
BLACK
6
CONTINUOUS
10
7.2302272440944879
20
-4.9651417322834641
11
7.2264777165354328
21
-4.9576426377952751
0
LINE
8
BLACK
6
CONTINUOUS
10
7.2264777165354328
20
-4.9576426377952751
11
7.2264777165354328
21
-4.9276464173228343
0
LINE
8
BLACK
6
CONTINUOUS
10
7.2264777165354328
20
-4.9276464173228343
11
7.2302272440944879
21
-4.9201473228346453
0
LINE
8
BLACK
6
CONTINUOUS
10
7.2302272440944879
20
-4.9201473228346453
11
7.2377262992125981
21
-4.9163977952755902
0
LINE
8
BLACK
6
CONTINUOUS
10
7.2377262992125981
20
-4.9163977952755902
11
7.2527244488188973
21
-4.9163977952755902
0
LINE
8
BLACK
6
CONTINUOUS
10
7.2527244488188973
20
-4.9163977952755902
11
7.2602235039370075
21
-4.9201473228346453
0
LINE
8
BLACK
6
CONTINUOUS
10
7.2602235039370075
20
-4.9201473228346453
11
7.2639730314960627
21
-4.9276464173228343
0
LINE
8
BLACK
6
CONTINUOUS
10
7.2639730314960627
20
-4.9276464173228343
11
7.2639730314960627
21
-4.9351454724409445
0
LINE
8
BLACK
6
CONTINUOUS
10
7.2639730314960627
20
-4.9351454724409445
11
7.2264777165354328
21
-4.9426445275590547
0
LINE
8
BLACK
6
CONTINUOUS
10
7.2939692913385823
20
-4.9651417322834641
11
7.3014683464566925
21
-4.9688912598425192
0
LINE
8
BLACK
6
CONTINUOUS
10
7.3014683464566925
20
-4.9688912598425192
11
7.316466456692913
21
-4.9688912598425192
0
LINE
8
BLACK
6
CONTINUOUS
10
7.316466456692913
20
-4.9688912598425192
11
7.3239655511811019
21
-4.9651417322834641
0
LINE
8
BLACK
6
CONTINUOUS
10
7.3239655511811019
20
-4.9651417322834641
11
7.327715078740157
21
-4.9576426377952751
0
LINE
8
BLACK
6
CONTINUOUS
10
7.327715078740157
20
-4.9576426377952751
11
7.327715078740157
21
-4.95389311023622
0
LINE
8
BLACK
6
CONTINUOUS
10
7.327715078740157
20
-4.95389311023622
11
7.3239655511811019
21
-4.9463940551181098
0
LINE
8
BLACK
6
CONTINUOUS
10
7.3239655511811019
20
-4.9463940551181098
11
7.316466456692913
21
-4.9426445275590547
0
LINE
8
BLACK
6
CONTINUOUS
10
7.316466456692913
20
-4.9426445275590547
11
7.3052178740157476
21
-4.9426445275590547
0
LINE
8
BLACK
6
CONTINUOUS
10
7.3052178740157476
20
-4.9426445275590547
11
7.2977188188976374
21
-4.9388949999999996
0
LINE
8
BLACK
6
CONTINUOUS
10
7.2977188188976374
20
-4.9388949999999996
11
7.2939692913385823
21
-4.9313959448818894
0
LINE
8
BLACK
6
CONTINUOUS
10
7.2939692913385823
20
-4.9313959448818894
11
7.2939692913385823
21
-4.9276464173228343
0
LINE
8
BLACK
6
CONTINUOUS
10
7.2939692913385823
20
-4.9276464173228343
11
7.2977188188976374
21
-4.9201473228346453
0
LINE
8
BLACK
6
CONTINUOUS
10
7.2977188188976374
20
-4.9201473228346453
11
7.3052178740157476
21
-4.9163977952755902
0
LINE
8
BLACK
6
CONTINUOUS
10
7.3052178740157476
20
-4.9163977952755902
11
7.316466456692913
21
-4.9163977952755902
0
LINE
8
BLACK
6
CONTINUOUS
10
7.316466456692913
20
-4.9163977952755902
11
7.3239655511811019
21
-4.9201473228346453
0
LINE
8
BLACK
6
CONTINUOUS
10
7.3539618110236216
20
-4.9988874803149601
11
7.3577113385826767
21
-4.995137952755905
0
LINE
8
BLACK
6
CONTINUOUS
10
7.3577113385826767
20
-4.995137952755905
11
7.3652103937007869
21
-4.9838893700787397
0
LINE
8
BLACK
6
CONTINUOUS
10
7.3652103937007869
20
-4.9838893700787397
11
7.368959921259842
21
-4.9763903149606294
0
LINE
8
BLACK
6
CONTINUOUS
10
7.368959921259842
20
-4.9763903149606294
11
7.3727094488188971
21
-4.9651417322834641
0
LINE
8
BLACK
6
CONTINUOUS
10
7.3727094488188971
20
-4.9651417322834641
11
7.3764589763779522
21
-4.9463940551181098
0
LINE
8
BLACK
6
CONTINUOUS
10
7.3764589763779522
20
-4.9463940551181098
11
7.3764589763779522
21
-4.9313959448818894
0
LINE
8
BLACK
6
CONTINUOUS
10
7.3764589763779522
20
-4.9313959448818894
11
7.3727094488188971
21
-4.9126482677165351
0
LINE
8
BLACK
6
CONTINUOUS
10
7.3727094488188971
20
-4.9126482677165351
11
7.368959921259842
21
-4.9013996850393697
0
LINE
8
BLACK
6
CONTINUOUS
10
7.368959921259842
20
-4.9013996850393697
11
7.3652103937007869
21
-4.8939006299212595
0
LINE
8
BLACK
6
CONTINUOUS
10
7.3652103937007869
20
-4.8939006299212595
11
7.3577113385826767
21
-4.8826520078740154
0
LINE
8
BLACK
6
CONTINUOUS
10
7.3577113385826767
20
-4.8826520078740154
11
7.3539618110236216
21
-4.8789024803149603
0
LINE
8
BLACK
6
CONTINUOUS
10
7.4964440157480317
20
-4.9988874803149601
11
7.4926944488188978
21
-4.995137952755905
0
LINE
8
BLACK
6
CONTINUOUS
10
7.4926944488188978
20
-4.995137952755905
11
7.4851953937007876
21
-4.9838893700787397
0
LINE
8
BLACK
6
CONTINUOUS
10
7.4851953937007876
20
-4.9838893700787397
11
7.4814458661417325
21
-4.9763903149606294
0
LINE
8
BLACK
6
CONTINUOUS
10
7.4814458661417325
20
-4.9763903149606294
11
7.4776963385826773
21
-4.9651417322834641
0
LINE
8
BLACK
6
CONTINUOUS
10
7.4776963385826773
20
-4.9651417322834641
11
7.4739468110236222
21
-4.9463940551181098
0
LINE
8
BLACK
6
CONTINUOUS
10
7.4739468110236222
20
-4.9463940551181098
11
7.4739468110236222
21
-4.9313959448818894
0
LINE
8
BLACK
6
CONTINUOUS
10
7.4739468110236222
20
-4.9313959448818894
11
7.4776963385826773
21
-4.9126482677165351
0
LINE
8
BLACK
6
CONTINUOUS
10
7.4776963385826773
20
-4.9126482677165351
11
7.4814458661417325
21
-4.9013996850393697
0
LINE
8
BLACK
6
CONTINUOUS
10
7.4814458661417325
20
-4.9013996850393697
11
7.4851953937007876
21
-4.8939006299212595
0
LINE
8
BLACK
6
CONTINUOUS
10
7.4851953937007876
20
-4.8939006299212595
11
7.4926944488188978
21
-4.8826520078740154
0
LINE
8
BLACK
6
CONTINUOUS
10
7.4926944488188978
20
-4.8826520078740154
11
7.4964440157480317
21
-4.8789024803149603
0
LINE
8
BLACK
6
CONTINUOUS
10
7.5264402362204725
20
-4.9163977952755902
11
7.5264402362204725
21
-4.9688912598425192
0
LINE
8
BLACK
6
CONTINUOUS
10
7.5264402362204725
20
-4.9238968503937004
11
7.5301897637795276
21
-4.9201473228346453
0
LINE
8
BLACK
6
CONTINUOUS
10
7.5301897637795276
20
-4.9201473228346453
11
7.5376888188976379
21
-4.9163977952755902
0
LINE
8
BLACK
6
CONTINUOUS
10
7.5376888188976379
20
-4.9163977952755902
11
7.5489374409448819
21
-4.9163977952755902
0
LINE
8
BLACK
6
CONTINUOUS
10
7.5489374409448819
20
-4.9163977952755902
11
7.5564364960629922
21
-4.9201473228346453
0
LINE
8
BLACK
6
CONTINUOUS
10
7.5564364960629922
20
-4.9201473228346453
11
7.5601860236220473
21
-4.9276464173228343
0
LINE
8
BLACK
6
CONTINUOUS
10
7.5601860236220473
20
-4.9276464173228343
11
7.5601860236220473
21
-4.9688912598425192
0
LINE
8
BLACK
6
CONTINUOUS
10
7.6089299212598425
20
-4.9688912598425192
11
7.6014308661417322
21
-4.9651417322834641
0
LINE
8
BLACK
6
CONTINUOUS
10
7.6014308661417322
20
-4.9651417322834641
11
7.5976813385826771
21
-4.9613921653543303
0
LINE
8
BLACK
6
CONTINUOUS
10
7.5976813385826771
20
-4.9613921653543303
11
7.593931811023622
21
-4.95389311023622
0
LINE
8
BLACK
6
CONTINUOUS
10
7.593931811023622
20
-4.95389311023622
11
7.593931811023622
21
-4.9313959448818894
0
LINE
8
BLACK
6
CONTINUOUS
10
7.593931811023622
20
-4.9313959448818894
11
7.5976813385826771
21
-4.9238968503937004
0
LINE
8
BLACK
6
CONTINUOUS
10
7.5976813385826771
20
-4.9238968503937004
11
7.6014308661417322
21
-4.9201473228346453
0
LINE
8
BLACK
6
CONTINUOUS
10
7.6014308661417322
20
-4.9201473228346453
11
7.6089299212598425
21
-4.9163977952755902
0
LINE
8
BLACK
6
CONTINUOUS
10
7.6089299212598425
20
-4.9163977952755902
11
7.6201785433070865
21
-4.9163977952755902
0
LINE
8
BLACK
6
CONTINUOUS
10
7.6201785433070865
20
-4.9163977952755902
11
7.6276775984251968
21
-4.9201473228346453
0
LINE
8
BLACK
6
CONTINUOUS
10
7.6276775984251968
20
-4.9201473228346453
11
7.6314271259842519
21
-4.9238968503937004
0
LINE
8
BLACK
6
CONTINUOUS
10
7.6314271259842519
20
-4.9238968503937004
11
7.635176653543307
21
-4.9313959448818894
0
LINE
8
BLACK
6
CONTINUOUS
10
7.635176653543307
20
-4.9313959448818894
11
7.635176653543307
21
-4.95389311023622
0
LINE
8
BLACK
6
CONTINUOUS
10
7.635176653543307
20
-4.95389311023622
11
7.6314271259842519
21
-4.9613921653543303
0
LINE
8
BLACK
6
CONTINUOUS
10
7.6314271259842519
20
-4.9613921653543303
11
7.6276775984251968
21
-4.9651417322834641
0
LINE
8
BLACK
6
CONTINUOUS
10
7.6276775984251968
20
-4.9651417322834641
11
7.6201785433070865
21
-4.9688912598425192
0
LINE
8
BLACK
6
CONTINUOUS
10
7.6201785433070865
20
-4.9688912598425192
11
7.6089299212598425
21
-4.9688912598425192
0
LINE
8
BLACK
6
CONTINUOUS
10
7.6576738582677164
20
-4.9163977952755902
11
7.6876700787401573
21
-4.9163977952755902
0
LINE
8
BLACK
6
CONTINUOUS
10
7.6689224409448817
20
-4.8901511023622044
11
7.6689224409448817
21
-4.9576426377952751
0
LINE
8
BLACK
6
CONTINUOUS
10
7.6689224409448817
20
-4.9576426377952751
11
7.6726719685039368
21
-4.9651417322834641
0
LINE
8
BLACK
6
CONTINUOUS
10
7.6726719685039368
20
-4.9651417322834641
11
7.6801710236220471
21
-4.9688912598425192
0
LINE
8
BLACK
6
CONTINUOUS
10
7.6801710236220471
20
-4.9688912598425192
11
7.6876700787401573
21
-4.9688912598425192
0
LINE
8
BLACK
6
CONTINUOUS
10
7.7739093307086611
20
-4.9163977952755902
11
7.7739093307086611
21
-4.995137952755905
0
LINE
8
BLACK
6
CONTINUOUS
10
7.7739093307086611
20
-4.9201473228346453
11
7.7814083858267713
21
-4.9163977952755902
0
LINE
8
BLACK
6
CONTINUOUS
10
7.7814083858267713
20
-4.9163977952755902
11
7.7964065354330705
21
-4.9163977952755902
0
LINE
8
BLACK
6
CONTINUOUS
10
7.7964065354330705
20
-4.9163977952755902
11
7.8039055905511807
21
-4.9201473228346453
0
LINE
8
BLACK
6
CONTINUOUS
10
7.8039055905511807
20
-4.9201473228346453
11
7.8076551181102358
21
-4.9238968503937004
0
LINE
8
BLACK
6
CONTINUOUS
10
7.8076551181102358
20
-4.9238968503937004
11
7.8114046456692909
21
-4.9313959448818894
0
LINE
8
BLACK
6
CONTINUOUS
10
7.8114046456692909
20
-4.9313959448818894
11
7.8114046456692909
21
-4.95389311023622
0
LINE
8
BLACK
6
CONTINUOUS
10
7.8114046456692909
20
-4.95389311023622
11
7.8076551181102358
21
-4.9613921653543303
0
LINE
8
BLACK
6
CONTINUOUS
10
7.8076551181102358
20
-4.9613921653543303
11
7.8039055905511807
21
-4.9651417322834641
0
LINE
8
BLACK
6
CONTINUOUS
10
7.8039055905511807
20
-4.9651417322834641
11
7.7964065354330705
21
-4.9688912598425192
0
LINE
8
BLACK
6
CONTINUOUS
10
7.7964065354330705
20
-4.9688912598425192
11
7.7814083858267713
21
-4.9688912598425192
0
LINE
8
BLACK
6
CONTINUOUS
10
7.7814083858267713
20
-4.9688912598425192
11
7.7739093307086611
21
-4.9651417322834641
0
LINE
8
BLACK
6
CONTINUOUS
10
7.856399015748031
20
-4.9688912598425192
11
7.8488999606299208
21
-4.9651417322834641
0
LINE
8
BLACK
6
CONTINUOUS
10
7.8488999606299208
20
-4.9651417322834641
11
7.8451504330708657
21
-4.9576426377952751
0
LINE
8
BLACK
6
CONTINUOUS
10
7.8451504330708657
20
-4.9576426377952751
11
7.8451504330708657
21
-4.8901511023622044
0
LINE
8
BLACK
6
CONTINUOUS
10
7.9201410629921254
20
-4.9688912598425192
11
7.9201410629921254
21
-4.9276464173228343
0
LINE
8
BLACK
6
CONTINUOUS
10
7.9201410629921254
20
-4.9276464173228343
11
7.9163915354330703
21
-4.9201473228346453
0
LINE
8
BLACK
6
CONTINUOUS
10
7.9163915354330703
20
-4.9201473228346453
11
7.9088924803149601
21
-4.9163977952755902
0
LINE
8
BLACK
6
CONTINUOUS
10
7.9088924803149601
20
-4.9163977952755902
11
7.8938943307086609
21
-4.9163977952755902
0
LINE
8
BLACK
6
CONTINUOUS
10
7.8938943307086609
20
-4.9163977952755902
11
7.8863952755905506
21
-4.9201473228346453
0
LINE
8
BLACK
6
CONTINUOUS
10
7.9201410629921254
20
-4.9651417322834641
11
7.9126420078740152
21
-4.9688912598425192
0
LINE
8
BLACK
6
CONTINUOUS
10
7.9126420078740152
20
-4.9688912598425192
11
7.8938943307086609
21
-4.9688912598425192
0
LINE
8
BLACK
6
CONTINUOUS
10
7.8938943307086609
20
-4.9688912598425192
11
7.8863952755905506
21
-4.9651417322834641
0
LINE
8
BLACK
6
CONTINUOUS
10
7.8863952755905506
20
-4.9651417322834641
11
7.8826457480314955
21
-4.9576426377952751
0
LINE
8
BLACK
6
CONTINUOUS
10
7.8826457480314955
20
-4.9576426377952751
11
7.8826457480314955
21
-4.9501435826771649
0
LINE
8
BLACK
6
CONTINUOUS
10
7.8826457480314955
20
-4.9501435826771649
11
7.8863952755905506
21
-4.9426445275590547
0
LINE
8
BLACK
6
CONTINUOUS
10
7.8863952755905506
20
-4.9426445275590547
11
7.8938943307086609
21
-4.9388949999999996
0
LINE
8
BLACK
6
CONTINUOUS
10
7.8938943307086609
20
-4.9388949999999996
11
7.9126420078740152
21
-4.9388949999999996
0
LINE
8
BLACK
6
CONTINUOUS
10
7.9126420078740152
20
-4.9388949999999996
11
7.9201410629921254
21
-4.9351454724409445
0
LINE
8
BLACK
6
CONTINUOUS
10
7.9463877952755908
20
-4.9163977952755902
11
7.9763840157480317
21
-4.9163977952755902
0
LINE
8
BLACK
6
CONTINUOUS
10
7.9576363779527561
20
-4.8901511023622044
11
7.9576363779527561
21
-4.9576426377952751
0
LINE
8
BLACK
6
CONTINUOUS
10
7.9576363779527561
20
-4.9576426377952751
11
7.9613859055118112
21
-4.9651417322834641
0
LINE
8
BLACK
6
CONTINUOUS
10
7.9613859055118112
20
-4.9651417322834641
11
7.9688849606299215
21
-4.9688912598425192
0
LINE
8
BLACK
6
CONTINUOUS
10
7.9688849606299215
20
-4.9688912598425192
11
7.9763840157480317
21
-4.9688912598425192
0
LINE
8
BLACK
6
CONTINUOUS
10
8.0326270078740158
20
-4.9651417322834641
11
8.0251279527559056
21
-4.9688912598425192
0
LINE
8
BLACK
6
CONTINUOUS
10
8.0251279527559056
20
-4.9688912598425192
11
8.0101298031496064
21
-4.9688912598425192
0
LINE
8
BLACK
6
CONTINUOUS
10
8.0101298031496064
20
-4.9688912598425192
11
8.0026307480314962
21
-4.9651417322834641
0
LINE
8
BLACK
6
CONTINUOUS
10
8.0026307480314962
20
-4.9651417322834641
11
7.9988812204724411
21
-4.9576426377952751
0
LINE
8
BLACK
6
CONTINUOUS
10
7.9988812204724411
20
-4.9576426377952751
11
7.9988812204724411
21
-4.9276464173228343
0
LINE
8
BLACK
6
CONTINUOUS
10
7.9988812204724411
20
-4.9276464173228343
11
8.0026307480314962
21
-4.9201473228346453
0
LINE
8
BLACK
6
CONTINUOUS
10
8.0026307480314962
20
-4.9201473228346453
11
8.0101298031496064
21
-4.9163977952755902
0
LINE
8
BLACK
6
CONTINUOUS
10
8.0101298031496064
20
-4.9163977952755902
11
8.0251279527559056
21
-4.9163977952755902
0
LINE
8
BLACK
6
CONTINUOUS
10
8.0251279527559056
20
-4.9163977952755902
11
8.0326270078740158
21
-4.9201473228346453
0
LINE
8
BLACK
6
CONTINUOUS
10
8.0326270078740158
20
-4.9201473228346453
11
8.036376535433071
21
-4.9276464173228343
0
LINE
8
BLACK
6
CONTINUOUS
10
8.036376535433071
20
-4.9276464173228343
11
8.036376535433071
21
-4.9351454724409445
0
LINE
8
BLACK
6
CONTINUOUS
10
8.036376535433071
20
-4.9351454724409445
11
7.9988812204724411
21
-4.9426445275590547
0
LINE
8
BLACK
6
CONTINUOUS
10
8.1038681102362204
20
-4.9688912598425192
11
8.1038681102362204
21
-4.8901511023622044
0
LINE
8
BLACK
6
CONTINUOUS
10
8.1038681102362204
20
-4.9651417322834641
11
8.0963690551181102
21
-4.9688912598425192
0
LINE
8
BLACK
6
CONTINUOUS
10
8.0963690551181102
20
-4.9688912598425192
11
8.081370905511811
21
-4.9688912598425192
0
LINE
8
BLACK
6
CONTINUOUS
10
8.081370905511811
20
-4.9688912598425192
11
8.0738718503937008
21
-4.9651417322834641
0
LINE
8
BLACK
6
CONTINUOUS
10
8.0738718503937008
20
-4.9651417322834641
11
8.0701223228346457
21
-4.9613921653543303
0
LINE
8
BLACK
6
CONTINUOUS
10
8.0701223228346457
20
-4.9613921653543303
11
8.0663727952755906
21
-4.95389311023622
0
LINE
8
BLACK
6
CONTINUOUS
10
8.0663727952755906
20
-4.95389311023622
11
8.0663727952755906
21
-4.9313959448818894
0
LINE
8
BLACK
6
CONTINUOUS
10
8.0663727952755906
20
-4.9313959448818894
11
8.0701223228346457
21
-4.9238968503937004
0
LINE
8
BLACK
6
CONTINUOUS
10
8.0701223228346457
20
-4.9238968503937004
11
8.0738718503937008
21
-4.9201473228346453
0
LINE
8
BLACK
6
CONTINUOUS
10
8.0738718503937008
20
-4.9201473228346453
11
8.081370905511811
21
-4.9163977952755902
0
LINE
8
BLACK
6
CONTINUOUS
10
8.081370905511811
20
-4.9163977952755902
11
8.0963690551181102
21
-4.9163977952755902
0
LINE
8
BLACK
6
CONTINUOUS
10
8.0963690551181102
20
-4.9163977952755902
11
8.1038681102362204
21
-4.9201473228346453
0
LINE
8
BLACK
6
CONTINUOUS
10
8.1338643700787401
20
-4.9988874803149601
11
8.1376138976377952
21
-4.995137952755905
0
LINE
8
BLACK
6
CONTINUOUS
10
8.1376138976377952
20
-4.995137952755905
11
8.1451129527559054
21
-4.9838893700787397
0
LINE
8
BLACK
6
CONTINUOUS
10
8.1451129527559054
20
-4.9838893700787397
11
8.1488624803149605
21
-4.9763903149606294
0
LINE
8
BLACK
6
CONTINUOUS
10
8.1488624803149605
20
-4.9763903149606294
11
8.1526120078740156
21
-4.9651417322834641
0
LINE
8
BLACK
6
CONTINUOUS
10
8.1526120078740156
20
-4.9651417322834641
11
8.1563615354330707
21
-4.9463940551181098
0
LINE
8
BLACK
6
CONTINUOUS
10
8.1563615354330707
20
-4.9463940551181098
11
8.1563615354330707
21
-4.9313959448818894
0
LINE
8
BLACK
6
CONTINUOUS
10
8.1563615354330707
20
-4.9313959448818894
11
8.1526120078740156
21
-4.9126482677165351
0
LINE
8
BLACK
6
CONTINUOUS
10
8.1526120078740156
20
-4.9126482677165351
11
8.1488624803149605
21
-4.9013996850393697
0
LINE
8
BLACK
6
CONTINUOUS
10
8.1488624803149605
20
-4.9013996850393697
11
8.1451129527559054
21
-4.8939006299212595
0
LINE
8
BLACK
6
CONTINUOUS
10
8.1451129527559054
20
-4.8939006299212595
11
8.1376138976377952
21
-4.8826520078740154
0
LINE
8
BLACK
6
CONTINUOUS
10
8.1376138976377952
20
-4.8826520078740154
11
8.1338643700787401
21
-4.8789024803149603
  0
ENDSEC
  0
EOF
