  0
SECTION
  2
HEADER
  9
$ANGBASE
  50
0.0
  9
$ANGDIR
  70
1
  9
$MEASUREMENT
  70
0
  0
ENDSEC
  0
SECTION
  2
TABLES
  0
TABLE
  2
LTYPE
  70
4
  0
LTYPE
  5
40F
  2
CONTINUOUS
  70
0
  3
Solid line
  72
65
  73
0
  40
0.0
  0
LTYPE
  5
410
  2
DASHDOT
 70
0
  3
Dash Dot ____ _ ____ _
 72
65
 73
4
 40
2.0
 49
1.25
 49
-0.25
 49
0.25
 49
-0.25
  0
LTYPE
  5
411
  2
DASHED
 70
0
  3
Dashed __ __ __ __ __
 72
65
 73
2
 40
0.75
 49
0.5
 49
-0.25
  0
LTYPE
  5
43B
  2
DOTTED
 70
0
  3
Dotted .  .  .  .
 72
65
 73
2
 40
0.2
 49
0.0
 49
-0.2
  0
ENDTAB
  0
TABLE
  2
STYLE
  70
4
  0
STYLE
  2
KICAD
  70
0
  40
0
  41
1
  42
1
  50
0
  71
0
  3
isocp.shx
  0
STYLE
  2
KICADB
  70
0
  40
0
  41
1
  42
1
  50
0
  71
0
  3
isocp.shx
  0
STYLE
  2
KICADI
  70
0
  40
0
  41
1
  42
1
  50
15
  71
0
  3
isocp.shx
  0
STYLE
  2
KICADBI
  70
0
  40
0
  41
1
  42
1
  50
15
  71
0
  3
isocp.shx
  0
ENDTAB
  0
TABLE
  2
LAYER
  70
1
  0
LAYER
  2
BLACK
  70
0
  62
7
  6
CONTINUOUS
  0
ENDTAB
  0
ENDSEC
  0
SECTION
  2
ENTITIES
0
LINE
8
BLACK
6
CONTINUOUS
10
9.4308188976377956
20
-4.4465200393700783
11
9.4308188976377956
21
-5.2834798818897637
0
LINE
8
BLACK
6
CONTINUOUS
10
8.6471900000000002
20
-4.52515
11
8.6473206692913376
21
-5.2052458267716535
0
ARC
8
BLACK
10
9.077
20
-4.8644999999999996
40
0.5483903297414945
50
-141.58475507
51
-49.81967534
0
ARC
8
BLACK
10
9.077
20
-4.8644999999999996
40
0.5476267511727309
50
49.75217668
51
141.70767579
0
LINE
8
BLACK
6
CONTINUOUS
10
9.2707795275590552
20
-4.5429527559055121
11
9.4046377952755904
21
-4.6768110236220473
0
LINE
8
BLACK
6
CONTINUOUS
10
9.4046377952755904
20
-4.5429527559055121
11
9.2707795275590552
21
-4.6768110236220473
0
LINE
8
BLACK
6
CONTINUOUS
10
9.2707795275590552
20
-5.0531889763779523
11
9.4046377952755904
21
-5.1870472440944884
0
LINE
8
BLACK
6
CONTINUOUS
10
9.4046377952755904
20
-5.0531889763779523
11
9.2707795275590552
21
-5.1870472440944884
0
LINE
8
BLACK
6
CONTINUOUS
10
8.7488737795275586
20
-5.5365059842519679
11
8.7488737795275586
21
-5.4577658267716531
0
LINE
8
BLACK
6
CONTINUOUS
10
8.7488737795275586
20
-5.4577658267716531
11
8.7676214173228342
21
-5.4577658267716531
0
LINE
8
BLACK
6
CONTINUOUS
10
8.7676214173228342
20
-5.4577658267716531
11
8.7788700393700783
21
-5.4615153543307082
0
LINE
8
BLACK
6
CONTINUOUS
10
8.7788700393700783
20
-5.4615153543307082
11
8.7863690944881885
21
-5.4690144094488184
0
LINE
8
BLACK
6
CONTINUOUS
10
8.7863690944881885
20
-5.4690144094488184
11
8.7901186220472436
21
-5.4765134645669287
0
LINE
8
BLACK
6
CONTINUOUS
10
8.7901186220472436
20
-5.4765134645669287
11
8.7938681496062987
21
-5.4915115748031491
0
LINE
8
BLACK
6
CONTINUOUS
10
8.7938681496062987
20
-5.4915115748031491
11
8.7938681496062987
21
-5.5027601968503932
0
LINE
8
BLACK
6
CONTINUOUS
10
8.7938681496062987
20
-5.5027601968503932
11
8.7901186220472436
21
-5.5177583070866136
0
LINE
8
BLACK
6
CONTINUOUS
10
8.7901186220472436
20
-5.5177583070866136
11
8.7863690944881885
21
-5.5252573622047239
0
LINE
8
BLACK
6
CONTINUOUS
10
8.7863690944881885
20
-5.5252573622047239
11
8.7788700393700783
21
-5.5327564566929128
0
LINE
8
BLACK
6
CONTINUOUS
10
8.7788700393700783
20
-5.5327564566929128
11
8.7676214173228342
21
-5.5365059842519679
0
LINE
8
BLACK
6
CONTINUOUS
10
8.7676214173228342
20
-5.5365059842519679
11
8.7488737795275586
21
-5.5365059842519679
0
LINE
8
BLACK
6
CONTINUOUS
10
8.8276139370078734
20
-5.5365059842519679
11
8.8276139370078734
21
-5.4840125196850389
0
LINE
8
BLACK
6
CONTINUOUS
10
8.8276139370078734
20
-5.4990106692913381
11
8.8313634645669286
21
-5.4915115748031491
0
LINE
8
BLACK
6
CONTINUOUS
10
8.8313634645669286
20
-5.4915115748031491
11
8.8351129921259837
21
-5.487762047244094
0
LINE
8
BLACK
6
CONTINUOUS
10
8.8351129921259837
20
-5.487762047244094
11
8.8426120472440939
21
-5.4840125196850389
0
LINE
8
BLACK
6
CONTINUOUS
10
8.8426120472440939
20
-5.4840125196850389
11
8.8501111417322829
21
-5.4840125196850389
0
LINE
8
BLACK
6
CONTINUOUS
10
8.8763578346456686
20
-5.5365059842519679
11
8.8763578346456686
21
-5.4840125196850389
0
LINE
8
BLACK
6
CONTINUOUS
10
8.8763578346456686
20
-5.4577658267716531
11
8.8726083070866135
21
-5.4615153543307082
0
LINE
8
BLACK
6
CONTINUOUS
10
8.8726083070866135
20
-5.4615153543307082
11
8.8763578346456686
21
-5.4652648818897633
0
LINE
8
BLACK
6
CONTINUOUS
10
8.8763578346456686
20
-5.4652648818897633
11
8.8801073622047237
21
-5.4615153543307082
0
LINE
8
BLACK
6
CONTINUOUS
10
8.8801073622047237
20
-5.4615153543307082
11
8.8763578346456686
21
-5.4577658267716531
0
LINE
8
BLACK
6
CONTINUOUS
10
8.8763578346456686
20
-5.4577658267716531
11
8.8763578346456686
21
-5.4652648818897633
0
LINE
8
BLACK
6
CONTINUOUS
10
8.9251017322834638
20
-5.5365059842519679
11
8.9176026771653536
21
-5.5327564566929128
0
LINE
8
BLACK
6
CONTINUOUS
10
8.9176026771653536
20
-5.5327564566929128
11
8.9138531496062985
21
-5.5252573622047239
0
LINE
8
BLACK
6
CONTINUOUS
10
8.9138531496062985
20
-5.5252573622047239
11
8.9138531496062985
21
-5.4577658267716531
0
LINE
8
BLACK
6
CONTINUOUS
10
8.9663465748031488
20
-5.5365059842519679
11
8.9588475196850386
21
-5.5327564566929128
0
LINE
8
BLACK
6
CONTINUOUS
10
8.9588475196850386
20
-5.5327564566929128
11
8.9550979921259835
21
-5.5252573622047239
0
LINE
8
BLACK
6
CONTINUOUS
10
8.9550979921259835
20
-5.5252573622047239
11
8.9550979921259835
21
-5.4577658267716531
0
LINE
8
BLACK
6
CONTINUOUS
10
9.0563353543307077
20
-5.5365059842519679
11
9.0563353543307077
21
-5.4577658267716531
0
LINE
8
BLACK
6
CONTINUOUS
10
9.0563353543307077
20
-5.4577658267716531
11
9.0825820866141722
21
-5.5140087795275585
0
LINE
8
BLACK
6
CONTINUOUS
10
9.0825820866141722
20
-5.5140087795275585
11
9.108828779527558
21
-5.4577658267716531
0
LINE
8
BLACK
6
CONTINUOUS
10
9.108828779527558
20
-5.4577658267716531
11
9.108828779527558
21
-5.5365059842519679
0
LINE
8
BLACK
6
CONTINUOUS
10
9.1800698818897644
20
-5.5365059842519679
11
9.1800698818897644
21
-5.495261141732283
0
LINE
8
BLACK
6
CONTINUOUS
10
9.1800698818897644
20
-5.495261141732283
11
9.1763203543307093
21
-5.487762047244094
0
LINE
8
BLACK
6
CONTINUOUS
10
9.1763203543307093
20
-5.487762047244094
11
9.168821299212599
21
-5.4840125196850389
0
LINE
8
BLACK
6
CONTINUOUS
10
9.168821299212599
20
-5.4840125196850389
11
9.1538231496062998
21
-5.4840125196850389
0
LINE
8
BLACK
6
CONTINUOUS
10
9.1538231496062998
20
-5.4840125196850389
11
9.1463240944881896
21
-5.487762047244094
0
LINE
8
BLACK
6
CONTINUOUS
10
9.1800698818897644
20
-5.5327564566929128
11
9.1725708267716541
21
-5.5365059842519679
0
LINE
8
BLACK
6
CONTINUOUS
10
9.1725708267716541
20
-5.5365059842519679
11
9.1538231496062998
21
-5.5365059842519679
0
LINE
8
BLACK
6
CONTINUOUS
10
9.1538231496062998
20
-5.5365059842519679
11
9.1463240944881896
21
-5.5327564566929128
0
LINE
8
BLACK
6
CONTINUOUS
10
9.1463240944881896
20
-5.5327564566929128
11
9.1425745669291345
21
-5.5252573622047239
0
LINE
8
BLACK
6
CONTINUOUS
10
9.1425745669291345
20
-5.5252573622047239
11
9.1425745669291345
21
-5.5177583070866136
0
LINE
8
BLACK
6
CONTINUOUS
10
9.1425745669291345
20
-5.5177583070866136
11
9.1463240944881896
21
-5.5102592519685034
0
LINE
8
BLACK
6
CONTINUOUS
10
9.1463240944881896
20
-5.5102592519685034
11
9.1538231496062998
21
-5.5065097244094483
0
LINE
8
BLACK
6
CONTINUOUS
10
9.1538231496062998
20
-5.5065097244094483
11
9.1725708267716541
21
-5.5065097244094483
0
LINE
8
BLACK
6
CONTINUOUS
10
9.1725708267716541
20
-5.5065097244094483
11
9.1800698818897644
21
-5.5027601968503932
0
LINE
8
BLACK
6
CONTINUOUS
10
9.2175651968503942
20
-5.4840125196850389
11
9.2175651968503942
21
-5.5627526771653546
0
LINE
8
BLACK
6
CONTINUOUS
10
9.2175651968503942
20
-5.487762047244094
11
9.2250642519685044
21
-5.4840125196850389
0
LINE
8
BLACK
6
CONTINUOUS
10
9.2250642519685044
20
-5.4840125196850389
11
9.2400624015748036
21
-5.4840125196850389
0
LINE
8
BLACK
6
CONTINUOUS
10
9.2400624015748036
20
-5.4840125196850389
11
9.2475614566929139
21
-5.487762047244094
0
LINE
8
BLACK
6
CONTINUOUS
10
9.2475614566929139
20
-5.487762047244094
11
9.251310984251969
21
-5.4915115748031491
0
LINE
8
BLACK
6
CONTINUOUS
10
9.251310984251969
20
-5.4915115748031491
11
9.2550605118110241
21
-5.4990106692913381
0
LINE
8
BLACK
6
CONTINUOUS
10
9.2550605118110241
20
-5.4990106692913381
11
9.2550605118110241
21
-5.5215078346456687
0
LINE
8
BLACK
6
CONTINUOUS
10
9.2550605118110241
20
-5.5215078346456687
11
9.251310984251969
21
-5.529006889763779
0
LINE
8
BLACK
6
CONTINUOUS
10
9.251310984251969
20
-5.529006889763779
11
9.2475614566929139
21
-5.5327564566929128
0
LINE
8
BLACK
6
CONTINUOUS
10
9.2475614566929139
20
-5.5327564566929128
11
9.2400624015748036
21
-5.5365059842519679
0
LINE
8
BLACK
6
CONTINUOUS
10
9.2400624015748036
20
-5.5365059842519679
11
9.2250642519685044
21
-5.5365059842519679
0
LINE
8
BLACK
6
CONTINUOUS
10
9.2250642519685044
20
-5.5365059842519679
11
9.2175651968503942
21
-5.5327564566929128
0
LINE
8
BLACK
6
CONTINUOUS
10
9.2888062992125988
20
-5.529006889763779
11
9.2925558267716539
21
-5.5327564566929128
0
LINE
8
BLACK
6
CONTINUOUS
10
9.2925558267716539
20
-5.5327564566929128
11
9.2888062992125988
21
-5.5365059842519679
0
LINE
8
BLACK
6
CONTINUOUS
10
9.2888062992125988
20
-5.5365059842519679
11
9.2850567716535437
21
-5.5327564566929128
0
LINE
8
BLACK
6
CONTINUOUS
10
9.2850567716535437
20
-5.5327564566929128
11
9.2888062992125988
21
-5.529006889763779
0
LINE
8
BLACK
6
CONTINUOUS
10
9.2888062992125988
20
-5.529006889763779
11
9.2888062992125988
21
-5.5365059842519679
0
LINE
8
BLACK
6
CONTINUOUS
10
9.2888062992125988
20
-5.487762047244094
11
9.2925558267716539
21
-5.4915115748031491
0
LINE
8
BLACK
6
CONTINUOUS
10
9.2925558267716539
20
-5.4915115748031491
11
9.2888062992125988
21
-5.495261141732283
0
LINE
8
BLACK
6
CONTINUOUS
10
9.2888062992125988
20
-5.495261141732283
11
9.2850567716535437
21
-5.4915115748031491
0
LINE
8
BLACK
6
CONTINUOUS
10
9.2850567716535437
20
-5.4915115748031491
11
9.2888062992125988
21
-5.487762047244094
0
LINE
8
BLACK
6
CONTINUOUS
10
9.2888062992125988
20
-5.487762047244094
11
9.2888062992125988
21
-5.495261141732283
0
LINE
8
BLACK
6
CONTINUOUS
10
8.5674655905511816
20
-5.6264729921259837
11
8.6462057480314964
21
-5.7052131496062994
0
LINE
8
BLACK
6
CONTINUOUS
10
8.6462057480314964
20
-5.6264729921259837
11
8.5674655905511816
21
-5.7052131496062994
0
LINE
8
BLACK
6
CONTINUOUS
10
8.7413747244094484
20
-5.6231201574803151
11
8.7901186220472436
21
-5.6231201574803151
0
LINE
8
BLACK
6
CONTINUOUS
10
8.7901186220472436
20
-5.6231201574803151
11
8.7638718897637791
21
-5.653116377952756
0
LINE
8
BLACK
6
CONTINUOUS
10
8.7638718897637791
20
-5.653116377952756
11
8.7751205118110231
21
-5.653116377952756
0
LINE
8
BLACK
6
CONTINUOUS
10
8.7751205118110231
20
-5.653116377952756
11
8.7826195669291334
21
-5.6568659055118111
0
LINE
8
BLACK
6
CONTINUOUS
10
8.7826195669291334
20
-5.6568659055118111
11
8.7863690944881885
21
-5.660615472440945
0
LINE
8
BLACK
6
CONTINUOUS
10
8.7863690944881885
20
-5.660615472440945
11
8.7901186220472436
21
-5.6681145275590552
0
LINE
8
BLACK
6
CONTINUOUS
10
8.7901186220472436
20
-5.6681145275590552
11
8.7901186220472436
21
-5.6868621653543308
0
LINE
8
BLACK
6
CONTINUOUS
10
8.7901186220472436
20
-5.6868621653543308
11
8.7863690944881885
21
-5.694361220472441
0
LINE
8
BLACK
6
CONTINUOUS
10
8.7863690944881885
20
-5.694361220472441
11
8.7826195669291334
21
-5.6981107874015748
0
LINE
8
BLACK
6
CONTINUOUS
10
8.7826195669291334
20
-5.6981107874015748
11
8.7751205118110231
21
-5.7018603149606299
0
LINE
8
BLACK
6
CONTINUOUS
10
8.7751205118110231
20
-5.7018603149606299
11
8.7526233070866137
21
-5.7018603149606299
0
LINE
8
BLACK
6
CONTINUOUS
10
8.7526233070866137
20
-5.7018603149606299
11
8.7451242519685035
21
-5.6981107874015748
0
LINE
8
BLACK
6
CONTINUOUS
10
8.7451242519685035
20
-5.6981107874015748
11
8.7413747244094484
21
-5.694361220472441
0
LINE
8
BLACK
6
CONTINUOUS
10
8.8238644094488183
20
-5.694361220472441
11
8.8276139370078734
21
-5.6981107874015748
0
LINE
8
BLACK
6
CONTINUOUS
10
8.8276139370078734
20
-5.6981107874015748
11
8.8238644094488183
21
-5.7018603149606299
0
LINE
8
BLACK
6
CONTINUOUS
10
8.8238644094488183
20
-5.7018603149606299
11
8.8201148818897632
21
-5.6981107874015748
0
LINE
8
BLACK
6
CONTINUOUS
10
8.8201148818897632
20
-5.6981107874015748
11
8.8238644094488183
21
-5.694361220472441
0
LINE
8
BLACK
6
CONTINUOUS
10
8.8238644094488183
20
-5.694361220472441
11
8.8238644094488183
21
-5.7018603149606299
0
LINE
8
BLACK
6
CONTINUOUS
10
8.8951055118110229
20
-5.6493668503937009
11
8.8951055118110229
21
-5.7018603149606299
0
LINE
8
BLACK
6
CONTINUOUS
10
8.8763578346456686
20
-5.61937062992126
11
8.8576101968503931
21
-5.6756135826771654
0
LINE
8
BLACK
6
CONTINUOUS
10
8.8576101968503931
20
-5.6756135826771654
11
8.9063540944881883
21
-5.6756135826771654
0
LINE
8
BLACK
6
CONTINUOUS
10
8.9513484645669283
20
-5.6231201574803151
11
8.9588475590551173
21
-5.6231201574803151
0
LINE
8
BLACK
6
CONTINUOUS
10
8.9588475590551173
20
-5.6231201574803151
11
8.9663466141732275
21
-5.6268696850393702
0
LINE
8
BLACK
6
CONTINUOUS
10
8.9663466141732275
20
-5.6268696850393702
11
8.9700961417322826
21
-5.6306192125984253
0
LINE
8
BLACK
6
CONTINUOUS
10
8.9700961417322826
20
-5.6306192125984253
11
8.9738456692913378
21
-5.6381182677165356
0
LINE
8
BLACK
6
CONTINUOUS
10
8.9738456692913378
20
-5.6381182677165356
11
8.9775951968503929
21
-5.653116377952756
0
LINE
8
BLACK
6
CONTINUOUS
10
8.9775951968503929
20
-5.653116377952756
11
8.9775951968503929
21
-5.6718640551181103
0
LINE
8
BLACK
6
CONTINUOUS
10
8.9775951968503929
20
-5.6718640551181103
11
8.9738456692913378
21
-5.6868621653543308
0
LINE
8
BLACK
6
CONTINUOUS
10
8.9738456692913378
20
-5.6868621653543308
11
8.9700961417322826
21
-5.694361220472441
0
LINE
8
BLACK
6
CONTINUOUS
10
8.9700961417322826
20
-5.694361220472441
11
8.9663466141732275
21
-5.6981107874015748
0
LINE
8
BLACK
6
CONTINUOUS
10
8.9663466141732275
20
-5.6981107874015748
11
8.9588475590551173
21
-5.7018603149606299
0
LINE
8
BLACK
6
CONTINUOUS
10
8.9588475590551173
20
-5.7018603149606299
11
8.9513484645669283
21
-5.7018603149606299
0
LINE
8
BLACK
6
CONTINUOUS
10
8.9513484645669283
20
-5.7018603149606299
11
8.9438494094488181
21
-5.6981107874015748
0
LINE
8
BLACK
6
CONTINUOUS
10
8.9438494094488181
20
-5.6981107874015748
11
8.940099881889763
21
-5.694361220472441
0
LINE
8
BLACK
6
CONTINUOUS
10
8.940099881889763
20
-5.694361220472441
11
8.9363503543307079
21
-5.6868621653543308
0
LINE
8
BLACK
6
CONTINUOUS
10
8.9363503543307079
20
-5.6868621653543308
11
8.9326008267716528
21
-5.6718640551181103
0
LINE
8
BLACK
6
CONTINUOUS
10
8.9326008267716528
20
-5.6718640551181103
11
8.9326008267716528
21
-5.653116377952756
0
LINE
8
BLACK
6
CONTINUOUS
10
8.9326008267716528
20
-5.653116377952756
11
8.9363503543307079
21
-5.6381182677165356
0
LINE
8
BLACK
6
CONTINUOUS
10
8.9363503543307079
20
-5.6381182677165356
11
8.940099881889763
21
-5.6306192125984253
0
LINE
8
BLACK
6
CONTINUOUS
10
8.940099881889763
20
-5.6306192125984253
11
8.9438494094488181
21
-5.6268696850393702
0
LINE
8
BLACK
6
CONTINUOUS
10
8.9438494094488181
20
-5.6268696850393702
11
8.9513484645669283
21
-5.6231201574803151
0
LINE
8
BLACK
6
CONTINUOUS
10
9.0263390944881881
20
-5.6231201574803151
11
9.033838188976377
21
-5.6231201574803151
0
LINE
8
BLACK
6
CONTINUOUS
10
9.033838188976377
20
-5.6231201574803151
11
9.0413372440944872
21
-5.6268696850393702
0
LINE
8
BLACK
6
CONTINUOUS
10
9.0413372440944872
20
-5.6268696850393702
11
9.0450867716535424
21
-5.6306192125984253
0
LINE
8
BLACK
6
CONTINUOUS
10
9.0450867716535424
20
-5.6306192125984253
11
9.0488362992125975
21
-5.6381182677165356
0
LINE
8
BLACK
6
CONTINUOUS
10
9.0488362992125975
20
-5.6381182677165356
11
9.0525858267716526
21
-5.653116377952756
0
LINE
8
BLACK
6
CONTINUOUS
10
9.0525858267716526
20
-5.653116377952756
11
9.0525858267716526
21
-5.6718640551181103
0
LINE
8
BLACK
6
CONTINUOUS
10
9.0525858267716526
20
-5.6718640551181103
11
9.0488362992125975
21
-5.6868621653543308
0
LINE
8
BLACK
6
CONTINUOUS
10
9.0488362992125975
20
-5.6868621653543308
11
9.0450867716535424
21
-5.694361220472441
0
LINE
8
BLACK
6
CONTINUOUS
10
9.0450867716535424
20
-5.694361220472441
11
9.0413372440944872
21
-5.6981107874015748
0
LINE
8
BLACK
6
CONTINUOUS
10
9.0413372440944872
20
-5.6981107874015748
11
9.033838188976377
21
-5.7018603149606299
0
LINE
8
BLACK
6
CONTINUOUS
10
9.033838188976377
20
-5.7018603149606299
11
9.0263390944881881
21
-5.7018603149606299
0
LINE
8
BLACK
6
CONTINUOUS
10
9.0263390944881881
20
-5.7018603149606299
11
9.0188400393700778
21
-5.6981107874015748
0
LINE
8
BLACK
6
CONTINUOUS
10
9.0188400393700778
20
-5.6981107874015748
11
9.0150905118110227
21
-5.694361220472441
0
LINE
8
BLACK
6
CONTINUOUS
10
9.0150905118110227
20
-5.694361220472441
11
9.0113409842519676
21
-5.6868621653543308
0
LINE
8
BLACK
6
CONTINUOUS
10
9.0113409842519676
20
-5.6868621653543308
11
9.0075914566929125
21
-5.6718640551181103
0
LINE
8
BLACK
6
CONTINUOUS
10
9.0075914566929125
20
-5.6718640551181103
11
9.0075914566929125
21
-5.653116377952756
0
LINE
8
BLACK
6
CONTINUOUS
10
9.0075914566929125
20
-5.653116377952756
11
9.0113409842519676
21
-5.6381182677165356
0
LINE
8
BLACK
6
CONTINUOUS
10
9.0113409842519676
20
-5.6381182677165356
11
9.0150905118110227
21
-5.6306192125984253
0
LINE
8
BLACK
6
CONTINUOUS
10
9.0150905118110227
20
-5.6306192125984253
11
9.0188400393700778
21
-5.6268696850393702
0
LINE
8
BLACK
6
CONTINUOUS
10
9.0188400393700778
20
-5.6268696850393702
11
9.0263390944881881
21
-5.6231201574803151
0
LINE
8
BLACK
6
CONTINUOUS
10
9.0863316141732273
20
-5.7018603149606299
11
9.0863316141732273
21
-5.6493668503937009
0
LINE
8
BLACK
6
CONTINUOUS
10
9.0863316141732273
20
-5.6568659055118111
11
9.0900811417322824
21
-5.653116377952756
0
LINE
8
BLACK
6
CONTINUOUS
10
9.0900811417322824
20
-5.653116377952756
11
9.0975801968503927
21
-5.6493668503937009
0
LINE
8
BLACK
6
CONTINUOUS
10
9.0975801968503927
20
-5.6493668503937009
11
9.1088288188976367
21
-5.6493668503937009
0
LINE
8
BLACK
6
CONTINUOUS
10
9.1088288188976367
20
-5.6493668503937009
11
9.116327874015747
21
-5.653116377952756
0
LINE
8
BLACK
6
CONTINUOUS
10
9.116327874015747
20
-5.653116377952756
11
9.1200774015748021
21
-5.660615472440945
0
LINE
8
BLACK
6
CONTINUOUS
10
9.1200774015748021
20
-5.660615472440945
11
9.1200774015748021
21
-5.7018603149606299
0
LINE
8
BLACK
6
CONTINUOUS
10
9.1200774015748021
20
-5.660615472440945
11
9.1238269291338572
21
-5.653116377952756
0
LINE
8
BLACK
6
CONTINUOUS
10
9.1238269291338572
20
-5.653116377952756
11
9.1313259842519692
21
-5.6493668503937009
0
LINE
8
BLACK
6
CONTINUOUS
10
9.1313259842519692
20
-5.6493668503937009
11
9.1425745669291345
21
-5.6493668503937009
0
LINE
8
BLACK
6
CONTINUOUS
10
9.1425745669291345
20
-5.6493668503937009
11
9.1500736614173235
21
-5.653116377952756
0
LINE
8
BLACK
6
CONTINUOUS
10
9.1500736614173235
20
-5.653116377952756
11
9.1538231889763786
21
-5.660615472440945
0
LINE
8
BLACK
6
CONTINUOUS
10
9.1538231889763786
20
-5.660615472440945
11
9.1538231889763786
21
-5.7018603149606299
0
LINE
8
BLACK
6
CONTINUOUS
10
9.1913185039370084
20
-5.7018603149606299
11
9.1913185039370084
21
-5.6493668503937009
0
LINE
8
BLACK
6
CONTINUOUS
10
9.1913185039370084
20
-5.6568659055118111
11
9.1950680314960636
21
-5.653116377952756
0
LINE
8
BLACK
6
CONTINUOUS
10
9.1950680314960636
20
-5.653116377952756
11
9.2025670866141738
21
-5.6493668503937009
0
LINE
8
BLACK
6
CONTINUOUS
10
9.2025670866141738
20
-5.6493668503937009
11
9.2138157086614179
21
-5.6493668503937009
0
LINE
8
BLACK
6
CONTINUOUS
10
9.2138157086614179
20
-5.6493668503937009
11
9.2213147637795281
21
-5.653116377952756
0
LINE
8
BLACK
6
CONTINUOUS
10
9.2213147637795281
20
-5.653116377952756
11
9.2250642913385832
21
-5.660615472440945
0
LINE
8
BLACK
6
CONTINUOUS
10
9.2250642913385832
20
-5.660615472440945
11
9.2250642913385832
21
-5.7018603149606299
0
LINE
8
BLACK
6
CONTINUOUS
10
9.2250642913385832
20
-5.660615472440945
11
9.2288138188976383
21
-5.653116377952756
0
LINE
8
BLACK
6
CONTINUOUS
10
9.2288138188976383
20
-5.653116377952756
11
9.2363128740157485
21
-5.6493668503937009
0
LINE
8
BLACK
6
CONTINUOUS
10
9.2363128740157485
20
-5.6493668503937009
11
9.2475614566929139
21
-5.6493668503937009
0
LINE
8
BLACK
6
CONTINUOUS
10
9.2475614566929139
20
-5.6493668503937009
11
9.2550605511811028
21
-5.653116377952756
0
LINE
8
BLACK
6
CONTINUOUS
10
9.2550605511811028
20
-5.653116377952756
11
9.2588100787401579
21
-5.660615472440945
0
LINE
8
BLACK
6
CONTINUOUS
10
9.2588100787401579
20
-5.660615472440945
11
9.2588100787401579
21
-5.7018603149606299
0
LINE
8
BLACK
6
CONTINUOUS
10
9.4125408661417325
20
-5.61937062992126
11
9.3450493307086617
21
-5.7206079527559055
0
LINE
8
BLACK
6
CONTINUOUS
10
9.5137782283464567
20
-5.6231201574803151
11
9.5212773228346457
21
-5.6231201574803151
0
LINE
8
BLACK
6
CONTINUOUS
10
9.5212773228346457
20
-5.6231201574803151
11
9.5287763779527559
21
-5.6268696850393702
0
LINE
8
BLACK
6
CONTINUOUS
10
9.5287763779527559
20
-5.6268696850393702
11
9.532525905511811
21
-5.6306192125984253
0
LINE
8
BLACK
6
CONTINUOUS
10
9.532525905511811
20
-5.6306192125984253
11
9.5362754330708661
21
-5.6381182677165356
0
LINE
8
BLACK
6
CONTINUOUS
10
9.5362754330708661
20
-5.6381182677165356
11
9.5400249606299212
21
-5.653116377952756
0
LINE
8
BLACK
6
CONTINUOUS
10
9.5400249606299212
20
-5.653116377952756
11
9.5400249606299212
21
-5.6718640551181103
0
LINE
8
BLACK
6
CONTINUOUS
10
9.5400249606299212
20
-5.6718640551181103
11
9.5362754330708661
21
-5.6868621653543308
0
LINE
8
BLACK
6
CONTINUOUS
10
9.5362754330708661
20
-5.6868621653543308
11
9.532525905511811
21
-5.694361220472441
0
LINE
8
BLACK
6
CONTINUOUS
10
9.532525905511811
20
-5.694361220472441
11
9.5287763779527559
21
-5.6981107874015748
0
LINE
8
BLACK
6
CONTINUOUS
10
9.5287763779527559
20
-5.6981107874015748
11
9.5212773228346457
21
-5.7018603149606299
0
LINE
8
BLACK
6
CONTINUOUS
10
9.5212773228346457
20
-5.7018603149606299
11
9.5137782283464567
21
-5.7018603149606299
0
LINE
8
BLACK
6
CONTINUOUS
10
9.5137782283464567
20
-5.7018603149606299
11
9.5062791732283465
21
-5.6981107874015748
0
LINE
8
BLACK
6
CONTINUOUS
10
9.5062791732283465
20
-5.6981107874015748
11
9.5025296456692914
21
-5.694361220472441
0
LINE
8
BLACK
6
CONTINUOUS
10
9.5025296456692914
20
-5.694361220472441
11
9.4987801181102363
21
-5.6868621653543308
0
LINE
8
BLACK
6
CONTINUOUS
10
9.4987801181102363
20
-5.6868621653543308
11
9.4950305905511811
21
-5.6718640551181103
0
LINE
8
BLACK
6
CONTINUOUS
10
9.4950305905511811
20
-5.6718640551181103
11
9.4950305905511811
21
-5.653116377952756
0
LINE
8
BLACK
6
CONTINUOUS
10
9.4950305905511811
20
-5.653116377952756
11
9.4987801181102363
21
-5.6381182677165356
0
LINE
8
BLACK
6
CONTINUOUS
10
9.4987801181102363
20
-5.6381182677165356
11
9.5025296456692914
21
-5.6306192125984253
0
LINE
8
BLACK
6
CONTINUOUS
10
9.5025296456692914
20
-5.6306192125984253
11
9.5062791732283465
21
-5.6268696850393702
0
LINE
8
BLACK
6
CONTINUOUS
10
9.5062791732283465
20
-5.6268696850393702
11
9.5137782283464567
21
-5.6231201574803151
0
LINE
8
BLACK
6
CONTINUOUS
10
9.573770748031496
20
-5.694361220472441
11
9.5775202755905511
21
-5.6981107874015748
0
LINE
8
BLACK
6
CONTINUOUS
10
9.5775202755905511
20
-5.6981107874015748
11
9.573770748031496
21
-5.7018603149606299
0
LINE
8
BLACK
6
CONTINUOUS
10
9.573770748031496
20
-5.7018603149606299
11
9.5700212204724409
21
-5.6981107874015748
0
LINE
8
BLACK
6
CONTINUOUS
10
9.5700212204724409
20
-5.6981107874015748
11
9.573770748031496
21
-5.694361220472441
0
LINE
8
BLACK
6
CONTINUOUS
10
9.573770748031496
20
-5.694361220472441
11
9.573770748031496
21
-5.7018603149606299
0
LINE
8
BLACK
6
CONTINUOUS
10
9.6525109055118108
20
-5.7018603149606299
11
9.6075165354330707
21
-5.7018603149606299
0
LINE
8
BLACK
6
CONTINUOUS
10
9.6300137007874014
20
-5.7018603149606299
11
9.6300137007874014
21
-5.6231201574803151
0
LINE
8
BLACK
6
CONTINUOUS
10
9.6300137007874014
20
-5.6231201574803151
11
9.6225146456692912
21
-5.6343687401574805
0
LINE
8
BLACK
6
CONTINUOUS
10
9.6225146456692912
20
-5.6343687401574805
11
9.6150155905511809
21
-5.6418677952755907
0
LINE
8
BLACK
6
CONTINUOUS
10
9.6150155905511809
20
-5.6418677952755907
11
9.6075165354330707
21
-5.6456173228346458
0
LINE
8
BLACK
6
CONTINUOUS
10
9.6787576377952753
20
-5.6231201574803151
11
9.7275015354330705
21
-5.6231201574803151
0
LINE
8
BLACK
6
CONTINUOUS
10
9.7275015354330705
20
-5.6231201574803151
11
9.701254803149606
21
-5.653116377952756
0
LINE
8
BLACK
6
CONTINUOUS
10
9.701254803149606
20
-5.653116377952756
11
9.7125034251968501
21
-5.653116377952756
0
LINE
8
BLACK
6
CONTINUOUS
10
9.7125034251968501
20
-5.653116377952756
11
9.7200024803149603
21
-5.6568659055118111
0
LINE
8
BLACK
6
CONTINUOUS
10
9.7200024803149603
20
-5.6568659055118111
11
9.7237520078740154
21
-5.660615472440945
0
LINE
8
BLACK
6
CONTINUOUS
10
9.7237520078740154
20
-5.660615472440945
11
9.7275015354330705
21
-5.6681145275590552
0
LINE
8
BLACK
6
CONTINUOUS
10
9.7275015354330705
20
-5.6681145275590552
11
9.7275015354330705
21
-5.6868621653543308
0
LINE
8
BLACK
6
CONTINUOUS
10
9.7275015354330705
20
-5.6868621653543308
11
9.7237520078740154
21
-5.694361220472441
0
LINE
8
BLACK
6
CONTINUOUS
10
9.7237520078740154
20
-5.694361220472441
11
9.7200024803149603
21
-5.6981107874015748
0
LINE
8
BLACK
6
CONTINUOUS
10
9.7200024803149603
20
-5.6981107874015748
11
9.7125034251968501
21
-5.7018603149606299
0
LINE
8
BLACK
6
CONTINUOUS
10
9.7125034251968501
20
-5.7018603149606299
11
9.6900062204724406
21
-5.7018603149606299
0
LINE
8
BLACK
6
CONTINUOUS
10
9.6900062204724406
20
-5.7018603149606299
11
9.6825071653543304
21
-5.6981107874015748
0
LINE
8
BLACK
6
CONTINUOUS
10
9.6825071653543304
20
-5.6981107874015748
11
9.6787576377952753
21
-5.694361220472441
0
LINE
8
BLACK
6
CONTINUOUS
10
9.753748267716535
20
-5.6231201574803151
11
9.8024921653543302
21
-5.6231201574803151
0
LINE
8
BLACK
6
CONTINUOUS
10
9.8024921653543302
20
-5.6231201574803151
11
9.7762454330708657
21
-5.653116377952756
0
LINE
8
BLACK
6
CONTINUOUS
10
9.7762454330708657
20
-5.653116377952756
11
9.7874940551181098
21
-5.653116377952756
0
LINE
8
BLACK
6
CONTINUOUS
10
9.7874940551181098
20
-5.653116377952756
11
9.79499311023622
21
-5.6568659055118111
0
LINE
8
BLACK
6
CONTINUOUS
10
9.79499311023622
20
-5.6568659055118111
11
9.7987426377952751
21
-5.660615472440945
0
LINE
8
BLACK
6
CONTINUOUS
10
9.7987426377952751
20
-5.660615472440945
11
9.8024921653543302
21
-5.6681145275590552
0
LINE
8
BLACK
6
CONTINUOUS
10
9.8024921653543302
20
-5.6681145275590552
11
9.8024921653543302
21
-5.6868621653543308
0
LINE
8
BLACK
6
CONTINUOUS
10
9.8024921653543302
20
-5.6868621653543308
11
9.7987426377952751
21
-5.694361220472441
0
LINE
8
BLACK
6
CONTINUOUS
10
9.7987426377952751
20
-5.694361220472441
11
9.79499311023622
21
-5.6981107874015748
0
LINE
8
BLACK
6
CONTINUOUS
10
9.79499311023622
20
-5.6981107874015748
11
9.7874940551181098
21
-5.7018603149606299
0
LINE
8
BLACK
6
CONTINUOUS
10
9.7874940551181098
20
-5.7018603149606299
11
9.7649968503937004
21
-5.7018603149606299
0
LINE
8
BLACK
6
CONTINUOUS
10
9.7649968503937004
20
-5.7018603149606299
11
9.7574977952755901
21
-5.6981107874015748
0
LINE
8
BLACK
6
CONTINUOUS
10
9.7574977952755901
20
-5.6981107874015748
11
9.753748267716535
21
-5.694361220472441
0
LINE
8
BLACK
6
CONTINUOUS
10
9.8399874803149601
20
-5.7018603149606299
11
9.8549855905511805
21
-5.7018603149606299
0
LINE
8
BLACK
6
CONTINUOUS
10
9.8549855905511805
20
-5.7018603149606299
11
9.8624846850393695
21
-5.6981107874015748
0
LINE
8
BLACK
6
CONTINUOUS
10
9.8624846850393695
20
-5.6981107874015748
11
9.8662342125984246
21
-5.694361220472441
0
LINE
8
BLACK
6
CONTINUOUS
10
9.8662342125984246
20
-5.694361220472441
11
9.8737332677165348
21
-5.6831126377952756
0
LINE
8
BLACK
6
CONTINUOUS
10
9.8737332677165348
20
-5.6831126377952756
11
9.8774827952755899
21
-5.6681145275590552
0
LINE
8
BLACK
6
CONTINUOUS
10
9.8774827952755899
20
-5.6681145275590552
11
9.8774827952755899
21
-5.6381182677165356
0
LINE
8
BLACK
6
CONTINUOUS
10
9.8774827952755899
20
-5.6381182677165356
11
9.8737332677165348
21
-5.6306192125984253
0
LINE
8
BLACK
6
CONTINUOUS
10
9.8737332677165348
20
-5.6306192125984253
11
9.8699837401574797
21
-5.6268696850393702
0
LINE
8
BLACK
6
CONTINUOUS
10
9.8699837401574797
20
-5.6268696850393702
11
9.8624846850393695
21
-5.6231201574803151
0
LINE
8
BLACK
6
CONTINUOUS
10
9.8624846850393695
20
-5.6231201574803151
11
9.8474865354330703
21
-5.6231201574803151
0
LINE
8
BLACK
6
CONTINUOUS
10
9.8474865354330703
20
-5.6231201574803151
11
9.8399874803149601
21
-5.6268696850393702
0
LINE
8
BLACK
6
CONTINUOUS
10
9.8399874803149601
20
-5.6268696850393702
11
9.836237952755905
21
-5.6306192125984253
0
LINE
8
BLACK
6
CONTINUOUS
10
9.836237952755905
20
-5.6306192125984253
11
9.8324884251968498
21
-5.6381182677165356
0
LINE
8
BLACK
6
CONTINUOUS
10
9.8324884251968498
20
-5.6381182677165356
11
9.8324884251968498
21
-5.6568659055118111
0
LINE
8
BLACK
6
CONTINUOUS
10
9.8324884251968498
20
-5.6568659055118111
11
9.836237952755905
21
-5.6643650000000001
0
LINE
8
BLACK
6
CONTINUOUS
10
9.836237952755905
20
-5.6643650000000001
11
9.8399874803149601
21
-5.6681145275590552
0
LINE
8
BLACK
6
CONTINUOUS
10
9.8399874803149601
20
-5.6681145275590552
11
9.8474865354330703
21
-5.6718640551181103
0
LINE
8
BLACK
6
CONTINUOUS
10
9.8474865354330703
20
-5.6718640551181103
11
9.8624846850393695
21
-5.6718640551181103
0
LINE
8
BLACK
6
CONTINUOUS
10
9.8624846850393695
20
-5.6718640551181103
11
9.8699837401574797
21
-5.6681145275590552
0
LINE
8
BLACK
6
CONTINUOUS
10
9.8699837401574797
20
-5.6681145275590552
11
9.8737332677165348
21
-5.6643650000000001
0
LINE
8
BLACK
6
CONTINUOUS
10
9.8737332677165348
20
-5.6643650000000001
11
9.8774827952755899
21
-5.6568659055118111
0
LINE
8
BLACK
6
CONTINUOUS
10
9.9074790551181096
20
-5.6231201574803151
11
9.9074790551181096
21
-5.6381182677165356
0
LINE
8
BLACK
6
CONTINUOUS
10
9.9374753149606292
20
-5.6231201574803151
11
9.9374753149606292
21
-5.6381182677165356
0
LINE
8
BLACK
6
CONTINUOUS
10
10.0537108267716526
20
-5.7318565354330708
11
10.0499612598425188
21
-5.7281070078740157
0
LINE
8
BLACK
6
CONTINUOUS
10
10.0499612598425188
20
-5.7281070078740157
11
10.0424622047244085
21
-5.7168584251968504
0
LINE
8
BLACK
6
CONTINUOUS
10
10.0424622047244085
20
-5.7168584251968504
11
10.0387126771653534
21
-5.7093593700787402
0
LINE
8
BLACK
6
CONTINUOUS
10
10.0387126771653534
20
-5.7093593700787402
11
10.0349631496062983
21
-5.6981107874015748
0
LINE
8
BLACK
6
CONTINUOUS
10
10.0349631496062983
20
-5.6981107874015748
11
10.0312136220472432
21
-5.6793631102362205
0
LINE
8
BLACK
6
CONTINUOUS
10
10.0312136220472432
20
-5.6793631102362205
11
10.0312136220472432
21
-5.6643650000000001
0
LINE
8
BLACK
6
CONTINUOUS
10
10.0312136220472432
20
-5.6643650000000001
11
10.0349631496062983
21
-5.6456173228346458
0
LINE
8
BLACK
6
CONTINUOUS
10
10.0349631496062983
20
-5.6456173228346458
11
10.0387126771653534
21
-5.6343687401574805
0
LINE
8
BLACK
6
CONTINUOUS
10
10.0387126771653534
20
-5.6343687401574805
11
10.0424622047244085
21
-5.6268696850393702
0
LINE
8
BLACK
6
CONTINUOUS
10
10.0424622047244085
20
-5.6268696850393702
11
10.0499612598425188
21
-5.6156210629921262
0
LINE
8
BLACK
6
CONTINUOUS
10
10.0499612598425188
20
-5.6156210629921262
11
10.0537108267716526
21
-5.611871535433071
0
LINE
8
BLACK
6
CONTINUOUS
10
10.0799575196850384
20
-5.6306192125984253
11
10.0837070472440935
21
-5.6268696850393702
0
LINE
8
BLACK
6
CONTINUOUS
10
10.0837070472440935
20
-5.6268696850393702
11
10.0912061023622037
21
-5.6231201574803151
0
LINE
8
BLACK
6
CONTINUOUS
10
10.0912061023622037
20
-5.6231201574803151
11
10.109953779527558
21
-5.6231201574803151
0
LINE
8
BLACK
6
CONTINUOUS
10
10.109953779527558
20
-5.6231201574803151
11
10.1174528346456682
21
-5.6268696850393702
0
LINE
8
BLACK
6
CONTINUOUS
10
10.1174528346456682
20
-5.6268696850393702
11
10.1212023622047234
21
-5.6306192125984253
0
LINE
8
BLACK
6
CONTINUOUS
10
10.1212023622047234
20
-5.6306192125984253
11
10.1249518897637785
21
-5.6381182677165356
0
LINE
8
BLACK
6
CONTINUOUS
10
10.1249518897637785
20
-5.6381182677165356
11
10.1249518897637785
21
-5.6456173228346458
0
LINE
8
BLACK
6
CONTINUOUS
10
10.1249518897637785
20
-5.6456173228346458
11
10.1212023622047234
21
-5.6568659055118111
0
LINE
8
BLACK
6
CONTINUOUS
10
10.1212023622047234
20
-5.6568659055118111
11
10.0762079921259833
21
-5.7018603149606299
0
LINE
8
BLACK
6
CONTINUOUS
10
10.0762079921259833
20
-5.7018603149606299
11
10.1249518897637785
21
-5.7018603149606299
0
LINE
8
BLACK
6
CONTINUOUS
10
10.2186901968503943
20
-5.7018603149606299
11
10.2186901968503943
21
-5.6231201574803151
0
LINE
8
BLACK
6
CONTINUOUS
10
10.252435984251969
20
-5.7018603149606299
11
10.252435984251969
21
-5.660615472440945
0
LINE
8
BLACK
6
CONTINUOUS
10
10.252435984251969
20
-5.660615472440945
11
10.2486864566929139
21
-5.653116377952756
0
LINE
8
BLACK
6
CONTINUOUS
10
10.2486864566929139
20
-5.653116377952756
11
10.2411874015748037
21
-5.6493668503937009
0
LINE
8
BLACK
6
CONTINUOUS
10
10.2411874015748037
20
-5.6493668503937009
11
10.2299387795275596
21
-5.6493668503937009
0
LINE
8
BLACK
6
CONTINUOUS
10
10.2299387795275596
20
-5.6493668503937009
11
10.2224397244094494
21
-5.653116377952756
0
LINE
8
BLACK
6
CONTINUOUS
10
10.2224397244094494
20
-5.653116377952756
11
10.2186901968503943
21
-5.6568659055118111
0
LINE
8
BLACK
6
CONTINUOUS
10
10.3011798818897642
20
-5.7018603149606299
11
10.293680826771654
21
-5.6981107874015748
0
LINE
8
BLACK
6
CONTINUOUS
10
10.293680826771654
20
-5.6981107874015748
11
10.2899312992125989
21
-5.694361220472441
0
LINE
8
BLACK
6
CONTINUOUS
10
10.2899312992125989
20
-5.694361220472441
11
10.2861817716535437
21
-5.6868621653543308
0
LINE
8
BLACK
6
CONTINUOUS
10
10.2861817716535437
20
-5.6868621653543308
11
10.2861817716535437
21
-5.6643650000000001
0
LINE
8
BLACK
6
CONTINUOUS
10
10.2861817716535437
20
-5.6643650000000001
11
10.2899312992125989
21
-5.6568659055118111
0
LINE
8
BLACK
6
CONTINUOUS
10
10.2899312992125989
20
-5.6568659055118111
11
10.293680826771654
21
-5.653116377952756
0
LINE
8
BLACK
6
CONTINUOUS
10
10.293680826771654
20
-5.653116377952756
11
10.3011798818897642
21
-5.6493668503937009
0
LINE
8
BLACK
6
CONTINUOUS
10
10.3011798818897642
20
-5.6493668503937009
11
10.3124285039370083
21
-5.6493668503937009
0
LINE
8
BLACK
6
CONTINUOUS
10
10.3124285039370083
20
-5.6493668503937009
11
10.3199275590551185
21
-5.653116377952756
0
LINE
8
BLACK
6
CONTINUOUS
10
10.3199275590551185
20
-5.653116377952756
11
10.3236770866141736
21
-5.6568659055118111
0
LINE
8
BLACK
6
CONTINUOUS
10
10.3236770866141736
20
-5.6568659055118111
11
10.3274266141732287
21
-5.6643650000000001
0
LINE
8
BLACK
6
CONTINUOUS
10
10.3274266141732287
20
-5.6643650000000001
11
10.3274266141732287
21
-5.6868621653543308
0
LINE
8
BLACK
6
CONTINUOUS
10
10.3274266141732287
20
-5.6868621653543308
11
10.3236770866141736
21
-5.694361220472441
0
LINE
8
BLACK
6
CONTINUOUS
10
10.3236770866141736
20
-5.694361220472441
11
10.3199275590551185
21
-5.6981107874015748
0
LINE
8
BLACK
6
CONTINUOUS
10
10.3199275590551185
20
-5.6981107874015748
11
10.3124285039370083
21
-5.7018603149606299
0
LINE
8
BLACK
6
CONTINUOUS
10
10.3124285039370083
20
-5.7018603149606299
11
10.3011798818897642
21
-5.7018603149606299
0
LINE
8
BLACK
6
CONTINUOUS
10
10.3724209842519688
20
-5.7018603149606299
11
10.3649219291338586
21
-5.6981107874015748
0
LINE
8
BLACK
6
CONTINUOUS
10
10.3649219291338586
20
-5.6981107874015748
11
10.3611724015748035
21
-5.6906116929133859
0
LINE
8
BLACK
6
CONTINUOUS
10
10.3611724015748035
20
-5.6906116929133859
11
10.3611724015748035
21
-5.6231201574803151
0
LINE
8
BLACK
6
CONTINUOUS
10
10.4324135039370081
20
-5.6981107874015748
11
10.4249144488188978
21
-5.7018603149606299
0
LINE
8
BLACK
6
CONTINUOUS
10
10.4249144488188978
20
-5.7018603149606299
11
10.4099162992125986
21
-5.7018603149606299
0
LINE
8
BLACK
6
CONTINUOUS
10
10.4099162992125986
20
-5.7018603149606299
11
10.4024172440944884
21
-5.6981107874015748
0
LINE
8
BLACK
6
CONTINUOUS
10
10.4024172440944884
20
-5.6981107874015748
11
10.3986677165354333
21
-5.6906116929133859
0
LINE
8
BLACK
6
CONTINUOUS
10
10.3986677165354333
20
-5.6906116929133859
11
10.3986677165354333
21
-5.660615472440945
0
LINE
8
BLACK
6
CONTINUOUS
10
10.3986677165354333
20
-5.660615472440945
11
10.4024172440944884
21
-5.653116377952756
0
LINE
8
BLACK
6
CONTINUOUS
10
10.4024172440944884
20
-5.653116377952756
11
10.4099162992125986
21
-5.6493668503937009
0
LINE
8
BLACK
6
CONTINUOUS
10
10.4099162992125986
20
-5.6493668503937009
11
10.4249144488188978
21
-5.6493668503937009
0
LINE
8
BLACK
6
CONTINUOUS
10
10.4249144488188978
20
-5.6493668503937009
11
10.4324135039370081
21
-5.653116377952756
0
LINE
8
BLACK
6
CONTINUOUS
10
10.4324135039370081
20
-5.653116377952756
11
10.4361630314960632
21
-5.660615472440945
0
LINE
8
BLACK
6
CONTINUOUS
10
10.4361630314960632
20
-5.660615472440945
11
10.4361630314960632
21
-5.6681145275590552
0
LINE
8
BLACK
6
CONTINUOUS
10
10.4361630314960632
20
-5.6681145275590552
11
10.3986677165354333
21
-5.6756135826771654
0
LINE
8
BLACK
6
CONTINUOUS
10
10.4661592913385828
20
-5.6981107874015748
11
10.473658346456693
21
-5.7018603149606299
0
LINE
8
BLACK
6
CONTINUOUS
10
10.473658346456693
20
-5.7018603149606299
11
10.4886564566929135
21
-5.7018603149606299
0
LINE
8
BLACK
6
CONTINUOUS
10
10.4886564566929135
20
-5.7018603149606299
11
10.4961555511811024
21
-5.6981107874015748
0
LINE
8
BLACK
6
CONTINUOUS
10
10.4961555511811024
20
-5.6981107874015748
11
10.4999050787401575
21
-5.6906116929133859
0
LINE
8
BLACK
6
CONTINUOUS
10
10.4999050787401575
20
-5.6906116929133859
11
10.4999050787401575
21
-5.6868621653543308
0
LINE
8
BLACK
6
CONTINUOUS
10
10.4999050787401575
20
-5.6868621653543308
11
10.4961555511811024
21
-5.6793631102362205
0
LINE
8
BLACK
6
CONTINUOUS
10
10.4961555511811024
20
-5.6793631102362205
11
10.4886564566929135
21
-5.6756135826771654
0
LINE
8
BLACK
6
CONTINUOUS
10
10.4886564566929135
20
-5.6756135826771654
11
10.4774078740157481
21
-5.6756135826771654
0
LINE
8
BLACK
6
CONTINUOUS
10
10.4774078740157481
20
-5.6756135826771654
11
10.4699088188976379
21
-5.6718640551181103
0
LINE
8
BLACK
6
CONTINUOUS
10
10.4699088188976379
20
-5.6718640551181103
11
10.4661592913385828
21
-5.6643650000000001
0
LINE
8
BLACK
6
CONTINUOUS
10
10.4661592913385828
20
-5.6643650000000001
11
10.4661592913385828
21
-5.660615472440945
0
LINE
8
BLACK
6
CONTINUOUS
10
10.4661592913385828
20
-5.660615472440945
11
10.4699088188976379
21
-5.653116377952756
0
LINE
8
BLACK
6
CONTINUOUS
10
10.4699088188976379
20
-5.653116377952756
11
10.4774078740157481
21
-5.6493668503937009
0
LINE
8
BLACK
6
CONTINUOUS
10
10.4774078740157481
20
-5.6493668503937009
11
10.4886564566929135
21
-5.6493668503937009
0
LINE
8
BLACK
6
CONTINUOUS
10
10.4886564566929135
20
-5.6493668503937009
11
10.4961555511811024
21
-5.653116377952756
0
LINE
8
BLACK
6
CONTINUOUS
10
10.5261518110236221
20
-5.7318565354330708
11
10.5299013385826772
21
-5.7281070078740157
0
LINE
8
BLACK
6
CONTINUOUS
10
10.5299013385826772
20
-5.7281070078740157
11
10.5374003937007874
21
-5.7168584251968504
0
LINE
8
BLACK
6
CONTINUOUS
10
10.5374003937007874
20
-5.7168584251968504
11
10.5411499212598425
21
-5.7093593700787402
0
LINE
8
BLACK
6
CONTINUOUS
10
10.5411499212598425
20
-5.7093593700787402
11
10.5448994488188976
21
-5.6981107874015748
0
LINE
8
BLACK
6
CONTINUOUS
10
10.5448994488188976
20
-5.6981107874015748
11
10.5486489763779527
21
-5.6793631102362205
0
LINE
8
BLACK
6
CONTINUOUS
10
10.5486489763779527
20
-5.6793631102362205
11
10.5486489763779527
21
-5.6643650000000001
0
LINE
8
BLACK
6
CONTINUOUS
10
10.5486489763779527
20
-5.6643650000000001
11
10.5448994488188976
21
-5.6456173228346458
0
LINE
8
BLACK
6
CONTINUOUS
10
10.5448994488188976
20
-5.6456173228346458
11
10.5411499212598425
21
-5.6343687401574805
0
LINE
8
BLACK
6
CONTINUOUS
10
10.5411499212598425
20
-5.6343687401574805
11
10.5374003937007874
21
-5.6268696850393702
0
LINE
8
BLACK
6
CONTINUOUS
10
10.5374003937007874
20
-5.6268696850393702
11
10.5299013385826772
21
-5.6156210629921262
0
LINE
8
BLACK
6
CONTINUOUS
10
10.5299013385826772
20
-5.6156210629921262
11
10.5261518110236221
21
-5.611871535433071
0
LINE
8
BLACK
6
CONTINUOUS
10
10.6686340157480313
20
-5.7318565354330708
11
10.6648844488188974
21
-5.7281070078740157
0
LINE
8
BLACK
6
CONTINUOUS
10
10.6648844488188974
20
-5.7281070078740157
11
10.6573853937007872
21
-5.7168584251968504
0
LINE
8
BLACK
6
CONTINUOUS
10
10.6573853937007872
20
-5.7168584251968504
11
10.6536358661417321
21
-5.7093593700787402
0
LINE
8
BLACK
6
CONTINUOUS
10
10.6536358661417321
20
-5.7093593700787402
11
10.649886338582677
21
-5.6981107874015748
0
LINE
8
BLACK
6
CONTINUOUS
10
10.649886338582677
20
-5.6981107874015748
11
10.6461368110236219
21
-5.6793631102362205
0
LINE
8
BLACK
6
CONTINUOUS
10
10.6461368110236219
20
-5.6793631102362205
11
10.6461368110236219
21
-5.6643650000000001
0
LINE
8
BLACK
6
CONTINUOUS
10
10.6461368110236219
20
-5.6643650000000001
11
10.649886338582677
21
-5.6456173228346458
0
LINE
8
BLACK
6
CONTINUOUS
10
10.649886338582677
20
-5.6456173228346458
11
10.6536358661417321
21
-5.6343687401574805
0
LINE
8
BLACK
6
CONTINUOUS
10
10.6536358661417321
20
-5.6343687401574805
11
10.6573853937007872
21
-5.6268696850393702
0
LINE
8
BLACK
6
CONTINUOUS
10
10.6573853937007872
20
-5.6268696850393702
11
10.6648844488188974
21
-5.6156210629921262
0
LINE
8
BLACK
6
CONTINUOUS
10
10.6648844488188974
20
-5.6156210629921262
11
10.6686340157480313
21
-5.611871535433071
0
LINE
8
BLACK
6
CONTINUOUS
10
10.6986302362204722
20
-5.6493668503937009
11
10.6986302362204722
21
-5.7018603149606299
0
LINE
8
BLACK
6
CONTINUOUS
10
10.6986302362204722
20
-5.6568659055118111
11
10.7023797637795273
21
-5.653116377952756
0
LINE
8
BLACK
6
CONTINUOUS
10
10.7023797637795273
20
-5.653116377952756
11
10.7098788188976375
21
-5.6493668503937009
0
LINE
8
BLACK
6
CONTINUOUS
10
10.7098788188976375
20
-5.6493668503937009
11
10.7211274409448816
21
-5.6493668503937009
0
LINE
8
BLACK
6
CONTINUOUS
10
10.7211274409448816
20
-5.6493668503937009
11
10.7286264960629918
21
-5.653116377952756
0
LINE
8
BLACK
6
CONTINUOUS
10
10.7286264960629918
20
-5.653116377952756
11
10.7323760236220469
21
-5.660615472440945
0
LINE
8
BLACK
6
CONTINUOUS
10
10.7323760236220469
20
-5.660615472440945
11
10.7323760236220469
21
-5.7018603149606299
0
LINE
8
BLACK
6
CONTINUOUS
10
10.7811199212598421
20
-5.7018603149606299
11
10.7736208661417319
21
-5.6981107874015748
0
LINE
8
BLACK
6
CONTINUOUS
10
10.7736208661417319
20
-5.6981107874015748
11
10.7698713385826768
21
-5.694361220472441
0
LINE
8
BLACK
6
CONTINUOUS
10
10.7698713385826768
20
-5.694361220472441
11
10.7661218110236216
21
-5.6868621653543308
0
LINE
8
BLACK
6
CONTINUOUS
10
10.7661218110236216
20
-5.6868621653543308
11
10.7661218110236216
21
-5.6643650000000001
0
LINE
8
BLACK
6
CONTINUOUS
10
10.7661218110236216
20
-5.6643650000000001
11
10.7698713385826768
21
-5.6568659055118111
0
LINE
8
BLACK
6
CONTINUOUS
10
10.7698713385826768
20
-5.6568659055118111
11
10.7736208661417319
21
-5.653116377952756
0
LINE
8
BLACK
6
CONTINUOUS
10
10.7736208661417319
20
-5.653116377952756
11
10.7811199212598421
21
-5.6493668503937009
0
LINE
8
BLACK
6
CONTINUOUS
10
10.7811199212598421
20
-5.6493668503937009
11
10.7923685433070862
21
-5.6493668503937009
0
LINE
8
BLACK
6
CONTINUOUS
10
10.7923685433070862
20
-5.6493668503937009
11
10.7998675984251964
21
-5.653116377952756
0
LINE
8
BLACK
6
CONTINUOUS
10
10.7998675984251964
20
-5.653116377952756
11
10.8036171259842515
21
-5.6568659055118111
0
LINE
8
BLACK
6
CONTINUOUS
10
10.8036171259842515
20
-5.6568659055118111
11
10.8073666535433066
21
-5.6643650000000001
0
LINE
8
BLACK
6
CONTINUOUS
10
10.8073666535433066
20
-5.6643650000000001
11
10.8073666535433066
21
-5.6868621653543308
0
LINE
8
BLACK
6
CONTINUOUS
10
10.8073666535433066
20
-5.6868621653543308
11
10.8036171259842515
21
-5.694361220472441
0
LINE
8
BLACK
6
CONTINUOUS
10
10.8036171259842515
20
-5.694361220472441
11
10.7998675984251964
21
-5.6981107874015748
0
LINE
8
BLACK
6
CONTINUOUS
10
10.7998675984251964
20
-5.6981107874015748
11
10.7923685433070862
21
-5.7018603149606299
0
LINE
8
BLACK
6
CONTINUOUS
10
10.7923685433070862
20
-5.7018603149606299
11
10.7811199212598421
21
-5.7018603149606299
0
LINE
8
BLACK
6
CONTINUOUS
10
10.829863858267716
20
-5.6493668503937009
11
10.8598600787401569
21
-5.6493668503937009
0
LINE
8
BLACK
6
CONTINUOUS
10
10.8411124409448814
20
-5.6231201574803151
11
10.8411124409448814
21
-5.6906116929133859
0
LINE
8
BLACK
6
CONTINUOUS
10
10.8411124409448814
20
-5.6906116929133859
11
10.8448619685039365
21
-5.6981107874015748
0
LINE
8
BLACK
6
CONTINUOUS
10
10.8448619685039365
20
-5.6981107874015748
11
10.8523610236220467
21
-5.7018603149606299
0
LINE
8
BLACK
6
CONTINUOUS
10
10.8523610236220467
20
-5.7018603149606299
11
10.8598600787401569
21
-5.7018603149606299
0
LINE
8
BLACK
6
CONTINUOUS
10
10.9460993307086607
20
-5.6493668503937009
11
10.9460993307086607
21
-5.7281070078740157
0
LINE
8
BLACK
6
CONTINUOUS
10
10.9460993307086607
20
-5.653116377952756
11
10.9535983858267709
21
-5.6493668503937009
0
LINE
8
BLACK
6
CONTINUOUS
10
10.9535983858267709
20
-5.6493668503937009
11
10.9685965354330701
21
-5.6493668503937009
0
LINE
8
BLACK
6
CONTINUOUS
10
10.9685965354330701
20
-5.6493668503937009
11
10.9760955905511803
21
-5.653116377952756
0
LINE
8
BLACK
6
CONTINUOUS
10
10.9760955905511803
20
-5.653116377952756
11
10.9798451181102354
21
-5.6568659055118111
0
LINE
8
BLACK
6
CONTINUOUS
10
10.9798451181102354
20
-5.6568659055118111
11
10.9835946456692906
21
-5.6643650000000001
0
LINE
8
BLACK
6
CONTINUOUS
10
10.9835946456692906
20
-5.6643650000000001
11
10.9835946456692906
21
-5.6868621653543308
0
LINE
8
BLACK
6
CONTINUOUS
10
10.9835946456692906
20
-5.6868621653543308
11
10.9798451181102354
21
-5.694361220472441
0
LINE
8
BLACK
6
CONTINUOUS
10
10.9798451181102354
20
-5.694361220472441
11
10.9760955905511803
21
-5.6981107874015748
0
LINE
8
BLACK
6
CONTINUOUS
10
10.9760955905511803
20
-5.6981107874015748
11
10.9685965354330701
21
-5.7018603149606299
0
LINE
8
BLACK
6
CONTINUOUS
10
10.9685965354330701
20
-5.7018603149606299
11
10.9535983858267709
21
-5.7018603149606299
0
LINE
8
BLACK
6
CONTINUOUS
10
10.9535983858267709
20
-5.7018603149606299
11
10.9460993307086607
21
-5.6981107874015748
0
LINE
8
BLACK
6
CONTINUOUS
10
11.0285890157480306
20
-5.7018603149606299
11
11.0210899606299204
21
-5.6981107874015748
0
LINE
8
BLACK
6
CONTINUOUS
10
11.0210899606299204
20
-5.6981107874015748
11
11.0173404330708653
21
-5.6906116929133859
0
LINE
8
BLACK
6
CONTINUOUS
10
11.0173404330708653
20
-5.6906116929133859
11
11.0173404330708653
21
-5.6231201574803151
0
LINE
8
BLACK
6
CONTINUOUS
10
11.092331062992125
20
-5.7018603149606299
11
11.092331062992125
21
-5.660615472440945
0
LINE
8
BLACK
6
CONTINUOUS
10
11.092331062992125
20
-5.660615472440945
11
11.0885815354330699
21
-5.653116377952756
0
LINE
8
BLACK
6
CONTINUOUS
10
11.0885815354330699
20
-5.653116377952756
11
11.0810824803149597
21
-5.6493668503937009
0
LINE
8
BLACK
6
CONTINUOUS
10
11.0810824803149597
20
-5.6493668503937009
11
11.0660843307086605
21
-5.6493668503937009
0
LINE
8
BLACK
6
CONTINUOUS
10
11.0660843307086605
20
-5.6493668503937009
11
11.0585852755905503
21
-5.653116377952756
0
LINE
8
BLACK
6
CONTINUOUS
10
11.092331062992125
20
-5.6981107874015748
11
11.0848320078740148
21
-5.7018603149606299
0
LINE
8
BLACK
6
CONTINUOUS
10
11.0848320078740148
20
-5.7018603149606299
11
11.0660843307086605
21
-5.7018603149606299
0
LINE
8
BLACK
6
CONTINUOUS
10
11.0660843307086605
20
-5.7018603149606299
11
11.0585852755905503
21
-5.6981107874015748
0
LINE
8
BLACK
6
CONTINUOUS
10
11.0585852755905503
20
-5.6981107874015748
11
11.0548357480314952
21
-5.6906116929133859
0
LINE
8
BLACK
6
CONTINUOUS
10
11.0548357480314952
20
-5.6906116929133859
11
11.0548357480314952
21
-5.6831126377952756
0
LINE
8
BLACK
6
CONTINUOUS
10
11.0548357480314952
20
-5.6831126377952756
11
11.0585852755905503
21
-5.6756135826771654
0
LINE
8
BLACK
6
CONTINUOUS
10
11.0585852755905503
20
-5.6756135826771654
11
11.0660843307086605
21
-5.6718640551181103
0
LINE
8
BLACK
6
CONTINUOUS
10
11.0660843307086605
20
-5.6718640551181103
11
11.0848320078740148
21
-5.6718640551181103
0
LINE
8
BLACK
6
CONTINUOUS
10
11.0848320078740148
20
-5.6718640551181103
11
11.092331062992125
21
-5.6681145275590552
0
LINE
8
BLACK
6
CONTINUOUS
10
11.1185777952755895
20
-5.6493668503937009
11
11.1485740157480304
21
-5.6493668503937009
0
LINE
8
BLACK
6
CONTINUOUS
10
11.1298263779527549
20
-5.6231201574803151
11
11.1298263779527549
21
-5.6906116929133859
0
LINE
8
BLACK
6
CONTINUOUS
10
11.1298263779527549
20
-5.6906116929133859
11
11.13357590551181
21
-5.6981107874015748
0
LINE
8
BLACK
6
CONTINUOUS
10
11.13357590551181
20
-5.6981107874015748
11
11.1410749606299202
21
-5.7018603149606299
0
LINE
8
BLACK
6
CONTINUOUS
10
11.1410749606299202
20
-5.7018603149606299
11
11.1485740157480304
21
-5.7018603149606299
0
LINE
8
BLACK
6
CONTINUOUS
10
11.2048170078740164
20
-5.6981107874015748
11
11.1973179527559061
21
-5.7018603149606299
0
LINE
8
BLACK
6
CONTINUOUS
10
11.1973179527559061
20
-5.7018603149606299
11
11.1823198031496052
21
-5.7018603149606299
0
LINE
8
BLACK
6
CONTINUOUS
10
11.1823198031496052
20
-5.7018603149606299
11
11.1748207480314949
21
-5.6981107874015748
0
LINE
8
BLACK
6
CONTINUOUS
10
11.1748207480314949
20
-5.6981107874015748
11
11.1710712204724398
21
-5.6906116929133859
0
LINE
8
BLACK
6
CONTINUOUS
10
11.1710712204724398
20
-5.6906116929133859
11
11.1710712204724398
21
-5.660615472440945
0
LINE
8
BLACK
6
CONTINUOUS
10
11.1710712204724398
20
-5.660615472440945
11
11.1748207480314949
21
-5.653116377952756
0
LINE
8
BLACK
6
CONTINUOUS
10
11.1748207480314949
20
-5.653116377952756
11
11.1823198031496052
21
-5.6493668503937009
0
LINE
8
BLACK
6
CONTINUOUS
10
11.1823198031496052
20
-5.6493668503937009
11
11.1973179527559061
21
-5.6493668503937009
0
LINE
8
BLACK
6
CONTINUOUS
10
11.1973179527559061
20
-5.6493668503937009
11
11.2048170078740164
21
-5.653116377952756
0
LINE
8
BLACK
6
CONTINUOUS
10
11.2048170078740164
20
-5.653116377952756
11
11.2085665354330715
21
-5.660615472440945
0
LINE
8
BLACK
6
CONTINUOUS
10
11.2085665354330715
20
-5.660615472440945
11
11.2085665354330715
21
-5.6681145275590552
0
LINE
8
BLACK
6
CONTINUOUS
10
11.2085665354330715
20
-5.6681145275590552
11
11.1710712204724398
21
-5.6756135826771654
0
LINE
8
BLACK
6
CONTINUOUS
10
11.276058110236221
20
-5.7018603149606299
11
11.276058110236221
21
-5.6231201574803151
0
LINE
8
BLACK
6
CONTINUOUS
10
11.276058110236221
20
-5.6981107874015748
11
11.2685590551181107
21
-5.7018603149606299
0
LINE
8
BLACK
6
CONTINUOUS
10
11.2685590551181107
20
-5.7018603149606299
11
11.2535609055118115
21
-5.7018603149606299
0
LINE
8
BLACK
6
CONTINUOUS
10
11.2535609055118115
20
-5.7018603149606299
11
11.2460618503937013
21
-5.6981107874015748
0
LINE
8
BLACK
6
CONTINUOUS
10
11.2460618503937013
20
-5.6981107874015748
11
11.2423123228346462
21
-5.694361220472441
0
LINE
8
BLACK
6
CONTINUOUS
10
11.2423123228346462
20
-5.694361220472441
11
11.2385627952755911
21
-5.6868621653543308
0
LINE
8
BLACK
6
CONTINUOUS
10
11.2385627952755911
20
-5.6868621653543308
11
11.2385627952755911
21
-5.6643650000000001
0
LINE
8
BLACK
6
CONTINUOUS
10
11.2385627952755911
20
-5.6643650000000001
11
11.2423123228346462
21
-5.6568659055118111
0
LINE
8
BLACK
6
CONTINUOUS
10
11.2423123228346462
20
-5.6568659055118111
11
11.2460618503937013
21
-5.653116377952756
0
LINE
8
BLACK
6
CONTINUOUS
10
11.2460618503937013
20
-5.653116377952756
11
11.2535609055118115
21
-5.6493668503937009
0
LINE
8
BLACK
6
CONTINUOUS
10
11.2535609055118115
20
-5.6493668503937009
11
11.2685590551181107
21
-5.6493668503937009
0
LINE
8
BLACK
6
CONTINUOUS
10
11.2685590551181107
20
-5.6493668503937009
11
11.276058110236221
21
-5.653116377952756
0
LINE
8
BLACK
6
CONTINUOUS
10
11.3060543700787406
20
-5.7318565354330708
11
11.3098038976377957
21
-5.7281070078740157
0
LINE
8
BLACK
6
CONTINUOUS
10
11.3098038976377957
20
-5.7281070078740157
11
11.3173029527559059
21
-5.7168584251968504
0
LINE
8
BLACK
6
CONTINUOUS
10
11.3173029527559059
20
-5.7168584251968504
11
11.321052480314961
21
-5.7093593700787402
0
LINE
8
BLACK
6
CONTINUOUS
10
11.321052480314961
20
-5.7093593700787402
11
11.3248020078740161
21
-5.6981107874015748
0
LINE
8
BLACK
6
CONTINUOUS
10
11.3248020078740161
20
-5.6981107874015748
11
11.3285515354330713
21
-5.6793631102362205
0
LINE
8
BLACK
6
CONTINUOUS
10
11.3285515354330713
20
-5.6793631102362205
11
11.3285515354330713
21
-5.6643650000000001
0
LINE
8
BLACK
6
CONTINUOUS
10
11.3285515354330713
20
-5.6643650000000001
11
11.3248020078740161
21
-5.6456173228346458
0
LINE
8
BLACK
6
CONTINUOUS
10
11.3248020078740161
20
-5.6456173228346458
11
11.321052480314961
21
-5.6343687401574805
0
LINE
8
BLACK
6
CONTINUOUS
10
11.321052480314961
20
-5.6343687401574805
11
11.3173029527559059
21
-5.6268696850393702
0
LINE
8
BLACK
6
CONTINUOUS
10
11.3173029527559059
20
-5.6268696850393702
11
11.3098038976377957
21
-5.6156210629921262
0
LINE
8
BLACK
6
CONTINUOUS
10
11.3098038976377957
20
-5.6156210629921262
11
11.3060543700787406
21
-5.611871535433071
  0
ENDSEC
  0
EOF
