<?xml version="1.0" standalone="no"?>
 <!DOCTYPE svg PUBLIC "-//W3C//DTD SVG 1.1//EN" 
 "http://www.w3.org/Graphics/SVG/1.1/DTD/svg11.dtd"> 
<svg
  xmlns:svg="http://www.w3.org/2000/svg"
  xmlns="http://www.w3.org/2000/svg"
  xmlns:xlink="http://www.w3.org/1999/xlink"
  version="1.1"
  width="431.8000mm" height="279.4000mm" viewBox="0.0000 0.0000 431.8000 279.4000">
<title>SVG Image created as mag-encoder-B_Silkscreen.svg date 2024/10/24 19:42:32 </title>
  <desc>Image generated by PCBNEW </desc>
<g style="fill:#000000; fill-opacity:1.0000;stroke:#000000; stroke-opacity:1.0000;
stroke-linecap:round; stroke-linejoin:round;"
 transform="translate(0 0) scale(1 1)">
</g>
<g style="fill:none; 
stroke:#000000; stroke-width:0.1524; stroke-opacity:1; 
stroke-linecap:round; stroke-linejoin:round;">
<text x="209.2960" y="122.7455"
textLength="2.0151" font-size="1.1853" lengthAdjust="spacingAndGlyphs"
text-anchor="end" opacity="0" stroke-opacity="0">CS</text>
<g class="stroked-text"><desc>CS</desc>
<path d="M208.1797 122.6197
L208.1374 122.6620
" />
<path d="M208.1374 122.6620
L208.0104 122.7043
" />
<path d="M208.0104 122.7043
L207.9257 122.7043
" />
<path d="M207.9257 122.7043
L207.7987 122.6620
" />
<path d="M207.7987 122.6620
L207.7141 122.5773
" />
<path d="M207.7141 122.5773
L207.6717 122.4927
" />
<path d="M207.6717 122.4927
L207.6294 122.3233
" />
<path d="M207.6294 122.3233
L207.6294 122.1963
" />
<path d="M207.6294 122.1963
L207.6717 122.0270
" />
<path d="M207.6717 122.0270
L207.7141 121.9423
" />
<path d="M207.7141 121.9423
L207.7987 121.8577
" />
<path d="M207.7987 121.8577
L207.9257 121.8153
" />
<path d="M207.9257 121.8153
L208.0104 121.8153
" />
<path d="M208.0104 121.8153
L208.1374 121.8577
" />
<path d="M208.1374 121.8577
L208.1797 121.9000
" />
<path d="M208.5184 122.6620
L208.6454 122.7043
" />
<path d="M208.6454 122.7043
L208.8571 122.7043
" />
<path d="M208.8571 122.7043
L208.9417 122.6620
" />
<path d="M208.9417 122.6620
L208.9841 122.6197
" />
<path d="M208.9841 122.6197
L209.0264 122.5350
" />
<path d="M209.0264 122.5350
L209.0264 122.4503
" />
<path d="M209.0264 122.4503
L208.9841 122.3657
" />
<path d="M208.9841 122.3657
L208.9417 122.3233
" />
<path d="M208.9417 122.3233
L208.8571 122.2810
" />
<path d="M208.8571 122.2810
L208.6877 122.2387
" />
<path d="M208.6877 122.2387
L208.6031 122.1963
" />
<path d="M208.6031 122.1963
L208.5607 122.1540
" />
<path d="M208.5607 122.1540
L208.5184 122.0693
" />
<path d="M208.5184 122.0693
L208.5184 121.9847
" />
<path d="M208.5184 121.9847
L208.5607 121.9000
" />
<path d="M208.5607 121.9000
L208.6031 121.8577
" />
<path d="M208.6031 121.8577
L208.6877 121.8153
" />
<path d="M208.6877 121.8153
L208.8994 121.8153
" />
<path d="M208.8994 121.8153
L209.0264 121.8577
" />
</g><text x="209.2960" y="117.6909"
textLength="2.9887" font-size="1.1853" lengthAdjust="spacingAndGlyphs"
text-anchor="end" opacity="0" stroke-opacity="0">GND</text>
<g class="stroked-text"><desc>GND</desc>
<path d="M207.1637 116.8031
L207.0791 116.7607
" />
<path d="M207.0791 116.7607
L206.9521 116.7607
" />
<path d="M206.9521 116.7607
L206.8251 116.8031
" />
<path d="M206.8251 116.8031
L206.7404 116.8877
" />
<path d="M206.7404 116.8877
L206.6981 116.9724
" />
<path d="M206.6981 116.9724
L206.6557 117.1417
" />
<path d="M206.6557 117.1417
L206.6557 117.2687
" />
<path d="M206.6557 117.2687
L206.6981 117.4381
" />
<path d="M206.6981 117.4381
L206.7404 117.5227
" />
<path d="M206.7404 117.5227
L206.8251 117.6074
" />
<path d="M206.8251 117.6074
L206.9521 117.6497
" />
<path d="M206.9521 117.6497
L207.0367 117.6497
" />
<path d="M207.0367 117.6497
L207.1637 117.6074
" />
<path d="M207.1637 117.6074
L207.2061 117.5651
" />
<path d="M207.2061 117.5651
L207.2061 117.2687
" />
<path d="M207.2061 117.2687
L207.0367 117.2687
" />
<path d="M207.5871 117.6497
L207.5871 116.7607
" />
<path d="M207.5871 116.7607
L208.0951 117.6497
" />
<path d="M208.0951 117.6497
L208.0951 116.7607
" />
<path d="M208.5184 117.6497
L208.5184 116.7607
" />
<path d="M208.5184 116.7607
L208.7301 116.7607
" />
<path d="M208.7301 116.7607
L208.8571 116.8031
" />
<path d="M208.8571 116.8031
L208.9417 116.8877
" />
<path d="M208.9417 116.8877
L208.9841 116.9724
" />
<path d="M208.9841 116.9724
L209.0264 117.1417
" />
<path d="M209.0264 117.1417
L209.0264 117.2687
" />
<path d="M209.0264 117.2687
L208.9841 117.4381
" />
<path d="M208.9841 117.4381
L208.9417 117.5227
" />
<path d="M208.9417 117.5227
L208.8571 117.6074
" />
<path d="M208.8571 117.6074
L208.7301 117.6497
" />
<path d="M208.7301 117.6497
L208.5184 117.6497
" />
</g><text x="209.2960" y="127.8255"
textLength="3.4967" font-size="1.1853" lengthAdjust="spacingAndGlyphs"
text-anchor="end" opacity="0" stroke-opacity="0">MISO</text>
<g class="stroked-text"><desc>MISO</desc>
<path d="M206.1901 127.7843
L206.1901 126.8953
" />
<path d="M206.1901 126.8953
L206.4864 127.5303
" />
<path d="M206.4864 127.5303
L206.7827 126.8953
" />
<path d="M206.7827 126.8953
L206.7827 127.7843
" />
<path d="M207.2061 127.7843
L207.2061 126.8953
" />
<path d="M207.5871 127.7420
L207.7141 127.7843
" />
<path d="M207.7141 127.7843
L207.9257 127.7843
" />
<path d="M207.9257 127.7843
L208.0104 127.7420
" />
<path d="M208.0104 127.7420
L208.0527 127.6997
" />
<path d="M208.0527 127.6997
L208.0951 127.6150
" />
<path d="M208.0951 127.6150
L208.0951 127.5303
" />
<path d="M208.0951 127.5303
L208.0527 127.4457
" />
<path d="M208.0527 127.4457
L208.0104 127.4033
" />
<path d="M208.0104 127.4033
L207.9257 127.3610
" />
<path d="M207.9257 127.3610
L207.7564 127.3187
" />
<path d="M207.7564 127.3187
L207.6717 127.2763
" />
<path d="M207.6717 127.2763
L207.6294 127.2340
" />
<path d="M207.6294 127.2340
L207.5871 127.1493
" />
<path d="M207.5871 127.1493
L207.5871 127.0647
" />
<path d="M207.5871 127.0647
L207.6294 126.9800
" />
<path d="M207.6294 126.9800
L207.6717 126.9377
" />
<path d="M207.6717 126.9377
L207.7564 126.8953
" />
<path d="M207.7564 126.8953
L207.9681 126.8953
" />
<path d="M207.9681 126.8953
L208.0951 126.9377
" />
<path d="M208.6454 126.8953
L208.8147 126.8953
" />
<path d="M208.8147 126.8953
L208.8994 126.9377
" />
<path d="M208.8994 126.9377
L208.9841 127.0223
" />
<path d="M208.9841 127.0223
L209.0264 127.1917
" />
<path d="M209.0264 127.1917
L209.0264 127.4880
" />
<path d="M209.0264 127.4880
L208.9841 127.6573
" />
<path d="M208.9841 127.6573
L208.8994 127.7420
" />
<path d="M208.8994 127.7420
L208.8147 127.7843
" />
<path d="M208.8147 127.7843
L208.6454 127.7843
" />
<path d="M208.6454 127.7843
L208.5607 127.7420
" />
<path d="M208.5607 127.7420
L208.4761 127.6573
" />
<path d="M208.4761 127.6573
L208.4337 127.4880
" />
<path d="M208.4337 127.4880
L208.4337 127.1917
" />
<path d="M208.4337 127.1917
L208.4761 127.0223
" />
<path d="M208.4761 127.0223
L208.5607 126.9377
" />
<path d="M208.5607 126.9377
L208.6454 126.8953
" />
</g><text x="209.2960" y="120.2055"
textLength="2.7347" font-size="1.1853" lengthAdjust="spacingAndGlyphs"
text-anchor="end" opacity="0" stroke-opacity="0">3V3</text>
<g class="stroked-text"><desc>3V3</desc>
<path d="M206.8674 119.2753
L207.4177 119.2753
" />
<path d="M207.4177 119.2753
L207.1214 119.6140
" />
<path d="M207.1214 119.6140
L207.2484 119.6140
" />
<path d="M207.2484 119.6140
L207.3331 119.6563
" />
<path d="M207.3331 119.6563
L207.3754 119.6987
" />
<path d="M207.3754 119.6987
L207.4177 119.7833
" />
<path d="M207.4177 119.7833
L207.4177 119.9950
" />
<path d="M207.4177 119.9950
L207.3754 120.0797
" />
<path d="M207.3754 120.0797
L207.3331 120.1220
" />
<path d="M207.3331 120.1220
L207.2484 120.1643
" />
<path d="M207.2484 120.1643
L206.9944 120.1643
" />
<path d="M206.9944 120.1643
L206.9097 120.1220
" />
<path d="M206.9097 120.1220
L206.8674 120.0797
" />
<path d="M207.6717 119.2753
L207.9681 120.1643
" />
<path d="M207.9681 120.1643
L208.2644 119.2753
" />
<path d="M208.4761 119.2753
L209.0264 119.2753
" />
<path d="M209.0264 119.2753
L208.7301 119.6140
" />
<path d="M208.7301 119.6140
L208.8571 119.6140
" />
<path d="M208.8571 119.6140
L208.9417 119.6563
" />
<path d="M208.9417 119.6563
L208.9841 119.6987
" />
<path d="M208.9841 119.6987
L209.0264 119.7833
" />
<path d="M209.0264 119.7833
L209.0264 119.9950
" />
<path d="M209.0264 119.9950
L208.9841 120.0797
" />
<path d="M208.9841 120.0797
L208.9417 120.1220
" />
<path d="M208.9417 120.1220
L208.8571 120.1643
" />
<path d="M208.8571 120.1643
L208.6031 120.1643
" />
<path d="M208.6031 120.1643
L208.5184 120.1220
" />
<path d="M208.5184 120.1220
L208.4761 120.0797
" />
</g><text x="192.7400" y="121.3574"
textLength="2.6271" font-size="1.0160" lengthAdjust="spacingAndGlyphs"
text-anchor="start" opacity="0" stroke-opacity="0">GND</text>
<g class="stroked-text"><desc>GND</desc>
<path d="M193.4208 120.5953
L193.3483 120.5590
" />
<path d="M193.3483 120.5590
L193.2394 120.5590
" />
<path d="M193.2394 120.5590
L193.1305 120.5953
" />
<path d="M193.1305 120.5953
L193.0580 120.6679
" />
<path d="M193.0580 120.6679
L193.0217 120.7405
" />
<path d="M193.0217 120.7405
L192.9854 120.8856
" />
<path d="M192.9854 120.8856
L192.9854 120.9945
" />
<path d="M192.9854 120.9945
L193.0217 121.1396
" />
<path d="M193.0217 121.1396
L193.0580 121.2122
" />
<path d="M193.0580 121.2122
L193.1305 121.2848
" />
<path d="M193.1305 121.2848
L193.2394 121.3210
" />
<path d="M193.2394 121.3210
L193.3120 121.3210
" />
<path d="M193.3120 121.3210
L193.4208 121.2848
" />
<path d="M193.4208 121.2848
L193.4571 121.2485
" />
<path d="M193.4571 121.2485
L193.4571 120.9945
" />
<path d="M193.4571 120.9945
L193.3120 120.9945
" />
<path d="M193.7837 121.3210
L193.7837 120.5590
" />
<path d="M193.7837 120.5590
L194.2191 121.3210
" />
<path d="M194.2191 121.3210
L194.2191 120.5590
" />
<path d="M194.5820 121.3210
L194.5820 120.5590
" />
<path d="M194.5820 120.5590
L194.7634 120.5590
" />
<path d="M194.7634 120.5590
L194.8723 120.5953
" />
<path d="M194.8723 120.5953
L194.9448 120.6679
" />
<path d="M194.9448 120.6679
L194.9811 120.7405
" />
<path d="M194.9811 120.7405
L195.0174 120.8856
" />
<path d="M195.0174 120.8856
L195.0174 120.9945
" />
<path d="M195.0174 120.9945
L194.9811 121.1396
" />
<path d="M194.9811 121.1396
L194.9448 121.2122
" />
<path d="M194.9448 121.2122
L194.8723 121.2848
" />
<path d="M194.8723 121.2848
L194.7634 121.3210
" />
<path d="M194.7634 121.3210
L194.5820 121.3210
" />
</g><text x="192.7400" y="122.5842"
textLength="1.6837" font-size="1.0160" lengthAdjust="spacingAndGlyphs"
text-anchor="start" opacity="0" stroke-opacity="0">5V</text>
<g class="stroked-text"><desc>5V</desc>
<path d="M193.3845 121.7858
L193.0217 121.7858
" />
<path d="M193.0217 121.7858
L192.9854 122.1487
" />
<path d="M192.9854 122.1487
L193.0217 122.1124
" />
<path d="M193.0217 122.1124
L193.0943 122.0761
" />
<path d="M193.0943 122.0761
L193.2757 122.0761
" />
<path d="M193.2757 122.0761
L193.3483 122.1124
" />
<path d="M193.3483 122.1124
L193.3845 122.1487
" />
<path d="M193.3845 122.1487
L193.4208 122.2212
" />
<path d="M193.4208 122.2212
L193.4208 122.4027
" />
<path d="M193.4208 122.4027
L193.3845 122.4752
" />
<path d="M193.3845 122.4752
L193.3483 122.5115
" />
<path d="M193.3483 122.5115
L193.2757 122.5478
" />
<path d="M193.2757 122.5478
L193.0943 122.5478
" />
<path d="M193.0943 122.5478
L193.0217 122.5115
" />
<path d="M193.0217 122.5115
L192.9854 122.4752
" />
<path d="M193.6385 121.7858
L193.8925 122.5478
" />
<path d="M193.8925 122.5478
L194.1465 121.7858
" />
</g><text x="192.7400" y="123.8110"
textLength="0.9579" font-size="1.0160" lengthAdjust="spacingAndGlyphs"
text-anchor="start" opacity="0" stroke-opacity="0">A</text>
<g class="stroked-text"><desc>A</desc>
<path d="M192.9854 123.5569
L193.3483 123.5569
" />
<path d="M192.9128 123.7746
L193.1668 123.0126
" />
<path d="M193.1668 123.0126
L193.4208 123.7746
" />
</g><text x="192.7400" y="125.0378"
textLength="1.0668" font-size="1.0160" lengthAdjust="spacingAndGlyphs"
text-anchor="start" opacity="0" stroke-opacity="0">B</text>
<g class="stroked-text"><desc>B</desc>
<path d="M193.2757 124.6022
L193.3845 124.6385
" />
<path d="M193.3845 124.6385
L193.4208 124.6748
" />
<path d="M193.4208 124.6748
L193.4571 124.7474
" />
<path d="M193.4571 124.7474
L193.4571 124.8562
" />
<path d="M193.4571 124.8562
L193.4208 124.9288
" />
<path d="M193.4208 124.9288
L193.3845 124.9651
" />
<path d="M193.3845 124.9651
L193.3120 125.0014
" />
<path d="M193.3120 125.0014
L193.0217 125.0014
" />
<path d="M193.0217 125.0014
L193.0217 124.2394
" />
<path d="M193.0217 124.2394
L193.2757 124.2394
" />
<path d="M193.2757 124.2394
L193.3483 124.2757
" />
<path d="M193.3483 124.2757
L193.3845 124.3119
" />
<path d="M193.3845 124.3119
L193.4208 124.3845
" />
<path d="M193.4208 124.3845
L193.4208 124.4571
" />
<path d="M193.4208 124.4571
L193.3845 124.5297
" />
<path d="M193.3845 124.5297
L193.3483 124.5659
" />
<path d="M193.3483 124.5659
L193.2757 124.6022
" />
<path d="M193.2757 124.6022
L193.0217 124.6022
" />
</g><text x="192.7400" y="126.2646"
textLength="2.8085" font-size="1.0160" lengthAdjust="spacingAndGlyphs"
text-anchor="start" opacity="0" stroke-opacity="0">PWM</text>
<g class="stroked-text"><desc>PWM</desc>
<path d="M193.0217 126.2281
L193.0217 125.4661
" />
<path d="M193.0217 125.4661
L193.3120 125.4661
" />
<path d="M193.3120 125.4661
L193.3845 125.5024
" />
<path d="M193.3845 125.5024
L193.4208 125.5387
" />
<path d="M193.4208 125.5387
L193.4571 125.6113
" />
<path d="M193.4571 125.6113
L193.4571 125.7201
" />
<path d="M193.4571 125.7201
L193.4208 125.7927
" />
<path d="M193.4208 125.7927
L193.3845 125.8290
" />
<path d="M193.3845 125.8290
L193.3120 125.8653
" />
<path d="M193.3120 125.8653
L193.0217 125.8653
" />
<path d="M193.7111 125.4661
L193.8925 126.2281
" />
<path d="M193.8925 126.2281
L194.0377 125.6839
" />
<path d="M194.0377 125.6839
L194.1828 126.2281
" />
<path d="M194.1828 126.2281
L194.3643 125.4661
" />
<path d="M194.6545 126.2281
L194.6545 125.4661
" />
<path d="M194.6545 125.4661
L194.9085 126.0104
" />
<path d="M194.9085 126.0104
L195.1625 125.4661
" />
<path d="M195.1625 125.4661
L195.1625 126.2281
" />
</g><g transform="rotate(90.000000 203.4032 131.5720)">
<text x="203.4032" y="132.3340"
textLength="7.9974" font-size="1.0160" lengthAdjust="spacingAndGlyphs"
text-anchor="middle" opacity="0" stroke-opacity="0">971 SPARTAN</text>
</g>
<g class="stroked-text"><desc>971 SPARTAN</desc>
<path d="M202.6128 127.9434
L202.6128 128.0886
" />
<path d="M202.6128 128.0886
L202.6491 128.1611
" />
<path d="M202.6491 128.1611
L202.6854 128.1974
" />
<path d="M202.6854 128.1974
L202.7943 128.2700
" />
<path d="M202.7943 128.2700
L202.9394 128.3063
" />
<path d="M202.9394 128.3063
L203.2297 128.3063
" />
<path d="M203.2297 128.3063
L203.3023 128.2700
" />
<path d="M203.3023 128.2700
L203.3386 128.2337
" />
<path d="M203.3386 128.2337
L203.3748 128.1611
" />
<path d="M203.3748 128.1611
L203.3748 128.0160
" />
<path d="M203.3748 128.0160
L203.3386 127.9434
" />
<path d="M203.3386 127.9434
L203.3023 127.9071
" />
<path d="M203.3023 127.9071
L203.2297 127.8709
" />
<path d="M203.2297 127.8709
L203.0483 127.8709
" />
<path d="M203.0483 127.8709
L202.9757 127.9071
" />
<path d="M202.9757 127.9071
L202.9394 127.9434
" />
<path d="M202.9394 127.9434
L202.9031 128.0160
" />
<path d="M202.9031 128.0160
L202.9031 128.1611
" />
<path d="M202.9031 128.1611
L202.9394 128.2337
" />
<path d="M202.9394 128.2337
L202.9757 128.2700
" />
<path d="M202.9757 128.2700
L203.0483 128.3063
" />
<path d="M203.3748 128.5603
L203.3748 129.0683
" />
<path d="M203.3748 129.0683
L202.6128 128.7417
" />
<path d="M202.6128 129.7577
L202.6128 129.3223
" />
<path d="M202.6128 129.5400
L203.3748 129.5400
" />
<path d="M203.3748 129.5400
L203.2660 129.4674
" />
<path d="M203.2660 129.4674
L203.1934 129.3949
" />
<path d="M203.1934 129.3949
L203.1571 129.3223
" />
<path d="M202.6491 130.6286
L202.6128 130.7374
" />
<path d="M202.6128 130.7374
L202.6128 130.9189
" />
<path d="M202.6128 130.9189
L202.6491 130.9914
" />
<path d="M202.6491 130.9914
L202.6854 131.0277
" />
<path d="M202.6854 131.0277
L202.7580 131.0640
" />
<path d="M202.7580 131.0640
L202.8306 131.0640
" />
<path d="M202.8306 131.0640
L202.9031 131.0277
" />
<path d="M202.9031 131.0277
L202.9394 130.9914
" />
<path d="M202.9394 130.9914
L202.9757 130.9189
" />
<path d="M202.9757 130.9189
L203.0120 130.7737
" />
<path d="M203.0120 130.7737
L203.0483 130.7011
" />
<path d="M203.0483 130.7011
L203.0846 130.6649
" />
<path d="M203.0846 130.6649
L203.1571 130.6286
" />
<path d="M203.1571 130.6286
L203.2297 130.6286
" />
<path d="M203.2297 130.6286
L203.3023 130.6649
" />
<path d="M203.3023 130.6649
L203.3386 130.7011
" />
<path d="M203.3386 130.7011
L203.3748 130.7737
" />
<path d="M203.3748 130.7737
L203.3748 130.9551
" />
<path d="M203.3748 130.9551
L203.3386 131.0640
" />
<path d="M202.6128 131.3906
L203.3748 131.3906
" />
<path d="M203.3748 131.3906
L203.3748 131.6809
" />
<path d="M203.3748 131.6809
L203.3386 131.7534
" />
<path d="M203.3386 131.7534
L203.3023 131.7897
" />
<path d="M203.3023 131.7897
L203.2297 131.8260
" />
<path d="M203.2297 131.8260
L203.1208 131.8260
" />
<path d="M203.1208 131.8260
L203.0483 131.7897
" />
<path d="M203.0483 131.7897
L203.0120 131.7534
" />
<path d="M203.0120 131.7534
L202.9757 131.6809
" />
<path d="M202.9757 131.6809
L202.9757 131.3906
" />
<path d="M202.8306 132.1163
L202.8306 132.4791
" />
<path d="M202.6128 132.0437
L203.3748 132.2977
" />
<path d="M203.3748 132.2977
L202.6128 132.5517
" />
<path d="M202.6128 133.2411
L202.9757 132.9871
" />
<path d="M202.6128 132.8057
L203.3748 132.8057
" />
<path d="M203.3748 132.8057
L203.3748 133.0960
" />
<path d="M203.3748 133.0960
L203.3386 133.1686
" />
<path d="M203.3386 133.1686
L203.3023 133.2049
" />
<path d="M203.3023 133.2049
L203.2297 133.2411
" />
<path d="M203.2297 133.2411
L203.1208 133.2411
" />
<path d="M203.1208 133.2411
L203.0483 133.2049
" />
<path d="M203.0483 133.2049
L203.0120 133.1686
" />
<path d="M203.0120 133.1686
L202.9757 133.0960
" />
<path d="M202.9757 133.0960
L202.9757 132.8057
" />
<path d="M203.3748 133.4589
L203.3748 133.8943
" />
<path d="M202.6128 133.6766
L203.3748 133.6766
" />
<path d="M202.8306 134.1120
L202.8306 134.4749
" />
<path d="M202.6128 134.0394
L203.3748 134.2934
" />
<path d="M203.3748 134.2934
L202.6128 134.5474
" />
<path d="M202.6128 134.8014
L203.3748 134.8014
" />
<path d="M203.3748 134.8014
L202.6128 135.2369
" />
<path d="M202.6128 135.2369
L203.3748 135.2369
" />
</g><g transform="rotate(90.000000 202.1764 131.5720)">
<text x="202.1764" y="132.3340"
textLength="9.3399" font-size="1.0160" lengthAdjust="spacingAndGlyphs"
text-anchor="middle" opacity="0" stroke-opacity="0">ROBOTICS 2024</text>
</g>
<g class="stroked-text"><desc>ROBOTICS 2024</desc>
<path d="M201.3861 127.6713
L201.7489 127.4173
" />
<path d="M201.3861 127.2359
L202.1481 127.2359
" />
<path d="M202.1481 127.2359
L202.1481 127.5261
" />
<path d="M202.1481 127.5261
L202.1118 127.5987
" />
<path d="M202.1118 127.5987
L202.0755 127.6350
" />
<path d="M202.0755 127.6350
L202.0029 127.6713
" />
<path d="M202.0029 127.6713
L201.8941 127.6713
" />
<path d="M201.8941 127.6713
L201.8215 127.6350
" />
<path d="M201.8215 127.6350
L201.7852 127.5987
" />
<path d="M201.7852 127.5987
L201.7489 127.5261
" />
<path d="M201.7489 127.5261
L201.7489 127.2359
" />
<path d="M202.1481 128.1430
L202.1481 128.2881
" />
<path d="M202.1481 128.2881
L202.1118 128.3607
" />
<path d="M202.1118 128.3607
L202.0392 128.4333
" />
<path d="M202.0392 128.4333
L201.8941 128.4696
" />
<path d="M201.8941 128.4696
L201.6401 128.4696
" />
<path d="M201.6401 128.4696
L201.4949 128.4333
" />
<path d="M201.4949 128.4333
L201.4223 128.3607
" />
<path d="M201.4223 128.3607
L201.3861 128.2881
" />
<path d="M201.3861 128.2881
L201.3861 128.1430
" />
<path d="M201.3861 128.1430
L201.4223 128.0704
" />
<path d="M201.4223 128.0704
L201.4949 127.9979
" />
<path d="M201.4949 127.9979
L201.6401 127.9616
" />
<path d="M201.6401 127.9616
L201.8941 127.9616
" />
<path d="M201.8941 127.9616
L202.0392 127.9979
" />
<path d="M202.0392 127.9979
L202.1118 128.0704
" />
<path d="M202.1118 128.0704
L202.1481 128.1430
" />
<path d="M201.7852 129.0501
L201.7489 129.1590
" />
<path d="M201.7489 129.1590
L201.7126 129.1953
" />
<path d="M201.7126 129.1953
L201.6401 129.2316
" />
<path d="M201.6401 129.2316
L201.5312 129.2316
" />
<path d="M201.5312 129.2316
L201.4586 129.1953
" />
<path d="M201.4586 129.1953
L201.4223 129.1590
" />
<path d="M201.4223 129.1590
L201.3861 129.0864
" />
<path d="M201.3861 129.0864
L201.3861 128.7961
" />
<path d="M201.3861 128.7961
L202.1481 128.7961
" />
<path d="M202.1481 128.7961
L202.1481 129.0501
" />
<path d="M202.1481 129.0501
L202.1118 129.1227
" />
<path d="M202.1118 129.1227
L202.0755 129.1590
" />
<path d="M202.0755 129.1590
L202.0029 129.1953
" />
<path d="M202.0029 129.1953
L201.9303 129.1953
" />
<path d="M201.9303 129.1953
L201.8578 129.1590
" />
<path d="M201.8578 129.1590
L201.8215 129.1227
" />
<path d="M201.8215 129.1227
L201.7852 129.0501
" />
<path d="M201.7852 129.0501
L201.7852 128.7961
" />
<path d="M202.1481 129.7033
L202.1481 129.8484
" />
<path d="M202.1481 129.8484
L202.1118 129.9210
" />
<path d="M202.1118 129.9210
L202.0392 129.9936
" />
<path d="M202.0392 129.9936
L201.8941 130.0299
" />
<path d="M201.8941 130.0299
L201.6401 130.0299
" />
<path d="M201.6401 130.0299
L201.4949 129.9936
" />
<path d="M201.4949 129.9936
L201.4223 129.9210
" />
<path d="M201.4223 129.9210
L201.3861 129.8484
" />
<path d="M201.3861 129.8484
L201.3861 129.7033
" />
<path d="M201.3861 129.7033
L201.4223 129.6307
" />
<path d="M201.4223 129.6307
L201.4949 129.5581
" />
<path d="M201.4949 129.5581
L201.6401 129.5219
" />
<path d="M201.6401 129.5219
L201.8941 129.5219
" />
<path d="M201.8941 129.5219
L202.0392 129.5581
" />
<path d="M202.0392 129.5581
L202.1118 129.6307
" />
<path d="M202.1118 129.6307
L202.1481 129.7033
" />
<path d="M202.1481 130.2476
L202.1481 130.6830
" />
<path d="M201.3861 130.4653
L202.1481 130.4653
" />
<path d="M201.3861 130.9370
L202.1481 130.9370
" />
<path d="M201.4586 131.7353
L201.4223 131.6990
" />
<path d="M201.4223 131.6990
L201.3861 131.5901
" />
<path d="M201.3861 131.5901
L201.3861 131.5176
" />
<path d="M201.3861 131.5176
L201.4223 131.4087
" />
<path d="M201.4223 131.4087
L201.4949 131.3361
" />
<path d="M201.4949 131.3361
L201.5675 131.2999
" />
<path d="M201.5675 131.2999
L201.7126 131.2636
" />
<path d="M201.7126 131.2636
L201.8215 131.2636
" />
<path d="M201.8215 131.2636
L201.9666 131.2999
" />
<path d="M201.9666 131.2999
L202.0392 131.3361
" />
<path d="M202.0392 131.3361
L202.1118 131.4087
" />
<path d="M202.1118 131.4087
L202.1481 131.5176
" />
<path d="M202.1481 131.5176
L202.1481 131.5901
" />
<path d="M202.1481 131.5901
L202.1118 131.6990
" />
<path d="M202.1118 131.6990
L202.0755 131.7353
" />
<path d="M201.4223 132.0256
L201.3861 132.1344
" />
<path d="M201.3861 132.1344
L201.3861 132.3159
" />
<path d="M201.3861 132.3159
L201.4223 132.3884
" />
<path d="M201.4223 132.3884
L201.4586 132.4247
" />
<path d="M201.4586 132.4247
L201.5312 132.4610
" />
<path d="M201.5312 132.4610
L201.6038 132.4610
" />
<path d="M201.6038 132.4610
L201.6763 132.4247
" />
<path d="M201.6763 132.4247
L201.7126 132.3884
" />
<path d="M201.7126 132.3884
L201.7489 132.3159
" />
<path d="M201.7489 132.3159
L201.7852 132.1707
" />
<path d="M201.7852 132.1707
L201.8215 132.0981
" />
<path d="M201.8215 132.0981
L201.8578 132.0619
" />
<path d="M201.8578 132.0619
L201.9303 132.0256
" />
<path d="M201.9303 132.0256
L202.0029 132.0256
" />
<path d="M202.0029 132.0256
L202.0755 132.0619
" />
<path d="M202.0755 132.0619
L202.1118 132.0981
" />
<path d="M202.1118 132.0981
L202.1481 132.1707
" />
<path d="M202.1481 132.1707
L202.1481 132.3521
" />
<path d="M202.1481 132.3521
L202.1118 132.4610
" />
<path d="M202.0755 133.3319
L202.1118 133.3681
" />
<path d="M202.1118 133.3681
L202.1481 133.4407
" />
<path d="M202.1481 133.4407
L202.1481 133.6221
" />
<path d="M202.1481 133.6221
L202.1118 133.6947
" />
<path d="M202.1118 133.6947
L202.0755 133.7310
" />
<path d="M202.0755 133.7310
L202.0029 133.7673
" />
<path d="M202.0029 133.7673
L201.9303 133.7673
" />
<path d="M201.9303 133.7673
L201.8215 133.7310
" />
<path d="M201.8215 133.7310
L201.3861 133.2956
" />
<path d="M201.3861 133.2956
L201.3861 133.7673
" />
<path d="M202.1481 134.2390
L202.1481 134.3116
" />
<path d="M202.1481 134.3116
L202.1118 134.3841
" />
<path d="M202.1118 134.3841
L202.0755 134.4204
" />
<path d="M202.0755 134.4204
L202.0029 134.4567
" />
<path d="M202.0029 134.4567
L201.8578 134.4930
" />
<path d="M201.8578 134.4930
L201.6763 134.4930
" />
<path d="M201.6763 134.4930
L201.5312 134.4567
" />
<path d="M201.5312 134.4567
L201.4586 134.4204
" />
<path d="M201.4586 134.4204
L201.4223 134.3841
" />
<path d="M201.4223 134.3841
L201.3861 134.3116
" />
<path d="M201.3861 134.3116
L201.3861 134.2390
" />
<path d="M201.3861 134.2390
L201.4223 134.1664
" />
<path d="M201.4223 134.1664
L201.4586 134.1301
" />
<path d="M201.4586 134.1301
L201.5312 134.0939
" />
<path d="M201.5312 134.0939
L201.6763 134.0576
" />
<path d="M201.6763 134.0576
L201.8578 134.0576
" />
<path d="M201.8578 134.0576
L202.0029 134.0939
" />
<path d="M202.0029 134.0939
L202.0755 134.1301
" />
<path d="M202.0755 134.1301
L202.1118 134.1664
" />
<path d="M202.1118 134.1664
L202.1481 134.2390
" />
<path d="M202.0755 134.7833
L202.1118 134.8196
" />
<path d="M202.1118 134.8196
L202.1481 134.8921
" />
<path d="M202.1481 134.8921
L202.1481 135.0736
" />
<path d="M202.1481 135.0736
L202.1118 135.1461
" />
<path d="M202.1118 135.1461
L202.0755 135.1824
" />
<path d="M202.0755 135.1824
L202.0029 135.2187
" />
<path d="M202.0029 135.2187
L201.9303 135.2187
" />
<path d="M201.9303 135.2187
L201.8215 135.1824
" />
<path d="M201.8215 135.1824
L201.3861 134.7470
" />
<path d="M201.3861 134.7470
L201.3861 135.2187
" />
<path d="M201.8941 135.8719
L201.3861 135.8719
" />
<path d="M202.1843 135.6904
L201.6401 135.5090
" />
<path d="M201.6401 135.5090
L201.6401 135.9807
" />
</g><text x="209.2960" y="125.6665"
textLength="3.4967" font-size="1.1853" lengthAdjust="spacingAndGlyphs"
text-anchor="end" opacity="0" stroke-opacity="0">MOSI</text>
<g class="stroked-text"><desc>MOSI</desc>
<path d="M206.1901 125.6253
L206.1901 124.7363
" />
<path d="M206.1901 124.7363
L206.4864 125.3713
" />
<path d="M206.4864 125.3713
L206.7827 124.7363
" />
<path d="M206.7827 124.7363
L206.7827 125.6253
" />
<path d="M207.3754 124.7363
L207.5447 124.7363
" />
<path d="M207.5447 124.7363
L207.6294 124.7787
" />
<path d="M207.6294 124.7787
L207.7141 124.8633
" />
<path d="M207.7141 124.8633
L207.7564 125.0327
" />
<path d="M207.7564 125.0327
L207.7564 125.3290
" />
<path d="M207.7564 125.3290
L207.7141 125.4983
" />
<path d="M207.7141 125.4983
L207.6294 125.5830
" />
<path d="M207.6294 125.5830
L207.5447 125.6253
" />
<path d="M207.5447 125.6253
L207.3754 125.6253
" />
<path d="M207.3754 125.6253
L207.2907 125.5830
" />
<path d="M207.2907 125.5830
L207.2061 125.4983
" />
<path d="M207.2061 125.4983
L207.1637 125.3290
" />
<path d="M207.1637 125.3290
L207.1637 125.0327
" />
<path d="M207.1637 125.0327
L207.2061 124.8633
" />
<path d="M207.2061 124.8633
L207.2907 124.7787
" />
<path d="M207.2907 124.7787
L207.3754 124.7363
" />
<path d="M208.0951 125.5830
L208.2221 125.6253
" />
<path d="M208.2221 125.6253
L208.4337 125.6253
" />
<path d="M208.4337 125.6253
L208.5184 125.5830
" />
<path d="M208.5184 125.5830
L208.5607 125.5407
" />
<path d="M208.5607 125.5407
L208.6031 125.4560
" />
<path d="M208.6031 125.4560
L208.6031 125.3713
" />
<path d="M208.6031 125.3713
L208.5607 125.2867
" />
<path d="M208.5607 125.2867
L208.5184 125.2443
" />
<path d="M208.5184 125.2443
L208.4337 125.2020
" />
<path d="M208.4337 125.2020
L208.2644 125.1597
" />
<path d="M208.2644 125.1597
L208.1797 125.1173
" />
<path d="M208.1797 125.1173
L208.1374 125.0750
" />
<path d="M208.1374 125.0750
L208.0951 124.9903
" />
<path d="M208.0951 124.9903
L208.0951 124.9057
" />
<path d="M208.0951 124.9057
L208.1374 124.8210
" />
<path d="M208.1374 124.8210
L208.1797 124.7787
" />
<path d="M208.1797 124.7787
L208.2644 124.7363
" />
<path d="M208.2644 124.7363
L208.4761 124.7363
" />
<path d="M208.4761 124.7363
L208.6031 124.7787
" />
<path d="M208.9841 125.6253
L208.9841 124.7363
" />
</g><g transform="rotate(90.000000 201.3800 117.7798)">
<text x="201.3800" y="118.2243"
textLength="2.9464" font-size="1.1853" lengthAdjust="spacingAndGlyphs"
text-anchor="middle" opacity="0" stroke-opacity="0">MAG</text>
</g>
<g class="stroked-text"><desc>MAG</desc>
<path d="M200.9767 116.6580
L201.8657 116.6580
" />
<path d="M201.8657 116.6580
L201.2307 116.9543
" />
<path d="M201.2307 116.9543
L201.8657 117.2506
" />
<path d="M201.8657 117.2506
L200.9767 117.2506
" />
<path d="M201.2307 117.6316
L201.2307 118.0550
" />
<path d="M200.9767 117.5470
L201.8657 117.8433
" />
<path d="M201.8657 117.8433
L200.9767 118.1396
" />
<path d="M201.8234 118.9016
L201.8657 118.8170
" />
<path d="M201.8657 118.8170
L201.8657 118.6900
" />
<path d="M201.8657 118.6900
L201.8234 118.5630
" />
<path d="M201.8234 118.5630
L201.7387 118.4783
" />
<path d="M201.7387 118.4783
L201.6540 118.4360
" />
<path d="M201.6540 118.4360
L201.4847 118.3936
" />
<path d="M201.4847 118.3936
L201.3577 118.3936
" />
<path d="M201.3577 118.3936
L201.1884 118.4360
" />
<path d="M201.1884 118.4360
L201.1037 118.4783
" />
<path d="M201.1037 118.4783
L201.0190 118.5630
" />
<path d="M201.0190 118.5630
L200.9767 118.6900
" />
<path d="M200.9767 118.6900
L200.9767 118.7746
" />
<path d="M200.9767 118.7746
L201.0190 118.9016
" />
<path d="M201.0190 118.9016
L201.0614 118.9440
" />
<path d="M201.0614 118.9440
L201.3577 118.9440
" />
<path d="M201.3577 118.9440
L201.3577 118.7746
" />
</g><g transform="rotate(90.000000 199.9488 117.7798)">
<text x="199.9488" y="118.2243"
textLength="6.4177" font-size="1.1853" lengthAdjust="spacingAndGlyphs"
text-anchor="middle" opacity="0" stroke-opacity="0">ENCODER</text>
</g>
<g class="stroked-text"><desc>ENCODER</desc>
<path d="M200.0111 114.9223
L200.0111 115.2186
" />
<path d="M199.5455 115.3456
L199.5455 114.9223
" />
<path d="M199.5455 114.9223
L200.4345 114.9223
" />
<path d="M200.4345 114.9223
L200.4345 115.3456
" />
<path d="M199.5455 115.7266
L200.4345 115.7266
" />
<path d="M200.4345 115.7266
L199.5455 116.2346
" />
<path d="M199.5455 116.2346
L200.4345 116.2346
" />
<path d="M199.6301 117.1660
L199.5878 117.1236
" />
<path d="M199.5878 117.1236
L199.5455 116.9966
" />
<path d="M199.5455 116.9966
L199.5455 116.9120
" />
<path d="M199.5455 116.9120
L199.5878 116.7850
" />
<path d="M199.5878 116.7850
L199.6725 116.7003
" />
<path d="M199.6725 116.7003
L199.7571 116.6580
" />
<path d="M199.7571 116.6580
L199.9265 116.6156
" />
<path d="M199.9265 116.6156
L200.0535 116.6156
" />
<path d="M200.0535 116.6156
L200.2228 116.6580
" />
<path d="M200.2228 116.6580
L200.3075 116.7003
" />
<path d="M200.3075 116.7003
L200.3921 116.7850
" />
<path d="M200.3921 116.7850
L200.4345 116.9120
" />
<path d="M200.4345 116.9120
L200.4345 116.9966
" />
<path d="M200.4345 116.9966
L200.3921 117.1236
" />
<path d="M200.3921 117.1236
L200.3498 117.1660
" />
<path d="M200.4345 117.7163
L200.4345 117.8856
" />
<path d="M200.4345 117.8856
L200.3921 117.9703
" />
<path d="M200.3921 117.9703
L200.3075 118.0550
" />
<path d="M200.3075 118.0550
L200.1381 118.0973
" />
<path d="M200.1381 118.0973
L199.8418 118.0973
" />
<path d="M199.8418 118.0973
L199.6725 118.0550
" />
<path d="M199.6725 118.0550
L199.5878 117.9703
" />
<path d="M199.5878 117.9703
L199.5455 117.8856
" />
<path d="M199.5455 117.8856
L199.5455 117.7163
" />
<path d="M199.5455 117.7163
L199.5878 117.6316
" />
<path d="M199.5878 117.6316
L199.6725 117.5470
" />
<path d="M199.6725 117.5470
L199.8418 117.5046
" />
<path d="M199.8418 117.5046
L200.1381 117.5046
" />
<path d="M200.1381 117.5046
L200.3075 117.5470
" />
<path d="M200.3075 117.5470
L200.3921 117.6316
" />
<path d="M200.3921 117.6316
L200.4345 117.7163
" />
<path d="M199.5455 118.4783
L200.4345 118.4783
" />
<path d="M200.4345 118.4783
L200.4345 118.6900
" />
<path d="M200.4345 118.6900
L200.3921 118.8170
" />
<path d="M200.3921 118.8170
L200.3075 118.9016
" />
<path d="M200.3075 118.9016
L200.2228 118.9440
" />
<path d="M200.2228 118.9440
L200.0535 118.9863
" />
<path d="M200.0535 118.9863
L199.9265 118.9863
" />
<path d="M199.9265 118.9863
L199.7571 118.9440
" />
<path d="M199.7571 118.9440
L199.6725 118.9016
" />
<path d="M199.6725 118.9016
L199.5878 118.8170
" />
<path d="M199.5878 118.8170
L199.5455 118.6900
" />
<path d="M199.5455 118.6900
L199.5455 118.4783
" />
<path d="M200.0111 119.3673
L200.0111 119.6636
" />
<path d="M199.5455 119.7906
L199.5455 119.3673
" />
<path d="M199.5455 119.3673
L200.4345 119.3673
" />
<path d="M200.4345 119.3673
L200.4345 119.7906
" />
<path d="M199.5455 120.6796
L199.9688 120.3833
" />
<path d="M199.5455 120.1716
L200.4345 120.1716
" />
<path d="M200.4345 120.1716
L200.4345 120.5103
" />
<path d="M200.4345 120.5103
L200.3921 120.5950
" />
<path d="M200.3921 120.5950
L200.3498 120.6373
" />
<path d="M200.3498 120.6373
L200.2651 120.6796
" />
<path d="M200.2651 120.6796
L200.1381 120.6796
" />
<path d="M200.1381 120.6796
L200.0535 120.6373
" />
<path d="M200.0535 120.6373
L200.0111 120.5950
" />
<path d="M200.0111 120.5950
L199.9688 120.5103
" />
<path d="M199.9688 120.5103
L199.9688 120.1716
" />
</g><g transform="rotate(90.000000 198.5176 117.7798)">
<text x="198.5176" y="118.2243"
textLength="1.8881" font-size="1.1853" lengthAdjust="spacingAndGlyphs"
text-anchor="middle" opacity="0" stroke-opacity="0">V3</text>
</g>
<g class="stroked-text"><desc>V3</desc>
<path d="M199.0032 117.0601
L198.1142 117.3565
" />
<path d="M198.1142 117.3565
L199.0032 117.6528
" />
<path d="M199.0032 117.8645
L199.0032 118.4148
" />
<path d="M199.0032 118.4148
L198.6645 118.1185
" />
<path d="M198.6645 118.1185
L198.6645 118.2455
" />
<path d="M198.6645 118.2455
L198.6222 118.3301
" />
<path d="M198.6222 118.3301
L198.5799 118.3725
" />
<path d="M198.5799 118.3725
L198.4952 118.4148
" />
<path d="M198.4952 118.4148
L198.2835 118.4148
" />
<path d="M198.2835 118.4148
L198.1989 118.3725
" />
<path d="M198.1989 118.3725
L198.1565 118.3301
" />
<path d="M198.1565 118.3301
L198.1142 118.2455
" />
<path d="M198.1142 118.2455
L198.1142 117.9915
" />
<path d="M198.1142 117.9915
L198.1565 117.9068
" />
<path d="M198.1565 117.9068
L198.1989 117.8645
" />
</g><text x="209.2960" y="130.3655"
textLength="3.6237" font-size="1.1853" lengthAdjust="spacingAndGlyphs"
text-anchor="end" opacity="0" stroke-opacity="0">SCLK</text>
<g class="stroked-text"><desc>SCLK</desc>
<path d="M206.0207 130.2820
L206.1477 130.3243
" />
<path d="M206.1477 130.3243
L206.3594 130.3243
" />
<path d="M206.3594 130.3243
L206.4441 130.2820
" />
<path d="M206.4441 130.2820
L206.4864 130.2397
" />
<path d="M206.4864 130.2397
L206.5287 130.1550
" />
<path d="M206.5287 130.1550
L206.5287 130.0703
" />
<path d="M206.5287 130.0703
L206.4864 129.9857
" />
<path d="M206.4864 129.9857
L206.4441 129.9433
" />
<path d="M206.4441 129.9433
L206.3594 129.9010
" />
<path d="M206.3594 129.9010
L206.1901 129.8587
" />
<path d="M206.1901 129.8587
L206.1054 129.8163
" />
<path d="M206.1054 129.8163
L206.0631 129.7740
" />
<path d="M206.0631 129.7740
L206.0207 129.6893
" />
<path d="M206.0207 129.6893
L206.0207 129.6047
" />
<path d="M206.0207 129.6047
L206.0631 129.5200
" />
<path d="M206.0631 129.5200
L206.1054 129.4777
" />
<path d="M206.1054 129.4777
L206.1901 129.4353
" />
<path d="M206.1901 129.4353
L206.4017 129.4353
" />
<path d="M206.4017 129.4353
L206.5287 129.4777
" />
<path d="M207.4177 130.2397
L207.3754 130.2820
" />
<path d="M207.3754 130.2820
L207.2484 130.3243
" />
<path d="M207.2484 130.3243
L207.1637 130.3243
" />
<path d="M207.1637 130.3243
L207.0367 130.2820
" />
<path d="M207.0367 130.2820
L206.9521 130.1973
" />
<path d="M206.9521 130.1973
L206.9097 130.1127
" />
<path d="M206.9097 130.1127
L206.8674 129.9433
" />
<path d="M206.8674 129.9433
L206.8674 129.8163
" />
<path d="M206.8674 129.8163
L206.9097 129.6470
" />
<path d="M206.9097 129.6470
L206.9521 129.5623
" />
<path d="M206.9521 129.5623
L207.0367 129.4777
" />
<path d="M207.0367 129.4777
L207.1637 129.4353
" />
<path d="M207.1637 129.4353
L207.2484 129.4353
" />
<path d="M207.2484 129.4353
L207.3754 129.4777
" />
<path d="M207.3754 129.4777
L207.4177 129.5200
" />
<path d="M208.2221 130.3243
L207.7987 130.3243
" />
<path d="M207.7987 130.3243
L207.7987 129.4353
" />
<path d="M208.5184 130.3243
L208.5184 129.4353
" />
<path d="M209.0264 130.3243
L208.6454 129.8163
" />
<path d="M209.0264 129.4353
L208.5184 129.9433
" />
</g></g>
<g style="fill:none; 
stroke:#000000; stroke-width:0.1270; stroke-opacity:1; 
stroke-linecap:round; stroke-linejoin:round;">
<text x="205.4606" y="123.0503"
textLength="1.4938" font-size="0.8467" lengthAdjust="spacingAndGlyphs"
text-anchor="middle" opacity="0" stroke-opacity="0">R4</text>
<g class="stroked-text"><desc>R4</desc>
<path d="M205.3548 123.0200
L205.1431 122.7176
" />
<path d="M204.9919 123.0200
L204.9919 122.3850
" />
<path d="M204.9919 122.3850
L205.2338 122.3850
" />
<path d="M205.2338 122.3850
L205.2943 122.4152
" />
<path d="M205.2943 122.4152
L205.3245 122.4454
" />
<path d="M205.3245 122.4454
L205.3548 122.5059
" />
<path d="M205.3548 122.5059
L205.3548 122.5966
" />
<path d="M205.3548 122.5966
L205.3245 122.6571
" />
<path d="M205.3245 122.6571
L205.2943 122.6873
" />
<path d="M205.2943 122.6873
L205.2338 122.7176
" />
<path d="M205.2338 122.7176
L204.9919 122.7176
" />
<path d="M205.8991 122.5966
L205.8991 123.0200
" />
<path d="M205.7479 122.3547
L205.5967 122.8083
" />
<path d="M205.5967 122.8083
L205.9898 122.8083
" />
</g><g transform="rotate(90.000000 198.8300 123.5600)">
<text x="198.8300" y="123.8775"
textLength="1.4938" font-size="0.8467" lengthAdjust="spacingAndGlyphs"
text-anchor="middle" opacity="0" stroke-opacity="0">C3</text>
</g>
<g class="stroked-text"><desc>C3</desc>
<path d="M198.6033 123.4542
L198.5731 123.4239
" />
<path d="M198.5731 123.4239
L198.5428 123.3332
" />
<path d="M198.5428 123.3332
L198.5428 123.2727
" />
<path d="M198.5428 123.2727
L198.5731 123.1820
" />
<path d="M198.5731 123.1820
L198.6336 123.1215
" />
<path d="M198.6336 123.1215
L198.6940 123.0913
" />
<path d="M198.6940 123.0913
L198.8150 123.0611
" />
<path d="M198.8150 123.0611
L198.9057 123.0611
" />
<path d="M198.9057 123.0611
L199.0267 123.0913
" />
<path d="M199.0267 123.0913
L199.0871 123.1215
" />
<path d="M199.0871 123.1215
L199.1476 123.1820
" />
<path d="M199.1476 123.1820
L199.1778 123.2727
" />
<path d="M199.1778 123.2727
L199.1778 123.3332
" />
<path d="M199.1778 123.3332
L199.1476 123.4239
" />
<path d="M199.1476 123.4239
L199.1174 123.4542
" />
<path d="M199.1778 123.6658
L199.1778 124.0589
" />
<path d="M199.1778 124.0589
L198.9359 123.8473
" />
<path d="M198.9359 123.8473
L198.9359 123.9380
" />
<path d="M198.9359 123.9380
L198.9057 123.9985
" />
<path d="M198.9057 123.9985
L198.8755 124.0287
" />
<path d="M198.8755 124.0287
L198.8150 124.0589
" />
<path d="M198.8150 124.0589
L198.6638 124.0589
" />
<path d="M198.6638 124.0589
L198.6033 124.0287
" />
<path d="M198.6033 124.0287
L198.5731 123.9985
" />
<path d="M198.5731 123.9985
L198.5428 123.9380
" />
<path d="M198.5428 123.9380
L198.5428 123.7565
" />
<path d="M198.5428 123.7565
L198.5731 123.6961
" />
<path d="M198.5731 123.6961
L198.6033 123.6658
" />
</g><g transform="rotate(90.000000 201.8792 111.1758)">
<text x="201.8792" y="111.4933"
textLength="1.4938" font-size="0.8467" lengthAdjust="spacingAndGlyphs"
text-anchor="middle" opacity="0" stroke-opacity="0">C2</text>
</g>
<g class="stroked-text"><desc>C2</desc>
<path d="M201.6525 111.0700
L201.6223 111.0397
" />
<path d="M201.6223 111.0397
L201.5920 110.9490
" />
<path d="M201.5920 110.9490
L201.5920 110.8885
" />
<path d="M201.5920 110.8885
L201.6223 110.7978
" />
<path d="M201.6223 110.7978
L201.6828 110.7373
" />
<path d="M201.6828 110.7373
L201.7432 110.7071
" />
<path d="M201.7432 110.7071
L201.8642 110.6769
" />
<path d="M201.8642 110.6769
L201.9549 110.6769
" />
<path d="M201.9549 110.6769
L202.0759 110.7071
" />
<path d="M202.0759 110.7071
L202.1363 110.7373
" />
<path d="M202.1363 110.7373
L202.1968 110.7978
" />
<path d="M202.1968 110.7978
L202.2270 110.8885
" />
<path d="M202.2270 110.8885
L202.2270 110.9490
" />
<path d="M202.2270 110.9490
L202.1968 111.0397
" />
<path d="M202.1968 111.0397
L202.1666 111.0700
" />
<path d="M202.1666 111.3119
L202.1968 111.3421
" />
<path d="M202.1968 111.3421
L202.2270 111.4026
" />
<path d="M202.2270 111.4026
L202.2270 111.5538
" />
<path d="M202.2270 111.5538
L202.1968 111.6143
" />
<path d="M202.1968 111.6143
L202.1666 111.6445
" />
<path d="M202.1666 111.6445
L202.1061 111.6747
" />
<path d="M202.1061 111.6747
L202.0456 111.6747
" />
<path d="M202.0456 111.6747
L201.9549 111.6445
" />
<path d="M201.9549 111.6445
L201.5920 111.2816
" />
<path d="M201.5920 111.2816
L201.5920 111.6747
" />
</g><g transform="rotate(90.000000 199.3392 127.5842)">
<text x="199.3392" y="127.9017"
textLength="1.4938" font-size="0.8467" lengthAdjust="spacingAndGlyphs"
text-anchor="middle" opacity="0" stroke-opacity="0">R6</text>
</g>
<g class="stroked-text"><desc>R6</desc>
<path d="M199.0520 127.4784
L199.3544 127.2667
" />
<path d="M199.0520 127.1155
L199.6870 127.1155
" />
<path d="M199.6870 127.1155
L199.6870 127.3574
" />
<path d="M199.6870 127.3574
L199.6568 127.4179
" />
<path d="M199.6568 127.4179
L199.6266 127.4481
" />
<path d="M199.6266 127.4481
L199.5661 127.4784
" />
<path d="M199.5661 127.4784
L199.4754 127.4784
" />
<path d="M199.4754 127.4784
L199.4149 127.4481
" />
<path d="M199.4149 127.4481
L199.3847 127.4179
" />
<path d="M199.3847 127.4179
L199.3544 127.3574
" />
<path d="M199.3544 127.3574
L199.3544 127.1155
" />
<path d="M199.6870 128.0227
L199.6870 127.9017
" />
<path d="M199.6870 127.9017
L199.6568 127.8412
" />
<path d="M199.6568 127.8412
L199.6266 127.8110
" />
<path d="M199.6266 127.8110
L199.5359 127.7505
" />
<path d="M199.5359 127.7505
L199.4149 127.7203
" />
<path d="M199.4149 127.7203
L199.1730 127.7203
" />
<path d="M199.1730 127.7203
L199.1125 127.7505
" />
<path d="M199.1125 127.7505
L199.0823 127.7807
" />
<path d="M199.0823 127.7807
L199.0520 127.8412
" />
<path d="M199.0520 127.8412
L199.0520 127.9622
" />
<path d="M199.0520 127.9622
L199.0823 128.0227
" />
<path d="M199.0823 128.0227
L199.1125 128.0529
" />
<path d="M199.1125 128.0529
L199.1730 128.0831
" />
<path d="M199.1730 128.0831
L199.3242 128.0831
" />
<path d="M199.3242 128.0831
L199.3847 128.0529
" />
<path d="M199.3847 128.0529
L199.4149 128.0227
" />
<path d="M199.4149 128.0227
L199.4451 127.9622
" />
<path d="M199.4451 127.9622
L199.4451 127.8412
" />
<path d="M199.4451 127.8412
L199.4149 127.7807
" />
<path d="M199.4149 127.7807
L199.3847 127.7505
" />
<path d="M199.3847 127.7505
L199.3242 127.7203
" />
</g><g transform="rotate(90.000000 195.8594 134.1374)">
<text x="195.8594" y="134.4549"
textLength="1.4938" font-size="0.8467" lengthAdjust="spacingAndGlyphs"
text-anchor="middle" opacity="0" stroke-opacity="0">R7</text>
</g>
<g class="stroked-text"><desc>R7</desc>
<path d="M195.5722 134.0316
L195.8746 133.8199
" />
<path d="M195.5722 133.6687
L196.2072 133.6687
" />
<path d="M196.2072 133.6687
L196.2072 133.9106
" />
<path d="M196.2072 133.9106
L196.1770 133.9711
" />
<path d="M196.1770 133.9711
L196.1468 134.0013
" />
<path d="M196.1468 134.0013
L196.0863 134.0316
" />
<path d="M196.0863 134.0316
L195.9956 134.0316
" />
<path d="M195.9956 134.0316
L195.9351 134.0013
" />
<path d="M195.9351 134.0013
L195.9049 133.9711
" />
<path d="M195.9049 133.9711
L195.8746 133.9106
" />
<path d="M195.8746 133.9106
L195.8746 133.6687
" />
<path d="M196.2072 134.2432
L196.2072 134.6666
" />
<path d="M196.2072 134.6666
L195.5722 134.3944
" />
</g><g transform="rotate(90.000000 195.6400 121.4000)">
<text x="195.6400" y="121.7175"
textLength="1.4938" font-size="0.8467" lengthAdjust="spacingAndGlyphs"
text-anchor="middle" opacity="0" stroke-opacity="0">R2</text>
</g>
<g class="stroked-text"><desc>R2</desc>
<path d="M195.3528 121.2942
L195.6552 121.0825
" />
<path d="M195.3528 120.9313
L195.9878 120.9313
" />
<path d="M195.9878 120.9313
L195.9878 121.1732
" />
<path d="M195.9878 121.1732
L195.9576 121.2337
" />
<path d="M195.9576 121.2337
L195.9274 121.2639
" />
<path d="M195.9274 121.2639
L195.8669 121.2942
" />
<path d="M195.8669 121.2942
L195.7762 121.2942
" />
<path d="M195.7762 121.2942
L195.7157 121.2639
" />
<path d="M195.7157 121.2639
L195.6855 121.2337
" />
<path d="M195.6855 121.2337
L195.6552 121.1732
" />
<path d="M195.6552 121.1732
L195.6552 120.9313
" />
<path d="M195.9274 121.5361
L195.9576 121.5663
" />
<path d="M195.9576 121.5663
L195.9878 121.6268
" />
<path d="M195.9878 121.6268
L195.9878 121.7780
" />
<path d="M195.9878 121.7780
L195.9576 121.8385
" />
<path d="M195.9576 121.8385
L195.9274 121.8687
" />
<path d="M195.9274 121.8687
L195.8669 121.8989
" />
<path d="M195.8669 121.8989
L195.8064 121.8989
" />
<path d="M195.8064 121.8989
L195.7157 121.8687
" />
<path d="M195.7157 121.8687
L195.3528 121.5058
" />
<path d="M195.3528 121.5058
L195.3528 121.8989
" />
</g><g transform="rotate(90.000000 196.6700 121.4000)">
<text x="196.6700" y="121.7175"
textLength="1.4938" font-size="0.8467" lengthAdjust="spacingAndGlyphs"
text-anchor="middle" opacity="0" stroke-opacity="0">R3</text>
</g>
<g class="stroked-text"><desc>R3</desc>
<path d="M196.3828 121.2942
L196.6852 121.0825
" />
<path d="M196.3828 120.9313
L197.0178 120.9313
" />
<path d="M197.0178 120.9313
L197.0178 121.1732
" />
<path d="M197.0178 121.1732
L196.9876 121.2337
" />
<path d="M196.9876 121.2337
L196.9574 121.2639
" />
<path d="M196.9574 121.2639
L196.8969 121.2942
" />
<path d="M196.8969 121.2942
L196.8062 121.2942
" />
<path d="M196.8062 121.2942
L196.7457 121.2639
" />
<path d="M196.7457 121.2639
L196.7155 121.2337
" />
<path d="M196.7155 121.2337
L196.6852 121.1732
" />
<path d="M196.6852 121.1732
L196.6852 120.9313
" />
<path d="M197.0178 121.5058
L197.0178 121.8989
" />
<path d="M197.0178 121.8989
L196.7759 121.6873
" />
<path d="M196.7759 121.6873
L196.7759 121.7780
" />
<path d="M196.7759 121.7780
L196.7457 121.8385
" />
<path d="M196.7457 121.8385
L196.7155 121.8687
" />
<path d="M196.7155 121.8687
L196.6550 121.8989
" />
<path d="M196.6550 121.8989
L196.5038 121.8989
" />
<path d="M196.5038 121.8989
L196.4433 121.8687
" />
<path d="M196.4433 121.8687
L196.4131 121.8385
" />
<path d="M196.4131 121.8385
L196.3828 121.7780
" />
<path d="M196.3828 121.7780
L196.3828 121.5965
" />
<path d="M196.3828 121.5965
L196.4131 121.5361
" />
<path d="M196.4131 121.5361
L196.4433 121.5058
" />
</g><g transform="rotate(90.000000 198.6534 113.0300)">
<text x="198.6534" y="113.3475"
textLength="1.4938" font-size="0.8467" lengthAdjust="spacingAndGlyphs"
text-anchor="middle" opacity="0" stroke-opacity="0">C1</text>
</g>
<g class="stroked-text"><desc>C1</desc>
<path d="M198.4267 112.9242
L198.3965 112.8939
" />
<path d="M198.3965 112.8939
L198.3662 112.8032
" />
<path d="M198.3662 112.8032
L198.3662 112.7427
" />
<path d="M198.3662 112.7427
L198.3965 112.6520
" />
<path d="M198.3965 112.6520
L198.4570 112.5915
" />
<path d="M198.4570 112.5915
L198.5174 112.5613
" />
<path d="M198.5174 112.5613
L198.6384 112.5311
" />
<path d="M198.6384 112.5311
L198.7291 112.5311
" />
<path d="M198.7291 112.5311
L198.8501 112.5613
" />
<path d="M198.8501 112.5613
L198.9105 112.5915
" />
<path d="M198.9105 112.5915
L198.9710 112.6520
" />
<path d="M198.9710 112.6520
L199.0012 112.7427
" />
<path d="M199.0012 112.7427
L199.0012 112.8032
" />
<path d="M199.0012 112.8032
L198.9710 112.8939
" />
<path d="M198.9710 112.8939
L198.9408 112.9242
" />
<path d="M198.3662 113.5289
L198.3662 113.1661
" />
<path d="M198.3662 113.3475
L199.0012 113.3475
" />
<path d="M199.0012 113.3475
L198.9105 113.2870
" />
<path d="M198.9105 113.2870
L198.8501 113.2265
" />
<path d="M198.8501 113.2265
L198.8198 113.1661
" />
</g><text x="203.1746" y="121.5517"
textLength="1.5240" font-size="0.8467" lengthAdjust="spacingAndGlyphs"
text-anchor="middle" opacity="0" stroke-opacity="0">U2</text>
<g class="stroked-text"><desc>U2</desc>
<path d="M202.6908 120.8864
L202.6908 121.4004
" />
<path d="M202.6908 121.4004
L202.7210 121.4609
" />
<path d="M202.7210 121.4609
L202.7513 121.4911
" />
<path d="M202.7513 121.4911
L202.8117 121.5214
" />
<path d="M202.8117 121.5214
L202.9327 121.5214
" />
<path d="M202.9327 121.5214
L202.9932 121.4911
" />
<path d="M202.9932 121.4911
L203.0234 121.4609
" />
<path d="M203.0234 121.4609
L203.0536 121.4004
" />
<path d="M203.0536 121.4004
L203.0536 120.8864
" />
<path d="M203.3258 120.9468
L203.3560 120.9166
" />
<path d="M203.3560 120.9166
L203.4165 120.8864
" />
<path d="M203.4165 120.8864
L203.5677 120.8864
" />
<path d="M203.5677 120.8864
L203.6282 120.9166
" />
<path d="M203.6282 120.9166
L203.6584 120.9468
" />
<path d="M203.6584 120.9468
L203.6886 121.0073
" />
<path d="M203.6886 121.0073
L203.6886 121.0678
" />
<path d="M203.6886 121.0678
L203.6584 121.1585
" />
<path d="M203.6584 121.1585
L203.2956 121.5214
" />
<path d="M203.2956 121.5214
L203.6886 121.5214
" />
</g><g transform="rotate(90.000000 197.9168 127.5842)">
<text x="197.9168" y="127.9017"
textLength="1.4938" font-size="0.8467" lengthAdjust="spacingAndGlyphs"
text-anchor="middle" opacity="0" stroke-opacity="0">R5</text>
</g>
<g class="stroked-text"><desc>R5</desc>
<path d="M197.6296 127.4784
L197.9320 127.2667
" />
<path d="M197.6296 127.1155
L198.2646 127.1155
" />
<path d="M198.2646 127.1155
L198.2646 127.3574
" />
<path d="M198.2646 127.3574
L198.2344 127.4179
" />
<path d="M198.2344 127.4179
L198.2042 127.4481
" />
<path d="M198.2042 127.4481
L198.1437 127.4784
" />
<path d="M198.1437 127.4784
L198.0530 127.4784
" />
<path d="M198.0530 127.4784
L197.9925 127.4481
" />
<path d="M197.9925 127.4481
L197.9623 127.4179
" />
<path d="M197.9623 127.4179
L197.9320 127.3574
" />
<path d="M197.9320 127.3574
L197.9320 127.1155
" />
<path d="M198.2646 128.0529
L198.2646 127.7505
" />
<path d="M198.2646 127.7505
L197.9623 127.7203
" />
<path d="M197.9623 127.7203
L197.9925 127.7505
" />
<path d="M197.9925 127.7505
L198.0227 127.8110
" />
<path d="M198.0227 127.8110
L198.0227 127.9622
" />
<path d="M198.0227 127.9622
L197.9925 128.0227
" />
<path d="M197.9925 128.0227
L197.9623 128.0529
" />
<path d="M197.9623 128.0529
L197.9018 128.0831
" />
<path d="M197.9018 128.0831
L197.7506 128.0831
" />
<path d="M197.7506 128.0831
L197.6901 128.0529
" />
<path d="M197.6901 128.0529
L197.6599 128.0227
" />
<path d="M197.6599 128.0227
L197.6296 127.9622
" />
<path d="M197.6296 127.9622
L197.6296 127.8110
" />
<path d="M197.6296 127.8110
L197.6599 127.7505
" />
<path d="M197.6599 127.7505
L197.6901 127.7203
" />
</g><g transform="rotate(90.000000 203.9366 113.0300)">
<text x="203.9366" y="113.3475"
textLength="1.4938" font-size="0.8467" lengthAdjust="spacingAndGlyphs"
text-anchor="middle" opacity="0" stroke-opacity="0">R1</text>
</g>
<g class="stroked-text"><desc>R1</desc>
<path d="M203.6494 112.9242
L203.9518 112.7125
" />
<path d="M203.6494 112.5613
L204.2844 112.5613
" />
<path d="M204.2844 112.5613
L204.2844 112.8032
" />
<path d="M204.2844 112.8032
L204.2542 112.8637
" />
<path d="M204.2542 112.8637
L204.2240 112.8939
" />
<path d="M204.2240 112.8939
L204.1635 112.9242
" />
<path d="M204.1635 112.9242
L204.0728 112.9242
" />
<path d="M204.0728 112.9242
L204.0123 112.8939
" />
<path d="M204.0123 112.8939
L203.9821 112.8637
" />
<path d="M203.9821 112.8637
L203.9518 112.8032
" />
<path d="M203.9518 112.8032
L203.9518 112.5613
" />
<path d="M203.6494 113.5289
L203.6494 113.1661
" />
<path d="M203.6494 113.3475
L204.2844 113.3475
" />
<path d="M204.2844 113.3475
L204.1937 113.2870
" />
<path d="M204.1937 113.2870
L204.1333 113.2265
" />
<path d="M204.1333 113.2265
L204.1030 113.1661
" />
</g></g>
<g style="fill:none; 
stroke:#000000; stroke-width:0.1200; stroke-opacity:1; 
stroke-linecap:round; stroke-linejoin:round;">
<path d="M205.6725 123.3025
L205.1979 123.3025
" />
<path d="M205.6725 124.3475
L205.1979 124.3475
" />
<path d="M198.3252 123.4304
L198.3252 123.7116
" />
<path d="M197.3052 123.4304
L197.3052 123.7116
" />
<path d="M201.8050 113.1706
L201.8050 112.8894
" />
<path d="M200.7850 113.1706
L200.7850 112.8894
" />
<path d="M199.8617 129.9043
L199.8617 129.4297
" />
<path d="M198.8167 129.9043
L198.8167 129.4297
" />
<path d="M197.6265 133.8747
L197.6265 134.3493
" />
<path d="M196.5815 133.8747
L196.5815 134.3493
" />
<path d="M195.2897 123.8083
L195.2897 123.3337
" />
<path d="M194.2447 123.8083
L194.2447 123.3337
" />
<path d="M196.8137 123.8083
L196.8137 123.3337
" />
<path d="M195.7687 123.8083
L195.7687 123.3337
" />
<path d="M200.2810 113.1706
L200.2810 112.8894
" />
<path d="M199.2610 113.1706
L199.2610 112.8894
" />
<path d="M202.8542 121.9610
L202.3792 121.9610
" />
<path d="M202.8542 122.4360
L202.8542 121.9610
" />
<path d="M202.8542 124.9410
L202.8542 124.7060
" />
<path d="M202.5542 125.1810
L202.3792 125.1810
" />
<path d="M199.6342 121.9610
L200.1092 121.9610
" />
<path d="M199.6342 122.4360
L199.6342 121.9610
" />
<path d="M199.6342 124.7060
L199.6342 125.1810
" />
<path d="M199.6342 125.1810
L200.1092 125.1810
" />
<path style="fill:#000000; fill-opacity:1.0000; 
stroke:#000000; stroke-width:0.1200; stroke-opacity:1; 
stroke-linecap:round; stroke-linejoin:round;fill-rule:evenodd;"
d="M 202.6142,125.5110
203.0942,125.5110
202.8542,125.1810
Z" /> 
</g>
<g style="fill:none; 
stroke:#000000; stroke-width:0.1200; stroke-opacity:1; 
stroke-linecap:round; stroke-linejoin:round;">
<path d="M198.3377 129.9043
L198.3377 129.4297
" />
<path d="M197.2927 129.9043
L197.2927 129.4297
" />
<path d="M203.3415 113.2673
L203.3415 112.7927
" />
<path d="M202.2965 113.2673
L202.2965 112.7927
" />
</g>
<g style="fill:#000000; fill-opacity:1.0000; stroke:none;">
<circle cx="206.9592" cy="114.0460" r="1.9050" /> 
</g>
<g style="fill:#000000; fill-opacity:1.0000; stroke:none;">
<circle cx="194.6222" cy="130.0510" r="1.7000" /> 
</g>
<g style="fill:#000000; fill-opacity:1.0000; stroke:none;">
<circle cx="194.6222" cy="117.0910" r="1.7000" /> 
<path style="fill:#000000; fill-opacity:1.0000; stroke:none;fill-rule:evenodd;"
d="M 211.2382,118.0710
211.2382,116.3710
209.5382,116.3710
209.5382,118.0710
Z" /> 
</g>
<g style="fill:#000000; fill-opacity:1.0000; stroke:none;">
<circle cx="210.3882" cy="119.7610" r="0.8500" /> 
<circle cx="210.3882" cy="122.3010" r="0.8500" /> 
<circle cx="210.3882" cy="124.8410" r="0.8500" /> 
<circle cx="210.3882" cy="127.3810" r="0.8500" /> 
<circle cx="210.3882" cy="129.9210" r="0.8500" /> 
<circle cx="206.9592" cy="133.0960" r="1.9050" /> 
<path style="fill:#000000; fill-opacity:1.0000; stroke:none;fill-rule:evenodd;"
d="M 204.2102,124.1000
204.2254,124.1765
204.2688,124.2414
204.3337,124.2848
204.4102,124.3000
204.8102,124.3000
204.8867,124.2848
204.9516,124.2414
204.9950,124.1765
205.0102,124.1000
205.0102,123.5500
204.9950,123.4735
204.9516,123.4086
204.8867,123.3652
204.8102,123.3500
204.4102,123.3500
204.3337,123.3652
204.2688,123.4086
204.2254,123.4735
204.2102,123.5500
Z" /> 
<path style="fill:#000000; fill-opacity:1.0000; stroke:none;fill-rule:evenodd;"
d="M 205.8602,124.1000
205.8754,124.1765
205.9188,124.2414
205.9837,124.2848
206.0602,124.3000
206.4602,124.3000
206.5367,124.2848
206.6016,124.2414
206.6450,124.1765
206.6602,124.1000
206.6602,123.5500
206.6450,123.4735
206.6016,123.4086
206.5367,123.3652
206.4602,123.3500
206.0602,123.3500
205.9837,123.3652
205.9188,123.4086
205.8754,123.4735
205.8602,123.5500
Z" /> 
<path style="fill:#000000; fill-opacity:1.0000; stroke:none;fill-rule:evenodd;"
d="M 198.0652,124.7960
198.1513,124.7789
198.2243,124.7301
198.2731,124.6571
198.2902,124.5710
198.2902,124.1210
198.2731,124.0349
198.2243,123.9619
198.1513,123.9131
198.0652,123.8960
197.5652,123.8960
197.4791,123.9131
197.4061,123.9619
197.3573,124.0349
197.3402,124.1210
197.3402,124.5710
197.3573,124.6571
197.4061,124.7301
197.4791,124.7789
197.5652,124.7960
Z" /> 
<path style="fill:#000000; fill-opacity:1.0000; stroke:none;fill-rule:evenodd;"
d="M 198.0652,123.2460
198.1513,123.2289
198.2243,123.1801
198.2731,123.1071
198.2902,123.0210
198.2902,122.5710
198.2731,122.4849
198.2243,122.4119
198.1513,122.3631
198.0652,122.3460
197.5652,122.3460
197.4791,122.3631
197.4061,122.4119
197.3573,122.4849
197.3402,122.5710
197.3402,123.0210
197.3573,123.1071
197.4061,123.1801
197.4791,123.2289
197.5652,123.2460
Z" /> 
<path style="fill:#000000; fill-opacity:1.0000; stroke:none;fill-rule:evenodd;"
d="M 201.0450,111.8050
200.9589,111.8221
200.8859,111.8709
200.8371,111.9439
200.8200,112.0300
200.8200,112.4800
200.8371,112.5661
200.8859,112.6391
200.9589,112.6879
201.0450,112.7050
201.5450,112.7050
201.6311,112.6879
201.7041,112.6391
201.7529,112.5661
201.7700,112.4800
201.7700,112.0300
201.7529,111.9439
201.7041,111.8709
201.6311,111.8221
201.5450,111.8050
Z" /> 
<path style="fill:#000000; fill-opacity:1.0000; stroke:none;fill-rule:evenodd;"
d="M 201.0450,113.3550
200.9589,113.3721
200.8859,113.4209
200.8371,113.4939
200.8200,113.5800
200.8200,114.0300
200.8371,114.1161
200.8859,114.1891
200.9589,114.2379
201.0450,114.2550
201.5450,114.2550
201.6311,114.2379
201.7041,114.1891
201.7529,114.1161
201.7700,114.0300
201.7700,113.5800
201.7529,113.4939
201.7041,113.4209
201.6311,113.3721
201.5450,113.3550
Z" /> 
<path style="fill:#000000; fill-opacity:1.0000; stroke:none;fill-rule:evenodd;"
d="M 199.0642,128.4420
198.9877,128.4572
198.9228,128.5006
198.8794,128.5655
198.8642,128.6420
198.8642,129.0420
198.8794,129.1185
198.9228,129.1834
198.9877,129.2268
199.0642,129.2420
199.6142,129.2420
199.6907,129.2268
199.7556,129.1834
199.7990,129.1185
199.8142,129.0420
199.8142,128.6420
199.7990,128.5655
199.7556,128.5006
199.6907,128.4572
199.6142,128.4420
Z" /> 
<path style="fill:#000000; fill-opacity:1.0000; stroke:none;fill-rule:evenodd;"
d="M 199.0642,130.0920
198.9877,130.1072
198.9228,130.1506
198.8794,130.2155
198.8642,130.2920
198.8642,130.6920
198.8794,130.7685
198.9228,130.8334
198.9877,130.8768
199.0642,130.8920
199.6142,130.8920
199.6907,130.8768
199.7556,130.8334
199.7990,130.7685
199.8142,130.6920
199.8142,130.2920
199.7990,130.2155
199.7556,130.1506
199.6907,130.1072
199.6142,130.0920
Z" /> 
<path style="fill:#000000; fill-opacity:1.0000; stroke:none;fill-rule:evenodd;"
d="M 197.3790,135.3370
197.4555,135.3218
197.5204,135.2784
197.5638,135.2135
197.5790,135.1370
197.5790,134.7370
197.5638,134.6605
197.5204,134.5956
197.4555,134.5522
197.3790,134.5370
196.8290,134.5370
196.7525,134.5522
196.6876,134.5956
196.6442,134.6605
196.6290,134.7370
196.6290,135.1370
196.6442,135.2135
196.6876,135.2784
196.7525,135.3218
196.8290,135.3370
Z" /> 
<path style="fill:#000000; fill-opacity:1.0000; stroke:none;fill-rule:evenodd;"
d="M 197.3790,133.6870
197.4555,133.6718
197.5204,133.6284
197.5638,133.5635
197.5790,133.4870
197.5790,133.0870
197.5638,133.0105
197.5204,132.9456
197.4555,132.9022
197.3790,132.8870
196.8290,132.8870
196.7525,132.9022
196.6876,132.9456
196.6442,133.0105
196.6290,133.0870
196.6290,133.4870
196.6442,133.5635
196.6876,133.6284
196.7525,133.6718
196.8290,133.6870
Z" /> 
<path style="fill:#000000; fill-opacity:1.0000; stroke:none;fill-rule:evenodd;"
d="M 194.4922,122.3460
194.4157,122.3612
194.3508,122.4046
194.3074,122.4695
194.2922,122.5460
194.2922,122.9460
194.3074,123.0225
194.3508,123.0874
194.4157,123.1308
194.4922,123.1460
195.0422,123.1460
195.1187,123.1308
195.1836,123.0874
195.2270,123.0225
195.2422,122.9460
195.2422,122.5460
195.2270,122.4695
195.1836,122.4046
195.1187,122.3612
195.0422,122.3460
Z" /> 
<path style="fill:#000000; fill-opacity:1.0000; stroke:none;fill-rule:evenodd;"
d="M 194.4922,123.9960
194.4157,124.0112
194.3508,124.0546
194.3074,124.1195
194.2922,124.1960
194.2922,124.5960
194.3074,124.6725
194.3508,124.7374
194.4157,124.7808
194.4922,124.7960
195.0422,124.7960
195.1187,124.7808
195.1836,124.7374
195.2270,124.6725
195.2422,124.5960
195.2422,124.1960
195.2270,124.1195
195.1836,124.0546
195.1187,124.0112
195.0422,123.9960
Z" /> 
<path style="fill:#000000; fill-opacity:1.0000; stroke:none;fill-rule:evenodd;"
d="M 196.0162,122.3460
195.9397,122.3612
195.8748,122.4046
195.8314,122.4695
195.8162,122.5460
195.8162,122.9460
195.8314,123.0225
195.8748,123.0874
195.9397,123.1308
196.0162,123.1460
196.5662,123.1460
196.6427,123.1308
196.7076,123.0874
196.7510,123.0225
196.7662,122.9460
196.7662,122.5460
196.7510,122.4695
196.7076,122.4046
196.6427,122.3612
196.5662,122.3460
Z" /> 
<path style="fill:#000000; fill-opacity:1.0000; stroke:none;fill-rule:evenodd;"
d="M 196.0162,123.9960
195.9397,124.0112
195.8748,124.0546
195.8314,124.1195
195.8162,124.1960
195.8162,124.5960
195.8314,124.6725
195.8748,124.7374
195.9397,124.7808
196.0162,124.7960
196.5662,124.7960
196.6427,124.7808
196.7076,124.7374
196.7510,124.6725
196.7662,124.5960
196.7662,124.1960
196.7510,124.1195
196.7076,124.0546
196.6427,124.0112
196.5662,123.9960
Z" /> 
<path style="fill:#000000; fill-opacity:1.0000; stroke:none;fill-rule:evenodd;"
d="M 199.5210,111.8050
199.4349,111.8221
199.3619,111.8709
199.3131,111.9439
199.2960,112.0300
199.2960,112.4800
199.3131,112.5661
199.3619,112.6391
199.4349,112.6879
199.5210,112.7050
200.0210,112.7050
200.1071,112.6879
200.1801,112.6391
200.2289,112.5661
200.2460,112.4800
200.2460,112.0300
200.2289,111.9439
200.1801,111.8709
200.1071,111.8221
200.0210,111.8050
Z" /> 
<path style="fill:#000000; fill-opacity:1.0000; stroke:none;fill-rule:evenodd;"
d="M 199.5210,113.3550
199.4349,113.3721
199.3619,113.4209
199.3131,113.4939
199.2960,113.5800
199.2960,114.0300
199.3131,114.1161
199.3619,114.1891
199.4349,114.2379
199.5210,114.2550
200.0210,114.2550
200.1071,114.2379
200.1801,114.1891
200.2289,114.1161
200.2460,114.0300
200.2460,113.5800
200.2289,113.4939
200.1801,113.4209
200.1071,113.3721
200.0210,113.3550
Z" /> 
<path style="fill:#000000; fill-opacity:1.0000; stroke:none;fill-rule:evenodd;"
d="M 203.0442,124.2465
203.0394,124.2226
203.0259,124.2023
203.0056,124.1888
202.9817,124.1840
202.4067,124.1840
202.3828,124.1888
202.3625,124.2023
202.3490,124.2226
202.3442,124.2465
202.3442,124.3715
202.3490,124.3954
202.3625,124.4157
202.3828,124.4292
202.4067,124.4340
202.9817,124.4340
203.0056,124.4292
203.0259,124.4157
203.0394,124.3954
203.0442,124.3715
Z" /> 
<path style="fill:#000000; fill-opacity:1.0000; stroke:none;fill-rule:evenodd;"
d="M 203.0442,123.7465
203.0394,123.7226
203.0259,123.7023
203.0056,123.6888
202.9817,123.6840
202.4067,123.6840
202.3828,123.6888
202.3625,123.7023
202.3490,123.7226
202.3442,123.7465
202.3442,123.8715
202.3490,123.8954
202.3625,123.9157
202.3828,123.9292
202.4067,123.9340
202.9817,123.9340
203.0056,123.9292
203.0259,123.9157
203.0394,123.8954
203.0442,123.8715
Z" /> 
<path style="fill:#000000; fill-opacity:1.0000; stroke:none;fill-rule:evenodd;"
d="M 203.0442,123.2465
203.0394,123.2226
203.0259,123.2023
203.0056,123.1888
202.9817,123.1840
202.4067,123.1840
202.3828,123.1888
202.3625,123.2023
202.3490,123.2226
202.3442,123.2465
202.3442,123.3715
202.3490,123.3954
202.3625,123.4157
202.3828,123.4292
202.4067,123.4340
202.9817,123.4340
203.0056,123.4292
203.0259,123.4157
203.0394,123.3954
203.0442,123.3715
Z" /> 
<path style="fill:#000000; fill-opacity:1.0000; stroke:none;fill-rule:evenodd;"
d="M 203.0442,122.7465
203.0394,122.7226
203.0259,122.7023
203.0056,122.6888
202.9817,122.6840
202.4067,122.6840
202.3828,122.6888
202.3625,122.7023
202.3490,122.7226
202.3442,122.7465
202.3442,122.8715
202.3490,122.8954
202.3625,122.9157
202.3828,122.9292
202.4067,122.9340
202.9817,122.9340
203.0056,122.9292
203.0259,122.9157
203.0394,122.8954
203.0442,122.8715
Z" /> 
<path style="fill:#000000; fill-opacity:1.0000; stroke:none;fill-rule:evenodd;"
d="M 202.1192,121.8335
202.1144,121.8096
202.1009,121.7893
202.0806,121.7758
202.0567,121.7710
201.9317,121.7710
201.9078,121.7758
201.8875,121.7893
201.8740,121.8096
201.8692,121.8335
201.8692,122.4085
201.8740,122.4324
201.8875,122.4527
201.9078,122.4662
201.9317,122.4710
202.0567,122.4710
202.0806,122.4662
202.1009,122.4527
202.1144,122.4324
202.1192,122.4085
Z" /> 
<path style="fill:#000000; fill-opacity:1.0000; stroke:none;fill-rule:evenodd;"
d="M 201.6192,121.8335
201.6144,121.8096
201.6009,121.7893
201.5806,121.7758
201.5567,121.7710
201.4317,121.7710
201.4078,121.7758
201.3875,121.7893
201.3740,121.8096
201.3692,121.8335
201.3692,122.4085
201.3740,122.4324
201.3875,122.4527
201.4078,122.4662
201.4317,122.4710
201.5567,122.4710
201.5806,122.4662
201.6009,122.4527
201.6144,122.4324
201.6192,122.4085
Z" /> 
<path style="fill:#000000; fill-opacity:1.0000; stroke:none;fill-rule:evenodd;"
d="M 201.1192,121.8335
201.1144,121.8096
201.1009,121.7893
201.0806,121.7758
201.0567,121.7710
200.9317,121.7710
200.9078,121.7758
200.8875,121.7893
200.8740,121.8096
200.8692,121.8335
200.8692,122.4085
200.8740,122.4324
200.8875,122.4527
200.9078,122.4662
200.9317,122.4710
201.0567,122.4710
201.0806,122.4662
201.1009,122.4527
201.1144,122.4324
201.1192,122.4085
Z" /> 
<path style="fill:#000000; fill-opacity:1.0000; stroke:none;fill-rule:evenodd;"
d="M 200.6192,121.8335
200.6144,121.8096
200.6009,121.7893
200.5806,121.7758
200.5567,121.7710
200.4317,121.7710
200.4078,121.7758
200.3875,121.7893
200.3740,121.8096
200.3692,121.8335
200.3692,122.4085
200.3740,122.4324
200.3875,122.4527
200.4078,122.4662
200.4317,122.4710
200.5567,122.4710
200.5806,122.4662
200.6009,122.4527
200.6144,122.4324
200.6192,122.4085
Z" /> 
<path style="fill:#000000; fill-opacity:1.0000; stroke:none;fill-rule:evenodd;"
d="M 200.1442,122.7585
200.1394,122.7346
200.1259,122.7143
200.1056,122.7008
200.0817,122.6960
199.5067,122.6960
199.4828,122.7008
199.4625,122.7143
199.4490,122.7346
199.4442,122.7585
199.4442,122.8835
199.4490,122.9074
199.4625,122.9277
199.4828,122.9412
199.5067,122.9460
200.0817,122.9460
200.1056,122.9412
200.1259,122.9277
200.1394,122.9074
200.1442,122.8835
Z" /> 
<path style="fill:#000000; fill-opacity:1.0000; stroke:none;fill-rule:evenodd;"
d="M 200.1442,123.2585
200.1394,123.2346
200.1259,123.2143
200.1056,123.2008
200.0817,123.1960
199.5067,123.1960
199.4828,123.2008
199.4625,123.2143
199.4490,123.2346
199.4442,123.2585
199.4442,123.3835
199.4490,123.4074
199.4625,123.4277
199.4828,123.4412
199.5067,123.4460
200.0817,123.4460
200.1056,123.4412
200.1259,123.4277
200.1394,123.4074
200.1442,123.3835
Z" /> 
<path style="fill:#000000; fill-opacity:1.0000; stroke:none;fill-rule:evenodd;"
d="M 200.1442,123.7585
200.1394,123.7346
200.1259,123.7143
200.1056,123.7008
200.0817,123.6960
199.5067,123.6960
199.4828,123.7008
199.4625,123.7143
199.4490,123.7346
199.4442,123.7585
199.4442,123.8835
199.4490,123.9074
199.4625,123.9277
199.4828,123.9412
199.5067,123.9460
200.0817,123.9460
200.1056,123.9412
200.1259,123.9277
200.1394,123.9074
200.1442,123.8835
Z" /> 
<path style="fill:#000000; fill-opacity:1.0000; stroke:none;fill-rule:evenodd;"
d="M 200.1442,124.2585
200.1394,124.2346
200.1259,124.2143
200.1056,124.2008
200.0817,124.1960
199.5067,124.1960
199.4828,124.2008
199.4625,124.2143
199.4490,124.2346
199.4442,124.2585
199.4442,124.3835
199.4490,124.4074
199.4625,124.4277
199.4828,124.4412
199.5067,124.4460
200.0817,124.4460
200.1056,124.4412
200.1259,124.4277
200.1394,124.4074
200.1442,124.3835
Z" /> 
<path style="fill:#000000; fill-opacity:1.0000; stroke:none;fill-rule:evenodd;"
d="M 200.6192,124.7335
200.6144,124.7096
200.6009,124.6893
200.5806,124.6758
200.5567,124.6710
200.4317,124.6710
200.4078,124.6758
200.3875,124.6893
200.3740,124.7096
200.3692,124.7335
200.3692,125.3085
200.3740,125.3324
200.3875,125.3527
200.4078,125.3662
200.4317,125.3710
200.5567,125.3710
200.5806,125.3662
200.6009,125.3527
200.6144,125.3324
200.6192,125.3085
Z" /> 
<path style="fill:#000000; fill-opacity:1.0000; stroke:none;fill-rule:evenodd;"
d="M 201.1192,124.7335
201.1144,124.7096
201.1009,124.6893
201.0806,124.6758
201.0567,124.6710
200.9317,124.6710
200.9078,124.6758
200.8875,124.6893
200.8740,124.7096
200.8692,124.7335
200.8692,125.3085
200.8740,125.3324
200.8875,125.3527
200.9078,125.3662
200.9317,125.3710
201.0567,125.3710
201.0806,125.3662
201.1009,125.3527
201.1144,125.3324
201.1192,125.3085
Z" /> 
<path style="fill:#000000; fill-opacity:1.0000; stroke:none;fill-rule:evenodd;"
d="M 201.6192,124.7335
201.6144,124.7096
201.6009,124.6893
201.5806,124.6758
201.5567,124.6710
201.4317,124.6710
201.4078,124.6758
201.3875,124.6893
201.3740,124.7096
201.3692,124.7335
201.3692,125.3085
201.3740,125.3324
201.3875,125.3527
201.4078,125.3662
201.4317,125.3710
201.5567,125.3710
201.5806,125.3662
201.6009,125.3527
201.6144,125.3324
201.6192,125.3085
Z" /> 
<path style="fill:#000000; fill-opacity:1.0000; stroke:none;fill-rule:evenodd;"
d="M 202.1192,124.7335
202.1144,124.7096
202.1009,124.6893
202.0806,124.6758
202.0567,124.6710
201.9317,124.6710
201.9078,124.6758
201.8875,124.6893
201.8740,124.7096
201.8692,124.7335
201.8692,125.3085
201.8740,125.3324
201.8875,125.3527
201.9078,125.3662
201.9317,125.3710
202.0567,125.3710
202.0806,125.3662
202.1009,125.3527
202.1144,125.3324
202.1192,125.3085
Z" /> 
<path style="fill:#000000; fill-opacity:1.0000; stroke:none;fill-rule:evenodd;"
d="M 202.0942,124.4210
202.0942,122.7210
200.3942,122.7210
200.3942,124.4210
Z" /> 
<path style="fill:#000000; fill-opacity:1.0000; stroke:none;fill-rule:evenodd;"
d="M 197.5402,128.4420
197.4637,128.4572
197.3988,128.5006
197.3554,128.5655
197.3402,128.6420
197.3402,129.0420
197.3554,129.1185
197.3988,129.1834
197.4637,129.2268
197.5402,129.2420
198.0902,129.2420
198.1667,129.2268
198.2316,129.1834
198.2750,129.1185
198.2902,129.0420
198.2902,128.6420
198.2750,128.5655
198.2316,128.5006
198.1667,128.4572
198.0902,128.4420
Z" /> 
<path style="fill:#000000; fill-opacity:1.0000; stroke:none;fill-rule:evenodd;"
d="M 197.5402,130.0920
197.4637,130.1072
197.3988,130.1506
197.3554,130.2155
197.3402,130.2920
197.3402,130.6920
197.3554,130.7685
197.3988,130.8334
197.4637,130.8768
197.5402,130.8920
198.0902,130.8920
198.1667,130.8768
198.2316,130.8334
198.2750,130.7685
198.2902,130.6920
198.2902,130.2920
198.2750,130.2155
198.2316,130.1506
198.1667,130.1072
198.0902,130.0920
Z" /> 
<path style="fill:#000000; fill-opacity:1.0000; stroke:none;fill-rule:evenodd;"
d="M 202.5440,111.8050
202.4675,111.8202
202.4026,111.8636
202.3592,111.9285
202.3440,112.0050
202.3440,112.4050
202.3592,112.4815
202.4026,112.5464
202.4675,112.5898
202.5440,112.6050
203.0940,112.6050
203.1705,112.5898
203.2354,112.5464
203.2788,112.4815
203.2940,112.4050
203.2940,112.0050
203.2788,111.9285
203.2354,111.8636
203.1705,111.8202
203.0940,111.8050
Z" /> 
<path style="fill:#000000; fill-opacity:1.0000; stroke:none;fill-rule:evenodd;"
d="M 202.5440,113.4550
202.4675,113.4702
202.4026,113.5136
202.3592,113.5785
202.3440,113.6550
202.3440,114.0550
202.3592,114.1315
202.4026,114.1964
202.4675,114.2398
202.5440,114.2550
203.0940,114.2550
203.1705,114.2398
203.2354,114.1964
203.2788,114.1315
203.2940,114.0550
203.2940,113.6550
203.2788,113.5785
203.2354,113.5136
203.1705,113.4702
203.0940,113.4550
Z" /> 
</g>
<g style="fill:none; 
stroke:#000000; stroke-width:0.0500; stroke-opacity:1; 
stroke-linecap:round; stroke-linejoin:round;">
<path d="M192.2572 112.9416
L192.2572 134.2004
" />
<path d="M212.1614 114.9388
L212.1581 132.2132
" />
<path d="M192.2572 134.2004 A13.9291 13.9291 0.0 0 0 212.1581 132.2132" />
<path d="M212.1614 114.9388 A13.9097 13.9097 0.0 0 0 192.2572 112.9416" />
</g> 
</svg>
