<?xml version="1.0" standalone="no"?>
 <!DOCTYPE svg PUBLIC "-//W3C//DTD SVG 1.1//EN" 
 "http://www.w3.org/Graphics/SVG/1.1/DTD/svg11.dtd"> 
<svg
  xmlns:svg="http://www.w3.org/2000/svg"
  xmlns="http://www.w3.org/2000/svg"
  xmlns:xlink="http://www.w3.org/1999/xlink"
  version="1.1"
  width="431.8000mm" height="279.4000mm" viewBox="0.0000 0.0000 431.8000 279.4000">
<title>SVG Image created as mag-encoder-F_Silkscreen.svg date 2024/10/24 19:42:16 </title>
  <desc>Image generated by PCBNEW </desc>
<g style="fill:#000000; fill-opacity:1.0000;stroke:#000000; stroke-opacity:1.0000;
stroke-linecap:round; stroke-linejoin:round;"
 transform="translate(0 0) scale(1 1)">
</g>
<g style="fill:none; 
stroke:#000000; stroke-width:0.1000; stroke-opacity:1; 
stroke-linecap:round; stroke-linejoin:round;">
<path d="M226.7966 130.8100
L229.2350 130.8100
" />
<path d="M229.2350 130.8100
L228.9556 131.0386
" />
<path d="M229.2350 130.8100
L228.9556 130.5814
" />
</g>
<g style="fill:none; 
stroke:#000000; stroke-width:0.1524; stroke-opacity:1; 
stroke-linecap:round; stroke-linejoin:round;">
<g transform="rotate(-90.000000 224.9170 116.9416)">
<text x="224.9170" y="116.9416"
textLength="1.1261" font-size="1.1853" lengthAdjust="spacingAndGlyphs"
text-anchor="middle" opacity="0" stroke-opacity="0">1</text>
</g>
<g class="stroked-text"><desc>1</desc>
<path d="M224.8003 116.6876
L224.8003 117.1956
" />
<path d="M224.8003 116.9416
L223.9113 116.9416
" />
<path d="M223.9113 116.9416
L224.0383 117.0263
" />
<path d="M224.0383 117.0263
L224.1229 117.1109
" />
<path d="M224.1229 117.1109
L224.1653 117.1956
" />
</g><g transform="rotate(-90.000000 224.8916 130.2258)">
<text x="224.8916" y="130.2258"
textLength="1.1261" font-size="1.1853" lengthAdjust="spacingAndGlyphs"
text-anchor="middle" opacity="0" stroke-opacity="0">5</text>
</g>
<g class="stroked-text"><desc>5</desc>
<path d="M223.8859 130.0141
L223.8859 130.4375
" />
<path d="M223.8859 130.4375
L224.3092 130.4798
" />
<path d="M224.3092 130.4798
L224.2669 130.4375
" />
<path d="M224.2669 130.4375
L224.2245 130.3528
" />
<path d="M224.2245 130.3528
L224.2245 130.1411
" />
<path d="M224.2245 130.1411
L224.2669 130.0565
" />
<path d="M224.2669 130.0565
L224.3092 130.0141
" />
<path d="M224.3092 130.0141
L224.3939 129.9718
" />
<path d="M224.3939 129.9718
L224.6055 129.9718
" />
<path d="M224.6055 129.9718
L224.6902 130.0141
" />
<path d="M224.6902 130.0141
L224.7325 130.0565
" />
<path d="M224.7325 130.0565
L224.7749 130.1411
" />
<path d="M224.7749 130.1411
L224.7749 130.3528
" />
<path d="M224.7749 130.3528
L224.7325 130.4375
" />
<path d="M224.7325 130.4375
L224.6902 130.4798
" />
</g></g>
<g style="fill:none; 
stroke:#000000; stroke-width:0.1270; stroke-opacity:1; 
stroke-linecap:round; stroke-linejoin:round;">
<g transform="rotate(-90.000000 227.7364 113.0046)">
<text x="227.7364" y="113.3221"
textLength="1.4938" font-size="0.8467" lengthAdjust="spacingAndGlyphs"
text-anchor="middle" opacity="0" stroke-opacity="0">D1</text>
</g>
<g class="stroked-text"><desc>D1</desc>
<path d="M228.0236 113.4733
L227.3886 113.4733
" />
<path d="M227.3886 113.4733
L227.3886 113.3221
" />
<path d="M227.3886 113.3221
L227.4188 113.2314
" />
<path d="M227.4188 113.2314
L227.4793 113.1709
" />
<path d="M227.4793 113.1709
L227.5397 113.1407
" />
<path d="M227.5397 113.1407
L227.6607 113.1104
" />
<path d="M227.6607 113.1104
L227.7514 113.1104
" />
<path d="M227.7514 113.1104
L227.8724 113.1407
" />
<path d="M227.8724 113.1407
L227.9328 113.1709
" />
<path d="M227.9328 113.1709
L227.9933 113.2314
" />
<path d="M227.9933 113.2314
L228.0236 113.3221
" />
<path d="M228.0236 113.3221
L228.0236 113.4733
" />
<path d="M228.0236 112.5057
L228.0236 112.8685
" />
<path d="M228.0236 112.6871
L227.3886 112.6871
" />
<path d="M227.3886 112.6871
L227.4793 112.7476
" />
<path d="M227.4793 112.7476
L227.5397 112.8081
" />
<path d="M227.5397 112.8081
L227.5700 112.8685
" />
</g><text x="228.9810" y="111.0361"
textLength="1.5845" font-size="0.8467" lengthAdjust="spacingAndGlyphs"
text-anchor="middle" opacity="0" stroke-opacity="0">ON</text>
<g class="stroked-text"><desc>ON</desc>
<path d="M228.5879 110.3708
L228.7089 110.3708
" />
<path d="M228.7089 110.3708
L228.7693 110.4010
" />
<path d="M228.7693 110.4010
L228.8298 110.4615
" />
<path d="M228.8298 110.4615
L228.8600 110.5824
" />
<path d="M228.8600 110.5824
L228.8600 110.7941
" />
<path d="M228.8600 110.7941
L228.8298 110.9150
" />
<path d="M228.8298 110.9150
L228.7693 110.9755
" />
<path d="M228.7693 110.9755
L228.7089 111.0058
" />
<path d="M228.7089 111.0058
L228.5879 111.0058
" />
<path d="M228.5879 111.0058
L228.5274 110.9755
" />
<path d="M228.5274 110.9755
L228.4670 110.9150
" />
<path d="M228.4670 110.9150
L228.4367 110.7941
" />
<path d="M228.4367 110.7941
L228.4367 110.5824
" />
<path d="M228.4367 110.5824
L228.4670 110.4615
" />
<path d="M228.4670 110.4615
L228.5274 110.4010
" />
<path d="M228.5274 110.4010
L228.5879 110.3708
" />
<path d="M229.1322 111.0058
L229.1322 110.3708
" />
<path d="M229.1322 110.3708
L229.4950 111.0058
" />
<path d="M229.4950 111.0058
L229.4950 110.3708
" />
</g><g transform="rotate(-90.000000 227.2538 131.6990)">
<text x="227.2538" y="132.0165"
textLength="1.4938" font-size="0.8467" lengthAdjust="spacingAndGlyphs"
text-anchor="middle" opacity="0" stroke-opacity="0">D3</text>
</g>
<g class="stroked-text"><desc>D3</desc>
<path d="M227.5410 132.1677
L226.9060 132.1677
" />
<path d="M226.9060 132.1677
L226.9060 132.0165
" />
<path d="M226.9060 132.0165
L226.9362 131.9258
" />
<path d="M226.9362 131.9258
L226.9967 131.8653
" />
<path d="M226.9967 131.8653
L227.0571 131.8351
" />
<path d="M227.0571 131.8351
L227.1781 131.8048
" />
<path d="M227.1781 131.8048
L227.2688 131.8048
" />
<path d="M227.2688 131.8048
L227.3898 131.8351
" />
<path d="M227.3898 131.8351
L227.4502 131.8653
" />
<path d="M227.4502 131.8653
L227.5107 131.9258
" />
<path d="M227.5107 131.9258
L227.5410 132.0165
" />
<path d="M227.5410 132.0165
L227.5410 132.1677
" />
<path d="M226.9060 131.5932
L226.9060 131.2001
" />
<path d="M226.9060 131.2001
L227.1479 131.4117
" />
<path d="M227.1479 131.4117
L227.1479 131.3210
" />
<path d="M227.1479 131.3210
L227.1781 131.2605
" />
<path d="M227.1781 131.2605
L227.2083 131.2303
" />
<path d="M227.2083 131.2303
L227.2688 131.2001
" />
<path d="M227.2688 131.2001
L227.4200 131.2001
" />
<path d="M227.4200 131.2001
L227.4805 131.2303
" />
<path d="M227.4805 131.2303
L227.5107 131.2605
" />
<path d="M227.5107 131.2605
L227.5410 131.3210
" />
<path d="M227.5410 131.3210
L227.5410 131.5025
" />
<path d="M227.5410 131.5025
L227.5107 131.5629
" />
<path d="M227.5107 131.5629
L227.4805 131.5932
" />
</g><g transform="rotate(-90.000000 228.9725 136.2964)">
<text x="228.9725" y="136.6139"
textLength="1.4333" font-size="0.8467" lengthAdjust="spacingAndGlyphs"
text-anchor="middle" opacity="0" stroke-opacity="0">LO</text>
</g>
<g class="stroked-text"><desc>LO</desc>
<path d="M229.2597 136.4325
L229.2597 136.7349
" />
<path d="M229.2597 136.7349
L228.6247 136.7349
" />
<path d="M228.6247 136.0999
L228.6247 135.9789
" />
<path d="M228.6247 135.9789
L228.6549 135.9184
" />
<path d="M228.6549 135.9184
L228.7154 135.8579
" />
<path d="M228.7154 135.8579
L228.8364 135.8277
" />
<path d="M228.8364 135.8277
L229.0480 135.8277
" />
<path d="M229.0480 135.8277
L229.1690 135.8579
" />
<path d="M229.1690 135.8579
L229.2295 135.9184
" />
<path d="M229.2295 135.9184
L229.2597 135.9789
" />
<path d="M229.2597 135.9789
L229.2597 136.0999
" />
<path d="M229.2597 136.0999
L229.2295 136.1603
" />
<path d="M229.2295 136.1603
L229.1690 136.2208
" />
<path d="M229.1690 136.2208
L229.0480 136.2510
" />
<path d="M229.0480 136.2510
L228.8364 136.2510
" />
<path d="M228.8364 136.2510
L228.7154 136.2208
" />
<path d="M228.7154 136.2208
L228.6549 136.1603
" />
<path d="M228.6549 136.1603
L228.6247 136.0999
" />
</g><text x="237.3122" y="134.1247"
textLength="1.5240" font-size="0.8467" lengthAdjust="spacingAndGlyphs"
text-anchor="middle" opacity="0" stroke-opacity="0">Q1</text>
<g class="stroked-text"><desc>Q1</desc>
<path d="M237.2517 134.1548
L237.1912 134.1246
" />
<path d="M237.1912 134.1246
L237.1308 134.0641
" />
<path d="M237.1308 134.0641
L237.0401 133.9734
" />
<path d="M237.0401 133.9734
L236.9796 133.9432
" />
<path d="M236.9796 133.9432
L236.9191 133.9432
" />
<path d="M236.9493 134.0944
L236.8889 134.0641
" />
<path d="M236.8889 134.0641
L236.8284 134.0036
" />
<path d="M236.8284 134.0036
L236.7982 133.8827
" />
<path d="M236.7982 133.8827
L236.7982 133.6710
" />
<path d="M236.7982 133.6710
L236.8284 133.5501
" />
<path d="M236.8284 133.5501
L236.8889 133.4896
" />
<path d="M236.8889 133.4896
L236.9493 133.4594
" />
<path d="M236.9493 133.4594
L237.0703 133.4594
" />
<path d="M237.0703 133.4594
L237.1308 133.4896
" />
<path d="M237.1308 133.4896
L237.1912 133.5501
" />
<path d="M237.1912 133.5501
L237.2215 133.6710
" />
<path d="M237.2215 133.6710
L237.2215 133.8827
" />
<path d="M237.2215 133.8827
L237.1912 134.0036
" />
<path d="M237.1912 134.0036
L237.1308 134.0641
" />
<path d="M237.1308 134.0641
L237.0703 134.0944
" />
<path d="M237.0703 134.0944
L236.9493 134.0944
" />
<path d="M237.8262 134.0944
L237.4634 134.0944
" />
<path d="M237.6448 134.0944
L237.6448 133.4594
" />
<path d="M237.6448 133.4594
L237.5843 133.5501
" />
<path d="M237.5843 133.5501
L237.5239 133.6105
" />
<path d="M237.5239 133.6105
L237.4634 133.6408
" />
</g><text x="233.0704" y="112.2299"
textLength="1.5240" font-size="0.8467" lengthAdjust="spacingAndGlyphs"
text-anchor="middle" opacity="0" stroke-opacity="0">U1</text>
<g class="stroked-text"><desc>U1</desc>
<path d="M232.5866 111.5646
L232.5866 112.0786
" />
<path d="M232.5866 112.0786
L232.6168 112.1391
" />
<path d="M232.6168 112.1391
L232.6471 112.1693
" />
<path d="M232.6471 112.1693
L232.7075 112.1996
" />
<path d="M232.7075 112.1996
L232.8285 112.1996
" />
<path d="M232.8285 112.1996
L232.8890 112.1693
" />
<path d="M232.8890 112.1693
L232.9192 112.1391
" />
<path d="M232.9192 112.1391
L232.9494 112.0786
" />
<path d="M232.9494 112.0786
L232.9494 111.5646
" />
<path d="M233.5844 112.1996
L233.2216 112.1996
" />
<path d="M233.4030 112.1996
L233.4030 111.5646
" />
<path d="M233.4030 111.5646
L233.3425 111.6553
" />
<path d="M233.3425 111.6553
L233.2821 111.7157
" />
<path d="M233.2821 111.7157
L233.2216 111.7460
" />
</g><text x="226.9236" y="116.5733"
textLength="1.3426" font-size="0.8467" lengthAdjust="spacingAndGlyphs"
text-anchor="middle" opacity="0" stroke-opacity="0">J2</text>
<g class="stroked-text"><desc>J2</desc>
<path d="M226.7119 115.9080
L226.7119 116.3615
" />
<path d="M226.7119 116.3615
L226.6817 116.4522
" />
<path d="M226.6817 116.4522
L226.6212 116.5127
" />
<path d="M226.6212 116.5127
L226.5305 116.5430
" />
<path d="M226.5305 116.5430
L226.4700 116.5430
" />
<path d="M226.9841 115.9684
L227.0143 115.9382
" />
<path d="M227.0143 115.9382
L227.0748 115.9080
" />
<path d="M227.0748 115.9080
L227.2260 115.9080
" />
<path d="M227.2260 115.9080
L227.2865 115.9382
" />
<path d="M227.2865 115.9382
L227.3167 115.9684
" />
<path d="M227.3167 115.9684
L227.3469 116.0289
" />
<path d="M227.3469 116.0289
L227.3469 116.0894
" />
<path d="M227.3469 116.0894
L227.3167 116.1801
" />
<path d="M227.3167 116.1801
L226.9538 116.5430
" />
<path d="M226.9538 116.5430
L227.3469 116.5430
" />
</g><g transform="rotate(-90.000000 228.1174 131.6990)">
<text x="228.1174" y="132.0165"
textLength="1.4938" font-size="0.8467" lengthAdjust="spacingAndGlyphs"
text-anchor="middle" opacity="0" stroke-opacity="0">D4</text>
</g>
<g class="stroked-text"><desc>D4</desc>
<path d="M228.4046 132.1677
L227.7696 132.1677
" />
<path d="M227.7696 132.1677
L227.7696 132.0165
" />
<path d="M227.7696 132.0165
L227.7998 131.9258
" />
<path d="M227.7998 131.9258
L227.8603 131.8653
" />
<path d="M227.8603 131.8653
L227.9207 131.8351
" />
<path d="M227.9207 131.8351
L228.0417 131.8048
" />
<path d="M228.0417 131.8048
L228.1324 131.8048
" />
<path d="M228.1324 131.8048
L228.2534 131.8351
" />
<path d="M228.2534 131.8351
L228.3138 131.8653
" />
<path d="M228.3138 131.8653
L228.3743 131.9258
" />
<path d="M228.3743 131.9258
L228.4046 132.0165
" />
<path d="M228.4046 132.0165
L228.4046 132.1677
" />
<path d="M227.9812 131.2605
L228.4046 131.2605
" />
<path d="M227.7393 131.4117
L228.1929 131.5629
" />
<path d="M228.1929 131.5629
L228.1929 131.1698
" />
</g><g transform="rotate(-90.000000 230.5135 136.2359)">
<text x="230.5135" y="136.5534"
textLength="1.5542" font-size="0.8467" lengthAdjust="spacingAndGlyphs"
text-anchor="middle" opacity="0" stroke-opacity="0">OK</text>
</g>
<g class="stroked-text"><desc>OK</desc>
<path d="M230.1656 136.6139
L230.1656 136.4929
" />
<path d="M230.1656 136.4929
L230.1959 136.4325
" />
<path d="M230.1959 136.4325
L230.2563 136.3720
" />
<path d="M230.2563 136.3720
L230.3773 136.3418
" />
<path d="M230.3773 136.3418
L230.5890 136.3418
" />
<path d="M230.5890 136.3418
L230.7099 136.3720
" />
<path d="M230.7099 136.3720
L230.7704 136.4325
" />
<path d="M230.7704 136.4325
L230.8006 136.4929
" />
<path d="M230.8006 136.4929
L230.8006 136.6139
" />
<path d="M230.8006 136.6139
L230.7704 136.6744
" />
<path d="M230.7704 136.6744
L230.7099 136.7349
" />
<path d="M230.7099 136.7349
L230.5890 136.7651
" />
<path d="M230.5890 136.7651
L230.3773 136.7651
" />
<path d="M230.3773 136.7651
L230.2563 136.7349
" />
<path d="M230.2563 136.7349
L230.1959 136.6744
" />
<path d="M230.1959 136.6744
L230.1656 136.6139
" />
<path d="M230.8006 136.0696
L230.1656 136.0696
" />
<path d="M230.8006 135.7068
L230.4378 135.9789
" />
<path d="M230.1656 135.7068
L230.5285 136.0696
" />
</g><text x="221.4626" y="132.2451"
textLength="1.3426" font-size="0.8467" lengthAdjust="spacingAndGlyphs"
text-anchor="middle" opacity="0" stroke-opacity="0">J1</text>
<g class="stroked-text"><desc>J1</desc>
<path d="M221.2509 131.5798
L221.2509 132.0333
" />
<path d="M221.2509 132.0333
L221.2207 132.1240
" />
<path d="M221.2207 132.1240
L221.1602 132.1845
" />
<path d="M221.1602 132.1845
L221.0695 132.2148
" />
<path d="M221.0695 132.2148
L221.0090 132.2148
" />
<path d="M221.8859 132.2148
L221.5231 132.2148
" />
<path d="M221.7045 132.2148
L221.7045 131.5798
" />
<path d="M221.7045 131.5798
L221.6440 131.6705
" />
<path d="M221.6440 131.6705
L221.5836 131.7309
" />
<path d="M221.5836 131.7309
L221.5231 131.7612
" />
</g><text x="235.1786" y="112.4839"
textLength="1.4938" font-size="0.8467" lengthAdjust="spacingAndGlyphs"
text-anchor="middle" opacity="0" stroke-opacity="0">D2</text>
<g class="stroked-text"><desc>D2</desc>
<path d="M234.7099 112.4536
L234.7099 111.8186
" />
<path d="M234.7099 111.8186
L234.8611 111.8186
" />
<path d="M234.8611 111.8186
L234.9518 111.8488
" />
<path d="M234.9518 111.8488
L235.0123 111.9093
" />
<path d="M235.0123 111.9093
L235.0425 111.9697
" />
<path d="M235.0425 111.9697
L235.0728 112.0907
" />
<path d="M235.0728 112.0907
L235.0728 112.1814
" />
<path d="M235.0728 112.1814
L235.0425 112.3024
" />
<path d="M235.0425 112.3024
L235.0123 112.3628
" />
<path d="M235.0123 112.3628
L234.9518 112.4233
" />
<path d="M234.9518 112.4233
L234.8611 112.4536
" />
<path d="M234.8611 112.4536
L234.7099 112.4536
" />
<path d="M235.3147 111.8790
L235.3449 111.8488
" />
<path d="M235.3449 111.8488
L235.4054 111.8186
" />
<path d="M235.4054 111.8186
L235.5566 111.8186
" />
<path d="M235.5566 111.8186
L235.6171 111.8488
" />
<path d="M235.6171 111.8488
L235.6473 111.8790
" />
<path d="M235.6473 111.8790
L235.6775 111.9395
" />
<path d="M235.6775 111.9395
L235.6775 112.0000
" />
<path d="M235.6775 112.0000
L235.6473 112.0907
" />
<path d="M235.6473 112.0907
L235.2844 112.4536
" />
<path d="M235.2844 112.4536
L235.6775 112.4536
" />
</g><g transform="rotate(-90.000000 228.9810 131.6990)">
<text x="228.9810" y="132.0165"
textLength="1.4938" font-size="0.8467" lengthAdjust="spacingAndGlyphs"
text-anchor="middle" opacity="0" stroke-opacity="0">D5</text>
</g>
<g class="stroked-text"><desc>D5</desc>
<path d="M229.2682 132.1677
L228.6332 132.1677
" />
<path d="M228.6332 132.1677
L228.6332 132.0165
" />
<path d="M228.6332 132.0165
L228.6634 131.9258
" />
<path d="M228.6634 131.9258
L228.7239 131.8653
" />
<path d="M228.7239 131.8653
L228.7843 131.8351
" />
<path d="M228.7843 131.8351
L228.9053 131.8048
" />
<path d="M228.9053 131.8048
L228.9960 131.8048
" />
<path d="M228.9960 131.8048
L229.1170 131.8351
" />
<path d="M229.1170 131.8351
L229.1774 131.8653
" />
<path d="M229.1774 131.8653
L229.2379 131.9258
" />
<path d="M229.2379 131.9258
L229.2682 132.0165
" />
<path d="M229.2682 132.0165
L229.2682 132.1677
" />
<path d="M228.6332 131.2303
L228.6332 131.5327
" />
<path d="M228.6332 131.5327
L228.9355 131.5629
" />
<path d="M228.9355 131.5629
L228.9053 131.5327
" />
<path d="M228.9053 131.5327
L228.8751 131.4722
" />
<path d="M228.8751 131.4722
L228.8751 131.3210
" />
<path d="M228.8751 131.3210
L228.9053 131.2605
" />
<path d="M228.9053 131.2605
L228.9355 131.2303
" />
<path d="M228.9355 131.2303
L228.9960 131.2001
" />
<path d="M228.9960 131.2001
L229.1472 131.2001
" />
<path d="M229.1472 131.2001
L229.2077 131.2303
" />
<path d="M229.2077 131.2303
L229.2379 131.2605
" />
<path d="M229.2379 131.2605
L229.2682 131.3210
" />
<path d="M229.2682 131.3210
L229.2682 131.4722
" />
<path d="M229.2682 131.4722
L229.2379 131.5327
" />
<path d="M229.2379 131.5327
L229.2077 131.5629
" />
</g><g transform="rotate(-90.000000 232.0036 136.4022)">
<text x="232.0036" y="136.7197"
textLength="1.2216" font-size="0.8467" lengthAdjust="spacingAndGlyphs"
text-anchor="middle" opacity="0" stroke-opacity="0">HI</text>
</g>
<g class="stroked-text"><desc>HI</desc>
<path d="M232.2908 136.7349
L231.6558 136.7349
" />
<path d="M231.9581 136.7349
L231.9581 136.3720
" />
<path d="M232.2908 136.3720
L231.6558 136.3720
" />
<path d="M232.2908 136.0696
L231.6558 136.0696
" />
</g></g>
<g style="fill:none; 
stroke:#000000; stroke-width:0.1200; stroke-opacity:1; 
stroke-linecap:round; stroke-linejoin:round;">
<path d="M228.2460 111.5450
L228.2460 113.8300
" />
<path d="M229.7160 111.5450
L228.2460 111.5450
" />
<path d="M229.7160 113.8300
L229.7160 111.5450
" />
<path d="M228.2460 132.9310
L228.2460 135.2160
" />
<path d="M228.2460 135.2160
L229.7160 135.2160
" />
<path d="M229.7160 135.2160
L229.7160 132.9310
" />
<path d="M233.1360 134.1120
L233.1360 133.4620
" />
<path d="M233.1360 134.1120
L233.1360 134.7620
" />
<path d="M236.2560 134.1120
L236.2560 133.4620
" />
<path d="M236.2560 134.1120
L236.2560 134.7620
" />
<path style="fill:#000000; fill-opacity:1.0000; 
stroke:#000000; stroke-width:0.1200; stroke-opacity:1; 
stroke-linecap:round; stroke-linejoin:round;fill-rule:evenodd;"
d="M 236.5360,133.1895
236.2060,132.9495
236.5360,132.7095
Z" /> 
</g>
<g style="fill:none; 
stroke:#000000; stroke-width:0.1200; stroke-opacity:1; 
stroke-linecap:round; stroke-linejoin:round;">
<path d="M230.0372 113.0300
L230.0372 112.3800
" />
<path d="M230.0372 113.0300
L230.0372 113.6800
" />
<path d="M233.1572 113.0300
L233.1572 112.3800
" />
<path d="M233.1572 113.0300
L233.1572 113.6800
" />
<path style="fill:#000000; fill-opacity:1.0000; 
stroke:#000000; stroke-width:0.1200; stroke-opacity:1; 
stroke-linecap:round; stroke-linejoin:round;fill-rule:evenodd;"
d="M 230.0872,114.6300
229.7572,114.8700
229.7572,114.3900
Z" /> 
</g>
<g style="fill:none; 
stroke:#000000; stroke-width:0.1200; stroke-opacity:1; 
stroke-linecap:round; stroke-linejoin:round;">
<path d="M229.7700 132.9310
L229.7700 135.2160
" />
<path d="M229.7700 135.2160
L231.2400 135.2160
" />
<path d="M231.2400 135.2160
L231.2400 132.9310
" />
<path d="M220.0818 115.8910
L221.4118 115.8910
" />
<path d="M220.0818 117.2210
L220.0818 115.8910
" />
<path d="M220.0818 118.4910
L220.0818 131.2510
" />
<path d="M220.0818 118.4910
L222.7418 118.4910
" />
<path d="M220.0818 131.2510
L222.7418 131.2510
" />
<path d="M222.7418 118.4910
L222.7418 131.2510
" />
<path d="M233.4790 112.7920
L233.4790 114.7920
" />
<path d="M233.4790 112.7920
L237.4890 112.7920
" />
<path d="M233.4790 114.7920
L237.4890 114.7920
" />
<path d="M231.2940 132.9310
L231.2940 135.2160
" />
<path d="M231.2940 135.2160
L232.7640 135.2160
" />
<path d="M232.7640 135.2160
L232.7640 132.9310
" />
</g>
<g style="fill:#000000; fill-opacity:1.0000; stroke:none;">
<circle cx="224.8408" cy="114.0460" r="1.9050" /> 
<path style="fill:#000000; fill-opacity:1.0000; stroke:none;fill-rule:evenodd;"
d="M 229.2372,111.8050
229.3210,111.8217
229.3919,111.8691
229.4393,111.9400
229.4560,112.0237
229.4560,112.4612
229.4393,112.5450
229.3919,112.6159
229.3210,112.6633
229.2372,112.6800
228.7248,112.6800
228.6410,112.6633
228.5701,112.6159
228.5227,112.5450
228.5060,112.4612
228.5060,112.0237
228.5227,111.9400
228.5701,111.8691
228.6410,111.8217
228.7248,111.8050
Z" /> 
<path style="fill:#000000; fill-opacity:1.0000; stroke:none;fill-rule:evenodd;"
d="M 229.2372,113.3800
229.3210,113.3967
229.3919,113.4441
229.4393,113.5150
229.4560,113.5987
229.4560,114.0362
229.4393,114.1200
229.3919,114.1909
229.3210,114.2383
229.2372,114.2550
228.7248,114.2550
228.6410,114.2383
228.5701,114.1909
228.5227,114.1200
228.5060,114.0362
228.5060,113.5987
228.5227,113.5150
228.5701,113.4441
228.6410,113.3967
228.7248,113.3800
Z" /> 
<path style="fill:#000000; fill-opacity:1.0000; stroke:none;fill-rule:evenodd;"
d="M 228.7248,134.9560
228.6410,134.9393
228.5701,134.8919
228.5227,134.8210
228.5060,134.7372
228.5060,134.2997
228.5227,134.2160
228.5701,134.1451
228.6410,134.0977
228.7248,134.0810
229.2372,134.0810
229.3210,134.0977
229.3919,134.1451
229.4393,134.2160
229.4560,134.2997
229.4560,134.7372
229.4393,134.8210
229.3919,134.8919
229.3210,134.9393
229.2372,134.9560
Z" /> 
<path style="fill:#000000; fill-opacity:1.0000; stroke:none;fill-rule:evenodd;"
d="M 228.7248,133.3810
228.6410,133.3643
228.5701,133.3169
228.5227,133.2460
228.5060,133.1623
228.5060,132.7248
228.5227,132.6410
228.5701,132.5701
228.6410,132.5227
228.7248,132.5060
229.2372,132.5060
229.3210,132.5227
229.3919,132.5701
229.4393,132.6410
229.4560,132.7248
229.4560,133.1623
229.4393,133.2460
229.3919,133.3169
229.3210,133.3643
229.2372,133.3810
Z" /> 
<path style="fill:#000000; fill-opacity:1.0000; stroke:none;fill-rule:evenodd;"
d="M 235.7960,132.4370
235.8534,132.4484
235.9021,132.4809
235.9346,132.5296
235.9460,132.5870
235.9460,133.7620
235.9346,133.8194
235.9021,133.8681
235.8534,133.9006
235.7960,133.9120
235.4960,133.9120
235.4386,133.9006
235.3899,133.8681
235.3574,133.8194
235.3460,133.7620
235.3460,132.5870
235.3574,132.5296
235.3899,132.4809
235.4386,132.4484
235.4960,132.4370
Z" /> 
<path style="fill:#000000; fill-opacity:1.0000; stroke:none;fill-rule:evenodd;"
d="M 233.8960,132.4370
233.9534,132.4484
234.0021,132.4809
234.0346,132.5296
234.0460,132.5870
234.0460,133.7620
234.0346,133.8194
234.0021,133.8681
233.9534,133.9006
233.8960,133.9120
233.5960,133.9120
233.5386,133.9006
233.4899,133.8681
233.4574,133.8194
233.4460,133.7620
233.4460,132.5870
233.4574,132.5296
233.4899,132.4809
233.5386,132.4484
233.5960,132.4370
Z" /> 
<path style="fill:#000000; fill-opacity:1.0000; stroke:none;fill-rule:evenodd;"
d="M 234.8460,134.3120
234.9034,134.3234
234.9521,134.3559
234.9846,134.4046
234.9960,134.4620
234.9960,135.6370
234.9846,135.6944
234.9521,135.7431
234.9034,135.7756
234.8460,135.7870
234.5460,135.7870
234.4886,135.7756
234.4399,135.7431
234.4074,135.6944
234.3960,135.6370
234.3960,134.4620
234.4074,134.4046
234.4399,134.3559
234.4886,134.3234
234.5460,134.3120
Z" /> 
<path style="fill:#000000; fill-opacity:1.0000; stroke:none;fill-rule:evenodd;"
d="M 230.4972,114.7050
230.4398,114.6936
230.3911,114.6611
230.3586,114.6124
230.3472,114.5550
230.3472,113.3800
230.3586,113.3226
230.3911,113.2739
230.4398,113.2414
230.4972,113.2300
230.7972,113.2300
230.8546,113.2414
230.9033,113.2739
230.9358,113.3226
230.9472,113.3800
230.9472,114.5550
230.9358,114.6124
230.9033,114.6611
230.8546,114.6936
230.7972,114.7050
Z" /> 
<path style="fill:#000000; fill-opacity:1.0000; stroke:none;fill-rule:evenodd;"
d="M 232.3972,114.7050
232.3398,114.6936
232.2911,114.6611
232.2586,114.6124
232.2472,114.5550
232.2472,113.3800
232.2586,113.3226
232.2911,113.2739
232.3398,113.2414
232.3972,113.2300
232.6972,113.2300
232.7546,113.2414
232.8033,113.2739
232.8358,113.3226
232.8472,113.3800
232.8472,114.5550
232.8358,114.6124
232.8033,114.6611
232.7546,114.6936
232.6972,114.7050
Z" /> 
<path style="fill:#000000; fill-opacity:1.0000; stroke:none;fill-rule:evenodd;"
d="M 231.4472,112.8300
231.3898,112.8186
231.3411,112.7861
231.3086,112.7374
231.2972,112.6800
231.2972,111.5050
231.3086,111.4476
231.3411,111.3989
231.3898,111.3664
231.4472,111.3550
231.7472,111.3550
231.8046,111.3664
231.8533,111.3989
231.8858,111.4476
231.8972,111.5050
231.8972,112.6800
231.8858,112.7374
231.8533,112.7861
231.8046,112.8186
231.7472,112.8300
Z" /> 
</g>
<g style="fill:#000000; fill-opacity:1.0000; stroke:none;">
<circle cx="237.1778" cy="130.0510" r="1.7000" /> 
</g>
<g style="fill:#000000; fill-opacity:1.0000; stroke:none;">
<circle cx="237.1778" cy="117.0910" r="1.7000" /> 
<path style="fill:#000000; fill-opacity:1.0000; stroke:none;fill-rule:evenodd;"
d="M 223.9441,119.3160
223.8977,119.3068
223.8583,119.2805
223.8320,119.2411
223.8228,119.1947
223.8228,117.7873
223.8320,117.7409
223.8583,117.7015
223.8977,117.6752
223.9441,117.6660
229.0315,117.6660
229.0779,117.6752
229.1173,117.7015
229.1436,117.7409
229.1528,117.7873
229.1528,119.1947
229.1436,119.2411
229.1173,119.2805
229.0779,119.3068
229.0315,119.3160
Z" /> 
<path style="fill:#000000; fill-opacity:1.0000; stroke:none;fill-rule:evenodd;"
d="M 223.9441,121.8560
223.8977,121.8468
223.8583,121.8205
223.8320,121.7811
223.8228,121.7347
223.8228,120.3273
223.8320,120.2809
223.8583,120.2415
223.8977,120.2152
223.9441,120.2060
229.0315,120.2060
229.0779,120.2152
229.1173,120.2415
229.1436,120.2809
229.1528,120.3273
229.1528,121.7347
229.1436,121.7811
229.1173,121.8205
229.0779,121.8468
229.0315,121.8560
Z" /> 
<path style="fill:#000000; fill-opacity:1.0000; stroke:none;fill-rule:evenodd;"
d="M 223.9441,124.3960
223.8977,124.3868
223.8583,124.3605
223.8320,124.3211
223.8228,124.2747
223.8228,122.8673
223.8320,122.8209
223.8583,122.7815
223.8977,122.7552
223.9441,122.7460
229.0315,122.7460
229.0779,122.7552
229.1173,122.7815
229.1436,122.8209
229.1528,122.8673
229.1528,124.2747
229.1436,124.3211
229.1173,124.3605
229.0779,124.3868
229.0315,124.3960
Z" /> 
<path style="fill:#000000; fill-opacity:1.0000; stroke:none;fill-rule:evenodd;"
d="M 223.9441,126.9360
223.8977,126.9268
223.8583,126.9005
223.8320,126.8611
223.8228,126.8147
223.8228,125.4073
223.8320,125.3609
223.8583,125.3215
223.8977,125.2952
223.9441,125.2860
229.0315,125.2860
229.0779,125.2952
229.1173,125.3215
229.1436,125.3609
229.1528,125.4073
229.1528,126.8147
229.1436,126.8611
229.1173,126.9005
229.0779,126.9268
229.0315,126.9360
Z" /> 
<path style="fill:#000000; fill-opacity:1.0000; stroke:none;fill-rule:evenodd;"
d="M 223.9441,129.4760
223.8977,129.4668
223.8583,129.4405
223.8320,129.4011
223.8228,129.3547
223.8228,127.9473
223.8320,127.9009
223.8583,127.8615
223.8977,127.8352
223.9441,127.8260
229.0315,127.8260
229.0779,127.8352
229.1173,127.8615
229.1436,127.9009
229.1528,127.9473
229.1528,129.3547
229.1436,129.4011
229.1173,129.4405
229.0779,129.4668
229.0315,129.4760
Z" /> 
<path style="fill:#000000; fill-opacity:1.0000; stroke:none;fill-rule:evenodd;"
d="M 230.2488,134.9560
230.1650,134.9393
230.0941,134.8919
230.0467,134.8210
230.0300,134.7372
230.0300,134.2997
230.0467,134.2160
230.0941,134.1451
230.1650,134.0977
230.2488,134.0810
230.7612,134.0810
230.8450,134.0977
230.9159,134.1451
230.9633,134.2160
230.9800,134.2997
230.9800,134.7372
230.9633,134.8210
230.9159,134.8919
230.8450,134.9393
230.7612,134.9560
Z" /> 
<path style="fill:#000000; fill-opacity:1.0000; stroke:none;fill-rule:evenodd;"
d="M 230.2488,133.3810
230.1650,133.3643
230.0941,133.3169
230.0467,133.2460
230.0300,133.1623
230.0300,132.7248
230.0467,132.6410
230.0941,132.5701
230.1650,132.5227
230.2488,132.5060
230.7612,132.5060
230.8450,132.5227
230.9159,132.5701
230.9633,132.6410
230.9800,132.7248
230.9800,133.1623
230.9633,133.2460
230.9159,133.3169
230.8450,133.3643
230.7612,133.3810
Z" /> 
<path style="fill:#000000; fill-opacity:1.0000; stroke:none;fill-rule:evenodd;"
d="M 220.5618,118.0710
220.5618,116.3710
222.2618,116.3710
222.2618,118.0710
Z" /> 
</g>
<g style="fill:#000000; fill-opacity:1.0000; stroke:none;">
<circle cx="221.4118" cy="119.7610" r="0.8500" /> 
<circle cx="221.4118" cy="122.3010" r="0.8500" /> 
<circle cx="221.4118" cy="124.8410" r="0.8500" /> 
<circle cx="221.4118" cy="127.3810" r="0.8500" /> 
<circle cx="221.4118" cy="129.9210" r="0.8500" /> 
<path style="fill:#000000; fill-opacity:1.0000; stroke:none;fill-rule:evenodd;"
d="M 233.7390,113.4170
233.7561,113.3309
233.8049,113.2579
233.8779,113.2091
233.9640,113.1920
234.4140,113.1920
234.5001,113.2091
234.5731,113.2579
234.6219,113.3309
234.6390,113.4170
234.6390,114.1670
234.6219,114.2531
234.5731,114.3261
234.5001,114.3749
234.4140,114.3920
233.9640,114.3920
233.8779,114.3749
233.8049,114.3261
233.7561,114.2531
233.7390,114.1670
Z" /> 
<path style="fill:#000000; fill-opacity:1.0000; stroke:none;fill-rule:evenodd;"
d="M 237.0390,113.4170
237.0561,113.3309
237.1049,113.2579
237.1779,113.2091
237.2640,113.1920
237.7140,113.1920
237.8001,113.2091
237.8731,113.2579
237.9219,113.3309
237.9390,113.4170
237.9390,114.1670
237.9219,114.2531
237.8731,114.3261
237.8001,114.3749
237.7140,114.3920
237.2640,114.3920
237.1779,114.3749
237.1049,114.3261
237.0561,114.2531
237.0390,114.1670
Z" /> 
<path style="fill:#000000; fill-opacity:1.0000; stroke:none;fill-rule:evenodd;"
d="M 231.7728,134.9560
231.6890,134.9393
231.6181,134.8919
231.5707,134.8210
231.5540,134.7372
231.5540,134.2997
231.5707,134.2160
231.6181,134.1451
231.6890,134.0977
231.7728,134.0810
232.2852,134.0810
232.3690,134.0977
232.4399,134.1451
232.4873,134.2160
232.5040,134.2997
232.5040,134.7372
232.4873,134.8210
232.4399,134.8919
232.3690,134.9393
232.2852,134.9560
Z" /> 
<path style="fill:#000000; fill-opacity:1.0000; stroke:none;fill-rule:evenodd;"
d="M 231.7728,133.3810
231.6890,133.3643
231.6181,133.3169
231.5707,133.2460
231.5540,133.1623
231.5540,132.7248
231.5707,132.6410
231.6181,132.5701
231.6890,132.5227
231.7728,132.5060
232.2852,132.5060
232.3690,132.5227
232.4399,132.5701
232.4873,132.6410
232.5040,132.7248
232.5040,133.1623
232.4873,133.2460
232.4399,133.3169
232.3690,133.3643
232.2852,133.3810
Z" /> 
<circle cx="224.8408" cy="133.0960" r="1.9050" /> 
</g>
<g style="fill:none; 
stroke:#000000; stroke-width:0.0500; stroke-opacity:1; 
stroke-linecap:round; stroke-linejoin:round;">
<path d="M239.5428 112.9416
L239.5428 134.2004
" />
<path d="M219.6386 114.9388
L219.6419 132.2132
" />
<path d="M219.6419 132.2132 A13.9291 13.9291 0.0 0 0 239.5428 134.2004" />
<path d="M239.5428 112.9416 A13.9097 13.9097 0.0 0 0 219.6386 114.9388" />
</g> 
</svg>
