<?xml version="1.0" standalone="no"?>
 <!DOCTYPE svg PUBLIC "-//W3C//DTD SVG 1.1//EN" 
 "http://www.w3.org/Graphics/SVG/1.1/DTD/svg11.dtd"> 
<svg
  xmlns:svg="http://www.w3.org/2000/svg"
  xmlns="http://www.w3.org/2000/svg"
  xmlns:xlink="http://www.w3.org/1999/xlink"
  version="1.1"
  width="431.8000mm" height="279.4000mm" viewBox="0.0000 0.0000 431.8000 279.4000">
<title>SVG Image created as mag-encoder-B_Silkscreen.svg date 2024/08/22 23:13:05 </title>
  <desc>Image generated by PCBNEW </desc>
<g style="fill:#000000; fill-opacity:1.0000;stroke:#000000; stroke-opacity:1.0000;
stroke-linecap:round; stroke-linejoin:round;"
 transform="translate(0 0) scale(1 1)">
</g>
<g style="fill:none; 
stroke:#000000; stroke-width:0.1524; stroke-opacity:1; 
stroke-linecap:round; stroke-linejoin:round;">
<g transform="rotate(90.000000 223.2660 107.3658)">
<text x="223.2660" y="108.2548"
textLength="12.0481" font-size="1.1853" lengthAdjust="spacingAndGlyphs"
text-anchor="middle" opacity="0" stroke-opacity="0">MAG ENCODER V1</text>
</g>
<g class="stroked-text"><desc>MAG ENCODER V1</desc>
<path d="M222.3426 101.6931
L223.2316 101.6931
" />
<path d="M223.2316 101.6931
L222.5966 101.9895
" />
<path d="M222.5966 101.9895
L223.2316 102.2858
" />
<path d="M223.2316 102.2858
L222.3426 102.2858
" />
<path d="M222.5966 102.6668
L222.5966 103.0901
" />
<path d="M222.3426 102.5821
L223.2316 102.8785
" />
<path d="M223.2316 102.8785
L222.3426 103.1748
" />
<path d="M223.1893 103.9368
L223.2316 103.8521
" />
<path d="M223.2316 103.8521
L223.2316 103.7251
" />
<path d="M223.2316 103.7251
L223.1893 103.5981
" />
<path d="M223.1893 103.5981
L223.1046 103.5135
" />
<path d="M223.1046 103.5135
L223.0199 103.4711
" />
<path d="M223.0199 103.4711
L222.8506 103.4288
" />
<path d="M222.8506 103.4288
L222.7236 103.4288
" />
<path d="M222.7236 103.4288
L222.5543 103.4711
" />
<path d="M222.5543 103.4711
L222.4696 103.5135
" />
<path d="M222.4696 103.5135
L222.3849 103.5981
" />
<path d="M222.3849 103.5981
L222.3426 103.7251
" />
<path d="M222.3426 103.7251
L222.3426 103.8098
" />
<path d="M222.3426 103.8098
L222.3849 103.9368
" />
<path d="M222.3849 103.9368
L222.4273 103.9791
" />
<path d="M222.4273 103.9791
L222.7236 103.9791
" />
<path d="M222.7236 103.9791
L222.7236 103.8098
" />
<path d="M222.8083 105.0375
L222.8083 105.3338
" />
<path d="M222.3426 105.4608
L222.3426 105.0375
" />
<path d="M222.3426 105.0375
L223.2316 105.0375
" />
<path d="M223.2316 105.0375
L223.2316 105.4608
" />
<path d="M222.3426 105.8418
L223.2316 105.8418
" />
<path d="M223.2316 105.8418
L222.3426 106.3498
" />
<path d="M222.3426 106.3498
L223.2316 106.3498
" />
<path d="M222.4273 107.2811
L222.3849 107.2388
" />
<path d="M222.3849 107.2388
L222.3426 107.1118
" />
<path d="M222.3426 107.1118
L222.3426 107.0271
" />
<path d="M222.3426 107.0271
L222.3849 106.9001
" />
<path d="M222.3849 106.9001
L222.4696 106.8155
" />
<path d="M222.4696 106.8155
L222.5543 106.7731
" />
<path d="M222.5543 106.7731
L222.7236 106.7308
" />
<path d="M222.7236 106.7308
L222.8506 106.7308
" />
<path d="M222.8506 106.7308
L223.0199 106.7731
" />
<path d="M223.0199 106.7731
L223.1046 106.8155
" />
<path d="M223.1046 106.8155
L223.1893 106.9001
" />
<path d="M223.1893 106.9001
L223.2316 107.0271
" />
<path d="M223.2316 107.0271
L223.2316 107.1118
" />
<path d="M223.2316 107.1118
L223.1893 107.2388
" />
<path d="M223.1893 107.2388
L223.1469 107.2811
" />
<path d="M223.2316 107.8315
L223.2316 108.0008
" />
<path d="M223.2316 108.0008
L223.1893 108.0855
" />
<path d="M223.1893 108.0855
L223.1046 108.1701
" />
<path d="M223.1046 108.1701
L222.9353 108.2125
" />
<path d="M222.9353 108.2125
L222.6389 108.2125
" />
<path d="M222.6389 108.2125
L222.4696 108.1701
" />
<path d="M222.4696 108.1701
L222.3849 108.0855
" />
<path d="M222.3849 108.0855
L222.3426 108.0008
" />
<path d="M222.3426 108.0008
L222.3426 107.8315
" />
<path d="M222.3426 107.8315
L222.3849 107.7468
" />
<path d="M222.3849 107.7468
L222.4696 107.6621
" />
<path d="M222.4696 107.6621
L222.6389 107.6198
" />
<path d="M222.6389 107.6198
L222.9353 107.6198
" />
<path d="M222.9353 107.6198
L223.1046 107.6621
" />
<path d="M223.1046 107.6621
L223.1893 107.7468
" />
<path d="M223.1893 107.7468
L223.2316 107.8315
" />
<path d="M222.3426 108.5935
L223.2316 108.5935
" />
<path d="M223.2316 108.5935
L223.2316 108.8051
" />
<path d="M223.2316 108.8051
L223.1893 108.9321
" />
<path d="M223.1893 108.9321
L223.1046 109.0168
" />
<path d="M223.1046 109.0168
L223.0199 109.0591
" />
<path d="M223.0199 109.0591
L222.8506 109.1015
" />
<path d="M222.8506 109.1015
L222.7236 109.1015
" />
<path d="M222.7236 109.1015
L222.5543 109.0591
" />
<path d="M222.5543 109.0591
L222.4696 109.0168
" />
<path d="M222.4696 109.0168
L222.3849 108.9321
" />
<path d="M222.3849 108.9321
L222.3426 108.8051
" />
<path d="M222.3426 108.8051
L222.3426 108.5935
" />
<path d="M222.8083 109.4825
L222.8083 109.7788
" />
<path d="M222.3426 109.9058
L222.3426 109.4825
" />
<path d="M222.3426 109.4825
L223.2316 109.4825
" />
<path d="M223.2316 109.4825
L223.2316 109.9058
" />
<path d="M222.3426 110.7948
L222.7659 110.4985
" />
<path d="M222.3426 110.2868
L223.2316 110.2868
" />
<path d="M223.2316 110.2868
L223.2316 110.6255
" />
<path d="M223.2316 110.6255
L223.1893 110.7101
" />
<path d="M223.1893 110.7101
L223.1469 110.7525
" />
<path d="M223.1469 110.7525
L223.0623 110.7948
" />
<path d="M223.0623 110.7948
L222.9353 110.7948
" />
<path d="M222.9353 110.7948
L222.8506 110.7525
" />
<path d="M222.8506 110.7525
L222.8083 110.7101
" />
<path d="M222.8083 110.7101
L222.7659 110.6255
" />
<path d="M222.7659 110.6255
L222.7659 110.2868
" />
<path d="M223.2316 111.7261
L222.3426 112.0225
" />
<path d="M222.3426 112.0225
L223.2316 112.3188
" />
<path d="M222.3426 113.0808
L222.3426 112.5728
" />
<path d="M222.3426 112.8268
L223.2316 112.8268
" />
<path d="M223.2316 112.8268
L223.1046 112.7421
" />
<path d="M223.1046 112.7421
L223.0199 112.6575
" />
<path d="M223.0199 112.6575
L222.9776 112.5728
" />
</g><g transform="rotate(90.000000 221.8348 107.3658)">
<text x="221.8348" y="108.2548"
textLength="9.2541" font-size="1.1853" lengthAdjust="spacingAndGlyphs"
text-anchor="middle" opacity="0" stroke-opacity="0">971 SPARTAN</text>
</g>
<g class="stroked-text"><desc>971 SPARTAN</desc>
<path d="M220.9114 103.1325
L220.9114 103.3018
" />
<path d="M220.9114 103.3018
L220.9537 103.3865
" />
<path d="M220.9537 103.3865
L220.9960 103.4288
" />
<path d="M220.9960 103.4288
L221.1230 103.5135
" />
<path d="M221.1230 103.5135
L221.2924 103.5558
" />
<path d="M221.2924 103.5558
L221.6310 103.5558
" />
<path d="M221.6310 103.5558
L221.7157 103.5135
" />
<path d="M221.7157 103.5135
L221.7580 103.4711
" />
<path d="M221.7580 103.4711
L221.8004 103.3865
" />
<path d="M221.8004 103.3865
L221.8004 103.2171
" />
<path d="M221.8004 103.2171
L221.7580 103.1325
" />
<path d="M221.7580 103.1325
L221.7157 103.0901
" />
<path d="M221.7157 103.0901
L221.6310 103.0478
" />
<path d="M221.6310 103.0478
L221.4194 103.0478
" />
<path d="M221.4194 103.0478
L221.3347 103.0901
" />
<path d="M221.3347 103.0901
L221.2924 103.1325
" />
<path d="M221.2924 103.1325
L221.2500 103.2171
" />
<path d="M221.2500 103.2171
L221.2500 103.3865
" />
<path d="M221.2500 103.3865
L221.2924 103.4711
" />
<path d="M221.2924 103.4711
L221.3347 103.5135
" />
<path d="M221.3347 103.5135
L221.4194 103.5558
" />
<path d="M221.8004 103.8521
L221.8004 104.4448
" />
<path d="M221.8004 104.4448
L220.9114 104.0638
" />
<path d="M220.9114 105.2491
L220.9114 104.7411
" />
<path d="M220.9114 104.9951
L221.8004 104.9951
" />
<path d="M221.8004 104.9951
L221.6734 104.9105
" />
<path d="M221.6734 104.9105
L221.5887 104.8258
" />
<path d="M221.5887 104.8258
L221.5464 104.7411
" />
<path d="M220.9537 106.2651
L220.9114 106.3921
" />
<path d="M220.9114 106.3921
L220.9114 106.6038
" />
<path d="M220.9114 106.6038
L220.9537 106.6885
" />
<path d="M220.9537 106.6885
L220.9960 106.7308
" />
<path d="M220.9960 106.7308
L221.0807 106.7731
" />
<path d="M221.0807 106.7731
L221.1654 106.7731
" />
<path d="M221.1654 106.7731
L221.2500 106.7308
" />
<path d="M221.2500 106.7308
L221.2924 106.6885
" />
<path d="M221.2924 106.6885
L221.3347 106.6038
" />
<path d="M221.3347 106.6038
L221.3770 106.4345
" />
<path d="M221.3770 106.4345
L221.4194 106.3498
" />
<path d="M221.4194 106.3498
L221.4617 106.3075
" />
<path d="M221.4617 106.3075
L221.5464 106.2651
" />
<path d="M221.5464 106.2651
L221.6310 106.2651
" />
<path d="M221.6310 106.2651
L221.7157 106.3075
" />
<path d="M221.7157 106.3075
L221.7580 106.3498
" />
<path d="M221.7580 106.3498
L221.8004 106.4345
" />
<path d="M221.8004 106.4345
L221.8004 106.6461
" />
<path d="M221.8004 106.6461
L221.7580 106.7731
" />
<path d="M220.9114 107.1541
L221.8004 107.1541
" />
<path d="M221.8004 107.1541
L221.8004 107.4928
" />
<path d="M221.8004 107.4928
L221.7580 107.5775
" />
<path d="M221.7580 107.5775
L221.7157 107.6198
" />
<path d="M221.7157 107.6198
L221.6310 107.6621
" />
<path d="M221.6310 107.6621
L221.5040 107.6621
" />
<path d="M221.5040 107.6621
L221.4194 107.6198
" />
<path d="M221.4194 107.6198
L221.3770 107.5775
" />
<path d="M221.3770 107.5775
L221.3347 107.4928
" />
<path d="M221.3347 107.4928
L221.3347 107.1541
" />
<path d="M221.1654 108.0008
L221.1654 108.4241
" />
<path d="M220.9114 107.9161
L221.8004 108.2125
" />
<path d="M221.8004 108.2125
L220.9114 108.5088
" />
<path d="M220.9114 109.3131
L221.3347 109.0168
" />
<path d="M220.9114 108.8051
L221.8004 108.8051
" />
<path d="M221.8004 108.8051
L221.8004 109.1438
" />
<path d="M221.8004 109.1438
L221.7580 109.2285
" />
<path d="M221.7580 109.2285
L221.7157 109.2708
" />
<path d="M221.7157 109.2708
L221.6310 109.3131
" />
<path d="M221.6310 109.3131
L221.5040 109.3131
" />
<path d="M221.5040 109.3131
L221.4194 109.2708
" />
<path d="M221.4194 109.2708
L221.3770 109.2285
" />
<path d="M221.3770 109.2285
L221.3347 109.1438
" />
<path d="M221.3347 109.1438
L221.3347 108.8051
" />
<path d="M221.8004 109.5671
L221.8004 110.0751
" />
<path d="M220.9114 109.8211
L221.8004 109.8211
" />
<path d="M221.1654 110.3291
L221.1654 110.7525
" />
<path d="M220.9114 110.2445
L221.8004 110.5408
" />
<path d="M221.8004 110.5408
L220.9114 110.8371
" />
<path d="M220.9114 111.1335
L221.8004 111.1335
" />
<path d="M221.8004 111.1335
L220.9114 111.6415
" />
<path d="M220.9114 111.6415
L221.8004 111.6415
" />
</g><g transform="rotate(90.000000 220.4035 107.3658)">
<text x="220.4035" y="108.2548"
textLength="7.4337" font-size="1.1853" lengthAdjust="spacingAndGlyphs"
text-anchor="middle" opacity="0" stroke-opacity="0">ROBOTICS </text>
</g>
<g class="stroked-text"><desc>ROBOTICS </desc>
<path d="M219.4801 104.5083
L219.9034 104.2120
" />
<path d="M219.4801 104.0003
L220.3691 104.0003
" />
<path d="M220.3691 104.0003
L220.3691 104.3390
" />
<path d="M220.3691 104.3390
L220.3268 104.4236
" />
<path d="M220.3268 104.4236
L220.2844 104.4660
" />
<path d="M220.2844 104.4660
L220.1998 104.5083
" />
<path d="M220.1998 104.5083
L220.0728 104.5083
" />
<path d="M220.0728 104.5083
L219.9881 104.4660
" />
<path d="M219.9881 104.4660
L219.9458 104.4236
" />
<path d="M219.9458 104.4236
L219.9034 104.3390
" />
<path d="M219.9034 104.3390
L219.9034 104.0003
" />
<path d="M220.3691 105.0586
L220.3691 105.2280
" />
<path d="M220.3691 105.2280
L220.3268 105.3126
" />
<path d="M220.3268 105.3126
L220.2421 105.3973
" />
<path d="M220.2421 105.3973
L220.0728 105.4396
" />
<path d="M220.0728 105.4396
L219.7764 105.4396
" />
<path d="M219.7764 105.4396
L219.6071 105.3973
" />
<path d="M219.6071 105.3973
L219.5224 105.3126
" />
<path d="M219.5224 105.3126
L219.4801 105.2280
" />
<path d="M219.4801 105.2280
L219.4801 105.0586
" />
<path d="M219.4801 105.0586
L219.5224 104.9740
" />
<path d="M219.5224 104.9740
L219.6071 104.8893
" />
<path d="M219.6071 104.8893
L219.7764 104.8470
" />
<path d="M219.7764 104.8470
L220.0728 104.8470
" />
<path d="M220.0728 104.8470
L220.2421 104.8893
" />
<path d="M220.2421 104.8893
L220.3268 104.9740
" />
<path d="M220.3268 104.9740
L220.3691 105.0586
" />
<path d="M219.9458 106.1170
L219.9034 106.2440
" />
<path d="M219.9034 106.2440
L219.8611 106.2863
" />
<path d="M219.8611 106.2863
L219.7764 106.3286
" />
<path d="M219.7764 106.3286
L219.6494 106.3286
" />
<path d="M219.6494 106.3286
L219.5648 106.2863
" />
<path d="M219.5648 106.2863
L219.5224 106.2440
" />
<path d="M219.5224 106.2440
L219.4801 106.1593
" />
<path d="M219.4801 106.1593
L219.4801 105.8206
" />
<path d="M219.4801 105.8206
L220.3691 105.8206
" />
<path d="M220.3691 105.8206
L220.3691 106.1170
" />
<path d="M220.3691 106.1170
L220.3268 106.2016
" />
<path d="M220.3268 106.2016
L220.2844 106.2440
" />
<path d="M220.2844 106.2440
L220.1998 106.2863
" />
<path d="M220.1998 106.2863
L220.1151 106.2863
" />
<path d="M220.1151 106.2863
L220.0304 106.2440
" />
<path d="M220.0304 106.2440
L219.9881 106.2016
" />
<path d="M219.9881 106.2016
L219.9458 106.1170
" />
<path d="M219.9458 106.1170
L219.9458 105.8206
" />
<path d="M220.3691 106.8790
L220.3691 107.0483
" />
<path d="M220.3691 107.0483
L220.3268 107.1330
" />
<path d="M220.3268 107.1330
L220.2421 107.2176
" />
<path d="M220.2421 107.2176
L220.0728 107.2600
" />
<path d="M220.0728 107.2600
L219.7764 107.2600
" />
<path d="M219.7764 107.2600
L219.6071 107.2176
" />
<path d="M219.6071 107.2176
L219.5224 107.1330
" />
<path d="M219.5224 107.1330
L219.4801 107.0483
" />
<path d="M219.4801 107.0483
L219.4801 106.8790
" />
<path d="M219.4801 106.8790
L219.5224 106.7943
" />
<path d="M219.5224 106.7943
L219.6071 106.7096
" />
<path d="M219.6071 106.7096
L219.7764 106.6673
" />
<path d="M219.7764 106.6673
L220.0728 106.6673
" />
<path d="M220.0728 106.6673
L220.2421 106.7096
" />
<path d="M220.2421 106.7096
L220.3268 106.7943
" />
<path d="M220.3268 106.7943
L220.3691 106.8790
" />
<path d="M220.3691 107.5140
L220.3691 108.0220
" />
<path d="M219.4801 107.7680
L220.3691 107.7680
" />
<path d="M219.4801 108.3183
L220.3691 108.3183
" />
<path d="M219.5648 109.2496
L219.5224 109.2073
" />
<path d="M219.5224 109.2073
L219.4801 109.0803
" />
<path d="M219.4801 109.0803
L219.4801 108.9956
" />
<path d="M219.4801 108.9956
L219.5224 108.8686
" />
<path d="M219.5224 108.8686
L219.6071 108.7840
" />
<path d="M219.6071 108.7840
L219.6918 108.7416
" />
<path d="M219.6918 108.7416
L219.8611 108.6993
" />
<path d="M219.8611 108.6993
L219.9881 108.6993
" />
<path d="M219.9881 108.6993
L220.1574 108.7416
" />
<path d="M220.1574 108.7416
L220.2421 108.7840
" />
<path d="M220.2421 108.7840
L220.3268 108.8686
" />
<path d="M220.3268 108.8686
L220.3691 108.9956
" />
<path d="M220.3691 108.9956
L220.3691 109.0803
" />
<path d="M220.3691 109.0803
L220.3268 109.2073
" />
<path d="M220.3268 109.2073
L220.2844 109.2496
" />
<path d="M219.5224 109.5883
L219.4801 109.7153
" />
<path d="M219.4801 109.7153
L219.4801 109.9270
" />
<path d="M219.4801 109.9270
L219.5224 110.0116
" />
<path d="M219.5224 110.0116
L219.5648 110.0540
" />
<path d="M219.5648 110.0540
L219.6494 110.0963
" />
<path d="M219.6494 110.0963
L219.7341 110.0963
" />
<path d="M219.7341 110.0963
L219.8188 110.0540
" />
<path d="M219.8188 110.0540
L219.8611 110.0116
" />
<path d="M219.8611 110.0116
L219.9034 109.9270
" />
<path d="M219.9034 109.9270
L219.9458 109.7576
" />
<path d="M219.9458 109.7576
L219.9881 109.6730
" />
<path d="M219.9881 109.6730
L220.0304 109.6306
" />
<path d="M220.0304 109.6306
L220.1151 109.5883
" />
<path d="M220.1151 109.5883
L220.1998 109.5883
" />
<path d="M220.1998 109.5883
L220.2844 109.6306
" />
<path d="M220.2844 109.6306
L220.3268 109.6730
" />
<path d="M220.3268 109.6730
L220.3691 109.7576
" />
<path d="M220.3691 109.7576
L220.3691 109.9693
" />
<path d="M220.3691 109.9693
L220.3268 110.0963
" />
</g><g transform="rotate(90.000000 218.9723 107.3658)">
<text x="218.9723" y="108.2548"
textLength="3.6661" font-size="1.1853" lengthAdjust="spacingAndGlyphs"
text-anchor="middle" opacity="0" stroke-opacity="0">2024</text>
</g>
<g class="stroked-text"><desc>2024</desc>
<path d="M218.8532 105.8418
L218.8955 105.8841
" />
<path d="M218.8955 105.8841
L218.9379 105.9688
" />
<path d="M218.9379 105.9688
L218.9379 106.1805
" />
<path d="M218.9379 106.1805
L218.8955 106.2651
" />
<path d="M218.8955 106.2651
L218.8532 106.3075
" />
<path d="M218.8532 106.3075
L218.7685 106.3498
" />
<path d="M218.7685 106.3498
L218.6839 106.3498
" />
<path d="M218.6839 106.3498
L218.5569 106.3075
" />
<path d="M218.5569 106.3075
L218.0489 105.7995
" />
<path d="M218.0489 105.7995
L218.0489 106.3498
" />
<path d="M218.9379 106.9001
L218.9379 106.9848
" />
<path d="M218.9379 106.9848
L218.8955 107.0695
" />
<path d="M218.8955 107.0695
L218.8532 107.1118
" />
<path d="M218.8532 107.1118
L218.7685 107.1541
" />
<path d="M218.7685 107.1541
L218.5992 107.1965
" />
<path d="M218.5992 107.1965
L218.3875 107.1965
" />
<path d="M218.3875 107.1965
L218.2182 107.1541
" />
<path d="M218.2182 107.1541
L218.1335 107.1118
" />
<path d="M218.1335 107.1118
L218.0912 107.0695
" />
<path d="M218.0912 107.0695
L218.0489 106.9848
" />
<path d="M218.0489 106.9848
L218.0489 106.9001
" />
<path d="M218.0489 106.9001
L218.0912 106.8155
" />
<path d="M218.0912 106.8155
L218.1335 106.7731
" />
<path d="M218.1335 106.7731
L218.2182 106.7308
" />
<path d="M218.2182 106.7308
L218.3875 106.6885
" />
<path d="M218.3875 106.6885
L218.5992 106.6885
" />
<path d="M218.5992 106.6885
L218.7685 106.7308
" />
<path d="M218.7685 106.7308
L218.8532 106.7731
" />
<path d="M218.8532 106.7731
L218.8955 106.8155
" />
<path d="M218.8955 106.8155
L218.9379 106.9001
" />
<path d="M218.8532 107.5351
L218.8955 107.5775
" />
<path d="M218.8955 107.5775
L218.9379 107.6621
" />
<path d="M218.9379 107.6621
L218.9379 107.8738
" />
<path d="M218.9379 107.8738
L218.8955 107.9585
" />
<path d="M218.8955 107.9585
L218.8532 108.0008
" />
<path d="M218.8532 108.0008
L218.7685 108.0431
" />
<path d="M218.7685 108.0431
L218.6839 108.0431
" />
<path d="M218.6839 108.0431
L218.5569 108.0008
" />
<path d="M218.5569 108.0008
L218.0489 107.4928
" />
<path d="M218.0489 107.4928
L218.0489 108.0431
" />
<path d="M218.6415 108.8051
L218.0489 108.8051
" />
<path d="M218.9802 108.5935
L218.3452 108.3818
" />
<path d="M218.3452 108.3818
L218.3452 108.9321
" />
</g></g>
<g style="fill:none; 
stroke:#000000; stroke-width:0.1270; stroke-opacity:1; 
stroke-linecap:round; stroke-linejoin:round;">
<text x="207.5688" y="110.1979"
textLength="1.4938" font-size="0.8467" lengthAdjust="spacingAndGlyphs"
text-anchor="middle" opacity="0" stroke-opacity="0">R3</text>
<g class="stroked-text"><desc>R3</desc>
<path d="M207.4630 110.1676
L207.2513 109.8652
" />
<path d="M207.1001 110.1676
L207.1001 109.5326
" />
<path d="M207.1001 109.5326
L207.3420 109.5326
" />
<path d="M207.3420 109.5326
L207.4025 109.5628
" />
<path d="M207.4025 109.5628
L207.4327 109.5930
" />
<path d="M207.4327 109.5930
L207.4630 109.6535
" />
<path d="M207.4630 109.6535
L207.4630 109.7442
" />
<path d="M207.4630 109.7442
L207.4327 109.8047
" />
<path d="M207.4327 109.8047
L207.4025 109.8349
" />
<path d="M207.4025 109.8349
L207.3420 109.8652
" />
<path d="M207.3420 109.8652
L207.1001 109.8652
" />
<path d="M207.6746 109.5326
L208.0677 109.5326
" />
<path d="M208.0677 109.5326
L207.8561 109.7745
" />
<path d="M207.8561 109.7745
L207.9468 109.7745
" />
<path d="M207.9468 109.7745
L208.0073 109.8047
" />
<path d="M208.0073 109.8047
L208.0375 109.8349
" />
<path d="M208.0375 109.8349
L208.0677 109.8954
" />
<path d="M208.0677 109.8954
L208.0677 110.0466
" />
<path d="M208.0677 110.0466
L208.0375 110.1071
" />
<path d="M208.0375 110.1071
L208.0073 110.1373
" />
<path d="M208.0073 110.1373
L207.9468 110.1676
" />
<path d="M207.9468 110.1676
L207.7653 110.1676
" />
<path d="M207.7653 110.1676
L207.7049 110.1373
" />
<path d="M207.7049 110.1373
L207.6746 110.1071
" />
</g><g transform="rotate(90.000000 211.2264 115.3922)">
<text x="211.2264" y="115.7097"
textLength="1.4938" font-size="0.8467" lengthAdjust="spacingAndGlyphs"
text-anchor="middle" opacity="0" stroke-opacity="0">R4</text>
</g>
<g class="stroked-text"><desc>R4</desc>
<path d="M210.9392 115.2864
L211.2416 115.0747
" />
<path d="M210.9392 114.9235
L211.5742 114.9235
" />
<path d="M211.5742 114.9235
L211.5742 115.1654
" />
<path d="M211.5742 115.1654
L211.5440 115.2259
" />
<path d="M211.5440 115.2259
L211.5138 115.2561
" />
<path d="M211.5138 115.2561
L211.4533 115.2864
" />
<path d="M211.4533 115.2864
L211.3626 115.2864
" />
<path d="M211.3626 115.2864
L211.3021 115.2561
" />
<path d="M211.3021 115.2561
L211.2719 115.2259
" />
<path d="M211.2719 115.2259
L211.2416 115.1654
" />
<path d="M211.2416 115.1654
L211.2416 114.9235
" />
<path d="M211.3626 115.8307
L210.9392 115.8307
" />
<path d="M211.6045 115.6795
L211.1509 115.5283
" />
<path d="M211.1509 115.5283
L211.1509 115.9214
" />
</g><g transform="rotate(90.000000 214.2490 115.3922)">
<text x="214.2490" y="115.7097"
textLength="1.4938" font-size="0.8467" lengthAdjust="spacingAndGlyphs"
text-anchor="middle" opacity="0" stroke-opacity="0">R6</text>
</g>
<g class="stroked-text"><desc>R6</desc>
<path d="M213.9618 115.2864
L214.2642 115.0747
" />
<path d="M213.9618 114.9235
L214.5968 114.9235
" />
<path d="M214.5968 114.9235
L214.5968 115.1654
" />
<path d="M214.5968 115.1654
L214.5666 115.2259
" />
<path d="M214.5666 115.2259
L214.5364 115.2561
" />
<path d="M214.5364 115.2561
L214.4759 115.2864
" />
<path d="M214.4759 115.2864
L214.3852 115.2864
" />
<path d="M214.3852 115.2864
L214.3247 115.2561
" />
<path d="M214.3247 115.2561
L214.2945 115.2259
" />
<path d="M214.2945 115.2259
L214.2642 115.1654
" />
<path d="M214.2642 115.1654
L214.2642 114.9235
" />
<path d="M214.5968 115.8307
L214.5968 115.7097
" />
<path d="M214.5968 115.7097
L214.5666 115.6492
" />
<path d="M214.5666 115.6492
L214.5364 115.6190
" />
<path d="M214.5364 115.6190
L214.4457 115.5585
" />
<path d="M214.4457 115.5585
L214.3247 115.5283
" />
<path d="M214.3247 115.5283
L214.0828 115.5283
" />
<path d="M214.0828 115.5283
L214.0223 115.5585
" />
<path d="M214.0223 115.5585
L213.9921 115.5887
" />
<path d="M213.9921 115.5887
L213.9618 115.6492
" />
<path d="M213.9618 115.6492
L213.9618 115.7702
" />
<path d="M213.9618 115.7702
L213.9921 115.8307
" />
<path d="M213.9921 115.8307
L214.0223 115.8609
" />
<path d="M214.0223 115.8609
L214.0828 115.8911
" />
<path d="M214.0828 115.8911
L214.2340 115.8911
" />
<path d="M214.2340 115.8911
L214.2945 115.8609
" />
<path d="M214.2945 115.8609
L214.3247 115.8307
" />
<path d="M214.3247 115.8307
L214.3549 115.7702
" />
<path d="M214.3549 115.7702
L214.3549 115.6492
" />
<path d="M214.3549 115.6492
L214.3247 115.5887
" />
<path d="M214.3247 115.5887
L214.2945 115.5585
" />
<path d="M214.2945 115.5585
L214.2340 115.5283
" />
</g><text x="207.5688" y="105.1179"
textLength="1.4938" font-size="0.8467" lengthAdjust="spacingAndGlyphs"
text-anchor="middle" opacity="0" stroke-opacity="0">R2</text>
<g class="stroked-text"><desc>R2</desc>
<path d="M207.4630 105.0876
L207.2513 104.7852
" />
<path d="M207.1001 105.0876
L207.1001 104.4526
" />
<path d="M207.1001 104.4526
L207.3420 104.4526
" />
<path d="M207.3420 104.4526
L207.4025 104.4828
" />
<path d="M207.4025 104.4828
L207.4327 104.5130
" />
<path d="M207.4327 104.5130
L207.4630 104.5735
" />
<path d="M207.4630 104.5735
L207.4630 104.6642
" />
<path d="M207.4630 104.6642
L207.4327 104.7247
" />
<path d="M207.4327 104.7247
L207.4025 104.7549
" />
<path d="M207.4025 104.7549
L207.3420 104.7852
" />
<path d="M207.3420 104.7852
L207.1001 104.7852
" />
<path d="M207.7049 104.5130
L207.7351 104.4828
" />
<path d="M207.7351 104.4828
L207.7956 104.4526
" />
<path d="M207.7956 104.4526
L207.9468 104.4526
" />
<path d="M207.9468 104.4526
L208.0073 104.4828
" />
<path d="M208.0073 104.4828
L208.0375 104.5130
" />
<path d="M208.0375 104.5130
L208.0677 104.5735
" />
<path d="M208.0677 104.5735
L208.0677 104.6340
" />
<path d="M208.0677 104.6340
L208.0375 104.7247
" />
<path d="M208.0375 104.7247
L207.6746 105.0876
" />
<path d="M207.6746 105.0876
L208.0677 105.0876
" />
</g><g transform="rotate(90.000000 215.7730 115.3922)">
<text x="215.7730" y="115.7097"
textLength="1.4938" font-size="0.8467" lengthAdjust="spacingAndGlyphs"
text-anchor="middle" opacity="0" stroke-opacity="0">R7</text>
</g>
<g class="stroked-text"><desc>R7</desc>
<path d="M215.4858 115.2864
L215.7882 115.0747
" />
<path d="M215.4858 114.9235
L216.1208 114.9235
" />
<path d="M216.1208 114.9235
L216.1208 115.1654
" />
<path d="M216.1208 115.1654
L216.0906 115.2259
" />
<path d="M216.0906 115.2259
L216.0604 115.2561
" />
<path d="M216.0604 115.2561
L215.9999 115.2864
" />
<path d="M215.9999 115.2864
L215.9092 115.2864
" />
<path d="M215.9092 115.2864
L215.8487 115.2561
" />
<path d="M215.8487 115.2561
L215.8185 115.2259
" />
<path d="M215.8185 115.2259
L215.7882 115.1654
" />
<path d="M215.7882 115.1654
L215.7882 114.9235
" />
<path d="M216.1208 115.4980
L216.1208 115.9214
" />
<path d="M216.1208 115.9214
L215.4858 115.6492
" />
</g><text x="207.5688" y="102.5525"
textLength="1.4938" font-size="0.8467" lengthAdjust="spacingAndGlyphs"
text-anchor="middle" opacity="0" stroke-opacity="0">R1</text>
<g class="stroked-text"><desc>R1</desc>
<path d="M207.4630 102.5222
L207.2513 102.2198
" />
<path d="M207.1001 102.5222
L207.1001 101.8872
" />
<path d="M207.1001 101.8872
L207.3420 101.8872
" />
<path d="M207.3420 101.8872
L207.4025 101.9174
" />
<path d="M207.4025 101.9174
L207.4327 101.9476
" />
<path d="M207.4327 101.9476
L207.4630 102.0081
" />
<path d="M207.4630 102.0081
L207.4630 102.0988
" />
<path d="M207.4630 102.0988
L207.4327 102.1593
" />
<path d="M207.4327 102.1593
L207.4025 102.1895
" />
<path d="M207.4025 102.1895
L207.3420 102.2198
" />
<path d="M207.3420 102.2198
L207.1001 102.2198
" />
<path d="M208.0677 102.5222
L207.7049 102.5222
" />
<path d="M207.8863 102.5222
L207.8863 101.8872
" />
<path d="M207.8863 101.8872
L207.8258 101.9779
" />
<path d="M207.8258 101.9779
L207.7653 102.0383
" />
<path d="M207.7653 102.0383
L207.7049 102.0686
" />
</g><text x="203.2000" y="110.1979"
textLength="1.5240" font-size="0.8467" lengthAdjust="spacingAndGlyphs"
text-anchor="middle" opacity="0" stroke-opacity="0">U3</text>
<g class="stroked-text"><desc>U3</desc>
<path d="M202.7162 109.5326
L202.7162 110.0466
" />
<path d="M202.7162 110.0466
L202.7464 110.1071
" />
<path d="M202.7464 110.1071
L202.7767 110.1373
" />
<path d="M202.7767 110.1373
L202.8371 110.1676
" />
<path d="M202.8371 110.1676
L202.9581 110.1676
" />
<path d="M202.9581 110.1676
L203.0186 110.1373
" />
<path d="M203.0186 110.1373
L203.0488 110.1071
" />
<path d="M203.0488 110.1071
L203.0790 110.0466
" />
<path d="M203.0790 110.0466
L203.0790 109.5326
" />
<path d="M203.3210 109.5326
L203.7140 109.5326
" />
<path d="M203.7140 109.5326
L203.5024 109.7745
" />
<path d="M203.5024 109.7745
L203.5931 109.7745
" />
<path d="M203.5931 109.7745
L203.6536 109.8047
" />
<path d="M203.6536 109.8047
L203.6838 109.8349
" />
<path d="M203.6838 109.8349
L203.7140 109.8954
" />
<path d="M203.7140 109.8954
L203.7140 110.0466
" />
<path d="M203.7140 110.0466
L203.6838 110.1071
" />
<path d="M203.6838 110.1071
L203.6536 110.1373
" />
<path d="M203.6536 110.1373
L203.5931 110.1676
" />
<path d="M203.5931 110.1676
L203.4117 110.1676
" />
<path d="M203.4117 110.1676
L203.3512 110.1373
" />
<path d="M203.3512 110.1373
L203.3210 110.1071
" />
</g><g transform="rotate(90.000000 212.7250 115.3922)">
<text x="212.7250" y="115.7097"
textLength="1.4938" font-size="0.8467" lengthAdjust="spacingAndGlyphs"
text-anchor="middle" opacity="0" stroke-opacity="0">R5</text>
</g>
<g class="stroked-text"><desc>R5</desc>
<path d="M212.4378 115.2864
L212.7402 115.0747
" />
<path d="M212.4378 114.9235
L213.0728 114.9235
" />
<path d="M213.0728 114.9235
L213.0728 115.1654
" />
<path d="M213.0728 115.1654
L213.0426 115.2259
" />
<path d="M213.0426 115.2259
L213.0124 115.2561
" />
<path d="M213.0124 115.2561
L212.9519 115.2864
" />
<path d="M212.9519 115.2864
L212.8612 115.2864
" />
<path d="M212.8612 115.2864
L212.8007 115.2561
" />
<path d="M212.8007 115.2561
L212.7705 115.2259
" />
<path d="M212.7705 115.2259
L212.7402 115.1654
" />
<path d="M212.7402 115.1654
L212.7402 114.9235
" />
<path d="M213.0728 115.8609
L213.0728 115.5585
" />
<path d="M213.0728 115.5585
L212.7705 115.5283
" />
<path d="M212.7705 115.5283
L212.8007 115.5585
" />
<path d="M212.8007 115.5585
L212.8309 115.6190
" />
<path d="M212.8309 115.6190
L212.8309 115.7702
" />
<path d="M212.8309 115.7702
L212.8007 115.8307
" />
<path d="M212.8007 115.8307
L212.7705 115.8609
" />
<path d="M212.7705 115.8609
L212.7100 115.8911
" />
<path d="M212.7100 115.8911
L212.5588 115.8911
" />
<path d="M212.5588 115.8911
L212.4983 115.8609
" />
<path d="M212.4983 115.8609
L212.4681 115.8307
" />
<path d="M212.4681 115.8307
L212.4378 115.7702
" />
<path d="M212.4378 115.7702
L212.4378 115.6190
" />
<path d="M212.4378 115.6190
L212.4681 115.5585
" />
<path d="M212.4681 115.5585
L212.4983 115.5283
" />
</g></g>
<g style="fill:none; 
stroke:#000000; stroke-width:0.1200; stroke-opacity:1; 
stroke-linecap:round; stroke-linejoin:round;">
<path d="M209.7873 109.3325
L209.3127 109.3325
" />
<path d="M209.7873 110.3775
L209.3127 110.3775
" />
<path d="M211.7235 113.6483
L211.7235 113.1737
" />
<path d="M210.6785 113.6483
L210.6785 113.1737
" />
<path d="M214.7715 113.6483
L214.7715 113.1737
" />
<path d="M213.7265 113.6483
L213.7265 113.1737
" />
<path d="M209.7873 104.2525
L209.3127 104.2525
" />
<path d="M209.7873 105.2975
L209.3127 105.2975
" />
<path d="M216.2955 113.1737
L216.2955 113.6483
" />
<path d="M215.2505 113.1737
L215.2505 113.6483
" />
<path d="M209.7873 101.7125
L209.3127 101.7125
" />
<path d="M209.7873 102.7575
L209.3127 102.7575
" />
<path d="M204.8100 105.7050
L204.8100 106.1800
" />
<path d="M204.8100 108.9250
L204.8100 108.4500
" />
<path d="M204.3350 105.7050
L204.8100 105.7050
" />
<path d="M204.3350 108.9250
L204.8100 108.9250
" />
<path d="M202.0650 105.7050
L201.5900 105.7050
" />
<path d="M201.8300 108.9250
L202.0650 108.9250
" />
<path d="M201.5900 105.7050
L201.5900 106.1800
" />
<path d="M201.5900 108.6250
L201.5900 108.4500
" />
<path style="fill:#000000; fill-opacity:1.0000; 
stroke:#000000; stroke-width:0.1200; stroke-opacity:1; 
stroke-linecap:round; stroke-linejoin:round;fill-rule:evenodd;"
d="M 201.2600,109.1650
201.5900,108.9250
201.2600,108.6850
Z" /> 
</g>
<g style="fill:none; 
stroke:#000000; stroke-width:0.1200; stroke-opacity:1; 
stroke-linecap:round; stroke-linejoin:round;">
<path d="M213.2475 113.6483
L213.2475 113.1737
" />
<path d="M212.2025 113.6483
L212.2025 113.1737
" />
</g>
<g style="fill:#000000; fill-opacity:1.0000; stroke:none;">
<circle cx="207.7720" cy="97.1550" r="1.2700" /> 
</g>
<g style="fill:#000000; fill-opacity:1.0000; stroke:none;">
<circle cx="203.2000" cy="120.0150" r="1.6000" /> 
</g>
<g style="fill:#000000; fill-opacity:1.0000; stroke:none;">
<circle cx="219.8550" cy="100.8350" r="1.7000" /> 
</g>
<g style="fill:#000000; fill-opacity:1.0000; stroke:none;">
<circle cx="219.8550" cy="113.7950" r="1.7000" /> 
<path style="fill:#000000; fill-opacity:1.0000; stroke:none;fill-rule:evenodd;"
d="M 220.6380,94.8300
222.3380,94.8300
222.3380,93.1300
220.6380,93.1300
Z" /> 
</g>
<g style="fill:#000000; fill-opacity:1.0000; stroke:none;">
<circle cx="218.9480" cy="93.9800" r="0.8500" /> 
<circle cx="216.4080" cy="93.9800" r="0.8500" /> 
<circle cx="213.8680" cy="93.9800" r="0.8500" /> 
<circle cx="211.3280" cy="93.9800" r="0.8500" /> 
<circle cx="208.7880" cy="93.9800" r="0.8500" /> 
</g>
<g style="fill:none; 
stroke:#000000; stroke-width:2.5400; stroke-opacity:1; 
stroke-linecap:round; stroke-linejoin:round;">
<path d="M207.6720 117.7290
L207.6720 117.2210
" />
</g>
<g style="fill:#000000; fill-opacity:1.0000; stroke:none;">
<circle cx="203.2000" cy="94.6150" r="1.6000" /> 
<path style="fill:#000000; fill-opacity:1.0000; stroke:none;fill-rule:evenodd;"
d="M 208.3250,110.1300
208.3402,110.2065
208.3836,110.2714
208.4485,110.3148
208.5250,110.3300
208.9250,110.3300
209.0015,110.3148
209.0664,110.2714
209.1098,110.2065
209.1250,110.1300
209.1250,109.5800
209.1098,109.5035
209.0664,109.4386
209.0015,109.3952
208.9250,109.3800
208.5250,109.3800
208.4485,109.3952
208.3836,109.4386
208.3402,109.5035
208.3250,109.5800
Z" /> 
<path style="fill:#000000; fill-opacity:1.0000; stroke:none;fill-rule:evenodd;"
d="M 209.9750,110.1300
209.9902,110.2065
210.0336,110.2714
210.0985,110.3148
210.1750,110.3300
210.5750,110.3300
210.6515,110.3148
210.7164,110.2714
210.7598,110.2065
210.7750,110.1300
210.7750,109.5800
210.7598,109.5035
210.7164,109.4386
210.6515,109.3952
210.5750,109.3800
210.1750,109.3800
210.0985,109.3952
210.0336,109.4386
209.9902,109.5035
209.9750,109.5800
Z" /> 
<path style="fill:#000000; fill-opacity:1.0000; stroke:none;fill-rule:evenodd;"
d="M 210.9260,112.1860
210.8495,112.2012
210.7846,112.2446
210.7412,112.3095
210.7260,112.3860
210.7260,112.7860
210.7412,112.8625
210.7846,112.9274
210.8495,112.9708
210.9260,112.9860
211.4760,112.9860
211.5525,112.9708
211.6174,112.9274
211.6608,112.8625
211.6760,112.7860
211.6760,112.3860
211.6608,112.3095
211.6174,112.2446
211.5525,112.2012
211.4760,112.1860
Z" /> 
<path style="fill:#000000; fill-opacity:1.0000; stroke:none;fill-rule:evenodd;"
d="M 210.9260,113.8360
210.8495,113.8512
210.7846,113.8946
210.7412,113.9595
210.7260,114.0360
210.7260,114.4360
210.7412,114.5125
210.7846,114.5774
210.8495,114.6208
210.9260,114.6360
211.4760,114.6360
211.5525,114.6208
211.6174,114.5774
211.6608,114.5125
211.6760,114.4360
211.6760,114.0360
211.6608,113.9595
211.6174,113.8946
211.5525,113.8512
211.4760,113.8360
Z" /> 
<path style="fill:#000000; fill-opacity:1.0000; stroke:none;fill-rule:evenodd;"
d="M 213.9740,112.1860
213.8975,112.2012
213.8326,112.2446
213.7892,112.3095
213.7740,112.3860
213.7740,112.7860
213.7892,112.8625
213.8326,112.9274
213.8975,112.9708
213.9740,112.9860
214.5240,112.9860
214.6005,112.9708
214.6654,112.9274
214.7088,112.8625
214.7240,112.7860
214.7240,112.3860
214.7088,112.3095
214.6654,112.2446
214.6005,112.2012
214.5240,112.1860
Z" /> 
<path style="fill:#000000; fill-opacity:1.0000; stroke:none;fill-rule:evenodd;"
d="M 213.9740,113.8360
213.8975,113.8512
213.8326,113.8946
213.7892,113.9595
213.7740,114.0360
213.7740,114.4360
213.7892,114.5125
213.8326,114.5774
213.8975,114.6208
213.9740,114.6360
214.5240,114.6360
214.6005,114.6208
214.6654,114.5774
214.7088,114.5125
214.7240,114.4360
214.7240,114.0360
214.7088,113.9595
214.6654,113.8946
214.6005,113.8512
214.5240,113.8360
Z" /> 
<path style="fill:#000000; fill-opacity:1.0000; stroke:none;fill-rule:evenodd;"
d="M 208.3250,105.0500
208.3402,105.1265
208.3836,105.1914
208.4485,105.2348
208.5250,105.2500
208.9250,105.2500
209.0015,105.2348
209.0664,105.1914
209.1098,105.1265
209.1250,105.0500
209.1250,104.5000
209.1098,104.4235
209.0664,104.3586
209.0015,104.3152
208.9250,104.3000
208.5250,104.3000
208.4485,104.3152
208.3836,104.3586
208.3402,104.4235
208.3250,104.5000
Z" /> 
<path style="fill:#000000; fill-opacity:1.0000; stroke:none;fill-rule:evenodd;"
d="M 209.9750,105.0500
209.9902,105.1265
210.0336,105.1914
210.0985,105.2348
210.1750,105.2500
210.5750,105.2500
210.6515,105.2348
210.7164,105.1914
210.7598,105.1265
210.7750,105.0500
210.7750,104.5000
210.7598,104.4235
210.7164,104.3586
210.6515,104.3152
210.5750,104.3000
210.1750,104.3000
210.0985,104.3152
210.0336,104.3586
209.9902,104.4235
209.9750,104.5000
Z" /> 
<path style="fill:#000000; fill-opacity:1.0000; stroke:none;fill-rule:evenodd;"
d="M 216.0480,114.6360
216.1245,114.6208
216.1894,114.5774
216.2328,114.5125
216.2480,114.4360
216.2480,114.0360
216.2328,113.9595
216.1894,113.8946
216.1245,113.8512
216.0480,113.8360
215.4980,113.8360
215.4215,113.8512
215.3566,113.8946
215.3132,113.9595
215.2980,114.0360
215.2980,114.4360
215.3132,114.5125
215.3566,114.5774
215.4215,114.6208
215.4980,114.6360
Z" /> 
<path style="fill:#000000; fill-opacity:1.0000; stroke:none;fill-rule:evenodd;"
d="M 216.0480,112.9860
216.1245,112.9708
216.1894,112.9274
216.2328,112.8625
216.2480,112.7860
216.2480,112.3860
216.2328,112.3095
216.1894,112.2446
216.1245,112.2012
216.0480,112.1860
215.4980,112.1860
215.4215,112.2012
215.3566,112.2446
215.3132,112.3095
215.2980,112.3860
215.2980,112.7860
215.3132,112.8625
215.3566,112.9274
215.4215,112.9708
215.4980,112.9860
Z" /> 
<path style="fill:#000000; fill-opacity:1.0000; stroke:none;fill-rule:evenodd;"
d="M 208.3250,102.5100
208.3402,102.5865
208.3836,102.6514
208.4485,102.6948
208.5250,102.7100
208.9250,102.7100
209.0015,102.6948
209.0664,102.6514
209.1098,102.5865
209.1250,102.5100
209.1250,101.9600
209.1098,101.8835
209.0664,101.8186
209.0015,101.7752
208.9250,101.7600
208.5250,101.7600
208.4485,101.7752
208.3836,101.8186
208.3402,101.8835
208.3250,101.9600
Z" /> 
<path style="fill:#000000; fill-opacity:1.0000; stroke:none;fill-rule:evenodd;"
d="M 209.9750,102.5100
209.9902,102.5865
210.0336,102.6514
210.0985,102.6948
210.1750,102.7100
210.5750,102.7100
210.6515,102.6948
210.7164,102.6514
210.7598,102.5865
210.7750,102.5100
210.7750,101.9600
210.7598,101.8835
210.7164,101.8186
210.6515,101.7752
210.5750,101.7600
210.1750,101.7600
210.0985,101.7752
210.0336,101.8186
209.9902,101.8835
209.9750,101.9600
Z" /> 
<path style="fill:#000000; fill-opacity:1.0000; stroke:none;fill-rule:evenodd;"
d="M 202.5245,109.1150
202.5484,109.1102
202.5687,109.0967
202.5822,109.0764
202.5870,109.0525
202.5870,108.4775
202.5822,108.4536
202.5687,108.4333
202.5484,108.4198
202.5245,108.4150
202.3995,108.4150
202.3756,108.4198
202.3553,108.4333
202.3418,108.4536
202.3370,108.4775
202.3370,109.0525
202.3418,109.0764
202.3553,109.0967
202.3756,109.1102
202.3995,109.1150
Z" /> 
<path style="fill:#000000; fill-opacity:1.0000; stroke:none;fill-rule:evenodd;"
d="M 203.0245,109.1150
203.0484,109.1102
203.0687,109.0967
203.0822,109.0764
203.0870,109.0525
203.0870,108.4775
203.0822,108.4536
203.0687,108.4333
203.0484,108.4198
203.0245,108.4150
202.8995,108.4150
202.8756,108.4198
202.8553,108.4333
202.8418,108.4536
202.8370,108.4775
202.8370,109.0525
202.8418,109.0764
202.8553,109.0967
202.8756,109.1102
202.8995,109.1150
Z" /> 
<path style="fill:#000000; fill-opacity:1.0000; stroke:none;fill-rule:evenodd;"
d="M 203.5245,109.1150
203.5484,109.1102
203.5687,109.0967
203.5822,109.0764
203.5870,109.0525
203.5870,108.4775
203.5822,108.4536
203.5687,108.4333
203.5484,108.4198
203.5245,108.4150
203.3995,108.4150
203.3756,108.4198
203.3553,108.4333
203.3418,108.4536
203.3370,108.4775
203.3370,109.0525
203.3418,109.0764
203.3553,109.0967
203.3756,109.1102
203.3995,109.1150
Z" /> 
<path style="fill:#000000; fill-opacity:1.0000; stroke:none;fill-rule:evenodd;"
d="M 204.0245,109.1150
204.0484,109.1102
204.0687,109.0967
204.0822,109.0764
204.0870,109.0525
204.0870,108.4775
204.0822,108.4536
204.0687,108.4333
204.0484,108.4198
204.0245,108.4150
203.8995,108.4150
203.8756,108.4198
203.8553,108.4333
203.8418,108.4536
203.8370,108.4775
203.8370,109.0525
203.8418,109.0764
203.8553,109.0967
203.8756,109.1102
203.8995,109.1150
Z" /> 
<path style="fill:#000000; fill-opacity:1.0000; stroke:none;fill-rule:evenodd;"
d="M 204.9375,108.1900
204.9614,108.1852
204.9817,108.1717
204.9952,108.1514
205.0000,108.1275
205.0000,108.0025
204.9952,107.9786
204.9817,107.9583
204.9614,107.9448
204.9375,107.9400
204.3625,107.9400
204.3386,107.9448
204.3183,107.9583
204.3048,107.9786
204.3000,108.0025
204.3000,108.1275
204.3048,108.1514
204.3183,108.1717
204.3386,108.1852
204.3625,108.1900
Z" /> 
<path style="fill:#000000; fill-opacity:1.0000; stroke:none;fill-rule:evenodd;"
d="M 204.9375,107.6900
204.9614,107.6852
204.9817,107.6717
204.9952,107.6514
205.0000,107.6275
205.0000,107.5025
204.9952,107.4786
204.9817,107.4583
204.9614,107.4448
204.9375,107.4400
204.3625,107.4400
204.3386,107.4448
204.3183,107.4583
204.3048,107.4786
204.3000,107.5025
204.3000,107.6275
204.3048,107.6514
204.3183,107.6717
204.3386,107.6852
204.3625,107.6900
Z" /> 
<path style="fill:#000000; fill-opacity:1.0000; stroke:none;fill-rule:evenodd;"
d="M 204.9375,107.1900
204.9614,107.1852
204.9817,107.1717
204.9952,107.1514
205.0000,107.1275
205.0000,107.0025
204.9952,106.9786
204.9817,106.9583
204.9614,106.9448
204.9375,106.9400
204.3625,106.9400
204.3386,106.9448
204.3183,106.9583
204.3048,106.9786
204.3000,107.0025
204.3000,107.1275
204.3048,107.1514
204.3183,107.1717
204.3386,107.1852
204.3625,107.1900
Z" /> 
<path style="fill:#000000; fill-opacity:1.0000; stroke:none;fill-rule:evenodd;"
d="M 204.9375,106.6900
204.9614,106.6852
204.9817,106.6717
204.9952,106.6514
205.0000,106.6275
205.0000,106.5025
204.9952,106.4786
204.9817,106.4583
204.9614,106.4448
204.9375,106.4400
204.3625,106.4400
204.3386,106.4448
204.3183,106.4583
204.3048,106.4786
204.3000,106.5025
204.3000,106.6275
204.3048,106.6514
204.3183,106.6717
204.3386,106.6852
204.3625,106.6900
Z" /> 
<path style="fill:#000000; fill-opacity:1.0000; stroke:none;fill-rule:evenodd;"
d="M 204.0125,106.2150
204.0364,106.2102
204.0567,106.1967
204.0702,106.1764
204.0750,106.1525
204.0750,105.5775
204.0702,105.5536
204.0567,105.5333
204.0364,105.5198
204.0125,105.5150
203.8875,105.5150
203.8636,105.5198
203.8433,105.5333
203.8298,105.5536
203.8250,105.5775
203.8250,106.1525
203.8298,106.1764
203.8433,106.1967
203.8636,106.2102
203.8875,106.2150
Z" /> 
<path style="fill:#000000; fill-opacity:1.0000; stroke:none;fill-rule:evenodd;"
d="M 203.5125,106.2150
203.5364,106.2102
203.5567,106.1967
203.5702,106.1764
203.5750,106.1525
203.5750,105.5775
203.5702,105.5536
203.5567,105.5333
203.5364,105.5198
203.5125,105.5150
203.3875,105.5150
203.3636,105.5198
203.3433,105.5333
203.3298,105.5536
203.3250,105.5775
203.3250,106.1525
203.3298,106.1764
203.3433,106.1967
203.3636,106.2102
203.3875,106.2150
Z" /> 
<path style="fill:#000000; fill-opacity:1.0000; stroke:none;fill-rule:evenodd;"
d="M 203.0125,106.2150
203.0364,106.2102
203.0567,106.1967
203.0702,106.1764
203.0750,106.1525
203.0750,105.5775
203.0702,105.5536
203.0567,105.5333
203.0364,105.5198
203.0125,105.5150
202.8875,105.5150
202.8636,105.5198
202.8433,105.5333
202.8298,105.5536
202.8250,105.5775
202.8250,106.1525
202.8298,106.1764
202.8433,106.1967
202.8636,106.2102
202.8875,106.2150
Z" /> 
<path style="fill:#000000; fill-opacity:1.0000; stroke:none;fill-rule:evenodd;"
d="M 202.5125,106.2150
202.5364,106.2102
202.5567,106.1967
202.5702,106.1764
202.5750,106.1525
202.5750,105.5775
202.5702,105.5536
202.5567,105.5333
202.5364,105.5198
202.5125,105.5150
202.3875,105.5150
202.3636,105.5198
202.3433,105.5333
202.3298,105.5536
202.3250,105.5775
202.3250,106.1525
202.3298,106.1764
202.3433,106.1967
202.3636,106.2102
202.3875,106.2150
Z" /> 
<path style="fill:#000000; fill-opacity:1.0000; stroke:none;fill-rule:evenodd;"
d="M 202.0375,106.6900
202.0614,106.6852
202.0817,106.6717
202.0952,106.6514
202.1000,106.6275
202.1000,106.5025
202.0952,106.4786
202.0817,106.4583
202.0614,106.4448
202.0375,106.4400
201.4625,106.4400
201.4386,106.4448
201.4183,106.4583
201.4048,106.4786
201.4000,106.5025
201.4000,106.6275
201.4048,106.6514
201.4183,106.6717
201.4386,106.6852
201.4625,106.6900
Z" /> 
<path style="fill:#000000; fill-opacity:1.0000; stroke:none;fill-rule:evenodd;"
d="M 202.0375,107.1900
202.0614,107.1852
202.0817,107.1717
202.0952,107.1514
202.1000,107.1275
202.1000,107.0025
202.0952,106.9786
202.0817,106.9583
202.0614,106.9448
202.0375,106.9400
201.4625,106.9400
201.4386,106.9448
201.4183,106.9583
201.4048,106.9786
201.4000,107.0025
201.4000,107.1275
201.4048,107.1514
201.4183,107.1717
201.4386,107.1852
201.4625,107.1900
Z" /> 
<path style="fill:#000000; fill-opacity:1.0000; stroke:none;fill-rule:evenodd;"
d="M 202.0375,107.6900
202.0614,107.6852
202.0817,107.6717
202.0952,107.6514
202.1000,107.6275
202.1000,107.5025
202.0952,107.4786
202.0817,107.4583
202.0614,107.4448
202.0375,107.4400
201.4625,107.4400
201.4386,107.4448
201.4183,107.4583
201.4048,107.4786
201.4000,107.5025
201.4000,107.6275
201.4048,107.6514
201.4183,107.6717
201.4386,107.6852
201.4625,107.6900
Z" /> 
<path style="fill:#000000; fill-opacity:1.0000; stroke:none;fill-rule:evenodd;"
d="M 202.0375,108.1900
202.0614,108.1852
202.0817,108.1717
202.0952,108.1514
202.1000,108.1275
202.1000,108.0025
202.0952,107.9786
202.0817,107.9583
202.0614,107.9448
202.0375,107.9400
201.4625,107.9400
201.4386,107.9448
201.4183,107.9583
201.4048,107.9786
201.4000,108.0025
201.4000,108.1275
201.4048,108.1514
201.4183,108.1717
201.4386,108.1852
201.4625,108.1900
Z" /> 
<path style="fill:#000000; fill-opacity:1.0000; stroke:none;fill-rule:evenodd;"
d="M 202.3500,108.1650
204.0500,108.1650
204.0500,106.4650
202.3500,106.4650
Z" /> 
<path style="fill:#000000; fill-opacity:1.0000; stroke:none;fill-rule:evenodd;"
d="M 212.4500,112.1860
212.3735,112.2012
212.3086,112.2446
212.2652,112.3095
212.2500,112.3860
212.2500,112.7860
212.2652,112.8625
212.3086,112.9274
212.3735,112.9708
212.4500,112.9860
213.0000,112.9860
213.0765,112.9708
213.1414,112.9274
213.1848,112.8625
213.2000,112.7860
213.2000,112.3860
213.1848,112.3095
213.1414,112.2446
213.0765,112.2012
213.0000,112.1860
Z" /> 
<path style="fill:#000000; fill-opacity:1.0000; stroke:none;fill-rule:evenodd;"
d="M 212.4500,113.8360
212.3735,113.8512
212.3086,113.8946
212.2652,113.9595
212.2500,114.0360
212.2500,114.4360
212.2652,114.5125
212.3086,114.5774
212.3735,114.6208
212.4500,114.6360
213.0000,114.6360
213.0765,114.6208
213.1414,114.5774
213.1848,114.5125
213.2000,114.4360
213.2000,114.0360
213.1848,113.9595
213.1414,113.8946
213.0765,113.8512
213.0000,113.8360
Z" /> 
</g>
<g style="fill:none; 
stroke:#000000; stroke-width:0.0500; stroke-opacity:1; 
stroke-linecap:round; stroke-linejoin:round;">
<path d="M200.0250 121.9200 A1.2700 1.2700 0.0 0 0 201.2950 123.1900" />
<path d="M224.1550 92.7100 A1.2700 1.2700 0.0 0 0 222.8850 91.4400" />
<path d="M201.2950 91.4400 A1.2700 1.2700 0.0 0 0 200.0250 92.7100" />
<path d="M200.0250 121.9200
L200.0250 92.7100
" />
<path d="M224.1550 92.7100
L224.1550 121.9200
" />
<path d="M222.8850 123.1900
L201.2950 123.1900
" />
<path d="M201.2950 91.4400
L222.8850 91.4400
" />
<path d="M222.8850 123.1900 A1.2700 1.2700 0.0 0 0 224.1550 121.9200" />
</g> 
</svg>
