  0
SECTION
  2
HEADER
  9
$ANGBASE
  50
0.0
  9
$ANGDIR
  70
1
  9
$MEASUREMENT
  70
0
  0
ENDSEC
  0
SECTION
  2
TABLES
  0
TABLE
  2
LTYPE
  70
4
  0
LTYPE
  5
40F
  2
CONTINUOUS
  70
0
  3
Solid line
  72
65
  73
0
  40
0.0
  0
LTYPE
  5
410
  2
DASHDOT
 70
0
  3
Dash Dot ____ _ ____ _
 72
65
 73
4
 40
2.0
 49
1.25
 49
-0.25
 49
0.25
 49
-0.25
  0
LTYPE
  5
411
  2
DASHED
 70
0
  3
Dashed __ __ __ __ __
 72
65
 73
2
 40
0.75
 49
0.5
 49
-0.25
  0
LTYPE
  5
43B
  2
DOTTED
 70
0
  3
Dotted .  .  .  .
 72
65
 73
2
 40
0.2
 49
0.0
 49
-0.2
  0
ENDTAB
  0
TABLE
  2
STYLE
  70
4
  0
STYLE
  2
KICAD
  70
0
  40
0
  41
1
  42
1
  50
0
  71
0
  3
isocp.shx
  0
STYLE
  2
KICADB
  70
0
  40
0
  41
1
  42
1
  50
0
  71
0
  3
isocp.shx
  0
STYLE
  2
KICADI
  70
0
  40
0
  41
1
  42
1
  50
15
  71
0
  3
isocp.shx
  0
STYLE
  2
KICADBI
  70
0
  40
0
  41
1
  42
1
  50
15
  71
0
  3
isocp.shx
  0
ENDTAB
  0
TABLE
  2
LAYER
  70
1
  0
LAYER
  2
BLACK
  70
0
  62
7
  6
CONTINUOUS
  0
ENDTAB
  0
ENDSEC
  0
SECTION
  2
ENTITIES
0
LINE
8
BLACK
6
CONTINUOUS
10
9.4308188976377956
20
-4.4465200393700783
11
9.4308188976377956
21
-5.2834798818897637
0
LINE
8
BLACK
6
CONTINUOUS
10
8.6471900000000002
20
-4.52515
11
8.6473206692913376
21
-5.2052458267716535
0
ARC
8
BLACK
10
9.077
20
-4.8644999999999996
40
0.5483903297414945
50
-141.58475507
51
-49.81967534
0
ARC
8
BLACK
10
9.077
20
-4.8644999999999996
40
0.5476267511727309
50
49.75217668
51
141.70767579
0
LINE
8
BLACK
6
CONTINUOUS
10
8.9890944881889769
20
-4.5380944881889764
11
9.0009055118110233
21
-4.5499055118110237
0
LINE
8
BLACK
6
CONTINUOUS
10
9.0009055118110233
20
-4.5380944881889764
11
8.9890944881889769
21
-4.5499055118110237
0
LINE
8
BLACK
6
CONTINUOUS
10
9.0080944881889753
20
-5.3290944881889759
11
9.0199055118110234
21
-5.3409055118110231
0
LINE
8
BLACK
6
CONTINUOUS
10
9.0199055118110234
20
-5.3290944881889759
11
9.0080944881889753
21
-5.3409055118110231
0
LINE
8
BLACK
6
CONTINUOUS
10
9.0090944881889765
20
-4.3730944881889764
11
9.0209055118110228
21
-4.3849055118110236
0
LINE
8
BLACK
6
CONTINUOUS
10
9.0209055118110228
20
-4.3730944881889764
11
9.0090944881889765
21
-4.3849055118110236
0
LINE
8
BLACK
6
CONTINUOUS
10
9.069094488188977
20
-5.3310944881889766
11
9.0809055118110233
21
-5.3429055118110238
0
LINE
8
BLACK
6
CONTINUOUS
10
9.0809055118110233
20
-5.3310944881889766
11
9.069094488188977
21
-5.3429055118110238
0
LINE
8
BLACK
6
CONTINUOUS
10
9.0700944881889765
20
-4.3730944881889764
11
9.0819055118110228
21
-4.3849055118110236
0
LINE
8
BLACK
6
CONTINUOUS
10
9.0819055118110228
20
-4.3730944881889764
11
9.0700944881889765
21
-4.3849055118110236
0
LINE
8
BLACK
6
CONTINUOUS
10
9.0750944881889755
20
-4.5320944881889762
11
9.0869055118110236
21
-4.5439055118110234
0
LINE
8
BLACK
6
CONTINUOUS
10
9.0869055118110236
20
-4.5320944881889762
11
9.0750944881889755
21
-4.5439055118110234
0
LINE
8
BLACK
6
CONTINUOUS
10
9.1000944881889758
20
-5.1840944881889763
11
9.1119055118110239
21
-5.1959055118110236
0
LINE
8
BLACK
6
CONTINUOUS
10
9.1119055118110239
20
-5.1840944881889763
11
9.1000944881889758
21
-5.1959055118110236
0
LINE
8
BLACK
6
CONTINUOUS
10
9.1290944881889757
20
-5.3290944881889759
11
9.1409055118110238
21
-5.3409055118110231
0
LINE
8
BLACK
6
CONTINUOUS
10
9.1409055118110238
20
-5.3290944881889759
11
9.1290944881889757
21
-5.3409055118110231
0
LINE
8
BLACK
6
CONTINUOUS
10
9.1550944881889755
20
-4.3710944881889766
11
9.1669055118110236
21
-4.3829055118110238
0
LINE
8
BLACK
6
CONTINUOUS
10
9.1669055118110236
20
-4.3710944881889766
11
9.1550944881889755
21
-4.3829055118110238
0
LINE
8
BLACK
6
CONTINUOUS
10
9.1680944881889754
20
-5.1800944881889759
11
9.1799055118110235
21
-5.1919055118110231
0
LINE
8
BLACK
6
CONTINUOUS
10
9.1799055118110235
20
-5.1800944881889759
11
9.1680944881889754
21
-5.1919055118110231
0
LINE
8
BLACK
6
CONTINUOUS
10
9.1770944881889758
20
-5.2900944881889762
11
9.1889055118110239
21
-5.3019055118110234
0
LINE
8
BLACK
6
CONTINUOUS
10
9.1889055118110239
20
-5.2900944881889762
11
9.1770944881889758
21
-5.3019055118110234
0
LINE
8
BLACK
6
CONTINUOUS
10
9.1910944881889769
20
-5.3440944881889765
11
9.2029055118110232
21
-5.3559055118110237
0
LINE
8
BLACK
6
CONTINUOUS
10
9.2029055118110232
20
-5.3440944881889765
11
9.1910944881889769
21
-5.3559055118110237
0
LINE
8
BLACK
6
CONTINUOUS
10
9.2037164960629916
20
-5.1623385826771653
11
9.2155275196850397
21
-5.1741496062992125
0
LINE
8
BLACK
6
CONTINUOUS
10
9.2155275196850397
20
-5.1623385826771653
11
9.2037164960629916
21
-5.1741496062992125
0
LINE
8
BLACK
6
CONTINUOUS
10
9.2414608661417326
20
-5.0114608267716534
11
9.2532718897637789
21
-5.0232718503937006
0
LINE
8
BLACK
6
CONTINUOUS
10
9.2532718897637789
20
-5.0114608267716534
11
9.2414608661417326
21
-5.0232718503937006
0
CIRCLE
8
BLACK
10
8.7857383464566929
20
-4.8837383464566928
40
0.006
0
CIRCLE
8
BLACK
10
8.9169999999999998
20
-4.6100000000000003
40
0.006
0
CIRCLE
8
BLACK
10
9.030261653543306
20
-5.1215000000000002
40
0.006
0
CIRCLE
8
BLACK
10
9.0809999999999995
20
-4.9930000000000003
40
0.006
0
CIRCLE
8
BLACK
10
9.1050000000000004
20
-5.0940000000000003
40
0.006
0
CIRCLE
8
BLACK
10
9.1069999999999993
20
-4.96
40
0.006
0
CIRCLE
8
BLACK
10
9.113999999999999
20
-4.7649999999999997
40
0.006
0
CIRCLE
8
BLACK
10
9.1340000000000003
20
-4.8069999999999995
40
0.006
0
CIRCLE
8
BLACK
10
9.1914999999999996
20
-4.9314999999999998
40
0.006
0
CIRCLE
8
BLACK
10
9.2119999999999997
20
-4.7949999999999999
40
0.006
0
CIRCLE
8
BLACK
10
9.2484931889763775
20
-4.9754945669291342
40
0.006
0
CIRCLE
8
BLACK
10
9.3010000000000002
20
-4.9375000393700788
40
0.006
0
LINE
8
BLACK
6
CONTINUOUS
10
8.7170000000000005
20
-4.5953149606299215
11
8.7170000000000005
21
-4.6346850393700789
0
LINE
8
BLACK
6
CONTINUOUS
10
8.6973149606299209
20
-4.6150000000000002
11
8.7366850393700783
21
-4.6150000000000002
0
LINE
8
BLACK
6
CONTINUOUS
10
8.7170000000000005
20
-4.6953149606299212
11
8.7170000000000005
21
-4.7346850393700786
0
LINE
8
BLACK
6
CONTINUOUS
10
8.6973149606299209
20
-4.7149999999999999
11
8.7366850393700783
21
-4.7149999999999999
0
LINE
8
BLACK
6
CONTINUOUS
10
8.7170000000000005
20
-4.7953149606299208
11
8.7170000000000005
21
-4.8346850393700782
0
LINE
8
BLACK
6
CONTINUOUS
10
8.6973149606299209
20
-4.8149999999999995
11
8.7366850393700783
21
-4.8149999999999995
0
LINE
8
BLACK
6
CONTINUOUS
10
8.7170000000000005
20
-4.8953149606299213
11
8.7170000000000005
21
-4.9346850393700787
0
LINE
8
BLACK
6
CONTINUOUS
10
8.6973149606299209
20
-4.915
11
8.7366850393700783
21
-4.915
0
LINE
8
BLACK
6
CONTINUOUS
10
8.7170000000000005
20
-4.995314960629921
11
8.7170000000000005
21
-5.0346850393700784
0
LINE
8
BLACK
6
CONTINUOUS
10
8.6973149606299209
20
-5.0149999999999997
11
8.7366850393700783
21
-5.0149999999999997
0
LINE
8
BLACK
6
CONTINUOUS
10
8.7170000000000005
20
-5.0953149606299215
11
8.7170000000000005
21
-5.1346850393700789
0
LINE
8
BLACK
6
CONTINUOUS
10
8.6973149606299209
20
-5.1150000000000002
11
8.7366850393700783
21
-5.1150000000000002
0
LINE
8
BLACK
6
CONTINUOUS
10
8.8937586614173227
20
-4.5317586614173226
11
8.8937586614173227
21
-4.4482413385826769
0
LINE
8
BLACK
6
CONTINUOUS
10
8.8937586614173227
20
-4.4482413385826769
11
8.8102413385826761
21
-4.4482413385826769
0
LINE
8
BLACK
6
CONTINUOUS
10
8.8102413385826761
20
-4.4482413385826769
11
8.8102413385826761
21
-4.5317586614173226
0
LINE
8
BLACK
6
CONTINUOUS
10
8.8102413385826761
20
-4.5317586614173226
11
8.8937586614173227
21
-4.5317586614173226
0
LINE
8
BLACK
6
CONTINUOUS
10
8.8937586614173227
20
-5.2817586614173226
11
8.8937586614173227
21
-5.1982413385826769
0
LINE
8
BLACK
6
CONTINUOUS
10
8.8937586614173227
20
-5.1982413385826769
11
8.8102413385826761
21
-5.1982413385826769
0
LINE
8
BLACK
6
CONTINUOUS
10
8.8102413385826761
20
-5.1982413385826769
11
8.8102413385826761
21
-5.2817586614173226
0
LINE
8
BLACK
6
CONTINUOUS
10
8.8102413385826761
20
-5.2817586614173226
11
8.8937586614173227
21
-5.2817586614173226
0
LINE
8
BLACK
6
CONTINUOUS
10
9.3377086614173219
20
-4.6768110236220473
11
9.4046377952755904
21
-4.6098818897637797
0
LINE
8
BLACK
6
CONTINUOUS
10
9.4046377952755904
20
-4.6098818897637797
11
9.3377086614173219
21
-4.5429527559055121
0
LINE
8
BLACK
6
CONTINUOUS
10
9.3377086614173219
20
-4.5429527559055121
11
9.2707795275590552
21
-4.6098818897637797
0
LINE
8
BLACK
6
CONTINUOUS
10
9.2707795275590552
20
-4.6098818897637797
11
9.3377086614173219
21
-4.6768110236220473
0
LINE
8
BLACK
6
CONTINUOUS
10
9.3377086614173219
20
-5.1870472440944884
11
9.4046377952755904
21
-5.1201181102362208
0
LINE
8
BLACK
6
CONTINUOUS
10
9.4046377952755904
20
-5.1201181102362208
11
9.3377086614173219
21
-5.0531889763779523
0
LINE
8
BLACK
6
CONTINUOUS
10
9.3377086614173219
20
-5.0531889763779523
11
9.2707795275590552
21
-5.1201181102362208
0
LINE
8
BLACK
6
CONTINUOUS
10
9.2707795275590552
20
-5.1201181102362208
11
9.3377086614173219
21
-5.1870472440944884
0
LINE
8
BLACK
6
CONTINUOUS
10
8.7488737795275586
20
-5.5365059842519679
11
8.7488737795275586
21
-5.4577658267716531
0
LINE
8
BLACK
6
CONTINUOUS
10
8.7488737795275586
20
-5.4577658267716531
11
8.7676214173228342
21
-5.4577658267716531
0
LINE
8
BLACK
6
CONTINUOUS
10
8.7676214173228342
20
-5.4577658267716531
11
8.7788700393700783
21
-5.4615153543307082
0
LINE
8
BLACK
6
CONTINUOUS
10
8.7788700393700783
20
-5.4615153543307082
11
8.7863690944881885
21
-5.4690144094488184
0
LINE
8
BLACK
6
CONTINUOUS
10
8.7863690944881885
20
-5.4690144094488184
11
8.7901186220472436
21
-5.4765134645669287
0
LINE
8
BLACK
6
CONTINUOUS
10
8.7901186220472436
20
-5.4765134645669287
11
8.7938681496062987
21
-5.4915115748031491
0
LINE
8
BLACK
6
CONTINUOUS
10
8.7938681496062987
20
-5.4915115748031491
11
8.7938681496062987
21
-5.5027601968503932
0
LINE
8
BLACK
6
CONTINUOUS
10
8.7938681496062987
20
-5.5027601968503932
11
8.7901186220472436
21
-5.5177583070866136
0
LINE
8
BLACK
6
CONTINUOUS
10
8.7901186220472436
20
-5.5177583070866136
11
8.7863690944881885
21
-5.5252573622047239
0
LINE
8
BLACK
6
CONTINUOUS
10
8.7863690944881885
20
-5.5252573622047239
11
8.7788700393700783
21
-5.5327564566929128
0
LINE
8
BLACK
6
CONTINUOUS
10
8.7788700393700783
20
-5.5327564566929128
11
8.7676214173228342
21
-5.5365059842519679
0
LINE
8
BLACK
6
CONTINUOUS
10
8.7676214173228342
20
-5.5365059842519679
11
8.7488737795275586
21
-5.5365059842519679
0
LINE
8
BLACK
6
CONTINUOUS
10
8.8276139370078734
20
-5.5365059842519679
11
8.8276139370078734
21
-5.4840125196850389
0
LINE
8
BLACK
6
CONTINUOUS
10
8.8276139370078734
20
-5.4990106692913381
11
8.8313634645669286
21
-5.4915115748031491
0
LINE
8
BLACK
6
CONTINUOUS
10
8.8313634645669286
20
-5.4915115748031491
11
8.8351129921259837
21
-5.487762047244094
0
LINE
8
BLACK
6
CONTINUOUS
10
8.8351129921259837
20
-5.487762047244094
11
8.8426120472440939
21
-5.4840125196850389
0
LINE
8
BLACK
6
CONTINUOUS
10
8.8426120472440939
20
-5.4840125196850389
11
8.8501111417322829
21
-5.4840125196850389
0
LINE
8
BLACK
6
CONTINUOUS
10
8.8763578346456686
20
-5.5365059842519679
11
8.8763578346456686
21
-5.4840125196850389
0
LINE
8
BLACK
6
CONTINUOUS
10
8.8763578346456686
20
-5.4577658267716531
11
8.8726083070866135
21
-5.4615153543307082
0
LINE
8
BLACK
6
CONTINUOUS
10
8.8726083070866135
20
-5.4615153543307082
11
8.8763578346456686
21
-5.4652648818897633
0
LINE
8
BLACK
6
CONTINUOUS
10
8.8763578346456686
20
-5.4652648818897633
11
8.8801073622047237
21
-5.4615153543307082
0
LINE
8
BLACK
6
CONTINUOUS
10
8.8801073622047237
20
-5.4615153543307082
11
8.8763578346456686
21
-5.4577658267716531
0
LINE
8
BLACK
6
CONTINUOUS
10
8.8763578346456686
20
-5.4577658267716531
11
8.8763578346456686
21
-5.4652648818897633
0
LINE
8
BLACK
6
CONTINUOUS
10
8.9251017322834638
20
-5.5365059842519679
11
8.9176026771653536
21
-5.5327564566929128
0
LINE
8
BLACK
6
CONTINUOUS
10
8.9176026771653536
20
-5.5327564566929128
11
8.9138531496062985
21
-5.5252573622047239
0
LINE
8
BLACK
6
CONTINUOUS
10
8.9138531496062985
20
-5.5252573622047239
11
8.9138531496062985
21
-5.4577658267716531
0
LINE
8
BLACK
6
CONTINUOUS
10
8.9663465748031488
20
-5.5365059842519679
11
8.9588475196850386
21
-5.5327564566929128
0
LINE
8
BLACK
6
CONTINUOUS
10
8.9588475196850386
20
-5.5327564566929128
11
8.9550979921259835
21
-5.5252573622047239
0
LINE
8
BLACK
6
CONTINUOUS
10
8.9550979921259835
20
-5.5252573622047239
11
8.9550979921259835
21
-5.4577658267716531
0
LINE
8
BLACK
6
CONTINUOUS
10
9.0563353543307077
20
-5.5365059842519679
11
9.0563353543307077
21
-5.4577658267716531
0
LINE
8
BLACK
6
CONTINUOUS
10
9.0563353543307077
20
-5.4577658267716531
11
9.0825820866141722
21
-5.5140087795275585
0
LINE
8
BLACK
6
CONTINUOUS
10
9.0825820866141722
20
-5.5140087795275585
11
9.108828779527558
21
-5.4577658267716531
0
LINE
8
BLACK
6
CONTINUOUS
10
9.108828779527558
20
-5.4577658267716531
11
9.108828779527558
21
-5.5365059842519679
0
LINE
8
BLACK
6
CONTINUOUS
10
9.1800698818897644
20
-5.5365059842519679
11
9.1800698818897644
21
-5.495261141732283
0
LINE
8
BLACK
6
CONTINUOUS
10
9.1800698818897644
20
-5.495261141732283
11
9.1763203543307093
21
-5.487762047244094
0
LINE
8
BLACK
6
CONTINUOUS
10
9.1763203543307093
20
-5.487762047244094
11
9.168821299212599
21
-5.4840125196850389
0
LINE
8
BLACK
6
CONTINUOUS
10
9.168821299212599
20
-5.4840125196850389
11
9.1538231496062998
21
-5.4840125196850389
0
LINE
8
BLACK
6
CONTINUOUS
10
9.1538231496062998
20
-5.4840125196850389
11
9.1463240944881896
21
-5.487762047244094
0
LINE
8
BLACK
6
CONTINUOUS
10
9.1800698818897644
20
-5.5327564566929128
11
9.1725708267716541
21
-5.5365059842519679
0
LINE
8
BLACK
6
CONTINUOUS
10
9.1725708267716541
20
-5.5365059842519679
11
9.1538231496062998
21
-5.5365059842519679
0
LINE
8
BLACK
6
CONTINUOUS
10
9.1538231496062998
20
-5.5365059842519679
11
9.1463240944881896
21
-5.5327564566929128
0
LINE
8
BLACK
6
CONTINUOUS
10
9.1463240944881896
20
-5.5327564566929128
11
9.1425745669291345
21
-5.5252573622047239
0
LINE
8
BLACK
6
CONTINUOUS
10
9.1425745669291345
20
-5.5252573622047239
11
9.1425745669291345
21
-5.5177583070866136
0
LINE
8
BLACK
6
CONTINUOUS
10
9.1425745669291345
20
-5.5177583070866136
11
9.1463240944881896
21
-5.5102592519685034
0
LINE
8
BLACK
6
CONTINUOUS
10
9.1463240944881896
20
-5.5102592519685034
11
9.1538231496062998
21
-5.5065097244094483
0
LINE
8
BLACK
6
CONTINUOUS
10
9.1538231496062998
20
-5.5065097244094483
11
9.1725708267716541
21
-5.5065097244094483
0
LINE
8
BLACK
6
CONTINUOUS
10
9.1725708267716541
20
-5.5065097244094483
11
9.1800698818897644
21
-5.5027601968503932
0
LINE
8
BLACK
6
CONTINUOUS
10
9.2175651968503942
20
-5.4840125196850389
11
9.2175651968503942
21
-5.5627526771653546
0
LINE
8
BLACK
6
CONTINUOUS
10
9.2175651968503942
20
-5.487762047244094
11
9.2250642519685044
21
-5.4840125196850389
0
LINE
8
BLACK
6
CONTINUOUS
10
9.2250642519685044
20
-5.4840125196850389
11
9.2400624015748036
21
-5.4840125196850389
0
LINE
8
BLACK
6
CONTINUOUS
10
9.2400624015748036
20
-5.4840125196850389
11
9.2475614566929139
21
-5.487762047244094
0
LINE
8
BLACK
6
CONTINUOUS
10
9.2475614566929139
20
-5.487762047244094
11
9.251310984251969
21
-5.4915115748031491
0
LINE
8
BLACK
6
CONTINUOUS
10
9.251310984251969
20
-5.4915115748031491
11
9.2550605118110241
21
-5.4990106692913381
0
LINE
8
BLACK
6
CONTINUOUS
10
9.2550605118110241
20
-5.4990106692913381
11
9.2550605118110241
21
-5.5215078346456687
0
LINE
8
BLACK
6
CONTINUOUS
10
9.2550605118110241
20
-5.5215078346456687
11
9.251310984251969
21
-5.529006889763779
0
LINE
8
BLACK
6
CONTINUOUS
10
9.251310984251969
20
-5.529006889763779
11
9.2475614566929139
21
-5.5327564566929128
0
LINE
8
BLACK
6
CONTINUOUS
10
9.2475614566929139
20
-5.5327564566929128
11
9.2400624015748036
21
-5.5365059842519679
0
LINE
8
BLACK
6
CONTINUOUS
10
9.2400624015748036
20
-5.5365059842519679
11
9.2250642519685044
21
-5.5365059842519679
0
LINE
8
BLACK
6
CONTINUOUS
10
9.2250642519685044
20
-5.5365059842519679
11
9.2175651968503942
21
-5.5327564566929128
0
LINE
8
BLACK
6
CONTINUOUS
10
9.2888062992125988
20
-5.529006889763779
11
9.2925558267716539
21
-5.5327564566929128
0
LINE
8
BLACK
6
CONTINUOUS
10
9.2925558267716539
20
-5.5327564566929128
11
9.2888062992125988
21
-5.5365059842519679
0
LINE
8
BLACK
6
CONTINUOUS
10
9.2888062992125988
20
-5.5365059842519679
11
9.2850567716535437
21
-5.5327564566929128
0
LINE
8
BLACK
6
CONTINUOUS
10
9.2850567716535437
20
-5.5327564566929128
11
9.2888062992125988
21
-5.529006889763779
0
LINE
8
BLACK
6
CONTINUOUS
10
9.2888062992125988
20
-5.529006889763779
11
9.2888062992125988
21
-5.5365059842519679
0
LINE
8
BLACK
6
CONTINUOUS
10
9.2888062992125988
20
-5.487762047244094
11
9.2925558267716539
21
-5.4915115748031491
0
LINE
8
BLACK
6
CONTINUOUS
10
9.2925558267716539
20
-5.4915115748031491
11
9.2888062992125988
21
-5.495261141732283
0
LINE
8
BLACK
6
CONTINUOUS
10
9.2888062992125988
20
-5.495261141732283
11
9.2850567716535437
21
-5.4915115748031491
0
LINE
8
BLACK
6
CONTINUOUS
10
9.2850567716535437
20
-5.4915115748031491
11
9.2888062992125988
21
-5.487762047244094
0
LINE
8
BLACK
6
CONTINUOUS
10
9.2888062992125988
20
-5.487762047244094
11
9.2888062992125988
21
-5.495261141732283
0
LINE
8
BLACK
6
CONTINUOUS
10
8.6343947244094483
20
-5.659937559055118
11
8.6462057480314964
21
-5.6717485826771652
0
LINE
8
BLACK
6
CONTINUOUS
10
8.6462057480314964
20
-5.659937559055118
11
8.6343947244094483
21
-5.6717485826771652
0
LINE
8
BLACK
6
CONTINUOUS
10
8.7638718897637791
20
-5.6231201574803151
11
8.771370984251968
21
-5.6231201574803151
0
LINE
8
BLACK
6
CONTINUOUS
10
8.771370984251968
20
-5.6231201574803151
11
8.7788700393700783
21
-5.6268696850393702
0
LINE
8
BLACK
6
CONTINUOUS
10
8.7788700393700783
20
-5.6268696850393702
11
8.7826195669291334
21
-5.6306192125984253
0
LINE
8
BLACK
6
CONTINUOUS
10
8.7826195669291334
20
-5.6306192125984253
11
8.7863690944881885
21
-5.6381182677165356
0
LINE
8
BLACK
6
CONTINUOUS
10
8.7863690944881885
20
-5.6381182677165356
11
8.7901186220472436
21
-5.653116377952756
0
LINE
8
BLACK
6
CONTINUOUS
10
8.7901186220472436
20
-5.653116377952756
11
8.7901186220472436
21
-5.6718640551181103
0
LINE
8
BLACK
6
CONTINUOUS
10
8.7901186220472436
20
-5.6718640551181103
11
8.7863690944881885
21
-5.6868621653543308
0
LINE
8
BLACK
6
CONTINUOUS
10
8.7863690944881885
20
-5.6868621653543308
11
8.7826195669291334
21
-5.694361220472441
0
LINE
8
BLACK
6
CONTINUOUS
10
8.7826195669291334
20
-5.694361220472441
11
8.7788700393700783
21
-5.6981107874015748
0
LINE
8
BLACK
6
CONTINUOUS
10
8.7788700393700783
20
-5.6981107874015748
11
8.771370984251968
21
-5.7018603149606299
0
LINE
8
BLACK
6
CONTINUOUS
10
8.771370984251968
20
-5.7018603149606299
11
8.7638718897637791
21
-5.7018603149606299
0
LINE
8
BLACK
6
CONTINUOUS
10
8.7638718897637791
20
-5.7018603149606299
11
8.7563728346456688
21
-5.6981107874015748
0
LINE
8
BLACK
6
CONTINUOUS
10
8.7563728346456688
20
-5.6981107874015748
11
8.7526233070866137
21
-5.694361220472441
0
LINE
8
BLACK
6
CONTINUOUS
10
8.7526233070866137
20
-5.694361220472441
11
8.7488737795275586
21
-5.6868621653543308
0
LINE
8
BLACK
6
CONTINUOUS
10
8.7488737795275586
20
-5.6868621653543308
11
8.7451242519685035
21
-5.6718640551181103
0
LINE
8
BLACK
6
CONTINUOUS
10
8.7451242519685035
20
-5.6718640551181103
11
8.7451242519685035
21
-5.653116377952756
0
LINE
8
BLACK
6
CONTINUOUS
10
8.7451242519685035
20
-5.653116377952756
11
8.7488737795275586
21
-5.6381182677165356
0
LINE
8
BLACK
6
CONTINUOUS
10
8.7488737795275586
20
-5.6381182677165356
11
8.7526233070866137
21
-5.6306192125984253
0
LINE
8
BLACK
6
CONTINUOUS
10
8.7526233070866137
20
-5.6306192125984253
11
8.7563728346456688
21
-5.6268696850393702
0
LINE
8
BLACK
6
CONTINUOUS
10
8.7563728346456688
20
-5.6268696850393702
11
8.7638718897637791
21
-5.6231201574803151
0
LINE
8
BLACK
6
CONTINUOUS
10
8.8238644094488183
20
-5.694361220472441
11
8.8276139370078734
21
-5.6981107874015748
0
LINE
8
BLACK
6
CONTINUOUS
10
8.8276139370078734
20
-5.6981107874015748
11
8.8238644094488183
21
-5.7018603149606299
0
LINE
8
BLACK
6
CONTINUOUS
10
8.8238644094488183
20
-5.7018603149606299
11
8.8201148818897632
21
-5.6981107874015748
0
LINE
8
BLACK
6
CONTINUOUS
10
8.8201148818897632
20
-5.6981107874015748
11
8.8238644094488183
21
-5.694361220472441
0
LINE
8
BLACK
6
CONTINUOUS
10
8.8238644094488183
20
-5.694361220472441
11
8.8238644094488183
21
-5.7018603149606299
0
LINE
8
BLACK
6
CONTINUOUS
10
8.853860669291338
20
-5.6231201574803151
11
8.9026045669291332
21
-5.6231201574803151
0
LINE
8
BLACK
6
CONTINUOUS
10
8.9026045669291332
20
-5.6231201574803151
11
8.8763578346456686
21
-5.653116377952756
0
LINE
8
BLACK
6
CONTINUOUS
10
8.8763578346456686
20
-5.653116377952756
11
8.8876064566929127
21
-5.653116377952756
0
LINE
8
BLACK
6
CONTINUOUS
10
8.8876064566929127
20
-5.653116377952756
11
8.8951055118110229
21
-5.6568659055118111
0
LINE
8
BLACK
6
CONTINUOUS
10
8.8951055118110229
20
-5.6568659055118111
11
8.898855039370078
21
-5.660615472440945
0
LINE
8
BLACK
6
CONTINUOUS
10
8.898855039370078
20
-5.660615472440945
11
8.9026045669291332
21
-5.6681145275590552
0
LINE
8
BLACK
6
CONTINUOUS
10
8.9026045669291332
20
-5.6681145275590552
11
8.9026045669291332
21
-5.6868621653543308
0
LINE
8
BLACK
6
CONTINUOUS
10
8.9026045669291332
20
-5.6868621653543308
11
8.898855039370078
21
-5.694361220472441
0
LINE
8
BLACK
6
CONTINUOUS
10
8.898855039370078
20
-5.694361220472441
11
8.8951055118110229
21
-5.6981107874015748
0
LINE
8
BLACK
6
CONTINUOUS
10
8.8951055118110229
20
-5.6981107874015748
11
8.8876064566929127
21
-5.7018603149606299
0
LINE
8
BLACK
6
CONTINUOUS
10
8.8876064566929127
20
-5.7018603149606299
11
8.8651092519685033
21
-5.7018603149606299
0
LINE
8
BLACK
6
CONTINUOUS
10
8.8651092519685033
20
-5.7018603149606299
11
8.8576101968503931
21
-5.6981107874015748
0
LINE
8
BLACK
6
CONTINUOUS
10
8.8576101968503931
20
-5.6981107874015748
11
8.853860669291338
21
-5.694361220472441
0
LINE
8
BLACK
6
CONTINUOUS
10
8.9513484645669283
20
-5.6231201574803151
11
8.9588475590551173
21
-5.6231201574803151
0
LINE
8
BLACK
6
CONTINUOUS
10
8.9588475590551173
20
-5.6231201574803151
11
8.9663466141732275
21
-5.6268696850393702
0
LINE
8
BLACK
6
CONTINUOUS
10
8.9663466141732275
20
-5.6268696850393702
11
8.9700961417322826
21
-5.6306192125984253
0
LINE
8
BLACK
6
CONTINUOUS
10
8.9700961417322826
20
-5.6306192125984253
11
8.9738456692913378
21
-5.6381182677165356
0
LINE
8
BLACK
6
CONTINUOUS
10
8.9738456692913378
20
-5.6381182677165356
11
8.9775951968503929
21
-5.653116377952756
0
LINE
8
BLACK
6
CONTINUOUS
10
8.9775951968503929
20
-5.653116377952756
11
8.9775951968503929
21
-5.6718640551181103
0
LINE
8
BLACK
6
CONTINUOUS
10
8.9775951968503929
20
-5.6718640551181103
11
8.9738456692913378
21
-5.6868621653543308
0
LINE
8
BLACK
6
CONTINUOUS
10
8.9738456692913378
20
-5.6868621653543308
11
8.9700961417322826
21
-5.694361220472441
0
LINE
8
BLACK
6
CONTINUOUS
10
8.9700961417322826
20
-5.694361220472441
11
8.9663466141732275
21
-5.6981107874015748
0
LINE
8
BLACK
6
CONTINUOUS
10
8.9663466141732275
20
-5.6981107874015748
11
8.9588475590551173
21
-5.7018603149606299
0
LINE
8
BLACK
6
CONTINUOUS
10
8.9588475590551173
20
-5.7018603149606299
11
8.9513484645669283
21
-5.7018603149606299
0
LINE
8
BLACK
6
CONTINUOUS
10
8.9513484645669283
20
-5.7018603149606299
11
8.9438494094488181
21
-5.6981107874015748
0
LINE
8
BLACK
6
CONTINUOUS
10
8.9438494094488181
20
-5.6981107874015748
11
8.940099881889763
21
-5.694361220472441
0
LINE
8
BLACK
6
CONTINUOUS
10
8.940099881889763
20
-5.694361220472441
11
8.9363503543307079
21
-5.6868621653543308
0
LINE
8
BLACK
6
CONTINUOUS
10
8.9363503543307079
20
-5.6868621653543308
11
8.9326008267716528
21
-5.6718640551181103
0
LINE
8
BLACK
6
CONTINUOUS
10
8.9326008267716528
20
-5.6718640551181103
11
8.9326008267716528
21
-5.653116377952756
0
LINE
8
BLACK
6
CONTINUOUS
10
8.9326008267716528
20
-5.653116377952756
11
8.9363503543307079
21
-5.6381182677165356
0
LINE
8
BLACK
6
CONTINUOUS
10
8.9363503543307079
20
-5.6381182677165356
11
8.940099881889763
21
-5.6306192125984253
0
LINE
8
BLACK
6
CONTINUOUS
10
8.940099881889763
20
-5.6306192125984253
11
8.9438494094488181
21
-5.6268696850393702
0
LINE
8
BLACK
6
CONTINUOUS
10
8.9438494094488181
20
-5.6268696850393702
11
8.9513484645669283
21
-5.6231201574803151
0
LINE
8
BLACK
6
CONTINUOUS
10
9.0263390944881881
20
-5.6231201574803151
11
9.033838188976377
21
-5.6231201574803151
0
LINE
8
BLACK
6
CONTINUOUS
10
9.033838188976377
20
-5.6231201574803151
11
9.0413372440944872
21
-5.6268696850393702
0
LINE
8
BLACK
6
CONTINUOUS
10
9.0413372440944872
20
-5.6268696850393702
11
9.0450867716535424
21
-5.6306192125984253
0
LINE
8
BLACK
6
CONTINUOUS
10
9.0450867716535424
20
-5.6306192125984253
11
9.0488362992125975
21
-5.6381182677165356
0
LINE
8
BLACK
6
CONTINUOUS
10
9.0488362992125975
20
-5.6381182677165356
11
9.0525858267716526
21
-5.653116377952756
0
LINE
8
BLACK
6
CONTINUOUS
10
9.0525858267716526
20
-5.653116377952756
11
9.0525858267716526
21
-5.6718640551181103
0
LINE
8
BLACK
6
CONTINUOUS
10
9.0525858267716526
20
-5.6718640551181103
11
9.0488362992125975
21
-5.6868621653543308
0
LINE
8
BLACK
6
CONTINUOUS
10
9.0488362992125975
20
-5.6868621653543308
11
9.0450867716535424
21
-5.694361220472441
0
LINE
8
BLACK
6
CONTINUOUS
10
9.0450867716535424
20
-5.694361220472441
11
9.0413372440944872
21
-5.6981107874015748
0
LINE
8
BLACK
6
CONTINUOUS
10
9.0413372440944872
20
-5.6981107874015748
11
9.033838188976377
21
-5.7018603149606299
0
LINE
8
BLACK
6
CONTINUOUS
10
9.033838188976377
20
-5.7018603149606299
11
9.0263390944881881
21
-5.7018603149606299
0
LINE
8
BLACK
6
CONTINUOUS
10
9.0263390944881881
20
-5.7018603149606299
11
9.0188400393700778
21
-5.6981107874015748
0
LINE
8
BLACK
6
CONTINUOUS
10
9.0188400393700778
20
-5.6981107874015748
11
9.0150905118110227
21
-5.694361220472441
0
LINE
8
BLACK
6
CONTINUOUS
10
9.0150905118110227
20
-5.694361220472441
11
9.0113409842519676
21
-5.6868621653543308
0
LINE
8
BLACK
6
CONTINUOUS
10
9.0113409842519676
20
-5.6868621653543308
11
9.0075914566929125
21
-5.6718640551181103
0
LINE
8
BLACK
6
CONTINUOUS
10
9.0075914566929125
20
-5.6718640551181103
11
9.0075914566929125
21
-5.653116377952756
0
LINE
8
BLACK
6
CONTINUOUS
10
9.0075914566929125
20
-5.653116377952756
11
9.0113409842519676
21
-5.6381182677165356
0
LINE
8
BLACK
6
CONTINUOUS
10
9.0113409842519676
20
-5.6381182677165356
11
9.0150905118110227
21
-5.6306192125984253
0
LINE
8
BLACK
6
CONTINUOUS
10
9.0150905118110227
20
-5.6306192125984253
11
9.0188400393700778
21
-5.6268696850393702
0
LINE
8
BLACK
6
CONTINUOUS
10
9.0188400393700778
20
-5.6268696850393702
11
9.0263390944881881
21
-5.6231201574803151
0
LINE
8
BLACK
6
CONTINUOUS
10
9.0863316141732273
20
-5.7018603149606299
11
9.0863316141732273
21
-5.6493668503937009
0
LINE
8
BLACK
6
CONTINUOUS
10
9.0863316141732273
20
-5.6568659055118111
11
9.0900811417322824
21
-5.653116377952756
0
LINE
8
BLACK
6
CONTINUOUS
10
9.0900811417322824
20
-5.653116377952756
11
9.0975801968503927
21
-5.6493668503937009
0
LINE
8
BLACK
6
CONTINUOUS
10
9.0975801968503927
20
-5.6493668503937009
11
9.1088288188976367
21
-5.6493668503937009
0
LINE
8
BLACK
6
CONTINUOUS
10
9.1088288188976367
20
-5.6493668503937009
11
9.116327874015747
21
-5.653116377952756
0
LINE
8
BLACK
6
CONTINUOUS
10
9.116327874015747
20
-5.653116377952756
11
9.1200774015748021
21
-5.660615472440945
0
LINE
8
BLACK
6
CONTINUOUS
10
9.1200774015748021
20
-5.660615472440945
11
9.1200774015748021
21
-5.7018603149606299
0
LINE
8
BLACK
6
CONTINUOUS
10
9.1200774015748021
20
-5.660615472440945
11
9.1238269291338572
21
-5.653116377952756
0
LINE
8
BLACK
6
CONTINUOUS
10
9.1238269291338572
20
-5.653116377952756
11
9.1313259842519692
21
-5.6493668503937009
0
LINE
8
BLACK
6
CONTINUOUS
10
9.1313259842519692
20
-5.6493668503937009
11
9.1425745669291345
21
-5.6493668503937009
0
LINE
8
BLACK
6
CONTINUOUS
10
9.1425745669291345
20
-5.6493668503937009
11
9.1500736614173235
21
-5.653116377952756
0
LINE
8
BLACK
6
CONTINUOUS
10
9.1500736614173235
20
-5.653116377952756
11
9.1538231889763786
21
-5.660615472440945
0
LINE
8
BLACK
6
CONTINUOUS
10
9.1538231889763786
20
-5.660615472440945
11
9.1538231889763786
21
-5.7018603149606299
0
LINE
8
BLACK
6
CONTINUOUS
10
9.1913185039370084
20
-5.7018603149606299
11
9.1913185039370084
21
-5.6493668503937009
0
LINE
8
BLACK
6
CONTINUOUS
10
9.1913185039370084
20
-5.6568659055118111
11
9.1950680314960636
21
-5.653116377952756
0
LINE
8
BLACK
6
CONTINUOUS
10
9.1950680314960636
20
-5.653116377952756
11
9.2025670866141738
21
-5.6493668503937009
0
LINE
8
BLACK
6
CONTINUOUS
10
9.2025670866141738
20
-5.6493668503937009
11
9.2138157086614179
21
-5.6493668503937009
0
LINE
8
BLACK
6
CONTINUOUS
10
9.2138157086614179
20
-5.6493668503937009
11
9.2213147637795281
21
-5.653116377952756
0
LINE
8
BLACK
6
CONTINUOUS
10
9.2213147637795281
20
-5.653116377952756
11
9.2250642913385832
21
-5.660615472440945
0
LINE
8
BLACK
6
CONTINUOUS
10
9.2250642913385832
20
-5.660615472440945
11
9.2250642913385832
21
-5.7018603149606299
0
LINE
8
BLACK
6
CONTINUOUS
10
9.2250642913385832
20
-5.660615472440945
11
9.2288138188976383
21
-5.653116377952756
0
LINE
8
BLACK
6
CONTINUOUS
10
9.2288138188976383
20
-5.653116377952756
11
9.2363128740157485
21
-5.6493668503937009
0
LINE
8
BLACK
6
CONTINUOUS
10
9.2363128740157485
20
-5.6493668503937009
11
9.2475614566929139
21
-5.6493668503937009
0
LINE
8
BLACK
6
CONTINUOUS
10
9.2475614566929139
20
-5.6493668503937009
11
9.2550605511811028
21
-5.653116377952756
0
LINE
8
BLACK
6
CONTINUOUS
10
9.2550605511811028
20
-5.653116377952756
11
9.2588100787401579
21
-5.660615472440945
0
LINE
8
BLACK
6
CONTINUOUS
10
9.2588100787401579
20
-5.660615472440945
11
9.2588100787401579
21
-5.7018603149606299
0
LINE
8
BLACK
6
CONTINUOUS
10
9.4125408661417325
20
-5.61937062992126
11
9.3450493307086617
21
-5.7206079527559055
0
LINE
8
BLACK
6
CONTINUOUS
10
9.5137782283464567
20
-5.6231201574803151
11
9.5212773228346457
21
-5.6231201574803151
0
LINE
8
BLACK
6
CONTINUOUS
10
9.5212773228346457
20
-5.6231201574803151
11
9.5287763779527559
21
-5.6268696850393702
0
LINE
8
BLACK
6
CONTINUOUS
10
9.5287763779527559
20
-5.6268696850393702
11
9.532525905511811
21
-5.6306192125984253
0
LINE
8
BLACK
6
CONTINUOUS
10
9.532525905511811
20
-5.6306192125984253
11
9.5362754330708661
21
-5.6381182677165356
0
LINE
8
BLACK
6
CONTINUOUS
10
9.5362754330708661
20
-5.6381182677165356
11
9.5400249606299212
21
-5.653116377952756
0
LINE
8
BLACK
6
CONTINUOUS
10
9.5400249606299212
20
-5.653116377952756
11
9.5400249606299212
21
-5.6718640551181103
0
LINE
8
BLACK
6
CONTINUOUS
10
9.5400249606299212
20
-5.6718640551181103
11
9.5362754330708661
21
-5.6868621653543308
0
LINE
8
BLACK
6
CONTINUOUS
10
9.5362754330708661
20
-5.6868621653543308
11
9.532525905511811
21
-5.694361220472441
0
LINE
8
BLACK
6
CONTINUOUS
10
9.532525905511811
20
-5.694361220472441
11
9.5287763779527559
21
-5.6981107874015748
0
LINE
8
BLACK
6
CONTINUOUS
10
9.5287763779527559
20
-5.6981107874015748
11
9.5212773228346457
21
-5.7018603149606299
0
LINE
8
BLACK
6
CONTINUOUS
10
9.5212773228346457
20
-5.7018603149606299
11
9.5137782283464567
21
-5.7018603149606299
0
LINE
8
BLACK
6
CONTINUOUS
10
9.5137782283464567
20
-5.7018603149606299
11
9.5062791732283465
21
-5.6981107874015748
0
LINE
8
BLACK
6
CONTINUOUS
10
9.5062791732283465
20
-5.6981107874015748
11
9.5025296456692914
21
-5.694361220472441
0
LINE
8
BLACK
6
CONTINUOUS
10
9.5025296456692914
20
-5.694361220472441
11
9.4987801181102363
21
-5.6868621653543308
0
LINE
8
BLACK
6
CONTINUOUS
10
9.4987801181102363
20
-5.6868621653543308
11
9.4950305905511811
21
-5.6718640551181103
0
LINE
8
BLACK
6
CONTINUOUS
10
9.4950305905511811
20
-5.6718640551181103
11
9.4950305905511811
21
-5.653116377952756
0
LINE
8
BLACK
6
CONTINUOUS
10
9.4950305905511811
20
-5.653116377952756
11
9.4987801181102363
21
-5.6381182677165356
0
LINE
8
BLACK
6
CONTINUOUS
10
9.4987801181102363
20
-5.6381182677165356
11
9.5025296456692914
21
-5.6306192125984253
0
LINE
8
BLACK
6
CONTINUOUS
10
9.5025296456692914
20
-5.6306192125984253
11
9.5062791732283465
21
-5.6268696850393702
0
LINE
8
BLACK
6
CONTINUOUS
10
9.5062791732283465
20
-5.6268696850393702
11
9.5137782283464567
21
-5.6231201574803151
0
LINE
8
BLACK
6
CONTINUOUS
10
9.573770748031496
20
-5.694361220472441
11
9.5775202755905511
21
-5.6981107874015748
0
LINE
8
BLACK
6
CONTINUOUS
10
9.5775202755905511
20
-5.6981107874015748
11
9.573770748031496
21
-5.7018603149606299
0
LINE
8
BLACK
6
CONTINUOUS
10
9.573770748031496
20
-5.7018603149606299
11
9.5700212204724409
21
-5.6981107874015748
0
LINE
8
BLACK
6
CONTINUOUS
10
9.5700212204724409
20
-5.6981107874015748
11
9.573770748031496
21
-5.694361220472441
0
LINE
8
BLACK
6
CONTINUOUS
10
9.573770748031496
20
-5.694361220472441
11
9.573770748031496
21
-5.7018603149606299
0
LINE
8
BLACK
6
CONTINUOUS
10
9.6262641732283463
20
-5.6231201574803151
11
9.6337632677165352
21
-5.6231201574803151
0
LINE
8
BLACK
6
CONTINUOUS
10
9.6337632677165352
20
-5.6231201574803151
11
9.6412623228346455
21
-5.6268696850393702
0
LINE
8
BLACK
6
CONTINUOUS
10
9.6412623228346455
20
-5.6268696850393702
11
9.6450118503937006
21
-5.6306192125984253
0
LINE
8
BLACK
6
CONTINUOUS
10
9.6450118503937006
20
-5.6306192125984253
11
9.6487613779527557
21
-5.6381182677165356
0
LINE
8
BLACK
6
CONTINUOUS
10
9.6487613779527557
20
-5.6381182677165356
11
9.6525109055118108
21
-5.653116377952756
0
LINE
8
BLACK
6
CONTINUOUS
10
9.6525109055118108
20
-5.653116377952756
11
9.6525109055118108
21
-5.6718640551181103
0
LINE
8
BLACK
6
CONTINUOUS
10
9.6525109055118108
20
-5.6718640551181103
11
9.6487613779527557
21
-5.6868621653543308
0
LINE
8
BLACK
6
CONTINUOUS
10
9.6487613779527557
20
-5.6868621653543308
11
9.6450118503937006
21
-5.694361220472441
0
LINE
8
BLACK
6
CONTINUOUS
10
9.6450118503937006
20
-5.694361220472441
11
9.6412623228346455
21
-5.6981107874015748
0
LINE
8
BLACK
6
CONTINUOUS
10
9.6412623228346455
20
-5.6981107874015748
11
9.6337632677165352
21
-5.7018603149606299
0
LINE
8
BLACK
6
CONTINUOUS
10
9.6337632677165352
20
-5.7018603149606299
11
9.6262641732283463
21
-5.7018603149606299
0
LINE
8
BLACK
6
CONTINUOUS
10
9.6262641732283463
20
-5.7018603149606299
11
9.618765118110236
21
-5.6981107874015748
0
LINE
8
BLACK
6
CONTINUOUS
10
9.618765118110236
20
-5.6981107874015748
11
9.6150155905511809
21
-5.694361220472441
0
LINE
8
BLACK
6
CONTINUOUS
10
9.6150155905511809
20
-5.694361220472441
11
9.6112660629921258
21
-5.6868621653543308
0
LINE
8
BLACK
6
CONTINUOUS
10
9.6112660629921258
20
-5.6868621653543308
11
9.6075165354330707
21
-5.6718640551181103
0
LINE
8
BLACK
6
CONTINUOUS
10
9.6075165354330707
20
-5.6718640551181103
11
9.6075165354330707
21
-5.653116377952756
0
LINE
8
BLACK
6
CONTINUOUS
10
9.6075165354330707
20
-5.653116377952756
11
9.6112660629921258
21
-5.6381182677165356
0
LINE
8
BLACK
6
CONTINUOUS
10
9.6112660629921258
20
-5.6381182677165356
11
9.6150155905511809
21
-5.6306192125984253
0
LINE
8
BLACK
6
CONTINUOUS
10
9.6150155905511809
20
-5.6306192125984253
11
9.618765118110236
21
-5.6268696850393702
0
LINE
8
BLACK
6
CONTINUOUS
10
9.618765118110236
20
-5.6268696850393702
11
9.6262641732283463
21
-5.6231201574803151
0
LINE
8
BLACK
6
CONTINUOUS
10
9.7275015354330705
20
-5.7018603149606299
11
9.6825071653543304
21
-5.7018603149606299
0
LINE
8
BLACK
6
CONTINUOUS
10
9.7050043307086611
20
-5.7018603149606299
11
9.7050043307086611
21
-5.6231201574803151
0
LINE
8
BLACK
6
CONTINUOUS
10
9.7050043307086611
20
-5.6231201574803151
11
9.6975052755905509
21
-5.6343687401574805
0
LINE
8
BLACK
6
CONTINUOUS
10
9.6975052755905509
20
-5.6343687401574805
11
9.6900062204724406
21
-5.6418677952755907
0
LINE
8
BLACK
6
CONTINUOUS
10
9.6900062204724406
20
-5.6418677952755907
11
9.6825071653543304
21
-5.6456173228346458
0
LINE
8
BLACK
6
CONTINUOUS
10
9.8024921653543302
20
-5.7018603149606299
11
9.7574977952755901
21
-5.7018603149606299
0
LINE
8
BLACK
6
CONTINUOUS
10
9.7799949606299208
20
-5.7018603149606299
11
9.7799949606299208
21
-5.6231201574803151
0
LINE
8
BLACK
6
CONTINUOUS
10
9.7799949606299208
20
-5.6231201574803151
11
9.7724959055118106
21
-5.6343687401574805
0
LINE
8
BLACK
6
CONTINUOUS
10
9.7724959055118106
20
-5.6343687401574805
11
9.7649968503937004
21
-5.6418677952755907
0
LINE
8
BLACK
6
CONTINUOUS
10
9.7649968503937004
20
-5.6418677952755907
11
9.7574977952755901
21
-5.6456173228346458
0
LINE
8
BLACK
6
CONTINUOUS
10
9.8474865354330703
20
-5.6568659055118111
11
9.8399874803149601
21
-5.653116377952756
0
LINE
8
BLACK
6
CONTINUOUS
10
9.8399874803149601
20
-5.653116377952756
11
9.836237952755905
21
-5.6493668503937009
0
LINE
8
BLACK
6
CONTINUOUS
10
9.836237952755905
20
-5.6493668503937009
11
9.8324884251968498
21
-5.6418677952755907
0
LINE
8
BLACK
6
CONTINUOUS
10
9.8324884251968498
20
-5.6418677952755907
11
9.8324884251968498
21
-5.6381182677165356
0
LINE
8
BLACK
6
CONTINUOUS
10
9.8324884251968498
20
-5.6381182677165356
11
9.836237952755905
21
-5.6306192125984253
0
LINE
8
BLACK
6
CONTINUOUS
10
9.836237952755905
20
-5.6306192125984253
11
9.8399874803149601
21
-5.6268696850393702
0
LINE
8
BLACK
6
CONTINUOUS
10
9.8399874803149601
20
-5.6268696850393702
11
9.8474865354330703
21
-5.6231201574803151
0
LINE
8
BLACK
6
CONTINUOUS
10
9.8474865354330703
20
-5.6231201574803151
11
9.8624846850393695
21
-5.6231201574803151
0
LINE
8
BLACK
6
CONTINUOUS
10
9.8624846850393695
20
-5.6231201574803151
11
9.8699837401574797
21
-5.6268696850393702
0
LINE
8
BLACK
6
CONTINUOUS
10
9.8699837401574797
20
-5.6268696850393702
11
9.8737332677165348
21
-5.6306192125984253
0
LINE
8
BLACK
6
CONTINUOUS
10
9.8737332677165348
20
-5.6306192125984253
11
9.8774827952755899
21
-5.6381182677165356
0
LINE
8
BLACK
6
CONTINUOUS
10
9.8774827952755899
20
-5.6381182677165356
11
9.8774827952755899
21
-5.6418677952755907
0
LINE
8
BLACK
6
CONTINUOUS
10
9.8774827952755899
20
-5.6418677952755907
11
9.8737332677165348
21
-5.6493668503937009
0
LINE
8
BLACK
6
CONTINUOUS
10
9.8737332677165348
20
-5.6493668503937009
11
9.8699837401574797
21
-5.653116377952756
0
LINE
8
BLACK
6
CONTINUOUS
10
9.8699837401574797
20
-5.653116377952756
11
9.8624846850393695
21
-5.6568659055118111
0
LINE
8
BLACK
6
CONTINUOUS
10
9.8624846850393695
20
-5.6568659055118111
11
9.8474865354330703
21
-5.6568659055118111
0
LINE
8
BLACK
6
CONTINUOUS
10
9.8474865354330703
20
-5.6568659055118111
11
9.8399874803149601
21
-5.660615472440945
0
LINE
8
BLACK
6
CONTINUOUS
10
9.8399874803149601
20
-5.660615472440945
11
9.836237952755905
21
-5.6643650000000001
0
LINE
8
BLACK
6
CONTINUOUS
10
9.836237952755905
20
-5.6643650000000001
11
9.8324884251968498
21
-5.6718640551181103
0
LINE
8
BLACK
6
CONTINUOUS
10
9.8324884251968498
20
-5.6718640551181103
11
9.8324884251968498
21
-5.6868621653543308
0
LINE
8
BLACK
6
CONTINUOUS
10
9.8324884251968498
20
-5.6868621653543308
11
9.836237952755905
21
-5.694361220472441
0
LINE
8
BLACK
6
CONTINUOUS
10
9.836237952755905
20
-5.694361220472441
11
9.8399874803149601
21
-5.6981107874015748
0
LINE
8
BLACK
6
CONTINUOUS
10
9.8399874803149601
20
-5.6981107874015748
11
9.8474865354330703
21
-5.7018603149606299
0
LINE
8
BLACK
6
CONTINUOUS
10
9.8474865354330703
20
-5.7018603149606299
11
9.8624846850393695
21
-5.7018603149606299
0
LINE
8
BLACK
6
CONTINUOUS
10
9.8624846850393695
20
-5.7018603149606299
11
9.8699837401574797
21
-5.6981107874015748
0
LINE
8
BLACK
6
CONTINUOUS
10
9.8699837401574797
20
-5.6981107874015748
11
9.8737332677165348
21
-5.694361220472441
0
LINE
8
BLACK
6
CONTINUOUS
10
9.8737332677165348
20
-5.694361220472441
11
9.8774827952755899
21
-5.6868621653543308
0
LINE
8
BLACK
6
CONTINUOUS
10
9.8774827952755899
20
-5.6868621653543308
11
9.8774827952755899
21
-5.6718640551181103
0
LINE
8
BLACK
6
CONTINUOUS
10
9.8774827952755899
20
-5.6718640551181103
11
9.8737332677165348
21
-5.6643650000000001
0
LINE
8
BLACK
6
CONTINUOUS
10
9.8737332677165348
20
-5.6643650000000001
11
9.8699837401574797
21
-5.660615472440945
0
LINE
8
BLACK
6
CONTINUOUS
10
9.8699837401574797
20
-5.660615472440945
11
9.8624846850393695
21
-5.6568659055118111
0
LINE
8
BLACK
6
CONTINUOUS
10
9.9074790551181096
20
-5.6231201574803151
11
9.9074790551181096
21
-5.6381182677165356
0
LINE
8
BLACK
6
CONTINUOUS
10
9.9374753149606292
20
-5.6231201574803151
11
9.9374753149606292
21
-5.6381182677165356
0
LINE
8
BLACK
6
CONTINUOUS
10
10.0537108267716526
20
-5.7318565354330708
11
10.0499612598425188
21
-5.7281070078740157
0
LINE
8
BLACK
6
CONTINUOUS
10
10.0499612598425188
20
-5.7281070078740157
11
10.0424622047244085
21
-5.7168584251968504
0
LINE
8
BLACK
6
CONTINUOUS
10
10.0424622047244085
20
-5.7168584251968504
11
10.0387126771653534
21
-5.7093593700787402
0
LINE
8
BLACK
6
CONTINUOUS
10
10.0387126771653534
20
-5.7093593700787402
11
10.0349631496062983
21
-5.6981107874015748
0
LINE
8
BLACK
6
CONTINUOUS
10
10.0349631496062983
20
-5.6981107874015748
11
10.0312136220472432
21
-5.6793631102362205
0
LINE
8
BLACK
6
CONTINUOUS
10
10.0312136220472432
20
-5.6793631102362205
11
10.0312136220472432
21
-5.6643650000000001
0
LINE
8
BLACK
6
CONTINUOUS
10
10.0312136220472432
20
-5.6643650000000001
11
10.0349631496062983
21
-5.6456173228346458
0
LINE
8
BLACK
6
CONTINUOUS
10
10.0349631496062983
20
-5.6456173228346458
11
10.0387126771653534
21
-5.6343687401574805
0
LINE
8
BLACK
6
CONTINUOUS
10
10.0387126771653534
20
-5.6343687401574805
11
10.0424622047244085
21
-5.6268696850393702
0
LINE
8
BLACK
6
CONTINUOUS
10
10.0424622047244085
20
-5.6268696850393702
11
10.0499612598425188
21
-5.6156210629921262
0
LINE
8
BLACK
6
CONTINUOUS
10
10.0499612598425188
20
-5.6156210629921262
11
10.0537108267716526
21
-5.611871535433071
0
LINE
8
BLACK
6
CONTINUOUS
10
10.1249518897637785
20
-5.7018603149606299
11
10.0799575196850384
21
-5.7018603149606299
0
LINE
8
BLACK
6
CONTINUOUS
10
10.1024546850393691
20
-5.7018603149606299
11
10.1024546850393691
21
-5.6231201574803151
0
LINE
8
BLACK
6
CONTINUOUS
10
10.1024546850393691
20
-5.6231201574803151
11
10.0949556299212588
21
-5.6343687401574805
0
LINE
8
BLACK
6
CONTINUOUS
10
10.0949556299212588
20
-5.6343687401574805
11
10.0874565748031486
21
-5.6418677952755907
0
LINE
8
BLACK
6
CONTINUOUS
10
10.0874565748031486
20
-5.6418677952755907
11
10.0799575196850384
21
-5.6456173228346458
0
LINE
8
BLACK
6
CONTINUOUS
10
10.1924434645669297
20
-5.6493668503937009
11
10.1924434645669297
21
-5.7018603149606299
0
LINE
8
BLACK
6
CONTINUOUS
10
10.1736957874015754
20
-5.61937062992126
11
10.1549481496062981
21
-5.6756135826771654
0
LINE
8
BLACK
6
CONTINUOUS
10
10.1549481496062981
20
-5.6756135826771654
11
10.2036920472440951
21
-5.6756135826771654
0
LINE
8
BLACK
6
CONTINUOUS
10
10.293680826771654
20
-5.7018603149606299
11
10.293680826771654
21
-5.6231201574803151
0
LINE
8
BLACK
6
CONTINUOUS
10
10.3274266141732287
20
-5.7018603149606299
11
10.3274266141732287
21
-5.660615472440945
0
LINE
8
BLACK
6
CONTINUOUS
10
10.3274266141732287
20
-5.660615472440945
11
10.3236770866141736
21
-5.653116377952756
0
LINE
8
BLACK
6
CONTINUOUS
10
10.3236770866141736
20
-5.653116377952756
11
10.3161780314960634
21
-5.6493668503937009
0
LINE
8
BLACK
6
CONTINUOUS
10
10.3161780314960634
20
-5.6493668503937009
11
10.3049294094488193
21
-5.6493668503937009
0
LINE
8
BLACK
6
CONTINUOUS
10
10.3049294094488193
20
-5.6493668503937009
11
10.2974303543307091
21
-5.653116377952756
0
LINE
8
BLACK
6
CONTINUOUS
10
10.2974303543307091
20
-5.653116377952756
11
10.293680826771654
21
-5.6568659055118111
0
LINE
8
BLACK
6
CONTINUOUS
10
10.3761705118110239
20
-5.7018603149606299
11
10.3686714566929137
21
-5.6981107874015748
0
LINE
8
BLACK
6
CONTINUOUS
10
10.3686714566929137
20
-5.6981107874015748
11
10.3649219291338586
21
-5.694361220472441
0
LINE
8
BLACK
6
CONTINUOUS
10
10.3649219291338586
20
-5.694361220472441
11
10.3611724015748035
21
-5.6868621653543308
0
LINE
8
BLACK
6
CONTINUOUS
10
10.3611724015748035
20
-5.6868621653543308
11
10.3611724015748035
21
-5.6643650000000001
0
LINE
8
BLACK
6
CONTINUOUS
10
10.3611724015748035
20
-5.6643650000000001
11
10.3649219291338586
21
-5.6568659055118111
0
LINE
8
BLACK
6
CONTINUOUS
10
10.3649219291338586
20
-5.6568659055118111
11
10.3686714566929137
21
-5.653116377952756
0
LINE
8
BLACK
6
CONTINUOUS
10
10.3686714566929137
20
-5.653116377952756
11
10.3761705118110239
21
-5.6493668503937009
0
LINE
8
BLACK
6
CONTINUOUS
10
10.3761705118110239
20
-5.6493668503937009
11
10.387419133858268
21
-5.6493668503937009
0
LINE
8
BLACK
6
CONTINUOUS
10
10.387419133858268
20
-5.6493668503937009
11
10.3949181889763782
21
-5.653116377952756
0
LINE
8
BLACK
6
CONTINUOUS
10
10.3949181889763782
20
-5.653116377952756
11
10.3986677165354333
21
-5.6568659055118111
0
LINE
8
BLACK
6
CONTINUOUS
10
10.3986677165354333
20
-5.6568659055118111
11
10.4024172440944884
21
-5.6643650000000001
0
LINE
8
BLACK
6
CONTINUOUS
10
10.4024172440944884
20
-5.6643650000000001
11
10.4024172440944884
21
-5.6868621653543308
0
LINE
8
BLACK
6
CONTINUOUS
10
10.4024172440944884
20
-5.6868621653543308
11
10.3986677165354333
21
-5.694361220472441
0
LINE
8
BLACK
6
CONTINUOUS
10
10.3986677165354333
20
-5.694361220472441
11
10.3949181889763782
21
-5.6981107874015748
0
LINE
8
BLACK
6
CONTINUOUS
10
10.3949181889763782
20
-5.6981107874015748
11
10.387419133858268
21
-5.7018603149606299
0
LINE
8
BLACK
6
CONTINUOUS
10
10.387419133858268
20
-5.7018603149606299
11
10.3761705118110239
21
-5.7018603149606299
0
LINE
8
BLACK
6
CONTINUOUS
10
10.4474116141732285
20
-5.7018603149606299
11
10.4399125590551183
21
-5.6981107874015748
0
LINE
8
BLACK
6
CONTINUOUS
10
10.4399125590551183
20
-5.6981107874015748
11
10.4361630314960632
21
-5.6906116929133859
0
LINE
8
BLACK
6
CONTINUOUS
10
10.4361630314960632
20
-5.6906116929133859
11
10.4361630314960632
21
-5.6231201574803151
0
LINE
8
BLACK
6
CONTINUOUS
10
10.5074041338582678
20
-5.6981107874015748
11
10.4999050787401575
21
-5.7018603149606299
0
LINE
8
BLACK
6
CONTINUOUS
10
10.4999050787401575
20
-5.7018603149606299
11
10.4849069291338584
21
-5.7018603149606299
0
LINE
8
BLACK
6
CONTINUOUS
10
10.4849069291338584
20
-5.7018603149606299
11
10.4774078740157481
21
-5.6981107874015748
0
LINE
8
BLACK
6
CONTINUOUS
10
10.4774078740157481
20
-5.6981107874015748
11
10.473658346456693
21
-5.6906116929133859
0
LINE
8
BLACK
6
CONTINUOUS
10
10.473658346456693
20
-5.6906116929133859
11
10.473658346456693
21
-5.660615472440945
0
LINE
8
BLACK
6
CONTINUOUS
10
10.473658346456693
20
-5.660615472440945
11
10.4774078740157481
21
-5.653116377952756
0
LINE
8
BLACK
6
CONTINUOUS
10
10.4774078740157481
20
-5.653116377952756
11
10.4849069291338584
21
-5.6493668503937009
0
LINE
8
BLACK
6
CONTINUOUS
10
10.4849069291338584
20
-5.6493668503937009
11
10.4999050787401575
21
-5.6493668503937009
0
LINE
8
BLACK
6
CONTINUOUS
10
10.4999050787401575
20
-5.6493668503937009
11
10.5074041338582678
21
-5.653116377952756
0
LINE
8
BLACK
6
CONTINUOUS
10
10.5074041338582678
20
-5.653116377952756
11
10.5111536614173229
21
-5.660615472440945
0
LINE
8
BLACK
6
CONTINUOUS
10
10.5111536614173229
20
-5.660615472440945
11
10.5111536614173229
21
-5.6681145275590552
0
LINE
8
BLACK
6
CONTINUOUS
10
10.5111536614173229
20
-5.6681145275590552
11
10.473658346456693
21
-5.6756135826771654
0
LINE
8
BLACK
6
CONTINUOUS
10
10.5411499212598425
20
-5.6981107874015748
11
10.5486489763779527
21
-5.7018603149606299
0
LINE
8
BLACK
6
CONTINUOUS
10
10.5486489763779527
20
-5.7018603149606299
11
10.5636470866141732
21
-5.7018603149606299
0
LINE
8
BLACK
6
CONTINUOUS
10
10.5636470866141732
20
-5.7018603149606299
11
10.5711461811023621
21
-5.6981107874015748
0
LINE
8
BLACK
6
CONTINUOUS
10
10.5711461811023621
20
-5.6981107874015748
11
10.5748957086614173
21
-5.6906116929133859
0
LINE
8
BLACK
6
CONTINUOUS
10
10.5748957086614173
20
-5.6906116929133859
11
10.5748957086614173
21
-5.6868621653543308
0
LINE
8
BLACK
6
CONTINUOUS
10
10.5748957086614173
20
-5.6868621653543308
11
10.5711461811023621
21
-5.6793631102362205
0
LINE
8
BLACK
6
CONTINUOUS
10
10.5711461811023621
20
-5.6793631102362205
11
10.5636470866141732
21
-5.6756135826771654
0
LINE
8
BLACK
6
CONTINUOUS
10
10.5636470866141732
20
-5.6756135826771654
11
10.5523985039370078
21
-5.6756135826771654
0
LINE
8
BLACK
6
CONTINUOUS
10
10.5523985039370078
20
-5.6756135826771654
11
10.5448994488188976
21
-5.6718640551181103
0
LINE
8
BLACK
6
CONTINUOUS
10
10.5448994488188976
20
-5.6718640551181103
11
10.5411499212598425
21
-5.6643650000000001
0
LINE
8
BLACK
6
CONTINUOUS
10
10.5411499212598425
20
-5.6643650000000001
11
10.5411499212598425
21
-5.660615472440945
0
LINE
8
BLACK
6
CONTINUOUS
10
10.5411499212598425
20
-5.660615472440945
11
10.5448994488188976
21
-5.653116377952756
0
LINE
8
BLACK
6
CONTINUOUS
10
10.5448994488188976
20
-5.653116377952756
11
10.5523985039370078
21
-5.6493668503937009
0
LINE
8
BLACK
6
CONTINUOUS
10
10.5523985039370078
20
-5.6493668503937009
11
10.5636470866141732
21
-5.6493668503937009
0
LINE
8
BLACK
6
CONTINUOUS
10
10.5636470866141732
20
-5.6493668503937009
11
10.5711461811023621
21
-5.653116377952756
0
LINE
8
BLACK
6
CONTINUOUS
10
10.6011424409448818
20
-5.7318565354330708
11
10.6048919685039369
21
-5.7281070078740157
0
LINE
8
BLACK
6
CONTINUOUS
10
10.6048919685039369
20
-5.7281070078740157
11
10.6123910236220471
21
-5.7168584251968504
0
LINE
8
BLACK
6
CONTINUOUS
10
10.6123910236220471
20
-5.7168584251968504
11
10.6161405511811022
21
-5.7093593700787402
0
LINE
8
BLACK
6
CONTINUOUS
10
10.6161405511811022
20
-5.7093593700787402
11
10.6198900787401573
21
-5.6981107874015748
0
LINE
8
BLACK
6
CONTINUOUS
10
10.6198900787401573
20
-5.6981107874015748
11
10.6236396062992124
21
-5.6793631102362205
0
LINE
8
BLACK
6
CONTINUOUS
10
10.6236396062992124
20
-5.6793631102362205
11
10.6236396062992124
21
-5.6643650000000001
0
LINE
8
BLACK
6
CONTINUOUS
10
10.6236396062992124
20
-5.6643650000000001
11
10.6198900787401573
21
-5.6456173228346458
0
LINE
8
BLACK
6
CONTINUOUS
10
10.6198900787401573
20
-5.6456173228346458
11
10.6161405511811022
21
-5.6343687401574805
0
LINE
8
BLACK
6
CONTINUOUS
10
10.6161405511811022
20
-5.6343687401574805
11
10.6123910236220471
21
-5.6268696850393702
0
LINE
8
BLACK
6
CONTINUOUS
10
10.6123910236220471
20
-5.6268696850393702
11
10.6048919685039369
21
-5.6156210629921262
0
LINE
8
BLACK
6
CONTINUOUS
10
10.6048919685039369
20
-5.6156210629921262
11
10.6011424409448818
21
-5.611871535433071
0
CIRCLE
8
BLACK
10
8.6402057480314962
20
-5.7697800787401574
40
0.006
0
LINE
8
BLACK
6
CONTINUOUS
10
8.7638718897637791
20
-5.7270571653543305
11
8.771370984251968
21
-5.7270571653543305
0
LINE
8
BLACK
6
CONTINUOUS
10
8.771370984251968
20
-5.7270571653543305
11
8.7788700393700783
21
-5.7308066929133856
0
LINE
8
BLACK
6
CONTINUOUS
10
8.7788700393700783
20
-5.7308066929133856
11
8.7826195669291334
21
-5.7345562204724407
0
LINE
8
BLACK
6
CONTINUOUS
10
8.7826195669291334
20
-5.7345562204724407
11
8.7863690944881885
21
-5.742055275590551
0
LINE
8
BLACK
6
CONTINUOUS
10
8.7863690944881885
20
-5.742055275590551
11
8.7901186220472436
21
-5.7570533858267714
0
LINE
8
BLACK
6
CONTINUOUS
10
8.7901186220472436
20
-5.7570533858267714
11
8.7901186220472436
21
-5.7758010629921257
0
LINE
8
BLACK
6
CONTINUOUS
10
8.7901186220472436
20
-5.7758010629921257
11
8.7863690944881885
21
-5.7907991732283461
0
LINE
8
BLACK
6
CONTINUOUS
10
8.7863690944881885
20
-5.7907991732283461
11
8.7826195669291334
21
-5.7982982283464564
0
LINE
8
BLACK
6
CONTINUOUS
10
8.7826195669291334
20
-5.7982982283464564
11
8.7788700393700783
21
-5.8020477952755902
0
LINE
8
BLACK
6
CONTINUOUS
10
8.7788700393700783
20
-5.8020477952755902
11
8.771370984251968
21
-5.8057973228346453
0
LINE
8
BLACK
6
CONTINUOUS
10
8.771370984251968
20
-5.8057973228346453
11
8.7638718897637791
21
-5.8057973228346453
0
LINE
8
BLACK
6
CONTINUOUS
10
8.7638718897637791
20
-5.8057973228346453
11
8.7563728346456688
21
-5.8020477952755902
0
LINE
8
BLACK
6
CONTINUOUS
10
8.7563728346456688
20
-5.8020477952755902
11
8.7526233070866137
21
-5.7982982283464564
0
LINE
8
BLACK
6
CONTINUOUS
10
8.7526233070866137
20
-5.7982982283464564
11
8.7488737795275586
21
-5.7907991732283461
0
LINE
8
BLACK
6
CONTINUOUS
10
8.7488737795275586
20
-5.7907991732283461
11
8.7451242519685035
21
-5.7758010629921257
0
LINE
8
BLACK
6
CONTINUOUS
10
8.7451242519685035
20
-5.7758010629921257
11
8.7451242519685035
21
-5.7570533858267714
0
LINE
8
BLACK
6
CONTINUOUS
10
8.7451242519685035
20
-5.7570533858267714
11
8.7488737795275586
21
-5.742055275590551
0
LINE
8
BLACK
6
CONTINUOUS
10
8.7488737795275586
20
-5.742055275590551
11
8.7526233070866137
21
-5.7345562204724407
0
LINE
8
BLACK
6
CONTINUOUS
10
8.7526233070866137
20
-5.7345562204724407
11
8.7563728346456688
21
-5.7308066929133856
0
LINE
8
BLACK
6
CONTINUOUS
10
8.7563728346456688
20
-5.7308066929133856
11
8.7638718897637791
21
-5.7270571653543305
0
LINE
8
BLACK
6
CONTINUOUS
10
8.8238644094488183
20
-5.7982982283464564
11
8.8276139370078734
21
-5.8020477952755902
0
LINE
8
BLACK
6
CONTINUOUS
10
8.8276139370078734
20
-5.8020477952755902
11
8.8238644094488183
21
-5.8057973228346453
0
LINE
8
BLACK
6
CONTINUOUS
10
8.8238644094488183
20
-5.8057973228346453
11
8.8201148818897632
21
-5.8020477952755902
0
LINE
8
BLACK
6
CONTINUOUS
10
8.8201148818897632
20
-5.8020477952755902
11
8.8238644094488183
21
-5.7982982283464564
0
LINE
8
BLACK
6
CONTINUOUS
10
8.8238644094488183
20
-5.7982982283464564
11
8.8238644094488183
21
-5.8057973228346453
0
LINE
8
BLACK
6
CONTINUOUS
10
8.853860669291338
20
-5.7270571653543305
11
8.9026045669291332
21
-5.7270571653543305
0
LINE
8
BLACK
6
CONTINUOUS
10
8.9026045669291332
20
-5.7270571653543305
11
8.8763578346456686
21
-5.7570533858267714
0
LINE
8
BLACK
6
CONTINUOUS
10
8.8763578346456686
20
-5.7570533858267714
11
8.8876064566929127
21
-5.7570533858267714
0
LINE
8
BLACK
6
CONTINUOUS
10
8.8876064566929127
20
-5.7570533858267714
11
8.8951055118110229
21
-5.7608029133858265
0
LINE
8
BLACK
6
CONTINUOUS
10
8.8951055118110229
20
-5.7608029133858265
11
8.898855039370078
21
-5.7645524803149604
0
LINE
8
BLACK
6
CONTINUOUS
10
8.898855039370078
20
-5.7645524803149604
11
8.9026045669291332
21
-5.7720515354330706
0
LINE
8
BLACK
6
CONTINUOUS
10
8.9026045669291332
20
-5.7720515354330706
11
8.9026045669291332
21
-5.7907991732283461
0
LINE
8
BLACK
6
CONTINUOUS
10
8.9026045669291332
20
-5.7907991732283461
11
8.898855039370078
21
-5.7982982283464564
0
LINE
8
BLACK
6
CONTINUOUS
10
8.898855039370078
20
-5.7982982283464564
11
8.8951055118110229
21
-5.8020477952755902
0
LINE
8
BLACK
6
CONTINUOUS
10
8.8951055118110229
20
-5.8020477952755902
11
8.8876064566929127
21
-5.8057973228346453
0
LINE
8
BLACK
6
CONTINUOUS
10
8.8876064566929127
20
-5.8057973228346453
11
8.8651092519685033
21
-5.8057973228346453
0
LINE
8
BLACK
6
CONTINUOUS
10
8.8651092519685033
20
-5.8057973228346453
11
8.8576101968503931
21
-5.8020477952755902
0
LINE
8
BLACK
6
CONTINUOUS
10
8.8576101968503931
20
-5.8020477952755902
11
8.853860669291338
21
-5.7982982283464564
0
LINE
8
BLACK
6
CONTINUOUS
10
8.9513484645669283
20
-5.7270571653543305
11
8.9588475590551173
21
-5.7270571653543305
0
LINE
8
BLACK
6
CONTINUOUS
10
8.9588475590551173
20
-5.7270571653543305
11
8.9663466141732275
21
-5.7308066929133856
0
LINE
8
BLACK
6
CONTINUOUS
10
8.9663466141732275
20
-5.7308066929133856
11
8.9700961417322826
21
-5.7345562204724407
0
LINE
8
BLACK
6
CONTINUOUS
10
8.9700961417322826
20
-5.7345562204724407
11
8.9738456692913378
21
-5.742055275590551
0
LINE
8
BLACK
6
CONTINUOUS
10
8.9738456692913378
20
-5.742055275590551
11
8.9775951968503929
21
-5.7570533858267714
0
LINE
8
BLACK
6
CONTINUOUS
10
8.9775951968503929
20
-5.7570533858267714
11
8.9775951968503929
21
-5.7758010629921257
0
LINE
8
BLACK
6
CONTINUOUS
10
8.9775951968503929
20
-5.7758010629921257
11
8.9738456692913378
21
-5.7907991732283461
0
LINE
8
BLACK
6
CONTINUOUS
10
8.9738456692913378
20
-5.7907991732283461
11
8.9700961417322826
21
-5.7982982283464564
0
LINE
8
BLACK
6
CONTINUOUS
10
8.9700961417322826
20
-5.7982982283464564
11
8.9663466141732275
21
-5.8020477952755902
0
LINE
8
BLACK
6
CONTINUOUS
10
8.9663466141732275
20
-5.8020477952755902
11
8.9588475590551173
21
-5.8057973228346453
0
LINE
8
BLACK
6
CONTINUOUS
10
8.9588475590551173
20
-5.8057973228346453
11
8.9513484645669283
21
-5.8057973228346453
0
LINE
8
BLACK
6
CONTINUOUS
10
8.9513484645669283
20
-5.8057973228346453
11
8.9438494094488181
21
-5.8020477952755902
0
LINE
8
BLACK
6
CONTINUOUS
10
8.9438494094488181
20
-5.8020477952755902
11
8.940099881889763
21
-5.7982982283464564
0
LINE
8
BLACK
6
CONTINUOUS
10
8.940099881889763
20
-5.7982982283464564
11
8.9363503543307079
21
-5.7907991732283461
0
LINE
8
BLACK
6
CONTINUOUS
10
8.9363503543307079
20
-5.7907991732283461
11
8.9326008267716528
21
-5.7758010629921257
0
LINE
8
BLACK
6
CONTINUOUS
10
8.9326008267716528
20
-5.7758010629921257
11
8.9326008267716528
21
-5.7570533858267714
0
LINE
8
BLACK
6
CONTINUOUS
10
8.9326008267716528
20
-5.7570533858267714
11
8.9363503543307079
21
-5.742055275590551
0
LINE
8
BLACK
6
CONTINUOUS
10
8.9363503543307079
20
-5.742055275590551
11
8.940099881889763
21
-5.7345562204724407
0
LINE
8
BLACK
6
CONTINUOUS
10
8.940099881889763
20
-5.7345562204724407
11
8.9438494094488181
21
-5.7308066929133856
0
LINE
8
BLACK
6
CONTINUOUS
10
8.9438494094488181
20
-5.7308066929133856
11
8.9513484645669283
21
-5.7270571653543305
0
LINE
8
BLACK
6
CONTINUOUS
10
9.0488362992125975
20
-5.7270571653543305
11
9.0113409842519676
21
-5.7270571653543305
0
LINE
8
BLACK
6
CONTINUOUS
10
9.0113409842519676
20
-5.7270571653543305
11
9.0075914566929125
21
-5.7645524803149604
0
LINE
8
BLACK
6
CONTINUOUS
10
9.0075914566929125
20
-5.7645524803149604
11
9.0113409842519676
21
-5.7608029133858265
0
LINE
8
BLACK
6
CONTINUOUS
10
9.0113409842519676
20
-5.7608029133858265
11
9.0188400393700778
21
-5.7570533858267714
0
LINE
8
BLACK
6
CONTINUOUS
10
9.0188400393700778
20
-5.7570533858267714
11
9.0375877165354321
21
-5.7570533858267714
0
LINE
8
BLACK
6
CONTINUOUS
10
9.0375877165354321
20
-5.7570533858267714
11
9.0450867716535424
21
-5.7608029133858265
0
LINE
8
BLACK
6
CONTINUOUS
10
9.0450867716535424
20
-5.7608029133858265
11
9.0488362992125975
21
-5.7645524803149604
0
LINE
8
BLACK
6
CONTINUOUS
10
9.0488362992125975
20
-5.7645524803149604
11
9.0525858267716526
21
-5.7720515354330706
0
LINE
8
BLACK
6
CONTINUOUS
10
9.0525858267716526
20
-5.7720515354330706
11
9.0525858267716526
21
-5.7907991732283461
0
LINE
8
BLACK
6
CONTINUOUS
10
9.0525858267716526
20
-5.7907991732283461
11
9.0488362992125975
21
-5.7982982283464564
0
LINE
8
BLACK
6
CONTINUOUS
10
9.0488362992125975
20
-5.7982982283464564
11
9.0450867716535424
21
-5.8020477952755902
0
LINE
8
BLACK
6
CONTINUOUS
10
9.0450867716535424
20
-5.8020477952755902
11
9.0375877165354321
21
-5.8057973228346453
0
LINE
8
BLACK
6
CONTINUOUS
10
9.0375877165354321
20
-5.8057973228346453
11
9.0188400393700778
21
-5.8057973228346453
0
LINE
8
BLACK
6
CONTINUOUS
10
9.0188400393700778
20
-5.8057973228346453
11
9.0113409842519676
21
-5.8020477952755902
0
LINE
8
BLACK
6
CONTINUOUS
10
9.0113409842519676
20
-5.8020477952755902
11
9.0075914566929125
21
-5.7982982283464564
0
LINE
8
BLACK
6
CONTINUOUS
10
9.0863316141732273
20
-5.8057973228346453
11
9.0863316141732273
21
-5.7533038582677163
0
LINE
8
BLACK
6
CONTINUOUS
10
9.0863316141732273
20
-5.7608029133858265
11
9.0900811417322824
21
-5.7570533858267714
0
LINE
8
BLACK
6
CONTINUOUS
10
9.0900811417322824
20
-5.7570533858267714
11
9.0975801968503927
21
-5.7533038582677163
0
LINE
8
BLACK
6
CONTINUOUS
10
9.0975801968503927
20
-5.7533038582677163
11
9.1088288188976367
21
-5.7533038582677163
0
LINE
8
BLACK
6
CONTINUOUS
10
9.1088288188976367
20
-5.7533038582677163
11
9.116327874015747
21
-5.7570533858267714
0
LINE
8
BLACK
6
CONTINUOUS
10
9.116327874015747
20
-5.7570533858267714
11
9.1200774015748021
21
-5.7645524803149604
0
LINE
8
BLACK
6
CONTINUOUS
10
9.1200774015748021
20
-5.7645524803149604
11
9.1200774015748021
21
-5.8057973228346453
0
LINE
8
BLACK
6
CONTINUOUS
10
9.1200774015748021
20
-5.7645524803149604
11
9.1238269291338572
21
-5.7570533858267714
0
LINE
8
BLACK
6
CONTINUOUS
10
9.1238269291338572
20
-5.7570533858267714
11
9.1313259842519692
21
-5.7533038582677163
0
LINE
8
BLACK
6
CONTINUOUS
10
9.1313259842519692
20
-5.7533038582677163
11
9.1425745669291345
21
-5.7533038582677163
0
LINE
8
BLACK
6
CONTINUOUS
10
9.1425745669291345
20
-5.7533038582677163
11
9.1500736614173235
21
-5.7570533858267714
0
LINE
8
BLACK
6
CONTINUOUS
10
9.1500736614173235
20
-5.7570533858267714
11
9.1538231889763786
21
-5.7645524803149604
0
LINE
8
BLACK
6
CONTINUOUS
10
9.1538231889763786
20
-5.7645524803149604
11
9.1538231889763786
21
-5.8057973228346453
0
LINE
8
BLACK
6
CONTINUOUS
10
9.1913185039370084
20
-5.8057973228346453
11
9.1913185039370084
21
-5.7533038582677163
0
LINE
8
BLACK
6
CONTINUOUS
10
9.1913185039370084
20
-5.7608029133858265
11
9.1950680314960636
21
-5.7570533858267714
0
LINE
8
BLACK
6
CONTINUOUS
10
9.1950680314960636
20
-5.7570533858267714
11
9.2025670866141738
21
-5.7533038582677163
0
LINE
8
BLACK
6
CONTINUOUS
10
9.2025670866141738
20
-5.7533038582677163
11
9.2138157086614179
21
-5.7533038582677163
0
LINE
8
BLACK
6
CONTINUOUS
10
9.2138157086614179
20
-5.7533038582677163
11
9.2213147637795281
21
-5.7570533858267714
0
LINE
8
BLACK
6
CONTINUOUS
10
9.2213147637795281
20
-5.7570533858267714
11
9.2250642913385832
21
-5.7645524803149604
0
LINE
8
BLACK
6
CONTINUOUS
10
9.2250642913385832
20
-5.7645524803149604
11
9.2250642913385832
21
-5.8057973228346453
0
LINE
8
BLACK
6
CONTINUOUS
10
9.2250642913385832
20
-5.7645524803149604
11
9.2288138188976383
21
-5.7570533858267714
0
LINE
8
BLACK
6
CONTINUOUS
10
9.2288138188976383
20
-5.7570533858267714
11
9.2363128740157485
21
-5.7533038582677163
0
LINE
8
BLACK
6
CONTINUOUS
10
9.2363128740157485
20
-5.7533038582677163
11
9.2475614566929139
21
-5.7533038582677163
0
LINE
8
BLACK
6
CONTINUOUS
10
9.2475614566929139
20
-5.7533038582677163
11
9.2550605511811028
21
-5.7570533858267714
0
LINE
8
BLACK
6
CONTINUOUS
10
9.2550605511811028
20
-5.7570533858267714
11
9.2588100787401579
21
-5.7645524803149604
0
LINE
8
BLACK
6
CONTINUOUS
10
9.2588100787401579
20
-5.7645524803149604
11
9.2588100787401579
21
-5.8057973228346453
0
LINE
8
BLACK
6
CONTINUOUS
10
9.4125408661417325
20
-5.7233076377952754
11
9.3450493307086617
21
-5.8245449606299209
0
LINE
8
BLACK
6
CONTINUOUS
10
9.5137782283464567
20
-5.7270571653543305
11
9.5212773228346457
21
-5.7270571653543305
0
LINE
8
BLACK
6
CONTINUOUS
10
9.5212773228346457
20
-5.7270571653543305
11
9.5287763779527559
21
-5.7308066929133856
0
LINE
8
BLACK
6
CONTINUOUS
10
9.5287763779527559
20
-5.7308066929133856
11
9.532525905511811
21
-5.7345562204724407
0
LINE
8
BLACK
6
CONTINUOUS
10
9.532525905511811
20
-5.7345562204724407
11
9.5362754330708661
21
-5.742055275590551
0
LINE
8
BLACK
6
CONTINUOUS
10
9.5362754330708661
20
-5.742055275590551
11
9.5400249606299212
21
-5.7570533858267714
0
LINE
8
BLACK
6
CONTINUOUS
10
9.5400249606299212
20
-5.7570533858267714
11
9.5400249606299212
21
-5.7758010629921257
0
LINE
8
BLACK
6
CONTINUOUS
10
9.5400249606299212
20
-5.7758010629921257
11
9.5362754330708661
21
-5.7907991732283461
0
LINE
8
BLACK
6
CONTINUOUS
10
9.5362754330708661
20
-5.7907991732283461
11
9.532525905511811
21
-5.7982982283464564
0
LINE
8
BLACK
6
CONTINUOUS
10
9.532525905511811
20
-5.7982982283464564
11
9.5287763779527559
21
-5.8020477952755902
0
LINE
8
BLACK
6
CONTINUOUS
10
9.5287763779527559
20
-5.8020477952755902
11
9.5212773228346457
21
-5.8057973228346453
0
LINE
8
BLACK
6
CONTINUOUS
10
9.5212773228346457
20
-5.8057973228346453
11
9.5137782283464567
21
-5.8057973228346453
0
LINE
8
BLACK
6
CONTINUOUS
10
9.5137782283464567
20
-5.8057973228346453
11
9.5062791732283465
21
-5.8020477952755902
0
LINE
8
BLACK
6
CONTINUOUS
10
9.5062791732283465
20
-5.8020477952755902
11
9.5025296456692914
21
-5.7982982283464564
0
LINE
8
BLACK
6
CONTINUOUS
10
9.5025296456692914
20
-5.7982982283464564
11
9.4987801181102363
21
-5.7907991732283461
0
LINE
8
BLACK
6
CONTINUOUS
10
9.4987801181102363
20
-5.7907991732283461
11
9.4950305905511811
21
-5.7758010629921257
0
LINE
8
BLACK
6
CONTINUOUS
10
9.4950305905511811
20
-5.7758010629921257
11
9.4950305905511811
21
-5.7570533858267714
0
LINE
8
BLACK
6
CONTINUOUS
10
9.4950305905511811
20
-5.7570533858267714
11
9.4987801181102363
21
-5.742055275590551
0
LINE
8
BLACK
6
CONTINUOUS
10
9.4987801181102363
20
-5.742055275590551
11
9.5025296456692914
21
-5.7345562204724407
0
LINE
8
BLACK
6
CONTINUOUS
10
9.5025296456692914
20
-5.7345562204724407
11
9.5062791732283465
21
-5.7308066929133856
0
LINE
8
BLACK
6
CONTINUOUS
10
9.5062791732283465
20
-5.7308066929133856
11
9.5137782283464567
21
-5.7270571653543305
0
LINE
8
BLACK
6
CONTINUOUS
10
9.573770748031496
20
-5.7982982283464564
11
9.5775202755905511
21
-5.8020477952755902
0
LINE
8
BLACK
6
CONTINUOUS
10
9.5775202755905511
20
-5.8020477952755902
11
9.573770748031496
21
-5.8057973228346453
0
LINE
8
BLACK
6
CONTINUOUS
10
9.573770748031496
20
-5.8057973228346453
11
9.5700212204724409
21
-5.8020477952755902
0
LINE
8
BLACK
6
CONTINUOUS
10
9.5700212204724409
20
-5.8020477952755902
11
9.573770748031496
21
-5.7982982283464564
0
LINE
8
BLACK
6
CONTINUOUS
10
9.573770748031496
20
-5.7982982283464564
11
9.573770748031496
21
-5.8057973228346453
0
LINE
8
BLACK
6
CONTINUOUS
10
9.6262641732283463
20
-5.7270571653543305
11
9.6337632677165352
21
-5.7270571653543305
0
LINE
8
BLACK
6
CONTINUOUS
10
9.6337632677165352
20
-5.7270571653543305
11
9.6412623228346455
21
-5.7308066929133856
0
LINE
8
BLACK
6
CONTINUOUS
10
9.6412623228346455
20
-5.7308066929133856
11
9.6450118503937006
21
-5.7345562204724407
0
LINE
8
BLACK
6
CONTINUOUS
10
9.6450118503937006
20
-5.7345562204724407
11
9.6487613779527557
21
-5.742055275590551
0
LINE
8
BLACK
6
CONTINUOUS
10
9.6487613779527557
20
-5.742055275590551
11
9.6525109055118108
21
-5.7570533858267714
0
LINE
8
BLACK
6
CONTINUOUS
10
9.6525109055118108
20
-5.7570533858267714
11
9.6525109055118108
21
-5.7758010629921257
0
LINE
8
BLACK
6
CONTINUOUS
10
9.6525109055118108
20
-5.7758010629921257
11
9.6487613779527557
21
-5.7907991732283461
0
LINE
8
BLACK
6
CONTINUOUS
10
9.6487613779527557
20
-5.7907991732283461
11
9.6450118503937006
21
-5.7982982283464564
0
LINE
8
BLACK
6
CONTINUOUS
10
9.6450118503937006
20
-5.7982982283464564
11
9.6412623228346455
21
-5.8020477952755902
0
LINE
8
BLACK
6
CONTINUOUS
10
9.6412623228346455
20
-5.8020477952755902
11
9.6337632677165352
21
-5.8057973228346453
0
LINE
8
BLACK
6
CONTINUOUS
10
9.6337632677165352
20
-5.8057973228346453
11
9.6262641732283463
21
-5.8057973228346453
0
LINE
8
BLACK
6
CONTINUOUS
10
9.6262641732283463
20
-5.8057973228346453
11
9.618765118110236
21
-5.8020477952755902
0
LINE
8
BLACK
6
CONTINUOUS
10
9.618765118110236
20
-5.8020477952755902
11
9.6150155905511809
21
-5.7982982283464564
0
LINE
8
BLACK
6
CONTINUOUS
10
9.6150155905511809
20
-5.7982982283464564
11
9.6112660629921258
21
-5.7907991732283461
0
LINE
8
BLACK
6
CONTINUOUS
10
9.6112660629921258
20
-5.7907991732283461
11
9.6075165354330707
21
-5.7758010629921257
0
LINE
8
BLACK
6
CONTINUOUS
10
9.6075165354330707
20
-5.7758010629921257
11
9.6075165354330707
21
-5.7570533858267714
0
LINE
8
BLACK
6
CONTINUOUS
10
9.6075165354330707
20
-5.7570533858267714
11
9.6112660629921258
21
-5.742055275590551
0
LINE
8
BLACK
6
CONTINUOUS
10
9.6112660629921258
20
-5.742055275590551
11
9.6150155905511809
21
-5.7345562204724407
0
LINE
8
BLACK
6
CONTINUOUS
10
9.6150155905511809
20
-5.7345562204724407
11
9.618765118110236
21
-5.7308066929133856
0
LINE
8
BLACK
6
CONTINUOUS
10
9.618765118110236
20
-5.7308066929133856
11
9.6262641732283463
21
-5.7270571653543305
0
LINE
8
BLACK
6
CONTINUOUS
10
9.7275015354330705
20
-5.8057973228346453
11
9.6825071653543304
21
-5.8057973228346453
0
LINE
8
BLACK
6
CONTINUOUS
10
9.7050043307086611
20
-5.8057973228346453
11
9.7050043307086611
21
-5.7270571653543305
0
LINE
8
BLACK
6
CONTINUOUS
10
9.7050043307086611
20
-5.7270571653543305
11
9.6975052755905509
21
-5.7383057480314958
0
LINE
8
BLACK
6
CONTINUOUS
10
9.6975052755905509
20
-5.7383057480314958
11
9.6900062204724406
21
-5.7458048031496061
0
LINE
8
BLACK
6
CONTINUOUS
10
9.6900062204724406
20
-5.7458048031496061
11
9.6825071653543304
21
-5.7495543307086612
0
LINE
8
BLACK
6
CONTINUOUS
10
9.7574977952755901
20
-5.7345562204724407
11
9.7612473228346452
21
-5.7308066929133856
0
LINE
8
BLACK
6
CONTINUOUS
10
9.7612473228346452
20
-5.7308066929133856
11
9.7687463779527555
21
-5.7270571653543305
0
LINE
8
BLACK
6
CONTINUOUS
10
9.7687463779527555
20
-5.7270571653543305
11
9.7874940551181098
21
-5.7270571653543305
0
LINE
8
BLACK
6
CONTINUOUS
10
9.7874940551181098
20
-5.7270571653543305
11
9.79499311023622
21
-5.7308066929133856
0
LINE
8
BLACK
6
CONTINUOUS
10
9.79499311023622
20
-5.7308066929133856
11
9.7987426377952751
21
-5.7345562204724407
0
LINE
8
BLACK
6
CONTINUOUS
10
9.7987426377952751
20
-5.7345562204724407
11
9.8024921653543302
21
-5.742055275590551
0
LINE
8
BLACK
6
CONTINUOUS
10
9.8024921653543302
20
-5.742055275590551
11
9.8024921653543302
21
-5.7495543307086612
0
LINE
8
BLACK
6
CONTINUOUS
10
9.8024921653543302
20
-5.7495543307086612
11
9.7987426377952751
21
-5.7608029133858265
0
LINE
8
BLACK
6
CONTINUOUS
10
9.7987426377952751
20
-5.7608029133858265
11
9.753748267716535
21
-5.8057973228346453
0
LINE
8
BLACK
6
CONTINUOUS
10
9.753748267716535
20
-5.8057973228346453
11
9.8024921653543302
21
-5.8057973228346453
0
LINE
8
BLACK
6
CONTINUOUS
10
9.8512360629921254
20
-5.7270571653543305
11
9.8587351574803144
21
-5.7270571653543305
0
LINE
8
BLACK
6
CONTINUOUS
10
9.8587351574803144
20
-5.7270571653543305
11
9.8662342125984246
21
-5.7308066929133856
0
LINE
8
BLACK
6
CONTINUOUS
10
9.8662342125984246
20
-5.7308066929133856
11
9.8699837401574797
21
-5.7345562204724407
0
LINE
8
BLACK
6
CONTINUOUS
10
9.8699837401574797
20
-5.7345562204724407
11
9.8737332677165348
21
-5.742055275590551
0
LINE
8
BLACK
6
CONTINUOUS
10
9.8737332677165348
20
-5.742055275590551
11
9.8774827952755899
21
-5.7570533858267714
0
LINE
8
BLACK
6
CONTINUOUS
10
9.8774827952755899
20
-5.7570533858267714
11
9.8774827952755899
21
-5.7758010629921257
0
LINE
8
BLACK
6
CONTINUOUS
10
9.8774827952755899
20
-5.7758010629921257
11
9.8737332677165348
21
-5.7907991732283461
0
LINE
8
BLACK
6
CONTINUOUS
10
9.8737332677165348
20
-5.7907991732283461
11
9.8699837401574797
21
-5.7982982283464564
0
LINE
8
BLACK
6
CONTINUOUS
10
9.8699837401574797
20
-5.7982982283464564
11
9.8662342125984246
21
-5.8020477952755902
0
LINE
8
BLACK
6
CONTINUOUS
10
9.8662342125984246
20
-5.8020477952755902
11
9.8587351574803144
21
-5.8057973228346453
0
LINE
8
BLACK
6
CONTINUOUS
10
9.8587351574803144
20
-5.8057973228346453
11
9.8512360629921254
21
-5.8057973228346453
0
LINE
8
BLACK
6
CONTINUOUS
10
9.8512360629921254
20
-5.8057973228346453
11
9.8437370078740152
21
-5.8020477952755902
0
LINE
8
BLACK
6
CONTINUOUS
10
9.8437370078740152
20
-5.8020477952755902
11
9.8399874803149601
21
-5.7982982283464564
0
LINE
8
BLACK
6
CONTINUOUS
10
9.8399874803149601
20
-5.7982982283464564
11
9.836237952755905
21
-5.7907991732283461
0
LINE
8
BLACK
6
CONTINUOUS
10
9.836237952755905
20
-5.7907991732283461
11
9.8324884251968498
21
-5.7758010629921257
0
LINE
8
BLACK
6
CONTINUOUS
10
9.8324884251968498
20
-5.7758010629921257
11
9.8324884251968498
21
-5.7570533858267714
0
LINE
8
BLACK
6
CONTINUOUS
10
9.8324884251968498
20
-5.7570533858267714
11
9.836237952755905
21
-5.742055275590551
0
LINE
8
BLACK
6
CONTINUOUS
10
9.836237952755905
20
-5.742055275590551
11
9.8399874803149601
21
-5.7345562204724407
0
LINE
8
BLACK
6
CONTINUOUS
10
9.8399874803149601
20
-5.7345562204724407
11
9.8437370078740152
21
-5.7308066929133856
0
LINE
8
BLACK
6
CONTINUOUS
10
9.8437370078740152
20
-5.7308066929133856
11
9.8512360629921254
21
-5.7270571653543305
0
LINE
8
BLACK
6
CONTINUOUS
10
9.9074790551181096
20
-5.7270571653543305
11
9.9074790551181096
21
-5.742055275590551
0
LINE
8
BLACK
6
CONTINUOUS
10
9.9374753149606292
20
-5.7270571653543305
11
9.9374753149606292
21
-5.742055275590551
0
LINE
8
BLACK
6
CONTINUOUS
10
10.0537108267716526
20
-5.8357935433070862
11
10.0499612598425188
21
-5.8320440157480311
0
LINE
8
BLACK
6
CONTINUOUS
10
10.0499612598425188
20
-5.8320440157480311
11
10.0424622047244085
21
-5.8207954330708658
0
LINE
8
BLACK
6
CONTINUOUS
10
10.0424622047244085
20
-5.8207954330708658
11
10.0387126771653534
21
-5.8132963779527556
0
LINE
8
BLACK
6
CONTINUOUS
10
10.0387126771653534
20
-5.8132963779527556
11
10.0349631496062983
21
-5.8020477952755902
0
LINE
8
BLACK
6
CONTINUOUS
10
10.0349631496062983
20
-5.8020477952755902
11
10.0312136220472432
21
-5.7833001181102359
0
LINE
8
BLACK
6
CONTINUOUS
10
10.0312136220472432
20
-5.7833001181102359
11
10.0312136220472432
21
-5.7683020078740155
0
LINE
8
BLACK
6
CONTINUOUS
10
10.0312136220472432
20
-5.7683020078740155
11
10.0349631496062983
21
-5.7495543307086612
0
LINE
8
BLACK
6
CONTINUOUS
10
10.0349631496062983
20
-5.7495543307086612
11
10.0387126771653534
21
-5.7383057480314958
0
LINE
8
BLACK
6
CONTINUOUS
10
10.0387126771653534
20
-5.7383057480314958
11
10.0424622047244085
21
-5.7308066929133856
0
LINE
8
BLACK
6
CONTINUOUS
10
10.0424622047244085
20
-5.7308066929133856
11
10.0499612598425188
21
-5.7195580708661415
0
LINE
8
BLACK
6
CONTINUOUS
10
10.0499612598425188
20
-5.7195580708661415
11
10.0537108267716526
21
-5.7158085433070864
0
LINE
8
BLACK
6
CONTINUOUS
10
10.1249518897637785
20
-5.8057973228346453
11
10.0799575196850384
21
-5.8057973228346453
0
LINE
8
BLACK
6
CONTINUOUS
10
10.1024546850393691
20
-5.8057973228346453
11
10.1024546850393691
21
-5.7270571653543305
0
LINE
8
BLACK
6
CONTINUOUS
10
10.1024546850393691
20
-5.7270571653543305
11
10.0949556299212588
21
-5.7383057480314958
0
LINE
8
BLACK
6
CONTINUOUS
10
10.0949556299212588
20
-5.7383057480314958
11
10.0874565748031486
21
-5.7458048031496061
0
LINE
8
BLACK
6
CONTINUOUS
10
10.0874565748031486
20
-5.7458048031496061
11
10.0799575196850384
21
-5.7495543307086612
0
LINE
8
BLACK
6
CONTINUOUS
10
10.1549481496062981
20
-5.7345562204724407
11
10.1586976771653532
21
-5.7308066929133856
0
LINE
8
BLACK
6
CONTINUOUS
10
10.1586976771653532
20
-5.7308066929133856
11
10.1661967322834652
21
-5.7270571653543305
0
LINE
8
BLACK
6
CONTINUOUS
10
10.1661967322834652
20
-5.7270571653543305
11
10.1849444094488195
21
-5.7270571653543305
0
LINE
8
BLACK
6
CONTINUOUS
10
10.1849444094488195
20
-5.7270571653543305
11
10.1924434645669297
21
-5.7308066929133856
0
LINE
8
BLACK
6
CONTINUOUS
10
10.1924434645669297
20
-5.7308066929133856
11
10.1961929921259848
21
-5.7345562204724407
0
LINE
8
BLACK
6
CONTINUOUS
10
10.1961929921259848
20
-5.7345562204724407
11
10.19994251968504
21
-5.742055275590551
0
LINE
8
BLACK
6
CONTINUOUS
10
10.19994251968504
20
-5.742055275590551
11
10.19994251968504
21
-5.7495543307086612
0
LINE
8
BLACK
6
CONTINUOUS
10
10.19994251968504
20
-5.7495543307086612
11
10.1961929921259848
21
-5.7608029133858265
0
LINE
8
BLACK
6
CONTINUOUS
10
10.1961929921259848
20
-5.7608029133858265
11
10.151198622047243
21
-5.8057973228346453
0
LINE
8
BLACK
6
CONTINUOUS
10
10.151198622047243
20
-5.8057973228346453
11
10.19994251968504
21
-5.8057973228346453
0
LINE
8
BLACK
6
CONTINUOUS
10
10.293680826771654
20
-5.8057973228346453
11
10.293680826771654
21
-5.7270571653543305
0
LINE
8
BLACK
6
CONTINUOUS
10
10.3274266141732287
20
-5.8057973228346453
11
10.3274266141732287
21
-5.7645524803149604
0
LINE
8
BLACK
6
CONTINUOUS
10
10.3274266141732287
20
-5.7645524803149604
11
10.3236770866141736
21
-5.7570533858267714
0
LINE
8
BLACK
6
CONTINUOUS
10
10.3236770866141736
20
-5.7570533858267714
11
10.3161780314960634
21
-5.7533038582677163
0
LINE
8
BLACK
6
CONTINUOUS
10
10.3161780314960634
20
-5.7533038582677163
11
10.3049294094488193
21
-5.7533038582677163
0
LINE
8
BLACK
6
CONTINUOUS
10
10.3049294094488193
20
-5.7533038582677163
11
10.2974303543307091
21
-5.7570533858267714
0
LINE
8
BLACK
6
CONTINUOUS
10
10.2974303543307091
20
-5.7570533858267714
11
10.293680826771654
21
-5.7608029133858265
0
LINE
8
BLACK
6
CONTINUOUS
10
10.3761705118110239
20
-5.8057973228346453
11
10.3686714566929137
21
-5.8020477952755902
0
LINE
8
BLACK
6
CONTINUOUS
10
10.3686714566929137
20
-5.8020477952755902
11
10.3649219291338586
21
-5.7982982283464564
0
LINE
8
BLACK
6
CONTINUOUS
10
10.3649219291338586
20
-5.7982982283464564
11
10.3611724015748035
21
-5.7907991732283461
0
LINE
8
BLACK
6
CONTINUOUS
10
10.3611724015748035
20
-5.7907991732283461
11
10.3611724015748035
21
-5.7683020078740155
0
LINE
8
BLACK
6
CONTINUOUS
10
10.3611724015748035
20
-5.7683020078740155
11
10.3649219291338586
21
-5.7608029133858265
0
LINE
8
BLACK
6
CONTINUOUS
10
10.3649219291338586
20
-5.7608029133858265
11
10.3686714566929137
21
-5.7570533858267714
0
LINE
8
BLACK
6
CONTINUOUS
10
10.3686714566929137
20
-5.7570533858267714
11
10.3761705118110239
21
-5.7533038582677163
0
LINE
8
BLACK
6
CONTINUOUS
10
10.3761705118110239
20
-5.7533038582677163
11
10.387419133858268
21
-5.7533038582677163
0
LINE
8
BLACK
6
CONTINUOUS
10
10.387419133858268
20
-5.7533038582677163
11
10.3949181889763782
21
-5.7570533858267714
0
LINE
8
BLACK
6
CONTINUOUS
10
10.3949181889763782
20
-5.7570533858267714
11
10.3986677165354333
21
-5.7608029133858265
0
LINE
8
BLACK
6
CONTINUOUS
10
10.3986677165354333
20
-5.7608029133858265
11
10.4024172440944884
21
-5.7683020078740155
0
LINE
8
BLACK
6
CONTINUOUS
10
10.4024172440944884
20
-5.7683020078740155
11
10.4024172440944884
21
-5.7907991732283461
0
LINE
8
BLACK
6
CONTINUOUS
10
10.4024172440944884
20
-5.7907991732283461
11
10.3986677165354333
21
-5.7982982283464564
0
LINE
8
BLACK
6
CONTINUOUS
10
10.3986677165354333
20
-5.7982982283464564
11
10.3949181889763782
21
-5.8020477952755902
0
LINE
8
BLACK
6
CONTINUOUS
10
10.3949181889763782
20
-5.8020477952755902
11
10.387419133858268
21
-5.8057973228346453
0
LINE
8
BLACK
6
CONTINUOUS
10
10.387419133858268
20
-5.8057973228346453
11
10.3761705118110239
21
-5.8057973228346453
0
LINE
8
BLACK
6
CONTINUOUS
10
10.4474116141732285
20
-5.8057973228346453
11
10.4399125590551183
21
-5.8020477952755902
0
LINE
8
BLACK
6
CONTINUOUS
10
10.4399125590551183
20
-5.8020477952755902
11
10.4361630314960632
21
-5.7945487007874013
0
LINE
8
BLACK
6
CONTINUOUS
10
10.4361630314960632
20
-5.7945487007874013
11
10.4361630314960632
21
-5.7270571653543305
0
LINE
8
BLACK
6
CONTINUOUS
10
10.5074041338582678
20
-5.8020477952755902
11
10.4999050787401575
21
-5.8057973228346453
0
LINE
8
BLACK
6
CONTINUOUS
10
10.4999050787401575
20
-5.8057973228346453
11
10.4849069291338584
21
-5.8057973228346453
0
LINE
8
BLACK
6
CONTINUOUS
10
10.4849069291338584
20
-5.8057973228346453
11
10.4774078740157481
21
-5.8020477952755902
0
LINE
8
BLACK
6
CONTINUOUS
10
10.4774078740157481
20
-5.8020477952755902
11
10.473658346456693
21
-5.7945487007874013
0
LINE
8
BLACK
6
CONTINUOUS
10
10.473658346456693
20
-5.7945487007874013
11
10.473658346456693
21
-5.7645524803149604
0
LINE
8
BLACK
6
CONTINUOUS
10
10.473658346456693
20
-5.7645524803149604
11
10.4774078740157481
21
-5.7570533858267714
0
LINE
8
BLACK
6
CONTINUOUS
10
10.4774078740157481
20
-5.7570533858267714
11
10.4849069291338584
21
-5.7533038582677163
0
LINE
8
BLACK
6
CONTINUOUS
10
10.4849069291338584
20
-5.7533038582677163
11
10.4999050787401575
21
-5.7533038582677163
0
LINE
8
BLACK
6
CONTINUOUS
10
10.4999050787401575
20
-5.7533038582677163
11
10.5074041338582678
21
-5.7570533858267714
0
LINE
8
BLACK
6
CONTINUOUS
10
10.5074041338582678
20
-5.7570533858267714
11
10.5111536614173229
21
-5.7645524803149604
0
LINE
8
BLACK
6
CONTINUOUS
10
10.5111536614173229
20
-5.7645524803149604
11
10.5111536614173229
21
-5.7720515354330706
0
LINE
8
BLACK
6
CONTINUOUS
10
10.5111536614173229
20
-5.7720515354330706
11
10.473658346456693
21
-5.7795505905511808
0
LINE
8
BLACK
6
CONTINUOUS
10
10.5411499212598425
20
-5.8020477952755902
11
10.5486489763779527
21
-5.8057973228346453
0
LINE
8
BLACK
6
CONTINUOUS
10
10.5486489763779527
20
-5.8057973228346453
11
10.5636470866141732
21
-5.8057973228346453
0
LINE
8
BLACK
6
CONTINUOUS
10
10.5636470866141732
20
-5.8057973228346453
11
10.5711461811023621
21
-5.8020477952755902
0
LINE
8
BLACK
6
CONTINUOUS
10
10.5711461811023621
20
-5.8020477952755902
11
10.5748957086614173
21
-5.7945487007874013
0
LINE
8
BLACK
6
CONTINUOUS
10
10.5748957086614173
20
-5.7945487007874013
11
10.5748957086614173
21
-5.7907991732283461
0
LINE
8
BLACK
6
CONTINUOUS
10
10.5748957086614173
20
-5.7907991732283461
11
10.5711461811023621
21
-5.7833001181102359
0
LINE
8
BLACK
6
CONTINUOUS
10
10.5711461811023621
20
-5.7833001181102359
11
10.5636470866141732
21
-5.7795505905511808
0
LINE
8
BLACK
6
CONTINUOUS
10
10.5636470866141732
20
-5.7795505905511808
11
10.5523985039370078
21
-5.7795505905511808
0
LINE
8
BLACK
6
CONTINUOUS
10
10.5523985039370078
20
-5.7795505905511808
11
10.5448994488188976
21
-5.7758010629921257
0
LINE
8
BLACK
6
CONTINUOUS
10
10.5448994488188976
20
-5.7758010629921257
11
10.5411499212598425
21
-5.7683020078740155
0
LINE
8
BLACK
6
CONTINUOUS
10
10.5411499212598425
20
-5.7683020078740155
11
10.5411499212598425
21
-5.7645524803149604
0
LINE
8
BLACK
6
CONTINUOUS
10
10.5411499212598425
20
-5.7645524803149604
11
10.5448994488188976
21
-5.7570533858267714
0
LINE
8
BLACK
6
CONTINUOUS
10
10.5448994488188976
20
-5.7570533858267714
11
10.5523985039370078
21
-5.7533038582677163
0
LINE
8
BLACK
6
CONTINUOUS
10
10.5523985039370078
20
-5.7533038582677163
11
10.5636470866141732
21
-5.7533038582677163
0
LINE
8
BLACK
6
CONTINUOUS
10
10.5636470866141732
20
-5.7533038582677163
11
10.5711461811023621
21
-5.7570533858267714
0
LINE
8
BLACK
6
CONTINUOUS
10
10.6011424409448818
20
-5.8357935433070862
11
10.6048919685039369
21
-5.8320440157480311
0
LINE
8
BLACK
6
CONTINUOUS
10
10.6048919685039369
20
-5.8320440157480311
11
10.6123910236220471
21
-5.8207954330708658
0
LINE
8
BLACK
6
CONTINUOUS
10
10.6123910236220471
20
-5.8207954330708658
11
10.6161405511811022
21
-5.8132963779527556
0
LINE
8
BLACK
6
CONTINUOUS
10
10.6161405511811022
20
-5.8132963779527556
11
10.6198900787401573
21
-5.8020477952755902
0
LINE
8
BLACK
6
CONTINUOUS
10
10.6198900787401573
20
-5.8020477952755902
11
10.6236396062992124
21
-5.7833001181102359
0
LINE
8
BLACK
6
CONTINUOUS
10
10.6236396062992124
20
-5.7833001181102359
11
10.6236396062992124
21
-5.7683020078740155
0
LINE
8
BLACK
6
CONTINUOUS
10
10.6236396062992124
20
-5.7683020078740155
11
10.6198900787401573
21
-5.7495543307086612
0
LINE
8
BLACK
6
CONTINUOUS
10
10.6198900787401573
20
-5.7495543307086612
11
10.6161405511811022
21
-5.7383057480314958
0
LINE
8
BLACK
6
CONTINUOUS
10
10.6161405511811022
20
-5.7383057480314958
11
10.6123910236220471
21
-5.7308066929133856
0
LINE
8
BLACK
6
CONTINUOUS
10
10.6123910236220471
20
-5.7308066929133856
11
10.6048919685039369
21
-5.7195580708661415
0
LINE
8
BLACK
6
CONTINUOUS
10
10.6048919685039369
20
-5.7195580708661415
11
10.6011424409448818
21
-5.7158085433070864
0
LINE
8
BLACK
6
CONTINUOUS
10
8.6265207086614168
20
-5.8540320472440941
11
8.6265207086614168
21
-5.8934021259842515
0
LINE
8
BLACK
6
CONTINUOUS
10
8.606835669291339
20
-5.8737170866141728
11
8.6462057480314964
21
-5.8737170866141728
0
LINE
8
BLACK
6
CONTINUOUS
10
8.7901186220472436
20
-5.9097343307086616
11
8.7451242519685035
21
-5.9097343307086616
0
LINE
8
BLACK
6
CONTINUOUS
10
8.7676214173228342
20
-5.9097343307086616
11
8.7676214173228342
21
-5.8309941732283459
0
LINE
8
BLACK
6
CONTINUOUS
10
8.7676214173228342
20
-5.8309941732283459
11
8.760122362204724
21
-5.8422427559055121
0
LINE
8
BLACK
6
CONTINUOUS
10
8.760122362204724
20
-5.8422427559055121
11
8.7526233070866137
21
-5.8497418110236223
0
LINE
8
BLACK
6
CONTINUOUS
10
8.7526233070866137
20
-5.8497418110236223
11
8.7451242519685035
21
-5.8534913385826775
0
LINE
8
BLACK
6
CONTINUOUS
10
8.8238644094488183
20
-5.9022352362204726
11
8.8276139370078734
21
-5.9059848031496065
0
LINE
8
BLACK
6
CONTINUOUS
10
8.8276139370078734
20
-5.9059848031496065
11
8.8238644094488183
21
-5.9097343307086616
0
LINE
8
BLACK
6
CONTINUOUS
10
8.8238644094488183
20
-5.9097343307086616
11
8.8201148818897632
21
-5.9059848031496065
0
LINE
8
BLACK
6
CONTINUOUS
10
8.8201148818897632
20
-5.9059848031496065
11
8.8238644094488183
21
-5.9022352362204726
0
LINE
8
BLACK
6
CONTINUOUS
10
8.8238644094488183
20
-5.9022352362204726
11
8.8238644094488183
21
-5.9097343307086616
0
LINE
8
BLACK
6
CONTINUOUS
10
8.8763578346456686
20
-5.8309941732283459
11
8.8838569291338576
21
-5.8309941732283459
0
LINE
8
BLACK
6
CONTINUOUS
10
8.8838569291338576
20
-5.8309941732283459
11
8.8913559842519678
21
-5.834743700787401
0
LINE
8
BLACK
6
CONTINUOUS
10
8.8913559842519678
20
-5.834743700787401
11
8.8951055118110229
21
-5.8384932283464561
0
LINE
8
BLACK
6
CONTINUOUS
10
8.8951055118110229
20
-5.8384932283464561
11
8.898855039370078
21
-5.8459922834645672
0
LINE
8
BLACK
6
CONTINUOUS
10
8.898855039370078
20
-5.8459922834645672
11
8.9026045669291332
21
-5.8609903937007877
0
LINE
8
BLACK
6
CONTINUOUS
10
8.9026045669291332
20
-5.8609903937007877
11
8.9026045669291332
21
-5.879738070866142
0
LINE
8
BLACK
6
CONTINUOUS
10
8.9026045669291332
20
-5.879738070866142
11
8.898855039370078
21
-5.8947361811023624
0
LINE
8
BLACK
6
CONTINUOUS
10
8.898855039370078
20
-5.8947361811023624
11
8.8951055118110229
21
-5.9022352362204726
0
LINE
8
BLACK
6
CONTINUOUS
10
8.8951055118110229
20
-5.9022352362204726
11
8.8913559842519678
21
-5.9059848031496065
0
LINE
8
BLACK
6
CONTINUOUS
10
8.8913559842519678
20
-5.9059848031496065
11
8.8838569291338576
21
-5.9097343307086616
0
LINE
8
BLACK
6
CONTINUOUS
10
8.8838569291338576
20
-5.9097343307086616
11
8.8763578346456686
21
-5.9097343307086616
0
LINE
8
BLACK
6
CONTINUOUS
10
8.8763578346456686
20
-5.9097343307086616
11
8.8688587795275584
21
-5.9059848031496065
0
LINE
8
BLACK
6
CONTINUOUS
10
8.8688587795275584
20
-5.9059848031496065
11
8.8651092519685033
21
-5.9022352362204726
0
LINE
8
BLACK
6
CONTINUOUS
10
8.8651092519685033
20
-5.9022352362204726
11
8.8613597244094482
21
-5.8947361811023624
0
LINE
8
BLACK
6
CONTINUOUS
10
8.8613597244094482
20
-5.8947361811023624
11
8.8576101968503931
21
-5.879738070866142
0
LINE
8
BLACK
6
CONTINUOUS
10
8.8576101968503931
20
-5.879738070866142
11
8.8576101968503931
21
-5.8609903937007877
0
LINE
8
BLACK
6
CONTINUOUS
10
8.8576101968503931
20
-5.8609903937007877
11
8.8613597244094482
21
-5.8459922834645672
0
LINE
8
BLACK
6
CONTINUOUS
10
8.8613597244094482
20
-5.8459922834645672
11
8.8651092519685033
21
-5.8384932283464561
0
LINE
8
BLACK
6
CONTINUOUS
10
8.8651092519685033
20
-5.8384932283464561
11
8.8688587795275584
21
-5.834743700787401
0
LINE
8
BLACK
6
CONTINUOUS
10
8.8688587795275584
20
-5.834743700787401
11
8.8763578346456686
21
-5.8309941732283459
0
LINE
8
BLACK
6
CONTINUOUS
10
8.9513484645669283
20
-5.8309941732283459
11
8.9588475590551173
21
-5.8309941732283459
0
LINE
8
BLACK
6
CONTINUOUS
10
8.9588475590551173
20
-5.8309941732283459
11
8.9663466141732275
21
-5.834743700787401
0
LINE
8
BLACK
6
CONTINUOUS
10
8.9663466141732275
20
-5.834743700787401
11
8.9700961417322826
21
-5.8384932283464561
0
LINE
8
BLACK
6
CONTINUOUS
10
8.9700961417322826
20
-5.8384932283464561
11
8.9738456692913378
21
-5.8459922834645672
0
LINE
8
BLACK
6
CONTINUOUS
10
8.9738456692913378
20
-5.8459922834645672
11
8.9775951968503929
21
-5.8609903937007877
0
LINE
8
BLACK
6
CONTINUOUS
10
8.9775951968503929
20
-5.8609903937007877
11
8.9775951968503929
21
-5.879738070866142
0
LINE
8
BLACK
6
CONTINUOUS
10
8.9775951968503929
20
-5.879738070866142
11
8.9738456692913378
21
-5.8947361811023624
0
LINE
8
BLACK
6
CONTINUOUS
10
8.9738456692913378
20
-5.8947361811023624
11
8.9700961417322826
21
-5.9022352362204726
0
LINE
8
BLACK
6
CONTINUOUS
10
8.9700961417322826
20
-5.9022352362204726
11
8.9663466141732275
21
-5.9059848031496065
0
LINE
8
BLACK
6
CONTINUOUS
10
8.9663466141732275
20
-5.9059848031496065
11
8.9588475590551173
21
-5.9097343307086616
0
LINE
8
BLACK
6
CONTINUOUS
10
8.9588475590551173
20
-5.9097343307086616
11
8.9513484645669283
21
-5.9097343307086616
0
LINE
8
BLACK
6
CONTINUOUS
10
8.9513484645669283
20
-5.9097343307086616
11
8.9438494094488181
21
-5.9059848031496065
0
LINE
8
BLACK
6
CONTINUOUS
10
8.9438494094488181
20
-5.9059848031496065
11
8.940099881889763
21
-5.9022352362204726
0
LINE
8
BLACK
6
CONTINUOUS
10
8.940099881889763
20
-5.9022352362204726
11
8.9363503543307079
21
-5.8947361811023624
0
LINE
8
BLACK
6
CONTINUOUS
10
8.9363503543307079
20
-5.8947361811023624
11
8.9326008267716528
21
-5.879738070866142
0
LINE
8
BLACK
6
CONTINUOUS
10
8.9326008267716528
20
-5.879738070866142
11
8.9326008267716528
21
-5.8609903937007877
0
LINE
8
BLACK
6
CONTINUOUS
10
8.9326008267716528
20
-5.8609903937007877
11
8.9363503543307079
21
-5.8459922834645672
0
LINE
8
BLACK
6
CONTINUOUS
10
8.9363503543307079
20
-5.8459922834645672
11
8.940099881889763
21
-5.8384932283464561
0
LINE
8
BLACK
6
CONTINUOUS
10
8.940099881889763
20
-5.8384932283464561
11
8.9438494094488181
21
-5.834743700787401
0
LINE
8
BLACK
6
CONTINUOUS
10
8.9438494094488181
20
-5.834743700787401
11
8.9513484645669283
21
-5.8309941732283459
0
LINE
8
BLACK
6
CONTINUOUS
10
9.0263390944881881
20
-5.8309941732283459
11
9.033838188976377
21
-5.8309941732283459
0
LINE
8
BLACK
6
CONTINUOUS
10
9.033838188976377
20
-5.8309941732283459
11
9.0413372440944872
21
-5.834743700787401
0
LINE
8
BLACK
6
CONTINUOUS
10
9.0413372440944872
20
-5.834743700787401
11
9.0450867716535424
21
-5.8384932283464561
0
LINE
8
BLACK
6
CONTINUOUS
10
9.0450867716535424
20
-5.8384932283464561
11
9.0488362992125975
21
-5.8459922834645672
0
LINE
8
BLACK
6
CONTINUOUS
10
9.0488362992125975
20
-5.8459922834645672
11
9.0525858267716526
21
-5.8609903937007877
0
LINE
8
BLACK
6
CONTINUOUS
10
9.0525858267716526
20
-5.8609903937007877
11
9.0525858267716526
21
-5.879738070866142
0
LINE
8
BLACK
6
CONTINUOUS
10
9.0525858267716526
20
-5.879738070866142
11
9.0488362992125975
21
-5.8947361811023624
0
LINE
8
BLACK
6
CONTINUOUS
10
9.0488362992125975
20
-5.8947361811023624
11
9.0450867716535424
21
-5.9022352362204726
0
LINE
8
BLACK
6
CONTINUOUS
10
9.0450867716535424
20
-5.9022352362204726
11
9.0413372440944872
21
-5.9059848031496065
0
LINE
8
BLACK
6
CONTINUOUS
10
9.0413372440944872
20
-5.9059848031496065
11
9.033838188976377
21
-5.9097343307086616
0
LINE
8
BLACK
6
CONTINUOUS
10
9.033838188976377
20
-5.9097343307086616
11
9.0263390944881881
21
-5.9097343307086616
0
LINE
8
BLACK
6
CONTINUOUS
10
9.0263390944881881
20
-5.9097343307086616
11
9.0188400393700778
21
-5.9059848031496065
0
LINE
8
BLACK
6
CONTINUOUS
10
9.0188400393700778
20
-5.9059848031496065
11
9.0150905118110227
21
-5.9022352362204726
0
LINE
8
BLACK
6
CONTINUOUS
10
9.0150905118110227
20
-5.9022352362204726
11
9.0113409842519676
21
-5.8947361811023624
0
LINE
8
BLACK
6
CONTINUOUS
10
9.0113409842519676
20
-5.8947361811023624
11
9.0075914566929125
21
-5.879738070866142
0
LINE
8
BLACK
6
CONTINUOUS
10
9.0075914566929125
20
-5.879738070866142
11
9.0075914566929125
21
-5.8609903937007877
0
LINE
8
BLACK
6
CONTINUOUS
10
9.0075914566929125
20
-5.8609903937007877
11
9.0113409842519676
21
-5.8459922834645672
0
LINE
8
BLACK
6
CONTINUOUS
10
9.0113409842519676
20
-5.8459922834645672
11
9.0150905118110227
21
-5.8384932283464561
0
LINE
8
BLACK
6
CONTINUOUS
10
9.0150905118110227
20
-5.8384932283464561
11
9.0188400393700778
21
-5.834743700787401
0
LINE
8
BLACK
6
CONTINUOUS
10
9.0188400393700778
20
-5.834743700787401
11
9.0263390944881881
21
-5.8309941732283459
0
LINE
8
BLACK
6
CONTINUOUS
10
9.0863316141732273
20
-5.9097343307086616
11
9.0863316141732273
21
-5.8572408661417326
0
LINE
8
BLACK
6
CONTINUOUS
10
9.0863316141732273
20
-5.8647399212598428
11
9.0900811417322824
21
-5.8609903937007877
0
LINE
8
BLACK
6
CONTINUOUS
10
9.0900811417322824
20
-5.8609903937007877
11
9.0975801968503927
21
-5.8572408661417326
0
LINE
8
BLACK
6
CONTINUOUS
10
9.0975801968503927
20
-5.8572408661417326
11
9.1088288188976367
21
-5.8572408661417326
0
LINE
8
BLACK
6
CONTINUOUS
10
9.1088288188976367
20
-5.8572408661417326
11
9.116327874015747
21
-5.8609903937007877
0
LINE
8
BLACK
6
CONTINUOUS
10
9.116327874015747
20
-5.8609903937007877
11
9.1200774015748021
21
-5.8684894881889766
0
LINE
8
BLACK
6
CONTINUOUS
10
9.1200774015748021
20
-5.8684894881889766
11
9.1200774015748021
21
-5.9097343307086616
0
LINE
8
BLACK
6
CONTINUOUS
10
9.1200774015748021
20
-5.8684894881889766
11
9.1238269291338572
21
-5.8609903937007877
0
LINE
8
BLACK
6
CONTINUOUS
10
9.1238269291338572
20
-5.8609903937007877
11
9.1313259842519692
21
-5.8572408661417326
0
LINE
8
BLACK
6
CONTINUOUS
10
9.1313259842519692
20
-5.8572408661417326
11
9.1425745669291345
21
-5.8572408661417326
0
LINE
8
BLACK
6
CONTINUOUS
10
9.1425745669291345
20
-5.8572408661417326
11
9.1500736614173235
21
-5.8609903937007877
0
LINE
8
BLACK
6
CONTINUOUS
10
9.1500736614173235
20
-5.8609903937007877
11
9.1538231889763786
21
-5.8684894881889766
0
LINE
8
BLACK
6
CONTINUOUS
10
9.1538231889763786
20
-5.8684894881889766
11
9.1538231889763786
21
-5.9097343307086616
0
LINE
8
BLACK
6
CONTINUOUS
10
9.1913185039370084
20
-5.9097343307086616
11
9.1913185039370084
21
-5.8572408661417326
0
LINE
8
BLACK
6
CONTINUOUS
10
9.1913185039370084
20
-5.8647399212598428
11
9.1950680314960636
21
-5.8609903937007877
0
LINE
8
BLACK
6
CONTINUOUS
10
9.1950680314960636
20
-5.8609903937007877
11
9.2025670866141738
21
-5.8572408661417326
0
LINE
8
BLACK
6
CONTINUOUS
10
9.2025670866141738
20
-5.8572408661417326
11
9.2138157086614179
21
-5.8572408661417326
0
LINE
8
BLACK
6
CONTINUOUS
10
9.2138157086614179
20
-5.8572408661417326
11
9.2213147637795281
21
-5.8609903937007877
0
LINE
8
BLACK
6
CONTINUOUS
10
9.2213147637795281
20
-5.8609903937007877
11
9.2250642913385832
21
-5.8684894881889766
0
LINE
8
BLACK
6
CONTINUOUS
10
9.2250642913385832
20
-5.8684894881889766
11
9.2250642913385832
21
-5.9097343307086616
0
LINE
8
BLACK
6
CONTINUOUS
10
9.2250642913385832
20
-5.8684894881889766
11
9.2288138188976383
21
-5.8609903937007877
0
LINE
8
BLACK
6
CONTINUOUS
10
9.2288138188976383
20
-5.8609903937007877
11
9.2363128740157485
21
-5.8572408661417326
0
LINE
8
BLACK
6
CONTINUOUS
10
9.2363128740157485
20
-5.8572408661417326
11
9.2475614566929139
21
-5.8572408661417326
0
LINE
8
BLACK
6
CONTINUOUS
10
9.2475614566929139
20
-5.8572408661417326
11
9.2550605511811028
21
-5.8609903937007877
0
LINE
8
BLACK
6
CONTINUOUS
10
9.2550605511811028
20
-5.8609903937007877
11
9.2588100787401579
21
-5.8684894881889766
0
LINE
8
BLACK
6
CONTINUOUS
10
9.2588100787401579
20
-5.8684894881889766
11
9.2588100787401579
21
-5.9097343307086616
0
LINE
8
BLACK
6
CONTINUOUS
10
9.4125408661417325
20
-5.8272446456692908
11
9.3450493307086617
21
-5.9284819685039372
0
LINE
8
BLACK
6
CONTINUOUS
10
9.5137782283464567
20
-5.8309941732283459
11
9.5212773228346457
21
-5.8309941732283459
0
LINE
8
BLACK
6
CONTINUOUS
10
9.5212773228346457
20
-5.8309941732283459
11
9.5287763779527559
21
-5.834743700787401
0
LINE
8
BLACK
6
CONTINUOUS
10
9.5287763779527559
20
-5.834743700787401
11
9.532525905511811
21
-5.8384932283464561
0
LINE
8
BLACK
6
CONTINUOUS
10
9.532525905511811
20
-5.8384932283464561
11
9.5362754330708661
21
-5.8459922834645672
0
LINE
8
BLACK
6
CONTINUOUS
10
9.5362754330708661
20
-5.8459922834645672
11
9.5400249606299212
21
-5.8609903937007877
0
LINE
8
BLACK
6
CONTINUOUS
10
9.5400249606299212
20
-5.8609903937007877
11
9.5400249606299212
21
-5.879738070866142
0
LINE
8
BLACK
6
CONTINUOUS
10
9.5400249606299212
20
-5.879738070866142
11
9.5362754330708661
21
-5.8947361811023624
0
LINE
8
BLACK
6
CONTINUOUS
10
9.5362754330708661
20
-5.8947361811023624
11
9.532525905511811
21
-5.9022352362204726
0
LINE
8
BLACK
6
CONTINUOUS
10
9.532525905511811
20
-5.9022352362204726
11
9.5287763779527559
21
-5.9059848031496065
0
LINE
8
BLACK
6
CONTINUOUS
10
9.5287763779527559
20
-5.9059848031496065
11
9.5212773228346457
21
-5.9097343307086616
0
LINE
8
BLACK
6
CONTINUOUS
10
9.5212773228346457
20
-5.9097343307086616
11
9.5137782283464567
21
-5.9097343307086616
0
LINE
8
BLACK
6
CONTINUOUS
10
9.5137782283464567
20
-5.9097343307086616
11
9.5062791732283465
21
-5.9059848031496065
0
LINE
8
BLACK
6
CONTINUOUS
10
9.5062791732283465
20
-5.9059848031496065
11
9.5025296456692914
21
-5.9022352362204726
0
LINE
8
BLACK
6
CONTINUOUS
10
9.5025296456692914
20
-5.9022352362204726
11
9.4987801181102363
21
-5.8947361811023624
0
LINE
8
BLACK
6
CONTINUOUS
10
9.4987801181102363
20
-5.8947361811023624
11
9.4950305905511811
21
-5.879738070866142
0
LINE
8
BLACK
6
CONTINUOUS
10
9.4950305905511811
20
-5.879738070866142
11
9.4950305905511811
21
-5.8609903937007877
0
LINE
8
BLACK
6
CONTINUOUS
10
9.4950305905511811
20
-5.8609903937007877
11
9.4987801181102363
21
-5.8459922834645672
0
LINE
8
BLACK
6
CONTINUOUS
10
9.4987801181102363
20
-5.8459922834645672
11
9.5025296456692914
21
-5.8384932283464561
0
LINE
8
BLACK
6
CONTINUOUS
10
9.5025296456692914
20
-5.8384932283464561
11
9.5062791732283465
21
-5.834743700787401
0
LINE
8
BLACK
6
CONTINUOUS
10
9.5062791732283465
20
-5.834743700787401
11
9.5137782283464567
21
-5.8309941732283459
0
LINE
8
BLACK
6
CONTINUOUS
10
9.573770748031496
20
-5.9022352362204726
11
9.5775202755905511
21
-5.9059848031496065
0
LINE
8
BLACK
6
CONTINUOUS
10
9.5775202755905511
20
-5.9059848031496065
11
9.573770748031496
21
-5.9097343307086616
0
LINE
8
BLACK
6
CONTINUOUS
10
9.573770748031496
20
-5.9097343307086616
11
9.5700212204724409
21
-5.9059848031496065
0
LINE
8
BLACK
6
CONTINUOUS
10
9.5700212204724409
20
-5.9059848031496065
11
9.573770748031496
21
-5.9022352362204726
0
LINE
8
BLACK
6
CONTINUOUS
10
9.573770748031496
20
-5.9022352362204726
11
9.573770748031496
21
-5.9097343307086616
0
LINE
8
BLACK
6
CONTINUOUS
10
9.6262641732283463
20
-5.8309941732283459
11
9.6337632677165352
21
-5.8309941732283459
0
LINE
8
BLACK
6
CONTINUOUS
10
9.6337632677165352
20
-5.8309941732283459
11
9.6412623228346455
21
-5.834743700787401
0
LINE
8
BLACK
6
CONTINUOUS
10
9.6412623228346455
20
-5.834743700787401
11
9.6450118503937006
21
-5.8384932283464561
0
LINE
8
BLACK
6
CONTINUOUS
10
9.6450118503937006
20
-5.8384932283464561
11
9.6487613779527557
21
-5.8459922834645672
0
LINE
8
BLACK
6
CONTINUOUS
10
9.6487613779527557
20
-5.8459922834645672
11
9.6525109055118108
21
-5.8609903937007877
0
LINE
8
BLACK
6
CONTINUOUS
10
9.6525109055118108
20
-5.8609903937007877
11
9.6525109055118108
21
-5.879738070866142
0
LINE
8
BLACK
6
CONTINUOUS
10
9.6525109055118108
20
-5.879738070866142
11
9.6487613779527557
21
-5.8947361811023624
0
LINE
8
BLACK
6
CONTINUOUS
10
9.6487613779527557
20
-5.8947361811023624
11
9.6450118503937006
21
-5.9022352362204726
0
LINE
8
BLACK
6
CONTINUOUS
10
9.6450118503937006
20
-5.9022352362204726
11
9.6412623228346455
21
-5.9059848031496065
0
LINE
8
BLACK
6
CONTINUOUS
10
9.6412623228346455
20
-5.9059848031496065
11
9.6337632677165352
21
-5.9097343307086616
0
LINE
8
BLACK
6
CONTINUOUS
10
9.6337632677165352
20
-5.9097343307086616
11
9.6262641732283463
21
-5.9097343307086616
0
LINE
8
BLACK
6
CONTINUOUS
10
9.6262641732283463
20
-5.9097343307086616
11
9.618765118110236
21
-5.9059848031496065
0
LINE
8
BLACK
6
CONTINUOUS
10
9.618765118110236
20
-5.9059848031496065
11
9.6150155905511809
21
-5.9022352362204726
0
LINE
8
BLACK
6
CONTINUOUS
10
9.6150155905511809
20
-5.9022352362204726
11
9.6112660629921258
21
-5.8947361811023624
0
LINE
8
BLACK
6
CONTINUOUS
10
9.6112660629921258
20
-5.8947361811023624
11
9.6075165354330707
21
-5.879738070866142
0
LINE
8
BLACK
6
CONTINUOUS
10
9.6075165354330707
20
-5.879738070866142
11
9.6075165354330707
21
-5.8609903937007877
0
LINE
8
BLACK
6
CONTINUOUS
10
9.6075165354330707
20
-5.8609903937007877
11
9.6112660629921258
21
-5.8459922834645672
0
LINE
8
BLACK
6
CONTINUOUS
10
9.6112660629921258
20
-5.8459922834645672
11
9.6150155905511809
21
-5.8384932283464561
0
LINE
8
BLACK
6
CONTINUOUS
10
9.6150155905511809
20
-5.8384932283464561
11
9.618765118110236
21
-5.834743700787401
0
LINE
8
BLACK
6
CONTINUOUS
10
9.618765118110236
20
-5.834743700787401
11
9.6262641732283463
21
-5.8309941732283459
0
LINE
8
BLACK
6
CONTINUOUS
10
9.6787576377952753
20
-5.8309941732283459
11
9.7275015354330705
21
-5.8309941732283459
0
LINE
8
BLACK
6
CONTINUOUS
10
9.7275015354330705
20
-5.8309941732283459
11
9.701254803149606
21
-5.8609903937007877
0
LINE
8
BLACK
6
CONTINUOUS
10
9.701254803149606
20
-5.8609903937007877
11
9.7125034251968501
21
-5.8609903937007877
0
LINE
8
BLACK
6
CONTINUOUS
10
9.7125034251968501
20
-5.8609903937007877
11
9.7200024803149603
21
-5.8647399212598428
0
LINE
8
BLACK
6
CONTINUOUS
10
9.7200024803149603
20
-5.8647399212598428
11
9.7237520078740154
21
-5.8684894881889766
0
LINE
8
BLACK
6
CONTINUOUS
10
9.7237520078740154
20
-5.8684894881889766
11
9.7275015354330705
21
-5.8759885433070869
0
LINE
8
BLACK
6
CONTINUOUS
10
9.7275015354330705
20
-5.8759885433070869
11
9.7275015354330705
21
-5.8947361811023624
0
LINE
8
BLACK
6
CONTINUOUS
10
9.7275015354330705
20
-5.8947361811023624
11
9.7237520078740154
21
-5.9022352362204726
0
LINE
8
BLACK
6
CONTINUOUS
10
9.7237520078740154
20
-5.9022352362204726
11
9.7200024803149603
21
-5.9059848031496065
0
LINE
8
BLACK
6
CONTINUOUS
10
9.7200024803149603
20
-5.9059848031496065
11
9.7125034251968501
21
-5.9097343307086616
0
LINE
8
BLACK
6
CONTINUOUS
10
9.7125034251968501
20
-5.9097343307086616
11
9.6900062204724406
21
-5.9097343307086616
0
LINE
8
BLACK
6
CONTINUOUS
10
9.6900062204724406
20
-5.9097343307086616
11
9.6825071653543304
21
-5.9059848031496065
0
LINE
8
BLACK
6
CONTINUOUS
10
9.6825071653543304
20
-5.9059848031496065
11
9.6787576377952753
21
-5.9022352362204726
0
LINE
8
BLACK
6
CONTINUOUS
10
9.7649968503937004
20
-5.9097343307086616
11
9.7799949606299208
21
-5.9097343307086616
0
LINE
8
BLACK
6
CONTINUOUS
10
9.7799949606299208
20
-5.9097343307086616
11
9.7874940551181098
21
-5.9059848031496065
0
LINE
8
BLACK
6
CONTINUOUS
10
9.7874940551181098
20
-5.9059848031496065
11
9.7912435826771649
21
-5.9022352362204726
0
LINE
8
BLACK
6
CONTINUOUS
10
9.7912435826771649
20
-5.9022352362204726
11
9.7987426377952751
21
-5.8909866535433073
0
LINE
8
BLACK
6
CONTINUOUS
10
9.7987426377952751
20
-5.8909866535433073
11
9.8024921653543302
21
-5.8759885433070869
0
LINE
8
BLACK
6
CONTINUOUS
10
9.8024921653543302
20
-5.8759885433070869
11
9.8024921653543302
21
-5.8459922834645672
0
LINE
8
BLACK
6
CONTINUOUS
10
9.8024921653543302
20
-5.8459922834645672
11
9.7987426377952751
21
-5.8384932283464561
0
LINE
8
BLACK
6
CONTINUOUS
10
9.7987426377952751
20
-5.8384932283464561
11
9.79499311023622
21
-5.834743700787401
0
LINE
8
BLACK
6
CONTINUOUS
10
9.79499311023622
20
-5.834743700787401
11
9.7874940551181098
21
-5.8309941732283459
0
LINE
8
BLACK
6
CONTINUOUS
10
9.7874940551181098
20
-5.8309941732283459
11
9.7724959055118106
21
-5.8309941732283459
0
LINE
8
BLACK
6
CONTINUOUS
10
9.7724959055118106
20
-5.8309941732283459
11
9.7649968503937004
21
-5.834743700787401
0
LINE
8
BLACK
6
CONTINUOUS
10
9.7649968503937004
20
-5.834743700787401
11
9.7612473228346452
21
-5.8384932283464561
0
LINE
8
BLACK
6
CONTINUOUS
10
9.7612473228346452
20
-5.8384932283464561
11
9.7574977952755901
21
-5.8459922834645672
0
LINE
8
BLACK
6
CONTINUOUS
10
9.7574977952755901
20
-5.8459922834645672
11
9.7574977952755901
21
-5.8647399212598428
0
LINE
8
BLACK
6
CONTINUOUS
10
9.7574977952755901
20
-5.8647399212598428
11
9.7612473228346452
21
-5.8722390157480318
0
LINE
8
BLACK
6
CONTINUOUS
10
9.7612473228346452
20
-5.8722390157480318
11
9.7649968503937004
21
-5.8759885433070869
0
LINE
8
BLACK
6
CONTINUOUS
10
9.7649968503937004
20
-5.8759885433070869
11
9.7724959055118106
21
-5.879738070866142
0
LINE
8
BLACK
6
CONTINUOUS
10
9.7724959055118106
20
-5.879738070866142
11
9.7874940551181098
21
-5.879738070866142
0
LINE
8
BLACK
6
CONTINUOUS
10
9.7874940551181098
20
-5.879738070866142
11
9.79499311023622
21
-5.8759885433070869
0
LINE
8
BLACK
6
CONTINUOUS
10
9.79499311023622
20
-5.8759885433070869
11
9.7987426377952751
21
-5.8722390157480318
0
LINE
8
BLACK
6
CONTINUOUS
10
9.7987426377952751
20
-5.8722390157480318
11
9.8024921653543302
21
-5.8647399212598428
0
LINE
8
BLACK
6
CONTINUOUS
10
9.8699837401574797
20
-5.8572408661417326
11
9.8699837401574797
21
-5.9097343307086616
0
LINE
8
BLACK
6
CONTINUOUS
10
9.8512360629921254
20
-5.8272446456692908
11
9.8324884251968498
21
-5.8834875984251971
0
LINE
8
BLACK
6
CONTINUOUS
10
9.8324884251968498
20
-5.8834875984251971
11
9.881232322834645
21
-5.8834875984251971
0
LINE
8
BLACK
6
CONTINUOUS
10
9.9074790551181096
20
-5.8309941732283459
11
9.9074790551181096
21
-5.8459922834645672
0
LINE
8
BLACK
6
CONTINUOUS
10
9.9374753149606292
20
-5.8309941732283459
11
9.9374753149606292
21
-5.8459922834645672
0
LINE
8
BLACK
6
CONTINUOUS
10
10.0537108267716526
20
-5.9397305511811025
11
10.0499612598425188
21
-5.9359810236220474
0
LINE
8
BLACK
6
CONTINUOUS
10
10.0499612598425188
20
-5.9359810236220474
11
10.0424622047244085
21
-5.9247324409448821
0
LINE
8
BLACK
6
CONTINUOUS
10
10.0424622047244085
20
-5.9247324409448821
11
10.0387126771653534
21
-5.9172333858267718
0
LINE
8
BLACK
6
CONTINUOUS
10
10.0387126771653534
20
-5.9172333858267718
11
10.0349631496062983
21
-5.9059848031496065
0
LINE
8
BLACK
6
CONTINUOUS
10
10.0349631496062983
20
-5.9059848031496065
11
10.0312136220472432
21
-5.8872371259842522
0
LINE
8
BLACK
6
CONTINUOUS
10
10.0312136220472432
20
-5.8872371259842522
11
10.0312136220472432
21
-5.8722390157480318
0
LINE
8
BLACK
6
CONTINUOUS
10
10.0312136220472432
20
-5.8722390157480318
11
10.0349631496062983
21
-5.8534913385826775
0
LINE
8
BLACK
6
CONTINUOUS
10
10.0349631496062983
20
-5.8534913385826775
11
10.0387126771653534
21
-5.8422427559055121
0
LINE
8
BLACK
6
CONTINUOUS
10
10.0387126771653534
20
-5.8422427559055121
11
10.0424622047244085
21
-5.834743700787401
0
LINE
8
BLACK
6
CONTINUOUS
10
10.0424622047244085
20
-5.834743700787401
11
10.0499612598425188
21
-5.8234950787401569
0
LINE
8
BLACK
6
CONTINUOUS
10
10.0499612598425188
20
-5.8234950787401569
11
10.0537108267716526
21
-5.8197455511811018
0
LINE
8
BLACK
6
CONTINUOUS
10
10.1174528346456682
20
-5.8309941732283459
11
10.1024546850393691
21
-5.8309941732283459
0
LINE
8
BLACK
6
CONTINUOUS
10
10.1024546850393691
20
-5.8309941732283459
11
10.0949556299212588
21
-5.834743700787401
0
LINE
8
BLACK
6
CONTINUOUS
10
10.0949556299212588
20
-5.834743700787401
11
10.0912061023622037
21
-5.8384932283464561
0
LINE
8
BLACK
6
CONTINUOUS
10
10.0912061023622037
20
-5.8384932283464561
11
10.0837070472440935
21
-5.8497418110236223
0
LINE
8
BLACK
6
CONTINUOUS
10
10.0837070472440935
20
-5.8497418110236223
11
10.0799575196850384
21
-5.8647399212598428
0
LINE
8
BLACK
6
CONTINUOUS
10
10.0799575196850384
20
-5.8647399212598428
11
10.0799575196850384
21
-5.8947361811023624
0
LINE
8
BLACK
6
CONTINUOUS
10
10.0799575196850384
20
-5.8947361811023624
11
10.0837070472440935
21
-5.9022352362204726
0
LINE
8
BLACK
6
CONTINUOUS
10
10.0837070472440935
20
-5.9022352362204726
11
10.0874565748031486
21
-5.9059848031496065
0
LINE
8
BLACK
6
CONTINUOUS
10
10.0874565748031486
20
-5.9059848031496065
11
10.0949556299212588
21
-5.9097343307086616
0
LINE
8
BLACK
6
CONTINUOUS
10
10.0949556299212588
20
-5.9097343307086616
11
10.109953779527558
21
-5.9097343307086616
0
LINE
8
BLACK
6
CONTINUOUS
10
10.109953779527558
20
-5.9097343307086616
11
10.1174528346456682
21
-5.9059848031496065
0
LINE
8
BLACK
6
CONTINUOUS
10
10.1174528346456682
20
-5.9059848031496065
11
10.1212023622047234
21
-5.9022352362204726
0
LINE
8
BLACK
6
CONTINUOUS
10
10.1212023622047234
20
-5.9022352362204726
11
10.1249518897637785
21
-5.8947361811023624
0
LINE
8
BLACK
6
CONTINUOUS
10
10.1249518897637785
20
-5.8947361811023624
11
10.1249518897637785
21
-5.8759885433070869
0
LINE
8
BLACK
6
CONTINUOUS
10
10.1249518897637785
20
-5.8759885433070869
11
10.1212023622047234
21
-5.8684894881889766
0
LINE
8
BLACK
6
CONTINUOUS
10
10.1212023622047234
20
-5.8684894881889766
11
10.1174528346456682
21
-5.8647399212598428
0
LINE
8
BLACK
6
CONTINUOUS
10
10.1174528346456682
20
-5.8647399212598428
11
10.109953779527558
21
-5.8609903937007877
0
LINE
8
BLACK
6
CONTINUOUS
10
10.109953779527558
20
-5.8609903937007877
11
10.0949556299212588
21
-5.8609903937007877
0
LINE
8
BLACK
6
CONTINUOUS
10
10.0949556299212588
20
-5.8609903937007877
11
10.0874565748031486
21
-5.8647399212598428
0
LINE
8
BLACK
6
CONTINUOUS
10
10.0874565748031486
20
-5.8647399212598428
11
10.0837070472440935
21
-5.8684894881889766
0
LINE
8
BLACK
6
CONTINUOUS
10
10.0837070472440935
20
-5.8684894881889766
11
10.0799575196850384
21
-5.8759885433070869
0
LINE
8
BLACK
6
CONTINUOUS
10
10.2186901968503943
20
-5.9097343307086616
11
10.2186901968503943
21
-5.8309941732283459
0
LINE
8
BLACK
6
CONTINUOUS
10
10.252435984251969
20
-5.9097343307086616
11
10.252435984251969
21
-5.8684894881889766
0
LINE
8
BLACK
6
CONTINUOUS
10
10.252435984251969
20
-5.8684894881889766
11
10.2486864566929139
21
-5.8609903937007877
0
LINE
8
BLACK
6
CONTINUOUS
10
10.2486864566929139
20
-5.8609903937007877
11
10.2411874015748037
21
-5.8572408661417326
0
LINE
8
BLACK
6
CONTINUOUS
10
10.2411874015748037
20
-5.8572408661417326
11
10.2299387795275596
21
-5.8572408661417326
0
LINE
8
BLACK
6
CONTINUOUS
10
10.2299387795275596
20
-5.8572408661417326
11
10.2224397244094494
21
-5.8609903937007877
0
LINE
8
BLACK
6
CONTINUOUS
10
10.2224397244094494
20
-5.8609903937007877
11
10.2186901968503943
21
-5.8647399212598428
0
LINE
8
BLACK
6
CONTINUOUS
10
10.3011798818897642
20
-5.9097343307086616
11
10.293680826771654
21
-5.9059848031496065
0
LINE
8
BLACK
6
CONTINUOUS
10
10.293680826771654
20
-5.9059848031496065
11
10.2899312992125989
21
-5.9022352362204726
0
LINE
8
BLACK
6
CONTINUOUS
10
10.2899312992125989
20
-5.9022352362204726
11
10.2861817716535437
21
-5.8947361811023624
0
LINE
8
BLACK
6
CONTINUOUS
10
10.2861817716535437
20
-5.8947361811023624
11
10.2861817716535437
21
-5.8722390157480318
0
LINE
8
BLACK
6
CONTINUOUS
10
10.2861817716535437
20
-5.8722390157480318
11
10.2899312992125989
21
-5.8647399212598428
0
LINE
8
BLACK
6
CONTINUOUS
10
10.2899312992125989
20
-5.8647399212598428
11
10.293680826771654
21
-5.8609903937007877
0
LINE
8
BLACK
6
CONTINUOUS
10
10.293680826771654
20
-5.8609903937007877
11
10.3011798818897642
21
-5.8572408661417326
0
LINE
8
BLACK
6
CONTINUOUS
10
10.3011798818897642
20
-5.8572408661417326
11
10.3124285039370083
21
-5.8572408661417326
0
LINE
8
BLACK
6
CONTINUOUS
10
10.3124285039370083
20
-5.8572408661417326
11
10.3199275590551185
21
-5.8609903937007877
0
LINE
8
BLACK
6
CONTINUOUS
10
10.3199275590551185
20
-5.8609903937007877
11
10.3236770866141736
21
-5.8647399212598428
0
LINE
8
BLACK
6
CONTINUOUS
10
10.3236770866141736
20
-5.8647399212598428
11
10.3274266141732287
21
-5.8722390157480318
0
LINE
8
BLACK
6
CONTINUOUS
10
10.3274266141732287
20
-5.8722390157480318
11
10.3274266141732287
21
-5.8947361811023624
0
LINE
8
BLACK
6
CONTINUOUS
10
10.3274266141732287
20
-5.8947361811023624
11
10.3236770866141736
21
-5.9022352362204726
0
LINE
8
BLACK
6
CONTINUOUS
10
10.3236770866141736
20
-5.9022352362204726
11
10.3199275590551185
21
-5.9059848031496065
0
LINE
8
BLACK
6
CONTINUOUS
10
10.3199275590551185
20
-5.9059848031496065
11
10.3124285039370083
21
-5.9097343307086616
0
LINE
8
BLACK
6
CONTINUOUS
10
10.3124285039370083
20
-5.9097343307086616
11
10.3011798818897642
21
-5.9097343307086616
0
LINE
8
BLACK
6
CONTINUOUS
10
10.3724209842519688
20
-5.9097343307086616
11
10.3649219291338586
21
-5.9059848031496065
0
LINE
8
BLACK
6
CONTINUOUS
10
10.3649219291338586
20
-5.9059848031496065
11
10.3611724015748035
21
-5.8984857086614175
0
LINE
8
BLACK
6
CONTINUOUS
10
10.3611724015748035
20
-5.8984857086614175
11
10.3611724015748035
21
-5.8309941732283459
0
LINE
8
BLACK
6
CONTINUOUS
10
10.4324135039370081
20
-5.9059848031496065
11
10.4249144488188978
21
-5.9097343307086616
0
LINE
8
BLACK
6
CONTINUOUS
10
10.4249144488188978
20
-5.9097343307086616
11
10.4099162992125986
21
-5.9097343307086616
0
LINE
8
BLACK
6
CONTINUOUS
10
10.4099162992125986
20
-5.9097343307086616
11
10.4024172440944884
21
-5.9059848031496065
0
LINE
8
BLACK
6
CONTINUOUS
10
10.4024172440944884
20
-5.9059848031496065
11
10.3986677165354333
21
-5.8984857086614175
0
LINE
8
BLACK
6
CONTINUOUS
10
10.3986677165354333
20
-5.8984857086614175
11
10.3986677165354333
21
-5.8684894881889766
0
LINE
8
BLACK
6
CONTINUOUS
10
10.3986677165354333
20
-5.8684894881889766
11
10.4024172440944884
21
-5.8609903937007877
0
LINE
8
BLACK
6
CONTINUOUS
10
10.4024172440944884
20
-5.8609903937007877
11
10.4099162992125986
21
-5.8572408661417326
0
LINE
8
BLACK
6
CONTINUOUS
10
10.4099162992125986
20
-5.8572408661417326
11
10.4249144488188978
21
-5.8572408661417326
0
LINE
8
BLACK
6
CONTINUOUS
10
10.4249144488188978
20
-5.8572408661417326
11
10.4324135039370081
21
-5.8609903937007877
0
LINE
8
BLACK
6
CONTINUOUS
10
10.4324135039370081
20
-5.8609903937007877
11
10.4361630314960632
21
-5.8684894881889766
0
LINE
8
BLACK
6
CONTINUOUS
10
10.4361630314960632
20
-5.8684894881889766
11
10.4361630314960632
21
-5.8759885433070869
0
LINE
8
BLACK
6
CONTINUOUS
10
10.4361630314960632
20
-5.8759885433070869
11
10.3986677165354333
21
-5.8834875984251971
0
LINE
8
BLACK
6
CONTINUOUS
10
10.4661592913385828
20
-5.9059848031496065
11
10.473658346456693
21
-5.9097343307086616
0
LINE
8
BLACK
6
CONTINUOUS
10
10.473658346456693
20
-5.9097343307086616
11
10.4886564566929135
21
-5.9097343307086616
0
LINE
8
BLACK
6
CONTINUOUS
10
10.4886564566929135
20
-5.9097343307086616
11
10.4961555511811024
21
-5.9059848031496065
0
LINE
8
BLACK
6
CONTINUOUS
10
10.4961555511811024
20
-5.9059848031496065
11
10.4999050787401575
21
-5.8984857086614175
0
LINE
8
BLACK
6
CONTINUOUS
10
10.4999050787401575
20
-5.8984857086614175
11
10.4999050787401575
21
-5.8947361811023624
0
LINE
8
BLACK
6
CONTINUOUS
10
10.4999050787401575
20
-5.8947361811023624
11
10.4961555511811024
21
-5.8872371259842522
0
LINE
8
BLACK
6
CONTINUOUS
10
10.4961555511811024
20
-5.8872371259842522
11
10.4886564566929135
21
-5.8834875984251971
0
LINE
8
BLACK
6
CONTINUOUS
10
10.4886564566929135
20
-5.8834875984251971
11
10.4774078740157481
21
-5.8834875984251971
0
LINE
8
BLACK
6
CONTINUOUS
10
10.4774078740157481
20
-5.8834875984251971
11
10.4699088188976379
21
-5.879738070866142
0
LINE
8
BLACK
6
CONTINUOUS
10
10.4699088188976379
20
-5.879738070866142
11
10.4661592913385828
21
-5.8722390157480318
0
LINE
8
BLACK
6
CONTINUOUS
10
10.4661592913385828
20
-5.8722390157480318
11
10.4661592913385828
21
-5.8684894881889766
0
LINE
8
BLACK
6
CONTINUOUS
10
10.4661592913385828
20
-5.8684894881889766
11
10.4699088188976379
21
-5.8609903937007877
0
LINE
8
BLACK
6
CONTINUOUS
10
10.4699088188976379
20
-5.8609903937007877
11
10.4774078740157481
21
-5.8572408661417326
0
LINE
8
BLACK
6
CONTINUOUS
10
10.4774078740157481
20
-5.8572408661417326
11
10.4886564566929135
21
-5.8572408661417326
0
LINE
8
BLACK
6
CONTINUOUS
10
10.4886564566929135
20
-5.8572408661417326
11
10.4961555511811024
21
-5.8609903937007877
0
LINE
8
BLACK
6
CONTINUOUS
10
10.5261518110236221
20
-5.9397305511811025
11
10.5299013385826772
21
-5.9359810236220474
0
LINE
8
BLACK
6
CONTINUOUS
10
10.5299013385826772
20
-5.9359810236220474
11
10.5374003937007874
21
-5.9247324409448821
0
LINE
8
BLACK
6
CONTINUOUS
10
10.5374003937007874
20
-5.9247324409448821
11
10.5411499212598425
21
-5.9172333858267718
0
LINE
8
BLACK
6
CONTINUOUS
10
10.5411499212598425
20
-5.9172333858267718
11
10.5448994488188976
21
-5.9059848031496065
0
LINE
8
BLACK
6
CONTINUOUS
10
10.5448994488188976
20
-5.9059848031496065
11
10.5486489763779527
21
-5.8872371259842522
0
LINE
8
BLACK
6
CONTINUOUS
10
10.5486489763779527
20
-5.8872371259842522
11
10.5486489763779527
21
-5.8722390157480318
0
LINE
8
BLACK
6
CONTINUOUS
10
10.5486489763779527
20
-5.8722390157480318
11
10.5448994488188976
21
-5.8534913385826775
0
LINE
8
BLACK
6
CONTINUOUS
10
10.5448994488188976
20
-5.8534913385826775
11
10.5411499212598425
21
-5.8422427559055121
0
LINE
8
BLACK
6
CONTINUOUS
10
10.5411499212598425
20
-5.8422427559055121
11
10.5374003937007874
21
-5.834743700787401
0
LINE
8
BLACK
6
CONTINUOUS
10
10.5374003937007874
20
-5.834743700787401
11
10.5299013385826772
21
-5.8234950787401569
0
LINE
8
BLACK
6
CONTINUOUS
10
10.5299013385826772
20
-5.8234950787401569
11
10.5261518110236221
21
-5.8197455511811018
0
LINE
8
BLACK
6
CONTINUOUS
10
8.6346748031496059
20
-6.0054932283464568
11
8.6346748031496059
21
-5.9498149606299213
0
LINE
8
BLACK
6
CONTINUOUS
10
8.6346748031496059
20
-5.9498149606299213
11
8.5789965354330704
21
-5.9498149606299213
0
LINE
8
BLACK
6
CONTINUOUS
10
8.5789965354330704
20
-5.9498149606299213
11
8.5789965354330704
21
-6.0054932283464568
0
LINE
8
BLACK
6
CONTINUOUS
10
8.5789965354330704
20
-6.0054932283464568
11
8.6346748031496059
21
-6.0054932283464568
0
LINE
8
BLACK
6
CONTINUOUS
10
8.7413747244094484
20
-5.9349311811023622
11
8.7901186220472436
21
-5.9349311811023622
0
LINE
8
BLACK
6
CONTINUOUS
10
8.7901186220472436
20
-5.9349311811023622
11
8.7638718897637791
21
-5.9649274015748031
0
LINE
8
BLACK
6
CONTINUOUS
10
8.7638718897637791
20
-5.9649274015748031
11
8.7751205118110231
21
-5.9649274015748031
0
LINE
8
BLACK
6
CONTINUOUS
10
8.7751205118110231
20
-5.9649274015748031
11
8.7826195669291334
21
-5.9686769291338582
0
LINE
8
BLACK
6
CONTINUOUS
10
8.7826195669291334
20
-5.9686769291338582
11
8.7863690944881885
21
-5.972426496062992
0
LINE
8
BLACK
6
CONTINUOUS
10
8.7863690944881885
20
-5.972426496062992
11
8.7901186220472436
21
-5.9799255511811023
0
LINE
8
BLACK
6
CONTINUOUS
10
8.7901186220472436
20
-5.9799255511811023
11
8.7901186220472436
21
-5.9986731889763778
0
LINE
8
BLACK
6
CONTINUOUS
10
8.7901186220472436
20
-5.9986731889763778
11
8.7863690944881885
21
-6.006172244094488
0
LINE
8
BLACK
6
CONTINUOUS
10
8.7863690944881885
20
-6.006172244094488
11
8.7826195669291334
21
-6.0099218110236219
0
LINE
8
BLACK
6
CONTINUOUS
10
8.7826195669291334
20
-6.0099218110236219
11
8.7751205118110231
21
-6.013671338582677
0
LINE
8
BLACK
6
CONTINUOUS
10
8.7751205118110231
20
-6.013671338582677
11
8.7526233070866137
21
-6.013671338582677
0
LINE
8
BLACK
6
CONTINUOUS
10
8.7526233070866137
20
-6.013671338582677
11
8.7451242519685035
21
-6.0099218110236219
0
LINE
8
BLACK
6
CONTINUOUS
10
8.7451242519685035
20
-6.0099218110236219
11
8.7413747244094484
21
-6.006172244094488
0
LINE
8
BLACK
6
CONTINUOUS
10
8.8238644094488183
20
-6.006172244094488
11
8.8276139370078734
21
-6.0099218110236219
0
LINE
8
BLACK
6
CONTINUOUS
10
8.8276139370078734
20
-6.0099218110236219
11
8.8238644094488183
21
-6.013671338582677
0
LINE
8
BLACK
6
CONTINUOUS
10
8.8238644094488183
20
-6.013671338582677
11
8.8201148818897632
21
-6.0099218110236219
0
LINE
8
BLACK
6
CONTINUOUS
10
8.8201148818897632
20
-6.0099218110236219
11
8.8238644094488183
21
-6.006172244094488
0
LINE
8
BLACK
6
CONTINUOUS
10
8.8238644094488183
20
-6.006172244094488
11
8.8238644094488183
21
-6.013671338582677
0
LINE
8
BLACK
6
CONTINUOUS
10
8.8763578346456686
20
-5.9349311811023622
11
8.8838569291338576
21
-5.9349311811023622
0
LINE
8
BLACK
6
CONTINUOUS
10
8.8838569291338576
20
-5.9349311811023622
11
8.8913559842519678
21
-5.9386807086614173
0
LINE
8
BLACK
6
CONTINUOUS
10
8.8913559842519678
20
-5.9386807086614173
11
8.8951055118110229
21
-5.9424302362204724
0
LINE
8
BLACK
6
CONTINUOUS
10
8.8951055118110229
20
-5.9424302362204724
11
8.898855039370078
21
-5.9499292913385826
0
LINE
8
BLACK
6
CONTINUOUS
10
8.898855039370078
20
-5.9499292913385826
11
8.9026045669291332
21
-5.9649274015748031
0
LINE
8
BLACK
6
CONTINUOUS
10
8.9026045669291332
20
-5.9649274015748031
11
8.9026045669291332
21
-5.9836750787401574
0
LINE
8
BLACK
6
CONTINUOUS
10
8.9026045669291332
20
-5.9836750787401574
11
8.898855039370078
21
-5.9986731889763778
0
LINE
8
BLACK
6
CONTINUOUS
10
8.898855039370078
20
-5.9986731889763778
11
8.8951055118110229
21
-6.006172244094488
0
LINE
8
BLACK
6
CONTINUOUS
10
8.8951055118110229
20
-6.006172244094488
11
8.8913559842519678
21
-6.0099218110236219
0
LINE
8
BLACK
6
CONTINUOUS
10
8.8913559842519678
20
-6.0099218110236219
11
8.8838569291338576
21
-6.013671338582677
0
LINE
8
BLACK
6
CONTINUOUS
10
8.8838569291338576
20
-6.013671338582677
11
8.8763578346456686
21
-6.013671338582677
0
LINE
8
BLACK
6
CONTINUOUS
10
8.8763578346456686
20
-6.013671338582677
11
8.8688587795275584
21
-6.0099218110236219
0
LINE
8
BLACK
6
CONTINUOUS
10
8.8688587795275584
20
-6.0099218110236219
11
8.8651092519685033
21
-6.006172244094488
0
LINE
8
BLACK
6
CONTINUOUS
10
8.8651092519685033
20
-6.006172244094488
11
8.8613597244094482
21
-5.9986731889763778
0
LINE
8
BLACK
6
CONTINUOUS
10
8.8613597244094482
20
-5.9986731889763778
11
8.8576101968503931
21
-5.9836750787401574
0
LINE
8
BLACK
6
CONTINUOUS
10
8.8576101968503931
20
-5.9836750787401574
11
8.8576101968503931
21
-5.9649274015748031
0
LINE
8
BLACK
6
CONTINUOUS
10
8.8576101968503931
20
-5.9649274015748031
11
8.8613597244094482
21
-5.9499292913385826
0
LINE
8
BLACK
6
CONTINUOUS
10
8.8613597244094482
20
-5.9499292913385826
11
8.8651092519685033
21
-5.9424302362204724
0
LINE
8
BLACK
6
CONTINUOUS
10
8.8651092519685033
20
-5.9424302362204724
11
8.8688587795275584
21
-5.9386807086614173
0
LINE
8
BLACK
6
CONTINUOUS
10
8.8688587795275584
20
-5.9386807086614173
11
8.8763578346456686
21
-5.9349311811023622
0
LINE
8
BLACK
6
CONTINUOUS
10
8.9513484645669283
20
-5.9349311811023622
11
8.9588475590551173
21
-5.9349311811023622
0
LINE
8
BLACK
6
CONTINUOUS
10
8.9588475590551173
20
-5.9349311811023622
11
8.9663466141732275
21
-5.9386807086614173
0
LINE
8
BLACK
6
CONTINUOUS
10
8.9663466141732275
20
-5.9386807086614173
11
8.9700961417322826
21
-5.9424302362204724
0
LINE
8
BLACK
6
CONTINUOUS
10
8.9700961417322826
20
-5.9424302362204724
11
8.9738456692913378
21
-5.9499292913385826
0
LINE
8
BLACK
6
CONTINUOUS
10
8.9738456692913378
20
-5.9499292913385826
11
8.9775951968503929
21
-5.9649274015748031
0
LINE
8
BLACK
6
CONTINUOUS
10
8.9775951968503929
20
-5.9649274015748031
11
8.9775951968503929
21
-5.9836750787401574
0
LINE
8
BLACK
6
CONTINUOUS
10
8.9775951968503929
20
-5.9836750787401574
11
8.9738456692913378
21
-5.9986731889763778
0
LINE
8
BLACK
6
CONTINUOUS
10
8.9738456692913378
20
-5.9986731889763778
11
8.9700961417322826
21
-6.006172244094488
0
LINE
8
BLACK
6
CONTINUOUS
10
8.9700961417322826
20
-6.006172244094488
11
8.9663466141732275
21
-6.0099218110236219
0
LINE
8
BLACK
6
CONTINUOUS
10
8.9663466141732275
20
-6.0099218110236219
11
8.9588475590551173
21
-6.013671338582677
0
LINE
8
BLACK
6
CONTINUOUS
10
8.9588475590551173
20
-6.013671338582677
11
8.9513484645669283
21
-6.013671338582677
0
LINE
8
BLACK
6
CONTINUOUS
10
8.9513484645669283
20
-6.013671338582677
11
8.9438494094488181
21
-6.0099218110236219
0
LINE
8
BLACK
6
CONTINUOUS
10
8.9438494094488181
20
-6.0099218110236219
11
8.940099881889763
21
-6.006172244094488
0
LINE
8
BLACK
6
CONTINUOUS
10
8.940099881889763
20
-6.006172244094488
11
8.9363503543307079
21
-5.9986731889763778
0
LINE
8
BLACK
6
CONTINUOUS
10
8.9363503543307079
20
-5.9986731889763778
11
8.9326008267716528
21
-5.9836750787401574
0
LINE
8
BLACK
6
CONTINUOUS
10
8.9326008267716528
20
-5.9836750787401574
11
8.9326008267716528
21
-5.9649274015748031
0
LINE
8
BLACK
6
CONTINUOUS
10
8.9326008267716528
20
-5.9649274015748031
11
8.9363503543307079
21
-5.9499292913385826
0
LINE
8
BLACK
6
CONTINUOUS
10
8.9363503543307079
20
-5.9499292913385826
11
8.940099881889763
21
-5.9424302362204724
0
LINE
8
BLACK
6
CONTINUOUS
10
8.940099881889763
20
-5.9424302362204724
11
8.9438494094488181
21
-5.9386807086614173
0
LINE
8
BLACK
6
CONTINUOUS
10
8.9438494094488181
20
-5.9386807086614173
11
8.9513484645669283
21
-5.9349311811023622
0
LINE
8
BLACK
6
CONTINUOUS
10
9.0263390944881881
20
-5.9349311811023622
11
9.033838188976377
21
-5.9349311811023622
0
LINE
8
BLACK
6
CONTINUOUS
10
9.033838188976377
20
-5.9349311811023622
11
9.0413372440944872
21
-5.9386807086614173
0
LINE
8
BLACK
6
CONTINUOUS
10
9.0413372440944872
20
-5.9386807086614173
11
9.0450867716535424
21
-5.9424302362204724
0
LINE
8
BLACK
6
CONTINUOUS
10
9.0450867716535424
20
-5.9424302362204724
11
9.0488362992125975
21
-5.9499292913385826
0
LINE
8
BLACK
6
CONTINUOUS
10
9.0488362992125975
20
-5.9499292913385826
11
9.0525858267716526
21
-5.9649274015748031
0
LINE
8
BLACK
6
CONTINUOUS
10
9.0525858267716526
20
-5.9649274015748031
11
9.0525858267716526
21
-5.9836750787401574
0
LINE
8
BLACK
6
CONTINUOUS
10
9.0525858267716526
20
-5.9836750787401574
11
9.0488362992125975
21
-5.9986731889763778
0
LINE
8
BLACK
6
CONTINUOUS
10
9.0488362992125975
20
-5.9986731889763778
11
9.0450867716535424
21
-6.006172244094488
0
LINE
8
BLACK
6
CONTINUOUS
10
9.0450867716535424
20
-6.006172244094488
11
9.0413372440944872
21
-6.0099218110236219
0
LINE
8
BLACK
6
CONTINUOUS
10
9.0413372440944872
20
-6.0099218110236219
11
9.033838188976377
21
-6.013671338582677
0
LINE
8
BLACK
6
CONTINUOUS
10
9.033838188976377
20
-6.013671338582677
11
9.0263390944881881
21
-6.013671338582677
0
LINE
8
BLACK
6
CONTINUOUS
10
9.0263390944881881
20
-6.013671338582677
11
9.0188400393700778
21
-6.0099218110236219
0
LINE
8
BLACK
6
CONTINUOUS
10
9.0188400393700778
20
-6.0099218110236219
11
9.0150905118110227
21
-6.006172244094488
0
LINE
8
BLACK
6
CONTINUOUS
10
9.0150905118110227
20
-6.006172244094488
11
9.0113409842519676
21
-5.9986731889763778
0
LINE
8
BLACK
6
CONTINUOUS
10
9.0113409842519676
20
-5.9986731889763778
11
9.0075914566929125
21
-5.9836750787401574
0
LINE
8
BLACK
6
CONTINUOUS
10
9.0075914566929125
20
-5.9836750787401574
11
9.0075914566929125
21
-5.9649274015748031
0
LINE
8
BLACK
6
CONTINUOUS
10
9.0075914566929125
20
-5.9649274015748031
11
9.0113409842519676
21
-5.9499292913385826
0
LINE
8
BLACK
6
CONTINUOUS
10
9.0113409842519676
20
-5.9499292913385826
11
9.0150905118110227
21
-5.9424302362204724
0
LINE
8
BLACK
6
CONTINUOUS
10
9.0150905118110227
20
-5.9424302362204724
11
9.0188400393700778
21
-5.9386807086614173
0
LINE
8
BLACK
6
CONTINUOUS
10
9.0188400393700778
20
-5.9386807086614173
11
9.0263390944881881
21
-5.9349311811023622
0
LINE
8
BLACK
6
CONTINUOUS
10
9.0863316141732273
20
-6.013671338582677
11
9.0863316141732273
21
-5.9611778740157479
0
LINE
8
BLACK
6
CONTINUOUS
10
9.0863316141732273
20
-5.9686769291338582
11
9.0900811417322824
21
-5.9649274015748031
0
LINE
8
BLACK
6
CONTINUOUS
10
9.0900811417322824
20
-5.9649274015748031
11
9.0975801968503927
21
-5.9611778740157479
0
LINE
8
BLACK
6
CONTINUOUS
10
9.0975801968503927
20
-5.9611778740157479
11
9.1088288188976367
21
-5.9611778740157479
0
LINE
8
BLACK
6
CONTINUOUS
10
9.1088288188976367
20
-5.9611778740157479
11
9.116327874015747
21
-5.9649274015748031
0
LINE
8
BLACK
6
CONTINUOUS
10
9.116327874015747
20
-5.9649274015748031
11
9.1200774015748021
21
-5.972426496062992
0
LINE
8
BLACK
6
CONTINUOUS
10
9.1200774015748021
20
-5.972426496062992
11
9.1200774015748021
21
-6.013671338582677
0
LINE
8
BLACK
6
CONTINUOUS
10
9.1200774015748021
20
-5.972426496062992
11
9.1238269291338572
21
-5.9649274015748031
0
LINE
8
BLACK
6
CONTINUOUS
10
9.1238269291338572
20
-5.9649274015748031
11
9.1313259842519692
21
-5.9611778740157479
0
LINE
8
BLACK
6
CONTINUOUS
10
9.1313259842519692
20
-5.9611778740157479
11
9.1425745669291345
21
-5.9611778740157479
0
LINE
8
BLACK
6
CONTINUOUS
10
9.1425745669291345
20
-5.9611778740157479
11
9.1500736614173235
21
-5.9649274015748031
0
LINE
8
BLACK
6
CONTINUOUS
10
9.1500736614173235
20
-5.9649274015748031
11
9.1538231889763786
21
-5.972426496062992
0
LINE
8
BLACK
6
CONTINUOUS
10
9.1538231889763786
20
-5.972426496062992
11
9.1538231889763786
21
-6.013671338582677
0
LINE
8
BLACK
6
CONTINUOUS
10
9.1913185039370084
20
-6.013671338582677
11
9.1913185039370084
21
-5.9611778740157479
0
LINE
8
BLACK
6
CONTINUOUS
10
9.1913185039370084
20
-5.9686769291338582
11
9.1950680314960636
21
-5.9649274015748031
0
LINE
8
BLACK
6
CONTINUOUS
10
9.1950680314960636
20
-5.9649274015748031
11
9.2025670866141738
21
-5.9611778740157479
0
LINE
8
BLACK
6
CONTINUOUS
10
9.2025670866141738
20
-5.9611778740157479
11
9.2138157086614179
21
-5.9611778740157479
0
LINE
8
BLACK
6
CONTINUOUS
10
9.2138157086614179
20
-5.9611778740157479
11
9.2213147637795281
21
-5.9649274015748031
0
LINE
8
BLACK
6
CONTINUOUS
10
9.2213147637795281
20
-5.9649274015748031
11
9.2250642913385832
21
-5.972426496062992
0
LINE
8
BLACK
6
CONTINUOUS
10
9.2250642913385832
20
-5.972426496062992
11
9.2250642913385832
21
-6.013671338582677
0
LINE
8
BLACK
6
CONTINUOUS
10
9.2250642913385832
20
-5.972426496062992
11
9.2288138188976383
21
-5.9649274015748031
0
LINE
8
BLACK
6
CONTINUOUS
10
9.2288138188976383
20
-5.9649274015748031
11
9.2363128740157485
21
-5.9611778740157479
0
LINE
8
BLACK
6
CONTINUOUS
10
9.2363128740157485
20
-5.9611778740157479
11
9.2475614566929139
21
-5.9611778740157479
0
LINE
8
BLACK
6
CONTINUOUS
10
9.2475614566929139
20
-5.9611778740157479
11
9.2550605511811028
21
-5.9649274015748031
0
LINE
8
BLACK
6
CONTINUOUS
10
9.2550605511811028
20
-5.9649274015748031
11
9.2588100787401579
21
-5.972426496062992
0
LINE
8
BLACK
6
CONTINUOUS
10
9.2588100787401579
20
-5.972426496062992
11
9.2588100787401579
21
-6.013671338582677
0
LINE
8
BLACK
6
CONTINUOUS
10
9.4125408661417325
20
-5.9311816535433071
11
9.3450493307086617
21
-6.0324189763779525
0
LINE
8
BLACK
6
CONTINUOUS
10
9.5137782283464567
20
-5.9349311811023622
11
9.5212773228346457
21
-5.9349311811023622
0
LINE
8
BLACK
6
CONTINUOUS
10
9.5212773228346457
20
-5.9349311811023622
11
9.5287763779527559
21
-5.9386807086614173
0
LINE
8
BLACK
6
CONTINUOUS
10
9.5287763779527559
20
-5.9386807086614173
11
9.532525905511811
21
-5.9424302362204724
0
LINE
8
BLACK
6
CONTINUOUS
10
9.532525905511811
20
-5.9424302362204724
11
9.5362754330708661
21
-5.9499292913385826
0
LINE
8
BLACK
6
CONTINUOUS
10
9.5362754330708661
20
-5.9499292913385826
11
9.5400249606299212
21
-5.9649274015748031
0
LINE
8
BLACK
6
CONTINUOUS
10
9.5400249606299212
20
-5.9649274015748031
11
9.5400249606299212
21
-5.9836750787401574
0
LINE
8
BLACK
6
CONTINUOUS
10
9.5400249606299212
20
-5.9836750787401574
11
9.5362754330708661
21
-5.9986731889763778
0
LINE
8
BLACK
6
CONTINUOUS
10
9.5362754330708661
20
-5.9986731889763778
11
9.532525905511811
21
-6.006172244094488
0
LINE
8
BLACK
6
CONTINUOUS
10
9.532525905511811
20
-6.006172244094488
11
9.5287763779527559
21
-6.0099218110236219
0
LINE
8
BLACK
6
CONTINUOUS
10
9.5287763779527559
20
-6.0099218110236219
11
9.5212773228346457
21
-6.013671338582677
0
LINE
8
BLACK
6
CONTINUOUS
10
9.5212773228346457
20
-6.013671338582677
11
9.5137782283464567
21
-6.013671338582677
0
LINE
8
BLACK
6
CONTINUOUS
10
9.5137782283464567
20
-6.013671338582677
11
9.5062791732283465
21
-6.0099218110236219
0
LINE
8
BLACK
6
CONTINUOUS
10
9.5062791732283465
20
-6.0099218110236219
11
9.5025296456692914
21
-6.006172244094488
0
LINE
8
BLACK
6
CONTINUOUS
10
9.5025296456692914
20
-6.006172244094488
11
9.4987801181102363
21
-5.9986731889763778
0
LINE
8
BLACK
6
CONTINUOUS
10
9.4987801181102363
20
-5.9986731889763778
11
9.4950305905511811
21
-5.9836750787401574
0
LINE
8
BLACK
6
CONTINUOUS
10
9.4950305905511811
20
-5.9836750787401574
11
9.4950305905511811
21
-5.9649274015748031
0
LINE
8
BLACK
6
CONTINUOUS
10
9.4950305905511811
20
-5.9649274015748031
11
9.4987801181102363
21
-5.9499292913385826
0
LINE
8
BLACK
6
CONTINUOUS
10
9.4987801181102363
20
-5.9499292913385826
11
9.5025296456692914
21
-5.9424302362204724
0
LINE
8
BLACK
6
CONTINUOUS
10
9.5025296456692914
20
-5.9424302362204724
11
9.5062791732283465
21
-5.9386807086614173
0
LINE
8
BLACK
6
CONTINUOUS
10
9.5062791732283465
20
-5.9386807086614173
11
9.5137782283464567
21
-5.9349311811023622
0
LINE
8
BLACK
6
CONTINUOUS
10
9.573770748031496
20
-6.006172244094488
11
9.5775202755905511
21
-6.0099218110236219
0
LINE
8
BLACK
6
CONTINUOUS
10
9.5775202755905511
20
-6.0099218110236219
11
9.573770748031496
21
-6.013671338582677
0
LINE
8
BLACK
6
CONTINUOUS
10
9.573770748031496
20
-6.013671338582677
11
9.5700212204724409
21
-6.0099218110236219
0
LINE
8
BLACK
6
CONTINUOUS
10
9.5700212204724409
20
-6.0099218110236219
11
9.573770748031496
21
-6.006172244094488
0
LINE
8
BLACK
6
CONTINUOUS
10
9.573770748031496
20
-6.006172244094488
11
9.573770748031496
21
-6.013671338582677
0
LINE
8
BLACK
6
CONTINUOUS
10
9.6525109055118108
20
-6.013671338582677
11
9.6075165354330707
21
-6.013671338582677
0
LINE
8
BLACK
6
CONTINUOUS
10
9.6300137007874014
20
-6.013671338582677
11
9.6300137007874014
21
-5.9349311811023622
0
LINE
8
BLACK
6
CONTINUOUS
10
9.6300137007874014
20
-5.9349311811023622
11
9.6225146456692912
21
-5.9461797637795275
0
LINE
8
BLACK
6
CONTINUOUS
10
9.6225146456692912
20
-5.9461797637795275
11
9.6150155905511809
21
-5.9536788188976377
0
LINE
8
BLACK
6
CONTINUOUS
10
9.6150155905511809
20
-5.9536788188976377
11
9.6075165354330707
21
-5.9574283464566928
0
LINE
8
BLACK
6
CONTINUOUS
10
9.7275015354330705
20
-6.013671338582677
11
9.6825071653543304
21
-6.013671338582677
0
LINE
8
BLACK
6
CONTINUOUS
10
9.7050043307086611
20
-6.013671338582677
11
9.7050043307086611
21
-5.9349311811023622
0
LINE
8
BLACK
6
CONTINUOUS
10
9.7050043307086611
20
-5.9349311811023622
11
9.6975052755905509
21
-5.9461797637795275
0
LINE
8
BLACK
6
CONTINUOUS
10
9.6975052755905509
20
-5.9461797637795275
11
9.6900062204724406
21
-5.9536788188976377
0
LINE
8
BLACK
6
CONTINUOUS
10
9.6900062204724406
20
-5.9536788188976377
11
9.6825071653543304
21
-5.9574283464566928
0
LINE
8
BLACK
6
CONTINUOUS
10
9.7724959055118106
20
-5.9686769291338582
11
9.7649968503937004
21
-5.9649274015748031
0
LINE
8
BLACK
6
CONTINUOUS
10
9.7649968503937004
20
-5.9649274015748031
11
9.7612473228346452
21
-5.9611778740157479
0
LINE
8
BLACK
6
CONTINUOUS
10
9.7612473228346452
20
-5.9611778740157479
11
9.7574977952755901
21
-5.9536788188976377
0
LINE
8
BLACK
6
CONTINUOUS
10
9.7574977952755901
20
-5.9536788188976377
11
9.7574977952755901
21
-5.9499292913385826
0
LINE
8
BLACK
6
CONTINUOUS
10
9.7574977952755901
20
-5.9499292913385826
11
9.7612473228346452
21
-5.9424302362204724
0
LINE
8
BLACK
6
CONTINUOUS
10
9.7612473228346452
20
-5.9424302362204724
11
9.7649968503937004
21
-5.9386807086614173
0
LINE
8
BLACK
6
CONTINUOUS
10
9.7649968503937004
20
-5.9386807086614173
11
9.7724959055118106
21
-5.9349311811023622
0
LINE
8
BLACK
6
CONTINUOUS
10
9.7724959055118106
20
-5.9349311811023622
11
9.7874940551181098
21
-5.9349311811023622
0
LINE
8
BLACK
6
CONTINUOUS
10
9.7874940551181098
20
-5.9349311811023622
11
9.79499311023622
21
-5.9386807086614173
0
LINE
8
BLACK
6
CONTINUOUS
10
9.79499311023622
20
-5.9386807086614173
11
9.7987426377952751
21
-5.9424302362204724
0
LINE
8
BLACK
6
CONTINUOUS
10
9.7987426377952751
20
-5.9424302362204724
11
9.8024921653543302
21
-5.9499292913385826
0
LINE
8
BLACK
6
CONTINUOUS
10
9.8024921653543302
20
-5.9499292913385826
11
9.8024921653543302
21
-5.9536788188976377
0
LINE
8
BLACK
6
CONTINUOUS
10
9.8024921653543302
20
-5.9536788188976377
11
9.7987426377952751
21
-5.9611778740157479
0
LINE
8
BLACK
6
CONTINUOUS
10
9.7987426377952751
20
-5.9611778740157479
11
9.79499311023622
21
-5.9649274015748031
0
LINE
8
BLACK
6
CONTINUOUS
10
9.79499311023622
20
-5.9649274015748031
11
9.7874940551181098
21
-5.9686769291338582
0
LINE
8
BLACK
6
CONTINUOUS
10
9.7874940551181098
20
-5.9686769291338582
11
9.7724959055118106
21
-5.9686769291338582
0
LINE
8
BLACK
6
CONTINUOUS
10
9.7724959055118106
20
-5.9686769291338582
11
9.7649968503937004
21
-5.972426496062992
0
LINE
8
BLACK
6
CONTINUOUS
10
9.7649968503937004
20
-5.972426496062992
11
9.7612473228346452
21
-5.9761760236220471
0
LINE
8
BLACK
6
CONTINUOUS
10
9.7612473228346452
20
-5.9761760236220471
11
9.7574977952755901
21
-5.9836750787401574
0
LINE
8
BLACK
6
CONTINUOUS
10
9.7574977952755901
20
-5.9836750787401574
11
9.7574977952755901
21
-5.9986731889763778
0
LINE
8
BLACK
6
CONTINUOUS
10
9.7574977952755901
20
-5.9986731889763778
11
9.7612473228346452
21
-6.006172244094488
0
LINE
8
BLACK
6
CONTINUOUS
10
9.7612473228346452
20
-6.006172244094488
11
9.7649968503937004
21
-6.0099218110236219
0
LINE
8
BLACK
6
CONTINUOUS
10
9.7649968503937004
20
-6.0099218110236219
11
9.7724959055118106
21
-6.013671338582677
0
LINE
8
BLACK
6
CONTINUOUS
10
9.7724959055118106
20
-6.013671338582677
11
9.7874940551181098
21
-6.013671338582677
0
LINE
8
BLACK
6
CONTINUOUS
10
9.7874940551181098
20
-6.013671338582677
11
9.79499311023622
21
-6.0099218110236219
0
LINE
8
BLACK
6
CONTINUOUS
10
9.79499311023622
20
-6.0099218110236219
11
9.7987426377952751
21
-6.006172244094488
0
LINE
8
BLACK
6
CONTINUOUS
10
9.7987426377952751
20
-6.006172244094488
11
9.8024921653543302
21
-5.9986731889763778
0
LINE
8
BLACK
6
CONTINUOUS
10
9.8024921653543302
20
-5.9986731889763778
11
9.8024921653543302
21
-5.9836750787401574
0
LINE
8
BLACK
6
CONTINUOUS
10
9.8024921653543302
20
-5.9836750787401574
11
9.7987426377952751
21
-5.9761760236220471
0
LINE
8
BLACK
6
CONTINUOUS
10
9.7987426377952751
20
-5.9761760236220471
11
9.79499311023622
21
-5.972426496062992
0
LINE
8
BLACK
6
CONTINUOUS
10
9.79499311023622
20
-5.972426496062992
11
9.7874940551181098
21
-5.9686769291338582
0
LINE
8
BLACK
6
CONTINUOUS
10
9.8774827952755899
20
-6.013671338582677
11
9.8324884251968498
21
-6.013671338582677
0
LINE
8
BLACK
6
CONTINUOUS
10
9.8549855905511805
20
-6.013671338582677
11
9.8549855905511805
21
-5.9349311811023622
0
LINE
8
BLACK
6
CONTINUOUS
10
9.8549855905511805
20
-5.9349311811023622
11
9.8474865354330703
21
-5.9461797637795275
0
LINE
8
BLACK
6
CONTINUOUS
10
9.8474865354330703
20
-5.9461797637795275
11
9.8399874803149601
21
-5.9536788188976377
0
LINE
8
BLACK
6
CONTINUOUS
10
9.8399874803149601
20
-5.9536788188976377
11
9.8324884251968498
21
-5.9574283464566928
0
LINE
8
BLACK
6
CONTINUOUS
10
9.9074790551181096
20
-5.9349311811023622
11
9.9074790551181096
21
-5.9499292913385826
0
LINE
8
BLACK
6
CONTINUOUS
10
9.9374753149606292
20
-5.9349311811023622
11
9.9374753149606292
21
-5.9499292913385826
0
LINE
8
BLACK
6
CONTINUOUS
10
10.0537108267716526
20
-6.0436675590551179
11
10.0499612598425188
21
-6.0399180314960628
0
LINE
8
BLACK
6
CONTINUOUS
10
10.0499612598425188
20
-6.0399180314960628
11
10.0424622047244085
21
-6.0286694488188974
0
LINE
8
BLACK
6
CONTINUOUS
10
10.0424622047244085
20
-6.0286694488188974
11
10.0387126771653534
21
-6.0211703937007872
0
LINE
8
BLACK
6
CONTINUOUS
10
10.0387126771653534
20
-6.0211703937007872
11
10.0349631496062983
21
-6.0099218110236219
0
LINE
8
BLACK
6
CONTINUOUS
10
10.0349631496062983
20
-6.0099218110236219
11
10.0312136220472432
21
-5.9911741338582676
0
LINE
8
BLACK
6
CONTINUOUS
10
10.0312136220472432
20
-5.9911741338582676
11
10.0312136220472432
21
-5.9761760236220471
0
LINE
8
BLACK
6
CONTINUOUS
10
10.0312136220472432
20
-5.9761760236220471
11
10.0349631496062983
21
-5.9574283464566928
0
LINE
8
BLACK
6
CONTINUOUS
10
10.0349631496062983
20
-5.9574283464566928
11
10.0387126771653534
21
-5.9461797637795275
0
LINE
8
BLACK
6
CONTINUOUS
10
10.0387126771653534
20
-5.9461797637795275
11
10.0424622047244085
21
-5.9386807086614173
0
LINE
8
BLACK
6
CONTINUOUS
10
10.0424622047244085
20
-5.9386807086614173
11
10.0499612598425188
21
-5.9274320866141732
0
LINE
8
BLACK
6
CONTINUOUS
10
10.0499612598425188
20
-5.9274320866141732
11
10.0537108267716526
21
-5.9236825590551181
0
LINE
8
BLACK
6
CONTINUOUS
10
10.0799575196850384
20
-5.9424302362204724
11
10.0837070472440935
21
-5.9386807086614173
0
LINE
8
BLACK
6
CONTINUOUS
10
10.0837070472440935
20
-5.9386807086614173
11
10.0912061023622037
21
-5.9349311811023622
0
LINE
8
BLACK
6
CONTINUOUS
10
10.0912061023622037
20
-5.9349311811023622
11
10.109953779527558
21
-5.9349311811023622
0
LINE
8
BLACK
6
CONTINUOUS
10
10.109953779527558
20
-5.9349311811023622
11
10.1174528346456682
21
-5.9386807086614173
0
LINE
8
BLACK
6
CONTINUOUS
10
10.1174528346456682
20
-5.9386807086614173
11
10.1212023622047234
21
-5.9424302362204724
0
LINE
8
BLACK
6
CONTINUOUS
10
10.1212023622047234
20
-5.9424302362204724
11
10.1249518897637785
21
-5.9499292913385826
0
LINE
8
BLACK
6
CONTINUOUS
10
10.1249518897637785
20
-5.9499292913385826
11
10.1249518897637785
21
-5.9574283464566928
0
LINE
8
BLACK
6
CONTINUOUS
10
10.1249518897637785
20
-5.9574283464566928
11
10.1212023622047234
21
-5.9686769291338582
0
LINE
8
BLACK
6
CONTINUOUS
10
10.1212023622047234
20
-5.9686769291338582
11
10.0762079921259833
21
-6.013671338582677
0
LINE
8
BLACK
6
CONTINUOUS
10
10.0762079921259833
20
-6.013671338582677
11
10.1249518897637785
21
-6.013671338582677
0
LINE
8
BLACK
6
CONTINUOUS
10
10.2186901968503943
20
-6.013671338582677
11
10.2186901968503943
21
-5.9349311811023622
0
LINE
8
BLACK
6
CONTINUOUS
10
10.252435984251969
20
-6.013671338582677
11
10.252435984251969
21
-5.972426496062992
0
LINE
8
BLACK
6
CONTINUOUS
10
10.252435984251969
20
-5.972426496062992
11
10.2486864566929139
21
-5.9649274015748031
0
LINE
8
BLACK
6
CONTINUOUS
10
10.2486864566929139
20
-5.9649274015748031
11
10.2411874015748037
21
-5.9611778740157479
0
LINE
8
BLACK
6
CONTINUOUS
10
10.2411874015748037
20
-5.9611778740157479
11
10.2299387795275596
21
-5.9611778740157479
0
LINE
8
BLACK
6
CONTINUOUS
10
10.2299387795275596
20
-5.9611778740157479
11
10.2224397244094494
21
-5.9649274015748031
0
LINE
8
BLACK
6
CONTINUOUS
10
10.2224397244094494
20
-5.9649274015748031
11
10.2186901968503943
21
-5.9686769291338582
0
LINE
8
BLACK
6
CONTINUOUS
10
10.3011798818897642
20
-6.013671338582677
11
10.293680826771654
21
-6.0099218110236219
0
LINE
8
BLACK
6
CONTINUOUS
10
10.293680826771654
20
-6.0099218110236219
11
10.2899312992125989
21
-6.006172244094488
0
LINE
8
BLACK
6
CONTINUOUS
10
10.2899312992125989
20
-6.006172244094488
11
10.2861817716535437
21
-5.9986731889763778
0
LINE
8
BLACK
6
CONTINUOUS
10
10.2861817716535437
20
-5.9986731889763778
11
10.2861817716535437
21
-5.9761760236220471
0
LINE
8
BLACK
6
CONTINUOUS
10
10.2861817716535437
20
-5.9761760236220471
11
10.2899312992125989
21
-5.9686769291338582
0
LINE
8
BLACK
6
CONTINUOUS
10
10.2899312992125989
20
-5.9686769291338582
11
10.293680826771654
21
-5.9649274015748031
0
LINE
8
BLACK
6
CONTINUOUS
10
10.293680826771654
20
-5.9649274015748031
11
10.3011798818897642
21
-5.9611778740157479
0
LINE
8
BLACK
6
CONTINUOUS
10
10.3011798818897642
20
-5.9611778740157479
11
10.3124285039370083
21
-5.9611778740157479
0
LINE
8
BLACK
6
CONTINUOUS
10
10.3124285039370083
20
-5.9611778740157479
11
10.3199275590551185
21
-5.9649274015748031
0
LINE
8
BLACK
6
CONTINUOUS
10
10.3199275590551185
20
-5.9649274015748031
11
10.3236770866141736
21
-5.9686769291338582
0
LINE
8
BLACK
6
CONTINUOUS
10
10.3236770866141736
20
-5.9686769291338582
11
10.3274266141732287
21
-5.9761760236220471
0
LINE
8
BLACK
6
CONTINUOUS
10
10.3274266141732287
20
-5.9761760236220471
11
10.3274266141732287
21
-5.9986731889763778
0
LINE
8
BLACK
6
CONTINUOUS
10
10.3274266141732287
20
-5.9986731889763778
11
10.3236770866141736
21
-6.006172244094488
0
LINE
8
BLACK
6
CONTINUOUS
10
10.3236770866141736
20
-6.006172244094488
11
10.3199275590551185
21
-6.0099218110236219
0
LINE
8
BLACK
6
CONTINUOUS
10
10.3199275590551185
20
-6.0099218110236219
11
10.3124285039370083
21
-6.013671338582677
0
LINE
8
BLACK
6
CONTINUOUS
10
10.3124285039370083
20
-6.013671338582677
11
10.3011798818897642
21
-6.013671338582677
0
LINE
8
BLACK
6
CONTINUOUS
10
10.3724209842519688
20
-6.013671338582677
11
10.3649219291338586
21
-6.0099218110236219
0
LINE
8
BLACK
6
CONTINUOUS
10
10.3649219291338586
20
-6.0099218110236219
11
10.3611724015748035
21
-6.0024227165354329
0
LINE
8
BLACK
6
CONTINUOUS
10
10.3611724015748035
20
-6.0024227165354329
11
10.3611724015748035
21
-5.9349311811023622
0
LINE
8
BLACK
6
CONTINUOUS
10
10.4324135039370081
20
-6.0099218110236219
11
10.4249144488188978
21
-6.013671338582677
0
LINE
8
BLACK
6
CONTINUOUS
10
10.4249144488188978
20
-6.013671338582677
11
10.4099162992125986
21
-6.013671338582677
0
LINE
8
BLACK
6
CONTINUOUS
10
10.4099162992125986
20
-6.013671338582677
11
10.4024172440944884
21
-6.0099218110236219
0
LINE
8
BLACK
6
CONTINUOUS
10
10.4024172440944884
20
-6.0099218110236219
11
10.3986677165354333
21
-6.0024227165354329
0
LINE
8
BLACK
6
CONTINUOUS
10
10.3986677165354333
20
-6.0024227165354329
11
10.3986677165354333
21
-5.972426496062992
0
LINE
8
BLACK
6
CONTINUOUS
10
10.3986677165354333
20
-5.972426496062992
11
10.4024172440944884
21
-5.9649274015748031
0
LINE
8
BLACK
6
CONTINUOUS
10
10.4024172440944884
20
-5.9649274015748031
11
10.4099162992125986
21
-5.9611778740157479
0
LINE
8
BLACK
6
CONTINUOUS
10
10.4099162992125986
20
-5.9611778740157479
11
10.4249144488188978
21
-5.9611778740157479
0
LINE
8
BLACK
6
CONTINUOUS
10
10.4249144488188978
20
-5.9611778740157479
11
10.4324135039370081
21
-5.9649274015748031
0
LINE
8
BLACK
6
CONTINUOUS
10
10.4324135039370081
20
-5.9649274015748031
11
10.4361630314960632
21
-5.972426496062992
0
LINE
8
BLACK
6
CONTINUOUS
10
10.4361630314960632
20
-5.972426496062992
11
10.4361630314960632
21
-5.9799255511811023
0
LINE
8
BLACK
6
CONTINUOUS
10
10.4361630314960632
20
-5.9799255511811023
11
10.3986677165354333
21
-5.9874246062992125
0
LINE
8
BLACK
6
CONTINUOUS
10
10.4661592913385828
20
-6.0099218110236219
11
10.473658346456693
21
-6.013671338582677
0
LINE
8
BLACK
6
CONTINUOUS
10
10.473658346456693
20
-6.013671338582677
11
10.4886564566929135
21
-6.013671338582677
0
LINE
8
BLACK
6
CONTINUOUS
10
10.4886564566929135
20
-6.013671338582677
11
10.4961555511811024
21
-6.0099218110236219
0
LINE
8
BLACK
6
CONTINUOUS
10
10.4961555511811024
20
-6.0099218110236219
11
10.4999050787401575
21
-6.0024227165354329
0
LINE
8
BLACK
6
CONTINUOUS
10
10.4999050787401575
20
-6.0024227165354329
11
10.4999050787401575
21
-5.9986731889763778
0
LINE
8
BLACK
6
CONTINUOUS
10
10.4999050787401575
20
-5.9986731889763778
11
10.4961555511811024
21
-5.9911741338582676
0
LINE
8
BLACK
6
CONTINUOUS
10
10.4961555511811024
20
-5.9911741338582676
11
10.4886564566929135
21
-5.9874246062992125
0
LINE
8
BLACK
6
CONTINUOUS
10
10.4886564566929135
20
-5.9874246062992125
11
10.4774078740157481
21
-5.9874246062992125
0
LINE
8
BLACK
6
CONTINUOUS
10
10.4774078740157481
20
-5.9874246062992125
11
10.4699088188976379
21
-5.9836750787401574
0
LINE
8
BLACK
6
CONTINUOUS
10
10.4699088188976379
20
-5.9836750787401574
11
10.4661592913385828
21
-5.9761760236220471
0
LINE
8
BLACK
6
CONTINUOUS
10
10.4661592913385828
20
-5.9761760236220471
11
10.4661592913385828
21
-5.972426496062992
0
LINE
8
BLACK
6
CONTINUOUS
10
10.4661592913385828
20
-5.972426496062992
11
10.4699088188976379
21
-5.9649274015748031
0
LINE
8
BLACK
6
CONTINUOUS
10
10.4699088188976379
20
-5.9649274015748031
11
10.4774078740157481
21
-5.9611778740157479
0
LINE
8
BLACK
6
CONTINUOUS
10
10.4774078740157481
20
-5.9611778740157479
11
10.4886564566929135
21
-5.9611778740157479
0
LINE
8
BLACK
6
CONTINUOUS
10
10.4886564566929135
20
-5.9611778740157479
11
10.4961555511811024
21
-5.9649274015748031
0
LINE
8
BLACK
6
CONTINUOUS
10
10.5261518110236221
20
-6.0436675590551179
11
10.5299013385826772
21
-6.0399180314960628
0
LINE
8
BLACK
6
CONTINUOUS
10
10.5299013385826772
20
-6.0399180314960628
11
10.5374003937007874
21
-6.0286694488188974
0
LINE
8
BLACK
6
CONTINUOUS
10
10.5374003937007874
20
-6.0286694488188974
11
10.5411499212598425
21
-6.0211703937007872
0
LINE
8
BLACK
6
CONTINUOUS
10
10.5411499212598425
20
-6.0211703937007872
11
10.5448994488188976
21
-6.0099218110236219
0
LINE
8
BLACK
6
CONTINUOUS
10
10.5448994488188976
20
-6.0099218110236219
11
10.5486489763779527
21
-5.9911741338582676
0
LINE
8
BLACK
6
CONTINUOUS
10
10.5486489763779527
20
-5.9911741338582676
11
10.5486489763779527
21
-5.9761760236220471
0
LINE
8
BLACK
6
CONTINUOUS
10
10.5486489763779527
20
-5.9761760236220471
11
10.5448994488188976
21
-5.9574283464566928
0
LINE
8
BLACK
6
CONTINUOUS
10
10.5448994488188976
20
-5.9574283464566928
11
10.5411499212598425
21
-5.9461797637795275
0
LINE
8
BLACK
6
CONTINUOUS
10
10.5411499212598425
20
-5.9461797637795275
11
10.5374003937007874
21
-5.9386807086614173
0
LINE
8
BLACK
6
CONTINUOUS
10
10.5374003937007874
20
-5.9386807086614173
11
10.5299013385826772
21
-5.9274320866141732
0
LINE
8
BLACK
6
CONTINUOUS
10
10.5299013385826772
20
-5.9274320866141732
11
10.5261518110236221
21
-5.9236825590551181
0
LINE
8
BLACK
6
CONTINUOUS
10
8.606835669291339
20
-6.1430084251968502
11
8.6462057480314964
21
-6.1036383464566928
0
LINE
8
BLACK
6
CONTINUOUS
10
8.6462057480314964
20
-6.1036383464566928
11
8.606835669291339
21
-6.0642682677165354
0
LINE
8
BLACK
6
CONTINUOUS
10
8.606835669291339
20
-6.0642682677165354
11
8.5674655905511816
21
-6.1036383464566928
0
LINE
8
BLACK
6
CONTINUOUS
10
8.5674655905511816
20
-6.1036383464566928
11
8.606835669291339
21
-6.1430084251968502
0
LINE
8
BLACK
6
CONTINUOUS
10
8.7413747244094484
20
-6.0609154330708659
11
8.7901186220472436
21
-6.0609154330708659
0
LINE
8
BLACK
6
CONTINUOUS
10
8.7901186220472436
20
-6.0609154330708659
11
8.7638718897637791
21
-6.0909116535433068
0
LINE
8
BLACK
6
CONTINUOUS
10
8.7638718897637791
20
-6.0909116535433068
11
8.7751205118110231
21
-6.0909116535433068
0
LINE
8
BLACK
6
CONTINUOUS
10
8.7751205118110231
20
-6.0909116535433068
11
8.7826195669291334
21
-6.0946611811023619
0
LINE
8
BLACK
6
CONTINUOUS
10
8.7826195669291334
20
-6.0946611811023619
11
8.7863690944881885
21
-6.0984107480314957
0
LINE
8
BLACK
6
CONTINUOUS
10
8.7863690944881885
20
-6.0984107480314957
11
8.7901186220472436
21
-6.105909803149606
0
LINE
8
BLACK
6
CONTINUOUS
10
8.7901186220472436
20
-6.105909803149606
11
8.7901186220472436
21
-6.1246574409448815
0
LINE
8
BLACK
6
CONTINUOUS
10
8.7901186220472436
20
-6.1246574409448815
11
8.7863690944881885
21
-6.1321564960629917
0
LINE
8
BLACK
6
CONTINUOUS
10
8.7863690944881885
20
-6.1321564960629917
11
8.7826195669291334
21
-6.1359060629921256
0
LINE
8
BLACK
6
CONTINUOUS
10
8.7826195669291334
20
-6.1359060629921256
11
8.7751205118110231
21
-6.1396555905511807
0
LINE
8
BLACK
6
CONTINUOUS
10
8.7751205118110231
20
-6.1396555905511807
11
8.7526233070866137
21
-6.1396555905511807
0
LINE
8
BLACK
6
CONTINUOUS
10
8.7526233070866137
20
-6.1396555905511807
11
8.7451242519685035
21
-6.1359060629921256
0
LINE
8
BLACK
6
CONTINUOUS
10
8.7451242519685035
20
-6.1359060629921256
11
8.7413747244094484
21
-6.1321564960629917
0
LINE
8
BLACK
6
CONTINUOUS
10
8.8238644094488183
20
-6.1321564960629917
11
8.8276139370078734
21
-6.1359060629921256
0
LINE
8
BLACK
6
CONTINUOUS
10
8.8276139370078734
20
-6.1359060629921256
11
8.8238644094488183
21
-6.1396555905511807
0
LINE
8
BLACK
6
CONTINUOUS
10
8.8238644094488183
20
-6.1396555905511807
11
8.8201148818897632
21
-6.1359060629921256
0
LINE
8
BLACK
6
CONTINUOUS
10
8.8201148818897632
20
-6.1359060629921256
11
8.8238644094488183
21
-6.1321564960629917
0
LINE
8
BLACK
6
CONTINUOUS
10
8.8238644094488183
20
-6.1321564960629917
11
8.8238644094488183
21
-6.1396555905511807
0
LINE
8
BLACK
6
CONTINUOUS
10
8.8951055118110229
20
-6.0871621259842517
11
8.8951055118110229
21
-6.1396555905511807
0
LINE
8
BLACK
6
CONTINUOUS
10
8.8763578346456686
20
-6.0571659055118108
11
8.8576101968503931
21
-6.1134088582677162
0
LINE
8
BLACK
6
CONTINUOUS
10
8.8576101968503931
20
-6.1134088582677162
11
8.9063540944881883
21
-6.1134088582677162
0
LINE
8
BLACK
6
CONTINUOUS
10
8.9513484645669283
20
-6.0609154330708659
11
8.9588475590551173
21
-6.0609154330708659
0
LINE
8
BLACK
6
CONTINUOUS
10
8.9588475590551173
20
-6.0609154330708659
11
8.9663466141732275
21
-6.064664960629921
0
LINE
8
BLACK
6
CONTINUOUS
10
8.9663466141732275
20
-6.064664960629921
11
8.9700961417322826
21
-6.0684144881889761
0
LINE
8
BLACK
6
CONTINUOUS
10
8.9700961417322826
20
-6.0684144881889761
11
8.9738456692913378
21
-6.0759135433070863
0
LINE
8
BLACK
6
CONTINUOUS
10
8.9738456692913378
20
-6.0759135433070863
11
8.9775951968503929
21
-6.0909116535433068
0
LINE
8
BLACK
6
CONTINUOUS
10
8.9775951968503929
20
-6.0909116535433068
11
8.9775951968503929
21
-6.1096593307086611
0
LINE
8
BLACK
6
CONTINUOUS
10
8.9775951968503929
20
-6.1096593307086611
11
8.9738456692913378
21
-6.1246574409448815
0
LINE
8
BLACK
6
CONTINUOUS
10
8.9738456692913378
20
-6.1246574409448815
11
8.9700961417322826
21
-6.1321564960629917
0
LINE
8
BLACK
6
CONTINUOUS
10
8.9700961417322826
20
-6.1321564960629917
11
8.9663466141732275
21
-6.1359060629921256
0
LINE
8
BLACK
6
CONTINUOUS
10
8.9663466141732275
20
-6.1359060629921256
11
8.9588475590551173
21
-6.1396555905511807
0
LINE
8
BLACK
6
CONTINUOUS
10
8.9588475590551173
20
-6.1396555905511807
11
8.9513484645669283
21
-6.1396555905511807
0
LINE
8
BLACK
6
CONTINUOUS
10
8.9513484645669283
20
-6.1396555905511807
11
8.9438494094488181
21
-6.1359060629921256
0
LINE
8
BLACK
6
CONTINUOUS
10
8.9438494094488181
20
-6.1359060629921256
11
8.940099881889763
21
-6.1321564960629917
0
LINE
8
BLACK
6
CONTINUOUS
10
8.940099881889763
20
-6.1321564960629917
11
8.9363503543307079
21
-6.1246574409448815
0
LINE
8
BLACK
6
CONTINUOUS
10
8.9363503543307079
20
-6.1246574409448815
11
8.9326008267716528
21
-6.1096593307086611
0
LINE
8
BLACK
6
CONTINUOUS
10
8.9326008267716528
20
-6.1096593307086611
11
8.9326008267716528
21
-6.0909116535433068
0
LINE
8
BLACK
6
CONTINUOUS
10
8.9326008267716528
20
-6.0909116535433068
11
8.9363503543307079
21
-6.0759135433070863
0
LINE
8
BLACK
6
CONTINUOUS
10
8.9363503543307079
20
-6.0759135433070863
11
8.940099881889763
21
-6.0684144881889761
0
LINE
8
BLACK
6
CONTINUOUS
10
8.940099881889763
20
-6.0684144881889761
11
8.9438494094488181
21
-6.064664960629921
0
LINE
8
BLACK
6
CONTINUOUS
10
8.9438494094488181
20
-6.064664960629921
11
8.9513484645669283
21
-6.0609154330708659
0
LINE
8
BLACK
6
CONTINUOUS
10
9.0263390944881881
20
-6.0609154330708659
11
9.033838188976377
21
-6.0609154330708659
0
LINE
8
BLACK
6
CONTINUOUS
10
9.033838188976377
20
-6.0609154330708659
11
9.0413372440944872
21
-6.064664960629921
0
LINE
8
BLACK
6
CONTINUOUS
10
9.0413372440944872
20
-6.064664960629921
11
9.0450867716535424
21
-6.0684144881889761
0
LINE
8
BLACK
6
CONTINUOUS
10
9.0450867716535424
20
-6.0684144881889761
11
9.0488362992125975
21
-6.0759135433070863
0
LINE
8
BLACK
6
CONTINUOUS
10
9.0488362992125975
20
-6.0759135433070863
11
9.0525858267716526
21
-6.0909116535433068
0
LINE
8
BLACK
6
CONTINUOUS
10
9.0525858267716526
20
-6.0909116535433068
11
9.0525858267716526
21
-6.1096593307086611
0
LINE
8
BLACK
6
CONTINUOUS
10
9.0525858267716526
20
-6.1096593307086611
11
9.0488362992125975
21
-6.1246574409448815
0
LINE
8
BLACK
6
CONTINUOUS
10
9.0488362992125975
20
-6.1246574409448815
11
9.0450867716535424
21
-6.1321564960629917
0
LINE
8
BLACK
6
CONTINUOUS
10
9.0450867716535424
20
-6.1321564960629917
11
9.0413372440944872
21
-6.1359060629921256
0
LINE
8
BLACK
6
CONTINUOUS
10
9.0413372440944872
20
-6.1359060629921256
11
9.033838188976377
21
-6.1396555905511807
0
LINE
8
BLACK
6
CONTINUOUS
10
9.033838188976377
20
-6.1396555905511807
11
9.0263390944881881
21
-6.1396555905511807
0
LINE
8
BLACK
6
CONTINUOUS
10
9.0263390944881881
20
-6.1396555905511807
11
9.0188400393700778
21
-6.1359060629921256
0
LINE
8
BLACK
6
CONTINUOUS
10
9.0188400393700778
20
-6.1359060629921256
11
9.0150905118110227
21
-6.1321564960629917
0
LINE
8
BLACK
6
CONTINUOUS
10
9.0150905118110227
20
-6.1321564960629917
11
9.0113409842519676
21
-6.1246574409448815
0
LINE
8
BLACK
6
CONTINUOUS
10
9.0113409842519676
20
-6.1246574409448815
11
9.0075914566929125
21
-6.1096593307086611
0
LINE
8
BLACK
6
CONTINUOUS
10
9.0075914566929125
20
-6.1096593307086611
11
9.0075914566929125
21
-6.0909116535433068
0
LINE
8
BLACK
6
CONTINUOUS
10
9.0075914566929125
20
-6.0909116535433068
11
9.0113409842519676
21
-6.0759135433070863
0
LINE
8
BLACK
6
CONTINUOUS
10
9.0113409842519676
20
-6.0759135433070863
11
9.0150905118110227
21
-6.0684144881889761
0
LINE
8
BLACK
6
CONTINUOUS
10
9.0150905118110227
20
-6.0684144881889761
11
9.0188400393700778
21
-6.064664960629921
0
LINE
8
BLACK
6
CONTINUOUS
10
9.0188400393700778
20
-6.064664960629921
11
9.0263390944881881
21
-6.0609154330708659
0
LINE
8
BLACK
6
CONTINUOUS
10
9.0863316141732273
20
-6.1396555905511807
11
9.0863316141732273
21
-6.0871621259842517
0
LINE
8
BLACK
6
CONTINUOUS
10
9.0863316141732273
20
-6.0946611811023619
11
9.0900811417322824
21
-6.0909116535433068
0
LINE
8
BLACK
6
CONTINUOUS
10
9.0900811417322824
20
-6.0909116535433068
11
9.0975801968503927
21
-6.0871621259842517
0
LINE
8
BLACK
6
CONTINUOUS
10
9.0975801968503927
20
-6.0871621259842517
11
9.1088288188976367
21
-6.0871621259842517
0
LINE
8
BLACK
6
CONTINUOUS
10
9.1088288188976367
20
-6.0871621259842517
11
9.116327874015747
21
-6.0909116535433068
0
LINE
8
BLACK
6
CONTINUOUS
10
9.116327874015747
20
-6.0909116535433068
11
9.1200774015748021
21
-6.0984107480314957
0
LINE
8
BLACK
6
CONTINUOUS
10
9.1200774015748021
20
-6.0984107480314957
11
9.1200774015748021
21
-6.1396555905511807
0
LINE
8
BLACK
6
CONTINUOUS
10
9.1200774015748021
20
-6.0984107480314957
11
9.1238269291338572
21
-6.0909116535433068
0
LINE
8
BLACK
6
CONTINUOUS
10
9.1238269291338572
20
-6.0909116535433068
11
9.1313259842519692
21
-6.0871621259842517
0
LINE
8
BLACK
6
CONTINUOUS
10
9.1313259842519692
20
-6.0871621259842517
11
9.1425745669291345
21
-6.0871621259842517
0
LINE
8
BLACK
6
CONTINUOUS
10
9.1425745669291345
20
-6.0871621259842517
11
9.1500736614173235
21
-6.0909116535433068
0
LINE
8
BLACK
6
CONTINUOUS
10
9.1500736614173235
20
-6.0909116535433068
11
9.1538231889763786
21
-6.0984107480314957
0
LINE
8
BLACK
6
CONTINUOUS
10
9.1538231889763786
20
-6.0984107480314957
11
9.1538231889763786
21
-6.1396555905511807
0
LINE
8
BLACK
6
CONTINUOUS
10
9.1913185039370084
20
-6.1396555905511807
11
9.1913185039370084
21
-6.0871621259842517
0
LINE
8
BLACK
6
CONTINUOUS
10
9.1913185039370084
20
-6.0946611811023619
11
9.1950680314960636
21
-6.0909116535433068
0
LINE
8
BLACK
6
CONTINUOUS
10
9.1950680314960636
20
-6.0909116535433068
11
9.2025670866141738
21
-6.0871621259842517
0
LINE
8
BLACK
6
CONTINUOUS
10
9.2025670866141738
20
-6.0871621259842517
11
9.2138157086614179
21
-6.0871621259842517
0
LINE
8
BLACK
6
CONTINUOUS
10
9.2138157086614179
20
-6.0871621259842517
11
9.2213147637795281
21
-6.0909116535433068
0
LINE
8
BLACK
6
CONTINUOUS
10
9.2213147637795281
20
-6.0909116535433068
11
9.2250642913385832
21
-6.0984107480314957
0
LINE
8
BLACK
6
CONTINUOUS
10
9.2250642913385832
20
-6.0984107480314957
11
9.2250642913385832
21
-6.1396555905511807
0
LINE
8
BLACK
6
CONTINUOUS
10
9.2250642913385832
20
-6.0984107480314957
11
9.2288138188976383
21
-6.0909116535433068
0
LINE
8
BLACK
6
CONTINUOUS
10
9.2288138188976383
20
-6.0909116535433068
11
9.2363128740157485
21
-6.0871621259842517
0
LINE
8
BLACK
6
CONTINUOUS
10
9.2363128740157485
20
-6.0871621259842517
11
9.2475614566929139
21
-6.0871621259842517
0
LINE
8
BLACK
6
CONTINUOUS
10
9.2475614566929139
20
-6.0871621259842517
11
9.2550605511811028
21
-6.0909116535433068
0
LINE
8
BLACK
6
CONTINUOUS
10
9.2550605511811028
20
-6.0909116535433068
11
9.2588100787401579
21
-6.0984107480314957
0
LINE
8
BLACK
6
CONTINUOUS
10
9.2588100787401579
20
-6.0984107480314957
11
9.2588100787401579
21
-6.1396555905511807
0
LINE
8
BLACK
6
CONTINUOUS
10
9.4125408661417325
20
-6.0571659055118108
11
9.3450493307086617
21
-6.1584032283464563
0
LINE
8
BLACK
6
CONTINUOUS
10
9.5137782283464567
20
-6.0609154330708659
11
9.5212773228346457
21
-6.0609154330708659
0
LINE
8
BLACK
6
CONTINUOUS
10
9.5212773228346457
20
-6.0609154330708659
11
9.5287763779527559
21
-6.064664960629921
0
LINE
8
BLACK
6
CONTINUOUS
10
9.5287763779527559
20
-6.064664960629921
11
9.532525905511811
21
-6.0684144881889761
0
LINE
8
BLACK
6
CONTINUOUS
10
9.532525905511811
20
-6.0684144881889761
11
9.5362754330708661
21
-6.0759135433070863
0
LINE
8
BLACK
6
CONTINUOUS
10
9.5362754330708661
20
-6.0759135433070863
11
9.5400249606299212
21
-6.0909116535433068
0
LINE
8
BLACK
6
CONTINUOUS
10
9.5400249606299212
20
-6.0909116535433068
11
9.5400249606299212
21
-6.1096593307086611
0
LINE
8
BLACK
6
CONTINUOUS
10
9.5400249606299212
20
-6.1096593307086611
11
9.5362754330708661
21
-6.1246574409448815
0
LINE
8
BLACK
6
CONTINUOUS
10
9.5362754330708661
20
-6.1246574409448815
11
9.532525905511811
21
-6.1321564960629917
0
LINE
8
BLACK
6
CONTINUOUS
10
9.532525905511811
20
-6.1321564960629917
11
9.5287763779527559
21
-6.1359060629921256
0
LINE
8
BLACK
6
CONTINUOUS
10
9.5287763779527559
20
-6.1359060629921256
11
9.5212773228346457
21
-6.1396555905511807
0
LINE
8
BLACK
6
CONTINUOUS
10
9.5212773228346457
20
-6.1396555905511807
11
9.5137782283464567
21
-6.1396555905511807
0
LINE
8
BLACK
6
CONTINUOUS
10
9.5137782283464567
20
-6.1396555905511807
11
9.5062791732283465
21
-6.1359060629921256
0
LINE
8
BLACK
6
CONTINUOUS
10
9.5062791732283465
20
-6.1359060629921256
11
9.5025296456692914
21
-6.1321564960629917
0
LINE
8
BLACK
6
CONTINUOUS
10
9.5025296456692914
20
-6.1321564960629917
11
9.4987801181102363
21
-6.1246574409448815
0
LINE
8
BLACK
6
CONTINUOUS
10
9.4987801181102363
20
-6.1246574409448815
11
9.4950305905511811
21
-6.1096593307086611
0
LINE
8
BLACK
6
CONTINUOUS
10
9.4950305905511811
20
-6.1096593307086611
11
9.4950305905511811
21
-6.0909116535433068
0
LINE
8
BLACK
6
CONTINUOUS
10
9.4950305905511811
20
-6.0909116535433068
11
9.4987801181102363
21
-6.0759135433070863
0
LINE
8
BLACK
6
CONTINUOUS
10
9.4987801181102363
20
-6.0759135433070863
11
9.5025296456692914
21
-6.0684144881889761
0
LINE
8
BLACK
6
CONTINUOUS
10
9.5025296456692914
20
-6.0684144881889761
11
9.5062791732283465
21
-6.064664960629921
0
LINE
8
BLACK
6
CONTINUOUS
10
9.5062791732283465
20
-6.064664960629921
11
9.5137782283464567
21
-6.0609154330708659
0
LINE
8
BLACK
6
CONTINUOUS
10
9.573770748031496
20
-6.1321564960629917
11
9.5775202755905511
21
-6.1359060629921256
0
LINE
8
BLACK
6
CONTINUOUS
10
9.5775202755905511
20
-6.1359060629921256
11
9.573770748031496
21
-6.1396555905511807
0
LINE
8
BLACK
6
CONTINUOUS
10
9.573770748031496
20
-6.1396555905511807
11
9.5700212204724409
21
-6.1359060629921256
0
LINE
8
BLACK
6
CONTINUOUS
10
9.5700212204724409
20
-6.1359060629921256
11
9.573770748031496
21
-6.1321564960629917
0
LINE
8
BLACK
6
CONTINUOUS
10
9.573770748031496
20
-6.1321564960629917
11
9.573770748031496
21
-6.1396555905511807
0
LINE
8
BLACK
6
CONTINUOUS
10
9.6525109055118108
20
-6.1396555905511807
11
9.6075165354330707
21
-6.1396555905511807
0
LINE
8
BLACK
6
CONTINUOUS
10
9.6300137007874014
20
-6.1396555905511807
11
9.6300137007874014
21
-6.0609154330708659
0
LINE
8
BLACK
6
CONTINUOUS
10
9.6300137007874014
20
-6.0609154330708659
11
9.6225146456692912
21
-6.0721640157480312
0
LINE
8
BLACK
6
CONTINUOUS
10
9.6225146456692912
20
-6.0721640157480312
11
9.6150155905511809
21
-6.0796630708661414
0
LINE
8
BLACK
6
CONTINUOUS
10
9.6150155905511809
20
-6.0796630708661414
11
9.6075165354330707
21
-6.0834125984251965
0
LINE
8
BLACK
6
CONTINUOUS
10
9.6787576377952753
20
-6.0609154330708659
11
9.7275015354330705
21
-6.0609154330708659
0
LINE
8
BLACK
6
CONTINUOUS
10
9.7275015354330705
20
-6.0609154330708659
11
9.701254803149606
21
-6.0909116535433068
0
LINE
8
BLACK
6
CONTINUOUS
10
9.701254803149606
20
-6.0909116535433068
11
9.7125034251968501
21
-6.0909116535433068
0
LINE
8
BLACK
6
CONTINUOUS
10
9.7125034251968501
20
-6.0909116535433068
11
9.7200024803149603
21
-6.0946611811023619
0
LINE
8
BLACK
6
CONTINUOUS
10
9.7200024803149603
20
-6.0946611811023619
11
9.7237520078740154
21
-6.0984107480314957
0
LINE
8
BLACK
6
CONTINUOUS
10
9.7237520078740154
20
-6.0984107480314957
11
9.7275015354330705
21
-6.105909803149606
0
LINE
8
BLACK
6
CONTINUOUS
10
9.7275015354330705
20
-6.105909803149606
11
9.7275015354330705
21
-6.1246574409448815
0
LINE
8
BLACK
6
CONTINUOUS
10
9.7275015354330705
20
-6.1246574409448815
11
9.7237520078740154
21
-6.1321564960629917
0
LINE
8
BLACK
6
CONTINUOUS
10
9.7237520078740154
20
-6.1321564960629917
11
9.7200024803149603
21
-6.1359060629921256
0
LINE
8
BLACK
6
CONTINUOUS
10
9.7200024803149603
20
-6.1359060629921256
11
9.7125034251968501
21
-6.1396555905511807
0
LINE
8
BLACK
6
CONTINUOUS
10
9.7125034251968501
20
-6.1396555905511807
11
9.6900062204724406
21
-6.1396555905511807
0
LINE
8
BLACK
6
CONTINUOUS
10
9.6900062204724406
20
-6.1396555905511807
11
9.6825071653543304
21
-6.1359060629921256
0
LINE
8
BLACK
6
CONTINUOUS
10
9.6825071653543304
20
-6.1359060629921256
11
9.6787576377952753
21
-6.1321564960629917
0
LINE
8
BLACK
6
CONTINUOUS
10
9.753748267716535
20
-6.0609154330708659
11
9.8024921653543302
21
-6.0609154330708659
0
LINE
8
BLACK
6
CONTINUOUS
10
9.8024921653543302
20
-6.0609154330708659
11
9.7762454330708657
21
-6.0909116535433068
0
LINE
8
BLACK
6
CONTINUOUS
10
9.7762454330708657
20
-6.0909116535433068
11
9.7874940551181098
21
-6.0909116535433068
0
LINE
8
BLACK
6
CONTINUOUS
10
9.7874940551181098
20
-6.0909116535433068
11
9.79499311023622
21
-6.0946611811023619
0
LINE
8
BLACK
6
CONTINUOUS
10
9.79499311023622
20
-6.0946611811023619
11
9.7987426377952751
21
-6.0984107480314957
0
LINE
8
BLACK
6
CONTINUOUS
10
9.7987426377952751
20
-6.0984107480314957
11
9.8024921653543302
21
-6.105909803149606
0
LINE
8
BLACK
6
CONTINUOUS
10
9.8024921653543302
20
-6.105909803149606
11
9.8024921653543302
21
-6.1246574409448815
0
LINE
8
BLACK
6
CONTINUOUS
10
9.8024921653543302
20
-6.1246574409448815
11
9.7987426377952751
21
-6.1321564960629917
0
LINE
8
BLACK
6
CONTINUOUS
10
9.7987426377952751
20
-6.1321564960629917
11
9.79499311023622
21
-6.1359060629921256
0
LINE
8
BLACK
6
CONTINUOUS
10
9.79499311023622
20
-6.1359060629921256
11
9.7874940551181098
21
-6.1396555905511807
0
LINE
8
BLACK
6
CONTINUOUS
10
9.7874940551181098
20
-6.1396555905511807
11
9.7649968503937004
21
-6.1396555905511807
0
LINE
8
BLACK
6
CONTINUOUS
10
9.7649968503937004
20
-6.1396555905511807
11
9.7574977952755901
21
-6.1359060629921256
0
LINE
8
BLACK
6
CONTINUOUS
10
9.7574977952755901
20
-6.1359060629921256
11
9.753748267716535
21
-6.1321564960629917
0
LINE
8
BLACK
6
CONTINUOUS
10
9.8399874803149601
20
-6.1396555905511807
11
9.8549855905511805
21
-6.1396555905511807
0
LINE
8
BLACK
6
CONTINUOUS
10
9.8549855905511805
20
-6.1396555905511807
11
9.8624846850393695
21
-6.1359060629921256
0
LINE
8
BLACK
6
CONTINUOUS
10
9.8624846850393695
20
-6.1359060629921256
11
9.8662342125984246
21
-6.1321564960629917
0
LINE
8
BLACK
6
CONTINUOUS
10
9.8662342125984246
20
-6.1321564960629917
11
9.8737332677165348
21
-6.1209079133858264
0
LINE
8
BLACK
6
CONTINUOUS
10
9.8737332677165348
20
-6.1209079133858264
11
9.8774827952755899
21
-6.105909803149606
0
LINE
8
BLACK
6
CONTINUOUS
10
9.8774827952755899
20
-6.105909803149606
11
9.8774827952755899
21
-6.0759135433070863
0
LINE
8
BLACK
6
CONTINUOUS
10
9.8774827952755899
20
-6.0759135433070863
11
9.8737332677165348
21
-6.0684144881889761
0
LINE
8
BLACK
6
CONTINUOUS
10
9.8737332677165348
20
-6.0684144881889761
11
9.8699837401574797
21
-6.064664960629921
0
LINE
8
BLACK
6
CONTINUOUS
10
9.8699837401574797
20
-6.064664960629921
11
9.8624846850393695
21
-6.0609154330708659
0
LINE
8
BLACK
6
CONTINUOUS
10
9.8624846850393695
20
-6.0609154330708659
11
9.8474865354330703
21
-6.0609154330708659
0
LINE
8
BLACK
6
CONTINUOUS
10
9.8474865354330703
20
-6.0609154330708659
11
9.8399874803149601
21
-6.064664960629921
0
LINE
8
BLACK
6
CONTINUOUS
10
9.8399874803149601
20
-6.064664960629921
11
9.836237952755905
21
-6.0684144881889761
0
LINE
8
BLACK
6
CONTINUOUS
10
9.836237952755905
20
-6.0684144881889761
11
9.8324884251968498
21
-6.0759135433070863
0
LINE
8
BLACK
6
CONTINUOUS
10
9.8324884251968498
20
-6.0759135433070863
11
9.8324884251968498
21
-6.0946611811023619
0
LINE
8
BLACK
6
CONTINUOUS
10
9.8324884251968498
20
-6.0946611811023619
11
9.836237952755905
21
-6.1021602755905509
0
LINE
8
BLACK
6
CONTINUOUS
10
9.836237952755905
20
-6.1021602755905509
11
9.8399874803149601
21
-6.105909803149606
0
LINE
8
BLACK
6
CONTINUOUS
10
9.8399874803149601
20
-6.105909803149606
11
9.8474865354330703
21
-6.1096593307086611
0
LINE
8
BLACK
6
CONTINUOUS
10
9.8474865354330703
20
-6.1096593307086611
11
9.8624846850393695
21
-6.1096593307086611
0
LINE
8
BLACK
6
CONTINUOUS
10
9.8624846850393695
20
-6.1096593307086611
11
9.8699837401574797
21
-6.105909803149606
0
LINE
8
BLACK
6
CONTINUOUS
10
9.8699837401574797
20
-6.105909803149606
11
9.8737332677165348
21
-6.1021602755905509
0
LINE
8
BLACK
6
CONTINUOUS
10
9.8737332677165348
20
-6.1021602755905509
11
9.8774827952755899
21
-6.0946611811023619
0
LINE
8
BLACK
6
CONTINUOUS
10
9.9074790551181096
20
-6.0609154330708659
11
9.9074790551181096
21
-6.0759135433070863
0
LINE
8
BLACK
6
CONTINUOUS
10
9.9374753149606292
20
-6.0609154330708659
11
9.9374753149606292
21
-6.0759135433070863
0
LINE
8
BLACK
6
CONTINUOUS
10
10.0537108267716526
20
-6.1696518110236216
11
10.0499612598425188
21
-6.1659022834645665
0
LINE
8
BLACK
6
CONTINUOUS
10
10.0499612598425188
20
-6.1659022834645665
11
10.0424622047244085
21
-6.1546537007874011
0
LINE
8
BLACK
6
CONTINUOUS
10
10.0424622047244085
20
-6.1546537007874011
11
10.0387126771653534
21
-6.1471546456692909
0
LINE
8
BLACK
6
CONTINUOUS
10
10.0387126771653534
20
-6.1471546456692909
11
10.0349631496062983
21
-6.1359060629921256
0
LINE
8
BLACK
6
CONTINUOUS
10
10.0349631496062983
20
-6.1359060629921256
11
10.0312136220472432
21
-6.1171583858267713
0
LINE
8
BLACK
6
CONTINUOUS
10
10.0312136220472432
20
-6.1171583858267713
11
10.0312136220472432
21
-6.1021602755905509
0
LINE
8
BLACK
6
CONTINUOUS
10
10.0312136220472432
20
-6.1021602755905509
11
10.0349631496062983
21
-6.0834125984251965
0
LINE
8
BLACK
6
CONTINUOUS
10
10.0349631496062983
20
-6.0834125984251965
11
10.0387126771653534
21
-6.0721640157480312
0
LINE
8
BLACK
6
CONTINUOUS
10
10.0387126771653534
20
-6.0721640157480312
11
10.0424622047244085
21
-6.064664960629921
0
LINE
8
BLACK
6
CONTINUOUS
10
10.0424622047244085
20
-6.064664960629921
11
10.0499612598425188
21
-6.0534163385826769
0
LINE
8
BLACK
6
CONTINUOUS
10
10.0499612598425188
20
-6.0534163385826769
11
10.0537108267716526
21
-6.0496668110236218
0
LINE
8
BLACK
6
CONTINUOUS
10
10.0799575196850384
20
-6.0684144881889761
11
10.0837070472440935
21
-6.064664960629921
0
LINE
8
BLACK
6
CONTINUOUS
10
10.0837070472440935
20
-6.064664960629921
11
10.0912061023622037
21
-6.0609154330708659
0
LINE
8
BLACK
6
CONTINUOUS
10
10.0912061023622037
20
-6.0609154330708659
11
10.109953779527558
21
-6.0609154330708659
0
LINE
8
BLACK
6
CONTINUOUS
10
10.109953779527558
20
-6.0609154330708659
11
10.1174528346456682
21
-6.064664960629921
0
LINE
8
BLACK
6
CONTINUOUS
10
10.1174528346456682
20
-6.064664960629921
11
10.1212023622047234
21
-6.0684144881889761
0
LINE
8
BLACK
6
CONTINUOUS
10
10.1212023622047234
20
-6.0684144881889761
11
10.1249518897637785
21
-6.0759135433070863
0
LINE
8
BLACK
6
CONTINUOUS
10
10.1249518897637785
20
-6.0759135433070863
11
10.1249518897637785
21
-6.0834125984251965
0
LINE
8
BLACK
6
CONTINUOUS
10
10.1249518897637785
20
-6.0834125984251965
11
10.1212023622047234
21
-6.0946611811023619
0
LINE
8
BLACK
6
CONTINUOUS
10
10.1212023622047234
20
-6.0946611811023619
11
10.0762079921259833
21
-6.1396555905511807
0
LINE
8
BLACK
6
CONTINUOUS
10
10.0762079921259833
20
-6.1396555905511807
11
10.1249518897637785
21
-6.1396555905511807
0
LINE
8
BLACK
6
CONTINUOUS
10
10.2186901968503943
20
-6.1396555905511807
11
10.2186901968503943
21
-6.0609154330708659
0
LINE
8
BLACK
6
CONTINUOUS
10
10.252435984251969
20
-6.1396555905511807
11
10.252435984251969
21
-6.0984107480314957
0
LINE
8
BLACK
6
CONTINUOUS
10
10.252435984251969
20
-6.0984107480314957
11
10.2486864566929139
21
-6.0909116535433068
0
LINE
8
BLACK
6
CONTINUOUS
10
10.2486864566929139
20
-6.0909116535433068
11
10.2411874015748037
21
-6.0871621259842517
0
LINE
8
BLACK
6
CONTINUOUS
10
10.2411874015748037
20
-6.0871621259842517
11
10.2299387795275596
21
-6.0871621259842517
0
LINE
8
BLACK
6
CONTINUOUS
10
10.2299387795275596
20
-6.0871621259842517
11
10.2224397244094494
21
-6.0909116535433068
0
LINE
8
BLACK
6
CONTINUOUS
10
10.2224397244094494
20
-6.0909116535433068
11
10.2186901968503943
21
-6.0946611811023619
0
LINE
8
BLACK
6
CONTINUOUS
10
10.3011798818897642
20
-6.1396555905511807
11
10.293680826771654
21
-6.1359060629921256
0
LINE
8
BLACK
6
CONTINUOUS
10
10.293680826771654
20
-6.1359060629921256
11
10.2899312992125989
21
-6.1321564960629917
0
LINE
8
BLACK
6
CONTINUOUS
10
10.2899312992125989
20
-6.1321564960629917
11
10.2861817716535437
21
-6.1246574409448815
0
LINE
8
BLACK
6
CONTINUOUS
10
10.2861817716535437
20
-6.1246574409448815
11
10.2861817716535437
21
-6.1021602755905509
0
LINE
8
BLACK
6
CONTINUOUS
10
10.2861817716535437
20
-6.1021602755905509
11
10.2899312992125989
21
-6.0946611811023619
0
LINE
8
BLACK
6
CONTINUOUS
10
10.2899312992125989
20
-6.0946611811023619
11
10.293680826771654
21
-6.0909116535433068
0
LINE
8
BLACK
6
CONTINUOUS
10
10.293680826771654
20
-6.0909116535433068
11
10.3011798818897642
21
-6.0871621259842517
0
LINE
8
BLACK
6
CONTINUOUS
10
10.3011798818897642
20
-6.0871621259842517
11
10.3124285039370083
21
-6.0871621259842517
0
LINE
8
BLACK
6
CONTINUOUS
10
10.3124285039370083
20
-6.0871621259842517
11
10.3199275590551185
21
-6.0909116535433068
0
LINE
8
BLACK
6
CONTINUOUS
10
10.3199275590551185
20
-6.0909116535433068
11
10.3236770866141736
21
-6.0946611811023619
0
LINE
8
BLACK
6
CONTINUOUS
10
10.3236770866141736
20
-6.0946611811023619
11
10.3274266141732287
21
-6.1021602755905509
0
LINE
8
BLACK
6
CONTINUOUS
10
10.3274266141732287
20
-6.1021602755905509
11
10.3274266141732287
21
-6.1246574409448815
0
LINE
8
BLACK
6
CONTINUOUS
10
10.3274266141732287
20
-6.1246574409448815
11
10.3236770866141736
21
-6.1321564960629917
0
LINE
8
BLACK
6
CONTINUOUS
10
10.3236770866141736
20
-6.1321564960629917
11
10.3199275590551185
21
-6.1359060629921256
0
LINE
8
BLACK
6
CONTINUOUS
10
10.3199275590551185
20
-6.1359060629921256
11
10.3124285039370083
21
-6.1396555905511807
0
LINE
8
BLACK
6
CONTINUOUS
10
10.3124285039370083
20
-6.1396555905511807
11
10.3011798818897642
21
-6.1396555905511807
0
LINE
8
BLACK
6
CONTINUOUS
10
10.3724209842519688
20
-6.1396555905511807
11
10.3649219291338586
21
-6.1359060629921256
0
LINE
8
BLACK
6
CONTINUOUS
10
10.3649219291338586
20
-6.1359060629921256
11
10.3611724015748035
21
-6.1284069685039366
0
LINE
8
BLACK
6
CONTINUOUS
10
10.3611724015748035
20
-6.1284069685039366
11
10.3611724015748035
21
-6.0609154330708659
0
LINE
8
BLACK
6
CONTINUOUS
10
10.4324135039370081
20
-6.1359060629921256
11
10.4249144488188978
21
-6.1396555905511807
0
LINE
8
BLACK
6
CONTINUOUS
10
10.4249144488188978
20
-6.1396555905511807
11
10.4099162992125986
21
-6.1396555905511807
0
LINE
8
BLACK
6
CONTINUOUS
10
10.4099162992125986
20
-6.1396555905511807
11
10.4024172440944884
21
-6.1359060629921256
0
LINE
8
BLACK
6
CONTINUOUS
10
10.4024172440944884
20
-6.1359060629921256
11
10.3986677165354333
21
-6.1284069685039366
0
LINE
8
BLACK
6
CONTINUOUS
10
10.3986677165354333
20
-6.1284069685039366
11
10.3986677165354333
21
-6.0984107480314957
0
LINE
8
BLACK
6
CONTINUOUS
10
10.3986677165354333
20
-6.0984107480314957
11
10.4024172440944884
21
-6.0909116535433068
0
LINE
8
BLACK
6
CONTINUOUS
10
10.4024172440944884
20
-6.0909116535433068
11
10.4099162992125986
21
-6.0871621259842517
0
LINE
8
BLACK
6
CONTINUOUS
10
10.4099162992125986
20
-6.0871621259842517
11
10.4249144488188978
21
-6.0871621259842517
0
LINE
8
BLACK
6
CONTINUOUS
10
10.4249144488188978
20
-6.0871621259842517
11
10.4324135039370081
21
-6.0909116535433068
0
LINE
8
BLACK
6
CONTINUOUS
10
10.4324135039370081
20
-6.0909116535433068
11
10.4361630314960632
21
-6.0984107480314957
0
LINE
8
BLACK
6
CONTINUOUS
10
10.4361630314960632
20
-6.0984107480314957
11
10.4361630314960632
21
-6.105909803149606
0
LINE
8
BLACK
6
CONTINUOUS
10
10.4361630314960632
20
-6.105909803149606
11
10.3986677165354333
21
-6.1134088582677162
0
LINE
8
BLACK
6
CONTINUOUS
10
10.4661592913385828
20
-6.1359060629921256
11
10.473658346456693
21
-6.1396555905511807
0
LINE
8
BLACK
6
CONTINUOUS
10
10.473658346456693
20
-6.1396555905511807
11
10.4886564566929135
21
-6.1396555905511807
0
LINE
8
BLACK
6
CONTINUOUS
10
10.4886564566929135
20
-6.1396555905511807
11
10.4961555511811024
21
-6.1359060629921256
0
LINE
8
BLACK
6
CONTINUOUS
10
10.4961555511811024
20
-6.1359060629921256
11
10.4999050787401575
21
-6.1284069685039366
0
LINE
8
BLACK
6
CONTINUOUS
10
10.4999050787401575
20
-6.1284069685039366
11
10.4999050787401575
21
-6.1246574409448815
0
LINE
8
BLACK
6
CONTINUOUS
10
10.4999050787401575
20
-6.1246574409448815
11
10.4961555511811024
21
-6.1171583858267713
0
LINE
8
BLACK
6
CONTINUOUS
10
10.4961555511811024
20
-6.1171583858267713
11
10.4886564566929135
21
-6.1134088582677162
0
LINE
8
BLACK
6
CONTINUOUS
10
10.4886564566929135
20
-6.1134088582677162
11
10.4774078740157481
21
-6.1134088582677162
0
LINE
8
BLACK
6
CONTINUOUS
10
10.4774078740157481
20
-6.1134088582677162
11
10.4699088188976379
21
-6.1096593307086611
0
LINE
8
BLACK
6
CONTINUOUS
10
10.4699088188976379
20
-6.1096593307086611
11
10.4661592913385828
21
-6.1021602755905509
0
LINE
8
BLACK
6
CONTINUOUS
10
10.4661592913385828
20
-6.1021602755905509
11
10.4661592913385828
21
-6.0984107480314957
0
LINE
8
BLACK
6
CONTINUOUS
10
10.4661592913385828
20
-6.0984107480314957
11
10.4699088188976379
21
-6.0909116535433068
0
LINE
8
BLACK
6
CONTINUOUS
10
10.4699088188976379
20
-6.0909116535433068
11
10.4774078740157481
21
-6.0871621259842517
0
LINE
8
BLACK
6
CONTINUOUS
10
10.4774078740157481
20
-6.0871621259842517
11
10.4886564566929135
21
-6.0871621259842517
0
LINE
8
BLACK
6
CONTINUOUS
10
10.4886564566929135
20
-6.0871621259842517
11
10.4961555511811024
21
-6.0909116535433068
0
LINE
8
BLACK
6
CONTINUOUS
10
10.5261518110236221
20
-6.1696518110236216
11
10.5299013385826772
21
-6.1659022834645665
0
LINE
8
BLACK
6
CONTINUOUS
10
10.5299013385826772
20
-6.1659022834645665
11
10.5374003937007874
21
-6.1546537007874011
0
LINE
8
BLACK
6
CONTINUOUS
10
10.5374003937007874
20
-6.1546537007874011
11
10.5411499212598425
21
-6.1471546456692909
0
LINE
8
BLACK
6
CONTINUOUS
10
10.5411499212598425
20
-6.1471546456692909
11
10.5448994488188976
21
-6.1359060629921256
0
LINE
8
BLACK
6
CONTINUOUS
10
10.5448994488188976
20
-6.1359060629921256
11
10.5486489763779527
21
-6.1171583858267713
0
LINE
8
BLACK
6
CONTINUOUS
10
10.5486489763779527
20
-6.1171583858267713
11
10.5486489763779527
21
-6.1021602755905509
0
LINE
8
BLACK
6
CONTINUOUS
10
10.5486489763779527
20
-6.1021602755905509
11
10.5448994488188976
21
-6.0834125984251965
0
LINE
8
BLACK
6
CONTINUOUS
10
10.5448994488188976
20
-6.0834125984251965
11
10.5411499212598425
21
-6.0721640157480312
0
LINE
8
BLACK
6
CONTINUOUS
10
10.5411499212598425
20
-6.0721640157480312
11
10.5374003937007874
21
-6.064664960629921
0
LINE
8
BLACK
6
CONTINUOUS
10
10.5374003937007874
20
-6.064664960629921
11
10.5299013385826772
21
-6.0534163385826769
0
LINE
8
BLACK
6
CONTINUOUS
10
10.5299013385826772
20
-6.0534163385826769
11
10.5261518110236221
21
-6.0496668110236218
0
LINE
8
BLACK
6
CONTINUOUS
10
10.6686340157480313
20
-6.1696518110236216
11
10.6648844488188974
21
-6.1659022834645665
0
LINE
8
BLACK
6
CONTINUOUS
10
10.6648844488188974
20
-6.1659022834645665
11
10.6573853937007872
21
-6.1546537007874011
0
LINE
8
BLACK
6
CONTINUOUS
10
10.6573853937007872
20
-6.1546537007874011
11
10.6536358661417321
21
-6.1471546456692909
0
LINE
8
BLACK
6
CONTINUOUS
10
10.6536358661417321
20
-6.1471546456692909
11
10.649886338582677
21
-6.1359060629921256
0
LINE
8
BLACK
6
CONTINUOUS
10
10.649886338582677
20
-6.1359060629921256
11
10.6461368110236219
21
-6.1171583858267713
0
LINE
8
BLACK
6
CONTINUOUS
10
10.6461368110236219
20
-6.1171583858267713
11
10.6461368110236219
21
-6.1021602755905509
0
LINE
8
BLACK
6
CONTINUOUS
10
10.6461368110236219
20
-6.1021602755905509
11
10.649886338582677
21
-6.0834125984251965
0
LINE
8
BLACK
6
CONTINUOUS
10
10.649886338582677
20
-6.0834125984251965
11
10.6536358661417321
21
-6.0721640157480312
0
LINE
8
BLACK
6
CONTINUOUS
10
10.6536358661417321
20
-6.0721640157480312
11
10.6573853937007872
21
-6.064664960629921
0
LINE
8
BLACK
6
CONTINUOUS
10
10.6573853937007872
20
-6.064664960629921
11
10.6648844488188974
21
-6.0534163385826769
0
LINE
8
BLACK
6
CONTINUOUS
10
10.6648844488188974
20
-6.0534163385826769
11
10.6686340157480313
21
-6.0496668110236218
0
LINE
8
BLACK
6
CONTINUOUS
10
10.6986302362204722
20
-6.0871621259842517
11
10.6986302362204722
21
-6.1396555905511807
0
LINE
8
BLACK
6
CONTINUOUS
10
10.6986302362204722
20
-6.0946611811023619
11
10.7023797637795273
21
-6.0909116535433068
0
LINE
8
BLACK
6
CONTINUOUS
10
10.7023797637795273
20
-6.0909116535433068
11
10.7098788188976375
21
-6.0871621259842517
0
LINE
8
BLACK
6
CONTINUOUS
10
10.7098788188976375
20
-6.0871621259842517
11
10.7211274409448816
21
-6.0871621259842517
0
LINE
8
BLACK
6
CONTINUOUS
10
10.7211274409448816
20
-6.0871621259842517
11
10.7286264960629918
21
-6.0909116535433068
0
LINE
8
BLACK
6
CONTINUOUS
10
10.7286264960629918
20
-6.0909116535433068
11
10.7323760236220469
21
-6.0984107480314957
0
LINE
8
BLACK
6
CONTINUOUS
10
10.7323760236220469
20
-6.0984107480314957
11
10.7323760236220469
21
-6.1396555905511807
0
LINE
8
BLACK
6
CONTINUOUS
10
10.7811199212598421
20
-6.1396555905511807
11
10.7736208661417319
21
-6.1359060629921256
0
LINE
8
BLACK
6
CONTINUOUS
10
10.7736208661417319
20
-6.1359060629921256
11
10.7698713385826768
21
-6.1321564960629917
0
LINE
8
BLACK
6
CONTINUOUS
10
10.7698713385826768
20
-6.1321564960629917
11
10.7661218110236216
21
-6.1246574409448815
0
LINE
8
BLACK
6
CONTINUOUS
10
10.7661218110236216
20
-6.1246574409448815
11
10.7661218110236216
21
-6.1021602755905509
0
LINE
8
BLACK
6
CONTINUOUS
10
10.7661218110236216
20
-6.1021602755905509
11
10.7698713385826768
21
-6.0946611811023619
0
LINE
8
BLACK
6
CONTINUOUS
10
10.7698713385826768
20
-6.0946611811023619
11
10.7736208661417319
21
-6.0909116535433068
0
LINE
8
BLACK
6
CONTINUOUS
10
10.7736208661417319
20
-6.0909116535433068
11
10.7811199212598421
21
-6.0871621259842517
0
LINE
8
BLACK
6
CONTINUOUS
10
10.7811199212598421
20
-6.0871621259842517
11
10.7923685433070862
21
-6.0871621259842517
0
LINE
8
BLACK
6
CONTINUOUS
10
10.7923685433070862
20
-6.0871621259842517
11
10.7998675984251964
21
-6.0909116535433068
0
LINE
8
BLACK
6
CONTINUOUS
10
10.7998675984251964
20
-6.0909116535433068
11
10.8036171259842515
21
-6.0946611811023619
0
LINE
8
BLACK
6
CONTINUOUS
10
10.8036171259842515
20
-6.0946611811023619
11
10.8073666535433066
21
-6.1021602755905509
0
LINE
8
BLACK
6
CONTINUOUS
10
10.8073666535433066
20
-6.1021602755905509
11
10.8073666535433066
21
-6.1246574409448815
0
LINE
8
BLACK
6
CONTINUOUS
10
10.8073666535433066
20
-6.1246574409448815
11
10.8036171259842515
21
-6.1321564960629917
0
LINE
8
BLACK
6
CONTINUOUS
10
10.8036171259842515
20
-6.1321564960629917
11
10.7998675984251964
21
-6.1359060629921256
0
LINE
8
BLACK
6
CONTINUOUS
10
10.7998675984251964
20
-6.1359060629921256
11
10.7923685433070862
21
-6.1396555905511807
0
LINE
8
BLACK
6
CONTINUOUS
10
10.7923685433070862
20
-6.1396555905511807
11
10.7811199212598421
21
-6.1396555905511807
0
LINE
8
BLACK
6
CONTINUOUS
10
10.829863858267716
20
-6.0871621259842517
11
10.8598600787401569
21
-6.0871621259842517
0
LINE
8
BLACK
6
CONTINUOUS
10
10.8411124409448814
20
-6.0609154330708659
11
10.8411124409448814
21
-6.1284069685039366
0
LINE
8
BLACK
6
CONTINUOUS
10
10.8411124409448814
20
-6.1284069685039366
11
10.8448619685039365
21
-6.1359060629921256
0
LINE
8
BLACK
6
CONTINUOUS
10
10.8448619685039365
20
-6.1359060629921256
11
10.8523610236220467
21
-6.1396555905511807
0
LINE
8
BLACK
6
CONTINUOUS
10
10.8523610236220467
20
-6.1396555905511807
11
10.8598600787401569
21
-6.1396555905511807
0
LINE
8
BLACK
6
CONTINUOUS
10
10.9460993307086607
20
-6.0871621259842517
11
10.9460993307086607
21
-6.1659022834645665
0
LINE
8
BLACK
6
CONTINUOUS
10
10.9460993307086607
20
-6.0909116535433068
11
10.9535983858267709
21
-6.0871621259842517
0
LINE
8
BLACK
6
CONTINUOUS
10
10.9535983858267709
20
-6.0871621259842517
11
10.9685965354330701
21
-6.0871621259842517
0
LINE
8
BLACK
6
CONTINUOUS
10
10.9685965354330701
20
-6.0871621259842517
11
10.9760955905511803
21
-6.0909116535433068
0
LINE
8
BLACK
6
CONTINUOUS
10
10.9760955905511803
20
-6.0909116535433068
11
10.9798451181102354
21
-6.0946611811023619
0
LINE
8
BLACK
6
CONTINUOUS
10
10.9798451181102354
20
-6.0946611811023619
11
10.9835946456692906
21
-6.1021602755905509
0
LINE
8
BLACK
6
CONTINUOUS
10
10.9835946456692906
20
-6.1021602755905509
11
10.9835946456692906
21
-6.1246574409448815
0
LINE
8
BLACK
6
CONTINUOUS
10
10.9835946456692906
20
-6.1246574409448815
11
10.9798451181102354
21
-6.1321564960629917
0
LINE
8
BLACK
6
CONTINUOUS
10
10.9798451181102354
20
-6.1321564960629917
11
10.9760955905511803
21
-6.1359060629921256
0
LINE
8
BLACK
6
CONTINUOUS
10
10.9760955905511803
20
-6.1359060629921256
11
10.9685965354330701
21
-6.1396555905511807
0
LINE
8
BLACK
6
CONTINUOUS
10
10.9685965354330701
20
-6.1396555905511807
11
10.9535983858267709
21
-6.1396555905511807
0
LINE
8
BLACK
6
CONTINUOUS
10
10.9535983858267709
20
-6.1396555905511807
11
10.9460993307086607
21
-6.1359060629921256
0
LINE
8
BLACK
6
CONTINUOUS
10
11.0285890157480306
20
-6.1396555905511807
11
11.0210899606299204
21
-6.1359060629921256
0
LINE
8
BLACK
6
CONTINUOUS
10
11.0210899606299204
20
-6.1359060629921256
11
11.0173404330708653
21
-6.1284069685039366
0
LINE
8
BLACK
6
CONTINUOUS
10
11.0173404330708653
20
-6.1284069685039366
11
11.0173404330708653
21
-6.0609154330708659
0
LINE
8
BLACK
6
CONTINUOUS
10
11.092331062992125
20
-6.1396555905511807
11
11.092331062992125
21
-6.0984107480314957
0
LINE
8
BLACK
6
CONTINUOUS
10
11.092331062992125
20
-6.0984107480314957
11
11.0885815354330699
21
-6.0909116535433068
0
LINE
8
BLACK
6
CONTINUOUS
10
11.0885815354330699
20
-6.0909116535433068
11
11.0810824803149597
21
-6.0871621259842517
0
LINE
8
BLACK
6
CONTINUOUS
10
11.0810824803149597
20
-6.0871621259842517
11
11.0660843307086605
21
-6.0871621259842517
0
LINE
8
BLACK
6
CONTINUOUS
10
11.0660843307086605
20
-6.0871621259842517
11
11.0585852755905503
21
-6.0909116535433068
0
LINE
8
BLACK
6
CONTINUOUS
10
11.092331062992125
20
-6.1359060629921256
11
11.0848320078740148
21
-6.1396555905511807
0
LINE
8
BLACK
6
CONTINUOUS
10
11.0848320078740148
20
-6.1396555905511807
11
11.0660843307086605
21
-6.1396555905511807
0
LINE
8
BLACK
6
CONTINUOUS
10
11.0660843307086605
20
-6.1396555905511807
11
11.0585852755905503
21
-6.1359060629921256
0
LINE
8
BLACK
6
CONTINUOUS
10
11.0585852755905503
20
-6.1359060629921256
11
11.0548357480314952
21
-6.1284069685039366
0
LINE
8
BLACK
6
CONTINUOUS
10
11.0548357480314952
20
-6.1284069685039366
11
11.0548357480314952
21
-6.1209079133858264
0
LINE
8
BLACK
6
CONTINUOUS
10
11.0548357480314952
20
-6.1209079133858264
11
11.0585852755905503
21
-6.1134088582677162
0
LINE
8
BLACK
6
CONTINUOUS
10
11.0585852755905503
20
-6.1134088582677162
11
11.0660843307086605
21
-6.1096593307086611
0
LINE
8
BLACK
6
CONTINUOUS
10
11.0660843307086605
20
-6.1096593307086611
11
11.0848320078740148
21
-6.1096593307086611
0
LINE
8
BLACK
6
CONTINUOUS
10
11.0848320078740148
20
-6.1096593307086611
11
11.092331062992125
21
-6.105909803149606
0
LINE
8
BLACK
6
CONTINUOUS
10
11.1185777952755895
20
-6.0871621259842517
11
11.1485740157480304
21
-6.0871621259842517
0
LINE
8
BLACK
6
CONTINUOUS
10
11.1298263779527549
20
-6.0609154330708659
11
11.1298263779527549
21
-6.1284069685039366
0
LINE
8
BLACK
6
CONTINUOUS
10
11.1298263779527549
20
-6.1284069685039366
11
11.13357590551181
21
-6.1359060629921256
0
LINE
8
BLACK
6
CONTINUOUS
10
11.13357590551181
20
-6.1359060629921256
11
11.1410749606299202
21
-6.1396555905511807
0
LINE
8
BLACK
6
CONTINUOUS
10
11.1410749606299202
20
-6.1396555905511807
11
11.1485740157480304
21
-6.1396555905511807
0
LINE
8
BLACK
6
CONTINUOUS
10
11.2048170078740164
20
-6.1359060629921256
11
11.1973179527559061
21
-6.1396555905511807
0
LINE
8
BLACK
6
CONTINUOUS
10
11.1973179527559061
20
-6.1396555905511807
11
11.1823198031496052
21
-6.1396555905511807
0
LINE
8
BLACK
6
CONTINUOUS
10
11.1823198031496052
20
-6.1396555905511807
11
11.1748207480314949
21
-6.1359060629921256
0
LINE
8
BLACK
6
CONTINUOUS
10
11.1748207480314949
20
-6.1359060629921256
11
11.1710712204724398
21
-6.1284069685039366
0
LINE
8
BLACK
6
CONTINUOUS
10
11.1710712204724398
20
-6.1284069685039366
11
11.1710712204724398
21
-6.0984107480314957
0
LINE
8
BLACK
6
CONTINUOUS
10
11.1710712204724398
20
-6.0984107480314957
11
11.1748207480314949
21
-6.0909116535433068
0
LINE
8
BLACK
6
CONTINUOUS
10
11.1748207480314949
20
-6.0909116535433068
11
11.1823198031496052
21
-6.0871621259842517
0
LINE
8
BLACK
6
CONTINUOUS
10
11.1823198031496052
20
-6.0871621259842517
11
11.1973179527559061
21
-6.0871621259842517
0
LINE
8
BLACK
6
CONTINUOUS
10
11.1973179527559061
20
-6.0871621259842517
11
11.2048170078740164
21
-6.0909116535433068
0
LINE
8
BLACK
6
CONTINUOUS
10
11.2048170078740164
20
-6.0909116535433068
11
11.2085665354330715
21
-6.0984107480314957
0
LINE
8
BLACK
6
CONTINUOUS
10
11.2085665354330715
20
-6.0984107480314957
11
11.2085665354330715
21
-6.105909803149606
0
LINE
8
BLACK
6
CONTINUOUS
10
11.2085665354330715
20
-6.105909803149606
11
11.1710712204724398
21
-6.1134088582677162
0
LINE
8
BLACK
6
CONTINUOUS
10
11.276058110236221
20
-6.1396555905511807
11
11.276058110236221
21
-6.0609154330708659
0
LINE
8
BLACK
6
CONTINUOUS
10
11.276058110236221
20
-6.1359060629921256
11
11.2685590551181107
21
-6.1396555905511807
0
LINE
8
BLACK
6
CONTINUOUS
10
11.2685590551181107
20
-6.1396555905511807
11
11.2535609055118115
21
-6.1396555905511807
0
LINE
8
BLACK
6
CONTINUOUS
10
11.2535609055118115
20
-6.1396555905511807
11
11.2460618503937013
21
-6.1359060629921256
0
LINE
8
BLACK
6
CONTINUOUS
10
11.2460618503937013
20
-6.1359060629921256
11
11.2423123228346462
21
-6.1321564960629917
0
LINE
8
BLACK
6
CONTINUOUS
10
11.2423123228346462
20
-6.1321564960629917
11
11.2385627952755911
21
-6.1246574409448815
0
LINE
8
BLACK
6
CONTINUOUS
10
11.2385627952755911
20
-6.1246574409448815
11
11.2385627952755911
21
-6.1021602755905509
0
LINE
8
BLACK
6
CONTINUOUS
10
11.2385627952755911
20
-6.1021602755905509
11
11.2423123228346462
21
-6.0946611811023619
0
LINE
8
BLACK
6
CONTINUOUS
10
11.2423123228346462
20
-6.0946611811023619
11
11.2460618503937013
21
-6.0909116535433068
0
LINE
8
BLACK
6
CONTINUOUS
10
11.2460618503937013
20
-6.0909116535433068
11
11.2535609055118115
21
-6.0871621259842517
0
LINE
8
BLACK
6
CONTINUOUS
10
11.2535609055118115
20
-6.0871621259842517
11
11.2685590551181107
21
-6.0871621259842517
0
LINE
8
BLACK
6
CONTINUOUS
10
11.2685590551181107
20
-6.0871621259842517
11
11.276058110236221
21
-6.0909116535433068
0
LINE
8
BLACK
6
CONTINUOUS
10
11.3060543700787406
20
-6.1696518110236216
11
11.3098038976377957
21
-6.1659022834645665
0
LINE
8
BLACK
6
CONTINUOUS
10
11.3098038976377957
20
-6.1659022834645665
11
11.3173029527559059
21
-6.1546537007874011
0
LINE
8
BLACK
6
CONTINUOUS
10
11.3173029527559059
20
-6.1546537007874011
11
11.321052480314961
21
-6.1471546456692909
0
LINE
8
BLACK
6
CONTINUOUS
10
11.321052480314961
20
-6.1471546456692909
11
11.3248020078740161
21
-6.1359060629921256
0
LINE
8
BLACK
6
CONTINUOUS
10
11.3248020078740161
20
-6.1359060629921256
11
11.3285515354330713
21
-6.1171583858267713
0
LINE
8
BLACK
6
CONTINUOUS
10
11.3285515354330713
20
-6.1171583858267713
11
11.3285515354330713
21
-6.1021602755905509
0
LINE
8
BLACK
6
CONTINUOUS
10
11.3285515354330713
20
-6.1021602755905509
11
11.3248020078740161
21
-6.0834125984251965
0
LINE
8
BLACK
6
CONTINUOUS
10
11.3248020078740161
20
-6.0834125984251965
11
11.321052480314961
21
-6.0721640157480312
0
LINE
8
BLACK
6
CONTINUOUS
10
11.321052480314961
20
-6.0721640157480312
11
11.3173029527559059
21
-6.064664960629921
0
LINE
8
BLACK
6
CONTINUOUS
10
11.3173029527559059
20
-6.064664960629921
11
11.3098038976377957
21
-6.0534163385826769
0
LINE
8
BLACK
6
CONTINUOUS
10
11.3098038976377957
20
-6.0534163385826769
11
11.3060543700787406
21
-6.0496668110236218
  0
ENDSEC
  0
EOF
