<?xml version="1.0" standalone="no"?>
 <!DOCTYPE svg PUBLIC "-//W3C//DTD SVG 1.1//EN" 
 "http://www.w3.org/Graphics/SVG/1.1/DTD/svg11.dtd"> 
<svg
  xmlns:svg="http://www.w3.org/2000/svg"
  xmlns="http://www.w3.org/2000/svg"
  xmlns:xlink="http://www.w3.org/1999/xlink"
  version="1.1"
  width="297.0022mm" height="210.0072mm" viewBox="0.0000 0.0000 297.0022 210.0072">
<title>SVG Image created as mag-encoder-drl_map.svg date 2024/10/24 19:47:06 </title>
  <desc>Image generated by PCBNEW </desc>
<g style="fill:#000000; fill-opacity:1.0000;stroke:#000000; stroke-opacity:1.0000;
stroke-linecap:round; stroke-linejoin:round;"
 transform="translate(0 0) scale(1 1)">
</g>
<g style="fill:none; 
stroke:#000000; stroke-width:0.1500; stroke-opacity:1; 
stroke-linecap:round; stroke-linejoin:round;">
<path d="M178.3574 31.1230
L178.3574 94.8993
" />
<path d="M118.6448 37.1146
L118.6548 88.9379
" />
<path d="M118.6548 88.9379 A41.7873 41.7873 0.0 0 0 178.3574 94.8993" />
<path d="M178.3574 31.1230 A41.7292 41.7292 0.0 0 0 118.6448 37.1146" />
</g>
<g style="fill:none; 
stroke:#000000; stroke-width:0.3000; stroke-opacity:1; 
stroke-linecap:round; stroke-linejoin:round;">
<path d="M144.6980 38.1010
L145.5980 39.0010
" />
<path d="M145.5980 38.1010
L144.6980 39.0010
" />
<path d="M146.1458 98.3752
L147.0458 99.2752
" />
<path d="M147.0458 98.3752
L146.1458 99.2752
" />
<path d="M146.2220 25.5280
L147.1220 26.4280
" />
<path d="M147.1220 25.5280
L146.2220 26.4280
" />
<path d="M150.7940 98.5276
L151.6940 99.4276
" />
<path d="M151.6940 98.5276
L150.7940 99.4276
" />
<path d="M150.8702 25.5280
L151.7702 26.4280
" />
<path d="M151.7702 25.5280
L150.8702 26.4280
" />
<path d="M151.2512 37.6438
L152.1512 38.5438
" />
<path d="M152.1512 37.6438
L151.2512 38.5438
" />
<path d="M153.1562 87.3262
L154.0562 88.2262
" />
<path d="M154.0562 87.3262
L153.1562 88.2262
" />
<path d="M155.3660 98.3752
L156.2660 99.2752
" />
<path d="M156.2660 98.3752
L155.3660 99.2752
" />
<path d="M157.3472 25.3756
L158.2472 26.2756
" />
<path d="M158.2472 25.3756
L157.3472 26.2756
" />
<path d="M158.3378 87.0214
L159.2378 87.9214
" />
<path d="M159.2378 87.0214
L158.3378 87.9214
" />
<path d="M159.0236 95.4034
L159.9236 96.3034
" />
<path d="M159.9236 95.4034
L159.0236 96.3034
" />
<path d="M160.0904 99.5182
L160.9904 100.4182
" />
<path d="M160.9904 99.5182
L160.0904 100.4182
" />
<path d="M161.0522 85.6684
L161.9522 86.5684
" />
<path d="M161.9522 85.6684
L161.0522 86.5684
" />
<path d="M163.9283 74.1715
L164.8283 75.0715
" />
<path d="M164.8283 74.1715
L163.9283 75.0715
" />
<circle cx="129.2022" cy="64.4390" r="0.4572" /> 
<circle cx="139.2044" cy="43.5802" r="0.4572" /> 
<circle cx="147.8349" cy="82.5565" r="0.4572" /> 
<circle cx="151.7012" cy="72.7648" r="0.4572" /> 
<circle cx="153.5300" cy="80.4610" r="0.4572" /> 
<circle cx="153.6824" cy="70.2502" r="0.4572" /> 
<circle cx="154.2158" cy="55.3912" r="0.4572" /> 
<circle cx="155.7398" cy="58.5916" r="0.4572" /> 
<circle cx="160.1213" cy="68.0785" r="0.4572" /> 
<circle cx="161.6834" cy="57.6772" r="0.4572" /> 
<circle cx="164.4641" cy="71.4309" r="0.4572" /> 
<circle cx="168.4652" cy="68.5357" r="0.4572" /> 
<path d="M123.9644 42.4612
L123.9644 45.4612
" />
<path d="M122.4644 43.9612
L125.4644 43.9612
" />
<path d="M123.9644 50.0812
L123.9644 53.0812
" />
<path d="M122.4644 51.5812
L125.4644 51.5812
" />
<path d="M123.9644 57.7012
L123.9644 60.7012
" />
<path d="M122.4644 59.2012
L125.4644 59.2012
" />
<path d="M123.9644 65.3212
L123.9644 68.3212
" />
<path d="M122.4644 66.8212
L125.4644 66.8212
" />
<path d="M123.9644 72.9412
L123.9644 75.9412
" />
<path d="M122.4644 74.4412
L125.4644 74.4412
" />
<path d="M123.9644 80.5612
L123.9644 83.5612
" />
<path d="M122.4644 82.0612
L125.4644 82.0612
" />
<path style="fill:none; 
stroke:#000000; stroke-width:0.9000; stroke-opacity:1; 
stroke-linecap:round; stroke-linejoin:round;fill:none"
d="M 137.4334,37.6182
137.4334,31.2542
131.0694,31.2542
131.0694,37.6182
Z" /> 
<path style="fill:none; 
stroke:#000000; stroke-width:0.9000; stroke-opacity:1; 
stroke-linecap:round; stroke-linejoin:round;fill:none"
d="M 137.4334,94.7682
137.4334,88.4042
131.0694,88.4042
131.0694,94.7682
Z" /> 
<path style="fill:none; 
stroke:#000000; stroke-width:1.0200; stroke-opacity:1; 
stroke-linecap:round; stroke-linejoin:round;fill:none"
d="M 171.2624,48.6712
176.3624,43.5712
171.2624,38.4712
166.1624,43.5712
Z" /> 
<path style="fill:none; 
stroke:#000000; stroke-width:1.0200; stroke-opacity:1; 
stroke-linecap:round; stroke-linejoin:round;fill:none"
d="M 171.2624,87.5512
176.3624,82.4512
171.2624,77.3512
166.1624,82.4512
Z" /> 
</g>
<g style="fill:none; 
stroke:#000000; stroke-width:0.2000; stroke-opacity:1; 
stroke-linecap:round; stroke-linejoin:round;">
<text x="120.5698" y="108.0354"
textLength="14.8667" font-size="2.6667" lengthAdjust="spacingAndGlyphs"
text-anchor="start" opacity="0" stroke-opacity="0">Drill Map:</text>
<g class="stroked-text"><desc>Drill Map:</desc>
<path d="M121.1776 107.9503
L121.1776 105.9502
" />
<path d="M121.1776 105.9502
L121.6538 105.9502
" />
<path d="M121.6538 105.9502
L121.9395 106.0455
" />
<path d="M121.9395 106.0455
L122.1300 106.2360
" />
<path d="M122.1300 106.2360
L122.2252 106.4264
" />
<path d="M122.2252 106.4264
L122.3205 106.8074
" />
<path d="M122.3205 106.8074
L122.3205 107.0931
" />
<path d="M122.3205 107.0931
L122.2252 107.4741
" />
<path d="M122.2252 107.4741
L122.1300 107.6645
" />
<path d="M122.1300 107.6645
L121.9395 107.8550
" />
<path d="M121.9395 107.8550
L121.6538 107.9503
" />
<path d="M121.6538 107.9503
L121.1776 107.9503
" />
<path d="M123.1776 107.9503
L123.1776 106.6169
" />
<path d="M123.1776 106.9979
L123.2728 106.8074
" />
<path d="M123.2728 106.8074
L123.3681 106.7122
" />
<path d="M123.3681 106.7122
L123.5586 106.6169
" />
<path d="M123.5586 106.6169
L123.7490 106.6169
" />
<path d="M124.4157 107.9503
L124.4157 106.6169
" />
<path d="M124.4157 105.9502
L124.3205 106.0455
" />
<path d="M124.3205 106.0455
L124.4157 106.1407
" />
<path d="M124.4157 106.1407
L124.5109 106.0455
" />
<path d="M124.5109 106.0455
L124.4157 105.9502
" />
<path d="M124.4157 105.9502
L124.4157 106.1407
" />
<path d="M125.6538 107.9503
L125.4633 107.8550
" />
<path d="M125.4633 107.8550
L125.3681 107.6645
" />
<path d="M125.3681 107.6645
L125.3681 105.9502
" />
<path d="M126.7014 107.9503
L126.5109 107.8550
" />
<path d="M126.5109 107.8550
L126.4157 107.6645
" />
<path d="M126.4157 107.6645
L126.4157 105.9502
" />
<path d="M128.9871 107.9503
L128.9871 105.9502
" />
<path d="M128.9871 105.9502
L129.6538 107.3788
" />
<path d="M129.6538 107.3788
L130.3205 105.9502
" />
<path d="M130.3205 105.9502
L130.3205 107.9503
" />
<path d="M132.1300 107.9503
L132.1300 106.9026
" />
<path d="M132.1300 106.9026
L132.0348 106.7122
" />
<path d="M132.0348 106.7122
L131.8443 106.6169
" />
<path d="M131.8443 106.6169
L131.4633 106.6169
" />
<path d="M131.4633 106.6169
L131.2729 106.7122
" />
<path d="M132.1300 107.8550
L131.9395 107.9503
" />
<path d="M131.9395 107.9503
L131.4633 107.9503
" />
<path d="M131.4633 107.9503
L131.2729 107.8550
" />
<path d="M131.2729 107.8550
L131.1776 107.6645
" />
<path d="M131.1776 107.6645
L131.1776 107.4741
" />
<path d="M131.1776 107.4741
L131.2729 107.2836
" />
<path d="M131.2729 107.2836
L131.4633 107.1883
" />
<path d="M131.4633 107.1883
L131.9395 107.1883
" />
<path d="M131.9395 107.1883
L132.1300 107.0931
" />
<path d="M133.0824 106.6169
L133.0824 108.6169
" />
<path d="M133.0824 106.7122
L133.2729 106.6169
" />
<path d="M133.2729 106.6169
L133.6538 106.6169
" />
<path d="M133.6538 106.6169
L133.8443 106.7122
" />
<path d="M133.8443 106.7122
L133.9395 106.8074
" />
<path d="M133.9395 106.8074
L134.0348 106.9979
" />
<path d="M134.0348 106.9979
L134.0348 107.5693
" />
<path d="M134.0348 107.5693
L133.9395 107.7598
" />
<path d="M133.9395 107.7598
L133.8443 107.8550
" />
<path d="M133.8443 107.8550
L133.6538 107.9503
" />
<path d="M133.6538 107.9503
L133.2729 107.9503
" />
<path d="M133.2729 107.9503
L133.0824 107.8550
" />
<path d="M134.8919 107.7598
L134.9871 107.8550
" />
<path d="M134.9871 107.8550
L134.8919 107.9503
" />
<path d="M134.8919 107.9503
L134.7967 107.8550
" />
<path d="M134.7967 107.8550
L134.8919 107.7598
" />
<path d="M134.8919 107.7598
L134.8919 107.9503
" />
<path d="M134.8919 106.7122
L134.9871 106.8074
" />
<path d="M134.9871 106.8074
L134.8919 106.9026
" />
<path d="M134.8919 106.9026
L134.7967 106.8074
" />
<path d="M134.7967 106.8074
L134.8919 106.7122
" />
<path d="M134.8919 106.7122
L134.8919 106.9026
" />
</g></g>
<g style="fill:none; 
stroke:#000000; stroke-width:0.3000; stroke-opacity:1; 
stroke-linecap:round; stroke-linejoin:round;">
<path d="M117.6698 110.7854
L118.5698 111.6854
" />
<path d="M118.5698 110.7854
L117.6698 111.6854
" />
</g>
<g style="fill:none; 
stroke:#000000; stroke-width:0.2000; stroke-opacity:1; 
stroke-linecap:round; stroke-linejoin:round;">
<text x="120.5698" y="112.2354"
textLength="48.7715" font-size="2.6667" lengthAdjust="spacingAndGlyphs"
text-anchor="start" opacity="0" stroke-opacity="0">0.300mm / 0.0118" (14 holes)</text>
<g class="stroked-text"><desc>0.300mm / 0.0118" (14 holes)</desc>
<path d="M121.5586 110.1503
L121.7490 110.1503
" />
<path d="M121.7490 110.1503
L121.9395 110.2455
" />
<path d="M121.9395 110.2455
L122.0347 110.3407
" />
<path d="M122.0347 110.3407
L122.1300 110.5312
" />
<path d="M122.1300 110.5312
L122.2252 110.9122
" />
<path d="M122.2252 110.9122
L122.2252 111.3883
" />
<path d="M122.2252 111.3883
L122.1300 111.7693
" />
<path d="M122.1300 111.7693
L122.0347 111.9598
" />
<path d="M122.0347 111.9598
L121.9395 112.0550
" />
<path d="M121.9395 112.0550
L121.7490 112.1503
" />
<path d="M121.7490 112.1503
L121.5586 112.1503
" />
<path d="M121.5586 112.1503
L121.3681 112.0550
" />
<path d="M121.3681 112.0550
L121.2728 111.9598
" />
<path d="M121.2728 111.9598
L121.1776 111.7693
" />
<path d="M121.1776 111.7693
L121.0824 111.3883
" />
<path d="M121.0824 111.3883
L121.0824 110.9122
" />
<path d="M121.0824 110.9122
L121.1776 110.5312
" />
<path d="M121.1776 110.5312
L121.2728 110.3407
" />
<path d="M121.2728 110.3407
L121.3681 110.2455
" />
<path d="M121.3681 110.2455
L121.5586 110.1503
" />
<path d="M123.0824 111.9598
L123.1776 112.0550
" />
<path d="M123.1776 112.0550
L123.0824 112.1503
" />
<path d="M123.0824 112.1503
L122.9871 112.0550
" />
<path d="M122.9871 112.0550
L123.0824 111.9598
" />
<path d="M123.0824 111.9598
L123.0824 112.1503
" />
<path d="M123.8443 110.1503
L125.0824 110.1503
" />
<path d="M125.0824 110.1503
L124.4157 110.9122
" />
<path d="M124.4157 110.9122
L124.7014 110.9122
" />
<path d="M124.7014 110.9122
L124.8919 111.0074
" />
<path d="M124.8919 111.0074
L124.9871 111.1026
" />
<path d="M124.9871 111.1026
L125.0824 111.2931
" />
<path d="M125.0824 111.2931
L125.0824 111.7693
" />
<path d="M125.0824 111.7693
L124.9871 111.9598
" />
<path d="M124.9871 111.9598
L124.8919 112.0550
" />
<path d="M124.8919 112.0550
L124.7014 112.1503
" />
<path d="M124.7014 112.1503
L124.1300 112.1503
" />
<path d="M124.1300 112.1503
L123.9395 112.0550
" />
<path d="M123.9395 112.0550
L123.8443 111.9598
" />
<path d="M126.3205 110.1503
L126.5109 110.1503
" />
<path d="M126.5109 110.1503
L126.7014 110.2455
" />
<path d="M126.7014 110.2455
L126.7967 110.3407
" />
<path d="M126.7967 110.3407
L126.8919 110.5312
" />
<path d="M126.8919 110.5312
L126.9871 110.9122
" />
<path d="M126.9871 110.9122
L126.9871 111.3883
" />
<path d="M126.9871 111.3883
L126.8919 111.7693
" />
<path d="M126.8919 111.7693
L126.7967 111.9598
" />
<path d="M126.7967 111.9598
L126.7014 112.0550
" />
<path d="M126.7014 112.0550
L126.5109 112.1503
" />
<path d="M126.5109 112.1503
L126.3205 112.1503
" />
<path d="M126.3205 112.1503
L126.1300 112.0550
" />
<path d="M126.1300 112.0550
L126.0348 111.9598
" />
<path d="M126.0348 111.9598
L125.9395 111.7693
" />
<path d="M125.9395 111.7693
L125.8443 111.3883
" />
<path d="M125.8443 111.3883
L125.8443 110.9122
" />
<path d="M125.8443 110.9122
L125.9395 110.5312
" />
<path d="M125.9395 110.5312
L126.0348 110.3407
" />
<path d="M126.0348 110.3407
L126.1300 110.2455
" />
<path d="M126.1300 110.2455
L126.3205 110.1503
" />
<path d="M128.2252 110.1503
L128.4157 110.1503
" />
<path d="M128.4157 110.1503
L128.6062 110.2455
" />
<path d="M128.6062 110.2455
L128.7014 110.3407
" />
<path d="M128.7014 110.3407
L128.7967 110.5312
" />
<path d="M128.7967 110.5312
L128.8919 110.9122
" />
<path d="M128.8919 110.9122
L128.8919 111.3883
" />
<path d="M128.8919 111.3883
L128.7967 111.7693
" />
<path d="M128.7967 111.7693
L128.7014 111.9598
" />
<path d="M128.7014 111.9598
L128.6062 112.0550
" />
<path d="M128.6062 112.0550
L128.4157 112.1503
" />
<path d="M128.4157 112.1503
L128.2252 112.1503
" />
<path d="M128.2252 112.1503
L128.0348 112.0550
" />
<path d="M128.0348 112.0550
L127.9395 111.9598
" />
<path d="M127.9395 111.9598
L127.8443 111.7693
" />
<path d="M127.8443 111.7693
L127.7490 111.3883
" />
<path d="M127.7490 111.3883
L127.7490 110.9122
" />
<path d="M127.7490 110.9122
L127.8443 110.5312
" />
<path d="M127.8443 110.5312
L127.9395 110.3407
" />
<path d="M127.9395 110.3407
L128.0348 110.2455
" />
<path d="M128.0348 110.2455
L128.2252 110.1503
" />
<path d="M129.7490 112.1503
L129.7490 110.8169
" />
<path d="M129.7490 111.0074
L129.8443 110.9122
" />
<path d="M129.8443 110.9122
L130.0348 110.8169
" />
<path d="M130.0348 110.8169
L130.3205 110.8169
" />
<path d="M130.3205 110.8169
L130.5109 110.9122
" />
<path d="M130.5109 110.9122
L130.6062 111.1026
" />
<path d="M130.6062 111.1026
L130.6062 112.1503
" />
<path d="M130.6062 111.1026
L130.7014 110.9122
" />
<path d="M130.7014 110.9122
L130.8919 110.8169
" />
<path d="M130.8919 110.8169
L131.1776 110.8169
" />
<path d="M131.1776 110.8169
L131.3681 110.9122
" />
<path d="M131.3681 110.9122
L131.4633 111.1026
" />
<path d="M131.4633 111.1026
L131.4633 112.1503
" />
<path d="M132.4157 112.1503
L132.4157 110.8169
" />
<path d="M132.4157 111.0074
L132.5109 110.9122
" />
<path d="M132.5109 110.9122
L132.7014 110.8169
" />
<path d="M132.7014 110.8169
L132.9871 110.8169
" />
<path d="M132.9871 110.8169
L133.1776 110.9122
" />
<path d="M133.1776 110.9122
L133.2728 111.1026
" />
<path d="M133.2728 111.1026
L133.2728 112.1503
" />
<path d="M133.2728 111.1026
L133.3681 110.9122
" />
<path d="M133.3681 110.9122
L133.5586 110.8169
" />
<path d="M133.5586 110.8169
L133.8443 110.8169
" />
<path d="M133.8443 110.8169
L134.0348 110.9122
" />
<path d="M134.0348 110.9122
L134.1300 111.1026
" />
<path d="M134.1300 111.1026
L134.1300 112.1503
" />
<path d="M138.0348 110.0550
L136.3205 112.6264
" />
<path d="M140.6062 110.1503
L140.7967 110.1503
" />
<path d="M140.7967 110.1503
L140.9871 110.2455
" />
<path d="M140.9871 110.2455
L141.0824 110.3407
" />
<path d="M141.0824 110.3407
L141.1776 110.5312
" />
<path d="M141.1776 110.5312
L141.2729 110.9122
" />
<path d="M141.2729 110.9122
L141.2729 111.3883
" />
<path d="M141.2729 111.3883
L141.1776 111.7693
" />
<path d="M141.1776 111.7693
L141.0824 111.9598
" />
<path d="M141.0824 111.9598
L140.9871 112.0550
" />
<path d="M140.9871 112.0550
L140.7967 112.1503
" />
<path d="M140.7967 112.1503
L140.6062 112.1503
" />
<path d="M140.6062 112.1503
L140.4157 112.0550
" />
<path d="M140.4157 112.0550
L140.3205 111.9598
" />
<path d="M140.3205 111.9598
L140.2252 111.7693
" />
<path d="M140.2252 111.7693
L140.1300 111.3883
" />
<path d="M140.1300 111.3883
L140.1300 110.9122
" />
<path d="M140.1300 110.9122
L140.2252 110.5312
" />
<path d="M140.2252 110.5312
L140.3205 110.3407
" />
<path d="M140.3205 110.3407
L140.4157 110.2455
" />
<path d="M140.4157 110.2455
L140.6062 110.1503
" />
<path d="M142.1300 111.9598
L142.2252 112.0550
" />
<path d="M142.2252 112.0550
L142.1300 112.1503
" />
<path d="M142.1300 112.1503
L142.0348 112.0550
" />
<path d="M142.0348 112.0550
L142.1300 111.9598
" />
<path d="M142.1300 111.9598
L142.1300 112.1503
" />
<path d="M143.4633 110.1503
L143.6538 110.1503
" />
<path d="M143.6538 110.1503
L143.8443 110.2455
" />
<path d="M143.8443 110.2455
L143.9395 110.3407
" />
<path d="M143.9395 110.3407
L144.0348 110.5312
" />
<path d="M144.0348 110.5312
L144.1300 110.9122
" />
<path d="M144.1300 110.9122
L144.1300 111.3883
" />
<path d="M144.1300 111.3883
L144.0348 111.7693
" />
<path d="M144.0348 111.7693
L143.9395 111.9598
" />
<path d="M143.9395 111.9598
L143.8443 112.0550
" />
<path d="M143.8443 112.0550
L143.6538 112.1503
" />
<path d="M143.6538 112.1503
L143.4633 112.1503
" />
<path d="M143.4633 112.1503
L143.2729 112.0550
" />
<path d="M143.2729 112.0550
L143.1776 111.9598
" />
<path d="M143.1776 111.9598
L143.0824 111.7693
" />
<path d="M143.0824 111.7693
L142.9871 111.3883
" />
<path d="M142.9871 111.3883
L142.9871 110.9122
" />
<path d="M142.9871 110.9122
L143.0824 110.5312
" />
<path d="M143.0824 110.5312
L143.1776 110.3407
" />
<path d="M143.1776 110.3407
L143.2729 110.2455
" />
<path d="M143.2729 110.2455
L143.4633 110.1503
" />
<path d="M146.0348 112.1503
L144.8919 112.1503
" />
<path d="M145.4633 112.1503
L145.4633 110.1503
" />
<path d="M145.4633 110.1503
L145.2729 110.4360
" />
<path d="M145.2729 110.4360
L145.0824 110.6264
" />
<path d="M145.0824 110.6264
L144.8919 110.7217
" />
<path d="M147.9395 112.1503
L146.7967 112.1503
" />
<path d="M147.3681 112.1503
L147.3681 110.1503
" />
<path d="M147.3681 110.1503
L147.1776 110.4360
" />
<path d="M147.1776 110.4360
L146.9871 110.6264
" />
<path d="M146.9871 110.6264
L146.7967 110.7217
" />
<path d="M149.0824 111.0074
L148.8919 110.9122
" />
<path d="M148.8919 110.9122
L148.7967 110.8169
" />
<path d="M148.7967 110.8169
L148.7014 110.6264
" />
<path d="M148.7014 110.6264
L148.7014 110.5312
" />
<path d="M148.7014 110.5312
L148.7967 110.3407
" />
<path d="M148.7967 110.3407
L148.8919 110.2455
" />
<path d="M148.8919 110.2455
L149.0824 110.1503
" />
<path d="M149.0824 110.1503
L149.4633 110.1503
" />
<path d="M149.4633 110.1503
L149.6538 110.2455
" />
<path d="M149.6538 110.2455
L149.7490 110.3407
" />
<path d="M149.7490 110.3407
L149.8443 110.5312
" />
<path d="M149.8443 110.5312
L149.8443 110.6264
" />
<path d="M149.8443 110.6264
L149.7490 110.8169
" />
<path d="M149.7490 110.8169
L149.6538 110.9122
" />
<path d="M149.6538 110.9122
L149.4633 111.0074
" />
<path d="M149.4633 111.0074
L149.0824 111.0074
" />
<path d="M149.0824 111.0074
L148.8919 111.1026
" />
<path d="M148.8919 111.1026
L148.7967 111.1979
" />
<path d="M148.7967 111.1979
L148.7014 111.3883
" />
<path d="M148.7014 111.3883
L148.7014 111.7693
" />
<path d="M148.7014 111.7693
L148.7967 111.9598
" />
<path d="M148.7967 111.9598
L148.8919 112.0550
" />
<path d="M148.8919 112.0550
L149.0824 112.1503
" />
<path d="M149.0824 112.1503
L149.4633 112.1503
" />
<path d="M149.4633 112.1503
L149.6538 112.0550
" />
<path d="M149.6538 112.0550
L149.7490 111.9598
" />
<path d="M149.7490 111.9598
L149.8443 111.7693
" />
<path d="M149.8443 111.7693
L149.8443 111.3883
" />
<path d="M149.8443 111.3883
L149.7490 111.1979
" />
<path d="M149.7490 111.1979
L149.6538 111.1026
" />
<path d="M149.6538 111.1026
L149.4633 111.0074
" />
<path d="M150.6062 110.1503
L150.6062 110.5312
" />
<path d="M151.3681 110.1503
L151.3681 110.5312
" />
<path d="M154.3205 112.9122
L154.2252 112.8169
" />
<path d="M154.2252 112.8169
L154.0348 112.5312
" />
<path d="M154.0348 112.5312
L153.9395 112.3407
" />
<path d="M153.9395 112.3407
L153.8443 112.0550
" />
<path d="M153.8443 112.0550
L153.7491 111.5788
" />
<path d="M153.7491 111.5788
L153.7491 111.1979
" />
<path d="M153.7491 111.1979
L153.8443 110.7217
" />
<path d="M153.8443 110.7217
L153.9395 110.4360
" />
<path d="M153.9395 110.4360
L154.0348 110.2455
" />
<path d="M154.0348 110.2455
L154.2252 109.9598
" />
<path d="M154.2252 109.9598
L154.3205 109.8645
" />
<path d="M156.1300 112.1503
L154.9871 112.1503
" />
<path d="M155.5586 112.1503
L155.5586 110.1503
" />
<path d="M155.5586 110.1503
L155.3681 110.4360
" />
<path d="M155.3681 110.4360
L155.1776 110.6264
" />
<path d="M155.1776 110.6264
L154.9871 110.7217
" />
<path d="M157.8443 110.8169
L157.8443 112.1503
" />
<path d="M157.3681 110.0550
L156.8919 111.4836
" />
<path d="M156.8919 111.4836
L158.1300 111.4836
" />
<path d="M160.4157 112.1503
L160.4157 110.1503
" />
<path d="M161.2729 112.1503
L161.2729 111.1026
" />
<path d="M161.2729 111.1026
L161.1776 110.9122
" />
<path d="M161.1776 110.9122
L160.9872 110.8169
" />
<path d="M160.9872 110.8169
L160.7014 110.8169
" />
<path d="M160.7014 110.8169
L160.5110 110.9122
" />
<path d="M160.5110 110.9122
L160.4157 111.0074
" />
<path d="M162.5110 112.1503
L162.3205 112.0550
" />
<path d="M162.3205 112.0550
L162.2252 111.9598
" />
<path d="M162.2252 111.9598
L162.1300 111.7693
" />
<path d="M162.1300 111.7693
L162.1300 111.1979
" />
<path d="M162.1300 111.1979
L162.2252 111.0074
" />
<path d="M162.2252 111.0074
L162.3205 110.9122
" />
<path d="M162.3205 110.9122
L162.5110 110.8169
" />
<path d="M162.5110 110.8169
L162.7967 110.8169
" />
<path d="M162.7967 110.8169
L162.9872 110.9122
" />
<path d="M162.9872 110.9122
L163.0824 111.0074
" />
<path d="M163.0824 111.0074
L163.1776 111.1979
" />
<path d="M163.1776 111.1979
L163.1776 111.7693
" />
<path d="M163.1776 111.7693
L163.0824 111.9598
" />
<path d="M163.0824 111.9598
L162.9872 112.0550
" />
<path d="M162.9872 112.0550
L162.7967 112.1503
" />
<path d="M162.7967 112.1503
L162.5110 112.1503
" />
<path d="M164.3205 112.1503
L164.1300 112.0550
" />
<path d="M164.1300 112.0550
L164.0348 111.8645
" />
<path d="M164.0348 111.8645
L164.0348 110.1503
" />
<path d="M165.8443 112.0550
L165.6538 112.1503
" />
<path d="M165.6538 112.1503
L165.2729 112.1503
" />
<path d="M165.2729 112.1503
L165.0824 112.0550
" />
<path d="M165.0824 112.0550
L164.9872 111.8645
" />
<path d="M164.9872 111.8645
L164.9872 111.1026
" />
<path d="M164.9872 111.1026
L165.0824 110.9122
" />
<path d="M165.0824 110.9122
L165.2729 110.8169
" />
<path d="M165.2729 110.8169
L165.6538 110.8169
" />
<path d="M165.6538 110.8169
L165.8443 110.9122
" />
<path d="M165.8443 110.9122
L165.9395 111.1026
" />
<path d="M165.9395 111.1026
L165.9395 111.2931
" />
<path d="M165.9395 111.2931
L164.9872 111.4836
" />
<path d="M166.7014 112.0550
L166.8919 112.1503
" />
<path d="M166.8919 112.1503
L167.2729 112.1503
" />
<path d="M167.2729 112.1503
L167.4633 112.0550
" />
<path d="M167.4633 112.0550
L167.5586 111.8645
" />
<path d="M167.5586 111.8645
L167.5586 111.7693
" />
<path d="M167.5586 111.7693
L167.4633 111.5788
" />
<path d="M167.4633 111.5788
L167.2729 111.4836
" />
<path d="M167.2729 111.4836
L166.9872 111.4836
" />
<path d="M166.9872 111.4836
L166.7967 111.3883
" />
<path d="M166.7967 111.3883
L166.7014 111.1979
" />
<path d="M166.7014 111.1979
L166.7014 111.1026
" />
<path d="M166.7014 111.1026
L166.7967 110.9122
" />
<path d="M166.7967 110.9122
L166.9872 110.8169
" />
<path d="M166.9872 110.8169
L167.2729 110.8169
" />
<path d="M167.2729 110.8169
L167.4633 110.9122
" />
<path d="M168.2253 112.9122
L168.3205 112.8169
" />
<path d="M168.3205 112.8169
L168.5110 112.5312
" />
<path d="M168.5110 112.5312
L168.6062 112.3407
" />
<path d="M168.6062 112.3407
L168.7014 112.0550
" />
<path d="M168.7014 112.0550
L168.7967 111.5788
" />
<path d="M168.7967 111.5788
L168.7967 111.1979
" />
<path d="M168.7967 111.1979
L168.7014 110.7217
" />
<path d="M168.7014 110.7217
L168.6062 110.4360
" />
<path d="M168.6062 110.4360
L168.5110 110.2455
" />
<path d="M168.5110 110.2455
L168.3205 109.9598
" />
<path d="M168.3205 109.9598
L168.2253 109.8645
" />
</g></g>
<g style="fill:none; 
stroke:#000000; stroke-width:0.3000; stroke-opacity:1; 
stroke-linecap:round; stroke-linejoin:round;">
<circle cx="118.1126" cy="113.8754" r="0.4572" /> 
</g>
<g style="fill:none; 
stroke:#000000; stroke-width:0.2000; stroke-opacity:1; 
stroke-linecap:round; stroke-linejoin:round;">
<text x="120.5698" y="114.8754"
textLength="48.7715" font-size="2.6667" lengthAdjust="spacingAndGlyphs"
text-anchor="start" opacity="0" stroke-opacity="0">0.305mm / 0.0120" (12 holes)</text>
<g class="stroked-text"><desc>0.305mm / 0.0120" (12 holes)</desc>
<path d="M121.5586 112.7903
L121.7490 112.7903
" />
<path d="M121.7490 112.7903
L121.9395 112.8855
" />
<path d="M121.9395 112.8855
L122.0347 112.9807
" />
<path d="M122.0347 112.9807
L122.1300 113.1712
" />
<path d="M122.1300 113.1712
L122.2252 113.5522
" />
<path d="M122.2252 113.5522
L122.2252 114.0283
" />
<path d="M122.2252 114.0283
L122.1300 114.4093
" />
<path d="M122.1300 114.4093
L122.0347 114.5998
" />
<path d="M122.0347 114.5998
L121.9395 114.6950
" />
<path d="M121.9395 114.6950
L121.7490 114.7903
" />
<path d="M121.7490 114.7903
L121.5586 114.7903
" />
<path d="M121.5586 114.7903
L121.3681 114.6950
" />
<path d="M121.3681 114.6950
L121.2728 114.5998
" />
<path d="M121.2728 114.5998
L121.1776 114.4093
" />
<path d="M121.1776 114.4093
L121.0824 114.0283
" />
<path d="M121.0824 114.0283
L121.0824 113.5522
" />
<path d="M121.0824 113.5522
L121.1776 113.1712
" />
<path d="M121.1776 113.1712
L121.2728 112.9807
" />
<path d="M121.2728 112.9807
L121.3681 112.8855
" />
<path d="M121.3681 112.8855
L121.5586 112.7903
" />
<path d="M123.0824 114.5998
L123.1776 114.6950
" />
<path d="M123.1776 114.6950
L123.0824 114.7903
" />
<path d="M123.0824 114.7903
L122.9871 114.6950
" />
<path d="M122.9871 114.6950
L123.0824 114.5998
" />
<path d="M123.0824 114.5998
L123.0824 114.7903
" />
<path d="M123.8443 112.7903
L125.0824 112.7903
" />
<path d="M125.0824 112.7903
L124.4157 113.5522
" />
<path d="M124.4157 113.5522
L124.7014 113.5522
" />
<path d="M124.7014 113.5522
L124.8919 113.6474
" />
<path d="M124.8919 113.6474
L124.9871 113.7426
" />
<path d="M124.9871 113.7426
L125.0824 113.9331
" />
<path d="M125.0824 113.9331
L125.0824 114.4093
" />
<path d="M125.0824 114.4093
L124.9871 114.5998
" />
<path d="M124.9871 114.5998
L124.8919 114.6950
" />
<path d="M124.8919 114.6950
L124.7014 114.7903
" />
<path d="M124.7014 114.7903
L124.1300 114.7903
" />
<path d="M124.1300 114.7903
L123.9395 114.6950
" />
<path d="M123.9395 114.6950
L123.8443 114.5998
" />
<path d="M126.3205 112.7903
L126.5109 112.7903
" />
<path d="M126.5109 112.7903
L126.7014 112.8855
" />
<path d="M126.7014 112.8855
L126.7967 112.9807
" />
<path d="M126.7967 112.9807
L126.8919 113.1712
" />
<path d="M126.8919 113.1712
L126.9871 113.5522
" />
<path d="M126.9871 113.5522
L126.9871 114.0283
" />
<path d="M126.9871 114.0283
L126.8919 114.4093
" />
<path d="M126.8919 114.4093
L126.7967 114.5998
" />
<path d="M126.7967 114.5998
L126.7014 114.6950
" />
<path d="M126.7014 114.6950
L126.5109 114.7903
" />
<path d="M126.5109 114.7903
L126.3205 114.7903
" />
<path d="M126.3205 114.7903
L126.1300 114.6950
" />
<path d="M126.1300 114.6950
L126.0348 114.5998
" />
<path d="M126.0348 114.5998
L125.9395 114.4093
" />
<path d="M125.9395 114.4093
L125.8443 114.0283
" />
<path d="M125.8443 114.0283
L125.8443 113.5522
" />
<path d="M125.8443 113.5522
L125.9395 113.1712
" />
<path d="M125.9395 113.1712
L126.0348 112.9807
" />
<path d="M126.0348 112.9807
L126.1300 112.8855
" />
<path d="M126.1300 112.8855
L126.3205 112.7903
" />
<path d="M128.7967 112.7903
L127.8443 112.7903
" />
<path d="M127.8443 112.7903
L127.7490 113.7426
" />
<path d="M127.7490 113.7426
L127.8443 113.6474
" />
<path d="M127.8443 113.6474
L128.0348 113.5522
" />
<path d="M128.0348 113.5522
L128.5109 113.5522
" />
<path d="M128.5109 113.5522
L128.7014 113.6474
" />
<path d="M128.7014 113.6474
L128.7967 113.7426
" />
<path d="M128.7967 113.7426
L128.8919 113.9331
" />
<path d="M128.8919 113.9331
L128.8919 114.4093
" />
<path d="M128.8919 114.4093
L128.7967 114.5998
" />
<path d="M128.7967 114.5998
L128.7014 114.6950
" />
<path d="M128.7014 114.6950
L128.5109 114.7903
" />
<path d="M128.5109 114.7903
L128.0348 114.7903
" />
<path d="M128.0348 114.7903
L127.8443 114.6950
" />
<path d="M127.8443 114.6950
L127.7490 114.5998
" />
<path d="M129.7490 114.7903
L129.7490 113.4569
" />
<path d="M129.7490 113.6474
L129.8443 113.5522
" />
<path d="M129.8443 113.5522
L130.0348 113.4569
" />
<path d="M130.0348 113.4569
L130.3205 113.4569
" />
<path d="M130.3205 113.4569
L130.5109 113.5522
" />
<path d="M130.5109 113.5522
L130.6062 113.7426
" />
<path d="M130.6062 113.7426
L130.6062 114.7903
" />
<path d="M130.6062 113.7426
L130.7014 113.5522
" />
<path d="M130.7014 113.5522
L130.8919 113.4569
" />
<path d="M130.8919 113.4569
L131.1776 113.4569
" />
<path d="M131.1776 113.4569
L131.3681 113.5522
" />
<path d="M131.3681 113.5522
L131.4633 113.7426
" />
<path d="M131.4633 113.7426
L131.4633 114.7903
" />
<path d="M132.4157 114.7903
L132.4157 113.4569
" />
<path d="M132.4157 113.6474
L132.5109 113.5522
" />
<path d="M132.5109 113.5522
L132.7014 113.4569
" />
<path d="M132.7014 113.4569
L132.9871 113.4569
" />
<path d="M132.9871 113.4569
L133.1776 113.5522
" />
<path d="M133.1776 113.5522
L133.2728 113.7426
" />
<path d="M133.2728 113.7426
L133.2728 114.7903
" />
<path d="M133.2728 113.7426
L133.3681 113.5522
" />
<path d="M133.3681 113.5522
L133.5586 113.4569
" />
<path d="M133.5586 113.4569
L133.8443 113.4569
" />
<path d="M133.8443 113.4569
L134.0348 113.5522
" />
<path d="M134.0348 113.5522
L134.1300 113.7426
" />
<path d="M134.1300 113.7426
L134.1300 114.7903
" />
<path d="M138.0348 112.6950
L136.3205 115.2664
" />
<path d="M140.6062 112.7903
L140.7967 112.7903
" />
<path d="M140.7967 112.7903
L140.9871 112.8855
" />
<path d="M140.9871 112.8855
L141.0824 112.9807
" />
<path d="M141.0824 112.9807
L141.1776 113.1712
" />
<path d="M141.1776 113.1712
L141.2729 113.5522
" />
<path d="M141.2729 113.5522
L141.2729 114.0283
" />
<path d="M141.2729 114.0283
L141.1776 114.4093
" />
<path d="M141.1776 114.4093
L141.0824 114.5998
" />
<path d="M141.0824 114.5998
L140.9871 114.6950
" />
<path d="M140.9871 114.6950
L140.7967 114.7903
" />
<path d="M140.7967 114.7903
L140.6062 114.7903
" />
<path d="M140.6062 114.7903
L140.4157 114.6950
" />
<path d="M140.4157 114.6950
L140.3205 114.5998
" />
<path d="M140.3205 114.5998
L140.2252 114.4093
" />
<path d="M140.2252 114.4093
L140.1300 114.0283
" />
<path d="M140.1300 114.0283
L140.1300 113.5522
" />
<path d="M140.1300 113.5522
L140.2252 113.1712
" />
<path d="M140.2252 113.1712
L140.3205 112.9807
" />
<path d="M140.3205 112.9807
L140.4157 112.8855
" />
<path d="M140.4157 112.8855
L140.6062 112.7903
" />
<path d="M142.1300 114.5998
L142.2252 114.6950
" />
<path d="M142.2252 114.6950
L142.1300 114.7903
" />
<path d="M142.1300 114.7903
L142.0348 114.6950
" />
<path d="M142.0348 114.6950
L142.1300 114.5998
" />
<path d="M142.1300 114.5998
L142.1300 114.7903
" />
<path d="M143.4633 112.7903
L143.6538 112.7903
" />
<path d="M143.6538 112.7903
L143.8443 112.8855
" />
<path d="M143.8443 112.8855
L143.9395 112.9807
" />
<path d="M143.9395 112.9807
L144.0348 113.1712
" />
<path d="M144.0348 113.1712
L144.1300 113.5522
" />
<path d="M144.1300 113.5522
L144.1300 114.0283
" />
<path d="M144.1300 114.0283
L144.0348 114.4093
" />
<path d="M144.0348 114.4093
L143.9395 114.5998
" />
<path d="M143.9395 114.5998
L143.8443 114.6950
" />
<path d="M143.8443 114.6950
L143.6538 114.7903
" />
<path d="M143.6538 114.7903
L143.4633 114.7903
" />
<path d="M143.4633 114.7903
L143.2729 114.6950
" />
<path d="M143.2729 114.6950
L143.1776 114.5998
" />
<path d="M143.1776 114.5998
L143.0824 114.4093
" />
<path d="M143.0824 114.4093
L142.9871 114.0283
" />
<path d="M142.9871 114.0283
L142.9871 113.5522
" />
<path d="M142.9871 113.5522
L143.0824 113.1712
" />
<path d="M143.0824 113.1712
L143.1776 112.9807
" />
<path d="M143.1776 112.9807
L143.2729 112.8855
" />
<path d="M143.2729 112.8855
L143.4633 112.7903
" />
<path d="M146.0348 114.7903
L144.8919 114.7903
" />
<path d="M145.4633 114.7903
L145.4633 112.7903
" />
<path d="M145.4633 112.7903
L145.2729 113.0760
" />
<path d="M145.2729 113.0760
L145.0824 113.2664
" />
<path d="M145.0824 113.2664
L144.8919 113.3617
" />
<path d="M146.7967 112.9807
L146.8919 112.8855
" />
<path d="M146.8919 112.8855
L147.0824 112.7903
" />
<path d="M147.0824 112.7903
L147.5586 112.7903
" />
<path d="M147.5586 112.7903
L147.7490 112.8855
" />
<path d="M147.7490 112.8855
L147.8443 112.9807
" />
<path d="M147.8443 112.9807
L147.9395 113.1712
" />
<path d="M147.9395 113.1712
L147.9395 113.3617
" />
<path d="M147.9395 113.3617
L147.8443 113.6474
" />
<path d="M147.8443 113.6474
L146.7014 114.7903
" />
<path d="M146.7014 114.7903
L147.9395 114.7903
" />
<path d="M149.1776 112.7903
L149.3681 112.7903
" />
<path d="M149.3681 112.7903
L149.5586 112.8855
" />
<path d="M149.5586 112.8855
L149.6538 112.9807
" />
<path d="M149.6538 112.9807
L149.7490 113.1712
" />
<path d="M149.7490 113.1712
L149.8443 113.5522
" />
<path d="M149.8443 113.5522
L149.8443 114.0283
" />
<path d="M149.8443 114.0283
L149.7490 114.4093
" />
<path d="M149.7490 114.4093
L149.6538 114.5998
" />
<path d="M149.6538 114.5998
L149.5586 114.6950
" />
<path d="M149.5586 114.6950
L149.3681 114.7903
" />
<path d="M149.3681 114.7903
L149.1776 114.7903
" />
<path d="M149.1776 114.7903
L148.9871 114.6950
" />
<path d="M148.9871 114.6950
L148.8919 114.5998
" />
<path d="M148.8919 114.5998
L148.7967 114.4093
" />
<path d="M148.7967 114.4093
L148.7014 114.0283
" />
<path d="M148.7014 114.0283
L148.7014 113.5522
" />
<path d="M148.7014 113.5522
L148.7967 113.1712
" />
<path d="M148.7967 113.1712
L148.8919 112.9807
" />
<path d="M148.8919 112.9807
L148.9871 112.8855
" />
<path d="M148.9871 112.8855
L149.1776 112.7903
" />
<path d="M150.6062 112.7903
L150.6062 113.1712
" />
<path d="M151.3681 112.7903
L151.3681 113.1712
" />
<path d="M154.3205 115.5522
L154.2252 115.4569
" />
<path d="M154.2252 115.4569
L154.0348 115.1712
" />
<path d="M154.0348 115.1712
L153.9395 114.9807
" />
<path d="M153.9395 114.9807
L153.8443 114.6950
" />
<path d="M153.8443 114.6950
L153.7491 114.2188
" />
<path d="M153.7491 114.2188
L153.7491 113.8379
" />
<path d="M153.7491 113.8379
L153.8443 113.3617
" />
<path d="M153.8443 113.3617
L153.9395 113.0760
" />
<path d="M153.9395 113.0760
L154.0348 112.8855
" />
<path d="M154.0348 112.8855
L154.2252 112.5998
" />
<path d="M154.2252 112.5998
L154.3205 112.5045
" />
<path d="M156.1300 114.7903
L154.9871 114.7903
" />
<path d="M155.5586 114.7903
L155.5586 112.7903
" />
<path d="M155.5586 112.7903
L155.3681 113.0760
" />
<path d="M155.3681 113.0760
L155.1776 113.2664
" />
<path d="M155.1776 113.2664
L154.9871 113.3617
" />
<path d="M156.8919 112.9807
L156.9871 112.8855
" />
<path d="M156.9871 112.8855
L157.1776 112.7903
" />
<path d="M157.1776 112.7903
L157.6538 112.7903
" />
<path d="M157.6538 112.7903
L157.8443 112.8855
" />
<path d="M157.8443 112.8855
L157.9395 112.9807
" />
<path d="M157.9395 112.9807
L158.0348 113.1712
" />
<path d="M158.0348 113.1712
L158.0348 113.3617
" />
<path d="M158.0348 113.3617
L157.9395 113.6474
" />
<path d="M157.9395 113.6474
L156.7967 114.7903
" />
<path d="M156.7967 114.7903
L158.0348 114.7903
" />
<path d="M160.4157 114.7903
L160.4157 112.7903
" />
<path d="M161.2729 114.7903
L161.2729 113.7426
" />
<path d="M161.2729 113.7426
L161.1776 113.5522
" />
<path d="M161.1776 113.5522
L160.9872 113.4569
" />
<path d="M160.9872 113.4569
L160.7014 113.4569
" />
<path d="M160.7014 113.4569
L160.5110 113.5522
" />
<path d="M160.5110 113.5522
L160.4157 113.6474
" />
<path d="M162.5110 114.7903
L162.3205 114.6950
" />
<path d="M162.3205 114.6950
L162.2252 114.5998
" />
<path d="M162.2252 114.5998
L162.1300 114.4093
" />
<path d="M162.1300 114.4093
L162.1300 113.8379
" />
<path d="M162.1300 113.8379
L162.2252 113.6474
" />
<path d="M162.2252 113.6474
L162.3205 113.5522
" />
<path d="M162.3205 113.5522
L162.5110 113.4569
" />
<path d="M162.5110 113.4569
L162.7967 113.4569
" />
<path d="M162.7967 113.4569
L162.9872 113.5522
" />
<path d="M162.9872 113.5522
L163.0824 113.6474
" />
<path d="M163.0824 113.6474
L163.1776 113.8379
" />
<path d="M163.1776 113.8379
L163.1776 114.4093
" />
<path d="M163.1776 114.4093
L163.0824 114.5998
" />
<path d="M163.0824 114.5998
L162.9872 114.6950
" />
<path d="M162.9872 114.6950
L162.7967 114.7903
" />
<path d="M162.7967 114.7903
L162.5110 114.7903
" />
<path d="M164.3205 114.7903
L164.1300 114.6950
" />
<path d="M164.1300 114.6950
L164.0348 114.5045
" />
<path d="M164.0348 114.5045
L164.0348 112.7903
" />
<path d="M165.8443 114.6950
L165.6538 114.7903
" />
<path d="M165.6538 114.7903
L165.2729 114.7903
" />
<path d="M165.2729 114.7903
L165.0824 114.6950
" />
<path d="M165.0824 114.6950
L164.9872 114.5045
" />
<path d="M164.9872 114.5045
L164.9872 113.7426
" />
<path d="M164.9872 113.7426
L165.0824 113.5522
" />
<path d="M165.0824 113.5522
L165.2729 113.4569
" />
<path d="M165.2729 113.4569
L165.6538 113.4569
" />
<path d="M165.6538 113.4569
L165.8443 113.5522
" />
<path d="M165.8443 113.5522
L165.9395 113.7426
" />
<path d="M165.9395 113.7426
L165.9395 113.9331
" />
<path d="M165.9395 113.9331
L164.9872 114.1236
" />
<path d="M166.7014 114.6950
L166.8919 114.7903
" />
<path d="M166.8919 114.7903
L167.2729 114.7903
" />
<path d="M167.2729 114.7903
L167.4633 114.6950
" />
<path d="M167.4633 114.6950
L167.5586 114.5045
" />
<path d="M167.5586 114.5045
L167.5586 114.4093
" />
<path d="M167.5586 114.4093
L167.4633 114.2188
" />
<path d="M167.4633 114.2188
L167.2729 114.1236
" />
<path d="M167.2729 114.1236
L166.9872 114.1236
" />
<path d="M166.9872 114.1236
L166.7967 114.0283
" />
<path d="M166.7967 114.0283
L166.7014 113.8379
" />
<path d="M166.7014 113.8379
L166.7014 113.7426
" />
<path d="M166.7014 113.7426
L166.7967 113.5522
" />
<path d="M166.7967 113.5522
L166.9872 113.4569
" />
<path d="M166.9872 113.4569
L167.2729 113.4569
" />
<path d="M167.2729 113.4569
L167.4633 113.5522
" />
<path d="M168.2253 115.5522
L168.3205 115.4569
" />
<path d="M168.3205 115.4569
L168.5110 115.1712
" />
<path d="M168.5110 115.1712
L168.6062 114.9807
" />
<path d="M168.6062 114.9807
L168.7014 114.6950
" />
<path d="M168.7014 114.6950
L168.7967 114.2188
" />
<path d="M168.7967 114.2188
L168.7967 113.8379
" />
<path d="M168.7967 113.8379
L168.7014 113.3617
" />
<path d="M168.7014 113.3617
L168.6062 113.0760
" />
<path d="M168.6062 113.0760
L168.5110 112.8855
" />
<path d="M168.5110 112.8855
L168.3205 112.5998
" />
<path d="M168.3205 112.5998
L168.2253 112.5045
" />
</g></g>
<g style="fill:none; 
stroke:#000000; stroke-width:0.3000; stroke-opacity:1; 
stroke-linecap:round; stroke-linejoin:round;">
<path d="M117.5698 115.5154
L117.5698 117.5154
" />
<path d="M116.5698 116.5154
L118.5698 116.5154
" />
</g>
<g style="fill:none; 
stroke:#000000; stroke-width:0.2000; stroke-opacity:1; 
stroke-linecap:round; stroke-linejoin:round;">
<text x="120.5698" y="117.5154"
textLength="46.8667" font-size="2.6667" lengthAdjust="spacingAndGlyphs"
text-anchor="start" opacity="0" stroke-opacity="0">1.000mm / 0.0394" (6 holes)</text>
<g class="stroked-text"><desc>1.000mm / 0.0394" (6 holes)</desc>
<path d="M122.2252 117.4303
L121.0824 117.4303
" />
<path d="M121.6538 117.4303
L121.6538 115.4303
" />
<path d="M121.6538 115.4303
L121.4633 115.7160
" />
<path d="M121.4633 115.7160
L121.2728 115.9064
" />
<path d="M121.2728 115.9064
L121.0824 116.0017
" />
<path d="M123.0824 117.2398
L123.1776 117.3350
" />
<path d="M123.1776 117.3350
L123.0824 117.4303
" />
<path d="M123.0824 117.4303
L122.9871 117.3350
" />
<path d="M122.9871 117.3350
L123.0824 117.2398
" />
<path d="M123.0824 117.2398
L123.0824 117.4303
" />
<path d="M124.4157 115.4303
L124.6062 115.4303
" />
<path d="M124.6062 115.4303
L124.7967 115.5255
" />
<path d="M124.7967 115.5255
L124.8919 115.6207
" />
<path d="M124.8919 115.6207
L124.9871 115.8112
" />
<path d="M124.9871 115.8112
L125.0824 116.1922
" />
<path d="M125.0824 116.1922
L125.0824 116.6683
" />
<path d="M125.0824 116.6683
L124.9871 117.0493
" />
<path d="M124.9871 117.0493
L124.8919 117.2398
" />
<path d="M124.8919 117.2398
L124.7967 117.3350
" />
<path d="M124.7967 117.3350
L124.6062 117.4303
" />
<path d="M124.6062 117.4303
L124.4157 117.4303
" />
<path d="M124.4157 117.4303
L124.2252 117.3350
" />
<path d="M124.2252 117.3350
L124.1300 117.2398
" />
<path d="M124.1300 117.2398
L124.0348 117.0493
" />
<path d="M124.0348 117.0493
L123.9395 116.6683
" />
<path d="M123.9395 116.6683
L123.9395 116.1922
" />
<path d="M123.9395 116.1922
L124.0348 115.8112
" />
<path d="M124.0348 115.8112
L124.1300 115.6207
" />
<path d="M124.1300 115.6207
L124.2252 115.5255
" />
<path d="M124.2252 115.5255
L124.4157 115.4303
" />
<path d="M126.3205 115.4303
L126.5109 115.4303
" />
<path d="M126.5109 115.4303
L126.7014 115.5255
" />
<path d="M126.7014 115.5255
L126.7967 115.6207
" />
<path d="M126.7967 115.6207
L126.8919 115.8112
" />
<path d="M126.8919 115.8112
L126.9871 116.1922
" />
<path d="M126.9871 116.1922
L126.9871 116.6683
" />
<path d="M126.9871 116.6683
L126.8919 117.0493
" />
<path d="M126.8919 117.0493
L126.7967 117.2398
" />
<path d="M126.7967 117.2398
L126.7014 117.3350
" />
<path d="M126.7014 117.3350
L126.5109 117.4303
" />
<path d="M126.5109 117.4303
L126.3205 117.4303
" />
<path d="M126.3205 117.4303
L126.1300 117.3350
" />
<path d="M126.1300 117.3350
L126.0348 117.2398
" />
<path d="M126.0348 117.2398
L125.9395 117.0493
" />
<path d="M125.9395 117.0493
L125.8443 116.6683
" />
<path d="M125.8443 116.6683
L125.8443 116.1922
" />
<path d="M125.8443 116.1922
L125.9395 115.8112
" />
<path d="M125.9395 115.8112
L126.0348 115.6207
" />
<path d="M126.0348 115.6207
L126.1300 115.5255
" />
<path d="M126.1300 115.5255
L126.3205 115.4303
" />
<path d="M128.2252 115.4303
L128.4157 115.4303
" />
<path d="M128.4157 115.4303
L128.6062 115.5255
" />
<path d="M128.6062 115.5255
L128.7014 115.6207
" />
<path d="M128.7014 115.6207
L128.7967 115.8112
" />
<path d="M128.7967 115.8112
L128.8919 116.1922
" />
<path d="M128.8919 116.1922
L128.8919 116.6683
" />
<path d="M128.8919 116.6683
L128.7967 117.0493
" />
<path d="M128.7967 117.0493
L128.7014 117.2398
" />
<path d="M128.7014 117.2398
L128.6062 117.3350
" />
<path d="M128.6062 117.3350
L128.4157 117.4303
" />
<path d="M128.4157 117.4303
L128.2252 117.4303
" />
<path d="M128.2252 117.4303
L128.0348 117.3350
" />
<path d="M128.0348 117.3350
L127.9395 117.2398
" />
<path d="M127.9395 117.2398
L127.8443 117.0493
" />
<path d="M127.8443 117.0493
L127.7490 116.6683
" />
<path d="M127.7490 116.6683
L127.7490 116.1922
" />
<path d="M127.7490 116.1922
L127.8443 115.8112
" />
<path d="M127.8443 115.8112
L127.9395 115.6207
" />
<path d="M127.9395 115.6207
L128.0348 115.5255
" />
<path d="M128.0348 115.5255
L128.2252 115.4303
" />
<path d="M129.7490 117.4303
L129.7490 116.0969
" />
<path d="M129.7490 116.2874
L129.8443 116.1922
" />
<path d="M129.8443 116.1922
L130.0348 116.0969
" />
<path d="M130.0348 116.0969
L130.3205 116.0969
" />
<path d="M130.3205 116.0969
L130.5109 116.1922
" />
<path d="M130.5109 116.1922
L130.6062 116.3826
" />
<path d="M130.6062 116.3826
L130.6062 117.4303
" />
<path d="M130.6062 116.3826
L130.7014 116.1922
" />
<path d="M130.7014 116.1922
L130.8919 116.0969
" />
<path d="M130.8919 116.0969
L131.1776 116.0969
" />
<path d="M131.1776 116.0969
L131.3681 116.1922
" />
<path d="M131.3681 116.1922
L131.4633 116.3826
" />
<path d="M131.4633 116.3826
L131.4633 117.4303
" />
<path d="M132.4157 117.4303
L132.4157 116.0969
" />
<path d="M132.4157 116.2874
L132.5109 116.1922
" />
<path d="M132.5109 116.1922
L132.7014 116.0969
" />
<path d="M132.7014 116.0969
L132.9871 116.0969
" />
<path d="M132.9871 116.0969
L133.1776 116.1922
" />
<path d="M133.1776 116.1922
L133.2728 116.3826
" />
<path d="M133.2728 116.3826
L133.2728 117.4303
" />
<path d="M133.2728 116.3826
L133.3681 116.1922
" />
<path d="M133.3681 116.1922
L133.5586 116.0969
" />
<path d="M133.5586 116.0969
L133.8443 116.0969
" />
<path d="M133.8443 116.0969
L134.0348 116.1922
" />
<path d="M134.0348 116.1922
L134.1300 116.3826
" />
<path d="M134.1300 116.3826
L134.1300 117.4303
" />
<path d="M138.0348 115.3350
L136.3205 117.9064
" />
<path d="M140.6062 115.4303
L140.7967 115.4303
" />
<path d="M140.7967 115.4303
L140.9871 115.5255
" />
<path d="M140.9871 115.5255
L141.0824 115.6207
" />
<path d="M141.0824 115.6207
L141.1776 115.8112
" />
<path d="M141.1776 115.8112
L141.2729 116.1922
" />
<path d="M141.2729 116.1922
L141.2729 116.6683
" />
<path d="M141.2729 116.6683
L141.1776 117.0493
" />
<path d="M141.1776 117.0493
L141.0824 117.2398
" />
<path d="M141.0824 117.2398
L140.9871 117.3350
" />
<path d="M140.9871 117.3350
L140.7967 117.4303
" />
<path d="M140.7967 117.4303
L140.6062 117.4303
" />
<path d="M140.6062 117.4303
L140.4157 117.3350
" />
<path d="M140.4157 117.3350
L140.3205 117.2398
" />
<path d="M140.3205 117.2398
L140.2252 117.0493
" />
<path d="M140.2252 117.0493
L140.1300 116.6683
" />
<path d="M140.1300 116.6683
L140.1300 116.1922
" />
<path d="M140.1300 116.1922
L140.2252 115.8112
" />
<path d="M140.2252 115.8112
L140.3205 115.6207
" />
<path d="M140.3205 115.6207
L140.4157 115.5255
" />
<path d="M140.4157 115.5255
L140.6062 115.4303
" />
<path d="M142.1300 117.2398
L142.2252 117.3350
" />
<path d="M142.2252 117.3350
L142.1300 117.4303
" />
<path d="M142.1300 117.4303
L142.0348 117.3350
" />
<path d="M142.0348 117.3350
L142.1300 117.2398
" />
<path d="M142.1300 117.2398
L142.1300 117.4303
" />
<path d="M143.4633 115.4303
L143.6538 115.4303
" />
<path d="M143.6538 115.4303
L143.8443 115.5255
" />
<path d="M143.8443 115.5255
L143.9395 115.6207
" />
<path d="M143.9395 115.6207
L144.0348 115.8112
" />
<path d="M144.0348 115.8112
L144.1300 116.1922
" />
<path d="M144.1300 116.1922
L144.1300 116.6683
" />
<path d="M144.1300 116.6683
L144.0348 117.0493
" />
<path d="M144.0348 117.0493
L143.9395 117.2398
" />
<path d="M143.9395 117.2398
L143.8443 117.3350
" />
<path d="M143.8443 117.3350
L143.6538 117.4303
" />
<path d="M143.6538 117.4303
L143.4633 117.4303
" />
<path d="M143.4633 117.4303
L143.2729 117.3350
" />
<path d="M143.2729 117.3350
L143.1776 117.2398
" />
<path d="M143.1776 117.2398
L143.0824 117.0493
" />
<path d="M143.0824 117.0493
L142.9871 116.6683
" />
<path d="M142.9871 116.6683
L142.9871 116.1922
" />
<path d="M142.9871 116.1922
L143.0824 115.8112
" />
<path d="M143.0824 115.8112
L143.1776 115.6207
" />
<path d="M143.1776 115.6207
L143.2729 115.5255
" />
<path d="M143.2729 115.5255
L143.4633 115.4303
" />
<path d="M144.7967 115.4303
L146.0348 115.4303
" />
<path d="M146.0348 115.4303
L145.3681 116.1922
" />
<path d="M145.3681 116.1922
L145.6538 116.1922
" />
<path d="M145.6538 116.1922
L145.8443 116.2874
" />
<path d="M145.8443 116.2874
L145.9395 116.3826
" />
<path d="M145.9395 116.3826
L146.0348 116.5731
" />
<path d="M146.0348 116.5731
L146.0348 117.0493
" />
<path d="M146.0348 117.0493
L145.9395 117.2398
" />
<path d="M145.9395 117.2398
L145.8443 117.3350
" />
<path d="M145.8443 117.3350
L145.6538 117.4303
" />
<path d="M145.6538 117.4303
L145.0824 117.4303
" />
<path d="M145.0824 117.4303
L144.8919 117.3350
" />
<path d="M144.8919 117.3350
L144.7967 117.2398
" />
<path d="M146.9871 117.4303
L147.3681 117.4303
" />
<path d="M147.3681 117.4303
L147.5586 117.3350
" />
<path d="M147.5586 117.3350
L147.6538 117.2398
" />
<path d="M147.6538 117.2398
L147.8443 116.9541
" />
<path d="M147.8443 116.9541
L147.9395 116.5731
" />
<path d="M147.9395 116.5731
L147.9395 115.8112
" />
<path d="M147.9395 115.8112
L147.8443 115.6207
" />
<path d="M147.8443 115.6207
L147.7490 115.5255
" />
<path d="M147.7490 115.5255
L147.5586 115.4303
" />
<path d="M147.5586 115.4303
L147.1776 115.4303
" />
<path d="M147.1776 115.4303
L146.9871 115.5255
" />
<path d="M146.9871 115.5255
L146.8919 115.6207
" />
<path d="M146.8919 115.6207
L146.7967 115.8112
" />
<path d="M146.7967 115.8112
L146.7967 116.2874
" />
<path d="M146.7967 116.2874
L146.8919 116.4779
" />
<path d="M146.8919 116.4779
L146.9871 116.5731
" />
<path d="M146.9871 116.5731
L147.1776 116.6683
" />
<path d="M147.1776 116.6683
L147.5586 116.6683
" />
<path d="M147.5586 116.6683
L147.7490 116.5731
" />
<path d="M147.7490 116.5731
L147.8443 116.4779
" />
<path d="M147.8443 116.4779
L147.9395 116.2874
" />
<path d="M149.6538 116.0969
L149.6538 117.4303
" />
<path d="M149.1776 115.3350
L148.7014 116.7636
" />
<path d="M148.7014 116.7636
L149.9395 116.7636
" />
<path d="M150.6062 115.4303
L150.6062 115.8112
" />
<path d="M151.3681 115.4303
L151.3681 115.8112
" />
<path d="M154.3205 118.1922
L154.2252 118.0969
" />
<path d="M154.2252 118.0969
L154.0348 117.8112
" />
<path d="M154.0348 117.8112
L153.9395 117.6207
" />
<path d="M153.9395 117.6207
L153.8443 117.3350
" />
<path d="M153.8443 117.3350
L153.7491 116.8588
" />
<path d="M153.7491 116.8588
L153.7491 116.4779
" />
<path d="M153.7491 116.4779
L153.8443 116.0017
" />
<path d="M153.8443 116.0017
L153.9395 115.7160
" />
<path d="M153.9395 115.7160
L154.0348 115.5255
" />
<path d="M154.0348 115.5255
L154.2252 115.2398
" />
<path d="M154.2252 115.2398
L154.3205 115.1445
" />
<path d="M155.9395 115.4303
L155.5586 115.4303
" />
<path d="M155.5586 115.4303
L155.3681 115.5255
" />
<path d="M155.3681 115.5255
L155.2729 115.6207
" />
<path d="M155.2729 115.6207
L155.0824 115.9064
" />
<path d="M155.0824 115.9064
L154.9871 116.2874
" />
<path d="M154.9871 116.2874
L154.9871 117.0493
" />
<path d="M154.9871 117.0493
L155.0824 117.2398
" />
<path d="M155.0824 117.2398
L155.1776 117.3350
" />
<path d="M155.1776 117.3350
L155.3681 117.4303
" />
<path d="M155.3681 117.4303
L155.7491 117.4303
" />
<path d="M155.7491 117.4303
L155.9395 117.3350
" />
<path d="M155.9395 117.3350
L156.0348 117.2398
" />
<path d="M156.0348 117.2398
L156.1300 117.0493
" />
<path d="M156.1300 117.0493
L156.1300 116.5731
" />
<path d="M156.1300 116.5731
L156.0348 116.3826
" />
<path d="M156.0348 116.3826
L155.9395 116.2874
" />
<path d="M155.9395 116.2874
L155.7491 116.1922
" />
<path d="M155.7491 116.1922
L155.3681 116.1922
" />
<path d="M155.3681 116.1922
L155.1776 116.2874
" />
<path d="M155.1776 116.2874
L155.0824 116.3826
" />
<path d="M155.0824 116.3826
L154.9871 116.5731
" />
<path d="M158.5110 117.4303
L158.5110 115.4303
" />
<path d="M159.3681 117.4303
L159.3681 116.3826
" />
<path d="M159.3681 116.3826
L159.2729 116.1922
" />
<path d="M159.2729 116.1922
L159.0824 116.0969
" />
<path d="M159.0824 116.0969
L158.7967 116.0969
" />
<path d="M158.7967 116.0969
L158.6062 116.1922
" />
<path d="M158.6062 116.1922
L158.5110 116.2874
" />
<path d="M160.6062 117.4303
L160.4157 117.3350
" />
<path d="M160.4157 117.3350
L160.3205 117.2398
" />
<path d="M160.3205 117.2398
L160.2252 117.0493
" />
<path d="M160.2252 117.0493
L160.2252 116.4779
" />
<path d="M160.2252 116.4779
L160.3205 116.2874
" />
<path d="M160.3205 116.2874
L160.4157 116.1922
" />
<path d="M160.4157 116.1922
L160.6062 116.0969
" />
<path d="M160.6062 116.0969
L160.8919 116.0969
" />
<path d="M160.8919 116.0969
L161.0824 116.1922
" />
<path d="M161.0824 116.1922
L161.1776 116.2874
" />
<path d="M161.1776 116.2874
L161.2729 116.4779
" />
<path d="M161.2729 116.4779
L161.2729 117.0493
" />
<path d="M161.2729 117.0493
L161.1776 117.2398
" />
<path d="M161.1776 117.2398
L161.0824 117.3350
" />
<path d="M161.0824 117.3350
L160.8919 117.4303
" />
<path d="M160.8919 117.4303
L160.6062 117.4303
" />
<path d="M162.4157 117.4303
L162.2252 117.3350
" />
<path d="M162.2252 117.3350
L162.1300 117.1445
" />
<path d="M162.1300 117.1445
L162.1300 115.4303
" />
<path d="M163.9395 117.3350
L163.7491 117.4303
" />
<path d="M163.7491 117.4303
L163.3681 117.4303
" />
<path d="M163.3681 117.4303
L163.1776 117.3350
" />
<path d="M163.1776 117.3350
L163.0824 117.1445
" />
<path d="M163.0824 117.1445
L163.0824 116.3826
" />
<path d="M163.0824 116.3826
L163.1776 116.1922
" />
<path d="M163.1776 116.1922
L163.3681 116.0969
" />
<path d="M163.3681 116.0969
L163.7491 116.0969
" />
<path d="M163.7491 116.0969
L163.9395 116.1922
" />
<path d="M163.9395 116.1922
L164.0348 116.3826
" />
<path d="M164.0348 116.3826
L164.0348 116.5731
" />
<path d="M164.0348 116.5731
L163.0824 116.7636
" />
<path d="M164.7967 117.3350
L164.9872 117.4303
" />
<path d="M164.9872 117.4303
L165.3681 117.4303
" />
<path d="M165.3681 117.4303
L165.5586 117.3350
" />
<path d="M165.5586 117.3350
L165.6538 117.1445
" />
<path d="M165.6538 117.1445
L165.6538 117.0493
" />
<path d="M165.6538 117.0493
L165.5586 116.8588
" />
<path d="M165.5586 116.8588
L165.3681 116.7636
" />
<path d="M165.3681 116.7636
L165.0824 116.7636
" />
<path d="M165.0824 116.7636
L164.8919 116.6683
" />
<path d="M164.8919 116.6683
L164.7967 116.4779
" />
<path d="M164.7967 116.4779
L164.7967 116.3826
" />
<path d="M164.7967 116.3826
L164.8919 116.1922
" />
<path d="M164.8919 116.1922
L165.0824 116.0969
" />
<path d="M165.0824 116.0969
L165.3681 116.0969
" />
<path d="M165.3681 116.0969
L165.5586 116.1922
" />
<path d="M166.3205 118.1922
L166.4157 118.0969
" />
<path d="M166.4157 118.0969
L166.6062 117.8112
" />
<path d="M166.6062 117.8112
L166.7014 117.6207
" />
<path d="M166.7014 117.6207
L166.7967 117.3350
" />
<path d="M166.7967 117.3350
L166.8919 116.8588
" />
<path d="M166.8919 116.8588
L166.8919 116.4779
" />
<path d="M166.8919 116.4779
L166.7967 116.0017
" />
<path d="M166.7967 116.0017
L166.7014 115.7160
" />
<path d="M166.7014 115.7160
L166.6062 115.5255
" />
<path d="M166.6062 115.5255
L166.4157 115.2398
" />
<path d="M166.4157 115.2398
L166.3205 115.1445
" />
</g><path style="fill:none; 
stroke:#000000; stroke-width:0.3000; stroke-opacity:1; 
stroke-linecap:round; stroke-linejoin:round;fill:none"
d="M 118.2770,120.4225
118.2770,119.0083
116.8627,119.0083
116.8627,120.4225
Z" /> 
</g>
<g style="fill:none; 
stroke:#000000; stroke-width:0.2000; stroke-opacity:1; 
stroke-linecap:round; stroke-linejoin:round;">
<text x="120.5698" y="120.7154"
textLength="46.8667" font-size="2.6667" lengthAdjust="spacingAndGlyphs"
text-anchor="start" opacity="0" stroke-opacity="0">3.000mm / 0.1181" (2 holes)</text>
<g class="stroked-text"><desc>3.000mm / 0.1181" (2 holes)</desc>
<path d="M120.9871 118.6303
L122.2252 118.6303
" />
<path d="M122.2252 118.6303
L121.5586 119.3922
" />
<path d="M121.5586 119.3922
L121.8443 119.3922
" />
<path d="M121.8443 119.3922
L122.0347 119.4874
" />
<path d="M122.0347 119.4874
L122.1300 119.5826
" />
<path d="M122.1300 119.5826
L122.2252 119.7731
" />
<path d="M122.2252 119.7731
L122.2252 120.2493
" />
<path d="M122.2252 120.2493
L122.1300 120.4398
" />
<path d="M122.1300 120.4398
L122.0347 120.5350
" />
<path d="M122.0347 120.5350
L121.8443 120.6303
" />
<path d="M121.8443 120.6303
L121.2728 120.6303
" />
<path d="M121.2728 120.6303
L121.0824 120.5350
" />
<path d="M121.0824 120.5350
L120.9871 120.4398
" />
<path d="M123.0824 120.4398
L123.1776 120.5350
" />
<path d="M123.1776 120.5350
L123.0824 120.6303
" />
<path d="M123.0824 120.6303
L122.9871 120.5350
" />
<path d="M122.9871 120.5350
L123.0824 120.4398
" />
<path d="M123.0824 120.4398
L123.0824 120.6303
" />
<path d="M124.4157 118.6303
L124.6062 118.6303
" />
<path d="M124.6062 118.6303
L124.7967 118.7255
" />
<path d="M124.7967 118.7255
L124.8919 118.8207
" />
<path d="M124.8919 118.8207
L124.9871 119.0112
" />
<path d="M124.9871 119.0112
L125.0824 119.3922
" />
<path d="M125.0824 119.3922
L125.0824 119.8683
" />
<path d="M125.0824 119.8683
L124.9871 120.2493
" />
<path d="M124.9871 120.2493
L124.8919 120.4398
" />
<path d="M124.8919 120.4398
L124.7967 120.5350
" />
<path d="M124.7967 120.5350
L124.6062 120.6303
" />
<path d="M124.6062 120.6303
L124.4157 120.6303
" />
<path d="M124.4157 120.6303
L124.2252 120.5350
" />
<path d="M124.2252 120.5350
L124.1300 120.4398
" />
<path d="M124.1300 120.4398
L124.0348 120.2493
" />
<path d="M124.0348 120.2493
L123.9395 119.8683
" />
<path d="M123.9395 119.8683
L123.9395 119.3922
" />
<path d="M123.9395 119.3922
L124.0348 119.0112
" />
<path d="M124.0348 119.0112
L124.1300 118.8207
" />
<path d="M124.1300 118.8207
L124.2252 118.7255
" />
<path d="M124.2252 118.7255
L124.4157 118.6303
" />
<path d="M126.3205 118.6303
L126.5109 118.6303
" />
<path d="M126.5109 118.6303
L126.7014 118.7255
" />
<path d="M126.7014 118.7255
L126.7967 118.8207
" />
<path d="M126.7967 118.8207
L126.8919 119.0112
" />
<path d="M126.8919 119.0112
L126.9871 119.3922
" />
<path d="M126.9871 119.3922
L126.9871 119.8683
" />
<path d="M126.9871 119.8683
L126.8919 120.2493
" />
<path d="M126.8919 120.2493
L126.7967 120.4398
" />
<path d="M126.7967 120.4398
L126.7014 120.5350
" />
<path d="M126.7014 120.5350
L126.5109 120.6303
" />
<path d="M126.5109 120.6303
L126.3205 120.6303
" />
<path d="M126.3205 120.6303
L126.1300 120.5350
" />
<path d="M126.1300 120.5350
L126.0348 120.4398
" />
<path d="M126.0348 120.4398
L125.9395 120.2493
" />
<path d="M125.9395 120.2493
L125.8443 119.8683
" />
<path d="M125.8443 119.8683
L125.8443 119.3922
" />
<path d="M125.8443 119.3922
L125.9395 119.0112
" />
<path d="M125.9395 119.0112
L126.0348 118.8207
" />
<path d="M126.0348 118.8207
L126.1300 118.7255
" />
<path d="M126.1300 118.7255
L126.3205 118.6303
" />
<path d="M128.2252 118.6303
L128.4157 118.6303
" />
<path d="M128.4157 118.6303
L128.6062 118.7255
" />
<path d="M128.6062 118.7255
L128.7014 118.8207
" />
<path d="M128.7014 118.8207
L128.7967 119.0112
" />
<path d="M128.7967 119.0112
L128.8919 119.3922
" />
<path d="M128.8919 119.3922
L128.8919 119.8683
" />
<path d="M128.8919 119.8683
L128.7967 120.2493
" />
<path d="M128.7967 120.2493
L128.7014 120.4398
" />
<path d="M128.7014 120.4398
L128.6062 120.5350
" />
<path d="M128.6062 120.5350
L128.4157 120.6303
" />
<path d="M128.4157 120.6303
L128.2252 120.6303
" />
<path d="M128.2252 120.6303
L128.0348 120.5350
" />
<path d="M128.0348 120.5350
L127.9395 120.4398
" />
<path d="M127.9395 120.4398
L127.8443 120.2493
" />
<path d="M127.8443 120.2493
L127.7490 119.8683
" />
<path d="M127.7490 119.8683
L127.7490 119.3922
" />
<path d="M127.7490 119.3922
L127.8443 119.0112
" />
<path d="M127.8443 119.0112
L127.9395 118.8207
" />
<path d="M127.9395 118.8207
L128.0348 118.7255
" />
<path d="M128.0348 118.7255
L128.2252 118.6303
" />
<path d="M129.7490 120.6303
L129.7490 119.2969
" />
<path d="M129.7490 119.4874
L129.8443 119.3922
" />
<path d="M129.8443 119.3922
L130.0348 119.2969
" />
<path d="M130.0348 119.2969
L130.3205 119.2969
" />
<path d="M130.3205 119.2969
L130.5109 119.3922
" />
<path d="M130.5109 119.3922
L130.6062 119.5826
" />
<path d="M130.6062 119.5826
L130.6062 120.6303
" />
<path d="M130.6062 119.5826
L130.7014 119.3922
" />
<path d="M130.7014 119.3922
L130.8919 119.2969
" />
<path d="M130.8919 119.2969
L131.1776 119.2969
" />
<path d="M131.1776 119.2969
L131.3681 119.3922
" />
<path d="M131.3681 119.3922
L131.4633 119.5826
" />
<path d="M131.4633 119.5826
L131.4633 120.6303
" />
<path d="M132.4157 120.6303
L132.4157 119.2969
" />
<path d="M132.4157 119.4874
L132.5109 119.3922
" />
<path d="M132.5109 119.3922
L132.7014 119.2969
" />
<path d="M132.7014 119.2969
L132.9871 119.2969
" />
<path d="M132.9871 119.2969
L133.1776 119.3922
" />
<path d="M133.1776 119.3922
L133.2728 119.5826
" />
<path d="M133.2728 119.5826
L133.2728 120.6303
" />
<path d="M133.2728 119.5826
L133.3681 119.3922
" />
<path d="M133.3681 119.3922
L133.5586 119.2969
" />
<path d="M133.5586 119.2969
L133.8443 119.2969
" />
<path d="M133.8443 119.2969
L134.0348 119.3922
" />
<path d="M134.0348 119.3922
L134.1300 119.5826
" />
<path d="M134.1300 119.5826
L134.1300 120.6303
" />
<path d="M138.0348 118.5350
L136.3205 121.1064
" />
<path d="M140.6062 118.6303
L140.7967 118.6303
" />
<path d="M140.7967 118.6303
L140.9871 118.7255
" />
<path d="M140.9871 118.7255
L141.0824 118.8207
" />
<path d="M141.0824 118.8207
L141.1776 119.0112
" />
<path d="M141.1776 119.0112
L141.2729 119.3922
" />
<path d="M141.2729 119.3922
L141.2729 119.8683
" />
<path d="M141.2729 119.8683
L141.1776 120.2493
" />
<path d="M141.1776 120.2493
L141.0824 120.4398
" />
<path d="M141.0824 120.4398
L140.9871 120.5350
" />
<path d="M140.9871 120.5350
L140.7967 120.6303
" />
<path d="M140.7967 120.6303
L140.6062 120.6303
" />
<path d="M140.6062 120.6303
L140.4157 120.5350
" />
<path d="M140.4157 120.5350
L140.3205 120.4398
" />
<path d="M140.3205 120.4398
L140.2252 120.2493
" />
<path d="M140.2252 120.2493
L140.1300 119.8683
" />
<path d="M140.1300 119.8683
L140.1300 119.3922
" />
<path d="M140.1300 119.3922
L140.2252 119.0112
" />
<path d="M140.2252 119.0112
L140.3205 118.8207
" />
<path d="M140.3205 118.8207
L140.4157 118.7255
" />
<path d="M140.4157 118.7255
L140.6062 118.6303
" />
<path d="M142.1300 120.4398
L142.2252 120.5350
" />
<path d="M142.2252 120.5350
L142.1300 120.6303
" />
<path d="M142.1300 120.6303
L142.0348 120.5350
" />
<path d="M142.0348 120.5350
L142.1300 120.4398
" />
<path d="M142.1300 120.4398
L142.1300 120.6303
" />
<path d="M144.1300 120.6303
L142.9871 120.6303
" />
<path d="M143.5586 120.6303
L143.5586 118.6303
" />
<path d="M143.5586 118.6303
L143.3681 118.9160
" />
<path d="M143.3681 118.9160
L143.1776 119.1064
" />
<path d="M143.1776 119.1064
L142.9871 119.2017
" />
<path d="M146.0348 120.6303
L144.8919 120.6303
" />
<path d="M145.4633 120.6303
L145.4633 118.6303
" />
<path d="M145.4633 118.6303
L145.2729 118.9160
" />
<path d="M145.2729 118.9160
L145.0824 119.1064
" />
<path d="M145.0824 119.1064
L144.8919 119.2017
" />
<path d="M147.1776 119.4874
L146.9871 119.3922
" />
<path d="M146.9871 119.3922
L146.8919 119.2969
" />
<path d="M146.8919 119.2969
L146.7967 119.1064
" />
<path d="M146.7967 119.1064
L146.7967 119.0112
" />
<path d="M146.7967 119.0112
L146.8919 118.8207
" />
<path d="M146.8919 118.8207
L146.9871 118.7255
" />
<path d="M146.9871 118.7255
L147.1776 118.6303
" />
<path d="M147.1776 118.6303
L147.5586 118.6303
" />
<path d="M147.5586 118.6303
L147.7490 118.7255
" />
<path d="M147.7490 118.7255
L147.8443 118.8207
" />
<path d="M147.8443 118.8207
L147.9395 119.0112
" />
<path d="M147.9395 119.0112
L147.9395 119.1064
" />
<path d="M147.9395 119.1064
L147.8443 119.2969
" />
<path d="M147.8443 119.2969
L147.7490 119.3922
" />
<path d="M147.7490 119.3922
L147.5586 119.4874
" />
<path d="M147.5586 119.4874
L147.1776 119.4874
" />
<path d="M147.1776 119.4874
L146.9871 119.5826
" />
<path d="M146.9871 119.5826
L146.8919 119.6779
" />
<path d="M146.8919 119.6779
L146.7967 119.8683
" />
<path d="M146.7967 119.8683
L146.7967 120.2493
" />
<path d="M146.7967 120.2493
L146.8919 120.4398
" />
<path d="M146.8919 120.4398
L146.9871 120.5350
" />
<path d="M146.9871 120.5350
L147.1776 120.6303
" />
<path d="M147.1776 120.6303
L147.5586 120.6303
" />
<path d="M147.5586 120.6303
L147.7490 120.5350
" />
<path d="M147.7490 120.5350
L147.8443 120.4398
" />
<path d="M147.8443 120.4398
L147.9395 120.2493
" />
<path d="M147.9395 120.2493
L147.9395 119.8683
" />
<path d="M147.9395 119.8683
L147.8443 119.6779
" />
<path d="M147.8443 119.6779
L147.7490 119.5826
" />
<path d="M147.7490 119.5826
L147.5586 119.4874
" />
<path d="M149.8443 120.6303
L148.7014 120.6303
" />
<path d="M149.2729 120.6303
L149.2729 118.6303
" />
<path d="M149.2729 118.6303
L149.0824 118.9160
" />
<path d="M149.0824 118.9160
L148.8919 119.1064
" />
<path d="M148.8919 119.1064
L148.7014 119.2017
" />
<path d="M150.6062 118.6303
L150.6062 119.0112
" />
<path d="M151.3681 118.6303
L151.3681 119.0112
" />
<path d="M154.3205 121.3922
L154.2252 121.2969
" />
<path d="M154.2252 121.2969
L154.0348 121.0112
" />
<path d="M154.0348 121.0112
L153.9395 120.8207
" />
<path d="M153.9395 120.8207
L153.8443 120.5350
" />
<path d="M153.8443 120.5350
L153.7491 120.0588
" />
<path d="M153.7491 120.0588
L153.7491 119.6779
" />
<path d="M153.7491 119.6779
L153.8443 119.2017
" />
<path d="M153.8443 119.2017
L153.9395 118.9160
" />
<path d="M153.9395 118.9160
L154.0348 118.7255
" />
<path d="M154.0348 118.7255
L154.2252 118.4398
" />
<path d="M154.2252 118.4398
L154.3205 118.3445
" />
<path d="M154.9871 118.8207
L155.0824 118.7255
" />
<path d="M155.0824 118.7255
L155.2729 118.6303
" />
<path d="M155.2729 118.6303
L155.7491 118.6303
" />
<path d="M155.7491 118.6303
L155.9395 118.7255
" />
<path d="M155.9395 118.7255
L156.0348 118.8207
" />
<path d="M156.0348 118.8207
L156.1300 119.0112
" />
<path d="M156.1300 119.0112
L156.1300 119.2017
" />
<path d="M156.1300 119.2017
L156.0348 119.4874
" />
<path d="M156.0348 119.4874
L154.8919 120.6303
" />
<path d="M154.8919 120.6303
L156.1300 120.6303
" />
<path d="M158.5110 120.6303
L158.5110 118.6303
" />
<path d="M159.3681 120.6303
L159.3681 119.5826
" />
<path d="M159.3681 119.5826
L159.2729 119.3922
" />
<path d="M159.2729 119.3922
L159.0824 119.2969
" />
<path d="M159.0824 119.2969
L158.7967 119.2969
" />
<path d="M158.7967 119.2969
L158.6062 119.3922
" />
<path d="M158.6062 119.3922
L158.5110 119.4874
" />
<path d="M160.6062 120.6303
L160.4157 120.5350
" />
<path d="M160.4157 120.5350
L160.3205 120.4398
" />
<path d="M160.3205 120.4398
L160.2252 120.2493
" />
<path d="M160.2252 120.2493
L160.2252 119.6779
" />
<path d="M160.2252 119.6779
L160.3205 119.4874
" />
<path d="M160.3205 119.4874
L160.4157 119.3922
" />
<path d="M160.4157 119.3922
L160.6062 119.2969
" />
<path d="M160.6062 119.2969
L160.8919 119.2969
" />
<path d="M160.8919 119.2969
L161.0824 119.3922
" />
<path d="M161.0824 119.3922
L161.1776 119.4874
" />
<path d="M161.1776 119.4874
L161.2729 119.6779
" />
<path d="M161.2729 119.6779
L161.2729 120.2493
" />
<path d="M161.2729 120.2493
L161.1776 120.4398
" />
<path d="M161.1776 120.4398
L161.0824 120.5350
" />
<path d="M161.0824 120.5350
L160.8919 120.6303
" />
<path d="M160.8919 120.6303
L160.6062 120.6303
" />
<path d="M162.4157 120.6303
L162.2252 120.5350
" />
<path d="M162.2252 120.5350
L162.1300 120.3445
" />
<path d="M162.1300 120.3445
L162.1300 118.6303
" />
<path d="M163.9395 120.5350
L163.7491 120.6303
" />
<path d="M163.7491 120.6303
L163.3681 120.6303
" />
<path d="M163.3681 120.6303
L163.1776 120.5350
" />
<path d="M163.1776 120.5350
L163.0824 120.3445
" />
<path d="M163.0824 120.3445
L163.0824 119.5826
" />
<path d="M163.0824 119.5826
L163.1776 119.3922
" />
<path d="M163.1776 119.3922
L163.3681 119.2969
" />
<path d="M163.3681 119.2969
L163.7491 119.2969
" />
<path d="M163.7491 119.2969
L163.9395 119.3922
" />
<path d="M163.9395 119.3922
L164.0348 119.5826
" />
<path d="M164.0348 119.5826
L164.0348 119.7731
" />
<path d="M164.0348 119.7731
L163.0824 119.9636
" />
<path d="M164.7967 120.5350
L164.9872 120.6303
" />
<path d="M164.9872 120.6303
L165.3681 120.6303
" />
<path d="M165.3681 120.6303
L165.5586 120.5350
" />
<path d="M165.5586 120.5350
L165.6538 120.3445
" />
<path d="M165.6538 120.3445
L165.6538 120.2493
" />
<path d="M165.6538 120.2493
L165.5586 120.0588
" />
<path d="M165.5586 120.0588
L165.3681 119.9636
" />
<path d="M165.3681 119.9636
L165.0824 119.9636
" />
<path d="M165.0824 119.9636
L164.8919 119.8683
" />
<path d="M164.8919 119.8683
L164.7967 119.6779
" />
<path d="M164.7967 119.6779
L164.7967 119.5826
" />
<path d="M164.7967 119.5826
L164.8919 119.3922
" />
<path d="M164.8919 119.3922
L165.0824 119.2969
" />
<path d="M165.0824 119.2969
L165.3681 119.2969
" />
<path d="M165.3681 119.2969
L165.5586 119.3922
" />
<path d="M166.3205 121.3922
L166.4157 121.2969
" />
<path d="M166.4157 121.2969
L166.6062 121.0112
" />
<path d="M166.6062 121.0112
L166.7014 120.8207
" />
<path d="M166.7014 120.8207
L166.7967 120.5350
" />
<path d="M166.7967 120.5350
L166.8919 120.0588
" />
<path d="M166.8919 120.0588
L166.8919 119.6779
" />
<path d="M166.8919 119.6779
L166.7967 119.2017
" />
<path d="M166.7967 119.2017
L166.7014 118.9160
" />
<path d="M166.7014 118.9160
L166.6062 118.7255
" />
<path d="M166.6062 118.7255
L166.4157 118.4398
" />
<path d="M166.4157 118.4398
L166.3205 118.3445
" />
</g><path style="fill:none; 
stroke:#000000; stroke-width:0.3000; stroke-opacity:1; 
stroke-linecap:round; stroke-linejoin:round;fill:none"
d="M 117.5698,123.9154
118.5698,122.9154
117.5698,121.9154
116.5698,122.9154
Z" /> 
</g>
<g style="fill:none; 
stroke:#000000; stroke-width:0.2000; stroke-opacity:1; 
stroke-linecap:round; stroke-linejoin:round;">
<text x="120.5698" y="123.9154"
textLength="66.6762" font-size="2.6667" lengthAdjust="spacingAndGlyphs"
text-anchor="start" opacity="0" stroke-opacity="0">3.400mm / 0.1339" (2 holes) (not plated)</text>
<g class="stroked-text"><desc>3.400mm / 0.1339" (2 holes) (not plated)</desc>
<path d="M120.9871 121.8303
L122.2252 121.8303
" />
<path d="M122.2252 121.8303
L121.5586 122.5922
" />
<path d="M121.5586 122.5922
L121.8443 122.5922
" />
<path d="M121.8443 122.5922
L122.0347 122.6874
" />
<path d="M122.0347 122.6874
L122.1300 122.7826
" />
<path d="M122.1300 122.7826
L122.2252 122.9731
" />
<path d="M122.2252 122.9731
L122.2252 123.4493
" />
<path d="M122.2252 123.4493
L122.1300 123.6398
" />
<path d="M122.1300 123.6398
L122.0347 123.7350
" />
<path d="M122.0347 123.7350
L121.8443 123.8303
" />
<path d="M121.8443 123.8303
L121.2728 123.8303
" />
<path d="M121.2728 123.8303
L121.0824 123.7350
" />
<path d="M121.0824 123.7350
L120.9871 123.6398
" />
<path d="M123.0824 123.6398
L123.1776 123.7350
" />
<path d="M123.1776 123.7350
L123.0824 123.8303
" />
<path d="M123.0824 123.8303
L122.9871 123.7350
" />
<path d="M122.9871 123.7350
L123.0824 123.6398
" />
<path d="M123.0824 123.6398
L123.0824 123.8303
" />
<path d="M124.8919 122.4969
L124.8919 123.8303
" />
<path d="M124.4157 121.7350
L123.9395 123.1636
" />
<path d="M123.9395 123.1636
L125.1776 123.1636
" />
<path d="M126.3205 121.8303
L126.5109 121.8303
" />
<path d="M126.5109 121.8303
L126.7014 121.9255
" />
<path d="M126.7014 121.9255
L126.7967 122.0207
" />
<path d="M126.7967 122.0207
L126.8919 122.2112
" />
<path d="M126.8919 122.2112
L126.9871 122.5922
" />
<path d="M126.9871 122.5922
L126.9871 123.0683
" />
<path d="M126.9871 123.0683
L126.8919 123.4493
" />
<path d="M126.8919 123.4493
L126.7967 123.6398
" />
<path d="M126.7967 123.6398
L126.7014 123.7350
" />
<path d="M126.7014 123.7350
L126.5109 123.8303
" />
<path d="M126.5109 123.8303
L126.3205 123.8303
" />
<path d="M126.3205 123.8303
L126.1300 123.7350
" />
<path d="M126.1300 123.7350
L126.0348 123.6398
" />
<path d="M126.0348 123.6398
L125.9395 123.4493
" />
<path d="M125.9395 123.4493
L125.8443 123.0683
" />
<path d="M125.8443 123.0683
L125.8443 122.5922
" />
<path d="M125.8443 122.5922
L125.9395 122.2112
" />
<path d="M125.9395 122.2112
L126.0348 122.0207
" />
<path d="M126.0348 122.0207
L126.1300 121.9255
" />
<path d="M126.1300 121.9255
L126.3205 121.8303
" />
<path d="M128.2252 121.8303
L128.4157 121.8303
" />
<path d="M128.4157 121.8303
L128.6062 121.9255
" />
<path d="M128.6062 121.9255
L128.7014 122.0207
" />
<path d="M128.7014 122.0207
L128.7967 122.2112
" />
<path d="M128.7967 122.2112
L128.8919 122.5922
" />
<path d="M128.8919 122.5922
L128.8919 123.0683
" />
<path d="M128.8919 123.0683
L128.7967 123.4493
" />
<path d="M128.7967 123.4493
L128.7014 123.6398
" />
<path d="M128.7014 123.6398
L128.6062 123.7350
" />
<path d="M128.6062 123.7350
L128.4157 123.8303
" />
<path d="M128.4157 123.8303
L128.2252 123.8303
" />
<path d="M128.2252 123.8303
L128.0348 123.7350
" />
<path d="M128.0348 123.7350
L127.9395 123.6398
" />
<path d="M127.9395 123.6398
L127.8443 123.4493
" />
<path d="M127.8443 123.4493
L127.7490 123.0683
" />
<path d="M127.7490 123.0683
L127.7490 122.5922
" />
<path d="M127.7490 122.5922
L127.8443 122.2112
" />
<path d="M127.8443 122.2112
L127.9395 122.0207
" />
<path d="M127.9395 122.0207
L128.0348 121.9255
" />
<path d="M128.0348 121.9255
L128.2252 121.8303
" />
<path d="M129.7490 123.8303
L129.7490 122.4969
" />
<path d="M129.7490 122.6874
L129.8443 122.5922
" />
<path d="M129.8443 122.5922
L130.0348 122.4969
" />
<path d="M130.0348 122.4969
L130.3205 122.4969
" />
<path d="M130.3205 122.4969
L130.5109 122.5922
" />
<path d="M130.5109 122.5922
L130.6062 122.7826
" />
<path d="M130.6062 122.7826
L130.6062 123.8303
" />
<path d="M130.6062 122.7826
L130.7014 122.5922
" />
<path d="M130.7014 122.5922
L130.8919 122.4969
" />
<path d="M130.8919 122.4969
L131.1776 122.4969
" />
<path d="M131.1776 122.4969
L131.3681 122.5922
" />
<path d="M131.3681 122.5922
L131.4633 122.7826
" />
<path d="M131.4633 122.7826
L131.4633 123.8303
" />
<path d="M132.4157 123.8303
L132.4157 122.4969
" />
<path d="M132.4157 122.6874
L132.5109 122.5922
" />
<path d="M132.5109 122.5922
L132.7014 122.4969
" />
<path d="M132.7014 122.4969
L132.9871 122.4969
" />
<path d="M132.9871 122.4969
L133.1776 122.5922
" />
<path d="M133.1776 122.5922
L133.2728 122.7826
" />
<path d="M133.2728 122.7826
L133.2728 123.8303
" />
<path d="M133.2728 122.7826
L133.3681 122.5922
" />
<path d="M133.3681 122.5922
L133.5586 122.4969
" />
<path d="M133.5586 122.4969
L133.8443 122.4969
" />
<path d="M133.8443 122.4969
L134.0348 122.5922
" />
<path d="M134.0348 122.5922
L134.1300 122.7826
" />
<path d="M134.1300 122.7826
L134.1300 123.8303
" />
<path d="M138.0348 121.7350
L136.3205 124.3064
" />
<path d="M140.6062 121.8303
L140.7967 121.8303
" />
<path d="M140.7967 121.8303
L140.9871 121.9255
" />
<path d="M140.9871 121.9255
L141.0824 122.0207
" />
<path d="M141.0824 122.0207
L141.1776 122.2112
" />
<path d="M141.1776 122.2112
L141.2729 122.5922
" />
<path d="M141.2729 122.5922
L141.2729 123.0683
" />
<path d="M141.2729 123.0683
L141.1776 123.4493
" />
<path d="M141.1776 123.4493
L141.0824 123.6398
" />
<path d="M141.0824 123.6398
L140.9871 123.7350
" />
<path d="M140.9871 123.7350
L140.7967 123.8303
" />
<path d="M140.7967 123.8303
L140.6062 123.8303
" />
<path d="M140.6062 123.8303
L140.4157 123.7350
" />
<path d="M140.4157 123.7350
L140.3205 123.6398
" />
<path d="M140.3205 123.6398
L140.2252 123.4493
" />
<path d="M140.2252 123.4493
L140.1300 123.0683
" />
<path d="M140.1300 123.0683
L140.1300 122.5922
" />
<path d="M140.1300 122.5922
L140.2252 122.2112
" />
<path d="M140.2252 122.2112
L140.3205 122.0207
" />
<path d="M140.3205 122.0207
L140.4157 121.9255
" />
<path d="M140.4157 121.9255
L140.6062 121.8303
" />
<path d="M142.1300 123.6398
L142.2252 123.7350
" />
<path d="M142.2252 123.7350
L142.1300 123.8303
" />
<path d="M142.1300 123.8303
L142.0348 123.7350
" />
<path d="M142.0348 123.7350
L142.1300 123.6398
" />
<path d="M142.1300 123.6398
L142.1300 123.8303
" />
<path d="M144.1300 123.8303
L142.9871 123.8303
" />
<path d="M143.5586 123.8303
L143.5586 121.8303
" />
<path d="M143.5586 121.8303
L143.3681 122.1160
" />
<path d="M143.3681 122.1160
L143.1776 122.3064
" />
<path d="M143.1776 122.3064
L142.9871 122.4017
" />
<path d="M144.7967 121.8303
L146.0348 121.8303
" />
<path d="M146.0348 121.8303
L145.3681 122.5922
" />
<path d="M145.3681 122.5922
L145.6538 122.5922
" />
<path d="M145.6538 122.5922
L145.8443 122.6874
" />
<path d="M145.8443 122.6874
L145.9395 122.7826
" />
<path d="M145.9395 122.7826
L146.0348 122.9731
" />
<path d="M146.0348 122.9731
L146.0348 123.4493
" />
<path d="M146.0348 123.4493
L145.9395 123.6398
" />
<path d="M145.9395 123.6398
L145.8443 123.7350
" />
<path d="M145.8443 123.7350
L145.6538 123.8303
" />
<path d="M145.6538 123.8303
L145.0824 123.8303
" />
<path d="M145.0824 123.8303
L144.8919 123.7350
" />
<path d="M144.8919 123.7350
L144.7967 123.6398
" />
<path d="M146.7014 121.8303
L147.9395 121.8303
" />
<path d="M147.9395 121.8303
L147.2729 122.5922
" />
<path d="M147.2729 122.5922
L147.5586 122.5922
" />
<path d="M147.5586 122.5922
L147.7490 122.6874
" />
<path d="M147.7490 122.6874
L147.8443 122.7826
" />
<path d="M147.8443 122.7826
L147.9395 122.9731
" />
<path d="M147.9395 122.9731
L147.9395 123.4493
" />
<path d="M147.9395 123.4493
L147.8443 123.6398
" />
<path d="M147.8443 123.6398
L147.7490 123.7350
" />
<path d="M147.7490 123.7350
L147.5586 123.8303
" />
<path d="M147.5586 123.8303
L146.9871 123.8303
" />
<path d="M146.9871 123.8303
L146.7967 123.7350
" />
<path d="M146.7967 123.7350
L146.7014 123.6398
" />
<path d="M148.8919 123.8303
L149.2729 123.8303
" />
<path d="M149.2729 123.8303
L149.4633 123.7350
" />
<path d="M149.4633 123.7350
L149.5586 123.6398
" />
<path d="M149.5586 123.6398
L149.7490 123.3541
" />
<path d="M149.7490 123.3541
L149.8443 122.9731
" />
<path d="M149.8443 122.9731
L149.8443 122.2112
" />
<path d="M149.8443 122.2112
L149.7490 122.0207
" />
<path d="M149.7490 122.0207
L149.6538 121.9255
" />
<path d="M149.6538 121.9255
L149.4633 121.8303
" />
<path d="M149.4633 121.8303
L149.0824 121.8303
" />
<path d="M149.0824 121.8303
L148.8919 121.9255
" />
<path d="M148.8919 121.9255
L148.7967 122.0207
" />
<path d="M148.7967 122.0207
L148.7014 122.2112
" />
<path d="M148.7014 122.2112
L148.7014 122.6874
" />
<path d="M148.7014 122.6874
L148.7967 122.8779
" />
<path d="M148.7967 122.8779
L148.8919 122.9731
" />
<path d="M148.8919 122.9731
L149.0824 123.0683
" />
<path d="M149.0824 123.0683
L149.4633 123.0683
" />
<path d="M149.4633 123.0683
L149.6538 122.9731
" />
<path d="M149.6538 122.9731
L149.7490 122.8779
" />
<path d="M149.7490 122.8779
L149.8443 122.6874
" />
<path d="M150.6062 121.8303
L150.6062 122.2112
" />
<path d="M151.3681 121.8303
L151.3681 122.2112
" />
<path d="M154.3205 124.5922
L154.2252 124.4969
" />
<path d="M154.2252 124.4969
L154.0348 124.2112
" />
<path d="M154.0348 124.2112
L153.9395 124.0207
" />
<path d="M153.9395 124.0207
L153.8443 123.7350
" />
<path d="M153.8443 123.7350
L153.7491 123.2588
" />
<path d="M153.7491 123.2588
L153.7491 122.8779
" />
<path d="M153.7491 122.8779
L153.8443 122.4017
" />
<path d="M153.8443 122.4017
L153.9395 122.1160
" />
<path d="M153.9395 122.1160
L154.0348 121.9255
" />
<path d="M154.0348 121.9255
L154.2252 121.6398
" />
<path d="M154.2252 121.6398
L154.3205 121.5445
" />
<path d="M154.9871 122.0207
L155.0824 121.9255
" />
<path d="M155.0824 121.9255
L155.2729 121.8303
" />
<path d="M155.2729 121.8303
L155.7491 121.8303
" />
<path d="M155.7491 121.8303
L155.9395 121.9255
" />
<path d="M155.9395 121.9255
L156.0348 122.0207
" />
<path d="M156.0348 122.0207
L156.1300 122.2112
" />
<path d="M156.1300 122.2112
L156.1300 122.4017
" />
<path d="M156.1300 122.4017
L156.0348 122.6874
" />
<path d="M156.0348 122.6874
L154.8919 123.8303
" />
<path d="M154.8919 123.8303
L156.1300 123.8303
" />
<path d="M158.5110 123.8303
L158.5110 121.8303
" />
<path d="M159.3681 123.8303
L159.3681 122.7826
" />
<path d="M159.3681 122.7826
L159.2729 122.5922
" />
<path d="M159.2729 122.5922
L159.0824 122.4969
" />
<path d="M159.0824 122.4969
L158.7967 122.4969
" />
<path d="M158.7967 122.4969
L158.6062 122.5922
" />
<path d="M158.6062 122.5922
L158.5110 122.6874
" />
<path d="M160.6062 123.8303
L160.4157 123.7350
" />
<path d="M160.4157 123.7350
L160.3205 123.6398
" />
<path d="M160.3205 123.6398
L160.2252 123.4493
" />
<path d="M160.2252 123.4493
L160.2252 122.8779
" />
<path d="M160.2252 122.8779
L160.3205 122.6874
" />
<path d="M160.3205 122.6874
L160.4157 122.5922
" />
<path d="M160.4157 122.5922
L160.6062 122.4969
" />
<path d="M160.6062 122.4969
L160.8919 122.4969
" />
<path d="M160.8919 122.4969
L161.0824 122.5922
" />
<path d="M161.0824 122.5922
L161.1776 122.6874
" />
<path d="M161.1776 122.6874
L161.2729 122.8779
" />
<path d="M161.2729 122.8779
L161.2729 123.4493
" />
<path d="M161.2729 123.4493
L161.1776 123.6398
" />
<path d="M161.1776 123.6398
L161.0824 123.7350
" />
<path d="M161.0824 123.7350
L160.8919 123.8303
" />
<path d="M160.8919 123.8303
L160.6062 123.8303
" />
<path d="M162.4157 123.8303
L162.2252 123.7350
" />
<path d="M162.2252 123.7350
L162.1300 123.5445
" />
<path d="M162.1300 123.5445
L162.1300 121.8303
" />
<path d="M163.9395 123.7350
L163.7491 123.8303
" />
<path d="M163.7491 123.8303
L163.3681 123.8303
" />
<path d="M163.3681 123.8303
L163.1776 123.7350
" />
<path d="M163.1776 123.7350
L163.0824 123.5445
" />
<path d="M163.0824 123.5445
L163.0824 122.7826
" />
<path d="M163.0824 122.7826
L163.1776 122.5922
" />
<path d="M163.1776 122.5922
L163.3681 122.4969
" />
<path d="M163.3681 122.4969
L163.7491 122.4969
" />
<path d="M163.7491 122.4969
L163.9395 122.5922
" />
<path d="M163.9395 122.5922
L164.0348 122.7826
" />
<path d="M164.0348 122.7826
L164.0348 122.9731
" />
<path d="M164.0348 122.9731
L163.0824 123.1636
" />
<path d="M164.7967 123.7350
L164.9872 123.8303
" />
<path d="M164.9872 123.8303
L165.3681 123.8303
" />
<path d="M165.3681 123.8303
L165.5586 123.7350
" />
<path d="M165.5586 123.7350
L165.6538 123.5445
" />
<path d="M165.6538 123.5445
L165.6538 123.4493
" />
<path d="M165.6538 123.4493
L165.5586 123.2588
" />
<path d="M165.5586 123.2588
L165.3681 123.1636
" />
<path d="M165.3681 123.1636
L165.0824 123.1636
" />
<path d="M165.0824 123.1636
L164.8919 123.0683
" />
<path d="M164.8919 123.0683
L164.7967 122.8779
" />
<path d="M164.7967 122.8779
L164.7967 122.7826
" />
<path d="M164.7967 122.7826
L164.8919 122.5922
" />
<path d="M164.8919 122.5922
L165.0824 122.4969
" />
<path d="M165.0824 122.4969
L165.3681 122.4969
" />
<path d="M165.3681 122.4969
L165.5586 122.5922
" />
<path d="M166.3205 124.5922
L166.4157 124.4969
" />
<path d="M166.4157 124.4969
L166.6062 124.2112
" />
<path d="M166.6062 124.2112
L166.7014 124.0207
" />
<path d="M166.7014 124.0207
L166.7967 123.7350
" />
<path d="M166.7967 123.7350
L166.8919 123.2588
" />
<path d="M166.8919 123.2588
L166.8919 122.8779
" />
<path d="M166.8919 122.8779
L166.7967 122.4017
" />
<path d="M166.7967 122.4017
L166.7014 122.1160
" />
<path d="M166.7014 122.1160
L166.6062 121.9255
" />
<path d="M166.6062 121.9255
L166.4157 121.6398
" />
<path d="M166.4157 121.6398
L166.3205 121.5445
" />
<path d="M169.9395 124.5922
L169.8443 124.4969
" />
<path d="M169.8443 124.4969
L169.6538 124.2112
" />
<path d="M169.6538 124.2112
L169.5586 124.0207
" />
<path d="M169.5586 124.0207
L169.4634 123.7350
" />
<path d="M169.4634 123.7350
L169.3681 123.2588
" />
<path d="M169.3681 123.2588
L169.3681 122.8779
" />
<path d="M169.3681 122.8779
L169.4634 122.4017
" />
<path d="M169.4634 122.4017
L169.5586 122.1160
" />
<path d="M169.5586 122.1160
L169.6538 121.9255
" />
<path d="M169.6538 121.9255
L169.8443 121.6398
" />
<path d="M169.8443 121.6398
L169.9395 121.5445
" />
<path d="M170.7014 122.4969
L170.7014 123.8303
" />
<path d="M170.7014 122.6874
L170.7967 122.5922
" />
<path d="M170.7967 122.5922
L170.9872 122.4969
" />
<path d="M170.9872 122.4969
L171.2729 122.4969
" />
<path d="M171.2729 122.4969
L171.4634 122.5922
" />
<path d="M171.4634 122.5922
L171.5586 122.7826
" />
<path d="M171.5586 122.7826
L171.5586 123.8303
" />
<path d="M172.7967 123.8303
L172.6062 123.7350
" />
<path d="M172.6062 123.7350
L172.5110 123.6398
" />
<path d="M172.5110 123.6398
L172.4157 123.4493
" />
<path d="M172.4157 123.4493
L172.4157 122.8779
" />
<path d="M172.4157 122.8779
L172.5110 122.6874
" />
<path d="M172.5110 122.6874
L172.6062 122.5922
" />
<path d="M172.6062 122.5922
L172.7967 122.4969
" />
<path d="M172.7967 122.4969
L173.0824 122.4969
" />
<path d="M173.0824 122.4969
L173.2729 122.5922
" />
<path d="M173.2729 122.5922
L173.3681 122.6874
" />
<path d="M173.3681 122.6874
L173.4634 122.8779
" />
<path d="M173.4634 122.8779
L173.4634 123.4493
" />
<path d="M173.4634 123.4493
L173.3681 123.6398
" />
<path d="M173.3681 123.6398
L173.2729 123.7350
" />
<path d="M173.2729 123.7350
L173.0824 123.8303
" />
<path d="M173.0824 123.8303
L172.7967 123.8303
" />
<path d="M174.0348 122.4969
L174.7967 122.4969
" />
<path d="M174.3205 121.8303
L174.3205 123.5445
" />
<path d="M174.3205 123.5445
L174.4157 123.7350
" />
<path d="M174.4157 123.7350
L174.6062 123.8303
" />
<path d="M174.6062 123.8303
L174.7967 123.8303
" />
<path d="M176.9872 122.4969
L176.9872 124.4969
" />
<path d="M176.9872 122.5922
L177.1776 122.4969
" />
<path d="M177.1776 122.4969
L177.5586 122.4969
" />
<path d="M177.5586 122.4969
L177.7491 122.5922
" />
<path d="M177.7491 122.5922
L177.8443 122.6874
" />
<path d="M177.8443 122.6874
L177.9395 122.8779
" />
<path d="M177.9395 122.8779
L177.9395 123.4493
" />
<path d="M177.9395 123.4493
L177.8443 123.6398
" />
<path d="M177.8443 123.6398
L177.7491 123.7350
" />
<path d="M177.7491 123.7350
L177.5586 123.8303
" />
<path d="M177.5586 123.8303
L177.1776 123.8303
" />
<path d="M177.1776 123.8303
L176.9872 123.7350
" />
<path d="M179.0824 123.8303
L178.8919 123.7350
" />
<path d="M178.8919 123.7350
L178.7967 123.5445
" />
<path d="M178.7967 123.5445
L178.7967 121.8303
" />
<path d="M180.7015 123.8303
L180.7015 122.7826
" />
<path d="M180.7015 122.7826
L180.6062 122.5922
" />
<path d="M180.6062 122.5922
L180.4157 122.4969
" />
<path d="M180.4157 122.4969
L180.0348 122.4969
" />
<path d="M180.0348 122.4969
L179.8443 122.5922
" />
<path d="M180.7015 123.7350
L180.5110 123.8303
" />
<path d="M180.5110 123.8303
L180.0348 123.8303
" />
<path d="M180.0348 123.8303
L179.8443 123.7350
" />
<path d="M179.8443 123.7350
L179.7491 123.5445
" />
<path d="M179.7491 123.5445
L179.7491 123.3541
" />
<path d="M179.7491 123.3541
L179.8443 123.1636
" />
<path d="M179.8443 123.1636
L180.0348 123.0683
" />
<path d="M180.0348 123.0683
L180.5110 123.0683
" />
<path d="M180.5110 123.0683
L180.7015 122.9731
" />
<path d="M181.3681 122.4969
L182.1300 122.4969
" />
<path d="M181.6538 121.8303
L181.6538 123.5445
" />
<path d="M181.6538 123.5445
L181.7491 123.7350
" />
<path d="M181.7491 123.7350
L181.9396 123.8303
" />
<path d="M181.9396 123.8303
L182.1300 123.8303
" />
<path d="M183.5586 123.7350
L183.3681 123.8303
" />
<path d="M183.3681 123.8303
L182.9872 123.8303
" />
<path d="M182.9872 123.8303
L182.7967 123.7350
" />
<path d="M182.7967 123.7350
L182.7015 123.5445
" />
<path d="M182.7015 123.5445
L182.7015 122.7826
" />
<path d="M182.7015 122.7826
L182.7967 122.5922
" />
<path d="M182.7967 122.5922
L182.9872 122.4969
" />
<path d="M182.9872 122.4969
L183.3681 122.4969
" />
<path d="M183.3681 122.4969
L183.5586 122.5922
" />
<path d="M183.5586 122.5922
L183.6538 122.7826
" />
<path d="M183.6538 122.7826
L183.6538 122.9731
" />
<path d="M183.6538 122.9731
L182.7015 123.1636
" />
<path d="M185.3681 123.8303
L185.3681 121.8303
" />
<path d="M185.3681 123.7350
L185.1777 123.8303
" />
<path d="M185.1777 123.8303
L184.7967 123.8303
" />
<path d="M184.7967 123.8303
L184.6062 123.7350
" />
<path d="M184.6062 123.7350
L184.5110 123.6398
" />
<path d="M184.5110 123.6398
L184.4157 123.4493
" />
<path d="M184.4157 123.4493
L184.4157 122.8779
" />
<path d="M184.4157 122.8779
L184.5110 122.6874
" />
<path d="M184.5110 122.6874
L184.6062 122.5922
" />
<path d="M184.6062 122.5922
L184.7967 122.4969
" />
<path d="M184.7967 122.4969
L185.1777 122.4969
" />
<path d="M185.1777 122.4969
L185.3681 122.5922
" />
<path d="M186.1300 124.5922
L186.2253 124.4969
" />
<path d="M186.2253 124.4969
L186.4157 124.2112
" />
<path d="M186.4157 124.2112
L186.5110 124.0207
" />
<path d="M186.5110 124.0207
L186.6062 123.7350
" />
<path d="M186.6062 123.7350
L186.7015 123.2588
" />
<path d="M186.7015 123.2588
L186.7015 122.8779
" />
<path d="M186.7015 122.8779
L186.6062 122.4017
" />
<path d="M186.6062 122.4017
L186.5110 122.1160
" />
<path d="M186.5110 122.1160
L186.4157 121.9255
" />
<path d="M186.4157 121.9255
L186.2253 121.6398
" />
<path d="M186.2253 121.6398
L186.1300 121.5445
" />
</g></g> 
</svg>
