<?xml version="1.0" standalone="no"?>
 <!DOCTYPE svg PUBLIC "-//W3C//DTD SVG 1.1//EN" 
 "http://www.w3.org/Graphics/SVG/1.1/DTD/svg11.dtd"> 
<svg
  xmlns:svg="http://www.w3.org/2000/svg"
  xmlns="http://www.w3.org/2000/svg"
  xmlns:xlink="http://www.w3.org/1999/xlink"
  version="1.1"
  width="431.8000mm" height="279.4000mm" viewBox="0.0000 0.0000 431.8000 279.4000">
<title>SVG Image created as NX-J401-Adapter-B_Silkscreen.svg date 2024/07/28 20:03:37 </title>
  <desc>Image generated by PCBNEW </desc>
<g style="fill:#000000; fill-opacity:1.0000;stroke:#000000; stroke-opacity:1.0000;
stroke-linecap:round; stroke-linejoin:round;"
 transform="translate(0 0) scale(1 1)">
</g>
<g style="fill:none; 
stroke:#000000; stroke-width:0.3000; stroke-opacity:1; 
stroke-linecap:round; stroke-linejoin:round;">
<text x="399.7960" y="100.3300"
transform="scale(-1 1) translate(-799.592000 0)"
textLength="16.8004" font-size="2.3707" lengthAdjust="spacingAndGlyphs"
text-anchor="start" opacity="0" stroke-opacity="0">B.Silkscreen</text>
<g class="stroked-text"><desc>B.Silkscreen</desc>
<path d="M398.5826 99.1655
L398.3286 99.2501
" />
<path d="M398.3286 99.2501
L398.2440 99.3348
" />
<path d="M398.2440 99.3348
L398.1593 99.5041
" />
<path d="M398.1593 99.5041
L398.1593 99.7581
" />
<path d="M398.1593 99.7581
L398.2440 99.9275
" />
<path d="M398.2440 99.9275
L398.3286 100.0121
" />
<path d="M398.3286 100.0121
L398.4980 100.0968
" />
<path d="M398.4980 100.0968
L399.1753 100.0968
" />
<path d="M399.1753 100.0968
L399.1753 98.3188
" />
<path d="M399.1753 98.3188
L398.5826 98.3188
" />
<path d="M398.5826 98.3188
L398.4133 98.4035
" />
<path d="M398.4133 98.4035
L398.3286 98.4881
" />
<path d="M398.3286 98.4881
L398.2440 98.6575
" />
<path d="M398.2440 98.6575
L398.2440 98.8268
" />
<path d="M398.2440 98.8268
L398.3286 98.9961
" />
<path d="M398.3286 98.9961
L398.4133 99.0808
" />
<path d="M398.4133 99.0808
L398.5826 99.1655
" />
<path d="M398.5826 99.1655
L399.1753 99.1655
" />
<path d="M397.3973 99.9275
L397.3126 100.0121
" />
<path d="M397.3126 100.0121
L397.3973 100.0968
" />
<path d="M397.3973 100.0968
L397.4820 100.0121
" />
<path d="M397.4820 100.0121
L397.3973 99.9275
" />
<path d="M397.3973 99.9275
L397.3973 100.0968
" />
<path d="M396.6353 100.0121
L396.3813 100.0968
" />
<path d="M396.3813 100.0968
L395.9580 100.0968
" />
<path d="M395.9580 100.0968
L395.7886 100.0121
" />
<path d="M395.7886 100.0121
L395.7040 99.9275
" />
<path d="M395.7040 99.9275
L395.6193 99.7581
" />
<path d="M395.6193 99.7581
L395.6193 99.5888
" />
<path d="M395.6193 99.5888
L395.7040 99.4195
" />
<path d="M395.7040 99.4195
L395.7886 99.3348
" />
<path d="M395.7886 99.3348
L395.9580 99.2501
" />
<path d="M395.9580 99.2501
L396.2966 99.1655
" />
<path d="M396.2966 99.1655
L396.4660 99.0808
" />
<path d="M396.4660 99.0808
L396.5506 98.9961
" />
<path d="M396.5506 98.9961
L396.6353 98.8268
" />
<path d="M396.6353 98.8268
L396.6353 98.6575
" />
<path d="M396.6353 98.6575
L396.5506 98.4881
" />
<path d="M396.5506 98.4881
L396.4660 98.4035
" />
<path d="M396.4660 98.4035
L396.2966 98.3188
" />
<path d="M396.2966 98.3188
L395.8733 98.3188
" />
<path d="M395.8733 98.3188
L395.6193 98.4035
" />
<path d="M394.8573 100.0968
L394.8573 98.9115
" />
<path d="M394.8573 98.3188
L394.9420 98.4035
" />
<path d="M394.9420 98.4035
L394.8573 98.4881
" />
<path d="M394.8573 98.4881
L394.7726 98.4035
" />
<path d="M394.7726 98.4035
L394.8573 98.3188
" />
<path d="M394.8573 98.3188
L394.8573 98.4881
" />
<path d="M393.7566 100.0968
L393.9260 100.0121
" />
<path d="M393.9260 100.0121
L394.0106 99.8428
" />
<path d="M394.0106 99.8428
L394.0106 98.3188
" />
<path d="M393.0793 100.0968
L393.0793 98.3188
" />
<path d="M392.9100 99.4195
L392.4020 100.0968
" />
<path d="M392.4020 98.9115
L393.0793 99.5888
" />
<path d="M391.7246 100.0121
L391.5553 100.0968
" />
<path d="M391.5553 100.0968
L391.2166 100.0968
" />
<path d="M391.2166 100.0968
L391.0473 100.0121
" />
<path d="M391.0473 100.0121
L390.9626 99.8428
" />
<path d="M390.9626 99.8428
L390.9626 99.7581
" />
<path d="M390.9626 99.7581
L391.0473 99.5888
" />
<path d="M391.0473 99.5888
L391.2166 99.5041
" />
<path d="M391.2166 99.5041
L391.4706 99.5041
" />
<path d="M391.4706 99.5041
L391.6400 99.4195
" />
<path d="M391.6400 99.4195
L391.7246 99.2501
" />
<path d="M391.7246 99.2501
L391.7246 99.1655
" />
<path d="M391.7246 99.1655
L391.6400 98.9961
" />
<path d="M391.6400 98.9961
L391.4706 98.9115
" />
<path d="M391.4706 98.9115
L391.2166 98.9115
" />
<path d="M391.2166 98.9115
L391.0473 98.9961
" />
<path d="M389.4386 100.0121
L389.6080 100.0968
" />
<path d="M389.6080 100.0968
L389.9466 100.0968
" />
<path d="M389.9466 100.0968
L390.1160 100.0121
" />
<path d="M390.1160 100.0121
L390.2006 99.9275
" />
<path d="M390.2006 99.9275
L390.2853 99.7581
" />
<path d="M390.2853 99.7581
L390.2853 99.2501
" />
<path d="M390.2853 99.2501
L390.2006 99.0808
" />
<path d="M390.2006 99.0808
L390.1160 98.9961
" />
<path d="M390.1160 98.9961
L389.9466 98.9115
" />
<path d="M389.9466 98.9115
L389.6080 98.9115
" />
<path d="M389.6080 98.9115
L389.4386 98.9961
" />
<path d="M388.6766 100.0968
L388.6766 98.9115
" />
<path d="M388.6766 99.2501
L388.5920 99.0808
" />
<path d="M388.5920 99.0808
L388.5073 98.9961
" />
<path d="M388.5073 98.9961
L388.3380 98.9115
" />
<path d="M388.3380 98.9115
L388.1686 98.9115
" />
<path d="M386.8986 100.0121
L387.0680 100.0968
" />
<path d="M387.0680 100.0968
L387.4066 100.0968
" />
<path d="M387.4066 100.0968
L387.5760 100.0121
" />
<path d="M387.5760 100.0121
L387.6606 99.8428
" />
<path d="M387.6606 99.8428
L387.6606 99.1655
" />
<path d="M387.6606 99.1655
L387.5760 98.9961
" />
<path d="M387.5760 98.9961
L387.4066 98.9115
" />
<path d="M387.4066 98.9115
L387.0680 98.9115
" />
<path d="M387.0680 98.9115
L386.8986 98.9961
" />
<path d="M386.8986 98.9961
L386.8140 99.1655
" />
<path d="M386.8140 99.1655
L386.8140 99.3348
" />
<path d="M386.8140 99.3348
L387.6606 99.5041
" />
<path d="M385.3746 100.0121
L385.5440 100.0968
" />
<path d="M385.5440 100.0968
L385.8826 100.0968
" />
<path d="M385.8826 100.0968
L386.0520 100.0121
" />
<path d="M386.0520 100.0121
L386.1366 99.8428
" />
<path d="M386.1366 99.8428
L386.1366 99.1655
" />
<path d="M386.1366 99.1655
L386.0520 98.9961
" />
<path d="M386.0520 98.9961
L385.8826 98.9115
" />
<path d="M385.8826 98.9115
L385.5440 98.9115
" />
<path d="M385.5440 98.9115
L385.3746 98.9961
" />
<path d="M385.3746 98.9961
L385.2900 99.1655
" />
<path d="M385.2900 99.1655
L385.2900 99.3348
" />
<path d="M385.2900 99.3348
L386.1366 99.5041
" />
<path d="M384.5280 98.9115
L384.5280 100.0968
" />
<path d="M384.5280 99.0808
L384.4433 98.9961
" />
<path d="M384.4433 98.9961
L384.2740 98.9115
" />
<path d="M384.2740 98.9115
L384.0200 98.9115
" />
<path d="M384.0200 98.9115
L383.8506 98.9961
" />
<path d="M383.8506 98.9961
L383.7660 99.1655
" />
<path d="M383.7660 99.1655
L383.7660 100.0968
" />
</g></g>
<g style="fill:#000000; fill-opacity:1.0000; stroke:none;">
<circle cx="202.8000" cy="84.0000" r="1.3500" /> 
</g>
<g style="fill:#000000; fill-opacity:1.0000; stroke:none;">
<circle cx="158.7500" cy="97.5360" r="0.4000" /> 
</g>
<g style="fill:#000000; fill-opacity:1.0000; stroke:none;">
<circle cx="158.7500" cy="94.0360" r="0.4000" /> 
</g>
<g style="fill:#000000; fill-opacity:1.0000; stroke:none;">
<circle cx="109.6920" cy="156.2857" r="0.4953" /> 
</g>
<g style="fill:#000000; fill-opacity:1.0000; stroke:none;">
<circle cx="105.1920" cy="156.2857" r="0.4953" /> 
</g>
<g style="fill:#000000; fill-opacity:1.0000; stroke:none;">
<circle cx="110.9420" cy="153.7858" r="0.6477" /> 
</g>
<g style="fill:#000000; fill-opacity:1.0000; stroke:none;">
<circle cx="103.9420" cy="153.7858" r="0.6477" /> 
</g>
<g style="fill:#000000; fill-opacity:1.0000; stroke:none;">
<circle cx="158.7500" cy="88.2667" r="0.4000" /> 
</g>
<g style="fill:#000000; fill-opacity:1.0000; stroke:none;">
<circle cx="158.7500" cy="84.7667" r="0.4000" /> 
</g>
<g style="fill:#000000; fill-opacity:1.0000; stroke:none;">
<circle cx="164.0586" cy="148.3656" r="0.5500" /> 
</g>
<g style="fill:#000000; fill-opacity:1.0000; stroke:none;">
<circle cx="164.0586" cy="156.5656" r="0.5500" /> 
</g>
<g style="fill:#000000; fill-opacity:1.0000; stroke:none;">
<circle cx="158.9786" cy="148.3656" r="0.5500" /> 
</g>
<g style="fill:#000000; fill-opacity:1.0000; stroke:none;">
<circle cx="158.9786" cy="156.5656" r="0.5500" /> 
</g>
<g style="fill:#000000; fill-opacity:1.0000; stroke:none;">
<circle cx="123.6950" cy="155.9600" r="1.7000" /> 
</g>
<g style="fill:#000000; fill-opacity:1.0000; stroke:none;">
<circle cx="131.5750" cy="155.9600" r="1.7000" /> 
</g>
<g style="fill:#000000; fill-opacity:1.0000; stroke:none;">
<circle cx="125.0950" cy="147.3200" r="0.5334" /> 
</g>
<g style="fill:#000000; fill-opacity:1.0000; stroke:none;">
<circle cx="127.6350" cy="147.3200" r="0.5334" /> 
</g>
<g style="fill:#000000; fill-opacity:1.0000; stroke:none;">
<circle cx="130.1750" cy="147.3200" r="0.5334" /> 
</g>
<g style="fill:#000000; fill-opacity:1.0000; stroke:none;">
<circle cx="136.3188" cy="155.9346" r="1.7000" /> 
</g>
<g style="fill:#000000; fill-opacity:1.0000; stroke:none;">
<circle cx="141.6588" cy="155.9346" r="1.7000" /> 
</g>
<g style="fill:#000000; fill-opacity:1.0000; stroke:none;">
<circle cx="137.7188" cy="147.2946" r="0.5334" /> 
</g>
<g style="fill:#000000; fill-opacity:1.0000; stroke:none;">
<circle cx="140.2588" cy="147.2946" r="0.5334" /> 
</g>
<g style="fill:#000000; fill-opacity:1.0000; stroke:none;">
<circle cx="119.3440" cy="156.2857" r="0.4953" /> 
</g>
<g style="fill:#000000; fill-opacity:1.0000; stroke:none;">
<circle cx="114.8440" cy="156.2857" r="0.4953" /> 
</g>
<g style="fill:#000000; fill-opacity:1.0000; stroke:none;">
<circle cx="120.5940" cy="153.7858" r="0.6477" /> 
</g>
<g style="fill:#000000; fill-opacity:1.0000; stroke:none;">
<circle cx="113.5940" cy="153.7858" r="0.6477" /> 
</g>
<g style="fill:#000000; fill-opacity:1.0000; stroke:none;">
<circle cx="202.8000" cy="142.0000" r="1.3500" /> 
</g>
<g style="fill:#000000; fill-opacity:1.0000; stroke:none;">
<circle cx="114.6302" cy="95.7889" r="0.5000" /> 
</g>
<g style="fill:#000000; fill-opacity:1.0000; stroke:none;">
<circle cx="114.6302" cy="90.7889" r="0.5000" /> 
</g>
<g style="fill:#000000; fill-opacity:1.0000; stroke:none;">
<circle cx="185.0136" cy="89.1502" r="0.5969" /> 
</g>
<g style="fill:#000000; fill-opacity:1.0000; stroke:none;">
<circle cx="180.0136" cy="89.1502" r="0.5969" /> 
</g>
<g style="fill:#000000; fill-opacity:1.0000; stroke:none;">
<circle cx="185.0136" cy="84.1502" r="0.5969" /> 
</g>
<g style="fill:#000000; fill-opacity:1.0000; stroke:none;">
<circle cx="180.0136" cy="84.1502" r="0.5969" /> 
</g>
<g style="fill:#000000; fill-opacity:1.0000; stroke:none;">
<circle cx="146.4534" cy="155.9600" r="1.7000" /> 
</g>
<g style="fill:#000000; fill-opacity:1.0000; stroke:none;">
<circle cx="151.7934" cy="155.9600" r="1.7000" /> 
</g>
<g style="fill:#000000; fill-opacity:1.0000; stroke:none;">
<circle cx="147.8534" cy="147.3200" r="0.5334" /> 
</g>
<g style="fill:#000000; fill-opacity:1.0000; stroke:none;">
<circle cx="150.3934" cy="147.3200" r="0.5334" /> 
</g>
<g style="fill:#000000; fill-opacity:1.0000; stroke:none;">
<circle cx="104.4956" cy="121.0564" r="0.5461" /> 
</g>
<g style="fill:#000000; fill-opacity:1.0000; stroke:none;">
<circle cx="104.4956" cy="123.5964" r="0.5461" /> 
</g>
<g style="fill:#000000; fill-opacity:1.0000; stroke:none;">
<circle cx="104.4956" cy="126.1364" r="0.5461" /> 
</g>
<g style="fill:#000000; fill-opacity:1.0000; stroke:none;">
<circle cx="104.4956" cy="128.6764" r="0.5461" /> 
</g>
<g style="fill:#000000; fill-opacity:1.0000; stroke:none;">
<circle cx="104.4956" cy="131.2164" r="0.5461" /> 
</g>
<g style="fill:#000000; fill-opacity:1.0000; stroke:none;">
<circle cx="104.4956" cy="133.7564" r="0.5461" /> 
</g>
<g style="fill:#000000; fill-opacity:1.0000; stroke:none;">
<circle cx="110.8005" cy="84.0000" r="1.3500" /> 
</g>
<g style="fill:#000000; fill-opacity:1.0000; stroke:none;">
<circle cx="192.6030" cy="138.2864" r="0.8750" /> 
</g>
<g style="fill:#000000; fill-opacity:1.0000; stroke:none;">
<circle cx="189.1030" cy="151.5364" r="0.8750" /> 
</g>
<g style="fill:#000000; fill-opacity:1.0000; stroke:none;">
<circle cx="190.1030" cy="149.6364" r="0.3000" /> 
</g>
<g style="fill:#000000; fill-opacity:1.0000; stroke:none;">
<circle cx="191.1030" cy="149.0589" r="0.3000" /> 
</g>
<g style="fill:#000000; fill-opacity:1.0000; stroke:none;">
<circle cx="190.1030" cy="148.4814" r="0.3000" /> 
</g>
<g style="fill:#000000; fill-opacity:1.0000; stroke:none;">
<circle cx="191.1030" cy="147.9039" r="0.3000" /> 
</g>
<g style="fill:#000000; fill-opacity:1.0000; stroke:none;">
<circle cx="190.1030" cy="147.3264" r="0.3000" /> 
</g>
<g style="fill:#000000; fill-opacity:1.0000; stroke:none;">
<circle cx="191.1030" cy="146.7489" r="0.3000" /> 
</g>
<g style="fill:#000000; fill-opacity:1.0000; stroke:none;">
<circle cx="190.1030" cy="146.1714" r="0.3000" /> 
</g>
<g style="fill:#000000; fill-opacity:1.0000; stroke:none;">
<circle cx="191.1030" cy="145.5939" r="0.3000" /> 
</g>
<g style="fill:#000000; fill-opacity:1.0000; stroke:none;">
<circle cx="190.1030" cy="145.0164" r="0.3000" /> 
</g>
<g style="fill:#000000; fill-opacity:1.0000; stroke:none;">
<circle cx="191.1030" cy="144.4389" r="0.3000" /> 
</g>
<g style="fill:#000000; fill-opacity:1.0000; stroke:none;">
<circle cx="190.1030" cy="143.8614" r="0.3000" /> 
</g>
<g style="fill:#000000; fill-opacity:1.0000; stroke:none;">
<circle cx="191.1030" cy="143.2839" r="0.3000" /> 
</g>
<g style="fill:#000000; fill-opacity:1.0000; stroke:none;">
<circle cx="190.1030" cy="142.7064" r="0.3000" /> 
</g>
<g style="fill:#000000; fill-opacity:1.0000; stroke:none;">
<circle cx="191.1030" cy="142.1289" r="0.3000" /> 
</g>
<g style="fill:#000000; fill-opacity:1.0000; stroke:none;">
<circle cx="190.1030" cy="141.5514" r="0.3000" /> 
</g>
<g style="fill:#000000; fill-opacity:1.0000; stroke:none;">
<circle cx="191.1030" cy="140.9739" r="0.3000" /> 
</g>
<g style="fill:#000000; fill-opacity:1.0000; stroke:none;">
<circle cx="190.1030" cy="140.3964" r="0.3000" /> 
</g>
<g style="fill:#000000; fill-opacity:1.0000; stroke:none;">
<circle cx="191.1030" cy="139.8189" r="0.3000" /> 
</g>
<g style="fill:#000000; fill-opacity:1.0000; stroke:none;">
<circle cx="190.1030" cy="139.2414" r="0.3000" /> 
</g>
<g style="fill:none; 
stroke:#000000; stroke-width:0.9500; stroke-opacity:1; 
stroke-linecap:round; stroke-linejoin:round;">
<path d="M193.8530 140.4864
L193.8530 142.2864
" />
<path d="M193.8530 149.4864
L193.8530 151.2864
" />
</g>
<g style="fill:#000000; fill-opacity:1.0000; stroke:none;">
<circle cx="190.6030" cy="156.3164" r="0.8750" /> 
</g>
<g style="fill:none; 
stroke:#000000; stroke-width:0.9500; stroke-opacity:1; 
stroke-linecap:round; stroke-linejoin:round;">
<path d="M187.3530 137.3864
L187.3530 139.1864
" />
<path d="M187.3530 146.8864
L187.3530 148.6864
" />
</g>
<g style="fill:#000000; fill-opacity:1.0000; stroke:none;">
<circle cx="177.3884" cy="138.2864" r="0.8750" /> 
</g>
<g style="fill:#000000; fill-opacity:1.0000; stroke:none;">
<circle cx="173.8884" cy="151.5364" r="0.8750" /> 
</g>
<g style="fill:#000000; fill-opacity:1.0000; stroke:none;">
<circle cx="174.8884" cy="149.6364" r="0.3000" /> 
</g>
<g style="fill:#000000; fill-opacity:1.0000; stroke:none;">
<circle cx="175.8884" cy="149.0589" r="0.3000" /> 
</g>
<g style="fill:#000000; fill-opacity:1.0000; stroke:none;">
<circle cx="174.8884" cy="148.4814" r="0.3000" /> 
</g>
<g style="fill:#000000; fill-opacity:1.0000; stroke:none;">
<circle cx="175.8884" cy="147.9039" r="0.3000" /> 
</g>
<g style="fill:#000000; fill-opacity:1.0000; stroke:none;">
<circle cx="174.8884" cy="147.3264" r="0.3000" /> 
</g>
<g style="fill:#000000; fill-opacity:1.0000; stroke:none;">
<circle cx="175.8884" cy="146.7489" r="0.3000" /> 
</g>
<g style="fill:#000000; fill-opacity:1.0000; stroke:none;">
<circle cx="174.8884" cy="146.1714" r="0.3000" /> 
</g>
<g style="fill:#000000; fill-opacity:1.0000; stroke:none;">
<circle cx="175.8884" cy="145.5939" r="0.3000" /> 
</g>
<g style="fill:#000000; fill-opacity:1.0000; stroke:none;">
<circle cx="174.8884" cy="145.0164" r="0.3000" /> 
</g>
<g style="fill:#000000; fill-opacity:1.0000; stroke:none;">
<circle cx="175.8884" cy="144.4389" r="0.3000" /> 
</g>
<g style="fill:#000000; fill-opacity:1.0000; stroke:none;">
<circle cx="174.8884" cy="143.8614" r="0.3000" /> 
</g>
<g style="fill:#000000; fill-opacity:1.0000; stroke:none;">
<circle cx="175.8884" cy="143.2839" r="0.3000" /> 
</g>
<g style="fill:#000000; fill-opacity:1.0000; stroke:none;">
<circle cx="174.8884" cy="142.7064" r="0.3000" /> 
</g>
<g style="fill:#000000; fill-opacity:1.0000; stroke:none;">
<circle cx="175.8884" cy="142.1289" r="0.3000" /> 
</g>
<g style="fill:#000000; fill-opacity:1.0000; stroke:none;">
<circle cx="174.8884" cy="141.5514" r="0.3000" /> 
</g>
<g style="fill:#000000; fill-opacity:1.0000; stroke:none;">
<circle cx="175.8884" cy="140.9739" r="0.3000" /> 
</g>
<g style="fill:#000000; fill-opacity:1.0000; stroke:none;">
<circle cx="174.8884" cy="140.3964" r="0.3000" /> 
</g>
<g style="fill:#000000; fill-opacity:1.0000; stroke:none;">
<circle cx="175.8884" cy="139.8189" r="0.3000" /> 
</g>
<g style="fill:#000000; fill-opacity:1.0000; stroke:none;">
<circle cx="174.8884" cy="139.2414" r="0.3000" /> 
</g>
<g style="fill:none; 
stroke:#000000; stroke-width:0.9500; stroke-opacity:1; 
stroke-linecap:round; stroke-linejoin:round;">
<path d="M178.6384 140.4864
L178.6384 142.2864
" />
<path d="M178.6384 149.4864
L178.6384 151.2864
" />
</g>
<g style="fill:#000000; fill-opacity:1.0000; stroke:none;">
<circle cx="175.3884" cy="156.3164" r="0.8750" /> 
</g>
<g style="fill:none; 
stroke:#000000; stroke-width:0.9500; stroke-opacity:1; 
stroke-linecap:round; stroke-linejoin:round;">
<path d="M172.1384 137.3864
L172.1384 139.1864
" />
<path d="M172.1384 146.8864
L172.1384 148.6864
" />
</g>
<g style="fill:#000000; fill-opacity:1.0000; stroke:none;">
<circle cx="110.8005" cy="142.0000" r="1.3500" /> 
</g>
<g style="fill:#000000; fill-opacity:1.0000; stroke:none;">
<circle cx="104.4956" cy="113.4364" r="0.5461" /> 
</g>
<g style="fill:#000000; fill-opacity:1.0000; stroke:none;">
<circle cx="104.4956" cy="110.8964" r="0.5461" /> 
</g>
<g style="fill:#000000; fill-opacity:1.0000; stroke:none;">
<circle cx="104.4956" cy="108.3564" r="0.5461" /> 
</g>
<g style="fill:#000000; fill-opacity:1.0000; stroke:none;">
<circle cx="104.4956" cy="105.8164" r="0.5461" /> 
</g>
<g style="fill:none; 
stroke:#000000; stroke-width:0.3000; stroke-opacity:1; 
stroke-linecap:round; stroke-linejoin:round;">
<text x="399.7960" y="105.4100"
transform="scale(-1 1) translate(-799.592000 0)"
textLength="9.6884" font-size="2.3707" lengthAdjust="spacingAndGlyphs"
text-anchor="start" opacity="0" stroke-opacity="0">B.Mask</text>
<g class="stroked-text"><desc>B.Mask</desc>
<path d="M398.5826 104.2455
L398.3286 104.3301
" />
<path d="M398.3286 104.3301
L398.2440 104.4148
" />
<path d="M398.2440 104.4148
L398.1593 104.5841
" />
<path d="M398.1593 104.5841
L398.1593 104.8381
" />
<path d="M398.1593 104.8381
L398.2440 105.0075
" />
<path d="M398.2440 105.0075
L398.3286 105.0921
" />
<path d="M398.3286 105.0921
L398.4980 105.1768
" />
<path d="M398.4980 105.1768
L399.1753 105.1768
" />
<path d="M399.1753 105.1768
L399.1753 103.3988
" />
<path d="M399.1753 103.3988
L398.5826 103.3988
" />
<path d="M398.5826 103.3988
L398.4133 103.4835
" />
<path d="M398.4133 103.4835
L398.3286 103.5681
" />
<path d="M398.3286 103.5681
L398.2440 103.7375
" />
<path d="M398.2440 103.7375
L398.2440 103.9068
" />
<path d="M398.2440 103.9068
L398.3286 104.0761
" />
<path d="M398.3286 104.0761
L398.4133 104.1608
" />
<path d="M398.4133 104.1608
L398.5826 104.2455
" />
<path d="M398.5826 104.2455
L399.1753 104.2455
" />
<path d="M397.3973 105.0075
L397.3126 105.0921
" />
<path d="M397.3126 105.0921
L397.3973 105.1768
" />
<path d="M397.3973 105.1768
L397.4820 105.0921
" />
<path d="M397.4820 105.0921
L397.3973 105.0075
" />
<path d="M397.3973 105.0075
L397.3973 105.1768
" />
<path d="M396.5506 105.1768
L396.5506 103.3988
" />
<path d="M396.5506 103.3988
L395.9580 104.6688
" />
<path d="M395.9580 104.6688
L395.3653 103.3988
" />
<path d="M395.3653 103.3988
L395.3653 105.1768
" />
<path d="M393.7566 105.1768
L393.7566 104.2455
" />
<path d="M393.7566 104.2455
L393.8413 104.0761
" />
<path d="M393.8413 104.0761
L394.0106 103.9915
" />
<path d="M394.0106 103.9915
L394.3493 103.9915
" />
<path d="M394.3493 103.9915
L394.5186 104.0761
" />
<path d="M393.7566 105.0921
L393.9260 105.1768
" />
<path d="M393.9260 105.1768
L394.3493 105.1768
" />
<path d="M394.3493 105.1768
L394.5186 105.0921
" />
<path d="M394.5186 105.0921
L394.6033 104.9228
" />
<path d="M394.6033 104.9228
L394.6033 104.7535
" />
<path d="M394.6033 104.7535
L394.5186 104.5841
" />
<path d="M394.5186 104.5841
L394.3493 104.4995
" />
<path d="M394.3493 104.4995
L393.9260 104.4995
" />
<path d="M393.9260 104.4995
L393.7566 104.4148
" />
<path d="M392.9946 105.0921
L392.8253 105.1768
" />
<path d="M392.8253 105.1768
L392.4866 105.1768
" />
<path d="M392.4866 105.1768
L392.3173 105.0921
" />
<path d="M392.3173 105.0921
L392.2326 104.9228
" />
<path d="M392.2326 104.9228
L392.2326 104.8381
" />
<path d="M392.2326 104.8381
L392.3173 104.6688
" />
<path d="M392.3173 104.6688
L392.4866 104.5841
" />
<path d="M392.4866 104.5841
L392.7406 104.5841
" />
<path d="M392.7406 104.5841
L392.9100 104.4995
" />
<path d="M392.9100 104.4995
L392.9946 104.3301
" />
<path d="M392.9946 104.3301
L392.9946 104.2455
" />
<path d="M392.9946 104.2455
L392.9100 104.0761
" />
<path d="M392.9100 104.0761
L392.7406 103.9915
" />
<path d="M392.7406 103.9915
L392.4866 103.9915
" />
<path d="M392.4866 103.9915
L392.3173 104.0761
" />
<path d="M391.4706 105.1768
L391.4706 103.3988
" />
<path d="M391.3013 104.4995
L390.7933 105.1768
" />
<path d="M390.7933 103.9915
L391.4706 104.6688
" />
</g></g>
<g style="fill:none; 
stroke:#000000; stroke-width:1.1290; stroke-opacity:1; 
stroke-linecap:round; stroke-linejoin:round;">
<circle cx="192.6030" cy="138.2864" r="0.5645" /> 
<circle cx="189.1030" cy="151.5364" r="0.5645" /> 
<circle cx="177.3884" cy="138.2864" r="0.5645" /> 
<circle cx="173.8884" cy="151.5364" r="0.5645" /> 
</g>
<g style="fill:#000000; fill-opacity:1.0000; stroke:none;">
<circle cx="202.8000" cy="84.0000" r="1.3500" /> 
<path style="fill:#000000; fill-opacity:1.0000; stroke:none;fill-rule:evenodd;"
d="M 157.9500,98.3360
159.5500,98.3360
159.5500,96.7360
157.9500,96.7360
Z" /> 
</g>
<g style="fill:#000000; fill-opacity:1.0000; stroke:none;">
<circle cx="158.7500" cy="94.0360" r="0.8000" /> 
</g>
<g style="fill:#000000; fill-opacity:1.0000; stroke:none;">
<circle cx="109.6920" cy="156.2857" r="0.7493" /> 
</g>
<g style="fill:#000000; fill-opacity:1.0000; stroke:none;">
<circle cx="105.1920" cy="156.2857" r="0.7493" /> 
</g>
<g style="fill:#000000; fill-opacity:1.0000; stroke:none;">
<circle cx="110.9420" cy="153.7858" r="0.9017" /> 
</g>
<g style="fill:#000000; fill-opacity:1.0000; stroke:none;">
<circle cx="103.9420" cy="153.7858" r="0.9017" /> 
<path style="fill:#000000; fill-opacity:1.0000; stroke:none;fill-rule:evenodd;"
d="M 157.9500,89.0667
159.5500,89.0667
159.5500,87.4667
157.9500,87.4667
Z" /> 
</g>
<g style="fill:#000000; fill-opacity:1.0000; stroke:none;">
<circle cx="158.7500" cy="84.7667" r="0.8000" /> 
</g>
<g style="fill:#000000; fill-opacity:1.0000; stroke:none;">
<circle cx="164.0586" cy="148.3656" r="1.1000" /> 
</g>
<g style="fill:#000000; fill-opacity:1.0000; stroke:none;">
<circle cx="164.0586" cy="156.5656" r="1.1000" /> 
</g>
<g style="fill:#000000; fill-opacity:1.0000; stroke:none;">
<circle cx="158.9786" cy="148.3656" r="1.1000" /> 
</g>
<g style="fill:#000000; fill-opacity:1.0000; stroke:none;">
<circle cx="158.9786" cy="156.5656" r="1.1000" /> 
</g>
<g style="fill:#000000; fill-opacity:1.0000; stroke:none;">
<circle cx="123.6950" cy="155.9600" r="1.7000" /> 
</g>
<g style="fill:#000000; fill-opacity:1.0000; stroke:none;">
<circle cx="131.5750" cy="155.9600" r="1.7000" /> 
<path style="fill:#000000; fill-opacity:1.0000; stroke:none;fill-rule:evenodd;"
d="M 125.9840,146.4310
124.2060,146.4310
124.2060,148.2090
125.9840,148.2090
Z" /> 
</g>
<g style="fill:#000000; fill-opacity:1.0000; stroke:none;">
<circle cx="127.6350" cy="147.3200" r="0.9525" /> 
</g>
<g style="fill:#000000; fill-opacity:1.0000; stroke:none;">
<circle cx="130.1750" cy="147.3200" r="0.8890" /> 
</g>
<g style="fill:#000000; fill-opacity:1.0000; stroke:none;">
<circle cx="136.3188" cy="155.9346" r="1.7000" /> 
</g>
<g style="fill:#000000; fill-opacity:1.0000; stroke:none;">
<circle cx="141.6588" cy="155.9346" r="1.7000" /> 
<path style="fill:#000000; fill-opacity:1.0000; stroke:none;fill-rule:evenodd;"
d="M 138.6078,146.4056
136.8298,146.4056
136.8298,148.1836
138.6078,148.1836
Z" /> 
</g>
<g style="fill:#000000; fill-opacity:1.0000; stroke:none;">
<circle cx="140.2588" cy="147.2946" r="0.8890" /> 
</g>
<g style="fill:#000000; fill-opacity:1.0000; stroke:none;">
<circle cx="119.3440" cy="156.2857" r="0.7493" /> 
</g>
<g style="fill:#000000; fill-opacity:1.0000; stroke:none;">
<circle cx="114.8440" cy="156.2857" r="0.7493" /> 
</g>
<g style="fill:#000000; fill-opacity:1.0000; stroke:none;">
<circle cx="120.5940" cy="153.7858" r="0.9017" /> 
</g>
<g style="fill:#000000; fill-opacity:1.0000; stroke:none;">
<circle cx="113.5940" cy="153.7858" r="0.9017" /> 
</g>
<g style="fill:#000000; fill-opacity:1.0000; stroke:none;">
<circle cx="202.8000" cy="142.0000" r="1.3500" /> 
<path style="fill:#000000; fill-opacity:1.0000; stroke:none;fill-rule:evenodd;"
d="M 113.6302,96.7889
115.6302,96.7889
115.6302,94.7889
113.6302,94.7889
Z" /> 
</g>
<g style="fill:#000000; fill-opacity:1.0000; stroke:none;">
<circle cx="114.6302" cy="90.7889" r="1.0000" /> 
</g>
<g style="fill:#000000; fill-opacity:1.0000; stroke:none;">
<circle cx="185.0136" cy="89.1502" r="0.8509" /> 
</g>
<g style="fill:#000000; fill-opacity:1.0000; stroke:none;">
<circle cx="180.0136" cy="89.1502" r="0.8509" /> 
</g>
<g style="fill:#000000; fill-opacity:1.0000; stroke:none;">
<circle cx="185.0136" cy="84.1502" r="0.8509" /> 
</g>
<g style="fill:#000000; fill-opacity:1.0000; stroke:none;">
<circle cx="180.0136" cy="84.1502" r="0.8509" /> 
</g>
<g style="fill:#000000; fill-opacity:1.0000; stroke:none;">
<circle cx="146.4534" cy="155.9600" r="1.7000" /> 
</g>
<g style="fill:#000000; fill-opacity:1.0000; stroke:none;">
<circle cx="151.7934" cy="155.9600" r="1.7000" /> 
<path style="fill:#000000; fill-opacity:1.0000; stroke:none;fill-rule:evenodd;"
d="M 148.7424,146.4310
146.9644,146.4310
146.9644,148.2090
148.7424,148.2090
Z" /> 
</g>
<g style="fill:#000000; fill-opacity:1.0000; stroke:none;">
<circle cx="150.3934" cy="147.3200" r="0.8890" /> 
</g>
<g style="fill:none; 
stroke:#000000; stroke-width:1.6002; stroke-opacity:1; 
stroke-linecap:round; stroke-linejoin:round;">
<path d="M104.3432 121.0564
L104.6480 121.0564
" />
<path d="M104.3432 123.5964
L104.6480 123.5964
" />
<path d="M104.3432 126.1364
L104.6480 126.1364
" />
<path d="M104.3432 128.6764
L104.6480 128.6764
" />
<path d="M104.3432 131.2164
L104.6480 131.2164
" />
<path style="fill:#000000; fill-opacity:1.0000; stroke:none;fill-rule:evenodd;"
d="M 105.4481,132.9563
103.5431,132.9563
103.5431,134.5565
105.4481,134.5565
Z" /> 
</g>
<g style="fill:#000000; fill-opacity:1.0000; stroke:none;">
<circle cx="110.8005" cy="84.0000" r="1.3500" /> 
</g>
<g style="fill:#000000; fill-opacity:1.0000; stroke:none;">
<circle cx="192.6030" cy="138.2864" r="0.8750" /> 
</g>
<g style="fill:#000000; fill-opacity:1.0000; stroke:none;">
<circle cx="189.1030" cy="151.5364" r="0.8750" /> 
</g>
<g style="fill:#000000; fill-opacity:1.0000; stroke:none;">
<circle cx="190.1030" cy="149.6364" r="0.5465" /> 
</g>
<g style="fill:#000000; fill-opacity:1.0000; stroke:none;">
<circle cx="191.1030" cy="149.0589" r="0.5465" /> 
</g>
<g style="fill:#000000; fill-opacity:1.0000; stroke:none;">
<circle cx="190.1030" cy="148.4814" r="0.5465" /> 
</g>
<g style="fill:#000000; fill-opacity:1.0000; stroke:none;">
<circle cx="191.1030" cy="147.9039" r="0.5465" /> 
</g>
<g style="fill:#000000; fill-opacity:1.0000; stroke:none;">
<circle cx="190.1030" cy="147.3264" r="0.5465" /> 
</g>
<g style="fill:#000000; fill-opacity:1.0000; stroke:none;">
<circle cx="191.1030" cy="146.7489" r="0.5465" /> 
</g>
<g style="fill:#000000; fill-opacity:1.0000; stroke:none;">
<circle cx="190.1030" cy="146.1714" r="0.5465" /> 
</g>
<g style="fill:#000000; fill-opacity:1.0000; stroke:none;">
<circle cx="191.1030" cy="145.5939" r="0.5465" /> 
</g>
<g style="fill:#000000; fill-opacity:1.0000; stroke:none;">
<circle cx="190.1030" cy="145.0164" r="0.5465" /> 
</g>
<g style="fill:#000000; fill-opacity:1.0000; stroke:none;">
<circle cx="191.1030" cy="144.4389" r="0.5465" /> 
</g>
<g style="fill:#000000; fill-opacity:1.0000; stroke:none;">
<circle cx="190.1030" cy="143.8614" r="0.5465" /> 
</g>
<g style="fill:#000000; fill-opacity:1.0000; stroke:none;">
<circle cx="191.1030" cy="143.2839" r="0.5465" /> 
</g>
<g style="fill:#000000; fill-opacity:1.0000; stroke:none;">
<circle cx="190.1030" cy="142.7064" r="0.5465" /> 
</g>
<g style="fill:#000000; fill-opacity:1.0000; stroke:none;">
<circle cx="191.1030" cy="142.1289" r="0.5465" /> 
</g>
<g style="fill:#000000; fill-opacity:1.0000; stroke:none;">
<circle cx="190.1030" cy="141.5514" r="0.5465" /> 
</g>
<g style="fill:#000000; fill-opacity:1.0000; stroke:none;">
<circle cx="191.1030" cy="140.9739" r="0.5465" /> 
</g>
<g style="fill:#000000; fill-opacity:1.0000; stroke:none;">
<circle cx="190.1030" cy="140.3964" r="0.5465" /> 
</g>
<g style="fill:#000000; fill-opacity:1.0000; stroke:none;">
<circle cx="191.1030" cy="139.8189" r="0.5465" /> 
</g>
<g style="fill:#000000; fill-opacity:1.0000; stroke:none;">
<circle cx="190.1030" cy="139.2414" r="0.5465" /> 
</g>
<g style="fill:none; 
stroke:#000000; stroke-width:1.8640; stroke-opacity:1; 
stroke-linecap:round; stroke-linejoin:round;">
<path d="M193.8530 140.4864
L193.8530 142.2864
" />
<path d="M193.8530 149.4864
L193.8530 151.2864
" />
</g>
<g style="fill:#000000; fill-opacity:1.0000; stroke:none;">
<circle cx="190.6030" cy="156.3164" r="1.4145" /> 
</g>
<g style="fill:none; 
stroke:#000000; stroke-width:1.8640; stroke-opacity:1; 
stroke-linecap:round; stroke-linejoin:round;">
<path d="M187.3530 137.3864
L187.3530 139.1864
" />
<path d="M187.3530 146.8864
L187.3530 148.6864
" />
</g>
<g style="fill:#000000; fill-opacity:1.0000; stroke:none;">
<circle cx="177.3884" cy="138.2864" r="0.8750" /> 
</g>
<g style="fill:#000000; fill-opacity:1.0000; stroke:none;">
<circle cx="173.8884" cy="151.5364" r="0.8750" /> 
</g>
<g style="fill:#000000; fill-opacity:1.0000; stroke:none;">
<circle cx="174.8884" cy="149.6364" r="0.5465" /> 
</g>
<g style="fill:#000000; fill-opacity:1.0000; stroke:none;">
<circle cx="175.8884" cy="149.0589" r="0.5465" /> 
</g>
<g style="fill:#000000; fill-opacity:1.0000; stroke:none;">
<circle cx="174.8884" cy="148.4814" r="0.5465" /> 
</g>
<g style="fill:#000000; fill-opacity:1.0000; stroke:none;">
<circle cx="175.8884" cy="147.9039" r="0.5465" /> 
</g>
<g style="fill:#000000; fill-opacity:1.0000; stroke:none;">
<circle cx="174.8884" cy="147.3264" r="0.5465" /> 
</g>
<g style="fill:#000000; fill-opacity:1.0000; stroke:none;">
<circle cx="175.8884" cy="146.7489" r="0.5465" /> 
</g>
<g style="fill:#000000; fill-opacity:1.0000; stroke:none;">
<circle cx="174.8884" cy="146.1714" r="0.5465" /> 
</g>
<g style="fill:#000000; fill-opacity:1.0000; stroke:none;">
<circle cx="175.8884" cy="145.5939" r="0.5465" /> 
</g>
<g style="fill:#000000; fill-opacity:1.0000; stroke:none;">
<circle cx="174.8884" cy="145.0164" r="0.5465" /> 
</g>
<g style="fill:#000000; fill-opacity:1.0000; stroke:none;">
<circle cx="175.8884" cy="144.4389" r="0.5465" /> 
</g>
<g style="fill:#000000; fill-opacity:1.0000; stroke:none;">
<circle cx="174.8884" cy="143.8614" r="0.5465" /> 
</g>
<g style="fill:#000000; fill-opacity:1.0000; stroke:none;">
<circle cx="175.8884" cy="143.2839" r="0.5465" /> 
</g>
<g style="fill:#000000; fill-opacity:1.0000; stroke:none;">
<circle cx="174.8884" cy="142.7064" r="0.5465" /> 
</g>
<g style="fill:#000000; fill-opacity:1.0000; stroke:none;">
<circle cx="175.8884" cy="142.1289" r="0.5465" /> 
</g>
<g style="fill:#000000; fill-opacity:1.0000; stroke:none;">
<circle cx="174.8884" cy="141.5514" r="0.5465" /> 
</g>
<g style="fill:#000000; fill-opacity:1.0000; stroke:none;">
<circle cx="175.8884" cy="140.9739" r="0.5465" /> 
</g>
<g style="fill:#000000; fill-opacity:1.0000; stroke:none;">
<circle cx="174.8884" cy="140.3964" r="0.5465" /> 
</g>
<g style="fill:#000000; fill-opacity:1.0000; stroke:none;">
<circle cx="175.8884" cy="139.8189" r="0.5465" /> 
</g>
<g style="fill:#000000; fill-opacity:1.0000; stroke:none;">
<circle cx="174.8884" cy="139.2414" r="0.5465" /> 
</g>
<g style="fill:none; 
stroke:#000000; stroke-width:1.8640; stroke-opacity:1; 
stroke-linecap:round; stroke-linejoin:round;">
<path d="M178.6384 140.4864
L178.6384 142.2864
" />
<path d="M178.6384 149.4864
L178.6384 151.2864
" />
</g>
<g style="fill:#000000; fill-opacity:1.0000; stroke:none;">
<circle cx="175.3884" cy="156.3164" r="1.4145" /> 
</g>
<g style="fill:none; 
stroke:#000000; stroke-width:1.8640; stroke-opacity:1; 
stroke-linecap:round; stroke-linejoin:round;">
<path d="M172.1384 137.3864
L172.1384 139.1864
" />
<path d="M172.1384 146.8864
L172.1384 148.6864
" />
</g>
<g style="fill:#000000; fill-opacity:1.0000; stroke:none;">
<circle cx="110.8005" cy="142.0000" r="1.3500" /> 
<path style="fill:#000000; fill-opacity:1.0000; stroke:none;fill-rule:evenodd;"
d="M 105.4481,112.6363
103.5431,112.6363
103.5431,114.2365
105.4481,114.2365
Z" /> 
</g>
<g style="fill:none; 
stroke:#000000; stroke-width:1.6002; stroke-opacity:1; 
stroke-linecap:round; stroke-linejoin:round;">
<path d="M104.3432 110.8964
L104.6480 110.8964
" />
<path d="M104.3432 108.3564
L104.6480 108.3564
" />
<path d="M104.3432 105.8164
L104.6480 105.8164
" />
</g>
<g style="fill:none; 
stroke:#000000; stroke-width:0.1000; stroke-opacity:1; 
stroke-linecap:round; stroke-linejoin:round;">
<path d="M210.6930 159.0040 A1.0160 1.0160 0.0 0 0 211.7090 157.9880" />
<path d="M211.7090 81.0260 A1.0160 1.0160 0.0 0 0 210.6930 80.0100" />
<path d="M102.8700 80.0100 A1.0160 1.0160 0.0 0 0 101.8540 81.0260" />
<path d="M211.7090 81.0260
L211.7090 157.9880
" />
<path d="M210.6930 159.0040
L102.8700 159.0040
" />
<path d="M101.8540 157.9880 A1.0160 1.0160 0.0 0 0 102.8700 159.0040" />
<path d="M101.8540 157.9880
L101.8540 81.0260
" />
<path d="M102.8700 80.0100
L210.6930 80.0100
" />
</g>
<g style="fill:#000000; fill-opacity:1.0000; stroke:none;">
<circle cx="202.8000" cy="84.0000" r="1.3500" /> 
</g>
<g style="fill:#000000; fill-opacity:1.0000; stroke:none;">
<circle cx="158.7500" cy="97.5360" r="0.4000" /> 
</g>
<g style="fill:#000000; fill-opacity:1.0000; stroke:none;">
<circle cx="158.7500" cy="94.0360" r="0.4000" /> 
</g>
<g style="fill:#000000; fill-opacity:1.0000; stroke:none;">
<circle cx="109.6920" cy="156.2857" r="0.4953" /> 
</g>
<g style="fill:#000000; fill-opacity:1.0000; stroke:none;">
<circle cx="105.1920" cy="156.2857" r="0.4953" /> 
</g>
<g style="fill:#000000; fill-opacity:1.0000; stroke:none;">
<circle cx="110.9420" cy="153.7858" r="0.6477" /> 
</g>
<g style="fill:#000000; fill-opacity:1.0000; stroke:none;">
<circle cx="103.9420" cy="153.7858" r="0.6477" /> 
</g>
<g style="fill:#000000; fill-opacity:1.0000; stroke:none;">
<circle cx="158.7500" cy="88.2667" r="0.4000" /> 
</g>
<g style="fill:#000000; fill-opacity:1.0000; stroke:none;">
<circle cx="158.7500" cy="84.7667" r="0.4000" /> 
</g>
<g style="fill:#000000; fill-opacity:1.0000; stroke:none;">
<circle cx="164.0586" cy="148.3656" r="0.5500" /> 
</g>
<g style="fill:#000000; fill-opacity:1.0000; stroke:none;">
<circle cx="164.0586" cy="156.5656" r="0.5500" /> 
</g>
<g style="fill:#000000; fill-opacity:1.0000; stroke:none;">
<circle cx="158.9786" cy="148.3656" r="0.5500" /> 
</g>
<g style="fill:#000000; fill-opacity:1.0000; stroke:none;">
<circle cx="158.9786" cy="156.5656" r="0.5500" /> 
</g>
<g style="fill:#000000; fill-opacity:1.0000; stroke:none;">
<circle cx="123.6950" cy="155.9600" r="1.7000" /> 
</g>
<g style="fill:#000000; fill-opacity:1.0000; stroke:none;">
<circle cx="131.5750" cy="155.9600" r="1.7000" /> 
</g>
<g style="fill:#000000; fill-opacity:1.0000; stroke:none;">
<circle cx="125.0950" cy="147.3200" r="0.5334" /> 
</g>
<g style="fill:#000000; fill-opacity:1.0000; stroke:none;">
<circle cx="127.6350" cy="147.3200" r="0.5334" /> 
</g>
<g style="fill:#000000; fill-opacity:1.0000; stroke:none;">
<circle cx="130.1750" cy="147.3200" r="0.5334" /> 
</g>
<g style="fill:#000000; fill-opacity:1.0000; stroke:none;">
<circle cx="136.3188" cy="155.9346" r="1.7000" /> 
</g>
<g style="fill:#000000; fill-opacity:1.0000; stroke:none;">
<circle cx="141.6588" cy="155.9346" r="1.7000" /> 
</g>
<g style="fill:#000000; fill-opacity:1.0000; stroke:none;">
<circle cx="137.7188" cy="147.2946" r="0.5334" /> 
</g>
<g style="fill:#000000; fill-opacity:1.0000; stroke:none;">
<circle cx="140.2588" cy="147.2946" r="0.5334" /> 
</g>
<g style="fill:#000000; fill-opacity:1.0000; stroke:none;">
<circle cx="119.3440" cy="156.2857" r="0.4953" /> 
</g>
<g style="fill:#000000; fill-opacity:1.0000; stroke:none;">
<circle cx="114.8440" cy="156.2857" r="0.4953" /> 
</g>
<g style="fill:#000000; fill-opacity:1.0000; stroke:none;">
<circle cx="120.5940" cy="153.7858" r="0.6477" /> 
</g>
<g style="fill:#000000; fill-opacity:1.0000; stroke:none;">
<circle cx="113.5940" cy="153.7858" r="0.6477" /> 
</g>
<g style="fill:#000000; fill-opacity:1.0000; stroke:none;">
<circle cx="202.8000" cy="142.0000" r="1.3500" /> 
</g>
<g style="fill:#000000; fill-opacity:1.0000; stroke:none;">
<circle cx="114.6302" cy="95.7889" r="0.5000" /> 
</g>
<g style="fill:#000000; fill-opacity:1.0000; stroke:none;">
<circle cx="114.6302" cy="90.7889" r="0.5000" /> 
</g>
<g style="fill:#000000; fill-opacity:1.0000; stroke:none;">
<circle cx="185.0136" cy="89.1502" r="0.5969" /> 
</g>
<g style="fill:#000000; fill-opacity:1.0000; stroke:none;">
<circle cx="180.0136" cy="89.1502" r="0.5969" /> 
</g>
<g style="fill:#000000; fill-opacity:1.0000; stroke:none;">
<circle cx="185.0136" cy="84.1502" r="0.5969" /> 
</g>
<g style="fill:#000000; fill-opacity:1.0000; stroke:none;">
<circle cx="180.0136" cy="84.1502" r="0.5969" /> 
</g>
<g style="fill:#000000; fill-opacity:1.0000; stroke:none;">
<circle cx="146.4534" cy="155.9600" r="1.7000" /> 
</g>
<g style="fill:#000000; fill-opacity:1.0000; stroke:none;">
<circle cx="151.7934" cy="155.9600" r="1.7000" /> 
</g>
<g style="fill:#000000; fill-opacity:1.0000; stroke:none;">
<circle cx="147.8534" cy="147.3200" r="0.5334" /> 
</g>
<g style="fill:#000000; fill-opacity:1.0000; stroke:none;">
<circle cx="150.3934" cy="147.3200" r="0.5334" /> 
</g>
<g style="fill:#000000; fill-opacity:1.0000; stroke:none;">
<circle cx="104.4956" cy="121.0564" r="0.5461" /> 
</g>
<g style="fill:#000000; fill-opacity:1.0000; stroke:none;">
<circle cx="104.4956" cy="123.5964" r="0.5461" /> 
</g>
<g style="fill:#000000; fill-opacity:1.0000; stroke:none;">
<circle cx="104.4956" cy="126.1364" r="0.5461" /> 
</g>
<g style="fill:#000000; fill-opacity:1.0000; stroke:none;">
<circle cx="104.4956" cy="128.6764" r="0.5461" /> 
</g>
<g style="fill:#000000; fill-opacity:1.0000; stroke:none;">
<circle cx="104.4956" cy="131.2164" r="0.5461" /> 
</g>
<g style="fill:#000000; fill-opacity:1.0000; stroke:none;">
<circle cx="104.4956" cy="133.7564" r="0.5461" /> 
</g>
<g style="fill:#000000; fill-opacity:1.0000; stroke:none;">
<circle cx="110.8005" cy="84.0000" r="1.3500" /> 
</g>
<g style="fill:#000000; fill-opacity:1.0000; stroke:none;">
<circle cx="192.6030" cy="138.2864" r="0.8750" /> 
</g>
<g style="fill:#000000; fill-opacity:1.0000; stroke:none;">
<circle cx="189.1030" cy="151.5364" r="0.8750" /> 
</g>
<g style="fill:#000000; fill-opacity:1.0000; stroke:none;">
<circle cx="190.1030" cy="149.6364" r="0.3000" /> 
</g>
<g style="fill:#000000; fill-opacity:1.0000; stroke:none;">
<circle cx="191.1030" cy="149.0589" r="0.3000" /> 
</g>
<g style="fill:#000000; fill-opacity:1.0000; stroke:none;">
<circle cx="190.1030" cy="148.4814" r="0.3000" /> 
</g>
<g style="fill:#000000; fill-opacity:1.0000; stroke:none;">
<circle cx="191.1030" cy="147.9039" r="0.3000" /> 
</g>
<g style="fill:#000000; fill-opacity:1.0000; stroke:none;">
<circle cx="190.1030" cy="147.3264" r="0.3000" /> 
</g>
<g style="fill:#000000; fill-opacity:1.0000; stroke:none;">
<circle cx="191.1030" cy="146.7489" r="0.3000" /> 
</g>
<g style="fill:#000000; fill-opacity:1.0000; stroke:none;">
<circle cx="190.1030" cy="146.1714" r="0.3000" /> 
</g>
<g style="fill:#000000; fill-opacity:1.0000; stroke:none;">
<circle cx="191.1030" cy="145.5939" r="0.3000" /> 
</g>
<g style="fill:#000000; fill-opacity:1.0000; stroke:none;">
<circle cx="190.1030" cy="145.0164" r="0.3000" /> 
</g>
<g style="fill:#000000; fill-opacity:1.0000; stroke:none;">
<circle cx="191.1030" cy="144.4389" r="0.3000" /> 
</g>
<g style="fill:#000000; fill-opacity:1.0000; stroke:none;">
<circle cx="190.1030" cy="143.8614" r="0.3000" /> 
</g>
<g style="fill:#000000; fill-opacity:1.0000; stroke:none;">
<circle cx="191.1030" cy="143.2839" r="0.3000" /> 
</g>
<g style="fill:#000000; fill-opacity:1.0000; stroke:none;">
<circle cx="190.1030" cy="142.7064" r="0.3000" /> 
</g>
<g style="fill:#000000; fill-opacity:1.0000; stroke:none;">
<circle cx="191.1030" cy="142.1289" r="0.3000" /> 
</g>
<g style="fill:#000000; fill-opacity:1.0000; stroke:none;">
<circle cx="190.1030" cy="141.5514" r="0.3000" /> 
</g>
<g style="fill:#000000; fill-opacity:1.0000; stroke:none;">
<circle cx="191.1030" cy="140.9739" r="0.3000" /> 
</g>
<g style="fill:#000000; fill-opacity:1.0000; stroke:none;">
<circle cx="190.1030" cy="140.3964" r="0.3000" /> 
</g>
<g style="fill:#000000; fill-opacity:1.0000; stroke:none;">
<circle cx="191.1030" cy="139.8189" r="0.3000" /> 
</g>
<g style="fill:#000000; fill-opacity:1.0000; stroke:none;">
<circle cx="190.1030" cy="139.2414" r="0.3000" /> 
</g>
<g style="fill:none; 
stroke:#000000; stroke-width:0.9500; stroke-opacity:1; 
stroke-linecap:round; stroke-linejoin:round;">
<path d="M193.8530 140.4864
L193.8530 142.2864
" />
<path d="M193.8530 149.4864
L193.8530 151.2864
" />
</g>
<g style="fill:#000000; fill-opacity:1.0000; stroke:none;">
<circle cx="190.6030" cy="156.3164" r="0.8750" /> 
</g>
<g style="fill:none; 
stroke:#000000; stroke-width:0.9500; stroke-opacity:1; 
stroke-linecap:round; stroke-linejoin:round;">
<path d="M187.3530 137.3864
L187.3530 139.1864
" />
<path d="M187.3530 146.8864
L187.3530 148.6864
" />
</g>
<g style="fill:#000000; fill-opacity:1.0000; stroke:none;">
<circle cx="177.3884" cy="138.2864" r="0.8750" /> 
</g>
<g style="fill:#000000; fill-opacity:1.0000; stroke:none;">
<circle cx="173.8884" cy="151.5364" r="0.8750" /> 
</g>
<g style="fill:#000000; fill-opacity:1.0000; stroke:none;">
<circle cx="174.8884" cy="149.6364" r="0.3000" /> 
</g>
<g style="fill:#000000; fill-opacity:1.0000; stroke:none;">
<circle cx="175.8884" cy="149.0589" r="0.3000" /> 
</g>
<g style="fill:#000000; fill-opacity:1.0000; stroke:none;">
<circle cx="174.8884" cy="148.4814" r="0.3000" /> 
</g>
<g style="fill:#000000; fill-opacity:1.0000; stroke:none;">
<circle cx="175.8884" cy="147.9039" r="0.3000" /> 
</g>
<g style="fill:#000000; fill-opacity:1.0000; stroke:none;">
<circle cx="174.8884" cy="147.3264" r="0.3000" /> 
</g>
<g style="fill:#000000; fill-opacity:1.0000; stroke:none;">
<circle cx="175.8884" cy="146.7489" r="0.3000" /> 
</g>
<g style="fill:#000000; fill-opacity:1.0000; stroke:none;">
<circle cx="174.8884" cy="146.1714" r="0.3000" /> 
</g>
<g style="fill:#000000; fill-opacity:1.0000; stroke:none;">
<circle cx="175.8884" cy="145.5939" r="0.3000" /> 
</g>
<g style="fill:#000000; fill-opacity:1.0000; stroke:none;">
<circle cx="174.8884" cy="145.0164" r="0.3000" /> 
</g>
<g style="fill:#000000; fill-opacity:1.0000; stroke:none;">
<circle cx="175.8884" cy="144.4389" r="0.3000" /> 
</g>
<g style="fill:#000000; fill-opacity:1.0000; stroke:none;">
<circle cx="174.8884" cy="143.8614" r="0.3000" /> 
</g>
<g style="fill:#000000; fill-opacity:1.0000; stroke:none;">
<circle cx="175.8884" cy="143.2839" r="0.3000" /> 
</g>
<g style="fill:#000000; fill-opacity:1.0000; stroke:none;">
<circle cx="174.8884" cy="142.7064" r="0.3000" /> 
</g>
<g style="fill:#000000; fill-opacity:1.0000; stroke:none;">
<circle cx="175.8884" cy="142.1289" r="0.3000" /> 
</g>
<g style="fill:#000000; fill-opacity:1.0000; stroke:none;">
<circle cx="174.8884" cy="141.5514" r="0.3000" /> 
</g>
<g style="fill:#000000; fill-opacity:1.0000; stroke:none;">
<circle cx="175.8884" cy="140.9739" r="0.3000" /> 
</g>
<g style="fill:#000000; fill-opacity:1.0000; stroke:none;">
<circle cx="174.8884" cy="140.3964" r="0.3000" /> 
</g>
<g style="fill:#000000; fill-opacity:1.0000; stroke:none;">
<circle cx="175.8884" cy="139.8189" r="0.3000" /> 
</g>
<g style="fill:#000000; fill-opacity:1.0000; stroke:none;">
<circle cx="174.8884" cy="139.2414" r="0.3000" /> 
</g>
<g style="fill:none; 
stroke:#000000; stroke-width:0.9500; stroke-opacity:1; 
stroke-linecap:round; stroke-linejoin:round;">
<path d="M178.6384 140.4864
L178.6384 142.2864
" />
<path d="M178.6384 149.4864
L178.6384 151.2864
" />
</g>
<g style="fill:#000000; fill-opacity:1.0000; stroke:none;">
<circle cx="175.3884" cy="156.3164" r="0.8750" /> 
</g>
<g style="fill:none; 
stroke:#000000; stroke-width:0.9500; stroke-opacity:1; 
stroke-linecap:round; stroke-linejoin:round;">
<path d="M172.1384 137.3864
L172.1384 139.1864
" />
<path d="M172.1384 146.8864
L172.1384 148.6864
" />
</g>
<g style="fill:#000000; fill-opacity:1.0000; stroke:none;">
<circle cx="110.8005" cy="142.0000" r="1.3500" /> 
</g>
<g style="fill:#000000; fill-opacity:1.0000; stroke:none;">
<circle cx="104.4956" cy="113.4364" r="0.5461" /> 
</g>
<g style="fill:#000000; fill-opacity:1.0000; stroke:none;">
<circle cx="104.4956" cy="110.8964" r="0.5461" /> 
</g>
<g style="fill:#000000; fill-opacity:1.0000; stroke:none;">
<circle cx="104.4956" cy="108.3564" r="0.5461" /> 
</g>
<g style="fill:#000000; fill-opacity:1.0000; stroke:none;">
<circle cx="104.4956" cy="105.8164" r="0.5461" /> 
</g> 
</svg>
