%TF.GenerationSoftware,KiCad,Pcbnew,7.0.9-7.0.9~ubuntu20.04.1*%
%TF.CreationDate,2023-12-26T14:03:15-08:00*%
%TF.ProjectId,NX-IndicatorBoard,4e582d49-6e64-4696-9361-746f72426f61,1*%
%TF.SameCoordinates,Original*%
%TF.FileFunction,Profile,NP*%
%FSLAX46Y46*%
G04 Gerber Fmt 4.6, Leading zero omitted, Abs format (unit mm)*
G04 Created by KiCad (PCBNEW 7.0.9-7.0.9~ubuntu20.04.1) date 2023-12-26 14:03:15*
%MOMM*%
%LPD*%
G01*
G04 APERTURE LIST*
%TA.AperFunction,Profile*%
%ADD10C,0.100000*%
%TD*%
%ADD11C,0.187500*%
G04 APERTURE END LIST*
D10*
X62000000Y-123400000D02*
X62000000Y-104600000D01*
X162417028Y-49616972D02*
G75*
G03*
X159816972Y-47016972I-2600028J-28D01*
G01*
X159800000Y-126000000D02*
X64600000Y-126000000D01*
X159816972Y-47016972D02*
X142700000Y-47000000D01*
X162416972Y-49616972D02*
X162400000Y-123400000D01*
X142700000Y-47000000D02*
G75*
G03*
X140100000Y-49600000I0J-2600000D01*
G01*
X140100000Y-49600000D02*
X140100000Y-100500000D01*
X64600000Y-102000000D02*
X138600000Y-102000000D01*
X64600000Y-102000000D02*
G75*
G03*
X62000000Y-104600000I0J-2600000D01*
G01*
X159800000Y-126000000D02*
G75*
G03*
X162400000Y-123400000I0J2600000D01*
G01*
X138600000Y-102000000D02*
G75*
G03*
X140100000Y-100500000I0J1500000D01*
G01*
X62000000Y-123400000D02*
G75*
G03*
X64600000Y-126000000I2600000J0D01*
G01*
D11*
X203172497Y-82332964D02*
X203672497Y-82332964D01*
X203886783Y-83118678D02*
X203172497Y-83118678D01*
X203172497Y-83118678D02*
X203172497Y-81618678D01*
X203172497Y-81618678D02*
X203886783Y-81618678D01*
X205172498Y-83118678D02*
X205172498Y-81618678D01*
X205172498Y-83047250D02*
X205029640Y-83118678D01*
X205029640Y-83118678D02*
X204743926Y-83118678D01*
X204743926Y-83118678D02*
X204601069Y-83047250D01*
X204601069Y-83047250D02*
X204529640Y-82975821D01*
X204529640Y-82975821D02*
X204458212Y-82832964D01*
X204458212Y-82832964D02*
X204458212Y-82404392D01*
X204458212Y-82404392D02*
X204529640Y-82261535D01*
X204529640Y-82261535D02*
X204601069Y-82190107D01*
X204601069Y-82190107D02*
X204743926Y-82118678D01*
X204743926Y-82118678D02*
X205029640Y-82118678D01*
X205029640Y-82118678D02*
X205172498Y-82190107D01*
X206529641Y-82118678D02*
X206529641Y-83332964D01*
X206529641Y-83332964D02*
X206458212Y-83475821D01*
X206458212Y-83475821D02*
X206386783Y-83547250D01*
X206386783Y-83547250D02*
X206243926Y-83618678D01*
X206243926Y-83618678D02*
X206029641Y-83618678D01*
X206029641Y-83618678D02*
X205886783Y-83547250D01*
X206529641Y-83047250D02*
X206386783Y-83118678D01*
X206386783Y-83118678D02*
X206101069Y-83118678D01*
X206101069Y-83118678D02*
X205958212Y-83047250D01*
X205958212Y-83047250D02*
X205886783Y-82975821D01*
X205886783Y-82975821D02*
X205815355Y-82832964D01*
X205815355Y-82832964D02*
X205815355Y-82404392D01*
X205815355Y-82404392D02*
X205886783Y-82261535D01*
X205886783Y-82261535D02*
X205958212Y-82190107D01*
X205958212Y-82190107D02*
X206101069Y-82118678D01*
X206101069Y-82118678D02*
X206386783Y-82118678D01*
X206386783Y-82118678D02*
X206529641Y-82190107D01*
X207815355Y-83047250D02*
X207672498Y-83118678D01*
X207672498Y-83118678D02*
X207386784Y-83118678D01*
X207386784Y-83118678D02*
X207243926Y-83047250D01*
X207243926Y-83047250D02*
X207172498Y-82904392D01*
X207172498Y-82904392D02*
X207172498Y-82332964D01*
X207172498Y-82332964D02*
X207243926Y-82190107D01*
X207243926Y-82190107D02*
X207386784Y-82118678D01*
X207386784Y-82118678D02*
X207672498Y-82118678D01*
X207672498Y-82118678D02*
X207815355Y-82190107D01*
X207815355Y-82190107D02*
X207886784Y-82332964D01*
X207886784Y-82332964D02*
X207886784Y-82475821D01*
X207886784Y-82475821D02*
X207172498Y-82618678D01*
X208529640Y-82975821D02*
X208601069Y-83047250D01*
X208601069Y-83047250D02*
X208529640Y-83118678D01*
X208529640Y-83118678D02*
X208458212Y-83047250D01*
X208458212Y-83047250D02*
X208529640Y-82975821D01*
X208529640Y-82975821D02*
X208529640Y-83118678D01*
X210101069Y-82975821D02*
X210029641Y-83047250D01*
X210029641Y-83047250D02*
X209815355Y-83118678D01*
X209815355Y-83118678D02*
X209672498Y-83118678D01*
X209672498Y-83118678D02*
X209458212Y-83047250D01*
X209458212Y-83047250D02*
X209315355Y-82904392D01*
X209315355Y-82904392D02*
X209243926Y-82761535D01*
X209243926Y-82761535D02*
X209172498Y-82475821D01*
X209172498Y-82475821D02*
X209172498Y-82261535D01*
X209172498Y-82261535D02*
X209243926Y-81975821D01*
X209243926Y-81975821D02*
X209315355Y-81832964D01*
X209315355Y-81832964D02*
X209458212Y-81690107D01*
X209458212Y-81690107D02*
X209672498Y-81618678D01*
X209672498Y-81618678D02*
X209815355Y-81618678D01*
X209815355Y-81618678D02*
X210029641Y-81690107D01*
X210029641Y-81690107D02*
X210101069Y-81761535D01*
X211386784Y-82118678D02*
X211386784Y-83118678D01*
X210743926Y-82118678D02*
X210743926Y-82904392D01*
X210743926Y-82904392D02*
X210815355Y-83047250D01*
X210815355Y-83047250D02*
X210958212Y-83118678D01*
X210958212Y-83118678D02*
X211172498Y-83118678D01*
X211172498Y-83118678D02*
X211315355Y-83047250D01*
X211315355Y-83047250D02*
X211386784Y-82975821D01*
X211886784Y-82118678D02*
X212458212Y-82118678D01*
X212101069Y-81618678D02*
X212101069Y-82904392D01*
X212101069Y-82904392D02*
X212172498Y-83047250D01*
X212172498Y-83047250D02*
X212315355Y-83118678D01*
X212315355Y-83118678D02*
X212458212Y-83118678D01*
X212886784Y-83047250D02*
X213029641Y-83118678D01*
X213029641Y-83118678D02*
X213315355Y-83118678D01*
X213315355Y-83118678D02*
X213458212Y-83047250D01*
X213458212Y-83047250D02*
X213529641Y-82904392D01*
X213529641Y-82904392D02*
X213529641Y-82832964D01*
X213529641Y-82832964D02*
X213458212Y-82690107D01*
X213458212Y-82690107D02*
X213315355Y-82618678D01*
X213315355Y-82618678D02*
X213101070Y-82618678D01*
X213101070Y-82618678D02*
X212958212Y-82547250D01*
X212958212Y-82547250D02*
X212886784Y-82404392D01*
X212886784Y-82404392D02*
X212886784Y-82332964D01*
X212886784Y-82332964D02*
X212958212Y-82190107D01*
X212958212Y-82190107D02*
X213101070Y-82118678D01*
X213101070Y-82118678D02*
X213315355Y-82118678D01*
X213315355Y-82118678D02*
X213458212Y-82190107D01*
M02*
