M48
; DRILL file {KiCad 7.0.9-7.0.9~ubuntu22.04.1} date Fri 22 Dec 2023 09:08:26 PM PST
; FORMAT={-:-/ absolute / metric / decimal}
; #@! TF.CreationDate,2023-12-22T21:08:26-08:00
; #@! TF.GenerationSoftware,Kicad,Pcbnew,7.0.9-7.0.9~ubuntu22.04.1
; #@! TF.FileFunction,MixedPlating,1,4
FMAT,2
METRIC
; #@! TA.AperFunction,Plated,PTH,ViaDrill
T1C0.508
; #@! TA.AperFunction,Plated,PTH,ComponentDrill
T2C0.991
; #@! TA.AperFunction,Plated,PTH,ComponentDrill
T3C1.020
; #@! TA.AperFunction,Plated,PTH,ComponentDrill
T4C1.067
; #@! TA.AperFunction,Plated,PTH,ComponentDrill
T5C1.092
; #@! TA.AperFunction,Plated,PTH,ComponentDrill
T6C1.295
; #@! TA.AperFunction,Plated,PTH,ComponentDrill
T7C2.700
; #@! TA.AperFunction,NonPlated,NPTH,ComponentDrill
T8C1.250
; #@! TA.AperFunction,NonPlated,NPTH,ComponentDrill
T9C1.800
; #@! TA.AperFunction,NonPlated,NPTH,ComponentDrill
T10C3.400
; #@! TA.AperFunction,NonPlated,NPTH,ComponentDrill
T11C3.404
%
G90
G05
T1
X106.299Y-118.491
X106.553Y-122.936
X108.077Y-104.775
X109.728Y-105.156
X109.982Y-103.886
X110.109Y-112.776
X110.109Y-116.713
X110.109Y-118.491
X110.148Y-110.67
X111.943Y-104.787
X113.157Y-120.269
X113.792Y-111.252
X113.919Y-112.522
X114.046Y-105.41
X114.046Y-117.221
X114.173Y-118.745
X115.316Y-123.952
X116.713Y-123.991
X117.856Y-106.553
X117.983Y-112.522
X118.518Y-118.016
X118.604Y-104.852
X119.507Y-111.506
X120.142Y-108.585
X120.611Y-113.919
X121.285Y-116.967
X121.412Y-123.317
X121.666Y-112.649
X121.666Y-118.491
X125.095Y-112.395
X125.095Y-118.364
X125.73Y-106.553
X126.857Y-106.365
X128.016Y-117.729
X129.032Y-115.824
X129.159Y-108.962
X130.175Y-113.284
X132.08Y-112.268
X133.477Y-108.712
X134.747Y-108.116
X137.541Y-107.823
X141.732Y-75.311
X142.24Y-72.771
X143.51Y-120.65
X146.05Y-59.436
X146.05Y-62.611
X146.05Y-65.786
X146.05Y-68.961
X147.231Y-89.916
X147.789Y-92.296
X148.463Y-61.341
X148.463Y-64.643
X148.463Y-86.868
X148.463Y-90.043
X148.59Y-58.166
X148.59Y-77.216
X148.59Y-83.439
X148.717Y-80.264
X149.047Y-92.866
X149.606Y-96.266
X151.892Y-121.539
X152.654Y-74.422
X152.781Y-71.374
X152.908Y-68.326
X153.035Y-86.614
X154.115Y-114.681
X155.067Y-117.729
X156.718Y-113.664
X158.242Y-114.681
X158.623Y-118.872
X159.004Y-121.92
T2
X69.378Y-123.17
X73.878Y-123.17
X80.046Y-123.17
X84.546Y-123.17
T3
X156.73Y-55.87
X156.73Y-58.41
X156.73Y-60.95
X156.73Y-63.49
X156.73Y-66.03
X156.73Y-68.57
X156.73Y-71.11
X156.73Y-73.65
X156.73Y-76.19
X156.73Y-78.73
X156.73Y-81.27
X156.73Y-83.81
X156.73Y-86.35
X156.73Y-88.89
X156.73Y-91.43
X156.73Y-93.97
X156.73Y-96.51
X156.73Y-99.05
X156.73Y-101.59
X156.73Y-104.13
X159.27Y-55.87
X159.27Y-58.41
X159.27Y-60.95
X159.27Y-63.49
X159.27Y-66.03
X159.27Y-68.57
X159.27Y-71.11
X159.27Y-73.65
X159.27Y-76.19
X159.27Y-78.73
X159.27Y-81.27
X159.27Y-83.81
X159.27Y-86.35
X159.27Y-88.89
X159.27Y-91.43
X159.27Y-93.97
X159.27Y-96.51
X159.27Y-99.05
X159.27Y-101.59
X159.27Y-104.13
T4
X93.98Y-114.554
X96.52Y-114.554
X99.06Y-114.554
X132.08Y-114.554
X134.62Y-114.554
X142.24Y-114.554
X144.78Y-114.554
T5
X74.152Y-105.156
X76.692Y-105.156
X79.232Y-105.156
X81.772Y-105.156
X84.312Y-105.156
X86.852Y-105.156
X89.392Y-105.156
X145.542Y-102.616
X145.542Y-105.156
X145.542Y-107.696
X145.542Y-110.236
T6
X68.128Y-120.671
X75.128Y-120.671
X78.796Y-120.671
X85.796Y-120.671
T7
X66.0Y-109.0
X152.0Y-51.0
X152.0Y-109.0
X158.0Y-51.0
X158.0Y-109.0
T8
X105.604Y-106.862
X110.804Y-123.262
X113.224Y-106.862
X118.424Y-123.262
X120.844Y-106.862
X126.044Y-123.262
T9
X158.0Y-57.14
X158.0Y-102.86
T10
X92.58Y-123.194
X100.46Y-123.194
X130.68Y-123.194
X136.02Y-123.194
X140.84Y-123.194
X146.18Y-123.194
T11
X70.088Y-105.918
X93.456Y-105.918
T0
M30
