%TF.GenerationSoftware,KiCad,Pcbnew,7.0.9-7.0.9~ubuntu20.04.1*%
%TF.CreationDate,2023-12-26T14:03:13-08:00*%
%TF.ProjectId,NX-IndicatorBoard,4e582d49-6e64-4696-9361-746f72426f61,1*%
%TF.SameCoordinates,Original*%
%TF.FileFunction,Copper,L1,Top*%
%TF.FilePolarity,Positive*%
%FSLAX46Y46*%
G04 Gerber Fmt 4.6, Leading zero omitted, Abs format (unit mm)*
G04 Created by KiCad (PCBNEW 7.0.9-7.0.9~ubuntu20.04.1) date 2023-12-26 14:03:13*
%MOMM*%
%LPD*%
G01*
G04 APERTURE LIST*
G04 Aperture macros list*
%AMRoundRect*
0 Rectangle with rounded corners*
0 $1 Rounding radius*
0 $2 $3 $4 $5 $6 $7 $8 $9 X,Y pos of 4 corners*
0 Add a 4 corners polygon primitive as box body*
4,1,4,$2,$3,$4,$5,$6,$7,$8,$9,$2,$3,0*
0 Add four circle primitives for the rounded corners*
1,1,$1+$1,$2,$3*
1,1,$1+$1,$4,$5*
1,1,$1+$1,$6,$7*
1,1,$1+$1,$8,$9*
0 Add four rect primitives between the rounded corners*
20,1,$1+$1,$2,$3,$4,$5,0*
20,1,$1+$1,$4,$5,$6,$7,0*
20,1,$1+$1,$6,$7,$8,$9,0*
20,1,$1+$1,$8,$9,$2,$3,0*%
G04 Aperture macros list end*
%ADD10C,0.187500*%
%TA.AperFunction,NonConductor*%
%ADD11C,0.187500*%
%TD*%
%TA.AperFunction,SMDPad,CuDef*%
%ADD12RoundRect,0.150000X0.825000X0.150000X-0.825000X0.150000X-0.825000X-0.150000X0.825000X-0.150000X0*%
%TD*%
%TA.AperFunction,SMDPad,CuDef*%
%ADD13RoundRect,0.200000X-0.275000X0.200000X-0.275000X-0.200000X0.275000X-0.200000X0.275000X0.200000X0*%
%TD*%
%TA.AperFunction,SMDPad,CuDef*%
%ADD14R,0.700000X0.450000*%
%TD*%
%TA.AperFunction,SMDPad,CuDef*%
%ADD15RoundRect,0.225000X-0.225000X-0.250000X0.225000X-0.250000X0.225000X0.250000X-0.225000X0.250000X0*%
%TD*%
%TA.AperFunction,ComponentPad*%
%ADD16R,1.778000X1.778000*%
%TD*%
%TA.AperFunction,ComponentPad*%
%ADD17C,1.905000*%
%TD*%
%TA.AperFunction,ComponentPad*%
%ADD18C,1.778000*%
%TD*%
%TA.AperFunction,ComponentPad*%
%ADD19C,1.700000*%
%TD*%
%TA.AperFunction,SMDPad,CuDef*%
%ADD20R,1.780000X1.020000*%
%TD*%
%TA.AperFunction,SMDPad,CuDef*%
%ADD21R,0.550000X2.000000*%
%TD*%
%TA.AperFunction,ComponentPad*%
%ADD22C,1.498600*%
%TD*%
%TA.AperFunction,ComponentPad*%
%ADD23C,1.803400*%
%TD*%
%TA.AperFunction,ComponentPad*%
%ADD24C,5.400000*%
%TD*%
%TA.AperFunction,ComponentPad*%
%ADD25R,1.600200X1.905000*%
%TD*%
%TA.AperFunction,ComponentPad*%
%ADD26O,1.600200X1.905000*%
%TD*%
%TA.AperFunction,ComponentPad*%
%ADD27R,1.905000X1.600200*%
%TD*%
%TA.AperFunction,ComponentPad*%
%ADD28O,1.905000X1.600200*%
%TD*%
%TA.AperFunction,ViaPad*%
%ADD29C,0.889000*%
%TD*%
%TA.AperFunction,Conductor*%
%ADD30C,0.381000*%
%TD*%
%TA.AperFunction,Conductor*%
%ADD31C,0.304800*%
%TD*%
%TA.AperFunction,Conductor*%
%ADD32C,0.508000*%
%TD*%
%TA.AperFunction,Conductor*%
%ADD33C,0.254000*%
%TD*%
G04 APERTURE END LIST*
D10*
D11*
X203672497Y-51852964D02*
X203172497Y-51852964D01*
X203172497Y-52638678D02*
X203172497Y-51138678D01*
X203172497Y-51138678D02*
X203886783Y-51138678D01*
X204458211Y-52495821D02*
X204529640Y-52567250D01*
X204529640Y-52567250D02*
X204458211Y-52638678D01*
X204458211Y-52638678D02*
X204386783Y-52567250D01*
X204386783Y-52567250D02*
X204458211Y-52495821D01*
X204458211Y-52495821D02*
X204458211Y-52638678D01*
X206029640Y-52495821D02*
X205958212Y-52567250D01*
X205958212Y-52567250D02*
X205743926Y-52638678D01*
X205743926Y-52638678D02*
X205601069Y-52638678D01*
X205601069Y-52638678D02*
X205386783Y-52567250D01*
X205386783Y-52567250D02*
X205243926Y-52424392D01*
X205243926Y-52424392D02*
X205172497Y-52281535D01*
X205172497Y-52281535D02*
X205101069Y-51995821D01*
X205101069Y-51995821D02*
X205101069Y-51781535D01*
X205101069Y-51781535D02*
X205172497Y-51495821D01*
X205172497Y-51495821D02*
X205243926Y-51352964D01*
X205243926Y-51352964D02*
X205386783Y-51210107D01*
X205386783Y-51210107D02*
X205601069Y-51138678D01*
X205601069Y-51138678D02*
X205743926Y-51138678D01*
X205743926Y-51138678D02*
X205958212Y-51210107D01*
X205958212Y-51210107D02*
X206029640Y-51281535D01*
X207315355Y-51638678D02*
X207315355Y-52638678D01*
X206672497Y-51638678D02*
X206672497Y-52424392D01*
X206672497Y-52424392D02*
X206743926Y-52567250D01*
X206743926Y-52567250D02*
X206886783Y-52638678D01*
X206886783Y-52638678D02*
X207101069Y-52638678D01*
X207101069Y-52638678D02*
X207243926Y-52567250D01*
X207243926Y-52567250D02*
X207315355Y-52495821D01*
D12*
%TO.P,U1,1,TXD*%
%TO.N,/NX CAN/CAN_TX*%
X156907000Y-120205000D03*
%TO.P,U1,2,V_{SS}*%
%TO.N,GND*%
X156907000Y-118935000D03*
%TO.P,U1,3,V_{DD}*%
%TO.N,/5V*%
X156907000Y-117665000D03*
%TO.P,U1,4,RXD*%
%TO.N,/NX CAN/CAN_RX*%
X156907000Y-116395000D03*
%TO.P,U1,5,V_{IO}*%
%TO.N,/NX CAN/+3V3*%
X151957000Y-116395000D03*
%TO.P,U1,6,CANL*%
%TO.N,/CAN-NX_L-*%
X151957000Y-117665000D03*
%TO.P,U1,7,CANH*%
%TO.N,/CAN-NX_H+*%
X151957000Y-118935000D03*
%TO.P,U1,8,STBY*%
%TO.N,GND*%
X151957000Y-120205000D03*
%TD*%
D13*
%TO.P,R10,1*%
%TO.N,GND*%
X151384000Y-87193000D03*
%TO.P,R10,2*%
%TO.N,/SPI0_MOSI*%
X151384000Y-88843000D03*
%TD*%
D14*
%TO.P,Q1,1,G*%
%TO.N,/GPIO13*%
X149733000Y-60071000D03*
%TO.P,Q1,2,S*%
%TO.N,GND*%
X149733000Y-58771000D03*
%TO.P,Q1,3,D*%
%TO.N,Net-(D8B-Green-K)*%
X147733000Y-59421000D03*
%TD*%
D13*
%TO.P,R7,1*%
%TO.N,GND*%
X151384000Y-77661000D03*
%TO.P,R7,2*%
%TO.N,/SPI1_CS0*%
X151384000Y-79311000D03*
%TD*%
D14*
%TO.P,Q7,1,G*%
%TO.N,/SPI1_CS0*%
X149717000Y-79136000D03*
%TO.P,Q7,2,S*%
%TO.N,GND*%
X149717000Y-77836000D03*
%TO.P,Q7,3,D*%
%TO.N,Net-(D9B-Green-K)*%
X147717000Y-78486000D03*
%TD*%
D15*
%TO.P,C1,1*%
%TO.N,/NX CAN/+3V3*%
X151371000Y-114681000D03*
%TO.P,C1,2*%
%TO.N,GND*%
X152921000Y-114681000D03*
%TD*%
D14*
%TO.P,Q5,1,G*%
%TO.N,/SPI0_CS1*%
X149717000Y-72786000D03*
%TO.P,Q5,2,S*%
%TO.N,GND*%
X149717000Y-71486000D03*
%TO.P,Q5,3,D*%
%TO.N,Net-(D2B-Green-K)*%
X147717000Y-72136000D03*
%TD*%
D16*
%TO.P,J4,1,Pin_1*%
%TO.N,/SYS_RST_RCV_RTN*%
X99060000Y-114554000D03*
D17*
%TO.P,J4,2,Pin_2*%
%TO.N,/UART2_RXD*%
X96520000Y-114554000D03*
D18*
%TO.P,J4,3,Pin_3*%
%TO.N,/UART2_TXD*%
X93980000Y-114554000D03*
%TD*%
D13*
%TO.P,R3,1*%
%TO.N,GND*%
X151384000Y-64961000D03*
%TO.P,R3,2*%
%TO.N,/GPIO11*%
X151384000Y-66611000D03*
%TD*%
D19*
%TO.P,J2,1,Pin_1*%
%TO.N,+3V3*%
X159270000Y-104130000D03*
D20*
X160910000Y-104130000D03*
%TO.P,J2,2,Pin_2*%
%TO.N,/5V*%
X155090000Y-104130000D03*
D19*
X156730000Y-104130000D03*
%TO.P,J2,3,Pin_3*%
%TO.N,/I2C1_SDA*%
X159270000Y-101590000D03*
D20*
X160910000Y-101590000D03*
%TO.P,J2,4,Pin_4*%
%TO.N,/5V*%
X155090000Y-101590000D03*
D19*
X156730000Y-101590000D03*
%TO.P,J2,5,Pin_5*%
%TO.N,/I2C1_SCL*%
X159270000Y-99050000D03*
D20*
X160910000Y-99050000D03*
%TO.P,J2,6,Pin_6*%
%TO.N,GND*%
X155090000Y-99050000D03*
D19*
X156730000Y-99050000D03*
%TO.P,J2,7,Pin_7*%
%TO.N,/GPIO09*%
X159270000Y-96510000D03*
D20*
X160910000Y-96510000D03*
%TO.P,J2,8,Pin_8*%
%TO.N,/UART1_TXD*%
X155090000Y-96510000D03*
D19*
X156730000Y-96510000D03*
%TO.P,J2,9,Pin_9*%
%TO.N,GND*%
X159270000Y-93970000D03*
D20*
X160910000Y-93970000D03*
%TO.P,J2,10,Pin_10*%
%TO.N,/UART1_RXD*%
X155090000Y-93970000D03*
D19*
X156730000Y-93970000D03*
%TO.P,J2,11,Pin_11*%
%TO.N,/UART1_RTS*%
X159270000Y-91430000D03*
D20*
X160910000Y-91430000D03*
%TO.P,J2,12,Pin_12*%
%TO.N,/I2S0_SCLK*%
X155090000Y-91430000D03*
D19*
X156730000Y-91430000D03*
%TO.P,J2,13,Pin_13*%
%TO.N,/SPI1_SCK*%
X159270000Y-88890000D03*
D20*
X160910000Y-88890000D03*
%TO.P,J2,14,Pin_14*%
%TO.N,GND*%
X155090000Y-88890000D03*
D19*
X156730000Y-88890000D03*
%TO.P,J2,15,Pin_15*%
%TO.N,/GPIO12*%
X159270000Y-86350000D03*
D20*
X160910000Y-86350000D03*
%TO.P,J2,16,Pin_16*%
%TO.N,/SPI3_CS1*%
X155090000Y-86350000D03*
D19*
X156730000Y-86350000D03*
%TO.P,J2,17,Pin_17*%
%TO.N,+3V3*%
X159270000Y-83810000D03*
D20*
X160910000Y-83810000D03*
%TO.P,J2,18,Pin_18*%
%TO.N,/SPI3_CS0*%
X155090000Y-83810000D03*
D19*
X156730000Y-83810000D03*
%TO.P,J2,19,Pin_19*%
%TO.N,/SPI0_MOSI*%
X159270000Y-81270000D03*
D20*
X160910000Y-81270000D03*
%TO.P,J2,20,Pin_20*%
%TO.N,GND*%
X155090000Y-81270000D03*
D19*
X156730000Y-81270000D03*
%TO.P,J2,21,Pin_21*%
%TO.N,/SPI0_MISO*%
X159270000Y-78730000D03*
D20*
X160910000Y-78730000D03*
%TO.P,J2,22,Pin_22*%
%TO.N,/SPI1_MISO*%
X155090000Y-78730000D03*
D19*
X156730000Y-78730000D03*
%TO.P,J2,23,Pin_23*%
%TO.N,/SPI0_SCK*%
X159270000Y-76190000D03*
D20*
X160910000Y-76190000D03*
%TO.P,J2,24,Pin_24*%
%TO.N,/SPI1_CS0*%
X155090000Y-76190000D03*
D19*
X156730000Y-76190000D03*
%TO.P,J2,25,Pin_25*%
%TO.N,GND*%
X159270000Y-73650000D03*
D20*
X160910000Y-73650000D03*
%TO.P,J2,26,Pin_26*%
%TO.N,/SPI0_CS1*%
X155090000Y-73650000D03*
D19*
X156730000Y-73650000D03*
%TO.P,J2,27,Pin_27*%
%TO.N,/I2C0_SDA*%
X159270000Y-71110000D03*
D20*
X160910000Y-71110000D03*
%TO.P,J2,28,Pin_28*%
%TO.N,/I2C0_SCL*%
X155090000Y-71110000D03*
D19*
X156730000Y-71110000D03*
%TO.P,J2,29,Pin_29*%
%TO.N,/GPIO01*%
X159270000Y-68570000D03*
D20*
X160910000Y-68570000D03*
%TO.P,J2,30,Pin_30*%
%TO.N,GND*%
X155090000Y-68570000D03*
D19*
X156730000Y-68570000D03*
%TO.P,J2,31,Pin_31*%
%TO.N,/GPIO11*%
X159270000Y-66030000D03*
D20*
X160910000Y-66030000D03*
%TO.P,J2,32,Pin_32*%
%TO.N,/GPIO07*%
X155090000Y-66030000D03*
D19*
X156730000Y-66030000D03*
%TO.P,J2,33,Pin_33*%
%TO.N,/GPIO13*%
X159270000Y-63490000D03*
D20*
X160910000Y-63490000D03*
%TO.P,J2,34,Pin_34*%
%TO.N,GND*%
X155090000Y-63490000D03*
D19*
X156730000Y-63490000D03*
%TO.P,J2,35,Pin_35*%
%TO.N,/I2S0_FS*%
X159270000Y-60950000D03*
D20*
X160910000Y-60950000D03*
%TO.P,J2,36,Pin_36*%
%TO.N,/UART1_CTS*%
X155090000Y-60950000D03*
D19*
X156730000Y-60950000D03*
%TO.P,J2,37,Pin_37*%
%TO.N,/SPI1_MOSI*%
X159270000Y-58410000D03*
D20*
X160910000Y-58410000D03*
%TO.P,J2,38,Pin_38*%
%TO.N,/I2S0_DIN*%
X155090000Y-58410000D03*
D19*
X156730000Y-58410000D03*
%TO.P,J2,39,Pin_39*%
%TO.N,GND*%
X159270000Y-55870000D03*
D20*
X160910000Y-55870000D03*
%TO.P,J2,40,Pin_40*%
%TO.N,/I2S0_DOUT*%
X155090000Y-55870000D03*
D19*
X156730000Y-55870000D03*
%TD*%
D21*
%TO.P,D1,1,RedA*%
%TO.N,unconnected-(D1A-RedA-Pad1)*%
X107679000Y-106756400D03*
%TO.P,D1,2,Red-K*%
%TO.N,unconnected-(D1A-Red-K-Pad2)*%
X107679000Y-109956400D03*
%TO.P,D1,3,Green-A*%
%TO.N,Net-(D1B-Green-A)*%
X108729000Y-106756400D03*
%TO.P,D1,4,Green-K*%
%TO.N,GND*%
X108729000Y-109956400D03*
%TD*%
D14*
%TO.P,Q11,1,G*%
%TO.N,/GPIO12*%
X149717000Y-91836000D03*
%TO.P,Q11,2,S*%
%TO.N,GND*%
X149717000Y-90536000D03*
%TO.P,Q11,3,D*%
%TO.N,Net-(D3B-Green-K)*%
X147717000Y-91186000D03*
%TD*%
D22*
%TO.P,SW1,1,1*%
%TO.N,/SYS_RST_RCV_RTN*%
X69378000Y-123170450D03*
%TO.P,SW1,2,2*%
%TO.N,/~{SYS_RESET}*%
X73878001Y-123170450D03*
D23*
%TO.P,SW1,3*%
%TO.N,N/C*%
X68128001Y-120670574D03*
%TO.P,SW1,4*%
X75128000Y-120670574D03*
%TD*%
D13*
%TO.P,R1,1*%
%TO.N,GND*%
X151384000Y-58611000D03*
%TO.P,R1,2*%
%TO.N,/GPIO13*%
X151384000Y-60261000D03*
%TD*%
D21*
%TO.P,D7,1,RedA*%
%TO.N,Net-(D7A-RedA)*%
X107679000Y-118846800D03*
%TO.P,D7,2,Red-K*%
%TO.N,Net-(D7A-Red-K)*%
X107679000Y-122046800D03*
%TO.P,D7,3,Green-A*%
%TO.N,Net-(D7B-Green-A)*%
X108729000Y-118846800D03*
%TO.P,D7,4,Green-K*%
%TO.N,Net-(D7B-Green-K)*%
X108729000Y-122046800D03*
%TD*%
D14*
%TO.P,Q3,1,G*%
%TO.N,/GPIO11*%
X149717000Y-66436000D03*
%TO.P,Q3,2,S*%
%TO.N,GND*%
X149717000Y-65136000D03*
%TO.P,Q3,3,D*%
%TO.N,Net-(D8A-Red-K)*%
X147717000Y-65786000D03*
%TD*%
D21*
%TO.P,D5,1,RedA*%
%TO.N,Net-(D5A-RedA)*%
X115299000Y-112801600D03*
%TO.P,D5,2,Red-K*%
%TO.N,Net-(D5A-Red-K)*%
X115299000Y-116001600D03*
%TO.P,D5,3,Green-A*%
%TO.N,Net-(D5B-Green-A)*%
X116349000Y-112801600D03*
%TO.P,D5,4,Green-K*%
%TO.N,Net-(D5B-Green-K)*%
X116349000Y-116001600D03*
%TD*%
D14*
%TO.P,Q2,1,G*%
%TO.N,/GPIO07*%
X149717000Y-63261000D03*
%TO.P,Q2,2,S*%
%TO.N,GND*%
X149717000Y-61961000D03*
%TO.P,Q2,3,D*%
%TO.N,Net-(D5B-Green-K)*%
X147717000Y-62611000D03*
%TD*%
D13*
%TO.P,R12,1*%
%TO.N,GND*%
X151384000Y-93536000D03*
%TO.P,R12,2*%
%TO.N,/GPIO09*%
X151384000Y-95186000D03*
%TD*%
D21*
%TO.P,D3,1,RedA*%
%TO.N,Net-(D3A-RedA)*%
X122919000Y-106756400D03*
%TO.P,D3,2,Red-K*%
%TO.N,Net-(D3A-Red-K)*%
X122919000Y-109956400D03*
%TO.P,D3,3,Green-A*%
%TO.N,Net-(D3B-Green-A)*%
X123969000Y-106756400D03*
%TO.P,D3,4,Green-K*%
%TO.N,Net-(D3B-Green-K)*%
X123969000Y-109956400D03*
%TD*%
D14*
%TO.P,Q4,1,G*%
%TO.N,/GPIO01*%
X149717000Y-69611000D03*
%TO.P,Q4,2,S*%
%TO.N,GND*%
X149717000Y-68311000D03*
%TO.P,Q4,3,D*%
%TO.N,Net-(D5A-Red-K)*%
X147717000Y-68961000D03*
%TD*%
D13*
%TO.P,R2,1*%
%TO.N,GND*%
X151384000Y-61786000D03*
%TO.P,R2,2*%
%TO.N,/GPIO07*%
X151384000Y-63436000D03*
%TD*%
D15*
%TO.P,C2,1*%
%TO.N,/5V*%
X156197000Y-121920000D03*
%TO.P,C2,2*%
%TO.N,GND*%
X157747000Y-121920000D03*
%TD*%
D13*
%TO.P,R5,1*%
%TO.N,GND*%
X151384000Y-71311000D03*
%TO.P,R5,2*%
%TO.N,/SPI0_CS1*%
X151384000Y-72961000D03*
%TD*%
D21*
%TO.P,D4,1,RedA*%
%TO.N,unconnected-(D4A-RedA-Pad1)*%
X107679000Y-112801600D03*
%TO.P,D4,2,Red-K*%
%TO.N,unconnected-(D4A-Red-K-Pad2)*%
X107679000Y-116001600D03*
%TO.P,D4,3,Green-A*%
%TO.N,+3V3*%
X108729000Y-112801600D03*
%TO.P,D4,4,Green-K*%
%TO.N,/NX_PC_LED-*%
X108729000Y-116001600D03*
%TD*%
D14*
%TO.P,Q12,1,G*%
%TO.N,/GPIO09*%
X149717000Y-95011000D03*
%TO.P,Q12,2,S*%
%TO.N,GND*%
X149717000Y-93711000D03*
%TO.P,Q12,3,D*%
%TO.N,Net-(D3A-Red-K)*%
X147717000Y-94361000D03*
%TD*%
D13*
%TO.P,R8,1*%
%TO.N,GND*%
X151384000Y-80836000D03*
%TO.P,R8,2*%
%TO.N,/SPI1_MISO*%
X151384000Y-82486000D03*
%TD*%
D21*
%TO.P,D6,1,RedA*%
%TO.N,Net-(D6A-RedA)*%
X122919000Y-112801600D03*
%TO.P,D6,2,Red-K*%
%TO.N,Net-(D6A-Red-K)*%
X122919000Y-116001600D03*
%TO.P,D6,3,Green-A*%
%TO.N,Net-(D6B-Green-A)*%
X123969000Y-112801600D03*
%TO.P,D6,4,Green-K*%
%TO.N,Net-(D6B-Green-K)*%
X123969000Y-116001600D03*
%TD*%
D14*
%TO.P,Q9,1,G*%
%TO.N,/SPI0_MISO*%
X149717000Y-85486000D03*
%TO.P,Q9,2,S*%
%TO.N,GND*%
X149717000Y-84186000D03*
%TO.P,Q9,3,D*%
%TO.N,Net-(D9A-Red-K)*%
X147717000Y-84836000D03*
%TD*%
D24*
%TO.P,H2,1*%
%TO.N,N/C*%
X158000000Y-51000000D03*
%TD*%
D21*
%TO.P,D8,1,RedA*%
%TO.N,Net-(D8A-RedA)*%
X115299000Y-118846800D03*
%TO.P,D8,2,Red-K*%
%TO.N,Net-(D8A-Red-K)*%
X115299000Y-122046800D03*
%TO.P,D8,3,Green-A*%
%TO.N,Net-(D8B-Green-A)*%
X116349000Y-118846800D03*
%TO.P,D8,4,Green-K*%
%TO.N,Net-(D8B-Green-K)*%
X116349000Y-122046800D03*
%TD*%
%TO.P,D2,1,RedA*%
%TO.N,Net-(D2A-RedA)*%
X115299000Y-106756400D03*
%TO.P,D2,2,Red-K*%
%TO.N,Net-(D2A-Red-K)*%
X115299000Y-109956400D03*
%TO.P,D2,3,Green-A*%
%TO.N,Net-(D2B-Green-A)*%
X116349000Y-106756400D03*
%TO.P,D2,4,Green-K*%
%TO.N,Net-(D2B-Green-K)*%
X116349000Y-109956400D03*
%TD*%
D13*
%TO.P,R9,1*%
%TO.N,GND*%
X151384000Y-84011000D03*
%TO.P,R9,2*%
%TO.N,/SPI0_MISO*%
X151384000Y-85661000D03*
%TD*%
D24*
%TO.P,H1,1*%
%TO.N,N/C*%
X152000000Y-51000000D03*
%TD*%
D14*
%TO.P,Q8,1,G*%
%TO.N,/SPI1_MISO*%
X149717000Y-82311000D03*
%TO.P,Q8,2,S*%
%TO.N,GND*%
X149717000Y-81011000D03*
%TO.P,Q8,3,D*%
%TO.N,Net-(D6A-Red-K)*%
X147717000Y-81661000D03*
%TD*%
D24*
%TO.P,H4,1*%
%TO.N,N/C*%
X152000000Y-109000000D03*
%TD*%
D25*
%TO.P,J3,1,Pin_1*%
%TO.N,/NX_PC_LED-*%
X74152000Y-105156000D03*
D26*
%TO.P,J3,2,Pin_2*%
%TO.N,/UART2_RXD*%
X76692000Y-105156000D03*
%TO.P,J3,3,Pin_3*%
%TO.N,/UART2_TXD*%
X79232000Y-105156000D03*
%TO.P,J3,4,Pin_4*%
%TO.N,/SYS_RST_RCV_RTN*%
X81772000Y-105156000D03*
%TO.P,J3,5,Pin_5*%
%TO.N,/~{SYS_RESET}*%
X84312000Y-105156000D03*
%TO.P,J3,6,Pin_6*%
%TO.N,/SYS_RST_RCV_RTN*%
X86852000Y-105156000D03*
%TO.P,J3,7,Pin_7*%
%TO.N,/~{REC}*%
X89392000Y-105156000D03*
%TD*%
D24*
%TO.P,H3,1*%
%TO.N,N/C*%
X66000000Y-109000000D03*
%TD*%
%TO.P,H5,1*%
%TO.N,N/C*%
X158000000Y-109000000D03*
%TD*%
D13*
%TO.P,R11,1*%
%TO.N,GND*%
X151384000Y-90361000D03*
%TO.P,R11,2*%
%TO.N,/GPIO12*%
X151384000Y-92011000D03*
%TD*%
D16*
%TO.P,J5,1,Pin_1*%
%TO.N,/CAN-NX_H+*%
X134620000Y-114554000D03*
D18*
%TO.P,J5,2,Pin_2*%
%TO.N,/CAN-NX_L-*%
X132080000Y-114554000D03*
%TD*%
D21*
%TO.P,D9,1,RedA*%
%TO.N,Net-(D9A-RedA)*%
X122919000Y-118846800D03*
%TO.P,D9,2,Red-K*%
%TO.N,Net-(D9A-Red-K)*%
X122919000Y-122046800D03*
%TO.P,D9,3,Green-A*%
%TO.N,Net-(D9B-Green-A)*%
X123969000Y-118846800D03*
%TO.P,D9,4,Green-K*%
%TO.N,Net-(D9B-Green-K)*%
X123969000Y-122046800D03*
%TD*%
D13*
%TO.P,R6,1*%
%TO.N,GND*%
X151384000Y-74486000D03*
%TO.P,R6,2*%
%TO.N,/SPI0_SCK*%
X151384000Y-76136000D03*
%TD*%
D27*
%TO.P,J1,1,Pin_1*%
%TO.N,/NX CAN/CAN_TX*%
X145542000Y-102616000D03*
D28*
%TO.P,J1,2,Pin_2*%
%TO.N,/NX CAN/CAN_RX*%
X145542000Y-105156000D03*
%TO.P,J1,3,Pin_3*%
%TO.N,GND*%
X145542000Y-107696000D03*
%TO.P,J1,4,Pin_4*%
%TO.N,/NX CAN/+3V3*%
X145542000Y-110236000D03*
%TD*%
D14*
%TO.P,Q6,1,G*%
%TO.N,/SPI0_SCK*%
X149717000Y-75961000D03*
%TO.P,Q6,2,S*%
%TO.N,GND*%
X149717000Y-74661000D03*
%TO.P,Q6,3,D*%
%TO.N,Net-(D2A-Red-K)*%
X147717000Y-75311000D03*
%TD*%
%TO.P,Q10,1,G*%
%TO.N,/SPI0_MOSI*%
X149717000Y-88661000D03*
%TO.P,Q10,2,S*%
%TO.N,GND*%
X149717000Y-87361000D03*
%TO.P,Q10,3,D*%
%TO.N,Net-(D6B-Green-K)*%
X147717000Y-88011000D03*
%TD*%
D13*
%TO.P,R4,1*%
%TO.N,GND*%
X151384000Y-68136000D03*
%TO.P,R4,2*%
%TO.N,/GPIO01*%
X151384000Y-69786000D03*
%TD*%
D22*
%TO.P,SW2,1,1*%
%TO.N,/SYS_RST_RCV_RTN*%
X80046000Y-123170450D03*
%TO.P,SW2,2,2*%
%TO.N,/~{REC}*%
X84546001Y-123170450D03*
D23*
%TO.P,SW2,3*%
%TO.N,N/C*%
X78796001Y-120670574D03*
%TO.P,SW2,4*%
X85796000Y-120670574D03*
%TD*%
D16*
%TO.P,J6,1,Pin_1*%
%TO.N,/CAN-NX_H+*%
X144780000Y-114554000D03*
D18*
%TO.P,J6,2,Pin_2*%
%TO.N,/CAN-NX_L-*%
X142240000Y-114554000D03*
%TD*%
D29*
%TO.N,+3V3*%
X106553000Y-122936000D03*
X114046000Y-117221000D03*
X121412000Y-123317000D03*
X113792000Y-111252000D03*
X110109000Y-112776000D03*
X121285000Y-116967000D03*
X120142000Y-108585000D03*
X113157000Y-120269000D03*
%TO.N,GND*%
X149606000Y-96266000D03*
X159004000Y-121920000D03*
X110147600Y-110669638D03*
X148590000Y-83439000D03*
X158623000Y-118872000D03*
X149047260Y-92865539D03*
X148463000Y-64643000D03*
X148590000Y-77216000D03*
X148463000Y-61341000D03*
X152781000Y-71374000D03*
X148590000Y-58166000D03*
X148463000Y-90043000D03*
X154115000Y-114681000D03*
X148717000Y-80264000D03*
X151892000Y-121539000D03*
X152654000Y-74422000D03*
X143510000Y-120650000D03*
X152908000Y-68326000D03*
X148463000Y-86868000D03*
%TO.N,/5V*%
X156718000Y-113664500D03*
X155067000Y-117729000D03*
%TO.N,/NX CAN/CAN_TX*%
X158242000Y-114681000D03*
%TO.N,/SPI0_MOSI*%
X153035000Y-86614000D03*
%TO.N,/NX_PC_LED-*%
X110109000Y-116713000D03*
%TO.N,Net-(D1B-Green-A)*%
X108077000Y-104775000D03*
%TO.N,Net-(D2A-RedA)*%
X114046000Y-105410000D03*
%TO.N,Net-(D2A-Red-K)*%
X111942808Y-104787200D03*
X141732000Y-75311000D03*
%TO.N,Net-(D2B-Green-A)*%
X117856000Y-106553000D03*
%TO.N,Net-(D2B-Green-K)*%
X142240000Y-72771000D03*
X118604343Y-104851700D03*
%TO.N,Net-(D3A-RedA)*%
X126856958Y-106365173D03*
%TO.N,Net-(D3B-Green-A)*%
X125730000Y-106553000D03*
%TO.N,Net-(D5A-RedA)*%
X113919000Y-112522000D03*
%TO.N,Net-(D5A-Red-K)*%
X146050000Y-68961000D03*
X120611400Y-113919000D03*
%TO.N,Net-(D5B-Green-K)*%
X146050000Y-62611000D03*
X119507000Y-111506000D03*
%TO.N,Net-(D7A-RedA)*%
X106299000Y-118491000D03*
%TO.N,Net-(D7A-Red-K)*%
X147789400Y-92295572D03*
X109728000Y-105156000D03*
%TO.N,Net-(D5B-Green-A)*%
X117983000Y-112522000D03*
%TO.N,Net-(D6A-RedA)*%
X121666000Y-112649000D03*
%TO.N,Net-(D6A-Red-K)*%
X130175000Y-113284000D03*
X134747000Y-108115600D03*
%TO.N,Net-(D6B-Green-A)*%
X125095000Y-112395000D03*
%TO.N,Net-(D6B-Green-K)*%
X133477000Y-108712000D03*
X132080000Y-112268000D03*
%TO.N,Net-(D7B-Green-A)*%
X110109000Y-118491000D03*
%TO.N,Net-(D7B-Green-K)*%
X147230600Y-89916000D03*
X109982000Y-103886000D03*
%TO.N,Net-(D8A-RedA)*%
X114173000Y-118745000D03*
%TO.N,Net-(D8A-Red-K)*%
X115316000Y-123952000D03*
X146050000Y-65786000D03*
%TO.N,Net-(D8B-Green-A)*%
X118517659Y-118015916D03*
%TO.N,Net-(D8B-Green-K)*%
X116713000Y-123990600D03*
X146050000Y-59436000D03*
%TO.N,Net-(D9A-RedA)*%
X121666000Y-118491000D03*
%TO.N,Net-(D9A-Red-K)*%
X137541000Y-107823000D03*
X129032000Y-115824000D03*
%TO.N,Net-(D9B-Green-A)*%
X125095000Y-118364000D03*
%TO.N,Net-(D9B-Green-K)*%
X128016000Y-117729000D03*
X129159000Y-108961600D03*
%TD*%
D30*
%TO.N,+3V3*%
X110083400Y-112801600D02*
X108729000Y-112801600D01*
X110109000Y-112776000D02*
X110083400Y-112801600D01*
D31*
%TO.N,GND*%
X151384000Y-93536000D02*
X150558000Y-93536000D01*
X150495000Y-87376000D02*
X149732000Y-87376000D01*
X150383000Y-77836000D02*
X149717000Y-77836000D01*
X149083000Y-77836000D02*
X148590000Y-77343000D01*
X151384000Y-84011000D02*
X150558000Y-84011000D01*
X150383000Y-68311000D02*
X149717000Y-68311000D01*
X152590000Y-74486000D02*
X152654000Y-74422000D01*
X148956000Y-65136000D02*
X148463000Y-64643000D01*
X149083000Y-81011000D02*
X148717000Y-80645000D01*
X150558000Y-93536000D02*
X150383000Y-93711000D01*
X151384000Y-71311000D02*
X152718000Y-71311000D01*
X150558000Y-84011000D02*
X150383000Y-84186000D01*
X150558000Y-64961000D02*
X150383000Y-65136000D01*
X150558000Y-77661000D02*
X150383000Y-77836000D01*
D32*
X152921000Y-114681000D02*
X154115000Y-114681000D01*
D31*
X148717000Y-80645000D02*
X148717000Y-80264000D01*
X149733000Y-58771000D02*
X149195000Y-58771000D01*
X150495000Y-90551000D02*
X149732000Y-90551000D01*
X149717000Y-61961000D02*
X149083000Y-61961000D01*
X150685000Y-90361000D02*
X150495000Y-90551000D01*
X148956000Y-87361000D02*
X148463000Y-86868000D01*
X150655000Y-58611000D02*
X150495000Y-58771000D01*
X151384000Y-77661000D02*
X150558000Y-77661000D01*
D30*
X109385364Y-109956400D02*
X108729000Y-109956400D01*
D31*
X150558000Y-71311000D02*
X150383000Y-71486000D01*
X149047260Y-92865539D02*
X149047260Y-93548260D01*
D32*
X158560000Y-118935000D02*
X158623000Y-118872000D01*
X151892000Y-120270000D02*
X151957000Y-120205000D01*
D31*
X150558000Y-74486000D02*
X150383000Y-74661000D01*
X149732000Y-87376000D02*
X149717000Y-87361000D01*
X149210000Y-93711000D02*
X149717000Y-93711000D01*
X150383000Y-71486000D02*
X149717000Y-71486000D01*
X149047260Y-93548260D02*
X149210000Y-93711000D01*
X151384000Y-74486000D02*
X150558000Y-74486000D01*
X150383000Y-74661000D02*
X149717000Y-74661000D01*
X149717000Y-81011000D02*
X149083000Y-81011000D01*
X150383000Y-93711000D02*
X149717000Y-93711000D01*
X150383000Y-81011000D02*
X149717000Y-81011000D01*
X148590000Y-77343000D02*
X148590000Y-77216000D01*
X150495000Y-61786000D02*
X151384000Y-61786000D01*
X150383000Y-65136000D02*
X149717000Y-65136000D01*
X151384000Y-90361000D02*
X150685000Y-90361000D01*
X152718000Y-68136000D02*
X152908000Y-68326000D01*
X150495000Y-58771000D02*
X149733000Y-58771000D01*
X149717000Y-61961000D02*
X150320000Y-61961000D01*
X148956000Y-84186000D02*
X148590000Y-83820000D01*
X149732000Y-90551000D02*
X149717000Y-90536000D01*
X150558000Y-68136000D02*
X150383000Y-68311000D01*
X150320000Y-61961000D02*
X150495000Y-61786000D01*
X151384000Y-58611000D02*
X150655000Y-58611000D01*
X149717000Y-65136000D02*
X148956000Y-65136000D01*
X150383000Y-84186000D02*
X149717000Y-84186000D01*
X151384000Y-71311000D02*
X150558000Y-71311000D01*
X149717000Y-87361000D02*
X148956000Y-87361000D01*
D30*
X110147600Y-110669638D02*
X110098602Y-110669638D01*
D31*
X151384000Y-64961000D02*
X150558000Y-64961000D01*
D30*
X110098602Y-110669638D02*
X109385364Y-109956400D01*
D31*
X151384000Y-80836000D02*
X150558000Y-80836000D01*
X151224000Y-58771000D02*
X151384000Y-58611000D01*
X151384000Y-68136000D02*
X152718000Y-68136000D01*
X150558000Y-80836000D02*
X150383000Y-81011000D01*
X149717000Y-77836000D02*
X149083000Y-77836000D01*
X152718000Y-71311000D02*
X152781000Y-71374000D01*
X151384000Y-87193000D02*
X150678000Y-87193000D01*
X149717000Y-90536000D02*
X148956000Y-90536000D01*
X149083000Y-61961000D02*
X148463000Y-61341000D01*
X151384000Y-74486000D02*
X152590000Y-74486000D01*
D32*
X156907000Y-118935000D02*
X158560000Y-118935000D01*
D31*
X148590000Y-83820000D02*
X148590000Y-83439000D01*
X151384000Y-68136000D02*
X150558000Y-68136000D01*
X149717000Y-84186000D02*
X148956000Y-84186000D01*
X150678000Y-87193000D02*
X150495000Y-87376000D01*
X149195000Y-58771000D02*
X148590000Y-58166000D01*
D32*
X151892000Y-121539000D02*
X151892000Y-120270000D01*
D31*
X148956000Y-90536000D02*
X148463000Y-90043000D01*
D32*
X159004000Y-121920000D02*
X157747000Y-121920000D01*
%TO.N,/NX CAN/+3V3*%
X150558000Y-116395000D02*
X151957000Y-116395000D01*
X149987000Y-114681000D02*
X151371000Y-114681000D01*
X149987000Y-115824000D02*
X150558000Y-116395000D01*
X149987000Y-114681000D02*
X149987000Y-115824000D01*
X145542000Y-110236000D02*
X149987000Y-114681000D01*
%TO.N,/5V*%
X155448000Y-121920000D02*
X155067000Y-121539000D01*
X155067000Y-117729000D02*
X155131000Y-117665000D01*
X149870000Y-104130000D02*
X152527000Y-104130000D01*
X155067000Y-121539000D02*
X155067000Y-117729000D01*
X148336000Y-105664000D02*
X149870000Y-104130000D01*
X155956500Y-112903000D02*
X150622000Y-112903000D01*
X153299000Y-101590000D02*
X152527000Y-102362000D01*
X148336000Y-110617000D02*
X148336000Y-105664000D01*
X155131000Y-117665000D02*
X156907000Y-117665000D01*
X155090000Y-101590000D02*
X153299000Y-101590000D01*
X150622000Y-112903000D02*
X148336000Y-110617000D01*
X152527000Y-104130000D02*
X156730000Y-104130000D01*
X156718000Y-113664500D02*
X155956500Y-112903000D01*
X156197000Y-121920000D02*
X155448000Y-121920000D01*
X152527000Y-102362000D02*
X152527000Y-104130000D01*
%TO.N,/CAN-NX_L-*%
X151957000Y-117665000D02*
X149415000Y-117665000D01*
X148590000Y-116840000D02*
X148590000Y-114935000D01*
X132080000Y-114300000D02*
X133477000Y-112903000D01*
X143383000Y-112776000D02*
X142240000Y-113919000D01*
X133477000Y-112903000D02*
X140589000Y-112903000D01*
X140589000Y-112903000D02*
X142240000Y-114554000D01*
X142240000Y-113919000D02*
X142240000Y-114554000D01*
X149415000Y-117665000D02*
X148590000Y-116840000D01*
X148590000Y-114935000D02*
X146431000Y-112776000D01*
X132080000Y-114554000D02*
X132080000Y-114300000D01*
X146431000Y-112776000D02*
X143383000Y-112776000D01*
%TO.N,/CAN-NX_H+*%
X144780000Y-115697000D02*
X144780000Y-114554000D01*
X144145000Y-116332000D02*
X144780000Y-115697000D01*
X139446000Y-114554000D02*
X141224000Y-116332000D01*
X146939000Y-115062000D02*
X146431000Y-114554000D01*
X146939000Y-116586000D02*
X146939000Y-115062000D01*
X146431000Y-114554000D02*
X144780000Y-114554000D01*
X144780000Y-114554000D02*
X144653000Y-114681000D01*
X151957000Y-118935000D02*
X149288000Y-118935000D01*
X134620000Y-114554000D02*
X139446000Y-114554000D01*
X149288000Y-118935000D02*
X146939000Y-116586000D01*
X141224000Y-116332000D02*
X144145000Y-116332000D01*
%TO.N,/~{SYS_RESET}*%
X84312000Y-106696000D02*
X73351497Y-117656503D01*
X73351497Y-117656503D02*
X73351497Y-122643946D01*
X84312000Y-105156000D02*
X84312000Y-106696000D01*
X73351497Y-122643946D02*
X73878001Y-123170450D01*
%TO.N,/~{REC}*%
X89392000Y-105156000D02*
X89392000Y-108474000D01*
X83185000Y-114681000D02*
X83185000Y-121809449D01*
X89392000Y-108474000D02*
X83185000Y-114681000D01*
X83185000Y-121809449D02*
X84546001Y-123170450D01*
D30*
%TO.N,/NX CAN/CAN_TX*%
X158242000Y-114681000D02*
X159512000Y-115951000D01*
X159512000Y-115951000D02*
X159512000Y-119634000D01*
X159512000Y-119634000D02*
X158941000Y-120205000D01*
X158941000Y-120205000D02*
X156907000Y-120205000D01*
%TO.N,/NX CAN/CAN_RX*%
X147637500Y-110906328D02*
X150332672Y-113601500D01*
X145542000Y-105156000D02*
X147637500Y-107251500D01*
X150332672Y-113601500D02*
X155384500Y-113601500D01*
X155384500Y-113601500D02*
X156907000Y-115124000D01*
X147637500Y-107251500D02*
X147637500Y-110906328D01*
X156907000Y-115124000D02*
X156907000Y-116395000D01*
D31*
%TO.N,/GPIO09*%
X150368000Y-94996000D02*
X149732000Y-94996000D01*
X159270000Y-96510000D02*
X158010000Y-95250000D01*
X151384000Y-95186000D02*
X150558000Y-95186000D01*
X149732000Y-94996000D02*
X149717000Y-95011000D01*
X158010000Y-95250000D02*
X151448000Y-95250000D01*
X151448000Y-95250000D02*
X151384000Y-95186000D01*
X150558000Y-95186000D02*
X150368000Y-94996000D01*
%TO.N,/GPIO12*%
X152464000Y-92011000D02*
X151384000Y-92011000D01*
X151384000Y-92011000D02*
X150558000Y-92011000D01*
X157990000Y-87630000D02*
X153670000Y-87630000D01*
X153289000Y-88011000D02*
X153289000Y-89662000D01*
X150383000Y-91836000D02*
X149717000Y-91836000D01*
X150558000Y-92011000D02*
X150383000Y-91836000D01*
X152781000Y-90170000D02*
X152781000Y-91694000D01*
X153670000Y-87630000D02*
X153289000Y-88011000D01*
X153289000Y-89662000D02*
X152781000Y-90170000D01*
X159270000Y-86350000D02*
X157990000Y-87630000D01*
X152781000Y-91694000D02*
X152464000Y-92011000D01*
%TO.N,/SPI0_MOSI*%
X150368000Y-88646000D02*
X149732000Y-88646000D01*
X149732000Y-88646000D02*
X149717000Y-88661000D01*
X152203000Y-88843000D02*
X151384000Y-88843000D01*
X151384000Y-88843000D02*
X150565000Y-88843000D01*
X152654000Y-86995000D02*
X152654000Y-88392000D01*
X152654000Y-88392000D02*
X152203000Y-88843000D01*
X153035000Y-86614000D02*
X152654000Y-86995000D01*
X150565000Y-88843000D02*
X150368000Y-88646000D01*
%TO.N,/SPI0_MISO*%
X159270000Y-78730000D02*
X157990000Y-80010000D01*
X154305000Y-80010000D02*
X153466800Y-80848200D01*
X151384000Y-85661000D02*
X151320000Y-85725000D01*
X153466800Y-84404200D02*
X152210000Y-85661000D01*
X150256000Y-85486000D02*
X149717000Y-85486000D01*
X157990000Y-80010000D02*
X154305000Y-80010000D01*
X153466800Y-80848200D02*
X153466800Y-84404200D01*
X152210000Y-85661000D02*
X151384000Y-85661000D01*
X150495000Y-85725000D02*
X150256000Y-85486000D01*
X151320000Y-85725000D02*
X150495000Y-85725000D01*
%TO.N,/SPI1_MISO*%
X155090000Y-78730000D02*
X153807000Y-78730000D01*
X153807000Y-78730000D02*
X152908000Y-79629000D01*
X152908000Y-81915000D02*
X152337000Y-82486000D01*
X151384000Y-82486000D02*
X150558000Y-82486000D01*
X152908000Y-79629000D02*
X152908000Y-81915000D01*
X152337000Y-82486000D02*
X151384000Y-82486000D01*
X150558000Y-82486000D02*
X150383000Y-82311000D01*
X150383000Y-82311000D02*
X149717000Y-82311000D01*
%TO.N,/SPI0_SCK*%
X151384000Y-76136000D02*
X150558000Y-76136000D01*
X153797000Y-74930000D02*
X158010000Y-74930000D01*
X150368000Y-75946000D02*
X149732000Y-75946000D01*
X149732000Y-75946000D02*
X149717000Y-75961000D01*
X152591000Y-76136000D02*
X153797000Y-74930000D01*
X158010000Y-74930000D02*
X159270000Y-76190000D01*
X151384000Y-76136000D02*
X152591000Y-76136000D01*
X150558000Y-76136000D02*
X150368000Y-75946000D01*
%TO.N,/SPI1_CS0*%
X150558000Y-79311000D02*
X150383000Y-79136000D01*
X155090000Y-76190000D02*
X154188000Y-76190000D01*
X152908000Y-78740000D02*
X152337000Y-79311000D01*
X150383000Y-79136000D02*
X149717000Y-79136000D01*
X151384000Y-79311000D02*
X150558000Y-79311000D01*
X152337000Y-79311000D02*
X151384000Y-79311000D01*
X154188000Y-76190000D02*
X152908000Y-77470000D01*
X152908000Y-77470000D02*
X152908000Y-78740000D01*
%TO.N,/SPI0_CS1*%
X155090000Y-73650000D02*
X153406000Y-73650000D01*
X150383000Y-72786000D02*
X149717000Y-72786000D01*
X151384000Y-72961000D02*
X150558000Y-72961000D01*
X152717000Y-72961000D02*
X151384000Y-72961000D01*
X153406000Y-73650000D02*
X152717000Y-72961000D01*
X150558000Y-72961000D02*
X150383000Y-72786000D01*
%TO.N,/GPIO01*%
X150558000Y-69786000D02*
X150383000Y-69611000D01*
X150383000Y-69611000D02*
X149717000Y-69611000D01*
X157990000Y-69850000D02*
X151448000Y-69850000D01*
X151448000Y-69850000D02*
X151384000Y-69786000D01*
X159270000Y-68570000D02*
X157990000Y-69850000D01*
X151384000Y-69786000D02*
X150558000Y-69786000D01*
%TO.N,/GPIO11*%
X153416000Y-67310000D02*
X157990000Y-67310000D01*
X149717000Y-66436000D02*
X150383000Y-66436000D01*
X157990000Y-67310000D02*
X159270000Y-66030000D01*
X150558000Y-66611000D02*
X151384000Y-66611000D01*
X152717000Y-66611000D02*
X153416000Y-67310000D01*
X151384000Y-66611000D02*
X152717000Y-66611000D01*
X150383000Y-66436000D02*
X150558000Y-66611000D01*
%TO.N,/GPIO07*%
X153787000Y-66030000D02*
X153289000Y-65532000D01*
X152717000Y-63436000D02*
X151384000Y-63436000D01*
X150558000Y-63436000D02*
X150383000Y-63261000D01*
X155090000Y-66030000D02*
X153787000Y-66030000D01*
X151384000Y-63436000D02*
X150558000Y-63436000D01*
X153289000Y-65532000D02*
X153289000Y-64008000D01*
X150383000Y-63261000D02*
X149717000Y-63261000D01*
X153289000Y-64008000D02*
X152717000Y-63436000D01*
%TO.N,/GPIO13*%
X150495000Y-60071000D02*
X149733000Y-60071000D01*
X151384000Y-60261000D02*
X150685000Y-60261000D01*
X158010000Y-62230000D02*
X154051000Y-62230000D01*
X153098000Y-60261000D02*
X151384000Y-60261000D01*
X154051000Y-62230000D02*
X153416000Y-61595000D01*
X153416000Y-60579000D02*
X153098000Y-60261000D01*
X150685000Y-60261000D02*
X150495000Y-60071000D01*
X159270000Y-63490000D02*
X158010000Y-62230000D01*
X153416000Y-61595000D02*
X153416000Y-60579000D01*
%TO.N,/NX_PC_LED-*%
X109651600Y-116001600D02*
X108729000Y-116001600D01*
X110109000Y-116459000D02*
X109651600Y-116001600D01*
X110109000Y-116713000D02*
X110109000Y-116459000D01*
D30*
%TO.N,Net-(D1B-Green-A)*%
X108077000Y-104775000D02*
X108729000Y-105427000D01*
X108729000Y-105427000D02*
X108729000Y-106756400D01*
%TO.N,Net-(D2A-RedA)*%
X114173000Y-105283000D02*
X115189000Y-105283000D01*
X115299000Y-105393000D02*
X115299000Y-106756400D01*
X115189000Y-105283000D02*
X115299000Y-105393000D01*
X114046000Y-105410000D02*
X114173000Y-105283000D01*
D31*
%TO.N,Net-(D2A-Red-K)*%
X111887000Y-107442000D02*
X114401400Y-109956400D01*
X111942808Y-104787200D02*
X111887000Y-104843008D01*
X111887000Y-104843008D02*
X111887000Y-107442000D01*
X147717000Y-75311000D02*
X141732000Y-75311000D01*
X114401400Y-109956400D02*
X115299000Y-109956400D01*
D30*
%TO.N,Net-(D2B-Green-A)*%
X117856000Y-106553000D02*
X117348000Y-106553000D01*
X117144600Y-106756400D02*
X116349000Y-106756400D01*
X117348000Y-106553000D02*
X117144600Y-106756400D01*
D31*
%TO.N,Net-(D2B-Green-K)*%
X142875000Y-72136000D02*
X142240000Y-72771000D01*
X119253000Y-108712000D02*
X119253000Y-108839000D01*
X118604343Y-104851700D02*
X119253000Y-105500357D01*
X147717000Y-72136000D02*
X142875000Y-72136000D01*
X119253000Y-109093000D02*
X118389600Y-109956400D01*
X118389600Y-109956400D02*
X116349000Y-109956400D01*
X119253000Y-108712000D02*
X119253000Y-109093000D01*
X119253000Y-105500357D02*
X119253000Y-108712000D01*
%TO.N,Net-(D3A-RedA)*%
X122919000Y-105554000D02*
X123444000Y-105029000D01*
X126856958Y-105647958D02*
X126856958Y-106365173D01*
X123444000Y-105029000D02*
X126238000Y-105029000D01*
X122919000Y-106756400D02*
X122919000Y-105554000D01*
X126238000Y-105029000D02*
X126856958Y-105647958D01*
%TO.N,Net-(D3A-Red-K)*%
X123317000Y-111379000D02*
X137089524Y-111379000D01*
X137089524Y-111379000D02*
X139928600Y-108539924D01*
X122919000Y-109956400D02*
X122919000Y-110981000D01*
X139928600Y-107100710D02*
X143891000Y-103138310D01*
X143891000Y-103138310D02*
X143891000Y-100852310D01*
X143891000Y-100852310D02*
X147717000Y-97026310D01*
X147717000Y-97026310D02*
X147717000Y-94361000D01*
X139928600Y-108539924D02*
X139928600Y-107100710D01*
X122919000Y-110981000D02*
X123317000Y-111379000D01*
%TO.N,Net-(D3B-Green-A)*%
X123969000Y-106756400D02*
X125526600Y-106756400D01*
D30*
X125730000Y-106553000D02*
X125603000Y-106553000D01*
D31*
X125526600Y-106756400D02*
X125730000Y-106553000D01*
%TO.N,Net-(D3B-Green-K)*%
X139369800Y-108308462D02*
X139369800Y-106869248D01*
X143332200Y-100620848D02*
X146939000Y-97014048D01*
X146939000Y-97014048D02*
X146939000Y-91440000D01*
X147193000Y-91186000D02*
X147717000Y-91186000D01*
X123969000Y-109956400D02*
X137721862Y-109956400D01*
X143332200Y-102906848D02*
X143332200Y-100620848D01*
X146939000Y-91440000D02*
X147193000Y-91186000D01*
X137721862Y-109956400D02*
X139369800Y-108308462D01*
X139369800Y-106869248D02*
X143332200Y-102906848D01*
%TO.N,Net-(D5A-RedA)*%
X115299000Y-112801600D02*
X114198600Y-112801600D01*
X114198600Y-112801600D02*
X113919000Y-112522000D01*
%TO.N,Net-(D5A-Red-K)*%
X115299000Y-117204000D02*
X115299000Y-116001600D01*
X115503000Y-117408000D02*
X115299000Y-117204000D01*
X117923000Y-117408000D02*
X115503000Y-117408000D01*
X120611400Y-114719600D02*
X117923000Y-117408000D01*
X147717000Y-68961000D02*
X146050000Y-68961000D01*
X120611400Y-113919000D02*
X120611400Y-114719600D01*
%TO.N,Net-(D5B-Green-K)*%
X119507000Y-111506000D02*
X119507000Y-114554000D01*
X119507000Y-114554000D02*
X118059400Y-116001600D01*
X118059400Y-116001600D02*
X116349000Y-116001600D01*
X147717000Y-62611000D02*
X146050000Y-62611000D01*
D33*
%TO.N,Net-(D7A-RedA)*%
X106654800Y-118846800D02*
X106299000Y-118491000D01*
X107679000Y-118846800D02*
X106654800Y-118846800D01*
D31*
%TO.N,Net-(D7A-Red-K)*%
X105410000Y-122047000D02*
X107678800Y-122047000D01*
X107678800Y-122047000D02*
X107679000Y-122046800D01*
X108496100Y-103924100D02*
X105752900Y-103924100D01*
X104267000Y-105410000D02*
X104267000Y-120904000D01*
X104267000Y-120904000D02*
X105410000Y-122047000D01*
X109728000Y-105156000D02*
X108496100Y-103924100D01*
X105752900Y-103924100D02*
X104267000Y-105410000D01*
%TO.N,Net-(D5B-Green-A)*%
X116349000Y-112801600D02*
X117703400Y-112801600D01*
X117703400Y-112801600D02*
X117983000Y-112522000D01*
%TO.N,Net-(D6A-RedA)*%
X121818600Y-112801600D02*
X121666000Y-112649000D01*
X122919000Y-112801600D02*
X121818600Y-112801600D01*
%TO.N,Net-(D6A-Red-K)*%
X145262600Y-96319662D02*
X141655800Y-99926462D01*
X122919000Y-117001600D02*
X123357800Y-117440400D01*
X135752662Y-108115600D02*
X134747000Y-108115600D01*
X122919000Y-116001600D02*
X122919000Y-117001600D01*
X141655800Y-99926462D02*
X141655800Y-102212462D01*
X129286000Y-113284000D02*
X130175000Y-113284000D01*
X141655800Y-102212462D02*
X135752662Y-108115600D01*
X125129600Y-117440400D02*
X129286000Y-113284000D01*
X123357800Y-117440400D02*
X125129600Y-117440400D01*
X145262600Y-83210400D02*
X145262600Y-96319662D01*
X147717000Y-81661000D02*
X146812000Y-81661000D01*
X146812000Y-81661000D02*
X145262600Y-83210400D01*
%TO.N,Net-(D6B-Green-A)*%
X124688400Y-112801600D02*
X125095000Y-112395000D01*
X123969000Y-112801600D02*
X124688400Y-112801600D01*
%TO.N,Net-(D6B-Green-K)*%
X138811000Y-108077000D02*
X137922000Y-108966000D01*
X137922000Y-108966000D02*
X133731000Y-108966000D01*
X146380200Y-96782586D02*
X142773400Y-100389386D01*
X147717000Y-88011000D02*
X147066000Y-88011000D01*
X125425400Y-116001600D02*
X129159000Y-112268000D01*
X142773400Y-100389386D02*
X142773400Y-102675386D01*
X142773400Y-102675386D02*
X138811000Y-106637786D01*
X129159000Y-112268000D02*
X132080000Y-112268000D01*
X138811000Y-106637786D02*
X138811000Y-108077000D01*
X146380200Y-88696800D02*
X146380200Y-96782586D01*
X133731000Y-108966000D02*
X133477000Y-108712000D01*
X123969000Y-116001600D02*
X125425400Y-116001600D01*
X147066000Y-88011000D02*
X146380200Y-88696800D01*
D33*
%TO.N,Net-(D7B-Green-A)*%
X108729000Y-118846800D02*
X109753200Y-118846800D01*
X109753200Y-118846800D02*
X110109000Y-118491000D01*
D31*
%TO.N,Net-(D7B-Green-K)*%
X109855000Y-122047000D02*
X108729200Y-122047000D01*
X108729200Y-122047000D02*
X108729000Y-122046800D01*
X110998000Y-120904000D02*
X109855000Y-122047000D01*
X110998000Y-104902000D02*
X110998000Y-120904000D01*
X109982000Y-103886000D02*
X110998000Y-104902000D01*
%TO.N,Net-(D8A-RedA)*%
X115299000Y-118846800D02*
X114274800Y-118846800D01*
X114274800Y-118846800D02*
X114173000Y-118745000D01*
%TO.N,Net-(D8A-Red-K)*%
X147717000Y-65786000D02*
X146050000Y-65786000D01*
X115316000Y-121929000D02*
X115299000Y-121912000D01*
X115299000Y-123935000D02*
X115316000Y-123952000D01*
X115299000Y-122046800D02*
X115299000Y-123935000D01*
%TO.N,Net-(D8B-Green-A)*%
X118517659Y-118015916D02*
X117686775Y-118846800D01*
X117686775Y-118846800D02*
X116349000Y-118846800D01*
%TO.N,Net-(D8B-Green-K)*%
X146065000Y-59421000D02*
X147733000Y-59421000D01*
X116332000Y-121929000D02*
X116349000Y-121912000D01*
X116349000Y-122046800D02*
X116349000Y-123626600D01*
X146050000Y-59436000D02*
X146065000Y-59421000D01*
X116349000Y-123626600D02*
X116713000Y-123990600D01*
%TO.N,Net-(D9A-RedA)*%
X122919000Y-118846800D02*
X122021800Y-118846800D01*
X122021800Y-118846800D02*
X121666000Y-118491000D01*
%TO.N,Net-(D9A-Red-K)*%
X146812000Y-84836000D02*
X147717000Y-84836000D01*
X142214600Y-102443924D02*
X142214600Y-100157924D01*
X137541000Y-107823000D02*
X137541000Y-107117524D01*
X126619000Y-124714000D02*
X127508000Y-123825000D01*
X129032000Y-120650000D02*
X129032000Y-115824000D01*
X145821400Y-96551124D02*
X145821400Y-85826600D01*
X142214600Y-100157924D02*
X145821400Y-96551124D01*
X127508000Y-123825000D02*
X127508000Y-122174000D01*
X127508000Y-122174000D02*
X129032000Y-120650000D01*
X123825000Y-124714000D02*
X126619000Y-124714000D01*
X122919000Y-123808000D02*
X123825000Y-124714000D01*
X137541000Y-107117524D02*
X142214600Y-102443924D01*
X122919000Y-122046800D02*
X122919000Y-123808000D01*
X145821400Y-85826600D02*
X146812000Y-84836000D01*
%TO.N,Net-(D9B-Green-A)*%
X124612200Y-118846800D02*
X125095000Y-118364000D01*
X123969000Y-118846800D02*
X124612200Y-118846800D01*
%TO.N,Net-(D9B-Green-K)*%
X138303000Y-104775000D02*
X133345600Y-104775000D01*
X141097000Y-101981000D02*
X138303000Y-104775000D01*
X144703800Y-80340200D02*
X144703800Y-96088200D01*
X147717000Y-78486000D02*
X146558000Y-78486000D01*
X125476000Y-122047000D02*
X128016000Y-119507000D01*
X125475800Y-122046800D02*
X125476000Y-122047000D01*
X146558000Y-78486000D02*
X144703800Y-80340200D01*
X133345600Y-104775000D02*
X129159000Y-108961600D01*
X128016000Y-119507000D02*
X128016000Y-117729000D01*
X144703800Y-96088200D02*
X141097000Y-99695000D01*
X141097000Y-99695000D02*
X141097000Y-101981000D01*
X123969000Y-122046800D02*
X125475800Y-122046800D01*
%TD*%
M02*
