%TF.GenerationSoftware,KiCad,Pcbnew,7.0.9-7.0.9~ubuntu20.04.1*%
%TF.CreationDate,2023-12-22T10:27:09-08:00*%
%TF.ProjectId,NX-J401-Adapter,4e582d4a-3430-4312-9d41-646170746572,1*%
%TF.SameCoordinates,Original*%
%TF.FileFunction,Copper,L4,Bot*%
%TF.FilePolarity,Positive*%
%FSLAX46Y46*%
G04 Gerber Fmt 4.6, Leading zero omitted, Abs format (unit mm)*
G04 Created by KiCad (PCBNEW 7.0.9-7.0.9~ubuntu20.04.1) date 2023-12-22 10:27:09*
%MOMM*%
%LPD*%
G01*
G04 APERTURE LIST*
G04 Aperture macros list*
%AMRoundRect*
0 Rectangle with rounded corners*
0 $1 Rounding radius*
0 $2 $3 $4 $5 $6 $7 $8 $9 X,Y pos of 4 corners*
0 Add a 4 corners polygon primitive as box body*
4,1,4,$2,$3,$4,$5,$6,$7,$8,$9,$2,$3,0*
0 Add four circle primitives for the rounded corners*
1,1,$1+$1,$2,$3*
1,1,$1+$1,$4,$5*
1,1,$1+$1,$6,$7*
1,1,$1+$1,$8,$9*
0 Add four rect primitives between the rounded corners*
20,1,$1+$1,$2,$3,$4,$5,0*
20,1,$1+$1,$4,$5,$6,$7,0*
20,1,$1+$1,$6,$7,$8,$9,0*
20,1,$1+$1,$8,$9,$2,$3,0*%
%AMFreePoly0*
4,1,19,0.500000,-0.750000,0.000000,-0.750000,0.000000,-0.744911,-0.071157,-0.744911,-0.207708,-0.704816,-0.327430,-0.627875,-0.420627,-0.520320,-0.479746,-0.390866,-0.500000,-0.250000,-0.500000,0.250000,-0.479746,0.390866,-0.420627,0.520320,-0.327430,0.627875,-0.207708,0.704816,-0.071157,0.744911,0.000000,0.744911,0.000000,0.750000,0.500000,0.750000,0.500000,-0.750000,0.500000,-0.750000,
$1*%
%AMFreePoly1*
4,1,19,0.000000,0.744911,0.071157,0.744911,0.207708,0.704816,0.327430,0.627875,0.420627,0.520320,0.479746,0.390866,0.500000,0.250000,0.500000,-0.250000,0.479746,-0.390866,0.420627,-0.520320,0.327430,-0.627875,0.207708,-0.704816,0.071157,-0.744911,0.000000,-0.744911,0.000000,-0.750000,-0.500000,-0.750000,-0.500000,0.750000,0.000000,0.750000,0.000000,0.744911,0.000000,0.744911,
$1*%
G04 Aperture macros list end*
%ADD10C,0.300000*%
%TA.AperFunction,NonConductor*%
%ADD11C,0.300000*%
%TD*%
%TA.AperFunction,ComponentPad*%
%ADD12C,5.400000*%
%TD*%
%TA.AperFunction,ComponentPad*%
%ADD13R,1.778000X1.778000*%
%TD*%
%TA.AperFunction,ComponentPad*%
%ADD14C,1.778000*%
%TD*%
%TA.AperFunction,ComponentPad*%
%ADD15R,2.000000X2.000000*%
%TD*%
%TA.AperFunction,ComponentPad*%
%ADD16C,2.000000*%
%TD*%
%TA.AperFunction,ComponentPad*%
%ADD17C,2.200000*%
%TD*%
%TA.AperFunction,ComponentPad*%
%ADD18R,1.600000X1.600000*%
%TD*%
%TA.AperFunction,ComponentPad*%
%ADD19C,1.600000*%
%TD*%
%TA.AperFunction,ComponentPad*%
%ADD20R,1.600200X1.905000*%
%TD*%
%TA.AperFunction,ComponentPad*%
%ADD21O,1.600200X1.905000*%
%TD*%
%TA.AperFunction,ComponentPad*%
%ADD22O,1.500000X3.300000*%
%TD*%
%TA.AperFunction,ComponentPad*%
%ADD23O,1.500000X2.300000*%
%TD*%
%TA.AperFunction,ComponentPad*%
%ADD24C,1.701800*%
%TD*%
%TA.AperFunction,ComponentPad*%
%ADD25R,1.905000X1.600200*%
%TD*%
%TA.AperFunction,ComponentPad*%
%ADD26O,1.905000X1.600200*%
%TD*%
%TA.AperFunction,SMDPad,CuDef*%
%ADD27FreePoly0,0.000000*%
%TD*%
%TA.AperFunction,SMDPad,CuDef*%
%ADD28FreePoly1,0.000000*%
%TD*%
%TA.AperFunction,SMDPad,CuDef*%
%ADD29RoundRect,0.200000X0.275000X-0.200000X0.275000X0.200000X-0.275000X0.200000X-0.275000X-0.200000X0*%
%TD*%
%TA.AperFunction,SMDPad,CuDef*%
%ADD30RoundRect,0.225000X-0.250000X0.225000X-0.250000X-0.225000X0.250000X-0.225000X0.250000X0.225000X0*%
%TD*%
%TA.AperFunction,SMDPad,CuDef*%
%ADD31RoundRect,0.200000X0.200000X0.275000X-0.200000X0.275000X-0.200000X-0.275000X0.200000X-0.275000X0*%
%TD*%
%TA.AperFunction,SMDPad,CuDef*%
%ADD32RoundRect,0.225000X-0.225000X-0.250000X0.225000X-0.250000X0.225000X0.250000X-0.225000X0.250000X0*%
%TD*%
%TA.AperFunction,SMDPad,CuDef*%
%ADD33RoundRect,0.200000X-0.200000X-0.275000X0.200000X-0.275000X0.200000X0.275000X-0.200000X0.275000X0*%
%TD*%
%TA.AperFunction,SMDPad,CuDef*%
%ADD34R,1.010000X2.287000*%
%TD*%
%TA.AperFunction,SMDPad,CuDef*%
%ADD35R,1.010000X0.762000*%
%TD*%
%TA.AperFunction,ViaPad*%
%ADD36C,0.812800*%
%TD*%
%TA.AperFunction,Conductor*%
%ADD37C,0.381000*%
%TD*%
%TA.AperFunction,Conductor*%
%ADD38C,0.508000*%
%TD*%
G04 APERTURE END LIST*
D10*
D11*
G36*
X310309806Y-82437930D02*
G01*
X310641000Y-82437930D01*
X310641000Y-82733219D01*
X310309806Y-82733219D01*
X310309806Y-82889657D01*
X310065075Y-82889657D01*
X310065075Y-82733219D01*
X309144768Y-82733219D01*
X309144768Y-82437930D01*
X309425403Y-82437930D01*
X310065075Y-82437930D01*
X310065075Y-82047385D01*
X309425403Y-82437930D01*
X309144768Y-82437930D01*
X309144768Y-82385173D01*
X310060678Y-81838558D01*
X310309806Y-81838558D01*
X310309806Y-82437930D01*
G37*
D10*
D11*
G36*
X359809182Y-100109462D02*
G01*
X359829867Y-100110047D01*
X359850193Y-100111023D01*
X359870158Y-100112388D01*
X359889765Y-100114144D01*
X359909012Y-100116290D01*
X359927899Y-100118826D01*
X359946426Y-100121752D01*
X359964594Y-100125068D01*
X359982402Y-100128775D01*
X359999851Y-100132871D01*
X360016940Y-100137358D01*
X360033669Y-100142235D01*
X360058089Y-100150282D01*
X360081699Y-100159207D01*
X360104433Y-100168827D01*
X360126060Y-100178958D01*
X360146581Y-100189600D01*
X360165994Y-100200754D01*
X360184300Y-100212419D01*
X360201500Y-100224596D01*
X360217593Y-100237284D01*
X360232579Y-100250484D01*
X360246458Y-100264195D01*
X360259230Y-100278418D01*
X360267130Y-100288184D01*
X360278313Y-100302891D01*
X360288901Y-100317537D01*
X360298893Y-100332122D01*
X360311290Y-100351474D01*
X360322628Y-100370717D01*
X360332908Y-100389852D01*
X360342129Y-100408878D01*
X360350292Y-100427796D01*
X360355720Y-100441913D01*
X360362234Y-100460654D01*
X360367879Y-100479314D01*
X360372656Y-100497892D01*
X360376564Y-100516389D01*
X360379604Y-100534805D01*
X360381775Y-100553139D01*
X360383078Y-100571391D01*
X360383513Y-100589563D01*
X360383005Y-100611354D01*
X360381482Y-100632595D01*
X360378944Y-100653287D01*
X360375390Y-100673430D01*
X360370822Y-100693023D01*
X360365238Y-100712066D01*
X360358639Y-100730559D01*
X360351024Y-100748503D01*
X360342394Y-100765897D01*
X360332749Y-100782742D01*
X360325755Y-100793667D01*
X360314324Y-100809781D01*
X360301527Y-100825880D01*
X360287363Y-100841964D01*
X360271832Y-100858033D01*
X360254935Y-100874086D01*
X360236672Y-100890124D01*
X360217042Y-100906147D01*
X360203197Y-100916820D01*
X360188744Y-100927487D01*
X360173684Y-100938147D01*
X360158016Y-100948800D01*
X360141742Y-100959446D01*
X360133377Y-100964767D01*
X360151999Y-100975953D01*
X360170029Y-100987309D01*
X360187469Y-100998836D01*
X360204318Y-101010534D01*
X360220575Y-101022402D01*
X360236241Y-101034440D01*
X360251316Y-101046649D01*
X360265800Y-101059029D01*
X360279693Y-101071579D01*
X360292994Y-101084299D01*
X360305704Y-101097190D01*
X360317823Y-101110252D01*
X360329351Y-101123484D01*
X360350634Y-101150459D01*
X360369551Y-101178116D01*
X360386104Y-101206455D01*
X360400292Y-101235476D01*
X360412116Y-101265179D01*
X360421575Y-101295564D01*
X360428669Y-101326631D01*
X360433398Y-101358380D01*
X360435763Y-101390810D01*
X360436058Y-101407281D01*
X360435583Y-101429782D01*
X360434159Y-101452119D01*
X360431784Y-101474294D01*
X360428459Y-101496305D01*
X360424184Y-101518154D01*
X360418959Y-101539840D01*
X360412785Y-101561364D01*
X360405660Y-101582724D01*
X360397599Y-101603867D01*
X360388398Y-101624956D01*
X360380749Y-101640737D01*
X360372459Y-101656488D01*
X360363528Y-101672208D01*
X360353955Y-101687897D01*
X360343742Y-101703556D01*
X360332887Y-101719184D01*
X360321391Y-101734782D01*
X360309253Y-101750350D01*
X360296293Y-101765534D01*
X360282165Y-101780146D01*
X360266868Y-101794185D01*
X360250404Y-101807652D01*
X360232772Y-101820547D01*
X360213972Y-101832868D01*
X360194003Y-101844618D01*
X360172867Y-101855794D01*
X360150564Y-101866399D01*
X360127092Y-101876430D01*
X360110795Y-101882800D01*
X360094042Y-101888848D01*
X360076895Y-101894505D01*
X360059355Y-101899772D01*
X360041421Y-101904649D01*
X360023094Y-101909136D01*
X360004373Y-101913233D01*
X359985259Y-101916939D01*
X359965751Y-101920255D01*
X359945849Y-101923182D01*
X359925554Y-101925718D01*
X359904866Y-101927864D01*
X359883784Y-101929619D01*
X359862308Y-101930985D01*
X359840439Y-101931960D01*
X359818176Y-101932545D01*
X359795519Y-101932741D01*
X358975195Y-101932741D01*
X358975195Y-101147157D01*
X359350399Y-101147157D01*
X359350399Y-101620071D01*
X359798125Y-101620071D01*
X359831728Y-101619153D01*
X359863163Y-101616400D01*
X359892430Y-101611811D01*
X359919529Y-101605387D01*
X359944460Y-101597128D01*
X359967223Y-101587033D01*
X359987819Y-101575102D01*
X360006246Y-101561336D01*
X360022505Y-101545735D01*
X360036597Y-101528298D01*
X360048520Y-101509026D01*
X360058276Y-101487919D01*
X360065864Y-101464976D01*
X360071284Y-101440197D01*
X360074536Y-101413583D01*
X360075620Y-101385134D01*
X360074536Y-101356316D01*
X360071284Y-101329358D01*
X360065864Y-101304259D01*
X360058276Y-101281019D01*
X360048520Y-101259638D01*
X360036597Y-101240117D01*
X360022505Y-101222455D01*
X360006246Y-101206651D01*
X359987819Y-101192708D01*
X359967223Y-101180623D01*
X359944460Y-101170397D01*
X359919529Y-101162031D01*
X359892430Y-101155524D01*
X359863163Y-101150876D01*
X359831728Y-101148087D01*
X359798125Y-101147157D01*
X359350399Y-101147157D01*
X358975195Y-101147157D01*
X358975195Y-100421937D01*
X359350399Y-100421937D01*
X359350399Y-100834487D01*
X359758173Y-100834487D01*
X359790251Y-100833687D01*
X359820259Y-100831285D01*
X359848198Y-100827281D01*
X359874067Y-100821677D01*
X359897867Y-100814471D01*
X359919597Y-100805663D01*
X359939257Y-100795254D01*
X359956848Y-100783244D01*
X359972370Y-100769633D01*
X359985822Y-100754420D01*
X359997204Y-100737606D01*
X360006517Y-100719190D01*
X360013761Y-100699174D01*
X360018935Y-100677555D01*
X360022039Y-100654336D01*
X360023074Y-100629515D01*
X360022039Y-100604378D01*
X360018935Y-100580864D01*
X360013761Y-100558971D01*
X360006517Y-100538699D01*
X359997204Y-100520050D01*
X359985822Y-100503022D01*
X359972370Y-100487616D01*
X359956848Y-100473831D01*
X359939257Y-100461669D01*
X359919597Y-100451127D01*
X359897867Y-100442208D01*
X359874067Y-100434910D01*
X359848198Y-100429234D01*
X359820259Y-100425180D01*
X359790251Y-100422748D01*
X359758173Y-100421937D01*
X359350399Y-100421937D01*
X358975195Y-100421937D01*
X358975195Y-100109267D01*
X359788137Y-100109267D01*
X359809182Y-100109462D01*
G37*
G36*
X361026223Y-101567525D02*
G01*
X361026223Y-101932741D01*
X360651019Y-101932741D01*
X360651019Y-101567525D01*
X361026223Y-101567525D01*
G37*
G36*
X362486218Y-100727224D02*
G01*
X362481577Y-100707053D01*
X362476449Y-100687521D01*
X362470832Y-100668630D01*
X362464729Y-100650380D01*
X362458137Y-100632770D01*
X362451058Y-100615800D01*
X362443491Y-100599471D01*
X362435436Y-100583781D01*
X362417864Y-100554324D01*
X362398340Y-100527429D01*
X362376866Y-100503095D01*
X362353442Y-100481322D01*
X362328066Y-100462111D01*
X362300740Y-100445462D01*
X362271462Y-100431374D01*
X362240234Y-100419847D01*
X362207056Y-100410882D01*
X362189735Y-100407360D01*
X362171926Y-100404478D01*
X362153630Y-100402237D01*
X362134846Y-100400636D01*
X362115574Y-100399675D01*
X362095815Y-100399355D01*
X362068349Y-100400020D01*
X362041647Y-100402015D01*
X362015708Y-100405340D01*
X361990533Y-100409995D01*
X361966121Y-100415979D01*
X361942472Y-100423294D01*
X361919587Y-100431938D01*
X361897465Y-100441913D01*
X361876106Y-100453217D01*
X361855511Y-100465852D01*
X361835679Y-100479816D01*
X361816610Y-100495110D01*
X361798305Y-100511734D01*
X361780763Y-100529689D01*
X361763985Y-100548973D01*
X361747969Y-100569586D01*
X361732824Y-100591330D01*
X361718657Y-100614112D01*
X361705466Y-100637932D01*
X361693252Y-100662790D01*
X361682016Y-100688687D01*
X361671756Y-100715621D01*
X361662474Y-100743594D01*
X361654168Y-100772605D01*
X361646840Y-100802654D01*
X361640489Y-100833741D01*
X361635115Y-100865866D01*
X361630718Y-100899030D01*
X361627298Y-100933232D01*
X361625955Y-100950722D01*
X361624856Y-100968471D01*
X361624001Y-100986481D01*
X361623390Y-101004749D01*
X361623024Y-101023278D01*
X361622901Y-101042065D01*
X361623020Y-101060557D01*
X361623375Y-101078795D01*
X361623966Y-101096778D01*
X361624795Y-101114506D01*
X361625859Y-101131980D01*
X361628699Y-101166165D01*
X361632485Y-101199332D01*
X361637218Y-101231481D01*
X361642897Y-101262612D01*
X361649523Y-101292726D01*
X361657096Y-101321821D01*
X361665615Y-101349899D01*
X361675080Y-101376959D01*
X361685493Y-101403001D01*
X361696851Y-101428026D01*
X361709157Y-101452033D01*
X361722408Y-101475021D01*
X361736607Y-101496992D01*
X361744061Y-101507596D01*
X361759635Y-101527895D01*
X361775959Y-101546884D01*
X361793033Y-101564563D01*
X361810856Y-101580933D01*
X361829429Y-101595993D01*
X361848752Y-101609743D01*
X361868825Y-101622184D01*
X361889648Y-101633316D01*
X361911220Y-101643137D01*
X361933542Y-101651650D01*
X361956614Y-101658852D01*
X361980436Y-101664745D01*
X362005008Y-101669329D01*
X362030329Y-101672603D01*
X362056400Y-101674567D01*
X362083221Y-101675222D01*
X362104824Y-101674851D01*
X362125881Y-101673736D01*
X362146391Y-101671879D01*
X362166355Y-101669278D01*
X362185773Y-101665935D01*
X362204645Y-101661848D01*
X362222971Y-101657019D01*
X362240750Y-101651446D01*
X362257983Y-101645131D01*
X362274670Y-101638072D01*
X362290811Y-101630271D01*
X362306405Y-101621726D01*
X362321454Y-101612439D01*
X362335956Y-101602408D01*
X362349912Y-101591635D01*
X362363321Y-101580118D01*
X362376117Y-101567918D01*
X362388230Y-101555094D01*
X362399662Y-101541645D01*
X362410412Y-101527572D01*
X362420479Y-101512875D01*
X362429865Y-101497554D01*
X362438569Y-101481608D01*
X362446591Y-101465038D01*
X362453931Y-101447844D01*
X362460589Y-101430026D01*
X362466566Y-101411583D01*
X362471860Y-101392516D01*
X362476472Y-101372825D01*
X362480403Y-101352510D01*
X362483651Y-101331570D01*
X362486218Y-101310006D01*
X362851434Y-101310006D01*
X362850133Y-101329422D01*
X362848457Y-101348586D01*
X362846404Y-101367498D01*
X362843977Y-101386158D01*
X362841173Y-101404567D01*
X362837993Y-101422723D01*
X362834438Y-101440628D01*
X362830508Y-101458280D01*
X362826201Y-101475681D01*
X362821519Y-101492830D01*
X362816461Y-101509726D01*
X362811027Y-101526371D01*
X362805217Y-101542764D01*
X362792471Y-101574795D01*
X362778222Y-101605817D01*
X362762469Y-101635833D01*
X362745214Y-101664840D01*
X362726456Y-101692840D01*
X362706195Y-101719832D01*
X362684431Y-101745817D01*
X362661164Y-101770794D01*
X362636394Y-101794763D01*
X362623445Y-101806370D01*
X362610208Y-101817671D01*
X362596716Y-101828614D01*
X362568965Y-101849423D01*
X362540194Y-101868797D01*
X362525425Y-101877946D01*
X362510401Y-101886736D01*
X362495121Y-101895167D01*
X362479587Y-101903239D01*
X362463797Y-101910953D01*
X362447752Y-101918308D01*
X362431451Y-101925304D01*
X362414895Y-101931942D01*
X362398084Y-101938220D01*
X362381017Y-101944140D01*
X362363696Y-101949701D01*
X362346119Y-101954903D01*
X362328286Y-101959747D01*
X362310198Y-101964231D01*
X362291855Y-101968357D01*
X362273257Y-101972124D01*
X362254404Y-101975533D01*
X362235295Y-101978582D01*
X362215931Y-101981273D01*
X362196311Y-101983605D01*
X362176436Y-101985579D01*
X362156306Y-101987193D01*
X362135921Y-101988449D01*
X362115280Y-101989346D01*
X362094384Y-101989884D01*
X362073233Y-101990063D01*
X362049638Y-101989813D01*
X362026349Y-101989062D01*
X362003368Y-101987811D01*
X361980694Y-101986060D01*
X361958327Y-101983808D01*
X361936267Y-101981056D01*
X361914514Y-101977803D01*
X361893068Y-101974050D01*
X361871929Y-101969796D01*
X361851097Y-101965042D01*
X361830572Y-101959788D01*
X361810354Y-101954033D01*
X361790443Y-101947778D01*
X361770839Y-101941022D01*
X361751543Y-101933766D01*
X361732553Y-101926009D01*
X361713870Y-101917752D01*
X361695495Y-101908995D01*
X361677426Y-101899737D01*
X361659665Y-101889979D01*
X361642210Y-101879720D01*
X361625063Y-101868961D01*
X361608222Y-101857702D01*
X361591689Y-101845942D01*
X361575462Y-101833682D01*
X361559543Y-101820921D01*
X361543931Y-101807660D01*
X361528625Y-101793898D01*
X361513627Y-101779636D01*
X361498936Y-101764874D01*
X361484552Y-101749611D01*
X361470475Y-101733848D01*
X361456769Y-101717654D01*
X361443498Y-101701101D01*
X361430662Y-101684189D01*
X361418261Y-101666917D01*
X361406296Y-101649285D01*
X361394765Y-101631294D01*
X361383670Y-101612943D01*
X361373010Y-101594232D01*
X361362785Y-101575162D01*
X361352995Y-101555732D01*
X361343640Y-101535942D01*
X361334720Y-101515793D01*
X361326235Y-101495284D01*
X361318186Y-101474416D01*
X361310571Y-101453188D01*
X361303392Y-101431600D01*
X361296648Y-101409653D01*
X361290338Y-101387346D01*
X361284464Y-101364679D01*
X361279026Y-101341653D01*
X361274022Y-101318267D01*
X361269453Y-101294522D01*
X361265320Y-101270417D01*
X361261621Y-101245952D01*
X361258358Y-101221128D01*
X361255529Y-101195944D01*
X361253136Y-101170401D01*
X361251178Y-101144497D01*
X361249655Y-101118235D01*
X361248568Y-101091612D01*
X361247915Y-101064630D01*
X361247697Y-101037289D01*
X361247917Y-101009785D01*
X361248576Y-100982644D01*
X361249675Y-100955865D01*
X361251212Y-100929449D01*
X361253189Y-100903394D01*
X361255606Y-100877702D01*
X361258462Y-100852372D01*
X361261757Y-100827403D01*
X361265491Y-100802798D01*
X361269665Y-100778554D01*
X361274278Y-100754672D01*
X361279331Y-100731153D01*
X361284823Y-100707996D01*
X361290754Y-100685201D01*
X361297125Y-100662768D01*
X361303935Y-100640697D01*
X361311184Y-100618989D01*
X361318873Y-100597642D01*
X361327001Y-100576658D01*
X361335568Y-100556036D01*
X361344575Y-100535776D01*
X361354021Y-100515879D01*
X361363906Y-100496343D01*
X361374231Y-100477170D01*
X361384995Y-100458359D01*
X361396199Y-100439910D01*
X361407842Y-100421823D01*
X361419924Y-100404098D01*
X361432445Y-100386736D01*
X361445406Y-100369735D01*
X361458807Y-100353097D01*
X361472646Y-100336821D01*
X361486889Y-100320978D01*
X361501443Y-100305637D01*
X361516310Y-100290800D01*
X361531489Y-100276465D01*
X361546980Y-100262634D01*
X361562783Y-100249305D01*
X361578898Y-100236479D01*
X361595326Y-100224157D01*
X361612065Y-100212337D01*
X361629117Y-100201020D01*
X361646481Y-100190207D01*
X361664156Y-100179896D01*
X361682144Y-100170088D01*
X361700445Y-100160783D01*
X361719057Y-100151981D01*
X361737981Y-100143682D01*
X361757218Y-100135886D01*
X361776766Y-100128593D01*
X361796627Y-100121803D01*
X361816800Y-100115516D01*
X361837285Y-100109732D01*
X361858082Y-100104451D01*
X361879192Y-100099673D01*
X361900613Y-100095398D01*
X361922347Y-100091625D01*
X361944392Y-100088356D01*
X361966750Y-100085590D01*
X361989420Y-100083326D01*
X362012402Y-100081566D01*
X362035696Y-100080309D01*
X362059303Y-100079554D01*
X362083221Y-100079303D01*
X362103273Y-100079471D01*
X362123099Y-100079978D01*
X362142696Y-100080822D01*
X362162067Y-100082003D01*
X362181210Y-100083522D01*
X362200126Y-100085379D01*
X362218815Y-100087573D01*
X362237276Y-100090105D01*
X362255510Y-100092974D01*
X362273517Y-100096181D01*
X362291296Y-100099726D01*
X362308848Y-100103608D01*
X362326173Y-100107828D01*
X362343270Y-100112385D01*
X362360140Y-100117280D01*
X362376783Y-100122512D01*
X362409387Y-100133989D01*
X362441081Y-100146817D01*
X362471867Y-100160995D01*
X362501743Y-100176523D01*
X362530709Y-100193402D01*
X362558767Y-100211631D01*
X362585915Y-100231210D01*
X362612154Y-100252140D01*
X362637282Y-100274199D01*
X362660989Y-100297276D01*
X362683273Y-100321371D01*
X362704137Y-100346483D01*
X362723579Y-100372614D01*
X362741599Y-100399762D01*
X362758198Y-100427928D01*
X362773375Y-100457112D01*
X362787130Y-100487314D01*
X362799464Y-100518533D01*
X362810377Y-100550771D01*
X362819868Y-100584026D01*
X362824081Y-100601035D01*
X362827938Y-100618299D01*
X362831439Y-100635817D01*
X362834586Y-100653589D01*
X362837376Y-100671616D01*
X362839812Y-100689898D01*
X362841892Y-100708434D01*
X362843617Y-100727224D01*
X362486218Y-100727224D01*
G37*
G36*
X364312731Y-101932741D02*
G01*
X363962715Y-101932741D01*
X363962715Y-101772497D01*
X363944135Y-101798843D01*
X363924655Y-101823489D01*
X363904277Y-101846436D01*
X363883000Y-101867682D01*
X363860824Y-101887229D01*
X363837748Y-101905077D01*
X363813774Y-101921224D01*
X363788901Y-101935672D01*
X363763128Y-101948420D01*
X363736456Y-101959468D01*
X363708886Y-101968817D01*
X363680416Y-101976465D01*
X363651047Y-101982415D01*
X363620779Y-101986664D01*
X363589613Y-101989213D01*
X363557547Y-101990063D01*
X363531051Y-101989585D01*
X363505306Y-101988150D01*
X363480310Y-101985758D01*
X363456065Y-101982409D01*
X363432568Y-101978104D01*
X363409822Y-101972842D01*
X363387826Y-101966623D01*
X363366579Y-101959448D01*
X363346082Y-101951315D01*
X363326335Y-101942226D01*
X363307338Y-101932181D01*
X363289090Y-101921178D01*
X363271592Y-101909219D01*
X363254844Y-101896303D01*
X363238846Y-101882430D01*
X363223598Y-101867601D01*
X363209189Y-101851901D01*
X363195710Y-101835418D01*
X363183160Y-101818151D01*
X363171540Y-101800100D01*
X363160850Y-101781266D01*
X363151089Y-101761647D01*
X363142258Y-101741245D01*
X363134356Y-101720060D01*
X363127385Y-101698090D01*
X363121342Y-101675337D01*
X363116229Y-101651801D01*
X363112046Y-101627480D01*
X363108793Y-101602376D01*
X363106469Y-101576488D01*
X363105074Y-101549817D01*
X363104609Y-101522361D01*
X363104609Y-100582180D01*
X363455060Y-100582180D01*
X363455060Y-101449839D01*
X363455939Y-101479235D01*
X363458575Y-101506735D01*
X363462969Y-101532337D01*
X363469120Y-101556044D01*
X363477028Y-101577854D01*
X363486694Y-101597767D01*
X363498117Y-101615784D01*
X363511297Y-101631904D01*
X363526235Y-101646128D01*
X363542931Y-101658455D01*
X363561384Y-101668886D01*
X363581594Y-101677421D01*
X363603562Y-101684058D01*
X363627287Y-101688800D01*
X363652769Y-101691644D01*
X363680009Y-101692593D01*
X363703505Y-101691955D01*
X363726116Y-101690043D01*
X363747841Y-101686856D01*
X363768680Y-101682394D01*
X363788634Y-101676658D01*
X363807703Y-101669646D01*
X363825886Y-101661360D01*
X363843184Y-101651799D01*
X363859596Y-101640963D01*
X363875122Y-101628853D01*
X363884981Y-101620071D01*
X363898873Y-101606053D01*
X363911399Y-101591195D01*
X363922558Y-101575498D01*
X363932350Y-101558962D01*
X363940776Y-101541585D01*
X363947836Y-101523369D01*
X363953529Y-101504313D01*
X363957856Y-101484417D01*
X363960817Y-101463682D01*
X363962411Y-101442107D01*
X363962715Y-101427257D01*
X363962715Y-100582180D01*
X364312731Y-100582180D01*
X364312731Y-101932741D01*
G37*
D12*
%TO.P,H1,1*%
%TO.N,N/C*%
X229000000Y-84000000D03*
%TD*%
D13*
%TO.P,J10,1,Pin_1*%
%TO.N,/CAN_FD_DC2_L*%
X302895000Y-147574000D03*
D14*
%TO.P,J10,2,Pin_2*%
%TO.N,/CAN_FD_DC2_H*%
X300355000Y-147574000D03*
%TD*%
D15*
%TO.P,C8,1*%
%TO.N,/Power Supply/V_IN*%
X241554000Y-103713677D03*
D16*
%TO.P,C8,2*%
%TO.N,GND*%
X241554000Y-98713677D03*
%TD*%
D17*
%TO.P,J13,1,Pin_1*%
%TO.N,/Power Supply/V_{BAT}*%
X225774000Y-148004000D03*
X225774000Y-156204000D03*
%TO.P,J13,2,Pin_2*%
%TO.N,GND*%
X230854000Y-148004000D03*
X230854000Y-156204000D03*
%TD*%
D18*
%TO.P,C3,1*%
%TO.N,/Power Supply/+18V*%
X279908000Y-88012651D03*
D19*
%TO.P,C3,2*%
%TO.N,GND*%
X279908000Y-84512651D03*
%TD*%
D20*
%TO.P,J1,1,Pin_1*%
%TO.N,/Fan Control/TMP_DN*%
X302514000Y-84582000D03*
D21*
%TO.P,J1,2,Pin_2*%
%TO.N,/Fan Control/TMP_DP*%
X299974000Y-84582000D03*
%TD*%
D13*
%TO.P,J9,1,Pin_1*%
%TO.N,/CAN_FD2_L*%
X292735000Y-147574000D03*
D14*
%TO.P,J9,2,Pin_2*%
%TO.N,/CAN_FD2_H*%
X290195000Y-147574000D03*
%TD*%
D18*
%TO.P,C4,1*%
%TO.N,/Power Supply/+18V*%
X288798000Y-88082000D03*
D19*
%TO.P,C4,2*%
%TO.N,GND*%
X288798000Y-84582000D03*
%TD*%
D13*
%TO.P,J11,1,Pin_1*%
%TO.N,/CAN_FD1_L*%
X313055000Y-147574000D03*
D14*
%TO.P,J11,2,Pin_2*%
%TO.N,/CAN_FD1_H*%
X310515000Y-147574000D03*
%TD*%
D12*
%TO.P,H3,1*%
%TO.N,N/C*%
X229000000Y-142000000D03*
%TD*%
D22*
%TO.P,J14,SH,SH*%
%TO.N,/MIPI-HDMI-1/GND_MIPI*%
X256250000Y-150075000D03*
X241750000Y-150075000D03*
D23*
X256250000Y-156035000D03*
X241750000Y-156035000D03*
%TD*%
D12*
%TO.P,H2,1*%
%TO.N,N/C*%
X315000000Y-84000000D03*
%TD*%
D24*
%TO.P,J2,1,Pin_1*%
%TO.N,/Power Supply/+18V*%
X238561113Y-88406784D03*
X243561113Y-88406784D03*
%TO.P,J2,2,Pin_2*%
%TO.N,GND*%
X238561113Y-83406784D03*
X243561113Y-83406784D03*
%TD*%
D22*
%TO.P,J15,SH,SH*%
%TO.N,/MIPI-HDMI-2/GND_MIPI*%
X280250000Y-150075000D03*
X265750000Y-150075000D03*
D23*
X280250000Y-156035000D03*
X265750000Y-156035000D03*
%TD*%
D12*
%TO.P,H4,1*%
%TO.N,N/C*%
X315000000Y-142000000D03*
%TD*%
D13*
%TO.P,J12,1,Pin_1*%
%TO.N,/CAN_FD_DC1_L*%
X323215000Y-147574000D03*
D14*
%TO.P,J12,2,Pin_2*%
%TO.N,/CAN_FD_DC1_H*%
X320675000Y-147574000D03*
%TD*%
D25*
%TO.P,J4,1,Pin_1*%
%TO.N,GND*%
X325120000Y-103378000D03*
D26*
%TO.P,J4,2,Pin_2*%
%TO.N,/FAN_PWR*%
X325120000Y-100838000D03*
%TO.P,J4,3,Pin_3*%
%TO.N,/FAN_PWM*%
X325120000Y-98298000D03*
%TO.P,J4,4,Pin_4*%
%TO.N,/FAN_TACH*%
X325120000Y-95758000D03*
%TD*%
D27*
%TO.P,JP3,1,A*%
%TO.N,/CAN_FD2_H*%
X295895000Y-149098000D03*
D28*
%TO.P,JP3,2,B*%
%TO.N,/CAN_FD_DC2_H*%
X297195000Y-149098000D03*
%TD*%
D29*
%TO.P,R14,1*%
%TO.N,GND*%
X265938000Y-86423000D03*
%TO.P,R14,2*%
%TO.N,Net-(U1-FA{slash}SD)*%
X265938000Y-84773000D03*
%TD*%
D30*
%TO.P,C12,1*%
%TO.N,+3V3*%
X309753000Y-89649000D03*
%TO.P,C12,2*%
%TO.N,GND*%
X309753000Y-91199000D03*
%TD*%
D29*
%TO.P,R17,1*%
%TO.N,/Fan Control/I2C_SCL*%
X319405000Y-92265000D03*
%TO.P,R17,2*%
%TO.N,+3V3*%
X319405000Y-90615000D03*
%TD*%
D31*
%TO.P,R19,1*%
%TO.N,Net-(U5-IN)*%
X315785000Y-103632000D03*
%TO.P,R19,2*%
%TO.N,/Power Supply/V_{BAT}*%
X314135000Y-103632000D03*
%TD*%
D32*
%TO.P,C10,1*%
%TO.N,Net-(U1-I_{SEN})*%
X258559000Y-83566000D03*
%TO.P,C10,2*%
%TO.N,GND*%
X260109000Y-83566000D03*
%TD*%
D30*
%TO.P,C13,1*%
%TO.N,+3V3*%
X317881000Y-90665000D03*
%TO.P,C13,2*%
%TO.N,GND*%
X317881000Y-92215000D03*
%TD*%
D27*
%TO.P,JP2,1,A*%
%TO.N,/CAN_FD1_H*%
X316596000Y-147504000D03*
D28*
%TO.P,JP2,2,B*%
%TO.N,/CAN_FD_DC1_H*%
X317896000Y-147504000D03*
%TD*%
D29*
%TO.P,R18,1*%
%TO.N,/Fan Control/I2C_SDA*%
X316357000Y-92265000D03*
%TO.P,R18,2*%
%TO.N,+3V3*%
X316357000Y-90615000D03*
%TD*%
D30*
%TO.P,C11,1*%
%TO.N,/Power Supply/V_IN*%
X264414000Y-84823000D03*
%TO.P,C11,2*%
%TO.N,GND*%
X264414000Y-86373000D03*
%TD*%
D33*
%TO.P,R15,1*%
%TO.N,Net-(U1-FB)*%
X258763000Y-86360000D03*
%TO.P,R15,2*%
%TO.N,/Power Supply/+18V*%
X260413000Y-86360000D03*
%TD*%
D27*
%TO.P,JP1,1,A*%
%TO.N,/CAN_FD2_L*%
X295895000Y-146558000D03*
D28*
%TO.P,JP1,2,B*%
%TO.N,/CAN_FD_DC2_L*%
X297195000Y-146558000D03*
%TD*%
D33*
%TO.P,R16,1*%
%TO.N,GND*%
X254699000Y-86360000D03*
%TO.P,R16,2*%
%TO.N,Net-(U1-FB)*%
X256349000Y-86360000D03*
%TD*%
D34*
%TO.P,R13,1,1*%
%TO.N,GND*%
X275463000Y-83693000D03*
D35*
%TO.P,R13,2,2*%
%TO.N,unconnected-(R13-Pad2)*%
X275463000Y-81787000D03*
%TO.P,R13,3,3*%
%TO.N,Net-(R12-Pad1)*%
X273693000Y-81787000D03*
D34*
%TO.P,R13,4,4*%
%TO.N,Net-(Q1-S-Pad1)*%
X273693000Y-83692500D03*
%TD*%
D31*
%TO.P,R12,1*%
%TO.N,Net-(R12-Pad1)*%
X260159000Y-82042000D03*
%TO.P,R12,2*%
%TO.N,Net-(U1-I_{SEN})*%
X258509000Y-82042000D03*
%TD*%
D33*
%TO.P,R20,1*%
%TO.N,GND*%
X318199000Y-105156000D03*
%TO.P,R20,2*%
%TO.N,Net-(U5-GND)*%
X319849000Y-105156000D03*
%TD*%
%TO.P,R21,1*%
%TO.N,Net-(D4-K-Pad3)*%
X314135000Y-105156000D03*
%TO.P,R21,2*%
%TO.N,Net-(U5-IN)*%
X315785000Y-105156000D03*
%TD*%
D27*
%TO.P,JP4,1,A*%
%TO.N,/CAN_FD1_L*%
X316596000Y-150044000D03*
D28*
%TO.P,JP4,2,B*%
%TO.N,/CAN_FD_DC1_L*%
X317896000Y-150044000D03*
%TD*%
D36*
%TO.N,GND*%
X234569000Y-96520000D03*
X257554772Y-88157362D03*
X253619000Y-84836000D03*
X232029000Y-133985000D03*
X301498000Y-99060000D03*
X323850000Y-86614000D03*
X276606000Y-84552103D03*
X306070000Y-96393000D03*
X276606000Y-82804000D03*
X310896000Y-99314000D03*
X231267000Y-137795000D03*
X309499000Y-92329000D03*
X319913000Y-95631000D03*
X233172000Y-135890000D03*
X235966000Y-153543000D03*
X261366000Y-83566000D03*
X276606000Y-83693000D03*
X308737000Y-105283000D03*
X264287000Y-88392000D03*
X259334000Y-88392000D03*
X306070000Y-99441000D03*
X317119000Y-105664000D03*
X317881000Y-93345000D03*
X231902000Y-131953000D03*
X322199000Y-90297000D03*
%TO.N,/Power Supply/V_{BAT}*%
X222758000Y-103505000D03*
X222758000Y-99695000D03*
X222758000Y-102235000D03*
X312547000Y-102616000D03*
X225806000Y-131953000D03*
X222758000Y-100965000D03*
X226314000Y-133858000D03*
X226822000Y-137795000D03*
X224790000Y-135890000D03*
X226187000Y-100965000D03*
X226187000Y-102235000D03*
X226187000Y-103505000D03*
%TO.N,/Power Supply/V_IN*%
X231267000Y-102235000D03*
X227965000Y-100965000D03*
X248666000Y-98806000D03*
X264414000Y-82677000D03*
X231267000Y-103505000D03*
X227965000Y-102235000D03*
X231267000Y-100965000D03*
X248666000Y-104140000D03*
X247777000Y-98806000D03*
X247777000Y-93472000D03*
X247777000Y-104140000D03*
X227965000Y-103505000D03*
X248666000Y-93472000D03*
%TO.N,/MIPI-HDMI-2/GND_MIPI*%
X272491200Y-151247400D03*
X276987000Y-151272800D03*
X275513800Y-151247400D03*
X269519400Y-151247400D03*
X272186400Y-138928400D03*
X273989800Y-151247400D03*
X274705604Y-139031031D03*
X265963400Y-138903000D03*
X268986000Y-138903000D03*
%TO.N,Net-(U2-DP)*%
X299974000Y-92583000D03*
X304927000Y-88646000D03*
%TO.N,/MIPI-HDMI-2/CAM_SCL*%
X270764000Y-147285000D03*
X277977600Y-135698544D03*
%TO.N,/MIPI-HDMI-2/CAM_SDA*%
X269748497Y-147285000D03*
X279019000Y-139030000D03*
%TO.N,/MIPI-HDMI-2/CAM_3V3*%
X268732994Y-147285000D03*
X280003000Y-135569000D03*
%TO.N,/MIPI-HDMI-1/GND_MIPI*%
X244983000Y-138903000D03*
X248539000Y-151222000D03*
X245491000Y-151222000D03*
X251460000Y-151222000D03*
X250063000Y-151222000D03*
X248031000Y-138903000D03*
X241935000Y-138903000D03*
X252984000Y-151222000D03*
X251079000Y-138903000D03*
%TO.N,/MIPI-HDMI-1/CAM_SCL*%
X254000000Y-135728000D03*
X246761000Y-147158000D03*
%TO.N,/MIPI-HDMI-1/CAM_SDA*%
X245745497Y-147158000D03*
X255016000Y-138903000D03*
%TO.N,/MIPI-HDMI-1/CAM_3V3*%
X255905000Y-135728000D03*
X244729994Y-147158000D03*
%TO.N,Net-(D4-K-Pad3)*%
X312039000Y-105537000D03*
%TO.N,Net-(U1-I_{SEN})*%
X257429000Y-83566000D03*
%TO.N,/Power Supply/+18V*%
X287274000Y-88011000D03*
X286004000Y-88011000D03*
X283210000Y-88011000D03*
X281813000Y-88011000D03*
X284607000Y-88011000D03*
%TO.N,Net-(U1-FA{slash}SD)*%
X266065000Y-83693000D03*
%TO.N,Net-(Q1-S-Pad1)*%
X271653000Y-83439000D03*
X272542000Y-83439000D03*
X272542000Y-82579897D03*
%TO.N,Net-(U1-FB)*%
X257619062Y-87143897D03*
%TO.N,+3V3*%
X299974000Y-99060000D03*
X318897000Y-87884000D03*
X309753000Y-88519000D03*
X317881000Y-89535000D03*
%TO.N,/FAN_PWM*%
X307721000Y-92583000D03*
%TO.N,/Fan Control/I2C_SDA*%
X322326000Y-93345000D03*
X313605556Y-90113616D03*
X323342000Y-88646000D03*
%TO.N,/Fan Control/I2C_SCL*%
X322326000Y-92075000D03*
X313817000Y-88738456D03*
%TO.N,Net-(U5-IN)*%
X317119000Y-103886000D03*
%TO.N,Net-(U5-GND)*%
X321183000Y-105156000D03*
%TD*%
D37*
%TO.N,GND*%
X254000000Y-86360000D02*
X253619000Y-85979000D01*
D38*
X275463000Y-83693000D02*
X275463000Y-82804000D01*
X275463000Y-82804000D02*
X276606000Y-82804000D01*
X275463000Y-84552103D02*
X275463000Y-83693000D01*
D37*
X253619000Y-85979000D02*
X253619000Y-84836000D01*
X317627000Y-105156000D02*
X317119000Y-105664000D01*
D38*
X276606000Y-84552103D02*
X275463000Y-84552103D01*
X260109000Y-83566000D02*
X261366000Y-83566000D01*
X275463000Y-83693000D02*
X276606000Y-83693000D01*
D37*
X254699000Y-86360000D02*
X254000000Y-86360000D01*
X309753000Y-92075000D02*
X309753000Y-91199000D01*
X318199000Y-105156000D02*
X317627000Y-105156000D01*
X309499000Y-92329000D02*
X309753000Y-92075000D01*
X317881000Y-92215000D02*
X317881000Y-93345000D01*
%TO.N,/Power Supply/V_{BAT}*%
X314135000Y-103632000D02*
X313563000Y-103632000D01*
X313563000Y-103632000D02*
X312547000Y-102616000D01*
%TO.N,/Power Supply/V_IN*%
X264414000Y-84823000D02*
X264414000Y-82677000D01*
%TO.N,Net-(U2-DP)*%
X304927000Y-88646000D02*
X302895000Y-88646000D01*
X302895000Y-88646000D02*
X300228000Y-91313000D01*
X300228000Y-91313000D02*
X299974000Y-91567000D01*
X299974000Y-91567000D02*
X299974000Y-92583000D01*
%TO.N,/MIPI-HDMI-2/CAM_SCL*%
X279908000Y-137628944D02*
X279908000Y-139665000D01*
X272288000Y-147285000D02*
X270764000Y-147285000D01*
X279908000Y-139665000D02*
X272288000Y-147285000D01*
X277977600Y-135698544D02*
X279908000Y-137628944D01*
%TO.N,/MIPI-HDMI-2/CAM_SDA*%
X269748497Y-146395503D02*
X269748497Y-147285000D01*
X279019000Y-139030000D02*
X271907000Y-146142000D01*
X271907000Y-146142000D02*
X270002000Y-146142000D01*
X270002000Y-146142000D02*
X269748497Y-146395503D01*
D38*
%TO.N,/MIPI-HDMI-2/CAM_3V3*%
X277593686Y-134737400D02*
X268732994Y-143598092D01*
X280003000Y-135569000D02*
X279171400Y-134737400D01*
X268732994Y-143598092D02*
X268732994Y-147285000D01*
X279171400Y-134737400D02*
X277593686Y-134737400D01*
D37*
%TO.N,/MIPI-HDMI-1/CAM_SCL*%
X255905000Y-137633000D02*
X255905000Y-139538000D01*
X248285000Y-147158000D02*
X246761000Y-147158000D01*
X255905000Y-139538000D02*
X248285000Y-147158000D01*
X254000000Y-135728000D02*
X255905000Y-137633000D01*
%TO.N,/MIPI-HDMI-1/CAM_SDA*%
X255016000Y-138903000D02*
X247904000Y-146015000D01*
X247904000Y-146015000D02*
X245999000Y-146015000D01*
X245745497Y-146268503D02*
X245745497Y-147158000D01*
X245999000Y-146015000D02*
X245745497Y-146268503D01*
D38*
%TO.N,/MIPI-HDMI-1/CAM_3V3*%
X255905000Y-135728000D02*
X254889000Y-134712000D01*
X244729994Y-143601006D02*
X244729994Y-147158000D01*
X254889000Y-134712000D02*
X253619000Y-134712000D01*
X253619000Y-134712000D02*
X244729994Y-143601006D01*
D37*
%TO.N,Net-(D4-K-Pad3)*%
X312420000Y-105156000D02*
X314135000Y-105156000D01*
X312039000Y-105537000D02*
X312420000Y-105156000D01*
%TO.N,Net-(U1-I_{SEN})*%
X257810000Y-83566000D02*
X257429000Y-83566000D01*
X257556000Y-82042000D02*
X257429000Y-82169000D01*
X257429000Y-82169000D02*
X257429000Y-83566000D01*
X258559000Y-83566000D02*
X257810000Y-83566000D01*
X258509000Y-82042000D02*
X257556000Y-82042000D01*
%TO.N,/Power Supply/+18V*%
X260413000Y-86360000D02*
X261112000Y-86360000D01*
X261493000Y-86741000D02*
X261493000Y-89662000D01*
X261112000Y-86360000D02*
X261493000Y-86741000D01*
%TO.N,/CAN_FD1_H*%
X316596000Y-147504000D02*
X315142000Y-146050000D01*
X312039000Y-146050000D02*
X310515000Y-147574000D01*
X315142000Y-146050000D02*
X312039000Y-146050000D01*
%TO.N,/CAN_FD1_L*%
X315525000Y-150044000D02*
X313055000Y-147574000D01*
X316596000Y-150044000D02*
X315525000Y-150044000D01*
%TO.N,/CAN_FD_DC1_H*%
X320605000Y-147504000D02*
X320675000Y-147574000D01*
X317896000Y-147504000D02*
X320605000Y-147504000D01*
%TO.N,/CAN_FD_DC1_L*%
X317896000Y-150044000D02*
X320745000Y-150044000D01*
X320745000Y-150044000D02*
X323215000Y-147574000D01*
%TO.N,/CAN_FD_DC2_H*%
X298831000Y-149098000D02*
X300355000Y-147574000D01*
X297195000Y-149098000D02*
X298831000Y-149098000D01*
%TO.N,/CAN_FD_DC2_L*%
X299593000Y-145923000D02*
X301244000Y-145923000D01*
X301244000Y-145923000D02*
X302895000Y-147574000D01*
X298958000Y-146558000D02*
X299593000Y-145923000D01*
X297195000Y-146558000D02*
X298958000Y-146558000D01*
%TO.N,/CAN_FD2_H*%
X295895000Y-149098000D02*
X291719000Y-149098000D01*
X291719000Y-149098000D02*
X290195000Y-147574000D01*
%TO.N,/CAN_FD2_L*%
X295895000Y-146558000D02*
X293751000Y-146558000D01*
X293751000Y-146558000D02*
X292735000Y-147574000D01*
%TO.N,Net-(U1-FA{slash}SD)*%
X265938000Y-84773000D02*
X265938000Y-83820000D01*
D38*
X265938000Y-83820000D02*
X266065000Y-83693000D01*
%TO.N,Net-(Q1-S-Pad1)*%
X273693000Y-84574000D02*
X273685000Y-84582000D01*
X272766103Y-82804000D02*
X273431000Y-82804000D01*
X272542000Y-83439000D02*
X272795500Y-83692500D01*
X273685000Y-84582000D02*
X272288000Y-84582000D01*
X273693000Y-83692500D02*
X273693000Y-84574000D01*
X271653000Y-83947000D02*
X271653000Y-83439000D01*
X272795500Y-83692500D02*
X273693000Y-83692500D01*
X273693000Y-83066000D02*
X273693000Y-83692500D01*
X273431000Y-82804000D02*
X273693000Y-83066000D01*
X272288000Y-84582000D02*
X271653000Y-83947000D01*
X272542000Y-82579897D02*
X272766103Y-82804000D01*
D37*
%TO.N,Net-(U1-FB)*%
X257619062Y-87143897D02*
X257683000Y-87079959D01*
X257683000Y-87079959D02*
X257683000Y-86360000D01*
X257683000Y-86360000D02*
X258064000Y-86360000D01*
X258064000Y-86360000D02*
X258763000Y-86360000D01*
X256349000Y-86360000D02*
X257683000Y-86360000D01*
%TO.N,+3V3*%
X316357000Y-90615000D02*
X316357000Y-89789000D01*
X309753000Y-89649000D02*
X309753000Y-88519000D01*
X316357000Y-89789000D02*
X316611000Y-89535000D01*
X319405000Y-89789000D02*
X319151000Y-89535000D01*
X317881000Y-89535000D02*
X317881000Y-90665000D01*
X316611000Y-89535000D02*
X317881000Y-89535000D01*
X319405000Y-90615000D02*
X319405000Y-89789000D01*
X319151000Y-89535000D02*
X317881000Y-89535000D01*
%TO.N,/FAN_PWM*%
X307721000Y-92583000D02*
X309499000Y-94361000D01*
X309499000Y-94361000D02*
X316357000Y-94361000D01*
X320294000Y-98298000D02*
X325120000Y-98298000D01*
X316357000Y-94361000D02*
X320294000Y-98298000D01*
%TO.N,Net-(R12-Pad1)*%
X273567000Y-81661000D02*
X262636000Y-81661000D01*
X262636000Y-81661000D02*
X262255000Y-82042000D01*
X273693000Y-81787000D02*
X273567000Y-81661000D01*
X262255000Y-82042000D02*
X260159000Y-82042000D01*
%TO.N,/Fan Control/I2C_SDA*%
X314706000Y-93345000D02*
X316357000Y-93345000D01*
X316357000Y-93345000D02*
X317373000Y-94361000D01*
X313605556Y-90113616D02*
X313605556Y-92244556D01*
X323342000Y-88646000D02*
X323122544Y-88865456D01*
X323122544Y-92675456D02*
X322453000Y-93345000D01*
X321310000Y-94361000D02*
X322326000Y-93345000D01*
X322453000Y-93345000D02*
X322326000Y-93345000D01*
X313605556Y-92244556D02*
X314706000Y-93345000D01*
X317373000Y-94361000D02*
X321310000Y-94361000D01*
X323122544Y-88865456D02*
X323122544Y-92675456D01*
X316357000Y-92265000D02*
X316357000Y-93345000D01*
%TO.N,/Fan Control/I2C_SCL*%
X319659000Y-93345000D02*
X319405000Y-93091000D01*
X322326000Y-92075000D02*
X321056000Y-92075000D01*
X321056000Y-93091000D02*
X320802000Y-93345000D01*
X313817000Y-88738456D02*
X319497456Y-88738456D01*
X321056000Y-90297000D02*
X321056000Y-92075000D01*
X321056000Y-92075000D02*
X321056000Y-93091000D01*
X320802000Y-93345000D02*
X319659000Y-93345000D01*
X319497456Y-88738456D02*
X321056000Y-90297000D01*
X319405000Y-93091000D02*
X319405000Y-92265000D01*
%TO.N,Net-(U5-IN)*%
X317119000Y-103886000D02*
X317119000Y-104521000D01*
X317119000Y-103886000D02*
X316865000Y-103632000D01*
X316865000Y-103632000D02*
X315785000Y-103632000D01*
X316484000Y-105156000D02*
X315785000Y-105156000D01*
X317119000Y-104521000D02*
X316484000Y-105156000D01*
%TO.N,Net-(U5-GND)*%
X319849000Y-105156000D02*
X321183000Y-105156000D01*
%TD*%
%TA.AperFunction,Conductor*%
%TO.N,GND*%
G36*
X257924952Y-81299685D02*
G01*
X257970707Y-81352489D01*
X257980651Y-81421647D01*
X257957683Y-81477633D01*
X257906759Y-81546633D01*
X257851112Y-81588884D01*
X257806989Y-81597000D01*
X257584468Y-81597000D01*
X257577528Y-81596610D01*
X257563552Y-81595035D01*
X257539172Y-81592288D01*
X257481456Y-81603209D01*
X257423349Y-81611967D01*
X257415326Y-81614442D01*
X257407367Y-81617227D01*
X257355425Y-81644678D01*
X257302495Y-81670168D01*
X257295522Y-81674922D01*
X257288762Y-81679912D01*
X257247215Y-81721458D01*
X257204153Y-81761415D01*
X257198362Y-81768677D01*
X257197701Y-81768149D01*
X257188370Y-81780303D01*
X257134472Y-81834201D01*
X257129286Y-81838836D01*
X257099107Y-81862904D01*
X257099107Y-81862905D01*
X257066024Y-81911428D01*
X257031124Y-81958716D01*
X257027213Y-81966115D01*
X257023540Y-81973743D01*
X257006227Y-82029870D01*
X256986818Y-82085338D01*
X256985254Y-82093602D01*
X256984000Y-82101926D01*
X256984000Y-82160686D01*
X256981803Y-82219387D01*
X256982844Y-82228622D01*
X256981998Y-82228717D01*
X256984000Y-82243908D01*
X256984000Y-83021474D01*
X256964315Y-83088513D01*
X256942228Y-83114289D01*
X256930676Y-83124522D01*
X256930674Y-83124525D01*
X256839505Y-83256607D01*
X256839504Y-83256608D01*
X256782592Y-83406671D01*
X256782591Y-83406676D01*
X256763246Y-83566000D01*
X256782591Y-83725323D01*
X256782592Y-83725328D01*
X256830756Y-83852325D01*
X256839504Y-83875391D01*
X256855703Y-83898859D01*
X256927991Y-84003588D01*
X256930676Y-84007477D01*
X257050809Y-84113905D01*
X257192920Y-84188491D01*
X257192922Y-84188491D01*
X257192923Y-84188492D01*
X257348752Y-84226900D01*
X257509248Y-84226900D01*
X257665076Y-84188492D01*
X257665076Y-84188491D01*
X257665080Y-84188491D01*
X257807191Y-84113905D01*
X257807199Y-84113897D01*
X257808435Y-84113045D01*
X257809494Y-84112695D01*
X257813832Y-84110419D01*
X257814210Y-84111139D01*
X257874786Y-84091154D01*
X257942440Y-84108610D01*
X257978152Y-84140772D01*
X257991456Y-84158544D01*
X258082768Y-84226900D01*
X258101837Y-84241175D01*
X258101839Y-84241176D01*
X258231022Y-84289358D01*
X258231021Y-84289358D01*
X258231027Y-84289360D01*
X258288136Y-84295500D01*
X258288146Y-84295500D01*
X258829854Y-84295500D01*
X258829864Y-84295500D01*
X258886973Y-84289360D01*
X259016163Y-84241175D01*
X259126544Y-84158544D01*
X259155141Y-84120343D01*
X259211073Y-84078472D01*
X259280765Y-84073488D01*
X259342088Y-84106973D01*
X259352783Y-84119167D01*
X259451798Y-84248205D01*
X259578383Y-84345339D01*
X259578389Y-84345342D01*
X259725798Y-84406400D01*
X259725803Y-84406402D01*
X259844279Y-84421999D01*
X259855000Y-84421998D01*
X259855000Y-83820000D01*
X260363000Y-83820000D01*
X260363000Y-84421999D01*
X260373720Y-84421999D01*
X260492190Y-84406403D01*
X260492201Y-84406400D01*
X260639610Y-84345342D01*
X260639616Y-84345339D01*
X260766203Y-84248204D01*
X260766204Y-84248203D01*
X260863339Y-84121616D01*
X260863342Y-84121610D01*
X260924400Y-83974201D01*
X260924401Y-83974197D01*
X260939999Y-83855726D01*
X260940000Y-83855712D01*
X260940000Y-83820000D01*
X260363000Y-83820000D01*
X259855000Y-83820000D01*
X259855000Y-83436000D01*
X259874685Y-83368961D01*
X259927489Y-83323206D01*
X259979000Y-83312000D01*
X260939999Y-83312000D01*
X260939999Y-83276279D01*
X260924403Y-83157809D01*
X260924400Y-83157798D01*
X260863342Y-83010389D01*
X260863339Y-83010383D01*
X260766204Y-82883796D01*
X260766203Y-82883795D01*
X260695063Y-82829207D01*
X260653861Y-82772779D01*
X260649706Y-82703033D01*
X260679109Y-82649942D01*
X260678492Y-82649487D01*
X260681976Y-82644766D01*
X260682874Y-82643145D01*
X260684002Y-82642015D01*
X260684010Y-82642010D01*
X260761241Y-82537365D01*
X260816888Y-82495116D01*
X260861011Y-82487000D01*
X262226532Y-82487000D01*
X262233471Y-82487389D01*
X262264869Y-82490927D01*
X262271826Y-82491711D01*
X262271826Y-82491710D01*
X262271827Y-82491711D01*
X262329543Y-82480790D01*
X262387642Y-82472034D01*
X262387643Y-82472033D01*
X262387647Y-82472033D01*
X262387650Y-82472031D01*
X262395685Y-82469552D01*
X262403630Y-82466772D01*
X262403634Y-82466772D01*
X262455573Y-82439321D01*
X262508509Y-82413829D01*
X262508513Y-82413825D01*
X262515474Y-82409079D01*
X262522231Y-82404091D01*
X262522235Y-82404090D01*
X262563783Y-82362541D01*
X262587159Y-82340852D01*
X262606841Y-82322590D01*
X262606841Y-82322589D01*
X262606844Y-82322587D01*
X262606845Y-82322584D01*
X262612637Y-82315322D01*
X262613304Y-82315854D01*
X262622626Y-82303697D01*
X262784007Y-82142317D01*
X262845330Y-82108834D01*
X262871687Y-82106000D01*
X263768817Y-82106000D01*
X263835856Y-82125685D01*
X263881611Y-82178489D01*
X263891555Y-82247647D01*
X263870867Y-82300440D01*
X263824505Y-82367607D01*
X263824504Y-82367608D01*
X263767592Y-82517671D01*
X263767591Y-82517676D01*
X263748246Y-82677000D01*
X263767591Y-82836323D01*
X263767592Y-82836328D01*
X263788363Y-82891095D01*
X263824504Y-82986391D01*
X263915676Y-83118477D01*
X263927226Y-83128709D01*
X263964353Y-83187896D01*
X263969000Y-83221525D01*
X263969000Y-84082935D01*
X263949315Y-84149974D01*
X263919311Y-84182201D01*
X263821458Y-84255454D01*
X263821457Y-84255455D01*
X263821456Y-84255456D01*
X263802448Y-84280848D01*
X263738824Y-84365837D01*
X263738823Y-84365839D01*
X263690641Y-84495021D01*
X263690640Y-84495025D01*
X263690640Y-84495027D01*
X263684500Y-84552136D01*
X263684500Y-85093864D01*
X263690640Y-85150973D01*
X263690641Y-85150978D01*
X263738823Y-85280160D01*
X263738824Y-85280162D01*
X263738825Y-85280163D01*
X263821456Y-85390544D01*
X263839508Y-85404058D01*
X263859656Y-85419141D01*
X263901527Y-85475074D01*
X263906511Y-85544766D01*
X263873026Y-85606089D01*
X263860832Y-85616782D01*
X263731796Y-85715795D01*
X263731795Y-85715796D01*
X263634660Y-85842383D01*
X263634657Y-85842389D01*
X263573599Y-85989798D01*
X263573598Y-85989802D01*
X263558000Y-86108273D01*
X263558000Y-86119000D01*
X265208638Y-86119000D01*
X265275677Y-86138685D01*
X265296319Y-86155319D01*
X265310000Y-86169000D01*
X266791902Y-86169000D01*
X266791902Y-86168999D01*
X266779044Y-86071327D01*
X266720503Y-85929995D01*
X266627373Y-85808626D01*
X266506004Y-85715496D01*
X266364674Y-85656956D01*
X266364670Y-85656955D01*
X266350428Y-85655080D01*
X266286532Y-85626813D01*
X266248062Y-85568488D01*
X266247231Y-85498623D01*
X266284304Y-85439400D01*
X266325655Y-85415101D01*
X266427773Y-85379369D01*
X266538010Y-85298010D01*
X266619369Y-85187773D01*
X266652035Y-85094419D01*
X266664619Y-85058458D01*
X266664619Y-85058455D01*
X266664621Y-85058451D01*
X266667500Y-85027749D01*
X266667499Y-84518252D01*
X266664621Y-84487549D01*
X266619369Y-84358227D01*
X266563167Y-84282076D01*
X266539197Y-84216451D01*
X266554512Y-84148280D01*
X266560888Y-84138005D01*
X266563321Y-84134478D01*
X266563324Y-84134477D01*
X266654496Y-84002391D01*
X266710118Y-83855726D01*
X266711407Y-83852328D01*
X266711408Y-83852323D01*
X266713815Y-83832498D01*
X266730754Y-83693000D01*
X266711408Y-83533675D01*
X266711407Y-83533673D01*
X266711407Y-83533671D01*
X266663285Y-83406784D01*
X266654496Y-83383609D01*
X266563324Y-83251523D01*
X266443191Y-83145095D01*
X266301080Y-83070509D01*
X266301079Y-83070508D01*
X266301076Y-83070507D01*
X266145248Y-83032100D01*
X265984752Y-83032100D01*
X265828923Y-83070507D01*
X265686809Y-83145095D01*
X265566675Y-83251523D01*
X265475505Y-83383607D01*
X265475504Y-83383608D01*
X265418592Y-83533671D01*
X265418591Y-83533676D01*
X265399246Y-83692999D01*
X265418591Y-83852322D01*
X265418593Y-83852330D01*
X265429507Y-83881107D01*
X265434731Y-83898718D01*
X265456660Y-83999525D01*
X265456661Y-83999527D01*
X265456662Y-83999529D01*
X265467426Y-84019241D01*
X265482278Y-84087514D01*
X265457861Y-84152978D01*
X265432228Y-84178438D01*
X265337989Y-84247989D01*
X265269732Y-84340475D01*
X265214084Y-84382726D01*
X265144428Y-84388184D01*
X265082879Y-84355116D01*
X265070701Y-84341158D01*
X265006544Y-84255456D01*
X264968398Y-84226900D01*
X264908689Y-84182201D01*
X264866818Y-84126268D01*
X264859000Y-84082935D01*
X264859000Y-83221525D01*
X264878685Y-83154486D01*
X264900770Y-83128712D01*
X264912324Y-83118477D01*
X265003496Y-82986391D01*
X265060408Y-82836325D01*
X265079754Y-82677000D01*
X265060408Y-82517675D01*
X265060407Y-82517673D01*
X265060407Y-82517671D01*
X265034546Y-82449482D01*
X265003496Y-82367609D01*
X264961911Y-82307363D01*
X264957133Y-82300440D01*
X264935250Y-82234085D01*
X264952716Y-82166434D01*
X265003984Y-82118964D01*
X265059183Y-82106000D01*
X271835248Y-82106000D01*
X271902287Y-82125685D01*
X271948042Y-82178489D01*
X271957986Y-82247647D01*
X271951190Y-82273971D01*
X271895592Y-82420568D01*
X271895591Y-82420573D01*
X271876246Y-82579897D01*
X271883812Y-82642213D01*
X271872351Y-82711137D01*
X271825447Y-82762922D01*
X271757991Y-82781129D01*
X271740714Y-82778838D01*
X271740694Y-82779004D01*
X271733248Y-82778100D01*
X271572752Y-82778100D01*
X271416923Y-82816507D01*
X271274809Y-82891095D01*
X271154675Y-82997523D01*
X271063505Y-83129607D01*
X271063504Y-83129608D01*
X271006592Y-83279671D01*
X271006591Y-83279676D01*
X270987246Y-83439000D01*
X271006591Y-83598323D01*
X271006592Y-83598328D01*
X271054756Y-83725325D01*
X271063504Y-83748391D01*
X271090154Y-83787000D01*
X271119098Y-83828933D01*
X271140981Y-83895288D01*
X271140732Y-83908217D01*
X271140579Y-83910348D01*
X271144342Y-83962949D01*
X271144500Y-83967374D01*
X271144500Y-83983369D01*
X271146774Y-83999191D01*
X271147247Y-84003588D01*
X271151011Y-84056200D01*
X271151013Y-84056210D01*
X271152799Y-84060998D01*
X271159353Y-84086674D01*
X271159997Y-84091154D01*
X271160081Y-84091734D01*
X271173725Y-84121610D01*
X271181986Y-84139701D01*
X271183678Y-84143787D01*
X271185986Y-84149974D01*
X271202111Y-84193204D01*
X271205175Y-84197297D01*
X271218702Y-84220096D01*
X271220822Y-84224740D01*
X271220827Y-84224747D01*
X271255352Y-84264590D01*
X271258129Y-84268037D01*
X271267715Y-84280843D01*
X271267718Y-84280845D01*
X271267720Y-84280848D01*
X271279039Y-84292167D01*
X271282044Y-84295395D01*
X271316579Y-84335250D01*
X271320874Y-84338010D01*
X271341518Y-84354646D01*
X271880351Y-84893478D01*
X271896984Y-84914117D01*
X271899749Y-84918420D01*
X271939610Y-84952960D01*
X271942837Y-84955964D01*
X271954153Y-84967280D01*
X271962602Y-84973605D01*
X271966954Y-84976863D01*
X271970401Y-84979641D01*
X271982041Y-84989727D01*
X272010257Y-85014176D01*
X272014906Y-85016299D01*
X272037698Y-85029821D01*
X272041796Y-85032889D01*
X272041799Y-85032891D01*
X272091214Y-85051321D01*
X272095296Y-85053011D01*
X272112685Y-85060953D01*
X272143261Y-85074917D01*
X272143266Y-85074919D01*
X272148320Y-85075645D01*
X272174010Y-85082202D01*
X272178800Y-85083989D01*
X272231416Y-85087751D01*
X272235777Y-85088220D01*
X272251632Y-85090500D01*
X272267625Y-85090500D01*
X272272047Y-85090657D01*
X272324649Y-85094420D01*
X272328084Y-85093672D01*
X272329642Y-85093334D01*
X272355999Y-85090500D01*
X273162933Y-85090500D01*
X273617001Y-85090500D01*
X273643358Y-85093334D01*
X273645754Y-85093855D01*
X273648351Y-85094420D01*
X273700953Y-85090657D01*
X273705376Y-85090500D01*
X273731358Y-85090500D01*
X273731370Y-85090499D01*
X274223064Y-85090499D01*
X274223066Y-85090499D01*
X274297301Y-85075734D01*
X274381484Y-85019484D01*
X274401367Y-84989726D01*
X274454979Y-84944921D01*
X274524304Y-84936212D01*
X274587331Y-84966366D01*
X274615871Y-85004156D01*
X274643637Y-85060953D01*
X274733546Y-85150862D01*
X274847783Y-85206709D01*
X274921847Y-85217500D01*
X275003888Y-85217500D01*
X275070927Y-85237185D01*
X275116682Y-85289989D01*
X275126626Y-85359147D01*
X275100876Y-85418761D01*
X274385885Y-86316304D01*
X273667464Y-87218151D01*
X273612220Y-87287500D01*
X273529905Y-87390832D01*
X273226397Y-87771832D01*
X273034558Y-88012651D01*
X272979314Y-88082000D01*
X272922888Y-88152832D01*
X272772770Y-88341276D01*
X272715602Y-88381446D01*
X272676547Y-88388012D01*
X265062201Y-88435015D01*
X265012838Y-88435320D01*
X264929967Y-88444834D01*
X264929966Y-88444834D01*
X264929959Y-88444835D01*
X264899011Y-88451834D01*
X264878070Y-88456571D01*
X264878067Y-88456572D01*
X264815124Y-88476592D01*
X264815118Y-88476595D01*
X264707257Y-88544050D01*
X264707241Y-88544063D01*
X264664425Y-88581937D01*
X264664423Y-88581937D01*
X264654918Y-88590346D01*
X264654914Y-88590350D01*
X264648706Y-88597665D01*
X264645276Y-88601387D01*
X264548726Y-88697935D01*
X264527019Y-88715246D01*
X264474095Y-88748501D01*
X264449078Y-88760549D01*
X264393052Y-88780154D01*
X264390050Y-88781204D01*
X264363000Y-88787375D01*
X264300885Y-88794374D01*
X264273117Y-88794374D01*
X264210999Y-88787375D01*
X264183929Y-88781197D01*
X264124922Y-88760550D01*
X264099903Y-88748501D01*
X264046977Y-88715245D01*
X264025269Y-88697933D01*
X263907130Y-88579794D01*
X263903188Y-88576608D01*
X263903866Y-88577288D01*
X263903852Y-88577274D01*
X263851490Y-88533283D01*
X263736648Y-88478545D01*
X263736643Y-88478543D01*
X263725225Y-88475266D01*
X263669481Y-88459271D01*
X263669476Y-88459270D01*
X263669475Y-88459270D01*
X263560497Y-88444285D01*
X263560491Y-88444285D01*
X263499653Y-88444660D01*
X262062765Y-88453529D01*
X261995606Y-88434258D01*
X261949526Y-88381738D01*
X261938000Y-88329531D01*
X261938000Y-86769459D01*
X261938389Y-86762523D01*
X261942710Y-86724173D01*
X261941441Y-86717467D01*
X261931793Y-86666471D01*
X261925844Y-86627000D01*
X263558001Y-86627000D01*
X263558001Y-86637720D01*
X263573596Y-86756190D01*
X263573599Y-86756201D01*
X263634657Y-86903610D01*
X263634660Y-86903616D01*
X263731795Y-87030203D01*
X263731796Y-87030204D01*
X263858383Y-87127339D01*
X263858389Y-87127342D01*
X264005798Y-87188400D01*
X264005803Y-87188402D01*
X264124272Y-87203998D01*
X264124286Y-87203999D01*
X264160000Y-87203999D01*
X264160000Y-86627000D01*
X264668000Y-86627000D01*
X264668000Y-87203999D01*
X264703720Y-87203999D01*
X264822190Y-87188403D01*
X264822201Y-87188400D01*
X264969610Y-87127342D01*
X264969616Y-87127339D01*
X265092256Y-87033233D01*
X265157425Y-87008038D01*
X265225870Y-87022076D01*
X265243230Y-87033232D01*
X265369995Y-87130503D01*
X265511325Y-87189043D01*
X265511329Y-87189044D01*
X265624922Y-87203999D01*
X265683999Y-87203998D01*
X265684000Y-87203998D01*
X265684000Y-86677000D01*
X266192000Y-86677000D01*
X266192000Y-87203999D01*
X266251078Y-87203999D01*
X266364663Y-87189046D01*
X266364674Y-87189043D01*
X266506004Y-87130503D01*
X266627373Y-87037373D01*
X266720503Y-86916004D01*
X266779043Y-86774674D01*
X266779044Y-86774669D01*
X266791904Y-86677000D01*
X266192000Y-86677000D01*
X265684000Y-86677000D01*
X265143362Y-86677000D01*
X265076323Y-86657315D01*
X265055681Y-86640681D01*
X265042000Y-86627000D01*
X264668000Y-86627000D01*
X264160000Y-86627000D01*
X263558001Y-86627000D01*
X261925844Y-86627000D01*
X261923884Y-86614000D01*
X261923033Y-86608353D01*
X261923031Y-86608350D01*
X261920560Y-86600336D01*
X261917772Y-86592369D01*
X261917772Y-86592366D01*
X261890321Y-86540426D01*
X261864829Y-86487491D01*
X261860095Y-86480547D01*
X261855091Y-86473767D01*
X261855090Y-86473765D01*
X261843119Y-86461794D01*
X261813541Y-86432215D01*
X261793564Y-86410686D01*
X261773587Y-86389156D01*
X261773582Y-86389153D01*
X261766319Y-86383360D01*
X261766847Y-86382696D01*
X261754692Y-86373367D01*
X261446794Y-86065469D01*
X261442157Y-86060281D01*
X261418095Y-86030108D01*
X261385010Y-86007550D01*
X261369570Y-85997023D01*
X261322283Y-85962124D01*
X261314885Y-85958213D01*
X261307261Y-85954542D01*
X261307259Y-85954541D01*
X261251130Y-85937227D01*
X261239999Y-85933332D01*
X261195670Y-85917820D01*
X261187380Y-85916251D01*
X261179075Y-85915000D01*
X261179073Y-85915000D01*
X261120313Y-85915000D01*
X261117669Y-85914901D01*
X261110146Y-85914619D01*
X261043892Y-85892435D01*
X261015024Y-85864340D01*
X260938010Y-85759989D01*
X260848394Y-85693850D01*
X260827773Y-85678631D01*
X260827771Y-85678630D01*
X260698458Y-85633380D01*
X260698446Y-85633378D01*
X260667753Y-85630500D01*
X260158257Y-85630500D01*
X260142900Y-85631940D01*
X260127549Y-85633379D01*
X260127546Y-85633379D01*
X260127544Y-85633380D01*
X259998228Y-85678630D01*
X259887989Y-85759989D01*
X259806630Y-85870228D01*
X259761380Y-85999541D01*
X259761378Y-85999553D01*
X259758500Y-86030246D01*
X259758500Y-86689742D01*
X259758501Y-86689748D01*
X259761379Y-86720451D01*
X259761379Y-86720453D01*
X259761380Y-86720455D01*
X259806630Y-86849771D01*
X259887989Y-86960010D01*
X259921270Y-86984572D01*
X259998227Y-87041369D01*
X260019278Y-87048735D01*
X260127541Y-87086619D01*
X260127545Y-87086619D01*
X260127549Y-87086621D01*
X260158251Y-87089500D01*
X260667748Y-87089499D01*
X260698451Y-87086621D01*
X260827773Y-87041369D01*
X260850367Y-87024693D01*
X260915994Y-87000723D01*
X260984165Y-87016038D01*
X261033233Y-87065778D01*
X261048000Y-87124464D01*
X261048000Y-88336556D01*
X261028315Y-88403595D01*
X260975511Y-88449350D01*
X260924766Y-88460554D01*
X260046929Y-88465974D01*
X260025872Y-88466104D01*
X260014400Y-88466772D01*
X260005794Y-88467274D01*
X260005792Y-88467274D01*
X259970219Y-88471211D01*
X259947683Y-88474378D01*
X259947682Y-88474378D01*
X259827501Y-88516141D01*
X259766182Y-88549624D01*
X259766174Y-88549629D01*
X259678121Y-88615544D01*
X259678109Y-88615554D01*
X259595726Y-88697936D01*
X259574019Y-88715246D01*
X259521095Y-88748501D01*
X259496076Y-88760550D01*
X259437069Y-88781197D01*
X259409999Y-88787375D01*
X259347885Y-88794374D01*
X259320117Y-88794374D01*
X259257999Y-88787375D01*
X259230929Y-88781197D01*
X259171922Y-88760550D01*
X259146903Y-88748501D01*
X259093979Y-88715246D01*
X259072271Y-88697935D01*
X258991012Y-88616676D01*
X258975153Y-88602475D01*
X258975152Y-88602474D01*
X258975144Y-88602467D01*
X258945544Y-88578765D01*
X258925414Y-88563693D01*
X258899147Y-88551173D01*
X258810565Y-88508951D01*
X258810566Y-88508951D01*
X258799148Y-88505674D01*
X258743404Y-88489679D01*
X258743399Y-88489678D01*
X258743398Y-88489678D01*
X258634420Y-88474693D01*
X258634414Y-88474693D01*
X258034475Y-88478396D01*
X257934485Y-88479014D01*
X257870965Y-88484668D01*
X257870964Y-88484668D01*
X257830784Y-88491622D01*
X257830782Y-88491622D01*
X257830779Y-88491623D01*
X257769039Y-88507651D01*
X257744776Y-88516141D01*
X257657842Y-88546559D01*
X257630773Y-88552737D01*
X257568657Y-88559736D01*
X257540890Y-88559736D01*
X257478771Y-88552737D01*
X257451700Y-88546559D01*
X257353773Y-88512293D01*
X257353772Y-88512293D01*
X257289700Y-88495871D01*
X257289696Y-88495870D01*
X257289695Y-88495870D01*
X257247986Y-88488915D01*
X257182029Y-88483658D01*
X257182028Y-88483658D01*
X252883085Y-88510194D01*
X252815926Y-88490923D01*
X252769846Y-88438403D01*
X252758437Y-88380810D01*
X252772169Y-88064989D01*
X252835255Y-86614000D01*
X253918001Y-86614000D01*
X253918001Y-86673078D01*
X253932953Y-86786663D01*
X253932956Y-86786674D01*
X253991496Y-86928004D01*
X254084626Y-87049373D01*
X254205995Y-87142503D01*
X254347328Y-87201044D01*
X254347326Y-87201044D01*
X254444999Y-87213902D01*
X254445000Y-87213902D01*
X254445000Y-86614000D01*
X253918001Y-86614000D01*
X252835255Y-86614000D01*
X252839188Y-86523537D01*
X252839316Y-86510562D01*
X252838811Y-86489253D01*
X252838065Y-86476254D01*
X252834044Y-86432216D01*
X252825805Y-86341992D01*
X252821704Y-86316303D01*
X252821704Y-86316304D01*
X252808446Y-86258536D01*
X252806129Y-86250852D01*
X252800941Y-86233643D01*
X252755589Y-86113198D01*
X252755589Y-86113197D01*
X252752311Y-86106000D01*
X253918000Y-86106000D01*
X254445000Y-86106000D01*
X254445000Y-85506097D01*
X254444999Y-85506097D01*
X254347327Y-85518955D01*
X254205995Y-85577496D01*
X254084626Y-85670626D01*
X253991496Y-85791995D01*
X253932956Y-85933325D01*
X253932955Y-85933329D01*
X253918000Y-86046915D01*
X253918000Y-86106000D01*
X252752311Y-86106000D01*
X252744810Y-86089528D01*
X252716679Y-86037369D01*
X252702821Y-86015357D01*
X252631830Y-85917819D01*
X252627071Y-85911280D01*
X252627071Y-85911281D01*
X252610394Y-85891337D01*
X252607415Y-85888225D01*
X252569408Y-85848531D01*
X252550202Y-85831000D01*
X252550199Y-85830997D01*
X252449529Y-85750815D01*
X252447575Y-85749463D01*
X252428149Y-85736019D01*
X252377262Y-85705647D01*
X252377264Y-85705648D01*
X252354087Y-85693851D01*
X252235715Y-85643306D01*
X252235714Y-85643306D01*
X252218928Y-85637438D01*
X252211164Y-85634724D01*
X252211163Y-85634724D01*
X252154031Y-85618971D01*
X252154030Y-85618971D01*
X252128560Y-85613760D01*
X252128559Y-85613760D01*
X252128554Y-85613759D01*
X252055838Y-85603918D01*
X251994970Y-85595681D01*
X251992354Y-85595416D01*
X251982043Y-85594373D01*
X251960750Y-85592938D01*
X251947752Y-85592500D01*
X237227891Y-85592500D01*
X237215345Y-85592908D01*
X237194773Y-85594245D01*
X237182274Y-85595467D01*
X237053131Y-85612342D01*
X237030636Y-85616782D01*
X237028483Y-85617207D01*
X237028484Y-85617207D01*
X236973164Y-85631915D01*
X236949358Y-85639932D01*
X236949353Y-85639933D01*
X236949350Y-85639935D01*
X236834327Y-85687189D01*
X236834328Y-85687189D01*
X236824888Y-85691804D01*
X236811784Y-85698211D01*
X236811779Y-85698214D01*
X236811778Y-85698214D01*
X236798787Y-85705647D01*
X236762101Y-85726636D01*
X236741144Y-85740506D01*
X236741141Y-85740508D01*
X236642107Y-85815741D01*
X236642105Y-85815743D01*
X236626029Y-85829690D01*
X236623134Y-85832202D01*
X236582433Y-85872432D01*
X236565744Y-85891222D01*
X236565745Y-85891222D01*
X236489366Y-85989375D01*
X236489367Y-85989374D01*
X236475256Y-86010165D01*
X236475255Y-86010166D01*
X236464120Y-86029114D01*
X236446257Y-86059512D01*
X236434968Y-86081939D01*
X236419237Y-86119000D01*
X236398014Y-86168999D01*
X236386383Y-86196399D01*
X236378093Y-86220100D01*
X236378091Y-86220108D01*
X236378090Y-86220109D01*
X236372382Y-86240612D01*
X236362739Y-86275250D01*
X236358640Y-86294810D01*
X236357585Y-86299847D01*
X236351580Y-86341992D01*
X236345464Y-86384913D01*
X236339213Y-86428778D01*
X236337847Y-86441244D01*
X236336269Y-86461794D01*
X236335714Y-86474350D01*
X236313297Y-88402290D01*
X236313250Y-88406316D01*
X236308097Y-88849500D01*
X236254399Y-93467509D01*
X236254347Y-93472000D01*
X236220476Y-96384874D01*
X236220748Y-96397615D01*
X236221884Y-96418504D01*
X236222994Y-96431197D01*
X236238846Y-96562406D01*
X236238845Y-96562405D01*
X236243563Y-96587450D01*
X236243563Y-96587449D01*
X236258058Y-96643724D01*
X236258058Y-96643723D01*
X236266030Y-96667937D01*
X236266030Y-96667936D01*
X236312239Y-96782305D01*
X236313309Y-96784952D01*
X236324385Y-96807884D01*
X236324385Y-96807885D01*
X236353043Y-96858425D01*
X236353044Y-96858426D01*
X236367052Y-96879725D01*
X236367051Y-96879724D01*
X236367056Y-96879730D01*
X236443195Y-96980364D01*
X236449263Y-96987372D01*
X236459877Y-96999630D01*
X236500721Y-97040952D01*
X236500720Y-97040952D01*
X236519798Y-97057864D01*
X236619534Y-97135167D01*
X236619534Y-97135166D01*
X236619539Y-97135170D01*
X236640674Y-97149426D01*
X236640675Y-97149426D01*
X236640675Y-97149427D01*
X236690884Y-97178675D01*
X236712583Y-97189466D01*
X236713705Y-97190024D01*
X236830154Y-97238657D01*
X236854274Y-97246910D01*
X236910368Y-97262057D01*
X236935365Y-97267067D01*
X237066372Y-97284443D01*
X237079043Y-97285700D01*
X237092957Y-97286619D01*
X237099914Y-97287079D01*
X237112660Y-97287500D01*
X240798098Y-97287500D01*
X240865137Y-97307185D01*
X240910892Y-97359989D01*
X240920836Y-97429147D01*
X240891811Y-97492703D01*
X240857116Y-97520555D01*
X240796078Y-97553587D01*
X240771920Y-97572388D01*
X241426412Y-98226879D01*
X241411685Y-98228997D01*
X241280900Y-98288725D01*
X241172239Y-98382879D01*
X241094507Y-98503833D01*
X241069639Y-98588526D01*
X240414303Y-97933190D01*
X240335283Y-98054141D01*
X240243349Y-98263731D01*
X240187166Y-98485596D01*
X240168267Y-98713671D01*
X240168267Y-98713682D01*
X240187166Y-98941757D01*
X240243349Y-99163622D01*
X240335282Y-99373209D01*
X240414304Y-99494162D01*
X241069638Y-98838827D01*
X241094507Y-98923521D01*
X241172239Y-99044475D01*
X241280900Y-99138629D01*
X241411685Y-99198357D01*
X241426412Y-99200474D01*
X240771920Y-99854964D01*
X240771921Y-99854965D01*
X240796074Y-99873764D01*
X240997355Y-99982693D01*
X240997364Y-99982696D01*
X241213819Y-100057006D01*
X241439568Y-100094677D01*
X241668432Y-100094677D01*
X241894180Y-100057006D01*
X242110635Y-99982696D01*
X242110643Y-99982693D01*
X242311926Y-99873764D01*
X242311929Y-99873762D01*
X242336077Y-99854965D01*
X242336077Y-99854964D01*
X241681587Y-99200474D01*
X241696315Y-99198357D01*
X241827100Y-99138629D01*
X241935761Y-99044475D01*
X242013493Y-98923521D01*
X242038360Y-98838828D01*
X242693694Y-99494162D01*
X242772717Y-99373210D01*
X242772718Y-99373208D01*
X242864650Y-99163622D01*
X242920833Y-98941757D01*
X242932083Y-98806000D01*
X247111246Y-98806000D01*
X247130591Y-98965323D01*
X247130592Y-98965328D01*
X247187504Y-99115391D01*
X247187505Y-99115392D01*
X247255345Y-99213677D01*
X247278676Y-99247477D01*
X247398809Y-99353905D01*
X247540920Y-99428491D01*
X247540922Y-99428491D01*
X247540923Y-99428492D01*
X247696752Y-99466900D01*
X247857248Y-99466900D01*
X248013076Y-99428492D01*
X248013076Y-99428491D01*
X248013080Y-99428491D01*
X248155191Y-99353905D01*
X248155192Y-99353903D01*
X248161832Y-99350419D01*
X248163079Y-99352796D01*
X248217394Y-99334874D01*
X248280748Y-99351218D01*
X248281168Y-99350419D01*
X248284570Y-99352204D01*
X248285048Y-99352328D01*
X248286129Y-99353022D01*
X248287805Y-99353901D01*
X248287809Y-99353905D01*
X248429920Y-99428491D01*
X248429922Y-99428491D01*
X248429923Y-99428492D01*
X248585752Y-99466900D01*
X248746248Y-99466900D01*
X248902076Y-99428492D01*
X248902076Y-99428491D01*
X248902080Y-99428491D01*
X249044191Y-99353905D01*
X249164324Y-99247477D01*
X249255496Y-99115391D01*
X249312408Y-98965325D01*
X249331754Y-98806000D01*
X249312408Y-98646675D01*
X249312407Y-98646673D01*
X249312407Y-98646671D01*
X249286546Y-98578482D01*
X249255496Y-98496609D01*
X249164324Y-98364523D01*
X249044191Y-98258095D01*
X248902080Y-98183509D01*
X248902079Y-98183508D01*
X248902076Y-98183507D01*
X248746248Y-98145100D01*
X248585752Y-98145100D01*
X248429923Y-98183507D01*
X248372440Y-98213677D01*
X248287809Y-98258095D01*
X248287807Y-98258096D01*
X248281168Y-98261581D01*
X248279923Y-98259209D01*
X248225565Y-98277126D01*
X248162257Y-98260771D01*
X248161832Y-98261581D01*
X248158381Y-98259769D01*
X248157917Y-98259650D01*
X248156866Y-98258975D01*
X248155193Y-98258097D01*
X248155191Y-98258095D01*
X248013080Y-98183509D01*
X248013079Y-98183508D01*
X248013076Y-98183507D01*
X247857248Y-98145100D01*
X247696752Y-98145100D01*
X247540923Y-98183507D01*
X247398809Y-98258095D01*
X247278675Y-98364523D01*
X247187505Y-98496607D01*
X247187504Y-98496608D01*
X247130592Y-98646671D01*
X247130591Y-98646676D01*
X247111246Y-98806000D01*
X242932083Y-98806000D01*
X242939733Y-98713682D01*
X242939733Y-98713671D01*
X242920833Y-98485596D01*
X242864650Y-98263731D01*
X242772717Y-98054144D01*
X242693694Y-97933190D01*
X242038360Y-98588525D01*
X242013493Y-98503833D01*
X241935761Y-98382879D01*
X241827100Y-98288725D01*
X241696315Y-98228997D01*
X241681587Y-98226879D01*
X242336077Y-97572388D01*
X242336077Y-97572387D01*
X242311925Y-97553589D01*
X242250884Y-97520555D01*
X242201294Y-97471335D01*
X242186186Y-97403119D01*
X242210356Y-97337563D01*
X242266132Y-97295482D01*
X242309902Y-97287500D01*
X292855956Y-97287500D01*
X292855957Y-97287500D01*
X292868735Y-97287077D01*
X292889669Y-97285690D01*
X292898590Y-97284802D01*
X292902385Y-97284425D01*
X293033769Y-97266947D01*
X293033769Y-97266946D01*
X293033771Y-97266946D01*
X293040076Y-97265678D01*
X293058835Y-97261908D01*
X293084609Y-97254926D01*
X293115081Y-97246672D01*
X293139263Y-97238372D01*
X293139266Y-97238370D01*
X293139271Y-97238369D01*
X293255991Y-97189466D01*
X293255990Y-97189466D01*
X293278858Y-97178053D01*
X293278859Y-97178052D01*
X293329166Y-97148644D01*
X293350341Y-97134308D01*
X293375310Y-97114878D01*
X293450216Y-97056591D01*
X293457275Y-97050306D01*
X293469315Y-97039587D01*
X293510181Y-96998052D01*
X293526867Y-96978683D01*
X293526872Y-96978677D01*
X293526873Y-96978676D01*
X293556269Y-96939603D01*
X293602957Y-96877551D01*
X293602964Y-96877541D01*
X293616945Y-96856150D01*
X293616945Y-96856149D01*
X293645532Y-96805373D01*
X293656579Y-96782305D01*
X293703577Y-96664806D01*
X293703577Y-96664805D01*
X293711482Y-96640496D01*
X293724928Y-96587450D01*
X293725799Y-96584015D01*
X293729779Y-96562405D01*
X293730428Y-96558883D01*
X293745307Y-96431197D01*
X293745771Y-96427211D01*
X293746830Y-96414476D01*
X293747876Y-96393518D01*
X293748091Y-96380738D01*
X293620755Y-88549624D01*
X293543850Y-83820000D01*
X293952713Y-83820000D01*
X293972635Y-84098556D01*
X294031995Y-84371424D01*
X294031997Y-84371431D01*
X294071036Y-84476099D01*
X294129589Y-84633087D01*
X294129591Y-84633091D01*
X294263421Y-84878183D01*
X294263426Y-84878191D01*
X294430774Y-85101742D01*
X294430790Y-85101760D01*
X294628239Y-85299209D01*
X294628257Y-85299225D01*
X294851808Y-85466573D01*
X294851816Y-85466578D01*
X295096908Y-85600408D01*
X295096912Y-85600410D01*
X295096914Y-85600411D01*
X295358569Y-85698003D01*
X295490196Y-85726637D01*
X295631443Y-85757364D01*
X295631445Y-85757364D01*
X295631449Y-85757365D01*
X295840271Y-85772300D01*
X295979729Y-85772300D01*
X296188551Y-85757365D01*
X296461431Y-85698003D01*
X296723086Y-85600411D01*
X296968189Y-85466575D01*
X297191750Y-85299219D01*
X297389219Y-85101750D01*
X297556575Y-84878189D01*
X297690411Y-84633086D01*
X297788003Y-84371431D01*
X297841071Y-84127486D01*
X297847364Y-84098556D01*
X297847364Y-84098555D01*
X297847365Y-84098551D01*
X297867287Y-83820000D01*
X297865575Y-83796069D01*
X297862166Y-83748392D01*
X297847365Y-83541449D01*
X297788003Y-83268569D01*
X297690411Y-83006914D01*
X297679996Y-82987841D01*
X297556578Y-82761816D01*
X297556573Y-82761808D01*
X297389225Y-82538257D01*
X297389209Y-82538239D01*
X297191760Y-82340790D01*
X297191742Y-82340774D01*
X296968191Y-82173426D01*
X296968183Y-82173421D01*
X296723091Y-82039591D01*
X296723087Y-82039589D01*
X296623888Y-82002590D01*
X296461431Y-81941997D01*
X296461427Y-81941996D01*
X296461424Y-81941995D01*
X296188556Y-81882635D01*
X295979729Y-81867700D01*
X295840271Y-81867700D01*
X295631443Y-81882635D01*
X295358575Y-81941995D01*
X295358570Y-81941996D01*
X295358569Y-81941997D01*
X295313744Y-81958716D01*
X295096912Y-82039589D01*
X295096908Y-82039591D01*
X294851816Y-82173421D01*
X294851808Y-82173426D01*
X294628257Y-82340774D01*
X294628239Y-82340790D01*
X294430790Y-82538239D01*
X294430774Y-82538257D01*
X294263426Y-82761808D01*
X294263421Y-82761816D01*
X294129591Y-83006908D01*
X294129589Y-83006912D01*
X294055591Y-83205308D01*
X294049544Y-83221525D01*
X294031995Y-83268575D01*
X293972635Y-83541443D01*
X293952713Y-83819998D01*
X293952713Y-83820000D01*
X293543850Y-83820000D01*
X293510537Y-81771221D01*
X293509929Y-81758723D01*
X293508266Y-81738242D01*
X293506849Y-81725798D01*
X293487986Y-81597338D01*
X293482750Y-81572837D01*
X293482750Y-81572838D01*
X293467235Y-81517920D01*
X293467235Y-81517921D01*
X293467232Y-81517910D01*
X293458876Y-81494295D01*
X293441112Y-81452846D01*
X293432797Y-81383473D01*
X293463308Y-81320617D01*
X293522957Y-81284235D01*
X293555086Y-81280000D01*
X298453000Y-81280000D01*
X298520039Y-81299685D01*
X298565794Y-81352489D01*
X298577000Y-81404000D01*
X298577000Y-106299000D01*
X328552000Y-106299000D01*
X328619039Y-106318685D01*
X328664794Y-106371489D01*
X328676000Y-106423000D01*
X328676000Y-129273787D01*
X328673617Y-129297980D01*
X328661476Y-129359012D01*
X328642962Y-129403708D01*
X328615309Y-129445095D01*
X328581095Y-129479309D01*
X328539708Y-129506962D01*
X328495012Y-129525476D01*
X328446989Y-129535029D01*
X328433978Y-129537617D01*
X328409788Y-129540000D01*
X284988000Y-129540000D01*
X236728000Y-129540000D01*
X236728000Y-129793995D01*
X236728000Y-157721787D01*
X236725617Y-157745980D01*
X236713476Y-157807012D01*
X236694962Y-157851708D01*
X236667309Y-157893095D01*
X236633095Y-157927309D01*
X236591708Y-157954962D01*
X236547012Y-157973476D01*
X236498989Y-157983029D01*
X236485978Y-157985617D01*
X236461788Y-157988000D01*
X221246212Y-157988000D01*
X221222021Y-157985617D01*
X221205690Y-157982368D01*
X221160987Y-157973476D01*
X221116291Y-157954962D01*
X221074904Y-157927309D01*
X221040691Y-157893096D01*
X221013037Y-157851708D01*
X220994523Y-157807010D01*
X220982383Y-157745978D01*
X220980000Y-157721787D01*
X220980000Y-156204005D01*
X224414858Y-156204005D01*
X224433394Y-156427703D01*
X224488499Y-156645311D01*
X224578670Y-156850881D01*
X224618138Y-156911290D01*
X224701446Y-157038802D01*
X224853478Y-157203953D01*
X224853481Y-157203955D01*
X224853484Y-157203958D01*
X225030611Y-157341822D01*
X225030617Y-157341826D01*
X225030620Y-157341828D01*
X225104537Y-157381830D01*
X225226974Y-157448090D01*
X225228039Y-157448666D01*
X225440350Y-157521553D01*
X225661763Y-157558500D01*
X225886237Y-157558500D01*
X226107650Y-157521553D01*
X226319961Y-157448666D01*
X226517380Y-157341828D01*
X226694522Y-157203953D01*
X226846554Y-157038802D01*
X226969330Y-156850880D01*
X227059500Y-156645313D01*
X227114605Y-156427707D01*
X227130003Y-156241886D01*
X227133142Y-156204005D01*
X229367924Y-156204005D01*
X229388190Y-156448591D01*
X229388192Y-156448603D01*
X229448443Y-156686526D01*
X229547033Y-156911290D01*
X229642055Y-157056732D01*
X230327097Y-156371691D01*
X230330884Y-156389915D01*
X230400442Y-156524156D01*
X230503638Y-156634652D01*
X230632819Y-156713209D01*
X230688421Y-156728788D01*
X230000663Y-157416546D01*
X230041194Y-157448093D01*
X230257048Y-157564908D01*
X230257053Y-157564910D01*
X230489186Y-157644601D01*
X230731282Y-157685000D01*
X230976718Y-157685000D01*
X231218813Y-157644601D01*
X231450946Y-157564910D01*
X231450951Y-157564908D01*
X231666808Y-157448091D01*
X231666809Y-157448090D01*
X231707335Y-157416547D01*
X231707336Y-157416545D01*
X231021625Y-156730834D01*
X231142458Y-156678349D01*
X231259739Y-156582934D01*
X231346928Y-156459415D01*
X231378838Y-156369628D01*
X232065943Y-157056733D01*
X232160964Y-156911295D01*
X232259556Y-156686526D01*
X232319807Y-156448603D01*
X232319809Y-156448591D01*
X232340076Y-156204005D01*
X232340076Y-156203994D01*
X232319809Y-155959408D01*
X232319807Y-155959396D01*
X232259556Y-155721473D01*
X232160966Y-155496709D01*
X232065943Y-155351265D01*
X231380902Y-156036306D01*
X231377116Y-156018085D01*
X231307558Y-155883844D01*
X231204362Y-155773348D01*
X231075181Y-155694791D01*
X231019577Y-155679211D01*
X231707335Y-154991452D01*
X231707335Y-154991451D01*
X231666809Y-154959908D01*
X231450951Y-154843091D01*
X231450946Y-154843089D01*
X231218813Y-154763398D01*
X230976718Y-154723000D01*
X230731282Y-154723000D01*
X230489186Y-154763398D01*
X230257053Y-154843089D01*
X230257048Y-154843091D01*
X230041195Y-154959906D01*
X230000662Y-154991452D01*
X230686376Y-155677165D01*
X230565542Y-155729651D01*
X230448261Y-155825066D01*
X230361072Y-155948585D01*
X230329161Y-156038371D01*
X229642054Y-155351265D01*
X229547034Y-155496706D01*
X229448443Y-155721473D01*
X229388192Y-155959396D01*
X229388190Y-155959408D01*
X229367924Y-156203994D01*
X229367924Y-156204005D01*
X227133142Y-156204005D01*
X227133142Y-156203994D01*
X227120784Y-156054862D01*
X227114605Y-155980293D01*
X227059500Y-155762687D01*
X226969330Y-155557120D01*
X226929859Y-155496706D01*
X226887423Y-155431753D01*
X226846554Y-155369198D01*
X226694522Y-155204047D01*
X226694517Y-155204043D01*
X226694515Y-155204041D01*
X226517388Y-155066177D01*
X226517382Y-155066173D01*
X226319962Y-154959334D01*
X226319953Y-154959331D01*
X226107652Y-154886447D01*
X225886237Y-154849500D01*
X225661763Y-154849500D01*
X225440347Y-154886447D01*
X225228046Y-154959331D01*
X225228037Y-154959334D01*
X225030617Y-155066173D01*
X225030611Y-155066177D01*
X224853484Y-155204041D01*
X224853481Y-155204044D01*
X224701447Y-155369196D01*
X224701444Y-155369200D01*
X224578670Y-155557118D01*
X224488499Y-155762688D01*
X224433394Y-155980296D01*
X224414858Y-156203994D01*
X224414858Y-156204005D01*
X220980000Y-156204005D01*
X220980000Y-148004005D01*
X224414858Y-148004005D01*
X224433394Y-148227703D01*
X224488499Y-148445311D01*
X224578670Y-148650881D01*
X224701444Y-148838799D01*
X224701446Y-148838802D01*
X224853478Y-149003953D01*
X224853481Y-149003955D01*
X224853484Y-149003958D01*
X225030611Y-149141822D01*
X225030617Y-149141826D01*
X225030620Y-149141828D01*
X225126924Y-149193945D01*
X225226974Y-149248090D01*
X225228039Y-149248666D01*
X225440350Y-149321553D01*
X225661763Y-149358500D01*
X225886237Y-149358500D01*
X226107650Y-149321553D01*
X226319961Y-149248666D01*
X226517380Y-149141828D01*
X226540209Y-149124060D01*
X226629880Y-149054266D01*
X226694522Y-149003953D01*
X226846554Y-148838802D01*
X226969330Y-148650880D01*
X227059500Y-148445313D01*
X227114605Y-148227707D01*
X227133142Y-148004005D01*
X229367924Y-148004005D01*
X229388190Y-148248591D01*
X229388192Y-148248603D01*
X229448443Y-148486526D01*
X229547033Y-148711290D01*
X229642055Y-148856732D01*
X230327097Y-148171691D01*
X230330884Y-148189915D01*
X230400442Y-148324156D01*
X230503638Y-148434652D01*
X230632819Y-148513209D01*
X230688421Y-148528788D01*
X230000663Y-149216546D01*
X230041194Y-149248093D01*
X230257048Y-149364908D01*
X230257053Y-149364910D01*
X230489186Y-149444601D01*
X230731282Y-149485000D01*
X230976718Y-149485000D01*
X231218813Y-149444601D01*
X231450946Y-149364910D01*
X231450951Y-149364908D01*
X231666808Y-149248091D01*
X231666809Y-149248090D01*
X231707335Y-149216547D01*
X231707336Y-149216545D01*
X231021625Y-148530834D01*
X231142458Y-148478349D01*
X231259739Y-148382934D01*
X231346928Y-148259415D01*
X231378838Y-148169628D01*
X232065943Y-148856733D01*
X232160964Y-148711295D01*
X232259556Y-148486526D01*
X232319807Y-148248603D01*
X232319809Y-148248591D01*
X232340076Y-148004005D01*
X232340076Y-148003994D01*
X232319809Y-147759408D01*
X232319807Y-147759396D01*
X232259556Y-147521473D01*
X232160966Y-147296709D01*
X232065943Y-147151265D01*
X231380902Y-147836306D01*
X231377116Y-147818085D01*
X231307558Y-147683844D01*
X231204362Y-147573348D01*
X231075181Y-147494791D01*
X231019577Y-147479211D01*
X231707335Y-146791452D01*
X231707335Y-146791451D01*
X231666809Y-146759908D01*
X231450951Y-146643091D01*
X231450946Y-146643089D01*
X231218813Y-146563398D01*
X230976718Y-146523000D01*
X230731282Y-146523000D01*
X230489186Y-146563398D01*
X230257053Y-146643089D01*
X230257048Y-146643091D01*
X230041195Y-146759906D01*
X230000662Y-146791452D01*
X230686376Y-147477165D01*
X230565542Y-147529651D01*
X230448261Y-147625066D01*
X230361072Y-147748585D01*
X230329161Y-147838371D01*
X229642054Y-147151265D01*
X229547034Y-147296706D01*
X229448443Y-147521473D01*
X229388192Y-147759396D01*
X229388190Y-147759408D01*
X229367924Y-148003994D01*
X229367924Y-148004005D01*
X227133142Y-148004005D01*
X227133142Y-148004000D01*
X227123782Y-147891047D01*
X227117804Y-147818900D01*
X227114605Y-147780293D01*
X227059500Y-147562687D01*
X226969330Y-147357120D01*
X226929859Y-147296706D01*
X226900015Y-147251026D01*
X226846554Y-147169198D01*
X226694522Y-147004047D01*
X226694517Y-147004043D01*
X226694515Y-147004041D01*
X226517388Y-146866177D01*
X226517382Y-146866173D01*
X226319962Y-146759334D01*
X226319953Y-146759331D01*
X226107652Y-146686447D01*
X225886237Y-146649500D01*
X225661763Y-146649500D01*
X225440347Y-146686447D01*
X225228046Y-146759331D01*
X225228037Y-146759334D01*
X225030617Y-146866173D01*
X225030611Y-146866177D01*
X224853484Y-147004041D01*
X224853481Y-147004044D01*
X224701447Y-147169196D01*
X224701444Y-147169200D01*
X224578670Y-147357118D01*
X224488499Y-147562688D01*
X224433394Y-147780296D01*
X224414858Y-148003994D01*
X224414858Y-148004005D01*
X220980000Y-148004005D01*
X220980000Y-142000003D01*
X226040493Y-142000003D01*
X226060504Y-142343578D01*
X226060505Y-142343589D01*
X226120264Y-142682499D01*
X226120266Y-142682507D01*
X226218973Y-143012212D01*
X226355284Y-143328215D01*
X226355290Y-143328228D01*
X226527368Y-143626277D01*
X226732882Y-143902330D01*
X226732887Y-143902336D01*
X226854862Y-144031621D01*
X226969063Y-144152667D01*
X226969069Y-144152672D01*
X226969071Y-144152674D01*
X227232702Y-144373887D01*
X227232710Y-144373893D01*
X227520242Y-144563006D01*
X227827791Y-144717463D01*
X227827792Y-144717464D01*
X227827795Y-144717465D01*
X227827799Y-144717467D01*
X228151204Y-144835177D01*
X228486087Y-144914545D01*
X228827920Y-144954500D01*
X228827927Y-144954500D01*
X229172073Y-144954500D01*
X229172080Y-144954500D01*
X229513913Y-144914545D01*
X229848796Y-144835177D01*
X230172201Y-144717467D01*
X230479754Y-144563008D01*
X230767295Y-144373889D01*
X231030937Y-144152667D01*
X231267114Y-143902334D01*
X231472632Y-143626276D01*
X231644712Y-143328224D01*
X231781027Y-143012211D01*
X231879733Y-142682509D01*
X231939496Y-142343578D01*
X231959507Y-142000000D01*
X231939496Y-141656422D01*
X231879733Y-141317491D01*
X231781027Y-140987789D01*
X231644712Y-140671776D01*
X231472632Y-140373724D01*
X231472631Y-140373722D01*
X231267117Y-140097669D01*
X231267112Y-140097663D01*
X231147700Y-139971095D01*
X231030937Y-139847333D01*
X231030930Y-139847327D01*
X231030928Y-139847325D01*
X230767297Y-139626112D01*
X230767289Y-139626106D01*
X230479757Y-139436993D01*
X230172208Y-139282536D01*
X230172207Y-139282535D01*
X229848793Y-139164822D01*
X229664802Y-139121216D01*
X229513913Y-139085455D01*
X229172080Y-139045500D01*
X228827920Y-139045500D01*
X228486087Y-139085455D01*
X228151206Y-139164822D01*
X227827792Y-139282535D01*
X227827791Y-139282536D01*
X227520242Y-139436993D01*
X227232710Y-139626106D01*
X227232702Y-139626112D01*
X226969071Y-139847325D01*
X226969061Y-139847335D01*
X226732887Y-140097663D01*
X226732882Y-140097669D01*
X226527368Y-140373722D01*
X226355290Y-140671771D01*
X226355284Y-140671784D01*
X226218973Y-140987787D01*
X226120266Y-141317492D01*
X226120264Y-141317500D01*
X226060505Y-141656410D01*
X226060504Y-141656421D01*
X226040493Y-141999996D01*
X226040493Y-142000003D01*
X220980000Y-142000003D01*
X220980000Y-137795000D01*
X226156246Y-137795000D01*
X226175591Y-137954323D01*
X226175592Y-137954328D01*
X226232504Y-138104391D01*
X226323676Y-138236477D01*
X226443809Y-138342905D01*
X226585920Y-138417491D01*
X226585922Y-138417491D01*
X226585923Y-138417492D01*
X226741752Y-138455900D01*
X226902248Y-138455900D01*
X227058076Y-138417492D01*
X227058076Y-138417491D01*
X227058080Y-138417491D01*
X227200191Y-138342905D01*
X227320324Y-138236477D01*
X227411496Y-138104391D01*
X227468408Y-137954325D01*
X227487754Y-137795000D01*
X227468408Y-137635675D01*
X227468407Y-137635673D01*
X227468407Y-137635671D01*
X227437585Y-137554400D01*
X227411496Y-137485609D01*
X227320324Y-137353523D01*
X227200191Y-137247095D01*
X227058080Y-137172509D01*
X227058079Y-137172508D01*
X227058076Y-137172507D01*
X226902248Y-137134100D01*
X226741752Y-137134100D01*
X226585923Y-137172507D01*
X226443809Y-137247095D01*
X226323675Y-137353523D01*
X226232505Y-137485607D01*
X226232504Y-137485608D01*
X226175592Y-137635671D01*
X226175591Y-137635676D01*
X226156246Y-137795000D01*
X220980000Y-137795000D01*
X220980000Y-135890000D01*
X224124246Y-135890000D01*
X224143591Y-136049323D01*
X224143592Y-136049328D01*
X224169221Y-136116905D01*
X224200504Y-136199391D01*
X224291676Y-136331477D01*
X224411809Y-136437905D01*
X224553920Y-136512491D01*
X224553922Y-136512491D01*
X224553923Y-136512492D01*
X224709752Y-136550900D01*
X224870248Y-136550900D01*
X225026076Y-136512492D01*
X225026076Y-136512491D01*
X225026080Y-136512491D01*
X225168191Y-136437905D01*
X225288324Y-136331477D01*
X225379496Y-136199391D01*
X225436408Y-136049325D01*
X225455754Y-135890000D01*
X225436408Y-135730675D01*
X225436407Y-135730673D01*
X225436407Y-135730671D01*
X225410546Y-135662482D01*
X225379496Y-135580609D01*
X225288324Y-135448523D01*
X225168191Y-135342095D01*
X225026080Y-135267509D01*
X225026079Y-135267508D01*
X225026076Y-135267507D01*
X224870248Y-135229100D01*
X224709752Y-135229100D01*
X224553923Y-135267507D01*
X224411809Y-135342095D01*
X224291675Y-135448523D01*
X224200505Y-135580607D01*
X224200504Y-135580608D01*
X224143592Y-135730671D01*
X224143591Y-135730676D01*
X224124246Y-135890000D01*
X220980000Y-135890000D01*
X220980000Y-133858000D01*
X225648246Y-133858000D01*
X225667591Y-134017323D01*
X225667592Y-134017328D01*
X225724504Y-134167391D01*
X225749428Y-134203500D01*
X225802110Y-134279824D01*
X225815676Y-134299477D01*
X225935809Y-134405905D01*
X226077920Y-134480491D01*
X226077922Y-134480491D01*
X226077923Y-134480492D01*
X226233752Y-134518900D01*
X226394248Y-134518900D01*
X226550076Y-134480492D01*
X226550076Y-134480491D01*
X226550080Y-134480491D01*
X226692191Y-134405905D01*
X226812324Y-134299477D01*
X226903496Y-134167391D01*
X226960408Y-134017325D01*
X226979754Y-133858000D01*
X226960408Y-133698675D01*
X226960407Y-133698673D01*
X226960407Y-133698671D01*
X226934546Y-133630482D01*
X226903496Y-133548609D01*
X226812324Y-133416523D01*
X226692191Y-133310095D01*
X226550080Y-133235509D01*
X226550079Y-133235508D01*
X226550076Y-133235507D01*
X226394248Y-133197100D01*
X226233752Y-133197100D01*
X226077923Y-133235507D01*
X225935809Y-133310095D01*
X225815675Y-133416523D01*
X225724505Y-133548607D01*
X225724504Y-133548608D01*
X225667592Y-133698671D01*
X225667591Y-133698676D01*
X225648246Y-133858000D01*
X220980000Y-133858000D01*
X220980000Y-131953000D01*
X225140246Y-131953000D01*
X225159591Y-132112323D01*
X225159592Y-132112328D01*
X225216504Y-132262391D01*
X225307676Y-132394477D01*
X225427809Y-132500905D01*
X225569920Y-132575491D01*
X225569922Y-132575491D01*
X225569923Y-132575492D01*
X225725752Y-132613900D01*
X225886248Y-132613900D01*
X226042076Y-132575492D01*
X226042076Y-132575491D01*
X226042080Y-132575491D01*
X226184191Y-132500905D01*
X226304324Y-132394477D01*
X226395496Y-132262391D01*
X226452408Y-132112325D01*
X226471754Y-131953000D01*
X226452408Y-131793675D01*
X226452407Y-131793673D01*
X226452407Y-131793671D01*
X226426546Y-131725482D01*
X226395496Y-131643609D01*
X226304324Y-131511523D01*
X226184191Y-131405095D01*
X226042080Y-131330509D01*
X226042079Y-131330508D01*
X226042076Y-131330507D01*
X225886248Y-131292100D01*
X225725752Y-131292100D01*
X225569923Y-131330507D01*
X225427809Y-131405095D01*
X225307675Y-131511523D01*
X225216505Y-131643607D01*
X225216504Y-131643608D01*
X225159592Y-131793671D01*
X225159591Y-131793676D01*
X225140246Y-131953000D01*
X220980000Y-131953000D01*
X220980000Y-104738740D01*
X240299500Y-104738740D01*
X240314266Y-104812978D01*
X240370515Y-104897161D01*
X240404234Y-104919691D01*
X240454699Y-104953411D01*
X240454702Y-104953411D01*
X240454703Y-104953412D01*
X240479666Y-104958377D01*
X240528933Y-104968177D01*
X242579066Y-104968176D01*
X242653301Y-104953411D01*
X242737484Y-104897161D01*
X242793734Y-104812978D01*
X242808500Y-104738744D01*
X242808500Y-104140000D01*
X247111246Y-104140000D01*
X247130591Y-104299323D01*
X247130592Y-104299328D01*
X247187504Y-104449391D01*
X247278676Y-104581477D01*
X247398809Y-104687905D01*
X247540920Y-104762491D01*
X247540922Y-104762491D01*
X247540923Y-104762492D01*
X247696752Y-104800900D01*
X247857248Y-104800900D01*
X248013076Y-104762492D01*
X248013076Y-104762491D01*
X248013080Y-104762491D01*
X248155191Y-104687905D01*
X248155192Y-104687903D01*
X248161832Y-104684419D01*
X248163079Y-104686796D01*
X248217394Y-104668874D01*
X248280748Y-104685218D01*
X248281168Y-104684419D01*
X248284570Y-104686204D01*
X248285048Y-104686328D01*
X248286129Y-104687022D01*
X248287805Y-104687901D01*
X248287809Y-104687905D01*
X248429920Y-104762491D01*
X248429922Y-104762491D01*
X248429923Y-104762492D01*
X248585752Y-104800900D01*
X248746248Y-104800900D01*
X248902076Y-104762492D01*
X248902076Y-104762491D01*
X248902080Y-104762491D01*
X249044191Y-104687905D01*
X249164324Y-104581477D01*
X249255496Y-104449391D01*
X249312408Y-104299325D01*
X249331754Y-104140000D01*
X249312408Y-103980675D01*
X249312407Y-103980673D01*
X249312407Y-103980671D01*
X249262465Y-103848985D01*
X249255496Y-103830609D01*
X249164324Y-103698523D01*
X249044191Y-103592095D01*
X248902080Y-103517509D01*
X248902079Y-103517508D01*
X248902076Y-103517507D01*
X248746248Y-103479100D01*
X248585752Y-103479100D01*
X248429923Y-103517507D01*
X248362692Y-103552792D01*
X248287809Y-103592095D01*
X248287807Y-103592096D01*
X248281168Y-103595581D01*
X248279923Y-103593209D01*
X248225565Y-103611126D01*
X248162257Y-103594771D01*
X248161832Y-103595581D01*
X248158381Y-103593769D01*
X248157917Y-103593650D01*
X248156866Y-103592975D01*
X248155193Y-103592097D01*
X248155191Y-103592095D01*
X248013080Y-103517509D01*
X248013079Y-103517508D01*
X248013076Y-103517507D01*
X247857248Y-103479100D01*
X247696752Y-103479100D01*
X247540923Y-103517507D01*
X247398809Y-103592095D01*
X247278675Y-103698523D01*
X247187505Y-103830607D01*
X247187504Y-103830608D01*
X247130592Y-103980671D01*
X247130591Y-103980676D01*
X247111246Y-104140000D01*
X242808500Y-104140000D01*
X242808499Y-102688611D01*
X242793734Y-102614376D01*
X242746971Y-102544391D01*
X242737484Y-102530192D01*
X242687019Y-102496473D01*
X242653301Y-102473943D01*
X242653299Y-102473942D01*
X242653296Y-102473941D01*
X242579069Y-102459177D01*
X240528936Y-102459177D01*
X240454698Y-102473943D01*
X240370515Y-102530192D01*
X240314266Y-102614376D01*
X240314264Y-102614380D01*
X240299500Y-102688605D01*
X240299500Y-104738740D01*
X220980000Y-104738740D01*
X220980000Y-103505000D01*
X222092246Y-103505000D01*
X222111591Y-103664323D01*
X222111592Y-103664328D01*
X222124561Y-103698523D01*
X222168504Y-103814391D01*
X222259676Y-103946477D01*
X222379809Y-104052905D01*
X222521920Y-104127491D01*
X222521922Y-104127491D01*
X222521923Y-104127492D01*
X222677752Y-104165900D01*
X222838248Y-104165900D01*
X222994076Y-104127492D01*
X222994076Y-104127491D01*
X222994080Y-104127491D01*
X223136191Y-104052905D01*
X223256324Y-103946477D01*
X223347496Y-103814391D01*
X223404408Y-103664325D01*
X223423754Y-103505000D01*
X225521246Y-103505000D01*
X225540591Y-103664323D01*
X225540592Y-103664328D01*
X225553561Y-103698523D01*
X225597504Y-103814391D01*
X225688676Y-103946477D01*
X225808809Y-104052905D01*
X225950920Y-104127491D01*
X225950922Y-104127491D01*
X225950923Y-104127492D01*
X226106752Y-104165900D01*
X226267248Y-104165900D01*
X226423076Y-104127492D01*
X226423076Y-104127491D01*
X226423080Y-104127491D01*
X226565191Y-104052905D01*
X226685324Y-103946477D01*
X226776496Y-103814391D01*
X226833408Y-103664325D01*
X226852754Y-103505000D01*
X227299246Y-103505000D01*
X227318591Y-103664323D01*
X227318592Y-103664328D01*
X227331561Y-103698523D01*
X227375504Y-103814391D01*
X227466676Y-103946477D01*
X227586809Y-104052905D01*
X227728920Y-104127491D01*
X227728922Y-104127491D01*
X227728923Y-104127492D01*
X227884752Y-104165900D01*
X228045248Y-104165900D01*
X228201076Y-104127492D01*
X228201076Y-104127491D01*
X228201080Y-104127491D01*
X228343191Y-104052905D01*
X228463324Y-103946477D01*
X228554496Y-103814391D01*
X228611408Y-103664325D01*
X228630754Y-103505000D01*
X230601246Y-103505000D01*
X230620591Y-103664323D01*
X230620592Y-103664328D01*
X230633561Y-103698523D01*
X230677504Y-103814391D01*
X230768676Y-103946477D01*
X230888809Y-104052905D01*
X231030920Y-104127491D01*
X231030922Y-104127491D01*
X231030923Y-104127492D01*
X231186752Y-104165900D01*
X231347248Y-104165900D01*
X231503076Y-104127492D01*
X231503076Y-104127491D01*
X231503080Y-104127491D01*
X231645191Y-104052905D01*
X231765324Y-103946477D01*
X231856496Y-103814391D01*
X231913408Y-103664325D01*
X231932754Y-103505000D01*
X231913408Y-103345675D01*
X231913407Y-103345673D01*
X231913407Y-103345671D01*
X231883134Y-103265848D01*
X231856496Y-103195609D01*
X231765324Y-103063523D01*
X231651647Y-102962814D01*
X231614521Y-102903626D01*
X231615289Y-102833761D01*
X231651647Y-102777185D01*
X231765324Y-102676477D01*
X231856496Y-102544391D01*
X231913408Y-102394325D01*
X231932754Y-102235000D01*
X231913408Y-102075675D01*
X231913407Y-102075673D01*
X231913407Y-102075671D01*
X231887546Y-102007482D01*
X231856496Y-101925609D01*
X231765324Y-101793523D01*
X231651647Y-101692814D01*
X231614521Y-101633626D01*
X231615289Y-101563761D01*
X231651647Y-101507185D01*
X231765324Y-101406477D01*
X231856496Y-101274391D01*
X231913408Y-101124325D01*
X231932754Y-100965000D01*
X231913408Y-100805675D01*
X231913407Y-100805673D01*
X231913407Y-100805671D01*
X231887546Y-100737482D01*
X231856496Y-100655609D01*
X231765324Y-100523523D01*
X231645191Y-100417095D01*
X231503080Y-100342509D01*
X231503079Y-100342508D01*
X231503076Y-100342507D01*
X231347248Y-100304100D01*
X231186752Y-100304100D01*
X231030923Y-100342507D01*
X230888809Y-100417095D01*
X230768675Y-100523523D01*
X230677505Y-100655607D01*
X230677504Y-100655608D01*
X230620592Y-100805671D01*
X230620591Y-100805676D01*
X230601246Y-100965000D01*
X230620591Y-101124323D01*
X230620592Y-101124328D01*
X230677504Y-101274391D01*
X230768676Y-101406476D01*
X230768677Y-101406478D01*
X230882351Y-101507185D01*
X230919478Y-101566374D01*
X230918710Y-101636240D01*
X230882351Y-101692815D01*
X230768677Y-101793521D01*
X230677505Y-101925607D01*
X230677504Y-101925608D01*
X230620592Y-102075671D01*
X230620591Y-102075676D01*
X230601246Y-102235000D01*
X230620591Y-102394323D01*
X230620592Y-102394328D01*
X230672119Y-102530192D01*
X230677504Y-102544391D01*
X230768676Y-102676476D01*
X230768677Y-102676478D01*
X230882351Y-102777185D01*
X230919478Y-102836374D01*
X230918710Y-102906240D01*
X230882351Y-102962815D01*
X230768677Y-103063521D01*
X230677505Y-103195607D01*
X230677504Y-103195608D01*
X230620592Y-103345671D01*
X230620591Y-103345676D01*
X230601246Y-103505000D01*
X228630754Y-103505000D01*
X228611408Y-103345675D01*
X228611407Y-103345673D01*
X228611407Y-103345671D01*
X228581134Y-103265848D01*
X228554496Y-103195609D01*
X228463324Y-103063523D01*
X228349647Y-102962814D01*
X228312521Y-102903626D01*
X228313289Y-102833761D01*
X228349647Y-102777185D01*
X228463324Y-102676477D01*
X228554496Y-102544391D01*
X228611408Y-102394325D01*
X228630754Y-102235000D01*
X228611408Y-102075675D01*
X228611407Y-102075673D01*
X228611407Y-102075671D01*
X228585546Y-102007482D01*
X228554496Y-101925609D01*
X228463324Y-101793523D01*
X228349647Y-101692814D01*
X228312521Y-101633626D01*
X228313289Y-101563761D01*
X228349647Y-101507185D01*
X228463324Y-101406477D01*
X228554496Y-101274391D01*
X228611408Y-101124325D01*
X228630754Y-100965000D01*
X228611408Y-100805675D01*
X228611407Y-100805673D01*
X228611407Y-100805671D01*
X228585546Y-100737482D01*
X228554496Y-100655609D01*
X228463324Y-100523523D01*
X228343191Y-100417095D01*
X228201080Y-100342509D01*
X228201079Y-100342508D01*
X228201076Y-100342507D01*
X228045248Y-100304100D01*
X227884752Y-100304100D01*
X227728923Y-100342507D01*
X227586809Y-100417095D01*
X227466675Y-100523523D01*
X227375505Y-100655607D01*
X227375504Y-100655608D01*
X227318592Y-100805671D01*
X227318591Y-100805676D01*
X227299246Y-100965000D01*
X227318591Y-101124323D01*
X227318592Y-101124328D01*
X227375504Y-101274391D01*
X227466676Y-101406476D01*
X227466677Y-101406478D01*
X227580351Y-101507185D01*
X227617478Y-101566374D01*
X227616710Y-101636240D01*
X227580351Y-101692815D01*
X227466677Y-101793521D01*
X227375505Y-101925607D01*
X227375504Y-101925608D01*
X227318592Y-102075671D01*
X227318591Y-102075676D01*
X227299246Y-102235000D01*
X227318591Y-102394323D01*
X227318592Y-102394328D01*
X227370119Y-102530192D01*
X227375504Y-102544391D01*
X227466676Y-102676476D01*
X227466677Y-102676478D01*
X227580351Y-102777185D01*
X227617478Y-102836374D01*
X227616710Y-102906240D01*
X227580351Y-102962815D01*
X227466677Y-103063521D01*
X227375505Y-103195607D01*
X227375504Y-103195608D01*
X227318592Y-103345671D01*
X227318591Y-103345676D01*
X227299246Y-103505000D01*
X226852754Y-103505000D01*
X226833408Y-103345675D01*
X226833407Y-103345673D01*
X226833407Y-103345671D01*
X226803134Y-103265848D01*
X226776496Y-103195609D01*
X226685324Y-103063523D01*
X226571647Y-102962814D01*
X226534521Y-102903626D01*
X226535289Y-102833761D01*
X226571647Y-102777185D01*
X226685324Y-102676477D01*
X226776496Y-102544391D01*
X226833408Y-102394325D01*
X226852754Y-102235000D01*
X226833408Y-102075675D01*
X226833407Y-102075673D01*
X226833407Y-102075671D01*
X226807546Y-102007482D01*
X226776496Y-101925609D01*
X226685324Y-101793523D01*
X226571647Y-101692814D01*
X226534521Y-101633626D01*
X226535289Y-101563761D01*
X226571647Y-101507185D01*
X226685324Y-101406477D01*
X226776496Y-101274391D01*
X226833408Y-101124325D01*
X226852754Y-100965000D01*
X226833408Y-100805675D01*
X226833407Y-100805673D01*
X226833407Y-100805671D01*
X226807546Y-100737482D01*
X226776496Y-100655609D01*
X226685324Y-100523523D01*
X226565191Y-100417095D01*
X226423080Y-100342509D01*
X226423079Y-100342508D01*
X226423076Y-100342507D01*
X226267248Y-100304100D01*
X226106752Y-100304100D01*
X225950923Y-100342507D01*
X225808809Y-100417095D01*
X225688675Y-100523523D01*
X225597505Y-100655607D01*
X225597504Y-100655608D01*
X225540592Y-100805671D01*
X225540591Y-100805676D01*
X225521246Y-100965000D01*
X225540591Y-101124323D01*
X225540592Y-101124328D01*
X225597504Y-101274391D01*
X225688676Y-101406476D01*
X225688677Y-101406478D01*
X225802351Y-101507185D01*
X225839478Y-101566374D01*
X225838710Y-101636240D01*
X225802351Y-101692815D01*
X225688677Y-101793521D01*
X225597505Y-101925607D01*
X225597504Y-101925608D01*
X225540592Y-102075671D01*
X225540591Y-102075676D01*
X225521246Y-102235000D01*
X225540591Y-102394323D01*
X225540592Y-102394328D01*
X225592119Y-102530192D01*
X225597504Y-102544391D01*
X225688676Y-102676476D01*
X225688677Y-102676478D01*
X225802351Y-102777185D01*
X225839478Y-102836374D01*
X225838710Y-102906240D01*
X225802351Y-102962815D01*
X225688677Y-103063521D01*
X225597505Y-103195607D01*
X225597504Y-103195608D01*
X225540592Y-103345671D01*
X225540591Y-103345676D01*
X225521246Y-103505000D01*
X223423754Y-103505000D01*
X223404408Y-103345675D01*
X223404407Y-103345673D01*
X223404407Y-103345671D01*
X223374134Y-103265848D01*
X223347496Y-103195609D01*
X223256324Y-103063523D01*
X223142647Y-102962814D01*
X223105521Y-102903626D01*
X223106289Y-102833761D01*
X223142647Y-102777185D01*
X223256324Y-102676477D01*
X223347496Y-102544391D01*
X223404408Y-102394325D01*
X223423754Y-102235000D01*
X223404408Y-102075675D01*
X223404407Y-102075673D01*
X223404407Y-102075671D01*
X223378546Y-102007482D01*
X223347496Y-101925609D01*
X223256324Y-101793523D01*
X223142647Y-101692814D01*
X223105521Y-101633626D01*
X223106289Y-101563761D01*
X223142647Y-101507185D01*
X223256324Y-101406477D01*
X223347496Y-101274391D01*
X223404408Y-101124325D01*
X223423754Y-100965000D01*
X223404408Y-100805675D01*
X223404407Y-100805673D01*
X223404407Y-100805671D01*
X223378546Y-100737482D01*
X223347496Y-100655609D01*
X223256324Y-100523523D01*
X223142647Y-100422814D01*
X223105521Y-100363626D01*
X223106289Y-100293761D01*
X223142647Y-100237185D01*
X223256324Y-100136477D01*
X223347496Y-100004391D01*
X223404408Y-99854325D01*
X223423754Y-99695000D01*
X223404408Y-99535675D01*
X223404407Y-99535673D01*
X223404407Y-99535671D01*
X223363759Y-99428491D01*
X223347496Y-99385609D01*
X223256324Y-99253523D01*
X223136191Y-99147095D01*
X222994080Y-99072509D01*
X222994079Y-99072508D01*
X222994076Y-99072507D01*
X222838248Y-99034100D01*
X222677752Y-99034100D01*
X222521923Y-99072507D01*
X222379809Y-99147095D01*
X222259675Y-99253523D01*
X222168505Y-99385607D01*
X222168504Y-99385608D01*
X222111592Y-99535671D01*
X222111591Y-99535676D01*
X222092246Y-99695000D01*
X222111591Y-99854323D01*
X222111592Y-99854328D01*
X222160275Y-99982693D01*
X222168504Y-100004391D01*
X222259676Y-100136476D01*
X222259677Y-100136478D01*
X222373351Y-100237185D01*
X222410478Y-100296374D01*
X222409710Y-100366240D01*
X222373351Y-100422815D01*
X222259677Y-100523521D01*
X222168505Y-100655607D01*
X222168504Y-100655608D01*
X222111592Y-100805671D01*
X222111591Y-100805676D01*
X222092246Y-100965000D01*
X222111591Y-101124323D01*
X222111592Y-101124328D01*
X222168504Y-101274391D01*
X222259676Y-101406476D01*
X222259677Y-101406478D01*
X222373351Y-101507185D01*
X222410478Y-101566374D01*
X222409710Y-101636240D01*
X222373351Y-101692815D01*
X222259677Y-101793521D01*
X222168505Y-101925607D01*
X222168504Y-101925608D01*
X222111592Y-102075671D01*
X222111591Y-102075676D01*
X222092246Y-102235000D01*
X222111591Y-102394323D01*
X222111592Y-102394328D01*
X222163119Y-102530192D01*
X222168504Y-102544391D01*
X222259676Y-102676476D01*
X222259677Y-102676478D01*
X222373351Y-102777185D01*
X222410478Y-102836374D01*
X222409710Y-102906240D01*
X222373351Y-102962815D01*
X222259677Y-103063521D01*
X222168505Y-103195607D01*
X222168504Y-103195608D01*
X222111592Y-103345671D01*
X222111591Y-103345676D01*
X222092246Y-103505000D01*
X220980000Y-103505000D01*
X220980000Y-88150212D01*
X220982383Y-88126021D01*
X220994523Y-88064989D01*
X221013037Y-88020291D01*
X221018142Y-88012651D01*
X221040693Y-87978900D01*
X221074900Y-87944693D01*
X221116292Y-87917036D01*
X221160989Y-87898523D01*
X221222021Y-87886383D01*
X221246212Y-87884000D01*
X232918002Y-87884000D01*
X233172000Y-87884000D01*
X233172000Y-85506095D01*
X254953000Y-85506095D01*
X254953000Y-87213901D01*
X254953001Y-87213902D01*
X255050667Y-87201046D01*
X255050670Y-87201045D01*
X255192005Y-87142502D01*
X255313373Y-87049373D01*
X255406503Y-86928004D01*
X255465043Y-86786674D01*
X255466918Y-86772434D01*
X255495183Y-86708536D01*
X255553506Y-86670063D01*
X255623371Y-86669230D01*
X255682595Y-86706300D01*
X255706899Y-86747659D01*
X255726964Y-86805000D01*
X255742631Y-86849773D01*
X255762555Y-86876769D01*
X255823989Y-86960010D01*
X255857270Y-86984572D01*
X255934227Y-87041369D01*
X255955278Y-87048735D01*
X256063541Y-87086619D01*
X256063545Y-87086619D01*
X256063549Y-87086621D01*
X256094251Y-87089500D01*
X256603748Y-87089499D01*
X256634451Y-87086621D01*
X256763773Y-87041369D01*
X256763780Y-87041363D01*
X256771363Y-87037357D01*
X256839831Y-87023432D01*
X256904958Y-87048735D01*
X256946067Y-87105231D01*
X256951500Y-87136560D01*
X256952404Y-87136451D01*
X256972653Y-87303220D01*
X256972654Y-87303225D01*
X257029566Y-87453288D01*
X257120738Y-87585374D01*
X257240871Y-87691802D01*
X257382982Y-87766388D01*
X257382984Y-87766388D01*
X257382985Y-87766389D01*
X257538814Y-87804797D01*
X257699310Y-87804797D01*
X257855138Y-87766389D01*
X257855138Y-87766388D01*
X257855142Y-87766388D01*
X257997253Y-87691802D01*
X258117386Y-87585374D01*
X258208558Y-87453288D01*
X258265470Y-87303222D01*
X258280764Y-87177259D01*
X258308386Y-87113084D01*
X258366319Y-87074027D01*
X258436172Y-87072492D01*
X258444804Y-87075163D01*
X258477549Y-87086621D01*
X258508251Y-87089500D01*
X259017748Y-87089499D01*
X259048451Y-87086621D01*
X259177773Y-87041369D01*
X259288010Y-86960010D01*
X259369369Y-86849773D01*
X259398690Y-86765979D01*
X259414619Y-86720458D01*
X259414619Y-86720455D01*
X259414621Y-86720451D01*
X259417500Y-86689749D01*
X259417499Y-86030252D01*
X259414621Y-85999549D01*
X259369369Y-85870227D01*
X259311631Y-85791995D01*
X259288010Y-85759989D01*
X259198394Y-85693850D01*
X259177773Y-85678631D01*
X259177771Y-85678630D01*
X259048458Y-85633380D01*
X259048446Y-85633378D01*
X259017753Y-85630500D01*
X258508257Y-85630500D01*
X258492900Y-85631940D01*
X258477549Y-85633379D01*
X258477546Y-85633379D01*
X258477544Y-85633380D01*
X258348228Y-85678630D01*
X258237989Y-85759989D01*
X258160759Y-85864634D01*
X258105112Y-85906884D01*
X258060989Y-85915000D01*
X257747111Y-85915000D01*
X257719517Y-85911891D01*
X257716627Y-85911231D01*
X257686348Y-85913501D01*
X257668649Y-85914827D01*
X257664033Y-85915000D01*
X257051011Y-85915000D01*
X256983972Y-85895315D01*
X256951241Y-85864634D01*
X256874010Y-85759989D01*
X256784394Y-85693850D01*
X256763773Y-85678631D01*
X256763771Y-85678630D01*
X256634458Y-85633380D01*
X256634446Y-85633378D01*
X256603753Y-85630500D01*
X256094257Y-85630500D01*
X256078900Y-85631940D01*
X256063549Y-85633379D01*
X256063546Y-85633379D01*
X256063544Y-85633380D01*
X255934228Y-85678630D01*
X255823989Y-85759989D01*
X255742631Y-85870226D01*
X255706899Y-85972339D01*
X255666176Y-86029114D01*
X255601223Y-86054860D01*
X255532662Y-86041403D01*
X255482260Y-85993015D01*
X255466918Y-85947561D01*
X255465045Y-85933332D01*
X255465043Y-85933325D01*
X255406503Y-85791995D01*
X255313373Y-85670626D01*
X255192004Y-85577496D01*
X255050674Y-85518956D01*
X255050669Y-85518955D01*
X254953000Y-85506095D01*
X233172000Y-85506095D01*
X233172000Y-83406784D01*
X237324507Y-83406784D01*
X237343293Y-83621513D01*
X237343295Y-83621523D01*
X237399080Y-83829720D01*
X237399084Y-83829729D01*
X237490179Y-84025084D01*
X237528654Y-84080032D01*
X237999054Y-83609631D01*
X238039722Y-83707809D01*
X238135399Y-83832498D01*
X238260088Y-83928175D01*
X238358264Y-83968841D01*
X237887863Y-84439241D01*
X237942812Y-84477717D01*
X238138167Y-84568812D01*
X238138176Y-84568816D01*
X238346373Y-84624601D01*
X238346383Y-84624603D01*
X238561112Y-84643390D01*
X238561114Y-84643390D01*
X238775842Y-84624603D01*
X238775852Y-84624601D01*
X238984049Y-84568816D01*
X238984058Y-84568812D01*
X239179413Y-84477717D01*
X239234361Y-84439241D01*
X238763961Y-83968841D01*
X238862138Y-83928175D01*
X238986827Y-83832498D01*
X239082504Y-83707810D01*
X239123171Y-83609632D01*
X239593570Y-84080031D01*
X239632046Y-84025084D01*
X239723141Y-83829729D01*
X239723145Y-83829720D01*
X239778930Y-83621523D01*
X239778932Y-83621513D01*
X239797719Y-83406784D01*
X242324507Y-83406784D01*
X242343293Y-83621513D01*
X242343295Y-83621523D01*
X242399080Y-83829720D01*
X242399084Y-83829729D01*
X242490179Y-84025084D01*
X242528654Y-84080032D01*
X242999054Y-83609631D01*
X243039722Y-83707809D01*
X243135399Y-83832498D01*
X243260088Y-83928175D01*
X243358264Y-83968841D01*
X242887863Y-84439241D01*
X242942812Y-84477717D01*
X243138167Y-84568812D01*
X243138176Y-84568816D01*
X243346373Y-84624601D01*
X243346383Y-84624603D01*
X243561112Y-84643390D01*
X243561114Y-84643390D01*
X243775842Y-84624603D01*
X243775852Y-84624601D01*
X243984049Y-84568816D01*
X243984058Y-84568812D01*
X244179413Y-84477717D01*
X244234360Y-84439241D01*
X243763961Y-83968841D01*
X243862138Y-83928175D01*
X243986827Y-83832498D01*
X244082504Y-83707810D01*
X244123171Y-83609632D01*
X244593570Y-84080031D01*
X244632046Y-84025084D01*
X244723141Y-83829729D01*
X244723145Y-83829720D01*
X244778930Y-83621523D01*
X244778932Y-83621513D01*
X244797719Y-83406784D01*
X244797719Y-83406783D01*
X244778932Y-83192054D01*
X244778930Y-83192044D01*
X244723145Y-82983847D01*
X244723141Y-82983838D01*
X244632046Y-82788483D01*
X244593570Y-82733534D01*
X244123170Y-83203934D01*
X244082504Y-83105759D01*
X243986827Y-82981070D01*
X243862138Y-82885393D01*
X243763961Y-82844726D01*
X244234361Y-82374325D01*
X244179413Y-82335850D01*
X243984058Y-82244755D01*
X243984049Y-82244751D01*
X243775852Y-82188966D01*
X243775842Y-82188964D01*
X243561114Y-82170178D01*
X243561112Y-82170178D01*
X243346383Y-82188964D01*
X243346373Y-82188966D01*
X243138176Y-82244751D01*
X243138167Y-82244754D01*
X242942811Y-82335851D01*
X242942809Y-82335852D01*
X242887864Y-82374325D01*
X242887863Y-82374325D01*
X243358264Y-82844726D01*
X243260088Y-82885393D01*
X243135399Y-82981070D01*
X243039722Y-83105758D01*
X242999055Y-83203935D01*
X242528654Y-82733534D01*
X242528654Y-82733535D01*
X242490181Y-82788480D01*
X242490180Y-82788482D01*
X242399083Y-82983838D01*
X242399080Y-82983847D01*
X242343295Y-83192044D01*
X242343293Y-83192054D01*
X242324507Y-83406783D01*
X242324507Y-83406784D01*
X239797719Y-83406784D01*
X239797719Y-83406783D01*
X239778932Y-83192054D01*
X239778930Y-83192044D01*
X239723145Y-82983847D01*
X239723141Y-82983838D01*
X239632046Y-82788483D01*
X239593570Y-82733534D01*
X239123170Y-83203934D01*
X239082504Y-83105759D01*
X238986827Y-82981070D01*
X238862138Y-82885393D01*
X238763961Y-82844726D01*
X239234361Y-82374325D01*
X239179413Y-82335850D01*
X238984058Y-82244755D01*
X238984049Y-82244751D01*
X238775852Y-82188966D01*
X238775842Y-82188964D01*
X238561114Y-82170178D01*
X238561112Y-82170178D01*
X238346383Y-82188964D01*
X238346373Y-82188966D01*
X238138176Y-82244751D01*
X238138167Y-82244754D01*
X237942811Y-82335851D01*
X237942809Y-82335852D01*
X237887864Y-82374325D01*
X237887863Y-82374325D01*
X238358264Y-82844726D01*
X238260088Y-82885393D01*
X238135399Y-82981070D01*
X238039722Y-83105758D01*
X237999055Y-83203935D01*
X237528654Y-82733534D01*
X237528654Y-82733535D01*
X237490181Y-82788480D01*
X237490180Y-82788482D01*
X237399083Y-82983838D01*
X237399080Y-82983847D01*
X237343295Y-83192044D01*
X237343293Y-83192054D01*
X237324507Y-83406783D01*
X237324507Y-83406784D01*
X233172000Y-83406784D01*
X233172000Y-81546212D01*
X233174383Y-81522021D01*
X233186523Y-81460989D01*
X233205037Y-81416291D01*
X233232693Y-81374900D01*
X233266900Y-81340693D01*
X233308292Y-81313036D01*
X233352989Y-81294523D01*
X233414021Y-81282383D01*
X233438212Y-81280000D01*
X257857913Y-81280000D01*
X257924952Y-81299685D01*
G37*
%TD.AperFunction*%
%TA.AperFunction,Conductor*%
G36*
X278207580Y-81299685D02*
G01*
X278253335Y-81352489D01*
X278263279Y-81421647D01*
X278237529Y-81481261D01*
X278227147Y-81494295D01*
X277037371Y-82987841D01*
X276992261Y-83059293D01*
X276980297Y-83083837D01*
X276968652Y-83107723D01*
X276962200Y-83124525D01*
X276944583Y-83170398D01*
X276930068Y-83296790D01*
X276930068Y-83296799D01*
X276933630Y-83366577D01*
X276954815Y-83474523D01*
X276954818Y-83474535D01*
X276995196Y-83589925D01*
X277001375Y-83616996D01*
X277008374Y-83679112D01*
X277008374Y-83706880D01*
X277001375Y-83768998D01*
X276995197Y-83796069D01*
X276960116Y-83896324D01*
X276958122Y-83901316D01*
X276937230Y-83947687D01*
X276937226Y-83947697D01*
X276918231Y-84012390D01*
X276918230Y-84012393D01*
X276903165Y-84099923D01*
X276917137Y-84226380D01*
X276917139Y-84226392D01*
X276936135Y-84293616D01*
X276936136Y-84293620D01*
X276957118Y-84340831D01*
X276958982Y-84345535D01*
X276995197Y-84449032D01*
X277001375Y-84476099D01*
X277005494Y-84512651D01*
X277008375Y-84538217D01*
X277008374Y-84565982D01*
X277001375Y-84628101D01*
X276995197Y-84655172D01*
X276974550Y-84714179D01*
X276962501Y-84739198D01*
X276929245Y-84792124D01*
X276911933Y-84813832D01*
X276867729Y-84858036D01*
X276846021Y-84875348D01*
X276793095Y-84908604D01*
X276768076Y-84920653D01*
X276709069Y-84941300D01*
X276681999Y-84947478D01*
X276619885Y-84954477D01*
X276592118Y-84954477D01*
X276529999Y-84947478D01*
X276502929Y-84941300D01*
X276443924Y-84920654D01*
X276418898Y-84908601D01*
X276407021Y-84901137D01*
X276360733Y-84848799D01*
X276349000Y-84796148D01*
X276349000Y-83947000D01*
X275333000Y-83947000D01*
X275265961Y-83927315D01*
X275220206Y-83874511D01*
X275209000Y-83823000D01*
X275209000Y-83563000D01*
X275228685Y-83495961D01*
X275281489Y-83450206D01*
X275333000Y-83439000D01*
X276349000Y-83439000D01*
X276349000Y-82513347D01*
X276338209Y-82439283D01*
X276282362Y-82325046D01*
X276257402Y-82300086D01*
X276223917Y-82238763D01*
X276223568Y-82199297D01*
X276221903Y-82199134D01*
X276222499Y-82193071D01*
X276222500Y-82193067D01*
X276222499Y-81403999D01*
X276242183Y-81336961D01*
X276294987Y-81291206D01*
X276346499Y-81280000D01*
X278140541Y-81280000D01*
X278207580Y-81299685D01*
G37*
%TD.AperFunction*%
%TD*%
%TA.AperFunction,Conductor*%
%TO.N,/MIPI-HDMI-2/GND_MIPI*%
G36*
X277288413Y-135864313D02*
G01*
X277344346Y-135906185D01*
X277361021Y-135936523D01*
X277388105Y-136007937D01*
X277463320Y-136116905D01*
X277479276Y-136140021D01*
X277599409Y-136246449D01*
X277741520Y-136321035D01*
X277741522Y-136321035D01*
X277741523Y-136321036D01*
X277897352Y-136359444D01*
X277957813Y-136359444D01*
X278024852Y-136379129D01*
X278045494Y-136395763D01*
X279426681Y-137776950D01*
X279460166Y-137838273D01*
X279463000Y-137864631D01*
X279463000Y-138311513D01*
X279443315Y-138378552D01*
X279390511Y-138424307D01*
X279321353Y-138434251D01*
X279281375Y-138421310D01*
X279255078Y-138407508D01*
X279099248Y-138369100D01*
X278938752Y-138369100D01*
X278782923Y-138407507D01*
X278640809Y-138482095D01*
X278520675Y-138588523D01*
X278429505Y-138720607D01*
X278429504Y-138720608D01*
X278372592Y-138870671D01*
X278372591Y-138870677D01*
X278353369Y-139028985D01*
X278325747Y-139093163D01*
X278317954Y-139101719D01*
X271758994Y-145660681D01*
X271697671Y-145694166D01*
X271671313Y-145697000D01*
X270030461Y-145697000D01*
X270023523Y-145696610D01*
X270008136Y-145694877D01*
X269985172Y-145692289D01*
X269927471Y-145703207D01*
X269869353Y-145711967D01*
X269861309Y-145714448D01*
X269853367Y-145717227D01*
X269801425Y-145744678D01*
X269748495Y-145770168D01*
X269741522Y-145774922D01*
X269734762Y-145779912D01*
X269693215Y-145821458D01*
X269650153Y-145861415D01*
X269644362Y-145868677D01*
X269643701Y-145868149D01*
X269634370Y-145880303D01*
X269453972Y-146060702D01*
X269448791Y-146065333D01*
X269442822Y-146070094D01*
X269378139Y-146096513D01*
X269309442Y-146083767D01*
X269258541Y-146035904D01*
X269241494Y-145973159D01*
X269241494Y-143860081D01*
X269261179Y-143793042D01*
X269277808Y-143772405D01*
X277157400Y-135892812D01*
X277218721Y-135859329D01*
X277288413Y-135864313D01*
G37*
%TD.AperFunction*%
%TA.AperFunction,Conductor*%
G36*
X284237980Y-130050383D02*
G01*
X284299011Y-130062523D01*
X284343709Y-130081037D01*
X284385096Y-130108691D01*
X284419309Y-130142904D01*
X284446962Y-130184291D01*
X284465476Y-130228987D01*
X284477617Y-130290019D01*
X284480000Y-130314212D01*
X284480000Y-157721787D01*
X284477617Y-157745980D01*
X284465476Y-157807012D01*
X284446962Y-157851708D01*
X284419309Y-157893095D01*
X284385095Y-157927309D01*
X284343708Y-157954962D01*
X284299012Y-157973476D01*
X284250989Y-157983029D01*
X284237978Y-157985617D01*
X284213788Y-157988000D01*
X261886212Y-157988000D01*
X261862021Y-157985617D01*
X261845690Y-157982368D01*
X261800987Y-157973476D01*
X261756291Y-157954962D01*
X261714904Y-157927309D01*
X261680691Y-157893096D01*
X261653037Y-157851708D01*
X261634523Y-157807010D01*
X261622383Y-157745978D01*
X261620000Y-157721787D01*
X261620000Y-156488874D01*
X264619000Y-156488874D01*
X264634387Y-156650016D01*
X264634388Y-156650023D01*
X264695237Y-156857258D01*
X264794214Y-157049246D01*
X264927732Y-157219029D01*
X264927733Y-157219030D01*
X265090973Y-157360478D01*
X265278027Y-157468473D01*
X265278029Y-157468474D01*
X265482138Y-157539117D01*
X265482143Y-157539118D01*
X265496000Y-157541110D01*
X265496000Y-156807968D01*
X265583740Y-156858625D01*
X265715992Y-156888810D01*
X265851265Y-156878673D01*
X265977541Y-156829113D01*
X266004000Y-156808012D01*
X266004000Y-157537185D01*
X266121598Y-157508657D01*
X266121600Y-157508656D01*
X266318070Y-157418930D01*
X266494022Y-157293635D01*
X266494024Y-157293634D01*
X266643069Y-157137319D01*
X266759844Y-156955614D01*
X266840123Y-156755087D01*
X266881000Y-156542997D01*
X266881000Y-156488874D01*
X279119000Y-156488874D01*
X279134387Y-156650016D01*
X279134388Y-156650023D01*
X279195237Y-156857258D01*
X279294214Y-157049246D01*
X279427732Y-157219029D01*
X279427733Y-157219030D01*
X279590973Y-157360478D01*
X279778027Y-157468473D01*
X279778029Y-157468474D01*
X279982138Y-157539117D01*
X279982143Y-157539118D01*
X279996000Y-157541110D01*
X279996000Y-156807968D01*
X280083740Y-156858625D01*
X280215992Y-156888810D01*
X280351265Y-156878673D01*
X280477541Y-156829113D01*
X280504000Y-156808012D01*
X280504000Y-157537185D01*
X280621598Y-157508657D01*
X280621600Y-157508656D01*
X280818070Y-157418930D01*
X280994022Y-157293635D01*
X280994024Y-157293634D01*
X281143069Y-157137319D01*
X281259844Y-156955614D01*
X281340123Y-156755087D01*
X281381000Y-156542997D01*
X281381000Y-156289000D01*
X280700000Y-156289000D01*
X280700000Y-155781000D01*
X281381000Y-155781000D01*
X281381000Y-155581125D01*
X281365612Y-155419983D01*
X281365611Y-155419976D01*
X281304762Y-155212741D01*
X281205785Y-155020753D01*
X281072267Y-154850970D01*
X281072266Y-154850969D01*
X280909026Y-154709521D01*
X280721972Y-154601526D01*
X280721970Y-154601525D01*
X280517856Y-154530881D01*
X280504000Y-154528888D01*
X280504000Y-155262031D01*
X280416260Y-155211375D01*
X280284008Y-155181190D01*
X280148735Y-155191327D01*
X280022459Y-155240887D01*
X279996000Y-155261987D01*
X279996000Y-154532813D01*
X279878401Y-154561342D01*
X279681929Y-154651069D01*
X279505977Y-154776364D01*
X279505975Y-154776365D01*
X279356930Y-154932680D01*
X279240155Y-155114385D01*
X279159876Y-155314912D01*
X279119000Y-155527002D01*
X279119000Y-155781000D01*
X279800000Y-155781000D01*
X279800000Y-156289000D01*
X279119000Y-156289000D01*
X279119000Y-156488874D01*
X266881000Y-156488874D01*
X266881000Y-156289000D01*
X266200000Y-156289000D01*
X266200000Y-155781000D01*
X266881000Y-155781000D01*
X266881000Y-155581125D01*
X266865612Y-155419983D01*
X266865611Y-155419976D01*
X266804762Y-155212741D01*
X266705785Y-155020753D01*
X266572267Y-154850970D01*
X266572266Y-154850969D01*
X266409026Y-154709521D01*
X266221972Y-154601526D01*
X266221970Y-154601525D01*
X266017856Y-154530881D01*
X266004000Y-154528888D01*
X266004000Y-155262031D01*
X265916260Y-155211375D01*
X265784008Y-155181190D01*
X265648735Y-155191327D01*
X265522459Y-155240887D01*
X265496000Y-155261987D01*
X265496000Y-154532813D01*
X265378401Y-154561342D01*
X265181929Y-154651069D01*
X265005977Y-154776364D01*
X265005975Y-154776365D01*
X264856930Y-154932680D01*
X264740155Y-155114385D01*
X264659876Y-155314912D01*
X264619000Y-155527002D01*
X264619000Y-155781000D01*
X265300000Y-155781000D01*
X265300000Y-156289000D01*
X264619000Y-156289000D01*
X264619000Y-156488874D01*
X261620000Y-156488874D01*
X261620000Y-151028874D01*
X264619000Y-151028874D01*
X264634387Y-151190016D01*
X264634388Y-151190023D01*
X264695237Y-151397258D01*
X264794214Y-151589246D01*
X264927732Y-151759029D01*
X264927733Y-151759030D01*
X265090973Y-151900478D01*
X265278027Y-152008473D01*
X265278029Y-152008474D01*
X265482138Y-152079117D01*
X265482143Y-152079118D01*
X265496000Y-152081110D01*
X265496000Y-151347968D01*
X265583740Y-151398625D01*
X265715992Y-151428810D01*
X265851265Y-151418673D01*
X265977541Y-151369113D01*
X266004000Y-151348012D01*
X266004000Y-152077185D01*
X266121598Y-152048657D01*
X266121600Y-152048656D01*
X266318070Y-151958930D01*
X266494022Y-151833635D01*
X266494024Y-151833634D01*
X266643069Y-151677319D01*
X266759844Y-151495614D01*
X266840123Y-151295087D01*
X266881000Y-151082997D01*
X266881000Y-151028874D01*
X279119000Y-151028874D01*
X279134387Y-151190016D01*
X279134388Y-151190023D01*
X279195237Y-151397258D01*
X279294214Y-151589246D01*
X279427732Y-151759029D01*
X279427733Y-151759030D01*
X279590973Y-151900478D01*
X279778027Y-152008473D01*
X279778029Y-152008474D01*
X279982138Y-152079117D01*
X279982143Y-152079118D01*
X279996000Y-152081110D01*
X279996000Y-151347968D01*
X280083740Y-151398625D01*
X280215992Y-151428810D01*
X280351265Y-151418673D01*
X280477541Y-151369113D01*
X280504000Y-151348012D01*
X280504000Y-152077185D01*
X280621598Y-152048657D01*
X280621600Y-152048656D01*
X280818070Y-151958930D01*
X280994022Y-151833635D01*
X280994024Y-151833634D01*
X281143069Y-151677319D01*
X281259844Y-151495614D01*
X281340123Y-151295087D01*
X281381000Y-151082997D01*
X281381000Y-150329000D01*
X280700000Y-150329000D01*
X280700000Y-149821000D01*
X281381000Y-149821000D01*
X281381000Y-149121125D01*
X281365612Y-148959983D01*
X281365611Y-148959976D01*
X281304762Y-148752741D01*
X281205785Y-148560753D01*
X281072267Y-148390970D01*
X281072266Y-148390969D01*
X280909026Y-148249521D01*
X280721972Y-148141526D01*
X280721970Y-148141525D01*
X280517856Y-148070881D01*
X280504000Y-148068888D01*
X280504000Y-148802031D01*
X280416260Y-148751375D01*
X280284008Y-148721190D01*
X280148735Y-148731327D01*
X280022459Y-148780887D01*
X279996000Y-148801987D01*
X279996000Y-148072813D01*
X279878401Y-148101342D01*
X279681929Y-148191069D01*
X279505977Y-148316364D01*
X279505975Y-148316365D01*
X279356930Y-148472680D01*
X279240155Y-148654385D01*
X279159876Y-148854912D01*
X279119000Y-149067002D01*
X279119000Y-149821000D01*
X279800000Y-149821000D01*
X279800000Y-150329000D01*
X279119000Y-150329000D01*
X279119000Y-151028874D01*
X266881000Y-151028874D01*
X266881000Y-150329000D01*
X266200000Y-150329000D01*
X266200000Y-149821000D01*
X266881000Y-149821000D01*
X266881000Y-149121125D01*
X266865612Y-148959983D01*
X266865611Y-148959976D01*
X266804762Y-148752741D01*
X266705785Y-148560753D01*
X266572267Y-148390970D01*
X266572266Y-148390969D01*
X266409026Y-148249521D01*
X266221972Y-148141526D01*
X266221970Y-148141525D01*
X266017856Y-148070881D01*
X266004000Y-148068888D01*
X266004000Y-148802031D01*
X265916260Y-148751375D01*
X265784008Y-148721190D01*
X265648735Y-148731327D01*
X265522459Y-148780887D01*
X265496000Y-148801987D01*
X265496000Y-148072813D01*
X265378401Y-148101342D01*
X265181929Y-148191069D01*
X265005977Y-148316364D01*
X265005975Y-148316365D01*
X264856930Y-148472680D01*
X264740155Y-148654385D01*
X264659876Y-148854912D01*
X264619000Y-149067002D01*
X264619000Y-149821000D01*
X265300000Y-149821000D01*
X265300000Y-150329000D01*
X264619000Y-150329000D01*
X264619000Y-151028874D01*
X261620000Y-151028874D01*
X261620000Y-147285000D01*
X268067240Y-147285000D01*
X268086585Y-147444323D01*
X268086586Y-147444328D01*
X268125407Y-147546689D01*
X268143498Y-147594391D01*
X268179873Y-147647090D01*
X268226771Y-147715034D01*
X268234670Y-147726477D01*
X268354803Y-147832905D01*
X268496914Y-147907491D01*
X268496916Y-147907491D01*
X268496917Y-147907492D01*
X268652746Y-147945900D01*
X268813242Y-147945900D01*
X268969070Y-147907492D01*
X268969070Y-147907491D01*
X268969074Y-147907491D01*
X269111185Y-147832905D01*
X269158518Y-147790972D01*
X269221751Y-147761250D01*
X269291014Y-147770434D01*
X269322971Y-147790971D01*
X269370303Y-147832903D01*
X269370304Y-147832903D01*
X269370306Y-147832905D01*
X269512417Y-147907491D01*
X269512419Y-147907491D01*
X269512420Y-147907492D01*
X269668249Y-147945900D01*
X269828745Y-147945900D01*
X269984573Y-147907492D01*
X269984573Y-147907491D01*
X269984577Y-147907491D01*
X270126688Y-147832905D01*
X270174021Y-147790972D01*
X270237254Y-147761250D01*
X270306517Y-147770434D01*
X270338474Y-147790971D01*
X270385806Y-147832903D01*
X270385807Y-147832903D01*
X270385809Y-147832905D01*
X270527920Y-147907491D01*
X270527922Y-147907491D01*
X270527923Y-147907492D01*
X270683752Y-147945900D01*
X270844248Y-147945900D01*
X271000076Y-147907492D01*
X271000076Y-147907491D01*
X271000080Y-147907491D01*
X271142191Y-147832905D01*
X271223147Y-147761183D01*
X271286378Y-147731463D01*
X271305373Y-147730000D01*
X272259532Y-147730000D01*
X272266471Y-147730389D01*
X272297869Y-147733927D01*
X272304826Y-147734711D01*
X272304826Y-147734710D01*
X272304827Y-147734711D01*
X272362543Y-147723790D01*
X272420642Y-147715034D01*
X272420643Y-147715033D01*
X272420647Y-147715033D01*
X272420650Y-147715031D01*
X272428685Y-147712552D01*
X272436630Y-147709772D01*
X272436634Y-147709772D01*
X272488573Y-147682321D01*
X272541509Y-147656829D01*
X272541513Y-147656825D01*
X272548474Y-147652079D01*
X272555231Y-147647091D01*
X272555235Y-147647090D01*
X272596783Y-147605541D01*
X272639844Y-147565587D01*
X272639845Y-147565584D01*
X272645637Y-147558322D01*
X272646303Y-147558853D01*
X272655630Y-147546693D01*
X280202546Y-139999777D01*
X280207718Y-139995157D01*
X280237892Y-139971095D01*
X280270976Y-139922568D01*
X280305875Y-139875284D01*
X280305876Y-139875278D01*
X280305878Y-139875277D01*
X280309788Y-139867880D01*
X280313459Y-139860258D01*
X280330776Y-139804117D01*
X280350180Y-139748665D01*
X280350180Y-139748659D01*
X280351747Y-139740380D01*
X280352998Y-139732076D01*
X280353000Y-139732073D01*
X280353000Y-139673301D01*
X280355196Y-139614614D01*
X280355195Y-139614613D01*
X280354156Y-139605383D01*
X280354999Y-139605287D01*
X280353000Y-139590094D01*
X280353000Y-137657410D01*
X280353389Y-137650473D01*
X280357711Y-137612117D01*
X280346790Y-137554400D01*
X280338033Y-137496297D01*
X280338033Y-137496296D01*
X280335560Y-137488280D01*
X280332772Y-137480313D01*
X280332772Y-137480310D01*
X280305321Y-137428370D01*
X280279829Y-137375435D01*
X280275095Y-137368491D01*
X280270091Y-137361711D01*
X280270090Y-137361709D01*
X280270088Y-137361707D01*
X280228541Y-137320159D01*
X280208564Y-137298630D01*
X280188587Y-137277100D01*
X280188582Y-137277097D01*
X280181319Y-137271304D01*
X280181847Y-137270640D01*
X280169692Y-137261311D01*
X278678645Y-135770264D01*
X278645160Y-135708941D01*
X278643232Y-135697544D01*
X278624008Y-135539219D01*
X278624007Y-135539217D01*
X278624007Y-135539215D01*
X278576470Y-135413871D01*
X278571103Y-135344208D01*
X278604250Y-135282702D01*
X278665389Y-135248880D01*
X278692412Y-135245900D01*
X278909410Y-135245900D01*
X278976449Y-135265585D01*
X278997091Y-135282219D01*
X279314364Y-135599492D01*
X279347849Y-135660815D01*
X279349779Y-135672224D01*
X279356591Y-135728323D01*
X279356592Y-135728328D01*
X279405721Y-135857869D01*
X279413504Y-135878391D01*
X279432689Y-135906185D01*
X279502922Y-136007937D01*
X279504676Y-136010477D01*
X279624809Y-136116905D01*
X279766920Y-136191491D01*
X279766922Y-136191491D01*
X279766923Y-136191492D01*
X279922752Y-136229900D01*
X280083248Y-136229900D01*
X280239076Y-136191492D01*
X280239076Y-136191491D01*
X280239080Y-136191491D01*
X280381191Y-136116905D01*
X280501324Y-136010477D01*
X280592496Y-135878391D01*
X280649408Y-135728325D01*
X280668754Y-135569000D01*
X280649408Y-135409675D01*
X280649407Y-135409673D01*
X280649407Y-135409671D01*
X280623546Y-135341482D01*
X280592496Y-135259609D01*
X280501324Y-135127523D01*
X280381191Y-135021095D01*
X280239080Y-134946509D01*
X280239079Y-134946508D01*
X280239076Y-134946507D01*
X280087587Y-134909169D01*
X280029581Y-134876453D01*
X279579046Y-134425918D01*
X279562412Y-134405277D01*
X279559650Y-134400979D01*
X279559648Y-134400977D01*
X279559647Y-134400975D01*
X279519796Y-134366445D01*
X279516566Y-134363438D01*
X279505248Y-134352120D01*
X279505245Y-134352118D01*
X279505243Y-134352115D01*
X279492437Y-134342529D01*
X279488990Y-134339752D01*
X279449147Y-134305227D01*
X279449140Y-134305222D01*
X279445798Y-134303696D01*
X279444494Y-134303100D01*
X279421697Y-134289575D01*
X279417604Y-134286511D01*
X279368187Y-134268078D01*
X279364101Y-134266386D01*
X279355667Y-134262534D01*
X279316134Y-134244481D01*
X279316131Y-134244480D01*
X279316130Y-134244480D01*
X279311074Y-134243753D01*
X279285398Y-134237199D01*
X279280610Y-134235413D01*
X279280602Y-134235411D01*
X279280601Y-134235411D01*
X279274154Y-134234949D01*
X279227988Y-134231647D01*
X279223591Y-134231174D01*
X279207769Y-134228900D01*
X279207768Y-134228900D01*
X279191776Y-134228900D01*
X279187353Y-134228742D01*
X279178758Y-134228127D01*
X279134755Y-134224980D01*
X279134747Y-134224980D01*
X279129758Y-134226066D01*
X279103401Y-134228900D01*
X277661685Y-134228900D01*
X277635328Y-134226066D01*
X277630338Y-134224980D01*
X277630330Y-134224980D01*
X277585156Y-134228211D01*
X277577733Y-134228742D01*
X277573311Y-134228900D01*
X277557312Y-134228900D01*
X277541481Y-134231175D01*
X277537087Y-134231647D01*
X277484482Y-134235411D01*
X277484481Y-134235411D01*
X277479683Y-134237201D01*
X277454012Y-134243753D01*
X277448950Y-134244480D01*
X277400981Y-134266387D01*
X277396899Y-134268078D01*
X277347482Y-134286511D01*
X277347474Y-134286515D01*
X277343386Y-134289576D01*
X277320598Y-134303097D01*
X277315945Y-134305221D01*
X277315944Y-134305222D01*
X277276085Y-134339759D01*
X277272642Y-134342534D01*
X277259832Y-134352124D01*
X277248517Y-134363438D01*
X277245282Y-134366450D01*
X277205438Y-134400977D01*
X277205431Y-134400984D01*
X277202670Y-134405281D01*
X277186041Y-134425915D01*
X268421509Y-143190447D01*
X268400875Y-143207076D01*
X268396578Y-143209837D01*
X268396571Y-143209844D01*
X268362044Y-143249688D01*
X268359032Y-143252923D01*
X268347718Y-143264238D01*
X268338128Y-143277048D01*
X268335353Y-143280491D01*
X268300817Y-143320350D01*
X268298690Y-143325007D01*
X268285171Y-143347791D01*
X268282106Y-143351884D01*
X268282105Y-143351886D01*
X268263670Y-143401311D01*
X268261976Y-143405399D01*
X268240074Y-143453361D01*
X268239347Y-143458418D01*
X268232795Y-143484088D01*
X268231005Y-143488886D01*
X268231005Y-143488887D01*
X268227242Y-143541492D01*
X268226770Y-143545887D01*
X268224495Y-143561716D01*
X268224494Y-143561730D01*
X268224494Y-143577716D01*
X268224336Y-143582140D01*
X268220574Y-143634737D01*
X268220574Y-143634741D01*
X268221660Y-143639732D01*
X268224494Y-143666091D01*
X268224494Y-146819625D01*
X268204809Y-146886664D01*
X268202544Y-146890065D01*
X268143499Y-146975607D01*
X268143498Y-146975608D01*
X268086586Y-147125671D01*
X268086585Y-147125676D01*
X268067240Y-147285000D01*
X261620000Y-147285000D01*
X261620000Y-130314212D01*
X261622383Y-130290021D01*
X261634523Y-130228989D01*
X261653037Y-130184291D01*
X261680693Y-130142900D01*
X261714900Y-130108693D01*
X261756292Y-130081036D01*
X261800989Y-130062523D01*
X261862021Y-130050383D01*
X261886212Y-130048000D01*
X284213788Y-130048000D01*
X284237980Y-130050383D01*
G37*
%TD.AperFunction*%
%TD*%
%TA.AperFunction,Conductor*%
%TO.N,/MIPI-HDMI-1/GND_MIPI*%
G36*
X253296531Y-135856109D02*
G01*
X253352464Y-135897981D01*
X253369139Y-135928320D01*
X253410504Y-136037391D01*
X253501676Y-136169477D01*
X253621809Y-136275905D01*
X253763920Y-136350491D01*
X253763922Y-136350491D01*
X253763923Y-136350492D01*
X253919752Y-136388900D01*
X253980213Y-136388900D01*
X254047252Y-136408585D01*
X254067894Y-136425219D01*
X255423681Y-137781006D01*
X255457166Y-137842329D01*
X255460000Y-137868687D01*
X255460000Y-138184513D01*
X255440315Y-138251552D01*
X255387511Y-138297307D01*
X255318353Y-138307251D01*
X255278375Y-138294310D01*
X255252078Y-138280508D01*
X255096248Y-138242100D01*
X254935752Y-138242100D01*
X254779923Y-138280507D01*
X254637809Y-138355095D01*
X254517675Y-138461523D01*
X254426505Y-138593607D01*
X254426504Y-138593608D01*
X254369592Y-138743671D01*
X254369591Y-138743677D01*
X254350369Y-138901985D01*
X254322747Y-138966163D01*
X254314954Y-138974719D01*
X247755994Y-145533681D01*
X247694671Y-145567166D01*
X247668313Y-145570000D01*
X246027461Y-145570000D01*
X246020523Y-145569610D01*
X246005136Y-145567877D01*
X245982172Y-145565289D01*
X245924471Y-145576207D01*
X245866353Y-145584967D01*
X245858309Y-145587448D01*
X245850367Y-145590227D01*
X245798425Y-145617678D01*
X245745495Y-145643168D01*
X245738522Y-145647922D01*
X245731762Y-145652912D01*
X245690215Y-145694458D01*
X245647153Y-145734415D01*
X245641362Y-145741677D01*
X245640701Y-145741149D01*
X245631370Y-145753303D01*
X245450972Y-145933702D01*
X245445791Y-145938333D01*
X245439822Y-145943094D01*
X245375139Y-145969513D01*
X245306442Y-145956767D01*
X245255541Y-145908904D01*
X245238494Y-145846159D01*
X245238494Y-143862995D01*
X245258179Y-143795956D01*
X245274808Y-143775319D01*
X253165518Y-135884608D01*
X253226839Y-135851125D01*
X253296531Y-135856109D01*
G37*
%TD.AperFunction*%
%TA.AperFunction,Conductor*%
G36*
X260361980Y-130050383D02*
G01*
X260423011Y-130062523D01*
X260467709Y-130081037D01*
X260509096Y-130108691D01*
X260543309Y-130142904D01*
X260570962Y-130184291D01*
X260589476Y-130228987D01*
X260601617Y-130290019D01*
X260604000Y-130314212D01*
X260604000Y-157721787D01*
X260601617Y-157745980D01*
X260589476Y-157807012D01*
X260570962Y-157851708D01*
X260543309Y-157893095D01*
X260509095Y-157927309D01*
X260467708Y-157954962D01*
X260423012Y-157973476D01*
X260374989Y-157983029D01*
X260361978Y-157985617D01*
X260337788Y-157988000D01*
X237502212Y-157988000D01*
X237478021Y-157985617D01*
X237461690Y-157982368D01*
X237416987Y-157973476D01*
X237372291Y-157954962D01*
X237330904Y-157927309D01*
X237296691Y-157893096D01*
X237269037Y-157851708D01*
X237250523Y-157807010D01*
X237238383Y-157745978D01*
X237236000Y-157721787D01*
X237236000Y-156488874D01*
X240619000Y-156488874D01*
X240634387Y-156650016D01*
X240634388Y-156650023D01*
X240695237Y-156857258D01*
X240794214Y-157049246D01*
X240927732Y-157219029D01*
X240927733Y-157219030D01*
X241090973Y-157360478D01*
X241278027Y-157468473D01*
X241278029Y-157468474D01*
X241482138Y-157539117D01*
X241482143Y-157539118D01*
X241496000Y-157541110D01*
X241496000Y-156807968D01*
X241583740Y-156858625D01*
X241715992Y-156888810D01*
X241851265Y-156878673D01*
X241977541Y-156829113D01*
X242004000Y-156808012D01*
X242004000Y-157537185D01*
X242121598Y-157508657D01*
X242121600Y-157508656D01*
X242318070Y-157418930D01*
X242494022Y-157293635D01*
X242494024Y-157293634D01*
X242643069Y-157137319D01*
X242759844Y-156955614D01*
X242840123Y-156755087D01*
X242881000Y-156542997D01*
X242881000Y-156488874D01*
X255119000Y-156488874D01*
X255134387Y-156650016D01*
X255134388Y-156650023D01*
X255195237Y-156857258D01*
X255294214Y-157049246D01*
X255427732Y-157219029D01*
X255427733Y-157219030D01*
X255590973Y-157360478D01*
X255778027Y-157468473D01*
X255778029Y-157468474D01*
X255982138Y-157539117D01*
X255982143Y-157539118D01*
X255996000Y-157541110D01*
X255996000Y-156807968D01*
X256083740Y-156858625D01*
X256215992Y-156888810D01*
X256351265Y-156878673D01*
X256477541Y-156829113D01*
X256504000Y-156808012D01*
X256504000Y-157537185D01*
X256621598Y-157508657D01*
X256621600Y-157508656D01*
X256818070Y-157418930D01*
X256994022Y-157293635D01*
X256994024Y-157293634D01*
X257143069Y-157137319D01*
X257259844Y-156955614D01*
X257340123Y-156755087D01*
X257381000Y-156542997D01*
X257381000Y-156289000D01*
X256700000Y-156289000D01*
X256700000Y-155781000D01*
X257381000Y-155781000D01*
X257381000Y-155581125D01*
X257365612Y-155419983D01*
X257365611Y-155419976D01*
X257304762Y-155212741D01*
X257205785Y-155020753D01*
X257072267Y-154850970D01*
X257072266Y-154850969D01*
X256909026Y-154709521D01*
X256721972Y-154601526D01*
X256721970Y-154601525D01*
X256517856Y-154530881D01*
X256504000Y-154528888D01*
X256504000Y-155262031D01*
X256416260Y-155211375D01*
X256284008Y-155181190D01*
X256148735Y-155191327D01*
X256022459Y-155240887D01*
X255996000Y-155261987D01*
X255996000Y-154532813D01*
X255878401Y-154561342D01*
X255681929Y-154651069D01*
X255505977Y-154776364D01*
X255505975Y-154776365D01*
X255356930Y-154932680D01*
X255240155Y-155114385D01*
X255159876Y-155314912D01*
X255119000Y-155527002D01*
X255119000Y-155781000D01*
X255800000Y-155781000D01*
X255800000Y-156289000D01*
X255119000Y-156289000D01*
X255119000Y-156488874D01*
X242881000Y-156488874D01*
X242881000Y-156289000D01*
X242200000Y-156289000D01*
X242200000Y-155781000D01*
X242881000Y-155781000D01*
X242881000Y-155581125D01*
X242865612Y-155419983D01*
X242865611Y-155419976D01*
X242804762Y-155212741D01*
X242705785Y-155020753D01*
X242572267Y-154850970D01*
X242572266Y-154850969D01*
X242409026Y-154709521D01*
X242221972Y-154601526D01*
X242221970Y-154601525D01*
X242017856Y-154530881D01*
X242004000Y-154528888D01*
X242004000Y-155262031D01*
X241916260Y-155211375D01*
X241784008Y-155181190D01*
X241648735Y-155191327D01*
X241522459Y-155240887D01*
X241496000Y-155261987D01*
X241496000Y-154532813D01*
X241378401Y-154561342D01*
X241181929Y-154651069D01*
X241005977Y-154776364D01*
X241005975Y-154776365D01*
X240856930Y-154932680D01*
X240740155Y-155114385D01*
X240659876Y-155314912D01*
X240619000Y-155527002D01*
X240619000Y-155781000D01*
X241300000Y-155781000D01*
X241300000Y-156289000D01*
X240619000Y-156289000D01*
X240619000Y-156488874D01*
X237236000Y-156488874D01*
X237236000Y-151028874D01*
X240619000Y-151028874D01*
X240634387Y-151190016D01*
X240634388Y-151190023D01*
X240695237Y-151397258D01*
X240794214Y-151589246D01*
X240927732Y-151759029D01*
X240927733Y-151759030D01*
X241090973Y-151900478D01*
X241278027Y-152008473D01*
X241278029Y-152008474D01*
X241482138Y-152079117D01*
X241482143Y-152079118D01*
X241496000Y-152081110D01*
X241496000Y-151347968D01*
X241583740Y-151398625D01*
X241715992Y-151428810D01*
X241851265Y-151418673D01*
X241977541Y-151369113D01*
X242004000Y-151348012D01*
X242004000Y-152077185D01*
X242121598Y-152048657D01*
X242121600Y-152048656D01*
X242318070Y-151958930D01*
X242494022Y-151833635D01*
X242494024Y-151833634D01*
X242643069Y-151677319D01*
X242759844Y-151495614D01*
X242840123Y-151295087D01*
X242881000Y-151082997D01*
X242881000Y-151028874D01*
X255119000Y-151028874D01*
X255134387Y-151190016D01*
X255134388Y-151190023D01*
X255195237Y-151397258D01*
X255294214Y-151589246D01*
X255427732Y-151759029D01*
X255427733Y-151759030D01*
X255590973Y-151900478D01*
X255778027Y-152008473D01*
X255778029Y-152008474D01*
X255982138Y-152079117D01*
X255982143Y-152079118D01*
X255996000Y-152081110D01*
X255996000Y-151347968D01*
X256083740Y-151398625D01*
X256215992Y-151428810D01*
X256351265Y-151418673D01*
X256477541Y-151369113D01*
X256504000Y-151348012D01*
X256504000Y-152077185D01*
X256621598Y-152048657D01*
X256621600Y-152048656D01*
X256818070Y-151958930D01*
X256994022Y-151833635D01*
X256994024Y-151833634D01*
X257143069Y-151677319D01*
X257259844Y-151495614D01*
X257340123Y-151295087D01*
X257381000Y-151082997D01*
X257381000Y-150329000D01*
X256700000Y-150329000D01*
X256700000Y-149821000D01*
X257381000Y-149821000D01*
X257381000Y-149121125D01*
X257365612Y-148959983D01*
X257365611Y-148959976D01*
X257304762Y-148752741D01*
X257205785Y-148560753D01*
X257072267Y-148390970D01*
X257072266Y-148390969D01*
X256909026Y-148249521D01*
X256721972Y-148141526D01*
X256721970Y-148141525D01*
X256517856Y-148070881D01*
X256504000Y-148068888D01*
X256504000Y-148802031D01*
X256416260Y-148751375D01*
X256284008Y-148721190D01*
X256148735Y-148731327D01*
X256022459Y-148780887D01*
X255996000Y-148801987D01*
X255996000Y-148072813D01*
X255878401Y-148101342D01*
X255681929Y-148191069D01*
X255505977Y-148316364D01*
X255505975Y-148316365D01*
X255356930Y-148472680D01*
X255240155Y-148654385D01*
X255159876Y-148854912D01*
X255119000Y-149067002D01*
X255119000Y-149821000D01*
X255800000Y-149821000D01*
X255800000Y-150329000D01*
X255119000Y-150329000D01*
X255119000Y-151028874D01*
X242881000Y-151028874D01*
X242881000Y-150329000D01*
X242200000Y-150329000D01*
X242200000Y-149821000D01*
X242881000Y-149821000D01*
X242881000Y-149121125D01*
X242865612Y-148959983D01*
X242865611Y-148959976D01*
X242804762Y-148752741D01*
X242705785Y-148560753D01*
X242572267Y-148390970D01*
X242572266Y-148390969D01*
X242409026Y-148249521D01*
X242221972Y-148141526D01*
X242221970Y-148141525D01*
X242017856Y-148070881D01*
X242004000Y-148068888D01*
X242004000Y-148802031D01*
X241916260Y-148751375D01*
X241784008Y-148721190D01*
X241648735Y-148731327D01*
X241522459Y-148780887D01*
X241496000Y-148801987D01*
X241496000Y-148072813D01*
X241378401Y-148101342D01*
X241181929Y-148191069D01*
X241005977Y-148316364D01*
X241005975Y-148316365D01*
X240856930Y-148472680D01*
X240740155Y-148654385D01*
X240659876Y-148854912D01*
X240619000Y-149067002D01*
X240619000Y-149821000D01*
X241300000Y-149821000D01*
X241300000Y-150329000D01*
X240619000Y-150329000D01*
X240619000Y-151028874D01*
X237236000Y-151028874D01*
X237236000Y-147158000D01*
X244064240Y-147158000D01*
X244083585Y-147317323D01*
X244083586Y-147317328D01*
X244122407Y-147419689D01*
X244140498Y-147467391D01*
X244176873Y-147520090D01*
X244223771Y-147588034D01*
X244231670Y-147599477D01*
X244351803Y-147705905D01*
X244493914Y-147780491D01*
X244493916Y-147780491D01*
X244493917Y-147780492D01*
X244649746Y-147818900D01*
X244810242Y-147818900D01*
X244966070Y-147780492D01*
X244966070Y-147780491D01*
X244966074Y-147780491D01*
X245108185Y-147705905D01*
X245155518Y-147663972D01*
X245218751Y-147634250D01*
X245288014Y-147643434D01*
X245319971Y-147663971D01*
X245367303Y-147705903D01*
X245367304Y-147705903D01*
X245367306Y-147705905D01*
X245509417Y-147780491D01*
X245509419Y-147780491D01*
X245509420Y-147780492D01*
X245665249Y-147818900D01*
X245825745Y-147818900D01*
X245981573Y-147780492D01*
X245981573Y-147780491D01*
X245981577Y-147780491D01*
X246123688Y-147705905D01*
X246171021Y-147663972D01*
X246234254Y-147634250D01*
X246303517Y-147643434D01*
X246335474Y-147663971D01*
X246382806Y-147705903D01*
X246382807Y-147705903D01*
X246382809Y-147705905D01*
X246524920Y-147780491D01*
X246524922Y-147780491D01*
X246524923Y-147780492D01*
X246680752Y-147818900D01*
X246841248Y-147818900D01*
X246997076Y-147780492D01*
X246997076Y-147780491D01*
X246997080Y-147780491D01*
X247139191Y-147705905D01*
X247220147Y-147634183D01*
X247283378Y-147604463D01*
X247302373Y-147603000D01*
X248256532Y-147603000D01*
X248263471Y-147603389D01*
X248294869Y-147606927D01*
X248301826Y-147607711D01*
X248301826Y-147607710D01*
X248301827Y-147607711D01*
X248359543Y-147596790D01*
X248417642Y-147588034D01*
X248417643Y-147588033D01*
X248417647Y-147588033D01*
X248417650Y-147588031D01*
X248425685Y-147585552D01*
X248433630Y-147582772D01*
X248433634Y-147582772D01*
X248485573Y-147555321D01*
X248538509Y-147529829D01*
X248538513Y-147529825D01*
X248545474Y-147525079D01*
X248552231Y-147520091D01*
X248552235Y-147520090D01*
X248593783Y-147478541D01*
X248636844Y-147438587D01*
X248636845Y-147438584D01*
X248642637Y-147431322D01*
X248643303Y-147431853D01*
X248652630Y-147419693D01*
X256199546Y-139872777D01*
X256204718Y-139868157D01*
X256234892Y-139844095D01*
X256267976Y-139795568D01*
X256302875Y-139748284D01*
X256302876Y-139748278D01*
X256302878Y-139748277D01*
X256306788Y-139740880D01*
X256310459Y-139733258D01*
X256327776Y-139677117D01*
X256347180Y-139621665D01*
X256347180Y-139621659D01*
X256348747Y-139613380D01*
X256349998Y-139605076D01*
X256350000Y-139605073D01*
X256350000Y-139546301D01*
X256352196Y-139487614D01*
X256352195Y-139487613D01*
X256351156Y-139478383D01*
X256351999Y-139478287D01*
X256350000Y-139463094D01*
X256350000Y-137661466D01*
X256350389Y-137654529D01*
X256354711Y-137616173D01*
X256343790Y-137558456D01*
X256335033Y-137500353D01*
X256335033Y-137500352D01*
X256332560Y-137492336D01*
X256329772Y-137484369D01*
X256329772Y-137484366D01*
X256302321Y-137432426D01*
X256276829Y-137379491D01*
X256272095Y-137372547D01*
X256267091Y-137365767D01*
X256267090Y-137365765D01*
X256267088Y-137365763D01*
X256225541Y-137324215D01*
X256205564Y-137302686D01*
X256185587Y-137281156D01*
X256185582Y-137281153D01*
X256178319Y-137275360D01*
X256178847Y-137274696D01*
X256166692Y-137265367D01*
X255363112Y-136461787D01*
X255329627Y-136400464D01*
X255334611Y-136330772D01*
X255376483Y-136274839D01*
X255441947Y-136250422D01*
X255510220Y-136265274D01*
X255521235Y-136272057D01*
X255526807Y-136275903D01*
X255526809Y-136275905D01*
X255668920Y-136350491D01*
X255668922Y-136350491D01*
X255668923Y-136350492D01*
X255824752Y-136388900D01*
X255985248Y-136388900D01*
X256141076Y-136350492D01*
X256141076Y-136350491D01*
X256141080Y-136350491D01*
X256283191Y-136275905D01*
X256403324Y-136169477D01*
X256494496Y-136037391D01*
X256551408Y-135887325D01*
X256570754Y-135728000D01*
X256551408Y-135568675D01*
X256551407Y-135568673D01*
X256551407Y-135568671D01*
X256523999Y-135496402D01*
X256494496Y-135418609D01*
X256403324Y-135286523D01*
X256283191Y-135180095D01*
X256141080Y-135105509D01*
X256141079Y-135105508D01*
X256141076Y-135105507D01*
X255989587Y-135068169D01*
X255931581Y-135035453D01*
X255296646Y-134400518D01*
X255280012Y-134379877D01*
X255277250Y-134375579D01*
X255277248Y-134375577D01*
X255277247Y-134375575D01*
X255237396Y-134341045D01*
X255234166Y-134338038D01*
X255222848Y-134326720D01*
X255222845Y-134326718D01*
X255222843Y-134326715D01*
X255210037Y-134317129D01*
X255206590Y-134314352D01*
X255166747Y-134279827D01*
X255166740Y-134279822D01*
X255163398Y-134278296D01*
X255162094Y-134277700D01*
X255139297Y-134264175D01*
X255135204Y-134261111D01*
X255085787Y-134242678D01*
X255081701Y-134240986D01*
X255073267Y-134237134D01*
X255033734Y-134219081D01*
X255033731Y-134219080D01*
X255033730Y-134219080D01*
X255028674Y-134218353D01*
X255002998Y-134211799D01*
X254998210Y-134210013D01*
X254998202Y-134210011D01*
X254998201Y-134210011D01*
X254991754Y-134209549D01*
X254945588Y-134206247D01*
X254941191Y-134205774D01*
X254925369Y-134203500D01*
X254925368Y-134203500D01*
X254909376Y-134203500D01*
X254904953Y-134203342D01*
X254896358Y-134202727D01*
X254852355Y-134199580D01*
X254852347Y-134199580D01*
X254847358Y-134200666D01*
X254821001Y-134203500D01*
X253686999Y-134203500D01*
X253660642Y-134200666D01*
X253655652Y-134199580D01*
X253655644Y-134199580D01*
X253610154Y-134202833D01*
X253603046Y-134203342D01*
X253598624Y-134203500D01*
X253582632Y-134203500D01*
X253582626Y-134203500D01*
X253582624Y-134203501D01*
X253566795Y-134205776D01*
X253562400Y-134206248D01*
X253509795Y-134210011D01*
X253509794Y-134210011D01*
X253504996Y-134211801D01*
X253479326Y-134218353D01*
X253474269Y-134219080D01*
X253474267Y-134219080D01*
X253474266Y-134219081D01*
X253435246Y-134236899D01*
X253426307Y-134240982D01*
X253422219Y-134242676D01*
X253372794Y-134261111D01*
X253372792Y-134261112D01*
X253368699Y-134264177D01*
X253345915Y-134277696D01*
X253341258Y-134279823D01*
X253301399Y-134314359D01*
X253297956Y-134317134D01*
X253285146Y-134326724D01*
X253273831Y-134338038D01*
X253270596Y-134341050D01*
X253230752Y-134375577D01*
X253230745Y-134375584D01*
X253227984Y-134379881D01*
X253211355Y-134400515D01*
X244418509Y-143193361D01*
X244397875Y-143209990D01*
X244393578Y-143212751D01*
X244393571Y-143212758D01*
X244359044Y-143252602D01*
X244356032Y-143255837D01*
X244344718Y-143267152D01*
X244335128Y-143279962D01*
X244332353Y-143283405D01*
X244297817Y-143323264D01*
X244295690Y-143327921D01*
X244282171Y-143350705D01*
X244279106Y-143354798D01*
X244279105Y-143354800D01*
X244260670Y-143404225D01*
X244258976Y-143408313D01*
X244237074Y-143456275D01*
X244236347Y-143461332D01*
X244229795Y-143487002D01*
X244228005Y-143491800D01*
X244228005Y-143491801D01*
X244224242Y-143544406D01*
X244223770Y-143548801D01*
X244221495Y-143564630D01*
X244221494Y-143564644D01*
X244221494Y-143580630D01*
X244221336Y-143585054D01*
X244217574Y-143637651D01*
X244217574Y-143637655D01*
X244218660Y-143642646D01*
X244221494Y-143669005D01*
X244221494Y-146692625D01*
X244201809Y-146759664D01*
X244199544Y-146763065D01*
X244140499Y-146848607D01*
X244140498Y-146848608D01*
X244083586Y-146998671D01*
X244083585Y-146998676D01*
X244064240Y-147158000D01*
X237236000Y-147158000D01*
X237236000Y-130314212D01*
X237238383Y-130290021D01*
X237250523Y-130228989D01*
X237269037Y-130184291D01*
X237296693Y-130142900D01*
X237330900Y-130108693D01*
X237372292Y-130081036D01*
X237416989Y-130062523D01*
X237478021Y-130050383D01*
X237502212Y-130048000D01*
X260337788Y-130048000D01*
X260361980Y-130050383D01*
G37*
%TD.AperFunction*%
%TD*%
%TA.AperFunction,Conductor*%
%TO.N,/Power Supply/+18V*%
G36*
X292620183Y-81280519D02*
G01*
X292730323Y-81294868D01*
X292761290Y-81303076D01*
X292852853Y-81340567D01*
X292880686Y-81356435D01*
X292959590Y-81416136D01*
X292982426Y-81438605D01*
X293043399Y-81516525D01*
X293059718Y-81544094D01*
X293098694Y-81635036D01*
X293107404Y-81665868D01*
X293123540Y-81775754D01*
X293124190Y-81783761D01*
X293361538Y-96380631D01*
X293361129Y-96388824D01*
X293348007Y-96501438D01*
X293339972Y-96533136D01*
X293302469Y-96626897D01*
X293286424Y-96655397D01*
X293225706Y-96736098D01*
X293202771Y-96759409D01*
X293123072Y-96821427D01*
X293094838Y-96837932D01*
X293001696Y-96876957D01*
X292970130Y-96885507D01*
X292903193Y-96894412D01*
X292857745Y-96900458D01*
X292849564Y-96901000D01*
X237119036Y-96901000D01*
X237110879Y-96900461D01*
X236998819Y-96885598D01*
X236967337Y-96877097D01*
X236874412Y-96838289D01*
X236846235Y-96821875D01*
X236766648Y-96760190D01*
X236743725Y-96736999D01*
X236682967Y-96656695D01*
X236666883Y-96628331D01*
X236666304Y-96626897D01*
X236629160Y-96534966D01*
X236621027Y-96503392D01*
X236607468Y-96391162D01*
X236607024Y-96382995D01*
X236640873Y-93472003D01*
X246984115Y-93472003D01*
X247003992Y-93648425D01*
X247003993Y-93648431D01*
X247062634Y-93816019D01*
X247062635Y-93816020D01*
X247157098Y-93966356D01*
X247282644Y-94091902D01*
X247432980Y-94186365D01*
X247600566Y-94245006D01*
X247600572Y-94245006D01*
X247600574Y-94245007D01*
X247776996Y-94264885D01*
X247777000Y-94264885D01*
X247777004Y-94264885D01*
X247953425Y-94245007D01*
X247953427Y-94245007D01*
X247953427Y-94245006D01*
X247953434Y-94245006D01*
X248121020Y-94186365D01*
X248155528Y-94164681D01*
X248222764Y-94145681D01*
X248287471Y-94164681D01*
X248321980Y-94186365D01*
X248489566Y-94245006D01*
X248489572Y-94245006D01*
X248489573Y-94245007D01*
X248665996Y-94264885D01*
X248666000Y-94264885D01*
X248666004Y-94264885D01*
X248842425Y-94245007D01*
X248842424Y-94245007D01*
X248842434Y-94245006D01*
X249010020Y-94186365D01*
X249160356Y-94091902D01*
X249285902Y-93966356D01*
X249380365Y-93816020D01*
X249439006Y-93648434D01*
X249458885Y-93472000D01*
X249439006Y-93295566D01*
X249380365Y-93127980D01*
X249285902Y-92977644D01*
X249160356Y-92852098D01*
X249160355Y-92852097D01*
X249010019Y-92757634D01*
X248842431Y-92698993D01*
X248842425Y-92698992D01*
X248666004Y-92679115D01*
X248665996Y-92679115D01*
X248489574Y-92698992D01*
X248489568Y-92698993D01*
X248321977Y-92757635D01*
X248287471Y-92779317D01*
X248220234Y-92798317D01*
X248155529Y-92779317D01*
X248121022Y-92757635D01*
X247953431Y-92698993D01*
X247953425Y-92698992D01*
X247777004Y-92679115D01*
X247776996Y-92679115D01*
X247600574Y-92698992D01*
X247600568Y-92698993D01*
X247432980Y-92757634D01*
X247282644Y-92852097D01*
X247157097Y-92977644D01*
X247062634Y-93127980D01*
X247003993Y-93295568D01*
X247003992Y-93295574D01*
X246984115Y-93471996D01*
X246984115Y-93472003D01*
X236640873Y-93472003D01*
X236699771Y-88406784D01*
X237324507Y-88406784D01*
X237343293Y-88621513D01*
X237343295Y-88621523D01*
X237399080Y-88829720D01*
X237399084Y-88829729D01*
X237462771Y-88966308D01*
X237462772Y-88966308D01*
X237966418Y-88462662D01*
X237979576Y-88562606D01*
X238039722Y-88707809D01*
X238135399Y-88832498D01*
X238260088Y-88928175D01*
X238405291Y-88988321D01*
X238505233Y-89001478D01*
X238001588Y-89505123D01*
X238138171Y-89568815D01*
X238346373Y-89624601D01*
X238346383Y-89624603D01*
X238561112Y-89643390D01*
X238561114Y-89643390D01*
X238775842Y-89624603D01*
X238775852Y-89624601D01*
X238984054Y-89568815D01*
X239120636Y-89505123D01*
X238616993Y-89001478D01*
X238716935Y-88988321D01*
X238862138Y-88928175D01*
X238986827Y-88832498D01*
X239082504Y-88707810D01*
X239142650Y-88562606D01*
X239155807Y-88462664D01*
X239659452Y-88966307D01*
X239723144Y-88829725D01*
X239778930Y-88621523D01*
X239778932Y-88621513D01*
X239797719Y-88406784D01*
X242324507Y-88406784D01*
X242343293Y-88621513D01*
X242343295Y-88621523D01*
X242399080Y-88829720D01*
X242399084Y-88829729D01*
X242462771Y-88966308D01*
X242462772Y-88966308D01*
X242966418Y-88462662D01*
X242979576Y-88562606D01*
X243039722Y-88707809D01*
X243135399Y-88832498D01*
X243260088Y-88928175D01*
X243405291Y-88988321D01*
X243505233Y-89001478D01*
X243001588Y-89505123D01*
X243138171Y-89568815D01*
X243346373Y-89624601D01*
X243346383Y-89624603D01*
X243561112Y-89643390D01*
X243561114Y-89643390D01*
X243775842Y-89624603D01*
X243775852Y-89624601D01*
X243984054Y-89568815D01*
X244120636Y-89505123D01*
X243616993Y-89001478D01*
X243716935Y-88988321D01*
X243862138Y-88928175D01*
X243986827Y-88832498D01*
X244082504Y-88707810D01*
X244142650Y-88562606D01*
X244155807Y-88462664D01*
X244659452Y-88966307D01*
X244723144Y-88829725D01*
X244778930Y-88621523D01*
X244778932Y-88621513D01*
X244797719Y-88406784D01*
X244797719Y-88406783D01*
X244778932Y-88192054D01*
X244778930Y-88192044D01*
X244723144Y-87983842D01*
X244659452Y-87847259D01*
X244155807Y-88350903D01*
X244142650Y-88250962D01*
X244082504Y-88105759D01*
X243986827Y-87981070D01*
X243862138Y-87885393D01*
X243716935Y-87825247D01*
X243616992Y-87812089D01*
X244120637Y-87308443D01*
X244120637Y-87308442D01*
X243984058Y-87244755D01*
X243984049Y-87244751D01*
X243775852Y-87188966D01*
X243775842Y-87188964D01*
X243561114Y-87170178D01*
X243561112Y-87170178D01*
X243346383Y-87188964D01*
X243346373Y-87188966D01*
X243138176Y-87244751D01*
X243138167Y-87244755D01*
X243001588Y-87308443D01*
X243505234Y-87812089D01*
X243405291Y-87825247D01*
X243260088Y-87885393D01*
X243135399Y-87981070D01*
X243039722Y-88105758D01*
X242979576Y-88250962D01*
X242966418Y-88350905D01*
X242462772Y-87847259D01*
X242399084Y-87983838D01*
X242399080Y-87983847D01*
X242343295Y-88192044D01*
X242343293Y-88192054D01*
X242324507Y-88406783D01*
X242324507Y-88406784D01*
X239797719Y-88406784D01*
X239797719Y-88406783D01*
X239778932Y-88192054D01*
X239778930Y-88192044D01*
X239723144Y-87983842D01*
X239659452Y-87847259D01*
X239155807Y-88350903D01*
X239142650Y-88250962D01*
X239082504Y-88105759D01*
X238986827Y-87981070D01*
X238862138Y-87885393D01*
X238716935Y-87825247D01*
X238616992Y-87812089D01*
X239120637Y-87308443D01*
X239120637Y-87308442D01*
X238984058Y-87244755D01*
X238984049Y-87244751D01*
X238775852Y-87188966D01*
X238775842Y-87188964D01*
X238561114Y-87170178D01*
X238561112Y-87170178D01*
X238346383Y-87188964D01*
X238346373Y-87188966D01*
X238138176Y-87244751D01*
X238138167Y-87244755D01*
X238001588Y-87308443D01*
X238505234Y-87812089D01*
X238405291Y-87825247D01*
X238260088Y-87885393D01*
X238135399Y-87981070D01*
X238039722Y-88105758D01*
X237979576Y-88250962D01*
X237966418Y-88350905D01*
X237462772Y-87847259D01*
X237399084Y-87983838D01*
X237399080Y-87983847D01*
X237343295Y-88192044D01*
X237343293Y-88192054D01*
X237324507Y-88406783D01*
X237324507Y-88406784D01*
X236699771Y-88406784D01*
X236712542Y-87308442D01*
X236722115Y-86485127D01*
X236722732Y-86477094D01*
X236735132Y-86390082D01*
X236738448Y-86366808D01*
X236747065Y-86335857D01*
X236749870Y-86329247D01*
X236785839Y-86244509D01*
X236802113Y-86216816D01*
X236863067Y-86138486D01*
X236885905Y-86115912D01*
X236964938Y-86055873D01*
X236992819Y-86039922D01*
X237080589Y-86003865D01*
X237084611Y-86002212D01*
X237115660Y-85993957D01*
X237197187Y-85983304D01*
X237226126Y-85979523D01*
X237234167Y-85979000D01*
X251941249Y-85979000D01*
X251949573Y-85979561D01*
X252029988Y-85990443D01*
X252063835Y-85995024D01*
X252095895Y-86003864D01*
X252190348Y-86044195D01*
X252218901Y-86061237D01*
X252287535Y-86115903D01*
X252299235Y-86125222D01*
X252322233Y-86149241D01*
X252382673Y-86232283D01*
X252398459Y-86261553D01*
X252434648Y-86357663D01*
X252442088Y-86390082D01*
X252452574Y-86504917D01*
X252452771Y-86513231D01*
X252349000Y-88900000D01*
X252882842Y-88896704D01*
X252882845Y-88896705D01*
X257184415Y-88870151D01*
X257226124Y-88877106D01*
X257378338Y-88930368D01*
X257378344Y-88930368D01*
X257378345Y-88930369D01*
X257554768Y-88950247D01*
X257554772Y-88950247D01*
X257554776Y-88950247D01*
X257731197Y-88930369D01*
X257731199Y-88930369D01*
X257731199Y-88930368D01*
X257731206Y-88930368D01*
X257896693Y-88872461D01*
X257936872Y-88865507D01*
X258636800Y-88861186D01*
X258703958Y-88880457D01*
X258725245Y-88897503D01*
X258839644Y-89011902D01*
X258989980Y-89106365D01*
X259157566Y-89165006D01*
X259157572Y-89165006D01*
X259157574Y-89165007D01*
X259333996Y-89184885D01*
X259334000Y-89184885D01*
X259334004Y-89184885D01*
X259510425Y-89165007D01*
X259510424Y-89165007D01*
X259510434Y-89165006D01*
X259678020Y-89106365D01*
X259828356Y-89011902D01*
X259951407Y-88888851D01*
X260012730Y-88855366D01*
X260038313Y-88852535D01*
X263562877Y-88830778D01*
X263630035Y-88850049D01*
X263661649Y-88881784D01*
X263662751Y-88880906D01*
X263667096Y-88886354D01*
X263667097Y-88886355D01*
X263667098Y-88886356D01*
X263792644Y-89011902D01*
X263942980Y-89106365D01*
X264110566Y-89165006D01*
X264110572Y-89165006D01*
X264110574Y-89165007D01*
X264286996Y-89184885D01*
X264287000Y-89184885D01*
X264287004Y-89184885D01*
X264463425Y-89165007D01*
X264463424Y-89165007D01*
X264463434Y-89165006D01*
X264631020Y-89106365D01*
X264781356Y-89011902D01*
X264906902Y-88886356D01*
X264910994Y-88879842D01*
X264963327Y-88833550D01*
X265015224Y-88821813D01*
X265256147Y-88820326D01*
X272923000Y-88773000D01*
X273225193Y-88393651D01*
X278727000Y-88393651D01*
X278727000Y-88848803D01*
X278737790Y-88922867D01*
X278793637Y-89037104D01*
X278883546Y-89127013D01*
X278997783Y-89182860D01*
X279071847Y-89193651D01*
X279527000Y-89193651D01*
X279527000Y-88393651D01*
X278727000Y-88393651D01*
X273225193Y-88393651D01*
X273528702Y-88012651D01*
X279503014Y-88012651D01*
X279522835Y-88137799D01*
X279580359Y-88250696D01*
X279669955Y-88340292D01*
X279782852Y-88397816D01*
X279876519Y-88412651D01*
X279939481Y-88412651D01*
X280033148Y-88397816D01*
X280041322Y-88393651D01*
X280289000Y-88393651D01*
X280289000Y-89193651D01*
X280744153Y-89193651D01*
X280818216Y-89182860D01*
X280932453Y-89127013D01*
X281022362Y-89037104D01*
X281078209Y-88922867D01*
X281089000Y-88848803D01*
X281089000Y-88463000D01*
X287617000Y-88463000D01*
X287617000Y-88918152D01*
X287627790Y-88992216D01*
X287683637Y-89106453D01*
X287773546Y-89196362D01*
X287887783Y-89252209D01*
X287961847Y-89263000D01*
X288417000Y-89263000D01*
X288417000Y-88463000D01*
X287617000Y-88463000D01*
X281089000Y-88463000D01*
X281089000Y-88393651D01*
X280289000Y-88393651D01*
X280041322Y-88393651D01*
X280146045Y-88340292D01*
X280235641Y-88250696D01*
X280293165Y-88137799D01*
X280302002Y-88082000D01*
X288393014Y-88082000D01*
X288412835Y-88207148D01*
X288470359Y-88320045D01*
X288559955Y-88409641D01*
X288672852Y-88467165D01*
X288766519Y-88482000D01*
X288829481Y-88482000D01*
X288923148Y-88467165D01*
X288931322Y-88463000D01*
X289179000Y-88463000D01*
X289179000Y-89263000D01*
X289634153Y-89263000D01*
X289708216Y-89252209D01*
X289822453Y-89196362D01*
X289912362Y-89106453D01*
X289968209Y-88992216D01*
X289979000Y-88918152D01*
X289979000Y-88463000D01*
X289179000Y-88463000D01*
X288931322Y-88463000D01*
X289036045Y-88409641D01*
X289125641Y-88320045D01*
X289183165Y-88207148D01*
X289202986Y-88082000D01*
X289183165Y-87956852D01*
X289125641Y-87843955D01*
X289036045Y-87754359D01*
X288923148Y-87696835D01*
X288829481Y-87682000D01*
X288766519Y-87682000D01*
X288672852Y-87696835D01*
X288559955Y-87754359D01*
X288470359Y-87843955D01*
X288412835Y-87956852D01*
X288393014Y-88082000D01*
X280302002Y-88082000D01*
X280312986Y-88012651D01*
X280293165Y-87887503D01*
X280235641Y-87774606D01*
X280162035Y-87701000D01*
X287617000Y-87701000D01*
X288417000Y-87701000D01*
X288417000Y-86901000D01*
X289179000Y-86901000D01*
X289179000Y-87701000D01*
X289979000Y-87701000D01*
X289979000Y-87245847D01*
X289968209Y-87171783D01*
X289912362Y-87057546D01*
X289822453Y-86967637D01*
X289708216Y-86911790D01*
X289634153Y-86901000D01*
X289179000Y-86901000D01*
X288417000Y-86901000D01*
X287961847Y-86901000D01*
X287887783Y-86911790D01*
X287773546Y-86967637D01*
X287683637Y-87057546D01*
X287627790Y-87171783D01*
X287617000Y-87245847D01*
X287617000Y-87701000D01*
X280162035Y-87701000D01*
X280146045Y-87685010D01*
X280033148Y-87627486D01*
X279939481Y-87612651D01*
X279876519Y-87612651D01*
X279782852Y-87627486D01*
X279669955Y-87685010D01*
X279580359Y-87774606D01*
X279522835Y-87887503D01*
X279503014Y-88012651D01*
X273528702Y-88012651D01*
X273832210Y-87631651D01*
X278727000Y-87631651D01*
X279527000Y-87631651D01*
X279527000Y-86831651D01*
X280289000Y-86831651D01*
X280289000Y-87631651D01*
X281089000Y-87631651D01*
X281089000Y-87176498D01*
X281078209Y-87102434D01*
X281022362Y-86988197D01*
X280932453Y-86898288D01*
X280818216Y-86842441D01*
X280744153Y-86831651D01*
X280289000Y-86831651D01*
X279527000Y-86831651D01*
X279071847Y-86831651D01*
X278997783Y-86842441D01*
X278883546Y-86898288D01*
X278793637Y-86988197D01*
X278737790Y-87102434D01*
X278727000Y-87176498D01*
X278727000Y-87631651D01*
X273832210Y-87631651D01*
X275470704Y-85574818D01*
X275717717Y-85264738D01*
X275774884Y-85224568D01*
X275814705Y-85218000D01*
X276004200Y-85218000D01*
X276004206Y-85218000D01*
X276078361Y-85207196D01*
X276078366Y-85207193D01*
X276083826Y-85205507D01*
X276153689Y-85204519D01*
X276186411Y-85218984D01*
X276261980Y-85266468D01*
X276429566Y-85325109D01*
X276429572Y-85325109D01*
X276429574Y-85325110D01*
X276605996Y-85344988D01*
X276606000Y-85344988D01*
X276606004Y-85344988D01*
X276782425Y-85325110D01*
X276782424Y-85325110D01*
X276782434Y-85325109D01*
X276950020Y-85266468D01*
X277100356Y-85172005D01*
X277225902Y-85046459D01*
X277320365Y-84896123D01*
X277379006Y-84728537D01*
X277390661Y-84625098D01*
X277398885Y-84552106D01*
X277398885Y-84552099D01*
X277394440Y-84512651D01*
X278721438Y-84512651D01*
X278741640Y-84730680D01*
X278801563Y-84941284D01*
X278801567Y-84941293D01*
X278899159Y-85137285D01*
X278899166Y-85137297D01*
X278943752Y-85196338D01*
X279031120Y-85312033D01*
X279192937Y-85459548D01*
X279379104Y-85574818D01*
X279379105Y-85574818D01*
X279379106Y-85574819D01*
X279386739Y-85577776D01*
X279583282Y-85653917D01*
X279798518Y-85694151D01*
X279798521Y-85694151D01*
X280017479Y-85694151D01*
X280017482Y-85694151D01*
X280232718Y-85653917D01*
X280436896Y-85574818D01*
X280623063Y-85459548D01*
X280784880Y-85312033D01*
X280916835Y-85137295D01*
X281014436Y-84941287D01*
X281074359Y-84730681D01*
X281088136Y-84582000D01*
X287611438Y-84582000D01*
X287631640Y-84800029D01*
X287691563Y-85010633D01*
X287691567Y-85010642D01*
X287789159Y-85206634D01*
X287789166Y-85206646D01*
X287802700Y-85224568D01*
X287921120Y-85381382D01*
X288082937Y-85528897D01*
X288269104Y-85644167D01*
X288269105Y-85644167D01*
X288269106Y-85644168D01*
X288300854Y-85656467D01*
X288473282Y-85723266D01*
X288688518Y-85763500D01*
X288688521Y-85763500D01*
X288907479Y-85763500D01*
X288907482Y-85763500D01*
X289122718Y-85723266D01*
X289326896Y-85644167D01*
X289513063Y-85528897D01*
X289674880Y-85381382D01*
X289806835Y-85206644D01*
X289904436Y-85010636D01*
X289964359Y-84800030D01*
X289984562Y-84582000D01*
X289969782Y-84422500D01*
X289964359Y-84363970D01*
X289958007Y-84341644D01*
X289904436Y-84153364D01*
X289821588Y-83986983D01*
X289806840Y-83957365D01*
X289806833Y-83957353D01*
X289754463Y-83888004D01*
X289674880Y-83782618D01*
X289513063Y-83635103D01*
X289326896Y-83519833D01*
X289326894Y-83519832D01*
X289326893Y-83519831D01*
X289165974Y-83457491D01*
X289122718Y-83440734D01*
X288907482Y-83400500D01*
X288688518Y-83400500D01*
X288473282Y-83440734D01*
X288473279Y-83440734D01*
X288473279Y-83440735D01*
X288269106Y-83519831D01*
X288269105Y-83519832D01*
X288082941Y-83635100D01*
X288082939Y-83635101D01*
X288082937Y-83635103D01*
X287921120Y-83782618D01*
X287899729Y-83810943D01*
X287789166Y-83957353D01*
X287789159Y-83957365D01*
X287691567Y-84153357D01*
X287691563Y-84153366D01*
X287631640Y-84363970D01*
X287611438Y-84581999D01*
X287611438Y-84582000D01*
X281088136Y-84582000D01*
X281094562Y-84512651D01*
X281086208Y-84422500D01*
X281074359Y-84294621D01*
X281061254Y-84248561D01*
X281014436Y-84084015D01*
X280952550Y-83959732D01*
X280916840Y-83888016D01*
X280916833Y-83888004D01*
X280872955Y-83829900D01*
X280784880Y-83713269D01*
X280623063Y-83565754D01*
X280436896Y-83450484D01*
X280436894Y-83450483D01*
X280436893Y-83450482D01*
X280275974Y-83388142D01*
X280232718Y-83371385D01*
X280017482Y-83331151D01*
X279798518Y-83331151D01*
X279583282Y-83371385D01*
X279583279Y-83371385D01*
X279583279Y-83371386D01*
X279379106Y-83450482D01*
X279379105Y-83450483D01*
X279192941Y-83565751D01*
X279192939Y-83565752D01*
X279192937Y-83565754D01*
X279053359Y-83692996D01*
X279031121Y-83713268D01*
X278899166Y-83888004D01*
X278899159Y-83888016D01*
X278801567Y-84084008D01*
X278801563Y-84084017D01*
X278741640Y-84294621D01*
X278721438Y-84512650D01*
X278721438Y-84512651D01*
X277394440Y-84512651D01*
X277379007Y-84375677D01*
X277379007Y-84375675D01*
X277379006Y-84375673D01*
X277379006Y-84375669D01*
X277320365Y-84208083D01*
X277308073Y-84188521D01*
X277289074Y-84121286D01*
X277308074Y-84056579D01*
X277320365Y-84037020D01*
X277379006Y-83869434D01*
X277383460Y-83829900D01*
X277398885Y-83693003D01*
X277398885Y-83692996D01*
X277379007Y-83516574D01*
X277379005Y-83516563D01*
X277355883Y-83450484D01*
X277320365Y-83348980D01*
X277320364Y-83348978D01*
X277319627Y-83346872D01*
X277316065Y-83277093D01*
X277339677Y-83228660D01*
X278733681Y-81478741D01*
X278746275Y-81465154D01*
X278836790Y-81381094D01*
X278867332Y-81360255D01*
X278970146Y-81310709D01*
X279005466Y-81299807D01*
X279127620Y-81281385D01*
X279146100Y-81280000D01*
X292612168Y-81280000D01*
X292620183Y-81280519D01*
G37*
%TD.AperFunction*%
%TD*%
M02*
