<?xml version="1.0" standalone="no"?>
 <!DOCTYPE svg PUBLIC "-//W3C//DTD SVG 1.1//EN" 
 "http://www.w3.org/Graphics/SVG/1.1/DTD/svg11.dtd"> 
<svg
  xmlns:svg="http://www.w3.org/2000/svg"
  xmlns="http://www.w3.org/2000/svg"
  xmlns:xlink="http://www.w3.org/1999/xlink"
  version="1.1"
  width="431.8000mm" height="279.4000mm" viewBox="0.0000 0.0000 431.8000 279.4000">
<title>SVG Image created as mag-encoder-F_Silkscreen.svg date 2024/11/25 18:59:44 </title>
  <desc>Image generated by PCBNEW </desc>
<g style="fill:#000000; fill-opacity:1.0000;stroke:#000000; stroke-opacity:1.0000;
stroke-linecap:round; stroke-linejoin:round;"
 transform="translate(0 0) scale(1 1)">
</g>
<g style="fill:none; 
stroke:#000000; stroke-width:0.1000; stroke-opacity:1; 
stroke-linecap:round; stroke-linejoin:round;">
<path d="M226.7966 130.8100
L229.2350 130.8100
" />
<path d="M229.2350 130.8100
L228.9556 131.0386
" />
<path d="M229.2350 130.8100
L228.9556 130.5814
" />
</g>
<g style="fill:none; 
stroke:#000000; stroke-width:0.1524; stroke-opacity:1; 
stroke-linecap:round; stroke-linejoin:round;">
<g transform="rotate(-90.000000 224.9170 116.9416)">
<text x="224.9170" y="116.9416"
textLength="1.1261" font-size="1.1853" lengthAdjust="spacingAndGlyphs"
text-anchor="middle" opacity="0" stroke-opacity="0">1</text>
</g>
<g class="stroked-text"><desc>1</desc>
<path d="M224.8003 116.6876
L224.8003 117.1956
" />
<path d="M224.8003 116.9416
L223.9113 116.9416
" />
<path d="M223.9113 116.9416
L224.0383 117.0263
" />
<path d="M224.0383 117.0263
L224.1229 117.1109
" />
<path d="M224.1229 117.1109
L224.1653 117.1956
" />
</g></g>
<g style="fill:none; 
stroke:#000000; stroke-width:0.1270; stroke-opacity:1; 
stroke-linecap:round; stroke-linejoin:round;">
<g transform="rotate(-90.000000 233.4134 135.3058)">
<text x="233.4134" y="135.6233"
textLength="3.0964" font-size="0.8467" lengthAdjust="spacingAndGlyphs"
text-anchor="start" opacity="0" stroke-opacity="0">1:GND</text>
</g>
<g class="stroked-text"><desc>1:GND</desc>
<path d="M233.7005 134.7384
L233.7005 135.1013
" />
<path d="M233.7005 134.9199
L233.0655 134.9199
" />
<path d="M233.0655 134.9199
L233.1562 134.9803
" />
<path d="M233.1562 134.9803
L233.2167 135.0408
" />
<path d="M233.2167 135.0408
L233.2470 135.1013
" />
<path d="M233.6401 134.4663
L233.6703 134.4361
" />
<path d="M233.6703 134.4361
L233.7005 134.4663
" />
<path d="M233.7005 134.4663
L233.6703 134.4965
" />
<path d="M233.6703 134.4965
L233.6401 134.4663
" />
<path d="M233.6401 134.4663
L233.7005 134.4663
" />
<path d="M233.3074 134.4663
L233.3377 134.4361
" />
<path d="M233.3377 134.4361
L233.3679 134.4663
" />
<path d="M233.3679 134.4663
L233.3377 134.4965
" />
<path d="M233.3377 134.4965
L233.3074 134.4663
" />
<path d="M233.3074 134.4663
L233.3679 134.4663
" />
<path d="M233.0958 133.8313
L233.0655 133.8918
" />
<path d="M233.0655 133.8918
L233.0655 133.9825
" />
<path d="M233.0655 133.9825
L233.0958 134.0732
" />
<path d="M233.0958 134.0732
L233.1562 134.1337
" />
<path d="M233.1562 134.1337
L233.2167 134.1639
" />
<path d="M233.2167 134.1639
L233.3377 134.1942
" />
<path d="M233.3377 134.1942
L233.4284 134.1942
" />
<path d="M233.4284 134.1942
L233.5493 134.1639
" />
<path d="M233.5493 134.1639
L233.6098 134.1337
" />
<path d="M233.6098 134.1337
L233.6703 134.0732
" />
<path d="M233.6703 134.0732
L233.7005 133.9825
" />
<path d="M233.7005 133.9825
L233.7005 133.9220
" />
<path d="M233.7005 133.9220
L233.6703 133.8313
" />
<path d="M233.6703 133.8313
L233.6401 133.8011
" />
<path d="M233.6401 133.8011
L233.4284 133.8011
" />
<path d="M233.4284 133.8011
L233.4284 133.9220
" />
<path d="M233.7005 133.5289
L233.0655 133.5289
" />
<path d="M233.0655 133.5289
L233.7005 133.1661
" />
<path d="M233.7005 133.1661
L233.0655 133.1661
" />
<path d="M233.7005 132.8637
L233.0655 132.8637
" />
<path d="M233.0655 132.8637
L233.0655 132.7125
" />
<path d="M233.0655 132.7125
L233.0958 132.6218
" />
<path d="M233.0958 132.6218
L233.1562 132.5613
" />
<path d="M233.1562 132.5613
L233.2167 132.5311
" />
<path d="M233.2167 132.5311
L233.3377 132.5008
" />
<path d="M233.3377 132.5008
L233.4284 132.5008
" />
<path d="M233.4284 132.5008
L233.5493 132.5311
" />
<path d="M233.5493 132.5311
L233.6098 132.5613
" />
<path d="M233.6098 132.5613
L233.6703 132.6218
" />
<path d="M233.6703 132.6218
L233.7005 132.7125
" />
<path d="M233.7005 132.7125
L233.7005 132.8637
" />
</g><g transform="rotate(-90.000000 234.4357 135.3058)">
<text x="234.4357" y="135.6233"
textLength="2.3102" font-size="0.8467" lengthAdjust="spacingAndGlyphs"
text-anchor="start" opacity="0" stroke-opacity="0">2:5V</text>
</g>
<g class="stroked-text"><desc>2:5V</desc>
<path d="M234.1483 135.1013
L234.1181 135.0711
" />
<path d="M234.1181 135.0711
L234.0878 135.0106
" />
<path d="M234.0878 135.0106
L234.0878 134.8594
" />
<path d="M234.0878 134.8594
L234.1181 134.7989
" />
<path d="M234.1181 134.7989
L234.1483 134.7687
" />
<path d="M234.1483 134.7687
L234.2088 134.7384
" />
<path d="M234.2088 134.7384
L234.2693 134.7384
" />
<path d="M234.2693 134.7384
L234.3600 134.7687
" />
<path d="M234.3600 134.7687
L234.7228 135.1315
" />
<path d="M234.7228 135.1315
L234.7228 134.7384
" />
<path d="M234.6624 134.4663
L234.6926 134.4361
" />
<path d="M234.6926 134.4361
L234.7228 134.4663
" />
<path d="M234.7228 134.4663
L234.6926 134.4965
" />
<path d="M234.6926 134.4965
L234.6624 134.4663
" />
<path d="M234.6624 134.4663
L234.7228 134.4663
" />
<path d="M234.3297 134.4663
L234.3600 134.4361
" />
<path d="M234.3600 134.4361
L234.3902 134.4663
" />
<path d="M234.3902 134.4663
L234.3600 134.4965
" />
<path d="M234.3600 134.4965
L234.3297 134.4663
" />
<path d="M234.3297 134.4663
L234.3902 134.4663
" />
<path d="M234.0878 133.8615
L234.0878 134.1639
" />
<path d="M234.0878 134.1639
L234.3902 134.1942
" />
<path d="M234.3902 134.1942
L234.3600 134.1639
" />
<path d="M234.3600 134.1639
L234.3297 134.1034
" />
<path d="M234.3297 134.1034
L234.3297 133.9522
" />
<path d="M234.3297 133.9522
L234.3600 133.8918
" />
<path d="M234.3600 133.8918
L234.3902 133.8615
" />
<path d="M234.3902 133.8615
L234.4507 133.8313
" />
<path d="M234.4507 133.8313
L234.6019 133.8313
" />
<path d="M234.6019 133.8313
L234.6624 133.8615
" />
<path d="M234.6624 133.8615
L234.6926 133.8918
" />
<path d="M234.6926 133.8918
L234.7228 133.9522
" />
<path d="M234.7228 133.9522
L234.7228 134.1034
" />
<path d="M234.7228 134.1034
L234.6926 134.1639
" />
<path d="M234.6926 134.1639
L234.6624 134.1942
" />
<path d="M234.0878 133.6499
L234.7228 133.4382
" />
<path d="M234.7228 133.4382
L234.0878 133.2265
" />
</g><g transform="rotate(-90.000000 235.4580 135.3058)">
<text x="235.4580" y="135.6233"
textLength="1.7054" font-size="0.8467" lengthAdjust="spacingAndGlyphs"
text-anchor="start" opacity="0" stroke-opacity="0">3:A</text>
</g>
<g class="stroked-text"><desc>3:A</desc>
<path d="M235.1102 135.1315
L235.1102 134.7384
" />
<path d="M235.1102 134.7384
L235.3521 134.9501
" />
<path d="M235.3521 134.9501
L235.3521 134.8594
" />
<path d="M235.3521 134.8594
L235.3823 134.7989
" />
<path d="M235.3823 134.7989
L235.4125 134.7687
" />
<path d="M235.4125 134.7687
L235.4730 134.7384
" />
<path d="M235.4730 134.7384
L235.6242 134.7384
" />
<path d="M235.6242 134.7384
L235.6847 134.7687
" />
<path d="M235.6847 134.7687
L235.7149 134.7989
" />
<path d="M235.7149 134.7989
L235.7452 134.8594
" />
<path d="M235.7452 134.8594
L235.7452 135.0408
" />
<path d="M235.7452 135.0408
L235.7149 135.1013
" />
<path d="M235.7149 135.1013
L235.6847 135.1315
" />
<path d="M235.6847 134.4663
L235.7149 134.4361
" />
<path d="M235.7149 134.4361
L235.7452 134.4663
" />
<path d="M235.7452 134.4663
L235.7149 134.4965
" />
<path d="M235.7149 134.4965
L235.6847 134.4663
" />
<path d="M235.6847 134.4663
L235.7452 134.4663
" />
<path d="M235.3521 134.4663
L235.3823 134.4361
" />
<path d="M235.3823 134.4361
L235.4125 134.4663
" />
<path d="M235.4125 134.4663
L235.3823 134.4965
" />
<path d="M235.3823 134.4965
L235.3521 134.4663
" />
<path d="M235.3521 134.4663
L235.4125 134.4663
" />
<path d="M235.5637 134.1942
L235.5637 133.8918
" />
<path d="M235.7452 134.2546
L235.1102 134.0430
" />
<path d="M235.1102 134.0430
L235.7452 133.8313
" />
</g><g transform="rotate(-90.000000 236.4803 135.3058)">
<text x="236.4803" y="135.6233"
textLength="1.7961" font-size="0.8467" lengthAdjust="spacingAndGlyphs"
text-anchor="start" opacity="0" stroke-opacity="0">4:B</text>
</g>
<g class="stroked-text"><desc>4:B</desc>
<path d="M236.3441 134.7989
L236.7675 134.7989
" />
<path d="M236.1022 134.9501
L236.5558 135.1013
" />
<path d="M236.5558 135.1013
L236.5558 134.7082
" />
<path d="M236.7070 134.4663
L236.7372 134.4361
" />
<path d="M236.7372 134.4361
L236.7675 134.4663
" />
<path d="M236.7675 134.4663
L236.7372 134.4965
" />
<path d="M236.7372 134.4965
L236.7070 134.4663
" />
<path d="M236.7070 134.4663
L236.7675 134.4663
" />
<path d="M236.3744 134.4663
L236.4046 134.4361
" />
<path d="M236.4046 134.4361
L236.4349 134.4663
" />
<path d="M236.4349 134.4663
L236.4046 134.4965
" />
<path d="M236.4046 134.4965
L236.3744 134.4663
" />
<path d="M236.3744 134.4663
L236.4349 134.4663
" />
<path d="M236.4349 133.9522
L236.4651 133.8615
" />
<path d="M236.4651 133.8615
L236.4953 133.8313
" />
<path d="M236.4953 133.8313
L236.5558 133.8011
" />
<path d="M236.5558 133.8011
L236.6465 133.8011
" />
<path d="M236.6465 133.8011
L236.7070 133.8313
" />
<path d="M236.7070 133.8313
L236.7372 133.8615
" />
<path d="M236.7372 133.8615
L236.7675 133.9220
" />
<path d="M236.7675 133.9220
L236.7675 134.1639
" />
<path d="M236.7675 134.1639
L236.1325 134.1639
" />
<path d="M236.1325 134.1639
L236.1325 133.9522
" />
<path d="M236.1325 133.9522
L236.1627 133.8918
" />
<path d="M236.1627 133.8918
L236.1929 133.8615
" />
<path d="M236.1929 133.8615
L236.2534 133.8313
" />
<path d="M236.2534 133.8313
L236.3139 133.8313
" />
<path d="M236.3139 133.8313
L236.3744 133.8615
" />
<path d="M236.3744 133.8615
L236.4046 133.8918
" />
<path d="M236.4046 133.8918
L236.4349 133.9522
" />
<path d="M236.4349 133.9522
L236.4349 134.1639
" />
</g><g transform="rotate(-90.000000 237.5026 135.3058)">
<text x="237.5026" y="135.6233"
textLength="3.2476" font-size="0.8467" lengthAdjust="spacingAndGlyphs"
text-anchor="start" opacity="0" stroke-opacity="0">5:PWM</text>
</g>
<g class="stroked-text"><desc>5:PWM</desc>
<path d="M237.1548 134.7687
L237.1548 135.0711
" />
<path d="M237.1548 135.0711
L237.4572 135.1013
" />
<path d="M237.4572 135.1013
L237.4269 135.0711
" />
<path d="M237.4269 135.0711
L237.3967 135.0106
" />
<path d="M237.3967 135.0106
L237.3967 134.8594
" />
<path d="M237.3967 134.8594
L237.4269 134.7989
" />
<path d="M237.4269 134.7989
L237.4572 134.7687
" />
<path d="M237.4572 134.7687
L237.5176 134.7384
" />
<path d="M237.5176 134.7384
L237.6688 134.7384
" />
<path d="M237.6688 134.7384
L237.7293 134.7687
" />
<path d="M237.7293 134.7687
L237.7595 134.7989
" />
<path d="M237.7595 134.7989
L237.7898 134.8594
" />
<path d="M237.7898 134.8594
L237.7898 135.0106
" />
<path d="M237.7898 135.0106
L237.7595 135.0711
" />
<path d="M237.7595 135.0711
L237.7293 135.1013
" />
<path d="M237.7293 134.4663
L237.7595 134.4361
" />
<path d="M237.7595 134.4361
L237.7898 134.4663
" />
<path d="M237.7898 134.4663
L237.7595 134.4965
" />
<path d="M237.7595 134.4965
L237.7293 134.4663
" />
<path d="M237.7293 134.4663
L237.7898 134.4663
" />
<path d="M237.3967 134.4663
L237.4269 134.4361
" />
<path d="M237.4269 134.4361
L237.4572 134.4663
" />
<path d="M237.4572 134.4663
L237.4269 134.4965
" />
<path d="M237.4269 134.4965
L237.3967 134.4663
" />
<path d="M237.3967 134.4663
L237.4572 134.4663
" />
<path d="M237.7898 134.1639
L237.1548 134.1639
" />
<path d="M237.1548 134.1639
L237.1548 133.9220
" />
<path d="M237.1548 133.9220
L237.1850 133.8615
" />
<path d="M237.1850 133.8615
L237.2153 133.8313
" />
<path d="M237.2153 133.8313
L237.2757 133.8011
" />
<path d="M237.2757 133.8011
L237.3665 133.8011
" />
<path d="M237.3665 133.8011
L237.4269 133.8313
" />
<path d="M237.4269 133.8313
L237.4572 133.8615
" />
<path d="M237.4572 133.8615
L237.4874 133.9220
" />
<path d="M237.4874 133.9220
L237.4874 134.1639
" />
<path d="M237.1548 133.5894
L237.7898 133.4382
" />
<path d="M237.7898 133.4382
L237.3362 133.3172
" />
<path d="M237.3362 133.3172
L237.7898 133.1963
" />
<path d="M237.7898 133.1963
L237.1548 133.0451
" />
<path d="M237.7898 132.8032
L237.1548 132.8032
" />
<path d="M237.1548 132.8032
L237.6084 132.5915
" />
<path d="M237.6084 132.5915
L237.1548 132.3799
" />
<path d="M237.1548 132.3799
L237.7898 132.3799
" />
</g></g>
<g style="fill:none; 
stroke:#000000; stroke-width:0.1524; stroke-opacity:1; 
stroke-linecap:round; stroke-linejoin:round;">
<g transform="rotate(-90.000000 224.8916 130.2258)">
<text x="224.8916" y="130.2258"
textLength="1.1261" font-size="1.1853" lengthAdjust="spacingAndGlyphs"
text-anchor="middle" opacity="0" stroke-opacity="0">5</text>
</g>
<g class="stroked-text"><desc>5</desc>
<path d="M223.8859 130.0141
L223.8859 130.4375
" />
<path d="M223.8859 130.4375
L224.3092 130.4798
" />
<path d="M224.3092 130.4798
L224.2669 130.4375
" />
<path d="M224.2669 130.4375
L224.2245 130.3528
" />
<path d="M224.2245 130.3528
L224.2245 130.1411
" />
<path d="M224.2245 130.1411
L224.2669 130.0565
" />
<path d="M224.2669 130.0565
L224.3092 130.0141
" />
<path d="M224.3092 130.0141
L224.3939 129.9718
" />
<path d="M224.3939 129.9718
L224.6055 129.9718
" />
<path d="M224.6055 129.9718
L224.6902 130.0141
" />
<path d="M224.6902 130.0141
L224.7325 130.0565
" />
<path d="M224.7325 130.0565
L224.7749 130.1411
" />
<path d="M224.7749 130.1411
L224.7749 130.3528
" />
<path d="M224.7749 130.3528
L224.7325 130.4375
" />
<path d="M224.7325 130.4375
L224.6902 130.4798
" />
</g></g>
<g style="fill:none; 
stroke:#000000; stroke-width:0.1270; stroke-opacity:1; 
stroke-linecap:round; stroke-linejoin:round;">
<g transform="rotate(-90.000000 227.7364 113.0046)">
<text x="227.7364" y="113.3221"
textLength="1.4938" font-size="0.8467" lengthAdjust="spacingAndGlyphs"
text-anchor="middle" opacity="0" stroke-opacity="0">D1</text>
</g>
<g class="stroked-text"><desc>D1</desc>
<path d="M228.0236 113.4733
L227.3886 113.4733
" />
<path d="M227.3886 113.4733
L227.3886 113.3221
" />
<path d="M227.3886 113.3221
L227.4188 113.2314
" />
<path d="M227.4188 113.2314
L227.4793 113.1709
" />
<path d="M227.4793 113.1709
L227.5397 113.1407
" />
<path d="M227.5397 113.1407
L227.6607 113.1104
" />
<path d="M227.6607 113.1104
L227.7514 113.1104
" />
<path d="M227.7514 113.1104
L227.8724 113.1407
" />
<path d="M227.8724 113.1407
L227.9328 113.1709
" />
<path d="M227.9328 113.1709
L227.9933 113.2314
" />
<path d="M227.9933 113.2314
L228.0236 113.3221
" />
<path d="M228.0236 113.3221
L228.0236 113.4733
" />
<path d="M228.0236 112.5057
L228.0236 112.8685
" />
<path d="M228.0236 112.6871
L227.3886 112.6871
" />
<path d="M227.3886 112.6871
L227.4793 112.7476
" />
<path d="M227.4793 112.7476
L227.5397 112.8081
" />
<path d="M227.5397 112.8081
L227.5700 112.8685
" />
</g><text x="228.9810" y="111.0361"
textLength="1.5845" font-size="0.8467" lengthAdjust="spacingAndGlyphs"
text-anchor="middle" opacity="0" stroke-opacity="0">ON</text>
<g class="stroked-text"><desc>ON</desc>
<path d="M228.5879 110.3708
L228.7089 110.3708
" />
<path d="M228.7089 110.3708
L228.7693 110.4010
" />
<path d="M228.7693 110.4010
L228.8298 110.4615
" />
<path d="M228.8298 110.4615
L228.8600 110.5824
" />
<path d="M228.8600 110.5824
L228.8600 110.7941
" />
<path d="M228.8600 110.7941
L228.8298 110.9150
" />
<path d="M228.8298 110.9150
L228.7693 110.9755
" />
<path d="M228.7693 110.9755
L228.7089 111.0058
" />
<path d="M228.7089 111.0058
L228.5879 111.0058
" />
<path d="M228.5879 111.0058
L228.5274 110.9755
" />
<path d="M228.5274 110.9755
L228.4670 110.9150
" />
<path d="M228.4670 110.9150
L228.4367 110.7941
" />
<path d="M228.4367 110.7941
L228.4367 110.5824
" />
<path d="M228.4367 110.5824
L228.4670 110.4615
" />
<path d="M228.4670 110.4615
L228.5274 110.4010
" />
<path d="M228.5274 110.4010
L228.5879 110.3708
" />
<path d="M229.1322 111.0058
L229.1322 110.3708
" />
<path d="M229.1322 110.3708
L229.4950 111.0058
" />
<path d="M229.4950 111.0058
L229.4950 110.3708
" />
</g><g transform="rotate(-90.000000 226.9998 131.6990)">
<text x="226.9998" y="132.0165"
textLength="1.4938" font-size="0.8467" lengthAdjust="spacingAndGlyphs"
text-anchor="middle" opacity="0" stroke-opacity="0">D2</text>
</g>
<g class="stroked-text"><desc>D2</desc>
<path d="M227.2870 132.1677
L226.6520 132.1677
" />
<path d="M226.6520 132.1677
L226.6520 132.0165
" />
<path d="M226.6520 132.0165
L226.6822 131.9258
" />
<path d="M226.6822 131.9258
L226.7427 131.8653
" />
<path d="M226.7427 131.8653
L226.8031 131.8351
" />
<path d="M226.8031 131.8351
L226.9241 131.8048
" />
<path d="M226.9241 131.8048
L227.0148 131.8048
" />
<path d="M227.0148 131.8048
L227.1358 131.8351
" />
<path d="M227.1358 131.8351
L227.1962 131.8653
" />
<path d="M227.1962 131.8653
L227.2567 131.9258
" />
<path d="M227.2567 131.9258
L227.2870 132.0165
" />
<path d="M227.2870 132.0165
L227.2870 132.1677
" />
<path d="M226.7124 131.5629
L226.6822 131.5327
" />
<path d="M226.6822 131.5327
L226.6520 131.4722
" />
<path d="M226.6520 131.4722
L226.6520 131.3210
" />
<path d="M226.6520 131.3210
L226.6822 131.2605
" />
<path d="M226.6822 131.2605
L226.7124 131.2303
" />
<path d="M226.7124 131.2303
L226.7729 131.2001
" />
<path d="M226.7729 131.2001
L226.8334 131.2001
" />
<path d="M226.8334 131.2001
L226.9241 131.2303
" />
<path d="M226.9241 131.2303
L227.2870 131.5932
" />
<path d="M227.2870 131.5932
L227.2870 131.2001
" />
</g><g transform="rotate(-90.000000 228.7185 136.2964)">
<text x="228.7185" y="136.6139"
textLength="1.4333" font-size="0.8467" lengthAdjust="spacingAndGlyphs"
text-anchor="middle" opacity="0" stroke-opacity="0">LO</text>
</g>
<g class="stroked-text"><desc>LO</desc>
<path d="M229.0057 136.4325
L229.0057 136.7349
" />
<path d="M229.0057 136.7349
L228.3707 136.7349
" />
<path d="M228.3707 136.0999
L228.3707 135.9789
" />
<path d="M228.3707 135.9789
L228.4009 135.9184
" />
<path d="M228.4009 135.9184
L228.4614 135.8579
" />
<path d="M228.4614 135.8579
L228.5824 135.8277
" />
<path d="M228.5824 135.8277
L228.7940 135.8277
" />
<path d="M228.7940 135.8277
L228.9150 135.8579
" />
<path d="M228.9150 135.8579
L228.9755 135.9184
" />
<path d="M228.9755 135.9184
L229.0057 135.9789
" />
<path d="M229.0057 135.9789
L229.0057 136.0999
" />
<path d="M229.0057 136.0999
L228.9755 136.1603
" />
<path d="M228.9755 136.1603
L228.9150 136.2208
" />
<path d="M228.9150 136.2208
L228.7940 136.2510
" />
<path d="M228.7940 136.2510
L228.5824 136.2510
" />
<path d="M228.5824 136.2510
L228.4614 136.2208
" />
<path d="M228.4614 136.2208
L228.4009 136.1603
" />
<path d="M228.4009 136.1603
L228.3707 136.0999
" />
</g><text x="232.9180" y="112.0521"
textLength="1.5240" font-size="0.8467" lengthAdjust="spacingAndGlyphs"
text-anchor="middle" opacity="0" stroke-opacity="0">U1</text>
<g class="stroked-text"><desc>U1</desc>
<path d="M232.4342 111.3868
L232.4342 111.9008
" />
<path d="M232.4342 111.9008
L232.4644 111.9613
" />
<path d="M232.4644 111.9613
L232.4947 111.9915
" />
<path d="M232.4947 111.9915
L232.5551 112.0218
" />
<path d="M232.5551 112.0218
L232.6761 112.0218
" />
<path d="M232.6761 112.0218
L232.7366 111.9915
" />
<path d="M232.7366 111.9915
L232.7668 111.9613
" />
<path d="M232.7668 111.9613
L232.7970 111.9008
" />
<path d="M232.7970 111.9008
L232.7970 111.3868
" />
<path d="M233.4320 112.0218
L233.0692 112.0218
" />
<path d="M233.2506 112.0218
L233.2506 111.3868
" />
<path d="M233.2506 111.3868
L233.1901 111.4775
" />
<path d="M233.1901 111.4775
L233.1297 111.5379
" />
<path d="M233.1297 111.5379
L233.0692 111.5682
" />
</g><text x="226.9236" y="116.5733"
textLength="1.3426" font-size="0.8467" lengthAdjust="spacingAndGlyphs"
text-anchor="middle" opacity="0" stroke-opacity="0">J2</text>
<g class="stroked-text"><desc>J2</desc>
<path d="M226.7119 115.9080
L226.7119 116.3615
" />
<path d="M226.7119 116.3615
L226.6817 116.4522
" />
<path d="M226.6817 116.4522
L226.6212 116.5127
" />
<path d="M226.6212 116.5127
L226.5305 116.5430
" />
<path d="M226.5305 116.5430
L226.4700 116.5430
" />
<path d="M226.9841 115.9684
L227.0143 115.9382
" />
<path d="M227.0143 115.9382
L227.0748 115.9080
" />
<path d="M227.0748 115.9080
L227.2260 115.9080
" />
<path d="M227.2260 115.9080
L227.2865 115.9382
" />
<path d="M227.2865 115.9382
L227.3167 115.9684
" />
<path d="M227.3167 115.9684
L227.3469 116.0289
" />
<path d="M227.3469 116.0289
L227.3469 116.0894
" />
<path d="M227.3469 116.0894
L227.3167 116.1801
" />
<path d="M227.3167 116.1801
L226.9538 116.5430
" />
<path d="M226.9538 116.5430
L227.3469 116.5430
" />
</g><g transform="rotate(-90.000000 227.9904 131.6990)">
<text x="227.9904" y="132.0165"
textLength="1.4938" font-size="0.8467" lengthAdjust="spacingAndGlyphs"
text-anchor="middle" opacity="0" stroke-opacity="0">D3</text>
</g>
<g class="stroked-text"><desc>D3</desc>
<path d="M228.2776 132.1677
L227.6426 132.1677
" />
<path d="M227.6426 132.1677
L227.6426 132.0165
" />
<path d="M227.6426 132.0165
L227.6728 131.9258
" />
<path d="M227.6728 131.9258
L227.7333 131.8653
" />
<path d="M227.7333 131.8653
L227.7937 131.8351
" />
<path d="M227.7937 131.8351
L227.9147 131.8048
" />
<path d="M227.9147 131.8048
L228.0054 131.8048
" />
<path d="M228.0054 131.8048
L228.1264 131.8351
" />
<path d="M228.1264 131.8351
L228.1868 131.8653
" />
<path d="M228.1868 131.8653
L228.2473 131.9258
" />
<path d="M228.2473 131.9258
L228.2776 132.0165
" />
<path d="M228.2776 132.0165
L228.2776 132.1677
" />
<path d="M227.6426 131.5932
L227.6426 131.2001
" />
<path d="M227.6426 131.2001
L227.8845 131.4117
" />
<path d="M227.8845 131.4117
L227.8845 131.3210
" />
<path d="M227.8845 131.3210
L227.9147 131.2605
" />
<path d="M227.9147 131.2605
L227.9449 131.2303
" />
<path d="M227.9449 131.2303
L228.0054 131.2001
" />
<path d="M228.0054 131.2001
L228.1566 131.2001
" />
<path d="M228.1566 131.2001
L228.2171 131.2303
" />
<path d="M228.2171 131.2303
L228.2473 131.2605
" />
<path d="M228.2473 131.2605
L228.2776 131.3210
" />
<path d="M228.2776 131.3210
L228.2776 131.5025
" />
<path d="M228.2776 131.5025
L228.2473 131.5629
" />
<path d="M228.2473 131.5629
L228.2171 131.5932
" />
</g><g transform="rotate(-90.000000 230.3865 136.2359)">
<text x="230.3865" y="136.5534"
textLength="1.5542" font-size="0.8467" lengthAdjust="spacingAndGlyphs"
text-anchor="middle" opacity="0" stroke-opacity="0">OK</text>
</g>
<g class="stroked-text"><desc>OK</desc>
<path d="M230.0386 136.6139
L230.0386 136.4929
" />
<path d="M230.0386 136.4929
L230.0689 136.4325
" />
<path d="M230.0689 136.4325
L230.1293 136.3720
" />
<path d="M230.1293 136.3720
L230.2503 136.3418
" />
<path d="M230.2503 136.3418
L230.4620 136.3418
" />
<path d="M230.4620 136.3418
L230.5829 136.3720
" />
<path d="M230.5829 136.3720
L230.6434 136.4325
" />
<path d="M230.6434 136.4325
L230.6736 136.4929
" />
<path d="M230.6736 136.4929
L230.6736 136.6139
" />
<path d="M230.6736 136.6139
L230.6434 136.6744
" />
<path d="M230.6434 136.6744
L230.5829 136.7349
" />
<path d="M230.5829 136.7349
L230.4620 136.7651
" />
<path d="M230.4620 136.7651
L230.2503 136.7651
" />
<path d="M230.2503 136.7651
L230.1293 136.7349
" />
<path d="M230.1293 136.7349
L230.0689 136.6744
" />
<path d="M230.0689 136.6744
L230.0386 136.6139
" />
<path d="M230.6736 136.0696
L230.0386 136.0696
" />
<path d="M230.6736 135.7068
L230.3108 135.9789
" />
<path d="M230.0386 135.7068
L230.4015 136.0696
" />
</g><text x="221.4626" y="132.2451"
textLength="1.3426" font-size="0.8467" lengthAdjust="spacingAndGlyphs"
text-anchor="middle" opacity="0" stroke-opacity="0">J1</text>
<g class="stroked-text"><desc>J1</desc>
<path d="M221.2509 131.5798
L221.2509 132.0333
" />
<path d="M221.2509 132.0333
L221.2207 132.1240
" />
<path d="M221.2207 132.1240
L221.1602 132.1845
" />
<path d="M221.1602 132.1845
L221.0695 132.2148
" />
<path d="M221.0695 132.2148
L221.0090 132.2148
" />
<path d="M221.8859 132.2148
L221.5231 132.2148
" />
<path d="M221.7045 132.2148
L221.7045 131.5798
" />
<path d="M221.7045 131.5798
L221.6440 131.6705
" />
<path d="M221.6440 131.6705
L221.5836 131.7309
" />
<path d="M221.5836 131.7309
L221.5231 131.7612
" />
</g><text x="235.8390" y="112.5347"
textLength="1.4938" font-size="0.8467" lengthAdjust="spacingAndGlyphs"
text-anchor="middle" opacity="0" stroke-opacity="0">D5</text>
<g class="stroked-text"><desc>D5</desc>
<path d="M235.3703 112.5044
L235.3703 111.8694
" />
<path d="M235.3703 111.8694
L235.5215 111.8694
" />
<path d="M235.5215 111.8694
L235.6122 111.8996
" />
<path d="M235.6122 111.8996
L235.6727 111.9601
" />
<path d="M235.6727 111.9601
L235.7029 112.0205
" />
<path d="M235.7029 112.0205
L235.7332 112.1415
" />
<path d="M235.7332 112.1415
L235.7332 112.2322
" />
<path d="M235.7332 112.2322
L235.7029 112.3532
" />
<path d="M235.7029 112.3532
L235.6727 112.4136
" />
<path d="M235.6727 112.4136
L235.6122 112.4741
" />
<path d="M235.6122 112.4741
L235.5215 112.5044
" />
<path d="M235.5215 112.5044
L235.3703 112.5044
" />
<path d="M236.3077 111.8694
L236.0053 111.8694
" />
<path d="M236.0053 111.8694
L235.9751 112.1717
" />
<path d="M235.9751 112.1717
L236.0053 112.1415
" />
<path d="M236.0053 112.1415
L236.0658 112.1113
" />
<path d="M236.0658 112.1113
L236.2170 112.1113
" />
<path d="M236.2170 112.1113
L236.2775 112.1415
" />
<path d="M236.2775 112.1415
L236.3077 112.1717
" />
<path d="M236.3077 112.1717
L236.3379 112.2322
" />
<path d="M236.3379 112.2322
L236.3379 112.3834
" />
<path d="M236.3379 112.3834
L236.3077 112.4439
" />
<path d="M236.3077 112.4439
L236.2775 112.4741
" />
<path d="M236.2775 112.4741
L236.2170 112.5044
" />
<path d="M236.2170 112.5044
L236.0658 112.5044
" />
<path d="M236.0658 112.5044
L236.0053 112.4741
" />
<path d="M236.0053 112.4741
L235.9751 112.4439
" />
</g><g transform="rotate(-90.000000 228.9810 131.6990)">
<text x="228.9810" y="132.0165"
textLength="1.4938" font-size="0.8467" lengthAdjust="spacingAndGlyphs"
text-anchor="middle" opacity="0" stroke-opacity="0">D4</text>
</g>
<g class="stroked-text"><desc>D4</desc>
<path d="M229.2682 132.1677
L228.6332 132.1677
" />
<path d="M228.6332 132.1677
L228.6332 132.0165
" />
<path d="M228.6332 132.0165
L228.6634 131.9258
" />
<path d="M228.6634 131.9258
L228.7239 131.8653
" />
<path d="M228.7239 131.8653
L228.7843 131.8351
" />
<path d="M228.7843 131.8351
L228.9053 131.8048
" />
<path d="M228.9053 131.8048
L228.9960 131.8048
" />
<path d="M228.9960 131.8048
L229.1170 131.8351
" />
<path d="M229.1170 131.8351
L229.1774 131.8653
" />
<path d="M229.1774 131.8653
L229.2379 131.9258
" />
<path d="M229.2379 131.9258
L229.2682 132.0165
" />
<path d="M229.2682 132.0165
L229.2682 132.1677
" />
<path d="M228.8448 131.2605
L229.2682 131.2605
" />
<path d="M228.6029 131.4117
L229.0565 131.5629
" />
<path d="M229.0565 131.5629
L229.0565 131.1698
" />
</g><g transform="rotate(-90.000000 232.0036 136.4022)">
<text x="232.0036" y="136.7197"
textLength="1.2216" font-size="0.8467" lengthAdjust="spacingAndGlyphs"
text-anchor="middle" opacity="0" stroke-opacity="0">HI</text>
</g>
<g class="stroked-text"><desc>HI</desc>
<path d="M232.2908 136.7349
L231.6558 136.7349
" />
<path d="M231.9581 136.7349
L231.9581 136.3720
" />
<path d="M232.2908 136.3720
L231.6558 136.3720
" />
<path d="M232.2908 136.0696
L231.6558 136.0696
" />
</g></g>
<g style="fill:none; 
stroke:#000000; stroke-width:0.1200; stroke-opacity:1; 
stroke-linecap:round; stroke-linejoin:round;">
<path d="M228.2460 111.5450
L228.2460 113.8300
" />
<path d="M229.7160 111.5450
L228.2460 111.5450
" />
<path d="M229.7160 113.8300
L229.7160 111.5450
" />
<path d="M227.9920 132.9310
L227.9920 135.2160
" />
<path d="M227.9920 135.2160
L229.4620 135.2160
" />
<path d="M229.4620 135.2160
L229.4620 132.9310
" />
<path d="M230.0372 113.0300
L230.0372 112.3800
" />
<path d="M230.0372 113.0300
L230.0372 113.6800
" />
<path d="M233.1572 113.0300
L233.1572 112.3800
" />
<path d="M233.1572 113.0300
L233.1572 113.6800
" />
<path style="fill:#000000; fill-opacity:1.0000; 
stroke:#000000; stroke-width:0.1200; stroke-opacity:1; 
stroke-linecap:round; stroke-linejoin:round;fill-rule:evenodd;"
d="M 230.0872,114.6300
229.7572,114.8700
229.7572,114.3900
Z" /> 
</g>
<g style="fill:none; 
stroke:#000000; stroke-width:0.1200; stroke-opacity:1; 
stroke-linecap:round; stroke-linejoin:round;">
<path d="M229.6430 132.9310
L229.6430 135.2160
" />
<path d="M229.6430 135.2160
L231.1130 135.2160
" />
<path d="M231.1130 135.2160
L231.1130 132.9310
" />
<path d="M220.0818 115.8910
L221.4118 115.8910
" />
<path d="M220.0818 117.2210
L220.0818 115.8910
" />
<path d="M220.0818 118.4910
L220.0818 131.2510
" />
<path d="M220.0818 118.4910
L222.7418 118.4910
" />
<path d="M220.0818 131.2510
L222.7418 131.2510
" />
<path d="M222.7418 118.4910
L222.7418 131.2510
" />
<path d="M233.4790 114.7920
L237.4890 114.7920
" />
<path d="M233.4790 112.7920
L237.4890 112.7920
" />
<path d="M233.4790 112.7920
L233.4790 114.7920
" />
<path d="M231.2940 132.9310
L231.2940 135.2160
" />
<path d="M231.2940 135.2160
L232.7640 135.2160
" />
<path d="M232.7640 135.2160
L232.7640 132.9310
" />
</g>
<g style="fill:#000000; fill-opacity:1.0000; stroke:none;">
<circle cx="224.8408" cy="114.0460" r="1.5000" /> 
</g>
<g style="fill:#000000; fill-opacity:1.0000; stroke:none;">
<circle cx="237.1778" cy="130.0510" r="1.7000" /> 
</g>
<g style="fill:#000000; fill-opacity:1.0000; stroke:none;">
<circle cx="237.1778" cy="117.0910" r="1.7000" /> 
</g>
<g style="fill:#000000; fill-opacity:1.0000; stroke:none;">
<circle cx="221.4118" cy="117.2210" r="0.5000" /> 
</g>
<g style="fill:#000000; fill-opacity:1.0000; stroke:none;">
<circle cx="221.4118" cy="119.7610" r="0.5000" /> 
</g>
<g style="fill:#000000; fill-opacity:1.0000; stroke:none;">
<circle cx="221.4118" cy="122.3010" r="0.5000" /> 
</g>
<g style="fill:#000000; fill-opacity:1.0000; stroke:none;">
<circle cx="221.4118" cy="124.8410" r="0.5000" /> 
</g>
<g style="fill:#000000; fill-opacity:1.0000; stroke:none;">
<circle cx="221.4118" cy="127.3810" r="0.5000" /> 
</g>
<g style="fill:#000000; fill-opacity:1.0000; stroke:none;">
<circle cx="221.4118" cy="129.9210" r="0.5000" /> 
</g>
<g style="fill:#000000; fill-opacity:1.0000; stroke:none;">
<circle cx="224.8408" cy="133.0960" r="1.5000" /> 
</g>
<g style="fill:#000000; fill-opacity:1.0000; stroke:none;">
<circle cx="224.8408" cy="114.0460" r="1.9050" /> 
<path style="fill:#000000; fill-opacity:1.0000; stroke:none;fill-rule:evenodd;"
d="M 229.2372,111.8050
229.3210,111.8217
229.3919,111.8691
229.4393,111.9400
229.4560,112.0237
229.4560,112.4612
229.4393,112.5450
229.3919,112.6159
229.3210,112.6633
229.2372,112.6800
228.7248,112.6800
228.6410,112.6633
228.5701,112.6159
228.5227,112.5450
228.5060,112.4612
228.5060,112.0237
228.5227,111.9400
228.5701,111.8691
228.6410,111.8217
228.7248,111.8050
Z" /> 
<path style="fill:#000000; fill-opacity:1.0000; stroke:none;fill-rule:evenodd;"
d="M 229.2372,113.3800
229.3210,113.3967
229.3919,113.4441
229.4393,113.5150
229.4560,113.5987
229.4560,114.0362
229.4393,114.1200
229.3919,114.1909
229.3210,114.2383
229.2372,114.2550
228.7248,114.2550
228.6410,114.2383
228.5701,114.1909
228.5227,114.1200
228.5060,114.0362
228.5060,113.5987
228.5227,113.5150
228.5701,113.4441
228.6410,113.3967
228.7248,113.3800
Z" /> 
<path style="fill:#000000; fill-opacity:1.0000; stroke:none;fill-rule:evenodd;"
d="M 228.4707,134.9560
228.3870,134.9393
228.3161,134.8919
228.2687,134.8210
228.2520,134.7372
228.2520,134.2997
228.2687,134.2160
228.3161,134.1451
228.3870,134.0977
228.4707,134.0810
228.9832,134.0810
229.0670,134.0977
229.1379,134.1451
229.1853,134.2160
229.2020,134.2997
229.2020,134.7372
229.1853,134.8210
229.1379,134.8919
229.0670,134.9393
228.9832,134.9560
Z" /> 
<path style="fill:#000000; fill-opacity:1.0000; stroke:none;fill-rule:evenodd;"
d="M 228.4707,133.3810
228.3870,133.3643
228.3161,133.3169
228.2687,133.2460
228.2520,133.1623
228.2520,132.7248
228.2687,132.6410
228.3161,132.5701
228.3870,132.5227
228.4707,132.5060
228.9832,132.5060
229.0670,132.5227
229.1379,132.5701
229.1853,132.6410
229.2020,132.7248
229.2020,133.1623
229.1853,133.2460
229.1379,133.3169
229.0670,133.3643
228.9832,133.3810
Z" /> 
<path style="fill:#000000; fill-opacity:1.0000; stroke:none;fill-rule:evenodd;"
d="M 230.4972,114.7050
230.4398,114.6936
230.3911,114.6611
230.3586,114.6124
230.3472,114.5550
230.3472,113.3800
230.3586,113.3226
230.3911,113.2739
230.4398,113.2414
230.4972,113.2300
230.7972,113.2300
230.8546,113.2414
230.9033,113.2739
230.9358,113.3226
230.9472,113.3800
230.9472,114.5550
230.9358,114.6124
230.9033,114.6611
230.8546,114.6936
230.7972,114.7050
Z" /> 
<path style="fill:#000000; fill-opacity:1.0000; stroke:none;fill-rule:evenodd;"
d="M 232.3972,114.7050
232.3398,114.6936
232.2911,114.6611
232.2586,114.6124
232.2472,114.5550
232.2472,113.3800
232.2586,113.3226
232.2911,113.2739
232.3398,113.2414
232.3972,113.2300
232.6972,113.2300
232.7546,113.2414
232.8033,113.2739
232.8358,113.3226
232.8472,113.3800
232.8472,114.5550
232.8358,114.6124
232.8033,114.6611
232.7546,114.6936
232.6972,114.7050
Z" /> 
<path style="fill:#000000; fill-opacity:1.0000; stroke:none;fill-rule:evenodd;"
d="M 231.4472,112.8300
231.3898,112.8186
231.3411,112.7861
231.3086,112.7374
231.2972,112.6800
231.2972,111.5050
231.3086,111.4476
231.3411,111.3989
231.3898,111.3664
231.4472,111.3550
231.7472,111.3550
231.8046,111.3664
231.8533,111.3989
231.8858,111.4476
231.8972,111.5050
231.8972,112.6800
231.8858,112.7374
231.8533,112.7861
231.8046,112.8186
231.7472,112.8300
Z" /> 
</g>
<g style="fill:#000000; fill-opacity:1.0000; stroke:none;">
<circle cx="237.1778" cy="130.0510" r="1.7000" /> 
</g>
<g style="fill:#000000; fill-opacity:1.0000; stroke:none;">
<circle cx="237.1778" cy="117.0910" r="1.7000" /> 
<path style="fill:#000000; fill-opacity:1.0000; stroke:none;fill-rule:evenodd;"
d="M 223.9441,119.3160
223.8977,119.3068
223.8583,119.2805
223.8320,119.2411
223.8228,119.1947
223.8228,117.7873
223.8320,117.7409
223.8583,117.7015
223.8977,117.6752
223.9441,117.6660
229.0315,117.6660
229.0779,117.6752
229.1173,117.7015
229.1436,117.7409
229.1528,117.7873
229.1528,119.1947
229.1436,119.2411
229.1173,119.2805
229.0779,119.3068
229.0315,119.3160
Z" /> 
<path style="fill:#000000; fill-opacity:1.0000; stroke:none;fill-rule:evenodd;"
d="M 223.9441,121.8560
223.8977,121.8468
223.8583,121.8205
223.8320,121.7811
223.8228,121.7347
223.8228,120.3273
223.8320,120.2809
223.8583,120.2415
223.8977,120.2152
223.9441,120.2060
229.0315,120.2060
229.0779,120.2152
229.1173,120.2415
229.1436,120.2809
229.1528,120.3273
229.1528,121.7347
229.1436,121.7811
229.1173,121.8205
229.0779,121.8468
229.0315,121.8560
Z" /> 
<path style="fill:#000000; fill-opacity:1.0000; stroke:none;fill-rule:evenodd;"
d="M 223.9441,124.3960
223.8977,124.3868
223.8583,124.3605
223.8320,124.3211
223.8228,124.2747
223.8228,122.8673
223.8320,122.8209
223.8583,122.7815
223.8977,122.7552
223.9441,122.7460
229.0315,122.7460
229.0779,122.7552
229.1173,122.7815
229.1436,122.8209
229.1528,122.8673
229.1528,124.2747
229.1436,124.3211
229.1173,124.3605
229.0779,124.3868
229.0315,124.3960
Z" /> 
<path style="fill:#000000; fill-opacity:1.0000; stroke:none;fill-rule:evenodd;"
d="M 223.9441,126.9360
223.8977,126.9268
223.8583,126.9005
223.8320,126.8611
223.8228,126.8147
223.8228,125.4073
223.8320,125.3609
223.8583,125.3215
223.8977,125.2952
223.9441,125.2860
229.0315,125.2860
229.0779,125.2952
229.1173,125.3215
229.1436,125.3609
229.1528,125.4073
229.1528,126.8147
229.1436,126.8611
229.1173,126.9005
229.0779,126.9268
229.0315,126.9360
Z" /> 
<path style="fill:#000000; fill-opacity:1.0000; stroke:none;fill-rule:evenodd;"
d="M 223.9441,129.4760
223.8977,129.4668
223.8583,129.4405
223.8320,129.4011
223.8228,129.3547
223.8228,127.9473
223.8320,127.9009
223.8583,127.8615
223.8977,127.8352
223.9441,127.8260
229.0315,127.8260
229.0779,127.8352
229.1173,127.8615
229.1436,127.9009
229.1528,127.9473
229.1528,129.3547
229.1436,129.4011
229.1173,129.4405
229.0779,129.4668
229.0315,129.4760
Z" /> 
<path style="fill:#000000; fill-opacity:1.0000; stroke:none;fill-rule:evenodd;"
d="M 230.1217,134.9560
230.0380,134.9393
229.9671,134.8919
229.9197,134.8210
229.9030,134.7372
229.9030,134.2997
229.9197,134.2160
229.9671,134.1451
230.0380,134.0977
230.1217,134.0810
230.6342,134.0810
230.7180,134.0977
230.7889,134.1451
230.8363,134.2160
230.8530,134.2997
230.8530,134.7372
230.8363,134.8210
230.7889,134.8919
230.7180,134.9393
230.6342,134.9560
Z" /> 
<path style="fill:#000000; fill-opacity:1.0000; stroke:none;fill-rule:evenodd;"
d="M 230.1217,133.3810
230.0380,133.3643
229.9671,133.3169
229.9197,133.2460
229.9030,133.1623
229.9030,132.7248
229.9197,132.6410
229.9671,132.5701
230.0380,132.5227
230.1217,132.5060
230.6342,132.5060
230.7180,132.5227
230.7889,132.5701
230.8363,132.6410
230.8530,132.7248
230.8530,133.1623
230.8363,133.2460
230.7889,133.3169
230.7180,133.3643
230.6342,133.3810
Z" /> 
<path style="fill:#000000; fill-opacity:1.0000; stroke:none;fill-rule:evenodd;"
d="M 220.5618,118.0710
220.5618,116.3710
222.2618,116.3710
222.2618,118.0710
Z" /> 
</g>
<g style="fill:#000000; fill-opacity:1.0000; stroke:none;">
<circle cx="221.4118" cy="119.7610" r="0.8500" /> 
<circle cx="221.4118" cy="122.3010" r="0.8500" /> 
<circle cx="221.4118" cy="124.8410" r="0.8500" /> 
<circle cx="221.4118" cy="127.3810" r="0.8500" /> 
<circle cx="221.4118" cy="129.9210" r="0.8500" /> 
<path style="fill:#000000; fill-opacity:1.0000; stroke:none;fill-rule:evenodd;"
d="M 233.7390,113.4170
233.7561,113.3309
233.8049,113.2579
233.8779,113.2091
233.9640,113.1920
234.4140,113.1920
234.5001,113.2091
234.5731,113.2579
234.6219,113.3309
234.6390,113.4170
234.6390,114.1670
234.6219,114.2531
234.5731,114.3261
234.5001,114.3749
234.4140,114.3920
233.9640,114.3920
233.8779,114.3749
233.8049,114.3261
233.7561,114.2531
233.7390,114.1670
Z" /> 
<path style="fill:#000000; fill-opacity:1.0000; stroke:none;fill-rule:evenodd;"
d="M 237.0390,113.4170
237.0561,113.3309
237.1049,113.2579
237.1779,113.2091
237.2640,113.1920
237.7140,113.1920
237.8001,113.2091
237.8731,113.2579
237.9219,113.3309
237.9390,113.4170
237.9390,114.1670
237.9219,114.2531
237.8731,114.3261
237.8001,114.3749
237.7140,114.3920
237.2640,114.3920
237.1779,114.3749
237.1049,114.3261
237.0561,114.2531
237.0390,114.1670
Z" /> 
<path style="fill:#000000; fill-opacity:1.0000; stroke:none;fill-rule:evenodd;"
d="M 231.7728,134.9560
231.6890,134.9393
231.6181,134.8919
231.5707,134.8210
231.5540,134.7372
231.5540,134.2997
231.5707,134.2160
231.6181,134.1451
231.6890,134.0977
231.7728,134.0810
232.2852,134.0810
232.3690,134.0977
232.4399,134.1451
232.4873,134.2160
232.5040,134.2997
232.5040,134.7372
232.4873,134.8210
232.4399,134.8919
232.3690,134.9393
232.2852,134.9560
Z" /> 
<path style="fill:#000000; fill-opacity:1.0000; stroke:none;fill-rule:evenodd;"
d="M 231.7728,133.3810
231.6890,133.3643
231.6181,133.3169
231.5707,133.2460
231.5540,133.1623
231.5540,132.7248
231.5707,132.6410
231.6181,132.5701
231.6890,132.5227
231.7728,132.5060
232.2852,132.5060
232.3690,132.5227
232.4399,132.5701
232.4873,132.6410
232.5040,132.7248
232.5040,133.1623
232.4873,133.2460
232.4399,133.3169
232.3690,133.3643
232.2852,133.3810
Z" /> 
<circle cx="224.8408" cy="133.0960" r="1.9050" /> 
</g>
<g style="fill:none; 
stroke:#000000; stroke-width:0.0500; stroke-opacity:1; 
stroke-linecap:round; stroke-linejoin:round;">
<path d="M239.5428 112.9416
L239.5428 134.2004
" />
<path d="M219.6386 114.9388
L219.6419 132.2132
" />
<path d="M219.6419 132.2132 A13.9291 13.9291 0.0 0 0 239.5428 134.2004" />
<path d="M239.5428 112.9416 A13.9097 13.9097 0.0 0 0 219.6386 114.9388" />
</g>
<g style="fill:#000000; fill-opacity:1.0000; stroke:none;">
<circle cx="224.8408" cy="114.0460" r="1.5000" /> 
</g>
<g style="fill:#000000; fill-opacity:1.0000; stroke:none;">
<circle cx="237.1778" cy="130.0510" r="1.7000" /> 
</g>
<g style="fill:#000000; fill-opacity:1.0000; stroke:none;">
<circle cx="237.1778" cy="117.0910" r="1.7000" /> 
</g>
<g style="fill:#000000; fill-opacity:1.0000; stroke:none;">
<circle cx="221.4118" cy="117.2210" r="0.5000" /> 
</g>
<g style="fill:#000000; fill-opacity:1.0000; stroke:none;">
<circle cx="221.4118" cy="119.7610" r="0.5000" /> 
</g>
<g style="fill:#000000; fill-opacity:1.0000; stroke:none;">
<circle cx="221.4118" cy="122.3010" r="0.5000" /> 
</g>
<g style="fill:#000000; fill-opacity:1.0000; stroke:none;">
<circle cx="221.4118" cy="124.8410" r="0.5000" /> 
</g>
<g style="fill:#000000; fill-opacity:1.0000; stroke:none;">
<circle cx="221.4118" cy="127.3810" r="0.5000" /> 
</g>
<g style="fill:#000000; fill-opacity:1.0000; stroke:none;">
<circle cx="221.4118" cy="129.9210" r="0.5000" /> 
</g>
<g style="fill:#000000; fill-opacity:1.0000; stroke:none;">
<circle cx="224.8408" cy="133.0960" r="1.5000" /> 
</g> 
</svg>
