<?xml version="1.0" standalone="no"?>
 <!DOCTYPE svg PUBLIC "-//W3C//DTD SVG 1.1//EN" 
 "http://www.w3.org/Graphics/SVG/1.1/DTD/svg11.dtd"> 
<svg
  xmlns:svg="http://www.w3.org/2000/svg"
  xmlns="http://www.w3.org/2000/svg"
  xmlns:xlink="http://www.w3.org/1999/xlink"
  version="1.1"
  width="431.8000mm" height="279.4000mm" viewBox="0.0000 0.0000 431.8000 279.4000">
<title>SVG Image created as mag-encoder-B_Silkscreen.svg date 2024/12/07 09:13:54 </title>
  <desc>Image generated by PCBNEW </desc>
<g style="fill:#000000; fill-opacity:1.0000;stroke:#000000; stroke-opacity:1.0000;
stroke-linecap:round; stroke-linejoin:round;"
 transform="translate(0 0) scale(1 1)">
</g>
<g style="fill:none; 
stroke:#000000; stroke-width:0.1270; stroke-opacity:1; 
stroke-linecap:round; stroke-linejoin:round;">
<text x="209.4484" y="122.7328"
textLength="1.7163" font-size="1.0160" lengthAdjust="spacingAndGlyphs"
text-anchor="end" opacity="0" stroke-opacity="0">CS</text>
<g class="stroked-text"><desc>CS</desc>
<path d="M208.4940 122.6251
L208.4577 122.6614
" />
<path d="M208.4577 122.6614
L208.3488 122.6977
" />
<path d="M208.3488 122.6977
L208.2763 122.6977
" />
<path d="M208.2763 122.6977
L208.1674 122.6614
" />
<path d="M208.1674 122.6614
L208.0948 122.5889
" />
<path d="M208.0948 122.5889
L208.0586 122.5163
" />
<path d="M208.0586 122.5163
L208.0223 122.3711
" />
<path d="M208.0223 122.3711
L208.0223 122.2623
" />
<path d="M208.0223 122.2623
L208.0586 122.1171
" />
<path d="M208.0586 122.1171
L208.0948 122.0446
" />
<path d="M208.0948 122.0446
L208.1674 121.9720
" />
<path d="M208.1674 121.9720
L208.2763 121.9357
" />
<path d="M208.2763 121.9357
L208.3488 121.9357
" />
<path d="M208.3488 121.9357
L208.4577 121.9720
" />
<path d="M208.4577 121.9720
L208.4940 122.0083
" />
<path d="M208.7843 122.6614
L208.8931 122.6977
" />
<path d="M208.8931 122.6977
L209.0746 122.6977
" />
<path d="M209.0746 122.6977
L209.1471 122.6614
" />
<path d="M209.1471 122.6614
L209.1834 122.6251
" />
<path d="M209.1834 122.6251
L209.2197 122.5526
" />
<path d="M209.2197 122.5526
L209.2197 122.4800
" />
<path d="M209.2197 122.4800
L209.1834 122.4074
" />
<path d="M209.1834 122.4074
L209.1471 122.3711
" />
<path d="M209.1471 122.3711
L209.0746 122.3349
" />
<path d="M209.0746 122.3349
L208.9294 122.2986
" />
<path d="M208.9294 122.2986
L208.8568 122.2623
" />
<path d="M208.8568 122.2623
L208.8206 122.2260
" />
<path d="M208.8206 122.2260
L208.7843 122.1534
" />
<path d="M208.7843 122.1534
L208.7843 122.0809
" />
<path d="M208.7843 122.0809
L208.8206 122.0083
" />
<path d="M208.8206 122.0083
L208.8568 121.9720
" />
<path d="M208.8568 121.9720
L208.9294 121.9357
" />
<path d="M208.9294 121.9357
L209.1108 121.9357
" />
<path d="M209.1108 121.9357
L209.2197 121.9720
" />
</g><text x="209.4484" y="117.9322"
textLength="2.5509" font-size="1.0160" lengthAdjust="spacingAndGlyphs"
text-anchor="end" opacity="0" stroke-opacity="0">GND</text>
<g class="stroked-text"><desc>GND</desc>
<path d="M207.6231 117.1714
L207.5506 117.1351
" />
<path d="M207.5506 117.1351
L207.4417 117.1351
" />
<path d="M207.4417 117.1351
L207.3328 117.1714
" />
<path d="M207.3328 117.1714
L207.2603 117.2440
" />
<path d="M207.2603 117.2440
L207.2240 117.3165
" />
<path d="M207.2240 117.3165
L207.1877 117.4617
" />
<path d="M207.1877 117.4617
L207.1877 117.5705
" />
<path d="M207.1877 117.5705
L207.2240 117.7157
" />
<path d="M207.2240 117.7157
L207.2603 117.7883
" />
<path d="M207.2603 117.7883
L207.3328 117.8608
" />
<path d="M207.3328 117.8608
L207.4417 117.8971
" />
<path d="M207.4417 117.8971
L207.5143 117.8971
" />
<path d="M207.5143 117.8971
L207.6231 117.8608
" />
<path d="M207.6231 117.8608
L207.6594 117.8245
" />
<path d="M207.6594 117.8245
L207.6594 117.5705
" />
<path d="M207.6594 117.5705
L207.5143 117.5705
" />
<path d="M207.9860 117.8971
L207.9860 117.1351
" />
<path d="M207.9860 117.1351
L208.4214 117.8971
" />
<path d="M208.4214 117.8971
L208.4214 117.1351
" />
<path d="M208.7843 117.8971
L208.7843 117.1351
" />
<path d="M208.7843 117.1351
L208.9657 117.1351
" />
<path d="M208.9657 117.1351
L209.0746 117.1714
" />
<path d="M209.0746 117.1714
L209.1471 117.2440
" />
<path d="M209.1471 117.2440
L209.1834 117.3165
" />
<path d="M209.1834 117.3165
L209.2197 117.4617
" />
<path d="M209.2197 117.4617
L209.2197 117.5705
" />
<path d="M209.2197 117.5705
L209.1834 117.7157
" />
<path d="M209.1834 117.7157
L209.1471 117.7883
" />
<path d="M209.1471 117.7883
L209.0746 117.8608
" />
<path d="M209.0746 117.8608
L208.9657 117.8971
" />
<path d="M208.9657 117.8971
L208.7843 117.8971
" />
</g><text x="209.4484" y="127.8128"
textLength="2.9863" font-size="1.0160" lengthAdjust="spacingAndGlyphs"
text-anchor="end" opacity="0" stroke-opacity="0">MISO</text>
<g class="stroked-text"><desc>MISO</desc>
<path d="M206.7886 127.7777
L206.7886 127.0157
" />
<path d="M206.7886 127.0157
L207.0426 127.5600
" />
<path d="M207.0426 127.5600
L207.2966 127.0157
" />
<path d="M207.2966 127.0157
L207.2966 127.7777
" />
<path d="M207.6594 127.7777
L207.6594 127.0157
" />
<path d="M207.9860 127.7414
L208.0948 127.7777
" />
<path d="M208.0948 127.7777
L208.2763 127.7777
" />
<path d="M208.2763 127.7777
L208.3488 127.7414
" />
<path d="M208.3488 127.7414
L208.3851 127.7051
" />
<path d="M208.3851 127.7051
L208.4214 127.6326
" />
<path d="M208.4214 127.6326
L208.4214 127.5600
" />
<path d="M208.4214 127.5600
L208.3851 127.4874
" />
<path d="M208.3851 127.4874
L208.3488 127.4511
" />
<path d="M208.3488 127.4511
L208.2763 127.4149
" />
<path d="M208.2763 127.4149
L208.1311 127.3786
" />
<path d="M208.1311 127.3786
L208.0586 127.3423
" />
<path d="M208.0586 127.3423
L208.0223 127.3060
" />
<path d="M208.0223 127.3060
L207.9860 127.2334
" />
<path d="M207.9860 127.2334
L207.9860 127.1609
" />
<path d="M207.9860 127.1609
L208.0223 127.0883
" />
<path d="M208.0223 127.0883
L208.0586 127.0520
" />
<path d="M208.0586 127.0520
L208.1311 127.0157
" />
<path d="M208.1311 127.0157
L208.3126 127.0157
" />
<path d="M208.3126 127.0157
L208.4214 127.0520
" />
<path d="M208.8931 127.0157
L209.0383 127.0157
" />
<path d="M209.0383 127.0157
L209.1108 127.0520
" />
<path d="M209.1108 127.0520
L209.1834 127.1246
" />
<path d="M209.1834 127.1246
L209.2197 127.2697
" />
<path d="M209.2197 127.2697
L209.2197 127.5237
" />
<path d="M209.2197 127.5237
L209.1834 127.6689
" />
<path d="M209.1834 127.6689
L209.1108 127.7414
" />
<path d="M209.1108 127.7414
L209.0383 127.7777
" />
<path d="M209.0383 127.7777
L208.8931 127.7777
" />
<path d="M208.8931 127.7777
L208.8206 127.7414
" />
<path d="M208.8206 127.7414
L208.7480 127.6689
" />
<path d="M208.7480 127.6689
L208.7117 127.5237
" />
<path d="M208.7117 127.5237
L208.7117 127.2697
" />
<path d="M208.7117 127.2697
L208.7480 127.1246
" />
<path d="M208.7480 127.1246
L208.8206 127.0520
" />
<path d="M208.8206 127.0520
L208.8931 127.0157
" />
</g><text x="209.4484" y="120.1420"
textLength="2.3332" font-size="1.0160" lengthAdjust="spacingAndGlyphs"
text-anchor="end" opacity="0" stroke-opacity="0">3V3</text>
<g class="stroked-text"><desc>3V3</desc>
<path d="M207.3691 119.3449
L207.8408 119.3449
" />
<path d="M207.8408 119.3449
L207.5868 119.6352
" />
<path d="M207.5868 119.6352
L207.6957 119.6352
" />
<path d="M207.6957 119.6352
L207.7683 119.6715
" />
<path d="M207.7683 119.6715
L207.8046 119.7078
" />
<path d="M207.8046 119.7078
L207.8408 119.7803
" />
<path d="M207.8408 119.7803
L207.8408 119.9618
" />
<path d="M207.8408 119.9618
L207.8046 120.0343
" />
<path d="M207.8046 120.0343
L207.7683 120.0706
" />
<path d="M207.7683 120.0706
L207.6957 120.1069
" />
<path d="M207.6957 120.1069
L207.4780 120.1069
" />
<path d="M207.4780 120.1069
L207.4054 120.0706
" />
<path d="M207.4054 120.0706
L207.3691 120.0343
" />
<path d="M208.0586 119.3449
L208.3126 120.1069
" />
<path d="M208.3126 120.1069
L208.5666 119.3449
" />
<path d="M208.7480 119.3449
L209.2197 119.3449
" />
<path d="M209.2197 119.3449
L208.9657 119.6352
" />
<path d="M208.9657 119.6352
L209.0746 119.6352
" />
<path d="M209.0746 119.6352
L209.1471 119.6715
" />
<path d="M209.1471 119.6715
L209.1834 119.7078
" />
<path d="M209.1834 119.7078
L209.2197 119.7803
" />
<path d="M209.2197 119.7803
L209.2197 119.9618
" />
<path d="M209.2197 119.9618
L209.1834 120.0343
" />
<path d="M209.1834 120.0343
L209.1471 120.0706
" />
<path d="M209.1471 120.0706
L209.0746 120.1069
" />
<path d="M209.0746 120.1069
L208.8568 120.1069
" />
<path d="M208.8568 120.1069
L208.7843 120.0706
" />
<path d="M208.7843 120.0706
L208.7480 120.0343
" />
</g></g>
<g style="fill:none; 
stroke:#000000; stroke-width:0.1524; stroke-opacity:1; 
stroke-linecap:round; stroke-linejoin:round;">
<g transform="rotate(90.000000 205.9178 126.4920)">
<text x="205.9178" y="127.2540"
textLength="7.9974" font-size="1.0160" lengthAdjust="spacingAndGlyphs"
text-anchor="middle" opacity="0" stroke-opacity="0">971 SPARTAN</text>
</g>
<g class="stroked-text"><desc>971 SPARTAN</desc>
<path d="M205.1274 122.8634
L205.1274 123.0086
" />
<path d="M205.1274 123.0086
L205.1637 123.0811
" />
<path d="M205.1637 123.0811
L205.2000 123.1174
" />
<path d="M205.2000 123.1174
L205.3089 123.1900
" />
<path d="M205.3089 123.1900
L205.4540 123.2263
" />
<path d="M205.4540 123.2263
L205.7443 123.2263
" />
<path d="M205.7443 123.2263
L205.8169 123.1900
" />
<path d="M205.8169 123.1900
L205.8532 123.1537
" />
<path d="M205.8532 123.1537
L205.8894 123.0811
" />
<path d="M205.8894 123.0811
L205.8894 122.9360
" />
<path d="M205.8894 122.9360
L205.8532 122.8634
" />
<path d="M205.8532 122.8634
L205.8169 122.8271
" />
<path d="M205.8169 122.8271
L205.7443 122.7909
" />
<path d="M205.7443 122.7909
L205.5629 122.7909
" />
<path d="M205.5629 122.7909
L205.4903 122.8271
" />
<path d="M205.4903 122.8271
L205.4540 122.8634
" />
<path d="M205.4540 122.8634
L205.4177 122.9360
" />
<path d="M205.4177 122.9360
L205.4177 123.0811
" />
<path d="M205.4177 123.0811
L205.4540 123.1537
" />
<path d="M205.4540 123.1537
L205.4903 123.1900
" />
<path d="M205.4903 123.1900
L205.5629 123.2263
" />
<path d="M205.8894 123.4803
L205.8894 123.9883
" />
<path d="M205.8894 123.9883
L205.1274 123.6617
" />
<path d="M205.1274 124.6777
L205.1274 124.2423
" />
<path d="M205.1274 124.4600
L205.8894 124.4600
" />
<path d="M205.8894 124.4600
L205.7806 124.3874
" />
<path d="M205.7806 124.3874
L205.7080 124.3149
" />
<path d="M205.7080 124.3149
L205.6717 124.2423
" />
<path d="M205.1637 125.5486
L205.1274 125.6574
" />
<path d="M205.1274 125.6574
L205.1274 125.8389
" />
<path d="M205.1274 125.8389
L205.1637 125.9114
" />
<path d="M205.1637 125.9114
L205.2000 125.9477
" />
<path d="M205.2000 125.9477
L205.2726 125.9840
" />
<path d="M205.2726 125.9840
L205.3452 125.9840
" />
<path d="M205.3452 125.9840
L205.4177 125.9477
" />
<path d="M205.4177 125.9477
L205.4540 125.9114
" />
<path d="M205.4540 125.9114
L205.4903 125.8389
" />
<path d="M205.4903 125.8389
L205.5266 125.6937
" />
<path d="M205.5266 125.6937
L205.5629 125.6211
" />
<path d="M205.5629 125.6211
L205.5992 125.5849
" />
<path d="M205.5992 125.5849
L205.6717 125.5486
" />
<path d="M205.6717 125.5486
L205.7443 125.5486
" />
<path d="M205.7443 125.5486
L205.8169 125.5849
" />
<path d="M205.8169 125.5849
L205.8532 125.6211
" />
<path d="M205.8532 125.6211
L205.8894 125.6937
" />
<path d="M205.8894 125.6937
L205.8894 125.8751
" />
<path d="M205.8894 125.8751
L205.8532 125.9840
" />
<path d="M205.1274 126.3106
L205.8894 126.3106
" />
<path d="M205.8894 126.3106
L205.8894 126.6009
" />
<path d="M205.8894 126.6009
L205.8532 126.6734
" />
<path d="M205.8532 126.6734
L205.8169 126.7097
" />
<path d="M205.8169 126.7097
L205.7443 126.7460
" />
<path d="M205.7443 126.7460
L205.6354 126.7460
" />
<path d="M205.6354 126.7460
L205.5629 126.7097
" />
<path d="M205.5629 126.7097
L205.5266 126.6734
" />
<path d="M205.5266 126.6734
L205.4903 126.6009
" />
<path d="M205.4903 126.6009
L205.4903 126.3106
" />
<path d="M205.3452 127.0363
L205.3452 127.3991
" />
<path d="M205.1274 126.9637
L205.8894 127.2177
" />
<path d="M205.8894 127.2177
L205.1274 127.4717
" />
<path d="M205.1274 128.1611
L205.4903 127.9071
" />
<path d="M205.1274 127.7257
L205.8894 127.7257
" />
<path d="M205.8894 127.7257
L205.8894 128.0160
" />
<path d="M205.8894 128.0160
L205.8532 128.0886
" />
<path d="M205.8532 128.0886
L205.8169 128.1249
" />
<path d="M205.8169 128.1249
L205.7443 128.1611
" />
<path d="M205.7443 128.1611
L205.6354 128.1611
" />
<path d="M205.6354 128.1611
L205.5629 128.1249
" />
<path d="M205.5629 128.1249
L205.5266 128.0886
" />
<path d="M205.5266 128.0886
L205.4903 128.0160
" />
<path d="M205.4903 128.0160
L205.4903 127.7257
" />
<path d="M205.8894 128.3789
L205.8894 128.8143
" />
<path d="M205.1274 128.5966
L205.8894 128.5966
" />
<path d="M205.3452 129.0320
L205.3452 129.3949
" />
<path d="M205.1274 128.9594
L205.8894 129.2134
" />
<path d="M205.8894 129.2134
L205.1274 129.4674
" />
<path d="M205.1274 129.7214
L205.8894 129.7214
" />
<path d="M205.8894 129.7214
L205.1274 130.1569
" />
<path d="M205.1274 130.1569
L205.8894 130.1569
" />
</g><g transform="rotate(90.000000 204.6910 126.4920)">
<text x="204.6910" y="127.2540"
textLength="9.3399" font-size="1.0160" lengthAdjust="spacingAndGlyphs"
text-anchor="middle" opacity="0" stroke-opacity="0">ROBOTICS 2024</text>
</g>
<g class="stroked-text"><desc>ROBOTICS 2024</desc>
<path d="M203.9007 122.5913
L204.2635 122.3373
" />
<path d="M203.9007 122.1559
L204.6627 122.1559
" />
<path d="M204.6627 122.1559
L204.6627 122.4461
" />
<path d="M204.6627 122.4461
L204.6264 122.5187
" />
<path d="M204.6264 122.5187
L204.5901 122.5550
" />
<path d="M204.5901 122.5550
L204.5175 122.5913
" />
<path d="M204.5175 122.5913
L204.4087 122.5913
" />
<path d="M204.4087 122.5913
L204.3361 122.5550
" />
<path d="M204.3361 122.5550
L204.2998 122.5187
" />
<path d="M204.2998 122.5187
L204.2635 122.4461
" />
<path d="M204.2635 122.4461
L204.2635 122.1559
" />
<path d="M204.6627 123.0630
L204.6627 123.2081
" />
<path d="M204.6627 123.2081
L204.6264 123.2807
" />
<path d="M204.6264 123.2807
L204.5538 123.3533
" />
<path d="M204.5538 123.3533
L204.4087 123.3896
" />
<path d="M204.4087 123.3896
L204.1547 123.3896
" />
<path d="M204.1547 123.3896
L204.0095 123.3533
" />
<path d="M204.0095 123.3533
L203.9369 123.2807
" />
<path d="M203.9369 123.2807
L203.9007 123.2081
" />
<path d="M203.9007 123.2081
L203.9007 123.0630
" />
<path d="M203.9007 123.0630
L203.9369 122.9904
" />
<path d="M203.9369 122.9904
L204.0095 122.9179
" />
<path d="M204.0095 122.9179
L204.1547 122.8816
" />
<path d="M204.1547 122.8816
L204.4087 122.8816
" />
<path d="M204.4087 122.8816
L204.5538 122.9179
" />
<path d="M204.5538 122.9179
L204.6264 122.9904
" />
<path d="M204.6264 122.9904
L204.6627 123.0630
" />
<path d="M204.2998 123.9701
L204.2635 124.0790
" />
<path d="M204.2635 124.0790
L204.2272 124.1153
" />
<path d="M204.2272 124.1153
L204.1547 124.1516
" />
<path d="M204.1547 124.1516
L204.0458 124.1516
" />
<path d="M204.0458 124.1516
L203.9732 124.1153
" />
<path d="M203.9732 124.1153
L203.9369 124.0790
" />
<path d="M203.9369 124.0790
L203.9007 124.0064
" />
<path d="M203.9007 124.0064
L203.9007 123.7161
" />
<path d="M203.9007 123.7161
L204.6627 123.7161
" />
<path d="M204.6627 123.7161
L204.6627 123.9701
" />
<path d="M204.6627 123.9701
L204.6264 124.0427
" />
<path d="M204.6264 124.0427
L204.5901 124.0790
" />
<path d="M204.5901 124.0790
L204.5175 124.1153
" />
<path d="M204.5175 124.1153
L204.4449 124.1153
" />
<path d="M204.4449 124.1153
L204.3724 124.0790
" />
<path d="M204.3724 124.0790
L204.3361 124.0427
" />
<path d="M204.3361 124.0427
L204.2998 123.9701
" />
<path d="M204.2998 123.9701
L204.2998 123.7161
" />
<path d="M204.6627 124.6233
L204.6627 124.7684
" />
<path d="M204.6627 124.7684
L204.6264 124.8410
" />
<path d="M204.6264 124.8410
L204.5538 124.9136
" />
<path d="M204.5538 124.9136
L204.4087 124.9499
" />
<path d="M204.4087 124.9499
L204.1547 124.9499
" />
<path d="M204.1547 124.9499
L204.0095 124.9136
" />
<path d="M204.0095 124.9136
L203.9369 124.8410
" />
<path d="M203.9369 124.8410
L203.9007 124.7684
" />
<path d="M203.9007 124.7684
L203.9007 124.6233
" />
<path d="M203.9007 124.6233
L203.9369 124.5507
" />
<path d="M203.9369 124.5507
L204.0095 124.4781
" />
<path d="M204.0095 124.4781
L204.1547 124.4419
" />
<path d="M204.1547 124.4419
L204.4087 124.4419
" />
<path d="M204.4087 124.4419
L204.5538 124.4781
" />
<path d="M204.5538 124.4781
L204.6264 124.5507
" />
<path d="M204.6264 124.5507
L204.6627 124.6233
" />
<path d="M204.6627 125.1676
L204.6627 125.6030
" />
<path d="M203.9007 125.3853
L204.6627 125.3853
" />
<path d="M203.9007 125.8570
L204.6627 125.8570
" />
<path d="M203.9732 126.6553
L203.9369 126.6190
" />
<path d="M203.9369 126.6190
L203.9007 126.5101
" />
<path d="M203.9007 126.5101
L203.9007 126.4376
" />
<path d="M203.9007 126.4376
L203.9369 126.3287
" />
<path d="M203.9369 126.3287
L204.0095 126.2561
" />
<path d="M204.0095 126.2561
L204.0821 126.2199
" />
<path d="M204.0821 126.2199
L204.2272 126.1836
" />
<path d="M204.2272 126.1836
L204.3361 126.1836
" />
<path d="M204.3361 126.1836
L204.4812 126.2199
" />
<path d="M204.4812 126.2199
L204.5538 126.2561
" />
<path d="M204.5538 126.2561
L204.6264 126.3287
" />
<path d="M204.6264 126.3287
L204.6627 126.4376
" />
<path d="M204.6627 126.4376
L204.6627 126.5101
" />
<path d="M204.6627 126.5101
L204.6264 126.6190
" />
<path d="M204.6264 126.6190
L204.5901 126.6553
" />
<path d="M203.9369 126.9456
L203.9007 127.0544
" />
<path d="M203.9007 127.0544
L203.9007 127.2359
" />
<path d="M203.9007 127.2359
L203.9369 127.3084
" />
<path d="M203.9369 127.3084
L203.9732 127.3447
" />
<path d="M203.9732 127.3447
L204.0458 127.3810
" />
<path d="M204.0458 127.3810
L204.1184 127.3810
" />
<path d="M204.1184 127.3810
L204.1909 127.3447
" />
<path d="M204.1909 127.3447
L204.2272 127.3084
" />
<path d="M204.2272 127.3084
L204.2635 127.2359
" />
<path d="M204.2635 127.2359
L204.2998 127.0907
" />
<path d="M204.2998 127.0907
L204.3361 127.0181
" />
<path d="M204.3361 127.0181
L204.3724 126.9819
" />
<path d="M204.3724 126.9819
L204.4449 126.9456
" />
<path d="M204.4449 126.9456
L204.5175 126.9456
" />
<path d="M204.5175 126.9456
L204.5901 126.9819
" />
<path d="M204.5901 126.9819
L204.6264 127.0181
" />
<path d="M204.6264 127.0181
L204.6627 127.0907
" />
<path d="M204.6627 127.0907
L204.6627 127.2721
" />
<path d="M204.6627 127.2721
L204.6264 127.3810
" />
<path d="M204.5901 128.2519
L204.6264 128.2881
" />
<path d="M204.6264 128.2881
L204.6627 128.3607
" />
<path d="M204.6627 128.3607
L204.6627 128.5421
" />
<path d="M204.6627 128.5421
L204.6264 128.6147
" />
<path d="M204.6264 128.6147
L204.5901 128.6510
" />
<path d="M204.5901 128.6510
L204.5175 128.6873
" />
<path d="M204.5175 128.6873
L204.4449 128.6873
" />
<path d="M204.4449 128.6873
L204.3361 128.6510
" />
<path d="M204.3361 128.6510
L203.9007 128.2156
" />
<path d="M203.9007 128.2156
L203.9007 128.6873
" />
<path d="M204.6627 129.1590
L204.6627 129.2316
" />
<path d="M204.6627 129.2316
L204.6264 129.3041
" />
<path d="M204.6264 129.3041
L204.5901 129.3404
" />
<path d="M204.5901 129.3404
L204.5175 129.3767
" />
<path d="M204.5175 129.3767
L204.3724 129.4130
" />
<path d="M204.3724 129.4130
L204.1909 129.4130
" />
<path d="M204.1909 129.4130
L204.0458 129.3767
" />
<path d="M204.0458 129.3767
L203.9732 129.3404
" />
<path d="M203.9732 129.3404
L203.9369 129.3041
" />
<path d="M203.9369 129.3041
L203.9007 129.2316
" />
<path d="M203.9007 129.2316
L203.9007 129.1590
" />
<path d="M203.9007 129.1590
L203.9369 129.0864
" />
<path d="M203.9369 129.0864
L203.9732 129.0501
" />
<path d="M203.9732 129.0501
L204.0458 129.0139
" />
<path d="M204.0458 129.0139
L204.1909 128.9776
" />
<path d="M204.1909 128.9776
L204.3724 128.9776
" />
<path d="M204.3724 128.9776
L204.5175 129.0139
" />
<path d="M204.5175 129.0139
L204.5901 129.0501
" />
<path d="M204.5901 129.0501
L204.6264 129.0864
" />
<path d="M204.6264 129.0864
L204.6627 129.1590
" />
<path d="M204.5901 129.7033
L204.6264 129.7396
" />
<path d="M204.6264 129.7396
L204.6627 129.8121
" />
<path d="M204.6627 129.8121
L204.6627 129.9936
" />
<path d="M204.6627 129.9936
L204.6264 130.0661
" />
<path d="M204.6264 130.0661
L204.5901 130.1024
" />
<path d="M204.5901 130.1024
L204.5175 130.1387
" />
<path d="M204.5175 130.1387
L204.4449 130.1387
" />
<path d="M204.4449 130.1387
L204.3361 130.1024
" />
<path d="M204.3361 130.1024
L203.9007 129.6670
" />
<path d="M203.9007 129.6670
L203.9007 130.1387
" />
<path d="M204.4087 130.7919
L203.9007 130.7919
" />
<path d="M204.6989 130.6104
L204.1547 130.4290
" />
<path d="M204.1547 130.4290
L204.1547 130.9007
" />
</g></g>
<g style="fill:none; 
stroke:#000000; stroke-width:0.1270; stroke-opacity:1; 
stroke-linecap:round; stroke-linejoin:round;">
<text x="209.4484" y="125.3236"
textLength="2.9863" font-size="1.0160" lengthAdjust="spacingAndGlyphs"
text-anchor="end" opacity="0" stroke-opacity="0">MOSI</text>
<g class="stroked-text"><desc>MOSI</desc>
<path d="M206.7886 125.2885
L206.7886 124.5265
" />
<path d="M206.7886 124.5265
L207.0426 125.0708
" />
<path d="M207.0426 125.0708
L207.2966 124.5265
" />
<path d="M207.2966 124.5265
L207.2966 125.2885
" />
<path d="M207.8046 124.5265
L207.9497 124.5265
" />
<path d="M207.9497 124.5265
L208.0223 124.5628
" />
<path d="M208.0223 124.5628
L208.0948 124.6354
" />
<path d="M208.0948 124.6354
L208.1311 124.7805
" />
<path d="M208.1311 124.7805
L208.1311 125.0345
" />
<path d="M208.1311 125.0345
L208.0948 125.1797
" />
<path d="M208.0948 125.1797
L208.0223 125.2522
" />
<path d="M208.0223 125.2522
L207.9497 125.2885
" />
<path d="M207.9497 125.2885
L207.8046 125.2885
" />
<path d="M207.8046 125.2885
L207.7320 125.2522
" />
<path d="M207.7320 125.2522
L207.6594 125.1797
" />
<path d="M207.6594 125.1797
L207.6231 125.0345
" />
<path d="M207.6231 125.0345
L207.6231 124.7805
" />
<path d="M207.6231 124.7805
L207.6594 124.6354
" />
<path d="M207.6594 124.6354
L207.7320 124.5628
" />
<path d="M207.7320 124.5628
L207.8046 124.5265
" />
<path d="M208.4214 125.2522
L208.5303 125.2885
" />
<path d="M208.5303 125.2885
L208.7117 125.2885
" />
<path d="M208.7117 125.2885
L208.7843 125.2522
" />
<path d="M208.7843 125.2522
L208.8206 125.2159
" />
<path d="M208.8206 125.2159
L208.8568 125.1434
" />
<path d="M208.8568 125.1434
L208.8568 125.0708
" />
<path d="M208.8568 125.0708
L208.8206 124.9982
" />
<path d="M208.8206 124.9982
L208.7843 124.9619
" />
<path d="M208.7843 124.9619
L208.7117 124.9257
" />
<path d="M208.7117 124.9257
L208.5666 124.8894
" />
<path d="M208.5666 124.8894
L208.4940 124.8531
" />
<path d="M208.4940 124.8531
L208.4577 124.8168
" />
<path d="M208.4577 124.8168
L208.4214 124.7442
" />
<path d="M208.4214 124.7442
L208.4214 124.6717
" />
<path d="M208.4214 124.6717
L208.4577 124.5991
" />
<path d="M208.4577 124.5991
L208.4940 124.5628
" />
<path d="M208.4940 124.5628
L208.5666 124.5265
" />
<path d="M208.5666 124.5265
L208.7480 124.5265
" />
<path d="M208.7480 124.5265
L208.8568 124.5628
" />
<path d="M209.1834 125.2885
L209.1834 124.5265
" />
</g></g>
<g style="fill:none; 
stroke:#000000; stroke-width:0.1524; stroke-opacity:1; 
stroke-linecap:round; stroke-linejoin:round;">
<g transform="rotate(90.000000 203.0564 133.7564)">
<text x="203.0564" y="134.2009"
textLength="2.9464" font-size="1.1853" lengthAdjust="spacingAndGlyphs"
text-anchor="middle" opacity="0" stroke-opacity="0">MAG</text>
</g>
<g class="stroked-text"><desc>MAG</desc>
<path d="M202.6531 132.6346
L203.5421 132.6346
" />
<path d="M203.5421 132.6346
L202.9071 132.9309
" />
<path d="M202.9071 132.9309
L203.5421 133.2272
" />
<path d="M203.5421 133.2272
L202.6531 133.2272
" />
<path d="M202.9071 133.6082
L202.9071 134.0316
" />
<path d="M202.6531 133.5236
L203.5421 133.8199
" />
<path d="M203.5421 133.8199
L202.6531 134.1162
" />
<path d="M203.4998 134.8782
L203.5421 134.7936
" />
<path d="M203.5421 134.7936
L203.5421 134.6666
" />
<path d="M203.5421 134.6666
L203.4998 134.5396
" />
<path d="M203.4998 134.5396
L203.4151 134.4549
" />
<path d="M203.4151 134.4549
L203.3304 134.4126
" />
<path d="M203.3304 134.4126
L203.1611 134.3702
" />
<path d="M203.1611 134.3702
L203.0341 134.3702
" />
<path d="M203.0341 134.3702
L202.8648 134.4126
" />
<path d="M202.8648 134.4126
L202.7801 134.4549
" />
<path d="M202.7801 134.4549
L202.6954 134.5396
" />
<path d="M202.6954 134.5396
L202.6531 134.6666
" />
<path d="M202.6531 134.6666
L202.6531 134.7512
" />
<path d="M202.6531 134.7512
L202.6954 134.8782
" />
<path d="M202.6954 134.8782
L202.7378 134.9206
" />
<path d="M202.7378 134.9206
L203.0341 134.9206
" />
<path d="M203.0341 134.9206
L203.0341 134.7512
" />
</g><g transform="rotate(90.000000 201.6252 133.7564)">
<text x="201.6252" y="134.2009"
textLength="6.4177" font-size="1.1853" lengthAdjust="spacingAndGlyphs"
text-anchor="middle" opacity="0" stroke-opacity="0">ENCODER</text>
</g>
<g class="stroked-text"><desc>ENCODER</desc>
<path d="M201.6875 130.8989
L201.6875 131.1952
" />
<path d="M201.2219 131.3222
L201.2219 130.8989
" />
<path d="M201.2219 130.8989
L202.1109 130.8989
" />
<path d="M202.1109 130.8989
L202.1109 131.3222
" />
<path d="M201.2219 131.7032
L202.1109 131.7032
" />
<path d="M202.1109 131.7032
L201.2219 132.2112
" />
<path d="M201.2219 132.2112
L202.1109 132.2112
" />
<path d="M201.3065 133.1426
L201.2642 133.1002
" />
<path d="M201.2642 133.1002
L201.2219 132.9732
" />
<path d="M201.2219 132.9732
L201.2219 132.8886
" />
<path d="M201.2219 132.8886
L201.2642 132.7616
" />
<path d="M201.2642 132.7616
L201.3489 132.6769
" />
<path d="M201.3489 132.6769
L201.4335 132.6346
" />
<path d="M201.4335 132.6346
L201.6029 132.5922
" />
<path d="M201.6029 132.5922
L201.7299 132.5922
" />
<path d="M201.7299 132.5922
L201.8992 132.6346
" />
<path d="M201.8992 132.6346
L201.9839 132.6769
" />
<path d="M201.9839 132.6769
L202.0685 132.7616
" />
<path d="M202.0685 132.7616
L202.1109 132.8886
" />
<path d="M202.1109 132.8886
L202.1109 132.9732
" />
<path d="M202.1109 132.9732
L202.0685 133.1002
" />
<path d="M202.0685 133.1002
L202.0262 133.1426
" />
<path d="M202.1109 133.6929
L202.1109 133.8622
" />
<path d="M202.1109 133.8622
L202.0685 133.9469
" />
<path d="M202.0685 133.9469
L201.9839 134.0316
" />
<path d="M201.9839 134.0316
L201.8145 134.0739
" />
<path d="M201.8145 134.0739
L201.5182 134.0739
" />
<path d="M201.5182 134.0739
L201.3489 134.0316
" />
<path d="M201.3489 134.0316
L201.2642 133.9469
" />
<path d="M201.2642 133.9469
L201.2219 133.8622
" />
<path d="M201.2219 133.8622
L201.2219 133.6929
" />
<path d="M201.2219 133.6929
L201.2642 133.6082
" />
<path d="M201.2642 133.6082
L201.3489 133.5236
" />
<path d="M201.3489 133.5236
L201.5182 133.4812
" />
<path d="M201.5182 133.4812
L201.8145 133.4812
" />
<path d="M201.8145 133.4812
L201.9839 133.5236
" />
<path d="M201.9839 133.5236
L202.0685 133.6082
" />
<path d="M202.0685 133.6082
L202.1109 133.6929
" />
<path d="M201.2219 134.4549
L202.1109 134.4549
" />
<path d="M202.1109 134.4549
L202.1109 134.6666
" />
<path d="M202.1109 134.6666
L202.0685 134.7936
" />
<path d="M202.0685 134.7936
L201.9839 134.8782
" />
<path d="M201.9839 134.8782
L201.8992 134.9206
" />
<path d="M201.8992 134.9206
L201.7299 134.9629
" />
<path d="M201.7299 134.9629
L201.6029 134.9629
" />
<path d="M201.6029 134.9629
L201.4335 134.9206
" />
<path d="M201.4335 134.9206
L201.3489 134.8782
" />
<path d="M201.3489 134.8782
L201.2642 134.7936
" />
<path d="M201.2642 134.7936
L201.2219 134.6666
" />
<path d="M201.2219 134.6666
L201.2219 134.4549
" />
<path d="M201.6875 135.3439
L201.6875 135.6402
" />
<path d="M201.2219 135.7672
L201.2219 135.3439
" />
<path d="M201.2219 135.3439
L202.1109 135.3439
" />
<path d="M202.1109 135.3439
L202.1109 135.7672
" />
<path d="M201.2219 136.6562
L201.6452 136.3599
" />
<path d="M201.2219 136.1482
L202.1109 136.1482
" />
<path d="M202.1109 136.1482
L202.1109 136.4869
" />
<path d="M202.1109 136.4869
L202.0685 136.5716
" />
<path d="M202.0685 136.5716
L202.0262 136.6139
" />
<path d="M202.0262 136.6139
L201.9415 136.6562
" />
<path d="M201.9415 136.6562
L201.8145 136.6562
" />
<path d="M201.8145 136.6562
L201.7299 136.6139
" />
<path d="M201.7299 136.6139
L201.6875 136.5716
" />
<path d="M201.6875 136.5716
L201.6452 136.4869
" />
<path d="M201.6452 136.4869
L201.6452 136.1482
" />
</g><g transform="rotate(90.000000 200.1940 133.7564)">
<text x="200.1940" y="134.2009"
textLength="1.8881" font-size="1.1853" lengthAdjust="spacingAndGlyphs"
text-anchor="middle" opacity="0" stroke-opacity="0">V4</text>
</g>
<g class="stroked-text"><desc>V4</desc>
<path d="M200.6796 133.0367
L199.7906 133.3331
" />
<path d="M199.7906 133.3331
L200.6796 133.6294
" />
<path d="M200.3833 134.3067
L199.7906 134.3067
" />
<path d="M200.7219 134.0951
L200.0869 133.8834
" />
<path d="M200.0869 133.8834
L200.0869 134.4337
" />
</g></g>
<g style="fill:none; 
stroke:#000000; stroke-width:0.1270; stroke-opacity:1; 
stroke-linecap:round; stroke-linejoin:round;">
<text x="209.4484" y="130.3274"
textLength="3.0952" font-size="1.0160" lengthAdjust="spacingAndGlyphs"
text-anchor="end" opacity="0" stroke-opacity="0">SCLK</text>
<g class="stroked-text"><desc>SCLK</desc>
<path d="M206.6434 130.2560
L206.7523 130.2923
" />
<path d="M206.7523 130.2923
L206.9337 130.2923
" />
<path d="M206.9337 130.2923
L207.0063 130.2560
" />
<path d="M207.0063 130.2560
L207.0426 130.2197
" />
<path d="M207.0426 130.2197
L207.0788 130.1472
" />
<path d="M207.0788 130.1472
L207.0788 130.0746
" />
<path d="M207.0788 130.0746
L207.0426 130.0020
" />
<path d="M207.0426 130.0020
L207.0063 129.9657
" />
<path d="M207.0063 129.9657
L206.9337 129.9295
" />
<path d="M206.9337 129.9295
L206.7886 129.8932
" />
<path d="M206.7886 129.8932
L206.7160 129.8569
" />
<path d="M206.7160 129.8569
L206.6797 129.8206
" />
<path d="M206.6797 129.8206
L206.6434 129.7480
" />
<path d="M206.6434 129.7480
L206.6434 129.6755
" />
<path d="M206.6434 129.6755
L206.6797 129.6029
" />
<path d="M206.6797 129.6029
L206.7160 129.5666
" />
<path d="M206.7160 129.5666
L206.7886 129.5303
" />
<path d="M206.7886 129.5303
L206.9700 129.5303
" />
<path d="M206.9700 129.5303
L207.0788 129.5666
" />
<path d="M207.8408 130.2197
L207.8046 130.2560
" />
<path d="M207.8046 130.2560
L207.6957 130.2923
" />
<path d="M207.6957 130.2923
L207.6231 130.2923
" />
<path d="M207.6231 130.2923
L207.5143 130.2560
" />
<path d="M207.5143 130.2560
L207.4417 130.1835
" />
<path d="M207.4417 130.1835
L207.4054 130.1109
" />
<path d="M207.4054 130.1109
L207.3691 129.9657
" />
<path d="M207.3691 129.9657
L207.3691 129.8569
" />
<path d="M207.3691 129.8569
L207.4054 129.7117
" />
<path d="M207.4054 129.7117
L207.4417 129.6392
" />
<path d="M207.4417 129.6392
L207.5143 129.5666
" />
<path d="M207.5143 129.5666
L207.6231 129.5303
" />
<path d="M207.6231 129.5303
L207.6957 129.5303
" />
<path d="M207.6957 129.5303
L207.8046 129.5666
" />
<path d="M207.8046 129.5666
L207.8408 129.6029
" />
<path d="M208.5303 130.2923
L208.1674 130.2923
" />
<path d="M208.1674 130.2923
L208.1674 129.5303
" />
<path d="M208.7843 130.2923
L208.7843 129.5303
" />
<path d="M209.2197 130.2923
L208.8931 129.8569
" />
<path d="M209.2197 129.5303
L208.7843 129.9657
" />
</g><g transform="rotate(90.000000 196.9262 121.5898)">
<text x="196.9262" y="121.9073"
textLength="1.4938" font-size="0.8467" lengthAdjust="spacingAndGlyphs"
text-anchor="middle" opacity="0" stroke-opacity="0">R3</text>
</g>
<g class="stroked-text"><desc>R3</desc>
<path d="M196.6390 121.4840
L196.9414 121.2723
" />
<path d="M196.6390 121.1211
L197.2740 121.1211
" />
<path d="M197.2740 121.1211
L197.2740 121.3630
" />
<path d="M197.2740 121.3630
L197.2438 121.4235
" />
<path d="M197.2438 121.4235
L197.2136 121.4537
" />
<path d="M197.2136 121.4537
L197.1531 121.4840
" />
<path d="M197.1531 121.4840
L197.0624 121.4840
" />
<path d="M197.0624 121.4840
L197.0019 121.4537
" />
<path d="M197.0019 121.4537
L196.9717 121.4235
" />
<path d="M196.9717 121.4235
L196.9414 121.3630
" />
<path d="M196.9414 121.3630
L196.9414 121.1211
" />
<path d="M197.2740 121.6956
L197.2740 122.0887
" />
<path d="M197.2740 122.0887
L197.0321 121.8771
" />
<path d="M197.0321 121.8771
L197.0321 121.9678
" />
<path d="M197.0321 121.9678
L197.0019 122.0283
" />
<path d="M197.0019 122.0283
L196.9717 122.0585
" />
<path d="M196.9717 122.0585
L196.9112 122.0887
" />
<path d="M196.9112 122.0887
L196.7600 122.0887
" />
<path d="M196.7600 122.0887
L196.6995 122.0585
" />
<path d="M196.6995 122.0585
L196.6693 122.0283
" />
<path d="M196.6693 122.0283
L196.6390 121.9678
" />
<path d="M196.6390 121.9678
L196.6390 121.7863
" />
<path d="M196.6390 121.7863
L196.6693 121.7259
" />
<path d="M196.6693 121.7259
L196.6995 121.6956
" />
</g><g transform="rotate(90.000000 198.8300 123.5600)">
<text x="198.8300" y="123.8775"
textLength="1.4938" font-size="0.8467" lengthAdjust="spacingAndGlyphs"
text-anchor="middle" opacity="0" stroke-opacity="0">C2</text>
</g>
<g class="stroked-text"><desc>C2</desc>
<path d="M198.6033 123.4542
L198.5731 123.4239
" />
<path d="M198.5731 123.4239
L198.5428 123.3332
" />
<path d="M198.5428 123.3332
L198.5428 123.2727
" />
<path d="M198.5428 123.2727
L198.5731 123.1820
" />
<path d="M198.5731 123.1820
L198.6336 123.1215
" />
<path d="M198.6336 123.1215
L198.6940 123.0913
" />
<path d="M198.6940 123.0913
L198.8150 123.0611
" />
<path d="M198.8150 123.0611
L198.9057 123.0611
" />
<path d="M198.9057 123.0611
L199.0267 123.0913
" />
<path d="M199.0267 123.0913
L199.0871 123.1215
" />
<path d="M199.0871 123.1215
L199.1476 123.1820
" />
<path d="M199.1476 123.1820
L199.1778 123.2727
" />
<path d="M199.1778 123.2727
L199.1778 123.3332
" />
<path d="M199.1778 123.3332
L199.1476 123.4239
" />
<path d="M199.1476 123.4239
L199.1174 123.4542
" />
<path d="M199.1174 123.6961
L199.1476 123.7263
" />
<path d="M199.1476 123.7263
L199.1778 123.7868
" />
<path d="M199.1778 123.7868
L199.1778 123.9380
" />
<path d="M199.1778 123.9380
L199.1476 123.9985
" />
<path d="M199.1476 123.9985
L199.1174 124.0287
" />
<path d="M199.1174 124.0287
L199.0569 124.0589
" />
<path d="M199.0569 124.0589
L198.9964 124.0589
" />
<path d="M198.9964 124.0589
L198.9057 124.0287
" />
<path d="M198.9057 124.0287
L198.5428 123.6658
" />
<path d="M198.5428 123.6658
L198.5428 124.0589
" />
</g><g transform="rotate(90.000000 201.8792 111.1758)">
<text x="201.8792" y="111.4933"
textLength="1.4938" font-size="0.8467" lengthAdjust="spacingAndGlyphs"
text-anchor="middle" opacity="0" stroke-opacity="0">C4</text>
</g>
<g class="stroked-text"><desc>C4</desc>
<path d="M201.6525 111.0700
L201.6223 111.0397
" />
<path d="M201.6223 111.0397
L201.5920 110.9490
" />
<path d="M201.5920 110.9490
L201.5920 110.8885
" />
<path d="M201.5920 110.8885
L201.6223 110.7978
" />
<path d="M201.6223 110.7978
L201.6828 110.7373
" />
<path d="M201.6828 110.7373
L201.7432 110.7071
" />
<path d="M201.7432 110.7071
L201.8642 110.6769
" />
<path d="M201.8642 110.6769
L201.9549 110.6769
" />
<path d="M201.9549 110.6769
L202.0759 110.7071
" />
<path d="M202.0759 110.7071
L202.1363 110.7373
" />
<path d="M202.1363 110.7373
L202.1968 110.7978
" />
<path d="M202.1968 110.7978
L202.2270 110.8885
" />
<path d="M202.2270 110.8885
L202.2270 110.9490
" />
<path d="M202.2270 110.9490
L202.1968 111.0397
" />
<path d="M202.1968 111.0397
L202.1666 111.0700
" />
<path d="M202.0154 111.6143
L201.5920 111.6143
" />
<path d="M202.2573 111.4631
L201.8037 111.3119
" />
<path d="M201.8037 111.3119
L201.8037 111.7050
" />
</g><g transform="rotate(90.000000 197.0786 117.3988)">
<text x="197.0786" y="117.7163"
textLength="1.5240" font-size="0.8467" lengthAdjust="spacingAndGlyphs"
text-anchor="middle" opacity="0" stroke-opacity="0">U2</text>
</g>
<g class="stroked-text"><desc>U2</desc>
<path d="M197.4264 116.9150
L196.9124 116.9150
" />
<path d="M196.9124 116.9150
L196.8519 116.9452
" />
<path d="M196.8519 116.9452
L196.8217 116.9755
" />
<path d="M196.8217 116.9755
L196.7914 117.0359
" />
<path d="M196.7914 117.0359
L196.7914 117.1569
" />
<path d="M196.7914 117.1569
L196.8217 117.2174
" />
<path d="M196.8217 117.2174
L196.8519 117.2476
" />
<path d="M196.8519 117.2476
L196.9124 117.2778
" />
<path d="M196.9124 117.2778
L197.4264 117.2778
" />
<path d="M197.3660 117.5500
L197.3962 117.5802
" />
<path d="M197.3962 117.5802
L197.4264 117.6407
" />
<path d="M197.4264 117.6407
L197.4264 117.7919
" />
<path d="M197.4264 117.7919
L197.3962 117.8524
" />
<path d="M197.3962 117.8524
L197.3660 117.8826
" />
<path d="M197.3660 117.8826
L197.3055 117.9128
" />
<path d="M197.3055 117.9128
L197.2450 117.9128
" />
<path d="M197.2450 117.9128
L197.1543 117.8826
" />
<path d="M197.1543 117.8826
L196.7914 117.5198
" />
<path d="M196.7914 117.5198
L196.7914 117.9128
" />
</g><g transform="rotate(90.000000 199.3392 131.6990)">
<text x="199.3392" y="132.0165"
textLength="1.4938" font-size="0.8467" lengthAdjust="spacingAndGlyphs"
text-anchor="middle" opacity="0" stroke-opacity="0">R7</text>
</g>
<g class="stroked-text"><desc>R7</desc>
<path d="M199.0520 131.5932
L199.3544 131.3815
" />
<path d="M199.0520 131.2303
L199.6870 131.2303
" />
<path d="M199.6870 131.2303
L199.6870 131.4722
" />
<path d="M199.6870 131.4722
L199.6568 131.5327
" />
<path d="M199.6568 131.5327
L199.6266 131.5629
" />
<path d="M199.6266 131.5629
L199.5661 131.5932
" />
<path d="M199.5661 131.5932
L199.4754 131.5932
" />
<path d="M199.4754 131.5932
L199.4149 131.5629
" />
<path d="M199.4149 131.5629
L199.3847 131.5327
" />
<path d="M199.3847 131.5327
L199.3544 131.4722
" />
<path d="M199.3544 131.4722
L199.3544 131.2303
" />
<path d="M199.6870 131.8048
L199.6870 132.2282
" />
<path d="M199.6870 132.2282
L199.0520 131.9560
" />
</g><text x="203.6572" y="119.4943"
textLength="1.4938" font-size="0.8467" lengthAdjust="spacingAndGlyphs"
text-anchor="middle" opacity="0" stroke-opacity="0">C5</text>
<g class="stroked-text"><desc>C5</desc>
<path d="M203.5514 119.4035
L203.5211 119.4337
" />
<path d="M203.5211 119.4337
L203.4304 119.4640
" />
<path d="M203.4304 119.4640
L203.3699 119.4640
" />
<path d="M203.3699 119.4640
L203.2792 119.4337
" />
<path d="M203.2792 119.4337
L203.2187 119.3732
" />
<path d="M203.2187 119.3732
L203.1885 119.3128
" />
<path d="M203.1885 119.3128
L203.1583 119.1918
" />
<path d="M203.1583 119.1918
L203.1583 119.1011
" />
<path d="M203.1583 119.1011
L203.1885 118.9801
" />
<path d="M203.1885 118.9801
L203.2187 118.9197
" />
<path d="M203.2187 118.9197
L203.2792 118.8592
" />
<path d="M203.2792 118.8592
L203.3699 118.8290
" />
<path d="M203.3699 118.8290
L203.4304 118.8290
" />
<path d="M203.4304 118.8290
L203.5211 118.8592
" />
<path d="M203.5211 118.8592
L203.5514 118.8894
" />
<path d="M204.1259 118.8290
L203.8235 118.8290
" />
<path d="M203.8235 118.8290
L203.7933 119.1313
" />
<path d="M203.7933 119.1313
L203.8235 119.1011
" />
<path d="M203.8235 119.1011
L203.8840 119.0709
" />
<path d="M203.8840 119.0709
L204.0352 119.0709
" />
<path d="M204.0352 119.0709
L204.0957 119.1011
" />
<path d="M204.0957 119.1011
L204.1259 119.1313
" />
<path d="M204.1259 119.1313
L204.1561 119.1918
" />
<path d="M204.1561 119.1918
L204.1561 119.3430
" />
<path d="M204.1561 119.3430
L204.1259 119.4035
" />
<path d="M204.1259 119.4035
L204.0957 119.4337
" />
<path d="M204.0957 119.4337
L204.0352 119.4640
" />
<path d="M204.0352 119.4640
L203.8840 119.4640
" />
<path d="M203.8840 119.4640
L203.8235 119.4337
" />
<path d="M203.8235 119.4337
L203.7933 119.4035
" />
</g><g transform="rotate(90.000000 195.8594 134.1374)">
<text x="195.8594" y="134.4549"
textLength="1.4938" font-size="0.8467" lengthAdjust="spacingAndGlyphs"
text-anchor="middle" opacity="0" stroke-opacity="0">R5</text>
</g>
<g class="stroked-text"><desc>R5</desc>
<path d="M195.5722 134.0316
L195.8746 133.8199
" />
<path d="M195.5722 133.6687
L196.2072 133.6687
" />
<path d="M196.2072 133.6687
L196.2072 133.9106
" />
<path d="M196.2072 133.9106
L196.1770 133.9711
" />
<path d="M196.1770 133.9711
L196.1468 134.0013
" />
<path d="M196.1468 134.0013
L196.0863 134.0316
" />
<path d="M196.0863 134.0316
L195.9956 134.0316
" />
<path d="M195.9956 134.0316
L195.9351 134.0013
" />
<path d="M195.9351 134.0013
L195.9049 133.9711
" />
<path d="M195.9049 133.9711
L195.8746 133.9106
" />
<path d="M195.8746 133.9106
L195.8746 133.6687
" />
<path d="M196.2072 134.6061
L196.2072 134.3037
" />
<path d="M196.2072 134.3037
L195.9049 134.2735
" />
<path d="M195.9049 134.2735
L195.9351 134.3037
" />
<path d="M195.9351 134.3037
L195.9653 134.3642
" />
<path d="M195.9653 134.3642
L195.9653 134.5154
" />
<path d="M195.9653 134.5154
L195.9351 134.5759
" />
<path d="M195.9351 134.5759
L195.9049 134.6061
" />
<path d="M195.9049 134.6061
L195.8444 134.6363
" />
<path d="M195.8444 134.6363
L195.6932 134.6363
" />
<path d="M195.6932 134.6363
L195.6327 134.6061
" />
<path d="M195.6327 134.6061
L195.6025 134.5759
" />
<path d="M195.6025 134.5759
L195.5722 134.5154
" />
<path d="M195.5722 134.5154
L195.5722 134.3642
" />
<path d="M195.5722 134.3642
L195.6025 134.3037
" />
<path d="M195.6025 134.3037
L195.6327 134.2735
" />
</g><g transform="rotate(90.000000 193.5988 123.5710)">
<text x="193.5988" y="123.8885"
textLength="1.4938" font-size="0.8467" lengthAdjust="spacingAndGlyphs"
text-anchor="middle" opacity="0" stroke-opacity="0">R2</text>
</g>
<g class="stroked-text"><desc>R2</desc>
<path d="M193.3116 123.4652
L193.6140 123.2535
" />
<path d="M193.3116 123.1023
L193.9466 123.1023
" />
<path d="M193.9466 123.1023
L193.9466 123.3442
" />
<path d="M193.9466 123.3442
L193.9164 123.4047
" />
<path d="M193.9164 123.4047
L193.8862 123.4349
" />
<path d="M193.8862 123.4349
L193.8257 123.4652
" />
<path d="M193.8257 123.4652
L193.7350 123.4652
" />
<path d="M193.7350 123.4652
L193.6745 123.4349
" />
<path d="M193.6745 123.4349
L193.6443 123.4047
" />
<path d="M193.6443 123.4047
L193.6140 123.3442
" />
<path d="M193.6140 123.3442
L193.6140 123.1023
" />
<path d="M193.8862 123.7071
L193.9164 123.7373
" />
<path d="M193.9164 123.7373
L193.9466 123.7978
" />
<path d="M193.9466 123.7978
L193.9466 123.9490
" />
<path d="M193.9466 123.9490
L193.9164 124.0095
" />
<path d="M193.9164 124.0095
L193.8862 124.0397
" />
<path d="M193.8862 124.0397
L193.8257 124.0699
" />
<path d="M193.8257 124.0699
L193.7652 124.0699
" />
<path d="M193.7652 124.0699
L193.6745 124.0397
" />
<path d="M193.6745 124.0397
L193.3116 123.6768
" />
<path d="M193.3116 123.6768
L193.3116 124.0699
" />
</g><text x="194.6148" y="128.0541"
textLength="1.4938" font-size="0.8467" lengthAdjust="spacingAndGlyphs"
text-anchor="middle" opacity="0" stroke-opacity="0">C1</text>
<g class="stroked-text"><desc>C1</desc>
<path d="M194.5090 127.9633
L194.4787 127.9935
" />
<path d="M194.4787 127.9935
L194.3880 128.0238
" />
<path d="M194.3880 128.0238
L194.3275 128.0238
" />
<path d="M194.3275 128.0238
L194.2368 127.9935
" />
<path d="M194.2368 127.9935
L194.1763 127.9330
" />
<path d="M194.1763 127.9330
L194.1461 127.8726
" />
<path d="M194.1461 127.8726
L194.1159 127.7516
" />
<path d="M194.1159 127.7516
L194.1159 127.6609
" />
<path d="M194.1159 127.6609
L194.1461 127.5399
" />
<path d="M194.1461 127.5399
L194.1763 127.4795
" />
<path d="M194.1763 127.4795
L194.2368 127.4190
" />
<path d="M194.2368 127.4190
L194.3275 127.3888
" />
<path d="M194.3275 127.3888
L194.3880 127.3888
" />
<path d="M194.3880 127.3888
L194.4787 127.4190
" />
<path d="M194.4787 127.4190
L194.5090 127.4492
" />
<path d="M195.1137 128.0238
L194.7509 128.0238
" />
<path d="M194.9323 128.0238
L194.9323 127.3888
" />
<path d="M194.9323 127.3888
L194.8718 127.4795
" />
<path d="M194.8718 127.4795
L194.8113 127.5399
" />
<path d="M194.8113 127.5399
L194.7509 127.5702
" />
</g><text x="196.7484" y="120.4595"
textLength="1.4938" font-size="0.8467" lengthAdjust="spacingAndGlyphs"
text-anchor="middle" opacity="0" stroke-opacity="0">R1</text>
<g class="stroked-text"><desc>R1</desc>
<path d="M196.6426 120.4292
L196.4309 120.1268
" />
<path d="M196.2797 120.4292
L196.2797 119.7942
" />
<path d="M196.2797 119.7942
L196.5216 119.7942
" />
<path d="M196.5216 119.7942
L196.5821 119.8244
" />
<path d="M196.5821 119.8244
L196.6123 119.8546
" />
<path d="M196.6123 119.8546
L196.6426 119.9151
" />
<path d="M196.6426 119.9151
L196.6426 120.0058
" />
<path d="M196.6426 120.0058
L196.6123 120.0663
" />
<path d="M196.6123 120.0663
L196.5821 120.0965
" />
<path d="M196.5821 120.0965
L196.5216 120.1268
" />
<path d="M196.5216 120.1268
L196.2797 120.1268
" />
<path d="M197.2473 120.4292
L196.8845 120.4292
" />
<path d="M197.0659 120.4292
L197.0659 119.7942
" />
<path d="M197.0659 119.7942
L197.0054 119.8849
" />
<path d="M197.0054 119.8849
L196.9449 119.9453
" />
<path d="M196.9449 119.9453
L196.8845 119.9756
" />
</g><text x="197.6120" y="128.0795"
textLength="1.4938" font-size="0.8467" lengthAdjust="spacingAndGlyphs"
text-anchor="middle" opacity="0" stroke-opacity="0">R4</text>
<g class="stroked-text"><desc>R4</desc>
<path d="M197.5062 128.0492
L197.2945 127.7468
" />
<path d="M197.1433 128.0492
L197.1433 127.4142
" />
<path d="M197.1433 127.4142
L197.3852 127.4142
" />
<path d="M197.3852 127.4142
L197.4457 127.4444
" />
<path d="M197.4457 127.4444
L197.4759 127.4746
" />
<path d="M197.4759 127.4746
L197.5062 127.5351
" />
<path d="M197.5062 127.5351
L197.5062 127.6258
" />
<path d="M197.5062 127.6258
L197.4759 127.6863
" />
<path d="M197.4759 127.6863
L197.4457 127.7165
" />
<path d="M197.4457 127.7165
L197.3852 127.7468
" />
<path d="M197.3852 127.7468
L197.1433 127.7468
" />
<path d="M198.0505 127.6258
L198.0505 128.0492
" />
<path d="M197.8993 127.3839
L197.7481 127.8375
" />
<path d="M197.7481 127.8375
L198.1412 127.8375
" />
</g><g transform="rotate(90.000000 198.6534 113.0300)">
<text x="198.6534" y="113.3475"
textLength="1.4938" font-size="0.8467" lengthAdjust="spacingAndGlyphs"
text-anchor="middle" opacity="0" stroke-opacity="0">C3</text>
</g>
<g class="stroked-text"><desc>C3</desc>
<path d="M198.4267 112.9242
L198.3965 112.8939
" />
<path d="M198.3965 112.8939
L198.3662 112.8032
" />
<path d="M198.3662 112.8032
L198.3662 112.7427
" />
<path d="M198.3662 112.7427
L198.3965 112.6520
" />
<path d="M198.3965 112.6520
L198.4570 112.5915
" />
<path d="M198.4570 112.5915
L198.5174 112.5613
" />
<path d="M198.5174 112.5613
L198.6384 112.5311
" />
<path d="M198.6384 112.5311
L198.7291 112.5311
" />
<path d="M198.7291 112.5311
L198.8501 112.5613
" />
<path d="M198.8501 112.5613
L198.9105 112.5915
" />
<path d="M198.9105 112.5915
L198.9710 112.6520
" />
<path d="M198.9710 112.6520
L199.0012 112.7427
" />
<path d="M199.0012 112.7427
L199.0012 112.8032
" />
<path d="M199.0012 112.8032
L198.9710 112.8939
" />
<path d="M198.9710 112.8939
L198.9408 112.9242
" />
<path d="M199.0012 113.1358
L199.0012 113.5289
" />
<path d="M199.0012 113.5289
L198.7593 113.3173
" />
<path d="M198.7593 113.3173
L198.7593 113.4080
" />
<path d="M198.7593 113.4080
L198.7291 113.4685
" />
<path d="M198.7291 113.4685
L198.6989 113.4987
" />
<path d="M198.6989 113.4987
L198.6384 113.5289
" />
<path d="M198.6384 113.5289
L198.4872 113.5289
" />
<path d="M198.4872 113.5289
L198.4267 113.4987
" />
<path d="M198.4267 113.4987
L198.3965 113.4685
" />
<path d="M198.3965 113.4685
L198.3662 113.4080
" />
<path d="M198.3662 113.4080
L198.3662 113.2265
" />
<path d="M198.3662 113.2265
L198.3965 113.1661
" />
<path d="M198.3965 113.1661
L198.4267 113.1358
" />
</g><text x="203.1746" y="121.5517"
textLength="1.5240" font-size="0.8467" lengthAdjust="spacingAndGlyphs"
text-anchor="middle" opacity="0" stroke-opacity="0">U3</text>
<g class="stroked-text"><desc>U3</desc>
<path d="M202.6908 120.8864
L202.6908 121.4004
" />
<path d="M202.6908 121.4004
L202.7210 121.4609
" />
<path d="M202.7210 121.4609
L202.7513 121.4911
" />
<path d="M202.7513 121.4911
L202.8117 121.5214
" />
<path d="M202.8117 121.5214
L202.9327 121.5214
" />
<path d="M202.9327 121.5214
L202.9932 121.4911
" />
<path d="M202.9932 121.4911
L203.0234 121.4609
" />
<path d="M203.0234 121.4609
L203.0536 121.4004
" />
<path d="M203.0536 121.4004
L203.0536 120.8864
" />
<path d="M203.2956 120.8864
L203.6886 120.8864
" />
<path d="M203.6886 120.8864
L203.4770 121.1283
" />
<path d="M203.4770 121.1283
L203.5677 121.1283
" />
<path d="M203.5677 121.1283
L203.6282 121.1585
" />
<path d="M203.6282 121.1585
L203.6584 121.1887
" />
<path d="M203.6584 121.1887
L203.6886 121.2492
" />
<path d="M203.6886 121.2492
L203.6886 121.4004
" />
<path d="M203.6886 121.4004
L203.6584 121.4609
" />
<path d="M203.6584 121.4609
L203.6282 121.4911
" />
<path d="M203.6282 121.4911
L203.5677 121.5214
" />
<path d="M203.5677 121.5214
L203.3863 121.5214
" />
<path d="M203.3863 121.5214
L203.3258 121.4911
" />
<path d="M203.3258 121.4911
L203.2956 121.4609
" />
</g><g transform="rotate(90.000000 197.2056 131.5720)">
<text x="197.2056" y="131.8895"
textLength="1.4938" font-size="0.8467" lengthAdjust="spacingAndGlyphs"
text-anchor="middle" opacity="0" stroke-opacity="0">R6</text>
</g>
<g class="stroked-text"><desc>R6</desc>
<path d="M196.9184 131.4662
L197.2208 131.2545
" />
<path d="M196.9184 131.1033
L197.5534 131.1033
" />
<path d="M197.5534 131.1033
L197.5534 131.3452
" />
<path d="M197.5534 131.3452
L197.5232 131.4057
" />
<path d="M197.5232 131.4057
L197.4930 131.4359
" />
<path d="M197.4930 131.4359
L197.4325 131.4662
" />
<path d="M197.4325 131.4662
L197.3418 131.4662
" />
<path d="M197.3418 131.4662
L197.2813 131.4359
" />
<path d="M197.2813 131.4359
L197.2511 131.4057
" />
<path d="M197.2511 131.4057
L197.2208 131.3452
" />
<path d="M197.2208 131.3452
L197.2208 131.1033
" />
<path d="M197.5534 132.0105
L197.5534 131.8895
" />
<path d="M197.5534 131.8895
L197.5232 131.8290
" />
<path d="M197.5232 131.8290
L197.4930 131.7988
" />
<path d="M197.4930 131.7988
L197.4023 131.7383
" />
<path d="M197.4023 131.7383
L197.2813 131.7081
" />
<path d="M197.2813 131.7081
L197.0394 131.7081
" />
<path d="M197.0394 131.7081
L196.9789 131.7383
" />
<path d="M196.9789 131.7383
L196.9487 131.7685
" />
<path d="M196.9487 131.7685
L196.9184 131.8290
" />
<path d="M196.9184 131.8290
L196.9184 131.9500
" />
<path d="M196.9184 131.9500
L196.9487 132.0105
" />
<path d="M196.9487 132.0105
L196.9789 132.0407
" />
<path d="M196.9789 132.0407
L197.0394 132.0709
" />
<path d="M197.0394 132.0709
L197.1906 132.0709
" />
<path d="M197.1906 132.0709
L197.2511 132.0407
" />
<path d="M197.2511 132.0407
L197.2813 132.0105
" />
<path d="M197.2813 132.0105
L197.3115 131.9500
" />
<path d="M197.3115 131.9500
L197.3115 131.8290
" />
<path d="M197.3115 131.8290
L197.2813 131.7685
" />
<path d="M197.2813 131.7685
L197.2511 131.7383
" />
<path d="M197.2511 131.7383
L197.1906 131.7081
" />
</g><g transform="rotate(90.000000 203.9366 113.0300)">
<text x="203.9366" y="113.3475"
textLength="1.4938" font-size="0.8467" lengthAdjust="spacingAndGlyphs"
text-anchor="middle" opacity="0" stroke-opacity="0">R8</text>
</g>
<g class="stroked-text"><desc>R8</desc>
<path d="M203.6494 112.9242
L203.9518 112.7125
" />
<path d="M203.6494 112.5613
L204.2844 112.5613
" />
<path d="M204.2844 112.5613
L204.2844 112.8032
" />
<path d="M204.2844 112.8032
L204.2542 112.8637
" />
<path d="M204.2542 112.8637
L204.2240 112.8939
" />
<path d="M204.2240 112.8939
L204.1635 112.9242
" />
<path d="M204.1635 112.9242
L204.0728 112.9242
" />
<path d="M204.0728 112.9242
L204.0123 112.8939
" />
<path d="M204.0123 112.8939
L203.9821 112.8637
" />
<path d="M203.9821 112.8637
L203.9518 112.8032
" />
<path d="M203.9518 112.8032
L203.9518 112.5613
" />
<path d="M204.0123 113.2870
L204.0425 113.2265
" />
<path d="M204.0425 113.2265
L204.0728 113.1963
" />
<path d="M204.0728 113.1963
L204.1333 113.1661
" />
<path d="M204.1333 113.1661
L204.1635 113.1661
" />
<path d="M204.1635 113.1661
L204.2240 113.1963
" />
<path d="M204.2240 113.1963
L204.2542 113.2265
" />
<path d="M204.2542 113.2265
L204.2844 113.2870
" />
<path d="M204.2844 113.2870
L204.2844 113.4080
" />
<path d="M204.2844 113.4080
L204.2542 113.4685
" />
<path d="M204.2542 113.4685
L204.2240 113.4987
" />
<path d="M204.2240 113.4987
L204.1635 113.5289
" />
<path d="M204.1635 113.5289
L204.1333 113.5289
" />
<path d="M204.1333 113.5289
L204.0728 113.4987
" />
<path d="M204.0728 113.4987
L204.0425 113.4685
" />
<path d="M204.0425 113.4685
L204.0123 113.4080
" />
<path d="M204.0123 113.4080
L204.0123 113.2870
" />
<path d="M204.0123 113.2870
L203.9821 113.2265
" />
<path d="M203.9821 113.2265
L203.9518 113.1963
" />
<path d="M203.9518 113.1963
L203.8913 113.1661
" />
<path d="M203.8913 113.1661
L203.7704 113.1661
" />
<path d="M203.7704 113.1661
L203.7099 113.1963
" />
<path d="M203.7099 113.1963
L203.6797 113.2265
" />
<path d="M203.6797 113.2265
L203.6494 113.2870
" />
<path d="M203.6494 113.2870
L203.6494 113.4080
" />
<path d="M203.6494 113.4080
L203.6797 113.4685
" />
<path d="M203.6797 113.4685
L203.7099 113.4987
" />
<path d="M203.7099 113.4987
L203.7704 113.5289
" />
<path d="M203.7704 113.5289
L203.8913 113.5289
" />
<path d="M203.8913 113.5289
L203.9518 113.4987
" />
<path d="M203.9518 113.4987
L203.9821 113.4685
" />
<path d="M203.9821 113.4685
L204.0123 113.4080
" />
</g></g>
<g style="fill:none; 
stroke:#000000; stroke-width:0.1200; stroke-opacity:1; 
stroke-linecap:round; stroke-linejoin:round;">
<path d="M196.8137 123.8083
L196.8137 123.3337
" />
<path d="M195.7687 123.8083
L195.7687 123.3337
" />
<path d="M198.3252 123.4304
L198.3252 123.7116
" />
<path d="M197.3052 123.4304
L197.3052 123.7116
" />
<path d="M201.8050 113.1706
L201.8050 112.8894
" />
<path d="M200.7850 113.1706
L200.7850 112.8894
" />
</g>
<g style="fill:none; 
stroke:#000000; stroke-width:0.1000; stroke-opacity:1; 
stroke-linecap:round; stroke-linejoin:round;">
<path d="M201.1932 116.6592
L200.8932 116.6592
" />
<path d="M201.1932 117.4592
L201.1932 116.6592
" />
<path d="M201.1932 119.4592
L201.1932 118.6592
" />
<path d="M200.8932 119.4592
L201.1932 119.4592
" />
<path d="M198.2932 116.6592
L197.9932 116.6592
" />
<path d="M198.2932 119.4592
L197.9932 119.4592
" />
<path d="M197.9932 116.6592
L197.9932 117.4592
" />
<path d="M197.9932 119.4592
L197.9932 118.6592
" />
<path style="fill:#000000; fill-opacity:1.0000; 
stroke:#000000; stroke-width:0.1000; stroke-opacity:1; 
stroke-linecap:round; stroke-linejoin:round;fill-rule:evenodd;"
d="M 201.3932,116.8592
201.6932,117.1592
201.6932,116.5592
Z" /> 
</g>
<g style="fill:none; 
stroke:#000000; stroke-width:0.1200; stroke-opacity:1; 
stroke-linecap:round; stroke-linejoin:round;">
<path d="M199.8617 129.9043
L199.8617 129.4297
" />
<path d="M198.8167 129.9043
L198.8167 129.4297
" />
<path d="M203.7978 117.5492
L203.5166 117.5492
" />
<path d="M203.7978 118.5692
L203.5166 118.5692
" />
<path d="M197.6265 133.8747
L197.6265 134.3493
" />
<path d="M196.5815 133.8747
L196.5815 134.3493
" />
<path d="M195.2897 123.8083
L195.2897 123.3337
" />
<path d="M194.2447 123.8083
L194.2447 123.3337
" />
<path d="M194.4234 126.1090
L194.7046 126.1090
" />
<path d="M194.4234 127.1290
L194.7046 127.1290
" />
<path d="M194.5299 119.6195
L195.0045 119.6195
" />
<path d="M194.5299 120.6645
L195.0045 120.6645
" />
<path d="M197.3747 126.0965
L197.8493 126.0965
" />
<path d="M197.3747 127.1415
L197.8493 127.1415
" />
<path d="M200.2810 113.1706
L200.2810 112.8894
" />
<path d="M199.2610 113.1706
L199.2610 112.8894
" />
<path d="M202.8542 121.9610
L202.3792 121.9610
" />
<path d="M202.8542 122.4360
L202.8542 121.9610
" />
<path d="M202.8542 124.9410
L202.8542 124.7060
" />
<path d="M202.5542 125.1810
L202.3792 125.1810
" />
<path d="M199.6342 121.9610
L200.1092 121.9610
" />
<path d="M199.6342 122.4360
L199.6342 121.9610
" />
<path d="M199.6342 124.7060
L199.6342 125.1810
" />
<path d="M199.6342 125.1810
L200.1092 125.1810
" />
<path style="fill:#000000; fill-opacity:1.0000; 
stroke:#000000; stroke-width:0.1200; stroke-opacity:1; 
stroke-linecap:round; stroke-linejoin:round;fill-rule:evenodd;"
d="M 202.6142,125.5110
203.0942,125.5110
202.8542,125.1810
Z" /> 
</g>
<g style="fill:none; 
stroke:#000000; stroke-width:0.1200; stroke-opacity:1; 
stroke-linecap:round; stroke-linejoin:round;">
<path d="M198.3377 129.9043
L198.3377 129.4297
" />
<path d="M197.2927 129.9043
L197.2927 129.4297
" />
<path d="M203.3415 113.2673
L203.3415 112.7927
" />
<path d="M202.2965 113.2673
L202.2965 112.7927
" />
</g>
<g style="fill:#000000; fill-opacity:1.0000; stroke:none;">
<circle cx="206.9592" cy="114.0460" r="1.5000" /> 
</g>
<g style="fill:#000000; fill-opacity:1.0000; stroke:none;">
<circle cx="194.6222" cy="130.0510" r="1.7000" /> 
</g>
<g style="fill:#000000; fill-opacity:1.0000; stroke:none;">
<circle cx="194.6222" cy="117.0910" r="1.7000" /> 
</g>
<g style="fill:#000000; fill-opacity:1.0000; stroke:none;">
<circle cx="210.3882" cy="117.2210" r="0.5000" /> 
</g>
<g style="fill:#000000; fill-opacity:1.0000; stroke:none;">
<circle cx="210.3882" cy="119.7610" r="0.5000" /> 
</g>
<g style="fill:#000000; fill-opacity:1.0000; stroke:none;">
<circle cx="210.3882" cy="122.3010" r="0.5000" /> 
</g>
<g style="fill:#000000; fill-opacity:1.0000; stroke:none;">
<circle cx="210.3882" cy="124.8410" r="0.5000" /> 
</g>
<g style="fill:#000000; fill-opacity:1.0000; stroke:none;">
<circle cx="210.3882" cy="127.3810" r="0.5000" /> 
</g>
<g style="fill:#000000; fill-opacity:1.0000; stroke:none;">
<circle cx="210.3882" cy="129.9210" r="0.5000" /> 
</g>
<g style="fill:#000000; fill-opacity:1.0000; stroke:none;">
<circle cx="206.9592" cy="133.0960" r="1.5000" /> 
</g>
<g style="fill:none; 
stroke:#000000; stroke-width:0.0500; stroke-opacity:1; 
stroke-linecap:round; stroke-linejoin:round;">
<path d="M192.2572 112.9416
L192.2572 134.2004
" />
<path d="M212.1614 114.9388
L212.1581 132.2132
" />
<path d="M192.2572 134.2004 A13.9291 13.9291 0.0 0 0 212.1581 132.2132" />
<path d="M212.1614 114.9388 A13.9097 13.9097 0.0 0 0 192.2572 112.9416" />
</g>
<g style="fill:#000000; fill-opacity:1.0000; stroke:none;">
<circle cx="206.9592" cy="114.0460" r="1.5000" /> 
</g>
<g style="fill:#000000; fill-opacity:1.0000; stroke:none;">
<circle cx="194.6222" cy="130.0510" r="1.7000" /> 
</g>
<g style="fill:#000000; fill-opacity:1.0000; stroke:none;">
<circle cx="194.6222" cy="117.0910" r="1.7000" /> 
</g>
<g style="fill:#000000; fill-opacity:1.0000; stroke:none;">
<circle cx="210.3882" cy="117.2210" r="0.5000" /> 
</g>
<g style="fill:#000000; fill-opacity:1.0000; stroke:none;">
<circle cx="210.3882" cy="119.7610" r="0.5000" /> 
</g>
<g style="fill:#000000; fill-opacity:1.0000; stroke:none;">
<circle cx="210.3882" cy="122.3010" r="0.5000" /> 
</g>
<g style="fill:#000000; fill-opacity:1.0000; stroke:none;">
<circle cx="210.3882" cy="124.8410" r="0.5000" /> 
</g>
<g style="fill:#000000; fill-opacity:1.0000; stroke:none;">
<circle cx="210.3882" cy="127.3810" r="0.5000" /> 
</g>
<g style="fill:#000000; fill-opacity:1.0000; stroke:none;">
<circle cx="210.3882" cy="129.9210" r="0.5000" /> 
</g>
<g style="fill:#000000; fill-opacity:1.0000; stroke:none;">
<circle cx="206.9592" cy="133.0960" r="1.5000" /> 
</g> 
</svg>
