%TF.GenerationSoftware,KiCad,Pcbnew,7.0.10-7.0.10~ubuntu22.04.1*%
%TF.CreationDate,2024-01-21T09:22:19-08:00*%
%TF.ProjectId,encoder_adapter,656e636f-6465-4725-9f61-646170746572,V1*%
%TF.SameCoordinates,Original*%
%TF.FileFunction,Legend,Top*%
%TF.FilePolarity,Positive*%
%FSLAX46Y46*%
G04 Gerber Fmt 4.6, Leading zero omitted, Abs format (unit mm)*
G04 Created by KiCad (PCBNEW 7.0.10-7.0.10~ubuntu22.04.1) date 2024-01-21 09:22:19*
%MOMM*%
%LPD*%
G01*
G04 APERTURE LIST*
%ADD10C,0.150000*%
%ADD11C,0.127000*%
%ADD12C,0.120000*%
G04 APERTURE END LIST*
D10*
X136963819Y-97498333D02*
X137678104Y-97498333D01*
X137678104Y-97498333D02*
X137820961Y-97545952D01*
X137820961Y-97545952D02*
X137916200Y-97641190D01*
X137916200Y-97641190D02*
X137963819Y-97784047D01*
X137963819Y-97784047D02*
X137963819Y-97879285D01*
X137963819Y-96498333D02*
X137963819Y-97069761D01*
X137963819Y-96784047D02*
X136963819Y-96784047D01*
X136963819Y-96784047D02*
X137106676Y-96879285D01*
X137106676Y-96879285D02*
X137201914Y-96974523D01*
X137201914Y-96974523D02*
X137249533Y-97069761D01*
D11*
%TO.C,J1*%
X133604000Y-93980000D02*
X133604000Y-96520000D01*
X133096000Y-93980000D02*
X133604000Y-93980000D01*
X128524000Y-93980000D02*
X130556000Y-93980000D01*
X135119000Y-96520000D02*
X135128000Y-106680000D01*
X133604000Y-96520000D02*
X135119000Y-96520000D01*
X133604000Y-106680000D02*
X135128000Y-106680000D01*
X133604000Y-109220000D02*
X133604000Y-106680000D01*
X133604000Y-109220000D02*
X133096000Y-109220000D01*
X128524000Y-109220000D02*
X128524000Y-93980000D01*
X128524000Y-109220000D02*
X130556000Y-109220000D01*
X135128000Y-109220000D02*
X134112000Y-108204000D01*
X135128000Y-107188000D01*
X135128000Y-109220000D01*
G36*
X135128000Y-109220000D02*
G01*
X134112000Y-108204000D01*
X135128000Y-107188000D01*
X135128000Y-109220000D01*
G37*
D12*
%TO.C,J2*%
X123130000Y-95190000D02*
X124460000Y-95190000D01*
X123130000Y-96520000D02*
X123130000Y-95190000D01*
X123130000Y-97790000D02*
X123130000Y-108010000D01*
X123130000Y-97790000D02*
X125790000Y-97790000D01*
X123130000Y-108010000D02*
X125790000Y-108010000D01*
X125790000Y-97790000D02*
X125790000Y-108010000D01*
%TD*%
M02*
