%TF.GenerationSoftware,KiCad,Pcbnew,7.0.10-7.0.10~ubuntu22.04.1*%
%TF.CreationDate,2024-01-21T09:22:19-08:00*%
%TF.ProjectId,encoder_adapter,656e636f-6465-4725-9f61-646170746572,V1*%
%TF.SameCoordinates,Original*%
%TF.FileFunction,Legend,Bot*%
%TF.FilePolarity,Positive*%
%FSLAX46Y46*%
G04 Gerber Fmt 4.6, Leading zero omitted, Abs format (unit mm)*
G04 Created by KiCad (PCBNEW 7.0.10-7.0.10~ubuntu22.04.1) date 2024-01-21 09:22:19*
%MOMM*%
%LPD*%
G01*
G04 APERTURE LIST*
%ADD10C,0.150000*%
%ADD11C,0.120000*%
G04 APERTURE END LIST*
D10*
X125984000Y-108204000D02*
X125984000Y-94996000D01*
X132588000Y-94996000D02*
X132588000Y-108204000D01*
X126365000Y-109220000D02*
X126365000Y-110490000D01*
X132588000Y-108204000D02*
X129540000Y-108204000D01*
X126365000Y-109855000D02*
X125095000Y-110490000D01*
X125095000Y-109220000D01*
X126365000Y-109855000D01*
G36*
X126365000Y-109855000D02*
G01*
X125095000Y-110490000D01*
X125095000Y-109220000D01*
X126365000Y-109855000D01*
G37*
X134112000Y-107315000D02*
X133350000Y-106680000D01*
X134112000Y-106045000D01*
X134112000Y-107315000D01*
G36*
X134112000Y-107315000D02*
G01*
X133350000Y-106680000D01*
X134112000Y-106045000D01*
X134112000Y-107315000D01*
G37*
X129540000Y-108204000D02*
X125984000Y-108204000D01*
X125984000Y-94996000D02*
X132588000Y-94996000D01*
X129539523Y-92164819D02*
X129206190Y-93164819D01*
X129206190Y-93164819D02*
X128872857Y-92164819D01*
X128015714Y-93164819D02*
X128587142Y-93164819D01*
X128301428Y-93164819D02*
X128301428Y-92164819D01*
X128301428Y-92164819D02*
X128396666Y-92307676D01*
X128396666Y-92307676D02*
X128491904Y-92402914D01*
X128491904Y-92402914D02*
X128587142Y-92450533D01*
X127587142Y-93069580D02*
X127539523Y-93117200D01*
X127539523Y-93117200D02*
X127587142Y-93164819D01*
X127587142Y-93164819D02*
X127634761Y-93117200D01*
X127634761Y-93117200D02*
X127587142Y-93069580D01*
X127587142Y-93069580D02*
X127587142Y-93164819D01*
X126920476Y-92164819D02*
X126825238Y-92164819D01*
X126825238Y-92164819D02*
X126730000Y-92212438D01*
X126730000Y-92212438D02*
X126682381Y-92260057D01*
X126682381Y-92260057D02*
X126634762Y-92355295D01*
X126634762Y-92355295D02*
X126587143Y-92545771D01*
X126587143Y-92545771D02*
X126587143Y-92783866D01*
X126587143Y-92783866D02*
X126634762Y-92974342D01*
X126634762Y-92974342D02*
X126682381Y-93069580D01*
X126682381Y-93069580D02*
X126730000Y-93117200D01*
X126730000Y-93117200D02*
X126825238Y-93164819D01*
X126825238Y-93164819D02*
X126920476Y-93164819D01*
X126920476Y-93164819D02*
X127015714Y-93117200D01*
X127015714Y-93117200D02*
X127063333Y-93069580D01*
X127063333Y-93069580D02*
X127110952Y-92974342D01*
X127110952Y-92974342D02*
X127158571Y-92783866D01*
X127158571Y-92783866D02*
X127158571Y-92545771D01*
X127158571Y-92545771D02*
X127110952Y-92355295D01*
X127110952Y-92355295D02*
X127063333Y-92260057D01*
X127063333Y-92260057D02*
X127015714Y-92212438D01*
X127015714Y-92212438D02*
X126920476Y-92164819D01*
X125444285Y-92260057D02*
X125396666Y-92212438D01*
X125396666Y-92212438D02*
X125301428Y-92164819D01*
X125301428Y-92164819D02*
X125063333Y-92164819D01*
X125063333Y-92164819D02*
X124968095Y-92212438D01*
X124968095Y-92212438D02*
X124920476Y-92260057D01*
X124920476Y-92260057D02*
X124872857Y-92355295D01*
X124872857Y-92355295D02*
X124872857Y-92450533D01*
X124872857Y-92450533D02*
X124920476Y-92593390D01*
X124920476Y-92593390D02*
X125491904Y-93164819D01*
X125491904Y-93164819D02*
X124872857Y-93164819D01*
X124253809Y-92164819D02*
X124158571Y-92164819D01*
X124158571Y-92164819D02*
X124063333Y-92212438D01*
X124063333Y-92212438D02*
X124015714Y-92260057D01*
X124015714Y-92260057D02*
X123968095Y-92355295D01*
X123968095Y-92355295D02*
X123920476Y-92545771D01*
X123920476Y-92545771D02*
X123920476Y-92783866D01*
X123920476Y-92783866D02*
X123968095Y-92974342D01*
X123968095Y-92974342D02*
X124015714Y-93069580D01*
X124015714Y-93069580D02*
X124063333Y-93117200D01*
X124063333Y-93117200D02*
X124158571Y-93164819D01*
X124158571Y-93164819D02*
X124253809Y-93164819D01*
X124253809Y-93164819D02*
X124349047Y-93117200D01*
X124349047Y-93117200D02*
X124396666Y-93069580D01*
X124396666Y-93069580D02*
X124444285Y-92974342D01*
X124444285Y-92974342D02*
X124491904Y-92783866D01*
X124491904Y-92783866D02*
X124491904Y-92545771D01*
X124491904Y-92545771D02*
X124444285Y-92355295D01*
X124444285Y-92355295D02*
X124396666Y-92260057D01*
X124396666Y-92260057D02*
X124349047Y-92212438D01*
X124349047Y-92212438D02*
X124253809Y-92164819D01*
X123539523Y-92260057D02*
X123491904Y-92212438D01*
X123491904Y-92212438D02*
X123396666Y-92164819D01*
X123396666Y-92164819D02*
X123158571Y-92164819D01*
X123158571Y-92164819D02*
X123063333Y-92212438D01*
X123063333Y-92212438D02*
X123015714Y-92260057D01*
X123015714Y-92260057D02*
X122968095Y-92355295D01*
X122968095Y-92355295D02*
X122968095Y-92450533D01*
X122968095Y-92450533D02*
X123015714Y-92593390D01*
X123015714Y-92593390D02*
X123587142Y-93164819D01*
X123587142Y-93164819D02*
X122968095Y-93164819D01*
X122587142Y-92260057D02*
X122539523Y-92212438D01*
X122539523Y-92212438D02*
X122444285Y-92164819D01*
X122444285Y-92164819D02*
X122206190Y-92164819D01*
X122206190Y-92164819D02*
X122110952Y-92212438D01*
X122110952Y-92212438D02*
X122063333Y-92260057D01*
X122063333Y-92260057D02*
X122015714Y-92355295D01*
X122015714Y-92355295D02*
X122015714Y-92450533D01*
X122015714Y-92450533D02*
X122063333Y-92593390D01*
X122063333Y-92593390D02*
X122634761Y-93164819D01*
X122634761Y-93164819D02*
X122015714Y-93164819D01*
X134282686Y-103976571D02*
X134282686Y-103834475D01*
X134282686Y-103834475D02*
X134318210Y-103763428D01*
X134318210Y-103763428D02*
X134353733Y-103727904D01*
X134353733Y-103727904D02*
X134460305Y-103656856D01*
X134460305Y-103656856D02*
X134602400Y-103621333D01*
X134602400Y-103621333D02*
X134886590Y-103621333D01*
X134886590Y-103621333D02*
X134957638Y-103656856D01*
X134957638Y-103656856D02*
X134993162Y-103692380D01*
X134993162Y-103692380D02*
X135028686Y-103763428D01*
X135028686Y-103763428D02*
X135028686Y-103905523D01*
X135028686Y-103905523D02*
X134993162Y-103976571D01*
X134993162Y-103976571D02*
X134957638Y-104012094D01*
X134957638Y-104012094D02*
X134886590Y-104047618D01*
X134886590Y-104047618D02*
X134708971Y-104047618D01*
X134708971Y-104047618D02*
X134637924Y-104012094D01*
X134637924Y-104012094D02*
X134602400Y-103976571D01*
X134602400Y-103976571D02*
X134566876Y-103905523D01*
X134566876Y-103905523D02*
X134566876Y-103763428D01*
X134566876Y-103763428D02*
X134602400Y-103692380D01*
X134602400Y-103692380D02*
X134637924Y-103656856D01*
X134637924Y-103656856D02*
X134708971Y-103621333D01*
X135028686Y-103372666D02*
X135028686Y-102875333D01*
X135028686Y-102875333D02*
X134282686Y-103195047D01*
X134282686Y-102200381D02*
X134282686Y-102626666D01*
X134282686Y-102413523D02*
X135028686Y-102413523D01*
X135028686Y-102413523D02*
X134922114Y-102484571D01*
X134922114Y-102484571D02*
X134851067Y-102555619D01*
X134851067Y-102555619D02*
X134815543Y-102626666D01*
X128992189Y-96974819D02*
X128992189Y-95974819D01*
X128515999Y-96974819D02*
X128515999Y-95974819D01*
X128515999Y-95974819D02*
X128277904Y-95974819D01*
X128277904Y-95974819D02*
X128135047Y-96022438D01*
X128135047Y-96022438D02*
X128039809Y-96117676D01*
X128039809Y-96117676D02*
X127992190Y-96212914D01*
X127992190Y-96212914D02*
X127944571Y-96403390D01*
X127944571Y-96403390D02*
X127944571Y-96546247D01*
X127944571Y-96546247D02*
X127992190Y-96736723D01*
X127992190Y-96736723D02*
X128039809Y-96831961D01*
X128039809Y-96831961D02*
X128135047Y-96927200D01*
X128135047Y-96927200D02*
X128277904Y-96974819D01*
X128277904Y-96974819D02*
X128515999Y-96974819D01*
X127611237Y-95974819D02*
X126944571Y-96974819D01*
X126944571Y-95974819D02*
X127611237Y-96974819D01*
X128777904Y-106182438D02*
X128873142Y-106134819D01*
X128873142Y-106134819D02*
X129015999Y-106134819D01*
X129015999Y-106134819D02*
X129158856Y-106182438D01*
X129158856Y-106182438D02*
X129254094Y-106277676D01*
X129254094Y-106277676D02*
X129301713Y-106372914D01*
X129301713Y-106372914D02*
X129349332Y-106563390D01*
X129349332Y-106563390D02*
X129349332Y-106706247D01*
X129349332Y-106706247D02*
X129301713Y-106896723D01*
X129301713Y-106896723D02*
X129254094Y-106991961D01*
X129254094Y-106991961D02*
X129158856Y-107087200D01*
X129158856Y-107087200D02*
X129015999Y-107134819D01*
X129015999Y-107134819D02*
X128920761Y-107134819D01*
X128920761Y-107134819D02*
X128777904Y-107087200D01*
X128777904Y-107087200D02*
X128730285Y-107039580D01*
X128730285Y-107039580D02*
X128730285Y-106706247D01*
X128730285Y-106706247D02*
X128920761Y-106706247D01*
X128301713Y-107134819D02*
X128301713Y-106134819D01*
X128301713Y-106134819D02*
X127730285Y-107134819D01*
X127730285Y-107134819D02*
X127730285Y-106134819D01*
X127254094Y-107134819D02*
X127254094Y-106134819D01*
X127254094Y-106134819D02*
X127015999Y-106134819D01*
X127015999Y-106134819D02*
X126873142Y-106182438D01*
X126873142Y-106182438D02*
X126777904Y-106277676D01*
X126777904Y-106277676D02*
X126730285Y-106372914D01*
X126730285Y-106372914D02*
X126682666Y-106563390D01*
X126682666Y-106563390D02*
X126682666Y-106706247D01*
X126682666Y-106706247D02*
X126730285Y-106896723D01*
X126730285Y-106896723D02*
X126777904Y-106991961D01*
X126777904Y-106991961D02*
X126873142Y-107087200D01*
X126873142Y-107087200D02*
X127015999Y-107134819D01*
X127015999Y-107134819D02*
X127254094Y-107134819D01*
X134318210Y-101575094D02*
X134282686Y-101468523D01*
X134282686Y-101468523D02*
X134282686Y-101290904D01*
X134282686Y-101290904D02*
X134318210Y-101219856D01*
X134318210Y-101219856D02*
X134353733Y-101184332D01*
X134353733Y-101184332D02*
X134424781Y-101148809D01*
X134424781Y-101148809D02*
X134495829Y-101148809D01*
X134495829Y-101148809D02*
X134566876Y-101184332D01*
X134566876Y-101184332D02*
X134602400Y-101219856D01*
X134602400Y-101219856D02*
X134637924Y-101290904D01*
X134637924Y-101290904D02*
X134673448Y-101432999D01*
X134673448Y-101432999D02*
X134708971Y-101504047D01*
X134708971Y-101504047D02*
X134744495Y-101539570D01*
X134744495Y-101539570D02*
X134815543Y-101575094D01*
X134815543Y-101575094D02*
X134886590Y-101575094D01*
X134886590Y-101575094D02*
X134957638Y-101539570D01*
X134957638Y-101539570D02*
X134993162Y-101504047D01*
X134993162Y-101504047D02*
X135028686Y-101432999D01*
X135028686Y-101432999D02*
X135028686Y-101255380D01*
X135028686Y-101255380D02*
X134993162Y-101148809D01*
X134780019Y-100829094D02*
X134034019Y-100829094D01*
X134744495Y-100829094D02*
X134780019Y-100758047D01*
X134780019Y-100758047D02*
X134780019Y-100615952D01*
X134780019Y-100615952D02*
X134744495Y-100544904D01*
X134744495Y-100544904D02*
X134708971Y-100509380D01*
X134708971Y-100509380D02*
X134637924Y-100473856D01*
X134637924Y-100473856D02*
X134424781Y-100473856D01*
X134424781Y-100473856D02*
X134353733Y-100509380D01*
X134353733Y-100509380D02*
X134318210Y-100544904D01*
X134318210Y-100544904D02*
X134282686Y-100615952D01*
X134282686Y-100615952D02*
X134282686Y-100758047D01*
X134282686Y-100758047D02*
X134318210Y-100829094D01*
X134282686Y-99834428D02*
X134673448Y-99834428D01*
X134673448Y-99834428D02*
X134744495Y-99869952D01*
X134744495Y-99869952D02*
X134780019Y-99941000D01*
X134780019Y-99941000D02*
X134780019Y-100083095D01*
X134780019Y-100083095D02*
X134744495Y-100154142D01*
X134318210Y-99834428D02*
X134282686Y-99905476D01*
X134282686Y-99905476D02*
X134282686Y-100083095D01*
X134282686Y-100083095D02*
X134318210Y-100154142D01*
X134318210Y-100154142D02*
X134389257Y-100189666D01*
X134389257Y-100189666D02*
X134460305Y-100189666D01*
X134460305Y-100189666D02*
X134531352Y-100154142D01*
X134531352Y-100154142D02*
X134566876Y-100083095D01*
X134566876Y-100083095D02*
X134566876Y-99905476D01*
X134566876Y-99905476D02*
X134602400Y-99834428D01*
X134282686Y-99479190D02*
X134780019Y-99479190D01*
X134637924Y-99479190D02*
X134708971Y-99443667D01*
X134708971Y-99443667D02*
X134744495Y-99408143D01*
X134744495Y-99408143D02*
X134780019Y-99337095D01*
X134780019Y-99337095D02*
X134780019Y-99266048D01*
X134780019Y-99123952D02*
X134780019Y-98839761D01*
X135028686Y-99017380D02*
X134389257Y-99017380D01*
X134389257Y-99017380D02*
X134318210Y-98981857D01*
X134318210Y-98981857D02*
X134282686Y-98910809D01*
X134282686Y-98910809D02*
X134282686Y-98839761D01*
X134282686Y-98271380D02*
X134673448Y-98271380D01*
X134673448Y-98271380D02*
X134744495Y-98306904D01*
X134744495Y-98306904D02*
X134780019Y-98377952D01*
X134780019Y-98377952D02*
X134780019Y-98520047D01*
X134780019Y-98520047D02*
X134744495Y-98591094D01*
X134318210Y-98271380D02*
X134282686Y-98342428D01*
X134282686Y-98342428D02*
X134282686Y-98520047D01*
X134282686Y-98520047D02*
X134318210Y-98591094D01*
X134318210Y-98591094D02*
X134389257Y-98626618D01*
X134389257Y-98626618D02*
X134460305Y-98626618D01*
X134460305Y-98626618D02*
X134531352Y-98591094D01*
X134531352Y-98591094D02*
X134566876Y-98520047D01*
X134566876Y-98520047D02*
X134566876Y-98342428D01*
X134566876Y-98342428D02*
X134602400Y-98271380D01*
X134780019Y-97916142D02*
X134282686Y-97916142D01*
X134708971Y-97916142D02*
X134744495Y-97880619D01*
X134744495Y-97880619D02*
X134780019Y-97809571D01*
X134780019Y-97809571D02*
X134780019Y-97703000D01*
X134780019Y-97703000D02*
X134744495Y-97631952D01*
X134744495Y-97631952D02*
X134673448Y-97596428D01*
X134673448Y-97596428D02*
X134282686Y-97596428D01*
X128984047Y-91609104D02*
X128507857Y-91609104D01*
X129079285Y-91894819D02*
X128745952Y-90894819D01*
X128745952Y-90894819D02*
X128412619Y-91894819D01*
X127650714Y-91894819D02*
X127650714Y-90894819D01*
X127650714Y-91847200D02*
X127745952Y-91894819D01*
X127745952Y-91894819D02*
X127936428Y-91894819D01*
X127936428Y-91894819D02*
X128031666Y-91847200D01*
X128031666Y-91847200D02*
X128079285Y-91799580D01*
X128079285Y-91799580D02*
X128126904Y-91704342D01*
X128126904Y-91704342D02*
X128126904Y-91418628D01*
X128126904Y-91418628D02*
X128079285Y-91323390D01*
X128079285Y-91323390D02*
X128031666Y-91275771D01*
X128031666Y-91275771D02*
X127936428Y-91228152D01*
X127936428Y-91228152D02*
X127745952Y-91228152D01*
X127745952Y-91228152D02*
X127650714Y-91275771D01*
X126745952Y-91894819D02*
X126745952Y-91371009D01*
X126745952Y-91371009D02*
X126793571Y-91275771D01*
X126793571Y-91275771D02*
X126888809Y-91228152D01*
X126888809Y-91228152D02*
X127079285Y-91228152D01*
X127079285Y-91228152D02*
X127174523Y-91275771D01*
X126745952Y-91847200D02*
X126841190Y-91894819D01*
X126841190Y-91894819D02*
X127079285Y-91894819D01*
X127079285Y-91894819D02*
X127174523Y-91847200D01*
X127174523Y-91847200D02*
X127222142Y-91751961D01*
X127222142Y-91751961D02*
X127222142Y-91656723D01*
X127222142Y-91656723D02*
X127174523Y-91561485D01*
X127174523Y-91561485D02*
X127079285Y-91513866D01*
X127079285Y-91513866D02*
X126841190Y-91513866D01*
X126841190Y-91513866D02*
X126745952Y-91466247D01*
X126269761Y-91228152D02*
X126269761Y-92228152D01*
X126269761Y-91275771D02*
X126174523Y-91228152D01*
X126174523Y-91228152D02*
X125984047Y-91228152D01*
X125984047Y-91228152D02*
X125888809Y-91275771D01*
X125888809Y-91275771D02*
X125841190Y-91323390D01*
X125841190Y-91323390D02*
X125793571Y-91418628D01*
X125793571Y-91418628D02*
X125793571Y-91704342D01*
X125793571Y-91704342D02*
X125841190Y-91799580D01*
X125841190Y-91799580D02*
X125888809Y-91847200D01*
X125888809Y-91847200D02*
X125984047Y-91894819D01*
X125984047Y-91894819D02*
X126174523Y-91894819D01*
X126174523Y-91894819D02*
X126269761Y-91847200D01*
X125507856Y-91228152D02*
X125126904Y-91228152D01*
X125364999Y-90894819D02*
X125364999Y-91751961D01*
X125364999Y-91751961D02*
X125317380Y-91847200D01*
X125317380Y-91847200D02*
X125222142Y-91894819D01*
X125222142Y-91894819D02*
X125126904Y-91894819D01*
X124412618Y-91847200D02*
X124507856Y-91894819D01*
X124507856Y-91894819D02*
X124698332Y-91894819D01*
X124698332Y-91894819D02*
X124793570Y-91847200D01*
X124793570Y-91847200D02*
X124841189Y-91751961D01*
X124841189Y-91751961D02*
X124841189Y-91371009D01*
X124841189Y-91371009D02*
X124793570Y-91275771D01*
X124793570Y-91275771D02*
X124698332Y-91228152D01*
X124698332Y-91228152D02*
X124507856Y-91228152D01*
X124507856Y-91228152D02*
X124412618Y-91275771D01*
X124412618Y-91275771D02*
X124364999Y-91371009D01*
X124364999Y-91371009D02*
X124364999Y-91466247D01*
X124364999Y-91466247D02*
X124841189Y-91561485D01*
X123936427Y-91894819D02*
X123936427Y-91228152D01*
X123936427Y-91418628D02*
X123888808Y-91323390D01*
X123888808Y-91323390D02*
X123841189Y-91275771D01*
X123841189Y-91275771D02*
X123745951Y-91228152D01*
X123745951Y-91228152D02*
X123650713Y-91228152D01*
X129349332Y-103594819D02*
X129015999Y-104594819D01*
X129015999Y-104594819D02*
X128682666Y-103594819D01*
X127777904Y-104499580D02*
X127825523Y-104547200D01*
X127825523Y-104547200D02*
X127968380Y-104594819D01*
X127968380Y-104594819D02*
X128063618Y-104594819D01*
X128063618Y-104594819D02*
X128206475Y-104547200D01*
X128206475Y-104547200D02*
X128301713Y-104451961D01*
X128301713Y-104451961D02*
X128349332Y-104356723D01*
X128349332Y-104356723D02*
X128396951Y-104166247D01*
X128396951Y-104166247D02*
X128396951Y-104023390D01*
X128396951Y-104023390D02*
X128349332Y-103832914D01*
X128349332Y-103832914D02*
X128301713Y-103737676D01*
X128301713Y-103737676D02*
X128206475Y-103642438D01*
X128206475Y-103642438D02*
X128063618Y-103594819D01*
X128063618Y-103594819D02*
X127968380Y-103594819D01*
X127968380Y-103594819D02*
X127825523Y-103642438D01*
X127825523Y-103642438D02*
X127777904Y-103690057D01*
X126777904Y-104499580D02*
X126825523Y-104547200D01*
X126825523Y-104547200D02*
X126968380Y-104594819D01*
X126968380Y-104594819D02*
X127063618Y-104594819D01*
X127063618Y-104594819D02*
X127206475Y-104547200D01*
X127206475Y-104547200D02*
X127301713Y-104451961D01*
X127301713Y-104451961D02*
X127349332Y-104356723D01*
X127349332Y-104356723D02*
X127396951Y-104166247D01*
X127396951Y-104166247D02*
X127396951Y-104023390D01*
X127396951Y-104023390D02*
X127349332Y-103832914D01*
X127349332Y-103832914D02*
X127301713Y-103737676D01*
X127301713Y-103737676D02*
X127206475Y-103642438D01*
X127206475Y-103642438D02*
X127063618Y-103594819D01*
X127063618Y-103594819D02*
X126968380Y-103594819D01*
X126968380Y-103594819D02*
X126825523Y-103642438D01*
X126825523Y-103642438D02*
X126777904Y-103690057D01*
X134282686Y-96281952D02*
X134637924Y-96530618D01*
X134282686Y-96708237D02*
X135028686Y-96708237D01*
X135028686Y-96708237D02*
X135028686Y-96424047D01*
X135028686Y-96424047D02*
X134993162Y-96352999D01*
X134993162Y-96352999D02*
X134957638Y-96317476D01*
X134957638Y-96317476D02*
X134886590Y-96281952D01*
X134886590Y-96281952D02*
X134780019Y-96281952D01*
X134780019Y-96281952D02*
X134708971Y-96317476D01*
X134708971Y-96317476D02*
X134673448Y-96352999D01*
X134673448Y-96352999D02*
X134637924Y-96424047D01*
X134637924Y-96424047D02*
X134637924Y-96708237D01*
X134282686Y-95855666D02*
X134318210Y-95926714D01*
X134318210Y-95926714D02*
X134353733Y-95962237D01*
X134353733Y-95962237D02*
X134424781Y-95997761D01*
X134424781Y-95997761D02*
X134637924Y-95997761D01*
X134637924Y-95997761D02*
X134708971Y-95962237D01*
X134708971Y-95962237D02*
X134744495Y-95926714D01*
X134744495Y-95926714D02*
X134780019Y-95855666D01*
X134780019Y-95855666D02*
X134780019Y-95749095D01*
X134780019Y-95749095D02*
X134744495Y-95678047D01*
X134744495Y-95678047D02*
X134708971Y-95642523D01*
X134708971Y-95642523D02*
X134637924Y-95606999D01*
X134637924Y-95606999D02*
X134424781Y-95606999D01*
X134424781Y-95606999D02*
X134353733Y-95642523D01*
X134353733Y-95642523D02*
X134318210Y-95678047D01*
X134318210Y-95678047D02*
X134282686Y-95749095D01*
X134282686Y-95749095D02*
X134282686Y-95855666D01*
X134282686Y-95287285D02*
X135028686Y-95287285D01*
X134744495Y-95287285D02*
X134780019Y-95216238D01*
X134780019Y-95216238D02*
X134780019Y-95074143D01*
X134780019Y-95074143D02*
X134744495Y-95003095D01*
X134744495Y-95003095D02*
X134708971Y-94967571D01*
X134708971Y-94967571D02*
X134637924Y-94932047D01*
X134637924Y-94932047D02*
X134424781Y-94932047D01*
X134424781Y-94932047D02*
X134353733Y-94967571D01*
X134353733Y-94967571D02*
X134318210Y-95003095D01*
X134318210Y-95003095D02*
X134282686Y-95074143D01*
X134282686Y-95074143D02*
X134282686Y-95216238D01*
X134282686Y-95216238D02*
X134318210Y-95287285D01*
X134282686Y-94505762D02*
X134318210Y-94576810D01*
X134318210Y-94576810D02*
X134353733Y-94612333D01*
X134353733Y-94612333D02*
X134424781Y-94647857D01*
X134424781Y-94647857D02*
X134637924Y-94647857D01*
X134637924Y-94647857D02*
X134708971Y-94612333D01*
X134708971Y-94612333D02*
X134744495Y-94576810D01*
X134744495Y-94576810D02*
X134780019Y-94505762D01*
X134780019Y-94505762D02*
X134780019Y-94399191D01*
X134780019Y-94399191D02*
X134744495Y-94328143D01*
X134744495Y-94328143D02*
X134708971Y-94292619D01*
X134708971Y-94292619D02*
X134637924Y-94257095D01*
X134637924Y-94257095D02*
X134424781Y-94257095D01*
X134424781Y-94257095D02*
X134353733Y-94292619D01*
X134353733Y-94292619D02*
X134318210Y-94328143D01*
X134318210Y-94328143D02*
X134282686Y-94399191D01*
X134282686Y-94399191D02*
X134282686Y-94505762D01*
X134780019Y-94043953D02*
X134780019Y-93759762D01*
X135028686Y-93937381D02*
X134389257Y-93937381D01*
X134389257Y-93937381D02*
X134318210Y-93901858D01*
X134318210Y-93901858D02*
X134282686Y-93830810D01*
X134282686Y-93830810D02*
X134282686Y-93759762D01*
X134282686Y-93511095D02*
X134780019Y-93511095D01*
X135028686Y-93511095D02*
X134993162Y-93546619D01*
X134993162Y-93546619D02*
X134957638Y-93511095D01*
X134957638Y-93511095D02*
X134993162Y-93475572D01*
X134993162Y-93475572D02*
X135028686Y-93511095D01*
X135028686Y-93511095D02*
X134957638Y-93511095D01*
X134318210Y-92836143D02*
X134282686Y-92907191D01*
X134282686Y-92907191D02*
X134282686Y-93049286D01*
X134282686Y-93049286D02*
X134318210Y-93120334D01*
X134318210Y-93120334D02*
X134353733Y-93155857D01*
X134353733Y-93155857D02*
X134424781Y-93191381D01*
X134424781Y-93191381D02*
X134637924Y-93191381D01*
X134637924Y-93191381D02*
X134708971Y-93155857D01*
X134708971Y-93155857D02*
X134744495Y-93120334D01*
X134744495Y-93120334D02*
X134780019Y-93049286D01*
X134780019Y-93049286D02*
X134780019Y-92907191D01*
X134780019Y-92907191D02*
X134744495Y-92836143D01*
X134318210Y-92551952D02*
X134282686Y-92480905D01*
X134282686Y-92480905D02*
X134282686Y-92338809D01*
X134282686Y-92338809D02*
X134318210Y-92267762D01*
X134318210Y-92267762D02*
X134389257Y-92232238D01*
X134389257Y-92232238D02*
X134424781Y-92232238D01*
X134424781Y-92232238D02*
X134495829Y-92267762D01*
X134495829Y-92267762D02*
X134531352Y-92338809D01*
X134531352Y-92338809D02*
X134531352Y-92445381D01*
X134531352Y-92445381D02*
X134566876Y-92516428D01*
X134566876Y-92516428D02*
X134637924Y-92551952D01*
X134637924Y-92551952D02*
X134673448Y-92551952D01*
X134673448Y-92551952D02*
X134744495Y-92516428D01*
X134744495Y-92516428D02*
X134780019Y-92445381D01*
X134780019Y-92445381D02*
X134780019Y-92338809D01*
X134780019Y-92338809D02*
X134744495Y-92267762D01*
X128254094Y-101769104D02*
X127777904Y-101769104D01*
X128349332Y-102054819D02*
X128015999Y-101054819D01*
X128015999Y-101054819D02*
X127682666Y-102054819D01*
X127944571Y-98991009D02*
X127801714Y-99038628D01*
X127801714Y-99038628D02*
X127754095Y-99086247D01*
X127754095Y-99086247D02*
X127706476Y-99181485D01*
X127706476Y-99181485D02*
X127706476Y-99324342D01*
X127706476Y-99324342D02*
X127754095Y-99419580D01*
X127754095Y-99419580D02*
X127801714Y-99467200D01*
X127801714Y-99467200D02*
X127896952Y-99514819D01*
X127896952Y-99514819D02*
X128277904Y-99514819D01*
X128277904Y-99514819D02*
X128277904Y-98514819D01*
X128277904Y-98514819D02*
X127944571Y-98514819D01*
X127944571Y-98514819D02*
X127849333Y-98562438D01*
X127849333Y-98562438D02*
X127801714Y-98610057D01*
X127801714Y-98610057D02*
X127754095Y-98705295D01*
X127754095Y-98705295D02*
X127754095Y-98800533D01*
X127754095Y-98800533D02*
X127801714Y-98895771D01*
X127801714Y-98895771D02*
X127849333Y-98943390D01*
X127849333Y-98943390D02*
X127944571Y-98991009D01*
X127944571Y-98991009D02*
X128277904Y-98991009D01*
X130373095Y-90101009D02*
X130039762Y-90101009D01*
X129896905Y-90624819D02*
X130373095Y-90624819D01*
X130373095Y-90624819D02*
X130373095Y-89624819D01*
X130373095Y-89624819D02*
X129896905Y-89624819D01*
X129468333Y-89958152D02*
X129468333Y-90624819D01*
X129468333Y-90053390D02*
X129420714Y-90005771D01*
X129420714Y-90005771D02*
X129325476Y-89958152D01*
X129325476Y-89958152D02*
X129182619Y-89958152D01*
X129182619Y-89958152D02*
X129087381Y-90005771D01*
X129087381Y-90005771D02*
X129039762Y-90101009D01*
X129039762Y-90101009D02*
X129039762Y-90624819D01*
X128135000Y-90577200D02*
X128230238Y-90624819D01*
X128230238Y-90624819D02*
X128420714Y-90624819D01*
X128420714Y-90624819D02*
X128515952Y-90577200D01*
X128515952Y-90577200D02*
X128563571Y-90529580D01*
X128563571Y-90529580D02*
X128611190Y-90434342D01*
X128611190Y-90434342D02*
X128611190Y-90148628D01*
X128611190Y-90148628D02*
X128563571Y-90053390D01*
X128563571Y-90053390D02*
X128515952Y-90005771D01*
X128515952Y-90005771D02*
X128420714Y-89958152D01*
X128420714Y-89958152D02*
X128230238Y-89958152D01*
X128230238Y-89958152D02*
X128135000Y-90005771D01*
X127563571Y-90624819D02*
X127658809Y-90577200D01*
X127658809Y-90577200D02*
X127706428Y-90529580D01*
X127706428Y-90529580D02*
X127754047Y-90434342D01*
X127754047Y-90434342D02*
X127754047Y-90148628D01*
X127754047Y-90148628D02*
X127706428Y-90053390D01*
X127706428Y-90053390D02*
X127658809Y-90005771D01*
X127658809Y-90005771D02*
X127563571Y-89958152D01*
X127563571Y-89958152D02*
X127420714Y-89958152D01*
X127420714Y-89958152D02*
X127325476Y-90005771D01*
X127325476Y-90005771D02*
X127277857Y-90053390D01*
X127277857Y-90053390D02*
X127230238Y-90148628D01*
X127230238Y-90148628D02*
X127230238Y-90434342D01*
X127230238Y-90434342D02*
X127277857Y-90529580D01*
X127277857Y-90529580D02*
X127325476Y-90577200D01*
X127325476Y-90577200D02*
X127420714Y-90624819D01*
X127420714Y-90624819D02*
X127563571Y-90624819D01*
X126373095Y-90624819D02*
X126373095Y-89624819D01*
X126373095Y-90577200D02*
X126468333Y-90624819D01*
X126468333Y-90624819D02*
X126658809Y-90624819D01*
X126658809Y-90624819D02*
X126754047Y-90577200D01*
X126754047Y-90577200D02*
X126801666Y-90529580D01*
X126801666Y-90529580D02*
X126849285Y-90434342D01*
X126849285Y-90434342D02*
X126849285Y-90148628D01*
X126849285Y-90148628D02*
X126801666Y-90053390D01*
X126801666Y-90053390D02*
X126754047Y-90005771D01*
X126754047Y-90005771D02*
X126658809Y-89958152D01*
X126658809Y-89958152D02*
X126468333Y-89958152D01*
X126468333Y-89958152D02*
X126373095Y-90005771D01*
X125515952Y-90577200D02*
X125611190Y-90624819D01*
X125611190Y-90624819D02*
X125801666Y-90624819D01*
X125801666Y-90624819D02*
X125896904Y-90577200D01*
X125896904Y-90577200D02*
X125944523Y-90481961D01*
X125944523Y-90481961D02*
X125944523Y-90101009D01*
X125944523Y-90101009D02*
X125896904Y-90005771D01*
X125896904Y-90005771D02*
X125801666Y-89958152D01*
X125801666Y-89958152D02*
X125611190Y-89958152D01*
X125611190Y-89958152D02*
X125515952Y-90005771D01*
X125515952Y-90005771D02*
X125468333Y-90101009D01*
X125468333Y-90101009D02*
X125468333Y-90196247D01*
X125468333Y-90196247D02*
X125944523Y-90291485D01*
X125039761Y-90624819D02*
X125039761Y-89958152D01*
X125039761Y-90148628D02*
X124992142Y-90053390D01*
X124992142Y-90053390D02*
X124944523Y-90005771D01*
X124944523Y-90005771D02*
X124849285Y-89958152D01*
X124849285Y-89958152D02*
X124754047Y-89958152D01*
X122882819Y-106894333D02*
X122406628Y-106561000D01*
X122882819Y-106322905D02*
X121882819Y-106322905D01*
X121882819Y-106322905D02*
X121882819Y-106703857D01*
X121882819Y-106703857D02*
X121930438Y-106799095D01*
X121930438Y-106799095D02*
X121978057Y-106846714D01*
X121978057Y-106846714D02*
X122073295Y-106894333D01*
X122073295Y-106894333D02*
X122216152Y-106894333D01*
X122216152Y-106894333D02*
X122311390Y-106846714D01*
X122311390Y-106846714D02*
X122359009Y-106799095D01*
X122359009Y-106799095D02*
X122406628Y-106703857D01*
X122406628Y-106703857D02*
X122406628Y-106322905D01*
X122882819Y-107846714D02*
X122882819Y-107275286D01*
X122882819Y-107561000D02*
X121882819Y-107561000D01*
X121882819Y-107561000D02*
X122025676Y-107465762D01*
X122025676Y-107465762D02*
X122120914Y-107370524D01*
X122120914Y-107370524D02*
X122168533Y-107275286D01*
X130278094Y-112849819D02*
X130278094Y-111849819D01*
X130278094Y-111849819D02*
X130039999Y-111849819D01*
X130039999Y-111849819D02*
X129897142Y-111897438D01*
X129897142Y-111897438D02*
X129801904Y-111992676D01*
X129801904Y-111992676D02*
X129754285Y-112087914D01*
X129754285Y-112087914D02*
X129706666Y-112278390D01*
X129706666Y-112278390D02*
X129706666Y-112421247D01*
X129706666Y-112421247D02*
X129754285Y-112611723D01*
X129754285Y-112611723D02*
X129801904Y-112706961D01*
X129801904Y-112706961D02*
X129897142Y-112802200D01*
X129897142Y-112802200D02*
X130039999Y-112849819D01*
X130039999Y-112849819D02*
X130278094Y-112849819D01*
X128754285Y-112849819D02*
X129325713Y-112849819D01*
X129039999Y-112849819D02*
X129039999Y-111849819D01*
X129039999Y-111849819D02*
X129135237Y-111992676D01*
X129135237Y-111992676D02*
X129230475Y-112087914D01*
X129230475Y-112087914D02*
X129325713Y-112135533D01*
D11*
%TO.C,R1*%
X123163000Y-110008936D02*
X123163000Y-110463064D01*
X121693000Y-110008936D02*
X121693000Y-110463064D01*
%TO.C,D1*%
X128190489Y-113403000D02*
X124305489Y-113403000D01*
X128190489Y-111133000D02*
X128190489Y-113403000D01*
X124305489Y-111133000D02*
X128190489Y-111133000D01*
%TD*%
M02*
