<?xml version="1.0" standalone="no"?>
 <!DOCTYPE svg PUBLIC "-//W3C//DTD SVG 1.1//EN" 
 "http://www.w3.org/Graphics/SVG/1.1/DTD/svg11.dtd"> 
<svg
  xmlns:svg="http://www.w3.org/2000/svg"
  xmlns="http://www.w3.org/2000/svg"
  xmlns:xlink="http://www.w3.org/1999/xlink"
  version="1.1"
  width="297.0022mm" height="210.0072mm" viewBox="0.0000 0.0000 297.0022 210.0072">
<title>SVG Image created as MIPI2HDMI-drl_map.svg date 2023/11/23 16:05:51 </title>
  <desc>Image generated by PCBNEW </desc>
<g style="fill:#000000; fill-opacity:1.0000;stroke:#000000; stroke-opacity:1.0000;
stroke-linecap:round; stroke-linejoin:round;"
 transform="translate(0 0) scale(1 1)">
</g>
<g style="fill:#000000; fill-opacity:0.0; 
stroke:#000000; stroke-width:0.0000; stroke-opacity:1; 
stroke-linecap:round; stroke-linejoin:round;">
</g>
<g style="fill:#000000; fill-opacity:0.0; 
stroke:#000000; stroke-width:0.3000; stroke-opacity:1; 
stroke-linecap:round; stroke-linejoin:round;">
<path d="M182.4741 16.7977
L114.5301 16.7977
" />
<path d="M114.5301 16.7977 A11.0931 11.0931 0.0 0 0 92.4090 17.9977" />
<path d="M92.4001 107.9977 A11.1020 11.1020 0.0 0 0 114.5391 109.1977" />
<path d="M204.5952 17.9977
L204.6021 107.9977
" />
<path d="M92.4090 17.9977
L92.4001 107.9977
" />
<path d="M182.4672 109.1978 A11.1000 11.1000 0.0 0 0 204.6021 107.9977" />
<path d="M114.5391 109.1977
L182.4681 109.1977
" />
<path d="M204.5952 17.9977 A11.0931 11.0931 0.0 0 0 182.4741 16.7977" />
</g>
<g style="fill:#000000; fill-opacity:0.0; 
stroke:#000000; stroke-width:0.6000; stroke-opacity:1; 
stroke-linecap:round; stroke-linejoin:round;">
</g>
<g style="fill:#000000; fill-opacity:0.0; 
stroke:#000000; stroke-width:0.1200; stroke-opacity:1; 
stroke-linecap:round; stroke-linejoin:round;">
<path d="M109.8606 51.1177
L111.0606 52.3177
" />
<path d="M111.0606 51.1177
L109.8606 52.3177
" />
<path d="M111.6021 84.6877
L112.8021 85.8877
" />
<path d="M112.8021 84.6877
L111.6021 85.8877
" />
<path d="M111.6021 87.6877
L112.8021 88.8877
" />
<path d="M112.8021 87.6877
L111.6021 88.8877
" />
<path d="M111.6021 90.6877
L112.8021 91.8877
" />
<path d="M112.8021 90.6877
L111.6021 91.8877
" />
<path d="M114.6021 80.1877
L115.8021 81.3877
" />
<path d="M115.8021 80.1877
L114.6021 81.3877
" />
<path d="M114.6021 95.1877
L115.8021 96.3877
" />
<path d="M115.8021 95.1877
L114.6021 96.3877
" />
<path d="M117.6021 80.1877
L118.8021 81.3877
" />
<path d="M118.8021 80.1877
L117.6021 81.3877
" />
<path d="M117.6021 95.1877
L118.8021 96.3877
" />
<path d="M118.8021 95.1877
L117.6021 96.3877
" />
<path d="M120.6021 95.1877
L121.8021 96.3877
" />
<path d="M121.8021 95.1877
L120.6021 96.3877
" />
<path d="M123.6021 84.6877
L124.8021 85.8877
" />
<path d="M124.8021 84.6877
L123.6021 85.8877
" />
<path d="M123.6021 87.6877
L124.8021 88.8877
" />
<path d="M124.8021 87.6877
L123.6021 88.8877
" />
<path d="M123.6021 90.6877
L124.8021 91.8877
" />
<path d="M124.8021 90.6877
L123.6021 91.8877
" />
<path d="M135.9021 39.2377
L137.1021 40.4377
" />
<path d="M137.1021 39.2377
L135.9021 40.4377
" />
<path d="M140.4021 39.2377
L141.6021 40.4377
" />
<path d="M141.6021 39.2377
L140.4021 40.4377
" />
<path d="M141.8991 84.4117
L143.0991 85.6117
" />
<path d="M143.0991 84.4117
L141.8991 85.6117
" />
<path d="M141.9021 74.0377
L143.1021 75.2377
" />
<path d="M143.1021 74.0377
L141.9021 75.2377
" />
<path d="M144.9021 39.2377
L146.1021 40.4377
" />
<path d="M146.1021 39.2377
L144.9021 40.4377
" />
<path d="M149.4021 39.2377
L150.6021 40.4377
" />
<path d="M150.6021 39.2377
L149.4021 40.4377
" />
<path d="M150.8991 84.4117
L152.0991 85.6117
" />
<path d="M152.0991 84.4117
L150.8991 85.6117
" />
<path d="M150.9021 74.1877
L152.1021 75.3877
" />
<path d="M152.1021 74.1877
L150.9021 75.3877
" />
<path d="M158.4021 51.0877
L159.6021 52.2877
" />
<path d="M159.6021 51.0877
L158.4021 52.2877
" />
<path d="M159.8421 22.0777
L161.0421 23.2777
" />
<path d="M161.0421 22.0777
L159.8421 23.2777
" />
<path d="M159.8991 84.4117
L161.0991 85.6117
" />
<path d="M161.0991 84.4117
L159.8991 85.6117
" />
<path d="M159.9021 74.1877
L161.1021 75.3877
" />
<path d="M161.1021 74.1877
L159.9021 75.3877
" />
<path d="M168.8991 84.4273
L170.0991 85.6273
" />
<path d="M170.0991 84.4273
L168.8991 85.6273
" />
<path d="M168.9021 74.1877
L170.1021 75.3877
" />
<path d="M170.1021 74.1877
L168.9021 75.3877
" />
<path d="M171.6021 87.6877
L172.8021 88.8877
" />
<path d="M172.8021 87.6877
L171.6021 88.8877
" />
<path d="M171.6021 90.6877
L172.8021 91.8877
" />
<path d="M172.8021 90.6877
L171.6021 91.8877
" />
<path d="M174.6021 80.1877
L175.8021 81.3877
" />
<path d="M175.8021 80.1877
L174.6021 81.3877
" />
<path d="M174.6021 95.1877
L175.8021 96.3877
" />
<path d="M175.8021 95.1877
L174.6021 96.3877
" />
<path d="M177.6021 80.1877
L178.8021 81.3877
" />
<path d="M178.8021 80.1877
L177.6021 81.3877
" />
<path d="M177.6021 95.1877
L178.8021 96.3877
" />
<path d="M178.8021 95.1877
L177.6021 96.3877
" />
<path d="M180.6021 80.1877
L181.8021 81.3877
" />
<path d="M181.8021 80.1877
L180.6021 81.3877
" />
<path d="M180.6021 95.1877
L181.8021 96.3877
" />
<path d="M181.8021 95.1877
L180.6021 96.3877
" />
<path d="M183.6021 84.6877
L184.8021 85.8877
" />
<path d="M184.8021 84.6877
L183.6021 85.8877
" />
<path d="M183.6021 87.6877
L184.8021 88.8877
" />
<path d="M184.8021 87.6877
L183.6021 88.8877
" />
<path d="M183.6021 90.6877
L184.8021 91.8877
" />
<path d="M184.8021 90.6877
L183.6021 91.8877
" />
</g>
<g style="fill:#000000; fill-opacity:0.0; 
stroke:#000000; stroke-width:0.2700; stroke-opacity:1; 
stroke-linecap:round; stroke-linejoin:round;">
<circle cx="126.7521" cy="25.4077" r="1.3500" /> 
</g>
<g style="fill:#000000; fill-opacity:0.0; 
stroke:#000000; stroke-width:0.6000; stroke-opacity:1; 
stroke-linecap:round; stroke-linejoin:round;">
<path d="M128.1021 26.6077
L128.1021 24.2077
" />
<path d="M128.1021 24.2077 A1.3500 1.3500 0.0 0 0 125.4021 24.2077" />
<path d="M125.4021 24.2077
L125.4021 26.6077
" />
<path d="M125.4021 26.6077 A1.3500 1.3500 0.0 0 0 128.1021 26.6077" />
</g>
<g style="fill:#000000; fill-opacity:0.0; 
stroke:#000000; stroke-width:0.2700; stroke-opacity:1; 
stroke-linecap:round; stroke-linejoin:round;">
<circle cx="126.7521" cy="43.2877" r="1.3500" /> 
</g>
<g style="fill:#000000; fill-opacity:0.0; 
stroke:#000000; stroke-width:0.6000; stroke-opacity:1; 
stroke-linecap:round; stroke-linejoin:round;">
<path d="M128.1021 45.9877
L128.1021 40.5877
" />
<path d="M128.1021 40.5877 A1.3500 1.3500 0.0 0 0 125.4021 40.5877" />
<path d="M125.4021 40.5877
L125.4021 45.9877
" />
<path d="M125.4021 45.9877 A1.3500 1.3500 0.0 0 0 128.1021 45.9877" />
</g>
<g style="fill:#000000; fill-opacity:0.0; 
stroke:#000000; stroke-width:0.2700; stroke-opacity:1; 
stroke-linecap:round; stroke-linejoin:round;">
<circle cx="170.2521" cy="25.4077" r="1.3500" /> 
</g>
<g style="fill:#000000; fill-opacity:0.0; 
stroke:#000000; stroke-width:0.6000; stroke-opacity:1; 
stroke-linecap:round; stroke-linejoin:round;">
<path d="M171.6021 26.6077
L171.6021 24.2077
" />
<path d="M171.6021 24.2077 A1.3500 1.3500 0.0 0 0 168.9021 24.2077" />
<path d="M168.9021 24.2077
L168.9021 26.6077
" />
<path d="M168.9021 26.6077 A1.3500 1.3500 0.0 0 0 171.6021 26.6077" />
</g>
<g style="fill:#000000; fill-opacity:0.0; 
stroke:#000000; stroke-width:0.2700; stroke-opacity:1; 
stroke-linecap:round; stroke-linejoin:round;">
<circle cx="170.2521" cy="43.2877" r="1.3500" /> 
</g>
<g style="fill:#000000; fill-opacity:0.0; 
stroke:#000000; stroke-width:0.6000; stroke-opacity:1; 
stroke-linecap:round; stroke-linejoin:round;">
<path d="M171.6021 45.9877
L171.6021 40.5877
" />
<path d="M171.6021 40.5877 A1.3500 1.3500 0.0 0 0 168.9021 40.5877" />
<path d="M168.9021 40.5877
L168.9021 45.9877
" />
<path d="M168.9021 45.9877 A1.3500 1.3500 0.0 0 0 171.6021 45.9877" />
</g>
<g style="fill:#000000; fill-opacity:0.0; 
stroke:#000000; stroke-width:0.8700; stroke-opacity:1; 
stroke-linecap:round; stroke-linejoin:round;">
<path d="M103.5021 13.6477
L103.5021 22.3477
" />
<path d="M99.1521 17.9977
L107.8521 17.9977
" />
<path d="M103.5021 103.6477
L103.5021 112.3477
" />
<path d="M99.1521 107.9977
L107.8521 107.9977
" />
<path d="M193.5021 13.6477
L193.5021 22.3477
" />
<path d="M189.1521 17.9977
L197.8521 17.9977
" />
<path d="M193.5021 103.6477
L193.5021 112.3477
" />
<path d="M189.1521 107.9977
L197.8521 107.9977
" />
</g>
<g style="fill:#000000; fill-opacity:0.0; 
stroke:#000000; stroke-width:0.6000; stroke-opacity:1; 
stroke-linecap:round; stroke-linejoin:round;">
</g>
<g style="fill:#000000; fill-opacity:0.0; 
stroke:#000000; stroke-width:0.2000; stroke-opacity:1; 
stroke-linecap:round; stroke-linejoin:round;">
<text x="94.2501" y="122.4497"
textLength="14.8667" font-size="2.6667" lengthAdjust="spacingAndGlyphs"
text-anchor="start" opacity="0">Drill Map:</text>
<g class="stroked-text"><desc>Drill Map:</desc>
<path d="M94.8578 122.3646
L94.8578 120.3646
" />
<path d="M94.8578 120.3646
L95.3340 120.3646
" />
<path d="M95.3340 120.3646
L95.6198 120.4598
" />
<path d="M95.6198 120.4598
L95.8102 120.6503
" />
<path d="M95.8102 120.6503
L95.9055 120.8408
" />
<path d="M95.9055 120.8408
L96.0007 121.2217
" />
<path d="M96.0007 121.2217
L96.0007 121.5074
" />
<path d="M96.0007 121.5074
L95.9055 121.8884
" />
<path d="M95.9055 121.8884
L95.8102 122.0789
" />
<path d="M95.8102 122.0789
L95.6198 122.2693
" />
<path d="M95.6198 122.2693
L95.3340 122.3646
" />
<path d="M95.3340 122.3646
L94.8578 122.3646
" />
<path d="M96.8578 122.3646
L96.8578 121.0312
" />
<path d="M96.8578 121.4122
L96.9531 121.2217
" />
<path d="M96.9531 121.2217
L97.0483 121.1265
" />
<path d="M97.0483 121.1265
L97.2388 121.0312
" />
<path d="M97.2388 121.0312
L97.4293 121.0312
" />
<path d="M98.0959 122.3646
L98.0959 121.0312
" />
<path d="M98.0959 120.3646
L98.0007 120.4598
" />
<path d="M98.0007 120.4598
L98.0959 120.5550
" />
<path d="M98.0959 120.5550
L98.1912 120.4598
" />
<path d="M98.1912 120.4598
L98.0959 120.3646
" />
<path d="M98.0959 120.3646
L98.0959 120.5550
" />
<path d="M99.3340 122.3646
L99.1436 122.2693
" />
<path d="M99.1436 122.2693
L99.0483 122.0789
" />
<path d="M99.0483 122.0789
L99.0483 120.3646
" />
<path d="M100.3817 122.3646
L100.1912 122.2693
" />
<path d="M100.1912 122.2693
L100.0959 122.0789
" />
<path d="M100.0959 122.0789
L100.0959 120.3646
" />
<path d="M102.6674 122.3646
L102.6674 120.3646
" />
<path d="M102.6674 120.3646
L103.3340 121.7931
" />
<path d="M103.3340 121.7931
L104.0007 120.3646
" />
<path d="M104.0007 120.3646
L104.0007 122.3646
" />
<path d="M105.8102 122.3646
L105.8102 121.3169
" />
<path d="M105.8102 121.3169
L105.7150 121.1265
" />
<path d="M105.7150 121.1265
L105.5245 121.0312
" />
<path d="M105.5245 121.0312
L105.1436 121.0312
" />
<path d="M105.1436 121.0312
L104.9531 121.1265
" />
<path d="M105.8102 122.2693
L105.6198 122.3646
" />
<path d="M105.6198 122.3646
L105.1436 122.3646
" />
<path d="M105.1436 122.3646
L104.9531 122.2693
" />
<path d="M104.9531 122.2693
L104.8579 122.0789
" />
<path d="M104.8579 122.0789
L104.8579 121.8884
" />
<path d="M104.8579 121.8884
L104.9531 121.6979
" />
<path d="M104.9531 121.6979
L105.1436 121.6027
" />
<path d="M105.1436 121.6027
L105.6198 121.6027
" />
<path d="M105.6198 121.6027
L105.8102 121.5074
" />
<path d="M106.7626 121.0312
L106.7626 123.0312
" />
<path d="M106.7626 121.1265
L106.9531 121.0312
" />
<path d="M106.9531 121.0312
L107.3340 121.0312
" />
<path d="M107.3340 121.0312
L107.5245 121.1265
" />
<path d="M107.5245 121.1265
L107.6198 121.2217
" />
<path d="M107.6198 121.2217
L107.7150 121.4122
" />
<path d="M107.7150 121.4122
L107.7150 121.9836
" />
<path d="M107.7150 121.9836
L107.6198 122.1741
" />
<path d="M107.6198 122.1741
L107.5245 122.2693
" />
<path d="M107.5245 122.2693
L107.3340 122.3646
" />
<path d="M107.3340 122.3646
L106.9531 122.3646
" />
<path d="M106.9531 122.3646
L106.7626 122.2693
" />
<path d="M108.5721 122.1741
L108.6674 122.2693
" />
<path d="M108.6674 122.2693
L108.5721 122.3646
" />
<path d="M108.5721 122.3646
L108.4769 122.2693
" />
<path d="M108.4769 122.2693
L108.5721 122.1741
" />
<path d="M108.5721 122.1741
L108.5721 122.3646
" />
<path d="M108.5721 121.1265
L108.6674 121.2217
" />
<path d="M108.6674 121.2217
L108.5721 121.3169
" />
<path d="M108.5721 121.3169
L108.4769 121.2217
" />
<path d="M108.4769 121.2217
L108.5721 121.1265
" />
<path d="M108.5721 121.1265
L108.5721 121.3169
" />
</g></g>
<g style="fill:#000000; fill-opacity:0.0; 
stroke:#000000; stroke-width:0.1200; stroke-opacity:1; 
stroke-linecap:round; stroke-linejoin:round;">
<path d="M91.0501 125.0497
L92.2501 126.2497
" />
<path d="M92.2501 125.0497
L91.0501 126.2497
" />
</g>
<g style="fill:#000000; fill-opacity:0.0; 
stroke:#000000; stroke-width:0.6000; stroke-opacity:1; 
stroke-linecap:round; stroke-linejoin:round;">
</g>
<g style="fill:#000000; fill-opacity:0.0; 
stroke:#000000; stroke-width:0.2000; stroke-opacity:1; 
stroke-linecap:round; stroke-linejoin:round;">
<text x="94.2501" y="126.6497"
textLength="48.7715" font-size="2.6667" lengthAdjust="spacingAndGlyphs"
text-anchor="start" opacity="0">0.400mm / 0.0157" (37 holes)</text>
<g class="stroked-text"><desc>0.400mm / 0.0157" (37 holes)</desc>
<path d="M95.2388 124.5646
L95.4293 124.5646
" />
<path d="M95.4293 124.5646
L95.6198 124.6598
" />
<path d="M95.6198 124.6598
L95.7150 124.7550
" />
<path d="M95.7150 124.7550
L95.8102 124.9455
" />
<path d="M95.8102 124.9455
L95.9055 125.3265
" />
<path d="M95.9055 125.3265
L95.9055 125.8027
" />
<path d="M95.9055 125.8027
L95.8102 126.1836
" />
<path d="M95.8102 126.1836
L95.7150 126.3741
" />
<path d="M95.7150 126.3741
L95.6198 126.4693
" />
<path d="M95.6198 126.4693
L95.4293 126.5646
" />
<path d="M95.4293 126.5646
L95.2388 126.5646
" />
<path d="M95.2388 126.5646
L95.0483 126.4693
" />
<path d="M95.0483 126.4693
L94.9531 126.3741
" />
<path d="M94.9531 126.3741
L94.8578 126.1836
" />
<path d="M94.8578 126.1836
L94.7626 125.8027
" />
<path d="M94.7626 125.8027
L94.7626 125.3265
" />
<path d="M94.7626 125.3265
L94.8578 124.9455
" />
<path d="M94.8578 124.9455
L94.9531 124.7550
" />
<path d="M94.9531 124.7550
L95.0483 124.6598
" />
<path d="M95.0483 124.6598
L95.2388 124.5646
" />
<path d="M96.7626 126.3741
L96.8578 126.4693
" />
<path d="M96.8578 126.4693
L96.7626 126.5646
" />
<path d="M96.7626 126.5646
L96.6674 126.4693
" />
<path d="M96.6674 126.4693
L96.7626 126.3741
" />
<path d="M96.7626 126.3741
L96.7626 126.5646
" />
<path d="M98.5721 125.2312
L98.5721 126.5646
" />
<path d="M98.0959 124.4693
L97.6198 125.8979
" />
<path d="M97.6198 125.8979
L98.8578 125.8979
" />
<path d="M100.0007 124.5646
L100.1912 124.5646
" />
<path d="M100.1912 124.5646
L100.3817 124.6598
" />
<path d="M100.3817 124.6598
L100.4769 124.7550
" />
<path d="M100.4769 124.7550
L100.5721 124.9455
" />
<path d="M100.5721 124.9455
L100.6674 125.3265
" />
<path d="M100.6674 125.3265
L100.6674 125.8027
" />
<path d="M100.6674 125.8027
L100.5721 126.1836
" />
<path d="M100.5721 126.1836
L100.4769 126.3741
" />
<path d="M100.4769 126.3741
L100.3817 126.4693
" />
<path d="M100.3817 126.4693
L100.1912 126.5646
" />
<path d="M100.1912 126.5646
L100.0007 126.5646
" />
<path d="M100.0007 126.5646
L99.8102 126.4693
" />
<path d="M99.8102 126.4693
L99.7150 126.3741
" />
<path d="M99.7150 126.3741
L99.6198 126.1836
" />
<path d="M99.6198 126.1836
L99.5245 125.8027
" />
<path d="M99.5245 125.8027
L99.5245 125.3265
" />
<path d="M99.5245 125.3265
L99.6198 124.9455
" />
<path d="M99.6198 124.9455
L99.7150 124.7550
" />
<path d="M99.7150 124.7550
L99.8102 124.6598
" />
<path d="M99.8102 124.6598
L100.0007 124.5646
" />
<path d="M101.9055 124.5646
L102.0959 124.5646
" />
<path d="M102.0959 124.5646
L102.2864 124.6598
" />
<path d="M102.2864 124.6598
L102.3817 124.7550
" />
<path d="M102.3817 124.7550
L102.4769 124.9455
" />
<path d="M102.4769 124.9455
L102.5721 125.3265
" />
<path d="M102.5721 125.3265
L102.5721 125.8027
" />
<path d="M102.5721 125.8027
L102.4769 126.1836
" />
<path d="M102.4769 126.1836
L102.3817 126.3741
" />
<path d="M102.3817 126.3741
L102.2864 126.4693
" />
<path d="M102.2864 126.4693
L102.0959 126.5646
" />
<path d="M102.0959 126.5646
L101.9055 126.5646
" />
<path d="M101.9055 126.5646
L101.7150 126.4693
" />
<path d="M101.7150 126.4693
L101.6198 126.3741
" />
<path d="M101.6198 126.3741
L101.5245 126.1836
" />
<path d="M101.5245 126.1836
L101.4293 125.8027
" />
<path d="M101.4293 125.8027
L101.4293 125.3265
" />
<path d="M101.4293 125.3265
L101.5245 124.9455
" />
<path d="M101.5245 124.9455
L101.6198 124.7550
" />
<path d="M101.6198 124.7550
L101.7150 124.6598
" />
<path d="M101.7150 124.6598
L101.9055 124.5646
" />
<path d="M103.4293 126.5646
L103.4293 125.2312
" />
<path d="M103.4293 125.4217
L103.5245 125.3265
" />
<path d="M103.5245 125.3265
L103.7150 125.2312
" />
<path d="M103.7150 125.2312
L104.0007 125.2312
" />
<path d="M104.0007 125.2312
L104.1912 125.3265
" />
<path d="M104.1912 125.3265
L104.2864 125.5170
" />
<path d="M104.2864 125.5170
L104.2864 126.5646
" />
<path d="M104.2864 125.5170
L104.3817 125.3265
" />
<path d="M104.3817 125.3265
L104.5721 125.2312
" />
<path d="M104.5721 125.2312
L104.8579 125.2312
" />
<path d="M104.8579 125.2312
L105.0483 125.3265
" />
<path d="M105.0483 125.3265
L105.1436 125.5170
" />
<path d="M105.1436 125.5170
L105.1436 126.5646
" />
<path d="M106.0959 126.5646
L106.0959 125.2312
" />
<path d="M106.0959 125.4217
L106.1912 125.3265
" />
<path d="M106.1912 125.3265
L106.3817 125.2312
" />
<path d="M106.3817 125.2312
L106.6674 125.2312
" />
<path d="M106.6674 125.2312
L106.8579 125.3265
" />
<path d="M106.8579 125.3265
L106.9531 125.5170
" />
<path d="M106.9531 125.5170
L106.9531 126.5646
" />
<path d="M106.9531 125.5170
L107.0483 125.3265
" />
<path d="M107.0483 125.3265
L107.2388 125.2312
" />
<path d="M107.2388 125.2312
L107.5245 125.2312
" />
<path d="M107.5245 125.2312
L107.7150 125.3265
" />
<path d="M107.7150 125.3265
L107.8102 125.5170
" />
<path d="M107.8102 125.5170
L107.8102 126.5646
" />
<path d="M111.7150 124.4693
L110.0007 127.0408
" />
<path d="M114.2864 124.5646
L114.4769 124.5646
" />
<path d="M114.4769 124.5646
L114.6674 124.6598
" />
<path d="M114.6674 124.6598
L114.7626 124.7550
" />
<path d="M114.7626 124.7550
L114.8579 124.9455
" />
<path d="M114.8579 124.9455
L114.9531 125.3265
" />
<path d="M114.9531 125.3265
L114.9531 125.8027
" />
<path d="M114.9531 125.8027
L114.8579 126.1836
" />
<path d="M114.8579 126.1836
L114.7626 126.3741
" />
<path d="M114.7626 126.3741
L114.6674 126.4693
" />
<path d="M114.6674 126.4693
L114.4769 126.5646
" />
<path d="M114.4769 126.5646
L114.2864 126.5646
" />
<path d="M114.2864 126.5646
L114.0960 126.4693
" />
<path d="M114.0960 126.4693
L114.0007 126.3741
" />
<path d="M114.0007 126.3741
L113.9055 126.1836
" />
<path d="M113.9055 126.1836
L113.8102 125.8027
" />
<path d="M113.8102 125.8027
L113.8102 125.3265
" />
<path d="M113.8102 125.3265
L113.9055 124.9455
" />
<path d="M113.9055 124.9455
L114.0007 124.7550
" />
<path d="M114.0007 124.7550
L114.0960 124.6598
" />
<path d="M114.0960 124.6598
L114.2864 124.5646
" />
<path d="M115.8102 126.3741
L115.9055 126.4693
" />
<path d="M115.9055 126.4693
L115.8102 126.5646
" />
<path d="M115.8102 126.5646
L115.7150 126.4693
" />
<path d="M115.7150 126.4693
L115.8102 126.3741
" />
<path d="M115.8102 126.3741
L115.8102 126.5646
" />
<path d="M117.1436 124.5646
L117.3340 124.5646
" />
<path d="M117.3340 124.5646
L117.5245 124.6598
" />
<path d="M117.5245 124.6598
L117.6198 124.7550
" />
<path d="M117.6198 124.7550
L117.7150 124.9455
" />
<path d="M117.7150 124.9455
L117.8102 125.3265
" />
<path d="M117.8102 125.3265
L117.8102 125.8027
" />
<path d="M117.8102 125.8027
L117.7150 126.1836
" />
<path d="M117.7150 126.1836
L117.6198 126.3741
" />
<path d="M117.6198 126.3741
L117.5245 126.4693
" />
<path d="M117.5245 126.4693
L117.3340 126.5646
" />
<path d="M117.3340 126.5646
L117.1436 126.5646
" />
<path d="M117.1436 126.5646
L116.9531 126.4693
" />
<path d="M116.9531 126.4693
L116.8579 126.3741
" />
<path d="M116.8579 126.3741
L116.7626 126.1836
" />
<path d="M116.7626 126.1836
L116.6674 125.8027
" />
<path d="M116.6674 125.8027
L116.6674 125.3265
" />
<path d="M116.6674 125.3265
L116.7626 124.9455
" />
<path d="M116.7626 124.9455
L116.8579 124.7550
" />
<path d="M116.8579 124.7550
L116.9531 124.6598
" />
<path d="M116.9531 124.6598
L117.1436 124.5646
" />
<path d="M119.7150 126.5646
L118.5721 126.5646
" />
<path d="M119.1436 126.5646
L119.1436 124.5646
" />
<path d="M119.1436 124.5646
L118.9531 124.8503
" />
<path d="M118.9531 124.8503
L118.7626 125.0408
" />
<path d="M118.7626 125.0408
L118.5721 125.1360
" />
<path d="M121.5245 124.5646
L120.5721 124.5646
" />
<path d="M120.5721 124.5646
L120.4769 125.5170
" />
<path d="M120.4769 125.5170
L120.5721 125.4217
" />
<path d="M120.5721 125.4217
L120.7626 125.3265
" />
<path d="M120.7626 125.3265
L121.2388 125.3265
" />
<path d="M121.2388 125.3265
L121.4293 125.4217
" />
<path d="M121.4293 125.4217
L121.5245 125.5170
" />
<path d="M121.5245 125.5170
L121.6198 125.7074
" />
<path d="M121.6198 125.7074
L121.6198 126.1836
" />
<path d="M121.6198 126.1836
L121.5245 126.3741
" />
<path d="M121.5245 126.3741
L121.4293 126.4693
" />
<path d="M121.4293 126.4693
L121.2388 126.5646
" />
<path d="M121.2388 126.5646
L120.7626 126.5646
" />
<path d="M120.7626 126.5646
L120.5721 126.4693
" />
<path d="M120.5721 126.4693
L120.4769 126.3741
" />
<path d="M122.2864 124.5646
L123.6198 124.5646
" />
<path d="M123.6198 124.5646
L122.7626 126.5646
" />
<path d="M124.2864 124.5646
L124.2864 124.9455
" />
<path d="M125.0483 124.5646
L125.0483 124.9455
" />
<path d="M128.0007 127.3265
L127.9055 127.2312
" />
<path d="M127.9055 127.2312
L127.7150 126.9455
" />
<path d="M127.7150 126.9455
L127.6198 126.7550
" />
<path d="M127.6198 126.7550
L127.5245 126.4693
" />
<path d="M127.5245 126.4693
L127.4293 125.9931
" />
<path d="M127.4293 125.9931
L127.4293 125.6122
" />
<path d="M127.4293 125.6122
L127.5245 125.1360
" />
<path d="M127.5245 125.1360
L127.6198 124.8503
" />
<path d="M127.6198 124.8503
L127.7150 124.6598
" />
<path d="M127.7150 124.6598
L127.9055 124.3741
" />
<path d="M127.9055 124.3741
L128.0007 124.2789
" />
<path d="M128.5722 124.5646
L129.8102 124.5646
" />
<path d="M129.8102 124.5646
L129.1436 125.3265
" />
<path d="M129.1436 125.3265
L129.4293 125.3265
" />
<path d="M129.4293 125.3265
L129.6198 125.4217
" />
<path d="M129.6198 125.4217
L129.7150 125.5170
" />
<path d="M129.7150 125.5170
L129.8102 125.7074
" />
<path d="M129.8102 125.7074
L129.8102 126.1836
" />
<path d="M129.8102 126.1836
L129.7150 126.3741
" />
<path d="M129.7150 126.3741
L129.6198 126.4693
" />
<path d="M129.6198 126.4693
L129.4293 126.5646
" />
<path d="M129.4293 126.5646
L128.8579 126.5646
" />
<path d="M128.8579 126.5646
L128.6674 126.4693
" />
<path d="M128.6674 126.4693
L128.5722 126.3741
" />
<path d="M130.4769 124.5646
L131.8102 124.5646
" />
<path d="M131.8102 124.5646
L130.9531 126.5646
" />
<path d="M134.0960 126.5646
L134.0960 124.5646
" />
<path d="M134.9531 126.5646
L134.9531 125.5170
" />
<path d="M134.9531 125.5170
L134.8579 125.3265
" />
<path d="M134.8579 125.3265
L134.6674 125.2312
" />
<path d="M134.6674 125.2312
L134.3817 125.2312
" />
<path d="M134.3817 125.2312
L134.1912 125.3265
" />
<path d="M134.1912 125.3265
L134.0960 125.4217
" />
<path d="M136.1912 126.5646
L136.0007 126.4693
" />
<path d="M136.0007 126.4693
L135.9055 126.3741
" />
<path d="M135.9055 126.3741
L135.8103 126.1836
" />
<path d="M135.8103 126.1836
L135.8103 125.6122
" />
<path d="M135.8103 125.6122
L135.9055 125.4217
" />
<path d="M135.9055 125.4217
L136.0007 125.3265
" />
<path d="M136.0007 125.3265
L136.1912 125.2312
" />
<path d="M136.1912 125.2312
L136.4769 125.2312
" />
<path d="M136.4769 125.2312
L136.6674 125.3265
" />
<path d="M136.6674 125.3265
L136.7626 125.4217
" />
<path d="M136.7626 125.4217
L136.8579 125.6122
" />
<path d="M136.8579 125.6122
L136.8579 126.1836
" />
<path d="M136.8579 126.1836
L136.7626 126.3741
" />
<path d="M136.7626 126.3741
L136.6674 126.4693
" />
<path d="M136.6674 126.4693
L136.4769 126.5646
" />
<path d="M136.4769 126.5646
L136.1912 126.5646
" />
<path d="M138.0007 126.5646
L137.8103 126.4693
" />
<path d="M137.8103 126.4693
L137.7150 126.2789
" />
<path d="M137.7150 126.2789
L137.7150 124.5646
" />
<path d="M139.5245 126.4693
L139.3341 126.5646
" />
<path d="M139.3341 126.5646
L138.9531 126.5646
" />
<path d="M138.9531 126.5646
L138.7626 126.4693
" />
<path d="M138.7626 126.4693
L138.6674 126.2789
" />
<path d="M138.6674 126.2789
L138.6674 125.5170
" />
<path d="M138.6674 125.5170
L138.7626 125.3265
" />
<path d="M138.7626 125.3265
L138.9531 125.2312
" />
<path d="M138.9531 125.2312
L139.3341 125.2312
" />
<path d="M139.3341 125.2312
L139.5245 125.3265
" />
<path d="M139.5245 125.3265
L139.6198 125.5170
" />
<path d="M139.6198 125.5170
L139.6198 125.7074
" />
<path d="M139.6198 125.7074
L138.6674 125.8979
" />
<path d="M140.3817 126.4693
L140.5722 126.5646
" />
<path d="M140.5722 126.5646
L140.9531 126.5646
" />
<path d="M140.9531 126.5646
L141.1436 126.4693
" />
<path d="M141.1436 126.4693
L141.2388 126.2789
" />
<path d="M141.2388 126.2789
L141.2388 126.1836
" />
<path d="M141.2388 126.1836
L141.1436 125.9931
" />
<path d="M141.1436 125.9931
L140.9531 125.8979
" />
<path d="M140.9531 125.8979
L140.6674 125.8979
" />
<path d="M140.6674 125.8979
L140.4769 125.8027
" />
<path d="M140.4769 125.8027
L140.3817 125.6122
" />
<path d="M140.3817 125.6122
L140.3817 125.5170
" />
<path d="M140.3817 125.5170
L140.4769 125.3265
" />
<path d="M140.4769 125.3265
L140.6674 125.2312
" />
<path d="M140.6674 125.2312
L140.9531 125.2312
" />
<path d="M140.9531 125.2312
L141.1436 125.3265
" />
<path d="M141.9055 127.3265
L142.0007 127.2312
" />
<path d="M142.0007 127.2312
L142.1912 126.9455
" />
<path d="M142.1912 126.9455
L142.2864 126.7550
" />
<path d="M142.2864 126.7550
L142.3817 126.4693
" />
<path d="M142.3817 126.4693
L142.4769 125.9931
" />
<path d="M142.4769 125.9931
L142.4769 125.6122
" />
<path d="M142.4769 125.6122
L142.3817 125.1360
" />
<path d="M142.3817 125.1360
L142.2864 124.8503
" />
<path d="M142.2864 124.8503
L142.1912 124.6598
" />
<path d="M142.1912 124.6598
L142.0007 124.3741
" />
<path d="M142.0007 124.3741
L141.9055 124.2789
" />
</g></g>
<g style="fill:#000000; fill-opacity:0.0; 
stroke:#000000; stroke-width:0.2000; stroke-opacity:1; 
stroke-linecap:round; stroke-linejoin:round;">
<circle cx="91.2501" cy="128.2897" r="1.0000" /> 
</g>
<g style="fill:#000000; fill-opacity:0.0; 
stroke:#000000; stroke-width:0.6000; stroke-opacity:1; 
stroke-linecap:round; stroke-linejoin:round;">
</g>
<g style="fill:#000000; fill-opacity:0.0; 
stroke:#000000; stroke-width:0.2000; stroke-opacity:1; 
stroke-linecap:round; stroke-linejoin:round;">
<text x="94.2501" y="129.2897"
textLength="63.0572" font-size="2.6667" lengthAdjust="spacingAndGlyphs"
text-anchor="start" opacity="0">0.900mm / 0.0354" (0 holes + 4 slots)</text>
<g class="stroked-text"><desc>0.900mm / 0.0354" (0 holes + 4 slots)</desc>
<path d="M95.2388 127.2046
L95.4293 127.2046
" />
<path d="M95.4293 127.2046
L95.6198 127.2998
" />
<path d="M95.6198 127.2998
L95.7150 127.3950
" />
<path d="M95.7150 127.3950
L95.8102 127.5855
" />
<path d="M95.8102 127.5855
L95.9055 127.9665
" />
<path d="M95.9055 127.9665
L95.9055 128.4427
" />
<path d="M95.9055 128.4427
L95.8102 128.8236
" />
<path d="M95.8102 128.8236
L95.7150 129.0141
" />
<path d="M95.7150 129.0141
L95.6198 129.1093
" />
<path d="M95.6198 129.1093
L95.4293 129.2046
" />
<path d="M95.4293 129.2046
L95.2388 129.2046
" />
<path d="M95.2388 129.2046
L95.0483 129.1093
" />
<path d="M95.0483 129.1093
L94.9531 129.0141
" />
<path d="M94.9531 129.0141
L94.8578 128.8236
" />
<path d="M94.8578 128.8236
L94.7626 128.4427
" />
<path d="M94.7626 128.4427
L94.7626 127.9665
" />
<path d="M94.7626 127.9665
L94.8578 127.5855
" />
<path d="M94.8578 127.5855
L94.9531 127.3950
" />
<path d="M94.9531 127.3950
L95.0483 127.2998
" />
<path d="M95.0483 127.2998
L95.2388 127.2046
" />
<path d="M96.7626 129.0141
L96.8578 129.1093
" />
<path d="M96.8578 129.1093
L96.7626 129.2046
" />
<path d="M96.7626 129.2046
L96.6674 129.1093
" />
<path d="M96.6674 129.1093
L96.7626 129.0141
" />
<path d="M96.7626 129.0141
L96.7626 129.2046
" />
<path d="M97.8102 129.2046
L98.1912 129.2046
" />
<path d="M98.1912 129.2046
L98.3817 129.1093
" />
<path d="M98.3817 129.1093
L98.4769 129.0141
" />
<path d="M98.4769 129.0141
L98.6674 128.7284
" />
<path d="M98.6674 128.7284
L98.7626 128.3474
" />
<path d="M98.7626 128.3474
L98.7626 127.5855
" />
<path d="M98.7626 127.5855
L98.6674 127.3950
" />
<path d="M98.6674 127.3950
L98.5721 127.2998
" />
<path d="M98.5721 127.2998
L98.3817 127.2046
" />
<path d="M98.3817 127.2046
L98.0007 127.2046
" />
<path d="M98.0007 127.2046
L97.8102 127.2998
" />
<path d="M97.8102 127.2998
L97.7150 127.3950
" />
<path d="M97.7150 127.3950
L97.6198 127.5855
" />
<path d="M97.6198 127.5855
L97.6198 128.0617
" />
<path d="M97.6198 128.0617
L97.7150 128.2522
" />
<path d="M97.7150 128.2522
L97.8102 128.3474
" />
<path d="M97.8102 128.3474
L98.0007 128.4427
" />
<path d="M98.0007 128.4427
L98.3817 128.4427
" />
<path d="M98.3817 128.4427
L98.5721 128.3474
" />
<path d="M98.5721 128.3474
L98.6674 128.2522
" />
<path d="M98.6674 128.2522
L98.7626 128.0617
" />
<path d="M100.0007 127.2046
L100.1912 127.2046
" />
<path d="M100.1912 127.2046
L100.3817 127.2998
" />
<path d="M100.3817 127.2998
L100.4769 127.3950
" />
<path d="M100.4769 127.3950
L100.5721 127.5855
" />
<path d="M100.5721 127.5855
L100.6674 127.9665
" />
<path d="M100.6674 127.9665
L100.6674 128.4427
" />
<path d="M100.6674 128.4427
L100.5721 128.8236
" />
<path d="M100.5721 128.8236
L100.4769 129.0141
" />
<path d="M100.4769 129.0141
L100.3817 129.1093
" />
<path d="M100.3817 129.1093
L100.1912 129.2046
" />
<path d="M100.1912 129.2046
L100.0007 129.2046
" />
<path d="M100.0007 129.2046
L99.8102 129.1093
" />
<path d="M99.8102 129.1093
L99.7150 129.0141
" />
<path d="M99.7150 129.0141
L99.6198 128.8236
" />
<path d="M99.6198 128.8236
L99.5245 128.4427
" />
<path d="M99.5245 128.4427
L99.5245 127.9665
" />
<path d="M99.5245 127.9665
L99.6198 127.5855
" />
<path d="M99.6198 127.5855
L99.7150 127.3950
" />
<path d="M99.7150 127.3950
L99.8102 127.2998
" />
<path d="M99.8102 127.2998
L100.0007 127.2046
" />
<path d="M101.9055 127.2046
L102.0959 127.2046
" />
<path d="M102.0959 127.2046
L102.2864 127.2998
" />
<path d="M102.2864 127.2998
L102.3817 127.3950
" />
<path d="M102.3817 127.3950
L102.4769 127.5855
" />
<path d="M102.4769 127.5855
L102.5721 127.9665
" />
<path d="M102.5721 127.9665
L102.5721 128.4427
" />
<path d="M102.5721 128.4427
L102.4769 128.8236
" />
<path d="M102.4769 128.8236
L102.3817 129.0141
" />
<path d="M102.3817 129.0141
L102.2864 129.1093
" />
<path d="M102.2864 129.1093
L102.0959 129.2046
" />
<path d="M102.0959 129.2046
L101.9055 129.2046
" />
<path d="M101.9055 129.2046
L101.7150 129.1093
" />
<path d="M101.7150 129.1093
L101.6198 129.0141
" />
<path d="M101.6198 129.0141
L101.5245 128.8236
" />
<path d="M101.5245 128.8236
L101.4293 128.4427
" />
<path d="M101.4293 128.4427
L101.4293 127.9665
" />
<path d="M101.4293 127.9665
L101.5245 127.5855
" />
<path d="M101.5245 127.5855
L101.6198 127.3950
" />
<path d="M101.6198 127.3950
L101.7150 127.2998
" />
<path d="M101.7150 127.2998
L101.9055 127.2046
" />
<path d="M103.4293 129.2046
L103.4293 127.8712
" />
<path d="M103.4293 128.0617
L103.5245 127.9665
" />
<path d="M103.5245 127.9665
L103.7150 127.8712
" />
<path d="M103.7150 127.8712
L104.0007 127.8712
" />
<path d="M104.0007 127.8712
L104.1912 127.9665
" />
<path d="M104.1912 127.9665
L104.2864 128.1570
" />
<path d="M104.2864 128.1570
L104.2864 129.2046
" />
<path d="M104.2864 128.1570
L104.3817 127.9665
" />
<path d="M104.3817 127.9665
L104.5721 127.8712
" />
<path d="M104.5721 127.8712
L104.8579 127.8712
" />
<path d="M104.8579 127.8712
L105.0483 127.9665
" />
<path d="M105.0483 127.9665
L105.1436 128.1570
" />
<path d="M105.1436 128.1570
L105.1436 129.2046
" />
<path d="M106.0959 129.2046
L106.0959 127.8712
" />
<path d="M106.0959 128.0617
L106.1912 127.9665
" />
<path d="M106.1912 127.9665
L106.3817 127.8712
" />
<path d="M106.3817 127.8712
L106.6674 127.8712
" />
<path d="M106.6674 127.8712
L106.8579 127.9665
" />
<path d="M106.8579 127.9665
L106.9531 128.1570
" />
<path d="M106.9531 128.1570
L106.9531 129.2046
" />
<path d="M106.9531 128.1570
L107.0483 127.9665
" />
<path d="M107.0483 127.9665
L107.2388 127.8712
" />
<path d="M107.2388 127.8712
L107.5245 127.8712
" />
<path d="M107.5245 127.8712
L107.7150 127.9665
" />
<path d="M107.7150 127.9665
L107.8102 128.1570
" />
<path d="M107.8102 128.1570
L107.8102 129.2046
" />
<path d="M111.7150 127.1093
L110.0007 129.6808
" />
<path d="M114.2864 127.2046
L114.4769 127.2046
" />
<path d="M114.4769 127.2046
L114.6674 127.2998
" />
<path d="M114.6674 127.2998
L114.7626 127.3950
" />
<path d="M114.7626 127.3950
L114.8579 127.5855
" />
<path d="M114.8579 127.5855
L114.9531 127.9665
" />
<path d="M114.9531 127.9665
L114.9531 128.4427
" />
<path d="M114.9531 128.4427
L114.8579 128.8236
" />
<path d="M114.8579 128.8236
L114.7626 129.0141
" />
<path d="M114.7626 129.0141
L114.6674 129.1093
" />
<path d="M114.6674 129.1093
L114.4769 129.2046
" />
<path d="M114.4769 129.2046
L114.2864 129.2046
" />
<path d="M114.2864 129.2046
L114.0960 129.1093
" />
<path d="M114.0960 129.1093
L114.0007 129.0141
" />
<path d="M114.0007 129.0141
L113.9055 128.8236
" />
<path d="M113.9055 128.8236
L113.8102 128.4427
" />
<path d="M113.8102 128.4427
L113.8102 127.9665
" />
<path d="M113.8102 127.9665
L113.9055 127.5855
" />
<path d="M113.9055 127.5855
L114.0007 127.3950
" />
<path d="M114.0007 127.3950
L114.0960 127.2998
" />
<path d="M114.0960 127.2998
L114.2864 127.2046
" />
<path d="M115.8102 129.0141
L115.9055 129.1093
" />
<path d="M115.9055 129.1093
L115.8102 129.2046
" />
<path d="M115.8102 129.2046
L115.7150 129.1093
" />
<path d="M115.7150 129.1093
L115.8102 129.0141
" />
<path d="M115.8102 129.0141
L115.8102 129.2046
" />
<path d="M117.1436 127.2046
L117.3340 127.2046
" />
<path d="M117.3340 127.2046
L117.5245 127.2998
" />
<path d="M117.5245 127.2998
L117.6198 127.3950
" />
<path d="M117.6198 127.3950
L117.7150 127.5855
" />
<path d="M117.7150 127.5855
L117.8102 127.9665
" />
<path d="M117.8102 127.9665
L117.8102 128.4427
" />
<path d="M117.8102 128.4427
L117.7150 128.8236
" />
<path d="M117.7150 128.8236
L117.6198 129.0141
" />
<path d="M117.6198 129.0141
L117.5245 129.1093
" />
<path d="M117.5245 129.1093
L117.3340 129.2046
" />
<path d="M117.3340 129.2046
L117.1436 129.2046
" />
<path d="M117.1436 129.2046
L116.9531 129.1093
" />
<path d="M116.9531 129.1093
L116.8579 129.0141
" />
<path d="M116.8579 129.0141
L116.7626 128.8236
" />
<path d="M116.7626 128.8236
L116.6674 128.4427
" />
<path d="M116.6674 128.4427
L116.6674 127.9665
" />
<path d="M116.6674 127.9665
L116.7626 127.5855
" />
<path d="M116.7626 127.5855
L116.8579 127.3950
" />
<path d="M116.8579 127.3950
L116.9531 127.2998
" />
<path d="M116.9531 127.2998
L117.1436 127.2046
" />
<path d="M118.4769 127.2046
L119.7150 127.2046
" />
<path d="M119.7150 127.2046
L119.0483 127.9665
" />
<path d="M119.0483 127.9665
L119.3340 127.9665
" />
<path d="M119.3340 127.9665
L119.5245 128.0617
" />
<path d="M119.5245 128.0617
L119.6198 128.1570
" />
<path d="M119.6198 128.1570
L119.7150 128.3474
" />
<path d="M119.7150 128.3474
L119.7150 128.8236
" />
<path d="M119.7150 128.8236
L119.6198 129.0141
" />
<path d="M119.6198 129.0141
L119.5245 129.1093
" />
<path d="M119.5245 129.1093
L119.3340 129.2046
" />
<path d="M119.3340 129.2046
L118.7626 129.2046
" />
<path d="M118.7626 129.2046
L118.5721 129.1093
" />
<path d="M118.5721 129.1093
L118.4769 129.0141
" />
<path d="M121.5245 127.2046
L120.5721 127.2046
" />
<path d="M120.5721 127.2046
L120.4769 128.1570
" />
<path d="M120.4769 128.1570
L120.5721 128.0617
" />
<path d="M120.5721 128.0617
L120.7626 127.9665
" />
<path d="M120.7626 127.9665
L121.2388 127.9665
" />
<path d="M121.2388 127.9665
L121.4293 128.0617
" />
<path d="M121.4293 128.0617
L121.5245 128.1570
" />
<path d="M121.5245 128.1570
L121.6198 128.3474
" />
<path d="M121.6198 128.3474
L121.6198 128.8236
" />
<path d="M121.6198 128.8236
L121.5245 129.0141
" />
<path d="M121.5245 129.0141
L121.4293 129.1093
" />
<path d="M121.4293 129.1093
L121.2388 129.2046
" />
<path d="M121.2388 129.2046
L120.7626 129.2046
" />
<path d="M120.7626 129.2046
L120.5721 129.1093
" />
<path d="M120.5721 129.1093
L120.4769 129.0141
" />
<path d="M123.3340 127.8712
L123.3340 129.2046
" />
<path d="M122.8579 127.1093
L122.3817 128.5379
" />
<path d="M122.3817 128.5379
L123.6198 128.5379
" />
<path d="M124.2864 127.2046
L124.2864 127.5855
" />
<path d="M125.0483 127.2046
L125.0483 127.5855
" />
<path d="M128.0007 129.9665
L127.9055 129.8712
" />
<path d="M127.9055 129.8712
L127.7150 129.5855
" />
<path d="M127.7150 129.5855
L127.6198 129.3950
" />
<path d="M127.6198 129.3950
L127.5245 129.1093
" />
<path d="M127.5245 129.1093
L127.4293 128.6331
" />
<path d="M127.4293 128.6331
L127.4293 128.2522
" />
<path d="M127.4293 128.2522
L127.5245 127.7760
" />
<path d="M127.5245 127.7760
L127.6198 127.4903
" />
<path d="M127.6198 127.4903
L127.7150 127.2998
" />
<path d="M127.7150 127.2998
L127.9055 127.0141
" />
<path d="M127.9055 127.0141
L128.0007 126.9189
" />
<path d="M129.1436 127.2046
L129.3341 127.2046
" />
<path d="M129.3341 127.2046
L129.5245 127.2998
" />
<path d="M129.5245 127.2998
L129.6198 127.3950
" />
<path d="M129.6198 127.3950
L129.7150 127.5855
" />
<path d="M129.7150 127.5855
L129.8102 127.9665
" />
<path d="M129.8102 127.9665
L129.8102 128.4427
" />
<path d="M129.8102 128.4427
L129.7150 128.8236
" />
<path d="M129.7150 128.8236
L129.6198 129.0141
" />
<path d="M129.6198 129.0141
L129.5245 129.1093
" />
<path d="M129.5245 129.1093
L129.3341 129.2046
" />
<path d="M129.3341 129.2046
L129.1436 129.2046
" />
<path d="M129.1436 129.2046
L128.9531 129.1093
" />
<path d="M128.9531 129.1093
L128.8579 129.0141
" />
<path d="M128.8579 129.0141
L128.7626 128.8236
" />
<path d="M128.7626 128.8236
L128.6674 128.4427
" />
<path d="M128.6674 128.4427
L128.6674 127.9665
" />
<path d="M128.6674 127.9665
L128.7626 127.5855
" />
<path d="M128.7626 127.5855
L128.8579 127.3950
" />
<path d="M128.8579 127.3950
L128.9531 127.2998
" />
<path d="M128.9531 127.2998
L129.1436 127.2046
" />
<path d="M132.1912 129.2046
L132.1912 127.2046
" />
<path d="M133.0483 129.2046
L133.0483 128.1570
" />
<path d="M133.0483 128.1570
L132.9531 127.9665
" />
<path d="M132.9531 127.9665
L132.7626 127.8712
" />
<path d="M132.7626 127.8712
L132.4769 127.8712
" />
<path d="M132.4769 127.8712
L132.2864 127.9665
" />
<path d="M132.2864 127.9665
L132.1912 128.0617
" />
<path d="M134.2864 129.2046
L134.0960 129.1093
" />
<path d="M134.0960 129.1093
L134.0007 129.0141
" />
<path d="M134.0007 129.0141
L133.9055 128.8236
" />
<path d="M133.9055 128.8236
L133.9055 128.2522
" />
<path d="M133.9055 128.2522
L134.0007 128.0617
" />
<path d="M134.0007 128.0617
L134.0960 127.9665
" />
<path d="M134.0960 127.9665
L134.2864 127.8712
" />
<path d="M134.2864 127.8712
L134.5722 127.8712
" />
<path d="M134.5722 127.8712
L134.7626 127.9665
" />
<path d="M134.7626 127.9665
L134.8579 128.0617
" />
<path d="M134.8579 128.0617
L134.9531 128.2522
" />
<path d="M134.9531 128.2522
L134.9531 128.8236
" />
<path d="M134.9531 128.8236
L134.8579 129.0141
" />
<path d="M134.8579 129.0141
L134.7626 129.1093
" />
<path d="M134.7626 129.1093
L134.5722 129.2046
" />
<path d="M134.5722 129.2046
L134.2864 129.2046
" />
<path d="M136.0960 129.2046
L135.9055 129.1093
" />
<path d="M135.9055 129.1093
L135.8103 128.9189
" />
<path d="M135.8103 128.9189
L135.8103 127.2046
" />
<path d="M137.6198 129.1093
L137.4293 129.2046
" />
<path d="M137.4293 129.2046
L137.0483 129.2046
" />
<path d="M137.0483 129.2046
L136.8579 129.1093
" />
<path d="M136.8579 129.1093
L136.7626 128.9189
" />
<path d="M136.7626 128.9189
L136.7626 128.1570
" />
<path d="M136.7626 128.1570
L136.8579 127.9665
" />
<path d="M136.8579 127.9665
L137.0483 127.8712
" />
<path d="M137.0483 127.8712
L137.4293 127.8712
" />
<path d="M137.4293 127.8712
L137.6198 127.9665
" />
<path d="M137.6198 127.9665
L137.7150 128.1570
" />
<path d="M137.7150 128.1570
L137.7150 128.3474
" />
<path d="M137.7150 128.3474
L136.7626 128.5379
" />
<path d="M138.4769 129.1093
L138.6674 129.2046
" />
<path d="M138.6674 129.2046
L139.0483 129.2046
" />
<path d="M139.0483 129.2046
L139.2388 129.1093
" />
<path d="M139.2388 129.1093
L139.3341 128.9189
" />
<path d="M139.3341 128.9189
L139.3341 128.8236
" />
<path d="M139.3341 128.8236
L139.2388 128.6331
" />
<path d="M139.2388 128.6331
L139.0483 128.5379
" />
<path d="M139.0483 128.5379
L138.7626 128.5379
" />
<path d="M138.7626 128.5379
L138.5722 128.4427
" />
<path d="M138.5722 128.4427
L138.4769 128.2522
" />
<path d="M138.4769 128.2522
L138.4769 128.1570
" />
<path d="M138.4769 128.1570
L138.5722 127.9665
" />
<path d="M138.5722 127.9665
L138.7626 127.8712
" />
<path d="M138.7626 127.8712
L139.0483 127.8712
" />
<path d="M139.0483 127.8712
L139.2388 127.9665
" />
<path d="M141.7150 128.4427
L143.2388 128.4427
" />
<path d="M142.4769 129.2046
L142.4769 127.6808
" />
<path d="M146.5722 127.8712
L146.5722 129.2046
" />
<path d="M146.0960 127.1093
L145.6198 128.5379
" />
<path d="M145.6198 128.5379
L146.8579 128.5379
" />
<path d="M149.0484 129.1093
L149.2388 129.2046
" />
<path d="M149.2388 129.2046
L149.6198 129.2046
" />
<path d="M149.6198 129.2046
L149.8103 129.1093
" />
<path d="M149.8103 129.1093
L149.9055 128.9189
" />
<path d="M149.9055 128.9189
L149.9055 128.8236
" />
<path d="M149.9055 128.8236
L149.8103 128.6331
" />
<path d="M149.8103 128.6331
L149.6198 128.5379
" />
<path d="M149.6198 128.5379
L149.3341 128.5379
" />
<path d="M149.3341 128.5379
L149.1436 128.4427
" />
<path d="M149.1436 128.4427
L149.0484 128.2522
" />
<path d="M149.0484 128.2522
L149.0484 128.1570
" />
<path d="M149.0484 128.1570
L149.1436 127.9665
" />
<path d="M149.1436 127.9665
L149.3341 127.8712
" />
<path d="M149.3341 127.8712
L149.6198 127.8712
" />
<path d="M149.6198 127.8712
L149.8103 127.9665
" />
<path d="M151.0484 129.2046
L150.8579 129.1093
" />
<path d="M150.8579 129.1093
L150.7626 128.9189
" />
<path d="M150.7626 128.9189
L150.7626 127.2046
" />
<path d="M152.0960 129.2046
L151.9055 129.1093
" />
<path d="M151.9055 129.1093
L151.8103 129.0141
" />
<path d="M151.8103 129.0141
L151.7150 128.8236
" />
<path d="M151.7150 128.8236
L151.7150 128.2522
" />
<path d="M151.7150 128.2522
L151.8103 128.0617
" />
<path d="M151.8103 128.0617
L151.9055 127.9665
" />
<path d="M151.9055 127.9665
L152.0960 127.8712
" />
<path d="M152.0960 127.8712
L152.3817 127.8712
" />
<path d="M152.3817 127.8712
L152.5722 127.9665
" />
<path d="M152.5722 127.9665
L152.6674 128.0617
" />
<path d="M152.6674 128.0617
L152.7626 128.2522
" />
<path d="M152.7626 128.2522
L152.7626 128.8236
" />
<path d="M152.7626 128.8236
L152.6674 129.0141
" />
<path d="M152.6674 129.0141
L152.5722 129.1093
" />
<path d="M152.5722 129.1093
L152.3817 129.2046
" />
<path d="M152.3817 129.2046
L152.0960 129.2046
" />
<path d="M153.3341 127.8712
L154.0960 127.8712
" />
<path d="M153.6198 127.2046
L153.6198 128.9189
" />
<path d="M153.6198 128.9189
L153.7150 129.1093
" />
<path d="M153.7150 129.1093
L153.9055 129.2046
" />
<path d="M153.9055 129.2046
L154.0960 129.2046
" />
<path d="M154.6674 129.1093
L154.8579 129.2046
" />
<path d="M154.8579 129.2046
L155.2388 129.2046
" />
<path d="M155.2388 129.2046
L155.4293 129.1093
" />
<path d="M155.4293 129.1093
L155.5246 128.9189
" />
<path d="M155.5246 128.9189
L155.5246 128.8236
" />
<path d="M155.5246 128.8236
L155.4293 128.6331
" />
<path d="M155.4293 128.6331
L155.2388 128.5379
" />
<path d="M155.2388 128.5379
L154.9531 128.5379
" />
<path d="M154.9531 128.5379
L154.7626 128.4427
" />
<path d="M154.7626 128.4427
L154.6674 128.2522
" />
<path d="M154.6674 128.2522
L154.6674 128.1570
" />
<path d="M154.6674 128.1570
L154.7626 127.9665
" />
<path d="M154.7626 127.9665
L154.9531 127.8712
" />
<path d="M154.9531 127.8712
L155.2388 127.8712
" />
<path d="M155.2388 127.8712
L155.4293 127.9665
" />
<path d="M156.1912 129.9665
L156.2865 129.8712
" />
<path d="M156.2865 129.8712
L156.4769 129.5855
" />
<path d="M156.4769 129.5855
L156.5722 129.3950
" />
<path d="M156.5722 129.3950
L156.6674 129.1093
" />
<path d="M156.6674 129.1093
L156.7627 128.6331
" />
<path d="M156.7627 128.6331
L156.7627 128.2522
" />
<path d="M156.7627 128.2522
L156.6674 127.7760
" />
<path d="M156.6674 127.7760
L156.5722 127.4903
" />
<path d="M156.5722 127.4903
L156.4769 127.2998
" />
<path d="M156.4769 127.2998
L156.2865 127.0141
" />
<path d="M156.2865 127.0141
L156.1912 126.9189
" />
</g></g>
<g style="fill:#000000; fill-opacity:0.0; 
stroke:#000000; stroke-width:0.2000; stroke-opacity:1; 
stroke-linecap:round; stroke-linejoin:round;">
<path d="M91.2501 130.4897
L91.2501 132.4897
" />
<path d="M90.2501 131.4897
L92.2501 131.4897
" />
</g>
<g style="fill:#000000; fill-opacity:0.0; 
stroke:#000000; stroke-width:0.6000; stroke-opacity:1; 
stroke-linecap:round; stroke-linejoin:round;">
</g>
<g style="fill:#000000; fill-opacity:0.0; 
stroke:#000000; stroke-width:0.2000; stroke-opacity:1; 
stroke-linecap:round; stroke-linejoin:round;">
<text x="94.2501" y="132.4897"
textLength="46.8667" font-size="2.6667" lengthAdjust="spacingAndGlyphs"
text-anchor="start" opacity="0">2.900mm / 0.1142" (4 holes)</text>
<g class="stroked-text"><desc>2.900mm / 0.1142" (4 holes)</desc>
<path d="M94.7626 130.5950
L94.8578 130.4998
" />
<path d="M94.8578 130.4998
L95.0483 130.4046
" />
<path d="M95.0483 130.4046
L95.5245 130.4046
" />
<path d="M95.5245 130.4046
L95.7150 130.4998
" />
<path d="M95.7150 130.4998
L95.8102 130.5950
" />
<path d="M95.8102 130.5950
L95.9055 130.7855
" />
<path d="M95.9055 130.7855
L95.9055 130.9760
" />
<path d="M95.9055 130.9760
L95.8102 131.2617
" />
<path d="M95.8102 131.2617
L94.6674 132.4046
" />
<path d="M94.6674 132.4046
L95.9055 132.4046
" />
<path d="M96.7626 132.2141
L96.8578 132.3093
" />
<path d="M96.8578 132.3093
L96.7626 132.4046
" />
<path d="M96.7626 132.4046
L96.6674 132.3093
" />
<path d="M96.6674 132.3093
L96.7626 132.2141
" />
<path d="M96.7626 132.2141
L96.7626 132.4046
" />
<path d="M97.8102 132.4046
L98.1912 132.4046
" />
<path d="M98.1912 132.4046
L98.3817 132.3093
" />
<path d="M98.3817 132.3093
L98.4769 132.2141
" />
<path d="M98.4769 132.2141
L98.6674 131.9284
" />
<path d="M98.6674 131.9284
L98.7626 131.5474
" />
<path d="M98.7626 131.5474
L98.7626 130.7855
" />
<path d="M98.7626 130.7855
L98.6674 130.5950
" />
<path d="M98.6674 130.5950
L98.5721 130.4998
" />
<path d="M98.5721 130.4998
L98.3817 130.4046
" />
<path d="M98.3817 130.4046
L98.0007 130.4046
" />
<path d="M98.0007 130.4046
L97.8102 130.4998
" />
<path d="M97.8102 130.4998
L97.7150 130.5950
" />
<path d="M97.7150 130.5950
L97.6198 130.7855
" />
<path d="M97.6198 130.7855
L97.6198 131.2617
" />
<path d="M97.6198 131.2617
L97.7150 131.4522
" />
<path d="M97.7150 131.4522
L97.8102 131.5474
" />
<path d="M97.8102 131.5474
L98.0007 131.6427
" />
<path d="M98.0007 131.6427
L98.3817 131.6427
" />
<path d="M98.3817 131.6427
L98.5721 131.5474
" />
<path d="M98.5721 131.5474
L98.6674 131.4522
" />
<path d="M98.6674 131.4522
L98.7626 131.2617
" />
<path d="M100.0007 130.4046
L100.1912 130.4046
" />
<path d="M100.1912 130.4046
L100.3817 130.4998
" />
<path d="M100.3817 130.4998
L100.4769 130.5950
" />
<path d="M100.4769 130.5950
L100.5721 130.7855
" />
<path d="M100.5721 130.7855
L100.6674 131.1665
" />
<path d="M100.6674 131.1665
L100.6674 131.6427
" />
<path d="M100.6674 131.6427
L100.5721 132.0236
" />
<path d="M100.5721 132.0236
L100.4769 132.2141
" />
<path d="M100.4769 132.2141
L100.3817 132.3093
" />
<path d="M100.3817 132.3093
L100.1912 132.4046
" />
<path d="M100.1912 132.4046
L100.0007 132.4046
" />
<path d="M100.0007 132.4046
L99.8102 132.3093
" />
<path d="M99.8102 132.3093
L99.7150 132.2141
" />
<path d="M99.7150 132.2141
L99.6198 132.0236
" />
<path d="M99.6198 132.0236
L99.5245 131.6427
" />
<path d="M99.5245 131.6427
L99.5245 131.1665
" />
<path d="M99.5245 131.1665
L99.6198 130.7855
" />
<path d="M99.6198 130.7855
L99.7150 130.5950
" />
<path d="M99.7150 130.5950
L99.8102 130.4998
" />
<path d="M99.8102 130.4998
L100.0007 130.4046
" />
<path d="M101.9055 130.4046
L102.0959 130.4046
" />
<path d="M102.0959 130.4046
L102.2864 130.4998
" />
<path d="M102.2864 130.4998
L102.3817 130.5950
" />
<path d="M102.3817 130.5950
L102.4769 130.7855
" />
<path d="M102.4769 130.7855
L102.5721 131.1665
" />
<path d="M102.5721 131.1665
L102.5721 131.6427
" />
<path d="M102.5721 131.6427
L102.4769 132.0236
" />
<path d="M102.4769 132.0236
L102.3817 132.2141
" />
<path d="M102.3817 132.2141
L102.2864 132.3093
" />
<path d="M102.2864 132.3093
L102.0959 132.4046
" />
<path d="M102.0959 132.4046
L101.9055 132.4046
" />
<path d="M101.9055 132.4046
L101.7150 132.3093
" />
<path d="M101.7150 132.3093
L101.6198 132.2141
" />
<path d="M101.6198 132.2141
L101.5245 132.0236
" />
<path d="M101.5245 132.0236
L101.4293 131.6427
" />
<path d="M101.4293 131.6427
L101.4293 131.1665
" />
<path d="M101.4293 131.1665
L101.5245 130.7855
" />
<path d="M101.5245 130.7855
L101.6198 130.5950
" />
<path d="M101.6198 130.5950
L101.7150 130.4998
" />
<path d="M101.7150 130.4998
L101.9055 130.4046
" />
<path d="M103.4293 132.4046
L103.4293 131.0712
" />
<path d="M103.4293 131.2617
L103.5245 131.1665
" />
<path d="M103.5245 131.1665
L103.7150 131.0712
" />
<path d="M103.7150 131.0712
L104.0007 131.0712
" />
<path d="M104.0007 131.0712
L104.1912 131.1665
" />
<path d="M104.1912 131.1665
L104.2864 131.3570
" />
<path d="M104.2864 131.3570
L104.2864 132.4046
" />
<path d="M104.2864 131.3570
L104.3817 131.1665
" />
<path d="M104.3817 131.1665
L104.5721 131.0712
" />
<path d="M104.5721 131.0712
L104.8579 131.0712
" />
<path d="M104.8579 131.0712
L105.0483 131.1665
" />
<path d="M105.0483 131.1665
L105.1436 131.3570
" />
<path d="M105.1436 131.3570
L105.1436 132.4046
" />
<path d="M106.0959 132.4046
L106.0959 131.0712
" />
<path d="M106.0959 131.2617
L106.1912 131.1665
" />
<path d="M106.1912 131.1665
L106.3817 131.0712
" />
<path d="M106.3817 131.0712
L106.6674 131.0712
" />
<path d="M106.6674 131.0712
L106.8579 131.1665
" />
<path d="M106.8579 131.1665
L106.9531 131.3570
" />
<path d="M106.9531 131.3570
L106.9531 132.4046
" />
<path d="M106.9531 131.3570
L107.0483 131.1665
" />
<path d="M107.0483 131.1665
L107.2388 131.0712
" />
<path d="M107.2388 131.0712
L107.5245 131.0712
" />
<path d="M107.5245 131.0712
L107.7150 131.1665
" />
<path d="M107.7150 131.1665
L107.8102 131.3570
" />
<path d="M107.8102 131.3570
L107.8102 132.4046
" />
<path d="M111.7150 130.3093
L110.0007 132.8808
" />
<path d="M114.2864 130.4046
L114.4769 130.4046
" />
<path d="M114.4769 130.4046
L114.6674 130.4998
" />
<path d="M114.6674 130.4998
L114.7626 130.5950
" />
<path d="M114.7626 130.5950
L114.8579 130.7855
" />
<path d="M114.8579 130.7855
L114.9531 131.1665
" />
<path d="M114.9531 131.1665
L114.9531 131.6427
" />
<path d="M114.9531 131.6427
L114.8579 132.0236
" />
<path d="M114.8579 132.0236
L114.7626 132.2141
" />
<path d="M114.7626 132.2141
L114.6674 132.3093
" />
<path d="M114.6674 132.3093
L114.4769 132.4046
" />
<path d="M114.4769 132.4046
L114.2864 132.4046
" />
<path d="M114.2864 132.4046
L114.0960 132.3093
" />
<path d="M114.0960 132.3093
L114.0007 132.2141
" />
<path d="M114.0007 132.2141
L113.9055 132.0236
" />
<path d="M113.9055 132.0236
L113.8102 131.6427
" />
<path d="M113.8102 131.6427
L113.8102 131.1665
" />
<path d="M113.8102 131.1665
L113.9055 130.7855
" />
<path d="M113.9055 130.7855
L114.0007 130.5950
" />
<path d="M114.0007 130.5950
L114.0960 130.4998
" />
<path d="M114.0960 130.4998
L114.2864 130.4046
" />
<path d="M115.8102 132.2141
L115.9055 132.3093
" />
<path d="M115.9055 132.3093
L115.8102 132.4046
" />
<path d="M115.8102 132.4046
L115.7150 132.3093
" />
<path d="M115.7150 132.3093
L115.8102 132.2141
" />
<path d="M115.8102 132.2141
L115.8102 132.4046
" />
<path d="M117.8102 132.4046
L116.6674 132.4046
" />
<path d="M117.2388 132.4046
L117.2388 130.4046
" />
<path d="M117.2388 130.4046
L117.0483 130.6903
" />
<path d="M117.0483 130.6903
L116.8579 130.8808
" />
<path d="M116.8579 130.8808
L116.6674 130.9760
" />
<path d="M119.7150 132.4046
L118.5721 132.4046
" />
<path d="M119.1436 132.4046
L119.1436 130.4046
" />
<path d="M119.1436 130.4046
L118.9531 130.6903
" />
<path d="M118.9531 130.6903
L118.7626 130.8808
" />
<path d="M118.7626 130.8808
L118.5721 130.9760
" />
<path d="M121.4293 131.0712
L121.4293 132.4046
" />
<path d="M120.9531 130.3093
L120.4769 131.7379
" />
<path d="M120.4769 131.7379
L121.7150 131.7379
" />
<path d="M122.3817 130.5950
L122.4769 130.4998
" />
<path d="M122.4769 130.4998
L122.6674 130.4046
" />
<path d="M122.6674 130.4046
L123.1436 130.4046
" />
<path d="M123.1436 130.4046
L123.3340 130.4998
" />
<path d="M123.3340 130.4998
L123.4293 130.5950
" />
<path d="M123.4293 130.5950
L123.5245 130.7855
" />
<path d="M123.5245 130.7855
L123.5245 130.9760
" />
<path d="M123.5245 130.9760
L123.4293 131.2617
" />
<path d="M123.4293 131.2617
L122.2864 132.4046
" />
<path d="M122.2864 132.4046
L123.5245 132.4046
" />
<path d="M124.2864 130.4046
L124.2864 130.7855
" />
<path d="M125.0483 130.4046
L125.0483 130.7855
" />
<path d="M128.0007 133.1665
L127.9055 133.0712
" />
<path d="M127.9055 133.0712
L127.7150 132.7855
" />
<path d="M127.7150 132.7855
L127.6198 132.5950
" />
<path d="M127.6198 132.5950
L127.5245 132.3093
" />
<path d="M127.5245 132.3093
L127.4293 131.8331
" />
<path d="M127.4293 131.8331
L127.4293 131.4522
" />
<path d="M127.4293 131.4522
L127.5245 130.9760
" />
<path d="M127.5245 130.9760
L127.6198 130.6903
" />
<path d="M127.6198 130.6903
L127.7150 130.4998
" />
<path d="M127.7150 130.4998
L127.9055 130.2141
" />
<path d="M127.9055 130.2141
L128.0007 130.1189
" />
<path d="M129.6198 131.0712
L129.6198 132.4046
" />
<path d="M129.1436 130.3093
L128.6674 131.7379
" />
<path d="M128.6674 131.7379
L129.9055 131.7379
" />
<path d="M132.1912 132.4046
L132.1912 130.4046
" />
<path d="M133.0483 132.4046
L133.0483 131.3570
" />
<path d="M133.0483 131.3570
L132.9531 131.1665
" />
<path d="M132.9531 131.1665
L132.7626 131.0712
" />
<path d="M132.7626 131.0712
L132.4769 131.0712
" />
<path d="M132.4769 131.0712
L132.2864 131.1665
" />
<path d="M132.2864 131.1665
L132.1912 131.2617
" />
<path d="M134.2864 132.4046
L134.0960 132.3093
" />
<path d="M134.0960 132.3093
L134.0007 132.2141
" />
<path d="M134.0007 132.2141
L133.9055 132.0236
" />
<path d="M133.9055 132.0236
L133.9055 131.4522
" />
<path d="M133.9055 131.4522
L134.0007 131.2617
" />
<path d="M134.0007 131.2617
L134.0960 131.1665
" />
<path d="M134.0960 131.1665
L134.2864 131.0712
" />
<path d="M134.2864 131.0712
L134.5722 131.0712
" />
<path d="M134.5722 131.0712
L134.7626 131.1665
" />
<path d="M134.7626 131.1665
L134.8579 131.2617
" />
<path d="M134.8579 131.2617
L134.9531 131.4522
" />
<path d="M134.9531 131.4522
L134.9531 132.0236
" />
<path d="M134.9531 132.0236
L134.8579 132.2141
" />
<path d="M134.8579 132.2141
L134.7626 132.3093
" />
<path d="M134.7626 132.3093
L134.5722 132.4046
" />
<path d="M134.5722 132.4046
L134.2864 132.4046
" />
<path d="M136.0960 132.4046
L135.9055 132.3093
" />
<path d="M135.9055 132.3093
L135.8103 132.1189
" />
<path d="M135.8103 132.1189
L135.8103 130.4046
" />
<path d="M137.6198 132.3093
L137.4293 132.4046
" />
<path d="M137.4293 132.4046
L137.0483 132.4046
" />
<path d="M137.0483 132.4046
L136.8579 132.3093
" />
<path d="M136.8579 132.3093
L136.7626 132.1189
" />
<path d="M136.7626 132.1189
L136.7626 131.3570
" />
<path d="M136.7626 131.3570
L136.8579 131.1665
" />
<path d="M136.8579 131.1665
L137.0483 131.0712
" />
<path d="M137.0483 131.0712
L137.4293 131.0712
" />
<path d="M137.4293 131.0712
L137.6198 131.1665
" />
<path d="M137.6198 131.1665
L137.7150 131.3570
" />
<path d="M137.7150 131.3570
L137.7150 131.5474
" />
<path d="M137.7150 131.5474
L136.7626 131.7379
" />
<path d="M138.4769 132.3093
L138.6674 132.4046
" />
<path d="M138.6674 132.4046
L139.0483 132.4046
" />
<path d="M139.0483 132.4046
L139.2388 132.3093
" />
<path d="M139.2388 132.3093
L139.3341 132.1189
" />
<path d="M139.3341 132.1189
L139.3341 132.0236
" />
<path d="M139.3341 132.0236
L139.2388 131.8331
" />
<path d="M139.2388 131.8331
L139.0483 131.7379
" />
<path d="M139.0483 131.7379
L138.7626 131.7379
" />
<path d="M138.7626 131.7379
L138.5722 131.6427
" />
<path d="M138.5722 131.6427
L138.4769 131.4522
" />
<path d="M138.4769 131.4522
L138.4769 131.3570
" />
<path d="M138.4769 131.3570
L138.5722 131.1665
" />
<path d="M138.5722 131.1665
L138.7626 131.0712
" />
<path d="M138.7626 131.0712
L139.0483 131.0712
" />
<path d="M139.0483 131.0712
L139.2388 131.1665
" />
<path d="M140.0007 133.1665
L140.0960 133.0712
" />
<path d="M140.0960 133.0712
L140.2864 132.7855
" />
<path d="M140.2864 132.7855
L140.3817 132.5950
" />
<path d="M140.3817 132.5950
L140.4769 132.3093
" />
<path d="M140.4769 132.3093
L140.5722 131.8331
" />
<path d="M140.5722 131.8331
L140.5722 131.4522
" />
<path d="M140.5722 131.4522
L140.4769 130.9760
" />
<path d="M140.4769 130.9760
L140.3817 130.6903
" />
<path d="M140.3817 130.6903
L140.2864 130.4998
" />
<path d="M140.2864 130.4998
L140.0960 130.2141
" />
<path d="M140.0960 130.2141
L140.0007 130.1189
" />
</g></g> 
</svg>
