%TF.GenerationSoftware,KiCad,Pcbnew,7.0.9-7.0.9~ubuntu22.04.1*%
%TF.CreationDate,2023-12-28T22:57:34-08:00*%
%TF.ProjectId,kraken-can-adapter,6b72616b-656e-42d6-9361-6e2d61646170,1*%
%TF.SameCoordinates,Original*%
%TF.FileFunction,Legend,Top*%
%TF.FilePolarity,Positive*%
%FSLAX46Y46*%
G04 Gerber Fmt 4.6, Leading zero omitted, Abs format (unit mm)*
G04 Created by KiCad (PCBNEW 7.0.9-7.0.9~ubuntu22.04.1) date 2023-12-28 22:57:34*
%MOMM*%
%LPD*%
G01*
G04 APERTURE LIST*
%ADD10C,0.254000*%
%ADD11C,0.100000*%
G04 APERTURE END LIST*
D10*
G36*
X92631168Y-117458285D02*
G01*
X92631168Y-117894100D01*
X92363165Y-117894100D01*
X92363165Y-116591618D01*
X92631168Y-116591618D01*
X92631168Y-117163296D01*
X93140187Y-116591618D01*
X93456580Y-116591618D01*
X92936704Y-117152749D01*
X93511793Y-117894100D01*
X93191989Y-117894100D01*
X92765170Y-117318700D01*
X92631168Y-117458285D01*
G37*
G36*
X94368231Y-116591752D02*
G01*
X94386444Y-116592451D01*
X94404166Y-116593751D01*
X94421398Y-116595650D01*
X94438139Y-116598149D01*
X94454390Y-116601248D01*
X94470149Y-116604947D01*
X94485418Y-116609245D01*
X94500196Y-116614143D01*
X94514484Y-116619641D01*
X94528281Y-116625739D01*
X94541518Y-116632269D01*
X94554129Y-116639181D01*
X94566113Y-116646475D01*
X94577470Y-116654150D01*
X94588199Y-116662207D01*
X94598302Y-116670646D01*
X94607777Y-116679466D01*
X94616626Y-116688669D01*
X94624848Y-116698252D01*
X94632442Y-116708218D01*
X94637157Y-116715073D01*
X94645987Y-116728896D01*
X94654178Y-116742758D01*
X94661729Y-116756658D01*
X94668641Y-116770597D01*
X94674912Y-116784575D01*
X94680544Y-116798592D01*
X94685536Y-116812647D01*
X94689889Y-116826741D01*
X94693669Y-116840850D01*
X94696945Y-116855104D01*
X94699718Y-116869504D01*
X94701986Y-116884048D01*
X94703750Y-116898739D01*
X94705010Y-116913575D01*
X94705766Y-116928556D01*
X94706018Y-116943682D01*
X94705804Y-116958270D01*
X94705159Y-116972564D01*
X94704086Y-116986565D01*
X94702582Y-117000272D01*
X94700649Y-117013687D01*
X94698287Y-117026808D01*
X94695495Y-117039636D01*
X94692273Y-117052171D01*
X94688622Y-117064412D01*
X94684542Y-117076360D01*
X94680031Y-117088016D01*
X94669722Y-117110446D01*
X94657695Y-117131704D01*
X94643950Y-117151788D01*
X94628487Y-117170700D01*
X94611305Y-117188439D01*
X94602070Y-117196869D01*
X94592406Y-117205005D01*
X94582311Y-117212848D01*
X94571788Y-117220398D01*
X94560835Y-117227655D01*
X94549452Y-117234618D01*
X94537639Y-117241289D01*
X94525398Y-117247666D01*
X94512726Y-117253749D01*
X94499625Y-117259540D01*
X94486095Y-117265037D01*
X94497800Y-117269874D01*
X94511326Y-117275566D01*
X94523626Y-117280864D01*
X94536767Y-117286702D01*
X94548141Y-117291973D01*
X94557748Y-117296677D01*
X94569419Y-117303384D01*
X94579695Y-117310844D01*
X94590030Y-117319788D01*
X94598936Y-117328636D01*
X94604897Y-117335140D01*
X94613403Y-117344958D01*
X94621893Y-117355944D01*
X94628840Y-117366425D01*
X94634888Y-117377786D01*
X94637157Y-117383219D01*
X94641189Y-117396150D01*
X94644213Y-117408775D01*
X94646734Y-117421211D01*
X94649254Y-117435389D01*
X94651270Y-117447986D01*
X94653286Y-117461697D01*
X94655201Y-117475941D01*
X94656912Y-117490137D01*
X94658419Y-117504285D01*
X94659723Y-117518384D01*
X94660823Y-117532434D01*
X94661720Y-117546436D01*
X94662413Y-117560390D01*
X94662902Y-117574295D01*
X94663368Y-117589010D01*
X94663833Y-117605392D01*
X94664182Y-117618772D01*
X94664531Y-117633090D01*
X94664880Y-117648347D01*
X94665229Y-117664541D01*
X94665578Y-117681673D01*
X94665927Y-117699742D01*
X94666159Y-117712310D01*
X94666392Y-117725294D01*
X94666625Y-117738695D01*
X94667129Y-117752391D01*
X94668642Y-117765329D01*
X94671164Y-117777509D01*
X94676095Y-117792570D01*
X94682820Y-117806284D01*
X94691338Y-117818650D01*
X94701649Y-117829669D01*
X94713754Y-117839341D01*
X94724009Y-117845710D01*
X94724009Y-117894100D01*
X94436155Y-117894100D01*
X94430212Y-117882526D01*
X94424794Y-117871068D01*
X94418757Y-117856910D01*
X94413537Y-117842933D01*
X94409136Y-117829138D01*
X94405553Y-117815525D01*
X94403275Y-117804765D01*
X94400951Y-117790207D01*
X94399376Y-117776859D01*
X94398053Y-117761999D01*
X94396982Y-117745627D01*
X94396344Y-117732356D01*
X94395848Y-117718234D01*
X94395493Y-117703261D01*
X94395281Y-117687438D01*
X94395210Y-117670764D01*
X94395234Y-117657712D01*
X94395332Y-117642419D01*
X94395507Y-117628262D01*
X94395756Y-117615241D01*
X94396156Y-117601115D01*
X94396665Y-117588625D01*
X94396761Y-117586703D01*
X94397486Y-117573745D01*
X94398096Y-117559772D01*
X94398475Y-117546691D01*
X94398622Y-117533040D01*
X94398276Y-117518084D01*
X94397237Y-117503924D01*
X94395506Y-117490560D01*
X94393082Y-117477991D01*
X94388773Y-117462472D01*
X94383233Y-117448368D01*
X94376463Y-117435680D01*
X94368461Y-117424406D01*
X94359228Y-117414548D01*
X94348701Y-117405897D01*
X94336662Y-117398399D01*
X94323110Y-117392055D01*
X94308047Y-117386864D01*
X94295757Y-117383728D01*
X94282616Y-117381241D01*
X94268625Y-117379402D01*
X94253783Y-117378213D01*
X94238091Y-117377672D01*
X94232671Y-117377636D01*
X93925274Y-117377636D01*
X93925274Y-117894100D01*
X93657271Y-117894100D01*
X93657271Y-116814954D01*
X93925274Y-116814954D01*
X93925274Y-117154300D01*
X94248491Y-117154300D01*
X94265868Y-117154003D01*
X94282405Y-117153111D01*
X94298103Y-117151626D01*
X94312961Y-117149546D01*
X94326980Y-117146871D01*
X94340158Y-117143602D01*
X94352498Y-117139739D01*
X94367643Y-117133664D01*
X94381297Y-117126532D01*
X94390557Y-117120490D01*
X94401680Y-117110850D01*
X94411320Y-117098990D01*
X94419477Y-117084910D01*
X94424622Y-117072894D01*
X94428932Y-117059628D01*
X94432408Y-117045115D01*
X94435049Y-117029352D01*
X94436857Y-117012341D01*
X94437830Y-116994082D01*
X94438016Y-116981215D01*
X94437607Y-116963021D01*
X94436380Y-116946010D01*
X94434335Y-116930182D01*
X94431473Y-116915537D01*
X94427792Y-116902076D01*
X94423294Y-116889798D01*
X94416024Y-116875267D01*
X94407300Y-116862841D01*
X94397122Y-116852517D01*
X94391487Y-116848144D01*
X94379075Y-116840365D01*
X94365102Y-116833623D01*
X94349568Y-116827919D01*
X94336894Y-116824321D01*
X94323342Y-116821307D01*
X94308912Y-116818876D01*
X94293604Y-116817028D01*
X94277418Y-116815764D01*
X94260354Y-116815084D01*
X94248491Y-116814954D01*
X93925274Y-116814954D01*
X93657271Y-116814954D01*
X93657271Y-116591618D01*
X94355816Y-116591618D01*
X94368231Y-116591752D01*
G37*
G36*
X96024629Y-117894100D02*
G01*
X95749492Y-117894100D01*
X95663880Y-117631370D01*
X95175954Y-117631370D01*
X95088481Y-117894100D01*
X94815205Y-117894100D01*
X94987799Y-117408034D01*
X95251020Y-117408034D01*
X95590366Y-117408034D01*
X95420693Y-116899015D01*
X95251020Y-117408034D01*
X94987799Y-117408034D01*
X95277696Y-116591618D01*
X95574546Y-116591618D01*
X96024629Y-117894100D01*
G37*
G36*
X96446486Y-117458285D02*
G01*
X96446486Y-117894100D01*
X96178483Y-117894100D01*
X96178483Y-116591618D01*
X96446486Y-116591618D01*
X96446486Y-117163296D01*
X96955505Y-116591618D01*
X97271897Y-116591618D01*
X96752021Y-117152749D01*
X97327111Y-117894100D01*
X97007306Y-117894100D01*
X96580487Y-117318700D01*
X96446486Y-117458285D01*
G37*
G36*
X97740592Y-117332969D02*
G01*
X97740592Y-117670764D01*
X98446270Y-117670764D01*
X98446270Y-117894100D01*
X97472589Y-117894100D01*
X97472589Y-116591618D01*
X98414011Y-116591618D01*
X98414011Y-116814954D01*
X97740592Y-116814954D01*
X97740592Y-117109633D01*
X98364070Y-117109633D01*
X98364070Y-117332969D01*
X97740592Y-117332969D01*
G37*
G36*
X99446318Y-117894100D02*
G01*
X98923030Y-116993623D01*
X98923030Y-117894100D01*
X98655027Y-117894100D01*
X98655027Y-116591618D01*
X98930164Y-116591618D01*
X99446318Y-117477827D01*
X99446318Y-116591618D01*
X99714321Y-116591618D01*
X99714321Y-117894100D01*
X99446318Y-117894100D01*
G37*
G36*
X101300624Y-117033016D02*
G01*
X101297309Y-117018608D01*
X101293646Y-117004657D01*
X101289635Y-116991164D01*
X101285275Y-116978128D01*
X101280566Y-116965549D01*
X101275510Y-116953428D01*
X101270105Y-116941764D01*
X101264352Y-116930557D01*
X101251800Y-116909517D01*
X101237855Y-116890306D01*
X101222516Y-116872924D01*
X101205784Y-116857372D01*
X101187659Y-116843650D01*
X101168140Y-116831757D01*
X101147228Y-116821695D01*
X101124922Y-116813461D01*
X101101223Y-116807058D01*
X101088851Y-116804542D01*
X101076130Y-116802483D01*
X101063061Y-116800883D01*
X101049644Y-116799739D01*
X101035879Y-116799053D01*
X101021765Y-116798824D01*
X101002147Y-116799299D01*
X100983074Y-116800724D01*
X100964546Y-116803099D01*
X100946563Y-116806424D01*
X100929126Y-116810699D01*
X100912234Y-116815923D01*
X100895888Y-116822098D01*
X100880086Y-116829223D01*
X100864830Y-116837297D01*
X100850119Y-116846322D01*
X100835953Y-116856296D01*
X100822333Y-116867221D01*
X100809258Y-116879095D01*
X100796728Y-116891920D01*
X100784743Y-116905694D01*
X100773304Y-116920418D01*
X100762486Y-116935949D01*
X100752366Y-116952222D01*
X100742944Y-116969236D01*
X100734220Y-116986992D01*
X100726194Y-117005490D01*
X100718866Y-117024729D01*
X100712236Y-117044709D01*
X100706303Y-117065431D01*
X100701069Y-117086895D01*
X100696532Y-117109100D01*
X100692694Y-117132047D01*
X100689553Y-117155735D01*
X100687110Y-117180165D01*
X100686151Y-117192657D01*
X100685365Y-117205336D01*
X100684755Y-117218200D01*
X100684319Y-117231249D01*
X100684057Y-117244483D01*
X100683970Y-117257903D01*
X100684054Y-117271112D01*
X100684308Y-117284138D01*
X100684730Y-117296983D01*
X100685322Y-117309646D01*
X100686082Y-117322128D01*
X100688111Y-117346545D01*
X100690815Y-117370236D01*
X100694196Y-117393200D01*
X100698253Y-117415436D01*
X100702985Y-117436946D01*
X100708394Y-117457729D01*
X100714479Y-117477784D01*
X100721240Y-117497113D01*
X100728678Y-117515714D01*
X100736791Y-117533589D01*
X100745580Y-117550737D01*
X100755046Y-117567157D01*
X100765188Y-117582851D01*
X100770512Y-117590425D01*
X100781637Y-117604924D01*
X100793296Y-117618487D01*
X100805492Y-117631115D01*
X100818223Y-117642808D01*
X100831490Y-117653565D01*
X100845292Y-117663387D01*
X100859630Y-117672274D01*
X100874503Y-117680225D01*
X100889912Y-117687240D01*
X100905856Y-117693320D01*
X100922336Y-117698465D01*
X100939352Y-117702674D01*
X100956903Y-117705948D01*
X100974989Y-117708287D01*
X100993612Y-117709690D01*
X101012769Y-117710158D01*
X101028200Y-117709892D01*
X101043241Y-117709096D01*
X101057891Y-117707770D01*
X101072151Y-117705912D01*
X101086021Y-117703524D01*
X101099501Y-117700605D01*
X101112591Y-117697155D01*
X101125290Y-117693175D01*
X101137600Y-117688664D01*
X101149519Y-117683622D01*
X101161048Y-117678050D01*
X101172187Y-117671946D01*
X101182936Y-117665313D01*
X101193294Y-117658148D01*
X101203263Y-117650453D01*
X101212841Y-117642227D01*
X101221981Y-117633512D01*
X101230633Y-117624352D01*
X101238799Y-117614746D01*
X101246477Y-117604694D01*
X101253668Y-117594196D01*
X101260372Y-117583252D01*
X101266589Y-117571862D01*
X101272319Y-117560027D01*
X101277562Y-117547745D01*
X101282318Y-117535018D01*
X101286587Y-117521844D01*
X101290369Y-117508225D01*
X101293663Y-117494160D01*
X101296471Y-117479649D01*
X101298791Y-117464692D01*
X101300624Y-117449289D01*
X101561493Y-117449289D01*
X101560564Y-117463158D01*
X101559366Y-117476846D01*
X101557900Y-117490355D01*
X101556166Y-117503684D01*
X101554164Y-117516833D01*
X101551893Y-117529801D01*
X101549353Y-117542590D01*
X101546545Y-117555199D01*
X101543469Y-117567628D01*
X101540125Y-117579877D01*
X101536512Y-117591947D01*
X101532631Y-117603836D01*
X101528481Y-117615545D01*
X101519376Y-117638424D01*
X101509198Y-117660583D01*
X101497947Y-117682022D01*
X101485622Y-117702742D01*
X101472223Y-117722742D01*
X101457751Y-117742022D01*
X101442205Y-117760582D01*
X101425586Y-117778423D01*
X101407893Y-117795544D01*
X101398644Y-117803835D01*
X101389189Y-117811907D01*
X101379551Y-117819723D01*
X101359730Y-117834587D01*
X101339178Y-117848425D01*
X101328629Y-117854960D01*
X101317898Y-117861239D01*
X101306984Y-117867261D01*
X101295888Y-117873027D01*
X101284609Y-117878537D01*
X101273148Y-117883791D01*
X101261505Y-117888788D01*
X101249679Y-117893529D01*
X101237671Y-117898014D01*
X101225481Y-117902242D01*
X101213108Y-117906214D01*
X101200553Y-117909930D01*
X101187816Y-117913390D01*
X101174896Y-117916593D01*
X101161794Y-117919540D01*
X101148509Y-117922231D01*
X101135043Y-117924665D01*
X101121393Y-117926844D01*
X101107562Y-117928766D01*
X101093548Y-117930432D01*
X101079352Y-117931841D01*
X101064973Y-117932994D01*
X101050412Y-117933891D01*
X101035669Y-117934532D01*
X101020743Y-117934916D01*
X101005635Y-117935044D01*
X100988781Y-117934866D01*
X100972147Y-117934329D01*
X100955732Y-117933436D01*
X100939536Y-117932185D01*
X100923559Y-117930576D01*
X100907802Y-117928610D01*
X100892264Y-117926287D01*
X100876946Y-117923606D01*
X100861846Y-117920568D01*
X100846966Y-117917172D01*
X100832306Y-117913419D01*
X100817864Y-117909308D01*
X100803642Y-117904840D01*
X100789640Y-117900015D01*
X100775856Y-117894832D01*
X100762292Y-117889292D01*
X100748947Y-117883394D01*
X100735822Y-117877138D01*
X100722916Y-117870526D01*
X100710229Y-117863556D01*
X100697761Y-117856228D01*
X100685513Y-117848543D01*
X100673484Y-117840501D01*
X100661675Y-117832101D01*
X100650085Y-117823343D01*
X100638714Y-117814228D01*
X100627562Y-117804756D01*
X100616630Y-117794926D01*
X100605917Y-117784739D01*
X100595423Y-117774195D01*
X100585149Y-117763293D01*
X100575093Y-117752033D01*
X100565303Y-117740467D01*
X100555824Y-117728643D01*
X100546656Y-117716563D01*
X100537798Y-117704225D01*
X100529251Y-117691631D01*
X100521015Y-117678780D01*
X100513090Y-117665672D01*
X100505476Y-117652308D01*
X100498172Y-117638686D01*
X100491179Y-117624807D01*
X100484497Y-117610672D01*
X100478126Y-117596280D01*
X100472065Y-117581631D01*
X100466315Y-117566725D01*
X100460877Y-117551562D01*
X100455748Y-117536142D01*
X100450931Y-117520465D01*
X100446425Y-117504532D01*
X100442229Y-117488342D01*
X100438344Y-117471894D01*
X100434770Y-117455190D01*
X100431507Y-117438229D01*
X100428554Y-117421011D01*
X100425912Y-117403537D01*
X100423581Y-117385805D01*
X100421561Y-117367816D01*
X100419852Y-117349571D01*
X100418453Y-117331069D01*
X100417365Y-117312310D01*
X100416588Y-117293294D01*
X100416122Y-117274021D01*
X100415967Y-117254491D01*
X100416124Y-117234846D01*
X100416594Y-117215459D01*
X100417379Y-117196332D01*
X100418477Y-117177462D01*
X100419890Y-117158852D01*
X100421616Y-117140500D01*
X100423655Y-117122407D01*
X100426009Y-117104573D01*
X100428677Y-117086997D01*
X100431658Y-117069680D01*
X100434953Y-117052622D01*
X100438562Y-117035823D01*
X100442485Y-117019282D01*
X100446722Y-117003000D01*
X100451272Y-116986976D01*
X100456136Y-116971211D01*
X100461314Y-116955705D01*
X100466806Y-116940458D01*
X100472612Y-116925469D01*
X100478732Y-116910739D01*
X100485165Y-116896268D01*
X100491912Y-116882055D01*
X100498973Y-116868101D01*
X100506348Y-116854406D01*
X100514037Y-116840970D01*
X100522039Y-116827792D01*
X100530355Y-116814873D01*
X100538986Y-116802212D01*
X100547930Y-116789810D01*
X100557187Y-116777667D01*
X100566759Y-116765783D01*
X100576644Y-116754157D01*
X100586818Y-116742840D01*
X100597214Y-116731883D01*
X100607833Y-116721285D01*
X100618675Y-116711046D01*
X100629740Y-116701166D01*
X100641028Y-116691646D01*
X100652539Y-116682484D01*
X100664273Y-116673683D01*
X100676229Y-116665240D01*
X100688409Y-116657157D01*
X100700812Y-116649432D01*
X100713438Y-116642068D01*
X100726286Y-116635062D01*
X100739358Y-116628416D01*
X100752652Y-116622129D01*
X100766170Y-116616201D01*
X100779910Y-116610632D01*
X100793873Y-116605423D01*
X100808060Y-116600573D01*
X100822469Y-116596082D01*
X100837101Y-116591951D01*
X100851956Y-116588178D01*
X100867034Y-116584765D01*
X100882335Y-116581712D01*
X100897859Y-116579017D01*
X100913606Y-116576682D01*
X100929576Y-116574706D01*
X100945769Y-116573089D01*
X100962184Y-116571832D01*
X100978823Y-116570934D01*
X100995685Y-116570395D01*
X101012769Y-116570215D01*
X101027093Y-116570336D01*
X101041253Y-116570698D01*
X101055252Y-116571300D01*
X101069088Y-116572144D01*
X101082762Y-116573229D01*
X101096273Y-116574556D01*
X101109622Y-116576123D01*
X101122809Y-116577931D01*
X101135833Y-116579981D01*
X101148695Y-116582271D01*
X101161394Y-116584803D01*
X101173932Y-116587576D01*
X101186306Y-116590590D01*
X101198519Y-116593845D01*
X101210569Y-116597342D01*
X101222457Y-116601079D01*
X101245745Y-116609277D01*
X101268384Y-116618440D01*
X101290373Y-116628567D01*
X101311713Y-116639659D01*
X101332404Y-116651715D01*
X101352445Y-116664736D01*
X101371837Y-116678721D01*
X101390579Y-116693670D01*
X101408527Y-116709427D01*
X101425460Y-116725911D01*
X101441378Y-116743121D01*
X101456281Y-116761059D01*
X101470168Y-116779723D01*
X101483039Y-116799115D01*
X101494895Y-116819234D01*
X101505736Y-116840079D01*
X101515562Y-116861652D01*
X101524372Y-116883952D01*
X101532167Y-116906978D01*
X101538946Y-116930732D01*
X101541955Y-116942881D01*
X101544710Y-116955212D01*
X101547211Y-116967725D01*
X101549458Y-116980420D01*
X101551452Y-116993297D01*
X101553191Y-117006355D01*
X101554677Y-117019595D01*
X101555909Y-117033016D01*
X101300624Y-117033016D01*
G37*
G36*
X102853738Y-117894100D02*
G01*
X102578600Y-117894100D01*
X102492988Y-117631370D01*
X102005062Y-117631370D01*
X101917589Y-117894100D01*
X101644313Y-117894100D01*
X101816907Y-117408034D01*
X102080128Y-117408034D01*
X102419474Y-117408034D01*
X102249801Y-116899015D01*
X102080128Y-117408034D01*
X101816907Y-117408034D01*
X102106804Y-116591618D01*
X102403654Y-116591618D01*
X102853738Y-117894100D01*
G37*
G36*
X103798882Y-117894100D02*
G01*
X103275594Y-116993623D01*
X103275594Y-117894100D01*
X103007591Y-117894100D01*
X103007591Y-116591618D01*
X103282728Y-116591618D01*
X103798882Y-117477827D01*
X103798882Y-116591618D01*
X104066884Y-116591618D01*
X104066884Y-117894100D01*
X103798882Y-117894100D01*
G37*
G36*
X105924603Y-117894100D02*
G01*
X105649466Y-117894100D01*
X105563854Y-117631370D01*
X105075927Y-117631370D01*
X104988454Y-117894100D01*
X104715178Y-117894100D01*
X104887772Y-117408034D01*
X105150993Y-117408034D01*
X105490339Y-117408034D01*
X105320666Y-116899015D01*
X105150993Y-117408034D01*
X104887772Y-117408034D01*
X105177669Y-116591618D01*
X105474520Y-116591618D01*
X105924603Y-117894100D01*
G37*
G36*
X106606036Y-116591758D02*
G01*
X106624184Y-116592176D01*
X106641921Y-116592872D01*
X106659245Y-116593848D01*
X106676158Y-116595102D01*
X106692659Y-116596635D01*
X106708747Y-116598446D01*
X106724424Y-116600536D01*
X106739688Y-116602905D01*
X106754541Y-116605553D01*
X106768982Y-116608479D01*
X106783011Y-116611684D01*
X106796627Y-116615167D01*
X106809832Y-116618929D01*
X106822625Y-116622970D01*
X106835006Y-116627290D01*
X106847058Y-116631917D01*
X106858866Y-116636882D01*
X106870429Y-116642183D01*
X106881747Y-116647821D01*
X106892821Y-116653795D01*
X106903650Y-116660107D01*
X106914234Y-116666755D01*
X106924573Y-116673741D01*
X106934667Y-116681063D01*
X106944517Y-116688722D01*
X106954122Y-116696718D01*
X106963482Y-116705050D01*
X106972597Y-116713720D01*
X106981468Y-116722726D01*
X106990094Y-116732069D01*
X106998475Y-116741750D01*
X107008265Y-116753695D01*
X107017744Y-116765878D01*
X107026913Y-116778299D01*
X107035771Y-116790958D01*
X107044317Y-116803855D01*
X107052553Y-116816991D01*
X107060479Y-116830364D01*
X107068093Y-116843976D01*
X107075397Y-116857826D01*
X107082390Y-116871914D01*
X107089072Y-116886239D01*
X107095443Y-116900803D01*
X107101503Y-116915606D01*
X107107253Y-116930646D01*
X107112692Y-116945924D01*
X107117820Y-116961440D01*
X107122638Y-116977195D01*
X107127144Y-116993188D01*
X107131340Y-117009418D01*
X107135225Y-117025887D01*
X107138799Y-117042594D01*
X107142062Y-117059539D01*
X107145015Y-117076722D01*
X107147656Y-117094143D01*
X107149987Y-117111802D01*
X107152008Y-117129700D01*
X107153717Y-117147835D01*
X107155116Y-117166208D01*
X107156203Y-117184820D01*
X107156980Y-117203670D01*
X107157446Y-117222758D01*
X107157602Y-117242083D01*
X107157446Y-117261597D01*
X107156980Y-117280859D01*
X107156203Y-117299871D01*
X107155116Y-117318632D01*
X107153717Y-117337142D01*
X107152008Y-117355402D01*
X107149987Y-117373410D01*
X107147656Y-117391168D01*
X107145015Y-117408675D01*
X107142062Y-117425931D01*
X107138799Y-117442936D01*
X107135225Y-117459690D01*
X107131340Y-117476194D01*
X107127144Y-117492447D01*
X107122638Y-117508449D01*
X107117820Y-117524200D01*
X107112692Y-117539700D01*
X107107253Y-117554950D01*
X107101503Y-117569948D01*
X107095443Y-117584696D01*
X107089072Y-117599193D01*
X107082390Y-117613440D01*
X107075397Y-117627435D01*
X107068093Y-117641180D01*
X107060479Y-117654673D01*
X107052553Y-117667916D01*
X107044317Y-117680909D01*
X107035771Y-117693650D01*
X107026913Y-117706140D01*
X107017744Y-117718380D01*
X107008265Y-117730369D01*
X106998475Y-117742107D01*
X106982002Y-117760512D01*
X106964301Y-117777730D01*
X106945371Y-117793761D01*
X106935445Y-117801331D01*
X106925213Y-117808604D01*
X106914673Y-117815580D01*
X106903825Y-117822259D01*
X106892671Y-117828642D01*
X106881209Y-117834727D01*
X106869441Y-117840516D01*
X106857365Y-117846008D01*
X106844982Y-117851203D01*
X106832292Y-117856101D01*
X106819294Y-117860703D01*
X106805990Y-117865007D01*
X106792378Y-117869015D01*
X106778460Y-117872726D01*
X106764234Y-117876139D01*
X106749700Y-117879256D01*
X106734860Y-117882077D01*
X106719713Y-117884600D01*
X106704258Y-117886826D01*
X106688496Y-117888756D01*
X106672427Y-117890389D01*
X106656051Y-117891725D01*
X106639368Y-117892764D01*
X106622378Y-117893506D01*
X106605080Y-117893951D01*
X106587476Y-117894100D01*
X106078456Y-117894100D01*
X106078456Y-116814954D01*
X106346459Y-116814954D01*
X106346459Y-117670764D01*
X106587476Y-117670764D01*
X106606063Y-117670347D01*
X106624061Y-117669095D01*
X106641468Y-117667010D01*
X106658286Y-117664090D01*
X106674513Y-117660336D01*
X106690150Y-117655748D01*
X106705198Y-117650325D01*
X106719655Y-117644068D01*
X106733522Y-117636977D01*
X106746798Y-117629052D01*
X106759485Y-117620292D01*
X106771582Y-117610699D01*
X106783089Y-117600271D01*
X106794005Y-117589009D01*
X106804332Y-117576912D01*
X106814068Y-117563981D01*
X106823215Y-117550217D01*
X106831771Y-117535617D01*
X106839737Y-117520184D01*
X106847113Y-117503916D01*
X106853899Y-117486815D01*
X106860095Y-117468878D01*
X106865701Y-117450108D01*
X106870716Y-117430504D01*
X106875142Y-117410065D01*
X106878978Y-117388792D01*
X106882223Y-117366684D01*
X106884878Y-117343743D01*
X106886944Y-117319967D01*
X106888419Y-117295357D01*
X106889304Y-117269913D01*
X106889599Y-117243634D01*
X106889304Y-117217261D01*
X106888419Y-117191724D01*
X106886944Y-117167025D01*
X106884878Y-117143162D01*
X106882223Y-117120138D01*
X106878978Y-117097950D01*
X106875142Y-117076600D01*
X106870716Y-117056087D01*
X106865701Y-117036411D01*
X106860095Y-117017572D01*
X106853899Y-116999571D01*
X106847113Y-116982407D01*
X106839737Y-116966081D01*
X106831771Y-116950591D01*
X106823215Y-116935939D01*
X106814068Y-116922124D01*
X106804332Y-116909146D01*
X106794005Y-116897006D01*
X106783089Y-116885703D01*
X106771582Y-116875237D01*
X106759485Y-116865609D01*
X106746798Y-116856817D01*
X106733522Y-116848863D01*
X106719655Y-116841747D01*
X106705198Y-116835467D01*
X106690150Y-116830025D01*
X106674513Y-116825420D01*
X106658286Y-116821652D01*
X106641468Y-116818722D01*
X106624061Y-116816629D01*
X106606063Y-116815373D01*
X106587476Y-116814954D01*
X106346459Y-116814954D01*
X106078456Y-116814954D01*
X106078456Y-116591618D01*
X106587476Y-116591618D01*
X106606036Y-116591758D01*
G37*
G36*
X108449537Y-117894100D02*
G01*
X108174399Y-117894100D01*
X108088787Y-117631370D01*
X107600861Y-117631370D01*
X107513388Y-117894100D01*
X107240112Y-117894100D01*
X107412706Y-117408034D01*
X107675927Y-117408034D01*
X108015273Y-117408034D01*
X107845600Y-116899015D01*
X107675927Y-117408034D01*
X107412706Y-117408034D01*
X107702603Y-116591618D01*
X107999453Y-116591618D01*
X108449537Y-117894100D01*
G37*
G36*
X109191414Y-116591720D02*
G01*
X109203852Y-116592023D01*
X109228168Y-116593237D01*
X109251737Y-116595261D01*
X109274560Y-116598094D01*
X109296637Y-116601736D01*
X109317967Y-116606188D01*
X109338551Y-116611449D01*
X109358389Y-116617519D01*
X109377480Y-116624399D01*
X109395825Y-116632088D01*
X109413423Y-116640587D01*
X109430275Y-116649895D01*
X109446380Y-116660012D01*
X109461740Y-116670939D01*
X109476352Y-116682676D01*
X109490219Y-116695221D01*
X109503328Y-116708535D01*
X109515591Y-116722576D01*
X109527009Y-116737344D01*
X109537581Y-116752839D01*
X109547307Y-116769061D01*
X109556187Y-116786010D01*
X109564222Y-116803685D01*
X109571411Y-116822088D01*
X109577754Y-116841218D01*
X109583251Y-116861075D01*
X109587903Y-116881659D01*
X109591709Y-116902970D01*
X109594669Y-116925008D01*
X109596783Y-116947773D01*
X109598052Y-116971265D01*
X109598475Y-116995484D01*
X109598055Y-117019946D01*
X109596798Y-117043781D01*
X109594701Y-117066988D01*
X109591767Y-117089568D01*
X109587994Y-117111520D01*
X109583382Y-117132844D01*
X109577932Y-117153540D01*
X109571643Y-117173609D01*
X109564516Y-117193051D01*
X109556551Y-117211864D01*
X109547747Y-117230050D01*
X109538104Y-117247609D01*
X109527623Y-117264539D01*
X109516304Y-117280842D01*
X109504146Y-117296518D01*
X109491149Y-117311566D01*
X109477493Y-117325839D01*
X109463276Y-117339192D01*
X109448500Y-117351624D01*
X109433163Y-117363134D01*
X109417268Y-117373725D01*
X109400812Y-117383394D01*
X109383796Y-117392142D01*
X109366221Y-117399969D01*
X109348086Y-117406876D01*
X109329391Y-117412862D01*
X109310136Y-117417926D01*
X109290322Y-117422070D01*
X109269947Y-117425293D01*
X109249013Y-117427596D01*
X109227519Y-117428977D01*
X109205466Y-117429437D01*
X108871393Y-117429437D01*
X108871393Y-117894100D01*
X108603390Y-117894100D01*
X108603390Y-116814954D01*
X108871393Y-116814954D01*
X108871393Y-117206102D01*
X109121405Y-117206102D01*
X109134267Y-117205912D01*
X109146721Y-117205342D01*
X109170405Y-117203063D01*
X109192455Y-117199264D01*
X109212872Y-117193946D01*
X109231655Y-117187109D01*
X109248805Y-117178752D01*
X109264322Y-117168875D01*
X109278205Y-117157480D01*
X109290455Y-117144564D01*
X109301072Y-117130130D01*
X109310055Y-117114176D01*
X109317405Y-117096702D01*
X109323122Y-117077709D01*
X109327205Y-117057197D01*
X109329655Y-117035165D01*
X109330472Y-117011613D01*
X109330025Y-116993286D01*
X109328683Y-116975874D01*
X109326448Y-116959378D01*
X109323318Y-116943799D01*
X109319294Y-116929135D01*
X109314376Y-116915387D01*
X109308563Y-116902556D01*
X109301857Y-116890640D01*
X109294256Y-116879640D01*
X109285761Y-116869557D01*
X109279601Y-116863343D01*
X109269566Y-116854696D01*
X109258540Y-116846899D01*
X109246520Y-116839952D01*
X109233509Y-116833856D01*
X109219505Y-116828611D01*
X109204509Y-116824216D01*
X109188520Y-116820672D01*
X109171539Y-116817978D01*
X109153566Y-116816135D01*
X109141032Y-116815379D01*
X109128057Y-116815001D01*
X109121405Y-116814954D01*
X108871393Y-116814954D01*
X108603390Y-116814954D01*
X108603390Y-116591618D01*
X109178790Y-116591618D01*
X109191414Y-116591720D01*
G37*
G36*
X110380459Y-116814954D02*
G01*
X110380459Y-117894100D01*
X110112457Y-117894100D01*
X110112457Y-116814954D01*
X109717587Y-116814954D01*
X109717587Y-116591618D01*
X110761061Y-116591618D01*
X110761061Y-116814954D01*
X110380459Y-116814954D01*
G37*
G36*
X111218899Y-117332969D02*
G01*
X111218899Y-117670764D01*
X111924577Y-117670764D01*
X111924577Y-117894100D01*
X110950896Y-117894100D01*
X110950896Y-116591618D01*
X111892318Y-116591618D01*
X111892318Y-116814954D01*
X111218899Y-116814954D01*
X111218899Y-117109633D01*
X111842378Y-117109633D01*
X111842378Y-117332969D01*
X111218899Y-117332969D01*
G37*
G36*
X112844293Y-116591752D02*
G01*
X112862507Y-116592451D01*
X112880229Y-116593751D01*
X112897461Y-116595650D01*
X112914202Y-116598149D01*
X112930452Y-116601248D01*
X112946212Y-116604947D01*
X112961481Y-116609245D01*
X112976259Y-116614143D01*
X112990547Y-116619641D01*
X113004343Y-116625739D01*
X113017581Y-116632269D01*
X113030192Y-116639181D01*
X113042176Y-116646475D01*
X113053532Y-116654150D01*
X113064262Y-116662207D01*
X113074365Y-116670646D01*
X113083840Y-116679466D01*
X113092689Y-116688669D01*
X113100910Y-116698252D01*
X113108505Y-116708218D01*
X113113219Y-116715073D01*
X113122050Y-116728896D01*
X113130241Y-116742758D01*
X113137792Y-116756658D01*
X113144704Y-116770597D01*
X113150975Y-116784575D01*
X113156607Y-116798592D01*
X113161599Y-116812647D01*
X113165951Y-116826741D01*
X113169732Y-116840850D01*
X113173008Y-116855104D01*
X113175781Y-116869504D01*
X113178049Y-116884048D01*
X113179813Y-116898739D01*
X113181073Y-116913575D01*
X113181829Y-116928556D01*
X113182081Y-116943682D01*
X113181867Y-116958270D01*
X113181222Y-116972564D01*
X113180148Y-116986565D01*
X113178645Y-117000272D01*
X113176712Y-117013687D01*
X113174350Y-117026808D01*
X113171558Y-117039636D01*
X113168336Y-117052171D01*
X113164685Y-117064412D01*
X113160604Y-117076360D01*
X113156094Y-117088016D01*
X113145785Y-117110446D01*
X113133758Y-117131704D01*
X113120013Y-117151788D01*
X113104550Y-117170700D01*
X113087368Y-117188439D01*
X113078133Y-117196869D01*
X113068468Y-117205005D01*
X113058374Y-117212848D01*
X113047851Y-117220398D01*
X113036897Y-117227655D01*
X113025515Y-117234618D01*
X113013702Y-117241289D01*
X113001460Y-117247666D01*
X112988789Y-117253749D01*
X112975688Y-117259540D01*
X112962158Y-117265037D01*
X112973862Y-117269874D01*
X112987389Y-117275566D01*
X112999689Y-117280864D01*
X113012830Y-117286702D01*
X113024204Y-117291973D01*
X113033811Y-117296677D01*
X113045482Y-117303384D01*
X113055758Y-117310844D01*
X113066093Y-117319788D01*
X113074998Y-117328636D01*
X113080960Y-117335140D01*
X113089466Y-117344958D01*
X113097956Y-117355944D01*
X113104903Y-117366425D01*
X113110951Y-117377786D01*
X113113219Y-117383219D01*
X113117252Y-117396150D01*
X113120276Y-117408775D01*
X113122797Y-117421211D01*
X113125317Y-117435389D01*
X113127333Y-117447986D01*
X113129349Y-117461697D01*
X113131264Y-117475941D01*
X113132975Y-117490137D01*
X113134482Y-117504285D01*
X113135786Y-117518384D01*
X113136886Y-117532434D01*
X113137782Y-117546436D01*
X113138476Y-117560390D01*
X113138965Y-117574295D01*
X113139430Y-117589010D01*
X113139896Y-117605392D01*
X113140245Y-117618772D01*
X113140594Y-117633090D01*
X113140943Y-117648347D01*
X113141291Y-117664541D01*
X113141640Y-117681673D01*
X113141989Y-117699742D01*
X113142222Y-117712310D01*
X113142455Y-117725294D01*
X113142687Y-117738695D01*
X113143192Y-117752391D01*
X113144705Y-117765329D01*
X113147227Y-117777509D01*
X113152158Y-117792570D01*
X113158883Y-117806284D01*
X113167401Y-117818650D01*
X113177712Y-117829669D01*
X113189817Y-117839341D01*
X113200072Y-117845710D01*
X113200072Y-117894100D01*
X112912217Y-117894100D01*
X112906275Y-117882526D01*
X112900857Y-117871068D01*
X112894820Y-117856910D01*
X112889600Y-117842933D01*
X112885199Y-117829138D01*
X112881615Y-117815525D01*
X112879337Y-117804765D01*
X112877014Y-117790207D01*
X112875439Y-117776859D01*
X112874116Y-117761999D01*
X112873045Y-117745627D01*
X112872407Y-117732356D01*
X112871910Y-117718234D01*
X112871556Y-117703261D01*
X112871343Y-117687438D01*
X112871272Y-117670764D01*
X112871297Y-117657712D01*
X112871395Y-117642419D01*
X112871569Y-117628262D01*
X112871819Y-117615241D01*
X112872219Y-117601115D01*
X112872728Y-117588625D01*
X112872823Y-117586703D01*
X112873549Y-117573745D01*
X112874159Y-117559772D01*
X112874537Y-117546691D01*
X112874685Y-117533040D01*
X112874338Y-117518084D01*
X112873300Y-117503924D01*
X112871568Y-117490560D01*
X112869145Y-117477991D01*
X112864836Y-117462472D01*
X112859296Y-117448368D01*
X112852525Y-117435680D01*
X112844524Y-117424406D01*
X112835291Y-117414548D01*
X112824764Y-117405897D01*
X112812724Y-117398399D01*
X112799173Y-117392055D01*
X112784110Y-117386864D01*
X112771820Y-117383728D01*
X112758679Y-117381241D01*
X112744688Y-117379402D01*
X112729846Y-117378213D01*
X112714154Y-117377672D01*
X112708734Y-117377636D01*
X112401337Y-117377636D01*
X112401337Y-117894100D01*
X112133334Y-117894100D01*
X112133334Y-116814954D01*
X112401337Y-116814954D01*
X112401337Y-117154300D01*
X112724553Y-117154300D01*
X112741931Y-117154003D01*
X112758468Y-117153111D01*
X112774166Y-117151626D01*
X112789024Y-117149546D01*
X112803043Y-117146871D01*
X112816221Y-117143602D01*
X112828560Y-117139739D01*
X112843706Y-117133664D01*
X112857359Y-117126532D01*
X112866620Y-117120490D01*
X112877743Y-117110850D01*
X112887383Y-117098990D01*
X112895540Y-117084910D01*
X112900684Y-117072894D01*
X112904995Y-117059628D01*
X112908471Y-117045115D01*
X112911112Y-117029352D01*
X112912920Y-117012341D01*
X112913893Y-116994082D01*
X112914078Y-116981215D01*
X112913670Y-116963021D01*
X112912443Y-116946010D01*
X112910398Y-116930182D01*
X112907535Y-116915537D01*
X112903855Y-116902076D01*
X112899357Y-116889798D01*
X112892087Y-116875267D01*
X112883363Y-116862841D01*
X112873184Y-116852517D01*
X112867550Y-116848144D01*
X112855138Y-116840365D01*
X112841165Y-116833623D01*
X112825631Y-116827919D01*
X112812957Y-116824321D01*
X112799404Y-116821307D01*
X112784974Y-116818876D01*
X112769666Y-116817028D01*
X112753481Y-116815764D01*
X112736417Y-116815084D01*
X112724553Y-116814954D01*
X112401337Y-116814954D01*
X112133334Y-116814954D01*
X112133334Y-116591618D01*
X112831879Y-116591618D01*
X112844293Y-116591752D01*
G37*
G36*
X114469363Y-117894100D02*
G01*
X114242305Y-117894100D01*
X113802768Y-116591618D01*
X114072632Y-116591618D01*
X114362038Y-117572434D01*
X114646171Y-116591618D01*
X114916035Y-116591618D01*
X114469363Y-117894100D01*
G37*
G36*
X115371081Y-117020299D02*
G01*
X115067406Y-117020299D01*
X115067406Y-116854348D01*
X115087693Y-116854126D01*
X115107452Y-116853461D01*
X115126685Y-116852352D01*
X115145390Y-116850800D01*
X115163568Y-116848805D01*
X115181219Y-116846365D01*
X115198343Y-116843483D01*
X115214940Y-116840157D01*
X115231010Y-116836387D01*
X115246552Y-116832174D01*
X115261568Y-116827518D01*
X115276057Y-116822418D01*
X115290018Y-116816875D01*
X115303453Y-116810888D01*
X115316360Y-116804457D01*
X115328740Y-116797583D01*
X115340593Y-116790266D01*
X115351920Y-116782505D01*
X115362719Y-116774301D01*
X115372991Y-116765653D01*
X115382735Y-116756562D01*
X115391953Y-116747028D01*
X115400644Y-116737049D01*
X115408808Y-116726628D01*
X115416444Y-116715763D01*
X115423554Y-116704454D01*
X115430136Y-116692702D01*
X115436191Y-116680507D01*
X115441720Y-116667868D01*
X115446721Y-116654785D01*
X115451195Y-116641259D01*
X115455142Y-116627290D01*
X115621093Y-116627290D01*
X115621093Y-117894100D01*
X115371081Y-117894100D01*
X115371081Y-117020299D01*
G37*
G36*
X117347291Y-117002618D02*
G01*
X117347113Y-117015725D01*
X117346579Y-117028679D01*
X117345688Y-117041480D01*
X117344441Y-117054129D01*
X117342838Y-117066625D01*
X117340879Y-117078968D01*
X117338564Y-117091159D01*
X117334422Y-117109158D01*
X117329480Y-117126815D01*
X117323735Y-117144127D01*
X117317190Y-117161096D01*
X117309842Y-117177722D01*
X117301694Y-117194004D01*
X117292987Y-117209814D01*
X117283849Y-117225138D01*
X117274281Y-117239977D01*
X117264282Y-117254331D01*
X117253852Y-117268200D01*
X117242992Y-117281583D01*
X117231700Y-117294481D01*
X117219978Y-117306893D01*
X117207826Y-117318821D01*
X117195242Y-117330263D01*
X117186614Y-117337621D01*
X117173498Y-117348421D01*
X117160322Y-117359068D01*
X117147086Y-117369562D01*
X117133790Y-117379904D01*
X117120434Y-117390093D01*
X117107018Y-117400129D01*
X117093542Y-117410013D01*
X117080006Y-117419744D01*
X117066410Y-117429322D01*
X117052754Y-117438748D01*
X117043617Y-117444947D01*
X117029937Y-117454215D01*
X117016351Y-117463642D01*
X117002856Y-117473226D01*
X116989455Y-117482969D01*
X116976146Y-117492870D01*
X116962930Y-117502929D01*
X116949807Y-117513146D01*
X116936776Y-117523521D01*
X116923838Y-117534055D01*
X116910993Y-117544746D01*
X116902481Y-117551962D01*
X116890090Y-117562862D01*
X116878392Y-117573812D01*
X116867386Y-117584810D01*
X116857072Y-117595858D01*
X116847451Y-117606955D01*
X116838523Y-117618101D01*
X116830287Y-117629296D01*
X116822743Y-117640540D01*
X116815892Y-117651833D01*
X116809734Y-117663175D01*
X116806013Y-117670764D01*
X117342018Y-117670764D01*
X117342018Y-117894100D01*
X116480935Y-117894100D01*
X116482264Y-117872514D01*
X116484003Y-117851492D01*
X116486151Y-117831036D01*
X116488709Y-117811143D01*
X116491677Y-117791816D01*
X116495053Y-117773053D01*
X116498840Y-117754855D01*
X116503036Y-117737222D01*
X116507642Y-117720153D01*
X116512657Y-117703649D01*
X116518081Y-117687709D01*
X116523916Y-117672334D01*
X116530159Y-117657524D01*
X116536813Y-117643278D01*
X116543875Y-117629597D01*
X116551348Y-117616481D01*
X116559450Y-117603570D01*
X116568326Y-117590585D01*
X116577974Y-117577524D01*
X116588396Y-117564389D01*
X116599591Y-117551178D01*
X116611558Y-117537892D01*
X116624299Y-117524531D01*
X116637813Y-117511094D01*
X116652100Y-117497583D01*
X116667160Y-117483996D01*
X116682993Y-117470335D01*
X116699599Y-117456598D01*
X116716978Y-117442786D01*
X116735130Y-117428899D01*
X116754055Y-117414937D01*
X116773753Y-117400900D01*
X116786671Y-117391824D01*
X116799293Y-117382896D01*
X116811617Y-117374116D01*
X116823645Y-117365485D01*
X116835376Y-117357003D01*
X116846810Y-117348668D01*
X116857947Y-117340483D01*
X116868787Y-117332445D01*
X116879330Y-117324556D01*
X116889577Y-117316816D01*
X116899526Y-117309224D01*
X116918535Y-117294485D01*
X116936356Y-117280340D01*
X116952990Y-117266789D01*
X116968437Y-117253831D01*
X116982696Y-117241467D01*
X116995767Y-117229697D01*
X117007651Y-117218520D01*
X117018348Y-117207938D01*
X117027857Y-117197949D01*
X117036179Y-117188553D01*
X117039895Y-117184078D01*
X117050150Y-117170512D01*
X117059396Y-117156336D01*
X117067634Y-117141548D01*
X117074863Y-117126151D01*
X117081084Y-117110142D01*
X117086296Y-117093523D01*
X117090499Y-117076293D01*
X117093693Y-117058452D01*
X117095878Y-117040001D01*
X117096775Y-117027360D01*
X117097223Y-117014449D01*
X117097279Y-117007891D01*
X117096862Y-116990504D01*
X117095611Y-116973820D01*
X117093525Y-116957840D01*
X117090606Y-116942563D01*
X117086851Y-116927989D01*
X117082263Y-116914119D01*
X117076841Y-116900952D01*
X117070584Y-116888488D01*
X117063493Y-116876728D01*
X117055568Y-116865671D01*
X117049821Y-116858691D01*
X117040656Y-116848934D01*
X117030842Y-116840137D01*
X117020380Y-116832300D01*
X117009268Y-116825423D01*
X116997508Y-116819505D01*
X116985099Y-116814547D01*
X116972041Y-116810548D01*
X116958334Y-116807509D01*
X116943979Y-116805430D01*
X116928974Y-116804311D01*
X116918611Y-116804097D01*
X116902894Y-116804618D01*
X116887848Y-116806180D01*
X116873472Y-116808784D01*
X116859767Y-116812429D01*
X116846733Y-116817115D01*
X116834369Y-116822843D01*
X116822676Y-116829613D01*
X116811654Y-116837423D01*
X116801302Y-116846275D01*
X116791621Y-116856169D01*
X116785540Y-116863343D01*
X116777059Y-116874800D01*
X116769412Y-116887069D01*
X116762599Y-116900151D01*
X116756620Y-116914045D01*
X116751475Y-116928751D01*
X116747165Y-116944270D01*
X116743689Y-116960601D01*
X116741047Y-116977745D01*
X116739240Y-116995701D01*
X116738498Y-117008123D01*
X116738128Y-117020906D01*
X116738081Y-117027433D01*
X116738081Y-117068688D01*
X116498616Y-117068688D01*
X116497798Y-117055929D01*
X116497321Y-117043514D01*
X116497089Y-117030215D01*
X116497065Y-117024021D01*
X116497172Y-117011603D01*
X116498030Y-116987285D01*
X116499746Y-116963657D01*
X116502319Y-116940720D01*
X116505751Y-116918474D01*
X116510040Y-116896918D01*
X116515187Y-116876053D01*
X116521192Y-116855879D01*
X116528055Y-116836395D01*
X116535776Y-116817602D01*
X116544355Y-116799499D01*
X116553791Y-116782088D01*
X116564086Y-116765367D01*
X116575238Y-116749336D01*
X116587248Y-116733996D01*
X116600116Y-116719347D01*
X116606872Y-116712282D01*
X116620937Y-116698759D01*
X116635680Y-116686109D01*
X116651102Y-116674332D01*
X116667203Y-116663427D01*
X116683982Y-116653394D01*
X116701440Y-116644234D01*
X116719577Y-116635946D01*
X116738391Y-116628531D01*
X116757885Y-116621988D01*
X116778057Y-116616317D01*
X116798907Y-116611519D01*
X116820436Y-116607593D01*
X116842644Y-116604540D01*
X116865530Y-116602359D01*
X116889095Y-116601050D01*
X116913338Y-116600614D01*
X116925761Y-116600720D01*
X116950120Y-116601571D01*
X116973831Y-116603272D01*
X116996891Y-116605824D01*
X117019302Y-116609226D01*
X117041064Y-116613479D01*
X117062176Y-116618583D01*
X117082639Y-116624537D01*
X117102452Y-116631342D01*
X117121616Y-116638997D01*
X117140130Y-116647503D01*
X117157995Y-116656859D01*
X117175211Y-116667067D01*
X117191777Y-116678124D01*
X117207693Y-116690033D01*
X117222960Y-116702792D01*
X117230350Y-116709490D01*
X117244511Y-116723394D01*
X117257758Y-116737887D01*
X117270092Y-116752968D01*
X117281512Y-116768639D01*
X117292018Y-116784898D01*
X117301611Y-116801747D01*
X117310290Y-116819184D01*
X117318056Y-116837210D01*
X117324908Y-116855825D01*
X117330846Y-116875029D01*
X117335871Y-116894821D01*
X117339983Y-116915203D01*
X117343180Y-116936173D01*
X117345464Y-116957733D01*
X117346835Y-116979881D01*
X117347291Y-117002618D01*
G37*
G36*
X117918042Y-116600799D02*
G01*
X117933252Y-116601355D01*
X117948159Y-116602282D01*
X117962763Y-116603580D01*
X117977065Y-116605248D01*
X117991063Y-116607288D01*
X118004759Y-116609698D01*
X118018151Y-116612479D01*
X118031241Y-116615630D01*
X118044028Y-116619152D01*
X118056512Y-116623046D01*
X118068693Y-116627309D01*
X118080571Y-116631944D01*
X118092146Y-116636949D01*
X118103418Y-116642326D01*
X118114387Y-116648073D01*
X118130276Y-116657316D01*
X118145489Y-116667367D01*
X118160025Y-116678225D01*
X118173885Y-116689890D01*
X118187070Y-116702362D01*
X118199578Y-116715640D01*
X118211410Y-116729726D01*
X118222565Y-116744619D01*
X118229627Y-116754996D01*
X118236388Y-116765731D01*
X118242849Y-116776825D01*
X118249009Y-116788278D01*
X118254949Y-116799969D01*
X118260670Y-116811857D01*
X118266174Y-116823941D01*
X118271459Y-116836221D01*
X118276526Y-116848698D01*
X118281375Y-116861371D01*
X118286006Y-116874240D01*
X118290419Y-116887305D01*
X118294614Y-116900567D01*
X118298591Y-116914025D01*
X118302349Y-116927680D01*
X118305890Y-116941530D01*
X118309212Y-116955577D01*
X118312317Y-116969820D01*
X118315203Y-116984260D01*
X118317871Y-116998896D01*
X118320388Y-117013791D01*
X118322742Y-117029008D01*
X118324934Y-117044548D01*
X118326963Y-117060410D01*
X118328830Y-117076594D01*
X118330535Y-117093101D01*
X118332078Y-117109930D01*
X118333458Y-117127081D01*
X118334676Y-117144555D01*
X118335731Y-117162350D01*
X118336624Y-117180469D01*
X118337355Y-117198909D01*
X118337923Y-117217672D01*
X118338329Y-117236757D01*
X118338572Y-117256164D01*
X118338653Y-117275894D01*
X118338576Y-117293646D01*
X118338343Y-117311154D01*
X118337956Y-117328416D01*
X118337413Y-117345434D01*
X118336715Y-117362208D01*
X118335862Y-117378736D01*
X118334854Y-117395020D01*
X118333690Y-117411059D01*
X118332372Y-117426853D01*
X118330899Y-117442402D01*
X118329270Y-117457707D01*
X118327487Y-117472767D01*
X118325548Y-117487582D01*
X118323454Y-117502152D01*
X118321205Y-117516478D01*
X118318801Y-117530559D01*
X118316253Y-117544454D01*
X118313494Y-117558224D01*
X118310524Y-117571867D01*
X118307344Y-117585384D01*
X118303952Y-117598776D01*
X118300350Y-117612041D01*
X118296537Y-117625181D01*
X118292513Y-117638194D01*
X118288278Y-117651081D01*
X118283833Y-117663843D01*
X118279176Y-117676478D01*
X118274309Y-117688987D01*
X118269231Y-117701371D01*
X118263942Y-117713628D01*
X118258442Y-117725759D01*
X118252731Y-117737765D01*
X118246788Y-117749532D01*
X118240513Y-117760951D01*
X118233906Y-117772021D01*
X118226966Y-117782742D01*
X118219695Y-117793114D01*
X118212092Y-117803137D01*
X118204157Y-117812811D01*
X118195889Y-117822136D01*
X118187290Y-117831112D01*
X118178359Y-117839739D01*
X118169096Y-117848017D01*
X118159500Y-117855946D01*
X118149573Y-117863527D01*
X118139314Y-117870758D01*
X118128723Y-117877640D01*
X118117799Y-117884173D01*
X118106599Y-117890334D01*
X118095097Y-117896096D01*
X118083296Y-117901462D01*
X118071194Y-117906429D01*
X118058791Y-117911000D01*
X118046088Y-117915173D01*
X118033084Y-117918949D01*
X118019780Y-117922327D01*
X118006175Y-117925307D01*
X117992270Y-117927891D01*
X117978064Y-117930077D01*
X117963558Y-117931865D01*
X117948752Y-117933256D01*
X117933644Y-117934250D01*
X117918237Y-117934846D01*
X117902529Y-117935044D01*
X117886860Y-117934846D01*
X117871495Y-117934250D01*
X117856433Y-117933256D01*
X117841673Y-117931865D01*
X117827217Y-117930077D01*
X117813063Y-117927891D01*
X117799213Y-117925307D01*
X117785665Y-117922327D01*
X117772420Y-117918949D01*
X117759478Y-117915173D01*
X117746839Y-117911000D01*
X117734503Y-117906429D01*
X117722470Y-117901462D01*
X117710740Y-117896096D01*
X117699313Y-117890334D01*
X117688188Y-117884173D01*
X117677411Y-117877644D01*
X117666945Y-117870772D01*
X117656793Y-117863559D01*
X117642150Y-117852099D01*
X117628211Y-117839870D01*
X117614975Y-117826872D01*
X117602442Y-117813105D01*
X117594478Y-117803500D01*
X117586826Y-117793554D01*
X117579487Y-117783265D01*
X117572460Y-117772635D01*
X117565746Y-117761664D01*
X117559345Y-117750350D01*
X117553256Y-117738695D01*
X117547469Y-117726795D01*
X117541896Y-117714748D01*
X117536535Y-117702552D01*
X117531388Y-117690209D01*
X117526454Y-117677718D01*
X117521734Y-117665079D01*
X117517226Y-117652292D01*
X117512932Y-117639357D01*
X117508851Y-117626275D01*
X117504983Y-117613045D01*
X117501329Y-117599666D01*
X117497888Y-117586141D01*
X117494660Y-117572467D01*
X117491645Y-117558645D01*
X117488844Y-117544676D01*
X117486256Y-117530559D01*
X117483889Y-117516232D01*
X117481676Y-117501634D01*
X117479615Y-117486764D01*
X117477706Y-117471623D01*
X117475950Y-117456210D01*
X117474347Y-117440526D01*
X117472897Y-117424571D01*
X117471599Y-117408344D01*
X117470454Y-117391846D01*
X117469462Y-117375077D01*
X117468622Y-117358036D01*
X117467935Y-117340723D01*
X117467401Y-117323140D01*
X117467019Y-117305284D01*
X117466790Y-117287158D01*
X117466714Y-117268760D01*
X117466723Y-117266899D01*
X117716726Y-117266899D01*
X117716817Y-117289386D01*
X117717089Y-117311251D01*
X117717544Y-117332492D01*
X117718180Y-117353112D01*
X117718998Y-117373108D01*
X117719997Y-117392481D01*
X117721179Y-117411232D01*
X117722542Y-117429360D01*
X117724087Y-117446865D01*
X117725813Y-117463747D01*
X117727722Y-117480006D01*
X117729812Y-117495643D01*
X117732084Y-117510657D01*
X117734537Y-117525048D01*
X117737173Y-117538816D01*
X117739990Y-117551962D01*
X117742957Y-117564524D01*
X117746043Y-117576544D01*
X117750895Y-117593556D01*
X117756014Y-117609347D01*
X117761400Y-117623916D01*
X117767054Y-117637263D01*
X117772974Y-117649390D01*
X117779162Y-117660295D01*
X117787828Y-117672935D01*
X117796969Y-117683404D01*
X117801717Y-117687824D01*
X117811706Y-117695530D01*
X117822442Y-117702209D01*
X117833924Y-117707860D01*
X117846152Y-117712484D01*
X117859126Y-117716080D01*
X117872847Y-117718649D01*
X117887315Y-117720190D01*
X117902529Y-117720704D01*
X117917379Y-117720205D01*
X117931531Y-117718707D01*
X117944986Y-117716211D01*
X117957742Y-117712717D01*
X117969801Y-117708224D01*
X117981161Y-117702733D01*
X117991824Y-117696243D01*
X118001789Y-117688755D01*
X118011182Y-117679590D01*
X118020129Y-117668224D01*
X118028630Y-117654658D01*
X118034713Y-117643040D01*
X118040545Y-117630184D01*
X118046127Y-117616090D01*
X118051458Y-117600758D01*
X118056538Y-117584189D01*
X118061367Y-117566382D01*
X118064447Y-117553823D01*
X118067377Y-117540685D01*
X118070118Y-117526938D01*
X118072669Y-117512584D01*
X118075032Y-117497621D01*
X118077206Y-117482049D01*
X118079191Y-117465870D01*
X118080986Y-117449082D01*
X118082593Y-117431686D01*
X118084011Y-117413682D01*
X118085239Y-117395069D01*
X118086279Y-117375849D01*
X118087129Y-117356020D01*
X118087791Y-117335582D01*
X118088264Y-117314537D01*
X118088547Y-117292883D01*
X118088642Y-117270621D01*
X118088595Y-117254584D01*
X118088456Y-117238848D01*
X118088225Y-117223415D01*
X118087900Y-117208283D01*
X118087483Y-117193452D01*
X118086973Y-117178924D01*
X118086371Y-117164697D01*
X118085675Y-117150772D01*
X118084888Y-117137148D01*
X118084007Y-117123827D01*
X118083034Y-117110807D01*
X118081968Y-117098088D01*
X118080809Y-117085672D01*
X118078214Y-117061743D01*
X118075247Y-117039022D01*
X118071911Y-117017508D01*
X118068203Y-116997200D01*
X118064124Y-116978099D01*
X118059675Y-116960205D01*
X118054855Y-116943518D01*
X118049664Y-116928038D01*
X118044103Y-116913764D01*
X118041183Y-116907080D01*
X118035080Y-116894422D01*
X118028635Y-116882580D01*
X118021848Y-116871555D01*
X118014720Y-116861347D01*
X118003387Y-116847565D01*
X117991285Y-116835622D01*
X117978414Y-116825515D01*
X117964775Y-116817246D01*
X117950366Y-116810815D01*
X117935189Y-116806221D01*
X117919243Y-116803465D01*
X117902529Y-116802546D01*
X117884300Y-116803435D01*
X117867069Y-116806102D01*
X117850836Y-116810545D01*
X117835601Y-116816767D01*
X117821363Y-116824766D01*
X117808123Y-116834542D01*
X117795882Y-116846096D01*
X117784638Y-116859427D01*
X117774391Y-116874536D01*
X117768115Y-116885596D01*
X117762282Y-116897447D01*
X117759532Y-116903668D01*
X117754348Y-116916901D01*
X117749499Y-116931396D01*
X117744984Y-116947154D01*
X117740804Y-116964174D01*
X117736958Y-116982457D01*
X117733447Y-117002002D01*
X117730270Y-117022811D01*
X117727427Y-117044881D01*
X117724919Y-117068214D01*
X117722745Y-117092810D01*
X117721784Y-117105581D01*
X117720906Y-117118668D01*
X117720112Y-117132071D01*
X117719401Y-117145789D01*
X117718774Y-117159823D01*
X117718231Y-117174173D01*
X117717771Y-117188838D01*
X117717395Y-117203819D01*
X117717102Y-117219115D01*
X117716893Y-117234727D01*
X117716768Y-117250655D01*
X117716726Y-117266899D01*
X117466723Y-117266899D01*
X117466810Y-117248687D01*
X117467098Y-117228910D01*
X117467578Y-117209429D01*
X117468250Y-117190243D01*
X117469114Y-117171353D01*
X117470171Y-117152759D01*
X117471419Y-117134460D01*
X117472859Y-117116457D01*
X117474492Y-117098750D01*
X117476316Y-117081338D01*
X117478333Y-117064222D01*
X117480541Y-117047401D01*
X117482942Y-117030877D01*
X117485535Y-117014647D01*
X117488320Y-116998714D01*
X117491296Y-116983076D01*
X117494465Y-116967734D01*
X117497826Y-116952687D01*
X117501379Y-116937936D01*
X117505124Y-116923481D01*
X117509061Y-116909322D01*
X117513190Y-116895458D01*
X117517511Y-116881889D01*
X117522024Y-116868617D01*
X117526730Y-116855640D01*
X117531627Y-116842958D01*
X117536716Y-116830572D01*
X117541998Y-116818482D01*
X117547471Y-116806688D01*
X117553136Y-116795189D01*
X117558994Y-116783986D01*
X117565044Y-116773079D01*
X117577885Y-116752194D01*
X117591826Y-116732657D01*
X117606868Y-116714467D01*
X117623010Y-116697625D01*
X117640252Y-116682130D01*
X117658594Y-116667983D01*
X117678037Y-116655183D01*
X117698580Y-116643730D01*
X117720223Y-116633625D01*
X117742966Y-116624867D01*
X117766809Y-116617456D01*
X117779143Y-116614256D01*
X117791753Y-116611393D01*
X117804637Y-116608867D01*
X117817796Y-116606677D01*
X117831231Y-116604824D01*
X117844940Y-116603309D01*
X117858925Y-116602130D01*
X117873184Y-116601287D01*
X117887719Y-116600782D01*
X117902529Y-116600614D01*
X117918042Y-116600799D01*
G37*
G36*
X119322571Y-117002618D02*
G01*
X119322393Y-117015725D01*
X119321859Y-117028679D01*
X119320968Y-117041480D01*
X119319721Y-117054129D01*
X119318118Y-117066625D01*
X119316159Y-117078968D01*
X119313843Y-117091159D01*
X119309702Y-117109158D01*
X119304760Y-117126815D01*
X119299015Y-117144127D01*
X119292470Y-117161096D01*
X119285122Y-117177722D01*
X119276973Y-117194004D01*
X119268267Y-117209814D01*
X119259129Y-117225138D01*
X119249561Y-117239977D01*
X119239562Y-117254331D01*
X119229132Y-117268200D01*
X119218272Y-117281583D01*
X119206980Y-117294481D01*
X119195258Y-117306893D01*
X119183105Y-117318821D01*
X119170522Y-117330263D01*
X119161894Y-117337621D01*
X119148777Y-117348421D01*
X119135601Y-117359068D01*
X119122365Y-117369562D01*
X119109069Y-117379904D01*
X119095713Y-117390093D01*
X119082298Y-117400129D01*
X119068822Y-117410013D01*
X119055286Y-117419744D01*
X119041690Y-117429322D01*
X119028034Y-117438748D01*
X119018897Y-117444947D01*
X119005217Y-117454215D01*
X118991630Y-117463642D01*
X118978136Y-117473226D01*
X118964735Y-117482969D01*
X118951426Y-117492870D01*
X118938210Y-117502929D01*
X118925087Y-117513146D01*
X118912056Y-117523521D01*
X118899118Y-117534055D01*
X118886273Y-117544746D01*
X118877761Y-117551962D01*
X118865370Y-117562862D01*
X118853672Y-117573812D01*
X118842666Y-117584810D01*
X118832352Y-117595858D01*
X118822731Y-117606955D01*
X118813803Y-117618101D01*
X118805567Y-117629296D01*
X118798023Y-117640540D01*
X118791172Y-117651833D01*
X118785013Y-117663175D01*
X118781292Y-117670764D01*
X119317298Y-117670764D01*
X119317298Y-117894100D01*
X118456215Y-117894100D01*
X118457544Y-117872514D01*
X118459283Y-117851492D01*
X118461431Y-117831036D01*
X118463989Y-117811143D01*
X118466956Y-117791816D01*
X118470333Y-117773053D01*
X118474120Y-117754855D01*
X118478316Y-117737222D01*
X118482921Y-117720153D01*
X118487937Y-117703649D01*
X118493361Y-117687709D01*
X118499195Y-117672334D01*
X118505439Y-117657524D01*
X118512092Y-117643278D01*
X118519155Y-117629597D01*
X118526628Y-117616481D01*
X118534730Y-117603570D01*
X118543606Y-117590585D01*
X118553254Y-117577524D01*
X118563676Y-117564389D01*
X118574870Y-117551178D01*
X118586838Y-117537892D01*
X118599579Y-117524531D01*
X118613093Y-117511094D01*
X118627380Y-117497583D01*
X118642439Y-117483996D01*
X118658272Y-117470335D01*
X118674878Y-117456598D01*
X118692257Y-117442786D01*
X118710409Y-117428899D01*
X118729335Y-117414937D01*
X118749033Y-117400900D01*
X118761951Y-117391824D01*
X118774572Y-117382896D01*
X118786897Y-117374116D01*
X118798925Y-117365485D01*
X118810655Y-117357003D01*
X118822089Y-117348668D01*
X118833227Y-117340483D01*
X118844067Y-117332445D01*
X118854610Y-117324556D01*
X118864857Y-117316816D01*
X118874806Y-117309224D01*
X118893815Y-117294485D01*
X118911636Y-117280340D01*
X118928270Y-117266789D01*
X118943717Y-117253831D01*
X118957976Y-117241467D01*
X118971047Y-117229697D01*
X118982931Y-117218520D01*
X118993628Y-117207938D01*
X119003137Y-117197949D01*
X119011459Y-117188553D01*
X119015174Y-117184078D01*
X119025430Y-117170512D01*
X119034676Y-117156336D01*
X119042914Y-117141548D01*
X119050143Y-117126151D01*
X119056364Y-117110142D01*
X119061575Y-117093523D01*
X119065778Y-117076293D01*
X119068973Y-117058452D01*
X119071158Y-117040001D01*
X119072055Y-117027360D01*
X119072503Y-117014449D01*
X119072559Y-117007891D01*
X119072142Y-116990504D01*
X119070891Y-116973820D01*
X119068805Y-116957840D01*
X119065885Y-116942563D01*
X119062131Y-116927989D01*
X119057543Y-116914119D01*
X119052120Y-116900952D01*
X119045864Y-116888488D01*
X119038773Y-116876728D01*
X119030847Y-116865671D01*
X119025100Y-116858691D01*
X119015936Y-116848934D01*
X119006122Y-116840137D01*
X118995660Y-116832300D01*
X118984548Y-116825423D01*
X118972788Y-116819505D01*
X118960379Y-116814547D01*
X118947321Y-116810548D01*
X118933614Y-116807509D01*
X118919259Y-116805430D01*
X118904254Y-116804311D01*
X118893891Y-116804097D01*
X118878174Y-116804618D01*
X118863128Y-116806180D01*
X118848752Y-116808784D01*
X118835047Y-116812429D01*
X118822013Y-116817115D01*
X118809649Y-116822843D01*
X118797956Y-116829613D01*
X118786934Y-116837423D01*
X118776582Y-116846275D01*
X118766901Y-116856169D01*
X118760820Y-116863343D01*
X118752339Y-116874800D01*
X118744691Y-116887069D01*
X118737878Y-116900151D01*
X118731900Y-116914045D01*
X118726755Y-116928751D01*
X118722445Y-116944270D01*
X118718969Y-116960601D01*
X118716327Y-116977745D01*
X118714520Y-116995701D01*
X118713778Y-117008123D01*
X118713407Y-117020906D01*
X118713361Y-117027433D01*
X118713361Y-117068688D01*
X118473896Y-117068688D01*
X118473078Y-117055929D01*
X118472601Y-117043514D01*
X118472369Y-117030215D01*
X118472345Y-117024021D01*
X118472452Y-117011603D01*
X118473310Y-116987285D01*
X118475026Y-116963657D01*
X118477599Y-116940720D01*
X118481031Y-116918474D01*
X118485320Y-116896918D01*
X118490467Y-116876053D01*
X118496472Y-116855879D01*
X118503335Y-116836395D01*
X118511056Y-116817602D01*
X118519635Y-116799499D01*
X118529071Y-116782088D01*
X118539365Y-116765367D01*
X118550518Y-116749336D01*
X118562528Y-116733996D01*
X118575396Y-116719347D01*
X118582151Y-116712282D01*
X118596217Y-116698759D01*
X118610960Y-116686109D01*
X118626382Y-116674332D01*
X118642483Y-116663427D01*
X118659262Y-116653394D01*
X118676720Y-116644234D01*
X118694856Y-116635946D01*
X118713671Y-116628531D01*
X118733165Y-116621988D01*
X118753337Y-116616317D01*
X118774187Y-116611519D01*
X118795716Y-116607593D01*
X118817924Y-116604540D01*
X118840810Y-116602359D01*
X118864374Y-116601050D01*
X118888618Y-116600614D01*
X118901041Y-116600720D01*
X118925400Y-116601571D01*
X118949110Y-116603272D01*
X118972171Y-116605824D01*
X118994582Y-116609226D01*
X119016344Y-116613479D01*
X119037456Y-116618583D01*
X119057919Y-116624537D01*
X119077732Y-116631342D01*
X119096896Y-116638997D01*
X119115410Y-116647503D01*
X119133275Y-116656859D01*
X119150490Y-116667067D01*
X119167056Y-116678124D01*
X119182973Y-116690033D01*
X119198240Y-116702792D01*
X119205630Y-116709490D01*
X119219791Y-116723394D01*
X119233038Y-116737887D01*
X119245372Y-116752968D01*
X119256792Y-116768639D01*
X119267298Y-116784898D01*
X119276891Y-116801747D01*
X119285570Y-116819184D01*
X119293336Y-116837210D01*
X119300188Y-116855825D01*
X119306126Y-116875029D01*
X119311151Y-116894821D01*
X119315262Y-116915203D01*
X119318460Y-116936173D01*
X119320744Y-116957733D01*
X119322114Y-116979881D01*
X119322571Y-117002618D01*
G37*
G36*
X120190478Y-117406483D02*
G01*
X120322929Y-117406483D01*
X120322929Y-117613689D01*
X120190478Y-117613689D01*
X120190478Y-117894100D01*
X119940466Y-117894100D01*
X119940466Y-117613689D01*
X119432998Y-117613689D01*
X119432998Y-117406483D01*
X119609806Y-117406483D01*
X119940466Y-117406483D01*
X119940466Y-116864894D01*
X119609806Y-117406483D01*
X119432998Y-117406483D01*
X119432998Y-117402761D01*
X119895799Y-116627290D01*
X120190478Y-116627290D01*
X120190478Y-117406483D01*
G37*
G36*
X95865548Y-114568822D02*
G01*
X95880486Y-114569447D01*
X95895249Y-114570489D01*
X95909837Y-114571948D01*
X95924251Y-114573824D01*
X95938491Y-114576116D01*
X95952556Y-114578826D01*
X95966447Y-114581952D01*
X95980420Y-114585737D01*
X95994577Y-114590424D01*
X96008918Y-114596012D01*
X96023444Y-114602502D01*
X96038154Y-114609893D01*
X96049307Y-114616028D01*
X96060563Y-114622670D01*
X96071924Y-114629819D01*
X96083388Y-114637476D01*
X96094820Y-114645540D01*
X96105969Y-114654030D01*
X96116834Y-114662944D01*
X96127415Y-114672285D01*
X96137713Y-114682050D01*
X96147728Y-114692241D01*
X96157459Y-114702857D01*
X96166906Y-114713898D01*
X96176070Y-114725365D01*
X96184950Y-114737257D01*
X96190713Y-114745421D01*
X96199121Y-114758265D01*
X96207245Y-114772019D01*
X96215086Y-114786683D01*
X96222643Y-114802258D01*
X96229917Y-114818744D01*
X96234608Y-114830240D01*
X96239174Y-114842142D01*
X96243613Y-114854447D01*
X96247927Y-114867158D01*
X96252115Y-114880273D01*
X96256176Y-114893793D01*
X96260112Y-114907717D01*
X96263921Y-114922047D01*
X96265779Y-114929363D01*
X96269347Y-114944237D01*
X96272685Y-114959393D01*
X96275793Y-114974830D01*
X96278671Y-114990548D01*
X96281318Y-115006547D01*
X96283736Y-115022827D01*
X96285923Y-115039388D01*
X96287879Y-115056230D01*
X96289606Y-115073353D01*
X96291103Y-115090758D01*
X96292369Y-115108443D01*
X96293405Y-115126410D01*
X96294210Y-115144658D01*
X96294786Y-115163187D01*
X96295131Y-115181997D01*
X96295246Y-115201088D01*
X96295128Y-115222370D01*
X96294771Y-115243332D01*
X96294178Y-115263974D01*
X96293347Y-115284296D01*
X96292278Y-115304298D01*
X96290972Y-115323981D01*
X96289428Y-115343343D01*
X96287647Y-115362386D01*
X96285628Y-115381109D01*
X96283372Y-115399512D01*
X96280878Y-115417595D01*
X96278147Y-115435358D01*
X96275179Y-115452801D01*
X96271973Y-115469924D01*
X96268529Y-115486728D01*
X96264848Y-115503212D01*
X96260989Y-115519281D01*
X96257011Y-115534919D01*
X96252914Y-115550125D01*
X96248699Y-115564900D01*
X96244365Y-115579244D01*
X96239912Y-115593156D01*
X96235340Y-115606638D01*
X96230650Y-115619687D01*
X96225841Y-115632306D01*
X96220913Y-115644493D01*
X96215866Y-115656248D01*
X96210701Y-115667573D01*
X96202730Y-115683750D01*
X96194492Y-115698957D01*
X96188852Y-115708556D01*
X96180191Y-115722372D01*
X96171193Y-115735670D01*
X96161856Y-115748450D01*
X96152182Y-115760712D01*
X96142169Y-115772455D01*
X96131818Y-115783681D01*
X96121130Y-115794389D01*
X96110103Y-115804579D01*
X96098738Y-115814251D01*
X96087035Y-115823405D01*
X96079045Y-115829220D01*
X96067052Y-115837446D01*
X96055152Y-115845145D01*
X96043345Y-115852314D01*
X96031630Y-115858954D01*
X96020008Y-115865065D01*
X96008478Y-115870648D01*
X95997042Y-115875701D01*
X95981937Y-115881617D01*
X95966997Y-115886592D01*
X95955900Y-115889706D01*
X95941026Y-115893269D01*
X95925870Y-115896356D01*
X95910434Y-115898968D01*
X95894716Y-115901106D01*
X95878717Y-115902768D01*
X95862437Y-115903956D01*
X95850042Y-115904534D01*
X95837490Y-115904846D01*
X95829033Y-115904906D01*
X95808695Y-115904532D01*
X95788781Y-115903413D01*
X95769292Y-115901547D01*
X95750226Y-115898934D01*
X95731584Y-115895576D01*
X95713367Y-115891470D01*
X95695574Y-115886619D01*
X95678204Y-115881021D01*
X95661259Y-115874677D01*
X95644738Y-115867586D01*
X95628641Y-115859749D01*
X95612968Y-115851165D01*
X95597719Y-115841835D01*
X95582894Y-115831759D01*
X95568493Y-115820937D01*
X95554517Y-115809367D01*
X95541206Y-115797227D01*
X95528727Y-115784688D01*
X95517079Y-115771752D01*
X95506263Y-115758419D01*
X95496277Y-115744688D01*
X95487123Y-115730560D01*
X95478800Y-115716035D01*
X95471308Y-115701112D01*
X95464648Y-115685791D01*
X95458819Y-115670073D01*
X95453820Y-115653958D01*
X95449653Y-115637446D01*
X95446318Y-115620535D01*
X95443813Y-115603228D01*
X95442140Y-115585523D01*
X95441298Y-115567421D01*
X95682314Y-115567421D01*
X95683841Y-115580894D01*
X95686560Y-115593709D01*
X95690471Y-115605864D01*
X95695575Y-115617361D01*
X95701871Y-115628198D01*
X95709359Y-115638376D01*
X95718039Y-115647895D01*
X95727912Y-115656755D01*
X95738831Y-115664679D01*
X95750497Y-115671547D01*
X95762910Y-115677358D01*
X95776069Y-115682113D01*
X95789974Y-115685811D01*
X95804625Y-115688452D01*
X95820023Y-115690037D01*
X95836168Y-115690565D01*
X95849030Y-115690213D01*
X95861484Y-115689156D01*
X95885168Y-115684929D01*
X95907218Y-115677883D01*
X95927634Y-115668018D01*
X95946418Y-115655336D01*
X95963568Y-115639835D01*
X95979085Y-115621516D01*
X95986230Y-115611299D01*
X95992968Y-115600378D01*
X95999297Y-115588752D01*
X96005218Y-115576422D01*
X96010730Y-115563387D01*
X96015835Y-115549648D01*
X96020530Y-115535204D01*
X96024818Y-115520055D01*
X96028697Y-115504202D01*
X96032168Y-115487644D01*
X96035230Y-115470382D01*
X96037885Y-115452415D01*
X96040130Y-115433743D01*
X96041968Y-115414367D01*
X96043397Y-115394286D01*
X96044418Y-115373501D01*
X96045030Y-115352011D01*
X96045235Y-115329816D01*
X96036951Y-115339096D01*
X96030656Y-115346566D01*
X96022639Y-115356173D01*
X96013920Y-115365961D01*
X96010183Y-115369830D01*
X96001073Y-115378959D01*
X95992053Y-115387646D01*
X95986299Y-115393095D01*
X95976127Y-115401988D01*
X95965773Y-115409670D01*
X95954174Y-115416721D01*
X95953109Y-115417289D01*
X95941931Y-115423002D01*
X95929723Y-115428897D01*
X95917856Y-115434358D01*
X95913715Y-115436211D01*
X95900661Y-115441227D01*
X95888234Y-115445027D01*
X95875032Y-115448206D01*
X95862844Y-115450479D01*
X95850181Y-115452172D01*
X95837161Y-115453448D01*
X95823786Y-115454309D01*
X95810054Y-115454754D01*
X95802047Y-115454822D01*
X95781314Y-115454347D01*
X95761068Y-115452922D01*
X95741309Y-115450547D01*
X95722038Y-115447222D01*
X95703253Y-115442948D01*
X95684956Y-115437723D01*
X95667145Y-115431548D01*
X95649822Y-115424424D01*
X95632986Y-115416349D01*
X95616637Y-115407325D01*
X95600775Y-115397350D01*
X95585400Y-115386426D01*
X95570512Y-115374551D01*
X95556111Y-115361727D01*
X95542197Y-115347953D01*
X95528771Y-115333228D01*
X95516000Y-115317737D01*
X95504053Y-115301662D01*
X95492930Y-115285002D01*
X95482630Y-115267759D01*
X95473155Y-115249932D01*
X95464504Y-115231520D01*
X95456676Y-115212525D01*
X95449673Y-115192946D01*
X95443493Y-115172782D01*
X95438138Y-115152035D01*
X95433606Y-115130703D01*
X95429898Y-115108788D01*
X95427015Y-115086288D01*
X95424955Y-115063204D01*
X95423719Y-115039537D01*
X95423307Y-115015285D01*
X95423372Y-115011873D01*
X95660911Y-115011873D01*
X95661106Y-115025306D01*
X95661691Y-115038384D01*
X95662667Y-115051109D01*
X95664032Y-115063481D01*
X95666812Y-115081374D01*
X95670470Y-115098471D01*
X95675006Y-115114773D01*
X95680419Y-115130278D01*
X95686710Y-115144987D01*
X95693880Y-115158900D01*
X95701927Y-115172017D01*
X95710851Y-115184338D01*
X95720584Y-115195646D01*
X95730939Y-115205843D01*
X95741915Y-115214927D01*
X95753512Y-115222898D01*
X95765731Y-115229757D01*
X95778572Y-115235504D01*
X95792034Y-115240139D01*
X95806118Y-115243661D01*
X95820824Y-115246071D01*
X95836151Y-115247369D01*
X95846714Y-115247616D01*
X95862538Y-115247052D01*
X95877790Y-115245359D01*
X95892469Y-115242537D01*
X95906576Y-115238587D01*
X95920110Y-115233508D01*
X95933071Y-115227300D01*
X95945460Y-115219964D01*
X95957277Y-115211499D01*
X95968521Y-115201905D01*
X95979192Y-115191183D01*
X95985989Y-115183407D01*
X95995579Y-115170966D01*
X96004226Y-115157839D01*
X96011929Y-115144024D01*
X96018689Y-115129522D01*
X96024506Y-115114333D01*
X96029380Y-115098457D01*
X96033310Y-115081894D01*
X96036297Y-115064644D01*
X96038341Y-115046707D01*
X96039442Y-115028083D01*
X96039651Y-115015285D01*
X96039445Y-115001617D01*
X96038827Y-114988299D01*
X96037797Y-114975329D01*
X96036355Y-114962708D01*
X96034502Y-114950436D01*
X96030948Y-114932683D01*
X96026468Y-114915715D01*
X96021061Y-114899532D01*
X96014727Y-114884134D01*
X96007466Y-114869521D01*
X95999278Y-114855693D01*
X95990163Y-114842651D01*
X95986919Y-114838478D01*
X95976749Y-114826615D01*
X95965898Y-114815919D01*
X95954365Y-114806390D01*
X95942150Y-114798027D01*
X95929254Y-114790832D01*
X95915676Y-114784803D01*
X95901417Y-114779941D01*
X95886476Y-114776246D01*
X95870854Y-114773718D01*
X95854550Y-114772357D01*
X95843302Y-114772097D01*
X95827846Y-114772673D01*
X95813000Y-114774398D01*
X95798766Y-114777275D01*
X95785142Y-114781301D01*
X95772128Y-114786478D01*
X95759726Y-114792806D01*
X95747934Y-114800284D01*
X95736752Y-114808913D01*
X95726182Y-114818692D01*
X95716222Y-114829622D01*
X95709921Y-114837547D01*
X95701162Y-114850148D01*
X95693265Y-114863523D01*
X95686230Y-114877672D01*
X95680056Y-114892596D01*
X95674743Y-114908294D01*
X95670292Y-114924766D01*
X95666702Y-114942012D01*
X95663974Y-114960033D01*
X95662634Y-114972477D01*
X95661677Y-114985265D01*
X95661103Y-114998397D01*
X95660911Y-115011873D01*
X95423372Y-115011873D01*
X95423771Y-114990761D01*
X95425163Y-114966818D01*
X95427483Y-114943457D01*
X95430732Y-114920678D01*
X95434909Y-114898480D01*
X95440013Y-114876864D01*
X95446046Y-114855829D01*
X95453007Y-114835376D01*
X95460897Y-114815504D01*
X95469714Y-114796215D01*
X95479459Y-114777506D01*
X95490133Y-114759380D01*
X95501735Y-114741835D01*
X95514265Y-114724871D01*
X95527723Y-114708489D01*
X95542109Y-114692689D01*
X95557236Y-114677664D01*
X95572915Y-114663609D01*
X95589146Y-114650523D01*
X95605930Y-114638406D01*
X95623267Y-114627259D01*
X95641156Y-114617081D01*
X95659598Y-114607872D01*
X95678592Y-114599633D01*
X95698139Y-114592363D01*
X95718238Y-114586062D01*
X95738890Y-114580731D01*
X95760094Y-114576369D01*
X95781851Y-114572976D01*
X95804160Y-114570552D01*
X95827022Y-114569098D01*
X95850436Y-114568614D01*
X95865548Y-114568822D01*
G37*
G36*
X97304289Y-114595290D02*
G01*
X97304289Y-114791949D01*
X97290351Y-114808891D01*
X97276645Y-114825790D01*
X97263173Y-114842646D01*
X97249934Y-114859459D01*
X97236928Y-114876229D01*
X97224155Y-114892956D01*
X97211616Y-114909640D01*
X97199310Y-114926280D01*
X97187237Y-114942878D01*
X97175398Y-114959433D01*
X97163791Y-114975945D01*
X97152418Y-114992414D01*
X97141278Y-115008839D01*
X97130372Y-115025222D01*
X97119699Y-115041562D01*
X97109258Y-115057858D01*
X97099052Y-115074112D01*
X97089078Y-115090323D01*
X97079338Y-115106491D01*
X97069831Y-115122615D01*
X97060557Y-115138697D01*
X97051516Y-115154735D01*
X97042709Y-115170731D01*
X97034135Y-115186684D01*
X97025794Y-115202593D01*
X97017686Y-115218460D01*
X97009812Y-115234283D01*
X97002171Y-115250064D01*
X96994763Y-115265801D01*
X96987588Y-115281496D01*
X96980647Y-115297147D01*
X96973939Y-115312756D01*
X96967433Y-115328373D01*
X96961097Y-115344091D01*
X96954933Y-115359908D01*
X96948939Y-115375826D01*
X96943117Y-115391843D01*
X96937465Y-115407961D01*
X96931984Y-115424178D01*
X96926674Y-115440495D01*
X96921534Y-115456913D01*
X96916566Y-115473430D01*
X96911768Y-115490047D01*
X96907142Y-115506764D01*
X96902686Y-115523581D01*
X96898401Y-115540498D01*
X96894286Y-115557515D01*
X96890343Y-115574632D01*
X96886570Y-115591849D01*
X96882969Y-115609166D01*
X96879538Y-115626583D01*
X96876278Y-115644100D01*
X96873189Y-115661717D01*
X96870270Y-115679434D01*
X96867523Y-115697250D01*
X96864946Y-115715167D01*
X96862540Y-115733184D01*
X96860306Y-115751300D01*
X96858241Y-115769517D01*
X96856348Y-115787834D01*
X96854626Y-115806250D01*
X96853074Y-115824767D01*
X96851694Y-115843383D01*
X96850484Y-115862100D01*
X96598611Y-115862100D01*
X96601341Y-115841208D01*
X96604182Y-115820527D01*
X96607133Y-115800055D01*
X96610194Y-115779793D01*
X96613366Y-115759740D01*
X96616648Y-115739897D01*
X96620040Y-115720264D01*
X96623542Y-115700840D01*
X96627155Y-115681626D01*
X96630878Y-115662622D01*
X96634711Y-115643827D01*
X96638654Y-115625242D01*
X96642708Y-115606866D01*
X96646872Y-115588700D01*
X96651146Y-115570744D01*
X96655530Y-115552997D01*
X96660025Y-115535460D01*
X96664630Y-115518132D01*
X96669345Y-115501014D01*
X96674171Y-115484106D01*
X96679106Y-115467407D01*
X96684152Y-115450918D01*
X96689309Y-115434639D01*
X96694575Y-115418569D01*
X96699952Y-115402709D01*
X96705439Y-115387058D01*
X96711036Y-115371617D01*
X96716744Y-115356386D01*
X96722562Y-115341364D01*
X96728490Y-115326552D01*
X96734528Y-115311949D01*
X96740677Y-115297557D01*
X96746983Y-115283247D01*
X96753492Y-115268896D01*
X96760204Y-115254502D01*
X96767121Y-115240065D01*
X96774240Y-115225586D01*
X96781564Y-115211065D01*
X96789091Y-115196501D01*
X96796821Y-115181895D01*
X96804755Y-115167247D01*
X96812893Y-115152556D01*
X96821234Y-115137822D01*
X96829779Y-115123047D01*
X96838527Y-115108228D01*
X96847479Y-115093368D01*
X96856634Y-115078465D01*
X96865993Y-115063519D01*
X96875556Y-115048532D01*
X96885322Y-115033501D01*
X96895291Y-115018429D01*
X96905465Y-115003314D01*
X96915841Y-114988156D01*
X96926422Y-114972957D01*
X96937206Y-114957714D01*
X96948193Y-114942430D01*
X96959384Y-114927103D01*
X96970779Y-114911733D01*
X96982377Y-114896321D01*
X96994179Y-114880867D01*
X97006184Y-114865370D01*
X97018393Y-114849831D01*
X97030805Y-114834250D01*
X97043421Y-114818626D01*
X96412808Y-114818626D01*
X96412808Y-114595290D01*
X97304289Y-114595290D01*
G37*
G36*
X97773915Y-114988299D02*
G01*
X97470240Y-114988299D01*
X97470240Y-114822348D01*
X97490527Y-114822126D01*
X97510286Y-114821461D01*
X97529518Y-114820352D01*
X97548223Y-114818800D01*
X97566402Y-114816805D01*
X97584053Y-114814365D01*
X97601177Y-114811483D01*
X97617774Y-114808157D01*
X97633843Y-114804387D01*
X97649386Y-114800174D01*
X97664402Y-114795518D01*
X97678890Y-114790418D01*
X97692852Y-114784875D01*
X97706286Y-114778888D01*
X97719194Y-114772457D01*
X97731574Y-114765583D01*
X97743427Y-114758266D01*
X97754753Y-114750505D01*
X97765552Y-114742301D01*
X97775824Y-114733653D01*
X97785569Y-114724562D01*
X97794787Y-114715028D01*
X97803478Y-114705049D01*
X97811641Y-114694628D01*
X97819278Y-114683763D01*
X97826387Y-114672454D01*
X97832970Y-114660702D01*
X97839025Y-114648507D01*
X97844553Y-114635868D01*
X97849555Y-114622785D01*
X97854029Y-114609259D01*
X97857976Y-114595290D01*
X98023927Y-114595290D01*
X98023927Y-115862100D01*
X97773915Y-115862100D01*
X97773915Y-114988299D01*
G37*
G36*
X99928794Y-114956349D02*
G01*
X99678782Y-114956349D01*
X99677651Y-114943811D01*
X99673955Y-114919929D01*
X99668348Y-114897639D01*
X99660828Y-114876941D01*
X99651396Y-114857836D01*
X99640053Y-114840322D01*
X99626797Y-114824401D01*
X99611629Y-114810072D01*
X99594550Y-114797334D01*
X99575558Y-114786189D01*
X99554654Y-114776637D01*
X99531838Y-114768676D01*
X99519713Y-114765293D01*
X99507110Y-114762307D01*
X99494029Y-114759720D01*
X99480470Y-114757531D01*
X99466434Y-114755740D01*
X99451919Y-114754347D01*
X99436926Y-114753352D01*
X99421455Y-114752755D01*
X99405506Y-114752556D01*
X99392723Y-114752726D01*
X99380274Y-114753239D01*
X99362228Y-114754648D01*
X99344934Y-114756827D01*
X99328393Y-114759774D01*
X99312604Y-114763490D01*
X99297568Y-114767974D01*
X99283284Y-114773228D01*
X99269753Y-114779250D01*
X99256974Y-114786041D01*
X99244947Y-114793601D01*
X99241106Y-114796292D01*
X99230241Y-114804752D01*
X99220444Y-114813729D01*
X99211717Y-114823225D01*
X99204058Y-114833238D01*
X99197467Y-114843770D01*
X99190343Y-114858618D01*
X99186246Y-114870358D01*
X99183218Y-114882616D01*
X99181259Y-114895392D01*
X99180368Y-114908687D01*
X99180309Y-114913233D01*
X99180764Y-114926344D01*
X99182130Y-114938806D01*
X99185368Y-114954412D01*
X99190224Y-114968865D01*
X99196699Y-114982164D01*
X99204793Y-114994310D01*
X99214506Y-115005302D01*
X99225838Y-115015141D01*
X99232110Y-115019628D01*
X99246486Y-115028221D01*
X99259137Y-115034545D01*
X99273392Y-115040765D01*
X99289250Y-115046882D01*
X99306711Y-115052895D01*
X99319242Y-115056847D01*
X99332485Y-115060752D01*
X99346441Y-115064611D01*
X99361110Y-115068424D01*
X99376491Y-115072191D01*
X99392584Y-115075912D01*
X99409390Y-115079587D01*
X99426909Y-115083216D01*
X99630392Y-115122300D01*
X99652574Y-115126989D01*
X99673988Y-115132061D01*
X99694634Y-115137516D01*
X99714512Y-115143354D01*
X99733621Y-115149575D01*
X99751962Y-115156179D01*
X99769535Y-115163165D01*
X99786340Y-115170534D01*
X99802376Y-115178287D01*
X99817644Y-115186422D01*
X99832144Y-115194940D01*
X99845876Y-115203841D01*
X99858840Y-115213125D01*
X99871036Y-115222791D01*
X99882463Y-115232841D01*
X99893122Y-115243274D01*
X99903076Y-115254128D01*
X99912388Y-115265520D01*
X99921057Y-115277450D01*
X99929084Y-115289918D01*
X99936470Y-115302924D01*
X99943212Y-115316468D01*
X99949313Y-115330550D01*
X99954772Y-115345171D01*
X99959588Y-115360329D01*
X99963762Y-115376025D01*
X99967295Y-115392259D01*
X99970184Y-115409031D01*
X99972432Y-115426341D01*
X99974037Y-115444188D01*
X99975001Y-115462574D01*
X99975322Y-115481498D01*
X99974771Y-115505937D01*
X99973117Y-115529699D01*
X99970360Y-115552785D01*
X99966501Y-115575195D01*
X99961539Y-115596928D01*
X99955475Y-115617986D01*
X99948308Y-115638368D01*
X99940038Y-115658073D01*
X99930666Y-115677102D01*
X99920191Y-115695456D01*
X99908613Y-115713133D01*
X99895933Y-115730134D01*
X99882150Y-115746459D01*
X99867265Y-115762107D01*
X99851277Y-115777080D01*
X99834186Y-115791377D01*
X99816112Y-115804899D01*
X99797172Y-115817549D01*
X99777367Y-115829326D01*
X99756697Y-115840231D01*
X99735162Y-115850264D01*
X99712762Y-115859424D01*
X99689497Y-115867712D01*
X99677539Y-115871529D01*
X99665366Y-115875127D01*
X99652976Y-115878508D01*
X99640370Y-115881670D01*
X99627548Y-115884615D01*
X99614510Y-115887341D01*
X99601255Y-115889849D01*
X99587784Y-115892139D01*
X99574096Y-115894211D01*
X99560193Y-115896065D01*
X99546073Y-115897701D01*
X99531737Y-115899119D01*
X99517184Y-115900318D01*
X99502415Y-115901300D01*
X99487430Y-115902063D01*
X99472229Y-115902608D01*
X99456811Y-115902935D01*
X99441177Y-115903044D01*
X99425660Y-115902936D01*
X99410361Y-115902612D01*
X99395279Y-115902071D01*
X99380414Y-115901314D01*
X99365767Y-115900341D01*
X99351338Y-115899151D01*
X99337126Y-115897745D01*
X99323131Y-115896123D01*
X99309354Y-115894285D01*
X99295795Y-115892230D01*
X99282453Y-115889959D01*
X99269328Y-115887472D01*
X99256421Y-115884768D01*
X99243732Y-115881849D01*
X99231259Y-115878712D01*
X99219005Y-115875360D01*
X99206968Y-115871791D01*
X99195148Y-115868006D01*
X99172162Y-115859788D01*
X99150045Y-115850704D01*
X99128798Y-115840755D01*
X99108422Y-115829940D01*
X99088915Y-115818261D01*
X99070278Y-115805717D01*
X99052511Y-115792307D01*
X99035709Y-115778081D01*
X99019888Y-115763086D01*
X99005049Y-115747324D01*
X98991191Y-115730793D01*
X98978314Y-115713494D01*
X98966419Y-115695427D01*
X98955506Y-115676591D01*
X98945574Y-115656987D01*
X98936623Y-115636616D01*
X98928654Y-115615475D01*
X98921666Y-115593567D01*
X98915660Y-115570891D01*
X98910635Y-115547446D01*
X98906592Y-115523233D01*
X98904938Y-115510839D01*
X98903530Y-115498252D01*
X98902367Y-115485474D01*
X98901450Y-115472503D01*
X99162318Y-115472503D01*
X99163475Y-115485491D01*
X99165163Y-115498089D01*
X99167382Y-115510296D01*
X99171705Y-115527876D01*
X99177222Y-115544578D01*
X99183933Y-115560402D01*
X99191838Y-115575348D01*
X99200937Y-115589417D01*
X99211231Y-115602608D01*
X99222718Y-115614920D01*
X99235400Y-115626355D01*
X99244518Y-115633491D01*
X99259127Y-115643358D01*
X99274805Y-115652255D01*
X99291551Y-115660181D01*
X99303310Y-115664926D01*
X99315543Y-115669239D01*
X99328251Y-115673121D01*
X99341434Y-115676572D01*
X99355092Y-115679592D01*
X99369225Y-115682180D01*
X99383833Y-115684337D01*
X99398915Y-115686062D01*
X99414473Y-115687356D01*
X99430506Y-115688219D01*
X99447014Y-115688650D01*
X99455446Y-115688704D01*
X99470445Y-115688524D01*
X99485045Y-115687982D01*
X99499244Y-115687079D01*
X99513044Y-115685816D01*
X99526444Y-115684191D01*
X99539444Y-115682205D01*
X99552044Y-115679858D01*
X99564245Y-115677150D01*
X99581795Y-115672410D01*
X99598447Y-115666859D01*
X99614198Y-115660495D01*
X99629050Y-115653318D01*
X99643002Y-115645330D01*
X99647453Y-115642486D01*
X99660092Y-115633449D01*
X99671487Y-115623784D01*
X99681640Y-115613492D01*
X99690549Y-115602574D01*
X99698216Y-115591028D01*
X99704639Y-115578855D01*
X99709819Y-115566055D01*
X99713755Y-115552628D01*
X99716449Y-115538574D01*
X99717899Y-115523894D01*
X99718176Y-115513758D01*
X99717688Y-115499301D01*
X99716224Y-115485477D01*
X99713784Y-115472286D01*
X99710368Y-115459727D01*
X99705976Y-115447800D01*
X99700608Y-115436506D01*
X99691932Y-115422432D01*
X99684287Y-115412613D01*
X99675665Y-115403428D01*
X99666068Y-115394875D01*
X99662652Y-115392164D01*
X99651607Y-115384293D01*
X99639177Y-115376733D01*
X99625362Y-115369484D01*
X99610162Y-115362546D01*
X99593577Y-115355918D01*
X99581752Y-115351673D01*
X99569310Y-115347565D01*
X99556253Y-115343596D01*
X99542581Y-115339764D01*
X99528292Y-115336071D01*
X99513389Y-115332516D01*
X99497870Y-115329099D01*
X99481735Y-115325820D01*
X99473437Y-115324233D01*
X99291046Y-115288561D01*
X99278770Y-115286174D01*
X99254885Y-115281147D01*
X99231892Y-115275787D01*
X99209791Y-115270092D01*
X99188582Y-115264063D01*
X99168265Y-115257699D01*
X99148839Y-115251001D01*
X99130306Y-115243969D01*
X99112664Y-115236602D01*
X99095913Y-115228900D01*
X99080055Y-115220864D01*
X99065088Y-115212494D01*
X99051014Y-115203789D01*
X99037831Y-115194750D01*
X99025539Y-115185377D01*
X99014140Y-115175669D01*
X99008775Y-115170690D01*
X98998595Y-115160367D01*
X98989073Y-115149485D01*
X98980207Y-115138043D01*
X98971998Y-115126042D01*
X98964446Y-115113480D01*
X98957550Y-115100359D01*
X98951311Y-115086678D01*
X98945729Y-115072437D01*
X98940803Y-115057637D01*
X98936535Y-115042276D01*
X98932923Y-115026356D01*
X98929967Y-115009876D01*
X98927669Y-114992836D01*
X98926027Y-114975237D01*
X98925042Y-114957078D01*
X98924714Y-114938358D01*
X98925219Y-114914812D01*
X98926735Y-114891942D01*
X98929261Y-114869747D01*
X98932798Y-114848229D01*
X98937345Y-114827387D01*
X98942903Y-114807221D01*
X98949472Y-114787732D01*
X98957051Y-114768918D01*
X98965640Y-114750780D01*
X98975240Y-114733319D01*
X98985851Y-114716534D01*
X98997472Y-114700424D01*
X99010104Y-114684991D01*
X99023746Y-114670234D01*
X99038399Y-114656154D01*
X99054062Y-114642749D01*
X99070678Y-114630090D01*
X99088110Y-114618249D01*
X99106359Y-114607224D01*
X99125425Y-114597015D01*
X99145307Y-114587624D01*
X99166006Y-114579049D01*
X99187522Y-114571290D01*
X99209854Y-114564349D01*
X99233003Y-114558224D01*
X99256969Y-114552915D01*
X99269258Y-114550567D01*
X99281751Y-114548424D01*
X99294449Y-114546484D01*
X99307350Y-114544749D01*
X99320456Y-114543217D01*
X99333766Y-114541890D01*
X99347280Y-114540767D01*
X99360999Y-114539849D01*
X99374921Y-114539134D01*
X99389048Y-114538624D01*
X99403378Y-114538317D01*
X99417913Y-114538215D01*
X99430609Y-114538294D01*
X99443224Y-114538532D01*
X99455757Y-114538927D01*
X99468207Y-114539480D01*
X99484681Y-114540464D01*
X99501010Y-114541729D01*
X99517193Y-114543275D01*
X99533231Y-114545102D01*
X99549123Y-114547211D01*
X99565141Y-114549683D01*
X99581402Y-114552755D01*
X99593756Y-114555454D01*
X99606247Y-114558491D01*
X99618874Y-114561867D01*
X99631638Y-114565580D01*
X99644538Y-114569631D01*
X99657574Y-114574020D01*
X99670746Y-114578748D01*
X99684055Y-114583813D01*
X99697315Y-114589131D01*
X99710227Y-114594733D01*
X99722790Y-114600618D01*
X99735003Y-114606786D01*
X99746868Y-114613239D01*
X99758384Y-114619974D01*
X99769551Y-114626993D01*
X99780368Y-114634296D01*
X99790837Y-114641882D01*
X99800957Y-114649752D01*
X99807510Y-114655156D01*
X99817073Y-114663657D01*
X99826336Y-114672757D01*
X99835299Y-114682457D01*
X99843962Y-114692757D01*
X99852325Y-114703657D01*
X99860389Y-114715156D01*
X99868152Y-114727255D01*
X99875616Y-114739954D01*
X99882779Y-114753253D01*
X99889643Y-114767151D01*
X99894052Y-114776750D01*
X99900261Y-114791506D01*
X99905859Y-114806692D01*
X99910846Y-114822309D01*
X99915223Y-114838357D01*
X99918989Y-114854835D01*
X99922144Y-114871744D01*
X99924688Y-114889084D01*
X99926622Y-114906855D01*
X99927945Y-114925056D01*
X99928658Y-114943689D01*
X99928794Y-114956349D01*
G37*
G36*
X100770862Y-114559720D02*
G01*
X100783300Y-114560023D01*
X100807616Y-114561237D01*
X100831185Y-114563261D01*
X100854008Y-114566094D01*
X100876085Y-114569736D01*
X100897415Y-114574188D01*
X100917999Y-114579449D01*
X100937836Y-114585519D01*
X100956928Y-114592399D01*
X100975272Y-114600088D01*
X100992871Y-114608587D01*
X101009723Y-114617895D01*
X101025828Y-114628012D01*
X101041187Y-114638939D01*
X101055800Y-114650676D01*
X101069667Y-114663221D01*
X101082776Y-114676535D01*
X101095039Y-114690576D01*
X101106457Y-114705344D01*
X101117028Y-114720839D01*
X101126755Y-114737061D01*
X101135635Y-114754010D01*
X101143670Y-114771685D01*
X101150858Y-114790088D01*
X101157201Y-114809218D01*
X101162699Y-114829075D01*
X101167350Y-114849659D01*
X101171156Y-114870970D01*
X101174116Y-114893008D01*
X101176231Y-114915773D01*
X101177499Y-114939265D01*
X101177922Y-114963484D01*
X101177503Y-114987946D01*
X101176245Y-115011781D01*
X101174149Y-115034988D01*
X101171215Y-115057568D01*
X101167441Y-115079520D01*
X101162830Y-115100844D01*
X101157380Y-115121540D01*
X101151091Y-115141609D01*
X101143964Y-115161051D01*
X101135998Y-115179864D01*
X101127194Y-115198050D01*
X101117552Y-115215609D01*
X101107071Y-115232539D01*
X101095751Y-115248842D01*
X101083594Y-115264518D01*
X101070597Y-115279566D01*
X101056940Y-115293839D01*
X101042724Y-115307192D01*
X101027947Y-115319624D01*
X101012611Y-115331134D01*
X100996715Y-115341725D01*
X100980260Y-115351394D01*
X100963244Y-115360142D01*
X100945669Y-115367969D01*
X100927534Y-115374876D01*
X100908839Y-115380862D01*
X100889584Y-115385926D01*
X100869770Y-115390070D01*
X100849395Y-115393293D01*
X100828461Y-115395596D01*
X100806967Y-115396977D01*
X100784914Y-115397437D01*
X100450841Y-115397437D01*
X100450841Y-115862100D01*
X100182838Y-115862100D01*
X100182838Y-114782954D01*
X100450841Y-114782954D01*
X100450841Y-115174102D01*
X100700853Y-115174102D01*
X100713715Y-115173912D01*
X100726169Y-115173342D01*
X100749853Y-115171063D01*
X100771903Y-115167264D01*
X100792319Y-115161946D01*
X100811103Y-115155109D01*
X100828253Y-115146752D01*
X100843769Y-115136875D01*
X100857653Y-115125480D01*
X100869903Y-115112564D01*
X100880519Y-115098130D01*
X100889503Y-115082176D01*
X100896853Y-115064702D01*
X100902570Y-115045709D01*
X100906653Y-115025197D01*
X100909103Y-115003165D01*
X100909920Y-114979613D01*
X100909472Y-114961286D01*
X100908131Y-114943874D01*
X100905896Y-114927378D01*
X100902766Y-114911799D01*
X100898742Y-114897135D01*
X100893824Y-114883387D01*
X100888011Y-114870556D01*
X100881305Y-114858640D01*
X100873704Y-114847640D01*
X100865209Y-114837557D01*
X100859049Y-114831343D01*
X100849014Y-114822696D01*
X100837987Y-114814899D01*
X100825968Y-114807952D01*
X100812957Y-114801856D01*
X100798953Y-114796611D01*
X100783956Y-114792216D01*
X100767968Y-114788672D01*
X100750987Y-114785978D01*
X100733013Y-114784135D01*
X100720480Y-114783379D01*
X100707505Y-114783001D01*
X100700853Y-114782954D01*
X100450841Y-114782954D01*
X100182838Y-114782954D01*
X100182838Y-114559618D01*
X100758237Y-114559618D01*
X100770862Y-114559720D01*
G37*
G36*
X102470788Y-115862100D02*
G01*
X102195651Y-115862100D01*
X102110039Y-115599370D01*
X101622112Y-115599370D01*
X101534639Y-115862100D01*
X101261363Y-115862100D01*
X101433957Y-115376034D01*
X101697178Y-115376034D01*
X102036524Y-115376034D01*
X101866851Y-114867015D01*
X101697178Y-115376034D01*
X101433957Y-115376034D01*
X101723854Y-114559618D01*
X102020704Y-114559618D01*
X102470788Y-115862100D01*
G37*
G36*
X103335600Y-114559752D02*
G01*
X103353813Y-114560451D01*
X103371536Y-114561751D01*
X103388768Y-114563650D01*
X103405509Y-114566149D01*
X103421759Y-114569248D01*
X103437519Y-114572947D01*
X103452788Y-114577245D01*
X103467566Y-114582143D01*
X103481853Y-114587641D01*
X103495650Y-114593739D01*
X103508888Y-114600269D01*
X103521499Y-114607181D01*
X103533483Y-114614475D01*
X103544839Y-114622150D01*
X103555569Y-114630207D01*
X103565672Y-114638646D01*
X103575147Y-114647466D01*
X103583996Y-114656669D01*
X103592217Y-114666252D01*
X103599812Y-114676218D01*
X103604526Y-114683073D01*
X103613357Y-114696896D01*
X103621548Y-114710758D01*
X103629099Y-114724658D01*
X103636010Y-114738597D01*
X103642282Y-114752575D01*
X103647914Y-114766592D01*
X103652906Y-114780647D01*
X103657258Y-114794741D01*
X103661039Y-114808850D01*
X103664315Y-114823104D01*
X103667087Y-114837504D01*
X103669356Y-114852048D01*
X103671120Y-114866739D01*
X103672380Y-114881575D01*
X103673136Y-114896556D01*
X103673388Y-114911682D01*
X103673173Y-114926270D01*
X103672529Y-114940564D01*
X103671455Y-114954565D01*
X103669952Y-114968272D01*
X103668019Y-114981687D01*
X103665656Y-114994808D01*
X103662864Y-115007636D01*
X103659643Y-115020171D01*
X103655992Y-115032412D01*
X103651911Y-115044360D01*
X103647401Y-115056016D01*
X103637092Y-115078446D01*
X103625065Y-115099704D01*
X103611320Y-115119788D01*
X103595856Y-115138700D01*
X103578675Y-115156439D01*
X103569440Y-115164869D01*
X103559775Y-115173005D01*
X103549681Y-115180848D01*
X103539157Y-115188398D01*
X103528204Y-115195655D01*
X103516821Y-115202618D01*
X103505009Y-115209289D01*
X103492767Y-115215666D01*
X103480096Y-115221749D01*
X103466995Y-115227540D01*
X103453465Y-115233037D01*
X103465169Y-115237874D01*
X103478696Y-115243566D01*
X103490996Y-115248864D01*
X103504137Y-115254702D01*
X103515511Y-115259973D01*
X103525118Y-115264677D01*
X103536789Y-115271384D01*
X103547065Y-115278844D01*
X103557399Y-115287788D01*
X103566305Y-115296636D01*
X103572267Y-115303140D01*
X103580773Y-115312958D01*
X103589263Y-115323944D01*
X103596209Y-115334425D01*
X103602258Y-115345786D01*
X103604526Y-115351219D01*
X103608559Y-115364150D01*
X103611583Y-115376775D01*
X103614103Y-115389211D01*
X103616624Y-115403389D01*
X103618640Y-115415986D01*
X103620656Y-115429697D01*
X103622571Y-115443941D01*
X103624281Y-115458137D01*
X103625789Y-115472285D01*
X103627093Y-115486384D01*
X103628193Y-115500434D01*
X103629089Y-115514436D01*
X103629782Y-115528390D01*
X103630272Y-115542295D01*
X103630737Y-115557010D01*
X103631203Y-115573392D01*
X103631551Y-115586772D01*
X103631900Y-115601090D01*
X103632249Y-115616347D01*
X103632598Y-115632541D01*
X103632947Y-115649673D01*
X103633296Y-115667742D01*
X103633529Y-115680310D01*
X103633762Y-115693294D01*
X103633994Y-115706695D01*
X103634499Y-115720391D01*
X103636012Y-115733329D01*
X103638533Y-115745509D01*
X103643465Y-115760570D01*
X103650190Y-115774284D01*
X103658708Y-115786650D01*
X103669019Y-115797669D01*
X103681124Y-115807341D01*
X103691379Y-115813710D01*
X103691379Y-115862100D01*
X103403524Y-115862100D01*
X103397582Y-115850526D01*
X103392164Y-115839068D01*
X103386126Y-115824910D01*
X103380907Y-115810933D01*
X103376506Y-115797138D01*
X103372922Y-115783525D01*
X103370644Y-115772765D01*
X103368321Y-115758207D01*
X103366746Y-115744859D01*
X103365423Y-115729999D01*
X103364351Y-115713627D01*
X103363713Y-115700356D01*
X103363217Y-115686234D01*
X103362863Y-115671261D01*
X103362650Y-115655438D01*
X103362579Y-115638764D01*
X103362604Y-115625712D01*
X103362702Y-115610419D01*
X103362876Y-115596262D01*
X103363126Y-115583241D01*
X103363526Y-115569115D01*
X103364035Y-115556625D01*
X103364130Y-115554703D01*
X103364855Y-115541745D01*
X103365466Y-115527772D01*
X103365844Y-115514691D01*
X103365991Y-115501040D01*
X103365645Y-115486084D01*
X103364606Y-115471924D01*
X103362875Y-115458560D01*
X103360452Y-115445991D01*
X103356143Y-115430472D01*
X103350603Y-115416368D01*
X103343832Y-115403680D01*
X103335830Y-115392406D01*
X103326597Y-115382548D01*
X103316070Y-115373897D01*
X103304031Y-115366399D01*
X103290480Y-115360055D01*
X103275416Y-115354864D01*
X103263126Y-115351728D01*
X103249986Y-115349241D01*
X103235995Y-115347402D01*
X103221153Y-115346213D01*
X103205460Y-115345672D01*
X103200041Y-115345636D01*
X102892644Y-115345636D01*
X102892644Y-115862100D01*
X102624641Y-115862100D01*
X102624641Y-114782954D01*
X102892644Y-114782954D01*
X102892644Y-115122300D01*
X103215860Y-115122300D01*
X103233237Y-115122003D01*
X103249775Y-115121111D01*
X103265473Y-115119626D01*
X103280331Y-115117546D01*
X103294349Y-115114871D01*
X103307528Y-115111602D01*
X103319867Y-115107739D01*
X103335013Y-115101664D01*
X103348666Y-115094532D01*
X103357927Y-115088490D01*
X103369050Y-115078850D01*
X103378690Y-115066990D01*
X103386847Y-115052910D01*
X103391991Y-115040894D01*
X103396301Y-115027628D01*
X103399777Y-115013115D01*
X103402419Y-114997352D01*
X103404227Y-114980341D01*
X103405200Y-114962082D01*
X103405385Y-114949215D01*
X103404976Y-114931021D01*
X103403750Y-114914010D01*
X103401705Y-114898182D01*
X103398842Y-114883537D01*
X103395162Y-114870076D01*
X103390664Y-114857798D01*
X103383393Y-114843267D01*
X103374669Y-114830841D01*
X103364491Y-114820517D01*
X103358857Y-114816144D01*
X103346445Y-114808365D01*
X103332472Y-114801623D01*
X103316938Y-114795919D01*
X103304264Y-114792321D01*
X103290711Y-114789307D01*
X103276281Y-114786876D01*
X103260973Y-114785028D01*
X103244787Y-114783764D01*
X103227724Y-114783084D01*
X103215860Y-114782954D01*
X102892644Y-114782954D01*
X102624641Y-114782954D01*
X102624641Y-114559618D01*
X103323185Y-114559618D01*
X103335600Y-114559752D01*
G37*
G36*
X104481119Y-114782954D02*
G01*
X104481119Y-115862100D01*
X104213116Y-115862100D01*
X104213116Y-114782954D01*
X103818246Y-114782954D01*
X103818246Y-114559618D01*
X104861720Y-114559618D01*
X104861720Y-114782954D01*
X104481119Y-114782954D01*
G37*
G36*
X106135974Y-115862100D02*
G01*
X105860837Y-115862100D01*
X105775225Y-115599370D01*
X105287298Y-115599370D01*
X105199825Y-115862100D01*
X104926549Y-115862100D01*
X105099143Y-115376034D01*
X105362364Y-115376034D01*
X105701710Y-115376034D01*
X105532037Y-114867015D01*
X105362364Y-115376034D01*
X105099143Y-115376034D01*
X105389040Y-114559618D01*
X105685891Y-114559618D01*
X106135974Y-115862100D01*
G37*
G36*
X107081118Y-115862100D02*
G01*
X106557830Y-114961623D01*
X106557830Y-115862100D01*
X106289827Y-115862100D01*
X106289827Y-114559618D01*
X106564965Y-114559618D01*
X107081118Y-115445827D01*
X107081118Y-114559618D01*
X107349121Y-114559618D01*
X107349121Y-115862100D01*
X107081118Y-115862100D01*
G37*
G36*
X108833380Y-114559752D02*
G01*
X108851593Y-114560451D01*
X108869316Y-114561751D01*
X108886547Y-114563650D01*
X108903288Y-114566149D01*
X108919539Y-114569248D01*
X108935298Y-114572947D01*
X108950567Y-114577245D01*
X108965345Y-114582143D01*
X108979633Y-114587641D01*
X108993430Y-114593739D01*
X109006667Y-114600269D01*
X109019278Y-114607181D01*
X109031262Y-114614475D01*
X109042619Y-114622150D01*
X109053348Y-114630207D01*
X109063451Y-114638646D01*
X109072927Y-114647466D01*
X109081775Y-114656669D01*
X109089997Y-114666252D01*
X109097591Y-114676218D01*
X109102306Y-114683073D01*
X109111136Y-114696896D01*
X109119327Y-114710758D01*
X109126879Y-114724658D01*
X109133790Y-114738597D01*
X109140062Y-114752575D01*
X109145693Y-114766592D01*
X109150685Y-114780647D01*
X109155038Y-114794741D01*
X109158818Y-114808850D01*
X109162095Y-114823104D01*
X109164867Y-114837504D01*
X109167135Y-114852048D01*
X109168899Y-114866739D01*
X109170160Y-114881575D01*
X109170916Y-114896556D01*
X109171168Y-114911682D01*
X109170953Y-114926270D01*
X109170309Y-114940564D01*
X109169235Y-114954565D01*
X109167731Y-114968272D01*
X109165798Y-114981687D01*
X109163436Y-114994808D01*
X109160644Y-115007636D01*
X109157422Y-115020171D01*
X109153771Y-115032412D01*
X109149691Y-115044360D01*
X109145181Y-115056016D01*
X109134872Y-115078446D01*
X109122845Y-115099704D01*
X109109099Y-115119788D01*
X109093636Y-115138700D01*
X109076454Y-115156439D01*
X109067219Y-115164869D01*
X109057555Y-115173005D01*
X109047461Y-115180848D01*
X109036937Y-115188398D01*
X109025984Y-115195655D01*
X109014601Y-115202618D01*
X109002789Y-115209289D01*
X108990547Y-115215666D01*
X108977875Y-115221749D01*
X108964774Y-115227540D01*
X108951244Y-115233037D01*
X108962949Y-115237874D01*
X108976476Y-115243566D01*
X108988776Y-115248864D01*
X109001916Y-115254702D01*
X109013290Y-115259973D01*
X109022898Y-115264677D01*
X109034568Y-115271384D01*
X109044844Y-115278844D01*
X109055179Y-115287788D01*
X109064085Y-115296636D01*
X109070046Y-115303140D01*
X109078552Y-115312958D01*
X109087042Y-115323944D01*
X109093989Y-115334425D01*
X109100038Y-115345786D01*
X109102306Y-115351219D01*
X109106338Y-115364150D01*
X109109363Y-115376775D01*
X109111883Y-115389211D01*
X109114403Y-115403389D01*
X109116419Y-115415986D01*
X109118436Y-115429697D01*
X109120350Y-115443941D01*
X109122061Y-115458137D01*
X109123568Y-115472285D01*
X109124872Y-115486384D01*
X109125972Y-115500434D01*
X109126869Y-115514436D01*
X109127562Y-115528390D01*
X109128051Y-115542295D01*
X109128517Y-115557010D01*
X109128982Y-115573392D01*
X109129331Y-115586772D01*
X109129680Y-115601090D01*
X109130029Y-115616347D01*
X109130378Y-115632541D01*
X109130727Y-115649673D01*
X109131076Y-115667742D01*
X109131308Y-115680310D01*
X109131541Y-115693294D01*
X109131774Y-115706695D01*
X109132278Y-115720391D01*
X109133791Y-115733329D01*
X109136313Y-115745509D01*
X109141244Y-115760570D01*
X109147969Y-115774284D01*
X109156487Y-115786650D01*
X109166799Y-115797669D01*
X109178903Y-115807341D01*
X109189159Y-115813710D01*
X109189159Y-115862100D01*
X108901304Y-115862100D01*
X108895362Y-115850526D01*
X108889943Y-115839068D01*
X108883906Y-115824910D01*
X108878687Y-115810933D01*
X108874285Y-115797138D01*
X108870702Y-115783525D01*
X108868424Y-115772765D01*
X108866100Y-115758207D01*
X108864525Y-115744859D01*
X108863202Y-115729999D01*
X108862131Y-115713627D01*
X108861493Y-115700356D01*
X108860997Y-115686234D01*
X108860642Y-115671261D01*
X108860430Y-115655438D01*
X108860359Y-115638764D01*
X108860383Y-115625712D01*
X108860482Y-115610419D01*
X108860656Y-115596262D01*
X108860906Y-115583241D01*
X108861305Y-115569115D01*
X108861814Y-115556625D01*
X108861910Y-115554703D01*
X108862635Y-115541745D01*
X108863246Y-115527772D01*
X108863624Y-115514691D01*
X108863771Y-115501040D01*
X108863425Y-115486084D01*
X108862386Y-115471924D01*
X108860655Y-115458560D01*
X108858231Y-115445991D01*
X108853922Y-115430472D01*
X108848383Y-115416368D01*
X108841612Y-115403680D01*
X108833610Y-115392406D01*
X108824377Y-115382548D01*
X108813850Y-115373897D01*
X108801811Y-115366399D01*
X108788259Y-115360055D01*
X108773196Y-115354864D01*
X108760906Y-115351728D01*
X108747765Y-115349241D01*
X108733774Y-115347402D01*
X108718932Y-115346213D01*
X108703240Y-115345672D01*
X108697820Y-115345636D01*
X108390423Y-115345636D01*
X108390423Y-115862100D01*
X108122421Y-115862100D01*
X108122421Y-114782954D01*
X108390423Y-114782954D01*
X108390423Y-115122300D01*
X108713640Y-115122300D01*
X108731017Y-115122003D01*
X108747554Y-115121111D01*
X108763252Y-115119626D01*
X108778110Y-115117546D01*
X108792129Y-115114871D01*
X108805308Y-115111602D01*
X108817647Y-115107739D01*
X108832793Y-115101664D01*
X108846446Y-115094532D01*
X108855706Y-115088490D01*
X108866829Y-115078850D01*
X108876469Y-115066990D01*
X108884626Y-115052910D01*
X108889771Y-115040894D01*
X108894081Y-115027628D01*
X108897557Y-115013115D01*
X108900199Y-114997352D01*
X108902006Y-114980341D01*
X108902979Y-114962082D01*
X108903165Y-114949215D01*
X108902756Y-114931021D01*
X108901529Y-114914010D01*
X108899484Y-114898182D01*
X108896622Y-114883537D01*
X108892941Y-114870076D01*
X108888443Y-114857798D01*
X108881173Y-114843267D01*
X108872449Y-114830841D01*
X108862271Y-114820517D01*
X108856637Y-114816144D01*
X108844224Y-114808365D01*
X108830251Y-114801623D01*
X108814718Y-114795919D01*
X108802043Y-114792321D01*
X108788491Y-114789307D01*
X108774061Y-114786876D01*
X108758753Y-114785028D01*
X108742567Y-114783764D01*
X108725503Y-114783084D01*
X108713640Y-114782954D01*
X108390423Y-114782954D01*
X108122421Y-114782954D01*
X108122421Y-114559618D01*
X108820965Y-114559618D01*
X108833380Y-114559752D01*
G37*
G36*
X109976582Y-114538401D02*
G01*
X109993905Y-114538959D01*
X110011015Y-114539889D01*
X110027913Y-114541191D01*
X110044598Y-114542865D01*
X110061070Y-114544911D01*
X110077330Y-114547329D01*
X110093377Y-114550119D01*
X110109212Y-114553281D01*
X110124833Y-114556815D01*
X110140243Y-114560720D01*
X110155439Y-114564998D01*
X110170423Y-114569648D01*
X110185194Y-114574670D01*
X110199753Y-114580064D01*
X110214099Y-114585829D01*
X110228232Y-114591967D01*
X110242152Y-114598477D01*
X110255860Y-114605358D01*
X110269356Y-114612612D01*
X110282638Y-114620238D01*
X110295708Y-114628235D01*
X110308566Y-114636605D01*
X110321211Y-114645347D01*
X110333643Y-114654460D01*
X110345862Y-114663946D01*
X110357869Y-114673803D01*
X110369663Y-114684033D01*
X110381244Y-114694635D01*
X110392613Y-114705608D01*
X110403769Y-114716954D01*
X110414713Y-114728671D01*
X110425381Y-114740673D01*
X110435710Y-114752911D01*
X110445701Y-114765384D01*
X110455353Y-114778093D01*
X110464666Y-114791037D01*
X110473640Y-114804218D01*
X110482276Y-114817634D01*
X110490573Y-114831285D01*
X110498532Y-114845173D01*
X110506152Y-114859295D01*
X110513433Y-114873654D01*
X110520376Y-114888248D01*
X110526980Y-114903078D01*
X110533245Y-114918144D01*
X110539172Y-114933445D01*
X110544759Y-114948982D01*
X110550009Y-114964755D01*
X110554919Y-114980763D01*
X110559491Y-114997007D01*
X110563725Y-115013487D01*
X110567619Y-115030202D01*
X110571175Y-115047153D01*
X110574392Y-115064340D01*
X110577271Y-115081762D01*
X110579811Y-115099420D01*
X110582012Y-115117314D01*
X110583875Y-115135443D01*
X110585399Y-115153808D01*
X110586584Y-115172409D01*
X110587431Y-115191246D01*
X110587939Y-115210318D01*
X110588108Y-115229625D01*
X110587942Y-115247618D01*
X110587442Y-115265421D01*
X110586609Y-115283033D01*
X110585443Y-115300455D01*
X110583943Y-115317687D01*
X110582111Y-115334728D01*
X110579945Y-115351580D01*
X110577446Y-115368241D01*
X110574613Y-115384712D01*
X110571448Y-115400992D01*
X110567949Y-115417083D01*
X110564117Y-115432983D01*
X110559952Y-115448693D01*
X110555454Y-115464213D01*
X110550622Y-115479542D01*
X110545457Y-115494681D01*
X110539959Y-115509630D01*
X110534128Y-115524389D01*
X110527964Y-115538958D01*
X110521466Y-115553336D01*
X110514635Y-115567524D01*
X110507471Y-115581522D01*
X110499974Y-115595330D01*
X110492144Y-115608947D01*
X110483980Y-115622374D01*
X110475483Y-115635611D01*
X110466653Y-115648658D01*
X110457490Y-115661514D01*
X110447993Y-115674180D01*
X110438164Y-115686656D01*
X110428001Y-115698942D01*
X110417505Y-115711038D01*
X110406729Y-115722851D01*
X110395728Y-115734289D01*
X110384502Y-115745351D01*
X110373051Y-115756039D01*
X110361374Y-115766352D01*
X110349472Y-115776290D01*
X110337344Y-115785853D01*
X110324991Y-115795041D01*
X110312413Y-115803853D01*
X110299609Y-115812291D01*
X110286580Y-115820354D01*
X110273325Y-115828042D01*
X110259845Y-115835355D01*
X110246140Y-115842292D01*
X110232210Y-115848855D01*
X110218054Y-115855043D01*
X110203672Y-115860855D01*
X110189065Y-115866293D01*
X110174233Y-115871356D01*
X110159176Y-115876043D01*
X110143893Y-115880356D01*
X110128385Y-115884294D01*
X110112651Y-115887856D01*
X110096692Y-115891044D01*
X110080508Y-115893857D01*
X110064098Y-115896294D01*
X110047463Y-115898357D01*
X110030603Y-115900044D01*
X110013517Y-115901357D01*
X109996206Y-115902294D01*
X109978669Y-115902857D01*
X109960907Y-115903044D01*
X109943259Y-115902858D01*
X109925831Y-115902298D01*
X109908622Y-115901365D01*
X109891634Y-115900059D01*
X109874865Y-115898379D01*
X109858316Y-115896327D01*
X109841987Y-115893901D01*
X109825878Y-115891102D01*
X109809989Y-115887930D01*
X109794320Y-115884385D01*
X109778871Y-115880466D01*
X109763642Y-115876174D01*
X109748633Y-115871509D01*
X109733843Y-115866471D01*
X109719274Y-115861060D01*
X109704924Y-115855275D01*
X109690795Y-115849118D01*
X109676885Y-115842587D01*
X109663195Y-115835683D01*
X109649725Y-115828405D01*
X109636475Y-115820755D01*
X109623445Y-115812731D01*
X109610635Y-115804334D01*
X109598045Y-115795564D01*
X109585675Y-115786421D01*
X109573524Y-115776904D01*
X109561594Y-115767015D01*
X109549883Y-115756752D01*
X109538393Y-115746116D01*
X109527122Y-115735106D01*
X109516071Y-115723724D01*
X109505241Y-115711968D01*
X109494687Y-115699919D01*
X109484469Y-115687657D01*
X109474586Y-115675182D01*
X109465037Y-115662493D01*
X109455824Y-115649591D01*
X109446946Y-115636476D01*
X109438403Y-115623148D01*
X109430194Y-115609606D01*
X109422321Y-115595851D01*
X109414783Y-115581883D01*
X109407580Y-115567702D01*
X109400712Y-115553307D01*
X109394179Y-115538699D01*
X109387981Y-115523878D01*
X109382118Y-115508843D01*
X109376590Y-115493596D01*
X109371397Y-115478135D01*
X109366539Y-115462460D01*
X109362016Y-115446573D01*
X109357828Y-115430472D01*
X109353976Y-115414158D01*
X109350458Y-115397631D01*
X109347275Y-115380891D01*
X109344427Y-115363937D01*
X109341915Y-115346770D01*
X109339737Y-115329390D01*
X109337894Y-115311796D01*
X109336387Y-115293989D01*
X109335214Y-115275969D01*
X109334376Y-115257736D01*
X109333874Y-115239290D01*
X109333709Y-115220940D01*
X109601709Y-115220940D01*
X109601805Y-115233695D01*
X109602093Y-115246291D01*
X109602573Y-115258728D01*
X109604110Y-115283126D01*
X109606414Y-115306889D01*
X109609487Y-115330018D01*
X109613328Y-115352511D01*
X109617937Y-115374370D01*
X109623315Y-115395594D01*
X109629460Y-115416182D01*
X109636374Y-115436136D01*
X109644056Y-115455455D01*
X109652506Y-115474139D01*
X109661725Y-115492188D01*
X109671711Y-115509602D01*
X109682466Y-115526382D01*
X109693989Y-115542526D01*
X109700039Y-115550360D01*
X109712581Y-115565385D01*
X109725625Y-115579440D01*
X109739170Y-115592526D01*
X109753217Y-115604643D01*
X109767765Y-115615791D01*
X109782816Y-115625969D01*
X109798367Y-115635177D01*
X109814421Y-115643417D01*
X109830976Y-115650687D01*
X109848033Y-115656987D01*
X109865591Y-115662319D01*
X109883651Y-115666681D01*
X109902213Y-115670073D01*
X109921276Y-115672497D01*
X109940841Y-115673951D01*
X109960907Y-115674436D01*
X109980788Y-115673954D01*
X110000185Y-115672511D01*
X110019097Y-115670106D01*
X110037524Y-115666739D01*
X110055466Y-115662410D01*
X110072924Y-115657118D01*
X110089897Y-115650865D01*
X110106386Y-115643649D01*
X110122389Y-115635472D01*
X110137909Y-115626332D01*
X110152943Y-115616230D01*
X110167493Y-115605167D01*
X110181558Y-115593141D01*
X110195138Y-115580153D01*
X110208234Y-115566203D01*
X110220845Y-115551291D01*
X110232865Y-115535560D01*
X110244109Y-115519230D01*
X110254578Y-115502302D01*
X110264272Y-115484775D01*
X110273190Y-115466649D01*
X110281332Y-115447925D01*
X110288699Y-115428603D01*
X110295290Y-115408682D01*
X110301106Y-115388162D01*
X110306147Y-115367044D01*
X110310412Y-115345327D01*
X110313902Y-115323011D01*
X110316616Y-115300097D01*
X110318555Y-115276585D01*
X110319718Y-115252474D01*
X110320106Y-115227764D01*
X110320010Y-115214684D01*
X110319725Y-115201771D01*
X110319249Y-115189026D01*
X110318584Y-115176447D01*
X110317728Y-115164036D01*
X110315445Y-115139716D01*
X110312401Y-115116064D01*
X110308596Y-115093081D01*
X110304031Y-115070766D01*
X110298704Y-115049121D01*
X110292617Y-115028145D01*
X110285768Y-115007837D01*
X110278159Y-114988198D01*
X110269789Y-114969228D01*
X110260658Y-114950927D01*
X110250766Y-114933295D01*
X110240113Y-114916331D01*
X110228699Y-114900037D01*
X110222706Y-114892140D01*
X110210270Y-114876965D01*
X110197310Y-114862769D01*
X110183826Y-114849552D01*
X110169819Y-114837315D01*
X110155289Y-114826056D01*
X110140235Y-114815776D01*
X110124658Y-114806475D01*
X110108557Y-114798153D01*
X110091933Y-114790810D01*
X110074785Y-114784447D01*
X110057114Y-114779062D01*
X110038920Y-114774656D01*
X110020202Y-114771230D01*
X110000960Y-114768782D01*
X109981196Y-114767314D01*
X109960907Y-114766824D01*
X109940841Y-114767310D01*
X109921276Y-114768768D01*
X109902213Y-114771197D01*
X109883651Y-114774598D01*
X109865591Y-114778971D01*
X109848033Y-114784316D01*
X109830976Y-114790632D01*
X109814421Y-114797921D01*
X109798367Y-114806181D01*
X109782816Y-114815412D01*
X109767765Y-114825616D01*
X109753217Y-114836791D01*
X109739170Y-114848938D01*
X109725625Y-114862057D01*
X109712581Y-114876147D01*
X109700039Y-114891210D01*
X109688132Y-114907038D01*
X109676993Y-114923503D01*
X109666622Y-114940606D01*
X109657020Y-114958346D01*
X109648185Y-114976724D01*
X109640119Y-114995738D01*
X109632821Y-115015391D01*
X109626292Y-115035680D01*
X109620530Y-115056607D01*
X109615537Y-115078171D01*
X109611312Y-115100372D01*
X109607855Y-115123211D01*
X109605166Y-115146687D01*
X109603246Y-115170801D01*
X109602093Y-115195552D01*
X109601805Y-115208166D01*
X109601709Y-115220940D01*
X109333709Y-115220940D01*
X109333706Y-115220630D01*
X109333875Y-115201970D01*
X109334380Y-115183524D01*
X109335222Y-115165290D01*
X109336401Y-115147270D01*
X109337917Y-115129464D01*
X109339770Y-115111870D01*
X109341959Y-115094490D01*
X109344485Y-115077323D01*
X109347349Y-115060369D01*
X109350549Y-115043629D01*
X109354085Y-115027101D01*
X109357959Y-115010787D01*
X109362170Y-114994687D01*
X109366717Y-114978799D01*
X109371601Y-114963125D01*
X109376823Y-114947664D01*
X109382380Y-114932416D01*
X109388275Y-114917382D01*
X109394507Y-114902561D01*
X109401075Y-114887953D01*
X109407981Y-114873558D01*
X109415223Y-114859377D01*
X109422802Y-114845408D01*
X109430718Y-114831654D01*
X109438970Y-114818112D01*
X109447560Y-114804784D01*
X109456486Y-114791668D01*
X109465750Y-114778766D01*
X109475350Y-114766078D01*
X109485287Y-114753602D01*
X109495560Y-114741340D01*
X109506171Y-114729291D01*
X109517056Y-114717536D01*
X109528151Y-114706153D01*
X109539457Y-114695144D01*
X109550974Y-114684508D01*
X109562702Y-114674245D01*
X109574640Y-114664355D01*
X109586790Y-114654839D01*
X109599150Y-114645696D01*
X109611721Y-114636926D01*
X109624503Y-114628529D01*
X109637496Y-114620505D01*
X109650700Y-114612854D01*
X109664114Y-114605577D01*
X109677739Y-114598673D01*
X109691575Y-114592142D01*
X109705622Y-114585984D01*
X109719880Y-114580200D01*
X109734349Y-114574788D01*
X109749028Y-114569750D01*
X109763918Y-114565085D01*
X109779019Y-114560794D01*
X109794331Y-114556875D01*
X109809854Y-114553330D01*
X109825588Y-114550158D01*
X109841532Y-114547359D01*
X109857687Y-114544933D01*
X109874053Y-114542880D01*
X109890630Y-114541201D01*
X109907418Y-114539895D01*
X109924417Y-114538962D01*
X109941626Y-114538402D01*
X109959046Y-114538215D01*
X109976582Y-114538401D01*
G37*
G36*
X111390709Y-114559758D02*
G01*
X111405484Y-114560176D01*
X111420002Y-114560872D01*
X111434264Y-114561848D01*
X111448268Y-114563102D01*
X111462016Y-114564635D01*
X111475506Y-114566446D01*
X111488740Y-114568536D01*
X111501717Y-114570905D01*
X111514438Y-114573553D01*
X111526901Y-114576479D01*
X111539107Y-114579684D01*
X111551057Y-114583167D01*
X111568499Y-114588915D01*
X111585364Y-114595290D01*
X111601603Y-114602161D01*
X111617051Y-114609398D01*
X111631708Y-114616999D01*
X111645575Y-114624966D01*
X111658651Y-114633299D01*
X111670936Y-114641996D01*
X111682431Y-114651059D01*
X111693135Y-114660488D01*
X111703049Y-114670281D01*
X111712172Y-114680440D01*
X111717815Y-114687416D01*
X111725802Y-114697921D01*
X111733365Y-114708383D01*
X111740502Y-114718801D01*
X111749357Y-114732624D01*
X111757456Y-114746369D01*
X111764799Y-114760036D01*
X111771386Y-114773627D01*
X111777216Y-114787139D01*
X111781093Y-114797223D01*
X111785746Y-114810609D01*
X111789778Y-114823938D01*
X111793190Y-114837208D01*
X111795982Y-114850420D01*
X111798153Y-114863574D01*
X111799704Y-114876670D01*
X111800635Y-114889707D01*
X111800945Y-114902687D01*
X111800582Y-114918252D01*
X111799495Y-114933424D01*
X111797682Y-114948204D01*
X111795144Y-114962592D01*
X111791880Y-114976587D01*
X111787892Y-114990189D01*
X111783178Y-115003399D01*
X111777739Y-115016216D01*
X111771575Y-115028640D01*
X111764686Y-115040672D01*
X111759690Y-115048475D01*
X111751525Y-115059986D01*
X111742384Y-115071485D01*
X111732266Y-115082973D01*
X111721173Y-115094451D01*
X111709104Y-115105918D01*
X111696059Y-115117373D01*
X111682038Y-115128818D01*
X111672148Y-115136442D01*
X111661825Y-115144061D01*
X111651067Y-115151675D01*
X111639876Y-115159285D01*
X111628252Y-115166889D01*
X111622276Y-115170690D01*
X111635578Y-115178680D01*
X111648457Y-115186791D01*
X111660914Y-115195025D01*
X111672949Y-115203380D01*
X111684561Y-115211858D01*
X111695751Y-115220457D01*
X111706519Y-115229177D01*
X111716865Y-115238020D01*
X111726788Y-115246984D01*
X111736289Y-115256070D01*
X111745368Y-115265278D01*
X111754024Y-115274607D01*
X111762258Y-115284059D01*
X111777460Y-115303327D01*
X111790973Y-115323082D01*
X111802796Y-115343324D01*
X111812931Y-115364054D01*
X111821376Y-115385270D01*
X111828132Y-115406973D01*
X111833199Y-115429164D01*
X111836578Y-115451842D01*
X111838267Y-115475006D01*
X111838478Y-115486772D01*
X111838139Y-115502843D01*
X111837121Y-115518798D01*
X111835424Y-115534637D01*
X111833050Y-115550360D01*
X111829996Y-115565966D01*
X111826264Y-115581457D01*
X111821854Y-115596830D01*
X111816765Y-115612088D01*
X111811007Y-115627190D01*
X111804435Y-115642253D01*
X111798971Y-115653526D01*
X111793050Y-115664776D01*
X111786670Y-115676005D01*
X111779833Y-115687211D01*
X111772537Y-115698396D01*
X111764784Y-115709559D01*
X111756572Y-115720701D01*
X111747903Y-115731820D01*
X111738645Y-115742666D01*
X111728554Y-115753103D01*
X111717628Y-115763132D01*
X111705867Y-115772751D01*
X111693273Y-115781961D01*
X111679844Y-115790762D01*
X111665581Y-115799155D01*
X111650484Y-115807138D01*
X111634553Y-115814712D01*
X111617787Y-115821878D01*
X111606147Y-115826428D01*
X111594180Y-115830747D01*
X111581933Y-115834788D01*
X111569404Y-115838551D01*
X111556594Y-115842034D01*
X111543503Y-115845239D01*
X111530131Y-115848165D01*
X111516478Y-115850813D01*
X111502544Y-115853182D01*
X111488328Y-115855272D01*
X111473832Y-115857083D01*
X111459054Y-115858616D01*
X111443996Y-115859870D01*
X111428656Y-115860845D01*
X111413035Y-115861542D01*
X111397133Y-115861960D01*
X111380950Y-115862100D01*
X110795004Y-115862100D01*
X110795004Y-115300969D01*
X111063007Y-115300969D01*
X111063007Y-115638764D01*
X111382811Y-115638764D01*
X111406813Y-115638108D01*
X111429267Y-115636142D01*
X111450172Y-115632864D01*
X111469528Y-115628276D01*
X111487336Y-115622376D01*
X111503595Y-115615165D01*
X111518306Y-115606644D01*
X111531469Y-115596811D01*
X111543083Y-115585667D01*
X111553148Y-115573212D01*
X111561665Y-115559446D01*
X111568633Y-115544370D01*
X111574053Y-115527982D01*
X111577924Y-115510283D01*
X111580247Y-115491273D01*
X111581021Y-115470952D01*
X111580247Y-115450368D01*
X111577924Y-115431112D01*
X111574053Y-115413184D01*
X111568633Y-115396584D01*
X111561665Y-115381312D01*
X111553148Y-115367368D01*
X111543083Y-115354752D01*
X111531469Y-115343464D01*
X111518306Y-115333505D01*
X111503595Y-115324873D01*
X111487336Y-115317569D01*
X111469528Y-115311593D01*
X111450172Y-115306945D01*
X111429267Y-115303625D01*
X111406813Y-115301633D01*
X111382811Y-115300969D01*
X111063007Y-115300969D01*
X110795004Y-115300969D01*
X110795004Y-114782954D01*
X111063007Y-114782954D01*
X111063007Y-115077633D01*
X111354274Y-115077633D01*
X111377186Y-115077061D01*
X111398621Y-115075345D01*
X111418577Y-115072486D01*
X111437055Y-115068482D01*
X111454055Y-115063335D01*
X111469577Y-115057044D01*
X111483620Y-115049609D01*
X111496185Y-115041031D01*
X111507272Y-115031308D01*
X111516880Y-115020442D01*
X111525011Y-115008432D01*
X111531663Y-114995278D01*
X111536837Y-114980980D01*
X111540532Y-114965539D01*
X111542750Y-114948953D01*
X111543489Y-114931224D01*
X111542750Y-114913269D01*
X111540532Y-114896473D01*
X111536837Y-114880835D01*
X111531663Y-114866356D01*
X111525011Y-114853035D01*
X111516880Y-114840872D01*
X111507272Y-114829868D01*
X111496185Y-114820022D01*
X111483620Y-114811334D01*
X111469577Y-114803804D01*
X111454055Y-114797433D01*
X111437055Y-114792221D01*
X111418577Y-114788167D01*
X111398621Y-114785271D01*
X111377186Y-114783533D01*
X111354274Y-114782954D01*
X111063007Y-114782954D01*
X110795004Y-114782954D01*
X110795004Y-114559618D01*
X111375677Y-114559618D01*
X111390709Y-114559758D01*
G37*
G36*
X112616906Y-114538401D02*
G01*
X112634229Y-114538959D01*
X112651339Y-114539889D01*
X112668237Y-114541191D01*
X112684922Y-114542865D01*
X112701394Y-114544911D01*
X112717654Y-114547329D01*
X112733701Y-114550119D01*
X112749535Y-114553281D01*
X112765157Y-114556815D01*
X112780566Y-114560720D01*
X112795763Y-114564998D01*
X112810747Y-114569648D01*
X112825518Y-114574670D01*
X112840077Y-114580064D01*
X112854422Y-114585829D01*
X112868556Y-114591967D01*
X112882476Y-114598477D01*
X112896184Y-114605358D01*
X112909680Y-114612612D01*
X112922962Y-114620238D01*
X112936032Y-114628235D01*
X112948890Y-114636605D01*
X112961534Y-114645347D01*
X112973966Y-114654460D01*
X112986186Y-114663946D01*
X112998193Y-114673803D01*
X113009987Y-114684033D01*
X113021568Y-114694635D01*
X113032937Y-114705608D01*
X113044093Y-114716954D01*
X113055037Y-114728671D01*
X113065705Y-114740673D01*
X113076034Y-114752911D01*
X113086024Y-114765384D01*
X113095676Y-114778093D01*
X113104990Y-114791037D01*
X113113964Y-114804218D01*
X113122600Y-114817634D01*
X113130897Y-114831285D01*
X113138856Y-114845173D01*
X113146476Y-114859295D01*
X113153757Y-114873654D01*
X113160700Y-114888248D01*
X113167303Y-114903078D01*
X113173569Y-114918144D01*
X113179495Y-114933445D01*
X113185083Y-114948982D01*
X113190333Y-114964755D01*
X113195243Y-114980763D01*
X113199815Y-114997007D01*
X113204048Y-115013487D01*
X113207943Y-115030202D01*
X113211499Y-115047153D01*
X113214716Y-115064340D01*
X113217595Y-115081762D01*
X113220135Y-115099420D01*
X113222336Y-115117314D01*
X113224199Y-115135443D01*
X113225723Y-115153808D01*
X113226908Y-115172409D01*
X113227755Y-115191246D01*
X113228263Y-115210318D01*
X113228432Y-115229625D01*
X113228265Y-115247618D01*
X113227766Y-115265421D01*
X113226933Y-115283033D01*
X113225766Y-115300455D01*
X113224267Y-115317687D01*
X113222434Y-115334728D01*
X113220268Y-115351580D01*
X113217769Y-115368241D01*
X113214937Y-115384712D01*
X113211772Y-115400992D01*
X113208273Y-115417083D01*
X113204441Y-115432983D01*
X113200276Y-115448693D01*
X113195777Y-115464213D01*
X113190946Y-115479542D01*
X113185781Y-115494681D01*
X113180283Y-115509630D01*
X113174452Y-115524389D01*
X113168288Y-115538958D01*
X113161790Y-115553336D01*
X113154959Y-115567524D01*
X113147795Y-115581522D01*
X113140298Y-115595330D01*
X113132468Y-115608947D01*
X113124304Y-115622374D01*
X113115807Y-115635611D01*
X113106977Y-115648658D01*
X113097814Y-115661514D01*
X113088317Y-115674180D01*
X113078488Y-115686656D01*
X113068325Y-115698942D01*
X113057828Y-115711038D01*
X113047053Y-115722851D01*
X113036052Y-115734289D01*
X113024826Y-115745351D01*
X113013375Y-115756039D01*
X113001698Y-115766352D01*
X112989795Y-115776290D01*
X112977668Y-115785853D01*
X112965315Y-115795041D01*
X112952736Y-115803853D01*
X112939933Y-115812291D01*
X112926904Y-115820354D01*
X112913649Y-115828042D01*
X112900169Y-115835355D01*
X112886464Y-115842292D01*
X112872533Y-115848855D01*
X112858377Y-115855043D01*
X112843996Y-115860855D01*
X112829389Y-115866293D01*
X112814557Y-115871356D01*
X112799500Y-115876043D01*
X112784217Y-115880356D01*
X112768709Y-115884294D01*
X112752975Y-115887856D01*
X112737016Y-115891044D01*
X112720832Y-115893857D01*
X112704422Y-115896294D01*
X112687787Y-115898357D01*
X112670927Y-115900044D01*
X112653841Y-115901357D01*
X112636530Y-115902294D01*
X112618993Y-115902857D01*
X112601231Y-115903044D01*
X112583583Y-115902858D01*
X112566154Y-115902298D01*
X112548946Y-115901365D01*
X112531957Y-115900059D01*
X112515189Y-115898379D01*
X112498640Y-115896327D01*
X112482311Y-115893901D01*
X112466202Y-115891102D01*
X112450313Y-115887930D01*
X112434644Y-115884385D01*
X112419195Y-115880466D01*
X112403966Y-115876174D01*
X112388957Y-115871509D01*
X112374167Y-115866471D01*
X112359598Y-115861060D01*
X112345248Y-115855275D01*
X112331119Y-115849118D01*
X112317209Y-115842587D01*
X112303519Y-115835683D01*
X112290049Y-115828405D01*
X112276799Y-115820755D01*
X112263769Y-115812731D01*
X112250959Y-115804334D01*
X112238369Y-115795564D01*
X112225999Y-115786421D01*
X112213848Y-115776904D01*
X112201918Y-115767015D01*
X112190207Y-115756752D01*
X112178717Y-115746116D01*
X112167446Y-115735106D01*
X112156395Y-115723724D01*
X112145564Y-115711968D01*
X112135011Y-115699919D01*
X112124793Y-115687657D01*
X112114909Y-115675182D01*
X112105361Y-115662493D01*
X112096148Y-115649591D01*
X112087270Y-115636476D01*
X112078726Y-115623148D01*
X112070518Y-115609606D01*
X112062645Y-115595851D01*
X112055107Y-115581883D01*
X112047904Y-115567702D01*
X112041036Y-115553307D01*
X112034503Y-115538699D01*
X112028305Y-115523878D01*
X112022442Y-115508843D01*
X112016914Y-115493596D01*
X112011721Y-115478135D01*
X112006863Y-115462460D01*
X112002340Y-115446573D01*
X111998152Y-115430472D01*
X111994299Y-115414158D01*
X111990782Y-115397631D01*
X111987599Y-115380891D01*
X111984751Y-115363937D01*
X111982238Y-115346770D01*
X111980061Y-115329390D01*
X111978218Y-115311796D01*
X111976710Y-115293989D01*
X111975538Y-115275969D01*
X111974700Y-115257736D01*
X111974198Y-115239290D01*
X111974033Y-115220940D01*
X112242033Y-115220940D01*
X112242129Y-115233695D01*
X112242417Y-115246291D01*
X112242897Y-115258728D01*
X112244434Y-115283126D01*
X112246738Y-115306889D01*
X112249811Y-115330018D01*
X112253652Y-115352511D01*
X112258261Y-115374370D01*
X112263639Y-115395594D01*
X112269784Y-115416182D01*
X112276698Y-115436136D01*
X112284380Y-115455455D01*
X112292830Y-115474139D01*
X112302049Y-115492188D01*
X112312035Y-115509602D01*
X112322790Y-115526382D01*
X112334313Y-115542526D01*
X112340363Y-115550360D01*
X112352905Y-115565385D01*
X112365948Y-115579440D01*
X112379494Y-115592526D01*
X112393541Y-115604643D01*
X112408089Y-115615791D01*
X112423139Y-115625969D01*
X112438691Y-115635177D01*
X112454745Y-115643417D01*
X112471300Y-115650687D01*
X112488356Y-115656987D01*
X112505915Y-115662319D01*
X112523975Y-115666681D01*
X112542536Y-115670073D01*
X112561600Y-115672497D01*
X112581165Y-115673951D01*
X112601231Y-115674436D01*
X112621112Y-115673954D01*
X112640509Y-115672511D01*
X112659421Y-115670106D01*
X112677848Y-115666739D01*
X112695790Y-115662410D01*
X112713248Y-115657118D01*
X112730221Y-115650865D01*
X112746709Y-115643649D01*
X112762713Y-115635472D01*
X112778232Y-115626332D01*
X112793267Y-115616230D01*
X112807817Y-115605167D01*
X112821882Y-115593141D01*
X112835462Y-115580153D01*
X112848558Y-115566203D01*
X112861169Y-115551291D01*
X112873189Y-115535560D01*
X112884433Y-115519230D01*
X112894902Y-115502302D01*
X112904595Y-115484775D01*
X112913513Y-115466649D01*
X112921656Y-115447925D01*
X112929023Y-115428603D01*
X112935614Y-115408682D01*
X112941430Y-115388162D01*
X112946471Y-115367044D01*
X112950736Y-115345327D01*
X112954226Y-115323011D01*
X112956940Y-115300097D01*
X112958878Y-115276585D01*
X112960042Y-115252474D01*
X112960429Y-115227764D01*
X112960334Y-115214684D01*
X112960049Y-115201771D01*
X112959573Y-115189026D01*
X112958907Y-115176447D01*
X112958051Y-115164036D01*
X112955769Y-115139716D01*
X112952725Y-115116064D01*
X112948920Y-115093081D01*
X112944355Y-115070766D01*
X112939028Y-115049121D01*
X112932941Y-115028145D01*
X112926092Y-115007837D01*
X112918483Y-114988198D01*
X112910113Y-114969228D01*
X112900982Y-114950927D01*
X112891089Y-114933295D01*
X112880436Y-114916331D01*
X112869022Y-114900037D01*
X112863030Y-114892140D01*
X112850594Y-114876965D01*
X112837633Y-114862769D01*
X112824150Y-114849552D01*
X112810143Y-114837315D01*
X112795613Y-114826056D01*
X112780559Y-114815776D01*
X112764982Y-114806475D01*
X112748881Y-114798153D01*
X112732257Y-114790810D01*
X112715109Y-114784447D01*
X112697438Y-114779062D01*
X112679244Y-114774656D01*
X112660526Y-114771230D01*
X112641284Y-114768782D01*
X112621519Y-114767314D01*
X112601231Y-114766824D01*
X112581165Y-114767310D01*
X112561600Y-114768768D01*
X112542536Y-114771197D01*
X112523975Y-114774598D01*
X112505915Y-114778971D01*
X112488356Y-114784316D01*
X112471300Y-114790632D01*
X112454745Y-114797921D01*
X112438691Y-114806181D01*
X112423139Y-114815412D01*
X112408089Y-114825616D01*
X112393541Y-114836791D01*
X112379494Y-114848938D01*
X112365948Y-114862057D01*
X112352905Y-114876147D01*
X112340363Y-114891210D01*
X112328456Y-114907038D01*
X112317317Y-114923503D01*
X112306946Y-114940606D01*
X112297343Y-114958346D01*
X112288509Y-114976724D01*
X112280443Y-114995738D01*
X112273145Y-115015391D01*
X112266615Y-115035680D01*
X112260854Y-115056607D01*
X112255861Y-115078171D01*
X112251635Y-115100372D01*
X112248179Y-115123211D01*
X112245490Y-115146687D01*
X112243569Y-115170801D01*
X112242417Y-115195552D01*
X112242129Y-115208166D01*
X112242033Y-115220940D01*
X111974033Y-115220940D01*
X111974030Y-115220630D01*
X111974199Y-115201970D01*
X111974704Y-115183524D01*
X111975546Y-115165290D01*
X111976725Y-115147270D01*
X111978241Y-115129464D01*
X111980093Y-115111870D01*
X111982283Y-115094490D01*
X111984809Y-115077323D01*
X111987672Y-115060369D01*
X111990872Y-115043629D01*
X111994409Y-115027101D01*
X111998283Y-115010787D01*
X112002494Y-114994687D01*
X112007041Y-114978799D01*
X112011925Y-114963125D01*
X112017146Y-114947664D01*
X112022704Y-114932416D01*
X112028599Y-114917382D01*
X112034831Y-114902561D01*
X112041399Y-114887953D01*
X112048305Y-114873558D01*
X112055547Y-114859377D01*
X112063126Y-114845408D01*
X112071042Y-114831654D01*
X112079294Y-114818112D01*
X112087884Y-114804784D01*
X112096810Y-114791668D01*
X112106073Y-114778766D01*
X112115674Y-114766078D01*
X112125610Y-114753602D01*
X112135884Y-114741340D01*
X112146495Y-114729291D01*
X112157379Y-114717536D01*
X112168475Y-114706153D01*
X112179781Y-114695144D01*
X112191298Y-114684508D01*
X112203026Y-114674245D01*
X112214964Y-114664355D01*
X112227114Y-114654839D01*
X112239474Y-114645696D01*
X112252045Y-114636926D01*
X112264827Y-114628529D01*
X112277820Y-114620505D01*
X112291023Y-114612854D01*
X112304438Y-114605577D01*
X112318063Y-114598673D01*
X112331899Y-114592142D01*
X112345946Y-114585984D01*
X112360204Y-114580200D01*
X112374672Y-114574788D01*
X112389352Y-114569750D01*
X112404242Y-114565085D01*
X112419343Y-114560794D01*
X112434655Y-114556875D01*
X112450178Y-114553330D01*
X112465911Y-114550158D01*
X112481856Y-114547359D01*
X112498011Y-114544933D01*
X112514377Y-114542880D01*
X112530954Y-114541201D01*
X112547742Y-114539895D01*
X112564740Y-114538962D01*
X112581950Y-114538402D01*
X112599370Y-114538215D01*
X112616906Y-114538401D01*
G37*
G36*
X114008866Y-114782954D02*
G01*
X114008866Y-115862100D01*
X113740863Y-115862100D01*
X113740863Y-114782954D01*
X113345994Y-114782954D01*
X113345994Y-114559618D01*
X114389467Y-114559618D01*
X114389467Y-114782954D01*
X114008866Y-114782954D01*
G37*
G36*
X114847305Y-114559618D02*
G01*
X114847305Y-115862100D01*
X114579303Y-115862100D01*
X114579303Y-114559618D01*
X114847305Y-114559618D01*
G37*
G36*
X115943201Y-115001016D02*
G01*
X115939886Y-114986608D01*
X115936223Y-114972657D01*
X115932212Y-114959164D01*
X115927852Y-114946128D01*
X115923143Y-114933549D01*
X115918087Y-114921428D01*
X115912682Y-114909764D01*
X115906928Y-114898557D01*
X115894377Y-114877517D01*
X115880432Y-114858306D01*
X115865093Y-114840924D01*
X115848361Y-114825372D01*
X115830236Y-114811650D01*
X115810717Y-114799757D01*
X115789804Y-114789695D01*
X115767499Y-114781461D01*
X115743800Y-114775058D01*
X115731428Y-114772542D01*
X115718707Y-114770483D01*
X115705638Y-114768883D01*
X115692221Y-114767739D01*
X115678456Y-114767053D01*
X115664342Y-114766824D01*
X115644724Y-114767299D01*
X115625651Y-114768724D01*
X115607123Y-114771099D01*
X115589140Y-114774424D01*
X115571703Y-114778699D01*
X115554811Y-114783923D01*
X115538465Y-114790098D01*
X115522663Y-114797223D01*
X115507407Y-114805297D01*
X115492696Y-114814322D01*
X115478530Y-114824296D01*
X115464910Y-114835221D01*
X115451835Y-114847095D01*
X115439305Y-114859920D01*
X115427320Y-114873694D01*
X115415881Y-114888418D01*
X115405063Y-114903949D01*
X115394943Y-114920222D01*
X115385521Y-114937236D01*
X115376797Y-114954992D01*
X115368771Y-114973490D01*
X115361443Y-114992729D01*
X115354812Y-115012709D01*
X115348880Y-115033431D01*
X115343646Y-115054895D01*
X115339109Y-115077100D01*
X115335271Y-115100047D01*
X115332130Y-115123735D01*
X115329687Y-115148165D01*
X115328728Y-115160657D01*
X115327942Y-115173336D01*
X115327332Y-115186200D01*
X115326896Y-115199249D01*
X115326634Y-115212483D01*
X115326547Y-115225903D01*
X115326631Y-115239112D01*
X115326885Y-115252138D01*
X115327307Y-115264983D01*
X115327899Y-115277646D01*
X115328659Y-115290128D01*
X115330688Y-115314545D01*
X115333392Y-115338236D01*
X115336773Y-115361200D01*
X115340829Y-115383436D01*
X115345562Y-115404946D01*
X115350971Y-115425729D01*
X115357056Y-115445784D01*
X115363817Y-115465113D01*
X115371255Y-115483714D01*
X115379368Y-115501589D01*
X115388157Y-115518737D01*
X115397623Y-115535157D01*
X115407765Y-115550851D01*
X115413089Y-115558425D01*
X115424213Y-115572924D01*
X115435873Y-115586487D01*
X115448069Y-115599115D01*
X115460800Y-115610808D01*
X115474067Y-115621565D01*
X115487869Y-115631387D01*
X115502206Y-115640274D01*
X115517080Y-115648225D01*
X115532489Y-115655240D01*
X115548433Y-115661320D01*
X115564913Y-115666465D01*
X115581929Y-115670674D01*
X115599480Y-115673948D01*
X115617566Y-115676287D01*
X115636188Y-115677690D01*
X115655346Y-115678158D01*
X115670777Y-115677892D01*
X115685817Y-115677096D01*
X115700468Y-115675770D01*
X115714728Y-115673912D01*
X115728598Y-115671524D01*
X115742078Y-115668605D01*
X115755168Y-115665155D01*
X115767867Y-115661175D01*
X115780177Y-115656664D01*
X115792096Y-115651622D01*
X115803625Y-115646050D01*
X115814764Y-115639946D01*
X115825512Y-115633313D01*
X115835871Y-115626148D01*
X115845840Y-115618453D01*
X115855418Y-115610227D01*
X115864557Y-115601512D01*
X115873210Y-115592352D01*
X115881375Y-115582746D01*
X115889054Y-115572694D01*
X115896245Y-115562196D01*
X115902949Y-115551252D01*
X115909166Y-115539862D01*
X115914896Y-115528027D01*
X115920139Y-115515745D01*
X115924895Y-115503018D01*
X115929164Y-115489844D01*
X115932946Y-115476225D01*
X115936240Y-115462160D01*
X115939047Y-115447649D01*
X115941368Y-115432692D01*
X115943201Y-115417289D01*
X116204070Y-115417289D01*
X116203141Y-115431158D01*
X116201943Y-115444846D01*
X116200477Y-115458355D01*
X116198743Y-115471684D01*
X116196740Y-115484833D01*
X116194469Y-115497801D01*
X116191930Y-115510590D01*
X116189122Y-115523199D01*
X116186046Y-115535628D01*
X116182702Y-115547877D01*
X116179089Y-115559947D01*
X116175208Y-115571836D01*
X116171058Y-115583545D01*
X116161953Y-115606424D01*
X116151775Y-115628583D01*
X116140524Y-115650022D01*
X116128199Y-115670742D01*
X116114800Y-115690742D01*
X116100328Y-115710022D01*
X116084782Y-115728582D01*
X116068163Y-115746423D01*
X116050470Y-115763544D01*
X116041221Y-115771835D01*
X116031766Y-115779907D01*
X116022128Y-115787723D01*
X116002307Y-115802587D01*
X115981755Y-115816425D01*
X115971206Y-115822960D01*
X115960475Y-115829239D01*
X115949561Y-115835261D01*
X115938465Y-115841027D01*
X115927186Y-115846537D01*
X115915725Y-115851791D01*
X115904082Y-115856788D01*
X115892256Y-115861529D01*
X115880248Y-115866014D01*
X115868058Y-115870242D01*
X115855685Y-115874214D01*
X115843130Y-115877930D01*
X115830393Y-115881390D01*
X115817473Y-115884593D01*
X115804371Y-115887540D01*
X115791086Y-115890231D01*
X115777620Y-115892665D01*
X115763970Y-115894844D01*
X115750139Y-115896766D01*
X115736125Y-115898432D01*
X115721929Y-115899841D01*
X115707550Y-115900994D01*
X115692989Y-115901891D01*
X115678246Y-115902532D01*
X115663320Y-115902916D01*
X115648212Y-115903044D01*
X115631358Y-115902866D01*
X115614724Y-115902329D01*
X115598309Y-115901436D01*
X115582113Y-115900185D01*
X115566136Y-115898576D01*
X115550379Y-115896610D01*
X115534841Y-115894287D01*
X115519523Y-115891606D01*
X115504423Y-115888568D01*
X115489543Y-115885172D01*
X115474883Y-115881419D01*
X115460441Y-115877308D01*
X115446219Y-115872840D01*
X115432217Y-115868015D01*
X115418433Y-115862832D01*
X115404869Y-115857292D01*
X115391524Y-115851394D01*
X115378399Y-115845138D01*
X115365493Y-115838526D01*
X115352806Y-115831556D01*
X115340338Y-115824228D01*
X115328090Y-115816543D01*
X115316061Y-115808501D01*
X115304252Y-115800101D01*
X115292661Y-115791343D01*
X115281291Y-115782228D01*
X115270139Y-115772756D01*
X115259207Y-115762926D01*
X115248494Y-115752739D01*
X115238000Y-115742195D01*
X115227725Y-115731293D01*
X115217670Y-115720033D01*
X115207880Y-115708467D01*
X115198401Y-115696643D01*
X115189233Y-115684563D01*
X115180375Y-115672225D01*
X115171828Y-115659631D01*
X115163592Y-115646780D01*
X115155667Y-115633672D01*
X115148052Y-115620308D01*
X115140749Y-115606686D01*
X115133756Y-115592807D01*
X115127074Y-115578672D01*
X115120703Y-115564280D01*
X115114642Y-115549631D01*
X115108892Y-115534725D01*
X115103454Y-115519562D01*
X115098325Y-115504142D01*
X115093508Y-115488465D01*
X115089002Y-115472532D01*
X115084806Y-115456342D01*
X115080921Y-115439894D01*
X115077347Y-115423190D01*
X115074083Y-115406229D01*
X115071131Y-115389011D01*
X115068489Y-115371537D01*
X115066158Y-115353805D01*
X115064138Y-115335816D01*
X115062429Y-115317571D01*
X115061030Y-115299069D01*
X115059942Y-115280310D01*
X115059165Y-115261294D01*
X115058699Y-115242021D01*
X115058544Y-115222491D01*
X115058701Y-115202846D01*
X115059171Y-115183459D01*
X115059956Y-115164332D01*
X115061054Y-115145462D01*
X115062467Y-115126852D01*
X115064193Y-115108500D01*
X115066232Y-115090407D01*
X115068586Y-115072573D01*
X115071254Y-115054997D01*
X115074235Y-115037680D01*
X115077530Y-115020622D01*
X115081139Y-115003823D01*
X115085062Y-114987282D01*
X115089298Y-114971000D01*
X115093849Y-114954976D01*
X115098713Y-114939211D01*
X115103891Y-114923705D01*
X115109383Y-114908458D01*
X115115189Y-114893469D01*
X115121308Y-114878739D01*
X115127742Y-114864268D01*
X115134489Y-114850055D01*
X115141550Y-114836101D01*
X115148925Y-114822406D01*
X115156614Y-114808970D01*
X115164616Y-114795792D01*
X115172932Y-114782873D01*
X115181563Y-114770212D01*
X115190507Y-114757810D01*
X115199764Y-114745667D01*
X115209336Y-114733783D01*
X115219221Y-114722157D01*
X115229395Y-114710840D01*
X115239791Y-114699883D01*
X115250410Y-114689285D01*
X115261252Y-114679046D01*
X115272317Y-114669166D01*
X115283605Y-114659646D01*
X115295116Y-114650484D01*
X115306850Y-114641683D01*
X115318806Y-114633240D01*
X115330986Y-114625157D01*
X115343389Y-114617432D01*
X115356014Y-114610068D01*
X115368863Y-114603062D01*
X115381935Y-114596416D01*
X115395229Y-114590129D01*
X115408746Y-114584201D01*
X115422487Y-114578632D01*
X115436450Y-114573423D01*
X115450636Y-114568573D01*
X115465046Y-114564082D01*
X115479678Y-114559951D01*
X115494533Y-114556178D01*
X115509611Y-114552765D01*
X115524912Y-114549712D01*
X115540436Y-114547017D01*
X115556183Y-114544682D01*
X115572153Y-114542706D01*
X115588346Y-114541089D01*
X115604761Y-114539832D01*
X115621400Y-114538934D01*
X115638262Y-114538395D01*
X115655346Y-114538215D01*
X115669669Y-114538336D01*
X115683830Y-114538698D01*
X115697829Y-114539300D01*
X115711665Y-114540144D01*
X115725339Y-114541229D01*
X115738850Y-114542556D01*
X115752199Y-114544123D01*
X115765386Y-114545931D01*
X115778410Y-114547981D01*
X115791272Y-114550271D01*
X115803971Y-114552803D01*
X115816509Y-114555576D01*
X115828883Y-114558590D01*
X115841096Y-114561845D01*
X115853146Y-114565342D01*
X115865034Y-114569079D01*
X115888322Y-114577277D01*
X115910961Y-114586440D01*
X115932950Y-114596567D01*
X115954290Y-114607659D01*
X115974981Y-114619715D01*
X115995022Y-114632736D01*
X116014414Y-114646721D01*
X116033156Y-114661670D01*
X116051104Y-114677427D01*
X116068037Y-114693911D01*
X116083955Y-114711121D01*
X116098858Y-114729059D01*
X116112745Y-114747723D01*
X116125616Y-114767115D01*
X116137472Y-114787234D01*
X116148313Y-114808079D01*
X116158139Y-114829652D01*
X116166949Y-114851952D01*
X116174743Y-114874978D01*
X116181523Y-114898732D01*
X116184532Y-114910881D01*
X116187287Y-114923212D01*
X116189788Y-114935725D01*
X116192035Y-114948420D01*
X116194029Y-114961297D01*
X116195768Y-114974355D01*
X116197254Y-114987595D01*
X116198486Y-115001016D01*
X115943201Y-115001016D01*
G37*
G36*
X117367586Y-114956349D02*
G01*
X117117574Y-114956349D01*
X117116444Y-114943811D01*
X117112748Y-114919929D01*
X117107140Y-114897639D01*
X117099621Y-114876941D01*
X117090189Y-114857836D01*
X117078845Y-114840322D01*
X117065590Y-114824401D01*
X117050422Y-114810072D01*
X117033342Y-114797334D01*
X117014350Y-114786189D01*
X116993447Y-114776637D01*
X116970631Y-114768676D01*
X116958506Y-114765293D01*
X116945903Y-114762307D01*
X116932822Y-114759720D01*
X116919263Y-114757531D01*
X116905226Y-114755740D01*
X116890711Y-114754347D01*
X116875718Y-114753352D01*
X116860247Y-114752755D01*
X116844298Y-114752556D01*
X116831515Y-114752726D01*
X116819067Y-114753239D01*
X116801021Y-114754648D01*
X116783727Y-114756827D01*
X116767186Y-114759774D01*
X116751397Y-114763490D01*
X116736361Y-114767974D01*
X116722077Y-114773228D01*
X116708546Y-114779250D01*
X116695767Y-114786041D01*
X116683740Y-114793601D01*
X116679899Y-114796292D01*
X116669034Y-114804752D01*
X116659237Y-114813729D01*
X116650509Y-114823225D01*
X116642850Y-114833238D01*
X116636260Y-114843770D01*
X116629136Y-114858618D01*
X116625039Y-114870358D01*
X116622011Y-114882616D01*
X116620052Y-114895392D01*
X116619161Y-114908687D01*
X116619102Y-114913233D01*
X116619557Y-114926344D01*
X116620923Y-114938806D01*
X116624160Y-114954412D01*
X116629017Y-114968865D01*
X116635492Y-114982164D01*
X116643586Y-114994310D01*
X116653299Y-115005302D01*
X116664630Y-115015141D01*
X116670903Y-115019628D01*
X116685278Y-115028221D01*
X116697930Y-115034545D01*
X116712185Y-115040765D01*
X116728043Y-115046882D01*
X116745503Y-115052895D01*
X116758035Y-115056847D01*
X116771278Y-115060752D01*
X116785234Y-115064611D01*
X116799903Y-115068424D01*
X116815284Y-115072191D01*
X116831377Y-115075912D01*
X116848183Y-115079587D01*
X116865701Y-115083216D01*
X117069185Y-115122300D01*
X117091367Y-115126989D01*
X117112781Y-115132061D01*
X117133427Y-115137516D01*
X117153304Y-115143354D01*
X117172414Y-115149575D01*
X117190755Y-115156179D01*
X117208328Y-115163165D01*
X117225132Y-115170534D01*
X117241169Y-115178287D01*
X117256437Y-115186422D01*
X117270937Y-115194940D01*
X117284669Y-115203841D01*
X117297633Y-115213125D01*
X117309828Y-115222791D01*
X117321256Y-115232841D01*
X117331915Y-115243274D01*
X117341869Y-115254128D01*
X117351180Y-115265520D01*
X117359850Y-115277450D01*
X117367877Y-115289918D01*
X117375262Y-115302924D01*
X117382005Y-115316468D01*
X117388106Y-115330550D01*
X117393565Y-115345171D01*
X117398381Y-115360329D01*
X117402555Y-115376025D01*
X117406087Y-115392259D01*
X117408977Y-115409031D01*
X117411225Y-115426341D01*
X117412830Y-115444188D01*
X117413793Y-115462574D01*
X117414115Y-115481498D01*
X117413563Y-115505937D01*
X117411909Y-115529699D01*
X117409153Y-115552785D01*
X117405294Y-115575195D01*
X117400332Y-115596928D01*
X117394267Y-115617986D01*
X117387100Y-115638368D01*
X117378831Y-115658073D01*
X117369458Y-115677102D01*
X117358983Y-115695456D01*
X117347406Y-115713133D01*
X117334726Y-115730134D01*
X117320943Y-115746459D01*
X117306058Y-115762107D01*
X117290070Y-115777080D01*
X117272979Y-115791377D01*
X117254904Y-115804899D01*
X117235965Y-115817549D01*
X117216160Y-115829326D01*
X117195490Y-115840231D01*
X117173955Y-115850264D01*
X117151555Y-115859424D01*
X117128289Y-115867712D01*
X117116332Y-115871529D01*
X117104159Y-115875127D01*
X117091769Y-115878508D01*
X117079163Y-115881670D01*
X117066341Y-115884615D01*
X117053302Y-115887341D01*
X117040048Y-115889849D01*
X117026577Y-115892139D01*
X117012889Y-115894211D01*
X116998986Y-115896065D01*
X116984866Y-115897701D01*
X116970529Y-115899119D01*
X116955977Y-115900318D01*
X116941208Y-115901300D01*
X116926223Y-115902063D01*
X116911022Y-115902608D01*
X116895604Y-115902935D01*
X116879970Y-115903044D01*
X116864453Y-115902936D01*
X116849154Y-115902612D01*
X116834072Y-115902071D01*
X116819207Y-115901314D01*
X116804560Y-115900341D01*
X116790131Y-115899151D01*
X116775919Y-115897745D01*
X116761924Y-115896123D01*
X116748147Y-115894285D01*
X116734587Y-115892230D01*
X116721245Y-115889959D01*
X116708121Y-115887472D01*
X116695214Y-115884768D01*
X116682524Y-115881849D01*
X116670052Y-115878712D01*
X116657798Y-115875360D01*
X116645761Y-115871791D01*
X116633941Y-115868006D01*
X116610954Y-115859788D01*
X116588838Y-115850704D01*
X116567591Y-115840755D01*
X116547214Y-115829940D01*
X116527708Y-115818261D01*
X116509071Y-115805717D01*
X116491304Y-115792307D01*
X116474502Y-115778081D01*
X116458681Y-115763086D01*
X116443842Y-115747324D01*
X116429984Y-115730793D01*
X116417107Y-115713494D01*
X116405212Y-115695427D01*
X116394299Y-115676591D01*
X116384367Y-115656987D01*
X116375416Y-115636616D01*
X116367447Y-115615475D01*
X116360459Y-115593567D01*
X116354453Y-115570891D01*
X116349428Y-115547446D01*
X116345385Y-115523233D01*
X116343731Y-115510839D01*
X116342323Y-115498252D01*
X116341160Y-115485474D01*
X116340242Y-115472503D01*
X116601111Y-115472503D01*
X116602268Y-115485491D01*
X116603956Y-115498089D01*
X116606174Y-115510296D01*
X116610497Y-115527876D01*
X116616014Y-115544578D01*
X116622725Y-115560402D01*
X116630631Y-115575348D01*
X116639730Y-115589417D01*
X116650024Y-115602608D01*
X116661511Y-115614920D01*
X116674193Y-115626355D01*
X116683311Y-115633491D01*
X116697920Y-115643358D01*
X116713598Y-115652255D01*
X116730344Y-115660181D01*
X116742102Y-115664926D01*
X116754335Y-115669239D01*
X116767043Y-115673121D01*
X116780226Y-115676572D01*
X116793884Y-115679592D01*
X116808017Y-115682180D01*
X116822625Y-115684337D01*
X116837708Y-115686062D01*
X116853266Y-115687356D01*
X116869299Y-115688219D01*
X116885807Y-115688650D01*
X116894239Y-115688704D01*
X116909238Y-115688524D01*
X116923838Y-115687982D01*
X116938037Y-115687079D01*
X116951837Y-115685816D01*
X116965237Y-115684191D01*
X116978237Y-115682205D01*
X116990837Y-115679858D01*
X117003037Y-115677150D01*
X117020588Y-115672410D01*
X117037239Y-115666859D01*
X117052991Y-115660495D01*
X117067843Y-115653318D01*
X117081795Y-115645330D01*
X117086245Y-115642486D01*
X117098884Y-115633449D01*
X117110280Y-115623784D01*
X117120433Y-115613492D01*
X117129342Y-115602574D01*
X117137008Y-115591028D01*
X117143432Y-115578855D01*
X117148611Y-115566055D01*
X117152548Y-115552628D01*
X117155242Y-115538574D01*
X117156692Y-115523894D01*
X117156968Y-115513758D01*
X117156480Y-115499301D01*
X117155016Y-115485477D01*
X117152576Y-115472286D01*
X117149160Y-115459727D01*
X117144768Y-115447800D01*
X117139400Y-115436506D01*
X117130725Y-115422432D01*
X117123079Y-115412613D01*
X117114458Y-115403428D01*
X117104861Y-115394875D01*
X117101445Y-115392164D01*
X117090400Y-115384293D01*
X117077970Y-115376733D01*
X117064155Y-115369484D01*
X117048955Y-115362546D01*
X117032370Y-115355918D01*
X117020544Y-115351673D01*
X117008103Y-115347565D01*
X116995046Y-115343596D01*
X116981373Y-115339764D01*
X116967085Y-115336071D01*
X116952182Y-115332516D01*
X116936663Y-115329099D01*
X116920528Y-115325820D01*
X116912230Y-115324233D01*
X116729839Y-115288561D01*
X116717562Y-115286174D01*
X116693678Y-115281147D01*
X116670685Y-115275787D01*
X116648584Y-115270092D01*
X116627375Y-115264063D01*
X116607058Y-115257699D01*
X116587632Y-115251001D01*
X116569098Y-115243969D01*
X116551456Y-115236602D01*
X116534706Y-115228900D01*
X116518848Y-115220864D01*
X116503881Y-115212494D01*
X116489806Y-115203789D01*
X116476623Y-115194750D01*
X116464332Y-115185377D01*
X116452933Y-115175669D01*
X116447567Y-115170690D01*
X116437388Y-115160367D01*
X116427866Y-115149485D01*
X116419000Y-115138043D01*
X116410791Y-115126042D01*
X116403238Y-115113480D01*
X116396343Y-115100359D01*
X116390104Y-115086678D01*
X116384522Y-115072437D01*
X116379596Y-115057637D01*
X116375328Y-115042276D01*
X116371716Y-115026356D01*
X116368760Y-115009876D01*
X116366462Y-114992836D01*
X116364820Y-114975237D01*
X116363835Y-114957078D01*
X116363506Y-114938358D01*
X116364012Y-114914812D01*
X116365527Y-114891942D01*
X116368054Y-114869747D01*
X116371591Y-114848229D01*
X116376138Y-114827387D01*
X116381696Y-114807221D01*
X116388265Y-114787732D01*
X116395844Y-114768918D01*
X116404433Y-114750780D01*
X116414033Y-114733319D01*
X116424644Y-114716534D01*
X116436265Y-114700424D01*
X116448897Y-114684991D01*
X116462539Y-114670234D01*
X116477192Y-114656154D01*
X116492855Y-114642749D01*
X116509471Y-114630090D01*
X116526903Y-114618249D01*
X116545152Y-114607224D01*
X116564218Y-114597015D01*
X116584100Y-114587624D01*
X116604799Y-114579049D01*
X116626315Y-114571290D01*
X116648647Y-114564349D01*
X116671796Y-114558224D01*
X116695762Y-114552915D01*
X116708051Y-114550567D01*
X116720544Y-114548424D01*
X116733242Y-114546484D01*
X116746143Y-114544749D01*
X116759249Y-114543217D01*
X116772559Y-114541890D01*
X116786073Y-114540767D01*
X116799791Y-114539849D01*
X116813714Y-114539134D01*
X116827840Y-114538624D01*
X116842171Y-114538317D01*
X116856706Y-114538215D01*
X116869402Y-114538294D01*
X116882017Y-114538532D01*
X116894549Y-114538927D01*
X116907000Y-114539480D01*
X116923474Y-114540464D01*
X116939803Y-114541729D01*
X116955986Y-114543275D01*
X116972023Y-114545102D01*
X116987916Y-114547211D01*
X117003934Y-114549683D01*
X117020195Y-114552755D01*
X117032549Y-114555454D01*
X117045040Y-114558491D01*
X117057667Y-114561867D01*
X117070431Y-114565580D01*
X117083330Y-114569631D01*
X117096367Y-114574020D01*
X117109539Y-114578748D01*
X117122848Y-114583813D01*
X117136108Y-114589131D01*
X117149020Y-114594733D01*
X117161582Y-114600618D01*
X117173796Y-114606786D01*
X117185661Y-114613239D01*
X117197177Y-114619974D01*
X117208343Y-114626993D01*
X117219161Y-114634296D01*
X117229630Y-114641882D01*
X117239750Y-114649752D01*
X117246303Y-114655156D01*
X117255865Y-114663657D01*
X117265128Y-114672757D01*
X117274091Y-114682457D01*
X117282755Y-114692757D01*
X117291118Y-114703657D01*
X117299181Y-114715156D01*
X117306945Y-114727255D01*
X117314408Y-114739954D01*
X117321572Y-114753253D01*
X117328436Y-114767151D01*
X117332845Y-114776750D01*
X117339054Y-114791506D01*
X117344652Y-114806692D01*
X117349639Y-114822309D01*
X117354016Y-114838357D01*
X117357781Y-114854835D01*
X117360937Y-114871744D01*
X117363481Y-114889084D01*
X117365415Y-114906855D01*
X117366738Y-114925056D01*
X117367451Y-114943689D01*
X117367586Y-114956349D01*
G37*
D11*
X99411973Y-109343623D02*
X99411973Y-110057908D01*
X99411973Y-110057908D02*
X99364354Y-110200765D01*
X99364354Y-110200765D02*
X99269116Y-110296004D01*
X99269116Y-110296004D02*
X99126259Y-110343623D01*
X99126259Y-110343623D02*
X99031021Y-110343623D01*
X100316735Y-109676956D02*
X100316735Y-110343623D01*
X100078640Y-109296004D02*
X99840545Y-110010289D01*
X99840545Y-110010289D02*
X100459592Y-110010289D01*
X112416773Y-109343623D02*
X112416773Y-110057908D01*
X112416773Y-110057908D02*
X112369154Y-110200765D01*
X112369154Y-110200765D02*
X112273916Y-110296004D01*
X112273916Y-110296004D02*
X112131059Y-110343623D01*
X112131059Y-110343623D02*
X112035821Y-110343623D01*
X112797726Y-109343623D02*
X113416773Y-109343623D01*
X113416773Y-109343623D02*
X113083440Y-109724575D01*
X113083440Y-109724575D02*
X113226297Y-109724575D01*
X113226297Y-109724575D02*
X113321535Y-109772194D01*
X113321535Y-109772194D02*
X113369154Y-109819813D01*
X113369154Y-109819813D02*
X113416773Y-109915051D01*
X113416773Y-109915051D02*
X113416773Y-110153146D01*
X113416773Y-110153146D02*
X113369154Y-110248384D01*
X113369154Y-110248384D02*
X113321535Y-110296004D01*
X113321535Y-110296004D02*
X113226297Y-110343623D01*
X113226297Y-110343623D02*
X112940583Y-110343623D01*
X112940583Y-110343623D02*
X112845345Y-110296004D01*
X112845345Y-110296004D02*
X112797726Y-110248384D01*
M02*
