%TF.GenerationSoftware,KiCad,Pcbnew,8.0.4-8.0.4-0~ubuntu22.04.1*%
%TF.CreationDate,2024-08-11T09:24:58-07:00*%
%TF.ProjectId,NX-ButtonInterface,4e582d42-7574-4746-9f6e-496e74657266,rev?*%
%TF.SameCoordinates,Original*%
%TF.FileFunction,Copper,L1,Top*%
%TF.FilePolarity,Positive*%
%FSLAX46Y46*%
G04 Gerber Fmt 4.6, Leading zero omitted, Abs format (unit mm)*
G04 Created by KiCad (PCBNEW 8.0.4-8.0.4-0~ubuntu22.04.1) date 2024-08-11 09:24:58*
%MOMM*%
%LPD*%
G01*
G04 APERTURE LIST*
G04 Aperture macros list*
%AMRoundRect*
0 Rectangle with rounded corners*
0 $1 Rounding radius*
0 $2 $3 $4 $5 $6 $7 $8 $9 X,Y pos of 4 corners*
0 Add a 4 corners polygon primitive as box body*
4,1,4,$2,$3,$4,$5,$6,$7,$8,$9,$2,$3,0*
0 Add four circle primitives for the rounded corners*
1,1,$1+$1,$2,$3*
1,1,$1+$1,$4,$5*
1,1,$1+$1,$6,$7*
1,1,$1+$1,$8,$9*
0 Add four rect primitives between the rounded corners*
20,1,$1+$1,$2,$3,$4,$5,0*
20,1,$1+$1,$4,$5,$6,$7,0*
20,1,$1+$1,$6,$7,$8,$9,0*
20,1,$1+$1,$8,$9,$2,$3,0*%
G04 Aperture macros list end*
%TA.AperFunction,ComponentPad*%
%ADD10R,1.700000X1.700000*%
%TD*%
%TA.AperFunction,ComponentPad*%
%ADD11O,1.700000X1.700000*%
%TD*%
%TA.AperFunction,SMDPad,CuDef*%
%ADD12RoundRect,0.571500X-5.778500X-0.571500X5.778500X-0.571500X5.778500X0.571500X-5.778500X0.571500X0*%
%TD*%
%TA.AperFunction,ViaPad*%
%ADD13C,1.143000*%
%TD*%
%TA.AperFunction,Conductor*%
%ADD14C,0.635000*%
%TD*%
G04 APERTURE END LIST*
D10*
%TO.P,J1,1,Pin_1*%
%TO.N,/CAN_TX*%
X129921000Y-92964000D03*
D11*
%TO.P,J1,2,Pin_2*%
%TO.N,/CAN_RX*%
X127381000Y-92964000D03*
%TO.P,J1,3,Pin_3*%
%TO.N,/GND*%
X124841000Y-92964000D03*
%TO.P,J1,4,Pin_4*%
%TO.N,/3V3*%
X122301000Y-92964000D03*
%TO.P,J1,5,Pin_5*%
%TO.N,unconnected-(J1-Pin_5-Pad5)*%
X119761000Y-92964000D03*
%TO.P,J1,6,Pin_6*%
%TO.N,unconnected-(J1-Pin_6-Pad6)*%
X117221000Y-92964000D03*
%TO.P,J1,7,Pin_7*%
%TO.N,/NX_PC_LED-*%
X114681000Y-92964000D03*
%TO.P,J1,8,Pin_8*%
%TO.N,/NX_PC_LED+*%
X112141000Y-92964000D03*
%TO.P,J1,9,Pin_9*%
%TO.N,/UART2_RXD*%
X109601000Y-92964000D03*
%TO.P,J1,10,Pin_10*%
%TO.N,/UART2_TXD*%
X107061000Y-92964000D03*
%TO.P,J1,11,Pin_11*%
%TO.N,unconnected-(J1-Pin_11-Pad11)*%
X104521000Y-92964000D03*
%TO.P,J1,12,Pin_12*%
%TO.N,unconnected-(J1-Pin_12-Pad12)*%
X101981000Y-92964000D03*
%TO.P,J1,13,Pin_13*%
%TO.N,/SYS_RST_RCV_RTN*%
X99441000Y-92964000D03*
%TO.P,J1,14,Pin_14*%
%TO.N,/~{SYS_RESET}*%
X96901000Y-92964000D03*
%TO.P,J1,15,Pin_15*%
%TO.N,/SYS_RST_RCV_RTN*%
X94361000Y-92964000D03*
%TO.P,J1,16,Pin_16*%
%TO.N,/~{REC}*%
X91821000Y-92964000D03*
%TO.P,J1,17,Pin_17*%
%TO.N,unconnected-(J1-Pin_17-Pad17)*%
X89281000Y-92964000D03*
%TO.P,J1,18,Pin_18*%
%TO.N,unconnected-(J1-Pin_18-Pad18)*%
X86741000Y-92964000D03*
%TD*%
D12*
%TO.P,J2,2,Pin_2*%
%TO.N,/CAN_RX*%
X91211400Y-107988100D03*
%TO.P,J2,4,Pin_4*%
%TO.N,/3V3*%
X91211400Y-104813100D03*
%TO.P,J2,6,Pin_6*%
%TO.N,/UART2_TXD*%
X91211400Y-101638100D03*
%TO.P,J2,8,Pin_8*%
%TO.N,/SYS_RST_RCV_RTN*%
X91211400Y-98463100D03*
%TD*%
D13*
%TO.N,/CAN_TX*%
X102006400Y-108508800D03*
%TO.N,/CAN_RX*%
X98552000Y-108331000D03*
X103211044Y-107607100D03*
%TO.N,/3V3*%
X102108000Y-104648000D03*
X98552000Y-104876600D03*
%TO.N,/NX_PC_LED-*%
X117678200Y-104876600D03*
%TO.N,/NX_PC_LED+*%
X117576600Y-108026202D03*
%TD*%
D14*
%TO.N,/CAN_TX*%
X129921000Y-92964000D02*
X127355600Y-95529400D01*
X109258100Y-108800900D02*
X102298500Y-108800900D01*
X122529600Y-95529400D02*
X109258100Y-108800900D01*
X127355600Y-95529400D02*
X122529600Y-95529400D01*
X102298500Y-108800900D02*
X102006400Y-108508800D01*
%TO.N,/CAN_RX*%
X125755400Y-94589600D02*
X127381000Y-92964000D01*
X103211044Y-107607100D02*
X109004100Y-107607100D01*
X122021600Y-94589600D02*
X125755400Y-94589600D01*
X91211400Y-107988100D02*
X98209100Y-107988100D01*
X109004100Y-107607100D02*
X122021600Y-94589600D01*
X98209100Y-107988100D02*
X98552000Y-108331000D01*
%TO.N,/3V3*%
X91211400Y-104813100D02*
X98329800Y-104813100D01*
X122301000Y-92964000D02*
X110617000Y-104648000D01*
X110617000Y-104648000D02*
X102108000Y-104648000D01*
X98329800Y-104813100D02*
X98488500Y-104813100D01*
X98488500Y-104813100D02*
X98552000Y-104876600D01*
%TO.N,/NX_PC_LED-*%
X114681000Y-92964000D02*
X105283000Y-102362000D01*
X101550011Y-109740700D02*
X112814100Y-109740700D01*
X101765911Y-102362000D02*
X100787200Y-103340711D01*
X100787200Y-108977889D02*
X101550011Y-109740700D01*
X105283000Y-102362000D02*
X101765911Y-102362000D01*
X100787200Y-103340711D02*
X100787200Y-108977889D01*
X112814100Y-109740700D02*
X117678200Y-104876600D01*
%TO.N,/NX_PC_LED+*%
X112141000Y-92964000D02*
X103682800Y-101422200D01*
X101160733Y-110680500D02*
X114922302Y-110680500D01*
X114922302Y-110680500D02*
X117576600Y-108026202D01*
X99847400Y-109367167D02*
X101160733Y-110680500D01*
X99847400Y-102951433D02*
X99847400Y-109367167D01*
X101376633Y-101422200D02*
X99847400Y-102951433D01*
X103682800Y-101422200D02*
X101376633Y-101422200D01*
%TO.N,/UART2_TXD*%
X98386900Y-101638100D02*
X107061000Y-92964000D01*
X91211400Y-101638100D02*
X98386900Y-101638100D01*
%TO.N,/SYS_RST_RCV_RTN*%
X91211400Y-96494600D02*
X91211400Y-98463100D01*
X94361000Y-92964000D02*
X94361000Y-94284800D01*
X93192600Y-95453200D02*
X92252800Y-95453200D01*
X99441000Y-97434400D02*
X98412300Y-98463100D01*
X98412300Y-98463100D02*
X91211400Y-98463100D01*
X94361000Y-94284800D02*
X93192600Y-95453200D01*
X99441000Y-92964000D02*
X99441000Y-97434400D01*
X92252800Y-95453200D02*
X91211400Y-96494600D01*
%TD*%
M02*
