%TF.GenerationSoftware,KiCad,Pcbnew,8.0.4-8.0.4-0~ubuntu22.04.1*%
%TF.CreationDate,2024-08-11T09:24:58-07:00*%
%TF.ProjectId,NX-ButtonInterface,4e582d42-7574-4746-9f6e-496e74657266,rev?*%
%TF.SameCoordinates,Original*%
%TF.FileFunction,Copper,L2,Bot*%
%TF.FilePolarity,Positive*%
%FSLAX46Y46*%
G04 Gerber Fmt 4.6, Leading zero omitted, Abs format (unit mm)*
G04 Created by KiCad (PCBNEW 8.0.4-8.0.4-0~ubuntu22.04.1) date 2024-08-11 09:24:58*
%MOMM*%
%LPD*%
G01*
G04 APERTURE LIST*
G04 Aperture macros list*
%AMRoundRect*
0 Rectangle with rounded corners*
0 $1 Rounding radius*
0 $2 $3 $4 $5 $6 $7 $8 $9 X,Y pos of 4 corners*
0 Add a 4 corners polygon primitive as box body*
4,1,4,$2,$3,$4,$5,$6,$7,$8,$9,$2,$3,0*
0 Add four circle primitives for the rounded corners*
1,1,$1+$1,$2,$3*
1,1,$1+$1,$4,$5*
1,1,$1+$1,$6,$7*
1,1,$1+$1,$8,$9*
0 Add four rect primitives between the rounded corners*
20,1,$1+$1,$2,$3,$4,$5,0*
20,1,$1+$1,$4,$5,$6,$7,0*
20,1,$1+$1,$6,$7,$8,$9,0*
20,1,$1+$1,$8,$9,$2,$3,0*%
G04 Aperture macros list end*
%TA.AperFunction,ComponentPad*%
%ADD10R,1.700000X1.700000*%
%TD*%
%TA.AperFunction,ComponentPad*%
%ADD11O,1.700000X1.700000*%
%TD*%
%TA.AperFunction,SMDPad,CuDef*%
%ADD12RoundRect,0.571500X5.778500X0.571500X-5.778500X0.571500X-5.778500X-0.571500X5.778500X-0.571500X0*%
%TD*%
%TA.AperFunction,SMDPad,CuDef*%
%ADD13RoundRect,0.571500X-5.778500X-0.571500X5.778500X-0.571500X5.778500X0.571500X-5.778500X0.571500X0*%
%TD*%
%TA.AperFunction,ViaPad*%
%ADD14C,1.143000*%
%TD*%
%TA.AperFunction,Conductor*%
%ADD15C,0.635000*%
%TD*%
%TA.AperFunction,Conductor*%
%ADD16C,0.889000*%
%TD*%
G04 APERTURE END LIST*
D10*
%TO.P,J1,1,Pin_1*%
%TO.N,/CAN_TX*%
X129921000Y-92964000D03*
D11*
%TO.P,J1,2,Pin_2*%
%TO.N,/CAN_RX*%
X127381000Y-92964000D03*
%TO.P,J1,3,Pin_3*%
%TO.N,/GND*%
X124841000Y-92964000D03*
%TO.P,J1,4,Pin_4*%
%TO.N,/3V3*%
X122301000Y-92964000D03*
%TO.P,J1,5,Pin_5*%
%TO.N,unconnected-(J1-Pin_5-Pad5)*%
X119761000Y-92964000D03*
%TO.P,J1,6,Pin_6*%
%TO.N,unconnected-(J1-Pin_6-Pad6)*%
X117221000Y-92964000D03*
%TO.P,J1,7,Pin_7*%
%TO.N,/NX_PC_LED-*%
X114681000Y-92964000D03*
%TO.P,J1,8,Pin_8*%
%TO.N,/NX_PC_LED+*%
X112141000Y-92964000D03*
%TO.P,J1,9,Pin_9*%
%TO.N,/UART2_RXD*%
X109601000Y-92964000D03*
%TO.P,J1,10,Pin_10*%
%TO.N,/UART2_TXD*%
X107061000Y-92964000D03*
%TO.P,J1,11,Pin_11*%
%TO.N,unconnected-(J1-Pin_11-Pad11)*%
X104521000Y-92964000D03*
%TO.P,J1,12,Pin_12*%
%TO.N,unconnected-(J1-Pin_12-Pad12)*%
X101981000Y-92964000D03*
%TO.P,J1,13,Pin_13*%
%TO.N,/SYS_RST_RCV_RTN*%
X99441000Y-92964000D03*
%TO.P,J1,14,Pin_14*%
%TO.N,/~{SYS_RESET}*%
X96901000Y-92964000D03*
%TO.P,J1,15,Pin_15*%
%TO.N,/SYS_RST_RCV_RTN*%
X94361000Y-92964000D03*
%TO.P,J1,16,Pin_16*%
%TO.N,/~{REC}*%
X91821000Y-92964000D03*
%TO.P,J1,17,Pin_17*%
%TO.N,unconnected-(J1-Pin_17-Pad17)*%
X89281000Y-92964000D03*
%TO.P,J1,18,Pin_18*%
%TO.N,unconnected-(J1-Pin_18-Pad18)*%
X86741000Y-92964000D03*
%TD*%
D12*
%TO.P,J4,1,Pin_1*%
%TO.N,/NX_PC_LED-*%
X125463100Y-104863900D03*
%TO.P,J4,2,Pin_2*%
%TO.N,/NX_PC_LED+*%
X125463100Y-108038900D03*
%TD*%
D13*
%TO.P,J2,1,Pin_1*%
%TO.N,/CAN_TX*%
X91211400Y-109575600D03*
%TO.P,J2,3,Pin_3*%
%TO.N,/GND*%
X91211400Y-106400600D03*
%TO.P,J2,5,Pin_5*%
%TO.N,/UART2_RXD*%
X91211400Y-103225600D03*
%TO.P,J2,7,Pin_7*%
%TO.N,/~{SYS_RESET}*%
X91211400Y-100050600D03*
%TO.P,J2,9,Pin_9*%
%TO.N,/~{REC}*%
X91211400Y-96875600D03*
%TD*%
D14*
%TO.N,/CAN_TX*%
X102006400Y-108508800D03*
%TO.N,/CAN_RX*%
X98552000Y-108331000D03*
X103211044Y-107607100D03*
%TO.N,/3V3*%
X102108000Y-104648000D03*
X98552000Y-104876600D03*
%TO.N,/NX_PC_LED-*%
X117678200Y-104876600D03*
%TO.N,/NX_PC_LED+*%
X117576600Y-108026202D03*
%TD*%
D15*
%TO.N,/CAN_TX*%
X100990400Y-109524800D02*
X102006400Y-108508800D01*
X91211400Y-109575600D02*
X91262200Y-109524800D01*
X91262200Y-109524800D02*
X100990400Y-109524800D01*
%TO.N,/CAN_RX*%
X102918944Y-107315000D02*
X101498400Y-107315000D01*
X103211044Y-107607100D02*
X102918944Y-107315000D01*
X101498400Y-107315000D02*
X100482400Y-108331000D01*
X100482400Y-108331000D02*
X98552000Y-108331000D01*
%TO.N,/GND*%
X99212400Y-106400600D02*
X99237800Y-106375200D01*
X124841000Y-92964000D02*
X123444000Y-94361000D01*
X124841000Y-92964000D02*
X125984000Y-94107000D01*
D16*
X91211400Y-106400600D02*
X99212400Y-106400600D01*
D15*
%TO.N,/3V3*%
X98552000Y-104876600D02*
X101879400Y-104876600D01*
X101879400Y-104876600D02*
X102108000Y-104648000D01*
%TO.N,/NX_PC_LED-*%
X118275104Y-104863900D02*
X117690900Y-104863900D01*
X117690900Y-104863900D02*
X117678200Y-104876600D01*
X125488500Y-104863900D02*
X118275104Y-104863900D01*
%TO.N,/NX_PC_LED+*%
X125488500Y-108038900D02*
X117589298Y-108038900D01*
X117589298Y-108038900D02*
X117576600Y-108026202D01*
%TO.N,/UART2_RXD*%
X91211400Y-103225600D02*
X99339400Y-103225600D01*
X99339400Y-103225600D02*
X109601000Y-92964000D01*
%TO.N,/~{SYS_RESET}*%
X98272600Y-100050600D02*
X91211400Y-100050600D01*
X99009200Y-95072200D02*
X99009200Y-99314000D01*
X96901000Y-92964000D02*
X99009200Y-95072200D01*
X99009200Y-99314000D02*
X98272600Y-100050600D01*
%TO.N,/~{REC}*%
X91821000Y-92964000D02*
X91821000Y-96266000D01*
X91821000Y-96266000D02*
X91211400Y-96875600D01*
%TD*%
%TA.AperFunction,Conductor*%
%TO.N,/GND*%
G36*
X126200250Y-93034973D02*
G01*
X126232441Y-93096986D01*
X126234219Y-93109353D01*
X126240505Y-93177194D01*
X126299099Y-93383127D01*
X126299104Y-93383140D01*
X126394536Y-93574792D01*
X126523567Y-93745657D01*
X126681793Y-93889898D01*
X126681795Y-93889900D01*
X126863829Y-94002610D01*
X126863830Y-94002610D01*
X126863833Y-94002612D01*
X127063483Y-94079957D01*
X127273946Y-94119300D01*
X127273948Y-94119300D01*
X127488052Y-94119300D01*
X127488054Y-94119300D01*
X127698517Y-94079957D01*
X127898167Y-94002612D01*
X128080206Y-93889899D01*
X128238434Y-93745655D01*
X128367464Y-93574792D01*
X128462900Y-93383130D01*
X128521494Y-93177195D01*
X128521494Y-93177193D01*
X128522435Y-93173887D01*
X128559714Y-93114794D01*
X128623024Y-93085237D01*
X128692264Y-93094599D01*
X128745450Y-93139909D01*
X128765697Y-93206781D01*
X128765701Y-93207822D01*
X128765701Y-93859571D01*
X128765702Y-93859594D01*
X128768661Y-93885106D01*
X128768662Y-93885109D01*
X128814765Y-93989524D01*
X128814766Y-93989525D01*
X128895475Y-94070234D01*
X128999891Y-94116338D01*
X129025421Y-94119300D01*
X130816578Y-94119299D01*
X130842109Y-94116338D01*
X130946525Y-94070234D01*
X131027234Y-93989525D01*
X131073338Y-93885109D01*
X131076300Y-93859579D01*
X131076299Y-93504293D01*
X131095983Y-93437257D01*
X131148787Y-93391502D01*
X131217946Y-93381558D01*
X131281501Y-93410583D01*
X131301288Y-93432343D01*
X131406802Y-93580436D01*
X131417683Y-93598899D01*
X131503086Y-93777513D01*
X131510625Y-93797573D01*
X131564001Y-93988227D01*
X131567973Y-94009287D01*
X131588259Y-94211629D01*
X131588867Y-94222337D01*
X131681640Y-101143181D01*
X131681305Y-101154099D01*
X131665845Y-101360631D01*
X131662307Y-101382168D01*
X131612237Y-101577481D01*
X131604977Y-101598064D01*
X131521439Y-101781569D01*
X131510683Y-101800560D01*
X131396265Y-101966576D01*
X131382346Y-101983387D01*
X131240598Y-102126766D01*
X131223947Y-102140877D01*
X131059243Y-102257191D01*
X131040377Y-102268163D01*
X130857843Y-102353793D01*
X130837344Y-102361288D01*
X130642617Y-102413589D01*
X130621122Y-102417373D01*
X130414783Y-102435195D01*
X130403869Y-102435655D01*
X119281967Y-102413804D01*
X119281957Y-102413804D01*
X118770400Y-102412800D01*
X118400978Y-102766655D01*
X118400968Y-102766664D01*
X118400957Y-102766674D01*
X110107831Y-110710372D01*
X110098742Y-110718270D01*
X109919365Y-110859432D01*
X109899108Y-110872404D01*
X109701259Y-110973514D01*
X109678883Y-110982330D01*
X109642457Y-110992733D01*
X109608405Y-110997500D01*
X103950736Y-110997500D01*
X103949240Y-110997490D01*
X99481984Y-110938190D01*
X99471428Y-110937598D01*
X99386881Y-110929223D01*
X99271494Y-110917792D01*
X99250681Y-110913914D01*
X99062165Y-110861804D01*
X99042315Y-110854442D01*
X98865415Y-110771025D01*
X98847107Y-110760394D01*
X98767039Y-110704246D01*
X98686968Y-110648096D01*
X98670743Y-110634511D01*
X98532040Y-110496606D01*
X98518358Y-110480454D01*
X98421049Y-110343380D01*
X98398293Y-110277320D01*
X98414864Y-110209443D01*
X98465502Y-110161302D01*
X98522161Y-110147600D01*
X101051742Y-110147600D01*
X101051743Y-110147599D01*
X101172064Y-110123666D01*
X101285406Y-110076718D01*
X101387412Y-110008560D01*
X101974053Y-109421919D01*
X102035376Y-109388434D01*
X102061734Y-109385600D01*
X102098554Y-109385600D01*
X102098555Y-109385600D01*
X102278839Y-109347280D01*
X102278841Y-109347278D01*
X102278844Y-109347278D01*
X102301625Y-109337134D01*
X102447215Y-109272314D01*
X102596326Y-109163979D01*
X102719654Y-109027009D01*
X102811809Y-108867391D01*
X102868764Y-108692101D01*
X102881239Y-108573404D01*
X102907824Y-108508792D01*
X102965121Y-108468807D01*
X103030337Y-108465078D01*
X103118889Y-108483900D01*
X103118890Y-108483900D01*
X103303198Y-108483900D01*
X103303199Y-108483900D01*
X103483483Y-108445580D01*
X103483485Y-108445578D01*
X103483488Y-108445578D01*
X103506269Y-108435434D01*
X103651859Y-108370614D01*
X103800970Y-108262279D01*
X103802151Y-108260968D01*
X103827690Y-108232602D01*
X103924298Y-108125309D01*
X104016453Y-107965691D01*
X104073408Y-107790401D01*
X104092674Y-107607100D01*
X104073408Y-107423799D01*
X104016453Y-107248509D01*
X103924298Y-107088891D01*
X103875994Y-107035244D01*
X103800975Y-106951925D01*
X103800968Y-106951919D01*
X103651863Y-106843588D01*
X103651860Y-106843586D01*
X103651859Y-106843586D01*
X103607006Y-106823616D01*
X103483488Y-106768621D01*
X103483482Y-106768619D01*
X103341518Y-106738444D01*
X103303199Y-106730300D01*
X103303198Y-106730300D01*
X103159472Y-106730300D01*
X103112021Y-106720861D01*
X103100608Y-106716134D01*
X103100604Y-106716133D01*
X103100600Y-106716132D01*
X102980287Y-106692200D01*
X102980284Y-106692200D01*
X101559740Y-106692200D01*
X101437060Y-106692200D01*
X101437057Y-106692200D01*
X101316743Y-106716132D01*
X101316735Y-106716134D01*
X101203396Y-106763080D01*
X101203387Y-106763085D01*
X101101388Y-106831239D01*
X101101384Y-106831242D01*
X100260747Y-107671881D01*
X100199424Y-107705366D01*
X100173066Y-107708200D01*
X99225485Y-107708200D01*
X99158446Y-107688515D01*
X99142509Y-107676346D01*
X99141929Y-107675825D01*
X99141926Y-107675821D01*
X99092222Y-107639709D01*
X98992819Y-107567488D01*
X98992816Y-107567486D01*
X98992815Y-107567486D01*
X98947962Y-107547516D01*
X98824444Y-107492521D01*
X98824438Y-107492519D01*
X98682474Y-107462344D01*
X98644155Y-107454200D01*
X98459845Y-107454200D01*
X98355989Y-107476274D01*
X98329171Y-107481975D01*
X98259504Y-107476658D01*
X98203770Y-107434520D01*
X98179666Y-107368940D01*
X98179415Y-107363096D01*
X98159533Y-106319276D01*
X98159794Y-106308551D01*
X98173525Y-106105530D01*
X98176814Y-106084345D01*
X98224042Y-105891928D01*
X98230928Y-105871642D01*
X98257388Y-105811399D01*
X98302365Y-105757939D01*
X98369111Y-105737280D01*
X98396689Y-105739976D01*
X98459845Y-105753400D01*
X98459846Y-105753400D01*
X98644154Y-105753400D01*
X98644155Y-105753400D01*
X98824439Y-105715080D01*
X98824441Y-105715078D01*
X98824444Y-105715078D01*
X98847225Y-105704934D01*
X98992815Y-105640114D01*
X99141926Y-105531779D01*
X99141934Y-105531769D01*
X99142509Y-105531254D01*
X99142920Y-105531056D01*
X99147184Y-105527959D01*
X99147750Y-105528738D01*
X99205499Y-105501021D01*
X99225485Y-105499400D01*
X101818060Y-105499400D01*
X101883315Y-105499400D01*
X101909095Y-105502109D01*
X102015845Y-105524800D01*
X102015846Y-105524800D01*
X102200154Y-105524800D01*
X102200155Y-105524800D01*
X102380439Y-105486480D01*
X102380441Y-105486478D01*
X102380444Y-105486478D01*
X102403225Y-105476334D01*
X102548815Y-105411514D01*
X102697926Y-105303179D01*
X102821254Y-105166209D01*
X102913409Y-105006591D01*
X102970364Y-104831301D01*
X102989630Y-104648000D01*
X102970364Y-104464699D01*
X102913409Y-104289409D01*
X102821254Y-104129791D01*
X102748147Y-104048597D01*
X102697931Y-103992825D01*
X102697924Y-103992819D01*
X102548819Y-103884488D01*
X102548816Y-103884486D01*
X102548815Y-103884486D01*
X102503962Y-103864516D01*
X102380444Y-103809521D01*
X102380438Y-103809519D01*
X102229879Y-103777518D01*
X102200155Y-103771200D01*
X102015845Y-103771200D01*
X101986121Y-103777518D01*
X101835561Y-103809519D01*
X101835555Y-103809521D01*
X101667185Y-103884486D01*
X101667180Y-103884488D01*
X101518075Y-103992819D01*
X101518068Y-103992825D01*
X101394749Y-104129785D01*
X101394744Y-104129792D01*
X101358945Y-104191800D01*
X101308378Y-104240015D01*
X101251558Y-104253800D01*
X100755678Y-104253800D01*
X100688639Y-104234115D01*
X100642884Y-104181311D01*
X100632940Y-104112153D01*
X100661965Y-104048597D01*
X100690768Y-104024146D01*
X116842447Y-94101173D01*
X116909869Y-94082854D01*
X116930126Y-94084937D01*
X117113946Y-94119300D01*
X117113949Y-94119300D01*
X117328052Y-94119300D01*
X117328054Y-94119300D01*
X117538517Y-94079957D01*
X117738167Y-94002612D01*
X117920206Y-93889899D01*
X118078434Y-93745655D01*
X118207464Y-93574792D01*
X118302900Y-93383130D01*
X118361494Y-93177195D01*
X118367529Y-93112064D01*
X118393315Y-93047128D01*
X118450115Y-93006440D01*
X118519896Y-93002920D01*
X118580503Y-93037685D01*
X118612693Y-93099698D01*
X118614471Y-93112065D01*
X118620505Y-93177194D01*
X118679099Y-93383127D01*
X118679104Y-93383140D01*
X118774536Y-93574792D01*
X118903567Y-93745657D01*
X119061793Y-93889898D01*
X119061795Y-93889900D01*
X119243829Y-94002610D01*
X119243830Y-94002610D01*
X119243833Y-94002612D01*
X119443483Y-94079957D01*
X119653946Y-94119300D01*
X119653948Y-94119300D01*
X119868052Y-94119300D01*
X119868054Y-94119300D01*
X120078517Y-94079957D01*
X120278167Y-94002612D01*
X120460206Y-93889899D01*
X120618434Y-93745655D01*
X120747464Y-93574792D01*
X120842900Y-93383130D01*
X120901494Y-93177195D01*
X120907529Y-93112064D01*
X120933315Y-93047128D01*
X120990115Y-93006440D01*
X121059896Y-93002920D01*
X121120503Y-93037685D01*
X121152693Y-93099698D01*
X121154471Y-93112065D01*
X121160505Y-93177194D01*
X121219099Y-93383127D01*
X121219104Y-93383140D01*
X121314536Y-93574792D01*
X121443567Y-93745657D01*
X121601793Y-93889898D01*
X121601795Y-93889900D01*
X121783829Y-94002610D01*
X121783830Y-94002610D01*
X121783833Y-94002612D01*
X121983483Y-94079957D01*
X122193946Y-94119300D01*
X122193948Y-94119300D01*
X122408052Y-94119300D01*
X122408054Y-94119300D01*
X122618517Y-94079957D01*
X122818167Y-94002612D01*
X123000206Y-93889899D01*
X123158434Y-93745655D01*
X123287464Y-93574792D01*
X123382900Y-93383130D01*
X123441494Y-93177195D01*
X123447780Y-93109353D01*
X123473566Y-93044417D01*
X123530366Y-93003729D01*
X123600147Y-93000209D01*
X123660754Y-93034974D01*
X123692944Y-93096986D01*
X123694722Y-93109354D01*
X123700999Y-93177098D01*
X123759569Y-93382952D01*
X123854963Y-93574528D01*
X123983938Y-93745319D01*
X124142094Y-93889496D01*
X124324058Y-94002163D01*
X124523616Y-94079472D01*
X124591000Y-94092068D01*
X124591000Y-93397012D01*
X124648007Y-93429925D01*
X124775174Y-93464000D01*
X124906826Y-93464000D01*
X125033993Y-93429925D01*
X125091000Y-93397012D01*
X125091000Y-94092068D01*
X125158383Y-94079472D01*
X125357941Y-94002163D01*
X125357942Y-94002163D01*
X125539905Y-93889496D01*
X125698061Y-93745319D01*
X125827036Y-93574528D01*
X125922430Y-93382952D01*
X125981000Y-93177098D01*
X125987277Y-93109355D01*
X126013062Y-93044418D01*
X126069862Y-93003729D01*
X126139643Y-93000209D01*
X126200250Y-93034973D01*
G37*
%TD.AperFunction*%
%TD*%
M02*
