%TF.GenerationSoftware,KiCad,Pcbnew,7.0.10-7.0.10~ubuntu22.04.1*%
%TF.CreationDate,2024-01-21T09:39:33-08:00*%
%TF.ProjectId,potentiometer_adapter,706f7465-6e74-4696-9f6d-657465725f61,rev?*%
%TF.SameCoordinates,Original*%
%TF.FileFunction,Legend,Bot*%
%TF.FilePolarity,Positive*%
%FSLAX46Y46*%
G04 Gerber Fmt 4.6, Leading zero omitted, Abs format (unit mm)*
G04 Created by KiCad (PCBNEW 7.0.10-7.0.10~ubuntu22.04.1) date 2024-01-21 09:39:33*
%MOMM*%
%LPD*%
G01*
G04 APERTURE LIST*
%ADD10C,0.150000*%
%ADD11C,0.120000*%
G04 APERTURE END LIST*
D10*
X120904000Y-77724000D02*
X119888000Y-77724000D01*
X120904000Y-78232000D02*
X119888000Y-78232000D01*
X120396000Y-77724000D01*
X120904000Y-78232000D01*
G36*
X120904000Y-78232000D02*
G01*
X119888000Y-78232000D01*
X120396000Y-77724000D01*
X120904000Y-78232000D01*
G37*
X109944819Y-73660476D02*
X110944819Y-73993809D01*
X110944819Y-73993809D02*
X109944819Y-74327142D01*
X110944819Y-75184285D02*
X110944819Y-74612857D01*
X110944819Y-74898571D02*
X109944819Y-74898571D01*
X109944819Y-74898571D02*
X110087676Y-74803333D01*
X110087676Y-74803333D02*
X110182914Y-74708095D01*
X110182914Y-74708095D02*
X110230533Y-74612857D01*
X110849580Y-75612857D02*
X110897200Y-75660476D01*
X110897200Y-75660476D02*
X110944819Y-75612857D01*
X110944819Y-75612857D02*
X110897200Y-75565238D01*
X110897200Y-75565238D02*
X110849580Y-75612857D01*
X110849580Y-75612857D02*
X110944819Y-75612857D01*
X109944819Y-76279523D02*
X109944819Y-76374761D01*
X109944819Y-76374761D02*
X109992438Y-76469999D01*
X109992438Y-76469999D02*
X110040057Y-76517618D01*
X110040057Y-76517618D02*
X110135295Y-76565237D01*
X110135295Y-76565237D02*
X110325771Y-76612856D01*
X110325771Y-76612856D02*
X110563866Y-76612856D01*
X110563866Y-76612856D02*
X110754342Y-76565237D01*
X110754342Y-76565237D02*
X110849580Y-76517618D01*
X110849580Y-76517618D02*
X110897200Y-76469999D01*
X110897200Y-76469999D02*
X110944819Y-76374761D01*
X110944819Y-76374761D02*
X110944819Y-76279523D01*
X110944819Y-76279523D02*
X110897200Y-76184285D01*
X110897200Y-76184285D02*
X110849580Y-76136666D01*
X110849580Y-76136666D02*
X110754342Y-76089047D01*
X110754342Y-76089047D02*
X110563866Y-76041428D01*
X110563866Y-76041428D02*
X110325771Y-76041428D01*
X110325771Y-76041428D02*
X110135295Y-76089047D01*
X110135295Y-76089047D02*
X110040057Y-76136666D01*
X110040057Y-76136666D02*
X109992438Y-76184285D01*
X109992438Y-76184285D02*
X109944819Y-76279523D01*
X110040057Y-77755714D02*
X109992438Y-77803333D01*
X109992438Y-77803333D02*
X109944819Y-77898571D01*
X109944819Y-77898571D02*
X109944819Y-78136666D01*
X109944819Y-78136666D02*
X109992438Y-78231904D01*
X109992438Y-78231904D02*
X110040057Y-78279523D01*
X110040057Y-78279523D02*
X110135295Y-78327142D01*
X110135295Y-78327142D02*
X110230533Y-78327142D01*
X110230533Y-78327142D02*
X110373390Y-78279523D01*
X110373390Y-78279523D02*
X110944819Y-77708095D01*
X110944819Y-77708095D02*
X110944819Y-78327142D01*
X109944819Y-78946190D02*
X109944819Y-79041428D01*
X109944819Y-79041428D02*
X109992438Y-79136666D01*
X109992438Y-79136666D02*
X110040057Y-79184285D01*
X110040057Y-79184285D02*
X110135295Y-79231904D01*
X110135295Y-79231904D02*
X110325771Y-79279523D01*
X110325771Y-79279523D02*
X110563866Y-79279523D01*
X110563866Y-79279523D02*
X110754342Y-79231904D01*
X110754342Y-79231904D02*
X110849580Y-79184285D01*
X110849580Y-79184285D02*
X110897200Y-79136666D01*
X110897200Y-79136666D02*
X110944819Y-79041428D01*
X110944819Y-79041428D02*
X110944819Y-78946190D01*
X110944819Y-78946190D02*
X110897200Y-78850952D01*
X110897200Y-78850952D02*
X110849580Y-78803333D01*
X110849580Y-78803333D02*
X110754342Y-78755714D01*
X110754342Y-78755714D02*
X110563866Y-78708095D01*
X110563866Y-78708095D02*
X110325771Y-78708095D01*
X110325771Y-78708095D02*
X110135295Y-78755714D01*
X110135295Y-78755714D02*
X110040057Y-78803333D01*
X110040057Y-78803333D02*
X109992438Y-78850952D01*
X109992438Y-78850952D02*
X109944819Y-78946190D01*
X110040057Y-79660476D02*
X109992438Y-79708095D01*
X109992438Y-79708095D02*
X109944819Y-79803333D01*
X109944819Y-79803333D02*
X109944819Y-80041428D01*
X109944819Y-80041428D02*
X109992438Y-80136666D01*
X109992438Y-80136666D02*
X110040057Y-80184285D01*
X110040057Y-80184285D02*
X110135295Y-80231904D01*
X110135295Y-80231904D02*
X110230533Y-80231904D01*
X110230533Y-80231904D02*
X110373390Y-80184285D01*
X110373390Y-80184285D02*
X110944819Y-79612857D01*
X110944819Y-79612857D02*
X110944819Y-80231904D01*
X110040057Y-80612857D02*
X109992438Y-80660476D01*
X109992438Y-80660476D02*
X109944819Y-80755714D01*
X109944819Y-80755714D02*
X109944819Y-80993809D01*
X109944819Y-80993809D02*
X109992438Y-81089047D01*
X109992438Y-81089047D02*
X110040057Y-81136666D01*
X110040057Y-81136666D02*
X110135295Y-81184285D01*
X110135295Y-81184285D02*
X110230533Y-81184285D01*
X110230533Y-81184285D02*
X110373390Y-81136666D01*
X110373390Y-81136666D02*
X110944819Y-80565238D01*
X110944819Y-80565238D02*
X110944819Y-81184285D01*
X106452200Y-77319523D02*
X106499819Y-77462380D01*
X106499819Y-77462380D02*
X106499819Y-77700475D01*
X106499819Y-77700475D02*
X106452200Y-77795713D01*
X106452200Y-77795713D02*
X106404580Y-77843332D01*
X106404580Y-77843332D02*
X106309342Y-77890951D01*
X106309342Y-77890951D02*
X106214104Y-77890951D01*
X106214104Y-77890951D02*
X106118866Y-77843332D01*
X106118866Y-77843332D02*
X106071247Y-77795713D01*
X106071247Y-77795713D02*
X106023628Y-77700475D01*
X106023628Y-77700475D02*
X105976009Y-77509999D01*
X105976009Y-77509999D02*
X105928390Y-77414761D01*
X105928390Y-77414761D02*
X105880771Y-77367142D01*
X105880771Y-77367142D02*
X105785533Y-77319523D01*
X105785533Y-77319523D02*
X105690295Y-77319523D01*
X105690295Y-77319523D02*
X105595057Y-77367142D01*
X105595057Y-77367142D02*
X105547438Y-77414761D01*
X105547438Y-77414761D02*
X105499819Y-77509999D01*
X105499819Y-77509999D02*
X105499819Y-77748094D01*
X105499819Y-77748094D02*
X105547438Y-77890951D01*
X105833152Y-78319523D02*
X106833152Y-78319523D01*
X105880771Y-78319523D02*
X105833152Y-78414761D01*
X105833152Y-78414761D02*
X105833152Y-78605237D01*
X105833152Y-78605237D02*
X105880771Y-78700475D01*
X105880771Y-78700475D02*
X105928390Y-78748094D01*
X105928390Y-78748094D02*
X106023628Y-78795713D01*
X106023628Y-78795713D02*
X106309342Y-78795713D01*
X106309342Y-78795713D02*
X106404580Y-78748094D01*
X106404580Y-78748094D02*
X106452200Y-78700475D01*
X106452200Y-78700475D02*
X106499819Y-78605237D01*
X106499819Y-78605237D02*
X106499819Y-78414761D01*
X106499819Y-78414761D02*
X106452200Y-78319523D01*
X106499819Y-79652856D02*
X105976009Y-79652856D01*
X105976009Y-79652856D02*
X105880771Y-79605237D01*
X105880771Y-79605237D02*
X105833152Y-79509999D01*
X105833152Y-79509999D02*
X105833152Y-79319523D01*
X105833152Y-79319523D02*
X105880771Y-79224285D01*
X106452200Y-79652856D02*
X106499819Y-79557618D01*
X106499819Y-79557618D02*
X106499819Y-79319523D01*
X106499819Y-79319523D02*
X106452200Y-79224285D01*
X106452200Y-79224285D02*
X106356961Y-79176666D01*
X106356961Y-79176666D02*
X106261723Y-79176666D01*
X106261723Y-79176666D02*
X106166485Y-79224285D01*
X106166485Y-79224285D02*
X106118866Y-79319523D01*
X106118866Y-79319523D02*
X106118866Y-79557618D01*
X106118866Y-79557618D02*
X106071247Y-79652856D01*
X106499819Y-80129047D02*
X105833152Y-80129047D01*
X106023628Y-80129047D02*
X105928390Y-80176666D01*
X105928390Y-80176666D02*
X105880771Y-80224285D01*
X105880771Y-80224285D02*
X105833152Y-80319523D01*
X105833152Y-80319523D02*
X105833152Y-80414761D01*
X105833152Y-80605238D02*
X105833152Y-80986190D01*
X105499819Y-80748095D02*
X106356961Y-80748095D01*
X106356961Y-80748095D02*
X106452200Y-80795714D01*
X106452200Y-80795714D02*
X106499819Y-80890952D01*
X106499819Y-80890952D02*
X106499819Y-80986190D01*
X106499819Y-81748095D02*
X105976009Y-81748095D01*
X105976009Y-81748095D02*
X105880771Y-81700476D01*
X105880771Y-81700476D02*
X105833152Y-81605238D01*
X105833152Y-81605238D02*
X105833152Y-81414762D01*
X105833152Y-81414762D02*
X105880771Y-81319524D01*
X106452200Y-81748095D02*
X106499819Y-81652857D01*
X106499819Y-81652857D02*
X106499819Y-81414762D01*
X106499819Y-81414762D02*
X106452200Y-81319524D01*
X106452200Y-81319524D02*
X106356961Y-81271905D01*
X106356961Y-81271905D02*
X106261723Y-81271905D01*
X106261723Y-81271905D02*
X106166485Y-81319524D01*
X106166485Y-81319524D02*
X106118866Y-81414762D01*
X106118866Y-81414762D02*
X106118866Y-81652857D01*
X106118866Y-81652857D02*
X106071247Y-81748095D01*
X105833152Y-82224286D02*
X106499819Y-82224286D01*
X105928390Y-82224286D02*
X105880771Y-82271905D01*
X105880771Y-82271905D02*
X105833152Y-82367143D01*
X105833152Y-82367143D02*
X105833152Y-82510000D01*
X105833152Y-82510000D02*
X105880771Y-82605238D01*
X105880771Y-82605238D02*
X105976009Y-82652857D01*
X105976009Y-82652857D02*
X106499819Y-82652857D01*
X106499819Y-73787143D02*
X106499819Y-73977619D01*
X106499819Y-73977619D02*
X106452200Y-74072857D01*
X106452200Y-74072857D02*
X106404580Y-74120476D01*
X106404580Y-74120476D02*
X106261723Y-74215714D01*
X106261723Y-74215714D02*
X106071247Y-74263333D01*
X106071247Y-74263333D02*
X105690295Y-74263333D01*
X105690295Y-74263333D02*
X105595057Y-74215714D01*
X105595057Y-74215714D02*
X105547438Y-74168095D01*
X105547438Y-74168095D02*
X105499819Y-74072857D01*
X105499819Y-74072857D02*
X105499819Y-73882381D01*
X105499819Y-73882381D02*
X105547438Y-73787143D01*
X105547438Y-73787143D02*
X105595057Y-73739524D01*
X105595057Y-73739524D02*
X105690295Y-73691905D01*
X105690295Y-73691905D02*
X105928390Y-73691905D01*
X105928390Y-73691905D02*
X106023628Y-73739524D01*
X106023628Y-73739524D02*
X106071247Y-73787143D01*
X106071247Y-73787143D02*
X106118866Y-73882381D01*
X106118866Y-73882381D02*
X106118866Y-74072857D01*
X106118866Y-74072857D02*
X106071247Y-74168095D01*
X106071247Y-74168095D02*
X106023628Y-74215714D01*
X106023628Y-74215714D02*
X105928390Y-74263333D01*
X105499819Y-74596667D02*
X105499819Y-75263333D01*
X105499819Y-75263333D02*
X106499819Y-74834762D01*
X106499819Y-76168095D02*
X106499819Y-75596667D01*
X106499819Y-75882381D02*
X105499819Y-75882381D01*
X105499819Y-75882381D02*
X105642676Y-75787143D01*
X105642676Y-75787143D02*
X105737914Y-75691905D01*
X105737914Y-75691905D02*
X105785533Y-75596667D01*
X117847619Y-83004819D02*
X117847619Y-82004819D01*
X117847619Y-82004819D02*
X117466667Y-82004819D01*
X117466667Y-82004819D02*
X117371429Y-82052438D01*
X117371429Y-82052438D02*
X117323810Y-82100057D01*
X117323810Y-82100057D02*
X117276191Y-82195295D01*
X117276191Y-82195295D02*
X117276191Y-82338152D01*
X117276191Y-82338152D02*
X117323810Y-82433390D01*
X117323810Y-82433390D02*
X117371429Y-82481009D01*
X117371429Y-82481009D02*
X117466667Y-82528628D01*
X117466667Y-82528628D02*
X117847619Y-82528628D01*
X116704762Y-83004819D02*
X116800000Y-82957200D01*
X116800000Y-82957200D02*
X116847619Y-82909580D01*
X116847619Y-82909580D02*
X116895238Y-82814342D01*
X116895238Y-82814342D02*
X116895238Y-82528628D01*
X116895238Y-82528628D02*
X116847619Y-82433390D01*
X116847619Y-82433390D02*
X116800000Y-82385771D01*
X116800000Y-82385771D02*
X116704762Y-82338152D01*
X116704762Y-82338152D02*
X116561905Y-82338152D01*
X116561905Y-82338152D02*
X116466667Y-82385771D01*
X116466667Y-82385771D02*
X116419048Y-82433390D01*
X116419048Y-82433390D02*
X116371429Y-82528628D01*
X116371429Y-82528628D02*
X116371429Y-82814342D01*
X116371429Y-82814342D02*
X116419048Y-82909580D01*
X116419048Y-82909580D02*
X116466667Y-82957200D01*
X116466667Y-82957200D02*
X116561905Y-83004819D01*
X116561905Y-83004819D02*
X116704762Y-83004819D01*
X116085714Y-82338152D02*
X115704762Y-82338152D01*
X115942857Y-82004819D02*
X115942857Y-82861961D01*
X115942857Y-82861961D02*
X115895238Y-82957200D01*
X115895238Y-82957200D02*
X115800000Y-83004819D01*
X115800000Y-83004819D02*
X115704762Y-83004819D01*
X114276190Y-82481009D02*
X114133333Y-82528628D01*
X114133333Y-82528628D02*
X114085714Y-82576247D01*
X114085714Y-82576247D02*
X114038095Y-82671485D01*
X114038095Y-82671485D02*
X114038095Y-82814342D01*
X114038095Y-82814342D02*
X114085714Y-82909580D01*
X114085714Y-82909580D02*
X114133333Y-82957200D01*
X114133333Y-82957200D02*
X114228571Y-83004819D01*
X114228571Y-83004819D02*
X114609523Y-83004819D01*
X114609523Y-83004819D02*
X114609523Y-82004819D01*
X114609523Y-82004819D02*
X114276190Y-82004819D01*
X114276190Y-82004819D02*
X114180952Y-82052438D01*
X114180952Y-82052438D02*
X114133333Y-82100057D01*
X114133333Y-82100057D02*
X114085714Y-82195295D01*
X114085714Y-82195295D02*
X114085714Y-82290533D01*
X114085714Y-82290533D02*
X114133333Y-82385771D01*
X114133333Y-82385771D02*
X114180952Y-82433390D01*
X114180952Y-82433390D02*
X114276190Y-82481009D01*
X114276190Y-82481009D02*
X114609523Y-82481009D01*
X113466666Y-83004819D02*
X113561904Y-82957200D01*
X113561904Y-82957200D02*
X113609523Y-82909580D01*
X113609523Y-82909580D02*
X113657142Y-82814342D01*
X113657142Y-82814342D02*
X113657142Y-82528628D01*
X113657142Y-82528628D02*
X113609523Y-82433390D01*
X113609523Y-82433390D02*
X113561904Y-82385771D01*
X113561904Y-82385771D02*
X113466666Y-82338152D01*
X113466666Y-82338152D02*
X113323809Y-82338152D01*
X113323809Y-82338152D02*
X113228571Y-82385771D01*
X113228571Y-82385771D02*
X113180952Y-82433390D01*
X113180952Y-82433390D02*
X113133333Y-82528628D01*
X113133333Y-82528628D02*
X113133333Y-82814342D01*
X113133333Y-82814342D02*
X113180952Y-82909580D01*
X113180952Y-82909580D02*
X113228571Y-82957200D01*
X113228571Y-82957200D02*
X113323809Y-83004819D01*
X113323809Y-83004819D02*
X113466666Y-83004819D01*
X112276190Y-83004819D02*
X112276190Y-82481009D01*
X112276190Y-82481009D02*
X112323809Y-82385771D01*
X112323809Y-82385771D02*
X112419047Y-82338152D01*
X112419047Y-82338152D02*
X112609523Y-82338152D01*
X112609523Y-82338152D02*
X112704761Y-82385771D01*
X112276190Y-82957200D02*
X112371428Y-83004819D01*
X112371428Y-83004819D02*
X112609523Y-83004819D01*
X112609523Y-83004819D02*
X112704761Y-82957200D01*
X112704761Y-82957200D02*
X112752380Y-82861961D01*
X112752380Y-82861961D02*
X112752380Y-82766723D01*
X112752380Y-82766723D02*
X112704761Y-82671485D01*
X112704761Y-82671485D02*
X112609523Y-82623866D01*
X112609523Y-82623866D02*
X112371428Y-82623866D01*
X112371428Y-82623866D02*
X112276190Y-82576247D01*
X111799999Y-83004819D02*
X111799999Y-82338152D01*
X111799999Y-82528628D02*
X111752380Y-82433390D01*
X111752380Y-82433390D02*
X111704761Y-82385771D01*
X111704761Y-82385771D02*
X111609523Y-82338152D01*
X111609523Y-82338152D02*
X111514285Y-82338152D01*
X110752380Y-83004819D02*
X110752380Y-82004819D01*
X110752380Y-82957200D02*
X110847618Y-83004819D01*
X110847618Y-83004819D02*
X111038094Y-83004819D01*
X111038094Y-83004819D02*
X111133332Y-82957200D01*
X111133332Y-82957200D02*
X111180951Y-82909580D01*
X111180951Y-82909580D02*
X111228570Y-82814342D01*
X111228570Y-82814342D02*
X111228570Y-82528628D01*
X111228570Y-82528628D02*
X111180951Y-82433390D01*
X111180951Y-82433390D02*
X111133332Y-82385771D01*
X111133332Y-82385771D02*
X111038094Y-82338152D01*
X111038094Y-82338152D02*
X110847618Y-82338152D01*
X110847618Y-82338152D02*
X110752380Y-82385771D01*
X108404819Y-80780237D02*
X107928628Y-80446904D01*
X108404819Y-80208809D02*
X107404819Y-80208809D01*
X107404819Y-80208809D02*
X107404819Y-80589761D01*
X107404819Y-80589761D02*
X107452438Y-80684999D01*
X107452438Y-80684999D02*
X107500057Y-80732618D01*
X107500057Y-80732618D02*
X107595295Y-80780237D01*
X107595295Y-80780237D02*
X107738152Y-80780237D01*
X107738152Y-80780237D02*
X107833390Y-80732618D01*
X107833390Y-80732618D02*
X107881009Y-80684999D01*
X107881009Y-80684999D02*
X107928628Y-80589761D01*
X107928628Y-80589761D02*
X107928628Y-80208809D01*
X108404819Y-81351666D02*
X108357200Y-81256428D01*
X108357200Y-81256428D02*
X108309580Y-81208809D01*
X108309580Y-81208809D02*
X108214342Y-81161190D01*
X108214342Y-81161190D02*
X107928628Y-81161190D01*
X107928628Y-81161190D02*
X107833390Y-81208809D01*
X107833390Y-81208809D02*
X107785771Y-81256428D01*
X107785771Y-81256428D02*
X107738152Y-81351666D01*
X107738152Y-81351666D02*
X107738152Y-81494523D01*
X107738152Y-81494523D02*
X107785771Y-81589761D01*
X107785771Y-81589761D02*
X107833390Y-81637380D01*
X107833390Y-81637380D02*
X107928628Y-81684999D01*
X107928628Y-81684999D02*
X108214342Y-81684999D01*
X108214342Y-81684999D02*
X108309580Y-81637380D01*
X108309580Y-81637380D02*
X108357200Y-81589761D01*
X108357200Y-81589761D02*
X108404819Y-81494523D01*
X108404819Y-81494523D02*
X108404819Y-81351666D01*
X108404819Y-82113571D02*
X107404819Y-82113571D01*
X107785771Y-82113571D02*
X107738152Y-82208809D01*
X107738152Y-82208809D02*
X107738152Y-82399285D01*
X107738152Y-82399285D02*
X107785771Y-82494523D01*
X107785771Y-82494523D02*
X107833390Y-82542142D01*
X107833390Y-82542142D02*
X107928628Y-82589761D01*
X107928628Y-82589761D02*
X108214342Y-82589761D01*
X108214342Y-82589761D02*
X108309580Y-82542142D01*
X108309580Y-82542142D02*
X108357200Y-82494523D01*
X108357200Y-82494523D02*
X108404819Y-82399285D01*
X108404819Y-82399285D02*
X108404819Y-82208809D01*
X108404819Y-82208809D02*
X108357200Y-82113571D01*
X108404819Y-83161190D02*
X108357200Y-83065952D01*
X108357200Y-83065952D02*
X108309580Y-83018333D01*
X108309580Y-83018333D02*
X108214342Y-82970714D01*
X108214342Y-82970714D02*
X107928628Y-82970714D01*
X107928628Y-82970714D02*
X107833390Y-83018333D01*
X107833390Y-83018333D02*
X107785771Y-83065952D01*
X107785771Y-83065952D02*
X107738152Y-83161190D01*
X107738152Y-83161190D02*
X107738152Y-83304047D01*
X107738152Y-83304047D02*
X107785771Y-83399285D01*
X107785771Y-83399285D02*
X107833390Y-83446904D01*
X107833390Y-83446904D02*
X107928628Y-83494523D01*
X107928628Y-83494523D02*
X108214342Y-83494523D01*
X108214342Y-83494523D02*
X108309580Y-83446904D01*
X108309580Y-83446904D02*
X108357200Y-83399285D01*
X108357200Y-83399285D02*
X108404819Y-83304047D01*
X108404819Y-83304047D02*
X108404819Y-83161190D01*
X107738152Y-83780238D02*
X107738152Y-84161190D01*
X107404819Y-83923095D02*
X108261961Y-83923095D01*
X108261961Y-83923095D02*
X108357200Y-83970714D01*
X108357200Y-83970714D02*
X108404819Y-84065952D01*
X108404819Y-84065952D02*
X108404819Y-84161190D01*
X108404819Y-84494524D02*
X107738152Y-84494524D01*
X107404819Y-84494524D02*
X107452438Y-84446905D01*
X107452438Y-84446905D02*
X107500057Y-84494524D01*
X107500057Y-84494524D02*
X107452438Y-84542143D01*
X107452438Y-84542143D02*
X107404819Y-84494524D01*
X107404819Y-84494524D02*
X107500057Y-84494524D01*
X108357200Y-85399285D02*
X108404819Y-85304047D01*
X108404819Y-85304047D02*
X108404819Y-85113571D01*
X108404819Y-85113571D02*
X108357200Y-85018333D01*
X108357200Y-85018333D02*
X108309580Y-84970714D01*
X108309580Y-84970714D02*
X108214342Y-84923095D01*
X108214342Y-84923095D02*
X107928628Y-84923095D01*
X107928628Y-84923095D02*
X107833390Y-84970714D01*
X107833390Y-84970714D02*
X107785771Y-85018333D01*
X107785771Y-85018333D02*
X107738152Y-85113571D01*
X107738152Y-85113571D02*
X107738152Y-85304047D01*
X107738152Y-85304047D02*
X107785771Y-85399285D01*
X108357200Y-85780238D02*
X108404819Y-85875476D01*
X108404819Y-85875476D02*
X108404819Y-86065952D01*
X108404819Y-86065952D02*
X108357200Y-86161190D01*
X108357200Y-86161190D02*
X108261961Y-86208809D01*
X108261961Y-86208809D02*
X108214342Y-86208809D01*
X108214342Y-86208809D02*
X108119104Y-86161190D01*
X108119104Y-86161190D02*
X108071485Y-86065952D01*
X108071485Y-86065952D02*
X108071485Y-85923095D01*
X108071485Y-85923095D02*
X108023866Y-85827857D01*
X108023866Y-85827857D02*
X107928628Y-85780238D01*
X107928628Y-85780238D02*
X107881009Y-85780238D01*
X107881009Y-85780238D02*
X107785771Y-85827857D01*
X107785771Y-85827857D02*
X107738152Y-85923095D01*
X107738152Y-85923095D02*
X107738152Y-86065952D01*
X107738152Y-86065952D02*
X107785771Y-86161190D01*
X120850819Y-83399333D02*
X120374628Y-83066000D01*
X120850819Y-82827905D02*
X119850819Y-82827905D01*
X119850819Y-82827905D02*
X119850819Y-83208857D01*
X119850819Y-83208857D02*
X119898438Y-83304095D01*
X119898438Y-83304095D02*
X119946057Y-83351714D01*
X119946057Y-83351714D02*
X120041295Y-83399333D01*
X120041295Y-83399333D02*
X120184152Y-83399333D01*
X120184152Y-83399333D02*
X120279390Y-83351714D01*
X120279390Y-83351714D02*
X120327009Y-83304095D01*
X120327009Y-83304095D02*
X120374628Y-83208857D01*
X120374628Y-83208857D02*
X120374628Y-82827905D01*
X120850819Y-84351714D02*
X120850819Y-83780286D01*
X120850819Y-84066000D02*
X119850819Y-84066000D01*
X119850819Y-84066000D02*
X119993676Y-83970762D01*
X119993676Y-83970762D02*
X120088914Y-83875524D01*
X120088914Y-83875524D02*
X120136533Y-83780286D01*
X120850819Y-79271905D02*
X119850819Y-79271905D01*
X119850819Y-79271905D02*
X119850819Y-79510000D01*
X119850819Y-79510000D02*
X119898438Y-79652857D01*
X119898438Y-79652857D02*
X119993676Y-79748095D01*
X119993676Y-79748095D02*
X120088914Y-79795714D01*
X120088914Y-79795714D02*
X120279390Y-79843333D01*
X120279390Y-79843333D02*
X120422247Y-79843333D01*
X120422247Y-79843333D02*
X120612723Y-79795714D01*
X120612723Y-79795714D02*
X120707961Y-79748095D01*
X120707961Y-79748095D02*
X120803200Y-79652857D01*
X120803200Y-79652857D02*
X120850819Y-79510000D01*
X120850819Y-79510000D02*
X120850819Y-79271905D01*
X120850819Y-80795714D02*
X120850819Y-80224286D01*
X120850819Y-80510000D02*
X119850819Y-80510000D01*
X119850819Y-80510000D02*
X119993676Y-80414762D01*
X119993676Y-80414762D02*
X120088914Y-80319524D01*
X120088914Y-80319524D02*
X120136533Y-80224286D01*
X123914819Y-77914523D02*
X123914819Y-77438333D01*
X123914819Y-77438333D02*
X124391009Y-77390714D01*
X124391009Y-77390714D02*
X124343390Y-77438333D01*
X124343390Y-77438333D02*
X124295771Y-77533571D01*
X124295771Y-77533571D02*
X124295771Y-77771666D01*
X124295771Y-77771666D02*
X124343390Y-77866904D01*
X124343390Y-77866904D02*
X124391009Y-77914523D01*
X124391009Y-77914523D02*
X124486247Y-77962142D01*
X124486247Y-77962142D02*
X124724342Y-77962142D01*
X124724342Y-77962142D02*
X124819580Y-77914523D01*
X124819580Y-77914523D02*
X124867200Y-77866904D01*
X124867200Y-77866904D02*
X124914819Y-77771666D01*
X124914819Y-77771666D02*
X124914819Y-77533571D01*
X124914819Y-77533571D02*
X124867200Y-77438333D01*
X124867200Y-77438333D02*
X124819580Y-77390714D01*
X123914819Y-78247857D02*
X124914819Y-78581190D01*
X124914819Y-78581190D02*
X123914819Y-78914523D01*
D11*
%TO.C,R1*%
X121820000Y-83769564D02*
X121820000Y-83315436D01*
X123290000Y-83769564D02*
X123290000Y-83315436D01*
%TO.C,D1*%
X123465000Y-77377936D02*
X123465000Y-78832064D01*
X121645000Y-77377936D02*
X121645000Y-78832064D01*
%TD*%
M02*
