<?xml version="1.0" standalone="no"?>
 <!DOCTYPE svg PUBLIC "-//W3C//DTD SVG 1.1//EN" 
 "http://www.w3.org/Graphics/SVG/1.1/DTD/svg11.dtd"> 
<svg
  xmlns:svg="http://www.w3.org/2000/svg"
  xmlns="http://www.w3.org/2000/svg"
  xmlns:xlink="http://www.w3.org/1999/xlink"
  version="1.1"
  width="431.8000mm" height="279.4000mm" viewBox="0.0000 0.0000 431.8000 279.4000">
<title>SVG Image created as mag-encoder-F_Silkscreen.svg date 2024/08/30 21:05:36 </title>
  <desc>Image generated by PCBNEW </desc>
<g style="fill:#000000; fill-opacity:1.0000;stroke:#000000; stroke-opacity:1.0000;
stroke-linecap:round; stroke-linejoin:round;"
 transform="translate(0 0) scale(1 1)">
</g>
<g style="fill:none; 
stroke:#000000; stroke-width:0.1524; stroke-opacity:1; 
stroke-linecap:round; stroke-linejoin:round;">
<g transform="rotate(-90.000000 224.8916 130.2258)">
<text x="224.8916" y="130.2258"
textLength="1.1261" font-size="1.1853" lengthAdjust="spacingAndGlyphs"
text-anchor="middle" opacity="0" stroke-opacity="0">5</text>
</g>
<g class="stroked-text"><desc>5</desc>
<path d="M223.8859 130.0141
L223.8859 130.4375
" />
<path d="M223.8859 130.4375
L224.3092 130.4798
" />
<path d="M224.3092 130.4798
L224.2669 130.4375
" />
<path d="M224.2669 130.4375
L224.2245 130.3528
" />
<path d="M224.2245 130.3528
L224.2245 130.1411
" />
<path d="M224.2245 130.1411
L224.2669 130.0565
" />
<path d="M224.2669 130.0565
L224.3092 130.0141
" />
<path d="M224.3092 130.0141
L224.3939 129.9718
" />
<path d="M224.3939 129.9718
L224.6055 129.9718
" />
<path d="M224.6055 129.9718
L224.6902 130.0141
" />
<path d="M224.6902 130.0141
L224.7325 130.0565
" />
<path d="M224.7325 130.0565
L224.7749 130.1411
" />
<path d="M224.7749 130.1411
L224.7749 130.3528
" />
<path d="M224.7749 130.3528
L224.7325 130.4375
" />
<path d="M224.7325 130.4375
L224.6902 130.4798
" />
</g><g transform="rotate(-90.000000 224.9170 116.9416)">
<text x="224.9170" y="116.9416"
textLength="1.1261" font-size="1.1853" lengthAdjust="spacingAndGlyphs"
text-anchor="middle" opacity="0" stroke-opacity="0">1</text>
</g>
<g class="stroked-text"><desc>1</desc>
<path d="M224.8003 116.6876
L224.8003 117.1956
" />
<path d="M224.8003 116.9416
L223.9113 116.9416
" />
<path d="M223.9113 116.9416
L224.0383 117.0263
" />
<path d="M224.0383 117.0263
L224.1229 117.1109
" />
<path d="M224.1229 117.1109
L224.1653 117.1956
" />
</g></g>
<g style="fill:none; 
stroke:#000000; stroke-width:0.1000; stroke-opacity:1; 
stroke-linecap:round; stroke-linejoin:round;">
<path d="M229.2350 130.8100
L228.9556 131.0386
" />
<path d="M229.2350 130.8100
L228.9556 130.5814
" />
<path d="M226.7966 130.8100
L229.2350 130.8100
" />
</g>
<g style="fill:none; 
stroke:#000000; stroke-width:0.1270; stroke-opacity:1; 
stroke-linecap:round; stroke-linejoin:round;">
<text x="227.9142" y="114.4143"
textLength="1.3426" font-size="0.8467" lengthAdjust="spacingAndGlyphs"
text-anchor="middle" opacity="0" stroke-opacity="0">J2</text>
<g class="stroked-text"><desc>J2</desc>
<path d="M227.7025 113.7490
L227.7025 114.2025
" />
<path d="M227.7025 114.2025
L227.6723 114.2932
" />
<path d="M227.6723 114.2932
L227.6118 114.3537
" />
<path d="M227.6118 114.3537
L227.5211 114.3840
" />
<path d="M227.5211 114.3840
L227.4606 114.3840
" />
<path d="M227.9747 113.8094
L228.0049 113.7792
" />
<path d="M228.0049 113.7792
L228.0654 113.7490
" />
<path d="M228.0654 113.7490
L228.2166 113.7490
" />
<path d="M228.2166 113.7490
L228.2771 113.7792
" />
<path d="M228.2771 113.7792
L228.3073 113.8094
" />
<path d="M228.3073 113.8094
L228.3375 113.8699
" />
<path d="M228.3375 113.8699
L228.3375 113.9304
" />
<path d="M228.3375 113.9304
L228.3073 114.0211
" />
<path d="M228.3073 114.0211
L227.9444 114.3840
" />
<path d="M227.9444 114.3840
L228.3375 114.3840
" />
</g><g transform="rotate(-90.000000 228.7524 113.0046)">
<text x="228.7524" y="113.3221"
textLength="1.4938" font-size="0.8467" lengthAdjust="spacingAndGlyphs"
text-anchor="middle" opacity="0" stroke-opacity="0">D1</text>
</g>
<g class="stroked-text"><desc>D1</desc>
<path d="M229.0396 113.4733
L228.4046 113.4733
" />
<path d="M228.4046 113.4733
L228.4046 113.3221
" />
<path d="M228.4046 113.3221
L228.4348 113.2314
" />
<path d="M228.4348 113.2314
L228.4953 113.1709
" />
<path d="M228.4953 113.1709
L228.5557 113.1407
" />
<path d="M228.5557 113.1407
L228.6767 113.1104
" />
<path d="M228.6767 113.1104
L228.7674 113.1104
" />
<path d="M228.7674 113.1104
L228.8884 113.1407
" />
<path d="M228.8884 113.1407
L228.9488 113.1709
" />
<path d="M228.9488 113.1709
L229.0093 113.2314
" />
<path d="M229.0093 113.2314
L229.0396 113.3221
" />
<path d="M229.0396 113.3221
L229.0396 113.4733
" />
<path d="M229.0396 112.5057
L229.0396 112.8685
" />
<path d="M229.0396 112.6871
L228.4046 112.6871
" />
<path d="M228.4046 112.6871
L228.4953 112.7476
" />
<path d="M228.4953 112.7476
L228.5557 112.8081
" />
<path d="M228.5557 112.8081
L228.5860 112.8685
" />
</g><text x="229.9970" y="111.0361"
textLength="1.5845" font-size="0.8467" lengthAdjust="spacingAndGlyphs"
text-anchor="middle" opacity="0" stroke-opacity="0">ON</text>
<g class="stroked-text"><desc>ON</desc>
<path d="M229.6039 110.3708
L229.7249 110.3708
" />
<path d="M229.7249 110.3708
L229.7853 110.4010
" />
<path d="M229.7853 110.4010
L229.8458 110.4615
" />
<path d="M229.8458 110.4615
L229.8760 110.5824
" />
<path d="M229.8760 110.5824
L229.8760 110.7941
" />
<path d="M229.8760 110.7941
L229.8458 110.9150
" />
<path d="M229.8458 110.9150
L229.7853 110.9755
" />
<path d="M229.7853 110.9755
L229.7249 111.0058
" />
<path d="M229.7249 111.0058
L229.6039 111.0058
" />
<path d="M229.6039 111.0058
L229.5434 110.9755
" />
<path d="M229.5434 110.9755
L229.4830 110.9150
" />
<path d="M229.4830 110.9150
L229.4527 110.7941
" />
<path d="M229.4527 110.7941
L229.4527 110.5824
" />
<path d="M229.4527 110.5824
L229.4830 110.4615
" />
<path d="M229.4830 110.4615
L229.5434 110.4010
" />
<path d="M229.5434 110.4010
L229.6039 110.3708
" />
<path d="M230.1482 111.0058
L230.1482 110.3708
" />
<path d="M230.1482 110.3708
L230.5110 111.0058
" />
<path d="M230.5110 111.0058
L230.5110 110.3708
" />
</g><g transform="rotate(-90.000000 227.2538 131.6990)">
<text x="227.2538" y="132.0165"
textLength="1.4938" font-size="0.8467" lengthAdjust="spacingAndGlyphs"
text-anchor="middle" opacity="0" stroke-opacity="0">D3</text>
</g>
<g class="stroked-text"><desc>D3</desc>
<path d="M227.5410 132.1677
L226.9060 132.1677
" />
<path d="M226.9060 132.1677
L226.9060 132.0165
" />
<path d="M226.9060 132.0165
L226.9362 131.9258
" />
<path d="M226.9362 131.9258
L226.9967 131.8653
" />
<path d="M226.9967 131.8653
L227.0571 131.8351
" />
<path d="M227.0571 131.8351
L227.1781 131.8048
" />
<path d="M227.1781 131.8048
L227.2688 131.8048
" />
<path d="M227.2688 131.8048
L227.3898 131.8351
" />
<path d="M227.3898 131.8351
L227.4502 131.8653
" />
<path d="M227.4502 131.8653
L227.5107 131.9258
" />
<path d="M227.5107 131.9258
L227.5410 132.0165
" />
<path d="M227.5410 132.0165
L227.5410 132.1677
" />
<path d="M226.9060 131.5932
L226.9060 131.2001
" />
<path d="M226.9060 131.2001
L227.1479 131.4117
" />
<path d="M227.1479 131.4117
L227.1479 131.3210
" />
<path d="M227.1479 131.3210
L227.1781 131.2605
" />
<path d="M227.1781 131.2605
L227.2083 131.2303
" />
<path d="M227.2083 131.2303
L227.2688 131.2001
" />
<path d="M227.2688 131.2001
L227.4200 131.2001
" />
<path d="M227.4200 131.2001
L227.4805 131.2303
" />
<path d="M227.4805 131.2303
L227.5107 131.2605
" />
<path d="M227.5107 131.2605
L227.5410 131.3210
" />
<path d="M227.5410 131.3210
L227.5410 131.5025
" />
<path d="M227.5410 131.5025
L227.5107 131.5629
" />
<path d="M227.5107 131.5629
L227.4805 131.5932
" />
</g><g transform="rotate(-90.000000 228.9725 136.2964)">
<text x="228.9725" y="136.6139"
textLength="1.4333" font-size="0.8467" lengthAdjust="spacingAndGlyphs"
text-anchor="middle" opacity="0" stroke-opacity="0">LO</text>
</g>
<g class="stroked-text"><desc>LO</desc>
<path d="M229.2597 136.4325
L229.2597 136.7349
" />
<path d="M229.2597 136.7349
L228.6247 136.7349
" />
<path d="M228.6247 136.0999
L228.6247 135.9789
" />
<path d="M228.6247 135.9789
L228.6549 135.9184
" />
<path d="M228.6549 135.9184
L228.7154 135.8579
" />
<path d="M228.7154 135.8579
L228.8364 135.8277
" />
<path d="M228.8364 135.8277
L229.0480 135.8277
" />
<path d="M229.0480 135.8277
L229.1690 135.8579
" />
<path d="M229.1690 135.8579
L229.2295 135.9184
" />
<path d="M229.2295 135.9184
L229.2597 135.9789
" />
<path d="M229.2597 135.9789
L229.2597 136.0999
" />
<path d="M229.2597 136.0999
L229.2295 136.1603
" />
<path d="M229.2295 136.1603
L229.1690 136.2208
" />
<path d="M229.1690 136.2208
L229.0480 136.2510
" />
<path d="M229.0480 136.2510
L228.8364 136.2510
" />
<path d="M228.8364 136.2510
L228.7154 136.2208
" />
<path d="M228.7154 136.2208
L228.6549 136.1603
" />
<path d="M228.6549 136.1603
L228.6247 136.0999
" />
</g><text x="237.3122" y="134.1247"
textLength="1.5240" font-size="0.8467" lengthAdjust="spacingAndGlyphs"
text-anchor="middle" opacity="0" stroke-opacity="0">Q1</text>
<g class="stroked-text"><desc>Q1</desc>
<path d="M237.2517 134.1548
L237.1912 134.1246
" />
<path d="M237.1912 134.1246
L237.1308 134.0641
" />
<path d="M237.1308 134.0641
L237.0401 133.9734
" />
<path d="M237.0401 133.9734
L236.9796 133.9432
" />
<path d="M236.9796 133.9432
L236.9191 133.9432
" />
<path d="M236.9493 134.0944
L236.8889 134.0641
" />
<path d="M236.8889 134.0641
L236.8284 134.0036
" />
<path d="M236.8284 134.0036
L236.7982 133.8827
" />
<path d="M236.7982 133.8827
L236.7982 133.6710
" />
<path d="M236.7982 133.6710
L236.8284 133.5501
" />
<path d="M236.8284 133.5501
L236.8889 133.4896
" />
<path d="M236.8889 133.4896
L236.9493 133.4594
" />
<path d="M236.9493 133.4594
L237.0703 133.4594
" />
<path d="M237.0703 133.4594
L237.1308 133.4896
" />
<path d="M237.1308 133.4896
L237.1912 133.5501
" />
<path d="M237.1912 133.5501
L237.2215 133.6710
" />
<path d="M237.2215 133.6710
L237.2215 133.8827
" />
<path d="M237.2215 133.8827
L237.1912 134.0036
" />
<path d="M237.1912 134.0036
L237.1308 134.0641
" />
<path d="M237.1308 134.0641
L237.0703 134.0944
" />
<path d="M237.0703 134.0944
L236.9493 134.0944
" />
<path d="M237.8262 134.0944
L237.4634 134.0944
" />
<path d="M237.6448 134.0944
L237.6448 133.4594
" />
<path d="M237.6448 133.4594
L237.5843 133.5501
" />
<path d="M237.5843 133.5501
L237.5239 133.6105
" />
<path d="M237.5239 133.6105
L237.4634 133.6408
" />
</g><text x="234.0864" y="112.2299"
textLength="1.5240" font-size="0.8467" lengthAdjust="spacingAndGlyphs"
text-anchor="middle" opacity="0" stroke-opacity="0">U1</text>
<g class="stroked-text"><desc>U1</desc>
<path d="M233.6026 111.5646
L233.6026 112.0786
" />
<path d="M233.6026 112.0786
L233.6328 112.1391
" />
<path d="M233.6328 112.1391
L233.6631 112.1693
" />
<path d="M233.6631 112.1693
L233.7235 112.1996
" />
<path d="M233.7235 112.1996
L233.8445 112.1996
" />
<path d="M233.8445 112.1996
L233.9050 112.1693
" />
<path d="M233.9050 112.1693
L233.9352 112.1391
" />
<path d="M233.9352 112.1391
L233.9654 112.0786
" />
<path d="M233.9654 112.0786
L233.9654 111.5646
" />
<path d="M234.6004 112.1996
L234.2376 112.1996
" />
<path d="M234.4190 112.1996
L234.4190 111.5646
" />
<path d="M234.4190 111.5646
L234.3585 111.6553
" />
<path d="M234.3585 111.6553
L234.2981 111.7157
" />
<path d="M234.2981 111.7157
L234.2376 111.7460
" />
</g><g transform="rotate(-90.000000 228.1174 131.6990)">
<text x="228.1174" y="132.0165"
textLength="1.4938" font-size="0.8467" lengthAdjust="spacingAndGlyphs"
text-anchor="middle" opacity="0" stroke-opacity="0">D4</text>
</g>
<g class="stroked-text"><desc>D4</desc>
<path d="M228.4046 132.1677
L227.7696 132.1677
" />
<path d="M227.7696 132.1677
L227.7696 132.0165
" />
<path d="M227.7696 132.0165
L227.7998 131.9258
" />
<path d="M227.7998 131.9258
L227.8603 131.8653
" />
<path d="M227.8603 131.8653
L227.9207 131.8351
" />
<path d="M227.9207 131.8351
L228.0417 131.8048
" />
<path d="M228.0417 131.8048
L228.1324 131.8048
" />
<path d="M228.1324 131.8048
L228.2534 131.8351
" />
<path d="M228.2534 131.8351
L228.3138 131.8653
" />
<path d="M228.3138 131.8653
L228.3743 131.9258
" />
<path d="M228.3743 131.9258
L228.4046 132.0165
" />
<path d="M228.4046 132.0165
L228.4046 132.1677
" />
<path d="M227.9812 131.2605
L228.4046 131.2605
" />
<path d="M227.7393 131.4117
L228.1929 131.5629
" />
<path d="M228.1929 131.5629
L228.1929 131.1698
" />
</g><g transform="rotate(-90.000000 230.5135 136.2359)">
<text x="230.5135" y="136.5534"
textLength="1.5542" font-size="0.8467" lengthAdjust="spacingAndGlyphs"
text-anchor="middle" opacity="0" stroke-opacity="0">OK</text>
</g>
<g class="stroked-text"><desc>OK</desc>
<path d="M230.1656 136.6139
L230.1656 136.4929
" />
<path d="M230.1656 136.4929
L230.1959 136.4325
" />
<path d="M230.1959 136.4325
L230.2563 136.3720
" />
<path d="M230.2563 136.3720
L230.3773 136.3418
" />
<path d="M230.3773 136.3418
L230.5890 136.3418
" />
<path d="M230.5890 136.3418
L230.7099 136.3720
" />
<path d="M230.7099 136.3720
L230.7704 136.4325
" />
<path d="M230.7704 136.4325
L230.8006 136.4929
" />
<path d="M230.8006 136.4929
L230.8006 136.6139
" />
<path d="M230.8006 136.6139
L230.7704 136.6744
" />
<path d="M230.7704 136.6744
L230.7099 136.7349
" />
<path d="M230.7099 136.7349
L230.5890 136.7651
" />
<path d="M230.5890 136.7651
L230.3773 136.7651
" />
<path d="M230.3773 136.7651
L230.2563 136.7349
" />
<path d="M230.2563 136.7349
L230.1959 136.6744
" />
<path d="M230.1959 136.6744
L230.1656 136.6139
" />
<path d="M230.8006 136.0696
L230.1656 136.0696
" />
<path d="M230.8006 135.7068
L230.4378 135.9789
" />
<path d="M230.1656 135.7068
L230.5285 136.0696
" />
</g><text x="221.4626" y="132.2451"
textLength="1.3426" font-size="0.8467" lengthAdjust="spacingAndGlyphs"
text-anchor="middle" opacity="0" stroke-opacity="0">J1</text>
<g class="stroked-text"><desc>J1</desc>
<path d="M221.2509 131.5798
L221.2509 132.0333
" />
<path d="M221.2509 132.0333
L221.2207 132.1240
" />
<path d="M221.2207 132.1240
L221.1602 132.1845
" />
<path d="M221.1602 132.1845
L221.0695 132.2148
" />
<path d="M221.0695 132.2148
L221.0090 132.2148
" />
<path d="M221.8859 132.2148
L221.5231 132.2148
" />
<path d="M221.7045 132.2148
L221.7045 131.5798
" />
<path d="M221.7045 131.5798
L221.6440 131.6705
" />
<path d="M221.6440 131.6705
L221.5836 131.7309
" />
<path d="M221.5836 131.7309
L221.5231 131.7612
" />
</g><text x="236.2200" y="112.5347"
textLength="1.4938" font-size="0.8467" lengthAdjust="spacingAndGlyphs"
text-anchor="middle" opacity="0" stroke-opacity="0">D2</text>
<g class="stroked-text"><desc>D2</desc>
<path d="M235.7513 112.5044
L235.7513 111.8694
" />
<path d="M235.7513 111.8694
L235.9025 111.8694
" />
<path d="M235.9025 111.8694
L235.9932 111.8996
" />
<path d="M235.9932 111.8996
L236.0537 111.9601
" />
<path d="M236.0537 111.9601
L236.0839 112.0205
" />
<path d="M236.0839 112.0205
L236.1142 112.1415
" />
<path d="M236.1142 112.1415
L236.1142 112.2322
" />
<path d="M236.1142 112.2322
L236.0839 112.3532
" />
<path d="M236.0839 112.3532
L236.0537 112.4136
" />
<path d="M236.0537 112.4136
L235.9932 112.4741
" />
<path d="M235.9932 112.4741
L235.9025 112.5044
" />
<path d="M235.9025 112.5044
L235.7513 112.5044
" />
<path d="M236.3561 111.9298
L236.3863 111.8996
" />
<path d="M236.3863 111.8996
L236.4468 111.8694
" />
<path d="M236.4468 111.8694
L236.5980 111.8694
" />
<path d="M236.5980 111.8694
L236.6585 111.8996
" />
<path d="M236.6585 111.8996
L236.6887 111.9298
" />
<path d="M236.6887 111.9298
L236.7189 111.9903
" />
<path d="M236.7189 111.9903
L236.7189 112.0508
" />
<path d="M236.7189 112.0508
L236.6887 112.1415
" />
<path d="M236.6887 112.1415
L236.3258 112.5044
" />
<path d="M236.3258 112.5044
L236.7189 112.5044
" />
</g><g transform="rotate(-90.000000 228.9810 131.6990)">
<text x="228.9810" y="132.0165"
textLength="1.4938" font-size="0.8467" lengthAdjust="spacingAndGlyphs"
text-anchor="middle" opacity="0" stroke-opacity="0">D5</text>
</g>
<g class="stroked-text"><desc>D5</desc>
<path d="M229.2682 132.1677
L228.6332 132.1677
" />
<path d="M228.6332 132.1677
L228.6332 132.0165
" />
<path d="M228.6332 132.0165
L228.6634 131.9258
" />
<path d="M228.6634 131.9258
L228.7239 131.8653
" />
<path d="M228.7239 131.8653
L228.7843 131.8351
" />
<path d="M228.7843 131.8351
L228.9053 131.8048
" />
<path d="M228.9053 131.8048
L228.9960 131.8048
" />
<path d="M228.9960 131.8048
L229.1170 131.8351
" />
<path d="M229.1170 131.8351
L229.1774 131.8653
" />
<path d="M229.1774 131.8653
L229.2379 131.9258
" />
<path d="M229.2379 131.9258
L229.2682 132.0165
" />
<path d="M229.2682 132.0165
L229.2682 132.1677
" />
<path d="M228.6332 131.2303
L228.6332 131.5327
" />
<path d="M228.6332 131.5327
L228.9355 131.5629
" />
<path d="M228.9355 131.5629
L228.9053 131.5327
" />
<path d="M228.9053 131.5327
L228.8751 131.4722
" />
<path d="M228.8751 131.4722
L228.8751 131.3210
" />
<path d="M228.8751 131.3210
L228.9053 131.2605
" />
<path d="M228.9053 131.2605
L228.9355 131.2303
" />
<path d="M228.9355 131.2303
L228.9960 131.2001
" />
<path d="M228.9960 131.2001
L229.1472 131.2001
" />
<path d="M229.1472 131.2001
L229.2077 131.2303
" />
<path d="M229.2077 131.2303
L229.2379 131.2605
" />
<path d="M229.2379 131.2605
L229.2682 131.3210
" />
<path d="M229.2682 131.3210
L229.2682 131.4722
" />
<path d="M229.2682 131.4722
L229.2379 131.5327
" />
<path d="M229.2379 131.5327
L229.2077 131.5629
" />
</g><g transform="rotate(-90.000000 232.0036 136.4022)">
<text x="232.0036" y="136.7197"
textLength="1.2216" font-size="0.8467" lengthAdjust="spacingAndGlyphs"
text-anchor="middle" opacity="0" stroke-opacity="0">HI</text>
</g>
<g class="stroked-text"><desc>HI</desc>
<path d="M232.2908 136.7349
L231.6558 136.7349
" />
<path d="M231.9581 136.7349
L231.9581 136.3720
" />
<path d="M232.2908 136.3720
L231.6558 136.3720
" />
<path d="M232.2908 136.0696
L231.6558 136.0696
" />
</g></g>
<g style="fill:none; 
stroke:#000000; stroke-width:0.1200; stroke-opacity:1; 
stroke-linecap:round; stroke-linejoin:round;">
<path d="M230.7320 113.8300
L230.7320 111.5450
" />
<path d="M230.7320 111.5450
L229.2620 111.5450
" />
<path d="M229.2620 111.5450
L229.2620 113.8300
" />
<path d="M229.7160 135.2160
L229.7160 132.9310
" />
<path d="M228.2460 135.2160
L229.7160 135.2160
" />
<path d="M228.2460 132.9310
L228.2460 135.2160
" />
<path d="M236.2560 134.1120
L236.2560 134.7620
" />
<path d="M236.2560 134.1120
L236.2560 133.4620
" />
<path d="M233.1360 134.1120
L233.1360 134.7620
" />
<path d="M233.1360 134.1120
L233.1360 133.4620
" />
<path style="fill:#000000; fill-opacity:1.0000; 
stroke:#000000; stroke-width:0.1200; stroke-opacity:1; 
stroke-linecap:round; stroke-linejoin:round;fill-rule:evenodd;"
d="M 236.5360,133.1895
236.2060,132.9495
236.5360,132.7095
Z" /> 
</g>
<g style="fill:none; 
stroke:#000000; stroke-width:0.1200; stroke-opacity:1; 
stroke-linecap:round; stroke-linejoin:round;">
<path d="M231.0532 113.0300
L231.0532 112.3800
" />
<path d="M231.0532 113.0300
L231.0532 113.6800
" />
<path d="M234.1732 113.0300
L234.1732 112.3800
" />
<path d="M234.1732 113.0300
L234.1732 113.6800
" />
<path style="fill:#000000; fill-opacity:1.0000; 
stroke:#000000; stroke-width:0.1200; stroke-opacity:1; 
stroke-linecap:round; stroke-linejoin:round;fill-rule:evenodd;"
d="M 231.1032,114.1925
230.7732,114.4325
230.7732,113.9525
Z" /> 
</g>
<g style="fill:none; 
stroke:#000000; stroke-width:0.1200; stroke-opacity:1; 
stroke-linecap:round; stroke-linejoin:round;">
<path d="M231.2400 135.2160
L231.2400 132.9310
" />
<path d="M229.7700 135.2160
L231.2400 135.2160
" />
<path d="M229.7700 132.9310
L229.7700 135.2160
" />
<path d="M220.0818 115.8910
L221.4118 115.8910
" />
<path d="M220.0818 117.2210
L220.0818 115.8910
" />
<path d="M220.0818 118.4910
L220.0818 131.2510
" />
<path d="M220.0818 118.4910
L222.7418 118.4910
" />
<path d="M220.0818 131.2510
L222.7418 131.2510
" />
<path d="M222.7418 118.4910
L222.7418 131.2510
" />
<path d="M234.3910 112.7920
L234.3910 114.7920
" />
<path d="M234.3910 112.7920
L238.2510 112.7920
" />
<path d="M234.3910 114.7920
L238.2510 114.7920
" />
<path d="M232.7640 135.2160
L232.7640 132.9310
" />
<path d="M231.2940 135.2160
L232.7640 135.2160
" />
<path d="M231.2940 132.9310
L231.2940 135.2160
" />
</g>
<g style="fill:#000000; fill-opacity:1.0000; stroke:none;">
<circle cx="237.1778" cy="130.0510" r="1.7000" /> 
</g>
<g style="fill:#000000; fill-opacity:1.0000; stroke:none;">
<circle cx="237.1778" cy="117.0910" r="1.7000" /> 
</g>
<g style="fill:#000000; fill-opacity:1.0000; stroke:none;">
<circle cx="224.8408" cy="133.0960" r="1.5875" /> 
</g>
<g style="fill:#000000; fill-opacity:1.0000; stroke:none;">
<circle cx="224.8408" cy="114.0460" r="1.5875" /> 
</g>
<g style="fill:#000000; fill-opacity:1.0000; stroke:none;">
<circle cx="221.4118" cy="117.2210" r="0.5000" /> 
</g>
<g style="fill:#000000; fill-opacity:1.0000; stroke:none;">
<circle cx="221.4118" cy="119.7610" r="0.5000" /> 
</g>
<g style="fill:#000000; fill-opacity:1.0000; stroke:none;">
<circle cx="221.4118" cy="122.3010" r="0.5000" /> 
</g>
<g style="fill:#000000; fill-opacity:1.0000; stroke:none;">
<circle cx="221.4118" cy="124.8410" r="0.5000" /> 
</g>
<g style="fill:#000000; fill-opacity:1.0000; stroke:none;">
<circle cx="221.4118" cy="127.3810" r="0.5000" /> 
</g>
<g style="fill:#000000; fill-opacity:1.0000; stroke:none;">
<circle cx="221.4118" cy="129.9210" r="0.5000" /> 
</g>
<g style="fill:#000000; fill-opacity:1.0000; stroke:none;">
<circle cx="237.1778" cy="130.0510" r="1.7000" /> 
</g>
<g style="fill:#000000; fill-opacity:1.0000; stroke:none;">
<circle cx="237.1778" cy="117.0910" r="1.7000" /> 
<path style="fill:#000000; fill-opacity:1.0000; stroke:none;fill-rule:evenodd;"
d="M 223.9441,119.3160
223.8977,119.3068
223.8583,119.2805
223.8320,119.2411
223.8228,119.1947
223.8228,117.7873
223.8320,117.7409
223.8583,117.7015
223.8977,117.6752
223.9441,117.6660
229.0315,117.6660
229.0779,117.6752
229.1173,117.7015
229.1436,117.7409
229.1528,117.7873
229.1528,119.1947
229.1436,119.2411
229.1173,119.2805
229.0779,119.3068
229.0315,119.3160
Z" /> 
<path style="fill:#000000; fill-opacity:1.0000; stroke:none;fill-rule:evenodd;"
d="M 223.9441,121.8560
223.8977,121.8468
223.8583,121.8205
223.8320,121.7811
223.8228,121.7347
223.8228,120.3273
223.8320,120.2809
223.8583,120.2415
223.8977,120.2152
223.9441,120.2060
229.0315,120.2060
229.0779,120.2152
229.1173,120.2415
229.1436,120.2809
229.1528,120.3273
229.1528,121.7347
229.1436,121.7811
229.1173,121.8205
229.0779,121.8468
229.0315,121.8560
Z" /> 
<path style="fill:#000000; fill-opacity:1.0000; stroke:none;fill-rule:evenodd;"
d="M 223.9441,124.3960
223.8977,124.3868
223.8583,124.3605
223.8320,124.3211
223.8228,124.2747
223.8228,122.8673
223.8320,122.8209
223.8583,122.7815
223.8977,122.7552
223.9441,122.7460
229.0315,122.7460
229.0779,122.7552
229.1173,122.7815
229.1436,122.8209
229.1528,122.8673
229.1528,124.2747
229.1436,124.3211
229.1173,124.3605
229.0779,124.3868
229.0315,124.3960
Z" /> 
<path style="fill:#000000; fill-opacity:1.0000; stroke:none;fill-rule:evenodd;"
d="M 223.9441,126.9360
223.8977,126.9268
223.8583,126.9005
223.8320,126.8611
223.8228,126.8147
223.8228,125.4073
223.8320,125.3609
223.8583,125.3215
223.8977,125.2952
223.9441,125.2860
229.0315,125.2860
229.0779,125.2952
229.1173,125.3215
229.1436,125.3609
229.1528,125.4073
229.1528,126.8147
229.1436,126.8611
229.1173,126.9005
229.0779,126.9268
229.0315,126.9360
Z" /> 
<path style="fill:#000000; fill-opacity:1.0000; stroke:none;fill-rule:evenodd;"
d="M 223.9441,129.4760
223.8977,129.4668
223.8583,129.4405
223.8320,129.4011
223.8228,129.3547
223.8228,127.9473
223.8320,127.9009
223.8583,127.8615
223.8977,127.8352
223.9441,127.8260
229.0315,127.8260
229.0779,127.8352
229.1173,127.8615
229.1436,127.9009
229.1528,127.9473
229.1528,129.3547
229.1436,129.4011
229.1173,129.4405
229.0779,129.4668
229.0315,129.4760
Z" /> 
</g>
<g style="fill:#000000; fill-opacity:1.0000; stroke:none;">
<circle cx="224.8408" cy="133.0960" r="1.9050" /> 
</g>
<g style="fill:#000000; fill-opacity:1.0000; stroke:none;">
<circle cx="224.8408" cy="114.0460" r="1.9050" /> 
<path style="fill:#000000; fill-opacity:1.0000; stroke:none;fill-rule:evenodd;"
d="M 230.2532,111.8050
230.3370,111.8217
230.4079,111.8691
230.4553,111.9400
230.4720,112.0237
230.4720,112.4612
230.4553,112.5450
230.4079,112.6159
230.3370,112.6633
230.2532,112.6800
229.7407,112.6800
229.6570,112.6633
229.5861,112.6159
229.5387,112.5450
229.5220,112.4612
229.5220,112.0237
229.5387,111.9400
229.5861,111.8691
229.6570,111.8217
229.7407,111.8050
Z" /> 
<path style="fill:#000000; fill-opacity:1.0000; stroke:none;fill-rule:evenodd;"
d="M 230.2532,113.3800
230.3370,113.3967
230.4079,113.4441
230.4553,113.5150
230.4720,113.5987
230.4720,114.0362
230.4553,114.1200
230.4079,114.1909
230.3370,114.2383
230.2532,114.2550
229.7407,114.2550
229.6570,114.2383
229.5861,114.1909
229.5387,114.1200
229.5220,114.0362
229.5220,113.5987
229.5387,113.5150
229.5861,113.4441
229.6570,113.3967
229.7407,113.3800
Z" /> 
<path style="fill:#000000; fill-opacity:1.0000; stroke:none;fill-rule:evenodd;"
d="M 228.7248,133.3810
228.6410,133.3643
228.5701,133.3169
228.5227,133.2460
228.5060,133.1623
228.5060,132.7248
228.5227,132.6410
228.5701,132.5701
228.6410,132.5227
228.7248,132.5060
229.2372,132.5060
229.3210,132.5227
229.3919,132.5701
229.4393,132.6410
229.4560,132.7248
229.4560,133.1623
229.4393,133.2460
229.3919,133.3169
229.3210,133.3643
229.2372,133.3810
Z" /> 
<path style="fill:#000000; fill-opacity:1.0000; stroke:none;fill-rule:evenodd;"
d="M 228.7248,134.9560
228.6410,134.9393
228.5701,134.8919
228.5227,134.8210
228.5060,134.7372
228.5060,134.2997
228.5227,134.2160
228.5701,134.1451
228.6410,134.0977
228.7248,134.0810
229.2372,134.0810
229.3210,134.0977
229.3919,134.1451
229.4393,134.2160
229.4560,134.2997
229.4560,134.7372
229.4393,134.8210
229.3919,134.8919
229.3210,134.9393
229.2372,134.9560
Z" /> 
<path style="fill:#000000; fill-opacity:1.0000; stroke:none;fill-rule:evenodd;"
d="M 235.7960,132.4370
235.8534,132.4484
235.9021,132.4809
235.9346,132.5296
235.9460,132.5870
235.9460,133.7620
235.9346,133.8194
235.9021,133.8681
235.8534,133.9006
235.7960,133.9120
235.4960,133.9120
235.4386,133.9006
235.3899,133.8681
235.3574,133.8194
235.3460,133.7620
235.3460,132.5870
235.3574,132.5296
235.3899,132.4809
235.4386,132.4484
235.4960,132.4370
Z" /> 
<path style="fill:#000000; fill-opacity:1.0000; stroke:none;fill-rule:evenodd;"
d="M 233.8960,132.4370
233.9534,132.4484
234.0021,132.4809
234.0346,132.5296
234.0460,132.5870
234.0460,133.7620
234.0346,133.8194
234.0021,133.8681
233.9534,133.9006
233.8960,133.9120
233.5960,133.9120
233.5386,133.9006
233.4899,133.8681
233.4574,133.8194
233.4460,133.7620
233.4460,132.5870
233.4574,132.5296
233.4899,132.4809
233.5386,132.4484
233.5960,132.4370
Z" /> 
<path style="fill:#000000; fill-opacity:1.0000; stroke:none;fill-rule:evenodd;"
d="M 234.8460,134.3120
234.9034,134.3234
234.9521,134.3559
234.9846,134.4046
234.9960,134.4620
234.9960,135.6370
234.9846,135.6944
234.9521,135.7431
234.9034,135.7756
234.8460,135.7870
234.5460,135.7870
234.4886,135.7756
234.4399,135.7431
234.4074,135.6944
234.3960,135.6370
234.3960,134.4620
234.4074,134.4046
234.4399,134.3559
234.4886,134.3234
234.5460,134.3120
Z" /> 
<path style="fill:#000000; fill-opacity:1.0000; stroke:none;fill-rule:evenodd;"
d="M 231.5132,114.7050
231.4558,114.6936
231.4071,114.6611
231.3746,114.6124
231.3632,114.5550
231.3632,113.3800
231.3746,113.3226
231.4071,113.2739
231.4558,113.2414
231.5132,113.2300
231.8132,113.2300
231.8706,113.2414
231.9193,113.2739
231.9518,113.3226
231.9632,113.3800
231.9632,114.5550
231.9518,114.6124
231.9193,114.6611
231.8706,114.6936
231.8132,114.7050
Z" /> 
<path style="fill:#000000; fill-opacity:1.0000; stroke:none;fill-rule:evenodd;"
d="M 233.4132,114.7050
233.3558,114.6936
233.3071,114.6611
233.2746,114.6124
233.2632,114.5550
233.2632,113.3800
233.2746,113.3226
233.3071,113.2739
233.3558,113.2414
233.4132,113.2300
233.7132,113.2300
233.7706,113.2414
233.8193,113.2739
233.8518,113.3226
233.8632,113.3800
233.8632,114.5550
233.8518,114.6124
233.8193,114.6611
233.7706,114.6936
233.7132,114.7050
Z" /> 
<path style="fill:#000000; fill-opacity:1.0000; stroke:none;fill-rule:evenodd;"
d="M 232.4632,112.8300
232.4058,112.8186
232.3571,112.7861
232.3246,112.7374
232.3132,112.6800
232.3132,111.5050
232.3246,111.4476
232.3571,111.3989
232.4058,111.3664
232.4632,111.3550
232.7632,111.3550
232.8206,111.3664
232.8693,111.3989
232.9018,111.4476
232.9132,111.5050
232.9132,112.6800
232.9018,112.7374
232.8693,112.7861
232.8206,112.8186
232.7632,112.8300
Z" /> 
<path style="fill:#000000; fill-opacity:1.0000; stroke:none;fill-rule:evenodd;"
d="M 230.2488,133.3810
230.1650,133.3643
230.0941,133.3169
230.0467,133.2460
230.0300,133.1623
230.0300,132.7248
230.0467,132.6410
230.0941,132.5701
230.1650,132.5227
230.2488,132.5060
230.7612,132.5060
230.8450,132.5227
230.9159,132.5701
230.9633,132.6410
230.9800,132.7248
230.9800,133.1623
230.9633,133.2460
230.9159,133.3169
230.8450,133.3643
230.7612,133.3810
Z" /> 
<path style="fill:#000000; fill-opacity:1.0000; stroke:none;fill-rule:evenodd;"
d="M 230.2488,134.9560
230.1650,134.9393
230.0941,134.8919
230.0467,134.8210
230.0300,134.7372
230.0300,134.2997
230.0467,134.2160
230.0941,134.1451
230.1650,134.0977
230.2488,134.0810
230.7612,134.0810
230.8450,134.0977
230.9159,134.1451
230.9633,134.2160
230.9800,134.2997
230.9800,134.7372
230.9633,134.8210
230.9159,134.8919
230.8450,134.9393
230.7612,134.9560
Z" /> 
<path style="fill:#000000; fill-opacity:1.0000; stroke:none;fill-rule:evenodd;"
d="M 220.5618,118.0710
220.5618,116.3710
222.2618,116.3710
222.2618,118.0710
Z" /> 
</g>
<g style="fill:#000000; fill-opacity:1.0000; stroke:none;">
<circle cx="221.4118" cy="119.7610" r="0.8500" /> 
<circle cx="221.4118" cy="122.3010" r="0.8500" /> 
<circle cx="221.4118" cy="124.8410" r="0.8500" /> 
<circle cx="221.4118" cy="127.3810" r="0.8500" /> 
<circle cx="221.4118" cy="129.9210" r="0.8500" /> 
<path style="fill:#000000; fill-opacity:1.0000; stroke:none;fill-rule:evenodd;"
d="M 234.6510,113.4920
234.6700,113.3963
234.7242,113.3152
234.8053,113.2610
234.9010,113.2420
235.5010,113.2420
235.5967,113.2610
235.6778,113.3152
235.7320,113.3963
235.7510,113.4920
235.7510,114.0920
235.7320,114.1877
235.6778,114.2688
235.5967,114.3230
235.5010,114.3420
234.9010,114.3420
234.8053,114.3230
234.7242,114.2688
234.6700,114.1877
234.6510,114.0920
Z" /> 
<path style="fill:#000000; fill-opacity:1.0000; stroke:none;fill-rule:evenodd;"
d="M 237.4510,113.4920
237.4700,113.3963
237.5242,113.3152
237.6053,113.2610
237.7010,113.2420
238.3010,113.2420
238.3967,113.2610
238.4778,113.3152
238.5320,113.3963
238.5510,113.4920
238.5510,114.0920
238.5320,114.1877
238.4778,114.2688
238.3967,114.3230
238.3010,114.3420
237.7010,114.3420
237.6053,114.3230
237.5242,114.2688
237.4700,114.1877
237.4510,114.0920
Z" /> 
<path style="fill:#000000; fill-opacity:1.0000; stroke:none;fill-rule:evenodd;"
d="M 231.7728,133.3810
231.6890,133.3643
231.6181,133.3169
231.5707,133.2460
231.5540,133.1623
231.5540,132.7248
231.5707,132.6410
231.6181,132.5701
231.6890,132.5227
231.7728,132.5060
232.2852,132.5060
232.3690,132.5227
232.4399,132.5701
232.4873,132.6410
232.5040,132.7248
232.5040,133.1623
232.4873,133.2460
232.4399,133.3169
232.3690,133.3643
232.2852,133.3810
Z" /> 
<path style="fill:#000000; fill-opacity:1.0000; stroke:none;fill-rule:evenodd;"
d="M 231.7728,134.9560
231.6890,134.9393
231.6181,134.8919
231.5707,134.8210
231.5540,134.7372
231.5540,134.2997
231.5707,134.2160
231.6181,134.1451
231.6890,134.0977
231.7728,134.0810
232.2852,134.0810
232.3690,134.0977
232.4399,134.1451
232.4873,134.2160
232.5040,134.2997
232.5040,134.7372
232.4873,134.8210
232.4399,134.8919
232.3690,134.9393
232.2852,134.9560
Z" /> 
</g>
<g style="fill:none; 
stroke:#000000; stroke-width:0.0500; stroke-opacity:1; 
stroke-linecap:round; stroke-linejoin:round;">
<path d="M219.6400 132.2148 A13.9316 13.9316 0.0 0 0 241.4778 132.2070" />
<path d="M241.4778 114.9350 A13.9159 13.9159 0.0 0 0 219.6338 114.9350" />
<path d="M241.4778 114.9350
L241.4778 132.2070
" />
<path d="M219.6338 114.9350
L219.6338 132.2070
" />
</g>
<g style="fill:#000000; fill-opacity:1.0000; stroke:none;">
<circle cx="237.1778" cy="130.0510" r="1.7000" /> 
</g>
<g style="fill:#000000; fill-opacity:1.0000; stroke:none;">
<circle cx="237.1778" cy="117.0910" r="1.7000" /> 
</g>
<g style="fill:#000000; fill-opacity:1.0000; stroke:none;">
<circle cx="224.8408" cy="133.0960" r="1.5875" /> 
</g>
<g style="fill:#000000; fill-opacity:1.0000; stroke:none;">
<circle cx="224.8408" cy="114.0460" r="1.5875" /> 
</g>
<g style="fill:#000000; fill-opacity:1.0000; stroke:none;">
<circle cx="221.4118" cy="117.2210" r="0.5000" /> 
</g>
<g style="fill:#000000; fill-opacity:1.0000; stroke:none;">
<circle cx="221.4118" cy="119.7610" r="0.5000" /> 
</g>
<g style="fill:#000000; fill-opacity:1.0000; stroke:none;">
<circle cx="221.4118" cy="122.3010" r="0.5000" /> 
</g>
<g style="fill:#000000; fill-opacity:1.0000; stroke:none;">
<circle cx="221.4118" cy="124.8410" r="0.5000" /> 
</g>
<g style="fill:#000000; fill-opacity:1.0000; stroke:none;">
<circle cx="221.4118" cy="127.3810" r="0.5000" /> 
</g>
<g style="fill:#000000; fill-opacity:1.0000; stroke:none;">
<circle cx="221.4118" cy="129.9210" r="0.5000" /> 
</g> 
</svg>
