  0
SECTION
  2
HEADER
  9
$ANGBASE
  50
0.0
  9
$ANGDIR
  70
1
  9
$MEASUREMENT
  70
0
  0
ENDSEC
  0
SECTION
  2
TABLES
  0
TABLE
  2
LTYPE
  70
4
  0
LTYPE
  5
40F
  2
CONTINUOUS
  70
0
  3
Solid line
  72
65
  73
0
  40
0.0
  0
LTYPE
  5
410
  2
DASHDOT
 70
0
  3
Dash Dot ____ _ ____ _
 72
65
 73
4
 40
2.0
 49
1.25
 49
-0.25
 49
0.25
 49
-0.25
  0
LTYPE
  5
411
  2
DASHED
 70
0
  3
Dashed __ __ __ __ __
 72
65
 73
2
 40
0.75
 49
0.5
 49
-0.25
  0
LTYPE
  5
43B
  2
DOTTED
 70
0
  3
Dotted .  .  .  .
 72
65
 73
2
 40
0.2
 49
0.0
 49
-0.2
  0
ENDTAB
  0
TABLE
  2
STYLE
  70
4
  0
STYLE
  2
KICAD
  70
0
  40
0
  41
1
  42
1
  50
0
  71
0
  3
isocp.shx
  0
STYLE
  2
KICADB
  70
0
  40
0
  41
1
  42
1
  50
0
  71
0
  3
isocp.shx
  0
STYLE
  2
KICADI
  70
0
  40
0
  41
1
  42
1
  50
15
  71
0
  3
isocp.shx
  0
STYLE
  2
KICADBI
  70
0
  40
0
  41
1
  42
1
  50
15
  71
0
  3
isocp.shx
  0
ENDTAB
  0
TABLE
  2
LAYER
  70
1
  0
LAYER
  2
BLACK
  70
0
  62
7
  6
CONTINUOUS
  0
ENDTAB
  0
ENDSEC
  0
SECTION
  2
ENTITIES
0
LINE
8
BLACK
6
CONTINUOUS
10
9.5069999999999997
20
-4.5249999999999995
11
9.5069999999999997
21
-5.2050000000000001
0
LINE
8
BLACK
6
CONTINUOUS
10
8.6470000000000002
20
-4.5249999999999995
11
8.6470000000000002
21
-5.2050000000000001
0
ARC
8
BLACK
10
9.077
20
-4.8644999999999996
40
0.5484890609665793
50
-141.58476568
51
-38.37431058
0
ARC
8
BLACK
10
9.077
20
-4.8644999999999996
40
0.5478688255412969
50
38.29232326
51
141.70767674
0
LINE
8
BLACK
6
CONTINUOUS
10
8.9890944881889769
20
-4.5380944881889764
11
9.0009055118110233
21
-4.5499055118110237
0
LINE
8
BLACK
6
CONTINUOUS
10
9.0009055118110233
20
-4.5380944881889764
11
8.9890944881889769
21
-4.5499055118110237
0
LINE
8
BLACK
6
CONTINUOUS
10
9.0080944881889753
20
-5.3290944881889759
11
9.0199055118110234
21
-5.3409055118110231
0
LINE
8
BLACK
6
CONTINUOUS
10
9.0199055118110234
20
-5.3290944881889759
11
9.0080944881889753
21
-5.3409055118110231
0
LINE
8
BLACK
6
CONTINUOUS
10
9.0090944881889765
20
-4.3730944881889764
11
9.0209055118110228
21
-4.3849055118110236
0
LINE
8
BLACK
6
CONTINUOUS
10
9.0209055118110228
20
-4.3730944881889764
11
9.0090944881889765
21
-4.3849055118110236
0
LINE
8
BLACK
6
CONTINUOUS
10
9.069094488188977
20
-5.3310944881889766
11
9.0809055118110233
21
-5.3429055118110238
0
LINE
8
BLACK
6
CONTINUOUS
10
9.0809055118110233
20
-5.3310944881889766
11
9.069094488188977
21
-5.3429055118110238
0
LINE
8
BLACK
6
CONTINUOUS
10
9.0700944881889765
20
-4.3730944881889764
11
9.0819055118110228
21
-4.3849055118110236
0
LINE
8
BLACK
6
CONTINUOUS
10
9.0819055118110228
20
-4.3730944881889764
11
9.0700944881889765
21
-4.3849055118110236
0
LINE
8
BLACK
6
CONTINUOUS
10
9.0750944881889755
20
-4.5320944881889762
11
9.0869055118110236
21
-4.5439055118110234
0
LINE
8
BLACK
6
CONTINUOUS
10
9.0869055118110236
20
-4.5320944881889762
11
9.0750944881889755
21
-4.5439055118110234
0
LINE
8
BLACK
6
CONTINUOUS
10
9.1000944881889758
20
-5.1840944881889763
11
9.1119055118110239
21
-5.1959055118110236
0
LINE
8
BLACK
6
CONTINUOUS
10
9.1119055118110239
20
-5.1840944881889763
11
9.1000944881889758
21
-5.1959055118110236
0
LINE
8
BLACK
6
CONTINUOUS
10
9.1290944881889757
20
-5.3290944881889759
11
9.1409055118110238
21
-5.3409055118110231
0
LINE
8
BLACK
6
CONTINUOUS
10
9.1409055118110238
20
-5.3290944881889759
11
9.1290944881889757
21
-5.3409055118110231
0
LINE
8
BLACK
6
CONTINUOUS
10
9.1550944881889755
20
-4.3710944881889766
11
9.1669055118110236
21
-4.3829055118110238
0
LINE
8
BLACK
6
CONTINUOUS
10
9.1669055118110236
20
-4.3710944881889766
11
9.1550944881889755
21
-4.3829055118110238
0
LINE
8
BLACK
6
CONTINUOUS
10
9.1680944881889754
20
-5.1800944881889759
11
9.1799055118110235
21
-5.1919055118110231
0
LINE
8
BLACK
6
CONTINUOUS
10
9.1799055118110235
20
-5.1800944881889759
11
9.1680944881889754
21
-5.1919055118110231
0
LINE
8
BLACK
6
CONTINUOUS
10
9.1770944881889758
20
-5.2900944881889762
11
9.1889055118110239
21
-5.3019055118110234
0
LINE
8
BLACK
6
CONTINUOUS
10
9.1889055118110239
20
-5.2900944881889762
11
9.1770944881889758
21
-5.3019055118110234
0
LINE
8
BLACK
6
CONTINUOUS
10
9.1910944881889769
20
-5.3440944881889765
11
9.2029055118110232
21
-5.3559055118110237
0
LINE
8
BLACK
6
CONTINUOUS
10
9.2029055118110232
20
-5.3440944881889765
11
9.1910944881889769
21
-5.3559055118110237
0
LINE
8
BLACK
6
CONTINUOUS
10
9.2037164960629916
20
-5.1623385826771653
11
9.2155275196850397
21
-5.1741496062992125
0
LINE
8
BLACK
6
CONTINUOUS
10
9.2155275196850397
20
-5.1623385826771653
11
9.2037164960629916
21
-5.1741496062992125
0
LINE
8
BLACK
6
CONTINUOUS
10
9.2414608661417326
20
-5.0114608267716534
11
9.2532718897637789
21
-5.0232718503937006
0
LINE
8
BLACK
6
CONTINUOUS
10
9.2532718897637789
20
-5.0114608267716534
11
9.2414608661417326
21
-5.0232718503937006
0
CIRCLE
8
BLACK
10
8.7857383464566929
20
-4.8837383464566928
40
0.006
0
CIRCLE
8
BLACK
10
8.9169999999999998
20
-4.6100000000000003
40
0.006
0
CIRCLE
8
BLACK
10
9.030261653543306
20
-5.1215000000000002
40
0.006
0
CIRCLE
8
BLACK
10
9.0809999999999995
20
-4.9930000000000003
40
0.006
0
CIRCLE
8
BLACK
10
9.1050000000000004
20
-5.0940000000000003
40
0.006
0
CIRCLE
8
BLACK
10
9.1069999999999993
20
-4.96
40
0.006
0
CIRCLE
8
BLACK
10
9.113999999999999
20
-4.7649999999999997
40
0.006
0
CIRCLE
8
BLACK
10
9.1340000000000003
20
-4.8069999999999995
40
0.006
0
CIRCLE
8
BLACK
10
9.1914999999999996
20
-4.9314999999999998
40
0.006
0
CIRCLE
8
BLACK
10
9.2119999999999997
20
-4.7949999999999999
40
0.006
0
CIRCLE
8
BLACK
10
9.2484931889763775
20
-4.9754945669291342
40
0.006
0
CIRCLE
8
BLACK
10
9.3010000000000002
20
-4.9375000393700788
40
0.006
0
LINE
8
BLACK
6
CONTINUOUS
10
8.7170000000000005
20
-4.5953149606299215
11
8.7170000000000005
21
-4.6346850393700789
0
LINE
8
BLACK
6
CONTINUOUS
10
8.6973149606299209
20
-4.6150000000000002
11
8.7366850393700783
21
-4.6150000000000002
0
LINE
8
BLACK
6
CONTINUOUS
10
8.7170000000000005
20
-4.6953149606299212
11
8.7170000000000005
21
-4.7346850393700786
0
LINE
8
BLACK
6
CONTINUOUS
10
8.6973149606299209
20
-4.7149999999999999
11
8.7366850393700783
21
-4.7149999999999999
0
LINE
8
BLACK
6
CONTINUOUS
10
8.7170000000000005
20
-4.7953149606299208
11
8.7170000000000005
21
-4.8346850393700782
0
LINE
8
BLACK
6
CONTINUOUS
10
8.6973149606299209
20
-4.8149999999999995
11
8.7366850393700783
21
-4.8149999999999995
0
LINE
8
BLACK
6
CONTINUOUS
10
8.7170000000000005
20
-4.8953149606299213
11
8.7170000000000005
21
-4.9346850393700787
0
LINE
8
BLACK
6
CONTINUOUS
10
8.6973149606299209
20
-4.915
11
8.7366850393700783
21
-4.915
0
LINE
8
BLACK
6
CONTINUOUS
10
8.7170000000000005
20
-4.995314960629921
11
8.7170000000000005
21
-5.0346850393700784
0
LINE
8
BLACK
6
CONTINUOUS
10
8.6973149606299209
20
-5.0149999999999997
11
8.7366850393700783
21
-5.0149999999999997
0
LINE
8
BLACK
6
CONTINUOUS
10
8.7170000000000005
20
-5.0953149606299215
11
8.7170000000000005
21
-5.1346850393700789
0
LINE
8
BLACK
6
CONTINUOUS
10
8.6973149606299209
20
-5.1150000000000002
11
8.7366850393700783
21
-5.1150000000000002
0
LINE
8
BLACK
6
CONTINUOUS
10
8.896194606299213
20
-4.5341946062992129
11
8.896194606299213
21
-4.4458053937007875
0
LINE
8
BLACK
6
CONTINUOUS
10
8.896194606299213
20
-4.4458053937007875
11
8.8078053937007876
21
-4.4458053937007875
0
LINE
8
BLACK
6
CONTINUOUS
10
8.8078053937007876
20
-4.4458053937007875
11
8.8078053937007876
21
-4.5341946062992129
0
LINE
8
BLACK
6
CONTINUOUS
10
8.8078053937007876
20
-4.5341946062992129
11
8.896194606299213
21
-4.5341946062992129
0
LINE
8
BLACK
6
CONTINUOUS
10
8.896194606299213
20
-5.2841946062992129
11
8.896194606299213
21
-5.1958053937007875
0
LINE
8
BLACK
6
CONTINUOUS
10
8.896194606299213
20
-5.1958053937007875
11
8.8078053937007876
21
-5.1958053937007875
0
LINE
8
BLACK
6
CONTINUOUS
10
8.8078053937007876
20
-5.1958053937007875
11
8.8078053937007876
21
-5.2841946062992129
0
LINE
8
BLACK
6
CONTINUOUS
10
8.8078053937007876
20
-5.2841946062992129
11
8.896194606299213
21
-5.2841946062992129
0
LINE
8
BLACK
6
CONTINUOUS
10
9.3377086614173219
20
-4.6768110236220473
11
9.4046377952755904
21
-4.6098818897637797
0
LINE
8
BLACK
6
CONTINUOUS
10
9.4046377952755904
20
-4.6098818897637797
11
9.3377086614173219
21
-4.5429527559055121
0
LINE
8
BLACK
6
CONTINUOUS
10
9.3377086614173219
20
-4.5429527559055121
11
9.2707795275590552
21
-4.6098818897637797
0
LINE
8
BLACK
6
CONTINUOUS
10
9.2707795275590552
20
-4.6098818897637797
11
9.3377086614173219
21
-4.6768110236220473
0
LINE
8
BLACK
6
CONTINUOUS
10
9.3377086614173219
20
-5.1870472440944884
11
9.4046377952755904
21
-5.1201181102362208
0
LINE
8
BLACK
6
CONTINUOUS
10
9.4046377952755904
20
-5.1201181102362208
11
9.3377086614173219
21
-5.0531889763779523
0
LINE
8
BLACK
6
CONTINUOUS
10
9.3377086614173219
20
-5.0531889763779523
11
9.2707795275590552
21
-5.1201181102362208
0
LINE
8
BLACK
6
CONTINUOUS
10
9.2707795275590552
20
-5.1201181102362208
11
9.3377086614173219
21
-5.1870472440944884
0
LINE
8
BLACK
6
CONTINUOUS
10
8.7486837795275587
20
-5.5366047244094485
11
8.7486837795275587
21
-5.4578645669291337
0
LINE
8
BLACK
6
CONTINUOUS
10
8.7486837795275587
20
-5.4578645669291337
11
8.7674314173228343
21
-5.4578645669291337
0
LINE
8
BLACK
6
CONTINUOUS
10
8.7674314173228343
20
-5.4578645669291337
11
8.7786800393700783
21
-5.4616140944881888
0
LINE
8
BLACK
6
CONTINUOUS
10
8.7786800393700783
20
-5.4616140944881888
11
8.7861790944881886
21
-5.469113149606299
0
LINE
8
BLACK
6
CONTINUOUS
10
8.7861790944881886
20
-5.469113149606299
11
8.7899286220472437
21
-5.4766122047244092
0
LINE
8
BLACK
6
CONTINUOUS
10
8.7899286220472437
20
-5.4766122047244092
11
8.7936781496062988
21
-5.4916103149606297
0
LINE
8
BLACK
6
CONTINUOUS
10
8.7936781496062988
20
-5.4916103149606297
11
8.7936781496062988
21
-5.5028589370078738
0
LINE
8
BLACK
6
CONTINUOUS
10
8.7936781496062988
20
-5.5028589370078738
11
8.7899286220472437
21
-5.5178570472440942
0
LINE
8
BLACK
6
CONTINUOUS
10
8.7899286220472437
20
-5.5178570472440942
11
8.7861790944881886
21
-5.5253561023622044
0
LINE
8
BLACK
6
CONTINUOUS
10
8.7861790944881886
20
-5.5253561023622044
11
8.7786800393700783
21
-5.5328551968503934
0
LINE
8
BLACK
6
CONTINUOUS
10
8.7786800393700783
20
-5.5328551968503934
11
8.7674314173228343
21
-5.5366047244094485
0
LINE
8
BLACK
6
CONTINUOUS
10
8.7674314173228343
20
-5.5366047244094485
11
8.7486837795275587
21
-5.5366047244094485
0
LINE
8
BLACK
6
CONTINUOUS
10
8.8274239370078735
20
-5.5366047244094485
11
8.8274239370078735
21
-5.4841112598425195
0
LINE
8
BLACK
6
CONTINUOUS
10
8.8274239370078735
20
-5.4991094094488187
11
8.8311734645669286
21
-5.4916103149606297
0
LINE
8
BLACK
6
CONTINUOUS
10
8.8311734645669286
20
-5.4916103149606297
11
8.8349229921259838
21
-5.4878607874015746
0
LINE
8
BLACK
6
CONTINUOUS
10
8.8349229921259838
20
-5.4878607874015746
11
8.842422047244094
21
-5.4841112598425195
0
LINE
8
BLACK
6
CONTINUOUS
10
8.842422047244094
20
-5.4841112598425195
11
8.8499211417322829
21
-5.4841112598425195
0
LINE
8
BLACK
6
CONTINUOUS
10
8.8761678346456687
20
-5.5366047244094485
11
8.8761678346456687
21
-5.4841112598425195
0
LINE
8
BLACK
6
CONTINUOUS
10
8.8761678346456687
20
-5.4578645669291337
11
8.8724183070866136
21
-5.4616140944881888
0
LINE
8
BLACK
6
CONTINUOUS
10
8.8724183070866136
20
-5.4616140944881888
11
8.8761678346456687
21
-5.4653636220472439
0
LINE
8
BLACK
6
CONTINUOUS
10
8.8761678346456687
20
-5.4653636220472439
11
8.8799173622047238
21
-5.4616140944881888
0
LINE
8
BLACK
6
CONTINUOUS
10
8.8799173622047238
20
-5.4616140944881888
11
8.8761678346456687
21
-5.4578645669291337
0
LINE
8
BLACK
6
CONTINUOUS
10
8.8761678346456687
20
-5.4578645669291337
11
8.8761678346456687
21
-5.4653636220472439
0
LINE
8
BLACK
6
CONTINUOUS
10
8.9249117322834639
20
-5.5366047244094485
11
8.9174126771653537
21
-5.5328551968503934
0
LINE
8
BLACK
6
CONTINUOUS
10
8.9174126771653537
20
-5.5328551968503934
11
8.9136631496062986
21
-5.5253561023622044
0
LINE
8
BLACK
6
CONTINUOUS
10
8.9136631496062986
20
-5.5253561023622044
11
8.9136631496062986
21
-5.4578645669291337
0
LINE
8
BLACK
6
CONTINUOUS
10
8.9661565748031489
20
-5.5366047244094485
11
8.9586575196850387
21
-5.5328551968503934
0
LINE
8
BLACK
6
CONTINUOUS
10
8.9586575196850387
20
-5.5328551968503934
11
8.9549079921259835
21
-5.5253561023622044
0
LINE
8
BLACK
6
CONTINUOUS
10
8.9549079921259835
20
-5.5253561023622044
11
8.9549079921259835
21
-5.4578645669291337
0
LINE
8
BLACK
6
CONTINUOUS
10
9.0561453543307078
20
-5.5366047244094485
11
9.0561453543307078
21
-5.4578645669291337
0
LINE
8
BLACK
6
CONTINUOUS
10
9.0561453543307078
20
-5.4578645669291337
11
9.0823920866141723
21
-5.5141075196850391
0
LINE
8
BLACK
6
CONTINUOUS
10
9.0823920866141723
20
-5.5141075196850391
11
9.1086387795275581
21
-5.4578645669291337
0
LINE
8
BLACK
6
CONTINUOUS
10
9.1086387795275581
20
-5.4578645669291337
11
9.1086387795275581
21
-5.5366047244094485
0
LINE
8
BLACK
6
CONTINUOUS
10
9.1798798818897644
20
-5.5366047244094485
11
9.1798798818897644
21
-5.4953598818897635
0
LINE
8
BLACK
6
CONTINUOUS
10
9.1798798818897644
20
-5.4953598818897635
11
9.1761303543307093
21
-5.4878607874015746
0
LINE
8
BLACK
6
CONTINUOUS
10
9.1761303543307093
20
-5.4878607874015746
11
9.1686312992125973
21
-5.4841112598425195
0
LINE
8
BLACK
6
CONTINUOUS
10
9.1686312992125973
20
-5.4841112598425195
11
9.1536331496062981
21
-5.4841112598425195
0
LINE
8
BLACK
6
CONTINUOUS
10
9.1536331496062981
20
-5.4841112598425195
11
9.1461340944881879
21
-5.4878607874015746
0
LINE
8
BLACK
6
CONTINUOUS
10
9.1798798818897644
20
-5.5328551968503934
11
9.1723808267716525
21
-5.5366047244094485
0
LINE
8
BLACK
6
CONTINUOUS
10
9.1723808267716525
20
-5.5366047244094485
11
9.1536331496062981
21
-5.5366047244094485
0
LINE
8
BLACK
6
CONTINUOUS
10
9.1536331496062981
20
-5.5366047244094485
11
9.1461340944881879
21
-5.5328551968503934
0
LINE
8
BLACK
6
CONTINUOUS
10
9.1461340944881879
20
-5.5328551968503934
11
9.1423845669291328
21
-5.5253561023622044
0
LINE
8
BLACK
6
CONTINUOUS
10
9.1423845669291328
20
-5.5253561023622044
11
9.1423845669291328
21
-5.5178570472440942
0
LINE
8
BLACK
6
CONTINUOUS
10
9.1423845669291328
20
-5.5178570472440942
11
9.1461340944881879
21
-5.510357992125984
0
LINE
8
BLACK
6
CONTINUOUS
10
9.1461340944881879
20
-5.510357992125984
11
9.1536331496062981
21
-5.5066084645669289
0
LINE
8
BLACK
6
CONTINUOUS
10
9.1536331496062981
20
-5.5066084645669289
11
9.1723808267716525
21
-5.5066084645669289
0
LINE
8
BLACK
6
CONTINUOUS
10
9.1723808267716525
20
-5.5066084645669289
11
9.1798798818897644
21
-5.5028589370078738
0
LINE
8
BLACK
6
CONTINUOUS
10
9.2173751968503943
20
-5.4841112598425195
11
9.2173751968503943
21
-5.5628514173228343
0
LINE
8
BLACK
6
CONTINUOUS
10
9.2173751968503943
20
-5.4878607874015746
11
9.2248742519685045
21
-5.4841112598425195
0
LINE
8
BLACK
6
CONTINUOUS
10
9.2248742519685045
20
-5.4841112598425195
11
9.2398724015748037
21
-5.4841112598425195
0
LINE
8
BLACK
6
CONTINUOUS
10
9.2398724015748037
20
-5.4841112598425195
11
9.2473714566929139
21
-5.4878607874015746
0
LINE
8
BLACK
6
CONTINUOUS
10
9.2473714566929139
20
-5.4878607874015746
11
9.251120984251969
21
-5.4916103149606297
0
LINE
8
BLACK
6
CONTINUOUS
10
9.251120984251969
20
-5.4916103149606297
11
9.2548705118110242
21
-5.4991094094488187
0
LINE
8
BLACK
6
CONTINUOUS
10
9.2548705118110242
20
-5.4991094094488187
11
9.2548705118110242
21
-5.5216065748031493
0
LINE
8
BLACK
6
CONTINUOUS
10
9.2548705118110242
20
-5.5216065748031493
11
9.251120984251969
21
-5.5291056299212595
0
LINE
8
BLACK
6
CONTINUOUS
10
9.251120984251969
20
-5.5291056299212595
11
9.2473714566929139
21
-5.5328551968503934
0
LINE
8
BLACK
6
CONTINUOUS
10
9.2473714566929139
20
-5.5328551968503934
11
9.2398724015748037
21
-5.5366047244094485
0
LINE
8
BLACK
6
CONTINUOUS
10
9.2398724015748037
20
-5.5366047244094485
11
9.2248742519685045
21
-5.5366047244094485
0
LINE
8
BLACK
6
CONTINUOUS
10
9.2248742519685045
20
-5.5366047244094485
11
9.2173751968503943
21
-5.5328551968503934
0
LINE
8
BLACK
6
CONTINUOUS
10
9.2886162992125989
20
-5.5291056299212595
11
9.292365826771654
21
-5.5328551968503934
0
LINE
8
BLACK
6
CONTINUOUS
10
9.292365826771654
20
-5.5328551968503934
11
9.2886162992125989
21
-5.5366047244094485
0
LINE
8
BLACK
6
CONTINUOUS
10
9.2886162992125989
20
-5.5366047244094485
11
9.2848667716535438
21
-5.5328551968503934
0
LINE
8
BLACK
6
CONTINUOUS
10
9.2848667716535438
20
-5.5328551968503934
11
9.2886162992125989
21
-5.5291056299212595
0
LINE
8
BLACK
6
CONTINUOUS
10
9.2886162992125989
20
-5.5291056299212595
11
9.2886162992125989
21
-5.5366047244094485
0
LINE
8
BLACK
6
CONTINUOUS
10
9.2886162992125989
20
-5.4878607874015746
11
9.292365826771654
21
-5.4916103149606297
0
LINE
8
BLACK
6
CONTINUOUS
10
9.292365826771654
20
-5.4916103149606297
11
9.2886162992125989
21
-5.4953598818897635
0
LINE
8
BLACK
6
CONTINUOUS
10
9.2886162992125989
20
-5.4953598818897635
11
9.2848667716535438
21
-5.4916103149606297
0
LINE
8
BLACK
6
CONTINUOUS
10
9.2848667716535438
20
-5.4916103149606297
11
9.2886162992125989
21
-5.4878607874015746
0
LINE
8
BLACK
6
CONTINUOUS
10
9.2886162992125989
20
-5.4878607874015746
11
9.2886162992125989
21
-5.4953598818897635
0
LINE
8
BLACK
6
CONTINUOUS
10
8.6342047244094484
20
-5.6600362992125985
11
8.6460157480314965
21
-5.6718473228346458
0
LINE
8
BLACK
6
CONTINUOUS
10
8.6460157480314965
20
-5.6600362992125985
11
8.6342047244094484
21
-5.6718473228346458
0
LINE
8
BLACK
6
CONTINUOUS
10
8.7636818897637792
20
-5.6232188976377948
11
8.7711809842519681
21
-5.6232188976377948
0
LINE
8
BLACK
6
CONTINUOUS
10
8.7711809842519681
20
-5.6232188976377948
11
8.7786800393700783
21
-5.6269684251968499
0
LINE
8
BLACK
6
CONTINUOUS
10
8.7786800393700783
20
-5.6269684251968499
11
8.7824295669291335
21
-5.630717952755905
0
LINE
8
BLACK
6
CONTINUOUS
10
8.7824295669291335
20
-5.630717952755905
11
8.7861790944881886
21
-5.6382170078740153
0
LINE
8
BLACK
6
CONTINUOUS
10
8.7861790944881886
20
-5.6382170078740153
11
8.7899286220472437
21
-5.6532151181102357
0
LINE
8
BLACK
6
CONTINUOUS
10
8.7899286220472437
20
-5.6532151181102357
11
8.7899286220472437
21
-5.67196279527559
0
LINE
8
BLACK
6
CONTINUOUS
10
8.7899286220472437
20
-5.67196279527559
11
8.7861790944881886
21
-5.6869609055118113
0
LINE
8
BLACK
6
CONTINUOUS
10
8.7861790944881886
20
-5.6869609055118113
11
8.7824295669291335
21
-5.6944599606299215
0
LINE
8
BLACK
6
CONTINUOUS
10
8.7824295669291335
20
-5.6944599606299215
11
8.7786800393700783
21
-5.6982095275590554
0
LINE
8
BLACK
6
CONTINUOUS
10
8.7786800393700783
20
-5.6982095275590554
11
8.7711809842519681
21
-5.7019590551181105
0
LINE
8
BLACK
6
CONTINUOUS
10
8.7711809842519681
20
-5.7019590551181105
11
8.7636818897637792
21
-5.7019590551181105
0
LINE
8
BLACK
6
CONTINUOUS
10
8.7636818897637792
20
-5.7019590551181105
11
8.7561828346456689
21
-5.6982095275590554
0
LINE
8
BLACK
6
CONTINUOUS
10
8.7561828346456689
20
-5.6982095275590554
11
8.7524333070866138
21
-5.6944599606299215
0
LINE
8
BLACK
6
CONTINUOUS
10
8.7524333070866138
20
-5.6944599606299215
11
8.7486837795275587
21
-5.6869609055118113
0
LINE
8
BLACK
6
CONTINUOUS
10
8.7486837795275587
20
-5.6869609055118113
11
8.7449342519685036
21
-5.67196279527559
0
LINE
8
BLACK
6
CONTINUOUS
10
8.7449342519685036
20
-5.67196279527559
11
8.7449342519685036
21
-5.6532151181102357
0
LINE
8
BLACK
6
CONTINUOUS
10
8.7449342519685036
20
-5.6532151181102357
11
8.7486837795275587
21
-5.6382170078740153
0
LINE
8
BLACK
6
CONTINUOUS
10
8.7486837795275587
20
-5.6382170078740153
11
8.7524333070866138
21
-5.630717952755905
0
LINE
8
BLACK
6
CONTINUOUS
10
8.7524333070866138
20
-5.630717952755905
11
8.7561828346456689
21
-5.6269684251968499
0
LINE
8
BLACK
6
CONTINUOUS
10
8.7561828346456689
20
-5.6269684251968499
11
8.7636818897637792
21
-5.6232188976377948
0
LINE
8
BLACK
6
CONTINUOUS
10
8.8236744094488184
20
-5.6944599606299215
11
8.8274239370078735
21
-5.6982095275590554
0
LINE
8
BLACK
6
CONTINUOUS
10
8.8274239370078735
20
-5.6982095275590554
11
8.8236744094488184
21
-5.7019590551181105
0
LINE
8
BLACK
6
CONTINUOUS
10
8.8236744094488184
20
-5.7019590551181105
11
8.8199248818897633
21
-5.6982095275590554
0
LINE
8
BLACK
6
CONTINUOUS
10
8.8199248818897633
20
-5.6982095275590554
11
8.8236744094488184
21
-5.6944599606299215
0
LINE
8
BLACK
6
CONTINUOUS
10
8.8236744094488184
20
-5.6944599606299215
11
8.8236744094488184
21
-5.7019590551181105
0
LINE
8
BLACK
6
CONTINUOUS
10
8.8536706692913381
20
-5.6232188976377948
11
8.9024145669291332
21
-5.6232188976377948
0
LINE
8
BLACK
6
CONTINUOUS
10
8.9024145669291332
20
-5.6232188976377948
11
8.8761678346456687
21
-5.6532151181102357
0
LINE
8
BLACK
6
CONTINUOUS
10
8.8761678346456687
20
-5.6532151181102357
11
8.8874164566929128
21
-5.6532151181102357
0
LINE
8
BLACK
6
CONTINUOUS
10
8.8874164566929128
20
-5.6532151181102357
11
8.894915511811023
21
-5.6569646456692908
0
LINE
8
BLACK
6
CONTINUOUS
10
8.894915511811023
20
-5.6569646456692908
11
8.8986650393700781
21
-5.6607142125984247
0
LINE
8
BLACK
6
CONTINUOUS
10
8.8986650393700781
20
-5.6607142125984247
11
8.9024145669291332
21
-5.6682132677165349
0
LINE
8
BLACK
6
CONTINUOUS
10
8.9024145669291332
20
-5.6682132677165349
11
8.9024145669291332
21
-5.6869609055118113
0
LINE
8
BLACK
6
CONTINUOUS
10
8.9024145669291332
20
-5.6869609055118113
11
8.8986650393700781
21
-5.6944599606299215
0
LINE
8
BLACK
6
CONTINUOUS
10
8.8986650393700781
20
-5.6944599606299215
11
8.894915511811023
21
-5.6982095275590554
0
LINE
8
BLACK
6
CONTINUOUS
10
8.894915511811023
20
-5.6982095275590554
11
8.8874164566929128
21
-5.7019590551181105
0
LINE
8
BLACK
6
CONTINUOUS
10
8.8874164566929128
20
-5.7019590551181105
11
8.8649192519685034
21
-5.7019590551181105
0
LINE
8
BLACK
6
CONTINUOUS
10
8.8649192519685034
20
-5.7019590551181105
11
8.8574201968503932
21
-5.6982095275590554
0
LINE
8
BLACK
6
CONTINUOUS
10
8.8574201968503932
20
-5.6982095275590554
11
8.8536706692913381
21
-5.6944599606299215
0
LINE
8
BLACK
6
CONTINUOUS
10
8.9511584645669284
20
-5.6232188976377948
11
8.9586575590551174
21
-5.6232188976377948
0
LINE
8
BLACK
6
CONTINUOUS
10
8.9586575590551174
20
-5.6232188976377948
11
8.9661566141732276
21
-5.6269684251968499
0
LINE
8
BLACK
6
CONTINUOUS
10
8.9661566141732276
20
-5.6269684251968499
11
8.9699061417322827
21
-5.630717952755905
0
LINE
8
BLACK
6
CONTINUOUS
10
8.9699061417322827
20
-5.630717952755905
11
8.9736556692913378
21
-5.6382170078740153
0
LINE
8
BLACK
6
CONTINUOUS
10
8.9736556692913378
20
-5.6382170078740153
11
8.977405196850393
21
-5.6532151181102357
0
LINE
8
BLACK
6
CONTINUOUS
10
8.977405196850393
20
-5.6532151181102357
11
8.977405196850393
21
-5.67196279527559
0
LINE
8
BLACK
6
CONTINUOUS
10
8.977405196850393
20
-5.67196279527559
11
8.9736556692913378
21
-5.6869609055118113
0
LINE
8
BLACK
6
CONTINUOUS
10
8.9736556692913378
20
-5.6869609055118113
11
8.9699061417322827
21
-5.6944599606299215
0
LINE
8
BLACK
6
CONTINUOUS
10
8.9699061417322827
20
-5.6944599606299215
11
8.9661566141732276
21
-5.6982095275590554
0
LINE
8
BLACK
6
CONTINUOUS
10
8.9661566141732276
20
-5.6982095275590554
11
8.9586575590551174
21
-5.7019590551181105
0
LINE
8
BLACK
6
CONTINUOUS
10
8.9586575590551174
20
-5.7019590551181105
11
8.9511584645669284
21
-5.7019590551181105
0
LINE
8
BLACK
6
CONTINUOUS
10
8.9511584645669284
20
-5.7019590551181105
11
8.9436594094488182
21
-5.6982095275590554
0
LINE
8
BLACK
6
CONTINUOUS
10
8.9436594094488182
20
-5.6982095275590554
11
8.9399098818897631
21
-5.6944599606299215
0
LINE
8
BLACK
6
CONTINUOUS
10
8.9399098818897631
20
-5.6944599606299215
11
8.936160354330708
21
-5.6869609055118113
0
LINE
8
BLACK
6
CONTINUOUS
10
8.936160354330708
20
-5.6869609055118113
11
8.9324108267716529
21
-5.67196279527559
0
LINE
8
BLACK
6
CONTINUOUS
10
8.9324108267716529
20
-5.67196279527559
11
8.9324108267716529
21
-5.6532151181102357
0
LINE
8
BLACK
6
CONTINUOUS
10
8.9324108267716529
20
-5.6532151181102357
11
8.936160354330708
21
-5.6382170078740153
0
LINE
8
BLACK
6
CONTINUOUS
10
8.936160354330708
20
-5.6382170078740153
11
8.9399098818897631
21
-5.630717952755905
0
LINE
8
BLACK
6
CONTINUOUS
10
8.9399098818897631
20
-5.630717952755905
11
8.9436594094488182
21
-5.6269684251968499
0
LINE
8
BLACK
6
CONTINUOUS
10
8.9436594094488182
20
-5.6269684251968499
11
8.9511584645669284
21
-5.6232188976377948
0
LINE
8
BLACK
6
CONTINUOUS
10
9.0261490944881881
20
-5.6232188976377948
11
9.0336481889763771
21
-5.6232188976377948
0
LINE
8
BLACK
6
CONTINUOUS
10
9.0336481889763771
20
-5.6232188976377948
11
9.0411472440944873
21
-5.6269684251968499
0
LINE
8
BLACK
6
CONTINUOUS
10
9.0411472440944873
20
-5.6269684251968499
11
9.0448967716535424
21
-5.630717952755905
0
LINE
8
BLACK
6
CONTINUOUS
10
9.0448967716535424
20
-5.630717952755905
11
9.0486462992125976
21
-5.6382170078740153
0
LINE
8
BLACK
6
CONTINUOUS
10
9.0486462992125976
20
-5.6382170078740153
11
9.0523958267716527
21
-5.6532151181102357
0
LINE
8
BLACK
6
CONTINUOUS
10
9.0523958267716527
20
-5.6532151181102357
11
9.0523958267716527
21
-5.67196279527559
0
LINE
8
BLACK
6
CONTINUOUS
10
9.0523958267716527
20
-5.67196279527559
11
9.0486462992125976
21
-5.6869609055118113
0
LINE
8
BLACK
6
CONTINUOUS
10
9.0486462992125976
20
-5.6869609055118113
11
9.0448967716535424
21
-5.6944599606299215
0
LINE
8
BLACK
6
CONTINUOUS
10
9.0448967716535424
20
-5.6944599606299215
11
9.0411472440944873
21
-5.6982095275590554
0
LINE
8
BLACK
6
CONTINUOUS
10
9.0411472440944873
20
-5.6982095275590554
11
9.0336481889763771
21
-5.7019590551181105
0
LINE
8
BLACK
6
CONTINUOUS
10
9.0336481889763771
20
-5.7019590551181105
11
9.0261490944881881
21
-5.7019590551181105
0
LINE
8
BLACK
6
CONTINUOUS
10
9.0261490944881881
20
-5.7019590551181105
11
9.0186500393700779
21
-5.6982095275590554
0
LINE
8
BLACK
6
CONTINUOUS
10
9.0186500393700779
20
-5.6982095275590554
11
9.0149005118110228
21
-5.6944599606299215
0
LINE
8
BLACK
6
CONTINUOUS
10
9.0149005118110228
20
-5.6944599606299215
11
9.0111509842519677
21
-5.6869609055118113
0
LINE
8
BLACK
6
CONTINUOUS
10
9.0111509842519677
20
-5.6869609055118113
11
9.0074014566929126
21
-5.67196279527559
0
LINE
8
BLACK
6
CONTINUOUS
10
9.0074014566929126
20
-5.67196279527559
11
9.0074014566929126
21
-5.6532151181102357
0
LINE
8
BLACK
6
CONTINUOUS
10
9.0074014566929126
20
-5.6532151181102357
11
9.0111509842519677
21
-5.6382170078740153
0
LINE
8
BLACK
6
CONTINUOUS
10
9.0111509842519677
20
-5.6382170078740153
11
9.0149005118110228
21
-5.630717952755905
0
LINE
8
BLACK
6
CONTINUOUS
10
9.0149005118110228
20
-5.630717952755905
11
9.0186500393700779
21
-5.6269684251968499
0
LINE
8
BLACK
6
CONTINUOUS
10
9.0186500393700779
20
-5.6269684251968499
11
9.0261490944881881
21
-5.6232188976377948
0
LINE
8
BLACK
6
CONTINUOUS
10
9.0861416141732274
20
-5.7019590551181105
11
9.0861416141732274
21
-5.6494655905511806
0
LINE
8
BLACK
6
CONTINUOUS
10
9.0861416141732274
20
-5.6569646456692908
11
9.0898911417322825
21
-5.6532151181102357
0
LINE
8
BLACK
6
CONTINUOUS
10
9.0898911417322825
20
-5.6532151181102357
11
9.0973901968503927
21
-5.6494655905511806
0
LINE
8
BLACK
6
CONTINUOUS
10
9.0973901968503927
20
-5.6494655905511806
11
9.1086388188976368
21
-5.6494655905511806
0
LINE
8
BLACK
6
CONTINUOUS
10
9.1086388188976368
20
-5.6494655905511806
11
9.116137874015747
21
-5.6532151181102357
0
LINE
8
BLACK
6
CONTINUOUS
10
9.116137874015747
20
-5.6532151181102357
11
9.1198874015748022
21
-5.6607142125984247
0
LINE
8
BLACK
6
CONTINUOUS
10
9.1198874015748022
20
-5.6607142125984247
11
9.1198874015748022
21
-5.7019590551181105
0
LINE
8
BLACK
6
CONTINUOUS
10
9.1198874015748022
20
-5.6607142125984247
11
9.1236369291338573
21
-5.6532151181102357
0
LINE
8
BLACK
6
CONTINUOUS
10
9.1236369291338573
20
-5.6532151181102357
11
9.1311359842519675
21
-5.6494655905511806
0
LINE
8
BLACK
6
CONTINUOUS
10
9.1311359842519675
20
-5.6494655905511806
11
9.1423845669291328
21
-5.6494655905511806
0
LINE
8
BLACK
6
CONTINUOUS
10
9.1423845669291328
20
-5.6494655905511806
11
9.1498836614173218
21
-5.6532151181102357
0
LINE
8
BLACK
6
CONTINUOUS
10
9.1498836614173218
20
-5.6532151181102357
11
9.1536331889763769
21
-5.6607142125984247
0
LINE
8
BLACK
6
CONTINUOUS
10
9.1536331889763769
20
-5.6607142125984247
11
9.1536331889763769
21
-5.7019590551181105
0
LINE
8
BLACK
6
CONTINUOUS
10
9.1911285039370085
20
-5.7019590551181105
11
9.1911285039370085
21
-5.6494655905511806
0
LINE
8
BLACK
6
CONTINUOUS
10
9.1911285039370085
20
-5.6569646456692908
11
9.1948780314960636
21
-5.6532151181102357
0
LINE
8
BLACK
6
CONTINUOUS
10
9.1948780314960636
20
-5.6532151181102357
11
9.2023770866141739
21
-5.6494655905511806
0
LINE
8
BLACK
6
CONTINUOUS
10
9.2023770866141739
20
-5.6494655905511806
11
9.2136257086614179
21
-5.6494655905511806
0
LINE
8
BLACK
6
CONTINUOUS
10
9.2136257086614179
20
-5.6494655905511806
11
9.2211247637795282
21
-5.6532151181102357
0
LINE
8
BLACK
6
CONTINUOUS
10
9.2211247637795282
20
-5.6532151181102357
11
9.2248742913385833
21
-5.6607142125984247
0
LINE
8
BLACK
6
CONTINUOUS
10
9.2248742913385833
20
-5.6607142125984247
11
9.2248742913385833
21
-5.7019590551181105
0
LINE
8
BLACK
6
CONTINUOUS
10
9.2248742913385833
20
-5.6607142125984247
11
9.2286238188976384
21
-5.6532151181102357
0
LINE
8
BLACK
6
CONTINUOUS
10
9.2286238188976384
20
-5.6532151181102357
11
9.2361228740157486
21
-5.6494655905511806
0
LINE
8
BLACK
6
CONTINUOUS
10
9.2361228740157486
20
-5.6494655905511806
11
9.2473714566929139
21
-5.6494655905511806
0
LINE
8
BLACK
6
CONTINUOUS
10
9.2473714566929139
20
-5.6494655905511806
11
9.2548705511811029
21
-5.6532151181102357
0
LINE
8
BLACK
6
CONTINUOUS
10
9.2548705511811029
20
-5.6532151181102357
11
9.258620078740158
21
-5.6607142125984247
0
LINE
8
BLACK
6
CONTINUOUS
10
9.258620078740158
20
-5.6607142125984247
11
9.258620078740158
21
-5.7019590551181105
0
LINE
8
BLACK
6
CONTINUOUS
10
9.4123508661417326
20
-5.6194693700787397
11
9.3448593307086618
21
-5.7207066929133861
0
LINE
8
BLACK
6
CONTINUOUS
10
9.5135882283464568
20
-5.6232188976377948
11
9.5210873228346458
21
-5.6232188976377948
0
LINE
8
BLACK
6
CONTINUOUS
10
9.5210873228346458
20
-5.6232188976377948
11
9.528586377952756
21
-5.6269684251968499
0
LINE
8
BLACK
6
CONTINUOUS
10
9.528586377952756
20
-5.6269684251968499
11
9.5323359055118111
21
-5.630717952755905
0
LINE
8
BLACK
6
CONTINUOUS
10
9.5323359055118111
20
-5.630717952755905
11
9.5360854330708662
21
-5.6382170078740153
0
LINE
8
BLACK
6
CONTINUOUS
10
9.5360854330708662
20
-5.6382170078740153
11
9.5398349606299213
21
-5.6532151181102357
0
LINE
8
BLACK
6
CONTINUOUS
10
9.5398349606299213
20
-5.6532151181102357
11
9.5398349606299213
21
-5.67196279527559
0
LINE
8
BLACK
6
CONTINUOUS
10
9.5398349606299213
20
-5.67196279527559
11
9.5360854330708662
21
-5.6869609055118113
0
LINE
8
BLACK
6
CONTINUOUS
10
9.5360854330708662
20
-5.6869609055118113
11
9.5323359055118111
21
-5.6944599606299215
0
LINE
8
BLACK
6
CONTINUOUS
10
9.5323359055118111
20
-5.6944599606299215
11
9.528586377952756
21
-5.6982095275590554
0
LINE
8
BLACK
6
CONTINUOUS
10
9.528586377952756
20
-5.6982095275590554
11
9.5210873228346458
21
-5.7019590551181105
0
LINE
8
BLACK
6
CONTINUOUS
10
9.5210873228346458
20
-5.7019590551181105
11
9.5135882283464568
21
-5.7019590551181105
0
LINE
8
BLACK
6
CONTINUOUS
10
9.5135882283464568
20
-5.7019590551181105
11
9.5060891732283466
21
-5.6982095275590554
0
LINE
8
BLACK
6
CONTINUOUS
10
9.5060891732283466
20
-5.6982095275590554
11
9.5023396456692915
21
-5.6944599606299215
0
LINE
8
BLACK
6
CONTINUOUS
10
9.5023396456692915
20
-5.6944599606299215
11
9.4985901181102363
21
-5.6869609055118113
0
LINE
8
BLACK
6
CONTINUOUS
10
9.4985901181102363
20
-5.6869609055118113
11
9.4948405905511812
21
-5.67196279527559
0
LINE
8
BLACK
6
CONTINUOUS
10
9.4948405905511812
20
-5.67196279527559
11
9.4948405905511812
21
-5.6532151181102357
0
LINE
8
BLACK
6
CONTINUOUS
10
9.4948405905511812
20
-5.6532151181102357
11
9.4985901181102363
21
-5.6382170078740153
0
LINE
8
BLACK
6
CONTINUOUS
10
9.4985901181102363
20
-5.6382170078740153
11
9.5023396456692915
21
-5.630717952755905
0
LINE
8
BLACK
6
CONTINUOUS
10
9.5023396456692915
20
-5.630717952755905
11
9.5060891732283466
21
-5.6269684251968499
0
LINE
8
BLACK
6
CONTINUOUS
10
9.5060891732283466
20
-5.6269684251968499
11
9.5135882283464568
21
-5.6232188976377948
0
LINE
8
BLACK
6
CONTINUOUS
10
9.5735807480314961
20
-5.6944599606299215
11
9.5773302755905512
21
-5.6982095275590554
0
LINE
8
BLACK
6
CONTINUOUS
10
9.5773302755905512
20
-5.6982095275590554
11
9.5735807480314961
21
-5.7019590551181105
0
LINE
8
BLACK
6
CONTINUOUS
10
9.5735807480314961
20
-5.7019590551181105
11
9.5698312204724409
21
-5.6982095275590554
0
LINE
8
BLACK
6
CONTINUOUS
10
9.5698312204724409
20
-5.6982095275590554
11
9.5735807480314961
21
-5.6944599606299215
0
LINE
8
BLACK
6
CONTINUOUS
10
9.5735807480314961
20
-5.6944599606299215
11
9.5735807480314961
21
-5.7019590551181105
0
LINE
8
BLACK
6
CONTINUOUS
10
9.6260741732283464
20
-5.6232188976377948
11
9.6335732677165353
21
-5.6232188976377948
0
LINE
8
BLACK
6
CONTINUOUS
10
9.6335732677165353
20
-5.6232188976377948
11
9.6410723228346455
21
-5.6269684251968499
0
LINE
8
BLACK
6
CONTINUOUS
10
9.6410723228346455
20
-5.6269684251968499
11
9.6448218503937007
21
-5.630717952755905
0
LINE
8
BLACK
6
CONTINUOUS
10
9.6448218503937007
20
-5.630717952755905
11
9.6485713779527558
21
-5.6382170078740153
0
LINE
8
BLACK
6
CONTINUOUS
10
9.6485713779527558
20
-5.6382170078740153
11
9.6523209055118109
21
-5.6532151181102357
0
LINE
8
BLACK
6
CONTINUOUS
10
9.6523209055118109
20
-5.6532151181102357
11
9.6523209055118109
21
-5.67196279527559
0
LINE
8
BLACK
6
CONTINUOUS
10
9.6523209055118109
20
-5.67196279527559
11
9.6485713779527558
21
-5.6869609055118113
0
LINE
8
BLACK
6
CONTINUOUS
10
9.6485713779527558
20
-5.6869609055118113
11
9.6448218503937007
21
-5.6944599606299215
0
LINE
8
BLACK
6
CONTINUOUS
10
9.6448218503937007
20
-5.6944599606299215
11
9.6410723228346455
21
-5.6982095275590554
0
LINE
8
BLACK
6
CONTINUOUS
10
9.6410723228346455
20
-5.6982095275590554
11
9.6335732677165353
21
-5.7019590551181105
0
LINE
8
BLACK
6
CONTINUOUS
10
9.6335732677165353
20
-5.7019590551181105
11
9.6260741732283464
21
-5.7019590551181105
0
LINE
8
BLACK
6
CONTINUOUS
10
9.6260741732283464
20
-5.7019590551181105
11
9.6185751181102361
21
-5.6982095275590554
0
LINE
8
BLACK
6
CONTINUOUS
10
9.6185751181102361
20
-5.6982095275590554
11
9.614825590551181
21
-5.6944599606299215
0
LINE
8
BLACK
6
CONTINUOUS
10
9.614825590551181
20
-5.6944599606299215
11
9.6110760629921259
21
-5.6869609055118113
0
LINE
8
BLACK
6
CONTINUOUS
10
9.6110760629921259
20
-5.6869609055118113
11
9.6073265354330708
21
-5.67196279527559
0
LINE
8
BLACK
6
CONTINUOUS
10
9.6073265354330708
20
-5.67196279527559
11
9.6073265354330708
21
-5.6532151181102357
0
LINE
8
BLACK
6
CONTINUOUS
10
9.6073265354330708
20
-5.6532151181102357
11
9.6110760629921259
21
-5.6382170078740153
0
LINE
8
BLACK
6
CONTINUOUS
10
9.6110760629921259
20
-5.6382170078740153
11
9.614825590551181
21
-5.630717952755905
0
LINE
8
BLACK
6
CONTINUOUS
10
9.614825590551181
20
-5.630717952755905
11
9.6185751181102361
21
-5.6269684251968499
0
LINE
8
BLACK
6
CONTINUOUS
10
9.6185751181102361
20
-5.6269684251968499
11
9.6260741732283464
21
-5.6232188976377948
0
LINE
8
BLACK
6
CONTINUOUS
10
9.7273115354330706
20
-5.7019590551181105
11
9.6823171653543305
21
-5.7019590551181105
0
LINE
8
BLACK
6
CONTINUOUS
10
9.7048143307086612
20
-5.7019590551181105
11
9.7048143307086612
21
-5.6232188976377948
0
LINE
8
BLACK
6
CONTINUOUS
10
9.7048143307086612
20
-5.6232188976377948
11
9.697315275590551
21
-5.6344674803149601
0
LINE
8
BLACK
6
CONTINUOUS
10
9.697315275590551
20
-5.6344674803149601
11
9.6898162204724407
21
-5.6419665354330704
0
LINE
8
BLACK
6
CONTINUOUS
10
9.6898162204724407
20
-5.6419665354330704
11
9.6823171653543305
21
-5.6457160629921255
0
LINE
8
BLACK
6
CONTINUOUS
10
9.8023021653543303
20
-5.7019590551181105
11
9.7573077952755902
21
-5.7019590551181105
0
LINE
8
BLACK
6
CONTINUOUS
10
9.7798049606299209
20
-5.7019590551181105
11
9.7798049606299209
21
-5.6232188976377948
0
LINE
8
BLACK
6
CONTINUOUS
10
9.7798049606299209
20
-5.6232188976377948
11
9.7723059055118107
21
-5.6344674803149601
0
LINE
8
BLACK
6
CONTINUOUS
10
9.7723059055118107
20
-5.6344674803149601
11
9.7648068503937004
21
-5.6419665354330704
0
LINE
8
BLACK
6
CONTINUOUS
10
9.7648068503937004
20
-5.6419665354330704
11
9.7573077952755902
21
-5.6457160629921255
0
LINE
8
BLACK
6
CONTINUOUS
10
9.8472965354330704
20
-5.6569646456692908
11
9.8397974803149602
21
-5.6532151181102357
0
LINE
8
BLACK
6
CONTINUOUS
10
9.8397974803149602
20
-5.6532151181102357
11
9.836047952755905
21
-5.6494655905511806
0
LINE
8
BLACK
6
CONTINUOUS
10
9.836047952755905
20
-5.6494655905511806
11
9.8322984251968499
21
-5.6419665354330704
0
LINE
8
BLACK
6
CONTINUOUS
10
9.8322984251968499
20
-5.6419665354330704
11
9.8322984251968499
21
-5.6382170078740153
0
LINE
8
BLACK
6
CONTINUOUS
10
9.8322984251968499
20
-5.6382170078740153
11
9.836047952755905
21
-5.630717952755905
0
LINE
8
BLACK
6
CONTINUOUS
10
9.836047952755905
20
-5.630717952755905
11
9.8397974803149602
21
-5.6269684251968499
0
LINE
8
BLACK
6
CONTINUOUS
10
9.8397974803149602
20
-5.6269684251968499
11
9.8472965354330704
21
-5.6232188976377948
0
LINE
8
BLACK
6
CONTINUOUS
10
9.8472965354330704
20
-5.6232188976377948
11
9.8622946850393696
21
-5.6232188976377948
0
LINE
8
BLACK
6
CONTINUOUS
10
9.8622946850393696
20
-5.6232188976377948
11
9.8697937401574798
21
-5.6269684251968499
0
LINE
8
BLACK
6
CONTINUOUS
10
9.8697937401574798
20
-5.6269684251968499
11
9.8735432677165349
21
-5.630717952755905
0
LINE
8
BLACK
6
CONTINUOUS
10
9.8735432677165349
20
-5.630717952755905
11
9.87729279527559
21
-5.6382170078740153
0
LINE
8
BLACK
6
CONTINUOUS
10
9.87729279527559
20
-5.6382170078740153
11
9.87729279527559
21
-5.6419665354330704
0
LINE
8
BLACK
6
CONTINUOUS
10
9.87729279527559
20
-5.6419665354330704
11
9.8735432677165349
21
-5.6494655905511806
0
LINE
8
BLACK
6
CONTINUOUS
10
9.8735432677165349
20
-5.6494655905511806
11
9.8697937401574798
21
-5.6532151181102357
0
LINE
8
BLACK
6
CONTINUOUS
10
9.8697937401574798
20
-5.6532151181102357
11
9.8622946850393696
21
-5.6569646456692908
0
LINE
8
BLACK
6
CONTINUOUS
10
9.8622946850393696
20
-5.6569646456692908
11
9.8472965354330704
21
-5.6569646456692908
0
LINE
8
BLACK
6
CONTINUOUS
10
9.8472965354330704
20
-5.6569646456692908
11
9.8397974803149602
21
-5.6607142125984247
0
LINE
8
BLACK
6
CONTINUOUS
10
9.8397974803149602
20
-5.6607142125984247
11
9.836047952755905
21
-5.6644637401574798
0
LINE
8
BLACK
6
CONTINUOUS
10
9.836047952755905
20
-5.6644637401574798
11
9.8322984251968499
21
-5.67196279527559
0
LINE
8
BLACK
6
CONTINUOUS
10
9.8322984251968499
20
-5.67196279527559
11
9.8322984251968499
21
-5.6869609055118113
0
LINE
8
BLACK
6
CONTINUOUS
10
9.8322984251968499
20
-5.6869609055118113
11
9.836047952755905
21
-5.6944599606299215
0
LINE
8
BLACK
6
CONTINUOUS
10
9.836047952755905
20
-5.6944599606299215
11
9.8397974803149602
21
-5.6982095275590554
0
LINE
8
BLACK
6
CONTINUOUS
10
9.8397974803149602
20
-5.6982095275590554
11
9.8472965354330704
21
-5.7019590551181105
0
LINE
8
BLACK
6
CONTINUOUS
10
9.8472965354330704
20
-5.7019590551181105
11
9.8622946850393696
21
-5.7019590551181105
0
LINE
8
BLACK
6
CONTINUOUS
10
9.8622946850393696
20
-5.7019590551181105
11
9.8697937401574798
21
-5.6982095275590554
0
LINE
8
BLACK
6
CONTINUOUS
10
9.8697937401574798
20
-5.6982095275590554
11
9.8735432677165349
21
-5.6944599606299215
0
LINE
8
BLACK
6
CONTINUOUS
10
9.8735432677165349
20
-5.6944599606299215
11
9.87729279527559
21
-5.6869609055118113
0
LINE
8
BLACK
6
CONTINUOUS
10
9.87729279527559
20
-5.6869609055118113
11
9.87729279527559
21
-5.67196279527559
0
LINE
8
BLACK
6
CONTINUOUS
10
9.87729279527559
20
-5.67196279527559
11
9.8735432677165349
21
-5.6644637401574798
0
LINE
8
BLACK
6
CONTINUOUS
10
9.8735432677165349
20
-5.6644637401574798
11
9.8697937401574798
21
-5.6607142125984247
0
LINE
8
BLACK
6
CONTINUOUS
10
9.8697937401574798
20
-5.6607142125984247
11
9.8622946850393696
21
-5.6569646456692908
0
LINE
8
BLACK
6
CONTINUOUS
10
9.9072890551181096
20
-5.6232188976377948
11
9.9072890551181096
21
-5.6382170078740153
0
LINE
8
BLACK
6
CONTINUOUS
10
9.9372853149606293
20
-5.6232188976377948
11
9.9372853149606293
21
-5.6382170078740153
0
LINE
8
BLACK
6
CONTINUOUS
10
10.0535208267716527
20
-5.7319552755905514
11
10.0497712598425188
21
-5.7282057480314963
0
LINE
8
BLACK
6
CONTINUOUS
10
10.0497712598425188
20
-5.7282057480314963
11
10.0422722047244086
21
-5.716957165354331
0
LINE
8
BLACK
6
CONTINUOUS
10
10.0422722047244086
20
-5.716957165354331
11
10.0385226771653535
21
-5.7094581102362207
0
LINE
8
BLACK
6
CONTINUOUS
10
10.0385226771653535
20
-5.7094581102362207
11
10.0347731496062984
21
-5.6982095275590554
0
LINE
8
BLACK
6
CONTINUOUS
10
10.0347731496062984
20
-5.6982095275590554
11
10.0310236220472433
21
-5.6794618503937002
0
LINE
8
BLACK
6
CONTINUOUS
10
10.0310236220472433
20
-5.6794618503937002
11
10.0310236220472433
21
-5.6644637401574798
0
LINE
8
BLACK
6
CONTINUOUS
10
10.0310236220472433
20
-5.6644637401574798
11
10.0347731496062984
21
-5.6457160629921255
0
LINE
8
BLACK
6
CONTINUOUS
10
10.0347731496062984
20
-5.6457160629921255
11
10.0385226771653535
21
-5.6344674803149601
0
LINE
8
BLACK
6
CONTINUOUS
10
10.0385226771653535
20
-5.6344674803149601
11
10.0422722047244086
21
-5.6269684251968499
0
LINE
8
BLACK
6
CONTINUOUS
10
10.0422722047244086
20
-5.6269684251968499
11
10.0497712598425188
21
-5.6157198031496058
0
LINE
8
BLACK
6
CONTINUOUS
10
10.0497712598425188
20
-5.6157198031496058
11
10.0535208267716527
21
-5.6119702755905507
0
LINE
8
BLACK
6
CONTINUOUS
10
10.1247618897637786
20
-5.7019590551181105
11
10.0797675196850385
21
-5.7019590551181105
0
LINE
8
BLACK
6
CONTINUOUS
10
10.1022646850393691
20
-5.7019590551181105
11
10.1022646850393691
21
-5.6232188976377948
0
LINE
8
BLACK
6
CONTINUOUS
10
10.1022646850393691
20
-5.6232188976377948
11
10.0947656299212589
21
-5.6344674803149601
0
LINE
8
BLACK
6
CONTINUOUS
10
10.0947656299212589
20
-5.6344674803149601
11
10.0872665748031487
21
-5.6419665354330704
0
LINE
8
BLACK
6
CONTINUOUS
10
10.0872665748031487
20
-5.6419665354330704
11
10.0797675196850385
21
-5.6457160629921255
0
LINE
8
BLACK
6
CONTINUOUS
10
10.192253464566928
20
-5.6494655905511806
11
10.192253464566928
21
-5.7019590551181105
0
LINE
8
BLACK
6
CONTINUOUS
10
10.1735057874015737
20
-5.6194693700787397
11
10.1547581496062982
21
-5.6757123228346451
0
LINE
8
BLACK
6
CONTINUOUS
10
10.1547581496062982
20
-5.6757123228346451
11
10.2035020472440934
21
-5.6757123228346451
0
LINE
8
BLACK
6
CONTINUOUS
10
10.2934908267716541
20
-5.7019590551181105
11
10.2934908267716541
21
-5.6232188976377948
0
LINE
8
BLACK
6
CONTINUOUS
10
10.3272366141732288
20
-5.7019590551181105
11
10.3272366141732288
21
-5.6607142125984247
0
LINE
8
BLACK
6
CONTINUOUS
10
10.3272366141732288
20
-5.6607142125984247
11
10.3234870866141737
21
-5.6532151181102357
0
LINE
8
BLACK
6
CONTINUOUS
10
10.3234870866141737
20
-5.6532151181102357
11
10.3159880314960635
21
-5.6494655905511806
0
LINE
8
BLACK
6
CONTINUOUS
10
10.3159880314960635
20
-5.6494655905511806
11
10.3047394094488194
21
-5.6494655905511806
0
LINE
8
BLACK
6
CONTINUOUS
10
10.3047394094488194
20
-5.6494655905511806
11
10.2972403543307092
21
-5.6532151181102357
0
LINE
8
BLACK
6
CONTINUOUS
10
10.2972403543307092
20
-5.6532151181102357
11
10.2934908267716541
21
-5.6569646456692908
0
LINE
8
BLACK
6
CONTINUOUS
10
10.375980511811024
20
-5.7019590551181105
11
10.3684814566929138
21
-5.6982095275590554
0
LINE
8
BLACK
6
CONTINUOUS
10
10.3684814566929138
20
-5.6982095275590554
11
10.3647319291338587
21
-5.6944599606299215
0
LINE
8
BLACK
6
CONTINUOUS
10
10.3647319291338587
20
-5.6944599606299215
11
10.3609824015748035
21
-5.6869609055118113
0
LINE
8
BLACK
6
CONTINUOUS
10
10.3609824015748035
20
-5.6869609055118113
11
10.3609824015748035
21
-5.6644637401574798
0
LINE
8
BLACK
6
CONTINUOUS
10
10.3609824015748035
20
-5.6644637401574798
11
10.3647319291338587
21
-5.6569646456692908
0
LINE
8
BLACK
6
CONTINUOUS
10
10.3647319291338587
20
-5.6569646456692908
11
10.3684814566929138
21
-5.6532151181102357
0
LINE
8
BLACK
6
CONTINUOUS
10
10.3684814566929138
20
-5.6532151181102357
11
10.375980511811024
21
-5.6494655905511806
0
LINE
8
BLACK
6
CONTINUOUS
10
10.375980511811024
20
-5.6494655905511806
11
10.3872291338582681
21
-5.6494655905511806
0
LINE
8
BLACK
6
CONTINUOUS
10
10.3872291338582681
20
-5.6494655905511806
11
10.3947281889763783
21
-5.6532151181102357
0
LINE
8
BLACK
6
CONTINUOUS
10
10.3947281889763783
20
-5.6532151181102357
11
10.3984777165354334
21
-5.6569646456692908
0
LINE
8
BLACK
6
CONTINUOUS
10
10.3984777165354334
20
-5.6569646456692908
11
10.4022272440944885
21
-5.6644637401574798
0
LINE
8
BLACK
6
CONTINUOUS
10
10.4022272440944885
20
-5.6644637401574798
11
10.4022272440944885
21
-5.6869609055118113
0
LINE
8
BLACK
6
CONTINUOUS
10
10.4022272440944885
20
-5.6869609055118113
11
10.3984777165354334
21
-5.6944599606299215
0
LINE
8
BLACK
6
CONTINUOUS
10
10.3984777165354334
20
-5.6944599606299215
11
10.3947281889763783
21
-5.6982095275590554
0
LINE
8
BLACK
6
CONTINUOUS
10
10.3947281889763783
20
-5.6982095275590554
11
10.3872291338582681
21
-5.7019590551181105
0
LINE
8
BLACK
6
CONTINUOUS
10
10.3872291338582681
20
-5.7019590551181105
11
10.375980511811024
21
-5.7019590551181105
0
LINE
8
BLACK
6
CONTINUOUS
10
10.4472216141732286
20
-5.7019590551181105
11
10.4397225590551184
21
-5.6982095275590554
0
LINE
8
BLACK
6
CONTINUOUS
10
10.4397225590551184
20
-5.6982095275590554
11
10.4359730314960633
21
-5.6907104330708664
0
LINE
8
BLACK
6
CONTINUOUS
10
10.4359730314960633
20
-5.6907104330708664
11
10.4359730314960633
21
-5.6232188976377948
0
LINE
8
BLACK
6
CONTINUOUS
10
10.5072141338582679
20
-5.6982095275590554
11
10.4997150787401576
21
-5.7019590551181105
0
LINE
8
BLACK
6
CONTINUOUS
10
10.4997150787401576
20
-5.7019590551181105
11
10.4847169291338584
21
-5.7019590551181105
0
LINE
8
BLACK
6
CONTINUOUS
10
10.4847169291338584
20
-5.7019590551181105
11
10.4772178740157482
21
-5.6982095275590554
0
LINE
8
BLACK
6
CONTINUOUS
10
10.4772178740157482
20
-5.6982095275590554
11
10.4734683464566931
21
-5.6907104330708664
0
LINE
8
BLACK
6
CONTINUOUS
10
10.4734683464566931
20
-5.6907104330708664
11
10.4734683464566931
21
-5.6607142125984247
0
LINE
8
BLACK
6
CONTINUOUS
10
10.4734683464566931
20
-5.6607142125984247
11
10.4772178740157482
21
-5.6532151181102357
0
LINE
8
BLACK
6
CONTINUOUS
10
10.4772178740157482
20
-5.6532151181102357
11
10.4847169291338584
21
-5.6494655905511806
0
LINE
8
BLACK
6
CONTINUOUS
10
10.4847169291338584
20
-5.6494655905511806
11
10.4997150787401576
21
-5.6494655905511806
0
LINE
8
BLACK
6
CONTINUOUS
10
10.4997150787401576
20
-5.6494655905511806
11
10.5072141338582679
21
-5.6532151181102357
0
LINE
8
BLACK
6
CONTINUOUS
10
10.5072141338582679
20
-5.6532151181102357
11
10.510963661417323
21
-5.6607142125984247
0
LINE
8
BLACK
6
CONTINUOUS
10
10.510963661417323
20
-5.6607142125984247
11
10.510963661417323
21
-5.6682132677165349
0
LINE
8
BLACK
6
CONTINUOUS
10
10.510963661417323
20
-5.6682132677165349
11
10.4734683464566931
21
-5.6757123228346451
0
LINE
8
BLACK
6
CONTINUOUS
10
10.5409599212598426
20
-5.6982095275590554
11
10.5484589763779528
21
-5.7019590551181105
0
LINE
8
BLACK
6
CONTINUOUS
10
10.5484589763779528
20
-5.7019590551181105
11
10.5634570866141733
21
-5.7019590551181105
0
LINE
8
BLACK
6
CONTINUOUS
10
10.5634570866141733
20
-5.7019590551181105
11
10.5709561811023622
21
-5.6982095275590554
0
LINE
8
BLACK
6
CONTINUOUS
10
10.5709561811023622
20
-5.6982095275590554
11
10.5747057086614173
21
-5.6907104330708664
0
LINE
8
BLACK
6
CONTINUOUS
10
10.5747057086614173
20
-5.6907104330708664
11
10.5747057086614173
21
-5.6869609055118113
0
LINE
8
BLACK
6
CONTINUOUS
10
10.5747057086614173
20
-5.6869609055118113
11
10.5709561811023622
21
-5.6794618503937002
0
LINE
8
BLACK
6
CONTINUOUS
10
10.5709561811023622
20
-5.6794618503937002
11
10.5634570866141733
21
-5.6757123228346451
0
LINE
8
BLACK
6
CONTINUOUS
10
10.5634570866141733
20
-5.6757123228346451
11
10.5522085039370079
21
-5.6757123228346451
0
LINE
8
BLACK
6
CONTINUOUS
10
10.5522085039370079
20
-5.6757123228346451
11
10.5447094488188977
21
-5.67196279527559
0
LINE
8
BLACK
6
CONTINUOUS
10
10.5447094488188977
20
-5.67196279527559
11
10.5409599212598426
21
-5.6644637401574798
0
LINE
8
BLACK
6
CONTINUOUS
10
10.5409599212598426
20
-5.6644637401574798
11
10.5409599212598426
21
-5.6607142125984247
0
LINE
8
BLACK
6
CONTINUOUS
10
10.5409599212598426
20
-5.6607142125984247
11
10.5447094488188977
21
-5.6532151181102357
0
LINE
8
BLACK
6
CONTINUOUS
10
10.5447094488188977
20
-5.6532151181102357
11
10.5522085039370079
21
-5.6494655905511806
0
LINE
8
BLACK
6
CONTINUOUS
10
10.5522085039370079
20
-5.6494655905511806
11
10.5634570866141733
21
-5.6494655905511806
0
LINE
8
BLACK
6
CONTINUOUS
10
10.5634570866141733
20
-5.6494655905511806
11
10.5709561811023622
21
-5.6532151181102357
0
LINE
8
BLACK
6
CONTINUOUS
10
10.6009524409448819
20
-5.7319552755905514
11
10.604701968503937
21
-5.7282057480314963
0
LINE
8
BLACK
6
CONTINUOUS
10
10.604701968503937
20
-5.7282057480314963
11
10.6122010236220472
21
-5.716957165354331
0
LINE
8
BLACK
6
CONTINUOUS
10
10.6122010236220472
20
-5.716957165354331
11
10.6159505511811023
21
-5.7094581102362207
0
LINE
8
BLACK
6
CONTINUOUS
10
10.6159505511811023
20
-5.7094581102362207
11
10.6197000787401574
21
-5.6982095275590554
0
LINE
8
BLACK
6
CONTINUOUS
10
10.6197000787401574
20
-5.6982095275590554
11
10.6234496062992125
21
-5.6794618503937002
0
LINE
8
BLACK
6
CONTINUOUS
10
10.6234496062992125
20
-5.6794618503937002
11
10.6234496062992125
21
-5.6644637401574798
0
LINE
8
BLACK
6
CONTINUOUS
10
10.6234496062992125
20
-5.6644637401574798
11
10.6197000787401574
21
-5.6457160629921255
0
LINE
8
BLACK
6
CONTINUOUS
10
10.6197000787401574
20
-5.6457160629921255
11
10.6159505511811023
21
-5.6344674803149601
0
LINE
8
BLACK
6
CONTINUOUS
10
10.6159505511811023
20
-5.6344674803149601
11
10.6122010236220472
21
-5.6269684251968499
0
LINE
8
BLACK
6
CONTINUOUS
10
10.6122010236220472
20
-5.6269684251968499
11
10.604701968503937
21
-5.6157198031496058
0
LINE
8
BLACK
6
CONTINUOUS
10
10.604701968503937
20
-5.6157198031496058
11
10.6009524409448819
21
-5.6119702755905507
0
CIRCLE
8
BLACK
10
8.6400157480314963
20
-5.769878818897638
40
0.006
0
LINE
8
BLACK
6
CONTINUOUS
10
8.7636818897637792
20
-5.7271559055118111
11
8.7711809842519681
21
-5.7271559055118111
0
LINE
8
BLACK
6
CONTINUOUS
10
8.7711809842519681
20
-5.7271559055118111
11
8.7786800393700783
21
-5.7309054330708662
0
LINE
8
BLACK
6
CONTINUOUS
10
8.7786800393700783
20
-5.7309054330708662
11
8.7824295669291335
21
-5.7346549606299213
0
LINE
8
BLACK
6
CONTINUOUS
10
8.7824295669291335
20
-5.7346549606299213
11
8.7861790944881886
21
-5.7421540157480315
0
LINE
8
BLACK
6
CONTINUOUS
10
8.7861790944881886
20
-5.7421540157480315
11
8.7899286220472437
21
-5.757152125984252
0
LINE
8
BLACK
6
CONTINUOUS
10
8.7899286220472437
20
-5.757152125984252
11
8.7899286220472437
21
-5.7758998031496063
0
LINE
8
BLACK
6
CONTINUOUS
10
8.7899286220472437
20
-5.7758998031496063
11
8.7861790944881886
21
-5.7908979133858267
0
LINE
8
BLACK
6
CONTINUOUS
10
8.7861790944881886
20
-5.7908979133858267
11
8.7824295669291335
21
-5.7983969685039369
0
LINE
8
BLACK
6
CONTINUOUS
10
8.7824295669291335
20
-5.7983969685039369
11
8.7786800393700783
21
-5.8021465354330708
0
LINE
8
BLACK
6
CONTINUOUS
10
8.7786800393700783
20
-5.8021465354330708
11
8.7711809842519681
21
-5.8058960629921259
0
LINE
8
BLACK
6
CONTINUOUS
10
8.7711809842519681
20
-5.8058960629921259
11
8.7636818897637792
21
-5.8058960629921259
0
LINE
8
BLACK
6
CONTINUOUS
10
8.7636818897637792
20
-5.8058960629921259
11
8.7561828346456689
21
-5.8021465354330708
0
LINE
8
BLACK
6
CONTINUOUS
10
8.7561828346456689
20
-5.8021465354330708
11
8.7524333070866138
21
-5.7983969685039369
0
LINE
8
BLACK
6
CONTINUOUS
10
8.7524333070866138
20
-5.7983969685039369
11
8.7486837795275587
21
-5.7908979133858267
0
LINE
8
BLACK
6
CONTINUOUS
10
8.7486837795275587
20
-5.7908979133858267
11
8.7449342519685036
21
-5.7758998031496063
0
LINE
8
BLACK
6
CONTINUOUS
10
8.7449342519685036
20
-5.7758998031496063
11
8.7449342519685036
21
-5.757152125984252
0
LINE
8
BLACK
6
CONTINUOUS
10
8.7449342519685036
20
-5.757152125984252
11
8.7486837795275587
21
-5.7421540157480315
0
LINE
8
BLACK
6
CONTINUOUS
10
8.7486837795275587
20
-5.7421540157480315
11
8.7524333070866138
21
-5.7346549606299213
0
LINE
8
BLACK
6
CONTINUOUS
10
8.7524333070866138
20
-5.7346549606299213
11
8.7561828346456689
21
-5.7309054330708662
0
LINE
8
BLACK
6
CONTINUOUS
10
8.7561828346456689
20
-5.7309054330708662
11
8.7636818897637792
21
-5.7271559055118111
0
LINE
8
BLACK
6
CONTINUOUS
10
8.8236744094488184
20
-5.7983969685039369
11
8.8274239370078735
21
-5.8021465354330708
0
LINE
8
BLACK
6
CONTINUOUS
10
8.8274239370078735
20
-5.8021465354330708
11
8.8236744094488184
21
-5.8058960629921259
0
LINE
8
BLACK
6
CONTINUOUS
10
8.8236744094488184
20
-5.8058960629921259
11
8.8199248818897633
21
-5.8021465354330708
0
LINE
8
BLACK
6
CONTINUOUS
10
8.8199248818897633
20
-5.8021465354330708
11
8.8236744094488184
21
-5.7983969685039369
0
LINE
8
BLACK
6
CONTINUOUS
10
8.8236744094488184
20
-5.7983969685039369
11
8.8236744094488184
21
-5.8058960629921259
0
LINE
8
BLACK
6
CONTINUOUS
10
8.8536706692913381
20
-5.7271559055118111
11
8.9024145669291332
21
-5.7271559055118111
0
LINE
8
BLACK
6
CONTINUOUS
10
8.9024145669291332
20
-5.7271559055118111
11
8.8761678346456687
21
-5.757152125984252
0
LINE
8
BLACK
6
CONTINUOUS
10
8.8761678346456687
20
-5.757152125984252
11
8.8874164566929128
21
-5.757152125984252
0
LINE
8
BLACK
6
CONTINUOUS
10
8.8874164566929128
20
-5.757152125984252
11
8.894915511811023
21
-5.7609016535433071
0
LINE
8
BLACK
6
CONTINUOUS
10
8.894915511811023
20
-5.7609016535433071
11
8.8986650393700781
21
-5.7646512204724409
0
LINE
8
BLACK
6
CONTINUOUS
10
8.8986650393700781
20
-5.7646512204724409
11
8.9024145669291332
21
-5.7721502755905512
0
LINE
8
BLACK
6
CONTINUOUS
10
8.9024145669291332
20
-5.7721502755905512
11
8.9024145669291332
21
-5.7908979133858267
0
LINE
8
BLACK
6
CONTINUOUS
10
8.9024145669291332
20
-5.7908979133858267
11
8.8986650393700781
21
-5.7983969685039369
0
LINE
8
BLACK
6
CONTINUOUS
10
8.8986650393700781
20
-5.7983969685039369
11
8.894915511811023
21
-5.8021465354330708
0
LINE
8
BLACK
6
CONTINUOUS
10
8.894915511811023
20
-5.8021465354330708
11
8.8874164566929128
21
-5.8058960629921259
0
LINE
8
BLACK
6
CONTINUOUS
10
8.8874164566929128
20
-5.8058960629921259
11
8.8649192519685034
21
-5.8058960629921259
0
LINE
8
BLACK
6
CONTINUOUS
10
8.8649192519685034
20
-5.8058960629921259
11
8.8574201968503932
21
-5.8021465354330708
0
LINE
8
BLACK
6
CONTINUOUS
10
8.8574201968503932
20
-5.8021465354330708
11
8.8536706692913381
21
-5.7983969685039369
0
LINE
8
BLACK
6
CONTINUOUS
10
8.9511584645669284
20
-5.7271559055118111
11
8.9586575590551174
21
-5.7271559055118111
0
LINE
8
BLACK
6
CONTINUOUS
10
8.9586575590551174
20
-5.7271559055118111
11
8.9661566141732276
21
-5.7309054330708662
0
LINE
8
BLACK
6
CONTINUOUS
10
8.9661566141732276
20
-5.7309054330708662
11
8.9699061417322827
21
-5.7346549606299213
0
LINE
8
BLACK
6
CONTINUOUS
10
8.9699061417322827
20
-5.7346549606299213
11
8.9736556692913378
21
-5.7421540157480315
0
LINE
8
BLACK
6
CONTINUOUS
10
8.9736556692913378
20
-5.7421540157480315
11
8.977405196850393
21
-5.757152125984252
0
LINE
8
BLACK
6
CONTINUOUS
10
8.977405196850393
20
-5.757152125984252
11
8.977405196850393
21
-5.7758998031496063
0
LINE
8
BLACK
6
CONTINUOUS
10
8.977405196850393
20
-5.7758998031496063
11
8.9736556692913378
21
-5.7908979133858267
0
LINE
8
BLACK
6
CONTINUOUS
10
8.9736556692913378
20
-5.7908979133858267
11
8.9699061417322827
21
-5.7983969685039369
0
LINE
8
BLACK
6
CONTINUOUS
10
8.9699061417322827
20
-5.7983969685039369
11
8.9661566141732276
21
-5.8021465354330708
0
LINE
8
BLACK
6
CONTINUOUS
10
8.9661566141732276
20
-5.8021465354330708
11
8.9586575590551174
21
-5.8058960629921259
0
LINE
8
BLACK
6
CONTINUOUS
10
8.9586575590551174
20
-5.8058960629921259
11
8.9511584645669284
21
-5.8058960629921259
0
LINE
8
BLACK
6
CONTINUOUS
10
8.9511584645669284
20
-5.8058960629921259
11
8.9436594094488182
21
-5.8021465354330708
0
LINE
8
BLACK
6
CONTINUOUS
10
8.9436594094488182
20
-5.8021465354330708
11
8.9399098818897631
21
-5.7983969685039369
0
LINE
8
BLACK
6
CONTINUOUS
10
8.9399098818897631
20
-5.7983969685039369
11
8.936160354330708
21
-5.7908979133858267
0
LINE
8
BLACK
6
CONTINUOUS
10
8.936160354330708
20
-5.7908979133858267
11
8.9324108267716529
21
-5.7758998031496063
0
LINE
8
BLACK
6
CONTINUOUS
10
8.9324108267716529
20
-5.7758998031496063
11
8.9324108267716529
21
-5.757152125984252
0
LINE
8
BLACK
6
CONTINUOUS
10
8.9324108267716529
20
-5.757152125984252
11
8.936160354330708
21
-5.7421540157480315
0
LINE
8
BLACK
6
CONTINUOUS
10
8.936160354330708
20
-5.7421540157480315
11
8.9399098818897631
21
-5.7346549606299213
0
LINE
8
BLACK
6
CONTINUOUS
10
8.9399098818897631
20
-5.7346549606299213
11
8.9436594094488182
21
-5.7309054330708662
0
LINE
8
BLACK
6
CONTINUOUS
10
8.9436594094488182
20
-5.7309054330708662
11
8.9511584645669284
21
-5.7271559055118111
0
LINE
8
BLACK
6
CONTINUOUS
10
9.0486462992125976
20
-5.7271559055118111
11
9.0111509842519677
21
-5.7271559055118111
0
LINE
8
BLACK
6
CONTINUOUS
10
9.0111509842519677
20
-5.7271559055118111
11
9.0074014566929126
21
-5.7646512204724409
0
LINE
8
BLACK
6
CONTINUOUS
10
9.0074014566929126
20
-5.7646512204724409
11
9.0111509842519677
21
-5.7609016535433071
0
LINE
8
BLACK
6
CONTINUOUS
10
9.0111509842519677
20
-5.7609016535433071
11
9.0186500393700779
21
-5.757152125984252
0
LINE
8
BLACK
6
CONTINUOUS
10
9.0186500393700779
20
-5.757152125984252
11
9.0373977165354322
21
-5.757152125984252
0
LINE
8
BLACK
6
CONTINUOUS
10
9.0373977165354322
20
-5.757152125984252
11
9.0448967716535424
21
-5.7609016535433071
0
LINE
8
BLACK
6
CONTINUOUS
10
9.0448967716535424
20
-5.7609016535433071
11
9.0486462992125976
21
-5.7646512204724409
0
LINE
8
BLACK
6
CONTINUOUS
10
9.0486462992125976
20
-5.7646512204724409
11
9.0523958267716527
21
-5.7721502755905512
0
LINE
8
BLACK
6
CONTINUOUS
10
9.0523958267716527
20
-5.7721502755905512
11
9.0523958267716527
21
-5.7908979133858267
0
LINE
8
BLACK
6
CONTINUOUS
10
9.0523958267716527
20
-5.7908979133858267
11
9.0486462992125976
21
-5.7983969685039369
0
LINE
8
BLACK
6
CONTINUOUS
10
9.0486462992125976
20
-5.7983969685039369
11
9.0448967716535424
21
-5.8021465354330708
0
LINE
8
BLACK
6
CONTINUOUS
10
9.0448967716535424
20
-5.8021465354330708
11
9.0373977165354322
21
-5.8058960629921259
0
LINE
8
BLACK
6
CONTINUOUS
10
9.0373977165354322
20
-5.8058960629921259
11
9.0186500393700779
21
-5.8058960629921259
0
LINE
8
BLACK
6
CONTINUOUS
10
9.0186500393700779
20
-5.8058960629921259
11
9.0111509842519677
21
-5.8021465354330708
0
LINE
8
BLACK
6
CONTINUOUS
10
9.0111509842519677
20
-5.8021465354330708
11
9.0074014566929126
21
-5.7983969685039369
0
LINE
8
BLACK
6
CONTINUOUS
10
9.0861416141732274
20
-5.8058960629921259
11
9.0861416141732274
21
-5.7534025984251969
0
LINE
8
BLACK
6
CONTINUOUS
10
9.0861416141732274
20
-5.7609016535433071
11
9.0898911417322825
21
-5.757152125984252
0
LINE
8
BLACK
6
CONTINUOUS
10
9.0898911417322825
20
-5.757152125984252
11
9.0973901968503927
21
-5.7534025984251969
0
LINE
8
BLACK
6
CONTINUOUS
10
9.0973901968503927
20
-5.7534025984251969
11
9.1086388188976368
21
-5.7534025984251969
0
LINE
8
BLACK
6
CONTINUOUS
10
9.1086388188976368
20
-5.7534025984251969
11
9.116137874015747
21
-5.757152125984252
0
LINE
8
BLACK
6
CONTINUOUS
10
9.116137874015747
20
-5.757152125984252
11
9.1198874015748022
21
-5.7646512204724409
0
LINE
8
BLACK
6
CONTINUOUS
10
9.1198874015748022
20
-5.7646512204724409
11
9.1198874015748022
21
-5.8058960629921259
0
LINE
8
BLACK
6
CONTINUOUS
10
9.1198874015748022
20
-5.7646512204724409
11
9.1236369291338573
21
-5.757152125984252
0
LINE
8
BLACK
6
CONTINUOUS
10
9.1236369291338573
20
-5.757152125984252
11
9.1311359842519675
21
-5.7534025984251969
0
LINE
8
BLACK
6
CONTINUOUS
10
9.1311359842519675
20
-5.7534025984251969
11
9.1423845669291328
21
-5.7534025984251969
0
LINE
8
BLACK
6
CONTINUOUS
10
9.1423845669291328
20
-5.7534025984251969
11
9.1498836614173218
21
-5.757152125984252
0
LINE
8
BLACK
6
CONTINUOUS
10
9.1498836614173218
20
-5.757152125984252
11
9.1536331889763769
21
-5.7646512204724409
0
LINE
8
BLACK
6
CONTINUOUS
10
9.1536331889763769
20
-5.7646512204724409
11
9.1536331889763769
21
-5.8058960629921259
0
LINE
8
BLACK
6
CONTINUOUS
10
9.1911285039370085
20
-5.8058960629921259
11
9.1911285039370085
21
-5.7534025984251969
0
LINE
8
BLACK
6
CONTINUOUS
10
9.1911285039370085
20
-5.7609016535433071
11
9.1948780314960636
21
-5.757152125984252
0
LINE
8
BLACK
6
CONTINUOUS
10
9.1948780314960636
20
-5.757152125984252
11
9.2023770866141739
21
-5.7534025984251969
0
LINE
8
BLACK
6
CONTINUOUS
10
9.2023770866141739
20
-5.7534025984251969
11
9.2136257086614179
21
-5.7534025984251969
0
LINE
8
BLACK
6
CONTINUOUS
10
9.2136257086614179
20
-5.7534025984251969
11
9.2211247637795282
21
-5.757152125984252
0
LINE
8
BLACK
6
CONTINUOUS
10
9.2211247637795282
20
-5.757152125984252
11
9.2248742913385833
21
-5.7646512204724409
0
LINE
8
BLACK
6
CONTINUOUS
10
9.2248742913385833
20
-5.7646512204724409
11
9.2248742913385833
21
-5.8058960629921259
0
LINE
8
BLACK
6
CONTINUOUS
10
9.2248742913385833
20
-5.7646512204724409
11
9.2286238188976384
21
-5.757152125984252
0
LINE
8
BLACK
6
CONTINUOUS
10
9.2286238188976384
20
-5.757152125984252
11
9.2361228740157486
21
-5.7534025984251969
0
LINE
8
BLACK
6
CONTINUOUS
10
9.2361228740157486
20
-5.7534025984251969
11
9.2473714566929139
21
-5.7534025984251969
0
LINE
8
BLACK
6
CONTINUOUS
10
9.2473714566929139
20
-5.7534025984251969
11
9.2548705511811029
21
-5.757152125984252
0
LINE
8
BLACK
6
CONTINUOUS
10
9.2548705511811029
20
-5.757152125984252
11
9.258620078740158
21
-5.7646512204724409
0
LINE
8
BLACK
6
CONTINUOUS
10
9.258620078740158
20
-5.7646512204724409
11
9.258620078740158
21
-5.8058960629921259
0
LINE
8
BLACK
6
CONTINUOUS
10
9.4123508661417326
20
-5.723406377952756
11
9.3448593307086618
21
-5.8246437007874015
0
LINE
8
BLACK
6
CONTINUOUS
10
9.5135882283464568
20
-5.7271559055118111
11
9.5210873228346458
21
-5.7271559055118111
0
LINE
8
BLACK
6
CONTINUOUS
10
9.5210873228346458
20
-5.7271559055118111
11
9.528586377952756
21
-5.7309054330708662
0
LINE
8
BLACK
6
CONTINUOUS
10
9.528586377952756
20
-5.7309054330708662
11
9.5323359055118111
21
-5.7346549606299213
0
LINE
8
BLACK
6
CONTINUOUS
10
9.5323359055118111
20
-5.7346549606299213
11
9.5360854330708662
21
-5.7421540157480315
0
LINE
8
BLACK
6
CONTINUOUS
10
9.5360854330708662
20
-5.7421540157480315
11
9.5398349606299213
21
-5.757152125984252
0
LINE
8
BLACK
6
CONTINUOUS
10
9.5398349606299213
20
-5.757152125984252
11
9.5398349606299213
21
-5.7758998031496063
0
LINE
8
BLACK
6
CONTINUOUS
10
9.5398349606299213
20
-5.7758998031496063
11
9.5360854330708662
21
-5.7908979133858267
0
LINE
8
BLACK
6
CONTINUOUS
10
9.5360854330708662
20
-5.7908979133858267
11
9.5323359055118111
21
-5.7983969685039369
0
LINE
8
BLACK
6
CONTINUOUS
10
9.5323359055118111
20
-5.7983969685039369
11
9.528586377952756
21
-5.8021465354330708
0
LINE
8
BLACK
6
CONTINUOUS
10
9.528586377952756
20
-5.8021465354330708
11
9.5210873228346458
21
-5.8058960629921259
0
LINE
8
BLACK
6
CONTINUOUS
10
9.5210873228346458
20
-5.8058960629921259
11
9.5135882283464568
21
-5.8058960629921259
0
LINE
8
BLACK
6
CONTINUOUS
10
9.5135882283464568
20
-5.8058960629921259
11
9.5060891732283466
21
-5.8021465354330708
0
LINE
8
BLACK
6
CONTINUOUS
10
9.5060891732283466
20
-5.8021465354330708
11
9.5023396456692915
21
-5.7983969685039369
0
LINE
8
BLACK
6
CONTINUOUS
10
9.5023396456692915
20
-5.7983969685039369
11
9.4985901181102363
21
-5.7908979133858267
0
LINE
8
BLACK
6
CONTINUOUS
10
9.4985901181102363
20
-5.7908979133858267
11
9.4948405905511812
21
-5.7758998031496063
0
LINE
8
BLACK
6
CONTINUOUS
10
9.4948405905511812
20
-5.7758998031496063
11
9.4948405905511812
21
-5.757152125984252
0
LINE
8
BLACK
6
CONTINUOUS
10
9.4948405905511812
20
-5.757152125984252
11
9.4985901181102363
21
-5.7421540157480315
0
LINE
8
BLACK
6
CONTINUOUS
10
9.4985901181102363
20
-5.7421540157480315
11
9.5023396456692915
21
-5.7346549606299213
0
LINE
8
BLACK
6
CONTINUOUS
10
9.5023396456692915
20
-5.7346549606299213
11
9.5060891732283466
21
-5.7309054330708662
0
LINE
8
BLACK
6
CONTINUOUS
10
9.5060891732283466
20
-5.7309054330708662
11
9.5135882283464568
21
-5.7271559055118111
0
LINE
8
BLACK
6
CONTINUOUS
10
9.5735807480314961
20
-5.7983969685039369
11
9.5773302755905512
21
-5.8021465354330708
0
LINE
8
BLACK
6
CONTINUOUS
10
9.5773302755905512
20
-5.8021465354330708
11
9.5735807480314961
21
-5.8058960629921259
0
LINE
8
BLACK
6
CONTINUOUS
10
9.5735807480314961
20
-5.8058960629921259
11
9.5698312204724409
21
-5.8021465354330708
0
LINE
8
BLACK
6
CONTINUOUS
10
9.5698312204724409
20
-5.8021465354330708
11
9.5735807480314961
21
-5.7983969685039369
0
LINE
8
BLACK
6
CONTINUOUS
10
9.5735807480314961
20
-5.7983969685039369
11
9.5735807480314961
21
-5.8058960629921259
0
LINE
8
BLACK
6
CONTINUOUS
10
9.6260741732283464
20
-5.7271559055118111
11
9.6335732677165353
21
-5.7271559055118111
0
LINE
8
BLACK
6
CONTINUOUS
10
9.6335732677165353
20
-5.7271559055118111
11
9.6410723228346455
21
-5.7309054330708662
0
LINE
8
BLACK
6
CONTINUOUS
10
9.6410723228346455
20
-5.7309054330708662
11
9.6448218503937007
21
-5.7346549606299213
0
LINE
8
BLACK
6
CONTINUOUS
10
9.6448218503937007
20
-5.7346549606299213
11
9.6485713779527558
21
-5.7421540157480315
0
LINE
8
BLACK
6
CONTINUOUS
10
9.6485713779527558
20
-5.7421540157480315
11
9.6523209055118109
21
-5.757152125984252
0
LINE
8
BLACK
6
CONTINUOUS
10
9.6523209055118109
20
-5.757152125984252
11
9.6523209055118109
21
-5.7758998031496063
0
LINE
8
BLACK
6
CONTINUOUS
10
9.6523209055118109
20
-5.7758998031496063
11
9.6485713779527558
21
-5.7908979133858267
0
LINE
8
BLACK
6
CONTINUOUS
10
9.6485713779527558
20
-5.7908979133858267
11
9.6448218503937007
21
-5.7983969685039369
0
LINE
8
BLACK
6
CONTINUOUS
10
9.6448218503937007
20
-5.7983969685039369
11
9.6410723228346455
21
-5.8021465354330708
0
LINE
8
BLACK
6
CONTINUOUS
10
9.6410723228346455
20
-5.8021465354330708
11
9.6335732677165353
21
-5.8058960629921259
0
LINE
8
BLACK
6
CONTINUOUS
10
9.6335732677165353
20
-5.8058960629921259
11
9.6260741732283464
21
-5.8058960629921259
0
LINE
8
BLACK
6
CONTINUOUS
10
9.6260741732283464
20
-5.8058960629921259
11
9.6185751181102361
21
-5.8021465354330708
0
LINE
8
BLACK
6
CONTINUOUS
10
9.6185751181102361
20
-5.8021465354330708
11
9.614825590551181
21
-5.7983969685039369
0
LINE
8
BLACK
6
CONTINUOUS
10
9.614825590551181
20
-5.7983969685039369
11
9.6110760629921259
21
-5.7908979133858267
0
LINE
8
BLACK
6
CONTINUOUS
10
9.6110760629921259
20
-5.7908979133858267
11
9.6073265354330708
21
-5.7758998031496063
0
LINE
8
BLACK
6
CONTINUOUS
10
9.6073265354330708
20
-5.7758998031496063
11
9.6073265354330708
21
-5.757152125984252
0
LINE
8
BLACK
6
CONTINUOUS
10
9.6073265354330708
20
-5.757152125984252
11
9.6110760629921259
21
-5.7421540157480315
0
LINE
8
BLACK
6
CONTINUOUS
10
9.6110760629921259
20
-5.7421540157480315
11
9.614825590551181
21
-5.7346549606299213
0
LINE
8
BLACK
6
CONTINUOUS
10
9.614825590551181
20
-5.7346549606299213
11
9.6185751181102361
21
-5.7309054330708662
0
LINE
8
BLACK
6
CONTINUOUS
10
9.6185751181102361
20
-5.7309054330708662
11
9.6260741732283464
21
-5.7271559055118111
0
LINE
8
BLACK
6
CONTINUOUS
10
9.7273115354330706
20
-5.8058960629921259
11
9.6823171653543305
21
-5.8058960629921259
0
LINE
8
BLACK
6
CONTINUOUS
10
9.7048143307086612
20
-5.8058960629921259
11
9.7048143307086612
21
-5.7271559055118111
0
LINE
8
BLACK
6
CONTINUOUS
10
9.7048143307086612
20
-5.7271559055118111
11
9.697315275590551
21
-5.7384044881889764
0
LINE
8
BLACK
6
CONTINUOUS
10
9.697315275590551
20
-5.7384044881889764
11
9.6898162204724407
21
-5.7459035433070866
0
LINE
8
BLACK
6
CONTINUOUS
10
9.6898162204724407
20
-5.7459035433070866
11
9.6823171653543305
21
-5.7496530708661417
0
LINE
8
BLACK
6
CONTINUOUS
10
9.7573077952755902
20
-5.7346549606299213
11
9.7610573228346453
21
-5.7309054330708662
0
LINE
8
BLACK
6
CONTINUOUS
10
9.7610573228346453
20
-5.7309054330708662
11
9.7685563779527556
21
-5.7271559055118111
0
LINE
8
BLACK
6
CONTINUOUS
10
9.7685563779527556
20
-5.7271559055118111
11
9.7873040551181099
21
-5.7271559055118111
0
LINE
8
BLACK
6
CONTINUOUS
10
9.7873040551181099
20
-5.7271559055118111
11
9.7948031102362201
21
-5.7309054330708662
0
LINE
8
BLACK
6
CONTINUOUS
10
9.7948031102362201
20
-5.7309054330708662
11
9.7985526377952752
21
-5.7346549606299213
0
LINE
8
BLACK
6
CONTINUOUS
10
9.7985526377952752
20
-5.7346549606299213
11
9.8023021653543303
21
-5.7421540157480315
0
LINE
8
BLACK
6
CONTINUOUS
10
9.8023021653543303
20
-5.7421540157480315
11
9.8023021653543303
21
-5.7496530708661417
0
LINE
8
BLACK
6
CONTINUOUS
10
9.8023021653543303
20
-5.7496530708661417
11
9.7985526377952752
21
-5.7609016535433071
0
LINE
8
BLACK
6
CONTINUOUS
10
9.7985526377952752
20
-5.7609016535433071
11
9.7535582677165351
21
-5.8058960629921259
0
LINE
8
BLACK
6
CONTINUOUS
10
9.7535582677165351
20
-5.8058960629921259
11
9.8023021653543303
21
-5.8058960629921259
0
LINE
8
BLACK
6
CONTINUOUS
10
9.8510460629921255
20
-5.7271559055118111
11
9.8585451574803145
21
-5.7271559055118111
0
LINE
8
BLACK
6
CONTINUOUS
10
9.8585451574803145
20
-5.7271559055118111
11
9.8660442125984247
21
-5.7309054330708662
0
LINE
8
BLACK
6
CONTINUOUS
10
9.8660442125984247
20
-5.7309054330708662
11
9.8697937401574798
21
-5.7346549606299213
0
LINE
8
BLACK
6
CONTINUOUS
10
9.8697937401574798
20
-5.7346549606299213
11
9.8735432677165349
21
-5.7421540157480315
0
LINE
8
BLACK
6
CONTINUOUS
10
9.8735432677165349
20
-5.7421540157480315
11
9.87729279527559
21
-5.757152125984252
0
LINE
8
BLACK
6
CONTINUOUS
10
9.87729279527559
20
-5.757152125984252
11
9.87729279527559
21
-5.7758998031496063
0
LINE
8
BLACK
6
CONTINUOUS
10
9.87729279527559
20
-5.7758998031496063
11
9.8735432677165349
21
-5.7908979133858267
0
LINE
8
BLACK
6
CONTINUOUS
10
9.8735432677165349
20
-5.7908979133858267
11
9.8697937401574798
21
-5.7983969685039369
0
LINE
8
BLACK
6
CONTINUOUS
10
9.8697937401574798
20
-5.7983969685039369
11
9.8660442125984247
21
-5.8021465354330708
0
LINE
8
BLACK
6
CONTINUOUS
10
9.8660442125984247
20
-5.8021465354330708
11
9.8585451574803145
21
-5.8058960629921259
0
LINE
8
BLACK
6
CONTINUOUS
10
9.8585451574803145
20
-5.8058960629921259
11
9.8510460629921255
21
-5.8058960629921259
0
LINE
8
BLACK
6
CONTINUOUS
10
9.8510460629921255
20
-5.8058960629921259
11
9.8435470078740153
21
-5.8021465354330708
0
LINE
8
BLACK
6
CONTINUOUS
10
9.8435470078740153
20
-5.8021465354330708
11
9.8397974803149602
21
-5.7983969685039369
0
LINE
8
BLACK
6
CONTINUOUS
10
9.8397974803149602
20
-5.7983969685039369
11
9.836047952755905
21
-5.7908979133858267
0
LINE
8
BLACK
6
CONTINUOUS
10
9.836047952755905
20
-5.7908979133858267
11
9.8322984251968499
21
-5.7758998031496063
0
LINE
8
BLACK
6
CONTINUOUS
10
9.8322984251968499
20
-5.7758998031496063
11
9.8322984251968499
21
-5.757152125984252
0
LINE
8
BLACK
6
CONTINUOUS
10
9.8322984251968499
20
-5.757152125984252
11
9.836047952755905
21
-5.7421540157480315
0
LINE
8
BLACK
6
CONTINUOUS
10
9.836047952755905
20
-5.7421540157480315
11
9.8397974803149602
21
-5.7346549606299213
0
LINE
8
BLACK
6
CONTINUOUS
10
9.8397974803149602
20
-5.7346549606299213
11
9.8435470078740153
21
-5.7309054330708662
0
LINE
8
BLACK
6
CONTINUOUS
10
9.8435470078740153
20
-5.7309054330708662
11
9.8510460629921255
21
-5.7271559055118111
0
LINE
8
BLACK
6
CONTINUOUS
10
9.9072890551181096
20
-5.7271559055118111
11
9.9072890551181096
21
-5.7421540157480315
0
LINE
8
BLACK
6
CONTINUOUS
10
9.9372853149606293
20
-5.7271559055118111
11
9.9372853149606293
21
-5.7421540157480315
0
LINE
8
BLACK
6
CONTINUOUS
10
10.0535208267716527
20
-5.8358922834645668
11
10.0497712598425188
21
-5.8321427559055117
0
LINE
8
BLACK
6
CONTINUOUS
10
10.0497712598425188
20
-5.8321427559055117
11
10.0422722047244086
21
-5.8208941732283463
0
LINE
8
BLACK
6
CONTINUOUS
10
10.0422722047244086
20
-5.8208941732283463
11
10.0385226771653535
21
-5.8133951181102361
0
LINE
8
BLACK
6
CONTINUOUS
10
10.0385226771653535
20
-5.8133951181102361
11
10.0347731496062984
21
-5.8021465354330708
0
LINE
8
BLACK
6
CONTINUOUS
10
10.0347731496062984
20
-5.8021465354330708
11
10.0310236220472433
21
-5.7833988582677165
0
LINE
8
BLACK
6
CONTINUOUS
10
10.0310236220472433
20
-5.7833988582677165
11
10.0310236220472433
21
-5.7684007480314961
0
LINE
8
BLACK
6
CONTINUOUS
10
10.0310236220472433
20
-5.7684007480314961
11
10.0347731496062984
21
-5.7496530708661417
0
LINE
8
BLACK
6
CONTINUOUS
10
10.0347731496062984
20
-5.7496530708661417
11
10.0385226771653535
21
-5.7384044881889764
0
LINE
8
BLACK
6
CONTINUOUS
10
10.0385226771653535
20
-5.7384044881889764
11
10.0422722047244086
21
-5.7309054330708662
0
LINE
8
BLACK
6
CONTINUOUS
10
10.0422722047244086
20
-5.7309054330708662
11
10.0497712598425188
21
-5.7196568110236221
0
LINE
8
BLACK
6
CONTINUOUS
10
10.0497712598425188
20
-5.7196568110236221
11
10.0535208267716527
21
-5.715907283464567
0
LINE
8
BLACK
6
CONTINUOUS
10
10.1247618897637786
20
-5.8058960629921259
11
10.0797675196850385
21
-5.8058960629921259
0
LINE
8
BLACK
6
CONTINUOUS
10
10.1022646850393691
20
-5.8058960629921259
11
10.1022646850393691
21
-5.7271559055118111
0
LINE
8
BLACK
6
CONTINUOUS
10
10.1022646850393691
20
-5.7271559055118111
11
10.0947656299212589
21
-5.7384044881889764
0
LINE
8
BLACK
6
CONTINUOUS
10
10.0947656299212589
20
-5.7384044881889764
11
10.0872665748031487
21
-5.7459035433070866
0
LINE
8
BLACK
6
CONTINUOUS
10
10.0872665748031487
20
-5.7459035433070866
11
10.0797675196850385
21
-5.7496530708661417
0
LINE
8
BLACK
6
CONTINUOUS
10
10.1547581496062982
20
-5.7346549606299213
11
10.1585076771653533
21
-5.7309054330708662
0
LINE
8
BLACK
6
CONTINUOUS
10
10.1585076771653533
20
-5.7309054330708662
11
10.1660067322834635
21
-5.7271559055118111
0
LINE
8
BLACK
6
CONTINUOUS
10
10.1660067322834635
20
-5.7271559055118111
11
10.1847544094488178
21
-5.7271559055118111
0
LINE
8
BLACK
6
CONTINUOUS
10
10.1847544094488178
20
-5.7271559055118111
11
10.192253464566928
21
-5.7309054330708662
0
LINE
8
BLACK
6
CONTINUOUS
10
10.192253464566928
20
-5.7309054330708662
11
10.1960029921259832
21
-5.7346549606299213
0
LINE
8
BLACK
6
CONTINUOUS
10
10.1960029921259832
20
-5.7346549606299213
11
10.1997525196850383
21
-5.7421540157480315
0
LINE
8
BLACK
6
CONTINUOUS
10
10.1997525196850383
20
-5.7421540157480315
11
10.1997525196850383
21
-5.7496530708661417
0
LINE
8
BLACK
6
CONTINUOUS
10
10.1997525196850383
20
-5.7496530708661417
11
10.1960029921259832
21
-5.7609016535433071
0
LINE
8
BLACK
6
CONTINUOUS
10
10.1960029921259832
20
-5.7609016535433071
11
10.1510086220472431
21
-5.8058960629921259
0
LINE
8
BLACK
6
CONTINUOUS
10
10.1510086220472431
20
-5.8058960629921259
11
10.1997525196850383
21
-5.8058960629921259
0
LINE
8
BLACK
6
CONTINUOUS
10
10.2934908267716541
20
-5.8058960629921259
11
10.2934908267716541
21
-5.7271559055118111
0
LINE
8
BLACK
6
CONTINUOUS
10
10.3272366141732288
20
-5.8058960629921259
11
10.3272366141732288
21
-5.7646512204724409
0
LINE
8
BLACK
6
CONTINUOUS
10
10.3272366141732288
20
-5.7646512204724409
11
10.3234870866141737
21
-5.757152125984252
0
LINE
8
BLACK
6
CONTINUOUS
10
10.3234870866141737
20
-5.757152125984252
11
10.3159880314960635
21
-5.7534025984251969
0
LINE
8
BLACK
6
CONTINUOUS
10
10.3159880314960635
20
-5.7534025984251969
11
10.3047394094488194
21
-5.7534025984251969
0
LINE
8
BLACK
6
CONTINUOUS
10
10.3047394094488194
20
-5.7534025984251969
11
10.2972403543307092
21
-5.757152125984252
0
LINE
8
BLACK
6
CONTINUOUS
10
10.2972403543307092
20
-5.757152125984252
11
10.2934908267716541
21
-5.7609016535433071
0
LINE
8
BLACK
6
CONTINUOUS
10
10.375980511811024
20
-5.8058960629921259
11
10.3684814566929138
21
-5.8021465354330708
0
LINE
8
BLACK
6
CONTINUOUS
10
10.3684814566929138
20
-5.8021465354330708
11
10.3647319291338587
21
-5.7983969685039369
0
LINE
8
BLACK
6
CONTINUOUS
10
10.3647319291338587
20
-5.7983969685039369
11
10.3609824015748035
21
-5.7908979133858267
0
LINE
8
BLACK
6
CONTINUOUS
10
10.3609824015748035
20
-5.7908979133858267
11
10.3609824015748035
21
-5.7684007480314961
0
LINE
8
BLACK
6
CONTINUOUS
10
10.3609824015748035
20
-5.7684007480314961
11
10.3647319291338587
21
-5.7609016535433071
0
LINE
8
BLACK
6
CONTINUOUS
10
10.3647319291338587
20
-5.7609016535433071
11
10.3684814566929138
21
-5.757152125984252
0
LINE
8
BLACK
6
CONTINUOUS
10
10.3684814566929138
20
-5.757152125984252
11
10.375980511811024
21
-5.7534025984251969
0
LINE
8
BLACK
6
CONTINUOUS
10
10.375980511811024
20
-5.7534025984251969
11
10.3872291338582681
21
-5.7534025984251969
0
LINE
8
BLACK
6
CONTINUOUS
10
10.3872291338582681
20
-5.7534025984251969
11
10.3947281889763783
21
-5.757152125984252
0
LINE
8
BLACK
6
CONTINUOUS
10
10.3947281889763783
20
-5.757152125984252
11
10.3984777165354334
21
-5.7609016535433071
0
LINE
8
BLACK
6
CONTINUOUS
10
10.3984777165354334
20
-5.7609016535433071
11
10.4022272440944885
21
-5.7684007480314961
0
LINE
8
BLACK
6
CONTINUOUS
10
10.4022272440944885
20
-5.7684007480314961
11
10.4022272440944885
21
-5.7908979133858267
0
LINE
8
BLACK
6
CONTINUOUS
10
10.4022272440944885
20
-5.7908979133858267
11
10.3984777165354334
21
-5.7983969685039369
0
LINE
8
BLACK
6
CONTINUOUS
10
10.3984777165354334
20
-5.7983969685039369
11
10.3947281889763783
21
-5.8021465354330708
0
LINE
8
BLACK
6
CONTINUOUS
10
10.3947281889763783
20
-5.8021465354330708
11
10.3872291338582681
21
-5.8058960629921259
0
LINE
8
BLACK
6
CONTINUOUS
10
10.3872291338582681
20
-5.8058960629921259
11
10.375980511811024
21
-5.8058960629921259
0
LINE
8
BLACK
6
CONTINUOUS
10
10.4472216141732286
20
-5.8058960629921259
11
10.4397225590551184
21
-5.8021465354330708
0
LINE
8
BLACK
6
CONTINUOUS
10
10.4397225590551184
20
-5.8021465354330708
11
10.4359730314960633
21
-5.7946474409448818
0
LINE
8
BLACK
6
CONTINUOUS
10
10.4359730314960633
20
-5.7946474409448818
11
10.4359730314960633
21
-5.7271559055118111
0
LINE
8
BLACK
6
CONTINUOUS
10
10.5072141338582679
20
-5.8021465354330708
11
10.4997150787401576
21
-5.8058960629921259
0
LINE
8
BLACK
6
CONTINUOUS
10
10.4997150787401576
20
-5.8058960629921259
11
10.4847169291338584
21
-5.8058960629921259
0
LINE
8
BLACK
6
CONTINUOUS
10
10.4847169291338584
20
-5.8058960629921259
11
10.4772178740157482
21
-5.8021465354330708
0
LINE
8
BLACK
6
CONTINUOUS
10
10.4772178740157482
20
-5.8021465354330708
11
10.4734683464566931
21
-5.7946474409448818
0
LINE
8
BLACK
6
CONTINUOUS
10
10.4734683464566931
20
-5.7946474409448818
11
10.4734683464566931
21
-5.7646512204724409
0
LINE
8
BLACK
6
CONTINUOUS
10
10.4734683464566931
20
-5.7646512204724409
11
10.4772178740157482
21
-5.757152125984252
0
LINE
8
BLACK
6
CONTINUOUS
10
10.4772178740157482
20
-5.757152125984252
11
10.4847169291338584
21
-5.7534025984251969
0
LINE
8
BLACK
6
CONTINUOUS
10
10.4847169291338584
20
-5.7534025984251969
11
10.4997150787401576
21
-5.7534025984251969
0
LINE
8
BLACK
6
CONTINUOUS
10
10.4997150787401576
20
-5.7534025984251969
11
10.5072141338582679
21
-5.757152125984252
0
LINE
8
BLACK
6
CONTINUOUS
10
10.5072141338582679
20
-5.757152125984252
11
10.510963661417323
21
-5.7646512204724409
0
LINE
8
BLACK
6
CONTINUOUS
10
10.510963661417323
20
-5.7646512204724409
11
10.510963661417323
21
-5.7721502755905512
0
LINE
8
BLACK
6
CONTINUOUS
10
10.510963661417323
20
-5.7721502755905512
11
10.4734683464566931
21
-5.7796493307086614
0
LINE
8
BLACK
6
CONTINUOUS
10
10.5409599212598426
20
-5.8021465354330708
11
10.5484589763779528
21
-5.8058960629921259
0
LINE
8
BLACK
6
CONTINUOUS
10
10.5484589763779528
20
-5.8058960629921259
11
10.5634570866141733
21
-5.8058960629921259
0
LINE
8
BLACK
6
CONTINUOUS
10
10.5634570866141733
20
-5.8058960629921259
11
10.5709561811023622
21
-5.8021465354330708
0
LINE
8
BLACK
6
CONTINUOUS
10
10.5709561811023622
20
-5.8021465354330708
11
10.5747057086614173
21
-5.7946474409448818
0
LINE
8
BLACK
6
CONTINUOUS
10
10.5747057086614173
20
-5.7946474409448818
11
10.5747057086614173
21
-5.7908979133858267
0
LINE
8
BLACK
6
CONTINUOUS
10
10.5747057086614173
20
-5.7908979133858267
11
10.5709561811023622
21
-5.7833988582677165
0
LINE
8
BLACK
6
CONTINUOUS
10
10.5709561811023622
20
-5.7833988582677165
11
10.5634570866141733
21
-5.7796493307086614
0
LINE
8
BLACK
6
CONTINUOUS
10
10.5634570866141733
20
-5.7796493307086614
11
10.5522085039370079
21
-5.7796493307086614
0
LINE
8
BLACK
6
CONTINUOUS
10
10.5522085039370079
20
-5.7796493307086614
11
10.5447094488188977
21
-5.7758998031496063
0
LINE
8
BLACK
6
CONTINUOUS
10
10.5447094488188977
20
-5.7758998031496063
11
10.5409599212598426
21
-5.7684007480314961
0
LINE
8
BLACK
6
CONTINUOUS
10
10.5409599212598426
20
-5.7684007480314961
11
10.5409599212598426
21
-5.7646512204724409
0
LINE
8
BLACK
6
CONTINUOUS
10
10.5409599212598426
20
-5.7646512204724409
11
10.5447094488188977
21
-5.757152125984252
0
LINE
8
BLACK
6
CONTINUOUS
10
10.5447094488188977
20
-5.757152125984252
11
10.5522085039370079
21
-5.7534025984251969
0
LINE
8
BLACK
6
CONTINUOUS
10
10.5522085039370079
20
-5.7534025984251969
11
10.5634570866141733
21
-5.7534025984251969
0
LINE
8
BLACK
6
CONTINUOUS
10
10.5634570866141733
20
-5.7534025984251969
11
10.5709561811023622
21
-5.757152125984252
0
LINE
8
BLACK
6
CONTINUOUS
10
10.6009524409448819
20
-5.8358922834645668
11
10.604701968503937
21
-5.8321427559055117
0
LINE
8
BLACK
6
CONTINUOUS
10
10.604701968503937
20
-5.8321427559055117
11
10.6122010236220472
21
-5.8208941732283463
0
LINE
8
BLACK
6
CONTINUOUS
10
10.6122010236220472
20
-5.8208941732283463
11
10.6159505511811023
21
-5.8133951181102361
0
LINE
8
BLACK
6
CONTINUOUS
10
10.6159505511811023
20
-5.8133951181102361
11
10.6197000787401574
21
-5.8021465354330708
0
LINE
8
BLACK
6
CONTINUOUS
10
10.6197000787401574
20
-5.8021465354330708
11
10.6234496062992125
21
-5.7833988582677165
0
LINE
8
BLACK
6
CONTINUOUS
10
10.6234496062992125
20
-5.7833988582677165
11
10.6234496062992125
21
-5.7684007480314961
0
LINE
8
BLACK
6
CONTINUOUS
10
10.6234496062992125
20
-5.7684007480314961
11
10.6197000787401574
21
-5.7496530708661417
0
LINE
8
BLACK
6
CONTINUOUS
10
10.6197000787401574
20
-5.7496530708661417
11
10.6159505511811023
21
-5.7384044881889764
0
LINE
8
BLACK
6
CONTINUOUS
10
10.6159505511811023
20
-5.7384044881889764
11
10.6122010236220472
21
-5.7309054330708662
0
LINE
8
BLACK
6
CONTINUOUS
10
10.6122010236220472
20
-5.7309054330708662
11
10.604701968503937
21
-5.7196568110236221
0
LINE
8
BLACK
6
CONTINUOUS
10
10.604701968503937
20
-5.7196568110236221
11
10.6009524409448819
21
-5.715907283464567
0
LINE
8
BLACK
6
CONTINUOUS
10
8.6263307086614169
20
-5.8541307874015747
11
8.6263307086614169
21
-5.8935008661417321
0
LINE
8
BLACK
6
CONTINUOUS
10
8.6066456692913391
20
-5.8738158267716534
11
8.6460157480314965
21
-5.8738158267716534
0
LINE
8
BLACK
6
CONTINUOUS
10
8.7899286220472437
20
-5.9098330708661413
11
8.7449342519685036
21
-5.9098330708661413
0
LINE
8
BLACK
6
CONTINUOUS
10
8.7674314173228343
20
-5.9098330708661413
11
8.7674314173228343
21
-5.8310929133858265
0
LINE
8
BLACK
6
CONTINUOUS
10
8.7674314173228343
20
-5.8310929133858265
11
8.759932362204724
21
-5.8423414960629918
0
LINE
8
BLACK
6
CONTINUOUS
10
8.759932362204724
20
-5.8423414960629918
11
8.7524333070866138
21
-5.849840551181102
0
LINE
8
BLACK
6
CONTINUOUS
10
8.7524333070866138
20
-5.849840551181102
11
8.7449342519685036
21
-5.8535900787401571
0
LINE
8
BLACK
6
CONTINUOUS
10
8.8236744094488184
20
-5.9023339763779523
11
8.8274239370078735
21
-5.9060835433070862
0
LINE
8
BLACK
6
CONTINUOUS
10
8.8274239370078735
20
-5.9060835433070862
11
8.8236744094488184
21
-5.9098330708661413
0
LINE
8
BLACK
6
CONTINUOUS
10
8.8236744094488184
20
-5.9098330708661413
11
8.8199248818897633
21
-5.9060835433070862
0
LINE
8
BLACK
6
CONTINUOUS
10
8.8199248818897633
20
-5.9060835433070862
11
8.8236744094488184
21
-5.9023339763779523
0
LINE
8
BLACK
6
CONTINUOUS
10
8.8236744094488184
20
-5.9023339763779523
11
8.8236744094488184
21
-5.9098330708661413
0
LINE
8
BLACK
6
CONTINUOUS
10
8.8761678346456687
20
-5.8310929133858265
11
8.8836669291338577
21
-5.8310929133858265
0
LINE
8
BLACK
6
CONTINUOUS
10
8.8836669291338577
20
-5.8310929133858265
11
8.8911659842519679
21
-5.8348424409448816
0
LINE
8
BLACK
6
CONTINUOUS
10
8.8911659842519679
20
-5.8348424409448816
11
8.894915511811023
21
-5.8385919685039367
0
LINE
8
BLACK
6
CONTINUOUS
10
8.894915511811023
20
-5.8385919685039367
11
8.8986650393700781
21
-5.8460910236220469
0
LINE
8
BLACK
6
CONTINUOUS
10
8.8986650393700781
20
-5.8460910236220469
11
8.9024145669291332
21
-5.8610891338582674
0
LINE
8
BLACK
6
CONTINUOUS
10
8.9024145669291332
20
-5.8610891338582674
11
8.9024145669291332
21
-5.8798368110236217
0
LINE
8
BLACK
6
CONTINUOUS
10
8.9024145669291332
20
-5.8798368110236217
11
8.8986650393700781
21
-5.8948349212598421
0
LINE
8
BLACK
6
CONTINUOUS
10
8.8986650393700781
20
-5.8948349212598421
11
8.894915511811023
21
-5.9023339763779523
0
LINE
8
BLACK
6
CONTINUOUS
10
8.894915511811023
20
-5.9023339763779523
11
8.8911659842519679
21
-5.9060835433070862
0
LINE
8
BLACK
6
CONTINUOUS
10
8.8911659842519679
20
-5.9060835433070862
11
8.8836669291338577
21
-5.9098330708661413
0
LINE
8
BLACK
6
CONTINUOUS
10
8.8836669291338577
20
-5.9098330708661413
11
8.8761678346456687
21
-5.9098330708661413
0
LINE
8
BLACK
6
CONTINUOUS
10
8.8761678346456687
20
-5.9098330708661413
11
8.8686687795275585
21
-5.9060835433070862
0
LINE
8
BLACK
6
CONTINUOUS
10
8.8686687795275585
20
-5.9060835433070862
11
8.8649192519685034
21
-5.9023339763779523
0
LINE
8
BLACK
6
CONTINUOUS
10
8.8649192519685034
20
-5.9023339763779523
11
8.8611697244094483
21
-5.8948349212598421
0
LINE
8
BLACK
6
CONTINUOUS
10
8.8611697244094483
20
-5.8948349212598421
11
8.8574201968503932
21
-5.8798368110236217
0
LINE
8
BLACK
6
CONTINUOUS
10
8.8574201968503932
20
-5.8798368110236217
11
8.8574201968503932
21
-5.8610891338582674
0
LINE
8
BLACK
6
CONTINUOUS
10
8.8574201968503932
20
-5.8610891338582674
11
8.8611697244094483
21
-5.8460910236220469
0
LINE
8
BLACK
6
CONTINUOUS
10
8.8611697244094483
20
-5.8460910236220469
11
8.8649192519685034
21
-5.8385919685039367
0
LINE
8
BLACK
6
CONTINUOUS
10
8.8649192519685034
20
-5.8385919685039367
11
8.8686687795275585
21
-5.8348424409448816
0
LINE
8
BLACK
6
CONTINUOUS
10
8.8686687795275585
20
-5.8348424409448816
11
8.8761678346456687
21
-5.8310929133858265
0
LINE
8
BLACK
6
CONTINUOUS
10
8.9511584645669284
20
-5.8310929133858265
11
8.9586575590551174
21
-5.8310929133858265
0
LINE
8
BLACK
6
CONTINUOUS
10
8.9586575590551174
20
-5.8310929133858265
11
8.9661566141732276
21
-5.8348424409448816
0
LINE
8
BLACK
6
CONTINUOUS
10
8.9661566141732276
20
-5.8348424409448816
11
8.9699061417322827
21
-5.8385919685039367
0
LINE
8
BLACK
6
CONTINUOUS
10
8.9699061417322827
20
-5.8385919685039367
11
8.9736556692913378
21
-5.8460910236220469
0
LINE
8
BLACK
6
CONTINUOUS
10
8.9736556692913378
20
-5.8460910236220469
11
8.977405196850393
21
-5.8610891338582674
0
LINE
8
BLACK
6
CONTINUOUS
10
8.977405196850393
20
-5.8610891338582674
11
8.977405196850393
21
-5.8798368110236217
0
LINE
8
BLACK
6
CONTINUOUS
10
8.977405196850393
20
-5.8798368110236217
11
8.9736556692913378
21
-5.8948349212598421
0
LINE
8
BLACK
6
CONTINUOUS
10
8.9736556692913378
20
-5.8948349212598421
11
8.9699061417322827
21
-5.9023339763779523
0
LINE
8
BLACK
6
CONTINUOUS
10
8.9699061417322827
20
-5.9023339763779523
11
8.9661566141732276
21
-5.9060835433070862
0
LINE
8
BLACK
6
CONTINUOUS
10
8.9661566141732276
20
-5.9060835433070862
11
8.9586575590551174
21
-5.9098330708661413
0
LINE
8
BLACK
6
CONTINUOUS
10
8.9586575590551174
20
-5.9098330708661413
11
8.9511584645669284
21
-5.9098330708661413
0
LINE
8
BLACK
6
CONTINUOUS
10
8.9511584645669284
20
-5.9098330708661413
11
8.9436594094488182
21
-5.9060835433070862
0
LINE
8
BLACK
6
CONTINUOUS
10
8.9436594094488182
20
-5.9060835433070862
11
8.9399098818897631
21
-5.9023339763779523
0
LINE
8
BLACK
6
CONTINUOUS
10
8.9399098818897631
20
-5.9023339763779523
11
8.936160354330708
21
-5.8948349212598421
0
LINE
8
BLACK
6
CONTINUOUS
10
8.936160354330708
20
-5.8948349212598421
11
8.9324108267716529
21
-5.8798368110236217
0
LINE
8
BLACK
6
CONTINUOUS
10
8.9324108267716529
20
-5.8798368110236217
11
8.9324108267716529
21
-5.8610891338582674
0
LINE
8
BLACK
6
CONTINUOUS
10
8.9324108267716529
20
-5.8610891338582674
11
8.936160354330708
21
-5.8460910236220469
0
LINE
8
BLACK
6
CONTINUOUS
10
8.936160354330708
20
-5.8460910236220469
11
8.9399098818897631
21
-5.8385919685039367
0
LINE
8
BLACK
6
CONTINUOUS
10
8.9399098818897631
20
-5.8385919685039367
11
8.9436594094488182
21
-5.8348424409448816
0
LINE
8
BLACK
6
CONTINUOUS
10
8.9436594094488182
20
-5.8348424409448816
11
8.9511584645669284
21
-5.8310929133858265
0
LINE
8
BLACK
6
CONTINUOUS
10
9.0261490944881881
20
-5.8310929133858265
11
9.0336481889763771
21
-5.8310929133858265
0
LINE
8
BLACK
6
CONTINUOUS
10
9.0336481889763771
20
-5.8310929133858265
11
9.0411472440944873
21
-5.8348424409448816
0
LINE
8
BLACK
6
CONTINUOUS
10
9.0411472440944873
20
-5.8348424409448816
11
9.0448967716535424
21
-5.8385919685039367
0
LINE
8
BLACK
6
CONTINUOUS
10
9.0448967716535424
20
-5.8385919685039367
11
9.0486462992125976
21
-5.8460910236220469
0
LINE
8
BLACK
6
CONTINUOUS
10
9.0486462992125976
20
-5.8460910236220469
11
9.0523958267716527
21
-5.8610891338582674
0
LINE
8
BLACK
6
CONTINUOUS
10
9.0523958267716527
20
-5.8610891338582674
11
9.0523958267716527
21
-5.8798368110236217
0
LINE
8
BLACK
6
CONTINUOUS
10
9.0523958267716527
20
-5.8798368110236217
11
9.0486462992125976
21
-5.8948349212598421
0
LINE
8
BLACK
6
CONTINUOUS
10
9.0486462992125976
20
-5.8948349212598421
11
9.0448967716535424
21
-5.9023339763779523
0
LINE
8
BLACK
6
CONTINUOUS
10
9.0448967716535424
20
-5.9023339763779523
11
9.0411472440944873
21
-5.9060835433070862
0
LINE
8
BLACK
6
CONTINUOUS
10
9.0411472440944873
20
-5.9060835433070862
11
9.0336481889763771
21
-5.9098330708661413
0
LINE
8
BLACK
6
CONTINUOUS
10
9.0336481889763771
20
-5.9098330708661413
11
9.0261490944881881
21
-5.9098330708661413
0
LINE
8
BLACK
6
CONTINUOUS
10
9.0261490944881881
20
-5.9098330708661413
11
9.0186500393700779
21
-5.9060835433070862
0
LINE
8
BLACK
6
CONTINUOUS
10
9.0186500393700779
20
-5.9060835433070862
11
9.0149005118110228
21
-5.9023339763779523
0
LINE
8
BLACK
6
CONTINUOUS
10
9.0149005118110228
20
-5.9023339763779523
11
9.0111509842519677
21
-5.8948349212598421
0
LINE
8
BLACK
6
CONTINUOUS
10
9.0111509842519677
20
-5.8948349212598421
11
9.0074014566929126
21
-5.8798368110236217
0
LINE
8
BLACK
6
CONTINUOUS
10
9.0074014566929126
20
-5.8798368110236217
11
9.0074014566929126
21
-5.8610891338582674
0
LINE
8
BLACK
6
CONTINUOUS
10
9.0074014566929126
20
-5.8610891338582674
11
9.0111509842519677
21
-5.8460910236220469
0
LINE
8
BLACK
6
CONTINUOUS
10
9.0111509842519677
20
-5.8460910236220469
11
9.0149005118110228
21
-5.8385919685039367
0
LINE
8
BLACK
6
CONTINUOUS
10
9.0149005118110228
20
-5.8385919685039367
11
9.0186500393700779
21
-5.8348424409448816
0
LINE
8
BLACK
6
CONTINUOUS
10
9.0186500393700779
20
-5.8348424409448816
11
9.0261490944881881
21
-5.8310929133858265
0
LINE
8
BLACK
6
CONTINUOUS
10
9.0861416141732274
20
-5.9098330708661413
11
9.0861416141732274
21
-5.8573396062992122
0
LINE
8
BLACK
6
CONTINUOUS
10
9.0861416141732274
20
-5.8648386614173225
11
9.0898911417322825
21
-5.8610891338582674
0
LINE
8
BLACK
6
CONTINUOUS
10
9.0898911417322825
20
-5.8610891338582674
11
9.0973901968503927
21
-5.8573396062992122
0
LINE
8
BLACK
6
CONTINUOUS
10
9.0973901968503927
20
-5.8573396062992122
11
9.1086388188976368
21
-5.8573396062992122
0
LINE
8
BLACK
6
CONTINUOUS
10
9.1086388188976368
20
-5.8573396062992122
11
9.116137874015747
21
-5.8610891338582674
0
LINE
8
BLACK
6
CONTINUOUS
10
9.116137874015747
20
-5.8610891338582674
11
9.1198874015748022
21
-5.8685882283464563
0
LINE
8
BLACK
6
CONTINUOUS
10
9.1198874015748022
20
-5.8685882283464563
11
9.1198874015748022
21
-5.9098330708661413
0
LINE
8
BLACK
6
CONTINUOUS
10
9.1198874015748022
20
-5.8685882283464563
11
9.1236369291338573
21
-5.8610891338582674
0
LINE
8
BLACK
6
CONTINUOUS
10
9.1236369291338573
20
-5.8610891338582674
11
9.1311359842519675
21
-5.8573396062992122
0
LINE
8
BLACK
6
CONTINUOUS
10
9.1311359842519675
20
-5.8573396062992122
11
9.1423845669291328
21
-5.8573396062992122
0
LINE
8
BLACK
6
CONTINUOUS
10
9.1423845669291328
20
-5.8573396062992122
11
9.1498836614173218
21
-5.8610891338582674
0
LINE
8
BLACK
6
CONTINUOUS
10
9.1498836614173218
20
-5.8610891338582674
11
9.1536331889763769
21
-5.8685882283464563
0
LINE
8
BLACK
6
CONTINUOUS
10
9.1536331889763769
20
-5.8685882283464563
11
9.1536331889763769
21
-5.9098330708661413
0
LINE
8
BLACK
6
CONTINUOUS
10
9.1911285039370085
20
-5.9098330708661413
11
9.1911285039370085
21
-5.8573396062992122
0
LINE
8
BLACK
6
CONTINUOUS
10
9.1911285039370085
20
-5.8648386614173225
11
9.1948780314960636
21
-5.8610891338582674
0
LINE
8
BLACK
6
CONTINUOUS
10
9.1948780314960636
20
-5.8610891338582674
11
9.2023770866141739
21
-5.8573396062992122
0
LINE
8
BLACK
6
CONTINUOUS
10
9.2023770866141739
20
-5.8573396062992122
11
9.2136257086614179
21
-5.8573396062992122
0
LINE
8
BLACK
6
CONTINUOUS
10
9.2136257086614179
20
-5.8573396062992122
11
9.2211247637795282
21
-5.8610891338582674
0
LINE
8
BLACK
6
CONTINUOUS
10
9.2211247637795282
20
-5.8610891338582674
11
9.2248742913385833
21
-5.8685882283464563
0
LINE
8
BLACK
6
CONTINUOUS
10
9.2248742913385833
20
-5.8685882283464563
11
9.2248742913385833
21
-5.9098330708661413
0
LINE
8
BLACK
6
CONTINUOUS
10
9.2248742913385833
20
-5.8685882283464563
11
9.2286238188976384
21
-5.8610891338582674
0
LINE
8
BLACK
6
CONTINUOUS
10
9.2286238188976384
20
-5.8610891338582674
11
9.2361228740157486
21
-5.8573396062992122
0
LINE
8
BLACK
6
CONTINUOUS
10
9.2361228740157486
20
-5.8573396062992122
11
9.2473714566929139
21
-5.8573396062992122
0
LINE
8
BLACK
6
CONTINUOUS
10
9.2473714566929139
20
-5.8573396062992122
11
9.2548705511811029
21
-5.8610891338582674
0
LINE
8
BLACK
6
CONTINUOUS
10
9.2548705511811029
20
-5.8610891338582674
11
9.258620078740158
21
-5.8685882283464563
0
LINE
8
BLACK
6
CONTINUOUS
10
9.258620078740158
20
-5.8685882283464563
11
9.258620078740158
21
-5.9098330708661413
0
LINE
8
BLACK
6
CONTINUOUS
10
9.4123508661417326
20
-5.8273433858267714
11
9.3448593307086618
21
-5.9285807086614168
0
LINE
8
BLACK
6
CONTINUOUS
10
9.5135882283464568
20
-5.8310929133858265
11
9.5210873228346458
21
-5.8310929133858265
0
LINE
8
BLACK
6
CONTINUOUS
10
9.5210873228346458
20
-5.8310929133858265
11
9.528586377952756
21
-5.8348424409448816
0
LINE
8
BLACK
6
CONTINUOUS
10
9.528586377952756
20
-5.8348424409448816
11
9.5323359055118111
21
-5.8385919685039367
0
LINE
8
BLACK
6
CONTINUOUS
10
9.5323359055118111
20
-5.8385919685039367
11
9.5360854330708662
21
-5.8460910236220469
0
LINE
8
BLACK
6
CONTINUOUS
10
9.5360854330708662
20
-5.8460910236220469
11
9.5398349606299213
21
-5.8610891338582674
0
LINE
8
BLACK
6
CONTINUOUS
10
9.5398349606299213
20
-5.8610891338582674
11
9.5398349606299213
21
-5.8798368110236217
0
LINE
8
BLACK
6
CONTINUOUS
10
9.5398349606299213
20
-5.8798368110236217
11
9.5360854330708662
21
-5.8948349212598421
0
LINE
8
BLACK
6
CONTINUOUS
10
9.5360854330708662
20
-5.8948349212598421
11
9.5323359055118111
21
-5.9023339763779523
0
LINE
8
BLACK
6
CONTINUOUS
10
9.5323359055118111
20
-5.9023339763779523
11
9.528586377952756
21
-5.9060835433070862
0
LINE
8
BLACK
6
CONTINUOUS
10
9.528586377952756
20
-5.9060835433070862
11
9.5210873228346458
21
-5.9098330708661413
0
LINE
8
BLACK
6
CONTINUOUS
10
9.5210873228346458
20
-5.9098330708661413
11
9.5135882283464568
21
-5.9098330708661413
0
LINE
8
BLACK
6
CONTINUOUS
10
9.5135882283464568
20
-5.9098330708661413
11
9.5060891732283466
21
-5.9060835433070862
0
LINE
8
BLACK
6
CONTINUOUS
10
9.5060891732283466
20
-5.9060835433070862
11
9.5023396456692915
21
-5.9023339763779523
0
LINE
8
BLACK
6
CONTINUOUS
10
9.5023396456692915
20
-5.9023339763779523
11
9.4985901181102363
21
-5.8948349212598421
0
LINE
8
BLACK
6
CONTINUOUS
10
9.4985901181102363
20
-5.8948349212598421
11
9.4948405905511812
21
-5.8798368110236217
0
LINE
8
BLACK
6
CONTINUOUS
10
9.4948405905511812
20
-5.8798368110236217
11
9.4948405905511812
21
-5.8610891338582674
0
LINE
8
BLACK
6
CONTINUOUS
10
9.4948405905511812
20
-5.8610891338582674
11
9.4985901181102363
21
-5.8460910236220469
0
LINE
8
BLACK
6
CONTINUOUS
10
9.4985901181102363
20
-5.8460910236220469
11
9.5023396456692915
21
-5.8385919685039367
0
LINE
8
BLACK
6
CONTINUOUS
10
9.5023396456692915
20
-5.8385919685039367
11
9.5060891732283466
21
-5.8348424409448816
0
LINE
8
BLACK
6
CONTINUOUS
10
9.5060891732283466
20
-5.8348424409448816
11
9.5135882283464568
21
-5.8310929133858265
0
LINE
8
BLACK
6
CONTINUOUS
10
9.5735807480314961
20
-5.9023339763779523
11
9.5773302755905512
21
-5.9060835433070862
0
LINE
8
BLACK
6
CONTINUOUS
10
9.5773302755905512
20
-5.9060835433070862
11
9.5735807480314961
21
-5.9098330708661413
0
LINE
8
BLACK
6
CONTINUOUS
10
9.5735807480314961
20
-5.9098330708661413
11
9.5698312204724409
21
-5.9060835433070862
0
LINE
8
BLACK
6
CONTINUOUS
10
9.5698312204724409
20
-5.9060835433070862
11
9.5735807480314961
21
-5.9023339763779523
0
LINE
8
BLACK
6
CONTINUOUS
10
9.5735807480314961
20
-5.9023339763779523
11
9.5735807480314961
21
-5.9098330708661413
0
LINE
8
BLACK
6
CONTINUOUS
10
9.6260741732283464
20
-5.8310929133858265
11
9.6335732677165353
21
-5.8310929133858265
0
LINE
8
BLACK
6
CONTINUOUS
10
9.6335732677165353
20
-5.8310929133858265
11
9.6410723228346455
21
-5.8348424409448816
0
LINE
8
BLACK
6
CONTINUOUS
10
9.6410723228346455
20
-5.8348424409448816
11
9.6448218503937007
21
-5.8385919685039367
0
LINE
8
BLACK
6
CONTINUOUS
10
9.6448218503937007
20
-5.8385919685039367
11
9.6485713779527558
21
-5.8460910236220469
0
LINE
8
BLACK
6
CONTINUOUS
10
9.6485713779527558
20
-5.8460910236220469
11
9.6523209055118109
21
-5.8610891338582674
0
LINE
8
BLACK
6
CONTINUOUS
10
9.6523209055118109
20
-5.8610891338582674
11
9.6523209055118109
21
-5.8798368110236217
0
LINE
8
BLACK
6
CONTINUOUS
10
9.6523209055118109
20
-5.8798368110236217
11
9.6485713779527558
21
-5.8948349212598421
0
LINE
8
BLACK
6
CONTINUOUS
10
9.6485713779527558
20
-5.8948349212598421
11
9.6448218503937007
21
-5.9023339763779523
0
LINE
8
BLACK
6
CONTINUOUS
10
9.6448218503937007
20
-5.9023339763779523
11
9.6410723228346455
21
-5.9060835433070862
0
LINE
8
BLACK
6
CONTINUOUS
10
9.6410723228346455
20
-5.9060835433070862
11
9.6335732677165353
21
-5.9098330708661413
0
LINE
8
BLACK
6
CONTINUOUS
10
9.6335732677165353
20
-5.9098330708661413
11
9.6260741732283464
21
-5.9098330708661413
0
LINE
8
BLACK
6
CONTINUOUS
10
9.6260741732283464
20
-5.9098330708661413
11
9.6185751181102361
21
-5.9060835433070862
0
LINE
8
BLACK
6
CONTINUOUS
10
9.6185751181102361
20
-5.9060835433070862
11
9.614825590551181
21
-5.9023339763779523
0
LINE
8
BLACK
6
CONTINUOUS
10
9.614825590551181
20
-5.9023339763779523
11
9.6110760629921259
21
-5.8948349212598421
0
LINE
8
BLACK
6
CONTINUOUS
10
9.6110760629921259
20
-5.8948349212598421
11
9.6073265354330708
21
-5.8798368110236217
0
LINE
8
BLACK
6
CONTINUOUS
10
9.6073265354330708
20
-5.8798368110236217
11
9.6073265354330708
21
-5.8610891338582674
0
LINE
8
BLACK
6
CONTINUOUS
10
9.6073265354330708
20
-5.8610891338582674
11
9.6110760629921259
21
-5.8460910236220469
0
LINE
8
BLACK
6
CONTINUOUS
10
9.6110760629921259
20
-5.8460910236220469
11
9.614825590551181
21
-5.8385919685039367
0
LINE
8
BLACK
6
CONTINUOUS
10
9.614825590551181
20
-5.8385919685039367
11
9.6185751181102361
21
-5.8348424409448816
0
LINE
8
BLACK
6
CONTINUOUS
10
9.6185751181102361
20
-5.8348424409448816
11
9.6260741732283464
21
-5.8310929133858265
0
LINE
8
BLACK
6
CONTINUOUS
10
9.6785676377952754
20
-5.8310929133858265
11
9.7273115354330706
21
-5.8310929133858265
0
LINE
8
BLACK
6
CONTINUOUS
10
9.7273115354330706
20
-5.8310929133858265
11
9.7010648031496061
21
-5.8610891338582674
0
LINE
8
BLACK
6
CONTINUOUS
10
9.7010648031496061
20
-5.8610891338582674
11
9.7123134251968501
21
-5.8610891338582674
0
LINE
8
BLACK
6
CONTINUOUS
10
9.7123134251968501
20
-5.8610891338582674
11
9.7198124803149604
21
-5.8648386614173225
0
LINE
8
BLACK
6
CONTINUOUS
10
9.7198124803149604
20
-5.8648386614173225
11
9.7235620078740155
21
-5.8685882283464563
0
LINE
8
BLACK
6
CONTINUOUS
10
9.7235620078740155
20
-5.8685882283464563
11
9.7273115354330706
21
-5.8760872834645665
0
LINE
8
BLACK
6
CONTINUOUS
10
9.7273115354330706
20
-5.8760872834645665
11
9.7273115354330706
21
-5.8948349212598421
0
LINE
8
BLACK
6
CONTINUOUS
10
9.7273115354330706
20
-5.8948349212598421
11
9.7235620078740155
21
-5.9023339763779523
0
LINE
8
BLACK
6
CONTINUOUS
10
9.7235620078740155
20
-5.9023339763779523
11
9.7198124803149604
21
-5.9060835433070862
0
LINE
8
BLACK
6
CONTINUOUS
10
9.7198124803149604
20
-5.9060835433070862
11
9.7123134251968501
21
-5.9098330708661413
0
LINE
8
BLACK
6
CONTINUOUS
10
9.7123134251968501
20
-5.9098330708661413
11
9.6898162204724407
21
-5.9098330708661413
0
LINE
8
BLACK
6
CONTINUOUS
10
9.6898162204724407
20
-5.9098330708661413
11
9.6823171653543305
21
-5.9060835433070862
0
LINE
8
BLACK
6
CONTINUOUS
10
9.6823171653543305
20
-5.9060835433070862
11
9.6785676377952754
21
-5.9023339763779523
0
LINE
8
BLACK
6
CONTINUOUS
10
9.7648068503937004
20
-5.9098330708661413
11
9.7798049606299209
21
-5.9098330708661413
0
LINE
8
BLACK
6
CONTINUOUS
10
9.7798049606299209
20
-5.9098330708661413
11
9.7873040551181099
21
-5.9060835433070862
0
LINE
8
BLACK
6
CONTINUOUS
10
9.7873040551181099
20
-5.9060835433070862
11
9.791053582677165
21
-5.9023339763779523
0
LINE
8
BLACK
6
CONTINUOUS
10
9.791053582677165
20
-5.9023339763779523
11
9.7985526377952752
21
-5.891085393700787
0
LINE
8
BLACK
6
CONTINUOUS
10
9.7985526377952752
20
-5.891085393700787
11
9.8023021653543303
21
-5.8760872834645665
0
LINE
8
BLACK
6
CONTINUOUS
10
9.8023021653543303
20
-5.8760872834645665
11
9.8023021653543303
21
-5.8460910236220469
0
LINE
8
BLACK
6
CONTINUOUS
10
9.8023021653543303
20
-5.8460910236220469
11
9.7985526377952752
21
-5.8385919685039367
0
LINE
8
BLACK
6
CONTINUOUS
10
9.7985526377952752
20
-5.8385919685039367
11
9.7948031102362201
21
-5.8348424409448816
0
LINE
8
BLACK
6
CONTINUOUS
10
9.7948031102362201
20
-5.8348424409448816
11
9.7873040551181099
21
-5.8310929133858265
0
LINE
8
BLACK
6
CONTINUOUS
10
9.7873040551181099
20
-5.8310929133858265
11
9.7723059055118107
21
-5.8310929133858265
0
LINE
8
BLACK
6
CONTINUOUS
10
9.7723059055118107
20
-5.8310929133858265
11
9.7648068503937004
21
-5.8348424409448816
0
LINE
8
BLACK
6
CONTINUOUS
10
9.7648068503937004
20
-5.8348424409448816
11
9.7610573228346453
21
-5.8385919685039367
0
LINE
8
BLACK
6
CONTINUOUS
10
9.7610573228346453
20
-5.8385919685039367
11
9.7573077952755902
21
-5.8460910236220469
0
LINE
8
BLACK
6
CONTINUOUS
10
9.7573077952755902
20
-5.8460910236220469
11
9.7573077952755902
21
-5.8648386614173225
0
LINE
8
BLACK
6
CONTINUOUS
10
9.7573077952755902
20
-5.8648386614173225
11
9.7610573228346453
21
-5.8723377559055114
0
LINE
8
BLACK
6
CONTINUOUS
10
9.7610573228346453
20
-5.8723377559055114
11
9.7648068503937004
21
-5.8760872834645665
0
LINE
8
BLACK
6
CONTINUOUS
10
9.7648068503937004
20
-5.8760872834645665
11
9.7723059055118107
21
-5.8798368110236217
0
LINE
8
BLACK
6
CONTINUOUS
10
9.7723059055118107
20
-5.8798368110236217
11
9.7873040551181099
21
-5.8798368110236217
0
LINE
8
BLACK
6
CONTINUOUS
10
9.7873040551181099
20
-5.8798368110236217
11
9.7948031102362201
21
-5.8760872834645665
0
LINE
8
BLACK
6
CONTINUOUS
10
9.7948031102362201
20
-5.8760872834645665
11
9.7985526377952752
21
-5.8723377559055114
0
LINE
8
BLACK
6
CONTINUOUS
10
9.7985526377952752
20
-5.8723377559055114
11
9.8023021653543303
21
-5.8648386614173225
0
LINE
8
BLACK
6
CONTINUOUS
10
9.8697937401574798
20
-5.8573396062992122
11
9.8697937401574798
21
-5.9098330708661413
0
LINE
8
BLACK
6
CONTINUOUS
10
9.8510460629921255
20
-5.8273433858267714
11
9.8322984251968499
21
-5.8835863385826768
0
LINE
8
BLACK
6
CONTINUOUS
10
9.8322984251968499
20
-5.8835863385826768
11
9.8810423228346451
21
-5.8835863385826768
0
LINE
8
BLACK
6
CONTINUOUS
10
9.9072890551181096
20
-5.8310929133858265
11
9.9072890551181096
21
-5.8460910236220469
0
LINE
8
BLACK
6
CONTINUOUS
10
9.9372853149606293
20
-5.8310929133858265
11
9.9372853149606293
21
-5.8460910236220469
0
LINE
8
BLACK
6
CONTINUOUS
10
10.0535208267716527
20
-5.9398292913385822
11
10.0497712598425188
21
-5.9360797637795271
0
LINE
8
BLACK
6
CONTINUOUS
10
10.0497712598425188
20
-5.9360797637795271
11
10.0422722047244086
21
-5.9248311811023617
0
LINE
8
BLACK
6
CONTINUOUS
10
10.0422722047244086
20
-5.9248311811023617
11
10.0385226771653535
21
-5.9173321259842515
0
LINE
8
BLACK
6
CONTINUOUS
10
10.0385226771653535
20
-5.9173321259842515
11
10.0347731496062984
21
-5.9060835433070862
0
LINE
8
BLACK
6
CONTINUOUS
10
10.0347731496062984
20
-5.9060835433070862
11
10.0310236220472433
21
-5.8873358661417319
0
LINE
8
BLACK
6
CONTINUOUS
10
10.0310236220472433
20
-5.8873358661417319
11
10.0310236220472433
21
-5.8723377559055114
0
LINE
8
BLACK
6
CONTINUOUS
10
10.0310236220472433
20
-5.8723377559055114
11
10.0347731496062984
21
-5.8535900787401571
0
LINE
8
BLACK
6
CONTINUOUS
10
10.0347731496062984
20
-5.8535900787401571
11
10.0385226771653535
21
-5.8423414960629918
0
LINE
8
BLACK
6
CONTINUOUS
10
10.0385226771653535
20
-5.8423414960629918
11
10.0422722047244086
21
-5.8348424409448816
0
LINE
8
BLACK
6
CONTINUOUS
10
10.0422722047244086
20
-5.8348424409448816
11
10.0497712598425188
21
-5.8235938188976375
0
LINE
8
BLACK
6
CONTINUOUS
10
10.0497712598425188
20
-5.8235938188976375
11
10.0535208267716527
21
-5.8198442913385824
0
LINE
8
BLACK
6
CONTINUOUS
10
10.1172628346456683
20
-5.8310929133858265
11
10.1022646850393691
21
-5.8310929133858265
0
LINE
8
BLACK
6
CONTINUOUS
10
10.1022646850393691
20
-5.8310929133858265
11
10.0947656299212589
21
-5.8348424409448816
0
LINE
8
BLACK
6
CONTINUOUS
10
10.0947656299212589
20
-5.8348424409448816
11
10.0910161023622038
21
-5.8385919685039367
0
LINE
8
BLACK
6
CONTINUOUS
10
10.0910161023622038
20
-5.8385919685039367
11
10.0835170472440936
21
-5.849840551181102
0
LINE
8
BLACK
6
CONTINUOUS
10
10.0835170472440936
20
-5.849840551181102
11
10.0797675196850385
21
-5.8648386614173225
0
LINE
8
BLACK
6
CONTINUOUS
10
10.0797675196850385
20
-5.8648386614173225
11
10.0797675196850385
21
-5.8948349212598421
0
LINE
8
BLACK
6
CONTINUOUS
10
10.0797675196850385
20
-5.8948349212598421
11
10.0835170472440936
21
-5.9023339763779523
0
LINE
8
BLACK
6
CONTINUOUS
10
10.0835170472440936
20
-5.9023339763779523
11
10.0872665748031487
21
-5.9060835433070862
0
LINE
8
BLACK
6
CONTINUOUS
10
10.0872665748031487
20
-5.9060835433070862
11
10.0947656299212589
21
-5.9098330708661413
0
LINE
8
BLACK
6
CONTINUOUS
10
10.0947656299212589
20
-5.9098330708661413
11
10.1097637795275581
21
-5.9098330708661413
0
LINE
8
BLACK
6
CONTINUOUS
10
10.1097637795275581
20
-5.9098330708661413
11
10.1172628346456683
21
-5.9060835433070862
0
LINE
8
BLACK
6
CONTINUOUS
10
10.1172628346456683
20
-5.9060835433070862
11
10.1210123622047234
21
-5.9023339763779523
0
LINE
8
BLACK
6
CONTINUOUS
10
10.1210123622047234
20
-5.9023339763779523
11
10.1247618897637786
21
-5.8948349212598421
0
LINE
8
BLACK
6
CONTINUOUS
10
10.1247618897637786
20
-5.8948349212598421
11
10.1247618897637786
21
-5.8760872834645665
0
LINE
8
BLACK
6
CONTINUOUS
10
10.1247618897637786
20
-5.8760872834645665
11
10.1210123622047234
21
-5.8685882283464563
0
LINE
8
BLACK
6
CONTINUOUS
10
10.1210123622047234
20
-5.8685882283464563
11
10.1172628346456683
21
-5.8648386614173225
0
LINE
8
BLACK
6
CONTINUOUS
10
10.1172628346456683
20
-5.8648386614173225
11
10.1097637795275581
21
-5.8610891338582674
0
LINE
8
BLACK
6
CONTINUOUS
10
10.1097637795275581
20
-5.8610891338582674
11
10.0947656299212589
21
-5.8610891338582674
0
LINE
8
BLACK
6
CONTINUOUS
10
10.0947656299212589
20
-5.8610891338582674
11
10.0872665748031487
21
-5.8648386614173225
0
LINE
8
BLACK
6
CONTINUOUS
10
10.0872665748031487
20
-5.8648386614173225
11
10.0835170472440936
21
-5.8685882283464563
0
LINE
8
BLACK
6
CONTINUOUS
10
10.0835170472440936
20
-5.8685882283464563
11
10.0797675196850385
21
-5.8760872834645665
0
LINE
8
BLACK
6
CONTINUOUS
10
10.2185001968503943
20
-5.9098330708661413
11
10.2185001968503943
21
-5.8310929133858265
0
LINE
8
BLACK
6
CONTINUOUS
10
10.2522459842519691
20
-5.9098330708661413
11
10.2522459842519691
21
-5.8685882283464563
0
LINE
8
BLACK
6
CONTINUOUS
10
10.2522459842519691
20
-5.8685882283464563
11
10.248496456692914
21
-5.8610891338582674
0
LINE
8
BLACK
6
CONTINUOUS
10
10.248496456692914
20
-5.8610891338582674
11
10.2409974015748038
21
-5.8573396062992122
0
LINE
8
BLACK
6
CONTINUOUS
10
10.2409974015748038
20
-5.8573396062992122
11
10.2297487795275597
21
-5.8573396062992122
0
LINE
8
BLACK
6
CONTINUOUS
10
10.2297487795275597
20
-5.8573396062992122
11
10.2222497244094495
21
-5.8610891338582674
0
LINE
8
BLACK
6
CONTINUOUS
10
10.2222497244094495
20
-5.8610891338582674
11
10.2185001968503943
21
-5.8648386614173225
0
LINE
8
BLACK
6
CONTINUOUS
10
10.3009898818897643
20
-5.9098330708661413
11
10.2934908267716541
21
-5.9060835433070862
0
LINE
8
BLACK
6
CONTINUOUS
10
10.2934908267716541
20
-5.9060835433070862
11
10.2897412992125989
21
-5.9023339763779523
0
LINE
8
BLACK
6
CONTINUOUS
10
10.2897412992125989
20
-5.9023339763779523
11
10.2859917716535438
21
-5.8948349212598421
0
LINE
8
BLACK
6
CONTINUOUS
10
10.2859917716535438
20
-5.8948349212598421
11
10.2859917716535438
21
-5.8723377559055114
0
LINE
8
BLACK
6
CONTINUOUS
10
10.2859917716535438
20
-5.8723377559055114
11
10.2897412992125989
21
-5.8648386614173225
0
LINE
8
BLACK
6
CONTINUOUS
10
10.2897412992125989
20
-5.8648386614173225
11
10.2934908267716541
21
-5.8610891338582674
0
LINE
8
BLACK
6
CONTINUOUS
10
10.2934908267716541
20
-5.8610891338582674
11
10.3009898818897643
21
-5.8573396062992122
0
LINE
8
BLACK
6
CONTINUOUS
10
10.3009898818897643
20
-5.8573396062992122
11
10.3122385039370084
21
-5.8573396062992122
0
LINE
8
BLACK
6
CONTINUOUS
10
10.3122385039370084
20
-5.8573396062992122
11
10.3197375590551186
21
-5.8610891338582674
0
LINE
8
BLACK
6
CONTINUOUS
10
10.3197375590551186
20
-5.8610891338582674
11
10.3234870866141737
21
-5.8648386614173225
0
LINE
8
BLACK
6
CONTINUOUS
10
10.3234870866141737
20
-5.8648386614173225
11
10.3272366141732288
21
-5.8723377559055114
0
LINE
8
BLACK
6
CONTINUOUS
10
10.3272366141732288
20
-5.8723377559055114
11
10.3272366141732288
21
-5.8948349212598421
0
LINE
8
BLACK
6
CONTINUOUS
10
10.3272366141732288
20
-5.8948349212598421
11
10.3234870866141737
21
-5.9023339763779523
0
LINE
8
BLACK
6
CONTINUOUS
10
10.3234870866141737
20
-5.9023339763779523
11
10.3197375590551186
21
-5.9060835433070862
0
LINE
8
BLACK
6
CONTINUOUS
10
10.3197375590551186
20
-5.9060835433070862
11
10.3122385039370084
21
-5.9098330708661413
0
LINE
8
BLACK
6
CONTINUOUS
10
10.3122385039370084
20
-5.9098330708661413
11
10.3009898818897643
21
-5.9098330708661413
0
LINE
8
BLACK
6
CONTINUOUS
10
10.3722309842519689
20
-5.9098330708661413
11
10.3647319291338587
21
-5.9060835433070862
0
LINE
8
BLACK
6
CONTINUOUS
10
10.3647319291338587
20
-5.9060835433070862
11
10.3609824015748035
21
-5.8985844488188972
0
LINE
8
BLACK
6
CONTINUOUS
10
10.3609824015748035
20
-5.8985844488188972
11
10.3609824015748035
21
-5.8310929133858265
0
LINE
8
BLACK
6
CONTINUOUS
10
10.4322235039370081
20
-5.9060835433070862
11
10.4247244488188979
21
-5.9098330708661413
0
LINE
8
BLACK
6
CONTINUOUS
10
10.4247244488188979
20
-5.9098330708661413
11
10.4097262992125987
21
-5.9098330708661413
0
LINE
8
BLACK
6
CONTINUOUS
10
10.4097262992125987
20
-5.9098330708661413
11
10.4022272440944885
21
-5.9060835433070862
0
LINE
8
BLACK
6
CONTINUOUS
10
10.4022272440944885
20
-5.9060835433070862
11
10.3984777165354334
21
-5.8985844488188972
0
LINE
8
BLACK
6
CONTINUOUS
10
10.3984777165354334
20
-5.8985844488188972
11
10.3984777165354334
21
-5.8685882283464563
0
LINE
8
BLACK
6
CONTINUOUS
10
10.3984777165354334
20
-5.8685882283464563
11
10.4022272440944885
21
-5.8610891338582674
0
LINE
8
BLACK
6
CONTINUOUS
10
10.4022272440944885
20
-5.8610891338582674
11
10.4097262992125987
21
-5.8573396062992122
0
LINE
8
BLACK
6
CONTINUOUS
10
10.4097262992125987
20
-5.8573396062992122
11
10.4247244488188979
21
-5.8573396062992122
0
LINE
8
BLACK
6
CONTINUOUS
10
10.4247244488188979
20
-5.8573396062992122
11
10.4322235039370081
21
-5.8610891338582674
0
LINE
8
BLACK
6
CONTINUOUS
10
10.4322235039370081
20
-5.8610891338582674
11
10.4359730314960633
21
-5.8685882283464563
0
LINE
8
BLACK
6
CONTINUOUS
10
10.4359730314960633
20
-5.8685882283464563
11
10.4359730314960633
21
-5.8760872834645665
0
LINE
8
BLACK
6
CONTINUOUS
10
10.4359730314960633
20
-5.8760872834645665
11
10.3984777165354334
21
-5.8835863385826768
0
LINE
8
BLACK
6
CONTINUOUS
10
10.4659692913385829
20
-5.9060835433070862
11
10.4734683464566931
21
-5.9098330708661413
0
LINE
8
BLACK
6
CONTINUOUS
10
10.4734683464566931
20
-5.9098330708661413
11
10.4884664566929136
21
-5.9098330708661413
0
LINE
8
BLACK
6
CONTINUOUS
10
10.4884664566929136
20
-5.9098330708661413
11
10.4959655511811025
21
-5.9060835433070862
0
LINE
8
BLACK
6
CONTINUOUS
10
10.4959655511811025
20
-5.9060835433070862
11
10.4997150787401576
21
-5.8985844488188972
0
LINE
8
BLACK
6
CONTINUOUS
10
10.4997150787401576
20
-5.8985844488188972
11
10.4997150787401576
21
-5.8948349212598421
0
LINE
8
BLACK
6
CONTINUOUS
10
10.4997150787401576
20
-5.8948349212598421
11
10.4959655511811025
21
-5.8873358661417319
0
LINE
8
BLACK
6
CONTINUOUS
10
10.4959655511811025
20
-5.8873358661417319
11
10.4884664566929136
21
-5.8835863385826768
0
LINE
8
BLACK
6
CONTINUOUS
10
10.4884664566929136
20
-5.8835863385826768
11
10.4772178740157482
21
-5.8835863385826768
0
LINE
8
BLACK
6
CONTINUOUS
10
10.4772178740157482
20
-5.8835863385826768
11
10.469718818897638
21
-5.8798368110236217
0
LINE
8
BLACK
6
CONTINUOUS
10
10.469718818897638
20
-5.8798368110236217
11
10.4659692913385829
21
-5.8723377559055114
0
LINE
8
BLACK
6
CONTINUOUS
10
10.4659692913385829
20
-5.8723377559055114
11
10.4659692913385829
21
-5.8685882283464563
0
LINE
8
BLACK
6
CONTINUOUS
10
10.4659692913385829
20
-5.8685882283464563
11
10.469718818897638
21
-5.8610891338582674
0
LINE
8
BLACK
6
CONTINUOUS
10
10.469718818897638
20
-5.8610891338582674
11
10.4772178740157482
21
-5.8573396062992122
0
LINE
8
BLACK
6
CONTINUOUS
10
10.4772178740157482
20
-5.8573396062992122
11
10.4884664566929136
21
-5.8573396062992122
0
LINE
8
BLACK
6
CONTINUOUS
10
10.4884664566929136
20
-5.8573396062992122
11
10.4959655511811025
21
-5.8610891338582674
0
LINE
8
BLACK
6
CONTINUOUS
10
10.5259618110236222
20
-5.9398292913385822
11
10.5297113385826773
21
-5.9360797637795271
0
LINE
8
BLACK
6
CONTINUOUS
10
10.5297113385826773
20
-5.9360797637795271
11
10.5372103937007875
21
-5.9248311811023617
0
LINE
8
BLACK
6
CONTINUOUS
10
10.5372103937007875
20
-5.9248311811023617
11
10.5409599212598426
21
-5.9173321259842515
0
LINE
8
BLACK
6
CONTINUOUS
10
10.5409599212598426
20
-5.9173321259842515
11
10.5447094488188977
21
-5.9060835433070862
0
LINE
8
BLACK
6
CONTINUOUS
10
10.5447094488188977
20
-5.9060835433070862
11
10.5484589763779528
21
-5.8873358661417319
0
LINE
8
BLACK
6
CONTINUOUS
10
10.5484589763779528
20
-5.8873358661417319
11
10.5484589763779528
21
-5.8723377559055114
0
LINE
8
BLACK
6
CONTINUOUS
10
10.5484589763779528
20
-5.8723377559055114
11
10.5447094488188977
21
-5.8535900787401571
0
LINE
8
BLACK
6
CONTINUOUS
10
10.5447094488188977
20
-5.8535900787401571
11
10.5409599212598426
21
-5.8423414960629918
0
LINE
8
BLACK
6
CONTINUOUS
10
10.5409599212598426
20
-5.8423414960629918
11
10.5372103937007875
21
-5.8348424409448816
0
LINE
8
BLACK
6
CONTINUOUS
10
10.5372103937007875
20
-5.8348424409448816
11
10.5297113385826773
21
-5.8235938188976375
0
LINE
8
BLACK
6
CONTINUOUS
10
10.5297113385826773
20
-5.8235938188976375
11
10.5259618110236222
21
-5.8198442913385824
0
LINE
8
BLACK
6
CONTINUOUS
10
8.634484803149606
20
-6.0055919685039365
11
8.634484803149606
21
-5.949913700787401
0
LINE
8
BLACK
6
CONTINUOUS
10
8.634484803149606
20
-5.949913700787401
11
8.5788065354330705
21
-5.949913700787401
0
LINE
8
BLACK
6
CONTINUOUS
10
8.5788065354330705
20
-5.949913700787401
11
8.5788065354330705
21
-6.0055919685039365
0
LINE
8
BLACK
6
CONTINUOUS
10
8.5788065354330705
20
-6.0055919685039365
11
8.634484803149606
21
-6.0055919685039365
0
LINE
8
BLACK
6
CONTINUOUS
10
8.7411847244094485
20
-5.9350299212598427
11
8.7899286220472437
21
-5.9350299212598427
0
LINE
8
BLACK
6
CONTINUOUS
10
8.7899286220472437
20
-5.9350299212598427
11
8.7636818897637792
21
-5.9650261417322836
0
LINE
8
BLACK
6
CONTINUOUS
10
8.7636818897637792
20
-5.9650261417322836
11
8.7749305118110232
21
-5.9650261417322836
0
LINE
8
BLACK
6
CONTINUOUS
10
8.7749305118110232
20
-5.9650261417322836
11
8.7824295669291335
21
-5.9687756692913387
0
LINE
8
BLACK
6
CONTINUOUS
10
8.7824295669291335
20
-5.9687756692913387
11
8.7861790944881886
21
-5.9725252362204726
0
LINE
8
BLACK
6
CONTINUOUS
10
8.7861790944881886
20
-5.9725252362204726
11
8.7899286220472437
21
-5.9800242913385828
0
LINE
8
BLACK
6
CONTINUOUS
10
8.7899286220472437
20
-5.9800242913385828
11
8.7899286220472437
21
-5.9987719291338584
0
LINE
8
BLACK
6
CONTINUOUS
10
8.7899286220472437
20
-5.9987719291338584
11
8.7861790944881886
21
-6.0062709842519686
0
LINE
8
BLACK
6
CONTINUOUS
10
8.7861790944881886
20
-6.0062709842519686
11
8.7824295669291335
21
-6.0100205511811025
0
LINE
8
BLACK
6
CONTINUOUS
10
8.7824295669291335
20
-6.0100205511811025
11
8.7749305118110232
21
-6.0137700787401576
0
LINE
8
BLACK
6
CONTINUOUS
10
8.7749305118110232
20
-6.0137700787401576
11
8.7524333070866138
21
-6.0137700787401576
0
LINE
8
BLACK
6
CONTINUOUS
10
8.7524333070866138
20
-6.0137700787401576
11
8.7449342519685036
21
-6.0100205511811025
0
LINE
8
BLACK
6
CONTINUOUS
10
8.7449342519685036
20
-6.0100205511811025
11
8.7411847244094485
21
-6.0062709842519686
0
LINE
8
BLACK
6
CONTINUOUS
10
8.8236744094488184
20
-6.0062709842519686
11
8.8274239370078735
21
-6.0100205511811025
0
LINE
8
BLACK
6
CONTINUOUS
10
8.8274239370078735
20
-6.0100205511811025
11
8.8236744094488184
21
-6.0137700787401576
0
LINE
8
BLACK
6
CONTINUOUS
10
8.8236744094488184
20
-6.0137700787401576
11
8.8199248818897633
21
-6.0100205511811025
0
LINE
8
BLACK
6
CONTINUOUS
10
8.8199248818897633
20
-6.0100205511811025
11
8.8236744094488184
21
-6.0062709842519686
0
LINE
8
BLACK
6
CONTINUOUS
10
8.8236744094488184
20
-6.0062709842519686
11
8.8236744094488184
21
-6.0137700787401576
0
LINE
8
BLACK
6
CONTINUOUS
10
8.9024145669291332
20
-6.0137700787401576
11
8.8574201968503932
21
-6.0137700787401576
0
LINE
8
BLACK
6
CONTINUOUS
10
8.8799173622047238
20
-6.0137700787401576
11
8.8799173622047238
21
-5.9350299212598427
0
LINE
8
BLACK
6
CONTINUOUS
10
8.8799173622047238
20
-5.9350299212598427
11
8.8724183070866136
21
-5.9462785039370081
0
LINE
8
BLACK
6
CONTINUOUS
10
8.8724183070866136
20
-5.9462785039370081
11
8.8649192519685034
21
-5.9537775590551183
0
LINE
8
BLACK
6
CONTINUOUS
10
8.8649192519685034
20
-5.9537775590551183
11
8.8574201968503932
21
-5.9575270866141734
0
LINE
8
BLACK
6
CONTINUOUS
10
8.9286612992125978
20
-5.9350299212598427
11
8.9811547244094481
21
-5.9350299212598427
0
LINE
8
BLACK
6
CONTINUOUS
10
8.9811547244094481
20
-5.9350299212598427
11
8.9474089370078733
21
-6.0137700787401576
0
LINE
8
BLACK
6
CONTINUOUS
10
9.0486462992125976
20
-5.9350299212598427
11
9.0111509842519677
21
-5.9350299212598427
0
LINE
8
BLACK
6
CONTINUOUS
10
9.0111509842519677
20
-5.9350299212598427
11
9.0074014566929126
21
-5.9725252362204726
0
LINE
8
BLACK
6
CONTINUOUS
10
9.0074014566929126
20
-5.9725252362204726
11
9.0111509842519677
21
-5.9687756692913387
0
LINE
8
BLACK
6
CONTINUOUS
10
9.0111509842519677
20
-5.9687756692913387
11
9.0186500393700779
21
-5.9650261417322836
0
LINE
8
BLACK
6
CONTINUOUS
10
9.0186500393700779
20
-5.9650261417322836
11
9.0373977165354322
21
-5.9650261417322836
0
LINE
8
BLACK
6
CONTINUOUS
10
9.0373977165354322
20
-5.9650261417322836
11
9.0448967716535424
21
-5.9687756692913387
0
LINE
8
BLACK
6
CONTINUOUS
10
9.0448967716535424
20
-5.9687756692913387
11
9.0486462992125976
21
-5.9725252362204726
0
LINE
8
BLACK
6
CONTINUOUS
10
9.0486462992125976
20
-5.9725252362204726
11
9.0523958267716527
21
-5.9800242913385828
0
LINE
8
BLACK
6
CONTINUOUS
10
9.0523958267716527
20
-5.9800242913385828
11
9.0523958267716527
21
-5.9987719291338584
0
LINE
8
BLACK
6
CONTINUOUS
10
9.0523958267716527
20
-5.9987719291338584
11
9.0486462992125976
21
-6.0062709842519686
0
LINE
8
BLACK
6
CONTINUOUS
10
9.0486462992125976
20
-6.0062709842519686
11
9.0448967716535424
21
-6.0100205511811025
0
LINE
8
BLACK
6
CONTINUOUS
10
9.0448967716535424
20
-6.0100205511811025
11
9.0373977165354322
21
-6.0137700787401576
0
LINE
8
BLACK
6
CONTINUOUS
10
9.0373977165354322
20
-6.0137700787401576
11
9.0186500393700779
21
-6.0137700787401576
0
LINE
8
BLACK
6
CONTINUOUS
10
9.0186500393700779
20
-6.0137700787401576
11
9.0111509842519677
21
-6.0100205511811025
0
LINE
8
BLACK
6
CONTINUOUS
10
9.0111509842519677
20
-6.0100205511811025
11
9.0074014566929126
21
-6.0062709842519686
0
LINE
8
BLACK
6
CONTINUOUS
10
9.0861416141732274
20
-6.0137700787401576
11
9.0861416141732274
21
-5.9612766141732285
0
LINE
8
BLACK
6
CONTINUOUS
10
9.0861416141732274
20
-5.9687756692913387
11
9.0898911417322825
21
-5.9650261417322836
0
LINE
8
BLACK
6
CONTINUOUS
10
9.0898911417322825
20
-5.9650261417322836
11
9.0973901968503927
21
-5.9612766141732285
0
LINE
8
BLACK
6
CONTINUOUS
10
9.0973901968503927
20
-5.9612766141732285
11
9.1086388188976368
21
-5.9612766141732285
0
LINE
8
BLACK
6
CONTINUOUS
10
9.1086388188976368
20
-5.9612766141732285
11
9.116137874015747
21
-5.9650261417322836
0
LINE
8
BLACK
6
CONTINUOUS
10
9.116137874015747
20
-5.9650261417322836
11
9.1198874015748022
21
-5.9725252362204726
0
LINE
8
BLACK
6
CONTINUOUS
10
9.1198874015748022
20
-5.9725252362204726
11
9.1198874015748022
21
-6.0137700787401576
0
LINE
8
BLACK
6
CONTINUOUS
10
9.1198874015748022
20
-5.9725252362204726
11
9.1236369291338573
21
-5.9650261417322836
0
LINE
8
BLACK
6
CONTINUOUS
10
9.1236369291338573
20
-5.9650261417322836
11
9.1311359842519675
21
-5.9612766141732285
0
LINE
8
BLACK
6
CONTINUOUS
10
9.1311359842519675
20
-5.9612766141732285
11
9.1423845669291328
21
-5.9612766141732285
0
LINE
8
BLACK
6
CONTINUOUS
10
9.1423845669291328
20
-5.9612766141732285
11
9.1498836614173218
21
-5.9650261417322836
0
LINE
8
BLACK
6
CONTINUOUS
10
9.1498836614173218
20
-5.9650261417322836
11
9.1536331889763769
21
-5.9725252362204726
0
LINE
8
BLACK
6
CONTINUOUS
10
9.1536331889763769
20
-5.9725252362204726
11
9.1536331889763769
21
-6.0137700787401576
0
LINE
8
BLACK
6
CONTINUOUS
10
9.1911285039370085
20
-6.0137700787401576
11
9.1911285039370085
21
-5.9612766141732285
0
LINE
8
BLACK
6
CONTINUOUS
10
9.1911285039370085
20
-5.9687756692913387
11
9.1948780314960636
21
-5.9650261417322836
0
LINE
8
BLACK
6
CONTINUOUS
10
9.1948780314960636
20
-5.9650261417322836
11
9.2023770866141739
21
-5.9612766141732285
0
LINE
8
BLACK
6
CONTINUOUS
10
9.2023770866141739
20
-5.9612766141732285
11
9.2136257086614179
21
-5.9612766141732285
0
LINE
8
BLACK
6
CONTINUOUS
10
9.2136257086614179
20
-5.9612766141732285
11
9.2211247637795282
21
-5.9650261417322836
0
LINE
8
BLACK
6
CONTINUOUS
10
9.2211247637795282
20
-5.9650261417322836
11
9.2248742913385833
21
-5.9725252362204726
0
LINE
8
BLACK
6
CONTINUOUS
10
9.2248742913385833
20
-5.9725252362204726
11
9.2248742913385833
21
-6.0137700787401576
0
LINE
8
BLACK
6
CONTINUOUS
10
9.2248742913385833
20
-5.9725252362204726
11
9.2286238188976384
21
-5.9650261417322836
0
LINE
8
BLACK
6
CONTINUOUS
10
9.2286238188976384
20
-5.9650261417322836
11
9.2361228740157486
21
-5.9612766141732285
0
LINE
8
BLACK
6
CONTINUOUS
10
9.2361228740157486
20
-5.9612766141732285
11
9.2473714566929139
21
-5.9612766141732285
0
LINE
8
BLACK
6
CONTINUOUS
10
9.2473714566929139
20
-5.9612766141732285
11
9.2548705511811029
21
-5.9650261417322836
0
LINE
8
BLACK
6
CONTINUOUS
10
9.2548705511811029
20
-5.9650261417322836
11
9.258620078740158
21
-5.9725252362204726
0
LINE
8
BLACK
6
CONTINUOUS
10
9.258620078740158
20
-5.9725252362204726
11
9.258620078740158
21
-6.0137700787401576
0
LINE
8
BLACK
6
CONTINUOUS
10
9.4123508661417326
20
-5.9312803937007876
11
9.3448593307086618
21
-6.0325177165354331
0
LINE
8
BLACK
6
CONTINUOUS
10
9.5135882283464568
20
-5.9350299212598427
11
9.5210873228346458
21
-5.9350299212598427
0
LINE
8
BLACK
6
CONTINUOUS
10
9.5210873228346458
20
-5.9350299212598427
11
9.528586377952756
21
-5.9387794488188979
0
LINE
8
BLACK
6
CONTINUOUS
10
9.528586377952756
20
-5.9387794488188979
11
9.5323359055118111
21
-5.942528976377953
0
LINE
8
BLACK
6
CONTINUOUS
10
9.5323359055118111
20
-5.942528976377953
11
9.5360854330708662
21
-5.9500280314960632
0
LINE
8
BLACK
6
CONTINUOUS
10
9.5360854330708662
20
-5.9500280314960632
11
9.5398349606299213
21
-5.9650261417322836
0
LINE
8
BLACK
6
CONTINUOUS
10
9.5398349606299213
20
-5.9650261417322836
11
9.5398349606299213
21
-5.9837738188976379
0
LINE
8
BLACK
6
CONTINUOUS
10
9.5398349606299213
20
-5.9837738188976379
11
9.5360854330708662
21
-5.9987719291338584
0
LINE
8
BLACK
6
CONTINUOUS
10
9.5360854330708662
20
-5.9987719291338584
11
9.5323359055118111
21
-6.0062709842519686
0
LINE
8
BLACK
6
CONTINUOUS
10
9.5323359055118111
20
-6.0062709842519686
11
9.528586377952756
21
-6.0100205511811025
0
LINE
8
BLACK
6
CONTINUOUS
10
9.528586377952756
20
-6.0100205511811025
11
9.5210873228346458
21
-6.0137700787401576
0
LINE
8
BLACK
6
CONTINUOUS
10
9.5210873228346458
20
-6.0137700787401576
11
9.5135882283464568
21
-6.0137700787401576
0
LINE
8
BLACK
6
CONTINUOUS
10
9.5135882283464568
20
-6.0137700787401576
11
9.5060891732283466
21
-6.0100205511811025
0
LINE
8
BLACK
6
CONTINUOUS
10
9.5060891732283466
20
-6.0100205511811025
11
9.5023396456692915
21
-6.0062709842519686
0
LINE
8
BLACK
6
CONTINUOUS
10
9.5023396456692915
20
-6.0062709842519686
11
9.4985901181102363
21
-5.9987719291338584
0
LINE
8
BLACK
6
CONTINUOUS
10
9.4985901181102363
20
-5.9987719291338584
11
9.4948405905511812
21
-5.9837738188976379
0
LINE
8
BLACK
6
CONTINUOUS
10
9.4948405905511812
20
-5.9837738188976379
11
9.4948405905511812
21
-5.9650261417322836
0
LINE
8
BLACK
6
CONTINUOUS
10
9.4948405905511812
20
-5.9650261417322836
11
9.4985901181102363
21
-5.9500280314960632
0
LINE
8
BLACK
6
CONTINUOUS
10
9.4985901181102363
20
-5.9500280314960632
11
9.5023396456692915
21
-5.942528976377953
0
LINE
8
BLACK
6
CONTINUOUS
10
9.5023396456692915
20
-5.942528976377953
11
9.5060891732283466
21
-5.9387794488188979
0
LINE
8
BLACK
6
CONTINUOUS
10
9.5060891732283466
20
-5.9387794488188979
11
9.5135882283464568
21
-5.9350299212598427
0
LINE
8
BLACK
6
CONTINUOUS
10
9.5735807480314961
20
-6.0062709842519686
11
9.5773302755905512
21
-6.0100205511811025
0
LINE
8
BLACK
6
CONTINUOUS
10
9.5773302755905512
20
-6.0100205511811025
11
9.5735807480314961
21
-6.0137700787401576
0
LINE
8
BLACK
6
CONTINUOUS
10
9.5735807480314961
20
-6.0137700787401576
11
9.5698312204724409
21
-6.0100205511811025
0
LINE
8
BLACK
6
CONTINUOUS
10
9.5698312204724409
20
-6.0100205511811025
11
9.5735807480314961
21
-6.0062709842519686
0
LINE
8
BLACK
6
CONTINUOUS
10
9.5735807480314961
20
-6.0062709842519686
11
9.5735807480314961
21
-6.0137700787401576
0
LINE
8
BLACK
6
CONTINUOUS
10
9.6523209055118109
20
-6.0137700787401576
11
9.6073265354330708
21
-6.0137700787401576
0
LINE
8
BLACK
6
CONTINUOUS
10
9.6298237007874015
20
-6.0137700787401576
11
9.6298237007874015
21
-5.9350299212598427
0
LINE
8
BLACK
6
CONTINUOUS
10
9.6298237007874015
20
-5.9350299212598427
11
9.6223246456692912
21
-5.9462785039370081
0
LINE
8
BLACK
6
CONTINUOUS
10
9.6223246456692912
20
-5.9462785039370081
11
9.614825590551181
21
-5.9537775590551183
0
LINE
8
BLACK
6
CONTINUOUS
10
9.614825590551181
20
-5.9537775590551183
11
9.6073265354330708
21
-5.9575270866141734
0
LINE
8
BLACK
6
CONTINUOUS
10
9.6823171653543305
20
-5.942528976377953
11
9.6860666929133856
21
-5.9387794488188979
0
LINE
8
BLACK
6
CONTINUOUS
10
9.6860666929133856
20
-5.9387794488188979
11
9.6935657480314958
21
-5.9350299212598427
0
LINE
8
BLACK
6
CONTINUOUS
10
9.6935657480314958
20
-5.9350299212598427
11
9.7123134251968501
21
-5.9350299212598427
0
LINE
8
BLACK
6
CONTINUOUS
10
9.7123134251968501
20
-5.9350299212598427
11
9.7198124803149604
21
-5.9387794488188979
0
LINE
8
BLACK
6
CONTINUOUS
10
9.7198124803149604
20
-5.9387794488188979
11
9.7235620078740155
21
-5.942528976377953
0
LINE
8
BLACK
6
CONTINUOUS
10
9.7235620078740155
20
-5.942528976377953
11
9.7273115354330706
21
-5.9500280314960632
0
LINE
8
BLACK
6
CONTINUOUS
10
9.7273115354330706
20
-5.9500280314960632
11
9.7273115354330706
21
-5.9575270866141734
0
LINE
8
BLACK
6
CONTINUOUS
10
9.7273115354330706
20
-5.9575270866141734
11
9.7235620078740155
21
-5.9687756692913387
0
LINE
8
BLACK
6
CONTINUOUS
10
9.7235620078740155
20
-5.9687756692913387
11
9.6785676377952754
21
-6.0137700787401576
0
LINE
8
BLACK
6
CONTINUOUS
10
9.6785676377952754
20
-6.0137700787401576
11
9.7273115354330706
21
-6.0137700787401576
0
LINE
8
BLACK
6
CONTINUOUS
10
9.7985526377952752
20
-5.9350299212598427
11
9.7610573228346453
21
-5.9350299212598427
0
LINE
8
BLACK
6
CONTINUOUS
10
9.7610573228346453
20
-5.9350299212598427
11
9.7573077952755902
21
-5.9725252362204726
0
LINE
8
BLACK
6
CONTINUOUS
10
9.7573077952755902
20
-5.9725252362204726
11
9.7610573228346453
21
-5.9687756692913387
0
LINE
8
BLACK
6
CONTINUOUS
10
9.7610573228346453
20
-5.9687756692913387
11
9.7685563779527556
21
-5.9650261417322836
0
LINE
8
BLACK
6
CONTINUOUS
10
9.7685563779527556
20
-5.9650261417322836
11
9.7873040551181099
21
-5.9650261417322836
0
LINE
8
BLACK
6
CONTINUOUS
10
9.7873040551181099
20
-5.9650261417322836
11
9.7948031102362201
21
-5.9687756692913387
0
LINE
8
BLACK
6
CONTINUOUS
10
9.7948031102362201
20
-5.9687756692913387
11
9.7985526377952752
21
-5.9725252362204726
0
LINE
8
BLACK
6
CONTINUOUS
10
9.7985526377952752
20
-5.9725252362204726
11
9.8023021653543303
21
-5.9800242913385828
0
LINE
8
BLACK
6
CONTINUOUS
10
9.8023021653543303
20
-5.9800242913385828
11
9.8023021653543303
21
-5.9987719291338584
0
LINE
8
BLACK
6
CONTINUOUS
10
9.8023021653543303
20
-5.9987719291338584
11
9.7985526377952752
21
-6.0062709842519686
0
LINE
8
BLACK
6
CONTINUOUS
10
9.7985526377952752
20
-6.0062709842519686
11
9.7948031102362201
21
-6.0100205511811025
0
LINE
8
BLACK
6
CONTINUOUS
10
9.7948031102362201
20
-6.0100205511811025
11
9.7873040551181099
21
-6.0137700787401576
0
LINE
8
BLACK
6
CONTINUOUS
10
9.7873040551181099
20
-6.0137700787401576
11
9.7685563779527556
21
-6.0137700787401576
0
LINE
8
BLACK
6
CONTINUOUS
10
9.7685563779527556
20
-6.0137700787401576
11
9.7610573228346453
21
-6.0100205511811025
0
LINE
8
BLACK
6
CONTINUOUS
10
9.7610573228346453
20
-6.0100205511811025
11
9.7573077952755902
21
-6.0062709842519686
0
LINE
8
BLACK
6
CONTINUOUS
10
9.8510460629921255
20
-5.9350299212598427
11
9.8585451574803145
21
-5.9350299212598427
0
LINE
8
BLACK
6
CONTINUOUS
10
9.8585451574803145
20
-5.9350299212598427
11
9.8660442125984247
21
-5.9387794488188979
0
LINE
8
BLACK
6
CONTINUOUS
10
9.8660442125984247
20
-5.9387794488188979
11
9.8697937401574798
21
-5.942528976377953
0
LINE
8
BLACK
6
CONTINUOUS
10
9.8697937401574798
20
-5.942528976377953
11
9.8735432677165349
21
-5.9500280314960632
0
LINE
8
BLACK
6
CONTINUOUS
10
9.8735432677165349
20
-5.9500280314960632
11
9.87729279527559
21
-5.9650261417322836
0
LINE
8
BLACK
6
CONTINUOUS
10
9.87729279527559
20
-5.9650261417322836
11
9.87729279527559
21
-5.9837738188976379
0
LINE
8
BLACK
6
CONTINUOUS
10
9.87729279527559
20
-5.9837738188976379
11
9.8735432677165349
21
-5.9987719291338584
0
LINE
8
BLACK
6
CONTINUOUS
10
9.8735432677165349
20
-5.9987719291338584
11
9.8697937401574798
21
-6.0062709842519686
0
LINE
8
BLACK
6
CONTINUOUS
10
9.8697937401574798
20
-6.0062709842519686
11
9.8660442125984247
21
-6.0100205511811025
0
LINE
8
BLACK
6
CONTINUOUS
10
9.8660442125984247
20
-6.0100205511811025
11
9.8585451574803145
21
-6.0137700787401576
0
LINE
8
BLACK
6
CONTINUOUS
10
9.8585451574803145
20
-6.0137700787401576
11
9.8510460629921255
21
-6.0137700787401576
0
LINE
8
BLACK
6
CONTINUOUS
10
9.8510460629921255
20
-6.0137700787401576
11
9.8435470078740153
21
-6.0100205511811025
0
LINE
8
BLACK
6
CONTINUOUS
10
9.8435470078740153
20
-6.0100205511811025
11
9.8397974803149602
21
-6.0062709842519686
0
LINE
8
BLACK
6
CONTINUOUS
10
9.8397974803149602
20
-6.0062709842519686
11
9.836047952755905
21
-5.9987719291338584
0
LINE
8
BLACK
6
CONTINUOUS
10
9.836047952755905
20
-5.9987719291338584
11
9.8322984251968499
21
-5.9837738188976379
0
LINE
8
BLACK
6
CONTINUOUS
10
9.8322984251968499
20
-5.9837738188976379
11
9.8322984251968499
21
-5.9650261417322836
0
LINE
8
BLACK
6
CONTINUOUS
10
9.8322984251968499
20
-5.9650261417322836
11
9.836047952755905
21
-5.9500280314960632
0
LINE
8
BLACK
6
CONTINUOUS
10
9.836047952755905
20
-5.9500280314960632
11
9.8397974803149602
21
-5.942528976377953
0
LINE
8
BLACK
6
CONTINUOUS
10
9.8397974803149602
20
-5.942528976377953
11
9.8435470078740153
21
-5.9387794488188979
0
LINE
8
BLACK
6
CONTINUOUS
10
9.8435470078740153
20
-5.9387794488188979
11
9.8510460629921255
21
-5.9350299212598427
0
LINE
8
BLACK
6
CONTINUOUS
10
9.9072890551181096
20
-5.9350299212598427
11
9.9072890551181096
21
-5.9500280314960632
0
LINE
8
BLACK
6
CONTINUOUS
10
9.9372853149606293
20
-5.9350299212598427
11
9.9372853149606293
21
-5.9500280314960632
0
LINE
8
BLACK
6
CONTINUOUS
10
10.0535208267716527
20
-6.0437662992125984
11
10.0497712598425188
21
-6.0400167716535433
0
LINE
8
BLACK
6
CONTINUOUS
10
10.0497712598425188
20
-6.0400167716535433
11
10.0422722047244086
21
-6.028768188976378
0
LINE
8
BLACK
6
CONTINUOUS
10
10.0422722047244086
20
-6.028768188976378
11
10.0385226771653535
21
-6.0212691338582678
0
LINE
8
BLACK
6
CONTINUOUS
10
10.0385226771653535
20
-6.0212691338582678
11
10.0347731496062984
21
-6.0100205511811025
0
LINE
8
BLACK
6
CONTINUOUS
10
10.0347731496062984
20
-6.0100205511811025
11
10.0310236220472433
21
-5.9912728740157482
0
LINE
8
BLACK
6
CONTINUOUS
10
10.0310236220472433
20
-5.9912728740157482
11
10.0310236220472433
21
-5.9762747637795277
0
LINE
8
BLACK
6
CONTINUOUS
10
10.0310236220472433
20
-5.9762747637795277
11
10.0347731496062984
21
-5.9575270866141734
0
LINE
8
BLACK
6
CONTINUOUS
10
10.0347731496062984
20
-5.9575270866141734
11
10.0385226771653535
21
-5.9462785039370081
0
LINE
8
BLACK
6
CONTINUOUS
10
10.0385226771653535
20
-5.9462785039370081
11
10.0422722047244086
21
-5.9387794488188979
0
LINE
8
BLACK
6
CONTINUOUS
10
10.0422722047244086
20
-5.9387794488188979
11
10.0497712598425188
21
-5.9275308267716538
0
LINE
8
BLACK
6
CONTINUOUS
10
10.0497712598425188
20
-5.9275308267716538
11
10.0535208267716527
21
-5.9237812992125987
0
LINE
8
BLACK
6
CONTINUOUS
10
10.0797675196850385
20
-5.942528976377953
11
10.0835170472440936
21
-5.9387794488188979
0
LINE
8
BLACK
6
CONTINUOUS
10
10.0835170472440936
20
-5.9387794488188979
11
10.0910161023622038
21
-5.9350299212598427
0
LINE
8
BLACK
6
CONTINUOUS
10
10.0910161023622038
20
-5.9350299212598427
11
10.1097637795275581
21
-5.9350299212598427
0
LINE
8
BLACK
6
CONTINUOUS
10
10.1097637795275581
20
-5.9350299212598427
11
10.1172628346456683
21
-5.9387794488188979
0
LINE
8
BLACK
6
CONTINUOUS
10
10.1172628346456683
20
-5.9387794488188979
11
10.1210123622047234
21
-5.942528976377953
0
LINE
8
BLACK
6
CONTINUOUS
10
10.1210123622047234
20
-5.942528976377953
11
10.1247618897637786
21
-5.9500280314960632
0
LINE
8
BLACK
6
CONTINUOUS
10
10.1247618897637786
20
-5.9500280314960632
11
10.1247618897637786
21
-5.9575270866141734
0
LINE
8
BLACK
6
CONTINUOUS
10
10.1247618897637786
20
-5.9575270866141734
11
10.1210123622047234
21
-5.9687756692913387
0
LINE
8
BLACK
6
CONTINUOUS
10
10.1210123622047234
20
-5.9687756692913387
11
10.0760179921259834
21
-6.0137700787401576
0
LINE
8
BLACK
6
CONTINUOUS
10
10.0760179921259834
20
-6.0137700787401576
11
10.1247618897637786
21
-6.0137700787401576
0
LINE
8
BLACK
6
CONTINUOUS
10
10.2185001968503943
20
-6.0137700787401576
11
10.2185001968503943
21
-5.9350299212598427
0
LINE
8
BLACK
6
CONTINUOUS
10
10.2522459842519691
20
-6.0137700787401576
11
10.2522459842519691
21
-5.9725252362204726
0
LINE
8
BLACK
6
CONTINUOUS
10
10.2522459842519691
20
-5.9725252362204726
11
10.248496456692914
21
-5.9650261417322836
0
LINE
8
BLACK
6
CONTINUOUS
10
10.248496456692914
20
-5.9650261417322836
11
10.2409974015748038
21
-5.9612766141732285
0
LINE
8
BLACK
6
CONTINUOUS
10
10.2409974015748038
20
-5.9612766141732285
11
10.2297487795275597
21
-5.9612766141732285
0
LINE
8
BLACK
6
CONTINUOUS
10
10.2297487795275597
20
-5.9612766141732285
11
10.2222497244094495
21
-5.9650261417322836
0
LINE
8
BLACK
6
CONTINUOUS
10
10.2222497244094495
20
-5.9650261417322836
11
10.2185001968503943
21
-5.9687756692913387
0
LINE
8
BLACK
6
CONTINUOUS
10
10.3009898818897643
20
-6.0137700787401576
11
10.2934908267716541
21
-6.0100205511811025
0
LINE
8
BLACK
6
CONTINUOUS
10
10.2934908267716541
20
-6.0100205511811025
11
10.2897412992125989
21
-6.0062709842519686
0
LINE
8
BLACK
6
CONTINUOUS
10
10.2897412992125989
20
-6.0062709842519686
11
10.2859917716535438
21
-5.9987719291338584
0
LINE
8
BLACK
6
CONTINUOUS
10
10.2859917716535438
20
-5.9987719291338584
11
10.2859917716535438
21
-5.9762747637795277
0
LINE
8
BLACK
6
CONTINUOUS
10
10.2859917716535438
20
-5.9762747637795277
11
10.2897412992125989
21
-5.9687756692913387
0
LINE
8
BLACK
6
CONTINUOUS
10
10.2897412992125989
20
-5.9687756692913387
11
10.2934908267716541
21
-5.9650261417322836
0
LINE
8
BLACK
6
CONTINUOUS
10
10.2934908267716541
20
-5.9650261417322836
11
10.3009898818897643
21
-5.9612766141732285
0
LINE
8
BLACK
6
CONTINUOUS
10
10.3009898818897643
20
-5.9612766141732285
11
10.3122385039370084
21
-5.9612766141732285
0
LINE
8
BLACK
6
CONTINUOUS
10
10.3122385039370084
20
-5.9612766141732285
11
10.3197375590551186
21
-5.9650261417322836
0
LINE
8
BLACK
6
CONTINUOUS
10
10.3197375590551186
20
-5.9650261417322836
11
10.3234870866141737
21
-5.9687756692913387
0
LINE
8
BLACK
6
CONTINUOUS
10
10.3234870866141737
20
-5.9687756692913387
11
10.3272366141732288
21
-5.9762747637795277
0
LINE
8
BLACK
6
CONTINUOUS
10
10.3272366141732288
20
-5.9762747637795277
11
10.3272366141732288
21
-5.9987719291338584
0
LINE
8
BLACK
6
CONTINUOUS
10
10.3272366141732288
20
-5.9987719291338584
11
10.3234870866141737
21
-6.0062709842519686
0
LINE
8
BLACK
6
CONTINUOUS
10
10.3234870866141737
20
-6.0062709842519686
11
10.3197375590551186
21
-6.0100205511811025
0
LINE
8
BLACK
6
CONTINUOUS
10
10.3197375590551186
20
-6.0100205511811025
11
10.3122385039370084
21
-6.0137700787401576
0
LINE
8
BLACK
6
CONTINUOUS
10
10.3122385039370084
20
-6.0137700787401576
11
10.3009898818897643
21
-6.0137700787401576
0
LINE
8
BLACK
6
CONTINUOUS
10
10.3722309842519689
20
-6.0137700787401576
11
10.3647319291338587
21
-6.0100205511811025
0
LINE
8
BLACK
6
CONTINUOUS
10
10.3647319291338587
20
-6.0100205511811025
11
10.3609824015748035
21
-6.0025214566929135
0
LINE
8
BLACK
6
CONTINUOUS
10
10.3609824015748035
20
-6.0025214566929135
11
10.3609824015748035
21
-5.9350299212598427
0
LINE
8
BLACK
6
CONTINUOUS
10
10.4322235039370081
20
-6.0100205511811025
11
10.4247244488188979
21
-6.0137700787401576
0
LINE
8
BLACK
6
CONTINUOUS
10
10.4247244488188979
20
-6.0137700787401576
11
10.4097262992125987
21
-6.0137700787401576
0
LINE
8
BLACK
6
CONTINUOUS
10
10.4097262992125987
20
-6.0137700787401576
11
10.4022272440944885
21
-6.0100205511811025
0
LINE
8
BLACK
6
CONTINUOUS
10
10.4022272440944885
20
-6.0100205511811025
11
10.3984777165354334
21
-6.0025214566929135
0
LINE
8
BLACK
6
CONTINUOUS
10
10.3984777165354334
20
-6.0025214566929135
11
10.3984777165354334
21
-5.9725252362204726
0
LINE
8
BLACK
6
CONTINUOUS
10
10.3984777165354334
20
-5.9725252362204726
11
10.4022272440944885
21
-5.9650261417322836
0
LINE
8
BLACK
6
CONTINUOUS
10
10.4022272440944885
20
-5.9650261417322836
11
10.4097262992125987
21
-5.9612766141732285
0
LINE
8
BLACK
6
CONTINUOUS
10
10.4097262992125987
20
-5.9612766141732285
11
10.4247244488188979
21
-5.9612766141732285
0
LINE
8
BLACK
6
CONTINUOUS
10
10.4247244488188979
20
-5.9612766141732285
11
10.4322235039370081
21
-5.9650261417322836
0
LINE
8
BLACK
6
CONTINUOUS
10
10.4322235039370081
20
-5.9650261417322836
11
10.4359730314960633
21
-5.9725252362204726
0
LINE
8
BLACK
6
CONTINUOUS
10
10.4359730314960633
20
-5.9725252362204726
11
10.4359730314960633
21
-5.9800242913385828
0
LINE
8
BLACK
6
CONTINUOUS
10
10.4359730314960633
20
-5.9800242913385828
11
10.3984777165354334
21
-5.987523346456693
0
LINE
8
BLACK
6
CONTINUOUS
10
10.4659692913385829
20
-6.0100205511811025
11
10.4734683464566931
21
-6.0137700787401576
0
LINE
8
BLACK
6
CONTINUOUS
10
10.4734683464566931
20
-6.0137700787401576
11
10.4884664566929136
21
-6.0137700787401576
0
LINE
8
BLACK
6
CONTINUOUS
10
10.4884664566929136
20
-6.0137700787401576
11
10.4959655511811025
21
-6.0100205511811025
0
LINE
8
BLACK
6
CONTINUOUS
10
10.4959655511811025
20
-6.0100205511811025
11
10.4997150787401576
21
-6.0025214566929135
0
LINE
8
BLACK
6
CONTINUOUS
10
10.4997150787401576
20
-6.0025214566929135
11
10.4997150787401576
21
-5.9987719291338584
0
LINE
8
BLACK
6
CONTINUOUS
10
10.4997150787401576
20
-5.9987719291338584
11
10.4959655511811025
21
-5.9912728740157482
0
LINE
8
BLACK
6
CONTINUOUS
10
10.4959655511811025
20
-5.9912728740157482
11
10.4884664566929136
21
-5.987523346456693
0
LINE
8
BLACK
6
CONTINUOUS
10
10.4884664566929136
20
-5.987523346456693
11
10.4772178740157482
21
-5.987523346456693
0
LINE
8
BLACK
6
CONTINUOUS
10
10.4772178740157482
20
-5.987523346456693
11
10.469718818897638
21
-5.9837738188976379
0
LINE
8
BLACK
6
CONTINUOUS
10
10.469718818897638
20
-5.9837738188976379
11
10.4659692913385829
21
-5.9762747637795277
0
LINE
8
BLACK
6
CONTINUOUS
10
10.4659692913385829
20
-5.9762747637795277
11
10.4659692913385829
21
-5.9725252362204726
0
LINE
8
BLACK
6
CONTINUOUS
10
10.4659692913385829
20
-5.9725252362204726
11
10.469718818897638
21
-5.9650261417322836
0
LINE
8
BLACK
6
CONTINUOUS
10
10.469718818897638
20
-5.9650261417322836
11
10.4772178740157482
21
-5.9612766141732285
0
LINE
8
BLACK
6
CONTINUOUS
10
10.4772178740157482
20
-5.9612766141732285
11
10.4884664566929136
21
-5.9612766141732285
0
LINE
8
BLACK
6
CONTINUOUS
10
10.4884664566929136
20
-5.9612766141732285
11
10.4959655511811025
21
-5.9650261417322836
0
LINE
8
BLACK
6
CONTINUOUS
10
10.5259618110236222
20
-6.0437662992125984
11
10.5297113385826773
21
-6.0400167716535433
0
LINE
8
BLACK
6
CONTINUOUS
10
10.5297113385826773
20
-6.0400167716535433
11
10.5372103937007875
21
-6.028768188976378
0
LINE
8
BLACK
6
CONTINUOUS
10
10.5372103937007875
20
-6.028768188976378
11
10.5409599212598426
21
-6.0212691338582678
0
LINE
8
BLACK
6
CONTINUOUS
10
10.5409599212598426
20
-6.0212691338582678
11
10.5447094488188977
21
-6.0100205511811025
0
LINE
8
BLACK
6
CONTINUOUS
10
10.5447094488188977
20
-6.0100205511811025
11
10.5484589763779528
21
-5.9912728740157482
0
LINE
8
BLACK
6
CONTINUOUS
10
10.5484589763779528
20
-5.9912728740157482
11
10.5484589763779528
21
-5.9762747637795277
0
LINE
8
BLACK
6
CONTINUOUS
10
10.5484589763779528
20
-5.9762747637795277
11
10.5447094488188977
21
-5.9575270866141734
0
LINE
8
BLACK
6
CONTINUOUS
10
10.5447094488188977
20
-5.9575270866141734
11
10.5409599212598426
21
-5.9462785039370081
0
LINE
8
BLACK
6
CONTINUOUS
10
10.5409599212598426
20
-5.9462785039370081
11
10.5372103937007875
21
-5.9387794488188979
0
LINE
8
BLACK
6
CONTINUOUS
10
10.5372103937007875
20
-5.9387794488188979
11
10.5297113385826773
21
-5.9275308267716538
0
LINE
8
BLACK
6
CONTINUOUS
10
10.5297113385826773
20
-5.9275308267716538
11
10.5259618110236222
21
-5.9237812992125987
0
LINE
8
BLACK
6
CONTINUOUS
10
8.6066456692913391
20
-6.1431071653543308
11
8.6460157480314965
21
-6.1037370866141734
0
LINE
8
BLACK
6
CONTINUOUS
10
8.6460157480314965
20
-6.1037370866141734
11
8.6066456692913391
21
-6.0643670078740159
0
LINE
8
BLACK
6
CONTINUOUS
10
8.6066456692913391
20
-6.0643670078740159
11
8.5672755905511817
21
-6.1037370866141734
0
LINE
8
BLACK
6
CONTINUOUS
10
8.5672755905511817
20
-6.1037370866141734
11
8.6066456692913391
21
-6.1431071653543308
0
LINE
8
BLACK
6
CONTINUOUS
10
8.7411847244094485
20
-6.0610141732283465
11
8.7899286220472437
21
-6.0610141732283465
0
LINE
8
BLACK
6
CONTINUOUS
10
8.7899286220472437
20
-6.0610141732283465
11
8.7636818897637792
21
-6.0910103937007873
0
LINE
8
BLACK
6
CONTINUOUS
10
8.7636818897637792
20
-6.0910103937007873
11
8.7749305118110232
21
-6.0910103937007873
0
LINE
8
BLACK
6
CONTINUOUS
10
8.7749305118110232
20
-6.0910103937007873
11
8.7824295669291335
21
-6.0947599212598425
0
LINE
8
BLACK
6
CONTINUOUS
10
8.7824295669291335
20
-6.0947599212598425
11
8.7861790944881886
21
-6.0985094881889763
0
LINE
8
BLACK
6
CONTINUOUS
10
8.7861790944881886
20
-6.0985094881889763
11
8.7899286220472437
21
-6.1060085433070865
0
LINE
8
BLACK
6
CONTINUOUS
10
8.7899286220472437
20
-6.1060085433070865
11
8.7899286220472437
21
-6.1247561811023621
0
LINE
8
BLACK
6
CONTINUOUS
10
8.7899286220472437
20
-6.1247561811023621
11
8.7861790944881886
21
-6.1322552362204723
0
LINE
8
BLACK
6
CONTINUOUS
10
8.7861790944881886
20
-6.1322552362204723
11
8.7824295669291335
21
-6.1360048031496062
0
LINE
8
BLACK
6
CONTINUOUS
10
8.7824295669291335
20
-6.1360048031496062
11
8.7749305118110232
21
-6.1397543307086613
0
LINE
8
BLACK
6
CONTINUOUS
10
8.7749305118110232
20
-6.1397543307086613
11
8.7524333070866138
21
-6.1397543307086613
0
LINE
8
BLACK
6
CONTINUOUS
10
8.7524333070866138
20
-6.1397543307086613
11
8.7449342519685036
21
-6.1360048031496062
0
LINE
8
BLACK
6
CONTINUOUS
10
8.7449342519685036
20
-6.1360048031496062
11
8.7411847244094485
21
-6.1322552362204723
0
LINE
8
BLACK
6
CONTINUOUS
10
8.8236744094488184
20
-6.1322552362204723
11
8.8274239370078735
21
-6.1360048031496062
0
LINE
8
BLACK
6
CONTINUOUS
10
8.8274239370078735
20
-6.1360048031496062
11
8.8236744094488184
21
-6.1397543307086613
0
LINE
8
BLACK
6
CONTINUOUS
10
8.8236744094488184
20
-6.1397543307086613
11
8.8199248818897633
21
-6.1360048031496062
0
LINE
8
BLACK
6
CONTINUOUS
10
8.8199248818897633
20
-6.1360048031496062
11
8.8236744094488184
21
-6.1322552362204723
0
LINE
8
BLACK
6
CONTINUOUS
10
8.8236744094488184
20
-6.1322552362204723
11
8.8236744094488184
21
-6.1397543307086613
0
LINE
8
BLACK
6
CONTINUOUS
10
8.894915511811023
20
-6.0872608661417322
11
8.894915511811023
21
-6.1397543307086613
0
LINE
8
BLACK
6
CONTINUOUS
10
8.8761678346456687
20
-6.0572646456692913
11
8.8574201968503932
21
-6.1135075984251968
0
LINE
8
BLACK
6
CONTINUOUS
10
8.8574201968503932
20
-6.1135075984251968
11
8.9061640944881884
21
-6.1135075984251968
0
LINE
8
BLACK
6
CONTINUOUS
10
8.9511584645669284
20
-6.0610141732283465
11
8.9586575590551174
21
-6.0610141732283465
0
LINE
8
BLACK
6
CONTINUOUS
10
8.9586575590551174
20
-6.0610141732283465
11
8.9661566141732276
21
-6.0647637007874016
0
LINE
8
BLACK
6
CONTINUOUS
10
8.9661566141732276
20
-6.0647637007874016
11
8.9699061417322827
21
-6.0685132283464567
0
LINE
8
BLACK
6
CONTINUOUS
10
8.9699061417322827
20
-6.0685132283464567
11
8.9736556692913378
21
-6.0760122834645669
0
LINE
8
BLACK
6
CONTINUOUS
10
8.9736556692913378
20
-6.0760122834645669
11
8.977405196850393
21
-6.0910103937007873
0
LINE
8
BLACK
6
CONTINUOUS
10
8.977405196850393
20
-6.0910103937007873
11
8.977405196850393
21
-6.1097580708661416
0
LINE
8
BLACK
6
CONTINUOUS
10
8.977405196850393
20
-6.1097580708661416
11
8.9736556692913378
21
-6.1247561811023621
0
LINE
8
BLACK
6
CONTINUOUS
10
8.9736556692913378
20
-6.1247561811023621
11
8.9699061417322827
21
-6.1322552362204723
0
LINE
8
BLACK
6
CONTINUOUS
10
8.9699061417322827
20
-6.1322552362204723
11
8.9661566141732276
21
-6.1360048031496062
0
LINE
8
BLACK
6
CONTINUOUS
10
8.9661566141732276
20
-6.1360048031496062
11
8.9586575590551174
21
-6.1397543307086613
0
LINE
8
BLACK
6
CONTINUOUS
10
8.9586575590551174
20
-6.1397543307086613
11
8.9511584645669284
21
-6.1397543307086613
0
LINE
8
BLACK
6
CONTINUOUS
10
8.9511584645669284
20
-6.1397543307086613
11
8.9436594094488182
21
-6.1360048031496062
0
LINE
8
BLACK
6
CONTINUOUS
10
8.9436594094488182
20
-6.1360048031496062
11
8.9399098818897631
21
-6.1322552362204723
0
LINE
8
BLACK
6
CONTINUOUS
10
8.9399098818897631
20
-6.1322552362204723
11
8.936160354330708
21
-6.1247561811023621
0
LINE
8
BLACK
6
CONTINUOUS
10
8.936160354330708
20
-6.1247561811023621
11
8.9324108267716529
21
-6.1097580708661416
0
LINE
8
BLACK
6
CONTINUOUS
10
8.9324108267716529
20
-6.1097580708661416
11
8.9324108267716529
21
-6.0910103937007873
0
LINE
8
BLACK
6
CONTINUOUS
10
8.9324108267716529
20
-6.0910103937007873
11
8.936160354330708
21
-6.0760122834645669
0
LINE
8
BLACK
6
CONTINUOUS
10
8.936160354330708
20
-6.0760122834645669
11
8.9399098818897631
21
-6.0685132283464567
0
LINE
8
BLACK
6
CONTINUOUS
10
8.9399098818897631
20
-6.0685132283464567
11
8.9436594094488182
21
-6.0647637007874016
0
LINE
8
BLACK
6
CONTINUOUS
10
8.9436594094488182
20
-6.0647637007874016
11
8.9511584645669284
21
-6.0610141732283465
0
LINE
8
BLACK
6
CONTINUOUS
10
9.0261490944881881
20
-6.0610141732283465
11
9.0336481889763771
21
-6.0610141732283465
0
LINE
8
BLACK
6
CONTINUOUS
10
9.0336481889763771
20
-6.0610141732283465
11
9.0411472440944873
21
-6.0647637007874016
0
LINE
8
BLACK
6
CONTINUOUS
10
9.0411472440944873
20
-6.0647637007874016
11
9.0448967716535424
21
-6.0685132283464567
0
LINE
8
BLACK
6
CONTINUOUS
10
9.0448967716535424
20
-6.0685132283464567
11
9.0486462992125976
21
-6.0760122834645669
0
LINE
8
BLACK
6
CONTINUOUS
10
9.0486462992125976
20
-6.0760122834645669
11
9.0523958267716527
21
-6.0910103937007873
0
LINE
8
BLACK
6
CONTINUOUS
10
9.0523958267716527
20
-6.0910103937007873
11
9.0523958267716527
21
-6.1097580708661416
0
LINE
8
BLACK
6
CONTINUOUS
10
9.0523958267716527
20
-6.1097580708661416
11
9.0486462992125976
21
-6.1247561811023621
0
LINE
8
BLACK
6
CONTINUOUS
10
9.0486462992125976
20
-6.1247561811023621
11
9.0448967716535424
21
-6.1322552362204723
0
LINE
8
BLACK
6
CONTINUOUS
10
9.0448967716535424
20
-6.1322552362204723
11
9.0411472440944873
21
-6.1360048031496062
0
LINE
8
BLACK
6
CONTINUOUS
10
9.0411472440944873
20
-6.1360048031496062
11
9.0336481889763771
21
-6.1397543307086613
0
LINE
8
BLACK
6
CONTINUOUS
10
9.0336481889763771
20
-6.1397543307086613
11
9.0261490944881881
21
-6.1397543307086613
0
LINE
8
BLACK
6
CONTINUOUS
10
9.0261490944881881
20
-6.1397543307086613
11
9.0186500393700779
21
-6.1360048031496062
0
LINE
8
BLACK
6
CONTINUOUS
10
9.0186500393700779
20
-6.1360048031496062
11
9.0149005118110228
21
-6.1322552362204723
0
LINE
8
BLACK
6
CONTINUOUS
10
9.0149005118110228
20
-6.1322552362204723
11
9.0111509842519677
21
-6.1247561811023621
0
LINE
8
BLACK
6
CONTINUOUS
10
9.0111509842519677
20
-6.1247561811023621
11
9.0074014566929126
21
-6.1097580708661416
0
LINE
8
BLACK
6
CONTINUOUS
10
9.0074014566929126
20
-6.1097580708661416
11
9.0074014566929126
21
-6.0910103937007873
0
LINE
8
BLACK
6
CONTINUOUS
10
9.0074014566929126
20
-6.0910103937007873
11
9.0111509842519677
21
-6.0760122834645669
0
LINE
8
BLACK
6
CONTINUOUS
10
9.0111509842519677
20
-6.0760122834645669
11
9.0149005118110228
21
-6.0685132283464567
0
LINE
8
BLACK
6
CONTINUOUS
10
9.0149005118110228
20
-6.0685132283464567
11
9.0186500393700779
21
-6.0647637007874016
0
LINE
8
BLACK
6
CONTINUOUS
10
9.0186500393700779
20
-6.0647637007874016
11
9.0261490944881881
21
-6.0610141732283465
0
LINE
8
BLACK
6
CONTINUOUS
10
9.0861416141732274
20
-6.1397543307086613
11
9.0861416141732274
21
-6.0872608661417322
0
LINE
8
BLACK
6
CONTINUOUS
10
9.0861416141732274
20
-6.0947599212598425
11
9.0898911417322825
21
-6.0910103937007873
0
LINE
8
BLACK
6
CONTINUOUS
10
9.0898911417322825
20
-6.0910103937007873
11
9.0973901968503927
21
-6.0872608661417322
0
LINE
8
BLACK
6
CONTINUOUS
10
9.0973901968503927
20
-6.0872608661417322
11
9.1086388188976368
21
-6.0872608661417322
0
LINE
8
BLACK
6
CONTINUOUS
10
9.1086388188976368
20
-6.0872608661417322
11
9.116137874015747
21
-6.0910103937007873
0
LINE
8
BLACK
6
CONTINUOUS
10
9.116137874015747
20
-6.0910103937007873
11
9.1198874015748022
21
-6.0985094881889763
0
LINE
8
BLACK
6
CONTINUOUS
10
9.1198874015748022
20
-6.0985094881889763
11
9.1198874015748022
21
-6.1397543307086613
0
LINE
8
BLACK
6
CONTINUOUS
10
9.1198874015748022
20
-6.0985094881889763
11
9.1236369291338573
21
-6.0910103937007873
0
LINE
8
BLACK
6
CONTINUOUS
10
9.1236369291338573
20
-6.0910103937007873
11
9.1311359842519675
21
-6.0872608661417322
0
LINE
8
BLACK
6
CONTINUOUS
10
9.1311359842519675
20
-6.0872608661417322
11
9.1423845669291328
21
-6.0872608661417322
0
LINE
8
BLACK
6
CONTINUOUS
10
9.1423845669291328
20
-6.0872608661417322
11
9.1498836614173218
21
-6.0910103937007873
0
LINE
8
BLACK
6
CONTINUOUS
10
9.1498836614173218
20
-6.0910103937007873
11
9.1536331889763769
21
-6.0985094881889763
0
LINE
8
BLACK
6
CONTINUOUS
10
9.1536331889763769
20
-6.0985094881889763
11
9.1536331889763769
21
-6.1397543307086613
0
LINE
8
BLACK
6
CONTINUOUS
10
9.1911285039370085
20
-6.1397543307086613
11
9.1911285039370085
21
-6.0872608661417322
0
LINE
8
BLACK
6
CONTINUOUS
10
9.1911285039370085
20
-6.0947599212598425
11
9.1948780314960636
21
-6.0910103937007873
0
LINE
8
BLACK
6
CONTINUOUS
10
9.1948780314960636
20
-6.0910103937007873
11
9.2023770866141739
21
-6.0872608661417322
0
LINE
8
BLACK
6
CONTINUOUS
10
9.2023770866141739
20
-6.0872608661417322
11
9.2136257086614179
21
-6.0872608661417322
0
LINE
8
BLACK
6
CONTINUOUS
10
9.2136257086614179
20
-6.0872608661417322
11
9.2211247637795282
21
-6.0910103937007873
0
LINE
8
BLACK
6
CONTINUOUS
10
9.2211247637795282
20
-6.0910103937007873
11
9.2248742913385833
21
-6.0985094881889763
0
LINE
8
BLACK
6
CONTINUOUS
10
9.2248742913385833
20
-6.0985094881889763
11
9.2248742913385833
21
-6.1397543307086613
0
LINE
8
BLACK
6
CONTINUOUS
10
9.2248742913385833
20
-6.0985094881889763
11
9.2286238188976384
21
-6.0910103937007873
0
LINE
8
BLACK
6
CONTINUOUS
10
9.2286238188976384
20
-6.0910103937007873
11
9.2361228740157486
21
-6.0872608661417322
0
LINE
8
BLACK
6
CONTINUOUS
10
9.2361228740157486
20
-6.0872608661417322
11
9.2473714566929139
21
-6.0872608661417322
0
LINE
8
BLACK
6
CONTINUOUS
10
9.2473714566929139
20
-6.0872608661417322
11
9.2548705511811029
21
-6.0910103937007873
0
LINE
8
BLACK
6
CONTINUOUS
10
9.2548705511811029
20
-6.0910103937007873
11
9.258620078740158
21
-6.0985094881889763
0
LINE
8
BLACK
6
CONTINUOUS
10
9.258620078740158
20
-6.0985094881889763
11
9.258620078740158
21
-6.1397543307086613
0
LINE
8
BLACK
6
CONTINUOUS
10
9.4123508661417326
20
-6.0572646456692913
11
9.3448593307086618
21
-6.1585019685039368
0
LINE
8
BLACK
6
CONTINUOUS
10
9.5135882283464568
20
-6.0610141732283465
11
9.5210873228346458
21
-6.0610141732283465
0
LINE
8
BLACK
6
CONTINUOUS
10
9.5210873228346458
20
-6.0610141732283465
11
9.528586377952756
21
-6.0647637007874016
0
LINE
8
BLACK
6
CONTINUOUS
10
9.528586377952756
20
-6.0647637007874016
11
9.5323359055118111
21
-6.0685132283464567
0
LINE
8
BLACK
6
CONTINUOUS
10
9.5323359055118111
20
-6.0685132283464567
11
9.5360854330708662
21
-6.0760122834645669
0
LINE
8
BLACK
6
CONTINUOUS
10
9.5360854330708662
20
-6.0760122834645669
11
9.5398349606299213
21
-6.0910103937007873
0
LINE
8
BLACK
6
CONTINUOUS
10
9.5398349606299213
20
-6.0910103937007873
11
9.5398349606299213
21
-6.1097580708661416
0
LINE
8
BLACK
6
CONTINUOUS
10
9.5398349606299213
20
-6.1097580708661416
11
9.5360854330708662
21
-6.1247561811023621
0
LINE
8
BLACK
6
CONTINUOUS
10
9.5360854330708662
20
-6.1247561811023621
11
9.5323359055118111
21
-6.1322552362204723
0
LINE
8
BLACK
6
CONTINUOUS
10
9.5323359055118111
20
-6.1322552362204723
11
9.528586377952756
21
-6.1360048031496062
0
LINE
8
BLACK
6
CONTINUOUS
10
9.528586377952756
20
-6.1360048031496062
11
9.5210873228346458
21
-6.1397543307086613
0
LINE
8
BLACK
6
CONTINUOUS
10
9.5210873228346458
20
-6.1397543307086613
11
9.5135882283464568
21
-6.1397543307086613
0
LINE
8
BLACK
6
CONTINUOUS
10
9.5135882283464568
20
-6.1397543307086613
11
9.5060891732283466
21
-6.1360048031496062
0
LINE
8
BLACK
6
CONTINUOUS
10
9.5060891732283466
20
-6.1360048031496062
11
9.5023396456692915
21
-6.1322552362204723
0
LINE
8
BLACK
6
CONTINUOUS
10
9.5023396456692915
20
-6.1322552362204723
11
9.4985901181102363
21
-6.1247561811023621
0
LINE
8
BLACK
6
CONTINUOUS
10
9.4985901181102363
20
-6.1247561811023621
11
9.4948405905511812
21
-6.1097580708661416
0
LINE
8
BLACK
6
CONTINUOUS
10
9.4948405905511812
20
-6.1097580708661416
11
9.4948405905511812
21
-6.0910103937007873
0
LINE
8
BLACK
6
CONTINUOUS
10
9.4948405905511812
20
-6.0910103937007873
11
9.4985901181102363
21
-6.0760122834645669
0
LINE
8
BLACK
6
CONTINUOUS
10
9.4985901181102363
20
-6.0760122834645669
11
9.5023396456692915
21
-6.0685132283464567
0
LINE
8
BLACK
6
CONTINUOUS
10
9.5023396456692915
20
-6.0685132283464567
11
9.5060891732283466
21
-6.0647637007874016
0
LINE
8
BLACK
6
CONTINUOUS
10
9.5060891732283466
20
-6.0647637007874016
11
9.5135882283464568
21
-6.0610141732283465
0
LINE
8
BLACK
6
CONTINUOUS
10
9.5735807480314961
20
-6.1322552362204723
11
9.5773302755905512
21
-6.1360048031496062
0
LINE
8
BLACK
6
CONTINUOUS
10
9.5773302755905512
20
-6.1360048031496062
11
9.5735807480314961
21
-6.1397543307086613
0
LINE
8
BLACK
6
CONTINUOUS
10
9.5735807480314961
20
-6.1397543307086613
11
9.5698312204724409
21
-6.1360048031496062
0
LINE
8
BLACK
6
CONTINUOUS
10
9.5698312204724409
20
-6.1360048031496062
11
9.5735807480314961
21
-6.1322552362204723
0
LINE
8
BLACK
6
CONTINUOUS
10
9.5735807480314961
20
-6.1322552362204723
11
9.5735807480314961
21
-6.1397543307086613
0
LINE
8
BLACK
6
CONTINUOUS
10
9.6523209055118109
20
-6.1397543307086613
11
9.6073265354330708
21
-6.1397543307086613
0
LINE
8
BLACK
6
CONTINUOUS
10
9.6298237007874015
20
-6.1397543307086613
11
9.6298237007874015
21
-6.0610141732283465
0
LINE
8
BLACK
6
CONTINUOUS
10
9.6298237007874015
20
-6.0610141732283465
11
9.6223246456692912
21
-6.0722627559055118
0
LINE
8
BLACK
6
CONTINUOUS
10
9.6223246456692912
20
-6.0722627559055118
11
9.614825590551181
21
-6.079761811023622
0
LINE
8
BLACK
6
CONTINUOUS
10
9.614825590551181
20
-6.079761811023622
11
9.6073265354330708
21
-6.0835113385826771
0
LINE
8
BLACK
6
CONTINUOUS
10
9.6785676377952754
20
-6.0610141732283465
11
9.7273115354330706
21
-6.0610141732283465
0
LINE
8
BLACK
6
CONTINUOUS
10
9.7273115354330706
20
-6.0610141732283465
11
9.7010648031496061
21
-6.0910103937007873
0
LINE
8
BLACK
6
CONTINUOUS
10
9.7010648031496061
20
-6.0910103937007873
11
9.7123134251968501
21
-6.0910103937007873
0
LINE
8
BLACK
6
CONTINUOUS
10
9.7123134251968501
20
-6.0910103937007873
11
9.7198124803149604
21
-6.0947599212598425
0
LINE
8
BLACK
6
CONTINUOUS
10
9.7198124803149604
20
-6.0947599212598425
11
9.7235620078740155
21
-6.0985094881889763
0
LINE
8
BLACK
6
CONTINUOUS
10
9.7235620078740155
20
-6.0985094881889763
11
9.7273115354330706
21
-6.1060085433070865
0
LINE
8
BLACK
6
CONTINUOUS
10
9.7273115354330706
20
-6.1060085433070865
11
9.7273115354330706
21
-6.1247561811023621
0
LINE
8
BLACK
6
CONTINUOUS
10
9.7273115354330706
20
-6.1247561811023621
11
9.7235620078740155
21
-6.1322552362204723
0
LINE
8
BLACK
6
CONTINUOUS
10
9.7235620078740155
20
-6.1322552362204723
11
9.7198124803149604
21
-6.1360048031496062
0
LINE
8
BLACK
6
CONTINUOUS
10
9.7198124803149604
20
-6.1360048031496062
11
9.7123134251968501
21
-6.1397543307086613
0
LINE
8
BLACK
6
CONTINUOUS
10
9.7123134251968501
20
-6.1397543307086613
11
9.6898162204724407
21
-6.1397543307086613
0
LINE
8
BLACK
6
CONTINUOUS
10
9.6898162204724407
20
-6.1397543307086613
11
9.6823171653543305
21
-6.1360048031496062
0
LINE
8
BLACK
6
CONTINUOUS
10
9.6823171653543305
20
-6.1360048031496062
11
9.6785676377952754
21
-6.1322552362204723
0
LINE
8
BLACK
6
CONTINUOUS
10
9.7535582677165351
20
-6.0610141732283465
11
9.8023021653543303
21
-6.0610141732283465
0
LINE
8
BLACK
6
CONTINUOUS
10
9.8023021653543303
20
-6.0610141732283465
11
9.7760554330708658
21
-6.0910103937007873
0
LINE
8
BLACK
6
CONTINUOUS
10
9.7760554330708658
20
-6.0910103937007873
11
9.7873040551181099
21
-6.0910103937007873
0
LINE
8
BLACK
6
CONTINUOUS
10
9.7873040551181099
20
-6.0910103937007873
11
9.7948031102362201
21
-6.0947599212598425
0
LINE
8
BLACK
6
CONTINUOUS
10
9.7948031102362201
20
-6.0947599212598425
11
9.7985526377952752
21
-6.0985094881889763
0
LINE
8
BLACK
6
CONTINUOUS
10
9.7985526377952752
20
-6.0985094881889763
11
9.8023021653543303
21
-6.1060085433070865
0
LINE
8
BLACK
6
CONTINUOUS
10
9.8023021653543303
20
-6.1060085433070865
11
9.8023021653543303
21
-6.1247561811023621
0
LINE
8
BLACK
6
CONTINUOUS
10
9.8023021653543303
20
-6.1247561811023621
11
9.7985526377952752
21
-6.1322552362204723
0
LINE
8
BLACK
6
CONTINUOUS
10
9.7985526377952752
20
-6.1322552362204723
11
9.7948031102362201
21
-6.1360048031496062
0
LINE
8
BLACK
6
CONTINUOUS
10
9.7948031102362201
20
-6.1360048031496062
11
9.7873040551181099
21
-6.1397543307086613
0
LINE
8
BLACK
6
CONTINUOUS
10
9.7873040551181099
20
-6.1397543307086613
11
9.7648068503937004
21
-6.1397543307086613
0
LINE
8
BLACK
6
CONTINUOUS
10
9.7648068503937004
20
-6.1397543307086613
11
9.7573077952755902
21
-6.1360048031496062
0
LINE
8
BLACK
6
CONTINUOUS
10
9.7573077952755902
20
-6.1360048031496062
11
9.7535582677165351
21
-6.1322552362204723
0
LINE
8
BLACK
6
CONTINUOUS
10
9.8397974803149602
20
-6.1397543307086613
11
9.8547955905511806
21
-6.1397543307086613
0
LINE
8
BLACK
6
CONTINUOUS
10
9.8547955905511806
20
-6.1397543307086613
11
9.8622946850393696
21
-6.1360048031496062
0
LINE
8
BLACK
6
CONTINUOUS
10
9.8622946850393696
20
-6.1360048031496062
11
9.8660442125984247
21
-6.1322552362204723
0
LINE
8
BLACK
6
CONTINUOUS
10
9.8660442125984247
20
-6.1322552362204723
11
9.8735432677165349
21
-6.121006653543307
0
LINE
8
BLACK
6
CONTINUOUS
10
9.8735432677165349
20
-6.121006653543307
11
9.87729279527559
21
-6.1060085433070865
0
LINE
8
BLACK
6
CONTINUOUS
10
9.87729279527559
20
-6.1060085433070865
11
9.87729279527559
21
-6.0760122834645669
0
LINE
8
BLACK
6
CONTINUOUS
10
9.87729279527559
20
-6.0760122834645669
11
9.8735432677165349
21
-6.0685132283464567
0
LINE
8
BLACK
6
CONTINUOUS
10
9.8735432677165349
20
-6.0685132283464567
11
9.8697937401574798
21
-6.0647637007874016
0
LINE
8
BLACK
6
CONTINUOUS
10
9.8697937401574798
20
-6.0647637007874016
11
9.8622946850393696
21
-6.0610141732283465
0
LINE
8
BLACK
6
CONTINUOUS
10
9.8622946850393696
20
-6.0610141732283465
11
9.8472965354330704
21
-6.0610141732283465
0
LINE
8
BLACK
6
CONTINUOUS
10
9.8472965354330704
20
-6.0610141732283465
11
9.8397974803149602
21
-6.0647637007874016
0
LINE
8
BLACK
6
CONTINUOUS
10
9.8397974803149602
20
-6.0647637007874016
11
9.836047952755905
21
-6.0685132283464567
0
LINE
8
BLACK
6
CONTINUOUS
10
9.836047952755905
20
-6.0685132283464567
11
9.8322984251968499
21
-6.0760122834645669
0
LINE
8
BLACK
6
CONTINUOUS
10
9.8322984251968499
20
-6.0760122834645669
11
9.8322984251968499
21
-6.0947599212598425
0
LINE
8
BLACK
6
CONTINUOUS
10
9.8322984251968499
20
-6.0947599212598425
11
9.836047952755905
21
-6.1022590157480314
0
LINE
8
BLACK
6
CONTINUOUS
10
9.836047952755905
20
-6.1022590157480314
11
9.8397974803149602
21
-6.1060085433070865
0
LINE
8
BLACK
6
CONTINUOUS
10
9.8397974803149602
20
-6.1060085433070865
11
9.8472965354330704
21
-6.1097580708661416
0
LINE
8
BLACK
6
CONTINUOUS
10
9.8472965354330704
20
-6.1097580708661416
11
9.8622946850393696
21
-6.1097580708661416
0
LINE
8
BLACK
6
CONTINUOUS
10
9.8622946850393696
20
-6.1097580708661416
11
9.8697937401574798
21
-6.1060085433070865
0
LINE
8
BLACK
6
CONTINUOUS
10
9.8697937401574798
20
-6.1060085433070865
11
9.8735432677165349
21
-6.1022590157480314
0
LINE
8
BLACK
6
CONTINUOUS
10
9.8735432677165349
20
-6.1022590157480314
11
9.87729279527559
21
-6.0947599212598425
0
LINE
8
BLACK
6
CONTINUOUS
10
9.9072890551181096
20
-6.0610141732283465
11
9.9072890551181096
21
-6.0760122834645669
0
LINE
8
BLACK
6
CONTINUOUS
10
9.9372853149606293
20
-6.0610141732283465
11
9.9372853149606293
21
-6.0760122834645669
0
LINE
8
BLACK
6
CONTINUOUS
10
10.0535208267716527
20
-6.1697505511811022
11
10.0497712598425188
21
-6.1660010236220471
0
LINE
8
BLACK
6
CONTINUOUS
10
10.0497712598425188
20
-6.1660010236220471
11
10.0422722047244086
21
-6.1547524409448817
0
LINE
8
BLACK
6
CONTINUOUS
10
10.0422722047244086
20
-6.1547524409448817
11
10.0385226771653535
21
-6.1472533858267715
0
LINE
8
BLACK
6
CONTINUOUS
10
10.0385226771653535
20
-6.1472533858267715
11
10.0347731496062984
21
-6.1360048031496062
0
LINE
8
BLACK
6
CONTINUOUS
10
10.0347731496062984
20
-6.1360048031496062
11
10.0310236220472433
21
-6.1172571259842519
0
LINE
8
BLACK
6
CONTINUOUS
10
10.0310236220472433
20
-6.1172571259842519
11
10.0310236220472433
21
-6.1022590157480314
0
LINE
8
BLACK
6
CONTINUOUS
10
10.0310236220472433
20
-6.1022590157480314
11
10.0347731496062984
21
-6.0835113385826771
0
LINE
8
BLACK
6
CONTINUOUS
10
10.0347731496062984
20
-6.0835113385826771
11
10.0385226771653535
21
-6.0722627559055118
0
LINE
8
BLACK
6
CONTINUOUS
10
10.0385226771653535
20
-6.0722627559055118
11
10.0422722047244086
21
-6.0647637007874016
0
LINE
8
BLACK
6
CONTINUOUS
10
10.0422722047244086
20
-6.0647637007874016
11
10.0497712598425188
21
-6.0535150787401575
0
LINE
8
BLACK
6
CONTINUOUS
10
10.0497712598425188
20
-6.0535150787401575
11
10.0535208267716527
21
-6.0497655511811024
0
LINE
8
BLACK
6
CONTINUOUS
10
10.0797675196850385
20
-6.0685132283464567
11
10.0835170472440936
21
-6.0647637007874016
0
LINE
8
BLACK
6
CONTINUOUS
10
10.0835170472440936
20
-6.0647637007874016
11
10.0910161023622038
21
-6.0610141732283465
0
LINE
8
BLACK
6
CONTINUOUS
10
10.0910161023622038
20
-6.0610141732283465
11
10.1097637795275581
21
-6.0610141732283465
0
LINE
8
BLACK
6
CONTINUOUS
10
10.1097637795275581
20
-6.0610141732283465
11
10.1172628346456683
21
-6.0647637007874016
0
LINE
8
BLACK
6
CONTINUOUS
10
10.1172628346456683
20
-6.0647637007874016
11
10.1210123622047234
21
-6.0685132283464567
0
LINE
8
BLACK
6
CONTINUOUS
10
10.1210123622047234
20
-6.0685132283464567
11
10.1247618897637786
21
-6.0760122834645669
0
LINE
8
BLACK
6
CONTINUOUS
10
10.1247618897637786
20
-6.0760122834645669
11
10.1247618897637786
21
-6.0835113385826771
0
LINE
8
BLACK
6
CONTINUOUS
10
10.1247618897637786
20
-6.0835113385826771
11
10.1210123622047234
21
-6.0947599212598425
0
LINE
8
BLACK
6
CONTINUOUS
10
10.1210123622047234
20
-6.0947599212598425
11
10.0760179921259834
21
-6.1397543307086613
0
LINE
8
BLACK
6
CONTINUOUS
10
10.0760179921259834
20
-6.1397543307086613
11
10.1247618897637786
21
-6.1397543307086613
0
LINE
8
BLACK
6
CONTINUOUS
10
10.2185001968503943
20
-6.1397543307086613
11
10.2185001968503943
21
-6.0610141732283465
0
LINE
8
BLACK
6
CONTINUOUS
10
10.2522459842519691
20
-6.1397543307086613
11
10.2522459842519691
21
-6.0985094881889763
0
LINE
8
BLACK
6
CONTINUOUS
10
10.2522459842519691
20
-6.0985094881889763
11
10.248496456692914
21
-6.0910103937007873
0
LINE
8
BLACK
6
CONTINUOUS
10
10.248496456692914
20
-6.0910103937007873
11
10.2409974015748038
21
-6.0872608661417322
0
LINE
8
BLACK
6
CONTINUOUS
10
10.2409974015748038
20
-6.0872608661417322
11
10.2297487795275597
21
-6.0872608661417322
0
LINE
8
BLACK
6
CONTINUOUS
10
10.2297487795275597
20
-6.0872608661417322
11
10.2222497244094495
21
-6.0910103937007873
0
LINE
8
BLACK
6
CONTINUOUS
10
10.2222497244094495
20
-6.0910103937007873
11
10.2185001968503943
21
-6.0947599212598425
0
LINE
8
BLACK
6
CONTINUOUS
10
10.3009898818897643
20
-6.1397543307086613
11
10.2934908267716541
21
-6.1360048031496062
0
LINE
8
BLACK
6
CONTINUOUS
10
10.2934908267716541
20
-6.1360048031496062
11
10.2897412992125989
21
-6.1322552362204723
0
LINE
8
BLACK
6
CONTINUOUS
10
10.2897412992125989
20
-6.1322552362204723
11
10.2859917716535438
21
-6.1247561811023621
0
LINE
8
BLACK
6
CONTINUOUS
10
10.2859917716535438
20
-6.1247561811023621
11
10.2859917716535438
21
-6.1022590157480314
0
LINE
8
BLACK
6
CONTINUOUS
10
10.2859917716535438
20
-6.1022590157480314
11
10.2897412992125989
21
-6.0947599212598425
0
LINE
8
BLACK
6
CONTINUOUS
10
10.2897412992125989
20
-6.0947599212598425
11
10.2934908267716541
21
-6.0910103937007873
0
LINE
8
BLACK
6
CONTINUOUS
10
10.2934908267716541
20
-6.0910103937007873
11
10.3009898818897643
21
-6.0872608661417322
0
LINE
8
BLACK
6
CONTINUOUS
10
10.3009898818897643
20
-6.0872608661417322
11
10.3122385039370084
21
-6.0872608661417322
0
LINE
8
BLACK
6
CONTINUOUS
10
10.3122385039370084
20
-6.0872608661417322
11
10.3197375590551186
21
-6.0910103937007873
0
LINE
8
BLACK
6
CONTINUOUS
10
10.3197375590551186
20
-6.0910103937007873
11
10.3234870866141737
21
-6.0947599212598425
0
LINE
8
BLACK
6
CONTINUOUS
10
10.3234870866141737
20
-6.0947599212598425
11
10.3272366141732288
21
-6.1022590157480314
0
LINE
8
BLACK
6
CONTINUOUS
10
10.3272366141732288
20
-6.1022590157480314
11
10.3272366141732288
21
-6.1247561811023621
0
LINE
8
BLACK
6
CONTINUOUS
10
10.3272366141732288
20
-6.1247561811023621
11
10.3234870866141737
21
-6.1322552362204723
0
LINE
8
BLACK
6
CONTINUOUS
10
10.3234870866141737
20
-6.1322552362204723
11
10.3197375590551186
21
-6.1360048031496062
0
LINE
8
BLACK
6
CONTINUOUS
10
10.3197375590551186
20
-6.1360048031496062
11
10.3122385039370084
21
-6.1397543307086613
0
LINE
8
BLACK
6
CONTINUOUS
10
10.3122385039370084
20
-6.1397543307086613
11
10.3009898818897643
21
-6.1397543307086613
0
LINE
8
BLACK
6
CONTINUOUS
10
10.3722309842519689
20
-6.1397543307086613
11
10.3647319291338587
21
-6.1360048031496062
0
LINE
8
BLACK
6
CONTINUOUS
10
10.3647319291338587
20
-6.1360048031496062
11
10.3609824015748035
21
-6.1285057086614172
0
LINE
8
BLACK
6
CONTINUOUS
10
10.3609824015748035
20
-6.1285057086614172
11
10.3609824015748035
21
-6.0610141732283465
0
LINE
8
BLACK
6
CONTINUOUS
10
10.4322235039370081
20
-6.1360048031496062
11
10.4247244488188979
21
-6.1397543307086613
0
LINE
8
BLACK
6
CONTINUOUS
10
10.4247244488188979
20
-6.1397543307086613
11
10.4097262992125987
21
-6.1397543307086613
0
LINE
8
BLACK
6
CONTINUOUS
10
10.4097262992125987
20
-6.1397543307086613
11
10.4022272440944885
21
-6.1360048031496062
0
LINE
8
BLACK
6
CONTINUOUS
10
10.4022272440944885
20
-6.1360048031496062
11
10.3984777165354334
21
-6.1285057086614172
0
LINE
8
BLACK
6
CONTINUOUS
10
10.3984777165354334
20
-6.1285057086614172
11
10.3984777165354334
21
-6.0985094881889763
0
LINE
8
BLACK
6
CONTINUOUS
10
10.3984777165354334
20
-6.0985094881889763
11
10.4022272440944885
21
-6.0910103937007873
0
LINE
8
BLACK
6
CONTINUOUS
10
10.4022272440944885
20
-6.0910103937007873
11
10.4097262992125987
21
-6.0872608661417322
0
LINE
8
BLACK
6
CONTINUOUS
10
10.4097262992125987
20
-6.0872608661417322
11
10.4247244488188979
21
-6.0872608661417322
0
LINE
8
BLACK
6
CONTINUOUS
10
10.4247244488188979
20
-6.0872608661417322
11
10.4322235039370081
21
-6.0910103937007873
0
LINE
8
BLACK
6
CONTINUOUS
10
10.4322235039370081
20
-6.0910103937007873
11
10.4359730314960633
21
-6.0985094881889763
0
LINE
8
BLACK
6
CONTINUOUS
10
10.4359730314960633
20
-6.0985094881889763
11
10.4359730314960633
21
-6.1060085433070865
0
LINE
8
BLACK
6
CONTINUOUS
10
10.4359730314960633
20
-6.1060085433070865
11
10.3984777165354334
21
-6.1135075984251968
0
LINE
8
BLACK
6
CONTINUOUS
10
10.4659692913385829
20
-6.1360048031496062
11
10.4734683464566931
21
-6.1397543307086613
0
LINE
8
BLACK
6
CONTINUOUS
10
10.4734683464566931
20
-6.1397543307086613
11
10.4884664566929136
21
-6.1397543307086613
0
LINE
8
BLACK
6
CONTINUOUS
10
10.4884664566929136
20
-6.1397543307086613
11
10.4959655511811025
21
-6.1360048031496062
0
LINE
8
BLACK
6
CONTINUOUS
10
10.4959655511811025
20
-6.1360048031496062
11
10.4997150787401576
21
-6.1285057086614172
0
LINE
8
BLACK
6
CONTINUOUS
10
10.4997150787401576
20
-6.1285057086614172
11
10.4997150787401576
21
-6.1247561811023621
0
LINE
8
BLACK
6
CONTINUOUS
10
10.4997150787401576
20
-6.1247561811023621
11
10.4959655511811025
21
-6.1172571259842519
0
LINE
8
BLACK
6
CONTINUOUS
10
10.4959655511811025
20
-6.1172571259842519
11
10.4884664566929136
21
-6.1135075984251968
0
LINE
8
BLACK
6
CONTINUOUS
10
10.4884664566929136
20
-6.1135075984251968
11
10.4772178740157482
21
-6.1135075984251968
0
LINE
8
BLACK
6
CONTINUOUS
10
10.4772178740157482
20
-6.1135075984251968
11
10.469718818897638
21
-6.1097580708661416
0
LINE
8
BLACK
6
CONTINUOUS
10
10.469718818897638
20
-6.1097580708661416
11
10.4659692913385829
21
-6.1022590157480314
0
LINE
8
BLACK
6
CONTINUOUS
10
10.4659692913385829
20
-6.1022590157480314
11
10.4659692913385829
21
-6.0985094881889763
0
LINE
8
BLACK
6
CONTINUOUS
10
10.4659692913385829
20
-6.0985094881889763
11
10.469718818897638
21
-6.0910103937007873
0
LINE
8
BLACK
6
CONTINUOUS
10
10.469718818897638
20
-6.0910103937007873
11
10.4772178740157482
21
-6.0872608661417322
0
LINE
8
BLACK
6
CONTINUOUS
10
10.4772178740157482
20
-6.0872608661417322
11
10.4884664566929136
21
-6.0872608661417322
0
LINE
8
BLACK
6
CONTINUOUS
10
10.4884664566929136
20
-6.0872608661417322
11
10.4959655511811025
21
-6.0910103937007873
0
LINE
8
BLACK
6
CONTINUOUS
10
10.5259618110236222
20
-6.1697505511811022
11
10.5297113385826773
21
-6.1660010236220471
0
LINE
8
BLACK
6
CONTINUOUS
10
10.5297113385826773
20
-6.1660010236220471
11
10.5372103937007875
21
-6.1547524409448817
0
LINE
8
BLACK
6
CONTINUOUS
10
10.5372103937007875
20
-6.1547524409448817
11
10.5409599212598426
21
-6.1472533858267715
0
LINE
8
BLACK
6
CONTINUOUS
10
10.5409599212598426
20
-6.1472533858267715
11
10.5447094488188977
21
-6.1360048031496062
0
LINE
8
BLACK
6
CONTINUOUS
10
10.5447094488188977
20
-6.1360048031496062
11
10.5484589763779528
21
-6.1172571259842519
0
LINE
8
BLACK
6
CONTINUOUS
10
10.5484589763779528
20
-6.1172571259842519
11
10.5484589763779528
21
-6.1022590157480314
0
LINE
8
BLACK
6
CONTINUOUS
10
10.5484589763779528
20
-6.1022590157480314
11
10.5447094488188977
21
-6.0835113385826771
0
LINE
8
BLACK
6
CONTINUOUS
10
10.5447094488188977
20
-6.0835113385826771
11
10.5409599212598426
21
-6.0722627559055118
0
LINE
8
BLACK
6
CONTINUOUS
10
10.5409599212598426
20
-6.0722627559055118
11
10.5372103937007875
21
-6.0647637007874016
0
LINE
8
BLACK
6
CONTINUOUS
10
10.5372103937007875
20
-6.0647637007874016
11
10.5297113385826773
21
-6.0535150787401575
0
LINE
8
BLACK
6
CONTINUOUS
10
10.5297113385826773
20
-6.0535150787401575
11
10.5259618110236222
21
-6.0497655511811024
0
LINE
8
BLACK
6
CONTINUOUS
10
10.6684440157480314
20
-6.1697505511811022
11
10.6646944488188975
21
-6.1660010236220471
0
LINE
8
BLACK
6
CONTINUOUS
10
10.6646944488188975
20
-6.1660010236220471
11
10.6571953937007873
21
-6.1547524409448817
0
LINE
8
BLACK
6
CONTINUOUS
10
10.6571953937007873
20
-6.1547524409448817
11
10.6534458661417322
21
-6.1472533858267715
0
LINE
8
BLACK
6
CONTINUOUS
10
10.6534458661417322
20
-6.1472533858267715
11
10.6496963385826771
21
-6.1360048031496062
0
LINE
8
BLACK
6
CONTINUOUS
10
10.6496963385826771
20
-6.1360048031496062
11
10.6459468110236219
21
-6.1172571259842519
0
LINE
8
BLACK
6
CONTINUOUS
10
10.6459468110236219
20
-6.1172571259842519
11
10.6459468110236219
21
-6.1022590157480314
0
LINE
8
BLACK
6
CONTINUOUS
10
10.6459468110236219
20
-6.1022590157480314
11
10.6496963385826771
21
-6.0835113385826771
0
LINE
8
BLACK
6
CONTINUOUS
10
10.6496963385826771
20
-6.0835113385826771
11
10.6534458661417322
21
-6.0722627559055118
0
LINE
8
BLACK
6
CONTINUOUS
10
10.6534458661417322
20
-6.0722627559055118
11
10.6571953937007873
21
-6.0647637007874016
0
LINE
8
BLACK
6
CONTINUOUS
10
10.6571953937007873
20
-6.0647637007874016
11
10.6646944488188975
21
-6.0535150787401575
0
LINE
8
BLACK
6
CONTINUOUS
10
10.6646944488188975
20
-6.0535150787401575
11
10.6684440157480314
21
-6.0497655511811024
0
LINE
8
BLACK
6
CONTINUOUS
10
10.6984402362204722
20
-6.0872608661417322
11
10.6984402362204722
21
-6.1397543307086613
0
LINE
8
BLACK
6
CONTINUOUS
10
10.6984402362204722
20
-6.0947599212598425
11
10.7021897637795274
21
-6.0910103937007873
0
LINE
8
BLACK
6
CONTINUOUS
10
10.7021897637795274
20
-6.0910103937007873
11
10.7096888188976376
21
-6.0872608661417322
0
LINE
8
BLACK
6
CONTINUOUS
10
10.7096888188976376
20
-6.0872608661417322
11
10.7209374409448817
21
-6.0872608661417322
0
LINE
8
BLACK
6
CONTINUOUS
10
10.7209374409448817
20
-6.0872608661417322
11
10.7284364960629919
21
-6.0910103937007873
0
LINE
8
BLACK
6
CONTINUOUS
10
10.7284364960629919
20
-6.0910103937007873
11
10.732186023622047
21
-6.0985094881889763
0
LINE
8
BLACK
6
CONTINUOUS
10
10.732186023622047
20
-6.0985094881889763
11
10.732186023622047
21
-6.1397543307086613
0
LINE
8
BLACK
6
CONTINUOUS
10
10.7809299212598422
20
-6.1397543307086613
11
10.773430866141732
21
-6.1360048031496062
0
LINE
8
BLACK
6
CONTINUOUS
10
10.773430866141732
20
-6.1360048031496062
11
10.7696813385826768
21
-6.1322552362204723
0
LINE
8
BLACK
6
CONTINUOUS
10
10.7696813385826768
20
-6.1322552362204723
11
10.7659318110236217
21
-6.1247561811023621
0
LINE
8
BLACK
6
CONTINUOUS
10
10.7659318110236217
20
-6.1247561811023621
11
10.7659318110236217
21
-6.1022590157480314
0
LINE
8
BLACK
6
CONTINUOUS
10
10.7659318110236217
20
-6.1022590157480314
11
10.7696813385826768
21
-6.0947599212598425
0
LINE
8
BLACK
6
CONTINUOUS
10
10.7696813385826768
20
-6.0947599212598425
11
10.773430866141732
21
-6.0910103937007873
0
LINE
8
BLACK
6
CONTINUOUS
10
10.773430866141732
20
-6.0910103937007873
11
10.7809299212598422
21
-6.0872608661417322
0
LINE
8
BLACK
6
CONTINUOUS
10
10.7809299212598422
20
-6.0872608661417322
11
10.7921785433070863
21
-6.0872608661417322
0
LINE
8
BLACK
6
CONTINUOUS
10
10.7921785433070863
20
-6.0872608661417322
11
10.7996775984251965
21
-6.0910103937007873
0
LINE
8
BLACK
6
CONTINUOUS
10
10.7996775984251965
20
-6.0910103937007873
11
10.8034271259842516
21
-6.0947599212598425
0
LINE
8
BLACK
6
CONTINUOUS
10
10.8034271259842516
20
-6.0947599212598425
11
10.8071766535433067
21
-6.1022590157480314
0
LINE
8
BLACK
6
CONTINUOUS
10
10.8071766535433067
20
-6.1022590157480314
11
10.8071766535433067
21
-6.1247561811023621
0
LINE
8
BLACK
6
CONTINUOUS
10
10.8071766535433067
20
-6.1247561811023621
11
10.8034271259842516
21
-6.1322552362204723
0
LINE
8
BLACK
6
CONTINUOUS
10
10.8034271259842516
20
-6.1322552362204723
11
10.7996775984251965
21
-6.1360048031496062
0
LINE
8
BLACK
6
CONTINUOUS
10
10.7996775984251965
20
-6.1360048031496062
11
10.7921785433070863
21
-6.1397543307086613
0
LINE
8
BLACK
6
CONTINUOUS
10
10.7921785433070863
20
-6.1397543307086613
11
10.7809299212598422
21
-6.1397543307086613
0
LINE
8
BLACK
6
CONTINUOUS
10
10.8296738582677161
20
-6.0872608661417322
11
10.859670078740157
21
-6.0872608661417322
0
LINE
8
BLACK
6
CONTINUOUS
10
10.8409224409448814
20
-6.0610141732283465
11
10.8409224409448814
21
-6.1285057086614172
0
LINE
8
BLACK
6
CONTINUOUS
10
10.8409224409448814
20
-6.1285057086614172
11
10.8446719685039366
21
-6.1360048031496062
0
LINE
8
BLACK
6
CONTINUOUS
10
10.8446719685039366
20
-6.1360048031496062
11
10.8521710236220468
21
-6.1397543307086613
0
LINE
8
BLACK
6
CONTINUOUS
10
10.8521710236220468
20
-6.1397543307086613
11
10.859670078740157
21
-6.1397543307086613
0
LINE
8
BLACK
6
CONTINUOUS
10
10.9459093307086608
20
-6.0872608661417322
11
10.9459093307086608
21
-6.1660010236220471
0
LINE
8
BLACK
6
CONTINUOUS
10
10.9459093307086608
20
-6.0910103937007873
11
10.953408385826771
21
-6.0872608661417322
0
LINE
8
BLACK
6
CONTINUOUS
10
10.953408385826771
20
-6.0872608661417322
11
10.9684065354330702
21
-6.0872608661417322
0
LINE
8
BLACK
6
CONTINUOUS
10
10.9684065354330702
20
-6.0872608661417322
11
10.9759055905511804
21
-6.0910103937007873
0
LINE
8
BLACK
6
CONTINUOUS
10
10.9759055905511804
20
-6.0910103937007873
11
10.9796551181102355
21
-6.0947599212598425
0
LINE
8
BLACK
6
CONTINUOUS
10
10.9796551181102355
20
-6.0947599212598425
11
10.9834046456692906
21
-6.1022590157480314
0
LINE
8
BLACK
6
CONTINUOUS
10
10.9834046456692906
20
-6.1022590157480314
11
10.9834046456692906
21
-6.1247561811023621
0
LINE
8
BLACK
6
CONTINUOUS
10
10.9834046456692906
20
-6.1247561811023621
11
10.9796551181102355
21
-6.1322552362204723
0
LINE
8
BLACK
6
CONTINUOUS
10
10.9796551181102355
20
-6.1322552362204723
11
10.9759055905511804
21
-6.1360048031496062
0
LINE
8
BLACK
6
CONTINUOUS
10
10.9759055905511804
20
-6.1360048031496062
11
10.9684065354330702
21
-6.1397543307086613
0
LINE
8
BLACK
6
CONTINUOUS
10
10.9684065354330702
20
-6.1397543307086613
11
10.953408385826771
21
-6.1397543307086613
0
LINE
8
BLACK
6
CONTINUOUS
10
10.953408385826771
20
-6.1397543307086613
11
10.9459093307086608
21
-6.1360048031496062
0
LINE
8
BLACK
6
CONTINUOUS
10
11.0283990157480307
20
-6.1397543307086613
11
11.0208999606299205
21
-6.1360048031496062
0
LINE
8
BLACK
6
CONTINUOUS
10
11.0208999606299205
20
-6.1360048031496062
11
11.0171504330708654
21
-6.1285057086614172
0
LINE
8
BLACK
6
CONTINUOUS
10
11.0171504330708654
20
-6.1285057086614172
11
11.0171504330708654
21
-6.0610141732283465
0
LINE
8
BLACK
6
CONTINUOUS
10
11.0921410629921251
20
-6.1397543307086613
11
11.0921410629921251
21
-6.0985094881889763
0
LINE
8
BLACK
6
CONTINUOUS
10
11.0921410629921251
20
-6.0985094881889763
11
11.08839153543307
21
-6.0910103937007873
0
LINE
8
BLACK
6
CONTINUOUS
10
11.08839153543307
20
-6.0910103937007873
11
11.0808924803149598
21
-6.0872608661417322
0
LINE
8
BLACK
6
CONTINUOUS
10
11.0808924803149598
20
-6.0872608661417322
11
11.0658943307086606
21
-6.0872608661417322
0
LINE
8
BLACK
6
CONTINUOUS
10
11.0658943307086606
20
-6.0872608661417322
11
11.0583952755905504
21
-6.0910103937007873
0
LINE
8
BLACK
6
CONTINUOUS
10
11.0921410629921251
20
-6.1360048031496062
11
11.0846420078740149
21
-6.1397543307086613
0
LINE
8
BLACK
6
CONTINUOUS
10
11.0846420078740149
20
-6.1397543307086613
11
11.0658943307086606
21
-6.1397543307086613
0
LINE
8
BLACK
6
CONTINUOUS
10
11.0658943307086606
20
-6.1397543307086613
11
11.0583952755905504
21
-6.1360048031496062
0
LINE
8
BLACK
6
CONTINUOUS
10
11.0583952755905504
20
-6.1360048031496062
11
11.0546457480314952
21
-6.1285057086614172
0
LINE
8
BLACK
6
CONTINUOUS
10
11.0546457480314952
20
-6.1285057086614172
11
11.0546457480314952
21
-6.121006653543307
0
LINE
8
BLACK
6
CONTINUOUS
10
11.0546457480314952
20
-6.121006653543307
11
11.0583952755905504
21
-6.1135075984251968
0
LINE
8
BLACK
6
CONTINUOUS
10
11.0583952755905504
20
-6.1135075984251968
11
11.0658943307086606
21
-6.1097580708661416
0
LINE
8
BLACK
6
CONTINUOUS
10
11.0658943307086606
20
-6.1097580708661416
11
11.0846420078740149
21
-6.1097580708661416
0
LINE
8
BLACK
6
CONTINUOUS
10
11.0846420078740149
20
-6.1097580708661416
11
11.0921410629921251
21
-6.1060085433070865
0
LINE
8
BLACK
6
CONTINUOUS
10
11.1183877952755896
20
-6.0872608661417322
11
11.1483840157480305
21
-6.0872608661417322
0
LINE
8
BLACK
6
CONTINUOUS
10
11.129636377952755
20
-6.0610141732283465
11
11.129636377952755
21
-6.1285057086614172
0
LINE
8
BLACK
6
CONTINUOUS
10
11.129636377952755
20
-6.1285057086614172
11
11.1333859055118101
21
-6.1360048031496062
0
LINE
8
BLACK
6
CONTINUOUS
10
11.1333859055118101
20
-6.1360048031496062
11
11.1408849606299203
21
-6.1397543307086613
0
LINE
8
BLACK
6
CONTINUOUS
10
11.1408849606299203
20
-6.1397543307086613
11
11.1483840157480305
21
-6.1397543307086613
0
LINE
8
BLACK
6
CONTINUOUS
10
11.2046270078740147
20
-6.1360048031496062
11
11.1971279527559044
21
-6.1397543307086613
0
LINE
8
BLACK
6
CONTINUOUS
10
11.1971279527559044
20
-6.1397543307086613
11
11.1821298031496053
21
-6.1397543307086613
0
LINE
8
BLACK
6
CONTINUOUS
10
11.1821298031496053
20
-6.1397543307086613
11
11.174630748031495
21
-6.1360048031496062
0
LINE
8
BLACK
6
CONTINUOUS
10
11.174630748031495
20
-6.1360048031496062
11
11.1708812204724399
21
-6.1285057086614172
0
LINE
8
BLACK
6
CONTINUOUS
10
11.1708812204724399
20
-6.1285057086614172
11
11.1708812204724399
21
-6.0985094881889763
0
LINE
8
BLACK
6
CONTINUOUS
10
11.1708812204724399
20
-6.0985094881889763
11
11.174630748031495
21
-6.0910103937007873
0
LINE
8
BLACK
6
CONTINUOUS
10
11.174630748031495
20
-6.0910103937007873
11
11.1821298031496053
21
-6.0872608661417322
0
LINE
8
BLACK
6
CONTINUOUS
10
11.1821298031496053
20
-6.0872608661417322
11
11.1971279527559044
21
-6.0872608661417322
0
LINE
8
BLACK
6
CONTINUOUS
10
11.1971279527559044
20
-6.0872608661417322
11
11.2046270078740147
21
-6.0910103937007873
0
LINE
8
BLACK
6
CONTINUOUS
10
11.2046270078740147
20
-6.0910103937007873
11
11.2083765354330698
21
-6.0985094881889763
0
LINE
8
BLACK
6
CONTINUOUS
10
11.2083765354330698
20
-6.0985094881889763
11
11.2083765354330698
21
-6.1060085433070865
0
LINE
8
BLACK
6
CONTINUOUS
10
11.2083765354330698
20
-6.1060085433070865
11
11.1708812204724399
21
-6.1135075984251968
0
LINE
8
BLACK
6
CONTINUOUS
10
11.275868110236221
20
-6.1397543307086613
11
11.275868110236221
21
-6.0610141732283465
0
LINE
8
BLACK
6
CONTINUOUS
10
11.275868110236221
20
-6.1360048031496062
11
11.2683690551181108
21
-6.1397543307086613
0
LINE
8
BLACK
6
CONTINUOUS
10
11.2683690551181108
20
-6.1397543307086613
11
11.2533709055118116
21
-6.1397543307086613
0
LINE
8
BLACK
6
CONTINUOUS
10
11.2533709055118116
20
-6.1397543307086613
11
11.2458718503937014
21
-6.1360048031496062
0
LINE
8
BLACK
6
CONTINUOUS
10
11.2458718503937014
20
-6.1360048031496062
11
11.2421223228346463
21
-6.1322552362204723
0
LINE
8
BLACK
6
CONTINUOUS
10
11.2421223228346463
20
-6.1322552362204723
11
11.2383727952755894
21
-6.1247561811023621
0
LINE
8
BLACK
6
CONTINUOUS
10
11.2383727952755894
20
-6.1247561811023621
11
11.2383727952755894
21
-6.1022590157480314
0
LINE
8
BLACK
6
CONTINUOUS
10
11.2383727952755894
20
-6.1022590157480314
11
11.2421223228346463
21
-6.0947599212598425
0
LINE
8
BLACK
6
CONTINUOUS
10
11.2421223228346463
20
-6.0947599212598425
11
11.2458718503937014
21
-6.0910103937007873
0
LINE
8
BLACK
6
CONTINUOUS
10
11.2458718503937014
20
-6.0910103937007873
11
11.2533709055118116
21
-6.0872608661417322
0
LINE
8
BLACK
6
CONTINUOUS
10
11.2533709055118116
20
-6.0872608661417322
11
11.2683690551181108
21
-6.0872608661417322
0
LINE
8
BLACK
6
CONTINUOUS
10
11.2683690551181108
20
-6.0872608661417322
11
11.275868110236221
21
-6.0910103937007873
0
LINE
8
BLACK
6
CONTINUOUS
10
11.3058643700787407
20
-6.1697505511811022
11
11.3096138976377958
21
-6.1660010236220471
0
LINE
8
BLACK
6
CONTINUOUS
10
11.3096138976377958
20
-6.1660010236220471
11
11.317112952755906
21
-6.1547524409448817
0
LINE
8
BLACK
6
CONTINUOUS
10
11.317112952755906
20
-6.1547524409448817
11
11.3208624803149611
21
-6.1472533858267715
0
LINE
8
BLACK
6
CONTINUOUS
10
11.3208624803149611
20
-6.1472533858267715
11
11.3246120078740162
21
-6.1360048031496062
0
LINE
8
BLACK
6
CONTINUOUS
10
11.3246120078740162
20
-6.1360048031496062
11
11.3283615354330713
21
-6.1172571259842519
0
LINE
8
BLACK
6
CONTINUOUS
10
11.3283615354330713
20
-6.1172571259842519
11
11.3283615354330713
21
-6.1022590157480314
0
LINE
8
BLACK
6
CONTINUOUS
10
11.3283615354330713
20
-6.1022590157480314
11
11.3246120078740162
21
-6.0835113385826771
0
LINE
8
BLACK
6
CONTINUOUS
10
11.3246120078740162
20
-6.0835113385826771
11
11.3208624803149611
21
-6.0722627559055118
0
LINE
8
BLACK
6
CONTINUOUS
10
11.3208624803149611
20
-6.0722627559055118
11
11.317112952755906
21
-6.0647637007874016
0
LINE
8
BLACK
6
CONTINUOUS
10
11.317112952755906
20
-6.0647637007874016
11
11.3096138976377958
21
-6.0535150787401575
0
LINE
8
BLACK
6
CONTINUOUS
10
11.3096138976377958
20
-6.0535150787401575
11
11.3058643700787407
21
-6.0497655511811024
  0
ENDSEC
  0
EOF
