<?xml version="1.0" standalone="no"?>
 <!DOCTYPE svg PUBLIC "-//W3C//DTD SVG 1.1//EN" 
 "http://www.w3.org/Graphics/SVG/1.1/DTD/svg11.dtd"> 
<svg
  xmlns:svg="http://www.w3.org/2000/svg"
  xmlns="http://www.w3.org/2000/svg"
  xmlns:xlink="http://www.w3.org/1999/xlink"
  version="1.1"
  width="431.8000mm" height="279.4000mm" viewBox="0.0000 0.0000 431.8000 279.4000">
<title>SVG Image created as mag-encoder-F_Silkscreen.svg date 2024/08/22 23:12:55 </title>
  <desc>Image generated by PCBNEW </desc>
<g style="fill:#000000; fill-opacity:1.0000;stroke:#000000; stroke-opacity:1.0000;
stroke-linecap:round; stroke-linejoin:round;"
 transform="translate(0 0) scale(1 1)">
</g>
<g style="fill:none; 
stroke:#000000; stroke-width:0.1270; stroke-opacity:1; 
stroke-linecap:round; stroke-linejoin:round;">
<g transform="rotate(-90.000000 213.2967 98.5520)">
<text x="213.2967" y="98.5520"
textLength="2.5509" font-size="1.0160" lengthAdjust="spacingAndGlyphs"
text-anchor="start" opacity="0" stroke-opacity="0">GND</text>
</g>
<g class="stroked-text"><desc>GND</desc>
<path d="M212.4711 97.8879
L212.4349 97.9604
" />
<path d="M212.4349 97.9604
L212.4349 98.0693
" />
<path d="M212.4349 98.0693
L212.4711 98.1782
" />
<path d="M212.4711 98.1782
L212.5437 98.2507
" />
<path d="M212.5437 98.2507
L212.6163 98.2870
" />
<path d="M212.6163 98.2870
L212.7614 98.3233
" />
<path d="M212.7614 98.3233
L212.8703 98.3233
" />
<path d="M212.8703 98.3233
L213.0154 98.2870
" />
<path d="M213.0154 98.2870
L213.0880 98.2507
" />
<path d="M213.0880 98.2507
L213.1606 98.1782
" />
<path d="M213.1606 98.1782
L213.1969 98.0693
" />
<path d="M213.1969 98.0693
L213.1969 97.9967
" />
<path d="M213.1969 97.9967
L213.1606 97.8879
" />
<path d="M213.1606 97.8879
L213.1243 97.8516
" />
<path d="M213.1243 97.8516
L212.8703 97.8516
" />
<path d="M212.8703 97.8516
L212.8703 97.9967
" />
<path d="M213.1969 97.5250
L212.4349 97.5250
" />
<path d="M212.4349 97.5250
L213.1969 97.0896
" />
<path d="M213.1969 97.0896
L212.4349 97.0896
" />
<path d="M213.1969 96.7267
L212.4349 96.7267
" />
<path d="M212.4349 96.7267
L212.4349 96.5453
" />
<path d="M212.4349 96.5453
L212.4711 96.4364
" />
<path d="M212.4711 96.4364
L212.5437 96.3639
" />
<path d="M212.5437 96.3639
L212.6163 96.3276
" />
<path d="M212.6163 96.3276
L212.7614 96.2913
" />
<path d="M212.7614 96.2913
L212.8703 96.2913
" />
<path d="M212.8703 96.2913
L213.0154 96.3276
" />
<path d="M213.0154 96.3276
L213.0880 96.3639
" />
<path d="M213.0880 96.3639
L213.1606 96.4364
" />
<path d="M213.1606 96.4364
L213.1969 96.5453
" />
<path d="M213.1969 96.5453
L213.1969 96.7267
" />
</g><g transform="rotate(-90.000000 214.5235 98.5520)">
<text x="214.5235" y="98.5520"
textLength="2.3332" font-size="1.0160" lengthAdjust="spacingAndGlyphs"
text-anchor="start" opacity="0" stroke-opacity="0">3V3</text>
</g>
<g class="stroked-text"><desc>3V3</desc>
<path d="M213.6616 98.3596
L213.6616 97.8879
" />
<path d="M213.6616 97.8879
L213.9519 98.1419
" />
<path d="M213.9519 98.1419
L213.9519 98.0330
" />
<path d="M213.9519 98.0330
L213.9882 97.9604
" />
<path d="M213.9882 97.9604
L214.0245 97.9242
" />
<path d="M214.0245 97.9242
L214.0971 97.8879
" />
<path d="M214.0971 97.8879
L214.2785 97.8879
" />
<path d="M214.2785 97.8879
L214.3511 97.9242
" />
<path d="M214.3511 97.9242
L214.3873 97.9604
" />
<path d="M214.3873 97.9604
L214.4236 98.0330
" />
<path d="M214.4236 98.0330
L214.4236 98.2507
" />
<path d="M214.4236 98.2507
L214.3873 98.3233
" />
<path d="M214.3873 98.3233
L214.3511 98.3596
" />
<path d="M213.6616 97.6702
L214.4236 97.4162
" />
<path d="M214.4236 97.4162
L213.6616 97.1622
" />
<path d="M213.6616 96.9807
L213.6616 96.5090
" />
<path d="M213.6616 96.5090
L213.9519 96.7630
" />
<path d="M213.9519 96.7630
L213.9519 96.6542
" />
<path d="M213.9519 96.6542
L213.9882 96.5816
" />
<path d="M213.9882 96.5816
L214.0245 96.5453
" />
<path d="M214.0245 96.5453
L214.0971 96.5090
" />
<path d="M214.0971 96.5090
L214.2785 96.5090
" />
<path d="M214.2785 96.5090
L214.3511 96.5453
" />
<path d="M214.3511 96.5453
L214.3873 96.5816
" />
<path d="M214.3873 96.5816
L214.4236 96.6542
" />
<path d="M214.4236 96.6542
L214.4236 96.8719
" />
<path d="M214.4236 96.8719
L214.3873 96.9444
" />
<path d="M214.3873 96.9444
L214.3511 96.9807
" />
</g><g transform="rotate(-90.000000 215.7503 98.5520)">
<text x="215.7503" y="98.5520"
textLength="1.7163" font-size="1.0160" lengthAdjust="spacingAndGlyphs"
text-anchor="start" opacity="0" stroke-opacity="0">CS</text>
</g>
<g class="stroked-text"><desc>CS</desc>
<path d="M215.5778 97.8516
L215.6141 97.8879
" />
<path d="M215.6141 97.8879
L215.6504 97.9967
" />
<path d="M215.6504 97.9967
L215.6504 98.0693
" />
<path d="M215.6504 98.0693
L215.6141 98.1782
" />
<path d="M215.6141 98.1782
L215.5416 98.2507
" />
<path d="M215.5416 98.2507
L215.4690 98.2870
" />
<path d="M215.4690 98.2870
L215.3238 98.3233
" />
<path d="M215.3238 98.3233
L215.2150 98.3233
" />
<path d="M215.2150 98.3233
L215.0698 98.2870
" />
<path d="M215.0698 98.2870
L214.9973 98.2507
" />
<path d="M214.9973 98.2507
L214.9247 98.1782
" />
<path d="M214.9247 98.1782
L214.8884 98.0693
" />
<path d="M214.8884 98.0693
L214.8884 97.9967
" />
<path d="M214.8884 97.9967
L214.9247 97.8879
" />
<path d="M214.9247 97.8879
L214.9610 97.8516
" />
<path d="M215.6141 97.5613
L215.6504 97.4524
" />
<path d="M215.6504 97.4524
L215.6504 97.2710
" />
<path d="M215.6504 97.2710
L215.6141 97.1984
" />
<path d="M215.6141 97.1984
L215.5778 97.1622
" />
<path d="M215.5778 97.1622
L215.5053 97.1259
" />
<path d="M215.5053 97.1259
L215.4327 97.1259
" />
<path d="M215.4327 97.1259
L215.3601 97.1622
" />
<path d="M215.3601 97.1622
L215.3238 97.1984
" />
<path d="M215.3238 97.1984
L215.2876 97.2710
" />
<path d="M215.2876 97.2710
L215.2513 97.4162
" />
<path d="M215.2513 97.4162
L215.2150 97.4887
" />
<path d="M215.2150 97.4887
L215.1787 97.5250
" />
<path d="M215.1787 97.5250
L215.1061 97.5613
" />
<path d="M215.1061 97.5613
L215.0336 97.5613
" />
<path d="M215.0336 97.5613
L214.9610 97.5250
" />
<path d="M214.9610 97.5250
L214.9247 97.4887
" />
<path d="M214.9247 97.4887
L214.8884 97.4162
" />
<path d="M214.8884 97.4162
L214.8884 97.2347
" />
<path d="M214.8884 97.2347
L214.9247 97.1259
" />
</g><g transform="rotate(-90.000000 216.9770 98.5520)">
<text x="216.9770" y="98.5520"
textLength="2.9863" font-size="1.0160" lengthAdjust="spacingAndGlyphs"
text-anchor="start" opacity="0" stroke-opacity="0">MOSI</text>
</g>
<g class="stroked-text"><desc>MOSI</desc>
<path d="M216.8772 98.2870
L216.1152 98.2870
" />
<path d="M216.1152 98.2870
L216.6595 98.0330
" />
<path d="M216.6595 98.0330
L216.1152 97.7790
" />
<path d="M216.1152 97.7790
L216.8772 97.7790
" />
<path d="M216.1152 97.2710
L216.1152 97.1259
" />
<path d="M216.1152 97.1259
L216.1515 97.0533
" />
<path d="M216.1515 97.0533
L216.2240 96.9807
" />
<path d="M216.2240 96.9807
L216.3692 96.9444
" />
<path d="M216.3692 96.9444
L216.6232 96.9444
" />
<path d="M216.6232 96.9444
L216.7683 96.9807
" />
<path d="M216.7683 96.9807
L216.8409 97.0533
" />
<path d="M216.8409 97.0533
L216.8772 97.1259
" />
<path d="M216.8772 97.1259
L216.8772 97.2710
" />
<path d="M216.8772 97.2710
L216.8409 97.3436
" />
<path d="M216.8409 97.3436
L216.7683 97.4162
" />
<path d="M216.7683 97.4162
L216.6232 97.4524
" />
<path d="M216.6232 97.4524
L216.3692 97.4524
" />
<path d="M216.3692 97.4524
L216.2240 97.4162
" />
<path d="M216.2240 97.4162
L216.1515 97.3436
" />
<path d="M216.1515 97.3436
L216.1152 97.2710
" />
<path d="M216.8409 96.6542
L216.8772 96.5453
" />
<path d="M216.8772 96.5453
L216.8772 96.3639
" />
<path d="M216.8772 96.3639
L216.8409 96.2913
" />
<path d="M216.8409 96.2913
L216.8046 96.2550
" />
<path d="M216.8046 96.2550
L216.7320 96.2187
" />
<path d="M216.7320 96.2187
L216.6595 96.2187
" />
<path d="M216.6595 96.2187
L216.5869 96.2550
" />
<path d="M216.5869 96.2550
L216.5506 96.2913
" />
<path d="M216.5506 96.2913
L216.5143 96.3639
" />
<path d="M216.5143 96.3639
L216.4780 96.5090
" />
<path d="M216.4780 96.5090
L216.4418 96.5816
" />
<path d="M216.4418 96.5816
L216.4055 96.6179
" />
<path d="M216.4055 96.6179
L216.3329 96.6542
" />
<path d="M216.3329 96.6542
L216.2603 96.6542
" />
<path d="M216.2603 96.6542
L216.1878 96.6179
" />
<path d="M216.1878 96.6179
L216.1515 96.5816
" />
<path d="M216.1515 96.5816
L216.1152 96.5090
" />
<path d="M216.1152 96.5090
L216.1152 96.3276
" />
<path d="M216.1152 96.3276
L216.1515 96.2187
" />
<path d="M216.8772 95.8922
L216.1152 95.8922
" />
</g><g transform="rotate(-90.000000 218.2038 98.5520)">
<text x="218.2038" y="98.5520"
textLength="2.9863" font-size="1.0160" lengthAdjust="spacingAndGlyphs"
text-anchor="start" opacity="0" stroke-opacity="0">MISO</text>
</g>
<g class="stroked-text"><desc>MISO</desc>
<path d="M218.1040 98.2870
L217.3420 98.2870
" />
<path d="M217.3420 98.2870
L217.8862 98.0330
" />
<path d="M217.8862 98.0330
L217.3420 97.7790
" />
<path d="M217.3420 97.7790
L218.1040 97.7790
" />
<path d="M218.1040 97.4162
L217.3420 97.4162
" />
<path d="M218.0677 97.0896
L218.1040 96.9807
" />
<path d="M218.1040 96.9807
L218.1040 96.7993
" />
<path d="M218.1040 96.7993
L218.0677 96.7267
" />
<path d="M218.0677 96.7267
L218.0314 96.6904
" />
<path d="M218.0314 96.6904
L217.9588 96.6542
" />
<path d="M217.9588 96.6542
L217.8862 96.6542
" />
<path d="M217.8862 96.6542
L217.8137 96.6904
" />
<path d="M217.8137 96.6904
L217.7774 96.7267
" />
<path d="M217.7774 96.7267
L217.7411 96.7993
" />
<path d="M217.7411 96.7993
L217.7048 96.9444
" />
<path d="M217.7048 96.9444
L217.6685 97.0170
" />
<path d="M217.6685 97.0170
L217.6322 97.0533
" />
<path d="M217.6322 97.0533
L217.5597 97.0896
" />
<path d="M217.5597 97.0896
L217.4871 97.0896
" />
<path d="M217.4871 97.0896
L217.4145 97.0533
" />
<path d="M217.4145 97.0533
L217.3782 97.0170
" />
<path d="M217.3782 97.0170
L217.3420 96.9444
" />
<path d="M217.3420 96.9444
L217.3420 96.7630
" />
<path d="M217.3420 96.7630
L217.3782 96.6542
" />
<path d="M217.3420 96.1824
L217.3420 96.0373
" />
<path d="M217.3420 96.0373
L217.3782 95.9647
" />
<path d="M217.3782 95.9647
L217.4508 95.8922
" />
<path d="M217.4508 95.8922
L217.5960 95.8559
" />
<path d="M217.5960 95.8559
L217.8500 95.8559
" />
<path d="M217.8500 95.8559
L217.9951 95.8922
" />
<path d="M217.9951 95.8922
L218.0677 95.9647
" />
<path d="M218.0677 95.9647
L218.1040 96.0373
" />
<path d="M218.1040 96.0373
L218.1040 96.1824
" />
<path d="M218.1040 96.1824
L218.0677 96.2550
" />
<path d="M218.0677 96.2550
L217.9951 96.3276
" />
<path d="M217.9951 96.3276
L217.8500 96.3639
" />
<path d="M217.8500 96.3639
L217.5960 96.3639
" />
<path d="M217.5960 96.3639
L217.4508 96.3276
" />
<path d="M217.4508 96.3276
L217.3782 96.2550
" />
<path d="M217.3782 96.2550
L217.3420 96.1824
" />
</g><g transform="rotate(-90.000000 219.4306 98.5520)">
<text x="219.4306" y="98.5520"
textLength="3.0952" font-size="1.0160" lengthAdjust="spacingAndGlyphs"
text-anchor="start" opacity="0" stroke-opacity="0">SCLK</text>
</g>
<g class="stroked-text"><desc>SCLK</desc>
<path d="M219.2945 98.3233
L219.3307 98.2144
" />
<path d="M219.3307 98.2144
L219.3307 98.0330
" />
<path d="M219.3307 98.0330
L219.2945 97.9604
" />
<path d="M219.2945 97.9604
L219.2582 97.9242
" />
<path d="M219.2582 97.9242
L219.1856 97.8879
" />
<path d="M219.1856 97.8879
L219.1130 97.8879
" />
<path d="M219.1130 97.8879
L219.0405 97.9242
" />
<path d="M219.0405 97.9242
L219.0042 97.9604
" />
<path d="M219.0042 97.9604
L218.9679 98.0330
" />
<path d="M218.9679 98.0330
L218.9316 98.1782
" />
<path d="M218.9316 98.1782
L218.8953 98.2507
" />
<path d="M218.8953 98.2507
L218.8590 98.2870
" />
<path d="M218.8590 98.2870
L218.7865 98.3233
" />
<path d="M218.7865 98.3233
L218.7139 98.3233
" />
<path d="M218.7139 98.3233
L218.6413 98.2870
" />
<path d="M218.6413 98.2870
L218.6050 98.2507
" />
<path d="M218.6050 98.2507
L218.5687 98.1782
" />
<path d="M218.5687 98.1782
L218.5687 97.9967
" />
<path d="M218.5687 97.9967
L218.6050 97.8879
" />
<path d="M219.2582 97.1259
L219.2945 97.1622
" />
<path d="M219.2945 97.1622
L219.3307 97.2710
" />
<path d="M219.3307 97.2710
L219.3307 97.3436
" />
<path d="M219.3307 97.3436
L219.2945 97.4524
" />
<path d="M219.2945 97.4524
L219.2219 97.5250
" />
<path d="M219.2219 97.5250
L219.1493 97.5613
" />
<path d="M219.1493 97.5613
L219.0042 97.5976
" />
<path d="M219.0042 97.5976
L218.8953 97.5976
" />
<path d="M218.8953 97.5976
L218.7502 97.5613
" />
<path d="M218.7502 97.5613
L218.6776 97.5250
" />
<path d="M218.6776 97.5250
L218.6050 97.4524
" />
<path d="M218.6050 97.4524
L218.5687 97.3436
" />
<path d="M218.5687 97.3436
L218.5687 97.2710
" />
<path d="M218.5687 97.2710
L218.6050 97.1622
" />
<path d="M218.6050 97.1622
L218.6413 97.1259
" />
<path d="M219.3307 96.4364
L219.3307 96.7993
" />
<path d="M219.3307 96.7993
L218.5687 96.7993
" />
<path d="M219.3307 96.1824
L218.5687 96.1824
" />
<path d="M219.3307 95.7470
L218.8953 96.0736
" />
<path d="M218.5687 95.7470
L219.0042 96.1824
" />
</g></g>
<g style="fill:none; 
stroke:#000000; stroke-width:0.1524; stroke-opacity:1; 
stroke-linecap:round; stroke-linejoin:round;">
<text x="217.4240" y="117.6020"
textLength="4.4777" font-size="1.0160" lengthAdjust="spacingAndGlyphs"
text-anchor="start" opacity="0" stroke-opacity="0">5-PWM</text>
<g class="stroked-text"><desc>5-PWM</desc>
<path d="M218.0685 116.8684
L217.7057 116.8684
" />
<path d="M217.7057 116.8684
L217.6694 117.2312
" />
<path d="M217.6694 117.2312
L217.7057 117.1949
" />
<path d="M217.7057 117.1949
L217.7783 117.1586
" />
<path d="M217.7783 117.1586
L217.9597 117.1586
" />
<path d="M217.9597 117.1586
L218.0323 117.1949
" />
<path d="M218.0323 117.1949
L218.0685 117.2312
" />
<path d="M218.0685 117.2312
L218.1048 117.3038
" />
<path d="M218.1048 117.3038
L218.1048 117.4852
" />
<path d="M218.1048 117.4852
L218.0685 117.5578
" />
<path d="M218.0685 117.5578
L218.0323 117.5941
" />
<path d="M218.0323 117.5941
L217.9597 117.6304
" />
<path d="M217.9597 117.6304
L217.7783 117.6304
" />
<path d="M217.7783 117.6304
L217.7057 117.5941
" />
<path d="M217.7057 117.5941
L217.6694 117.5578
" />
<path d="M218.4314 117.3401
L219.0120 117.3401
" />
<path d="M219.3748 117.6304
L219.3748 116.8684
" />
<path d="M219.3748 116.8684
L219.6651 116.8684
" />
<path d="M219.6651 116.8684
L219.7377 116.9046
" />
<path d="M219.7377 116.9046
L219.7740 116.9409
" />
<path d="M219.7740 116.9409
L219.8103 117.0135
" />
<path d="M219.8103 117.0135
L219.8103 117.1224
" />
<path d="M219.8103 117.1224
L219.7740 117.1949
" />
<path d="M219.7740 117.1949
L219.7377 117.2312
" />
<path d="M219.7377 117.2312
L219.6651 117.2675
" />
<path d="M219.6651 117.2675
L219.3748 117.2675
" />
<path d="M220.0643 116.8684
L220.2457 117.6304
" />
<path d="M220.2457 117.6304
L220.3908 117.0861
" />
<path d="M220.3908 117.0861
L220.5360 117.6304
" />
<path d="M220.5360 117.6304
L220.7174 116.8684
" />
<path d="M221.0077 117.6304
L221.0077 116.8684
" />
<path d="M221.0077 116.8684
L221.2617 117.4126
" />
<path d="M221.2617 117.4126
L221.5157 116.8684
" />
<path d="M221.5157 116.8684
L221.5157 117.6304
" />
</g><text x="217.4240" y="118.8288"
textLength="2.7359" font-size="1.0160" lengthAdjust="spacingAndGlyphs"
text-anchor="start" opacity="0" stroke-opacity="0">4-B</text>
<g class="stroked-text"><desc>4-B</desc>
<path d="M218.0323 118.3491
L218.0323 118.8571
" />
<path d="M217.8508 118.0589
L217.6694 118.6031
" />
<path d="M217.6694 118.6031
L218.1411 118.6031
" />
<path d="M218.4314 118.5669
L219.0120 118.5669
" />
<path d="M219.6288 118.4580
L219.7377 118.4943
" />
<path d="M219.7377 118.4943
L219.7740 118.5306
" />
<path d="M219.7740 118.5306
L219.8103 118.6031
" />
<path d="M219.8103 118.6031
L219.8103 118.7120
" />
<path d="M219.8103 118.7120
L219.7740 118.7846
" />
<path d="M219.7740 118.7846
L219.7377 118.8209
" />
<path d="M219.7377 118.8209
L219.6651 118.8571
" />
<path d="M219.6651 118.8571
L219.3748 118.8571
" />
<path d="M219.3748 118.8571
L219.3748 118.0951
" />
<path d="M219.3748 118.0951
L219.6288 118.0951
" />
<path d="M219.6288 118.0951
L219.7014 118.1314
" />
<path d="M219.7014 118.1314
L219.7377 118.1677
" />
<path d="M219.7377 118.1677
L219.7740 118.2403
" />
<path d="M219.7740 118.2403
L219.7740 118.3129
" />
<path d="M219.7740 118.3129
L219.7377 118.3854
" />
<path d="M219.7377 118.3854
L219.7014 118.4217
" />
<path d="M219.7014 118.4217
L219.6288 118.4580
" />
<path d="M219.6288 118.4580
L219.3748 118.4580
" />
</g><text x="217.4240" y="120.0556"
textLength="2.6271" font-size="1.0160" lengthAdjust="spacingAndGlyphs"
text-anchor="start" opacity="0" stroke-opacity="0">3-A</text>
<g class="stroked-text"><desc>3-A</desc>
<path d="M217.6331 119.3219
L218.1048 119.3219
" />
<path d="M218.1048 119.3219
L217.8508 119.6122
" />
<path d="M217.8508 119.6122
L217.9597 119.6122
" />
<path d="M217.9597 119.6122
L218.0323 119.6485
" />
<path d="M218.0323 119.6485
L218.0685 119.6848
" />
<path d="M218.0685 119.6848
L218.1048 119.7573
" />
<path d="M218.1048 119.7573
L218.1048 119.9388
" />
<path d="M218.1048 119.9388
L218.0685 120.0113
" />
<path d="M218.0685 120.0113
L218.0323 120.0476
" />
<path d="M218.0323 120.0476
L217.9597 120.0839
" />
<path d="M217.9597 120.0839
L217.7420 120.0839
" />
<path d="M217.7420 120.0839
L217.6694 120.0476
" />
<path d="M217.6694 120.0476
L217.6331 120.0113
" />
<path d="M218.4314 119.7936
L219.0120 119.7936
" />
<path d="M219.3385 119.8662
L219.7014 119.8662
" />
<path d="M219.2660 120.0839
L219.5200 119.3219
" />
<path d="M219.5200 119.3219
L219.7740 120.0839
" />
</g><text x="217.4240" y="121.2823"
textLength="3.3528" font-size="1.0160" lengthAdjust="spacingAndGlyphs"
text-anchor="start" opacity="0" stroke-opacity="0">2-5V</text>
<g class="stroked-text"><desc>2-5V</desc>
<path d="M217.6694 120.6213
L217.7057 120.5850
" />
<path d="M217.7057 120.5850
L217.7783 120.5487
" />
<path d="M217.7783 120.5487
L217.9597 120.5487
" />
<path d="M217.9597 120.5487
L218.0323 120.5850
" />
<path d="M218.0323 120.5850
L218.0685 120.6213
" />
<path d="M218.0685 120.6213
L218.1048 120.6938
" />
<path d="M218.1048 120.6938
L218.1048 120.7664
" />
<path d="M218.1048 120.7664
L218.0685 120.8753
" />
<path d="M218.0685 120.8753
L217.6331 121.3107
" />
<path d="M217.6331 121.3107
L218.1048 121.3107
" />
<path d="M218.4314 121.0204
L219.0120 121.0204
" />
<path d="M219.7377 120.5487
L219.3748 120.5487
" />
<path d="M219.3748 120.5487
L219.3385 120.9115
" />
<path d="M219.3385 120.9115
L219.3748 120.8753
" />
<path d="M219.3748 120.8753
L219.4474 120.8390
" />
<path d="M219.4474 120.8390
L219.6288 120.8390
" />
<path d="M219.6288 120.8390
L219.7014 120.8753
" />
<path d="M219.7014 120.8753
L219.7377 120.9115
" />
<path d="M219.7377 120.9115
L219.7740 120.9841
" />
<path d="M219.7740 120.9841
L219.7740 121.1655
" />
<path d="M219.7740 121.1655
L219.7377 121.2381
" />
<path d="M219.7377 121.2381
L219.7014 121.2744
" />
<path d="M219.7014 121.2744
L219.6288 121.3107
" />
<path d="M219.6288 121.3107
L219.4474 121.3107
" />
<path d="M219.4474 121.3107
L219.3748 121.2744
" />
<path d="M219.3748 121.2744
L219.3385 121.2381
" />
<path d="M219.9917 120.5487
L220.2457 121.3107
" />
<path d="M220.2457 121.3107
L220.4997 120.5487
" />
</g><text x="217.4240" y="122.5091"
textLength="4.2962" font-size="1.0160" lengthAdjust="spacingAndGlyphs"
text-anchor="start" opacity="0" stroke-opacity="0">1-GND</text>
<g class="stroked-text"><desc>1-GND</desc>
<path d="M218.1048 122.5375
L217.6694 122.5375
" />
<path d="M217.8871 122.5375
L217.8871 121.7755
" />
<path d="M217.8871 121.7755
L217.8145 121.8843
" />
<path d="M217.8145 121.8843
L217.7420 121.9569
" />
<path d="M217.7420 121.9569
L217.6694 121.9932
" />
<path d="M218.4314 122.2472
L219.0120 122.2472
" />
<path d="M219.7740 121.8118
L219.7014 121.7755
" />
<path d="M219.7014 121.7755
L219.5925 121.7755
" />
<path d="M219.5925 121.7755
L219.4837 121.8118
" />
<path d="M219.4837 121.8118
L219.4111 121.8843
" />
<path d="M219.4111 121.8843
L219.3748 121.9569
" />
<path d="M219.3748 121.9569
L219.3385 122.1020
" />
<path d="M219.3385 122.1020
L219.3385 122.2109
" />
<path d="M219.3385 122.2109
L219.3748 122.3560
" />
<path d="M219.3748 122.3560
L219.4111 122.4286
" />
<path d="M219.4111 122.4286
L219.4837 122.5012
" />
<path d="M219.4837 122.5012
L219.5925 122.5375
" />
<path d="M219.5925 122.5375
L219.6651 122.5375
" />
<path d="M219.6651 122.5375
L219.7740 122.5012
" />
<path d="M219.7740 122.5012
L219.8103 122.4649
" />
<path d="M219.8103 122.4649
L219.8103 122.2109
" />
<path d="M219.8103 122.2109
L219.6651 122.2109
" />
<path d="M220.1368 122.5375
L220.1368 121.7755
" />
<path d="M220.1368 121.7755
L220.5723 122.5375
" />
<path d="M220.5723 122.5375
L220.5723 121.7755
" />
<path d="M220.9351 122.5375
L220.9351 121.7755
" />
<path d="M220.9351 121.7755
L221.1165 121.7755
" />
<path d="M221.1165 121.7755
L221.2254 121.8118
" />
<path d="M221.2254 121.8118
L221.2980 121.8843
" />
<path d="M221.2980 121.8843
L221.3343 121.9569
" />
<path d="M221.3343 121.9569
L221.3705 122.1020
" />
<path d="M221.3705 122.1020
L221.3705 122.2109
" />
<path d="M221.3705 122.2109
L221.3343 122.3560
" />
<path d="M221.3343 122.3560
L221.2980 122.4286
" />
<path d="M221.2980 122.4286
L221.2254 122.5012
" />
<path d="M221.2254 122.5012
L221.1165 122.5375
" />
<path d="M221.1165 122.5375
L220.9351 122.5375
" />
</g></g>
<g style="fill:none; 
stroke:#000000; stroke-width:0.1270; stroke-opacity:1; 
stroke-linecap:round; stroke-linejoin:round;">
<text x="228.8540" y="100.2665"
textLength="1.5240" font-size="0.8467" lengthAdjust="spacingAndGlyphs"
text-anchor="middle" opacity="0" stroke-opacity="0">U1</text>
<g class="stroked-text"><desc>U1</desc>
<path d="M228.3702 99.6012
L228.3702 100.1152
" />
<path d="M228.3702 100.1152
L228.4004 100.1757
" />
<path d="M228.4004 100.1757
L228.4307 100.2059
" />
<path d="M228.4307 100.2059
L228.4911 100.2362
" />
<path d="M228.4911 100.2362
L228.6121 100.2362
" />
<path d="M228.6121 100.2362
L228.6726 100.2059
" />
<path d="M228.6726 100.2059
L228.7028 100.1757
" />
<path d="M228.7028 100.1757
L228.7330 100.1152
" />
<path d="M228.7330 100.1152
L228.7330 99.6012
" />
<path d="M229.3680 100.2362
L229.0052 100.2362
" />
<path d="M229.1866 100.2362
L229.1866 99.6012
" />
<path d="M229.1866 99.6012
L229.1261 99.6919
" />
<path d="M229.1261 99.6919
L229.0657 99.7523
" />
<path d="M229.0657 99.7523
L229.0052 99.7826
" />
</g><text x="230.0224" y="106.7689"
textLength="1.4938" font-size="0.8467" lengthAdjust="spacingAndGlyphs"
text-anchor="middle" opacity="0" stroke-opacity="0">C2</text>
<g class="stroked-text"><desc>C2</desc>
<path d="M229.9166 106.6781
L229.8863 106.7083
" />
<path d="M229.8863 106.7083
L229.7956 106.7386
" />
<path d="M229.7956 106.7386
L229.7351 106.7386
" />
<path d="M229.7351 106.7386
L229.6444 106.7083
" />
<path d="M229.6444 106.7083
L229.5839 106.6478
" />
<path d="M229.5839 106.6478
L229.5537 106.5874
" />
<path d="M229.5537 106.5874
L229.5235 106.4664
" />
<path d="M229.5235 106.4664
L229.5235 106.3757
" />
<path d="M229.5235 106.3757
L229.5537 106.2547
" />
<path d="M229.5537 106.2547
L229.5839 106.1943
" />
<path d="M229.5839 106.1943
L229.6444 106.1338
" />
<path d="M229.6444 106.1338
L229.7351 106.1036
" />
<path d="M229.7351 106.1036
L229.7956 106.1036
" />
<path d="M229.7956 106.1036
L229.8863 106.1338
" />
<path d="M229.8863 106.1338
L229.9166 106.1640
" />
<path d="M230.1585 106.1640
L230.1887 106.1338
" />
<path d="M230.1887 106.1338
L230.2492 106.1036
" />
<path d="M230.2492 106.1036
L230.4004 106.1036
" />
<path d="M230.4004 106.1036
L230.4609 106.1338
" />
<path d="M230.4609 106.1338
L230.4911 106.1640
" />
<path d="M230.4911 106.1640
L230.5213 106.2245
" />
<path d="M230.5213 106.2245
L230.5213 106.2850
" />
<path d="M230.5213 106.2850
L230.4911 106.3757
" />
<path d="M230.4911 106.3757
L230.1282 106.7386
" />
<path d="M230.1282 106.7386
L230.5213 106.7386
" />
</g><text x="209.6770" y="118.0465"
textLength="1.4938" font-size="0.8467" lengthAdjust="spacingAndGlyphs"
text-anchor="middle" opacity="0" stroke-opacity="0">D1</text>
<g class="stroked-text"><desc>D1</desc>
<path d="M209.2083 118.0162
L209.2083 117.3812
" />
<path d="M209.2083 117.3812
L209.3595 117.3812
" />
<path d="M209.3595 117.3812
L209.4502 117.4114
" />
<path d="M209.4502 117.4114
L209.5107 117.4719
" />
<path d="M209.5107 117.4719
L209.5409 117.5323
" />
<path d="M209.5409 117.5323
L209.5712 117.6533
" />
<path d="M209.5712 117.6533
L209.5712 117.7440
" />
<path d="M209.5712 117.7440
L209.5409 117.8650
" />
<path d="M209.5409 117.8650
L209.5107 117.9254
" />
<path d="M209.5107 117.9254
L209.4502 117.9859
" />
<path d="M209.4502 117.9859
L209.3595 118.0162
" />
<path d="M209.3595 118.0162
L209.2083 118.0162
" />
<path d="M210.1759 118.0162
L209.8131 118.0162
" />
<path d="M209.9945 118.0162
L209.9945 117.3812
" />
<path d="M209.9945 117.3812
L209.9340 117.4719
" />
<path d="M209.9340 117.4719
L209.8735 117.5323
" />
<path d="M209.8735 117.5323
L209.8131 117.5626
" />
</g><text x="209.7024" y="122.4153"
textLength="1.5845" font-size="0.8467" lengthAdjust="spacingAndGlyphs"
text-anchor="middle" opacity="0" stroke-opacity="0">ON</text>
<g class="stroked-text"><desc>ON</desc>
<path d="M209.3093 121.7500
L209.4303 121.7500
" />
<path d="M209.4303 121.7500
L209.4907 121.7802
" />
<path d="M209.4907 121.7802
L209.5512 121.8407
" />
<path d="M209.5512 121.8407
L209.5814 121.9616
" />
<path d="M209.5814 121.9616
L209.5814 122.1733
" />
<path d="M209.5814 122.1733
L209.5512 122.2942
" />
<path d="M209.5512 122.2942
L209.4907 122.3547
" />
<path d="M209.4907 122.3547
L209.4303 122.3850
" />
<path d="M209.4303 122.3850
L209.3093 122.3850
" />
<path d="M209.3093 122.3850
L209.2488 122.3547
" />
<path d="M209.2488 122.3547
L209.1884 122.2942
" />
<path d="M209.1884 122.2942
L209.1581 122.1733
" />
<path d="M209.1581 122.1733
L209.1581 121.9616
" />
<path d="M209.1581 121.9616
L209.1884 121.8407
" />
<path d="M209.1884 121.8407
L209.2488 121.7802
" />
<path d="M209.2488 121.7802
L209.3093 121.7500
" />
<path d="M209.8536 122.3850
L209.8536 121.7500
" />
<path d="M209.8536 121.7500
L210.2164 122.3850
" />
<path d="M210.2164 122.3850
L210.2164 121.7500
" />
</g><text x="213.2330" y="118.0465"
textLength="1.4938" font-size="0.8467" lengthAdjust="spacingAndGlyphs"
text-anchor="middle" opacity="0" stroke-opacity="0">D3</text>
<g class="stroked-text"><desc>D3</desc>
<path d="M212.7643 118.0162
L212.7643 117.3812
" />
<path d="M212.7643 117.3812
L212.9155 117.3812
" />
<path d="M212.9155 117.3812
L213.0062 117.4114
" />
<path d="M213.0062 117.4114
L213.0667 117.4719
" />
<path d="M213.0667 117.4719
L213.0969 117.5323
" />
<path d="M213.0969 117.5323
L213.1272 117.6533
" />
<path d="M213.1272 117.6533
L213.1272 117.7440
" />
<path d="M213.1272 117.7440
L213.0969 117.8650
" />
<path d="M213.0969 117.8650
L213.0667 117.9254
" />
<path d="M213.0667 117.9254
L213.0062 117.9859
" />
<path d="M213.0062 117.9859
L212.9155 118.0162
" />
<path d="M212.9155 118.0162
L212.7643 118.0162
" />
<path d="M213.3388 117.3812
L213.7319 117.3812
" />
<path d="M213.7319 117.3812
L213.5203 117.6231
" />
<path d="M213.5203 117.6231
L213.6110 117.6231
" />
<path d="M213.6110 117.6231
L213.6715 117.6533
" />
<path d="M213.6715 117.6533
L213.7017 117.6835
" />
<path d="M213.7017 117.6835
L213.7319 117.7440
" />
<path d="M213.7319 117.7440
L213.7319 117.8952
" />
<path d="M213.7319 117.8952
L213.7017 117.9557
" />
<path d="M213.7017 117.9557
L213.6715 117.9859
" />
<path d="M213.6715 117.9859
L213.6110 118.0162
" />
<path d="M213.6110 118.0162
L213.4295 118.0162
" />
<path d="M213.4295 118.0162
L213.3691 117.9859
" />
<path d="M213.3691 117.9859
L213.3388 117.9557
" />
</g><text x="213.2584" y="122.3899"
textLength="1.4333" font-size="0.8467" lengthAdjust="spacingAndGlyphs"
text-anchor="middle" opacity="0" stroke-opacity="0">LO</text>
<g class="stroked-text"><desc>LO</desc>
<path d="M213.1223 122.3596
L212.8199 122.3596
" />
<path d="M212.8199 122.3596
L212.8199 121.7246
" />
<path d="M213.4549 121.7246
L213.5759 121.7246
" />
<path d="M213.5759 121.7246
L213.6364 121.7548
" />
<path d="M213.6364 121.7548
L213.6969 121.8153
" />
<path d="M213.6969 121.8153
L213.7271 121.9362
" />
<path d="M213.7271 121.9362
L213.7271 122.1479
" />
<path d="M213.7271 122.1479
L213.6969 122.2688
" />
<path d="M213.6969 122.2688
L213.6364 122.3293
" />
<path d="M213.6364 122.3293
L213.5759 122.3596
" />
<path d="M213.5759 122.3596
L213.4549 122.3596
" />
<path d="M213.4549 122.3596
L213.3945 122.3293
" />
<path d="M213.3945 122.3293
L213.3340 122.2688
" />
<path d="M213.3340 122.2688
L213.3038 122.1479
" />
<path d="M213.3038 122.1479
L213.3038 121.9362
" />
<path d="M213.3038 121.9362
L213.3340 121.8153
" />
<path d="M213.3340 121.8153
L213.3945 121.7548
" />
<path d="M213.3945 121.7548
L213.4549 121.7246
" />
</g><g transform="rotate(-90.000000 226.9490 115.6462)">
<text x="226.9490" y="115.9637"
textLength="1.4938" font-size="0.8467" lengthAdjust="spacingAndGlyphs"
text-anchor="middle" opacity="0" stroke-opacity="0">C1</text>
</g>
<g class="stroked-text"><desc>C1</desc>
<path d="M227.1757 115.7520
L227.2059 115.7823
" />
<path d="M227.2059 115.7823
L227.2362 115.8730
" />
<path d="M227.2362 115.8730
L227.2362 115.9335
" />
<path d="M227.2362 115.9335
L227.2059 116.0242
" />
<path d="M227.2059 116.0242
L227.1454 116.0847
" />
<path d="M227.1454 116.0847
L227.0850 116.1149
" />
<path d="M227.0850 116.1149
L226.9640 116.1451
" />
<path d="M226.9640 116.1451
L226.8733 116.1451
" />
<path d="M226.8733 116.1451
L226.7523 116.1149
" />
<path d="M226.7523 116.1149
L226.6919 116.0847
" />
<path d="M226.6919 116.0847
L226.6314 116.0242
" />
<path d="M226.6314 116.0242
L226.6012 115.9335
" />
<path d="M226.6012 115.9335
L226.6012 115.8730
" />
<path d="M226.6012 115.8730
L226.6314 115.7823
" />
<path d="M226.6314 115.7823
L226.6616 115.7520
" />
<path d="M227.2362 115.1473
L227.2362 115.5101
" />
<path d="M227.2362 115.3287
L226.6012 115.3287
" />
<path d="M226.6012 115.3287
L226.6919 115.3892
" />
<path d="M226.6919 115.3892
L226.7523 115.4497
" />
<path d="M226.7523 115.4497
L226.7826 115.5101
" />
</g><text x="230.0221" y="108.3945"
textLength="1.5240" font-size="0.8467" lengthAdjust="spacingAndGlyphs"
text-anchor="middle" opacity="0" stroke-opacity="0">U2</text>
<g class="stroked-text"><desc>U2</desc>
<path d="M229.5383 107.7292
L229.5383 108.2432
" />
<path d="M229.5383 108.2432
L229.5686 108.3037
" />
<path d="M229.5686 108.3037
L229.5988 108.3339
" />
<path d="M229.5988 108.3339
L229.6593 108.3642
" />
<path d="M229.6593 108.3642
L229.7802 108.3642
" />
<path d="M229.7802 108.3642
L229.8407 108.3339
" />
<path d="M229.8407 108.3339
L229.8709 108.3037
" />
<path d="M229.8709 108.3037
L229.9012 108.2432
" />
<path d="M229.9012 108.2432
L229.9012 107.7292
" />
<path d="M230.1733 107.7896
L230.2036 107.7594
" />
<path d="M230.2036 107.7594
L230.2640 107.7292
" />
<path d="M230.2640 107.7292
L230.4152 107.7292
" />
<path d="M230.4152 107.7292
L230.4757 107.7594
" />
<path d="M230.4757 107.7594
L230.5059 107.7896
" />
<path d="M230.5059 107.7896
L230.5362 107.8501
" />
<path d="M230.5362 107.8501
L230.5362 107.9106
" />
<path d="M230.5362 107.9106
L230.5059 108.0013
" />
<path d="M230.5059 108.0013
L230.1431 108.3642
" />
<path d="M230.1431 108.3642
L230.5362 108.3642
" />
</g><text x="226.9490" y="100.1395"
textLength="1.3426" font-size="0.8467" lengthAdjust="spacingAndGlyphs"
text-anchor="middle" opacity="0" stroke-opacity="0">J1</text>
<g class="stroked-text"><desc>J1</desc>
<path d="M226.7373 99.4742
L226.7373 99.9277
" />
<path d="M226.7373 99.9277
L226.7071 100.0184
" />
<path d="M226.7071 100.0184
L226.6466 100.0789
" />
<path d="M226.6466 100.0789
L226.5559 100.1092
" />
<path d="M226.5559 100.1092
L226.4954 100.1092
" />
<path d="M227.3723 100.1092
L227.0095 100.1092
" />
<path d="M227.1909 100.1092
L227.1909 99.4742
" />
<path d="M227.1909 99.4742
L227.1304 99.5649
" />
<path d="M227.1304 99.5649
L227.0700 99.6253
" />
<path d="M227.0700 99.6253
L227.0095 99.6556
" />
</g><text x="211.4296" y="118.0465"
textLength="1.4938" font-size="0.8467" lengthAdjust="spacingAndGlyphs"
text-anchor="middle" opacity="0" stroke-opacity="0">D2</text>
<g class="stroked-text"><desc>D2</desc>
<path d="M210.9609 118.0162
L210.9609 117.3812
" />
<path d="M210.9609 117.3812
L211.1121 117.3812
" />
<path d="M211.1121 117.3812
L211.2028 117.4114
" />
<path d="M211.2028 117.4114
L211.2633 117.4719
" />
<path d="M211.2633 117.4719
L211.2935 117.5323
" />
<path d="M211.2935 117.5323
L211.3238 117.6533
" />
<path d="M211.3238 117.6533
L211.3238 117.7440
" />
<path d="M211.3238 117.7440
L211.2935 117.8650
" />
<path d="M211.2935 117.8650
L211.2633 117.9254
" />
<path d="M211.2633 117.9254
L211.2028 117.9859
" />
<path d="M211.2028 117.9859
L211.1121 118.0162
" />
<path d="M211.1121 118.0162
L210.9609 118.0162
" />
<path d="M211.5657 117.4416
L211.5959 117.4114
" />
<path d="M211.5959 117.4114
L211.6564 117.3812
" />
<path d="M211.6564 117.3812
L211.8076 117.3812
" />
<path d="M211.8076 117.3812
L211.8681 117.4114
" />
<path d="M211.8681 117.4114
L211.8983 117.4416
" />
<path d="M211.8983 117.4416
L211.9285 117.5021
" />
<path d="M211.9285 117.5021
L211.9285 117.5626
" />
<path d="M211.9285 117.5626
L211.8983 117.6533
" />
<path d="M211.8983 117.6533
L211.5354 118.0162
" />
<path d="M211.5354 118.0162
L211.9285 118.0162
" />
</g><text x="211.4804" y="122.3899"
textLength="1.5542" font-size="0.8467" lengthAdjust="spacingAndGlyphs"
text-anchor="middle" opacity="0" stroke-opacity="0">OK</text>
<g class="stroked-text"><desc>OK</desc>
<path d="M211.1024 121.7246
L211.2234 121.7246
" />
<path d="M211.2234 121.7246
L211.2839 121.7548
" />
<path d="M211.2839 121.7548
L211.3443 121.8153
" />
<path d="M211.3443 121.8153
L211.3746 121.9362
" />
<path d="M211.3746 121.9362
L211.3746 122.1479
" />
<path d="M211.3746 122.1479
L211.3443 122.2688
" />
<path d="M211.3443 122.2688
L211.2839 122.3293
" />
<path d="M211.2839 122.3293
L211.2234 122.3596
" />
<path d="M211.2234 122.3596
L211.1024 122.3596
" />
<path d="M211.1024 122.3596
L211.0419 122.3293
" />
<path d="M211.0419 122.3293
L210.9815 122.2688
" />
<path d="M210.9815 122.2688
L210.9512 122.1479
" />
<path d="M210.9512 122.1479
L210.9512 121.9362
" />
<path d="M210.9512 121.9362
L210.9815 121.8153
" />
<path d="M210.9815 121.8153
L211.0419 121.7548
" />
<path d="M211.0419 121.7548
L211.1024 121.7246
" />
<path d="M211.6467 122.3596
L211.6467 121.7246
" />
<path d="M212.0096 122.3596
L211.7374 121.9967
" />
<path d="M212.0096 121.7246
L211.6467 122.0874
" />
</g><g transform="rotate(-90.000000 209.7278 96.6216)">
<text x="209.7278" y="96.9391"
textLength="1.3426" font-size="0.8467" lengthAdjust="spacingAndGlyphs"
text-anchor="middle" opacity="0" stroke-opacity="0">J2</text>
</g>
<g class="stroked-text"><desc>J2</desc>
<path d="M209.3800 96.8333
L209.8335 96.8333
" />
<path d="M209.8335 96.8333
L209.9242 96.8635
" />
<path d="M209.9242 96.8635
L209.9847 96.9240
" />
<path d="M209.9847 96.9240
L210.0150 97.0147
" />
<path d="M210.0150 97.0147
L210.0150 97.0752
" />
<path d="M209.4404 96.5611
L209.4102 96.5309
" />
<path d="M209.4102 96.5309
L209.3800 96.4704
" />
<path d="M209.3800 96.4704
L209.3800 96.3192
" />
<path d="M209.3800 96.3192
L209.4102 96.2587
" />
<path d="M209.4102 96.2587
L209.4404 96.2285
" />
<path d="M209.4404 96.2285
L209.5009 96.1983
" />
<path d="M209.5009 96.1983
L209.5614 96.1983
" />
<path d="M209.5614 96.1983
L209.6521 96.2285
" />
<path d="M209.6521 96.2285
L210.0150 96.5914
" />
<path d="M210.0150 96.5914
L210.0150 96.1983
" />
</g><g transform="rotate(-90.000000 230.5304 113.8682)">
<text x="230.5304" y="114.1857"
textLength="1.4938" font-size="0.8467" lengthAdjust="spacingAndGlyphs"
text-anchor="middle" opacity="0" stroke-opacity="0">D5</text>
</g>
<g class="stroked-text"><desc>D5</desc>
<path d="M230.8176 114.3369
L230.1826 114.3369
" />
<path d="M230.1826 114.3369
L230.1826 114.1857
" />
<path d="M230.1826 114.1857
L230.2128 114.0950
" />
<path d="M230.2128 114.0950
L230.2733 114.0345
" />
<path d="M230.2733 114.0345
L230.3337 114.0043
" />
<path d="M230.3337 114.0043
L230.4547 113.9740
" />
<path d="M230.4547 113.9740
L230.5454 113.9740
" />
<path d="M230.5454 113.9740
L230.6664 114.0043
" />
<path d="M230.6664 114.0043
L230.7268 114.0345
" />
<path d="M230.7268 114.0345
L230.7873 114.0950
" />
<path d="M230.7873 114.0950
L230.8176 114.1857
" />
<path d="M230.8176 114.1857
L230.8176 114.3369
" />
<path d="M230.1826 113.3995
L230.1826 113.7019
" />
<path d="M230.1826 113.7019
L230.4849 113.7321
" />
<path d="M230.4849 113.7321
L230.4547 113.7019
" />
<path d="M230.4547 113.7019
L230.4245 113.6414
" />
<path d="M230.4245 113.6414
L230.4245 113.4902
" />
<path d="M230.4245 113.4902
L230.4547 113.4297
" />
<path d="M230.4547 113.4297
L230.4849 113.3995
" />
<path d="M230.4849 113.3995
L230.5454 113.3693
" />
<path d="M230.5454 113.3693
L230.6966 113.3693
" />
<path d="M230.6966 113.3693
L230.7571 113.3995
" />
<path d="M230.7571 113.3995
L230.7873 113.4297
" />
<path d="M230.7873 113.4297
L230.8176 113.4902
" />
<path d="M230.8176 113.4902
L230.8176 113.6414
" />
<path d="M230.8176 113.6414
L230.7873 113.7019
" />
<path d="M230.7873 113.7019
L230.7571 113.7321
" />
</g><text x="215.0110" y="118.0465"
textLength="1.4938" font-size="0.8467" lengthAdjust="spacingAndGlyphs"
text-anchor="middle" opacity="0" stroke-opacity="0">D4</text>
<g class="stroked-text"><desc>D4</desc>
<path d="M214.5423 118.0162
L214.5423 117.3812
" />
<path d="M214.5423 117.3812
L214.6935 117.3812
" />
<path d="M214.6935 117.3812
L214.7842 117.4114
" />
<path d="M214.7842 117.4114
L214.8447 117.4719
" />
<path d="M214.8447 117.4719
L214.8749 117.5323
" />
<path d="M214.8749 117.5323
L214.9052 117.6533
" />
<path d="M214.9052 117.6533
L214.9052 117.7440
" />
<path d="M214.9052 117.7440
L214.8749 117.8650
" />
<path d="M214.8749 117.8650
L214.8447 117.9254
" />
<path d="M214.8447 117.9254
L214.7842 117.9859
" />
<path d="M214.7842 117.9859
L214.6935 118.0162
" />
<path d="M214.6935 118.0162
L214.5423 118.0162
" />
<path d="M215.4495 117.5928
L215.4495 118.0162
" />
<path d="M215.2983 117.3509
L215.1471 117.8045
" />
<path d="M215.1471 117.8045
L215.5402 117.8045
" />
</g><text x="215.0364" y="122.3899"
textLength="1.2216" font-size="0.8467" lengthAdjust="spacingAndGlyphs"
text-anchor="middle" opacity="0" stroke-opacity="0">HI</text>
<g class="stroked-text"><desc>HI</desc>
<path d="M214.7038 122.3596
L214.7038 121.7246
" />
<path d="M214.7038 122.0269
L215.0666 122.0269
" />
<path d="M215.0666 122.3596
L215.0666 121.7246
" />
<path d="M215.3690 122.3596
L215.3690 121.7246
" />
</g></g>
<g style="fill:none; 
stroke:#000000; stroke-width:0.1200; stroke-opacity:1; 
stroke-linecap:round; stroke-linejoin:round;">
<path d="M227.2940 102.3620
L227.2940 101.5620
" />
<path d="M227.2940 102.3620
L227.2940 103.1620
" />
<path d="M230.4140 102.3620
L230.4140 101.5620
" />
<path d="M230.4140 102.3620
L230.4140 103.1620
" />
<path style="fill:#000000; fill-opacity:1.0000; 
stroke:#000000; stroke-width:0.1200; stroke-opacity:1; 
stroke-linecap:round; stroke-linejoin:round;fill-rule:evenodd;"
d="M 230.6940,101.3020
230.3640,101.0620
230.6940,100.8220
Z" /> 
</g>
<g style="fill:none; 
stroke:#000000; stroke-width:0.1200; stroke-opacity:1; 
stroke-linecap:round; stroke-linejoin:round;">
<path d="M228.2326 105.5350
L227.9514 105.5350
" />
<path d="M228.2326 106.5550
L227.9514 106.5550
" />
<path d="M208.9420 118.7070
L208.9420 120.9920
" />
<path d="M208.9420 120.9920
L210.4120 120.9920
" />
<path d="M210.4120 120.9920
L210.4120 118.7070
" />
<path d="M212.4980 118.7070
L212.4980 120.9920
" />
<path d="M212.4980 120.9920
L213.9680 120.9920
" />
<path d="M213.9680 120.9920
L213.9680 118.7070
" />
<path d="M226.4390 113.0164
L226.4390 113.2976
" />
<path d="M227.4590 113.0164
L227.4590 113.2976
" />
<path d="M230.4137 109.6010
L230.4137 108.9510
" />
<path d="M230.4137 109.6010
L230.4137 110.2510
" />
<path d="M227.2937 109.6010
L227.2937 108.9510
" />
<path d="M227.2937 109.6010
L227.2937 110.2510
" />
<path style="fill:#000000; fill-opacity:1.0000; 
stroke:#000000; stroke-width:0.1200; stroke-opacity:1; 
stroke-linecap:round; stroke-linejoin:round;fill-rule:evenodd;"
d="M 227.3437,110.7635
227.0137,111.0035
227.0137,110.5235
Z" /> 
</g>
<g style="fill:none; 
stroke:#000000; stroke-width:0.1000; stroke-opacity:1; 
stroke-linecap:round; stroke-linejoin:round;">
<path d="M208.3450 98.9400
L226.1450 98.9400
" />
<path d="M208.3450 115.6900
L226.1450 115.6900
" />
<path d="M226.1450 98.9400
L226.1450 115.6900
" />
</g>
<g style="fill:none; 
stroke:#000000; stroke-width:0.1200; stroke-opacity:1; 
stroke-linecap:round; stroke-linejoin:round;">
<path d="M210.7200 118.7070
L210.7200 120.9920
" />
<path d="M210.7200 120.9920
L212.1900 120.9920
" />
<path d="M212.1900 120.9920
L212.1900 118.7070
" />
<path d="M208.9820 95.3100
L208.9820 93.9800
" />
<path d="M210.3120 95.3100
L208.9820 95.3100
" />
<path d="M211.5820 92.6500
L224.3420 92.6500
" />
<path d="M211.5820 95.3100
L211.5820 92.6500
" />
<path d="M211.5820 95.3100
L224.3420 95.3100
" />
<path d="M224.3420 95.3100
L224.3420 92.6500
" />
<path d="M227.8540 111.6074
L227.8540 115.4674
" />
<path d="M229.8540 111.6074
L229.8540 115.4674
" />
<path d="M229.8540 111.6074
L227.8540 111.6074
" />
<path d="M214.2760 118.7070
L214.2760 120.9920
" />
<path d="M214.2760 120.9920
L215.7460 120.9920
" />
<path d="M215.7460 120.9920
L215.7460 118.7070
" />
</g>
<g style="fill:#000000; fill-opacity:1.0000; stroke:none;">
<circle cx="224.0280" cy="97.1550" r="1.2700" /> 
<path style="fill:#000000; fill-opacity:1.0000; stroke:none;fill-rule:evenodd;"
d="M 229.9540,100.5620
230.0114,100.5734
230.0601,100.6059
230.0926,100.6546
230.1040,100.7120
230.1040,101.7370
230.0926,101.7944
230.0601,101.8431
230.0114,101.8756
229.9540,101.8870
229.6540,101.8870
229.5966,101.8756
229.5479,101.8431
229.5154,101.7944
229.5040,101.7370
229.5040,100.7120
229.5154,100.6546
229.5479,100.6059
229.5966,100.5734
229.6540,100.5620
Z" /> 
<path style="fill:#000000; fill-opacity:1.0000; stroke:none;fill-rule:evenodd;"
d="M 229.0040,100.5620
229.0614,100.5734
229.1101,100.6059
229.1426,100.6546
229.1540,100.7120
229.1540,101.7370
229.1426,101.7944
229.1101,101.8431
229.0614,101.8756
229.0040,101.8870
228.7040,101.8870
228.6466,101.8756
228.5979,101.8431
228.5654,101.7944
228.5540,101.7370
228.5540,100.7120
228.5654,100.6546
228.5979,100.6059
228.6466,100.5734
228.7040,100.5620
Z" /> 
<path style="fill:#000000; fill-opacity:1.0000; stroke:none;fill-rule:evenodd;"
d="M 228.0540,100.5620
228.1114,100.5734
228.1601,100.6059
228.1926,100.6546
228.2040,100.7120
228.2040,101.7370
228.1926,101.7944
228.1601,101.8431
228.1114,101.8756
228.0540,101.8870
227.7540,101.8870
227.6966,101.8756
227.6479,101.8431
227.6154,101.7944
227.6040,101.7370
227.6040,100.7120
227.6154,100.6546
227.6479,100.6059
227.6966,100.5734
227.7540,100.5620
Z" /> 
<path style="fill:#000000; fill-opacity:1.0000; stroke:none;fill-rule:evenodd;"
d="M 228.0540,102.8370
228.1114,102.8484
228.1601,102.8809
228.1926,102.9296
228.2040,102.9870
228.2040,104.0120
228.1926,104.0694
228.1601,104.1181
228.1114,104.1506
228.0540,104.1620
227.7540,104.1620
227.6966,104.1506
227.6479,104.1181
227.6154,104.0694
227.6040,104.0120
227.6040,102.9870
227.6154,102.9296
227.6479,102.8809
227.6966,102.8484
227.7540,102.8370
Z" /> 
<path style="fill:#000000; fill-opacity:1.0000; stroke:none;fill-rule:evenodd;"
d="M 229.9540,102.8370
230.0114,102.8484
230.0601,102.8809
230.0926,102.9296
230.1040,102.9870
230.1040,104.0120
230.0926,104.0694
230.0601,104.1181
230.0114,104.1506
229.9540,104.1620
229.6540,104.1620
229.5966,104.1506
229.5479,104.1181
229.5154,104.0694
229.5040,104.0120
229.5040,102.9870
229.5154,102.9296
229.5479,102.8809
229.5966,102.8484
229.6540,102.8370
Z" /> 
</g>
<g style="fill:#000000; fill-opacity:1.0000; stroke:none;">
<circle cx="228.6000" cy="120.0150" r="1.6000" /> 
<path style="fill:#000000; fill-opacity:1.0000; stroke:none;fill-rule:evenodd;"
d="M 229.3170,106.2950
229.2999,106.3811
229.2511,106.4541
229.1781,106.5029
229.0920,106.5200
228.6420,106.5200
228.5559,106.5029
228.4829,106.4541
228.4341,106.3811
228.4170,106.2950
228.4170,105.7950
228.4341,105.7089
228.4829,105.6359
228.5559,105.5871
228.6420,105.5700
229.0920,105.5700
229.1781,105.5871
229.2511,105.6359
229.2999,105.7089
229.3170,105.7950
Z" /> 
<path style="fill:#000000; fill-opacity:1.0000; stroke:none;fill-rule:evenodd;"
d="M 227.7670,106.2950
227.7499,106.3811
227.7011,106.4541
227.6281,106.5029
227.5420,106.5200
227.0920,106.5200
227.0059,106.5029
226.9329,106.4541
226.8841,106.3811
226.8670,106.2950
226.8670,105.7950
226.8841,105.7089
226.9329,105.6359
227.0059,105.5871
227.0920,105.5700
227.5420,105.5700
227.6281,105.5871
227.7011,105.6359
227.7499,105.7089
227.7670,105.7950
Z" /> 
<path style="fill:#000000; fill-opacity:1.0000; stroke:none;fill-rule:evenodd;"
d="M 209.4207,120.7320
209.3370,120.7153
209.2661,120.6679
209.2187,120.5970
209.2020,120.5132
209.2020,120.0757
209.2187,119.9920
209.2661,119.9211
209.3370,119.8737
209.4207,119.8570
209.9332,119.8570
210.0170,119.8737
210.0879,119.9211
210.1353,119.9920
210.1520,120.0757
210.1520,120.5132
210.1353,120.5970
210.0879,120.6679
210.0170,120.7153
209.9332,120.7320
Z" /> 
<path style="fill:#000000; fill-opacity:1.0000; stroke:none;fill-rule:evenodd;"
d="M 209.4207,119.1570
209.3370,119.1403
209.2661,119.0929
209.2187,119.0220
209.2020,118.9382
209.2020,118.5007
209.2187,118.4170
209.2661,118.3461
209.3370,118.2987
209.4207,118.2820
209.9332,118.2820
210.0170,118.2987
210.0879,118.3461
210.1353,118.4170
210.1520,118.5007
210.1520,118.9382
210.1353,119.0220
210.0879,119.0929
210.0170,119.1403
209.9332,119.1570
Z" /> 
<path style="fill:#000000; fill-opacity:1.0000; stroke:none;fill-rule:evenodd;"
d="M 212.9767,120.7320
212.8930,120.7153
212.8221,120.6679
212.7747,120.5970
212.7580,120.5132
212.7580,120.0757
212.7747,119.9920
212.8221,119.9211
212.8930,119.8737
212.9767,119.8570
213.4892,119.8570
213.5730,119.8737
213.6439,119.9211
213.6913,119.9920
213.7080,120.0757
213.7080,120.5132
213.6913,120.5970
213.6439,120.6679
213.5730,120.7153
213.4892,120.7320
Z" /> 
<path style="fill:#000000; fill-opacity:1.0000; stroke:none;fill-rule:evenodd;"
d="M 212.9767,119.1570
212.8930,119.1403
212.8221,119.0929
212.7747,119.0220
212.7580,118.9382
212.7580,118.5007
212.7747,118.4170
212.8221,118.3461
212.8930,118.2987
212.9767,118.2820
213.4892,118.2820
213.5730,118.2987
213.6439,118.3461
213.6913,118.4170
213.7080,118.5007
213.7080,118.9382
213.6913,119.0220
213.6439,119.0929
213.5730,119.1403
213.4892,119.1570
Z" /> 
<path style="fill:#000000; fill-opacity:1.0000; stroke:none;fill-rule:evenodd;"
d="M 227.1990,111.9320
227.2851,111.9491
227.3581,111.9979
227.4069,112.0709
227.4240,112.1570
227.4240,112.6070
227.4069,112.6931
227.3581,112.7661
227.2851,112.8149
227.1990,112.8320
226.6990,112.8320
226.6129,112.8149
226.5399,112.7661
226.4911,112.6931
226.4740,112.6070
226.4740,112.1570
226.4911,112.0709
226.5399,111.9979
226.6129,111.9491
226.6990,111.9320
Z" /> 
<path style="fill:#000000; fill-opacity:1.0000; stroke:none;fill-rule:evenodd;"
d="M 227.1990,113.4820
227.2851,113.4991
227.3581,113.5479
227.4069,113.6209
227.4240,113.7070
227.4240,114.1570
227.4069,114.2431
227.3581,114.3161
227.2851,114.3649
227.1990,114.3820
226.6990,114.3820
226.6129,114.3649
226.5399,114.3161
226.4911,114.2431
226.4740,114.1570
226.4740,113.7070
226.4911,113.6209
226.5399,113.5479
226.6129,113.4991
226.6990,113.4820
Z" /> 
<path style="fill:#000000; fill-opacity:1.0000; stroke:none;fill-rule:evenodd;"
d="M 227.7537,111.2760
227.6963,111.2646
227.6477,111.2321
227.6152,111.1834
227.6037,111.1260
227.6037,109.9510
227.6152,109.8936
227.6477,109.8449
227.6963,109.8124
227.7537,109.8010
228.0537,109.8010
228.1111,109.8124
228.1598,109.8449
228.1923,109.8936
228.2037,109.9510
228.2037,111.1260
228.1923,111.1834
228.1598,111.2321
228.1111,111.2646
228.0537,111.2760
Z" /> 
<path style="fill:#000000; fill-opacity:1.0000; stroke:none;fill-rule:evenodd;"
d="M 229.6537,111.2760
229.5963,111.2646
229.5477,111.2321
229.5152,111.1834
229.5037,111.1260
229.5037,109.9510
229.5152,109.8936
229.5477,109.8449
229.5963,109.8124
229.6537,109.8010
229.9537,109.8010
230.0111,109.8124
230.0598,109.8449
230.0923,109.8936
230.1037,109.9510
230.1037,111.1260
230.0923,111.1834
230.0598,111.2321
230.0111,111.2646
229.9537,111.2760
Z" /> 
<path style="fill:#000000; fill-opacity:1.0000; stroke:none;fill-rule:evenodd;"
d="M 228.7037,109.4010
228.6463,109.3896
228.5977,109.3571
228.5652,109.3084
228.5537,109.2510
228.5537,108.0760
228.5652,108.0186
228.5977,107.9699
228.6463,107.9374
228.7037,107.9260
229.0037,107.9260
229.0611,107.9374
229.1098,107.9699
229.1423,108.0186
229.1537,108.0760
229.1537,109.2510
229.1423,109.3084
229.1098,109.3571
229.0611,109.3896
229.0037,109.4010
Z" /> 
</g>
<g style="fill:#000000; fill-opacity:1.0000; stroke:none;">
<circle cx="211.9450" cy="100.8350" r="1.7000" /> 
</g>
<g style="fill:#000000; fill-opacity:1.0000; stroke:none;">
<circle cx="211.9450" cy="113.7950" r="1.7000" /> 
<path style="fill:#000000; fill-opacity:1.0000; stroke:none;fill-rule:evenodd;"
d="M 225.1787,111.5700
225.2251,111.5792
225.2645,111.6055
225.2908,111.6449
225.3000,111.6913
225.3000,113.0987
225.2908,113.1451
225.2645,113.1845
225.2251,113.2108
225.1787,113.2200
220.0913,113.2200
220.0449,113.2108
220.0055,113.1845
219.9792,113.1451
219.9700,113.0987
219.9700,111.6913
219.9792,111.6449
220.0055,111.6055
220.0449,111.5792
220.0913,111.5700
Z" /> 
<path style="fill:#000000; fill-opacity:1.0000; stroke:none;fill-rule:evenodd;"
d="M 225.1787,109.0300
225.2251,109.0392
225.2645,109.0655
225.2908,109.1049
225.3000,109.1513
225.3000,110.5587
225.2908,110.6051
225.2645,110.6445
225.2251,110.6708
225.1787,110.6800
220.0913,110.6800
220.0449,110.6708
220.0055,110.6445
219.9792,110.6051
219.9700,110.5587
219.9700,109.1513
219.9792,109.1049
220.0055,109.0655
220.0449,109.0392
220.0913,109.0300
Z" /> 
<path style="fill:#000000; fill-opacity:1.0000; stroke:none;fill-rule:evenodd;"
d="M 225.1787,106.4900
225.2251,106.4992
225.2645,106.5255
225.2908,106.5649
225.3000,106.6113
225.3000,108.0187
225.2908,108.0651
225.2645,108.1045
225.2251,108.1308
225.1787,108.1400
220.0913,108.1400
220.0449,108.1308
220.0055,108.1045
219.9792,108.0651
219.9700,108.0187
219.9700,106.6113
219.9792,106.5649
220.0055,106.5255
220.0449,106.4992
220.0913,106.4900
Z" /> 
<path style="fill:#000000; fill-opacity:1.0000; stroke:none;fill-rule:evenodd;"
d="M 225.1787,103.9500
225.2251,103.9592
225.2645,103.9855
225.2908,104.0249
225.3000,104.0713
225.3000,105.4787
225.2908,105.5251
225.2645,105.5645
225.2251,105.5908
225.1787,105.6000
220.0913,105.6000
220.0449,105.5908
220.0055,105.5645
219.9792,105.5251
219.9700,105.4787
219.9700,104.0713
219.9792,104.0249
220.0055,103.9855
220.0449,103.9592
220.0913,103.9500
Z" /> 
<path style="fill:#000000; fill-opacity:1.0000; stroke:none;fill-rule:evenodd;"
d="M 225.1787,101.4100
225.2251,101.4192
225.2645,101.4455
225.2908,101.4849
225.3000,101.5313
225.3000,102.9387
225.2908,102.9851
225.2645,103.0245
225.2251,103.0508
225.1787,103.0600
220.0913,103.0600
220.0449,103.0508
220.0055,103.0245
219.9792,102.9851
219.9700,102.9387
219.9700,101.5313
219.9792,101.4849
220.0055,101.4455
220.0449,101.4192
220.0913,101.4100
Z" /> 
<path style="fill:#000000; fill-opacity:1.0000; stroke:none;fill-rule:evenodd;"
d="M 211.1987,120.7320
211.1150,120.7153
211.0441,120.6679
210.9967,120.5970
210.9800,120.5132
210.9800,120.0757
210.9967,119.9920
211.0441,119.9211
211.1150,119.8737
211.1987,119.8570
211.7112,119.8570
211.7950,119.8737
211.8659,119.9211
211.9133,119.9920
211.9300,120.0757
211.9300,120.5132
211.9133,120.5970
211.8659,120.6679
211.7950,120.7153
211.7112,120.7320
Z" /> 
<path style="fill:#000000; fill-opacity:1.0000; stroke:none;fill-rule:evenodd;"
d="M 211.1987,119.1570
211.1150,119.1403
211.0441,119.0929
210.9967,119.0220
210.9800,118.9382
210.9800,118.5007
210.9967,118.4170
211.0441,118.3461
211.1150,118.2987
211.1987,118.2820
211.7112,118.2820
211.7950,118.2987
211.8659,118.3461
211.9133,118.4170
211.9300,118.5007
211.9300,118.9382
211.9133,119.0220
211.8659,119.0929
211.7950,119.1403
211.7112,119.1570
Z" /> 
<path style="fill:#000000; fill-opacity:1.0000; stroke:none;fill-rule:evenodd;"
d="M 211.1620,94.8300
209.4620,94.8300
209.4620,93.1300
211.1620,93.1300
Z" /> 
</g>
<g style="fill:#000000; fill-opacity:1.0000; stroke:none;">
<circle cx="212.8520" cy="93.9800" r="0.8500" /> 
<circle cx="215.3920" cy="93.9800" r="0.8500" /> 
<circle cx="217.9320" cy="93.9800" r="0.8500" /> 
<circle cx="220.4720" cy="93.9800" r="0.8500" /> 
<circle cx="223.0120" cy="93.9800" r="0.8500" /> 
</g>
<g style="fill:none; 
stroke:#000000; stroke-width:2.5400; stroke-opacity:1; 
stroke-linecap:round; stroke-linejoin:round;">
<path d="M224.1280 117.7290
L224.1280 117.2210
" />
<path style="fill:#000000; fill-opacity:1.0000; stroke:none;fill-rule:evenodd;"
d="M 229.1540,111.8674
229.2497,111.8864
229.3308,111.9406
229.3850,112.0217
229.4040,112.1174
229.4040,112.7174
229.3850,112.8131
229.3308,112.8942
229.2497,112.9484
229.1540,112.9674
228.5540,112.9674
228.4583,112.9484
228.3772,112.8942
228.3230,112.8131
228.3040,112.7174
228.3040,112.1174
228.3230,112.0217
228.3772,111.9406
228.4583,111.8864
228.5540,111.8674
Z" /> 
<path style="fill:#000000; fill-opacity:1.0000; stroke:none;fill-rule:evenodd;"
d="M 229.1540,114.6674
229.2497,114.6864
229.3308,114.7406
229.3850,114.8217
229.4040,114.9174
229.4040,115.5174
229.3850,115.6131
229.3308,115.6942
229.2497,115.7484
229.1540,115.7674
228.5540,115.7674
228.4583,115.7484
228.3772,115.6942
228.3230,115.6131
228.3040,115.5174
228.3040,114.9174
228.3230,114.8217
228.3772,114.7406
228.4583,114.6864
228.5540,114.6674
Z" /> 
<path style="fill:#000000; fill-opacity:1.0000; stroke:none;fill-rule:evenodd;"
d="M 214.7548,120.7320
214.6710,120.7153
214.6001,120.6679
214.5527,120.5970
214.5360,120.5132
214.5360,120.0757
214.5527,119.9920
214.6001,119.9211
214.6710,119.8737
214.7548,119.8570
215.2672,119.8570
215.3510,119.8737
215.4219,119.9211
215.4693,119.9920
215.4860,120.0757
215.4860,120.5132
215.4693,120.5970
215.4219,120.6679
215.3510,120.7153
215.2672,120.7320
Z" /> 
<path style="fill:#000000; fill-opacity:1.0000; stroke:none;fill-rule:evenodd;"
d="M 214.7548,119.1570
214.6710,119.1403
214.6001,119.0929
214.5527,119.0220
214.5360,118.9382
214.5360,118.5007
214.5527,118.4170
214.6001,118.3461
214.6710,118.2987
214.7548,118.2820
215.2672,118.2820
215.3510,118.2987
215.4219,118.3461
215.4693,118.4170
215.4860,118.5007
215.4860,118.9382
215.4693,119.0220
215.4219,119.0929
215.3510,119.1403
215.2672,119.1570
Z" /> 
</g>
<g style="fill:#000000; fill-opacity:1.0000; stroke:none;">
<circle cx="228.6000" cy="94.6150" r="1.6000" /> 
</g>
<g style="fill:none; 
stroke:#000000; stroke-width:0.0500; stroke-opacity:1; 
stroke-linecap:round; stroke-linejoin:round;">
<path d="M230.5050 123.1900 A1.2700 1.2700 0.0 0 0 231.7750 121.9200" />
<path d="M208.9150 91.4400 A1.2700 1.2700 0.0 0 0 207.6450 92.7100" />
<path d="M231.7750 92.7100 A1.2700 1.2700 0.0 0 0 230.5050 91.4400" />
<path d="M231.7750 121.9200
L231.7750 92.7100
" />
<path d="M207.6450 92.7100
L207.6450 121.9200
" />
<path d="M208.9150 123.1900
L230.5050 123.1900
" />
<path d="M230.5050 91.4400
L208.9150 91.4400
" />
<path d="M207.6450 121.9200 A1.2700 1.2700 0.0 0 0 208.9150 123.1900" />
</g> 
</svg>
