%TF.GenerationSoftware,KiCad,Pcbnew,8.0.4-8.0.4-0~ubuntu22.04.1*%
%TF.CreationDate,2024-08-24T22:10:27-07:00*%
%TF.ProjectId,mag-encoder,6d61672d-656e-4636-9f64-65722e6b6963,0*%
%TF.SameCoordinates,Original*%
%TF.FileFunction,Legend,Bot*%
%TF.FilePolarity,Positive*%
%FSLAX46Y46*%
G04 Gerber Fmt 4.6, Leading zero omitted, Abs format (unit mm)*
G04 Created by KiCad (PCBNEW 8.0.4-8.0.4-0~ubuntu22.04.1) date 2024-08-24 22:10:27*
%MOMM*%
%LPD*%
G01*
G04 APERTURE LIST*
%ADD10C,0.152400*%
%ADD11C,0.127000*%
%ADD12C,0.120000*%
G04 APERTURE END LIST*
D10*
X223620263Y-122619677D02*
X223662596Y-122662011D01*
X223662596Y-122662011D02*
X223789596Y-122704344D01*
X223789596Y-122704344D02*
X223874263Y-122704344D01*
X223874263Y-122704344D02*
X224001263Y-122662011D01*
X224001263Y-122662011D02*
X224085930Y-122577344D01*
X224085930Y-122577344D02*
X224128263Y-122492677D01*
X224128263Y-122492677D02*
X224170596Y-122323344D01*
X224170596Y-122323344D02*
X224170596Y-122196344D01*
X224170596Y-122196344D02*
X224128263Y-122027011D01*
X224128263Y-122027011D02*
X224085930Y-121942344D01*
X224085930Y-121942344D02*
X224001263Y-121857677D01*
X224001263Y-121857677D02*
X223874263Y-121815344D01*
X223874263Y-121815344D02*
X223789596Y-121815344D01*
X223789596Y-121815344D02*
X223662596Y-121857677D01*
X223662596Y-121857677D02*
X223620263Y-121900011D01*
X223281596Y-122662011D02*
X223154596Y-122704344D01*
X223154596Y-122704344D02*
X222942930Y-122704344D01*
X222942930Y-122704344D02*
X222858263Y-122662011D01*
X222858263Y-122662011D02*
X222815930Y-122619677D01*
X222815930Y-122619677D02*
X222773596Y-122535011D01*
X222773596Y-122535011D02*
X222773596Y-122450344D01*
X222773596Y-122450344D02*
X222815930Y-122365677D01*
X222815930Y-122365677D02*
X222858263Y-122323344D01*
X222858263Y-122323344D02*
X222942930Y-122281011D01*
X222942930Y-122281011D02*
X223112263Y-122238677D01*
X223112263Y-122238677D02*
X223196930Y-122196344D01*
X223196930Y-122196344D02*
X223239263Y-122154011D01*
X223239263Y-122154011D02*
X223281596Y-122069344D01*
X223281596Y-122069344D02*
X223281596Y-121984677D01*
X223281596Y-121984677D02*
X223239263Y-121900011D01*
X223239263Y-121900011D02*
X223196930Y-121857677D01*
X223196930Y-121857677D02*
X223112263Y-121815344D01*
X223112263Y-121815344D02*
X222900596Y-121815344D01*
X222900596Y-121815344D02*
X222773596Y-121857677D01*
X224636262Y-116803077D02*
X224720929Y-116760744D01*
X224720929Y-116760744D02*
X224847929Y-116760744D01*
X224847929Y-116760744D02*
X224974929Y-116803077D01*
X224974929Y-116803077D02*
X225059596Y-116887744D01*
X225059596Y-116887744D02*
X225101929Y-116972411D01*
X225101929Y-116972411D02*
X225144262Y-117141744D01*
X225144262Y-117141744D02*
X225144262Y-117268744D01*
X225144262Y-117268744D02*
X225101929Y-117438077D01*
X225101929Y-117438077D02*
X225059596Y-117522744D01*
X225059596Y-117522744D02*
X224974929Y-117607411D01*
X224974929Y-117607411D02*
X224847929Y-117649744D01*
X224847929Y-117649744D02*
X224763262Y-117649744D01*
X224763262Y-117649744D02*
X224636262Y-117607411D01*
X224636262Y-117607411D02*
X224593929Y-117565077D01*
X224593929Y-117565077D02*
X224593929Y-117268744D01*
X224593929Y-117268744D02*
X224763262Y-117268744D01*
X224212929Y-117649744D02*
X224212929Y-116760744D01*
X224212929Y-116760744D02*
X223704929Y-117649744D01*
X223704929Y-117649744D02*
X223704929Y-116760744D01*
X223281596Y-117649744D02*
X223281596Y-116760744D01*
X223281596Y-116760744D02*
X223069929Y-116760744D01*
X223069929Y-116760744D02*
X222942929Y-116803077D01*
X222942929Y-116803077D02*
X222858263Y-116887744D01*
X222858263Y-116887744D02*
X222815929Y-116972411D01*
X222815929Y-116972411D02*
X222773596Y-117141744D01*
X222773596Y-117141744D02*
X222773596Y-117268744D01*
X222773596Y-117268744D02*
X222815929Y-117438077D01*
X222815929Y-117438077D02*
X222858263Y-117522744D01*
X222858263Y-117522744D02*
X222942929Y-117607411D01*
X222942929Y-117607411D02*
X223069929Y-117649744D01*
X223069929Y-117649744D02*
X223281596Y-117649744D01*
X225609929Y-127784344D02*
X225609929Y-126895344D01*
X225609929Y-126895344D02*
X225313596Y-127530344D01*
X225313596Y-127530344D02*
X225017262Y-126895344D01*
X225017262Y-126895344D02*
X225017262Y-127784344D01*
X224593929Y-127784344D02*
X224593929Y-126895344D01*
X224212929Y-127742011D02*
X224085929Y-127784344D01*
X224085929Y-127784344D02*
X223874263Y-127784344D01*
X223874263Y-127784344D02*
X223789596Y-127742011D01*
X223789596Y-127742011D02*
X223747263Y-127699677D01*
X223747263Y-127699677D02*
X223704929Y-127615011D01*
X223704929Y-127615011D02*
X223704929Y-127530344D01*
X223704929Y-127530344D02*
X223747263Y-127445677D01*
X223747263Y-127445677D02*
X223789596Y-127403344D01*
X223789596Y-127403344D02*
X223874263Y-127361011D01*
X223874263Y-127361011D02*
X224043596Y-127318677D01*
X224043596Y-127318677D02*
X224128263Y-127276344D01*
X224128263Y-127276344D02*
X224170596Y-127234011D01*
X224170596Y-127234011D02*
X224212929Y-127149344D01*
X224212929Y-127149344D02*
X224212929Y-127064677D01*
X224212929Y-127064677D02*
X224170596Y-126980011D01*
X224170596Y-126980011D02*
X224128263Y-126937677D01*
X224128263Y-126937677D02*
X224043596Y-126895344D01*
X224043596Y-126895344D02*
X223831929Y-126895344D01*
X223831929Y-126895344D02*
X223704929Y-126937677D01*
X223154596Y-126895344D02*
X222985262Y-126895344D01*
X222985262Y-126895344D02*
X222900596Y-126937677D01*
X222900596Y-126937677D02*
X222815929Y-127022344D01*
X222815929Y-127022344D02*
X222773596Y-127191677D01*
X222773596Y-127191677D02*
X222773596Y-127488011D01*
X222773596Y-127488011D02*
X222815929Y-127657344D01*
X222815929Y-127657344D02*
X222900596Y-127742011D01*
X222900596Y-127742011D02*
X222985262Y-127784344D01*
X222985262Y-127784344D02*
X223154596Y-127784344D01*
X223154596Y-127784344D02*
X223239262Y-127742011D01*
X223239262Y-127742011D02*
X223323929Y-127657344D01*
X223323929Y-127657344D02*
X223366262Y-127488011D01*
X223366262Y-127488011D02*
X223366262Y-127191677D01*
X223366262Y-127191677D02*
X223323929Y-127022344D01*
X223323929Y-127022344D02*
X223239262Y-126937677D01*
X223239262Y-126937677D02*
X223154596Y-126895344D01*
X224932597Y-119275344D02*
X224382263Y-119275344D01*
X224382263Y-119275344D02*
X224678597Y-119614011D01*
X224678597Y-119614011D02*
X224551597Y-119614011D01*
X224551597Y-119614011D02*
X224466930Y-119656344D01*
X224466930Y-119656344D02*
X224424597Y-119698677D01*
X224424597Y-119698677D02*
X224382263Y-119783344D01*
X224382263Y-119783344D02*
X224382263Y-119995011D01*
X224382263Y-119995011D02*
X224424597Y-120079677D01*
X224424597Y-120079677D02*
X224466930Y-120122011D01*
X224466930Y-120122011D02*
X224551597Y-120164344D01*
X224551597Y-120164344D02*
X224805597Y-120164344D01*
X224805597Y-120164344D02*
X224890263Y-120122011D01*
X224890263Y-120122011D02*
X224932597Y-120079677D01*
X224128263Y-119275344D02*
X223831930Y-120164344D01*
X223831930Y-120164344D02*
X223535596Y-119275344D01*
X223323930Y-119275344D02*
X222773596Y-119275344D01*
X222773596Y-119275344D02*
X223069930Y-119614011D01*
X223069930Y-119614011D02*
X222942930Y-119614011D01*
X222942930Y-119614011D02*
X222858263Y-119656344D01*
X222858263Y-119656344D02*
X222815930Y-119698677D01*
X222815930Y-119698677D02*
X222773596Y-119783344D01*
X222773596Y-119783344D02*
X222773596Y-119995011D01*
X222773596Y-119995011D02*
X222815930Y-120079677D01*
X222815930Y-120079677D02*
X222858263Y-120122011D01*
X222858263Y-120122011D02*
X222942930Y-120164344D01*
X222942930Y-120164344D02*
X223196930Y-120164344D01*
X223196930Y-120164344D02*
X223281596Y-120122011D01*
X223281596Y-120122011D02*
X223323930Y-120079677D01*
X236177665Y-114461408D02*
X236177665Y-113572408D01*
X236177665Y-113572408D02*
X235881332Y-114207408D01*
X235881332Y-114207408D02*
X235584998Y-113572408D01*
X235584998Y-113572408D02*
X235584998Y-114461408D01*
X235203998Y-114207408D02*
X234780665Y-114207408D01*
X235288665Y-114461408D02*
X234992332Y-113572408D01*
X234992332Y-113572408D02*
X234695998Y-114461408D01*
X233933998Y-113614741D02*
X234018665Y-113572408D01*
X234018665Y-113572408D02*
X234145665Y-113572408D01*
X234145665Y-113572408D02*
X234272665Y-113614741D01*
X234272665Y-113614741D02*
X234357332Y-113699408D01*
X234357332Y-113699408D02*
X234399665Y-113784075D01*
X234399665Y-113784075D02*
X234441998Y-113953408D01*
X234441998Y-113953408D02*
X234441998Y-114080408D01*
X234441998Y-114080408D02*
X234399665Y-114249741D01*
X234399665Y-114249741D02*
X234357332Y-114334408D01*
X234357332Y-114334408D02*
X234272665Y-114419075D01*
X234272665Y-114419075D02*
X234145665Y-114461408D01*
X234145665Y-114461408D02*
X234060998Y-114461408D01*
X234060998Y-114461408D02*
X233933998Y-114419075D01*
X233933998Y-114419075D02*
X233891665Y-114376741D01*
X233891665Y-114376741D02*
X233891665Y-114080408D01*
X233891665Y-114080408D02*
X234060998Y-114080408D01*
X232833332Y-113995741D02*
X232536999Y-113995741D01*
X232409999Y-114461408D02*
X232833332Y-114461408D01*
X232833332Y-114461408D02*
X232833332Y-113572408D01*
X232833332Y-113572408D02*
X232409999Y-113572408D01*
X232028999Y-114461408D02*
X232028999Y-113572408D01*
X232028999Y-113572408D02*
X231520999Y-114461408D01*
X231520999Y-114461408D02*
X231520999Y-113572408D01*
X230589666Y-114376741D02*
X230631999Y-114419075D01*
X230631999Y-114419075D02*
X230758999Y-114461408D01*
X230758999Y-114461408D02*
X230843666Y-114461408D01*
X230843666Y-114461408D02*
X230970666Y-114419075D01*
X230970666Y-114419075D02*
X231055333Y-114334408D01*
X231055333Y-114334408D02*
X231097666Y-114249741D01*
X231097666Y-114249741D02*
X231139999Y-114080408D01*
X231139999Y-114080408D02*
X231139999Y-113953408D01*
X231139999Y-113953408D02*
X231097666Y-113784075D01*
X231097666Y-113784075D02*
X231055333Y-113699408D01*
X231055333Y-113699408D02*
X230970666Y-113614741D01*
X230970666Y-113614741D02*
X230843666Y-113572408D01*
X230843666Y-113572408D02*
X230758999Y-113572408D01*
X230758999Y-113572408D02*
X230631999Y-113614741D01*
X230631999Y-113614741D02*
X230589666Y-113657075D01*
X230039333Y-113572408D02*
X229869999Y-113572408D01*
X229869999Y-113572408D02*
X229785333Y-113614741D01*
X229785333Y-113614741D02*
X229700666Y-113699408D01*
X229700666Y-113699408D02*
X229658333Y-113868741D01*
X229658333Y-113868741D02*
X229658333Y-114165075D01*
X229658333Y-114165075D02*
X229700666Y-114334408D01*
X229700666Y-114334408D02*
X229785333Y-114419075D01*
X229785333Y-114419075D02*
X229869999Y-114461408D01*
X229869999Y-114461408D02*
X230039333Y-114461408D01*
X230039333Y-114461408D02*
X230123999Y-114419075D01*
X230123999Y-114419075D02*
X230208666Y-114334408D01*
X230208666Y-114334408D02*
X230250999Y-114165075D01*
X230250999Y-114165075D02*
X230250999Y-113868741D01*
X230250999Y-113868741D02*
X230208666Y-113699408D01*
X230208666Y-113699408D02*
X230123999Y-113614741D01*
X230123999Y-113614741D02*
X230039333Y-113572408D01*
X229277333Y-114461408D02*
X229277333Y-113572408D01*
X229277333Y-113572408D02*
X229065666Y-113572408D01*
X229065666Y-113572408D02*
X228938666Y-113614741D01*
X228938666Y-113614741D02*
X228854000Y-113699408D01*
X228854000Y-113699408D02*
X228811666Y-113784075D01*
X228811666Y-113784075D02*
X228769333Y-113953408D01*
X228769333Y-113953408D02*
X228769333Y-114080408D01*
X228769333Y-114080408D02*
X228811666Y-114249741D01*
X228811666Y-114249741D02*
X228854000Y-114334408D01*
X228854000Y-114334408D02*
X228938666Y-114419075D01*
X228938666Y-114419075D02*
X229065666Y-114461408D01*
X229065666Y-114461408D02*
X229277333Y-114461408D01*
X228388333Y-113995741D02*
X228092000Y-113995741D01*
X227965000Y-114461408D02*
X228388333Y-114461408D01*
X228388333Y-114461408D02*
X228388333Y-113572408D01*
X228388333Y-113572408D02*
X227965000Y-113572408D01*
X227076000Y-114461408D02*
X227372333Y-114038075D01*
X227584000Y-114461408D02*
X227584000Y-113572408D01*
X227584000Y-113572408D02*
X227245333Y-113572408D01*
X227245333Y-113572408D02*
X227160667Y-113614741D01*
X227160667Y-113614741D02*
X227118333Y-113657075D01*
X227118333Y-113657075D02*
X227076000Y-113741741D01*
X227076000Y-113741741D02*
X227076000Y-113868741D01*
X227076000Y-113868741D02*
X227118333Y-113953408D01*
X227118333Y-113953408D02*
X227160667Y-113995741D01*
X227160667Y-113995741D02*
X227245333Y-114038075D01*
X227245333Y-114038075D02*
X227584000Y-114038075D01*
X226144667Y-113572408D02*
X225848334Y-114461408D01*
X225848334Y-114461408D02*
X225552000Y-113572408D01*
X224790000Y-114461408D02*
X225298000Y-114461408D01*
X225044000Y-114461408D02*
X225044000Y-113572408D01*
X225044000Y-113572408D02*
X225128667Y-113699408D01*
X225128667Y-113699408D02*
X225213334Y-113784075D01*
X225213334Y-113784075D02*
X225298000Y-113826408D01*
X234738333Y-115892648D02*
X234568999Y-115892648D01*
X234568999Y-115892648D02*
X234484333Y-115850315D01*
X234484333Y-115850315D02*
X234441999Y-115807981D01*
X234441999Y-115807981D02*
X234357333Y-115680981D01*
X234357333Y-115680981D02*
X234314999Y-115511648D01*
X234314999Y-115511648D02*
X234314999Y-115172981D01*
X234314999Y-115172981D02*
X234357333Y-115088315D01*
X234357333Y-115088315D02*
X234399666Y-115045981D01*
X234399666Y-115045981D02*
X234484333Y-115003648D01*
X234484333Y-115003648D02*
X234653666Y-115003648D01*
X234653666Y-115003648D02*
X234738333Y-115045981D01*
X234738333Y-115045981D02*
X234780666Y-115088315D01*
X234780666Y-115088315D02*
X234822999Y-115172981D01*
X234822999Y-115172981D02*
X234822999Y-115384648D01*
X234822999Y-115384648D02*
X234780666Y-115469315D01*
X234780666Y-115469315D02*
X234738333Y-115511648D01*
X234738333Y-115511648D02*
X234653666Y-115553981D01*
X234653666Y-115553981D02*
X234484333Y-115553981D01*
X234484333Y-115553981D02*
X234399666Y-115511648D01*
X234399666Y-115511648D02*
X234357333Y-115469315D01*
X234357333Y-115469315D02*
X234314999Y-115384648D01*
X234018666Y-115003648D02*
X233425999Y-115003648D01*
X233425999Y-115003648D02*
X233806999Y-115892648D01*
X232621665Y-115892648D02*
X233129665Y-115892648D01*
X232875665Y-115892648D02*
X232875665Y-115003648D01*
X232875665Y-115003648D02*
X232960332Y-115130648D01*
X232960332Y-115130648D02*
X233044999Y-115215315D01*
X233044999Y-115215315D02*
X233129665Y-115257648D01*
X231605665Y-115850315D02*
X231478665Y-115892648D01*
X231478665Y-115892648D02*
X231266999Y-115892648D01*
X231266999Y-115892648D02*
X231182332Y-115850315D01*
X231182332Y-115850315D02*
X231139999Y-115807981D01*
X231139999Y-115807981D02*
X231097665Y-115723315D01*
X231097665Y-115723315D02*
X231097665Y-115638648D01*
X231097665Y-115638648D02*
X231139999Y-115553981D01*
X231139999Y-115553981D02*
X231182332Y-115511648D01*
X231182332Y-115511648D02*
X231266999Y-115469315D01*
X231266999Y-115469315D02*
X231436332Y-115426981D01*
X231436332Y-115426981D02*
X231520999Y-115384648D01*
X231520999Y-115384648D02*
X231563332Y-115342315D01*
X231563332Y-115342315D02*
X231605665Y-115257648D01*
X231605665Y-115257648D02*
X231605665Y-115172981D01*
X231605665Y-115172981D02*
X231563332Y-115088315D01*
X231563332Y-115088315D02*
X231520999Y-115045981D01*
X231520999Y-115045981D02*
X231436332Y-115003648D01*
X231436332Y-115003648D02*
X231224665Y-115003648D01*
X231224665Y-115003648D02*
X231097665Y-115045981D01*
X230716665Y-115892648D02*
X230716665Y-115003648D01*
X230716665Y-115003648D02*
X230377998Y-115003648D01*
X230377998Y-115003648D02*
X230293332Y-115045981D01*
X230293332Y-115045981D02*
X230250998Y-115088315D01*
X230250998Y-115088315D02*
X230208665Y-115172981D01*
X230208665Y-115172981D02*
X230208665Y-115299981D01*
X230208665Y-115299981D02*
X230250998Y-115384648D01*
X230250998Y-115384648D02*
X230293332Y-115426981D01*
X230293332Y-115426981D02*
X230377998Y-115469315D01*
X230377998Y-115469315D02*
X230716665Y-115469315D01*
X229869998Y-115638648D02*
X229446665Y-115638648D01*
X229954665Y-115892648D02*
X229658332Y-115003648D01*
X229658332Y-115003648D02*
X229361998Y-115892648D01*
X228557665Y-115892648D02*
X228853998Y-115469315D01*
X229065665Y-115892648D02*
X229065665Y-115003648D01*
X229065665Y-115003648D02*
X228726998Y-115003648D01*
X228726998Y-115003648D02*
X228642332Y-115045981D01*
X228642332Y-115045981D02*
X228599998Y-115088315D01*
X228599998Y-115088315D02*
X228557665Y-115172981D01*
X228557665Y-115172981D02*
X228557665Y-115299981D01*
X228557665Y-115299981D02*
X228599998Y-115384648D01*
X228599998Y-115384648D02*
X228642332Y-115426981D01*
X228642332Y-115426981D02*
X228726998Y-115469315D01*
X228726998Y-115469315D02*
X229065665Y-115469315D01*
X228303665Y-115003648D02*
X227795665Y-115003648D01*
X228049665Y-115892648D02*
X228049665Y-115003648D01*
X227541665Y-115638648D02*
X227118332Y-115638648D01*
X227626332Y-115892648D02*
X227329999Y-115003648D01*
X227329999Y-115003648D02*
X227033665Y-115892648D01*
X226737332Y-115892648D02*
X226737332Y-115003648D01*
X226737332Y-115003648D02*
X226229332Y-115892648D01*
X226229332Y-115892648D02*
X226229332Y-115003648D01*
X233362499Y-117323888D02*
X233658832Y-116900555D01*
X233870499Y-117323888D02*
X233870499Y-116434888D01*
X233870499Y-116434888D02*
X233531832Y-116434888D01*
X233531832Y-116434888D02*
X233447166Y-116477221D01*
X233447166Y-116477221D02*
X233404832Y-116519555D01*
X233404832Y-116519555D02*
X233362499Y-116604221D01*
X233362499Y-116604221D02*
X233362499Y-116731221D01*
X233362499Y-116731221D02*
X233404832Y-116815888D01*
X233404832Y-116815888D02*
X233447166Y-116858221D01*
X233447166Y-116858221D02*
X233531832Y-116900555D01*
X233531832Y-116900555D02*
X233870499Y-116900555D01*
X232812166Y-116434888D02*
X232642832Y-116434888D01*
X232642832Y-116434888D02*
X232558166Y-116477221D01*
X232558166Y-116477221D02*
X232473499Y-116561888D01*
X232473499Y-116561888D02*
X232431166Y-116731221D01*
X232431166Y-116731221D02*
X232431166Y-117027555D01*
X232431166Y-117027555D02*
X232473499Y-117196888D01*
X232473499Y-117196888D02*
X232558166Y-117281555D01*
X232558166Y-117281555D02*
X232642832Y-117323888D01*
X232642832Y-117323888D02*
X232812166Y-117323888D01*
X232812166Y-117323888D02*
X232896832Y-117281555D01*
X232896832Y-117281555D02*
X232981499Y-117196888D01*
X232981499Y-117196888D02*
X233023832Y-117027555D01*
X233023832Y-117027555D02*
X233023832Y-116731221D01*
X233023832Y-116731221D02*
X232981499Y-116561888D01*
X232981499Y-116561888D02*
X232896832Y-116477221D01*
X232896832Y-116477221D02*
X232812166Y-116434888D01*
X231753833Y-116858221D02*
X231626833Y-116900555D01*
X231626833Y-116900555D02*
X231584499Y-116942888D01*
X231584499Y-116942888D02*
X231542166Y-117027555D01*
X231542166Y-117027555D02*
X231542166Y-117154555D01*
X231542166Y-117154555D02*
X231584499Y-117239221D01*
X231584499Y-117239221D02*
X231626833Y-117281555D01*
X231626833Y-117281555D02*
X231711499Y-117323888D01*
X231711499Y-117323888D02*
X232050166Y-117323888D01*
X232050166Y-117323888D02*
X232050166Y-116434888D01*
X232050166Y-116434888D02*
X231753833Y-116434888D01*
X231753833Y-116434888D02*
X231669166Y-116477221D01*
X231669166Y-116477221D02*
X231626833Y-116519555D01*
X231626833Y-116519555D02*
X231584499Y-116604221D01*
X231584499Y-116604221D02*
X231584499Y-116688888D01*
X231584499Y-116688888D02*
X231626833Y-116773555D01*
X231626833Y-116773555D02*
X231669166Y-116815888D01*
X231669166Y-116815888D02*
X231753833Y-116858221D01*
X231753833Y-116858221D02*
X232050166Y-116858221D01*
X230991833Y-116434888D02*
X230822499Y-116434888D01*
X230822499Y-116434888D02*
X230737833Y-116477221D01*
X230737833Y-116477221D02*
X230653166Y-116561888D01*
X230653166Y-116561888D02*
X230610833Y-116731221D01*
X230610833Y-116731221D02*
X230610833Y-117027555D01*
X230610833Y-117027555D02*
X230653166Y-117196888D01*
X230653166Y-117196888D02*
X230737833Y-117281555D01*
X230737833Y-117281555D02*
X230822499Y-117323888D01*
X230822499Y-117323888D02*
X230991833Y-117323888D01*
X230991833Y-117323888D02*
X231076499Y-117281555D01*
X231076499Y-117281555D02*
X231161166Y-117196888D01*
X231161166Y-117196888D02*
X231203499Y-117027555D01*
X231203499Y-117027555D02*
X231203499Y-116731221D01*
X231203499Y-116731221D02*
X231161166Y-116561888D01*
X231161166Y-116561888D02*
X231076499Y-116477221D01*
X231076499Y-116477221D02*
X230991833Y-116434888D01*
X230356833Y-116434888D02*
X229848833Y-116434888D01*
X230102833Y-117323888D02*
X230102833Y-116434888D01*
X229552500Y-117323888D02*
X229552500Y-116434888D01*
X228621167Y-117239221D02*
X228663500Y-117281555D01*
X228663500Y-117281555D02*
X228790500Y-117323888D01*
X228790500Y-117323888D02*
X228875167Y-117323888D01*
X228875167Y-117323888D02*
X229002167Y-117281555D01*
X229002167Y-117281555D02*
X229086834Y-117196888D01*
X229086834Y-117196888D02*
X229129167Y-117112221D01*
X229129167Y-117112221D02*
X229171500Y-116942888D01*
X229171500Y-116942888D02*
X229171500Y-116815888D01*
X229171500Y-116815888D02*
X229129167Y-116646555D01*
X229129167Y-116646555D02*
X229086834Y-116561888D01*
X229086834Y-116561888D02*
X229002167Y-116477221D01*
X229002167Y-116477221D02*
X228875167Y-116434888D01*
X228875167Y-116434888D02*
X228790500Y-116434888D01*
X228790500Y-116434888D02*
X228663500Y-116477221D01*
X228663500Y-116477221D02*
X228621167Y-116519555D01*
X228282500Y-117281555D02*
X228155500Y-117323888D01*
X228155500Y-117323888D02*
X227943834Y-117323888D01*
X227943834Y-117323888D02*
X227859167Y-117281555D01*
X227859167Y-117281555D02*
X227816834Y-117239221D01*
X227816834Y-117239221D02*
X227774500Y-117154555D01*
X227774500Y-117154555D02*
X227774500Y-117069888D01*
X227774500Y-117069888D02*
X227816834Y-116985221D01*
X227816834Y-116985221D02*
X227859167Y-116942888D01*
X227859167Y-116942888D02*
X227943834Y-116900555D01*
X227943834Y-116900555D02*
X228113167Y-116858221D01*
X228113167Y-116858221D02*
X228197834Y-116815888D01*
X228197834Y-116815888D02*
X228240167Y-116773555D01*
X228240167Y-116773555D02*
X228282500Y-116688888D01*
X228282500Y-116688888D02*
X228282500Y-116604221D01*
X228282500Y-116604221D02*
X228240167Y-116519555D01*
X228240167Y-116519555D02*
X228197834Y-116477221D01*
X228197834Y-116477221D02*
X228113167Y-116434888D01*
X228113167Y-116434888D02*
X227901500Y-116434888D01*
X227901500Y-116434888D02*
X227774500Y-116477221D01*
X232029000Y-117950795D02*
X231986667Y-117908461D01*
X231986667Y-117908461D02*
X231902000Y-117866128D01*
X231902000Y-117866128D02*
X231690334Y-117866128D01*
X231690334Y-117866128D02*
X231605667Y-117908461D01*
X231605667Y-117908461D02*
X231563334Y-117950795D01*
X231563334Y-117950795D02*
X231521000Y-118035461D01*
X231521000Y-118035461D02*
X231521000Y-118120128D01*
X231521000Y-118120128D02*
X231563334Y-118247128D01*
X231563334Y-118247128D02*
X232071334Y-118755128D01*
X232071334Y-118755128D02*
X231521000Y-118755128D01*
X230970667Y-117866128D02*
X230886000Y-117866128D01*
X230886000Y-117866128D02*
X230801333Y-117908461D01*
X230801333Y-117908461D02*
X230759000Y-117950795D01*
X230759000Y-117950795D02*
X230716667Y-118035461D01*
X230716667Y-118035461D02*
X230674333Y-118204795D01*
X230674333Y-118204795D02*
X230674333Y-118416461D01*
X230674333Y-118416461D02*
X230716667Y-118585795D01*
X230716667Y-118585795D02*
X230759000Y-118670461D01*
X230759000Y-118670461D02*
X230801333Y-118712795D01*
X230801333Y-118712795D02*
X230886000Y-118755128D01*
X230886000Y-118755128D02*
X230970667Y-118755128D01*
X230970667Y-118755128D02*
X231055333Y-118712795D01*
X231055333Y-118712795D02*
X231097667Y-118670461D01*
X231097667Y-118670461D02*
X231140000Y-118585795D01*
X231140000Y-118585795D02*
X231182333Y-118416461D01*
X231182333Y-118416461D02*
X231182333Y-118204795D01*
X231182333Y-118204795D02*
X231140000Y-118035461D01*
X231140000Y-118035461D02*
X231097667Y-117950795D01*
X231097667Y-117950795D02*
X231055333Y-117908461D01*
X231055333Y-117908461D02*
X230970667Y-117866128D01*
X230335666Y-117950795D02*
X230293333Y-117908461D01*
X230293333Y-117908461D02*
X230208666Y-117866128D01*
X230208666Y-117866128D02*
X229997000Y-117866128D01*
X229997000Y-117866128D02*
X229912333Y-117908461D01*
X229912333Y-117908461D02*
X229870000Y-117950795D01*
X229870000Y-117950795D02*
X229827666Y-118035461D01*
X229827666Y-118035461D02*
X229827666Y-118120128D01*
X229827666Y-118120128D02*
X229870000Y-118247128D01*
X229870000Y-118247128D02*
X230378000Y-118755128D01*
X230378000Y-118755128D02*
X229827666Y-118755128D01*
X229065666Y-118162461D02*
X229065666Y-118755128D01*
X229277333Y-117823795D02*
X229488999Y-118458795D01*
X229488999Y-118458795D02*
X228938666Y-118458795D01*
X225609929Y-125625344D02*
X225609929Y-124736344D01*
X225609929Y-124736344D02*
X225313596Y-125371344D01*
X225313596Y-125371344D02*
X225017262Y-124736344D01*
X225017262Y-124736344D02*
X225017262Y-125625344D01*
X224424596Y-124736344D02*
X224255262Y-124736344D01*
X224255262Y-124736344D02*
X224170596Y-124778677D01*
X224170596Y-124778677D02*
X224085929Y-124863344D01*
X224085929Y-124863344D02*
X224043596Y-125032677D01*
X224043596Y-125032677D02*
X224043596Y-125329011D01*
X224043596Y-125329011D02*
X224085929Y-125498344D01*
X224085929Y-125498344D02*
X224170596Y-125583011D01*
X224170596Y-125583011D02*
X224255262Y-125625344D01*
X224255262Y-125625344D02*
X224424596Y-125625344D01*
X224424596Y-125625344D02*
X224509262Y-125583011D01*
X224509262Y-125583011D02*
X224593929Y-125498344D01*
X224593929Y-125498344D02*
X224636262Y-125329011D01*
X224636262Y-125329011D02*
X224636262Y-125032677D01*
X224636262Y-125032677D02*
X224593929Y-124863344D01*
X224593929Y-124863344D02*
X224509262Y-124778677D01*
X224509262Y-124778677D02*
X224424596Y-124736344D01*
X223704929Y-125583011D02*
X223577929Y-125625344D01*
X223577929Y-125625344D02*
X223366263Y-125625344D01*
X223366263Y-125625344D02*
X223281596Y-125583011D01*
X223281596Y-125583011D02*
X223239263Y-125540677D01*
X223239263Y-125540677D02*
X223196929Y-125456011D01*
X223196929Y-125456011D02*
X223196929Y-125371344D01*
X223196929Y-125371344D02*
X223239263Y-125286677D01*
X223239263Y-125286677D02*
X223281596Y-125244344D01*
X223281596Y-125244344D02*
X223366263Y-125202011D01*
X223366263Y-125202011D02*
X223535596Y-125159677D01*
X223535596Y-125159677D02*
X223620263Y-125117344D01*
X223620263Y-125117344D02*
X223662596Y-125075011D01*
X223662596Y-125075011D02*
X223704929Y-124990344D01*
X223704929Y-124990344D02*
X223704929Y-124905677D01*
X223704929Y-124905677D02*
X223662596Y-124821011D01*
X223662596Y-124821011D02*
X223620263Y-124778677D01*
X223620263Y-124778677D02*
X223535596Y-124736344D01*
X223535596Y-124736344D02*
X223323929Y-124736344D01*
X223323929Y-124736344D02*
X223196929Y-124778677D01*
X222815929Y-125625344D02*
X222815929Y-124736344D01*
X225779263Y-130282011D02*
X225652263Y-130324344D01*
X225652263Y-130324344D02*
X225440597Y-130324344D01*
X225440597Y-130324344D02*
X225355930Y-130282011D01*
X225355930Y-130282011D02*
X225313597Y-130239677D01*
X225313597Y-130239677D02*
X225271263Y-130155011D01*
X225271263Y-130155011D02*
X225271263Y-130070344D01*
X225271263Y-130070344D02*
X225313597Y-129985677D01*
X225313597Y-129985677D02*
X225355930Y-129943344D01*
X225355930Y-129943344D02*
X225440597Y-129901011D01*
X225440597Y-129901011D02*
X225609930Y-129858677D01*
X225609930Y-129858677D02*
X225694597Y-129816344D01*
X225694597Y-129816344D02*
X225736930Y-129774011D01*
X225736930Y-129774011D02*
X225779263Y-129689344D01*
X225779263Y-129689344D02*
X225779263Y-129604677D01*
X225779263Y-129604677D02*
X225736930Y-129520011D01*
X225736930Y-129520011D02*
X225694597Y-129477677D01*
X225694597Y-129477677D02*
X225609930Y-129435344D01*
X225609930Y-129435344D02*
X225398263Y-129435344D01*
X225398263Y-129435344D02*
X225271263Y-129477677D01*
X224382263Y-130239677D02*
X224424596Y-130282011D01*
X224424596Y-130282011D02*
X224551596Y-130324344D01*
X224551596Y-130324344D02*
X224636263Y-130324344D01*
X224636263Y-130324344D02*
X224763263Y-130282011D01*
X224763263Y-130282011D02*
X224847930Y-130197344D01*
X224847930Y-130197344D02*
X224890263Y-130112677D01*
X224890263Y-130112677D02*
X224932596Y-129943344D01*
X224932596Y-129943344D02*
X224932596Y-129816344D01*
X224932596Y-129816344D02*
X224890263Y-129647011D01*
X224890263Y-129647011D02*
X224847930Y-129562344D01*
X224847930Y-129562344D02*
X224763263Y-129477677D01*
X224763263Y-129477677D02*
X224636263Y-129435344D01*
X224636263Y-129435344D02*
X224551596Y-129435344D01*
X224551596Y-129435344D02*
X224424596Y-129477677D01*
X224424596Y-129477677D02*
X224382263Y-129520011D01*
X223577930Y-130324344D02*
X224001263Y-130324344D01*
X224001263Y-130324344D02*
X224001263Y-129435344D01*
X223281596Y-130324344D02*
X223281596Y-129435344D01*
X222773596Y-130324344D02*
X223154596Y-129816344D01*
X222773596Y-129435344D02*
X223281596Y-129943344D01*
D11*
X226445233Y-123019959D02*
X226656900Y-122717578D01*
X226808090Y-123019959D02*
X226808090Y-122384959D01*
X226808090Y-122384959D02*
X226566185Y-122384959D01*
X226566185Y-122384959D02*
X226505709Y-122415197D01*
X226505709Y-122415197D02*
X226475471Y-122445435D01*
X226475471Y-122445435D02*
X226445233Y-122505911D01*
X226445233Y-122505911D02*
X226445233Y-122596625D01*
X226445233Y-122596625D02*
X226475471Y-122657101D01*
X226475471Y-122657101D02*
X226505709Y-122687340D01*
X226505709Y-122687340D02*
X226566185Y-122717578D01*
X226566185Y-122717578D02*
X226808090Y-122717578D01*
X225900947Y-122596625D02*
X225900947Y-123019959D01*
X226052138Y-122354721D02*
X226203328Y-122808292D01*
X226203328Y-122808292D02*
X225810233Y-122808292D01*
X234262282Y-125497166D02*
X234292521Y-125466928D01*
X234292521Y-125466928D02*
X234322759Y-125376214D01*
X234322759Y-125376214D02*
X234322759Y-125315738D01*
X234322759Y-125315738D02*
X234292521Y-125225023D01*
X234292521Y-125225023D02*
X234232044Y-125164547D01*
X234232044Y-125164547D02*
X234171568Y-125134309D01*
X234171568Y-125134309D02*
X234050616Y-125104071D01*
X234050616Y-125104071D02*
X233959901Y-125104071D01*
X233959901Y-125104071D02*
X233838949Y-125134309D01*
X233838949Y-125134309D02*
X233778473Y-125164547D01*
X233778473Y-125164547D02*
X233717997Y-125225023D01*
X233717997Y-125225023D02*
X233687759Y-125315738D01*
X233687759Y-125315738D02*
X233687759Y-125376214D01*
X233687759Y-125376214D02*
X233717997Y-125466928D01*
X233717997Y-125466928D02*
X233748235Y-125497166D01*
X233687759Y-125708833D02*
X233687759Y-126101928D01*
X233687759Y-126101928D02*
X233929663Y-125890261D01*
X233929663Y-125890261D02*
X233929663Y-125980976D01*
X233929663Y-125980976D02*
X233959901Y-126041452D01*
X233959901Y-126041452D02*
X233990140Y-126071690D01*
X233990140Y-126071690D02*
X234050616Y-126101928D01*
X234050616Y-126101928D02*
X234201806Y-126101928D01*
X234201806Y-126101928D02*
X234262282Y-126071690D01*
X234262282Y-126071690D02*
X234292521Y-126041452D01*
X234292521Y-126041452D02*
X234322759Y-125980976D01*
X234322759Y-125980976D02*
X234322759Y-125799547D01*
X234322759Y-125799547D02*
X234292521Y-125739071D01*
X234292521Y-125739071D02*
X234262282Y-125708833D01*
X223721282Y-110511166D02*
X223751521Y-110480928D01*
X223751521Y-110480928D02*
X223781759Y-110390214D01*
X223781759Y-110390214D02*
X223781759Y-110329738D01*
X223781759Y-110329738D02*
X223751521Y-110239023D01*
X223751521Y-110239023D02*
X223691044Y-110178547D01*
X223691044Y-110178547D02*
X223630568Y-110148309D01*
X223630568Y-110148309D02*
X223509616Y-110118071D01*
X223509616Y-110118071D02*
X223418901Y-110118071D01*
X223418901Y-110118071D02*
X223297949Y-110148309D01*
X223297949Y-110148309D02*
X223237473Y-110178547D01*
X223237473Y-110178547D02*
X223176997Y-110239023D01*
X223176997Y-110239023D02*
X223146759Y-110329738D01*
X223146759Y-110329738D02*
X223146759Y-110390214D01*
X223146759Y-110390214D02*
X223176997Y-110480928D01*
X223176997Y-110480928D02*
X223207235Y-110511166D01*
X223207235Y-110753071D02*
X223176997Y-110783309D01*
X223176997Y-110783309D02*
X223146759Y-110843785D01*
X223146759Y-110843785D02*
X223146759Y-110994976D01*
X223146759Y-110994976D02*
X223176997Y-111055452D01*
X223176997Y-111055452D02*
X223207235Y-111085690D01*
X223207235Y-111085690D02*
X223267711Y-111115928D01*
X223267711Y-111115928D02*
X223328187Y-111115928D01*
X223328187Y-111115928D02*
X223418901Y-111085690D01*
X223418901Y-111085690D02*
X223781759Y-110722833D01*
X223781759Y-110722833D02*
X223781759Y-111115928D01*
X231706559Y-129484966D02*
X231404178Y-129273299D01*
X231706559Y-129122109D02*
X231071559Y-129122109D01*
X231071559Y-129122109D02*
X231071559Y-129364014D01*
X231071559Y-129364014D02*
X231101797Y-129424490D01*
X231101797Y-129424490D02*
X231132035Y-129454728D01*
X231132035Y-129454728D02*
X231192511Y-129484966D01*
X231192511Y-129484966D02*
X231283225Y-129484966D01*
X231283225Y-129484966D02*
X231343701Y-129454728D01*
X231343701Y-129454728D02*
X231373940Y-129424490D01*
X231373940Y-129424490D02*
X231404178Y-129364014D01*
X231404178Y-129364014D02*
X231404178Y-129122109D01*
X231071559Y-130029252D02*
X231071559Y-129908299D01*
X231071559Y-129908299D02*
X231101797Y-129847823D01*
X231101797Y-129847823D02*
X231132035Y-129817585D01*
X231132035Y-129817585D02*
X231222749Y-129757109D01*
X231222749Y-129757109D02*
X231343701Y-129726871D01*
X231343701Y-129726871D02*
X231585606Y-129726871D01*
X231585606Y-129726871D02*
X231646082Y-129757109D01*
X231646082Y-129757109D02*
X231676321Y-129787347D01*
X231676321Y-129787347D02*
X231706559Y-129847823D01*
X231706559Y-129847823D02*
X231706559Y-129968776D01*
X231706559Y-129968776D02*
X231676321Y-130029252D01*
X231676321Y-130029252D02*
X231646082Y-130059490D01*
X231646082Y-130059490D02*
X231585606Y-130089728D01*
X231585606Y-130089728D02*
X231434416Y-130089728D01*
X231434416Y-130089728D02*
X231373940Y-130059490D01*
X231373940Y-130059490D02*
X231343701Y-130029252D01*
X231343701Y-130029252D02*
X231313463Y-129968776D01*
X231313463Y-129968776D02*
X231313463Y-129847823D01*
X231313463Y-129847823D02*
X231343701Y-129787347D01*
X231343701Y-129787347D02*
X231373940Y-129757109D01*
X231373940Y-129757109D02*
X231434416Y-129726871D01*
X240012359Y-125497166D02*
X239709978Y-125285499D01*
X240012359Y-125134309D02*
X239377359Y-125134309D01*
X239377359Y-125134309D02*
X239377359Y-125376214D01*
X239377359Y-125376214D02*
X239407597Y-125436690D01*
X239407597Y-125436690D02*
X239437835Y-125466928D01*
X239437835Y-125466928D02*
X239498311Y-125497166D01*
X239498311Y-125497166D02*
X239589025Y-125497166D01*
X239589025Y-125497166D02*
X239649501Y-125466928D01*
X239649501Y-125466928D02*
X239679740Y-125436690D01*
X239679740Y-125436690D02*
X239709978Y-125376214D01*
X239709978Y-125376214D02*
X239709978Y-125134309D01*
X240012359Y-126101928D02*
X240012359Y-125739071D01*
X240012359Y-125920499D02*
X239377359Y-125920499D01*
X239377359Y-125920499D02*
X239468073Y-125860023D01*
X239468073Y-125860023D02*
X239528549Y-125799547D01*
X239528549Y-125799547D02*
X239558787Y-125739071D01*
X237319959Y-125497166D02*
X237017578Y-125285499D01*
X237319959Y-125134309D02*
X236684959Y-125134309D01*
X236684959Y-125134309D02*
X236684959Y-125376214D01*
X236684959Y-125376214D02*
X236715197Y-125436690D01*
X236715197Y-125436690D02*
X236745435Y-125466928D01*
X236745435Y-125466928D02*
X236805911Y-125497166D01*
X236805911Y-125497166D02*
X236896625Y-125497166D01*
X236896625Y-125497166D02*
X236957101Y-125466928D01*
X236957101Y-125466928D02*
X236987340Y-125436690D01*
X236987340Y-125436690D02*
X237017578Y-125376214D01*
X237017578Y-125376214D02*
X237017578Y-125134309D01*
X236745435Y-125739071D02*
X236715197Y-125769309D01*
X236715197Y-125769309D02*
X236684959Y-125829785D01*
X236684959Y-125829785D02*
X236684959Y-125980976D01*
X236684959Y-125980976D02*
X236715197Y-126041452D01*
X236715197Y-126041452D02*
X236745435Y-126071690D01*
X236745435Y-126071690D02*
X236805911Y-126101928D01*
X236805911Y-126101928D02*
X236866387Y-126101928D01*
X236866387Y-126101928D02*
X236957101Y-126071690D01*
X236957101Y-126071690D02*
X237319959Y-125708833D01*
X237319959Y-125708833D02*
X237319959Y-126101928D01*
X235795959Y-125497166D02*
X235493578Y-125285499D01*
X235795959Y-125134309D02*
X235160959Y-125134309D01*
X235160959Y-125134309D02*
X235160959Y-125376214D01*
X235160959Y-125376214D02*
X235191197Y-125436690D01*
X235191197Y-125436690D02*
X235221435Y-125466928D01*
X235221435Y-125466928D02*
X235281911Y-125497166D01*
X235281911Y-125497166D02*
X235372625Y-125497166D01*
X235372625Y-125497166D02*
X235433101Y-125466928D01*
X235433101Y-125466928D02*
X235463340Y-125436690D01*
X235463340Y-125436690D02*
X235493578Y-125376214D01*
X235493578Y-125376214D02*
X235493578Y-125134309D01*
X235160959Y-125708833D02*
X235160959Y-126101928D01*
X235160959Y-126101928D02*
X235402863Y-125890261D01*
X235402863Y-125890261D02*
X235402863Y-125980976D01*
X235402863Y-125980976D02*
X235433101Y-126041452D01*
X235433101Y-126041452D02*
X235463340Y-126071690D01*
X235463340Y-126071690D02*
X235523816Y-126101928D01*
X235523816Y-126101928D02*
X235675006Y-126101928D01*
X235675006Y-126101928D02*
X235735482Y-126071690D01*
X235735482Y-126071690D02*
X235765721Y-126041452D01*
X235765721Y-126041452D02*
X235795959Y-125980976D01*
X235795959Y-125980976D02*
X235795959Y-125799547D01*
X235795959Y-125799547D02*
X235765721Y-125739071D01*
X235765721Y-125739071D02*
X235735482Y-125708833D01*
X227404282Y-110511166D02*
X227434521Y-110480928D01*
X227434521Y-110480928D02*
X227464759Y-110390214D01*
X227464759Y-110390214D02*
X227464759Y-110329738D01*
X227464759Y-110329738D02*
X227434521Y-110239023D01*
X227434521Y-110239023D02*
X227374044Y-110178547D01*
X227374044Y-110178547D02*
X227313568Y-110148309D01*
X227313568Y-110148309D02*
X227192616Y-110118071D01*
X227192616Y-110118071D02*
X227101901Y-110118071D01*
X227101901Y-110118071D02*
X226980949Y-110148309D01*
X226980949Y-110148309D02*
X226920473Y-110178547D01*
X226920473Y-110178547D02*
X226859997Y-110239023D01*
X226859997Y-110239023D02*
X226829759Y-110329738D01*
X226829759Y-110329738D02*
X226829759Y-110390214D01*
X226829759Y-110390214D02*
X226859997Y-110480928D01*
X226859997Y-110480928D02*
X226890235Y-110511166D01*
X227464759Y-111115928D02*
X227464759Y-110753071D01*
X227464759Y-110934499D02*
X226829759Y-110934499D01*
X226829759Y-110934499D02*
X226920473Y-110874023D01*
X226920473Y-110874023D02*
X226980949Y-110813547D01*
X226980949Y-110813547D02*
X227011187Y-110753071D01*
X231014209Y-120886359D02*
X231014209Y-121400406D01*
X231014209Y-121400406D02*
X230983971Y-121460882D01*
X230983971Y-121460882D02*
X230953733Y-121491121D01*
X230953733Y-121491121D02*
X230893257Y-121521359D01*
X230893257Y-121521359D02*
X230772304Y-121521359D01*
X230772304Y-121521359D02*
X230711828Y-121491121D01*
X230711828Y-121491121D02*
X230681590Y-121460882D01*
X230681590Y-121460882D02*
X230651352Y-121400406D01*
X230651352Y-121400406D02*
X230651352Y-120886359D01*
X230409447Y-120886359D02*
X230016352Y-120886359D01*
X230016352Y-120886359D02*
X230228019Y-121128263D01*
X230228019Y-121128263D02*
X230137304Y-121128263D01*
X230137304Y-121128263D02*
X230076828Y-121158501D01*
X230076828Y-121158501D02*
X230046590Y-121188740D01*
X230046590Y-121188740D02*
X230016352Y-121249216D01*
X230016352Y-121249216D02*
X230016352Y-121400406D01*
X230016352Y-121400406D02*
X230046590Y-121460882D01*
X230046590Y-121460882D02*
X230076828Y-121491121D01*
X230076828Y-121491121D02*
X230137304Y-121521359D01*
X230137304Y-121521359D02*
X230318733Y-121521359D01*
X230318733Y-121521359D02*
X230379209Y-121491121D01*
X230379209Y-121491121D02*
X230409447Y-121460882D01*
X234170359Y-127478366D02*
X233867978Y-127266699D01*
X234170359Y-127115509D02*
X233535359Y-127115509D01*
X233535359Y-127115509D02*
X233535359Y-127357414D01*
X233535359Y-127357414D02*
X233565597Y-127417890D01*
X233565597Y-127417890D02*
X233595835Y-127448128D01*
X233595835Y-127448128D02*
X233656311Y-127478366D01*
X233656311Y-127478366D02*
X233747025Y-127478366D01*
X233747025Y-127478366D02*
X233807501Y-127448128D01*
X233807501Y-127448128D02*
X233837740Y-127417890D01*
X233837740Y-127417890D02*
X233867978Y-127357414D01*
X233867978Y-127357414D02*
X233867978Y-127115509D01*
X233535359Y-128052890D02*
X233535359Y-127750509D01*
X233535359Y-127750509D02*
X233837740Y-127720271D01*
X233837740Y-127720271D02*
X233807501Y-127750509D01*
X233807501Y-127750509D02*
X233777263Y-127810985D01*
X233777263Y-127810985D02*
X233777263Y-127962176D01*
X233777263Y-127962176D02*
X233807501Y-128022652D01*
X233807501Y-128022652D02*
X233837740Y-128052890D01*
X233837740Y-128052890D02*
X233898216Y-128083128D01*
X233898216Y-128083128D02*
X234049406Y-128083128D01*
X234049406Y-128083128D02*
X234109882Y-128052890D01*
X234109882Y-128052890D02*
X234140121Y-128022652D01*
X234140121Y-128022652D02*
X234170359Y-127962176D01*
X234170359Y-127962176D02*
X234170359Y-127810985D01*
X234170359Y-127810985D02*
X234140121Y-127750509D01*
X234140121Y-127750509D02*
X234109882Y-127720271D01*
X237214833Y-134322959D02*
X237426500Y-134020578D01*
X237577690Y-134322959D02*
X237577690Y-133687959D01*
X237577690Y-133687959D02*
X237335785Y-133687959D01*
X237335785Y-133687959D02*
X237275309Y-133718197D01*
X237275309Y-133718197D02*
X237245071Y-133748435D01*
X237245071Y-133748435D02*
X237214833Y-133808911D01*
X237214833Y-133808911D02*
X237214833Y-133899625D01*
X237214833Y-133899625D02*
X237245071Y-133960101D01*
X237245071Y-133960101D02*
X237275309Y-133990340D01*
X237275309Y-133990340D02*
X237335785Y-134020578D01*
X237335785Y-134020578D02*
X237577690Y-134020578D01*
X237003166Y-133687959D02*
X236579833Y-133687959D01*
X236579833Y-133687959D02*
X236851976Y-134322959D01*
D12*
%TO.C,R4*%
X226127542Y-123302500D02*
X226602058Y-123302500D01*
X226127542Y-124347500D02*
X226602058Y-124347500D01*
%TO.C,C3*%
X233474800Y-123430420D02*
X233474800Y-123711580D01*
X234494800Y-123430420D02*
X234494800Y-123711580D01*
%TO.C,C2*%
X224026000Y-110757580D02*
X224026000Y-110476420D01*
X225046000Y-110757580D02*
X225046000Y-110476420D01*
%TO.C,R6*%
X231938300Y-129904258D02*
X231938300Y-129429742D01*
X232983300Y-129904258D02*
X232983300Y-129429742D01*
%TO.C,R1*%
X239177300Y-123808258D02*
X239177300Y-123333742D01*
X240222300Y-123808258D02*
X240222300Y-123333742D01*
%TO.C,R2*%
X236510300Y-123808258D02*
X236510300Y-123333742D01*
X237555300Y-123808258D02*
X237555300Y-123333742D01*
%TO.C,R3*%
X234986300Y-123808258D02*
X234986300Y-123333742D01*
X236031300Y-123808258D02*
X236031300Y-123333742D01*
%TO.C,C1*%
X225550000Y-110757580D02*
X225550000Y-110476420D01*
X226570000Y-110757580D02*
X226570000Y-110476420D01*
%TO.C,U3*%
X228945800Y-121961000D02*
X229420800Y-121961000D01*
X228945800Y-122436000D02*
X228945800Y-121961000D01*
X228945800Y-124941000D02*
X228945800Y-124706000D01*
X229245800Y-125181000D02*
X229420800Y-125181000D01*
X232165800Y-121961000D02*
X231690800Y-121961000D01*
X232165800Y-122436000D02*
X232165800Y-121961000D01*
X232165800Y-124706000D02*
X232165800Y-125181000D01*
X232165800Y-125181000D02*
X231690800Y-125181000D01*
X229185800Y-125511000D02*
X228705800Y-125511000D01*
X228945800Y-125181000D01*
X229185800Y-125511000D01*
G36*
X229185800Y-125511000D02*
G01*
X228705800Y-125511000D01*
X228945800Y-125181000D01*
X229185800Y-125511000D01*
G37*
%TO.C,R5*%
X233462300Y-129904258D02*
X233462300Y-129429742D01*
X234507300Y-129904258D02*
X234507300Y-129429742D01*
%TO.C,R7*%
X236871742Y-134605500D02*
X237346258Y-134605500D01*
X236871742Y-135650500D02*
X237346258Y-135650500D01*
%TD*%
M02*
