%TF.GenerationSoftware,KiCad,Pcbnew,8.0.4-8.0.4-0~ubuntu22.04.1*%
%TF.CreationDate,2024-08-25T23:22:23-07:00*%
%TF.ProjectId,mag-encoder,6d61672d-656e-4636-9f64-65722e6b6963,1*%
%TF.SameCoordinates,Original*%
%TF.FileFunction,Legend,Bot*%
%TF.FilePolarity,Positive*%
%FSLAX46Y46*%
G04 Gerber Fmt 4.6, Leading zero omitted, Abs format (unit mm)*
G04 Created by KiCad (PCBNEW 8.0.4-8.0.4-0~ubuntu22.04.1) date 2024-08-25 23:22:23*
%MOMM*%
%LPD*%
G01*
G04 APERTURE LIST*
%ADD10C,0.152400*%
%ADD11C,0.127000*%
%ADD12C,0.120000*%
G04 APERTURE END LIST*
D10*
X223620263Y-122619677D02*
X223662596Y-122662011D01*
X223662596Y-122662011D02*
X223789596Y-122704344D01*
X223789596Y-122704344D02*
X223874263Y-122704344D01*
X223874263Y-122704344D02*
X224001263Y-122662011D01*
X224001263Y-122662011D02*
X224085930Y-122577344D01*
X224085930Y-122577344D02*
X224128263Y-122492677D01*
X224128263Y-122492677D02*
X224170596Y-122323344D01*
X224170596Y-122323344D02*
X224170596Y-122196344D01*
X224170596Y-122196344D02*
X224128263Y-122027011D01*
X224128263Y-122027011D02*
X224085930Y-121942344D01*
X224085930Y-121942344D02*
X224001263Y-121857677D01*
X224001263Y-121857677D02*
X223874263Y-121815344D01*
X223874263Y-121815344D02*
X223789596Y-121815344D01*
X223789596Y-121815344D02*
X223662596Y-121857677D01*
X223662596Y-121857677D02*
X223620263Y-121900011D01*
X223281596Y-122662011D02*
X223154596Y-122704344D01*
X223154596Y-122704344D02*
X222942930Y-122704344D01*
X222942930Y-122704344D02*
X222858263Y-122662011D01*
X222858263Y-122662011D02*
X222815930Y-122619677D01*
X222815930Y-122619677D02*
X222773596Y-122535011D01*
X222773596Y-122535011D02*
X222773596Y-122450344D01*
X222773596Y-122450344D02*
X222815930Y-122365677D01*
X222815930Y-122365677D02*
X222858263Y-122323344D01*
X222858263Y-122323344D02*
X222942930Y-122281011D01*
X222942930Y-122281011D02*
X223112263Y-122238677D01*
X223112263Y-122238677D02*
X223196930Y-122196344D01*
X223196930Y-122196344D02*
X223239263Y-122154011D01*
X223239263Y-122154011D02*
X223281596Y-122069344D01*
X223281596Y-122069344D02*
X223281596Y-121984677D01*
X223281596Y-121984677D02*
X223239263Y-121900011D01*
X223239263Y-121900011D02*
X223196930Y-121857677D01*
X223196930Y-121857677D02*
X223112263Y-121815344D01*
X223112263Y-121815344D02*
X222900596Y-121815344D01*
X222900596Y-121815344D02*
X222773596Y-121857677D01*
X224636262Y-116803077D02*
X224720929Y-116760744D01*
X224720929Y-116760744D02*
X224847929Y-116760744D01*
X224847929Y-116760744D02*
X224974929Y-116803077D01*
X224974929Y-116803077D02*
X225059596Y-116887744D01*
X225059596Y-116887744D02*
X225101929Y-116972411D01*
X225101929Y-116972411D02*
X225144262Y-117141744D01*
X225144262Y-117141744D02*
X225144262Y-117268744D01*
X225144262Y-117268744D02*
X225101929Y-117438077D01*
X225101929Y-117438077D02*
X225059596Y-117522744D01*
X225059596Y-117522744D02*
X224974929Y-117607411D01*
X224974929Y-117607411D02*
X224847929Y-117649744D01*
X224847929Y-117649744D02*
X224763262Y-117649744D01*
X224763262Y-117649744D02*
X224636262Y-117607411D01*
X224636262Y-117607411D02*
X224593929Y-117565077D01*
X224593929Y-117565077D02*
X224593929Y-117268744D01*
X224593929Y-117268744D02*
X224763262Y-117268744D01*
X224212929Y-117649744D02*
X224212929Y-116760744D01*
X224212929Y-116760744D02*
X223704929Y-117649744D01*
X223704929Y-117649744D02*
X223704929Y-116760744D01*
X223281596Y-117649744D02*
X223281596Y-116760744D01*
X223281596Y-116760744D02*
X223069929Y-116760744D01*
X223069929Y-116760744D02*
X222942929Y-116803077D01*
X222942929Y-116803077D02*
X222858263Y-116887744D01*
X222858263Y-116887744D02*
X222815929Y-116972411D01*
X222815929Y-116972411D02*
X222773596Y-117141744D01*
X222773596Y-117141744D02*
X222773596Y-117268744D01*
X222773596Y-117268744D02*
X222815929Y-117438077D01*
X222815929Y-117438077D02*
X222858263Y-117522744D01*
X222858263Y-117522744D02*
X222942929Y-117607411D01*
X222942929Y-117607411D02*
X223069929Y-117649744D01*
X223069929Y-117649744D02*
X223281596Y-117649744D01*
X225609929Y-127784344D02*
X225609929Y-126895344D01*
X225609929Y-126895344D02*
X225313596Y-127530344D01*
X225313596Y-127530344D02*
X225017262Y-126895344D01*
X225017262Y-126895344D02*
X225017262Y-127784344D01*
X224593929Y-127784344D02*
X224593929Y-126895344D01*
X224212929Y-127742011D02*
X224085929Y-127784344D01*
X224085929Y-127784344D02*
X223874263Y-127784344D01*
X223874263Y-127784344D02*
X223789596Y-127742011D01*
X223789596Y-127742011D02*
X223747263Y-127699677D01*
X223747263Y-127699677D02*
X223704929Y-127615011D01*
X223704929Y-127615011D02*
X223704929Y-127530344D01*
X223704929Y-127530344D02*
X223747263Y-127445677D01*
X223747263Y-127445677D02*
X223789596Y-127403344D01*
X223789596Y-127403344D02*
X223874263Y-127361011D01*
X223874263Y-127361011D02*
X224043596Y-127318677D01*
X224043596Y-127318677D02*
X224128263Y-127276344D01*
X224128263Y-127276344D02*
X224170596Y-127234011D01*
X224170596Y-127234011D02*
X224212929Y-127149344D01*
X224212929Y-127149344D02*
X224212929Y-127064677D01*
X224212929Y-127064677D02*
X224170596Y-126980011D01*
X224170596Y-126980011D02*
X224128263Y-126937677D01*
X224128263Y-126937677D02*
X224043596Y-126895344D01*
X224043596Y-126895344D02*
X223831929Y-126895344D01*
X223831929Y-126895344D02*
X223704929Y-126937677D01*
X223154596Y-126895344D02*
X222985262Y-126895344D01*
X222985262Y-126895344D02*
X222900596Y-126937677D01*
X222900596Y-126937677D02*
X222815929Y-127022344D01*
X222815929Y-127022344D02*
X222773596Y-127191677D01*
X222773596Y-127191677D02*
X222773596Y-127488011D01*
X222773596Y-127488011D02*
X222815929Y-127657344D01*
X222815929Y-127657344D02*
X222900596Y-127742011D01*
X222900596Y-127742011D02*
X222985262Y-127784344D01*
X222985262Y-127784344D02*
X223154596Y-127784344D01*
X223154596Y-127784344D02*
X223239262Y-127742011D01*
X223239262Y-127742011D02*
X223323929Y-127657344D01*
X223323929Y-127657344D02*
X223366262Y-127488011D01*
X223366262Y-127488011D02*
X223366262Y-127191677D01*
X223366262Y-127191677D02*
X223323929Y-127022344D01*
X223323929Y-127022344D02*
X223239262Y-126937677D01*
X223239262Y-126937677D02*
X223154596Y-126895344D01*
X224932597Y-119275344D02*
X224382263Y-119275344D01*
X224382263Y-119275344D02*
X224678597Y-119614011D01*
X224678597Y-119614011D02*
X224551597Y-119614011D01*
X224551597Y-119614011D02*
X224466930Y-119656344D01*
X224466930Y-119656344D02*
X224424597Y-119698677D01*
X224424597Y-119698677D02*
X224382263Y-119783344D01*
X224382263Y-119783344D02*
X224382263Y-119995011D01*
X224382263Y-119995011D02*
X224424597Y-120079677D01*
X224424597Y-120079677D02*
X224466930Y-120122011D01*
X224466930Y-120122011D02*
X224551597Y-120164344D01*
X224551597Y-120164344D02*
X224805597Y-120164344D01*
X224805597Y-120164344D02*
X224890263Y-120122011D01*
X224890263Y-120122011D02*
X224932597Y-120079677D01*
X224128263Y-119275344D02*
X223831930Y-120164344D01*
X223831930Y-120164344D02*
X223535596Y-119275344D01*
X223323930Y-119275344D02*
X222773596Y-119275344D01*
X222773596Y-119275344D02*
X223069930Y-119614011D01*
X223069930Y-119614011D02*
X222942930Y-119614011D01*
X222942930Y-119614011D02*
X222858263Y-119656344D01*
X222858263Y-119656344D02*
X222815930Y-119698677D01*
X222815930Y-119698677D02*
X222773596Y-119783344D01*
X222773596Y-119783344D02*
X222773596Y-119995011D01*
X222773596Y-119995011D02*
X222815930Y-120079677D01*
X222815930Y-120079677D02*
X222858263Y-120122011D01*
X222858263Y-120122011D02*
X222942930Y-120164344D01*
X222942930Y-120164344D02*
X223196930Y-120164344D01*
X223196930Y-120164344D02*
X223281596Y-120122011D01*
X223281596Y-120122011D02*
X223323930Y-120079677D01*
X240724808Y-115455700D02*
X240724808Y-115625033D01*
X240724808Y-115625033D02*
X240682475Y-115709700D01*
X240682475Y-115709700D02*
X240640141Y-115752033D01*
X240640141Y-115752033D02*
X240513141Y-115836700D01*
X240513141Y-115836700D02*
X240343808Y-115879033D01*
X240343808Y-115879033D02*
X240005141Y-115879033D01*
X240005141Y-115879033D02*
X239920475Y-115836700D01*
X239920475Y-115836700D02*
X239878141Y-115794366D01*
X239878141Y-115794366D02*
X239835808Y-115709700D01*
X239835808Y-115709700D02*
X239835808Y-115540366D01*
X239835808Y-115540366D02*
X239878141Y-115455700D01*
X239878141Y-115455700D02*
X239920475Y-115413366D01*
X239920475Y-115413366D02*
X240005141Y-115371033D01*
X240005141Y-115371033D02*
X240216808Y-115371033D01*
X240216808Y-115371033D02*
X240301475Y-115413366D01*
X240301475Y-115413366D02*
X240343808Y-115455700D01*
X240343808Y-115455700D02*
X240386141Y-115540366D01*
X240386141Y-115540366D02*
X240386141Y-115709700D01*
X240386141Y-115709700D02*
X240343808Y-115794366D01*
X240343808Y-115794366D02*
X240301475Y-115836700D01*
X240301475Y-115836700D02*
X240216808Y-115879033D01*
X239835808Y-116175367D02*
X239835808Y-116768033D01*
X239835808Y-116768033D02*
X240724808Y-116387033D01*
X240724808Y-117572367D02*
X240724808Y-117064367D01*
X240724808Y-117318367D02*
X239835808Y-117318367D01*
X239835808Y-117318367D02*
X239962808Y-117233700D01*
X239962808Y-117233700D02*
X240047475Y-117149034D01*
X240047475Y-117149034D02*
X240089808Y-117064367D01*
X240682475Y-118588367D02*
X240724808Y-118715367D01*
X240724808Y-118715367D02*
X240724808Y-118927034D01*
X240724808Y-118927034D02*
X240682475Y-119011700D01*
X240682475Y-119011700D02*
X240640141Y-119054034D01*
X240640141Y-119054034D02*
X240555475Y-119096367D01*
X240555475Y-119096367D02*
X240470808Y-119096367D01*
X240470808Y-119096367D02*
X240386141Y-119054034D01*
X240386141Y-119054034D02*
X240343808Y-119011700D01*
X240343808Y-119011700D02*
X240301475Y-118927034D01*
X240301475Y-118927034D02*
X240259141Y-118757700D01*
X240259141Y-118757700D02*
X240216808Y-118673034D01*
X240216808Y-118673034D02*
X240174475Y-118630700D01*
X240174475Y-118630700D02*
X240089808Y-118588367D01*
X240089808Y-118588367D02*
X240005141Y-118588367D01*
X240005141Y-118588367D02*
X239920475Y-118630700D01*
X239920475Y-118630700D02*
X239878141Y-118673034D01*
X239878141Y-118673034D02*
X239835808Y-118757700D01*
X239835808Y-118757700D02*
X239835808Y-118969367D01*
X239835808Y-118969367D02*
X239878141Y-119096367D01*
X240724808Y-119477367D02*
X239835808Y-119477367D01*
X239835808Y-119477367D02*
X239835808Y-119816034D01*
X239835808Y-119816034D02*
X239878141Y-119900701D01*
X239878141Y-119900701D02*
X239920475Y-119943034D01*
X239920475Y-119943034D02*
X240005141Y-119985367D01*
X240005141Y-119985367D02*
X240132141Y-119985367D01*
X240132141Y-119985367D02*
X240216808Y-119943034D01*
X240216808Y-119943034D02*
X240259141Y-119900701D01*
X240259141Y-119900701D02*
X240301475Y-119816034D01*
X240301475Y-119816034D02*
X240301475Y-119477367D01*
X240470808Y-120324034D02*
X240470808Y-120747367D01*
X240724808Y-120239367D02*
X239835808Y-120535701D01*
X239835808Y-120535701D02*
X240724808Y-120832034D01*
X240724808Y-121636367D02*
X240301475Y-121340034D01*
X240724808Y-121128367D02*
X239835808Y-121128367D01*
X239835808Y-121128367D02*
X239835808Y-121467034D01*
X239835808Y-121467034D02*
X239878141Y-121551701D01*
X239878141Y-121551701D02*
X239920475Y-121594034D01*
X239920475Y-121594034D02*
X240005141Y-121636367D01*
X240005141Y-121636367D02*
X240132141Y-121636367D01*
X240132141Y-121636367D02*
X240216808Y-121594034D01*
X240216808Y-121594034D02*
X240259141Y-121551701D01*
X240259141Y-121551701D02*
X240301475Y-121467034D01*
X240301475Y-121467034D02*
X240301475Y-121128367D01*
X239835808Y-121890367D02*
X239835808Y-122398367D01*
X240724808Y-122144367D02*
X239835808Y-122144367D01*
X240470808Y-122652367D02*
X240470808Y-123075700D01*
X240724808Y-122567700D02*
X239835808Y-122864034D01*
X239835808Y-122864034D02*
X240724808Y-123160367D01*
X240724808Y-123456700D02*
X239835808Y-123456700D01*
X239835808Y-123456700D02*
X240724808Y-123964700D01*
X240724808Y-123964700D02*
X239835808Y-123964700D01*
X240724808Y-125573366D02*
X240301475Y-125277033D01*
X240724808Y-125065366D02*
X239835808Y-125065366D01*
X239835808Y-125065366D02*
X239835808Y-125404033D01*
X239835808Y-125404033D02*
X239878141Y-125488700D01*
X239878141Y-125488700D02*
X239920475Y-125531033D01*
X239920475Y-125531033D02*
X240005141Y-125573366D01*
X240005141Y-125573366D02*
X240132141Y-125573366D01*
X240132141Y-125573366D02*
X240216808Y-125531033D01*
X240216808Y-125531033D02*
X240259141Y-125488700D01*
X240259141Y-125488700D02*
X240301475Y-125404033D01*
X240301475Y-125404033D02*
X240301475Y-125065366D01*
X239835808Y-126123700D02*
X239835808Y-126293033D01*
X239835808Y-126293033D02*
X239878141Y-126377700D01*
X239878141Y-126377700D02*
X239962808Y-126462366D01*
X239962808Y-126462366D02*
X240132141Y-126504700D01*
X240132141Y-126504700D02*
X240428475Y-126504700D01*
X240428475Y-126504700D02*
X240597808Y-126462366D01*
X240597808Y-126462366D02*
X240682475Y-126377700D01*
X240682475Y-126377700D02*
X240724808Y-126293033D01*
X240724808Y-126293033D02*
X240724808Y-126123700D01*
X240724808Y-126123700D02*
X240682475Y-126039033D01*
X240682475Y-126039033D02*
X240597808Y-125954366D01*
X240597808Y-125954366D02*
X240428475Y-125912033D01*
X240428475Y-125912033D02*
X240132141Y-125912033D01*
X240132141Y-125912033D02*
X239962808Y-125954366D01*
X239962808Y-125954366D02*
X239878141Y-126039033D01*
X239878141Y-126039033D02*
X239835808Y-126123700D01*
X240259141Y-127182033D02*
X240301475Y-127309033D01*
X240301475Y-127309033D02*
X240343808Y-127351366D01*
X240343808Y-127351366D02*
X240428475Y-127393699D01*
X240428475Y-127393699D02*
X240555475Y-127393699D01*
X240555475Y-127393699D02*
X240640141Y-127351366D01*
X240640141Y-127351366D02*
X240682475Y-127309033D01*
X240682475Y-127309033D02*
X240724808Y-127224366D01*
X240724808Y-127224366D02*
X240724808Y-126885699D01*
X240724808Y-126885699D02*
X239835808Y-126885699D01*
X239835808Y-126885699D02*
X239835808Y-127182033D01*
X239835808Y-127182033D02*
X239878141Y-127266699D01*
X239878141Y-127266699D02*
X239920475Y-127309033D01*
X239920475Y-127309033D02*
X240005141Y-127351366D01*
X240005141Y-127351366D02*
X240089808Y-127351366D01*
X240089808Y-127351366D02*
X240174475Y-127309033D01*
X240174475Y-127309033D02*
X240216808Y-127266699D01*
X240216808Y-127266699D02*
X240259141Y-127182033D01*
X240259141Y-127182033D02*
X240259141Y-126885699D01*
X239835808Y-127944033D02*
X239835808Y-128113366D01*
X239835808Y-128113366D02*
X239878141Y-128198033D01*
X239878141Y-128198033D02*
X239962808Y-128282699D01*
X239962808Y-128282699D02*
X240132141Y-128325033D01*
X240132141Y-128325033D02*
X240428475Y-128325033D01*
X240428475Y-128325033D02*
X240597808Y-128282699D01*
X240597808Y-128282699D02*
X240682475Y-128198033D01*
X240682475Y-128198033D02*
X240724808Y-128113366D01*
X240724808Y-128113366D02*
X240724808Y-127944033D01*
X240724808Y-127944033D02*
X240682475Y-127859366D01*
X240682475Y-127859366D02*
X240597808Y-127774699D01*
X240597808Y-127774699D02*
X240428475Y-127732366D01*
X240428475Y-127732366D02*
X240132141Y-127732366D01*
X240132141Y-127732366D02*
X239962808Y-127774699D01*
X239962808Y-127774699D02*
X239878141Y-127859366D01*
X239878141Y-127859366D02*
X239835808Y-127944033D01*
X239835808Y-128579032D02*
X239835808Y-129087032D01*
X240724808Y-128833032D02*
X239835808Y-128833032D01*
X240724808Y-129383365D02*
X239835808Y-129383365D01*
X240640141Y-130314698D02*
X240682475Y-130272365D01*
X240682475Y-130272365D02*
X240724808Y-130145365D01*
X240724808Y-130145365D02*
X240724808Y-130060698D01*
X240724808Y-130060698D02*
X240682475Y-129933698D01*
X240682475Y-129933698D02*
X240597808Y-129849032D01*
X240597808Y-129849032D02*
X240513141Y-129806698D01*
X240513141Y-129806698D02*
X240343808Y-129764365D01*
X240343808Y-129764365D02*
X240216808Y-129764365D01*
X240216808Y-129764365D02*
X240047475Y-129806698D01*
X240047475Y-129806698D02*
X239962808Y-129849032D01*
X239962808Y-129849032D02*
X239878141Y-129933698D01*
X239878141Y-129933698D02*
X239835808Y-130060698D01*
X239835808Y-130060698D02*
X239835808Y-130145365D01*
X239835808Y-130145365D02*
X239878141Y-130272365D01*
X239878141Y-130272365D02*
X239920475Y-130314698D01*
X240682475Y-130653365D02*
X240724808Y-130780365D01*
X240724808Y-130780365D02*
X240724808Y-130992032D01*
X240724808Y-130992032D02*
X240682475Y-131076698D01*
X240682475Y-131076698D02*
X240640141Y-131119032D01*
X240640141Y-131119032D02*
X240555475Y-131161365D01*
X240555475Y-131161365D02*
X240470808Y-131161365D01*
X240470808Y-131161365D02*
X240386141Y-131119032D01*
X240386141Y-131119032D02*
X240343808Y-131076698D01*
X240343808Y-131076698D02*
X240301475Y-130992032D01*
X240301475Y-130992032D02*
X240259141Y-130822698D01*
X240259141Y-130822698D02*
X240216808Y-130738032D01*
X240216808Y-130738032D02*
X240174475Y-130695698D01*
X240174475Y-130695698D02*
X240089808Y-130653365D01*
X240089808Y-130653365D02*
X240005141Y-130653365D01*
X240005141Y-130653365D02*
X239920475Y-130695698D01*
X239920475Y-130695698D02*
X239878141Y-130738032D01*
X239878141Y-130738032D02*
X239835808Y-130822698D01*
X239835808Y-130822698D02*
X239835808Y-131034365D01*
X239835808Y-131034365D02*
X239878141Y-131161365D01*
X239920475Y-132177365D02*
X239878141Y-132219698D01*
X239878141Y-132219698D02*
X239835808Y-132304365D01*
X239835808Y-132304365D02*
X239835808Y-132516032D01*
X239835808Y-132516032D02*
X239878141Y-132600698D01*
X239878141Y-132600698D02*
X239920475Y-132643032D01*
X239920475Y-132643032D02*
X240005141Y-132685365D01*
X240005141Y-132685365D02*
X240089808Y-132685365D01*
X240089808Y-132685365D02*
X240216808Y-132643032D01*
X240216808Y-132643032D02*
X240724808Y-132135032D01*
X240724808Y-132135032D02*
X240724808Y-132685365D01*
X239835808Y-133235699D02*
X239835808Y-133320365D01*
X239835808Y-133320365D02*
X239878141Y-133405032D01*
X239878141Y-133405032D02*
X239920475Y-133447365D01*
X239920475Y-133447365D02*
X240005141Y-133489699D01*
X240005141Y-133489699D02*
X240174475Y-133532032D01*
X240174475Y-133532032D02*
X240386141Y-133532032D01*
X240386141Y-133532032D02*
X240555475Y-133489699D01*
X240555475Y-133489699D02*
X240640141Y-133447365D01*
X240640141Y-133447365D02*
X240682475Y-133405032D01*
X240682475Y-133405032D02*
X240724808Y-133320365D01*
X240724808Y-133320365D02*
X240724808Y-133235699D01*
X240724808Y-133235699D02*
X240682475Y-133151032D01*
X240682475Y-133151032D02*
X240640141Y-133108699D01*
X240640141Y-133108699D02*
X240555475Y-133066365D01*
X240555475Y-133066365D02*
X240386141Y-133024032D01*
X240386141Y-133024032D02*
X240174475Y-133024032D01*
X240174475Y-133024032D02*
X240005141Y-133066365D01*
X240005141Y-133066365D02*
X239920475Y-133108699D01*
X239920475Y-133108699D02*
X239878141Y-133151032D01*
X239878141Y-133151032D02*
X239835808Y-133235699D01*
X239920475Y-133870699D02*
X239878141Y-133913032D01*
X239878141Y-133913032D02*
X239835808Y-133997699D01*
X239835808Y-133997699D02*
X239835808Y-134209366D01*
X239835808Y-134209366D02*
X239878141Y-134294032D01*
X239878141Y-134294032D02*
X239920475Y-134336366D01*
X239920475Y-134336366D02*
X240005141Y-134378699D01*
X240005141Y-134378699D02*
X240089808Y-134378699D01*
X240089808Y-134378699D02*
X240216808Y-134336366D01*
X240216808Y-134336366D02*
X240724808Y-133828366D01*
X240724808Y-133828366D02*
X240724808Y-134378699D01*
X240132141Y-135140699D02*
X240724808Y-135140699D01*
X239793475Y-134929033D02*
X240428475Y-134717366D01*
X240428475Y-134717366D02*
X240428475Y-135267699D01*
X225609929Y-125625344D02*
X225609929Y-124736344D01*
X225609929Y-124736344D02*
X225313596Y-125371344D01*
X225313596Y-125371344D02*
X225017262Y-124736344D01*
X225017262Y-124736344D02*
X225017262Y-125625344D01*
X224424596Y-124736344D02*
X224255262Y-124736344D01*
X224255262Y-124736344D02*
X224170596Y-124778677D01*
X224170596Y-124778677D02*
X224085929Y-124863344D01*
X224085929Y-124863344D02*
X224043596Y-125032677D01*
X224043596Y-125032677D02*
X224043596Y-125329011D01*
X224043596Y-125329011D02*
X224085929Y-125498344D01*
X224085929Y-125498344D02*
X224170596Y-125583011D01*
X224170596Y-125583011D02*
X224255262Y-125625344D01*
X224255262Y-125625344D02*
X224424596Y-125625344D01*
X224424596Y-125625344D02*
X224509262Y-125583011D01*
X224509262Y-125583011D02*
X224593929Y-125498344D01*
X224593929Y-125498344D02*
X224636262Y-125329011D01*
X224636262Y-125329011D02*
X224636262Y-125032677D01*
X224636262Y-125032677D02*
X224593929Y-124863344D01*
X224593929Y-124863344D02*
X224509262Y-124778677D01*
X224509262Y-124778677D02*
X224424596Y-124736344D01*
X223704929Y-125583011D02*
X223577929Y-125625344D01*
X223577929Y-125625344D02*
X223366263Y-125625344D01*
X223366263Y-125625344D02*
X223281596Y-125583011D01*
X223281596Y-125583011D02*
X223239263Y-125540677D01*
X223239263Y-125540677D02*
X223196929Y-125456011D01*
X223196929Y-125456011D02*
X223196929Y-125371344D01*
X223196929Y-125371344D02*
X223239263Y-125286677D01*
X223239263Y-125286677D02*
X223281596Y-125244344D01*
X223281596Y-125244344D02*
X223366263Y-125202011D01*
X223366263Y-125202011D02*
X223535596Y-125159677D01*
X223535596Y-125159677D02*
X223620263Y-125117344D01*
X223620263Y-125117344D02*
X223662596Y-125075011D01*
X223662596Y-125075011D02*
X223704929Y-124990344D01*
X223704929Y-124990344D02*
X223704929Y-124905677D01*
X223704929Y-124905677D02*
X223662596Y-124821011D01*
X223662596Y-124821011D02*
X223620263Y-124778677D01*
X223620263Y-124778677D02*
X223535596Y-124736344D01*
X223535596Y-124736344D02*
X223323929Y-124736344D01*
X223323929Y-124736344D02*
X223196929Y-124778677D01*
X222815929Y-125625344D02*
X222815929Y-124736344D01*
X231626833Y-116417208D02*
X231626833Y-115528208D01*
X231626833Y-115528208D02*
X231330500Y-116163208D01*
X231330500Y-116163208D02*
X231034166Y-115528208D01*
X231034166Y-115528208D02*
X231034166Y-116417208D01*
X230653166Y-116163208D02*
X230229833Y-116163208D01*
X230737833Y-116417208D02*
X230441500Y-115528208D01*
X230441500Y-115528208D02*
X230145166Y-116417208D01*
X229383166Y-115570541D02*
X229467833Y-115528208D01*
X229467833Y-115528208D02*
X229594833Y-115528208D01*
X229594833Y-115528208D02*
X229721833Y-115570541D01*
X229721833Y-115570541D02*
X229806500Y-115655208D01*
X229806500Y-115655208D02*
X229848833Y-115739875D01*
X229848833Y-115739875D02*
X229891166Y-115909208D01*
X229891166Y-115909208D02*
X229891166Y-116036208D01*
X229891166Y-116036208D02*
X229848833Y-116205541D01*
X229848833Y-116205541D02*
X229806500Y-116290208D01*
X229806500Y-116290208D02*
X229721833Y-116374875D01*
X229721833Y-116374875D02*
X229594833Y-116417208D01*
X229594833Y-116417208D02*
X229510166Y-116417208D01*
X229510166Y-116417208D02*
X229383166Y-116374875D01*
X229383166Y-116374875D02*
X229340833Y-116332541D01*
X229340833Y-116332541D02*
X229340833Y-116036208D01*
X229340833Y-116036208D02*
X229510166Y-116036208D01*
X233362499Y-117382781D02*
X233066166Y-117382781D01*
X232939166Y-117848448D02*
X233362499Y-117848448D01*
X233362499Y-117848448D02*
X233362499Y-116959448D01*
X233362499Y-116959448D02*
X232939166Y-116959448D01*
X232558166Y-117848448D02*
X232558166Y-116959448D01*
X232558166Y-116959448D02*
X232050166Y-117848448D01*
X232050166Y-117848448D02*
X232050166Y-116959448D01*
X231118833Y-117763781D02*
X231161166Y-117806115D01*
X231161166Y-117806115D02*
X231288166Y-117848448D01*
X231288166Y-117848448D02*
X231372833Y-117848448D01*
X231372833Y-117848448D02*
X231499833Y-117806115D01*
X231499833Y-117806115D02*
X231584500Y-117721448D01*
X231584500Y-117721448D02*
X231626833Y-117636781D01*
X231626833Y-117636781D02*
X231669166Y-117467448D01*
X231669166Y-117467448D02*
X231669166Y-117340448D01*
X231669166Y-117340448D02*
X231626833Y-117171115D01*
X231626833Y-117171115D02*
X231584500Y-117086448D01*
X231584500Y-117086448D02*
X231499833Y-117001781D01*
X231499833Y-117001781D02*
X231372833Y-116959448D01*
X231372833Y-116959448D02*
X231288166Y-116959448D01*
X231288166Y-116959448D02*
X231161166Y-117001781D01*
X231161166Y-117001781D02*
X231118833Y-117044115D01*
X230568500Y-116959448D02*
X230399166Y-116959448D01*
X230399166Y-116959448D02*
X230314500Y-117001781D01*
X230314500Y-117001781D02*
X230229833Y-117086448D01*
X230229833Y-117086448D02*
X230187500Y-117255781D01*
X230187500Y-117255781D02*
X230187500Y-117552115D01*
X230187500Y-117552115D02*
X230229833Y-117721448D01*
X230229833Y-117721448D02*
X230314500Y-117806115D01*
X230314500Y-117806115D02*
X230399166Y-117848448D01*
X230399166Y-117848448D02*
X230568500Y-117848448D01*
X230568500Y-117848448D02*
X230653166Y-117806115D01*
X230653166Y-117806115D02*
X230737833Y-117721448D01*
X230737833Y-117721448D02*
X230780166Y-117552115D01*
X230780166Y-117552115D02*
X230780166Y-117255781D01*
X230780166Y-117255781D02*
X230737833Y-117086448D01*
X230737833Y-117086448D02*
X230653166Y-117001781D01*
X230653166Y-117001781D02*
X230568500Y-116959448D01*
X229806500Y-117848448D02*
X229806500Y-116959448D01*
X229806500Y-116959448D02*
X229594833Y-116959448D01*
X229594833Y-116959448D02*
X229467833Y-117001781D01*
X229467833Y-117001781D02*
X229383167Y-117086448D01*
X229383167Y-117086448D02*
X229340833Y-117171115D01*
X229340833Y-117171115D02*
X229298500Y-117340448D01*
X229298500Y-117340448D02*
X229298500Y-117467448D01*
X229298500Y-117467448D02*
X229340833Y-117636781D01*
X229340833Y-117636781D02*
X229383167Y-117721448D01*
X229383167Y-117721448D02*
X229467833Y-117806115D01*
X229467833Y-117806115D02*
X229594833Y-117848448D01*
X229594833Y-117848448D02*
X229806500Y-117848448D01*
X228917500Y-117382781D02*
X228621167Y-117382781D01*
X228494167Y-117848448D02*
X228917500Y-117848448D01*
X228917500Y-117848448D02*
X228917500Y-116959448D01*
X228917500Y-116959448D02*
X228494167Y-116959448D01*
X227605167Y-117848448D02*
X227901500Y-117425115D01*
X228113167Y-117848448D02*
X228113167Y-116959448D01*
X228113167Y-116959448D02*
X227774500Y-116959448D01*
X227774500Y-116959448D02*
X227689834Y-117001781D01*
X227689834Y-117001781D02*
X227647500Y-117044115D01*
X227647500Y-117044115D02*
X227605167Y-117128781D01*
X227605167Y-117128781D02*
X227605167Y-117255781D01*
X227605167Y-117255781D02*
X227647500Y-117340448D01*
X227647500Y-117340448D02*
X227689834Y-117382781D01*
X227689834Y-117382781D02*
X227774500Y-117425115D01*
X227774500Y-117425115D02*
X228113167Y-117425115D01*
X231224666Y-118390688D02*
X230928333Y-119279688D01*
X230928333Y-119279688D02*
X230631999Y-118390688D01*
X229869999Y-119279688D02*
X230377999Y-119279688D01*
X230123999Y-119279688D02*
X230123999Y-118390688D01*
X230123999Y-118390688D02*
X230208666Y-118517688D01*
X230208666Y-118517688D02*
X230293333Y-118602355D01*
X230293333Y-118602355D02*
X230377999Y-118644688D01*
X225779263Y-130282011D02*
X225652263Y-130324344D01*
X225652263Y-130324344D02*
X225440597Y-130324344D01*
X225440597Y-130324344D02*
X225355930Y-130282011D01*
X225355930Y-130282011D02*
X225313597Y-130239677D01*
X225313597Y-130239677D02*
X225271263Y-130155011D01*
X225271263Y-130155011D02*
X225271263Y-130070344D01*
X225271263Y-130070344D02*
X225313597Y-129985677D01*
X225313597Y-129985677D02*
X225355930Y-129943344D01*
X225355930Y-129943344D02*
X225440597Y-129901011D01*
X225440597Y-129901011D02*
X225609930Y-129858677D01*
X225609930Y-129858677D02*
X225694597Y-129816344D01*
X225694597Y-129816344D02*
X225736930Y-129774011D01*
X225736930Y-129774011D02*
X225779263Y-129689344D01*
X225779263Y-129689344D02*
X225779263Y-129604677D01*
X225779263Y-129604677D02*
X225736930Y-129520011D01*
X225736930Y-129520011D02*
X225694597Y-129477677D01*
X225694597Y-129477677D02*
X225609930Y-129435344D01*
X225609930Y-129435344D02*
X225398263Y-129435344D01*
X225398263Y-129435344D02*
X225271263Y-129477677D01*
X224382263Y-130239677D02*
X224424596Y-130282011D01*
X224424596Y-130282011D02*
X224551596Y-130324344D01*
X224551596Y-130324344D02*
X224636263Y-130324344D01*
X224636263Y-130324344D02*
X224763263Y-130282011D01*
X224763263Y-130282011D02*
X224847930Y-130197344D01*
X224847930Y-130197344D02*
X224890263Y-130112677D01*
X224890263Y-130112677D02*
X224932596Y-129943344D01*
X224932596Y-129943344D02*
X224932596Y-129816344D01*
X224932596Y-129816344D02*
X224890263Y-129647011D01*
X224890263Y-129647011D02*
X224847930Y-129562344D01*
X224847930Y-129562344D02*
X224763263Y-129477677D01*
X224763263Y-129477677D02*
X224636263Y-129435344D01*
X224636263Y-129435344D02*
X224551596Y-129435344D01*
X224551596Y-129435344D02*
X224424596Y-129477677D01*
X224424596Y-129477677D02*
X224382263Y-129520011D01*
X223577930Y-130324344D02*
X224001263Y-130324344D01*
X224001263Y-130324344D02*
X224001263Y-129435344D01*
X223281596Y-130324344D02*
X223281596Y-129435344D01*
X222773596Y-130324344D02*
X223154596Y-129816344D01*
X222773596Y-129435344D02*
X223281596Y-129943344D01*
D11*
X226445233Y-123019959D02*
X226656900Y-122717578D01*
X226808090Y-123019959D02*
X226808090Y-122384959D01*
X226808090Y-122384959D02*
X226566185Y-122384959D01*
X226566185Y-122384959D02*
X226505709Y-122415197D01*
X226505709Y-122415197D02*
X226475471Y-122445435D01*
X226475471Y-122445435D02*
X226445233Y-122505911D01*
X226445233Y-122505911D02*
X226445233Y-122596625D01*
X226445233Y-122596625D02*
X226475471Y-122657101D01*
X226475471Y-122657101D02*
X226505709Y-122687340D01*
X226505709Y-122687340D02*
X226566185Y-122717578D01*
X226566185Y-122717578D02*
X226808090Y-122717578D01*
X226233566Y-122384959D02*
X225840471Y-122384959D01*
X225840471Y-122384959D02*
X226052138Y-122626863D01*
X226052138Y-122626863D02*
X225961423Y-122626863D01*
X225961423Y-122626863D02*
X225900947Y-122657101D01*
X225900947Y-122657101D02*
X225870709Y-122687340D01*
X225870709Y-122687340D02*
X225840471Y-122747816D01*
X225840471Y-122747816D02*
X225840471Y-122899006D01*
X225840471Y-122899006D02*
X225870709Y-122959482D01*
X225870709Y-122959482D02*
X225900947Y-122989721D01*
X225900947Y-122989721D02*
X225961423Y-123019959D01*
X225961423Y-123019959D02*
X226142852Y-123019959D01*
X226142852Y-123019959D02*
X226203328Y-122989721D01*
X226203328Y-122989721D02*
X226233566Y-122959482D01*
X234262282Y-125497166D02*
X234292521Y-125466928D01*
X234292521Y-125466928D02*
X234322759Y-125376214D01*
X234322759Y-125376214D02*
X234322759Y-125315738D01*
X234322759Y-125315738D02*
X234292521Y-125225023D01*
X234292521Y-125225023D02*
X234232044Y-125164547D01*
X234232044Y-125164547D02*
X234171568Y-125134309D01*
X234171568Y-125134309D02*
X234050616Y-125104071D01*
X234050616Y-125104071D02*
X233959901Y-125104071D01*
X233959901Y-125104071D02*
X233838949Y-125134309D01*
X233838949Y-125134309D02*
X233778473Y-125164547D01*
X233778473Y-125164547D02*
X233717997Y-125225023D01*
X233717997Y-125225023D02*
X233687759Y-125315738D01*
X233687759Y-125315738D02*
X233687759Y-125376214D01*
X233687759Y-125376214D02*
X233717997Y-125466928D01*
X233717997Y-125466928D02*
X233748235Y-125497166D01*
X233687759Y-125708833D02*
X233687759Y-126101928D01*
X233687759Y-126101928D02*
X233929663Y-125890261D01*
X233929663Y-125890261D02*
X233929663Y-125980976D01*
X233929663Y-125980976D02*
X233959901Y-126041452D01*
X233959901Y-126041452D02*
X233990140Y-126071690D01*
X233990140Y-126071690D02*
X234050616Y-126101928D01*
X234050616Y-126101928D02*
X234201806Y-126101928D01*
X234201806Y-126101928D02*
X234262282Y-126071690D01*
X234262282Y-126071690D02*
X234292521Y-126041452D01*
X234292521Y-126041452D02*
X234322759Y-125980976D01*
X234322759Y-125980976D02*
X234322759Y-125799547D01*
X234322759Y-125799547D02*
X234292521Y-125739071D01*
X234292521Y-125739071D02*
X234262282Y-125708833D01*
X223975282Y-113305166D02*
X224005521Y-113274928D01*
X224005521Y-113274928D02*
X224035759Y-113184214D01*
X224035759Y-113184214D02*
X224035759Y-113123738D01*
X224035759Y-113123738D02*
X224005521Y-113033023D01*
X224005521Y-113033023D02*
X223945044Y-112972547D01*
X223945044Y-112972547D02*
X223884568Y-112942309D01*
X223884568Y-112942309D02*
X223763616Y-112912071D01*
X223763616Y-112912071D02*
X223672901Y-112912071D01*
X223672901Y-112912071D02*
X223551949Y-112942309D01*
X223551949Y-112942309D02*
X223491473Y-112972547D01*
X223491473Y-112972547D02*
X223430997Y-113033023D01*
X223430997Y-113033023D02*
X223400759Y-113123738D01*
X223400759Y-113123738D02*
X223400759Y-113184214D01*
X223400759Y-113184214D02*
X223430997Y-113274928D01*
X223430997Y-113274928D02*
X223461235Y-113305166D01*
X223461235Y-113547071D02*
X223430997Y-113577309D01*
X223430997Y-113577309D02*
X223400759Y-113637785D01*
X223400759Y-113637785D02*
X223400759Y-113788976D01*
X223400759Y-113788976D02*
X223430997Y-113849452D01*
X223430997Y-113849452D02*
X223461235Y-113879690D01*
X223461235Y-113879690D02*
X223521711Y-113909928D01*
X223521711Y-113909928D02*
X223582187Y-113909928D01*
X223582187Y-113909928D02*
X223672901Y-113879690D01*
X223672901Y-113879690D02*
X224035759Y-113516833D01*
X224035759Y-113516833D02*
X224035759Y-113909928D01*
X232747959Y-127478366D02*
X232445578Y-127266699D01*
X232747959Y-127115509D02*
X232112959Y-127115509D01*
X232112959Y-127115509D02*
X232112959Y-127357414D01*
X232112959Y-127357414D02*
X232143197Y-127417890D01*
X232143197Y-127417890D02*
X232173435Y-127448128D01*
X232173435Y-127448128D02*
X232233911Y-127478366D01*
X232233911Y-127478366D02*
X232324625Y-127478366D01*
X232324625Y-127478366D02*
X232385101Y-127448128D01*
X232385101Y-127448128D02*
X232415340Y-127417890D01*
X232415340Y-127417890D02*
X232445578Y-127357414D01*
X232445578Y-127357414D02*
X232445578Y-127115509D01*
X232112959Y-128052890D02*
X232112959Y-127750509D01*
X232112959Y-127750509D02*
X232415340Y-127720271D01*
X232415340Y-127720271D02*
X232385101Y-127750509D01*
X232385101Y-127750509D02*
X232354863Y-127810985D01*
X232354863Y-127810985D02*
X232354863Y-127962176D01*
X232354863Y-127962176D02*
X232385101Y-128022652D01*
X232385101Y-128022652D02*
X232415340Y-128052890D01*
X232415340Y-128052890D02*
X232475816Y-128083128D01*
X232475816Y-128083128D02*
X232627006Y-128083128D01*
X232627006Y-128083128D02*
X232687482Y-128052890D01*
X232687482Y-128052890D02*
X232717721Y-128022652D01*
X232717721Y-128022652D02*
X232747959Y-127962176D01*
X232747959Y-127962176D02*
X232747959Y-127810985D01*
X232747959Y-127810985D02*
X232717721Y-127750509D01*
X232717721Y-127750509D02*
X232687482Y-127720271D01*
X235284433Y-134602559D02*
X235496100Y-134300178D01*
X235647290Y-134602559D02*
X235647290Y-133967559D01*
X235647290Y-133967559D02*
X235405385Y-133967559D01*
X235405385Y-133967559D02*
X235344909Y-133997797D01*
X235344909Y-133997797D02*
X235314671Y-134028035D01*
X235314671Y-134028035D02*
X235284433Y-134088511D01*
X235284433Y-134088511D02*
X235284433Y-134179225D01*
X235284433Y-134179225D02*
X235314671Y-134239701D01*
X235314671Y-134239701D02*
X235344909Y-134269940D01*
X235344909Y-134269940D02*
X235405385Y-134300178D01*
X235405385Y-134300178D02*
X235647290Y-134300178D01*
X234740147Y-133967559D02*
X234861100Y-133967559D01*
X234861100Y-133967559D02*
X234921576Y-133997797D01*
X234921576Y-133997797D02*
X234951814Y-134028035D01*
X234951814Y-134028035D02*
X235012290Y-134118749D01*
X235012290Y-134118749D02*
X235042528Y-134239701D01*
X235042528Y-134239701D02*
X235042528Y-134481606D01*
X235042528Y-134481606D02*
X235012290Y-134542082D01*
X235012290Y-134542082D02*
X234982052Y-134572321D01*
X234982052Y-134572321D02*
X234921576Y-134602559D01*
X234921576Y-134602559D02*
X234800623Y-134602559D01*
X234800623Y-134602559D02*
X234740147Y-134572321D01*
X234740147Y-134572321D02*
X234709909Y-134542082D01*
X234709909Y-134542082D02*
X234679671Y-134481606D01*
X234679671Y-134481606D02*
X234679671Y-134330416D01*
X234679671Y-134330416D02*
X234709909Y-134269940D01*
X234709909Y-134269940D02*
X234740147Y-134239701D01*
X234740147Y-134239701D02*
X234800623Y-134209463D01*
X234800623Y-134209463D02*
X234921576Y-134209463D01*
X234921576Y-134209463D02*
X234982052Y-134239701D01*
X234982052Y-134239701D02*
X235012290Y-134269940D01*
X235012290Y-134269940D02*
X235042528Y-134330416D01*
X237319959Y-125497166D02*
X237017578Y-125285499D01*
X237319959Y-125134309D02*
X236684959Y-125134309D01*
X236684959Y-125134309D02*
X236684959Y-125376214D01*
X236684959Y-125376214D02*
X236715197Y-125436690D01*
X236715197Y-125436690D02*
X236745435Y-125466928D01*
X236745435Y-125466928D02*
X236805911Y-125497166D01*
X236805911Y-125497166D02*
X236896625Y-125497166D01*
X236896625Y-125497166D02*
X236957101Y-125466928D01*
X236957101Y-125466928D02*
X236987340Y-125436690D01*
X236987340Y-125436690D02*
X237017578Y-125376214D01*
X237017578Y-125376214D02*
X237017578Y-125134309D01*
X237319959Y-126101928D02*
X237319959Y-125739071D01*
X237319959Y-125920499D02*
X236684959Y-125920499D01*
X236684959Y-125920499D02*
X236775673Y-125860023D01*
X236775673Y-125860023D02*
X236836149Y-125799547D01*
X236836149Y-125799547D02*
X236866387Y-125739071D01*
X235795959Y-125497166D02*
X235493578Y-125285499D01*
X235795959Y-125134309D02*
X235160959Y-125134309D01*
X235160959Y-125134309D02*
X235160959Y-125376214D01*
X235160959Y-125376214D02*
X235191197Y-125436690D01*
X235191197Y-125436690D02*
X235221435Y-125466928D01*
X235221435Y-125466928D02*
X235281911Y-125497166D01*
X235281911Y-125497166D02*
X235372625Y-125497166D01*
X235372625Y-125497166D02*
X235433101Y-125466928D01*
X235433101Y-125466928D02*
X235463340Y-125436690D01*
X235463340Y-125436690D02*
X235493578Y-125376214D01*
X235493578Y-125376214D02*
X235493578Y-125134309D01*
X235221435Y-125739071D02*
X235191197Y-125769309D01*
X235191197Y-125769309D02*
X235160959Y-125829785D01*
X235160959Y-125829785D02*
X235160959Y-125980976D01*
X235160959Y-125980976D02*
X235191197Y-126041452D01*
X235191197Y-126041452D02*
X235221435Y-126071690D01*
X235221435Y-126071690D02*
X235281911Y-126101928D01*
X235281911Y-126101928D02*
X235342387Y-126101928D01*
X235342387Y-126101928D02*
X235433101Y-126071690D01*
X235433101Y-126071690D02*
X235795959Y-125708833D01*
X235795959Y-125708833D02*
X235795959Y-126101928D01*
X227658282Y-113305166D02*
X227688521Y-113274928D01*
X227688521Y-113274928D02*
X227718759Y-113184214D01*
X227718759Y-113184214D02*
X227718759Y-113123738D01*
X227718759Y-113123738D02*
X227688521Y-113033023D01*
X227688521Y-113033023D02*
X227628044Y-112972547D01*
X227628044Y-112972547D02*
X227567568Y-112942309D01*
X227567568Y-112942309D02*
X227446616Y-112912071D01*
X227446616Y-112912071D02*
X227355901Y-112912071D01*
X227355901Y-112912071D02*
X227234949Y-112942309D01*
X227234949Y-112942309D02*
X227174473Y-112972547D01*
X227174473Y-112972547D02*
X227113997Y-113033023D01*
X227113997Y-113033023D02*
X227083759Y-113123738D01*
X227083759Y-113123738D02*
X227083759Y-113184214D01*
X227083759Y-113184214D02*
X227113997Y-113274928D01*
X227113997Y-113274928D02*
X227144235Y-113305166D01*
X227718759Y-113909928D02*
X227718759Y-113547071D01*
X227718759Y-113728499D02*
X227083759Y-113728499D01*
X227083759Y-113728499D02*
X227174473Y-113668023D01*
X227174473Y-113668023D02*
X227234949Y-113607547D01*
X227234949Y-113607547D02*
X227265187Y-113547071D01*
X231014209Y-120886359D02*
X231014209Y-121400406D01*
X231014209Y-121400406D02*
X230983971Y-121460882D01*
X230983971Y-121460882D02*
X230953733Y-121491121D01*
X230953733Y-121491121D02*
X230893257Y-121521359D01*
X230893257Y-121521359D02*
X230772304Y-121521359D01*
X230772304Y-121521359D02*
X230711828Y-121491121D01*
X230711828Y-121491121D02*
X230681590Y-121460882D01*
X230681590Y-121460882D02*
X230651352Y-121400406D01*
X230651352Y-121400406D02*
X230651352Y-120886359D01*
X230379209Y-120946835D02*
X230348971Y-120916597D01*
X230348971Y-120916597D02*
X230288495Y-120886359D01*
X230288495Y-120886359D02*
X230137304Y-120886359D01*
X230137304Y-120886359D02*
X230076828Y-120916597D01*
X230076828Y-120916597D02*
X230046590Y-120946835D01*
X230046590Y-120946835D02*
X230016352Y-121007311D01*
X230016352Y-121007311D02*
X230016352Y-121067787D01*
X230016352Y-121067787D02*
X230046590Y-121158501D01*
X230046590Y-121158501D02*
X230409447Y-121521359D01*
X230409447Y-121521359D02*
X230016352Y-121521359D01*
X234170359Y-127478366D02*
X233867978Y-127266699D01*
X234170359Y-127115509D02*
X233535359Y-127115509D01*
X233535359Y-127115509D02*
X233535359Y-127357414D01*
X233535359Y-127357414D02*
X233565597Y-127417890D01*
X233565597Y-127417890D02*
X233595835Y-127448128D01*
X233595835Y-127448128D02*
X233656311Y-127478366D01*
X233656311Y-127478366D02*
X233747025Y-127478366D01*
X233747025Y-127478366D02*
X233807501Y-127448128D01*
X233807501Y-127448128D02*
X233837740Y-127417890D01*
X233837740Y-127417890D02*
X233867978Y-127357414D01*
X233867978Y-127357414D02*
X233867978Y-127115509D01*
X233747025Y-128022652D02*
X234170359Y-128022652D01*
X233505121Y-127871461D02*
X233958692Y-127720271D01*
X233958692Y-127720271D02*
X233958692Y-128113366D01*
X235284433Y-136177159D02*
X235496100Y-135874778D01*
X235647290Y-136177159D02*
X235647290Y-135542159D01*
X235647290Y-135542159D02*
X235405385Y-135542159D01*
X235405385Y-135542159D02*
X235344909Y-135572397D01*
X235344909Y-135572397D02*
X235314671Y-135602635D01*
X235314671Y-135602635D02*
X235284433Y-135663111D01*
X235284433Y-135663111D02*
X235284433Y-135753825D01*
X235284433Y-135753825D02*
X235314671Y-135814301D01*
X235314671Y-135814301D02*
X235344909Y-135844540D01*
X235344909Y-135844540D02*
X235405385Y-135874778D01*
X235405385Y-135874778D02*
X235647290Y-135874778D01*
X235072766Y-135542159D02*
X234649433Y-135542159D01*
X234649433Y-135542159D02*
X234921576Y-136177159D01*
D12*
%TO.C,R3*%
X226127542Y-123302500D02*
X226602058Y-123302500D01*
X226127542Y-124347500D02*
X226602058Y-124347500D01*
%TO.C,C3*%
X233474800Y-123430420D02*
X233474800Y-123711580D01*
X234494800Y-123430420D02*
X234494800Y-123711580D01*
%TO.C,C2*%
X224280000Y-113551580D02*
X224280000Y-113270420D01*
X225300000Y-113551580D02*
X225300000Y-113270420D01*
%TO.C,R5*%
X231938300Y-129904258D02*
X231938300Y-129429742D01*
X232983300Y-129904258D02*
X232983300Y-129429742D01*
%TO.C,R6*%
X236973342Y-133767500D02*
X237447858Y-133767500D01*
X236973342Y-134812500D02*
X237447858Y-134812500D01*
%TO.C,R1*%
X236510300Y-123808258D02*
X236510300Y-123333742D01*
X237555300Y-123808258D02*
X237555300Y-123333742D01*
%TO.C,R2*%
X234986300Y-123808258D02*
X234986300Y-123333742D01*
X236031300Y-123808258D02*
X236031300Y-123333742D01*
%TO.C,C1*%
X225804000Y-113551580D02*
X225804000Y-113270420D01*
X226824000Y-113551580D02*
X226824000Y-113270420D01*
%TO.C,U2*%
X228945800Y-121961000D02*
X229420800Y-121961000D01*
X228945800Y-122436000D02*
X228945800Y-121961000D01*
X228945800Y-124941000D02*
X228945800Y-124706000D01*
X229245800Y-125181000D02*
X229420800Y-125181000D01*
X232165800Y-121961000D02*
X231690800Y-121961000D01*
X232165800Y-122436000D02*
X232165800Y-121961000D01*
X232165800Y-124706000D02*
X232165800Y-125181000D01*
X232165800Y-125181000D02*
X231690800Y-125181000D01*
X229185800Y-125511000D02*
X228705800Y-125511000D01*
X228945800Y-125181000D01*
X229185800Y-125511000D01*
G36*
X229185800Y-125511000D02*
G01*
X228705800Y-125511000D01*
X228945800Y-125181000D01*
X229185800Y-125511000D01*
G37*
%TO.C,R4*%
X233462300Y-129904258D02*
X233462300Y-129429742D01*
X234507300Y-129904258D02*
X234507300Y-129429742D01*
%TO.C,R7*%
X236973342Y-135367500D02*
X237447858Y-135367500D01*
X236973342Y-136412500D02*
X237447858Y-136412500D01*
%TD*%
M02*
