%TF.GenerationSoftware,KiCad,Pcbnew,8.0.3-8.0.3-0~ubuntu22.04.1*%
%TF.CreationDate,2024-07-14T14:24:35-07:00*%
%TF.ProjectId,NX-IndicatorBoard,4e582d49-6e64-4696-9361-746f72426f61,2*%
%TF.SameCoordinates,Original*%
%TF.FileFunction,Paste,Top*%
%TF.FilePolarity,Positive*%
%FSLAX46Y46*%
G04 Gerber Fmt 4.6, Leading zero omitted, Abs format (unit mm)*
G04 Created by KiCad (PCBNEW 8.0.3-8.0.3-0~ubuntu22.04.1) date 2024-07-14 14:24:35*
%MOMM*%
%LPD*%
G01*
G04 APERTURE LIST*
G04 Aperture macros list*
%AMRoundRect*
0 Rectangle with rounded corners*
0 $1 Rounding radius*
0 $2 $3 $4 $5 $6 $7 $8 $9 X,Y pos of 4 corners*
0 Add a 4 corners polygon primitive as box body*
4,1,4,$2,$3,$4,$5,$6,$7,$8,$9,$2,$3,0*
0 Add four circle primitives for the rounded corners*
1,1,$1+$1,$2,$3*
1,1,$1+$1,$4,$5*
1,1,$1+$1,$6,$7*
1,1,$1+$1,$8,$9*
0 Add four rect primitives between the rounded corners*
20,1,$1+$1,$2,$3,$4,$5,0*
20,1,$1+$1,$4,$5,$6,$7,0*
20,1,$1+$1,$6,$7,$8,$9,0*
20,1,$1+$1,$8,$9,$2,$3,0*%
G04 Aperture macros list end*
%ADD10C,0.187500*%
%ADD11RoundRect,0.250000X0.625000X-0.375000X0.625000X0.375000X-0.625000X0.375000X-0.625000X-0.375000X0*%
%ADD12RoundRect,0.225000X-0.250000X0.225000X-0.250000X-0.225000X0.250000X-0.225000X0.250000X0.225000X0*%
%ADD13RoundRect,0.200000X0.275000X-0.200000X0.275000X0.200000X-0.275000X0.200000X-0.275000X-0.200000X0*%
%ADD14R,1.500000X0.600000*%
%ADD15R,1.400000X1.200000*%
%ADD16R,1.780000X1.020000*%
%ADD17RoundRect,0.150000X-0.150000X0.587500X-0.150000X-0.587500X0.150000X-0.587500X0.150000X0.587500X0*%
%ADD18R,0.850000X0.660000*%
%ADD19O,0.350000X0.850000*%
%ADD20R,1.000000X0.600000*%
%ADD21R,0.350000X0.650000*%
G04 APERTURE END LIST*
D10*
X29377697Y-65695964D02*
X28877697Y-65695964D01*
X28877697Y-66481678D02*
X28877697Y-64981678D01*
X28877697Y-64981678D02*
X29591983Y-64981678D01*
X30163411Y-66338821D02*
X30234840Y-66410250D01*
X30234840Y-66410250D02*
X30163411Y-66481678D01*
X30163411Y-66481678D02*
X30091983Y-66410250D01*
X30091983Y-66410250D02*
X30163411Y-66338821D01*
X30163411Y-66338821D02*
X30163411Y-66481678D01*
X30877697Y-66481678D02*
X30877697Y-64981678D01*
X30877697Y-64981678D02*
X31449126Y-64981678D01*
X31449126Y-64981678D02*
X31591983Y-65053107D01*
X31591983Y-65053107D02*
X31663412Y-65124535D01*
X31663412Y-65124535D02*
X31734840Y-65267392D01*
X31734840Y-65267392D02*
X31734840Y-65481678D01*
X31734840Y-65481678D02*
X31663412Y-65624535D01*
X31663412Y-65624535D02*
X31591983Y-65695964D01*
X31591983Y-65695964D02*
X31449126Y-65767392D01*
X31449126Y-65767392D02*
X30877697Y-65767392D01*
X33020555Y-66481678D02*
X33020555Y-65695964D01*
X33020555Y-65695964D02*
X32949126Y-65553107D01*
X32949126Y-65553107D02*
X32806269Y-65481678D01*
X32806269Y-65481678D02*
X32520555Y-65481678D01*
X32520555Y-65481678D02*
X32377697Y-65553107D01*
X33020555Y-66410250D02*
X32877697Y-66481678D01*
X32877697Y-66481678D02*
X32520555Y-66481678D01*
X32520555Y-66481678D02*
X32377697Y-66410250D01*
X32377697Y-66410250D02*
X32306269Y-66267392D01*
X32306269Y-66267392D02*
X32306269Y-66124535D01*
X32306269Y-66124535D02*
X32377697Y-65981678D01*
X32377697Y-65981678D02*
X32520555Y-65910250D01*
X32520555Y-65910250D02*
X32877697Y-65910250D01*
X32877697Y-65910250D02*
X33020555Y-65838821D01*
X33663412Y-66410250D02*
X33806269Y-66481678D01*
X33806269Y-66481678D02*
X34091983Y-66481678D01*
X34091983Y-66481678D02*
X34234840Y-66410250D01*
X34234840Y-66410250D02*
X34306269Y-66267392D01*
X34306269Y-66267392D02*
X34306269Y-66195964D01*
X34306269Y-66195964D02*
X34234840Y-66053107D01*
X34234840Y-66053107D02*
X34091983Y-65981678D01*
X34091983Y-65981678D02*
X33877698Y-65981678D01*
X33877698Y-65981678D02*
X33734840Y-65910250D01*
X33734840Y-65910250D02*
X33663412Y-65767392D01*
X33663412Y-65767392D02*
X33663412Y-65695964D01*
X33663412Y-65695964D02*
X33734840Y-65553107D01*
X33734840Y-65553107D02*
X33877698Y-65481678D01*
X33877698Y-65481678D02*
X34091983Y-65481678D01*
X34091983Y-65481678D02*
X34234840Y-65553107D01*
X34734841Y-65481678D02*
X35306269Y-65481678D01*
X34949126Y-64981678D02*
X34949126Y-66267392D01*
X34949126Y-66267392D02*
X35020555Y-66410250D01*
X35020555Y-66410250D02*
X35163412Y-66481678D01*
X35163412Y-66481678D02*
X35306269Y-66481678D01*
X36377698Y-66410250D02*
X36234841Y-66481678D01*
X36234841Y-66481678D02*
X35949127Y-66481678D01*
X35949127Y-66481678D02*
X35806269Y-66410250D01*
X35806269Y-66410250D02*
X35734841Y-66267392D01*
X35734841Y-66267392D02*
X35734841Y-65695964D01*
X35734841Y-65695964D02*
X35806269Y-65553107D01*
X35806269Y-65553107D02*
X35949127Y-65481678D01*
X35949127Y-65481678D02*
X36234841Y-65481678D01*
X36234841Y-65481678D02*
X36377698Y-65553107D01*
X36377698Y-65553107D02*
X36449127Y-65695964D01*
X36449127Y-65695964D02*
X36449127Y-65838821D01*
X36449127Y-65838821D02*
X35734841Y-65981678D01*
D11*
%TO.C,D8*%
X92887800Y-117274800D03*
X92887800Y-114474800D03*
%TD*%
D12*
%TO.C,C2*%
X131445000Y-100977400D03*
X131445000Y-102527400D03*
%TD*%
%TO.C,C1*%
X108585000Y-100977400D03*
X108585000Y-102527400D03*
%TD*%
D13*
%TO.C,R3*%
X81965800Y-103339400D03*
X81965800Y-101689400D03*
%TD*%
D14*
%TO.C,U1*%
X97612400Y-104013000D03*
X97612400Y-102743000D03*
X97612400Y-101473000D03*
X97612400Y-100203000D03*
X97612400Y-98933000D03*
X97612400Y-97663000D03*
X97612400Y-96393000D03*
X97612400Y-95123000D03*
X97612400Y-93853000D03*
X97612400Y-92583000D03*
X88112400Y-92583000D03*
X88112400Y-93853000D03*
X88112400Y-95123000D03*
X88112400Y-96393000D03*
X88112400Y-97663000D03*
X88112400Y-98933000D03*
X88112400Y-100203000D03*
X88112400Y-101473000D03*
X88112400Y-102743000D03*
X88112400Y-104013000D03*
%TD*%
D13*
%TO.C,R2*%
X80441800Y-103339400D03*
X80441800Y-101689400D03*
%TD*%
D11*
%TO.C,D9*%
X77139800Y-123320000D03*
X77139800Y-120520000D03*
%TD*%
D15*
%TO.C,U4*%
X110490000Y-109177000D03*
X113030000Y-109177000D03*
X113030000Y-106977000D03*
X110490000Y-106977000D03*
%TD*%
D12*
%TO.C,C3*%
X115062000Y-107810000D03*
X115062000Y-109360000D03*
%TD*%
D15*
%TO.C,U5*%
X133350000Y-109177000D03*
X135890000Y-109177000D03*
X135890000Y-106977000D03*
X133350000Y-106977000D03*
%TD*%
D16*
%TO.C,J1*%
X160910000Y-104130000D03*
X155090000Y-104130000D03*
X160910000Y-101590000D03*
X155090000Y-101590000D03*
X160910000Y-99050000D03*
X155090000Y-99050000D03*
X160910000Y-96510000D03*
X155090000Y-96510000D03*
X160910000Y-93970000D03*
X155090000Y-93970000D03*
X160910000Y-91430000D03*
X155090000Y-91430000D03*
X160910000Y-88890000D03*
X155090000Y-88890000D03*
X160910000Y-86350000D03*
X155090000Y-86350000D03*
X160910000Y-83810000D03*
X155090000Y-83810000D03*
X160910000Y-81270000D03*
X155090000Y-81270000D03*
X160910000Y-78730000D03*
X155090000Y-78730000D03*
X160910000Y-76190000D03*
X155090000Y-76190000D03*
X160910000Y-73650000D03*
X155090000Y-73650000D03*
X160910000Y-71110000D03*
X155090000Y-71110000D03*
X160910000Y-68570000D03*
X155090000Y-68570000D03*
X160910000Y-66030000D03*
X155090000Y-66030000D03*
X160910000Y-63490000D03*
X155090000Y-63490000D03*
X160910000Y-60950000D03*
X155090000Y-60950000D03*
X160910000Y-58410000D03*
X155090000Y-58410000D03*
X160910000Y-55870000D03*
X155090000Y-55870000D03*
%TD*%
D17*
%TO.C,D2*%
X142910600Y-108460300D03*
X141010600Y-108460300D03*
X141960600Y-110335300D03*
%TD*%
D18*
%TO.C,U2*%
X110293250Y-103461000D03*
X111355750Y-103461000D03*
X112418250Y-103461000D03*
X113480750Y-103461000D03*
X110293250Y-102636000D03*
X111355750Y-102636000D03*
X112418250Y-102636000D03*
X113480750Y-102636000D03*
D19*
X109937000Y-104548500D03*
X110587000Y-104548500D03*
X111237000Y-104548500D03*
X111887000Y-104548500D03*
X112537000Y-104548500D03*
X113187000Y-104548500D03*
X113837000Y-104548500D03*
X113837000Y-101548500D03*
X113187000Y-101548500D03*
X112537000Y-101548500D03*
X111887000Y-101548500D03*
X111237000Y-101548500D03*
X110587000Y-101548500D03*
X109937000Y-101548500D03*
%TD*%
D11*
%TO.C,D3*%
X77139800Y-111204200D03*
X77139800Y-108404200D03*
%TD*%
D12*
%TO.C,C4*%
X137922000Y-107810000D03*
X137922000Y-109360000D03*
%TD*%
D18*
%TO.C,U3*%
X133153250Y-103461000D03*
X134215750Y-103461000D03*
X135278250Y-103461000D03*
X136340750Y-103461000D03*
X133153250Y-102636000D03*
X134215750Y-102636000D03*
X135278250Y-102636000D03*
X136340750Y-102636000D03*
D19*
X132797000Y-104548500D03*
X133447000Y-104548500D03*
X134097000Y-104548500D03*
X134747000Y-104548500D03*
X135397000Y-104548500D03*
X136047000Y-104548500D03*
X136697000Y-104548500D03*
X136697000Y-101548500D03*
X136047000Y-101548500D03*
X135397000Y-101548500D03*
X134747000Y-101548500D03*
X134097000Y-101548500D03*
X133447000Y-101548500D03*
X132797000Y-101548500D03*
%TD*%
D11*
%TO.C,D7*%
X85013800Y-117274800D03*
X85013800Y-114474800D03*
%TD*%
%TO.C,D11*%
X92887800Y-123320000D03*
X92887800Y-120520000D03*
%TD*%
D20*
%TO.C,U7*%
X129454200Y-108832500D03*
X128254200Y-108832500D03*
X129454200Y-109607500D03*
X128254200Y-109607500D03*
D21*
X129829200Y-107670000D03*
X129179200Y-107670000D03*
X128529200Y-107670000D03*
X127879200Y-107670000D03*
X127879200Y-110770000D03*
X128529200Y-110770000D03*
X129179200Y-110770000D03*
X129829200Y-110770000D03*
%TD*%
D13*
%TO.C,R5*%
X85013800Y-103339400D03*
X85013800Y-101689400D03*
%TD*%
D11*
%TO.C,D5*%
X92887800Y-111204200D03*
X92887800Y-108404200D03*
%TD*%
D17*
%TO.C,D1*%
X120050600Y-108460300D03*
X118150600Y-108460300D03*
X119100600Y-110335300D03*
%TD*%
D13*
%TO.C,R4*%
X83489800Y-103339400D03*
X83489800Y-101689400D03*
%TD*%
D20*
%TO.C,U6*%
X106594200Y-108832500D03*
X105394200Y-108832500D03*
X106594200Y-109607500D03*
X105394200Y-109607500D03*
D21*
X106969200Y-107670000D03*
X106319200Y-107670000D03*
X105669200Y-107670000D03*
X105019200Y-107670000D03*
X105019200Y-110770000D03*
X105669200Y-110770000D03*
X106319200Y-110770000D03*
X106969200Y-110770000D03*
%TD*%
D11*
%TO.C,D4*%
X85013800Y-111204200D03*
X85013800Y-108404200D03*
%TD*%
%TO.C,D6*%
X77139800Y-117274800D03*
X77139800Y-114474800D03*
%TD*%
D13*
%TO.C,R1*%
X78917800Y-103339400D03*
X78917800Y-101689400D03*
%TD*%
D11*
%TO.C,D10*%
X85013800Y-123320000D03*
X85013800Y-120520000D03*
%TD*%
M02*
