%TF.GenerationSoftware,KiCad,Pcbnew,8.0.4-8.0.4-0~ubuntu22.04.1*%
%TF.CreationDate,2024-07-28T18:21:59-07:00*%
%TF.ProjectId,NX-IndicatorBoard,4e582d49-6e64-4696-9361-746f72426f61,2*%
%TF.SameCoordinates,Original*%
%TF.FileFunction,Copper,L3,Inr*%
%TF.FilePolarity,Positive*%
%FSLAX46Y46*%
G04 Gerber Fmt 4.6, Leading zero omitted, Abs format (unit mm)*
G04 Created by KiCad (PCBNEW 8.0.4-8.0.4-0~ubuntu22.04.1) date 2024-07-28 18:21:59*
%MOMM*%
%LPD*%
G01*
G04 APERTURE LIST*
%ADD10C,0.300000*%
%TA.AperFunction,NonConductor*%
%ADD11C,0.300000*%
%TD*%
%ADD12C,0.187500*%
%TA.AperFunction,NonConductor*%
%ADD13C,0.187500*%
%TD*%
%TA.AperFunction,ComponentPad*%
%ADD14C,1.000000*%
%TD*%
%TA.AperFunction,ComponentPad*%
%ADD15C,1.500000*%
%TD*%
%TA.AperFunction,ComponentPad*%
%ADD16C,1.700000*%
%TD*%
%TA.AperFunction,ComponentPad*%
%ADD17R,1.778000X1.778000*%
%TD*%
%TA.AperFunction,ComponentPad*%
%ADD18C,1.778000*%
%TD*%
%TA.AperFunction,ComponentPad*%
%ADD19R,1.905000X1.600200*%
%TD*%
%TA.AperFunction,ComponentPad*%
%ADD20O,1.905000X1.600200*%
%TD*%
%TA.AperFunction,ViaPad*%
%ADD21C,0.889000*%
%TD*%
G04 APERTURE END LIST*
D10*
D11*
X68555065Y-123624428D02*
X67626493Y-123624428D01*
X67626493Y-123624428D02*
X68126493Y-124195857D01*
X68126493Y-124195857D02*
X67912208Y-124195857D01*
X67912208Y-124195857D02*
X67769351Y-124267285D01*
X67769351Y-124267285D02*
X67697922Y-124338714D01*
X67697922Y-124338714D02*
X67626493Y-124481571D01*
X67626493Y-124481571D02*
X67626493Y-124838714D01*
X67626493Y-124838714D02*
X67697922Y-124981571D01*
X67697922Y-124981571D02*
X67769351Y-125053000D01*
X67769351Y-125053000D02*
X67912208Y-125124428D01*
X67912208Y-125124428D02*
X68340779Y-125124428D01*
X68340779Y-125124428D02*
X68483636Y-125053000D01*
X68483636Y-125053000D02*
X68555065Y-124981571D01*
D12*
D13*
X28877697Y-61401678D02*
X28877697Y-59901678D01*
X29591983Y-60401678D02*
X29591983Y-61401678D01*
X29591983Y-60544535D02*
X29663412Y-60473107D01*
X29663412Y-60473107D02*
X29806269Y-60401678D01*
X29806269Y-60401678D02*
X30020555Y-60401678D01*
X30020555Y-60401678D02*
X30163412Y-60473107D01*
X30163412Y-60473107D02*
X30234841Y-60615964D01*
X30234841Y-60615964D02*
X30234841Y-61401678D01*
X30877698Y-60044535D02*
X30949126Y-59973107D01*
X30949126Y-59973107D02*
X31091984Y-59901678D01*
X31091984Y-59901678D02*
X31449126Y-59901678D01*
X31449126Y-59901678D02*
X31591984Y-59973107D01*
X31591984Y-59973107D02*
X31663412Y-60044535D01*
X31663412Y-60044535D02*
X31734841Y-60187392D01*
X31734841Y-60187392D02*
X31734841Y-60330250D01*
X31734841Y-60330250D02*
X31663412Y-60544535D01*
X31663412Y-60544535D02*
X30806269Y-61401678D01*
X30806269Y-61401678D02*
X31734841Y-61401678D01*
X32377697Y-61258821D02*
X32449126Y-61330250D01*
X32449126Y-61330250D02*
X32377697Y-61401678D01*
X32377697Y-61401678D02*
X32306269Y-61330250D01*
X32306269Y-61330250D02*
X32377697Y-61258821D01*
X32377697Y-61258821D02*
X32377697Y-61401678D01*
X33949126Y-61258821D02*
X33877698Y-61330250D01*
X33877698Y-61330250D02*
X33663412Y-61401678D01*
X33663412Y-61401678D02*
X33520555Y-61401678D01*
X33520555Y-61401678D02*
X33306269Y-61330250D01*
X33306269Y-61330250D02*
X33163412Y-61187392D01*
X33163412Y-61187392D02*
X33091983Y-61044535D01*
X33091983Y-61044535D02*
X33020555Y-60758821D01*
X33020555Y-60758821D02*
X33020555Y-60544535D01*
X33020555Y-60544535D02*
X33091983Y-60258821D01*
X33091983Y-60258821D02*
X33163412Y-60115964D01*
X33163412Y-60115964D02*
X33306269Y-59973107D01*
X33306269Y-59973107D02*
X33520555Y-59901678D01*
X33520555Y-59901678D02*
X33663412Y-59901678D01*
X33663412Y-59901678D02*
X33877698Y-59973107D01*
X33877698Y-59973107D02*
X33949126Y-60044535D01*
X35234841Y-60401678D02*
X35234841Y-61401678D01*
X34591983Y-60401678D02*
X34591983Y-61187392D01*
X34591983Y-61187392D02*
X34663412Y-61330250D01*
X34663412Y-61330250D02*
X34806269Y-61401678D01*
X34806269Y-61401678D02*
X35020555Y-61401678D01*
X35020555Y-61401678D02*
X35163412Y-61330250D01*
X35163412Y-61330250D02*
X35234841Y-61258821D01*
D14*
%TO.N,Net-(U3-CLKO{slash}SOF)*%
%TO.C,TP1*%
X111734600Y-109702600D03*
%TD*%
D15*
%TO.N,+3V3*%
%TO.C,J1*%
X159270000Y-104130000D03*
%TO.N,+5V*%
X156730000Y-104130000D03*
%TO.N,/I2C1_SDA*%
X159270000Y-101590000D03*
%TO.N,+5V*%
X156730000Y-101590000D03*
D16*
%TO.N,/I2C1_SCL*%
X159270000Y-99050000D03*
%TO.N,GND*%
X156730000Y-99050000D03*
%TO.N,/GPIO09*%
X159270000Y-96510000D03*
%TO.N,/UART1_TXD*%
X156730000Y-96510000D03*
%TO.N,GND*%
X159270000Y-93970000D03*
%TO.N,/UART1_RXD*%
X156730000Y-93970000D03*
%TO.N,/UART1_RTS*%
X159270000Y-91430000D03*
%TO.N,/I2S0_SCLK*%
X156730000Y-91430000D03*
%TO.N,/SPI1_SCK*%
X159270000Y-88890000D03*
%TO.N,GND*%
X156730000Y-88890000D03*
%TO.N,/GPIO12*%
X159270000Y-86350000D03*
%TO.N,/SPI1_CS1*%
X156730000Y-86350000D03*
%TO.N,+3V3*%
X159270000Y-83810000D03*
%TO.N,/SPI1_CS0*%
X156730000Y-83810000D03*
%TO.N,/SPI0_MOSI*%
X159270000Y-81270000D03*
%TO.N,GND*%
X156730000Y-81270000D03*
%TO.N,/SPI0_MISO*%
X159270000Y-78730000D03*
%TO.N,/SPI1_MISO*%
X156730000Y-78730000D03*
%TO.N,/SPI0_SCK*%
X159270000Y-76190000D03*
%TO.N,/SPI0_CS0*%
X156730000Y-76190000D03*
%TO.N,GND*%
X159270000Y-73650000D03*
%TO.N,/SPI0_CS1*%
X156730000Y-73650000D03*
%TO.N,/I2C0_SDA*%
X159270000Y-71110000D03*
%TO.N,/I2C0_SCL*%
X156730000Y-71110000D03*
%TO.N,/GPIO01*%
X159270000Y-68570000D03*
%TO.N,GND*%
X156730000Y-68570000D03*
%TO.N,/GPIO11*%
X159270000Y-66030000D03*
%TO.N,/GPIO07*%
X156730000Y-66030000D03*
%TO.N,/GPIO13*%
X159270000Y-63490000D03*
%TO.N,GND*%
X156730000Y-63490000D03*
%TO.N,/I2S0_FS*%
X159270000Y-60950000D03*
%TO.N,/UART1_CTS*%
X156730000Y-60950000D03*
D15*
%TO.N,/SPI1_MOSI*%
X159270000Y-58410000D03*
%TO.N,/I2S0_DIN*%
X156730000Y-58410000D03*
%TO.N,GND*%
X159270000Y-55870000D03*
%TO.N,/I2S0_DOUT*%
X156730000Y-55870000D03*
%TD*%
D17*
%TO.N,/CAN1_L*%
%TO.C,J2*%
X110236000Y-112903000D03*
D18*
%TO.N,/CAN1_H*%
X107696000Y-112903000D03*
%TD*%
D14*
%TO.N,Net-(U6-CLKO{slash}SOF)*%
%TO.C,TP2*%
X135001000Y-109677200D03*
%TD*%
D17*
%TO.N,/CAN2_L*%
%TO.C,J5*%
X143230600Y-112903000D03*
D18*
%TO.N,/CAN2_H*%
X140690600Y-112903000D03*
%TD*%
D17*
%TO.N,/CAN1_L*%
%TO.C,J3*%
X120396000Y-112903000D03*
D18*
%TO.N,/CAN1_H*%
X117856000Y-112903000D03*
%TD*%
D17*
%TO.N,/CAN2_L*%
%TO.C,J4*%
X133096000Y-112903000D03*
D18*
%TO.N,/CAN2_H*%
X130556000Y-112903000D03*
%TD*%
D19*
%TO.N,/NX_PC_LED-*%
%TO.C,J6*%
X59317800Y-119786400D03*
D20*
%TO.N,/NX_PC_LED+*%
X59317800Y-117246400D03*
%TD*%
D21*
%TO.N,+3V3*%
X88802464Y-106235475D03*
X123952000Y-107492800D03*
X144932400Y-101930200D03*
X102438200Y-105384600D03*
X125476000Y-105054400D03*
X131406900Y-101485700D03*
X147243800Y-107518200D03*
X149453600Y-102793800D03*
X144907000Y-106832400D03*
X149301200Y-101041200D03*
X147633249Y-100555421D03*
X86614000Y-103987600D03*
X121615200Y-101981000D03*
X108102402Y-101422202D03*
X121615200Y-106807000D03*
%TO.N,GND*%
X112852200Y-104419400D03*
X140055600Y-105181400D03*
X75946000Y-123164600D03*
X106553000Y-108610400D03*
X81965800Y-115976400D03*
X96062800Y-98933000D03*
X117398800Y-103708200D03*
X147243800Y-103174800D03*
X106807000Y-103530400D03*
X120065800Y-108102400D03*
X130276600Y-103479600D03*
X140944600Y-103276400D03*
X116789200Y-105181400D03*
X96113600Y-92608400D03*
X129819400Y-108610400D03*
X87909400Y-116128800D03*
X87985600Y-123799600D03*
X81788000Y-123799600D03*
X99110800Y-104038400D03*
X86614000Y-102743000D03*
X136121710Y-104414192D03*
X123952000Y-103200200D03*
X143408400Y-108102400D03*
%TO.N,+5V*%
X103987600Y-100253800D03*
X127254000Y-100304600D03*
%TO.N,Net-(D3-A)*%
X97028000Y-112750600D03*
%TO.N,Net-(D4-A)*%
X88112600Y-113512600D03*
%TO.N,Net-(D6-A)*%
X93954600Y-123139200D03*
%TO.N,Net-(D8-A)*%
X81635600Y-122428000D03*
%TO.N,Net-(D7-A)*%
X87604600Y-122555000D03*
%TO.N,/GPIO09*%
X149504400Y-99822000D03*
X115290600Y-104419400D03*
X152958800Y-102946200D03*
%TO.N,/UART1_TXD*%
X136245600Y-94717108D03*
%TO.N,/UART1_RXD*%
X140079414Y-95271844D03*
%TO.N,/UART1_RTS*%
X152628600Y-101015800D03*
X95656400Y-97129600D03*
%TO.N,/I2S0_SCLK*%
X104698802Y-95732601D03*
X107924601Y-95732601D03*
X142354299Y-95110299D03*
%TO.N,/GPIO12*%
X121691400Y-95250000D03*
X115900200Y-99974400D03*
X138125200Y-95250000D03*
%TO.N,/SPI0_MOSI*%
X151917400Y-97231200D03*
%TO.N,/SPI0_MISO*%
X148197566Y-96000568D03*
%TO.N,/SPI1_MISO*%
X135736323Y-99240001D03*
%TO.N,/SPI0_SCK*%
X151942800Y-98958400D03*
%TO.N,/SPI1_CS0*%
X133925566Y-99183827D03*
%TO.N,/GPIO01*%
X138049000Y-103885998D03*
%TO.N,/GPIO11*%
X144604107Y-95637116D03*
X141249400Y-100457000D03*
%TO.N,/GPIO07*%
X117754400Y-99999800D03*
%TO.N,/GPIO13*%
X154406600Y-106626850D03*
%TO.N,/UART1_CTS*%
X100507800Y-96282764D03*
%TO.N,/SPI1_MOSI*%
X137462896Y-99489896D03*
%TO.N,/SPI0_CS0*%
X145239104Y-93978096D03*
%TD*%
%TA.AperFunction,Conductor*%
%TO.N,GND*%
G36*
X160384067Y-47576273D02*
G01*
X160447912Y-47576272D01*
X160456021Y-47576536D01*
X160710237Y-47593197D01*
X160726304Y-47595312D01*
X160942215Y-47638257D01*
X160972176Y-47644217D01*
X160987844Y-47648416D01*
X161153161Y-47704533D01*
X161225221Y-47728994D01*
X161240191Y-47735194D01*
X161465031Y-47846072D01*
X161479072Y-47854179D01*
X161687501Y-47993448D01*
X161700369Y-48003322D01*
X161888845Y-48168613D01*
X161900315Y-48180083D01*
X162065597Y-48368554D01*
X162075471Y-48381423D01*
X162214734Y-48589852D01*
X162222844Y-48603899D01*
X162333714Y-48828730D01*
X162339921Y-48843716D01*
X162420494Y-49081091D01*
X162424692Y-49096759D01*
X162473591Y-49342620D01*
X162475708Y-49358702D01*
X162492405Y-49613562D01*
X162492670Y-49621697D01*
X162475716Y-123324828D01*
X162475700Y-123325118D01*
X162475700Y-123395933D01*
X162475435Y-123404043D01*
X162458773Y-123658261D01*
X162456655Y-123674342D01*
X162407751Y-123920198D01*
X162403553Y-123935866D01*
X162322973Y-124173246D01*
X162316766Y-124188231D01*
X162205892Y-124413060D01*
X162197782Y-124427107D01*
X162058511Y-124635541D01*
X162048637Y-124648409D01*
X161883351Y-124836882D01*
X161871882Y-124848351D01*
X161683409Y-125013637D01*
X161670541Y-125023511D01*
X161462107Y-125162782D01*
X161448060Y-125170892D01*
X161223231Y-125281766D01*
X161208246Y-125287973D01*
X160970866Y-125368553D01*
X160955198Y-125372751D01*
X160709342Y-125421655D01*
X160693261Y-125423773D01*
X160439043Y-125440435D01*
X160430933Y-125440700D01*
X70888400Y-125440700D01*
X70821361Y-125421015D01*
X70775606Y-125368211D01*
X70764400Y-125316700D01*
X70764400Y-123215400D01*
X69018040Y-123215400D01*
X69010844Y-123213287D01*
X68964565Y-123213287D01*
X67215268Y-123213287D01*
X67181445Y-123213287D01*
X67161793Y-123215400D01*
X63525400Y-123215400D01*
X63525400Y-125316700D01*
X63505715Y-125383739D01*
X63452911Y-125429494D01*
X63401400Y-125440700D01*
X57604067Y-125440700D01*
X57595957Y-125440435D01*
X57341738Y-125423773D01*
X57325657Y-125421655D01*
X57079801Y-125372751D01*
X57064133Y-125368553D01*
X56826753Y-125287973D01*
X56811768Y-125281766D01*
X56586939Y-125170892D01*
X56572892Y-125162782D01*
X56364458Y-125023511D01*
X56351590Y-125013637D01*
X56163117Y-124848351D01*
X56151648Y-124836882D01*
X55986362Y-124648409D01*
X55976488Y-124635541D01*
X55837217Y-124427107D01*
X55829107Y-124413060D01*
X55823000Y-124400678D01*
X55718230Y-124188224D01*
X55712029Y-124173253D01*
X55631443Y-123935855D01*
X55627251Y-123920210D01*
X55578342Y-123674331D01*
X55576227Y-123658273D01*
X55559565Y-123404051D01*
X55559300Y-123395941D01*
X55559300Y-123324857D01*
X55559268Y-123324358D01*
X55557457Y-118961228D01*
X58110800Y-118961228D01*
X58110800Y-120611563D01*
X58125566Y-120685801D01*
X58181815Y-120769984D01*
X58212758Y-120790659D01*
X58265999Y-120826234D01*
X58266002Y-120826234D01*
X58266003Y-120826235D01*
X58290966Y-120831200D01*
X58340233Y-120841000D01*
X60295366Y-120840999D01*
X60369601Y-120826234D01*
X60453784Y-120769984D01*
X60510034Y-120685801D01*
X60524800Y-120611567D01*
X60524799Y-118961234D01*
X60510034Y-118886999D01*
X60491368Y-118859065D01*
X60453784Y-118802815D01*
X60403319Y-118769096D01*
X60369601Y-118746566D01*
X60369599Y-118746565D01*
X60369596Y-118746564D01*
X60295369Y-118731800D01*
X58340236Y-118731800D01*
X58265998Y-118746566D01*
X58181815Y-118802815D01*
X58125566Y-118886999D01*
X58125564Y-118887003D01*
X58110800Y-118961228D01*
X55557457Y-118961228D01*
X55556702Y-117142526D01*
X58110800Y-117142526D01*
X58110800Y-117350273D01*
X58151325Y-117554008D01*
X58151327Y-117554016D01*
X58230823Y-117745938D01*
X58346238Y-117918667D01*
X58346241Y-117918671D01*
X58493128Y-118065558D01*
X58493132Y-118065561D01*
X58665859Y-118180975D01*
X58857784Y-118260473D01*
X59061526Y-118300999D01*
X59061530Y-118301000D01*
X59061531Y-118301000D01*
X59574070Y-118301000D01*
X59574071Y-118300999D01*
X59777816Y-118260473D01*
X59969741Y-118180975D01*
X60142468Y-118065561D01*
X60206861Y-118001168D01*
X79787500Y-118001168D01*
X79787500Y-118199271D01*
X79818487Y-118394920D01*
X79879703Y-118583321D01*
X79962881Y-118746564D01*
X79969634Y-118759818D01*
X80086070Y-118920078D01*
X80226142Y-119060150D01*
X80386402Y-119176586D01*
X80447074Y-119207500D01*
X80549590Y-119259735D01*
X80600386Y-119307710D01*
X80617181Y-119375531D01*
X80594643Y-119441666D01*
X80549590Y-119480705D01*
X80386401Y-119563854D01*
X80340860Y-119596942D01*
X80226142Y-119680290D01*
X80226140Y-119680292D01*
X80226139Y-119680292D01*
X80086072Y-119820359D01*
X80086072Y-119820360D01*
X80086070Y-119820362D01*
X80036065Y-119889187D01*
X79969634Y-119980621D01*
X79879703Y-120157118D01*
X79818487Y-120345519D01*
X79787500Y-120541168D01*
X79787500Y-120739271D01*
X79818487Y-120934920D01*
X79879703Y-121123321D01*
X79969634Y-121299818D01*
X80086070Y-121460078D01*
X80226142Y-121600150D01*
X80386402Y-121716586D01*
X80469790Y-121759074D01*
X80562898Y-121806516D01*
X80562900Y-121806516D01*
X80562903Y-121806518D01*
X80663888Y-121839330D01*
X80751299Y-121867732D01*
X80936876Y-121897124D01*
X81000011Y-121927053D01*
X81036943Y-121986364D01*
X81035945Y-122056227D01*
X81019533Y-122090031D01*
X81012123Y-122100767D01*
X81012120Y-122100772D01*
X80951927Y-122259486D01*
X80951926Y-122259491D01*
X80931466Y-122428000D01*
X80951926Y-122596508D01*
X80951927Y-122596513D01*
X81012120Y-122755227D01*
X81108548Y-122894927D01*
X81108550Y-122894929D01*
X81108552Y-122894931D01*
X81235604Y-123007490D01*
X81235606Y-123007491D01*
X81385911Y-123086377D01*
X81550726Y-123127000D01*
X81720474Y-123127000D01*
X81885289Y-123086377D01*
X82035594Y-123007491D01*
X82162652Y-122894927D01*
X82259080Y-122755227D01*
X82319273Y-122596510D01*
X82339734Y-122428000D01*
X82319273Y-122259490D01*
X82319272Y-122259488D01*
X82319272Y-122259486D01*
X82291920Y-122187366D01*
X82259080Y-122100773D01*
X82162652Y-121961073D01*
X82162649Y-121961070D01*
X82162647Y-121961068D01*
X82035595Y-121848509D01*
X81910622Y-121782919D01*
X81860409Y-121734334D01*
X81844434Y-121666315D01*
X81867769Y-121600457D01*
X81880554Y-121585453D01*
X82005930Y-121460078D01*
X82122366Y-121299818D01*
X82212298Y-121123317D01*
X82273512Y-120934920D01*
X82304500Y-120739271D01*
X82304500Y-120541168D01*
X82273512Y-120345519D01*
X82212296Y-120157118D01*
X82132135Y-119999795D01*
X82122366Y-119980622D01*
X82005930Y-119820362D01*
X81865858Y-119680290D01*
X81705598Y-119563854D01*
X81542408Y-119480704D01*
X81491613Y-119432730D01*
X81474818Y-119364909D01*
X81497355Y-119298774D01*
X81542409Y-119259735D01*
X81566500Y-119247460D01*
X81705598Y-119176586D01*
X81865858Y-119060150D01*
X82005930Y-118920078D01*
X82122366Y-118759818D01*
X82212298Y-118583317D01*
X82273512Y-118394920D01*
X82304500Y-118199271D01*
X82304500Y-118001168D01*
X85787500Y-118001168D01*
X85787500Y-118199271D01*
X85818487Y-118394920D01*
X85879703Y-118583321D01*
X85962881Y-118746564D01*
X85969634Y-118759818D01*
X86086070Y-118920078D01*
X86226142Y-119060150D01*
X86386402Y-119176586D01*
X86447074Y-119207500D01*
X86549590Y-119259735D01*
X86600386Y-119307710D01*
X86617181Y-119375531D01*
X86594643Y-119441666D01*
X86549590Y-119480705D01*
X86386401Y-119563854D01*
X86340860Y-119596942D01*
X86226142Y-119680290D01*
X86226140Y-119680292D01*
X86226139Y-119680292D01*
X86086072Y-119820359D01*
X86086072Y-119820360D01*
X86086070Y-119820362D01*
X86036065Y-119889187D01*
X85969634Y-119980621D01*
X85879703Y-120157118D01*
X85818487Y-120345519D01*
X85787500Y-120541168D01*
X85787500Y-120739271D01*
X85818487Y-120934920D01*
X85879703Y-121123321D01*
X85969634Y-121299818D01*
X86086070Y-121460078D01*
X86226142Y-121600150D01*
X86386402Y-121716586D01*
X86469790Y-121759074D01*
X86562898Y-121806516D01*
X86562900Y-121806516D01*
X86562903Y-121806518D01*
X86663888Y-121839330D01*
X86751299Y-121867732D01*
X86946949Y-121898720D01*
X86971987Y-121898720D01*
X87039026Y-121918405D01*
X87084781Y-121971209D01*
X87094725Y-122040367D01*
X87074037Y-122093160D01*
X86981120Y-122227771D01*
X86981120Y-122227772D01*
X86920927Y-122386486D01*
X86920926Y-122386491D01*
X86900466Y-122555000D01*
X86920926Y-122723508D01*
X86920927Y-122723513D01*
X86954476Y-122811973D01*
X86981120Y-122882227D01*
X87077548Y-123021927D01*
X87077550Y-123021929D01*
X87077552Y-123021931D01*
X87204604Y-123134490D01*
X87204606Y-123134491D01*
X87354911Y-123213377D01*
X87519726Y-123254000D01*
X87689474Y-123254000D01*
X87854289Y-123213377D01*
X87995622Y-123139200D01*
X93250466Y-123139200D01*
X93270926Y-123307708D01*
X93270927Y-123307713D01*
X93307461Y-123404043D01*
X93331120Y-123466427D01*
X93427548Y-123606127D01*
X93427550Y-123606129D01*
X93427552Y-123606131D01*
X93554604Y-123718690D01*
X93554606Y-123718691D01*
X93704911Y-123797577D01*
X93869726Y-123838200D01*
X94039474Y-123838200D01*
X94204289Y-123797577D01*
X94354594Y-123718691D01*
X94481652Y-123606127D01*
X94578080Y-123466427D01*
X94638273Y-123307710D01*
X94658734Y-123139200D01*
X94638273Y-122970690D01*
X94638272Y-122970688D01*
X94638272Y-122970686D01*
X94604724Y-122882227D01*
X94578080Y-122811973D01*
X94481652Y-122672273D01*
X94481649Y-122672270D01*
X94481647Y-122672268D01*
X94354595Y-122559709D01*
X94204287Y-122480822D01*
X94039474Y-122440200D01*
X93869726Y-122440200D01*
X93704912Y-122480822D01*
X93554604Y-122559709D01*
X93427552Y-122672268D01*
X93427546Y-122672275D01*
X93331121Y-122811971D01*
X93331120Y-122811972D01*
X93270927Y-122970686D01*
X93270926Y-122970691D01*
X93250466Y-123139200D01*
X87995622Y-123139200D01*
X88004594Y-123134491D01*
X88131652Y-123021927D01*
X88228080Y-122882227D01*
X88288273Y-122723510D01*
X88308734Y-122555000D01*
X88288273Y-122386490D01*
X88288272Y-122386488D01*
X88288272Y-122386486D01*
X88260920Y-122314366D01*
X88228080Y-122227773D01*
X88131652Y-122088073D01*
X88131649Y-122088070D01*
X88131647Y-122088068D01*
X88004595Y-121975509D01*
X87867284Y-121903443D01*
X87854289Y-121896623D01*
X87854288Y-121896622D01*
X87854287Y-121896622D01*
X87817333Y-121887514D01*
X87756952Y-121852358D01*
X87725164Y-121790138D01*
X87732060Y-121720609D01*
X87774122Y-121666800D01*
X87865858Y-121600150D01*
X88005930Y-121460078D01*
X88122366Y-121299818D01*
X88212298Y-121123317D01*
X88273512Y-120934920D01*
X88304500Y-120739271D01*
X88304500Y-120541168D01*
X88273512Y-120345519D01*
X88212296Y-120157118D01*
X88132135Y-119999795D01*
X88122366Y-119980622D01*
X88005930Y-119820362D01*
X87865858Y-119680290D01*
X87705598Y-119563854D01*
X87542408Y-119480704D01*
X87491613Y-119432730D01*
X87474818Y-119364909D01*
X87497355Y-119298774D01*
X87542409Y-119259735D01*
X87566500Y-119247460D01*
X87705598Y-119176586D01*
X87865858Y-119060150D01*
X88005930Y-118920078D01*
X88122366Y-118759818D01*
X88212298Y-118583317D01*
X88273512Y-118394920D01*
X88304500Y-118199271D01*
X88304500Y-118001168D01*
X91787500Y-118001168D01*
X91787500Y-118199271D01*
X91818487Y-118394920D01*
X91879703Y-118583321D01*
X91962881Y-118746564D01*
X91969634Y-118759818D01*
X92086070Y-118920078D01*
X92226142Y-119060150D01*
X92386402Y-119176586D01*
X92447074Y-119207500D01*
X92549590Y-119259735D01*
X92600386Y-119307710D01*
X92617181Y-119375531D01*
X92594643Y-119441666D01*
X92549590Y-119480705D01*
X92386401Y-119563854D01*
X92340860Y-119596942D01*
X92226142Y-119680290D01*
X92226140Y-119680292D01*
X92226139Y-119680292D01*
X92086072Y-119820359D01*
X92086072Y-119820360D01*
X92086070Y-119820362D01*
X92036065Y-119889187D01*
X91969634Y-119980621D01*
X91879703Y-120157118D01*
X91818487Y-120345519D01*
X91787500Y-120541168D01*
X91787500Y-120739271D01*
X91818487Y-120934920D01*
X91879703Y-121123321D01*
X91969634Y-121299818D01*
X92086070Y-121460078D01*
X92226142Y-121600150D01*
X92386402Y-121716586D01*
X92469790Y-121759074D01*
X92562898Y-121806516D01*
X92562900Y-121806516D01*
X92562903Y-121806518D01*
X92663888Y-121839330D01*
X92751299Y-121867732D01*
X92946949Y-121898720D01*
X92946954Y-121898720D01*
X93145051Y-121898720D01*
X93340700Y-121867732D01*
X93399862Y-121848509D01*
X93529097Y-121806518D01*
X93705598Y-121716586D01*
X93865858Y-121600150D01*
X94005930Y-121460078D01*
X94056896Y-121389929D01*
X103960500Y-121389929D01*
X103960500Y-121696070D01*
X103960501Y-121696086D01*
X103998529Y-121984943D01*
X104000461Y-121999611D01*
X104027567Y-122100773D01*
X104079702Y-122295340D01*
X104196854Y-122578173D01*
X104196862Y-122578189D01*
X104349931Y-122843310D01*
X104349942Y-122843326D01*
X104536309Y-123086204D01*
X104536315Y-123086211D01*
X104752788Y-123302684D01*
X104752795Y-123302690D01*
X104874312Y-123395933D01*
X104995682Y-123489064D01*
X104995689Y-123489068D01*
X105260810Y-123642137D01*
X105260826Y-123642145D01*
X105543659Y-123759297D01*
X105543661Y-123759297D01*
X105543667Y-123759300D01*
X105839389Y-123838539D01*
X106142923Y-123878500D01*
X106142930Y-123878500D01*
X106449070Y-123878500D01*
X106449077Y-123878500D01*
X106752611Y-123838539D01*
X107048333Y-123759300D01*
X107146375Y-123718690D01*
X107331173Y-123642145D01*
X107331176Y-123642143D01*
X107331182Y-123642141D01*
X107596318Y-123489064D01*
X107839206Y-123302689D01*
X108055689Y-123086206D01*
X108242064Y-122843318D01*
X108395141Y-122578182D01*
X108512300Y-122295333D01*
X108591539Y-121999611D01*
X108631500Y-121696077D01*
X108631500Y-121389929D01*
X109300500Y-121389929D01*
X109300500Y-121696070D01*
X109300501Y-121696086D01*
X109338529Y-121984943D01*
X109340461Y-121999611D01*
X109367567Y-122100773D01*
X109419702Y-122295340D01*
X109536854Y-122578173D01*
X109536862Y-122578189D01*
X109689931Y-122843310D01*
X109689942Y-122843326D01*
X109876309Y-123086204D01*
X109876315Y-123086211D01*
X110092788Y-123302684D01*
X110092795Y-123302690D01*
X110214312Y-123395933D01*
X110335682Y-123489064D01*
X110335689Y-123489068D01*
X110600810Y-123642137D01*
X110600826Y-123642145D01*
X110883659Y-123759297D01*
X110883661Y-123759297D01*
X110883667Y-123759300D01*
X111179389Y-123838539D01*
X111482923Y-123878500D01*
X111482930Y-123878500D01*
X111789070Y-123878500D01*
X111789077Y-123878500D01*
X112092611Y-123838539D01*
X112388333Y-123759300D01*
X112486375Y-123718690D01*
X112671173Y-123642145D01*
X112671176Y-123642143D01*
X112671182Y-123642141D01*
X112936318Y-123489064D01*
X113179206Y-123302689D01*
X113395689Y-123086206D01*
X113582064Y-122843318D01*
X113735141Y-122578182D01*
X113852300Y-122295333D01*
X113926226Y-122019437D01*
X113962590Y-121959780D01*
X114025437Y-121929251D01*
X114094813Y-121937546D01*
X114148691Y-121982031D01*
X114165773Y-122019435D01*
X114230095Y-122259486D01*
X114239702Y-122295340D01*
X114356854Y-122578173D01*
X114356862Y-122578189D01*
X114509931Y-122843310D01*
X114509942Y-122843326D01*
X114696309Y-123086204D01*
X114696315Y-123086211D01*
X114912788Y-123302684D01*
X114912795Y-123302690D01*
X115034312Y-123395933D01*
X115155682Y-123489064D01*
X115155689Y-123489068D01*
X115420810Y-123642137D01*
X115420826Y-123642145D01*
X115703659Y-123759297D01*
X115703661Y-123759297D01*
X115703667Y-123759300D01*
X115999389Y-123838539D01*
X116302923Y-123878500D01*
X116302930Y-123878500D01*
X116609070Y-123878500D01*
X116609077Y-123878500D01*
X116912611Y-123838539D01*
X117208333Y-123759300D01*
X117306375Y-123718690D01*
X117491173Y-123642145D01*
X117491176Y-123642143D01*
X117491182Y-123642141D01*
X117756318Y-123489064D01*
X117999206Y-123302689D01*
X118215689Y-123086206D01*
X118402064Y-122843318D01*
X118555141Y-122578182D01*
X118672300Y-122295333D01*
X118751539Y-121999611D01*
X118791500Y-121696077D01*
X118791500Y-121389929D01*
X119460500Y-121389929D01*
X119460500Y-121696070D01*
X119460501Y-121696086D01*
X119498529Y-121984943D01*
X119500461Y-121999611D01*
X119527567Y-122100773D01*
X119579702Y-122295340D01*
X119696854Y-122578173D01*
X119696862Y-122578189D01*
X119849931Y-122843310D01*
X119849942Y-122843326D01*
X120036309Y-123086204D01*
X120036315Y-123086211D01*
X120252788Y-123302684D01*
X120252795Y-123302690D01*
X120374312Y-123395933D01*
X120495682Y-123489064D01*
X120495689Y-123489068D01*
X120760810Y-123642137D01*
X120760826Y-123642145D01*
X121043659Y-123759297D01*
X121043661Y-123759297D01*
X121043667Y-123759300D01*
X121339389Y-123838539D01*
X121642923Y-123878500D01*
X121642930Y-123878500D01*
X121949070Y-123878500D01*
X121949077Y-123878500D01*
X122252611Y-123838539D01*
X122548333Y-123759300D01*
X122646375Y-123718690D01*
X122831173Y-123642145D01*
X122831176Y-123642143D01*
X122831182Y-123642141D01*
X123096318Y-123489064D01*
X123339206Y-123302689D01*
X123555689Y-123086206D01*
X123742064Y-122843318D01*
X123895141Y-122578182D01*
X124012300Y-122295333D01*
X124091539Y-121999611D01*
X124131500Y-121696077D01*
X124131500Y-121389929D01*
X126820500Y-121389929D01*
X126820500Y-121696070D01*
X126820501Y-121696086D01*
X126858529Y-121984943D01*
X126860461Y-121999611D01*
X126887567Y-122100773D01*
X126939702Y-122295340D01*
X127056854Y-122578173D01*
X127056862Y-122578189D01*
X127209931Y-122843310D01*
X127209942Y-122843326D01*
X127396309Y-123086204D01*
X127396315Y-123086211D01*
X127612788Y-123302684D01*
X127612795Y-123302690D01*
X127734312Y-123395933D01*
X127855682Y-123489064D01*
X127855689Y-123489068D01*
X128120810Y-123642137D01*
X128120826Y-123642145D01*
X128403659Y-123759297D01*
X128403661Y-123759297D01*
X128403667Y-123759300D01*
X128699389Y-123838539D01*
X129002923Y-123878500D01*
X129002930Y-123878500D01*
X129309070Y-123878500D01*
X129309077Y-123878500D01*
X129612611Y-123838539D01*
X129908333Y-123759300D01*
X130006375Y-123718690D01*
X130191173Y-123642145D01*
X130191176Y-123642143D01*
X130191182Y-123642141D01*
X130456318Y-123489064D01*
X130699206Y-123302689D01*
X130915689Y-123086206D01*
X131102064Y-122843318D01*
X131255141Y-122578182D01*
X131372300Y-122295333D01*
X131451539Y-121999611D01*
X131491500Y-121696077D01*
X131491500Y-121389929D01*
X132160500Y-121389929D01*
X132160500Y-121696070D01*
X132160501Y-121696086D01*
X132198529Y-121984943D01*
X132200461Y-121999611D01*
X132227567Y-122100773D01*
X132279702Y-122295340D01*
X132396854Y-122578173D01*
X132396862Y-122578189D01*
X132549931Y-122843310D01*
X132549942Y-122843326D01*
X132736309Y-123086204D01*
X132736315Y-123086211D01*
X132952788Y-123302684D01*
X132952795Y-123302690D01*
X133074312Y-123395933D01*
X133195682Y-123489064D01*
X133195689Y-123489068D01*
X133460810Y-123642137D01*
X133460826Y-123642145D01*
X133743659Y-123759297D01*
X133743661Y-123759297D01*
X133743667Y-123759300D01*
X134039389Y-123838539D01*
X134342923Y-123878500D01*
X134342930Y-123878500D01*
X134649070Y-123878500D01*
X134649077Y-123878500D01*
X134952611Y-123838539D01*
X135248333Y-123759300D01*
X135346375Y-123718690D01*
X135531173Y-123642145D01*
X135531176Y-123642143D01*
X135531182Y-123642141D01*
X135796318Y-123489064D01*
X136039206Y-123302689D01*
X136255689Y-123086206D01*
X136442064Y-122843318D01*
X136595141Y-122578182D01*
X136712300Y-122295333D01*
X136773526Y-122066834D01*
X136809890Y-122007177D01*
X136872737Y-121976648D01*
X136942113Y-121984943D01*
X136995991Y-122029428D01*
X137013073Y-122066833D01*
X137064695Y-122259486D01*
X137074302Y-122295340D01*
X137191454Y-122578173D01*
X137191462Y-122578189D01*
X137344531Y-122843310D01*
X137344542Y-122843326D01*
X137530909Y-123086204D01*
X137530915Y-123086211D01*
X137747388Y-123302684D01*
X137747395Y-123302690D01*
X137868912Y-123395933D01*
X137990282Y-123489064D01*
X137990289Y-123489068D01*
X138255410Y-123642137D01*
X138255426Y-123642145D01*
X138538259Y-123759297D01*
X138538261Y-123759297D01*
X138538267Y-123759300D01*
X138833989Y-123838539D01*
X139137523Y-123878500D01*
X139137530Y-123878500D01*
X139443670Y-123878500D01*
X139443677Y-123878500D01*
X139747211Y-123838539D01*
X140042933Y-123759300D01*
X140140975Y-123718690D01*
X140325773Y-123642145D01*
X140325776Y-123642143D01*
X140325782Y-123642141D01*
X140590918Y-123489064D01*
X140833806Y-123302689D01*
X141050289Y-123086206D01*
X141236664Y-122843318D01*
X141389741Y-122578182D01*
X141506900Y-122295333D01*
X141586139Y-121999611D01*
X141626100Y-121696077D01*
X141626100Y-121389929D01*
X142295100Y-121389929D01*
X142295100Y-121696070D01*
X142295101Y-121696086D01*
X142333129Y-121984943D01*
X142335061Y-121999611D01*
X142362167Y-122100773D01*
X142414302Y-122295340D01*
X142531454Y-122578173D01*
X142531462Y-122578189D01*
X142684531Y-122843310D01*
X142684542Y-122843326D01*
X142870909Y-123086204D01*
X142870915Y-123086211D01*
X143087388Y-123302684D01*
X143087395Y-123302690D01*
X143208912Y-123395933D01*
X143330282Y-123489064D01*
X143330289Y-123489068D01*
X143595410Y-123642137D01*
X143595426Y-123642145D01*
X143878259Y-123759297D01*
X143878261Y-123759297D01*
X143878267Y-123759300D01*
X144173989Y-123838539D01*
X144477523Y-123878500D01*
X144477530Y-123878500D01*
X144783670Y-123878500D01*
X144783677Y-123878500D01*
X145087211Y-123838539D01*
X145382933Y-123759300D01*
X145480975Y-123718690D01*
X145665773Y-123642145D01*
X145665776Y-123642143D01*
X145665782Y-123642141D01*
X145930918Y-123489064D01*
X146173806Y-123302689D01*
X146390289Y-123086206D01*
X146576664Y-122843318D01*
X146729741Y-122578182D01*
X146846900Y-122295333D01*
X146926139Y-121999611D01*
X146966100Y-121696077D01*
X146966100Y-121389923D01*
X146926139Y-121086389D01*
X146846900Y-120790667D01*
X146838333Y-120769984D01*
X146729745Y-120507826D01*
X146729737Y-120507810D01*
X146576668Y-120242689D01*
X146576664Y-120242682D01*
X146390289Y-119999794D01*
X146390284Y-119999788D01*
X146173811Y-119783315D01*
X146173804Y-119783309D01*
X145930926Y-119596942D01*
X145930924Y-119596940D01*
X145930918Y-119596936D01*
X145930913Y-119596933D01*
X145930910Y-119596931D01*
X145665789Y-119443862D01*
X145665773Y-119443854D01*
X145382940Y-119326702D01*
X145312061Y-119307710D01*
X145087211Y-119247461D01*
X145087210Y-119247460D01*
X145087207Y-119247460D01*
X144783686Y-119207501D01*
X144783683Y-119207500D01*
X144783677Y-119207500D01*
X144477523Y-119207500D01*
X144477517Y-119207500D01*
X144477513Y-119207501D01*
X144173992Y-119247460D01*
X143878259Y-119326702D01*
X143595426Y-119443854D01*
X143595410Y-119443862D01*
X143330289Y-119596931D01*
X143330273Y-119596942D01*
X143087395Y-119783309D01*
X143087388Y-119783315D01*
X142870915Y-119999788D01*
X142870909Y-119999795D01*
X142684542Y-120242673D01*
X142684531Y-120242689D01*
X142531462Y-120507810D01*
X142531454Y-120507826D01*
X142414302Y-120790659D01*
X142335060Y-121086392D01*
X142295101Y-121389913D01*
X142295100Y-121389929D01*
X141626100Y-121389929D01*
X141626100Y-121389923D01*
X141586139Y-121086389D01*
X141506900Y-120790667D01*
X141498333Y-120769984D01*
X141389745Y-120507826D01*
X141389737Y-120507810D01*
X141236668Y-120242689D01*
X141236664Y-120242682D01*
X141050289Y-119999794D01*
X141050284Y-119999788D01*
X140833811Y-119783315D01*
X140833804Y-119783309D01*
X140590926Y-119596942D01*
X140590924Y-119596940D01*
X140590918Y-119596936D01*
X140590913Y-119596933D01*
X140590910Y-119596931D01*
X140325789Y-119443862D01*
X140325773Y-119443854D01*
X140042940Y-119326702D01*
X139972061Y-119307710D01*
X139747211Y-119247461D01*
X139747210Y-119247460D01*
X139747207Y-119247460D01*
X139443686Y-119207501D01*
X139443683Y-119207500D01*
X139443677Y-119207500D01*
X139137523Y-119207500D01*
X139137517Y-119207500D01*
X139137513Y-119207501D01*
X138833992Y-119247460D01*
X138538259Y-119326702D01*
X138255426Y-119443854D01*
X138255410Y-119443862D01*
X137990289Y-119596931D01*
X137990273Y-119596942D01*
X137747395Y-119783309D01*
X137747388Y-119783315D01*
X137530915Y-119999788D01*
X137530909Y-119999795D01*
X137344542Y-120242673D01*
X137344531Y-120242689D01*
X137191462Y-120507810D01*
X137191454Y-120507826D01*
X137074302Y-120790659D01*
X137060813Y-120840999D01*
X137035648Y-120934920D01*
X137013075Y-121019162D01*
X136976710Y-121078822D01*
X136913863Y-121109351D01*
X136844487Y-121101056D01*
X136790609Y-121056571D01*
X136773525Y-121019162D01*
X136712300Y-120790667D01*
X136703733Y-120769984D01*
X136595145Y-120507826D01*
X136595137Y-120507810D01*
X136442068Y-120242689D01*
X136442064Y-120242682D01*
X136255689Y-119999794D01*
X136255684Y-119999788D01*
X136039211Y-119783315D01*
X136039204Y-119783309D01*
X135796326Y-119596942D01*
X135796324Y-119596940D01*
X135796318Y-119596936D01*
X135796313Y-119596933D01*
X135796310Y-119596931D01*
X135531189Y-119443862D01*
X135531173Y-119443854D01*
X135248340Y-119326702D01*
X135177461Y-119307710D01*
X134952611Y-119247461D01*
X134952610Y-119247460D01*
X134952607Y-119247460D01*
X134649086Y-119207501D01*
X134649083Y-119207500D01*
X134649077Y-119207500D01*
X134342923Y-119207500D01*
X134342917Y-119207500D01*
X134342913Y-119207501D01*
X134039392Y-119247460D01*
X133743659Y-119326702D01*
X133460826Y-119443854D01*
X133460810Y-119443862D01*
X133195689Y-119596931D01*
X133195673Y-119596942D01*
X132952795Y-119783309D01*
X132952788Y-119783315D01*
X132736315Y-119999788D01*
X132736309Y-119999795D01*
X132549942Y-120242673D01*
X132549931Y-120242689D01*
X132396862Y-120507810D01*
X132396854Y-120507826D01*
X132279702Y-120790659D01*
X132200460Y-121086392D01*
X132160501Y-121389913D01*
X132160500Y-121389929D01*
X131491500Y-121389929D01*
X131491500Y-121389923D01*
X131451539Y-121086389D01*
X131372300Y-120790667D01*
X131363733Y-120769984D01*
X131255145Y-120507826D01*
X131255137Y-120507810D01*
X131102068Y-120242689D01*
X131102064Y-120242682D01*
X130915689Y-119999794D01*
X130915684Y-119999788D01*
X130699211Y-119783315D01*
X130699204Y-119783309D01*
X130456326Y-119596942D01*
X130456324Y-119596940D01*
X130456318Y-119596936D01*
X130456313Y-119596933D01*
X130456310Y-119596931D01*
X130191189Y-119443862D01*
X130191173Y-119443854D01*
X129908340Y-119326702D01*
X129837461Y-119307710D01*
X129612611Y-119247461D01*
X129612610Y-119247460D01*
X129612607Y-119247460D01*
X129309086Y-119207501D01*
X129309083Y-119207500D01*
X129309077Y-119207500D01*
X129002923Y-119207500D01*
X129002917Y-119207500D01*
X129002913Y-119207501D01*
X128699392Y-119247460D01*
X128403659Y-119326702D01*
X128120826Y-119443854D01*
X128120810Y-119443862D01*
X127855689Y-119596931D01*
X127855673Y-119596942D01*
X127612795Y-119783309D01*
X127612788Y-119783315D01*
X127396315Y-119999788D01*
X127396309Y-119999795D01*
X127209942Y-120242673D01*
X127209931Y-120242689D01*
X127056862Y-120507810D01*
X127056854Y-120507826D01*
X126939702Y-120790659D01*
X126860460Y-121086392D01*
X126820501Y-121389913D01*
X126820500Y-121389929D01*
X124131500Y-121389929D01*
X124131500Y-121389923D01*
X124091539Y-121086389D01*
X124012300Y-120790667D01*
X124003733Y-120769984D01*
X123895145Y-120507826D01*
X123895137Y-120507810D01*
X123742068Y-120242689D01*
X123742064Y-120242682D01*
X123555689Y-119999794D01*
X123555684Y-119999788D01*
X123339211Y-119783315D01*
X123339204Y-119783309D01*
X123096326Y-119596942D01*
X123096324Y-119596940D01*
X123096318Y-119596936D01*
X123096313Y-119596933D01*
X123096310Y-119596931D01*
X122831189Y-119443862D01*
X122831173Y-119443854D01*
X122548340Y-119326702D01*
X122477461Y-119307710D01*
X122252611Y-119247461D01*
X122252610Y-119247460D01*
X122252607Y-119247460D01*
X121949086Y-119207501D01*
X121949083Y-119207500D01*
X121949077Y-119207500D01*
X121642923Y-119207500D01*
X121642917Y-119207500D01*
X121642913Y-119207501D01*
X121339392Y-119247460D01*
X121043659Y-119326702D01*
X120760826Y-119443854D01*
X120760810Y-119443862D01*
X120495689Y-119596931D01*
X120495673Y-119596942D01*
X120252795Y-119783309D01*
X120252788Y-119783315D01*
X120036315Y-119999788D01*
X120036309Y-119999795D01*
X119849942Y-120242673D01*
X119849931Y-120242689D01*
X119696862Y-120507810D01*
X119696854Y-120507826D01*
X119579702Y-120790659D01*
X119500460Y-121086392D01*
X119460501Y-121389913D01*
X119460500Y-121389929D01*
X118791500Y-121389929D01*
X118791500Y-121389923D01*
X118751539Y-121086389D01*
X118672300Y-120790667D01*
X118663733Y-120769984D01*
X118555145Y-120507826D01*
X118555137Y-120507810D01*
X118402068Y-120242689D01*
X118402064Y-120242682D01*
X118215689Y-119999794D01*
X118215684Y-119999788D01*
X117999211Y-119783315D01*
X117999204Y-119783309D01*
X117756326Y-119596942D01*
X117756324Y-119596940D01*
X117756318Y-119596936D01*
X117756313Y-119596933D01*
X117756310Y-119596931D01*
X117491189Y-119443862D01*
X117491173Y-119443854D01*
X117208340Y-119326702D01*
X117137461Y-119307710D01*
X116912611Y-119247461D01*
X116912610Y-119247460D01*
X116912607Y-119247460D01*
X116609086Y-119207501D01*
X116609083Y-119207500D01*
X116609077Y-119207500D01*
X116302923Y-119207500D01*
X116302917Y-119207500D01*
X116302913Y-119207501D01*
X115999392Y-119247460D01*
X115703659Y-119326702D01*
X115420826Y-119443854D01*
X115420810Y-119443862D01*
X115155689Y-119596931D01*
X115155673Y-119596942D01*
X114912795Y-119783309D01*
X114912788Y-119783315D01*
X114696315Y-119999788D01*
X114696309Y-119999795D01*
X114509942Y-120242673D01*
X114509931Y-120242689D01*
X114356862Y-120507810D01*
X114356854Y-120507826D01*
X114239702Y-120790659D01*
X114226213Y-120840999D01*
X114165774Y-121066560D01*
X114129410Y-121126219D01*
X114066563Y-121156748D01*
X113997187Y-121148453D01*
X113943309Y-121103968D01*
X113926226Y-121066561D01*
X113852300Y-120790667D01*
X113843733Y-120769984D01*
X113735145Y-120507826D01*
X113735137Y-120507810D01*
X113582068Y-120242689D01*
X113582064Y-120242682D01*
X113395689Y-119999794D01*
X113395684Y-119999788D01*
X113179211Y-119783315D01*
X113179204Y-119783309D01*
X112936326Y-119596942D01*
X112936324Y-119596940D01*
X112936318Y-119596936D01*
X112936313Y-119596933D01*
X112936310Y-119596931D01*
X112671189Y-119443862D01*
X112671173Y-119443854D01*
X112388340Y-119326702D01*
X112317461Y-119307710D01*
X112092611Y-119247461D01*
X112092610Y-119247460D01*
X112092607Y-119247460D01*
X111789086Y-119207501D01*
X111789083Y-119207500D01*
X111789077Y-119207500D01*
X111482923Y-119207500D01*
X111482917Y-119207500D01*
X111482913Y-119207501D01*
X111179392Y-119247460D01*
X110883659Y-119326702D01*
X110600826Y-119443854D01*
X110600810Y-119443862D01*
X110335689Y-119596931D01*
X110335673Y-119596942D01*
X110092795Y-119783309D01*
X110092788Y-119783315D01*
X109876315Y-119999788D01*
X109876309Y-119999795D01*
X109689942Y-120242673D01*
X109689931Y-120242689D01*
X109536862Y-120507810D01*
X109536854Y-120507826D01*
X109419702Y-120790659D01*
X109340460Y-121086392D01*
X109300501Y-121389913D01*
X109300500Y-121389929D01*
X108631500Y-121389929D01*
X108631500Y-121389923D01*
X108591539Y-121086389D01*
X108512300Y-120790667D01*
X108503733Y-120769984D01*
X108395145Y-120507826D01*
X108395137Y-120507810D01*
X108242068Y-120242689D01*
X108242064Y-120242682D01*
X108055689Y-119999794D01*
X108055684Y-119999788D01*
X107839211Y-119783315D01*
X107839204Y-119783309D01*
X107596326Y-119596942D01*
X107596324Y-119596940D01*
X107596318Y-119596936D01*
X107596313Y-119596933D01*
X107596310Y-119596931D01*
X107331189Y-119443862D01*
X107331173Y-119443854D01*
X107048340Y-119326702D01*
X106977461Y-119307710D01*
X106752611Y-119247461D01*
X106752610Y-119247460D01*
X106752607Y-119247460D01*
X106449086Y-119207501D01*
X106449083Y-119207500D01*
X106449077Y-119207500D01*
X106142923Y-119207500D01*
X106142917Y-119207500D01*
X106142913Y-119207501D01*
X105839392Y-119247460D01*
X105543659Y-119326702D01*
X105260826Y-119443854D01*
X105260810Y-119443862D01*
X104995689Y-119596931D01*
X104995673Y-119596942D01*
X104752795Y-119783309D01*
X104752788Y-119783315D01*
X104536315Y-119999788D01*
X104536309Y-119999795D01*
X104349942Y-120242673D01*
X104349931Y-120242689D01*
X104196862Y-120507810D01*
X104196854Y-120507826D01*
X104079702Y-120790659D01*
X104000460Y-121086392D01*
X103960501Y-121389913D01*
X103960500Y-121389929D01*
X94056896Y-121389929D01*
X94122366Y-121299818D01*
X94212298Y-121123317D01*
X94273512Y-120934920D01*
X94304500Y-120739271D01*
X94304500Y-120541168D01*
X94273512Y-120345519D01*
X94212296Y-120157118D01*
X94132135Y-119999795D01*
X94122366Y-119980622D01*
X94005930Y-119820362D01*
X93865858Y-119680290D01*
X93705598Y-119563854D01*
X93542408Y-119480704D01*
X93491613Y-119432730D01*
X93474818Y-119364909D01*
X93497355Y-119298774D01*
X93542409Y-119259735D01*
X93566500Y-119247460D01*
X93705598Y-119176586D01*
X93865858Y-119060150D01*
X94005930Y-118920078D01*
X94122366Y-118759818D01*
X94212298Y-118583317D01*
X94273512Y-118394920D01*
X94304500Y-118199271D01*
X94304500Y-118001168D01*
X94273512Y-117805519D01*
X94212296Y-117617118D01*
X94122365Y-117440621D01*
X94005930Y-117280362D01*
X93865858Y-117140290D01*
X93705598Y-117023854D01*
X93529101Y-116933923D01*
X93340700Y-116872707D01*
X93145051Y-116841720D01*
X93145046Y-116841720D01*
X92946954Y-116841720D01*
X92946949Y-116841720D01*
X92751299Y-116872707D01*
X92562898Y-116933923D01*
X92386401Y-117023854D01*
X92294967Y-117090285D01*
X92226142Y-117140290D01*
X92226140Y-117140292D01*
X92226139Y-117140292D01*
X92086072Y-117280359D01*
X92086072Y-117280360D01*
X92086070Y-117280362D01*
X92036065Y-117349187D01*
X91969634Y-117440621D01*
X91879703Y-117617118D01*
X91818487Y-117805519D01*
X91787500Y-118001168D01*
X88304500Y-118001168D01*
X88273512Y-117805519D01*
X88212296Y-117617118D01*
X88122365Y-117440621D01*
X88005930Y-117280362D01*
X87865858Y-117140290D01*
X87705598Y-117023854D01*
X87529101Y-116933923D01*
X87340700Y-116872707D01*
X87145051Y-116841720D01*
X87145046Y-116841720D01*
X86946954Y-116841720D01*
X86946949Y-116841720D01*
X86751299Y-116872707D01*
X86562898Y-116933923D01*
X86386401Y-117023854D01*
X86294967Y-117090285D01*
X86226142Y-117140290D01*
X86226140Y-117140292D01*
X86226139Y-117140292D01*
X86086072Y-117280359D01*
X86086072Y-117280360D01*
X86086070Y-117280362D01*
X86036065Y-117349187D01*
X85969634Y-117440621D01*
X85879703Y-117617118D01*
X85818487Y-117805519D01*
X85787500Y-118001168D01*
X82304500Y-118001168D01*
X82273512Y-117805519D01*
X82212296Y-117617118D01*
X82122365Y-117440621D01*
X82005930Y-117280362D01*
X81865858Y-117140290D01*
X81705598Y-117023854D01*
X81529101Y-116933923D01*
X81340700Y-116872707D01*
X81145051Y-116841720D01*
X81145046Y-116841720D01*
X80946954Y-116841720D01*
X80946949Y-116841720D01*
X80751299Y-116872707D01*
X80562898Y-116933923D01*
X80386401Y-117023854D01*
X80294967Y-117090285D01*
X80226142Y-117140290D01*
X80226140Y-117140292D01*
X80226139Y-117140292D01*
X80086072Y-117280359D01*
X80086072Y-117280360D01*
X80086070Y-117280362D01*
X80036065Y-117349187D01*
X79969634Y-117440621D01*
X79879703Y-117617118D01*
X79818487Y-117805519D01*
X79787500Y-118001168D01*
X60206861Y-118001168D01*
X60289361Y-117918668D01*
X60404775Y-117745941D01*
X60484273Y-117554016D01*
X60524800Y-117350269D01*
X60524800Y-117142531D01*
X60484273Y-116938784D01*
X60404775Y-116746859D01*
X60289361Y-116574132D01*
X60289358Y-116574128D01*
X60142471Y-116427241D01*
X60142467Y-116427238D01*
X59969738Y-116311823D01*
X59777816Y-116232327D01*
X59777808Y-116232325D01*
X59574073Y-116191800D01*
X59574069Y-116191800D01*
X59061531Y-116191800D01*
X59061526Y-116191800D01*
X58857791Y-116232325D01*
X58857783Y-116232327D01*
X58665861Y-116311823D01*
X58493132Y-116427238D01*
X58493128Y-116427241D01*
X58346241Y-116574128D01*
X58346238Y-116574132D01*
X58230823Y-116746861D01*
X58151327Y-116938783D01*
X58151325Y-116938791D01*
X58110800Y-117142526D01*
X55556702Y-117142526D01*
X55555196Y-113512600D01*
X87408466Y-113512600D01*
X87428926Y-113681108D01*
X87428927Y-113681113D01*
X87480487Y-113817063D01*
X87489120Y-113839827D01*
X87585548Y-113979527D01*
X87585550Y-113979529D01*
X87585552Y-113979531D01*
X87712604Y-114092090D01*
X87712606Y-114092091D01*
X87862911Y-114170977D01*
X88027726Y-114211600D01*
X88197474Y-114211600D01*
X88362289Y-114170977D01*
X88512594Y-114092091D01*
X88639652Y-113979527D01*
X88736080Y-113839827D01*
X88796273Y-113681110D01*
X88816734Y-113512600D01*
X88796273Y-113344090D01*
X88796272Y-113344088D01*
X88796272Y-113344086D01*
X88768920Y-113271966D01*
X88736080Y-113185373D01*
X88639652Y-113045673D01*
X88639649Y-113045670D01*
X88639647Y-113045668D01*
X88512595Y-112933109D01*
X88362287Y-112854222D01*
X88197474Y-112813600D01*
X88027726Y-112813600D01*
X87862912Y-112854222D01*
X87712604Y-112933109D01*
X87585552Y-113045668D01*
X87585546Y-113045675D01*
X87489121Y-113185371D01*
X87489120Y-113185372D01*
X87428927Y-113344086D01*
X87428926Y-113344091D01*
X87408466Y-113512600D01*
X55555196Y-113512600D01*
X55554880Y-112750600D01*
X96323866Y-112750600D01*
X96344326Y-112919108D01*
X96344327Y-112919113D01*
X96392326Y-113045675D01*
X96404520Y-113077827D01*
X96500948Y-113217527D01*
X96500950Y-113217529D01*
X96500952Y-113217531D01*
X96628004Y-113330090D01*
X96628006Y-113330091D01*
X96778311Y-113408977D01*
X96943126Y-113449600D01*
X97112874Y-113449600D01*
X97277689Y-113408977D01*
X97427994Y-113330091D01*
X97555052Y-113217527D01*
X97651480Y-113077827D01*
X97711673Y-112919110D01*
X97713629Y-112902999D01*
X106547601Y-112902999D01*
X106547601Y-112903000D01*
X106567154Y-113114013D01*
X106567154Y-113114015D01*
X106567155Y-113114018D01*
X106596605Y-113217524D01*
X106625151Y-113317853D01*
X106719611Y-113507554D01*
X106847324Y-113676673D01*
X106982052Y-113799493D01*
X107003935Y-113819442D01*
X107184115Y-113931005D01*
X107381726Y-114007560D01*
X107590039Y-114046500D01*
X107590042Y-114046500D01*
X107801958Y-114046500D01*
X107801961Y-114046500D01*
X108010274Y-114007560D01*
X108207885Y-113931005D01*
X108388065Y-113819442D01*
X108522794Y-113696619D01*
X108544675Y-113676673D01*
X108544677Y-113676671D01*
X108672389Y-113507554D01*
X108766850Y-113317850D01*
X108824845Y-113114018D01*
X108844399Y-112903000D01*
X108824845Y-112691982D01*
X108766850Y-112488150D01*
X108672389Y-112298446D01*
X108544677Y-112129329D01*
X108544675Y-112129326D01*
X108399006Y-111996532D01*
X108390665Y-111988928D01*
X109092500Y-111988928D01*
X109092500Y-113817063D01*
X109107266Y-113891301D01*
X109163515Y-113975484D01*
X109197234Y-113998014D01*
X109247699Y-114031734D01*
X109247702Y-114031734D01*
X109247703Y-114031735D01*
X109272666Y-114036700D01*
X109321933Y-114046500D01*
X111150066Y-114046499D01*
X111224301Y-114031734D01*
X111308484Y-113975484D01*
X111364734Y-113891301D01*
X111379500Y-113817067D01*
X111379499Y-112902999D01*
X116707601Y-112902999D01*
X116707601Y-112903000D01*
X116727154Y-113114013D01*
X116727154Y-113114015D01*
X116727155Y-113114018D01*
X116756605Y-113217524D01*
X116785151Y-113317853D01*
X116879611Y-113507554D01*
X117007324Y-113676673D01*
X117142052Y-113799493D01*
X117163935Y-113819442D01*
X117344115Y-113931005D01*
X117541726Y-114007560D01*
X117750039Y-114046500D01*
X117750042Y-114046500D01*
X117961958Y-114046500D01*
X117961961Y-114046500D01*
X118170274Y-114007560D01*
X118367885Y-113931005D01*
X118548065Y-113819442D01*
X118682794Y-113696619D01*
X118704675Y-113676673D01*
X118704677Y-113676671D01*
X118832389Y-113507554D01*
X118926850Y-113317850D01*
X118984845Y-113114018D01*
X119004399Y-112903000D01*
X118984845Y-112691982D01*
X118926850Y-112488150D01*
X118832389Y-112298446D01*
X118704677Y-112129329D01*
X118704675Y-112129326D01*
X118559006Y-111996532D01*
X118550665Y-111988928D01*
X119252500Y-111988928D01*
X119252500Y-113817063D01*
X119267266Y-113891301D01*
X119323515Y-113975484D01*
X119357234Y-113998014D01*
X119407699Y-114031734D01*
X119407702Y-114031734D01*
X119407703Y-114031735D01*
X119432666Y-114036700D01*
X119481933Y-114046500D01*
X121310066Y-114046499D01*
X121384301Y-114031734D01*
X121468484Y-113975484D01*
X121524734Y-113891301D01*
X121539500Y-113817067D01*
X121539499Y-112902999D01*
X129407601Y-112902999D01*
X129407601Y-112903000D01*
X129427154Y-113114013D01*
X129427154Y-113114015D01*
X129427155Y-113114018D01*
X129456605Y-113217524D01*
X129485151Y-113317853D01*
X129579611Y-113507554D01*
X129707324Y-113676673D01*
X129842052Y-113799493D01*
X129863935Y-113819442D01*
X130044115Y-113931005D01*
X130241726Y-114007560D01*
X130450039Y-114046500D01*
X130450042Y-114046500D01*
X130661958Y-114046500D01*
X130661961Y-114046500D01*
X130870274Y-114007560D01*
X131067885Y-113931005D01*
X131248065Y-113819442D01*
X131382794Y-113696619D01*
X131404675Y-113676673D01*
X131404677Y-113676671D01*
X131532389Y-113507554D01*
X131626850Y-113317850D01*
X131684845Y-113114018D01*
X131704399Y-112903000D01*
X131684845Y-112691982D01*
X131626850Y-112488150D01*
X131532389Y-112298446D01*
X131404677Y-112129329D01*
X131404675Y-112129326D01*
X131259006Y-111996532D01*
X131250665Y-111988928D01*
X131952500Y-111988928D01*
X131952500Y-113817063D01*
X131967266Y-113891301D01*
X132023515Y-113975484D01*
X132057234Y-113998014D01*
X132107699Y-114031734D01*
X132107702Y-114031734D01*
X132107703Y-114031735D01*
X132132666Y-114036700D01*
X132181933Y-114046500D01*
X134010066Y-114046499D01*
X134084301Y-114031734D01*
X134168484Y-113975484D01*
X134224734Y-113891301D01*
X134239500Y-113817067D01*
X134239499Y-112902999D01*
X139542201Y-112902999D01*
X139542201Y-112903000D01*
X139561754Y-113114013D01*
X139561754Y-113114015D01*
X139561755Y-113114018D01*
X139591205Y-113217524D01*
X139619751Y-113317853D01*
X139714211Y-113507554D01*
X139841924Y-113676673D01*
X139976652Y-113799493D01*
X139998535Y-113819442D01*
X140178715Y-113931005D01*
X140376326Y-114007560D01*
X140584639Y-114046500D01*
X140584642Y-114046500D01*
X140796558Y-114046500D01*
X140796561Y-114046500D01*
X141004874Y-114007560D01*
X141202485Y-113931005D01*
X141382665Y-113819442D01*
X141517394Y-113696619D01*
X141539275Y-113676673D01*
X141539277Y-113676671D01*
X141666989Y-113507554D01*
X141761450Y-113317850D01*
X141819445Y-113114018D01*
X141838999Y-112903000D01*
X141819445Y-112691982D01*
X141761450Y-112488150D01*
X141666989Y-112298446D01*
X141539277Y-112129329D01*
X141539275Y-112129326D01*
X141393606Y-111996532D01*
X141385265Y-111988928D01*
X142087100Y-111988928D01*
X142087100Y-113817063D01*
X142101866Y-113891301D01*
X142158115Y-113975484D01*
X142191834Y-113998014D01*
X142242299Y-114031734D01*
X142242302Y-114031734D01*
X142242303Y-114031735D01*
X142267266Y-114036700D01*
X142316533Y-114046500D01*
X144144666Y-114046499D01*
X144218901Y-114031734D01*
X144303084Y-113975484D01*
X144359334Y-113891301D01*
X144374100Y-113817067D01*
X144374099Y-111988934D01*
X144359334Y-111914699D01*
X144332804Y-111874994D01*
X144303084Y-111830515D01*
X144252619Y-111796796D01*
X144218901Y-111774266D01*
X144218899Y-111774265D01*
X144218896Y-111774264D01*
X144144669Y-111759500D01*
X142316536Y-111759500D01*
X142242298Y-111774266D01*
X142158115Y-111830515D01*
X142101866Y-111914699D01*
X142101864Y-111914703D01*
X142087100Y-111988928D01*
X141385265Y-111988928D01*
X141382665Y-111986558D01*
X141314049Y-111944072D01*
X141202486Y-111874995D01*
X141202484Y-111874994D01*
X141057992Y-111819018D01*
X141004874Y-111798440D01*
X140796561Y-111759500D01*
X140584639Y-111759500D01*
X140376326Y-111798440D01*
X140376323Y-111798440D01*
X140376323Y-111798441D01*
X140178715Y-111874994D01*
X140178713Y-111874995D01*
X139998533Y-111986559D01*
X139841924Y-112129326D01*
X139714211Y-112298445D01*
X139619751Y-112488146D01*
X139561754Y-112691986D01*
X139542201Y-112902999D01*
X134239499Y-112902999D01*
X134239499Y-111988934D01*
X134224734Y-111914699D01*
X134198204Y-111874994D01*
X134168484Y-111830515D01*
X134118019Y-111796796D01*
X134084301Y-111774266D01*
X134084299Y-111774265D01*
X134084296Y-111774264D01*
X134010069Y-111759500D01*
X132181936Y-111759500D01*
X132107698Y-111774266D01*
X132023515Y-111830515D01*
X131967266Y-111914699D01*
X131967264Y-111914703D01*
X131952500Y-111988928D01*
X131250665Y-111988928D01*
X131248065Y-111986558D01*
X131179449Y-111944072D01*
X131067886Y-111874995D01*
X131067884Y-111874994D01*
X130923392Y-111819018D01*
X130870274Y-111798440D01*
X130661961Y-111759500D01*
X130450039Y-111759500D01*
X130241726Y-111798440D01*
X130241723Y-111798440D01*
X130241723Y-111798441D01*
X130044115Y-111874994D01*
X130044113Y-111874995D01*
X129863933Y-111986559D01*
X129707324Y-112129326D01*
X129579611Y-112298445D01*
X129485151Y-112488146D01*
X129427154Y-112691986D01*
X129407601Y-112902999D01*
X121539499Y-112902999D01*
X121539499Y-111988934D01*
X121524734Y-111914699D01*
X121498204Y-111874994D01*
X121468484Y-111830515D01*
X121418019Y-111796796D01*
X121384301Y-111774266D01*
X121384299Y-111774265D01*
X121384296Y-111774264D01*
X121310069Y-111759500D01*
X119481936Y-111759500D01*
X119407698Y-111774266D01*
X119323515Y-111830515D01*
X119267266Y-111914699D01*
X119267264Y-111914703D01*
X119252500Y-111988928D01*
X118550665Y-111988928D01*
X118548065Y-111986558D01*
X118479449Y-111944072D01*
X118367886Y-111874995D01*
X118367884Y-111874994D01*
X118223392Y-111819018D01*
X118170274Y-111798440D01*
X117961961Y-111759500D01*
X117750039Y-111759500D01*
X117541726Y-111798440D01*
X117541723Y-111798440D01*
X117541723Y-111798441D01*
X117344115Y-111874994D01*
X117344113Y-111874995D01*
X117163933Y-111986559D01*
X117007324Y-112129326D01*
X116879611Y-112298445D01*
X116785151Y-112488146D01*
X116727154Y-112691986D01*
X116707601Y-112902999D01*
X111379499Y-112902999D01*
X111379499Y-111988934D01*
X111364734Y-111914699D01*
X111338204Y-111874994D01*
X111308484Y-111830515D01*
X111258019Y-111796796D01*
X111224301Y-111774266D01*
X111224299Y-111774265D01*
X111224296Y-111774264D01*
X111150069Y-111759500D01*
X109321936Y-111759500D01*
X109247698Y-111774266D01*
X109163515Y-111830515D01*
X109107266Y-111914699D01*
X109107264Y-111914703D01*
X109092500Y-111988928D01*
X108390665Y-111988928D01*
X108388065Y-111986558D01*
X108319449Y-111944072D01*
X108207886Y-111874995D01*
X108207884Y-111874994D01*
X108063392Y-111819018D01*
X108010274Y-111798440D01*
X107801961Y-111759500D01*
X107590039Y-111759500D01*
X107381726Y-111798440D01*
X107381723Y-111798440D01*
X107381723Y-111798441D01*
X107184115Y-111874994D01*
X107184113Y-111874995D01*
X107003933Y-111986559D01*
X106847324Y-112129326D01*
X106719611Y-112298445D01*
X106625151Y-112488146D01*
X106567154Y-112691986D01*
X106547601Y-112902999D01*
X97713629Y-112902999D01*
X97732134Y-112750600D01*
X97711673Y-112582090D01*
X97711672Y-112582088D01*
X97711672Y-112582086D01*
X97684320Y-112509966D01*
X97651480Y-112423373D01*
X97555052Y-112283673D01*
X97555049Y-112283670D01*
X97555047Y-112283668D01*
X97427995Y-112171109D01*
X97277687Y-112092222D01*
X97112874Y-112051600D01*
X96943126Y-112051600D01*
X96778312Y-112092222D01*
X96628004Y-112171109D01*
X96500952Y-112283668D01*
X96500946Y-112283675D01*
X96404521Y-112423371D01*
X96404520Y-112423372D01*
X96344327Y-112582086D01*
X96344326Y-112582091D01*
X96323866Y-112750600D01*
X55554880Y-112750600D01*
X55553269Y-108869855D01*
X64014500Y-108869855D01*
X64014500Y-109130144D01*
X64027542Y-109229200D01*
X64048473Y-109388183D01*
X64087450Y-109533648D01*
X64115836Y-109639586D01*
X64115839Y-109639596D01*
X64215436Y-109880044D01*
X64215441Y-109880055D01*
X64345570Y-110105443D01*
X64345581Y-110105459D01*
X64504017Y-110311938D01*
X64504023Y-110311945D01*
X64688054Y-110495976D01*
X64688060Y-110495981D01*
X64894549Y-110654425D01*
X64894556Y-110654429D01*
X65119944Y-110784558D01*
X65119949Y-110784560D01*
X65119952Y-110784562D01*
X65360413Y-110884164D01*
X65611817Y-110951527D01*
X65869863Y-110985500D01*
X65869870Y-110985500D01*
X66130130Y-110985500D01*
X66130137Y-110985500D01*
X66388183Y-110951527D01*
X66639587Y-110884164D01*
X66880048Y-110784562D01*
X67105451Y-110654425D01*
X67311940Y-110495981D01*
X67495981Y-110311940D01*
X67654425Y-110105451D01*
X67784562Y-109880048D01*
X67858064Y-109702597D01*
X110975326Y-109702597D01*
X110975326Y-109702602D01*
X110994361Y-109871551D01*
X111050519Y-110032039D01*
X111069995Y-110063034D01*
X111140976Y-110176000D01*
X111261200Y-110296224D01*
X111405163Y-110386682D01*
X111527121Y-110429356D01*
X111565648Y-110442838D01*
X111734597Y-110461874D01*
X111734600Y-110461874D01*
X111734603Y-110461874D01*
X111903551Y-110442838D01*
X111915768Y-110438563D01*
X112064037Y-110386682D01*
X112208000Y-110296224D01*
X112328224Y-110176000D01*
X112418682Y-110032037D01*
X112474837Y-109871554D01*
X112474837Y-109871553D01*
X112474838Y-109871551D01*
X112493874Y-109702602D01*
X112493874Y-109702597D01*
X112491012Y-109677197D01*
X134241726Y-109677197D01*
X134241726Y-109677202D01*
X134260761Y-109846151D01*
X134316919Y-110006639D01*
X134379002Y-110105443D01*
X134407376Y-110150600D01*
X134527600Y-110270824D01*
X134671563Y-110361282D01*
X134793521Y-110403956D01*
X134832048Y-110417438D01*
X135000997Y-110436474D01*
X135001000Y-110436474D01*
X135001003Y-110436474D01*
X135169951Y-110417438D01*
X135169954Y-110417437D01*
X135330437Y-110361282D01*
X135474400Y-110270824D01*
X135594624Y-110150600D01*
X135685082Y-110006637D01*
X135741237Y-109846154D01*
X135741237Y-109846153D01*
X135741238Y-109846151D01*
X135760274Y-109677202D01*
X135760274Y-109677197D01*
X135741238Y-109508248D01*
X135694012Y-109373285D01*
X135685082Y-109347763D01*
X135594624Y-109203800D01*
X135474400Y-109083576D01*
X135330439Y-108993119D01*
X135330438Y-108993118D01*
X135330437Y-108993118D01*
X135291912Y-108979637D01*
X135169951Y-108936961D01*
X135001003Y-108917926D01*
X135000997Y-108917926D01*
X134832048Y-108936961D01*
X134671560Y-108993119D01*
X134527599Y-109083576D01*
X134407376Y-109203799D01*
X134316919Y-109347760D01*
X134260761Y-109508248D01*
X134241726Y-109677197D01*
X112491012Y-109677197D01*
X112474838Y-109533648D01*
X112423938Y-109388185D01*
X112418682Y-109373163D01*
X112328224Y-109229200D01*
X112208000Y-109108976D01*
X112064037Y-109018518D01*
X112025512Y-109005037D01*
X111903551Y-108962361D01*
X111734603Y-108943326D01*
X111734597Y-108943326D01*
X111565648Y-108962361D01*
X111405160Y-109018519D01*
X111261199Y-109108976D01*
X111140976Y-109229199D01*
X111050519Y-109373160D01*
X110994361Y-109533648D01*
X110975326Y-109702597D01*
X67858064Y-109702597D01*
X67884164Y-109639587D01*
X67951527Y-109388183D01*
X67985500Y-109130137D01*
X67985500Y-108874857D01*
X156090700Y-108874857D01*
X156090700Y-109125142D01*
X156123351Y-109373163D01*
X156123368Y-109373285D01*
X156127360Y-109388185D01*
X156188149Y-109615048D01*
X156283921Y-109846265D01*
X156283926Y-109846274D01*
X156409069Y-110063026D01*
X156409074Y-110063032D01*
X156409075Y-110063034D01*
X156561430Y-110261588D01*
X156561436Y-110261595D01*
X156738404Y-110438563D01*
X156738411Y-110438569D01*
X156879796Y-110547057D01*
X156936974Y-110590931D01*
X157153726Y-110716074D01*
X157153729Y-110716075D01*
X157153734Y-110716078D01*
X157384951Y-110811850D01*
X157384953Y-110811850D01*
X157384959Y-110811853D01*
X157626715Y-110876632D01*
X157812822Y-110901133D01*
X157874857Y-110909300D01*
X157874858Y-110909300D01*
X158125143Y-110909300D01*
X158174770Y-110902766D01*
X158373285Y-110876632D01*
X158615041Y-110811853D01*
X158680938Y-110784558D01*
X158846265Y-110716078D01*
X158846266Y-110716076D01*
X158846274Y-110716074D01*
X159063026Y-110590931D01*
X159261590Y-110438568D01*
X159438568Y-110261590D01*
X159590931Y-110063026D01*
X159716074Y-109846274D01*
X159811853Y-109615041D01*
X159876632Y-109373285D01*
X159909300Y-109125142D01*
X159909300Y-108874858D01*
X159908642Y-108869863D01*
X159876632Y-108626718D01*
X159876632Y-108626715D01*
X159811853Y-108384959D01*
X159731845Y-108191800D01*
X159716078Y-108153734D01*
X159716073Y-108153725D01*
X159696574Y-108119952D01*
X159590931Y-107936974D01*
X159520685Y-107845427D01*
X159438569Y-107738411D01*
X159438563Y-107738404D01*
X159261595Y-107561436D01*
X159261588Y-107561430D01*
X159063034Y-107409075D01*
X159063032Y-107409074D01*
X159063026Y-107409069D01*
X158846274Y-107283926D01*
X158846265Y-107283921D01*
X158615048Y-107188149D01*
X158530794Y-107165573D01*
X158373285Y-107123368D01*
X158373284Y-107123367D01*
X158373281Y-107123367D01*
X158125143Y-107090700D01*
X158125142Y-107090700D01*
X157874858Y-107090700D01*
X157874857Y-107090700D01*
X157626718Y-107123367D01*
X157384951Y-107188149D01*
X157153734Y-107283921D01*
X157153725Y-107283926D01*
X156936974Y-107409069D01*
X156936965Y-107409075D01*
X156738411Y-107561430D01*
X156738404Y-107561436D01*
X156561436Y-107738404D01*
X156561430Y-107738411D01*
X156409075Y-107936965D01*
X156409069Y-107936974D01*
X156283926Y-108153725D01*
X156283921Y-108153734D01*
X156188149Y-108384951D01*
X156123367Y-108626718D01*
X156090700Y-108874857D01*
X67985500Y-108874857D01*
X67985500Y-108869863D01*
X67951527Y-108611817D01*
X67884164Y-108360413D01*
X67784562Y-108119952D01*
X67784560Y-108119949D01*
X67784558Y-108119944D01*
X67654429Y-107894556D01*
X67654425Y-107894549D01*
X67495981Y-107688060D01*
X67495976Y-107688054D01*
X67311945Y-107504023D01*
X67311938Y-107504017D01*
X67105459Y-107345581D01*
X67105457Y-107345579D01*
X67105451Y-107345575D01*
X67105446Y-107345572D01*
X67105443Y-107345570D01*
X66880055Y-107215441D01*
X66880044Y-107215436D01*
X66639596Y-107115839D01*
X66639589Y-107115837D01*
X66639587Y-107115836D01*
X66388183Y-107048473D01*
X66345056Y-107042795D01*
X66130144Y-107014500D01*
X66130137Y-107014500D01*
X65869863Y-107014500D01*
X65869855Y-107014500D01*
X65624240Y-107046837D01*
X65611817Y-107048473D01*
X65601360Y-107051275D01*
X65360413Y-107115836D01*
X65360403Y-107115839D01*
X65119955Y-107215436D01*
X65119944Y-107215441D01*
X64894556Y-107345570D01*
X64894540Y-107345581D01*
X64688061Y-107504017D01*
X64688054Y-107504023D01*
X64504023Y-107688054D01*
X64504017Y-107688061D01*
X64345581Y-107894540D01*
X64345570Y-107894556D01*
X64215441Y-108119944D01*
X64215436Y-108119955D01*
X64115839Y-108360403D01*
X64115836Y-108360413D01*
X64048474Y-108611814D01*
X64048472Y-108611825D01*
X64014500Y-108869855D01*
X55553269Y-108869855D01*
X55552176Y-106235475D01*
X88098330Y-106235475D01*
X88118790Y-106403983D01*
X88118791Y-106403988D01*
X88157166Y-106505173D01*
X88178984Y-106562702D01*
X88275412Y-106702402D01*
X88275414Y-106702404D01*
X88275416Y-106702406D01*
X88402468Y-106814965D01*
X88402470Y-106814966D01*
X88552775Y-106893852D01*
X88717590Y-106934475D01*
X88887338Y-106934475D01*
X89052153Y-106893852D01*
X89202458Y-106814966D01*
X89211450Y-106807000D01*
X120911066Y-106807000D01*
X120914150Y-106832398D01*
X120931526Y-106975508D01*
X120931527Y-106975513D01*
X120976378Y-107093774D01*
X120991720Y-107134227D01*
X121088148Y-107273927D01*
X121088150Y-107273929D01*
X121088152Y-107273931D01*
X121215204Y-107386490D01*
X121215206Y-107386491D01*
X121365511Y-107465377D01*
X121530326Y-107506000D01*
X121700074Y-107506000D01*
X121753629Y-107492800D01*
X123247866Y-107492800D01*
X123268326Y-107661308D01*
X123268327Y-107661313D01*
X123297567Y-107738411D01*
X123328520Y-107820027D01*
X123424948Y-107959727D01*
X123424950Y-107959729D01*
X123424952Y-107959731D01*
X123552004Y-108072290D01*
X123552006Y-108072291D01*
X123702311Y-108151177D01*
X123867126Y-108191800D01*
X124036874Y-108191800D01*
X124201689Y-108151177D01*
X124351994Y-108072291D01*
X124479052Y-107959727D01*
X124575480Y-107820027D01*
X124635673Y-107661310D01*
X124656134Y-107492800D01*
X124635673Y-107324290D01*
X124635672Y-107324288D01*
X124635672Y-107324286D01*
X124590941Y-107206341D01*
X124575480Y-107165573D01*
X124479052Y-107025873D01*
X124479049Y-107025870D01*
X124479047Y-107025868D01*
X124351995Y-106913309D01*
X124201687Y-106834422D01*
X124193475Y-106832398D01*
X144202866Y-106832398D01*
X144223326Y-107000908D01*
X144223327Y-107000913D01*
X144269768Y-107123367D01*
X144283520Y-107159627D01*
X144379948Y-107299327D01*
X144379950Y-107299329D01*
X144379952Y-107299331D01*
X144507004Y-107411890D01*
X144507006Y-107411891D01*
X144657311Y-107490777D01*
X144822126Y-107531400D01*
X144991874Y-107531400D01*
X145045429Y-107518200D01*
X146539666Y-107518200D01*
X146560126Y-107686708D01*
X146560127Y-107686713D01*
X146579734Y-107738411D01*
X146620320Y-107845427D01*
X146716748Y-107985127D01*
X146716750Y-107985129D01*
X146716752Y-107985131D01*
X146843804Y-108097690D01*
X146843806Y-108097691D01*
X146994111Y-108176577D01*
X147158926Y-108217200D01*
X147328674Y-108217200D01*
X147493489Y-108176577D01*
X147643794Y-108097691D01*
X147770852Y-107985127D01*
X147867280Y-107845427D01*
X147927473Y-107686710D01*
X147947934Y-107518200D01*
X147927473Y-107349690D01*
X147927472Y-107349688D01*
X147927472Y-107349686D01*
X147876558Y-107215438D01*
X147867280Y-107190973D01*
X147770852Y-107051273D01*
X147770849Y-107051270D01*
X147770847Y-107051268D01*
X147643795Y-106938709D01*
X147493487Y-106859822D01*
X147328674Y-106819200D01*
X147158926Y-106819200D01*
X146994112Y-106859822D01*
X146843804Y-106938709D01*
X146716752Y-107051268D01*
X146716746Y-107051275D01*
X146620321Y-107190971D01*
X146620320Y-107190972D01*
X146560127Y-107349686D01*
X146560126Y-107349691D01*
X146539666Y-107518200D01*
X145045429Y-107518200D01*
X145156689Y-107490777D01*
X145306994Y-107411891D01*
X145434052Y-107299327D01*
X145530480Y-107159627D01*
X145590673Y-107000910D01*
X145611134Y-106832400D01*
X145606636Y-106795360D01*
X145590673Y-106663891D01*
X145590672Y-106663886D01*
X145576626Y-106626850D01*
X153702466Y-106626850D01*
X153722926Y-106795358D01*
X153722927Y-106795363D01*
X153767659Y-106913309D01*
X153783120Y-106954077D01*
X153879548Y-107093777D01*
X153879550Y-107093779D01*
X153879552Y-107093781D01*
X154006604Y-107206340D01*
X154006606Y-107206341D01*
X154156911Y-107285227D01*
X154321726Y-107325850D01*
X154491474Y-107325850D01*
X154656289Y-107285227D01*
X154806594Y-107206341D01*
X154933652Y-107093777D01*
X155030080Y-106954077D01*
X155090273Y-106795360D01*
X155110734Y-106626850D01*
X155090273Y-106458340D01*
X155090272Y-106458338D01*
X155090272Y-106458336D01*
X155055053Y-106365473D01*
X155030080Y-106299623D01*
X154933652Y-106159923D01*
X154933649Y-106159920D01*
X154933647Y-106159918D01*
X154806595Y-106047359D01*
X154656287Y-105968472D01*
X154491474Y-105927850D01*
X154321726Y-105927850D01*
X154156912Y-105968472D01*
X154006604Y-106047359D01*
X153879552Y-106159918D01*
X153879546Y-106159925D01*
X153783121Y-106299621D01*
X153783120Y-106299622D01*
X153722927Y-106458336D01*
X153722926Y-106458341D01*
X153702466Y-106626850D01*
X145576626Y-106626850D01*
X145552298Y-106562702D01*
X145530480Y-106505173D01*
X145434052Y-106365473D01*
X145434049Y-106365470D01*
X145434047Y-106365468D01*
X145306995Y-106252909D01*
X145156687Y-106174022D01*
X144991874Y-106133400D01*
X144822126Y-106133400D01*
X144657312Y-106174022D01*
X144507004Y-106252909D01*
X144379952Y-106365468D01*
X144379946Y-106365475D01*
X144283521Y-106505171D01*
X144283520Y-106505172D01*
X144223327Y-106663886D01*
X144223326Y-106663891D01*
X144202866Y-106832398D01*
X124193475Y-106832398D01*
X124036874Y-106793800D01*
X123867126Y-106793800D01*
X123702312Y-106834422D01*
X123552004Y-106913309D01*
X123424952Y-107025868D01*
X123424946Y-107025875D01*
X123328521Y-107165571D01*
X123328520Y-107165572D01*
X123268327Y-107324286D01*
X123268326Y-107324291D01*
X123247866Y-107492800D01*
X121753629Y-107492800D01*
X121864889Y-107465377D01*
X122015194Y-107386491D01*
X122142252Y-107273927D01*
X122238680Y-107134227D01*
X122298873Y-106975510D01*
X122319334Y-106807000D01*
X122317920Y-106795358D01*
X122298873Y-106638491D01*
X122298872Y-106638486D01*
X122270131Y-106562702D01*
X122238680Y-106479773D01*
X122142252Y-106340073D01*
X122142249Y-106340070D01*
X122142247Y-106340068D01*
X122015195Y-106227509D01*
X121864887Y-106148622D01*
X121700074Y-106108000D01*
X121530326Y-106108000D01*
X121365512Y-106148622D01*
X121215204Y-106227509D01*
X121088152Y-106340068D01*
X121088146Y-106340075D01*
X120991721Y-106479771D01*
X120991720Y-106479772D01*
X120931527Y-106638486D01*
X120931526Y-106638491D01*
X120912479Y-106795360D01*
X120911066Y-106807000D01*
X89211450Y-106807000D01*
X89329516Y-106702402D01*
X89425944Y-106562702D01*
X89486137Y-106403985D01*
X89506598Y-106235475D01*
X89486137Y-106066965D01*
X89486136Y-106066963D01*
X89486136Y-106066961D01*
X89433378Y-105927850D01*
X89425944Y-105908248D01*
X89329516Y-105768548D01*
X89329513Y-105768545D01*
X89329511Y-105768543D01*
X89202459Y-105655984D01*
X89052151Y-105577097D01*
X88887338Y-105536475D01*
X88717590Y-105536475D01*
X88552776Y-105577097D01*
X88402468Y-105655984D01*
X88275416Y-105768543D01*
X88275410Y-105768550D01*
X88178985Y-105908246D01*
X88178984Y-105908247D01*
X88118791Y-106066961D01*
X88118790Y-106066966D01*
X88098330Y-106235475D01*
X55552176Y-106235475D01*
X55551823Y-105384600D01*
X101734066Y-105384600D01*
X101754526Y-105553108D01*
X101754527Y-105553113D01*
X101814720Y-105711827D01*
X101911148Y-105851527D01*
X101911150Y-105851529D01*
X101911152Y-105851531D01*
X102038204Y-105964090D01*
X102038206Y-105964091D01*
X102188511Y-106042977D01*
X102353326Y-106083600D01*
X102523074Y-106083600D01*
X102687889Y-106042977D01*
X102838194Y-105964091D01*
X102965252Y-105851527D01*
X103061680Y-105711827D01*
X103121873Y-105553110D01*
X103142334Y-105384600D01*
X103121873Y-105216090D01*
X103121872Y-105216088D01*
X103121872Y-105216086D01*
X103069418Y-105077777D01*
X103061680Y-105057373D01*
X102965252Y-104917673D01*
X102965249Y-104917670D01*
X102965247Y-104917668D01*
X102838195Y-104805109D01*
X102687887Y-104726222D01*
X102523074Y-104685600D01*
X102353326Y-104685600D01*
X102188512Y-104726222D01*
X102038204Y-104805109D01*
X101911152Y-104917668D01*
X101911146Y-104917675D01*
X101814721Y-105057371D01*
X101814720Y-105057372D01*
X101754527Y-105216086D01*
X101754526Y-105216091D01*
X101734066Y-105384600D01*
X55551823Y-105384600D01*
X55551501Y-104610469D01*
X55551765Y-104602352D01*
X55568427Y-104348124D01*
X55570542Y-104332070D01*
X55619452Y-104086185D01*
X55623641Y-104070548D01*
X55651798Y-103987600D01*
X85909866Y-103987600D01*
X85930326Y-104156108D01*
X85930327Y-104156113D01*
X85966272Y-104250890D01*
X85990520Y-104314827D01*
X86086948Y-104454527D01*
X86086950Y-104454529D01*
X86086952Y-104454531D01*
X86214004Y-104567090D01*
X86214006Y-104567091D01*
X86364311Y-104645977D01*
X86529126Y-104686600D01*
X86698874Y-104686600D01*
X86863689Y-104645977D01*
X87013994Y-104567091D01*
X87141052Y-104454527D01*
X87165298Y-104419400D01*
X114586466Y-104419400D01*
X114606926Y-104587908D01*
X114606927Y-104587913D01*
X114659381Y-104726222D01*
X114667120Y-104746627D01*
X114763548Y-104886327D01*
X114763550Y-104886329D01*
X114763552Y-104886331D01*
X114890604Y-104998890D01*
X114890606Y-104998891D01*
X115040911Y-105077777D01*
X115205726Y-105118400D01*
X115375474Y-105118400D01*
X115540289Y-105077777D01*
X115584830Y-105054400D01*
X124771866Y-105054400D01*
X124792326Y-105222908D01*
X124792327Y-105222913D01*
X124852520Y-105381627D01*
X124948948Y-105521327D01*
X124948950Y-105521329D01*
X124948952Y-105521331D01*
X125076004Y-105633890D01*
X125076006Y-105633891D01*
X125226311Y-105712777D01*
X125391126Y-105753400D01*
X125560874Y-105753400D01*
X125725689Y-105712777D01*
X125875994Y-105633891D01*
X126003052Y-105521327D01*
X126099480Y-105381627D01*
X126159673Y-105222910D01*
X126180134Y-105054400D01*
X126159673Y-104885890D01*
X126159672Y-104885888D01*
X126159672Y-104885886D01*
X126106858Y-104746628D01*
X126099480Y-104727173D01*
X126003052Y-104587473D01*
X126003049Y-104587470D01*
X126003047Y-104587468D01*
X125875995Y-104474909D01*
X125725687Y-104396022D01*
X125560874Y-104355400D01*
X125391126Y-104355400D01*
X125226312Y-104396022D01*
X125076004Y-104474909D01*
X124948952Y-104587468D01*
X124948946Y-104587475D01*
X124852521Y-104727171D01*
X124852520Y-104727172D01*
X124792327Y-104885886D01*
X124792326Y-104885891D01*
X124771866Y-105054400D01*
X115584830Y-105054400D01*
X115690594Y-104998891D01*
X115817652Y-104886327D01*
X115914080Y-104746627D01*
X115974273Y-104587910D01*
X115994734Y-104419400D01*
X115974273Y-104250890D01*
X115974272Y-104250888D01*
X115974272Y-104250886D01*
X115938327Y-104156108D01*
X115914080Y-104092173D01*
X115817652Y-103952473D01*
X115817649Y-103952470D01*
X115817647Y-103952468D01*
X115742618Y-103885998D01*
X137344866Y-103885998D01*
X137365326Y-104054506D01*
X137365327Y-104054511D01*
X137403859Y-104156110D01*
X137425520Y-104213225D01*
X137521948Y-104352925D01*
X137521950Y-104352927D01*
X137521952Y-104352929D01*
X137649004Y-104465488D01*
X137649006Y-104465489D01*
X137799311Y-104544375D01*
X137964126Y-104584998D01*
X138133874Y-104584998D01*
X138298689Y-104544375D01*
X138448994Y-104465489D01*
X138576052Y-104352925D01*
X138672480Y-104213225D01*
X138732673Y-104054508D01*
X138753134Y-103885998D01*
X138732673Y-103717488D01*
X138732672Y-103717486D01*
X138732672Y-103717484D01*
X138689852Y-103604577D01*
X138672480Y-103558771D01*
X138576052Y-103419071D01*
X138576049Y-103419068D01*
X138576047Y-103419066D01*
X138448995Y-103306507D01*
X138298687Y-103227620D01*
X138133874Y-103186998D01*
X137964126Y-103186998D01*
X137799312Y-103227620D01*
X137649004Y-103306507D01*
X137521952Y-103419066D01*
X137521946Y-103419073D01*
X137425521Y-103558769D01*
X137425520Y-103558770D01*
X137365327Y-103717484D01*
X137365326Y-103717489D01*
X137344866Y-103885998D01*
X115742618Y-103885998D01*
X115690595Y-103839909D01*
X115540287Y-103761022D01*
X115375474Y-103720400D01*
X115205726Y-103720400D01*
X115040912Y-103761022D01*
X114890604Y-103839909D01*
X114763552Y-103952468D01*
X114763546Y-103952475D01*
X114667121Y-104092171D01*
X114667120Y-104092172D01*
X114606927Y-104250886D01*
X114606926Y-104250891D01*
X114586466Y-104419400D01*
X87165298Y-104419400D01*
X87237480Y-104314827D01*
X87297673Y-104156110D01*
X87318134Y-103987600D01*
X87297673Y-103819090D01*
X87297672Y-103819088D01*
X87297672Y-103819086D01*
X87259139Y-103717484D01*
X87237480Y-103660373D01*
X87141052Y-103520673D01*
X87141049Y-103520670D01*
X87141047Y-103520668D01*
X87013995Y-103408109D01*
X86863687Y-103329222D01*
X86698874Y-103288600D01*
X86529126Y-103288600D01*
X86364312Y-103329222D01*
X86214004Y-103408109D01*
X86086952Y-103520668D01*
X86086946Y-103520675D01*
X85990521Y-103660371D01*
X85990520Y-103660372D01*
X85930327Y-103819086D01*
X85930326Y-103819091D01*
X85909866Y-103987600D01*
X55651798Y-103987600D01*
X55704230Y-103833141D01*
X55710427Y-103818181D01*
X55821310Y-103593333D01*
X55829413Y-103579298D01*
X55968696Y-103370846D01*
X55978553Y-103358000D01*
X56143853Y-103169511D01*
X56155311Y-103158053D01*
X56343800Y-102992753D01*
X56356646Y-102982896D01*
X56565098Y-102843613D01*
X56579133Y-102835510D01*
X56663712Y-102793800D01*
X148749466Y-102793800D01*
X148769926Y-102962308D01*
X148769927Y-102962313D01*
X148827724Y-103114710D01*
X148830120Y-103121027D01*
X148926548Y-103260727D01*
X148926550Y-103260729D01*
X148926552Y-103260731D01*
X149053604Y-103373290D01*
X149053606Y-103373291D01*
X149203911Y-103452177D01*
X149368726Y-103492800D01*
X149538474Y-103492800D01*
X149703289Y-103452177D01*
X149853594Y-103373291D01*
X149980652Y-103260727D01*
X150077080Y-103121027D01*
X150137273Y-102962310D01*
X150139229Y-102946200D01*
X152254666Y-102946200D01*
X152275126Y-103114708D01*
X152275127Y-103114713D01*
X152330505Y-103260731D01*
X152335320Y-103273427D01*
X152431748Y-103413127D01*
X152431750Y-103413129D01*
X152431752Y-103413131D01*
X152558804Y-103525690D01*
X152558806Y-103525691D01*
X152709111Y-103604577D01*
X152873926Y-103645200D01*
X153043674Y-103645200D01*
X153208489Y-103604577D01*
X153358794Y-103525691D01*
X153485852Y-103413127D01*
X153582280Y-103273427D01*
X153640224Y-103120640D01*
X153642472Y-103114713D01*
X153642473Y-103114708D01*
X153649869Y-103053798D01*
X153662934Y-102946200D01*
X153642473Y-102777690D01*
X153642472Y-102777688D01*
X153642472Y-102777686D01*
X153590018Y-102639377D01*
X153582280Y-102618973D01*
X153485852Y-102479273D01*
X153485849Y-102479270D01*
X153485847Y-102479268D01*
X153358795Y-102366709D01*
X153208487Y-102287822D01*
X153043674Y-102247200D01*
X152873926Y-102247200D01*
X152709112Y-102287822D01*
X152558804Y-102366709D01*
X152431752Y-102479268D01*
X152431746Y-102479275D01*
X152335321Y-102618971D01*
X152335320Y-102618972D01*
X152275127Y-102777686D01*
X152275126Y-102777691D01*
X152254666Y-102946200D01*
X150139229Y-102946200D01*
X150157734Y-102793800D01*
X150137273Y-102625290D01*
X150137272Y-102625288D01*
X150137272Y-102625286D01*
X150098300Y-102522527D01*
X150077080Y-102466573D01*
X149980652Y-102326873D01*
X149980649Y-102326870D01*
X149980647Y-102326868D01*
X149853595Y-102214309D01*
X149703287Y-102135422D01*
X149538474Y-102094800D01*
X149368726Y-102094800D01*
X149203912Y-102135422D01*
X149053604Y-102214309D01*
X148926552Y-102326868D01*
X148926546Y-102326875D01*
X148830121Y-102466571D01*
X148830120Y-102466572D01*
X148769927Y-102625286D01*
X148769926Y-102625291D01*
X148749466Y-102793800D01*
X56663712Y-102793800D01*
X56803981Y-102724627D01*
X56818941Y-102718430D01*
X57056348Y-102637841D01*
X57071985Y-102633652D01*
X57317870Y-102584742D01*
X57333924Y-102582627D01*
X57588160Y-102565964D01*
X57596258Y-102565700D01*
X74395846Y-102567093D01*
X74395949Y-102567100D01*
X74472637Y-102567100D01*
X74544987Y-102567106D01*
X74544989Y-102567105D01*
X74553192Y-102567106D01*
X74553297Y-102567100D01*
X74606367Y-102567100D01*
X74606374Y-102567100D01*
X74874012Y-102531865D01*
X75134761Y-102461998D01*
X75384160Y-102358693D01*
X75617941Y-102223720D01*
X75832104Y-102059386D01*
X75832108Y-102059381D01*
X75832113Y-102059378D01*
X76022978Y-101868513D01*
X76022981Y-101868508D01*
X76022986Y-101868504D01*
X76187320Y-101654341D01*
X76321345Y-101422202D01*
X107398268Y-101422202D01*
X107418728Y-101590710D01*
X107418729Y-101590715D01*
X107475422Y-101740200D01*
X107478922Y-101749429D01*
X107575350Y-101889129D01*
X107575352Y-101889131D01*
X107575354Y-101889133D01*
X107702406Y-102001692D01*
X107702408Y-102001693D01*
X107852713Y-102080579D01*
X108017528Y-102121202D01*
X108187276Y-102121202D01*
X108352091Y-102080579D01*
X108502396Y-102001693D01*
X108525753Y-101981000D01*
X120911066Y-101981000D01*
X120931526Y-102149508D01*
X120931527Y-102149513D01*
X120983981Y-102287822D01*
X120991720Y-102308227D01*
X121088148Y-102447927D01*
X121088150Y-102447929D01*
X121088152Y-102447931D01*
X121215204Y-102560490D01*
X121215206Y-102560491D01*
X121365511Y-102639377D01*
X121530326Y-102680000D01*
X121700074Y-102680000D01*
X121864889Y-102639377D01*
X122015194Y-102560491D01*
X122142252Y-102447927D01*
X122238680Y-102308227D01*
X122298395Y-102150770D01*
X122298872Y-102149513D01*
X122298873Y-102149508D01*
X122299081Y-102147793D01*
X122319334Y-101981000D01*
X122298873Y-101812490D01*
X122298872Y-101812488D01*
X122298872Y-101812486D01*
X122238895Y-101654341D01*
X122238680Y-101653773D01*
X122142252Y-101514073D01*
X122142249Y-101514070D01*
X122142247Y-101514068D01*
X122110226Y-101485700D01*
X130702766Y-101485700D01*
X130723226Y-101654208D01*
X130723227Y-101654213D01*
X130773555Y-101786916D01*
X130783420Y-101812927D01*
X130879848Y-101952627D01*
X130879850Y-101952629D01*
X130879852Y-101952631D01*
X131006904Y-102065190D01*
X131006906Y-102065191D01*
X131157211Y-102144077D01*
X131322026Y-102184700D01*
X131491774Y-102184700D01*
X131656589Y-102144077D01*
X131806894Y-102065191D01*
X131933952Y-101952627D01*
X131949432Y-101930200D01*
X144228266Y-101930200D01*
X144248726Y-102098708D01*
X144248727Y-102098713D01*
X144305041Y-102247200D01*
X144308920Y-102257427D01*
X144405348Y-102397127D01*
X144405350Y-102397129D01*
X144405352Y-102397131D01*
X144532404Y-102509690D01*
X144532406Y-102509691D01*
X144682711Y-102588577D01*
X144847526Y-102629200D01*
X145017274Y-102629200D01*
X145182089Y-102588577D01*
X145332394Y-102509691D01*
X145459452Y-102397127D01*
X145555880Y-102257427D01*
X145616073Y-102098710D01*
X145636534Y-101930200D01*
X145616073Y-101761690D01*
X145616072Y-101761688D01*
X145616072Y-101761686D01*
X145575361Y-101654341D01*
X145555880Y-101602973D01*
X145459452Y-101463273D01*
X145459449Y-101463270D01*
X145459447Y-101463268D01*
X145332395Y-101350709D01*
X145182087Y-101271822D01*
X145017274Y-101231200D01*
X144847526Y-101231200D01*
X144682712Y-101271822D01*
X144532404Y-101350709D01*
X144405352Y-101463268D01*
X144405346Y-101463275D01*
X144308921Y-101602971D01*
X144308920Y-101602972D01*
X144248727Y-101761686D01*
X144248726Y-101761691D01*
X144228266Y-101930200D01*
X131949432Y-101930200D01*
X132030380Y-101812927D01*
X132090573Y-101654210D01*
X132111034Y-101485700D01*
X132090573Y-101317190D01*
X132090572Y-101317188D01*
X132090572Y-101317186D01*
X132063220Y-101245066D01*
X132030380Y-101158473D01*
X131933952Y-101018773D01*
X131933949Y-101018770D01*
X131933947Y-101018768D01*
X131806895Y-100906209D01*
X131656587Y-100827322D01*
X131491774Y-100786700D01*
X131322026Y-100786700D01*
X131157212Y-100827322D01*
X131006904Y-100906209D01*
X130879852Y-101018768D01*
X130879846Y-101018775D01*
X130783421Y-101158471D01*
X130783420Y-101158472D01*
X130723227Y-101317186D01*
X130723226Y-101317191D01*
X130702766Y-101485700D01*
X122110226Y-101485700D01*
X122015195Y-101401509D01*
X121864887Y-101322622D01*
X121700074Y-101282000D01*
X121530326Y-101282000D01*
X121365512Y-101322622D01*
X121215204Y-101401509D01*
X121088152Y-101514068D01*
X121088146Y-101514075D01*
X120991721Y-101653771D01*
X120991720Y-101653772D01*
X120931527Y-101812486D01*
X120931526Y-101812491D01*
X120911066Y-101981000D01*
X108525753Y-101981000D01*
X108629454Y-101889129D01*
X108725882Y-101749429D01*
X108781426Y-101602971D01*
X108786074Y-101590715D01*
X108786075Y-101590710D01*
X108786161Y-101590000D01*
X108806536Y-101422202D01*
X108786075Y-101253692D01*
X108786074Y-101253690D01*
X108786074Y-101253688D01*
X108749963Y-101158471D01*
X108725882Y-101094975D01*
X108629454Y-100955275D01*
X108629453Y-100955274D01*
X108629449Y-100955270D01*
X108502397Y-100842711D01*
X108352089Y-100763824D01*
X108187276Y-100723202D01*
X108017528Y-100723202D01*
X107852714Y-100763824D01*
X107702406Y-100842711D01*
X107575354Y-100955270D01*
X107575351Y-100955274D01*
X107478923Y-101094973D01*
X107478922Y-101094974D01*
X107418729Y-101253688D01*
X107418728Y-101253693D01*
X107398268Y-101422202D01*
X76321345Y-101422202D01*
X76322293Y-101420560D01*
X76425598Y-101171161D01*
X76495465Y-100910412D01*
X76530700Y-100642774D01*
X76530700Y-100589594D01*
X76530715Y-100589351D01*
X76530713Y-100581028D01*
X76530700Y-100507300D01*
X76530700Y-100439889D01*
X76530700Y-100432567D01*
X76530685Y-100432336D01*
X76530651Y-100253800D01*
X103283466Y-100253800D01*
X103303926Y-100422308D01*
X103303927Y-100422313D01*
X103351926Y-100548875D01*
X103364120Y-100581027D01*
X103460548Y-100720727D01*
X103460550Y-100720729D01*
X103460552Y-100720731D01*
X103587604Y-100833290D01*
X103587606Y-100833291D01*
X103737911Y-100912177D01*
X103902726Y-100952800D01*
X104072474Y-100952800D01*
X104237289Y-100912177D01*
X104387594Y-100833291D01*
X104514652Y-100720727D01*
X104611080Y-100581027D01*
X104671273Y-100422310D01*
X104691734Y-100253800D01*
X104671273Y-100085290D01*
X104671272Y-100085288D01*
X104671272Y-100085286D01*
X104630345Y-99977371D01*
X104629218Y-99974400D01*
X115196066Y-99974400D01*
X115216526Y-100142908D01*
X115216527Y-100142913D01*
X115271905Y-100288931D01*
X115276720Y-100301627D01*
X115373148Y-100441327D01*
X115373150Y-100441329D01*
X115373152Y-100441331D01*
X115500204Y-100553890D01*
X115500206Y-100553891D01*
X115650511Y-100632777D01*
X115815326Y-100673400D01*
X115985074Y-100673400D01*
X116149889Y-100632777D01*
X116300194Y-100553891D01*
X116427252Y-100441327D01*
X116523680Y-100301627D01*
X116583873Y-100142910D01*
X116601250Y-99999800D01*
X117050266Y-99999800D01*
X117070726Y-100168308D01*
X117070727Y-100168313D01*
X117127041Y-100316800D01*
X117130920Y-100327027D01*
X117227348Y-100466727D01*
X117227350Y-100466729D01*
X117227352Y-100466731D01*
X117354404Y-100579290D01*
X117354406Y-100579291D01*
X117504711Y-100658177D01*
X117669526Y-100698800D01*
X117839274Y-100698800D01*
X118004089Y-100658177D01*
X118154394Y-100579291D01*
X118281452Y-100466727D01*
X118377880Y-100327027D01*
X118386385Y-100304600D01*
X126549866Y-100304600D01*
X126570326Y-100473108D01*
X126570327Y-100473113D01*
X126628124Y-100625510D01*
X126630520Y-100631827D01*
X126726948Y-100771527D01*
X126726950Y-100771529D01*
X126726952Y-100771531D01*
X126854004Y-100884090D01*
X126854006Y-100884091D01*
X127004311Y-100962977D01*
X127169126Y-101003600D01*
X127338874Y-101003600D01*
X127503689Y-100962977D01*
X127653994Y-100884091D01*
X127781052Y-100771527D01*
X127877480Y-100631827D01*
X127937673Y-100473110D01*
X127939629Y-100457000D01*
X140545266Y-100457000D01*
X140565726Y-100625508D01*
X140565727Y-100625513D01*
X140621105Y-100771531D01*
X140625920Y-100784227D01*
X140722348Y-100923927D01*
X140722350Y-100923929D01*
X140722352Y-100923931D01*
X140849404Y-101036490D01*
X140849406Y-101036491D01*
X140999711Y-101115377D01*
X141164526Y-101156000D01*
X141334274Y-101156000D01*
X141499089Y-101115377D01*
X141649394Y-101036491D01*
X141776452Y-100923927D01*
X141872880Y-100784227D01*
X141933073Y-100625510D01*
X141941583Y-100555421D01*
X146929115Y-100555421D01*
X146949575Y-100723929D01*
X146949576Y-100723934D01*
X146996360Y-100847291D01*
X147009769Y-100882648D01*
X147106197Y-101022348D01*
X147106199Y-101022350D01*
X147106201Y-101022352D01*
X147233253Y-101134911D01*
X147233255Y-101134912D01*
X147383560Y-101213798D01*
X147548375Y-101254421D01*
X147718123Y-101254421D01*
X147882938Y-101213798D01*
X148033243Y-101134912D01*
X148139022Y-101041200D01*
X148597066Y-101041200D01*
X148617526Y-101209708D01*
X148617527Y-101209713D01*
X148660349Y-101322623D01*
X148677720Y-101368427D01*
X148774148Y-101508127D01*
X148774150Y-101508129D01*
X148774152Y-101508131D01*
X148901204Y-101620690D01*
X148901206Y-101620691D01*
X149051511Y-101699577D01*
X149216326Y-101740200D01*
X149386074Y-101740200D01*
X149550889Y-101699577D01*
X149701194Y-101620691D01*
X149828252Y-101508127D01*
X149924680Y-101368427D01*
X149984873Y-101209710D01*
X150005334Y-101041200D01*
X150002250Y-101015800D01*
X151924466Y-101015800D01*
X151944926Y-101184308D01*
X151944927Y-101184313D01*
X151995320Y-101317186D01*
X152005120Y-101343027D01*
X152101548Y-101482727D01*
X152101550Y-101482729D01*
X152101552Y-101482731D01*
X152228604Y-101595290D01*
X152228606Y-101595291D01*
X152378911Y-101674177D01*
X152543726Y-101714800D01*
X152713474Y-101714800D01*
X152878289Y-101674177D01*
X153028594Y-101595291D01*
X153034566Y-101590000D01*
X155720640Y-101590000D01*
X155740034Y-101786914D01*
X155797474Y-101976269D01*
X155890744Y-102150764D01*
X155890748Y-102150771D01*
X156016274Y-102303725D01*
X156169228Y-102429251D01*
X156169235Y-102429255D01*
X156343730Y-102522525D01*
X156343732Y-102522525D01*
X156343735Y-102522527D01*
X156533084Y-102579965D01*
X156533083Y-102579965D01*
X156552478Y-102581875D01*
X156730000Y-102599360D01*
X156843304Y-102588200D01*
X156911950Y-102601219D01*
X156962660Y-102649283D01*
X156979335Y-102717134D01*
X156977076Y-102735791D01*
X156972500Y-102758798D01*
X156972500Y-102758800D01*
X156972500Y-102961200D01*
X156974180Y-102969646D01*
X156977076Y-102984207D01*
X156970847Y-103053798D01*
X156927983Y-103108975D01*
X156862093Y-103132218D01*
X156843304Y-103131799D01*
X156730000Y-103120640D01*
X156533085Y-103140034D01*
X156343730Y-103197474D01*
X156169235Y-103290744D01*
X156169228Y-103290748D01*
X156016274Y-103416274D01*
X155890748Y-103569228D01*
X155890744Y-103569235D01*
X155797474Y-103743730D01*
X155740034Y-103933085D01*
X155720640Y-104130000D01*
X155740034Y-104326914D01*
X155797474Y-104516269D01*
X155890744Y-104690764D01*
X155890748Y-104690771D01*
X156016274Y-104843725D01*
X156169228Y-104969251D01*
X156169235Y-104969255D01*
X156343730Y-105062525D01*
X156343732Y-105062525D01*
X156343735Y-105062527D01*
X156533084Y-105119965D01*
X156533083Y-105119965D01*
X156550739Y-105121703D01*
X156730000Y-105139360D01*
X156926916Y-105119965D01*
X157116265Y-105062527D01*
X157125908Y-105057373D01*
X157290764Y-104969255D01*
X157290770Y-104969252D01*
X157443725Y-104843725D01*
X157569252Y-104690770D01*
X157647502Y-104544375D01*
X157662525Y-104516269D01*
X157662525Y-104516268D01*
X157662527Y-104516265D01*
X157719965Y-104326916D01*
X157739360Y-104130000D01*
X157728200Y-104016694D01*
X157741219Y-103948049D01*
X157789283Y-103897339D01*
X157857134Y-103880664D01*
X157875794Y-103882923D01*
X157898798Y-103887499D01*
X157898799Y-103887500D01*
X157898800Y-103887500D01*
X158101200Y-103887500D01*
X158124204Y-103882924D01*
X158193794Y-103889150D01*
X158248972Y-103932012D01*
X158272218Y-103997902D01*
X158271799Y-104016694D01*
X158260640Y-104129999D01*
X158280034Y-104326914D01*
X158337474Y-104516269D01*
X158430744Y-104690764D01*
X158430748Y-104690771D01*
X158556274Y-104843725D01*
X158709228Y-104969251D01*
X158709235Y-104969255D01*
X158883730Y-105062525D01*
X158883732Y-105062525D01*
X158883735Y-105062527D01*
X159073084Y-105119965D01*
X159073083Y-105119965D01*
X159090739Y-105121703D01*
X159270000Y-105139360D01*
X159466916Y-105119965D01*
X159656265Y-105062527D01*
X159665908Y-105057373D01*
X159830764Y-104969255D01*
X159830770Y-104969252D01*
X159983725Y-104843725D01*
X160109252Y-104690770D01*
X160187502Y-104544375D01*
X160202525Y-104516269D01*
X160202525Y-104516268D01*
X160202527Y-104516265D01*
X160259965Y-104326916D01*
X160279360Y-104130000D01*
X160259965Y-103933084D01*
X160202527Y-103743735D01*
X160202525Y-103743732D01*
X160202525Y-103743730D01*
X160109255Y-103569235D01*
X160109251Y-103569228D01*
X159983725Y-103416274D01*
X159830771Y-103290748D01*
X159830764Y-103290744D01*
X159656269Y-103197474D01*
X159543964Y-103163407D01*
X159466916Y-103140035D01*
X159466914Y-103140034D01*
X159466916Y-103140034D01*
X159273939Y-103121028D01*
X159270000Y-103120640D01*
X159269999Y-103120640D01*
X159156694Y-103131799D01*
X159088048Y-103118780D01*
X159037338Y-103070715D01*
X159020664Y-103002864D01*
X159022924Y-102984203D01*
X159027279Y-102962313D01*
X159027500Y-102961200D01*
X159027500Y-102758800D01*
X159022924Y-102735794D01*
X159029151Y-102666204D01*
X159072013Y-102611026D01*
X159137903Y-102587781D01*
X159156692Y-102588199D01*
X159270000Y-102599360D01*
X159466916Y-102579965D01*
X159656265Y-102522527D01*
X159680280Y-102509691D01*
X159769505Y-102461999D01*
X159830770Y-102429252D01*
X159983725Y-102303725D01*
X160109252Y-102150770D01*
X160165217Y-102046067D01*
X160202525Y-101976269D01*
X160202525Y-101976268D01*
X160202527Y-101976265D01*
X160259965Y-101786916D01*
X160279360Y-101590000D01*
X160259965Y-101393084D01*
X160202527Y-101203735D01*
X160202525Y-101203732D01*
X160202525Y-101203730D01*
X160109255Y-101029235D01*
X160109251Y-101029228D01*
X159983725Y-100876274D01*
X159830771Y-100750748D01*
X159830764Y-100750744D01*
X159656269Y-100657474D01*
X159550890Y-100625508D01*
X159466916Y-100600035D01*
X159466914Y-100600034D01*
X159466916Y-100600034D01*
X159270000Y-100580640D01*
X159073085Y-100600034D01*
X158883730Y-100657474D01*
X158709235Y-100750744D01*
X158709228Y-100750748D01*
X158556274Y-100876274D01*
X158430748Y-101029228D01*
X158430744Y-101029235D01*
X158337474Y-101203730D01*
X158280034Y-101393085D01*
X158260640Y-101590000D01*
X158271799Y-101703304D01*
X158258780Y-101771950D01*
X158210715Y-101822660D01*
X158142864Y-101839335D01*
X158124207Y-101837076D01*
X158101200Y-101832500D01*
X157898800Y-101832500D01*
X157898799Y-101832500D01*
X157875791Y-101837076D01*
X157806200Y-101830847D01*
X157751024Y-101787983D01*
X157727781Y-101722092D01*
X157728200Y-101703303D01*
X157731069Y-101674177D01*
X157739360Y-101590000D01*
X157719965Y-101393084D01*
X157662527Y-101203735D01*
X157662525Y-101203732D01*
X157662525Y-101203730D01*
X157569255Y-101029235D01*
X157569251Y-101029228D01*
X157443725Y-100876274D01*
X157290771Y-100750748D01*
X157290764Y-100750744D01*
X157116269Y-100657474D01*
X157010890Y-100625508D01*
X156926916Y-100600035D01*
X156926914Y-100600034D01*
X156926916Y-100600034D01*
X156730000Y-100580640D01*
X156533085Y-100600034D01*
X156343730Y-100657474D01*
X156169235Y-100750744D01*
X156169228Y-100750748D01*
X156016274Y-100876274D01*
X155890748Y-101029228D01*
X155890744Y-101029235D01*
X155797474Y-101203730D01*
X155740034Y-101393085D01*
X155720640Y-101590000D01*
X153034566Y-101590000D01*
X153155652Y-101482727D01*
X153252080Y-101343027D01*
X153312273Y-101184310D01*
X153332734Y-101015800D01*
X153312273Y-100847290D01*
X153312272Y-100847288D01*
X153312272Y-100847286D01*
X153275658Y-100750744D01*
X153252080Y-100688573D01*
X153155652Y-100548873D01*
X153155649Y-100548870D01*
X153155647Y-100548868D01*
X153028595Y-100436309D01*
X152878287Y-100357422D01*
X152713474Y-100316800D01*
X152543726Y-100316800D01*
X152378912Y-100357422D01*
X152228604Y-100436309D01*
X152101552Y-100548868D01*
X152101546Y-100548875D01*
X152005121Y-100688571D01*
X152005120Y-100688572D01*
X151944927Y-100847286D01*
X151944926Y-100847291D01*
X151924466Y-101015800D01*
X150002250Y-101015800D01*
X149984873Y-100872690D01*
X149984872Y-100872688D01*
X149984872Y-100872686D01*
X149938625Y-100750744D01*
X149924680Y-100713973D01*
X149840461Y-100591961D01*
X149818580Y-100525611D01*
X149836045Y-100457959D01*
X149884889Y-100411728D01*
X149885098Y-100411618D01*
X149904394Y-100401491D01*
X150031452Y-100288927D01*
X150127880Y-100149227D01*
X150188073Y-99990510D01*
X150208534Y-99822000D01*
X150188073Y-99653490D01*
X150188072Y-99653488D01*
X150188072Y-99653486D01*
X150142327Y-99532868D01*
X150127880Y-99494773D01*
X150031452Y-99355073D01*
X150031449Y-99355070D01*
X150031447Y-99355068D01*
X149904395Y-99242509D01*
X149754087Y-99163622D01*
X149589274Y-99123000D01*
X149419526Y-99123000D01*
X149254712Y-99163622D01*
X149104404Y-99242509D01*
X148977352Y-99355068D01*
X148977346Y-99355075D01*
X148880921Y-99494771D01*
X148880920Y-99494772D01*
X148820727Y-99653486D01*
X148820726Y-99653491D01*
X148800266Y-99822000D01*
X148820726Y-99990508D01*
X148820727Y-99990513D01*
X148880920Y-100149227D01*
X148880920Y-100149228D01*
X148925877Y-100214359D01*
X148965136Y-100271235D01*
X148987019Y-100337588D01*
X148969554Y-100405240D01*
X148920715Y-100451469D01*
X148901205Y-100461709D01*
X148774152Y-100574268D01*
X148774146Y-100574275D01*
X148677721Y-100713971D01*
X148677720Y-100713972D01*
X148617527Y-100872686D01*
X148617526Y-100872691D01*
X148597066Y-101041200D01*
X148139022Y-101041200D01*
X148160301Y-101022348D01*
X148256729Y-100882648D01*
X148316922Y-100723931D01*
X148337383Y-100555421D01*
X148316922Y-100386911D01*
X148316921Y-100386909D01*
X148316921Y-100386907D01*
X148279596Y-100288490D01*
X148256729Y-100228194D01*
X148160301Y-100088494D01*
X148160298Y-100088491D01*
X148160296Y-100088489D01*
X148033244Y-99975930D01*
X147882936Y-99897043D01*
X147718123Y-99856421D01*
X147548375Y-99856421D01*
X147383561Y-99897043D01*
X147233253Y-99975930D01*
X147106201Y-100088489D01*
X147106195Y-100088496D01*
X147009770Y-100228192D01*
X147009769Y-100228193D01*
X146949576Y-100386907D01*
X146949575Y-100386912D01*
X146929115Y-100555421D01*
X141941583Y-100555421D01*
X141953534Y-100457000D01*
X141933073Y-100288490D01*
X141933072Y-100288488D01*
X141933072Y-100288486D01*
X141887494Y-100168308D01*
X141872880Y-100129773D01*
X141776452Y-99990073D01*
X141776449Y-99990070D01*
X141776447Y-99990068D01*
X141649395Y-99877509D01*
X141499087Y-99798622D01*
X141334274Y-99758000D01*
X141164526Y-99758000D01*
X140999712Y-99798622D01*
X140849404Y-99877509D01*
X140722352Y-99990068D01*
X140722346Y-99990075D01*
X140625921Y-100129771D01*
X140625920Y-100129772D01*
X140565727Y-100288486D01*
X140565726Y-100288491D01*
X140545266Y-100457000D01*
X127939629Y-100457000D01*
X127958134Y-100304600D01*
X127937673Y-100136090D01*
X127937672Y-100136088D01*
X127937672Y-100136086D01*
X127902348Y-100042945D01*
X127877480Y-99977373D01*
X127781052Y-99837673D01*
X127781049Y-99837670D01*
X127781047Y-99837668D01*
X127653995Y-99725109D01*
X127503687Y-99646222D01*
X127338874Y-99605600D01*
X127169126Y-99605600D01*
X127004312Y-99646222D01*
X126854004Y-99725109D01*
X126726952Y-99837668D01*
X126726946Y-99837675D01*
X126630521Y-99977371D01*
X126630520Y-99977372D01*
X126570327Y-100136086D01*
X126570326Y-100136091D01*
X126549866Y-100304600D01*
X118386385Y-100304600D01*
X118438073Y-100168310D01*
X118458534Y-99999800D01*
X118438073Y-99831290D01*
X118438072Y-99831288D01*
X118438072Y-99831286D01*
X118397804Y-99725109D01*
X118377880Y-99672573D01*
X118281452Y-99532873D01*
X118281449Y-99532870D01*
X118281447Y-99532868D01*
X118154395Y-99420309D01*
X118004087Y-99341422D01*
X117839274Y-99300800D01*
X117669526Y-99300800D01*
X117504712Y-99341422D01*
X117354404Y-99420309D01*
X117227352Y-99532868D01*
X117227346Y-99532875D01*
X117130921Y-99672571D01*
X117130920Y-99672572D01*
X117070727Y-99831286D01*
X117070726Y-99831291D01*
X117050266Y-99999800D01*
X116601250Y-99999800D01*
X116604334Y-99974400D01*
X116583873Y-99805890D01*
X116583872Y-99805888D01*
X116583872Y-99805886D01*
X116533971Y-99674309D01*
X116523680Y-99647173D01*
X116427252Y-99507473D01*
X116427249Y-99507470D01*
X116427247Y-99507468D01*
X116300195Y-99394909D01*
X116149887Y-99316022D01*
X115985074Y-99275400D01*
X115815326Y-99275400D01*
X115650512Y-99316022D01*
X115500204Y-99394909D01*
X115373152Y-99507468D01*
X115373146Y-99507475D01*
X115276721Y-99647171D01*
X115276720Y-99647172D01*
X115216527Y-99805886D01*
X115216526Y-99805891D01*
X115196066Y-99974400D01*
X104629218Y-99974400D01*
X104611080Y-99926573D01*
X104514652Y-99786873D01*
X104514649Y-99786870D01*
X104514647Y-99786868D01*
X104387595Y-99674309D01*
X104237287Y-99595422D01*
X104072474Y-99554800D01*
X103902726Y-99554800D01*
X103737912Y-99595422D01*
X103587604Y-99674309D01*
X103460552Y-99786868D01*
X103460546Y-99786875D01*
X103364121Y-99926571D01*
X103364120Y-99926572D01*
X103303927Y-100085286D01*
X103303926Y-100085291D01*
X103283466Y-100253800D01*
X76530651Y-100253800D01*
X76530447Y-99183827D01*
X133221432Y-99183827D01*
X133241892Y-99352335D01*
X133241893Y-99352340D01*
X133279197Y-99450701D01*
X133302086Y-99511054D01*
X133398514Y-99650754D01*
X133398516Y-99650756D01*
X133398518Y-99650758D01*
X133525570Y-99763317D01*
X133525572Y-99763318D01*
X133675877Y-99842204D01*
X133840692Y-99882827D01*
X134010440Y-99882827D01*
X134175255Y-99842204D01*
X134325560Y-99763318D01*
X134452618Y-99650754D01*
X134549046Y-99511054D01*
X134609239Y-99352337D01*
X134622879Y-99240001D01*
X135032189Y-99240001D01*
X135052649Y-99408509D01*
X135052650Y-99408514D01*
X135101717Y-99537891D01*
X135112843Y-99567228D01*
X135209271Y-99706928D01*
X135209273Y-99706930D01*
X135209275Y-99706932D01*
X135336327Y-99819491D01*
X135336329Y-99819492D01*
X135486634Y-99898378D01*
X135651449Y-99939001D01*
X135821197Y-99939001D01*
X135986012Y-99898378D01*
X136136317Y-99819492D01*
X136263375Y-99706928D01*
X136359803Y-99567228D01*
X136389131Y-99489896D01*
X136758762Y-99489896D01*
X136779222Y-99658404D01*
X136779223Y-99658409D01*
X136832400Y-99798623D01*
X136839416Y-99817123D01*
X136935844Y-99956823D01*
X136935846Y-99956825D01*
X136935848Y-99956827D01*
X137062900Y-100069386D01*
X137062902Y-100069387D01*
X137213207Y-100148273D01*
X137378022Y-100188896D01*
X137547770Y-100188896D01*
X137712585Y-100148273D01*
X137862890Y-100069387D01*
X137989948Y-99956823D01*
X138086376Y-99817123D01*
X138146569Y-99658406D01*
X138167030Y-99489896D01*
X138146569Y-99321386D01*
X138146568Y-99321384D01*
X138146568Y-99321382D01*
X138094400Y-99183827D01*
X138086376Y-99162669D01*
X137989948Y-99022969D01*
X137989945Y-99022966D01*
X137989943Y-99022964D01*
X137917066Y-98958400D01*
X151238666Y-98958400D01*
X151259126Y-99126908D01*
X151259127Y-99126913D01*
X151315441Y-99275400D01*
X151319320Y-99285627D01*
X151415748Y-99425327D01*
X151415750Y-99425329D01*
X151415752Y-99425331D01*
X151542804Y-99537890D01*
X151542806Y-99537891D01*
X151693111Y-99616777D01*
X151857926Y-99657400D01*
X152027674Y-99657400D01*
X152192489Y-99616777D01*
X152342794Y-99537891D01*
X152469852Y-99425327D01*
X152566280Y-99285627D01*
X152626473Y-99126910D01*
X152635812Y-99049999D01*
X158160768Y-99049999D01*
X158160768Y-99050000D01*
X158179654Y-99253816D01*
X158179654Y-99253818D01*
X158179655Y-99253821D01*
X158228454Y-99425331D01*
X158235673Y-99450704D01*
X158326912Y-99633935D01*
X158450269Y-99797287D01*
X158601537Y-99935185D01*
X158601539Y-99935187D01*
X158775569Y-100042942D01*
X158775575Y-100042945D01*
X158816010Y-100058609D01*
X158966444Y-100116888D01*
X159167653Y-100154500D01*
X159167656Y-100154500D01*
X159372344Y-100154500D01*
X159372347Y-100154500D01*
X159573556Y-100116888D01*
X159764427Y-100042944D01*
X159938462Y-99935186D01*
X160088264Y-99798623D01*
X160089730Y-99797287D01*
X160097593Y-99786875D01*
X160213088Y-99633935D01*
X160304328Y-99450701D01*
X160360345Y-99253821D01*
X160379232Y-99050000D01*
X160360345Y-98846179D01*
X160304328Y-98649299D01*
X160213088Y-98466065D01*
X160089732Y-98302715D01*
X160089730Y-98302712D01*
X159938462Y-98164814D01*
X159938460Y-98164812D01*
X159764430Y-98057057D01*
X159764424Y-98057054D01*
X159613993Y-97998777D01*
X159573556Y-97983112D01*
X159372347Y-97945500D01*
X159167653Y-97945500D01*
X158966444Y-97983112D01*
X158966441Y-97983112D01*
X158966441Y-97983113D01*
X158775575Y-98057054D01*
X158775569Y-98057057D01*
X158601539Y-98164812D01*
X158601537Y-98164814D01*
X158450269Y-98302712D01*
X158326912Y-98466064D01*
X158235673Y-98649295D01*
X158235672Y-98649299D01*
X158183827Y-98831518D01*
X158179654Y-98846183D01*
X158160768Y-99049999D01*
X152635812Y-99049999D01*
X152646934Y-98958400D01*
X152626473Y-98789890D01*
X152626472Y-98789888D01*
X152626472Y-98789886D01*
X152573154Y-98649299D01*
X152566280Y-98631173D01*
X152469852Y-98491473D01*
X152469849Y-98491470D01*
X152469847Y-98491468D01*
X152342795Y-98378909D01*
X152192487Y-98300022D01*
X152027674Y-98259400D01*
X151857926Y-98259400D01*
X151693112Y-98300022D01*
X151542804Y-98378909D01*
X151415752Y-98491468D01*
X151415746Y-98491475D01*
X151319321Y-98631171D01*
X151319320Y-98631172D01*
X151259127Y-98789886D01*
X151259126Y-98789891D01*
X151238666Y-98958400D01*
X137917066Y-98958400D01*
X137862891Y-98910405D01*
X137712583Y-98831518D01*
X137547770Y-98790896D01*
X137378022Y-98790896D01*
X137213208Y-98831518D01*
X137062900Y-98910405D01*
X136935848Y-99022964D01*
X136935842Y-99022971D01*
X136839417Y-99162667D01*
X136839416Y-99162668D01*
X136779223Y-99321382D01*
X136779222Y-99321387D01*
X136758762Y-99489896D01*
X136389131Y-99489896D01*
X136419996Y-99408511D01*
X136440457Y-99240001D01*
X136419996Y-99071491D01*
X136419995Y-99071489D01*
X136419995Y-99071487D01*
X136392643Y-98999367D01*
X136359803Y-98912774D01*
X136263375Y-98773074D01*
X136263372Y-98773071D01*
X136263370Y-98773069D01*
X136136318Y-98660510D01*
X135986010Y-98581623D01*
X135821197Y-98541001D01*
X135651449Y-98541001D01*
X135486635Y-98581623D01*
X135336327Y-98660510D01*
X135209275Y-98773069D01*
X135209269Y-98773076D01*
X135112844Y-98912772D01*
X135112843Y-98912773D01*
X135052650Y-99071487D01*
X135052649Y-99071492D01*
X135032189Y-99240001D01*
X134622879Y-99240001D01*
X134629700Y-99183827D01*
X134609239Y-99015317D01*
X134609238Y-99015315D01*
X134609238Y-99015313D01*
X134569451Y-98910405D01*
X134549046Y-98856600D01*
X134452618Y-98716900D01*
X134452615Y-98716897D01*
X134452613Y-98716895D01*
X134325561Y-98604336D01*
X134175253Y-98525449D01*
X134010440Y-98484827D01*
X133840692Y-98484827D01*
X133675878Y-98525449D01*
X133525570Y-98604336D01*
X133398518Y-98716895D01*
X133398512Y-98716902D01*
X133302087Y-98856598D01*
X133302086Y-98856599D01*
X133241893Y-99015313D01*
X133241892Y-99015318D01*
X133221432Y-99183827D01*
X76530447Y-99183827D01*
X76530055Y-97129600D01*
X94952266Y-97129600D01*
X94972726Y-97298108D01*
X94972727Y-97298113D01*
X95032920Y-97456827D01*
X95129348Y-97596527D01*
X95129350Y-97596529D01*
X95129352Y-97596531D01*
X95256404Y-97709090D01*
X95256406Y-97709091D01*
X95406711Y-97787977D01*
X95571526Y-97828600D01*
X95741274Y-97828600D01*
X95906089Y-97787977D01*
X96056394Y-97709091D01*
X96183452Y-97596527D01*
X96279880Y-97456827D01*
X96340073Y-97298110D01*
X96348197Y-97231200D01*
X151213266Y-97231200D01*
X151233726Y-97399708D01*
X151233727Y-97399713D01*
X151293920Y-97558427D01*
X151390348Y-97698127D01*
X151390350Y-97698129D01*
X151390352Y-97698131D01*
X151517404Y-97810690D01*
X151517406Y-97810691D01*
X151667711Y-97889577D01*
X151832526Y-97930200D01*
X152002274Y-97930200D01*
X152167089Y-97889577D01*
X152317394Y-97810691D01*
X152444452Y-97698127D01*
X152540880Y-97558427D01*
X152601073Y-97399710D01*
X152621534Y-97231200D01*
X152601073Y-97062690D01*
X152601072Y-97062688D01*
X152601072Y-97062686D01*
X152554976Y-96941141D01*
X152540880Y-96903973D01*
X152444452Y-96764273D01*
X152444449Y-96764270D01*
X152444447Y-96764268D01*
X152317395Y-96651709D01*
X152167087Y-96572822D01*
X152002274Y-96532200D01*
X151832526Y-96532200D01*
X151667712Y-96572822D01*
X151517404Y-96651709D01*
X151390352Y-96764268D01*
X151390346Y-96764275D01*
X151293921Y-96903971D01*
X151293920Y-96903972D01*
X151233727Y-97062686D01*
X151233726Y-97062691D01*
X151213266Y-97231200D01*
X96348197Y-97231200D01*
X96360534Y-97129600D01*
X96340073Y-96961090D01*
X96340072Y-96961088D01*
X96340072Y-96961086D01*
X96302590Y-96862254D01*
X96279880Y-96802373D01*
X96183452Y-96662673D01*
X96183449Y-96662670D01*
X96183447Y-96662668D01*
X96056395Y-96550109D01*
X95906087Y-96471222D01*
X95741274Y-96430600D01*
X95571526Y-96430600D01*
X95406712Y-96471222D01*
X95256404Y-96550109D01*
X95129352Y-96662668D01*
X95129346Y-96662675D01*
X95032921Y-96802371D01*
X95032920Y-96802372D01*
X94972727Y-96961086D01*
X94972726Y-96961091D01*
X94952266Y-97129600D01*
X76530055Y-97129600D01*
X76529893Y-96282764D01*
X99803666Y-96282764D01*
X99824126Y-96451272D01*
X99824127Y-96451277D01*
X99870224Y-96572823D01*
X99884320Y-96609991D01*
X99980748Y-96749691D01*
X99980750Y-96749693D01*
X99980752Y-96749695D01*
X100107804Y-96862254D01*
X100107806Y-96862255D01*
X100258111Y-96941141D01*
X100422926Y-96981764D01*
X100592674Y-96981764D01*
X100757489Y-96941141D01*
X100907794Y-96862255D01*
X101034852Y-96749691D01*
X101131280Y-96609991D01*
X101191473Y-96451274D01*
X101211934Y-96282764D01*
X101191473Y-96114254D01*
X101191472Y-96114252D01*
X101191472Y-96114250D01*
X101137085Y-95970844D01*
X101131280Y-95955537D01*
X101034852Y-95815837D01*
X101034849Y-95815834D01*
X101034847Y-95815832D01*
X100940899Y-95732601D01*
X103994668Y-95732601D01*
X104015128Y-95901109D01*
X104015129Y-95901114D01*
X104075322Y-96059828D01*
X104171750Y-96199528D01*
X104171752Y-96199530D01*
X104171754Y-96199532D01*
X104298806Y-96312091D01*
X104298808Y-96312092D01*
X104449113Y-96390978D01*
X104613928Y-96431601D01*
X104783676Y-96431601D01*
X104948491Y-96390978D01*
X105098796Y-96312092D01*
X105225854Y-96199528D01*
X105322282Y-96059828D01*
X105382475Y-95901111D01*
X105402936Y-95732601D01*
X107220467Y-95732601D01*
X107240927Y-95901109D01*
X107240928Y-95901114D01*
X107301121Y-96059828D01*
X107397549Y-96199528D01*
X107397551Y-96199530D01*
X107397553Y-96199532D01*
X107524605Y-96312091D01*
X107524607Y-96312092D01*
X107674912Y-96390978D01*
X107839727Y-96431601D01*
X108009475Y-96431601D01*
X108174290Y-96390978D01*
X108324595Y-96312092D01*
X108451653Y-96199528D01*
X108548081Y-96059828D01*
X108608274Y-95901111D01*
X108628735Y-95732601D01*
X108608274Y-95564091D01*
X108608273Y-95564089D01*
X108608273Y-95564087D01*
X108572062Y-95468607D01*
X108548081Y-95405374D01*
X108451653Y-95265674D01*
X108451650Y-95265671D01*
X108451648Y-95265669D01*
X108433961Y-95250000D01*
X120987266Y-95250000D01*
X121007726Y-95418508D01*
X121007727Y-95418513D01*
X121067918Y-95577223D01*
X121067920Y-95577227D01*
X121164348Y-95716927D01*
X121164350Y-95716929D01*
X121164352Y-95716931D01*
X121291404Y-95829490D01*
X121291406Y-95829491D01*
X121441711Y-95908377D01*
X121606526Y-95949000D01*
X121776274Y-95949000D01*
X121941089Y-95908377D01*
X122091394Y-95829491D01*
X122218452Y-95716927D01*
X122314880Y-95577227D01*
X122367861Y-95437526D01*
X122375072Y-95418513D01*
X122375073Y-95418508D01*
X122395534Y-95250000D01*
X122375073Y-95081490D01*
X122375072Y-95081488D01*
X122375072Y-95081486D01*
X122336105Y-94978739D01*
X122314880Y-94922773D01*
X122218452Y-94783073D01*
X122218449Y-94783070D01*
X122218447Y-94783068D01*
X122143994Y-94717108D01*
X135541466Y-94717108D01*
X135561926Y-94885616D01*
X135561927Y-94885621D01*
X135618049Y-95033601D01*
X135622120Y-95044335D01*
X135718548Y-95184035D01*
X135718550Y-95184037D01*
X135718552Y-95184039D01*
X135845604Y-95296598D01*
X135845606Y-95296599D01*
X135995911Y-95375485D01*
X136160726Y-95416108D01*
X136330474Y-95416108D01*
X136495289Y-95375485D01*
X136645594Y-95296599D01*
X136698193Y-95250000D01*
X137421066Y-95250000D01*
X137441526Y-95418508D01*
X137441527Y-95418513D01*
X137501718Y-95577223D01*
X137501720Y-95577227D01*
X137598148Y-95716927D01*
X137598150Y-95716929D01*
X137598152Y-95716931D01*
X137725204Y-95829490D01*
X137725206Y-95829491D01*
X137875511Y-95908377D01*
X138040326Y-95949000D01*
X138210074Y-95949000D01*
X138374889Y-95908377D01*
X138525194Y-95829491D01*
X138652252Y-95716927D01*
X138748680Y-95577227D01*
X138801661Y-95437526D01*
X138808872Y-95418513D01*
X138808873Y-95418508D01*
X138826682Y-95271844D01*
X139375280Y-95271844D01*
X139395740Y-95440352D01*
X139395741Y-95440357D01*
X139442666Y-95564087D01*
X139455934Y-95599071D01*
X139552362Y-95738771D01*
X139552364Y-95738773D01*
X139552366Y-95738775D01*
X139679418Y-95851334D01*
X139679420Y-95851335D01*
X139829725Y-95930221D01*
X139994540Y-95970844D01*
X140164288Y-95970844D01*
X140329103Y-95930221D01*
X140479408Y-95851335D01*
X140606466Y-95738771D01*
X140702894Y-95599071D01*
X140763087Y-95440354D01*
X140783548Y-95271844D01*
X140763933Y-95110299D01*
X141650165Y-95110299D01*
X141670625Y-95278807D01*
X141670626Y-95278812D01*
X141718625Y-95405373D01*
X141730819Y-95437526D01*
X141827247Y-95577226D01*
X141827248Y-95577227D01*
X141827251Y-95577230D01*
X141954303Y-95689789D01*
X141954305Y-95689790D01*
X142104610Y-95768676D01*
X142269425Y-95809299D01*
X142439173Y-95809299D01*
X142603988Y-95768676D01*
X142754293Y-95689790D01*
X142813749Y-95637116D01*
X143899973Y-95637116D01*
X143920433Y-95805624D01*
X143920434Y-95805629D01*
X143959402Y-95908377D01*
X143980627Y-95964343D01*
X144077055Y-96104043D01*
X144077057Y-96104045D01*
X144077059Y-96104047D01*
X144204111Y-96216606D01*
X144204113Y-96216607D01*
X144354418Y-96295493D01*
X144519233Y-96336116D01*
X144688981Y-96336116D01*
X144853796Y-96295493D01*
X145004101Y-96216607D01*
X145131159Y-96104043D01*
X145202583Y-96000568D01*
X147493432Y-96000568D01*
X147513892Y-96169076D01*
X147513893Y-96169081D01*
X147565888Y-96306179D01*
X147574086Y-96327795D01*
X147670514Y-96467495D01*
X147670516Y-96467497D01*
X147670518Y-96467499D01*
X147797570Y-96580058D01*
X147797572Y-96580059D01*
X147947877Y-96658945D01*
X148112692Y-96699568D01*
X148282440Y-96699568D01*
X148447255Y-96658945D01*
X148597560Y-96580059D01*
X148676641Y-96509999D01*
X155620768Y-96509999D01*
X155620768Y-96510000D01*
X155639654Y-96713816D01*
X155639654Y-96713818D01*
X155639655Y-96713821D01*
X155693758Y-96903973D01*
X155695673Y-96910704D01*
X155786912Y-97093935D01*
X155910269Y-97257287D01*
X156061537Y-97395185D01*
X156061539Y-97395187D01*
X156235569Y-97502942D01*
X156235575Y-97502945D01*
X156276010Y-97518609D01*
X156426444Y-97576888D01*
X156627653Y-97614500D01*
X156627656Y-97614500D01*
X156832344Y-97614500D01*
X156832347Y-97614500D01*
X157033556Y-97576888D01*
X157224427Y-97502944D01*
X157398462Y-97395186D01*
X157549732Y-97257285D01*
X157673088Y-97093935D01*
X157764328Y-96910701D01*
X157820345Y-96713821D01*
X157839232Y-96510000D01*
X157839232Y-96509999D01*
X158160768Y-96509999D01*
X158160768Y-96510000D01*
X158179654Y-96713816D01*
X158179654Y-96713818D01*
X158179655Y-96713821D01*
X158233758Y-96903973D01*
X158235673Y-96910704D01*
X158326912Y-97093935D01*
X158450269Y-97257287D01*
X158601537Y-97395185D01*
X158601539Y-97395187D01*
X158775569Y-97502942D01*
X158775575Y-97502945D01*
X158816010Y-97518609D01*
X158966444Y-97576888D01*
X159167653Y-97614500D01*
X159167656Y-97614500D01*
X159372344Y-97614500D01*
X159372347Y-97614500D01*
X159573556Y-97576888D01*
X159764427Y-97502944D01*
X159938462Y-97395186D01*
X160089732Y-97257285D01*
X160213088Y-97093935D01*
X160304328Y-96910701D01*
X160360345Y-96713821D01*
X160379232Y-96510000D01*
X160360345Y-96306179D01*
X160304328Y-96109299D01*
X160213088Y-95926065D01*
X160089732Y-95762715D01*
X160089730Y-95762712D01*
X159938462Y-95624814D01*
X159938460Y-95624812D01*
X159764430Y-95517057D01*
X159764424Y-95517054D01*
X159613993Y-95458777D01*
X159573556Y-95443112D01*
X159372347Y-95405500D01*
X159167653Y-95405500D01*
X158966444Y-95443112D01*
X158966441Y-95443112D01*
X158966441Y-95443113D01*
X158775575Y-95517054D01*
X158775569Y-95517057D01*
X158601539Y-95624812D01*
X158601537Y-95624814D01*
X158450269Y-95762712D01*
X158326912Y-95926064D01*
X158235673Y-96109295D01*
X158235672Y-96109299D01*
X158182696Y-96295493D01*
X158179654Y-96306183D01*
X158160768Y-96509999D01*
X157839232Y-96509999D01*
X157820345Y-96306179D01*
X157764328Y-96109299D01*
X157673088Y-95926065D01*
X157549732Y-95762715D01*
X157549730Y-95762712D01*
X157398462Y-95624814D01*
X157398460Y-95624812D01*
X157224430Y-95517057D01*
X157224424Y-95517054D01*
X157073993Y-95458777D01*
X157033556Y-95443112D01*
X156832347Y-95405500D01*
X156627653Y-95405500D01*
X156426444Y-95443112D01*
X156426441Y-95443112D01*
X156426441Y-95443113D01*
X156235575Y-95517054D01*
X156235569Y-95517057D01*
X156061539Y-95624812D01*
X156061537Y-95624814D01*
X155910269Y-95762712D01*
X155786912Y-95926064D01*
X155695673Y-96109295D01*
X155695672Y-96109299D01*
X155642696Y-96295493D01*
X155639654Y-96306183D01*
X155620768Y-96509999D01*
X148676641Y-96509999D01*
X148724618Y-96467495D01*
X148821046Y-96327795D01*
X148881239Y-96169078D01*
X148901700Y-96000568D01*
X148881239Y-95832058D01*
X148881238Y-95832056D01*
X148881238Y-95832054D01*
X148837576Y-95716927D01*
X148821046Y-95673341D01*
X148724618Y-95533641D01*
X148724615Y-95533638D01*
X148724613Y-95533636D01*
X148597561Y-95421077D01*
X148447253Y-95342190D01*
X148282440Y-95301568D01*
X148112692Y-95301568D01*
X147947878Y-95342190D01*
X147797570Y-95421077D01*
X147670518Y-95533636D01*
X147670512Y-95533643D01*
X147574087Y-95673339D01*
X147574086Y-95673340D01*
X147513893Y-95832054D01*
X147513892Y-95832059D01*
X147493432Y-96000568D01*
X145202583Y-96000568D01*
X145227587Y-95964343D01*
X145287780Y-95805626D01*
X145308241Y-95637116D01*
X145287780Y-95468606D01*
X145287779Y-95468604D01*
X145287779Y-95468602D01*
X145239837Y-95342190D01*
X145227587Y-95309889D01*
X145131159Y-95170189D01*
X145131156Y-95170186D01*
X145131154Y-95170184D01*
X145004102Y-95057625D01*
X144853794Y-94978738D01*
X144688981Y-94938116D01*
X144519233Y-94938116D01*
X144354419Y-94978738D01*
X144204111Y-95057625D01*
X144077059Y-95170184D01*
X144077053Y-95170191D01*
X143980628Y-95309887D01*
X143980627Y-95309888D01*
X143920434Y-95468602D01*
X143920433Y-95468607D01*
X143899973Y-95637116D01*
X142813749Y-95637116D01*
X142881351Y-95577226D01*
X142977779Y-95437526D01*
X143037972Y-95278809D01*
X143058433Y-95110299D01*
X143037972Y-94941789D01*
X143037971Y-94941787D01*
X143037971Y-94941785D01*
X142986064Y-94804919D01*
X142977779Y-94783072D01*
X142881351Y-94643372D01*
X142881348Y-94643369D01*
X142881346Y-94643367D01*
X142754294Y-94530808D01*
X142603986Y-94451921D01*
X142439173Y-94411299D01*
X142269425Y-94411299D01*
X142104611Y-94451921D01*
X141954303Y-94530808D01*
X141827251Y-94643367D01*
X141827245Y-94643374D01*
X141730820Y-94783070D01*
X141730819Y-94783071D01*
X141670626Y-94941785D01*
X141670625Y-94941790D01*
X141650165Y-95110299D01*
X140763933Y-95110299D01*
X140763087Y-95103334D01*
X140763086Y-95103332D01*
X140763086Y-95103330D01*
X140735734Y-95031210D01*
X140702894Y-94944617D01*
X140606466Y-94804917D01*
X140606463Y-94804914D01*
X140606461Y-94804912D01*
X140479409Y-94692353D01*
X140329101Y-94613466D01*
X140164288Y-94572844D01*
X139994540Y-94572844D01*
X139829726Y-94613466D01*
X139679418Y-94692353D01*
X139552366Y-94804912D01*
X139552360Y-94804919D01*
X139455935Y-94944615D01*
X139455934Y-94944616D01*
X139395741Y-95103330D01*
X139395740Y-95103335D01*
X139375280Y-95271844D01*
X138826682Y-95271844D01*
X138829334Y-95250000D01*
X138808873Y-95081490D01*
X138808872Y-95081488D01*
X138808872Y-95081486D01*
X138769905Y-94978739D01*
X138748680Y-94922773D01*
X138652252Y-94783073D01*
X138652249Y-94783070D01*
X138652247Y-94783068D01*
X138525195Y-94670509D01*
X138374887Y-94591622D01*
X138210074Y-94551000D01*
X138040326Y-94551000D01*
X137875512Y-94591622D01*
X137725204Y-94670509D01*
X137598152Y-94783068D01*
X137598146Y-94783075D01*
X137501721Y-94922771D01*
X137501720Y-94922772D01*
X137441527Y-95081486D01*
X137441526Y-95081491D01*
X137421066Y-95250000D01*
X136698193Y-95250000D01*
X136772652Y-95184035D01*
X136869080Y-95044335D01*
X136929273Y-94885618D01*
X136949734Y-94717108D01*
X136929273Y-94548598D01*
X136929272Y-94548596D01*
X136929272Y-94548594D01*
X136892609Y-94451922D01*
X136869080Y-94389881D01*
X136772652Y-94250181D01*
X136772649Y-94250178D01*
X136772647Y-94250176D01*
X136645595Y-94137617D01*
X136495287Y-94058730D01*
X136330474Y-94018108D01*
X136160726Y-94018108D01*
X135995912Y-94058730D01*
X135845604Y-94137617D01*
X135718552Y-94250176D01*
X135718546Y-94250183D01*
X135622121Y-94389879D01*
X135622120Y-94389880D01*
X135561927Y-94548594D01*
X135561926Y-94548599D01*
X135541466Y-94717108D01*
X122143994Y-94717108D01*
X122091395Y-94670509D01*
X121941087Y-94591622D01*
X121776274Y-94551000D01*
X121606526Y-94551000D01*
X121441712Y-94591622D01*
X121291404Y-94670509D01*
X121164352Y-94783068D01*
X121164346Y-94783075D01*
X121067921Y-94922771D01*
X121067920Y-94922772D01*
X121007727Y-95081486D01*
X121007726Y-95081491D01*
X120987266Y-95250000D01*
X108433961Y-95250000D01*
X108324596Y-95153110D01*
X108174288Y-95074223D01*
X108009475Y-95033601D01*
X107839727Y-95033601D01*
X107674913Y-95074223D01*
X107524605Y-95153110D01*
X107397553Y-95265669D01*
X107397547Y-95265676D01*
X107301122Y-95405372D01*
X107301121Y-95405373D01*
X107240928Y-95564087D01*
X107240927Y-95564092D01*
X107220467Y-95732601D01*
X105402936Y-95732601D01*
X105382475Y-95564091D01*
X105382474Y-95564089D01*
X105382474Y-95564087D01*
X105346263Y-95468607D01*
X105322282Y-95405374D01*
X105225854Y-95265674D01*
X105225851Y-95265671D01*
X105225849Y-95265669D01*
X105098797Y-95153110D01*
X104948489Y-95074223D01*
X104783676Y-95033601D01*
X104613928Y-95033601D01*
X104449114Y-95074223D01*
X104298806Y-95153110D01*
X104171754Y-95265669D01*
X104171748Y-95265676D01*
X104075323Y-95405372D01*
X104075322Y-95405373D01*
X104015129Y-95564087D01*
X104015128Y-95564092D01*
X103994668Y-95732601D01*
X100940899Y-95732601D01*
X100907795Y-95703273D01*
X100770484Y-95631207D01*
X100757489Y-95624387D01*
X100757488Y-95624386D01*
X100757487Y-95624386D01*
X100592674Y-95583764D01*
X100422926Y-95583764D01*
X100258112Y-95624386D01*
X100107804Y-95703273D01*
X99980752Y-95815832D01*
X99980746Y-95815839D01*
X99884321Y-95955535D01*
X99884320Y-95955536D01*
X99824127Y-96114250D01*
X99824126Y-96114255D01*
X99803666Y-96282764D01*
X76529893Y-96282764D01*
X76529453Y-93978096D01*
X144534970Y-93978096D01*
X144555430Y-94146604D01*
X144555431Y-94146609D01*
X144594712Y-94250183D01*
X144615624Y-94305323D01*
X144712052Y-94445023D01*
X144712054Y-94445025D01*
X144712056Y-94445027D01*
X144839108Y-94557586D01*
X144839110Y-94557587D01*
X144989415Y-94636473D01*
X145154230Y-94677096D01*
X145323978Y-94677096D01*
X145488793Y-94636473D01*
X145639098Y-94557587D01*
X145766156Y-94445023D01*
X145862584Y-94305323D01*
X145922777Y-94146606D01*
X145943238Y-93978096D01*
X145942255Y-93969999D01*
X155620768Y-93969999D01*
X155620768Y-93970000D01*
X155639654Y-94173816D01*
X155639654Y-94173818D01*
X155639655Y-94173821D01*
X155677071Y-94305324D01*
X155695673Y-94370704D01*
X155786912Y-94553935D01*
X155910269Y-94717287D01*
X156061537Y-94855185D01*
X156061539Y-94855187D01*
X156235569Y-94962942D01*
X156235575Y-94962945D01*
X156276010Y-94978609D01*
X156426444Y-95036888D01*
X156627653Y-95074500D01*
X156627656Y-95074500D01*
X156832344Y-95074500D01*
X156832347Y-95074500D01*
X157033556Y-95036888D01*
X157224427Y-94962944D01*
X157398462Y-94855186D01*
X157549732Y-94717285D01*
X157673088Y-94553935D01*
X157764328Y-94370701D01*
X157820345Y-94173821D01*
X157839232Y-93970000D01*
X157820345Y-93766179D01*
X157764328Y-93569299D01*
X157673088Y-93386065D01*
X157561247Y-93237963D01*
X157549730Y-93222712D01*
X157398462Y-93084814D01*
X157398460Y-93084812D01*
X157224430Y-92977057D01*
X157224424Y-92977054D01*
X157055822Y-92911738D01*
X157033556Y-92903112D01*
X156832347Y-92865500D01*
X156627653Y-92865500D01*
X156426444Y-92903112D01*
X156426441Y-92903112D01*
X156426441Y-92903113D01*
X156235575Y-92977054D01*
X156235569Y-92977057D01*
X156061539Y-93084812D01*
X156061537Y-93084814D01*
X155910269Y-93222712D01*
X155786912Y-93386064D01*
X155695673Y-93569295D01*
X155639654Y-93766183D01*
X155620768Y-93969999D01*
X145942255Y-93969999D01*
X145922777Y-93809586D01*
X145922776Y-93809584D01*
X145922776Y-93809582D01*
X145895424Y-93737462D01*
X145862584Y-93650869D01*
X145766156Y-93511169D01*
X145766153Y-93511166D01*
X145766151Y-93511164D01*
X145639099Y-93398605D01*
X145488791Y-93319718D01*
X145323978Y-93279096D01*
X145154230Y-93279096D01*
X144989416Y-93319718D01*
X144839108Y-93398605D01*
X144712056Y-93511164D01*
X144712050Y-93511171D01*
X144615625Y-93650867D01*
X144615624Y-93650868D01*
X144555431Y-93809582D01*
X144555430Y-93809587D01*
X144534970Y-93978096D01*
X76529453Y-93978096D01*
X76529300Y-93174052D01*
X76529564Y-93165967D01*
X76546227Y-92911724D01*
X76548342Y-92895670D01*
X76597252Y-92649785D01*
X76601441Y-92634148D01*
X76682030Y-92396741D01*
X76688227Y-92381781D01*
X76799110Y-92156933D01*
X76807213Y-92142898D01*
X76946496Y-91934446D01*
X76956353Y-91921600D01*
X77121653Y-91733111D01*
X77133111Y-91721653D01*
X77321600Y-91556353D01*
X77334446Y-91546496D01*
X77508796Y-91429999D01*
X155620768Y-91429999D01*
X155620768Y-91430000D01*
X155639654Y-91633816D01*
X155695673Y-91830704D01*
X155786912Y-92013935D01*
X155910269Y-92177287D01*
X156061537Y-92315185D01*
X156061539Y-92315187D01*
X156235569Y-92422942D01*
X156235575Y-92422945D01*
X156276010Y-92438609D01*
X156426444Y-92496888D01*
X156627653Y-92534500D01*
X156627656Y-92534500D01*
X156832344Y-92534500D01*
X156832347Y-92534500D01*
X157033556Y-92496888D01*
X157224427Y-92422944D01*
X157398462Y-92315186D01*
X157549732Y-92177285D01*
X157673088Y-92013935D01*
X157764328Y-91830701D01*
X157820345Y-91633821D01*
X157839232Y-91430000D01*
X157839232Y-91429999D01*
X158160768Y-91429999D01*
X158160768Y-91430000D01*
X158179654Y-91633816D01*
X158235673Y-91830704D01*
X158326912Y-92013935D01*
X158450269Y-92177287D01*
X158601537Y-92315185D01*
X158601539Y-92315187D01*
X158775569Y-92422942D01*
X158775575Y-92422945D01*
X158816010Y-92438609D01*
X158966444Y-92496888D01*
X159167653Y-92534500D01*
X159167656Y-92534500D01*
X159372344Y-92534500D01*
X159372347Y-92534500D01*
X159573556Y-92496888D01*
X159764427Y-92422944D01*
X159938462Y-92315186D01*
X160089732Y-92177285D01*
X160213088Y-92013935D01*
X160304328Y-91830701D01*
X160360345Y-91633821D01*
X160379232Y-91430000D01*
X160360345Y-91226179D01*
X160304328Y-91029299D01*
X160213088Y-90846065D01*
X160089732Y-90682715D01*
X160089730Y-90682712D01*
X159938462Y-90544814D01*
X159938460Y-90544812D01*
X159764430Y-90437057D01*
X159764424Y-90437054D01*
X159613993Y-90378777D01*
X159573556Y-90363112D01*
X159372347Y-90325500D01*
X159167653Y-90325500D01*
X158966444Y-90363112D01*
X158966441Y-90363112D01*
X158966441Y-90363113D01*
X158775575Y-90437054D01*
X158775569Y-90437057D01*
X158601539Y-90544812D01*
X158601537Y-90544814D01*
X158450269Y-90682712D01*
X158326912Y-90846064D01*
X158235673Y-91029295D01*
X158179654Y-91226183D01*
X158160768Y-91429999D01*
X157839232Y-91429999D01*
X157820345Y-91226179D01*
X157764328Y-91029299D01*
X157673088Y-90846065D01*
X157549732Y-90682715D01*
X157549730Y-90682712D01*
X157398462Y-90544814D01*
X157398460Y-90544812D01*
X157224430Y-90437057D01*
X157224424Y-90437054D01*
X157073993Y-90378777D01*
X157033556Y-90363112D01*
X156832347Y-90325500D01*
X156627653Y-90325500D01*
X156426444Y-90363112D01*
X156426441Y-90363112D01*
X156426441Y-90363113D01*
X156235575Y-90437054D01*
X156235569Y-90437057D01*
X156061539Y-90544812D01*
X156061537Y-90544814D01*
X155910269Y-90682712D01*
X155786912Y-90846064D01*
X155695673Y-91029295D01*
X155639654Y-91226183D01*
X155620768Y-91429999D01*
X77508796Y-91429999D01*
X77542898Y-91407213D01*
X77556933Y-91399110D01*
X77781781Y-91288227D01*
X77796741Y-91282030D01*
X78034148Y-91201441D01*
X78049785Y-91197252D01*
X78295670Y-91148342D01*
X78311726Y-91146227D01*
X78543933Y-91131008D01*
X78565958Y-91129565D01*
X78574067Y-91129300D01*
X151038422Y-91129300D01*
X151038427Y-91129300D01*
X151361503Y-91095343D01*
X151679259Y-91027802D01*
X151988214Y-90927416D01*
X152284984Y-90795286D01*
X152566316Y-90632859D01*
X152829129Y-90441914D01*
X153070543Y-90224543D01*
X153287914Y-89983129D01*
X153478859Y-89720316D01*
X153641286Y-89438984D01*
X153773416Y-89142214D01*
X153855366Y-88889999D01*
X158160768Y-88889999D01*
X158160768Y-88890000D01*
X158179654Y-89093816D01*
X158235673Y-89290704D01*
X158326912Y-89473935D01*
X158450269Y-89637287D01*
X158601537Y-89775185D01*
X158601539Y-89775187D01*
X158775569Y-89882942D01*
X158775575Y-89882945D01*
X158816010Y-89898609D01*
X158966444Y-89956888D01*
X159167653Y-89994500D01*
X159167656Y-89994500D01*
X159372344Y-89994500D01*
X159372347Y-89994500D01*
X159573556Y-89956888D01*
X159764427Y-89882944D01*
X159938462Y-89775186D01*
X160089732Y-89637285D01*
X160213088Y-89473935D01*
X160304328Y-89290701D01*
X160360345Y-89093821D01*
X160379232Y-88890000D01*
X160360345Y-88686179D01*
X160304328Y-88489299D01*
X160213088Y-88306065D01*
X160089732Y-88142715D01*
X160089730Y-88142712D01*
X159938462Y-88004814D01*
X159938460Y-88004812D01*
X159764430Y-87897057D01*
X159764424Y-87897054D01*
X159613993Y-87838777D01*
X159573556Y-87823112D01*
X159372347Y-87785500D01*
X159167653Y-87785500D01*
X158966444Y-87823112D01*
X158966441Y-87823112D01*
X158966441Y-87823113D01*
X158775575Y-87897054D01*
X158775569Y-87897057D01*
X158601539Y-88004812D01*
X158601537Y-88004814D01*
X158450269Y-88142712D01*
X158326912Y-88306064D01*
X158235673Y-88489295D01*
X158179654Y-88686183D01*
X158160768Y-88889999D01*
X153855366Y-88889999D01*
X153873802Y-88833259D01*
X153941343Y-88515503D01*
X153975300Y-88192427D01*
X153975300Y-88030000D01*
X153975300Y-87962089D01*
X153975300Y-86349999D01*
X155620768Y-86349999D01*
X155620768Y-86350000D01*
X155639654Y-86553816D01*
X155695673Y-86750704D01*
X155786912Y-86933935D01*
X155910269Y-87097287D01*
X156061537Y-87235185D01*
X156061539Y-87235187D01*
X156235569Y-87342942D01*
X156235575Y-87342945D01*
X156276010Y-87358609D01*
X156426444Y-87416888D01*
X156627653Y-87454500D01*
X156627656Y-87454500D01*
X156832344Y-87454500D01*
X156832347Y-87454500D01*
X157033556Y-87416888D01*
X157224427Y-87342944D01*
X157398462Y-87235186D01*
X157549732Y-87097285D01*
X157673088Y-86933935D01*
X157764328Y-86750701D01*
X157820345Y-86553821D01*
X157839232Y-86350000D01*
X157839232Y-86349999D01*
X158160768Y-86349999D01*
X158160768Y-86350000D01*
X158179654Y-86553816D01*
X158235673Y-86750704D01*
X158326912Y-86933935D01*
X158450269Y-87097287D01*
X158601537Y-87235185D01*
X158601539Y-87235187D01*
X158775569Y-87342942D01*
X158775575Y-87342945D01*
X158816010Y-87358609D01*
X158966444Y-87416888D01*
X159167653Y-87454500D01*
X159167656Y-87454500D01*
X159372344Y-87454500D01*
X159372347Y-87454500D01*
X159573556Y-87416888D01*
X159764427Y-87342944D01*
X159938462Y-87235186D01*
X160089732Y-87097285D01*
X160213088Y-86933935D01*
X160304328Y-86750701D01*
X160360345Y-86553821D01*
X160379232Y-86350000D01*
X160360345Y-86146179D01*
X160304328Y-85949299D01*
X160213088Y-85766065D01*
X160089732Y-85602715D01*
X160089730Y-85602712D01*
X159938462Y-85464814D01*
X159938460Y-85464812D01*
X159764430Y-85357057D01*
X159764424Y-85357054D01*
X159613993Y-85298777D01*
X159573556Y-85283112D01*
X159372347Y-85245500D01*
X159167653Y-85245500D01*
X158966444Y-85283112D01*
X158966441Y-85283112D01*
X158966441Y-85283113D01*
X158775575Y-85357054D01*
X158775569Y-85357057D01*
X158601539Y-85464812D01*
X158601537Y-85464814D01*
X158450269Y-85602712D01*
X158326912Y-85766064D01*
X158235673Y-85949295D01*
X158179654Y-86146183D01*
X158160768Y-86349999D01*
X157839232Y-86349999D01*
X157820345Y-86146179D01*
X157764328Y-85949299D01*
X157673088Y-85766065D01*
X157549732Y-85602715D01*
X157549730Y-85602712D01*
X157398462Y-85464814D01*
X157398460Y-85464812D01*
X157224430Y-85357057D01*
X157224424Y-85357054D01*
X157073993Y-85298777D01*
X157033556Y-85283112D01*
X156832347Y-85245500D01*
X156627653Y-85245500D01*
X156426444Y-85283112D01*
X156426441Y-85283112D01*
X156426441Y-85283113D01*
X156235575Y-85357054D01*
X156235569Y-85357057D01*
X156061539Y-85464812D01*
X156061537Y-85464814D01*
X155910269Y-85602712D01*
X155786912Y-85766064D01*
X155695673Y-85949295D01*
X155639654Y-86146183D01*
X155620768Y-86349999D01*
X153975300Y-86349999D01*
X153975300Y-83809999D01*
X155620768Y-83809999D01*
X155620768Y-83810000D01*
X155639654Y-84013816D01*
X155695673Y-84210704D01*
X155786912Y-84393935D01*
X155910269Y-84557287D01*
X156061537Y-84695185D01*
X156061539Y-84695187D01*
X156235569Y-84802942D01*
X156235575Y-84802945D01*
X156276010Y-84818609D01*
X156426444Y-84876888D01*
X156627653Y-84914500D01*
X156627656Y-84914500D01*
X156832344Y-84914500D01*
X156832347Y-84914500D01*
X157033556Y-84876888D01*
X157224427Y-84802944D01*
X157398462Y-84695186D01*
X157549732Y-84557285D01*
X157673088Y-84393935D01*
X157764328Y-84210701D01*
X157820345Y-84013821D01*
X157839232Y-83810000D01*
X157839232Y-83809999D01*
X158160768Y-83809999D01*
X158160768Y-83810000D01*
X158179654Y-84013816D01*
X158235673Y-84210704D01*
X158326912Y-84393935D01*
X158450269Y-84557287D01*
X158601537Y-84695185D01*
X158601539Y-84695187D01*
X158775569Y-84802942D01*
X158775575Y-84802945D01*
X158816010Y-84818609D01*
X158966444Y-84876888D01*
X159167653Y-84914500D01*
X159167656Y-84914500D01*
X159372344Y-84914500D01*
X159372347Y-84914500D01*
X159573556Y-84876888D01*
X159764427Y-84802944D01*
X159938462Y-84695186D01*
X160089732Y-84557285D01*
X160213088Y-84393935D01*
X160304328Y-84210701D01*
X160360345Y-84013821D01*
X160379232Y-83810000D01*
X160360345Y-83606179D01*
X160304328Y-83409299D01*
X160213088Y-83226065D01*
X160089732Y-83062715D01*
X160089730Y-83062712D01*
X159938462Y-82924814D01*
X159938460Y-82924812D01*
X159764430Y-82817057D01*
X159764424Y-82817054D01*
X159613993Y-82758777D01*
X159573556Y-82743112D01*
X159372347Y-82705500D01*
X159167653Y-82705500D01*
X158966444Y-82743112D01*
X158966441Y-82743112D01*
X158966441Y-82743113D01*
X158775575Y-82817054D01*
X158775569Y-82817057D01*
X158601539Y-82924812D01*
X158601537Y-82924814D01*
X158450269Y-83062712D01*
X158326912Y-83226064D01*
X158235673Y-83409295D01*
X158179654Y-83606183D01*
X158160768Y-83809999D01*
X157839232Y-83809999D01*
X157820345Y-83606179D01*
X157764328Y-83409299D01*
X157673088Y-83226065D01*
X157549732Y-83062715D01*
X157549730Y-83062712D01*
X157398462Y-82924814D01*
X157398460Y-82924812D01*
X157224430Y-82817057D01*
X157224424Y-82817054D01*
X157073993Y-82758777D01*
X157033556Y-82743112D01*
X156832347Y-82705500D01*
X156627653Y-82705500D01*
X156426444Y-82743112D01*
X156426441Y-82743112D01*
X156426441Y-82743113D01*
X156235575Y-82817054D01*
X156235569Y-82817057D01*
X156061539Y-82924812D01*
X156061537Y-82924814D01*
X155910269Y-83062712D01*
X155786912Y-83226064D01*
X155695673Y-83409295D01*
X155639654Y-83606183D01*
X155620768Y-83809999D01*
X153975300Y-83809999D01*
X153975300Y-81269999D01*
X158160768Y-81269999D01*
X158160768Y-81270000D01*
X158179654Y-81473816D01*
X158235673Y-81670704D01*
X158326912Y-81853935D01*
X158450269Y-82017287D01*
X158601537Y-82155185D01*
X158601539Y-82155187D01*
X158775569Y-82262942D01*
X158775575Y-82262945D01*
X158816010Y-82278609D01*
X158966444Y-82336888D01*
X159167653Y-82374500D01*
X159167656Y-82374500D01*
X159372344Y-82374500D01*
X159372347Y-82374500D01*
X159573556Y-82336888D01*
X159764427Y-82262944D01*
X159938462Y-82155186D01*
X160089732Y-82017285D01*
X160213088Y-81853935D01*
X160304328Y-81670701D01*
X160360345Y-81473821D01*
X160379232Y-81270000D01*
X160360345Y-81066179D01*
X160304328Y-80869299D01*
X160213088Y-80686065D01*
X160089732Y-80522715D01*
X160089730Y-80522712D01*
X159938462Y-80384814D01*
X159938460Y-80384812D01*
X159764430Y-80277057D01*
X159764424Y-80277054D01*
X159613993Y-80218777D01*
X159573556Y-80203112D01*
X159372347Y-80165500D01*
X159167653Y-80165500D01*
X158966444Y-80203112D01*
X158966441Y-80203112D01*
X158966441Y-80203113D01*
X158775575Y-80277054D01*
X158775569Y-80277057D01*
X158601539Y-80384812D01*
X158601537Y-80384814D01*
X158450269Y-80522712D01*
X158326912Y-80686064D01*
X158235673Y-80869295D01*
X158179654Y-81066183D01*
X158160768Y-81269999D01*
X153975300Y-81269999D01*
X153975300Y-78729999D01*
X155620768Y-78729999D01*
X155620768Y-78730000D01*
X155639654Y-78933816D01*
X155695673Y-79130704D01*
X155786912Y-79313935D01*
X155910269Y-79477287D01*
X156061537Y-79615185D01*
X156061539Y-79615187D01*
X156235569Y-79722942D01*
X156235575Y-79722945D01*
X156276010Y-79738609D01*
X156426444Y-79796888D01*
X156627653Y-79834500D01*
X156627656Y-79834500D01*
X156832344Y-79834500D01*
X156832347Y-79834500D01*
X157033556Y-79796888D01*
X157224427Y-79722944D01*
X157398462Y-79615186D01*
X157549732Y-79477285D01*
X157673088Y-79313935D01*
X157764328Y-79130701D01*
X157820345Y-78933821D01*
X157839232Y-78730000D01*
X157839232Y-78729999D01*
X158160768Y-78729999D01*
X158160768Y-78730000D01*
X158179654Y-78933816D01*
X158235673Y-79130704D01*
X158326912Y-79313935D01*
X158450269Y-79477287D01*
X158601537Y-79615185D01*
X158601539Y-79615187D01*
X158775569Y-79722942D01*
X158775575Y-79722945D01*
X158816010Y-79738609D01*
X158966444Y-79796888D01*
X159167653Y-79834500D01*
X159167656Y-79834500D01*
X159372344Y-79834500D01*
X159372347Y-79834500D01*
X159573556Y-79796888D01*
X159764427Y-79722944D01*
X159938462Y-79615186D01*
X160089732Y-79477285D01*
X160213088Y-79313935D01*
X160304328Y-79130701D01*
X160360345Y-78933821D01*
X160379232Y-78730000D01*
X160360345Y-78526179D01*
X160304328Y-78329299D01*
X160213088Y-78146065D01*
X160089732Y-77982715D01*
X160089730Y-77982712D01*
X159938462Y-77844814D01*
X159938460Y-77844812D01*
X159764430Y-77737057D01*
X159764424Y-77737054D01*
X159613993Y-77678777D01*
X159573556Y-77663112D01*
X159372347Y-77625500D01*
X159167653Y-77625500D01*
X158966444Y-77663112D01*
X158966441Y-77663112D01*
X158966441Y-77663113D01*
X158775575Y-77737054D01*
X158775569Y-77737057D01*
X158601539Y-77844812D01*
X158601537Y-77844814D01*
X158450269Y-77982712D01*
X158326912Y-78146064D01*
X158235673Y-78329295D01*
X158179654Y-78526183D01*
X158160768Y-78729999D01*
X157839232Y-78729999D01*
X157820345Y-78526179D01*
X157764328Y-78329299D01*
X157673088Y-78146065D01*
X157549732Y-77982715D01*
X157549730Y-77982712D01*
X157398462Y-77844814D01*
X157398460Y-77844812D01*
X157224430Y-77737057D01*
X157224424Y-77737054D01*
X157073993Y-77678777D01*
X157033556Y-77663112D01*
X156832347Y-77625500D01*
X156627653Y-77625500D01*
X156426444Y-77663112D01*
X156426441Y-77663112D01*
X156426441Y-77663113D01*
X156235575Y-77737054D01*
X156235569Y-77737057D01*
X156061539Y-77844812D01*
X156061537Y-77844814D01*
X155910269Y-77982712D01*
X155786912Y-78146064D01*
X155695673Y-78329295D01*
X155639654Y-78526183D01*
X155620768Y-78729999D01*
X153975300Y-78729999D01*
X153975300Y-76189999D01*
X155620768Y-76189999D01*
X155620768Y-76190000D01*
X155639654Y-76393816D01*
X155695673Y-76590704D01*
X155786912Y-76773935D01*
X155910269Y-76937287D01*
X156061537Y-77075185D01*
X156061539Y-77075187D01*
X156235569Y-77182942D01*
X156235575Y-77182945D01*
X156276010Y-77198609D01*
X156426444Y-77256888D01*
X156627653Y-77294500D01*
X156627656Y-77294500D01*
X156832344Y-77294500D01*
X156832347Y-77294500D01*
X157033556Y-77256888D01*
X157224427Y-77182944D01*
X157398462Y-77075186D01*
X157549732Y-76937285D01*
X157673088Y-76773935D01*
X157764328Y-76590701D01*
X157820345Y-76393821D01*
X157839232Y-76190000D01*
X157839232Y-76189999D01*
X158160768Y-76189999D01*
X158160768Y-76190000D01*
X158179654Y-76393816D01*
X158235673Y-76590704D01*
X158326912Y-76773935D01*
X158450269Y-76937287D01*
X158601537Y-77075185D01*
X158601539Y-77075187D01*
X158775569Y-77182942D01*
X158775575Y-77182945D01*
X158816010Y-77198609D01*
X158966444Y-77256888D01*
X159167653Y-77294500D01*
X159167656Y-77294500D01*
X159372344Y-77294500D01*
X159372347Y-77294500D01*
X159573556Y-77256888D01*
X159764427Y-77182944D01*
X159938462Y-77075186D01*
X160089732Y-76937285D01*
X160213088Y-76773935D01*
X160304328Y-76590701D01*
X160360345Y-76393821D01*
X160379232Y-76190000D01*
X160360345Y-75986179D01*
X160304328Y-75789299D01*
X160213088Y-75606065D01*
X160089732Y-75442715D01*
X160089730Y-75442712D01*
X159938462Y-75304814D01*
X159938460Y-75304812D01*
X159764430Y-75197057D01*
X159764424Y-75197054D01*
X159613993Y-75138777D01*
X159573556Y-75123112D01*
X159372347Y-75085500D01*
X159167653Y-75085500D01*
X158966444Y-75123112D01*
X158966441Y-75123112D01*
X158966441Y-75123113D01*
X158775575Y-75197054D01*
X158775569Y-75197057D01*
X158601539Y-75304812D01*
X158601537Y-75304814D01*
X158450269Y-75442712D01*
X158326912Y-75606064D01*
X158235673Y-75789295D01*
X158179654Y-75986183D01*
X158160768Y-76189999D01*
X157839232Y-76189999D01*
X157820345Y-75986179D01*
X157764328Y-75789299D01*
X157673088Y-75606065D01*
X157549732Y-75442715D01*
X157549730Y-75442712D01*
X157398462Y-75304814D01*
X157398460Y-75304812D01*
X157224430Y-75197057D01*
X157224424Y-75197054D01*
X157073993Y-75138777D01*
X157033556Y-75123112D01*
X156832347Y-75085500D01*
X156627653Y-75085500D01*
X156426444Y-75123112D01*
X156426441Y-75123112D01*
X156426441Y-75123113D01*
X156235575Y-75197054D01*
X156235569Y-75197057D01*
X156061539Y-75304812D01*
X156061537Y-75304814D01*
X155910269Y-75442712D01*
X155786912Y-75606064D01*
X155695673Y-75789295D01*
X155639654Y-75986183D01*
X155620768Y-76189999D01*
X153975300Y-76189999D01*
X153975300Y-73649999D01*
X155620768Y-73649999D01*
X155620768Y-73650000D01*
X155639654Y-73853816D01*
X155695673Y-74050704D01*
X155786912Y-74233935D01*
X155910269Y-74397287D01*
X156061537Y-74535185D01*
X156061539Y-74535187D01*
X156235569Y-74642942D01*
X156235575Y-74642945D01*
X156276010Y-74658609D01*
X156426444Y-74716888D01*
X156627653Y-74754500D01*
X156627656Y-74754500D01*
X156832344Y-74754500D01*
X156832347Y-74754500D01*
X157033556Y-74716888D01*
X157224427Y-74642944D01*
X157398462Y-74535186D01*
X157549732Y-74397285D01*
X157673088Y-74233935D01*
X157764328Y-74050701D01*
X157820345Y-73853821D01*
X157839232Y-73650000D01*
X157820345Y-73446179D01*
X157764328Y-73249299D01*
X157673088Y-73066065D01*
X157549732Y-72902715D01*
X157549730Y-72902712D01*
X157398462Y-72764814D01*
X157398460Y-72764812D01*
X157224430Y-72657057D01*
X157224424Y-72657054D01*
X157073993Y-72598777D01*
X157033556Y-72583112D01*
X156832347Y-72545500D01*
X156627653Y-72545500D01*
X156426444Y-72583112D01*
X156426441Y-72583112D01*
X156426441Y-72583113D01*
X156235575Y-72657054D01*
X156235569Y-72657057D01*
X156061539Y-72764812D01*
X156061537Y-72764814D01*
X155910269Y-72902712D01*
X155786912Y-73066064D01*
X155695673Y-73249295D01*
X155639654Y-73446183D01*
X155620768Y-73649999D01*
X153975300Y-73649999D01*
X153975300Y-71109999D01*
X155620768Y-71109999D01*
X155620768Y-71110000D01*
X155639654Y-71313816D01*
X155695673Y-71510704D01*
X155786912Y-71693935D01*
X155910269Y-71857287D01*
X156061537Y-71995185D01*
X156061539Y-71995187D01*
X156235569Y-72102942D01*
X156235575Y-72102945D01*
X156276010Y-72118609D01*
X156426444Y-72176888D01*
X156627653Y-72214500D01*
X156627656Y-72214500D01*
X156832344Y-72214500D01*
X156832347Y-72214500D01*
X157033556Y-72176888D01*
X157224427Y-72102944D01*
X157398462Y-71995186D01*
X157549732Y-71857285D01*
X157673088Y-71693935D01*
X157764328Y-71510701D01*
X157820345Y-71313821D01*
X157839232Y-71110000D01*
X157839232Y-71109999D01*
X158160768Y-71109999D01*
X158160768Y-71110000D01*
X158179654Y-71313816D01*
X158235673Y-71510704D01*
X158326912Y-71693935D01*
X158450269Y-71857287D01*
X158601537Y-71995185D01*
X158601539Y-71995187D01*
X158775569Y-72102942D01*
X158775575Y-72102945D01*
X158816010Y-72118609D01*
X158966444Y-72176888D01*
X159167653Y-72214500D01*
X159167656Y-72214500D01*
X159372344Y-72214500D01*
X159372347Y-72214500D01*
X159573556Y-72176888D01*
X159764427Y-72102944D01*
X159938462Y-71995186D01*
X160089732Y-71857285D01*
X160213088Y-71693935D01*
X160304328Y-71510701D01*
X160360345Y-71313821D01*
X160379232Y-71110000D01*
X160360345Y-70906179D01*
X160304328Y-70709299D01*
X160213088Y-70526065D01*
X160089732Y-70362715D01*
X160089730Y-70362712D01*
X159938462Y-70224814D01*
X159938460Y-70224812D01*
X159764430Y-70117057D01*
X159764424Y-70117054D01*
X159613993Y-70058777D01*
X159573556Y-70043112D01*
X159372347Y-70005500D01*
X159167653Y-70005500D01*
X158966444Y-70043112D01*
X158966441Y-70043112D01*
X158966441Y-70043113D01*
X158775575Y-70117054D01*
X158775569Y-70117057D01*
X158601539Y-70224812D01*
X158601537Y-70224814D01*
X158450269Y-70362712D01*
X158326912Y-70526064D01*
X158235673Y-70709295D01*
X158179654Y-70906183D01*
X158160768Y-71109999D01*
X157839232Y-71109999D01*
X157820345Y-70906179D01*
X157764328Y-70709299D01*
X157673088Y-70526065D01*
X157549732Y-70362715D01*
X157549730Y-70362712D01*
X157398462Y-70224814D01*
X157398460Y-70224812D01*
X157224430Y-70117057D01*
X157224424Y-70117054D01*
X157073993Y-70058777D01*
X157033556Y-70043112D01*
X156832347Y-70005500D01*
X156627653Y-70005500D01*
X156426444Y-70043112D01*
X156426441Y-70043112D01*
X156426441Y-70043113D01*
X156235575Y-70117054D01*
X156235569Y-70117057D01*
X156061539Y-70224812D01*
X156061537Y-70224814D01*
X155910269Y-70362712D01*
X155786912Y-70526064D01*
X155695673Y-70709295D01*
X155639654Y-70906183D01*
X155620768Y-71109999D01*
X153975300Y-71109999D01*
X153975300Y-68569999D01*
X158160768Y-68569999D01*
X158160768Y-68570000D01*
X158179654Y-68773816D01*
X158235673Y-68970704D01*
X158326912Y-69153935D01*
X158450269Y-69317287D01*
X158601537Y-69455185D01*
X158601539Y-69455187D01*
X158775569Y-69562942D01*
X158775575Y-69562945D01*
X158816010Y-69578609D01*
X158966444Y-69636888D01*
X159167653Y-69674500D01*
X159167656Y-69674500D01*
X159372344Y-69674500D01*
X159372347Y-69674500D01*
X159573556Y-69636888D01*
X159764427Y-69562944D01*
X159938462Y-69455186D01*
X160089732Y-69317285D01*
X160213088Y-69153935D01*
X160304328Y-68970701D01*
X160360345Y-68773821D01*
X160379232Y-68570000D01*
X160360345Y-68366179D01*
X160304328Y-68169299D01*
X160213088Y-67986065D01*
X160089732Y-67822715D01*
X160089730Y-67822712D01*
X159938462Y-67684814D01*
X159938460Y-67684812D01*
X159764430Y-67577057D01*
X159764424Y-67577054D01*
X159613993Y-67518777D01*
X159573556Y-67503112D01*
X159372347Y-67465500D01*
X159167653Y-67465500D01*
X158966444Y-67503112D01*
X158966441Y-67503112D01*
X158966441Y-67503113D01*
X158775575Y-67577054D01*
X158775569Y-67577057D01*
X158601539Y-67684812D01*
X158601537Y-67684814D01*
X158450269Y-67822712D01*
X158326912Y-67986064D01*
X158235673Y-68169295D01*
X158179654Y-68366183D01*
X158160768Y-68569999D01*
X153975300Y-68569999D01*
X153975300Y-66029999D01*
X155620768Y-66029999D01*
X155620768Y-66030000D01*
X155639654Y-66233816D01*
X155695673Y-66430704D01*
X155786912Y-66613935D01*
X155910269Y-66777287D01*
X156061537Y-66915185D01*
X156061539Y-66915187D01*
X156235569Y-67022942D01*
X156235575Y-67022945D01*
X156276010Y-67038609D01*
X156426444Y-67096888D01*
X156627653Y-67134500D01*
X156627656Y-67134500D01*
X156832344Y-67134500D01*
X156832347Y-67134500D01*
X157033556Y-67096888D01*
X157224427Y-67022944D01*
X157398462Y-66915186D01*
X157549732Y-66777285D01*
X157673088Y-66613935D01*
X157764328Y-66430701D01*
X157820345Y-66233821D01*
X157839232Y-66030000D01*
X157839232Y-66029999D01*
X158160768Y-66029999D01*
X158160768Y-66030000D01*
X158179654Y-66233816D01*
X158235673Y-66430704D01*
X158326912Y-66613935D01*
X158450269Y-66777287D01*
X158601537Y-66915185D01*
X158601539Y-66915187D01*
X158775569Y-67022942D01*
X158775575Y-67022945D01*
X158816010Y-67038609D01*
X158966444Y-67096888D01*
X159167653Y-67134500D01*
X159167656Y-67134500D01*
X159372344Y-67134500D01*
X159372347Y-67134500D01*
X159573556Y-67096888D01*
X159764427Y-67022944D01*
X159938462Y-66915186D01*
X160089732Y-66777285D01*
X160213088Y-66613935D01*
X160304328Y-66430701D01*
X160360345Y-66233821D01*
X160379232Y-66030000D01*
X160360345Y-65826179D01*
X160304328Y-65629299D01*
X160213088Y-65446065D01*
X160089732Y-65282715D01*
X160089730Y-65282712D01*
X159938462Y-65144814D01*
X159938460Y-65144812D01*
X159764430Y-65037057D01*
X159764424Y-65037054D01*
X159613993Y-64978777D01*
X159573556Y-64963112D01*
X159372347Y-64925500D01*
X159167653Y-64925500D01*
X158966444Y-64963112D01*
X158966441Y-64963112D01*
X158966441Y-64963113D01*
X158775575Y-65037054D01*
X158775569Y-65037057D01*
X158601539Y-65144812D01*
X158601537Y-65144814D01*
X158450269Y-65282712D01*
X158326912Y-65446064D01*
X158235673Y-65629295D01*
X158179654Y-65826183D01*
X158160768Y-66029999D01*
X157839232Y-66029999D01*
X157820345Y-65826179D01*
X157764328Y-65629299D01*
X157673088Y-65446065D01*
X157549732Y-65282715D01*
X157549730Y-65282712D01*
X157398462Y-65144814D01*
X157398460Y-65144812D01*
X157224430Y-65037057D01*
X157224424Y-65037054D01*
X157073993Y-64978777D01*
X157033556Y-64963112D01*
X156832347Y-64925500D01*
X156627653Y-64925500D01*
X156426444Y-64963112D01*
X156426441Y-64963112D01*
X156426441Y-64963113D01*
X156235575Y-65037054D01*
X156235569Y-65037057D01*
X156061539Y-65144812D01*
X156061537Y-65144814D01*
X155910269Y-65282712D01*
X155786912Y-65446064D01*
X155695673Y-65629295D01*
X155639654Y-65826183D01*
X155620768Y-66029999D01*
X153975300Y-66029999D01*
X153975300Y-63489999D01*
X158160768Y-63489999D01*
X158160768Y-63490000D01*
X158179654Y-63693816D01*
X158235673Y-63890704D01*
X158326912Y-64073935D01*
X158450269Y-64237287D01*
X158601537Y-64375185D01*
X158601539Y-64375187D01*
X158775569Y-64482942D01*
X158775575Y-64482945D01*
X158816010Y-64498609D01*
X158966444Y-64556888D01*
X159167653Y-64594500D01*
X159167656Y-64594500D01*
X159372344Y-64594500D01*
X159372347Y-64594500D01*
X159573556Y-64556888D01*
X159764427Y-64482944D01*
X159938462Y-64375186D01*
X160089732Y-64237285D01*
X160213088Y-64073935D01*
X160304328Y-63890701D01*
X160360345Y-63693821D01*
X160379232Y-63490000D01*
X160360345Y-63286179D01*
X160304328Y-63089299D01*
X160213088Y-62906065D01*
X160089732Y-62742715D01*
X160089730Y-62742712D01*
X159938462Y-62604814D01*
X159938460Y-62604812D01*
X159764430Y-62497057D01*
X159764424Y-62497054D01*
X159613993Y-62438777D01*
X159573556Y-62423112D01*
X159372347Y-62385500D01*
X159167653Y-62385500D01*
X158966444Y-62423112D01*
X158966441Y-62423112D01*
X158966441Y-62423113D01*
X158775575Y-62497054D01*
X158775569Y-62497057D01*
X158601539Y-62604812D01*
X158601537Y-62604814D01*
X158450269Y-62742712D01*
X158326912Y-62906064D01*
X158235673Y-63089295D01*
X158179654Y-63286183D01*
X158160768Y-63489999D01*
X153975300Y-63489999D01*
X153975300Y-60949999D01*
X155620768Y-60949999D01*
X155620768Y-60950000D01*
X155639654Y-61153816D01*
X155695673Y-61350704D01*
X155786912Y-61533935D01*
X155910269Y-61697287D01*
X156061537Y-61835185D01*
X156061539Y-61835187D01*
X156235569Y-61942942D01*
X156235575Y-61942945D01*
X156276010Y-61958609D01*
X156426444Y-62016888D01*
X156627653Y-62054500D01*
X156627656Y-62054500D01*
X156832344Y-62054500D01*
X156832347Y-62054500D01*
X157033556Y-62016888D01*
X157224427Y-61942944D01*
X157398462Y-61835186D01*
X157549732Y-61697285D01*
X157673088Y-61533935D01*
X157764328Y-61350701D01*
X157820345Y-61153821D01*
X157839232Y-60950000D01*
X157839232Y-60949999D01*
X158160768Y-60949999D01*
X158160768Y-60950000D01*
X158179654Y-61153816D01*
X158235673Y-61350704D01*
X158326912Y-61533935D01*
X158450269Y-61697287D01*
X158601537Y-61835185D01*
X158601539Y-61835187D01*
X158775569Y-61942942D01*
X158775575Y-61942945D01*
X158816010Y-61958609D01*
X158966444Y-62016888D01*
X159167653Y-62054500D01*
X159167656Y-62054500D01*
X159372344Y-62054500D01*
X159372347Y-62054500D01*
X159573556Y-62016888D01*
X159764427Y-61942944D01*
X159938462Y-61835186D01*
X160089732Y-61697285D01*
X160213088Y-61533935D01*
X160304328Y-61350701D01*
X160360345Y-61153821D01*
X160379232Y-60950000D01*
X160360345Y-60746179D01*
X160304328Y-60549299D01*
X160213088Y-60366065D01*
X160089732Y-60202715D01*
X160089730Y-60202712D01*
X159938462Y-60064814D01*
X159938460Y-60064812D01*
X159764430Y-59957057D01*
X159764424Y-59957054D01*
X159613993Y-59898777D01*
X159573556Y-59883112D01*
X159372347Y-59845500D01*
X159167653Y-59845500D01*
X158966444Y-59883112D01*
X158966441Y-59883112D01*
X158966441Y-59883113D01*
X158775575Y-59957054D01*
X158775569Y-59957057D01*
X158601539Y-60064812D01*
X158601537Y-60064814D01*
X158450269Y-60202712D01*
X158326912Y-60366064D01*
X158235673Y-60549295D01*
X158179654Y-60746183D01*
X158160768Y-60949999D01*
X157839232Y-60949999D01*
X157820345Y-60746179D01*
X157764328Y-60549299D01*
X157673088Y-60366065D01*
X157549732Y-60202715D01*
X157549730Y-60202712D01*
X157398462Y-60064814D01*
X157398460Y-60064812D01*
X157224430Y-59957057D01*
X157224424Y-59957054D01*
X157073993Y-59898777D01*
X157033556Y-59883112D01*
X156832347Y-59845500D01*
X156627653Y-59845500D01*
X156426444Y-59883112D01*
X156426441Y-59883112D01*
X156426441Y-59883113D01*
X156235575Y-59957054D01*
X156235569Y-59957057D01*
X156061539Y-60064812D01*
X156061537Y-60064814D01*
X155910269Y-60202712D01*
X155786912Y-60366064D01*
X155695673Y-60549295D01*
X155639654Y-60746183D01*
X155620768Y-60949999D01*
X153975300Y-60949999D01*
X153975300Y-55870000D01*
X155720640Y-55870000D01*
X155740034Y-56066914D01*
X155797474Y-56256269D01*
X155890744Y-56430764D01*
X155890748Y-56430771D01*
X156016274Y-56583725D01*
X156169228Y-56709251D01*
X156169235Y-56709255D01*
X156343730Y-56802525D01*
X156343732Y-56802525D01*
X156343735Y-56802527D01*
X156533084Y-56859965D01*
X156533083Y-56859965D01*
X156552478Y-56861875D01*
X156730000Y-56879360D01*
X156843304Y-56868200D01*
X156911950Y-56881219D01*
X156962660Y-56929283D01*
X156979335Y-56997134D01*
X156977076Y-57015791D01*
X156972500Y-57038798D01*
X156972500Y-57241199D01*
X156977076Y-57264207D01*
X156970847Y-57333798D01*
X156927983Y-57388975D01*
X156862093Y-57412218D01*
X156843304Y-57411799D01*
X156730000Y-57400640D01*
X156533085Y-57420034D01*
X156343730Y-57477474D01*
X156169235Y-57570744D01*
X156169228Y-57570748D01*
X156016274Y-57696274D01*
X155890748Y-57849228D01*
X155890744Y-57849235D01*
X155797474Y-58023730D01*
X155740034Y-58213085D01*
X155720640Y-58410000D01*
X155740034Y-58606914D01*
X155797474Y-58796269D01*
X155890744Y-58970764D01*
X155890748Y-58970771D01*
X156016274Y-59123725D01*
X156169228Y-59249251D01*
X156169235Y-59249255D01*
X156343730Y-59342525D01*
X156343732Y-59342525D01*
X156343735Y-59342527D01*
X156533084Y-59399965D01*
X156533083Y-59399965D01*
X156550739Y-59401703D01*
X156730000Y-59419360D01*
X156926916Y-59399965D01*
X157116265Y-59342527D01*
X157290770Y-59249252D01*
X157443725Y-59123725D01*
X157569252Y-58970770D01*
X157662527Y-58796265D01*
X157719965Y-58606916D01*
X157739360Y-58410000D01*
X157728200Y-58296694D01*
X157741219Y-58228049D01*
X157789283Y-58177339D01*
X157857134Y-58160664D01*
X157875794Y-58162923D01*
X157898798Y-58167499D01*
X157898799Y-58167500D01*
X157898800Y-58167500D01*
X158101200Y-58167500D01*
X158124204Y-58162924D01*
X158193794Y-58169150D01*
X158248972Y-58212012D01*
X158272218Y-58277902D01*
X158271799Y-58296694D01*
X158260640Y-58409999D01*
X158280034Y-58606914D01*
X158337474Y-58796269D01*
X158430744Y-58970764D01*
X158430748Y-58970771D01*
X158556274Y-59123725D01*
X158709228Y-59249251D01*
X158709235Y-59249255D01*
X158883730Y-59342525D01*
X158883732Y-59342525D01*
X158883735Y-59342527D01*
X159073084Y-59399965D01*
X159073083Y-59399965D01*
X159090739Y-59401703D01*
X159270000Y-59419360D01*
X159466916Y-59399965D01*
X159656265Y-59342527D01*
X159830770Y-59249252D01*
X159983725Y-59123725D01*
X160109252Y-58970770D01*
X160202527Y-58796265D01*
X160259965Y-58606916D01*
X160279360Y-58410000D01*
X160259965Y-58213084D01*
X160202527Y-58023735D01*
X160202525Y-58023732D01*
X160202525Y-58023730D01*
X160109255Y-57849235D01*
X160109251Y-57849228D01*
X159983725Y-57696274D01*
X159830771Y-57570748D01*
X159830764Y-57570744D01*
X159656269Y-57477474D01*
X159554889Y-57446721D01*
X159466916Y-57420035D01*
X159466914Y-57420034D01*
X159466916Y-57420034D01*
X159287655Y-57402378D01*
X159270000Y-57400640D01*
X159269999Y-57400640D01*
X159156694Y-57411799D01*
X159088048Y-57398780D01*
X159037338Y-57350715D01*
X159020664Y-57282864D01*
X159022924Y-57264203D01*
X159027500Y-57241199D01*
X159027500Y-57038799D01*
X159027499Y-57038795D01*
X158996155Y-56881219D01*
X158988014Y-56840289D01*
X158910559Y-56653296D01*
X158910558Y-56653295D01*
X158910555Y-56653289D01*
X158798112Y-56485007D01*
X158798109Y-56485003D01*
X158654996Y-56341890D01*
X158654992Y-56341887D01*
X158486710Y-56229444D01*
X158486701Y-56229439D01*
X158299711Y-56151986D01*
X158299703Y-56151984D01*
X158101204Y-56112500D01*
X158101200Y-56112500D01*
X157898800Y-56112500D01*
X157898799Y-56112500D01*
X157875791Y-56117076D01*
X157806200Y-56110847D01*
X157751024Y-56067983D01*
X157727781Y-56002092D01*
X157728200Y-55983303D01*
X157739360Y-55870000D01*
X157719965Y-55673084D01*
X157662527Y-55483735D01*
X157662525Y-55483732D01*
X157662525Y-55483730D01*
X157569255Y-55309235D01*
X157569251Y-55309228D01*
X157443725Y-55156274D01*
X157290771Y-55030748D01*
X157290764Y-55030744D01*
X157116269Y-54937474D01*
X157021590Y-54908754D01*
X156926916Y-54880035D01*
X156926914Y-54880034D01*
X156926916Y-54880034D01*
X156730000Y-54860640D01*
X156533085Y-54880034D01*
X156343730Y-54937474D01*
X156169235Y-55030744D01*
X156169228Y-55030748D01*
X156016274Y-55156274D01*
X155890748Y-55309228D01*
X155890744Y-55309235D01*
X155797474Y-55483730D01*
X155740034Y-55673085D01*
X155720640Y-55870000D01*
X153975300Y-55870000D01*
X153975300Y-50874857D01*
X156090700Y-50874857D01*
X156090700Y-51125142D01*
X156123367Y-51373281D01*
X156188149Y-51615048D01*
X156283921Y-51846265D01*
X156283926Y-51846274D01*
X156409069Y-52063026D01*
X156409074Y-52063032D01*
X156409075Y-52063034D01*
X156561430Y-52261588D01*
X156561436Y-52261595D01*
X156738404Y-52438563D01*
X156738410Y-52438568D01*
X156936974Y-52590931D01*
X157153726Y-52716074D01*
X157153729Y-52716075D01*
X157153734Y-52716078D01*
X157384951Y-52811850D01*
X157384953Y-52811850D01*
X157384959Y-52811853D01*
X157626715Y-52876632D01*
X157812822Y-52901133D01*
X157874857Y-52909300D01*
X157874858Y-52909300D01*
X158125143Y-52909300D01*
X158174770Y-52902766D01*
X158373285Y-52876632D01*
X158615041Y-52811853D01*
X158677425Y-52786012D01*
X158846265Y-52716078D01*
X158846266Y-52716076D01*
X158846274Y-52716074D01*
X159063026Y-52590931D01*
X159261590Y-52438568D01*
X159438568Y-52261590D01*
X159590931Y-52063026D01*
X159716074Y-51846274D01*
X159811853Y-51615041D01*
X159876632Y-51373285D01*
X159909300Y-51125142D01*
X159909300Y-50874858D01*
X159876632Y-50626715D01*
X159811853Y-50384959D01*
X159811850Y-50384951D01*
X159716078Y-50153734D01*
X159716073Y-50153725D01*
X159590931Y-49936974D01*
X159438568Y-49738410D01*
X159438563Y-49738404D01*
X159261595Y-49561436D01*
X159261588Y-49561430D01*
X159063034Y-49409075D01*
X159063032Y-49409074D01*
X159063026Y-49409069D01*
X158846274Y-49283926D01*
X158846265Y-49283921D01*
X158615048Y-49188149D01*
X158373281Y-49123367D01*
X158125143Y-49090700D01*
X158125142Y-49090700D01*
X157874858Y-49090700D01*
X157874857Y-49090700D01*
X157626718Y-49123367D01*
X157384951Y-49188149D01*
X157153734Y-49283921D01*
X157153725Y-49283926D01*
X156936974Y-49409069D01*
X156936965Y-49409075D01*
X156738411Y-49561430D01*
X156738404Y-49561436D01*
X156561436Y-49738404D01*
X156561430Y-49738411D01*
X156409075Y-49936965D01*
X156409069Y-49936974D01*
X156283926Y-50153725D01*
X156283921Y-50153734D01*
X156188149Y-50384951D01*
X156123367Y-50626718D01*
X156090700Y-50874857D01*
X153975300Y-50874857D01*
X153975300Y-49561031D01*
X153975566Y-49552920D01*
X153984996Y-49409069D01*
X153991716Y-49306553D01*
X153993833Y-49290477D01*
X154041211Y-49052302D01*
X154045402Y-49036657D01*
X154123467Y-48806693D01*
X154129668Y-48791722D01*
X154237082Y-48573912D01*
X154245176Y-48559893D01*
X154380105Y-48357962D01*
X154389971Y-48345106D01*
X154534137Y-48180718D01*
X154550087Y-48162530D01*
X154561545Y-48151072D01*
X154744138Y-47990944D01*
X154756969Y-47981099D01*
X154958914Y-47846164D01*
X154972932Y-47838071D01*
X155190751Y-47730656D01*
X155205706Y-47724462D01*
X155435674Y-47646399D01*
X155451321Y-47642206D01*
X155689504Y-47594829D01*
X155705558Y-47592714D01*
X155952386Y-47576536D01*
X155960492Y-47576272D01*
X156023911Y-47576272D01*
X160384063Y-47576272D01*
X160384067Y-47576273D01*
G37*
%TD.AperFunction*%
%TD*%
M02*
