%TF.GenerationSoftware,KiCad,Pcbnew,8.0.3-8.0.3-0~ubuntu22.04.1*%
%TF.CreationDate,2024-07-14T15:19:41-07:00*%
%TF.ProjectId,NX-IndicatorBoard,4e582d49-6e64-4696-9361-746f72426f61,2*%
%TF.SameCoordinates,Original*%
%TF.FileFunction,Copper,L2,Inr*%
%TF.FilePolarity,Positive*%
%FSLAX46Y46*%
G04 Gerber Fmt 4.6, Leading zero omitted, Abs format (unit mm)*
G04 Created by KiCad (PCBNEW 8.0.3-8.0.3-0~ubuntu22.04.1) date 2024-07-14 15:19:41*
%MOMM*%
%LPD*%
G01*
G04 APERTURE LIST*
%ADD10C,0.187500*%
%TA.AperFunction,NonConductor*%
%ADD11C,0.187500*%
%TD*%
%TA.AperFunction,ComponentPad*%
%ADD12C,1.000000*%
%TD*%
%TA.AperFunction,ComponentPad*%
%ADD13C,1.700000*%
%TD*%
%TA.AperFunction,ComponentPad*%
%ADD14R,1.778000X1.778000*%
%TD*%
%TA.AperFunction,ComponentPad*%
%ADD15C,1.778000*%
%TD*%
%TA.AperFunction,ComponentPad*%
%ADD16C,5.400000*%
%TD*%
%TA.AperFunction,ComponentPad*%
%ADD17R,1.905000X1.600200*%
%TD*%
%TA.AperFunction,ComponentPad*%
%ADD18O,1.905000X1.600200*%
%TD*%
%TA.AperFunction,ViaPad*%
%ADD19C,0.889000*%
%TD*%
%TA.AperFunction,Conductor*%
%ADD20C,0.304800*%
%TD*%
G04 APERTURE END LIST*
D10*
D11*
X28877697Y-58861678D02*
X28877697Y-57361678D01*
X29591983Y-57861678D02*
X29591983Y-58861678D01*
X29591983Y-58004535D02*
X29663412Y-57933107D01*
X29663412Y-57933107D02*
X29806269Y-57861678D01*
X29806269Y-57861678D02*
X30020555Y-57861678D01*
X30020555Y-57861678D02*
X30163412Y-57933107D01*
X30163412Y-57933107D02*
X30234841Y-58075964D01*
X30234841Y-58075964D02*
X30234841Y-58861678D01*
X31734841Y-58861678D02*
X30877698Y-58861678D01*
X31306269Y-58861678D02*
X31306269Y-57361678D01*
X31306269Y-57361678D02*
X31163412Y-57575964D01*
X31163412Y-57575964D02*
X31020555Y-57718821D01*
X31020555Y-57718821D02*
X30877698Y-57790250D01*
X32377697Y-58718821D02*
X32449126Y-58790250D01*
X32449126Y-58790250D02*
X32377697Y-58861678D01*
X32377697Y-58861678D02*
X32306269Y-58790250D01*
X32306269Y-58790250D02*
X32377697Y-58718821D01*
X32377697Y-58718821D02*
X32377697Y-58861678D01*
X33949126Y-58718821D02*
X33877698Y-58790250D01*
X33877698Y-58790250D02*
X33663412Y-58861678D01*
X33663412Y-58861678D02*
X33520555Y-58861678D01*
X33520555Y-58861678D02*
X33306269Y-58790250D01*
X33306269Y-58790250D02*
X33163412Y-58647392D01*
X33163412Y-58647392D02*
X33091983Y-58504535D01*
X33091983Y-58504535D02*
X33020555Y-58218821D01*
X33020555Y-58218821D02*
X33020555Y-58004535D01*
X33020555Y-58004535D02*
X33091983Y-57718821D01*
X33091983Y-57718821D02*
X33163412Y-57575964D01*
X33163412Y-57575964D02*
X33306269Y-57433107D01*
X33306269Y-57433107D02*
X33520555Y-57361678D01*
X33520555Y-57361678D02*
X33663412Y-57361678D01*
X33663412Y-57361678D02*
X33877698Y-57433107D01*
X33877698Y-57433107D02*
X33949126Y-57504535D01*
X35234841Y-57861678D02*
X35234841Y-58861678D01*
X34591983Y-57861678D02*
X34591983Y-58647392D01*
X34591983Y-58647392D02*
X34663412Y-58790250D01*
X34663412Y-58790250D02*
X34806269Y-58861678D01*
X34806269Y-58861678D02*
X35020555Y-58861678D01*
X35020555Y-58861678D02*
X35163412Y-58790250D01*
X35163412Y-58790250D02*
X35234841Y-58718821D01*
D12*
%TO.N,Net-(U2-CLKO{slash}SOF)*%
%TO.C,TP1*%
X108204000Y-106299000D03*
%TD*%
D13*
%TO.N,+3V3*%
%TO.C,J1*%
X159270000Y-104130000D03*
%TO.N,+5V*%
X156730000Y-104130000D03*
%TO.N,/I2C1_SDA*%
X159270000Y-101590000D03*
%TO.N,+5V*%
X156730000Y-101590000D03*
%TO.N,/I2C1_SCL*%
X159270000Y-99050000D03*
%TO.N,GND*%
X156730000Y-99050000D03*
%TO.N,/GPIO09*%
X159270000Y-96510000D03*
%TO.N,/UART1_TXD*%
X156730000Y-96510000D03*
%TO.N,GND*%
X159270000Y-93970000D03*
%TO.N,/UART1_RXD*%
X156730000Y-93970000D03*
%TO.N,/UART1_RTS*%
X159270000Y-91430000D03*
%TO.N,/I2S0_SCLK*%
X156730000Y-91430000D03*
%TO.N,/SPI1_SCK*%
X159270000Y-88890000D03*
%TO.N,GND*%
X156730000Y-88890000D03*
%TO.N,/GPIO12*%
X159270000Y-86350000D03*
%TO.N,/SPI1_CS1*%
X156730000Y-86350000D03*
%TO.N,+3V3*%
X159270000Y-83810000D03*
%TO.N,/SPI1_CS0*%
X156730000Y-83810000D03*
%TO.N,/SPI0_MOSI*%
X159270000Y-81270000D03*
%TO.N,GND*%
X156730000Y-81270000D03*
%TO.N,/SPI0_MISO*%
X159270000Y-78730000D03*
%TO.N,/SPI1_MISO*%
X156730000Y-78730000D03*
%TO.N,/SPI0_SCK*%
X159270000Y-76190000D03*
%TO.N,/SPI0_CS0*%
X156730000Y-76190000D03*
%TO.N,GND*%
X159270000Y-73650000D03*
%TO.N,/SPI0_CS1*%
X156730000Y-73650000D03*
%TO.N,/I2C0_SDA*%
X159270000Y-71110000D03*
%TO.N,/I2C0_SCL*%
X156730000Y-71110000D03*
%TO.N,/GPIO01*%
X159270000Y-68570000D03*
%TO.N,GND*%
X156730000Y-68570000D03*
%TO.N,/GPIO11*%
X159270000Y-66030000D03*
%TO.N,/GPIO07*%
X156730000Y-66030000D03*
%TO.N,/GPIO13*%
X159270000Y-63490000D03*
%TO.N,GND*%
X156730000Y-63490000D03*
%TO.N,/I2S0_FS*%
X159270000Y-60950000D03*
%TO.N,/UART1_CTS*%
X156730000Y-60950000D03*
%TO.N,/SPI1_MOSI*%
X159270000Y-58410000D03*
%TO.N,/I2S0_DIN*%
X156730000Y-58410000D03*
%TO.N,GND*%
X159270000Y-55870000D03*
%TO.N,/I2S0_DOUT*%
X156730000Y-55870000D03*
%TD*%
D14*
%TO.N,/CAN1_L*%
%TO.C,J2*%
X110236000Y-112903000D03*
D15*
%TO.N,/CAN1_H*%
X107696000Y-112903000D03*
%TD*%
D12*
%TO.N,Net-(U3-CLKO{slash}SOF)*%
%TO.C,TP2*%
X131064000Y-106299000D03*
%TD*%
D16*
%TO.N,N/C*%
%TO.C,H2*%
X158000000Y-51000000D03*
%TD*%
D14*
%TO.N,/CAN2_L*%
%TO.C,J5*%
X143230600Y-112903000D03*
D15*
%TO.N,/CAN2_H*%
X140690600Y-112903000D03*
%TD*%
D16*
%TO.N,N/C*%
%TO.C,H1*%
X152000000Y-51000000D03*
%TD*%
%TO.N,N/C*%
%TO.C,H4*%
X152000000Y-109000000D03*
%TD*%
%TO.N,N/C*%
%TO.C,H3*%
X66000000Y-109000000D03*
%TD*%
%TO.N,N/C*%
%TO.C,H5*%
X158000000Y-109000000D03*
%TD*%
D14*
%TO.N,/CAN1_L*%
%TO.C,J3*%
X120396000Y-112903000D03*
D15*
%TO.N,/CAN1_H*%
X117856000Y-112903000D03*
%TD*%
D14*
%TO.N,/CAN2_L*%
%TO.C,J4*%
X133096000Y-112903000D03*
D15*
%TO.N,/CAN2_H*%
X130556000Y-112903000D03*
%TD*%
D17*
%TO.N,/NX_PC_LED-*%
%TO.C,J6*%
X59317800Y-119786400D03*
D18*
%TO.N,/NX_PC_LED+*%
X59317800Y-117246400D03*
%TD*%
D19*
%TO.N,+3V3*%
X137922000Y-106680000D03*
X104140000Y-110744000D03*
X145542000Y-105410000D03*
X131470400Y-99820428D03*
X109169200Y-108127800D03*
X109677200Y-100355400D03*
X92862400Y-100253800D03*
X145542000Y-104140000D03*
X131953000Y-108077000D03*
X89585800Y-104013000D03*
X126974600Y-110794800D03*
X115062000Y-106629200D03*
%TO.N,GND*%
X89636600Y-102743000D03*
X92202000Y-118897400D03*
X118110000Y-110286800D03*
X130759200Y-109220000D03*
X130784600Y-107721400D03*
X114884200Y-103047800D03*
X92887800Y-124815600D03*
X107899200Y-109194600D03*
X76428600Y-118770400D03*
X113030000Y-110515400D03*
X135890000Y-110490000D03*
X107924600Y-107848400D03*
X137668000Y-104521000D03*
X86106000Y-112826800D03*
X137668000Y-102997000D03*
X108610400Y-103697600D03*
X77139800Y-124688600D03*
X91833764Y-112877600D03*
X107924600Y-110794800D03*
X92862400Y-96367600D03*
X140868400Y-110490000D03*
X104063800Y-109220000D03*
X85979000Y-118897400D03*
X96113600Y-92608400D03*
X131851400Y-103697600D03*
X126949200Y-109220000D03*
X130962400Y-110820200D03*
X85039200Y-124688600D03*
X99110800Y-104038400D03*
X137922000Y-110490000D03*
%TO.N,+5V*%
X126949200Y-107696000D03*
X105695540Y-106599768D03*
X104063800Y-107746800D03*
X128524000Y-106553000D03*
%TO.N,Net-(D11-A)*%
X94132400Y-118922800D03*
%TO.N,Net-(D5-A)*%
X91338400Y-106984800D03*
%TO.N,Net-(D8-A)*%
X93954600Y-112928400D03*
%TO.N,/GPIO09*%
X111884613Y-105838916D03*
X126837460Y-92608400D03*
X143662400Y-101701600D03*
%TO.N,/UART1_TXD*%
X138756424Y-94034576D03*
%TO.N,/UART1_RXD*%
X140030200Y-92887800D03*
%TO.N,/UART1_RTS*%
X142087600Y-93006164D03*
X108712000Y-94488000D03*
X113919000Y-93878400D03*
%TO.N,/I2S0_SCLK*%
X110358222Y-93645022D03*
X112090200Y-95453200D03*
X145110200Y-92532200D03*
%TO.N,/GPIO12*%
X129184400Y-95288100D03*
X128232760Y-100190300D03*
%TO.N,/SPI0_MOSI*%
X152234900Y-82727800D03*
%TO.N,/SPI0_MISO*%
X152234900Y-80721200D03*
%TO.N,/SPI1_MISO*%
X134654054Y-99496128D03*
%TO.N,/SPI0_SCK*%
X152815700Y-74076667D03*
%TO.N,/SPI1_CS0*%
X133550159Y-99199700D03*
%TO.N,/GPIO01*%
X134902006Y-105740633D03*
%TO.N,/GPIO11*%
X152679400Y-71120000D03*
X147400978Y-95127778D03*
X146964400Y-100317300D03*
%TO.N,/GPIO07*%
X124129800Y-100342700D03*
%TO.N,/GPIO13*%
X145364200Y-95567500D03*
X145745200Y-101612700D03*
X152793700Y-65354200D03*
%TO.N,/I2S0_FS*%
X104805988Y-94341188D03*
X110464600Y-97256600D03*
X136696450Y-95262700D03*
%TO.N,/UART1_CTS*%
X123190000Y-92887800D03*
%TO.N,/I2S0_DIN*%
X108762800Y-92557600D03*
X116027200Y-95427800D03*
X141097000Y-95427800D03*
%TO.N,/I2S0_DOUT*%
X103149400Y-95224600D03*
%TO.N,/SPI0_CS0*%
X152234900Y-76733400D03*
%TO.N,Net-(U1-B2)*%
X89763600Y-98907600D03*
%TO.N,Net-(U1-B1)*%
X89890600Y-100152200D03*
%TO.N,Net-(U1-B0)*%
X89789000Y-101498400D03*
%TO.N,/SPI-CAN-FD1/CANTX*%
X106781600Y-106243500D03*
X107111800Y-104541700D03*
%TO.N,/SPI-CAN-FD2/CANTX*%
X129624300Y-106243500D03*
X129743200Y-104541700D03*
%TD*%
D20*
%TO.N,/GPIO09*%
X126837460Y-92608400D02*
X135331200Y-92608400D01*
X143637000Y-101676200D02*
X143662400Y-101701600D01*
X143637000Y-100914200D02*
X143637000Y-101676200D01*
X135331200Y-92608400D02*
X143637000Y-100914200D01*
%TO.N,/UART1_TXD*%
X139260648Y-94538800D02*
X146786601Y-94538800D01*
X146786601Y-94538800D02*
X147048523Y-94276878D01*
X154496878Y-94276878D02*
X156730000Y-96510000D01*
X138756424Y-94034576D02*
X139260648Y-94538800D01*
X147048523Y-94276878D02*
X154496878Y-94276878D01*
%TO.N,/UART1_RXD*%
X156478078Y-93718078D02*
X146565922Y-93718078D01*
X141126464Y-93984064D02*
X140030200Y-92887800D01*
X146565922Y-93718078D02*
X146299936Y-93984064D01*
X146299936Y-93984064D02*
X141126464Y-93984064D01*
X156730000Y-93970000D02*
X156478078Y-93718078D01*
%TO.N,/UART1_RTS*%
X149783800Y-93065600D02*
X146265900Y-93065600D01*
X159270000Y-91430000D02*
X158013600Y-92686400D01*
X146265900Y-93065600D02*
X145910300Y-93421200D01*
X145910300Y-93421200D02*
X142502636Y-93421200D01*
X158013600Y-92686400D02*
X150163000Y-92686400D01*
X150163000Y-92686400D02*
X149783800Y-93065600D01*
X142502636Y-93421200D02*
X142087600Y-93006164D01*
%TO.N,/I2S0_SCLK*%
X149254974Y-92451426D02*
X145190974Y-92451426D01*
X156730000Y-91430000D02*
X150276400Y-91430000D01*
X145190974Y-92451426D02*
X145110200Y-92532200D01*
X150276400Y-91430000D02*
X149254974Y-92451426D01*
%TO.N,/GPIO12*%
X149098000Y-91668600D02*
X126390400Y-91668600D01*
X128163120Y-95288100D02*
X129184400Y-95288100D01*
X126390400Y-91668600D02*
X125986560Y-92072440D01*
X125986560Y-92072440D02*
X125986560Y-93111540D01*
X159270000Y-86350000D02*
X158013600Y-87606400D01*
X153160200Y-87606400D02*
X149098000Y-91668600D01*
X125986560Y-93111540D02*
X128163120Y-95288100D01*
X158013600Y-87606400D02*
X153160200Y-87606400D01*
%TO.N,/SPI0_MOSI*%
X152436300Y-82526400D02*
X158013600Y-82526400D01*
X158013600Y-82526400D02*
X159270000Y-81270000D01*
X152234900Y-82727800D02*
X152436300Y-82526400D01*
%TO.N,/SPI0_MISO*%
X152234900Y-80721200D02*
X152969700Y-79986400D01*
X158013600Y-79986400D02*
X159270000Y-78730000D01*
X152969700Y-79986400D02*
X158013600Y-79986400D01*
%TO.N,/SPI0_SCK*%
X153076167Y-74076667D02*
X152815700Y-74076667D01*
X159270000Y-76190000D02*
X158013600Y-74933600D01*
X153933100Y-74933600D02*
X153076167Y-74076667D01*
X158013600Y-74933600D02*
X153933100Y-74933600D01*
%TO.N,/GPIO11*%
X146964400Y-95564356D02*
X146964400Y-100317300D01*
X157986400Y-67313600D02*
X156209582Y-67313600D01*
X156209582Y-67313600D02*
X152679400Y-70843782D01*
X159270000Y-66030000D02*
X157986400Y-67313600D01*
X147400978Y-95127778D02*
X146964400Y-95564356D01*
X152679400Y-70843782D02*
X152679400Y-71120000D01*
%TO.N,/GPIO13*%
X145364200Y-95631000D02*
X144195800Y-96799400D01*
X145364200Y-95567500D02*
X145364200Y-95631000D01*
X144195800Y-96799400D02*
X144195800Y-100063300D01*
X144195800Y-100063300D02*
X145745200Y-101612700D01*
%TO.N,/SPI0_CS0*%
X152234900Y-76733400D02*
X153500745Y-76733400D01*
X153500745Y-76733400D02*
X154044145Y-76190000D01*
X154044145Y-76190000D02*
X156730000Y-76190000D01*
%TD*%
%TA.AperFunction,Conductor*%
%TO.N,+3V3*%
G36*
X109720735Y-97301685D02*
G01*
X109766490Y-97354489D01*
X109776792Y-97391055D01*
X109780926Y-97425106D01*
X109780927Y-97425113D01*
X109841120Y-97583827D01*
X109937548Y-97723527D01*
X109937550Y-97723529D01*
X109937552Y-97723531D01*
X110064604Y-97836090D01*
X110064606Y-97836091D01*
X110214911Y-97914977D01*
X110379726Y-97955600D01*
X110549474Y-97955600D01*
X110714289Y-97914977D01*
X110864594Y-97836091D01*
X110991652Y-97723527D01*
X111088080Y-97583827D01*
X111148273Y-97425110D01*
X111152408Y-97391054D01*
X111180029Y-97326876D01*
X111237963Y-97287819D01*
X111275504Y-97282000D01*
X139377994Y-97282000D01*
X139445033Y-97301685D01*
X139465675Y-97318319D01*
X143173003Y-101025647D01*
X143206488Y-101086970D01*
X143201504Y-101156662D01*
X143167552Y-101206141D01*
X143135350Y-101234670D01*
X143135346Y-101234675D01*
X143038921Y-101374371D01*
X143038920Y-101374372D01*
X142978727Y-101533086D01*
X142978726Y-101533091D01*
X142958266Y-101701600D01*
X142978726Y-101870108D01*
X142978727Y-101870113D01*
X143036136Y-102021486D01*
X143038920Y-102028827D01*
X143135348Y-102168527D01*
X143135350Y-102168529D01*
X143135352Y-102168531D01*
X143262404Y-102281090D01*
X143262406Y-102281091D01*
X143412711Y-102359977D01*
X143577526Y-102400600D01*
X143747274Y-102400600D01*
X143912089Y-102359977D01*
X144062394Y-102281091D01*
X144189452Y-102168527D01*
X144285880Y-102028827D01*
X144346073Y-101870110D01*
X144366534Y-101701600D01*
X144346073Y-101533090D01*
X144326679Y-101481954D01*
X144321313Y-101412292D01*
X144354460Y-101350786D01*
X144415598Y-101316965D01*
X144485316Y-101321566D01*
X144530303Y-101350303D01*
X145117746Y-101937746D01*
X145132115Y-101954987D01*
X145218148Y-102079627D01*
X145218150Y-102079629D01*
X145218152Y-102079631D01*
X145345204Y-102192190D01*
X145345206Y-102192191D01*
X145385288Y-102213227D01*
X145415342Y-102235342D01*
X146267681Y-103087681D01*
X146301166Y-103149004D01*
X146304000Y-103175362D01*
X146304000Y-111888135D01*
X146284315Y-111955174D01*
X146231511Y-112000929D01*
X146178149Y-112012121D01*
X144470136Y-111986628D01*
X144403398Y-111965945D01*
X144367869Y-111923684D01*
X144366119Y-111924854D01*
X144303084Y-111830515D01*
X144231252Y-111782519D01*
X144218901Y-111774266D01*
X144218899Y-111774265D01*
X144218896Y-111774264D01*
X144144669Y-111759500D01*
X142316536Y-111759500D01*
X142242298Y-111774266D01*
X142158114Y-111830516D01*
X142115148Y-111894819D01*
X142061535Y-111939623D01*
X142010196Y-111949913D01*
X141340797Y-111939921D01*
X141277371Y-111921362D01*
X141202488Y-111874996D01*
X141202482Y-111874993D01*
X141041394Y-111812588D01*
X141004874Y-111798440D01*
X140796561Y-111759500D01*
X140584639Y-111759500D01*
X140376326Y-111798440D01*
X140376323Y-111798440D01*
X140376323Y-111798441D01*
X140178717Y-111874993D01*
X140178708Y-111874998D01*
X140134521Y-111902357D01*
X140067395Y-111920915D01*
X134208693Y-111833472D01*
X134141955Y-111812789D01*
X134141653Y-111812588D01*
X134084300Y-111774265D01*
X134084296Y-111774264D01*
X134010069Y-111759500D01*
X132181936Y-111759500D01*
X132137473Y-111768343D01*
X132107699Y-111774266D01*
X132107698Y-111774266D01*
X132107696Y-111774267D01*
X132099042Y-111780049D01*
X132032364Y-111800923D01*
X132028306Y-111800929D01*
X130794822Y-111782519D01*
X130773889Y-111780422D01*
X130699923Y-111766596D01*
X130661961Y-111759500D01*
X130450039Y-111759500D01*
X130450037Y-111759500D01*
X130373700Y-111773769D01*
X130349067Y-111775866D01*
X129408150Y-111761823D01*
X129341411Y-111741140D01*
X129296449Y-111687659D01*
X129286000Y-111637837D01*
X129286000Y-107038310D01*
X129305685Y-106971271D01*
X129358489Y-106925516D01*
X129427647Y-106915572D01*
X129439657Y-106917909D01*
X129539426Y-106942500D01*
X129539428Y-106942500D01*
X129709174Y-106942500D01*
X129873989Y-106901877D01*
X130024294Y-106822991D01*
X130151352Y-106710427D01*
X130191057Y-106652903D01*
X130245338Y-106608915D01*
X130314787Y-106601255D01*
X130377352Y-106632358D01*
X130398098Y-106657371D01*
X130406343Y-106670492D01*
X130470376Y-106772400D01*
X130564018Y-106866042D01*
X130597503Y-106927365D01*
X130592519Y-106997057D01*
X130550647Y-107052990D01*
X130533963Y-107063519D01*
X130384607Y-107141907D01*
X130384605Y-107141909D01*
X130257552Y-107254468D01*
X130257546Y-107254475D01*
X130161121Y-107394171D01*
X130161120Y-107394172D01*
X130100927Y-107552886D01*
X130100926Y-107552891D01*
X130080466Y-107721400D01*
X130100926Y-107889908D01*
X130100927Y-107889913D01*
X130151487Y-108023227D01*
X130161120Y-108048627D01*
X130257548Y-108188327D01*
X130257550Y-108188329D01*
X130257552Y-108188331D01*
X130384604Y-108300890D01*
X130384606Y-108300891D01*
X130486251Y-108354238D01*
X130536463Y-108402821D01*
X130552438Y-108470840D01*
X130529103Y-108536698D01*
X130486251Y-108573830D01*
X130359206Y-108640508D01*
X130359205Y-108640509D01*
X130232152Y-108753068D01*
X130232146Y-108753075D01*
X130135721Y-108892771D01*
X130135720Y-108892772D01*
X130075527Y-109051486D01*
X130075526Y-109051491D01*
X130055066Y-109220000D01*
X130075526Y-109388508D01*
X130075527Y-109388513D01*
X130126087Y-109521827D01*
X130135720Y-109547227D01*
X130232148Y-109686927D01*
X130232150Y-109686929D01*
X130232152Y-109686931D01*
X130359204Y-109799490D01*
X130359206Y-109799491D01*
X130509511Y-109878377D01*
X130674326Y-109919000D01*
X130676650Y-109919000D01*
X130678288Y-109919481D01*
X130681771Y-109919904D01*
X130681700Y-109920483D01*
X130743689Y-109938685D01*
X130789444Y-109991489D01*
X130799388Y-110060647D01*
X130770363Y-110124203D01*
X130718991Y-110157217D01*
X130719729Y-110159161D01*
X130712714Y-110161821D01*
X130562404Y-110240709D01*
X130435352Y-110353268D01*
X130435346Y-110353275D01*
X130338921Y-110492971D01*
X130338920Y-110492972D01*
X130278727Y-110651686D01*
X130278726Y-110651691D01*
X130258266Y-110820200D01*
X130278726Y-110988708D01*
X130278727Y-110988713D01*
X130329287Y-111122027D01*
X130338920Y-111147427D01*
X130435348Y-111287127D01*
X130435350Y-111287129D01*
X130435352Y-111287131D01*
X130562404Y-111399690D01*
X130562406Y-111399691D01*
X130712711Y-111478577D01*
X130877526Y-111519200D01*
X131047274Y-111519200D01*
X131212089Y-111478577D01*
X131362394Y-111399691D01*
X131489452Y-111287127D01*
X131585880Y-111147427D01*
X131646073Y-110988710D01*
X131666534Y-110820200D01*
X131646073Y-110651690D01*
X131646072Y-110651688D01*
X131646072Y-110651686D01*
X131594385Y-110515400D01*
X131585880Y-110492973D01*
X131583828Y-110490000D01*
X135185866Y-110490000D01*
X135206326Y-110658508D01*
X135206327Y-110658513D01*
X135266520Y-110817227D01*
X135362948Y-110956927D01*
X135362950Y-110956929D01*
X135362952Y-110956931D01*
X135490004Y-111069490D01*
X135490006Y-111069491D01*
X135640311Y-111148377D01*
X135805126Y-111189000D01*
X135974874Y-111189000D01*
X136139689Y-111148377D01*
X136289994Y-111069491D01*
X136417052Y-110956927D01*
X136513480Y-110817227D01*
X136573673Y-110658510D01*
X136594134Y-110490000D01*
X137217866Y-110490000D01*
X137238326Y-110658508D01*
X137238327Y-110658513D01*
X137298520Y-110817227D01*
X137394948Y-110956927D01*
X137394950Y-110956929D01*
X137394952Y-110956931D01*
X137522004Y-111069490D01*
X137522006Y-111069491D01*
X137672311Y-111148377D01*
X137837126Y-111189000D01*
X138006874Y-111189000D01*
X138171689Y-111148377D01*
X138321994Y-111069491D01*
X138449052Y-110956927D01*
X138545480Y-110817227D01*
X138605673Y-110658510D01*
X138626134Y-110490000D01*
X140164266Y-110490000D01*
X140184726Y-110658508D01*
X140184727Y-110658513D01*
X140244920Y-110817227D01*
X140341348Y-110956927D01*
X140341350Y-110956929D01*
X140341352Y-110956931D01*
X140468404Y-111069490D01*
X140468406Y-111069491D01*
X140618711Y-111148377D01*
X140783526Y-111189000D01*
X140953274Y-111189000D01*
X141118089Y-111148377D01*
X141268394Y-111069491D01*
X141395452Y-110956927D01*
X141491880Y-110817227D01*
X141552073Y-110658510D01*
X141572534Y-110490000D01*
X141552073Y-110321490D01*
X141552072Y-110321488D01*
X141552072Y-110321486D01*
X141511804Y-110215309D01*
X141491880Y-110162773D01*
X141395452Y-110023073D01*
X141395449Y-110023070D01*
X141395447Y-110023068D01*
X141268395Y-109910509D01*
X141118087Y-109831622D01*
X140953274Y-109791000D01*
X140783526Y-109791000D01*
X140618712Y-109831622D01*
X140468404Y-109910509D01*
X140341352Y-110023068D01*
X140341346Y-110023075D01*
X140244921Y-110162771D01*
X140244920Y-110162772D01*
X140184727Y-110321486D01*
X140184726Y-110321491D01*
X140164266Y-110490000D01*
X138626134Y-110490000D01*
X138605673Y-110321490D01*
X138605672Y-110321488D01*
X138605672Y-110321486D01*
X138565404Y-110215309D01*
X138545480Y-110162773D01*
X138449052Y-110023073D01*
X138449049Y-110023070D01*
X138449047Y-110023068D01*
X138321995Y-109910509D01*
X138171687Y-109831622D01*
X138006874Y-109791000D01*
X137837126Y-109791000D01*
X137672312Y-109831622D01*
X137522004Y-109910509D01*
X137394952Y-110023068D01*
X137394946Y-110023075D01*
X137298521Y-110162771D01*
X137298520Y-110162772D01*
X137238327Y-110321486D01*
X137238326Y-110321491D01*
X137217866Y-110490000D01*
X136594134Y-110490000D01*
X136573673Y-110321490D01*
X136573672Y-110321488D01*
X136573672Y-110321486D01*
X136533404Y-110215309D01*
X136513480Y-110162773D01*
X136417052Y-110023073D01*
X136417049Y-110023070D01*
X136417047Y-110023068D01*
X136289995Y-109910509D01*
X136139687Y-109831622D01*
X135974874Y-109791000D01*
X135805126Y-109791000D01*
X135640312Y-109831622D01*
X135490004Y-109910509D01*
X135362952Y-110023068D01*
X135362946Y-110023075D01*
X135266521Y-110162771D01*
X135266520Y-110162772D01*
X135206327Y-110321486D01*
X135206326Y-110321491D01*
X135185866Y-110490000D01*
X131583828Y-110490000D01*
X131489452Y-110353273D01*
X131489449Y-110353270D01*
X131489447Y-110353268D01*
X131362395Y-110240709D01*
X131212087Y-110161822D01*
X131047274Y-110121200D01*
X131044950Y-110121200D01*
X131043311Y-110120718D01*
X131039829Y-110120296D01*
X131039899Y-110119716D01*
X130977911Y-110101515D01*
X130932156Y-110048711D01*
X130922212Y-109979553D01*
X130951237Y-109915997D01*
X131002608Y-109882982D01*
X131001871Y-109881039D01*
X131008885Y-109878378D01*
X131008885Y-109878377D01*
X131008889Y-109878377D01*
X131159194Y-109799491D01*
X131286252Y-109686927D01*
X131382680Y-109547227D01*
X131442873Y-109388510D01*
X131463334Y-109220000D01*
X131442873Y-109051490D01*
X131442872Y-109051488D01*
X131442872Y-109051486D01*
X131414094Y-108975605D01*
X131382680Y-108892773D01*
X131286252Y-108753073D01*
X131286249Y-108753070D01*
X131286247Y-108753068D01*
X131159195Y-108640509D01*
X131092918Y-108605725D01*
X131057548Y-108587161D01*
X131007336Y-108538577D01*
X130991361Y-108470558D01*
X131014696Y-108404700D01*
X131057545Y-108367571D01*
X131184594Y-108300891D01*
X131311652Y-108188327D01*
X131408080Y-108048627D01*
X131468273Y-107889910D01*
X131488734Y-107721400D01*
X131468273Y-107552890D01*
X131468272Y-107552888D01*
X131468272Y-107552886D01*
X131429906Y-107451724D01*
X131408080Y-107394173D01*
X131311652Y-107254473D01*
X131311649Y-107254470D01*
X131311647Y-107254468D01*
X131273331Y-107220523D01*
X131236204Y-107161334D01*
X131236972Y-107091468D01*
X131275390Y-107033109D01*
X131314601Y-107010667D01*
X131393437Y-106983082D01*
X131537400Y-106892624D01*
X131657624Y-106772400D01*
X131748082Y-106628437D01*
X131804237Y-106467954D01*
X131804237Y-106467953D01*
X131804238Y-106467951D01*
X131823274Y-106299002D01*
X131823274Y-106298997D01*
X131804238Y-106130048D01*
X131762252Y-106010060D01*
X131748082Y-105969563D01*
X131657624Y-105825600D01*
X131572657Y-105740633D01*
X134197872Y-105740633D01*
X134218332Y-105909141D01*
X134218333Y-105909146D01*
X134260480Y-106020277D01*
X134278526Y-106067860D01*
X134374954Y-106207560D01*
X134374956Y-106207562D01*
X134374958Y-106207564D01*
X134502010Y-106320123D01*
X134502012Y-106320124D01*
X134652317Y-106399010D01*
X134817132Y-106439633D01*
X134986880Y-106439633D01*
X135151695Y-106399010D01*
X135302000Y-106320124D01*
X135429058Y-106207560D01*
X135525486Y-106067860D01*
X135583195Y-105915692D01*
X135585678Y-105909146D01*
X135585679Y-105909141D01*
X135586696Y-105900768D01*
X135606140Y-105740633D01*
X135585679Y-105572123D01*
X135585678Y-105572121D01*
X135585678Y-105572119D01*
X135558326Y-105499999D01*
X135525486Y-105413406D01*
X135429058Y-105273706D01*
X135429055Y-105273703D01*
X135429053Y-105273701D01*
X135302001Y-105161142D01*
X135151693Y-105082255D01*
X134986880Y-105041633D01*
X134817132Y-105041633D01*
X134652318Y-105082255D01*
X134502010Y-105161142D01*
X134374958Y-105273701D01*
X134374952Y-105273708D01*
X134278527Y-105413404D01*
X134278526Y-105413405D01*
X134218333Y-105572119D01*
X134218332Y-105572124D01*
X134197872Y-105740633D01*
X131572657Y-105740633D01*
X131537400Y-105705376D01*
X131393437Y-105614918D01*
X131354912Y-105601437D01*
X131232951Y-105558761D01*
X131064003Y-105539726D01*
X131063997Y-105539726D01*
X130895048Y-105558761D01*
X130734560Y-105614919D01*
X130590599Y-105705376D01*
X130470376Y-105825599D01*
X130470374Y-105825602D01*
X130434609Y-105882521D01*
X130382274Y-105928812D01*
X130313220Y-105939459D01*
X130249372Y-105911083D01*
X130227566Y-105886988D01*
X130151353Y-105776575D01*
X130151352Y-105776573D01*
X130151349Y-105776570D01*
X130151347Y-105776568D01*
X130024295Y-105664009D01*
X129873987Y-105585122D01*
X129709174Y-105544500D01*
X129539426Y-105544500D01*
X129374612Y-105585122D01*
X129251384Y-105649797D01*
X129193759Y-105664000D01*
X125730000Y-105664000D01*
X125730000Y-108712000D01*
X126215476Y-108712000D01*
X126282515Y-108731685D01*
X126328270Y-108784489D01*
X126338214Y-108853647D01*
X126327880Y-108885570D01*
X126328380Y-108885760D01*
X126265527Y-109051486D01*
X126265526Y-109051491D01*
X126245066Y-109220000D01*
X126265526Y-109388508D01*
X126265527Y-109388513D01*
X126316087Y-109521827D01*
X126325720Y-109547227D01*
X126422148Y-109686927D01*
X126422150Y-109686929D01*
X126422152Y-109686931D01*
X126549204Y-109799490D01*
X126549206Y-109799491D01*
X126699511Y-109878377D01*
X126864326Y-109919000D01*
X127034074Y-109919000D01*
X127198889Y-109878377D01*
X127349194Y-109799491D01*
X127476252Y-109686927D01*
X127535950Y-109600438D01*
X127590233Y-109556449D01*
X127659681Y-109548789D01*
X127722246Y-109579892D01*
X127758063Y-109639883D01*
X127762000Y-109670879D01*
X127762000Y-111636000D01*
X127742315Y-111703039D01*
X127689511Y-111748794D01*
X127638000Y-111760000D01*
X121321235Y-111760000D01*
X121311056Y-111759500D01*
X119480936Y-111759500D01*
X119470777Y-111760000D01*
X117973088Y-111760000D01*
X117962272Y-111759500D01*
X117961961Y-111759500D01*
X117750039Y-111759500D01*
X117749728Y-111759500D01*
X117738912Y-111760000D01*
X111161235Y-111760000D01*
X111151056Y-111759500D01*
X109320936Y-111759500D01*
X109310777Y-111760000D01*
X107813088Y-111760000D01*
X107802272Y-111759500D01*
X107801961Y-111759500D01*
X107590039Y-111759500D01*
X107589728Y-111759500D01*
X107578912Y-111760000D01*
X106804000Y-111760000D01*
X106736961Y-111740315D01*
X106691206Y-111687511D01*
X106680000Y-111636000D01*
X106680000Y-107066500D01*
X106699685Y-106999461D01*
X106752489Y-106953706D01*
X106804000Y-106942500D01*
X106866474Y-106942500D01*
X107031289Y-106901877D01*
X107181594Y-106822991D01*
X107308652Y-106710427D01*
X107339300Y-106666024D01*
X107393580Y-106622036D01*
X107463028Y-106614375D01*
X107525594Y-106645477D01*
X107546342Y-106670492D01*
X107610374Y-106772398D01*
X107610376Y-106772400D01*
X107730600Y-106892624D01*
X107745326Y-106901877D01*
X107807448Y-106940911D01*
X107853739Y-106993246D01*
X107864387Y-107062300D01*
X107836012Y-107126148D01*
X107777622Y-107164520D01*
X107771151Y-107166302D01*
X107674912Y-107190022D01*
X107524604Y-107268909D01*
X107397552Y-107381468D01*
X107397546Y-107381475D01*
X107301121Y-107521171D01*
X107301120Y-107521172D01*
X107240927Y-107679886D01*
X107240926Y-107679891D01*
X107220466Y-107848400D01*
X107240926Y-108016908D01*
X107240927Y-108016913D01*
X107301120Y-108175627D01*
X107397548Y-108315327D01*
X107397550Y-108315329D01*
X107397552Y-108315331D01*
X107513792Y-108418311D01*
X107550919Y-108477500D01*
X107550151Y-108547366D01*
X107511733Y-108605725D01*
X107502013Y-108613170D01*
X107499209Y-108615105D01*
X107372152Y-108727668D01*
X107372146Y-108727675D01*
X107275721Y-108867371D01*
X107275720Y-108867372D01*
X107215527Y-109026086D01*
X107215526Y-109026091D01*
X107195066Y-109194600D01*
X107215526Y-109363108D01*
X107215527Y-109363113D01*
X107275720Y-109521827D01*
X107372148Y-109661527D01*
X107372150Y-109661529D01*
X107372152Y-109661531D01*
X107499204Y-109774090D01*
X107499206Y-109774091D01*
X107649511Y-109852977D01*
X107748734Y-109877433D01*
X107809114Y-109912589D01*
X107840903Y-109974808D01*
X107834007Y-110044337D01*
X107790616Y-110099100D01*
X107748734Y-110118227D01*
X107674912Y-110136422D01*
X107524604Y-110215309D01*
X107397552Y-110327868D01*
X107397546Y-110327875D01*
X107301121Y-110467571D01*
X107301120Y-110467572D01*
X107240927Y-110626286D01*
X107240926Y-110626291D01*
X107220466Y-110794800D01*
X107240926Y-110963308D01*
X107240927Y-110963313D01*
X107290828Y-111094890D01*
X107301120Y-111122027D01*
X107397548Y-111261727D01*
X107397550Y-111261729D01*
X107397552Y-111261731D01*
X107524604Y-111374290D01*
X107524606Y-111374291D01*
X107674911Y-111453177D01*
X107839726Y-111493800D01*
X108009474Y-111493800D01*
X108174289Y-111453177D01*
X108324594Y-111374291D01*
X108451652Y-111261727D01*
X108548080Y-111122027D01*
X108608273Y-110963310D01*
X108628734Y-110794800D01*
X108608273Y-110626290D01*
X108608272Y-110626288D01*
X108608272Y-110626286D01*
X108566218Y-110515400D01*
X112325866Y-110515400D01*
X112346326Y-110683908D01*
X112346327Y-110683913D01*
X112406520Y-110842627D01*
X112502948Y-110982327D01*
X112502950Y-110982329D01*
X112502952Y-110982331D01*
X112630004Y-111094890D01*
X112630006Y-111094891D01*
X112780311Y-111173777D01*
X112945126Y-111214400D01*
X113114874Y-111214400D01*
X113279689Y-111173777D01*
X113429994Y-111094891D01*
X113557052Y-110982327D01*
X113653480Y-110842627D01*
X113713673Y-110683910D01*
X113734134Y-110515400D01*
X113713673Y-110346890D01*
X113713672Y-110346888D01*
X113713672Y-110346886D01*
X113690884Y-110286800D01*
X117405866Y-110286800D01*
X117426326Y-110455308D01*
X117426327Y-110455313D01*
X117486520Y-110614027D01*
X117582948Y-110753727D01*
X117582950Y-110753729D01*
X117582952Y-110753731D01*
X117710004Y-110866290D01*
X117710006Y-110866291D01*
X117860311Y-110945177D01*
X118025126Y-110985800D01*
X118194874Y-110985800D01*
X118359689Y-110945177D01*
X118509994Y-110866291D01*
X118637052Y-110753727D01*
X118733480Y-110614027D01*
X118793673Y-110455310D01*
X118814134Y-110286800D01*
X118793673Y-110118290D01*
X118793672Y-110118288D01*
X118793672Y-110118286D01*
X118741057Y-109979553D01*
X118733480Y-109959573D01*
X118637052Y-109819873D01*
X118637049Y-109819870D01*
X118637047Y-109819868D01*
X118509995Y-109707309D01*
X118359687Y-109628422D01*
X118194874Y-109587800D01*
X118025126Y-109587800D01*
X117860312Y-109628422D01*
X117710004Y-109707309D01*
X117582952Y-109819868D01*
X117582946Y-109819875D01*
X117486521Y-109959571D01*
X117486520Y-109959572D01*
X117426327Y-110118286D01*
X117426326Y-110118291D01*
X117405866Y-110286800D01*
X113690884Y-110286800D01*
X113663771Y-110215309D01*
X113653480Y-110188173D01*
X113557052Y-110048473D01*
X113557049Y-110048470D01*
X113557047Y-110048468D01*
X113429995Y-109935909D01*
X113279687Y-109857022D01*
X113114874Y-109816400D01*
X112945126Y-109816400D01*
X112780312Y-109857022D01*
X112630004Y-109935909D01*
X112502952Y-110048468D01*
X112502946Y-110048475D01*
X112406521Y-110188171D01*
X112406520Y-110188172D01*
X112346327Y-110346886D01*
X112346326Y-110346891D01*
X112325866Y-110515400D01*
X108566218Y-110515400D01*
X108548080Y-110467573D01*
X108451652Y-110327873D01*
X108451649Y-110327870D01*
X108451647Y-110327868D01*
X108324595Y-110215309D01*
X108174287Y-110136422D01*
X108075064Y-110111966D01*
X108014684Y-110076809D01*
X107982896Y-110014590D01*
X107989792Y-109945061D01*
X108033184Y-109890299D01*
X108075063Y-109871173D01*
X108148889Y-109852977D01*
X108299194Y-109774091D01*
X108426252Y-109661527D01*
X108522680Y-109521827D01*
X108582873Y-109363110D01*
X108603334Y-109194600D01*
X108582873Y-109026090D01*
X108582872Y-109026088D01*
X108582872Y-109026086D01*
X108555520Y-108953966D01*
X108522680Y-108867373D01*
X108426252Y-108727673D01*
X108426249Y-108727670D01*
X108426247Y-108727668D01*
X108310007Y-108624688D01*
X108272880Y-108565499D01*
X108273648Y-108495633D01*
X108312066Y-108437274D01*
X108321799Y-108429820D01*
X108324590Y-108427892D01*
X108324594Y-108427891D01*
X108451652Y-108315327D01*
X108548080Y-108175627D01*
X108608273Y-108016910D01*
X108628734Y-107848400D01*
X108608273Y-107679890D01*
X108608272Y-107679888D01*
X108608272Y-107679886D01*
X108560109Y-107552891D01*
X108548080Y-107521173D01*
X108451652Y-107381473D01*
X108451649Y-107381470D01*
X108451647Y-107381468D01*
X108324594Y-107268909D01*
X108318420Y-107264647D01*
X108320229Y-107262025D01*
X108280391Y-107223412D01*
X108264476Y-107155379D01*
X108287868Y-107089542D01*
X108343142Y-107046803D01*
X108366236Y-107041093D01*
X108366166Y-107040787D01*
X108372948Y-107039239D01*
X108375603Y-107038310D01*
X108533437Y-106983082D01*
X108677400Y-106892624D01*
X108797624Y-106772400D01*
X108888082Y-106628437D01*
X108944237Y-106467954D01*
X108944237Y-106467953D01*
X108944238Y-106467951D01*
X108963274Y-106299002D01*
X108963274Y-106298997D01*
X108944238Y-106130048D01*
X108902252Y-106010060D01*
X108888082Y-105969563D01*
X108805991Y-105838916D01*
X111180479Y-105838916D01*
X111200939Y-106007424D01*
X111200940Y-106007429D01*
X111240849Y-106112659D01*
X111261133Y-106166143D01*
X111357561Y-106305843D01*
X111357563Y-106305845D01*
X111357565Y-106305847D01*
X111484617Y-106418406D01*
X111484619Y-106418407D01*
X111634924Y-106497293D01*
X111799739Y-106537916D01*
X111969487Y-106537916D01*
X112134302Y-106497293D01*
X112284607Y-106418407D01*
X112411665Y-106305843D01*
X112508093Y-106166143D01*
X112568286Y-106007426D01*
X112588747Y-105838916D01*
X112568286Y-105670406D01*
X112568285Y-105670404D01*
X112568285Y-105670402D01*
X112531011Y-105572119D01*
X112508093Y-105511689D01*
X112411665Y-105371989D01*
X112411662Y-105371986D01*
X112411660Y-105371984D01*
X112284608Y-105259425D01*
X112134300Y-105180538D01*
X111969487Y-105139916D01*
X111799739Y-105139916D01*
X111634925Y-105180538D01*
X111484617Y-105259425D01*
X111357565Y-105371984D01*
X111357559Y-105371991D01*
X111261134Y-105511687D01*
X111261133Y-105511688D01*
X111200940Y-105670402D01*
X111200939Y-105670407D01*
X111180479Y-105838916D01*
X108805991Y-105838916D01*
X108797624Y-105825600D01*
X108677400Y-105705376D01*
X108533437Y-105614918D01*
X108494912Y-105601437D01*
X108372951Y-105558761D01*
X108204003Y-105539726D01*
X108203997Y-105539726D01*
X108035048Y-105558761D01*
X107874560Y-105614919D01*
X107730599Y-105705376D01*
X107610376Y-105825599D01*
X107610374Y-105825602D01*
X107582853Y-105869401D01*
X107530518Y-105915692D01*
X107461464Y-105926339D01*
X107397616Y-105897963D01*
X107375810Y-105873868D01*
X107308653Y-105776575D01*
X107308652Y-105776573D01*
X107308649Y-105776570D01*
X107308647Y-105776568D01*
X107181595Y-105664009D01*
X107031287Y-105585122D01*
X106866474Y-105544500D01*
X106696726Y-105544500D01*
X106531912Y-105585122D01*
X106381604Y-105664009D01*
X106254552Y-105776568D01*
X106254549Y-105776571D01*
X106193897Y-105864441D01*
X106139613Y-105908431D01*
X106091847Y-105918000D01*
X105865384Y-105918000D01*
X105835709Y-105914397D01*
X105780414Y-105900768D01*
X105610666Y-105900768D01*
X105555371Y-105914397D01*
X105525696Y-105918000D01*
X102870000Y-105918000D01*
X102870000Y-108712000D01*
X103330076Y-108712000D01*
X103397115Y-108731685D01*
X103442870Y-108784489D01*
X103452814Y-108853647D01*
X103442480Y-108885570D01*
X103442980Y-108885760D01*
X103380127Y-109051486D01*
X103380126Y-109051491D01*
X103359666Y-109220000D01*
X103380126Y-109388508D01*
X103380127Y-109388513D01*
X103430687Y-109521827D01*
X103440320Y-109547227D01*
X103536748Y-109686927D01*
X103536750Y-109686929D01*
X103536752Y-109686931D01*
X103663804Y-109799490D01*
X103663806Y-109799491D01*
X103814111Y-109878377D01*
X103978926Y-109919000D01*
X104148674Y-109919000D01*
X104313489Y-109878377D01*
X104463794Y-109799491D01*
X104590852Y-109686927D01*
X104687280Y-109547227D01*
X104747473Y-109388510D01*
X104767934Y-109220000D01*
X104747473Y-109051490D01*
X104747472Y-109051488D01*
X104747472Y-109051486D01*
X104684620Y-108885760D01*
X104686042Y-108885220D01*
X104674003Y-108825112D01*
X104699498Y-108760060D01*
X104756115Y-108719118D01*
X104797524Y-108712000D01*
X105032000Y-108712000D01*
X105099039Y-108731685D01*
X105144794Y-108784489D01*
X105156000Y-108836000D01*
X105156000Y-111636000D01*
X105136315Y-111703039D01*
X105083511Y-111748794D01*
X105032000Y-111760000D01*
X88516000Y-111760000D01*
X88448961Y-111740315D01*
X88403206Y-111687511D01*
X88392000Y-111636000D01*
X88392000Y-108234863D01*
X89277500Y-108234863D01*
X89277500Y-108433136D01*
X89316177Y-108627577D01*
X89316180Y-108627589D01*
X89392047Y-108810750D01*
X89392054Y-108810763D01*
X89502199Y-108975605D01*
X89502202Y-108975609D01*
X89642390Y-109115797D01*
X89642394Y-109115800D01*
X89807236Y-109225945D01*
X89807249Y-109225952D01*
X89990410Y-109301819D01*
X89990415Y-109301821D01*
X90184863Y-109340499D01*
X90184867Y-109340500D01*
X90184868Y-109340500D01*
X90383133Y-109340500D01*
X90383134Y-109340499D01*
X90577585Y-109301821D01*
X90760757Y-109225949D01*
X90925606Y-109115800D01*
X91065800Y-108975606D01*
X91175949Y-108810757D01*
X91251821Y-108627585D01*
X91290500Y-108433132D01*
X91290500Y-108234868D01*
X91251821Y-108040415D01*
X91242084Y-108016908D01*
X91175125Y-107855252D01*
X91167656Y-107785783D01*
X91198931Y-107723304D01*
X91259020Y-107687652D01*
X91289686Y-107683800D01*
X91423274Y-107683800D01*
X91588089Y-107643177D01*
X91738394Y-107564291D01*
X91865452Y-107451727D01*
X91961880Y-107312027D01*
X92022073Y-107153310D01*
X92042534Y-106984800D01*
X92022073Y-106816290D01*
X92022072Y-106816288D01*
X92022072Y-106816286D01*
X91981926Y-106710431D01*
X91961880Y-106657573D01*
X91865452Y-106517873D01*
X91865449Y-106517870D01*
X91865447Y-106517868D01*
X91738395Y-106405309D01*
X91588087Y-106326422D01*
X91423274Y-106285800D01*
X91253526Y-106285800D01*
X91088712Y-106326422D01*
X90938404Y-106405309D01*
X90811352Y-106517868D01*
X90811346Y-106517875D01*
X90714921Y-106657571D01*
X90714920Y-106657572D01*
X90654727Y-106816286D01*
X90654726Y-106816291D01*
X90634266Y-106984800D01*
X90654726Y-107153308D01*
X90654727Y-107153313D01*
X90668981Y-107190896D01*
X90674348Y-107260560D01*
X90641200Y-107322066D01*
X90580062Y-107355887D01*
X90528848Y-107356484D01*
X90383136Y-107327500D01*
X90383132Y-107327500D01*
X90184868Y-107327500D01*
X90184863Y-107327500D01*
X89990422Y-107366177D01*
X89990410Y-107366180D01*
X89807249Y-107442047D01*
X89807236Y-107442054D01*
X89642394Y-107552199D01*
X89642390Y-107552202D01*
X89502202Y-107692390D01*
X89502199Y-107692394D01*
X89392054Y-107857236D01*
X89392047Y-107857249D01*
X89316180Y-108040410D01*
X89316177Y-108040422D01*
X89277500Y-108234863D01*
X88392000Y-108234863D01*
X88392000Y-104038400D01*
X98406666Y-104038400D01*
X98427126Y-104206908D01*
X98427127Y-104206913D01*
X98482336Y-104352486D01*
X98487320Y-104365627D01*
X98583748Y-104505327D01*
X98583750Y-104505329D01*
X98583752Y-104505331D01*
X98710804Y-104617890D01*
X98710806Y-104617891D01*
X98861111Y-104696777D01*
X99025926Y-104737400D01*
X99195674Y-104737400D01*
X99360489Y-104696777D01*
X99510794Y-104617891D01*
X99596796Y-104541700D01*
X106407666Y-104541700D01*
X106428126Y-104710208D01*
X106428127Y-104710213D01*
X106480470Y-104848228D01*
X106488320Y-104868927D01*
X106584748Y-105008627D01*
X106584750Y-105008629D01*
X106584752Y-105008631D01*
X106711804Y-105121190D01*
X106711806Y-105121191D01*
X106862111Y-105200077D01*
X107026926Y-105240700D01*
X107196674Y-105240700D01*
X107361489Y-105200077D01*
X107511794Y-105121191D01*
X107638852Y-105008627D01*
X107735280Y-104868927D01*
X107795473Y-104710210D01*
X107815934Y-104541700D01*
X129039066Y-104541700D01*
X129059526Y-104710208D01*
X129059527Y-104710213D01*
X129111870Y-104848228D01*
X129119720Y-104868927D01*
X129216148Y-105008627D01*
X129216150Y-105008629D01*
X129216152Y-105008631D01*
X129343204Y-105121190D01*
X129343206Y-105121191D01*
X129493511Y-105200077D01*
X129658326Y-105240700D01*
X129828074Y-105240700D01*
X129992889Y-105200077D01*
X130143194Y-105121191D01*
X130270252Y-105008627D01*
X130366680Y-104868927D01*
X130426873Y-104710210D01*
X130447334Y-104541700D01*
X130426873Y-104373190D01*
X130426872Y-104373188D01*
X130426872Y-104373186D01*
X130390427Y-104277090D01*
X130366680Y-104214473D01*
X130270252Y-104074773D01*
X130270249Y-104074770D01*
X130270247Y-104074768D01*
X130143195Y-103962209D01*
X129992887Y-103883322D01*
X129828074Y-103842700D01*
X129658326Y-103842700D01*
X129493512Y-103883322D01*
X129343204Y-103962209D01*
X129216152Y-104074768D01*
X129216146Y-104074775D01*
X129119721Y-104214471D01*
X129119720Y-104214472D01*
X129059527Y-104373186D01*
X129059526Y-104373191D01*
X129039066Y-104541700D01*
X107815934Y-104541700D01*
X107795473Y-104373190D01*
X107795472Y-104373188D01*
X107795472Y-104373186D01*
X107759027Y-104277090D01*
X107735280Y-104214473D01*
X107638852Y-104074773D01*
X107638849Y-104074770D01*
X107638847Y-104074768D01*
X107511795Y-103962209D01*
X107361487Y-103883322D01*
X107196674Y-103842700D01*
X107026926Y-103842700D01*
X106862112Y-103883322D01*
X106711804Y-103962209D01*
X106584752Y-104074768D01*
X106584746Y-104074775D01*
X106488321Y-104214471D01*
X106488320Y-104214472D01*
X106428127Y-104373186D01*
X106428126Y-104373191D01*
X106407666Y-104541700D01*
X99596796Y-104541700D01*
X99637852Y-104505327D01*
X99734280Y-104365627D01*
X99794473Y-104206910D01*
X99814934Y-104038400D01*
X99794473Y-103869890D01*
X99794472Y-103869888D01*
X99794472Y-103869886D01*
X99747791Y-103746800D01*
X99734280Y-103711173D01*
X99724911Y-103697600D01*
X107906266Y-103697600D01*
X107926726Y-103866108D01*
X107926727Y-103866113D01*
X107963172Y-103962209D01*
X107986920Y-104024827D01*
X108083348Y-104164527D01*
X108083350Y-104164529D01*
X108083352Y-104164531D01*
X108210404Y-104277090D01*
X108210406Y-104277091D01*
X108360711Y-104355977D01*
X108525526Y-104396600D01*
X108695274Y-104396600D01*
X108860089Y-104355977D01*
X109010394Y-104277091D01*
X109137452Y-104164527D01*
X109233880Y-104024827D01*
X109292639Y-103869891D01*
X109294072Y-103866113D01*
X109294073Y-103866108D01*
X109294496Y-103862623D01*
X109314534Y-103697600D01*
X109294073Y-103529090D01*
X109294072Y-103529088D01*
X109294072Y-103529086D01*
X109245638Y-103401377D01*
X109233880Y-103370373D01*
X109137452Y-103230673D01*
X109137449Y-103230670D01*
X109137447Y-103230668D01*
X109010395Y-103118109D01*
X108876431Y-103047800D01*
X114180066Y-103047800D01*
X114200526Y-103216308D01*
X114200527Y-103216313D01*
X114258954Y-103370371D01*
X114260720Y-103375027D01*
X114357148Y-103514727D01*
X114357150Y-103514729D01*
X114357152Y-103514731D01*
X114484204Y-103627290D01*
X114484206Y-103627291D01*
X114634511Y-103706177D01*
X114799326Y-103746800D01*
X114969074Y-103746800D01*
X115133889Y-103706177D01*
X115150231Y-103697600D01*
X131147266Y-103697600D01*
X131167726Y-103866108D01*
X131167727Y-103866113D01*
X131204172Y-103962209D01*
X131227920Y-104024827D01*
X131324348Y-104164527D01*
X131324350Y-104164529D01*
X131324352Y-104164531D01*
X131451404Y-104277090D01*
X131451406Y-104277091D01*
X131601711Y-104355977D01*
X131766526Y-104396600D01*
X131936274Y-104396600D01*
X132101089Y-104355977D01*
X132251394Y-104277091D01*
X132378452Y-104164527D01*
X132474880Y-104024827D01*
X132533639Y-103869891D01*
X132535072Y-103866113D01*
X132535073Y-103866108D01*
X132535496Y-103862623D01*
X132555534Y-103697600D01*
X132535073Y-103529090D01*
X132535072Y-103529088D01*
X132535072Y-103529086D01*
X132486638Y-103401377D01*
X132474880Y-103370373D01*
X132378452Y-103230673D01*
X132378449Y-103230670D01*
X132378447Y-103230668D01*
X132251395Y-103118109D01*
X132101087Y-103039222D01*
X131936274Y-102998600D01*
X131766526Y-102998600D01*
X131601712Y-103039222D01*
X131451404Y-103118109D01*
X131324352Y-103230668D01*
X131324346Y-103230675D01*
X131227921Y-103370371D01*
X131227920Y-103370372D01*
X131167727Y-103529086D01*
X131167726Y-103529091D01*
X131147266Y-103697600D01*
X115150231Y-103697600D01*
X115284194Y-103627291D01*
X115411252Y-103514727D01*
X115507680Y-103375027D01*
X115567873Y-103216310D01*
X115588334Y-103047800D01*
X115582166Y-102997000D01*
X136963866Y-102997000D01*
X136984326Y-103165508D01*
X136984327Y-103165513D01*
X137043861Y-103322490D01*
X137044520Y-103324227D01*
X137140948Y-103463927D01*
X137140950Y-103463929D01*
X137140952Y-103463931D01*
X137268004Y-103576490D01*
X137268006Y-103576491D01*
X137406548Y-103649203D01*
X137456761Y-103697788D01*
X137472736Y-103765807D01*
X137449401Y-103831665D01*
X137406548Y-103868796D01*
X137378872Y-103883322D01*
X137268004Y-103941509D01*
X137140952Y-104054068D01*
X137140946Y-104054075D01*
X137044521Y-104193771D01*
X137044520Y-104193772D01*
X136984327Y-104352486D01*
X136984326Y-104352491D01*
X136963866Y-104521000D01*
X136984326Y-104689508D01*
X136984327Y-104689513D01*
X137044520Y-104848227D01*
X137140948Y-104987927D01*
X137140950Y-104987929D01*
X137140952Y-104987931D01*
X137268004Y-105100490D01*
X137268006Y-105100491D01*
X137418311Y-105179377D01*
X137583126Y-105220000D01*
X137752874Y-105220000D01*
X137917689Y-105179377D01*
X138067994Y-105100491D01*
X138195052Y-104987927D01*
X138291480Y-104848227D01*
X138351673Y-104689510D01*
X138372134Y-104521000D01*
X138351673Y-104352490D01*
X138351672Y-104352488D01*
X138351672Y-104352486D01*
X138299330Y-104214472D01*
X138291480Y-104193773D01*
X138195052Y-104054073D01*
X138195049Y-104054070D01*
X138195047Y-104054068D01*
X138067995Y-103941509D01*
X138014636Y-103913504D01*
X137929449Y-103868795D01*
X137879238Y-103820213D01*
X137863263Y-103752194D01*
X137886598Y-103686336D01*
X137929448Y-103649205D01*
X138067994Y-103576491D01*
X138195052Y-103463927D01*
X138291480Y-103324227D01*
X138351673Y-103165510D01*
X138372134Y-102997000D01*
X138351673Y-102828490D01*
X138351672Y-102828488D01*
X138351672Y-102828486D01*
X138310745Y-102720571D01*
X138291480Y-102669773D01*
X138195052Y-102530073D01*
X138195049Y-102530070D01*
X138195047Y-102530068D01*
X138067995Y-102417509D01*
X137917687Y-102338622D01*
X137752874Y-102298000D01*
X137583126Y-102298000D01*
X137418312Y-102338622D01*
X137268004Y-102417509D01*
X137140952Y-102530068D01*
X137140946Y-102530075D01*
X137044521Y-102669771D01*
X137044520Y-102669772D01*
X136984327Y-102828486D01*
X136984326Y-102828491D01*
X136963866Y-102997000D01*
X115582166Y-102997000D01*
X115567873Y-102879290D01*
X115567872Y-102879288D01*
X115567872Y-102879286D01*
X115516185Y-102743000D01*
X115507680Y-102720573D01*
X115411252Y-102580873D01*
X115411249Y-102580870D01*
X115411247Y-102580868D01*
X115284195Y-102468309D01*
X115133887Y-102389422D01*
X114969074Y-102348800D01*
X114799326Y-102348800D01*
X114634512Y-102389422D01*
X114484204Y-102468309D01*
X114357152Y-102580868D01*
X114357146Y-102580875D01*
X114260721Y-102720571D01*
X114260720Y-102720572D01*
X114200527Y-102879286D01*
X114200526Y-102879291D01*
X114180066Y-103047800D01*
X108876431Y-103047800D01*
X108860087Y-103039222D01*
X108695274Y-102998600D01*
X108525526Y-102998600D01*
X108360712Y-103039222D01*
X108210404Y-103118109D01*
X108083352Y-103230668D01*
X108083346Y-103230675D01*
X107986921Y-103370371D01*
X107986920Y-103370372D01*
X107926727Y-103529086D01*
X107926726Y-103529091D01*
X107906266Y-103697600D01*
X99724911Y-103697600D01*
X99637852Y-103571473D01*
X99637849Y-103571470D01*
X99637847Y-103571468D01*
X99510795Y-103458909D01*
X99360487Y-103380022D01*
X99195674Y-103339400D01*
X99025926Y-103339400D01*
X98861112Y-103380022D01*
X98710804Y-103458909D01*
X98583752Y-103571468D01*
X98583746Y-103571475D01*
X98487321Y-103711171D01*
X98487320Y-103711172D01*
X98427127Y-103869886D01*
X98427126Y-103869891D01*
X98406666Y-104038400D01*
X88392000Y-104038400D01*
X88392000Y-102743000D01*
X88932466Y-102743000D01*
X88952926Y-102911508D01*
X88952927Y-102911513D01*
X89013120Y-103070227D01*
X89109548Y-103209927D01*
X89109550Y-103209929D01*
X89109552Y-103209931D01*
X89236604Y-103322490D01*
X89236606Y-103322491D01*
X89386911Y-103401377D01*
X89551726Y-103442000D01*
X89721474Y-103442000D01*
X89886289Y-103401377D01*
X90036594Y-103322491D01*
X90163652Y-103209927D01*
X90260080Y-103070227D01*
X90320273Y-102911510D01*
X90340734Y-102743000D01*
X90320273Y-102574490D01*
X90320272Y-102574488D01*
X90320272Y-102574486D01*
X90260738Y-102417509D01*
X90260080Y-102415773D01*
X90163652Y-102276073D01*
X90163648Y-102276069D01*
X90158678Y-102270459D01*
X90160586Y-102268767D01*
X90129941Y-102219910D01*
X90130708Y-102150044D01*
X90169125Y-102091684D01*
X90182961Y-102082358D01*
X90182820Y-102082153D01*
X90188987Y-102077894D01*
X90188994Y-102077891D01*
X90316052Y-101965327D01*
X90412480Y-101825627D01*
X90472673Y-101666910D01*
X90493134Y-101498400D01*
X90472673Y-101329890D01*
X90472672Y-101329888D01*
X90472672Y-101329886D01*
X90436561Y-101234670D01*
X90412480Y-101171173D01*
X90316052Y-101031473D01*
X90316049Y-101031470D01*
X90316047Y-101031468D01*
X90228551Y-100953953D01*
X90191424Y-100894764D01*
X90192192Y-100824898D01*
X90230610Y-100766539D01*
X90253149Y-100751343D01*
X90290594Y-100731691D01*
X90417652Y-100619127D01*
X90514080Y-100479427D01*
X90565933Y-100342700D01*
X123425666Y-100342700D01*
X123446126Y-100511208D01*
X123446127Y-100511213D01*
X123501505Y-100657231D01*
X123506320Y-100669927D01*
X123602748Y-100809627D01*
X123602750Y-100809629D01*
X123602752Y-100809631D01*
X123729804Y-100922190D01*
X123729806Y-100922191D01*
X123880111Y-101001077D01*
X124044926Y-101041700D01*
X124214674Y-101041700D01*
X124379489Y-101001077D01*
X124529794Y-100922191D01*
X124656852Y-100809627D01*
X124753280Y-100669927D01*
X124813473Y-100511210D01*
X124833934Y-100342700D01*
X124815429Y-100190300D01*
X127528626Y-100190300D01*
X127549086Y-100358808D01*
X127549087Y-100358813D01*
X127606884Y-100511210D01*
X127609280Y-100517527D01*
X127705708Y-100657227D01*
X127705710Y-100657229D01*
X127705712Y-100657231D01*
X127832764Y-100769790D01*
X127832766Y-100769791D01*
X127983071Y-100848677D01*
X128147886Y-100889300D01*
X128317634Y-100889300D01*
X128482449Y-100848677D01*
X128632754Y-100769791D01*
X128759812Y-100657227D01*
X128856240Y-100517527D01*
X128916433Y-100358810D01*
X128936894Y-100190300D01*
X128916433Y-100021790D01*
X128916432Y-100021788D01*
X128916432Y-100021786D01*
X128869751Y-99898700D01*
X128856240Y-99863073D01*
X128759812Y-99723373D01*
X128759809Y-99723370D01*
X128759807Y-99723368D01*
X128632755Y-99610809D01*
X128482447Y-99531922D01*
X128317634Y-99491300D01*
X128147886Y-99491300D01*
X127983072Y-99531922D01*
X127832764Y-99610809D01*
X127705712Y-99723368D01*
X127705706Y-99723375D01*
X127609281Y-99863071D01*
X127609280Y-99863072D01*
X127549087Y-100021786D01*
X127549086Y-100021791D01*
X127528626Y-100190300D01*
X124815429Y-100190300D01*
X124813473Y-100174190D01*
X124813472Y-100174188D01*
X124813472Y-100174186D01*
X124755676Y-100021791D01*
X124753280Y-100015473D01*
X124656852Y-99875773D01*
X124656849Y-99875770D01*
X124656847Y-99875768D01*
X124529795Y-99763209D01*
X124381299Y-99685273D01*
X124379489Y-99684323D01*
X124379488Y-99684322D01*
X124379487Y-99684322D01*
X124214674Y-99643700D01*
X124044926Y-99643700D01*
X123880112Y-99684322D01*
X123729804Y-99763209D01*
X123602752Y-99875768D01*
X123602746Y-99875775D01*
X123506321Y-100015471D01*
X123506320Y-100015472D01*
X123446127Y-100174186D01*
X123446126Y-100174191D01*
X123425666Y-100342700D01*
X90565933Y-100342700D01*
X90574273Y-100320710D01*
X90594734Y-100152200D01*
X90574273Y-99983690D01*
X90574272Y-99983688D01*
X90574272Y-99983686D01*
X90540545Y-99894756D01*
X90514080Y-99824973D01*
X90417652Y-99685273D01*
X90417649Y-99685270D01*
X90417647Y-99685268D01*
X90284980Y-99567735D01*
X90286855Y-99565617D01*
X90251161Y-99521579D01*
X90243495Y-99452131D01*
X90274593Y-99389564D01*
X90283362Y-99380985D01*
X90290652Y-99374527D01*
X90387080Y-99234827D01*
X90400402Y-99199700D01*
X132846025Y-99199700D01*
X132866485Y-99368208D01*
X132866486Y-99368213D01*
X132915167Y-99496572D01*
X132926679Y-99526927D01*
X133023107Y-99666627D01*
X133023109Y-99666629D01*
X133023111Y-99666631D01*
X133150163Y-99779190D01*
X133150165Y-99779191D01*
X133300470Y-99858077D01*
X133465285Y-99898700D01*
X133635033Y-99898700D01*
X133799844Y-99858078D01*
X133799844Y-99858077D01*
X133799848Y-99858077D01*
X133889541Y-99811002D01*
X133958047Y-99797278D01*
X134023100Y-99822771D01*
X134049214Y-99850360D01*
X134082581Y-99898700D01*
X134127002Y-99963055D01*
X134127004Y-99963057D01*
X134127006Y-99963059D01*
X134254058Y-100075618D01*
X134254060Y-100075619D01*
X134404365Y-100154505D01*
X134569180Y-100195128D01*
X134738928Y-100195128D01*
X134903743Y-100154505D01*
X135054048Y-100075619D01*
X135181106Y-99963055D01*
X135277534Y-99823355D01*
X135337727Y-99664638D01*
X135358188Y-99496128D01*
X135337727Y-99327618D01*
X135337726Y-99327616D01*
X135337726Y-99327614D01*
X135310374Y-99255494D01*
X135277534Y-99168901D01*
X135181106Y-99029201D01*
X135181103Y-99029198D01*
X135181101Y-99029196D01*
X135054049Y-98916637D01*
X134903741Y-98837750D01*
X134738928Y-98797128D01*
X134569180Y-98797128D01*
X134404364Y-98837750D01*
X134404364Y-98837751D01*
X134314672Y-98884824D01*
X134246164Y-98898548D01*
X134181111Y-98873055D01*
X134154998Y-98845467D01*
X134081571Y-98739090D01*
X134077211Y-98732773D01*
X134077208Y-98732770D01*
X134077206Y-98732768D01*
X133950154Y-98620209D01*
X133799846Y-98541322D01*
X133635033Y-98500700D01*
X133465285Y-98500700D01*
X133300471Y-98541322D01*
X133150163Y-98620209D01*
X133023111Y-98732768D01*
X133023105Y-98732775D01*
X132926680Y-98872471D01*
X132926679Y-98872472D01*
X132866486Y-99031186D01*
X132866485Y-99031191D01*
X132846025Y-99199700D01*
X90400402Y-99199700D01*
X90447273Y-99076110D01*
X90467734Y-98907600D01*
X90447273Y-98739090D01*
X90447272Y-98739088D01*
X90447272Y-98739086D01*
X90419920Y-98666966D01*
X90387080Y-98580373D01*
X90290652Y-98440673D01*
X90290649Y-98440670D01*
X90290647Y-98440668D01*
X90163595Y-98328109D01*
X90013287Y-98249222D01*
X89848474Y-98208600D01*
X89678726Y-98208600D01*
X89513912Y-98249222D01*
X89363604Y-98328109D01*
X89236552Y-98440668D01*
X89236546Y-98440675D01*
X89140121Y-98580371D01*
X89140120Y-98580372D01*
X89079927Y-98739086D01*
X89079926Y-98739091D01*
X89059466Y-98907600D01*
X89079926Y-99076108D01*
X89079927Y-99076113D01*
X89126798Y-99199700D01*
X89140120Y-99234827D01*
X89236548Y-99374527D01*
X89236549Y-99374528D01*
X89236552Y-99374531D01*
X89369220Y-99492065D01*
X89367342Y-99494184D01*
X89403032Y-99538205D01*
X89410706Y-99607652D01*
X89379617Y-99670224D01*
X89370844Y-99678808D01*
X89363552Y-99685268D01*
X89363546Y-99685275D01*
X89267121Y-99824971D01*
X89267120Y-99824972D01*
X89206927Y-99983686D01*
X89206926Y-99983691D01*
X89186466Y-100152200D01*
X89206926Y-100320708D01*
X89206927Y-100320713D01*
X89221377Y-100358813D01*
X89267120Y-100479427D01*
X89363548Y-100619127D01*
X89363550Y-100619129D01*
X89363552Y-100619131D01*
X89451048Y-100696646D01*
X89488175Y-100755835D01*
X89487407Y-100825701D01*
X89448989Y-100884060D01*
X89426449Y-100899257D01*
X89389003Y-100918910D01*
X89261952Y-101031468D01*
X89261946Y-101031475D01*
X89165521Y-101171171D01*
X89165520Y-101171172D01*
X89105327Y-101329886D01*
X89105326Y-101329891D01*
X89084866Y-101498400D01*
X89105326Y-101666908D01*
X89105327Y-101666913D01*
X89148675Y-101781210D01*
X89165520Y-101825627D01*
X89261948Y-101965327D01*
X89261951Y-101965329D01*
X89266922Y-101970941D01*
X89265012Y-101972633D01*
X89295657Y-102021486D01*
X89294893Y-102091351D01*
X89256477Y-102149712D01*
X89242638Y-102159042D01*
X89242780Y-102159247D01*
X89236605Y-102163509D01*
X89109552Y-102276068D01*
X89109546Y-102276075D01*
X89013121Y-102415771D01*
X89013120Y-102415772D01*
X88952927Y-102574486D01*
X88952926Y-102574491D01*
X88932466Y-102743000D01*
X88392000Y-102743000D01*
X88392000Y-97406000D01*
X88411685Y-97338961D01*
X88464489Y-97293206D01*
X88516000Y-97282000D01*
X109653696Y-97282000D01*
X109720735Y-97301685D01*
G37*
%TD.AperFunction*%
%TD*%
%TA.AperFunction,Conductor*%
%TO.N,+5V*%
G36*
X159737236Y-47652315D02*
G01*
X159739983Y-47652472D01*
X159745371Y-47652472D01*
X159745375Y-47652473D01*
X159812914Y-47652472D01*
X159821023Y-47652737D01*
X159837682Y-47653828D01*
X160065297Y-47668744D01*
X160081365Y-47670860D01*
X160317478Y-47717822D01*
X160333120Y-47722014D01*
X160561083Y-47799394D01*
X160576063Y-47805600D01*
X160791953Y-47912062D01*
X160806000Y-47920172D01*
X161006154Y-48053907D01*
X161019023Y-48063781D01*
X161200006Y-48222496D01*
X161211475Y-48233965D01*
X161370189Y-48414939D01*
X161380063Y-48427807D01*
X161513805Y-48627961D01*
X161521916Y-48642008D01*
X161628384Y-48857900D01*
X161634591Y-48872885D01*
X161711971Y-49100828D01*
X161716169Y-49116496D01*
X161763132Y-49352587D01*
X161765249Y-49368667D01*
X161781204Y-49612047D01*
X161781470Y-49620188D01*
X161764517Y-123321653D01*
X161764500Y-123321983D01*
X161764500Y-123395948D01*
X161764234Y-123404058D01*
X161748224Y-123648308D01*
X161746107Y-123664389D01*
X161699146Y-123900479D01*
X161694948Y-123916146D01*
X161617574Y-124144083D01*
X161611367Y-124159069D01*
X161504901Y-124374960D01*
X161496791Y-124389006D01*
X161363058Y-124589153D01*
X161353184Y-124602022D01*
X161194469Y-124783000D01*
X161183000Y-124794469D01*
X161002022Y-124953184D01*
X160989153Y-124963058D01*
X160789006Y-125096791D01*
X160774960Y-125104901D01*
X160559069Y-125211367D01*
X160544083Y-125217574D01*
X160316146Y-125294948D01*
X160300479Y-125299146D01*
X160064389Y-125346107D01*
X160048308Y-125348224D01*
X159804058Y-125364234D01*
X159795948Y-125364500D01*
X96497846Y-125364500D01*
X96430807Y-125344815D01*
X96385052Y-125292011D01*
X96375108Y-125222853D01*
X96383285Y-125193048D01*
X96451819Y-125027589D01*
X96451821Y-125027585D01*
X96490500Y-124833132D01*
X96490500Y-124634868D01*
X96451821Y-124440415D01*
X96430527Y-124389006D01*
X96375952Y-124257249D01*
X96375945Y-124257236D01*
X96265800Y-124092394D01*
X96265797Y-124092390D01*
X96125609Y-123952202D01*
X96125605Y-123952199D01*
X95960763Y-123842054D01*
X95960750Y-123842047D01*
X95777589Y-123766180D01*
X95777577Y-123766177D01*
X95583136Y-123727500D01*
X95583132Y-123727500D01*
X95384868Y-123727500D01*
X95384863Y-123727500D01*
X95190422Y-123766177D01*
X95190410Y-123766180D01*
X95007249Y-123842047D01*
X95007236Y-123842054D01*
X94842394Y-123952199D01*
X94842390Y-123952202D01*
X94702202Y-124092390D01*
X94702199Y-124092394D01*
X94592054Y-124257236D01*
X94592047Y-124257249D01*
X94516180Y-124440410D01*
X94516177Y-124440422D01*
X94477500Y-124634863D01*
X94477500Y-124833136D01*
X94516177Y-125027577D01*
X94516180Y-125027589D01*
X94584715Y-125193048D01*
X94592184Y-125262517D01*
X94560909Y-125324996D01*
X94500820Y-125360648D01*
X94470154Y-125364500D01*
X93594532Y-125364500D01*
X93527493Y-125344815D01*
X93481738Y-125292011D01*
X93471794Y-125222853D01*
X93492483Y-125170059D01*
X93511280Y-125142827D01*
X93571473Y-124984110D01*
X93591934Y-124815600D01*
X93571473Y-124647090D01*
X93571472Y-124647088D01*
X93571472Y-124647086D01*
X93523309Y-124520091D01*
X93511280Y-124488373D01*
X93414852Y-124348673D01*
X93414849Y-124348670D01*
X93414847Y-124348668D01*
X93287795Y-124236109D01*
X93137487Y-124157222D01*
X92972674Y-124116600D01*
X92802926Y-124116600D01*
X92638112Y-124157222D01*
X92487804Y-124236109D01*
X92360752Y-124348668D01*
X92360746Y-124348675D01*
X92264321Y-124488371D01*
X92264320Y-124488372D01*
X92204127Y-124647086D01*
X92204126Y-124647091D01*
X92183666Y-124815600D01*
X92204126Y-124984108D01*
X92204127Y-124984113D01*
X92264320Y-125142827D01*
X92264321Y-125142829D01*
X92283117Y-125170059D01*
X92305001Y-125236413D01*
X92287536Y-125304065D01*
X92236269Y-125351535D01*
X92181068Y-125364500D01*
X88623846Y-125364500D01*
X88556807Y-125344815D01*
X88511052Y-125292011D01*
X88501108Y-125222853D01*
X88509285Y-125193048D01*
X88577819Y-125027589D01*
X88577821Y-125027585D01*
X88616500Y-124833132D01*
X88616500Y-124634868D01*
X88577821Y-124440415D01*
X88556527Y-124389006D01*
X88501952Y-124257249D01*
X88501945Y-124257236D01*
X88391800Y-124092394D01*
X88391797Y-124092390D01*
X88251609Y-123952202D01*
X88251605Y-123952199D01*
X88086763Y-123842054D01*
X88086750Y-123842047D01*
X87903589Y-123766180D01*
X87903577Y-123766177D01*
X87709136Y-123727500D01*
X87709132Y-123727500D01*
X87510868Y-123727500D01*
X87510863Y-123727500D01*
X87316422Y-123766177D01*
X87316410Y-123766180D01*
X87133249Y-123842047D01*
X87133236Y-123842054D01*
X86968394Y-123952199D01*
X86968390Y-123952202D01*
X86828202Y-124092390D01*
X86828199Y-124092394D01*
X86718054Y-124257236D01*
X86718047Y-124257249D01*
X86642180Y-124440410D01*
X86642177Y-124440422D01*
X86603500Y-124634863D01*
X86603500Y-124833136D01*
X86642177Y-125027577D01*
X86642180Y-125027589D01*
X86710715Y-125193048D01*
X86718184Y-125262517D01*
X86686909Y-125324996D01*
X86626820Y-125360648D01*
X86596154Y-125364500D01*
X85656635Y-125364500D01*
X85589596Y-125344815D01*
X85543841Y-125292011D01*
X85533897Y-125222853D01*
X85562922Y-125159297D01*
X85563818Y-125158275D01*
X85566250Y-125155529D01*
X85566250Y-125155528D01*
X85566252Y-125155527D01*
X85662680Y-125015827D01*
X85722873Y-124857110D01*
X85743334Y-124688600D01*
X85722873Y-124520090D01*
X85722872Y-124520088D01*
X85722872Y-124520086D01*
X85692655Y-124440410D01*
X85662680Y-124361373D01*
X85566252Y-124221673D01*
X85566249Y-124221670D01*
X85566247Y-124221668D01*
X85439195Y-124109109D01*
X85288887Y-124030222D01*
X85124074Y-123989600D01*
X84954326Y-123989600D01*
X84789512Y-124030222D01*
X84639204Y-124109109D01*
X84512152Y-124221668D01*
X84512146Y-124221675D01*
X84415721Y-124361371D01*
X84415720Y-124361372D01*
X84355527Y-124520086D01*
X84355526Y-124520091D01*
X84335066Y-124688600D01*
X84355526Y-124857108D01*
X84355527Y-124857113D01*
X84415720Y-125015827D01*
X84423836Y-125027585D01*
X84512149Y-125155529D01*
X84514582Y-125158275D01*
X84515728Y-125160713D01*
X84516409Y-125161700D01*
X84516244Y-125161813D01*
X84544302Y-125221508D01*
X84535117Y-125290772D01*
X84489944Y-125344074D01*
X84423124Y-125364493D01*
X84421765Y-125364500D01*
X80749846Y-125364500D01*
X80682807Y-125344815D01*
X80637052Y-125292011D01*
X80627108Y-125222853D01*
X80635285Y-125193048D01*
X80703819Y-125027589D01*
X80703821Y-125027585D01*
X80742500Y-124833132D01*
X80742500Y-124634868D01*
X80703821Y-124440415D01*
X80682527Y-124389006D01*
X80627952Y-124257249D01*
X80627945Y-124257236D01*
X80517800Y-124092394D01*
X80517797Y-124092390D01*
X80377609Y-123952202D01*
X80377605Y-123952199D01*
X80212763Y-123842054D01*
X80212750Y-123842047D01*
X80029589Y-123766180D01*
X80029577Y-123766177D01*
X79835136Y-123727500D01*
X79835132Y-123727500D01*
X79636868Y-123727500D01*
X79636863Y-123727500D01*
X79442422Y-123766177D01*
X79442410Y-123766180D01*
X79259249Y-123842047D01*
X79259236Y-123842054D01*
X79094394Y-123952199D01*
X79094390Y-123952202D01*
X78954202Y-124092390D01*
X78954199Y-124092394D01*
X78844054Y-124257236D01*
X78844047Y-124257249D01*
X78768180Y-124440410D01*
X78768177Y-124440422D01*
X78729500Y-124634863D01*
X78729500Y-124833136D01*
X78768177Y-125027577D01*
X78768180Y-125027589D01*
X78836715Y-125193048D01*
X78844184Y-125262517D01*
X78812909Y-125324996D01*
X78752820Y-125360648D01*
X78722154Y-125364500D01*
X77757235Y-125364500D01*
X77690196Y-125344815D01*
X77644441Y-125292011D01*
X77634497Y-125222853D01*
X77663522Y-125159297D01*
X77664418Y-125158275D01*
X77666850Y-125155529D01*
X77666850Y-125155528D01*
X77666852Y-125155527D01*
X77763280Y-125015827D01*
X77823473Y-124857110D01*
X77843934Y-124688600D01*
X77823473Y-124520090D01*
X77823472Y-124520088D01*
X77823472Y-124520086D01*
X77793255Y-124440410D01*
X77763280Y-124361373D01*
X77666852Y-124221673D01*
X77666849Y-124221670D01*
X77666847Y-124221668D01*
X77539795Y-124109109D01*
X77389487Y-124030222D01*
X77224674Y-123989600D01*
X77054926Y-123989600D01*
X76890112Y-124030222D01*
X76739804Y-124109109D01*
X76612752Y-124221668D01*
X76612746Y-124221675D01*
X76516321Y-124361371D01*
X76516320Y-124361372D01*
X76456127Y-124520086D01*
X76456126Y-124520091D01*
X76435666Y-124688600D01*
X76456126Y-124857108D01*
X76456127Y-124857113D01*
X76516320Y-125015827D01*
X76524436Y-125027585D01*
X76612749Y-125155529D01*
X76615182Y-125158275D01*
X76616328Y-125160713D01*
X76617009Y-125161700D01*
X76616844Y-125161813D01*
X76644902Y-125221508D01*
X76635717Y-125290772D01*
X76590544Y-125344074D01*
X76523724Y-125364493D01*
X76522365Y-125364500D01*
X57604052Y-125364500D01*
X57595942Y-125364234D01*
X57351691Y-125348224D01*
X57335610Y-125346107D01*
X57099520Y-125299146D01*
X57083853Y-125294948D01*
X56855916Y-125217574D01*
X56840930Y-125211367D01*
X56625039Y-125104901D01*
X56610993Y-125096791D01*
X56410846Y-124963058D01*
X56397977Y-124953184D01*
X56216999Y-124794469D01*
X56205530Y-124783000D01*
X56086339Y-124647090D01*
X56046812Y-124602018D01*
X56036941Y-124589153D01*
X55903208Y-124389006D01*
X55895098Y-124374960D01*
X55819503Y-124221668D01*
X55788629Y-124159062D01*
X55782428Y-124144090D01*
X55705049Y-123916139D01*
X55700853Y-123900479D01*
X55689230Y-123842047D01*
X55653891Y-123664384D01*
X55651776Y-123648328D01*
X55635764Y-123404028D01*
X55635500Y-123395948D01*
X55635500Y-123321698D01*
X55635467Y-123321119D01*
X55634673Y-121406577D01*
X104214500Y-121406577D01*
X104214500Y-121679422D01*
X104214501Y-121679438D01*
X104250114Y-121949948D01*
X104320736Y-122213512D01*
X104425149Y-122465590D01*
X104425157Y-122465606D01*
X104561578Y-122701893D01*
X104561589Y-122701909D01*
X104727686Y-122918371D01*
X104727692Y-122918378D01*
X104920621Y-123111307D01*
X104920627Y-123111312D01*
X105137099Y-123277417D01*
X105137106Y-123277421D01*
X105373393Y-123413842D01*
X105373409Y-123413850D01*
X105509405Y-123470181D01*
X105625488Y-123518264D01*
X105889048Y-123588885D01*
X106159571Y-123624500D01*
X106159578Y-123624500D01*
X106432422Y-123624500D01*
X106432429Y-123624500D01*
X106702952Y-123588885D01*
X106966512Y-123518264D01*
X107164675Y-123436182D01*
X107218590Y-123413850D01*
X107218593Y-123413848D01*
X107218599Y-123413846D01*
X107454901Y-123277417D01*
X107671373Y-123111312D01*
X107864312Y-122918373D01*
X108030417Y-122701901D01*
X108166846Y-122465599D01*
X108271264Y-122213512D01*
X108341885Y-121949952D01*
X108377500Y-121679429D01*
X108377500Y-121406577D01*
X109554500Y-121406577D01*
X109554500Y-121679422D01*
X109554501Y-121679438D01*
X109590114Y-121949948D01*
X109660736Y-122213512D01*
X109765149Y-122465590D01*
X109765157Y-122465606D01*
X109901578Y-122701893D01*
X109901589Y-122701909D01*
X110067686Y-122918371D01*
X110067692Y-122918378D01*
X110260621Y-123111307D01*
X110260627Y-123111312D01*
X110477099Y-123277417D01*
X110477106Y-123277421D01*
X110713393Y-123413842D01*
X110713409Y-123413850D01*
X110849405Y-123470181D01*
X110965488Y-123518264D01*
X111229048Y-123588885D01*
X111499571Y-123624500D01*
X111499578Y-123624500D01*
X111772422Y-123624500D01*
X111772429Y-123624500D01*
X112042952Y-123588885D01*
X112306512Y-123518264D01*
X112504675Y-123436182D01*
X112558590Y-123413850D01*
X112558593Y-123413848D01*
X112558599Y-123413846D01*
X112794901Y-123277417D01*
X113011373Y-123111312D01*
X113204312Y-122918373D01*
X113370417Y-122701901D01*
X113506846Y-122465599D01*
X113611264Y-122213512D01*
X113681885Y-121949952D01*
X113717500Y-121679429D01*
X113717500Y-121406577D01*
X114374500Y-121406577D01*
X114374500Y-121679422D01*
X114374501Y-121679438D01*
X114410114Y-121949948D01*
X114480736Y-122213512D01*
X114585149Y-122465590D01*
X114585157Y-122465606D01*
X114721578Y-122701893D01*
X114721589Y-122701909D01*
X114887686Y-122918371D01*
X114887692Y-122918378D01*
X115080621Y-123111307D01*
X115080627Y-123111312D01*
X115297099Y-123277417D01*
X115297106Y-123277421D01*
X115533393Y-123413842D01*
X115533409Y-123413850D01*
X115669405Y-123470181D01*
X115785488Y-123518264D01*
X116049048Y-123588885D01*
X116319571Y-123624500D01*
X116319578Y-123624500D01*
X116592422Y-123624500D01*
X116592429Y-123624500D01*
X116862952Y-123588885D01*
X117126512Y-123518264D01*
X117324675Y-123436182D01*
X117378590Y-123413850D01*
X117378593Y-123413848D01*
X117378599Y-123413846D01*
X117614901Y-123277417D01*
X117831373Y-123111312D01*
X118024312Y-122918373D01*
X118190417Y-122701901D01*
X118326846Y-122465599D01*
X118431264Y-122213512D01*
X118501885Y-121949952D01*
X118537500Y-121679429D01*
X118537500Y-121406577D01*
X119714500Y-121406577D01*
X119714500Y-121679422D01*
X119714501Y-121679438D01*
X119750114Y-121949948D01*
X119820736Y-122213512D01*
X119925149Y-122465590D01*
X119925157Y-122465606D01*
X120061578Y-122701893D01*
X120061589Y-122701909D01*
X120227686Y-122918371D01*
X120227692Y-122918378D01*
X120420621Y-123111307D01*
X120420627Y-123111312D01*
X120637099Y-123277417D01*
X120637106Y-123277421D01*
X120873393Y-123413842D01*
X120873409Y-123413850D01*
X121009405Y-123470181D01*
X121125488Y-123518264D01*
X121389048Y-123588885D01*
X121659571Y-123624500D01*
X121659578Y-123624500D01*
X121932422Y-123624500D01*
X121932429Y-123624500D01*
X122202952Y-123588885D01*
X122466512Y-123518264D01*
X122664675Y-123436182D01*
X122718590Y-123413850D01*
X122718593Y-123413848D01*
X122718599Y-123413846D01*
X122954901Y-123277417D01*
X123171373Y-123111312D01*
X123364312Y-122918373D01*
X123530417Y-122701901D01*
X123666846Y-122465599D01*
X123771264Y-122213512D01*
X123841885Y-121949952D01*
X123877500Y-121679429D01*
X123877500Y-121406577D01*
X127074500Y-121406577D01*
X127074500Y-121679422D01*
X127074501Y-121679438D01*
X127110114Y-121949948D01*
X127180736Y-122213512D01*
X127285149Y-122465590D01*
X127285157Y-122465606D01*
X127421578Y-122701893D01*
X127421589Y-122701909D01*
X127587686Y-122918371D01*
X127587692Y-122918378D01*
X127780621Y-123111307D01*
X127780627Y-123111312D01*
X127997099Y-123277417D01*
X127997106Y-123277421D01*
X128233393Y-123413842D01*
X128233409Y-123413850D01*
X128369405Y-123470181D01*
X128485488Y-123518264D01*
X128749048Y-123588885D01*
X129019571Y-123624500D01*
X129019578Y-123624500D01*
X129292422Y-123624500D01*
X129292429Y-123624500D01*
X129562952Y-123588885D01*
X129826512Y-123518264D01*
X130024675Y-123436182D01*
X130078590Y-123413850D01*
X130078593Y-123413848D01*
X130078599Y-123413846D01*
X130314901Y-123277417D01*
X130531373Y-123111312D01*
X130724312Y-122918373D01*
X130890417Y-122701901D01*
X131026846Y-122465599D01*
X131131264Y-122213512D01*
X131201885Y-121949952D01*
X131237500Y-121679429D01*
X131237500Y-121406577D01*
X132414500Y-121406577D01*
X132414500Y-121679422D01*
X132414501Y-121679438D01*
X132450114Y-121949948D01*
X132520736Y-122213512D01*
X132625149Y-122465590D01*
X132625157Y-122465606D01*
X132761578Y-122701893D01*
X132761589Y-122701909D01*
X132927686Y-122918371D01*
X132927692Y-122918378D01*
X133120621Y-123111307D01*
X133120627Y-123111312D01*
X133337099Y-123277417D01*
X133337106Y-123277421D01*
X133573393Y-123413842D01*
X133573409Y-123413850D01*
X133709405Y-123470181D01*
X133825488Y-123518264D01*
X134089048Y-123588885D01*
X134359571Y-123624500D01*
X134359578Y-123624500D01*
X134632422Y-123624500D01*
X134632429Y-123624500D01*
X134902952Y-123588885D01*
X135166512Y-123518264D01*
X135364675Y-123436182D01*
X135418590Y-123413850D01*
X135418593Y-123413848D01*
X135418599Y-123413846D01*
X135654901Y-123277417D01*
X135871373Y-123111312D01*
X136064312Y-122918373D01*
X136230417Y-122701901D01*
X136366846Y-122465599D01*
X136471264Y-122213512D01*
X136541885Y-121949952D01*
X136577500Y-121679429D01*
X136577500Y-121406577D01*
X137209100Y-121406577D01*
X137209100Y-121679422D01*
X137209101Y-121679438D01*
X137244714Y-121949948D01*
X137315336Y-122213512D01*
X137419749Y-122465590D01*
X137419757Y-122465606D01*
X137556178Y-122701893D01*
X137556189Y-122701909D01*
X137722286Y-122918371D01*
X137722292Y-122918378D01*
X137915221Y-123111307D01*
X137915227Y-123111312D01*
X138131699Y-123277417D01*
X138131706Y-123277421D01*
X138367993Y-123413842D01*
X138368009Y-123413850D01*
X138504005Y-123470181D01*
X138620088Y-123518264D01*
X138883648Y-123588885D01*
X139154171Y-123624500D01*
X139154178Y-123624500D01*
X139427022Y-123624500D01*
X139427029Y-123624500D01*
X139697552Y-123588885D01*
X139961112Y-123518264D01*
X140159275Y-123436182D01*
X140213190Y-123413850D01*
X140213193Y-123413848D01*
X140213199Y-123413846D01*
X140449501Y-123277417D01*
X140665973Y-123111312D01*
X140858912Y-122918373D01*
X141025017Y-122701901D01*
X141161446Y-122465599D01*
X141265864Y-122213512D01*
X141336485Y-121949952D01*
X141372100Y-121679429D01*
X141372100Y-121406577D01*
X142549100Y-121406577D01*
X142549100Y-121679422D01*
X142549101Y-121679438D01*
X142584714Y-121949948D01*
X142655336Y-122213512D01*
X142759749Y-122465590D01*
X142759757Y-122465606D01*
X142896178Y-122701893D01*
X142896189Y-122701909D01*
X143062286Y-122918371D01*
X143062292Y-122918378D01*
X143255221Y-123111307D01*
X143255227Y-123111312D01*
X143471699Y-123277417D01*
X143471706Y-123277421D01*
X143707993Y-123413842D01*
X143708009Y-123413850D01*
X143844005Y-123470181D01*
X143960088Y-123518264D01*
X144223648Y-123588885D01*
X144494171Y-123624500D01*
X144494178Y-123624500D01*
X144767022Y-123624500D01*
X144767029Y-123624500D01*
X145037552Y-123588885D01*
X145301112Y-123518264D01*
X145499275Y-123436182D01*
X145553190Y-123413850D01*
X145553193Y-123413848D01*
X145553199Y-123413846D01*
X145789501Y-123277417D01*
X146005973Y-123111312D01*
X146198912Y-122918373D01*
X146365017Y-122701901D01*
X146501446Y-122465599D01*
X146605864Y-122213512D01*
X146676485Y-121949952D01*
X146712100Y-121679429D01*
X146712100Y-121406571D01*
X146676485Y-121136048D01*
X146605864Y-120872488D01*
X146528536Y-120685801D01*
X146501450Y-120620409D01*
X146501442Y-120620393D01*
X146365021Y-120384106D01*
X146365017Y-120384099D01*
X146198912Y-120167627D01*
X146198907Y-120167621D01*
X146005978Y-119974692D01*
X146005971Y-119974686D01*
X145789509Y-119808589D01*
X145789507Y-119808587D01*
X145789501Y-119808583D01*
X145789496Y-119808580D01*
X145789493Y-119808578D01*
X145553206Y-119672157D01*
X145553190Y-119672149D01*
X145301112Y-119567736D01*
X145037548Y-119497114D01*
X144767038Y-119461501D01*
X144767035Y-119461500D01*
X144767029Y-119461500D01*
X144494171Y-119461500D01*
X144494165Y-119461500D01*
X144494161Y-119461501D01*
X144223651Y-119497114D01*
X143960087Y-119567736D01*
X143708009Y-119672149D01*
X143707993Y-119672157D01*
X143471706Y-119808578D01*
X143471690Y-119808589D01*
X143255228Y-119974686D01*
X143255221Y-119974692D01*
X143062292Y-120167621D01*
X143062286Y-120167628D01*
X142896189Y-120384090D01*
X142896178Y-120384106D01*
X142759757Y-120620393D01*
X142759749Y-120620409D01*
X142655336Y-120872487D01*
X142584714Y-121136051D01*
X142549101Y-121406561D01*
X142549100Y-121406577D01*
X141372100Y-121406577D01*
X141372100Y-121406571D01*
X141336485Y-121136048D01*
X141265864Y-120872488D01*
X141188536Y-120685801D01*
X141161450Y-120620409D01*
X141161442Y-120620393D01*
X141025021Y-120384106D01*
X141025017Y-120384099D01*
X140858912Y-120167627D01*
X140858907Y-120167621D01*
X140665978Y-119974692D01*
X140665971Y-119974686D01*
X140449509Y-119808589D01*
X140449507Y-119808587D01*
X140449501Y-119808583D01*
X140449496Y-119808580D01*
X140449493Y-119808578D01*
X140213206Y-119672157D01*
X140213190Y-119672149D01*
X139961112Y-119567736D01*
X139697548Y-119497114D01*
X139427038Y-119461501D01*
X139427035Y-119461500D01*
X139427029Y-119461500D01*
X139154171Y-119461500D01*
X139154165Y-119461500D01*
X139154161Y-119461501D01*
X138883651Y-119497114D01*
X138620087Y-119567736D01*
X138368009Y-119672149D01*
X138367993Y-119672157D01*
X138131706Y-119808578D01*
X138131690Y-119808589D01*
X137915228Y-119974686D01*
X137915221Y-119974692D01*
X137722292Y-120167621D01*
X137722286Y-120167628D01*
X137556189Y-120384090D01*
X137556178Y-120384106D01*
X137419757Y-120620393D01*
X137419749Y-120620409D01*
X137315336Y-120872487D01*
X137244714Y-121136051D01*
X137209101Y-121406561D01*
X137209100Y-121406577D01*
X136577500Y-121406577D01*
X136577500Y-121406571D01*
X136541885Y-121136048D01*
X136471264Y-120872488D01*
X136393936Y-120685801D01*
X136366850Y-120620409D01*
X136366842Y-120620393D01*
X136230421Y-120384106D01*
X136230417Y-120384099D01*
X136064312Y-120167627D01*
X136064307Y-120167621D01*
X135871378Y-119974692D01*
X135871371Y-119974686D01*
X135654909Y-119808589D01*
X135654907Y-119808587D01*
X135654901Y-119808583D01*
X135654896Y-119808580D01*
X135654893Y-119808578D01*
X135418606Y-119672157D01*
X135418590Y-119672149D01*
X135166512Y-119567736D01*
X134902948Y-119497114D01*
X134632438Y-119461501D01*
X134632435Y-119461500D01*
X134632429Y-119461500D01*
X134359571Y-119461500D01*
X134359565Y-119461500D01*
X134359561Y-119461501D01*
X134089051Y-119497114D01*
X133825487Y-119567736D01*
X133573409Y-119672149D01*
X133573393Y-119672157D01*
X133337106Y-119808578D01*
X133337090Y-119808589D01*
X133120628Y-119974686D01*
X133120621Y-119974692D01*
X132927692Y-120167621D01*
X132927686Y-120167628D01*
X132761589Y-120384090D01*
X132761578Y-120384106D01*
X132625157Y-120620393D01*
X132625149Y-120620409D01*
X132520736Y-120872487D01*
X132450114Y-121136051D01*
X132414501Y-121406561D01*
X132414500Y-121406577D01*
X131237500Y-121406577D01*
X131237500Y-121406571D01*
X131201885Y-121136048D01*
X131131264Y-120872488D01*
X131053936Y-120685801D01*
X131026850Y-120620409D01*
X131026842Y-120620393D01*
X130890421Y-120384106D01*
X130890417Y-120384099D01*
X130724312Y-120167627D01*
X130724307Y-120167621D01*
X130531378Y-119974692D01*
X130531371Y-119974686D01*
X130314909Y-119808589D01*
X130314907Y-119808587D01*
X130314901Y-119808583D01*
X130314896Y-119808580D01*
X130314893Y-119808578D01*
X130078606Y-119672157D01*
X130078590Y-119672149D01*
X129826512Y-119567736D01*
X129562948Y-119497114D01*
X129292438Y-119461501D01*
X129292435Y-119461500D01*
X129292429Y-119461500D01*
X129019571Y-119461500D01*
X129019565Y-119461500D01*
X129019561Y-119461501D01*
X128749051Y-119497114D01*
X128485487Y-119567736D01*
X128233409Y-119672149D01*
X128233393Y-119672157D01*
X127997106Y-119808578D01*
X127997090Y-119808589D01*
X127780628Y-119974686D01*
X127780621Y-119974692D01*
X127587692Y-120167621D01*
X127587686Y-120167628D01*
X127421589Y-120384090D01*
X127421578Y-120384106D01*
X127285157Y-120620393D01*
X127285149Y-120620409D01*
X127180736Y-120872487D01*
X127110114Y-121136051D01*
X127074501Y-121406561D01*
X127074500Y-121406577D01*
X123877500Y-121406577D01*
X123877500Y-121406571D01*
X123841885Y-121136048D01*
X123771264Y-120872488D01*
X123693936Y-120685801D01*
X123666850Y-120620409D01*
X123666842Y-120620393D01*
X123530421Y-120384106D01*
X123530417Y-120384099D01*
X123364312Y-120167627D01*
X123364307Y-120167621D01*
X123171378Y-119974692D01*
X123171371Y-119974686D01*
X122954909Y-119808589D01*
X122954907Y-119808587D01*
X122954901Y-119808583D01*
X122954896Y-119808580D01*
X122954893Y-119808578D01*
X122718606Y-119672157D01*
X122718590Y-119672149D01*
X122466512Y-119567736D01*
X122202948Y-119497114D01*
X121932438Y-119461501D01*
X121932435Y-119461500D01*
X121932429Y-119461500D01*
X121659571Y-119461500D01*
X121659565Y-119461500D01*
X121659561Y-119461501D01*
X121389051Y-119497114D01*
X121125487Y-119567736D01*
X120873409Y-119672149D01*
X120873393Y-119672157D01*
X120637106Y-119808578D01*
X120637090Y-119808589D01*
X120420628Y-119974686D01*
X120420621Y-119974692D01*
X120227692Y-120167621D01*
X120227686Y-120167628D01*
X120061589Y-120384090D01*
X120061578Y-120384106D01*
X119925157Y-120620393D01*
X119925149Y-120620409D01*
X119820736Y-120872487D01*
X119750114Y-121136051D01*
X119714501Y-121406561D01*
X119714500Y-121406577D01*
X118537500Y-121406577D01*
X118537500Y-121406571D01*
X118501885Y-121136048D01*
X118431264Y-120872488D01*
X118353936Y-120685801D01*
X118326850Y-120620409D01*
X118326842Y-120620393D01*
X118190421Y-120384106D01*
X118190417Y-120384099D01*
X118024312Y-120167627D01*
X118024307Y-120167621D01*
X117831378Y-119974692D01*
X117831371Y-119974686D01*
X117614909Y-119808589D01*
X117614907Y-119808587D01*
X117614901Y-119808583D01*
X117614896Y-119808580D01*
X117614893Y-119808578D01*
X117378606Y-119672157D01*
X117378590Y-119672149D01*
X117126512Y-119567736D01*
X116862948Y-119497114D01*
X116592438Y-119461501D01*
X116592435Y-119461500D01*
X116592429Y-119461500D01*
X116319571Y-119461500D01*
X116319565Y-119461500D01*
X116319561Y-119461501D01*
X116049051Y-119497114D01*
X115785487Y-119567736D01*
X115533409Y-119672149D01*
X115533393Y-119672157D01*
X115297106Y-119808578D01*
X115297090Y-119808589D01*
X115080628Y-119974686D01*
X115080621Y-119974692D01*
X114887692Y-120167621D01*
X114887686Y-120167628D01*
X114721589Y-120384090D01*
X114721578Y-120384106D01*
X114585157Y-120620393D01*
X114585149Y-120620409D01*
X114480736Y-120872487D01*
X114410114Y-121136051D01*
X114374501Y-121406561D01*
X114374500Y-121406577D01*
X113717500Y-121406577D01*
X113717500Y-121406571D01*
X113681885Y-121136048D01*
X113611264Y-120872488D01*
X113533936Y-120685801D01*
X113506850Y-120620409D01*
X113506842Y-120620393D01*
X113370421Y-120384106D01*
X113370417Y-120384099D01*
X113204312Y-120167627D01*
X113204307Y-120167621D01*
X113011378Y-119974692D01*
X113011371Y-119974686D01*
X112794909Y-119808589D01*
X112794907Y-119808587D01*
X112794901Y-119808583D01*
X112794896Y-119808580D01*
X112794893Y-119808578D01*
X112558606Y-119672157D01*
X112558590Y-119672149D01*
X112306512Y-119567736D01*
X112042948Y-119497114D01*
X111772438Y-119461501D01*
X111772435Y-119461500D01*
X111772429Y-119461500D01*
X111499571Y-119461500D01*
X111499565Y-119461500D01*
X111499561Y-119461501D01*
X111229051Y-119497114D01*
X110965487Y-119567736D01*
X110713409Y-119672149D01*
X110713393Y-119672157D01*
X110477106Y-119808578D01*
X110477090Y-119808589D01*
X110260628Y-119974686D01*
X110260621Y-119974692D01*
X110067692Y-120167621D01*
X110067686Y-120167628D01*
X109901589Y-120384090D01*
X109901578Y-120384106D01*
X109765157Y-120620393D01*
X109765149Y-120620409D01*
X109660736Y-120872487D01*
X109590114Y-121136051D01*
X109554501Y-121406561D01*
X109554500Y-121406577D01*
X108377500Y-121406577D01*
X108377500Y-121406571D01*
X108341885Y-121136048D01*
X108271264Y-120872488D01*
X108193936Y-120685801D01*
X108166850Y-120620409D01*
X108166842Y-120620393D01*
X108030421Y-120384106D01*
X108030417Y-120384099D01*
X107864312Y-120167627D01*
X107864307Y-120167621D01*
X107671378Y-119974692D01*
X107671371Y-119974686D01*
X107454909Y-119808589D01*
X107454907Y-119808587D01*
X107454901Y-119808583D01*
X107454896Y-119808580D01*
X107454893Y-119808578D01*
X107218606Y-119672157D01*
X107218590Y-119672149D01*
X106966512Y-119567736D01*
X106702948Y-119497114D01*
X106432438Y-119461501D01*
X106432435Y-119461500D01*
X106432429Y-119461500D01*
X106159571Y-119461500D01*
X106159565Y-119461500D01*
X106159561Y-119461501D01*
X105889051Y-119497114D01*
X105625487Y-119567736D01*
X105373409Y-119672149D01*
X105373393Y-119672157D01*
X105137106Y-119808578D01*
X105137090Y-119808589D01*
X104920628Y-119974686D01*
X104920621Y-119974692D01*
X104727692Y-120167621D01*
X104727686Y-120167628D01*
X104561589Y-120384090D01*
X104561578Y-120384106D01*
X104425157Y-120620393D01*
X104425149Y-120620409D01*
X104320736Y-120872487D01*
X104250114Y-121136051D01*
X104214501Y-121406561D01*
X104214500Y-121406577D01*
X55634673Y-121406577D01*
X55634438Y-120840999D01*
X55633658Y-118961228D01*
X58110800Y-118961228D01*
X58110800Y-120611563D01*
X58125566Y-120685801D01*
X58181815Y-120769984D01*
X58215534Y-120792514D01*
X58265999Y-120826234D01*
X58266002Y-120826234D01*
X58266003Y-120826235D01*
X58290966Y-120831200D01*
X58340233Y-120841000D01*
X60295366Y-120840999D01*
X60369601Y-120826234D01*
X60453784Y-120769984D01*
X60510034Y-120685801D01*
X60524800Y-120611567D01*
X60524799Y-118961234D01*
X60510034Y-118886999D01*
X60491368Y-118859065D01*
X60453784Y-118802815D01*
X60405271Y-118770400D01*
X75724466Y-118770400D01*
X75744926Y-118938908D01*
X75744927Y-118938913D01*
X75802724Y-119091310D01*
X75805120Y-119097627D01*
X75901548Y-119237327D01*
X75901550Y-119237329D01*
X75901552Y-119237331D01*
X76028604Y-119349890D01*
X76028606Y-119349891D01*
X76178911Y-119428777D01*
X76343726Y-119469400D01*
X76513474Y-119469400D01*
X76678289Y-119428777D01*
X76828594Y-119349891D01*
X76955652Y-119237327D01*
X77052080Y-119097627D01*
X77112273Y-118938910D01*
X77117313Y-118897400D01*
X85274866Y-118897400D01*
X85295326Y-119065908D01*
X85295327Y-119065913D01*
X85355520Y-119224627D01*
X85451948Y-119364327D01*
X85451950Y-119364329D01*
X85451952Y-119364331D01*
X85579004Y-119476890D01*
X85579006Y-119476891D01*
X85729311Y-119555777D01*
X85894126Y-119596400D01*
X86063874Y-119596400D01*
X86228689Y-119555777D01*
X86378994Y-119476891D01*
X86506052Y-119364327D01*
X86602480Y-119224627D01*
X86662673Y-119065910D01*
X86683134Y-118897400D01*
X91497866Y-118897400D01*
X91518326Y-119065908D01*
X91518327Y-119065913D01*
X91578520Y-119224627D01*
X91674948Y-119364327D01*
X91674950Y-119364329D01*
X91674952Y-119364331D01*
X91802004Y-119476890D01*
X91802006Y-119476891D01*
X91952311Y-119555777D01*
X92117126Y-119596400D01*
X92286874Y-119596400D01*
X92451689Y-119555777D01*
X92601994Y-119476891D01*
X92729052Y-119364327D01*
X92825480Y-119224627D01*
X92885673Y-119065910D01*
X92903050Y-118922800D01*
X93428266Y-118922800D01*
X93448726Y-119091308D01*
X93448727Y-119091313D01*
X93504105Y-119237331D01*
X93508920Y-119250027D01*
X93605348Y-119389727D01*
X93605350Y-119389729D01*
X93605352Y-119389731D01*
X93732404Y-119502290D01*
X93732406Y-119502291D01*
X93882711Y-119581177D01*
X94047526Y-119621800D01*
X94217274Y-119621800D01*
X94382089Y-119581177D01*
X94532394Y-119502291D01*
X94659452Y-119389727D01*
X94755880Y-119250027D01*
X94816073Y-119091310D01*
X94836534Y-118922800D01*
X94816073Y-118754290D01*
X94816072Y-118754288D01*
X94816072Y-118754286D01*
X94758276Y-118601891D01*
X94755880Y-118595573D01*
X94659452Y-118455873D01*
X94659449Y-118455870D01*
X94659447Y-118455868D01*
X94532395Y-118343309D01*
X94382087Y-118264422D01*
X94217274Y-118223800D01*
X94047526Y-118223800D01*
X93882712Y-118264422D01*
X93732404Y-118343309D01*
X93605352Y-118455868D01*
X93605346Y-118455875D01*
X93508921Y-118595571D01*
X93508920Y-118595572D01*
X93448727Y-118754286D01*
X93448726Y-118754291D01*
X93428266Y-118922800D01*
X92903050Y-118922800D01*
X92906134Y-118897400D01*
X92885673Y-118728890D01*
X92885672Y-118728888D01*
X92885672Y-118728886D01*
X92837509Y-118601891D01*
X92825480Y-118570173D01*
X92729052Y-118430473D01*
X92729049Y-118430470D01*
X92729047Y-118430468D01*
X92601995Y-118317909D01*
X92451687Y-118239022D01*
X92286874Y-118198400D01*
X92117126Y-118198400D01*
X91952312Y-118239022D01*
X91802004Y-118317909D01*
X91674952Y-118430468D01*
X91674946Y-118430475D01*
X91578521Y-118570171D01*
X91578520Y-118570172D01*
X91518327Y-118728886D01*
X91518326Y-118728891D01*
X91497866Y-118897400D01*
X86683134Y-118897400D01*
X86662673Y-118728890D01*
X86662672Y-118728888D01*
X86662672Y-118728886D01*
X86614509Y-118601891D01*
X86602480Y-118570173D01*
X86506052Y-118430473D01*
X86506049Y-118430470D01*
X86506047Y-118430468D01*
X86378995Y-118317909D01*
X86228687Y-118239022D01*
X86063874Y-118198400D01*
X85894126Y-118198400D01*
X85729312Y-118239022D01*
X85579004Y-118317909D01*
X85451952Y-118430468D01*
X85451946Y-118430475D01*
X85355521Y-118570171D01*
X85355520Y-118570172D01*
X85295327Y-118728886D01*
X85295326Y-118728891D01*
X85274866Y-118897400D01*
X77117313Y-118897400D01*
X77132734Y-118770400D01*
X77112273Y-118601890D01*
X77112272Y-118601888D01*
X77112272Y-118601886D01*
X77056896Y-118455873D01*
X77052080Y-118443173D01*
X76955652Y-118303473D01*
X76955649Y-118303470D01*
X76955647Y-118303468D01*
X76828595Y-118190909D01*
X76678287Y-118112022D01*
X76513474Y-118071400D01*
X76343726Y-118071400D01*
X76178912Y-118112022D01*
X76028604Y-118190909D01*
X75901552Y-118303468D01*
X75901546Y-118303475D01*
X75805121Y-118443171D01*
X75805120Y-118443172D01*
X75744927Y-118601886D01*
X75744926Y-118601891D01*
X75724466Y-118770400D01*
X60405271Y-118770400D01*
X60403319Y-118769096D01*
X60369601Y-118746566D01*
X60369599Y-118746565D01*
X60369596Y-118746564D01*
X60295369Y-118731800D01*
X58340236Y-118731800D01*
X58265998Y-118746566D01*
X58181815Y-118802815D01*
X58125566Y-118886999D01*
X58125564Y-118887003D01*
X58110800Y-118961228D01*
X55633658Y-118961228D01*
X55632903Y-117142526D01*
X58110800Y-117142526D01*
X58110800Y-117350273D01*
X58151325Y-117554008D01*
X58151327Y-117554016D01*
X58230823Y-117745938D01*
X58346238Y-117918667D01*
X58346241Y-117918671D01*
X58493128Y-118065558D01*
X58493132Y-118065561D01*
X58665859Y-118180975D01*
X58857784Y-118260473D01*
X59061526Y-118300999D01*
X59061530Y-118301000D01*
X59061531Y-118301000D01*
X59574070Y-118301000D01*
X59574071Y-118300999D01*
X59777816Y-118260473D01*
X59969741Y-118180975D01*
X60142468Y-118065561D01*
X60289361Y-117918668D01*
X60404775Y-117745941D01*
X60484273Y-117554016D01*
X60524800Y-117350269D01*
X60524800Y-117142531D01*
X60484273Y-116938784D01*
X60404775Y-116746859D01*
X60289361Y-116574132D01*
X60289358Y-116574128D01*
X60142471Y-116427241D01*
X60142467Y-116427238D01*
X59969738Y-116311823D01*
X59777816Y-116232327D01*
X59777808Y-116232325D01*
X59574073Y-116191800D01*
X59574069Y-116191800D01*
X59061531Y-116191800D01*
X59061526Y-116191800D01*
X58857791Y-116232325D01*
X58857783Y-116232327D01*
X58665861Y-116311823D01*
X58493132Y-116427238D01*
X58493128Y-116427241D01*
X58346241Y-116574128D01*
X58346238Y-116574132D01*
X58230823Y-116746861D01*
X58151327Y-116938783D01*
X58151325Y-116938791D01*
X58110800Y-117142526D01*
X55632903Y-117142526D01*
X55631112Y-112826800D01*
X85401866Y-112826800D01*
X85422326Y-112995308D01*
X85422327Y-112995313D01*
X85482520Y-113154027D01*
X85578948Y-113293727D01*
X85578950Y-113293729D01*
X85578952Y-113293731D01*
X85706004Y-113406290D01*
X85706006Y-113406291D01*
X85856311Y-113485177D01*
X86021126Y-113525800D01*
X86190874Y-113525800D01*
X86355689Y-113485177D01*
X86505994Y-113406291D01*
X86633052Y-113293727D01*
X86729480Y-113154027D01*
X86789673Y-112995310D01*
X86810134Y-112826800D01*
X86789673Y-112658290D01*
X86789672Y-112658288D01*
X86789672Y-112658286D01*
X86748745Y-112550371D01*
X86729480Y-112499573D01*
X86633052Y-112359873D01*
X86633049Y-112359870D01*
X86633047Y-112359868D01*
X86505995Y-112247309D01*
X86355687Y-112168422D01*
X86190874Y-112127800D01*
X86021126Y-112127800D01*
X85856312Y-112168422D01*
X85706004Y-112247309D01*
X85578952Y-112359868D01*
X85578946Y-112359875D01*
X85482521Y-112499571D01*
X85482520Y-112499572D01*
X85422327Y-112658286D01*
X85422326Y-112658291D01*
X85401866Y-112826800D01*
X55631112Y-112826800D01*
X55629523Y-108999996D01*
X63040493Y-108999996D01*
X63040493Y-109000003D01*
X63060504Y-109343578D01*
X63060505Y-109343589D01*
X63120264Y-109682499D01*
X63120266Y-109682507D01*
X63218973Y-110012212D01*
X63355284Y-110328215D01*
X63355290Y-110328228D01*
X63527368Y-110626277D01*
X63732882Y-110902330D01*
X63732887Y-110902336D01*
X63854862Y-111031621D01*
X63969063Y-111152667D01*
X63969069Y-111152672D01*
X63969071Y-111152674D01*
X64232702Y-111373887D01*
X64232710Y-111373893D01*
X64520242Y-111563006D01*
X64827791Y-111717463D01*
X64827792Y-111717464D01*
X64827795Y-111717465D01*
X64827799Y-111717467D01*
X65151204Y-111835177D01*
X65486087Y-111914545D01*
X65827920Y-111954500D01*
X65827927Y-111954500D01*
X66172073Y-111954500D01*
X66172080Y-111954500D01*
X66513913Y-111914545D01*
X66848796Y-111835177D01*
X67172201Y-111717467D01*
X67479754Y-111563008D01*
X67767295Y-111373889D01*
X68030937Y-111152667D01*
X68267114Y-110902334D01*
X68472632Y-110626276D01*
X68644712Y-110328224D01*
X68781027Y-110012211D01*
X68879733Y-109682509D01*
X68890144Y-109623469D01*
X68939494Y-109343589D01*
X68939493Y-109343589D01*
X68939496Y-109343578D01*
X68959507Y-109000000D01*
X68958086Y-108975609D01*
X68953262Y-108892771D01*
X68939496Y-108656422D01*
X68931207Y-108609413D01*
X68879735Y-108317500D01*
X68879733Y-108317492D01*
X68879733Y-108317491D01*
X68854996Y-108234863D01*
X73529500Y-108234863D01*
X73529500Y-108433136D01*
X73568177Y-108627577D01*
X73568180Y-108627589D01*
X73644047Y-108810750D01*
X73644054Y-108810763D01*
X73754199Y-108975605D01*
X73754202Y-108975609D01*
X73894390Y-109115797D01*
X73894394Y-109115800D01*
X74059236Y-109225945D01*
X74059249Y-109225952D01*
X74218731Y-109292011D01*
X74242415Y-109301821D01*
X74436863Y-109340499D01*
X74436867Y-109340500D01*
X74436868Y-109340500D01*
X74635133Y-109340500D01*
X74635134Y-109340499D01*
X74829585Y-109301821D01*
X75012757Y-109225949D01*
X75177606Y-109115800D01*
X75317800Y-108975606D01*
X75427949Y-108810757D01*
X75503821Y-108627585D01*
X75542500Y-108433132D01*
X75542500Y-108234868D01*
X75542499Y-108234863D01*
X81403500Y-108234863D01*
X81403500Y-108433136D01*
X81442177Y-108627577D01*
X81442180Y-108627589D01*
X81518047Y-108810750D01*
X81518054Y-108810763D01*
X81628199Y-108975605D01*
X81628202Y-108975609D01*
X81768390Y-109115797D01*
X81768394Y-109115800D01*
X81933236Y-109225945D01*
X81933249Y-109225952D01*
X82092731Y-109292011D01*
X82116415Y-109301821D01*
X82310863Y-109340499D01*
X82310867Y-109340500D01*
X82310868Y-109340500D01*
X82509133Y-109340500D01*
X82509134Y-109340499D01*
X82703585Y-109301821D01*
X82886757Y-109225949D01*
X83051606Y-109115800D01*
X83191800Y-108975606D01*
X83301949Y-108810757D01*
X83377821Y-108627585D01*
X83416500Y-108433132D01*
X83416500Y-108234868D01*
X83377821Y-108040415D01*
X83356022Y-107987787D01*
X83301952Y-107857249D01*
X83301945Y-107857236D01*
X83191800Y-107692394D01*
X83191797Y-107692390D01*
X83051609Y-107552202D01*
X83051605Y-107552199D01*
X82886763Y-107442054D01*
X82886750Y-107442047D01*
X82703589Y-107366180D01*
X82703577Y-107366177D01*
X82509136Y-107327500D01*
X82509132Y-107327500D01*
X82310868Y-107327500D01*
X82310863Y-107327500D01*
X82116422Y-107366177D01*
X82116410Y-107366180D01*
X81933249Y-107442047D01*
X81933236Y-107442054D01*
X81768394Y-107552199D01*
X81768390Y-107552202D01*
X81628202Y-107692390D01*
X81628199Y-107692394D01*
X81518054Y-107857236D01*
X81518047Y-107857249D01*
X81442180Y-108040410D01*
X81442177Y-108040422D01*
X81403500Y-108234863D01*
X75542499Y-108234863D01*
X75503821Y-108040415D01*
X75482022Y-107987787D01*
X75427952Y-107857249D01*
X75427945Y-107857236D01*
X75317800Y-107692394D01*
X75317797Y-107692390D01*
X75177609Y-107552202D01*
X75177605Y-107552199D01*
X75012763Y-107442054D01*
X75012750Y-107442047D01*
X74829589Y-107366180D01*
X74829577Y-107366177D01*
X74635136Y-107327500D01*
X74635132Y-107327500D01*
X74436868Y-107327500D01*
X74436863Y-107327500D01*
X74242422Y-107366177D01*
X74242410Y-107366180D01*
X74059249Y-107442047D01*
X74059236Y-107442054D01*
X73894394Y-107552199D01*
X73894390Y-107552202D01*
X73754202Y-107692390D01*
X73754199Y-107692394D01*
X73644054Y-107857236D01*
X73644047Y-107857249D01*
X73568180Y-108040410D01*
X73568177Y-108040422D01*
X73529500Y-108234863D01*
X68854996Y-108234863D01*
X68781027Y-107987789D01*
X68644712Y-107671776D01*
X68472632Y-107373724D01*
X68467015Y-107366179D01*
X68267117Y-107097669D01*
X68267112Y-107097663D01*
X68142625Y-106965715D01*
X68030937Y-106847333D01*
X68030930Y-106847327D01*
X68030928Y-106847325D01*
X67767297Y-106626112D01*
X67767289Y-106626106D01*
X67479757Y-106436993D01*
X67172208Y-106282536D01*
X67172207Y-106282535D01*
X66853005Y-106166355D01*
X66848796Y-106164823D01*
X66848795Y-106164822D01*
X66848793Y-106164822D01*
X66664802Y-106121216D01*
X66513913Y-106085455D01*
X66172080Y-106045500D01*
X65827920Y-106045500D01*
X65486087Y-106085455D01*
X65151206Y-106164822D01*
X64827792Y-106282535D01*
X64827791Y-106282536D01*
X64520242Y-106436993D01*
X64232710Y-106626106D01*
X64232702Y-106626112D01*
X63969071Y-106847325D01*
X63969061Y-106847335D01*
X63732887Y-107097663D01*
X63732882Y-107097669D01*
X63527368Y-107373722D01*
X63355290Y-107671771D01*
X63355284Y-107671784D01*
X63218973Y-107987787D01*
X63120266Y-108317492D01*
X63120264Y-108317500D01*
X63060505Y-108656410D01*
X63060504Y-108656421D01*
X63040493Y-108999996D01*
X55629523Y-108999996D01*
X55627701Y-104610453D01*
X55627966Y-104602335D01*
X55643975Y-104358084D01*
X55646090Y-104342017D01*
X55693055Y-104105910D01*
X55697248Y-104090263D01*
X55774629Y-103862304D01*
X55780826Y-103847343D01*
X55887301Y-103631433D01*
X55895408Y-103617393D01*
X55952697Y-103531653D01*
X56029144Y-103417241D01*
X56039006Y-103404388D01*
X56197735Y-103223393D01*
X56209193Y-103211935D01*
X56390188Y-103053206D01*
X56403041Y-103043344D01*
X56603193Y-102909608D01*
X56617233Y-102901501D01*
X56833143Y-102795026D01*
X56848104Y-102788829D01*
X57076063Y-102711448D01*
X57091710Y-102707255D01*
X57327817Y-102660290D01*
X57343884Y-102658175D01*
X57588144Y-102642165D01*
X57596242Y-102641900D01*
X74391876Y-102643292D01*
X74391993Y-102643300D01*
X74473639Y-102643300D01*
X74533938Y-102643305D01*
X74533940Y-102643304D01*
X74539993Y-102643305D01*
X74540116Y-102643300D01*
X74611361Y-102643300D01*
X74611368Y-102643300D01*
X74888909Y-102606761D01*
X75159307Y-102534308D01*
X75417934Y-102427181D01*
X75660366Y-102287213D01*
X75882454Y-102116799D01*
X76080399Y-101918854D01*
X76250813Y-101696766D01*
X76390781Y-101454334D01*
X76497908Y-101195707D01*
X76570361Y-100925309D01*
X76606900Y-100647768D01*
X76606900Y-100576508D01*
X76606912Y-100576245D01*
X76606910Y-100570275D01*
X76606912Y-100570270D01*
X76606900Y-100507300D01*
X76606900Y-100436196D01*
X76606900Y-100429240D01*
X76606884Y-100428982D01*
X76605891Y-95224600D01*
X102445266Y-95224600D01*
X102465726Y-95393108D01*
X102465727Y-95393113D01*
X102525920Y-95551827D01*
X102622348Y-95691527D01*
X102622350Y-95691529D01*
X102622352Y-95691531D01*
X102749404Y-95804090D01*
X102749406Y-95804091D01*
X102899711Y-95882977D01*
X103064526Y-95923600D01*
X103234274Y-95923600D01*
X103399089Y-95882977D01*
X103549394Y-95804091D01*
X103676452Y-95691527D01*
X103772880Y-95551827D01*
X103810284Y-95453200D01*
X111386066Y-95453200D01*
X111406526Y-95621708D01*
X111406527Y-95621713D01*
X111460002Y-95762712D01*
X111466720Y-95780427D01*
X111563148Y-95920127D01*
X111563150Y-95920129D01*
X111563152Y-95920131D01*
X111690204Y-96032690D01*
X111690206Y-96032691D01*
X111840511Y-96111577D01*
X112005326Y-96152200D01*
X112175074Y-96152200D01*
X112339889Y-96111577D01*
X112490194Y-96032691D01*
X112617252Y-95920127D01*
X112713680Y-95780427D01*
X112773873Y-95621710D01*
X112794334Y-95453200D01*
X112791250Y-95427800D01*
X115323066Y-95427800D01*
X115343526Y-95596308D01*
X115343527Y-95596313D01*
X115396507Y-95736008D01*
X115403720Y-95755027D01*
X115500148Y-95894727D01*
X115500149Y-95894728D01*
X115500152Y-95894731D01*
X115627204Y-96007290D01*
X115627206Y-96007291D01*
X115777511Y-96086177D01*
X115942326Y-96126800D01*
X116112074Y-96126800D01*
X116276889Y-96086177D01*
X116427194Y-96007291D01*
X116554252Y-95894727D01*
X116650680Y-95755027D01*
X116710873Y-95596310D01*
X116731334Y-95427800D01*
X116710873Y-95259290D01*
X116710872Y-95259288D01*
X116710872Y-95259286D01*
X116683457Y-95187000D01*
X116650680Y-95100573D01*
X116554252Y-94960873D01*
X116554249Y-94960870D01*
X116554247Y-94960868D01*
X116427195Y-94848309D01*
X116276887Y-94769422D01*
X116112074Y-94728800D01*
X115942326Y-94728800D01*
X115777512Y-94769422D01*
X115627204Y-94848309D01*
X115500152Y-94960868D01*
X115500146Y-94960875D01*
X115403721Y-95100571D01*
X115403720Y-95100572D01*
X115343527Y-95259286D01*
X115343526Y-95259291D01*
X115323066Y-95427800D01*
X112791250Y-95427800D01*
X112773873Y-95284690D01*
X112773872Y-95284688D01*
X112773872Y-95284686D01*
X112736824Y-95187000D01*
X112713680Y-95125973D01*
X112617252Y-94986273D01*
X112617249Y-94986270D01*
X112617247Y-94986268D01*
X112490195Y-94873709D01*
X112341699Y-94795773D01*
X112339889Y-94794823D01*
X112339888Y-94794822D01*
X112339887Y-94794822D01*
X112175074Y-94754200D01*
X112005326Y-94754200D01*
X111840512Y-94794822D01*
X111690204Y-94873709D01*
X111563152Y-94986268D01*
X111563146Y-94986275D01*
X111466721Y-95125971D01*
X111466720Y-95125972D01*
X111406527Y-95284686D01*
X111406526Y-95284691D01*
X111386066Y-95453200D01*
X103810284Y-95453200D01*
X103833073Y-95393110D01*
X103853534Y-95224600D01*
X103833073Y-95056090D01*
X103833072Y-95056088D01*
X103833072Y-95056086D01*
X103797748Y-94962945D01*
X103772880Y-94897373D01*
X103676452Y-94757673D01*
X103676449Y-94757670D01*
X103676447Y-94757668D01*
X103549395Y-94645109D01*
X103399087Y-94566222D01*
X103234274Y-94525600D01*
X103064526Y-94525600D01*
X102899712Y-94566222D01*
X102749404Y-94645109D01*
X102622352Y-94757668D01*
X102622346Y-94757675D01*
X102525921Y-94897371D01*
X102525920Y-94897372D01*
X102465727Y-95056086D01*
X102465726Y-95056091D01*
X102445266Y-95224600D01*
X76605891Y-95224600D01*
X76605723Y-94341188D01*
X104101854Y-94341188D01*
X104122314Y-94509696D01*
X104122315Y-94509701D01*
X104167834Y-94629722D01*
X104182508Y-94668415D01*
X104278936Y-94808115D01*
X104278938Y-94808117D01*
X104278940Y-94808119D01*
X104405992Y-94920678D01*
X104405994Y-94920679D01*
X104556299Y-94999565D01*
X104721114Y-95040188D01*
X104890862Y-95040188D01*
X105055677Y-94999565D01*
X105205982Y-94920679D01*
X105333040Y-94808115D01*
X105429468Y-94668415D01*
X105489661Y-94509698D01*
X105492296Y-94488000D01*
X108007866Y-94488000D01*
X108028326Y-94656508D01*
X108028327Y-94656513D01*
X108071149Y-94769423D01*
X108088520Y-94815227D01*
X108184948Y-94954927D01*
X108184950Y-94954929D01*
X108184952Y-94954931D01*
X108312004Y-95067490D01*
X108312006Y-95067491D01*
X108462311Y-95146377D01*
X108627126Y-95187000D01*
X108796874Y-95187000D01*
X108961689Y-95146377D01*
X109111994Y-95067491D01*
X109239052Y-94954927D01*
X109335480Y-94815227D01*
X109395673Y-94656510D01*
X109416134Y-94488000D01*
X109395673Y-94319490D01*
X109395672Y-94319488D01*
X109395672Y-94319486D01*
X109359653Y-94224512D01*
X109335480Y-94160773D01*
X109239052Y-94021073D01*
X109239049Y-94021070D01*
X109239047Y-94021068D01*
X109111995Y-93908509D01*
X108961687Y-93829622D01*
X108796874Y-93789000D01*
X108627126Y-93789000D01*
X108462312Y-93829622D01*
X108312004Y-93908509D01*
X108184952Y-94021068D01*
X108184946Y-94021075D01*
X108088521Y-94160771D01*
X108088520Y-94160772D01*
X108028327Y-94319486D01*
X108028326Y-94319491D01*
X108007866Y-94488000D01*
X105492296Y-94488000D01*
X105510122Y-94341188D01*
X105489661Y-94172678D01*
X105489660Y-94172676D01*
X105489660Y-94172674D01*
X105462308Y-94100554D01*
X105429468Y-94013961D01*
X105333040Y-93874261D01*
X105333037Y-93874258D01*
X105333035Y-93874256D01*
X105205983Y-93761697D01*
X105055675Y-93682810D01*
X104902360Y-93645022D01*
X109654088Y-93645022D01*
X109674548Y-93813530D01*
X109674549Y-93813535D01*
X109733889Y-93969999D01*
X109734742Y-93972249D01*
X109831170Y-94111949D01*
X109831172Y-94111951D01*
X109831174Y-94111953D01*
X109958226Y-94224512D01*
X109958228Y-94224513D01*
X110108533Y-94303399D01*
X110273348Y-94344022D01*
X110443096Y-94344022D01*
X110607911Y-94303399D01*
X110758216Y-94224513D01*
X110885274Y-94111949D01*
X110981702Y-93972249D01*
X111017294Y-93878400D01*
X113214866Y-93878400D01*
X113235326Y-94046908D01*
X113235327Y-94046913D01*
X113292425Y-94197467D01*
X113295520Y-94205627D01*
X113391948Y-94345327D01*
X113391950Y-94345329D01*
X113391952Y-94345331D01*
X113519004Y-94457890D01*
X113519006Y-94457891D01*
X113669311Y-94536777D01*
X113834126Y-94577400D01*
X114003874Y-94577400D01*
X114168689Y-94536777D01*
X114318994Y-94457891D01*
X114446052Y-94345327D01*
X114542480Y-94205627D01*
X114602673Y-94046910D01*
X114623134Y-93878400D01*
X114602673Y-93709890D01*
X114602672Y-93709888D01*
X114602672Y-93709886D01*
X114555991Y-93586800D01*
X114542480Y-93551173D01*
X114446052Y-93411473D01*
X114446049Y-93411470D01*
X114446047Y-93411468D01*
X114318995Y-93298909D01*
X114168687Y-93220022D01*
X114003874Y-93179400D01*
X113834126Y-93179400D01*
X113669312Y-93220022D01*
X113519004Y-93298909D01*
X113391952Y-93411468D01*
X113391946Y-93411475D01*
X113295521Y-93551171D01*
X113295520Y-93551172D01*
X113235327Y-93709886D01*
X113235326Y-93709891D01*
X113214866Y-93878400D01*
X111017294Y-93878400D01*
X111041895Y-93813532D01*
X111062356Y-93645022D01*
X111041895Y-93476512D01*
X111041894Y-93476510D01*
X111041894Y-93476508D01*
X111006326Y-93382724D01*
X110981702Y-93317795D01*
X110885274Y-93178095D01*
X110885271Y-93178092D01*
X110885269Y-93178090D01*
X110758217Y-93065531D01*
X110607909Y-92986644D01*
X110443096Y-92946022D01*
X110273348Y-92946022D01*
X110108534Y-92986644D01*
X109958226Y-93065531D01*
X109831174Y-93178090D01*
X109831168Y-93178097D01*
X109734743Y-93317793D01*
X109734742Y-93317794D01*
X109674549Y-93476508D01*
X109674548Y-93476513D01*
X109654088Y-93645022D01*
X104902360Y-93645022D01*
X104890862Y-93642188D01*
X104721114Y-93642188D01*
X104556300Y-93682810D01*
X104405992Y-93761697D01*
X104278940Y-93874256D01*
X104278934Y-93874263D01*
X104182509Y-94013959D01*
X104182508Y-94013960D01*
X104122315Y-94172674D01*
X104122314Y-94172679D01*
X104101854Y-94341188D01*
X76605723Y-94341188D01*
X76605500Y-93174039D01*
X76605765Y-93165954D01*
X76621775Y-92921684D01*
X76623890Y-92905617D01*
X76670855Y-92669510D01*
X76675048Y-92653863D01*
X76690480Y-92608400D01*
X95409466Y-92608400D01*
X95429926Y-92776908D01*
X95429927Y-92776913D01*
X95477789Y-92903112D01*
X95490120Y-92935627D01*
X95586548Y-93075327D01*
X95586550Y-93075329D01*
X95586552Y-93075331D01*
X95713604Y-93187890D01*
X95713606Y-93187891D01*
X95863911Y-93266777D01*
X96028726Y-93307400D01*
X96198474Y-93307400D01*
X96363289Y-93266777D01*
X96513594Y-93187891D01*
X96640652Y-93075327D01*
X96737080Y-92935627D01*
X96797273Y-92776910D01*
X96817734Y-92608400D01*
X96811566Y-92557600D01*
X108058666Y-92557600D01*
X108079126Y-92726108D01*
X108079127Y-92726113D01*
X108129687Y-92859427D01*
X108139320Y-92884827D01*
X108235748Y-93024527D01*
X108235750Y-93024529D01*
X108235752Y-93024531D01*
X108362804Y-93137090D01*
X108362806Y-93137091D01*
X108513111Y-93215977D01*
X108677926Y-93256600D01*
X108847674Y-93256600D01*
X109012489Y-93215977D01*
X109162794Y-93137091D01*
X109289852Y-93024527D01*
X109384228Y-92887800D01*
X122485866Y-92887800D01*
X122506326Y-93056308D01*
X122506327Y-93056313D01*
X122556228Y-93187890D01*
X122566520Y-93215027D01*
X122662948Y-93354727D01*
X122662950Y-93354729D01*
X122662952Y-93354731D01*
X122790004Y-93467290D01*
X122790006Y-93467291D01*
X122940311Y-93546177D01*
X123105126Y-93586800D01*
X123274874Y-93586800D01*
X123439689Y-93546177D01*
X123589994Y-93467291D01*
X123717052Y-93354727D01*
X123813480Y-93215027D01*
X123870176Y-93065531D01*
X123873672Y-93056313D01*
X123873673Y-93056308D01*
X123894134Y-92887800D01*
X123873673Y-92719290D01*
X123873672Y-92719288D01*
X123873672Y-92719286D01*
X123831618Y-92608400D01*
X123813480Y-92560573D01*
X123717052Y-92420873D01*
X123717049Y-92420870D01*
X123717047Y-92420868D01*
X123589995Y-92308309D01*
X123439687Y-92229422D01*
X123274874Y-92188800D01*
X123105126Y-92188800D01*
X122940312Y-92229422D01*
X122790004Y-92308309D01*
X122662952Y-92420868D01*
X122662946Y-92420875D01*
X122566521Y-92560571D01*
X122566520Y-92560572D01*
X122506327Y-92719286D01*
X122506326Y-92719291D01*
X122485866Y-92887800D01*
X109384228Y-92887800D01*
X109386280Y-92884827D01*
X109446473Y-92726110D01*
X109466934Y-92557600D01*
X109446473Y-92389090D01*
X109446472Y-92389088D01*
X109446472Y-92389086D01*
X109413942Y-92303313D01*
X109386280Y-92230373D01*
X109289852Y-92090673D01*
X109289849Y-92090670D01*
X109289847Y-92090668D01*
X109162795Y-91978109D01*
X109012487Y-91899222D01*
X108847674Y-91858600D01*
X108677926Y-91858600D01*
X108513112Y-91899222D01*
X108362804Y-91978109D01*
X108235752Y-92090668D01*
X108235746Y-92090675D01*
X108139321Y-92230371D01*
X108139320Y-92230372D01*
X108079127Y-92389086D01*
X108079126Y-92389091D01*
X108058666Y-92557600D01*
X96811566Y-92557600D01*
X96797273Y-92439890D01*
X96797272Y-92439888D01*
X96797272Y-92439886D01*
X96768373Y-92363686D01*
X96737080Y-92281173D01*
X96640652Y-92141473D01*
X96640649Y-92141470D01*
X96640647Y-92141468D01*
X96513595Y-92028909D01*
X96363287Y-91950022D01*
X96198474Y-91909400D01*
X96028726Y-91909400D01*
X95863912Y-91950022D01*
X95713604Y-92028909D01*
X95586552Y-92141468D01*
X95586546Y-92141475D01*
X95490121Y-92281171D01*
X95490120Y-92281172D01*
X95429927Y-92439886D01*
X95429926Y-92439891D01*
X95409466Y-92608400D01*
X76690480Y-92608400D01*
X76752429Y-92425904D01*
X76758626Y-92410943D01*
X76865101Y-92195033D01*
X76873208Y-92180993D01*
X76933556Y-92090675D01*
X77006944Y-91980841D01*
X77016806Y-91967988D01*
X77175535Y-91786993D01*
X77186993Y-91775535D01*
X77367988Y-91616806D01*
X77380841Y-91606944D01*
X77580993Y-91473208D01*
X77595033Y-91465101D01*
X77810943Y-91358626D01*
X77825904Y-91352429D01*
X78053863Y-91275048D01*
X78069510Y-91270855D01*
X78305617Y-91223890D01*
X78321669Y-91221776D01*
X78565971Y-91205764D01*
X78574052Y-91205500D01*
X125978694Y-91205500D01*
X126045733Y-91225185D01*
X126091488Y-91277989D01*
X126101432Y-91347147D01*
X126072407Y-91410703D01*
X126066375Y-91417181D01*
X125660960Y-91822595D01*
X125660958Y-91822598D01*
X125607390Y-91915381D01*
X125607390Y-91915382D01*
X125590583Y-91978109D01*
X125580986Y-92013925D01*
X125580983Y-92013936D01*
X125579660Y-92018871D01*
X125579660Y-93165107D01*
X125579659Y-93165107D01*
X125583138Y-93178090D01*
X125607390Y-93268598D01*
X125660959Y-93361383D01*
X127913277Y-95613701D01*
X128006063Y-95667270D01*
X128109551Y-95695000D01*
X128216690Y-95695000D01*
X128550834Y-95695000D01*
X128617873Y-95714685D01*
X128652883Y-95748559D01*
X128657344Y-95755022D01*
X128657352Y-95755031D01*
X128784404Y-95867590D01*
X128784406Y-95867591D01*
X128934711Y-95946477D01*
X129099526Y-95987100D01*
X129269274Y-95987100D01*
X129434089Y-95946477D01*
X129584394Y-95867591D01*
X129711452Y-95755027D01*
X129807880Y-95615327D01*
X129868073Y-95456610D01*
X129888534Y-95288100D01*
X129868073Y-95119590D01*
X129868072Y-95119588D01*
X129868072Y-95119586D01*
X129825045Y-95006134D01*
X129807880Y-94960873D01*
X129711452Y-94821173D01*
X129711449Y-94821170D01*
X129711447Y-94821168D01*
X129584395Y-94708609D01*
X129434087Y-94629722D01*
X129269274Y-94589100D01*
X129099526Y-94589100D01*
X128934712Y-94629722D01*
X128784404Y-94708609D01*
X128657352Y-94821168D01*
X128657344Y-94821177D01*
X128652883Y-94827641D01*
X128598600Y-94871631D01*
X128550834Y-94881200D01*
X128383026Y-94881200D01*
X128315987Y-94861515D01*
X128295345Y-94844881D01*
X126945849Y-93495385D01*
X126912364Y-93434062D01*
X126917348Y-93364370D01*
X126959220Y-93308437D01*
X127003855Y-93287307D01*
X127087149Y-93266777D01*
X127237454Y-93187891D01*
X127364512Y-93075327D01*
X127368977Y-93068859D01*
X127423260Y-93024869D01*
X127471026Y-93015300D01*
X135111294Y-93015300D01*
X135178333Y-93034985D01*
X135198975Y-93051619D01*
X136535921Y-94388565D01*
X136569406Y-94449888D01*
X136564422Y-94519580D01*
X136522550Y-94575513D01*
X136477918Y-94596642D01*
X136446764Y-94604321D01*
X136296454Y-94683209D01*
X136169402Y-94795768D01*
X136169396Y-94795775D01*
X136072971Y-94935471D01*
X136072970Y-94935472D01*
X136012777Y-95094186D01*
X136012776Y-95094191D01*
X135992316Y-95262700D01*
X136012776Y-95431208D01*
X136012777Y-95431213D01*
X136072969Y-95589925D01*
X136072970Y-95589927D01*
X136169398Y-95729627D01*
X136169400Y-95729629D01*
X136169402Y-95729631D01*
X136296454Y-95842190D01*
X136296456Y-95842191D01*
X136446761Y-95921077D01*
X136611576Y-95961700D01*
X136781324Y-95961700D01*
X136946139Y-95921077D01*
X137096444Y-95842191D01*
X137223502Y-95729627D01*
X137319930Y-95589927D01*
X137366680Y-95466654D01*
X137408856Y-95410954D01*
X137474453Y-95386896D01*
X137542644Y-95402122D01*
X137570302Y-95422946D01*
X138958175Y-96810819D01*
X138991660Y-96872142D01*
X138986676Y-96941834D01*
X138944804Y-96997767D01*
X138879340Y-97022184D01*
X138870494Y-97022500D01*
X111275496Y-97022500D01*
X111235765Y-97025560D01*
X111235750Y-97025562D01*
X111230023Y-97026450D01*
X111160760Y-97017259D01*
X111107461Y-96972082D01*
X111095099Y-96947881D01*
X111088080Y-96929373D01*
X110991652Y-96789673D01*
X110991649Y-96789670D01*
X110991647Y-96789668D01*
X110864595Y-96677109D01*
X110714287Y-96598222D01*
X110549474Y-96557600D01*
X110379726Y-96557600D01*
X110214912Y-96598222D01*
X110064604Y-96677109D01*
X109937552Y-96789668D01*
X109937546Y-96789675D01*
X109841121Y-96929371D01*
X109841118Y-96929377D01*
X109833171Y-96950331D01*
X109790993Y-97006034D01*
X109725395Y-97030090D01*
X109699585Y-97029097D01*
X109653699Y-97022500D01*
X109653696Y-97022500D01*
X93495966Y-97022500D01*
X93428927Y-97002815D01*
X93383172Y-96950011D01*
X93373228Y-96880853D01*
X93393916Y-96828060D01*
X93485880Y-96694827D01*
X93546072Y-96536113D01*
X93546073Y-96536108D01*
X93549243Y-96509999D01*
X93566534Y-96367600D01*
X93546073Y-96199090D01*
X93546072Y-96199088D01*
X93546072Y-96199086D01*
X93498556Y-96073798D01*
X93485880Y-96040373D01*
X93389452Y-95900673D01*
X93389449Y-95900670D01*
X93389447Y-95900668D01*
X93262395Y-95788109D01*
X93112087Y-95709222D01*
X92947274Y-95668600D01*
X92777526Y-95668600D01*
X92612712Y-95709222D01*
X92462404Y-95788109D01*
X92335352Y-95900668D01*
X92335346Y-95900675D01*
X92238921Y-96040371D01*
X92238920Y-96040372D01*
X92178727Y-96199086D01*
X92178726Y-96199091D01*
X92158266Y-96367600D01*
X92178726Y-96536108D01*
X92178727Y-96536113D01*
X92238920Y-96694827D01*
X92330884Y-96828060D01*
X92352767Y-96894414D01*
X92335302Y-96962066D01*
X92284034Y-97009536D01*
X92228834Y-97022500D01*
X88515991Y-97022500D01*
X88460838Y-97028430D01*
X88409316Y-97039639D01*
X88382536Y-97046986D01*
X88294553Y-97097088D01*
X88241751Y-97142840D01*
X88209630Y-97176129D01*
X88162695Y-97265852D01*
X88143013Y-97332882D01*
X88143010Y-97332894D01*
X88132500Y-97405998D01*
X88132500Y-111636008D01*
X88138430Y-111691161D01*
X88149639Y-111742683D01*
X88156986Y-111769463D01*
X88194407Y-111835177D01*
X88207089Y-111857448D01*
X88214386Y-111865869D01*
X88252840Y-111910248D01*
X88252843Y-111910251D01*
X88252844Y-111910252D01*
X88286131Y-111942371D01*
X88375849Y-111989303D01*
X88375851Y-111989303D01*
X88375852Y-111989304D01*
X88395295Y-111995013D01*
X88442888Y-112008988D01*
X88442892Y-112008988D01*
X88442894Y-112008989D01*
X88447770Y-112009690D01*
X88516000Y-112019500D01*
X88516001Y-112019500D01*
X91461528Y-112019500D01*
X91528567Y-112039185D01*
X91574322Y-112091989D01*
X91584266Y-112161147D01*
X91555241Y-112224703D01*
X91519154Y-112253295D01*
X91510586Y-112257793D01*
X91433768Y-112298109D01*
X91306716Y-112410668D01*
X91306710Y-112410675D01*
X91210285Y-112550371D01*
X91210284Y-112550372D01*
X91150091Y-112709086D01*
X91150090Y-112709091D01*
X91129630Y-112877600D01*
X91150090Y-113046108D01*
X91150091Y-113046113D01*
X91210284Y-113204827D01*
X91306712Y-113344527D01*
X91306714Y-113344529D01*
X91306716Y-113344531D01*
X91433768Y-113457090D01*
X91433770Y-113457091D01*
X91584075Y-113535977D01*
X91748890Y-113576600D01*
X91918638Y-113576600D01*
X92083453Y-113535977D01*
X92233758Y-113457091D01*
X92360816Y-113344527D01*
X92457244Y-113204827D01*
X92517437Y-113046110D01*
X92537898Y-112877600D01*
X92517437Y-112709090D01*
X92517436Y-112709088D01*
X92517436Y-112709086D01*
X92476509Y-112601171D01*
X92457244Y-112550373D01*
X92360816Y-112410673D01*
X92360813Y-112410670D01*
X92360811Y-112410668D01*
X92233759Y-112298109D01*
X92168572Y-112263897D01*
X92148374Y-112253296D01*
X92098162Y-112204712D01*
X92082187Y-112136693D01*
X92105522Y-112070836D01*
X92160758Y-112028048D01*
X92206000Y-112019500D01*
X93700090Y-112019500D01*
X93767129Y-112039185D01*
X93812884Y-112091989D01*
X93822828Y-112161147D01*
X93793803Y-112224703D01*
X93735025Y-112262477D01*
X93729765Y-112263897D01*
X93704912Y-112270022D01*
X93554604Y-112348909D01*
X93427552Y-112461468D01*
X93427546Y-112461475D01*
X93331121Y-112601171D01*
X93331120Y-112601172D01*
X93270927Y-112759886D01*
X93270926Y-112759891D01*
X93250466Y-112928400D01*
X93270926Y-113096908D01*
X93270927Y-113096913D01*
X93331120Y-113255627D01*
X93427548Y-113395327D01*
X93427550Y-113395329D01*
X93427552Y-113395331D01*
X93554604Y-113507890D01*
X93554606Y-113507891D01*
X93704911Y-113586777D01*
X93869726Y-113627400D01*
X94039474Y-113627400D01*
X94204289Y-113586777D01*
X94354594Y-113507891D01*
X94481652Y-113395327D01*
X94578080Y-113255627D01*
X94638273Y-113096910D01*
X94658734Y-112928400D01*
X94638273Y-112759890D01*
X94638272Y-112759888D01*
X94638272Y-112759886D01*
X94599740Y-112658286D01*
X94578080Y-112601173D01*
X94481652Y-112461473D01*
X94481649Y-112461470D01*
X94481647Y-112461468D01*
X94354595Y-112348909D01*
X94204287Y-112270022D01*
X94179435Y-112263897D01*
X94119054Y-112228741D01*
X94087266Y-112166521D01*
X94094162Y-112096993D01*
X94137553Y-112042230D01*
X94203663Y-112019620D01*
X94209110Y-112019500D01*
X105031991Y-112019500D01*
X105032000Y-112019500D01*
X105087163Y-112013569D01*
X105138674Y-112002363D01*
X105165461Y-111995014D01*
X105253448Y-111944911D01*
X105306252Y-111899156D01*
X105338371Y-111865869D01*
X105385303Y-111776151D01*
X105404988Y-111709112D01*
X105415500Y-111636000D01*
X105415500Y-108836000D01*
X105409569Y-108780837D01*
X105398363Y-108729326D01*
X105391014Y-108702539D01*
X105391013Y-108702538D01*
X105391013Y-108702536D01*
X105355692Y-108640509D01*
X105340911Y-108614552D01*
X105309368Y-108578150D01*
X105295159Y-108561751D01*
X105261870Y-108529630D01*
X105261869Y-108529629D01*
X105172151Y-108482697D01*
X105172150Y-108482696D01*
X105172147Y-108482695D01*
X105105117Y-108463013D01*
X105105105Y-108463010D01*
X105032001Y-108452500D01*
X105032000Y-108452500D01*
X104797524Y-108452500D01*
X104792485Y-108452929D01*
X104753570Y-108456249D01*
X104753547Y-108456252D01*
X104712162Y-108463367D01*
X104696103Y-108466651D01*
X104696096Y-108466653D01*
X104604053Y-108508838D01*
X104547433Y-108549781D01*
X104547427Y-108549786D01*
X104514783Y-108578150D01*
X104451267Y-108607260D01*
X104382095Y-108597409D01*
X104375843Y-108594349D01*
X104343678Y-108577467D01*
X104313488Y-108561622D01*
X104313489Y-108561622D01*
X104148674Y-108521000D01*
X103978926Y-108521000D01*
X103814112Y-108561622D01*
X103749203Y-108595689D01*
X103680694Y-108609413D01*
X103615641Y-108583921D01*
X103597865Y-108567094D01*
X103593241Y-108561758D01*
X103593238Y-108561755D01*
X103593232Y-108561748D01*
X103559945Y-108529629D01*
X103470227Y-108482697D01*
X103470226Y-108482696D01*
X103470223Y-108482695D01*
X103403193Y-108463013D01*
X103403181Y-108463010D01*
X103330077Y-108452500D01*
X103330076Y-108452500D01*
X103253500Y-108452500D01*
X103186461Y-108432815D01*
X103140706Y-108380011D01*
X103129500Y-108328500D01*
X103129500Y-106301500D01*
X103149185Y-106234461D01*
X103201989Y-106188706D01*
X103253500Y-106177500D01*
X105525683Y-106177500D01*
X105525696Y-106177500D01*
X105556974Y-106175608D01*
X105586649Y-106172005D01*
X105617473Y-106166356D01*
X105625227Y-106164444D01*
X105627556Y-106163871D01*
X105657230Y-106160268D01*
X105733850Y-106160268D01*
X105763524Y-106163871D01*
X105766597Y-106164628D01*
X105773607Y-106166356D01*
X105804431Y-106172005D01*
X105828171Y-106174887D01*
X105834105Y-106175608D01*
X105838892Y-106175897D01*
X105865384Y-106177500D01*
X105959598Y-106177500D01*
X106026637Y-106197185D01*
X106072392Y-106249989D01*
X106082694Y-106286554D01*
X106097926Y-106412007D01*
X106097927Y-106412013D01*
X106158120Y-106570727D01*
X106254548Y-106710427D01*
X106254550Y-106710429D01*
X106254552Y-106710431D01*
X106381605Y-106822990D01*
X106387780Y-106827253D01*
X106386370Y-106829294D01*
X106427996Y-106869569D01*
X106443972Y-106937587D01*
X106439137Y-106965715D01*
X106431012Y-106993386D01*
X106431010Y-106993394D01*
X106420500Y-107066498D01*
X106420500Y-111636008D01*
X106426430Y-111691161D01*
X106437639Y-111742683D01*
X106444986Y-111769463D01*
X106482407Y-111835177D01*
X106495089Y-111857448D01*
X106502386Y-111865869D01*
X106540840Y-111910248D01*
X106540843Y-111910251D01*
X106540844Y-111910252D01*
X106574131Y-111942371D01*
X106663289Y-111989010D01*
X106663853Y-111989305D01*
X106728443Y-112008270D01*
X106787222Y-112046044D01*
X106816247Y-112109599D01*
X106806304Y-112178758D01*
X106792463Y-112201974D01*
X106719611Y-112298445D01*
X106625151Y-112488146D01*
X106567154Y-112691986D01*
X106547601Y-112902999D01*
X106547601Y-112903000D01*
X106567154Y-113114013D01*
X106567154Y-113114015D01*
X106567155Y-113114018D01*
X106618288Y-113293731D01*
X106625151Y-113317853D01*
X106719611Y-113507554D01*
X106847324Y-113676673D01*
X106982052Y-113799493D01*
X107003935Y-113819442D01*
X107184115Y-113931005D01*
X107381726Y-114007560D01*
X107590039Y-114046500D01*
X107590042Y-114046500D01*
X107801958Y-114046500D01*
X107801961Y-114046500D01*
X108010274Y-114007560D01*
X108207885Y-113931005D01*
X108388065Y-113819442D01*
X108544677Y-113676671D01*
X108672389Y-113507554D01*
X108766850Y-113317850D01*
X108824845Y-113114018D01*
X108844399Y-112903000D01*
X108824845Y-112691982D01*
X108766850Y-112488150D01*
X108672389Y-112298446D01*
X108611809Y-112218226D01*
X108587118Y-112152866D01*
X108601683Y-112084531D01*
X108650880Y-112034919D01*
X108710764Y-112019500D01*
X108968500Y-112019500D01*
X109035539Y-112039185D01*
X109081294Y-112091989D01*
X109092500Y-112143500D01*
X109092500Y-113817063D01*
X109107266Y-113891301D01*
X109163515Y-113975484D01*
X109197234Y-113998014D01*
X109247699Y-114031734D01*
X109247702Y-114031734D01*
X109247703Y-114031735D01*
X109272666Y-114036700D01*
X109321933Y-114046500D01*
X111150066Y-114046499D01*
X111224301Y-114031734D01*
X111308484Y-113975484D01*
X111364734Y-113891301D01*
X111379500Y-113817067D01*
X111379499Y-112143499D01*
X111399184Y-112076461D01*
X111451987Y-112030706D01*
X111503499Y-112019500D01*
X116841236Y-112019500D01*
X116908275Y-112039185D01*
X116954030Y-112091989D01*
X116963974Y-112161147D01*
X116940190Y-112218227D01*
X116879611Y-112298445D01*
X116785151Y-112488146D01*
X116727154Y-112691986D01*
X116707601Y-112902999D01*
X116707601Y-112903000D01*
X116727154Y-113114013D01*
X116727154Y-113114015D01*
X116727155Y-113114018D01*
X116778288Y-113293731D01*
X116785151Y-113317853D01*
X116879611Y-113507554D01*
X117007324Y-113676673D01*
X117142052Y-113799493D01*
X117163935Y-113819442D01*
X117344115Y-113931005D01*
X117541726Y-114007560D01*
X117750039Y-114046500D01*
X117750042Y-114046500D01*
X117961958Y-114046500D01*
X117961961Y-114046500D01*
X118170274Y-114007560D01*
X118367885Y-113931005D01*
X118548065Y-113819442D01*
X118704677Y-113676671D01*
X118832389Y-113507554D01*
X118926850Y-113317850D01*
X118984845Y-113114018D01*
X119004399Y-112903000D01*
X118984845Y-112691982D01*
X118926850Y-112488150D01*
X118832389Y-112298446D01*
X118771809Y-112218226D01*
X118747118Y-112152866D01*
X118761683Y-112084531D01*
X118810880Y-112034919D01*
X118870764Y-112019500D01*
X119128500Y-112019500D01*
X119195539Y-112039185D01*
X119241294Y-112091989D01*
X119252500Y-112143500D01*
X119252500Y-113817063D01*
X119267266Y-113891301D01*
X119323515Y-113975484D01*
X119357234Y-113998014D01*
X119407699Y-114031734D01*
X119407702Y-114031734D01*
X119407703Y-114031735D01*
X119432666Y-114036700D01*
X119481933Y-114046500D01*
X121310066Y-114046499D01*
X121384301Y-114031734D01*
X121468484Y-113975484D01*
X121524734Y-113891301D01*
X121539500Y-113817067D01*
X121539499Y-112143499D01*
X121559184Y-112076461D01*
X121611987Y-112030706D01*
X121663499Y-112019500D01*
X127637991Y-112019500D01*
X127638000Y-112019500D01*
X127693163Y-112013569D01*
X127744674Y-112002363D01*
X127771461Y-111995014D01*
X127859448Y-111944911D01*
X127912252Y-111899156D01*
X127944371Y-111865869D01*
X127991303Y-111776151D01*
X128010988Y-111709112D01*
X128021500Y-111636000D01*
X128021500Y-109670879D01*
X128019432Y-109638181D01*
X128015495Y-109607185D01*
X128015492Y-109607158D01*
X128014821Y-109602260D01*
X128014820Y-109602257D01*
X128014819Y-109602248D01*
X127980873Y-109506857D01*
X127945056Y-109446866D01*
X127917895Y-109409417D01*
X127901161Y-109396491D01*
X127837769Y-109347525D01*
X127837764Y-109347522D01*
X127775193Y-109316416D01*
X127728636Y-109298246D01*
X127673341Y-109255535D01*
X127650623Y-109197680D01*
X127632873Y-109051490D01*
X127632872Y-109051488D01*
X127632872Y-109051486D01*
X127604094Y-108975605D01*
X127572680Y-108892773D01*
X127476252Y-108753073D01*
X127476249Y-108753070D01*
X127476247Y-108753068D01*
X127349195Y-108640509D01*
X127199146Y-108561758D01*
X127198889Y-108561623D01*
X127198888Y-108561622D01*
X127198887Y-108561622D01*
X127034074Y-108521000D01*
X126864326Y-108521000D01*
X126699512Y-108561622D01*
X126634603Y-108595689D01*
X126566094Y-108609413D01*
X126501041Y-108583921D01*
X126483265Y-108567094D01*
X126478641Y-108561758D01*
X126478638Y-108561755D01*
X126478632Y-108561748D01*
X126445345Y-108529629D01*
X126355627Y-108482697D01*
X126355626Y-108482696D01*
X126355623Y-108482695D01*
X126288593Y-108463013D01*
X126288581Y-108463010D01*
X126215477Y-108452500D01*
X126215476Y-108452500D01*
X126113500Y-108452500D01*
X126046461Y-108432815D01*
X126000706Y-108380011D01*
X125989500Y-108328500D01*
X125989500Y-106047500D01*
X126009185Y-105980461D01*
X126061989Y-105934706D01*
X126113500Y-105923500D01*
X128819691Y-105923500D01*
X128886730Y-105943185D01*
X128932485Y-105995989D01*
X128942429Y-106065147D01*
X128940814Y-106073442D01*
X128920166Y-106243500D01*
X128940626Y-106412008D01*
X128940627Y-106412013D01*
X129000820Y-106570727D01*
X129039049Y-106626111D01*
X129087528Y-106696345D01*
X129109411Y-106762699D01*
X129095353Y-106824261D01*
X129056696Y-106898159D01*
X129056695Y-106898160D01*
X129037013Y-106965192D01*
X129037010Y-106965204D01*
X129026500Y-107038308D01*
X129026500Y-111637828D01*
X129026501Y-111637853D01*
X129032023Y-111691095D01*
X129037554Y-111717467D01*
X129042474Y-111740924D01*
X129042935Y-111742683D01*
X129049033Y-111765925D01*
X129049033Y-111765926D01*
X129097816Y-111854647D01*
X129097821Y-111854655D01*
X129142774Y-111908125D01*
X129142779Y-111908130D01*
X129142780Y-111908131D01*
X129175586Y-111940745D01*
X129264594Y-111989010D01*
X129281278Y-111994180D01*
X129331321Y-112009690D01*
X129331325Y-112009690D01*
X129331333Y-112009693D01*
X129404277Y-112021294D01*
X129404273Y-112021294D01*
X129415401Y-112021460D01*
X129540211Y-112023322D01*
X129606947Y-112044004D01*
X129651909Y-112097485D01*
X129660820Y-112166784D01*
X129637314Y-112222034D01*
X129579611Y-112298446D01*
X129485151Y-112488146D01*
X129427154Y-112691986D01*
X129407601Y-112902999D01*
X129407601Y-112903000D01*
X129427154Y-113114013D01*
X129427154Y-113114015D01*
X129427155Y-113114018D01*
X129478288Y-113293731D01*
X129485151Y-113317853D01*
X129579611Y-113507554D01*
X129707324Y-113676673D01*
X129842052Y-113799493D01*
X129863935Y-113819442D01*
X130044115Y-113931005D01*
X130241726Y-114007560D01*
X130450039Y-114046500D01*
X130450042Y-114046500D01*
X130661958Y-114046500D01*
X130661961Y-114046500D01*
X130870274Y-114007560D01*
X131067885Y-113931005D01*
X131248065Y-113819442D01*
X131404677Y-113676671D01*
X131532389Y-113507554D01*
X131626850Y-113317850D01*
X131684845Y-113114018D01*
X131704399Y-112903000D01*
X131684845Y-112691982D01*
X131626850Y-112488150D01*
X131532389Y-112298446D01*
X131532388Y-112298445D01*
X131532388Y-112298444D01*
X131510924Y-112270022D01*
X131497886Y-112252757D01*
X131473194Y-112187398D01*
X131487758Y-112119063D01*
X131536955Y-112069450D01*
X131598689Y-112054045D01*
X131830352Y-112057502D01*
X131897088Y-112078184D01*
X131942050Y-112131665D01*
X131952500Y-112181488D01*
X131952500Y-113817063D01*
X131967266Y-113891301D01*
X132023515Y-113975484D01*
X132057234Y-113998014D01*
X132107699Y-114031734D01*
X132107702Y-114031734D01*
X132107703Y-114031735D01*
X132132666Y-114036700D01*
X132181933Y-114046500D01*
X134010066Y-114046499D01*
X134084301Y-114031734D01*
X134168484Y-113975484D01*
X134224734Y-113891301D01*
X134239500Y-113817067D01*
X134239499Y-112219323D01*
X134259184Y-112152285D01*
X134311987Y-112106530D01*
X134365348Y-112095338D01*
X139578199Y-112173142D01*
X139644934Y-112193824D01*
X139689896Y-112247305D01*
X139698806Y-112316604D01*
X139687345Y-112352398D01*
X139619752Y-112488143D01*
X139619751Y-112488144D01*
X139561754Y-112691986D01*
X139542201Y-112902999D01*
X139542201Y-112903000D01*
X139561754Y-113114013D01*
X139561754Y-113114015D01*
X139561755Y-113114018D01*
X139612888Y-113293731D01*
X139619751Y-113317853D01*
X139714211Y-113507554D01*
X139841924Y-113676673D01*
X139976652Y-113799493D01*
X139998535Y-113819442D01*
X140178715Y-113931005D01*
X140376326Y-114007560D01*
X140584639Y-114046500D01*
X140584642Y-114046500D01*
X140796558Y-114046500D01*
X140796561Y-114046500D01*
X141004874Y-114007560D01*
X141202485Y-113931005D01*
X141382665Y-113819442D01*
X141539277Y-113676671D01*
X141666989Y-113507554D01*
X141761450Y-113317850D01*
X141819445Y-113114018D01*
X141838999Y-112903000D01*
X141819445Y-112691982D01*
X141761450Y-112488150D01*
X141759953Y-112485144D01*
X141710541Y-112385910D01*
X141698280Y-112317124D01*
X141725153Y-112252629D01*
X141782629Y-112212902D01*
X141823386Y-112206653D01*
X141964953Y-112208766D01*
X142031690Y-112229449D01*
X142076651Y-112282931D01*
X142087100Y-112332752D01*
X142087100Y-113817063D01*
X142101866Y-113891301D01*
X142158115Y-113975484D01*
X142191834Y-113998014D01*
X142242299Y-114031734D01*
X142242302Y-114031734D01*
X142242303Y-114031735D01*
X142267266Y-114036700D01*
X142316533Y-114046500D01*
X144144666Y-114046499D01*
X144218901Y-114031734D01*
X144303084Y-113975484D01*
X144359334Y-113891301D01*
X144374100Y-113817067D01*
X144374099Y-112370586D01*
X144393784Y-112303548D01*
X144446587Y-112257793D01*
X144499946Y-112246601D01*
X146174276Y-112271592D01*
X146231417Y-112266095D01*
X146271000Y-112257793D01*
X146284737Y-112254912D01*
X146284746Y-112254909D01*
X146284779Y-112254903D01*
X146313461Y-112247149D01*
X146401448Y-112197046D01*
X146454252Y-112151291D01*
X146486371Y-112118004D01*
X146533303Y-112028286D01*
X146552988Y-111961247D01*
X146563500Y-111888135D01*
X146563500Y-108999996D01*
X149040493Y-108999996D01*
X149040493Y-109000003D01*
X149060504Y-109343578D01*
X149060505Y-109343589D01*
X149120264Y-109682499D01*
X149120266Y-109682507D01*
X149218973Y-110012212D01*
X149355284Y-110328215D01*
X149355290Y-110328228D01*
X149527368Y-110626277D01*
X149732882Y-110902330D01*
X149732887Y-110902336D01*
X149854862Y-111031621D01*
X149969063Y-111152667D01*
X149969069Y-111152672D01*
X149969071Y-111152674D01*
X150232702Y-111373887D01*
X150232710Y-111373893D01*
X150520242Y-111563006D01*
X150827791Y-111717463D01*
X150827792Y-111717464D01*
X150827795Y-111717465D01*
X150827799Y-111717467D01*
X151151204Y-111835177D01*
X151486087Y-111914545D01*
X151827920Y-111954500D01*
X151827927Y-111954500D01*
X152172073Y-111954500D01*
X152172080Y-111954500D01*
X152513913Y-111914545D01*
X152848796Y-111835177D01*
X153172201Y-111717467D01*
X153479754Y-111563008D01*
X153767295Y-111373889D01*
X154030937Y-111152667D01*
X154267114Y-110902334D01*
X154472632Y-110626276D01*
X154644712Y-110328224D01*
X154781027Y-110012211D01*
X154879733Y-109682509D01*
X154879732Y-109682509D01*
X154880768Y-109679052D01*
X154882038Y-109679432D01*
X154913954Y-109623469D01*
X154975885Y-109591122D01*
X155045473Y-109597394D01*
X155100623Y-109640291D01*
X155118433Y-109679290D01*
X155119232Y-109679052D01*
X155218973Y-110012212D01*
X155355284Y-110328215D01*
X155355290Y-110328228D01*
X155527368Y-110626277D01*
X155732882Y-110902330D01*
X155732887Y-110902336D01*
X155854862Y-111031621D01*
X155969063Y-111152667D01*
X155969069Y-111152672D01*
X155969071Y-111152674D01*
X156232702Y-111373887D01*
X156232710Y-111373893D01*
X156520242Y-111563006D01*
X156827791Y-111717463D01*
X156827792Y-111717464D01*
X156827795Y-111717465D01*
X156827799Y-111717467D01*
X157151204Y-111835177D01*
X157486087Y-111914545D01*
X157827920Y-111954500D01*
X157827927Y-111954500D01*
X158172073Y-111954500D01*
X158172080Y-111954500D01*
X158513913Y-111914545D01*
X158848796Y-111835177D01*
X159172201Y-111717467D01*
X159479754Y-111563008D01*
X159767295Y-111373889D01*
X160030937Y-111152667D01*
X160267114Y-110902334D01*
X160472632Y-110626276D01*
X160644712Y-110328224D01*
X160781027Y-110012211D01*
X160879733Y-109682509D01*
X160890144Y-109623469D01*
X160939494Y-109343589D01*
X160939493Y-109343589D01*
X160939496Y-109343578D01*
X160959507Y-109000000D01*
X160958086Y-108975609D01*
X160953262Y-108892771D01*
X160939496Y-108656422D01*
X160931207Y-108609413D01*
X160879735Y-108317500D01*
X160879733Y-108317492D01*
X160879733Y-108317491D01*
X160781027Y-107987789D01*
X160644712Y-107671776D01*
X160472632Y-107373724D01*
X160467015Y-107366179D01*
X160267117Y-107097669D01*
X160267112Y-107097663D01*
X160142625Y-106965715D01*
X160030937Y-106847333D01*
X160030930Y-106847327D01*
X160030928Y-106847325D01*
X159767297Y-106626112D01*
X159767289Y-106626106D01*
X159479757Y-106436993D01*
X159172208Y-106282536D01*
X159172207Y-106282535D01*
X158853005Y-106166355D01*
X158848796Y-106164823D01*
X158848795Y-106164822D01*
X158848793Y-106164822D01*
X158664802Y-106121216D01*
X158513913Y-106085455D01*
X158172080Y-106045500D01*
X157827920Y-106045500D01*
X157486087Y-106085455D01*
X157151206Y-106164822D01*
X156827792Y-106282535D01*
X156827791Y-106282536D01*
X156520242Y-106436993D01*
X156232710Y-106626106D01*
X156232702Y-106626112D01*
X155969071Y-106847325D01*
X155969061Y-106847335D01*
X155732887Y-107097663D01*
X155732882Y-107097669D01*
X155527368Y-107373722D01*
X155355290Y-107671771D01*
X155355284Y-107671784D01*
X155218973Y-107987787D01*
X155119232Y-108320948D01*
X155117964Y-108320568D01*
X155086035Y-108376541D01*
X155024100Y-108408879D01*
X154954513Y-108402600D01*
X154899368Y-108359695D01*
X154881563Y-108320709D01*
X154880768Y-108320948D01*
X154796782Y-108040415D01*
X154781027Y-107987789D01*
X154644712Y-107671776D01*
X154472632Y-107373724D01*
X154467015Y-107366179D01*
X154267117Y-107097669D01*
X154267112Y-107097663D01*
X154142625Y-106965715D01*
X154030937Y-106847333D01*
X154030930Y-106847327D01*
X154030928Y-106847325D01*
X153767297Y-106626112D01*
X153767289Y-106626106D01*
X153479757Y-106436993D01*
X153172208Y-106282536D01*
X153172207Y-106282535D01*
X152853005Y-106166355D01*
X152848796Y-106164823D01*
X152848795Y-106164822D01*
X152848793Y-106164822D01*
X152664802Y-106121216D01*
X152513913Y-106085455D01*
X152172080Y-106045500D01*
X151827920Y-106045500D01*
X151486087Y-106085455D01*
X151151206Y-106164822D01*
X150827792Y-106282535D01*
X150827791Y-106282536D01*
X150520242Y-106436993D01*
X150232710Y-106626106D01*
X150232702Y-106626112D01*
X149969071Y-106847325D01*
X149969061Y-106847335D01*
X149732887Y-107097663D01*
X149732882Y-107097669D01*
X149527368Y-107373722D01*
X149355290Y-107671771D01*
X149355284Y-107671784D01*
X149218973Y-107987787D01*
X149120266Y-108317492D01*
X149120264Y-108317500D01*
X149060505Y-108656410D01*
X149060504Y-108656421D01*
X149040493Y-108999996D01*
X146563500Y-108999996D01*
X146563500Y-103175362D01*
X146562013Y-103147621D01*
X146559179Y-103121263D01*
X146528924Y-103024639D01*
X146495439Y-102963316D01*
X146495437Y-102963312D01*
X146451183Y-102904197D01*
X146451178Y-102904192D01*
X146451175Y-102904187D01*
X146451171Y-102904183D01*
X146451165Y-102904176D01*
X145998088Y-102451100D01*
X145964603Y-102389777D01*
X145969587Y-102320086D01*
X146011458Y-102264152D01*
X146028130Y-102253630D01*
X146145194Y-102192191D01*
X146272252Y-102079627D01*
X146368680Y-101939927D01*
X146428873Y-101781210D01*
X146449334Y-101612700D01*
X146446577Y-101589998D01*
X155374843Y-101589998D01*
X155374843Y-101590001D01*
X155395430Y-101825315D01*
X155395432Y-101825326D01*
X155456566Y-102053483D01*
X155456570Y-102053492D01*
X155556400Y-102267579D01*
X155556402Y-102267583D01*
X155615072Y-102351373D01*
X155615073Y-102351373D01*
X156238871Y-101727574D01*
X156254755Y-101786853D01*
X156321898Y-101903147D01*
X156416853Y-101998102D01*
X156533147Y-102065245D01*
X156592424Y-102081128D01*
X155968625Y-102704925D01*
X156045031Y-102758425D01*
X156088655Y-102813002D01*
X156095848Y-102882501D01*
X156064326Y-102944855D01*
X156045029Y-102961576D01*
X155968625Y-103015072D01*
X156592424Y-103638871D01*
X156533147Y-103654755D01*
X156416853Y-103721898D01*
X156321898Y-103816853D01*
X156254755Y-103933147D01*
X156238872Y-103992424D01*
X155615073Y-103368625D01*
X155615072Y-103368625D01*
X155556401Y-103452419D01*
X155456570Y-103666507D01*
X155456566Y-103666516D01*
X155395432Y-103894673D01*
X155395430Y-103894684D01*
X155374843Y-104129998D01*
X155374843Y-104130001D01*
X155395430Y-104365315D01*
X155395432Y-104365326D01*
X155456566Y-104593483D01*
X155456570Y-104593492D01*
X155556400Y-104807579D01*
X155556402Y-104807583D01*
X155615072Y-104891373D01*
X155615073Y-104891373D01*
X156238871Y-104267574D01*
X156254755Y-104326853D01*
X156321898Y-104443147D01*
X156416853Y-104538102D01*
X156533147Y-104605245D01*
X156592424Y-104621128D01*
X155968625Y-105244925D01*
X156052421Y-105303599D01*
X156266507Y-105403429D01*
X156266516Y-105403433D01*
X156494673Y-105464567D01*
X156494684Y-105464569D01*
X156729998Y-105485157D01*
X156730002Y-105485157D01*
X156965315Y-105464569D01*
X156965326Y-105464567D01*
X157193483Y-105403433D01*
X157193492Y-105403429D01*
X157407578Y-105303600D01*
X157407582Y-105303598D01*
X157491373Y-105244926D01*
X157491373Y-105244925D01*
X156867575Y-104621128D01*
X156926853Y-104605245D01*
X157043147Y-104538102D01*
X157138102Y-104443147D01*
X157205245Y-104326853D01*
X157221128Y-104267575D01*
X157844925Y-104891373D01*
X157844926Y-104891373D01*
X157903598Y-104807582D01*
X157903600Y-104807578D01*
X158003429Y-104593492D01*
X158003435Y-104593478D01*
X158010844Y-104565826D01*
X158047207Y-104506165D01*
X158110054Y-104475634D01*
X158179429Y-104483928D01*
X158233308Y-104528412D01*
X158241619Y-104542645D01*
X158326912Y-104713935D01*
X158450269Y-104877287D01*
X158601537Y-105015185D01*
X158601539Y-105015187D01*
X158775569Y-105122942D01*
X158775575Y-105122945D01*
X158816010Y-105138609D01*
X158966444Y-105196888D01*
X159167653Y-105234500D01*
X159167656Y-105234500D01*
X159372344Y-105234500D01*
X159372347Y-105234500D01*
X159573556Y-105196888D01*
X159764427Y-105122944D01*
X159938462Y-105015186D01*
X160089732Y-104877285D01*
X160213088Y-104713935D01*
X160304328Y-104530701D01*
X160360345Y-104333821D01*
X160379232Y-104130000D01*
X160360345Y-103926179D01*
X160304328Y-103729299D01*
X160213088Y-103546065D01*
X160110705Y-103410488D01*
X160089730Y-103382712D01*
X159938462Y-103244814D01*
X159938460Y-103244812D01*
X159764430Y-103137057D01*
X159764424Y-103137054D01*
X159613993Y-103078777D01*
X159573556Y-103063112D01*
X159382715Y-103027438D01*
X159320434Y-102995770D01*
X159285161Y-102935457D01*
X159281500Y-102905549D01*
X159281500Y-102814450D01*
X159301185Y-102747411D01*
X159353989Y-102701656D01*
X159382707Y-102692563D01*
X159573556Y-102656888D01*
X159764427Y-102582944D01*
X159938462Y-102475186D01*
X160089732Y-102337285D01*
X160213088Y-102173935D01*
X160304328Y-101990701D01*
X160360345Y-101793821D01*
X160379232Y-101590000D01*
X160360345Y-101386179D01*
X160304328Y-101189299D01*
X160213088Y-101006065D01*
X160130568Y-100896791D01*
X160089730Y-100842712D01*
X159938462Y-100704814D01*
X159938460Y-100704812D01*
X159764430Y-100597057D01*
X159764424Y-100597054D01*
X159613993Y-100538777D01*
X159573556Y-100523112D01*
X159372347Y-100485500D01*
X159167653Y-100485500D01*
X158966444Y-100523112D01*
X158966441Y-100523112D01*
X158966441Y-100523113D01*
X158775575Y-100597054D01*
X158775569Y-100597057D01*
X158601539Y-100704812D01*
X158601537Y-100704814D01*
X158450269Y-100842712D01*
X158326912Y-101006064D01*
X158241619Y-101177354D01*
X158194116Y-101228591D01*
X158126453Y-101246012D01*
X158060112Y-101224086D01*
X158016158Y-101169775D01*
X158010844Y-101154174D01*
X158003434Y-101126518D01*
X158003429Y-101126507D01*
X157903600Y-100912423D01*
X157903599Y-100912421D01*
X157844925Y-100828626D01*
X157844925Y-100828625D01*
X157221127Y-101452423D01*
X157205245Y-101393147D01*
X157138102Y-101276853D01*
X157043147Y-101181898D01*
X156926853Y-101114755D01*
X156867575Y-101098871D01*
X157491373Y-100475073D01*
X157491373Y-100475072D01*
X157407583Y-100416402D01*
X157407579Y-100416400D01*
X157193492Y-100316570D01*
X157193477Y-100316564D01*
X157160960Y-100307851D01*
X157101300Y-100271486D01*
X157070772Y-100208638D01*
X157079067Y-100139263D01*
X157123553Y-100085386D01*
X157148257Y-100072452D01*
X157224427Y-100042944D01*
X157398462Y-99935186D01*
X157549732Y-99797285D01*
X157673088Y-99633935D01*
X157764328Y-99450701D01*
X157820345Y-99253821D01*
X157839232Y-99050000D01*
X157839232Y-99049999D01*
X158160768Y-99049999D01*
X158160768Y-99050000D01*
X158179654Y-99253816D01*
X158235673Y-99450704D01*
X158326912Y-99633935D01*
X158450269Y-99797287D01*
X158529760Y-99869752D01*
X158597028Y-99931075D01*
X158601537Y-99935185D01*
X158601539Y-99935187D01*
X158775569Y-100042942D01*
X158775575Y-100042945D01*
X158775578Y-100042946D01*
X158966444Y-100116888D01*
X159167653Y-100154500D01*
X159167656Y-100154500D01*
X159372344Y-100154500D01*
X159372347Y-100154500D01*
X159573556Y-100116888D01*
X159764427Y-100042944D01*
X159938462Y-99935186D01*
X160089732Y-99797285D01*
X160213088Y-99633935D01*
X160304328Y-99450701D01*
X160360345Y-99253821D01*
X160379232Y-99050000D01*
X160360345Y-98846179D01*
X160304328Y-98649299D01*
X160213088Y-98466065D01*
X160089732Y-98302715D01*
X160089730Y-98302712D01*
X159938462Y-98164814D01*
X159938460Y-98164812D01*
X159764430Y-98057057D01*
X159764424Y-98057054D01*
X159613993Y-97998777D01*
X159573556Y-97983112D01*
X159372347Y-97945500D01*
X159167653Y-97945500D01*
X158966444Y-97983112D01*
X158966441Y-97983112D01*
X158966441Y-97983113D01*
X158775575Y-98057054D01*
X158775569Y-98057057D01*
X158601539Y-98164812D01*
X158601537Y-98164814D01*
X158450269Y-98302712D01*
X158326912Y-98466064D01*
X158235673Y-98649295D01*
X158179654Y-98846183D01*
X158160768Y-99049999D01*
X157839232Y-99049999D01*
X157820345Y-98846179D01*
X157764328Y-98649299D01*
X157673088Y-98466065D01*
X157549732Y-98302715D01*
X157549730Y-98302712D01*
X157398462Y-98164814D01*
X157398460Y-98164812D01*
X157224430Y-98057057D01*
X157224424Y-98057054D01*
X157073993Y-97998777D01*
X157033556Y-97983112D01*
X156832347Y-97945500D01*
X156627653Y-97945500D01*
X156426444Y-97983112D01*
X156426441Y-97983112D01*
X156426441Y-97983113D01*
X156235575Y-98057054D01*
X156235569Y-98057057D01*
X156061539Y-98164812D01*
X156061537Y-98164814D01*
X155910269Y-98302712D01*
X155786912Y-98466064D01*
X155695673Y-98649295D01*
X155639654Y-98846183D01*
X155620768Y-99049999D01*
X155620768Y-99050000D01*
X155639654Y-99253816D01*
X155695673Y-99450704D01*
X155786912Y-99633935D01*
X155910269Y-99797287D01*
X155989760Y-99869752D01*
X156057028Y-99931075D01*
X156061537Y-99935185D01*
X156061539Y-99935187D01*
X156235569Y-100042942D01*
X156235571Y-100042943D01*
X156235573Y-100042944D01*
X156235576Y-100042945D01*
X156235578Y-100042946D01*
X156311737Y-100072450D01*
X156367139Y-100115023D01*
X156390730Y-100180789D01*
X156375019Y-100248870D01*
X156324996Y-100297649D01*
X156299040Y-100307851D01*
X156266519Y-100316565D01*
X156266507Y-100316570D01*
X156052419Y-100416401D01*
X155968625Y-100475072D01*
X156592424Y-101098871D01*
X156533147Y-101114755D01*
X156416853Y-101181898D01*
X156321898Y-101276853D01*
X156254755Y-101393147D01*
X156238872Y-101452424D01*
X155615073Y-100828625D01*
X155615072Y-100828625D01*
X155556401Y-100912419D01*
X155456570Y-101126507D01*
X155456566Y-101126516D01*
X155395432Y-101354673D01*
X155395430Y-101354684D01*
X155374843Y-101589998D01*
X146446577Y-101589998D01*
X146428873Y-101444190D01*
X146428872Y-101444188D01*
X146428872Y-101444186D01*
X146376652Y-101306494D01*
X146368680Y-101285473D01*
X146272252Y-101145773D01*
X146272249Y-101145770D01*
X146272247Y-101145768D01*
X146145195Y-101033209D01*
X145994887Y-100954322D01*
X145830074Y-100913700D01*
X145673005Y-100913700D01*
X145605966Y-100894015D01*
X145585324Y-100877381D01*
X144639019Y-99931075D01*
X144605534Y-99869752D01*
X144602700Y-99843394D01*
X144602700Y-97019306D01*
X144622385Y-96952267D01*
X144639019Y-96931625D01*
X145267825Y-96302819D01*
X145329148Y-96269334D01*
X145355506Y-96266500D01*
X145449074Y-96266500D01*
X145613889Y-96225877D01*
X145764194Y-96146991D01*
X145891252Y-96034427D01*
X145987680Y-95894727D01*
X146047873Y-95736010D01*
X146068334Y-95567500D01*
X146047873Y-95398990D01*
X146047872Y-95398988D01*
X146047872Y-95398986D01*
X146015834Y-95314510D01*
X145987680Y-95240273D01*
X145918562Y-95140139D01*
X145896680Y-95073786D01*
X145914145Y-95006134D01*
X145965413Y-94958664D01*
X146020613Y-94945700D01*
X146578985Y-94945700D01*
X146646024Y-94965385D01*
X146691779Y-95018189D01*
X146702081Y-95084646D01*
X146696844Y-95127778D01*
X146703500Y-95182600D01*
X146692039Y-95251523D01*
X146668086Y-95285225D01*
X146638800Y-95314510D01*
X146638798Y-95314514D01*
X146585230Y-95407297D01*
X146585230Y-95407298D01*
X146567827Y-95472250D01*
X146567374Y-95473940D01*
X146567373Y-95473942D01*
X146557500Y-95510784D01*
X146557500Y-99688119D01*
X146537815Y-99755158D01*
X146515728Y-99780934D01*
X146437348Y-99850372D01*
X146437346Y-99850375D01*
X146340921Y-99990071D01*
X146340920Y-99990072D01*
X146280727Y-100148786D01*
X146280726Y-100148791D01*
X146260266Y-100317300D01*
X146280726Y-100485808D01*
X146280727Y-100485813D01*
X146322917Y-100597057D01*
X146340920Y-100644527D01*
X146437348Y-100784227D01*
X146437350Y-100784229D01*
X146437352Y-100784231D01*
X146564404Y-100896790D01*
X146564406Y-100896791D01*
X146714711Y-100975677D01*
X146879526Y-101016300D01*
X147049274Y-101016300D01*
X147214089Y-100975677D01*
X147364394Y-100896791D01*
X147491452Y-100784227D01*
X147587880Y-100644527D01*
X147648073Y-100485810D01*
X147668534Y-100317300D01*
X147648073Y-100148790D01*
X147648072Y-100148788D01*
X147648072Y-100148786D01*
X147607932Y-100042946D01*
X147587880Y-99990073D01*
X147491452Y-99850373D01*
X147413071Y-99780933D01*
X147375946Y-99721744D01*
X147371300Y-99688119D01*
X147371300Y-95950541D01*
X147390985Y-95883502D01*
X147443789Y-95837747D01*
X147480360Y-95827444D01*
X147485839Y-95826778D01*
X147485852Y-95826778D01*
X147650667Y-95786155D01*
X147800972Y-95707269D01*
X147928030Y-95594705D01*
X148024458Y-95455005D01*
X148084651Y-95296288D01*
X148105112Y-95127778D01*
X148084651Y-94959268D01*
X148084650Y-94959266D01*
X148084650Y-94959264D01*
X148043875Y-94851749D01*
X148038508Y-94782086D01*
X148071656Y-94720579D01*
X148132794Y-94686758D01*
X148159817Y-94683778D01*
X154276972Y-94683778D01*
X154344011Y-94703463D01*
X154364653Y-94720097D01*
X155657032Y-96012475D01*
X155690517Y-96073798D01*
X155688618Y-96134089D01*
X155639654Y-96306181D01*
X155620768Y-96509999D01*
X155620768Y-96510000D01*
X155639654Y-96713816D01*
X155639654Y-96713818D01*
X155639655Y-96713821D01*
X155672159Y-96828060D01*
X155695673Y-96910704D01*
X155786912Y-97093935D01*
X155910269Y-97257287D01*
X156061537Y-97395185D01*
X156061539Y-97395187D01*
X156235569Y-97502942D01*
X156235575Y-97502945D01*
X156276010Y-97518609D01*
X156426444Y-97576888D01*
X156627653Y-97614500D01*
X156627656Y-97614500D01*
X156832344Y-97614500D01*
X156832347Y-97614500D01*
X157033556Y-97576888D01*
X157224427Y-97502944D01*
X157398462Y-97395186D01*
X157527008Y-97278000D01*
X157549730Y-97257287D01*
X157549732Y-97257285D01*
X157673088Y-97093935D01*
X157764328Y-96910701D01*
X157820345Y-96713821D01*
X157839232Y-96510000D01*
X157839232Y-96509999D01*
X158160768Y-96509999D01*
X158160768Y-96510000D01*
X158179654Y-96713816D01*
X158179654Y-96713818D01*
X158179655Y-96713821D01*
X158212159Y-96828060D01*
X158235673Y-96910704D01*
X158326912Y-97093935D01*
X158450269Y-97257287D01*
X158601537Y-97395185D01*
X158601539Y-97395187D01*
X158775569Y-97502942D01*
X158775575Y-97502945D01*
X158816010Y-97518609D01*
X158966444Y-97576888D01*
X159167653Y-97614500D01*
X159167656Y-97614500D01*
X159372344Y-97614500D01*
X159372347Y-97614500D01*
X159573556Y-97576888D01*
X159764427Y-97502944D01*
X159938462Y-97395186D01*
X160067008Y-97278000D01*
X160089730Y-97257287D01*
X160089732Y-97257285D01*
X160213088Y-97093935D01*
X160304328Y-96910701D01*
X160360345Y-96713821D01*
X160379232Y-96510000D01*
X160360345Y-96306179D01*
X160304328Y-96109299D01*
X160213088Y-95926065D01*
X160107433Y-95786155D01*
X160089730Y-95762712D01*
X159938462Y-95624814D01*
X159938460Y-95624812D01*
X159764430Y-95517057D01*
X159764424Y-95517054D01*
X159599596Y-95453200D01*
X159573556Y-95443112D01*
X159372347Y-95405500D01*
X159167653Y-95405500D01*
X158966444Y-95443112D01*
X158966441Y-95443112D01*
X158966441Y-95443113D01*
X158775575Y-95517054D01*
X158775569Y-95517057D01*
X158601539Y-95624812D01*
X158601537Y-95624814D01*
X158450269Y-95762712D01*
X158326912Y-95926064D01*
X158235673Y-96109295D01*
X158179654Y-96306183D01*
X158160768Y-96509999D01*
X157839232Y-96509999D01*
X157820345Y-96306179D01*
X157764328Y-96109299D01*
X157673088Y-95926065D01*
X157567433Y-95786155D01*
X157549730Y-95762712D01*
X157398462Y-95624814D01*
X157398460Y-95624812D01*
X157224430Y-95517057D01*
X157224424Y-95517054D01*
X157059596Y-95453200D01*
X157033556Y-95443112D01*
X156832347Y-95405500D01*
X156627653Y-95405500D01*
X156490126Y-95431208D01*
X156426438Y-95443113D01*
X156366360Y-95466388D01*
X156296737Y-95472250D01*
X156234997Y-95439540D01*
X156233886Y-95438442D01*
X155132103Y-94336659D01*
X155098618Y-94275336D01*
X155103602Y-94205644D01*
X155145474Y-94149711D01*
X155210938Y-94125294D01*
X155219784Y-94124978D01*
X155532118Y-94124978D01*
X155599157Y-94144663D01*
X155644912Y-94197467D01*
X155651381Y-94215035D01*
X155676523Y-94303399D01*
X155695672Y-94370703D01*
X155786912Y-94553935D01*
X155910269Y-94717287D01*
X156061537Y-94855185D01*
X156061539Y-94855187D01*
X156235569Y-94962942D01*
X156235575Y-94962945D01*
X156276010Y-94978609D01*
X156426444Y-95036888D01*
X156627653Y-95074500D01*
X156627656Y-95074500D01*
X156832344Y-95074500D01*
X156832347Y-95074500D01*
X157033556Y-95036888D01*
X157224427Y-94962944D01*
X157398462Y-94855186D01*
X157546119Y-94720579D01*
X157549730Y-94717287D01*
X157549732Y-94717285D01*
X157673088Y-94553935D01*
X157764328Y-94370701D01*
X157820345Y-94173821D01*
X157839232Y-93970000D01*
X157839232Y-93969999D01*
X158160768Y-93969999D01*
X158160768Y-93970000D01*
X158179654Y-94173816D01*
X158179654Y-94173818D01*
X158179655Y-94173821D01*
X158228454Y-94345331D01*
X158235673Y-94370704D01*
X158326912Y-94553935D01*
X158450269Y-94717287D01*
X158601537Y-94855185D01*
X158601539Y-94855187D01*
X158775569Y-94962942D01*
X158775575Y-94962945D01*
X158816010Y-94978609D01*
X158966444Y-95036888D01*
X159167653Y-95074500D01*
X159167656Y-95074500D01*
X159372344Y-95074500D01*
X159372347Y-95074500D01*
X159573556Y-95036888D01*
X159764427Y-94962944D01*
X159938462Y-94855186D01*
X160086119Y-94720579D01*
X160089730Y-94717287D01*
X160089732Y-94717285D01*
X160213088Y-94553935D01*
X160304328Y-94370701D01*
X160360345Y-94173821D01*
X160379232Y-93970000D01*
X160360345Y-93766179D01*
X160304328Y-93569299D01*
X160213088Y-93386065D01*
X160089732Y-93222715D01*
X160089730Y-93222712D01*
X159938462Y-93084814D01*
X159938460Y-93084812D01*
X159764430Y-92977057D01*
X159764424Y-92977054D01*
X159606803Y-92915992D01*
X159573556Y-92903112D01*
X159372347Y-92865500D01*
X159167653Y-92865500D01*
X158966444Y-92903112D01*
X158966441Y-92903112D01*
X158966441Y-92903113D01*
X158775575Y-92977054D01*
X158775569Y-92977057D01*
X158601539Y-93084812D01*
X158601537Y-93084814D01*
X158450269Y-93222712D01*
X158326912Y-93386064D01*
X158235673Y-93569295D01*
X158179654Y-93766183D01*
X158160768Y-93969999D01*
X157839232Y-93969999D01*
X157820345Y-93766179D01*
X157764328Y-93569299D01*
X157673088Y-93386065D01*
X157602074Y-93292027D01*
X157577382Y-93226665D01*
X157591947Y-93158331D01*
X157641145Y-93108718D01*
X157701028Y-93093300D01*
X158067167Y-93093300D01*
X158067170Y-93093300D01*
X158170658Y-93065570D01*
X158263443Y-93012001D01*
X158773887Y-92501555D01*
X158835208Y-92468072D01*
X158904899Y-92473056D01*
X158906360Y-92473612D01*
X158966436Y-92496885D01*
X158966444Y-92496888D01*
X159167653Y-92534500D01*
X159167656Y-92534500D01*
X159372344Y-92534500D01*
X159372347Y-92534500D01*
X159573556Y-92496888D01*
X159764427Y-92422944D01*
X159938462Y-92315186D01*
X160077101Y-92188800D01*
X160089730Y-92177287D01*
X160116774Y-92141475D01*
X160213088Y-92013935D01*
X160304328Y-91830701D01*
X160360345Y-91633821D01*
X160379232Y-91430000D01*
X160360345Y-91226179D01*
X160304328Y-91029299D01*
X160213088Y-90846065D01*
X160089732Y-90682715D01*
X160089730Y-90682712D01*
X159938462Y-90544814D01*
X159938460Y-90544812D01*
X159764430Y-90437057D01*
X159764424Y-90437054D01*
X159613993Y-90378777D01*
X159573556Y-90363112D01*
X159372347Y-90325500D01*
X159167653Y-90325500D01*
X158966444Y-90363112D01*
X158966441Y-90363112D01*
X158966441Y-90363113D01*
X158775575Y-90437054D01*
X158775569Y-90437057D01*
X158601539Y-90544812D01*
X158601537Y-90544814D01*
X158450269Y-90682712D01*
X158326912Y-90846064D01*
X158235673Y-91029295D01*
X158179654Y-91226183D01*
X158160768Y-91429999D01*
X158160768Y-91430000D01*
X158179654Y-91633820D01*
X158179655Y-91633823D01*
X158228617Y-91805907D01*
X158228030Y-91875774D01*
X158197032Y-91927522D01*
X157881373Y-92243182D01*
X157820052Y-92276666D01*
X157793694Y-92279500D01*
X157721568Y-92279500D01*
X157654529Y-92259815D01*
X157608774Y-92207011D01*
X157598830Y-92137853D01*
X157622614Y-92080773D01*
X157673088Y-92013935D01*
X157764328Y-91830701D01*
X157820345Y-91633821D01*
X157839232Y-91430000D01*
X157820345Y-91226179D01*
X157764328Y-91029299D01*
X157673088Y-90846065D01*
X157549732Y-90682715D01*
X157549730Y-90682712D01*
X157398462Y-90544814D01*
X157398460Y-90544812D01*
X157224430Y-90437057D01*
X157224424Y-90437054D01*
X157073993Y-90378777D01*
X157033556Y-90363112D01*
X156832347Y-90325500D01*
X156627653Y-90325500D01*
X156426444Y-90363112D01*
X156426441Y-90363112D01*
X156426441Y-90363113D01*
X156235575Y-90437054D01*
X156235569Y-90437057D01*
X156061539Y-90544812D01*
X156061537Y-90544814D01*
X155910269Y-90682712D01*
X155786911Y-90846066D01*
X155732982Y-90954371D01*
X155685480Y-91005608D01*
X155621982Y-91023100D01*
X150618306Y-91023100D01*
X150551267Y-91003415D01*
X150505512Y-90950611D01*
X150495568Y-90881453D01*
X150524593Y-90817897D01*
X150530625Y-90811419D01*
X153292425Y-88049619D01*
X153353748Y-88016134D01*
X153380106Y-88013300D01*
X155758972Y-88013300D01*
X155826011Y-88032985D01*
X155871766Y-88085789D01*
X155881710Y-88154947D01*
X155857926Y-88212027D01*
X155786912Y-88306064D01*
X155695673Y-88489295D01*
X155639654Y-88686183D01*
X155620768Y-88889999D01*
X155620768Y-88890000D01*
X155639654Y-89093816D01*
X155695673Y-89290704D01*
X155786912Y-89473935D01*
X155910269Y-89637287D01*
X156061537Y-89775185D01*
X156061539Y-89775187D01*
X156235569Y-89882942D01*
X156235575Y-89882945D01*
X156276010Y-89898609D01*
X156426444Y-89956888D01*
X156627653Y-89994500D01*
X156627656Y-89994500D01*
X156832344Y-89994500D01*
X156832347Y-89994500D01*
X157033556Y-89956888D01*
X157224427Y-89882944D01*
X157398462Y-89775186D01*
X157549732Y-89637285D01*
X157673088Y-89473935D01*
X157764328Y-89290701D01*
X157820345Y-89093821D01*
X157839232Y-88890000D01*
X157839232Y-88889999D01*
X158160768Y-88889999D01*
X158160768Y-88890000D01*
X158179654Y-89093816D01*
X158235673Y-89290704D01*
X158326912Y-89473935D01*
X158450269Y-89637287D01*
X158601537Y-89775185D01*
X158601539Y-89775187D01*
X158775569Y-89882942D01*
X158775575Y-89882945D01*
X158816010Y-89898609D01*
X158966444Y-89956888D01*
X159167653Y-89994500D01*
X159167656Y-89994500D01*
X159372344Y-89994500D01*
X159372347Y-89994500D01*
X159573556Y-89956888D01*
X159764427Y-89882944D01*
X159938462Y-89775186D01*
X160089732Y-89637285D01*
X160213088Y-89473935D01*
X160304328Y-89290701D01*
X160360345Y-89093821D01*
X160379232Y-88890000D01*
X160360345Y-88686179D01*
X160304328Y-88489299D01*
X160213088Y-88306065D01*
X160089732Y-88142715D01*
X160089730Y-88142712D01*
X159938462Y-88004814D01*
X159938460Y-88004812D01*
X159764430Y-87897057D01*
X159764424Y-87897054D01*
X159613993Y-87838777D01*
X159573556Y-87823112D01*
X159372347Y-87785500D01*
X159167653Y-87785500D01*
X158966444Y-87823112D01*
X158966441Y-87823112D01*
X158966441Y-87823113D01*
X158775575Y-87897054D01*
X158775569Y-87897057D01*
X158601539Y-88004812D01*
X158601537Y-88004814D01*
X158450269Y-88142712D01*
X158326912Y-88306064D01*
X158235673Y-88489295D01*
X158179654Y-88686183D01*
X158160768Y-88889999D01*
X157839232Y-88889999D01*
X157820345Y-88686179D01*
X157764328Y-88489299D01*
X157673088Y-88306065D01*
X157602074Y-88212027D01*
X157577382Y-88146665D01*
X157591947Y-88078331D01*
X157641145Y-88028718D01*
X157701028Y-88013300D01*
X158067167Y-88013300D01*
X158067170Y-88013300D01*
X158170658Y-87985570D01*
X158263443Y-87932001D01*
X158773887Y-87421555D01*
X158835208Y-87388072D01*
X158904899Y-87393056D01*
X158906360Y-87393612D01*
X158966436Y-87416885D01*
X158966444Y-87416888D01*
X159167653Y-87454500D01*
X159167656Y-87454500D01*
X159372344Y-87454500D01*
X159372347Y-87454500D01*
X159573556Y-87416888D01*
X159764427Y-87342944D01*
X159938462Y-87235186D01*
X160089732Y-87097285D01*
X160213088Y-86933935D01*
X160304328Y-86750701D01*
X160360345Y-86553821D01*
X160379232Y-86350000D01*
X160360345Y-86146179D01*
X160304328Y-85949299D01*
X160213088Y-85766065D01*
X160089732Y-85602715D01*
X160089730Y-85602712D01*
X159938462Y-85464814D01*
X159938460Y-85464812D01*
X159764430Y-85357057D01*
X159764424Y-85357054D01*
X159613993Y-85298777D01*
X159573556Y-85283112D01*
X159372347Y-85245500D01*
X159167653Y-85245500D01*
X158966444Y-85283112D01*
X158966441Y-85283112D01*
X158966441Y-85283113D01*
X158775575Y-85357054D01*
X158775569Y-85357057D01*
X158601539Y-85464812D01*
X158601537Y-85464814D01*
X158450269Y-85602712D01*
X158326912Y-85766064D01*
X158235673Y-85949295D01*
X158179654Y-86146183D01*
X158160768Y-86349999D01*
X158160768Y-86350000D01*
X158179654Y-86553820D01*
X158179655Y-86553823D01*
X158228617Y-86725907D01*
X158228030Y-86795774D01*
X158197032Y-86847522D01*
X157881373Y-87163182D01*
X157820052Y-87196666D01*
X157793694Y-87199500D01*
X157721568Y-87199500D01*
X157654529Y-87179815D01*
X157608774Y-87127011D01*
X157598830Y-87057853D01*
X157622614Y-87000773D01*
X157673088Y-86933935D01*
X157764328Y-86750701D01*
X157820345Y-86553821D01*
X157839232Y-86350000D01*
X157820345Y-86146179D01*
X157764328Y-85949299D01*
X157673088Y-85766065D01*
X157549732Y-85602715D01*
X157549730Y-85602712D01*
X157398462Y-85464814D01*
X157398460Y-85464812D01*
X157224430Y-85357057D01*
X157224424Y-85357054D01*
X157073993Y-85298777D01*
X157033556Y-85283112D01*
X156832347Y-85245500D01*
X156627653Y-85245500D01*
X156426444Y-85283112D01*
X156426441Y-85283112D01*
X156426441Y-85283113D01*
X156235575Y-85357054D01*
X156235569Y-85357057D01*
X156061539Y-85464812D01*
X156061537Y-85464814D01*
X155910269Y-85602712D01*
X155786912Y-85766064D01*
X155695673Y-85949295D01*
X155639654Y-86146183D01*
X155620768Y-86349999D01*
X155620768Y-86350000D01*
X155639654Y-86553816D01*
X155695673Y-86750704D01*
X155786912Y-86933935D01*
X155837386Y-87000773D01*
X155862078Y-87066134D01*
X155847513Y-87134469D01*
X155798316Y-87184081D01*
X155738432Y-87199500D01*
X153106631Y-87199500D01*
X153030873Y-87219798D01*
X153030872Y-87219799D01*
X153013900Y-87224346D01*
X153003137Y-87227231D01*
X152910360Y-87280796D01*
X152910355Y-87280800D01*
X149931502Y-90259653D01*
X149870179Y-90293138D01*
X149800487Y-90288154D01*
X149744554Y-90246282D01*
X149720137Y-90180818D01*
X149734989Y-90112545D01*
X149736412Y-90110011D01*
X149790381Y-90016534D01*
X149897508Y-89757907D01*
X149969961Y-89487509D01*
X150006500Y-89209968D01*
X150006500Y-89070000D01*
X150008006Y-80721200D01*
X151530766Y-80721200D01*
X151551226Y-80889708D01*
X151551227Y-80889713D01*
X151611420Y-81048427D01*
X151707848Y-81188127D01*
X151707850Y-81188129D01*
X151707852Y-81188131D01*
X151834904Y-81300690D01*
X151834906Y-81300691D01*
X151985211Y-81379577D01*
X152150026Y-81420200D01*
X152319774Y-81420200D01*
X152484589Y-81379577D01*
X152634894Y-81300691D01*
X152761952Y-81188127D01*
X152858380Y-81048427D01*
X152918573Y-80889710D01*
X152939034Y-80721200D01*
X152932376Y-80666376D01*
X152943835Y-80597458D01*
X152967785Y-80563757D01*
X153101926Y-80429617D01*
X153163249Y-80396134D01*
X153189606Y-80393300D01*
X155758972Y-80393300D01*
X155826011Y-80412985D01*
X155871766Y-80465789D01*
X155881710Y-80534947D01*
X155857926Y-80592027D01*
X155786912Y-80686064D01*
X155695673Y-80869295D01*
X155639654Y-81066183D01*
X155620768Y-81269999D01*
X155620768Y-81270000D01*
X155639654Y-81473816D01*
X155695673Y-81670704D01*
X155786912Y-81853935D01*
X155837386Y-81920773D01*
X155862078Y-81986134D01*
X155847513Y-82054469D01*
X155798316Y-82104081D01*
X155738432Y-82119500D01*
X152610567Y-82119500D01*
X152552942Y-82105297D01*
X152484587Y-82069422D01*
X152319774Y-82028800D01*
X152150026Y-82028800D01*
X151985212Y-82069422D01*
X151834904Y-82148309D01*
X151707852Y-82260868D01*
X151707846Y-82260875D01*
X151611421Y-82400571D01*
X151611420Y-82400572D01*
X151551227Y-82559286D01*
X151551226Y-82559291D01*
X151530766Y-82727800D01*
X151551226Y-82896308D01*
X151551227Y-82896313D01*
X151611420Y-83055027D01*
X151707848Y-83194727D01*
X151707850Y-83194729D01*
X151707852Y-83194731D01*
X151834904Y-83307290D01*
X151834906Y-83307291D01*
X151985211Y-83386177D01*
X152150026Y-83426800D01*
X152319774Y-83426800D01*
X152484589Y-83386177D01*
X152634894Y-83307291D01*
X152761952Y-83194727D01*
X152858380Y-83055027D01*
X152874194Y-83013327D01*
X152916373Y-82957626D01*
X152981970Y-82933569D01*
X152990136Y-82933300D01*
X155758972Y-82933300D01*
X155826011Y-82952985D01*
X155871766Y-83005789D01*
X155881710Y-83074947D01*
X155857926Y-83132027D01*
X155786912Y-83226064D01*
X155695673Y-83409295D01*
X155639654Y-83606183D01*
X155620768Y-83809999D01*
X155620768Y-83810000D01*
X155639654Y-84013816D01*
X155695673Y-84210704D01*
X155786912Y-84393935D01*
X155910269Y-84557287D01*
X156061537Y-84695185D01*
X156061539Y-84695187D01*
X156235569Y-84802942D01*
X156235575Y-84802945D01*
X156276010Y-84818609D01*
X156426444Y-84876888D01*
X156627653Y-84914500D01*
X156627656Y-84914500D01*
X156832344Y-84914500D01*
X156832347Y-84914500D01*
X157033556Y-84876888D01*
X157224427Y-84802944D01*
X157398462Y-84695186D01*
X157549732Y-84557285D01*
X157673088Y-84393935D01*
X157764328Y-84210701D01*
X157820345Y-84013821D01*
X157839232Y-83810000D01*
X157839232Y-83809999D01*
X158160768Y-83809999D01*
X158160768Y-83810000D01*
X158179654Y-84013816D01*
X158235673Y-84210704D01*
X158326912Y-84393935D01*
X158450269Y-84557287D01*
X158601537Y-84695185D01*
X158601539Y-84695187D01*
X158775569Y-84802942D01*
X158775575Y-84802945D01*
X158816010Y-84818609D01*
X158966444Y-84876888D01*
X159167653Y-84914500D01*
X159167656Y-84914500D01*
X159372344Y-84914500D01*
X159372347Y-84914500D01*
X159573556Y-84876888D01*
X159764427Y-84802944D01*
X159938462Y-84695186D01*
X160089732Y-84557285D01*
X160213088Y-84393935D01*
X160304328Y-84210701D01*
X160360345Y-84013821D01*
X160379232Y-83810000D01*
X160360345Y-83606179D01*
X160304328Y-83409299D01*
X160213088Y-83226065D01*
X160089732Y-83062715D01*
X160089730Y-83062712D01*
X159938462Y-82924814D01*
X159938460Y-82924812D01*
X159764430Y-82817057D01*
X159764424Y-82817054D01*
X159613993Y-82758777D01*
X159573556Y-82743112D01*
X159372347Y-82705500D01*
X159167653Y-82705500D01*
X158966444Y-82743112D01*
X158966441Y-82743112D01*
X158966441Y-82743113D01*
X158775575Y-82817054D01*
X158775569Y-82817057D01*
X158601539Y-82924812D01*
X158601537Y-82924814D01*
X158450269Y-83062712D01*
X158326912Y-83226064D01*
X158235673Y-83409295D01*
X158179654Y-83606183D01*
X158160768Y-83809999D01*
X157839232Y-83809999D01*
X157820345Y-83606179D01*
X157764328Y-83409299D01*
X157673088Y-83226065D01*
X157602074Y-83132027D01*
X157577382Y-83066665D01*
X157591947Y-82998331D01*
X157641145Y-82948718D01*
X157701028Y-82933300D01*
X158067167Y-82933300D01*
X158067170Y-82933300D01*
X158170658Y-82905570D01*
X158263443Y-82852001D01*
X158773887Y-82341555D01*
X158835208Y-82308072D01*
X158904899Y-82313056D01*
X158906360Y-82313612D01*
X158966436Y-82336885D01*
X158966444Y-82336888D01*
X159167653Y-82374500D01*
X159167656Y-82374500D01*
X159372344Y-82374500D01*
X159372347Y-82374500D01*
X159573556Y-82336888D01*
X159764427Y-82262944D01*
X159938462Y-82155186D01*
X160089732Y-82017285D01*
X160213088Y-81853935D01*
X160304328Y-81670701D01*
X160360345Y-81473821D01*
X160379232Y-81270000D01*
X160360345Y-81066179D01*
X160304328Y-80869299D01*
X160213088Y-80686065D01*
X160089732Y-80522715D01*
X160089730Y-80522712D01*
X159938462Y-80384814D01*
X159938460Y-80384812D01*
X159764430Y-80277057D01*
X159764424Y-80277054D01*
X159613993Y-80218777D01*
X159573556Y-80203112D01*
X159372347Y-80165500D01*
X159167653Y-80165500D01*
X158966444Y-80203112D01*
X158966441Y-80203112D01*
X158966441Y-80203113D01*
X158775575Y-80277054D01*
X158775569Y-80277057D01*
X158601539Y-80384812D01*
X158601537Y-80384814D01*
X158450269Y-80522712D01*
X158326912Y-80686064D01*
X158235673Y-80869295D01*
X158179654Y-81066183D01*
X158160768Y-81269999D01*
X158160768Y-81270000D01*
X158179654Y-81473820D01*
X158179655Y-81473823D01*
X158228617Y-81645907D01*
X158228030Y-81715774D01*
X158197032Y-81767522D01*
X157881373Y-82083182D01*
X157820052Y-82116666D01*
X157793694Y-82119500D01*
X157721568Y-82119500D01*
X157654529Y-82099815D01*
X157608774Y-82047011D01*
X157598830Y-81977853D01*
X157622614Y-81920773D01*
X157673088Y-81853935D01*
X157764328Y-81670701D01*
X157820345Y-81473821D01*
X157839232Y-81270000D01*
X157820345Y-81066179D01*
X157764328Y-80869299D01*
X157673088Y-80686065D01*
X157602074Y-80592027D01*
X157577382Y-80526665D01*
X157591947Y-80458331D01*
X157641145Y-80408718D01*
X157701028Y-80393300D01*
X158067167Y-80393300D01*
X158067170Y-80393300D01*
X158170658Y-80365570D01*
X158263443Y-80312001D01*
X158773887Y-79801555D01*
X158835208Y-79768072D01*
X158904899Y-79773056D01*
X158906360Y-79773612D01*
X158966436Y-79796885D01*
X158966444Y-79796888D01*
X159167653Y-79834500D01*
X159167656Y-79834500D01*
X159372344Y-79834500D01*
X159372347Y-79834500D01*
X159573556Y-79796888D01*
X159764427Y-79722944D01*
X159938462Y-79615186D01*
X160089732Y-79477285D01*
X160213088Y-79313935D01*
X160304328Y-79130701D01*
X160360345Y-78933821D01*
X160379232Y-78730000D01*
X160360345Y-78526179D01*
X160304328Y-78329299D01*
X160213088Y-78146065D01*
X160089732Y-77982715D01*
X160089730Y-77982712D01*
X159938462Y-77844814D01*
X159938460Y-77844812D01*
X159764430Y-77737057D01*
X159764424Y-77737054D01*
X159613993Y-77678777D01*
X159573556Y-77663112D01*
X159372347Y-77625500D01*
X159167653Y-77625500D01*
X158966444Y-77663112D01*
X158966441Y-77663112D01*
X158966441Y-77663113D01*
X158775575Y-77737054D01*
X158775569Y-77737057D01*
X158601539Y-77844812D01*
X158601537Y-77844814D01*
X158450269Y-77982712D01*
X158326912Y-78146064D01*
X158235673Y-78329295D01*
X158179654Y-78526183D01*
X158160768Y-78729999D01*
X158160768Y-78730000D01*
X158179654Y-78933820D01*
X158179655Y-78933823D01*
X158228617Y-79105907D01*
X158228030Y-79175774D01*
X158197032Y-79227522D01*
X157881373Y-79543182D01*
X157820052Y-79576666D01*
X157793694Y-79579500D01*
X157721568Y-79579500D01*
X157654529Y-79559815D01*
X157608774Y-79507011D01*
X157598830Y-79437853D01*
X157622614Y-79380773D01*
X157673088Y-79313935D01*
X157764328Y-79130701D01*
X157820345Y-78933821D01*
X157839232Y-78730000D01*
X157820345Y-78526179D01*
X157764328Y-78329299D01*
X157673088Y-78146065D01*
X157549732Y-77982715D01*
X157549730Y-77982712D01*
X157398462Y-77844814D01*
X157398460Y-77844812D01*
X157224430Y-77737057D01*
X157224424Y-77737054D01*
X157073993Y-77678777D01*
X157033556Y-77663112D01*
X156832347Y-77625500D01*
X156627653Y-77625500D01*
X156426444Y-77663112D01*
X156426441Y-77663112D01*
X156426441Y-77663113D01*
X156235575Y-77737054D01*
X156235569Y-77737057D01*
X156061539Y-77844812D01*
X156061537Y-77844814D01*
X155910269Y-77982712D01*
X155786912Y-78146064D01*
X155695673Y-78329295D01*
X155639654Y-78526183D01*
X155620768Y-78729999D01*
X155620768Y-78730000D01*
X155639654Y-78933816D01*
X155695673Y-79130704D01*
X155786912Y-79313935D01*
X155837386Y-79380773D01*
X155862078Y-79446134D01*
X155847513Y-79514469D01*
X155798316Y-79564081D01*
X155738432Y-79579500D01*
X153023270Y-79579500D01*
X152916130Y-79579500D01*
X152838514Y-79600297D01*
X152812641Y-79607230D01*
X152719858Y-79660798D01*
X152719855Y-79660800D01*
X152394774Y-79985881D01*
X152333451Y-80019366D01*
X152307093Y-80022200D01*
X152150026Y-80022200D01*
X151985212Y-80062822D01*
X151834904Y-80141709D01*
X151707852Y-80254268D01*
X151707846Y-80254275D01*
X151611421Y-80393971D01*
X151611420Y-80393972D01*
X151551227Y-80552686D01*
X151551226Y-80552691D01*
X151530766Y-80721200D01*
X150008006Y-80721200D01*
X150008725Y-76733400D01*
X151530766Y-76733400D01*
X151551226Y-76901908D01*
X151551227Y-76901913D01*
X151610803Y-77058999D01*
X151611420Y-77060627D01*
X151707848Y-77200327D01*
X151707850Y-77200329D01*
X151707852Y-77200331D01*
X151834904Y-77312890D01*
X151834906Y-77312891D01*
X151985211Y-77391777D01*
X152150026Y-77432400D01*
X152319774Y-77432400D01*
X152484589Y-77391777D01*
X152634894Y-77312891D01*
X152761952Y-77200327D01*
X152766417Y-77193859D01*
X152820700Y-77149869D01*
X152868466Y-77140300D01*
X153554312Y-77140300D01*
X153554315Y-77140300D01*
X153657803Y-77112570D01*
X153750588Y-77059001D01*
X154176369Y-76633218D01*
X154237692Y-76599734D01*
X154264050Y-76596900D01*
X155621982Y-76596900D01*
X155689021Y-76616585D01*
X155732981Y-76665628D01*
X155786912Y-76773935D01*
X155848590Y-76855610D01*
X155910269Y-76937287D01*
X156061537Y-77075185D01*
X156061539Y-77075187D01*
X156235569Y-77182942D01*
X156235575Y-77182945D01*
X156263748Y-77193859D01*
X156426444Y-77256888D01*
X156627653Y-77294500D01*
X156627656Y-77294500D01*
X156832344Y-77294500D01*
X156832347Y-77294500D01*
X157033556Y-77256888D01*
X157224427Y-77182944D01*
X157398462Y-77075186D01*
X157549732Y-76937285D01*
X157673088Y-76773935D01*
X157764328Y-76590701D01*
X157820345Y-76393821D01*
X157839232Y-76190000D01*
X157820345Y-75986179D01*
X157764328Y-75789299D01*
X157673088Y-75606065D01*
X157622613Y-75539226D01*
X157597922Y-75473866D01*
X157612487Y-75405531D01*
X157661684Y-75355919D01*
X157721568Y-75340500D01*
X157793694Y-75340500D01*
X157860733Y-75360185D01*
X157881375Y-75376819D01*
X158197032Y-75692476D01*
X158230517Y-75753799D01*
X158228618Y-75814091D01*
X158179654Y-75986183D01*
X158160768Y-76189999D01*
X158160768Y-76190000D01*
X158179654Y-76393816D01*
X158179654Y-76393818D01*
X158179655Y-76393821D01*
X158235672Y-76590701D01*
X158235673Y-76590704D01*
X158326912Y-76773935D01*
X158450269Y-76937287D01*
X158601537Y-77075185D01*
X158601539Y-77075187D01*
X158775569Y-77182942D01*
X158775575Y-77182945D01*
X158803748Y-77193859D01*
X158966444Y-77256888D01*
X159167653Y-77294500D01*
X159167656Y-77294500D01*
X159372344Y-77294500D01*
X159372347Y-77294500D01*
X159573556Y-77256888D01*
X159764427Y-77182944D01*
X159938462Y-77075186D01*
X160089732Y-76937285D01*
X160213088Y-76773935D01*
X160304328Y-76590701D01*
X160360345Y-76393821D01*
X160379232Y-76190000D01*
X160360345Y-75986179D01*
X160304328Y-75789299D01*
X160213088Y-75606065D01*
X160089732Y-75442715D01*
X160089730Y-75442712D01*
X159938462Y-75304814D01*
X159938460Y-75304812D01*
X159764430Y-75197057D01*
X159764424Y-75197054D01*
X159613993Y-75138777D01*
X159573556Y-75123112D01*
X159372347Y-75085500D01*
X159167653Y-75085500D01*
X159002289Y-75116411D01*
X158966438Y-75123113D01*
X158906360Y-75146388D01*
X158836737Y-75152250D01*
X158774997Y-75119540D01*
X158773886Y-75118442D01*
X158263444Y-74608000D01*
X158263443Y-74607999D01*
X158170658Y-74554430D01*
X158170659Y-74554430D01*
X158130218Y-74543594D01*
X158067170Y-74526700D01*
X158067169Y-74526700D01*
X158067167Y-74526700D01*
X157701028Y-74526700D01*
X157633989Y-74507015D01*
X157588234Y-74454211D01*
X157578290Y-74385053D01*
X157602074Y-74327973D01*
X157607910Y-74320244D01*
X157673088Y-74233935D01*
X157764328Y-74050701D01*
X157820345Y-73853821D01*
X157839232Y-73650000D01*
X157839232Y-73649999D01*
X158160768Y-73649999D01*
X158160768Y-73650000D01*
X158179654Y-73853816D01*
X158179654Y-73853818D01*
X158179655Y-73853821D01*
X158235672Y-74050701D01*
X158235673Y-74050704D01*
X158326912Y-74233935D01*
X158450269Y-74397287D01*
X158601537Y-74535185D01*
X158601539Y-74535187D01*
X158775569Y-74642942D01*
X158775575Y-74642945D01*
X158809680Y-74656157D01*
X158966444Y-74716888D01*
X159167653Y-74754500D01*
X159167656Y-74754500D01*
X159372344Y-74754500D01*
X159372347Y-74754500D01*
X159573556Y-74716888D01*
X159764427Y-74642944D01*
X159938462Y-74535186D01*
X160089732Y-74397285D01*
X160213088Y-74233935D01*
X160304328Y-74050701D01*
X160360345Y-73853821D01*
X160379232Y-73650000D01*
X160360345Y-73446179D01*
X160304328Y-73249299D01*
X160213088Y-73066065D01*
X160089732Y-72902715D01*
X160089730Y-72902712D01*
X159938462Y-72764814D01*
X159938460Y-72764812D01*
X159764430Y-72657057D01*
X159764424Y-72657054D01*
X159613993Y-72598777D01*
X159573556Y-72583112D01*
X159372347Y-72545500D01*
X159167653Y-72545500D01*
X158966444Y-72583112D01*
X158966441Y-72583112D01*
X158966441Y-72583113D01*
X158775575Y-72657054D01*
X158775569Y-72657057D01*
X158601539Y-72764812D01*
X158601537Y-72764814D01*
X158450269Y-72902712D01*
X158326912Y-73066064D01*
X158235673Y-73249295D01*
X158179654Y-73446183D01*
X158160768Y-73649999D01*
X157839232Y-73649999D01*
X157820345Y-73446179D01*
X157764328Y-73249299D01*
X157673088Y-73066065D01*
X157549732Y-72902715D01*
X157549730Y-72902712D01*
X157398462Y-72764814D01*
X157398460Y-72764812D01*
X157224430Y-72657057D01*
X157224424Y-72657054D01*
X157073993Y-72598777D01*
X157033556Y-72583112D01*
X156832347Y-72545500D01*
X156627653Y-72545500D01*
X156426444Y-72583112D01*
X156426441Y-72583112D01*
X156426441Y-72583113D01*
X156235575Y-72657054D01*
X156235569Y-72657057D01*
X156061539Y-72764812D01*
X156061537Y-72764814D01*
X155910269Y-72902712D01*
X155786912Y-73066064D01*
X155695673Y-73249295D01*
X155639654Y-73446183D01*
X155620768Y-73649999D01*
X155620768Y-73650000D01*
X155639654Y-73853816D01*
X155639654Y-73853818D01*
X155639655Y-73853821D01*
X155695672Y-74050701D01*
X155695673Y-74050704D01*
X155786912Y-74233935D01*
X155857926Y-74327973D01*
X155882618Y-74393335D01*
X155868053Y-74461669D01*
X155818855Y-74511282D01*
X155758972Y-74526700D01*
X154153006Y-74526700D01*
X154085967Y-74507015D01*
X154065325Y-74490381D01*
X153528136Y-73953192D01*
X153499875Y-73909482D01*
X153499373Y-73908158D01*
X153499373Y-73908157D01*
X153439180Y-73749440D01*
X153342752Y-73609740D01*
X153342749Y-73609737D01*
X153342747Y-73609735D01*
X153215695Y-73497176D01*
X153065387Y-73418289D01*
X152900574Y-73377667D01*
X152730826Y-73377667D01*
X152566012Y-73418289D01*
X152415704Y-73497176D01*
X152288652Y-73609735D01*
X152288646Y-73609742D01*
X152192221Y-73749438D01*
X152192220Y-73749439D01*
X152132027Y-73908153D01*
X152132026Y-73908158D01*
X152111566Y-74076667D01*
X152132026Y-74245175D01*
X152132027Y-74245180D01*
X152189714Y-74397285D01*
X152192220Y-74403894D01*
X152288648Y-74543594D01*
X152288650Y-74543596D01*
X152288652Y-74543598D01*
X152415704Y-74656157D01*
X152415706Y-74656158D01*
X152566011Y-74735044D01*
X152730826Y-74775667D01*
X152900574Y-74775667D01*
X153065389Y-74735044D01*
X153065390Y-74735043D01*
X153072666Y-74733250D01*
X153142468Y-74736319D01*
X153190022Y-74765966D01*
X153683257Y-75259201D01*
X153776042Y-75312770D01*
X153803769Y-75320199D01*
X153803771Y-75320200D01*
X153803772Y-75320200D01*
X153879531Y-75340500D01*
X155738432Y-75340500D01*
X155805471Y-75360185D01*
X155851226Y-75412989D01*
X155861170Y-75482147D01*
X155837386Y-75539227D01*
X155786910Y-75606066D01*
X155732982Y-75714371D01*
X155685480Y-75765608D01*
X155621982Y-75783100D01*
X154097715Y-75783100D01*
X153990576Y-75783100D01*
X153912960Y-75803897D01*
X153887087Y-75810830D01*
X153794304Y-75864398D01*
X153794301Y-75864400D01*
X153368520Y-76290181D01*
X153307197Y-76323666D01*
X153280839Y-76326500D01*
X152868466Y-76326500D01*
X152801427Y-76306815D01*
X152766417Y-76272941D01*
X152761955Y-76266477D01*
X152761953Y-76266475D01*
X152761952Y-76266473D01*
X152761949Y-76266470D01*
X152761947Y-76266468D01*
X152634895Y-76153909D01*
X152484587Y-76075022D01*
X152319774Y-76034400D01*
X152150026Y-76034400D01*
X151985212Y-76075022D01*
X151834904Y-76153909D01*
X151707852Y-76266468D01*
X151707846Y-76266475D01*
X151611421Y-76406171D01*
X151611420Y-76406172D01*
X151551227Y-76564886D01*
X151551226Y-76564891D01*
X151530766Y-76733400D01*
X150008725Y-76733400D01*
X150009738Y-71120000D01*
X151975266Y-71120000D01*
X151995726Y-71288508D01*
X151995727Y-71288513D01*
X152055920Y-71447227D01*
X152152348Y-71586927D01*
X152152350Y-71586929D01*
X152152352Y-71586931D01*
X152279404Y-71699490D01*
X152279406Y-71699491D01*
X152429711Y-71778377D01*
X152594526Y-71819000D01*
X152764274Y-71819000D01*
X152929089Y-71778377D01*
X153079394Y-71699491D01*
X153206452Y-71586927D01*
X153302880Y-71447227D01*
X153363073Y-71288510D01*
X153383534Y-71120000D01*
X153382320Y-71109999D01*
X155620768Y-71109999D01*
X155620768Y-71110000D01*
X155639654Y-71313816D01*
X155639654Y-71313818D01*
X155639655Y-71313821D01*
X155695672Y-71510701D01*
X155695673Y-71510704D01*
X155786912Y-71693935D01*
X155910269Y-71857287D01*
X156061537Y-71995185D01*
X156061539Y-71995187D01*
X156235569Y-72102942D01*
X156235575Y-72102945D01*
X156276010Y-72118609D01*
X156426444Y-72176888D01*
X156627653Y-72214500D01*
X156627656Y-72214500D01*
X156832344Y-72214500D01*
X156832347Y-72214500D01*
X157033556Y-72176888D01*
X157224427Y-72102944D01*
X157398462Y-71995186D01*
X157549732Y-71857285D01*
X157673088Y-71693935D01*
X157764328Y-71510701D01*
X157820345Y-71313821D01*
X157839232Y-71110000D01*
X157839232Y-71109999D01*
X158160768Y-71109999D01*
X158160768Y-71110000D01*
X158179654Y-71313816D01*
X158179654Y-71313818D01*
X158179655Y-71313821D01*
X158235672Y-71510701D01*
X158235673Y-71510704D01*
X158326912Y-71693935D01*
X158450269Y-71857287D01*
X158601537Y-71995185D01*
X158601539Y-71995187D01*
X158775569Y-72102942D01*
X158775575Y-72102945D01*
X158816010Y-72118609D01*
X158966444Y-72176888D01*
X159167653Y-72214500D01*
X159167656Y-72214500D01*
X159372344Y-72214500D01*
X159372347Y-72214500D01*
X159573556Y-72176888D01*
X159764427Y-72102944D01*
X159938462Y-71995186D01*
X160089732Y-71857285D01*
X160213088Y-71693935D01*
X160304328Y-71510701D01*
X160360345Y-71313821D01*
X160379232Y-71110000D01*
X160360345Y-70906179D01*
X160304328Y-70709299D01*
X160213088Y-70526065D01*
X160089732Y-70362715D01*
X160089730Y-70362712D01*
X159938462Y-70224814D01*
X159938460Y-70224812D01*
X159764430Y-70117057D01*
X159764424Y-70117054D01*
X159613993Y-70058777D01*
X159573556Y-70043112D01*
X159372347Y-70005500D01*
X159167653Y-70005500D01*
X158966444Y-70043112D01*
X158966441Y-70043112D01*
X158966441Y-70043113D01*
X158775575Y-70117054D01*
X158775569Y-70117057D01*
X158601539Y-70224812D01*
X158601537Y-70224814D01*
X158450269Y-70362712D01*
X158326912Y-70526064D01*
X158235673Y-70709295D01*
X158179654Y-70906183D01*
X158160768Y-71109999D01*
X157839232Y-71109999D01*
X157820345Y-70906179D01*
X157764328Y-70709299D01*
X157673088Y-70526065D01*
X157549732Y-70362715D01*
X157549730Y-70362712D01*
X157398462Y-70224814D01*
X157398460Y-70224812D01*
X157224430Y-70117057D01*
X157224424Y-70117054D01*
X157073993Y-70058777D01*
X157033556Y-70043112D01*
X156832347Y-70005500D01*
X156627653Y-70005500D01*
X156426444Y-70043112D01*
X156426441Y-70043112D01*
X156426441Y-70043113D01*
X156235575Y-70117054D01*
X156235569Y-70117057D01*
X156061539Y-70224812D01*
X156061537Y-70224814D01*
X155910269Y-70362712D01*
X155786912Y-70526064D01*
X155695673Y-70709295D01*
X155639654Y-70906183D01*
X155620768Y-71109999D01*
X153382320Y-71109999D01*
X153363073Y-70951490D01*
X153363072Y-70951488D01*
X153363072Y-70951486D01*
X153332126Y-70869889D01*
X153326759Y-70800226D01*
X153359906Y-70738720D01*
X153360146Y-70738478D01*
X155426176Y-68672448D01*
X155487497Y-68638965D01*
X155557189Y-68643949D01*
X155613122Y-68685821D01*
X155637326Y-68748689D01*
X155639654Y-68773816D01*
X155695673Y-68970704D01*
X155786912Y-69153935D01*
X155910269Y-69317287D01*
X156061537Y-69455185D01*
X156061539Y-69455187D01*
X156235569Y-69562942D01*
X156235575Y-69562945D01*
X156276010Y-69578609D01*
X156426444Y-69636888D01*
X156627653Y-69674500D01*
X156627656Y-69674500D01*
X156832344Y-69674500D01*
X156832347Y-69674500D01*
X157033556Y-69636888D01*
X157224427Y-69562944D01*
X157398462Y-69455186D01*
X157549732Y-69317285D01*
X157673088Y-69153935D01*
X157764328Y-68970701D01*
X157820345Y-68773821D01*
X157839232Y-68570000D01*
X157839232Y-68569999D01*
X158160768Y-68569999D01*
X158160768Y-68570000D01*
X158179654Y-68773816D01*
X158235673Y-68970704D01*
X158326912Y-69153935D01*
X158450269Y-69317287D01*
X158601537Y-69455185D01*
X158601539Y-69455187D01*
X158775569Y-69562942D01*
X158775575Y-69562945D01*
X158816010Y-69578609D01*
X158966444Y-69636888D01*
X159167653Y-69674500D01*
X159167656Y-69674500D01*
X159372344Y-69674500D01*
X159372347Y-69674500D01*
X159573556Y-69636888D01*
X159764427Y-69562944D01*
X159938462Y-69455186D01*
X160089732Y-69317285D01*
X160213088Y-69153935D01*
X160304328Y-68970701D01*
X160360345Y-68773821D01*
X160379232Y-68570000D01*
X160360345Y-68366179D01*
X160304328Y-68169299D01*
X160213088Y-67986065D01*
X160089732Y-67822715D01*
X160089730Y-67822712D01*
X159938462Y-67684814D01*
X159938460Y-67684812D01*
X159764430Y-67577057D01*
X159764424Y-67577054D01*
X159613993Y-67518777D01*
X159573556Y-67503112D01*
X159372347Y-67465500D01*
X159167653Y-67465500D01*
X158966444Y-67503112D01*
X158966441Y-67503112D01*
X158966441Y-67503113D01*
X158775575Y-67577054D01*
X158775569Y-67577057D01*
X158601539Y-67684812D01*
X158601537Y-67684814D01*
X158450269Y-67822712D01*
X158326912Y-67986064D01*
X158235673Y-68169295D01*
X158179654Y-68366183D01*
X158160768Y-68569999D01*
X157839232Y-68569999D01*
X157820345Y-68366179D01*
X157764328Y-68169299D01*
X157673088Y-67986065D01*
X157622613Y-67919226D01*
X157597922Y-67853866D01*
X157612487Y-67785531D01*
X157661684Y-67735919D01*
X157721568Y-67720500D01*
X158039967Y-67720500D01*
X158039970Y-67720500D01*
X158143458Y-67692770D01*
X158236243Y-67639201D01*
X158773887Y-67101555D01*
X158835208Y-67068072D01*
X158904899Y-67073056D01*
X158906360Y-67073612D01*
X158966436Y-67096885D01*
X158966444Y-67096888D01*
X159167653Y-67134500D01*
X159167656Y-67134500D01*
X159372344Y-67134500D01*
X159372347Y-67134500D01*
X159573556Y-67096888D01*
X159764427Y-67022944D01*
X159938462Y-66915186D01*
X160089732Y-66777285D01*
X160213088Y-66613935D01*
X160304328Y-66430701D01*
X160360345Y-66233821D01*
X160379232Y-66030000D01*
X160360345Y-65826179D01*
X160304328Y-65629299D01*
X160213088Y-65446065D01*
X160089732Y-65282715D01*
X160089730Y-65282712D01*
X159938462Y-65144814D01*
X159938460Y-65144812D01*
X159764430Y-65037057D01*
X159764424Y-65037054D01*
X159613993Y-64978777D01*
X159573556Y-64963112D01*
X159372347Y-64925500D01*
X159167653Y-64925500D01*
X158966444Y-64963112D01*
X158966441Y-64963112D01*
X158966441Y-64963113D01*
X158775575Y-65037054D01*
X158775569Y-65037057D01*
X158601539Y-65144812D01*
X158601537Y-65144814D01*
X158450269Y-65282712D01*
X158326912Y-65446064D01*
X158235673Y-65629295D01*
X158235672Y-65629299D01*
X158181093Y-65821127D01*
X158179654Y-65826183D01*
X158160768Y-66029999D01*
X158160768Y-66030000D01*
X158179654Y-66233816D01*
X158228618Y-66405908D01*
X158228030Y-66475776D01*
X158197032Y-66527523D01*
X157854175Y-66870381D01*
X157792852Y-66903866D01*
X157766494Y-66906700D01*
X157701028Y-66906700D01*
X157633989Y-66887015D01*
X157588234Y-66834211D01*
X157578290Y-66765053D01*
X157602074Y-66707973D01*
X157607910Y-66700244D01*
X157673088Y-66613935D01*
X157764328Y-66430701D01*
X157820345Y-66233821D01*
X157839232Y-66030000D01*
X157820345Y-65826179D01*
X157764328Y-65629299D01*
X157673088Y-65446065D01*
X157549732Y-65282715D01*
X157549730Y-65282712D01*
X157398462Y-65144814D01*
X157398460Y-65144812D01*
X157224430Y-65037057D01*
X157224424Y-65037054D01*
X157073993Y-64978777D01*
X157033556Y-64963112D01*
X156832347Y-64925500D01*
X156627653Y-64925500D01*
X156426444Y-64963112D01*
X156426441Y-64963112D01*
X156426441Y-64963113D01*
X156235575Y-65037054D01*
X156235569Y-65037057D01*
X156061539Y-65144812D01*
X156061537Y-65144814D01*
X155910269Y-65282712D01*
X155786912Y-65446064D01*
X155695673Y-65629295D01*
X155695672Y-65629299D01*
X155641093Y-65821127D01*
X155639654Y-65826183D01*
X155620768Y-66029999D01*
X155620768Y-66030000D01*
X155639654Y-66233816D01*
X155695673Y-66430704D01*
X155743884Y-66527523D01*
X155786912Y-66613935D01*
X155910268Y-66777285D01*
X155950404Y-66813874D01*
X155986684Y-66873584D01*
X155984924Y-66943431D01*
X155954546Y-66993191D01*
X152529007Y-70418729D01*
X152471003Y-70451444D01*
X152429715Y-70461621D01*
X152429714Y-70461621D01*
X152279404Y-70540509D01*
X152152352Y-70653068D01*
X152152346Y-70653075D01*
X152055921Y-70792771D01*
X152055920Y-70792772D01*
X151995727Y-70951486D01*
X151995726Y-70951491D01*
X151975266Y-71120000D01*
X150009738Y-71120000D01*
X150010778Y-65354200D01*
X152089566Y-65354200D01*
X152110026Y-65522708D01*
X152110027Y-65522713D01*
X152170220Y-65681427D01*
X152266648Y-65821127D01*
X152266650Y-65821129D01*
X152266652Y-65821131D01*
X152393704Y-65933690D01*
X152393706Y-65933691D01*
X152544011Y-66012577D01*
X152708826Y-66053200D01*
X152878574Y-66053200D01*
X153043389Y-66012577D01*
X153193694Y-65933691D01*
X153320752Y-65821127D01*
X153417180Y-65681427D01*
X153477373Y-65522710D01*
X153497834Y-65354200D01*
X153477373Y-65185690D01*
X153477372Y-65185688D01*
X153477372Y-65185686D01*
X153421004Y-65037057D01*
X153417180Y-65026973D01*
X153320752Y-64887273D01*
X153320749Y-64887270D01*
X153320747Y-64887268D01*
X153193695Y-64774709D01*
X153043387Y-64695822D01*
X152878574Y-64655200D01*
X152708826Y-64655200D01*
X152544012Y-64695822D01*
X152393704Y-64774709D01*
X152266652Y-64887268D01*
X152266646Y-64887275D01*
X152170221Y-65026971D01*
X152170220Y-65026972D01*
X152110027Y-65185686D01*
X152110026Y-65185691D01*
X152089566Y-65354200D01*
X150010778Y-65354200D01*
X150011114Y-63489999D01*
X155620768Y-63489999D01*
X155620768Y-63490000D01*
X155639654Y-63693816D01*
X155695673Y-63890704D01*
X155786912Y-64073935D01*
X155910269Y-64237287D01*
X156061537Y-64375185D01*
X156061539Y-64375187D01*
X156235569Y-64482942D01*
X156235575Y-64482945D01*
X156276010Y-64498609D01*
X156426444Y-64556888D01*
X156627653Y-64594500D01*
X156627656Y-64594500D01*
X156832344Y-64594500D01*
X156832347Y-64594500D01*
X157033556Y-64556888D01*
X157224427Y-64482944D01*
X157398462Y-64375186D01*
X157549732Y-64237285D01*
X157673088Y-64073935D01*
X157764328Y-63890701D01*
X157820345Y-63693821D01*
X157839232Y-63490000D01*
X157839232Y-63489999D01*
X158160768Y-63489999D01*
X158160768Y-63490000D01*
X158179654Y-63693816D01*
X158235673Y-63890704D01*
X158326912Y-64073935D01*
X158450269Y-64237287D01*
X158601537Y-64375185D01*
X158601539Y-64375187D01*
X158775569Y-64482942D01*
X158775575Y-64482945D01*
X158816010Y-64498609D01*
X158966444Y-64556888D01*
X159167653Y-64594500D01*
X159167656Y-64594500D01*
X159372344Y-64594500D01*
X159372347Y-64594500D01*
X159573556Y-64556888D01*
X159764427Y-64482944D01*
X159938462Y-64375186D01*
X160089732Y-64237285D01*
X160213088Y-64073935D01*
X160304328Y-63890701D01*
X160360345Y-63693821D01*
X160379232Y-63490000D01*
X160360345Y-63286179D01*
X160304328Y-63089299D01*
X160213088Y-62906065D01*
X160089732Y-62742715D01*
X160089730Y-62742712D01*
X159938462Y-62604814D01*
X159938460Y-62604812D01*
X159764430Y-62497057D01*
X159764424Y-62497054D01*
X159613993Y-62438777D01*
X159573556Y-62423112D01*
X159372347Y-62385500D01*
X159167653Y-62385500D01*
X158966444Y-62423112D01*
X158966441Y-62423112D01*
X158966441Y-62423113D01*
X158775575Y-62497054D01*
X158775569Y-62497057D01*
X158601539Y-62604812D01*
X158601537Y-62604814D01*
X158450269Y-62742712D01*
X158326912Y-62906064D01*
X158235673Y-63089295D01*
X158179654Y-63286183D01*
X158160768Y-63489999D01*
X157839232Y-63489999D01*
X157820345Y-63286179D01*
X157764328Y-63089299D01*
X157673088Y-62906065D01*
X157549732Y-62742715D01*
X157549730Y-62742712D01*
X157398462Y-62604814D01*
X157398460Y-62604812D01*
X157224430Y-62497057D01*
X157224424Y-62497054D01*
X157073993Y-62438777D01*
X157033556Y-62423112D01*
X156832347Y-62385500D01*
X156627653Y-62385500D01*
X156426444Y-62423112D01*
X156426441Y-62423112D01*
X156426441Y-62423113D01*
X156235575Y-62497054D01*
X156235569Y-62497057D01*
X156061539Y-62604812D01*
X156061537Y-62604814D01*
X155910269Y-62742712D01*
X155786912Y-62906064D01*
X155695673Y-63089295D01*
X155639654Y-63286183D01*
X155620768Y-63489999D01*
X150011114Y-63489999D01*
X150011572Y-60949999D01*
X155620768Y-60949999D01*
X155620768Y-60950000D01*
X155639654Y-61153816D01*
X155695673Y-61350704D01*
X155786912Y-61533935D01*
X155910269Y-61697287D01*
X156061537Y-61835185D01*
X156061539Y-61835187D01*
X156235569Y-61942942D01*
X156235575Y-61942945D01*
X156276010Y-61958609D01*
X156426444Y-62016888D01*
X156627653Y-62054500D01*
X156627656Y-62054500D01*
X156832344Y-62054500D01*
X156832347Y-62054500D01*
X157033556Y-62016888D01*
X157224427Y-61942944D01*
X157398462Y-61835186D01*
X157549732Y-61697285D01*
X157673088Y-61533935D01*
X157764328Y-61350701D01*
X157820345Y-61153821D01*
X157839232Y-60950000D01*
X157839232Y-60949999D01*
X158160768Y-60949999D01*
X158160768Y-60950000D01*
X158179654Y-61153816D01*
X158235673Y-61350704D01*
X158326912Y-61533935D01*
X158450269Y-61697287D01*
X158601537Y-61835185D01*
X158601539Y-61835187D01*
X158775569Y-61942942D01*
X158775575Y-61942945D01*
X158816010Y-61958609D01*
X158966444Y-62016888D01*
X159167653Y-62054500D01*
X159167656Y-62054500D01*
X159372344Y-62054500D01*
X159372347Y-62054500D01*
X159573556Y-62016888D01*
X159764427Y-61942944D01*
X159938462Y-61835186D01*
X160089732Y-61697285D01*
X160213088Y-61533935D01*
X160304328Y-61350701D01*
X160360345Y-61153821D01*
X160379232Y-60950000D01*
X160360345Y-60746179D01*
X160304328Y-60549299D01*
X160213088Y-60366065D01*
X160089732Y-60202715D01*
X160089730Y-60202712D01*
X159938462Y-60064814D01*
X159938460Y-60064812D01*
X159764430Y-59957057D01*
X159764424Y-59957054D01*
X159613993Y-59898777D01*
X159573556Y-59883112D01*
X159372347Y-59845500D01*
X159167653Y-59845500D01*
X158966444Y-59883112D01*
X158966441Y-59883112D01*
X158966441Y-59883113D01*
X158775575Y-59957054D01*
X158775569Y-59957057D01*
X158601539Y-60064812D01*
X158601537Y-60064814D01*
X158450269Y-60202712D01*
X158326912Y-60366064D01*
X158235673Y-60549295D01*
X158179654Y-60746183D01*
X158160768Y-60949999D01*
X157839232Y-60949999D01*
X157820345Y-60746179D01*
X157764328Y-60549299D01*
X157673088Y-60366065D01*
X157549732Y-60202715D01*
X157549730Y-60202712D01*
X157398462Y-60064814D01*
X157398460Y-60064812D01*
X157224430Y-59957057D01*
X157224424Y-59957054D01*
X157073993Y-59898777D01*
X157033556Y-59883112D01*
X156832347Y-59845500D01*
X156627653Y-59845500D01*
X156426444Y-59883112D01*
X156426441Y-59883112D01*
X156426441Y-59883113D01*
X156235575Y-59957054D01*
X156235569Y-59957057D01*
X156061539Y-60064812D01*
X156061537Y-60064814D01*
X155910269Y-60202712D01*
X155786912Y-60366064D01*
X155695673Y-60549295D01*
X155639654Y-60746183D01*
X155620768Y-60949999D01*
X150011572Y-60949999D01*
X150012488Y-55869999D01*
X155620768Y-55869999D01*
X155620768Y-55870000D01*
X155639654Y-56073816D01*
X155695673Y-56270704D01*
X155786912Y-56453935D01*
X155910269Y-56617287D01*
X156061537Y-56755185D01*
X156061539Y-56755187D01*
X156235569Y-56862942D01*
X156235575Y-56862945D01*
X156299196Y-56887592D01*
X156426444Y-56936888D01*
X156617287Y-56972562D01*
X156679566Y-57004229D01*
X156714839Y-57064541D01*
X156718500Y-57094450D01*
X156718500Y-57185549D01*
X156698815Y-57252588D01*
X156646011Y-57298343D01*
X156617284Y-57307438D01*
X156426444Y-57343112D01*
X156426441Y-57343112D01*
X156426441Y-57343113D01*
X156235575Y-57417054D01*
X156235569Y-57417057D01*
X156061539Y-57524812D01*
X156061537Y-57524814D01*
X155910269Y-57662712D01*
X155786912Y-57826064D01*
X155695673Y-58009295D01*
X155639654Y-58206183D01*
X155620768Y-58409999D01*
X155620768Y-58410000D01*
X155639654Y-58613816D01*
X155695673Y-58810704D01*
X155786912Y-58993935D01*
X155910269Y-59157287D01*
X156061537Y-59295185D01*
X156061539Y-59295187D01*
X156235569Y-59402942D01*
X156235575Y-59402945D01*
X156276010Y-59418609D01*
X156426444Y-59476888D01*
X156627653Y-59514500D01*
X156627656Y-59514500D01*
X156832344Y-59514500D01*
X156832347Y-59514500D01*
X157033556Y-59476888D01*
X157224427Y-59402944D01*
X157398462Y-59295186D01*
X157549732Y-59157285D01*
X157673088Y-58993935D01*
X157764328Y-58810701D01*
X157820345Y-58613821D01*
X157827736Y-58534059D01*
X157853522Y-58469122D01*
X157910323Y-58428434D01*
X157951207Y-58421500D01*
X158048793Y-58421500D01*
X158115832Y-58441185D01*
X158161587Y-58493989D01*
X158172264Y-58534059D01*
X158179654Y-58613816D01*
X158235673Y-58810704D01*
X158326912Y-58993935D01*
X158450269Y-59157287D01*
X158601537Y-59295185D01*
X158601539Y-59295187D01*
X158775569Y-59402942D01*
X158775575Y-59402945D01*
X158816010Y-59418609D01*
X158966444Y-59476888D01*
X159167653Y-59514500D01*
X159167656Y-59514500D01*
X159372344Y-59514500D01*
X159372347Y-59514500D01*
X159573556Y-59476888D01*
X159764427Y-59402944D01*
X159938462Y-59295186D01*
X160089732Y-59157285D01*
X160213088Y-58993935D01*
X160304328Y-58810701D01*
X160360345Y-58613821D01*
X160379232Y-58410000D01*
X160360345Y-58206179D01*
X160304328Y-58009299D01*
X160213088Y-57826065D01*
X160089732Y-57662715D01*
X160089730Y-57662712D01*
X159938462Y-57524814D01*
X159938460Y-57524812D01*
X159764430Y-57417057D01*
X159764424Y-57417054D01*
X159613993Y-57358777D01*
X159573556Y-57343112D01*
X159382715Y-57307438D01*
X159320434Y-57275770D01*
X159285161Y-57215457D01*
X159281500Y-57185549D01*
X159281500Y-57094450D01*
X159301185Y-57027411D01*
X159353989Y-56981656D01*
X159382707Y-56972563D01*
X159573556Y-56936888D01*
X159764427Y-56862944D01*
X159938462Y-56755186D01*
X160089732Y-56617285D01*
X160213088Y-56453935D01*
X160304328Y-56270701D01*
X160360345Y-56073821D01*
X160379232Y-55870000D01*
X160360345Y-55666179D01*
X160304328Y-55469299D01*
X160213088Y-55286065D01*
X160089732Y-55122715D01*
X160089730Y-55122712D01*
X159938462Y-54984814D01*
X159938460Y-54984812D01*
X159764430Y-54877057D01*
X159764424Y-54877054D01*
X159613993Y-54818777D01*
X159573556Y-54803112D01*
X159372347Y-54765500D01*
X159167653Y-54765500D01*
X158966444Y-54803112D01*
X158966441Y-54803112D01*
X158966441Y-54803113D01*
X158775575Y-54877054D01*
X158775569Y-54877057D01*
X158601539Y-54984812D01*
X158601537Y-54984814D01*
X158450269Y-55122712D01*
X158326912Y-55286064D01*
X158235673Y-55469295D01*
X158179654Y-55666183D01*
X158172264Y-55745941D01*
X158146478Y-55810878D01*
X158089677Y-55851566D01*
X158048793Y-55858500D01*
X157951207Y-55858500D01*
X157884168Y-55838815D01*
X157838413Y-55786011D01*
X157827736Y-55745941D01*
X157820345Y-55666183D01*
X157820345Y-55666179D01*
X157764328Y-55469299D01*
X157673088Y-55286065D01*
X157549732Y-55122715D01*
X157549730Y-55122712D01*
X157398462Y-54984814D01*
X157398460Y-54984812D01*
X157224430Y-54877057D01*
X157224424Y-54877054D01*
X157073993Y-54818777D01*
X157033556Y-54803112D01*
X156832347Y-54765500D01*
X156627653Y-54765500D01*
X156426444Y-54803112D01*
X156426441Y-54803112D01*
X156426441Y-54803113D01*
X156235575Y-54877054D01*
X156235569Y-54877057D01*
X156061539Y-54984812D01*
X156061537Y-54984814D01*
X155910269Y-55122712D01*
X155786912Y-55286064D01*
X155695673Y-55469295D01*
X155639654Y-55666183D01*
X155620768Y-55869999D01*
X150012488Y-55869999D01*
X150012877Y-53714998D01*
X150012875Y-53714992D01*
X150012877Y-53709349D01*
X150012825Y-53708310D01*
X150012824Y-53688241D01*
X149987793Y-53510980D01*
X149970131Y-53449789D01*
X149970452Y-53379920D01*
X150008496Y-53321316D01*
X150072184Y-53292583D01*
X150141296Y-53302844D01*
X150168973Y-53320412D01*
X150232702Y-53373887D01*
X150232710Y-53373893D01*
X150520242Y-53563006D01*
X150827791Y-53717463D01*
X150827792Y-53717464D01*
X150827795Y-53717465D01*
X150827799Y-53717467D01*
X151151204Y-53835177D01*
X151486087Y-53914545D01*
X151827920Y-53954500D01*
X151827927Y-53954500D01*
X152172073Y-53954500D01*
X152172080Y-53954500D01*
X152513913Y-53914545D01*
X152848796Y-53835177D01*
X153172201Y-53717467D01*
X153479754Y-53563008D01*
X153767295Y-53373889D01*
X154030937Y-53152667D01*
X154267114Y-52902334D01*
X154472632Y-52626276D01*
X154644712Y-52328224D01*
X154781027Y-52012211D01*
X154879733Y-51682509D01*
X154879732Y-51682509D01*
X154880768Y-51679052D01*
X154882038Y-51679432D01*
X154913954Y-51623469D01*
X154975885Y-51591122D01*
X155045473Y-51597394D01*
X155100623Y-51640291D01*
X155118433Y-51679290D01*
X155119232Y-51679052D01*
X155218973Y-52012212D01*
X155355284Y-52328215D01*
X155355290Y-52328228D01*
X155527368Y-52626277D01*
X155732882Y-52902330D01*
X155732887Y-52902336D01*
X155854862Y-53031621D01*
X155969063Y-53152667D01*
X155969069Y-53152672D01*
X155969071Y-53152674D01*
X156232702Y-53373887D01*
X156232710Y-53373893D01*
X156520242Y-53563006D01*
X156827791Y-53717463D01*
X156827792Y-53717464D01*
X156827795Y-53717465D01*
X156827799Y-53717467D01*
X157151204Y-53835177D01*
X157486087Y-53914545D01*
X157827920Y-53954500D01*
X157827927Y-53954500D01*
X158172073Y-53954500D01*
X158172080Y-53954500D01*
X158513913Y-53914545D01*
X158848796Y-53835177D01*
X159172201Y-53717467D01*
X159479754Y-53563008D01*
X159767295Y-53373889D01*
X160030937Y-53152667D01*
X160267114Y-52902334D01*
X160472632Y-52626276D01*
X160644712Y-52328224D01*
X160781027Y-52012211D01*
X160879733Y-51682509D01*
X160890144Y-51623469D01*
X160939494Y-51343589D01*
X160939493Y-51343589D01*
X160939496Y-51343578D01*
X160959507Y-51000000D01*
X160939496Y-50656422D01*
X160939494Y-50656410D01*
X160879735Y-50317500D01*
X160879733Y-50317492D01*
X160781026Y-49987787D01*
X160644712Y-49671776D01*
X160544562Y-49498311D01*
X160472631Y-49373722D01*
X160267117Y-49097669D01*
X160267112Y-49097663D01*
X160152913Y-48976620D01*
X160030937Y-48847333D01*
X160030930Y-48847327D01*
X160030928Y-48847325D01*
X159767297Y-48626112D01*
X159767289Y-48626106D01*
X159479757Y-48436993D01*
X159172208Y-48282536D01*
X159172207Y-48282535D01*
X158848793Y-48164822D01*
X158664802Y-48121216D01*
X158513913Y-48085455D01*
X158172080Y-48045500D01*
X157827920Y-48045500D01*
X157486087Y-48085455D01*
X157151206Y-48164822D01*
X156827792Y-48282535D01*
X156827791Y-48282536D01*
X156520242Y-48436993D01*
X156232710Y-48626106D01*
X156232702Y-48626112D01*
X155969071Y-48847325D01*
X155969061Y-48847335D01*
X155732887Y-49097663D01*
X155732882Y-49097669D01*
X155527368Y-49373722D01*
X155355290Y-49671771D01*
X155355284Y-49671784D01*
X155218973Y-49987787D01*
X155119232Y-50320948D01*
X155117964Y-50320568D01*
X155086035Y-50376541D01*
X155024100Y-50408879D01*
X154954513Y-50402600D01*
X154899368Y-50359695D01*
X154881563Y-50320709D01*
X154880768Y-50320948D01*
X154781026Y-49987787D01*
X154644712Y-49671776D01*
X154544562Y-49498311D01*
X154472631Y-49373722D01*
X154267117Y-49097669D01*
X154267112Y-49097663D01*
X154152913Y-48976620D01*
X154030937Y-48847333D01*
X154030930Y-48847327D01*
X154030928Y-48847325D01*
X153767297Y-48626112D01*
X153767289Y-48626106D01*
X153479757Y-48436993D01*
X153172208Y-48282536D01*
X153172207Y-48282535D01*
X152848793Y-48164822D01*
X152664802Y-48121216D01*
X152513913Y-48085455D01*
X152172080Y-48045500D01*
X151827920Y-48045500D01*
X151486087Y-48085455D01*
X151151206Y-48164822D01*
X150827792Y-48282535D01*
X150827791Y-48282536D01*
X150520242Y-48436993D01*
X150232710Y-48626106D01*
X150232702Y-48626112D01*
X149969071Y-48847325D01*
X149969061Y-48847335D01*
X149732887Y-49097663D01*
X149732882Y-49097669D01*
X149527371Y-49373719D01*
X149490908Y-49436874D01*
X149440340Y-49485089D01*
X149371733Y-49498311D01*
X149306869Y-49472343D01*
X149266341Y-49415429D01*
X149259787Y-49366764D01*
X149260775Y-49351682D01*
X149262890Y-49335617D01*
X149309855Y-49099510D01*
X149314048Y-49083863D01*
X149391429Y-48855904D01*
X149397626Y-48840943D01*
X149504101Y-48625033D01*
X149512208Y-48610993D01*
X149627190Y-48438909D01*
X149645944Y-48410841D01*
X149655806Y-48397988D01*
X149814535Y-48216993D01*
X149825993Y-48205535D01*
X150006988Y-48046806D01*
X150019841Y-48036944D01*
X150219993Y-47903208D01*
X150234033Y-47895101D01*
X150449943Y-47788626D01*
X150464904Y-47782429D01*
X150692863Y-47705048D01*
X150708510Y-47700855D01*
X150944617Y-47653890D01*
X150960682Y-47651775D01*
X151204809Y-47635773D01*
X151213150Y-47635508D01*
X159737236Y-47652315D01*
G37*
%TD.AperFunction*%
%TD*%
M02*
