%TF.GenerationSoftware,KiCad,Pcbnew,8.0.3-8.0.3-0~ubuntu22.04.1*%
%TF.CreationDate,2024-07-14T15:19:41-07:00*%
%TF.ProjectId,NX-IndicatorBoard,4e582d49-6e64-4696-9361-746f72426f61,2*%
%TF.SameCoordinates,Original*%
%TF.FileFunction,Copper,L1,Top*%
%TF.FilePolarity,Positive*%
%FSLAX46Y46*%
G04 Gerber Fmt 4.6, Leading zero omitted, Abs format (unit mm)*
G04 Created by KiCad (PCBNEW 8.0.3-8.0.3-0~ubuntu22.04.1) date 2024-07-14 15:19:41*
%MOMM*%
%LPD*%
G01*
G04 APERTURE LIST*
G04 Aperture macros list*
%AMRoundRect*
0 Rectangle with rounded corners*
0 $1 Rounding radius*
0 $2 $3 $4 $5 $6 $7 $8 $9 X,Y pos of 4 corners*
0 Add a 4 corners polygon primitive as box body*
4,1,4,$2,$3,$4,$5,$6,$7,$8,$9,$2,$3,0*
0 Add four circle primitives for the rounded corners*
1,1,$1+$1,$2,$3*
1,1,$1+$1,$4,$5*
1,1,$1+$1,$6,$7*
1,1,$1+$1,$8,$9*
0 Add four rect primitives between the rounded corners*
20,1,$1+$1,$2,$3,$4,$5,0*
20,1,$1+$1,$4,$5,$6,$7,0*
20,1,$1+$1,$6,$7,$8,$9,0*
20,1,$1+$1,$8,$9,$2,$3,0*%
G04 Aperture macros list end*
%ADD10C,0.187500*%
%TA.AperFunction,NonConductor*%
%ADD11C,0.187500*%
%TD*%
%TA.AperFunction,SMDPad,CuDef*%
%ADD12RoundRect,0.250000X0.625000X-0.375000X0.625000X0.375000X-0.625000X0.375000X-0.625000X-0.375000X0*%
%TD*%
%TA.AperFunction,ComponentPad*%
%ADD13C,1.000000*%
%TD*%
%TA.AperFunction,SMDPad,CuDef*%
%ADD14RoundRect,0.225000X-0.250000X0.225000X-0.250000X-0.225000X0.250000X-0.225000X0.250000X0.225000X0*%
%TD*%
%TA.AperFunction,SMDPad,CuDef*%
%ADD15RoundRect,0.200000X0.275000X-0.200000X0.275000X0.200000X-0.275000X0.200000X-0.275000X-0.200000X0*%
%TD*%
%TA.AperFunction,SMDPad,CuDef*%
%ADD16R,1.500000X0.600000*%
%TD*%
%TA.AperFunction,SMDPad,CuDef*%
%ADD17R,1.400000X1.200000*%
%TD*%
%TA.AperFunction,ComponentPad*%
%ADD18C,1.700000*%
%TD*%
%TA.AperFunction,SMDPad,CuDef*%
%ADD19R,1.780000X1.020000*%
%TD*%
%TA.AperFunction,ComponentPad*%
%ADD20R,1.778000X1.778000*%
%TD*%
%TA.AperFunction,ComponentPad*%
%ADD21C,1.778000*%
%TD*%
%TA.AperFunction,SMDPad,CuDef*%
%ADD22RoundRect,0.150000X-0.150000X0.587500X-0.150000X-0.587500X0.150000X-0.587500X0.150000X0.587500X0*%
%TD*%
%TA.AperFunction,SMDPad,CuDef*%
%ADD23O,0.350000X0.850000*%
%TD*%
%TA.AperFunction,SMDPad,CuDef*%
%ADD24R,4.250000X1.650000*%
%TD*%
%TA.AperFunction,SMDPad,CuDef*%
%ADD25R,0.350000X0.650000*%
%TD*%
%TA.AperFunction,SMDPad,CuDef*%
%ADD26R,2.400000X1.550000*%
%TD*%
%TA.AperFunction,ComponentPad*%
%ADD27C,5.400000*%
%TD*%
%TA.AperFunction,ComponentPad*%
%ADD28R,1.905000X1.600200*%
%TD*%
%TA.AperFunction,ComponentPad*%
%ADD29O,1.905000X1.600200*%
%TD*%
%TA.AperFunction,ViaPad*%
%ADD30C,0.889000*%
%TD*%
%TA.AperFunction,Conductor*%
%ADD31C,0.381000*%
%TD*%
%TA.AperFunction,Conductor*%
%ADD32C,0.304800*%
%TD*%
%TA.AperFunction,Conductor*%
%ADD33C,0.635000*%
%TD*%
G04 APERTURE END LIST*
D10*
D11*
X29377697Y-55535964D02*
X28877697Y-55535964D01*
X28877697Y-56321678D02*
X28877697Y-54821678D01*
X28877697Y-54821678D02*
X29591983Y-54821678D01*
X30163411Y-56178821D02*
X30234840Y-56250250D01*
X30234840Y-56250250D02*
X30163411Y-56321678D01*
X30163411Y-56321678D02*
X30091983Y-56250250D01*
X30091983Y-56250250D02*
X30163411Y-56178821D01*
X30163411Y-56178821D02*
X30163411Y-56321678D01*
X31734840Y-56178821D02*
X31663412Y-56250250D01*
X31663412Y-56250250D02*
X31449126Y-56321678D01*
X31449126Y-56321678D02*
X31306269Y-56321678D01*
X31306269Y-56321678D02*
X31091983Y-56250250D01*
X31091983Y-56250250D02*
X30949126Y-56107392D01*
X30949126Y-56107392D02*
X30877697Y-55964535D01*
X30877697Y-55964535D02*
X30806269Y-55678821D01*
X30806269Y-55678821D02*
X30806269Y-55464535D01*
X30806269Y-55464535D02*
X30877697Y-55178821D01*
X30877697Y-55178821D02*
X30949126Y-55035964D01*
X30949126Y-55035964D02*
X31091983Y-54893107D01*
X31091983Y-54893107D02*
X31306269Y-54821678D01*
X31306269Y-54821678D02*
X31449126Y-54821678D01*
X31449126Y-54821678D02*
X31663412Y-54893107D01*
X31663412Y-54893107D02*
X31734840Y-54964535D01*
X33020555Y-55321678D02*
X33020555Y-56321678D01*
X32377697Y-55321678D02*
X32377697Y-56107392D01*
X32377697Y-56107392D02*
X32449126Y-56250250D01*
X32449126Y-56250250D02*
X32591983Y-56321678D01*
X32591983Y-56321678D02*
X32806269Y-56321678D01*
X32806269Y-56321678D02*
X32949126Y-56250250D01*
X32949126Y-56250250D02*
X33020555Y-56178821D01*
D12*
%TO.P,D8,1,K*%
%TO.N,GND*%
X92887800Y-117274800D03*
%TO.P,D8,2,A*%
%TO.N,Net-(D8-A)*%
X92887800Y-114474800D03*
%TD*%
D13*
%TO.P,TP1,1,1*%
%TO.N,Net-(U2-CLKO{slash}SOF)*%
X108204000Y-106299000D03*
%TD*%
D14*
%TO.P,C2,1*%
%TO.N,+3V3*%
X131445000Y-100977400D03*
%TO.P,C2,2*%
%TO.N,GND*%
X131445000Y-102527400D03*
%TD*%
%TO.P,C1,1*%
%TO.N,+3V3*%
X108585000Y-100977400D03*
%TO.P,C1,2*%
%TO.N,GND*%
X108585000Y-102527400D03*
%TD*%
D15*
%TO.P,R3,1*%
%TO.N,Net-(D10-A)*%
X81965800Y-103339400D03*
%TO.P,R3,2*%
%TO.N,Net-(U1-B5)*%
X81965800Y-101689400D03*
%TD*%
D16*
%TO.P,U1,1,A->B*%
%TO.N,GND*%
X97612400Y-104013000D03*
%TO.P,U1,2,A0*%
%TO.N,/UART1_TXD*%
X97612400Y-102743000D03*
%TO.P,U1,3,A1*%
%TO.N,/UART1_RXD*%
X97612400Y-101473000D03*
%TO.P,U1,4,A2*%
%TO.N,/I2S0_SCLK*%
X97612400Y-100203000D03*
%TO.P,U1,5,A3*%
%TO.N,/UART1_RTS*%
X97612400Y-98933000D03*
%TO.P,U1,6,A4*%
%TO.N,/I2S0_DIN*%
X97612400Y-97663000D03*
%TO.P,U1,7,A5*%
%TO.N,/UART1_CTS*%
X97612400Y-96393000D03*
%TO.P,U1,8,A6*%
%TO.N,/I2S0_DOUT*%
X97612400Y-95123000D03*
%TO.P,U1,9,A7*%
%TO.N,/I2S0_FS*%
X97612400Y-93853000D03*
%TO.P,U1,10,GND*%
%TO.N,GND*%
X97612400Y-92583000D03*
%TO.P,U1,11,B7*%
%TO.N,Net-(U1-B7)*%
X88112400Y-92583000D03*
%TO.P,U1,12,B6*%
%TO.N,Net-(U1-B6)*%
X88112400Y-93853000D03*
%TO.P,U1,13,B5*%
%TO.N,Net-(U1-B5)*%
X88112400Y-95123000D03*
%TO.P,U1,14,B4*%
%TO.N,Net-(U1-B4)*%
X88112400Y-96393000D03*
%TO.P,U1,15,B3*%
%TO.N,Net-(U1-B3)*%
X88112400Y-97663000D03*
%TO.P,U1,16,B2*%
%TO.N,Net-(U1-B2)*%
X88112400Y-98933000D03*
%TO.P,U1,17,B1*%
%TO.N,Net-(U1-B1)*%
X88112400Y-100203000D03*
%TO.P,U1,18,B0*%
%TO.N,Net-(U1-B0)*%
X88112400Y-101473000D03*
%TO.P,U1,19,CE*%
%TO.N,GND*%
X88112400Y-102743000D03*
%TO.P,U1,20,VCC*%
%TO.N,+3V3*%
X88112400Y-104013000D03*
%TD*%
D15*
%TO.P,R2,1*%
%TO.N,Net-(D9-A)*%
X80441800Y-103339400D03*
%TO.P,R2,2*%
%TO.N,Net-(U1-B7)*%
X80441800Y-101689400D03*
%TD*%
D12*
%TO.P,D9,1,K*%
%TO.N,GND*%
X77139800Y-123320000D03*
%TO.P,D9,2,A*%
%TO.N,Net-(D9-A)*%
X77139800Y-120520000D03*
%TD*%
D17*
%TO.P,U4,1,EN*%
%TO.N,+3V3*%
X110490000Y-109177000D03*
%TO.P,U4,2,GND*%
%TO.N,GND*%
X113030000Y-109177000D03*
%TO.P,U4,3,OUT*%
%TO.N,Net-(U2-OSC1)*%
X113030000Y-106977000D03*
%TO.P,U4,4,V_{DD}*%
%TO.N,+3V3*%
X110490000Y-106977000D03*
%TD*%
D14*
%TO.P,C3,1*%
%TO.N,+3V3*%
X115062000Y-107810000D03*
%TO.P,C3,2*%
%TO.N,GND*%
X115062000Y-109360000D03*
%TD*%
D17*
%TO.P,U5,1,EN*%
%TO.N,+3V3*%
X133350000Y-109177000D03*
%TO.P,U5,2,GND*%
%TO.N,GND*%
X135890000Y-109177000D03*
%TO.P,U5,3,OUT*%
%TO.N,Net-(U3-OSC1)*%
X135890000Y-106977000D03*
%TO.P,U5,4,V_{DD}*%
%TO.N,+3V3*%
X133350000Y-106977000D03*
%TD*%
D18*
%TO.P,J1,1,Pin_1*%
%TO.N,+3V3*%
X159270000Y-104130000D03*
D19*
X160910000Y-104130000D03*
%TO.P,J1,2,Pin_2*%
%TO.N,+5V*%
X155090000Y-104130000D03*
D18*
X156730000Y-104130000D03*
%TO.P,J1,3,Pin_3*%
%TO.N,/I2C1_SDA*%
X159270000Y-101590000D03*
D19*
X160910000Y-101590000D03*
%TO.P,J1,4,Pin_4*%
%TO.N,+5V*%
X155090000Y-101590000D03*
D18*
X156730000Y-101590000D03*
%TO.P,J1,5,Pin_5*%
%TO.N,/I2C1_SCL*%
X159270000Y-99050000D03*
D19*
X160910000Y-99050000D03*
%TO.P,J1,6,Pin_6*%
%TO.N,GND*%
X155090000Y-99050000D03*
D18*
X156730000Y-99050000D03*
%TO.P,J1,7,Pin_7*%
%TO.N,/GPIO09*%
X159270000Y-96510000D03*
D19*
X160910000Y-96510000D03*
%TO.P,J1,8,Pin_8*%
%TO.N,/UART1_TXD*%
X155090000Y-96510000D03*
D18*
X156730000Y-96510000D03*
%TO.P,J1,9,Pin_9*%
%TO.N,GND*%
X159270000Y-93970000D03*
D19*
X160910000Y-93970000D03*
%TO.P,J1,10,Pin_10*%
%TO.N,/UART1_RXD*%
X155090000Y-93970000D03*
D18*
X156730000Y-93970000D03*
%TO.P,J1,11,Pin_11*%
%TO.N,/UART1_RTS*%
X159270000Y-91430000D03*
D19*
X160910000Y-91430000D03*
%TO.P,J1,12,Pin_12*%
%TO.N,/I2S0_SCLK*%
X155090000Y-91430000D03*
D18*
X156730000Y-91430000D03*
%TO.P,J1,13,Pin_13*%
%TO.N,/SPI1_SCK*%
X159270000Y-88890000D03*
D19*
X160910000Y-88890000D03*
%TO.P,J1,14,Pin_14*%
%TO.N,GND*%
X155090000Y-88890000D03*
D18*
X156730000Y-88890000D03*
%TO.P,J1,15,Pin_15*%
%TO.N,/GPIO12*%
X159270000Y-86350000D03*
D19*
X160910000Y-86350000D03*
%TO.P,J1,16,Pin_16*%
%TO.N,/SPI1_CS1*%
X155090000Y-86350000D03*
D18*
X156730000Y-86350000D03*
%TO.P,J1,17,Pin_17*%
%TO.N,+3V3*%
X159270000Y-83810000D03*
D19*
X160910000Y-83810000D03*
%TO.P,J1,18,Pin_18*%
%TO.N,/SPI1_CS0*%
X155090000Y-83810000D03*
D18*
X156730000Y-83810000D03*
%TO.P,J1,19,Pin_19*%
%TO.N,/SPI0_MOSI*%
X159270000Y-81270000D03*
D19*
X160910000Y-81270000D03*
%TO.P,J1,20,Pin_20*%
%TO.N,GND*%
X155090000Y-81270000D03*
D18*
X156730000Y-81270000D03*
%TO.P,J1,21,Pin_21*%
%TO.N,/SPI0_MISO*%
X159270000Y-78730000D03*
D19*
X160910000Y-78730000D03*
%TO.P,J1,22,Pin_22*%
%TO.N,/SPI1_MISO*%
X155090000Y-78730000D03*
D18*
X156730000Y-78730000D03*
%TO.P,J1,23,Pin_23*%
%TO.N,/SPI0_SCK*%
X159270000Y-76190000D03*
D19*
X160910000Y-76190000D03*
%TO.P,J1,24,Pin_24*%
%TO.N,/SPI0_CS0*%
X155090000Y-76190000D03*
D18*
X156730000Y-76190000D03*
%TO.P,J1,25,Pin_25*%
%TO.N,GND*%
X159270000Y-73650000D03*
D19*
X160910000Y-73650000D03*
%TO.P,J1,26,Pin_26*%
%TO.N,/SPI0_CS1*%
X155090000Y-73650000D03*
D18*
X156730000Y-73650000D03*
%TO.P,J1,27,Pin_27*%
%TO.N,/I2C0_SDA*%
X159270000Y-71110000D03*
D19*
X160910000Y-71110000D03*
%TO.P,J1,28,Pin_28*%
%TO.N,/I2C0_SCL*%
X155090000Y-71110000D03*
D18*
X156730000Y-71110000D03*
%TO.P,J1,29,Pin_29*%
%TO.N,/GPIO01*%
X159270000Y-68570000D03*
D19*
X160910000Y-68570000D03*
%TO.P,J1,30,Pin_30*%
%TO.N,GND*%
X155090000Y-68570000D03*
D18*
X156730000Y-68570000D03*
%TO.P,J1,31,Pin_31*%
%TO.N,/GPIO11*%
X159270000Y-66030000D03*
D19*
X160910000Y-66030000D03*
%TO.P,J1,32,Pin_32*%
%TO.N,/GPIO07*%
X155090000Y-66030000D03*
D18*
X156730000Y-66030000D03*
%TO.P,J1,33,Pin_33*%
%TO.N,/GPIO13*%
X159270000Y-63490000D03*
D19*
X160910000Y-63490000D03*
%TO.P,J1,34,Pin_34*%
%TO.N,GND*%
X155090000Y-63490000D03*
D18*
X156730000Y-63490000D03*
%TO.P,J1,35,Pin_35*%
%TO.N,/I2S0_FS*%
X159270000Y-60950000D03*
D19*
X160910000Y-60950000D03*
%TO.P,J1,36,Pin_36*%
%TO.N,/UART1_CTS*%
X155090000Y-60950000D03*
D18*
X156730000Y-60950000D03*
%TO.P,J1,37,Pin_37*%
%TO.N,/SPI1_MOSI*%
X159270000Y-58410000D03*
D19*
X160910000Y-58410000D03*
%TO.P,J1,38,Pin_38*%
%TO.N,/I2S0_DIN*%
X155090000Y-58410000D03*
D18*
X156730000Y-58410000D03*
%TO.P,J1,39,Pin_39*%
%TO.N,GND*%
X159270000Y-55870000D03*
D19*
X160910000Y-55870000D03*
%TO.P,J1,40,Pin_40*%
%TO.N,/I2S0_DOUT*%
X155090000Y-55870000D03*
D18*
X156730000Y-55870000D03*
%TD*%
D20*
%TO.P,J2,1,Pin_1*%
%TO.N,/CAN1_L*%
X110236000Y-112903000D03*
D21*
%TO.P,J2,2,Pin_2*%
%TO.N,/CAN1_H*%
X107696000Y-112903000D03*
%TD*%
D22*
%TO.P,D2,1,K1*%
%TO.N,/CAN2_L*%
X142910600Y-108460300D03*
%TO.P,D2,2,K1*%
%TO.N,/CAN2_H*%
X141010600Y-108460300D03*
%TO.P,D2,3,KK*%
%TO.N,GND*%
X141960600Y-110335300D03*
%TD*%
D23*
%TO.P,U2,1,TXCAN*%
%TO.N,/SPI-CAN-FD1/CANTX*%
X109937000Y-104548500D03*
%TO.P,U2,2,RXCAN*%
%TO.N,/SPI-CAN-FD1/CANRX*%
X110587000Y-104548500D03*
%TO.P,U2,3,CLKO/SOF*%
%TO.N,Net-(U2-CLKO{slash}SOF)*%
X111237000Y-104548500D03*
%TO.P,U2,4,~{INT}*%
%TO.N,/GPIO09*%
X111887000Y-104548500D03*
%TO.P,U2,5,OSC2*%
%TO.N,unconnected-(U2-OSC2-Pad5)*%
X112537000Y-104548500D03*
%TO.P,U2,6,OSC1*%
%TO.N,Net-(U2-OSC1)*%
X113187000Y-104548500D03*
%TO.P,U2,7,VSS*%
%TO.N,GND*%
X113837000Y-104548500D03*
%TO.P,U2,8,~{INT1}/GPIO1*%
%TO.N,/GPIO07*%
X113837000Y-101548500D03*
%TO.P,U2,9,~{INT0}/GPIO0/XSTBY*%
%TO.N,/GPIO12*%
X113187000Y-101548500D03*
%TO.P,U2,10,SCK*%
%TO.N,/SPI0_SCK*%
X112537000Y-101548500D03*
%TO.P,U2,11,SDI*%
%TO.N,/SPI0_MOSI*%
X111887000Y-101548500D03*
%TO.P,U2,12,SDO*%
%TO.N,/SPI0_MISO*%
X111237000Y-101548500D03*
%TO.P,U2,13,~{CS}*%
%TO.N,/SPI0_CS0*%
X110587000Y-101548500D03*
%TO.P,U2,14,VDD*%
%TO.N,+3V3*%
X109937000Y-101548500D03*
D24*
%TO.P,U2,15,VSS*%
%TO.N,GND*%
X111887000Y-103048500D03*
%TD*%
D12*
%TO.P,D3,1,K*%
%TO.N,/NX_PC_LED-*%
X77139800Y-111204200D03*
%TO.P,D3,2,A*%
%TO.N,/NX_PC_LED+*%
X77139800Y-108404200D03*
%TD*%
D14*
%TO.P,C4,1*%
%TO.N,+3V3*%
X137922000Y-107810000D03*
%TO.P,C4,2*%
%TO.N,GND*%
X137922000Y-109360000D03*
%TD*%
D23*
%TO.P,U3,1,TXCAN*%
%TO.N,/SPI-CAN-FD2/CANTX*%
X132797000Y-104548500D03*
%TO.P,U3,2,RXCAN*%
%TO.N,/SPI-CAN-FD2/CANRX*%
X133447000Y-104548500D03*
%TO.P,U3,3,CLKO/SOF*%
%TO.N,Net-(U3-CLKO{slash}SOF)*%
X134097000Y-104548500D03*
%TO.P,U3,4,~{INT}*%
%TO.N,/GPIO01*%
X134747000Y-104548500D03*
%TO.P,U3,5,OSC2*%
%TO.N,unconnected-(U3-OSC2-Pad5)*%
X135397000Y-104548500D03*
%TO.P,U3,6,OSC1*%
%TO.N,Net-(U3-OSC1)*%
X136047000Y-104548500D03*
%TO.P,U3,7,VSS*%
%TO.N,GND*%
X136697000Y-104548500D03*
%TO.P,U3,8,~{INT1}/GPIO1*%
%TO.N,/GPIO13*%
X136697000Y-101548500D03*
%TO.P,U3,9,~{INT0}/GPIO0/XSTBY*%
%TO.N,/GPIO11*%
X136047000Y-101548500D03*
%TO.P,U3,10,SCK*%
%TO.N,/SPI1_SCK*%
X135397000Y-101548500D03*
%TO.P,U3,11,SDI*%
%TO.N,/SPI1_MOSI*%
X134747000Y-101548500D03*
%TO.P,U3,12,SDO*%
%TO.N,/SPI1_MISO*%
X134097000Y-101548500D03*
%TO.P,U3,13,~{CS}*%
%TO.N,/SPI1_CS0*%
X133447000Y-101548500D03*
%TO.P,U3,14,VDD*%
%TO.N,+3V3*%
X132797000Y-101548500D03*
D24*
%TO.P,U3,15,VSS*%
%TO.N,GND*%
X134747000Y-103048500D03*
%TD*%
D12*
%TO.P,D7,1,K*%
%TO.N,GND*%
X85013800Y-117274800D03*
%TO.P,D7,2,A*%
%TO.N,Net-(D7-A)*%
X85013800Y-114474800D03*
%TD*%
%TO.P,D11,1,K*%
%TO.N,GND*%
X92887800Y-123320000D03*
%TO.P,D11,2,A*%
%TO.N,Net-(D11-A)*%
X92887800Y-120520000D03*
%TD*%
D25*
%TO.P,U7,1,TXD*%
%TO.N,/SPI-CAN-FD2/CANTX*%
X129829200Y-107670000D03*
%TO.P,U7,2,V_{SS}*%
%TO.N,GND*%
X129179200Y-107670000D03*
%TO.P,U7,3,V_{DD}*%
%TO.N,+5V*%
X128529200Y-107670000D03*
%TO.P,U7,4,RXD*%
%TO.N,/SPI-CAN-FD2/CANRX*%
X127879200Y-107670000D03*
%TO.P,U7,5,V_{IO}*%
%TO.N,+3V3*%
X127879200Y-110770000D03*
%TO.P,U7,6,CANL*%
%TO.N,/CAN2_L*%
X128529200Y-110770000D03*
%TO.P,U7,7,CANH*%
%TO.N,/CAN2_H*%
X129179200Y-110770000D03*
%TO.P,U7,8,S*%
%TO.N,GND*%
X129829200Y-110770000D03*
D26*
%TO.P,U7,9,EP*%
X128854200Y-109220000D03*
%TD*%
D13*
%TO.P,TP2,1,1*%
%TO.N,Net-(U3-CLKO{slash}SOF)*%
X131064000Y-106299000D03*
%TD*%
D27*
%TO.P,H2,1*%
%TO.N,N/C*%
X158000000Y-51000000D03*
%TD*%
D15*
%TO.P,R5,1*%
%TO.N,Net-(D4-A)*%
X85013800Y-103339400D03*
%TO.P,R5,2*%
%TO.N,Net-(U1-B3)*%
X85013800Y-101689400D03*
%TD*%
D20*
%TO.P,J5,1,Pin_1*%
%TO.N,/CAN2_L*%
X143230600Y-112903000D03*
D21*
%TO.P,J5,2,Pin_2*%
%TO.N,/CAN2_H*%
X140690600Y-112903000D03*
%TD*%
D12*
%TO.P,D5,1,K*%
%TO.N,GND*%
X92887800Y-111204200D03*
%TO.P,D5,2,A*%
%TO.N,Net-(D5-A)*%
X92887800Y-108404200D03*
%TD*%
D27*
%TO.P,H1,1*%
%TO.N,N/C*%
X152000000Y-51000000D03*
%TD*%
%TO.P,H4,1*%
%TO.N,N/C*%
X152000000Y-109000000D03*
%TD*%
%TO.P,H3,1*%
%TO.N,N/C*%
X66000000Y-109000000D03*
%TD*%
%TO.P,H5,1*%
%TO.N,N/C*%
X158000000Y-109000000D03*
%TD*%
D20*
%TO.P,J3,1,Pin_1*%
%TO.N,/CAN1_L*%
X120396000Y-112903000D03*
D21*
%TO.P,J3,2,Pin_2*%
%TO.N,/CAN1_H*%
X117856000Y-112903000D03*
%TD*%
D22*
%TO.P,D1,1,K1*%
%TO.N,/CAN1_L*%
X120050600Y-108460300D03*
%TO.P,D1,2,K1*%
%TO.N,/CAN1_H*%
X118150600Y-108460300D03*
%TO.P,D1,3,KK*%
%TO.N,GND*%
X119100600Y-110335300D03*
%TD*%
D15*
%TO.P,R4,1*%
%TO.N,Net-(D7-A)*%
X83489800Y-103339400D03*
%TO.P,R4,2*%
%TO.N,Net-(U1-B4)*%
X83489800Y-101689400D03*
%TD*%
D20*
%TO.P,J4,1,Pin_1*%
%TO.N,/CAN2_L*%
X133096000Y-112903000D03*
D21*
%TO.P,J4,2,Pin_2*%
%TO.N,/CAN2_H*%
X130556000Y-112903000D03*
%TD*%
D25*
%TO.P,U6,1,TXD*%
%TO.N,/SPI-CAN-FD1/CANTX*%
X106969200Y-107670000D03*
%TO.P,U6,2,V_{SS}*%
%TO.N,GND*%
X106319200Y-107670000D03*
%TO.P,U6,3,V_{DD}*%
%TO.N,+5V*%
X105669200Y-107670000D03*
%TO.P,U6,4,RXD*%
%TO.N,/SPI-CAN-FD1/CANRX*%
X105019200Y-107670000D03*
%TO.P,U6,5,V_{IO}*%
%TO.N,+3V3*%
X105019200Y-110770000D03*
%TO.P,U6,6,CANL*%
%TO.N,/CAN1_L*%
X105669200Y-110770000D03*
%TO.P,U6,7,CANH*%
%TO.N,/CAN1_H*%
X106319200Y-110770000D03*
%TO.P,U6,8,S*%
%TO.N,GND*%
X106969200Y-110770000D03*
D26*
%TO.P,U6,9,EP*%
X105994200Y-109220000D03*
%TD*%
D12*
%TO.P,D4,1,K*%
%TO.N,GND*%
X85013800Y-111204200D03*
%TO.P,D4,2,A*%
%TO.N,Net-(D4-A)*%
X85013800Y-108404200D03*
%TD*%
%TO.P,D6,1,K*%
%TO.N,GND*%
X77139800Y-117274800D03*
%TO.P,D6,2,A*%
%TO.N,Net-(D6-A)*%
X77139800Y-114474800D03*
%TD*%
D15*
%TO.P,R1,1*%
%TO.N,Net-(D6-A)*%
X78917800Y-103339400D03*
%TO.P,R1,2*%
%TO.N,Net-(U1-B6)*%
X78917800Y-101689400D03*
%TD*%
D12*
%TO.P,D10,1,K*%
%TO.N,GND*%
X85013800Y-123320000D03*
%TO.P,D10,2,A*%
%TO.N,Net-(D10-A)*%
X85013800Y-120520000D03*
%TD*%
D28*
%TO.P,J6,1,Pin_1*%
%TO.N,/NX_PC_LED-*%
X59317800Y-119786400D03*
D29*
%TO.P,J6,2,Pin_2*%
%TO.N,/NX_PC_LED+*%
X59317800Y-117246400D03*
%TD*%
D30*
%TO.N,+3V3*%
X137922000Y-106680000D03*
X104140000Y-110744000D03*
X145542000Y-105410000D03*
X131470400Y-99820428D03*
X109169200Y-108127800D03*
X109677200Y-100355400D03*
X92862400Y-100253800D03*
X145542000Y-104140000D03*
X131953000Y-108077000D03*
X89585800Y-104013000D03*
X126974600Y-110794800D03*
X115062000Y-106629200D03*
%TO.N,GND*%
X89636600Y-102743000D03*
X92202000Y-118897400D03*
X118110000Y-110286800D03*
X130759200Y-109220000D03*
X130784600Y-107721400D03*
X114884200Y-103047800D03*
X92887800Y-124815600D03*
X107899200Y-109194600D03*
X76428600Y-118770400D03*
X113030000Y-110515400D03*
X135890000Y-110490000D03*
X107924600Y-107848400D03*
X137668000Y-104521000D03*
X86106000Y-112826800D03*
X137668000Y-102997000D03*
X108610400Y-103697600D03*
X77139800Y-124688600D03*
X91833764Y-112877600D03*
X107924600Y-110794800D03*
X92862400Y-96367600D03*
X140868400Y-110490000D03*
X104063800Y-109220000D03*
X85979000Y-118897400D03*
X96113600Y-92608400D03*
X131851400Y-103697600D03*
X126949200Y-109220000D03*
X130962400Y-110820200D03*
X85039200Y-124688600D03*
X99110800Y-104038400D03*
X137922000Y-110490000D03*
%TO.N,+5V*%
X126949200Y-107696000D03*
X105695540Y-106599768D03*
X104063800Y-107746800D03*
X128524000Y-106553000D03*
%TO.N,Net-(D11-A)*%
X94132400Y-118922800D03*
%TO.N,Net-(D5-A)*%
X91338400Y-106984800D03*
%TO.N,Net-(D8-A)*%
X93954600Y-112928400D03*
%TO.N,/GPIO09*%
X111884613Y-105838916D03*
X126837460Y-92608400D03*
X143662400Y-101701600D03*
%TO.N,/UART1_TXD*%
X138756424Y-94034576D03*
%TO.N,/UART1_RXD*%
X140030200Y-92887800D03*
%TO.N,/UART1_RTS*%
X142087600Y-93006164D03*
X108712000Y-94488000D03*
X113919000Y-93878400D03*
%TO.N,/I2S0_SCLK*%
X110358222Y-93645022D03*
X112090200Y-95453200D03*
X145110200Y-92532200D03*
%TO.N,/GPIO12*%
X129184400Y-95288100D03*
X128232760Y-100190300D03*
%TO.N,/SPI0_MOSI*%
X152234900Y-82727800D03*
%TO.N,/SPI0_MISO*%
X152234900Y-80721200D03*
%TO.N,/SPI1_MISO*%
X134654054Y-99496128D03*
%TO.N,/SPI0_SCK*%
X152815700Y-74076667D03*
%TO.N,/SPI1_CS0*%
X133550159Y-99199700D03*
%TO.N,/GPIO01*%
X134902006Y-105740633D03*
%TO.N,/GPIO11*%
X152679400Y-71120000D03*
X147400978Y-95127778D03*
X146964400Y-100317300D03*
%TO.N,/GPIO07*%
X124129800Y-100342700D03*
%TO.N,/GPIO13*%
X145364200Y-95567500D03*
X145745200Y-101612700D03*
X152793700Y-65354200D03*
%TO.N,/I2S0_FS*%
X104805988Y-94341188D03*
X110464600Y-97256600D03*
X136696450Y-95262700D03*
%TO.N,/UART1_CTS*%
X123190000Y-92887800D03*
%TO.N,/I2S0_DIN*%
X108762800Y-92557600D03*
X116027200Y-95427800D03*
X141097000Y-95427800D03*
%TO.N,/I2S0_DOUT*%
X103149400Y-95224600D03*
%TO.N,/SPI0_CS0*%
X152234900Y-76733400D03*
%TO.N,Net-(U1-B2)*%
X89763600Y-98907600D03*
%TO.N,Net-(U1-B1)*%
X89890600Y-100152200D03*
%TO.N,Net-(U1-B0)*%
X89789000Y-101498400D03*
%TO.N,/SPI-CAN-FD1/CANTX*%
X106781600Y-106243500D03*
X107111800Y-104541700D03*
%TO.N,/SPI-CAN-FD2/CANTX*%
X129624300Y-106243500D03*
X129743200Y-104541700D03*
%TD*%
D31*
%TO.N,+3V3*%
X133477000Y-108077000D02*
X136767500Y-108077000D01*
D32*
X113868200Y-108127800D02*
X114186000Y-107810000D01*
X105019200Y-110770000D02*
X104166000Y-110770000D01*
D31*
X131953000Y-108077000D02*
X133366000Y-108077000D01*
D32*
X110490000Y-108127800D02*
X113868200Y-108127800D01*
D31*
X109937000Y-100615200D02*
X109677200Y-100355400D01*
D32*
X131470400Y-99820428D02*
X131900628Y-99820428D01*
X132797000Y-100716800D02*
X132797000Y-101548500D01*
D31*
X133350000Y-109177000D02*
X133350000Y-108093000D01*
D32*
X114186000Y-107810000D02*
X115062000Y-107810000D01*
D31*
X131470400Y-100177600D02*
X131445000Y-100203000D01*
D33*
X153416000Y-105156000D02*
X145796000Y-105156000D01*
X145796000Y-105156000D02*
X145542000Y-105410000D01*
D32*
X110490000Y-106977000D02*
X110490000Y-108127800D01*
D33*
X157736000Y-105664000D02*
X153924000Y-105664000D01*
D31*
X137034500Y-107810000D02*
X137922000Y-107810000D01*
D32*
X115062000Y-107810000D02*
X115062000Y-106629200D01*
X88112400Y-104013000D02*
X89585800Y-104013000D01*
X110490000Y-108127800D02*
X109169200Y-108127800D01*
D31*
X133350000Y-108093000D02*
X133366000Y-108077000D01*
D33*
X159270000Y-104130000D02*
X157736000Y-105664000D01*
D31*
X131470400Y-99820428D02*
X131470400Y-100177600D01*
X133421500Y-108021500D02*
X133477000Y-108077000D01*
X108635800Y-100101400D02*
X109423200Y-100101400D01*
X131445000Y-100203000D02*
X131445000Y-100977400D01*
X108585000Y-100152200D02*
X108635800Y-100101400D01*
D32*
X131900628Y-99820428D02*
X132797000Y-100716800D01*
X110490000Y-108127800D02*
X110490000Y-109177000D01*
D31*
X133350000Y-106977000D02*
X133350000Y-107950000D01*
D32*
X104166000Y-110770000D02*
X104140000Y-110744000D01*
D31*
X133350000Y-107950000D02*
X133421500Y-108021500D01*
X109423200Y-100101400D02*
X109677200Y-100355400D01*
D32*
X126999400Y-110770000D02*
X127879200Y-110770000D01*
D33*
X153924000Y-105664000D02*
X153416000Y-105156000D01*
D31*
X133366000Y-108077000D02*
X133421500Y-108021500D01*
X136767500Y-108077000D02*
X137034500Y-107810000D01*
D32*
X126974600Y-110794800D02*
X126999400Y-110770000D01*
D31*
X137922000Y-107810000D02*
X137922000Y-106680000D01*
X108585000Y-100977400D02*
X108585000Y-100152200D01*
X109937000Y-101548500D02*
X109937000Y-100615200D01*
%TO.N,GND*%
X119052100Y-110286800D02*
X119100600Y-110335300D01*
X85471000Y-118897400D02*
X85979000Y-118897400D01*
X85521800Y-112826800D02*
X86106000Y-112826800D01*
X137922000Y-109360000D02*
X137922000Y-110490000D01*
D32*
X137616500Y-103048500D02*
X137668000Y-102997000D01*
D31*
X106969200Y-109194600D02*
X107899200Y-109194600D01*
X106319200Y-107670000D02*
X106319200Y-108895000D01*
X85013800Y-112318800D02*
X85369400Y-112674400D01*
X136073000Y-109360000D02*
X135890000Y-109177000D01*
D32*
X96113600Y-92608400D02*
X97587000Y-92608400D01*
X108585000Y-103697600D02*
X108585000Y-102527400D01*
X137640500Y-104548500D02*
X137668000Y-104521000D01*
X114883500Y-103048500D02*
X114884200Y-103047800D01*
D31*
X92887800Y-124815600D02*
X92887800Y-123320000D01*
D32*
X111887000Y-103048500D02*
X111237900Y-103697600D01*
X141023100Y-110335300D02*
X140868400Y-110490000D01*
X111887000Y-103048500D02*
X114883500Y-103048500D01*
X129829200Y-110770000D02*
X129829200Y-109220000D01*
X129179200Y-107670000D02*
X129179200Y-108895000D01*
D31*
X85013800Y-118440200D02*
X85471000Y-118897400D01*
X118110000Y-110286800D02*
X119052100Y-110286800D01*
X77139800Y-117274800D02*
X77139800Y-118059200D01*
X92252800Y-112877600D02*
X92887800Y-112242600D01*
D32*
X129829200Y-109220000D02*
X130759200Y-109220000D01*
D31*
X77139800Y-118059200D02*
X76428600Y-118770400D01*
X92887800Y-118211600D02*
X92202000Y-118897400D01*
X105994200Y-109220000D02*
X107873800Y-109220000D01*
X85369400Y-112674400D02*
X85521800Y-112826800D01*
X106319200Y-108895000D02*
X105994200Y-109220000D01*
D32*
X97612400Y-104013000D02*
X99085400Y-104013000D01*
D31*
X85013800Y-117274800D02*
X85013800Y-118440200D01*
D32*
X129179200Y-108895000D02*
X128854200Y-109220000D01*
D31*
X92887800Y-112242600D02*
X92887800Y-111204200D01*
X105994200Y-109220000D02*
X104063800Y-109220000D01*
X85013800Y-123320000D02*
X85013800Y-124663200D01*
X107873800Y-109220000D02*
X107899200Y-109194600D01*
X131445000Y-102527400D02*
X131445000Y-103291200D01*
D32*
X99085400Y-104013000D02*
X99110800Y-104038400D01*
X113837000Y-104548500D02*
X113837000Y-103047800D01*
X108585000Y-103672200D02*
X108610400Y-103697600D01*
D31*
X135890000Y-109177000D02*
X135890000Y-110490000D01*
D32*
X134097900Y-103697600D02*
X134747000Y-103048500D01*
X97587000Y-92608400D02*
X97612400Y-92583000D01*
X141960600Y-110335300D02*
X141023100Y-110335300D01*
D31*
X131445000Y-103291200D02*
X131851400Y-103697600D01*
X92887800Y-117274800D02*
X92887800Y-118211600D01*
D32*
X128854200Y-109220000D02*
X126949200Y-109220000D01*
X111237900Y-103697600D02*
X108585000Y-103697600D01*
D31*
X91833764Y-112877600D02*
X92252800Y-112877600D01*
X137922000Y-109360000D02*
X136073000Y-109360000D01*
D32*
X115062000Y-109360000D02*
X113213000Y-109360000D01*
X113030000Y-109177000D02*
X113030000Y-110515400D01*
D31*
X106969200Y-110770000D02*
X106969200Y-109194600D01*
D32*
X113213000Y-109360000D02*
X113030000Y-109177000D01*
X108585000Y-102527400D02*
X108585000Y-103672200D01*
X134747000Y-103048500D02*
X137616500Y-103048500D01*
D31*
X77139800Y-123320000D02*
X77139800Y-124688600D01*
X85013800Y-124663200D02*
X85039200Y-124688600D01*
D32*
X131851400Y-103697600D02*
X134097900Y-103697600D01*
X136697000Y-104548500D02*
X137640500Y-104548500D01*
X128854200Y-109220000D02*
X130759200Y-109220000D01*
X113837000Y-103047800D02*
X114884200Y-103047800D01*
X88112400Y-102743000D02*
X89636600Y-102743000D01*
D31*
X85013800Y-111204200D02*
X85013800Y-112318800D01*
%TO.N,Net-(D10-A)*%
X84734400Y-119075200D02*
X82296000Y-119075200D01*
X85013800Y-119354600D02*
X84734400Y-119075200D01*
X80238600Y-106070400D02*
X81965800Y-104343200D01*
X81965800Y-104343200D02*
X81965800Y-103339400D01*
X85013800Y-120520000D02*
X85013800Y-119354600D01*
X82296000Y-119075200D02*
X80238600Y-117017800D01*
X80238600Y-117017800D02*
X80238600Y-106070400D01*
D32*
%TO.N,+5V*%
X128529200Y-106558200D02*
X128524000Y-106553000D01*
X105695540Y-106599768D02*
X105669200Y-106626108D01*
X105669200Y-106626108D02*
X105669200Y-107670000D01*
X128529200Y-107670000D02*
X128529200Y-106558200D01*
D31*
%TO.N,/NX_PC_LED+*%
X76428600Y-106299000D02*
X74295000Y-106299000D01*
X63347600Y-117246400D02*
X59317800Y-117246400D01*
X77139800Y-108404200D02*
X77139800Y-107010200D01*
X74295000Y-106299000D02*
X63347600Y-117246400D01*
X77139800Y-107010200D02*
X76428600Y-106299000D01*
%TO.N,Net-(D11-A)*%
X92887800Y-119557800D02*
X92887800Y-120520000D01*
X94132400Y-118922800D02*
X93522800Y-118922800D01*
X93522800Y-118922800D02*
X92887800Y-119557800D01*
%TO.N,Net-(D5-A)*%
X91338400Y-106984800D02*
X92506800Y-106984800D01*
X92506800Y-106984800D02*
X92887800Y-107365800D01*
X92887800Y-107365800D02*
X92887800Y-108404200D01*
%TO.N,Net-(D6-A)*%
X78917800Y-111734600D02*
X77139800Y-113512600D01*
X78917800Y-103339400D02*
X78917800Y-111734600D01*
X77139800Y-113512600D02*
X77139800Y-114474800D01*
%TO.N,Net-(D7-A)*%
X80873600Y-111328200D02*
X80873600Y-107619800D01*
X82702400Y-113157000D02*
X80873600Y-111328200D01*
X80873600Y-107619800D02*
X83489800Y-105003600D01*
X85013800Y-114474800D02*
X85013800Y-113411000D01*
X83489800Y-105003600D02*
X83489800Y-103339400D01*
X85013800Y-113411000D02*
X84759800Y-113157000D01*
X84759800Y-113157000D02*
X82702400Y-113157000D01*
%TO.N,Net-(D8-A)*%
X93319600Y-112928400D02*
X92887800Y-113360200D01*
X92887800Y-113360200D02*
X92887800Y-114474800D01*
X93954600Y-112928400D02*
X93319600Y-112928400D01*
%TO.N,Net-(D9-A)*%
X79603600Y-118770400D02*
X79298800Y-119075200D01*
X80441800Y-103339400D02*
X80441800Y-104622600D01*
X80441800Y-104622600D02*
X79603600Y-105460800D01*
X77647800Y-119075200D02*
X77139800Y-119583200D01*
X79603600Y-105460800D02*
X79603600Y-118770400D01*
X77139800Y-119583200D02*
X77139800Y-120520000D01*
X79298800Y-119075200D02*
X77647800Y-119075200D01*
D32*
%TO.N,/GPIO09*%
X111887000Y-105836529D02*
X111884613Y-105838916D01*
X111887000Y-104548500D02*
X111887000Y-105836529D01*
%TO.N,/UART1_TXD*%
X137838248Y-93116400D02*
X128363739Y-93116400D01*
X113214291Y-92855909D02*
X103327200Y-102743000D01*
X103327200Y-102743000D02*
X97612400Y-102743000D01*
X127144539Y-94335600D02*
X118926025Y-94335600D01*
X138756424Y-94034576D02*
X137838248Y-93116400D01*
X117446334Y-92855909D02*
X113214291Y-92855909D01*
X128363739Y-93116400D02*
X127144539Y-94335600D01*
X118926025Y-94335600D02*
X117446334Y-92855909D01*
%TO.N,/UART1_RXD*%
X103733600Y-101473000D02*
X112909491Y-92297109D01*
X119157488Y-93776800D02*
X126913076Y-93776800D01*
X139547600Y-92405200D02*
X140030200Y-92887800D01*
X117677797Y-92297109D02*
X119157488Y-93776800D01*
X112909491Y-92297109D02*
X117677797Y-92297109D01*
X126913076Y-93776800D02*
X128284676Y-92405200D01*
X97612400Y-101473000D02*
X103733600Y-101473000D01*
X128284676Y-92405200D02*
X139547600Y-92405200D01*
%TO.N,/UART1_RTS*%
X138422704Y-94898464D02*
X139402496Y-94898464D01*
X139402496Y-94898464D02*
X141294796Y-93006164D01*
X107924600Y-94488000D02*
X103479600Y-98933000D01*
X114382691Y-93414709D02*
X117214871Y-93414709D01*
X137199440Y-93675200D02*
X138422704Y-94898464D01*
X108712000Y-94488000D02*
X107924600Y-94488000D01*
X118694562Y-94894400D02*
X127376002Y-94894400D01*
X127376002Y-94894400D02*
X128595202Y-93675200D01*
X141294796Y-93006164D02*
X142087600Y-93006164D01*
X113919000Y-93878400D02*
X114382691Y-93414709D01*
X117214871Y-93414709D02*
X118694562Y-94894400D01*
X103479600Y-98933000D02*
X97612400Y-98933000D01*
X128595202Y-93675200D02*
X137199440Y-93675200D01*
%TO.N,/I2S0_SCLK*%
X116983408Y-93973509D02*
X118463099Y-95453200D01*
X113547555Y-95453200D02*
X115027246Y-93973509D01*
X138192924Y-95453200D02*
X139632276Y-95453200D01*
X104213338Y-100203000D02*
X105179969Y-99236369D01*
X127607465Y-95453200D02*
X128801265Y-94259400D01*
X115027246Y-93973509D02*
X116983408Y-93973509D01*
X141067376Y-94018100D02*
X143624300Y-94018100D01*
X143624300Y-94018100D02*
X145110200Y-92532200D01*
X97612400Y-100203000D02*
X104213338Y-100203000D01*
X139632276Y-95453200D02*
X141067376Y-94018100D01*
X128801265Y-94259400D02*
X136999124Y-94259400D01*
X136999124Y-94259400D02*
X138192924Y-95453200D01*
X110358222Y-94058116D02*
X110358222Y-93645022D01*
X112090200Y-95453200D02*
X113547555Y-95453200D01*
X105179969Y-99236369D02*
X110358222Y-94058116D01*
X118463099Y-95453200D02*
X127607465Y-95453200D01*
%TO.N,/SPI1_SCK*%
X135397000Y-101548500D02*
X135397000Y-100797600D01*
X136728200Y-99466400D02*
X151206200Y-99466400D01*
X151206200Y-99466400D02*
X153644600Y-97028000D01*
X153644600Y-97028000D02*
X153644600Y-90662600D01*
X154160800Y-90146400D02*
X158013600Y-90146400D01*
X153644600Y-90662600D02*
X154160800Y-90146400D01*
X135397000Y-100797600D02*
X136728200Y-99466400D01*
X158013600Y-90146400D02*
X159270000Y-88890000D01*
%TO.N,/GPIO12*%
X128232760Y-100190300D02*
X127534260Y-99491800D01*
X127534260Y-99491800D02*
X114376200Y-99491800D01*
X113187000Y-100681000D02*
X113187000Y-101548500D01*
X114376200Y-99491800D02*
X113187000Y-100681000D01*
D31*
%TO.N,/CAN1_L*%
X120396000Y-112903000D02*
X121005600Y-112293400D01*
X111607600Y-114274600D02*
X110236000Y-112903000D01*
X119024400Y-114274600D02*
X111607600Y-114274600D01*
X120550700Y-108460300D02*
X120050600Y-108460300D01*
X108864400Y-114274600D02*
X110236000Y-112903000D01*
X120396000Y-112903000D02*
X119024400Y-114274600D01*
X121005600Y-108915200D02*
X120550700Y-108460300D01*
X121005600Y-112293400D02*
X121005600Y-108915200D01*
X107181746Y-114274600D02*
X108864400Y-114274600D01*
X105669200Y-112762054D02*
X107181746Y-114274600D01*
D32*
X105669200Y-110770000D02*
X105669200Y-112762054D01*
D31*
%TO.N,/CAN1_H*%
X106319200Y-111526200D02*
X107696000Y-112903000D01*
X117574300Y-108460300D02*
X117170200Y-108864400D01*
X109029500Y-111569500D02*
X116522500Y-111569500D01*
X107696000Y-112903000D02*
X109029500Y-111569500D01*
X118150600Y-108460300D02*
X117574300Y-108460300D01*
X116522500Y-111569500D02*
X117462300Y-111569500D01*
X117170200Y-108864400D02*
X117170200Y-111506000D01*
X117106700Y-111569500D02*
X116522500Y-111569500D01*
X117170200Y-111506000D02*
X117106700Y-111569500D01*
X117462300Y-111569500D02*
X117856000Y-111963200D01*
D32*
X106319200Y-110770000D02*
X106319200Y-111526200D01*
D31*
X117856000Y-111963200D02*
X117856000Y-112903000D01*
D32*
%TO.N,/SPI0_MOSI*%
X111887000Y-100386524D02*
X111887000Y-101548500D01*
X113899324Y-98374200D02*
X111887000Y-100386524D01*
X131213537Y-97790000D02*
X130629337Y-98374200D01*
X150269263Y-97790000D02*
X131213537Y-97790000D01*
X151892000Y-96167263D02*
X150269263Y-97790000D01*
X130629337Y-98374200D02*
X113899324Y-98374200D01*
X152234900Y-82727800D02*
X151892000Y-83070700D01*
X151892000Y-83070700D02*
X151892000Y-96167263D01*
%TO.N,/SPI0_MISO*%
X150037800Y-97231200D02*
X130982074Y-97231200D01*
X152234900Y-80721200D02*
X151333200Y-81622900D01*
X151333200Y-95935800D02*
X150037800Y-97231200D01*
X130397874Y-97815400D02*
X113667862Y-97815400D01*
X130982074Y-97231200D02*
X130397874Y-97815400D01*
X113667862Y-97815400D02*
X111237000Y-100246262D01*
X151333200Y-81622900D02*
X151333200Y-95935800D01*
X111237000Y-100246262D02*
X111237000Y-101548500D01*
%TO.N,/SPI1_MISO*%
X134654054Y-99496128D02*
X134654054Y-99909221D01*
X134097000Y-100466275D02*
X134097000Y-101548500D01*
X134654054Y-99909221D02*
X134097000Y-100466275D01*
%TO.N,/SPI0_SCK*%
X150596600Y-98348800D02*
X152527000Y-96418400D01*
X112537000Y-101548500D02*
X112537000Y-100526786D01*
X131445000Y-98348800D02*
X150596600Y-98348800D01*
X153085800Y-89640874D02*
X153085800Y-74346767D01*
X152527000Y-90199674D02*
X153085800Y-89640874D01*
X112537000Y-100526786D02*
X114130786Y-98933000D01*
X130860800Y-98933000D02*
X131445000Y-98348800D01*
X114130786Y-98933000D02*
X130860800Y-98933000D01*
X152527000Y-96418400D02*
X152527000Y-90199674D01*
X153085800Y-74346767D02*
X152815700Y-74076667D01*
%TO.N,/SPI1_CS0*%
X133447000Y-99302859D02*
X133447000Y-101548500D01*
X133550159Y-99199700D02*
X133447000Y-99302859D01*
%TO.N,/GPIO01*%
X134747000Y-105585627D02*
X134902006Y-105740633D01*
X134747000Y-104548500D02*
X134747000Y-105585627D01*
%TO.N,/GPIO11*%
X146773900Y-100126800D02*
X146964400Y-100317300D01*
X136047000Y-100960400D02*
X136880600Y-100126800D01*
X136047000Y-101548500D02*
X136047000Y-100960400D01*
X136880600Y-100126800D02*
X146773900Y-100126800D01*
%TO.N,/GPIO07*%
X124129800Y-100342700D02*
X122924000Y-101548500D01*
X122924000Y-101548500D02*
X113837000Y-101548500D01*
%TO.N,/GPIO13*%
X150215600Y-66355119D02*
X151216519Y-65354200D01*
X144818100Y-100685600D02*
X138607800Y-100685600D01*
X150215600Y-95199200D02*
X150215600Y-66355119D01*
X145884900Y-96088200D02*
X149326600Y-96088200D01*
X145745200Y-101612700D02*
X144818100Y-100685600D01*
X145364200Y-95567500D02*
X145884900Y-96088200D01*
X149326600Y-96088200D02*
X150215600Y-95199200D01*
X151216519Y-65354200D02*
X152793700Y-65354200D01*
X145427700Y-95554800D02*
X145415000Y-95567500D01*
X137744900Y-101548500D02*
X136697000Y-101548500D01*
X138607800Y-100685600D02*
X137744900Y-101548500D01*
X145415000Y-95567500D02*
X145364200Y-95567500D01*
%TO.N,/I2S0_FS*%
X97612400Y-93853000D02*
X104317800Y-93853000D01*
X130287685Y-95554800D02*
X129703485Y-96139000D01*
X136404350Y-95554800D02*
X130287685Y-95554800D01*
X115258709Y-94532309D02*
X112534418Y-97256600D01*
X112534418Y-97256600D02*
X110464600Y-97256600D01*
X116751945Y-94532309D02*
X115258709Y-94532309D01*
X129703485Y-96139000D02*
X118358636Y-96139000D01*
X118358636Y-96139000D02*
X116751945Y-94532309D01*
X136696450Y-95262700D02*
X136404350Y-95554800D01*
X104317800Y-93853000D02*
X104805988Y-94341188D01*
%TO.N,/UART1_CTS*%
X104137138Y-96393000D02*
X107670600Y-92859538D01*
X122008900Y-91706700D02*
X123190000Y-92887800D01*
X107670600Y-92349930D02*
X108313830Y-91706700D01*
X107670600Y-92859538D02*
X107670600Y-92349930D01*
X97612400Y-96393000D02*
X104137138Y-96393000D01*
X108313830Y-91706700D02*
X122008900Y-91706700D01*
%TO.N,/SPI1_MOSI*%
X153085800Y-96774000D02*
X153085800Y-90431137D01*
X157990000Y-59690000D02*
X159270000Y-58410000D01*
X153793600Y-60033600D02*
X154137200Y-59690000D01*
X154137200Y-59690000D02*
X157990000Y-59690000D01*
X153085800Y-90431137D02*
X153793600Y-89723337D01*
X134747000Y-100606538D02*
X136445938Y-98907600D01*
X150952200Y-98907600D02*
X153085800Y-96774000D01*
X134747000Y-101548500D02*
X134747000Y-100606538D01*
X136445938Y-98907600D02*
X150952200Y-98907600D01*
X153793600Y-89723337D02*
X153793600Y-60033600D01*
%TO.N,/I2S0_DIN*%
X117297200Y-96697800D02*
X116027200Y-95427800D01*
X130519148Y-96113600D02*
X129934948Y-96697800D01*
X140411200Y-96113600D02*
X130519148Y-96113600D01*
X103835200Y-97663000D02*
X97612400Y-97663000D01*
X129934948Y-96697800D02*
X117297200Y-96697800D01*
X108762800Y-92735400D02*
X103835200Y-97663000D01*
X108762800Y-92557600D02*
X108762800Y-92735400D01*
X141097000Y-95427800D02*
X140411200Y-96113600D01*
%TO.N,/I2S0_DOUT*%
X103047800Y-95123000D02*
X103149400Y-95224600D01*
X97612400Y-95123000D02*
X103047800Y-95123000D01*
D31*
%TO.N,/NX_PC_LED-*%
X76530200Y-113030000D02*
X68732400Y-113030000D01*
X68732400Y-113030000D02*
X61976000Y-119786400D01*
X77139800Y-111204200D02*
X77139800Y-112420400D01*
X61976000Y-119786400D02*
X59317800Y-119786400D01*
X77139800Y-112420400D02*
X76530200Y-113030000D01*
D32*
%TO.N,/CAN2_L*%
X133096000Y-112903000D02*
X134391400Y-114198400D01*
X142910600Y-108460300D02*
X142910600Y-110500200D01*
X143230600Y-110820200D02*
X143230600Y-112903000D01*
X128529200Y-112708173D02*
X130019427Y-114198400D01*
X134391400Y-114198400D02*
X141935200Y-114198400D01*
X130019427Y-114198400D02*
X131800600Y-114198400D01*
X128529200Y-110770000D02*
X128529200Y-112708173D01*
X141935200Y-114198400D02*
X143230600Y-112903000D01*
X131800600Y-114198400D02*
X133096000Y-112903000D01*
X142910600Y-110500200D02*
X143230600Y-110820200D01*
%TO.N,/CAN2_H*%
X129179200Y-110770000D02*
X129179200Y-111526200D01*
X129179200Y-111526200D02*
X130556000Y-112903000D01*
D31*
X139357100Y-109207300D02*
X139357100Y-111569500D01*
X141010600Y-108460300D02*
X140104100Y-108460300D01*
X140104100Y-108460300D02*
X139357100Y-109207300D01*
X140690600Y-112903000D02*
X139357100Y-111569500D01*
X139357100Y-111569500D02*
X131889500Y-111569500D01*
X131889500Y-111569500D02*
X130556000Y-112903000D01*
%TO.N,Net-(D4-A)*%
X85013800Y-103339400D02*
X85013800Y-108404200D01*
%TO.N,Net-(U1-B6)*%
X85318600Y-91567000D02*
X78917800Y-97967800D01*
X89281000Y-93853000D02*
X90043000Y-93091000D01*
X89382600Y-91567000D02*
X85318600Y-91567000D01*
X88112400Y-93853000D02*
X89281000Y-93853000D01*
X90043000Y-92227400D02*
X89382600Y-91567000D01*
X78917800Y-97967800D02*
X78917800Y-101689400D01*
X90043000Y-93091000D02*
X90043000Y-92227400D01*
D32*
%TO.N,/SPI0_CS0*%
X110587000Y-100106000D02*
X110587000Y-101548500D01*
X149631400Y-96672400D02*
X130750611Y-96672400D01*
X150774400Y-95529400D02*
X149631400Y-96672400D01*
X152234900Y-76733400D02*
X150774400Y-78193900D01*
X150774400Y-78193900D02*
X150774400Y-95529400D01*
X130750611Y-96672400D02*
X130166411Y-97256600D01*
X113436400Y-97256600D02*
X110587000Y-100106000D01*
X130166411Y-97256600D02*
X113436400Y-97256600D01*
D31*
%TO.N,Net-(U1-B7)*%
X86664800Y-92583000D02*
X80441800Y-98806000D01*
X88112400Y-92583000D02*
X86664800Y-92583000D01*
X80441800Y-98806000D02*
X80441800Y-101689400D01*
%TO.N,Net-(U1-B5)*%
X86981400Y-95123000D02*
X81965800Y-100138600D01*
X88112400Y-95123000D02*
X86981400Y-95123000D01*
X81965800Y-100138600D02*
X81965800Y-101689400D01*
%TO.N,Net-(U1-B4)*%
X83489800Y-99884600D02*
X83489800Y-101689400D01*
X86981400Y-96393000D02*
X83489800Y-99884600D01*
X88112400Y-96393000D02*
X86981400Y-96393000D01*
%TO.N,Net-(U1-B3)*%
X88112400Y-97663000D02*
X86690200Y-97663000D01*
X86690200Y-97663000D02*
X85013800Y-99339400D01*
X85013800Y-99339400D02*
X85013800Y-101689400D01*
%TO.N,Net-(U1-B2)*%
X88112400Y-98933000D02*
X89738200Y-98933000D01*
X89738200Y-98933000D02*
X89763600Y-98907600D01*
%TO.N,Net-(U1-B1)*%
X88112400Y-100203000D02*
X89839800Y-100203000D01*
X89839800Y-100203000D02*
X89890600Y-100152200D01*
%TO.N,Net-(U1-B0)*%
X89789000Y-101498400D02*
X88137800Y-101498400D01*
X88137800Y-101498400D02*
X88112400Y-101473000D01*
D32*
%TO.N,Net-(U2-CLKO{slash}SOF)*%
X111237000Y-105272600D02*
X110540800Y-105968800D01*
X108534200Y-105968800D02*
X108204000Y-106299000D01*
X110540800Y-105968800D02*
X108534200Y-105968800D01*
X111237000Y-104548500D02*
X111237000Y-105272600D01*
%TO.N,Net-(U3-CLKO{slash}SOF)*%
X134097000Y-104548500D02*
X134097000Y-105425000D01*
X131392400Y-105970600D02*
X131064000Y-106299000D01*
X134097000Y-105425000D02*
X133551400Y-105970600D01*
X133551400Y-105970600D02*
X131392400Y-105970600D01*
%TO.N,/SPI-CAN-FD1/CANTX*%
X106781600Y-106243500D02*
X106969200Y-106431100D01*
X106969200Y-106431100D02*
X106969200Y-107670000D01*
X107118600Y-104548500D02*
X107111800Y-104541700D01*
X109937000Y-104548500D02*
X107118600Y-104548500D01*
%TO.N,/SPI-CAN-FD1/CANRX*%
X105452800Y-105392600D02*
X110304200Y-105392600D01*
X104844640Y-106000760D02*
X105452800Y-105392600D01*
X110304200Y-105392600D02*
X110587000Y-105109800D01*
X104844640Y-106952223D02*
X104844640Y-106000760D01*
X105019200Y-107670000D02*
X105019200Y-107126783D01*
X105019200Y-107126783D02*
X104844640Y-106952223D01*
X110587000Y-105109800D02*
X110587000Y-104548500D01*
%TO.N,Net-(U2-OSC1)*%
X113187000Y-104548500D02*
X113187000Y-105608600D01*
X113187000Y-105608600D02*
X113030000Y-105765600D01*
X113030000Y-105765600D02*
X113030000Y-106977000D01*
%TO.N,/SPI-CAN-FD2/CANRX*%
X127665178Y-106897533D02*
X127879200Y-107111555D01*
X133070600Y-105411800D02*
X132588076Y-105411800D01*
X133447000Y-105035400D02*
X133070600Y-105411800D01*
X127665178Y-106065622D02*
X127665178Y-106897533D01*
X128338200Y-105392600D02*
X127665178Y-106065622D01*
X133447000Y-104548500D02*
X133447000Y-105035400D01*
X132568876Y-105392600D02*
X128338200Y-105392600D01*
X132588076Y-105411800D02*
X132568876Y-105392600D01*
X127879200Y-107111555D02*
X127879200Y-107670000D01*
%TO.N,/SPI-CAN-FD2/CANTX*%
X129750000Y-104548500D02*
X132797000Y-104548500D01*
X129829200Y-106448400D02*
X129829200Y-107670000D01*
X129743200Y-104541700D02*
X129750000Y-104548500D01*
X129624300Y-106243500D02*
X129829200Y-106448400D01*
%TO.N,Net-(U3-OSC1)*%
X136047000Y-104548500D02*
X136047000Y-105634000D01*
X136047000Y-105634000D02*
X135890000Y-105791000D01*
X135890000Y-105791000D02*
X135890000Y-106977000D01*
%TD*%
M02*
