%TF.GenerationSoftware,KiCad,Pcbnew,8.0.4-8.0.4-0~ubuntu22.04.1*%
%TF.CreationDate,2024-07-28T18:22:01-07:00*%
%TF.ProjectId,NX-IndicatorBoard,4e582d49-6e64-4696-9361-746f72426f61,2*%
%TF.SameCoordinates,Original*%
%TF.FileFunction,Legend,Bot*%
%TF.FilePolarity,Positive*%
%FSLAX46Y46*%
G04 Gerber Fmt 4.6, Leading zero omitted, Abs format (unit mm)*
G04 Created by KiCad (PCBNEW 8.0.4-8.0.4-0~ubuntu22.04.1) date 2024-07-28 18:22:01*
%MOMM*%
%LPD*%
G01*
G04 APERTURE LIST*
%ADD10C,0.187500*%
%ADD11C,0.152400*%
%ADD12C,0.203200*%
%ADD13C,0.120000*%
%ADD14C,0.200000*%
G04 APERTURE END LIST*
D10*
X29377697Y-73315964D02*
X29591983Y-73387392D01*
X29591983Y-73387392D02*
X29663412Y-73458821D01*
X29663412Y-73458821D02*
X29734840Y-73601678D01*
X29734840Y-73601678D02*
X29734840Y-73815964D01*
X29734840Y-73815964D02*
X29663412Y-73958821D01*
X29663412Y-73958821D02*
X29591983Y-74030250D01*
X29591983Y-74030250D02*
X29449126Y-74101678D01*
X29449126Y-74101678D02*
X28877697Y-74101678D01*
X28877697Y-74101678D02*
X28877697Y-72601678D01*
X28877697Y-72601678D02*
X29377697Y-72601678D01*
X29377697Y-72601678D02*
X29520555Y-72673107D01*
X29520555Y-72673107D02*
X29591983Y-72744535D01*
X29591983Y-72744535D02*
X29663412Y-72887392D01*
X29663412Y-72887392D02*
X29663412Y-73030250D01*
X29663412Y-73030250D02*
X29591983Y-73173107D01*
X29591983Y-73173107D02*
X29520555Y-73244535D01*
X29520555Y-73244535D02*
X29377697Y-73315964D01*
X29377697Y-73315964D02*
X28877697Y-73315964D01*
X30377697Y-73958821D02*
X30449126Y-74030250D01*
X30449126Y-74030250D02*
X30377697Y-74101678D01*
X30377697Y-74101678D02*
X30306269Y-74030250D01*
X30306269Y-74030250D02*
X30377697Y-73958821D01*
X30377697Y-73958821D02*
X30377697Y-74101678D01*
X31020555Y-74030250D02*
X31234841Y-74101678D01*
X31234841Y-74101678D02*
X31591983Y-74101678D01*
X31591983Y-74101678D02*
X31734841Y-74030250D01*
X31734841Y-74030250D02*
X31806269Y-73958821D01*
X31806269Y-73958821D02*
X31877698Y-73815964D01*
X31877698Y-73815964D02*
X31877698Y-73673107D01*
X31877698Y-73673107D02*
X31806269Y-73530250D01*
X31806269Y-73530250D02*
X31734841Y-73458821D01*
X31734841Y-73458821D02*
X31591983Y-73387392D01*
X31591983Y-73387392D02*
X31306269Y-73315964D01*
X31306269Y-73315964D02*
X31163412Y-73244535D01*
X31163412Y-73244535D02*
X31091983Y-73173107D01*
X31091983Y-73173107D02*
X31020555Y-73030250D01*
X31020555Y-73030250D02*
X31020555Y-72887392D01*
X31020555Y-72887392D02*
X31091983Y-72744535D01*
X31091983Y-72744535D02*
X31163412Y-72673107D01*
X31163412Y-72673107D02*
X31306269Y-72601678D01*
X31306269Y-72601678D02*
X31663412Y-72601678D01*
X31663412Y-72601678D02*
X31877698Y-72673107D01*
X32520554Y-74101678D02*
X32520554Y-73101678D01*
X32520554Y-72601678D02*
X32449126Y-72673107D01*
X32449126Y-72673107D02*
X32520554Y-72744535D01*
X32520554Y-72744535D02*
X32591983Y-72673107D01*
X32591983Y-72673107D02*
X32520554Y-72601678D01*
X32520554Y-72601678D02*
X32520554Y-72744535D01*
X33449126Y-74101678D02*
X33306269Y-74030250D01*
X33306269Y-74030250D02*
X33234840Y-73887392D01*
X33234840Y-73887392D02*
X33234840Y-72601678D01*
X34020554Y-74101678D02*
X34020554Y-72601678D01*
X34163412Y-73530250D02*
X34591983Y-74101678D01*
X34591983Y-73101678D02*
X34020554Y-73673107D01*
X35163412Y-74030250D02*
X35306269Y-74101678D01*
X35306269Y-74101678D02*
X35591983Y-74101678D01*
X35591983Y-74101678D02*
X35734840Y-74030250D01*
X35734840Y-74030250D02*
X35806269Y-73887392D01*
X35806269Y-73887392D02*
X35806269Y-73815964D01*
X35806269Y-73815964D02*
X35734840Y-73673107D01*
X35734840Y-73673107D02*
X35591983Y-73601678D01*
X35591983Y-73601678D02*
X35377698Y-73601678D01*
X35377698Y-73601678D02*
X35234840Y-73530250D01*
X35234840Y-73530250D02*
X35163412Y-73387392D01*
X35163412Y-73387392D02*
X35163412Y-73315964D01*
X35163412Y-73315964D02*
X35234840Y-73173107D01*
X35234840Y-73173107D02*
X35377698Y-73101678D01*
X35377698Y-73101678D02*
X35591983Y-73101678D01*
X35591983Y-73101678D02*
X35734840Y-73173107D01*
X37091984Y-74030250D02*
X36949126Y-74101678D01*
X36949126Y-74101678D02*
X36663412Y-74101678D01*
X36663412Y-74101678D02*
X36520555Y-74030250D01*
X36520555Y-74030250D02*
X36449126Y-73958821D01*
X36449126Y-73958821D02*
X36377698Y-73815964D01*
X36377698Y-73815964D02*
X36377698Y-73387392D01*
X36377698Y-73387392D02*
X36449126Y-73244535D01*
X36449126Y-73244535D02*
X36520555Y-73173107D01*
X36520555Y-73173107D02*
X36663412Y-73101678D01*
X36663412Y-73101678D02*
X36949126Y-73101678D01*
X36949126Y-73101678D02*
X37091984Y-73173107D01*
X37734840Y-74101678D02*
X37734840Y-73101678D01*
X37734840Y-73387392D02*
X37806269Y-73244535D01*
X37806269Y-73244535D02*
X37877698Y-73173107D01*
X37877698Y-73173107D02*
X38020555Y-73101678D01*
X38020555Y-73101678D02*
X38163412Y-73101678D01*
X39234840Y-74030250D02*
X39091983Y-74101678D01*
X39091983Y-74101678D02*
X38806269Y-74101678D01*
X38806269Y-74101678D02*
X38663411Y-74030250D01*
X38663411Y-74030250D02*
X38591983Y-73887392D01*
X38591983Y-73887392D02*
X38591983Y-73315964D01*
X38591983Y-73315964D02*
X38663411Y-73173107D01*
X38663411Y-73173107D02*
X38806269Y-73101678D01*
X38806269Y-73101678D02*
X39091983Y-73101678D01*
X39091983Y-73101678D02*
X39234840Y-73173107D01*
X39234840Y-73173107D02*
X39306269Y-73315964D01*
X39306269Y-73315964D02*
X39306269Y-73458821D01*
X39306269Y-73458821D02*
X38591983Y-73601678D01*
X40520554Y-74030250D02*
X40377697Y-74101678D01*
X40377697Y-74101678D02*
X40091983Y-74101678D01*
X40091983Y-74101678D02*
X39949125Y-74030250D01*
X39949125Y-74030250D02*
X39877697Y-73887392D01*
X39877697Y-73887392D02*
X39877697Y-73315964D01*
X39877697Y-73315964D02*
X39949125Y-73173107D01*
X39949125Y-73173107D02*
X40091983Y-73101678D01*
X40091983Y-73101678D02*
X40377697Y-73101678D01*
X40377697Y-73101678D02*
X40520554Y-73173107D01*
X40520554Y-73173107D02*
X40591983Y-73315964D01*
X40591983Y-73315964D02*
X40591983Y-73458821D01*
X40591983Y-73458821D02*
X39877697Y-73601678D01*
X41234839Y-73101678D02*
X41234839Y-74101678D01*
X41234839Y-73244535D02*
X41306268Y-73173107D01*
X41306268Y-73173107D02*
X41449125Y-73101678D01*
X41449125Y-73101678D02*
X41663411Y-73101678D01*
X41663411Y-73101678D02*
X41806268Y-73173107D01*
X41806268Y-73173107D02*
X41877697Y-73315964D01*
X41877697Y-73315964D02*
X41877697Y-74101678D01*
D11*
X68885882Y-118572394D02*
X68837501Y-118524013D01*
X68837501Y-118524013D02*
X68740739Y-118475632D01*
X68740739Y-118475632D02*
X68498834Y-118475632D01*
X68498834Y-118475632D02*
X68402072Y-118524013D01*
X68402072Y-118524013D02*
X68353691Y-118572394D01*
X68353691Y-118572394D02*
X68305310Y-118669156D01*
X68305310Y-118669156D02*
X68305310Y-118765918D01*
X68305310Y-118765918D02*
X68353691Y-118911061D01*
X68353691Y-118911061D02*
X68934263Y-119491632D01*
X68934263Y-119491632D02*
X68305310Y-119491632D01*
X67869882Y-119104585D02*
X67095787Y-119104585D01*
X66128167Y-119491632D02*
X66611977Y-119491632D01*
X66611977Y-119491632D02*
X66611977Y-118475632D01*
X65789501Y-118959442D02*
X65450834Y-118959442D01*
X65305691Y-119491632D02*
X65789501Y-119491632D01*
X65789501Y-119491632D02*
X65789501Y-118475632D01*
X65789501Y-118475632D02*
X65305691Y-118475632D01*
X64870263Y-119491632D02*
X64870263Y-118475632D01*
X64870263Y-118475632D02*
X64628358Y-118475632D01*
X64628358Y-118475632D02*
X64483215Y-118524013D01*
X64483215Y-118524013D02*
X64386453Y-118620775D01*
X64386453Y-118620775D02*
X64338072Y-118717537D01*
X64338072Y-118717537D02*
X64289691Y-118911061D01*
X64289691Y-118911061D02*
X64289691Y-119056204D01*
X64289691Y-119056204D02*
X64338072Y-119249728D01*
X64338072Y-119249728D02*
X64386453Y-119346490D01*
X64386453Y-119346490D02*
X64483215Y-119443252D01*
X64483215Y-119443252D02*
X64628358Y-119491632D01*
X64628358Y-119491632D02*
X64870263Y-119491632D01*
X63854263Y-119104585D02*
X63080168Y-119104585D01*
X63467215Y-119491632D02*
X63467215Y-118717537D01*
X68305310Y-121127335D02*
X68885882Y-121127335D01*
X68595596Y-121127335D02*
X68595596Y-120111335D01*
X68595596Y-120111335D02*
X68692358Y-120256478D01*
X68692358Y-120256478D02*
X68789120Y-120353240D01*
X68789120Y-120353240D02*
X68885882Y-120401621D01*
X67869882Y-120740288D02*
X67095787Y-120740288D01*
X66128167Y-121127335D02*
X66611977Y-121127335D01*
X66611977Y-121127335D02*
X66611977Y-120111335D01*
X65789501Y-120595145D02*
X65450834Y-120595145D01*
X65305691Y-121127335D02*
X65789501Y-121127335D01*
X65789501Y-121127335D02*
X65789501Y-120111335D01*
X65789501Y-120111335D02*
X65305691Y-120111335D01*
X64870263Y-121127335D02*
X64870263Y-120111335D01*
X64870263Y-120111335D02*
X64628358Y-120111335D01*
X64628358Y-120111335D02*
X64483215Y-120159716D01*
X64483215Y-120159716D02*
X64386453Y-120256478D01*
X64386453Y-120256478D02*
X64338072Y-120353240D01*
X64338072Y-120353240D02*
X64289691Y-120546764D01*
X64289691Y-120546764D02*
X64289691Y-120691907D01*
X64289691Y-120691907D02*
X64338072Y-120885431D01*
X64338072Y-120885431D02*
X64386453Y-120982193D01*
X64386453Y-120982193D02*
X64483215Y-121078955D01*
X64483215Y-121078955D02*
X64628358Y-121127335D01*
X64628358Y-121127335D02*
X64870263Y-121127335D01*
X63854263Y-120740288D02*
X63080168Y-120740288D01*
X128083732Y-107553334D02*
X128132113Y-107601715D01*
X128132113Y-107601715D02*
X128277256Y-107650095D01*
X128277256Y-107650095D02*
X128374018Y-107650095D01*
X128374018Y-107650095D02*
X128519161Y-107601715D01*
X128519161Y-107601715D02*
X128615923Y-107504953D01*
X128615923Y-107504953D02*
X128664304Y-107408191D01*
X128664304Y-107408191D02*
X128712685Y-107214667D01*
X128712685Y-107214667D02*
X128712685Y-107069524D01*
X128712685Y-107069524D02*
X128664304Y-106876000D01*
X128664304Y-106876000D02*
X128615923Y-106779238D01*
X128615923Y-106779238D02*
X128519161Y-106682476D01*
X128519161Y-106682476D02*
X128374018Y-106634095D01*
X128374018Y-106634095D02*
X128277256Y-106634095D01*
X128277256Y-106634095D02*
X128132113Y-106682476D01*
X128132113Y-106682476D02*
X128083732Y-106730857D01*
X127503161Y-107069524D02*
X127599923Y-107021143D01*
X127599923Y-107021143D02*
X127648304Y-106972762D01*
X127648304Y-106972762D02*
X127696685Y-106876000D01*
X127696685Y-106876000D02*
X127696685Y-106827619D01*
X127696685Y-106827619D02*
X127648304Y-106730857D01*
X127648304Y-106730857D02*
X127599923Y-106682476D01*
X127599923Y-106682476D02*
X127503161Y-106634095D01*
X127503161Y-106634095D02*
X127309637Y-106634095D01*
X127309637Y-106634095D02*
X127212875Y-106682476D01*
X127212875Y-106682476D02*
X127164494Y-106730857D01*
X127164494Y-106730857D02*
X127116113Y-106827619D01*
X127116113Y-106827619D02*
X127116113Y-106876000D01*
X127116113Y-106876000D02*
X127164494Y-106972762D01*
X127164494Y-106972762D02*
X127212875Y-107021143D01*
X127212875Y-107021143D02*
X127309637Y-107069524D01*
X127309637Y-107069524D02*
X127503161Y-107069524D01*
X127503161Y-107069524D02*
X127599923Y-107117905D01*
X127599923Y-107117905D02*
X127648304Y-107166286D01*
X127648304Y-107166286D02*
X127696685Y-107263048D01*
X127696685Y-107263048D02*
X127696685Y-107456572D01*
X127696685Y-107456572D02*
X127648304Y-107553334D01*
X127648304Y-107553334D02*
X127599923Y-107601715D01*
X127599923Y-107601715D02*
X127503161Y-107650095D01*
X127503161Y-107650095D02*
X127309637Y-107650095D01*
X127309637Y-107650095D02*
X127212875Y-107601715D01*
X127212875Y-107601715D02*
X127164494Y-107553334D01*
X127164494Y-107553334D02*
X127116113Y-107456572D01*
X127116113Y-107456572D02*
X127116113Y-107263048D01*
X127116113Y-107263048D02*
X127164494Y-107166286D01*
X127164494Y-107166286D02*
X127212875Y-107117905D01*
X127212875Y-107117905D02*
X127309637Y-107069524D01*
X85470904Y-125648695D02*
X85470904Y-124632695D01*
X85470904Y-124632695D02*
X85228999Y-124632695D01*
X85228999Y-124632695D02*
X85083856Y-124681076D01*
X85083856Y-124681076D02*
X84987094Y-124777838D01*
X84987094Y-124777838D02*
X84938713Y-124874600D01*
X84938713Y-124874600D02*
X84890332Y-125068124D01*
X84890332Y-125068124D02*
X84890332Y-125213267D01*
X84890332Y-125213267D02*
X84938713Y-125406791D01*
X84938713Y-125406791D02*
X84987094Y-125503553D01*
X84987094Y-125503553D02*
X85083856Y-125600315D01*
X85083856Y-125600315D02*
X85228999Y-125648695D01*
X85228999Y-125648695D02*
X85470904Y-125648695D01*
X84551666Y-124632695D02*
X83874332Y-124632695D01*
X83874332Y-124632695D02*
X84309761Y-125648695D01*
X84982351Y-121497934D02*
X85030732Y-121546315D01*
X85030732Y-121546315D02*
X85175875Y-121594695D01*
X85175875Y-121594695D02*
X85272637Y-121594695D01*
X85272637Y-121594695D02*
X85417780Y-121546315D01*
X85417780Y-121546315D02*
X85514542Y-121449553D01*
X85514542Y-121449553D02*
X85562923Y-121352791D01*
X85562923Y-121352791D02*
X85611304Y-121159267D01*
X85611304Y-121159267D02*
X85611304Y-121014124D01*
X85611304Y-121014124D02*
X85562923Y-120820600D01*
X85562923Y-120820600D02*
X85514542Y-120723838D01*
X85514542Y-120723838D02*
X85417780Y-120627076D01*
X85417780Y-120627076D02*
X85272637Y-120578695D01*
X85272637Y-120578695D02*
X85175875Y-120578695D01*
X85175875Y-120578695D02*
X85030732Y-120627076D01*
X85030732Y-120627076D02*
X84982351Y-120675457D01*
X84595304Y-121304410D02*
X84111494Y-121304410D01*
X84692066Y-121594695D02*
X84353399Y-120578695D01*
X84353399Y-120578695D02*
X84014732Y-121594695D01*
X83676066Y-121594695D02*
X83676066Y-120578695D01*
X83676066Y-120578695D02*
X83095494Y-121594695D01*
X83095494Y-121594695D02*
X83095494Y-120578695D01*
X82079494Y-121594695D02*
X82660066Y-121594695D01*
X82369780Y-121594695D02*
X82369780Y-120578695D01*
X82369780Y-120578695D02*
X82466542Y-120723838D01*
X82466542Y-120723838D02*
X82563304Y-120820600D01*
X82563304Y-120820600D02*
X82660066Y-120868981D01*
X85437132Y-111841095D02*
X85920942Y-111841095D01*
X85920942Y-111841095D02*
X85920942Y-110825095D01*
X85098466Y-111841095D02*
X85098466Y-110825095D01*
X85098466Y-110825095D02*
X84711418Y-110825095D01*
X84711418Y-110825095D02*
X84614656Y-110873476D01*
X84614656Y-110873476D02*
X84566275Y-110921857D01*
X84566275Y-110921857D02*
X84517894Y-111018619D01*
X84517894Y-111018619D02*
X84517894Y-111163762D01*
X84517894Y-111163762D02*
X84566275Y-111260524D01*
X84566275Y-111260524D02*
X84614656Y-111308905D01*
X84614656Y-111308905D02*
X84711418Y-111357286D01*
X84711418Y-111357286D02*
X85098466Y-111357286D01*
X84130847Y-110921857D02*
X84082466Y-110873476D01*
X84082466Y-110873476D02*
X83985704Y-110825095D01*
X83985704Y-110825095D02*
X83743799Y-110825095D01*
X83743799Y-110825095D02*
X83647037Y-110873476D01*
X83647037Y-110873476D02*
X83598656Y-110921857D01*
X83598656Y-110921857D02*
X83550275Y-111018619D01*
X83550275Y-111018619D02*
X83550275Y-111115381D01*
X83550275Y-111115381D02*
X83598656Y-111260524D01*
X83598656Y-111260524D02*
X84179228Y-111841095D01*
X84179228Y-111841095D02*
X83550275Y-111841095D01*
X110862532Y-103057534D02*
X110910913Y-103105915D01*
X110910913Y-103105915D02*
X111056056Y-103154295D01*
X111056056Y-103154295D02*
X111152818Y-103154295D01*
X111152818Y-103154295D02*
X111297961Y-103105915D01*
X111297961Y-103105915D02*
X111394723Y-103009153D01*
X111394723Y-103009153D02*
X111443104Y-102912391D01*
X111443104Y-102912391D02*
X111491485Y-102718867D01*
X111491485Y-102718867D02*
X111491485Y-102573724D01*
X111491485Y-102573724D02*
X111443104Y-102380200D01*
X111443104Y-102380200D02*
X111394723Y-102283438D01*
X111394723Y-102283438D02*
X111297961Y-102186676D01*
X111297961Y-102186676D02*
X111152818Y-102138295D01*
X111152818Y-102138295D02*
X111056056Y-102138295D01*
X111056056Y-102138295D02*
X110910913Y-102186676D01*
X110910913Y-102186676D02*
X110862532Y-102235057D01*
X110523866Y-102138295D02*
X109846532Y-102138295D01*
X109846532Y-102138295D02*
X110281961Y-103154295D01*
X104817332Y-107578734D02*
X104865713Y-107627115D01*
X104865713Y-107627115D02*
X105010856Y-107675495D01*
X105010856Y-107675495D02*
X105107618Y-107675495D01*
X105107618Y-107675495D02*
X105252761Y-107627115D01*
X105252761Y-107627115D02*
X105349523Y-107530353D01*
X105349523Y-107530353D02*
X105397904Y-107433591D01*
X105397904Y-107433591D02*
X105446285Y-107240067D01*
X105446285Y-107240067D02*
X105446285Y-107094924D01*
X105446285Y-107094924D02*
X105397904Y-106901400D01*
X105397904Y-106901400D02*
X105349523Y-106804638D01*
X105349523Y-106804638D02*
X105252761Y-106707876D01*
X105252761Y-106707876D02*
X105107618Y-106659495D01*
X105107618Y-106659495D02*
X105010856Y-106659495D01*
X105010856Y-106659495D02*
X104865713Y-106707876D01*
X104865713Y-106707876D02*
X104817332Y-106756257D01*
X104333523Y-107675495D02*
X104139999Y-107675495D01*
X104139999Y-107675495D02*
X104043237Y-107627115D01*
X104043237Y-107627115D02*
X103994856Y-107578734D01*
X103994856Y-107578734D02*
X103898094Y-107433591D01*
X103898094Y-107433591D02*
X103849713Y-107240067D01*
X103849713Y-107240067D02*
X103849713Y-106853019D01*
X103849713Y-106853019D02*
X103898094Y-106756257D01*
X103898094Y-106756257D02*
X103946475Y-106707876D01*
X103946475Y-106707876D02*
X104043237Y-106659495D01*
X104043237Y-106659495D02*
X104236761Y-106659495D01*
X104236761Y-106659495D02*
X104333523Y-106707876D01*
X104333523Y-106707876D02*
X104381904Y-106756257D01*
X104381904Y-106756257D02*
X104430285Y-106853019D01*
X104430285Y-106853019D02*
X104430285Y-107094924D01*
X104430285Y-107094924D02*
X104381904Y-107191686D01*
X104381904Y-107191686D02*
X104333523Y-107240067D01*
X104333523Y-107240067D02*
X104236761Y-107288448D01*
X104236761Y-107288448D02*
X104043237Y-107288448D01*
X104043237Y-107288448D02*
X103946475Y-107240067D01*
X103946475Y-107240067D02*
X103898094Y-107191686D01*
X103898094Y-107191686D02*
X103849713Y-107094924D01*
X59673066Y-122915495D02*
X59673066Y-123641210D01*
X59673066Y-123641210D02*
X59721447Y-123786353D01*
X59721447Y-123786353D02*
X59818209Y-123883115D01*
X59818209Y-123883115D02*
X59963352Y-123931495D01*
X59963352Y-123931495D02*
X60060114Y-123931495D01*
X58753828Y-122915495D02*
X58947352Y-122915495D01*
X58947352Y-122915495D02*
X59044114Y-122963876D01*
X59044114Y-122963876D02*
X59092495Y-123012257D01*
X59092495Y-123012257D02*
X59189257Y-123157400D01*
X59189257Y-123157400D02*
X59237638Y-123350924D01*
X59237638Y-123350924D02*
X59237638Y-123737972D01*
X59237638Y-123737972D02*
X59189257Y-123834734D01*
X59189257Y-123834734D02*
X59140876Y-123883115D01*
X59140876Y-123883115D02*
X59044114Y-123931495D01*
X59044114Y-123931495D02*
X58850590Y-123931495D01*
X58850590Y-123931495D02*
X58753828Y-123883115D01*
X58753828Y-123883115D02*
X58705447Y-123834734D01*
X58705447Y-123834734D02*
X58657066Y-123737972D01*
X58657066Y-123737972D02*
X58657066Y-123496067D01*
X58657066Y-123496067D02*
X58705447Y-123399305D01*
X58705447Y-123399305D02*
X58753828Y-123350924D01*
X58753828Y-123350924D02*
X58850590Y-123302543D01*
X58850590Y-123302543D02*
X59044114Y-123302543D01*
X59044114Y-123302543D02*
X59140876Y-123350924D01*
X59140876Y-123350924D02*
X59189257Y-123399305D01*
X59189257Y-123399305D02*
X59237638Y-123496067D01*
D12*
G36*
X64057590Y-117350253D02*
G01*
X63933771Y-117350253D01*
X63827024Y-117314671D01*
X63758881Y-117246528D01*
X63722859Y-117174485D01*
X63680218Y-117003919D01*
X63680218Y-116883788D01*
X63722859Y-116713222D01*
X63758881Y-116641179D01*
X63827024Y-116573035D01*
X63933772Y-116537453D01*
X64057590Y-116537453D01*
X64057590Y-117350253D01*
G37*
G36*
X68605399Y-116866444D02*
G01*
X68343936Y-116866444D01*
X68283372Y-116836162D01*
X68258309Y-116811099D01*
X68228027Y-116750535D01*
X68228027Y-116653362D01*
X68258309Y-116592798D01*
X68283372Y-116567735D01*
X68343936Y-116537453D01*
X68605399Y-116537453D01*
X68605399Y-116866444D01*
G37*
G36*
X68921488Y-117666342D02*
G01*
X63364129Y-117666342D01*
X63364129Y-116871282D01*
X63477018Y-116871282D01*
X63477018Y-117016425D01*
X63477358Y-117019882D01*
X63477138Y-117021364D01*
X63478234Y-117028778D01*
X63478970Y-117036246D01*
X63479543Y-117037631D01*
X63480052Y-117041067D01*
X63528433Y-117234591D01*
X63528954Y-117236051D01*
X63529007Y-117236784D01*
X63532169Y-117245048D01*
X63535134Y-117253346D01*
X63535569Y-117253933D01*
X63536125Y-117255386D01*
X63584506Y-117352148D01*
X63589877Y-117360680D01*
X63590903Y-117363157D01*
X63593191Y-117365945D01*
X63595116Y-117369003D01*
X63597144Y-117370761D01*
X63603538Y-117378553D01*
X63700300Y-117475315D01*
X63715696Y-117487950D01*
X63719067Y-117489346D01*
X63721827Y-117491740D01*
X63740014Y-117499859D01*
X63885157Y-117548239D01*
X63894982Y-117550473D01*
X63897464Y-117551501D01*
X63901060Y-117551855D01*
X63904578Y-117552655D01*
X63907252Y-117552464D01*
X63917285Y-117553453D01*
X64159190Y-117553453D01*
X64179011Y-117551501D01*
X64215636Y-117536330D01*
X64243667Y-117508299D01*
X64258838Y-117471674D01*
X64260790Y-117451853D01*
X64260790Y-116435853D01*
X64258838Y-116416032D01*
X64494970Y-116416032D01*
X64494970Y-116455674D01*
X64510141Y-116492299D01*
X64538172Y-116520330D01*
X64574797Y-116535501D01*
X64594618Y-116537453D01*
X64976828Y-116537453D01*
X64976828Y-116818063D01*
X64739761Y-116818063D01*
X64719940Y-116820015D01*
X64683315Y-116835186D01*
X64655284Y-116863217D01*
X64640113Y-116899842D01*
X64640113Y-116939484D01*
X64655284Y-116976109D01*
X64683315Y-117004140D01*
X64719940Y-117019311D01*
X64739761Y-117021263D01*
X64976828Y-117021263D01*
X64976828Y-117350253D01*
X64594618Y-117350253D01*
X64574797Y-117352205D01*
X64538172Y-117367376D01*
X64510141Y-117395407D01*
X64494970Y-117432032D01*
X64494970Y-117471674D01*
X64510141Y-117508299D01*
X64538172Y-117536330D01*
X64574797Y-117551501D01*
X64594618Y-117553453D01*
X65078428Y-117553453D01*
X65098249Y-117551501D01*
X65134874Y-117536330D01*
X65162905Y-117508299D01*
X65178076Y-117471674D01*
X65180028Y-117451853D01*
X65180028Y-117432032D01*
X65317446Y-117432032D01*
X65317446Y-117471674D01*
X65332617Y-117508299D01*
X65360648Y-117536330D01*
X65397273Y-117551501D01*
X65417094Y-117553453D01*
X65900904Y-117553453D01*
X65920725Y-117551501D01*
X65957350Y-117536330D01*
X65985381Y-117508299D01*
X66000552Y-117471674D01*
X66002504Y-117451853D01*
X66002504Y-116512794D01*
X67010779Y-116512794D01*
X67010779Y-116552436D01*
X67025950Y-116589061D01*
X67053981Y-116617092D01*
X67090606Y-116632263D01*
X67130248Y-116632263D01*
X67166873Y-116617092D01*
X67182269Y-116604457D01*
X67213690Y-116573035D01*
X67320438Y-116537453D01*
X67384226Y-116537453D01*
X67490973Y-116573035D01*
X67559117Y-116641179D01*
X67595138Y-116713222D01*
X67637780Y-116883788D01*
X67637780Y-117003919D01*
X67595138Y-117174485D01*
X67559117Y-117246528D01*
X67490973Y-117314671D01*
X67384227Y-117350253D01*
X67320437Y-117350253D01*
X67213690Y-117314671D01*
X67182269Y-117283250D01*
X67166873Y-117270615D01*
X67130248Y-117255444D01*
X67090606Y-117255444D01*
X67053981Y-117270615D01*
X67025950Y-117298646D01*
X67010779Y-117335271D01*
X67010779Y-117374913D01*
X67025950Y-117411538D01*
X67038585Y-117426934D01*
X67086966Y-117475315D01*
X67102362Y-117487950D01*
X67105733Y-117489346D01*
X67108493Y-117491740D01*
X67126680Y-117499859D01*
X67271823Y-117548239D01*
X67281648Y-117550473D01*
X67284130Y-117551501D01*
X67287726Y-117551855D01*
X67291244Y-117552655D01*
X67293918Y-117552464D01*
X67303951Y-117553453D01*
X67400713Y-117553453D01*
X67410745Y-117552464D01*
X67413420Y-117552655D01*
X67416937Y-117551855D01*
X67420534Y-117551501D01*
X67423015Y-117550473D01*
X67432841Y-117548239D01*
X67577984Y-117499859D01*
X67596171Y-117491740D01*
X67598930Y-117489346D01*
X67602302Y-117487950D01*
X67617698Y-117475315D01*
X67714460Y-117378553D01*
X67720853Y-117370761D01*
X67722882Y-117369003D01*
X67724806Y-117365945D01*
X67727095Y-117363157D01*
X67728120Y-117360680D01*
X67733492Y-117352148D01*
X67781873Y-117255386D01*
X67782428Y-117253933D01*
X67782864Y-117253346D01*
X67785825Y-117245056D01*
X67788991Y-117236785D01*
X67789043Y-117236051D01*
X67789565Y-117234591D01*
X67837946Y-117041067D01*
X67838454Y-117037631D01*
X67839028Y-117036246D01*
X67839763Y-117028778D01*
X67840860Y-117021364D01*
X67840639Y-117019882D01*
X67840980Y-117016425D01*
X67840980Y-116871282D01*
X67840639Y-116867824D01*
X67840860Y-116866343D01*
X67839763Y-116858928D01*
X67839028Y-116851461D01*
X67838454Y-116850075D01*
X67837946Y-116846640D01*
X67789565Y-116653116D01*
X67789043Y-116651655D01*
X67788991Y-116650922D01*
X67785825Y-116642650D01*
X67782864Y-116634361D01*
X67782428Y-116633773D01*
X67781873Y-116632321D01*
X67780401Y-116629377D01*
X68024827Y-116629377D01*
X68024827Y-116774520D01*
X68026779Y-116794341D01*
X68028176Y-116797714D01*
X68028435Y-116801355D01*
X68035553Y-116819957D01*
X68083934Y-116916719D01*
X68089305Y-116925251D01*
X68090331Y-116927728D01*
X68092619Y-116930516D01*
X68094544Y-116933574D01*
X68096572Y-116935332D01*
X68102966Y-116943124D01*
X68151347Y-116991505D01*
X68159138Y-116997898D01*
X68160897Y-116999927D01*
X68163954Y-117001851D01*
X68166743Y-117004140D01*
X68169219Y-117005165D01*
X68177752Y-117010537D01*
X68274514Y-117058918D01*
X68293115Y-117066036D01*
X68296756Y-117066294D01*
X68300130Y-117067692D01*
X68319951Y-117069644D01*
X68605399Y-117069644D01*
X68605399Y-117451853D01*
X68607351Y-117471674D01*
X68622522Y-117508299D01*
X68650553Y-117536330D01*
X68687178Y-117551501D01*
X68726820Y-117551501D01*
X68763445Y-117536330D01*
X68791476Y-117508299D01*
X68806647Y-117471674D01*
X68808599Y-117451853D01*
X68808599Y-116435853D01*
X68806647Y-116416032D01*
X68791476Y-116379407D01*
X68763445Y-116351376D01*
X68726820Y-116336205D01*
X68706999Y-116334253D01*
X68319951Y-116334253D01*
X68300130Y-116336205D01*
X68296756Y-116337602D01*
X68293115Y-116337861D01*
X68274514Y-116344979D01*
X68177752Y-116393360D01*
X68169219Y-116398731D01*
X68166743Y-116399757D01*
X68163954Y-116402045D01*
X68160897Y-116403970D01*
X68159138Y-116405998D01*
X68151347Y-116412392D01*
X68102966Y-116460773D01*
X68096572Y-116468564D01*
X68094544Y-116470323D01*
X68092619Y-116473380D01*
X68090331Y-116476169D01*
X68089305Y-116478645D01*
X68083934Y-116487178D01*
X68035553Y-116583940D01*
X68028435Y-116602542D01*
X68028176Y-116606182D01*
X68026779Y-116609556D01*
X68024827Y-116629377D01*
X67780401Y-116629377D01*
X67733492Y-116535559D01*
X67728120Y-116527026D01*
X67727095Y-116524550D01*
X67724806Y-116521761D01*
X67722882Y-116518704D01*
X67720853Y-116516945D01*
X67714460Y-116509154D01*
X67617698Y-116412392D01*
X67602302Y-116399757D01*
X67598928Y-116398359D01*
X67596171Y-116395968D01*
X67577985Y-116387848D01*
X67432842Y-116339467D01*
X67423014Y-116337232D01*
X67420534Y-116336205D01*
X67416939Y-116335850D01*
X67413421Y-116335051D01*
X67410746Y-116335241D01*
X67400713Y-116334253D01*
X67303951Y-116334253D01*
X67293917Y-116335241D01*
X67291243Y-116335051D01*
X67287724Y-116335850D01*
X67284130Y-116336205D01*
X67281649Y-116337232D01*
X67271822Y-116339467D01*
X67126679Y-116387848D01*
X67108493Y-116395968D01*
X67105735Y-116398359D01*
X67102362Y-116399757D01*
X67086966Y-116412392D01*
X67038585Y-116460773D01*
X67025950Y-116476169D01*
X67010779Y-116512794D01*
X66002504Y-116512794D01*
X66002504Y-116435853D01*
X66000552Y-116416032D01*
X65985381Y-116379407D01*
X65957350Y-116351376D01*
X65920725Y-116336205D01*
X65881083Y-116336205D01*
X65844458Y-116351376D01*
X65816427Y-116379407D01*
X65801256Y-116416032D01*
X65799304Y-116435853D01*
X65799304Y-117350253D01*
X65417094Y-117350253D01*
X65397273Y-117352205D01*
X65360648Y-117367376D01*
X65332617Y-117395407D01*
X65317446Y-117432032D01*
X65180028Y-117432032D01*
X65180028Y-116435853D01*
X65178076Y-116416032D01*
X65162905Y-116379407D01*
X65134874Y-116351376D01*
X65098249Y-116336205D01*
X65078428Y-116334253D01*
X64594618Y-116334253D01*
X64574797Y-116336205D01*
X64538172Y-116351376D01*
X64510141Y-116379407D01*
X64494970Y-116416032D01*
X64258838Y-116416032D01*
X64243667Y-116379407D01*
X64215636Y-116351376D01*
X64179011Y-116336205D01*
X64159190Y-116334253D01*
X63917285Y-116334253D01*
X63907251Y-116335241D01*
X63904577Y-116335051D01*
X63901058Y-116335850D01*
X63897464Y-116336205D01*
X63894983Y-116337232D01*
X63885156Y-116339467D01*
X63740013Y-116387848D01*
X63721827Y-116395968D01*
X63719069Y-116398359D01*
X63715696Y-116399757D01*
X63700300Y-116412392D01*
X63603538Y-116509154D01*
X63597144Y-116516945D01*
X63595116Y-116518704D01*
X63593191Y-116521761D01*
X63590903Y-116524550D01*
X63589877Y-116527026D01*
X63584506Y-116535559D01*
X63536125Y-116632321D01*
X63535569Y-116633773D01*
X63535134Y-116634361D01*
X63532169Y-116642658D01*
X63529007Y-116650923D01*
X63528954Y-116651655D01*
X63528433Y-116653116D01*
X63480052Y-116846640D01*
X63479543Y-116850075D01*
X63478970Y-116851461D01*
X63478234Y-116858928D01*
X63477138Y-116866343D01*
X63477358Y-116867824D01*
X63477018Y-116871282D01*
X63364129Y-116871282D01*
X63364129Y-116221364D01*
X68921488Y-116221364D01*
X68921488Y-117666342D01*
G37*
D11*
X146520504Y-109402695D02*
X146520504Y-108386695D01*
X146520504Y-108386695D02*
X146278599Y-108386695D01*
X146278599Y-108386695D02*
X146133456Y-108435076D01*
X146133456Y-108435076D02*
X146036694Y-108531838D01*
X146036694Y-108531838D02*
X145988313Y-108628600D01*
X145988313Y-108628600D02*
X145939932Y-108822124D01*
X145939932Y-108822124D02*
X145939932Y-108967267D01*
X145939932Y-108967267D02*
X145988313Y-109160791D01*
X145988313Y-109160791D02*
X146036694Y-109257553D01*
X146036694Y-109257553D02*
X146133456Y-109354315D01*
X146133456Y-109354315D02*
X146278599Y-109402695D01*
X146278599Y-109402695D02*
X146520504Y-109402695D01*
X144972313Y-109402695D02*
X145552885Y-109402695D01*
X145262599Y-109402695D02*
X145262599Y-108386695D01*
X145262599Y-108386695D02*
X145359361Y-108531838D01*
X145359361Y-108531838D02*
X145456123Y-108628600D01*
X145456123Y-108628600D02*
X145552885Y-108676981D01*
X78531104Y-118079495D02*
X78531104Y-117063495D01*
X78531104Y-117063495D02*
X78289199Y-117063495D01*
X78289199Y-117063495D02*
X78144056Y-117111876D01*
X78144056Y-117111876D02*
X78047294Y-117208638D01*
X78047294Y-117208638D02*
X77998913Y-117305400D01*
X77998913Y-117305400D02*
X77950532Y-117498924D01*
X77950532Y-117498924D02*
X77950532Y-117644067D01*
X77950532Y-117644067D02*
X77998913Y-117837591D01*
X77998913Y-117837591D02*
X78047294Y-117934353D01*
X78047294Y-117934353D02*
X78144056Y-118031115D01*
X78144056Y-118031115D02*
X78289199Y-118079495D01*
X78289199Y-118079495D02*
X78531104Y-118079495D01*
X77031294Y-117063495D02*
X77515104Y-117063495D01*
X77515104Y-117063495D02*
X77563485Y-117547305D01*
X77563485Y-117547305D02*
X77515104Y-117498924D01*
X77515104Y-117498924D02*
X77418342Y-117450543D01*
X77418342Y-117450543D02*
X77176437Y-117450543D01*
X77176437Y-117450543D02*
X77079675Y-117498924D01*
X77079675Y-117498924D02*
X77031294Y-117547305D01*
X77031294Y-117547305D02*
X76982913Y-117644067D01*
X76982913Y-117644067D02*
X76982913Y-117885972D01*
X76982913Y-117885972D02*
X77031294Y-117982734D01*
X77031294Y-117982734D02*
X77079675Y-118031115D01*
X77079675Y-118031115D02*
X77176437Y-118079495D01*
X77176437Y-118079495D02*
X77418342Y-118079495D01*
X77418342Y-118079495D02*
X77515104Y-118031115D01*
X77515104Y-118031115D02*
X77563485Y-117982734D01*
X81260999Y-113990095D02*
X81260999Y-112974095D01*
X81260999Y-112974095D02*
X80873951Y-112974095D01*
X80873951Y-112974095D02*
X80777189Y-113022476D01*
X80777189Y-113022476D02*
X80728808Y-113070857D01*
X80728808Y-113070857D02*
X80680427Y-113167619D01*
X80680427Y-113167619D02*
X80680427Y-113312762D01*
X80680427Y-113312762D02*
X80728808Y-113409524D01*
X80728808Y-113409524D02*
X80777189Y-113457905D01*
X80777189Y-113457905D02*
X80873951Y-113506286D01*
X80873951Y-113506286D02*
X81260999Y-113506286D01*
X79664427Y-113893334D02*
X79712808Y-113941715D01*
X79712808Y-113941715D02*
X79857951Y-113990095D01*
X79857951Y-113990095D02*
X79954713Y-113990095D01*
X79954713Y-113990095D02*
X80099856Y-113941715D01*
X80099856Y-113941715D02*
X80196618Y-113844953D01*
X80196618Y-113844953D02*
X80244999Y-113748191D01*
X80244999Y-113748191D02*
X80293380Y-113554667D01*
X80293380Y-113554667D02*
X80293380Y-113409524D01*
X80293380Y-113409524D02*
X80244999Y-113216000D01*
X80244999Y-113216000D02*
X80196618Y-113119238D01*
X80196618Y-113119238D02*
X80099856Y-113022476D01*
X80099856Y-113022476D02*
X79954713Y-112974095D01*
X79954713Y-112974095D02*
X79857951Y-112974095D01*
X79857951Y-112974095D02*
X79712808Y-113022476D01*
X79712808Y-113022476D02*
X79664427Y-113070857D01*
X77971094Y-113990095D02*
X78454904Y-113990095D01*
X78454904Y-113990095D02*
X78454904Y-112974095D01*
X77632428Y-113457905D02*
X77293761Y-113457905D01*
X77148618Y-113990095D02*
X77632428Y-113990095D01*
X77632428Y-113990095D02*
X77632428Y-112974095D01*
X77632428Y-112974095D02*
X77148618Y-112974095D01*
X76713190Y-113990095D02*
X76713190Y-112974095D01*
X76713190Y-112974095D02*
X76471285Y-112974095D01*
X76471285Y-112974095D02*
X76326142Y-113022476D01*
X76326142Y-113022476D02*
X76229380Y-113119238D01*
X76229380Y-113119238D02*
X76180999Y-113216000D01*
X76180999Y-113216000D02*
X76132618Y-113409524D01*
X76132618Y-113409524D02*
X76132618Y-113554667D01*
X76132618Y-113554667D02*
X76180999Y-113748191D01*
X76180999Y-113748191D02*
X76229380Y-113844953D01*
X76229380Y-113844953D02*
X76326142Y-113941715D01*
X76326142Y-113941715D02*
X76471285Y-113990095D01*
X76471285Y-113990095D02*
X76713190Y-113990095D01*
X134154332Y-103082934D02*
X134202713Y-103131315D01*
X134202713Y-103131315D02*
X134347856Y-103179695D01*
X134347856Y-103179695D02*
X134444618Y-103179695D01*
X134444618Y-103179695D02*
X134589761Y-103131315D01*
X134589761Y-103131315D02*
X134686523Y-103034553D01*
X134686523Y-103034553D02*
X134734904Y-102937791D01*
X134734904Y-102937791D02*
X134783285Y-102744267D01*
X134783285Y-102744267D02*
X134783285Y-102599124D01*
X134783285Y-102599124D02*
X134734904Y-102405600D01*
X134734904Y-102405600D02*
X134686523Y-102308838D01*
X134686523Y-102308838D02*
X134589761Y-102212076D01*
X134589761Y-102212076D02*
X134444618Y-102163695D01*
X134444618Y-102163695D02*
X134347856Y-102163695D01*
X134347856Y-102163695D02*
X134202713Y-102212076D01*
X134202713Y-102212076D02*
X134154332Y-102260457D01*
X133283475Y-102163695D02*
X133476999Y-102163695D01*
X133476999Y-102163695D02*
X133573761Y-102212076D01*
X133573761Y-102212076D02*
X133622142Y-102260457D01*
X133622142Y-102260457D02*
X133718904Y-102405600D01*
X133718904Y-102405600D02*
X133767285Y-102599124D01*
X133767285Y-102599124D02*
X133767285Y-102986172D01*
X133767285Y-102986172D02*
X133718904Y-103082934D01*
X133718904Y-103082934D02*
X133670523Y-103131315D01*
X133670523Y-103131315D02*
X133573761Y-103179695D01*
X133573761Y-103179695D02*
X133380237Y-103179695D01*
X133380237Y-103179695D02*
X133283475Y-103131315D01*
X133283475Y-103131315D02*
X133235094Y-103082934D01*
X133235094Y-103082934D02*
X133186713Y-102986172D01*
X133186713Y-102986172D02*
X133186713Y-102744267D01*
X133186713Y-102744267D02*
X133235094Y-102647505D01*
X133235094Y-102647505D02*
X133283475Y-102599124D01*
X133283475Y-102599124D02*
X133380237Y-102550743D01*
X133380237Y-102550743D02*
X133573761Y-102550743D01*
X133573761Y-102550743D02*
X133670523Y-102599124D01*
X133670523Y-102599124D02*
X133718904Y-102647505D01*
X133718904Y-102647505D02*
X133767285Y-102744267D01*
X79391932Y-111866495D02*
X79875742Y-111866495D01*
X79875742Y-111866495D02*
X79875742Y-110850495D01*
X79053266Y-111866495D02*
X79053266Y-110850495D01*
X79053266Y-110850495D02*
X78666218Y-110850495D01*
X78666218Y-110850495D02*
X78569456Y-110898876D01*
X78569456Y-110898876D02*
X78521075Y-110947257D01*
X78521075Y-110947257D02*
X78472694Y-111044019D01*
X78472694Y-111044019D02*
X78472694Y-111189162D01*
X78472694Y-111189162D02*
X78521075Y-111285924D01*
X78521075Y-111285924D02*
X78569456Y-111334305D01*
X78569456Y-111334305D02*
X78666218Y-111382686D01*
X78666218Y-111382686D02*
X79053266Y-111382686D01*
X78134028Y-110850495D02*
X77505075Y-110850495D01*
X77505075Y-110850495D02*
X77843742Y-111237543D01*
X77843742Y-111237543D02*
X77698599Y-111237543D01*
X77698599Y-111237543D02*
X77601837Y-111285924D01*
X77601837Y-111285924D02*
X77553456Y-111334305D01*
X77553456Y-111334305D02*
X77505075Y-111431067D01*
X77505075Y-111431067D02*
X77505075Y-111672972D01*
X77505075Y-111672972D02*
X77553456Y-111769734D01*
X77553456Y-111769734D02*
X77601837Y-111818115D01*
X77601837Y-111818115D02*
X77698599Y-111866495D01*
X77698599Y-111866495D02*
X77988885Y-111866495D01*
X77988885Y-111866495D02*
X78085647Y-111818115D01*
X78085647Y-111818115D02*
X78134028Y-111769734D01*
X85674104Y-118257295D02*
X85674104Y-117241295D01*
X85674104Y-117241295D02*
X85432199Y-117241295D01*
X85432199Y-117241295D02*
X85287056Y-117289676D01*
X85287056Y-117289676D02*
X85190294Y-117386438D01*
X85190294Y-117386438D02*
X85141913Y-117483200D01*
X85141913Y-117483200D02*
X85093532Y-117676724D01*
X85093532Y-117676724D02*
X85093532Y-117821867D01*
X85093532Y-117821867D02*
X85141913Y-118015391D01*
X85141913Y-118015391D02*
X85190294Y-118112153D01*
X85190294Y-118112153D02*
X85287056Y-118208915D01*
X85287056Y-118208915D02*
X85432199Y-118257295D01*
X85432199Y-118257295D02*
X85674104Y-118257295D01*
X84222675Y-117579962D02*
X84222675Y-118257295D01*
X84464580Y-117192915D02*
X84706485Y-117918629D01*
X84706485Y-117918629D02*
X84077532Y-117918629D01*
X85519285Y-113990095D02*
X85519285Y-112974095D01*
X85519285Y-113457905D02*
X84938713Y-113457905D01*
X84938713Y-113990095D02*
X84938713Y-112974095D01*
X84454904Y-113990095D02*
X84454904Y-112974095D01*
X84454904Y-112974095D02*
X84212999Y-112974095D01*
X84212999Y-112974095D02*
X84067856Y-113022476D01*
X84067856Y-113022476D02*
X83971094Y-113119238D01*
X83971094Y-113119238D02*
X83922713Y-113216000D01*
X83922713Y-113216000D02*
X83874332Y-113409524D01*
X83874332Y-113409524D02*
X83874332Y-113554667D01*
X83874332Y-113554667D02*
X83922713Y-113748191D01*
X83922713Y-113748191D02*
X83971094Y-113844953D01*
X83971094Y-113844953D02*
X84067856Y-113941715D01*
X84067856Y-113941715D02*
X84212999Y-113990095D01*
X84212999Y-113990095D02*
X84454904Y-113990095D01*
X91470904Y-125648695D02*
X91470904Y-124632695D01*
X91470904Y-124632695D02*
X91228999Y-124632695D01*
X91228999Y-124632695D02*
X91083856Y-124681076D01*
X91083856Y-124681076D02*
X90987094Y-124777838D01*
X90987094Y-124777838D02*
X90938713Y-124874600D01*
X90938713Y-124874600D02*
X90890332Y-125068124D01*
X90890332Y-125068124D02*
X90890332Y-125213267D01*
X90890332Y-125213267D02*
X90938713Y-125406791D01*
X90938713Y-125406791D02*
X90987094Y-125503553D01*
X90987094Y-125503553D02*
X91083856Y-125600315D01*
X91083856Y-125600315D02*
X91228999Y-125648695D01*
X91228999Y-125648695D02*
X91470904Y-125648695D01*
X90019475Y-124632695D02*
X90212999Y-124632695D01*
X90212999Y-124632695D02*
X90309761Y-124681076D01*
X90309761Y-124681076D02*
X90358142Y-124729457D01*
X90358142Y-124729457D02*
X90454904Y-124874600D01*
X90454904Y-124874600D02*
X90503285Y-125068124D01*
X90503285Y-125068124D02*
X90503285Y-125455172D01*
X90503285Y-125455172D02*
X90454904Y-125551934D01*
X90454904Y-125551934D02*
X90406523Y-125600315D01*
X90406523Y-125600315D02*
X90309761Y-125648695D01*
X90309761Y-125648695D02*
X90116237Y-125648695D01*
X90116237Y-125648695D02*
X90019475Y-125600315D01*
X90019475Y-125600315D02*
X89971094Y-125551934D01*
X89971094Y-125551934D02*
X89922713Y-125455172D01*
X89922713Y-125455172D02*
X89922713Y-125213267D01*
X89922713Y-125213267D02*
X89971094Y-125116505D01*
X89971094Y-125116505D02*
X90019475Y-125068124D01*
X90019475Y-125068124D02*
X90116237Y-125019743D01*
X90116237Y-125019743D02*
X90309761Y-125019743D01*
X90309761Y-125019743D02*
X90406523Y-125068124D01*
X90406523Y-125068124D02*
X90454904Y-125116505D01*
X90454904Y-125116505D02*
X90503285Y-125213267D01*
X91205351Y-121497934D02*
X91253732Y-121546315D01*
X91253732Y-121546315D02*
X91398875Y-121594695D01*
X91398875Y-121594695D02*
X91495637Y-121594695D01*
X91495637Y-121594695D02*
X91640780Y-121546315D01*
X91640780Y-121546315D02*
X91737542Y-121449553D01*
X91737542Y-121449553D02*
X91785923Y-121352791D01*
X91785923Y-121352791D02*
X91834304Y-121159267D01*
X91834304Y-121159267D02*
X91834304Y-121014124D01*
X91834304Y-121014124D02*
X91785923Y-120820600D01*
X91785923Y-120820600D02*
X91737542Y-120723838D01*
X91737542Y-120723838D02*
X91640780Y-120627076D01*
X91640780Y-120627076D02*
X91495637Y-120578695D01*
X91495637Y-120578695D02*
X91398875Y-120578695D01*
X91398875Y-120578695D02*
X91253732Y-120627076D01*
X91253732Y-120627076D02*
X91205351Y-120675457D01*
X90818304Y-121304410D02*
X90334494Y-121304410D01*
X90915066Y-121594695D02*
X90576399Y-120578695D01*
X90576399Y-120578695D02*
X90237732Y-121594695D01*
X89899066Y-121594695D02*
X89899066Y-120578695D01*
X89899066Y-120578695D02*
X89318494Y-121594695D01*
X89318494Y-121594695D02*
X89318494Y-120578695D01*
X88883066Y-120675457D02*
X88834685Y-120627076D01*
X88834685Y-120627076D02*
X88737923Y-120578695D01*
X88737923Y-120578695D02*
X88496018Y-120578695D01*
X88496018Y-120578695D02*
X88399256Y-120627076D01*
X88399256Y-120627076D02*
X88350875Y-120675457D01*
X88350875Y-120675457D02*
X88302494Y-120772219D01*
X88302494Y-120772219D02*
X88302494Y-120868981D01*
X88302494Y-120868981D02*
X88350875Y-121014124D01*
X88350875Y-121014124D02*
X88931447Y-121594695D01*
X88931447Y-121594695D02*
X88302494Y-121594695D01*
X78607304Y-125648695D02*
X78607304Y-124632695D01*
X78607304Y-124632695D02*
X78365399Y-124632695D01*
X78365399Y-124632695D02*
X78220256Y-124681076D01*
X78220256Y-124681076D02*
X78123494Y-124777838D01*
X78123494Y-124777838D02*
X78075113Y-124874600D01*
X78075113Y-124874600D02*
X78026732Y-125068124D01*
X78026732Y-125068124D02*
X78026732Y-125213267D01*
X78026732Y-125213267D02*
X78075113Y-125406791D01*
X78075113Y-125406791D02*
X78123494Y-125503553D01*
X78123494Y-125503553D02*
X78220256Y-125600315D01*
X78220256Y-125600315D02*
X78365399Y-125648695D01*
X78365399Y-125648695D02*
X78607304Y-125648695D01*
X77446161Y-125068124D02*
X77542923Y-125019743D01*
X77542923Y-125019743D02*
X77591304Y-124971362D01*
X77591304Y-124971362D02*
X77639685Y-124874600D01*
X77639685Y-124874600D02*
X77639685Y-124826219D01*
X77639685Y-124826219D02*
X77591304Y-124729457D01*
X77591304Y-124729457D02*
X77542923Y-124681076D01*
X77542923Y-124681076D02*
X77446161Y-124632695D01*
X77446161Y-124632695D02*
X77252637Y-124632695D01*
X77252637Y-124632695D02*
X77155875Y-124681076D01*
X77155875Y-124681076D02*
X77107494Y-124729457D01*
X77107494Y-124729457D02*
X77059113Y-124826219D01*
X77059113Y-124826219D02*
X77059113Y-124874600D01*
X77059113Y-124874600D02*
X77107494Y-124971362D01*
X77107494Y-124971362D02*
X77155875Y-125019743D01*
X77155875Y-125019743D02*
X77252637Y-125068124D01*
X77252637Y-125068124D02*
X77446161Y-125068124D01*
X77446161Y-125068124D02*
X77542923Y-125116505D01*
X77542923Y-125116505D02*
X77591304Y-125164886D01*
X77591304Y-125164886D02*
X77639685Y-125261648D01*
X77639685Y-125261648D02*
X77639685Y-125455172D01*
X77639685Y-125455172D02*
X77591304Y-125551934D01*
X77591304Y-125551934D02*
X77542923Y-125600315D01*
X77542923Y-125600315D02*
X77446161Y-125648695D01*
X77446161Y-125648695D02*
X77252637Y-125648695D01*
X77252637Y-125648695D02*
X77155875Y-125600315D01*
X77155875Y-125600315D02*
X77107494Y-125551934D01*
X77107494Y-125551934D02*
X77059113Y-125455172D01*
X77059113Y-125455172D02*
X77059113Y-125261648D01*
X77059113Y-125261648D02*
X77107494Y-125164886D01*
X77107494Y-125164886D02*
X77155875Y-125116505D01*
X77155875Y-125116505D02*
X77252637Y-125068124D01*
X79114951Y-121396334D02*
X79163332Y-121444715D01*
X79163332Y-121444715D02*
X79308475Y-121493095D01*
X79308475Y-121493095D02*
X79405237Y-121493095D01*
X79405237Y-121493095D02*
X79550380Y-121444715D01*
X79550380Y-121444715D02*
X79647142Y-121347953D01*
X79647142Y-121347953D02*
X79695523Y-121251191D01*
X79695523Y-121251191D02*
X79743904Y-121057667D01*
X79743904Y-121057667D02*
X79743904Y-120912524D01*
X79743904Y-120912524D02*
X79695523Y-120719000D01*
X79695523Y-120719000D02*
X79647142Y-120622238D01*
X79647142Y-120622238D02*
X79550380Y-120525476D01*
X79550380Y-120525476D02*
X79405237Y-120477095D01*
X79405237Y-120477095D02*
X79308475Y-120477095D01*
X79308475Y-120477095D02*
X79163332Y-120525476D01*
X79163332Y-120525476D02*
X79114951Y-120573857D01*
X78727904Y-121202810D02*
X78244094Y-121202810D01*
X78824666Y-121493095D02*
X78485999Y-120477095D01*
X78485999Y-120477095D02*
X78147332Y-121493095D01*
X77808666Y-121493095D02*
X77808666Y-120477095D01*
X77808666Y-120477095D02*
X77228094Y-121493095D01*
X77228094Y-121493095D02*
X77228094Y-120477095D01*
X76550761Y-120477095D02*
X76453999Y-120477095D01*
X76453999Y-120477095D02*
X76357237Y-120525476D01*
X76357237Y-120525476D02*
X76308856Y-120573857D01*
X76308856Y-120573857D02*
X76260475Y-120670619D01*
X76260475Y-120670619D02*
X76212094Y-120864143D01*
X76212094Y-120864143D02*
X76212094Y-121106048D01*
X76212094Y-121106048D02*
X76260475Y-121299572D01*
X76260475Y-121299572D02*
X76308856Y-121396334D01*
X76308856Y-121396334D02*
X76357237Y-121444715D01*
X76357237Y-121444715D02*
X76453999Y-121493095D01*
X76453999Y-121493095D02*
X76550761Y-121493095D01*
X76550761Y-121493095D02*
X76647523Y-121444715D01*
X76647523Y-121444715D02*
X76695904Y-121396334D01*
X76695904Y-121396334D02*
X76744285Y-121299572D01*
X76744285Y-121299572D02*
X76792666Y-121106048D01*
X76792666Y-121106048D02*
X76792666Y-120864143D01*
X76792666Y-120864143D02*
X76744285Y-120670619D01*
X76744285Y-120670619D02*
X76695904Y-120573857D01*
X76695904Y-120573857D02*
X76647523Y-120525476D01*
X76647523Y-120525476D02*
X76550761Y-120477095D01*
X128083732Y-102041534D02*
X128132113Y-102089915D01*
X128132113Y-102089915D02*
X128277256Y-102138295D01*
X128277256Y-102138295D02*
X128374018Y-102138295D01*
X128374018Y-102138295D02*
X128519161Y-102089915D01*
X128519161Y-102089915D02*
X128615923Y-101993153D01*
X128615923Y-101993153D02*
X128664304Y-101896391D01*
X128664304Y-101896391D02*
X128712685Y-101702867D01*
X128712685Y-101702867D02*
X128712685Y-101557724D01*
X128712685Y-101557724D02*
X128664304Y-101364200D01*
X128664304Y-101364200D02*
X128615923Y-101267438D01*
X128615923Y-101267438D02*
X128519161Y-101170676D01*
X128519161Y-101170676D02*
X128374018Y-101122295D01*
X128374018Y-101122295D02*
X128277256Y-101122295D01*
X128277256Y-101122295D02*
X128132113Y-101170676D01*
X128132113Y-101170676D02*
X128083732Y-101219057D01*
X127745066Y-101122295D02*
X127116113Y-101122295D01*
X127116113Y-101122295D02*
X127454780Y-101509343D01*
X127454780Y-101509343D02*
X127309637Y-101509343D01*
X127309637Y-101509343D02*
X127212875Y-101557724D01*
X127212875Y-101557724D02*
X127164494Y-101606105D01*
X127164494Y-101606105D02*
X127116113Y-101702867D01*
X127116113Y-101702867D02*
X127116113Y-101944772D01*
X127116113Y-101944772D02*
X127164494Y-102041534D01*
X127164494Y-102041534D02*
X127212875Y-102089915D01*
X127212875Y-102089915D02*
X127309637Y-102138295D01*
X127309637Y-102138295D02*
X127599923Y-102138295D01*
X127599923Y-102138295D02*
X127696685Y-102089915D01*
X127696685Y-102089915D02*
X127745066Y-102041534D01*
X104766532Y-102092334D02*
X104814913Y-102140715D01*
X104814913Y-102140715D02*
X104960056Y-102189095D01*
X104960056Y-102189095D02*
X105056818Y-102189095D01*
X105056818Y-102189095D02*
X105201961Y-102140715D01*
X105201961Y-102140715D02*
X105298723Y-102043953D01*
X105298723Y-102043953D02*
X105347104Y-101947191D01*
X105347104Y-101947191D02*
X105395485Y-101753667D01*
X105395485Y-101753667D02*
X105395485Y-101608524D01*
X105395485Y-101608524D02*
X105347104Y-101415000D01*
X105347104Y-101415000D02*
X105298723Y-101318238D01*
X105298723Y-101318238D02*
X105201961Y-101221476D01*
X105201961Y-101221476D02*
X105056818Y-101173095D01*
X105056818Y-101173095D02*
X104960056Y-101173095D01*
X104960056Y-101173095D02*
X104814913Y-101221476D01*
X104814913Y-101221476D02*
X104766532Y-101269857D01*
X103895675Y-101511762D02*
X103895675Y-102189095D01*
X104137580Y-101124715D02*
X104379485Y-101850429D01*
X104379485Y-101850429D02*
X103750532Y-101850429D01*
X123101704Y-109478895D02*
X123101704Y-108462895D01*
X123101704Y-108462895D02*
X122859799Y-108462895D01*
X122859799Y-108462895D02*
X122714656Y-108511276D01*
X122714656Y-108511276D02*
X122617894Y-108608038D01*
X122617894Y-108608038D02*
X122569513Y-108704800D01*
X122569513Y-108704800D02*
X122521132Y-108898324D01*
X122521132Y-108898324D02*
X122521132Y-109043467D01*
X122521132Y-109043467D02*
X122569513Y-109236991D01*
X122569513Y-109236991D02*
X122617894Y-109333753D01*
X122617894Y-109333753D02*
X122714656Y-109430515D01*
X122714656Y-109430515D02*
X122859799Y-109478895D01*
X122859799Y-109478895D02*
X123101704Y-109478895D01*
X122134085Y-108559657D02*
X122085704Y-108511276D01*
X122085704Y-108511276D02*
X121988942Y-108462895D01*
X121988942Y-108462895D02*
X121747037Y-108462895D01*
X121747037Y-108462895D02*
X121650275Y-108511276D01*
X121650275Y-108511276D02*
X121601894Y-108559657D01*
X121601894Y-108559657D02*
X121553513Y-108656419D01*
X121553513Y-108656419D02*
X121553513Y-108753181D01*
X121553513Y-108753181D02*
X121601894Y-108898324D01*
X121601894Y-108898324D02*
X122182466Y-109478895D01*
X122182466Y-109478895D02*
X121553513Y-109478895D01*
X91406132Y-111993495D02*
X91889942Y-111993495D01*
X91889942Y-111993495D02*
X91889942Y-110977495D01*
X91067466Y-111993495D02*
X91067466Y-110977495D01*
X91067466Y-110977495D02*
X90680418Y-110977495D01*
X90680418Y-110977495D02*
X90583656Y-111025876D01*
X90583656Y-111025876D02*
X90535275Y-111074257D01*
X90535275Y-111074257D02*
X90486894Y-111171019D01*
X90486894Y-111171019D02*
X90486894Y-111316162D01*
X90486894Y-111316162D02*
X90535275Y-111412924D01*
X90535275Y-111412924D02*
X90583656Y-111461305D01*
X90583656Y-111461305D02*
X90680418Y-111509686D01*
X90680418Y-111509686D02*
X91067466Y-111509686D01*
X89519275Y-111993495D02*
X90099847Y-111993495D01*
X89809561Y-111993495D02*
X89809561Y-110977495D01*
X89809561Y-110977495D02*
X89906323Y-111122638D01*
X89906323Y-111122638D02*
X90003085Y-111219400D01*
X90003085Y-111219400D02*
X90099847Y-111267781D01*
X91674104Y-118257295D02*
X91674104Y-117241295D01*
X91674104Y-117241295D02*
X91432199Y-117241295D01*
X91432199Y-117241295D02*
X91287056Y-117289676D01*
X91287056Y-117289676D02*
X91190294Y-117386438D01*
X91190294Y-117386438D02*
X91141913Y-117483200D01*
X91141913Y-117483200D02*
X91093532Y-117676724D01*
X91093532Y-117676724D02*
X91093532Y-117821867D01*
X91093532Y-117821867D02*
X91141913Y-118015391D01*
X91141913Y-118015391D02*
X91190294Y-118112153D01*
X91190294Y-118112153D02*
X91287056Y-118208915D01*
X91287056Y-118208915D02*
X91432199Y-118257295D01*
X91432199Y-118257295D02*
X91674104Y-118257295D01*
X90754866Y-117241295D02*
X90125913Y-117241295D01*
X90125913Y-117241295D02*
X90464580Y-117628343D01*
X90464580Y-117628343D02*
X90319437Y-117628343D01*
X90319437Y-117628343D02*
X90222675Y-117676724D01*
X90222675Y-117676724D02*
X90174294Y-117725105D01*
X90174294Y-117725105D02*
X90125913Y-117821867D01*
X90125913Y-117821867D02*
X90125913Y-118063772D01*
X90125913Y-118063772D02*
X90174294Y-118160534D01*
X90174294Y-118160534D02*
X90222675Y-118208915D01*
X90222675Y-118208915D02*
X90319437Y-118257295D01*
X90319437Y-118257295D02*
X90609723Y-118257295D01*
X90609723Y-118257295D02*
X90706485Y-118208915D01*
X90706485Y-118208915D02*
X90754866Y-118160534D01*
X91446713Y-113893334D02*
X91495094Y-113941715D01*
X91495094Y-113941715D02*
X91640237Y-113990095D01*
X91640237Y-113990095D02*
X91736999Y-113990095D01*
X91736999Y-113990095D02*
X91882142Y-113941715D01*
X91882142Y-113941715D02*
X91978904Y-113844953D01*
X91978904Y-113844953D02*
X92027285Y-113748191D01*
X92027285Y-113748191D02*
X92075666Y-113554667D01*
X92075666Y-113554667D02*
X92075666Y-113409524D01*
X92075666Y-113409524D02*
X92027285Y-113216000D01*
X92027285Y-113216000D02*
X91978904Y-113119238D01*
X91978904Y-113119238D02*
X91882142Y-113022476D01*
X91882142Y-113022476D02*
X91736999Y-112974095D01*
X91736999Y-112974095D02*
X91640237Y-112974095D01*
X91640237Y-112974095D02*
X91495094Y-113022476D01*
X91495094Y-113022476D02*
X91446713Y-113070857D01*
X91011285Y-113990095D02*
X91011285Y-112974095D01*
X91011285Y-112974095D02*
X90624237Y-112974095D01*
X90624237Y-112974095D02*
X90527475Y-113022476D01*
X90527475Y-113022476D02*
X90479094Y-113070857D01*
X90479094Y-113070857D02*
X90430713Y-113167619D01*
X90430713Y-113167619D02*
X90430713Y-113312762D01*
X90430713Y-113312762D02*
X90479094Y-113409524D01*
X90479094Y-113409524D02*
X90527475Y-113457905D01*
X90527475Y-113457905D02*
X90624237Y-113506286D01*
X90624237Y-113506286D02*
X91011285Y-113506286D01*
X89995285Y-112974095D02*
X89995285Y-113796572D01*
X89995285Y-113796572D02*
X89946904Y-113893334D01*
X89946904Y-113893334D02*
X89898523Y-113941715D01*
X89898523Y-113941715D02*
X89801761Y-113990095D01*
X89801761Y-113990095D02*
X89608237Y-113990095D01*
X89608237Y-113990095D02*
X89511475Y-113941715D01*
X89511475Y-113941715D02*
X89463094Y-113893334D01*
X89463094Y-113893334D02*
X89414713Y-113796572D01*
X89414713Y-113796572D02*
X89414713Y-112974095D01*
X89265334Y-100262267D02*
X89313715Y-100213886D01*
X89313715Y-100213886D02*
X89362095Y-100068743D01*
X89362095Y-100068743D02*
X89362095Y-99971981D01*
X89362095Y-99971981D02*
X89313715Y-99826838D01*
X89313715Y-99826838D02*
X89216953Y-99730076D01*
X89216953Y-99730076D02*
X89120191Y-99681695D01*
X89120191Y-99681695D02*
X88926667Y-99633314D01*
X88926667Y-99633314D02*
X88781524Y-99633314D01*
X88781524Y-99633314D02*
X88588000Y-99681695D01*
X88588000Y-99681695D02*
X88491238Y-99730076D01*
X88491238Y-99730076D02*
X88394476Y-99826838D01*
X88394476Y-99826838D02*
X88346095Y-99971981D01*
X88346095Y-99971981D02*
X88346095Y-100068743D01*
X88346095Y-100068743D02*
X88394476Y-100213886D01*
X88394476Y-100213886D02*
X88442857Y-100262267D01*
X88346095Y-101181505D02*
X88346095Y-100697695D01*
X88346095Y-100697695D02*
X88829905Y-100649314D01*
X88829905Y-100649314D02*
X88781524Y-100697695D01*
X88781524Y-100697695D02*
X88733143Y-100794457D01*
X88733143Y-100794457D02*
X88733143Y-101036362D01*
X88733143Y-101036362D02*
X88781524Y-101133124D01*
X88781524Y-101133124D02*
X88829905Y-101181505D01*
X88829905Y-101181505D02*
X88926667Y-101229886D01*
X88926667Y-101229886D02*
X89168572Y-101229886D01*
X89168572Y-101229886D02*
X89265334Y-101181505D01*
X89265334Y-101181505D02*
X89313715Y-101133124D01*
X89313715Y-101133124D02*
X89362095Y-101036362D01*
X89362095Y-101036362D02*
X89362095Y-100794457D01*
X89362095Y-100794457D02*
X89313715Y-100697695D01*
X89313715Y-100697695D02*
X89265334Y-100649314D01*
D13*
%TO.C,C8*%
X128175652Y-104700400D02*
X127653148Y-104700400D01*
X128175652Y-106170400D02*
X127653148Y-106170400D01*
%TO.C,D7*%
X82436000Y-122045000D02*
X82436000Y-124315000D01*
X82436000Y-124315000D02*
X86321000Y-124315000D01*
X86321000Y-122045000D02*
X82436000Y-122045000D01*
%TO.C,C7*%
X110954452Y-103659000D02*
X110431948Y-103659000D01*
X110954452Y-105129000D02*
X110431948Y-105129000D01*
%TO.C,C9*%
X104883852Y-104700400D02*
X104361348Y-104700400D01*
X104883852Y-106170400D02*
X104361348Y-106170400D01*
%TO.C,J6*%
X55126800Y-114706400D02*
X55126800Y-122326400D01*
X55126800Y-122326400D02*
X57207921Y-122326400D01*
X57207921Y-114706400D02*
X55126800Y-114706400D01*
X59903679Y-122326400D02*
X61984800Y-122326400D01*
X61984800Y-114706400D02*
X59903679Y-114706400D01*
X61984800Y-122326400D02*
X61984800Y-114706400D01*
D14*
X56015800Y-119786400D02*
X55253800Y-120548400D01*
X55253800Y-119024400D01*
X56015800Y-119786400D01*
G36*
X56015800Y-119786400D02*
G01*
X55253800Y-120548400D01*
X55253800Y-119024400D01*
X56015800Y-119786400D01*
G37*
D13*
%TO.C,D1*%
X140821100Y-108366800D02*
X140821100Y-109016800D01*
X140821100Y-109666800D02*
X140821100Y-109016800D01*
X143941100Y-108366800D02*
X143941100Y-109016800D01*
X143941100Y-109666800D02*
X143941100Y-109016800D01*
X144221100Y-110419300D02*
X143891100Y-110179300D01*
X144221100Y-109939300D01*
X144221100Y-110419300D01*
G36*
X144221100Y-110419300D02*
G01*
X143891100Y-110179300D01*
X144221100Y-109939300D01*
X144221100Y-110419300D01*
G37*
%TO.C,D5*%
X76436000Y-114425000D02*
X76436000Y-116695000D01*
X76436000Y-116695000D02*
X80321000Y-116695000D01*
X80321000Y-114425000D02*
X76436000Y-114425000D01*
%TO.C,C6*%
X134246252Y-103659000D02*
X133723748Y-103659000D01*
X134246252Y-105129000D02*
X133723748Y-105129000D01*
%TO.C,D4*%
X82436000Y-114425000D02*
X82436000Y-116695000D01*
X82436000Y-116695000D02*
X86321000Y-116695000D01*
X86321000Y-114425000D02*
X82436000Y-114425000D01*
%TO.C,D6*%
X88436000Y-122045000D02*
X88436000Y-124315000D01*
X88436000Y-124315000D02*
X92321000Y-124315000D01*
X92321000Y-122045000D02*
X88436000Y-122045000D01*
%TO.C,D8*%
X76436000Y-122045000D02*
X76436000Y-124315000D01*
X76436000Y-124315000D02*
X80321000Y-124315000D01*
X80321000Y-122045000D02*
X76436000Y-122045000D01*
%TO.C,C3*%
X128175652Y-102668400D02*
X127653148Y-102668400D01*
X128175652Y-104138400D02*
X127653148Y-104138400D01*
%TO.C,C4*%
X104883852Y-102668400D02*
X104361348Y-102668400D01*
X104883852Y-104138400D02*
X104361348Y-104138400D01*
%TO.C,D2*%
X117478500Y-108366800D02*
X117478500Y-109016800D01*
X117478500Y-109666800D02*
X117478500Y-109016800D01*
X120598500Y-108366800D02*
X120598500Y-109016800D01*
X120598500Y-109666800D02*
X120598500Y-109016800D01*
X120878500Y-110419300D02*
X120548500Y-110179300D01*
X120878500Y-109939300D01*
X120878500Y-110419300D01*
G36*
X120878500Y-110419300D02*
G01*
X120548500Y-110179300D01*
X120878500Y-109939300D01*
X120878500Y-110419300D01*
G37*
%TO.C,D3*%
X88436000Y-114425000D02*
X88436000Y-116695000D01*
X88436000Y-116695000D02*
X92321000Y-116695000D01*
X92321000Y-114425000D02*
X88436000Y-114425000D01*
%TO.C,C5*%
X88165000Y-103777148D02*
X88165000Y-104299652D01*
X89635000Y-103777148D02*
X89635000Y-104299652D01*
%TD*%
M02*
