%TF.GenerationSoftware,KiCad,Pcbnew,7.0.7-7.0.7~ubuntu20.04.1*%
%TF.CreationDate,2023-08-17T20:41:30-07:00*%
%TF.ProjectId,IMU-2X,494d552d-3258-42e6-9b69-6361645f7063,1.0*%
%TF.SameCoordinates,Original*%
%TF.FileFunction,Copper,L1,Top*%
%TF.FilePolarity,Positive*%
%FSLAX46Y46*%
G04 Gerber Fmt 4.6, Leading zero omitted, Abs format (unit mm)*
G04 Created by KiCad (PCBNEW 7.0.7-7.0.7~ubuntu20.04.1) date 2023-08-17 20:41:30*
%MOMM*%
%LPD*%
G01*
G04 APERTURE LIST*
G04 Aperture macros list*
%AMRoundRect*
0 Rectangle with rounded corners*
0 $1 Rounding radius*
0 $2 $3 $4 $5 $6 $7 $8 $9 X,Y pos of 4 corners*
0 Add a 4 corners polygon primitive as box body*
4,1,4,$2,$3,$4,$5,$6,$7,$8,$9,$2,$3,0*
0 Add four circle primitives for the rounded corners*
1,1,$1+$1,$2,$3*
1,1,$1+$1,$4,$5*
1,1,$1+$1,$6,$7*
1,1,$1+$1,$8,$9*
0 Add four rect primitives between the rounded corners*
20,1,$1+$1,$2,$3,$4,$5,0*
20,1,$1+$1,$4,$5,$6,$7,0*
20,1,$1+$1,$6,$7,$8,$9,0*
20,1,$1+$1,$8,$9,$2,$3,0*%
G04 Aperture macros list end*
%TA.AperFunction,NonConductor*%
%ADD10C,0.200000*%
%TD*%
%ADD11C,0.300000*%
%TA.AperFunction,NonConductor*%
%ADD12C,0.300000*%
%TD*%
%TA.AperFunction,SMDPad,CuDef*%
%ADD13RoundRect,0.150000X-0.150000X0.587500X-0.150000X-0.587500X0.150000X-0.587500X0.150000X0.587500X0*%
%TD*%
%TA.AperFunction,SMDPad,CuDef*%
%ADD14RoundRect,0.250000X0.800000X-0.450000X0.800000X0.450000X-0.800000X0.450000X-0.800000X-0.450000X0*%
%TD*%
%TA.AperFunction,SMDPad,CuDef*%
%ADD15RoundRect,0.150000X0.150000X-0.587500X0.150000X0.587500X-0.150000X0.587500X-0.150000X-0.587500X0*%
%TD*%
%TA.AperFunction,SMDPad,CuDef*%
%ADD16RoundRect,0.150000X0.150000X-0.825000X0.150000X0.825000X-0.150000X0.825000X-0.150000X-0.825000X0*%
%TD*%
%TA.AperFunction,ComponentPad*%
%ADD17C,2.200000*%
%TD*%
%TA.AperFunction,ComponentPad*%
%ADD18R,1.905000X1.600200*%
%TD*%
%TA.AperFunction,ComponentPad*%
%ADD19O,1.905000X1.600200*%
%TD*%
%TA.AperFunction,SMDPad,CuDef*%
%ADD20RoundRect,0.250000X0.450000X-0.262500X0.450000X0.262500X-0.450000X0.262500X-0.450000X-0.262500X0*%
%TD*%
%TA.AperFunction,SMDPad,CuDef*%
%ADD21RoundRect,0.250000X0.375000X0.625000X-0.375000X0.625000X-0.375000X-0.625000X0.375000X-0.625000X0*%
%TD*%
%TA.AperFunction,SMDPad,CuDef*%
%ADD22RoundRect,0.150000X0.587500X0.150000X-0.587500X0.150000X-0.587500X-0.150000X0.587500X-0.150000X0*%
%TD*%
%TA.AperFunction,SMDPad,CuDef*%
%ADD23RoundRect,0.200000X-0.200000X-0.275000X0.200000X-0.275000X0.200000X0.275000X-0.200000X0.275000X0*%
%TD*%
%TA.AperFunction,SMDPad,CuDef*%
%ADD24RoundRect,0.150000X0.725000X0.150000X-0.725000X0.150000X-0.725000X-0.150000X0.725000X-0.150000X0*%
%TD*%
%TA.AperFunction,SMDPad,CuDef*%
%ADD25RoundRect,0.225000X-0.250000X0.225000X-0.250000X-0.225000X0.250000X-0.225000X0.250000X0.225000X0*%
%TD*%
%TA.AperFunction,SMDPad,CuDef*%
%ADD26RoundRect,0.150000X-0.150000X0.512500X-0.150000X-0.512500X0.150000X-0.512500X0.150000X0.512500X0*%
%TD*%
%TA.AperFunction,SMDPad,CuDef*%
%ADD27RoundRect,0.250000X0.250000X0.475000X-0.250000X0.475000X-0.250000X-0.475000X0.250000X-0.475000X0*%
%TD*%
%TA.AperFunction,ComponentPad*%
%ADD28R,1.600200X1.905000*%
%TD*%
%TA.AperFunction,ComponentPad*%
%ADD29O,1.600200X1.905000*%
%TD*%
%TA.AperFunction,SMDPad,CuDef*%
%ADD30RoundRect,0.250000X-0.350000X-0.450000X0.350000X-0.450000X0.350000X0.450000X-0.350000X0.450000X0*%
%TD*%
%TA.AperFunction,SMDPad,CuDef*%
%ADD31R,1.400000X1.200000*%
%TD*%
%TA.AperFunction,SMDPad,CuDef*%
%ADD32RoundRect,0.075000X-0.700000X-0.075000X0.700000X-0.075000X0.700000X0.075000X-0.700000X0.075000X0*%
%TD*%
%TA.AperFunction,SMDPad,CuDef*%
%ADD33RoundRect,0.075000X-0.075000X-0.700000X0.075000X-0.700000X0.075000X0.700000X-0.075000X0.700000X0*%
%TD*%
%TA.AperFunction,SMDPad,CuDef*%
%ADD34RoundRect,0.250000X0.900000X-1.000000X0.900000X1.000000X-0.900000X1.000000X-0.900000X-1.000000X0*%
%TD*%
%TA.AperFunction,SMDPad,CuDef*%
%ADD35RoundRect,0.225000X-0.225000X-0.250000X0.225000X-0.250000X0.225000X0.250000X-0.225000X0.250000X0*%
%TD*%
%TA.AperFunction,ComponentPad*%
%ADD36R,1.400000X1.400000*%
%TD*%
%TA.AperFunction,ComponentPad*%
%ADD37C,1.400000*%
%TD*%
%TA.AperFunction,ComponentPad*%
%ADD38C,3.000000*%
%TD*%
%TA.AperFunction,SMDPad,CuDef*%
%ADD39R,1.400000X2.100000*%
%TD*%
%TA.AperFunction,SMDPad,CuDef*%
%ADD40RoundRect,0.150000X-0.587500X-0.150000X0.587500X-0.150000X0.587500X0.150000X-0.587500X0.150000X0*%
%TD*%
%TA.AperFunction,SMDPad,CuDef*%
%ADD41RoundRect,0.250000X-0.375000X-0.625000X0.375000X-0.625000X0.375000X0.625000X-0.375000X0.625000X0*%
%TD*%
%TA.AperFunction,SMDPad,CuDef*%
%ADD42RoundRect,0.250000X1.100000X-0.325000X1.100000X0.325000X-1.100000X0.325000X-1.100000X-0.325000X0*%
%TD*%
%TA.AperFunction,ComponentPad*%
%ADD43R,2.000000X2.000000*%
%TD*%
%TA.AperFunction,ComponentPad*%
%ADD44C,2.000000*%
%TD*%
%TA.AperFunction,SMDPad,CuDef*%
%ADD45RoundRect,0.162500X-0.162500X1.222500X-0.162500X-1.222500X0.162500X-1.222500X0.162500X1.222500X0*%
%TD*%
%TA.AperFunction,SMDPad,CuDef*%
%ADD46RoundRect,0.250000X0.625000X-0.375000X0.625000X0.375000X-0.625000X0.375000X-0.625000X-0.375000X0*%
%TD*%
%TA.AperFunction,SMDPad,CuDef*%
%ADD47R,2.413000X3.429000*%
%TD*%
%TA.AperFunction,SMDPad,CuDef*%
%ADD48RoundRect,0.150000X0.512500X0.150000X-0.512500X0.150000X-0.512500X-0.150000X0.512500X-0.150000X0*%
%TD*%
%TA.AperFunction,SMDPad,CuDef*%
%ADD49RoundRect,0.200000X0.200000X0.275000X-0.200000X0.275000X-0.200000X-0.275000X0.200000X-0.275000X0*%
%TD*%
%TA.AperFunction,SMDPad,CuDef*%
%ADD50R,1.200000X1.500000*%
%TD*%
%TA.AperFunction,SMDPad,CuDef*%
%ADD51R,2.200000X0.700000*%
%TD*%
%TA.AperFunction,ViaPad*%
%ADD52C,0.812800*%
%TD*%
%TA.AperFunction,Conductor*%
%ADD53C,0.254000*%
%TD*%
%TA.AperFunction,Conductor*%
%ADD54C,0.381000*%
%TD*%
%TA.AperFunction,Conductor*%
%ADD55C,0.304800*%
%TD*%
%TA.AperFunction,Conductor*%
%ADD56C,0.508000*%
%TD*%
%TA.AperFunction,Conductor*%
%ADD57C,0.635000*%
%TD*%
G04 APERTURE END LIST*
D10*
X185547000Y-83947000D02*
X190881000Y-83947000D01*
X190881000Y-123952000D01*
X185547000Y-123952000D01*
X185547000Y-83947000D01*
%TA.AperFunction,NonConductor*%
G36*
X185547000Y-83947000D02*
G01*
X190881000Y-83947000D01*
X190881000Y-123952000D01*
X185547000Y-123952000D01*
X185547000Y-83947000D01*
G37*
%TD.AperFunction*%
D11*
D12*
G36*
X131111721Y-119370299D02*
G01*
X131111721Y-119066624D01*
X131277672Y-119066624D01*
X131277894Y-119086911D01*
X131278559Y-119106670D01*
X131279668Y-119125902D01*
X131281220Y-119144608D01*
X131283215Y-119162786D01*
X131285655Y-119180437D01*
X131288537Y-119197561D01*
X131291863Y-119214158D01*
X131295633Y-119230228D01*
X131299846Y-119245770D01*
X131304502Y-119260786D01*
X131309602Y-119275275D01*
X131315145Y-119289236D01*
X131321132Y-119302670D01*
X131327563Y-119315578D01*
X131334437Y-119327958D01*
X131341754Y-119339811D01*
X131349515Y-119351137D01*
X131357719Y-119361936D01*
X131366367Y-119372208D01*
X131375458Y-119381953D01*
X131384992Y-119391171D01*
X131394971Y-119399862D01*
X131405392Y-119408025D01*
X131416257Y-119415662D01*
X131427566Y-119422772D01*
X131439318Y-119429354D01*
X131451513Y-119435409D01*
X131464152Y-119440938D01*
X131477235Y-119445939D01*
X131490761Y-119450413D01*
X131504730Y-119454360D01*
X131504730Y-119620311D01*
X130237921Y-119620311D01*
X130237921Y-119370299D01*
X131111721Y-119370299D01*
G37*
D11*
D12*
G36*
X214698400Y-82947224D02*
G01*
X214693760Y-82927053D01*
X214688631Y-82907521D01*
X214683015Y-82888630D01*
X214676911Y-82870380D01*
X214670320Y-82852770D01*
X214663240Y-82835800D01*
X214655673Y-82819471D01*
X214647619Y-82803781D01*
X214630046Y-82774324D01*
X214610523Y-82747429D01*
X214589049Y-82723095D01*
X214565624Y-82701322D01*
X214540249Y-82682111D01*
X214512922Y-82665462D01*
X214483645Y-82651374D01*
X214452417Y-82639847D01*
X214419238Y-82630882D01*
X214401917Y-82627360D01*
X214384109Y-82624478D01*
X214365813Y-82622237D01*
X214347028Y-82620636D01*
X214327757Y-82619675D01*
X214307997Y-82619355D01*
X214280532Y-82620020D01*
X214253830Y-82622015D01*
X214227891Y-82625340D01*
X214202716Y-82629995D01*
X214178303Y-82635979D01*
X214154655Y-82643294D01*
X214131769Y-82651938D01*
X214109647Y-82661913D01*
X214088289Y-82673217D01*
X214067693Y-82685852D01*
X214047861Y-82699816D01*
X214028793Y-82715110D01*
X214010488Y-82731734D01*
X213992946Y-82749689D01*
X213976167Y-82768973D01*
X213960152Y-82789586D01*
X213945007Y-82811330D01*
X213930839Y-82834112D01*
X213917648Y-82857932D01*
X213905435Y-82882790D01*
X213894198Y-82908687D01*
X213883939Y-82935621D01*
X213874656Y-82963594D01*
X213866351Y-82992605D01*
X213859023Y-83022654D01*
X213852672Y-83053741D01*
X213847298Y-83085866D01*
X213842901Y-83119030D01*
X213839481Y-83153232D01*
X213838137Y-83170722D01*
X213837038Y-83188471D01*
X213836183Y-83206481D01*
X213835573Y-83224749D01*
X213835206Y-83243278D01*
X213835084Y-83262065D01*
X213835202Y-83280557D01*
X213835557Y-83298795D01*
X213836149Y-83316778D01*
X213836977Y-83334506D01*
X213838042Y-83351980D01*
X213840882Y-83386165D01*
X213844668Y-83419332D01*
X213849401Y-83451481D01*
X213855080Y-83482612D01*
X213861706Y-83512726D01*
X213869279Y-83541821D01*
X213877798Y-83569899D01*
X213887263Y-83596959D01*
X213897675Y-83623001D01*
X213909034Y-83648026D01*
X213921339Y-83672033D01*
X213934591Y-83695021D01*
X213948790Y-83716992D01*
X213956244Y-83727596D01*
X213971818Y-83747895D01*
X213988142Y-83766884D01*
X214005215Y-83784563D01*
X214023039Y-83800933D01*
X214041612Y-83815993D01*
X214060935Y-83829743D01*
X214081008Y-83842184D01*
X214101831Y-83853316D01*
X214123403Y-83863137D01*
X214145725Y-83871650D01*
X214168797Y-83878852D01*
X214192619Y-83884745D01*
X214217190Y-83889329D01*
X214242512Y-83892603D01*
X214268583Y-83894567D01*
X214295404Y-83895222D01*
X214317007Y-83894851D01*
X214338063Y-83893736D01*
X214358574Y-83891879D01*
X214378538Y-83889278D01*
X214397956Y-83885935D01*
X214416828Y-83881848D01*
X214435154Y-83877019D01*
X214452933Y-83871446D01*
X214470166Y-83865131D01*
X214486853Y-83858072D01*
X214502994Y-83850271D01*
X214518588Y-83841726D01*
X214533636Y-83832439D01*
X214548138Y-83822408D01*
X214562094Y-83811635D01*
X214575504Y-83800118D01*
X214588299Y-83787918D01*
X214600413Y-83775094D01*
X214611845Y-83761645D01*
X214622594Y-83747572D01*
X214632662Y-83732875D01*
X214642048Y-83717554D01*
X214650752Y-83701608D01*
X214658774Y-83685038D01*
X214666114Y-83667844D01*
X214672772Y-83650026D01*
X214678748Y-83631583D01*
X214684043Y-83612516D01*
X214688655Y-83592825D01*
X214692585Y-83572510D01*
X214695834Y-83551570D01*
X214698400Y-83530006D01*
X215063616Y-83530006D01*
X215062316Y-83549422D01*
X215060639Y-83568586D01*
X215058587Y-83587498D01*
X215056159Y-83606158D01*
X215053356Y-83624567D01*
X215050176Y-83642723D01*
X215046621Y-83660628D01*
X215042690Y-83678280D01*
X215038384Y-83695681D01*
X215033701Y-83712830D01*
X215028643Y-83729726D01*
X215023209Y-83746371D01*
X215017400Y-83762764D01*
X215004654Y-83794795D01*
X214990404Y-83825817D01*
X214974652Y-83855833D01*
X214957397Y-83884840D01*
X214938639Y-83912840D01*
X214918378Y-83939832D01*
X214896613Y-83965817D01*
X214873346Y-83990794D01*
X214848576Y-84014763D01*
X214835628Y-84026370D01*
X214822391Y-84037671D01*
X214808899Y-84048614D01*
X214781148Y-84069423D01*
X214752376Y-84088797D01*
X214737608Y-84097946D01*
X214722584Y-84106736D01*
X214707304Y-84115167D01*
X214691769Y-84123239D01*
X214675979Y-84130953D01*
X214659934Y-84138308D01*
X214643634Y-84145304D01*
X214627078Y-84151942D01*
X214610267Y-84158220D01*
X214593200Y-84164140D01*
X214575878Y-84169701D01*
X214558301Y-84174903D01*
X214540469Y-84179747D01*
X214522381Y-84184231D01*
X214504038Y-84188357D01*
X214485440Y-84192124D01*
X214466586Y-84195533D01*
X214447477Y-84198582D01*
X214428113Y-84201273D01*
X214408494Y-84203605D01*
X214388619Y-84205579D01*
X214368489Y-84207193D01*
X214348104Y-84208449D01*
X214327463Y-84209346D01*
X214306567Y-84209884D01*
X214285416Y-84210063D01*
X214261820Y-84209813D01*
X214238532Y-84209062D01*
X214215551Y-84207811D01*
X214192877Y-84206060D01*
X214170510Y-84203808D01*
X214148450Y-84201056D01*
X214126696Y-84197803D01*
X214105250Y-84194050D01*
X214084111Y-84189796D01*
X214063280Y-84185042D01*
X214042755Y-84179788D01*
X214022537Y-84174033D01*
X214002626Y-84167778D01*
X213983022Y-84161022D01*
X213963725Y-84153766D01*
X213944736Y-84146009D01*
X213926053Y-84137752D01*
X213907677Y-84128995D01*
X213889609Y-84119737D01*
X213871847Y-84109979D01*
X213854393Y-84099720D01*
X213837245Y-84088961D01*
X213820405Y-84077702D01*
X213803871Y-84065942D01*
X213787645Y-84053682D01*
X213771726Y-84040921D01*
X213756113Y-84027660D01*
X213740808Y-84013898D01*
X213725810Y-83999636D01*
X213711119Y-83984874D01*
X213696735Y-83969611D01*
X213682657Y-83953848D01*
X213668951Y-83937654D01*
X213655681Y-83921101D01*
X213642845Y-83904189D01*
X213630444Y-83886917D01*
X213618478Y-83869285D01*
X213606948Y-83851294D01*
X213595853Y-83832943D01*
X213585192Y-83814232D01*
X213574967Y-83795162D01*
X213565177Y-83775732D01*
X213555822Y-83755942D01*
X213546903Y-83735793D01*
X213538418Y-83715284D01*
X213530368Y-83694416D01*
X213522754Y-83673188D01*
X213515575Y-83651600D01*
X213508830Y-83629653D01*
X213502521Y-83607346D01*
X213496647Y-83584679D01*
X213491208Y-83561653D01*
X213486204Y-83538267D01*
X213481636Y-83514522D01*
X213477502Y-83490417D01*
X213473804Y-83465952D01*
X213470540Y-83441128D01*
X213467712Y-83415944D01*
X213465319Y-83390401D01*
X213463361Y-83364497D01*
X213461838Y-83338235D01*
X213460750Y-83311612D01*
X213460098Y-83284630D01*
X213459880Y-83257289D01*
X213460100Y-83229785D01*
X213460759Y-83202644D01*
X213461857Y-83175865D01*
X213463395Y-83149449D01*
X213465372Y-83123394D01*
X213467789Y-83097702D01*
X213470644Y-83072372D01*
X213473939Y-83047403D01*
X213477674Y-83022798D01*
X213481848Y-82998554D01*
X213486461Y-82974672D01*
X213491514Y-82951153D01*
X213497005Y-82927996D01*
X213502937Y-82905201D01*
X213509307Y-82882768D01*
X213516117Y-82860697D01*
X213523367Y-82838989D01*
X213531055Y-82817642D01*
X213539183Y-82796658D01*
X213547751Y-82776036D01*
X213556757Y-82755776D01*
X213566204Y-82735879D01*
X213576089Y-82716343D01*
X213586414Y-82697170D01*
X213597178Y-82678359D01*
X213608381Y-82659910D01*
X213620024Y-82641823D01*
X213632106Y-82624098D01*
X213644628Y-82606736D01*
X213657589Y-82589735D01*
X213670989Y-82573097D01*
X213684829Y-82556821D01*
X213699071Y-82540978D01*
X213713626Y-82525637D01*
X213728493Y-82510800D01*
X213743672Y-82496465D01*
X213759163Y-82482634D01*
X213774966Y-82469305D01*
X213791081Y-82456479D01*
X213807508Y-82444157D01*
X213824248Y-82432337D01*
X213841299Y-82421020D01*
X213858663Y-82410207D01*
X213876339Y-82399896D01*
X213894327Y-82390088D01*
X213912627Y-82380783D01*
X213931240Y-82371981D01*
X213950164Y-82363682D01*
X213969401Y-82355886D01*
X213988949Y-82348593D01*
X214008810Y-82341803D01*
X214028983Y-82335516D01*
X214049468Y-82329732D01*
X214070265Y-82324451D01*
X214091374Y-82319673D01*
X214112796Y-82315398D01*
X214134529Y-82311625D01*
X214156575Y-82308356D01*
X214178933Y-82305590D01*
X214201603Y-82303326D01*
X214224585Y-82301566D01*
X214247879Y-82300309D01*
X214271485Y-82299554D01*
X214295404Y-82299303D01*
X214315456Y-82299471D01*
X214335281Y-82299978D01*
X214354879Y-82300822D01*
X214374250Y-82302003D01*
X214393393Y-82303522D01*
X214412309Y-82305379D01*
X214430997Y-82307573D01*
X214449459Y-82310105D01*
X214467693Y-82312974D01*
X214485699Y-82316181D01*
X214503479Y-82319726D01*
X214521031Y-82323608D01*
X214538356Y-82327828D01*
X214555453Y-82332385D01*
X214572323Y-82337280D01*
X214588966Y-82342512D01*
X214621570Y-82353989D01*
X214653264Y-82366817D01*
X214684049Y-82380995D01*
X214713925Y-82396523D01*
X214742892Y-82413402D01*
X214770950Y-82431631D01*
X214798098Y-82451210D01*
X214824337Y-82472140D01*
X214849465Y-82494199D01*
X214873171Y-82517276D01*
X214895456Y-82541371D01*
X214916319Y-82566483D01*
X214935761Y-82592614D01*
X214953782Y-82619762D01*
X214970380Y-82647928D01*
X214985557Y-82677112D01*
X214999313Y-82707314D01*
X215011647Y-82738533D01*
X215022560Y-82770771D01*
X215032051Y-82804026D01*
X215036263Y-82821035D01*
X215040120Y-82838299D01*
X215043622Y-82855817D01*
X215046768Y-82873589D01*
X215049559Y-82891616D01*
X215051995Y-82909898D01*
X215054075Y-82928434D01*
X215055800Y-82947224D01*
X214698400Y-82947224D01*
G37*
G36*
X216524914Y-84152741D02*
G01*
X216174897Y-84152741D01*
X216174897Y-83992497D01*
X216156317Y-84018843D01*
X216136838Y-84043489D01*
X216116460Y-84066436D01*
X216095183Y-84087682D01*
X216073007Y-84107229D01*
X216049931Y-84125077D01*
X216025957Y-84141224D01*
X216001083Y-84155672D01*
X215975311Y-84168420D01*
X215948639Y-84179468D01*
X215921068Y-84188817D01*
X215892599Y-84196465D01*
X215863230Y-84202415D01*
X215832962Y-84206664D01*
X215801795Y-84209213D01*
X215769729Y-84210063D01*
X215743234Y-84209585D01*
X215717489Y-84208150D01*
X215692493Y-84205758D01*
X215668247Y-84202409D01*
X215644751Y-84198104D01*
X215622005Y-84192842D01*
X215600008Y-84186623D01*
X215578762Y-84179448D01*
X215558265Y-84171315D01*
X215538518Y-84162226D01*
X215519520Y-84152181D01*
X215501273Y-84141178D01*
X215483775Y-84129219D01*
X215467027Y-84116303D01*
X215451029Y-84102430D01*
X215435780Y-84087601D01*
X215421372Y-84071901D01*
X215407893Y-84055418D01*
X215395343Y-84038151D01*
X215383723Y-84020100D01*
X215373033Y-84001266D01*
X215363272Y-83981647D01*
X215354441Y-83961245D01*
X215346539Y-83940060D01*
X215339567Y-83918090D01*
X215333525Y-83895337D01*
X215328412Y-83871801D01*
X215324229Y-83847480D01*
X215320975Y-83822376D01*
X215318651Y-83796488D01*
X215317257Y-83769817D01*
X215316792Y-83742361D01*
X215316792Y-82802180D01*
X215667243Y-82802180D01*
X215667243Y-83669839D01*
X215668122Y-83699235D01*
X215670758Y-83726735D01*
X215675151Y-83752337D01*
X215681302Y-83776044D01*
X215689211Y-83797854D01*
X215698876Y-83817767D01*
X215710300Y-83835784D01*
X215723480Y-83851904D01*
X215738418Y-83866128D01*
X215755114Y-83878455D01*
X215773566Y-83888886D01*
X215793777Y-83897421D01*
X215815744Y-83904058D01*
X215839469Y-83908800D01*
X215864952Y-83911644D01*
X215892192Y-83912593D01*
X215915688Y-83911955D01*
X215938298Y-83910043D01*
X215960023Y-83906856D01*
X215980863Y-83902394D01*
X216000817Y-83896658D01*
X216019886Y-83889646D01*
X216038069Y-83881360D01*
X216055366Y-83871799D01*
X216071778Y-83860963D01*
X216087305Y-83848853D01*
X216097164Y-83840071D01*
X216111056Y-83826053D01*
X216123581Y-83811195D01*
X216134740Y-83795498D01*
X216144533Y-83778962D01*
X216152959Y-83761585D01*
X216160019Y-83743369D01*
X216165712Y-83724313D01*
X216170039Y-83704417D01*
X216173000Y-83683682D01*
X216174594Y-83662107D01*
X216174897Y-83647257D01*
X216174897Y-82802180D01*
X216524914Y-82802180D01*
X216524914Y-84152741D01*
G37*
G36*
X217946259Y-82329267D02*
G01*
X217946259Y-83840071D01*
X218819130Y-83840071D01*
X218819130Y-84152741D01*
X217571055Y-84152741D01*
X217571055Y-82329267D01*
X217946259Y-82329267D01*
G37*
G36*
X220630009Y-84152741D02*
G01*
X220244818Y-84152741D01*
X220124961Y-83784919D01*
X219441864Y-83784919D01*
X219319401Y-84152741D01*
X218936815Y-84152741D01*
X219178447Y-83472249D01*
X219546956Y-83472249D01*
X220022040Y-83472249D01*
X219784498Y-82759622D01*
X219546956Y-83472249D01*
X219178447Y-83472249D01*
X219584302Y-82329267D01*
X219999893Y-82329267D01*
X220630009Y-84152741D01*
G37*
G36*
X221650964Y-83477460D02*
G01*
X221650964Y-84152741D01*
X221275760Y-84152741D01*
X221275760Y-83477460D01*
X220670396Y-82329267D01*
X221088158Y-82329267D01*
X221460756Y-83134826D01*
X221808167Y-82329267D01*
X222228534Y-82329267D01*
X221650964Y-83477460D01*
G37*
G36*
X222820436Y-83367157D02*
G01*
X222820436Y-83840071D01*
X223808386Y-83840071D01*
X223808386Y-84152741D01*
X222445232Y-84152741D01*
X222445232Y-82329267D01*
X223763223Y-82329267D01*
X223763223Y-82641937D01*
X222820436Y-82641937D01*
X222820436Y-83054487D01*
X223693306Y-83054487D01*
X223693306Y-83367157D01*
X222820436Y-83367157D01*
G37*
G36*
X225095988Y-82329453D02*
G01*
X225121487Y-82330433D01*
X225146299Y-82332252D01*
X225170423Y-82334911D01*
X225193861Y-82338410D01*
X225216611Y-82342749D01*
X225238675Y-82347927D01*
X225260051Y-82353944D01*
X225280740Y-82360802D01*
X225300743Y-82368499D01*
X225320058Y-82377036D01*
X225338591Y-82386178D01*
X225356246Y-82395855D01*
X225373024Y-82406066D01*
X225388923Y-82416812D01*
X225403945Y-82428092D01*
X225418088Y-82439906D01*
X225431354Y-82452254D01*
X225443742Y-82465137D01*
X225455252Y-82478554D01*
X225465884Y-82492506D01*
X225472485Y-82502104D01*
X225484848Y-82521456D01*
X225496315Y-82540862D01*
X225506887Y-82560322D01*
X225516563Y-82579837D01*
X225525343Y-82599406D01*
X225533228Y-82619029D01*
X225540216Y-82638707D01*
X225546310Y-82658439D01*
X225551602Y-82678191D01*
X225556189Y-82698147D01*
X225560070Y-82718306D01*
X225563246Y-82738669D01*
X225565716Y-82759236D01*
X225567480Y-82780006D01*
X225568539Y-82800979D01*
X225568891Y-82822156D01*
X225568591Y-82842579D01*
X225567689Y-82862590D01*
X225566185Y-82882192D01*
X225564081Y-82901382D01*
X225561375Y-82920162D01*
X225558067Y-82938532D01*
X225554158Y-82956491D01*
X225549648Y-82974040D01*
X225544537Y-82991178D01*
X225538824Y-83007906D01*
X225532510Y-83024223D01*
X225518077Y-83055626D01*
X225501239Y-83085386D01*
X225481996Y-83113505D01*
X225460347Y-83139981D01*
X225436293Y-83164816D01*
X225423364Y-83176617D01*
X225409833Y-83188008D01*
X225395702Y-83198989D01*
X225380968Y-83209559D01*
X225365634Y-83219718D01*
X225349698Y-83229467D01*
X225333161Y-83238805D01*
X225316022Y-83247733D01*
X225298282Y-83256250D01*
X225279941Y-83264357D01*
X225260998Y-83272054D01*
X225277385Y-83278825D01*
X225296323Y-83286794D01*
X225313543Y-83294211D01*
X225331940Y-83302384D01*
X225347863Y-83309763D01*
X225361313Y-83316348D01*
X225377653Y-83325739D01*
X225392038Y-83336183D01*
X225406507Y-83348704D01*
X225418975Y-83361091D01*
X225427321Y-83370197D01*
X225439230Y-83383943D01*
X225451116Y-83399323D01*
X225460841Y-83413997D01*
X225469309Y-83429902D01*
X225472485Y-83437508D01*
X225478130Y-83455611D01*
X225482364Y-83473286D01*
X225485893Y-83490696D01*
X225489421Y-83510546D01*
X225492244Y-83528181D01*
X225495067Y-83547377D01*
X225497747Y-83567319D01*
X225500142Y-83587193D01*
X225502252Y-83607000D01*
X225504078Y-83626738D01*
X225505618Y-83646409D01*
X225506873Y-83666012D01*
X225507843Y-83685547D01*
X225508529Y-83705015D01*
X225509180Y-83725615D01*
X225509832Y-83748549D01*
X225510320Y-83767282D01*
X225510809Y-83787328D01*
X225511297Y-83808687D01*
X225511786Y-83831358D01*
X225512274Y-83855343D01*
X225512763Y-83880640D01*
X225513089Y-83898235D01*
X225513414Y-83916413D01*
X225513740Y-83935174D01*
X225514446Y-83954349D01*
X225516564Y-83972462D01*
X225520095Y-83989514D01*
X225526999Y-84010599D01*
X225536414Y-84029798D01*
X225548339Y-84047111D01*
X225562775Y-84062538D01*
X225579721Y-84076078D01*
X225594079Y-84084995D01*
X225594079Y-84152741D01*
X225191082Y-84152741D01*
X225182763Y-84136537D01*
X225175177Y-84120496D01*
X225166725Y-84100675D01*
X225159418Y-84081107D01*
X225153256Y-84061794D01*
X225148239Y-84042736D01*
X225145050Y-84027673D01*
X225141797Y-84007291D01*
X225139592Y-83988604D01*
X225137740Y-83967800D01*
X225136240Y-83944879D01*
X225135347Y-83926299D01*
X225134652Y-83906528D01*
X225134156Y-83885566D01*
X225133858Y-83863414D01*
X225133759Y-83840071D01*
X225133793Y-83821798D01*
X225133931Y-83800388D01*
X225134175Y-83780568D01*
X225134525Y-83762339D01*
X225135084Y-83742563D01*
X225135797Y-83725077D01*
X225135930Y-83722385D01*
X225136946Y-83704244D01*
X225137801Y-83684682D01*
X225138330Y-83666368D01*
X225138536Y-83647257D01*
X225138051Y-83626319D01*
X225136597Y-83606494D01*
X225134173Y-83587785D01*
X225130780Y-83570189D01*
X225124748Y-83548462D01*
X225116993Y-83528717D01*
X225107513Y-83510953D01*
X225096311Y-83495170D01*
X225083385Y-83481369D01*
X225068647Y-83469257D01*
X225051792Y-83458760D01*
X225032820Y-83449878D01*
X225011731Y-83442611D01*
X224994525Y-83438220D01*
X224976128Y-83434738D01*
X224956541Y-83432164D01*
X224935762Y-83430499D01*
X224913793Y-83429742D01*
X224906205Y-83429691D01*
X224475850Y-83429691D01*
X224475850Y-84152741D01*
X224100646Y-84152741D01*
X224100646Y-82641937D01*
X224475850Y-82641937D01*
X224475850Y-83117021D01*
X224928352Y-83117021D01*
X224952680Y-83116605D01*
X224975833Y-83115357D01*
X224997810Y-83113277D01*
X225018611Y-83110365D01*
X225038237Y-83106621D01*
X225056688Y-83102044D01*
X225073962Y-83096636D01*
X225095167Y-83088131D01*
X225114281Y-83078146D01*
X225127245Y-83069687D01*
X225142818Y-83056191D01*
X225156314Y-83039587D01*
X225167734Y-83019875D01*
X225174936Y-83003052D01*
X225180970Y-82984481D01*
X225185836Y-82964162D01*
X225189535Y-82942094D01*
X225192065Y-82918279D01*
X225193428Y-82892716D01*
X225193688Y-82874702D01*
X225193115Y-82849230D01*
X225191398Y-82825415D01*
X225188535Y-82803256D01*
X225184527Y-82782754D01*
X225179375Y-82763908D01*
X225173077Y-82746718D01*
X225162899Y-82726376D01*
X225150685Y-82708978D01*
X225136436Y-82694525D01*
X225128548Y-82688403D01*
X225111171Y-82677513D01*
X225091608Y-82668074D01*
X225069861Y-82660088D01*
X225052117Y-82655051D01*
X225033144Y-82650831D01*
X225012942Y-82647427D01*
X224991511Y-82644841D01*
X224968850Y-82643071D01*
X224944961Y-82642118D01*
X224928352Y-82641937D01*
X224475850Y-82641937D01*
X224100646Y-82641937D01*
X224100646Y-82329267D01*
X225078608Y-82329267D01*
X225095988Y-82329453D01*
G37*
G36*
X226983289Y-82929419D02*
G01*
X226558144Y-82929419D01*
X226558144Y-82697088D01*
X226586545Y-82696778D01*
X226614209Y-82695847D01*
X226641134Y-82694294D01*
X226667321Y-82692121D01*
X226692770Y-82689328D01*
X226717482Y-82685913D01*
X226741455Y-82681877D01*
X226764691Y-82677221D01*
X226787189Y-82671943D01*
X226808949Y-82666045D01*
X226829971Y-82659526D01*
X226850255Y-82652386D01*
X226869801Y-82644626D01*
X226888609Y-82636244D01*
X226906679Y-82627241D01*
X226924012Y-82617618D01*
X226940606Y-82607374D01*
X226956463Y-82596509D01*
X226971581Y-82585023D01*
X226985962Y-82572916D01*
X226999605Y-82560188D01*
X227012510Y-82546840D01*
X227024677Y-82532870D01*
X227036106Y-82518280D01*
X227046797Y-82503069D01*
X227056750Y-82487237D01*
X227065966Y-82470784D01*
X227074443Y-82453711D01*
X227082183Y-82436016D01*
X227089185Y-82417701D01*
X227095448Y-82398764D01*
X227100974Y-82379207D01*
X227333305Y-82379207D01*
X227333305Y-84152741D01*
X226983289Y-84152741D01*
X226983289Y-82929419D01*
G37*
D13*
%TO.P,U7,1,~{RST}*%
%TO.N,/~{T_NRST}*%
X153900000Y-112602500D03*
%TO.P,U7,2,VDD*%
%TO.N,+3V3*%
X152000000Y-112602500D03*
%TO.P,U7,3,VSS*%
%TO.N,GND*%
X152950000Y-114477500D03*
%TD*%
D14*
%TO.P,D2,1,K*%
%TO.N,/Power Supply/V_{BAT_MON}*%
X139192000Y-96180000D03*
%TO.P,D2,2,A*%
%TO.N,/V_{BAT}*%
X139192000Y-91780000D03*
%TD*%
D15*
%TO.P,Q6,1,G*%
%TO.N,/LED1_GRN*%
X147386000Y-125905500D03*
%TO.P,Q6,2,S*%
%TO.N,+3V3*%
X149286000Y-125905500D03*
%TO.P,Q6,3,D*%
%TO.N,Net-(Q6-D)*%
X148336000Y-124030500D03*
%TD*%
D16*
%TO.P,U9,1,VCCA*%
%TO.N,+3V3*%
X168795000Y-118855000D03*
%TO.P,U9,2,1DIR*%
X170065000Y-118855000D03*
%TO.P,U9,3,2DIR*%
X171335000Y-118855000D03*
%TO.P,U9,4,1A1*%
%TO.N,/FSYNC_TDK_ST*%
X172605000Y-118855000D03*
%TO.P,U9,5,1A2*%
%TO.N,/MOSI_TDK_ST*%
X173875000Y-118855000D03*
%TO.P,U9,6,2A1*%
%TO.N,/SCK_TDK_ST*%
X175145000Y-118855000D03*
%TO.P,U9,7,2A2*%
%TO.N,/~{CS_TDK_ST}*%
X176415000Y-118855000D03*
%TO.P,U9,8,GND*%
%TO.N,GND*%
X177685000Y-118855000D03*
%TO.P,U9,9,GND*%
X177685000Y-113905000D03*
%TO.P,U9,10,2B2*%
%TO.N,/~{CS_TDK}*%
X176415000Y-113905000D03*
%TO.P,U9,11,2B1*%
%TO.N,/SCK_TDK*%
X175145000Y-113905000D03*
%TO.P,U9,12,1B2*%
%TO.N,/MOSI_TDK*%
X173875000Y-113905000D03*
%TO.P,U9,13,1B1*%
%TO.N,/FSYNC_TDK*%
X172605000Y-113905000D03*
%TO.P,U9,14,2~{OE}*%
%TO.N,/~{TDK_EN}*%
X171335000Y-113905000D03*
%TO.P,U9,15,1~{OE}*%
X170065000Y-113905000D03*
%TO.P,U9,16,VCCB*%
%TO.N,Net-(U10-VDD)*%
X168795000Y-113905000D03*
%TD*%
D17*
%TO.P,J2,1,Pin_1*%
%TO.N,/V_{BAT}*%
X162178500Y-75910500D03*
%TO.P,J2,2,Pin_2*%
%TO.N,GND*%
X157178500Y-75910500D03*
%TO.P,J2,3,Pin_3*%
%TO.N,/V_{BAT}*%
X162178500Y-84110500D03*
%TO.P,J2,4,Pin_4*%
%TO.N,GND*%
X157178500Y-84110500D03*
%TD*%
D18*
%TO.P,J4,1,Pin_1*%
%TO.N,/CAN_H*%
X131064000Y-88392000D03*
D19*
%TO.P,J4,2,Pin_2*%
%TO.N,/CAN_L*%
X131064000Y-85852000D03*
%TD*%
D20*
%TO.P,R11,1*%
%TO.N,Net-(D4-KA)*%
X157607000Y-127531500D03*
%TO.P,R11,2*%
%TO.N,Net-(Q9-D)*%
X157607000Y-125706500D03*
%TD*%
D21*
%TO.P,D3,1,KA*%
%TO.N,Net-(D3-KA)*%
X134242000Y-96393000D03*
%TO.P,D3,2,AK*%
%TO.N,Net-(D3-AK)*%
X131442000Y-96393000D03*
%TD*%
D22*
%TO.P,Q8,1,G*%
%TO.N,/LED2_GRN*%
X164894500Y-127569000D03*
%TO.P,Q8,2,S*%
%TO.N,+3V3*%
X164894500Y-125669000D03*
%TO.P,Q8,3,D*%
%TO.N,Net-(Q8-D)*%
X163019500Y-126619000D03*
%TD*%
D23*
%TO.P,R5,1*%
%TO.N,/~{CS_TDK}*%
X179445000Y-111570000D03*
%TO.P,R5,2*%
%TO.N,GND*%
X181095000Y-111570000D03*
%TD*%
D24*
%TO.P,U1,1,TXD*%
%TO.N,/FDCAN_TX*%
X145069000Y-86233000D03*
%TO.P,U1,2,VSS*%
%TO.N,GND*%
X145069000Y-84963000D03*
%TO.P,U1,3,VDD*%
%TO.N,+5V*%
X145069000Y-83693000D03*
%TO.P,U1,4,RXD*%
%TO.N,/FDCAN_RX*%
X145069000Y-82423000D03*
%TO.P,U1,5,VIO*%
%TO.N,+3V3*%
X139919000Y-82423000D03*
%TO.P,U1,6,CANL*%
%TO.N,/CAN_L*%
X139919000Y-83693000D03*
%TO.P,U1,7,CANH*%
%TO.N,/CAN_H*%
X139919000Y-84963000D03*
%TO.P,U1,8,STBY*%
%TO.N,/FDCAN_STBY*%
X139919000Y-86233000D03*
%TD*%
D23*
%TO.P,R8,1*%
%TO.N,GND*%
X134811000Y-116586000D03*
%TO.P,R8,2*%
%TO.N,Net-(U8-EN)*%
X136461000Y-116586000D03*
%TD*%
D25*
%TO.P,C7,1*%
%TO.N,Net-(U8-CB)*%
X141478000Y-113017000D03*
%TO.P,C7,2*%
%TO.N,Net-(U8-SW)*%
X141478000Y-114567000D03*
%TD*%
D23*
%TO.P,R7,1*%
%TO.N,/SCK_TDK*%
X179435000Y-115470000D03*
%TO.P,R7,2*%
%TO.N,GND*%
X181085000Y-115470000D03*
%TD*%
D26*
%TO.P,U2,1,I/O1*%
%TO.N,/USB_D-*%
X169860000Y-85984500D03*
%TO.P,U2,2,GND*%
%TO.N,GND*%
X168910000Y-85984500D03*
%TO.P,U2,3,I/O2*%
%TO.N,/USB_D+*%
X167960000Y-85984500D03*
%TO.P,U2,4,I/O2*%
%TO.N,/ST_USB_D+*%
X167960000Y-88259500D03*
%TO.P,U2,5,VBUS*%
%TO.N,Net-(J3-VBUS)*%
X168910000Y-88259500D03*
%TO.P,U2,6,I/O1*%
%TO.N,/ST_USB_D-*%
X169860000Y-88259500D03*
%TD*%
D27*
%TO.P,C6,1*%
%TO.N,Net-(C6-Pad1)*%
X147000000Y-112268000D03*
%TO.P,C6,2*%
%TO.N,GND*%
X145100000Y-112268000D03*
%TD*%
%TO.P,C1,1*%
%TO.N,+3V3*%
X160462000Y-89154000D03*
%TO.P,C1,2*%
%TO.N,GND*%
X158562000Y-89154000D03*
%TD*%
D28*
%TO.P,J1,1,Pin_1*%
%TO.N,/CAN_H*%
X143510000Y-73406000D03*
D29*
%TO.P,J1,2,Pin_2*%
%TO.N,/CAN_L*%
X146050000Y-73406000D03*
%TD*%
D20*
%TO.P,R12,1*%
%TO.N,Net-(D4-AK)*%
X160655000Y-127531500D03*
%TO.P,R12,2*%
%TO.N,Net-(Q8-D)*%
X160655000Y-125706500D03*
%TD*%
D30*
%TO.P,R2,1*%
%TO.N,+5V*%
X149876000Y-88773000D03*
%TO.P,R2,2*%
%TO.N,Net-(U3-VOUT)*%
X151876000Y-88773000D03*
%TD*%
D31*
%TO.P,U5,1,EN*%
%TO.N,+3V3*%
X147066000Y-104478000D03*
%TO.P,U5,2,GND*%
%TO.N,GND*%
X149606000Y-104478000D03*
%TO.P,U5,3,OUT*%
%TO.N,Net-(U5-OUT)*%
X149606000Y-102278000D03*
%TO.P,U5,4,V_{DD}*%
%TO.N,+3V3*%
X147066000Y-102278000D03*
%TD*%
D32*
%TO.P,U6,1,VBAT*%
%TO.N,GND*%
X153329000Y-100390000D03*
%TO.P,U6,2,PC13/GPIO_OUT*%
%TO.N,unconnected-(U6-PC13{slash}GPIO_OUT-Pad2)*%
X153329000Y-100890000D03*
%TO.P,U6,3,PC14/GPIO_OUT*%
%TO.N,unconnected-(U6-PC14{slash}GPIO_OUT-Pad3)*%
X153329000Y-101390000D03*
%TO.P,U6,4,PC15/GPIO_OUT*%
%TO.N,unconnected-(U6-PC15{slash}GPIO_OUT-Pad4)*%
X153329000Y-101890000D03*
%TO.P,U6,5,PF0/RCC_OSC_IN*%
%TO.N,Net-(U5-OUT)*%
X153329000Y-102390000D03*
%TO.P,U6,6,PF1/RCC_OSC_OUT*%
%TO.N,unconnected-(U6-PF1{slash}RCC_OSC_OUT-Pad6)*%
X153329000Y-102890000D03*
%TO.P,U6,7,PG10/~{NRST}*%
%TO.N,/~{T_NRST}*%
X153329000Y-103390000D03*
%TO.P,U6,8,PC0/GPIO_OUT*%
%TO.N,/LED1_GRN*%
X153329000Y-103890000D03*
%TO.P,U6,9,PC1/GPIO_OUT*%
%TO.N,/LED1_RED*%
X153329000Y-104390000D03*
%TO.P,U6,10,PC2/GPIO_OUT*%
%TO.N,/LED2_GRN*%
X153329000Y-104890000D03*
%TO.P,U6,11,PC3/GPIO_OUT*%
%TO.N,/LED2_RED*%
X153329000Y-105390000D03*
%TO.P,U6,12,PA0/GPIO_IN*%
%TO.N,/INT_TDK*%
X153329000Y-105890000D03*
%TO.P,U6,13,PA1/GPIO_OUT*%
%TO.N,/~{TDK_EN}*%
X153329000Y-106390000D03*
%TO.P,U6,14,PA2/GPIO_OUT*%
%TO.N,/FSYNC_TDK_ST*%
X153329000Y-106890000D03*
%TO.P,U6,15,VSS*%
%TO.N,GND*%
X153329000Y-107390000D03*
%TO.P,U6,16,VDD*%
%TO.N,+3V3*%
X153329000Y-107890000D03*
D33*
%TO.P,U6,17,PA3/GPIO_OUT*%
%TO.N,/~{RESET_UNO}*%
X155254000Y-109815000D03*
%TO.P,U6,18,PA4/~{SPI1_NSS}*%
%TO.N,/~{CS_TDK_ST}*%
X155754000Y-109815000D03*
%TO.P,U6,19,PA5/SPI1_SCK*%
%TO.N,/SCK_TDK_ST*%
X156254000Y-109815000D03*
%TO.P,U6,20,PA6/SPI1_MISO*%
%TO.N,/MISO_TDK*%
X156754000Y-109815000D03*
%TO.P,U6,21,PA7/SPI1_MOSI*%
%TO.N,/MOSI_TDK_ST*%
X157254000Y-109815000D03*
%TO.P,U6,22,PC4/USART1_TX*%
%TO.N,/T_VCP_TX*%
X157754000Y-109815000D03*
%TO.P,U6,23,PC5/USART1_RX*%
%TO.N,/T_VCP_RX*%
X158254000Y-109815000D03*
%TO.P,U6,24,PB0/GPIO_OUT*%
%TO.N,unconnected-(U6-PB0{slash}GPIO_OUT-Pad24)*%
X158754000Y-109815000D03*
%TO.P,U6,25,PB1/GPIO_OUT*%
%TO.N,unconnected-(U6-PB1{slash}GPIO_OUT-Pad25)*%
X159254000Y-109815000D03*
%TO.P,U6,26,PB2/GPIO_OUT*%
%TO.N,unconnected-(U6-PB2{slash}GPIO_OUT-Pad26)*%
X159754000Y-109815000D03*
%TO.P,U6,27,VSSA*%
%TO.N,GND*%
X160254000Y-109815000D03*
%TO.P,U6,28,VREF+/VREFBUF_OUT*%
%TO.N,Net-(U6-VREF+{slash}VREFBUF_OUT)*%
X160754000Y-109815000D03*
%TO.P,U6,29,VDDA*%
%TO.N,+3V3*%
X161254000Y-109815000D03*
%TO.P,U6,30,PB10/GPIO_OUT*%
%TO.N,unconnected-(U6-PB10{slash}GPIO_OUT-Pad30)*%
X161754000Y-109815000D03*
%TO.P,U6,31,VSS*%
%TO.N,GND*%
X162254000Y-109815000D03*
%TO.P,U6,32,VDD*%
%TO.N,+3V3*%
X162754000Y-109815000D03*
D32*
%TO.P,U6,33,PB11/GPIO_OUT*%
%TO.N,unconnected-(U6-PB11{slash}GPIO_OUT-Pad33)*%
X164679000Y-107890000D03*
%TO.P,U6,34,PB12/~{SPI2_NSS}*%
%TO.N,/~{CS_UNO}*%
X164679000Y-107390000D03*
%TO.P,U6,35,PB13/SPI2_SCK*%
%TO.N,/SCK_UNO*%
X164679000Y-106890000D03*
%TO.P,U6,36,PB14/SPI2_MISO*%
%TO.N,/MISO_UNO*%
X164679000Y-106390000D03*
%TO.P,U6,37,PB15/SPI2_MOSI*%
%TO.N,/MOSI_UNO*%
X164679000Y-105890000D03*
%TO.P,U6,38,PC6/GPIO_OUT*%
%TO.N,/~{RESET_DUE}*%
X164679000Y-105390000D03*
%TO.P,U6,39,PC7/GPIO_OUT*%
%TO.N,unconnected-(U6-PC7{slash}GPIO_OUT-Pad39)*%
X164679000Y-104890000D03*
%TO.P,U6,40,PC8/GPIO_OUT*%
%TO.N,unconnected-(U6-PC8{slash}GPIO_OUT-Pad40)*%
X164679000Y-104390000D03*
%TO.P,U6,41,PC9/GPIO_OUT*%
%TO.N,/TDK_PWR_EN*%
X164679000Y-103890000D03*
%TO.P,U6,42,PA8/ADC5_IN1*%
%TO.N,Net-(U6-PA8{slash}ADC5_IN1)*%
X164679000Y-103390000D03*
%TO.P,U6,43,PA9/GPIO_OUT*%
%TO.N,unconnected-(U6-PA9{slash}GPIO_OUT-Pad43)*%
X164679000Y-102890000D03*
%TO.P,U6,44,PA10/GPIO_OUT*%
%TO.N,unconnected-(U6-PA10{slash}GPIO_OUT-Pad44)*%
X164679000Y-102390000D03*
%TO.P,U6,45,PA11/USB_DM*%
%TO.N,/ST_USB_D-*%
X164679000Y-101890000D03*
%TO.P,U6,46,PA12/USB_DP*%
%TO.N,/ST_USB_D+*%
X164679000Y-101390000D03*
%TO.P,U6,47,VSS*%
%TO.N,GND*%
X164679000Y-100890000D03*
%TO.P,U6,48,VDD*%
%TO.N,+3V3*%
X164679000Y-100390000D03*
D33*
%TO.P,U6,49,PA13/SYS_ITMS_SWDIO*%
%TO.N,/T_SWDIO*%
X162754000Y-98465000D03*
%TO.P,U6,50,PA14/SYS_ITMS_SWCLK*%
%TO.N,/T_SWCLK*%
X162254000Y-98465000D03*
%TO.P,U6,51,PA15/~{SPI3_NSS}*%
%TO.N,/~{CS_DUE}*%
X161754000Y-98465000D03*
%TO.P,U6,52,PC10/SPI3_SCK*%
%TO.N,/SCK_DUE*%
X161254000Y-98465000D03*
%TO.P,U6,53,PC11/SPI3_MISO*%
%TO.N,/MISO_DUE*%
X160754000Y-98465000D03*
%TO.P,U6,54,PC12/SPI3_MOSI*%
%TO.N,/MOSI_DUE*%
X160254000Y-98465000D03*
%TO.P,U6,55,PD2/GPIO_OUT*%
%TO.N,unconnected-(U6-PD2{slash}GPIO_OUT-Pad55)*%
X159754000Y-98465000D03*
%TO.P,U6,56,PB3/GPIO_OUT*%
%TO.N,unconnected-(U6-PB3{slash}GPIO_OUT-Pad56)*%
X159254000Y-98465000D03*
%TO.P,U6,57,PB4/GPIO_OUT*%
%TO.N,unconnected-(U6-PB4{slash}GPIO_OUT-Pad57)*%
X158754000Y-98465000D03*
%TO.P,U6,58,PB5/FDCAN2_RX*%
%TO.N,/FDCAN_RX*%
X158254000Y-98465000D03*
%TO.P,U6,59,PB6/FDCAN2_TX*%
%TO.N,/FDCAN_TX*%
X157754000Y-98465000D03*
%TO.P,U6,60,PB7/GPIO_OUT*%
%TO.N,/FDCAN_STBY*%
X157254000Y-98465000D03*
%TO.P,U6,61,PB8/BOOT0*%
%TO.N,Net-(U6-PB8{slash}BOOT0)*%
X156754000Y-98465000D03*
%TO.P,U6,62,PB9/GPIO_OUT*%
%TO.N,unconnected-(U6-PB9{slash}GPIO_OUT-Pad62)*%
X156254000Y-98465000D03*
%TO.P,U6,63,VSS*%
%TO.N,GND*%
X155754000Y-98465000D03*
%TO.P,U6,64,VDD*%
%TO.N,+3V3*%
X155254000Y-98465000D03*
%TD*%
D27*
%TO.P,C8,1*%
%TO.N,Net-(C6-Pad1)*%
X147000000Y-114300000D03*
%TO.P,C8,2*%
%TO.N,GND*%
X145100000Y-114300000D03*
%TD*%
D34*
%TO.P,D1,1,A1*%
%TO.N,GND*%
X150876000Y-83938000D03*
%TO.P,D1,2,A2*%
%TO.N,/V_{BAT}*%
X150876000Y-79638000D03*
%TD*%
D35*
%TO.P,C4,1*%
%TO.N,+3V3*%
X146799000Y-100584000D03*
%TO.P,C4,2*%
%TO.N,GND*%
X148349000Y-100584000D03*
%TD*%
D36*
%TO.P,J3,1,VBUS*%
%TO.N,Net-(J3-VBUS)*%
X173228000Y-80010000D03*
D37*
%TO.P,J3,2,D-*%
%TO.N,/USB_D-*%
X175728000Y-80010000D03*
%TO.P,J3,3,D+*%
%TO.N,/USB_D+*%
X175728000Y-76810000D03*
%TO.P,J3,4,GND*%
%TO.N,GND*%
X173228000Y-76810000D03*
D38*
%TO.P,J3,5,Shield*%
X180498000Y-77300000D03*
X168458000Y-77300000D03*
%TD*%
D39*
%TO.P,SW1,1,1*%
%TO.N,GND*%
X168184000Y-131042000D03*
%TO.P,SW1,2,2*%
%TO.N,Net-(C40-Pad1)*%
X168184000Y-121942000D03*
%TO.P,SW1,3,3*%
%TO.N,GND*%
X172684000Y-131042000D03*
%TO.P,SW1,4,4*%
%TO.N,Net-(C40-Pad1)*%
X172684000Y-121942000D03*
%TD*%
D40*
%TO.P,Q9,1,G*%
%TO.N,/LED2_RED*%
X153240500Y-125669000D03*
%TO.P,Q9,2,S*%
%TO.N,+3V3*%
X153240500Y-127569000D03*
%TO.P,Q9,3,D*%
%TO.N,Net-(Q9-D)*%
X155115500Y-126619000D03*
%TD*%
D35*
%TO.P,C2,1*%
%TO.N,Net-(U3-VOUT)*%
X154647600Y-90449400D03*
%TO.P,C2,2*%
%TO.N,GND*%
X156197600Y-90449400D03*
%TD*%
D41*
%TO.P,D4,1,KA*%
%TO.N,Net-(D4-KA)*%
X159128000Y-129540000D03*
%TO.P,D4,2,AK*%
%TO.N,Net-(D4-AK)*%
X161928000Y-129540000D03*
%TD*%
D42*
%TO.P,C3,1*%
%TO.N,GND*%
X146304000Y-96725000D03*
%TO.P,C3,2*%
%TO.N,/V_{BAT}*%
X146304000Y-93775000D03*
%TD*%
D43*
%TO.P,C5,1*%
%TO.N,/Power Supply/V_{BAT_MON}*%
X136570323Y-104648000D03*
D44*
%TO.P,C5,2*%
%TO.N,GND*%
X141570323Y-104648000D03*
%TD*%
D26*
%TO.P,U8,1,CB*%
%TO.N,Net-(U8-CB)*%
X139888000Y-112654500D03*
%TO.P,U8,2,GND*%
%TO.N,GND*%
X138938000Y-112654500D03*
%TO.P,U8,3,FB*%
%TO.N,Net-(U8-FB)*%
X137988000Y-112654500D03*
%TO.P,U8,4,EN*%
%TO.N,Net-(U8-EN)*%
X137988000Y-114929500D03*
%TO.P,U8,5,VIN*%
%TO.N,/Power Supply/V_{BAT_MON}*%
X138938000Y-114929500D03*
%TO.P,U8,6,SW*%
%TO.N,Net-(U8-SW)*%
X139888000Y-114929500D03*
%TD*%
D45*
%TO.P,J5,1,Pin_1*%
%TO.N,unconnected-(J5-Pin_1-Pad1)*%
X162560000Y-117365000D03*
%TO.P,J5,2,Pin_2*%
%TO.N,unconnected-(J5-Pin_2-Pad2)*%
X162560000Y-121395000D03*
%TO.P,J5,3,Pin_3*%
%TO.N,+3V3*%
X161290000Y-117365000D03*
%TO.P,J5,4,Pin_4*%
%TO.N,/T_SWDIO*%
X161290000Y-121395000D03*
%TO.P,J5,5,Pin_5*%
%TO.N,GND*%
X160020000Y-117365000D03*
%TO.P,J5,6,Pin_6*%
%TO.N,/T_SWCLK*%
X160020000Y-121395000D03*
%TO.P,J5,7,Pin_7*%
%TO.N,GND*%
X158750000Y-117365000D03*
%TO.P,J5,8,Pin_8*%
%TO.N,unconnected-(J5-Pin_8-Pad8)*%
X158750000Y-121395000D03*
%TO.P,J5,9,Pin_9*%
%TO.N,unconnected-(J5-Pin_9-Pad9)*%
X157480000Y-117365000D03*
%TO.P,J5,10,Pin_10*%
%TO.N,unconnected-(J5-Pin_10-Pad10)*%
X157480000Y-121395000D03*
%TO.P,J5,11,Pin_11*%
%TO.N,unconnected-(J5-Pin_11-Pad11)*%
X156210000Y-117365000D03*
%TO.P,J5,12,Pin_12*%
%TO.N,/~{T_NRST}*%
X156210000Y-121395000D03*
%TO.P,J5,13,Pin_13*%
%TO.N,/T_VCP_RX*%
X154940000Y-117365000D03*
%TO.P,J5,14,Pin_14*%
%TO.N,/T_VCP_TX*%
X154940000Y-121395000D03*
%TD*%
D46*
%TO.P,D5,1,KA*%
%TO.N,Net-(D5-KA)*%
X134620000Y-123066000D03*
%TO.P,D5,2,AK*%
%TO.N,GND*%
X134620000Y-120266000D03*
%TD*%
D47*
%TO.P,L2,1,1*%
%TO.N,Net-(U8-SW)*%
X142367000Y-118872000D03*
%TO.P,L2,2,2*%
%TO.N,Net-(C6-Pad1)*%
X148209000Y-118872000D03*
%TD*%
D48*
%TO.P,U3,1,SW*%
%TO.N,Net-(U3-SW)*%
X156585500Y-93914000D03*
%TO.P,U3,2,GND*%
%TO.N,GND*%
X156585500Y-92964000D03*
%TO.P,U3,3,NC*%
X156585500Y-92014000D03*
%TO.P,U3,4,VOUT*%
%TO.N,Net-(U3-VOUT)*%
X154310500Y-92014000D03*
%TO.P,U3,5,NC*%
%TO.N,GND*%
X154310500Y-93914000D03*
%TD*%
D49*
%TO.P,R6,1*%
%TO.N,Net-(U8-EN)*%
X136461000Y-115062000D03*
%TO.P,R6,2*%
%TO.N,/Power Supply/V_{BAT_MON}*%
X134811000Y-115062000D03*
%TD*%
D23*
%TO.P,R1,1*%
%TO.N,+3V3*%
X139637000Y-88265000D03*
%TO.P,R1,2*%
%TO.N,/FDCAN_STBY*%
X141287000Y-88265000D03*
%TD*%
D50*
%TO.P,L1,1,1*%
%TO.N,+3V3*%
X159512000Y-91360000D03*
%TO.P,L1,2,2*%
%TO.N,Net-(U3-SW)*%
X159512000Y-94060000D03*
%TD*%
D20*
%TO.P,R10,1*%
%TO.N,Net-(D3-AK)*%
X148336000Y-129563500D03*
%TO.P,R10,2*%
%TO.N,Net-(Q6-D)*%
X148336000Y-127738500D03*
%TD*%
D30*
%TO.P,R3,1*%
%TO.N,+3V3*%
X145050000Y-109474000D03*
%TO.P,R3,2*%
%TO.N,Net-(C6-Pad1)*%
X147050000Y-109474000D03*
%TD*%
D39*
%TO.P,SW2,1,1*%
%TO.N,+3V3*%
X175296000Y-131042000D03*
%TO.P,SW2,2,2*%
%TO.N,Net-(C39-Pad2)*%
X175296000Y-121942000D03*
%TO.P,SW2,3,3*%
%TO.N,+3V3*%
X179796000Y-131042000D03*
%TO.P,SW2,4,4*%
%TO.N,Net-(C39-Pad2)*%
X179796000Y-121942000D03*
%TD*%
D51*
%TO.P,U4,1,HEAT/EMC_GND*%
%TO.N,GND*%
X171892000Y-92576000D03*
%TO.P,U4,2,MOSI-DUE*%
%TO.N,/MOSI_DUE*%
X171892000Y-93576000D03*
%TO.P,U4,3,~{CSB-DUE}*%
%TO.N,/~{CS_DUE}*%
X171892000Y-94576000D03*
%TO.P,U4,4,SCK-DUE*%
%TO.N,/SCK_DUE*%
X171892000Y-95576000D03*
%TO.P,U4,5,MISO-DUE*%
%TO.N,/MISO_DUE*%
X171892000Y-96576000D03*
%TO.P,U4,6,V3p3D-DUE*%
%TO.N,+3V3*%
X171892000Y-97576000D03*
%TO.P,U4,7,V3p3A-DUE*%
X171892000Y-98576000D03*
%TO.P,U4,8,GNDD-DUE*%
%TO.N,GND*%
X171892000Y-99576000D03*
%TO.P,U4,9,VDDD-DUE*%
%TO.N,Net-(U4-VDDD-DUE)*%
X171892000Y-100576000D03*
%TO.P,U4,10,GNDA/EMC_GND-UNO*%
%TO.N,GND*%
X171892000Y-101576000D03*
%TO.P,U4,11,VDDA-UNO*%
%TO.N,Net-(U4-VDDA-UNO)*%
X171892000Y-102576000D03*
%TO.P,U4,12,RSVD-UNO*%
%TO.N,GND*%
X171892000Y-103576000D03*
%TO.P,U4,13,TIOP-UNO*%
X171892000Y-104576000D03*
%TO.P,U4,14,~{TI/EXTRESN-UNO}*%
%TO.N,/~{RESET_UNO}*%
X171892000Y-105576000D03*
%TO.P,U4,15,TION-UNO*%
%TO.N,GND*%
X171892000Y-106576000D03*
%TO.P,U4,16,HEAT/EMC_GND*%
X171892000Y-107576000D03*
%TO.P,U4,17,HEAT/EMC_GND*%
X182692000Y-107576000D03*
%TO.P,U4,18,MOSI-UNO*%
%TO.N,/MOSI_UNO*%
X182692000Y-106576000D03*
%TO.P,U4,19,~{CSB-UNO}*%
%TO.N,/~{CS_UNO}*%
X182692000Y-105576000D03*
%TO.P,U4,20,SCK-UNO*%
%TO.N,/SCK_UNO*%
X182692000Y-104576000D03*
%TO.P,U4,21,MISO-UNO*%
%TO.N,/MISO_UNO*%
X182692000Y-103576000D03*
%TO.P,U4,22,V3p3D-UNO*%
%TO.N,+3V3*%
X182692000Y-102576000D03*
%TO.P,U4,23,V3p3A-UNO*%
X182692000Y-101576000D03*
%TO.P,U4,24,GNDD-UNO*%
%TO.N,GND*%
X182692000Y-100576000D03*
%TO.P,U4,25,VDDD-UNO*%
%TO.N,Net-(U4-VDDD-UNO)*%
X182692000Y-99576000D03*
%TO.P,U4,26,GNDA/EMC_GND-DUE*%
%TO.N,GND*%
X182692000Y-98576000D03*
%TO.P,U4,27,VDDA-DUE*%
%TO.N,Net-(U4-VDDA-DUE)*%
X182692000Y-97576000D03*
%TO.P,U4,28,RSVD-DUE*%
%TO.N,GND*%
X182692000Y-96576000D03*
%TO.P,U4,29,TIOP-DUE*%
X182692000Y-95576000D03*
%TO.P,U4,30,~{TI/EXTRESN-DUE}*%
%TO.N,/~{RESET_DUE}*%
X182692000Y-94576000D03*
%TO.P,U4,31,TION-DUE*%
%TO.N,GND*%
X182692000Y-93576000D03*
%TO.P,U4,32,HEAT/EMC_GND*%
X182692000Y-92576000D03*
%TD*%
D20*
%TO.P,R9,1*%
%TO.N,Net-(D3-KA)*%
X142240000Y-129540000D03*
%TO.P,R9,2*%
%TO.N,Net-(Q7-D)*%
X142240000Y-127715000D03*
%TD*%
D15*
%TO.P,Q7,1,G*%
%TO.N,/LED1_RED*%
X141290000Y-125905500D03*
%TO.P,Q7,2,S*%
%TO.N,+3V3*%
X143190000Y-125905500D03*
%TO.P,Q7,3,D*%
%TO.N,Net-(Q7-D)*%
X142240000Y-124030500D03*
%TD*%
D23*
%TO.P,R4,1*%
%TO.N,Net-(U8-FB)*%
X141415000Y-110998000D03*
%TO.P,R4,2*%
%TO.N,Net-(C6-Pad1)*%
X143065000Y-110998000D03*
%TD*%
D52*
%TO.N,+3V3*%
X178435000Y-131064000D03*
X159131509Y-125717029D03*
X169895020Y-99060000D03*
X161290000Y-119400900D03*
X145669000Y-102235000D03*
X170815000Y-123444000D03*
X144272000Y-125730000D03*
X145669000Y-100584000D03*
X184658000Y-101600000D03*
X161671000Y-90170000D03*
X166624000Y-125476000D03*
X184658000Y-103124000D03*
X155524200Y-100304600D03*
X160959800Y-107873800D03*
X162814000Y-100634800D03*
X176657000Y-131064000D03*
X152908000Y-111252000D03*
X161671000Y-89154000D03*
X167670000Y-118900000D03*
X155092400Y-107619800D03*
X177800000Y-123444000D03*
X138016480Y-127762000D03*
X143383000Y-109728000D03*
X150368000Y-124968000D03*
X138430000Y-82423000D03*
X138500000Y-89450000D03*
X143383000Y-108839000D03*
X182245000Y-120142000D03*
X169926000Y-97536000D03*
X162483800Y-107899200D03*
X153289000Y-128651000D03*
%TO.N,GND*%
X143129000Y-84836000D03*
X143891000Y-112268000D03*
X173990000Y-101092000D03*
X162788600Y-106400600D03*
X168910000Y-84709000D03*
X145288000Y-124206000D03*
X173736000Y-92583000D03*
X180975000Y-92583000D03*
X170815000Y-124968000D03*
X175420000Y-108990000D03*
X138938000Y-110998000D03*
X173294877Y-115473980D03*
X162788600Y-104876600D03*
X168148000Y-115473980D03*
X151130000Y-126492000D03*
X174000900Y-107548920D03*
X180594000Y-100076000D03*
X158115000Y-92964000D03*
X180594000Y-96012000D03*
X169545000Y-131064000D03*
X178880000Y-113820000D03*
X133731000Y-116586000D03*
X171323000Y-131064000D03*
X166370000Y-126492000D03*
X143891000Y-114300000D03*
X175420000Y-110998000D03*
X171958000Y-115473980D03*
X170688000Y-120523000D03*
X149606000Y-100584000D03*
X151358600Y-107619800D03*
X160985200Y-111655772D03*
X166598600Y-100330000D03*
X182190000Y-115470000D03*
X180594000Y-98044000D03*
X155244800Y-92964000D03*
X182200000Y-111570000D03*
X152908000Y-115951000D03*
X159091887Y-126726674D03*
X141224000Y-81407000D03*
X162509200Y-111709200D03*
X136652000Y-120142000D03*
X173990000Y-97282000D03*
X177800000Y-124968000D03*
X149504753Y-105892953D03*
X151384000Y-99314000D03*
X180594000Y-102362000D03*
X173990000Y-98806000D03*
X166573200Y-99085400D03*
X178860000Y-118950000D03*
X174117000Y-103505000D03*
X180594000Y-107569000D03*
X146304000Y-98044000D03*
X155448000Y-96520000D03*
X159370000Y-119354600D03*
X158267400Y-106654600D03*
%TO.N,+5V*%
X146939000Y-84328000D03*
X147955000Y-88392000D03*
%TO.N,Net-(U10-VDD)*%
X167246210Y-111747210D03*
%TO.N,/V_{BAT}*%
X151474497Y-76744503D03*
X150876000Y-77343000D03*
X146304000Y-92456000D03*
X146304000Y-91567000D03*
%TO.N,/Power Supply/V_{BAT_MON}*%
X133731000Y-115062000D03*
X139192000Y-98044000D03*
X138938000Y-116586000D03*
X139192000Y-98890403D03*
%TO.N,Net-(D3-KA)*%
X140208000Y-129540000D03*
%TO.N,Net-(D3-AK)*%
X146939000Y-130937000D03*
%TO.N,Net-(D4-KA)*%
X155956000Y-129667000D03*
%TO.N,Net-(D4-AK)*%
X164846000Y-129667000D03*
%TO.N,/T_SWDIO*%
X152527000Y-109601000D03*
X159901910Y-124214910D03*
X158496000Y-104521000D03*
%TO.N,/T_SWCLK*%
X157061502Y-105118502D03*
X150718020Y-108966000D03*
%TO.N,/~{T_NRST}*%
X156210000Y-119380000D03*
X156209486Y-123444000D03*
X155591490Y-102599510D03*
X155194000Y-114935000D03*
%TO.N,/T_VCP_RX*%
X153797000Y-117348000D03*
X159132678Y-112826193D03*
%TO.N,/T_VCP_TX*%
X154051000Y-121412000D03*
X158115000Y-112744520D03*
%TO.N,/SCK_TDK*%
X170650000Y-110850000D03*
%TO.N,/~{CS_TDK}*%
X170612037Y-108763037D03*
%TO.N,/TDK_PWR_EN*%
X169291353Y-107188353D03*
%TO.N,/LED1_RED*%
X154813000Y-104013000D03*
X140284200Y-123571000D03*
%TO.N,/LED1_GRN*%
X151511000Y-103275900D03*
X146558000Y-123571000D03*
%TO.N,/LED2_RED*%
X149733000Y-107823000D03*
X152654000Y-123952000D03*
%TO.N,/LED2_GRN*%
X151511000Y-104902000D03*
X165735000Y-131064000D03*
%TO.N,/MOSI_TDK*%
X169174008Y-110606992D03*
%TO.N,/MISO_TDK*%
X164320000Y-113639600D03*
%TO.N,/INT_TDK*%
X155569004Y-105652177D03*
%TO.N,/FSYNC_TDK*%
X168325800Y-108387380D03*
%TO.N,/MOSI_DUE*%
X164846000Y-93091000D03*
X169350000Y-92552020D03*
%TO.N,/~{CS_DUE}*%
X169775000Y-94025000D03*
X165100000Y-94615000D03*
%TO.N,/SCK_DUE*%
X169164000Y-95377000D03*
X163068000Y-95631000D03*
%TO.N,/MISO_DUE*%
X161598590Y-96066590D03*
X168021000Y-96743520D03*
%TO.N,/~{RESET_UNO}*%
X169849300Y-105537000D03*
X154482300Y-109855000D03*
%TO.N,/MOSI_UNO*%
X168029910Y-103259910D03*
X175514000Y-102108000D03*
%TO.N,/~{CS_UNO}*%
X180594000Y-105537000D03*
X166751000Y-108712000D03*
%TO.N,/SCK_UNO*%
X177673000Y-104140000D03*
X168329590Y-104702590D03*
%TO.N,/MISO_UNO*%
X179324000Y-103632000D03*
X167250090Y-105782090D03*
%TO.N,/~{RESET_DUE}*%
X168550000Y-101900000D03*
X174498000Y-95504000D03*
%TO.N,/~{CS_TDK_ST}*%
X176403000Y-116967000D03*
X164456090Y-115345980D03*
%TO.N,/MOSI_TDK_ST*%
X166770000Y-117346480D03*
X166770000Y-114800000D03*
%TO.N,Net-(U3-VOUT)*%
X153035000Y-91948000D03*
%TO.N,Net-(U4-VDDA-DUE)*%
X184658000Y-98044000D03*
%TO.N,Net-(U6-PB8{slash}BOOT0)*%
X157226000Y-100330000D03*
%TO.N,Net-(U4-VDDD-UNO)*%
X184658000Y-100076000D03*
%TO.N,Net-(U4-VDDD-DUE)*%
X170053000Y-100965000D03*
%TO.N,Net-(U4-VDDA-UNO)*%
X170053000Y-102997000D03*
%TO.N,Net-(U6-PA8{slash}ADC5_IN1)*%
X163322000Y-103378000D03*
%TO.N,Net-(U6-VREF+{slash}VREFBUF_OUT)*%
X157937200Y-107873800D03*
X159461200Y-107873800D03*
%TO.N,Net-(C39-Pad2)*%
X174117000Y-124968000D03*
%TO.N,Net-(C40-Pad1)*%
X166878000Y-121920000D03*
%TO.N,Net-(U8-FB)*%
X140462000Y-110998000D03*
%TO.N,Net-(D5-KA)*%
X137414000Y-123190000D03*
%TD*%
D53*
%TO.N,+3V3*%
X184110000Y-102576000D02*
X182692000Y-102576000D01*
X169895020Y-99060000D02*
X170379020Y-98576000D01*
D54*
X149938500Y-125905500D02*
X150368000Y-125476000D01*
X161671000Y-90551000D02*
X160862000Y-91360000D01*
X149286000Y-125905500D02*
X149938500Y-125905500D01*
D53*
X161254000Y-109815000D02*
X161254000Y-108168000D01*
D54*
X144096500Y-125905500D02*
X144272000Y-125730000D01*
D53*
X170379020Y-98576000D02*
X171892000Y-98576000D01*
X171852000Y-97536000D02*
X171892000Y-97576000D01*
X146799000Y-100584000D02*
X145669000Y-100584000D01*
D54*
X153240500Y-127569000D02*
X153240500Y-128602500D01*
X153240500Y-128602500D02*
X153289000Y-128651000D01*
D53*
X139919000Y-82423000D02*
X138430000Y-82423000D01*
D55*
X178457000Y-131042000D02*
X178435000Y-131064000D01*
D54*
X161671000Y-89154000D02*
X161671000Y-90170000D01*
D53*
X169926000Y-97536000D02*
X171852000Y-97536000D01*
X155092400Y-107619800D02*
X154822200Y-107890000D01*
D54*
X150368000Y-125476000D02*
X150368000Y-124968000D01*
X164922480Y-125696980D02*
X164894500Y-125669000D01*
D53*
X138735000Y-88265000D02*
X139637000Y-88265000D01*
D56*
X143383000Y-108839000D02*
X143383000Y-109728000D01*
D54*
X167670000Y-118900000D02*
X168247000Y-118900000D01*
X170065000Y-118855000D02*
X171335000Y-118855000D01*
X160862000Y-91360000D02*
X159512000Y-91360000D01*
D53*
X182692000Y-101576000D02*
X184634000Y-101576000D01*
D54*
X168292000Y-118855000D02*
X168795000Y-118855000D01*
D53*
X162754000Y-108169400D02*
X162483800Y-107899200D01*
X145712000Y-102278000D02*
X145669000Y-102235000D01*
D56*
X161290000Y-117365000D02*
X161290000Y-119400900D01*
D53*
X138500000Y-88500000D02*
X138735000Y-88265000D01*
D55*
X175296000Y-131042000D02*
X176635000Y-131042000D01*
D53*
X184658000Y-103124000D02*
X184110000Y-102576000D01*
D54*
X168795000Y-118855000D02*
X170065000Y-118855000D01*
D53*
X146799000Y-102011000D02*
X147066000Y-102278000D01*
X146007000Y-104478000D02*
X145669000Y-104140000D01*
X147066000Y-102278000D02*
X145712000Y-102278000D01*
X138500000Y-89450000D02*
X138500000Y-88500000D01*
X145669000Y-104140000D02*
X145669000Y-102235000D01*
X152000000Y-111525000D02*
X152000000Y-112602500D01*
X163058800Y-100390000D02*
X162814000Y-100634800D01*
X146799000Y-100584000D02*
X146799000Y-102011000D01*
X147066000Y-104478000D02*
X146007000Y-104478000D01*
X155254000Y-98465000D02*
X155254000Y-100034400D01*
D54*
X161671000Y-90170000D02*
X161671000Y-90551000D01*
D53*
X162754000Y-109815000D02*
X162754000Y-108169400D01*
X184634000Y-101576000D02*
X184658000Y-101600000D01*
D55*
X176635000Y-131042000D02*
X176657000Y-131064000D01*
D54*
X168247000Y-118900000D02*
X168292000Y-118855000D01*
D53*
X152273000Y-111252000D02*
X152000000Y-111525000D01*
D55*
X179796000Y-131042000D02*
X178457000Y-131042000D01*
D53*
X161254000Y-108168000D02*
X160959800Y-107873800D01*
X152908000Y-111252000D02*
X152273000Y-111252000D01*
D56*
X143637000Y-109474000D02*
X143383000Y-109728000D01*
D54*
X143190000Y-125905500D02*
X144096500Y-125905500D01*
D53*
X154822200Y-107890000D02*
X153329000Y-107890000D01*
D54*
X160462000Y-89154000D02*
X161671000Y-89154000D01*
D56*
X145050000Y-109474000D02*
X143637000Y-109474000D01*
D54*
X166403020Y-125696980D02*
X164922480Y-125696980D01*
D53*
X155254000Y-100034400D02*
X155524200Y-100304600D01*
D54*
X166624000Y-125476000D02*
X166403020Y-125696980D01*
D53*
X164679000Y-100390000D02*
X163058800Y-100390000D01*
%TO.N,GND*%
X155754000Y-96826000D02*
X155448000Y-96520000D01*
X162509200Y-111709200D02*
X162254000Y-111454000D01*
X174000900Y-106944900D02*
X173632000Y-106576000D01*
D57*
X157178500Y-75910500D02*
X157178500Y-84110500D01*
D53*
X173632000Y-106576000D02*
X171892000Y-106576000D01*
D55*
X168184000Y-131042000D02*
X169523000Y-131042000D01*
D54*
X157276800Y-89230200D02*
X157353000Y-89154000D01*
D53*
X148349000Y-100584000D02*
X149606000Y-100584000D01*
D54*
X156197600Y-90449400D02*
X156197600Y-91097400D01*
D53*
X180601000Y-107576000D02*
X180594000Y-107569000D01*
X181229000Y-95576000D02*
X182692000Y-95576000D01*
D54*
X156197600Y-91097400D02*
X156585500Y-91485300D01*
D53*
X174000900Y-107548920D02*
X174000900Y-106944900D01*
X153329000Y-100390000D02*
X152460000Y-100390000D01*
D56*
X158978600Y-119354600D02*
X158750000Y-119126000D01*
D54*
X157353000Y-89154000D02*
X158562000Y-89154000D01*
D53*
X180594000Y-98044000D02*
X181126000Y-98576000D01*
X181126000Y-98576000D02*
X182692000Y-98576000D01*
X174117000Y-103505000D02*
X174117000Y-104140000D01*
D57*
X154686000Y-86614000D02*
X154686000Y-86603000D01*
D53*
X160985200Y-111655772D02*
X160254000Y-110924572D01*
X180594000Y-96012000D02*
X180793000Y-96012000D01*
X134811000Y-116586000D02*
X133731000Y-116586000D01*
X148336000Y-104140000D02*
X148336000Y-100597000D01*
X173990000Y-99187000D02*
X173990000Y-98806000D01*
X168910000Y-85984500D02*
X168910000Y-84709000D01*
X171892000Y-99576000D02*
X173601000Y-99576000D01*
X180793000Y-96012000D02*
X181229000Y-95576000D01*
D54*
X177685000Y-113805000D02*
X178865000Y-113805000D01*
D53*
X180975000Y-93218000D02*
X180975000Y-92583000D01*
D54*
X156585500Y-92964000D02*
X155244800Y-92964000D01*
D57*
X150876000Y-83938000D02*
X150876000Y-86614000D01*
D55*
X171345000Y-131042000D02*
X171323000Y-131064000D01*
D54*
X156585500Y-92964000D02*
X158115000Y-92964000D01*
D53*
X181094000Y-100576000D02*
X180594000Y-100076000D01*
X174117000Y-103505000D02*
X174046000Y-103576000D01*
D54*
X157276800Y-90043000D02*
X157276800Y-89230200D01*
D53*
X155754000Y-98465000D02*
X155754000Y-96826000D01*
X182692000Y-93576000D02*
X181333000Y-93576000D01*
D54*
X156585500Y-91485300D02*
X156585500Y-92014000D01*
D53*
X166598600Y-100330000D02*
X166038600Y-100890000D01*
X181085000Y-115470000D02*
X182190000Y-115470000D01*
X143129000Y-84836000D02*
X143256000Y-84963000D01*
X182692000Y-107576000D02*
X180601000Y-107576000D01*
X174117000Y-104140000D02*
X173681000Y-104576000D01*
X182692000Y-100576000D02*
X181094000Y-100576000D01*
D54*
X154310500Y-93339500D02*
X154310500Y-93914000D01*
X178855000Y-118955000D02*
X178860000Y-118950000D01*
D56*
X159370000Y-119354600D02*
X158978600Y-119354600D01*
X158750000Y-119126000D02*
X158750000Y-117365000D01*
D54*
X146304000Y-96725000D02*
X146304000Y-98044000D01*
D53*
X173601000Y-99576000D02*
X173990000Y-99187000D01*
X143256000Y-84963000D02*
X145069000Y-84963000D01*
D56*
X138938000Y-112654500D02*
X138938000Y-110998000D01*
D57*
X150876000Y-86614000D02*
X154686000Y-86614000D01*
D53*
X181095000Y-111570000D02*
X182200000Y-111570000D01*
X173973820Y-107576000D02*
X171892000Y-107576000D01*
D54*
X136528000Y-120266000D02*
X136652000Y-120142000D01*
D53*
X173506000Y-101576000D02*
X173990000Y-101092000D01*
X181158000Y-96576000D02*
X182692000Y-96576000D01*
D55*
X169523000Y-131042000D02*
X169545000Y-131064000D01*
D54*
X154686000Y-92964000D02*
X154310500Y-93339500D01*
D56*
X159835400Y-119354600D02*
X160020000Y-119170000D01*
D53*
X149606000Y-105791706D02*
X149504753Y-105892953D01*
X181333000Y-93576000D02*
X180975000Y-93218000D01*
X180594000Y-96012000D02*
X181158000Y-96576000D01*
X173681000Y-104576000D02*
X171892000Y-104576000D01*
X149606000Y-104478000D02*
X148674000Y-104478000D01*
X152460000Y-100390000D02*
X151384000Y-99314000D01*
X152950000Y-115909000D02*
X152908000Y-115951000D01*
X162254000Y-111454000D02*
X162254000Y-109815000D01*
D54*
X177685000Y-118955000D02*
X178855000Y-118955000D01*
D53*
X153329000Y-107390000D02*
X151588400Y-107390000D01*
D54*
X178865000Y-113805000D02*
X178880000Y-113820000D01*
D53*
X148674000Y-104478000D02*
X148336000Y-104140000D01*
X174000900Y-107548920D02*
X173973820Y-107576000D01*
D54*
X134620000Y-120266000D02*
X136528000Y-120266000D01*
D53*
X182692000Y-92576000D02*
X180982000Y-92576000D01*
D54*
X156585500Y-92014000D02*
X156585500Y-92964000D01*
D55*
X172684000Y-131042000D02*
X171345000Y-131042000D01*
D53*
X148336000Y-100597000D02*
X148349000Y-100584000D01*
X174046000Y-103576000D02*
X171892000Y-103576000D01*
X173729000Y-92576000D02*
X173736000Y-92583000D01*
X171892000Y-101576000D02*
X173506000Y-101576000D01*
X160254000Y-110924572D02*
X160254000Y-109815000D01*
X149606000Y-104478000D02*
X149606000Y-105791706D01*
D56*
X145100000Y-112268000D02*
X143891000Y-112268000D01*
D54*
X155244800Y-92964000D02*
X154686000Y-92964000D01*
D57*
X154686000Y-86603000D02*
X157178500Y-84110500D01*
D53*
X171892000Y-92576000D02*
X173729000Y-92576000D01*
X166038600Y-100890000D02*
X164679000Y-100890000D01*
X151588400Y-107390000D02*
X151358600Y-107619800D01*
D56*
X160020000Y-119170000D02*
X160020000Y-117365000D01*
D53*
X180982000Y-92576000D02*
X180975000Y-92583000D01*
D56*
X159370000Y-119354600D02*
X159835400Y-119354600D01*
D54*
X156870400Y-90449400D02*
X157276800Y-90043000D01*
X156197600Y-90449400D02*
X156870400Y-90449400D01*
D53*
X152950000Y-114477500D02*
X152950000Y-115909000D01*
D56*
X145100000Y-114300000D02*
X143891000Y-114300000D01*
D54*
%TO.N,Net-(U3-SW)*%
X159366000Y-93914000D02*
X159512000Y-94060000D01*
X156585500Y-93914000D02*
X159366000Y-93914000D01*
%TO.N,+5V*%
X149876000Y-88773000D02*
X148336000Y-88773000D01*
X148336000Y-88773000D02*
X147955000Y-88392000D01*
D53*
X146939000Y-84074000D02*
X146939000Y-84328000D01*
X145069000Y-83693000D02*
X146558000Y-83693000D01*
X146558000Y-83693000D02*
X146939000Y-84074000D01*
%TO.N,Net-(U10-VDD)*%
X168134000Y-113905000D02*
X167246210Y-113017210D01*
X167246210Y-113017210D02*
X167246210Y-111747210D01*
X168795000Y-113905000D02*
X168134000Y-113905000D01*
D57*
%TO.N,/V_{BAT}*%
X150876000Y-77343000D02*
X154178000Y-74041000D01*
X146304000Y-93775000D02*
X146304000Y-92456000D01*
X143764000Y-89916000D02*
X139700000Y-89916000D01*
X162178500Y-75910500D02*
X162178500Y-84110500D01*
X139192000Y-90424000D02*
X139192000Y-91780000D01*
X145415000Y-91567000D02*
X143764000Y-89916000D01*
X139700000Y-89916000D02*
X139192000Y-90424000D01*
X150876000Y-79638000D02*
X150876000Y-77343000D01*
X154178000Y-74041000D02*
X160309000Y-74041000D01*
X146304000Y-91567000D02*
X145415000Y-91567000D01*
X160309000Y-74041000D02*
X162178500Y-75910500D01*
D53*
%TO.N,/Power Supply/V_{BAT_MON}*%
X134811000Y-115062000D02*
X133731000Y-115062000D01*
D57*
X139192000Y-96180000D02*
X139192000Y-98044000D01*
D56*
X138938000Y-114929500D02*
X138938000Y-116586000D01*
D57*
X139192000Y-98044000D02*
X139192000Y-98890403D01*
D54*
%TO.N,Net-(D3-KA)*%
X137007620Y-117449620D02*
X133470291Y-117449620D01*
X139446000Y-129032000D02*
X139446000Y-119888000D01*
X139446000Y-119888000D02*
X137007620Y-117449620D01*
X130627120Y-114606449D02*
X130627120Y-100007880D01*
X140208000Y-129540000D02*
X142240000Y-129540000D01*
X139954000Y-129540000D02*
X139446000Y-129032000D01*
X130627120Y-100007880D02*
X134242000Y-96393000D01*
X133470291Y-117449620D02*
X130627120Y-114606449D01*
X140208000Y-129540000D02*
X139954000Y-129540000D01*
%TO.N,Net-(D3-AK)*%
X133230411Y-118028740D02*
X130048000Y-114846329D01*
X130429000Y-96393000D02*
X131442000Y-96393000D01*
X140462000Y-130937000D02*
X138811000Y-129286000D01*
X130048000Y-96774000D02*
X130429000Y-96393000D01*
X148336000Y-130302000D02*
X148336000Y-129563500D01*
X138811000Y-120072000D02*
X136767740Y-118028740D01*
X138811000Y-129286000D02*
X138811000Y-120072000D01*
X130048000Y-114846329D02*
X130048000Y-96774000D01*
X146939000Y-130937000D02*
X147701000Y-130937000D01*
X147701000Y-130937000D02*
X148336000Y-130302000D01*
X146939000Y-130937000D02*
X140462000Y-130937000D01*
X136767740Y-118028740D02*
X133230411Y-118028740D01*
%TO.N,Net-(D4-KA)*%
X157607000Y-127531500D02*
X157607000Y-129540000D01*
X158115000Y-129540000D02*
X159128000Y-129540000D01*
X156083000Y-129540000D02*
X158115000Y-129540000D01*
X155956000Y-129667000D02*
X156083000Y-129540000D01*
%TO.N,Net-(D4-AK)*%
X160909000Y-129540000D02*
X161928000Y-129540000D01*
X160655000Y-129286000D02*
X160909000Y-129540000D01*
X161928000Y-129540000D02*
X164719000Y-129540000D01*
X164719000Y-129540000D02*
X164846000Y-129667000D01*
X160655000Y-127531500D02*
X160655000Y-129286000D01*
D53*
%TO.N,/T_SWDIO*%
X161290000Y-122826820D02*
X161290000Y-121395000D01*
X158496000Y-103890394D02*
X162754000Y-99632394D01*
X158496000Y-104521000D02*
X158496000Y-103890394D01*
X159901910Y-124214910D02*
X161290000Y-122826820D01*
X162754000Y-99632394D02*
X162754000Y-98465000D01*
%TO.N,/T_SWCLK*%
X150495000Y-109189020D02*
X150495000Y-120523000D01*
X154432000Y-124460000D02*
X158623000Y-124460000D01*
X158623000Y-124460000D02*
X160020000Y-123063000D01*
X157061502Y-104685498D02*
X162254000Y-99493000D01*
X150495000Y-120523000D02*
X154432000Y-124460000D01*
X150718020Y-108966000D02*
X150495000Y-109189020D01*
X160020000Y-123063000D02*
X160020000Y-121395000D01*
X162254000Y-99493000D02*
X162254000Y-98465000D01*
X157061502Y-105118502D02*
X157061502Y-104685498D01*
D55*
%TO.N,/~{T_NRST}*%
X156209486Y-121395514D02*
X156210000Y-121395000D01*
D53*
X156210000Y-121395000D02*
X156210000Y-119380000D01*
D55*
X156209486Y-123444000D02*
X156209486Y-121395514D01*
D53*
X155083490Y-102599510D02*
X154293000Y-103390000D01*
X154293000Y-103390000D02*
X153329000Y-103390000D01*
X155194000Y-114935000D02*
X155067000Y-114935000D01*
X153900000Y-113768000D02*
X153900000Y-112602500D01*
X155067000Y-114935000D02*
X153900000Y-113768000D01*
X155591490Y-102599510D02*
X155083490Y-102599510D01*
%TO.N,/T_VCP_RX*%
X153797000Y-117348000D02*
X154923000Y-117348000D01*
X154923000Y-117348000D02*
X154940000Y-117365000D01*
X159132678Y-112826193D02*
X159132678Y-111939478D01*
X159132678Y-111939478D02*
X158254000Y-111060800D01*
X158254000Y-111060800D02*
X158254000Y-109815000D01*
%TO.N,/T_VCP_TX*%
X158115000Y-112744520D02*
X157754000Y-112383520D01*
X154068000Y-121395000D02*
X154940000Y-121395000D01*
X154051000Y-121412000D02*
X154068000Y-121395000D01*
X157754000Y-112383520D02*
X157754000Y-109815000D01*
%TO.N,/USB_D-*%
X172011382Y-78662000D02*
X169162000Y-81511382D01*
X175728000Y-80010000D02*
X174380000Y-78662000D01*
X174380000Y-78662000D02*
X172011382Y-78662000D01*
X169162000Y-81511382D02*
X169162000Y-83926474D01*
X169162000Y-83926474D02*
X169860000Y-84624474D01*
X169860000Y-84624474D02*
X169860000Y-85984500D01*
%TO.N,/USB_D+*%
X171802618Y-78158000D02*
X168658000Y-81302618D01*
X168658000Y-83926474D02*
X167960000Y-84624474D01*
X175728000Y-76810000D02*
X174380000Y-78158000D01*
X168658000Y-81302618D02*
X168658000Y-83926474D01*
X167960000Y-84624474D02*
X167960000Y-85984500D01*
X174380000Y-78158000D02*
X171802618Y-78158000D01*
%TO.N,/SCK_TDK*%
X173690000Y-110850000D02*
X175145000Y-112305000D01*
X175145000Y-115201000D02*
X175414000Y-115470000D01*
X175145000Y-113905000D02*
X175145000Y-115201000D01*
X175414000Y-115470000D02*
X179435000Y-115470000D01*
X175145000Y-112305000D02*
X175145000Y-113805000D01*
X170650000Y-110850000D02*
X173690000Y-110850000D01*
%TO.N,/~{CS_TDK}*%
X170629000Y-108780000D02*
X173677000Y-108780000D01*
X175768000Y-109982000D02*
X176415000Y-110629000D01*
X174879000Y-109982000D02*
X175768000Y-109982000D01*
X170612037Y-108763037D02*
X170629000Y-108780000D01*
X176415000Y-110629000D02*
X176415000Y-111580000D01*
X179445000Y-111570000D02*
X176425000Y-111570000D01*
X176415000Y-113805000D02*
X176415000Y-111580000D01*
X176425000Y-111570000D02*
X176415000Y-111580000D01*
X173677000Y-108780000D02*
X174879000Y-109982000D01*
%TO.N,/TDK_PWR_EN*%
X169015000Y-100965000D02*
X168444855Y-100965000D01*
X169321480Y-104878520D02*
X169321480Y-101271480D01*
X168800000Y-106697000D02*
X168800000Y-105400000D01*
X168800000Y-105400000D02*
X169321480Y-104878520D01*
X165519855Y-103890000D02*
X164679000Y-103890000D01*
X169321480Y-101271480D02*
X169015000Y-100965000D01*
X169291353Y-107188353D02*
X168800000Y-106697000D01*
X168444855Y-100965000D02*
X165519855Y-103890000D01*
D54*
%TO.N,/LED1_RED*%
X141290000Y-125905500D02*
X141290000Y-124576800D01*
X141290000Y-124576800D02*
X140284200Y-123571000D01*
D53*
X153329000Y-104390000D02*
X154436000Y-104390000D01*
X154436000Y-104390000D02*
X154813000Y-104013000D01*
D54*
%TO.N,/LED1_GRN*%
X147386000Y-125905500D02*
X147386000Y-124399000D01*
D53*
X152125100Y-103890000D02*
X153329000Y-103890000D01*
X151511000Y-103275900D02*
X152125100Y-103890000D01*
D54*
X147386000Y-124399000D02*
X146558000Y-123571000D01*
%TO.N,/LED2_RED*%
X153240500Y-124538500D02*
X152654000Y-123952000D01*
D53*
X149809200Y-107823000D02*
X152242200Y-105390000D01*
X149733000Y-107823000D02*
X149809200Y-107823000D01*
X152242200Y-105390000D02*
X153329000Y-105390000D01*
D54*
X153240500Y-125669000D02*
X153240500Y-124538500D01*
D53*
%TO.N,/LED2_GRN*%
X165735000Y-129286000D02*
X164894500Y-128445500D01*
X165735000Y-131064000D02*
X165735000Y-129286000D01*
X151929400Y-104890000D02*
X153329000Y-104890000D01*
X151917400Y-104902000D02*
X151929400Y-104890000D01*
X151511000Y-104902000D02*
X151917400Y-104902000D01*
X164894500Y-128445500D02*
X164894500Y-127569000D01*
%TO.N,/MOSI_TDK*%
X169174008Y-110606992D02*
X169174008Y-110627008D01*
X169174008Y-110627008D02*
X169910760Y-111363760D01*
X169910760Y-111363760D02*
X169919548Y-111363760D01*
X172509899Y-111877400D02*
X172522499Y-111890000D01*
X169919548Y-111363760D02*
X170433188Y-111877400D01*
X173875000Y-112545000D02*
X173875000Y-113805000D01*
X173220000Y-111890000D02*
X173875000Y-112545000D01*
X170433188Y-111877400D02*
X172509899Y-111877400D01*
X172522499Y-111890000D02*
X173220000Y-111890000D01*
%TO.N,/MISO_TDK*%
X157787822Y-114162840D02*
X156754000Y-113129018D01*
X164320000Y-113639600D02*
X163796760Y-114162840D01*
X156754000Y-113129018D02*
X156754000Y-109815000D01*
X163796760Y-114162840D02*
X157787822Y-114162840D01*
%TO.N,/INT_TDK*%
X155569004Y-105652177D02*
X155331181Y-105890000D01*
X155331181Y-105890000D02*
X153329000Y-105890000D01*
%TO.N,/FSYNC_TDK*%
X169723486Y-111815880D02*
X169732274Y-111815880D01*
X170276394Y-112360000D02*
X172310000Y-112360000D01*
X168325800Y-110986406D02*
X168837274Y-111497880D01*
X172605000Y-112655000D02*
X172605000Y-113805000D01*
X169732274Y-111815880D02*
X170276394Y-112360000D01*
X172310000Y-112360000D02*
X172605000Y-112655000D01*
X168837274Y-111497880D02*
X169405486Y-111497880D01*
X169405486Y-111497880D02*
X169723486Y-111815880D01*
X168325800Y-108387380D02*
X168325800Y-110986406D01*
%TO.N,/MOSI_DUE*%
X163539654Y-93091000D02*
X164846000Y-93091000D01*
X160254000Y-98465000D02*
X160254000Y-96376654D01*
X169350000Y-92552020D02*
X170373980Y-93576000D01*
X170373980Y-93576000D02*
X171892000Y-93576000D01*
X160254000Y-96376654D02*
X163539654Y-93091000D01*
%TO.N,/~{CS_DUE}*%
X170326000Y-94576000D02*
X171892000Y-94576000D01*
X162568788Y-96774000D02*
X161754000Y-97588788D01*
X165100000Y-95250000D02*
X163576000Y-96774000D01*
X161754000Y-97588788D02*
X161754000Y-98465000D01*
X163576000Y-96774000D02*
X162568788Y-96774000D01*
X165100000Y-94615000D02*
X165100000Y-95250000D01*
X169775000Y-94025000D02*
X170326000Y-94576000D01*
%TO.N,/SCK_DUE*%
X169363000Y-95576000D02*
X171892000Y-95576000D01*
X161254000Y-97449394D02*
X161254000Y-98465000D01*
X163068000Y-95631000D02*
X161437140Y-97261860D01*
X161437140Y-97261860D02*
X161437140Y-97266254D01*
X169164000Y-95377000D02*
X169363000Y-95576000D01*
X161437140Y-97266254D02*
X161254000Y-97449394D01*
%TO.N,/MISO_DUE*%
X168021000Y-96743520D02*
X168188520Y-96576000D01*
X161598590Y-96066590D02*
X160754000Y-96911180D01*
X168188520Y-96576000D02*
X171892000Y-96576000D01*
X160754000Y-96911180D02*
X160754000Y-98465000D01*
%TO.N,/~{RESET_UNO}*%
X154522300Y-109815000D02*
X155254000Y-109815000D01*
X154482300Y-109855000D02*
X154522300Y-109815000D01*
X171853000Y-105537000D02*
X171892000Y-105576000D01*
X169849300Y-105537000D02*
X171853000Y-105537000D01*
%TO.N,/MOSI_UNO*%
X165978576Y-105890000D02*
X164679000Y-105890000D01*
X175514000Y-103505000D02*
X178585000Y-106576000D01*
X166568120Y-105300456D02*
X165978576Y-105890000D01*
X178585000Y-106576000D02*
X182692000Y-106576000D01*
X166568120Y-104721700D02*
X166568120Y-105300456D01*
X168029910Y-103259910D02*
X166568120Y-104721700D01*
X175514000Y-102108000D02*
X175514000Y-103505000D01*
%TO.N,/~{CS_UNO}*%
X166191000Y-107390000D02*
X164679000Y-107390000D01*
X166751000Y-108712000D02*
X166751000Y-107950000D01*
X166751000Y-107950000D02*
X166191000Y-107390000D01*
X180633000Y-105576000D02*
X182692000Y-105576000D01*
X180594000Y-105537000D02*
X180633000Y-105576000D01*
%TO.N,/SCK_UNO*%
X167303000Y-106890000D02*
X164679000Y-106890000D01*
X168329590Y-105863410D02*
X167303000Y-106890000D01*
X177673000Y-104140000D02*
X178109000Y-104576000D01*
X178109000Y-104576000D02*
X182692000Y-104576000D01*
X168329590Y-104702590D02*
X168329590Y-105863410D01*
%TO.N,/MISO_UNO*%
X179324000Y-103632000D02*
X179380000Y-103576000D01*
X179380000Y-103576000D02*
X182692000Y-103576000D01*
X166642180Y-106390000D02*
X164679000Y-106390000D01*
X167250090Y-105782090D02*
X166642180Y-106390000D01*
%TO.N,/~{RESET_DUE}*%
X168550000Y-101900000D02*
X168356000Y-101900000D01*
X174498000Y-95504000D02*
X175426000Y-94576000D01*
X168356000Y-101900000D02*
X166116000Y-104140000D01*
X166116000Y-105029000D02*
X165755000Y-105390000D01*
X166116000Y-104140000D02*
X166116000Y-105029000D01*
X165755000Y-105390000D02*
X164679000Y-105390000D01*
X175426000Y-94576000D02*
X182692000Y-94576000D01*
%TO.N,/ST_USB_D-*%
X166622000Y-96542618D02*
X166622000Y-90236894D01*
X169162000Y-89951251D02*
X169860000Y-89253251D01*
X164679000Y-101890000D02*
X164681000Y-101892000D01*
X169860000Y-89253251D02*
X169860000Y-88259500D01*
X164681000Y-101892000D02*
X166710520Y-101892000D01*
X166907643Y-89951251D02*
X169162000Y-89951251D01*
X168146000Y-100456520D02*
X168146000Y-98066618D01*
X166622000Y-90236894D02*
X166907643Y-89951251D01*
X166710520Y-101892000D02*
X168146000Y-100456520D01*
X168146000Y-98066618D02*
X166622000Y-96542618D01*
%TO.N,/ST_USB_D+*%
X166118000Y-90101500D02*
X167960000Y-88259500D01*
X167642000Y-100321126D02*
X167642000Y-98275382D01*
X166573126Y-101390000D02*
X167642000Y-100321126D01*
X167642000Y-98275382D02*
X166118000Y-96751382D01*
X166118000Y-96751382D02*
X166118000Y-90101500D01*
X164679000Y-101390000D02*
X166573126Y-101390000D01*
%TO.N,/~{CS_TDK_ST}*%
X155754000Y-113407806D02*
X155754000Y-109815000D01*
X176415000Y-118855000D02*
X176415000Y-116979000D01*
X176415000Y-116979000D02*
X176403000Y-116967000D01*
X164456090Y-115345980D02*
X164177190Y-115067080D01*
X157413274Y-115067080D02*
X155754000Y-113407806D01*
X164177190Y-115067080D02*
X157413274Y-115067080D01*
%TO.N,/SCK_TDK_ST*%
X166370000Y-116205000D02*
X172406454Y-116205000D01*
X172416994Y-116215540D02*
X173023006Y-116215540D01*
X174055000Y-116205000D02*
X175140000Y-117290000D01*
X156254000Y-109815000D02*
X156254000Y-113268412D01*
X175140000Y-117290000D02*
X175140000Y-118950000D01*
X164779960Y-114614960D02*
X166370000Y-116205000D01*
X156254000Y-113268412D02*
X157600548Y-114614960D01*
X172406454Y-116205000D02*
X172416994Y-116215540D01*
X157600548Y-114614960D02*
X164779960Y-114614960D01*
X173033546Y-116205000D02*
X174055000Y-116205000D01*
X173023006Y-116215540D02*
X173033546Y-116205000D01*
%TO.N,/MOSI_TDK_ST*%
X166770000Y-117346480D02*
X167448820Y-116667660D01*
X162951062Y-113665784D02*
X157930160Y-113665784D01*
X163713846Y-112903000D02*
X162951062Y-113665784D01*
X164873000Y-112903000D02*
X163713846Y-112903000D01*
X166770000Y-114800000D02*
X164873000Y-112903000D01*
X157254000Y-112989624D02*
X157254000Y-109815000D01*
X167448820Y-116667660D02*
X173309660Y-116667660D01*
X157930160Y-113665784D02*
X157254000Y-112989624D01*
X173875000Y-117233000D02*
X173875000Y-118955000D01*
X173309660Y-116667660D02*
X173875000Y-117233000D01*
%TO.N,/FSYNC_TDK_ST*%
X163271200Y-115519200D02*
X165989000Y-118237000D01*
X165989000Y-118237000D02*
X167132000Y-118237000D01*
X155829000Y-107924600D02*
X155038720Y-108714880D01*
X155041600Y-111709200D02*
X155041600Y-113334800D01*
X168249220Y-117119780D02*
X172263180Y-117119780D01*
X155041600Y-113334800D02*
X157226000Y-115519200D01*
X153330720Y-106888280D02*
X155395406Y-106888280D01*
X157226000Y-115519200D02*
X163271200Y-115519200D01*
X153670000Y-110337600D02*
X155041600Y-111709200D01*
X153329000Y-106890000D02*
X153330720Y-106888280D01*
X172263180Y-117119780D02*
X172605000Y-117461600D01*
X154429120Y-108714880D02*
X153670000Y-109474000D01*
X155829000Y-107321874D02*
X155829000Y-107924600D01*
X155395406Y-106888280D02*
X155829000Y-107321874D01*
X153670000Y-109474000D02*
X153670000Y-110337600D01*
X155038720Y-108714880D02*
X154429120Y-108714880D01*
X167132000Y-118237000D02*
X168249220Y-117119780D01*
X172605000Y-117461600D02*
X172605000Y-118955000D01*
%TO.N,/~{TDK_EN}*%
X157262000Y-106390000D02*
X157861000Y-105791000D01*
X163322000Y-108966000D02*
X163830000Y-109474000D01*
X159964120Y-107132120D02*
X162885120Y-107132120D01*
X163830000Y-109474000D02*
X166174000Y-109474000D01*
X170065000Y-112788000D02*
X170065000Y-113805000D01*
X157861000Y-105791000D02*
X158623000Y-105791000D01*
X162885120Y-107132120D02*
X163322000Y-107569000D01*
X163322000Y-107569000D02*
X163322000Y-108966000D01*
X168650000Y-111950000D02*
X169218212Y-111950000D01*
X169545000Y-112268000D02*
X170065000Y-112788000D01*
X153329000Y-106390000D02*
X157262000Y-106390000D01*
X169536212Y-112268000D02*
X169545000Y-112268000D01*
X169218212Y-111950000D02*
X169536212Y-112268000D01*
X158623000Y-105791000D02*
X159964120Y-107132120D01*
X171335000Y-113905000D02*
X170065000Y-113905000D01*
X166174000Y-109474000D02*
X168650000Y-111950000D01*
%TO.N,/FDCAN_RX*%
X158254000Y-96532000D02*
X156489400Y-94767400D01*
X146685000Y-82423000D02*
X145069000Y-82423000D01*
X147955000Y-83693000D02*
X146685000Y-82423000D01*
X158254000Y-98465000D02*
X158254000Y-96532000D01*
X146812000Y-86614000D02*
X147955000Y-85471000D01*
X156489400Y-94767400D02*
X152654000Y-94767400D01*
X152654000Y-94767400D02*
X146812000Y-88925400D01*
X146812000Y-88925400D02*
X146812000Y-86614000D01*
X147955000Y-85471000D02*
X147955000Y-83693000D01*
%TO.N,/FDCAN_TX*%
X157754000Y-96671394D02*
X156302126Y-95219520D01*
X152466726Y-95219520D02*
X145069000Y-87821794D01*
X156302126Y-95219520D02*
X152466726Y-95219520D01*
X157754000Y-98465000D02*
X157754000Y-96671394D01*
X145069000Y-87821794D02*
X145069000Y-86233000D01*
%TO.N,/FDCAN_STBY*%
X144348200Y-87757000D02*
X143281400Y-87757000D01*
X157254000Y-98465000D02*
X157254000Y-96810788D01*
X156114852Y-95671640D02*
X152262840Y-95671640D01*
X141287000Y-88265000D02*
X142367000Y-88265000D01*
X143281400Y-87757000D02*
X143078200Y-87553800D01*
X143078200Y-87553800D02*
X141757400Y-86233000D01*
X142367000Y-88265000D02*
X143078200Y-87553800D01*
X141757400Y-86233000D02*
X139919000Y-86233000D01*
X157254000Y-96810788D02*
X156114852Y-95671640D01*
X152262840Y-95671640D02*
X144348200Y-87757000D01*
%TO.N,/CAN_H*%
X143383000Y-83058000D02*
X143383000Y-73533000D01*
X132897880Y-87447120D02*
X131953000Y-88392000D01*
X139919000Y-84963000D02*
X141478000Y-84963000D01*
X138176000Y-84963000D02*
X139919000Y-84963000D01*
X134170077Y-87447120D02*
X132897880Y-87447120D01*
X136908197Y-84709000D02*
X134170077Y-87447120D01*
X138176000Y-84963000D02*
X137922000Y-84709000D01*
X141478000Y-84963000D02*
X143383000Y-83058000D01*
X131953000Y-88392000D02*
X131064000Y-88392000D01*
X137922000Y-84709000D02*
X136908197Y-84709000D01*
%TO.N,/CAN_L*%
X142335250Y-71882000D02*
X144780000Y-71882000D01*
X142930880Y-82870726D02*
X142930880Y-75747880D01*
X142108606Y-83693000D02*
X142930880Y-82870726D01*
X139919000Y-83693000D02*
X142108606Y-83693000D01*
X142930880Y-75747880D02*
X141986000Y-74803000D01*
X139919000Y-83693000D02*
X138430000Y-83693000D01*
X132842000Y-86995000D02*
X131699000Y-85852000D01*
X141986000Y-72231250D02*
X142335250Y-71882000D01*
X131699000Y-85852000D02*
X131064000Y-85852000D01*
X141986000Y-74803000D02*
X141986000Y-72231250D01*
X137922000Y-84201000D02*
X136776803Y-84201000D01*
X138430000Y-83693000D02*
X137922000Y-84201000D01*
X144780000Y-71882000D02*
X145923000Y-73025000D01*
X133982803Y-86995000D02*
X132842000Y-86995000D01*
X136776803Y-84201000D02*
X133982803Y-86995000D01*
X145923000Y-73025000D02*
X145923000Y-73533000D01*
D54*
%TO.N,Net-(U3-VOUT)*%
X153543000Y-89154000D02*
X153543000Y-90119200D01*
X153873200Y-90449400D02*
X154647600Y-90449400D01*
X153035000Y-91948000D02*
X153101000Y-92014000D01*
X154647600Y-91148200D02*
X154647600Y-90449400D01*
X151876000Y-88773000D02*
X153162000Y-88773000D01*
X153101000Y-92014000D02*
X154310500Y-92014000D01*
X154310500Y-91485300D02*
X154647600Y-91148200D01*
X154310500Y-92014000D02*
X154310500Y-91485300D01*
X153543000Y-90119200D02*
X153873200Y-90449400D01*
X153162000Y-88773000D02*
X153543000Y-89154000D01*
D56*
%TO.N,Net-(C6-Pad1)*%
X148336000Y-109474000D02*
X148590000Y-109728000D01*
D55*
X147000000Y-111186000D02*
X147000000Y-112268000D01*
D56*
X148209000Y-118872000D02*
X148209000Y-114300000D01*
X148209000Y-114300000D02*
X148209000Y-112268000D01*
X148590000Y-109728000D02*
X148590000Y-111887000D01*
D55*
X146812000Y-110998000D02*
X147000000Y-111186000D01*
D56*
X148209000Y-112268000D02*
X147000000Y-112268000D01*
D55*
X143065000Y-110998000D02*
X146812000Y-110998000D01*
D56*
X147050000Y-109474000D02*
X148336000Y-109474000D01*
X148209000Y-114300000D02*
X147000000Y-114300000D01*
X148590000Y-111887000D02*
X148209000Y-112268000D01*
D55*
%TO.N,Net-(U8-CB)*%
X140703000Y-113017000D02*
X140340500Y-112654500D01*
X140340500Y-112654500D02*
X139888000Y-112654500D01*
X141478000Y-113017000D02*
X140703000Y-113017000D01*
D56*
%TO.N,Net-(U8-SW)*%
X139888000Y-118171000D02*
X139888000Y-114929500D01*
X142367000Y-118872000D02*
X140589000Y-118872000D01*
D55*
X140583500Y-114813500D02*
X140583500Y-114929500D01*
D56*
X140589000Y-118872000D02*
X139888000Y-118171000D01*
D55*
X141478000Y-114567000D02*
X140830000Y-114567000D01*
X140583500Y-114929500D02*
X139888000Y-114929500D01*
X140830000Y-114567000D02*
X140583500Y-114813500D01*
D53*
%TO.N,Net-(U4-VDDA-DUE)*%
X182692000Y-97576000D02*
X184190000Y-97576000D01*
X184190000Y-97576000D02*
X184658000Y-98044000D01*
%TO.N,Net-(U6-PB8{slash}BOOT0)*%
X157226000Y-100330000D02*
X156754000Y-99858000D01*
X156754000Y-99858000D02*
X156754000Y-98465000D01*
%TO.N,Net-(U4-VDDD-UNO)*%
X182692000Y-99576000D02*
X184158000Y-99576000D01*
X184158000Y-99576000D02*
X184658000Y-100076000D01*
%TO.N,Net-(U4-VDDD-DUE)*%
X170442000Y-100576000D02*
X170053000Y-100965000D01*
X171892000Y-100576000D02*
X170442000Y-100576000D01*
%TO.N,Net-(U4-VDDA-UNO)*%
X171892000Y-102576000D02*
X170474000Y-102576000D01*
X170474000Y-102576000D02*
X170053000Y-102997000D01*
%TO.N,Net-(U6-PA8{slash}ADC5_IN1)*%
X163322000Y-103378000D02*
X164667000Y-103378000D01*
X164667000Y-103378000D02*
X164679000Y-103390000D01*
%TO.N,Net-(U6-VREF+{slash}VREFBUF_OUT)*%
X159740600Y-107873800D02*
X159461200Y-107873800D01*
X159461200Y-107873800D02*
X157937200Y-107873800D01*
X160754000Y-109815000D02*
X160754000Y-108887200D01*
X160324800Y-108458000D02*
X159740600Y-107873800D01*
X160754000Y-108887200D02*
X160324800Y-108458000D01*
D55*
%TO.N,Net-(C39-Pad2)*%
X175296000Y-123789000D02*
X175296000Y-121942000D01*
X174117000Y-124968000D02*
X175296000Y-123789000D01*
X179796000Y-121942000D02*
X175296000Y-121942000D01*
%TO.N,Net-(C40-Pad1)*%
X168184000Y-121942000D02*
X172684000Y-121942000D01*
X166878000Y-121920000D02*
X168162000Y-121920000D01*
X168162000Y-121920000D02*
X168184000Y-121942000D01*
D53*
%TO.N,Net-(J3-VBUS)*%
X170688000Y-87122000D02*
X173228000Y-84582000D01*
X173228000Y-84582000D02*
X173228000Y-80010000D01*
X168910000Y-87249000D02*
X169037000Y-87122000D01*
X169037000Y-87122000D02*
X170688000Y-87122000D01*
X168910000Y-88259500D02*
X168910000Y-87249000D01*
D55*
%TO.N,Net-(U8-FB)*%
X141415000Y-110998000D02*
X140462000Y-110998000D01*
X138557000Y-110236000D02*
X137988000Y-110805000D01*
X140462000Y-110998000D02*
X139700000Y-110236000D01*
X139700000Y-110236000D02*
X138557000Y-110236000D01*
X137988000Y-110805000D02*
X137988000Y-112654500D01*
D53*
%TO.N,Net-(U8-EN)*%
X137988000Y-114929500D02*
X137988000Y-116139000D01*
X137541000Y-116586000D02*
X136461000Y-116586000D01*
X137855500Y-115062000D02*
X137988000Y-114929500D01*
X137988000Y-116139000D02*
X137541000Y-116586000D01*
X136461000Y-115062000D02*
X137855500Y-115062000D01*
%TO.N,Net-(U5-OUT)*%
X149718000Y-102390000D02*
X153329000Y-102390000D01*
X149606000Y-102278000D02*
X149718000Y-102390000D01*
D54*
%TO.N,Net-(Q6-D)*%
X148336000Y-127738500D02*
X148336000Y-124030500D01*
%TO.N,Net-(Q7-D)*%
X142240000Y-127715000D02*
X142240000Y-124030500D01*
%TO.N,Net-(Q8-D)*%
X160655000Y-125706500D02*
X162790500Y-125706500D01*
X163019500Y-125935500D02*
X163019500Y-126619000D01*
X162790500Y-125706500D02*
X163019500Y-125935500D01*
%TO.N,Net-(Q9-D)*%
X155115500Y-126619000D02*
X155115500Y-126062500D01*
X155115500Y-126062500D02*
X155471500Y-125706500D01*
X155471500Y-125706500D02*
X157607000Y-125706500D01*
%TO.N,Net-(D5-KA)*%
X137290000Y-123066000D02*
X137414000Y-123190000D01*
X134620000Y-123066000D02*
X137290000Y-123066000D01*
%TD*%
M02*
