%TF.GenerationSoftware,KiCad,Pcbnew,7.0.7-7.0.7~ubuntu20.04.1*%
%TF.CreationDate,2023-08-17T20:41:31-07:00*%
%TF.ProjectId,IMU-2X,494d552d-3258-42e6-9b69-6361645f7063,1.0*%
%TF.SameCoordinates,Original*%
%TF.FileFunction,Copper,L2,Inr*%
%TF.FilePolarity,Positive*%
%FSLAX46Y46*%
G04 Gerber Fmt 4.6, Leading zero omitted, Abs format (unit mm)*
G04 Created by KiCad (PCBNEW 7.0.7-7.0.7~ubuntu20.04.1) date 2023-08-17 20:41:31*
%MOMM*%
%LPD*%
G01*
G04 APERTURE LIST*
%ADD10C,0.300000*%
%TA.AperFunction,NonConductor*%
%ADD11C,0.300000*%
%TD*%
%TA.AperFunction,ComponentPad*%
%ADD12C,2.200000*%
%TD*%
%TA.AperFunction,ComponentPad*%
%ADD13R,1.905000X1.600200*%
%TD*%
%TA.AperFunction,ComponentPad*%
%ADD14O,1.905000X1.600200*%
%TD*%
%TA.AperFunction,ComponentPad*%
%ADD15R,1.600200X1.905000*%
%TD*%
%TA.AperFunction,ComponentPad*%
%ADD16O,1.600200X1.905000*%
%TD*%
%TA.AperFunction,ComponentPad*%
%ADD17R,1.400000X1.400000*%
%TD*%
%TA.AperFunction,ComponentPad*%
%ADD18C,1.400000*%
%TD*%
%TA.AperFunction,ComponentPad*%
%ADD19C,3.000000*%
%TD*%
%TA.AperFunction,ComponentPad*%
%ADD20R,2.000000X2.000000*%
%TD*%
%TA.AperFunction,ComponentPad*%
%ADD21C,2.000000*%
%TD*%
%TA.AperFunction,ViaPad*%
%ADD22C,0.812800*%
%TD*%
G04 APERTURE END LIST*
D10*
D11*
G36*
X214698400Y-85487224D02*
G01*
X214693760Y-85467053D01*
X214688631Y-85447521D01*
X214683015Y-85428630D01*
X214676911Y-85410380D01*
X214670320Y-85392770D01*
X214663240Y-85375800D01*
X214655673Y-85359471D01*
X214647619Y-85343781D01*
X214630046Y-85314324D01*
X214610523Y-85287429D01*
X214589049Y-85263095D01*
X214565624Y-85241322D01*
X214540249Y-85222111D01*
X214512922Y-85205462D01*
X214483645Y-85191374D01*
X214452417Y-85179847D01*
X214419238Y-85170882D01*
X214401917Y-85167360D01*
X214384109Y-85164478D01*
X214365813Y-85162237D01*
X214347028Y-85160636D01*
X214327757Y-85159675D01*
X214307997Y-85159355D01*
X214280532Y-85160020D01*
X214253830Y-85162015D01*
X214227891Y-85165340D01*
X214202716Y-85169995D01*
X214178303Y-85175979D01*
X214154655Y-85183294D01*
X214131769Y-85191938D01*
X214109647Y-85201913D01*
X214088289Y-85213217D01*
X214067693Y-85225852D01*
X214047861Y-85239816D01*
X214028793Y-85255110D01*
X214010488Y-85271734D01*
X213992946Y-85289689D01*
X213976167Y-85308973D01*
X213960152Y-85329586D01*
X213945007Y-85351330D01*
X213930839Y-85374112D01*
X213917648Y-85397932D01*
X213905435Y-85422790D01*
X213894198Y-85448687D01*
X213883939Y-85475621D01*
X213874656Y-85503594D01*
X213866351Y-85532605D01*
X213859023Y-85562654D01*
X213852672Y-85593741D01*
X213847298Y-85625866D01*
X213842901Y-85659030D01*
X213839481Y-85693232D01*
X213838137Y-85710722D01*
X213837038Y-85728471D01*
X213836183Y-85746481D01*
X213835573Y-85764749D01*
X213835206Y-85783278D01*
X213835084Y-85802065D01*
X213835202Y-85820557D01*
X213835557Y-85838795D01*
X213836149Y-85856778D01*
X213836977Y-85874506D01*
X213838042Y-85891980D01*
X213840882Y-85926165D01*
X213844668Y-85959332D01*
X213849401Y-85991481D01*
X213855080Y-86022612D01*
X213861706Y-86052726D01*
X213869279Y-86081821D01*
X213877798Y-86109899D01*
X213887263Y-86136959D01*
X213897675Y-86163001D01*
X213909034Y-86188026D01*
X213921339Y-86212033D01*
X213934591Y-86235021D01*
X213948790Y-86256992D01*
X213956244Y-86267596D01*
X213971818Y-86287895D01*
X213988142Y-86306884D01*
X214005215Y-86324563D01*
X214023039Y-86340933D01*
X214041612Y-86355993D01*
X214060935Y-86369743D01*
X214081008Y-86382184D01*
X214101831Y-86393316D01*
X214123403Y-86403137D01*
X214145725Y-86411650D01*
X214168797Y-86418852D01*
X214192619Y-86424745D01*
X214217190Y-86429329D01*
X214242512Y-86432603D01*
X214268583Y-86434567D01*
X214295404Y-86435222D01*
X214317007Y-86434851D01*
X214338063Y-86433736D01*
X214358574Y-86431879D01*
X214378538Y-86429278D01*
X214397956Y-86425935D01*
X214416828Y-86421848D01*
X214435154Y-86417019D01*
X214452933Y-86411446D01*
X214470166Y-86405131D01*
X214486853Y-86398072D01*
X214502994Y-86390271D01*
X214518588Y-86381726D01*
X214533636Y-86372439D01*
X214548138Y-86362408D01*
X214562094Y-86351635D01*
X214575504Y-86340118D01*
X214588299Y-86327918D01*
X214600413Y-86315094D01*
X214611845Y-86301645D01*
X214622594Y-86287572D01*
X214632662Y-86272875D01*
X214642048Y-86257554D01*
X214650752Y-86241608D01*
X214658774Y-86225038D01*
X214666114Y-86207844D01*
X214672772Y-86190026D01*
X214678748Y-86171583D01*
X214684043Y-86152516D01*
X214688655Y-86132825D01*
X214692585Y-86112510D01*
X214695834Y-86091570D01*
X214698400Y-86070006D01*
X215063616Y-86070006D01*
X215062316Y-86089422D01*
X215060639Y-86108586D01*
X215058587Y-86127498D01*
X215056159Y-86146158D01*
X215053356Y-86164567D01*
X215050176Y-86182723D01*
X215046621Y-86200628D01*
X215042690Y-86218280D01*
X215038384Y-86235681D01*
X215033701Y-86252830D01*
X215028643Y-86269726D01*
X215023209Y-86286371D01*
X215017400Y-86302764D01*
X215004654Y-86334795D01*
X214990404Y-86365817D01*
X214974652Y-86395833D01*
X214957397Y-86424840D01*
X214938639Y-86452840D01*
X214918378Y-86479832D01*
X214896613Y-86505817D01*
X214873346Y-86530794D01*
X214848576Y-86554763D01*
X214835628Y-86566370D01*
X214822391Y-86577671D01*
X214808899Y-86588614D01*
X214781148Y-86609423D01*
X214752376Y-86628797D01*
X214737608Y-86637946D01*
X214722584Y-86646736D01*
X214707304Y-86655167D01*
X214691769Y-86663239D01*
X214675979Y-86670953D01*
X214659934Y-86678308D01*
X214643634Y-86685304D01*
X214627078Y-86691942D01*
X214610267Y-86698220D01*
X214593200Y-86704140D01*
X214575878Y-86709701D01*
X214558301Y-86714903D01*
X214540469Y-86719747D01*
X214522381Y-86724231D01*
X214504038Y-86728357D01*
X214485440Y-86732124D01*
X214466586Y-86735533D01*
X214447477Y-86738582D01*
X214428113Y-86741273D01*
X214408494Y-86743605D01*
X214388619Y-86745579D01*
X214368489Y-86747193D01*
X214348104Y-86748449D01*
X214327463Y-86749346D01*
X214306567Y-86749884D01*
X214285416Y-86750063D01*
X214261820Y-86749813D01*
X214238532Y-86749062D01*
X214215551Y-86747811D01*
X214192877Y-86746060D01*
X214170510Y-86743808D01*
X214148450Y-86741056D01*
X214126696Y-86737803D01*
X214105250Y-86734050D01*
X214084111Y-86729796D01*
X214063280Y-86725042D01*
X214042755Y-86719788D01*
X214022537Y-86714033D01*
X214002626Y-86707778D01*
X213983022Y-86701022D01*
X213963725Y-86693766D01*
X213944736Y-86686009D01*
X213926053Y-86677752D01*
X213907677Y-86668995D01*
X213889609Y-86659737D01*
X213871847Y-86649979D01*
X213854393Y-86639720D01*
X213837245Y-86628961D01*
X213820405Y-86617702D01*
X213803871Y-86605942D01*
X213787645Y-86593682D01*
X213771726Y-86580921D01*
X213756113Y-86567660D01*
X213740808Y-86553898D01*
X213725810Y-86539636D01*
X213711119Y-86524874D01*
X213696735Y-86509611D01*
X213682657Y-86493848D01*
X213668951Y-86477654D01*
X213655681Y-86461101D01*
X213642845Y-86444189D01*
X213630444Y-86426917D01*
X213618478Y-86409285D01*
X213606948Y-86391294D01*
X213595853Y-86372943D01*
X213585192Y-86354232D01*
X213574967Y-86335162D01*
X213565177Y-86315732D01*
X213555822Y-86295942D01*
X213546903Y-86275793D01*
X213538418Y-86255284D01*
X213530368Y-86234416D01*
X213522754Y-86213188D01*
X213515575Y-86191600D01*
X213508830Y-86169653D01*
X213502521Y-86147346D01*
X213496647Y-86124679D01*
X213491208Y-86101653D01*
X213486204Y-86078267D01*
X213481636Y-86054522D01*
X213477502Y-86030417D01*
X213473804Y-86005952D01*
X213470540Y-85981128D01*
X213467712Y-85955944D01*
X213465319Y-85930401D01*
X213463361Y-85904497D01*
X213461838Y-85878235D01*
X213460750Y-85851612D01*
X213460098Y-85824630D01*
X213459880Y-85797289D01*
X213460100Y-85769785D01*
X213460759Y-85742644D01*
X213461857Y-85715865D01*
X213463395Y-85689449D01*
X213465372Y-85663394D01*
X213467789Y-85637702D01*
X213470644Y-85612372D01*
X213473939Y-85587403D01*
X213477674Y-85562798D01*
X213481848Y-85538554D01*
X213486461Y-85514672D01*
X213491514Y-85491153D01*
X213497005Y-85467996D01*
X213502937Y-85445201D01*
X213509307Y-85422768D01*
X213516117Y-85400697D01*
X213523367Y-85378989D01*
X213531055Y-85357642D01*
X213539183Y-85336658D01*
X213547751Y-85316036D01*
X213556757Y-85295776D01*
X213566204Y-85275879D01*
X213576089Y-85256343D01*
X213586414Y-85237170D01*
X213597178Y-85218359D01*
X213608381Y-85199910D01*
X213620024Y-85181823D01*
X213632106Y-85164098D01*
X213644628Y-85146736D01*
X213657589Y-85129735D01*
X213670989Y-85113097D01*
X213684829Y-85096821D01*
X213699071Y-85080978D01*
X213713626Y-85065637D01*
X213728493Y-85050800D01*
X213743672Y-85036465D01*
X213759163Y-85022634D01*
X213774966Y-85009305D01*
X213791081Y-84996479D01*
X213807508Y-84984157D01*
X213824248Y-84972337D01*
X213841299Y-84961020D01*
X213858663Y-84950207D01*
X213876339Y-84939896D01*
X213894327Y-84930088D01*
X213912627Y-84920783D01*
X213931240Y-84911981D01*
X213950164Y-84903682D01*
X213969401Y-84895886D01*
X213988949Y-84888593D01*
X214008810Y-84881803D01*
X214028983Y-84875516D01*
X214049468Y-84869732D01*
X214070265Y-84864451D01*
X214091374Y-84859673D01*
X214112796Y-84855398D01*
X214134529Y-84851625D01*
X214156575Y-84848356D01*
X214178933Y-84845590D01*
X214201603Y-84843326D01*
X214224585Y-84841566D01*
X214247879Y-84840309D01*
X214271485Y-84839554D01*
X214295404Y-84839303D01*
X214315456Y-84839471D01*
X214335281Y-84839978D01*
X214354879Y-84840822D01*
X214374250Y-84842003D01*
X214393393Y-84843522D01*
X214412309Y-84845379D01*
X214430997Y-84847573D01*
X214449459Y-84850105D01*
X214467693Y-84852974D01*
X214485699Y-84856181D01*
X214503479Y-84859726D01*
X214521031Y-84863608D01*
X214538356Y-84867828D01*
X214555453Y-84872385D01*
X214572323Y-84877280D01*
X214588966Y-84882512D01*
X214621570Y-84893989D01*
X214653264Y-84906817D01*
X214684049Y-84920995D01*
X214713925Y-84936523D01*
X214742892Y-84953402D01*
X214770950Y-84971631D01*
X214798098Y-84991210D01*
X214824337Y-85012140D01*
X214849465Y-85034199D01*
X214873171Y-85057276D01*
X214895456Y-85081371D01*
X214916319Y-85106483D01*
X214935761Y-85132614D01*
X214953782Y-85159762D01*
X214970380Y-85187928D01*
X214985557Y-85217112D01*
X214999313Y-85247314D01*
X215011647Y-85278533D01*
X215022560Y-85310771D01*
X215032051Y-85344026D01*
X215036263Y-85361035D01*
X215040120Y-85378299D01*
X215043622Y-85395817D01*
X215046768Y-85413589D01*
X215049559Y-85431616D01*
X215051995Y-85449898D01*
X215054075Y-85468434D01*
X215055800Y-85487224D01*
X214698400Y-85487224D01*
G37*
G36*
X216524914Y-86692741D02*
G01*
X216174897Y-86692741D01*
X216174897Y-86532497D01*
X216156317Y-86558843D01*
X216136838Y-86583489D01*
X216116460Y-86606436D01*
X216095183Y-86627682D01*
X216073007Y-86647229D01*
X216049931Y-86665077D01*
X216025957Y-86681224D01*
X216001083Y-86695672D01*
X215975311Y-86708420D01*
X215948639Y-86719468D01*
X215921068Y-86728817D01*
X215892599Y-86736465D01*
X215863230Y-86742415D01*
X215832962Y-86746664D01*
X215801795Y-86749213D01*
X215769729Y-86750063D01*
X215743234Y-86749585D01*
X215717489Y-86748150D01*
X215692493Y-86745758D01*
X215668247Y-86742409D01*
X215644751Y-86738104D01*
X215622005Y-86732842D01*
X215600008Y-86726623D01*
X215578762Y-86719448D01*
X215558265Y-86711315D01*
X215538518Y-86702226D01*
X215519520Y-86692181D01*
X215501273Y-86681178D01*
X215483775Y-86669219D01*
X215467027Y-86656303D01*
X215451029Y-86642430D01*
X215435780Y-86627601D01*
X215421372Y-86611901D01*
X215407893Y-86595418D01*
X215395343Y-86578151D01*
X215383723Y-86560100D01*
X215373033Y-86541266D01*
X215363272Y-86521647D01*
X215354441Y-86501245D01*
X215346539Y-86480060D01*
X215339567Y-86458090D01*
X215333525Y-86435337D01*
X215328412Y-86411801D01*
X215324229Y-86387480D01*
X215320975Y-86362376D01*
X215318651Y-86336488D01*
X215317257Y-86309817D01*
X215316792Y-86282361D01*
X215316792Y-85342180D01*
X215667243Y-85342180D01*
X215667243Y-86209839D01*
X215668122Y-86239235D01*
X215670758Y-86266735D01*
X215675151Y-86292337D01*
X215681302Y-86316044D01*
X215689211Y-86337854D01*
X215698876Y-86357767D01*
X215710300Y-86375784D01*
X215723480Y-86391904D01*
X215738418Y-86406128D01*
X215755114Y-86418455D01*
X215773566Y-86428886D01*
X215793777Y-86437421D01*
X215815744Y-86444058D01*
X215839469Y-86448800D01*
X215864952Y-86451644D01*
X215892192Y-86452593D01*
X215915688Y-86451955D01*
X215938298Y-86450043D01*
X215960023Y-86446856D01*
X215980863Y-86442394D01*
X216000817Y-86436658D01*
X216019886Y-86429646D01*
X216038069Y-86421360D01*
X216055366Y-86411799D01*
X216071778Y-86400963D01*
X216087305Y-86388853D01*
X216097164Y-86380071D01*
X216111056Y-86366053D01*
X216123581Y-86351195D01*
X216134740Y-86335498D01*
X216144533Y-86318962D01*
X216152959Y-86301585D01*
X216160019Y-86283369D01*
X216165712Y-86264313D01*
X216170039Y-86244417D01*
X216173000Y-86223682D01*
X216174594Y-86202107D01*
X216174897Y-86187257D01*
X216174897Y-85342180D01*
X216524914Y-85342180D01*
X216524914Y-86692741D01*
G37*
G36*
X217946259Y-84869267D02*
G01*
X217946259Y-86380071D01*
X218819130Y-86380071D01*
X218819130Y-86692741D01*
X217571055Y-86692741D01*
X217571055Y-84869267D01*
X217946259Y-84869267D01*
G37*
G36*
X220630009Y-86692741D02*
G01*
X220244818Y-86692741D01*
X220124961Y-86324919D01*
X219441864Y-86324919D01*
X219319401Y-86692741D01*
X218936815Y-86692741D01*
X219178447Y-86012249D01*
X219546956Y-86012249D01*
X220022040Y-86012249D01*
X219784498Y-85299622D01*
X219546956Y-86012249D01*
X219178447Y-86012249D01*
X219584302Y-84869267D01*
X219999893Y-84869267D01*
X220630009Y-86692741D01*
G37*
G36*
X221650964Y-86017460D02*
G01*
X221650964Y-86692741D01*
X221275760Y-86692741D01*
X221275760Y-86017460D01*
X220670396Y-84869267D01*
X221088158Y-84869267D01*
X221460756Y-85674826D01*
X221808167Y-84869267D01*
X222228534Y-84869267D01*
X221650964Y-86017460D01*
G37*
G36*
X222820436Y-85907157D02*
G01*
X222820436Y-86380071D01*
X223808386Y-86380071D01*
X223808386Y-86692741D01*
X222445232Y-86692741D01*
X222445232Y-84869267D01*
X223763223Y-84869267D01*
X223763223Y-85181937D01*
X222820436Y-85181937D01*
X222820436Y-85594487D01*
X223693306Y-85594487D01*
X223693306Y-85907157D01*
X222820436Y-85907157D01*
G37*
G36*
X225095988Y-84869453D02*
G01*
X225121487Y-84870433D01*
X225146299Y-84872252D01*
X225170423Y-84874911D01*
X225193861Y-84878410D01*
X225216611Y-84882749D01*
X225238675Y-84887927D01*
X225260051Y-84893944D01*
X225280740Y-84900802D01*
X225300743Y-84908499D01*
X225320058Y-84917036D01*
X225338591Y-84926178D01*
X225356246Y-84935855D01*
X225373024Y-84946066D01*
X225388923Y-84956812D01*
X225403945Y-84968092D01*
X225418088Y-84979906D01*
X225431354Y-84992254D01*
X225443742Y-85005137D01*
X225455252Y-85018554D01*
X225465884Y-85032506D01*
X225472485Y-85042104D01*
X225484848Y-85061456D01*
X225496315Y-85080862D01*
X225506887Y-85100322D01*
X225516563Y-85119837D01*
X225525343Y-85139406D01*
X225533228Y-85159029D01*
X225540216Y-85178707D01*
X225546310Y-85198439D01*
X225551602Y-85218191D01*
X225556189Y-85238147D01*
X225560070Y-85258306D01*
X225563246Y-85278669D01*
X225565716Y-85299236D01*
X225567480Y-85320006D01*
X225568539Y-85340979D01*
X225568891Y-85362156D01*
X225568591Y-85382579D01*
X225567689Y-85402590D01*
X225566185Y-85422192D01*
X225564081Y-85441382D01*
X225561375Y-85460162D01*
X225558067Y-85478532D01*
X225554158Y-85496491D01*
X225549648Y-85514040D01*
X225544537Y-85531178D01*
X225538824Y-85547906D01*
X225532510Y-85564223D01*
X225518077Y-85595626D01*
X225501239Y-85625386D01*
X225481996Y-85653505D01*
X225460347Y-85679981D01*
X225436293Y-85704816D01*
X225423364Y-85716617D01*
X225409833Y-85728008D01*
X225395702Y-85738989D01*
X225380968Y-85749559D01*
X225365634Y-85759718D01*
X225349698Y-85769467D01*
X225333161Y-85778805D01*
X225316022Y-85787733D01*
X225298282Y-85796250D01*
X225279941Y-85804357D01*
X225260998Y-85812054D01*
X225277385Y-85818825D01*
X225296323Y-85826794D01*
X225313543Y-85834211D01*
X225331940Y-85842384D01*
X225347863Y-85849763D01*
X225361313Y-85856348D01*
X225377653Y-85865739D01*
X225392038Y-85876183D01*
X225406507Y-85888704D01*
X225418975Y-85901091D01*
X225427321Y-85910197D01*
X225439230Y-85923943D01*
X225451116Y-85939323D01*
X225460841Y-85953997D01*
X225469309Y-85969902D01*
X225472485Y-85977508D01*
X225478130Y-85995611D01*
X225482364Y-86013286D01*
X225485893Y-86030696D01*
X225489421Y-86050546D01*
X225492244Y-86068181D01*
X225495067Y-86087377D01*
X225497747Y-86107319D01*
X225500142Y-86127193D01*
X225502252Y-86147000D01*
X225504078Y-86166738D01*
X225505618Y-86186409D01*
X225506873Y-86206012D01*
X225507843Y-86225547D01*
X225508529Y-86245015D01*
X225509180Y-86265615D01*
X225509832Y-86288549D01*
X225510320Y-86307282D01*
X225510809Y-86327328D01*
X225511297Y-86348687D01*
X225511786Y-86371358D01*
X225512274Y-86395343D01*
X225512763Y-86420640D01*
X225513089Y-86438235D01*
X225513414Y-86456413D01*
X225513740Y-86475174D01*
X225514446Y-86494349D01*
X225516564Y-86512462D01*
X225520095Y-86529514D01*
X225526999Y-86550599D01*
X225536414Y-86569798D01*
X225548339Y-86587111D01*
X225562775Y-86602538D01*
X225579721Y-86616078D01*
X225594079Y-86624995D01*
X225594079Y-86692741D01*
X225191082Y-86692741D01*
X225182763Y-86676537D01*
X225175177Y-86660496D01*
X225166725Y-86640675D01*
X225159418Y-86621107D01*
X225153256Y-86601794D01*
X225148239Y-86582736D01*
X225145050Y-86567673D01*
X225141797Y-86547291D01*
X225139592Y-86528604D01*
X225137740Y-86507800D01*
X225136240Y-86484879D01*
X225135347Y-86466299D01*
X225134652Y-86446528D01*
X225134156Y-86425566D01*
X225133858Y-86403414D01*
X225133759Y-86380071D01*
X225133793Y-86361798D01*
X225133931Y-86340388D01*
X225134175Y-86320568D01*
X225134525Y-86302339D01*
X225135084Y-86282563D01*
X225135797Y-86265077D01*
X225135930Y-86262385D01*
X225136946Y-86244244D01*
X225137801Y-86224682D01*
X225138330Y-86206368D01*
X225138536Y-86187257D01*
X225138051Y-86166319D01*
X225136597Y-86146494D01*
X225134173Y-86127785D01*
X225130780Y-86110189D01*
X225124748Y-86088462D01*
X225116993Y-86068717D01*
X225107513Y-86050953D01*
X225096311Y-86035170D01*
X225083385Y-86021369D01*
X225068647Y-86009257D01*
X225051792Y-85998760D01*
X225032820Y-85989878D01*
X225011731Y-85982611D01*
X224994525Y-85978220D01*
X224976128Y-85974738D01*
X224956541Y-85972164D01*
X224935762Y-85970499D01*
X224913793Y-85969742D01*
X224906205Y-85969691D01*
X224475850Y-85969691D01*
X224475850Y-86692741D01*
X224100646Y-86692741D01*
X224100646Y-85181937D01*
X224475850Y-85181937D01*
X224475850Y-85657021D01*
X224928352Y-85657021D01*
X224952680Y-85656605D01*
X224975833Y-85655357D01*
X224997810Y-85653277D01*
X225018611Y-85650365D01*
X225038237Y-85646621D01*
X225056688Y-85642044D01*
X225073962Y-85636636D01*
X225095167Y-85628131D01*
X225114281Y-85618146D01*
X225127245Y-85609687D01*
X225142818Y-85596191D01*
X225156314Y-85579587D01*
X225167734Y-85559875D01*
X225174936Y-85543052D01*
X225180970Y-85524481D01*
X225185836Y-85504162D01*
X225189535Y-85482094D01*
X225192065Y-85458279D01*
X225193428Y-85432716D01*
X225193688Y-85414702D01*
X225193115Y-85389230D01*
X225191398Y-85365415D01*
X225188535Y-85343256D01*
X225184527Y-85322754D01*
X225179375Y-85303908D01*
X225173077Y-85286718D01*
X225162899Y-85266376D01*
X225150685Y-85248978D01*
X225136436Y-85234525D01*
X225128548Y-85228403D01*
X225111171Y-85217513D01*
X225091608Y-85208074D01*
X225069861Y-85200088D01*
X225052117Y-85195051D01*
X225033144Y-85190831D01*
X225012942Y-85187427D01*
X224991511Y-85184841D01*
X224968850Y-85183071D01*
X224944961Y-85182118D01*
X224928352Y-85181937D01*
X224475850Y-85181937D01*
X224100646Y-85181937D01*
X224100646Y-84869267D01*
X225078608Y-84869267D01*
X225095988Y-84869453D01*
G37*
G36*
X227675939Y-85444666D02*
G01*
X227675690Y-85463016D01*
X227674942Y-85481151D01*
X227673695Y-85499073D01*
X227671950Y-85516781D01*
X227669705Y-85534276D01*
X227666962Y-85551556D01*
X227663721Y-85568623D01*
X227657923Y-85593823D01*
X227651003Y-85618542D01*
X227642961Y-85642779D01*
X227633797Y-85666536D01*
X227623511Y-85689812D01*
X227612103Y-85712607D01*
X227599913Y-85734741D01*
X227587121Y-85756195D01*
X227573725Y-85776969D01*
X227559726Y-85797065D01*
X227545125Y-85816481D01*
X227529920Y-85835217D01*
X227514112Y-85853274D01*
X227497701Y-85870652D01*
X227480687Y-85887350D01*
X227463070Y-85903369D01*
X227450991Y-85913671D01*
X227432628Y-85928791D01*
X227414182Y-85943697D01*
X227395651Y-85958389D01*
X227377037Y-85972867D01*
X227358339Y-85987131D01*
X227339556Y-86001182D01*
X227320690Y-86015019D01*
X227301740Y-86028643D01*
X227282705Y-86042052D01*
X227263587Y-86055248D01*
X227250795Y-86063927D01*
X227231644Y-86076902D01*
X227212622Y-86090099D01*
X227193731Y-86103518D01*
X227174969Y-86117158D01*
X227156336Y-86131019D01*
X227137834Y-86145102D01*
X227119461Y-86159406D01*
X227101218Y-86173931D01*
X227083105Y-86188678D01*
X227065122Y-86203646D01*
X227053205Y-86213748D01*
X227035858Y-86229008D01*
X227019480Y-86244338D01*
X227004072Y-86259736D01*
X226989633Y-86275203D01*
X226976164Y-86290738D01*
X226963664Y-86306342D01*
X226952133Y-86322015D01*
X226941572Y-86337757D01*
X226931981Y-86353567D01*
X226923359Y-86369446D01*
X226918149Y-86380071D01*
X227668557Y-86380071D01*
X227668557Y-86692741D01*
X226463041Y-86692741D01*
X226464901Y-86662520D01*
X226467336Y-86633090D01*
X226470343Y-86604451D01*
X226473924Y-86576602D01*
X226478079Y-86549544D01*
X226482806Y-86523276D01*
X226488107Y-86497798D01*
X226493982Y-86473112D01*
X226500430Y-86449215D01*
X226507451Y-86426109D01*
X226515045Y-86403794D01*
X226523213Y-86382269D01*
X226531955Y-86361535D01*
X226541269Y-86341591D01*
X226551157Y-86322437D01*
X226561618Y-86304074D01*
X226572962Y-86286000D01*
X226585388Y-86267820D01*
X226598896Y-86249535D01*
X226613486Y-86231145D01*
X226629158Y-86212650D01*
X226645913Y-86194050D01*
X226663750Y-86175344D01*
X226682670Y-86156533D01*
X226702671Y-86137617D01*
X226723755Y-86118596D01*
X226745921Y-86099470D01*
X226769169Y-86080239D01*
X226793500Y-86060902D01*
X226818913Y-86041460D01*
X226845408Y-86021913D01*
X226872986Y-86002261D01*
X226891071Y-85989554D01*
X226908741Y-85977055D01*
X226925995Y-85964764D01*
X226942834Y-85952680D01*
X226959257Y-85940805D01*
X226975265Y-85929137D01*
X226990857Y-85917677D01*
X227006033Y-85906424D01*
X227020794Y-85895380D01*
X227035139Y-85884543D01*
X227049069Y-85873915D01*
X227075681Y-85853280D01*
X227100631Y-85833477D01*
X227123918Y-85814505D01*
X227145543Y-85796364D01*
X227165506Y-85779055D01*
X227183806Y-85762577D01*
X227200443Y-85746930D01*
X227215419Y-85732114D01*
X227228732Y-85718129D01*
X227240382Y-85704976D01*
X227245584Y-85698711D01*
X227259941Y-85679718D01*
X227272887Y-85659871D01*
X227284420Y-85639169D01*
X227294540Y-85617612D01*
X227303249Y-85595200D01*
X227310545Y-85571933D01*
X227316430Y-85547811D01*
X227320902Y-85522834D01*
X227323961Y-85497002D01*
X227325217Y-85479306D01*
X227325844Y-85461229D01*
X227325923Y-85452049D01*
X227325339Y-85427707D01*
X227323587Y-85404349D01*
X227320667Y-85381977D01*
X227316579Y-85360589D01*
X227311324Y-85340186D01*
X227304900Y-85320767D01*
X227297308Y-85302333D01*
X227288549Y-85284884D01*
X227278621Y-85268420D01*
X227267526Y-85252941D01*
X227259480Y-85243168D01*
X227246650Y-85229509D01*
X227232911Y-85217194D01*
X227218263Y-85206222D01*
X227202707Y-85196593D01*
X227186243Y-85188308D01*
X227168870Y-85181367D01*
X227150589Y-85175769D01*
X227131400Y-85171514D01*
X227111302Y-85168604D01*
X227090296Y-85167036D01*
X227075787Y-85166738D01*
X227053783Y-85167467D01*
X227032718Y-85169654D01*
X227012593Y-85173299D01*
X226993406Y-85178402D01*
X226975158Y-85184963D01*
X226957849Y-85192982D01*
X226941478Y-85202459D01*
X226926047Y-85213394D01*
X226911555Y-85225787D01*
X226898002Y-85239638D01*
X226889488Y-85249682D01*
X226877614Y-85265721D01*
X226866908Y-85282898D01*
X226857370Y-85301212D01*
X226848999Y-85320664D01*
X226841797Y-85341253D01*
X226835763Y-85362979D01*
X226830896Y-85385843D01*
X226827198Y-85409844D01*
X226824667Y-85434982D01*
X226823629Y-85452373D01*
X226823110Y-85470270D01*
X226823045Y-85479407D01*
X226823045Y-85537165D01*
X226487794Y-85537165D01*
X226486649Y-85519302D01*
X226485981Y-85501921D01*
X226485656Y-85483302D01*
X226485622Y-85474631D01*
X226485772Y-85457245D01*
X226486973Y-85423200D01*
X226489375Y-85390121D01*
X226492979Y-85358009D01*
X226497783Y-85326864D01*
X226503788Y-85296686D01*
X226510994Y-85267475D01*
X226519401Y-85239231D01*
X226529009Y-85211954D01*
X226539818Y-85185644D01*
X226551828Y-85160300D01*
X226565039Y-85135924D01*
X226579451Y-85112514D01*
X226595064Y-85090072D01*
X226611879Y-85068596D01*
X226629894Y-85048087D01*
X226639352Y-85038195D01*
X226659043Y-85019264D01*
X226679684Y-85001554D01*
X226701275Y-84985066D01*
X226723816Y-84969799D01*
X226747307Y-84955753D01*
X226771748Y-84942929D01*
X226797139Y-84931326D01*
X226823480Y-84920944D01*
X226850770Y-84911784D01*
X226879011Y-84903845D01*
X226908202Y-84897128D01*
X226938342Y-84891631D01*
X226969433Y-84887357D01*
X227001473Y-84884303D01*
X227034464Y-84882471D01*
X227068404Y-84881861D01*
X227085797Y-84882009D01*
X227119900Y-84883200D01*
X227153094Y-84885582D01*
X227185379Y-84889154D01*
X227216755Y-84893918D01*
X227247221Y-84899872D01*
X227276778Y-84907017D01*
X227305426Y-84915353D01*
X227333164Y-84924879D01*
X227359994Y-84935597D01*
X227385914Y-84947505D01*
X227410925Y-84960604D01*
X227435026Y-84974894D01*
X227458219Y-84990375D01*
X227480502Y-85007047D01*
X227501876Y-85024909D01*
X227512222Y-85034287D01*
X227532047Y-85053753D01*
X227550593Y-85074043D01*
X227567860Y-85095157D01*
X227583848Y-85117096D01*
X227598557Y-85139859D01*
X227611987Y-85163447D01*
X227624138Y-85187859D01*
X227635010Y-85213095D01*
X227644603Y-85239156D01*
X227652917Y-85266041D01*
X227659951Y-85293751D01*
X227665707Y-85322285D01*
X227670184Y-85351644D01*
X227673381Y-85381827D01*
X227675300Y-85412835D01*
X227675939Y-85444666D01*
G37*
D10*
D11*
G36*
X131110117Y-120935018D02*
G01*
X131097010Y-120934840D01*
X131084056Y-120934306D01*
X131071255Y-120933415D01*
X131058606Y-120932168D01*
X131046110Y-120930565D01*
X131033767Y-120928606D01*
X131021576Y-120926291D01*
X131003577Y-120922149D01*
X130985920Y-120917207D01*
X130968608Y-120911463D01*
X130951639Y-120904917D01*
X130935013Y-120897569D01*
X130918731Y-120889421D01*
X130902921Y-120880714D01*
X130887597Y-120871576D01*
X130872758Y-120862008D01*
X130858404Y-120852009D01*
X130844535Y-120841579D01*
X130831152Y-120830719D01*
X130818254Y-120819427D01*
X130805842Y-120807705D01*
X130793914Y-120795553D01*
X130782472Y-120782969D01*
X130775114Y-120774341D01*
X130764314Y-120761225D01*
X130753667Y-120748049D01*
X130743173Y-120734813D01*
X130732831Y-120721517D01*
X130722642Y-120708161D01*
X130712606Y-120694745D01*
X130702722Y-120681269D01*
X130692991Y-120667733D01*
X130683413Y-120654137D01*
X130673987Y-120640481D01*
X130667788Y-120631344D01*
X130658520Y-120617664D01*
X130649093Y-120604078D01*
X130639509Y-120590583D01*
X130629766Y-120577182D01*
X130619865Y-120563873D01*
X130609806Y-120550657D01*
X130599589Y-120537534D01*
X130589214Y-120524503D01*
X130578680Y-120511565D01*
X130567989Y-120498720D01*
X130560773Y-120490208D01*
X130549873Y-120477817D01*
X130538923Y-120466119D01*
X130527925Y-120455113D01*
X130516877Y-120444799D01*
X130505780Y-120435178D01*
X130494634Y-120426250D01*
X130483439Y-120418014D01*
X130472195Y-120410470D01*
X130460902Y-120403619D01*
X130449560Y-120397461D01*
X130441971Y-120393740D01*
X130441971Y-120929745D01*
X130218636Y-120929745D01*
X130218636Y-120068662D01*
X130240221Y-120069991D01*
X130261243Y-120071730D01*
X130281699Y-120073878D01*
X130301592Y-120076436D01*
X130320919Y-120079404D01*
X130339682Y-120082781D01*
X130357880Y-120086567D01*
X130375513Y-120090763D01*
X130392582Y-120095369D01*
X130409086Y-120100384D01*
X130425026Y-120105808D01*
X130440401Y-120111643D01*
X130455211Y-120117886D01*
X130469457Y-120124540D01*
X130483138Y-120131602D01*
X130496254Y-120139075D01*
X130509165Y-120147177D01*
X130522150Y-120156053D01*
X130535211Y-120165701D01*
X130548346Y-120176123D01*
X130561557Y-120187318D01*
X130574843Y-120199285D01*
X130588204Y-120212026D01*
X130601641Y-120225540D01*
X130615152Y-120239827D01*
X130628739Y-120254887D01*
X130642400Y-120270720D01*
X130656137Y-120287326D01*
X130669949Y-120304705D01*
X130683836Y-120322857D01*
X130697798Y-120341782D01*
X130711835Y-120361480D01*
X130720911Y-120374398D01*
X130729839Y-120387020D01*
X130738619Y-120399344D01*
X130747250Y-120411372D01*
X130755732Y-120423103D01*
X130764067Y-120434537D01*
X130772252Y-120445674D01*
X130780290Y-120456514D01*
X130788179Y-120467057D01*
X130795919Y-120477304D01*
X130803511Y-120487253D01*
X130818250Y-120506262D01*
X130832395Y-120524084D01*
X130845946Y-120540717D01*
X130858904Y-120556164D01*
X130871268Y-120570423D01*
X130883038Y-120583494D01*
X130894215Y-120595378D01*
X130904797Y-120606075D01*
X130914786Y-120615584D01*
X130924182Y-120623906D01*
X130928657Y-120627622D01*
X130942223Y-120637877D01*
X130956399Y-120647124D01*
X130971187Y-120655361D01*
X130986584Y-120662591D01*
X131002593Y-120668811D01*
X131019212Y-120674023D01*
X131036442Y-120678226D01*
X131054283Y-120681420D01*
X131072734Y-120683605D01*
X131085375Y-120684502D01*
X131098286Y-120684950D01*
X131104844Y-120685006D01*
X131122231Y-120684589D01*
X131138915Y-120683338D01*
X131154895Y-120681252D01*
X131170172Y-120678333D01*
X131184746Y-120674579D01*
X131198616Y-120669990D01*
X131211783Y-120664568D01*
X131224247Y-120658311D01*
X131236007Y-120651220D01*
X131247064Y-120643295D01*
X131254044Y-120637548D01*
X131263801Y-120628383D01*
X131272598Y-120618569D01*
X131280435Y-120608107D01*
X131287312Y-120596995D01*
X131293230Y-120585235D01*
X131298188Y-120572826D01*
X131302187Y-120559768D01*
X131305226Y-120546061D01*
X131307305Y-120531706D01*
X131308424Y-120516701D01*
X131308638Y-120506338D01*
X131308117Y-120490621D01*
X131306555Y-120475575D01*
X131303951Y-120461199D01*
X131300306Y-120447494D01*
X131295620Y-120434460D01*
X131289892Y-120422096D01*
X131283122Y-120410403D01*
X131275312Y-120399381D01*
X131266460Y-120389029D01*
X131256566Y-120379349D01*
X131249392Y-120373267D01*
X131237935Y-120364786D01*
X131225666Y-120357139D01*
X131212584Y-120350326D01*
X131198690Y-120344347D01*
X131183984Y-120339202D01*
X131168465Y-120334892D01*
X131152134Y-120331416D01*
X131134990Y-120328774D01*
X131117034Y-120326967D01*
X131104612Y-120326225D01*
X131091829Y-120325855D01*
X131085302Y-120325808D01*
X131044047Y-120325808D01*
X131044047Y-120086343D01*
X131056806Y-120085525D01*
X131069221Y-120085048D01*
X131082520Y-120084816D01*
X131088714Y-120084792D01*
X131101132Y-120084899D01*
X131125450Y-120085757D01*
X131149078Y-120087473D01*
X131172015Y-120090046D01*
X131194261Y-120093478D01*
X131215817Y-120097767D01*
X131236682Y-120102914D01*
X131256856Y-120108919D01*
X131276340Y-120115782D01*
X131295133Y-120123503D01*
X131313236Y-120132082D01*
X131330647Y-120141518D01*
X131347368Y-120151813D01*
X131363399Y-120162965D01*
X131378739Y-120174975D01*
X131393388Y-120187843D01*
X131400453Y-120194599D01*
X131413976Y-120208664D01*
X131426626Y-120223407D01*
X131438403Y-120238830D01*
X131449308Y-120254930D01*
X131459341Y-120271709D01*
X131468501Y-120289167D01*
X131476789Y-120307304D01*
X131484204Y-120326118D01*
X131490747Y-120345612D01*
X131496418Y-120365784D01*
X131501216Y-120386634D01*
X131505142Y-120408163D01*
X131508195Y-120430371D01*
X131510376Y-120453257D01*
X131511685Y-120476822D01*
X131512121Y-120501065D01*
X131512015Y-120513488D01*
X131511164Y-120537848D01*
X131509463Y-120561558D01*
X131506911Y-120584618D01*
X131503509Y-120607029D01*
X131499256Y-120628791D01*
X131494152Y-120649903D01*
X131488198Y-120670366D01*
X131481393Y-120690179D01*
X131473738Y-120709343D01*
X131465232Y-120727857D01*
X131455876Y-120745722D01*
X131445668Y-120762938D01*
X131434611Y-120779504D01*
X131422702Y-120795420D01*
X131409943Y-120810687D01*
X131403245Y-120818077D01*
X131389341Y-120832238D01*
X131374848Y-120845485D01*
X131359767Y-120857819D01*
X131344096Y-120869239D01*
X131327837Y-120879745D01*
X131310988Y-120889338D01*
X131293551Y-120898017D01*
X131275525Y-120905783D01*
X131256910Y-120912635D01*
X131237706Y-120918574D01*
X131217914Y-120923598D01*
X131197532Y-120927710D01*
X131176562Y-120930907D01*
X131155002Y-120933191D01*
X131132854Y-120934562D01*
X131110117Y-120935018D01*
G37*
D12*
%TO.N,/V_{BAT}*%
%TO.C,J2*%
X162178500Y-75910500D03*
%TO.N,GND*%
X157178500Y-75910500D03*
%TO.N,/V_{BAT}*%
X162178500Y-84110500D03*
%TO.N,GND*%
X157178500Y-84110500D03*
%TD*%
D13*
%TO.N,/CAN_H*%
%TO.C,J4*%
X131064000Y-88392000D03*
D14*
%TO.N,/CAN_L*%
X131064000Y-85852000D03*
%TD*%
D15*
%TO.N,/CAN_H*%
%TO.C,J1*%
X143510000Y-73406000D03*
D16*
%TO.N,/CAN_L*%
X146050000Y-73406000D03*
%TD*%
D17*
%TO.N,Net-(J3-VBUS)*%
%TO.C,J3*%
X173228000Y-80010000D03*
D18*
%TO.N,/USB_D-*%
X175728000Y-80010000D03*
%TO.N,/USB_D+*%
X175728000Y-76810000D03*
%TO.N,GND*%
X173228000Y-76810000D03*
D19*
X180498000Y-77300000D03*
X168458000Y-77300000D03*
%TD*%
D20*
%TO.N,/Power Supply/V_{BAT_MON}*%
%TO.C,C5*%
X136570323Y-104648000D03*
D21*
%TO.N,GND*%
X141570323Y-104648000D03*
%TD*%
D22*
%TO.N,+3V3*%
X178435000Y-131064000D03*
X159131509Y-125717029D03*
X169895020Y-99060000D03*
X161290000Y-119400900D03*
X145669000Y-102235000D03*
X170815000Y-123444000D03*
X144272000Y-125730000D03*
X145669000Y-100584000D03*
X184658000Y-101600000D03*
X161671000Y-90170000D03*
X166624000Y-125476000D03*
X184658000Y-103124000D03*
X155524200Y-100304600D03*
X160959800Y-107873800D03*
X162814000Y-100634800D03*
X176657000Y-131064000D03*
X152908000Y-111252000D03*
X161671000Y-89154000D03*
X167670000Y-118900000D03*
X155092400Y-107619800D03*
X177800000Y-123444000D03*
X138016480Y-127762000D03*
X143383000Y-109728000D03*
X150368000Y-124968000D03*
X138430000Y-82423000D03*
X138500000Y-89450000D03*
X143383000Y-108839000D03*
X182245000Y-120142000D03*
X169926000Y-97536000D03*
X162483800Y-107899200D03*
X153289000Y-128651000D03*
%TO.N,GND*%
X143129000Y-84836000D03*
X143891000Y-112268000D03*
X173990000Y-101092000D03*
X162788600Y-106400600D03*
X168910000Y-84709000D03*
X145288000Y-124206000D03*
X173736000Y-92583000D03*
X180975000Y-92583000D03*
X170815000Y-124968000D03*
X175420000Y-108990000D03*
X138938000Y-110998000D03*
X173294877Y-115473980D03*
X162788600Y-104876600D03*
X168148000Y-115473980D03*
X151130000Y-126492000D03*
X174000900Y-107548920D03*
X180594000Y-100076000D03*
X158115000Y-92964000D03*
X180594000Y-96012000D03*
X169545000Y-131064000D03*
X178880000Y-113820000D03*
X133731000Y-116586000D03*
X171323000Y-131064000D03*
X166370000Y-126492000D03*
X143891000Y-114300000D03*
X175420000Y-110998000D03*
X171958000Y-115473980D03*
X170688000Y-120523000D03*
X149606000Y-100584000D03*
X151358600Y-107619800D03*
X160985200Y-111655772D03*
X166598600Y-100330000D03*
X182190000Y-115470000D03*
X180594000Y-98044000D03*
X155244800Y-92964000D03*
X182200000Y-111570000D03*
X152908000Y-115951000D03*
X159091887Y-126726674D03*
X141224000Y-81407000D03*
X162509200Y-111709200D03*
X136652000Y-120142000D03*
X173990000Y-97282000D03*
X177800000Y-124968000D03*
X149504753Y-105892953D03*
X151384000Y-99314000D03*
X180594000Y-102362000D03*
X173990000Y-98806000D03*
X166573200Y-99085400D03*
X178860000Y-118950000D03*
X174117000Y-103505000D03*
X180594000Y-107569000D03*
X146304000Y-98044000D03*
X155448000Y-96520000D03*
X159370000Y-119354600D03*
X158267400Y-106654600D03*
%TO.N,+5V*%
X146939000Y-84328000D03*
X147955000Y-88392000D03*
%TO.N,Net-(U10-VDD)*%
X167246210Y-111747210D03*
%TO.N,/V_{BAT}*%
X151474497Y-76744503D03*
X150876000Y-77343000D03*
X146304000Y-92456000D03*
X146304000Y-91567000D03*
%TO.N,/Power Supply/V_{BAT_MON}*%
X133731000Y-115062000D03*
X139192000Y-98044000D03*
X138938000Y-116586000D03*
X139192000Y-98890403D03*
%TO.N,Net-(D3-KA)*%
X140208000Y-129540000D03*
%TO.N,Net-(D3-AK)*%
X146939000Y-130937000D03*
%TO.N,Net-(D4-KA)*%
X155956000Y-129667000D03*
%TO.N,Net-(D4-AK)*%
X164846000Y-129667000D03*
%TO.N,/T_SWDIO*%
X152527000Y-109601000D03*
X159901910Y-124214910D03*
X158496000Y-104521000D03*
%TO.N,/T_SWCLK*%
X157061502Y-105118502D03*
X150718020Y-108966000D03*
%TO.N,/~{T_NRST}*%
X156210000Y-119380000D03*
X156209486Y-123444000D03*
X155591490Y-102599510D03*
X155194000Y-114935000D03*
%TO.N,/T_VCP_RX*%
X153797000Y-117348000D03*
X159132678Y-112826193D03*
%TO.N,/T_VCP_TX*%
X154051000Y-121412000D03*
X158115000Y-112744520D03*
%TO.N,/SCK_TDK*%
X170650000Y-110850000D03*
%TO.N,/~{CS_TDK}*%
X170612037Y-108763037D03*
%TO.N,/TDK_PWR_EN*%
X169291353Y-107188353D03*
%TO.N,/LED1_RED*%
X154813000Y-104013000D03*
X140284200Y-123571000D03*
%TO.N,/LED1_GRN*%
X151511000Y-103275900D03*
X146558000Y-123571000D03*
%TO.N,/LED2_RED*%
X149733000Y-107823000D03*
X152654000Y-123952000D03*
%TO.N,/LED2_GRN*%
X151511000Y-104902000D03*
X165735000Y-131064000D03*
%TO.N,/MOSI_TDK*%
X169174008Y-110606992D03*
%TO.N,/MISO_TDK*%
X164320000Y-113639600D03*
%TO.N,/INT_TDK*%
X155569004Y-105652177D03*
%TO.N,/FSYNC_TDK*%
X168325800Y-108387380D03*
%TO.N,/MOSI_DUE*%
X164846000Y-93091000D03*
X169350000Y-92552020D03*
%TO.N,/~{CS_DUE}*%
X169775000Y-94025000D03*
X165100000Y-94615000D03*
%TO.N,/SCK_DUE*%
X169164000Y-95377000D03*
X163068000Y-95631000D03*
%TO.N,/MISO_DUE*%
X161598590Y-96066590D03*
X168021000Y-96743520D03*
%TO.N,/~{RESET_UNO}*%
X169849300Y-105537000D03*
X154482300Y-109855000D03*
%TO.N,/MOSI_UNO*%
X168029910Y-103259910D03*
X175514000Y-102108000D03*
%TO.N,/~{CS_UNO}*%
X180594000Y-105537000D03*
X166751000Y-108712000D03*
%TO.N,/SCK_UNO*%
X177673000Y-104140000D03*
X168329590Y-104702590D03*
%TO.N,/MISO_UNO*%
X179324000Y-103632000D03*
X167250090Y-105782090D03*
%TO.N,/~{RESET_DUE}*%
X168550000Y-101900000D03*
X174498000Y-95504000D03*
%TO.N,/~{CS_TDK_ST}*%
X176403000Y-116967000D03*
X164456090Y-115345980D03*
%TO.N,/MOSI_TDK_ST*%
X166770000Y-117346480D03*
X166770000Y-114800000D03*
%TO.N,Net-(U3-VOUT)*%
X153035000Y-91948000D03*
%TO.N,Net-(U4-VDDA-DUE)*%
X184658000Y-98044000D03*
%TO.N,Net-(U6-PB8{slash}BOOT0)*%
X157226000Y-100330000D03*
%TO.N,Net-(U4-VDDD-UNO)*%
X184658000Y-100076000D03*
%TO.N,Net-(U4-VDDD-DUE)*%
X170053000Y-100965000D03*
%TO.N,Net-(U4-VDDA-UNO)*%
X170053000Y-102997000D03*
%TO.N,Net-(U6-PA8{slash}ADC5_IN1)*%
X163322000Y-103378000D03*
%TO.N,Net-(U6-VREF+{slash}VREFBUF_OUT)*%
X157937200Y-107873800D03*
X159461200Y-107873800D03*
%TO.N,Net-(C39-Pad2)*%
X174117000Y-124968000D03*
%TO.N,Net-(C40-Pad1)*%
X166878000Y-121920000D03*
%TO.N,Net-(U8-FB)*%
X140462000Y-110998000D03*
%TO.N,Net-(D5-KA)*%
X137414000Y-123190000D03*
%TD*%
%TA.AperFunction,Conductor*%
%TO.N,GND*%
G36*
X182188039Y-71774685D02*
G01*
X182233794Y-71827489D01*
X182245000Y-71879000D01*
X182245000Y-76355119D01*
X182225315Y-76422158D01*
X182172511Y-76467913D01*
X182103353Y-76477857D01*
X182039797Y-76448832D01*
X182013613Y-76417119D01*
X181951286Y-76309167D01*
X181951279Y-76309156D01*
X181865638Y-76201768D01*
X181865637Y-76201767D01*
X181532345Y-76535060D01*
X181471022Y-76568545D01*
X181401330Y-76563561D01*
X181353027Y-76530917D01*
X181276070Y-76446499D01*
X181271834Y-76442638D01*
X181273363Y-76440960D01*
X181237629Y-76392798D01*
X181232941Y-76323086D01*
X181266313Y-76262279D01*
X181599388Y-75929204D01*
X181594668Y-75924824D01*
X181377452Y-75776728D01*
X181377450Y-75776727D01*
X181140610Y-75662671D01*
X181140591Y-75662664D01*
X180889408Y-75585185D01*
X180889398Y-75585183D01*
X180629449Y-75546000D01*
X180366550Y-75546000D01*
X180106601Y-75585183D01*
X180106591Y-75585185D01*
X179855408Y-75662664D01*
X179855389Y-75662671D01*
X179618549Y-75776727D01*
X179618538Y-75776734D01*
X179401332Y-75924823D01*
X179401326Y-75924828D01*
X179396611Y-75929203D01*
X179396610Y-75929203D01*
X179729686Y-76262279D01*
X179763171Y-76323602D01*
X179758187Y-76393294D01*
X179722657Y-76440983D01*
X179724166Y-76442638D01*
X179719934Y-76446495D01*
X179642970Y-76530919D01*
X179583258Y-76567199D01*
X179513411Y-76565438D01*
X179463653Y-76535060D01*
X179130360Y-76201767D01*
X179044714Y-76309166D01*
X178913270Y-76536833D01*
X178817228Y-76781544D01*
X178817223Y-76781561D01*
X178758727Y-77037848D01*
X178739082Y-77299996D01*
X178739082Y-77300003D01*
X178758727Y-77562151D01*
X178817223Y-77818438D01*
X178817228Y-77818455D01*
X178913270Y-78063166D01*
X179044713Y-78290832D01*
X179044720Y-78290843D01*
X179130361Y-78398231D01*
X179463653Y-78064938D01*
X179524976Y-78031453D01*
X179594667Y-78036437D01*
X179642969Y-78069079D01*
X179719931Y-78153501D01*
X179719935Y-78153505D01*
X179724166Y-78157362D01*
X179722640Y-78159035D01*
X179758380Y-78207229D01*
X179763050Y-78276942D01*
X179729685Y-78337720D01*
X179396610Y-78670794D01*
X179401335Y-78675178D01*
X179618547Y-78823271D01*
X179618549Y-78823272D01*
X179855389Y-78937328D01*
X179855408Y-78937335D01*
X180106591Y-79014814D01*
X180106601Y-79014816D01*
X180366550Y-79053999D01*
X180366557Y-79054000D01*
X180629443Y-79054000D01*
X180629449Y-79053999D01*
X180889398Y-79014816D01*
X180889408Y-79014814D01*
X181140591Y-78937335D01*
X181140610Y-78937328D01*
X181377450Y-78823272D01*
X181377452Y-78823271D01*
X181594666Y-78675177D01*
X181599387Y-78670794D01*
X181599387Y-78670793D01*
X181266313Y-78337720D01*
X181232828Y-78276397D01*
X181237812Y-78206706D01*
X181273358Y-78159038D01*
X181271832Y-78157364D01*
X181276069Y-78153501D01*
X181305296Y-78121441D01*
X181353028Y-78069081D01*
X181412738Y-78032801D01*
X181482585Y-78034561D01*
X181532345Y-78064939D01*
X181865637Y-78398231D01*
X181951285Y-78290833D01*
X182013613Y-78182880D01*
X182064180Y-78134664D01*
X182132787Y-78121441D01*
X182197652Y-78147409D01*
X182238180Y-78204324D01*
X182245000Y-78244880D01*
X182244999Y-80009999D01*
X182245000Y-80010000D01*
X190376000Y-80010000D01*
X190443039Y-80029685D01*
X190488794Y-80082489D01*
X190500000Y-80134000D01*
X190500000Y-124336000D01*
X190480315Y-124403039D01*
X190427511Y-124448794D01*
X190376000Y-124460000D01*
X182245000Y-124460000D01*
X182245000Y-132591000D01*
X182225315Y-132658039D01*
X182172511Y-132703794D01*
X182121000Y-132715000D01*
X155064000Y-132715000D01*
X154996961Y-132695315D01*
X154951206Y-132642511D01*
X154940000Y-132591000D01*
X154940000Y-131318000D01*
X154892306Y-131222612D01*
X154813000Y-131064000D01*
X165120419Y-131064000D01*
X165138277Y-131211077D01*
X165138278Y-131211079D01*
X165190807Y-131349587D01*
X165190817Y-131349612D01*
X165219040Y-131390500D01*
X165274980Y-131471543D01*
X165274982Y-131471545D01*
X165274984Y-131471547D01*
X165385876Y-131569789D01*
X165385878Y-131569790D01*
X165517067Y-131638643D01*
X165588993Y-131656371D01*
X165660919Y-131674100D01*
X165660920Y-131674100D01*
X165809081Y-131674100D01*
X165857031Y-131662280D01*
X165952933Y-131638643D01*
X166084122Y-131569790D01*
X166195020Y-131471543D01*
X166279184Y-131349610D01*
X166331722Y-131211079D01*
X166349581Y-131064000D01*
X166349581Y-131063999D01*
X176042419Y-131063999D01*
X176060277Y-131211077D01*
X176060278Y-131211079D01*
X176112807Y-131349587D01*
X176112817Y-131349612D01*
X176141040Y-131390500D01*
X176196980Y-131471543D01*
X176196982Y-131471545D01*
X176196984Y-131471547D01*
X176307876Y-131569789D01*
X176307878Y-131569790D01*
X176439067Y-131638643D01*
X176510993Y-131656371D01*
X176582919Y-131674100D01*
X176582920Y-131674100D01*
X176731081Y-131674100D01*
X176779030Y-131662280D01*
X176874933Y-131638643D01*
X177006122Y-131569790D01*
X177117020Y-131471543D01*
X177201184Y-131349610D01*
X177253722Y-131211079D01*
X177271581Y-131064000D01*
X177820419Y-131064000D01*
X177838277Y-131211077D01*
X177838278Y-131211079D01*
X177890807Y-131349587D01*
X177890817Y-131349612D01*
X177919040Y-131390500D01*
X177974980Y-131471543D01*
X177974982Y-131471545D01*
X177974984Y-131471547D01*
X178085876Y-131569789D01*
X178085878Y-131569790D01*
X178217067Y-131638643D01*
X178288993Y-131656371D01*
X178360919Y-131674100D01*
X178360920Y-131674100D01*
X178509081Y-131674100D01*
X178557031Y-131662281D01*
X178652933Y-131638643D01*
X178784122Y-131569790D01*
X178895020Y-131471543D01*
X178979184Y-131349610D01*
X179031722Y-131211079D01*
X179049581Y-131064000D01*
X179031722Y-130916921D01*
X178979184Y-130778390D01*
X178895020Y-130656457D01*
X178895017Y-130656454D01*
X178895015Y-130656452D01*
X178784123Y-130558210D01*
X178652931Y-130489356D01*
X178509081Y-130453900D01*
X178509080Y-130453900D01*
X178360920Y-130453900D01*
X178360919Y-130453900D01*
X178217068Y-130489356D01*
X178085876Y-130558210D01*
X177974984Y-130656452D01*
X177974978Y-130656459D01*
X177890817Y-130778387D01*
X177838278Y-130916920D01*
X177838277Y-130916922D01*
X177820419Y-131064000D01*
X177271581Y-131064000D01*
X177253722Y-130916921D01*
X177201184Y-130778390D01*
X177117020Y-130656457D01*
X177117017Y-130656454D01*
X177117015Y-130656452D01*
X177006123Y-130558210D01*
X176874931Y-130489356D01*
X176731081Y-130453900D01*
X176731080Y-130453900D01*
X176582920Y-130453900D01*
X176582919Y-130453900D01*
X176439068Y-130489356D01*
X176307876Y-130558210D01*
X176196984Y-130656452D01*
X176196978Y-130656459D01*
X176112817Y-130778387D01*
X176060278Y-130916920D01*
X176060277Y-130916922D01*
X176042419Y-131063999D01*
X166349581Y-131063999D01*
X166331722Y-130916921D01*
X166279184Y-130778390D01*
X166195020Y-130656457D01*
X166195017Y-130656454D01*
X166195015Y-130656452D01*
X166084123Y-130558210D01*
X165952931Y-130489356D01*
X165809081Y-130453900D01*
X165809080Y-130453900D01*
X165660920Y-130453900D01*
X165660919Y-130453900D01*
X165517068Y-130489356D01*
X165385876Y-130558210D01*
X165274984Y-130656452D01*
X165274978Y-130656459D01*
X165190817Y-130778387D01*
X165138278Y-130916920D01*
X165138277Y-130916922D01*
X165120419Y-131064000D01*
X154813000Y-131064000D01*
X154686000Y-130810000D01*
X154178000Y-130429000D01*
X153797000Y-130302000D01*
X151638001Y-130302000D01*
X151638000Y-130302000D01*
X151527164Y-130347471D01*
X151257000Y-130458307D01*
X150876000Y-130810000D01*
X150622000Y-131318000D01*
X150622000Y-132591000D01*
X150602315Y-132658039D01*
X150549511Y-132703794D01*
X150498000Y-132715000D01*
X137919000Y-132715000D01*
X137851961Y-132695315D01*
X137806206Y-132642511D01*
X137795000Y-132591000D01*
X137795000Y-130937000D01*
X146324419Y-130937000D01*
X146342277Y-131084077D01*
X146342278Y-131084079D01*
X146393831Y-131220014D01*
X146394817Y-131222612D01*
X146442359Y-131291488D01*
X146478980Y-131344543D01*
X146478982Y-131344545D01*
X146478984Y-131344547D01*
X146589876Y-131442789D01*
X146589878Y-131442790D01*
X146721067Y-131511643D01*
X146792993Y-131529371D01*
X146864919Y-131547100D01*
X146864920Y-131547100D01*
X147013081Y-131547100D01*
X147061031Y-131535280D01*
X147156933Y-131511643D01*
X147288122Y-131442790D01*
X147399020Y-131344543D01*
X147483184Y-131222610D01*
X147535722Y-131084079D01*
X147553581Y-130937000D01*
X147535722Y-130789921D01*
X147483184Y-130651390D01*
X147399020Y-130529457D01*
X147399017Y-130529454D01*
X147399015Y-130529452D01*
X147288123Y-130431210D01*
X147156931Y-130362356D01*
X147013081Y-130326900D01*
X147013080Y-130326900D01*
X146864920Y-130326900D01*
X146864919Y-130326900D01*
X146721068Y-130362356D01*
X146589876Y-130431210D01*
X146478984Y-130529452D01*
X146478978Y-130529459D01*
X146394817Y-130651387D01*
X146342278Y-130789920D01*
X146342277Y-130789922D01*
X146324419Y-130937000D01*
X137795000Y-130937000D01*
X137795000Y-129540000D01*
X139593419Y-129540000D01*
X139611277Y-129687077D01*
X139611278Y-129687079D01*
X139663816Y-129825610D01*
X139747980Y-129947543D01*
X139747982Y-129947545D01*
X139747984Y-129947547D01*
X139858876Y-130045789D01*
X139858878Y-130045790D01*
X139990067Y-130114643D01*
X140061993Y-130132371D01*
X140133919Y-130150100D01*
X140133920Y-130150100D01*
X140282081Y-130150100D01*
X140333601Y-130137401D01*
X140425933Y-130114643D01*
X140557122Y-130045790D01*
X140668020Y-129947543D01*
X140752184Y-129825610D01*
X140804722Y-129687079D01*
X140807160Y-129667000D01*
X155341419Y-129667000D01*
X155359277Y-129814077D01*
X155359278Y-129814079D01*
X155409894Y-129947543D01*
X155411817Y-129952612D01*
X155476133Y-130045789D01*
X155495980Y-130074543D01*
X155495982Y-130074545D01*
X155495984Y-130074547D01*
X155606876Y-130172789D01*
X155606878Y-130172790D01*
X155738067Y-130241643D01*
X155809993Y-130259371D01*
X155881919Y-130277100D01*
X155881920Y-130277100D01*
X156030081Y-130277100D01*
X156078031Y-130265281D01*
X156173933Y-130241643D01*
X156305122Y-130172790D01*
X156416020Y-130074543D01*
X156500184Y-129952610D01*
X156552722Y-129814079D01*
X156570581Y-129667000D01*
X164231419Y-129667000D01*
X164249277Y-129814077D01*
X164249278Y-129814079D01*
X164299894Y-129947543D01*
X164301817Y-129952612D01*
X164366133Y-130045789D01*
X164385980Y-130074543D01*
X164385982Y-130074545D01*
X164385984Y-130074547D01*
X164496876Y-130172789D01*
X164496878Y-130172790D01*
X164628067Y-130241643D01*
X164699993Y-130259371D01*
X164771919Y-130277100D01*
X164771920Y-130277100D01*
X164920081Y-130277100D01*
X164968031Y-130265280D01*
X165063933Y-130241643D01*
X165195122Y-130172790D01*
X165306020Y-130074543D01*
X165390184Y-129952610D01*
X165442722Y-129814079D01*
X165460581Y-129667000D01*
X165442722Y-129519921D01*
X165390184Y-129381390D01*
X165306020Y-129259457D01*
X165306017Y-129259454D01*
X165306015Y-129259452D01*
X165195123Y-129161210D01*
X165063931Y-129092356D01*
X164920081Y-129056900D01*
X164920080Y-129056900D01*
X164771920Y-129056900D01*
X164771919Y-129056900D01*
X164628068Y-129092356D01*
X164496876Y-129161210D01*
X164385984Y-129259452D01*
X164385978Y-129259459D01*
X164301817Y-129381387D01*
X164249278Y-129519920D01*
X164249277Y-129519922D01*
X164231419Y-129667000D01*
X156570581Y-129667000D01*
X156552722Y-129519921D01*
X156500184Y-129381390D01*
X156416020Y-129259457D01*
X156416017Y-129259454D01*
X156416015Y-129259452D01*
X156305123Y-129161210D01*
X156173931Y-129092356D01*
X156030081Y-129056900D01*
X156030080Y-129056900D01*
X155881920Y-129056900D01*
X155881919Y-129056900D01*
X155738068Y-129092356D01*
X155606876Y-129161210D01*
X155495984Y-129259452D01*
X155495978Y-129259459D01*
X155411817Y-129381387D01*
X155359278Y-129519920D01*
X155359277Y-129519922D01*
X155341419Y-129667000D01*
X140807160Y-129667000D01*
X140822581Y-129540000D01*
X140804722Y-129392921D01*
X140752184Y-129254390D01*
X140668020Y-129132457D01*
X140668017Y-129132454D01*
X140668015Y-129132452D01*
X140557123Y-129034210D01*
X140425931Y-128965356D01*
X140282081Y-128929900D01*
X140282080Y-128929900D01*
X140133920Y-128929900D01*
X140133919Y-128929900D01*
X139990068Y-128965356D01*
X139858876Y-129034210D01*
X139747984Y-129132452D01*
X139747978Y-129132459D01*
X139663817Y-129254387D01*
X139611278Y-129392920D01*
X139611277Y-129392922D01*
X139593419Y-129540000D01*
X137795000Y-129540000D01*
X137795000Y-128651000D01*
X152674419Y-128651000D01*
X152692277Y-128798077D01*
X152692278Y-128798079D01*
X152744817Y-128936612D01*
X152812184Y-129034210D01*
X152828980Y-129058543D01*
X152828982Y-129058545D01*
X152828984Y-129058547D01*
X152939876Y-129156789D01*
X152939878Y-129156790D01*
X153071067Y-129225643D01*
X153142993Y-129243371D01*
X153214919Y-129261100D01*
X153214920Y-129261100D01*
X153363081Y-129261100D01*
X153411030Y-129249280D01*
X153506933Y-129225643D01*
X153638122Y-129156790D01*
X153749020Y-129058543D01*
X153833184Y-128936610D01*
X153885722Y-128798079D01*
X153903581Y-128651000D01*
X153885722Y-128503921D01*
X153833184Y-128365390D01*
X153749020Y-128243457D01*
X153749017Y-128243454D01*
X153749015Y-128243452D01*
X153638123Y-128145210D01*
X153506931Y-128076356D01*
X153363081Y-128040900D01*
X153363080Y-128040900D01*
X153214920Y-128040900D01*
X153214919Y-128040900D01*
X153071068Y-128076356D01*
X152939876Y-128145210D01*
X152828984Y-128243452D01*
X152828978Y-128243459D01*
X152744817Y-128365387D01*
X152692278Y-128503920D01*
X152692277Y-128503922D01*
X152674419Y-128651000D01*
X137795000Y-128651000D01*
X137795000Y-128494043D01*
X137814685Y-128427004D01*
X137867489Y-128381249D01*
X137934908Y-128371554D01*
X137934952Y-128371196D01*
X137936282Y-128371357D01*
X137936647Y-128371305D01*
X137937962Y-128371561D01*
X137942398Y-128372100D01*
X137942400Y-128372100D01*
X138090561Y-128372100D01*
X138138511Y-128360280D01*
X138234413Y-128336643D01*
X138365602Y-128267790D01*
X138476500Y-128169543D01*
X138560664Y-128047610D01*
X138613202Y-127909079D01*
X138631061Y-127762000D01*
X138613202Y-127614921D01*
X138560664Y-127476390D01*
X138476500Y-127354457D01*
X138476497Y-127354454D01*
X138476495Y-127354452D01*
X138365603Y-127256210D01*
X138234411Y-127187356D01*
X138090561Y-127151900D01*
X138090560Y-127151900D01*
X137942400Y-127151900D01*
X137942398Y-127151900D01*
X137934952Y-127152804D01*
X137934579Y-127149736D01*
X137878851Y-127147276D01*
X137821796Y-127106946D01*
X137795603Y-127042171D01*
X137795000Y-127029956D01*
X137795000Y-125729999D01*
X143657419Y-125729999D01*
X143675277Y-125877077D01*
X143675278Y-125877079D01*
X143722897Y-126002641D01*
X143727817Y-126015612D01*
X143798783Y-126118424D01*
X143811980Y-126137543D01*
X143811982Y-126137545D01*
X143811984Y-126137547D01*
X143922876Y-126235789D01*
X143922878Y-126235790D01*
X144054067Y-126304643D01*
X144125993Y-126322371D01*
X144197919Y-126340100D01*
X144197920Y-126340100D01*
X144346081Y-126340100D01*
X144398705Y-126327129D01*
X144489933Y-126304643D01*
X144621122Y-126235790D01*
X144732020Y-126137543D01*
X144816184Y-126015610D01*
X144868722Y-125877079D01*
X144886581Y-125730000D01*
X144885006Y-125717029D01*
X158516928Y-125717029D01*
X158534786Y-125864106D01*
X158534787Y-125864108D01*
X158587326Y-126002641D01*
X158644934Y-126086100D01*
X158671489Y-126124572D01*
X158671491Y-126124574D01*
X158671493Y-126124576D01*
X158782385Y-126222818D01*
X158782387Y-126222819D01*
X158913576Y-126291672D01*
X158966201Y-126304643D01*
X159057428Y-126327129D01*
X159057429Y-126327129D01*
X159205590Y-126327129D01*
X159253539Y-126315309D01*
X159349442Y-126291672D01*
X159480631Y-126222819D01*
X159591529Y-126124572D01*
X159675693Y-126002639D01*
X159728231Y-125864108D01*
X159746090Y-125717029D01*
X159728231Y-125569950D01*
X159692600Y-125475999D01*
X166009419Y-125475999D01*
X166027277Y-125623077D01*
X166027278Y-125623079D01*
X166079816Y-125761610D01*
X166163980Y-125883543D01*
X166163982Y-125883545D01*
X166163984Y-125883547D01*
X166274876Y-125981789D01*
X166274878Y-125981790D01*
X166406067Y-126050643D01*
X166477993Y-126068371D01*
X166549919Y-126086100D01*
X166549920Y-126086100D01*
X166698081Y-126086100D01*
X166746031Y-126074281D01*
X166841933Y-126050643D01*
X166973122Y-125981790D01*
X167084020Y-125883543D01*
X167168184Y-125761610D01*
X167220722Y-125623079D01*
X167238581Y-125476000D01*
X167220722Y-125328921D01*
X167168184Y-125190390D01*
X167084020Y-125068457D01*
X167084017Y-125068454D01*
X167084015Y-125068452D01*
X166973123Y-124970210D01*
X166968910Y-124967999D01*
X173502419Y-124967999D01*
X173520277Y-125115077D01*
X173520278Y-125115079D01*
X173535553Y-125155357D01*
X173572817Y-125253612D01*
X173624799Y-125328921D01*
X173656980Y-125375543D01*
X173656982Y-125375545D01*
X173656984Y-125375547D01*
X173767876Y-125473789D01*
X173767878Y-125473790D01*
X173899067Y-125542643D01*
X173970993Y-125560371D01*
X174042919Y-125578100D01*
X174042920Y-125578100D01*
X174191081Y-125578100D01*
X174239030Y-125566281D01*
X174334933Y-125542643D01*
X174466122Y-125473790D01*
X174577020Y-125375543D01*
X174661184Y-125253610D01*
X174713722Y-125115079D01*
X174731581Y-124968000D01*
X174713722Y-124820921D01*
X174661184Y-124682390D01*
X174577020Y-124560457D01*
X174577017Y-124560454D01*
X174577015Y-124560452D01*
X174466123Y-124462210D01*
X174334931Y-124393356D01*
X174191081Y-124357900D01*
X174191080Y-124357900D01*
X174042920Y-124357900D01*
X174042919Y-124357900D01*
X173899068Y-124393356D01*
X173767876Y-124462210D01*
X173656984Y-124560452D01*
X173656978Y-124560459D01*
X173572817Y-124682387D01*
X173520278Y-124820920D01*
X173520277Y-124820922D01*
X173502419Y-124967999D01*
X166968910Y-124967999D01*
X166841931Y-124901356D01*
X166698081Y-124865900D01*
X166698080Y-124865900D01*
X166549920Y-124865900D01*
X166549919Y-124865900D01*
X166406068Y-124901356D01*
X166274876Y-124970210D01*
X166163984Y-125068452D01*
X166163978Y-125068459D01*
X166079817Y-125190387D01*
X166027278Y-125328920D01*
X166027277Y-125328922D01*
X166009419Y-125475999D01*
X159692600Y-125475999D01*
X159675693Y-125431419D01*
X159591529Y-125309486D01*
X159591526Y-125309483D01*
X159591524Y-125309481D01*
X159480632Y-125211239D01*
X159349440Y-125142385D01*
X159205590Y-125106929D01*
X159205589Y-125106929D01*
X159057429Y-125106929D01*
X159057428Y-125106929D01*
X158913577Y-125142385D01*
X158782385Y-125211239D01*
X158671493Y-125309481D01*
X158671487Y-125309488D01*
X158587326Y-125431416D01*
X158534787Y-125569949D01*
X158534786Y-125569951D01*
X158516928Y-125717029D01*
X144885006Y-125717029D01*
X144868722Y-125582921D01*
X144816184Y-125444390D01*
X144732020Y-125322457D01*
X144732017Y-125322454D01*
X144732015Y-125322452D01*
X144621123Y-125224210D01*
X144489931Y-125155356D01*
X144346081Y-125119900D01*
X144346080Y-125119900D01*
X144197920Y-125119900D01*
X144197919Y-125119900D01*
X144054068Y-125155356D01*
X143922876Y-125224210D01*
X143811984Y-125322452D01*
X143811978Y-125322459D01*
X143727817Y-125444387D01*
X143675278Y-125582920D01*
X143675277Y-125582922D01*
X143657419Y-125729999D01*
X137795000Y-125729999D01*
X137795000Y-124968000D01*
X149753419Y-124968000D01*
X149771277Y-125115077D01*
X149771278Y-125115079D01*
X149786553Y-125155357D01*
X149823817Y-125253612D01*
X149875799Y-125328921D01*
X149907980Y-125375543D01*
X149907982Y-125375545D01*
X149907984Y-125375547D01*
X150018876Y-125473789D01*
X150018878Y-125473790D01*
X150150067Y-125542643D01*
X150221993Y-125560371D01*
X150293919Y-125578100D01*
X150293920Y-125578100D01*
X150442081Y-125578100D01*
X150490030Y-125566281D01*
X150585933Y-125542643D01*
X150717122Y-125473790D01*
X150828020Y-125375543D01*
X150912184Y-125253610D01*
X150964722Y-125115079D01*
X150982581Y-124968000D01*
X150964722Y-124820921D01*
X150912184Y-124682390D01*
X150828020Y-124560457D01*
X150828017Y-124560454D01*
X150828015Y-124560452D01*
X150717123Y-124462210D01*
X150585931Y-124393356D01*
X150442081Y-124357900D01*
X150442080Y-124357900D01*
X150293920Y-124357900D01*
X150293919Y-124357900D01*
X150150068Y-124393356D01*
X150018876Y-124462210D01*
X149907984Y-124560452D01*
X149907978Y-124560459D01*
X149823817Y-124682387D01*
X149771278Y-124820920D01*
X149771277Y-124820922D01*
X149753419Y-124968000D01*
X137795000Y-124968000D01*
X137795000Y-124460000D01*
X129664000Y-124460000D01*
X129596961Y-124440315D01*
X129551206Y-124387511D01*
X129540000Y-124336000D01*
X129540000Y-123949000D01*
X129559685Y-123881961D01*
X129612489Y-123836206D01*
X129664000Y-123825000D01*
X132080000Y-123825000D01*
X132080000Y-123190000D01*
X136799419Y-123190000D01*
X136817277Y-123337077D01*
X136817278Y-123337079D01*
X136869816Y-123475610D01*
X136953980Y-123597543D01*
X136953982Y-123597545D01*
X136953984Y-123597547D01*
X137064876Y-123695789D01*
X137064878Y-123695790D01*
X137196067Y-123764643D01*
X137267993Y-123782371D01*
X137339919Y-123800100D01*
X137339920Y-123800100D01*
X137488081Y-123800100D01*
X137536031Y-123788281D01*
X137631933Y-123764643D01*
X137763122Y-123695790D01*
X137874020Y-123597543D01*
X137892341Y-123571000D01*
X139669619Y-123571000D01*
X139687477Y-123718077D01*
X139687478Y-123718079D01*
X139740016Y-123856610D01*
X139824180Y-123978543D01*
X139824182Y-123978545D01*
X139824184Y-123978547D01*
X139935076Y-124076789D01*
X139935078Y-124076790D01*
X140066267Y-124145643D01*
X140138193Y-124163371D01*
X140210119Y-124181100D01*
X140210120Y-124181100D01*
X140358281Y-124181100D01*
X140406230Y-124169280D01*
X140502133Y-124145643D01*
X140633322Y-124076790D01*
X140744220Y-123978543D01*
X140828384Y-123856610D01*
X140880922Y-123718079D01*
X140898781Y-123571000D01*
X145943419Y-123571000D01*
X145961277Y-123718077D01*
X145961278Y-123718079D01*
X146013816Y-123856610D01*
X146097980Y-123978543D01*
X146097982Y-123978545D01*
X146097984Y-123978547D01*
X146208876Y-124076789D01*
X146208878Y-124076790D01*
X146340067Y-124145643D01*
X146411993Y-124163371D01*
X146483919Y-124181100D01*
X146483920Y-124181100D01*
X146632081Y-124181100D01*
X146680031Y-124169280D01*
X146775933Y-124145643D01*
X146907122Y-124076790D01*
X147018020Y-123978543D01*
X147036341Y-123952000D01*
X152039419Y-123952000D01*
X152057277Y-124099077D01*
X152057278Y-124099079D01*
X152109816Y-124237610D01*
X152193980Y-124359543D01*
X152193982Y-124359545D01*
X152193984Y-124359547D01*
X152304876Y-124457789D01*
X152304878Y-124457790D01*
X152436067Y-124526643D01*
X152507993Y-124544371D01*
X152579919Y-124562100D01*
X152579920Y-124562100D01*
X152728081Y-124562100D01*
X152776031Y-124550280D01*
X152871933Y-124526643D01*
X153003122Y-124457790D01*
X153114020Y-124359543D01*
X153198184Y-124237610D01*
X153206793Y-124214910D01*
X159287329Y-124214910D01*
X159305187Y-124361987D01*
X159305188Y-124361989D01*
X159357726Y-124500520D01*
X159441890Y-124622453D01*
X159441892Y-124622455D01*
X159441894Y-124622457D01*
X159552786Y-124720699D01*
X159552788Y-124720700D01*
X159683977Y-124789553D01*
X159755903Y-124807281D01*
X159827829Y-124825010D01*
X159827830Y-124825010D01*
X159975991Y-124825010D01*
X160023940Y-124813190D01*
X160119843Y-124789553D01*
X160251032Y-124720700D01*
X160361930Y-124622453D01*
X160446094Y-124500520D01*
X160498632Y-124361989D01*
X160516491Y-124214910D01*
X160498632Y-124067831D01*
X160446094Y-123929300D01*
X160361930Y-123807367D01*
X160361927Y-123807364D01*
X160361925Y-123807362D01*
X160251033Y-123709120D01*
X160119841Y-123640266D01*
X159975991Y-123604810D01*
X159975990Y-123604810D01*
X159827830Y-123604810D01*
X159827829Y-123604810D01*
X159683978Y-123640266D01*
X159552786Y-123709120D01*
X159441894Y-123807362D01*
X159441888Y-123807369D01*
X159357727Y-123929297D01*
X159305188Y-124067830D01*
X159305187Y-124067832D01*
X159287329Y-124214910D01*
X153206793Y-124214910D01*
X153250722Y-124099079D01*
X153268581Y-123952000D01*
X153250722Y-123804921D01*
X153198184Y-123666390D01*
X153114020Y-123544457D01*
X153114017Y-123544454D01*
X153114015Y-123544452D01*
X153003123Y-123446210D01*
X152998910Y-123443999D01*
X155594905Y-123443999D01*
X155612763Y-123591077D01*
X155612764Y-123591079D01*
X155652475Y-123695789D01*
X155665303Y-123729612D01*
X155717285Y-123804921D01*
X155749466Y-123851543D01*
X155749468Y-123851545D01*
X155749470Y-123851547D01*
X155860362Y-123949789D01*
X155860364Y-123949790D01*
X155991553Y-124018643D01*
X156063479Y-124036371D01*
X156135405Y-124054100D01*
X156135406Y-124054100D01*
X156283567Y-124054100D01*
X156331517Y-124042281D01*
X156427419Y-124018643D01*
X156558608Y-123949790D01*
X156669506Y-123851543D01*
X156753670Y-123729610D01*
X156806208Y-123591079D01*
X156824067Y-123444000D01*
X156824067Y-123443999D01*
X170200419Y-123443999D01*
X170218277Y-123591077D01*
X170218278Y-123591079D01*
X170257989Y-123695789D01*
X170270817Y-123729612D01*
X170322799Y-123804921D01*
X170354980Y-123851543D01*
X170354982Y-123851545D01*
X170354984Y-123851547D01*
X170465876Y-123949789D01*
X170465878Y-123949790D01*
X170597067Y-124018643D01*
X170668993Y-124036371D01*
X170740919Y-124054100D01*
X170740920Y-124054100D01*
X170889081Y-124054100D01*
X170937031Y-124042280D01*
X171032933Y-124018643D01*
X171164122Y-123949790D01*
X171275020Y-123851543D01*
X171359184Y-123729610D01*
X171411722Y-123591079D01*
X171429581Y-123444000D01*
X171429581Y-123443999D01*
X177185419Y-123443999D01*
X177203277Y-123591077D01*
X177203278Y-123591079D01*
X177242989Y-123695789D01*
X177255817Y-123729612D01*
X177307799Y-123804921D01*
X177339980Y-123851543D01*
X177339982Y-123851545D01*
X177339984Y-123851547D01*
X177450876Y-123949789D01*
X177450878Y-123949790D01*
X177582067Y-124018643D01*
X177653993Y-124036371D01*
X177725919Y-124054100D01*
X177725920Y-124054100D01*
X177874081Y-124054100D01*
X177922030Y-124042281D01*
X178017933Y-124018643D01*
X178149122Y-123949790D01*
X178260020Y-123851543D01*
X178344184Y-123729610D01*
X178396722Y-123591079D01*
X178414581Y-123444000D01*
X178396722Y-123296921D01*
X178344184Y-123158390D01*
X178260020Y-123036457D01*
X178260017Y-123036454D01*
X178260015Y-123036452D01*
X178149123Y-122938210D01*
X178017931Y-122869356D01*
X177874081Y-122833900D01*
X177874080Y-122833900D01*
X177725920Y-122833900D01*
X177725919Y-122833900D01*
X177582068Y-122869356D01*
X177450876Y-122938210D01*
X177339984Y-123036452D01*
X177339978Y-123036459D01*
X177255817Y-123158387D01*
X177203278Y-123296920D01*
X177203277Y-123296922D01*
X177185419Y-123443999D01*
X171429581Y-123443999D01*
X171411722Y-123296921D01*
X171359184Y-123158390D01*
X171275020Y-123036457D01*
X171275017Y-123036454D01*
X171275015Y-123036452D01*
X171164123Y-122938210D01*
X171032931Y-122869356D01*
X170889081Y-122833900D01*
X170889080Y-122833900D01*
X170740920Y-122833900D01*
X170740919Y-122833900D01*
X170597068Y-122869356D01*
X170465876Y-122938210D01*
X170354984Y-123036452D01*
X170354978Y-123036459D01*
X170270817Y-123158387D01*
X170218278Y-123296920D01*
X170218277Y-123296922D01*
X170200419Y-123443999D01*
X156824067Y-123443999D01*
X156806208Y-123296921D01*
X156753670Y-123158390D01*
X156669506Y-123036457D01*
X156669503Y-123036454D01*
X156669501Y-123036452D01*
X156558609Y-122938210D01*
X156427417Y-122869356D01*
X156283567Y-122833900D01*
X156283566Y-122833900D01*
X156135406Y-122833900D01*
X156135405Y-122833900D01*
X155991554Y-122869356D01*
X155860362Y-122938210D01*
X155749470Y-123036452D01*
X155749464Y-123036459D01*
X155665303Y-123158387D01*
X155612764Y-123296920D01*
X155612763Y-123296922D01*
X155594905Y-123443999D01*
X152998910Y-123443999D01*
X152871931Y-123377356D01*
X152728081Y-123341900D01*
X152728080Y-123341900D01*
X152579920Y-123341900D01*
X152579919Y-123341900D01*
X152436068Y-123377356D01*
X152304876Y-123446210D01*
X152193984Y-123544452D01*
X152193978Y-123544459D01*
X152109817Y-123666387D01*
X152057278Y-123804920D01*
X152057277Y-123804922D01*
X152039419Y-123952000D01*
X147036341Y-123952000D01*
X147102184Y-123856610D01*
X147154722Y-123718079D01*
X147172581Y-123571000D01*
X147154722Y-123423921D01*
X147102184Y-123285390D01*
X147018020Y-123163457D01*
X147018017Y-123163454D01*
X147018015Y-123163452D01*
X146907123Y-123065210D01*
X146775931Y-122996356D01*
X146632081Y-122960900D01*
X146632080Y-122960900D01*
X146483920Y-122960900D01*
X146483919Y-122960900D01*
X146340068Y-122996356D01*
X146208876Y-123065210D01*
X146097984Y-123163452D01*
X146097978Y-123163459D01*
X146013817Y-123285387D01*
X145961278Y-123423920D01*
X145961277Y-123423922D01*
X145943419Y-123571000D01*
X140898781Y-123571000D01*
X140880922Y-123423921D01*
X140828384Y-123285390D01*
X140744220Y-123163457D01*
X140744217Y-123163454D01*
X140744215Y-123163452D01*
X140633323Y-123065210D01*
X140502131Y-122996356D01*
X140358281Y-122960900D01*
X140358280Y-122960900D01*
X140210120Y-122960900D01*
X140210119Y-122960900D01*
X140066268Y-122996356D01*
X139935076Y-123065210D01*
X139824184Y-123163452D01*
X139824178Y-123163459D01*
X139740017Y-123285387D01*
X139687478Y-123423920D01*
X139687477Y-123423922D01*
X139669619Y-123571000D01*
X137892341Y-123571000D01*
X137958184Y-123475610D01*
X138010722Y-123337079D01*
X138028581Y-123190000D01*
X138010722Y-123042921D01*
X137958184Y-122904390D01*
X137874020Y-122782457D01*
X137874017Y-122782454D01*
X137874015Y-122782452D01*
X137763123Y-122684210D01*
X137631931Y-122615356D01*
X137488081Y-122579900D01*
X137488080Y-122579900D01*
X137339920Y-122579900D01*
X137339919Y-122579900D01*
X137196068Y-122615356D01*
X137064876Y-122684210D01*
X136953984Y-122782452D01*
X136953978Y-122782459D01*
X136869817Y-122904387D01*
X136817278Y-123042920D01*
X136817277Y-123042922D01*
X136799419Y-123190000D01*
X132080000Y-123190000D01*
X132080000Y-121412000D01*
X153436419Y-121412000D01*
X153454277Y-121559077D01*
X153454278Y-121559079D01*
X153506817Y-121697612D01*
X153558799Y-121772921D01*
X153590980Y-121819543D01*
X153590982Y-121819545D01*
X153590984Y-121819547D01*
X153701876Y-121917789D01*
X153701878Y-121917790D01*
X153833067Y-121986643D01*
X153904993Y-122004371D01*
X153976919Y-122022100D01*
X153976920Y-122022100D01*
X154125081Y-122022100D01*
X154173031Y-122010281D01*
X154268933Y-121986643D01*
X154395911Y-121920000D01*
X166263419Y-121920000D01*
X166281277Y-122067077D01*
X166281278Y-122067079D01*
X166333816Y-122205610D01*
X166417980Y-122327543D01*
X166417982Y-122327545D01*
X166417984Y-122327547D01*
X166528876Y-122425789D01*
X166528878Y-122425790D01*
X166660067Y-122494643D01*
X166731993Y-122512371D01*
X166803919Y-122530100D01*
X166803920Y-122530100D01*
X166952081Y-122530100D01*
X167000030Y-122518280D01*
X167095933Y-122494643D01*
X167227122Y-122425790D01*
X167338020Y-122327543D01*
X167422184Y-122205610D01*
X167474722Y-122067079D01*
X167492581Y-121920000D01*
X167474722Y-121772921D01*
X167422184Y-121634390D01*
X167338020Y-121512457D01*
X167338017Y-121512454D01*
X167338015Y-121512452D01*
X167227123Y-121414210D01*
X167095931Y-121345356D01*
X166952081Y-121309900D01*
X166952080Y-121309900D01*
X166803920Y-121309900D01*
X166803919Y-121309900D01*
X166660068Y-121345356D01*
X166528876Y-121414210D01*
X166417984Y-121512452D01*
X166417978Y-121512459D01*
X166333817Y-121634387D01*
X166281278Y-121772920D01*
X166281277Y-121772922D01*
X166263419Y-121920000D01*
X154395911Y-121920000D01*
X154400122Y-121917790D01*
X154511020Y-121819543D01*
X154595184Y-121697610D01*
X154647722Y-121559079D01*
X154665581Y-121412000D01*
X154647722Y-121264921D01*
X154595184Y-121126390D01*
X154511020Y-121004457D01*
X154511017Y-121004454D01*
X154511015Y-121004452D01*
X154400123Y-120906210D01*
X154268931Y-120837356D01*
X154125081Y-120801900D01*
X154125080Y-120801900D01*
X153976920Y-120801900D01*
X153976919Y-120801900D01*
X153833068Y-120837356D01*
X153701876Y-120906210D01*
X153590984Y-121004452D01*
X153590978Y-121004459D01*
X153506817Y-121126387D01*
X153454278Y-121264920D01*
X153454277Y-121264922D01*
X153436419Y-121412000D01*
X132080000Y-121412000D01*
X132080000Y-120141999D01*
X181630419Y-120141999D01*
X181648277Y-120289077D01*
X181648278Y-120289079D01*
X181700816Y-120427610D01*
X181784980Y-120549543D01*
X181784982Y-120549545D01*
X181784984Y-120549547D01*
X181895876Y-120647789D01*
X181895878Y-120647790D01*
X182027067Y-120716643D01*
X182098993Y-120734371D01*
X182170919Y-120752100D01*
X182170920Y-120752100D01*
X182319081Y-120752100D01*
X182367030Y-120740280D01*
X182462933Y-120716643D01*
X182594122Y-120647790D01*
X182705020Y-120549543D01*
X182789184Y-120427610D01*
X182841722Y-120289079D01*
X182859581Y-120142000D01*
X182841722Y-119994921D01*
X182789184Y-119856390D01*
X182705020Y-119734457D01*
X182705017Y-119734454D01*
X182705015Y-119734452D01*
X182594123Y-119636210D01*
X182462931Y-119567356D01*
X182319081Y-119531900D01*
X182319080Y-119531900D01*
X182170920Y-119531900D01*
X182170919Y-119531900D01*
X182027068Y-119567356D01*
X181895876Y-119636210D01*
X181784984Y-119734452D01*
X181784978Y-119734459D01*
X181700817Y-119856387D01*
X181648278Y-119994920D01*
X181648277Y-119994922D01*
X181630419Y-120141999D01*
X132080000Y-120141999D01*
X132080000Y-119379999D01*
X155595419Y-119379999D01*
X155613277Y-119527077D01*
X155613278Y-119527079D01*
X155628553Y-119567357D01*
X155665817Y-119665612D01*
X155713334Y-119734452D01*
X155749980Y-119787543D01*
X155749982Y-119787545D01*
X155749984Y-119787547D01*
X155860876Y-119885789D01*
X155860878Y-119885790D01*
X155992067Y-119954643D01*
X156063993Y-119972371D01*
X156135919Y-119990100D01*
X156135920Y-119990100D01*
X156284081Y-119990100D01*
X156343139Y-119975543D01*
X156427933Y-119954643D01*
X156559122Y-119885790D01*
X156670020Y-119787543D01*
X156754184Y-119665610D01*
X156806722Y-119527079D01*
X156822043Y-119400900D01*
X160675419Y-119400900D01*
X160693277Y-119547977D01*
X160693278Y-119547979D01*
X160737890Y-119665612D01*
X160745817Y-119686512D01*
X160815552Y-119787540D01*
X160829980Y-119808443D01*
X160829982Y-119808445D01*
X160829984Y-119808447D01*
X160940876Y-119906689D01*
X160940878Y-119906690D01*
X161072067Y-119975543D01*
X161143993Y-119993271D01*
X161215919Y-120011000D01*
X161215920Y-120011000D01*
X161364081Y-120011000D01*
X161429318Y-119994920D01*
X161507933Y-119975543D01*
X161639122Y-119906690D01*
X161750020Y-119808443D01*
X161834184Y-119686510D01*
X161886722Y-119547979D01*
X161904581Y-119400900D01*
X161886722Y-119253821D01*
X161834184Y-119115290D01*
X161750020Y-118993357D01*
X161750017Y-118993354D01*
X161750015Y-118993352D01*
X161644642Y-118899999D01*
X167055419Y-118899999D01*
X167073277Y-119047077D01*
X167073278Y-119047079D01*
X167125817Y-119185612D01*
X167172899Y-119253822D01*
X167209980Y-119307543D01*
X167209982Y-119307545D01*
X167209984Y-119307547D01*
X167320876Y-119405789D01*
X167320878Y-119405790D01*
X167452067Y-119474643D01*
X167523993Y-119492371D01*
X167595919Y-119510100D01*
X167595920Y-119510100D01*
X167744081Y-119510100D01*
X167792031Y-119498281D01*
X167887933Y-119474643D01*
X168019122Y-119405790D01*
X168130020Y-119307543D01*
X168214184Y-119185610D01*
X168266722Y-119047079D01*
X168284581Y-118900000D01*
X168266722Y-118752921D01*
X168214184Y-118614390D01*
X168130020Y-118492457D01*
X168130017Y-118492454D01*
X168130015Y-118492452D01*
X168019123Y-118394210D01*
X167887931Y-118325356D01*
X167744081Y-118289900D01*
X167744080Y-118289900D01*
X167595920Y-118289900D01*
X167595919Y-118289900D01*
X167452068Y-118325356D01*
X167320876Y-118394210D01*
X167209984Y-118492452D01*
X167209978Y-118492459D01*
X167125817Y-118614387D01*
X167073278Y-118752920D01*
X167073277Y-118752922D01*
X167055419Y-118899999D01*
X161644642Y-118899999D01*
X161639123Y-118895110D01*
X161507931Y-118826256D01*
X161364081Y-118790800D01*
X161364080Y-118790800D01*
X161215920Y-118790800D01*
X161215919Y-118790800D01*
X161072068Y-118826256D01*
X160940876Y-118895110D01*
X160829984Y-118993352D01*
X160829978Y-118993359D01*
X160745817Y-119115287D01*
X160693278Y-119253820D01*
X160693277Y-119253822D01*
X160675419Y-119400900D01*
X156822043Y-119400900D01*
X156824581Y-119380000D01*
X156806722Y-119232921D01*
X156754184Y-119094390D01*
X156670020Y-118972457D01*
X156670017Y-118972454D01*
X156670015Y-118972452D01*
X156559123Y-118874210D01*
X156427931Y-118805356D01*
X156284081Y-118769900D01*
X156284080Y-118769900D01*
X156135920Y-118769900D01*
X156135919Y-118769900D01*
X155992068Y-118805356D01*
X155860876Y-118874210D01*
X155749984Y-118972452D01*
X155749978Y-118972459D01*
X155665817Y-119094387D01*
X155613278Y-119232920D01*
X155613277Y-119232922D01*
X155595419Y-119379999D01*
X132080000Y-119379999D01*
X132080000Y-118745000D01*
X129664000Y-118745000D01*
X129596961Y-118725315D01*
X129551206Y-118672511D01*
X129540000Y-118621000D01*
X129540000Y-117347999D01*
X153182419Y-117347999D01*
X153200277Y-117495077D01*
X153200278Y-117495079D01*
X153252816Y-117633610D01*
X153336980Y-117755543D01*
X153336982Y-117755545D01*
X153336984Y-117755547D01*
X153447876Y-117853789D01*
X153447878Y-117853790D01*
X153579067Y-117922643D01*
X153650993Y-117940371D01*
X153722919Y-117958100D01*
X153722920Y-117958100D01*
X153871081Y-117958100D01*
X153919031Y-117946281D01*
X154014933Y-117922643D01*
X154146122Y-117853790D01*
X154257020Y-117755543D01*
X154341184Y-117633610D01*
X154393722Y-117495079D01*
X154411581Y-117348000D01*
X154411396Y-117346480D01*
X166155419Y-117346480D01*
X166155604Y-117348000D01*
X166173277Y-117493557D01*
X166173278Y-117493559D01*
X166225817Y-117632092D01*
X166296783Y-117734904D01*
X166309980Y-117754023D01*
X166309982Y-117754025D01*
X166309984Y-117754027D01*
X166420876Y-117852269D01*
X166420878Y-117852270D01*
X166552067Y-117921123D01*
X166623993Y-117938851D01*
X166695919Y-117956580D01*
X166695920Y-117956580D01*
X166844081Y-117956580D01*
X166892030Y-117944761D01*
X166987933Y-117921123D01*
X167119122Y-117852270D01*
X167230020Y-117754023D01*
X167314184Y-117632090D01*
X167366722Y-117493559D01*
X167384581Y-117346480D01*
X167366722Y-117199401D01*
X167314184Y-117060870D01*
X167249390Y-116966999D01*
X175788419Y-116966999D01*
X175806277Y-117114077D01*
X175806278Y-117114079D01*
X175858816Y-117252610D01*
X175942980Y-117374543D01*
X175942982Y-117374545D01*
X175942984Y-117374547D01*
X176053876Y-117472789D01*
X176053878Y-117472790D01*
X176185067Y-117541643D01*
X176256993Y-117559371D01*
X176328919Y-117577100D01*
X176328920Y-117577100D01*
X176477081Y-117577100D01*
X176525030Y-117565280D01*
X176620933Y-117541643D01*
X176752122Y-117472790D01*
X176863020Y-117374543D01*
X176947184Y-117252610D01*
X176999722Y-117114079D01*
X177017581Y-116967000D01*
X176999722Y-116819921D01*
X176947184Y-116681390D01*
X176863020Y-116559457D01*
X176863017Y-116559454D01*
X176863015Y-116559452D01*
X176752123Y-116461210D01*
X176620931Y-116392356D01*
X176477081Y-116356900D01*
X176477080Y-116356900D01*
X176328920Y-116356900D01*
X176328919Y-116356900D01*
X176185068Y-116392356D01*
X176053876Y-116461210D01*
X175942984Y-116559452D01*
X175942978Y-116559459D01*
X175858817Y-116681387D01*
X175806278Y-116819920D01*
X175806277Y-116819922D01*
X175788419Y-116966999D01*
X167249390Y-116966999D01*
X167230020Y-116938937D01*
X167230017Y-116938934D01*
X167230015Y-116938932D01*
X167119123Y-116840690D01*
X166987931Y-116771836D01*
X166844081Y-116736380D01*
X166844080Y-116736380D01*
X166695920Y-116736380D01*
X166695919Y-116736380D01*
X166552068Y-116771836D01*
X166420876Y-116840690D01*
X166309984Y-116938932D01*
X166309978Y-116938939D01*
X166225817Y-117060867D01*
X166173278Y-117199400D01*
X166173277Y-117199402D01*
X166155419Y-117346479D01*
X166155419Y-117346480D01*
X154411396Y-117346480D01*
X154393722Y-117200921D01*
X154341184Y-117062390D01*
X154257020Y-116940457D01*
X154257017Y-116940454D01*
X154257015Y-116940452D01*
X154146123Y-116842210D01*
X154014931Y-116773356D01*
X153871081Y-116737900D01*
X153871080Y-116737900D01*
X153722920Y-116737900D01*
X153722919Y-116737900D01*
X153579068Y-116773356D01*
X153447876Y-116842210D01*
X153336984Y-116940452D01*
X153336978Y-116940459D01*
X153252817Y-117062387D01*
X153200278Y-117200920D01*
X153200277Y-117200922D01*
X153182419Y-117347999D01*
X129540000Y-117347999D01*
X129540000Y-116586000D01*
X138323419Y-116586000D01*
X138341277Y-116733077D01*
X138341278Y-116733079D01*
X138393816Y-116871610D01*
X138477980Y-116993543D01*
X138477982Y-116993545D01*
X138477984Y-116993547D01*
X138588876Y-117091789D01*
X138588878Y-117091790D01*
X138720067Y-117160643D01*
X138791993Y-117178371D01*
X138863919Y-117196100D01*
X138863920Y-117196100D01*
X139012081Y-117196100D01*
X139060030Y-117184281D01*
X139155933Y-117160643D01*
X139287122Y-117091790D01*
X139398020Y-116993543D01*
X139482184Y-116871610D01*
X139534722Y-116733079D01*
X139552581Y-116586000D01*
X139534722Y-116438921D01*
X139482184Y-116300390D01*
X139398020Y-116178457D01*
X139398017Y-116178454D01*
X139398015Y-116178452D01*
X139287123Y-116080210D01*
X139155931Y-116011356D01*
X139012081Y-115975900D01*
X139012080Y-115975900D01*
X138863920Y-115975900D01*
X138863919Y-115975900D01*
X138720068Y-116011356D01*
X138588876Y-116080210D01*
X138477984Y-116178452D01*
X138477978Y-116178459D01*
X138393817Y-116300387D01*
X138341278Y-116438920D01*
X138341277Y-116438922D01*
X138323419Y-116586000D01*
X129540000Y-116586000D01*
X129540000Y-115061999D01*
X133116419Y-115061999D01*
X133134277Y-115209077D01*
X133134278Y-115209079D01*
X133184894Y-115342543D01*
X133186817Y-115347612D01*
X133251133Y-115440789D01*
X133270980Y-115469543D01*
X133270982Y-115469545D01*
X133270984Y-115469547D01*
X133381876Y-115567789D01*
X133381878Y-115567790D01*
X133513067Y-115636643D01*
X133584993Y-115654371D01*
X133656919Y-115672100D01*
X133656920Y-115672100D01*
X133805081Y-115672100D01*
X133853031Y-115660281D01*
X133948933Y-115636643D01*
X134080122Y-115567790D01*
X134191020Y-115469543D01*
X134275184Y-115347610D01*
X134327722Y-115209079D01*
X134345581Y-115062000D01*
X134330160Y-114934999D01*
X154579419Y-114934999D01*
X154597277Y-115082077D01*
X154597278Y-115082079D01*
X154649816Y-115220610D01*
X154733980Y-115342543D01*
X154733982Y-115342545D01*
X154733984Y-115342547D01*
X154844876Y-115440789D01*
X154844878Y-115440790D01*
X154976067Y-115509643D01*
X155047993Y-115527371D01*
X155119919Y-115545100D01*
X155119920Y-115545100D01*
X155268081Y-115545100D01*
X155316031Y-115533280D01*
X155411933Y-115509643D01*
X155543122Y-115440790D01*
X155650140Y-115345980D01*
X163841509Y-115345980D01*
X163859367Y-115493057D01*
X163859368Y-115493059D01*
X163887709Y-115567789D01*
X163911907Y-115631592D01*
X163939868Y-115672100D01*
X163996070Y-115753523D01*
X163996072Y-115753525D01*
X163996074Y-115753527D01*
X164106966Y-115851769D01*
X164106968Y-115851770D01*
X164238157Y-115920623D01*
X164310083Y-115938351D01*
X164382009Y-115956080D01*
X164382010Y-115956080D01*
X164530171Y-115956080D01*
X164578120Y-115944260D01*
X164674023Y-115920623D01*
X164805212Y-115851770D01*
X164916110Y-115753523D01*
X165000274Y-115631590D01*
X165052812Y-115493059D01*
X165070671Y-115345980D01*
X165052812Y-115198901D01*
X165000274Y-115060370D01*
X164916110Y-114938437D01*
X164916107Y-114938434D01*
X164916105Y-114938432D01*
X164805213Y-114840190D01*
X164728636Y-114800000D01*
X166155419Y-114800000D01*
X166173277Y-114947077D01*
X166173278Y-114947079D01*
X166225816Y-115085610D01*
X166309980Y-115207543D01*
X166309982Y-115207545D01*
X166309984Y-115207547D01*
X166420876Y-115305789D01*
X166420878Y-115305790D01*
X166552067Y-115374643D01*
X166623993Y-115392371D01*
X166695919Y-115410100D01*
X166695920Y-115410100D01*
X166844081Y-115410100D01*
X166892031Y-115398281D01*
X166987933Y-115374643D01*
X167119122Y-115305790D01*
X167230020Y-115207543D01*
X167314184Y-115085610D01*
X167366722Y-114947079D01*
X167384581Y-114800000D01*
X167366722Y-114652921D01*
X167314184Y-114514390D01*
X167230020Y-114392457D01*
X167230017Y-114392454D01*
X167230015Y-114392452D01*
X167119123Y-114294210D01*
X166987931Y-114225356D01*
X166844081Y-114189900D01*
X166844080Y-114189900D01*
X166695920Y-114189900D01*
X166695919Y-114189900D01*
X166552068Y-114225356D01*
X166420876Y-114294210D01*
X166309984Y-114392452D01*
X166309978Y-114392459D01*
X166225817Y-114514387D01*
X166173278Y-114652920D01*
X166173277Y-114652922D01*
X166155419Y-114800000D01*
X164728636Y-114800000D01*
X164674021Y-114771336D01*
X164530171Y-114735880D01*
X164530170Y-114735880D01*
X164382010Y-114735880D01*
X164382009Y-114735880D01*
X164238158Y-114771336D01*
X164106966Y-114840190D01*
X163996074Y-114938432D01*
X163996068Y-114938439D01*
X163911907Y-115060367D01*
X163859368Y-115198900D01*
X163859367Y-115198902D01*
X163841509Y-115345980D01*
X155650140Y-115345980D01*
X155654020Y-115342543D01*
X155738184Y-115220610D01*
X155790722Y-115082079D01*
X155808581Y-114935000D01*
X155790722Y-114787921D01*
X155738184Y-114649390D01*
X155654020Y-114527457D01*
X155654017Y-114527454D01*
X155654015Y-114527452D01*
X155543123Y-114429210D01*
X155411931Y-114360356D01*
X155268081Y-114324900D01*
X155268080Y-114324900D01*
X155119920Y-114324900D01*
X155119919Y-114324900D01*
X154976068Y-114360356D01*
X154844876Y-114429210D01*
X154733984Y-114527452D01*
X154733978Y-114527459D01*
X154649817Y-114649387D01*
X154597278Y-114787920D01*
X154597277Y-114787922D01*
X154579419Y-114934999D01*
X134330160Y-114934999D01*
X134327722Y-114914921D01*
X134275184Y-114776390D01*
X134271695Y-114771336D01*
X134191021Y-114654459D01*
X134191020Y-114654457D01*
X134191017Y-114654454D01*
X134191015Y-114654452D01*
X134080123Y-114556210D01*
X133948931Y-114487356D01*
X133805081Y-114451900D01*
X133805080Y-114451900D01*
X133656920Y-114451900D01*
X133656919Y-114451900D01*
X133513068Y-114487356D01*
X133381876Y-114556210D01*
X133270984Y-114654452D01*
X133270978Y-114654459D01*
X133186817Y-114776387D01*
X133134278Y-114914920D01*
X133134277Y-114914922D01*
X133116419Y-115061999D01*
X129540000Y-115061999D01*
X129540000Y-113639599D01*
X163705419Y-113639599D01*
X163723277Y-113786677D01*
X163723278Y-113786679D01*
X163775816Y-113925210D01*
X163859980Y-114047143D01*
X163859982Y-114047145D01*
X163859984Y-114047147D01*
X163970876Y-114145389D01*
X163970878Y-114145390D01*
X164102067Y-114214243D01*
X164147154Y-114225356D01*
X164245919Y-114249700D01*
X164245920Y-114249700D01*
X164394081Y-114249700D01*
X164442031Y-114237880D01*
X164537933Y-114214243D01*
X164669122Y-114145390D01*
X164780020Y-114047143D01*
X164864184Y-113925210D01*
X164916722Y-113786679D01*
X164934581Y-113639600D01*
X164916722Y-113492521D01*
X164864184Y-113353990D01*
X164780020Y-113232057D01*
X164780017Y-113232054D01*
X164780015Y-113232052D01*
X164669123Y-113133810D01*
X164537931Y-113064956D01*
X164394081Y-113029500D01*
X164394080Y-113029500D01*
X164245920Y-113029500D01*
X164245919Y-113029500D01*
X164102068Y-113064956D01*
X163970876Y-113133810D01*
X163859984Y-113232052D01*
X163859978Y-113232059D01*
X163775817Y-113353987D01*
X163723278Y-113492520D01*
X163723277Y-113492522D01*
X163705419Y-113639599D01*
X129540000Y-113639599D01*
X129540000Y-112744520D01*
X157500419Y-112744520D01*
X157518277Y-112891597D01*
X157518278Y-112891599D01*
X157570817Y-113030132D01*
X157594855Y-113064957D01*
X157654980Y-113152063D01*
X157654982Y-113152065D01*
X157654984Y-113152067D01*
X157765876Y-113250309D01*
X157765878Y-113250310D01*
X157897067Y-113319163D01*
X157949075Y-113331982D01*
X158040919Y-113354620D01*
X158040920Y-113354620D01*
X158189081Y-113354620D01*
X158237031Y-113342801D01*
X158332933Y-113319163D01*
X158464122Y-113250310D01*
X158496370Y-113221740D01*
X158559600Y-113192020D01*
X158628864Y-113201202D01*
X158666844Y-113228987D01*
X158667044Y-113228763D01*
X158669442Y-113230888D01*
X158671411Y-113232328D01*
X158672662Y-113233740D01*
X158783554Y-113331982D01*
X158783556Y-113331983D01*
X158914745Y-113400836D01*
X158986671Y-113418564D01*
X159058597Y-113436293D01*
X159058598Y-113436293D01*
X159206759Y-113436293D01*
X159254709Y-113424473D01*
X159350611Y-113400836D01*
X159481800Y-113331983D01*
X159592698Y-113233736D01*
X159676862Y-113111803D01*
X159729400Y-112973272D01*
X159747259Y-112826193D01*
X159729400Y-112679114D01*
X159676862Y-112540583D01*
X159592698Y-112418650D01*
X159592695Y-112418647D01*
X159592693Y-112418645D01*
X159481801Y-112320403D01*
X159350609Y-112251549D01*
X159206759Y-112216093D01*
X159206758Y-112216093D01*
X159058598Y-112216093D01*
X159058597Y-112216093D01*
X158914746Y-112251549D01*
X158783554Y-112320403D01*
X158751307Y-112348972D01*
X158688074Y-112378693D01*
X158618810Y-112369509D01*
X158580834Y-112341725D01*
X158580635Y-112341951D01*
X158578225Y-112339816D01*
X158576265Y-112338382D01*
X158575019Y-112336976D01*
X158464123Y-112238730D01*
X158332931Y-112169876D01*
X158189081Y-112134420D01*
X158189080Y-112134420D01*
X158040920Y-112134420D01*
X158040919Y-112134420D01*
X157897068Y-112169876D01*
X157765876Y-112238730D01*
X157654984Y-112336972D01*
X157654978Y-112336979D01*
X157570817Y-112458907D01*
X157518278Y-112597440D01*
X157518277Y-112597442D01*
X157500419Y-112744520D01*
X129540000Y-112744520D01*
X129540000Y-110997999D01*
X139847419Y-110997999D01*
X139865277Y-111145077D01*
X139865278Y-111145079D01*
X139901815Y-111241420D01*
X139917817Y-111283612D01*
X139967637Y-111355789D01*
X140001980Y-111405543D01*
X140001982Y-111405545D01*
X140001984Y-111405547D01*
X140112876Y-111503789D01*
X140112878Y-111503790D01*
X140244067Y-111572643D01*
X140315993Y-111590371D01*
X140387919Y-111608100D01*
X140387920Y-111608100D01*
X140536081Y-111608100D01*
X140584031Y-111596281D01*
X140679933Y-111572643D01*
X140811122Y-111503790D01*
X140922020Y-111405543D01*
X141006184Y-111283610D01*
X141018172Y-111252000D01*
X152293419Y-111252000D01*
X152311277Y-111399077D01*
X152311278Y-111399079D01*
X152350989Y-111503789D01*
X152363817Y-111537612D01*
X152434783Y-111640424D01*
X152447980Y-111659543D01*
X152447982Y-111659545D01*
X152447984Y-111659547D01*
X152558876Y-111757789D01*
X152558878Y-111757790D01*
X152690067Y-111826643D01*
X152761993Y-111844371D01*
X152833919Y-111862100D01*
X152833920Y-111862100D01*
X152982081Y-111862100D01*
X153030030Y-111850281D01*
X153125933Y-111826643D01*
X153257122Y-111757790D01*
X153269064Y-111747210D01*
X166631629Y-111747210D01*
X166649487Y-111894287D01*
X166649488Y-111894289D01*
X166702026Y-112032820D01*
X166786190Y-112154753D01*
X166786192Y-112154755D01*
X166786194Y-112154757D01*
X166897086Y-112252999D01*
X166897088Y-112253000D01*
X167028277Y-112321853D01*
X167089633Y-112336976D01*
X167172129Y-112357310D01*
X167172130Y-112357310D01*
X167320291Y-112357310D01*
X167391265Y-112339816D01*
X167464143Y-112321853D01*
X167595332Y-112253000D01*
X167706230Y-112154753D01*
X167790394Y-112032820D01*
X167842932Y-111894289D01*
X167860791Y-111747210D01*
X167842932Y-111600131D01*
X167790394Y-111461600D01*
X167706230Y-111339667D01*
X167706227Y-111339664D01*
X167706225Y-111339662D01*
X167595333Y-111241420D01*
X167464141Y-111172566D01*
X167320291Y-111137110D01*
X167320290Y-111137110D01*
X167172130Y-111137110D01*
X167172129Y-111137110D01*
X167028278Y-111172566D01*
X166897086Y-111241420D01*
X166786194Y-111339662D01*
X166786188Y-111339669D01*
X166702027Y-111461597D01*
X166649488Y-111600130D01*
X166649487Y-111600132D01*
X166631629Y-111747210D01*
X153269064Y-111747210D01*
X153368020Y-111659543D01*
X153452184Y-111537610D01*
X153504722Y-111399079D01*
X153522581Y-111252000D01*
X153504722Y-111104921D01*
X153452184Y-110966390D01*
X153368020Y-110844457D01*
X153368017Y-110844454D01*
X153368015Y-110844452D01*
X153257123Y-110746210D01*
X153125931Y-110677356D01*
X152982081Y-110641900D01*
X152982080Y-110641900D01*
X152833920Y-110641900D01*
X152833919Y-110641900D01*
X152690068Y-110677356D01*
X152558876Y-110746210D01*
X152447984Y-110844452D01*
X152447978Y-110844459D01*
X152363817Y-110966387D01*
X152311278Y-111104920D01*
X152311277Y-111104922D01*
X152293419Y-111252000D01*
X141018172Y-111252000D01*
X141058722Y-111145079D01*
X141076581Y-110998000D01*
X141058722Y-110850921D01*
X141006184Y-110712390D01*
X140933433Y-110606991D01*
X168559427Y-110606991D01*
X168577285Y-110754069D01*
X168577286Y-110754071D01*
X168629824Y-110892602D01*
X168713988Y-111014535D01*
X168713990Y-111014537D01*
X168713992Y-111014539D01*
X168824884Y-111112781D01*
X168824886Y-111112782D01*
X168956075Y-111181635D01*
X169028001Y-111199363D01*
X169099927Y-111217092D01*
X169099928Y-111217092D01*
X169248089Y-111217092D01*
X169296038Y-111205273D01*
X169391941Y-111181635D01*
X169523130Y-111112782D01*
X169634028Y-111014535D01*
X169718192Y-110892602D01*
X169734349Y-110850000D01*
X170035419Y-110850000D01*
X170053277Y-110997077D01*
X170053278Y-110997079D01*
X170097158Y-111112782D01*
X170105817Y-111135612D01*
X170162059Y-111217092D01*
X170189980Y-111257543D01*
X170189982Y-111257545D01*
X170189984Y-111257547D01*
X170300876Y-111355789D01*
X170300878Y-111355790D01*
X170432067Y-111424643D01*
X170503993Y-111442371D01*
X170575919Y-111460100D01*
X170575920Y-111460100D01*
X170724081Y-111460100D01*
X170772031Y-111448280D01*
X170867933Y-111424643D01*
X170999122Y-111355790D01*
X171110020Y-111257543D01*
X171194184Y-111135610D01*
X171246722Y-110997079D01*
X171264581Y-110850000D01*
X171246722Y-110702921D01*
X171194184Y-110564390D01*
X171110020Y-110442457D01*
X171110017Y-110442454D01*
X171110015Y-110442452D01*
X170999123Y-110344210D01*
X170867931Y-110275356D01*
X170724081Y-110239900D01*
X170724080Y-110239900D01*
X170575920Y-110239900D01*
X170575919Y-110239900D01*
X170432068Y-110275356D01*
X170300876Y-110344210D01*
X170189984Y-110442452D01*
X170189978Y-110442459D01*
X170105817Y-110564387D01*
X170053278Y-110702920D01*
X170053277Y-110702922D01*
X170035419Y-110850000D01*
X169734349Y-110850000D01*
X169770730Y-110754071D01*
X169788589Y-110606992D01*
X169770730Y-110459913D01*
X169718192Y-110321382D01*
X169634028Y-110199449D01*
X169634025Y-110199446D01*
X169634023Y-110199444D01*
X169523131Y-110101202D01*
X169391939Y-110032348D01*
X169248089Y-109996892D01*
X169248088Y-109996892D01*
X169099928Y-109996892D01*
X169099927Y-109996892D01*
X168956076Y-110032348D01*
X168824884Y-110101202D01*
X168713992Y-110199444D01*
X168713986Y-110199451D01*
X168629825Y-110321379D01*
X168577286Y-110459912D01*
X168577285Y-110459914D01*
X168559427Y-110606991D01*
X140933433Y-110606991D01*
X140922020Y-110590457D01*
X140922017Y-110590454D01*
X140922015Y-110590452D01*
X140811123Y-110492210D01*
X140679931Y-110423356D01*
X140536081Y-110387900D01*
X140536080Y-110387900D01*
X140387920Y-110387900D01*
X140387919Y-110387900D01*
X140244068Y-110423356D01*
X140112876Y-110492210D01*
X140001984Y-110590452D01*
X140001978Y-110590459D01*
X139917817Y-110712387D01*
X139865278Y-110850920D01*
X139865277Y-110850922D01*
X139847419Y-110997999D01*
X129540000Y-110997999D01*
X129540000Y-109728000D01*
X142768419Y-109728000D01*
X142786277Y-109875077D01*
X142786278Y-109875079D01*
X142836894Y-110008543D01*
X142838817Y-110013612D01*
X142899276Y-110101202D01*
X142922980Y-110135543D01*
X142922982Y-110135545D01*
X142922984Y-110135547D01*
X143033876Y-110233789D01*
X143033878Y-110233790D01*
X143165067Y-110302643D01*
X143236993Y-110320371D01*
X143308919Y-110338100D01*
X143308920Y-110338100D01*
X143457081Y-110338100D01*
X143505030Y-110326280D01*
X143600933Y-110302643D01*
X143732122Y-110233790D01*
X143843020Y-110135543D01*
X143927184Y-110013610D01*
X143979722Y-109875079D01*
X143997581Y-109728000D01*
X143982160Y-109600999D01*
X151912419Y-109600999D01*
X151930277Y-109748077D01*
X151930278Y-109748079D01*
X151982816Y-109886610D01*
X152066980Y-110008543D01*
X152066982Y-110008545D01*
X152066984Y-110008547D01*
X152177876Y-110106789D01*
X152177878Y-110106790D01*
X152309067Y-110175643D01*
X152380993Y-110193371D01*
X152452919Y-110211100D01*
X152452920Y-110211100D01*
X152601081Y-110211100D01*
X152649030Y-110199281D01*
X152744933Y-110175643D01*
X152876122Y-110106790D01*
X152987020Y-110008543D01*
X153071184Y-109886610D01*
X153083172Y-109855000D01*
X153867719Y-109855000D01*
X153885577Y-110002077D01*
X153885578Y-110002079D01*
X153936194Y-110135543D01*
X153938117Y-110140612D01*
X154002433Y-110233789D01*
X154022280Y-110262543D01*
X154022282Y-110262545D01*
X154022284Y-110262547D01*
X154133176Y-110360789D01*
X154133178Y-110360790D01*
X154264367Y-110429643D01*
X154316335Y-110442452D01*
X154408219Y-110465100D01*
X154408220Y-110465100D01*
X154556381Y-110465100D01*
X154604330Y-110453280D01*
X154700233Y-110429643D01*
X154831422Y-110360790D01*
X154942320Y-110262543D01*
X155026484Y-110140610D01*
X155079022Y-110002079D01*
X155096881Y-109855000D01*
X155079022Y-109707921D01*
X155026484Y-109569390D01*
X154942320Y-109447457D01*
X154942317Y-109447454D01*
X154942315Y-109447452D01*
X154831423Y-109349210D01*
X154711574Y-109286309D01*
X154700233Y-109280357D01*
X154700232Y-109280356D01*
X154700231Y-109280356D01*
X154556381Y-109244900D01*
X154556380Y-109244900D01*
X154408220Y-109244900D01*
X154408219Y-109244900D01*
X154264368Y-109280356D01*
X154133176Y-109349210D01*
X154022284Y-109447452D01*
X154022278Y-109447459D01*
X153938117Y-109569387D01*
X153885578Y-109707920D01*
X153885577Y-109707922D01*
X153867719Y-109855000D01*
X153083172Y-109855000D01*
X153123722Y-109748079D01*
X153141581Y-109601000D01*
X153123722Y-109453921D01*
X153071184Y-109315390D01*
X152987020Y-109193457D01*
X152987017Y-109193454D01*
X152987015Y-109193452D01*
X152876123Y-109095210D01*
X152744931Y-109026356D01*
X152601081Y-108990900D01*
X152601080Y-108990900D01*
X152452920Y-108990900D01*
X152452919Y-108990900D01*
X152309068Y-109026356D01*
X152177876Y-109095210D01*
X152066984Y-109193452D01*
X152066978Y-109193459D01*
X151982817Y-109315387D01*
X151930278Y-109453920D01*
X151930277Y-109453922D01*
X151912419Y-109600999D01*
X143982160Y-109600999D01*
X143979722Y-109580921D01*
X143927184Y-109442390D01*
X143866130Y-109353938D01*
X143844248Y-109287586D01*
X143861713Y-109219934D01*
X143866123Y-109213072D01*
X143927184Y-109124610D01*
X143979722Y-108986079D01*
X143982160Y-108966000D01*
X150103439Y-108966000D01*
X150121297Y-109113077D01*
X150121298Y-109113079D01*
X150171914Y-109246543D01*
X150173837Y-109251612D01*
X150233246Y-109337680D01*
X150258000Y-109373543D01*
X150258002Y-109373545D01*
X150258004Y-109373547D01*
X150368896Y-109471789D01*
X150368898Y-109471790D01*
X150500087Y-109540643D01*
X150572013Y-109558371D01*
X150643939Y-109576100D01*
X150643940Y-109576100D01*
X150792101Y-109576100D01*
X150840051Y-109564281D01*
X150935953Y-109540643D01*
X151067142Y-109471790D01*
X151178040Y-109373543D01*
X151262204Y-109251610D01*
X151314742Y-109113079D01*
X151332601Y-108966000D01*
X151314742Y-108818921D01*
X151274192Y-108711999D01*
X166136419Y-108711999D01*
X166154277Y-108859077D01*
X166154278Y-108859079D01*
X166206817Y-108997612D01*
X166274184Y-109095210D01*
X166290980Y-109119543D01*
X166290982Y-109119545D01*
X166290984Y-109119547D01*
X166401876Y-109217789D01*
X166401878Y-109217790D01*
X166533067Y-109286643D01*
X166604993Y-109304371D01*
X166676919Y-109322100D01*
X166676920Y-109322100D01*
X166825081Y-109322100D01*
X166873030Y-109310281D01*
X166968933Y-109286643D01*
X167100122Y-109217790D01*
X167211020Y-109119543D01*
X167295184Y-108997610D01*
X167347722Y-108859079D01*
X167365581Y-108712000D01*
X167347722Y-108564921D01*
X167295184Y-108426390D01*
X167268257Y-108387379D01*
X167711219Y-108387379D01*
X167729077Y-108534457D01*
X167729078Y-108534459D01*
X167781617Y-108672992D01*
X167843771Y-108763037D01*
X167865780Y-108794923D01*
X167865782Y-108794925D01*
X167865784Y-108794927D01*
X167976676Y-108893169D01*
X167976678Y-108893170D01*
X168107867Y-108962023D01*
X168179793Y-108979751D01*
X168251719Y-108997480D01*
X168251720Y-108997480D01*
X168399881Y-108997480D01*
X168447830Y-108985661D01*
X168543733Y-108962023D01*
X168674922Y-108893170D01*
X168785820Y-108794923D01*
X168807829Y-108763037D01*
X169997456Y-108763037D01*
X170015314Y-108910114D01*
X170015315Y-108910116D01*
X170059399Y-109026357D01*
X170067854Y-109048649D01*
X170120286Y-109124610D01*
X170152017Y-109170580D01*
X170152019Y-109170582D01*
X170152021Y-109170584D01*
X170262913Y-109268826D01*
X170262915Y-109268827D01*
X170394104Y-109337680D01*
X170460073Y-109353940D01*
X170537956Y-109373137D01*
X170537957Y-109373137D01*
X170686118Y-109373137D01*
X170764001Y-109353940D01*
X170829970Y-109337680D01*
X170961159Y-109268827D01*
X171072057Y-109170580D01*
X171156221Y-109048647D01*
X171208759Y-108910116D01*
X171226618Y-108763037D01*
X171208759Y-108615958D01*
X171156221Y-108477427D01*
X171072057Y-108355494D01*
X171072054Y-108355491D01*
X171072052Y-108355489D01*
X170961160Y-108257247D01*
X170829968Y-108188393D01*
X170686118Y-108152937D01*
X170686117Y-108152937D01*
X170537957Y-108152937D01*
X170537956Y-108152937D01*
X170394105Y-108188393D01*
X170262913Y-108257247D01*
X170152021Y-108355489D01*
X170152015Y-108355496D01*
X170067854Y-108477424D01*
X170015315Y-108615957D01*
X170015314Y-108615959D01*
X169997456Y-108763037D01*
X168807829Y-108763037D01*
X168869984Y-108672990D01*
X168922522Y-108534459D01*
X168940381Y-108387380D01*
X168922522Y-108240301D01*
X168869984Y-108101770D01*
X168785820Y-107979837D01*
X168785817Y-107979834D01*
X168785815Y-107979832D01*
X168674923Y-107881590D01*
X168543731Y-107812736D01*
X168399881Y-107777280D01*
X168399880Y-107777280D01*
X168251720Y-107777280D01*
X168251719Y-107777280D01*
X168107868Y-107812736D01*
X167976676Y-107881590D01*
X167865784Y-107979832D01*
X167865778Y-107979839D01*
X167781617Y-108101767D01*
X167729078Y-108240300D01*
X167729077Y-108240302D01*
X167711219Y-108387379D01*
X167268257Y-108387379D01*
X167211020Y-108304457D01*
X167211017Y-108304454D01*
X167211015Y-108304452D01*
X167100123Y-108206210D01*
X166968931Y-108137356D01*
X166825081Y-108101900D01*
X166825080Y-108101900D01*
X166676920Y-108101900D01*
X166676919Y-108101900D01*
X166533068Y-108137356D01*
X166401876Y-108206210D01*
X166290984Y-108304452D01*
X166290978Y-108304459D01*
X166206817Y-108426387D01*
X166154278Y-108564920D01*
X166154277Y-108564922D01*
X166136419Y-108711999D01*
X151274192Y-108711999D01*
X151262204Y-108680390D01*
X151178040Y-108558457D01*
X151178037Y-108558454D01*
X151178035Y-108558452D01*
X151067143Y-108460210D01*
X150935951Y-108391356D01*
X150792101Y-108355900D01*
X150792100Y-108355900D01*
X150643940Y-108355900D01*
X150643939Y-108355900D01*
X150500088Y-108391356D01*
X150368896Y-108460210D01*
X150258004Y-108558452D01*
X150257998Y-108558459D01*
X150173837Y-108680387D01*
X150121298Y-108818920D01*
X150121297Y-108818922D01*
X150103439Y-108966000D01*
X143982160Y-108966000D01*
X143997581Y-108839000D01*
X143979722Y-108691921D01*
X143927184Y-108553390D01*
X143843020Y-108431457D01*
X143843017Y-108431454D01*
X143843015Y-108431452D01*
X143732123Y-108333210D01*
X143600931Y-108264356D01*
X143457081Y-108228900D01*
X143457080Y-108228900D01*
X143308920Y-108228900D01*
X143308919Y-108228900D01*
X143165068Y-108264356D01*
X143033876Y-108333210D01*
X142922984Y-108431452D01*
X142922978Y-108431459D01*
X142838817Y-108553387D01*
X142786278Y-108691920D01*
X142786277Y-108691922D01*
X142768419Y-108838999D01*
X142786277Y-108986077D01*
X142786278Y-108986079D01*
X142836894Y-109119543D01*
X142838817Y-109124612D01*
X142899868Y-109213060D01*
X142921751Y-109279415D01*
X142904285Y-109347067D01*
X142899868Y-109353940D01*
X142838817Y-109442387D01*
X142786278Y-109580920D01*
X142786277Y-109580922D01*
X142768419Y-109728000D01*
X129540000Y-109728000D01*
X129540000Y-107822999D01*
X149118419Y-107822999D01*
X149136277Y-107970077D01*
X149136278Y-107970079D01*
X149157995Y-108027343D01*
X149188817Y-108108612D01*
X149223882Y-108159412D01*
X149272980Y-108230543D01*
X149272982Y-108230545D01*
X149272984Y-108230547D01*
X149383876Y-108328789D01*
X149383878Y-108328790D01*
X149515067Y-108397643D01*
X149544871Y-108404989D01*
X149658919Y-108433100D01*
X149658920Y-108433100D01*
X149807081Y-108433100D01*
X149855030Y-108421281D01*
X149950933Y-108397643D01*
X150082122Y-108328790D01*
X150193020Y-108230543D01*
X150277184Y-108108610D01*
X150329722Y-107970079D01*
X150347581Y-107823000D01*
X150329722Y-107675921D01*
X150308438Y-107619800D01*
X154477819Y-107619800D01*
X154495677Y-107766877D01*
X154495678Y-107766879D01*
X154548216Y-107905410D01*
X154632380Y-108027343D01*
X154632382Y-108027345D01*
X154632384Y-108027347D01*
X154743276Y-108125589D01*
X154743278Y-108125590D01*
X154874467Y-108194443D01*
X154922207Y-108206210D01*
X155018319Y-108229900D01*
X155018320Y-108229900D01*
X155166481Y-108229900D01*
X155214431Y-108218080D01*
X155310333Y-108194443D01*
X155441522Y-108125590D01*
X155552420Y-108027343D01*
X155636584Y-107905410D01*
X155648572Y-107873799D01*
X157322619Y-107873799D01*
X157340477Y-108020877D01*
X157340478Y-108020879D01*
X157384652Y-108137357D01*
X157393017Y-108159412D01*
X157460548Y-108257247D01*
X157477180Y-108281343D01*
X157477182Y-108281345D01*
X157477184Y-108281347D01*
X157588076Y-108379589D01*
X157588078Y-108379590D01*
X157719267Y-108448443D01*
X157767007Y-108460210D01*
X157863119Y-108483900D01*
X157863120Y-108483900D01*
X158011281Y-108483900D01*
X158059230Y-108472080D01*
X158155133Y-108448443D01*
X158286322Y-108379590D01*
X158397220Y-108281343D01*
X158481384Y-108159410D01*
X158533922Y-108020879D01*
X158551781Y-107873800D01*
X158551781Y-107873799D01*
X158846619Y-107873799D01*
X158864477Y-108020877D01*
X158864478Y-108020879D01*
X158908652Y-108137357D01*
X158917017Y-108159412D01*
X158984548Y-108257247D01*
X159001180Y-108281343D01*
X159001182Y-108281345D01*
X159001184Y-108281347D01*
X159112076Y-108379589D01*
X159112078Y-108379590D01*
X159243267Y-108448443D01*
X159291007Y-108460210D01*
X159387119Y-108483900D01*
X159387120Y-108483900D01*
X159535281Y-108483900D01*
X159583231Y-108472080D01*
X159679133Y-108448443D01*
X159810322Y-108379590D01*
X159921220Y-108281343D01*
X160005384Y-108159410D01*
X160057922Y-108020879D01*
X160075781Y-107873800D01*
X160075781Y-107873799D01*
X160345219Y-107873799D01*
X160363077Y-108020877D01*
X160363078Y-108020879D01*
X160407252Y-108137357D01*
X160415617Y-108159412D01*
X160483148Y-108257247D01*
X160499780Y-108281343D01*
X160499782Y-108281345D01*
X160499784Y-108281347D01*
X160610676Y-108379589D01*
X160610678Y-108379590D01*
X160741867Y-108448443D01*
X160789607Y-108460210D01*
X160885719Y-108483900D01*
X160885720Y-108483900D01*
X161033881Y-108483900D01*
X161081831Y-108472080D01*
X161177733Y-108448443D01*
X161308922Y-108379590D01*
X161419820Y-108281343D01*
X161503984Y-108159410D01*
X161556522Y-108020879D01*
X161571297Y-107899200D01*
X161869219Y-107899200D01*
X161887077Y-108046277D01*
X161887078Y-108046279D01*
X161921619Y-108137357D01*
X161939617Y-108184812D01*
X161977919Y-108240302D01*
X162023780Y-108306743D01*
X162023782Y-108306745D01*
X162023784Y-108306747D01*
X162134676Y-108404989D01*
X162134678Y-108404990D01*
X162265867Y-108473843D01*
X162337793Y-108491571D01*
X162409719Y-108509300D01*
X162409720Y-108509300D01*
X162557881Y-108509300D01*
X162605831Y-108497480D01*
X162701733Y-108473843D01*
X162832922Y-108404990D01*
X162943820Y-108306743D01*
X163027984Y-108184810D01*
X163080522Y-108046279D01*
X163098381Y-107899200D01*
X163080522Y-107752121D01*
X163027984Y-107613590D01*
X162943820Y-107491657D01*
X162943817Y-107491654D01*
X162943815Y-107491652D01*
X162832923Y-107393410D01*
X162701731Y-107324556D01*
X162557881Y-107289100D01*
X162557880Y-107289100D01*
X162409720Y-107289100D01*
X162409719Y-107289100D01*
X162265868Y-107324556D01*
X162134676Y-107393410D01*
X162023784Y-107491652D01*
X162023778Y-107491659D01*
X161939617Y-107613587D01*
X161887078Y-107752120D01*
X161887077Y-107752122D01*
X161869219Y-107899200D01*
X161571297Y-107899200D01*
X161574381Y-107873800D01*
X161556522Y-107726721D01*
X161503984Y-107588190D01*
X161419820Y-107466257D01*
X161419817Y-107466254D01*
X161419815Y-107466252D01*
X161308923Y-107368010D01*
X161177731Y-107299156D01*
X161033881Y-107263700D01*
X161033880Y-107263700D01*
X160885720Y-107263700D01*
X160885719Y-107263700D01*
X160741868Y-107299156D01*
X160610676Y-107368010D01*
X160499784Y-107466252D01*
X160499778Y-107466259D01*
X160415617Y-107588187D01*
X160363078Y-107726720D01*
X160363077Y-107726722D01*
X160345219Y-107873799D01*
X160075781Y-107873799D01*
X160057922Y-107726721D01*
X160005384Y-107588190D01*
X159921220Y-107466257D01*
X159921217Y-107466254D01*
X159921215Y-107466252D01*
X159810323Y-107368010D01*
X159679131Y-107299156D01*
X159535281Y-107263700D01*
X159535280Y-107263700D01*
X159387120Y-107263700D01*
X159387119Y-107263700D01*
X159243268Y-107299156D01*
X159112076Y-107368010D01*
X159001184Y-107466252D01*
X159001178Y-107466259D01*
X158917017Y-107588187D01*
X158864478Y-107726720D01*
X158864477Y-107726722D01*
X158846619Y-107873799D01*
X158551781Y-107873799D01*
X158533922Y-107726721D01*
X158481384Y-107588190D01*
X158397220Y-107466257D01*
X158397217Y-107466254D01*
X158397215Y-107466252D01*
X158286323Y-107368010D01*
X158155131Y-107299156D01*
X158011281Y-107263700D01*
X158011280Y-107263700D01*
X157863120Y-107263700D01*
X157863119Y-107263700D01*
X157719268Y-107299156D01*
X157588076Y-107368010D01*
X157477184Y-107466252D01*
X157477178Y-107466259D01*
X157393017Y-107588187D01*
X157340478Y-107726720D01*
X157340477Y-107726722D01*
X157322619Y-107873799D01*
X155648572Y-107873799D01*
X155689122Y-107766879D01*
X155706981Y-107619800D01*
X155689122Y-107472721D01*
X155636584Y-107334190D01*
X155552420Y-107212257D01*
X155552417Y-107212254D01*
X155552415Y-107212252D01*
X155525438Y-107188352D01*
X168676772Y-107188352D01*
X168694630Y-107335430D01*
X168694631Y-107335432D01*
X168746698Y-107472722D01*
X168747170Y-107473965D01*
X168790947Y-107537387D01*
X168831333Y-107595896D01*
X168831335Y-107595898D01*
X168831337Y-107595900D01*
X168942229Y-107694142D01*
X168942231Y-107694143D01*
X169073420Y-107762996D01*
X169131372Y-107777280D01*
X169217272Y-107798453D01*
X169217273Y-107798453D01*
X169365434Y-107798453D01*
X169413384Y-107786634D01*
X169509286Y-107762996D01*
X169640475Y-107694143D01*
X169751373Y-107595896D01*
X169835537Y-107473963D01*
X169888075Y-107335432D01*
X169905934Y-107188353D01*
X169888075Y-107041274D01*
X169835537Y-106902743D01*
X169751373Y-106780810D01*
X169751370Y-106780807D01*
X169751368Y-106780805D01*
X169640476Y-106682563D01*
X169509284Y-106613709D01*
X169365434Y-106578253D01*
X169365433Y-106578253D01*
X169217273Y-106578253D01*
X169217272Y-106578253D01*
X169073421Y-106613709D01*
X168942229Y-106682563D01*
X168831337Y-106780805D01*
X168831331Y-106780812D01*
X168747170Y-106902740D01*
X168694631Y-107041273D01*
X168694630Y-107041275D01*
X168676772Y-107188352D01*
X155525438Y-107188352D01*
X155441523Y-107114010D01*
X155310331Y-107045156D01*
X155166481Y-107009700D01*
X155166480Y-107009700D01*
X155018320Y-107009700D01*
X155018319Y-107009700D01*
X154874468Y-107045156D01*
X154743276Y-107114010D01*
X154632384Y-107212252D01*
X154632378Y-107212259D01*
X154548217Y-107334187D01*
X154495678Y-107472720D01*
X154495677Y-107472722D01*
X154477819Y-107619800D01*
X150308438Y-107619800D01*
X150277184Y-107537390D01*
X150193020Y-107415457D01*
X150193017Y-107415454D01*
X150193015Y-107415452D01*
X150082123Y-107317210D01*
X149950931Y-107248356D01*
X149807081Y-107212900D01*
X149807080Y-107212900D01*
X149658920Y-107212900D01*
X149658919Y-107212900D01*
X149515068Y-107248356D01*
X149383876Y-107317210D01*
X149272984Y-107415452D01*
X149272978Y-107415459D01*
X149188817Y-107537387D01*
X149136278Y-107675920D01*
X149136277Y-107675922D01*
X149118419Y-107822999D01*
X129540000Y-107822999D01*
X129540000Y-105668066D01*
X135366622Y-105668066D01*
X135378440Y-105727476D01*
X135378441Y-105727479D01*
X135385566Y-105738142D01*
X135423463Y-105794860D01*
X135464995Y-105822610D01*
X135490843Y-105839881D01*
X135490846Y-105839882D01*
X135550256Y-105851700D01*
X135550259Y-105851700D01*
X137590389Y-105851700D01*
X137649799Y-105839882D01*
X137649800Y-105839881D01*
X137649803Y-105839881D01*
X137717183Y-105794860D01*
X137762204Y-105727480D01*
X137769034Y-105693145D01*
X137774023Y-105668066D01*
X137774023Y-104648000D01*
X140311533Y-104648000D01*
X140330656Y-104866582D01*
X140330658Y-104866592D01*
X140387444Y-105078524D01*
X140387448Y-105078533D01*
X140480177Y-105277392D01*
X140558980Y-105389934D01*
X140994293Y-104954620D01*
X141055616Y-104921135D01*
X141125307Y-104926119D01*
X141181241Y-104967990D01*
X141186291Y-104975264D01*
X141188563Y-104978800D01*
X141259548Y-105040308D01*
X141297323Y-105099085D01*
X141297323Y-105168955D01*
X141266027Y-105221702D01*
X140828387Y-105659341D01*
X140940930Y-105738145D01*
X141139789Y-105830874D01*
X141139798Y-105830878D01*
X141351730Y-105887664D01*
X141351740Y-105887666D01*
X141570322Y-105906790D01*
X141570324Y-105906790D01*
X141788905Y-105887666D01*
X141788915Y-105887664D01*
X142000847Y-105830878D01*
X142000856Y-105830874D01*
X142199717Y-105738144D01*
X142199721Y-105738142D01*
X142312257Y-105659342D01*
X142305092Y-105652177D01*
X154954423Y-105652177D01*
X154972281Y-105799254D01*
X154972282Y-105799256D01*
X155024820Y-105937787D01*
X155108984Y-106059720D01*
X155108986Y-106059722D01*
X155108988Y-106059724D01*
X155219880Y-106157966D01*
X155219882Y-106157967D01*
X155351071Y-106226820D01*
X155422997Y-106244548D01*
X155494923Y-106262277D01*
X155494924Y-106262277D01*
X155643085Y-106262277D01*
X155691035Y-106250457D01*
X155786937Y-106226820D01*
X155918126Y-106157967D01*
X156029024Y-106059720D01*
X156113188Y-105937787D01*
X156165726Y-105799256D01*
X156167810Y-105782090D01*
X166635509Y-105782090D01*
X166637060Y-105794860D01*
X166653367Y-105929167D01*
X166653368Y-105929169D01*
X166702878Y-106059717D01*
X166705907Y-106067702D01*
X166760712Y-106147100D01*
X166790070Y-106189633D01*
X166790072Y-106189635D01*
X166790074Y-106189637D01*
X166900966Y-106287879D01*
X166900968Y-106287880D01*
X167032157Y-106356733D01*
X167104083Y-106374461D01*
X167176009Y-106392190D01*
X167176010Y-106392190D01*
X167324171Y-106392190D01*
X167372121Y-106380371D01*
X167468023Y-106356733D01*
X167599212Y-106287880D01*
X167710110Y-106189633D01*
X167794274Y-106067700D01*
X167846812Y-105929169D01*
X167864671Y-105782090D01*
X167846812Y-105635011D01*
X167809641Y-105536999D01*
X169234719Y-105536999D01*
X169252577Y-105684077D01*
X169252578Y-105684079D01*
X169305116Y-105822610D01*
X169389280Y-105944543D01*
X169389282Y-105944545D01*
X169389284Y-105944547D01*
X169500176Y-106042789D01*
X169500178Y-106042790D01*
X169631367Y-106111643D01*
X169703293Y-106129371D01*
X169775219Y-106147100D01*
X169775220Y-106147100D01*
X169923381Y-106147100D01*
X169971330Y-106135280D01*
X170067233Y-106111643D01*
X170198422Y-106042790D01*
X170309320Y-105944543D01*
X170393484Y-105822610D01*
X170446022Y-105684079D01*
X170463881Y-105537000D01*
X179979419Y-105537000D01*
X179997277Y-105684077D01*
X179997278Y-105684079D01*
X180049816Y-105822610D01*
X180133980Y-105944543D01*
X180133982Y-105944545D01*
X180133984Y-105944547D01*
X180244876Y-106042789D01*
X180244878Y-106042790D01*
X180376067Y-106111643D01*
X180447993Y-106129371D01*
X180519919Y-106147100D01*
X180519920Y-106147100D01*
X180668081Y-106147100D01*
X180716031Y-106135280D01*
X180811933Y-106111643D01*
X180943122Y-106042790D01*
X181054020Y-105944543D01*
X181138184Y-105822610D01*
X181190722Y-105684079D01*
X181208581Y-105537000D01*
X181190722Y-105389921D01*
X181138184Y-105251390D01*
X181054020Y-105129457D01*
X181054017Y-105129454D01*
X181054015Y-105129452D01*
X180943123Y-105031210D01*
X180811931Y-104962356D01*
X180668081Y-104926900D01*
X180668080Y-104926900D01*
X180519920Y-104926900D01*
X180519919Y-104926900D01*
X180376068Y-104962356D01*
X180244876Y-105031210D01*
X180133984Y-105129452D01*
X180133978Y-105129459D01*
X180049817Y-105251387D01*
X179997278Y-105389920D01*
X179997277Y-105389922D01*
X179979419Y-105537000D01*
X170463881Y-105537000D01*
X170446022Y-105389921D01*
X170393484Y-105251390D01*
X170309320Y-105129457D01*
X170309317Y-105129454D01*
X170309315Y-105129452D01*
X170198423Y-105031210D01*
X170067231Y-104962356D01*
X169923381Y-104926900D01*
X169923380Y-104926900D01*
X169775220Y-104926900D01*
X169775219Y-104926900D01*
X169631368Y-104962356D01*
X169500176Y-105031210D01*
X169389284Y-105129452D01*
X169389278Y-105129459D01*
X169305117Y-105251387D01*
X169252578Y-105389920D01*
X169252577Y-105389922D01*
X169234719Y-105536999D01*
X167809641Y-105536999D01*
X167794274Y-105496480D01*
X167710110Y-105374547D01*
X167710107Y-105374544D01*
X167710105Y-105374542D01*
X167599213Y-105276300D01*
X167468021Y-105207446D01*
X167324171Y-105171990D01*
X167324170Y-105171990D01*
X167176010Y-105171990D01*
X167176009Y-105171990D01*
X167032158Y-105207446D01*
X166900966Y-105276300D01*
X166790074Y-105374542D01*
X166790068Y-105374549D01*
X166705907Y-105496477D01*
X166653368Y-105635010D01*
X166653367Y-105635012D01*
X166640845Y-105738142D01*
X166635509Y-105782090D01*
X156167810Y-105782090D01*
X156183585Y-105652177D01*
X156165726Y-105505098D01*
X156113188Y-105366567D01*
X156029024Y-105244634D01*
X156029021Y-105244631D01*
X156029019Y-105244629D01*
X155918127Y-105146387D01*
X155864996Y-105118502D01*
X156446921Y-105118502D01*
X156448451Y-105131100D01*
X156464779Y-105265579D01*
X156464780Y-105265581D01*
X156511936Y-105389922D01*
X156517319Y-105404114D01*
X156567382Y-105476643D01*
X156601482Y-105526045D01*
X156601484Y-105526047D01*
X156601486Y-105526049D01*
X156712378Y-105624291D01*
X156712380Y-105624292D01*
X156843569Y-105693145D01*
X156915495Y-105710873D01*
X156987421Y-105728602D01*
X156987422Y-105728602D01*
X157135583Y-105728602D01*
X157183532Y-105716782D01*
X157279435Y-105693145D01*
X157410624Y-105624292D01*
X157521522Y-105526045D01*
X157605686Y-105404112D01*
X157658224Y-105265581D01*
X157676083Y-105118502D01*
X157658224Y-104971423D01*
X157605686Y-104832892D01*
X157521522Y-104710959D01*
X157521519Y-104710956D01*
X157521517Y-104710954D01*
X157410625Y-104612712D01*
X157279433Y-104543858D01*
X157186695Y-104521000D01*
X157881419Y-104521000D01*
X157899277Y-104668077D01*
X157899278Y-104668079D01*
X157916937Y-104714643D01*
X157951817Y-104806612D01*
X157993218Y-104866592D01*
X158035980Y-104928543D01*
X158035982Y-104928545D01*
X158035984Y-104928547D01*
X158146876Y-105026789D01*
X158146878Y-105026790D01*
X158278067Y-105095643D01*
X158336855Y-105110133D01*
X158421919Y-105131100D01*
X158421920Y-105131100D01*
X158570081Y-105131100D01*
X158621191Y-105118502D01*
X158713933Y-105095643D01*
X158845122Y-105026790D01*
X158956020Y-104928543D01*
X159040184Y-104806610D01*
X159079634Y-104702590D01*
X167715009Y-104702590D01*
X167716473Y-104714643D01*
X167732867Y-104849667D01*
X167732868Y-104849669D01*
X167781840Y-104978798D01*
X167785407Y-104988202D01*
X167843906Y-105072952D01*
X167869570Y-105110133D01*
X167869572Y-105110135D01*
X167869574Y-105110137D01*
X167980466Y-105208379D01*
X167980468Y-105208380D01*
X168111657Y-105277233D01*
X168183583Y-105294961D01*
X168255509Y-105312690D01*
X168255510Y-105312690D01*
X168403671Y-105312690D01*
X168451621Y-105300870D01*
X168547523Y-105277233D01*
X168678712Y-105208380D01*
X168789610Y-105110133D01*
X168873774Y-104988200D01*
X168926312Y-104849669D01*
X168944171Y-104702590D01*
X168926312Y-104555511D01*
X168873774Y-104416980D01*
X168789610Y-104295047D01*
X168789607Y-104295044D01*
X168789605Y-104295042D01*
X168678713Y-104196800D01*
X168570486Y-104139999D01*
X177058419Y-104139999D01*
X177076277Y-104287077D01*
X177076278Y-104287079D01*
X177126894Y-104420543D01*
X177128817Y-104425612D01*
X177137476Y-104438156D01*
X177212980Y-104547543D01*
X177212982Y-104547545D01*
X177212984Y-104547547D01*
X177323876Y-104645789D01*
X177323878Y-104645790D01*
X177455067Y-104714643D01*
X177476351Y-104719889D01*
X177598919Y-104750100D01*
X177598920Y-104750100D01*
X177747081Y-104750100D01*
X177795030Y-104738280D01*
X177890933Y-104714643D01*
X178022122Y-104645790D01*
X178133020Y-104547543D01*
X178217184Y-104425610D01*
X178269722Y-104287079D01*
X178287581Y-104140000D01*
X178269722Y-103992921D01*
X178217184Y-103854390D01*
X178133020Y-103732457D01*
X178133017Y-103732454D01*
X178133015Y-103732452D01*
X178022123Y-103634210D01*
X178017912Y-103632000D01*
X178709419Y-103632000D01*
X178727277Y-103779077D01*
X178727278Y-103779079D01*
X178766989Y-103883789D01*
X178779817Y-103917612D01*
X178831799Y-103992921D01*
X178863980Y-104039543D01*
X178863982Y-104039545D01*
X178863984Y-104039547D01*
X178974876Y-104137789D01*
X178974878Y-104137790D01*
X179106067Y-104206643D01*
X179150014Y-104217475D01*
X179249919Y-104242100D01*
X179249920Y-104242100D01*
X179398081Y-104242100D01*
X179446031Y-104230280D01*
X179541933Y-104206643D01*
X179673122Y-104137790D01*
X179784020Y-104039543D01*
X179868184Y-103917610D01*
X179920722Y-103779079D01*
X179938581Y-103632000D01*
X179920722Y-103484921D01*
X179868184Y-103346390D01*
X179784020Y-103224457D01*
X179784017Y-103224454D01*
X179784015Y-103224452D01*
X179673123Y-103126210D01*
X179668910Y-103123999D01*
X184043419Y-103123999D01*
X184061277Y-103271077D01*
X184061278Y-103271079D01*
X184113332Y-103408335D01*
X184113817Y-103409612D01*
X184165799Y-103484921D01*
X184197980Y-103531543D01*
X184197982Y-103531545D01*
X184197984Y-103531547D01*
X184308876Y-103629789D01*
X184308878Y-103629790D01*
X184440067Y-103698643D01*
X184511993Y-103716371D01*
X184583919Y-103734100D01*
X184583920Y-103734100D01*
X184732081Y-103734100D01*
X184780031Y-103722281D01*
X184875933Y-103698643D01*
X185007122Y-103629790D01*
X185118020Y-103531543D01*
X185202184Y-103409610D01*
X185254722Y-103271079D01*
X185272581Y-103124000D01*
X185254722Y-102976921D01*
X185202184Y-102838390D01*
X185118020Y-102716457D01*
X185118017Y-102716454D01*
X185118015Y-102716452D01*
X185007123Y-102618210D01*
X184875931Y-102549356D01*
X184732081Y-102513900D01*
X184732080Y-102513900D01*
X184583920Y-102513900D01*
X184583919Y-102513900D01*
X184440068Y-102549356D01*
X184308876Y-102618210D01*
X184197984Y-102716452D01*
X184197978Y-102716459D01*
X184113817Y-102838387D01*
X184061278Y-102976920D01*
X184061277Y-102976922D01*
X184043419Y-103123999D01*
X179668910Y-103123999D01*
X179541931Y-103057356D01*
X179398081Y-103021900D01*
X179398080Y-103021900D01*
X179249920Y-103021900D01*
X179249919Y-103021900D01*
X179106068Y-103057356D01*
X178974876Y-103126210D01*
X178863984Y-103224452D01*
X178863978Y-103224459D01*
X178779817Y-103346387D01*
X178727278Y-103484920D01*
X178727277Y-103484922D01*
X178709419Y-103632000D01*
X178017912Y-103632000D01*
X177890931Y-103565356D01*
X177747081Y-103529900D01*
X177747080Y-103529900D01*
X177598920Y-103529900D01*
X177598919Y-103529900D01*
X177455068Y-103565356D01*
X177323876Y-103634210D01*
X177212984Y-103732452D01*
X177212978Y-103732459D01*
X177128817Y-103854387D01*
X177076278Y-103992920D01*
X177076277Y-103992922D01*
X177058419Y-104139999D01*
X168570486Y-104139999D01*
X168547521Y-104127946D01*
X168403671Y-104092490D01*
X168403670Y-104092490D01*
X168255510Y-104092490D01*
X168255509Y-104092490D01*
X168111658Y-104127946D01*
X167980466Y-104196800D01*
X167869574Y-104295042D01*
X167869568Y-104295049D01*
X167785407Y-104416977D01*
X167732868Y-104555510D01*
X167732867Y-104555512D01*
X167719199Y-104668079D01*
X167715009Y-104702590D01*
X159079634Y-104702590D01*
X159092722Y-104668079D01*
X159110581Y-104521000D01*
X159092722Y-104373921D01*
X159040184Y-104235390D01*
X158956020Y-104113457D01*
X158956017Y-104113454D01*
X158956015Y-104113452D01*
X158845123Y-104015210D01*
X158713931Y-103946356D01*
X158570081Y-103910900D01*
X158570080Y-103910900D01*
X158421920Y-103910900D01*
X158421919Y-103910900D01*
X158278068Y-103946356D01*
X158146876Y-104015210D01*
X158035984Y-104113452D01*
X158035978Y-104113459D01*
X157951817Y-104235387D01*
X157899278Y-104373920D01*
X157899277Y-104373922D01*
X157881419Y-104521000D01*
X157186695Y-104521000D01*
X157135583Y-104508402D01*
X157135582Y-104508402D01*
X156987422Y-104508402D01*
X156987421Y-104508402D01*
X156843570Y-104543858D01*
X156712378Y-104612712D01*
X156601486Y-104710954D01*
X156601480Y-104710961D01*
X156517319Y-104832889D01*
X156464780Y-104971422D01*
X156464779Y-104971424D01*
X156447937Y-105110133D01*
X156446921Y-105118502D01*
X155864996Y-105118502D01*
X155786935Y-105077533D01*
X155643085Y-105042077D01*
X155643084Y-105042077D01*
X155494924Y-105042077D01*
X155494923Y-105042077D01*
X155351072Y-105077533D01*
X155219880Y-105146387D01*
X155108988Y-105244629D01*
X155108982Y-105244636D01*
X155024821Y-105366564D01*
X154972282Y-105505097D01*
X154972281Y-105505099D01*
X154954423Y-105652177D01*
X142305092Y-105652177D01*
X141874617Y-105221702D01*
X141841132Y-105160379D01*
X141846116Y-105090687D01*
X141881093Y-105040310D01*
X141952084Y-104978798D01*
X141954353Y-104975266D01*
X141957529Y-104972514D01*
X141957891Y-104972097D01*
X141957951Y-104972148D01*
X142007154Y-104929510D01*
X142076313Y-104919563D01*
X142139870Y-104948585D01*
X142146352Y-104954621D01*
X142581665Y-105389934D01*
X142660465Y-105277398D01*
X142660467Y-105277394D01*
X142753197Y-105078533D01*
X142753201Y-105078524D01*
X142800500Y-104902000D01*
X150896419Y-104902000D01*
X150914277Y-105049077D01*
X150914278Y-105049079D01*
X150944761Y-105129457D01*
X150966817Y-105187612D01*
X150981152Y-105208380D01*
X151050980Y-105309543D01*
X151050982Y-105309545D01*
X151050984Y-105309547D01*
X151161876Y-105407789D01*
X151161878Y-105407790D01*
X151293067Y-105476643D01*
X151364993Y-105494371D01*
X151436919Y-105512100D01*
X151436920Y-105512100D01*
X151585081Y-105512100D01*
X151648464Y-105496477D01*
X151728933Y-105476643D01*
X151860122Y-105407790D01*
X151971020Y-105309543D01*
X152055184Y-105187610D01*
X152107722Y-105049079D01*
X152125581Y-104902000D01*
X152107722Y-104754921D01*
X152055184Y-104616390D01*
X151971020Y-104494457D01*
X151971017Y-104494454D01*
X151971015Y-104494452D01*
X151860123Y-104396210D01*
X151740274Y-104333309D01*
X151728933Y-104327357D01*
X151728932Y-104327356D01*
X151728931Y-104327356D01*
X151585081Y-104291900D01*
X151585080Y-104291900D01*
X151436920Y-104291900D01*
X151436919Y-104291900D01*
X151293068Y-104327356D01*
X151161876Y-104396210D01*
X151050984Y-104494452D01*
X151050978Y-104494459D01*
X150966817Y-104616387D01*
X150914278Y-104754920D01*
X150914277Y-104754922D01*
X150896419Y-104902000D01*
X142800500Y-104902000D01*
X142809987Y-104866592D01*
X142809989Y-104866582D01*
X142829113Y-104648000D01*
X142829113Y-104647999D01*
X142809989Y-104429417D01*
X142809987Y-104429407D01*
X142753201Y-104217475D01*
X142753197Y-104217466D01*
X142660468Y-104018607D01*
X142656542Y-104013000D01*
X154198419Y-104013000D01*
X154216277Y-104160077D01*
X154216278Y-104160079D01*
X154267465Y-104295049D01*
X154268817Y-104298612D01*
X154320799Y-104373921D01*
X154352980Y-104420543D01*
X154352982Y-104420545D01*
X154352984Y-104420547D01*
X154463876Y-104518789D01*
X154463878Y-104518790D01*
X154595067Y-104587643D01*
X154666993Y-104605371D01*
X154738919Y-104623100D01*
X154738920Y-104623100D01*
X154887081Y-104623100D01*
X154935030Y-104611281D01*
X155030933Y-104587643D01*
X155162122Y-104518790D01*
X155273020Y-104420543D01*
X155357184Y-104298610D01*
X155409722Y-104160079D01*
X155427581Y-104013000D01*
X155409722Y-103865921D01*
X155357184Y-103727390D01*
X155273020Y-103605457D01*
X155273017Y-103605454D01*
X155273015Y-103605452D01*
X155162123Y-103507210D01*
X155030931Y-103438356D01*
X154887081Y-103402900D01*
X154887080Y-103402900D01*
X154738920Y-103402900D01*
X154738919Y-103402900D01*
X154595068Y-103438356D01*
X154463876Y-103507210D01*
X154352984Y-103605452D01*
X154352978Y-103605459D01*
X154268817Y-103727387D01*
X154216278Y-103865920D01*
X154216277Y-103865922D01*
X154198419Y-104013000D01*
X142656542Y-104013000D01*
X142581664Y-103906064D01*
X142146351Y-104341377D01*
X142085028Y-104374862D01*
X142015336Y-104369878D01*
X141959403Y-104328006D01*
X141954353Y-104320733D01*
X141952082Y-104317199D01*
X141881096Y-104255690D01*
X141843321Y-104196912D01*
X141843321Y-104127043D01*
X141874617Y-104074296D01*
X142312257Y-103636657D01*
X142199715Y-103557854D01*
X142000856Y-103465125D01*
X142000847Y-103465121D01*
X141788915Y-103408335D01*
X141788905Y-103408333D01*
X141570324Y-103389210D01*
X141570322Y-103389210D01*
X141351740Y-103408333D01*
X141351730Y-103408335D01*
X141139798Y-103465121D01*
X141139789Y-103465125D01*
X140940928Y-103557855D01*
X140940926Y-103557856D01*
X140828387Y-103636656D01*
X140828387Y-103636657D01*
X141266028Y-104074297D01*
X141299513Y-104135620D01*
X141294529Y-104205311D01*
X141259549Y-104255691D01*
X141188562Y-104317200D01*
X141188560Y-104317203D01*
X141186285Y-104320743D01*
X141183108Y-104323495D01*
X141182755Y-104323903D01*
X141182696Y-104323852D01*
X141133479Y-104366494D01*
X141064320Y-104376434D01*
X141000766Y-104347405D01*
X140994293Y-104341378D01*
X140558980Y-103906064D01*
X140558979Y-103906064D01*
X140480179Y-104018603D01*
X140480178Y-104018605D01*
X140387448Y-104217466D01*
X140387444Y-104217475D01*
X140330658Y-104429407D01*
X140330656Y-104429417D01*
X140311533Y-104647999D01*
X140311533Y-104648000D01*
X137774023Y-104648000D01*
X137774023Y-103627933D01*
X137762205Y-103568522D01*
X137762204Y-103568520D01*
X137755077Y-103557854D01*
X137717183Y-103501140D01*
X137649803Y-103456119D01*
X137649802Y-103456118D01*
X137649799Y-103456117D01*
X137590389Y-103444300D01*
X137590387Y-103444300D01*
X135550259Y-103444300D01*
X135550257Y-103444300D01*
X135490846Y-103456117D01*
X135490843Y-103456118D01*
X135423463Y-103501140D01*
X135378441Y-103568520D01*
X135378441Y-103568522D01*
X135366623Y-103627933D01*
X135366623Y-103627936D01*
X135366623Y-105668064D01*
X135366623Y-105668066D01*
X135366622Y-105668066D01*
X129540000Y-105668066D01*
X129540000Y-103275899D01*
X150896419Y-103275899D01*
X150914277Y-103422977D01*
X150914278Y-103422979D01*
X150965429Y-103557854D01*
X150966817Y-103561512D01*
X151016997Y-103634210D01*
X151050980Y-103683443D01*
X151050982Y-103683445D01*
X151050984Y-103683447D01*
X151161876Y-103781689D01*
X151161878Y-103781690D01*
X151293067Y-103850543D01*
X151308663Y-103854387D01*
X151436919Y-103886000D01*
X151436920Y-103886000D01*
X151585081Y-103886000D01*
X151649953Y-103870010D01*
X151728933Y-103850543D01*
X151860122Y-103781690D01*
X151971020Y-103683443D01*
X152055184Y-103561510D01*
X152107722Y-103422979D01*
X152113184Y-103378000D01*
X162707419Y-103378000D01*
X162725277Y-103525077D01*
X162725278Y-103525079D01*
X162764989Y-103629789D01*
X162777817Y-103663612D01*
X162848283Y-103765699D01*
X162861980Y-103785543D01*
X162861982Y-103785545D01*
X162861984Y-103785547D01*
X162972876Y-103883789D01*
X162972878Y-103883790D01*
X163104067Y-103952643D01*
X163175993Y-103970371D01*
X163247919Y-103988100D01*
X163247920Y-103988100D01*
X163396081Y-103988100D01*
X163444031Y-103976280D01*
X163539933Y-103952643D01*
X163671122Y-103883790D01*
X163782020Y-103785543D01*
X163866184Y-103663610D01*
X163918722Y-103525079D01*
X163936581Y-103378000D01*
X163922242Y-103259910D01*
X167415329Y-103259910D01*
X167433187Y-103406987D01*
X167433188Y-103406989D01*
X167462743Y-103484920D01*
X167485727Y-103545522D01*
X167543893Y-103629790D01*
X167569890Y-103667453D01*
X167569892Y-103667455D01*
X167569894Y-103667457D01*
X167680786Y-103765699D01*
X167680788Y-103765700D01*
X167811977Y-103834553D01*
X167876850Y-103850543D01*
X167955829Y-103870010D01*
X167955830Y-103870010D01*
X168103991Y-103870010D01*
X168167374Y-103854387D01*
X168247843Y-103834553D01*
X168379032Y-103765700D01*
X168489930Y-103667453D01*
X168574094Y-103545520D01*
X168626632Y-103406989D01*
X168644491Y-103259910D01*
X168626632Y-103112831D01*
X168582703Y-102997000D01*
X169438419Y-102997000D01*
X169456277Y-103144077D01*
X169456278Y-103144079D01*
X169508816Y-103282610D01*
X169592980Y-103404543D01*
X169592982Y-103404545D01*
X169592984Y-103404547D01*
X169703876Y-103502789D01*
X169703878Y-103502790D01*
X169835067Y-103571643D01*
X169906993Y-103589371D01*
X169978919Y-103607100D01*
X169978920Y-103607100D01*
X170127081Y-103607100D01*
X170175031Y-103595280D01*
X170270933Y-103571643D01*
X170402122Y-103502790D01*
X170513020Y-103404543D01*
X170597184Y-103282610D01*
X170649722Y-103144079D01*
X170667581Y-102997000D01*
X170649722Y-102849921D01*
X170597184Y-102711390D01*
X170513020Y-102589457D01*
X170513017Y-102589454D01*
X170513015Y-102589452D01*
X170402123Y-102491210D01*
X170270931Y-102422356D01*
X170127081Y-102386900D01*
X170127080Y-102386900D01*
X169978920Y-102386900D01*
X169978919Y-102386900D01*
X169835068Y-102422356D01*
X169703876Y-102491210D01*
X169592984Y-102589452D01*
X169592978Y-102589459D01*
X169508817Y-102711387D01*
X169456278Y-102849920D01*
X169456277Y-102849922D01*
X169438419Y-102997000D01*
X168582703Y-102997000D01*
X168574094Y-102974300D01*
X168489930Y-102852367D01*
X168489927Y-102852364D01*
X168489925Y-102852362D01*
X168379033Y-102754120D01*
X168320871Y-102723595D01*
X168270658Y-102675010D01*
X168264291Y-102647901D01*
X168246656Y-102661563D01*
X168177056Y-102667695D01*
X168171738Y-102666508D01*
X168103991Y-102649810D01*
X168103990Y-102649810D01*
X167955830Y-102649810D01*
X167955829Y-102649810D01*
X167811978Y-102685266D01*
X167680786Y-102754120D01*
X167569894Y-102852362D01*
X167569888Y-102852369D01*
X167485727Y-102974297D01*
X167433188Y-103112830D01*
X167433187Y-103112832D01*
X167415329Y-103259910D01*
X163922242Y-103259910D01*
X163918722Y-103230921D01*
X163866184Y-103092390D01*
X163782020Y-102970457D01*
X163782017Y-102970454D01*
X163782015Y-102970452D01*
X163671123Y-102872210D01*
X163539931Y-102803356D01*
X163396081Y-102767900D01*
X163396080Y-102767900D01*
X163247920Y-102767900D01*
X163247919Y-102767900D01*
X163104068Y-102803356D01*
X162972876Y-102872210D01*
X162861984Y-102970452D01*
X162861978Y-102970459D01*
X162777817Y-103092387D01*
X162725278Y-103230920D01*
X162725277Y-103230922D01*
X162707419Y-103378000D01*
X152113184Y-103378000D01*
X152125581Y-103275900D01*
X152107722Y-103128821D01*
X152055184Y-102990290D01*
X151971020Y-102868357D01*
X151971017Y-102868354D01*
X151971015Y-102868352D01*
X151860123Y-102770110D01*
X151728931Y-102701256D01*
X151585081Y-102665800D01*
X151585080Y-102665800D01*
X151436920Y-102665800D01*
X151436919Y-102665800D01*
X151293068Y-102701256D01*
X151161876Y-102770110D01*
X151050984Y-102868352D01*
X151050978Y-102868359D01*
X150966817Y-102990287D01*
X150914278Y-103128820D01*
X150914277Y-103128822D01*
X150896419Y-103275899D01*
X129540000Y-103275899D01*
X129540000Y-102234999D01*
X145054419Y-102234999D01*
X145072277Y-102382077D01*
X145072278Y-102382079D01*
X145122894Y-102515543D01*
X145124817Y-102520612D01*
X145189133Y-102613789D01*
X145208980Y-102642543D01*
X145208982Y-102642545D01*
X145208984Y-102642547D01*
X145319876Y-102740789D01*
X145319878Y-102740790D01*
X145451067Y-102809643D01*
X145522993Y-102827371D01*
X145594919Y-102845100D01*
X145594920Y-102845100D01*
X145743081Y-102845100D01*
X145791031Y-102833280D01*
X145886933Y-102809643D01*
X146018122Y-102740790D01*
X146129020Y-102642543D01*
X146158723Y-102599510D01*
X154976909Y-102599510D01*
X154994767Y-102746587D01*
X154994768Y-102746589D01*
X155047306Y-102885120D01*
X155131470Y-103007053D01*
X155131472Y-103007055D01*
X155131474Y-103007057D01*
X155242366Y-103105299D01*
X155242368Y-103105300D01*
X155373557Y-103174153D01*
X155445483Y-103191881D01*
X155517409Y-103209610D01*
X155517410Y-103209610D01*
X155665571Y-103209610D01*
X155713520Y-103197790D01*
X155809423Y-103174153D01*
X155940612Y-103105300D01*
X156051510Y-103007053D01*
X156135674Y-102885120D01*
X156188212Y-102746589D01*
X156206071Y-102599510D01*
X156188212Y-102452431D01*
X156135674Y-102313900D01*
X156051510Y-102191967D01*
X156051507Y-102191964D01*
X156051505Y-102191962D01*
X155940613Y-102093720D01*
X155809421Y-102024866D01*
X155665571Y-101989410D01*
X155665570Y-101989410D01*
X155517410Y-101989410D01*
X155517409Y-101989410D01*
X155373558Y-102024866D01*
X155242366Y-102093720D01*
X155131474Y-102191962D01*
X155131468Y-102191969D01*
X155047307Y-102313897D01*
X154994768Y-102452430D01*
X154994767Y-102452432D01*
X154976909Y-102599510D01*
X146158723Y-102599510D01*
X146213184Y-102520610D01*
X146265722Y-102382079D01*
X146283581Y-102235000D01*
X146265722Y-102087921D01*
X146213184Y-101949390D01*
X146179092Y-101899999D01*
X167935419Y-101899999D01*
X167953277Y-102047077D01*
X167953278Y-102047079D01*
X168005817Y-102185612D01*
X168039907Y-102235000D01*
X168089980Y-102307543D01*
X168089982Y-102307545D01*
X168089984Y-102307547D01*
X168200876Y-102405789D01*
X168200878Y-102405790D01*
X168259039Y-102436315D01*
X168309251Y-102484898D01*
X168315617Y-102512007D01*
X168333254Y-102498346D01*
X168402854Y-102492214D01*
X168408153Y-102493396D01*
X168475920Y-102510100D01*
X168475921Y-102510100D01*
X168624081Y-102510100D01*
X168672031Y-102498281D01*
X168767933Y-102474643D01*
X168899122Y-102405790D01*
X169010020Y-102307543D01*
X169094184Y-102185610D01*
X169123618Y-102108000D01*
X174899419Y-102108000D01*
X174917277Y-102255077D01*
X174917278Y-102255079D01*
X174969817Y-102393612D01*
X174999292Y-102436314D01*
X175053980Y-102515543D01*
X175053982Y-102515545D01*
X175053984Y-102515547D01*
X175164876Y-102613789D01*
X175164878Y-102613790D01*
X175296067Y-102682643D01*
X175367993Y-102700371D01*
X175439919Y-102718100D01*
X175439920Y-102718100D01*
X175588081Y-102718100D01*
X175656418Y-102701256D01*
X175731933Y-102682643D01*
X175863122Y-102613790D01*
X175974020Y-102515543D01*
X176058184Y-102393610D01*
X176110722Y-102255079D01*
X176128581Y-102108000D01*
X176110722Y-101960921D01*
X176058184Y-101822390D01*
X175974020Y-101700457D01*
X175974017Y-101700454D01*
X175974015Y-101700452D01*
X175863123Y-101602210D01*
X175858912Y-101600000D01*
X184043419Y-101600000D01*
X184061277Y-101747077D01*
X184061278Y-101747079D01*
X184091761Y-101827457D01*
X184113817Y-101885612D01*
X184165799Y-101960921D01*
X184197980Y-102007543D01*
X184197982Y-102007545D01*
X184197984Y-102007547D01*
X184308876Y-102105789D01*
X184308878Y-102105790D01*
X184440067Y-102174643D01*
X184510332Y-102191962D01*
X184583919Y-102210100D01*
X184583920Y-102210100D01*
X184732081Y-102210100D01*
X184805639Y-102191969D01*
X184875933Y-102174643D01*
X185007122Y-102105790D01*
X185118020Y-102007543D01*
X185202184Y-101885610D01*
X185254722Y-101747079D01*
X185272581Y-101600000D01*
X185254722Y-101452921D01*
X185202184Y-101314390D01*
X185118020Y-101192457D01*
X185118017Y-101192454D01*
X185118015Y-101192452D01*
X185007123Y-101094210D01*
X184875931Y-101025356D01*
X184732081Y-100989900D01*
X184732080Y-100989900D01*
X184583920Y-100989900D01*
X184583919Y-100989900D01*
X184440068Y-101025356D01*
X184308876Y-101094210D01*
X184197984Y-101192452D01*
X184197978Y-101192459D01*
X184113817Y-101314387D01*
X184061278Y-101452920D01*
X184061277Y-101452922D01*
X184043419Y-101600000D01*
X175858912Y-101600000D01*
X175731931Y-101533356D01*
X175588081Y-101497900D01*
X175588080Y-101497900D01*
X175439920Y-101497900D01*
X175439919Y-101497900D01*
X175296068Y-101533356D01*
X175164876Y-101602210D01*
X175053984Y-101700452D01*
X175053978Y-101700459D01*
X174969817Y-101822387D01*
X174917278Y-101960920D01*
X174917277Y-101960922D01*
X174899419Y-102108000D01*
X169123618Y-102108000D01*
X169146722Y-102047079D01*
X169164581Y-101900000D01*
X169146722Y-101752921D01*
X169094184Y-101614390D01*
X169010020Y-101492457D01*
X169010017Y-101492454D01*
X169010015Y-101492452D01*
X168899123Y-101394210D01*
X168767931Y-101325356D01*
X168624081Y-101289900D01*
X168624080Y-101289900D01*
X168475920Y-101289900D01*
X168475919Y-101289900D01*
X168332068Y-101325356D01*
X168200876Y-101394210D01*
X168089984Y-101492452D01*
X168089978Y-101492459D01*
X168005817Y-101614387D01*
X167953278Y-101752920D01*
X167953277Y-101752922D01*
X167935419Y-101899999D01*
X146179092Y-101899999D01*
X146129020Y-101827457D01*
X146129017Y-101827454D01*
X146129015Y-101827452D01*
X146018123Y-101729210D01*
X145886931Y-101660356D01*
X145743081Y-101624900D01*
X145743080Y-101624900D01*
X145594920Y-101624900D01*
X145594919Y-101624900D01*
X145451068Y-101660356D01*
X145319876Y-101729210D01*
X145208984Y-101827452D01*
X145208978Y-101827459D01*
X145124817Y-101949387D01*
X145072278Y-102087920D01*
X145072277Y-102087922D01*
X145054419Y-102234999D01*
X129540000Y-102234999D01*
X129540000Y-100584000D01*
X145054419Y-100584000D01*
X145072277Y-100731077D01*
X145072278Y-100731079D01*
X145111989Y-100835789D01*
X145124817Y-100869612D01*
X145190658Y-100964999D01*
X145208980Y-100991543D01*
X145208982Y-100991545D01*
X145208984Y-100991547D01*
X145319876Y-101089789D01*
X145319878Y-101089790D01*
X145451067Y-101158643D01*
X145522993Y-101176371D01*
X145594919Y-101194100D01*
X145594920Y-101194100D01*
X145743081Y-101194100D01*
X145791030Y-101182281D01*
X145886933Y-101158643D01*
X146018122Y-101089790D01*
X146129020Y-100991543D01*
X146213184Y-100869610D01*
X146265722Y-100731079D01*
X146283581Y-100584000D01*
X146265722Y-100436921D01*
X146215539Y-100304599D01*
X154909619Y-100304599D01*
X154927477Y-100451677D01*
X154927478Y-100451679D01*
X154976822Y-100581789D01*
X154980017Y-100590212D01*
X155010793Y-100634799D01*
X155064180Y-100712143D01*
X155064182Y-100712145D01*
X155064184Y-100712147D01*
X155175076Y-100810389D01*
X155175078Y-100810390D01*
X155306267Y-100879243D01*
X155378193Y-100896971D01*
X155450119Y-100914700D01*
X155450120Y-100914700D01*
X155598281Y-100914700D01*
X155646231Y-100902880D01*
X155742133Y-100879243D01*
X155873322Y-100810390D01*
X155984220Y-100712143D01*
X156068384Y-100590210D01*
X156120922Y-100451679D01*
X156135697Y-100330000D01*
X156611419Y-100330000D01*
X156629277Y-100477077D01*
X156629278Y-100477079D01*
X156668989Y-100581789D01*
X156681817Y-100615612D01*
X156748446Y-100712140D01*
X156765980Y-100737543D01*
X156765982Y-100737545D01*
X156765984Y-100737547D01*
X156876876Y-100835789D01*
X156876878Y-100835790D01*
X157008067Y-100904643D01*
X157072044Y-100920412D01*
X157151919Y-100940100D01*
X157151920Y-100940100D01*
X157300081Y-100940100D01*
X157379956Y-100920412D01*
X157443933Y-100904643D01*
X157575122Y-100835790D01*
X157686020Y-100737543D01*
X157756939Y-100634799D01*
X162199419Y-100634799D01*
X162217277Y-100781877D01*
X162217278Y-100781879D01*
X162269816Y-100920410D01*
X162353980Y-101042343D01*
X162353982Y-101042345D01*
X162353984Y-101042347D01*
X162464876Y-101140589D01*
X162464878Y-101140590D01*
X162596067Y-101209443D01*
X162667993Y-101227171D01*
X162739919Y-101244900D01*
X162739920Y-101244900D01*
X162888081Y-101244900D01*
X162936031Y-101233080D01*
X163031933Y-101209443D01*
X163163122Y-101140590D01*
X163274020Y-101042343D01*
X163327407Y-100964999D01*
X169438419Y-100964999D01*
X169456277Y-101112077D01*
X169456278Y-101112079D01*
X169508816Y-101250610D01*
X169592980Y-101372543D01*
X169592982Y-101372545D01*
X169592984Y-101372547D01*
X169703876Y-101470789D01*
X169703878Y-101470790D01*
X169835067Y-101539643D01*
X169906993Y-101557371D01*
X169978919Y-101575100D01*
X169978920Y-101575100D01*
X170127081Y-101575100D01*
X170175030Y-101563280D01*
X170270933Y-101539643D01*
X170402122Y-101470790D01*
X170513020Y-101372543D01*
X170597184Y-101250610D01*
X170649722Y-101112079D01*
X170667581Y-100965000D01*
X170649722Y-100817921D01*
X170597184Y-100679390D01*
X170513020Y-100557457D01*
X170513017Y-100557454D01*
X170513015Y-100557452D01*
X170402123Y-100459210D01*
X170270931Y-100390356D01*
X170127081Y-100354900D01*
X170127080Y-100354900D01*
X169978920Y-100354900D01*
X169978919Y-100354900D01*
X169835068Y-100390356D01*
X169703876Y-100459210D01*
X169592984Y-100557452D01*
X169592978Y-100557459D01*
X169508817Y-100679387D01*
X169456278Y-100817920D01*
X169456277Y-100817922D01*
X169438419Y-100964999D01*
X163327407Y-100964999D01*
X163358184Y-100920410D01*
X163410722Y-100781879D01*
X163428581Y-100634800D01*
X163410722Y-100487721D01*
X163358184Y-100349190D01*
X163274020Y-100227257D01*
X163274017Y-100227254D01*
X163274015Y-100227252D01*
X163163123Y-100129010D01*
X163062118Y-100075999D01*
X184043419Y-100075999D01*
X184061277Y-100223077D01*
X184061278Y-100223079D01*
X184113817Y-100361612D01*
X184165799Y-100436921D01*
X184197980Y-100483543D01*
X184197982Y-100483545D01*
X184197984Y-100483547D01*
X184308876Y-100581789D01*
X184308878Y-100581790D01*
X184440067Y-100650643D01*
X184511993Y-100668371D01*
X184583919Y-100686100D01*
X184583920Y-100686100D01*
X184732081Y-100686100D01*
X184780031Y-100674280D01*
X184875933Y-100650643D01*
X185007122Y-100581790D01*
X185118020Y-100483543D01*
X185202184Y-100361610D01*
X185254722Y-100223079D01*
X185272581Y-100076000D01*
X185254722Y-99928921D01*
X185202184Y-99790390D01*
X185118020Y-99668457D01*
X185118017Y-99668454D01*
X185118015Y-99668452D01*
X185007123Y-99570210D01*
X184875931Y-99501356D01*
X184732081Y-99465900D01*
X184732080Y-99465900D01*
X184583920Y-99465900D01*
X184583919Y-99465900D01*
X184440068Y-99501356D01*
X184308876Y-99570210D01*
X184197984Y-99668452D01*
X184197978Y-99668459D01*
X184113817Y-99790387D01*
X184061278Y-99928920D01*
X184061277Y-99928922D01*
X184043419Y-100075999D01*
X163062118Y-100075999D01*
X163031931Y-100060156D01*
X162888081Y-100024700D01*
X162888080Y-100024700D01*
X162739920Y-100024700D01*
X162739919Y-100024700D01*
X162596068Y-100060156D01*
X162464876Y-100129010D01*
X162353984Y-100227252D01*
X162353978Y-100227259D01*
X162269817Y-100349187D01*
X162217278Y-100487720D01*
X162217277Y-100487722D01*
X162199419Y-100634799D01*
X157756939Y-100634799D01*
X157770184Y-100615610D01*
X157822722Y-100477079D01*
X157840581Y-100330000D01*
X157822722Y-100182921D01*
X157770184Y-100044390D01*
X157686020Y-99922457D01*
X157686017Y-99922454D01*
X157686015Y-99922452D01*
X157575123Y-99824210D01*
X157443931Y-99755356D01*
X157300081Y-99719900D01*
X157300080Y-99719900D01*
X157151920Y-99719900D01*
X157151919Y-99719900D01*
X157008068Y-99755356D01*
X156876876Y-99824210D01*
X156765984Y-99922452D01*
X156765978Y-99922459D01*
X156681817Y-100044387D01*
X156629278Y-100182920D01*
X156629277Y-100182922D01*
X156611419Y-100330000D01*
X156135697Y-100330000D01*
X156138781Y-100304600D01*
X156120922Y-100157521D01*
X156068384Y-100018990D01*
X155984220Y-99897057D01*
X155984217Y-99897054D01*
X155984215Y-99897052D01*
X155873323Y-99798810D01*
X155742131Y-99729956D01*
X155598281Y-99694500D01*
X155598280Y-99694500D01*
X155450120Y-99694500D01*
X155450119Y-99694500D01*
X155306268Y-99729956D01*
X155175076Y-99798810D01*
X155064184Y-99897052D01*
X155064178Y-99897059D01*
X154980017Y-100018987D01*
X154927478Y-100157520D01*
X154927477Y-100157522D01*
X154909619Y-100304599D01*
X146215539Y-100304599D01*
X146213184Y-100298390D01*
X146129020Y-100176457D01*
X146129017Y-100176454D01*
X146129015Y-100176452D01*
X146018123Y-100078210D01*
X145886931Y-100009356D01*
X145743081Y-99973900D01*
X145743080Y-99973900D01*
X145594920Y-99973900D01*
X145594919Y-99973900D01*
X145451068Y-100009356D01*
X145319876Y-100078210D01*
X145208984Y-100176452D01*
X145208978Y-100176459D01*
X145124817Y-100298387D01*
X145072278Y-100436920D01*
X145072277Y-100436922D01*
X145054419Y-100584000D01*
X129540000Y-100584000D01*
X129540000Y-98890402D01*
X138577419Y-98890402D01*
X138595277Y-99037480D01*
X138595278Y-99037482D01*
X138647816Y-99176013D01*
X138731980Y-99297946D01*
X138731982Y-99297948D01*
X138731984Y-99297950D01*
X138842876Y-99396192D01*
X138842878Y-99396193D01*
X138974067Y-99465046D01*
X139045993Y-99482774D01*
X139117919Y-99500503D01*
X139117920Y-99500503D01*
X139266081Y-99500503D01*
X139314031Y-99488683D01*
X139409933Y-99465046D01*
X139541122Y-99396193D01*
X139652020Y-99297946D01*
X139736184Y-99176013D01*
X139780182Y-99059999D01*
X169280439Y-99059999D01*
X169298297Y-99207077D01*
X169298298Y-99207079D01*
X169350836Y-99345610D01*
X169435000Y-99467543D01*
X169435002Y-99467545D01*
X169435004Y-99467547D01*
X169545896Y-99565789D01*
X169545898Y-99565790D01*
X169677087Y-99634643D01*
X169749013Y-99652371D01*
X169820939Y-99670100D01*
X169820940Y-99670100D01*
X169969101Y-99670100D01*
X170017051Y-99658281D01*
X170112953Y-99634643D01*
X170244142Y-99565790D01*
X170355040Y-99467543D01*
X170439204Y-99345610D01*
X170491742Y-99207079D01*
X170509601Y-99060000D01*
X170491742Y-98912921D01*
X170439204Y-98774390D01*
X170355040Y-98652457D01*
X170355037Y-98652454D01*
X170355035Y-98652452D01*
X170244143Y-98554210D01*
X170112951Y-98485356D01*
X169969101Y-98449900D01*
X169969100Y-98449900D01*
X169820940Y-98449900D01*
X169820939Y-98449900D01*
X169677088Y-98485356D01*
X169545896Y-98554210D01*
X169435004Y-98652452D01*
X169434998Y-98652459D01*
X169350837Y-98774387D01*
X169298298Y-98912920D01*
X169298297Y-98912922D01*
X169280439Y-99059999D01*
X139780182Y-99059999D01*
X139788722Y-99037482D01*
X139806581Y-98890403D01*
X139788722Y-98743324D01*
X139736184Y-98604793D01*
X139689831Y-98537639D01*
X139667949Y-98471287D01*
X139685414Y-98403635D01*
X139689821Y-98396777D01*
X139736184Y-98329610D01*
X139788722Y-98191079D01*
X139806581Y-98044000D01*
X139788722Y-97896921D01*
X139736184Y-97758390D01*
X139652020Y-97636457D01*
X139652017Y-97636454D01*
X139652015Y-97636452D01*
X139541123Y-97538210D01*
X139536912Y-97536000D01*
X169311419Y-97536000D01*
X169329277Y-97683077D01*
X169329278Y-97683079D01*
X169381817Y-97821612D01*
X169433799Y-97896921D01*
X169465980Y-97943543D01*
X169465982Y-97943545D01*
X169465984Y-97943547D01*
X169576876Y-98041789D01*
X169576878Y-98041790D01*
X169708067Y-98110643D01*
X169779993Y-98128371D01*
X169851919Y-98146100D01*
X169851920Y-98146100D01*
X170000081Y-98146100D01*
X170048030Y-98134280D01*
X170143933Y-98110643D01*
X170270913Y-98043999D01*
X184043419Y-98043999D01*
X184061277Y-98191077D01*
X184061278Y-98191079D01*
X184113817Y-98329612D01*
X184184783Y-98432424D01*
X184197980Y-98451543D01*
X184197982Y-98451545D01*
X184197984Y-98451547D01*
X184308876Y-98549789D01*
X184308878Y-98549790D01*
X184440067Y-98618643D01*
X184511993Y-98636371D01*
X184583919Y-98654100D01*
X184583920Y-98654100D01*
X184732081Y-98654100D01*
X184780031Y-98642280D01*
X184875933Y-98618643D01*
X185007122Y-98549790D01*
X185118020Y-98451543D01*
X185202184Y-98329610D01*
X185254722Y-98191079D01*
X185272581Y-98044000D01*
X185254722Y-97896921D01*
X185202184Y-97758390D01*
X185118020Y-97636457D01*
X185118017Y-97636454D01*
X185118015Y-97636452D01*
X185007123Y-97538210D01*
X184875931Y-97469356D01*
X184732081Y-97433900D01*
X184732080Y-97433900D01*
X184583920Y-97433900D01*
X184583919Y-97433900D01*
X184440068Y-97469356D01*
X184308876Y-97538210D01*
X184197984Y-97636452D01*
X184197978Y-97636459D01*
X184113817Y-97758387D01*
X184061278Y-97896920D01*
X184061277Y-97896922D01*
X184043419Y-98043999D01*
X170270913Y-98043999D01*
X170275122Y-98041790D01*
X170386020Y-97943543D01*
X170470184Y-97821610D01*
X170522722Y-97683079D01*
X170540581Y-97536000D01*
X170522722Y-97388921D01*
X170470184Y-97250390D01*
X170386020Y-97128457D01*
X170386017Y-97128454D01*
X170386015Y-97128452D01*
X170275123Y-97030210D01*
X170143931Y-96961356D01*
X170000081Y-96925900D01*
X170000080Y-96925900D01*
X169851920Y-96925900D01*
X169851919Y-96925900D01*
X169708068Y-96961356D01*
X169576876Y-97030210D01*
X169465984Y-97128452D01*
X169465978Y-97128459D01*
X169381817Y-97250387D01*
X169329278Y-97388920D01*
X169329277Y-97388922D01*
X169311419Y-97536000D01*
X139536912Y-97536000D01*
X139409931Y-97469356D01*
X139266081Y-97433900D01*
X139266080Y-97433900D01*
X139117920Y-97433900D01*
X139117919Y-97433900D01*
X138974068Y-97469356D01*
X138842876Y-97538210D01*
X138731984Y-97636452D01*
X138731978Y-97636459D01*
X138647817Y-97758387D01*
X138595278Y-97896920D01*
X138595277Y-97896922D01*
X138577419Y-98043999D01*
X138595277Y-98191077D01*
X138595278Y-98191079D01*
X138647817Y-98329612D01*
X138694167Y-98396761D01*
X138716050Y-98463115D01*
X138698585Y-98530767D01*
X138694167Y-98537640D01*
X138647819Y-98604786D01*
X138647817Y-98604789D01*
X138595278Y-98743323D01*
X138595277Y-98743325D01*
X138577419Y-98890402D01*
X129540000Y-98890402D01*
X129540000Y-96743519D01*
X167406419Y-96743519D01*
X167424277Y-96890597D01*
X167424278Y-96890599D01*
X167476816Y-97029130D01*
X167560980Y-97151063D01*
X167560982Y-97151065D01*
X167560984Y-97151067D01*
X167671876Y-97249309D01*
X167671878Y-97249310D01*
X167803067Y-97318163D01*
X167874993Y-97335891D01*
X167946919Y-97353620D01*
X167946920Y-97353620D01*
X168095081Y-97353620D01*
X168143031Y-97341801D01*
X168238933Y-97318163D01*
X168370122Y-97249310D01*
X168481020Y-97151063D01*
X168565184Y-97029130D01*
X168617722Y-96890599D01*
X168635581Y-96743520D01*
X168617722Y-96596441D01*
X168565184Y-96457910D01*
X168481020Y-96335977D01*
X168481017Y-96335974D01*
X168481015Y-96335972D01*
X168370123Y-96237730D01*
X168238931Y-96168876D01*
X168095081Y-96133420D01*
X168095080Y-96133420D01*
X167946920Y-96133420D01*
X167946919Y-96133420D01*
X167803068Y-96168876D01*
X167671876Y-96237730D01*
X167560984Y-96335972D01*
X167560978Y-96335979D01*
X167476817Y-96457907D01*
X167424278Y-96596440D01*
X167424277Y-96596442D01*
X167406419Y-96743519D01*
X129540000Y-96743519D01*
X129540000Y-96066590D01*
X160984009Y-96066590D01*
X161001867Y-96213667D01*
X161001868Y-96213669D01*
X161054406Y-96352200D01*
X161138570Y-96474133D01*
X161138572Y-96474135D01*
X161138574Y-96474137D01*
X161249466Y-96572379D01*
X161249468Y-96572380D01*
X161380657Y-96641233D01*
X161452583Y-96658961D01*
X161524509Y-96676690D01*
X161524510Y-96676690D01*
X161672671Y-96676690D01*
X161720621Y-96664871D01*
X161816523Y-96641233D01*
X161947712Y-96572380D01*
X162058610Y-96474133D01*
X162142774Y-96352200D01*
X162195312Y-96213669D01*
X162213171Y-96066590D01*
X162195312Y-95919511D01*
X162142774Y-95780980D01*
X162058610Y-95659047D01*
X162058607Y-95659044D01*
X162058605Y-95659042D01*
X162026951Y-95630999D01*
X162453419Y-95630999D01*
X162471277Y-95778077D01*
X162471278Y-95778079D01*
X162521894Y-95911543D01*
X162523817Y-95916612D01*
X162588133Y-96009789D01*
X162607980Y-96038543D01*
X162607982Y-96038545D01*
X162607984Y-96038547D01*
X162718876Y-96136789D01*
X162718878Y-96136790D01*
X162850067Y-96205643D01*
X162921993Y-96223371D01*
X162993919Y-96241100D01*
X162993920Y-96241100D01*
X163142081Y-96241100D01*
X163190031Y-96229281D01*
X163285933Y-96205643D01*
X163417122Y-96136790D01*
X163528020Y-96038543D01*
X163612184Y-95916610D01*
X163664722Y-95778079D01*
X163682581Y-95631000D01*
X163664722Y-95483921D01*
X163624172Y-95376999D01*
X168549419Y-95376999D01*
X168567277Y-95524077D01*
X168567278Y-95524079D01*
X168619816Y-95662610D01*
X168703980Y-95784543D01*
X168703982Y-95784545D01*
X168703984Y-95784547D01*
X168814876Y-95882789D01*
X168814878Y-95882790D01*
X168946067Y-95951643D01*
X169017993Y-95969371D01*
X169089919Y-95987100D01*
X169089920Y-95987100D01*
X169238081Y-95987100D01*
X169286030Y-95975280D01*
X169381933Y-95951643D01*
X169513122Y-95882790D01*
X169624020Y-95784543D01*
X169708184Y-95662610D01*
X169760722Y-95524079D01*
X169763160Y-95504000D01*
X173883419Y-95504000D01*
X173901277Y-95651077D01*
X173901278Y-95651079D01*
X173953816Y-95789610D01*
X174037980Y-95911543D01*
X174037982Y-95911545D01*
X174037984Y-95911547D01*
X174148876Y-96009789D01*
X174148878Y-96009790D01*
X174280067Y-96078643D01*
X174351993Y-96096371D01*
X174423919Y-96114100D01*
X174423920Y-96114100D01*
X174572081Y-96114100D01*
X174620030Y-96102281D01*
X174715933Y-96078643D01*
X174847122Y-96009790D01*
X174958020Y-95911543D01*
X175042184Y-95789610D01*
X175094722Y-95651079D01*
X175112581Y-95504000D01*
X175094722Y-95356921D01*
X175042184Y-95218390D01*
X174958020Y-95096457D01*
X174958017Y-95096454D01*
X174958015Y-95096452D01*
X174847123Y-94998210D01*
X174715931Y-94929356D01*
X174572081Y-94893900D01*
X174572080Y-94893900D01*
X174423920Y-94893900D01*
X174423919Y-94893900D01*
X174280068Y-94929356D01*
X174148876Y-94998210D01*
X174037984Y-95096452D01*
X174037978Y-95096459D01*
X173953817Y-95218387D01*
X173901278Y-95356920D01*
X173901277Y-95356922D01*
X173883419Y-95504000D01*
X169763160Y-95504000D01*
X169778581Y-95377000D01*
X169760722Y-95229921D01*
X169708184Y-95091390D01*
X169624020Y-94969457D01*
X169624017Y-94969454D01*
X169624015Y-94969452D01*
X169513123Y-94871210D01*
X169381931Y-94802356D01*
X169238081Y-94766900D01*
X169238080Y-94766900D01*
X169089920Y-94766900D01*
X169089919Y-94766900D01*
X168946068Y-94802356D01*
X168814876Y-94871210D01*
X168703984Y-94969452D01*
X168703978Y-94969459D01*
X168619817Y-95091387D01*
X168567278Y-95229920D01*
X168567277Y-95229922D01*
X168549419Y-95376999D01*
X163624172Y-95376999D01*
X163612184Y-95345390D01*
X163528020Y-95223457D01*
X163528017Y-95223454D01*
X163528015Y-95223452D01*
X163417123Y-95125210D01*
X163285931Y-95056356D01*
X163142081Y-95020900D01*
X163142080Y-95020900D01*
X162993920Y-95020900D01*
X162993919Y-95020900D01*
X162850068Y-95056356D01*
X162718876Y-95125210D01*
X162607984Y-95223452D01*
X162607978Y-95223459D01*
X162523817Y-95345387D01*
X162471278Y-95483920D01*
X162471277Y-95483922D01*
X162453419Y-95630999D01*
X162026951Y-95630999D01*
X161947713Y-95560800D01*
X161816521Y-95491946D01*
X161672671Y-95456490D01*
X161672670Y-95456490D01*
X161524510Y-95456490D01*
X161524509Y-95456490D01*
X161380658Y-95491946D01*
X161249466Y-95560800D01*
X161138574Y-95659042D01*
X161138568Y-95659049D01*
X161054407Y-95780977D01*
X161001868Y-95919510D01*
X161001867Y-95919512D01*
X160984009Y-96066590D01*
X129540000Y-96066590D01*
X129540000Y-94614999D01*
X164485419Y-94614999D01*
X164503277Y-94762077D01*
X164503278Y-94762079D01*
X164518553Y-94802357D01*
X164555817Y-94900612D01*
X164603334Y-94969452D01*
X164639980Y-95022543D01*
X164639982Y-95022545D01*
X164639984Y-95022547D01*
X164750876Y-95120789D01*
X164750878Y-95120790D01*
X164882067Y-95189643D01*
X164953993Y-95207371D01*
X165025919Y-95225100D01*
X165025920Y-95225100D01*
X165174081Y-95225100D01*
X165222030Y-95213281D01*
X165317933Y-95189643D01*
X165449122Y-95120790D01*
X165560020Y-95022543D01*
X165644184Y-94900610D01*
X165696722Y-94762079D01*
X165714581Y-94615000D01*
X165696722Y-94467921D01*
X165644184Y-94329390D01*
X165560020Y-94207457D01*
X165560017Y-94207454D01*
X165560015Y-94207452D01*
X165449123Y-94109210D01*
X165317931Y-94040356D01*
X165255625Y-94024999D01*
X169160419Y-94024999D01*
X169178277Y-94172077D01*
X169178278Y-94172079D01*
X169230817Y-94310612D01*
X169287937Y-94393364D01*
X169314980Y-94432543D01*
X169314982Y-94432545D01*
X169314984Y-94432547D01*
X169425876Y-94530789D01*
X169425878Y-94530790D01*
X169557067Y-94599643D01*
X169619368Y-94614999D01*
X169700919Y-94635100D01*
X169700920Y-94635100D01*
X169849081Y-94635100D01*
X169897031Y-94623280D01*
X169992933Y-94599643D01*
X170124122Y-94530790D01*
X170235020Y-94432543D01*
X170319184Y-94310610D01*
X170371722Y-94172079D01*
X170389581Y-94025000D01*
X170371722Y-93877921D01*
X170319184Y-93739390D01*
X170318046Y-93737742D01*
X170235021Y-93617459D01*
X170235020Y-93617457D01*
X170235017Y-93617454D01*
X170235015Y-93617452D01*
X170124123Y-93519210D01*
X169992931Y-93450356D01*
X169849081Y-93414900D01*
X169849080Y-93414900D01*
X169700920Y-93414900D01*
X169700919Y-93414900D01*
X169557068Y-93450356D01*
X169425876Y-93519210D01*
X169314984Y-93617452D01*
X169314978Y-93617459D01*
X169230817Y-93739387D01*
X169178278Y-93877920D01*
X169178277Y-93877922D01*
X169160419Y-94024999D01*
X165255625Y-94024999D01*
X165174081Y-94004900D01*
X165174080Y-94004900D01*
X165025920Y-94004900D01*
X165025919Y-94004900D01*
X164882068Y-94040356D01*
X164750876Y-94109210D01*
X164639984Y-94207452D01*
X164639978Y-94207459D01*
X164555817Y-94329387D01*
X164503278Y-94467920D01*
X164503277Y-94467922D01*
X164485419Y-94614999D01*
X129540000Y-94614999D01*
X129540000Y-92456001D01*
X129868713Y-92456001D01*
X129888635Y-92734556D01*
X129938068Y-92961789D01*
X129947997Y-93007431D01*
X129979167Y-93091000D01*
X130045589Y-93269087D01*
X130045591Y-93269091D01*
X130179421Y-93514183D01*
X130179426Y-93514191D01*
X130346774Y-93737742D01*
X130346790Y-93737760D01*
X130544239Y-93935209D01*
X130544257Y-93935225D01*
X130767808Y-94102573D01*
X130767816Y-94102578D01*
X131012908Y-94236408D01*
X131012912Y-94236410D01*
X131012914Y-94236411D01*
X131274569Y-94334003D01*
X131411008Y-94363683D01*
X131547443Y-94393364D01*
X131547445Y-94393364D01*
X131547449Y-94393365D01*
X131756271Y-94408300D01*
X131895729Y-94408300D01*
X132104551Y-94393365D01*
X132377431Y-94334003D01*
X132639086Y-94236411D01*
X132884189Y-94102575D01*
X133107750Y-93935219D01*
X133305219Y-93737750D01*
X133472575Y-93514189D01*
X133606411Y-93269086D01*
X133672833Y-93091000D01*
X164231419Y-93091000D01*
X164249277Y-93238077D01*
X164249278Y-93238079D01*
X164301817Y-93376612D01*
X164352719Y-93450356D01*
X164385980Y-93498543D01*
X164385982Y-93498545D01*
X164385984Y-93498547D01*
X164496876Y-93596789D01*
X164496878Y-93596790D01*
X164628067Y-93665643D01*
X164699993Y-93683371D01*
X164771919Y-93701100D01*
X164771920Y-93701100D01*
X164920081Y-93701100D01*
X164968031Y-93689280D01*
X165063933Y-93665643D01*
X165195122Y-93596790D01*
X165306020Y-93498543D01*
X165390184Y-93376610D01*
X165442722Y-93238079D01*
X165460581Y-93091000D01*
X165442722Y-92943921D01*
X165390184Y-92805390D01*
X165306020Y-92683457D01*
X165306017Y-92683454D01*
X165306015Y-92683452D01*
X165195123Y-92585210D01*
X165131884Y-92552020D01*
X168735419Y-92552020D01*
X168753277Y-92699097D01*
X168753278Y-92699099D01*
X168805816Y-92837630D01*
X168889980Y-92959563D01*
X168889982Y-92959565D01*
X168889984Y-92959567D01*
X169000876Y-93057809D01*
X169000878Y-93057810D01*
X169132067Y-93126663D01*
X169203993Y-93144391D01*
X169275919Y-93162120D01*
X169275920Y-93162120D01*
X169424081Y-93162120D01*
X169472031Y-93150300D01*
X169567933Y-93126663D01*
X169699122Y-93057810D01*
X169810020Y-92959563D01*
X169894184Y-92837630D01*
X169946722Y-92699099D01*
X169964581Y-92552020D01*
X169946722Y-92404941D01*
X169894184Y-92266410D01*
X169810020Y-92144477D01*
X169810017Y-92144474D01*
X169810015Y-92144472D01*
X169699123Y-92046230D01*
X169567931Y-91977376D01*
X169424081Y-91941920D01*
X169424080Y-91941920D01*
X169275920Y-91941920D01*
X169275919Y-91941920D01*
X169132068Y-91977376D01*
X169000876Y-92046230D01*
X168889984Y-92144472D01*
X168889978Y-92144479D01*
X168805817Y-92266407D01*
X168753278Y-92404940D01*
X168753277Y-92404942D01*
X168735419Y-92552020D01*
X165131884Y-92552020D01*
X165063931Y-92516356D01*
X164920081Y-92480900D01*
X164920080Y-92480900D01*
X164771920Y-92480900D01*
X164771919Y-92480900D01*
X164628068Y-92516356D01*
X164496876Y-92585210D01*
X164385984Y-92683452D01*
X164385978Y-92683459D01*
X164301817Y-92805387D01*
X164249278Y-92943920D01*
X164249277Y-92943922D01*
X164231419Y-93091000D01*
X133672833Y-93091000D01*
X133704003Y-93007431D01*
X133763365Y-92734551D01*
X133783287Y-92456000D01*
X133783287Y-92455999D01*
X145689419Y-92455999D01*
X145707277Y-92603077D01*
X145707278Y-92603079D01*
X145759816Y-92741610D01*
X145843980Y-92863543D01*
X145843982Y-92863545D01*
X145843984Y-92863547D01*
X145954876Y-92961789D01*
X145954878Y-92961790D01*
X146086067Y-93030643D01*
X146157993Y-93048371D01*
X146229919Y-93066100D01*
X146229920Y-93066100D01*
X146378081Y-93066100D01*
X146426030Y-93054281D01*
X146521933Y-93030643D01*
X146653122Y-92961790D01*
X146764020Y-92863543D01*
X146848184Y-92741610D01*
X146900722Y-92603079D01*
X146918581Y-92456000D01*
X146900722Y-92308921D01*
X146848184Y-92170390D01*
X146787130Y-92081938D01*
X146765248Y-92015586D01*
X146782696Y-91948000D01*
X152420419Y-91948000D01*
X152438277Y-92095077D01*
X152438278Y-92095079D01*
X152490817Y-92233612D01*
X152542799Y-92308921D01*
X152574980Y-92355543D01*
X152574982Y-92355545D01*
X152574984Y-92355547D01*
X152685876Y-92453789D01*
X152685878Y-92453790D01*
X152817067Y-92522643D01*
X152888993Y-92540371D01*
X152960919Y-92558100D01*
X152960920Y-92558100D01*
X153109081Y-92558100D01*
X153157030Y-92546281D01*
X153252933Y-92522643D01*
X153384122Y-92453790D01*
X153495020Y-92355543D01*
X153579184Y-92233610D01*
X153631722Y-92095079D01*
X153649581Y-91948000D01*
X153631722Y-91800921D01*
X153579184Y-91662390D01*
X153495020Y-91540457D01*
X153495017Y-91540454D01*
X153495015Y-91540452D01*
X153384123Y-91442210D01*
X153252931Y-91373356D01*
X153109081Y-91337900D01*
X153109080Y-91337900D01*
X152960920Y-91337900D01*
X152960919Y-91337900D01*
X152817068Y-91373356D01*
X152685876Y-91442210D01*
X152574984Y-91540452D01*
X152574978Y-91540459D01*
X152490817Y-91662387D01*
X152438278Y-91800920D01*
X152438277Y-91800922D01*
X152420419Y-91948000D01*
X146782696Y-91948000D01*
X146782713Y-91947934D01*
X146787123Y-91941072D01*
X146848184Y-91852610D01*
X146900722Y-91714079D01*
X146918581Y-91567000D01*
X146900722Y-91419921D01*
X146848184Y-91281390D01*
X146764020Y-91159457D01*
X146764017Y-91159454D01*
X146764015Y-91159452D01*
X146653123Y-91061210D01*
X146521931Y-90992356D01*
X146378081Y-90956900D01*
X146378080Y-90956900D01*
X146229920Y-90956900D01*
X146229919Y-90956900D01*
X146086068Y-90992356D01*
X145954876Y-91061210D01*
X145843984Y-91159452D01*
X145843978Y-91159459D01*
X145759817Y-91281387D01*
X145707278Y-91419920D01*
X145707277Y-91419922D01*
X145689419Y-91566999D01*
X145707277Y-91714077D01*
X145707278Y-91714079D01*
X145759817Y-91852612D01*
X145820868Y-91941060D01*
X145842751Y-92007415D01*
X145825285Y-92075067D01*
X145820868Y-92081940D01*
X145759817Y-92170387D01*
X145707278Y-92308920D01*
X145707277Y-92308922D01*
X145689419Y-92455999D01*
X133783287Y-92455999D01*
X133763365Y-92177449D01*
X133761829Y-92170390D01*
X133733683Y-92041009D01*
X133704003Y-91904569D01*
X133606411Y-91642914D01*
X133564958Y-91566999D01*
X133472578Y-91397816D01*
X133472573Y-91397808D01*
X133305225Y-91174257D01*
X133305209Y-91174239D01*
X133107760Y-90976790D01*
X133107742Y-90976774D01*
X132884191Y-90809426D01*
X132884183Y-90809421D01*
X132639091Y-90675591D01*
X132639087Y-90675589D01*
X132539888Y-90638590D01*
X132377431Y-90577997D01*
X132377427Y-90577996D01*
X132377424Y-90577995D01*
X132104556Y-90518635D01*
X131895729Y-90503700D01*
X131756271Y-90503700D01*
X131547443Y-90518635D01*
X131274575Y-90577995D01*
X131274570Y-90577996D01*
X131274569Y-90577997D01*
X131211308Y-90601591D01*
X131012912Y-90675589D01*
X131012908Y-90675591D01*
X130767816Y-90809421D01*
X130767808Y-90809426D01*
X130544257Y-90976774D01*
X130544239Y-90976790D01*
X130346790Y-91174239D01*
X130346774Y-91174257D01*
X130179426Y-91397808D01*
X130179421Y-91397816D01*
X130045591Y-91642908D01*
X130045589Y-91642912D01*
X129947995Y-91904575D01*
X129888635Y-92177443D01*
X129868713Y-92455998D01*
X129868713Y-92456001D01*
X129540000Y-92456001D01*
X129540000Y-90170000D01*
X161056419Y-90170000D01*
X161074277Y-90317077D01*
X161074278Y-90317079D01*
X161126816Y-90455610D01*
X161210980Y-90577543D01*
X161210982Y-90577545D01*
X161210984Y-90577547D01*
X161321876Y-90675789D01*
X161321878Y-90675790D01*
X161453067Y-90744643D01*
X161524993Y-90762371D01*
X161596919Y-90780100D01*
X161596920Y-90780100D01*
X161745081Y-90780100D01*
X161793030Y-90768280D01*
X161888933Y-90744643D01*
X162020122Y-90675790D01*
X162131020Y-90577543D01*
X162215184Y-90455610D01*
X162267722Y-90317079D01*
X162285581Y-90170000D01*
X162267722Y-90022921D01*
X162215184Y-89884390D01*
X162131020Y-89762457D01*
X162122393Y-89754814D01*
X162085268Y-89695628D01*
X162086034Y-89625762D01*
X162122393Y-89569185D01*
X162131020Y-89561543D01*
X162215184Y-89439610D01*
X162267722Y-89301079D01*
X162285581Y-89154000D01*
X162267722Y-89006921D01*
X162215184Y-88868390D01*
X162131020Y-88746457D01*
X162131017Y-88746454D01*
X162131015Y-88746452D01*
X162020123Y-88648210D01*
X161888931Y-88579356D01*
X161745081Y-88543900D01*
X161745080Y-88543900D01*
X161596920Y-88543900D01*
X161596919Y-88543900D01*
X161453068Y-88579356D01*
X161321876Y-88648210D01*
X161210984Y-88746452D01*
X161210978Y-88746459D01*
X161126817Y-88868387D01*
X161074278Y-89006920D01*
X161074277Y-89006922D01*
X161056419Y-89154000D01*
X161074277Y-89301077D01*
X161074278Y-89301079D01*
X161126817Y-89439612D01*
X161210978Y-89561540D01*
X161210981Y-89561544D01*
X161219607Y-89569186D01*
X161256732Y-89628376D01*
X161255964Y-89698242D01*
X161219607Y-89754814D01*
X161210981Y-89762455D01*
X161210978Y-89762459D01*
X161126817Y-89884387D01*
X161074278Y-90022920D01*
X161074277Y-90022922D01*
X161056419Y-90170000D01*
X129540000Y-90170000D01*
X129540000Y-89450000D01*
X137885419Y-89450000D01*
X137903277Y-89597077D01*
X137903278Y-89597079D01*
X137928737Y-89664210D01*
X137955817Y-89735612D01*
X137974348Y-89762459D01*
X138039980Y-89857543D01*
X138039982Y-89857545D01*
X138039984Y-89857547D01*
X138150876Y-89955789D01*
X138150878Y-89955790D01*
X138282067Y-90024643D01*
X138353993Y-90042371D01*
X138425919Y-90060100D01*
X138425920Y-90060100D01*
X138574081Y-90060100D01*
X138622030Y-90048281D01*
X138717933Y-90024643D01*
X138849122Y-89955790D01*
X138960020Y-89857543D01*
X139044184Y-89735610D01*
X139096722Y-89597079D01*
X139114581Y-89450000D01*
X139096722Y-89302921D01*
X139044184Y-89164390D01*
X138960020Y-89042457D01*
X138960017Y-89042454D01*
X138960015Y-89042452D01*
X138849123Y-88944210D01*
X138717931Y-88875356D01*
X138574081Y-88839900D01*
X138574080Y-88839900D01*
X138425920Y-88839900D01*
X138425919Y-88839900D01*
X138282068Y-88875356D01*
X138150876Y-88944210D01*
X138039984Y-89042452D01*
X138039978Y-89042459D01*
X137955817Y-89164387D01*
X137903278Y-89302920D01*
X137903277Y-89302922D01*
X137885419Y-89450000D01*
X129540000Y-89450000D01*
X129540000Y-89212166D01*
X129907799Y-89212166D01*
X129919617Y-89271576D01*
X129919618Y-89271579D01*
X129919619Y-89271580D01*
X129964640Y-89338960D01*
X130032020Y-89383981D01*
X130032023Y-89383982D01*
X130091433Y-89395800D01*
X130091436Y-89395800D01*
X132036566Y-89395800D01*
X132095976Y-89383982D01*
X132095977Y-89383981D01*
X132095980Y-89383981D01*
X132163360Y-89338960D01*
X132208381Y-89271580D01*
X132220200Y-89212164D01*
X132220200Y-88392000D01*
X147340419Y-88392000D01*
X147358277Y-88539077D01*
X147358278Y-88539079D01*
X147410816Y-88677610D01*
X147494980Y-88799543D01*
X147494982Y-88799545D01*
X147494984Y-88799547D01*
X147605876Y-88897789D01*
X147605878Y-88897790D01*
X147737067Y-88966643D01*
X147808993Y-88984371D01*
X147880919Y-89002100D01*
X147880920Y-89002100D01*
X148029081Y-89002100D01*
X148077030Y-88990281D01*
X148172933Y-88966643D01*
X148304122Y-88897790D01*
X148415020Y-88799543D01*
X148499184Y-88677610D01*
X148551722Y-88539079D01*
X148569581Y-88392000D01*
X148551722Y-88244921D01*
X148499184Y-88106390D01*
X148415020Y-87984457D01*
X148415017Y-87984454D01*
X148415015Y-87984452D01*
X148304123Y-87886210D01*
X148172931Y-87817356D01*
X148029081Y-87781900D01*
X148029080Y-87781900D01*
X147880920Y-87781900D01*
X147880919Y-87781900D01*
X147737068Y-87817356D01*
X147605876Y-87886210D01*
X147494984Y-87984452D01*
X147494978Y-87984459D01*
X147410817Y-88106387D01*
X147358278Y-88244920D01*
X147358277Y-88244922D01*
X147340419Y-88392000D01*
X132220200Y-88392000D01*
X132220200Y-87571836D01*
X132220200Y-87571833D01*
X132208382Y-87512423D01*
X132208381Y-87512420D01*
X132208380Y-87512419D01*
X132163360Y-87445040D01*
X132095980Y-87400019D01*
X132095979Y-87400018D01*
X132095976Y-87400017D01*
X132036566Y-87388200D01*
X132036564Y-87388200D01*
X130091436Y-87388200D01*
X130091434Y-87388200D01*
X130032023Y-87400017D01*
X130032020Y-87400018D01*
X129964640Y-87445040D01*
X129919618Y-87512420D01*
X129919617Y-87512423D01*
X129907800Y-87571833D01*
X129907800Y-87571836D01*
X129907800Y-89212164D01*
X129907800Y-89212166D01*
X129907799Y-89212166D01*
X129540000Y-89212166D01*
X129540000Y-85903104D01*
X129903918Y-85903104D01*
X129934830Y-86104894D01*
X129934833Y-86104907D01*
X130005734Y-86296343D01*
X130005738Y-86296352D01*
X130113721Y-86469597D01*
X130113726Y-86469602D01*
X130254376Y-86617566D01*
X130254380Y-86617569D01*
X130421941Y-86734196D01*
X130609549Y-86814705D01*
X130768426Y-86847354D01*
X130809522Y-86855800D01*
X130809523Y-86855800D01*
X131267310Y-86855800D01*
X131419507Y-86840323D01*
X131614287Y-86779210D01*
X131614287Y-86779209D01*
X131614296Y-86779207D01*
X131792796Y-86680131D01*
X131947699Y-86547152D01*
X132072663Y-86385713D01*
X132162570Y-86202423D01*
X132213742Y-86004787D01*
X132224082Y-85800896D01*
X132193168Y-85599097D01*
X132122264Y-85407652D01*
X132089264Y-85354708D01*
X132014278Y-85234402D01*
X132014273Y-85234397D01*
X131873623Y-85086433D01*
X131873619Y-85086430D01*
X131706059Y-84969804D01*
X131518451Y-84889295D01*
X131318478Y-84848200D01*
X131318477Y-84848200D01*
X130860691Y-84848200D01*
X130860690Y-84848200D01*
X130708492Y-84863676D01*
X130513712Y-84924789D01*
X130513702Y-84924794D01*
X130335208Y-85023866D01*
X130335201Y-85023871D01*
X130180299Y-85156849D01*
X130055338Y-85318285D01*
X130055334Y-85318291D01*
X129965430Y-85501576D01*
X129965428Y-85501579D01*
X129914259Y-85699204D01*
X129914258Y-85699210D01*
X129903918Y-85903104D01*
X129540000Y-85903104D01*
X129540000Y-84328000D01*
X146324419Y-84328000D01*
X146342277Y-84475077D01*
X146342278Y-84475079D01*
X146394816Y-84613610D01*
X146478980Y-84735543D01*
X146478982Y-84735545D01*
X146478984Y-84735547D01*
X146589876Y-84833789D01*
X146589878Y-84833790D01*
X146721067Y-84902643D01*
X146792993Y-84920371D01*
X146864919Y-84938100D01*
X146864920Y-84938100D01*
X147013081Y-84938100D01*
X147067084Y-84924789D01*
X147156933Y-84902643D01*
X147288122Y-84833790D01*
X147399020Y-84735543D01*
X147483184Y-84613610D01*
X147535722Y-84475079D01*
X147553581Y-84328000D01*
X147535722Y-84180921D01*
X147509017Y-84110505D01*
X155819860Y-84110505D01*
X155838388Y-84334116D01*
X155838390Y-84334128D01*
X155893474Y-84551650D01*
X155983610Y-84757137D01*
X156093798Y-84925793D01*
X156494830Y-84524760D01*
X156556153Y-84491275D01*
X156625844Y-84496259D01*
X156666046Y-84524855D01*
X156667998Y-84522778D01*
X156764312Y-84613222D01*
X156799707Y-84673463D01*
X156796915Y-84743277D01*
X156767110Y-84791296D01*
X156365162Y-85193243D01*
X156365163Y-85193244D01*
X156435392Y-85247906D01*
X156435397Y-85247909D01*
X156632734Y-85354702D01*
X156632748Y-85354708D01*
X156844971Y-85427565D01*
X157066305Y-85464500D01*
X157290695Y-85464500D01*
X157512028Y-85427565D01*
X157724251Y-85354708D01*
X157724265Y-85354702D01*
X157921602Y-85247909D01*
X157921608Y-85247905D01*
X157991835Y-85193244D01*
X157991836Y-85193243D01*
X157590470Y-84791878D01*
X157556985Y-84730555D01*
X157561969Y-84660864D01*
X157603840Y-84604930D01*
X157605221Y-84603912D01*
X157626992Y-84588095D01*
X157675274Y-84529731D01*
X157733173Y-84490624D01*
X157803025Y-84489028D01*
X157858499Y-84521091D01*
X158263200Y-84925793D01*
X158373387Y-84757142D01*
X158463525Y-84551650D01*
X158518609Y-84334128D01*
X158518611Y-84334116D01*
X158537140Y-84110505D01*
X158537140Y-84110500D01*
X160869820Y-84110500D01*
X160889701Y-84337745D01*
X160889703Y-84337755D01*
X160948740Y-84558087D01*
X160948742Y-84558091D01*
X160948743Y-84558095D01*
X160974631Y-84613612D01*
X161045150Y-84764840D01*
X161045152Y-84764844D01*
X161093429Y-84833790D01*
X161175993Y-84951703D01*
X161337297Y-85113007D01*
X161399910Y-85156849D01*
X161524155Y-85243847D01*
X161524157Y-85243848D01*
X161524160Y-85243850D01*
X161730905Y-85340257D01*
X161951250Y-85399298D01*
X162133049Y-85415203D01*
X162178499Y-85419180D01*
X162178500Y-85419180D01*
X162178501Y-85419180D01*
X162216375Y-85415866D01*
X162405750Y-85399298D01*
X162626095Y-85340257D01*
X162832840Y-85243850D01*
X163019703Y-85113007D01*
X163181007Y-84951703D01*
X163311850Y-84764840D01*
X163408257Y-84558095D01*
X163467298Y-84337750D01*
X163487180Y-84110500D01*
X163487179Y-84110494D01*
X163467616Y-83886883D01*
X163467298Y-83883250D01*
X163408257Y-83662905D01*
X163311850Y-83456160D01*
X163311848Y-83456157D01*
X163311847Y-83456155D01*
X163199148Y-83295205D01*
X163181007Y-83269297D01*
X163019703Y-83107993D01*
X162965101Y-83069760D01*
X162832844Y-82977152D01*
X162832840Y-82977150D01*
X162824133Y-82973090D01*
X162626095Y-82880743D01*
X162626091Y-82880742D01*
X162626087Y-82880740D01*
X162405755Y-82821703D01*
X162405745Y-82821701D01*
X162178501Y-82801820D01*
X162178499Y-82801820D01*
X161951254Y-82821701D01*
X161951244Y-82821703D01*
X161730912Y-82880740D01*
X161730903Y-82880744D01*
X161524159Y-82977150D01*
X161524155Y-82977152D01*
X161337302Y-83107989D01*
X161337295Y-83107994D01*
X161175994Y-83269295D01*
X161175989Y-83269302D01*
X161045152Y-83456155D01*
X161045150Y-83456159D01*
X160948744Y-83662903D01*
X160948740Y-83662912D01*
X160889703Y-83883244D01*
X160889701Y-83883254D01*
X160869820Y-84110499D01*
X160869820Y-84110500D01*
X158537140Y-84110500D01*
X158537140Y-84110494D01*
X158518611Y-83886883D01*
X158518609Y-83886871D01*
X158463525Y-83669349D01*
X158373389Y-83463862D01*
X158263200Y-83295205D01*
X157862168Y-83696238D01*
X157800845Y-83729723D01*
X157731153Y-83724739D01*
X157690957Y-83696138D01*
X157689002Y-83698221D01*
X157592686Y-83607775D01*
X157557291Y-83547535D01*
X157560083Y-83477721D01*
X157589888Y-83429702D01*
X157991835Y-83027755D01*
X157991835Y-83027754D01*
X157921607Y-82973093D01*
X157921602Y-82973090D01*
X157724265Y-82866297D01*
X157724251Y-82866291D01*
X157512028Y-82793434D01*
X157290695Y-82756500D01*
X157066305Y-82756500D01*
X156844971Y-82793434D01*
X156632748Y-82866291D01*
X156632734Y-82866297D01*
X156435396Y-82973090D01*
X156435391Y-82973093D01*
X156365163Y-83027754D01*
X156365163Y-83027755D01*
X156766529Y-83429121D01*
X156800014Y-83490444D01*
X156795030Y-83560136D01*
X156753158Y-83616069D01*
X156751767Y-83617095D01*
X156737002Y-83627822D01*
X156730005Y-83632907D01*
X156681724Y-83691269D01*
X156623824Y-83730375D01*
X156553972Y-83731971D01*
X156498500Y-83699908D01*
X156093798Y-83295205D01*
X155983611Y-83463859D01*
X155893474Y-83669349D01*
X155838390Y-83886871D01*
X155838388Y-83886883D01*
X155819860Y-84110494D01*
X155819860Y-84110505D01*
X147509017Y-84110505D01*
X147483184Y-84042390D01*
X147399020Y-83920457D01*
X147399017Y-83920454D01*
X147399015Y-83920452D01*
X147288123Y-83822210D01*
X147156931Y-83753356D01*
X147013081Y-83717900D01*
X147013080Y-83717900D01*
X146864920Y-83717900D01*
X146864919Y-83717900D01*
X146721068Y-83753356D01*
X146589876Y-83822210D01*
X146478984Y-83920452D01*
X146478978Y-83920459D01*
X146394817Y-84042387D01*
X146342278Y-84180920D01*
X146342277Y-84180922D01*
X146324419Y-84328000D01*
X129540000Y-84328000D01*
X129540000Y-80134000D01*
X129559685Y-80066961D01*
X129612489Y-80021206D01*
X129664000Y-80010000D01*
X130570814Y-80010000D01*
X130637853Y-80029685D01*
X130683608Y-80082489D01*
X130693552Y-80151647D01*
X130664527Y-80215203D01*
X130645125Y-80233267D01*
X130544251Y-80308780D01*
X130544239Y-80308790D01*
X130346790Y-80506239D01*
X130346774Y-80506257D01*
X130179426Y-80729808D01*
X130179421Y-80729816D01*
X130045591Y-80974908D01*
X130045589Y-80974912D01*
X129947995Y-81236575D01*
X129888635Y-81509443D01*
X129868713Y-81787998D01*
X129868713Y-81788001D01*
X129888635Y-82066556D01*
X129934181Y-82275922D01*
X129947997Y-82339431D01*
X129979167Y-82423000D01*
X130045589Y-82601087D01*
X130045591Y-82601091D01*
X130179421Y-82846183D01*
X130179426Y-82846191D01*
X130346774Y-83069742D01*
X130346790Y-83069760D01*
X130544239Y-83267209D01*
X130544257Y-83267225D01*
X130767808Y-83434573D01*
X130767816Y-83434578D01*
X131012908Y-83568408D01*
X131012912Y-83568410D01*
X131012914Y-83568411D01*
X131274569Y-83666003D01*
X131390714Y-83691269D01*
X131547443Y-83725364D01*
X131547445Y-83725364D01*
X131547449Y-83725365D01*
X131756271Y-83740300D01*
X131895729Y-83740300D01*
X132104551Y-83725365D01*
X132377431Y-83666003D01*
X132639086Y-83568411D01*
X132884189Y-83434575D01*
X133107750Y-83267219D01*
X133305219Y-83069750D01*
X133472575Y-82846189D01*
X133606411Y-82601086D01*
X133672833Y-82423000D01*
X137815419Y-82423000D01*
X137833277Y-82570077D01*
X137833278Y-82570079D01*
X137885816Y-82708610D01*
X137969980Y-82830543D01*
X137969982Y-82830545D01*
X137969984Y-82830547D01*
X138080876Y-82928789D01*
X138080878Y-82928790D01*
X138212067Y-82997643D01*
X138283993Y-83015371D01*
X138355919Y-83033100D01*
X138355920Y-83033100D01*
X138504081Y-83033100D01*
X138552030Y-83021280D01*
X138647933Y-82997643D01*
X138779122Y-82928790D01*
X138890020Y-82830543D01*
X138974184Y-82708610D01*
X139026722Y-82570079D01*
X139044581Y-82423000D01*
X139026722Y-82275921D01*
X138974184Y-82137390D01*
X138890020Y-82015457D01*
X138890017Y-82015454D01*
X138890015Y-82015452D01*
X138779123Y-81917210D01*
X138647931Y-81848356D01*
X138504081Y-81812900D01*
X138504080Y-81812900D01*
X138355920Y-81812900D01*
X138355919Y-81812900D01*
X138212068Y-81848356D01*
X138080876Y-81917210D01*
X137969984Y-82015452D01*
X137969978Y-82015459D01*
X137885817Y-82137387D01*
X137833278Y-82275920D01*
X137833277Y-82275922D01*
X137815419Y-82423000D01*
X133672833Y-82423000D01*
X133704003Y-82339431D01*
X133763365Y-82066551D01*
X133783287Y-81788000D01*
X133763365Y-81509449D01*
X133704003Y-81236569D01*
X133606411Y-80974914D01*
X133551419Y-80874204D01*
X133472715Y-80730066D01*
X172324299Y-80730066D01*
X172336117Y-80789476D01*
X172336118Y-80789479D01*
X172336119Y-80789480D01*
X172381140Y-80856860D01*
X172448520Y-80901880D01*
X172448520Y-80901881D01*
X172448523Y-80901882D01*
X172507933Y-80913700D01*
X172507936Y-80913700D01*
X173948066Y-80913700D01*
X174007476Y-80901882D01*
X174007477Y-80901881D01*
X174007480Y-80901881D01*
X174074860Y-80856860D01*
X174119881Y-80789480D01*
X174131700Y-80730064D01*
X174131700Y-80010000D01*
X174819322Y-80010000D01*
X174839179Y-80198926D01*
X174839180Y-80198928D01*
X174874872Y-80308780D01*
X174897881Y-80379593D01*
X174992864Y-80544108D01*
X175119976Y-80685279D01*
X175263395Y-80789479D01*
X175273661Y-80796938D01*
X175447198Y-80874202D01*
X175447203Y-80874204D01*
X175633017Y-80913700D01*
X175822983Y-80913700D01*
X176008797Y-80874204D01*
X176182339Y-80796938D01*
X176336024Y-80685279D01*
X176463136Y-80544108D01*
X176558119Y-80379593D01*
X176616821Y-80198925D01*
X176636678Y-80010000D01*
X176616821Y-79821075D01*
X176558119Y-79640407D01*
X176463136Y-79475892D01*
X176336024Y-79334721D01*
X176182339Y-79223062D01*
X176182338Y-79223061D01*
X176008801Y-79145797D01*
X176008796Y-79145795D01*
X175822983Y-79106300D01*
X175633017Y-79106300D01*
X175447203Y-79145795D01*
X175447198Y-79145797D01*
X175273661Y-79223061D01*
X175119977Y-79334720D01*
X175119976Y-79334721D01*
X174992864Y-79475892D01*
X174992862Y-79475893D01*
X174992861Y-79475896D01*
X174897880Y-79640408D01*
X174839180Y-79821071D01*
X174839179Y-79821073D01*
X174819322Y-80010000D01*
X174131700Y-80010000D01*
X174131700Y-79289936D01*
X174131700Y-79289935D01*
X174131700Y-79289933D01*
X174119882Y-79230523D01*
X174119881Y-79230520D01*
X174114897Y-79223061D01*
X174074860Y-79163140D01*
X174007480Y-79118119D01*
X174007479Y-79118118D01*
X174007476Y-79118117D01*
X173948066Y-79106300D01*
X173948064Y-79106300D01*
X172507936Y-79106300D01*
X172507934Y-79106300D01*
X172448523Y-79118117D01*
X172448520Y-79118118D01*
X172381140Y-79163140D01*
X172336118Y-79230520D01*
X172336117Y-79230523D01*
X172324300Y-79289933D01*
X172324300Y-79289936D01*
X172324300Y-80730064D01*
X172324300Y-80730066D01*
X172324299Y-80730066D01*
X133472715Y-80730066D01*
X133472578Y-80729816D01*
X133472573Y-80729808D01*
X133305225Y-80506257D01*
X133305209Y-80506239D01*
X133107760Y-80308790D01*
X133107754Y-80308785D01*
X133107750Y-80308781D01*
X133006874Y-80233266D01*
X132965004Y-80177333D01*
X132960020Y-80107642D01*
X132993505Y-80046319D01*
X133054828Y-80012834D01*
X133081186Y-80010000D01*
X137795000Y-80010000D01*
X137795000Y-77343000D01*
X150261419Y-77343000D01*
X150279277Y-77490077D01*
X150279278Y-77490079D01*
X150331816Y-77628610D01*
X150415980Y-77750543D01*
X150415982Y-77750545D01*
X150415984Y-77750547D01*
X150526876Y-77848789D01*
X150526878Y-77848790D01*
X150658067Y-77917643D01*
X150729993Y-77935371D01*
X150801919Y-77953100D01*
X150801920Y-77953100D01*
X150950081Y-77953100D01*
X150998030Y-77941281D01*
X151093933Y-77917643D01*
X151225122Y-77848790D01*
X151336020Y-77750543D01*
X151420184Y-77628610D01*
X151472722Y-77490079D01*
X151477022Y-77454664D01*
X151504643Y-77390486D01*
X151562577Y-77351429D01*
X151570430Y-77349216D01*
X151692430Y-77319146D01*
X151728904Y-77300003D01*
X166699082Y-77300003D01*
X166718727Y-77562151D01*
X166777223Y-77818438D01*
X166777228Y-77818455D01*
X166873270Y-78063166D01*
X167004713Y-78290832D01*
X167004720Y-78290843D01*
X167090361Y-78398231D01*
X167423653Y-78064938D01*
X167484976Y-78031453D01*
X167554667Y-78036437D01*
X167602969Y-78069079D01*
X167679931Y-78153501D01*
X167679935Y-78153505D01*
X167684166Y-78157362D01*
X167682640Y-78159035D01*
X167718380Y-78207229D01*
X167723050Y-78276942D01*
X167689685Y-78337720D01*
X167356610Y-78670794D01*
X167361335Y-78675178D01*
X167578547Y-78823271D01*
X167578549Y-78823272D01*
X167815389Y-78937328D01*
X167815408Y-78937335D01*
X168066591Y-79014814D01*
X168066601Y-79014816D01*
X168326550Y-79053999D01*
X168326557Y-79054000D01*
X168589443Y-79054000D01*
X168589449Y-79053999D01*
X168849398Y-79014816D01*
X168849408Y-79014814D01*
X169100591Y-78937335D01*
X169100610Y-78937328D01*
X169337450Y-78823272D01*
X169337452Y-78823271D01*
X169554666Y-78675177D01*
X169559387Y-78670794D01*
X169559387Y-78670793D01*
X169226313Y-78337720D01*
X169192828Y-78276397D01*
X169197812Y-78206706D01*
X169233358Y-78159038D01*
X169231832Y-78157364D01*
X169236069Y-78153501D01*
X169265296Y-78121441D01*
X169313028Y-78069081D01*
X169372738Y-78032801D01*
X169442585Y-78034561D01*
X169492345Y-78064939D01*
X169825637Y-78398231D01*
X169911286Y-78290833D01*
X170042729Y-78063166D01*
X170138771Y-77818455D01*
X170138776Y-77818438D01*
X170197272Y-77562151D01*
X170216918Y-77300003D01*
X170216918Y-77299996D01*
X170197272Y-77037848D01*
X170145267Y-76809999D01*
X172269384Y-76809999D01*
X172287803Y-76997015D01*
X172342354Y-77176845D01*
X172429223Y-77339367D01*
X172683030Y-77085560D01*
X172744353Y-77052075D01*
X172814044Y-77057059D01*
X172867658Y-77095929D01*
X172911582Y-77151009D01*
X172911583Y-77151010D01*
X172911586Y-77151013D01*
X172933494Y-77165949D01*
X172977795Y-77219975D01*
X172985855Y-77289379D01*
X172955113Y-77352122D01*
X172951323Y-77356083D01*
X172698631Y-77608775D01*
X172698631Y-77608776D01*
X172861146Y-77695642D01*
X172861149Y-77695643D01*
X173040986Y-77750196D01*
X173040982Y-77750196D01*
X173228000Y-77768615D01*
X173415015Y-77750196D01*
X173594850Y-77695644D01*
X173757368Y-77608776D01*
X173504775Y-77356183D01*
X173471290Y-77294860D01*
X173476274Y-77225168D01*
X173508114Y-77177605D01*
X173591705Y-77100045D01*
X173591710Y-77100035D01*
X173592033Y-77099632D01*
X173592515Y-77099292D01*
X173598518Y-77093724D01*
X173599279Y-77094544D01*
X173649219Y-77059488D01*
X173719030Y-77056634D01*
X173776666Y-77089258D01*
X174026776Y-77339368D01*
X174113644Y-77176850D01*
X174168196Y-76997015D01*
X174186615Y-76810000D01*
X174819322Y-76810000D01*
X174839179Y-76998926D01*
X174839180Y-76998928D01*
X174896989Y-77176850D01*
X174897881Y-77179593D01*
X174992864Y-77344108D01*
X175119976Y-77485279D01*
X175225781Y-77562151D01*
X175273661Y-77596938D01*
X175447198Y-77674202D01*
X175447203Y-77674204D01*
X175633017Y-77713700D01*
X175822983Y-77713700D01*
X176008797Y-77674204D01*
X176182339Y-77596938D01*
X176336024Y-77485279D01*
X176463136Y-77344108D01*
X176558119Y-77179593D01*
X176616821Y-76998925D01*
X176636678Y-76810000D01*
X176616821Y-76621075D01*
X176558119Y-76440407D01*
X176463136Y-76275892D01*
X176336024Y-76134721D01*
X176213916Y-76046004D01*
X176182338Y-76023061D01*
X176008801Y-75945797D01*
X176008796Y-75945795D01*
X175822983Y-75906300D01*
X175633017Y-75906300D01*
X175447203Y-75945795D01*
X175447198Y-75945797D01*
X175273661Y-76023061D01*
X175119977Y-76134720D01*
X175119976Y-76134721D01*
X174992864Y-76275892D01*
X174992862Y-76275893D01*
X174992861Y-76275896D01*
X174897880Y-76440408D01*
X174839180Y-76621071D01*
X174839179Y-76621073D01*
X174819322Y-76810000D01*
X174186615Y-76810000D01*
X174186615Y-76809999D01*
X174168196Y-76622984D01*
X174113643Y-76443149D01*
X174113642Y-76443146D01*
X174026776Y-76280631D01*
X174026775Y-76280631D01*
X173772969Y-76534437D01*
X173711646Y-76567922D01*
X173641954Y-76562938D01*
X173588342Y-76524070D01*
X173544415Y-76468988D01*
X173544414Y-76468987D01*
X173522502Y-76454048D01*
X173478203Y-76400021D01*
X173470143Y-76330618D01*
X173500886Y-76267875D01*
X173504675Y-76263915D01*
X173757367Y-76011223D01*
X173594845Y-75924354D01*
X173415013Y-75869803D01*
X173415017Y-75869803D01*
X173228000Y-75851384D01*
X173040984Y-75869803D01*
X172861152Y-75924355D01*
X172698631Y-76011222D01*
X172698631Y-76011223D01*
X172951223Y-76263815D01*
X172984708Y-76325138D01*
X172979724Y-76394830D01*
X172947885Y-76442393D01*
X172864293Y-76519956D01*
X172863955Y-76520381D01*
X172863466Y-76520723D01*
X172857485Y-76526274D01*
X172856724Y-76525454D01*
X172806763Y-76560516D01*
X172736951Y-76563361D01*
X172679333Y-76530741D01*
X172429223Y-76280631D01*
X172429222Y-76280631D01*
X172342355Y-76443152D01*
X172287803Y-76622984D01*
X172269384Y-76809999D01*
X170145267Y-76809999D01*
X170138776Y-76781561D01*
X170138771Y-76781544D01*
X170042729Y-76536833D01*
X169911286Y-76309167D01*
X169911279Y-76309156D01*
X169825638Y-76201768D01*
X169825637Y-76201767D01*
X169492345Y-76535060D01*
X169431022Y-76568545D01*
X169361330Y-76563561D01*
X169313027Y-76530917D01*
X169236070Y-76446499D01*
X169231834Y-76442638D01*
X169233363Y-76440960D01*
X169197629Y-76392798D01*
X169192941Y-76323086D01*
X169226313Y-76262279D01*
X169559388Y-75929204D01*
X169554668Y-75924824D01*
X169337452Y-75776728D01*
X169337450Y-75776727D01*
X169100610Y-75662671D01*
X169100591Y-75662664D01*
X168849408Y-75585185D01*
X168849398Y-75585183D01*
X168589449Y-75546000D01*
X168326550Y-75546000D01*
X168066601Y-75585183D01*
X168066591Y-75585185D01*
X167815408Y-75662664D01*
X167815389Y-75662671D01*
X167578549Y-75776727D01*
X167578538Y-75776734D01*
X167361332Y-75924823D01*
X167361326Y-75924828D01*
X167356611Y-75929203D01*
X167356610Y-75929203D01*
X167689686Y-76262279D01*
X167723171Y-76323602D01*
X167718187Y-76393294D01*
X167682657Y-76440983D01*
X167684166Y-76442638D01*
X167679934Y-76446495D01*
X167602970Y-76530919D01*
X167543258Y-76567199D01*
X167473411Y-76565438D01*
X167423653Y-76535060D01*
X167090360Y-76201767D01*
X167004714Y-76309166D01*
X166873270Y-76536833D01*
X166777228Y-76781544D01*
X166777223Y-76781561D01*
X166718727Y-77037848D01*
X166699082Y-77299996D01*
X166699082Y-77300003D01*
X151728904Y-77300003D01*
X151823619Y-77250293D01*
X151934517Y-77152046D01*
X152018681Y-77030113D01*
X152071219Y-76891582D01*
X152089078Y-76744503D01*
X152071219Y-76597424D01*
X152018681Y-76458893D01*
X151934517Y-76336960D01*
X151934514Y-76336957D01*
X151934512Y-76336955D01*
X151823620Y-76238713D01*
X151692428Y-76169859D01*
X151548578Y-76134403D01*
X151548577Y-76134403D01*
X151400417Y-76134403D01*
X151400416Y-76134403D01*
X151256565Y-76169859D01*
X151125373Y-76238713D01*
X151014481Y-76336955D01*
X151014475Y-76336962D01*
X150930314Y-76458890D01*
X150877775Y-76597423D01*
X150877774Y-76597424D01*
X150873474Y-76632841D01*
X150845851Y-76697018D01*
X150787916Y-76736074D01*
X150780054Y-76738289D01*
X150658068Y-76768356D01*
X150526876Y-76837210D01*
X150415984Y-76935452D01*
X150415978Y-76935459D01*
X150331817Y-77057387D01*
X150279278Y-77195920D01*
X150279277Y-77195922D01*
X150261419Y-77343000D01*
X137795000Y-77343000D01*
X137795000Y-75577332D01*
X137814685Y-75510293D01*
X137867489Y-75464538D01*
X137936647Y-75454594D01*
X138000203Y-75483619D01*
X138006681Y-75489651D01*
X138164239Y-75647209D01*
X138164257Y-75647225D01*
X138387808Y-75814573D01*
X138387816Y-75814578D01*
X138632908Y-75948408D01*
X138632912Y-75948410D01*
X138632914Y-75948411D01*
X138894569Y-76046003D01*
X139031009Y-76075683D01*
X139167443Y-76105364D01*
X139167445Y-76105364D01*
X139167449Y-76105365D01*
X139376271Y-76120300D01*
X139515729Y-76120300D01*
X139724551Y-76105365D01*
X139997431Y-76046003D01*
X140259086Y-75948411D01*
X140504189Y-75814575D01*
X140727750Y-75647219D01*
X140925219Y-75449750D01*
X141092575Y-75226189D01*
X141226411Y-74981086D01*
X141324003Y-74719431D01*
X141383365Y-74446551D01*
X141388227Y-74378566D01*
X142506199Y-74378566D01*
X142518017Y-74437976D01*
X142518018Y-74437979D01*
X142518019Y-74437980D01*
X142563040Y-74505360D01*
X142630420Y-74550380D01*
X142630420Y-74550381D01*
X142630423Y-74550382D01*
X142689833Y-74562200D01*
X142689836Y-74562200D01*
X144330166Y-74562200D01*
X144389576Y-74550382D01*
X144389577Y-74550381D01*
X144389580Y-74550381D01*
X144456960Y-74505360D01*
X144501981Y-74437980D01*
X144513800Y-74378564D01*
X144513800Y-73609310D01*
X145046200Y-73609310D01*
X145061676Y-73761507D01*
X145122789Y-73956287D01*
X145122792Y-73956293D01*
X145122793Y-73956296D01*
X145221869Y-74134796D01*
X145354848Y-74289699D01*
X145516287Y-74414663D01*
X145699578Y-74504570D01*
X145699579Y-74504571D01*
X145897204Y-74555740D01*
X145897207Y-74555740D01*
X145897213Y-74555742D01*
X146101104Y-74566082D01*
X146302903Y-74535168D01*
X146494348Y-74464264D01*
X146613226Y-74390167D01*
X146667597Y-74356278D01*
X146667598Y-74356276D01*
X146667601Y-74356275D01*
X146797248Y-74233034D01*
X146815566Y-74215623D01*
X146815566Y-74215622D01*
X146815569Y-74215620D01*
X146848713Y-74168001D01*
X148156713Y-74168001D01*
X148176635Y-74446556D01*
X148235995Y-74719424D01*
X148235997Y-74719431D01*
X148256011Y-74773090D01*
X148333589Y-74981087D01*
X148333591Y-74981091D01*
X148467421Y-75226183D01*
X148467426Y-75226191D01*
X148634774Y-75449742D01*
X148634790Y-75449760D01*
X148832239Y-75647209D01*
X148832257Y-75647225D01*
X149055808Y-75814573D01*
X149055816Y-75814578D01*
X149300908Y-75948408D01*
X149300912Y-75948410D01*
X149300914Y-75948411D01*
X149562569Y-76046003D01*
X149699009Y-76075683D01*
X149835443Y-76105364D01*
X149835445Y-76105364D01*
X149835449Y-76105365D01*
X150044271Y-76120300D01*
X150183729Y-76120300D01*
X150392551Y-76105365D01*
X150665431Y-76046003D01*
X150927086Y-75948411D01*
X150996506Y-75910505D01*
X155819860Y-75910505D01*
X155838388Y-76134116D01*
X155838390Y-76134128D01*
X155893474Y-76351650D01*
X155983610Y-76557137D01*
X156093798Y-76725793D01*
X156494830Y-76324760D01*
X156556153Y-76291275D01*
X156625844Y-76296259D01*
X156666046Y-76324855D01*
X156667998Y-76322778D01*
X156764312Y-76413222D01*
X156799707Y-76473463D01*
X156796915Y-76543277D01*
X156767110Y-76591296D01*
X156365162Y-76993243D01*
X156365163Y-76993244D01*
X156435392Y-77047906D01*
X156435397Y-77047909D01*
X156632734Y-77154702D01*
X156632748Y-77154708D01*
X156844971Y-77227565D01*
X157066305Y-77264500D01*
X157290695Y-77264500D01*
X157512028Y-77227565D01*
X157724251Y-77154708D01*
X157724265Y-77154702D01*
X157921602Y-77047909D01*
X157921608Y-77047905D01*
X157991835Y-76993244D01*
X157991836Y-76993243D01*
X157590470Y-76591878D01*
X157556985Y-76530555D01*
X157561969Y-76460864D01*
X157603840Y-76404930D01*
X157605221Y-76403912D01*
X157626992Y-76388095D01*
X157675274Y-76329731D01*
X157733173Y-76290624D01*
X157803025Y-76289028D01*
X157858499Y-76321091D01*
X158263200Y-76725793D01*
X158373387Y-76557142D01*
X158463525Y-76351650D01*
X158518609Y-76134128D01*
X158518611Y-76134116D01*
X158537140Y-75910505D01*
X158537140Y-75910500D01*
X160869820Y-75910500D01*
X160889701Y-76137745D01*
X160889703Y-76137755D01*
X160948740Y-76358087D01*
X160948742Y-76358091D01*
X160948743Y-76358095D01*
X161001774Y-76471820D01*
X161045150Y-76564840D01*
X161045152Y-76564844D01*
X161137702Y-76697018D01*
X161175993Y-76751703D01*
X161337297Y-76913007D01*
X161369352Y-76935452D01*
X161524155Y-77043847D01*
X161524157Y-77043848D01*
X161524160Y-77043850D01*
X161730905Y-77140257D01*
X161951250Y-77199298D01*
X162133049Y-77215203D01*
X162178499Y-77219180D01*
X162178500Y-77219180D01*
X162178501Y-77219180D01*
X162216375Y-77215866D01*
X162405750Y-77199298D01*
X162626095Y-77140257D01*
X162832840Y-77043850D01*
X163019703Y-76913007D01*
X163181007Y-76751703D01*
X163311850Y-76564840D01*
X163408257Y-76358095D01*
X163467298Y-76137750D01*
X163487180Y-75910500D01*
X163487179Y-75910494D01*
X163478788Y-75814578D01*
X163467298Y-75683250D01*
X163408257Y-75462905D01*
X163311850Y-75256160D01*
X163311848Y-75256157D01*
X163311847Y-75256155D01*
X163199148Y-75095205D01*
X163181007Y-75069297D01*
X163019703Y-74907993D01*
X162982171Y-74881712D01*
X162832844Y-74777152D01*
X162832840Y-74777150D01*
X162709046Y-74719424D01*
X162626095Y-74680743D01*
X162626091Y-74680742D01*
X162626087Y-74680740D01*
X162405755Y-74621703D01*
X162405745Y-74621701D01*
X162178501Y-74601820D01*
X162178499Y-74601820D01*
X161951254Y-74621701D01*
X161951244Y-74621703D01*
X161730912Y-74680740D01*
X161730903Y-74680744D01*
X161524159Y-74777150D01*
X161524155Y-74777152D01*
X161337302Y-74907989D01*
X161337295Y-74907994D01*
X161175994Y-75069295D01*
X161175989Y-75069302D01*
X161045152Y-75256155D01*
X161045150Y-75256159D01*
X161002541Y-75347535D01*
X160952619Y-75454594D01*
X160948744Y-75462903D01*
X160948740Y-75462912D01*
X160889703Y-75683244D01*
X160889701Y-75683254D01*
X160869820Y-75910499D01*
X160869820Y-75910500D01*
X158537140Y-75910500D01*
X158537140Y-75910494D01*
X158518611Y-75686883D01*
X158518609Y-75686871D01*
X158463525Y-75469349D01*
X158373389Y-75263862D01*
X158263200Y-75095205D01*
X157862168Y-75496238D01*
X157800845Y-75529723D01*
X157731153Y-75524739D01*
X157690957Y-75496138D01*
X157689002Y-75498221D01*
X157592686Y-75407775D01*
X157557291Y-75347535D01*
X157560083Y-75277721D01*
X157589888Y-75229702D01*
X157991835Y-74827755D01*
X157991835Y-74827754D01*
X157921607Y-74773093D01*
X157921602Y-74773090D01*
X157724265Y-74666297D01*
X157724251Y-74666291D01*
X157512028Y-74593434D01*
X157290695Y-74556500D01*
X157066305Y-74556500D01*
X156844971Y-74593434D01*
X156632748Y-74666291D01*
X156632734Y-74666297D01*
X156435396Y-74773090D01*
X156435391Y-74773093D01*
X156365163Y-74827754D01*
X156365163Y-74827755D01*
X156766529Y-75229121D01*
X156800014Y-75290444D01*
X156795030Y-75360136D01*
X156753158Y-75416069D01*
X156751767Y-75417095D01*
X156737002Y-75427822D01*
X156730005Y-75432907D01*
X156681724Y-75491269D01*
X156623824Y-75530375D01*
X156553972Y-75531971D01*
X156498500Y-75499908D01*
X156093798Y-75095205D01*
X155983611Y-75263859D01*
X155893474Y-75469349D01*
X155838390Y-75686871D01*
X155838388Y-75686883D01*
X155819860Y-75910494D01*
X155819860Y-75910505D01*
X150996506Y-75910505D01*
X151172189Y-75814575D01*
X151395750Y-75647219D01*
X151593219Y-75449750D01*
X151760575Y-75226189D01*
X151894411Y-74981086D01*
X151992003Y-74719431D01*
X152051365Y-74446551D01*
X152071287Y-74168000D01*
X152051365Y-73889449D01*
X151992003Y-73616569D01*
X151894411Y-73354914D01*
X151838216Y-73252001D01*
X151760578Y-73109816D01*
X151760573Y-73109808D01*
X151593225Y-72886257D01*
X151593209Y-72886239D01*
X151395760Y-72688790D01*
X151395742Y-72688774D01*
X151172191Y-72521426D01*
X151172183Y-72521421D01*
X150927091Y-72387591D01*
X150927087Y-72387589D01*
X150820230Y-72347734D01*
X150665431Y-72289997D01*
X150665427Y-72289996D01*
X150665424Y-72289995D01*
X150392556Y-72230635D01*
X150183729Y-72215700D01*
X150044271Y-72215700D01*
X149835443Y-72230635D01*
X149562575Y-72289995D01*
X149562570Y-72289996D01*
X149562569Y-72289997D01*
X149517947Y-72306640D01*
X149300912Y-72387589D01*
X149300908Y-72387591D01*
X149055816Y-72521421D01*
X149055808Y-72521426D01*
X148832257Y-72688774D01*
X148832239Y-72688790D01*
X148634790Y-72886239D01*
X148634774Y-72886257D01*
X148467426Y-73109808D01*
X148467421Y-73109816D01*
X148333591Y-73354908D01*
X148333589Y-73354912D01*
X148304646Y-73432513D01*
X148238705Y-73609310D01*
X148235995Y-73616575D01*
X148176635Y-73889443D01*
X148156713Y-74167998D01*
X148156713Y-74168001D01*
X146848713Y-74168001D01*
X146932196Y-74048059D01*
X147012705Y-73860451D01*
X147053800Y-73660477D01*
X147053800Y-73202691D01*
X147044356Y-73109816D01*
X147038323Y-73050492D01*
X146977210Y-72855712D01*
X146977208Y-72855709D01*
X146977207Y-72855704D01*
X146878131Y-72677204D01*
X146745152Y-72522301D01*
X146745151Y-72522300D01*
X146745150Y-72522299D01*
X146583714Y-72397338D01*
X146583713Y-72397337D01*
X146583711Y-72397336D01*
X146583708Y-72397334D01*
X146400423Y-72307430D01*
X146400420Y-72307428D01*
X146202795Y-72256259D01*
X146202789Y-72256258D01*
X146066859Y-72249364D01*
X145998896Y-72245918D01*
X145998895Y-72245918D01*
X145998892Y-72245918D01*
X145797105Y-72276830D01*
X145797092Y-72276833D01*
X145605656Y-72347734D01*
X145605647Y-72347738D01*
X145432402Y-72455721D01*
X145432397Y-72455726D01*
X145284433Y-72596376D01*
X145284430Y-72596380D01*
X145167804Y-72763940D01*
X145087295Y-72951548D01*
X145046200Y-73151522D01*
X145046200Y-73609310D01*
X144513800Y-73609310D01*
X144513800Y-72433436D01*
X144513800Y-72433435D01*
X144513800Y-72433433D01*
X144501982Y-72374023D01*
X144501981Y-72374020D01*
X144484419Y-72347736D01*
X144456960Y-72306640D01*
X144389580Y-72261619D01*
X144389579Y-72261618D01*
X144389576Y-72261617D01*
X144330166Y-72249800D01*
X144330164Y-72249800D01*
X142689836Y-72249800D01*
X142689834Y-72249800D01*
X142630423Y-72261617D01*
X142630420Y-72261618D01*
X142563040Y-72306640D01*
X142518018Y-72374020D01*
X142518017Y-72374023D01*
X142506200Y-72433433D01*
X142506200Y-72433435D01*
X142506200Y-72433436D01*
X142506200Y-74378564D01*
X142506200Y-74378566D01*
X142506199Y-74378566D01*
X141388227Y-74378566D01*
X141403287Y-74168000D01*
X141383365Y-73889449D01*
X141324003Y-73616569D01*
X141226411Y-73354914D01*
X141170216Y-73252001D01*
X141092578Y-73109816D01*
X141092573Y-73109808D01*
X140925225Y-72886257D01*
X140925209Y-72886239D01*
X140727760Y-72688790D01*
X140727742Y-72688774D01*
X140504191Y-72521426D01*
X140504183Y-72521421D01*
X140259091Y-72387591D01*
X140259087Y-72387589D01*
X140152230Y-72347734D01*
X139997431Y-72289997D01*
X139997427Y-72289996D01*
X139997424Y-72289995D01*
X139724556Y-72230635D01*
X139515729Y-72215700D01*
X139376271Y-72215700D01*
X139167443Y-72230635D01*
X138894575Y-72289995D01*
X138894570Y-72289996D01*
X138894569Y-72289997D01*
X138849947Y-72306640D01*
X138632912Y-72387589D01*
X138632908Y-72387591D01*
X138387816Y-72521421D01*
X138387808Y-72521426D01*
X138164257Y-72688774D01*
X138164239Y-72688790D01*
X138006681Y-72846349D01*
X137945358Y-72879834D01*
X137875666Y-72874850D01*
X137819733Y-72832978D01*
X137795316Y-72767514D01*
X137795000Y-72758668D01*
X137795000Y-71879000D01*
X137814685Y-71811961D01*
X137867489Y-71766206D01*
X137919000Y-71755000D01*
X182121000Y-71755000D01*
X182188039Y-71774685D01*
G37*
%TD.AperFunction*%
%TD*%
M02*
