<?xml version="1.0" standalone="no"?>
 <!DOCTYPE svg PUBLIC "-//W3C//DTD SVG 1.1//EN" 
 "http://www.w3.org/Graphics/SVG/1.1/DTD/svg11.dtd"> 
<svg
  xmlns:svg="http://www.w3.org/2000/svg"
  xmlns="http://www.w3.org/2000/svg"
  xmlns:xlink="http://www.w3.org/1999/xlink"
  version="1.1"
  width="279.4000mm" height="215.9000mm" viewBox="0.0000 0.0000 279.4000 215.9000">
<title>SVG Image created as HallSwitch-B_Silkscreen.svg date 2024/10/12 14:10:13 </title>
  <desc>Image generated by PCBNEW </desc>
<g style="fill:#000000; fill-opacity:1.0000;stroke:#000000; stroke-opacity:1.0000;
stroke-linecap:round; stroke-linejoin:round;"
 transform="translate(0 0) scale(1 1)">
</g>
<g style="fill:none; 
stroke:#000000; stroke-width:0.1000; stroke-opacity:1; 
stroke-linecap:round; stroke-linejoin:round;">
<path d="M146.0659 115.1731
L146.4469 114.9191
" />
<path d="M146.4469 114.9191
L146.4469 115.4271
" />
<path d="M146.4469 115.4271
L146.0659 115.1731
" />
</g>
<g style="fill:none; 
stroke:#000000; stroke-width:0.1460; stroke-opacity:1; 
stroke-linecap:round; stroke-linejoin:round;">
<text x="140.0715" y="104.1241"
transform="scale(-1 1) translate(-280.143000 0)"
textLength="4.7403" font-size="0.8467" lengthAdjust="spacingAndGlyphs"
text-anchor="middle" opacity="0">Hall Switch</text>
<g class="stroked-text"><desc>Hall Switch</desc>
<path style="fill:#000000; fill-opacity:1.0000; stroke:none;fill-rule:evenodd;"
d="M 142.3762,104.0161
142.3762,103.3710
142.2472,103.3710
142.2472,103.6290
141.9940,103.6290
141.9940,103.3710
141.8650,103.3710
141.8650,104.0161
141.9940,104.0161
141.9940,103.7382
142.2472,103.7382
142.2472,104.0161
Z" /> 
<path style="fill:#000000; fill-opacity:1.0000; stroke:none;fill-rule:evenodd;"
d="M 141.5661,103.5398
141.5973,103.5417
141.6299,103.5467
141.6618,103.5560
141.6911,103.5713
141.7074,103.5844
141.7281,103.6085
141.7446,103.6380
141.7557,103.6687
141.6445,103.6886
141.6350,103.6665
141.6148,103.6422
141.5960,103.6332
141.5637,103.6290
141.5607,103.6290
141.5273,103.6320
141.4979,103.6444
141.4848,103.6649
141.4804,103.6959
141.4804,103.7084
141.5003,103.7156
141.5305,103.7241
141.5644,103.7319
141.5995,103.7390
141.6034,103.7398
141.6364,103.7472
141.6675,103.7561
141.6970,103.7680
141.7053,103.7724
141.7303,103.7913
141.7496,103.8159
141.7550,103.8259
141.7653,103.8560
141.7684,103.8870
141.7677,103.9017
141.7616,103.9325
141.7471,103.9629
141.7271,103.9867
141.7106,104.0001
141.6818,104.0150
141.6482,104.0236
141.6144,104.0261
141.5993,104.0255
141.5679,104.0206
141.5381,104.0104
141.5226,104.0028
141.4950,103.9847
141.4708,103.9633
141.4664,103.9783
141.4643,103.9859
141.4546,104.0161
141.3335,104.0161
141.3345,104.0141
141.3471,103.9839
141.3555,103.9536
141.3591,103.9272
141.3610,103.8951
141.3614,103.8631
141.3610,103.8209
141.4804,103.8209
141.4809,103.8465
141.4852,103.8776
141.4926,103.8937
141.5143,103.9161
141.5162,103.9174
141.5452,103.9316
141.5776,103.9367
141.5984,103.9343
141.6265,103.9191
141.6366,103.9073
141.6457,103.8767
141.6423,103.8593
141.6217,103.8358
141.6159,103.8327
141.5859,103.8226
141.5550,103.8156
141.5426,103.8131
141.5108,103.8060
141.4804,103.7978
141.4804,103.8209
141.3610,103.8209
141.3600,103.7191
141.3602,103.7045
141.3620,103.6699
141.3664,103.6384
141.3765,103.6089
141.3834,103.5980
141.4061,103.5754
141.4329,103.5592
141.4555,103.5507
141.4873,103.5440
141.5211,103.5406
141.5550,103.5397
Z" /> 
<path style="fill:#000000; fill-opacity:1.0000; stroke:none;fill-rule:evenodd;"
d="M 141.2417,104.0161
141.2417,103.3710
141.1190,103.3710
141.1190,104.0161
Z" /> 
<path style="fill:#000000; fill-opacity:1.0000; stroke:none;fill-rule:evenodd;"
d="M 140.9948,104.0161
140.9948,103.3710
140.8721,103.3710
140.8721,104.0161
Z" /> 
<path style="fill:#000000; fill-opacity:1.0000; stroke:none;fill-rule:evenodd;"
d="M 140.5327,103.8077
140.4071,103.7978
140.3989,103.8297
140.3855,103.8592
140.3654,103.8843
140.3612,103.8880
140.3345,103.9045
140.3020,103.9141
140.2675,103.9169
140.2349,103.9148
140.2043,103.9078
140.1756,103.8926
140.1736,103.8910
140.1519,103.8665
140.1422,103.8366
140.1419,103.8302
140.1501,103.7994
140.1552,103.7922
140.1812,103.7734
140.2016,103.7649
140.2326,103.7554
140.2643,103.7467
140.2952,103.7386
140.3051,103.7360
140.3360,103.7275
140.3691,103.7165
140.3978,103.7046
140.4259,103.6898
140.4507,103.6715
140.4737,103.6471
140.4910,103.6204
140.5027,103.5914
140.5087,103.5602
140.5096,103.5414
140.5064,103.5082
140.4966,103.4766
140.4820,103.4491
140.4623,103.4242
140.4378,103.4033
140.4086,103.3864
140.4022,103.3835
140.3711,103.3726
140.3406,103.3660
140.3074,103.3621
140.2762,103.3610
140.2401,103.3624
140.2068,103.3663
140.1765,103.3729
140.1439,103.3843
140.1155,103.3996
140.0951,103.4152
140.0712,103.4406
140.0528,103.4694
140.0400,103.5018
140.0334,103.5322
140.0310,103.5596
140.1602,103.5596
140.1691,103.5276
140.1862,103.4999
140.1957,103.4912
140.2248,103.4768
140.2581,103.4710
140.2776,103.4702
140.3103,103.4724
140.3409,103.4800
140.3657,103.4929
140.3846,103.5189
140.3862,103.5319
140.3754,103.5616
140.3670,103.5699
140.3389,103.5855
140.3092,103.5963
140.2761,103.6061
140.2483,103.6132
140.2147,103.6219
140.1845,103.6306
140.1537,103.6408
140.1242,103.6526
140.1089,103.6601
140.0826,103.6767
140.0581,103.6989
140.0383,103.7253
140.0237,103.7561
140.0157,103.7880
140.0128,103.8200
140.0127,103.8276
140.0157,103.8614
140.0247,103.8938
140.0396,103.9249
140.0433,103.9310
140.0625,103.9562
140.0856,103.9774
140.1128,103.9947
140.1297,104.0027
140.1593,104.0129
140.1924,104.0202
140.2241,104.0242
140.2585,104.0260
140.2688,104.0261
140.3053,104.0247
140.3391,104.0206
140.3701,104.0138
140.4037,104.0021
140.4334,103.9864
140.4550,103.9704
140.4776,103.9477
140.4964,103.9213
140.5116,103.8914
140.5231,103.8579
140.5299,103.8273
Z" /> 
<path style="fill:#000000; fill-opacity:1.0000; stroke:none;fill-rule:evenodd;"
d="M 139.8221,104.0161
139.9687,103.5496
139.8496,103.5496
139.7627,103.8553
139.6828,103.5496
139.5647,103.5496
139.4874,103.8553
139.3990,103.5496
139.2780,103.5496
139.4269,104.0161
139.5446,104.0161
139.6245,103.7160
139.7030,104.0161
Z" /> 
<path style="fill:#000000; fill-opacity:1.0000; stroke:none;fill-rule:evenodd;"
d="M 139.2174,103.4801
139.2174,103.3710
139.0947,103.3710
139.0947,103.4801
Z" /> 
<path style="fill:#000000; fill-opacity:1.0000; stroke:none;fill-rule:evenodd;"
d="M 139.2174,104.0161
139.2174,103.5496
139.0947,103.5496
139.0947,104.0161
Z" /> 
<path style="fill:#000000; fill-opacity:1.0000; stroke:none;fill-rule:evenodd;"
d="M 138.7580,103.5496
138.7580,103.6390
138.8418,103.6390
138.8418,103.8415
138.8415,103.8750
138.8403,103.9064
138.8394,103.9133
138.8284,103.9302
138.8078,103.9367
138.7771,103.9312
138.7585,103.9250
138.7479,104.0099
138.7787,104.0191
138.8121,104.0245
138.8447,104.0261
138.8763,104.0232
138.9046,104.0146
138.9323,103.9976
138.9437,103.9850
138.9567,103.9556
138.9609,103.9358
138.9638,103.9026
138.9646,103.8704
138.9647,103.8469
138.9647,103.6390
139.0210,103.6390
139.0210,103.5496
138.9647,103.5496
138.9647,103.4603
138.8418,103.3908
138.8418,103.5496
Z" /> 
<path style="fill:#000000; fill-opacity:1.0000; stroke:none;fill-rule:evenodd;"
d="M 138.2705,103.6787
138.3914,103.6985
138.4013,103.6682
138.4191,103.6466
138.4475,103.6324
138.4751,103.6290
138.5068,103.6338
138.5353,103.6497
138.5482,103.6628
138.5637,103.6915
138.5716,103.7229
138.5750,103.7568
138.5755,103.7759
138.5745,103.8071
138.5709,103.8390
138.5636,103.8693
138.5496,103.8981
138.5479,103.9004
138.5244,103.9226
138.4956,103.9345
138.4734,103.9367
138.4417,103.9317
138.4163,103.9167
138.3983,103.8915
138.3880,103.8621
138.3848,103.8474
138.2645,103.8673
138.2744,103.8998
138.2875,103.9287
138.3066,103.9572
138.3299,103.9809
138.3365,103.9861
138.3653,104.0036
138.3943,104.0148
138.4268,104.0222
138.4627,104.0257
138.4791,104.0261
138.5158,104.0238
138.5496,104.0170
138.5804,104.0057
138.6084,103.9899
138.6335,103.9695
138.6412,103.9617
138.6617,103.9358
138.6780,103.9064
138.6900,103.8735
138.6978,103.8372
138.7010,103.8043
138.7016,103.7834
138.7001,103.7486
138.6956,103.7163
138.6864,103.6809
138.6729,103.6490
138.6551,103.6208
138.6409,103.6039
138.6167,103.5821
138.5894,103.5648
138.5591,103.5520
138.5259,103.5437
138.4896,103.5400
138.4768,103.5397
138.4415,103.5413
138.4095,103.5463
138.3769,103.5560
138.3487,103.5700
138.3424,103.5741
138.3165,103.5963
138.2972,103.6207
138.2815,103.6496
Z" /> 
<path style="fill:#000000; fill-opacity:1.0000; stroke:none;fill-rule:evenodd;"
d="M 138.0579,103.3710
138.0579,103.6058
138.0349,103.5833
138.0059,103.5630
137.9748,103.5490
137.9414,103.5413
137.9162,103.5397
137.8831,103.5423
137.8529,103.5501
137.8398,103.5555
137.8117,103.5723
137.7898,103.5943
137.7887,103.5958
137.7734,103.6234
137.7651,103.6503
137.7607,103.6827
137.7590,103.7170
137.7587,103.7429
137.7587,104.0161
137.8813,104.0161
137.8813,103.7668
137.8817,103.7331
137.8835,103.7005
137.8882,103.6726
137.9057,103.6464
137.9129,103.6408
137.9429,103.6300
137.9571,103.6290
137.9894,103.6338
138.0117,103.6442
138.0347,103.6660
138.0469,103.6897
138.0544,103.7219
138.0574,103.7550
138.0579,103.7796
138.0579,104.0161
138.1804,104.0161
138.1804,103.3710
Z" /> 
</g></g>
<g style="fill:none; 
stroke:#000000; stroke-width:0.1460; stroke-opacity:1; 
stroke-linecap:round; stroke-linejoin:round;">
<g transform="rotate(-90.000000 133.7367 115.5287)">
<text x="133.7367" y="115.5287"
transform="scale(-1 1) translate(-267.473480 0)"
textLength="2.3733" font-size="1.0160" lengthAdjust="spacingAndGlyphs"
text-anchor="middle" opacity="0">0971</text>
</g>
<g class="stroked-text"><desc>0971</desc>
<path style="fill:#000000; fill-opacity:1.0000; stroke:none;fill-rule:evenodd;"
d="M 133.2385,114.3871
133.2780,114.3882
133.3271,114.3914
133.3720,114.3967
133.4126,114.4042
133.4574,114.4166
133.4956,114.4323
133.5328,114.4556
133.5432,114.4643
133.5705,114.4926
133.5918,114.5240
133.6070,114.5584
133.6161,114.5958
133.6191,114.6363
133.6172,114.6699
133.6098,114.7070
133.5942,114.7460
133.5711,114.7803
133.5404,114.8099
133.5075,114.8316
133.4686,114.8497
133.4332,114.8615
133.3939,114.8709
133.3508,114.8779
133.3038,114.8827
133.2661,114.8846
133.2262,114.8853
133.1994,114.8850
133.1609,114.8835
133.1129,114.8794
133.0689,114.8730
133.0288,114.8642
132.9840,114.8499
132.9454,114.8320
132.9128,114.8105
132.8857,114.7852
132.8611,114.7514
132.8442,114.7130
132.8358,114.6763
132.8330,114.6363
132.9640,114.6363
132.9650,114.6492
132.9806,114.6836
133.0095,114.7047
133.0463,114.7180
133.0675,114.7226
133.1048,114.7273
133.1458,114.7300
133.1873,114.7312
133.2262,114.7316
133.2578,114.7313
133.3008,114.7301
133.3384,114.7278
133.3754,114.7237
133.4123,114.7163
133.4406,114.7064
133.4715,114.6839
133.4788,114.6731
133.4881,114.6363
133.4871,114.6233
133.4719,114.5888
133.4432,114.5678
133.4066,114.5546
133.3853,114.5500
133.3479,114.5453
133.3067,114.5426
133.2652,114.5413
133.2262,114.5410
133.1947,114.5412
133.1517,114.5425
133.1141,114.5448
133.0769,114.5489
133.0397,114.5563
133.0114,114.5661
132.9806,114.5886
132.9733,114.5995
132.9640,114.6363
132.8330,114.6363
132.8349,114.6026
132.8423,114.5654
132.8579,114.5264
132.8810,114.4921
132.9117,114.4625
132.9446,114.4407
132.9834,114.4227
133.0187,114.4109
133.0578,114.4015
133.1008,114.3944
133.1475,114.3897
133.1850,114.3877
133.2247,114.3871
Z" /> 
<path style="fill:#000000; fill-opacity:1.0000; stroke:none;fill-rule:evenodd;"
d="M 133.1202,114.9710
133.1574,114.9772
133.1972,114.9902
133.2330,115.0095
133.2649,115.0351
133.2809,115.0519
133.3038,115.0832
133.3202,115.1169
133.3300,115.1530
133.3332,115.1915
133.3292,115.2313
133.3171,115.2677
133.2970,115.3007
133.2688,115.3301
133.2852,115.3289
133.3299,115.3242
133.3683,115.3179
133.4096,115.3069
133.4453,115.2892
133.4576,115.2789
133.4799,115.2490
133.4881,115.2117
133.4852,115.1867
133.4676,115.1537
133.4417,115.1359
133.4047,115.1265
133.4200,114.9841
133.4322,114.9862
133.4720,114.9961
133.5070,115.0097
133.5412,115.0300
133.5692,115.0552
133.5933,115.0892
133.6082,115.1239
133.6167,115.1630
133.6191,115.2008
133.6187,115.2162
133.6133,115.2604
133.6012,115.3012
133.5826,115.3387
133.5574,115.3729
133.5257,115.4038
133.5071,115.4178
133.4716,115.4379
133.4304,115.4543
133.3933,115.4647
133.3525,115.4726
133.3080,115.4781
133.2599,115.4811
133.2214,115.4818
133.2085,115.4817
133.1594,115.4800
133.1140,115.4759
133.0722,115.4695
133.0341,115.4607
132.9916,115.4464
132.9547,115.4285
132.9236,115.4070
132.9126,115.3975
132.8840,115.3670
132.8616,115.3335
132.8457,115.2971
132.8362,115.2578
132.8330,115.2155
132.8333,115.2086
132.9640,115.2086
132.9643,115.2166
132.9745,115.2537
132.9973,115.2841
133.0156,115.2985
133.0524,115.3130
133.0906,115.3169
133.1039,115.3164
133.1414,115.3087
133.1739,115.2879
133.1757,115.2860
133.1960,115.2532
133.2022,115.2164
133.2021,115.2110
133.1939,115.1738
133.1728,115.1431
133.1560,115.1303
133.1198,115.1173
133.0805,115.1139
133.0620,115.1145
133.0245,115.1215
132.9914,115.1408
132.9708,115.1713
132.9640,115.2086
132.8333,115.2086
132.8347,115.1828
132.8412,115.1461
132.8551,115.1067
132.8757,115.0709
132.9029,115.0387
132.9307,115.0151
132.9670,114.9938
133.0076,114.9792
133.0457,114.9719
133.0870,114.9694
Z" /> 
<path style="fill:#000000; fill-opacity:1.0000; stroke:none;fill-rule:evenodd;"
d="M 132.9878,115.5743
132.8449,115.5743
132.8449,116.0774
132.9521,116.0774
132.9817,116.0500
133.0112,116.0264
133.0444,116.0026
133.0815,115.9787
133.1152,115.9587
133.1294,115.9506
133.1659,115.9312
133.2030,115.9134
133.2409,115.8970
133.2794,115.8820
133.3187,115.8686
133.3587,115.8567
133.3749,115.8524
133.4149,115.8427
133.4534,115.8346
133.4907,115.8283
133.5336,115.8229
133.5745,115.8199
133.6072,115.8192
133.6072,115.6774
133.5674,115.6792
133.5273,115.6829
133.4871,115.6884
133.4467,115.6957
133.4061,115.7048
133.3653,115.7158
133.3244,115.7285
133.2832,115.7431
133.2424,115.7592
133.2027,115.7767
133.1642,115.7954
133.1267,115.8155
133.0903,115.8369
133.0551,115.8595
133.0209,115.8835
132.9878,115.9087
Z" /> 
<path style="fill:#000000; fill-opacity:1.0000; stroke:none;fill-rule:evenodd;"
d="M 133.6072,116.5439
133.6072,116.3969
133.0470,116.3969
133.0758,116.3657
133.1017,116.3324
133.1246,116.2971
133.1445,116.2598
133.1615,116.2205
133.1665,116.2069
133.0235,116.2069
133.0088,116.2438
132.9900,116.2787
132.9689,116.3111
132.9536,116.3320
132.9266,116.3631
132.8975,116.3889
132.8663,116.4094
132.8330,116.4246
132.8330,116.5439
Z" /> 
</g></g>
<g style="fill:none; 
stroke:#000000; stroke-width:0.1460; stroke-opacity:1; 
stroke-linecap:round; stroke-linejoin:round;">
<g transform="rotate(-90.000000 135.0169 115.5287)">
<text x="135.0169" y="115.5287"
transform="scale(-1 1) translate(-270.033800 0)"
textLength="0.0000" font-size="1.0160" lengthAdjust="spacingAndGlyphs"
text-anchor="middle" opacity="0"></text>
</g>
<g class="stroked-text"><desc></desc>
</g></g>
<g style="fill:none; 
stroke:#000000; stroke-width:0.1270; stroke-opacity:1; 
stroke-linecap:round; stroke-linejoin:round;">
<text x="140.1985" y="102.6001"
transform="scale(-1 1) translate(-280.397000 0)"
textLength="2.5522" font-size="0.8467" lengthAdjust="spacingAndGlyphs"
text-anchor="middle" opacity="0">Rev. 2</text>
<g class="stroked-text"><desc>Rev. 2</desc>
<path style="fill:#000000; fill-opacity:1.0000; stroke:none;fill-rule:evenodd;"
d="M 141.4092,102.4921
141.2801,102.4921
141.2801,102.2241
141.2539,102.2241
141.2512,102.2242
141.2196,102.2255
141.1889,102.2313
141.1751,102.2376
141.1502,102.2576
141.1390,102.2706
141.1196,102.2963
141.0996,102.3246
141.0821,102.3502
140.9887,102.4921
140.8342,102.4921
140.9124,102.3665
140.9291,102.3399
140.9468,102.3130
140.9649,102.2876
140.9859,102.2620
141.0023,102.2458
141.0279,102.2254
141.0549,102.2079
141.0446,102.2062
141.0109,102.1981
140.9812,102.1867
140.9522,102.1696
140.9285,102.1482
140.9100,102.1229
140.8968,102.0945
140.8888,102.0629
140.8866,102.0338
141.0193,102.0338
141.0205,102.0506
141.0324,102.0808
141.0416,102.0915
141.0686,102.1074
141.0871,102.1110
141.1206,102.1137
141.1522,102.1147
141.1846,102.1150
141.2801,102.1150
141.2801,101.9561
141.1793,101.9561
141.1480,101.9562
141.1165,101.9567
141.0852,101.9583
141.0619,101.9648
141.0365,101.9828
141.0247,102.0021
141.0193,102.0338
140.8866,102.0338
140.8862,102.0281
140.8863,102.0210
140.8901,101.9869
140.8994,101.9553
140.9141,101.9262
140.9334,101.9010
140.9588,101.8795
140.9885,101.8643
141.0044,101.8593
141.0355,101.8531
141.0684,101.8494
141.1010,101.8476
141.1374,101.8470
141.4092,101.8470
Z" /> 
<path style="fill:#000000; fill-opacity:1.0000; stroke:none;fill-rule:evenodd;"
d="M 140.6037,102.0160
140.6363,102.0198
140.6668,102.0283
140.6950,102.0413
140.7209,102.0590
140.7446,102.0813
140.7587,102.0985
140.7763,102.1271
140.7897,102.1593
140.7989,102.1950
140.8033,102.2275
140.8048,102.2625
140.8032,102.2976
140.7983,102.3304
140.7903,102.3608
140.7768,102.3934
140.7590,102.4228
140.7393,102.4457
140.7117,102.4679
140.6796,102.4847
140.6495,102.4943
140.6163,102.5001
140.5800,102.5021
140.5479,102.5005
140.5141,102.4949
140.4836,102.4851
140.4530,102.4692
140.4349,102.4557
140.4113,102.4316
140.3921,102.4027
140.3786,102.3730
140.5008,102.3532
140.5097,102.3743
140.5306,102.3986
140.5479,102.4078
140.5788,102.4127
140.5942,102.4116
140.6241,102.4017
140.6495,102.3814
140.6658,102.3569
140.6757,102.3265
140.6791,102.2936
140.3721,102.2936
140.3719,102.2849
140.3728,102.2513
140.3763,102.2142
140.4938,102.2142
140.6770,102.2142
140.6759,102.1932
140.6681,102.1617
140.6512,102.1343
140.6445,102.1275
140.6174,102.1106
140.5850,102.1050
140.5781,102.1053
140.5464,102.1139
140.5212,102.1330
140.5073,102.1528
140.4970,102.1833
140.4938,102.2142
140.3763,102.2142
140.3765,102.2125
140.3833,102.1773
140.3932,102.1456
140.4090,102.1123
140.4293,102.0841
140.4409,102.0719
140.4663,102.0510
140.4948,102.0350
140.5264,102.0238
140.5611,102.0174
140.5923,102.0157
Z" /> 
<path style="fill:#000000; fill-opacity:1.0000; stroke:none;fill-rule:evenodd;"
d="M 140.1472,102.4921
140.3339,102.0256
140.2052,102.0256
140.1180,102.2637
140.0927,102.3433
140.0830,102.3135
140.0800,102.3032
140.0704,102.2736
140.0670,102.2637
139.9789,102.0256
139.8528,102.0256
140.0369,102.4921
Z" /> 
<path style="fill:#000000; fill-opacity:1.0000; stroke:none;fill-rule:evenodd;"
d="M 139.8466,102.4921
139.8466,102.3730
139.7239,102.3730
139.7239,102.4921
Z" /> 
<path style="fill:#000000; fill-opacity:1.0000; stroke:none;fill-rule:evenodd;"
d="M 138.9649,102.3730
138.9649,102.4921
139.3946,102.4921
139.3894,102.4605
139.3807,102.4298
139.3685,102.3999
139.3528,102.3709
139.3342,102.3440
139.3132,102.3181
139.2920,102.2945
139.2674,102.2691
139.2396,102.2418
139.2149,102.2187
139.1905,102.1960
139.1654,102.1719
139.1419,102.1482
139.1206,102.1246
139.1131,102.1150
139.0977,102.0868
139.0891,102.0566
139.0879,102.0405
139.0921,102.0086
139.1072,101.9808
139.1099,101.9780
139.1380,101.9609
139.1707,101.9561
139.2033,101.9612
139.2304,101.9777
139.2318,101.9791
139.2488,102.0073
139.2564,102.0395
139.2580,102.0554
139.3802,102.0433
139.3757,102.0119
139.3672,101.9781
139.3555,101.9485
139.3377,101.9192
139.3154,101.8956
139.3118,101.8927
139.2852,101.8749
139.2559,101.8614
139.2237,101.8524
139.1889,101.8477
139.1677,101.8470
139.1337,101.8487
139.1025,101.8541
139.0697,101.8649
139.0407,101.8805
139.0190,101.8978
138.9979,101.9212
138.9802,101.9509
138.9692,101.9836
138.9651,102.0149
138.9649,102.0242
138.9671,102.0559
138.9736,102.0864
138.9804,102.1061
138.9946,102.1357
139.0120,102.1639
139.0294,102.1875
139.0512,102.2122
139.0741,102.2353
139.0992,102.2591
139.1097,102.2688
139.1331,102.2903
139.1571,102.3129
139.1800,102.3356
139.1833,102.3392
139.2025,102.3637
139.2084,102.3730
Z" /> 
</g></g>
<g style="fill:none; 
stroke:#000000; stroke-width:0.2540; stroke-opacity:1; 
stroke-linecap:round; stroke-linejoin:round;">
<g transform="rotate(-270.000000 144.1575 103.4891)">
<text x="144.1575" y="103.4891"
transform="scale(-1 1) translate(-288.315000 0)"
textLength="3.0609" font-size="1.6933" lengthAdjust="spacingAndGlyphs"
text-anchor="start" opacity="0">SIG</text>
</g>
<g class="stroked-text"><desc>SIG</desc>
<path style="fill:#000000; fill-opacity:1.0000; stroke:none;fill-rule:evenodd;"
d="M 144.7903,103.4246
144.8101,103.1733
144.7462,103.1569
144.6872,103.1300
144.6371,103.0900
144.6296,103.0815
144.5968,103.0280
144.5776,102.9631
144.5719,102.8942
144.5760,102.8289
144.5902,102.7677
144.6205,102.7102
144.6237,102.7062
144.6726,102.6629
144.7324,102.6435
144.7453,102.6429
144.8070,102.6592
144.8213,102.6696
144.8590,102.7216
144.8759,102.7623
144.8949,102.8244
144.9122,102.8876
144.9285,102.9495
144.9336,102.9692
144.9507,103.0311
144.9728,103.0973
144.9964,103.1548
145.0261,103.2109
145.0626,103.2605
145.1116,103.3064
145.1650,103.3411
145.2229,103.3644
145.2852,103.3765
145.3229,103.3784
145.3892,103.3718
145.4525,103.3523
145.5074,103.3231
145.5573,103.2837
145.5991,103.2347
145.6329,103.1762
145.6387,103.1634
145.6604,103.1012
145.6738,103.0403
145.6815,102.9739
145.6836,102.9115
145.6810,102.8392
145.6731,102.7727
145.6598,102.7120
145.6370,102.6469
145.6066,102.5901
145.5754,102.5492
145.5246,102.5014
145.4668,102.4647
145.4022,102.4391
145.3412,102.4259
145.2866,102.4211
145.2866,102.6795
145.3505,102.6972
145.4059,102.7314
145.4234,102.7505
145.4520,102.8088
145.4638,102.8753
145.4653,102.9143
145.4608,102.9798
145.4458,103.0409
145.4200,103.0905
145.3678,103.1282
145.3418,103.1315
145.2824,103.1098
145.2658,103.0930
145.2347,103.0368
145.2131,102.9775
145.1936,102.9112
145.1793,102.8557
145.1620,102.7884
145.1446,102.7281
145.1241,102.6664
145.1005,102.6074
145.0856,102.5768
145.0523,102.5243
145.0078,102.4753
144.9550,102.4357
144.8935,102.4066
144.8296,102.3906
144.7656,102.3847
144.7506,102.3845
144.6829,102.3905
144.6180,102.4084
144.5558,102.4382
144.5437,102.4456
144.4934,102.4840
144.4509,102.5304
144.4162,102.5847
144.4004,102.6184
144.3799,102.6777
144.3653,102.7438
144.3573,102.8073
144.3537,102.8760
144.3535,102.8966
144.3563,102.9697
144.3644,103.0372
144.3780,103.0993
144.4015,103.1665
144.4328,103.2258
144.4649,103.2692
144.5104,103.3142
144.5630,103.3520
144.6228,103.3823
144.6898,103.4053
144.7511,103.4189
Z" /> 
<path style="fill:#000000; fill-opacity:1.0000; stroke:none;fill-rule:evenodd;"
d="M 144.3734,102.1820
145.6638,102.1820
145.6638,101.9239
144.3734,101.9239
Z" /> 
<path style="fill:#000000; fill-opacity:1.0000; stroke:none;fill-rule:evenodd;"
d="M 144.8498,101.0854
145.0682,101.0854
145.0682,100.5287
144.5496,100.5287
144.5073,100.5801
144.4721,100.6355
144.4433,100.6914
144.4162,100.7542
144.4125,100.7638
144.3895,100.8313
144.3722,100.8992
144.3605,100.9675
144.3545,101.0361
144.3535,101.0755
144.3565,101.1490
144.3655,101.2188
144.3803,101.2850
144.4012,101.3476
144.4280,101.4066
144.4382,101.4254
144.4725,101.4788
144.5119,101.5269
144.5644,101.5765
144.6148,101.6133
144.6704,101.6449
144.6802,101.6497
144.7402,101.6752
144.8022,101.6954
144.8662,101.7104
144.9321,101.7201
144.9999,101.7245
145.0229,101.7247
145.0967,101.7218
145.1674,101.7130
145.2348,101.6982
145.2991,101.6776
145.3603,101.6511
145.3800,101.6410
145.4360,101.6069
145.4870,101.5673
145.5328,101.5222
145.5735,101.4718
145.6090,101.4158
145.6197,101.3959
145.6477,101.3306
145.6656,101.2673
145.6774,101.1983
145.6826,101.1346
145.6836,101.0898
145.6811,101.0179
145.6733,100.9511
145.6605,100.8894
145.6382,100.8221
145.6086,100.7622
145.5782,100.7179
145.5358,100.6710
145.4877,100.6308
145.4340,100.5974
145.3746,100.5706
145.3095,100.5506
145.2866,100.5454
145.2469,100.8019
145.3059,100.8235
145.3613,100.8579
145.4066,100.9037
145.4400,100.9593
145.4595,101.0236
145.4653,101.0898
145.4601,101.1606
145.4444,101.2247
145.4184,101.2822
145.3819,101.3330
145.3564,101.3590
145.3038,101.3980
145.2411,101.4273
145.1794,101.4449
145.1101,101.4554
145.0468,101.4588
145.0335,101.4589
144.9642,101.4564
144.9005,101.4490
144.8315,101.4336
144.7707,101.4111
144.7100,101.3759
144.6873,101.3578
144.6423,101.3104
144.6084,101.2570
144.5856,101.1977
144.5737,101.1323
144.5719,101.0923
144.5773,101.0264
144.5918,100.9654
144.6045,100.9297
144.6309,100.8718
144.6639,100.8163
144.6836,100.7895
144.8498,100.7895
Z" /> 
</g></g>
<g style="fill:none; 
stroke:#000000; stroke-width:0.3000; stroke-opacity:1; 
stroke-linecap:round; stroke-linejoin:round;">
<text x="53.0765" y="183.8801"
textLength="7.9011" font-size="2.7093" lengthAdjust="spacingAndGlyphs"
text-anchor="start" opacity="0">B.Silk</text>
<g class="stroked-text"><desc>B.Silk</desc>
<path style="fill:#000000; fill-opacity:1.0000; stroke:none;fill-rule:evenodd;"
d="M 54.2041,181.4710
54.3042,181.4746
54.4076,181.4828
54.4656,181.4909
54.5655,181.5173
54.6556,181.5611
54.6796,181.5768
54.7560,181.6420
54.8203,181.7240
54.8364,181.7505
54.8772,181.8428
54.8972,181.9440
54.8994,181.9936
54.8885,182.0997
54.8559,182.1991
54.8220,182.2616
54.7562,182.3446
54.6749,182.4104
54.6121,182.4448
54.7104,182.4816
54.8036,182.5367
54.8799,182.6069
54.8994,182.6309
54.9525,182.7176
54.9860,182.8133
54.9998,182.9181
55.0002,182.9401
54.9910,183.0440
54.9636,183.1458
54.9351,183.2126
54.8798,183.3041
54.8111,183.3807
54.7580,183.4235
54.6664,183.4742
54.5696,183.5056
54.4810,183.5208
54.3756,183.5273
54.2726,183.5305
54.1620,183.5327
54.0543,183.5340
53.9827,183.5347
53.2859,183.5347
53.2859,183.1853
53.6989,183.1853
54.0815,183.1853
54.1830,183.1845
54.2892,183.1809
54.3649,183.1729
54.4623,183.1366
54.5148,183.0925
54.5633,183.0010
54.5728,182.9207
54.5571,182.8227
54.5282,182.7669
54.4525,182.6985
54.3991,182.6746
54.2979,182.6556
54.1895,182.6481
54.0836,182.6455
54.0324,182.6453
53.6989,182.6453
53.6989,183.1853
53.2859,183.1853
53.2859,182.2959
53.6989,182.2959
53.9698,182.2959
54.0790,182.2955
54.1834,182.2937
54.2696,182.2889
54.3696,182.2616
54.4364,182.2150
54.4873,182.1289
54.4974,182.0542
54.4789,181.9532
54.4448,181.8988
54.3597,181.8426
54.2895,181.8264
54.1812,181.8214
54.0676,181.8199
53.9541,181.8194
53.9361,181.8194
53.6989,181.8194
53.6989,182.2959
53.2859,182.2959
53.2859,181.4700
54.1038,181.4700
Z" /> 
<path style="fill:#000000; fill-opacity:1.0000; stroke:none;fill-rule:evenodd;"
d="M 55.3342,183.5347
55.3342,183.1535
55.7267,183.1535
55.7267,183.5347
Z" /> 
<path style="fill:#000000; fill-opacity:1.0000; stroke:none;fill-rule:evenodd;"
d="M 56.0225,182.8676
56.4245,182.8359
56.4508,182.9382
56.4938,183.0325
56.5579,183.1128
56.5715,183.1247
56.6570,183.1773
56.7609,183.2080
56.8712,183.2170
56.9757,183.2105
57.0735,183.1878
57.1656,183.1392
57.1720,183.1341
57.2412,183.0559
57.2723,182.9602
57.2732,182.9396
57.2472,182.8410
57.2305,182.8180
57.1474,182.7578
57.0821,182.7307
56.9829,182.7003
56.8816,182.6725
56.7827,182.6465
56.7511,182.6383
56.6522,182.6109
56.5462,182.5757
56.4542,182.5378
56.3645,182.4904
56.2851,182.4319
56.2116,182.3536
56.1562,182.2681
56.1188,182.1755
56.0994,182.0757
56.0965,182.0155
56.1069,181.9094
56.1382,181.8081
56.1848,181.7202
56.2480,181.6404
56.3263,181.5735
56.4199,181.5195
56.4404,181.5102
56.5399,181.4755
56.6375,181.4541
56.7436,181.4417
56.8434,181.4383
56.9591,181.4425
57.0655,181.4552
57.1626,181.4763
57.2668,181.5129
57.3577,181.5616
57.4231,181.6115
57.4996,181.6928
57.5583,181.7852
57.5994,181.8886
57.6205,181.9861
57.6281,182.0735
57.2147,182.0735
57.1863,181.9713
57.1316,181.8826
57.1010,181.8547
57.0079,181.8089
56.9014,181.7900
56.8390,181.7877
56.7342,181.7948
56.6365,181.8189
56.5571,181.8601
56.4967,181.9436
56.4915,181.9852
56.5262,182.0802
56.5531,182.1068
56.6430,182.1565
56.7379,182.1911
56.8439,182.2224
56.9328,182.2453
57.0404,182.2729
57.1370,182.3008
57.2356,182.3335
57.3300,182.3713
57.3789,182.3952
57.4630,182.4484
57.5413,182.5196
57.6048,182.6041
57.6514,182.7025
57.6770,182.8047
57.6863,182.9071
57.6866,182.9312
57.6771,183.0394
57.6485,183.1433
57.6007,183.2428
57.5889,183.2622
57.5275,183.3427
57.4533,183.4107
57.3663,183.4661
57.3124,183.4915
57.2176,183.5243
57.1118,183.5477
57.0102,183.5605
56.9002,183.5661
56.8672,183.5664
56.7504,183.5621
56.6423,183.5490
56.5430,183.5273
56.4354,183.4897
56.3406,183.4396
56.2712,183.3883
56.1991,183.3155
56.1387,183.2313
56.0902,183.1356
56.0533,183.0284
56.0316,182.9303
Z" /> 
<path style="fill:#000000; fill-opacity:1.0000; stroke:none;fill-rule:evenodd;"
d="M 58.0202,181.8194
58.0202,181.4700
58.4127,181.4700
58.4127,181.8194
Z" /> 
<path style="fill:#000000; fill-opacity:1.0000; stroke:none;fill-rule:evenodd;"
d="M 58.0202,183.5347
58.0202,182.0418
58.4127,182.0418
58.4127,183.5347
Z" /> 
<path style="fill:#000000; fill-opacity:1.0000; stroke:none;fill-rule:evenodd;"
d="M 58.8103,183.5347
58.8103,181.4700
59.2028,181.4700
59.2028,183.5347
Z" /> 
<path style="fill:#000000; fill-opacity:1.0000; stroke:none;fill-rule:evenodd;"
d="M 59.5865,183.5347
59.5865,181.4700
59.9791,181.4700
59.9791,182.5674
60.4381,182.0418
60.9210,182.0418
60.4143,182.5877
60.9573,183.5347
60.5344,183.5347
60.1617,182.8612
59.9791,183.0567
59.9791,183.5347
Z" /> 
</g></g>
<g style="fill:none; 
stroke:#000000; stroke-width:0.1714; stroke-opacity:1; 
stroke-linecap:round; stroke-linejoin:round;">
<g transform="rotate(-90.000000 148.3265 114.9191)">
<text x="148.3265" y="114.9191"
transform="scale(-1 1) translate(-296.653000 0)"
textLength="1.7340" font-size="0.9144" lengthAdjust="spacingAndGlyphs"
text-anchor="middle" opacity="0">+5V</text>
</g>
<g class="stroked-text"><desc>+5V</desc>
<path style="fill:#000000; fill-opacity:1.0000; stroke:none;fill-rule:evenodd;"
d="M 148.1134,114.2730
147.9312,114.2730
147.9312,114.0921
147.8133,114.0921
147.8133,114.2730
147.6310,114.2730
147.6310,114.3936
147.8133,114.3936
147.8133,114.5751
147.9312,114.5751
147.9312,114.3936
148.1134,114.3936
Z" /> 
<path style="fill:#000000; fill-opacity:1.0000; stroke:none;fill-rule:evenodd;"
d="M 148.0106,114.6551
147.9955,114.7869
148.0297,114.7943
148.0602,114.8093
148.0739,114.8204
148.0946,114.8483
148.1027,114.8822
148.1027,114.8844
148.0969,114.9183
148.0796,114.9472
148.0726,114.9546
148.0429,114.9733
148.0098,114.9816
147.9813,114.9834
147.9453,114.9801
147.9116,114.9674
147.8955,114.9549
147.8759,114.9267
147.8673,114.8919
147.8669,114.8807
147.8721,114.8463
147.8878,114.8141
147.9109,114.7871
147.9205,114.7786
147.9039,114.6712
147.5238,114.7390
147.5238,115.0889
147.6525,115.0889
147.6525,114.8394
147.7734,114.8186
147.7595,114.8492
147.7509,114.8832
147.7489,114.9090
147.7520,114.9463
147.7612,114.9810
147.7764,115.0131
147.7978,115.0426
147.8128,115.0583
147.8424,115.0822
147.8758,115.1002
147.9128,115.1124
147.9474,115.1181
147.9783,115.1196
148.0145,115.1172
148.0490,115.1101
148.0817,115.0983
148.1127,115.0818
148.1297,115.0702
148.1559,115.0479
148.1815,115.0177
148.2006,114.9838
148.2134,114.9463
148.2192,114.9122
148.2206,114.8831
148.2186,114.8485
148.2112,114.8112
148.1984,114.7773
148.1801,114.7468
148.1637,114.7271
148.1369,114.7031
148.1063,114.6837
148.0721,114.6689
148.0397,114.6600
Z" /> 
<path style="fill:#000000; fill-opacity:1.0000; stroke:none;fill-rule:evenodd;"
d="M 148.2099,115.3926
147.5131,115.1457
147.5131,115.2970
148.0277,115.4717
147.5131,115.6409
147.5131,115.7888
148.2099,115.5415
Z" /> 
</g></g>
<g style="fill:none; 
stroke:#000000; stroke-width:0.1714; stroke-opacity:1; 
stroke-linecap:round; stroke-linejoin:round;">
<g transform="rotate(-90.000000 147.4629 115.1731)">
<text x="147.4629" y="115.1731"
transform="scale(-1 1) translate(-294.925800 0)"
textLength="2.1320" font-size="0.9144" lengthAdjust="spacingAndGlyphs"
text-anchor="middle" opacity="0">GND</text>
</g>
<g class="stroked-text"><desc>GND</desc>
<path style="fill:#000000; fill-opacity:1.0000; stroke:none;fill-rule:evenodd;"
d="M 147.0890,114.4986
146.9711,114.4986
146.9711,114.7992
147.2512,114.7992
147.2740,114.7715
147.2930,114.7415
147.3086,114.7114
147.3232,114.6774
147.3252,114.6723
147.3376,114.6358
147.3470,114.5992
147.3533,114.5623
147.3565,114.5252
147.3570,114.5039
147.3554,114.4643
147.3506,114.4266
147.3426,114.3908
147.3313,114.3570
147.3168,114.3252
147.3113,114.3150
147.2928,114.2862
147.2715,114.2602
147.2432,114.2334
147.2159,114.2135
147.1859,114.1965
147.1807,114.1939
147.1482,114.1801
147.1147,114.1692
147.0802,114.1611
147.0446,114.1559
147.0080,114.1535
146.9956,114.1533
146.9557,114.1549
146.9176,114.1597
146.8811,114.1677
146.8464,114.1788
146.8134,114.1931
146.8028,114.1986
146.7725,114.2170
146.7450,114.2384
146.7203,114.2627
146.6983,114.2900
146.6791,114.3202
146.6733,114.3309
146.6582,114.3662
146.6485,114.4003
146.6422,114.4376
146.6393,114.4720
146.6388,114.4962
146.6402,114.5350
146.6443,114.5711
146.6513,114.6044
146.6633,114.6408
146.6793,114.6731
146.6957,114.6971
146.7186,114.7224
146.7446,114.7441
146.7736,114.7621
146.8057,114.7766
146.8408,114.7874
146.8532,114.7902
146.8746,114.6517
146.8427,114.6400
146.8128,114.6214
146.7884,114.5967
146.7703,114.5667
146.7598,114.5319
146.7567,114.4962
146.7595,114.4580
146.7680,114.4234
146.7820,114.3923
146.8017,114.3649
146.8155,114.3508
146.8439,114.3298
146.8777,114.3140
146.9111,114.3045
146.9485,114.2988
146.9827,114.2970
146.9899,114.2969
147.0273,114.2982
147.0617,114.3022
147.0989,114.3105
147.1318,114.3227
147.1646,114.3417
147.1768,114.3515
147.2011,114.3771
147.2194,114.4059
147.2318,114.4380
147.2381,114.4733
147.2391,114.4949
147.2362,114.5305
147.2284,114.5634
147.2215,114.5827
147.2073,114.6140
147.1894,114.6439
147.1788,114.6584
147.0890,114.6584
Z" /> 
<path style="fill:#000000; fill-opacity:1.0000; stroke:none;fill-rule:evenodd;"
d="M 147.3463,114.9252
146.6495,114.9252
146.6495,115.0609
147.1204,115.3434
146.6495,115.3434
146.6495,115.4729
147.3463,115.4729
147.3463,115.3331
146.8825,115.0547
147.3463,115.0547
Z" /> 
<path style="fill:#000000; fill-opacity:1.0000; stroke:none;fill-rule:evenodd;"
d="M 147.3463,115.8784
147.3461,115.8973
147.3442,115.9320
147.3400,115.9665
147.3316,116.0019
147.3290,116.0095
147.3160,116.0413
147.2986,116.0719
147.2760,116.0999
147.2730,116.1029
147.2472,116.1252
147.2178,116.1447
147.1847,116.1614
147.1528,116.1738
147.1450,116.1763
147.1116,116.1850
147.0753,116.1910
147.0411,116.1940
147.0046,116.1950
146.9806,116.1947
146.9464,116.1928
146.9093,116.1886
146.8752,116.1823
146.8400,116.1724
146.8196,116.1648
146.7855,116.1487
146.7546,116.1292
146.7271,116.1064
146.7133,116.0924
146.6920,116.0652
146.6751,116.0351
146.6627,116.0024
146.6569,115.9772
146.6524,115.9428
146.6501,115.9067
146.6495,115.8709
146.6495,115.8181
146.7674,115.8181
146.7674,115.8234
146.7680,115.8617
146.7695,115.8963
146.7741,115.9326
146.7747,115.9350
146.7866,115.9683
146.8070,115.9970
146.8133,116.0032
146.8423,116.0233
146.8743,116.0366
146.8887,116.0407
146.9230,116.0468
146.9601,116.0499
146.9981,116.0508
147.0177,116.0506
147.0539,116.0488
147.0895,116.0447
147.1257,116.0366
147.1342,116.0339
147.1659,116.0204
147.1929,116.0001
147.2093,115.9766
147.2217,115.9439
147.2243,115.9310
147.2276,115.8959
147.2284,115.8595
147.2284,115.7555
146.7674,115.7555
146.7674,115.8181
146.6495,115.8181
146.6495,115.6160
147.3463,115.6160
Z" /> 
</g></g>
<g style="fill:none; 
stroke:#000000; stroke-width:0.1460; stroke-opacity:1; 
stroke-linecap:round; stroke-linejoin:round;">
<g transform="rotate(-90.000000 132.7411 115.4779)">
<text x="132.7411" y="115.4779"
transform="scale(-1 1) translate(-265.482120 0)"
textLength="3.0805" font-size="1.0160" lengthAdjust="spacingAndGlyphs"
text-anchor="middle" opacity="0">#WCP</text>
</g>
<g class="stroked-text"><desc>#WCP</desc>
<path style="fill:#000000; fill-opacity:1.0000; stroke:none;fill-rule:evenodd;"
d="M 132.1470,114.0733
132.3018,114.0411
132.3018,113.9471
132.4090,113.9471
132.4090,114.0190
132.6115,113.9769
132.6115,114.0953
132.4090,114.1370
132.4090,114.2535
132.6115,114.2125
132.6115,114.3292
132.4090,114.3715
132.4090,114.5213
132.3018,114.5213
132.3018,114.3940
132.1470,114.4262
132.1470,114.5213
132.0398,114.5213
132.0398,114.4487
131.8373,114.4909
131.8373,114.3694
132.0398,114.3285
132.0398,114.2131
131.8373,114.2548
131.8373,114.1909
132.1470,114.1909
132.1470,114.3067
132.3018,114.2752
132.3018,114.1591
132.1470,114.1909
131.8373,114.1909
131.8373,114.1375
132.0398,114.0955
132.0398,113.9471
132.1470,113.9471
Z" /> 
<path style="fill:#000000; fill-opacity:1.0000; stroke:none;fill-rule:evenodd;"
d="M 132.6115,114.7178
131.8373,114.5347
131.8373,114.6932
132.3692,114.8088
131.8373,114.9492
131.8373,115.1334
132.3781,115.2680
131.8373,115.3858
131.8373,115.5417
132.6115,115.3554
132.6115,115.1911
132.0327,115.0381
132.6115,114.8859
Z" /> 
<path style="fill:#000000; fill-opacity:1.0000; stroke:none;fill-rule:evenodd;"
d="M 132.3137,116.1064
132.3614,116.2566
132.3995,116.2447
132.4343,116.2305
132.4720,116.2105
132.5050,116.1874
132.5335,116.1610
132.5499,116.1416
132.5709,116.1100
132.5875,116.0753
132.5997,116.0376
132.6077,115.9969
132.6113,115.9531
132.6115,115.9378
132.6099,115.9004
132.6033,115.8561
132.5917,115.8145
132.5750,115.7755
132.5533,115.7392
132.5265,115.7055
132.5080,115.6865
132.4738,115.6582
132.4360,115.6347
132.3943,115.6160
132.3584,115.6045
132.3201,115.5960
132.2794,115.5907
132.2363,115.5884
132.2251,115.5883
132.1790,115.5898
132.1355,115.5944
132.0947,115.6022
132.0565,115.6130
132.0210,115.6269
131.9803,115.6486
131.9438,115.6751
131.9303,115.6871
131.9001,115.7195
131.8750,115.7550
131.8550,115.7936
131.8401,115.8351
131.8304,115.8797
131.8263,115.9176
131.8254,115.9473
131.8275,115.9900
131.8340,116.0302
131.8448,116.0677
131.8598,116.1027
131.8792,116.1350
131.9029,116.1648
131.9136,116.1760
131.9426,116.2005
131.9772,116.2218
132.0122,116.2377
132.0516,116.2512
132.0636,116.2545
132.0874,116.1012
132.0487,116.0884
132.0161,116.0685
131.9916,116.0444
131.9716,116.0125
131.9598,115.9763
131.9564,115.9395
131.9602,115.8988
131.9716,115.8622
131.9905,115.8296
132.0171,115.8010
132.0521,115.7778
132.0905,115.7629
132.1292,115.7542
132.1731,115.7492
132.2138,115.7479
132.2568,115.7492
132.2958,115.7531
132.3373,115.7610
132.3729,115.7727
132.4071,115.7909
132.4193,115.8002
132.4461,115.8284
132.4652,115.8604
132.4767,115.8964
132.4805,115.9363
132.4757,115.9767
132.4615,116.0131
132.4403,116.0426
132.4107,116.0679
132.3763,116.0865
132.3396,116.0997
Z" /> 
<path style="fill:#000000; fill-opacity:1.0000; stroke:none;fill-rule:evenodd;"
d="M 132.6115,116.5402
132.3137,116.5402
132.3137,116.6413
132.3132,116.6849
132.3116,116.7238
132.3085,116.7624
132.3028,116.8019
132.2995,116.8147
132.2857,116.8500
132.2665,116.8823
132.2535,116.8989
132.2242,116.9262
132.1911,116.9474
132.1850,116.9506
132.1484,116.9641
132.1105,116.9711
132.0727,116.9731
132.0344,116.9710
131.9945,116.9634
131.9588,116.9502
131.9236,116.9287
131.9066,116.9142
131.8809,116.8856
131.8617,116.8536
131.8488,116.8181
131.8455,116.8023
131.8409,116.7618
131.8387,116.7194
131.8376,116.6756
131.8373,116.6338
131.8373,116.6151
131.9683,116.6151
131.9686,116.6490
131.9698,116.6882
131.9735,116.7265
131.9842,116.7590
132.0070,116.7889
132.0374,116.8073
132.0750,116.8134
132.0989,116.8110
132.1338,116.7960
132.1509,116.7809
132.1710,116.7476
132.1724,116.7435
132.1794,116.7053
132.1820,116.6671
132.1827,116.6251
132.1827,116.5402
131.9683,116.5402
131.9683,116.6151
131.8373,116.6151
131.8373,116.3852
132.6115,116.3852
Z" /> 
</g></g>
<g style="fill:none; 
stroke:#000000; stroke-width:0.1460; stroke-opacity:1; 
stroke-linecap:round; stroke-linejoin:round;">
<g transform="rotate(-90.000000 134.0212 115.4779)">
<text x="134.0212" y="115.4779"
transform="scale(-1 1) translate(-268.042440 0)"
textLength="0.0000" font-size="1.0160" lengthAdjust="spacingAndGlyphs"
text-anchor="middle" opacity="0"></text>
</g>
<g class="stroked-text"><desc></desc>
</g><g transform="rotate(-90.000000 135.3014 115.4779)">
<text x="135.3014" y="115.4779"
transform="scale(-1 1) translate(-270.602760 0)"
textLength="0.0000" font-size="1.0160" lengthAdjust="spacingAndGlyphs"
text-anchor="middle" opacity="0"></text>
</g>
<g class="stroked-text"><desc></desc>
</g><g transform="rotate(-90.000000 136.5815 115.4779)">
<text x="136.5815" y="115.4779"
transform="scale(-1 1) translate(-273.163080 0)"
textLength="0.0000" font-size="1.0160" lengthAdjust="spacingAndGlyphs"
text-anchor="middle" opacity="0"></text>
</g>
<g class="stroked-text"><desc></desc>
</g><g transform="rotate(-90.000000 137.8617 115.4779)">
<text x="137.8617" y="115.4779"
transform="scale(-1 1) translate(-275.723400 0)"
textLength="0.0000" font-size="1.0160" lengthAdjust="spacingAndGlyphs"
text-anchor="middle" opacity="0"></text>
</g>
<g class="stroked-text"><desc></desc>
</g></g>
<g style="fill:none; 
stroke:#000000; stroke-width:0.2032; stroke-opacity:1; 
stroke-linecap:round; stroke-linejoin:round;">
<g transform="rotate(-90.000000 136.2615 100.0601)">
<text x="136.2615" y="100.0601"
transform="scale(-1 1) translate(-272.523000 0)"
textLength="4.1454" font-size="1.6933" lengthAdjust="spacingAndGlyphs"
text-anchor="start" opacity="0">PWR</text>
</g>
<g class="stroked-text"><desc>PWR</desc>
<path style="fill:#000000; fill-opacity:1.0000; stroke:none;fill-rule:evenodd;"
d="M 136.0456,100.4485
135.5493,100.4485
135.5493,100.6169
135.5484,100.6896
135.5458,100.7544
135.5406,100.8187
135.5310,100.8846
135.5256,100.9058
135.5025,100.9647
135.4705,101.0186
135.4489,101.0463
135.4001,101.0918
135.3449,101.1271
135.3347,101.1323
135.2737,101.1549
135.2106,101.1666
135.1476,101.1700
135.0837,101.1664
135.0172,101.1537
134.9577,101.1317
134.8991,101.0958
134.8707,101.0718
134.8279,101.0241
134.7958,100.9707
134.7744,100.9116
134.7689,100.8853
134.7613,100.8177
134.7575,100.7471
134.7557,100.6741
134.7552,100.6045
134.7552,100.5732
134.9736,100.5732
134.9740,100.6298
134.9760,100.6951
134.9823,100.7590
135.0001,100.8131
135.0381,100.8629
135.0887,100.8936
135.1513,100.9038
135.1913,100.8997
135.2493,100.8747
135.2778,100.8496
135.3114,100.7940
135.3137,100.7872
135.3254,100.7235
135.3297,100.6599
135.3309,100.5899
135.3309,100.4485
134.9736,100.4485
134.9736,100.5732
134.7552,100.5732
134.7552,100.1901
136.0456,100.1901
Z" /> 
<path style="fill:#000000; fill-opacity:1.0000; stroke:none;fill-rule:evenodd;"
d="M 136.0456,101.5564
134.7552,101.2512
134.7552,101.5155
135.6417,101.7081
134.7552,101.9420
134.7552,102.2491
135.6566,102.4734
134.7552,102.6697
134.7552,102.9297
136.0456,102.6192
136.0456,102.3453
135.0809,102.0903
136.0456,101.8365
Z" /> 
<path style="fill:#000000; fill-opacity:1.0000; stroke:none;fill-rule:evenodd;"
d="M 136.0456,103.3115
135.5096,103.3115
135.5096,103.3639
135.5096,103.3694
135.5123,103.4326
135.5239,103.4939
135.5365,103.5215
135.5766,103.5714
135.6025,103.5937
135.6540,103.6325
135.7105,103.6725
135.7618,103.7076
136.0456,103.8943
136.0456,104.2033
135.7943,104.0470
135.7412,104.0136
135.6873,103.9781
135.6364,103.9419
135.5853,103.8999
135.5529,103.8671
135.5121,103.8160
135.4770,103.7619
135.4736,103.7826
135.4575,103.8500
135.4348,103.9093
135.4005,103.9673
135.3576,104.0147
135.3071,104.0517
135.2503,104.0782
135.1871,104.0941
135.1175,104.0994
135.1033,104.0992
135.0351,104.0915
134.9719,104.0730
134.9137,104.0435
134.8634,104.0050
134.8203,103.9542
134.7900,103.8946
134.7799,103.8629
134.7675,103.8008
134.7601,103.7349
134.7564,103.6698
134.7552,103.5969
134.7552,103.5131
134.9736,103.5131
134.9738,103.5758
134.9747,103.6387
134.9779,103.7014
134.9910,103.7479
135.0269,103.7988
135.0656,103.8223
135.1290,103.8332
135.1624,103.8307
135.2230,103.8069
135.2443,103.7886
135.2760,103.7346
135.2834,103.6976
135.2887,103.6305
135.2907,103.5673
135.2912,103.5026
135.2912,103.3115
134.9736,103.3115
134.9736,103.5131
134.7552,103.5131
134.7552,103.0534
136.0456,103.0534
Z" /> 
</g></g>
<g style="fill:none; 
stroke:#000000; stroke-width:0.1714; stroke-opacity:1; 
stroke-linecap:round; stroke-linejoin:round;">
<g transform="rotate(-90.000000 149.2409 115.1731)">
<text x="149.2409" y="115.1731"
transform="scale(-1 1) translate(-298.481800 0)"
textLength="1.6529" font-size="0.9144" lengthAdjust="spacingAndGlyphs"
text-anchor="middle" opacity="0">SIG</text>
</g>
<g class="stroked-text"><desc>SIG</desc>
<path style="fill:#000000; fill-opacity:1.0000; stroke:none;fill-rule:evenodd;"
d="M 148.8992,114.3815
148.8885,114.5172
148.9230,114.5260
148.9548,114.5405
148.9819,114.5622
148.9860,114.5667
149.0037,114.5956
149.0141,114.6307
149.0171,114.6679
149.0149,114.7032
149.0073,114.7362
148.9909,114.7673
148.9891,114.7694
148.9627,114.7928
148.9304,114.8033
148.9235,114.8036
148.8902,114.7948
148.8824,114.7892
148.8621,114.7611
148.8530,114.7391
148.8427,114.7056
148.8333,114.6714
148.8246,114.6380
148.8218,114.6274
148.8126,114.5940
148.8006,114.5582
148.7879,114.5272
148.7719,114.4969
148.7521,114.4701
148.7257,114.4453
148.6969,114.4266
148.6656,114.4140
148.6319,114.4074
148.6116,114.4064
148.5758,114.4100
148.5416,114.4205
148.5119,114.4363
148.4850,114.4576
148.4624,114.4840
148.4442,114.5156
148.4411,114.5225
148.4293,114.5561
148.4221,114.5890
148.4179,114.6248
148.4168,114.6585
148.4182,114.6976
148.4225,114.7335
148.4296,114.7663
148.4420,114.8014
148.4584,114.8321
148.4752,114.8542
148.5027,114.8800
148.5339,114.8998
148.5688,114.9137
148.6017,114.9208
148.6312,114.9234
148.6312,114.7838
148.5967,114.7743
148.5668,114.7558
148.5573,114.7455
148.5419,114.7140
148.5355,114.6781
148.5347,114.6570
148.5371,114.6217
148.5452,114.5887
148.5592,114.5619
148.5873,114.5415
148.6014,114.5398
148.6334,114.5515
148.6424,114.5605
148.6592,114.5909
148.6709,114.6229
148.6814,114.6587
148.6891,114.6887
148.6985,114.7250
148.7079,114.7576
148.7189,114.7909
148.7317,114.8227
148.7397,114.8393
148.7577,114.8677
148.7817,114.8941
148.8102,114.9155
148.8435,114.9312
148.8780,114.9399
148.9125,114.9430
148.9206,114.9431
148.9572,114.9399
148.9922,114.9302
149.0258,114.9141
149.0324,114.9101
149.0595,114.8894
149.0825,114.8644
149.1012,114.8350
149.1097,114.8168
149.1208,114.7848
149.1287,114.7491
149.1330,114.7148
149.1349,114.6777
149.1350,114.6666
149.1336,114.6271
149.1292,114.5906
149.1218,114.5571
149.1091,114.5208
149.0922,114.4888
149.0749,114.4654
149.0503,114.4411
149.0219,114.4207
148.9896,114.4043
148.9535,114.3919
148.9203,114.3846
Z" /> 
<path style="fill:#000000; fill-opacity:1.0000; stroke:none;fill-rule:evenodd;"
d="M 149.1243,115.0525
148.4275,115.0525
148.4275,115.1919
149.1243,115.1919
Z" /> 
<path style="fill:#000000; fill-opacity:1.0000; stroke:none;fill-rule:evenodd;"
d="M 148.8670,115.6446
148.7491,115.6446
148.7491,115.9453
149.0292,115.9453
149.0520,115.9175
149.0710,115.8876
149.0866,115.8574
149.1012,115.8235
149.1032,115.8183
149.1156,115.7819
149.1250,115.7452
149.1313,115.7083
149.1345,115.6713
149.1350,115.6500
149.1334,115.6103
149.1286,115.5726
149.1206,115.5369
149.1093,115.5031
149.0948,115.4712
149.0893,115.4610
149.0708,115.4322
149.0495,115.4062
149.0212,115.3795
148.9939,115.3596
148.9639,115.3425
148.9587,115.3399
148.9262,115.3262
148.8927,115.3152
148.8582,115.3072
148.8226,115.3019
148.7860,115.2996
148.7736,115.2994
148.7337,115.3010
148.6956,115.3058
148.6591,115.3137
148.6244,115.3248
148.5914,115.3391
148.5808,115.3446
148.5505,115.3631
148.5230,115.3844
148.4983,115.4087
148.4763,115.4360
148.4571,115.4662
148.4513,115.4769
148.4362,115.5122
148.4265,115.5464
148.4202,115.5837
148.4173,115.6181
148.4168,115.6423
148.4182,115.6811
148.4223,115.7172
148.4293,115.7505
148.4413,115.7868
148.4573,115.8192
148.4737,115.8431
148.4966,115.8684
148.5226,115.8901
148.5516,115.9082
148.5837,115.9226
148.6188,115.9334
148.6312,115.9362
148.6526,115.7977
148.6207,115.7861
148.5908,115.7675
148.5664,115.7428
148.5483,115.7128
148.5378,115.6780
148.5347,115.6423
148.5375,115.6041
148.5460,115.5694
148.5600,115.5384
148.5797,115.5110
148.5935,115.4969
148.6219,115.4759
148.6557,115.4600
148.6891,115.4505
148.7265,115.4448
148.7607,115.4430
148.7679,115.4429
148.8053,115.4443
148.8397,115.4483
148.8769,115.4566
148.9098,115.4688
148.9426,115.4878
148.9548,115.4976
148.9791,115.5231
148.9974,115.5520
149.0097,115.5840
149.0161,115.6193
149.0171,115.6409
149.0142,115.6765
149.0064,115.7094
148.9995,115.7287
148.9853,115.7600
148.9674,115.7900
148.9568,115.8044
148.8670,115.8044
Z" /> 
</g></g>
<g style="fill:none; 
stroke:#000000; stroke-width:0.1588; stroke-opacity:1; 
stroke-linecap:round; stroke-linejoin:round;">
<text x="145.0245" y="105.4830"
transform="scale(-1 1) translate(-290.049000 0)"
textLength="0.9889" font-size="0.8467" lengthAdjust="spacingAndGlyphs"
text-anchor="middle" opacity="0">J1</text>
<g class="stroked-text"><desc>J1</desc>
<path style="fill:#000000; fill-opacity:1.0000; stroke:none;fill-rule:evenodd;"
d="M 145.2232,104.7838
145.0944,104.7838
145.0944,105.1916
145.0951,105.2248
145.0975,105.2585
145.1023,105.2908
145.1084,105.3146
145.1214,105.3445
145.1392,105.3709
145.1618,105.3938
145.1765,105.4050
145.2067,105.4214
145.2377,105.4315
145.2727,105.4373
145.3065,105.4390
145.3405,105.4371
145.3714,105.4315
145.4036,105.4203
145.4316,105.4040
145.4522,105.3861
145.4722,105.3605
145.4872,105.3302
145.4963,105.3004
145.5018,105.2672
145.5037,105.2305
145.3820,105.2206
145.3791,105.2537
145.3714,105.2851
145.3659,105.2963
145.3434,105.3192
145.3125,105.3292
145.3021,105.3298
145.2713,105.3257
145.2447,105.3094
145.2412,105.3049
145.2295,105.2758
145.2246,105.2414
145.2232,105.2064
145.2232,105.2015
Z" /> 
<path style="fill:#000000; fill-opacity:1.0000; stroke:none;fill-rule:evenodd;"
d="M 144.6729,105.4290
144.7954,105.4290
144.7954,104.9622
144.8215,104.9862
144.8492,105.0077
144.8786,105.0268
144.9097,105.0434
144.9425,105.0576
144.9538,105.0618
144.9538,104.9426
144.9230,104.9304
144.8939,104.9147
144.8669,104.8971
144.8496,104.8843
144.8236,104.8619
144.8021,104.8376
144.7850,104.8116
144.7723,104.7838
144.6729,104.7838
Z" /> 
</g><path style="fill:#000000; fill-opacity:1.0000; stroke:none;fill-rule:evenodd;"
d="M 140.1921,106.8126
140.2254,106.8483
140.2528,106.8865
140.2716,106.9373
140.2667,106.9908
140.2385,107.0549
140.2380,107.0558
140.2292,107.0735
140.2219,107.0934
140.2160,107.1181
140.2113,107.1505
140.2077,107.1933
140.2051,107.2491
140.2033,107.3208
140.2023,107.4110
140.2019,107.5225
140.2019,107.6581
140.2022,107.8203
140.2023,107.9565
140.2019,108.0885
140.2010,108.2088
140.1996,108.3143
140.1978,108.4021
140.1957,108.4693
140.1933,108.5129
140.1906,108.5299
140.1894,108.5309
140.1647,108.5379
140.1269,108.5375
140.0768,108.5315
140.0742,108.2097
140.0739,108.1737
140.0729,108.0533
140.0717,107.9165
140.0705,107.7729
140.0693,107.6323
140.0682,107.5044
140.0648,107.1208
140.0164,107.0724
139.9949,107.0498
139.9785,107.0236
139.9755,106.9931
139.9825,106.9461
139.9904,106.9109
140.0053,106.8676
140.0211,106.8424
140.0350,106.8409
140.0374,106.8458
140.0450,106.8727
140.0542,106.9138
140.0647,106.9549
140.0789,106.9795
140.1013,106.9914
140.1295,106.9943
140.1586,106.9776
140.1729,106.9392
140.1703,106.8823
140.1671,106.8631
140.1638,106.8195
140.1719,106.8028
Z" /> 
<path style="fill:#000000; fill-opacity:1.0000; stroke:none;fill-rule:evenodd;"
d="M 141.5432,107.0963
141.5373,107.1440
141.5363,107.1492
141.5312,107.2007
141.5398,107.2325
141.5638,107.2511
141.5785,107.2564
141.6128,107.2536
141.6382,107.2244
141.6559,107.1676
141.6580,107.1576
141.6719,107.1147
141.6875,107.1012
141.7046,107.1172
141.7231,107.1626
141.7324,107.2038
141.7284,107.2533
141.7030,107.3018
141.6536,107.3561
141.6490,107.3605
141.6332,107.3759
141.6190,107.3911
141.6054,107.4084
141.5915,107.4302
141.5761,107.4588
141.5583,107.4965
141.5370,107.5456
141.5114,107.6084
141.4802,107.6872
141.4427,107.7843
141.3977,107.9021
141.3442,108.0428
141.2812,108.2087
141.2475,108.2970
141.2069,108.4025
141.1701,108.4968
141.1384,108.5767
141.1132,108.6387
141.0957,108.6797
141.0873,108.6964
141.0676,108.7041
141.0333,108.7036
141.0038,108.6943
140.9807,108.6780
140.9803,108.6745
140.9864,108.6470
141.0028,108.5943
141.0288,108.5182
141.0639,108.4204
141.1074,108.3024
141.1588,108.1659
141.2175,108.0126
141.4669,107.3659
141.4440,107.2962
141.4418,107.2892
141.4333,107.2222
141.4514,107.1604
141.4974,107.0992
141.5190,107.0798
141.5373,107.0751
Z" /> 
<path style="fill:#000000; fill-opacity:1.0000; stroke:none;fill-rule:evenodd;"
d="M 137.3994,107.8388
137.4418,107.8534
137.4558,107.8608
137.4779,107.8793
137.4950,107.9090
137.5129,107.9585
137.5403,108.0425
137.8912,108.3797
137.9233,108.4106
138.0171,108.5003
138.1105,108.5892
138.1992,108.6733
138.2791,108.7486
138.3461,108.8113
138.3961,108.8575
138.4239,108.8829
138.4763,108.9313
138.5113,108.9652
138.5319,108.9886
138.5414,109.0054
138.5428,109.0192
138.5393,109.0340
138.5263,109.0597
138.4984,109.0878
138.4965,109.0890
138.4912,109.0930
138.4861,109.0959
138.4796,109.0963
138.4701,109.0928
138.4563,109.0842
138.4364,109.0690
138.4090,109.0458
138.3725,109.0134
138.3254,108.9703
138.2661,108.9152
138.1930,108.8467
138.1047,108.7634
137.9995,108.6641
137.8760,108.5472
137.7326,108.4115
137.4531,108.1471
137.3782,108.1422
137.3565,108.1406
137.3177,108.1335
137.2909,108.1172
137.2638,108.0855
137.2428,108.0555
137.2196,108.0126
137.2113,107.9811
137.2197,107.9666
137.2235,107.9666
137.2484,107.9763
137.2822,107.9972
137.3006,108.0094
137.3455,108.0280
137.3780,108.0208
137.4000,107.9877
137.4062,107.9674
137.4038,107.9488
137.3866,107.9287
137.3501,107.8990
137.3259,107.8791
137.3005,107.8532
137.2955,107.8391
137.3141,107.8319
137.3531,107.8313
Z" /> 
<path style="fill:#000000; fill-opacity:1.0000; stroke:none;fill-rule:evenodd;"
d="M 143.3905,108.2938
143.4396,108.3015
143.4691,108.3152
143.4728,108.3250
143.4636,108.3389
143.4379,108.3589
143.3925,108.3875
143.3240,108.4273
143.2332,108.4790
143.2373,108.5332
143.2392,108.5529
143.2542,108.6112
143.2826,108.6457
143.3262,108.6570
143.3866,108.6456
143.4655,108.6121
143.4839,108.6031
143.5325,108.5814
143.5684,108.5684
143.5849,108.5665
143.5867,108.5688
143.5873,108.5949
143.5689,108.6371
143.5333,108.6916
143.4826,108.7548
143.4007,108.8492
143.2645,108.8492
143.1901,108.8516
143.1277,108.8607
143.0882,108.8772
143.0786,108.8843
143.0444,108.9119
142.9930,108.9548
142.9276,109.0101
142.8515,109.0751
142.7680,109.1470
142.6803,109.2230
142.5917,109.3002
142.5054,109.3759
142.4248,109.4472
142.4002,109.4690
142.3438,109.5179
142.3035,109.5504
142.2751,109.5694
142.2546,109.5777
142.2379,109.5782
142.2181,109.5714
142.1809,109.5469
142.1450,109.5126
142.1183,109.4768
142.1091,109.4478
142.1139,109.4356
142.1297,109.4151
142.1590,109.3851
142.2040,109.3433
142.2671,109.2874
142.3507,109.2151
142.4224,109.1531
142.5199,109.0671
142.6200,108.9776
142.7141,108.8921
142.7941,108.8180
142.9983,108.6261
143.0402,108.5186
143.0472,108.5011
143.0870,108.4199
143.1312,108.3627
143.1845,108.3250
143.2513,108.3023
143.2703,108.2986
143.3309,108.2927
Z" /> 
<path style="fill:#000000; fill-opacity:1.0000; stroke:none;fill-rule:evenodd;"
d="M 144.4430,110.3443
144.4744,110.3466
144.5126,110.3515
144.5311,110.3570
144.5393,110.3755
144.5224,110.3934
144.4778,110.4118
144.4447,110.4247
144.4075,110.4515
144.3986,110.4821
144.4186,110.5156
144.4389,110.5313
144.4676,110.5362
144.5108,110.5259
144.5273,110.5208
144.5655,110.5114
144.5878,110.5093
144.5919,110.5125
144.5886,110.5309
144.5715,110.5586
144.5459,110.5879
144.5172,110.6110
144.4888,110.6260
144.4545,110.6336
144.4130,110.6288
144.3544,110.6114
144.3222,110.6019
144.2714,110.5912
144.2341,110.5886
144.2219,110.5900
144.1813,110.5953
144.1168,110.6039
144.0317,110.6155
143.9291,110.6296
143.8122,110.6458
143.6842,110.6636
143.5484,110.6825
143.3775,110.7061
143.2286,110.7257
143.1074,110.7405
143.0130,110.7506
142.9449,110.7560
142.9022,110.7570
142.8844,110.7534
142.8707,110.7287
142.8654,110.6932
142.8702,110.6608
142.8851,110.6439
142.8932,110.6424
142.9281,110.6370
142.9864,110.6285
143.0644,110.6172
143.1587,110.6038
143.2654,110.5888
143.3811,110.5727
143.4859,110.5581
143.6518,110.5351
143.7921,110.5157
143.9091,110.4992
144.0050,110.4854
144.0821,110.4738
144.1428,110.4639
144.1892,110.4553
144.2238,110.4476
144.2487,110.4403
144.2663,110.4330
144.2788,110.4252
144.2886,110.4166
144.2978,110.4067
144.3089,110.3950
144.3314,110.3733
144.3615,110.3518
144.3942,110.3438
Z" /> 
<path style="fill:#000000; fill-opacity:1.0000; stroke:none;fill-rule:evenodd;"
d="M 136.4289,109.2958
136.4931,109.3348
136.4957,109.3366
136.5129,109.3467
136.5353,109.3560
136.5652,109.3648
136.6052,109.3735
136.6576,109.3825
136.7248,109.3920
136.8093,109.4025
136.9134,109.4143
137.0397,109.4277
137.1905,109.4431
137.3682,109.4608
137.3752,109.4615
137.4991,109.4743
137.6140,109.4871
137.7165,109.4994
137.8031,109.5108
137.8706,109.5209
137.9155,109.5292
137.9343,109.5352
137.9450,109.5592
137.9459,109.5946
137.9373,109.6273
137.9211,109.6441
137.9209,109.6442
137.9018,109.6434
137.8569,109.6398
137.7895,109.6338
137.7031,109.6255
137.6009,109.6155
137.4863,109.6038
137.3626,109.5910
137.2901,109.5834
137.1260,109.5662
136.9879,109.5518
136.8733,109.5401
136.7798,109.5309
136.7051,109.5242
136.6466,109.5197
136.6020,109.5174
136.5688,109.5170
136.5447,109.5185
136.5272,109.5216
136.5139,109.5264
136.5023,109.5325
136.4901,109.5399
136.4534,109.5609
136.4149,109.5763
136.3802,109.5779
136.3375,109.5678
136.3153,109.5601
136.2775,109.5415
136.2540,109.5228
136.2516,109.5085
136.2545,109.5069
136.2788,109.5008
136.3177,109.4945
136.3699,109.4827
136.3994,109.4625
136.4083,109.4310
136.4083,109.4309
136.3971,109.3963
136.3629,109.3780
136.3044,109.3751
136.3032,109.3751
136.2507,109.3754
136.2262,109.3674
136.2292,109.3507
136.2594,109.3248
136.2608,109.3239
136.3201,109.2907
136.3737,109.2813
Z" /> 
<path style="fill:#000000; fill-opacity:1.0000; stroke:none;fill-rule:evenodd;"
d="M 142.8804,107.8616
142.8804,107.8657
142.8703,107.8908
142.8491,107.9250
142.8458,107.9297
142.8243,107.9771
142.8301,108.0144
142.8632,108.0411
142.8819,108.0468
142.9052,108.0415
142.9302,108.0171
142.9622,107.9698
142.9872,107.9360
143.0052,107.9276
143.0144,107.9473
143.0148,107.9951
143.0134,108.0130
143.0046,108.0653
142.9851,108.1009
142.9490,108.1277
142.8902,108.1532
142.8710,108.1605
142.8520,108.1685
142.8334,108.1781
142.8136,108.1910
142.7907,108.2089
142.7632,108.2335
142.7293,108.2664
142.6874,108.3094
142.6358,108.3642
142.5728,108.4324
142.4968,108.5157
142.4061,108.6158
142.2989,108.7344
142.1736,108.8732
142.1527,108.8964
142.0796,108.9768
142.0130,109.0492
141.9556,109.1110
141.9100,109.1591
141.8787,109.1910
141.8645,109.2036
141.8473,109.2043
141.8182,109.1916
141.7989,109.1763
141.7832,109.1556
141.7823,109.1318
141.7976,109.1003
141.8308,109.0569
141.8832,108.9969
141.8916,108.9875
141.9365,108.9378
141.9939,108.8745
142.0612,108.8005
142.1356,108.7188
142.2144,108.6324
142.2950,108.5441
142.3746,108.4571
142.4505,108.3741
142.5201,108.2982
142.5807,108.2323
142.6295,108.1794
142.6639,108.1424
142.6811,108.1242
142.6864,108.1179
142.7039,108.0765
142.7125,108.0172
142.7145,107.9870
142.7214,107.9504
142.7369,107.9257
142.7663,107.9015
142.7900,107.8854
142.8339,107.8617
142.8658,107.8531
Z" /> 
<path style="fill:#000000; fill-opacity:1.0000; stroke:none;fill-rule:evenodd;"
d="M 138.6431,107.0566
138.6871,107.0811
138.7286,107.1198
138.7492,107.1699
138.7535,107.2392
138.7544,107.2825
138.7609,107.3407
138.7718,107.3844
138.7725,107.3863
138.7852,107.4157
138.8084,107.4678
138.8404,107.5390
138.8795,107.6255
138.9241,107.7238
138.9725,107.8301
139.0230,107.9409
139.0741,108.0525
139.1239,108.1612
139.1710,108.2633
139.2135,108.3553
139.2498,108.4335
139.2761,108.4901
139.2991,108.5425
139.3116,108.5776
139.3149,108.6003
139.3103,108.6158
139.2990,108.6293
139.2725,108.6480
139.2382,108.6581
139.2310,108.6588
139.2248,108.6595
139.2189,108.6580
139.2119,108.6520
139.2029,108.6394
139.1907,108.6178
139.1740,108.5850
139.1519,108.5389
139.1232,108.4771
139.0867,108.3974
139.0414,108.2977
138.9860,108.1756
138.9194,108.0290
138.8762,107.9338
138.8167,107.8026
138.7674,107.6945
138.7271,107.6070
138.6946,107.5377
138.6685,107.4844
138.6476,107.4446
138.6306,107.4161
138.6164,107.3965
138.6035,107.3834
138.5909,107.3744
138.5772,107.3673
138.5611,107.3597
138.5435,107.3508
138.5115,107.3312
138.4936,107.3096
138.4804,107.2761
138.4771,107.2657
138.4619,107.2053
138.4598,107.1661
138.4699,107.1498
138.4912,107.1580
138.5231,107.1925
138.5424,107.2155
138.5794,107.2440
138.6124,107.2444
138.6434,107.2173
138.6436,107.2170
138.6530,107.1952
138.6469,107.1683
138.6235,107.1277
138.5978,107.0819
138.5921,107.0534
138.6072,107.0447
Z" /> 
<path style="fill:#000000; fill-opacity:1.0000; stroke:none;fill-rule:evenodd;"
d="M 143.8595,108.9271
143.8674,108.9332
143.8569,108.9489
143.8268,108.9799
143.8089,108.9991
143.7816,109.0419
143.7811,109.0773
143.8069,109.1081
143.8137,109.1128
143.8330,109.1180
143.8570,109.1079
143.8939,109.0801
143.9166,109.0623
143.9489,109.0401
143.9675,109.0314
143.9686,109.0315
143.9754,109.0447
143.9711,109.0747
143.9585,109.1127
143.9403,109.1504
143.9193,109.1792
143.9000,109.1949
143.8584,109.2116
143.7969,109.2197
143.7931,109.2199
143.7676,109.2222
143.7437,109.2263
143.7179,109.2342
143.6869,109.2473
143.6473,109.2675
143.5960,109.2963
143.5295,109.3355
143.4445,109.3867
143.3378,109.4517
143.2412,109.5107
143.1293,109.5792
143.0187,109.6471
142.9155,109.7108
142.8255,109.7666
142.7547,109.8107
142.7016,109.8436
142.6352,109.8837
142.5798,109.9160
142.5400,109.9378
142.5204,109.9464
142.5130,109.9467
142.4835,109.9332
142.4626,109.9035
142.4556,109.8683
142.4677,109.8386
142.4776,109.8314
142.5109,109.8096
142.5648,109.7753
142.6367,109.7302
142.7238,109.6759
142.8237,109.6141
142.9335,109.5464
143.0508,109.4744
143.1392,109.4202
143.2512,109.3514
143.3537,109.2880
143.4442,109.2317
143.5201,109.1842
143.5787,109.1471
143.6173,109.1220
143.6334,109.1107
143.6365,109.1070
143.6522,109.0767
143.6657,109.0351
143.6707,109.0156
143.6821,108.9876
143.7022,108.9694
143.7404,108.9507
143.7551,108.9447
143.8024,108.9303
143.8403,108.9255
Z" /> 
<path style="fill:#000000; fill-opacity:1.0000; stroke:none;fill-rule:evenodd;"
d="M 142.2861,107.3517
142.2837,107.3738
142.2582,107.4127
142.2099,107.4696
142.1970,107.4841
142.1523,107.5385
142.1282,107.5799
142.1236,107.6139
142.1374,107.6460
142.1685,107.6818
142.2014,107.7094
142.2379,107.7231
142.2767,107.7156
142.3226,107.6859
142.3802,107.6329
142.4217,107.5925
142.4528,107.5660
142.4722,107.5559
142.4840,107.5595
142.4899,107.5806
142.4851,107.6231
142.4703,107.6792
142.4471,107.7423
142.4174,107.8059
142.3747,107.8872
142.2531,107.9236
142.2373,107.9284
142.1804,107.9472
142.1428,107.9643
142.1167,107.9839
142.0944,108.0102
142.0850,108.0241
142.0596,108.0636
142.0225,108.1228
141.9758,108.1983
141.9216,108.2866
141.8620,108.3844
141.7991,108.4883
141.7557,108.5601
141.6855,108.6748
141.6284,108.7659
141.5837,108.8349
141.5503,108.8831
141.5274,108.9119
141.5142,108.9226
141.5102,108.9233
141.4759,108.9215
141.4335,108.9116
141.3937,108.8963
141.3592,108.8721
141.3436,108.8402
141.3456,108.8322
141.3603,108.8006
141.3876,108.7490
141.4255,108.6805
141.4725,108.5983
141.5267,108.5054
141.5864,108.4051
141.6665,108.2718
141.7344,108.1583
141.7898,108.0645
141.8340,107.9878
141.8685,107.9252
141.8945,107.8739
141.9134,107.8313
141.9265,107.7944
141.9352,107.7605
141.9407,107.7268
141.9445,107.6905
141.9478,107.6487
141.9486,107.6391
141.9618,107.5503
141.9867,107.4839
142.0278,107.4346
142.0895,107.3967
142.1761,107.3648
142.2197,107.3525
142.2649,107.3450
Z" /> 
<path style="fill:#000000; fill-opacity:1.0000; stroke:none;fill-rule:evenodd;"
d="M 144.1685,109.5597
144.2397,109.5801
144.3029,109.6079
144.3263,109.6235
144.3378,109.6435
144.3217,109.6605
144.2775,109.6753
144.2044,109.6881
144.1863,109.6908
144.1287,109.7022
144.0834,109.7153
144.0589,109.7277
144.0552,109.7322
144.0422,109.7655
144.0376,109.8090
144.0399,109.8375
144.0567,109.8827
144.0919,109.9103
144.1480,109.9216
144.2279,109.9184
144.2389,109.9172
144.2927,109.9137
144.3336,109.9142
144.3534,109.9187
144.3583,109.9300
144.3458,109.9565
144.3078,109.9910
144.2457,110.0319
144.2170,110.0487
144.1554,110.0816
144.1074,110.0992
144.0651,110.1027
144.0209,110.0933
143.9668,110.0720
143.9664,110.0718
143.9105,110.0503
143.8589,110.0354
143.8226,110.0303
143.8013,110.0331
143.7615,110.0429
143.7043,110.0603
143.6279,110.0857
143.5308,110.1198
143.4113,110.1631
143.2678,110.2162
143.0985,110.2796
142.9888,110.3202
142.8947,110.3529
142.8250,110.3745
142.7782,110.3853
142.7530,110.3857
142.7334,110.3781
142.7159,110.3640
142.6989,110.3374
142.6767,110.2908
142.6756,110.2883
142.6658,110.2629
142.6635,110.2415
142.6717,110.2223
142.6934,110.2032
142.7312,110.1822
142.7882,110.1574
142.8673,110.1267
142.9712,110.0883
143.0645,110.0539
143.1828,110.0100
143.3027,109.9651
143.4146,109.9229
143.5086,109.8871
143.7496,109.7945
143.8652,109.6806
143.8916,109.6548
143.9401,109.6097
143.9767,109.5803
144.0070,109.5626
144.0367,109.5521
144.0445,109.5505
144.0999,109.5491
Z" /> 
<path style="fill:#000000; fill-opacity:1.0000; stroke:none;fill-rule:evenodd;"
d="M 136.8615,108.4526
136.9302,108.4652
136.9944,108.4824
137.0835,108.5116
137.1261,108.6093
137.1519,108.6623
137.1807,108.7113
137.2053,108.7436
137.2286,108.7594
137.2781,108.7855
137.3514,108.8207
137.4467,108.8640
137.5621,108.9147
137.6958,108.9718
137.7725,109.0042
137.8946,109.0558
137.9934,109.0977
138.0714,109.1312
138.1310,109.1576
138.1747,109.1780
138.2050,109.1938
138.2243,109.2062
138.2352,109.2165
138.2401,109.2258
138.2415,109.2354
138.2418,109.2466
138.2362,109.2953
138.2142,109.3496
138.1812,109.3891
138.1772,109.3916
138.1648,109.3948
138.1457,109.3933
138.1171,109.3862
138.0760,109.3724
138.0195,109.3509
137.9447,109.3208
137.8488,109.2808
137.7287,109.2302
137.6068,109.1787
137.4762,109.1241
137.3672,109.0795
137.2769,109.0441
137.2024,109.0168
137.1407,108.9968
137.0888,108.9831
137.0437,108.9747
137.0025,108.9708
136.9621,108.9702
136.9197,108.9722
136.8988,108.9733
136.8348,108.9739
136.7800,108.9705
136.7445,108.9635
136.7349,108.9594
136.6830,108.9203
136.6319,108.8545
136.5836,108.7644
136.5731,108.7398
136.5601,108.6963
136.5652,108.6742
136.5891,108.6735
136.6324,108.6939
136.6960,108.7353
136.7167,108.7496
136.7652,108.7805
136.8037,108.8020
136.8254,108.8100
136.8308,108.8091
136.8590,108.7949
136.8924,108.7688
136.8985,108.7630
136.9310,108.7193
136.9380,108.6753
136.9188,108.6294
136.8725,108.5795
136.7985,108.5238
136.7777,108.5090
136.7473,108.4798
136.7449,108.4601
136.7705,108.4497
136.8240,108.4487
Z" /> 
<path style="fill:#000000; fill-opacity:1.0000; stroke:none;fill-rule:evenodd;"
d="M 144.5334,111.0261
144.5794,111.0475
144.6348,111.0846
144.6882,111.1293
144.7294,111.1737
144.7323,111.1776
144.7554,111.2159
144.7559,111.2391
144.7329,111.2475
144.6856,111.2415
144.6131,111.2215
144.5993,111.2172
144.5418,111.2009
144.5037,111.1944
144.4779,111.1973
144.4575,111.2089
144.4564,111.2099
144.4185,111.2550
144.4010,111.3078
144.4073,111.3586
144.4108,111.3664
144.4239,111.3858
144.4460,111.4019
144.4835,111.4185
144.5428,111.4395
144.5639,111.4469
144.6137,111.4662
144.6483,111.4827
144.6613,111.4932
144.6563,111.5063
144.6258,111.5261
144.5694,111.5419
144.4893,111.5531
144.4152,111.5581
144.3600,111.5549
144.3175,111.5405
144.2795,111.5121
144.2378,111.4668
144.2189,111.4453
144.1698,111.3993
144.1234,111.3727
144.1117,111.3691
144.0746,111.3622
144.0161,111.3544
143.9350,111.3458
143.8301,111.3361
143.7003,111.3253
143.5445,111.3133
143.3615,111.2999
143.1502,111.2851
143.1150,111.2824
143.0593,111.2770
143.0193,111.2716
143.0017,111.2669
142.9996,111.2637
142.9908,111.2385
142.9816,111.1992
142.9789,111.1824
142.9787,111.1272
142.9908,111.0829
143.0132,111.0582
143.0180,111.0573
143.0483,111.0570
143.1016,111.0588
143.1733,111.0626
143.2591,111.0680
143.3542,111.0750
143.5136,111.0872
143.6684,111.0987
143.7989,111.1075
143.9080,111.1137
143.9983,111.1173
144.0725,111.1183
144.1334,111.1166
144.1838,111.1121
144.2264,111.1050
144.2638,111.0951
144.2988,111.0825
144.3342,111.0671
144.4086,111.0380
144.4796,111.0226
Z" /> 
<path style="fill:#000000; fill-opacity:1.0000; stroke:none;fill-rule:evenodd;"
d="M 139.2383,106.8693
139.2492,106.9201
139.2556,106.9999
139.2560,107.0105
139.2608,107.0757
139.2704,107.1183
139.2886,107.1441
139.3196,107.1592
139.3672,107.1695
139.3856,107.1718
139.4211,107.1653
139.4560,107.1380
139.4639,107.1298
139.4806,107.1070
139.4892,107.0794
139.4913,107.0388
139.4885,106.9772
139.4867,106.9223
139.4913,106.8721
139.5038,106.8502
139.5245,106.8564
139.5534,106.8907
139.5598,106.9004
139.5873,106.9497
139.6146,107.0079
139.6380,107.0663
139.6540,107.1162
139.6591,107.1491
139.6589,107.1506
139.6499,107.1810
139.6304,107.2268
139.6044,107.2788
139.5763,107.3360
139.5595,107.3892
139.5572,107.4363
139.5604,107.4570
139.5706,107.5064
139.5867,107.5774
139.6077,107.6659
139.6326,107.7682
139.6604,107.8803
139.6903,107.9981
139.7212,108.1179
139.7521,108.2357
139.7821,108.3475
139.7904,108.3792
139.8029,108.4358
139.8098,108.4789
139.8095,108.5012
139.7956,108.5190
139.7585,108.5446
139.7116,108.5649
139.6665,108.5739
139.6327,108.5719
139.6116,108.5647
139.6079,108.5562
139.5972,108.5223
139.5814,108.4667
139.5615,108.3933
139.5386,108.3063
139.5139,108.2097
139.4718,108.0438
139.4303,107.8826
139.3950,107.7482
139.3656,107.6394
139.3417,107.5553
139.3231,107.4947
139.3096,107.4567
139.3039,107.4450
139.2786,107.4040
139.2418,107.3528
139.1994,107.2997
139.1832,107.2803
139.1368,107.2193
139.1098,107.1690
139.1002,107.1221
139.1063,107.0712
139.1261,107.0091
139.1468,106.9559
139.1772,106.8908
139.2025,106.8547
139.2228,106.8475
Z" /> 
<path style="fill:#000000; fill-opacity:1.0000; stroke:none;fill-rule:evenodd;"
d="M 138.0805,107.3135
138.0867,107.3150
138.1173,107.3313
138.1605,107.3664
138.2190,107.4224
138.2407,107.4441
138.2803,107.4848
138.3041,107.5133
138.3159,107.5355
138.3192,107.5576
138.3178,107.5854
138.3137,107.6383
138.3088,107.7107
138.3072,107.7628
138.3094,107.8001
138.3160,107.8285
138.3274,107.8535
138.3442,107.8811
138.3512,107.8916
138.3773,107.9299
138.4169,107.9870
138.4676,108.0595
138.5269,108.1438
138.5923,108.2364
138.6614,108.3339
138.7000,108.3884
138.7640,108.4791
138.8211,108.5607
138.8694,108.6303
138.9067,108.6849
138.9309,108.7215
138.9401,108.7371
138.9357,108.7632
138.9123,108.7985
138.8760,108.8326
138.8339,108.8574
138.8226,108.8617
138.7885,108.8709
138.7698,108.8696
138.7645,108.8628
138.7436,108.8343
138.7092,108.7867
138.6632,108.7227
138.6078,108.6453
138.5450,108.5573
138.4769,108.4617
138.4614,108.4398
138.3721,108.3146
138.2975,108.2107
138.2354,108.1258
138.1839,108.0575
138.1408,108.0035
138.1041,107.9614
138.0718,107.9287
138.0418,107.9033
138.0121,107.8826
137.9807,107.8642
137.9454,107.8460
137.8882,107.8151
137.8309,107.7747
137.7943,107.7313
137.7738,107.6791
137.7647,107.6121
137.7634,107.5747
137.7665,107.5094
137.7758,107.4552
137.7899,107.4183
137.8077,107.4046
137.8226,107.4152
137.8463,107.4529
137.8763,107.5164
137.9016,107.5731
137.9266,107.6209
137.9484,107.6490
137.9705,107.6618
137.9966,107.6638
138.0229,107.6612
138.0790,107.6467
138.1130,107.6190
138.1258,107.5757
138.1185,107.5141
138.0922,107.4317
138.0734,107.3810
138.0606,107.3417
138.0578,107.3207
138.0647,107.3129
Z" /> 
<path style="fill:#000000; fill-opacity:1.0000; stroke:none;fill-rule:evenodd;"
d="M 140.8065,106.8433
140.8003,106.8866
140.7773,106.9540
140.7666,106.9813
140.7447,107.0433
140.7355,107.0867
140.7395,107.1173
140.7568,107.1412
140.7879,107.1644
140.7955,107.1691
140.8428,107.1892
140.8866,107.1869
140.8890,107.1862
140.9133,107.1770
140.9313,107.1617
140.9488,107.1332
140.9718,107.0845
140.9974,107.0291
141.0215,106.9818
141.0392,106.9556
141.0527,106.9472
141.0646,106.9532
141.0690,106.9591
141.0806,106.9938
141.0892,107.0462
141.0938,107.1078
141.0938,107.1696
141.0883,107.2230
141.0842,107.2448
141.0755,107.2766
141.0610,107.3007
141.0347,107.3253
140.9906,107.3588
140.9797,107.3668
140.9521,107.3875
140.9288,107.4068
140.9091,107.4277
140.8921,107.4528
140.8770,107.4850
140.8629,107.5269
140.8490,107.5813
140.8345,107.6510
140.8185,107.7388
140.8001,107.8474
140.7786,107.9795
140.7531,108.1380
140.7495,108.1600
140.7318,108.2663
140.7150,108.3626
140.6997,108.4450
140.6868,108.5098
140.6769,108.5530
140.6708,108.5709
140.6633,108.5755
140.6310,108.5847
140.5866,108.5904
140.5811,108.5907
140.5251,108.5864
140.4882,108.5658
140.4818,108.5579
140.4755,108.5429
140.4727,108.5202
140.4737,108.4862
140.4788,108.4373
140.4882,108.3701
140.5022,108.2809
140.5212,108.1662
140.5326,108.0986
140.5597,107.9342
140.5819,107.7951
140.5994,107.6785
140.6124,107.5818
140.6211,107.5021
140.6258,107.4369
140.6265,107.3833
140.6237,107.3386
140.6173,107.3001
140.6078,107.2651
140.5953,107.2309
140.5886,107.2133
140.5671,107.1281
140.5708,107.0539
140.6008,106.9855
140.6582,106.9178
140.6643,106.9119
140.7246,106.8584
140.7685,106.8291
140.7958,106.8241
Z" /> 
<path style="fill:#000000; fill-opacity:1.0000; stroke:none;fill-rule:evenodd;"
d="M 137.6519,109.8466
137.6642,109.8509
137.6726,109.8572
137.6780,109.8633
137.6990,109.9011
137.7134,109.9483
137.7186,109.9933
137.7118,110.0245
137.7116,110.0247
137.6932,110.0323
137.6494,110.0448
137.5834,110.0614
137.4985,110.0813
137.3979,110.1038
137.2851,110.1282
137.1632,110.1536
137.0273,110.1814
136.8556,110.2168
136.7088,110.2475
136.5847,110.2743
136.4809,110.2977
136.3951,110.3186
136.3249,110.3376
136.2682,110.3553
136.2224,110.3725
136.1854,110.3898
136.1548,110.4080
136.1282,110.4276
136.1034,110.4495
136.0781,110.4742
136.0334,110.5104
135.9655,110.5427
135.8983,110.5520
135.8649,110.5447
135.8154,110.5272
135.7616,110.5034
135.7609,110.5030
135.7113,110.4774
135.6712,110.4545
135.6492,110.4392
135.6431,110.4323
135.6411,110.4120
135.6663,110.3970
135.7172,110.3877
135.7923,110.3848
135.8376,110.3842
135.8959,110.3783
135.9335,110.3639
135.9557,110.3384
135.9678,110.2991
135.9721,110.2530
135.9611,110.2093
135.9292,110.1800
135.8741,110.1630
135.7931,110.1564
135.7790,110.1559
135.7241,110.1524
135.6825,110.1468
135.6623,110.1401
135.6600,110.1266
135.6801,110.1043
135.7220,110.0780
135.7822,110.0500
135.8571,110.0223
135.9085,110.0058
135.9498,109.9955
135.9797,109.9948
136.0069,110.0036
136.0403,110.0221
136.0523,110.0292
136.0868,110.0501
136.1166,110.0673
136.1444,110.0807
136.1730,110.0902
136.2053,110.0956
136.2442,110.0967
136.2923,110.0934
136.3525,110.0855
136.4276,110.0729
136.5204,110.0554
136.6338,110.0328
136.7705,110.0050
136.9334,109.9719
136.9606,109.9664
137.1186,109.9344
137.2505,109.9080
137.3589,109.8868
137.4461,109.8704
137.5147,109.8584
137.5671,109.8504
137.6058,109.8460
137.6333,109.8449
Z" /> 
<path style="fill:#000000; fill-opacity:1.0000; stroke:none;fill-rule:evenodd;"
d="M 140.4405,108.7522
140.6955,108.8017
140.9466,108.8786
141.1919,108.9830
141.4297,109.1150
141.5813,109.2192
141.7715,109.3767
141.9540,109.5577
142.1262,109.7591
142.2852,109.9776
142.4285,110.2101
142.5533,110.4532
142.5656,110.4805
142.6019,110.5679
142.6414,110.6709
142.6815,110.7822
142.7199,110.8947
142.7540,111.0015
142.7815,111.0953
142.7999,111.1691
142.8094,111.2219
142.8101,111.2674
142.7962,111.3002
142.7642,111.3246
142.7103,111.3449
142.6310,111.3653
142.4964,111.3969
142.5130,111.4685
142.5165,111.4852
142.5223,111.5272
142.5232,111.5476
142.5246,111.5777
142.5234,111.6407
142.5186,111.7205
142.5099,111.8211
142.4974,111.9468
142.4756,112.1553
141.9046,113.0609
141.8204,113.1941
141.7311,113.3351
141.6474,113.4668
141.5705,113.5872
141.5018,113.6943
141.4425,113.7863
141.3938,113.8610
141.3571,113.9167
141.3335,113.9513
141.3243,113.9628
141.3229,113.9610
141.3155,113.9379
141.3043,113.8928
141.2907,113.8312
141.2759,113.7582
141.2368,113.5572
141.4279,113.1435
141.4332,113.1321
141.4864,113.0167
141.5402,112.8997
141.5920,112.7867
141.6393,112.6834
141.6794,112.5955
141.7097,112.5287
141.8004,112.3275
141.7475,112.2772
141.7269,112.2596
141.6539,112.2148
141.5608,112.1750
141.4541,112.1415
141.3405,112.1162
141.2268,112.1006
141.1196,112.0962
141.0256,112.1047
140.9503,112.1183
140.9560,112.1745
140.9596,112.2026
140.9830,112.3046
141.0226,112.4216
141.0761,112.5482
141.1413,112.6788
141.2157,112.8078
141.2481,112.8640
141.2681,112.9116
141.2706,112.9436
141.2643,112.9648
141.2402,113.0233
141.2017,113.1025
141.1502,113.2003
141.0871,113.3143
141.0139,113.4422
140.9321,113.5817
140.8430,113.7304
140.7481,113.8861
140.6488,114.0463
140.5466,114.2089
140.4430,114.3715
140.3393,114.5317
140.2370,114.6873
140.1376,114.8359
140.0424,114.9752
139.9530,115.1029
139.8707,115.2167
139.7971,115.3142
139.7693,115.3491
139.7526,115.3646
139.7419,115.3623
139.7313,115.3449
139.7233,115.3280
139.7040,115.2831
139.6766,115.2168
139.6426,115.1329
139.6033,115.0348
139.5602,114.9263
139.5148,114.8110
139.4685,114.6925
139.4227,114.5745
139.3789,114.4605
139.3385,114.3542
139.3371,114.3503
139.2765,114.1873
139.2166,114.0213
139.1583,113.8550
139.1023,113.6914
139.0497,113.5331
139.0012,113.3830
138.9578,113.2437
138.9203,113.1182
138.8897,113.0091
138.8668,112.9193
138.8524,112.8515
138.8476,112.8086
138.8515,112.7864
138.8636,112.7402
138.8822,112.6761
138.9059,112.5991
138.9332,112.5146
138.9476,112.4705
138.9903,112.3338
139.0287,112.2026
139.0614,112.0814
139.0875,111.9745
139.1057,111.8865
139.1148,111.8217
139.1141,111.7702
139.1009,111.7186
139.0719,111.6560
139.0449,111.6074
138.9855,111.5158
138.9213,111.4332
138.8563,111.3641
138.7945,111.3131
138.7401,111.2846
138.7372,111.2839
138.7064,111.2793
138.6540,111.2742
138.5864,111.2690
138.5103,111.2643
138.2972,111.2483
138.0619,111.2172
137.8504,111.1731
137.6610,111.1154
137.4920,111.0437
137.3418,110.9577
137.3231,110.9450
137.2565,110.8942
137.2166,110.8511
137.2024,110.8142
137.2128,110.7823
137.2194,110.7766
137.2522,110.7614
137.3041,110.7448
137.3680,110.7294
137.4578,110.7091
137.5631,110.6793
137.6483,110.6461
137.7189,110.6072
137.7803,110.5603
137.8086,110.5345
137.8361,110.5057
137.8611,110.4729
137.8874,110.4307
137.9187,110.3732
137.9590,110.2948
137.9926,110.2295
138.0664,110.0920
138.1346,109.9755
138.2004,109.8750
138.2667,109.7858
138.2982,109.7484
138.6870,109.7484
138.6878,109.7642
138.7100,109.7897
138.7133,109.7929
138.7336,109.8105
138.7520,109.8145
138.7771,109.8039
138.8179,109.7776
138.8612,109.7493
138.9556,109.6906
139.0574,109.6307
139.1586,109.5738
139.2513,109.5247
139.3275,109.4878
139.4421,109.4397
139.6695,109.3650
139.8941,109.3191
140.1168,109.3023
140.3383,109.3144
140.5594,109.3557
140.7807,109.4262
141.0031,109.5258
141.2273,109.6548
141.2843,109.6941
141.3822,109.7720
141.4857,109.8647
141.5887,109.9661
141.6850,110.0701
141.7685,110.1705
141.8332,110.2614
141.8662,110.3150
141.9738,110.5151
142.0731,110.7388
142.1623,110.9824
142.2398,111.2418
142.2489,111.2755
142.2656,111.3346
142.2784,111.3719
142.2895,111.3920
142.3012,111.3997
142.3157,111.3997
142.3370,111.3950
142.3599,111.3843
142.3615,111.3703
142.3555,111.3314
142.3422,111.2725
142.3226,111.1979
142.2980,111.1117
142.2696,111.0183
142.2385,110.9219
142.2059,110.8268
142.1813,110.7593
142.0791,110.5153
141.9637,110.2958
141.8332,110.0983
141.6857,109.9204
141.5192,109.7596
141.3317,109.6137
141.1214,109.4801
140.9824,109.4064
140.7604,109.3144
140.5343,109.2514
140.3047,109.2174
140.0721,109.2124
139.8370,109.2363
139.6000,109.2890
139.3616,109.3706
139.1223,109.4811
138.8826,109.6203
138.8230,109.6585
138.7682,109.6936
138.7261,109.7206
138.7027,109.7355
138.6870,109.7484
138.2982,109.7484
138.3366,109.7029
138.4524,109.5737
138.4184,109.5397
138.4063,109.5274
138.3799,109.4945
138.3744,109.4670
138.3903,109.4368
138.4283,109.3957
138.4323,109.3918
138.4783,109.3492
138.5353,109.3000
138.5919,109.2541
138.7114,109.1664
138.9391,109.0264
139.1764,108.9132
139.4214,108.8269
139.6723,108.7675
139.9270,108.7352
140.1838,108.7301
Z" /> 
</g>
<g style="fill:none; 
stroke:#000000; stroke-width:0.0500; stroke-opacity:1; 
stroke-linecap:round; stroke-linejoin:round;">
<path d="M145.2785 99.9331
L135.1185 99.9331
" />
<path d="M130.6735 116.4431 A1.2700 1.2700 0.0 0 0 131.9435 117.7131" />
<path d="M132.5785 109.5851 A1.2700 1.2700 0.0 0 0 133.8485 108.3151" />
<path d="M146.5485 101.2031
L146.5485 108.3151
" />
<path d="M146.5485 101.2031 A1.2700 1.2700 0.0 0 0 145.2785 99.9331" />
<path d="M149.7235 116.4431
L149.7235 111.4901
" />
<path d="M130.6735 111.4901
L130.6735 116.4431
" />
<path d="M133.8485 101.2031
L133.8485 108.3151
" />
<path d="M146.5485 108.3151 A1.2700 1.2700 0.0 0 0 147.8185 109.5851" />
<path d="M132.5785 109.5851 A1.9050 1.9050 0.0 0 0 130.6735 111.4901" />
<path d="M149.7235 111.4901 A1.9050 1.9050 0.0 0 0 147.8185 109.5851" />
<path d="M135.1185 99.9331 A1.2700 1.2700 0.0 0 0 133.8485 101.2031" />
<path d="M131.9435 117.7131
L148.4535 117.7131
" />
<path d="M148.4535 117.7131 A1.2700 1.2700 0.0 0 0 149.7235 116.4431" />
</g> 
</svg>
