  0
SECTION
  2
HEADER
  9
$ANGBASE
  50
0.0
  9
$ANGDIR
  70
1
  9
$MEASUREMENT
  70
0
  0
ENDSEC
  0
SECTION
  2
TABLES
  0
TABLE
  2
LTYPE
  70
4
  0
LTYPE
  5
40F
  2
CONTINUOUS
  70
0
  3
Solid line
  72
65
  73
0
  40
0.0
  0
LTYPE
  5
410
  2
DASHDOT
 70
0
  3
Dash Dot ____ _ ____ _
 72
65
 73
4
 40
2.0
 49
1.25
 49
-0.25
 49
0.25
 49
-0.25
  0
LTYPE
  5
411
  2
DASHED
 70
0
  3
Dashed __ __ __ __ __
 72
65
 73
2
 40
0.75
 49
0.5
 49
-0.25
  0
LTYPE
  5
43B
  2
DOTTED
 70
0
  3
Dotted .  .  .  .
 72
65
 73
2
 40
0.2
 49
0.0
 49
-0.2
  0
ENDTAB
  0
TABLE
  2
STYLE
  70
4
  0
STYLE
  2
KICAD
  70
0
  40
0
  41
1
  42
1
  50
0
  71
0
  3
isocp.shx
  0
STYLE
  2
KICADB
  70
0
  40
0
  41
1
  42
1
  50
0
  71
0
  3
isocp.shx
  0
STYLE
  2
KICADI
  70
0
  40
0
  41
1
  42
1
  50
15
  71
0
  3
isocp.shx
  0
STYLE
  2
KICADBI
  70
0
  40
0
  41
1
  42
1
  50
15
  71
0
  3
isocp.shx
  0
ENDTAB
  0
TABLE
  2
LAYER
  70
1
  0
LAYER
  2
BLACK
  70
0
  62
7
  6
CONTINUOUS
  0
ENDTAB
  0
ENDSEC
  0
SECTION
  2
ENTITIES
0
ARC
8
BLACK
10
6.2949999999999999
20
-4.8499999999999996
40
0.025
50
-90.00000000
51
-0.00000000
0
ARC
8
BLACK
10
5.75
20
-4.4500000000000002
40
0.025
50
90.00000000
51
180.00000000
0
LINE
8
BLACK
6
CONTINUOUS
10
5.7249999999999996
20
-4.4500000000000002
11
5.7249999999999996
21
-4.8499999999999996
0
LINE
8
BLACK
6
CONTINUOUS
10
6.3200000000000003
20
-4.4500000000000002
11
6.3200000000000003
21
-4.8499999999999996
0
LINE
8
BLACK
6
CONTINUOUS
10
5.75
20
-4.875
11
6.2949999999999999
21
-4.875
0
ARC
8
BLACK
10
5.75
20
-4.8499999999999996
40
0.025
50
-180.00000000
51
-90.00000000
0
LINE
8
BLACK
6
CONTINUOUS
10
5.75
20
-4.4249999999999998
11
6.2949999999999999
21
-4.4249999999999998
0
ARC
8
BLACK
10
6.2949999999999999
20
-4.4500000000000002
40
0.025
50
-0.00000000
51
90.00000000
0
LINE
8
BLACK
6
CONTINUOUS
10
5.7809999999999997
20
-4.5809999999999995
11
5.819
21
-4.6189999999999998
0
LINE
8
BLACK
6
CONTINUOUS
10
5.819
20
-4.5809999999999995
11
5.7809999999999997
21
-4.6189999999999998
0
LINE
8
BLACK
6
CONTINUOUS
10
5.7809999999999997
20
-4.681
11
5.819
21
-4.7190000000000003
0
LINE
8
BLACK
6
CONTINUOUS
10
5.819
20
-4.681
11
5.7809999999999997
21
-4.7190000000000003
0
CIRCLE
8
BLACK
10
6.1401575196850393
20
-4.5448818897637793
40
0.067
0
CIRCLE
8
BLACK
10
6.1401575196850393
20
-4.7551181102362206
40
0.067
0
LINE
8
BLACK
6
CONTINUOUS
10
5.8256995275590553
20
-4.9995999212598425
11
5.8256995275590553
21
-4.9208597637795277
0
LINE
8
BLACK
6
CONTINUOUS
10
5.8256995275590553
20
-4.9208597637795277
11
5.8444471653543308
21
-4.9208597637795277
0
LINE
8
BLACK
6
CONTINUOUS
10
5.8444471653543308
20
-4.9208597637795277
11
5.8556957874015749
21
-4.9246092913385828
0
LINE
8
BLACK
6
CONTINUOUS
10
5.8556957874015749
20
-4.9246092913385828
11
5.8631948425196851
21
-4.932108346456693
0
LINE
8
BLACK
6
CONTINUOUS
10
5.8631948425196851
20
-4.932108346456693
11
5.8669443700787403
21
-4.9396074015748033
0
LINE
8
BLACK
6
CONTINUOUS
10
5.8669443700787403
20
-4.9396074015748033
11
5.8706938976377954
21
-4.9546055118110237
0
LINE
8
BLACK
6
CONTINUOUS
10
5.8706938976377954
20
-4.9546055118110237
11
5.8706938976377954
21
-4.9658541338582678
0
LINE
8
BLACK
6
CONTINUOUS
10
5.8706938976377954
20
-4.9658541338582678
11
5.8669443700787403
21
-4.9808522440944882
0
LINE
8
BLACK
6
CONTINUOUS
10
5.8669443700787403
20
-4.9808522440944882
11
5.8631948425196851
21
-4.9883512992125985
0
LINE
8
BLACK
6
CONTINUOUS
10
5.8631948425196851
20
-4.9883512992125985
11
5.8556957874015749
21
-4.9958503937007874
0
LINE
8
BLACK
6
CONTINUOUS
10
5.8556957874015749
20
-4.9958503937007874
11
5.8444471653543308
21
-4.9995999212598425
0
LINE
8
BLACK
6
CONTINUOUS
10
5.8444471653543308
20
-4.9995999212598425
11
5.8256995275590553
21
-4.9995999212598425
0
LINE
8
BLACK
6
CONTINUOUS
10
5.9044396850393701
20
-4.9995999212598425
11
5.9044396850393701
21
-4.9471064566929135
0
LINE
8
BLACK
6
CONTINUOUS
10
5.9044396850393701
20
-4.9621046062992127
11
5.9081892125984252
21
-4.9546055118110237
0
LINE
8
BLACK
6
CONTINUOUS
10
5.9081892125984252
20
-4.9546055118110237
11
5.9119387401574803
21
-4.9508559842519686
0
LINE
8
BLACK
6
CONTINUOUS
10
5.9119387401574803
20
-4.9508559842519686
11
5.9194377952755906
21
-4.9471064566929135
0
LINE
8
BLACK
6
CONTINUOUS
10
5.9194377952755906
20
-4.9471064566929135
11
5.9269368897637795
21
-4.9471064566929135
0
LINE
8
BLACK
6
CONTINUOUS
10
5.9531835826771653
20
-4.9995999212598425
11
5.9531835826771653
21
-4.9471064566929135
0
LINE
8
BLACK
6
CONTINUOUS
10
5.9531835826771653
20
-4.9208597637795277
11
5.9494340551181102
21
-4.9246092913385828
0
LINE
8
BLACK
6
CONTINUOUS
10
5.9494340551181102
20
-4.9246092913385828
11
5.9531835826771653
21
-4.9283588188976379
0
LINE
8
BLACK
6
CONTINUOUS
10
5.9531835826771653
20
-4.9283588188976379
11
5.9569331102362204
21
-4.9246092913385828
0
LINE
8
BLACK
6
CONTINUOUS
10
5.9569331102362204
20
-4.9246092913385828
11
5.9531835826771653
21
-4.9208597637795277
0
LINE
8
BLACK
6
CONTINUOUS
10
5.9531835826771653
20
-4.9208597637795277
11
5.9531835826771653
21
-4.9283588188976379
0
LINE
8
BLACK
6
CONTINUOUS
10
6.0019274803149605
20
-4.9995999212598425
11
5.9944284251968503
21
-4.9958503937007874
0
LINE
8
BLACK
6
CONTINUOUS
10
5.9944284251968503
20
-4.9958503937007874
11
5.9906788976377952
21
-4.9883512992125985
0
LINE
8
BLACK
6
CONTINUOUS
10
5.9906788976377952
20
-4.9883512992125985
11
5.9906788976377952
21
-4.9208597637795277
0
LINE
8
BLACK
6
CONTINUOUS
10
6.0431723228346454
20
-4.9995999212598425
11
6.0356732677165352
21
-4.9958503937007874
0
LINE
8
BLACK
6
CONTINUOUS
10
6.0356732677165352
20
-4.9958503937007874
11
6.0319237401574801
21
-4.9883512992125985
0
LINE
8
BLACK
6
CONTINUOUS
10
6.0319237401574801
20
-4.9883512992125985
11
6.0319237401574801
21
-4.9208597637795277
0
LINE
8
BLACK
6
CONTINUOUS
10
6.1331611023622044
20
-4.9995999212598425
11
6.1331611023622044
21
-4.9208597637795277
0
LINE
8
BLACK
6
CONTINUOUS
10
6.1331611023622044
20
-4.9208597637795277
11
6.1594078346456689
21
-4.9771027165354331
0
LINE
8
BLACK
6
CONTINUOUS
10
6.1594078346456689
20
-4.9771027165354331
11
6.1856545275590546
21
-4.9208597637795277
0
LINE
8
BLACK
6
CONTINUOUS
10
6.1856545275590546
20
-4.9208597637795277
11
6.1856545275590546
21
-4.9995999212598425
0
LINE
8
BLACK
6
CONTINUOUS
10
6.2568956299212601
20
-4.9995999212598425
11
6.2568956299212601
21
-4.9583550787401576
0
LINE
8
BLACK
6
CONTINUOUS
10
6.2568956299212601
20
-4.9583550787401576
11
6.2531461023622041
21
-4.9508559842519686
0
LINE
8
BLACK
6
CONTINUOUS
10
6.2531461023622041
20
-4.9508559842519686
11
6.2456470472440939
21
-4.9471064566929135
0
LINE
8
BLACK
6
CONTINUOUS
10
6.2456470472440939
20
-4.9471064566929135
11
6.2306488976377947
21
-4.9471064566929135
0
LINE
8
BLACK
6
CONTINUOUS
10
6.2306488976377947
20
-4.9471064566929135
11
6.2231498425196845
21
-4.9508559842519686
0
LINE
8
BLACK
6
CONTINUOUS
10
6.2568956299212601
20
-4.9958503937007874
11
6.249396574803149
21
-4.9995999212598425
0
LINE
8
BLACK
6
CONTINUOUS
10
6.249396574803149
20
-4.9995999212598425
11
6.2306488976377947
21
-4.9995999212598425
0
LINE
8
BLACK
6
CONTINUOUS
10
6.2306488976377947
20
-4.9995999212598425
11
6.2231498425196845
21
-4.9958503937007874
0
LINE
8
BLACK
6
CONTINUOUS
10
6.2231498425196845
20
-4.9958503937007874
11
6.2194003149606294
21
-4.9883512992125985
0
LINE
8
BLACK
6
CONTINUOUS
10
6.2194003149606294
20
-4.9883512992125985
11
6.2194003149606294
21
-4.9808522440944882
0
LINE
8
BLACK
6
CONTINUOUS
10
6.2194003149606294
20
-4.9808522440944882
11
6.2231498425196845
21
-4.973353188976378
0
LINE
8
BLACK
6
CONTINUOUS
10
6.2231498425196845
20
-4.973353188976378
11
6.2306488976377947
21
-4.9696036614173229
0
LINE
8
BLACK
6
CONTINUOUS
10
6.2306488976377947
20
-4.9696036614173229
11
6.249396574803149
21
-4.9696036614173229
0
LINE
8
BLACK
6
CONTINUOUS
10
6.249396574803149
20
-4.9696036614173229
11
6.2568956299212601
21
-4.9658541338582678
0
LINE
8
BLACK
6
CONTINUOUS
10
6.29439094488189
20
-4.9471064566929135
11
6.29439094488189
21
-5.0258466141732283
0
LINE
8
BLACK
6
CONTINUOUS
10
6.29439094488189
20
-4.9508559842519686
11
6.3018900000000002
21
-4.9471064566929135
0
LINE
8
BLACK
6
CONTINUOUS
10
6.3018900000000002
20
-4.9471064566929135
11
6.3168881496062994
21
-4.9471064566929135
0
LINE
8
BLACK
6
CONTINUOUS
10
6.3168881496062994
20
-4.9471064566929135
11
6.3243872047244096
21
-4.9508559842519686
0
LINE
8
BLACK
6
CONTINUOUS
10
6.3243872047244096
20
-4.9508559842519686
11
6.3281367322834647
21
-4.9546055118110237
0
LINE
8
BLACK
6
CONTINUOUS
10
6.3281367322834647
20
-4.9546055118110237
11
6.3318862598425198
21
-4.9621046062992127
0
LINE
8
BLACK
6
CONTINUOUS
10
6.3318862598425198
20
-4.9621046062992127
11
6.3318862598425198
21
-4.9846017716535433
0
LINE
8
BLACK
6
CONTINUOUS
10
6.3318862598425198
20
-4.9846017716535433
11
6.3281367322834647
21
-4.9921008267716536
0
LINE
8
BLACK
6
CONTINUOUS
10
6.3281367322834647
20
-4.9921008267716536
11
6.3243872047244096
21
-4.9958503937007874
0
LINE
8
BLACK
6
CONTINUOUS
10
6.3243872047244096
20
-4.9958503937007874
11
6.3168881496062994
21
-4.9995999212598425
0
LINE
8
BLACK
6
CONTINUOUS
10
6.3168881496062994
20
-4.9995999212598425
11
6.3018900000000002
21
-4.9995999212598425
0
LINE
8
BLACK
6
CONTINUOUS
10
6.3018900000000002
20
-4.9995999212598425
11
6.29439094488189
21
-4.9958503937007874
0
LINE
8
BLACK
6
CONTINUOUS
10
6.3656320472440946
20
-4.9921008267716536
11
6.3693815748031497
21
-4.9958503937007874
0
LINE
8
BLACK
6
CONTINUOUS
10
6.3693815748031497
20
-4.9958503937007874
11
6.3656320472440946
21
-4.9995999212598425
0
LINE
8
BLACK
6
CONTINUOUS
10
6.3656320472440946
20
-4.9995999212598425
11
6.3618825196850395
21
-4.9958503937007874
0
LINE
8
BLACK
6
CONTINUOUS
10
6.3618825196850395
20
-4.9958503937007874
11
6.3656320472440946
21
-4.9921008267716536
0
LINE
8
BLACK
6
CONTINUOUS
10
6.3656320472440946
20
-4.9921008267716536
11
6.3656320472440946
21
-4.9995999212598425
0
LINE
8
BLACK
6
CONTINUOUS
10
6.3656320472440946
20
-4.9508559842519686
11
6.3693815748031497
21
-4.9546055118110237
0
LINE
8
BLACK
6
CONTINUOUS
10
6.3693815748031497
20
-4.9546055118110237
11
6.3656320472440946
21
-4.9583550787401576
0
LINE
8
BLACK
6
CONTINUOUS
10
6.3656320472440946
20
-4.9583550787401576
11
6.3618825196850395
21
-4.9546055118110237
0
LINE
8
BLACK
6
CONTINUOUS
10
6.3618825196850395
20
-4.9546055118110237
11
6.3656320472440946
21
-4.9508559842519686
0
LINE
8
BLACK
6
CONTINUOUS
10
6.3656320472440946
20
-4.9508559842519686
11
6.3656320472440946
21
-4.9583550787401576
0
LINE
8
BLACK
6
CONTINUOUS
10
5.685031496062992
20
-5.1099370078740156
11
5.7230314960629922
21
-5.1479370078740159
0
LINE
8
BLACK
6
CONTINUOUS
10
5.7230314960629922
20
-5.1099370078740156
11
5.685031496062992
21
-5.1479370078740159
0
LINE
8
BLACK
6
CONTINUOUS
10
5.8406976377952757
20
-5.0862140944881888
11
5.8481967322834647
21
-5.0862140944881888
0
LINE
8
BLACK
6
CONTINUOUS
10
5.8481967322834647
20
-5.0862140944881888
11
5.8556957874015749
21
-5.089963622047244
0
LINE
8
BLACK
6
CONTINUOUS
10
5.8556957874015749
20
-5.089963622047244
11
5.85944531496063
21
-5.0937131496062991
0
LINE
8
BLACK
6
CONTINUOUS
10
5.85944531496063
20
-5.0937131496062991
11
5.8631948425196851
21
-5.1012122047244093
0
LINE
8
BLACK
6
CONTINUOUS
10
5.8631948425196851
20
-5.1012122047244093
11
5.8669443700787403
21
-5.1162103149606297
0
LINE
8
BLACK
6
CONTINUOUS
10
5.8669443700787403
20
-5.1162103149606297
11
5.8669443700787403
21
-5.134957992125984
0
LINE
8
BLACK
6
CONTINUOUS
10
5.8669443700787403
20
-5.134957992125984
11
5.8631948425196851
21
-5.1499561023622045
0
LINE
8
BLACK
6
CONTINUOUS
10
5.8631948425196851
20
-5.1499561023622045
11
5.85944531496063
21
-5.1574551574803147
0
LINE
8
BLACK
6
CONTINUOUS
10
5.85944531496063
20
-5.1574551574803147
11
5.8556957874015749
21
-5.1612047244094486
0
LINE
8
BLACK
6
CONTINUOUS
10
5.8556957874015749
20
-5.1612047244094486
11
5.8481967322834647
21
-5.1649542519685037
0
LINE
8
BLACK
6
CONTINUOUS
10
5.8481967322834647
20
-5.1649542519685037
11
5.8406976377952757
21
-5.1649542519685037
0
LINE
8
BLACK
6
CONTINUOUS
10
5.8406976377952757
20
-5.1649542519685037
11
5.8331985826771655
21
-5.1612047244094486
0
LINE
8
BLACK
6
CONTINUOUS
10
5.8331985826771655
20
-5.1612047244094486
11
5.8294490551181104
21
-5.1574551574803147
0
LINE
8
BLACK
6
CONTINUOUS
10
5.8294490551181104
20
-5.1574551574803147
11
5.8256995275590553
21
-5.1499561023622045
0
LINE
8
BLACK
6
CONTINUOUS
10
5.8256995275590553
20
-5.1499561023622045
11
5.8219500000000002
21
-5.134957992125984
0
LINE
8
BLACK
6
CONTINUOUS
10
5.8219500000000002
20
-5.134957992125984
11
5.8219500000000002
21
-5.1162103149606297
0
LINE
8
BLACK
6
CONTINUOUS
10
5.8219500000000002
20
-5.1162103149606297
11
5.8256995275590553
21
-5.1012122047244093
0
LINE
8
BLACK
6
CONTINUOUS
10
5.8256995275590553
20
-5.1012122047244093
11
5.8294490551181104
21
-5.0937131496062991
0
LINE
8
BLACK
6
CONTINUOUS
10
5.8294490551181104
20
-5.0937131496062991
11
5.8331985826771655
21
-5.089963622047244
0
LINE
8
BLACK
6
CONTINUOUS
10
5.8331985826771655
20
-5.089963622047244
11
5.8406976377952757
21
-5.0862140944881888
0
LINE
8
BLACK
6
CONTINUOUS
10
5.900690157480315
20
-5.1574551574803147
11
5.9044396850393701
21
-5.1612047244094486
0
LINE
8
BLACK
6
CONTINUOUS
10
5.9044396850393701
20
-5.1612047244094486
11
5.900690157480315
21
-5.1649542519685037
0
LINE
8
BLACK
6
CONTINUOUS
10
5.900690157480315
20
-5.1649542519685037
11
5.8969406299212599
21
-5.1612047244094486
0
LINE
8
BLACK
6
CONTINUOUS
10
5.8969406299212599
20
-5.1612047244094486
11
5.900690157480315
21
-5.1574551574803147
0
LINE
8
BLACK
6
CONTINUOUS
10
5.900690157480315
20
-5.1574551574803147
11
5.900690157480315
21
-5.1649542519685037
0
LINE
8
BLACK
6
CONTINUOUS
10
5.941935
20
-5.1649542519685037
11
5.9569331102362204
21
-5.1649542519685037
0
LINE
8
BLACK
6
CONTINUOUS
10
5.9569331102362204
20
-5.1649542519685037
11
5.9644322047244094
21
-5.1612047244094486
0
LINE
8
BLACK
6
CONTINUOUS
10
5.9644322047244094
20
-5.1612047244094486
11
5.9681817322834645
21
-5.1574551574803147
0
LINE
8
BLACK
6
CONTINUOUS
10
5.9681817322834645
20
-5.1574551574803147
11
5.9756807874015747
21
-5.1462065748031494
0
LINE
8
BLACK
6
CONTINUOUS
10
5.9756807874015747
20
-5.1462065748031494
11
5.9794303149606298
21
-5.1312084645669289
0
LINE
8
BLACK
6
CONTINUOUS
10
5.9794303149606298
20
-5.1312084645669289
11
5.9794303149606298
21
-5.1012122047244093
0
LINE
8
BLACK
6
CONTINUOUS
10
5.9794303149606298
20
-5.1012122047244093
11
5.9756807874015747
21
-5.0937131496062991
0
LINE
8
BLACK
6
CONTINUOUS
10
5.9756807874015747
20
-5.0937131496062991
11
5.9719312598425196
21
-5.089963622047244
0
LINE
8
BLACK
6
CONTINUOUS
10
5.9719312598425196
20
-5.089963622047244
11
5.9644322047244094
21
-5.0862140944881888
0
LINE
8
BLACK
6
CONTINUOUS
10
5.9644322047244094
20
-5.0862140944881888
11
5.9494340551181102
21
-5.0862140944881888
0
LINE
8
BLACK
6
CONTINUOUS
10
5.9494340551181102
20
-5.0862140944881888
11
5.941935
21
-5.089963622047244
0
LINE
8
BLACK
6
CONTINUOUS
10
5.941935
20
-5.089963622047244
11
5.9381854724409449
21
-5.0937131496062991
0
LINE
8
BLACK
6
CONTINUOUS
10
5.9381854724409449
20
-5.0937131496062991
11
5.9344359448818897
21
-5.1012122047244093
0
LINE
8
BLACK
6
CONTINUOUS
10
5.9344359448818897
20
-5.1012122047244093
11
5.9344359448818897
21
-5.1199598425196848
0
LINE
8
BLACK
6
CONTINUOUS
10
5.9344359448818897
20
-5.1199598425196848
11
5.9381854724409449
21
-5.1274589370078738
0
LINE
8
BLACK
6
CONTINUOUS
10
5.9381854724409449
20
-5.1274589370078738
11
5.941935
21
-5.1312084645669289
0
LINE
8
BLACK
6
CONTINUOUS
10
5.941935
20
-5.1312084645669289
11
5.9494340551181102
21
-5.134957992125984
0
LINE
8
BLACK
6
CONTINUOUS
10
5.9494340551181102
20
-5.134957992125984
11
5.9644322047244094
21
-5.134957992125984
0
LINE
8
BLACK
6
CONTINUOUS
10
5.9644322047244094
20
-5.134957992125984
11
5.9719312598425196
21
-5.1312084645669289
0
LINE
8
BLACK
6
CONTINUOUS
10
5.9719312598425196
20
-5.1312084645669289
11
5.9756807874015747
21
-5.1274589370078738
0
LINE
8
BLACK
6
CONTINUOUS
10
5.9756807874015747
20
-5.1274589370078738
11
5.9794303149606298
21
-5.1199598425196848
0
LINE
8
BLACK
6
CONTINUOUS
10
6.0469218897637793
20
-5.0862140944881888
11
6.0319237401574801
21
-5.0862140944881888
0
LINE
8
BLACK
6
CONTINUOUS
10
6.0319237401574801
20
-5.0862140944881888
11
6.0244246850393699
21
-5.089963622047244
0
LINE
8
BLACK
6
CONTINUOUS
10
6.0244246850393699
20
-5.089963622047244
11
6.0206751574803148
21
-5.0937131496062991
0
LINE
8
BLACK
6
CONTINUOUS
10
6.0206751574803148
20
-5.0937131496062991
11
6.0131761023622046
21
-5.1049617322834644
0
LINE
8
BLACK
6
CONTINUOUS
10
6.0131761023622046
20
-5.1049617322834644
11
6.0094265748031495
21
-5.1199598425196848
0
LINE
8
BLACK
6
CONTINUOUS
10
6.0094265748031495
20
-5.1199598425196848
11
6.0094265748031495
21
-5.1499561023622045
0
LINE
8
BLACK
6
CONTINUOUS
10
6.0094265748031495
20
-5.1499561023622045
11
6.0131761023622046
21
-5.1574551574803147
0
LINE
8
BLACK
6
CONTINUOUS
10
6.0131761023622046
20
-5.1574551574803147
11
6.0169256299212597
21
-5.1612047244094486
0
LINE
8
BLACK
6
CONTINUOUS
10
6.0169256299212597
20
-5.1612047244094486
11
6.0244246850393699
21
-5.1649542519685037
0
LINE
8
BLACK
6
CONTINUOUS
10
6.0244246850393699
20
-5.1649542519685037
11
6.0394228346456691
21
-5.1649542519685037
0
LINE
8
BLACK
6
CONTINUOUS
10
6.0394228346456691
20
-5.1649542519685037
11
6.0469218897637793
21
-5.1612047244094486
0
LINE
8
BLACK
6
CONTINUOUS
10
6.0469218897637793
20
-5.1612047244094486
11
6.0506714173228344
21
-5.1574551574803147
0
LINE
8
BLACK
6
CONTINUOUS
10
6.0506714173228344
20
-5.1574551574803147
11
6.0544209448818895
21
-5.1499561023622045
0
LINE
8
BLACK
6
CONTINUOUS
10
6.0544209448818895
20
-5.1499561023622045
11
6.0544209448818895
21
-5.1312084645669289
0
LINE
8
BLACK
6
CONTINUOUS
10
6.0544209448818895
20
-5.1312084645669289
11
6.0506714173228344
21
-5.1237094094488187
0
LINE
8
BLACK
6
CONTINUOUS
10
6.0506714173228344
20
-5.1237094094488187
11
6.0469218897637793
21
-5.1199598425196848
0
LINE
8
BLACK
6
CONTINUOUS
10
6.0469218897637793
20
-5.1199598425196848
11
6.0394228346456691
21
-5.1162103149606297
0
LINE
8
BLACK
6
CONTINUOUS
10
6.0394228346456691
20
-5.1162103149606297
11
6.0244246850393699
21
-5.1162103149606297
0
LINE
8
BLACK
6
CONTINUOUS
10
6.0244246850393699
20
-5.1162103149606297
11
6.0169256299212597
21
-5.1199598425196848
0
LINE
8
BLACK
6
CONTINUOUS
10
6.0169256299212597
20
-5.1199598425196848
11
6.0131761023622046
21
-5.1237094094488187
0
LINE
8
BLACK
6
CONTINUOUS
10
6.0131761023622046
20
-5.1237094094488187
11
6.0094265748031495
21
-5.1312084645669289
0
LINE
8
BLACK
6
CONTINUOUS
10
6.1256620472440941
20
-5.0862140944881888
11
6.0881667322834643
21
-5.0862140944881888
0
LINE
8
BLACK
6
CONTINUOUS
10
6.0881667322834643
20
-5.0862140944881888
11
6.0844172047244092
21
-5.1237094094488187
0
LINE
8
BLACK
6
CONTINUOUS
10
6.0844172047244092
20
-5.1237094094488187
11
6.0881667322834643
21
-5.1199598425196848
0
LINE
8
BLACK
6
CONTINUOUS
10
6.0881667322834643
20
-5.1199598425196848
11
6.0956657874015745
21
-5.1162103149606297
0
LINE
8
BLACK
6
CONTINUOUS
10
6.0956657874015745
20
-5.1162103149606297
11
6.1144134645669288
21
-5.1162103149606297
0
LINE
8
BLACK
6
CONTINUOUS
10
6.1144134645669288
20
-5.1162103149606297
11
6.121912519685039
21
-5.1199598425196848
0
LINE
8
BLACK
6
CONTINUOUS
10
6.121912519685039
20
-5.1199598425196848
11
6.1256620472440941
21
-5.1237094094488187
0
LINE
8
BLACK
6
CONTINUOUS
10
6.1256620472440941
20
-5.1237094094488187
11
6.1294115748031492
21
-5.1312084645669289
0
LINE
8
BLACK
6
CONTINUOUS
10
6.1294115748031492
20
-5.1312084645669289
11
6.1294115748031492
21
-5.1499561023622045
0
LINE
8
BLACK
6
CONTINUOUS
10
6.1294115748031492
20
-5.1499561023622045
11
6.1256620472440941
21
-5.1574551574803147
0
LINE
8
BLACK
6
CONTINUOUS
10
6.1256620472440941
20
-5.1574551574803147
11
6.121912519685039
21
-5.1612047244094486
0
LINE
8
BLACK
6
CONTINUOUS
10
6.121912519685039
20
-5.1612047244094486
11
6.1144134645669288
21
-5.1649542519685037
0
LINE
8
BLACK
6
CONTINUOUS
10
6.1144134645669288
20
-5.1649542519685037
11
6.0956657874015745
21
-5.1649542519685037
0
LINE
8
BLACK
6
CONTINUOUS
10
6.0956657874015745
20
-5.1649542519685037
11
6.0881667322834643
21
-5.1612047244094486
0
LINE
8
BLACK
6
CONTINUOUS
10
6.0881667322834643
20
-5.1612047244094486
11
6.0844172047244092
21
-5.1574551574803147
0
LINE
8
BLACK
6
CONTINUOUS
10
6.163157362204724
20
-5.1649542519685037
11
6.163157362204724
21
-5.1124607874015746
0
LINE
8
BLACK
6
CONTINUOUS
10
6.163157362204724
20
-5.1199598425196848
11
6.1669068897637791
21
-5.1162103149606297
0
LINE
8
BLACK
6
CONTINUOUS
10
6.1669068897637791
20
-5.1162103149606297
11
6.1744059448818893
21
-5.1124607874015746
0
LINE
8
BLACK
6
CONTINUOUS
10
6.1744059448818893
20
-5.1124607874015746
11
6.1856545669291334
21
-5.1124607874015746
0
LINE
8
BLACK
6
CONTINUOUS
10
6.1856545669291334
20
-5.1124607874015746
11
6.1931536220472436
21
-5.1162103149606297
0
LINE
8
BLACK
6
CONTINUOUS
10
6.1931536220472436
20
-5.1162103149606297
11
6.1969031496062987
21
-5.1237094094488187
0
LINE
8
BLACK
6
CONTINUOUS
10
6.1969031496062987
20
-5.1237094094488187
11
6.1969031496062987
21
-5.1649542519685037
0
LINE
8
BLACK
6
CONTINUOUS
10
6.1969031496062987
20
-5.1237094094488187
11
6.2006526771653538
21
-5.1162103149606297
0
LINE
8
BLACK
6
CONTINUOUS
10
6.2006526771653538
20
-5.1162103149606297
11
6.2081517322834641
21
-5.1124607874015746
0
LINE
8
BLACK
6
CONTINUOUS
10
6.2081517322834641
20
-5.1124607874015746
11
6.2194003149606294
21
-5.1124607874015746
0
LINE
8
BLACK
6
CONTINUOUS
10
6.2194003149606294
20
-5.1124607874015746
11
6.2268994094488184
21
-5.1162103149606297
0
LINE
8
BLACK
6
CONTINUOUS
10
6.2268994094488184
20
-5.1162103149606297
11
6.2306489370078735
21
-5.1237094094488187
0
LINE
8
BLACK
6
CONTINUOUS
10
6.2306489370078735
20
-5.1237094094488187
11
6.2306489370078735
21
-5.1649542519685037
0
LINE
8
BLACK
6
CONTINUOUS
10
6.2681442519685042
20
-5.1649542519685037
11
6.2681442519685042
21
-5.1124607874015746
0
LINE
8
BLACK
6
CONTINUOUS
10
6.2681442519685042
20
-5.1199598425196848
11
6.2718937795275593
21
-5.1162103149606297
0
LINE
8
BLACK
6
CONTINUOUS
10
6.2718937795275593
20
-5.1162103149606297
11
6.2793928346456696
21
-5.1124607874015746
0
LINE
8
BLACK
6
CONTINUOUS
10
6.2793928346456696
20
-5.1124607874015746
11
6.2906414566929136
21
-5.1124607874015746
0
LINE
8
BLACK
6
CONTINUOUS
10
6.2906414566929136
20
-5.1124607874015746
11
6.2981405118110239
21
-5.1162103149606297
0
LINE
8
BLACK
6
CONTINUOUS
10
6.2981405118110239
20
-5.1162103149606297
11
6.301890039370079
21
-5.1237094094488187
0
LINE
8
BLACK
6
CONTINUOUS
10
6.301890039370079
20
-5.1237094094488187
11
6.301890039370079
21
-5.1649542519685037
0
LINE
8
BLACK
6
CONTINUOUS
10
6.301890039370079
20
-5.1237094094488187
11
6.3056395669291341
21
-5.1162103149606297
0
LINE
8
BLACK
6
CONTINUOUS
10
6.3056395669291341
20
-5.1162103149606297
11
6.3131386220472443
21
-5.1124607874015746
0
LINE
8
BLACK
6
CONTINUOUS
10
6.3131386220472443
20
-5.1124607874015746
11
6.3243872047244096
21
-5.1124607874015746
0
LINE
8
BLACK
6
CONTINUOUS
10
6.3243872047244096
20
-5.1124607874015746
11
6.3318862992125986
21
-5.1162103149606297
0
LINE
8
BLACK
6
CONTINUOUS
10
6.3318862992125986
20
-5.1162103149606297
11
6.3356358267716537
21
-5.1237094094488187
0
LINE
8
BLACK
6
CONTINUOUS
10
6.3356358267716537
20
-5.1237094094488187
11
6.3356358267716537
21
-5.1649542519685037
0
LINE
8
BLACK
6
CONTINUOUS
10
6.4893666141732282
20
-5.0824645669291337
11
6.4218750787401575
21
-5.1837018897637792
0
LINE
8
BLACK
6
CONTINUOUS
10
6.5906039763779525
20
-5.0862140944881888
11
6.5981030708661415
21
-5.0862140944881888
0
LINE
8
BLACK
6
CONTINUOUS
10
6.5981030708661415
20
-5.0862140944881888
11
6.6056021259842517
21
-5.089963622047244
0
LINE
8
BLACK
6
CONTINUOUS
10
6.6056021259842517
20
-5.089963622047244
11
6.6093516535433068
21
-5.0937131496062991
0
LINE
8
BLACK
6
CONTINUOUS
10
6.6093516535433068
20
-5.0937131496062991
11
6.6131011811023619
21
-5.1012122047244093
0
LINE
8
BLACK
6
CONTINUOUS
10
6.6131011811023619
20
-5.1012122047244093
11
6.616850708661417
21
-5.1162103149606297
0
LINE
8
BLACK
6
CONTINUOUS
10
6.616850708661417
20
-5.1162103149606297
11
6.616850708661417
21
-5.134957992125984
0
LINE
8
BLACK
6
CONTINUOUS
10
6.616850708661417
20
-5.134957992125984
11
6.6131011811023619
21
-5.1499561023622045
0
LINE
8
BLACK
6
CONTINUOUS
10
6.6131011811023619
20
-5.1499561023622045
11
6.6093516535433068
21
-5.1574551574803147
0
LINE
8
BLACK
6
CONTINUOUS
10
6.6093516535433068
20
-5.1574551574803147
11
6.6056021259842517
21
-5.1612047244094486
0
LINE
8
BLACK
6
CONTINUOUS
10
6.6056021259842517
20
-5.1612047244094486
11
6.5981030708661415
21
-5.1649542519685037
0
LINE
8
BLACK
6
CONTINUOUS
10
6.5981030708661415
20
-5.1649542519685037
11
6.5906039763779525
21
-5.1649542519685037
0
LINE
8
BLACK
6
CONTINUOUS
10
6.5906039763779525
20
-5.1649542519685037
11
6.5831049212598423
21
-5.1612047244094486
0
LINE
8
BLACK
6
CONTINUOUS
10
6.5831049212598423
20
-5.1612047244094486
11
6.5793553937007871
21
-5.1574551574803147
0
LINE
8
BLACK
6
CONTINUOUS
10
6.5793553937007871
20
-5.1574551574803147
11
6.575605866141732
21
-5.1499561023622045
0
LINE
8
BLACK
6
CONTINUOUS
10
6.575605866141732
20
-5.1499561023622045
11
6.5718563385826769
21
-5.134957992125984
0
LINE
8
BLACK
6
CONTINUOUS
10
6.5718563385826769
20
-5.134957992125984
11
6.5718563385826769
21
-5.1162103149606297
0
LINE
8
BLACK
6
CONTINUOUS
10
6.5718563385826769
20
-5.1162103149606297
11
6.575605866141732
21
-5.1012122047244093
0
LINE
8
BLACK
6
CONTINUOUS
10
6.575605866141732
20
-5.1012122047244093
11
6.5793553937007871
21
-5.0937131496062991
0
LINE
8
BLACK
6
CONTINUOUS
10
6.5793553937007871
20
-5.0937131496062991
11
6.5831049212598423
21
-5.089963622047244
0
LINE
8
BLACK
6
CONTINUOUS
10
6.5831049212598423
20
-5.089963622047244
11
6.5906039763779525
21
-5.0862140944881888
0
LINE
8
BLACK
6
CONTINUOUS
10
6.6505964960629917
20
-5.1574551574803147
11
6.6543460236220469
21
-5.1612047244094486
0
LINE
8
BLACK
6
CONTINUOUS
10
6.6543460236220469
20
-5.1612047244094486
11
6.6505964960629917
21
-5.1649542519685037
0
LINE
8
BLACK
6
CONTINUOUS
10
6.6505964960629917
20
-5.1649542519685037
11
6.6468469685039366
21
-5.1612047244094486
0
LINE
8
BLACK
6
CONTINUOUS
10
6.6468469685039366
20
-5.1612047244094486
11
6.6505964960629917
21
-5.1574551574803147
0
LINE
8
BLACK
6
CONTINUOUS
10
6.6505964960629917
20
-5.1574551574803147
11
6.6505964960629917
21
-5.1649542519685037
0
LINE
8
BLACK
6
CONTINUOUS
10
6.703089921259842
20
-5.0862140944881888
11
6.710589015748031
21
-5.0862140944881888
0
LINE
8
BLACK
6
CONTINUOUS
10
6.710589015748031
20
-5.0862140944881888
11
6.7180880708661412
21
-5.089963622047244
0
LINE
8
BLACK
6
CONTINUOUS
10
6.7180880708661412
20
-5.089963622047244
11
6.7218375984251963
21
-5.0937131496062991
0
LINE
8
BLACK
6
CONTINUOUS
10
6.7218375984251963
20
-5.0937131496062991
11
6.7255871259842515
21
-5.1012122047244093
0
LINE
8
BLACK
6
CONTINUOUS
10
6.7255871259842515
20
-5.1012122047244093
11
6.7293366535433066
21
-5.1162103149606297
0
LINE
8
BLACK
6
CONTINUOUS
10
6.7293366535433066
20
-5.1162103149606297
11
6.7293366535433066
21
-5.134957992125984
0
LINE
8
BLACK
6
CONTINUOUS
10
6.7293366535433066
20
-5.134957992125984
11
6.7255871259842515
21
-5.1499561023622045
0
LINE
8
BLACK
6
CONTINUOUS
10
6.7255871259842515
20
-5.1499561023622045
11
6.7218375984251963
21
-5.1574551574803147
0
LINE
8
BLACK
6
CONTINUOUS
10
6.7218375984251963
20
-5.1574551574803147
11
6.7180880708661412
21
-5.1612047244094486
0
LINE
8
BLACK
6
CONTINUOUS
10
6.7180880708661412
20
-5.1612047244094486
11
6.710589015748031
21
-5.1649542519685037
0
LINE
8
BLACK
6
CONTINUOUS
10
6.710589015748031
20
-5.1649542519685037
11
6.703089921259842
21
-5.1649542519685037
0
LINE
8
BLACK
6
CONTINUOUS
10
6.703089921259842
20
-5.1649542519685037
11
6.6955908661417318
21
-5.1612047244094486
0
LINE
8
BLACK
6
CONTINUOUS
10
6.6955908661417318
20
-5.1612047244094486
11
6.6918413385826767
21
-5.1574551574803147
0
LINE
8
BLACK
6
CONTINUOUS
10
6.6918413385826767
20
-5.1574551574803147
11
6.6880918110236216
21
-5.1499561023622045
0
LINE
8
BLACK
6
CONTINUOUS
10
6.6880918110236216
20
-5.1499561023622045
11
6.6843422834645665
21
-5.134957992125984
0
LINE
8
BLACK
6
CONTINUOUS
10
6.6843422834645665
20
-5.134957992125984
11
6.6843422834645665
21
-5.1162103149606297
0
LINE
8
BLACK
6
CONTINUOUS
10
6.6843422834645665
20
-5.1162103149606297
11
6.6880918110236216
21
-5.1012122047244093
0
LINE
8
BLACK
6
CONTINUOUS
10
6.6880918110236216
20
-5.1012122047244093
11
6.6918413385826767
21
-5.0937131496062991
0
LINE
8
BLACK
6
CONTINUOUS
10
6.6918413385826767
20
-5.0937131496062991
11
6.6955908661417318
21
-5.089963622047244
0
LINE
8
BLACK
6
CONTINUOUS
10
6.6955908661417318
20
-5.089963622047244
11
6.703089921259842
21
-5.0862140944881888
0
LINE
8
BLACK
6
CONTINUOUS
10
6.7555833858267711
20
-5.0862140944881888
11
6.8043272834645672
21
-5.0862140944881888
0
LINE
8
BLACK
6
CONTINUOUS
10
6.8043272834645672
20
-5.0862140944881888
11
6.7780805511811026
21
-5.1162103149606297
0
LINE
8
BLACK
6
CONTINUOUS
10
6.7780805511811026
20
-5.1162103149606297
11
6.7893291732283467
21
-5.1162103149606297
0
LINE
8
BLACK
6
CONTINUOUS
10
6.7893291732283467
20
-5.1162103149606297
11
6.7968282283464569
21
-5.1199598425196848
0
LINE
8
BLACK
6
CONTINUOUS
10
6.7968282283464569
20
-5.1199598425196848
11
6.8005777559055121
21
-5.1237094094488187
0
LINE
8
BLACK
6
CONTINUOUS
10
6.8005777559055121
20
-5.1237094094488187
11
6.8043272834645672
21
-5.1312084645669289
0
LINE
8
BLACK
6
CONTINUOUS
10
6.8043272834645672
20
-5.1312084645669289
11
6.8043272834645672
21
-5.1499561023622045
0
LINE
8
BLACK
6
CONTINUOUS
10
6.8043272834645672
20
-5.1499561023622045
11
6.8005777559055121
21
-5.1574551574803147
0
LINE
8
BLACK
6
CONTINUOUS
10
6.8005777559055121
20
-5.1574551574803147
11
6.7968282283464569
21
-5.1612047244094486
0
LINE
8
BLACK
6
CONTINUOUS
10
6.7968282283464569
20
-5.1612047244094486
11
6.7893291732283467
21
-5.1649542519685037
0
LINE
8
BLACK
6
CONTINUOUS
10
6.7893291732283467
20
-5.1649542519685037
11
6.7668319685039364
21
-5.1649542519685037
0
LINE
8
BLACK
6
CONTINUOUS
10
6.7668319685039364
20
-5.1649542519685037
11
6.7593329133858262
21
-5.1612047244094486
0
LINE
8
BLACK
6
CONTINUOUS
10
6.7593329133858262
20
-5.1612047244094486
11
6.7555833858267711
21
-5.1574551574803147
0
LINE
8
BLACK
6
CONTINUOUS
10
6.8493216535433072
20
-5.1199598425196848
11
6.841822598425197
21
-5.1162103149606297
0
LINE
8
BLACK
6
CONTINUOUS
10
6.841822598425197
20
-5.1162103149606297
11
6.8380730708661419
21
-5.1124607874015746
0
LINE
8
BLACK
6
CONTINUOUS
10
6.8380730708661419
20
-5.1124607874015746
11
6.8343235433070868
21
-5.1049617322834644
0
LINE
8
BLACK
6
CONTINUOUS
10
6.8343235433070868
20
-5.1049617322834644
11
6.8343235433070868
21
-5.1012122047244093
0
LINE
8
BLACK
6
CONTINUOUS
10
6.8343235433070868
20
-5.1012122047244093
11
6.8380730708661419
21
-5.0937131496062991
0
LINE
8
BLACK
6
CONTINUOUS
10
6.8380730708661419
20
-5.0937131496062991
11
6.841822598425197
21
-5.089963622047244
0
LINE
8
BLACK
6
CONTINUOUS
10
6.841822598425197
20
-5.089963622047244
11
6.8493216535433072
21
-5.0862140944881888
0
LINE
8
BLACK
6
CONTINUOUS
10
6.8493216535433072
20
-5.0862140944881888
11
6.8643198031496064
21
-5.0862140944881888
0
LINE
8
BLACK
6
CONTINUOUS
10
6.8643198031496064
20
-5.0862140944881888
11
6.8718188582677167
21
-5.089963622047244
0
LINE
8
BLACK
6
CONTINUOUS
10
6.8718188582677167
20
-5.089963622047244
11
6.8755683858267718
21
-5.0937131496062991
0
LINE
8
BLACK
6
CONTINUOUS
10
6.8755683858267718
20
-5.0937131496062991
11
6.8793179133858269
21
-5.1012122047244093
0
LINE
8
BLACK
6
CONTINUOUS
10
6.8793179133858269
20
-5.1012122047244093
11
6.8793179133858269
21
-5.1049617322834644
0
LINE
8
BLACK
6
CONTINUOUS
10
6.8793179133858269
20
-5.1049617322834644
11
6.8755683858267718
21
-5.1124607874015746
0
LINE
8
BLACK
6
CONTINUOUS
10
6.8755683858267718
20
-5.1124607874015746
11
6.8718188582677167
21
-5.1162103149606297
0
LINE
8
BLACK
6
CONTINUOUS
10
6.8718188582677167
20
-5.1162103149606297
11
6.8643198031496064
21
-5.1199598425196848
0
LINE
8
BLACK
6
CONTINUOUS
10
6.8643198031496064
20
-5.1199598425196848
11
6.8493216535433072
21
-5.1199598425196848
0
LINE
8
BLACK
6
CONTINUOUS
10
6.8493216535433072
20
-5.1199598425196848
11
6.841822598425197
21
-5.1237094094488187
0
LINE
8
BLACK
6
CONTINUOUS
10
6.841822598425197
20
-5.1237094094488187
11
6.8380730708661419
21
-5.1274589370078738
0
LINE
8
BLACK
6
CONTINUOUS
10
6.8380730708661419
20
-5.1274589370078738
11
6.8343235433070868
21
-5.134957992125984
0
LINE
8
BLACK
6
CONTINUOUS
10
6.8343235433070868
20
-5.134957992125984
11
6.8343235433070868
21
-5.1499561023622045
0
LINE
8
BLACK
6
CONTINUOUS
10
6.8343235433070868
20
-5.1499561023622045
11
6.8380730708661419
21
-5.1574551574803147
0
LINE
8
BLACK
6
CONTINUOUS
10
6.8380730708661419
20
-5.1574551574803147
11
6.841822598425197
21
-5.1612047244094486
0
LINE
8
BLACK
6
CONTINUOUS
10
6.841822598425197
20
-5.1612047244094486
11
6.8493216535433072
21
-5.1649542519685037
0
LINE
8
BLACK
6
CONTINUOUS
10
6.8493216535433072
20
-5.1649542519685037
11
6.8643198031496064
21
-5.1649542519685037
0
LINE
8
BLACK
6
CONTINUOUS
10
6.8643198031496064
20
-5.1649542519685037
11
6.8718188582677167
21
-5.1612047244094486
0
LINE
8
BLACK
6
CONTINUOUS
10
6.8718188582677167
20
-5.1612047244094486
11
6.8755683858267718
21
-5.1574551574803147
0
LINE
8
BLACK
6
CONTINUOUS
10
6.8755683858267718
20
-5.1574551574803147
11
6.8793179133858269
21
-5.1499561023622045
0
LINE
8
BLACK
6
CONTINUOUS
10
6.8793179133858269
20
-5.1499561023622045
11
6.8793179133858269
21
-5.134957992125984
0
LINE
8
BLACK
6
CONTINUOUS
10
6.8793179133858269
20
-5.134957992125984
11
6.8755683858267718
21
-5.1274589370078738
0
LINE
8
BLACK
6
CONTINUOUS
10
6.8755683858267718
20
-5.1274589370078738
11
6.8718188582677167
21
-5.1237094094488187
0
LINE
8
BLACK
6
CONTINUOUS
10
6.8718188582677167
20
-5.1237094094488187
11
6.8643198031496064
21
-5.1199598425196848
0
LINE
8
BLACK
6
CONTINUOUS
10
6.9280618110236221
20
-5.0862140944881888
11
6.935560905511811
21
-5.0862140944881888
0
LINE
8
BLACK
6
CONTINUOUS
10
6.935560905511811
20
-5.0862140944881888
11
6.9430599606299213
21
-5.089963622047244
0
LINE
8
BLACK
6
CONTINUOUS
10
6.9430599606299213
20
-5.089963622047244
11
6.9468094881889764
21
-5.0937131496062991
0
LINE
8
BLACK
6
CONTINUOUS
10
6.9468094881889764
20
-5.0937131496062991
11
6.9505590157480315
21
-5.1012122047244093
0
LINE
8
BLACK
6
CONTINUOUS
10
6.9505590157480315
20
-5.1012122047244093
11
6.9543085433070866
21
-5.1162103149606297
0
LINE
8
BLACK
6
CONTINUOUS
10
6.9543085433070866
20
-5.1162103149606297
11
6.9543085433070866
21
-5.134957992125984
0
LINE
8
BLACK
6
CONTINUOUS
10
6.9543085433070866
20
-5.134957992125984
11
6.9505590157480315
21
-5.1499561023622045
0
LINE
8
BLACK
6
CONTINUOUS
10
6.9505590157480315
20
-5.1499561023622045
11
6.9468094881889764
21
-5.1574551574803147
0
LINE
8
BLACK
6
CONTINUOUS
10
6.9468094881889764
20
-5.1574551574803147
11
6.9430599606299213
21
-5.1612047244094486
0
LINE
8
BLACK
6
CONTINUOUS
10
6.9430599606299213
20
-5.1612047244094486
11
6.935560905511811
21
-5.1649542519685037
0
LINE
8
BLACK
6
CONTINUOUS
10
6.935560905511811
20
-5.1649542519685037
11
6.9280618110236221
21
-5.1649542519685037
0
LINE
8
BLACK
6
CONTINUOUS
10
6.9280618110236221
20
-5.1649542519685037
11
6.9205627559055118
21
-5.1612047244094486
0
LINE
8
BLACK
6
CONTINUOUS
10
6.9205627559055118
20
-5.1612047244094486
11
6.9168132283464567
21
-5.1574551574803147
0
LINE
8
BLACK
6
CONTINUOUS
10
6.9168132283464567
20
-5.1574551574803147
11
6.9130637007874016
21
-5.1499561023622045
0
LINE
8
BLACK
6
CONTINUOUS
10
6.9130637007874016
20
-5.1499561023622045
11
6.9093141732283465
21
-5.134957992125984
0
LINE
8
BLACK
6
CONTINUOUS
10
6.9093141732283465
20
-5.134957992125984
11
6.9093141732283465
21
-5.1162103149606297
0
LINE
8
BLACK
6
CONTINUOUS
10
6.9093141732283465
20
-5.1162103149606297
11
6.9130637007874016
21
-5.1012122047244093
0
LINE
8
BLACK
6
CONTINUOUS
10
6.9130637007874016
20
-5.1012122047244093
11
6.9168132283464567
21
-5.0937131496062991
0
LINE
8
BLACK
6
CONTINUOUS
10
6.9168132283464567
20
-5.0937131496062991
11
6.9205627559055118
21
-5.089963622047244
0
LINE
8
BLACK
6
CONTINUOUS
10
6.9205627559055118
20
-5.089963622047244
11
6.9280618110236221
21
-5.0862140944881888
0
LINE
8
BLACK
6
CONTINUOUS
10
6.9843048031496062
20
-5.0862140944881888
11
6.9843048031496062
21
-5.1012122047244093
0
LINE
8
BLACK
6
CONTINUOUS
10
7.0143010629921259
20
-5.0862140944881888
11
7.0143010629921259
21
-5.1012122047244093
0
LINE
8
BLACK
6
CONTINUOUS
10
7.1305365748031493
20
-5.1949504724409445
11
7.1267870078740154
21
-5.1912009448818894
0
LINE
8
BLACK
6
CONTINUOUS
10
7.1267870078740154
20
-5.1912009448818894
11
7.1192879527559052
21
-5.1799523622047241
0
LINE
8
BLACK
6
CONTINUOUS
10
7.1192879527559052
20
-5.1799523622047241
11
7.1155384251968501
21
-5.1724533070866139
0
LINE
8
BLACK
6
CONTINUOUS
10
7.1155384251968501
20
-5.1724533070866139
11
7.111788897637795
21
-5.1612047244094486
0
LINE
8
BLACK
6
CONTINUOUS
10
7.111788897637795
20
-5.1612047244094486
11
7.1080393700787399
21
-5.1424570472440942
0
LINE
8
BLACK
6
CONTINUOUS
10
7.1080393700787399
20
-5.1424570472440942
11
7.1080393700787399
21
-5.1274589370078738
0
LINE
8
BLACK
6
CONTINUOUS
10
7.1080393700787399
20
-5.1274589370078738
11
7.111788897637795
21
-5.1087112598425195
0
LINE
8
BLACK
6
CONTINUOUS
10
7.111788897637795
20
-5.1087112598425195
11
7.1155384251968501
21
-5.0974626771653542
0
LINE
8
BLACK
6
CONTINUOUS
10
7.1155384251968501
20
-5.0974626771653542
11
7.1192879527559052
21
-5.089963622047244
0
LINE
8
BLACK
6
CONTINUOUS
10
7.1192879527559052
20
-5.089963622047244
11
7.1267870078740154
21
-5.0787149999999999
0
LINE
8
BLACK
6
CONTINUOUS
10
7.1267870078740154
20
-5.0787149999999999
11
7.1305365748031493
21
-5.0749654724409448
0
LINE
8
BLACK
6
CONTINUOUS
10
7.1567832677165351
20
-5.0937131496062991
11
7.1605327952755902
21
-5.089963622047244
0
LINE
8
BLACK
6
CONTINUOUS
10
7.1605327952755902
20
-5.089963622047244
11
7.1680318503937004
21
-5.0862140944881888
0
LINE
8
BLACK
6
CONTINUOUS
10
7.1680318503937004
20
-5.0862140944881888
11
7.1867795275590547
21
-5.0862140944881888
0
LINE
8
BLACK
6
CONTINUOUS
10
7.1867795275590547
20
-5.0862140944881888
11
7.1942785826771649
21
-5.089963622047244
0
LINE
8
BLACK
6
CONTINUOUS
10
7.1942785826771649
20
-5.089963622047244
11
7.19802811023622
21
-5.0937131496062991
0
LINE
8
BLACK
6
CONTINUOUS
10
7.19802811023622
20
-5.0937131496062991
11
7.2017776377952751
21
-5.1012122047244093
0
LINE
8
BLACK
6
CONTINUOUS
10
7.2017776377952751
20
-5.1012122047244093
11
7.2017776377952751
21
-5.1087112598425195
0
LINE
8
BLACK
6
CONTINUOUS
10
7.2017776377952751
20
-5.1087112598425195
11
7.19802811023622
21
-5.1199598425196848
0
LINE
8
BLACK
6
CONTINUOUS
10
7.19802811023622
20
-5.1199598425196848
11
7.1530337401574799
21
-5.1649542519685037
0
LINE
8
BLACK
6
CONTINUOUS
10
7.1530337401574799
20
-5.1649542519685037
11
7.2017776377952751
21
-5.1649542519685037
0
LINE
8
BLACK
6
CONTINUOUS
10
7.29551594488189
20
-5.1649542519685037
11
7.29551594488189
21
-5.0862140944881888
0
LINE
8
BLACK
6
CONTINUOUS
10
7.3292617322834648
20
-5.1649542519685037
11
7.3292617322834648
21
-5.1237094094488187
0
LINE
8
BLACK
6
CONTINUOUS
10
7.3292617322834648
20
-5.1237094094488187
11
7.3255122047244097
21
-5.1162103149606297
0
LINE
8
BLACK
6
CONTINUOUS
10
7.3255122047244097
20
-5.1162103149606297
11
7.3180131496062995
21
-5.1124607874015746
0
LINE
8
BLACK
6
CONTINUOUS
10
7.3180131496062995
20
-5.1124607874015746
11
7.3067645275590554
21
-5.1124607874015746
0
LINE
8
BLACK
6
CONTINUOUS
10
7.3067645275590554
20
-5.1124607874015746
11
7.2992654724409451
21
-5.1162103149606297
0
LINE
8
BLACK
6
CONTINUOUS
10
7.2992654724409451
20
-5.1162103149606297
11
7.29551594488189
21
-5.1199598425196848
0
LINE
8
BLACK
6
CONTINUOUS
10
7.37800562992126
20
-5.1649542519685037
11
7.3705065748031497
21
-5.1612047244094486
0
LINE
8
BLACK
6
CONTINUOUS
10
7.3705065748031497
20
-5.1612047244094486
11
7.3667570472440946
21
-5.1574551574803147
0
LINE
8
BLACK
6
CONTINUOUS
10
7.3667570472440946
20
-5.1574551574803147
11
7.3630075196850395
21
-5.1499561023622045
0
LINE
8
BLACK
6
CONTINUOUS
10
7.3630075196850395
20
-5.1499561023622045
11
7.3630075196850395
21
-5.1274589370078738
0
LINE
8
BLACK
6
CONTINUOUS
10
7.3630075196850395
20
-5.1274589370078738
11
7.3667570472440946
21
-5.1199598425196848
0
LINE
8
BLACK
6
CONTINUOUS
10
7.3667570472440946
20
-5.1199598425196848
11
7.3705065748031497
21
-5.1162103149606297
0
LINE
8
BLACK
6
CONTINUOUS
10
7.3705065748031497
20
-5.1162103149606297
11
7.37800562992126
21
-5.1124607874015746
0
LINE
8
BLACK
6
CONTINUOUS
10
7.37800562992126
20
-5.1124607874015746
11
7.3892542519685041
21
-5.1124607874015746
0
LINE
8
BLACK
6
CONTINUOUS
10
7.3892542519685041
20
-5.1124607874015746
11
7.3967533070866143
21
-5.1162103149606297
0
LINE
8
BLACK
6
CONTINUOUS
10
7.3967533070866143
20
-5.1162103149606297
11
7.4005028346456694
21
-5.1199598425196848
0
LINE
8
BLACK
6
CONTINUOUS
10
7.4005028346456694
20
-5.1199598425196848
11
7.4042523622047245
21
-5.1274589370078738
0
LINE
8
BLACK
6
CONTINUOUS
10
7.4042523622047245
20
-5.1274589370078738
11
7.4042523622047245
21
-5.1499561023622045
0
LINE
8
BLACK
6
CONTINUOUS
10
7.4042523622047245
20
-5.1499561023622045
11
7.4005028346456694
21
-5.1574551574803147
0
LINE
8
BLACK
6
CONTINUOUS
10
7.4005028346456694
20
-5.1574551574803147
11
7.3967533070866143
21
-5.1612047244094486
0
LINE
8
BLACK
6
CONTINUOUS
10
7.3967533070866143
20
-5.1612047244094486
11
7.3892542519685041
21
-5.1649542519685037
0
LINE
8
BLACK
6
CONTINUOUS
10
7.3892542519685041
20
-5.1649542519685037
11
7.37800562992126
21
-5.1649542519685037
0
LINE
8
BLACK
6
CONTINUOUS
10
7.4492467322834646
20
-5.1649542519685037
11
7.4417476771653543
21
-5.1612047244094486
0
LINE
8
BLACK
6
CONTINUOUS
10
7.4417476771653543
20
-5.1612047244094486
11
7.4379981496062992
21
-5.1537056299212596
0
LINE
8
BLACK
6
CONTINUOUS
10
7.4379981496062992
20
-5.1537056299212596
11
7.4379981496062992
21
-5.0862140944881888
0
LINE
8
BLACK
6
CONTINUOUS
10
7.5092392519685038
20
-5.1612047244094486
11
7.5017401968503936
21
-5.1649542519685037
0
LINE
8
BLACK
6
CONTINUOUS
10
7.5017401968503936
20
-5.1649542519685037
11
7.4867420472440944
21
-5.1649542519685037
0
LINE
8
BLACK
6
CONTINUOUS
10
7.4867420472440944
20
-5.1649542519685037
11
7.4792429921259842
21
-5.1612047244094486
0
LINE
8
BLACK
6
CONTINUOUS
10
7.4792429921259842
20
-5.1612047244094486
11
7.4754934645669291
21
-5.1537056299212596
0
LINE
8
BLACK
6
CONTINUOUS
10
7.4754934645669291
20
-5.1537056299212596
11
7.4754934645669291
21
-5.1237094094488187
0
LINE
8
BLACK
6
CONTINUOUS
10
7.4754934645669291
20
-5.1237094094488187
11
7.4792429921259842
21
-5.1162103149606297
0
LINE
8
BLACK
6
CONTINUOUS
10
7.4792429921259842
20
-5.1162103149606297
11
7.4867420472440944
21
-5.1124607874015746
0
LINE
8
BLACK
6
CONTINUOUS
10
7.4867420472440944
20
-5.1124607874015746
11
7.5017401968503936
21
-5.1124607874015746
0
LINE
8
BLACK
6
CONTINUOUS
10
7.5017401968503936
20
-5.1124607874015746
11
7.5092392519685038
21
-5.1162103149606297
0
LINE
8
BLACK
6
CONTINUOUS
10
7.5092392519685038
20
-5.1162103149606297
11
7.5129887795275589
21
-5.1237094094488187
0
LINE
8
BLACK
6
CONTINUOUS
10
7.5129887795275589
20
-5.1237094094488187
11
7.5129887795275589
21
-5.1312084645669289
0
LINE
8
BLACK
6
CONTINUOUS
10
7.5129887795275589
20
-5.1312084645669289
11
7.4754934645669291
21
-5.1387075196850391
0
LINE
8
BLACK
6
CONTINUOUS
10
7.5429850393700786
20
-5.1612047244094486
11
7.5504840944881888
21
-5.1649542519685037
0
LINE
8
BLACK
6
CONTINUOUS
10
7.5504840944881888
20
-5.1649542519685037
11
7.5654822047244092
21
-5.1649542519685037
0
LINE
8
BLACK
6
CONTINUOUS
10
7.5654822047244092
20
-5.1649542519685037
11
7.5729812992125982
21
-5.1612047244094486
0
LINE
8
BLACK
6
CONTINUOUS
10
7.5729812992125982
20
-5.1612047244094486
11
7.5767308267716533
21
-5.1537056299212596
0
LINE
8
BLACK
6
CONTINUOUS
10
7.5767308267716533
20
-5.1537056299212596
11
7.5767308267716533
21
-5.1499561023622045
0
LINE
8
BLACK
6
CONTINUOUS
10
7.5767308267716533
20
-5.1499561023622045
11
7.5729812992125982
21
-5.1424570472440942
0
LINE
8
BLACK
6
CONTINUOUS
10
7.5729812992125982
20
-5.1424570472440942
11
7.5654822047244092
21
-5.1387075196850391
0
LINE
8
BLACK
6
CONTINUOUS
10
7.5654822047244092
20
-5.1387075196850391
11
7.5542336220472439
21
-5.1387075196850391
0
LINE
8
BLACK
6
CONTINUOUS
10
7.5542336220472439
20
-5.1387075196850391
11
7.5467345669291337
21
-5.134957992125984
0
LINE
8
BLACK
6
CONTINUOUS
10
7.5467345669291337
20
-5.134957992125984
11
7.5429850393700786
21
-5.1274589370078738
0
LINE
8
BLACK
6
CONTINUOUS
10
7.5429850393700786
20
-5.1274589370078738
11
7.5429850393700786
21
-5.1237094094488187
0
LINE
8
BLACK
6
CONTINUOUS
10
7.5429850393700786
20
-5.1237094094488187
11
7.5467345669291337
21
-5.1162103149606297
0
LINE
8
BLACK
6
CONTINUOUS
10
7.5467345669291337
20
-5.1162103149606297
11
7.5542336220472439
21
-5.1124607874015746
0
LINE
8
BLACK
6
CONTINUOUS
10
7.5542336220472439
20
-5.1124607874015746
11
7.5654822047244092
21
-5.1124607874015746
0
LINE
8
BLACK
6
CONTINUOUS
10
7.5654822047244092
20
-5.1124607874015746
11
7.5729812992125982
21
-5.1162103149606297
0
LINE
8
BLACK
6
CONTINUOUS
10
7.6029775590551179
20
-5.1949504724409445
11
7.606727086614173
21
-5.1912009448818894
0
LINE
8
BLACK
6
CONTINUOUS
10
7.606727086614173
20
-5.1912009448818894
11
7.6142261417322832
21
-5.1799523622047241
0
LINE
8
BLACK
6
CONTINUOUS
10
7.6142261417322832
20
-5.1799523622047241
11
7.6179756692913383
21
-5.1724533070866139
0
LINE
8
BLACK
6
CONTINUOUS
10
7.6179756692913383
20
-5.1724533070866139
11
7.6217251968503934
21
-5.1612047244094486
0
LINE
8
BLACK
6
CONTINUOUS
10
7.6217251968503934
20
-5.1612047244094486
11
7.6254747244094485
21
-5.1424570472440942
0
LINE
8
BLACK
6
CONTINUOUS
10
7.6254747244094485
20
-5.1424570472440942
11
7.6254747244094485
21
-5.1274589370078738
0
LINE
8
BLACK
6
CONTINUOUS
10
7.6254747244094485
20
-5.1274589370078738
11
7.6217251968503934
21
-5.1087112598425195
0
LINE
8
BLACK
6
CONTINUOUS
10
7.6217251968503934
20
-5.1087112598425195
11
7.6179756692913383
21
-5.0974626771653542
0
LINE
8
BLACK
6
CONTINUOUS
10
7.6179756692913383
20
-5.0974626771653542
11
7.6142261417322832
21
-5.089963622047244
0
LINE
8
BLACK
6
CONTINUOUS
10
7.6142261417322832
20
-5.089963622047244
11
7.606727086614173
21
-5.0787149999999999
0
LINE
8
BLACK
6
CONTINUOUS
10
7.606727086614173
20
-5.0787149999999999
11
7.6029775590551179
21
-5.0749654724409448
0
CIRCLE
8
BLACK
10
5.6836614173228348
20
-5.2328740157480311
40
0.0393700787401575
0
LINE
8
BLACK
6
CONTINUOUS
10
5.8182004724409451
20
-5.1901511023622042
11
5.8669443700787403
21
-5.1901511023622042
0
LINE
8
BLACK
6
CONTINUOUS
10
5.8669443700787403
20
-5.1901511023622042
11
5.8406976377952757
21
-5.2201473228346451
0
LINE
8
BLACK
6
CONTINUOUS
10
5.8406976377952757
20
-5.2201473228346451
11
5.8519462598425198
21
-5.2201473228346451
0
LINE
8
BLACK
6
CONTINUOUS
10
5.8519462598425198
20
-5.2201473228346451
11
5.85944531496063
21
-5.2238968503937011
0
LINE
8
BLACK
6
CONTINUOUS
10
5.85944531496063
20
-5.2238968503937011
11
5.8631948425196851
21
-5.227646417322835
0
LINE
8
BLACK
6
CONTINUOUS
10
5.8631948425196851
20
-5.227646417322835
11
5.8669443700787403
21
-5.2351454724409452
0
LINE
8
BLACK
6
CONTINUOUS
10
5.8669443700787403
20
-5.2351454724409452
11
5.8669443700787403
21
-5.2538931102362207
0
LINE
8
BLACK
6
CONTINUOUS
10
5.8669443700787403
20
-5.2538931102362207
11
5.8631948425196851
21
-5.261392165354331
0
LINE
8
BLACK
6
CONTINUOUS
10
5.8631948425196851
20
-5.261392165354331
11
5.85944531496063
21
-5.2651417322834648
0
LINE
8
BLACK
6
CONTINUOUS
10
5.85944531496063
20
-5.2651417322834648
11
5.8519462598425198
21
-5.2688912598425199
0
LINE
8
BLACK
6
CONTINUOUS
10
5.8519462598425198
20
-5.2688912598425199
11
5.8294490551181104
21
-5.2688912598425199
0
LINE
8
BLACK
6
CONTINUOUS
10
5.8294490551181104
20
-5.2688912598425199
11
5.8219500000000002
21
-5.2651417322834648
0
LINE
8
BLACK
6
CONTINUOUS
10
5.8219500000000002
20
-5.2651417322834648
11
5.8182004724409451
21
-5.261392165354331
0
LINE
8
BLACK
6
CONTINUOUS
10
5.900690157480315
20
-5.261392165354331
11
5.9044396850393701
21
-5.2651417322834648
0
LINE
8
BLACK
6
CONTINUOUS
10
5.9044396850393701
20
-5.2651417322834648
11
5.900690157480315
21
-5.2688912598425199
0
LINE
8
BLACK
6
CONTINUOUS
10
5.900690157480315
20
-5.2688912598425199
11
5.8969406299212599
21
-5.2651417322834648
0
LINE
8
BLACK
6
CONTINUOUS
10
5.8969406299212599
20
-5.2651417322834648
11
5.900690157480315
21
-5.261392165354331
0
LINE
8
BLACK
6
CONTINUOUS
10
5.900690157480315
20
-5.261392165354331
11
5.900690157480315
21
-5.2688912598425199
0
LINE
8
BLACK
6
CONTINUOUS
10
5.9719312598425196
20
-5.21639779527559
11
5.9719312598425196
21
-5.2688912598425199
0
LINE
8
BLACK
6
CONTINUOUS
10
5.9531835826771653
20
-5.1864015748031491
11
5.9344359448818897
21
-5.2426445275590554
0
LINE
8
BLACK
6
CONTINUOUS
10
5.9344359448818897
20
-5.2426445275590554
11
5.9831798425196849
21
-5.2426445275590554
0
LINE
8
BLACK
6
CONTINUOUS
10
6.028174212598425
20
-5.1901511023622042
11
6.035673307086614
21
-5.1901511023622042
0
LINE
8
BLACK
6
CONTINUOUS
10
6.035673307086614
20
-5.1901511023622042
11
6.0431723622047242
21
-5.1939006299212593
0
LINE
8
BLACK
6
CONTINUOUS
10
6.0431723622047242
20
-5.1939006299212593
11
6.0469218897637793
21
-5.1976501574803144
0
LINE
8
BLACK
6
CONTINUOUS
10
6.0469218897637793
20
-5.1976501574803144
11
6.0506714173228344
21
-5.2051492125984247
0
LINE
8
BLACK
6
CONTINUOUS
10
6.0506714173228344
20
-5.2051492125984247
11
6.0544209448818895
21
-5.2201473228346451
0
LINE
8
BLACK
6
CONTINUOUS
10
6.0544209448818895
20
-5.2201473228346451
11
6.0544209448818895
21
-5.2388950000000003
0
LINE
8
BLACK
6
CONTINUOUS
10
6.0544209448818895
20
-5.2388950000000003
11
6.0506714173228344
21
-5.2538931102362207
0
LINE
8
BLACK
6
CONTINUOUS
10
6.0506714173228344
20
-5.2538931102362207
11
6.0469218897637793
21
-5.261392165354331
0
LINE
8
BLACK
6
CONTINUOUS
10
6.0469218897637793
20
-5.261392165354331
11
6.0431723622047242
21
-5.2651417322834648
0
LINE
8
BLACK
6
CONTINUOUS
10
6.0431723622047242
20
-5.2651417322834648
11
6.035673307086614
21
-5.2688912598425199
0
LINE
8
BLACK
6
CONTINUOUS
10
6.035673307086614
20
-5.2688912598425199
11
6.028174212598425
21
-5.2688912598425199
0
LINE
8
BLACK
6
CONTINUOUS
10
6.028174212598425
20
-5.2688912598425199
11
6.0206751574803148
21
-5.2651417322834648
0
LINE
8
BLACK
6
CONTINUOUS
10
6.0206751574803148
20
-5.2651417322834648
11
6.0169256299212597
21
-5.261392165354331
0
LINE
8
BLACK
6
CONTINUOUS
10
6.0169256299212597
20
-5.261392165354331
11
6.0131761023622046
21
-5.2538931102362207
0
LINE
8
BLACK
6
CONTINUOUS
10
6.0131761023622046
20
-5.2538931102362207
11
6.0094265748031495
21
-5.2388950000000003
0
LINE
8
BLACK
6
CONTINUOUS
10
6.0094265748031495
20
-5.2388950000000003
11
6.0094265748031495
21
-5.2201473228346451
0
LINE
8
BLACK
6
CONTINUOUS
10
6.0094265748031495
20
-5.2201473228346451
11
6.0131761023622046
21
-5.2051492125984247
0
LINE
8
BLACK
6
CONTINUOUS
10
6.0131761023622046
20
-5.2051492125984247
11
6.0169256299212597
21
-5.1976501574803144
0
LINE
8
BLACK
6
CONTINUOUS
10
6.0169256299212597
20
-5.1976501574803144
11
6.0206751574803148
21
-5.1939006299212593
0
LINE
8
BLACK
6
CONTINUOUS
10
6.0206751574803148
20
-5.1939006299212593
11
6.028174212598425
21
-5.1901511023622042
0
LINE
8
BLACK
6
CONTINUOUS
10
6.121912519685039
20
-5.21639779527559
11
6.121912519685039
21
-5.2688912598425199
0
LINE
8
BLACK
6
CONTINUOUS
10
6.1031648425196847
20
-5.1864015748031491
11
6.0844172047244092
21
-5.2426445275590554
0
LINE
8
BLACK
6
CONTINUOUS
10
6.0844172047244092
20
-5.2426445275590554
11
6.1331611023622044
21
-5.2426445275590554
0
LINE
8
BLACK
6
CONTINUOUS
10
6.163157362204724
20
-5.2688912598425199
11
6.163157362204724
21
-5.21639779527559
0
LINE
8
BLACK
6
CONTINUOUS
10
6.163157362204724
20
-5.2238968503937011
11
6.1669068897637791
21
-5.2201473228346451
0
LINE
8
BLACK
6
CONTINUOUS
10
6.1669068897637791
20
-5.2201473228346451
11
6.1744059448818893
21
-5.21639779527559
0
LINE
8
BLACK
6
CONTINUOUS
10
6.1744059448818893
20
-5.21639779527559
11
6.1856545669291334
21
-5.21639779527559
0
LINE
8
BLACK
6
CONTINUOUS
10
6.1856545669291334
20
-5.21639779527559
11
6.1931536220472436
21
-5.2201473228346451
0
LINE
8
BLACK
6
CONTINUOUS
10
6.1931536220472436
20
-5.2201473228346451
11
6.1969031496062987
21
-5.227646417322835
0
LINE
8
BLACK
6
CONTINUOUS
10
6.1969031496062987
20
-5.227646417322835
11
6.1969031496062987
21
-5.2688912598425199
0
LINE
8
BLACK
6
CONTINUOUS
10
6.1969031496062987
20
-5.227646417322835
11
6.2006526771653538
21
-5.2201473228346451
0
LINE
8
BLACK
6
CONTINUOUS
10
6.2006526771653538
20
-5.2201473228346451
11
6.2081517322834641
21
-5.21639779527559
0
LINE
8
BLACK
6
CONTINUOUS
10
6.2081517322834641
20
-5.21639779527559
11
6.2194003149606294
21
-5.21639779527559
0
LINE
8
BLACK
6
CONTINUOUS
10
6.2194003149606294
20
-5.21639779527559
11
6.2268994094488184
21
-5.2201473228346451
0
LINE
8
BLACK
6
CONTINUOUS
10
6.2268994094488184
20
-5.2201473228346451
11
6.2306489370078735
21
-5.227646417322835
0
LINE
8
BLACK
6
CONTINUOUS
10
6.2306489370078735
20
-5.227646417322835
11
6.2306489370078735
21
-5.2688912598425199
0
LINE
8
BLACK
6
CONTINUOUS
10
6.2681442519685042
20
-5.2688912598425199
11
6.2681442519685042
21
-5.21639779527559
0
LINE
8
BLACK
6
CONTINUOUS
10
6.2681442519685042
20
-5.2238968503937011
11
6.2718937795275593
21
-5.2201473228346451
0
LINE
8
BLACK
6
CONTINUOUS
10
6.2718937795275593
20
-5.2201473228346451
11
6.2793928346456696
21
-5.21639779527559
0
LINE
8
BLACK
6
CONTINUOUS
10
6.2793928346456696
20
-5.21639779527559
11
6.2906414566929136
21
-5.21639779527559
0
LINE
8
BLACK
6
CONTINUOUS
10
6.2906414566929136
20
-5.21639779527559
11
6.2981405118110239
21
-5.2201473228346451
0
LINE
8
BLACK
6
CONTINUOUS
10
6.2981405118110239
20
-5.2201473228346451
11
6.301890039370079
21
-5.227646417322835
0
LINE
8
BLACK
6
CONTINUOUS
10
6.301890039370079
20
-5.227646417322835
11
6.301890039370079
21
-5.2688912598425199
0
LINE
8
BLACK
6
CONTINUOUS
10
6.301890039370079
20
-5.227646417322835
11
6.3056395669291341
21
-5.2201473228346451
0
LINE
8
BLACK
6
CONTINUOUS
10
6.3056395669291341
20
-5.2201473228346451
11
6.3131386220472443
21
-5.21639779527559
0
LINE
8
BLACK
6
CONTINUOUS
10
6.3131386220472443
20
-5.21639779527559
11
6.3243872047244096
21
-5.21639779527559
0
LINE
8
BLACK
6
CONTINUOUS
10
6.3243872047244096
20
-5.21639779527559
11
6.3318862992125986
21
-5.2201473228346451
0
LINE
8
BLACK
6
CONTINUOUS
10
6.3318862992125986
20
-5.2201473228346451
11
6.3356358267716537
21
-5.227646417322835
0
LINE
8
BLACK
6
CONTINUOUS
10
6.3356358267716537
20
-5.227646417322835
11
6.3356358267716537
21
-5.2688912598425199
0
LINE
8
BLACK
6
CONTINUOUS
10
6.4893666141732282
20
-5.1864015748031491
11
6.4218750787401575
21
-5.2876388976377955
0
LINE
8
BLACK
6
CONTINUOUS
10
6.5906039763779525
20
-5.1901511023622042
11
6.5981030708661415
21
-5.1901511023622042
0
LINE
8
BLACK
6
CONTINUOUS
10
6.5981030708661415
20
-5.1901511023622042
11
6.6056021259842517
21
-5.1939006299212593
0
LINE
8
BLACK
6
CONTINUOUS
10
6.6056021259842517
20
-5.1939006299212593
11
6.6093516535433068
21
-5.1976501574803144
0
LINE
8
BLACK
6
CONTINUOUS
10
6.6093516535433068
20
-5.1976501574803144
11
6.6131011811023619
21
-5.2051492125984247
0
LINE
8
BLACK
6
CONTINUOUS
10
6.6131011811023619
20
-5.2051492125984247
11
6.616850708661417
21
-5.2201473228346451
0
LINE
8
BLACK
6
CONTINUOUS
10
6.616850708661417
20
-5.2201473228346451
11
6.616850708661417
21
-5.2388950000000003
0
LINE
8
BLACK
6
CONTINUOUS
10
6.616850708661417
20
-5.2388950000000003
11
6.6131011811023619
21
-5.2538931102362207
0
LINE
8
BLACK
6
CONTINUOUS
10
6.6131011811023619
20
-5.2538931102362207
11
6.6093516535433068
21
-5.261392165354331
0
LINE
8
BLACK
6
CONTINUOUS
10
6.6093516535433068
20
-5.261392165354331
11
6.6056021259842517
21
-5.2651417322834648
0
LINE
8
BLACK
6
CONTINUOUS
10
6.6056021259842517
20
-5.2651417322834648
11
6.5981030708661415
21
-5.2688912598425199
0
LINE
8
BLACK
6
CONTINUOUS
10
6.5981030708661415
20
-5.2688912598425199
11
6.5906039763779525
21
-5.2688912598425199
0
LINE
8
BLACK
6
CONTINUOUS
10
6.5906039763779525
20
-5.2688912598425199
11
6.5831049212598423
21
-5.2651417322834648
0
LINE
8
BLACK
6
CONTINUOUS
10
6.5831049212598423
20
-5.2651417322834648
11
6.5793553937007871
21
-5.261392165354331
0
LINE
8
BLACK
6
CONTINUOUS
10
6.5793553937007871
20
-5.261392165354331
11
6.575605866141732
21
-5.2538931102362207
0
LINE
8
BLACK
6
CONTINUOUS
10
6.575605866141732
20
-5.2538931102362207
11
6.5718563385826769
21
-5.2388950000000003
0
LINE
8
BLACK
6
CONTINUOUS
10
6.5718563385826769
20
-5.2388950000000003
11
6.5718563385826769
21
-5.2201473228346451
0
LINE
8
BLACK
6
CONTINUOUS
10
6.5718563385826769
20
-5.2201473228346451
11
6.575605866141732
21
-5.2051492125984247
0
LINE
8
BLACK
6
CONTINUOUS
10
6.575605866141732
20
-5.2051492125984247
11
6.5793553937007871
21
-5.1976501574803144
0
LINE
8
BLACK
6
CONTINUOUS
10
6.5793553937007871
20
-5.1976501574803144
11
6.5831049212598423
21
-5.1939006299212593
0
LINE
8
BLACK
6
CONTINUOUS
10
6.5831049212598423
20
-5.1939006299212593
11
6.5906039763779525
21
-5.1901511023622042
0
LINE
8
BLACK
6
CONTINUOUS
10
6.6505964960629917
20
-5.261392165354331
11
6.6543460236220469
21
-5.2651417322834648
0
LINE
8
BLACK
6
CONTINUOUS
10
6.6543460236220469
20
-5.2651417322834648
11
6.6505964960629917
21
-5.2688912598425199
0
LINE
8
BLACK
6
CONTINUOUS
10
6.6505964960629917
20
-5.2688912598425199
11
6.6468469685039366
21
-5.2651417322834648
0
LINE
8
BLACK
6
CONTINUOUS
10
6.6468469685039366
20
-5.2651417322834648
11
6.6505964960629917
21
-5.261392165354331
0
LINE
8
BLACK
6
CONTINUOUS
10
6.6505964960629917
20
-5.261392165354331
11
6.6505964960629917
21
-5.2688912598425199
0
LINE
8
BLACK
6
CONTINUOUS
10
6.7293366535433066
20
-5.2688912598425199
11
6.6843422834645665
21
-5.2688912598425199
0
LINE
8
BLACK
6
CONTINUOUS
10
6.7068394488188972
20
-5.2688912598425199
11
6.7068394488188972
21
-5.1901511023622042
0
LINE
8
BLACK
6
CONTINUOUS
10
6.7068394488188972
20
-5.1901511023622042
11
6.6993403937007869
21
-5.2013996850393696
0
LINE
8
BLACK
6
CONTINUOUS
10
6.6993403937007869
20
-5.2013996850393696
11
6.6918413385826767
21
-5.2088987401574798
0
LINE
8
BLACK
6
CONTINUOUS
10
6.6918413385826767
20
-5.2088987401574798
11
6.6843422834645665
21
-5.2126482677165349
0
LINE
8
BLACK
6
CONTINUOUS
10
6.7555833858267711
20
-5.1901511023622042
11
6.8043272834645672
21
-5.1901511023622042
0
LINE
8
BLACK
6
CONTINUOUS
10
6.8043272834645672
20
-5.1901511023622042
11
6.7780805511811026
21
-5.2201473228346451
0
LINE
8
BLACK
6
CONTINUOUS
10
6.7780805511811026
20
-5.2201473228346451
11
6.7893291732283467
21
-5.2201473228346451
0
LINE
8
BLACK
6
CONTINUOUS
10
6.7893291732283467
20
-5.2201473228346451
11
6.7968282283464569
21
-5.2238968503937011
0
LINE
8
BLACK
6
CONTINUOUS
10
6.7968282283464569
20
-5.2238968503937011
11
6.8005777559055121
21
-5.227646417322835
0
LINE
8
BLACK
6
CONTINUOUS
10
6.8005777559055121
20
-5.227646417322835
11
6.8043272834645672
21
-5.2351454724409452
0
LINE
8
BLACK
6
CONTINUOUS
10
6.8043272834645672
20
-5.2351454724409452
11
6.8043272834645672
21
-5.2538931102362207
0
LINE
8
BLACK
6
CONTINUOUS
10
6.8043272834645672
20
-5.2538931102362207
11
6.8005777559055121
21
-5.261392165354331
0
LINE
8
BLACK
6
CONTINUOUS
10
6.8005777559055121
20
-5.261392165354331
11
6.7968282283464569
21
-5.2651417322834648
0
LINE
8
BLACK
6
CONTINUOUS
10
6.7968282283464569
20
-5.2651417322834648
11
6.7893291732283467
21
-5.2688912598425199
0
LINE
8
BLACK
6
CONTINUOUS
10
6.7893291732283467
20
-5.2688912598425199
11
6.7668319685039364
21
-5.2688912598425199
0
LINE
8
BLACK
6
CONTINUOUS
10
6.7668319685039364
20
-5.2688912598425199
11
6.7593329133858262
21
-5.2651417322834648
0
LINE
8
BLACK
6
CONTINUOUS
10
6.7593329133858262
20
-5.2651417322834648
11
6.7555833858267711
21
-5.261392165354331
0
LINE
8
BLACK
6
CONTINUOUS
10
6.8718188582677167
20
-5.21639779527559
11
6.8718188582677167
21
-5.2688912598425199
0
LINE
8
BLACK
6
CONTINUOUS
10
6.8530711811023624
20
-5.1864015748031491
11
6.8343235433070868
21
-5.2426445275590554
0
LINE
8
BLACK
6
CONTINUOUS
10
6.8343235433070868
20
-5.2426445275590554
11
6.883067440944882
21
-5.2426445275590554
0
LINE
8
BLACK
6
CONTINUOUS
10
6.9280618110236221
20
-5.1901511023622042
11
6.935560905511811
21
-5.1901511023622042
0
LINE
8
BLACK
6
CONTINUOUS
10
6.935560905511811
20
-5.1901511023622042
11
6.9430599606299213
21
-5.1939006299212593
0
LINE
8
BLACK
6
CONTINUOUS
10
6.9430599606299213
20
-5.1939006299212593
11
6.9468094881889764
21
-5.1976501574803144
0
LINE
8
BLACK
6
CONTINUOUS
10
6.9468094881889764
20
-5.1976501574803144
11
6.9505590157480315
21
-5.2051492125984247
0
LINE
8
BLACK
6
CONTINUOUS
10
6.9505590157480315
20
-5.2051492125984247
11
6.9543085433070866
21
-5.2201473228346451
0
LINE
8
BLACK
6
CONTINUOUS
10
6.9543085433070866
20
-5.2201473228346451
11
6.9543085433070866
21
-5.2388950000000003
0
LINE
8
BLACK
6
CONTINUOUS
10
6.9543085433070866
20
-5.2388950000000003
11
6.9505590157480315
21
-5.2538931102362207
0
LINE
8
BLACK
6
CONTINUOUS
10
6.9505590157480315
20
-5.2538931102362207
11
6.9468094881889764
21
-5.261392165354331
0
LINE
8
BLACK
6
CONTINUOUS
10
6.9468094881889764
20
-5.261392165354331
11
6.9430599606299213
21
-5.2651417322834648
0
LINE
8
BLACK
6
CONTINUOUS
10
6.9430599606299213
20
-5.2651417322834648
11
6.935560905511811
21
-5.2688912598425199
0
LINE
8
BLACK
6
CONTINUOUS
10
6.935560905511811
20
-5.2688912598425199
11
6.9280618110236221
21
-5.2688912598425199
0
LINE
8
BLACK
6
CONTINUOUS
10
6.9280618110236221
20
-5.2688912598425199
11
6.9205627559055118
21
-5.2651417322834648
0
LINE
8
BLACK
6
CONTINUOUS
10
6.9205627559055118
20
-5.2651417322834648
11
6.9168132283464567
21
-5.261392165354331
0
LINE
8
BLACK
6
CONTINUOUS
10
6.9168132283464567
20
-5.261392165354331
11
6.9130637007874016
21
-5.2538931102362207
0
LINE
8
BLACK
6
CONTINUOUS
10
6.9130637007874016
20
-5.2538931102362207
11
6.9093141732283465
21
-5.2388950000000003
0
LINE
8
BLACK
6
CONTINUOUS
10
6.9093141732283465
20
-5.2388950000000003
11
6.9093141732283465
21
-5.2201473228346451
0
LINE
8
BLACK
6
CONTINUOUS
10
6.9093141732283465
20
-5.2201473228346451
11
6.9130637007874016
21
-5.2051492125984247
0
LINE
8
BLACK
6
CONTINUOUS
10
6.9130637007874016
20
-5.2051492125984247
11
6.9168132283464567
21
-5.1976501574803144
0
LINE
8
BLACK
6
CONTINUOUS
10
6.9168132283464567
20
-5.1976501574803144
11
6.9205627559055118
21
-5.1939006299212593
0
LINE
8
BLACK
6
CONTINUOUS
10
6.9205627559055118
20
-5.1939006299212593
11
6.9280618110236221
21
-5.1901511023622042
0
LINE
8
BLACK
6
CONTINUOUS
10
6.9843048031496062
20
-5.1901511023622042
11
6.9843048031496062
21
-5.2051492125984247
0
LINE
8
BLACK
6
CONTINUOUS
10
7.0143010629921259
20
-5.1901511023622042
11
7.0143010629921259
21
-5.2051492125984247
0
LINE
8
BLACK
6
CONTINUOUS
10
7.1305365748031493
20
-5.2988874803149608
11
7.1267870078740154
21
-5.2951379527559057
0
LINE
8
BLACK
6
CONTINUOUS
10
7.1267870078740154
20
-5.2951379527559057
11
7.1192879527559052
21
-5.2838893700787404
0
LINE
8
BLACK
6
CONTINUOUS
10
7.1192879527559052
20
-5.2838893700787404
11
7.1155384251968501
21
-5.2763903149606302
0
LINE
8
BLACK
6
CONTINUOUS
10
7.1155384251968501
20
-5.2763903149606302
11
7.111788897637795
21
-5.2651417322834648
0
LINE
8
BLACK
6
CONTINUOUS
10
7.111788897637795
20
-5.2651417322834648
11
7.1080393700787399
21
-5.2463940551181105
0
LINE
8
BLACK
6
CONTINUOUS
10
7.1080393700787399
20
-5.2463940551181105
11
7.1080393700787399
21
-5.2313959448818901
0
LINE
8
BLACK
6
CONTINUOUS
10
7.1080393700787399
20
-5.2313959448818901
11
7.111788897637795
21
-5.2126482677165349
0
LINE
8
BLACK
6
CONTINUOUS
10
7.111788897637795
20
-5.2126482677165349
11
7.1155384251968501
21
-5.2013996850393696
0
LINE
8
BLACK
6
CONTINUOUS
10
7.1155384251968501
20
-5.2013996850393696
11
7.1192879527559052
21
-5.1939006299212593
0
LINE
8
BLACK
6
CONTINUOUS
10
7.1192879527559052
20
-5.1939006299212593
11
7.1267870078740154
21
-5.1826520078740153
0
LINE
8
BLACK
6
CONTINUOUS
10
7.1267870078740154
20
-5.1826520078740153
11
7.1305365748031493
21
-5.1789024803149601
0
LINE
8
BLACK
6
CONTINUOUS
10
7.1567832677165351
20
-5.1976501574803144
11
7.1605327952755902
21
-5.1939006299212593
0
LINE
8
BLACK
6
CONTINUOUS
10
7.1605327952755902
20
-5.1939006299212593
11
7.1680318503937004
21
-5.1901511023622042
0
LINE
8
BLACK
6
CONTINUOUS
10
7.1680318503937004
20
-5.1901511023622042
11
7.1867795275590547
21
-5.1901511023622042
0
LINE
8
BLACK
6
CONTINUOUS
10
7.1867795275590547
20
-5.1901511023622042
11
7.1942785826771649
21
-5.1939006299212593
0
LINE
8
BLACK
6
CONTINUOUS
10
7.1942785826771649
20
-5.1939006299212593
11
7.19802811023622
21
-5.1976501574803144
0
LINE
8
BLACK
6
CONTINUOUS
10
7.19802811023622
20
-5.1976501574803144
11
7.2017776377952751
21
-5.2051492125984247
0
LINE
8
BLACK
6
CONTINUOUS
10
7.2017776377952751
20
-5.2051492125984247
11
7.2017776377952751
21
-5.2126482677165349
0
LINE
8
BLACK
6
CONTINUOUS
10
7.2017776377952751
20
-5.2126482677165349
11
7.19802811023622
21
-5.2238968503937011
0
LINE
8
BLACK
6
CONTINUOUS
10
7.19802811023622
20
-5.2238968503937011
11
7.1530337401574799
21
-5.2688912598425199
0
LINE
8
BLACK
6
CONTINUOUS
10
7.1530337401574799
20
-5.2688912598425199
11
7.2017776377952751
21
-5.2688912598425199
0
LINE
8
BLACK
6
CONTINUOUS
10
7.29551594488189
20
-5.2688912598425199
11
7.29551594488189
21
-5.1901511023622042
0
LINE
8
BLACK
6
CONTINUOUS
10
7.3292617322834648
20
-5.2688912598425199
11
7.3292617322834648
21
-5.227646417322835
0
LINE
8
BLACK
6
CONTINUOUS
10
7.3292617322834648
20
-5.227646417322835
11
7.3255122047244097
21
-5.2201473228346451
0
LINE
8
BLACK
6
CONTINUOUS
10
7.3255122047244097
20
-5.2201473228346451
11
7.3180131496062995
21
-5.21639779527559
0
LINE
8
BLACK
6
CONTINUOUS
10
7.3180131496062995
20
-5.21639779527559
11
7.3067645275590554
21
-5.21639779527559
0
LINE
8
BLACK
6
CONTINUOUS
10
7.3067645275590554
20
-5.21639779527559
11
7.2992654724409451
21
-5.2201473228346451
0
LINE
8
BLACK
6
CONTINUOUS
10
7.2992654724409451
20
-5.2201473228346451
11
7.29551594488189
21
-5.2238968503937011
0
LINE
8
BLACK
6
CONTINUOUS
10
7.37800562992126
20
-5.2688912598425199
11
7.3705065748031497
21
-5.2651417322834648
0
LINE
8
BLACK
6
CONTINUOUS
10
7.3705065748031497
20
-5.2651417322834648
11
7.3667570472440946
21
-5.261392165354331
0
LINE
8
BLACK
6
CONTINUOUS
10
7.3667570472440946
20
-5.261392165354331
11
7.3630075196850395
21
-5.2538931102362207
0
LINE
8
BLACK
6
CONTINUOUS
10
7.3630075196850395
20
-5.2538931102362207
11
7.3630075196850395
21
-5.2313959448818901
0
LINE
8
BLACK
6
CONTINUOUS
10
7.3630075196850395
20
-5.2313959448818901
11
7.3667570472440946
21
-5.2238968503937011
0
LINE
8
BLACK
6
CONTINUOUS
10
7.3667570472440946
20
-5.2238968503937011
11
7.3705065748031497
21
-5.2201473228346451
0
LINE
8
BLACK
6
CONTINUOUS
10
7.3705065748031497
20
-5.2201473228346451
11
7.37800562992126
21
-5.21639779527559
0
LINE
8
BLACK
6
CONTINUOUS
10
7.37800562992126
20
-5.21639779527559
11
7.3892542519685041
21
-5.21639779527559
0
LINE
8
BLACK
6
CONTINUOUS
10
7.3892542519685041
20
-5.21639779527559
11
7.3967533070866143
21
-5.2201473228346451
0
LINE
8
BLACK
6
CONTINUOUS
10
7.3967533070866143
20
-5.2201473228346451
11
7.4005028346456694
21
-5.2238968503937011
0
LINE
8
BLACK
6
CONTINUOUS
10
7.4005028346456694
20
-5.2238968503937011
11
7.4042523622047245
21
-5.2313959448818901
0
LINE
8
BLACK
6
CONTINUOUS
10
7.4042523622047245
20
-5.2313959448818901
11
7.4042523622047245
21
-5.2538931102362207
0
LINE
8
BLACK
6
CONTINUOUS
10
7.4042523622047245
20
-5.2538931102362207
11
7.4005028346456694
21
-5.261392165354331
0
LINE
8
BLACK
6
CONTINUOUS
10
7.4005028346456694
20
-5.261392165354331
11
7.3967533070866143
21
-5.2651417322834648
0
LINE
8
BLACK
6
CONTINUOUS
10
7.3967533070866143
20
-5.2651417322834648
11
7.3892542519685041
21
-5.2688912598425199
0
LINE
8
BLACK
6
CONTINUOUS
10
7.3892542519685041
20
-5.2688912598425199
11
7.37800562992126
21
-5.2688912598425199
0
LINE
8
BLACK
6
CONTINUOUS
10
7.4492467322834646
20
-5.2688912598425199
11
7.4417476771653543
21
-5.2651417322834648
0
LINE
8
BLACK
6
CONTINUOUS
10
7.4417476771653543
20
-5.2651417322834648
11
7.4379981496062992
21
-5.2576426377952759
0
LINE
8
BLACK
6
CONTINUOUS
10
7.4379981496062992
20
-5.2576426377952759
11
7.4379981496062992
21
-5.1901511023622042
0
LINE
8
BLACK
6
CONTINUOUS
10
7.5092392519685038
20
-5.2651417322834648
11
7.5017401968503936
21
-5.2688912598425199
0
LINE
8
BLACK
6
CONTINUOUS
10
7.5017401968503936
20
-5.2688912598425199
11
7.4867420472440944
21
-5.2688912598425199
0
LINE
8
BLACK
6
CONTINUOUS
10
7.4867420472440944
20
-5.2688912598425199
11
7.4792429921259842
21
-5.2651417322834648
0
LINE
8
BLACK
6
CONTINUOUS
10
7.4792429921259842
20
-5.2651417322834648
11
7.4754934645669291
21
-5.2576426377952759
0
LINE
8
BLACK
6
CONTINUOUS
10
7.4754934645669291
20
-5.2576426377952759
11
7.4754934645669291
21
-5.227646417322835
0
LINE
8
BLACK
6
CONTINUOUS
10
7.4754934645669291
20
-5.227646417322835
11
7.4792429921259842
21
-5.2201473228346451
0
LINE
8
BLACK
6
CONTINUOUS
10
7.4792429921259842
20
-5.2201473228346451
11
7.4867420472440944
21
-5.21639779527559
0
LINE
8
BLACK
6
CONTINUOUS
10
7.4867420472440944
20
-5.21639779527559
11
7.5017401968503936
21
-5.21639779527559
0
LINE
8
BLACK
6
CONTINUOUS
10
7.5017401968503936
20
-5.21639779527559
11
7.5092392519685038
21
-5.2201473228346451
0
LINE
8
BLACK
6
CONTINUOUS
10
7.5092392519685038
20
-5.2201473228346451
11
7.5129887795275589
21
-5.227646417322835
0
LINE
8
BLACK
6
CONTINUOUS
10
7.5129887795275589
20
-5.227646417322835
11
7.5129887795275589
21
-5.2351454724409452
0
LINE
8
BLACK
6
CONTINUOUS
10
7.5129887795275589
20
-5.2351454724409452
11
7.4754934645669291
21
-5.2426445275590554
0
LINE
8
BLACK
6
CONTINUOUS
10
7.5429850393700786
20
-5.2651417322834648
11
7.5504840944881888
21
-5.2688912598425199
0
LINE
8
BLACK
6
CONTINUOUS
10
7.5504840944881888
20
-5.2688912598425199
11
7.5654822047244092
21
-5.2688912598425199
0
LINE
8
BLACK
6
CONTINUOUS
10
7.5654822047244092
20
-5.2688912598425199
11
7.5729812992125982
21
-5.2651417322834648
0
LINE
8
BLACK
6
CONTINUOUS
10
7.5729812992125982
20
-5.2651417322834648
11
7.5767308267716533
21
-5.2576426377952759
0
LINE
8
BLACK
6
CONTINUOUS
10
7.5767308267716533
20
-5.2576426377952759
11
7.5767308267716533
21
-5.2538931102362207
0
LINE
8
BLACK
6
CONTINUOUS
10
7.5767308267716533
20
-5.2538931102362207
11
7.5729812992125982
21
-5.2463940551181105
0
LINE
8
BLACK
6
CONTINUOUS
10
7.5729812992125982
20
-5.2463940551181105
11
7.5654822047244092
21
-5.2426445275590554
0
LINE
8
BLACK
6
CONTINUOUS
10
7.5654822047244092
20
-5.2426445275590554
11
7.5542336220472439
21
-5.2426445275590554
0
LINE
8
BLACK
6
CONTINUOUS
10
7.5542336220472439
20
-5.2426445275590554
11
7.5467345669291337
21
-5.2388950000000003
0
LINE
8
BLACK
6
CONTINUOUS
10
7.5467345669291337
20
-5.2388950000000003
11
7.5429850393700786
21
-5.2313959448818901
0
LINE
8
BLACK
6
CONTINUOUS
10
7.5429850393700786
20
-5.2313959448818901
11
7.5429850393700786
21
-5.227646417322835
0
LINE
8
BLACK
6
CONTINUOUS
10
7.5429850393700786
20
-5.227646417322835
11
7.5467345669291337
21
-5.2201473228346451
0
LINE
8
BLACK
6
CONTINUOUS
10
7.5467345669291337
20
-5.2201473228346451
11
7.5542336220472439
21
-5.21639779527559
0
LINE
8
BLACK
6
CONTINUOUS
10
7.5542336220472439
20
-5.21639779527559
11
7.5654822047244092
21
-5.21639779527559
0
LINE
8
BLACK
6
CONTINUOUS
10
7.5654822047244092
20
-5.21639779527559
11
7.5729812992125982
21
-5.2201473228346451
0
LINE
8
BLACK
6
CONTINUOUS
10
7.6029775590551179
20
-5.2988874803149608
11
7.606727086614173
21
-5.2951379527559057
0
LINE
8
BLACK
6
CONTINUOUS
10
7.606727086614173
20
-5.2951379527559057
11
7.6142261417322832
21
-5.2838893700787404
0
LINE
8
BLACK
6
CONTINUOUS
10
7.6142261417322832
20
-5.2838893700787404
11
7.6179756692913383
21
-5.2763903149606302
0
LINE
8
BLACK
6
CONTINUOUS
10
7.6179756692913383
20
-5.2763903149606302
11
7.6217251968503934
21
-5.2651417322834648
0
LINE
8
BLACK
6
CONTINUOUS
10
7.6217251968503934
20
-5.2651417322834648
11
7.6254747244094485
21
-5.2463940551181105
0
LINE
8
BLACK
6
CONTINUOUS
10
7.6254747244094485
20
-5.2463940551181105
11
7.6254747244094485
21
-5.2313959448818901
0
LINE
8
BLACK
6
CONTINUOUS
10
7.6254747244094485
20
-5.2313959448818901
11
7.6217251968503934
21
-5.2126482677165349
0
LINE
8
BLACK
6
CONTINUOUS
10
7.6217251968503934
20
-5.2126482677165349
11
7.6179756692913383
21
-5.2013996850393696
0
LINE
8
BLACK
6
CONTINUOUS
10
7.6179756692913383
20
-5.2013996850393696
11
7.6142261417322832
21
-5.1939006299212593
0
LINE
8
BLACK
6
CONTINUOUS
10
7.6142261417322832
20
-5.1939006299212593
11
7.606727086614173
21
-5.1826520078740153
0
LINE
8
BLACK
6
CONTINUOUS
10
7.606727086614173
20
-5.1826520078740153
11
7.6029775590551179
21
-5.1789024803149601
  0
ENDSEC
  0
EOF
