%TF.GenerationSoftware,KiCad,Pcbnew,8.0.2-1*%
%TF.CreationDate,2024-08-18T21:43:35-07:00*%
%TF.ProjectId,HallSwitch,48616c6c-5377-4697-9463-682e6b696361,rev?*%
%TF.SameCoordinates,Original*%
%TF.FileFunction,Legend,Top*%
%TF.FilePolarity,Positive*%
%FSLAX46Y46*%
G04 Gerber Fmt 4.6, Leading zero omitted, Abs format (unit mm)*
G04 Created by KiCad (PCBNEW 8.0.2-1) date 2024-08-18 21:43:35*
%MOMM*%
%LPD*%
G01*
G04 APERTURE LIST*
%ADD10C,0.177800*%
%ADD11C,0.100000*%
%ADD12C,0.190500*%
%ADD13C,0.222250*%
%ADD14C,0.158750*%
%ADD15C,0.120000*%
%ADD16C,0.000000*%
G04 APERTURE END LIST*
D10*
X127000000Y-109220000D02*
X127000000Y-110540800D01*
D11*
X129286000Y-103378000D02*
G75*
G02*
X124714000Y-103378000I-2286000J0D01*
G01*
X124714000Y-103378000D02*
G75*
G02*
X129286000Y-103378000I2286000J0D01*
G01*
D12*
G36*
X121795540Y-95125960D02*
G01*
X122569770Y-95125960D01*
X122569770Y-95280806D01*
X122260078Y-95280806D01*
X122260078Y-95584543D01*
X122569770Y-95584543D01*
X122569770Y-95739389D01*
X121795540Y-95739389D01*
X121795540Y-95584543D01*
X122129054Y-95584543D01*
X122129054Y-95280806D01*
X121795540Y-95280806D01*
X121795540Y-95125960D01*
G37*
G36*
X121987714Y-95859054D02*
G01*
X122023867Y-95871369D01*
X122035811Y-95877857D01*
X122065323Y-95901017D01*
X122088066Y-95931088D01*
X122093320Y-95940949D01*
X122107549Y-95976430D01*
X122118327Y-96013714D01*
X122127188Y-96053269D01*
X122128124Y-96058014D01*
X122136621Y-96100096D01*
X122146005Y-96140773D01*
X122156145Y-96177080D01*
X122164788Y-96200949D01*
X122179863Y-96200949D01*
X122216993Y-96195691D01*
X122241652Y-96179918D01*
X122256551Y-96144691D01*
X122260060Y-96104599D01*
X122260078Y-96101006D01*
X122255072Y-96062246D01*
X122244258Y-96039589D01*
X122215105Y-96015409D01*
X122188610Y-96004042D01*
X122212433Y-95870599D01*
X122249330Y-95883882D01*
X122284721Y-95903665D01*
X122313635Y-95928571D01*
X122329312Y-95948022D01*
X122347665Y-95983220D01*
X122358936Y-96021577D01*
X122364906Y-96060597D01*
X122367130Y-96098097D01*
X122367279Y-96111429D01*
X122366157Y-96152089D01*
X122362126Y-96192647D01*
X122354088Y-96230739D01*
X122343829Y-96257900D01*
X122324461Y-96290022D01*
X122297367Y-96317309D01*
X122284272Y-96325645D01*
X122248827Y-96337667D01*
X122211078Y-96343042D01*
X122169491Y-96345200D01*
X122151946Y-96345373D01*
X121979233Y-96343698D01*
X121940839Y-96344257D01*
X121902229Y-96346461D01*
X121870543Y-96350770D01*
X121834298Y-96360913D01*
X121798035Y-96376000D01*
X121795540Y-96377198D01*
X121795540Y-96231844D01*
X121831893Y-96220253D01*
X121840951Y-96217699D01*
X121859004Y-96212488D01*
X121833338Y-96183420D01*
X121811558Y-96150275D01*
X121802426Y-96131715D01*
X121790255Y-96095952D01*
X121788405Y-96084256D01*
X121890829Y-96084256D01*
X121897018Y-96123154D01*
X121914060Y-96157930D01*
X121915582Y-96160190D01*
X121942511Y-96186333D01*
X121961738Y-96195180D01*
X121999135Y-96200267D01*
X122029856Y-96200949D01*
X122057587Y-96200949D01*
X122047769Y-96164424D01*
X122039246Y-96126222D01*
X122036184Y-96111429D01*
X122027783Y-96074347D01*
X122015720Y-96038310D01*
X122011989Y-96031400D01*
X121983723Y-96006609D01*
X121962855Y-96002553D01*
X121926205Y-96013461D01*
X121912046Y-96025631D01*
X121893813Y-96059349D01*
X121890829Y-96084256D01*
X121788405Y-96084256D01*
X121784289Y-96058224D01*
X121783628Y-96040148D01*
X121786583Y-95999517D01*
X121796970Y-95959230D01*
X121814836Y-95924684D01*
X121830901Y-95904843D01*
X121859479Y-95880912D01*
X121895895Y-95863508D01*
X121932865Y-95856111D01*
X121950572Y-95855337D01*
X121987714Y-95859054D01*
G37*
G36*
X121795540Y-96487377D02*
G01*
X122569770Y-96487377D01*
X122569770Y-96634593D01*
X121795540Y-96634593D01*
X121795540Y-96487377D01*
G37*
G36*
X121795540Y-96783669D02*
G01*
X122569770Y-96783669D01*
X122569770Y-96930885D01*
X121795540Y-96930885D01*
X121795540Y-96783669D01*
G37*
G36*
X122045675Y-97338100D02*
G01*
X122057587Y-97488851D01*
X122019222Y-97498702D01*
X121983846Y-97514827D01*
X121953749Y-97538862D01*
X121949269Y-97543941D01*
X121929560Y-97576033D01*
X121918032Y-97614987D01*
X121914652Y-97656353D01*
X121917110Y-97695523D01*
X121925609Y-97732208D01*
X121943821Y-97766729D01*
X121945733Y-97769138D01*
X121975086Y-97795092D01*
X122010964Y-97806771D01*
X122018689Y-97807105D01*
X122055680Y-97797336D01*
X122064287Y-97791099D01*
X122086874Y-97759912D01*
X122097043Y-97735451D01*
X122108432Y-97698225D01*
X122118839Y-97660261D01*
X122128602Y-97623140D01*
X122131660Y-97611314D01*
X122141941Y-97574218D01*
X122155167Y-97534488D01*
X122169361Y-97499980D01*
X122187145Y-97466320D01*
X122209083Y-97436554D01*
X122238437Y-97408997D01*
X122270482Y-97388208D01*
X122305216Y-97374188D01*
X122342639Y-97366936D01*
X122365232Y-97365831D01*
X122405019Y-97369745D01*
X122443003Y-97381489D01*
X122475969Y-97398959D01*
X122505889Y-97422634D01*
X122530974Y-97452016D01*
X122551225Y-97487104D01*
X122554695Y-97494807D01*
X122567740Y-97532119D01*
X122575751Y-97568696D01*
X122580390Y-97608483D01*
X122581681Y-97645931D01*
X122580095Y-97689319D01*
X122575338Y-97729216D01*
X122567409Y-97765625D01*
X122553708Y-97804709D01*
X122535440Y-97838767D01*
X122516728Y-97863311D01*
X122486235Y-97891989D01*
X122451593Y-97914023D01*
X122412801Y-97929414D01*
X122376247Y-97937318D01*
X122343456Y-97940176D01*
X122343456Y-97785143D01*
X122381781Y-97774526D01*
X122415048Y-97754002D01*
X122425532Y-97742524D01*
X122442708Y-97707592D01*
X122449774Y-97667671D01*
X122450657Y-97644256D01*
X122448004Y-97604983D01*
X122438955Y-97568333D01*
X122423485Y-97538544D01*
X122392183Y-97515920D01*
X122376584Y-97513977D01*
X122340955Y-97526958D01*
X122330987Y-97537055D01*
X122312343Y-97570773D01*
X122299362Y-97606367D01*
X122287641Y-97646119D01*
X122279061Y-97679431D01*
X122268693Y-97719791D01*
X122258246Y-97756002D01*
X122245958Y-97793006D01*
X122231784Y-97828382D01*
X122222855Y-97846747D01*
X122202888Y-97878288D01*
X122176180Y-97907651D01*
X122144501Y-97931428D01*
X122107589Y-97948912D01*
X122069261Y-97958508D01*
X122030882Y-97962017D01*
X122021853Y-97962137D01*
X121981261Y-97958556D01*
X121942304Y-97947815D01*
X121904983Y-97929913D01*
X121897716Y-97925473D01*
X121867513Y-97902449D01*
X121842021Y-97874627D01*
X121821241Y-97842005D01*
X121811731Y-97821808D01*
X121799436Y-97786249D01*
X121790654Y-97746572D01*
X121785851Y-97708476D01*
X121783738Y-97667228D01*
X121783628Y-97654864D01*
X121785259Y-97611032D01*
X121790153Y-97570499D01*
X121798309Y-97533265D01*
X121812403Y-97492938D01*
X121831195Y-97457361D01*
X121850443Y-97431343D01*
X121877721Y-97404305D01*
X121909304Y-97381677D01*
X121945193Y-97363459D01*
X121985386Y-97349651D01*
X122022170Y-97341513D01*
X122045675Y-97338100D01*
G37*
G36*
X121795540Y-98190870D02*
G01*
X122355368Y-98014993D01*
X122355368Y-98157928D01*
X121988539Y-98262151D01*
X122355368Y-98357999D01*
X122355368Y-98499818D01*
X121988539Y-98592502D01*
X122355368Y-98698586D01*
X122355368Y-98843754D01*
X121795540Y-98665086D01*
X121795540Y-98523826D01*
X122155668Y-98427978D01*
X121795540Y-98333805D01*
X121795540Y-98190870D01*
G37*
G36*
X122438746Y-98916525D02*
G01*
X122569770Y-98916525D01*
X122569770Y-99063740D01*
X122438746Y-99063740D01*
X122438746Y-98916525D01*
G37*
G36*
X121795540Y-98916525D02*
G01*
X122355368Y-98916525D01*
X122355368Y-99063740D01*
X121795540Y-99063740D01*
X121795540Y-98916525D01*
G37*
G36*
X122355368Y-99467792D02*
G01*
X122248166Y-99467792D01*
X122248166Y-99367290D01*
X122005103Y-99367290D01*
X121964939Y-99367563D01*
X121927254Y-99368994D01*
X121918932Y-99370082D01*
X121898646Y-99383296D01*
X121890829Y-99408049D01*
X121897515Y-99444820D01*
X121904974Y-99467233D01*
X121802984Y-99479889D01*
X121791964Y-99442991D01*
X121785518Y-99402925D01*
X121783628Y-99363754D01*
X121787071Y-99325880D01*
X121797401Y-99291915D01*
X121817742Y-99258676D01*
X121832948Y-99245014D01*
X121868181Y-99229400D01*
X121891946Y-99224356D01*
X121931821Y-99220866D01*
X121970399Y-99219866D01*
X121998589Y-99219703D01*
X122248166Y-99219703D01*
X122248166Y-99152144D01*
X122355368Y-99152144D01*
X122355368Y-99219703D01*
X122462569Y-99219703D01*
X122545947Y-99367290D01*
X122355368Y-99367290D01*
X122355368Y-99467792D01*
G37*
G36*
X122200521Y-100052745D02*
G01*
X122176699Y-99907763D01*
X122213038Y-99895805D01*
X122239047Y-99874449D01*
X122256052Y-99840457D01*
X122260078Y-99807262D01*
X122254372Y-99769199D01*
X122235314Y-99734993D01*
X122219505Y-99719602D01*
X122185168Y-99700953D01*
X122147488Y-99691453D01*
X122106753Y-99687358D01*
X122083829Y-99686847D01*
X122046365Y-99688011D01*
X122008166Y-99692314D01*
X121971772Y-99701114D01*
X121937174Y-99717937D01*
X121934380Y-99719975D01*
X121907841Y-99748153D01*
X121893551Y-99782718D01*
X121890829Y-99809309D01*
X121896832Y-99847369D01*
X121914838Y-99877799D01*
X121945168Y-99899448D01*
X121980443Y-99911762D01*
X121998030Y-99915580D01*
X121974208Y-100060003D01*
X121935134Y-100048174D01*
X121900478Y-100032390D01*
X121866280Y-100009510D01*
X121837851Y-99981465D01*
X121831645Y-99973647D01*
X121810638Y-99939007D01*
X121797180Y-99904231D01*
X121788317Y-99865287D01*
X121784050Y-99822175D01*
X121783628Y-99802423D01*
X121786344Y-99758443D01*
X121794490Y-99717930D01*
X121808067Y-99680886D01*
X121827074Y-99647309D01*
X121851512Y-99617200D01*
X121860865Y-99607935D01*
X121891980Y-99583331D01*
X121927255Y-99563817D01*
X121966692Y-99549394D01*
X122010291Y-99540062D01*
X122049802Y-99536173D01*
X122074895Y-99535537D01*
X122116613Y-99537313D01*
X122155342Y-99542643D01*
X122197869Y-99553729D01*
X122236092Y-99569932D01*
X122270009Y-99591251D01*
X122290228Y-99608307D01*
X122316413Y-99637402D01*
X122337181Y-99670108D01*
X122352531Y-99706426D01*
X122362463Y-99746356D01*
X122366978Y-99789898D01*
X122367279Y-99805214D01*
X122365302Y-99847605D01*
X122359370Y-99886023D01*
X122347750Y-99925066D01*
X122330965Y-99958921D01*
X122325962Y-99966575D01*
X122299410Y-99997620D01*
X122270074Y-100020741D01*
X122235341Y-100039652D01*
X122200521Y-100052745D01*
G37*
G36*
X122569770Y-100307906D02*
G01*
X122287995Y-100307906D01*
X122314939Y-100335548D01*
X122339328Y-100370278D01*
X122356129Y-100407680D01*
X122365343Y-100447753D01*
X122367279Y-100478013D01*
X122364146Y-100517637D01*
X122354747Y-100553943D01*
X122348295Y-100569581D01*
X122328208Y-100603376D01*
X122301734Y-100629687D01*
X122299906Y-100630998D01*
X122266824Y-100649271D01*
X122234580Y-100659287D01*
X122195725Y-100664504D01*
X122154551Y-100666553D01*
X122123471Y-100666918D01*
X121795540Y-100666918D01*
X121795540Y-100519889D01*
X122094809Y-100519889D01*
X122135231Y-100519365D01*
X122174340Y-100517239D01*
X122207780Y-100511514D01*
X122239273Y-100490589D01*
X122245933Y-100481922D01*
X122258959Y-100445942D01*
X122260078Y-100428879D01*
X122254307Y-100390105D01*
X122241839Y-100363368D01*
X122215699Y-100335802D01*
X122187307Y-100321120D01*
X122148692Y-100312087D01*
X122108955Y-100308538D01*
X122079362Y-100307906D01*
X121795540Y-100307906D01*
X121795540Y-100160877D01*
X122569770Y-100160877D01*
X122569770Y-100307906D01*
G37*
D13*
G36*
X127756363Y-110275645D02*
G01*
X127932240Y-110261749D01*
X127943732Y-110306508D01*
X127962545Y-110347780D01*
X127990585Y-110382893D01*
X127996511Y-110388120D01*
X128033952Y-110411113D01*
X128079398Y-110424562D01*
X128127658Y-110428506D01*
X128173357Y-110425638D01*
X128216155Y-110415723D01*
X128256430Y-110394476D01*
X128259240Y-110392245D01*
X128289520Y-110357999D01*
X128303146Y-110316142D01*
X128303535Y-110307129D01*
X128292138Y-110263973D01*
X128284862Y-110253932D01*
X128248477Y-110227580D01*
X128219940Y-110215717D01*
X128176509Y-110202429D01*
X128132217Y-110190288D01*
X128088910Y-110178898D01*
X128075113Y-110175330D01*
X128031834Y-110163335D01*
X127985483Y-110147905D01*
X127945223Y-110131345D01*
X127905953Y-110110598D01*
X127871226Y-110085003D01*
X127839076Y-110050756D01*
X127814822Y-110013371D01*
X127798465Y-109972848D01*
X127790005Y-109929188D01*
X127788716Y-109902830D01*
X127793283Y-109856411D01*
X127806984Y-109812097D01*
X127827365Y-109773636D01*
X127854986Y-109738730D01*
X127889265Y-109709464D01*
X127930202Y-109685838D01*
X127939188Y-109681790D01*
X127982718Y-109666570D01*
X128025391Y-109657223D01*
X128071810Y-109651812D01*
X128115499Y-109650305D01*
X128166118Y-109652155D01*
X128212666Y-109657706D01*
X128255142Y-109666956D01*
X128300740Y-109682941D01*
X128340475Y-109704254D01*
X128369109Y-109726084D01*
X128402567Y-109761659D01*
X128428273Y-109802075D01*
X128446229Y-109847332D01*
X128455450Y-109889978D01*
X128458785Y-109928234D01*
X128277914Y-109928234D01*
X128265527Y-109883522D01*
X128241582Y-109844711D01*
X128228191Y-109832479D01*
X128187438Y-109812441D01*
X128140863Y-109804197D01*
X128113545Y-109803166D01*
X128067727Y-109806262D01*
X128024968Y-109816819D01*
X127990214Y-109834867D01*
X127963820Y-109871386D01*
X127961553Y-109889585D01*
X127976698Y-109931152D01*
X127988477Y-109942782D01*
X128027815Y-109964533D01*
X128069342Y-109979678D01*
X128115719Y-109993352D01*
X128154583Y-110003362D01*
X128201669Y-110015458D01*
X128243916Y-110027647D01*
X128287086Y-110041982D01*
X128328359Y-110058518D01*
X128349784Y-110068936D01*
X128386582Y-110092231D01*
X128420839Y-110123390D01*
X128448579Y-110160348D01*
X128468977Y-110203413D01*
X128480173Y-110248128D01*
X128484266Y-110292905D01*
X128484406Y-110303438D01*
X128480229Y-110350796D01*
X128467697Y-110396245D01*
X128446811Y-110439786D01*
X128441631Y-110448265D01*
X128414771Y-110483502D01*
X128382311Y-110513242D01*
X128344252Y-110537486D01*
X128320689Y-110548580D01*
X128279203Y-110562924D01*
X128232913Y-110573170D01*
X128188469Y-110578773D01*
X128140346Y-110581239D01*
X128125921Y-110581367D01*
X128074784Y-110579464D01*
X128027495Y-110573755D01*
X127984055Y-110564239D01*
X127937007Y-110547797D01*
X127895501Y-110525873D01*
X127865146Y-110503417D01*
X127833602Y-110471592D01*
X127807202Y-110434745D01*
X127785948Y-110392875D01*
X127769839Y-110345982D01*
X127760344Y-110303068D01*
X127756363Y-110275645D01*
G37*
G36*
X128626193Y-110567471D02*
G01*
X128626193Y-109664202D01*
X128806847Y-109664202D01*
X128806847Y-110567471D01*
X128626193Y-110567471D01*
G37*
G36*
X129393755Y-110233956D02*
G01*
X129393755Y-110081095D01*
X129783506Y-110081095D01*
X129783506Y-110444140D01*
X129747487Y-110473765D01*
X129708723Y-110498369D01*
X129669593Y-110518562D01*
X129625602Y-110537507D01*
X129618920Y-110540112D01*
X129571668Y-110556187D01*
X129524145Y-110568314D01*
X129476352Y-110576492D01*
X129428289Y-110580722D01*
X129400703Y-110581367D01*
X129349288Y-110579283D01*
X129300408Y-110573031D01*
X129254062Y-110562611D01*
X129210251Y-110548024D01*
X129168974Y-110529268D01*
X129155778Y-110522090D01*
X129118437Y-110498075D01*
X129084745Y-110470487D01*
X129050050Y-110433786D01*
X129024264Y-110398458D01*
X129002126Y-110359558D01*
X128998792Y-110352727D01*
X128980934Y-110310684D01*
X128966771Y-110267282D01*
X128956303Y-110222522D01*
X128949530Y-110176402D01*
X128946451Y-110128924D01*
X128946246Y-110112796D01*
X128948307Y-110061140D01*
X128954490Y-110011698D01*
X128964795Y-109964469D01*
X128979223Y-109919454D01*
X128997772Y-109876653D01*
X129004871Y-109862878D01*
X129028764Y-109823633D01*
X129056474Y-109787977D01*
X129088001Y-109755909D01*
X129123344Y-109727428D01*
X129162504Y-109702535D01*
X129176406Y-109695035D01*
X129222125Y-109675466D01*
X129266427Y-109662929D01*
X129314740Y-109654673D01*
X129359343Y-109651004D01*
X129390715Y-109650305D01*
X129441040Y-109652108D01*
X129487792Y-109657515D01*
X129530971Y-109666527D01*
X129578070Y-109682099D01*
X129620024Y-109702862D01*
X129651056Y-109724130D01*
X129683880Y-109753799D01*
X129712002Y-109787438D01*
X129735422Y-109825046D01*
X129754139Y-109866623D01*
X129768154Y-109912170D01*
X129771781Y-109928234D01*
X129592213Y-109956027D01*
X129577141Y-109914691D01*
X129553019Y-109875933D01*
X129520994Y-109844204D01*
X129482088Y-109820840D01*
X129437025Y-109807174D01*
X129390715Y-109803166D01*
X129341175Y-109806813D01*
X129296289Y-109817754D01*
X129256059Y-109835989D01*
X129220483Y-109861517D01*
X129202244Y-109879380D01*
X129175001Y-109916171D01*
X129154450Y-109960048D01*
X129142160Y-110003297D01*
X129134786Y-110051753D01*
X129132396Y-110096109D01*
X129132328Y-110105414D01*
X129134056Y-110153925D01*
X129139240Y-110198492D01*
X129150024Y-110246767D01*
X129165785Y-110289362D01*
X129190463Y-110331878D01*
X129203113Y-110347733D01*
X129236275Y-110379206D01*
X129273635Y-110402949D01*
X129315192Y-110418962D01*
X129360947Y-110427244D01*
X129388978Y-110428506D01*
X129435095Y-110424743D01*
X129477792Y-110414591D01*
X129502755Y-110405707D01*
X129543324Y-110387234D01*
X129582175Y-110364120D01*
X129600898Y-110350339D01*
X129600898Y-110233956D01*
X129393755Y-110233956D01*
G37*
D12*
G36*
X123848425Y-109613730D02*
G01*
X123899519Y-109614993D01*
X123948902Y-109617661D01*
X123996211Y-109622986D01*
X124014627Y-109626864D01*
X124055993Y-109641845D01*
X124093374Y-109664314D01*
X124126771Y-109694272D01*
X124143603Y-109714151D01*
X124168689Y-109755122D01*
X124184095Y-109796761D01*
X124193014Y-109843312D01*
X124195497Y-109888074D01*
X124193127Y-109932180D01*
X124184934Y-109976353D01*
X124169162Y-110019065D01*
X124165533Y-110026170D01*
X124140801Y-110064795D01*
X124108907Y-110098990D01*
X124089537Y-110114108D01*
X124051849Y-110136494D01*
X124010621Y-110152667D01*
X123995736Y-110156449D01*
X123949634Y-110163204D01*
X123904599Y-110166807D01*
X123859249Y-110168646D01*
X123808351Y-110169259D01*
X123690449Y-110169259D01*
X123690449Y-110516671D01*
X123509578Y-110516671D01*
X123509578Y-110016399D01*
X123690449Y-110016399D01*
X123789461Y-110016399D01*
X123838451Y-110015544D01*
X123882989Y-110012538D01*
X123927552Y-110004376D01*
X123932334Y-110002719D01*
X123971282Y-109979242D01*
X123988788Y-109959293D01*
X124006328Y-109918649D01*
X124009198Y-109890679D01*
X124002033Y-109846873D01*
X123980537Y-109811426D01*
X123945733Y-109784823D01*
X123907798Y-109772342D01*
X123863106Y-109767979D01*
X123817356Y-109766554D01*
X123777736Y-109766263D01*
X123690449Y-109766263D01*
X123690449Y-110016399D01*
X123509578Y-110016399D01*
X123509578Y-109613402D01*
X123799666Y-109613402D01*
X123848425Y-109613730D01*
G37*
G36*
X124466044Y-110516671D02*
G01*
X124252386Y-109613402D01*
X124437382Y-109613402D01*
X124572221Y-110233965D01*
X124735939Y-109613402D01*
X124950899Y-109613402D01*
X125107886Y-110244387D01*
X125245330Y-109613402D01*
X125427287Y-109613402D01*
X125209938Y-110516671D01*
X125018210Y-110516671D01*
X124839728Y-109841390D01*
X124662114Y-110516671D01*
X124466044Y-110516671D01*
G37*
G36*
X125945396Y-109614257D02*
G01*
X125990927Y-109616822D01*
X126037062Y-109621975D01*
X126080577Y-109630715D01*
X126102784Y-109637721D01*
X126144489Y-109658930D01*
X126180035Y-109689119D01*
X126207007Y-109724356D01*
X126227618Y-109765064D01*
X126240595Y-109809292D01*
X126245938Y-109857040D01*
X126246091Y-109867012D01*
X126242386Y-109915704D01*
X126231272Y-109959944D01*
X126212748Y-109999734D01*
X126186814Y-110035072D01*
X126153606Y-110065131D01*
X126113043Y-110089084D01*
X126071517Y-110105032D01*
X126024359Y-110116306D01*
X126009851Y-110118668D01*
X126047719Y-110143198D01*
X126083470Y-110171773D01*
X126106475Y-110194447D01*
X126135878Y-110230255D01*
X126161195Y-110265837D01*
X126186063Y-110303562D01*
X126209396Y-110340794D01*
X126318830Y-110516671D01*
X126102567Y-110516671D01*
X125971853Y-110317995D01*
X125947266Y-110282079D01*
X125919303Y-110242527D01*
X125892098Y-110206484D01*
X125876533Y-110188367D01*
X125841595Y-110160323D01*
X125822250Y-110151455D01*
X125779357Y-110143378D01*
X125735133Y-110141476D01*
X125731271Y-110141467D01*
X125694576Y-110141467D01*
X125694576Y-110516671D01*
X125513922Y-110516671D01*
X125513922Y-109988606D01*
X125694576Y-109988606D01*
X125828329Y-109988606D01*
X125873667Y-109988232D01*
X125917879Y-109986850D01*
X125964817Y-109983109D01*
X125990744Y-109977966D01*
X126028558Y-109955752D01*
X126041336Y-109940837D01*
X126057989Y-109898451D01*
X126059792Y-109875046D01*
X126052166Y-109830641D01*
X126035690Y-109803609D01*
X126000027Y-109778421D01*
X125967511Y-109769303D01*
X125923596Y-109767023D01*
X125879571Y-109766408D01*
X125835712Y-109766263D01*
X125694576Y-109766263D01*
X125694576Y-109988606D01*
X125513922Y-109988606D01*
X125513922Y-109613402D01*
X125894337Y-109613402D01*
X125945396Y-109614257D01*
G37*
G36*
X121200992Y-95079236D02*
G01*
X121355838Y-95111434D01*
X121355838Y-94985249D01*
X121463039Y-94985249D01*
X121463039Y-95133581D01*
X121665530Y-95175643D01*
X121665530Y-95292894D01*
X121463039Y-95251205D01*
X121463039Y-95366595D01*
X121665530Y-95407540D01*
X121665530Y-95529072D01*
X121463039Y-95486824D01*
X121463039Y-95559408D01*
X121355838Y-95559408D01*
X121355838Y-95464304D01*
X121200992Y-95432107D01*
X121200992Y-95559408D01*
X121093790Y-95559408D01*
X121093790Y-95409587D01*
X120891300Y-95367339D01*
X120891300Y-95313367D01*
X121200992Y-95313367D01*
X121355838Y-95344820D01*
X121355838Y-95229057D01*
X121200992Y-95197232D01*
X121200992Y-95313367D01*
X120891300Y-95313367D01*
X120891300Y-95250646D01*
X121093790Y-95291591D01*
X121093790Y-95175085D01*
X120891300Y-95133395D01*
X120891300Y-95015027D01*
X121093790Y-95057089D01*
X121093790Y-94985249D01*
X121200992Y-94985249D01*
X121200992Y-95079236D01*
G37*
G36*
X121313451Y-95614788D02*
G01*
X121351000Y-95616775D01*
X121397738Y-95621486D01*
X121440672Y-95628553D01*
X121479802Y-95637975D01*
X121515129Y-95649752D01*
X121553938Y-95667786D01*
X121586804Y-95689501D01*
X121617479Y-95719129D01*
X121640620Y-95753460D01*
X121656227Y-95792493D01*
X121663608Y-95829692D01*
X121665530Y-95863331D01*
X121662723Y-95903365D01*
X121654302Y-95939998D01*
X121637382Y-95978435D01*
X121612821Y-96012241D01*
X121585687Y-96037532D01*
X121553107Y-96059086D01*
X121514455Y-96076987D01*
X121469734Y-96091234D01*
X121429586Y-96100002D01*
X121385553Y-96106432D01*
X121337634Y-96110523D01*
X121299146Y-96112058D01*
X121272273Y-96112350D01*
X121232384Y-96111687D01*
X121194655Y-96109700D01*
X121147708Y-96104989D01*
X121104600Y-96097922D01*
X121065330Y-96088501D01*
X121029898Y-96076723D01*
X120991007Y-96058689D01*
X120958114Y-96036974D01*
X120927439Y-96007355D01*
X120904298Y-95973051D01*
X120888691Y-95934062D01*
X120881310Y-95896915D01*
X120879388Y-95863331D01*
X121010412Y-95863331D01*
X121019729Y-95900111D01*
X121026976Y-95910976D01*
X121057859Y-95933484D01*
X121086160Y-95943359D01*
X121123079Y-95950737D01*
X121160140Y-95954805D01*
X121197719Y-95957130D01*
X121240663Y-95958382D01*
X121272273Y-95958621D01*
X121311214Y-95958289D01*
X121352653Y-95957015D01*
X121393705Y-95954322D01*
X121431003Y-95949651D01*
X121452244Y-95945034D01*
X121489002Y-95931757D01*
X121517942Y-95910603D01*
X121533471Y-95876265D01*
X121534506Y-95863331D01*
X121525189Y-95826550D01*
X121517942Y-95815686D01*
X121487059Y-95793178D01*
X121458758Y-95783302D01*
X121421584Y-95775925D01*
X121384406Y-95771856D01*
X121346784Y-95769531D01*
X121303848Y-95768279D01*
X121272273Y-95768041D01*
X121233274Y-95768372D01*
X121191765Y-95769646D01*
X121150631Y-95772340D01*
X121113240Y-95777010D01*
X121091929Y-95781627D01*
X121055334Y-95794869D01*
X121026604Y-95815872D01*
X121011424Y-95850384D01*
X121010412Y-95863331D01*
X120879388Y-95863331D01*
X120882424Y-95822840D01*
X120891532Y-95785399D01*
X120906712Y-95751006D01*
X120927964Y-95719663D01*
X120955287Y-95691369D01*
X120965745Y-95682615D01*
X121002885Y-95659339D01*
X121041103Y-95643621D01*
X121085927Y-95631248D01*
X121126543Y-95623757D01*
X121171388Y-95618406D01*
X121220461Y-95615195D01*
X121260040Y-95614192D01*
X121273762Y-95614125D01*
X121313451Y-95614788D01*
G37*
G36*
X121313451Y-96208116D02*
G01*
X121351000Y-96210104D01*
X121397738Y-96214815D01*
X121440672Y-96221881D01*
X121479802Y-96231303D01*
X121515129Y-96243080D01*
X121553938Y-96261115D01*
X121586804Y-96282829D01*
X121617479Y-96312458D01*
X121640620Y-96346788D01*
X121656227Y-96385821D01*
X121663608Y-96423021D01*
X121665530Y-96456659D01*
X121662723Y-96496694D01*
X121654302Y-96533326D01*
X121637382Y-96571763D01*
X121612821Y-96605570D01*
X121585687Y-96630861D01*
X121553107Y-96652415D01*
X121514455Y-96670315D01*
X121469734Y-96684563D01*
X121429586Y-96693330D01*
X121385553Y-96699760D01*
X121337634Y-96703852D01*
X121299146Y-96705386D01*
X121272273Y-96705678D01*
X121232384Y-96705016D01*
X121194655Y-96703028D01*
X121147708Y-96698317D01*
X121104600Y-96691251D01*
X121065330Y-96681829D01*
X121029898Y-96670051D01*
X120991007Y-96652017D01*
X120958114Y-96630303D01*
X120927439Y-96600683D01*
X120904298Y-96566379D01*
X120888691Y-96527391D01*
X120881310Y-96490244D01*
X120879388Y-96456659D01*
X121010412Y-96456659D01*
X121019729Y-96493440D01*
X121026976Y-96504304D01*
X121057859Y-96526812D01*
X121086160Y-96536688D01*
X121123079Y-96544065D01*
X121160140Y-96548134D01*
X121197719Y-96550459D01*
X121240663Y-96551710D01*
X121272273Y-96551949D01*
X121311214Y-96551617D01*
X121352653Y-96550344D01*
X121393705Y-96547650D01*
X121431003Y-96542980D01*
X121452244Y-96538363D01*
X121489002Y-96525085D01*
X121517942Y-96503932D01*
X121533471Y-96469594D01*
X121534506Y-96456659D01*
X121525189Y-96419878D01*
X121517942Y-96409014D01*
X121487059Y-96386506D01*
X121458758Y-96376630D01*
X121421584Y-96369253D01*
X121384406Y-96365184D01*
X121346784Y-96362860D01*
X121303848Y-96361608D01*
X121272273Y-96361369D01*
X121233274Y-96361701D01*
X121191765Y-96362975D01*
X121150631Y-96365668D01*
X121113240Y-96370338D01*
X121091929Y-96374955D01*
X121055334Y-96388197D01*
X121026604Y-96409200D01*
X121011424Y-96443713D01*
X121010412Y-96456659D01*
X120879388Y-96456659D01*
X120882424Y-96416169D01*
X120891532Y-96378727D01*
X120906712Y-96344335D01*
X120927964Y-96312991D01*
X120955287Y-96284697D01*
X120965745Y-96275943D01*
X121002885Y-96252668D01*
X121041103Y-96236950D01*
X121085927Y-96224576D01*
X121126543Y-96217085D01*
X121171388Y-96211734D01*
X121220461Y-96208524D01*
X121260040Y-96207521D01*
X121273762Y-96207454D01*
X121313451Y-96208116D01*
G37*
G36*
X121313451Y-96801445D02*
G01*
X121351000Y-96803432D01*
X121397738Y-96808143D01*
X121440672Y-96815209D01*
X121479802Y-96824631D01*
X121515129Y-96836409D01*
X121553938Y-96854443D01*
X121586804Y-96876158D01*
X121617479Y-96905786D01*
X121640620Y-96940117D01*
X121656227Y-96979150D01*
X121663608Y-97016349D01*
X121665530Y-97049987D01*
X121662723Y-97090022D01*
X121654302Y-97126654D01*
X121637382Y-97165092D01*
X121612821Y-97198898D01*
X121585687Y-97224189D01*
X121553107Y-97245743D01*
X121514455Y-97263644D01*
X121469734Y-97277891D01*
X121429586Y-97286659D01*
X121385553Y-97293089D01*
X121337634Y-97297180D01*
X121299146Y-97298714D01*
X121272273Y-97299007D01*
X121232384Y-97298344D01*
X121194655Y-97296357D01*
X121147708Y-97291646D01*
X121104600Y-97284579D01*
X121065330Y-97275157D01*
X121029898Y-97263380D01*
X120991007Y-97245346D01*
X120958114Y-97223631D01*
X120927439Y-97194011D01*
X120904298Y-97159708D01*
X120888691Y-97120719D01*
X120881310Y-97083572D01*
X120879388Y-97049987D01*
X121010412Y-97049987D01*
X121019729Y-97086768D01*
X121026976Y-97097632D01*
X121057859Y-97120140D01*
X121086160Y-97130016D01*
X121123079Y-97137393D01*
X121160140Y-97141462D01*
X121197719Y-97143787D01*
X121240663Y-97145039D01*
X121272273Y-97145277D01*
X121311214Y-97144946D01*
X121352653Y-97143672D01*
X121393705Y-97140979D01*
X121431003Y-97136308D01*
X121452244Y-97131691D01*
X121489002Y-97118414D01*
X121517942Y-97097260D01*
X121533471Y-97062922D01*
X121534506Y-97049987D01*
X121525189Y-97013207D01*
X121517942Y-97002342D01*
X121487059Y-96979834D01*
X121458758Y-96969959D01*
X121421584Y-96962582D01*
X121384406Y-96958513D01*
X121346784Y-96956188D01*
X121303848Y-96954936D01*
X121272273Y-96954698D01*
X121233274Y-96955029D01*
X121191765Y-96956303D01*
X121150631Y-96958996D01*
X121113240Y-96963667D01*
X121091929Y-96968284D01*
X121055334Y-96981525D01*
X121026604Y-97002529D01*
X121011424Y-97037041D01*
X121010412Y-97049987D01*
X120879388Y-97049987D01*
X120882424Y-97009497D01*
X120891532Y-96972056D01*
X120906712Y-96937663D01*
X120927964Y-96906320D01*
X120955287Y-96878026D01*
X120965745Y-96869272D01*
X121002885Y-96845996D01*
X121041103Y-96830278D01*
X121085927Y-96817904D01*
X121126543Y-96810413D01*
X121171388Y-96805063D01*
X121220461Y-96801852D01*
X121260040Y-96800849D01*
X121273762Y-96800782D01*
X121313451Y-96801445D01*
G37*
G36*
X121313451Y-97394773D02*
G01*
X121351000Y-97396760D01*
X121397738Y-97401471D01*
X121440672Y-97408538D01*
X121479802Y-97417960D01*
X121515129Y-97429737D01*
X121553938Y-97447772D01*
X121586804Y-97469486D01*
X121617479Y-97499115D01*
X121640620Y-97533445D01*
X121656227Y-97572478D01*
X121663608Y-97609677D01*
X121665530Y-97643316D01*
X121662723Y-97683351D01*
X121654302Y-97719983D01*
X121637382Y-97758420D01*
X121612821Y-97792227D01*
X121585687Y-97817518D01*
X121553107Y-97839072D01*
X121514455Y-97856972D01*
X121469734Y-97871220D01*
X121429586Y-97879987D01*
X121385553Y-97886417D01*
X121337634Y-97890509D01*
X121299146Y-97892043D01*
X121272273Y-97892335D01*
X121232384Y-97891673D01*
X121194655Y-97889685D01*
X121147708Y-97884974D01*
X121104600Y-97877908D01*
X121065330Y-97868486D01*
X121029898Y-97856708D01*
X120991007Y-97838674D01*
X120958114Y-97816959D01*
X120927439Y-97787340D01*
X120904298Y-97753036D01*
X120888691Y-97714048D01*
X120881310Y-97676901D01*
X120879388Y-97643316D01*
X121010412Y-97643316D01*
X121019729Y-97680096D01*
X121026976Y-97690961D01*
X121057859Y-97713469D01*
X121086160Y-97723344D01*
X121123079Y-97730722D01*
X121160140Y-97734790D01*
X121197719Y-97737115D01*
X121240663Y-97738367D01*
X121272273Y-97738606D01*
X121311214Y-97738274D01*
X121352653Y-97737000D01*
X121393705Y-97734307D01*
X121431003Y-97729637D01*
X121452244Y-97725019D01*
X121489002Y-97711742D01*
X121517942Y-97690589D01*
X121533471Y-97656251D01*
X121534506Y-97643316D01*
X121525189Y-97606535D01*
X121517942Y-97595671D01*
X121487059Y-97573163D01*
X121458758Y-97563287D01*
X121421584Y-97555910D01*
X121384406Y-97551841D01*
X121346784Y-97549516D01*
X121303848Y-97548264D01*
X121272273Y-97548026D01*
X121233274Y-97548358D01*
X121191765Y-97549631D01*
X121150631Y-97552325D01*
X121113240Y-97556995D01*
X121091929Y-97561612D01*
X121055334Y-97574854D01*
X121026604Y-97595857D01*
X121011424Y-97630369D01*
X121010412Y-97643316D01*
X120879388Y-97643316D01*
X120882424Y-97602825D01*
X120891532Y-97565384D01*
X120906712Y-97530992D01*
X120927964Y-97499648D01*
X120955287Y-97471354D01*
X120965745Y-97462600D01*
X121002885Y-97439324D01*
X121041103Y-97423606D01*
X121085927Y-97411233D01*
X121126543Y-97403742D01*
X121171388Y-97398391D01*
X121220461Y-97395181D01*
X121260040Y-97394177D01*
X121273762Y-97394110D01*
X121313451Y-97394773D01*
G37*
G36*
X121313451Y-97988101D02*
G01*
X121351000Y-97990089D01*
X121397738Y-97994800D01*
X121440672Y-98001866D01*
X121479802Y-98011288D01*
X121515129Y-98023066D01*
X121553938Y-98041100D01*
X121586804Y-98062815D01*
X121617479Y-98092443D01*
X121640620Y-98126774D01*
X121656227Y-98165806D01*
X121663608Y-98203006D01*
X121665530Y-98236644D01*
X121662723Y-98276679D01*
X121654302Y-98313311D01*
X121637382Y-98351749D01*
X121612821Y-98385555D01*
X121585687Y-98410846D01*
X121553107Y-98432400D01*
X121514455Y-98450301D01*
X121469734Y-98464548D01*
X121429586Y-98473316D01*
X121385553Y-98479745D01*
X121337634Y-98483837D01*
X121299146Y-98485371D01*
X121272273Y-98485664D01*
X121232384Y-98485001D01*
X121194655Y-98483014D01*
X121147708Y-98478303D01*
X121104600Y-98471236D01*
X121065330Y-98461814D01*
X121029898Y-98450037D01*
X120991007Y-98432002D01*
X120958114Y-98410288D01*
X120927439Y-98380668D01*
X120904298Y-98346364D01*
X120888691Y-98307376D01*
X120881310Y-98270229D01*
X120879388Y-98236644D01*
X121010412Y-98236644D01*
X121019729Y-98273425D01*
X121026976Y-98284289D01*
X121057859Y-98306797D01*
X121086160Y-98316673D01*
X121123079Y-98324050D01*
X121160140Y-98328119D01*
X121197719Y-98330444D01*
X121240663Y-98331696D01*
X121272273Y-98331934D01*
X121311214Y-98331602D01*
X121352653Y-98330329D01*
X121393705Y-98327635D01*
X121431003Y-98322965D01*
X121452244Y-98318348D01*
X121489002Y-98305071D01*
X121517942Y-98283917D01*
X121533471Y-98249579D01*
X121534506Y-98236644D01*
X121525189Y-98199864D01*
X121517942Y-98188999D01*
X121487059Y-98166491D01*
X121458758Y-98156616D01*
X121421584Y-98149238D01*
X121384406Y-98145170D01*
X121346784Y-98142845D01*
X121303848Y-98141593D01*
X121272273Y-98141354D01*
X121233274Y-98141686D01*
X121191765Y-98142960D01*
X121150631Y-98145653D01*
X121113240Y-98150323D01*
X121091929Y-98154941D01*
X121055334Y-98168182D01*
X121026604Y-98189185D01*
X121011424Y-98223698D01*
X121010412Y-98236644D01*
X120879388Y-98236644D01*
X120882424Y-98196154D01*
X120891532Y-98158712D01*
X120906712Y-98124320D01*
X120927964Y-98092977D01*
X120955287Y-98064682D01*
X120965745Y-98055928D01*
X121002885Y-98032653D01*
X121041103Y-98016935D01*
X121085927Y-98004561D01*
X121126543Y-97997070D01*
X121171388Y-97991719D01*
X121220461Y-97988509D01*
X121260040Y-97987506D01*
X121273762Y-97987439D01*
X121313451Y-97988101D01*
G37*
G36*
X121313451Y-98581430D02*
G01*
X121351000Y-98583417D01*
X121397738Y-98588128D01*
X121440672Y-98595195D01*
X121479802Y-98604617D01*
X121515129Y-98616394D01*
X121553938Y-98634428D01*
X121586804Y-98656143D01*
X121617479Y-98685771D01*
X121640620Y-98720102D01*
X121656227Y-98759135D01*
X121663608Y-98796334D01*
X121665530Y-98829973D01*
X121662723Y-98870007D01*
X121654302Y-98906640D01*
X121637382Y-98945077D01*
X121612821Y-98978883D01*
X121585687Y-99004174D01*
X121553107Y-99025728D01*
X121514455Y-99043629D01*
X121469734Y-99057876D01*
X121429586Y-99066644D01*
X121385553Y-99073074D01*
X121337634Y-99077165D01*
X121299146Y-99078700D01*
X121272273Y-99078992D01*
X121232384Y-99078329D01*
X121194655Y-99076342D01*
X121147708Y-99071631D01*
X121104600Y-99064565D01*
X121065330Y-99055143D01*
X121029898Y-99043365D01*
X120991007Y-99025331D01*
X120958114Y-99003616D01*
X120927439Y-98973997D01*
X120904298Y-98939693D01*
X120888691Y-98900705D01*
X120881310Y-98863558D01*
X120879388Y-98829973D01*
X121010412Y-98829973D01*
X121019729Y-98866753D01*
X121026976Y-98877618D01*
X121057859Y-98900126D01*
X121086160Y-98910001D01*
X121123079Y-98917379D01*
X121160140Y-98921447D01*
X121197719Y-98923772D01*
X121240663Y-98925024D01*
X121272273Y-98925263D01*
X121311214Y-98924931D01*
X121352653Y-98923657D01*
X121393705Y-98920964D01*
X121431003Y-98916293D01*
X121452244Y-98911676D01*
X121489002Y-98898399D01*
X121517942Y-98877245D01*
X121533471Y-98842908D01*
X121534506Y-98829973D01*
X121525189Y-98793192D01*
X121517942Y-98782328D01*
X121487059Y-98759820D01*
X121458758Y-98749944D01*
X121421584Y-98742567D01*
X121384406Y-98738498D01*
X121346784Y-98736173D01*
X121303848Y-98734921D01*
X121272273Y-98734683D01*
X121233274Y-98735014D01*
X121191765Y-98736288D01*
X121150631Y-98738982D01*
X121113240Y-98743652D01*
X121091929Y-98748269D01*
X121055334Y-98761511D01*
X121026604Y-98782514D01*
X121011424Y-98817026D01*
X121010412Y-98829973D01*
X120879388Y-98829973D01*
X120882424Y-98789482D01*
X120891532Y-98752041D01*
X120906712Y-98717648D01*
X120927964Y-98686305D01*
X120955287Y-98658011D01*
X120965745Y-98649257D01*
X121002885Y-98625981D01*
X121041103Y-98610263D01*
X121085927Y-98597890D01*
X121126543Y-98590399D01*
X121171388Y-98585048D01*
X121220461Y-98581837D01*
X121260040Y-98580834D01*
X121273762Y-98580767D01*
X121313451Y-98581430D01*
G37*
G36*
X121313451Y-99174758D02*
G01*
X121351000Y-99176746D01*
X121397738Y-99181457D01*
X121440672Y-99188523D01*
X121479802Y-99197945D01*
X121515129Y-99209723D01*
X121553938Y-99227757D01*
X121586804Y-99249471D01*
X121617479Y-99279100D01*
X121640620Y-99313430D01*
X121656227Y-99352463D01*
X121663608Y-99389663D01*
X121665530Y-99423301D01*
X121662723Y-99463336D01*
X121654302Y-99499968D01*
X121637382Y-99538405D01*
X121612821Y-99572212D01*
X121585687Y-99597503D01*
X121553107Y-99619057D01*
X121514455Y-99636957D01*
X121469734Y-99651205D01*
X121429586Y-99659973D01*
X121385553Y-99666402D01*
X121337634Y-99670494D01*
X121299146Y-99672028D01*
X121272273Y-99672320D01*
X121232384Y-99671658D01*
X121194655Y-99669670D01*
X121147708Y-99664959D01*
X121104600Y-99657893D01*
X121065330Y-99648471D01*
X121029898Y-99636693D01*
X120991007Y-99618659D01*
X120958114Y-99596945D01*
X120927439Y-99567325D01*
X120904298Y-99533021D01*
X120888691Y-99494033D01*
X120881310Y-99456886D01*
X120879388Y-99423301D01*
X121010412Y-99423301D01*
X121019729Y-99460082D01*
X121026976Y-99470946D01*
X121057859Y-99493454D01*
X121086160Y-99503330D01*
X121123079Y-99510707D01*
X121160140Y-99514776D01*
X121197719Y-99517101D01*
X121240663Y-99518352D01*
X121272273Y-99518591D01*
X121311214Y-99518259D01*
X121352653Y-99516986D01*
X121393705Y-99514292D01*
X121431003Y-99509622D01*
X121452244Y-99505005D01*
X121489002Y-99491727D01*
X121517942Y-99470574D01*
X121533471Y-99436236D01*
X121534506Y-99423301D01*
X121525189Y-99386520D01*
X121517942Y-99375656D01*
X121487059Y-99353148D01*
X121458758Y-99343272D01*
X121421584Y-99335895D01*
X121384406Y-99331826D01*
X121346784Y-99329502D01*
X121303848Y-99328250D01*
X121272273Y-99328011D01*
X121233274Y-99328343D01*
X121191765Y-99329617D01*
X121150631Y-99332310D01*
X121113240Y-99336980D01*
X121091929Y-99341597D01*
X121055334Y-99354839D01*
X121026604Y-99375842D01*
X121011424Y-99410355D01*
X121010412Y-99423301D01*
X120879388Y-99423301D01*
X120882424Y-99382811D01*
X120891532Y-99345369D01*
X120906712Y-99310977D01*
X120927964Y-99279633D01*
X120955287Y-99251339D01*
X120965745Y-99242585D01*
X121002885Y-99219310D01*
X121041103Y-99203592D01*
X121085927Y-99191218D01*
X121126543Y-99183727D01*
X121171388Y-99178376D01*
X121220461Y-99175166D01*
X121260040Y-99174163D01*
X121273762Y-99174096D01*
X121313451Y-99174758D01*
G37*
G36*
X121313451Y-99768087D02*
G01*
X121351000Y-99770074D01*
X121397738Y-99774785D01*
X121440672Y-99781851D01*
X121479802Y-99791273D01*
X121515129Y-99803051D01*
X121553938Y-99821085D01*
X121586804Y-99842800D01*
X121617479Y-99872428D01*
X121640620Y-99906759D01*
X121656227Y-99945792D01*
X121663608Y-99982991D01*
X121665530Y-100016629D01*
X121662723Y-100056664D01*
X121654302Y-100093296D01*
X121637382Y-100131734D01*
X121612821Y-100165540D01*
X121585687Y-100190831D01*
X121553107Y-100212385D01*
X121514455Y-100230286D01*
X121469734Y-100244533D01*
X121429586Y-100253301D01*
X121385553Y-100259731D01*
X121337634Y-100263822D01*
X121299146Y-100265356D01*
X121272273Y-100265649D01*
X121232384Y-100264986D01*
X121194655Y-100262999D01*
X121147708Y-100258288D01*
X121104600Y-100251221D01*
X121065330Y-100241799D01*
X121029898Y-100230022D01*
X120991007Y-100211988D01*
X120958114Y-100190273D01*
X120927439Y-100160654D01*
X120904298Y-100126350D01*
X120888691Y-100087361D01*
X120881310Y-100050214D01*
X120879388Y-100016629D01*
X121010412Y-100016629D01*
X121019729Y-100053410D01*
X121026976Y-100064274D01*
X121057859Y-100086782D01*
X121086160Y-100096658D01*
X121123079Y-100104035D01*
X121160140Y-100108104D01*
X121197719Y-100110429D01*
X121240663Y-100111681D01*
X121272273Y-100111919D01*
X121311214Y-100111588D01*
X121352653Y-100110314D01*
X121393705Y-100107621D01*
X121431003Y-100102950D01*
X121452244Y-100098333D01*
X121489002Y-100085056D01*
X121517942Y-100063902D01*
X121533471Y-100029564D01*
X121534506Y-100016629D01*
X121525189Y-99979849D01*
X121517942Y-99968985D01*
X121487059Y-99946476D01*
X121458758Y-99936601D01*
X121421584Y-99929224D01*
X121384406Y-99925155D01*
X121346784Y-99922830D01*
X121303848Y-99921578D01*
X121272273Y-99921340D01*
X121233274Y-99921671D01*
X121191765Y-99922945D01*
X121150631Y-99925638D01*
X121113240Y-99930309D01*
X121091929Y-99934926D01*
X121055334Y-99948167D01*
X121026604Y-99969171D01*
X121011424Y-100003683D01*
X121010412Y-100016629D01*
X120879388Y-100016629D01*
X120882424Y-99976139D01*
X120891532Y-99938698D01*
X120906712Y-99904305D01*
X120927964Y-99872962D01*
X120955287Y-99844668D01*
X120965745Y-99835914D01*
X121002885Y-99812638D01*
X121041103Y-99796920D01*
X121085927Y-99784546D01*
X121126543Y-99777055D01*
X121171388Y-99771705D01*
X121220461Y-99768494D01*
X121260040Y-99767491D01*
X121273762Y-99767424D01*
X121313451Y-99768087D01*
G37*
G36*
X121313451Y-100361415D02*
G01*
X121351000Y-100363402D01*
X121397738Y-100368113D01*
X121440672Y-100375180D01*
X121479802Y-100384602D01*
X121515129Y-100396379D01*
X121553938Y-100414414D01*
X121586804Y-100436128D01*
X121617479Y-100465757D01*
X121640620Y-100500087D01*
X121656227Y-100539120D01*
X121663608Y-100576319D01*
X121665530Y-100609958D01*
X121662723Y-100649993D01*
X121654302Y-100686625D01*
X121637382Y-100725062D01*
X121612821Y-100758869D01*
X121585687Y-100784160D01*
X121553107Y-100805714D01*
X121514455Y-100823614D01*
X121469734Y-100837862D01*
X121429586Y-100846629D01*
X121385553Y-100853059D01*
X121337634Y-100857151D01*
X121299146Y-100858685D01*
X121272273Y-100858977D01*
X121232384Y-100858315D01*
X121194655Y-100856327D01*
X121147708Y-100851616D01*
X121104600Y-100844550D01*
X121065330Y-100835128D01*
X121029898Y-100823350D01*
X120991007Y-100805316D01*
X120958114Y-100783601D01*
X120927439Y-100753982D01*
X120904298Y-100719678D01*
X120888691Y-100680690D01*
X120881310Y-100643543D01*
X120879388Y-100609958D01*
X121010412Y-100609958D01*
X121019729Y-100646738D01*
X121026976Y-100657603D01*
X121057859Y-100680111D01*
X121086160Y-100689986D01*
X121123079Y-100697364D01*
X121160140Y-100701432D01*
X121197719Y-100703757D01*
X121240663Y-100705009D01*
X121272273Y-100705248D01*
X121311214Y-100704916D01*
X121352653Y-100703642D01*
X121393705Y-100700949D01*
X121431003Y-100696279D01*
X121452244Y-100691661D01*
X121489002Y-100678384D01*
X121517942Y-100657231D01*
X121533471Y-100622893D01*
X121534506Y-100609958D01*
X121525189Y-100573177D01*
X121517942Y-100562313D01*
X121487059Y-100539805D01*
X121458758Y-100529929D01*
X121421584Y-100522552D01*
X121384406Y-100518483D01*
X121346784Y-100516158D01*
X121303848Y-100514906D01*
X121272273Y-100514668D01*
X121233274Y-100515000D01*
X121191765Y-100516273D01*
X121150631Y-100518967D01*
X121113240Y-100523637D01*
X121091929Y-100528254D01*
X121055334Y-100541496D01*
X121026604Y-100562499D01*
X121011424Y-100597011D01*
X121010412Y-100609958D01*
X120879388Y-100609958D01*
X120882424Y-100569467D01*
X120891532Y-100532026D01*
X120906712Y-100497634D01*
X120927964Y-100466290D01*
X120955287Y-100437996D01*
X120965745Y-100429242D01*
X121002885Y-100405966D01*
X121041103Y-100390248D01*
X121085927Y-100377875D01*
X121126543Y-100370384D01*
X121171388Y-100365033D01*
X121220461Y-100361823D01*
X121260040Y-100360819D01*
X121273762Y-100360752D01*
X121313451Y-100361415D01*
G37*
D14*
G36*
X125530899Y-101878733D02*
G01*
X125660093Y-101878733D01*
X125660093Y-102228935D01*
X125660323Y-102262567D01*
X125661149Y-102294134D01*
X125663267Y-102325572D01*
X125664901Y-102336881D01*
X125675368Y-102366555D01*
X125695113Y-102392730D01*
X125704295Y-102400625D01*
X125733487Y-102416189D01*
X125764025Y-102423162D01*
X125789597Y-102424664D01*
X125821358Y-102422453D01*
X125852473Y-102413961D01*
X125872572Y-102402020D01*
X125893837Y-102378397D01*
X125905702Y-102348241D01*
X125906072Y-102346187D01*
X125909569Y-102315260D01*
X125911133Y-102283992D01*
X125911760Y-102250390D01*
X125911811Y-102236380D01*
X125911811Y-101878733D01*
X126040849Y-101878733D01*
X126040849Y-102216993D01*
X126040592Y-102251584D01*
X126039819Y-102282851D01*
X126038213Y-102315982D01*
X126035401Y-102348585D01*
X126030303Y-102380928D01*
X126021051Y-102412116D01*
X126006151Y-102442127D01*
X125991684Y-102461887D01*
X125967948Y-102484671D01*
X125941476Y-102502261D01*
X125916464Y-102514309D01*
X125884260Y-102524614D01*
X125850434Y-102530625D01*
X125816515Y-102533373D01*
X125793474Y-102533851D01*
X125760708Y-102533104D01*
X125726395Y-102530344D01*
X125692342Y-102524700D01*
X125660614Y-102515176D01*
X125654509Y-102512603D01*
X125626883Y-102497999D01*
X125600973Y-102479101D01*
X125579754Y-102457234D01*
X125561804Y-102431185D01*
X125548315Y-102401932D01*
X125543617Y-102385736D01*
X125538053Y-102354755D01*
X125534489Y-102322241D01*
X125532402Y-102290354D01*
X125531210Y-102254760D01*
X125530899Y-102222266D01*
X125530899Y-101878733D01*
G37*
G36*
X126459914Y-102523925D02*
G01*
X126337389Y-102523925D01*
X126337389Y-102057091D01*
X126311361Y-102081100D01*
X126283642Y-102102645D01*
X126254233Y-102121725D01*
X126223133Y-102138341D01*
X126190344Y-102152492D01*
X126179038Y-102156661D01*
X126179038Y-102037549D01*
X126209809Y-102025257D01*
X126238901Y-102009583D01*
X126265872Y-101991985D01*
X126283261Y-101979234D01*
X126309201Y-101956784D01*
X126330720Y-101932550D01*
X126347819Y-101906533D01*
X126360498Y-101878733D01*
X126459914Y-101878733D01*
X126459914Y-102523925D01*
G37*
G36*
X122791368Y-102199574D02*
G01*
X122916530Y-102239278D01*
X122906583Y-102271003D01*
X122894774Y-102300071D01*
X122878144Y-102331443D01*
X122858831Y-102358987D01*
X122836835Y-102382704D01*
X122820681Y-102396388D01*
X122794344Y-102413835D01*
X122765465Y-102427671D01*
X122734046Y-102437898D01*
X122700086Y-102444516D01*
X122663585Y-102447524D01*
X122650853Y-102447725D01*
X122619728Y-102446377D01*
X122582811Y-102440903D01*
X122548106Y-102431219D01*
X122515612Y-102417324D01*
X122485329Y-102399219D01*
X122457257Y-102376903D01*
X122441476Y-102361492D01*
X122417885Y-102333000D01*
X122398292Y-102301417D01*
X122382698Y-102266745D01*
X122373101Y-102236783D01*
X122366064Y-102204843D01*
X122361585Y-102170926D01*
X122359666Y-102135032D01*
X122359586Y-102125749D01*
X122360873Y-102087305D01*
X122364733Y-102051071D01*
X122371167Y-102017047D01*
X122380175Y-101985234D01*
X122391756Y-101955630D01*
X122409852Y-101921733D01*
X122431969Y-101891290D01*
X122441941Y-101880080D01*
X122468990Y-101854880D01*
X122498569Y-101833951D01*
X122530677Y-101817294D01*
X122565314Y-101804907D01*
X122602480Y-101796792D01*
X122634035Y-101793375D01*
X122658763Y-101792607D01*
X122694373Y-101794401D01*
X122727825Y-101799786D01*
X122759119Y-101808760D01*
X122788254Y-101821323D01*
X122815232Y-101837476D01*
X122840051Y-101857219D01*
X122849374Y-101866121D01*
X122869807Y-101890277D01*
X122887527Y-101919163D01*
X122900805Y-101948319D01*
X122912005Y-101981097D01*
X122914823Y-101991127D01*
X122787026Y-102010979D01*
X122776328Y-101978729D01*
X122759803Y-101951501D01*
X122739722Y-101931106D01*
X122713152Y-101914417D01*
X122682916Y-101904655D01*
X122652249Y-101901793D01*
X122618400Y-101904953D01*
X122587885Y-101914433D01*
X122560705Y-101930233D01*
X122536859Y-101952354D01*
X122517521Y-101981560D01*
X122505132Y-102013556D01*
X122497880Y-102045766D01*
X122493736Y-102082392D01*
X122492657Y-102116288D01*
X122493721Y-102152161D01*
X122496913Y-102184657D01*
X122503552Y-102219193D01*
X122513256Y-102248866D01*
X122528450Y-102277337D01*
X122536239Y-102287512D01*
X122559667Y-102309836D01*
X122586373Y-102325782D01*
X122616354Y-102335349D01*
X122649612Y-102338538D01*
X122683308Y-102334580D01*
X122713595Y-102322704D01*
X122738171Y-102305038D01*
X122759294Y-102280344D01*
X122774807Y-102251696D01*
X122785817Y-102221123D01*
X122791368Y-102199574D01*
G37*
G36*
X123310314Y-102447725D02*
G01*
X123187789Y-102447725D01*
X123187789Y-101980891D01*
X123161761Y-102004900D01*
X123134042Y-102026445D01*
X123104633Y-102045525D01*
X123073533Y-102062141D01*
X123040744Y-102076292D01*
X123029438Y-102080461D01*
X123029438Y-101961349D01*
X123060209Y-101949057D01*
X123089301Y-101933383D01*
X123116272Y-101915785D01*
X123133661Y-101903034D01*
X123159601Y-101880584D01*
X123181120Y-101856350D01*
X123198219Y-101830333D01*
X123210898Y-101802533D01*
X123310314Y-101802533D01*
X123310314Y-102447725D01*
G37*
G36*
X127527744Y-105943319D02*
G01*
X127561150Y-105945425D01*
X127593054Y-105949625D01*
X127616367Y-105954985D01*
X127646684Y-105966468D01*
X127674475Y-105982073D01*
X127699738Y-106001800D01*
X127712681Y-106014541D01*
X127733755Y-106040054D01*
X127751786Y-106068609D01*
X127766775Y-106100206D01*
X127773788Y-106119075D01*
X127782948Y-106151751D01*
X127788816Y-106183317D01*
X127792681Y-106217658D01*
X127794398Y-106249303D01*
X127794725Y-106271532D01*
X127793783Y-106305295D01*
X127790955Y-106336965D01*
X127785415Y-106370596D01*
X127777414Y-106401493D01*
X127775028Y-106408791D01*
X127763592Y-106438312D01*
X127748104Y-106468907D01*
X127730038Y-106496148D01*
X127709394Y-106520035D01*
X127706632Y-106522785D01*
X127680726Y-106543774D01*
X127652373Y-106559865D01*
X127622945Y-106571912D01*
X127615902Y-106574276D01*
X127583082Y-106582047D01*
X127551186Y-106586005D01*
X127519024Y-106587711D01*
X127501597Y-106587925D01*
X127258565Y-106587925D01*
X127258565Y-106478738D01*
X127387758Y-106478738D01*
X127484072Y-106478738D01*
X127517729Y-106478005D01*
X127550282Y-106474952D01*
X127562239Y-106472534D01*
X127592506Y-106461066D01*
X127614196Y-106445858D01*
X127633040Y-106420849D01*
X127645495Y-106391565D01*
X127648006Y-106383665D01*
X127655512Y-106350108D01*
X127659335Y-106317145D01*
X127660983Y-106283683D01*
X127661189Y-106265484D01*
X127660365Y-106230345D01*
X127657469Y-106195982D01*
X127651804Y-106164218D01*
X127648006Y-106150869D01*
X127635680Y-106121275D01*
X127617133Y-106094381D01*
X127611404Y-106088521D01*
X127584767Y-106069677D01*
X127553948Y-106058631D01*
X127551693Y-106058123D01*
X127518135Y-106053882D01*
X127486059Y-106052410D01*
X127450647Y-106051925D01*
X127445763Y-106051919D01*
X127387758Y-106051919D01*
X127387758Y-106478738D01*
X127258565Y-106478738D01*
X127258565Y-105942733D01*
X127494618Y-105942733D01*
X127527744Y-105943319D01*
G37*
G36*
X127869171Y-106404758D02*
G01*
X127987818Y-106389404D01*
X127994017Y-106419889D01*
X128007156Y-106449018D01*
X128018371Y-106463229D01*
X128043953Y-106481486D01*
X128074169Y-106488565D01*
X128078548Y-106488664D01*
X128109375Y-106483113D01*
X128135630Y-106466459D01*
X128142291Y-106459662D01*
X128159162Y-106432744D01*
X128167101Y-106401944D01*
X128168347Y-106381339D01*
X128164836Y-106349147D01*
X128153107Y-106320377D01*
X128143377Y-106307514D01*
X128117728Y-106287921D01*
X128087307Y-106280324D01*
X128082890Y-106280218D01*
X128051670Y-106283444D01*
X128026591Y-106289368D01*
X128040084Y-106190883D01*
X128071508Y-106189134D01*
X128101414Y-106180356D01*
X128115925Y-106171341D01*
X128135584Y-106147147D01*
X128142136Y-106116128D01*
X128135356Y-106085529D01*
X128122905Y-106069445D01*
X128094031Y-106054383D01*
X128071879Y-106051919D01*
X128041130Y-106057653D01*
X128018216Y-106072236D01*
X127999554Y-106098955D01*
X127991230Y-106131327D01*
X127878321Y-106113491D01*
X127885896Y-106082055D01*
X127896529Y-106051557D01*
X127910918Y-106023397D01*
X127913838Y-106018884D01*
X127934274Y-105994384D01*
X127959988Y-105974159D01*
X127980063Y-105963050D01*
X128010577Y-105951483D01*
X128043473Y-105944717D01*
X128075446Y-105942733D01*
X128108036Y-105944712D01*
X128142873Y-105952024D01*
X128174282Y-105964724D01*
X128202262Y-105982813D01*
X128220149Y-105999032D01*
X128241891Y-106025899D01*
X128256517Y-106054680D01*
X128264028Y-106085375D01*
X128265126Y-106103255D01*
X128260725Y-106137690D01*
X128247522Y-106168933D01*
X128225518Y-106196985D01*
X128199651Y-106218490D01*
X128173155Y-106234620D01*
X128205319Y-106245104D01*
X128233182Y-106261434D01*
X128256743Y-106283611D01*
X128260939Y-106288748D01*
X128278359Y-106316631D01*
X128289328Y-106347938D01*
X128293683Y-106379041D01*
X128293974Y-106390024D01*
X128291809Y-106421467D01*
X128283812Y-106455890D01*
X128269922Y-106487879D01*
X128250139Y-106517434D01*
X128232401Y-106537054D01*
X128208306Y-106557715D01*
X128177508Y-106576417D01*
X128143816Y-106589301D01*
X128112633Y-106595713D01*
X128079323Y-106597851D01*
X128047848Y-106595975D01*
X128013745Y-106589045D01*
X127982462Y-106577010D01*
X127954000Y-106559868D01*
X127935396Y-106544498D01*
X127912719Y-106519523D01*
X127894628Y-106491415D01*
X127881125Y-106460176D01*
X127872207Y-106425805D01*
X127869171Y-106404758D01*
G37*
G36*
X131428490Y-101701543D02*
G01*
X131461013Y-101703375D01*
X131493967Y-101707056D01*
X131525048Y-101713299D01*
X131540911Y-101718303D01*
X131570700Y-101733453D01*
X131596090Y-101755016D01*
X131615356Y-101780186D01*
X131630078Y-101809263D01*
X131639347Y-101840854D01*
X131643164Y-101874960D01*
X131643273Y-101882083D01*
X131640627Y-101916863D01*
X131632688Y-101948463D01*
X131619456Y-101976884D01*
X131600932Y-102002126D01*
X131577212Y-102023596D01*
X131548239Y-102040705D01*
X131518577Y-102052097D01*
X131484893Y-102060150D01*
X131474530Y-102061837D01*
X131501579Y-102079359D01*
X131527115Y-102099769D01*
X131543547Y-102115965D01*
X131564550Y-102141542D01*
X131582633Y-102166958D01*
X131600395Y-102193904D01*
X131617062Y-102220498D01*
X131695229Y-102346125D01*
X131540756Y-102346125D01*
X131447389Y-102204213D01*
X131429826Y-102178559D01*
X131409853Y-102150308D01*
X131390421Y-102124563D01*
X131379303Y-102111622D01*
X131354347Y-102091590D01*
X131340529Y-102085256D01*
X131309891Y-102079487D01*
X131278303Y-102078129D01*
X131275545Y-102078122D01*
X131249334Y-102078122D01*
X131249334Y-102346125D01*
X131120295Y-102346125D01*
X131120295Y-101968935D01*
X131249334Y-101968935D01*
X131344872Y-101968935D01*
X131377256Y-101968668D01*
X131408836Y-101967681D01*
X131442363Y-101965009D01*
X131460882Y-101961336D01*
X131487892Y-101945468D01*
X131497019Y-101934815D01*
X131508915Y-101904539D01*
X131510202Y-101887821D01*
X131504755Y-101856104D01*
X131492987Y-101836795D01*
X131467513Y-101818804D01*
X131444287Y-101812290D01*
X131412919Y-101810662D01*
X131381473Y-101810223D01*
X131350145Y-101810119D01*
X131249334Y-101810119D01*
X131249334Y-101968935D01*
X131120295Y-101968935D01*
X131120295Y-101700933D01*
X131392020Y-101700933D01*
X131428490Y-101701543D01*
G37*
G36*
X132047914Y-102346125D02*
G01*
X131925389Y-102346125D01*
X131925389Y-101879291D01*
X131899361Y-101903300D01*
X131871642Y-101924845D01*
X131842233Y-101943925D01*
X131811133Y-101960541D01*
X131778344Y-101974692D01*
X131767038Y-101978861D01*
X131767038Y-101859749D01*
X131797809Y-101847457D01*
X131826901Y-101831783D01*
X131853872Y-101814185D01*
X131871261Y-101801434D01*
X131897201Y-101778984D01*
X131918720Y-101754750D01*
X131935819Y-101728733D01*
X131948498Y-101700933D01*
X132047914Y-101700933D01*
X132047914Y-102346125D01*
G37*
G36*
X131541968Y-98338774D02*
G01*
X131667130Y-98378478D01*
X131657183Y-98410203D01*
X131645374Y-98439271D01*
X131628744Y-98470643D01*
X131609431Y-98498187D01*
X131587435Y-98521904D01*
X131571281Y-98535588D01*
X131544944Y-98553035D01*
X131516065Y-98566871D01*
X131484646Y-98577098D01*
X131450686Y-98583716D01*
X131414185Y-98586724D01*
X131401453Y-98586925D01*
X131370328Y-98585577D01*
X131333411Y-98580103D01*
X131298706Y-98570419D01*
X131266212Y-98556524D01*
X131235929Y-98538419D01*
X131207857Y-98516103D01*
X131192076Y-98500692D01*
X131168485Y-98472200D01*
X131148892Y-98440617D01*
X131133298Y-98405945D01*
X131123701Y-98375983D01*
X131116664Y-98344043D01*
X131112185Y-98310126D01*
X131110266Y-98274232D01*
X131110186Y-98264949D01*
X131111473Y-98226505D01*
X131115333Y-98190271D01*
X131121767Y-98156247D01*
X131130775Y-98124434D01*
X131142356Y-98094830D01*
X131160452Y-98060933D01*
X131182569Y-98030490D01*
X131192541Y-98019280D01*
X131219590Y-97994080D01*
X131249169Y-97973151D01*
X131281277Y-97956494D01*
X131315914Y-97944107D01*
X131353080Y-97935992D01*
X131384635Y-97932575D01*
X131409363Y-97931807D01*
X131444973Y-97933601D01*
X131478425Y-97938986D01*
X131509719Y-97947960D01*
X131538854Y-97960523D01*
X131565832Y-97976676D01*
X131590651Y-97996419D01*
X131599974Y-98005321D01*
X131620407Y-98029477D01*
X131638127Y-98058363D01*
X131651405Y-98087519D01*
X131662605Y-98120297D01*
X131665423Y-98130327D01*
X131537626Y-98150179D01*
X131526928Y-98117929D01*
X131510403Y-98090701D01*
X131490322Y-98070306D01*
X131463752Y-98053617D01*
X131433516Y-98043855D01*
X131402849Y-98040993D01*
X131369000Y-98044153D01*
X131338485Y-98053633D01*
X131311305Y-98069433D01*
X131287459Y-98091554D01*
X131268121Y-98120760D01*
X131255732Y-98152756D01*
X131248480Y-98184966D01*
X131244336Y-98221592D01*
X131243257Y-98255488D01*
X131244321Y-98291361D01*
X131247513Y-98323857D01*
X131254152Y-98358393D01*
X131263856Y-98388066D01*
X131279050Y-98416537D01*
X131286839Y-98426712D01*
X131310267Y-98449036D01*
X131336973Y-98464982D01*
X131366954Y-98474549D01*
X131400212Y-98477738D01*
X131433908Y-98473780D01*
X131464195Y-98461904D01*
X131488771Y-98444238D01*
X131509894Y-98419544D01*
X131525407Y-98390896D01*
X131536417Y-98360323D01*
X131541968Y-98338774D01*
G37*
G36*
X132161260Y-98467812D02*
G01*
X132161260Y-98586925D01*
X131731494Y-98586925D01*
X131736728Y-98555324D01*
X131745452Y-98524577D01*
X131757666Y-98494682D01*
X131773369Y-98465641D01*
X131791894Y-98438746D01*
X131812959Y-98412847D01*
X131834170Y-98389256D01*
X131858706Y-98363841D01*
X131886566Y-98336600D01*
X131911248Y-98313493D01*
X131935610Y-98290759D01*
X131960706Y-98266666D01*
X131984279Y-98242954D01*
X132005558Y-98219425D01*
X132012990Y-98209735D01*
X132028395Y-98181600D01*
X132037060Y-98151416D01*
X132038270Y-98135290D01*
X132034055Y-98103327D01*
X132018913Y-98075594D01*
X132016247Y-98072787D01*
X131988119Y-98055724D01*
X131955450Y-98050919D01*
X131922866Y-98055963D01*
X131895773Y-98072461D01*
X131894343Y-98073873D01*
X131877306Y-98102072D01*
X131869712Y-98134249D01*
X131868132Y-98150179D01*
X131745917Y-98138082D01*
X131750450Y-98106720D01*
X131758898Y-98072914D01*
X131770628Y-98043285D01*
X131788462Y-98013997D01*
X131810763Y-97990393D01*
X131814314Y-97987485D01*
X131840928Y-97969658D01*
X131870289Y-97956209D01*
X131902395Y-97947139D01*
X131937248Y-97942447D01*
X131958396Y-97941733D01*
X131992451Y-97943521D01*
X132023660Y-97948886D01*
X132056472Y-97959667D01*
X132085411Y-97975315D01*
X132107132Y-97992603D01*
X132128223Y-98015987D01*
X132145983Y-98045636D01*
X132156978Y-98078407D01*
X132161048Y-98109642D01*
X132161260Y-98119005D01*
X132159079Y-98150659D01*
X132152536Y-98181179D01*
X132145750Y-98200895D01*
X132131588Y-98230520D01*
X132114161Y-98258635D01*
X132096740Y-98282319D01*
X132074974Y-98306979D01*
X132052065Y-98330055D01*
X132026964Y-98353862D01*
X132016402Y-98363589D01*
X131993058Y-98385035D01*
X131969020Y-98407636D01*
X131946169Y-98430405D01*
X131942887Y-98434002D01*
X131923637Y-98458491D01*
X131917762Y-98467812D01*
X132161260Y-98467812D01*
G37*
G36*
X130361690Y-107060943D02*
G01*
X130394213Y-107062775D01*
X130427167Y-107066456D01*
X130458248Y-107072699D01*
X130474111Y-107077703D01*
X130503900Y-107092853D01*
X130529290Y-107114416D01*
X130548556Y-107139586D01*
X130563278Y-107168663D01*
X130572547Y-107200254D01*
X130576364Y-107234360D01*
X130576473Y-107241483D01*
X130573827Y-107276263D01*
X130565888Y-107307863D01*
X130552656Y-107336284D01*
X130534132Y-107361526D01*
X130510412Y-107382996D01*
X130481439Y-107400105D01*
X130451777Y-107411497D01*
X130418093Y-107419550D01*
X130407730Y-107421237D01*
X130434779Y-107438759D01*
X130460315Y-107459169D01*
X130476747Y-107475365D01*
X130497750Y-107500942D01*
X130515833Y-107526358D01*
X130533595Y-107553304D01*
X130550262Y-107579898D01*
X130628429Y-107705525D01*
X130473956Y-107705525D01*
X130380589Y-107563613D01*
X130363026Y-107537959D01*
X130343053Y-107509708D01*
X130323621Y-107483963D01*
X130312503Y-107471022D01*
X130287547Y-107450990D01*
X130273729Y-107444656D01*
X130243091Y-107438887D01*
X130211503Y-107437529D01*
X130208745Y-107437522D01*
X130182534Y-107437522D01*
X130182534Y-107705525D01*
X130053495Y-107705525D01*
X130053495Y-107328335D01*
X130182534Y-107328335D01*
X130278072Y-107328335D01*
X130310456Y-107328068D01*
X130342036Y-107327081D01*
X130375563Y-107324409D01*
X130394082Y-107320736D01*
X130421092Y-107304868D01*
X130430219Y-107294215D01*
X130442115Y-107263939D01*
X130443402Y-107247221D01*
X130437955Y-107215504D01*
X130426187Y-107196195D01*
X130400713Y-107178204D01*
X130377487Y-107171690D01*
X130346119Y-107170062D01*
X130314673Y-107169623D01*
X130283345Y-107169519D01*
X130182534Y-107169519D01*
X130182534Y-107328335D01*
X130053495Y-107328335D01*
X130053495Y-107060333D01*
X130325220Y-107060333D01*
X130361690Y-107060943D01*
G37*
G36*
X130663171Y-107522358D02*
G01*
X130781818Y-107507004D01*
X130788017Y-107537489D01*
X130801156Y-107566618D01*
X130812371Y-107580829D01*
X130837953Y-107599086D01*
X130868169Y-107606165D01*
X130872548Y-107606264D01*
X130903375Y-107600713D01*
X130929630Y-107584059D01*
X130936291Y-107577262D01*
X130953162Y-107550344D01*
X130961101Y-107519544D01*
X130962347Y-107498939D01*
X130958836Y-107466747D01*
X130947107Y-107437977D01*
X130937377Y-107425114D01*
X130911728Y-107405521D01*
X130881307Y-107397924D01*
X130876890Y-107397818D01*
X130845670Y-107401044D01*
X130820591Y-107406968D01*
X130834084Y-107308483D01*
X130865508Y-107306734D01*
X130895414Y-107297956D01*
X130909925Y-107288941D01*
X130929584Y-107264747D01*
X130936136Y-107233728D01*
X130929356Y-107203129D01*
X130916905Y-107187045D01*
X130888031Y-107171983D01*
X130865879Y-107169519D01*
X130835130Y-107175253D01*
X130812216Y-107189836D01*
X130793554Y-107216555D01*
X130785230Y-107248927D01*
X130672321Y-107231091D01*
X130679896Y-107199655D01*
X130690529Y-107169157D01*
X130704918Y-107140997D01*
X130707838Y-107136484D01*
X130728274Y-107111984D01*
X130753988Y-107091759D01*
X130774063Y-107080650D01*
X130804577Y-107069083D01*
X130837473Y-107062317D01*
X130869446Y-107060333D01*
X130902036Y-107062312D01*
X130936873Y-107069624D01*
X130968282Y-107082324D01*
X130996262Y-107100413D01*
X131014149Y-107116632D01*
X131035891Y-107143499D01*
X131050517Y-107172280D01*
X131058028Y-107202975D01*
X131059126Y-107220855D01*
X131054725Y-107255290D01*
X131041522Y-107286533D01*
X131019518Y-107314585D01*
X130993651Y-107336090D01*
X130967155Y-107352220D01*
X130999319Y-107362704D01*
X131027182Y-107379034D01*
X131050743Y-107401211D01*
X131054939Y-107406348D01*
X131072359Y-107434231D01*
X131083328Y-107465538D01*
X131087683Y-107496641D01*
X131087974Y-107507624D01*
X131085809Y-107539067D01*
X131077812Y-107573490D01*
X131063922Y-107605479D01*
X131044139Y-107635034D01*
X131026401Y-107654654D01*
X131002306Y-107675315D01*
X130971508Y-107694017D01*
X130937816Y-107706901D01*
X130906633Y-107713313D01*
X130873323Y-107715451D01*
X130841848Y-107713575D01*
X130807745Y-107706645D01*
X130776462Y-107694610D01*
X130748000Y-107677468D01*
X130729396Y-107662098D01*
X130706719Y-107637123D01*
X130688628Y-107609015D01*
X130675125Y-107577776D01*
X130666207Y-107543405D01*
X130663171Y-107522358D01*
G37*
G36*
X123249690Y-107060943D02*
G01*
X123282213Y-107062775D01*
X123315167Y-107066456D01*
X123346248Y-107072699D01*
X123362111Y-107077703D01*
X123391900Y-107092853D01*
X123417290Y-107114416D01*
X123436556Y-107139586D01*
X123451278Y-107168663D01*
X123460547Y-107200254D01*
X123464364Y-107234360D01*
X123464473Y-107241483D01*
X123461827Y-107276263D01*
X123453888Y-107307863D01*
X123440656Y-107336284D01*
X123422132Y-107361526D01*
X123398412Y-107382996D01*
X123369439Y-107400105D01*
X123339777Y-107411497D01*
X123306093Y-107419550D01*
X123295730Y-107421237D01*
X123322779Y-107438759D01*
X123348315Y-107459169D01*
X123364747Y-107475365D01*
X123385750Y-107500942D01*
X123403833Y-107526358D01*
X123421595Y-107553304D01*
X123438262Y-107579898D01*
X123516429Y-107705525D01*
X123361956Y-107705525D01*
X123268589Y-107563613D01*
X123251026Y-107537959D01*
X123231053Y-107509708D01*
X123211621Y-107483963D01*
X123200503Y-107471022D01*
X123175547Y-107450990D01*
X123161729Y-107444656D01*
X123131091Y-107438887D01*
X123099503Y-107437529D01*
X123096745Y-107437522D01*
X123070534Y-107437522D01*
X123070534Y-107705525D01*
X122941495Y-107705525D01*
X122941495Y-107328335D01*
X123070534Y-107328335D01*
X123166072Y-107328335D01*
X123198456Y-107328068D01*
X123230036Y-107327081D01*
X123263563Y-107324409D01*
X123282082Y-107320736D01*
X123309092Y-107304868D01*
X123318219Y-107294215D01*
X123330115Y-107263939D01*
X123331402Y-107247221D01*
X123325955Y-107215504D01*
X123314187Y-107196195D01*
X123288713Y-107178204D01*
X123265487Y-107171690D01*
X123234119Y-107170062D01*
X123202673Y-107169623D01*
X123171345Y-107169519D01*
X123070534Y-107169519D01*
X123070534Y-107328335D01*
X122941495Y-107328335D01*
X122941495Y-107060333D01*
X123213220Y-107060333D01*
X123249690Y-107060943D01*
G37*
G36*
X123969460Y-107586412D02*
G01*
X123969460Y-107705525D01*
X123539694Y-107705525D01*
X123544928Y-107673924D01*
X123553652Y-107643177D01*
X123565866Y-107613282D01*
X123581569Y-107584241D01*
X123600094Y-107557346D01*
X123621159Y-107531447D01*
X123642370Y-107507856D01*
X123666906Y-107482441D01*
X123694766Y-107455200D01*
X123719448Y-107432093D01*
X123743810Y-107409359D01*
X123768906Y-107385266D01*
X123792479Y-107361554D01*
X123813758Y-107338025D01*
X123821190Y-107328335D01*
X123836595Y-107300200D01*
X123845260Y-107270016D01*
X123846470Y-107253890D01*
X123842255Y-107221927D01*
X123827113Y-107194194D01*
X123824447Y-107191387D01*
X123796319Y-107174324D01*
X123763650Y-107169519D01*
X123731066Y-107174563D01*
X123703973Y-107191061D01*
X123702543Y-107192473D01*
X123685506Y-107220672D01*
X123677912Y-107252849D01*
X123676332Y-107268779D01*
X123554117Y-107256682D01*
X123558650Y-107225320D01*
X123567098Y-107191514D01*
X123578828Y-107161885D01*
X123596662Y-107132597D01*
X123618963Y-107108993D01*
X123622514Y-107106085D01*
X123649128Y-107088258D01*
X123678489Y-107074809D01*
X123710595Y-107065739D01*
X123745448Y-107061047D01*
X123766596Y-107060333D01*
X123800651Y-107062121D01*
X123831860Y-107067486D01*
X123864672Y-107078267D01*
X123893611Y-107093915D01*
X123915332Y-107111203D01*
X123936423Y-107134587D01*
X123954183Y-107164236D01*
X123965178Y-107197007D01*
X123969248Y-107228242D01*
X123969460Y-107237605D01*
X123967279Y-107269259D01*
X123960736Y-107299779D01*
X123953950Y-107319495D01*
X123939788Y-107349120D01*
X123922361Y-107377235D01*
X123904940Y-107400919D01*
X123883174Y-107425579D01*
X123860265Y-107448655D01*
X123835164Y-107472462D01*
X123824602Y-107482189D01*
X123801258Y-107503635D01*
X123777220Y-107526236D01*
X123754369Y-107549005D01*
X123751087Y-107552602D01*
X123731837Y-107577091D01*
X123725962Y-107586412D01*
X123969460Y-107586412D01*
G37*
G36*
X126003744Y-105943319D02*
G01*
X126037150Y-105945425D01*
X126069054Y-105949625D01*
X126092367Y-105954985D01*
X126122684Y-105966468D01*
X126150475Y-105982073D01*
X126175738Y-106001800D01*
X126188681Y-106014541D01*
X126209755Y-106040054D01*
X126227786Y-106068609D01*
X126242775Y-106100206D01*
X126249788Y-106119075D01*
X126258948Y-106151751D01*
X126264816Y-106183317D01*
X126268681Y-106217658D01*
X126270398Y-106249303D01*
X126270725Y-106271532D01*
X126269783Y-106305295D01*
X126266955Y-106336965D01*
X126261415Y-106370596D01*
X126253414Y-106401493D01*
X126251028Y-106408791D01*
X126239592Y-106438312D01*
X126224104Y-106468907D01*
X126206038Y-106496148D01*
X126185394Y-106520035D01*
X126182632Y-106522785D01*
X126156726Y-106543774D01*
X126128373Y-106559865D01*
X126098945Y-106571912D01*
X126091902Y-106574276D01*
X126059082Y-106582047D01*
X126027186Y-106586005D01*
X125995024Y-106587711D01*
X125977597Y-106587925D01*
X125734565Y-106587925D01*
X125734565Y-106478738D01*
X125863758Y-106478738D01*
X125960072Y-106478738D01*
X125993729Y-106478005D01*
X126026282Y-106474952D01*
X126038239Y-106472534D01*
X126068506Y-106461066D01*
X126090196Y-106445858D01*
X126109040Y-106420849D01*
X126121495Y-106391565D01*
X126124006Y-106383665D01*
X126131512Y-106350108D01*
X126135335Y-106317145D01*
X126136983Y-106283683D01*
X126137189Y-106265484D01*
X126136365Y-106230345D01*
X126133469Y-106195982D01*
X126127804Y-106164218D01*
X126124006Y-106150869D01*
X126111680Y-106121275D01*
X126093133Y-106094381D01*
X126087404Y-106088521D01*
X126060767Y-106069677D01*
X126029948Y-106058631D01*
X126027693Y-106058123D01*
X125994135Y-106053882D01*
X125962059Y-106052410D01*
X125926647Y-106051925D01*
X125921763Y-106051919D01*
X125863758Y-106051919D01*
X125863758Y-106478738D01*
X125734565Y-106478738D01*
X125734565Y-105942733D01*
X125970618Y-105942733D01*
X126003744Y-105943319D01*
G37*
G36*
X126763460Y-106468812D02*
G01*
X126763460Y-106587925D01*
X126333694Y-106587925D01*
X126338928Y-106556324D01*
X126347652Y-106525577D01*
X126359866Y-106495682D01*
X126375569Y-106466641D01*
X126394094Y-106439746D01*
X126415159Y-106413847D01*
X126436370Y-106390256D01*
X126460906Y-106364841D01*
X126488766Y-106337600D01*
X126513448Y-106314493D01*
X126537810Y-106291759D01*
X126562906Y-106267666D01*
X126586479Y-106243954D01*
X126607758Y-106220425D01*
X126615190Y-106210735D01*
X126630595Y-106182600D01*
X126639260Y-106152416D01*
X126640470Y-106136290D01*
X126636255Y-106104327D01*
X126621113Y-106076594D01*
X126618447Y-106073787D01*
X126590319Y-106056724D01*
X126557650Y-106051919D01*
X126525066Y-106056963D01*
X126497973Y-106073461D01*
X126496543Y-106074873D01*
X126479506Y-106103072D01*
X126471912Y-106135249D01*
X126470332Y-106151179D01*
X126348117Y-106139082D01*
X126352650Y-106107720D01*
X126361098Y-106073914D01*
X126372828Y-106044285D01*
X126390662Y-106014997D01*
X126412963Y-105991393D01*
X126416514Y-105988485D01*
X126443128Y-105970658D01*
X126472489Y-105957209D01*
X126504595Y-105948139D01*
X126539448Y-105943447D01*
X126560596Y-105942733D01*
X126594651Y-105944521D01*
X126625860Y-105949886D01*
X126658672Y-105960667D01*
X126687611Y-105976315D01*
X126709332Y-105993603D01*
X126730423Y-106016987D01*
X126748183Y-106046636D01*
X126759178Y-106079407D01*
X126763248Y-106110642D01*
X126763460Y-106120005D01*
X126761279Y-106151659D01*
X126754736Y-106182179D01*
X126747950Y-106201895D01*
X126733788Y-106231520D01*
X126716361Y-106259635D01*
X126698940Y-106283319D01*
X126677174Y-106307979D01*
X126654265Y-106331055D01*
X126629164Y-106354862D01*
X126618602Y-106364589D01*
X126595258Y-106386035D01*
X126571220Y-106408636D01*
X126548369Y-106431405D01*
X126545087Y-106435002D01*
X126525837Y-106459491D01*
X126519962Y-106468812D01*
X126763460Y-106468812D01*
G37*
G36*
X123057344Y-98780519D02*
G01*
X123090750Y-98782625D01*
X123122654Y-98786825D01*
X123145967Y-98792185D01*
X123176284Y-98803668D01*
X123204075Y-98819273D01*
X123229338Y-98839000D01*
X123242281Y-98851741D01*
X123263355Y-98877254D01*
X123281386Y-98905809D01*
X123296375Y-98937406D01*
X123303388Y-98956275D01*
X123312548Y-98988951D01*
X123318416Y-99020517D01*
X123322281Y-99054858D01*
X123323998Y-99086503D01*
X123324325Y-99108732D01*
X123323383Y-99142495D01*
X123320555Y-99174165D01*
X123315015Y-99207796D01*
X123307014Y-99238693D01*
X123304628Y-99245991D01*
X123293192Y-99275512D01*
X123277704Y-99306107D01*
X123259638Y-99333348D01*
X123238994Y-99357235D01*
X123236232Y-99359985D01*
X123210326Y-99380974D01*
X123181973Y-99397065D01*
X123152545Y-99409112D01*
X123145502Y-99411476D01*
X123112682Y-99419247D01*
X123080786Y-99423205D01*
X123048624Y-99424911D01*
X123031197Y-99425125D01*
X122788165Y-99425125D01*
X122788165Y-99315938D01*
X122917358Y-99315938D01*
X123013672Y-99315938D01*
X123047329Y-99315205D01*
X123079882Y-99312152D01*
X123091839Y-99309734D01*
X123122106Y-99298266D01*
X123143796Y-99283058D01*
X123162640Y-99258049D01*
X123175095Y-99228765D01*
X123177606Y-99220865D01*
X123185112Y-99187308D01*
X123188935Y-99154345D01*
X123190583Y-99120883D01*
X123190789Y-99102684D01*
X123189965Y-99067545D01*
X123187069Y-99033182D01*
X123181404Y-99001418D01*
X123177606Y-98988069D01*
X123165280Y-98958475D01*
X123146733Y-98931581D01*
X123141004Y-98925721D01*
X123114367Y-98906877D01*
X123083548Y-98895831D01*
X123081293Y-98895323D01*
X123047735Y-98891082D01*
X123015659Y-98889610D01*
X122980247Y-98889125D01*
X122975363Y-98889119D01*
X122917358Y-98889119D01*
X122917358Y-99315938D01*
X122788165Y-99315938D01*
X122788165Y-98779933D01*
X123024218Y-98779933D01*
X123057344Y-98780519D01*
G37*
G36*
X123716714Y-99425125D02*
G01*
X123594189Y-99425125D01*
X123594189Y-98958291D01*
X123568161Y-98982300D01*
X123540442Y-99003845D01*
X123511033Y-99022925D01*
X123479933Y-99039541D01*
X123447144Y-99053692D01*
X123435838Y-99057861D01*
X123435838Y-98938749D01*
X123466609Y-98926457D01*
X123495701Y-98910783D01*
X123522672Y-98893185D01*
X123540061Y-98880434D01*
X123566001Y-98857984D01*
X123587520Y-98833750D01*
X123604619Y-98807733D01*
X123617298Y-98779933D01*
X123716714Y-98779933D01*
X123716714Y-99425125D01*
G37*
D15*
%TO.C,U1*%
X125440000Y-103276400D02*
X125440000Y-102476400D01*
X125440000Y-103276400D02*
X125440000Y-104076400D01*
X128560000Y-103276400D02*
X128560000Y-102476400D01*
X128560000Y-103276400D02*
X128560000Y-104076400D01*
X125490000Y-104576400D02*
X125160000Y-104816400D01*
X125160000Y-104336400D01*
X125490000Y-104576400D01*
G36*
X125490000Y-104576400D02*
G01*
X125160000Y-104816400D01*
X125160000Y-104336400D01*
X125490000Y-104576400D01*
G37*
D16*
%TO.C,G\u002A\u002A\u002A*%
G36*
X128357515Y-92878486D02*
G01*
X128362437Y-92879999D01*
X128375533Y-92886403D01*
X128387931Y-92895342D01*
X128396784Y-92904472D01*
X128399401Y-92910413D01*
X128395024Y-92912510D01*
X128383210Y-92912612D01*
X128373044Y-92911637D01*
X128357796Y-92910058D01*
X128349187Y-92910730D01*
X128344361Y-92914448D01*
X128341128Y-92920545D01*
X128338558Y-92933239D01*
X128344400Y-92942399D01*
X128359018Y-92948453D01*
X128366041Y-92949878D01*
X128378666Y-92952865D01*
X128386631Y-92956336D01*
X128387506Y-92957214D01*
X128386158Y-92962521D01*
X128377047Y-92967767D01*
X128361986Y-92972167D01*
X128347647Y-92974466D01*
X128333001Y-92975380D01*
X128323208Y-92972893D01*
X128313689Y-92965412D01*
X128309408Y-92961148D01*
X128293839Y-92945290D01*
X128158161Y-92941637D01*
X128116654Y-92940498D01*
X128072552Y-92939253D01*
X128028454Y-92937978D01*
X127986959Y-92936747D01*
X127950670Y-92935636D01*
X127930012Y-92934980D01*
X127837542Y-92931978D01*
X127834475Y-92919757D01*
X127833874Y-92907575D01*
X127836252Y-92899877D01*
X127838185Y-92897766D01*
X127841571Y-92896016D01*
X127847147Y-92894619D01*
X127855652Y-92893565D01*
X127867821Y-92892847D01*
X127884391Y-92892455D01*
X127906100Y-92892382D01*
X127933684Y-92892617D01*
X127967880Y-92893154D01*
X128009425Y-92893983D01*
X128059056Y-92895096D01*
X128117510Y-92896485D01*
X128120913Y-92896567D01*
X128296168Y-92900801D01*
X128321831Y-92887795D01*
X128337388Y-92880530D01*
X128348153Y-92877644D01*
X128357515Y-92878486D01*
G37*
G36*
X127975978Y-92009620D02*
G01*
X127974047Y-92015511D01*
X127963143Y-92024759D01*
X127957661Y-92028515D01*
X127944061Y-92040499D01*
X127938398Y-92052426D01*
X127941000Y-92062921D01*
X127948062Y-92068760D01*
X127956031Y-92070947D01*
X127965365Y-92068029D01*
X127975585Y-92061726D01*
X127987159Y-92054373D01*
X127995434Y-92050041D01*
X127997188Y-92049552D01*
X128000948Y-92053105D01*
X127999688Y-92062390D01*
X127993995Y-92075343D01*
X127986440Y-92087243D01*
X127976979Y-92099189D01*
X127968744Y-92105080D01*
X127957898Y-92107022D01*
X127950100Y-92107170D01*
X127928194Y-92107170D01*
X127764532Y-92268020D01*
X127731658Y-92300249D01*
X127700821Y-92330324D01*
X127672706Y-92357589D01*
X127647994Y-92381391D01*
X127627367Y-92401074D01*
X127611509Y-92415985D01*
X127601102Y-92425468D01*
X127596828Y-92428870D01*
X127596809Y-92428871D01*
X127590761Y-92425796D01*
X127583143Y-92419268D01*
X127576022Y-92409772D01*
X127573540Y-92402490D01*
X127576859Y-92397756D01*
X127586366Y-92386998D01*
X127601392Y-92370907D01*
X127621266Y-92350179D01*
X127645315Y-92325507D01*
X127672870Y-92297584D01*
X127703258Y-92267106D01*
X127734186Y-92236372D01*
X127771636Y-92199283D01*
X127802837Y-92168262D01*
X127828391Y-92142647D01*
X127848902Y-92121779D01*
X127864973Y-92104996D01*
X127877205Y-92091639D01*
X127886203Y-92081046D01*
X127892568Y-92072558D01*
X127896904Y-92065512D01*
X127899813Y-92059250D01*
X127901899Y-92053109D01*
X127902127Y-92052333D01*
X127910377Y-92030997D01*
X127921426Y-92017479D01*
X127937250Y-92010028D01*
X127952811Y-92007428D01*
X127968909Y-92006965D01*
X127975978Y-92009620D01*
G37*
G36*
X126162841Y-91830156D02*
G01*
X126176286Y-91841245D01*
X126187625Y-91852337D01*
X126193331Y-91861714D01*
X126195312Y-91873609D01*
X126195506Y-91883915D01*
X126195506Y-91909221D01*
X126287502Y-92031003D01*
X126312697Y-92064342D01*
X126338403Y-92098333D01*
X126363405Y-92131373D01*
X126386491Y-92161859D01*
X126406446Y-92188187D01*
X126422057Y-92208753D01*
X126424394Y-92211828D01*
X126441905Y-92235178D01*
X126454044Y-92252278D01*
X126461512Y-92264315D01*
X126465014Y-92272477D01*
X126465251Y-92277950D01*
X126464573Y-92279684D01*
X126453817Y-92290404D01*
X126438325Y-92294429D01*
X126434233Y-92290710D01*
X126425035Y-92280082D01*
X126411360Y-92263341D01*
X126393835Y-92241282D01*
X126373089Y-92214700D01*
X126349750Y-92184389D01*
X126324447Y-92151144D01*
X126310281Y-92132378D01*
X126277169Y-92088422D01*
X126249252Y-92051496D01*
X126225973Y-92020938D01*
X126206778Y-91996087D01*
X126191109Y-91976281D01*
X126178411Y-91960860D01*
X126168128Y-91949161D01*
X126159704Y-91940524D01*
X126152583Y-91934287D01*
X126146208Y-91929789D01*
X126140025Y-91926369D01*
X126135189Y-91924117D01*
X126115502Y-91913037D01*
X126103483Y-91899861D01*
X126097364Y-91883315D01*
X126096177Y-91870358D01*
X126097229Y-91857101D01*
X126099991Y-91846897D01*
X126103698Y-91843087D01*
X126107606Y-91846934D01*
X126114138Y-91856781D01*
X126118682Y-91864693D01*
X126129817Y-91880089D01*
X126141179Y-91886489D01*
X126152186Y-91883682D01*
X126157327Y-91878818D01*
X126160462Y-91872628D01*
X126159380Y-91864362D01*
X126153667Y-91851021D01*
X126153417Y-91850505D01*
X126146905Y-91834321D01*
X126146466Y-91825469D01*
X126151858Y-91824048D01*
X126162841Y-91830156D01*
G37*
G36*
X127558067Y-91728812D02*
G01*
X127558770Y-91735540D01*
X127552450Y-91748812D01*
X127549796Y-91753123D01*
X127541704Y-91766216D01*
X127538342Y-91774002D01*
X127539279Y-91779272D01*
X127544084Y-91784820D01*
X127544796Y-91785533D01*
X127554013Y-91793012D01*
X127561920Y-91794024D01*
X127570383Y-91787911D01*
X127581270Y-91774018D01*
X127582501Y-91772264D01*
X127590469Y-91762331D01*
X127596778Y-91756966D01*
X127597875Y-91756659D01*
X127601061Y-91760824D01*
X127601941Y-91771386D01*
X127600627Y-91785450D01*
X127597230Y-91800120D01*
X127596077Y-91803521D01*
X127586901Y-91817801D01*
X127569989Y-91829571D01*
X127569292Y-91829929D01*
X127548238Y-91840686D01*
X127456456Y-92047097D01*
X127432325Y-92101031D01*
X127411354Y-92147191D01*
X127393633Y-92185395D01*
X127379248Y-92215458D01*
X127368287Y-92237197D01*
X127360838Y-92250430D01*
X127357053Y-92254964D01*
X127348127Y-92253179D01*
X127337853Y-92247044D01*
X127330986Y-92240913D01*
X127328724Y-92235267D01*
X127330662Y-92226623D01*
X127334335Y-92216833D01*
X127338013Y-92208007D01*
X127345165Y-92191467D01*
X127355329Y-92168258D01*
X127368043Y-92139426D01*
X127382846Y-92106016D01*
X127399276Y-92069074D01*
X127416872Y-92029645D01*
X127424874Y-92011758D01*
X127445036Y-91966679D01*
X127461611Y-91929442D01*
X127474946Y-91899128D01*
X127485391Y-91874820D01*
X127493295Y-91855600D01*
X127499006Y-91840551D01*
X127502872Y-91828755D01*
X127505244Y-91819294D01*
X127506469Y-91811250D01*
X127506897Y-91803706D01*
X127506879Y-91795981D01*
X127508071Y-91772004D01*
X127513180Y-91754982D01*
X127523238Y-91742713D01*
X127535496Y-91734863D01*
X127550317Y-91728596D01*
X127558067Y-91728812D01*
G37*
G36*
X128269261Y-92419814D02*
G01*
X128280256Y-92425349D01*
X128281756Y-92430826D01*
X128273867Y-92436059D01*
X128257418Y-92440707D01*
X128242658Y-92444664D01*
X128235058Y-92449464D01*
X128232196Y-92456647D01*
X128232179Y-92456762D01*
X128233007Y-92470061D01*
X128240556Y-92477535D01*
X128255460Y-92479590D01*
X128266246Y-92478663D01*
X128281478Y-92477725D01*
X128288015Y-92480224D01*
X128285852Y-92486332D01*
X128274986Y-92496224D01*
X128265811Y-92502981D01*
X128245817Y-92517072D01*
X128220417Y-92509066D01*
X128195017Y-92501059D01*
X128019921Y-92566232D01*
X127979348Y-92581334D01*
X127940133Y-92595930D01*
X127903533Y-92609552D01*
X127870808Y-92621733D01*
X127843214Y-92632004D01*
X127822009Y-92639896D01*
X127808452Y-92644942D01*
X127807776Y-92645193D01*
X127789201Y-92651867D01*
X127777352Y-92655227D01*
X127770063Y-92655589D01*
X127765170Y-92653265D01*
X127763362Y-92651618D01*
X127757785Y-92641391D01*
X127755998Y-92630921D01*
X127756252Y-92626950D01*
X127757664Y-92623391D01*
X127761211Y-92619787D01*
X127767869Y-92615679D01*
X127778614Y-92610608D01*
X127794422Y-92604118D01*
X127816270Y-92595749D01*
X127845134Y-92585044D01*
X127881989Y-92571545D01*
X127884438Y-92570650D01*
X127942670Y-92549352D01*
X127992588Y-92531031D01*
X128034907Y-92515386D01*
X128070339Y-92502115D01*
X128099600Y-92490919D01*
X128123401Y-92481497D01*
X128142457Y-92473547D01*
X128157481Y-92466770D01*
X128169187Y-92460863D01*
X128178287Y-92455527D01*
X128185496Y-92450460D01*
X128191528Y-92445363D01*
X128197094Y-92439933D01*
X128198870Y-92438102D01*
X128216270Y-92422587D01*
X128232382Y-92415020D01*
X128250024Y-92414667D01*
X128269261Y-92419814D01*
G37*
G36*
X126589358Y-91650864D02*
G01*
X126592755Y-91664163D01*
X126595136Y-91684637D01*
X126597423Y-91696614D01*
X126603062Y-91701961D01*
X126607500Y-91703011D01*
X126620673Y-91701795D01*
X126628769Y-91693252D01*
X126632238Y-91676783D01*
X126632444Y-91669795D01*
X126633733Y-91654779D01*
X126637428Y-91648921D01*
X126643269Y-91652151D01*
X126650997Y-91664402D01*
X126656474Y-91676149D01*
X126666986Y-91700585D01*
X126656549Y-91721482D01*
X126649524Y-91739784D01*
X126648862Y-91755303D01*
X126649328Y-91757922D01*
X126651117Y-91765831D01*
X126654900Y-91782014D01*
X126660425Y-91805410D01*
X126667440Y-91834954D01*
X126675693Y-91869586D01*
X126684930Y-91908244D01*
X126694899Y-91949863D01*
X126700112Y-91971586D01*
X126710243Y-92013998D01*
X126719637Y-92053740D01*
X126728060Y-92089792D01*
X126735279Y-92121134D01*
X126741059Y-92146747D01*
X126745166Y-92165609D01*
X126747367Y-92176701D01*
X126747680Y-92179082D01*
X126743648Y-92189085D01*
X126733968Y-92195794D01*
X126722268Y-92197908D01*
X126712176Y-92194128D01*
X126710548Y-92192397D01*
X126707561Y-92185377D01*
X126703274Y-92171267D01*
X126698350Y-92152378D01*
X126695065Y-92138380D01*
X126690969Y-92120461D01*
X126685227Y-92095782D01*
X126678171Y-92065734D01*
X126670133Y-92031704D01*
X126661444Y-91995084D01*
X126652437Y-91957263D01*
X126643443Y-91919630D01*
X126634794Y-91883577D01*
X126626823Y-91850492D01*
X126619860Y-91821765D01*
X126614239Y-91798786D01*
X126610291Y-91782944D01*
X126608881Y-91777509D01*
X126602709Y-91762611D01*
X126592507Y-91745379D01*
X126584363Y-91734384D01*
X126571575Y-91716526D01*
X126565804Y-91701843D01*
X126565223Y-91695691D01*
X126566916Y-91683207D01*
X126571165Y-91669009D01*
X126576722Y-91656185D01*
X126582337Y-91647820D01*
X126585227Y-91646225D01*
X126589358Y-91650864D01*
G37*
G36*
X127865844Y-93154662D02*
G01*
X127873843Y-93159006D01*
X127885292Y-93166852D01*
X127901077Y-93178822D01*
X127922081Y-93195537D01*
X127949189Y-93217618D01*
X127960981Y-93227303D01*
X128012373Y-93269503D01*
X128056933Y-93305909D01*
X128095172Y-93336916D01*
X128127601Y-93362919D01*
X128154731Y-93384311D01*
X128177074Y-93401487D01*
X128195142Y-93414842D01*
X128209444Y-93424769D01*
X128220493Y-93431663D01*
X128228800Y-93435919D01*
X128233748Y-93437671D01*
X128253949Y-93443069D01*
X128267049Y-93447305D01*
X128275295Y-93451417D01*
X128280932Y-93456444D01*
X128284625Y-93461196D01*
X128291415Y-93474336D01*
X128296235Y-93490045D01*
X128296453Y-93491206D01*
X128297165Y-93504353D01*
X128293444Y-93509178D01*
X128285679Y-93505660D01*
X128274264Y-93493780D01*
X128273156Y-93492406D01*
X128259676Y-93479469D01*
X128247452Y-93475950D01*
X128237109Y-93481363D01*
X128232051Y-93489793D01*
X128233500Y-93499980D01*
X128241885Y-93513777D01*
X128245750Y-93518811D01*
X128254048Y-93531547D01*
X128254682Y-93538728D01*
X128247961Y-93540152D01*
X128234194Y-93535616D01*
X128226050Y-93531714D01*
X128212115Y-93523729D01*
X128203452Y-93515445D01*
X128197731Y-93503717D01*
X128193064Y-93487177D01*
X128191529Y-93482252D01*
X128188987Y-93477134D01*
X128184788Y-93471237D01*
X128178283Y-93463976D01*
X128168820Y-93454765D01*
X128155749Y-93443019D01*
X128138420Y-93428153D01*
X128116182Y-93409582D01*
X128088384Y-93386720D01*
X128054377Y-93358981D01*
X128015512Y-93327408D01*
X127980286Y-93298770D01*
X127947354Y-93271906D01*
X127917466Y-93247432D01*
X127891375Y-93225970D01*
X127869831Y-93208138D01*
X127853585Y-93194556D01*
X127843388Y-93185843D01*
X127840012Y-93182689D01*
X127839863Y-93174520D01*
X127845309Y-93164236D01*
X127854246Y-93155460D01*
X127856658Y-93153991D01*
X127860410Y-93153197D01*
X127865844Y-93154662D01*
G37*
G36*
X127064831Y-91615845D02*
G01*
X127066077Y-91622466D01*
X127064932Y-91634903D01*
X127063348Y-91642989D01*
X127060928Y-91660202D01*
X127063970Y-91670193D01*
X127073226Y-91674111D01*
X127083583Y-91673877D01*
X127091514Y-91671314D01*
X127096685Y-91664037D01*
X127100618Y-91651026D01*
X127105435Y-91635918D01*
X127110360Y-91630370D01*
X127115572Y-91634339D01*
X127120727Y-91646225D01*
X127125848Y-91666241D01*
X127124879Y-91681744D01*
X127117249Y-91696077D01*
X127110935Y-91703656D01*
X127094869Y-91721438D01*
X127091656Y-91785863D01*
X127090635Y-91806916D01*
X127089278Y-91835776D01*
X127087667Y-91870658D01*
X127085883Y-91909774D01*
X127084009Y-91951338D01*
X127082125Y-91993565D01*
X127081348Y-92011140D01*
X127079353Y-92055282D01*
X127077614Y-92090792D01*
X127076042Y-92118632D01*
X127074550Y-92139765D01*
X127073049Y-92155156D01*
X127071451Y-92165768D01*
X127069669Y-92172564D01*
X127067613Y-92176508D01*
X127066098Y-92177992D01*
X127059041Y-92182548D01*
X127052898Y-92182993D01*
X127042985Y-92179529D01*
X127041773Y-92179043D01*
X127038479Y-92177864D01*
X127035861Y-92176596D01*
X127033893Y-92174255D01*
X127032554Y-92169855D01*
X127031820Y-92162412D01*
X127031667Y-92150942D01*
X127032074Y-92134459D01*
X127033016Y-92111980D01*
X127034470Y-92082519D01*
X127036414Y-92045092D01*
X127037933Y-92015941D01*
X127041034Y-91956098D01*
X127043647Y-91905057D01*
X127045773Y-91862028D01*
X127047413Y-91826223D01*
X127048569Y-91796852D01*
X127049244Y-91773126D01*
X127049438Y-91754257D01*
X127049154Y-91739456D01*
X127048394Y-91727933D01*
X127047159Y-91718900D01*
X127045451Y-91711567D01*
X127043271Y-91705146D01*
X127040623Y-91698847D01*
X127038660Y-91694466D01*
X127031061Y-91674377D01*
X127028261Y-91659260D01*
X127028690Y-91654654D01*
X127033263Y-91644701D01*
X127041257Y-91633549D01*
X127050553Y-91623471D01*
X127059036Y-91616742D01*
X127064588Y-91615634D01*
X127064831Y-91615845D01*
G37*
G36*
X127987732Y-93478622D02*
G01*
X128013476Y-93517334D01*
X128037891Y-93553798D01*
X128060412Y-93587188D01*
X128080474Y-93616676D01*
X128097512Y-93641436D01*
X128110959Y-93660641D01*
X128120251Y-93673464D01*
X128124791Y-93679051D01*
X128134223Y-93684594D01*
X128149914Y-93691076D01*
X128168771Y-93697250D01*
X128172354Y-93698257D01*
X128209741Y-93708474D01*
X128227867Y-93744485D01*
X128238552Y-93767706D01*
X128245952Y-93787911D01*
X128249713Y-93803698D01*
X128249484Y-93813663D01*
X128245935Y-93816508D01*
X128239845Y-93813467D01*
X128228859Y-93805384D01*
X128215052Y-93793824D01*
X128210878Y-93790100D01*
X128191249Y-93773927D01*
X128175726Y-93765354D01*
X128162880Y-93764135D01*
X128151278Y-93770025D01*
X128142946Y-93778464D01*
X128134144Y-93791035D01*
X128131308Y-93802322D01*
X128134903Y-93814153D01*
X128145394Y-93828358D01*
X128159325Y-93842916D01*
X128176832Y-93861467D01*
X128186401Y-93874809D01*
X128187995Y-93883194D01*
X128181577Y-93886875D01*
X128167107Y-93886104D01*
X128153248Y-93883307D01*
X128123738Y-93873242D01*
X128100263Y-93858816D01*
X128083954Y-93840959D01*
X128075943Y-93820602D01*
X128075793Y-93819622D01*
X128074047Y-93807142D01*
X128071564Y-93789104D01*
X128068952Y-93769924D01*
X128067743Y-93761143D01*
X128066396Y-93753212D01*
X128064493Y-93745406D01*
X128061618Y-93737004D01*
X128057354Y-93727281D01*
X128051282Y-93715516D01*
X128042986Y-93700984D01*
X128032049Y-93682963D01*
X128018054Y-93660730D01*
X128000583Y-93633562D01*
X127979219Y-93600735D01*
X127953545Y-93561528D01*
X127923144Y-93515216D01*
X127913596Y-93500676D01*
X127889549Y-93463917D01*
X127867221Y-93429516D01*
X127847150Y-93398323D01*
X127829878Y-93371191D01*
X127815944Y-93348972D01*
X127805888Y-93332517D01*
X127800251Y-93322678D01*
X127799211Y-93320256D01*
X127803433Y-93310590D01*
X127814225Y-93300893D01*
X127828775Y-93293186D01*
X127841563Y-93289769D01*
X127860851Y-93287182D01*
X127987732Y-93478622D01*
G37*
G36*
X126878611Y-91601752D02*
G01*
X126890941Y-91610960D01*
X126904464Y-91623702D01*
X126916971Y-91637850D01*
X126926254Y-91651272D01*
X126927837Y-91654315D01*
X126934359Y-91674607D01*
X126934655Y-91696426D01*
X126928552Y-91721743D01*
X126920142Y-91743150D01*
X126904734Y-91778255D01*
X126907593Y-91867089D01*
X126908936Y-91901253D01*
X126910907Y-91941518D01*
X126913314Y-91984415D01*
X126915962Y-92026476D01*
X126918373Y-92060487D01*
X126920986Y-92096557D01*
X126922677Y-92124164D01*
X126923468Y-92144403D01*
X126923377Y-92158369D01*
X126922426Y-92167154D01*
X126920633Y-92171854D01*
X126920425Y-92172122D01*
X126911514Y-92176785D01*
X126897074Y-92178950D01*
X126880862Y-92178585D01*
X126866630Y-92175653D01*
X126860636Y-92172672D01*
X126856783Y-92168507D01*
X126853894Y-92161409D01*
X126851659Y-92149734D01*
X126849773Y-92131843D01*
X126847928Y-92106094D01*
X126847811Y-92104251D01*
X126843786Y-92042057D01*
X126839970Y-91986147D01*
X126836401Y-91936998D01*
X126833118Y-91895088D01*
X126830160Y-91860894D01*
X126827566Y-91834893D01*
X126825375Y-91817563D01*
X126823737Y-91809656D01*
X126818319Y-91800676D01*
X126807906Y-91787483D01*
X126794451Y-91772496D01*
X126789933Y-91767828D01*
X126760686Y-91738184D01*
X126763214Y-91697652D01*
X126765866Y-91672132D01*
X126770110Y-91651314D01*
X126775506Y-91636697D01*
X126781611Y-91629775D01*
X126783350Y-91629419D01*
X126786749Y-91633651D01*
X126792014Y-91644918D01*
X126798187Y-91661078D01*
X126800274Y-91667164D01*
X126807679Y-91687528D01*
X126814235Y-91700637D01*
X126821175Y-91708608D01*
X126826346Y-91711971D01*
X126843051Y-91715682D01*
X126860390Y-91710581D01*
X126875518Y-91698381D01*
X126879832Y-91692881D01*
X126881533Y-91687018D01*
X126880598Y-91678145D01*
X126877003Y-91663615D01*
X126875140Y-91656806D01*
X126868614Y-91632340D01*
X126864834Y-91615643D01*
X126863673Y-91605324D01*
X126864998Y-91599990D01*
X126868682Y-91598249D01*
X126869681Y-91598210D01*
X126878611Y-91601752D01*
G37*
G36*
X126371291Y-91701146D02*
G01*
X126394680Y-91709469D01*
X126418552Y-91721958D01*
X126438515Y-91736215D01*
X126442770Y-91740160D01*
X126454426Y-91754986D01*
X126460930Y-91772178D01*
X126462852Y-91794073D01*
X126461459Y-91816697D01*
X126461144Y-91847349D01*
X126466338Y-91873445D01*
X126470837Y-91886251D01*
X126479017Y-91906720D01*
X126490432Y-91933841D01*
X126504636Y-91966605D01*
X126521185Y-92004003D01*
X126539633Y-92045024D01*
X126559536Y-92088660D01*
X126580447Y-92133901D01*
X126593285Y-92161378D01*
X126602568Y-92182210D01*
X126609730Y-92200321D01*
X126614047Y-92213731D01*
X126614833Y-92220374D01*
X126607585Y-92228570D01*
X126593684Y-92236594D01*
X126575972Y-92242845D01*
X126574118Y-92243307D01*
X126559391Y-92242694D01*
X126551772Y-92237979D01*
X126546917Y-92231141D01*
X126539012Y-92216970D01*
X126528811Y-92196951D01*
X126517068Y-92172571D01*
X126504535Y-92145315D01*
X126502504Y-92140780D01*
X126478108Y-92086575D01*
X126456168Y-92038788D01*
X126436879Y-91997819D01*
X126420436Y-91964064D01*
X126407033Y-91937923D01*
X126396864Y-91919793D01*
X126390125Y-91910071D01*
X126389292Y-91909246D01*
X126380258Y-91903391D01*
X126365344Y-91895787D01*
X126347672Y-91888018D01*
X126346538Y-91887560D01*
X126313161Y-91874138D01*
X126302094Y-91843091D01*
X126296082Y-91822932D01*
X126291991Y-91802663D01*
X126290043Y-91784513D01*
X126290457Y-91770712D01*
X126293452Y-91763489D01*
X126294205Y-91763087D01*
X126299319Y-91765750D01*
X126308528Y-91774417D01*
X126320134Y-91787427D01*
X126324355Y-91792582D01*
X126337398Y-91808275D01*
X126346875Y-91817693D01*
X126354812Y-91822368D01*
X126363233Y-91823835D01*
X126365674Y-91823881D01*
X126379782Y-91821296D01*
X126391691Y-91812122D01*
X126394342Y-91809108D01*
X126402363Y-91797516D01*
X126406583Y-91787400D01*
X126406773Y-91785665D01*
X126403942Y-91777967D01*
X126396436Y-91765321D01*
X126385731Y-91750154D01*
X126382861Y-91746421D01*
X126367818Y-91725608D01*
X126360071Y-91710972D01*
X126359623Y-91702529D01*
X126366479Y-91700293D01*
X126371291Y-91701146D01*
G37*
G36*
X127366895Y-91650049D02*
G01*
X127375327Y-91659067D01*
X127384132Y-91672371D01*
X127391530Y-91687611D01*
X127400215Y-91714164D01*
X127402563Y-91736465D01*
X127398106Y-91756930D01*
X127386374Y-91777970D01*
X127369977Y-91798516D01*
X127353281Y-91820084D01*
X127339765Y-91842233D01*
X127333817Y-91855251D01*
X127330209Y-91866456D01*
X127324690Y-91885639D01*
X127317620Y-91911450D01*
X127309360Y-91942535D01*
X127300272Y-91977545D01*
X127290717Y-92015127D01*
X127285328Y-92036665D01*
X127275945Y-92074164D01*
X127267111Y-92109033D01*
X127259136Y-92140084D01*
X127252328Y-92166129D01*
X127246997Y-92185980D01*
X127243453Y-92198450D01*
X127242269Y-92202000D01*
X127233946Y-92210501D01*
X127219950Y-92212258D01*
X127201501Y-92207207D01*
X127195277Y-92204354D01*
X127184066Y-92196531D01*
X127177397Y-92187715D01*
X127177058Y-92186656D01*
X127177589Y-92179749D01*
X127180237Y-92164713D01*
X127184746Y-92142724D01*
X127190859Y-92114957D01*
X127198321Y-92082588D01*
X127206876Y-92046793D01*
X127212835Y-92022509D01*
X127224519Y-91975475D01*
X127234090Y-91936778D01*
X127241654Y-91905412D01*
X127247317Y-91880371D01*
X127251187Y-91860648D01*
X127253368Y-91845237D01*
X127253969Y-91833132D01*
X127253094Y-91823326D01*
X127250850Y-91814815D01*
X127247344Y-91806591D01*
X127242681Y-91797648D01*
X127237597Y-91788178D01*
X127217759Y-91750510D01*
X127225507Y-91725875D01*
X127233475Y-91704147D01*
X127242915Y-91683857D01*
X127252678Y-91667031D01*
X127261616Y-91655696D01*
X127267444Y-91651934D01*
X127271563Y-91652139D01*
X127274075Y-91655870D01*
X127275364Y-91664896D01*
X127275815Y-91680988D01*
X127275847Y-91690582D01*
X127277015Y-91716548D01*
X127281037Y-91734395D01*
X127288682Y-91745377D01*
X127300725Y-91750752D01*
X127313528Y-91751858D01*
X127328815Y-91750780D01*
X127339301Y-91746527D01*
X127346016Y-91737571D01*
X127349989Y-91722382D01*
X127352250Y-91699432D01*
X127352582Y-91693872D01*
X127354398Y-91671631D01*
X127356883Y-91655930D01*
X127359803Y-91648129D01*
X127360579Y-91647570D01*
X127366895Y-91650049D01*
G37*
G36*
X127894332Y-93017976D02*
G01*
X127905704Y-93022406D01*
X127924590Y-93029909D01*
X127949610Y-93039931D01*
X127979386Y-93051918D01*
X128012539Y-93065316D01*
X128047690Y-93079570D01*
X128058359Y-93083906D01*
X128096841Y-93099338D01*
X128131419Y-93112778D01*
X128161113Y-93123870D01*
X128184942Y-93132258D01*
X128201926Y-93137585D01*
X128211085Y-93139494D01*
X128211188Y-93139495D01*
X128224063Y-93137692D01*
X128241641Y-93132991D01*
X128258129Y-93127165D01*
X128277194Y-93120291D01*
X128291716Y-93117887D01*
X128305266Y-93120243D01*
X128321411Y-93127649D01*
X128331170Y-93133105D01*
X128349037Y-93144519D01*
X128364313Y-93156382D01*
X128376113Y-93167618D01*
X128383556Y-93177146D01*
X128385758Y-93183888D01*
X128381837Y-93186765D01*
X128374193Y-93185695D01*
X128363899Y-93183725D01*
X128347714Y-93181484D01*
X128330924Y-93179639D01*
X128307964Y-93178770D01*
X128292708Y-93182051D01*
X128283800Y-93190452D01*
X128279883Y-93204942D01*
X128279363Y-93216475D01*
X128280555Y-93230968D01*
X128283571Y-93241531D01*
X128285365Y-93244029D01*
X128292643Y-93246993D01*
X128306809Y-93250645D01*
X128325241Y-93254340D01*
X128332131Y-93255511D01*
X128355817Y-93260223D01*
X128370055Y-93265300D01*
X128374999Y-93270981D01*
X128370803Y-93277507D01*
X128357621Y-93285116D01*
X128352610Y-93287357D01*
X128325967Y-93296298D01*
X128300156Y-93300424D01*
X128277863Y-93299456D01*
X128267125Y-93296239D01*
X128257131Y-93289546D01*
X128243600Y-93277657D01*
X128229047Y-93262830D01*
X128225272Y-93258620D01*
X128209413Y-93242242D01*
X128192314Y-93227224D01*
X128177269Y-93216416D01*
X128175090Y-93215168D01*
X128164629Y-93210087D01*
X128146513Y-93201936D01*
X128121993Y-93191242D01*
X128092319Y-93178532D01*
X128058741Y-93164331D01*
X128022509Y-93149166D01*
X127984874Y-93133564D01*
X127947084Y-93118050D01*
X127910391Y-93103151D01*
X127881885Y-93091717D01*
X127863600Y-93083764D01*
X127848764Y-93076068D01*
X127839692Y-93069882D01*
X127838175Y-93068071D01*
X127836447Y-93055353D01*
X127840685Y-93039697D01*
X127849713Y-93024591D01*
X127854614Y-93019283D01*
X127867013Y-93007635D01*
X127894332Y-93017976D01*
G37*
G36*
X127740293Y-91840421D02*
G01*
X127741953Y-91843682D01*
X127740700Y-91850744D01*
X127736280Y-91863448D01*
X127730592Y-91878150D01*
X127722147Y-91902549D01*
X127719124Y-91920314D01*
X127721819Y-91932929D01*
X127730525Y-91941882D01*
X127744551Y-91948317D01*
X127758592Y-91951881D01*
X127769906Y-91952527D01*
X127772246Y-91951999D01*
X127777724Y-91946466D01*
X127785626Y-91934239D01*
X127794637Y-91917466D01*
X127799174Y-91907988D01*
X127807856Y-91890224D01*
X127815610Y-91876357D01*
X127821303Y-91868324D01*
X127823118Y-91867094D01*
X127829437Y-91871612D01*
X127834037Y-91884244D01*
X127836619Y-91903606D01*
X127836886Y-91928314D01*
X127836800Y-91930422D01*
X127835587Y-91949908D01*
X127833429Y-91962772D01*
X127829407Y-91971996D01*
X127822607Y-91980561D01*
X127820796Y-91982497D01*
X127808966Y-91992543D01*
X127792149Y-92003942D01*
X127775204Y-92013573D01*
X127756398Y-92024560D01*
X127738401Y-92037373D01*
X127726462Y-92047926D01*
X127716380Y-92059644D01*
X127701184Y-92078920D01*
X127681158Y-92105369D01*
X127656587Y-92138608D01*
X127627753Y-92178251D01*
X127594942Y-92223914D01*
X127558437Y-92275213D01*
X127558019Y-92275802D01*
X127542208Y-92297745D01*
X127527943Y-92316848D01*
X127516281Y-92331749D01*
X127508279Y-92341087D01*
X127505399Y-92343593D01*
X127496068Y-92343973D01*
X127489122Y-92342267D01*
X127479112Y-92335869D01*
X127468108Y-92325145D01*
X127458771Y-92313175D01*
X127453766Y-92303042D01*
X127453503Y-92301050D01*
X127456221Y-92295398D01*
X127463877Y-92283113D01*
X127475723Y-92265299D01*
X127491012Y-92243062D01*
X127508995Y-92217507D01*
X127527156Y-92192183D01*
X127558450Y-92148946D01*
X127584609Y-92112706D01*
X127606068Y-92082641D01*
X127623262Y-92057925D01*
X127636626Y-92037735D01*
X127646595Y-92021247D01*
X127653604Y-92007637D01*
X127658087Y-91996079D01*
X127660481Y-91985751D01*
X127661220Y-91975827D01*
X127660739Y-91965484D01*
X127659474Y-91953898D01*
X127658260Y-91943805D01*
X127656584Y-91926427D01*
X127657039Y-91914912D01*
X127660381Y-91905623D01*
X127667364Y-91894919D01*
X127668806Y-91892919D01*
X127682112Y-91876897D01*
X127697520Y-91861880D01*
X127713000Y-91849495D01*
X127726520Y-91841370D01*
X127735974Y-91839118D01*
X127740293Y-91840421D01*
G37*
G36*
X128117832Y-92173843D02*
G01*
X128116306Y-92181643D01*
X128107038Y-92194431D01*
X128092686Y-92209815D01*
X128076603Y-92227097D01*
X128067193Y-92240051D01*
X128063459Y-92250127D01*
X128063295Y-92252545D01*
X128067751Y-92267706D01*
X128079782Y-92281198D01*
X128095341Y-92289945D01*
X128101969Y-92291614D01*
X128108596Y-92290412D01*
X128117132Y-92285311D01*
X128129490Y-92275284D01*
X128140355Y-92265746D01*
X128159861Y-92249567D01*
X128174671Y-92239741D01*
X128184256Y-92236542D01*
X128188086Y-92240241D01*
X128188134Y-92241184D01*
X128186244Y-92251832D01*
X128181380Y-92267878D01*
X128174746Y-92286074D01*
X128167549Y-92303172D01*
X128160994Y-92315925D01*
X128159587Y-92318068D01*
X128148619Y-92330572D01*
X128135302Y-92339124D01*
X128117465Y-92344594D01*
X128092937Y-92347852D01*
X128083507Y-92348557D01*
X128070758Y-92349600D01*
X128058669Y-92351236D01*
X128046465Y-92353848D01*
X128033373Y-92357820D01*
X128018618Y-92363535D01*
X128001427Y-92371376D01*
X127981024Y-92381726D01*
X127956636Y-92394969D01*
X127927489Y-92411488D01*
X127892808Y-92431665D01*
X127851819Y-92455885D01*
X127803749Y-92484531D01*
X127779284Y-92499157D01*
X127755090Y-92513492D01*
X127733648Y-92525938D01*
X127716345Y-92535710D01*
X127704567Y-92542025D01*
X127699776Y-92544107D01*
X127692695Y-92541484D01*
X127687450Y-92538106D01*
X127679433Y-92528484D01*
X127672293Y-92514220D01*
X127667589Y-92499268D01*
X127666881Y-92487583D01*
X127667139Y-92486588D01*
X127671987Y-92481768D01*
X127684322Y-92472802D01*
X127703263Y-92460256D01*
X127727932Y-92444698D01*
X127757447Y-92426693D01*
X127790930Y-92406811D01*
X127790989Y-92406776D01*
X127836036Y-92380355D01*
X127873560Y-92358258D01*
X127904296Y-92339909D01*
X127928981Y-92324732D01*
X127948349Y-92312149D01*
X127963137Y-92301585D01*
X127974080Y-92292463D01*
X127981913Y-92284208D01*
X127987372Y-92276242D01*
X127991193Y-92267990D01*
X127994111Y-92258874D01*
X127996862Y-92248320D01*
X127997770Y-92244765D01*
X128003016Y-92228020D01*
X128009002Y-92214116D01*
X128012982Y-92207887D01*
X128022394Y-92201016D01*
X128038216Y-92192823D01*
X128057597Y-92184515D01*
X128077684Y-92177302D01*
X128095623Y-92172391D01*
X128097828Y-92171951D01*
X128111658Y-92170717D01*
X128117832Y-92173843D01*
G37*
G36*
X128283028Y-92601726D02*
G01*
X128309032Y-92602298D01*
X128326779Y-92604119D01*
X128337551Y-92607346D01*
X128339664Y-92608649D01*
X128343468Y-92612199D01*
X128343297Y-92615557D01*
X128337896Y-92619758D01*
X128326009Y-92625835D01*
X128309673Y-92633336D01*
X128284689Y-92646238D01*
X128268863Y-92658686D01*
X128261841Y-92671532D01*
X128263268Y-92685628D01*
X128272788Y-92701826D01*
X128278323Y-92708559D01*
X128285163Y-92714276D01*
X128293816Y-92716298D01*
X128306105Y-92714431D01*
X128323854Y-92708481D01*
X128340077Y-92701959D01*
X128360872Y-92694020D01*
X128374226Y-92690716D01*
X128380989Y-92691840D01*
X128381165Y-92692004D01*
X128382574Y-92699585D01*
X128377626Y-92711080D01*
X128367824Y-92724890D01*
X128354672Y-92739415D01*
X128339674Y-92753056D01*
X128324334Y-92764213D01*
X128310155Y-92771285D01*
X128305438Y-92772559D01*
X128290565Y-92772722D01*
X128269252Y-92768572D01*
X128248062Y-92762410D01*
X128235508Y-92758513D01*
X128224120Y-92755455D01*
X128212878Y-92753311D01*
X128200762Y-92752156D01*
X128186753Y-92752064D01*
X128169832Y-92753111D01*
X128148979Y-92755372D01*
X128123175Y-92758922D01*
X128091400Y-92763836D01*
X128052636Y-92770189D01*
X128005862Y-92778055D01*
X127983138Y-92781904D01*
X127945665Y-92788234D01*
X127911197Y-92794016D01*
X127880880Y-92799061D01*
X127855864Y-92803179D01*
X127837294Y-92806181D01*
X127826320Y-92807877D01*
X127823821Y-92808191D01*
X127817599Y-92804899D01*
X127813347Y-92800665D01*
X127809372Y-92791023D01*
X127807241Y-92776351D01*
X127807047Y-92760440D01*
X127808887Y-92747083D01*
X127811846Y-92740825D01*
X127817754Y-92738732D01*
X127831972Y-92735337D01*
X127853329Y-92730870D01*
X127880655Y-92725561D01*
X127912779Y-92719642D01*
X127948531Y-92713341D01*
X127970296Y-92709632D01*
X128019083Y-92701436D01*
X128059328Y-92694643D01*
X128091951Y-92689003D01*
X128117868Y-92684266D01*
X128137999Y-92680180D01*
X128153262Y-92676497D01*
X128164574Y-92672964D01*
X128172855Y-92669333D01*
X128179022Y-92665352D01*
X128183994Y-92660771D01*
X128188688Y-92655339D01*
X128194024Y-92648807D01*
X128194229Y-92648560D01*
X128210132Y-92629482D01*
X128221792Y-92616428D01*
X128231368Y-92608259D01*
X128241016Y-92603839D01*
X128252893Y-92602030D01*
X128269156Y-92601693D01*
X128283028Y-92601726D01*
G37*
G36*
X125971331Y-91968526D02*
G01*
X125992949Y-91975387D01*
X126002813Y-91981005D01*
X126008634Y-91985752D01*
X126013860Y-91991568D01*
X126019405Y-92000006D01*
X126026182Y-92012619D01*
X126035104Y-92030960D01*
X126046454Y-92055223D01*
X126050736Y-92063740D01*
X126055921Y-92072302D01*
X126062604Y-92081478D01*
X126071379Y-92091839D01*
X126082843Y-92103953D01*
X126097592Y-92118392D01*
X126116220Y-92135723D01*
X126139323Y-92156518D01*
X126167498Y-92181346D01*
X126201338Y-92210777D01*
X126241441Y-92245381D01*
X126278472Y-92277206D01*
X126303139Y-92298547D01*
X126321114Y-92314833D01*
X126333068Y-92327173D01*
X126339673Y-92336675D01*
X126341600Y-92344451D01*
X126339520Y-92351608D01*
X126334105Y-92359256D01*
X126330592Y-92363342D01*
X126322365Y-92370517D01*
X126311014Y-92378179D01*
X126300323Y-92383966D01*
X126294852Y-92385658D01*
X126290334Y-92382893D01*
X126280902Y-92375814D01*
X126273666Y-92370053D01*
X126264605Y-92362479D01*
X126249601Y-92349689D01*
X126229937Y-92332786D01*
X126206897Y-92312878D01*
X126181766Y-92291069D01*
X126166157Y-92277478D01*
X126128533Y-92244683D01*
X126097331Y-92217639D01*
X126071707Y-92195822D01*
X126050817Y-92178706D01*
X126033814Y-92165765D01*
X126019854Y-92156474D01*
X126008093Y-92150307D01*
X125997685Y-92146740D01*
X125987786Y-92145247D01*
X125977551Y-92145302D01*
X125966135Y-92146381D01*
X125957073Y-92147453D01*
X125940086Y-92148265D01*
X125926069Y-92145443D01*
X125913115Y-92137840D01*
X125899317Y-92124304D01*
X125882768Y-92103687D01*
X125881354Y-92101813D01*
X125868614Y-92083097D01*
X125861165Y-92068254D01*
X125859386Y-92058332D01*
X125863650Y-92054380D01*
X125864322Y-92054353D01*
X125870717Y-92056391D01*
X125883161Y-92061781D01*
X125899183Y-92069442D01*
X125902370Y-92071036D01*
X125920106Y-92079547D01*
X125932160Y-92083903D01*
X125941165Y-92084754D01*
X125949753Y-92082748D01*
X125949812Y-92082728D01*
X125963544Y-92073225D01*
X125972039Y-92057533D01*
X125973932Y-92038246D01*
X125973805Y-92037021D01*
X125971793Y-92029652D01*
X125966515Y-92023050D01*
X125956247Y-92015749D01*
X125939264Y-92006280D01*
X125935096Y-92004094D01*
X125913783Y-91992017D01*
X125901499Y-91982544D01*
X125898123Y-91975358D01*
X125903537Y-91970139D01*
X125917622Y-91966570D01*
X125920849Y-91966107D01*
X125946120Y-91965219D01*
X125971331Y-91968526D01*
G37*
G36*
X127033869Y-92234595D02*
G01*
X127122208Y-92245883D01*
X127207478Y-92266241D01*
X127289775Y-92295692D01*
X127369195Y-92334261D01*
X127445835Y-92381973D01*
X127463106Y-92394262D01*
X127488486Y-92414537D01*
X127517401Y-92440552D01*
X127547816Y-92470227D01*
X127577698Y-92501478D01*
X127605012Y-92532224D01*
X127627723Y-92560383D01*
X127634520Y-92569683D01*
X127654673Y-92600550D01*
X127675924Y-92637042D01*
X127696674Y-92676105D01*
X127715323Y-92714682D01*
X127730272Y-92749717D01*
X127734191Y-92760175D01*
X127746513Y-92798794D01*
X127757484Y-92841282D01*
X127766693Y-92885305D01*
X127773733Y-92928530D01*
X127778194Y-92968621D01*
X127779668Y-93003245D01*
X127779205Y-93017056D01*
X127777605Y-93041064D01*
X127755519Y-93042498D01*
X127733433Y-93043932D01*
X127730359Y-93100116D01*
X127727874Y-93132867D01*
X127723864Y-93164114D01*
X127717879Y-93195929D01*
X127709468Y-93230385D01*
X127698183Y-93269555D01*
X127683783Y-93314874D01*
X127674445Y-93343721D01*
X127667845Y-93365455D01*
X127663578Y-93382037D01*
X127661240Y-93395429D01*
X127660429Y-93407593D01*
X127660739Y-93420491D01*
X127661031Y-93425429D01*
X127664406Y-93450502D01*
X127671752Y-93475856D01*
X127683815Y-93503278D01*
X127701341Y-93534555D01*
X127716830Y-93559043D01*
X127727700Y-93576575D01*
X127736141Y-93591957D01*
X127740939Y-93602888D01*
X127741593Y-93605961D01*
X127737421Y-93616367D01*
X127724919Y-93622032D01*
X127704115Y-93622948D01*
X127681151Y-93620198D01*
X127626784Y-93607226D01*
X127571187Y-93586272D01*
X127513987Y-93557120D01*
X127454810Y-93519553D01*
X127393282Y-93473356D01*
X127329029Y-93418312D01*
X127323862Y-93413613D01*
X127306385Y-93398039D01*
X127290355Y-93384445D01*
X127277728Y-93374449D01*
X127271195Y-93370025D01*
X127256260Y-93365673D01*
X127234356Y-93363884D01*
X127207701Y-93364423D01*
X127178513Y-93367054D01*
X127149008Y-93371542D01*
X127121405Y-93377651D01*
X127097921Y-93385146D01*
X127088198Y-93389450D01*
X127074076Y-93399096D01*
X127060476Y-93412191D01*
X127057682Y-93415610D01*
X127044938Y-93433872D01*
X127029028Y-93459107D01*
X127010922Y-93489620D01*
X126991585Y-93523714D01*
X126971986Y-93559695D01*
X126953092Y-93595866D01*
X126940717Y-93620567D01*
X126903729Y-93695912D01*
X126843711Y-93731854D01*
X126784711Y-93765756D01*
X126716499Y-93802317D01*
X126639086Y-93841531D01*
X126552485Y-93883392D01*
X126456709Y-93927894D01*
X126351770Y-93975031D01*
X126237682Y-94024796D01*
X126212693Y-94035524D01*
X126183007Y-94048167D01*
X126156229Y-94059440D01*
X126133629Y-94068819D01*
X126116478Y-94075781D01*
X126106043Y-94079803D01*
X126103459Y-94080591D01*
X126099768Y-94076786D01*
X126099498Y-94074589D01*
X126100361Y-94064285D01*
X126102729Y-94046156D01*
X126106340Y-94021820D01*
X126110927Y-93992890D01*
X126116228Y-93960982D01*
X126121978Y-93927711D01*
X126127912Y-93894692D01*
X126133766Y-93863540D01*
X126135444Y-93854920D01*
X126149955Y-93782741D01*
X126165158Y-93710285D01*
X126180821Y-93638504D01*
X126196711Y-93568348D01*
X126212593Y-93500767D01*
X126228236Y-93436712D01*
X126243405Y-93377132D01*
X126257868Y-93322980D01*
X126271391Y-93275203D01*
X126283741Y-93234755D01*
X126294686Y-93202583D01*
X126297038Y-93196301D01*
X126304154Y-93178180D01*
X126309559Y-93167063D01*
X126314943Y-93160975D01*
X126321994Y-93157938D01*
X126331348Y-93156149D01*
X126350551Y-93152028D01*
X126375905Y-93145255D01*
X126404630Y-93136703D01*
X126433943Y-93127244D01*
X126461064Y-93117753D01*
X126483212Y-93109103D01*
X126488399Y-93106835D01*
X126504514Y-93098703D01*
X126522272Y-93088446D01*
X126539684Y-93077392D01*
X126554757Y-93066865D01*
X126565503Y-93058193D01*
X126569930Y-93052703D01*
X126569951Y-93052495D01*
X126567218Y-93047481D01*
X126560012Y-93037324D01*
X126550809Y-93025387D01*
X126530664Y-93003837D01*
X126504185Y-92980962D01*
X126474033Y-92958798D01*
X126442872Y-92939381D01*
X126428016Y-92931474D01*
X126406912Y-92922116D01*
X126384900Y-92914277D01*
X126364071Y-92908485D01*
X126346516Y-92905266D01*
X126334325Y-92905148D01*
X126330380Y-92906861D01*
X126327706Y-92912404D01*
X126321951Y-92926453D01*
X126313311Y-92948491D01*
X126301982Y-92977997D01*
X126288161Y-93014452D01*
X126272043Y-93057337D01*
X126253825Y-93106132D01*
X126233701Y-93160317D01*
X126211869Y-93219374D01*
X126188524Y-93282783D01*
X126187990Y-93284237D01*
X126174503Y-93320945D01*
X126119969Y-93357788D01*
X126099849Y-93371102D01*
X126082518Y-93382046D01*
X126069530Y-93389676D01*
X126062440Y-93393052D01*
X126061715Y-93393103D01*
X126062061Y-93388275D01*
X126064378Y-93374920D01*
X126068490Y-93353871D01*
X126074222Y-93325960D01*
X126081397Y-93292021D01*
X126089840Y-93252886D01*
X126099376Y-93209389D01*
X126109828Y-93162362D01*
X126118747Y-93122690D01*
X126130486Y-93070724D01*
X126142060Y-93019483D01*
X126153209Y-92970111D01*
X126163674Y-92923755D01*
X126173197Y-92881562D01*
X126181518Y-92844676D01*
X126188381Y-92814245D01*
X126193525Y-92791415D01*
X126195500Y-92782637D01*
X126211500Y-92711468D01*
X126259171Y-92652996D01*
X126283783Y-92623048D01*
X126303577Y-92599615D01*
X126319591Y-92581603D01*
X126332864Y-92567916D01*
X126339605Y-92561826D01*
X126417777Y-92561826D01*
X126419605Y-92565591D01*
X126421332Y-92568705D01*
X126426109Y-92577619D01*
X126428380Y-92581469D01*
X126432690Y-92579786D01*
X126443332Y-92574150D01*
X126458426Y-92565581D01*
X126467342Y-92560344D01*
X126524930Y-92528306D01*
X126585671Y-92498432D01*
X126647404Y-92471614D01*
X126707965Y-92448746D01*
X126765193Y-92430720D01*
X126805298Y-92420772D01*
X126837385Y-92415778D01*
X126876249Y-92412649D01*
X126919251Y-92411359D01*
X126963754Y-92411886D01*
X127007120Y-92414205D01*
X127046709Y-92418290D01*
X127075999Y-92423258D01*
X127156765Y-92444532D01*
X127230592Y-92472408D01*
X127297642Y-92507025D01*
X127358082Y-92548524D01*
X127412074Y-92597043D01*
X127459783Y-92652725D01*
X127501373Y-92715707D01*
X127537010Y-92786132D01*
X127555669Y-92832198D01*
X127567795Y-92868177D01*
X127580058Y-92910599D01*
X127591620Y-92956351D01*
X127601648Y-93002322D01*
X127602424Y-93006253D01*
X127605728Y-93021689D01*
X127609054Y-93029933D01*
X127614151Y-93033239D01*
X127622770Y-93033860D01*
X127623847Y-93033862D01*
X127634797Y-93032812D01*
X127638410Y-93028833D01*
X127638149Y-93025459D01*
X127636515Y-93017435D01*
X127633449Y-93002377D01*
X127629435Y-92982661D01*
X127626174Y-92966641D01*
X127609881Y-92900028D01*
X127588528Y-92833950D01*
X127563064Y-92770833D01*
X127534434Y-92713103D01*
X127513491Y-92677928D01*
X127467770Y-92614994D01*
X127416676Y-92559623D01*
X127360008Y-92511702D01*
X127297565Y-92471121D01*
X127229146Y-92437770D01*
X127154551Y-92411537D01*
X127073577Y-92392311D01*
X126986023Y-92379982D01*
X126970951Y-92378605D01*
X126944323Y-92377733D01*
X126911298Y-92378765D01*
X126874836Y-92381463D01*
X126837902Y-92385589D01*
X126803458Y-92390905D01*
X126793295Y-92392850D01*
X126733926Y-92407903D01*
X126669509Y-92429905D01*
X126601130Y-92458417D01*
X126529875Y-92493000D01*
X126484376Y-92517496D01*
X126458703Y-92531809D01*
X126440283Y-92542195D01*
X126428048Y-92549523D01*
X126420931Y-92554659D01*
X126417863Y-92558471D01*
X126417777Y-92561826D01*
X126339605Y-92561826D01*
X126344436Y-92557462D01*
X126355345Y-92549144D01*
X126361927Y-92544774D01*
X126381901Y-92532104D01*
X126358325Y-92493925D01*
X126344737Y-92470902D01*
X126336989Y-92453792D01*
X126335320Y-92440708D01*
X126339967Y-92429764D01*
X126351168Y-92419074D01*
X126369161Y-92406751D01*
X126369321Y-92406649D01*
X126441738Y-92364843D01*
X126520945Y-92327512D01*
X126604895Y-92295373D01*
X126691541Y-92269144D01*
X126778836Y-92249541D01*
X126847596Y-92239130D01*
X126942363Y-92232352D01*
X127033869Y-92234595D01*
G37*
D15*
%TO.C,C1*%
X123645200Y-102324780D02*
X123645200Y-102043620D01*
X124665200Y-102324780D02*
X124665200Y-102043620D01*
%TO.C,D3*%
X127027000Y-108500800D02*
X127027000Y-109485800D01*
X127027000Y-109485800D02*
X128497000Y-109485800D01*
X128497000Y-109485800D02*
X128497000Y-108500800D01*
D16*
%TO.C,G\u002A\u002A\u002A*%
G36*
X129641995Y-100926855D02*
G01*
X129661481Y-100946811D01*
X129541829Y-101066538D01*
X129422177Y-101186265D01*
X129543116Y-101307129D01*
X129664055Y-101427992D01*
X129645848Y-101446638D01*
X129634619Y-101457179D01*
X129625620Y-101463939D01*
X129622332Y-101465284D01*
X129617705Y-101461903D01*
X129606983Y-101452301D01*
X129591009Y-101437287D01*
X129570627Y-101417673D01*
X129546681Y-101394267D01*
X129520016Y-101367882D01*
X129498745Y-101346630D01*
X129380467Y-101227975D01*
X129261738Y-101346630D01*
X129233622Y-101374657D01*
X129207735Y-101400325D01*
X129184902Y-101422827D01*
X129165944Y-101441360D01*
X129151683Y-101455117D01*
X129142943Y-101463295D01*
X129140495Y-101465284D01*
X129135885Y-101462084D01*
X129126761Y-101453873D01*
X129119515Y-101446820D01*
X129101051Y-101428355D01*
X129220824Y-101308508D01*
X129340597Y-101188660D01*
X129220829Y-101068817D01*
X129101061Y-100948974D01*
X129122018Y-100928018D01*
X129142974Y-100907061D01*
X129262817Y-101026829D01*
X129382660Y-101146597D01*
X129502584Y-101026748D01*
X129622508Y-100906899D01*
X129641995Y-100926855D01*
G37*
G36*
X129422178Y-100506980D02*
G01*
X129422178Y-100665050D01*
X129644710Y-100665050D01*
X129698615Y-100665090D01*
X129743513Y-100665229D01*
X129780272Y-100665493D01*
X129809766Y-100665911D01*
X129832864Y-100666510D01*
X129850438Y-100667319D01*
X129863358Y-100668364D01*
X129872495Y-100669674D01*
X129878721Y-100671276D01*
X129881816Y-100672587D01*
X129892039Y-100678017D01*
X129897379Y-100681127D01*
X129897503Y-100681231D01*
X129897781Y-100686239D01*
X129898143Y-100700154D01*
X129898574Y-100722007D01*
X129899060Y-100750827D01*
X129899583Y-100785643D01*
X129900129Y-100825484D01*
X129900683Y-100869379D01*
X129901207Y-100914506D01*
X129903800Y-101146672D01*
X130063105Y-101147976D01*
X130222411Y-101149279D01*
X130222411Y-101188660D01*
X130222411Y-101228041D01*
X130063105Y-101229344D01*
X129903800Y-101230648D01*
X129902514Y-101457610D01*
X129902204Y-101510826D01*
X129901902Y-101555048D01*
X129901563Y-101591158D01*
X129901142Y-101620042D01*
X129900596Y-101642583D01*
X129899879Y-101659665D01*
X129898948Y-101672172D01*
X129897758Y-101680990D01*
X129896264Y-101687001D01*
X129894423Y-101691090D01*
X129892189Y-101694140D01*
X129890539Y-101695951D01*
X129879849Y-101707330D01*
X129651013Y-101707330D01*
X129422178Y-101707330D01*
X129422178Y-101867870D01*
X129422178Y-102028411D01*
X129382728Y-102028411D01*
X129343279Y-102028411D01*
X129341976Y-101869105D01*
X129340672Y-101709800D01*
X129108506Y-101707207D01*
X129061627Y-101706661D01*
X129017870Y-101706108D01*
X128978204Y-101705562D01*
X128943601Y-101705040D01*
X128915031Y-101704557D01*
X128893466Y-101704128D01*
X128879875Y-101703768D01*
X128875231Y-101703503D01*
X128872447Y-101698821D01*
X128867154Y-101688911D01*
X128866587Y-101687816D01*
X128864764Y-101683112D01*
X128863252Y-101676106D01*
X128862025Y-101665927D01*
X128861053Y-101651706D01*
X128860310Y-101632570D01*
X128860217Y-101628294D01*
X128943026Y-101628294D01*
X129382660Y-101628294D01*
X129822294Y-101628294D01*
X129822294Y-101188660D01*
X129822294Y-100749026D01*
X129382660Y-100749026D01*
X128943026Y-100749026D01*
X128943026Y-101188660D01*
X128943026Y-101628294D01*
X128860217Y-101628294D01*
X128859768Y-101607649D01*
X128859399Y-101576072D01*
X128859175Y-101536968D01*
X128859069Y-101489466D01*
X128859050Y-101450710D01*
X128859050Y-101228178D01*
X128700980Y-101228178D01*
X128542909Y-101228178D01*
X128542909Y-101188660D01*
X128542909Y-101149142D01*
X128700837Y-101149142D01*
X128858766Y-101149142D01*
X128860143Y-100919579D01*
X128861520Y-100690016D01*
X128872768Y-100678768D01*
X128884016Y-100667520D01*
X129113579Y-100666143D01*
X129343142Y-100664766D01*
X129343142Y-100506837D01*
X129343142Y-100348909D01*
X129382660Y-100348909D01*
X129422178Y-100348909D01*
X129422178Y-100506980D01*
G37*
D15*
%TO.C,R1*%
X131385542Y-100417100D02*
X131860058Y-100417100D01*
X131385542Y-101462100D02*
X131860058Y-101462100D01*
%TO.C,C2*%
X131763380Y-98956400D02*
X131482220Y-98956400D01*
X131763380Y-99976400D02*
X131482220Y-99976400D01*
%TO.C,R3*%
X128763500Y-108238058D02*
X128763500Y-107763542D01*
X129808500Y-108238058D02*
X129808500Y-107763542D01*
%TO.C,R2*%
X124191500Y-108238058D02*
X124191500Y-107763542D01*
X125236500Y-108238058D02*
X125236500Y-107763542D01*
%TO.C,D2*%
X125503000Y-108500800D02*
X125503000Y-109485800D01*
X125503000Y-109485800D02*
X126973000Y-109485800D01*
X126973000Y-109485800D02*
X126973000Y-108500800D01*
%TO.C,D1*%
X123814600Y-97826999D02*
X123814600Y-100547001D01*
X123814600Y-97826999D02*
X125474599Y-97826999D01*
X123814600Y-100547001D02*
X125474600Y-100547000D01*
D11*
%TO.C,J1*%
X123100000Y-96238000D02*
X123100000Y-96838000D01*
X123100000Y-96838000D02*
X123450000Y-96538000D01*
X123450000Y-96538000D02*
X123100000Y-96238000D01*
%TD*%
M02*
