%TF.GenerationSoftware,KiCad,Pcbnew,8.0.6-8.0.6-0~ubuntu24.04.1*%
%TF.CreationDate,2024-10-24T19:59:44-07:00*%
%TF.ProjectId,mag-encoder,6d61672d-656e-4636-9f64-65722e6b6963,3*%
%TF.SameCoordinates,Original*%
%TF.FileFunction,Copper,L1,Top*%
%TF.FilePolarity,Positive*%
%FSLAX46Y46*%
G04 Gerber Fmt 4.6, Leading zero omitted, Abs format (unit mm)*
G04 Created by KiCad (PCBNEW 8.0.6-8.0.6-0~ubuntu24.04.1) date 2024-10-24 19:59:44*
%MOMM*%
%LPD*%
G01*
G04 APERTURE LIST*
G04 Aperture macros list*
%AMRoundRect*
0 Rectangle with rounded corners*
0 $1 Rounding radius*
0 $2 $3 $4 $5 $6 $7 $8 $9 X,Y pos of 4 corners*
0 Add a 4 corners polygon primitive as box body*
4,1,4,$2,$3,$4,$5,$6,$7,$8,$9,$2,$3,0*
0 Add four circle primitives for the rounded corners*
1,1,$1+$1,$2,$3*
1,1,$1+$1,$4,$5*
1,1,$1+$1,$6,$7*
1,1,$1+$1,$8,$9*
0 Add four rect primitives between the rounded corners*
20,1,$1+$1,$2,$3,$4,$5,0*
20,1,$1+$1,$4,$5,$6,$7,0*
20,1,$1+$1,$6,$7,$8,$9,0*
20,1,$1+$1,$8,$9,$2,$3,0*%
G04 Aperture macros list end*
%TA.AperFunction,ComponentPad*%
%ADD10C,3.810000*%
%TD*%
%TA.AperFunction,SMDPad,CuDef*%
%ADD11RoundRect,0.218750X-0.256250X0.218750X-0.256250X-0.218750X0.256250X-0.218750X0.256250X0.218750X0*%
%TD*%
%TA.AperFunction,SMDPad,CuDef*%
%ADD12RoundRect,0.218750X0.256250X-0.218750X0.256250X0.218750X-0.256250X0.218750X-0.256250X-0.218750X0*%
%TD*%
%TA.AperFunction,SMDPad,CuDef*%
%ADD13RoundRect,0.150000X-0.150000X0.587500X-0.150000X-0.587500X0.150000X-0.587500X0.150000X0.587500X0*%
%TD*%
%TA.AperFunction,SMDPad,CuDef*%
%ADD14RoundRect,0.150000X0.150000X-0.587500X0.150000X0.587500X-0.150000X0.587500X-0.150000X-0.587500X0*%
%TD*%
%TA.AperFunction,SMDPad,CuDef*%
%ADD15RoundRect,0.121324X2.543676X-0.703676X2.543676X0.703676X-2.543676X0.703676X-2.543676X-0.703676X0*%
%TD*%
%TA.AperFunction,ComponentPad*%
%ADD16R,1.700000X1.700000*%
%TD*%
%TA.AperFunction,ComponentPad*%
%ADD17O,1.700000X1.700000*%
%TD*%
%TA.AperFunction,SMDPad,CuDef*%
%ADD18RoundRect,0.225000X-0.225000X-0.375000X0.225000X-0.375000X0.225000X0.375000X-0.225000X0.375000X0*%
%TD*%
%TA.AperFunction,ViaPad*%
%ADD19C,0.600000*%
%TD*%
%TA.AperFunction,ViaPad*%
%ADD20C,0.609600*%
%TD*%
%TA.AperFunction,Conductor*%
%ADD21C,0.381000*%
%TD*%
%TA.AperFunction,Conductor*%
%ADD22C,0.254000*%
%TD*%
G04 APERTURE END LIST*
D10*
%TO.P,H1,*%
%TO.N,*%
X224840800Y-114046000D03*
%TD*%
D11*
%TO.P,D1,1,K*%
%TO.N,Net-(D1-K)*%
X228981000Y-112242500D03*
%TO.P,D1,2,A*%
%TO.N,+3.3V*%
X228981000Y-113817500D03*
%TD*%
D12*
%TO.P,D3,1,K*%
%TO.N,GND*%
X228981000Y-134518500D03*
%TO.P,D3,2,A*%
%TO.N,Net-(D3-A)*%
X228981000Y-132943500D03*
%TD*%
D13*
%TO.P,Q1,1,G*%
%TO.N,Net-(Q1-G)*%
X235646000Y-133174500D03*
%TO.P,Q1,2,S*%
%TO.N,+3.3V*%
X233746000Y-133174500D03*
%TO.P,Q1,3,D*%
%TO.N,Net-(Q1-D)*%
X234696000Y-135049500D03*
%TD*%
D14*
%TO.P,U1,1,GND*%
%TO.N,GND*%
X230647200Y-113967500D03*
%TO.P,U1,2,V_{OUT}*%
%TO.N,+3.3V*%
X232547200Y-113967500D03*
%TO.P,U1,3,V_{IN}*%
%TO.N,+5V*%
X231597200Y-112092500D03*
%TD*%
D15*
%TO.P,J2,1,Pin_1*%
%TO.N,GND*%
X226487800Y-118491000D03*
%TO.P,J2,2,Pin_2*%
%TO.N,+5V_IN*%
X226487800Y-121031000D03*
%TO.P,J2,3,Pin_3*%
%TO.N,/A*%
X226487800Y-123571000D03*
%TO.P,J2,4,Pin_4*%
%TO.N,/B*%
X226487800Y-126111000D03*
%TO.P,J2,5,Pin_5*%
%TO.N,/PWM*%
X226487800Y-128651000D03*
%TD*%
D12*
%TO.P,D4,1,K*%
%TO.N,Net-(D4-K)*%
X230505000Y-134518500D03*
%TO.P,D4,2,A*%
%TO.N,Net-(D4-A)*%
X230505000Y-132943500D03*
%TD*%
D16*
%TO.P,J1,1,Pin_1*%
%TO.N,GND*%
X221411800Y-117221000D03*
D17*
%TO.P,J1,2,Pin_2*%
%TO.N,+3.3V*%
X221411800Y-119761000D03*
%TO.P,J1,3,Pin_3*%
%TO.N,/CS*%
X221411800Y-122301000D03*
%TO.P,J1,4,Pin_4*%
%TO.N,/MOSI*%
X221411800Y-124841000D03*
%TO.P,J1,5,Pin_5*%
%TO.N,/MISO*%
X221411800Y-127381000D03*
%TO.P,J1,6,Pin_6*%
%TO.N,/SCLK*%
X221411800Y-129921000D03*
%TD*%
D18*
%TO.P,D2,1,K*%
%TO.N,+5V*%
X234189000Y-113792000D03*
%TO.P,D2,2,A*%
%TO.N,+5V_IN*%
X237489000Y-113792000D03*
%TD*%
D12*
%TO.P,D5,1,K*%
%TO.N,GND*%
X232029000Y-134518500D03*
%TO.P,D5,2,A*%
%TO.N,Net-(D5-A)*%
X232029000Y-132943500D03*
%TD*%
D10*
%TO.P,H2,*%
%TO.N,*%
X224840800Y-133096000D03*
%TD*%
D19*
%TO.N,+3.3V*%
X232689400Y-111175800D03*
D20*
X233464100Y-125260100D03*
X231317800Y-125984000D03*
D19*
X233248200Y-134518400D03*
X228473000Y-115417600D03*
%TO.N,GND*%
X230657400Y-115265200D03*
D20*
X226491800Y-117094000D03*
X232003600Y-122097800D03*
D19*
X228955600Y-135509000D03*
X232029000Y-135509000D03*
D20*
X233984800Y-121793000D03*
D19*
%TO.N,+5V*%
X230530400Y-111226600D03*
%TO.N,Net-(D4-A)*%
X231292400Y-131826000D03*
%TO.N,Net-(D1-K)*%
X228981000Y-111226600D03*
%TO.N,Net-(D3-A)*%
X233924399Y-131273400D03*
%TO.N,Net-(D4-K)*%
X230505000Y-135559800D03*
D20*
X229368646Y-130086100D03*
X231267000Y-129387600D03*
%TO.N,/A*%
X223157754Y-124046954D03*
%TO.N,/B*%
X236245400Y-125412501D03*
%TO.N,/PWM*%
X234911727Y-126377562D03*
D19*
%TO.N,Net-(Q1-D)*%
X233603800Y-135890000D03*
%TO.N,Net-(Q1-G)*%
X234883106Y-127441105D03*
%TO.N,Net-(D5-A)*%
X233019600Y-131724400D03*
D20*
%TO.N,/MISO*%
X231495600Y-121031000D03*
X230657400Y-126822200D03*
%TD*%
D21*
%TO.N,+3.3V*%
X233248200Y-134518400D02*
X233451400Y-134518400D01*
X232689400Y-111175800D02*
X232537000Y-111328200D01*
X233451400Y-134518400D02*
X233746000Y-134223800D01*
X228981000Y-113817500D02*
X228981000Y-114909600D01*
X232537000Y-113957300D02*
X232547200Y-113967500D01*
X228981000Y-114909600D02*
X228473000Y-115417600D01*
X233746000Y-134223800D02*
X233746000Y-133174500D01*
X232537000Y-111328200D02*
X232537000Y-113957300D01*
%TO.N,GND*%
X230647200Y-113967500D02*
X230647200Y-115255000D01*
X232029000Y-134518500D02*
X232029000Y-135509000D01*
X228981000Y-134518500D02*
X228981000Y-135483600D01*
X226487800Y-117098000D02*
X226491800Y-117094000D01*
X228981000Y-135483600D02*
X228955600Y-135509000D01*
X230647200Y-115255000D02*
X230657400Y-115265200D01*
X226487800Y-118491000D02*
X226487800Y-117098000D01*
%TO.N,+5V*%
X234189000Y-114883200D02*
X233400600Y-115671600D01*
X231597200Y-112092500D02*
X230888300Y-112092500D01*
X231597200Y-115239800D02*
X231597200Y-112092500D01*
X230530400Y-111734600D02*
X230530400Y-111226600D01*
X230888300Y-112092500D02*
X230530400Y-111734600D01*
X233400600Y-115671600D02*
X232029000Y-115671600D01*
X232029000Y-115671600D02*
X231597200Y-115239800D01*
X234189000Y-113792000D02*
X234189000Y-114883200D01*
%TO.N,Net-(D4-A)*%
X230835200Y-131826000D02*
X231292400Y-131826000D01*
X230505000Y-132943500D02*
X230505000Y-132156200D01*
X230505000Y-132156200D02*
X230835200Y-131826000D01*
%TO.N,Net-(D1-K)*%
X228981000Y-112242500D02*
X228981000Y-111226600D01*
%TO.N,Net-(D3-A)*%
X228981000Y-131826000D02*
X228981000Y-132943500D01*
X229870000Y-130937000D02*
X228981000Y-131826000D01*
X233587999Y-130937000D02*
X229870000Y-130937000D01*
X233924399Y-131273400D02*
X233587999Y-130937000D01*
%TO.N,+5V_IN*%
X230403400Y-120624600D02*
X230403400Y-119811800D01*
X230403400Y-119811800D02*
X236423200Y-113792000D01*
X236423200Y-113792000D02*
X237362000Y-113792000D01*
X229997000Y-121031000D02*
X230403400Y-120624600D01*
X226487800Y-121031000D02*
X229997000Y-121031000D01*
%TO.N,Net-(D4-K)*%
X230568500Y-130086100D02*
X229368646Y-130086100D01*
X230505000Y-134518500D02*
X230505000Y-135559800D01*
X231267000Y-129387600D02*
X230568500Y-130086100D01*
%TO.N,/A*%
X223157754Y-123857046D02*
X223443800Y-123571000D01*
X223157754Y-124046954D02*
X223157754Y-123857046D01*
X223443800Y-123571000D02*
X226487800Y-123571000D01*
%TO.N,/B*%
X236232701Y-125425200D02*
X234619800Y-125425200D01*
X229590600Y-126111000D02*
X226487800Y-126111000D01*
X232359200Y-127685800D02*
X230251000Y-127685800D01*
X236245400Y-125412501D02*
X236232701Y-125425200D01*
X230251000Y-127685800D02*
X229844600Y-127279400D01*
X229844600Y-126365000D02*
X229590600Y-126111000D01*
X234619800Y-125425200D02*
X232359200Y-127685800D01*
X229844600Y-127279400D02*
X229844600Y-126365000D01*
%TO.N,/PWM*%
X232638289Y-128651000D02*
X226487800Y-128651000D01*
X234911727Y-126377562D02*
X232638289Y-128651000D01*
%TO.N,Net-(Q1-D)*%
X234696000Y-135049500D02*
X233783900Y-135049500D01*
X233783900Y-135049500D02*
X233603800Y-135229600D01*
X233603800Y-135229600D02*
X233603800Y-135890000D01*
%TO.N,Net-(Q1-G)*%
X234649100Y-127675111D02*
X234649100Y-131169500D01*
X234649100Y-131169500D02*
X235646000Y-132166400D01*
X235646000Y-132166400D02*
X235646000Y-133174500D01*
X234883106Y-127441105D02*
X234649100Y-127675111D01*
%TO.N,Net-(D5-A)*%
X232511600Y-131724400D02*
X232029000Y-132207000D01*
X233019600Y-131724400D02*
X232511600Y-131724400D01*
X232029000Y-132207000D02*
X232029000Y-132943500D01*
D22*
%TO.N,/MISO*%
X230632000Y-124452223D02*
X230632000Y-126796800D01*
X230632000Y-126796800D02*
X230657400Y-126822200D01*
X231232800Y-123851423D02*
X230632000Y-124452223D01*
X231232800Y-121293800D02*
X231232800Y-123851423D01*
X231495600Y-121031000D02*
X231232800Y-121293800D01*
%TD*%
M02*
