%TF.GenerationSoftware,KiCad,Pcbnew,8.0.2-1*%
%TF.CreationDate,2024-10-12T13:21:51-07:00*%
%TF.ProjectId,TEE-CAN-SL,5445452d-4341-44e2-9d53-4c2e6b696361,R4*%
%TF.SameCoordinates,Original*%
%TF.FileFunction,Copper,L2,Bot*%
%TF.FilePolarity,Positive*%
%FSLAX46Y46*%
G04 Gerber Fmt 4.6, Leading zero omitted, Abs format (unit mm)*
G04 Created by KiCad (PCBNEW 8.0.2-1) date 2024-10-12 13:21:51*
%MOMM*%
%LPD*%
G01*
G04 APERTURE LIST*
%ADD10C,0.300000*%
%TA.AperFunction,NonConductor*%
%ADD11C,0.300000*%
%TD*%
%TA.AperFunction,ComponentPad*%
%ADD12R,1.905000X1.600200*%
%TD*%
%TA.AperFunction,ComponentPad*%
%ADD13O,1.905000X1.600200*%
%TD*%
%TA.AperFunction,Conductor*%
%ADD14C,0.508000*%
%TD*%
G04 APERTURE END LIST*
D10*
D11*
G36*
X15402408Y-106480743D02*
G01*
X15502513Y-106484326D01*
X15605922Y-106492468D01*
X15663947Y-106500590D01*
X15763760Y-106527039D01*
X15853883Y-106570778D01*
X15877853Y-106586450D01*
X15954284Y-106651698D01*
X16018555Y-106733666D01*
X16034684Y-106760156D01*
X16075494Y-106852486D01*
X16095499Y-106953663D01*
X16097715Y-107003343D01*
X16086827Y-107109428D01*
X16054164Y-107208812D01*
X16020292Y-107271346D01*
X15954478Y-107354329D01*
X15873169Y-107420144D01*
X15810356Y-107454481D01*
X15908733Y-107491275D01*
X16001925Y-107546431D01*
X16078154Y-107616611D01*
X16097715Y-107640595D01*
X16150844Y-107727302D01*
X16184296Y-107823024D01*
X16198070Y-107927761D01*
X16198464Y-107949790D01*
X16189321Y-108053711D01*
X16161893Y-108155538D01*
X16133448Y-108222260D01*
X16078057Y-108313804D01*
X16009404Y-108390413D01*
X15956269Y-108433188D01*
X15864748Y-108483857D01*
X15767856Y-108515344D01*
X15679333Y-108530463D01*
X15573878Y-108537031D01*
X15470863Y-108540234D01*
X15360335Y-108542374D01*
X15252554Y-108543731D01*
X15181046Y-108544360D01*
X14484239Y-108544360D01*
X14484239Y-108194963D01*
X14897162Y-108194963D01*
X15279810Y-108194963D01*
X15381273Y-108194188D01*
X15487457Y-108190589D01*
X15563198Y-108182556D01*
X15660571Y-108146310D01*
X15713081Y-108102155D01*
X15761565Y-108010731D01*
X15771148Y-107930435D01*
X15755402Y-107832380D01*
X15726481Y-107776581D01*
X15650757Y-107708164D01*
X15597443Y-107684269D01*
X15496210Y-107665310D01*
X15387835Y-107657847D01*
X15281885Y-107655245D01*
X15230676Y-107654987D01*
X14897162Y-107654987D01*
X14897162Y-108194963D01*
X14484239Y-108194963D01*
X14484239Y-107305591D01*
X14897162Y-107305591D01*
X15168142Y-107305591D01*
X15277328Y-107305157D01*
X15381707Y-107303393D01*
X15467908Y-107298643D01*
X15567868Y-107271346D01*
X15634666Y-107224694D01*
X15685636Y-107138556D01*
X15695711Y-107063892D01*
X15677164Y-106962919D01*
X15643103Y-106908550D01*
X15557995Y-106852328D01*
X15487760Y-106836090D01*
X15379466Y-106831103D01*
X15265914Y-106829576D01*
X15152408Y-106829148D01*
X15134394Y-106829142D01*
X14897162Y-106829142D01*
X14897162Y-107305591D01*
X14484239Y-107305591D01*
X14484239Y-106479745D01*
X15302144Y-106479745D01*
X15402408Y-106480743D01*
G37*
G36*
X16532475Y-108544360D02*
G01*
X16532475Y-108163200D01*
X16925049Y-108163200D01*
X16925049Y-108544360D01*
X16532475Y-108544360D01*
G37*
G36*
X18634808Y-107750277D02*
G01*
X19035323Y-107877330D01*
X19003495Y-107978852D01*
X18965705Y-108071867D01*
X18912489Y-108172257D01*
X18850687Y-108260399D01*
X18780302Y-108336293D01*
X18728609Y-108380084D01*
X18644329Y-108435912D01*
X18551918Y-108480189D01*
X18451376Y-108512916D01*
X18342703Y-108534092D01*
X18225900Y-108543718D01*
X18185159Y-108544360D01*
X18085557Y-108540048D01*
X17967424Y-108522532D01*
X17856367Y-108491542D01*
X17752386Y-108447079D01*
X17655481Y-108389141D01*
X17565652Y-108317730D01*
X17515152Y-108268416D01*
X17439660Y-108177240D01*
X17376963Y-108076177D01*
X17327061Y-107965226D01*
X17296353Y-107869347D01*
X17273833Y-107767140D01*
X17259502Y-107658605D01*
X17253360Y-107543742D01*
X17253105Y-107514038D01*
X17257222Y-107391017D01*
X17269576Y-107275069D01*
X17290164Y-107166192D01*
X17318989Y-107064389D01*
X17356048Y-106969657D01*
X17413954Y-106861188D01*
X17484728Y-106763769D01*
X17516641Y-106727896D01*
X17603198Y-106647257D01*
X17697849Y-106580285D01*
X17800594Y-106526981D01*
X17911433Y-106487345D01*
X18030366Y-106461376D01*
X18131340Y-106450442D01*
X18210470Y-106447982D01*
X18324423Y-106453725D01*
X18431470Y-106470955D01*
X18531610Y-106499672D01*
X18624843Y-106539875D01*
X18711170Y-106591565D01*
X18790590Y-106654742D01*
X18820425Y-106683229D01*
X18885812Y-106760528D01*
X18942515Y-106852964D01*
X18985005Y-106946263D01*
X19020845Y-107051151D01*
X19029864Y-107083248D01*
X18620911Y-107146775D01*
X18586679Y-107043575D01*
X18533797Y-106956445D01*
X18469539Y-106891179D01*
X18384515Y-106837775D01*
X18287761Y-106806539D01*
X18189625Y-106797378D01*
X18081308Y-106807490D01*
X17983660Y-106837827D01*
X17896684Y-106888388D01*
X17820377Y-106959173D01*
X17758495Y-107052632D01*
X17718851Y-107155020D01*
X17695645Y-107258092D01*
X17682385Y-107375297D01*
X17678931Y-107483763D01*
X17682336Y-107598557D01*
X17692550Y-107702543D01*
X17713796Y-107813059D01*
X17744848Y-107908012D01*
X17793469Y-107999119D01*
X17818392Y-108031680D01*
X17893365Y-108103116D01*
X17978821Y-108154142D01*
X18074763Y-108184758D01*
X18181188Y-108194963D01*
X18289015Y-108182296D01*
X18385934Y-108144294D01*
X18464576Y-108087762D01*
X18532168Y-108008742D01*
X18581813Y-107917069D01*
X18617042Y-107819236D01*
X18634808Y-107750277D01*
G37*
G36*
X20351018Y-108544360D02*
G01*
X20351018Y-108322513D01*
X20283157Y-108404286D01*
X20200918Y-108471682D01*
X20138105Y-108508626D01*
X20045867Y-108547054D01*
X19941097Y-108570784D01*
X19859680Y-108576123D01*
X19752269Y-108566840D01*
X19653374Y-108538993D01*
X19592173Y-108510115D01*
X19506610Y-108447719D01*
X19442670Y-108367794D01*
X19420453Y-108324994D01*
X19388093Y-108222516D01*
X19372535Y-108117604D01*
X19367401Y-108008017D01*
X19367349Y-107994954D01*
X19367349Y-107051485D01*
X19759427Y-107051485D01*
X19759427Y-107744818D01*
X19760177Y-107855462D01*
X19762949Y-107962671D01*
X19769514Y-108065894D01*
X19780768Y-108134911D01*
X19830363Y-108222518D01*
X19859680Y-108248564D01*
X19953149Y-108286182D01*
X20005096Y-108290253D01*
X20105732Y-108274425D01*
X20184757Y-108234171D01*
X20258633Y-108162599D01*
X20293944Y-108095207D01*
X20312902Y-107987736D01*
X20319765Y-107882109D01*
X20322768Y-107765003D01*
X20323225Y-107687743D01*
X20323225Y-107051485D01*
X20715304Y-107051485D01*
X20715304Y-108544360D01*
X20351018Y-108544360D01*
G37*
D12*
%TO.P,J4,1,Pin_1*%
%TO.N,/CAN_L*%
X215582580Y-136163855D03*
D13*
%TO.P,J4,2,Pin_2*%
%TO.N,/CAN_H*%
X215582580Y-133623855D03*
%TD*%
D12*
%TO.P,J2,1,Pin_1*%
%TO.N,/CAN_L*%
X215582580Y-120923855D03*
D13*
%TO.P,J2,2,Pin_2*%
%TO.N,/CAN_H*%
X215582580Y-118383855D03*
%TD*%
D12*
%TO.P,J3,1,Pin_1*%
%TO.N,/CAN_L*%
X207962580Y-133623855D03*
D13*
%TO.P,J3,2,Pin_2*%
%TO.N,/CAN_H*%
X207962580Y-136163855D03*
%TD*%
D12*
%TO.P,J1,1,Pin_1*%
%TO.N,/CAN_L*%
X207962580Y-118383855D03*
D13*
%TO.P,J1,2,Pin_2*%
%TO.N,/CAN_H*%
X207962580Y-120923855D03*
%TD*%
D14*
%TO.N,/CAN_L*%
X209969180Y-121177855D02*
X209969180Y-120390455D01*
X209969180Y-120390455D02*
X207962580Y-118383855D01*
X217043080Y-133082022D02*
X216276813Y-132315755D01*
X215582580Y-136163855D02*
X217043080Y-134703355D01*
X213042580Y-130006225D02*
X213042580Y-124251255D01*
X213042580Y-124251255D02*
X209969180Y-121177855D01*
X215352110Y-132315755D02*
X213042580Y-130006225D01*
X216276813Y-132315755D02*
X215352110Y-132315755D01*
X217043080Y-134703355D02*
X217043080Y-133082022D01*
%TO.N,/CAN_H*%
X212280580Y-124581455D02*
X208622980Y-120923855D01*
X208622980Y-120923855D02*
X207962580Y-120923855D01*
X215582580Y-133623855D02*
X212280580Y-130321855D01*
X212280580Y-130321855D02*
X212280580Y-124581455D01*
%TD*%
M02*
