%TF.GenerationSoftware,KiCad,Pcbnew,8.0.2-1*%
%TF.CreationDate,2024-10-12T13:21:48-07:00*%
%TF.ProjectId,TEE-CAN-SL,5445452d-4341-44e2-9d53-4c2e6b696361,R4*%
%TF.SameCoordinates,Original*%
%TF.FileFunction,Copper,L1,Top*%
%TF.FilePolarity,Positive*%
%FSLAX46Y46*%
G04 Gerber Fmt 4.6, Leading zero omitted, Abs format (unit mm)*
G04 Created by KiCad (PCBNEW 8.0.2-1) date 2024-10-12 13:21:48*
%MOMM*%
%LPD*%
G01*
G04 APERTURE LIST*
%ADD10C,0.300000*%
%TA.AperFunction,NonConductor*%
%ADD11C,0.300000*%
%TD*%
%TA.AperFunction,ComponentPad*%
%ADD12R,1.905000X1.600200*%
%TD*%
%TA.AperFunction,ComponentPad*%
%ADD13O,1.905000X1.600200*%
%TD*%
%TA.AperFunction,Conductor*%
%ADD14C,0.508000*%
%TD*%
G04 APERTURE END LIST*
D10*
D11*
G36*
X14485728Y-105369360D02*
G01*
X14485728Y-103304745D01*
X15888276Y-103304745D01*
X15888276Y-103654142D01*
X14898650Y-103654142D01*
X14898650Y-104130591D01*
X15752785Y-104130591D01*
X15752785Y-104479987D01*
X14898650Y-104479987D01*
X14898650Y-105369360D01*
X14485728Y-105369360D01*
G37*
G36*
X15901179Y-105369360D02*
G01*
X15901179Y-104988200D01*
X16293754Y-104988200D01*
X16293754Y-105369360D01*
X15901179Y-105369360D01*
G37*
G36*
X18003512Y-104575277D02*
G01*
X18404028Y-104702330D01*
X18372199Y-104803852D01*
X18334410Y-104896867D01*
X18281193Y-104997257D01*
X18219392Y-105085399D01*
X18149006Y-105161293D01*
X18097313Y-105205084D01*
X18013033Y-105260912D01*
X17920622Y-105305189D01*
X17820081Y-105337916D01*
X17711408Y-105359092D01*
X17594605Y-105368718D01*
X17553863Y-105369360D01*
X17454262Y-105365048D01*
X17336128Y-105347532D01*
X17225071Y-105316542D01*
X17121090Y-105272079D01*
X17024186Y-105214141D01*
X16934357Y-105142730D01*
X16883856Y-105093416D01*
X16808364Y-105002240D01*
X16745667Y-104901177D01*
X16695766Y-104790226D01*
X16665057Y-104694347D01*
X16642537Y-104592140D01*
X16628207Y-104483605D01*
X16622065Y-104368742D01*
X16621809Y-104339038D01*
X16625927Y-104216017D01*
X16638280Y-104100069D01*
X16658869Y-103991192D01*
X16687693Y-103889389D01*
X16724753Y-103794657D01*
X16782659Y-103686188D01*
X16853433Y-103588769D01*
X16885345Y-103552896D01*
X16971902Y-103472257D01*
X17066553Y-103405285D01*
X17169298Y-103351981D01*
X17280138Y-103312345D01*
X17399071Y-103286376D01*
X17500045Y-103275442D01*
X17579175Y-103272982D01*
X17693128Y-103278725D01*
X17800174Y-103295955D01*
X17900314Y-103324672D01*
X17993548Y-103364875D01*
X18079874Y-103416565D01*
X18159295Y-103479742D01*
X18189129Y-103508229D01*
X18254517Y-103585528D01*
X18311219Y-103677964D01*
X18353709Y-103771263D01*
X18389550Y-103876151D01*
X18398568Y-103908248D01*
X17989616Y-103971775D01*
X17955383Y-103868575D01*
X17902501Y-103781445D01*
X17838244Y-103716179D01*
X17753219Y-103662775D01*
X17656466Y-103631539D01*
X17558330Y-103622378D01*
X17450012Y-103632490D01*
X17352365Y-103662827D01*
X17265388Y-103713388D01*
X17189082Y-103784173D01*
X17127199Y-103877632D01*
X17087556Y-103980020D01*
X17064350Y-104083092D01*
X17051089Y-104200297D01*
X17047636Y-104308763D01*
X17051041Y-104423557D01*
X17061255Y-104527543D01*
X17082501Y-104638059D01*
X17113553Y-104733012D01*
X17162173Y-104824119D01*
X17187096Y-104856680D01*
X17262069Y-104928116D01*
X17347526Y-104979142D01*
X17443467Y-105009758D01*
X17549893Y-105019963D01*
X17657720Y-105007296D01*
X17754639Y-104969294D01*
X17833281Y-104912762D01*
X17900873Y-104833742D01*
X17950517Y-104742069D01*
X17985747Y-104644236D01*
X18003512Y-104575277D01*
G37*
G36*
X19719723Y-105369360D02*
G01*
X19719723Y-105147513D01*
X19651861Y-105229286D01*
X19569623Y-105296682D01*
X19506810Y-105333626D01*
X19414572Y-105372054D01*
X19309802Y-105395784D01*
X19228384Y-105401123D01*
X19120974Y-105391840D01*
X19022078Y-105363993D01*
X18960878Y-105335115D01*
X18875314Y-105272719D01*
X18811375Y-105192794D01*
X18789158Y-105149994D01*
X18756797Y-105047516D01*
X18741239Y-104942604D01*
X18736105Y-104833017D01*
X18736053Y-104819954D01*
X18736053Y-103876485D01*
X19128132Y-103876485D01*
X19128132Y-104569818D01*
X19128882Y-104680462D01*
X19131654Y-104787671D01*
X19138218Y-104890894D01*
X19149472Y-104959911D01*
X19199067Y-105047518D01*
X19228384Y-105073564D01*
X19321854Y-105111182D01*
X19373801Y-105115253D01*
X19474437Y-105099425D01*
X19553462Y-105059171D01*
X19627337Y-104987599D01*
X19662648Y-104920207D01*
X19681607Y-104812736D01*
X19688470Y-104707109D01*
X19691472Y-104590003D01*
X19691930Y-104512743D01*
X19691930Y-103876485D01*
X20084008Y-103876485D01*
X20084008Y-105369360D01*
X19719723Y-105369360D01*
G37*
D12*
%TO.P,J4,1,Pin_1*%
%TO.N,/CAN_L*%
X215582580Y-136163855D03*
D13*
%TO.P,J4,2,Pin_2*%
%TO.N,/CAN_H*%
X215582580Y-133623855D03*
%TD*%
D12*
%TO.P,J2,1,Pin_1*%
%TO.N,/CAN_L*%
X215582580Y-120923855D03*
D13*
%TO.P,J2,2,Pin_2*%
%TO.N,/CAN_H*%
X215582580Y-118383855D03*
%TD*%
D12*
%TO.P,J3,1,Pin_1*%
%TO.N,/CAN_L*%
X207962580Y-133623855D03*
D13*
%TO.P,J3,2,Pin_2*%
%TO.N,/CAN_H*%
X207962580Y-136163855D03*
%TD*%
D12*
%TO.P,J1,1,Pin_1*%
%TO.N,/CAN_L*%
X207962580Y-118383855D03*
D13*
%TO.P,J1,2,Pin_2*%
%TO.N,/CAN_H*%
X207962580Y-120923855D03*
%TD*%
D14*
%TO.N,/CAN_L*%
X207268347Y-137471955D02*
X208748110Y-137471955D01*
X206502080Y-136705688D02*
X207268347Y-137471955D01*
X207962580Y-133623855D02*
X206502080Y-135084355D01*
X217043080Y-119463355D02*
X217043080Y-117842022D01*
X214668180Y-136163855D02*
X215582580Y-136163855D01*
X214797050Y-117075755D02*
X212599950Y-119272855D01*
X216276813Y-117075755D02*
X214797050Y-117075755D01*
X212599950Y-119272855D02*
X209791380Y-119272855D01*
X208902380Y-118383855D02*
X207962580Y-118383855D01*
X209791380Y-119272855D02*
X208902380Y-118383855D01*
X206502080Y-135084355D02*
X206502080Y-136705688D01*
X210945210Y-135274855D02*
X213779180Y-135274855D01*
X217043080Y-117842022D02*
X216276813Y-117075755D01*
X208748110Y-137471955D02*
X210945210Y-135274855D01*
X213779180Y-135274855D02*
X214668180Y-136163855D01*
X215582580Y-120923855D02*
X217043080Y-119463355D01*
%TO.N,/CAN_H*%
X215582580Y-118383855D02*
X214566580Y-118383855D01*
X207962580Y-136163855D02*
X208978580Y-136163855D01*
X208876980Y-120923855D02*
X207962580Y-120923855D01*
X214718980Y-133623855D02*
X215582580Y-133623855D01*
X208978580Y-136163855D02*
X210629580Y-134512855D01*
X212915580Y-120034855D02*
X209765980Y-120034855D01*
X210629580Y-134512855D02*
X213829980Y-134512855D01*
X209765980Y-120034855D02*
X208876980Y-120923855D01*
X213829980Y-134512855D02*
X214718980Y-133623855D01*
X214566580Y-118383855D02*
X212915580Y-120034855D01*
%TD*%
M02*
