%TF.GenerationSoftware,KiCad,Pcbnew,8.0.6-8.0.6-0~ubuntu24.04.1*%
%TF.CreationDate,2024-11-25T11:24:23-08:00*%
%TF.ProjectId,mag-encoder,6d61672d-656e-4636-9f64-65722e6b6963,4*%
%TF.SameCoordinates,Original*%
%TF.FileFunction,Soldermask,Bot*%
%TF.FilePolarity,Negative*%
%FSLAX46Y46*%
G04 Gerber Fmt 4.6, Leading zero omitted, Abs format (unit mm)*
G04 Created by KiCad (PCBNEW 8.0.6-8.0.6-0~ubuntu24.04.1) date 2024-11-25 11:24:23*
%MOMM*%
%LPD*%
G01*
G04 APERTURE LIST*
G04 Aperture macros list*
%AMRoundRect*
0 Rectangle with rounded corners*
0 $1 Rounding radius*
0 $2 $3 $4 $5 $6 $7 $8 $9 X,Y pos of 4 corners*
0 Add a 4 corners polygon primitive as box body*
4,1,4,$2,$3,$4,$5,$6,$7,$8,$9,$2,$3,0*
0 Add four circle primitives for the rounded corners*
1,1,$1+$1,$2,$3*
1,1,$1+$1,$4,$5*
1,1,$1+$1,$6,$7*
1,1,$1+$1,$8,$9*
0 Add four rect primitives between the rounded corners*
20,1,$1+$1,$2,$3,$4,$5,0*
20,1,$1+$1,$4,$5,$6,$7,0*
20,1,$1+$1,$6,$7,$8,$9,0*
20,1,$1+$1,$8,$9,$2,$3,0*%
G04 Aperture macros list end*
%ADD10C,3.810000*%
%ADD11C,3.400000*%
%ADD12R,1.700000X1.700000*%
%ADD13O,1.700000X1.700000*%
%ADD14RoundRect,0.200000X-0.275000X0.200000X-0.275000X-0.200000X0.275000X-0.200000X0.275000X0.200000X0*%
%ADD15RoundRect,0.225000X0.250000X-0.225000X0.250000X0.225000X-0.250000X0.225000X-0.250000X-0.225000X0*%
%ADD16RoundRect,0.225000X-0.250000X0.225000X-0.250000X-0.225000X0.250000X-0.225000X0.250000X0.225000X0*%
%ADD17RoundRect,0.078000X0.292000X0.117000X-0.292000X0.117000X-0.292000X-0.117000X0.292000X-0.117000X0*%
%ADD18RoundRect,0.078000X-0.117000X0.292000X-0.117000X-0.292000X0.117000X-0.292000X0.117000X0.292000X0*%
%ADD19RoundRect,0.228000X-0.592000X0.342000X-0.592000X-0.342000X0.592000X-0.342000X0.592000X0.342000X0*%
%ADD20RoundRect,0.225000X0.225000X0.250000X-0.225000X0.250000X-0.225000X-0.250000X0.225000X-0.250000X0*%
%ADD21RoundRect,0.200000X0.275000X-0.200000X0.275000X0.200000X-0.275000X0.200000X-0.275000X-0.200000X0*%
%ADD22RoundRect,0.225000X-0.225000X-0.250000X0.225000X-0.250000X0.225000X0.250000X-0.225000X0.250000X0*%
%ADD23RoundRect,0.200000X-0.200000X-0.275000X0.200000X-0.275000X0.200000X0.275000X-0.200000X0.275000X0*%
%ADD24RoundRect,0.062500X-0.287500X-0.062500X0.287500X-0.062500X0.287500X0.062500X-0.287500X0.062500X0*%
%ADD25RoundRect,0.062500X-0.062500X-0.287500X0.062500X-0.287500X0.062500X0.287500X-0.062500X0.287500X0*%
G04 APERTURE END LIST*
D10*
%TO.C,H1*%
X224840800Y-114046000D03*
%TD*%
D11*
%TO.C,J2*%
X237177800Y-130051000D03*
X237177800Y-117091000D03*
%TD*%
D12*
%TO.C,J1*%
X221411800Y-117221000D03*
D13*
X221411800Y-119761000D03*
X221411800Y-122301000D03*
X221411800Y-124841000D03*
X221411800Y-127381000D03*
X221411800Y-129921000D03*
%TD*%
D10*
%TO.C,H2*%
X224840800Y-133096000D03*
%TD*%
D14*
%TO.C,R3*%
X235508800Y-122746000D03*
X235508800Y-124396000D03*
%TD*%
D15*
%TO.C,C2*%
X233984800Y-124346000D03*
X233984800Y-122796000D03*
%TD*%
D16*
%TO.C,C4*%
X230505000Y-112255000D03*
X230505000Y-113805000D03*
%TD*%
D17*
%TO.C,U2*%
X230806800Y-117809200D03*
D18*
X231206800Y-116909200D03*
X231706800Y-116909200D03*
X232206800Y-116909200D03*
X232706800Y-116909200D03*
X233206800Y-116909200D03*
D17*
X233606800Y-117809200D03*
X233606800Y-118309200D03*
D18*
X233206800Y-119209200D03*
X232706800Y-119209200D03*
X232206800Y-119209200D03*
X231706800Y-119209200D03*
X231206800Y-119209200D03*
D17*
X230806800Y-118309200D03*
D19*
X232206800Y-118059200D03*
%TD*%
D14*
%TO.C,R7*%
X232460800Y-128842000D03*
X232460800Y-130492000D03*
%TD*%
D20*
%TO.C,C5*%
X228917800Y-118059200D03*
X227367800Y-118059200D03*
%TD*%
D21*
%TO.C,R5*%
X234696000Y-134937000D03*
X234696000Y-133287000D03*
%TD*%
D14*
%TO.C,R2*%
X237032800Y-122746000D03*
X237032800Y-124396000D03*
%TD*%
D22*
%TO.C,C1*%
X236461000Y-126619000D03*
X238011000Y-126619000D03*
%TD*%
D23*
%TO.C,R1*%
X236207800Y-120142000D03*
X237857800Y-120142000D03*
%TD*%
%TO.C,R4*%
X233363000Y-126619000D03*
X235013000Y-126619000D03*
%TD*%
D16*
%TO.C,C3*%
X232029000Y-112255000D03*
X232029000Y-113805000D03*
%TD*%
D24*
%TO.C,U3*%
X229105800Y-124309000D03*
X229105800Y-123809000D03*
X229105800Y-123309000D03*
X229105800Y-122809000D03*
D25*
X229805800Y-122121000D03*
X230305800Y-122121000D03*
X230805800Y-122121000D03*
X231305800Y-122121000D03*
D24*
X232005800Y-122821000D03*
X232005800Y-123321000D03*
X232005800Y-123821000D03*
X232005800Y-124321000D03*
D25*
X231305800Y-125021000D03*
X230805800Y-125021000D03*
X230305800Y-125021000D03*
X229805800Y-125021000D03*
D12*
X230555800Y-123571000D03*
%TD*%
D14*
%TO.C,R6*%
X233984800Y-128842000D03*
X233984800Y-130492000D03*
%TD*%
%TO.C,R8*%
X228981000Y-112205000D03*
X228981000Y-113855000D03*
%TD*%
M02*
