%TF.GenerationSoftware,KiCad,Pcbnew,8.0.6-8.0.6-0~ubuntu24.04.1*%
%TF.CreationDate,2024-11-25T11:24:21-08:00*%
%TF.ProjectId,mag-encoder,6d61672d-656e-4636-9f64-65722e6b6963,4*%
%TF.SameCoordinates,Original*%
%TF.FileFunction,Copper,L1,Top*%
%TF.FilePolarity,Positive*%
%FSLAX46Y46*%
G04 Gerber Fmt 4.6, Leading zero omitted, Abs format (unit mm)*
G04 Created by KiCad (PCBNEW 8.0.6-8.0.6-0~ubuntu24.04.1) date 2024-11-25 11:24:21*
%MOMM*%
%LPD*%
G01*
G04 APERTURE LIST*
G04 Aperture macros list*
%AMRoundRect*
0 Rectangle with rounded corners*
0 $1 Rounding radius*
0 $2 $3 $4 $5 $6 $7 $8 $9 X,Y pos of 4 corners*
0 Add a 4 corners polygon primitive as box body*
4,1,4,$2,$3,$4,$5,$6,$7,$8,$9,$2,$3,0*
0 Add four circle primitives for the rounded corners*
1,1,$1+$1,$2,$3*
1,1,$1+$1,$4,$5*
1,1,$1+$1,$6,$7*
1,1,$1+$1,$8,$9*
0 Add four rect primitives between the rounded corners*
20,1,$1+$1,$2,$3,$4,$5,0*
20,1,$1+$1,$4,$5,$6,$7,0*
20,1,$1+$1,$6,$7,$8,$9,0*
20,1,$1+$1,$8,$9,$2,$3,0*%
G04 Aperture macros list end*
%TA.AperFunction,ComponentPad*%
%ADD10C,3.810000*%
%TD*%
%TA.AperFunction,SMDPad,CuDef*%
%ADD11RoundRect,0.218750X-0.256250X0.218750X-0.256250X-0.218750X0.256250X-0.218750X0.256250X0.218750X0*%
%TD*%
%TA.AperFunction,SMDPad,CuDef*%
%ADD12RoundRect,0.218750X0.256250X-0.218750X0.256250X0.218750X-0.256250X0.218750X-0.256250X-0.218750X0*%
%TD*%
%TA.AperFunction,SMDPad,CuDef*%
%ADD13RoundRect,0.150000X0.150000X-0.587500X0.150000X0.587500X-0.150000X0.587500X-0.150000X-0.587500X0*%
%TD*%
%TA.AperFunction,SMDPad,CuDef*%
%ADD14RoundRect,0.121324X2.543676X-0.703676X2.543676X0.703676X-2.543676X0.703676X-2.543676X-0.703676X0*%
%TD*%
%TA.AperFunction,ComponentPad*%
%ADD15R,1.700000X1.700000*%
%TD*%
%TA.AperFunction,ComponentPad*%
%ADD16O,1.700000X1.700000*%
%TD*%
%TA.AperFunction,SMDPad,CuDef*%
%ADD17RoundRect,0.225000X0.225000X0.375000X-0.225000X0.375000X-0.225000X-0.375000X0.225000X-0.375000X0*%
%TD*%
%TA.AperFunction,ViaPad*%
%ADD18C,0.600000*%
%TD*%
%TA.AperFunction,ViaPad*%
%ADD19C,0.609600*%
%TD*%
%TA.AperFunction,ViaPad*%
%ADD20C,0.500000*%
%TD*%
%TA.AperFunction,Conductor*%
%ADD21C,0.381000*%
%TD*%
%TA.AperFunction,Conductor*%
%ADD22C,0.254000*%
%TD*%
G04 APERTURE END LIST*
D10*
%TO.P,H1,*%
%TO.N,*%
X224840800Y-114046000D03*
%TD*%
D11*
%TO.P,D1,1,K*%
%TO.N,Net-(D1-K)*%
X228981000Y-112242500D03*
%TO.P,D1,2,A*%
%TO.N,+3.3V*%
X228981000Y-113817500D03*
%TD*%
D12*
%TO.P,D2,1,K*%
%TO.N,GND*%
X228727000Y-134518500D03*
%TO.P,D2,2,A*%
%TO.N,Net-(D2-A)*%
X228727000Y-132943500D03*
%TD*%
D13*
%TO.P,U1,1,GND*%
%TO.N,GND*%
X230647200Y-113967500D03*
%TO.P,U1,2,V_{OUT}*%
%TO.N,+3.3V*%
X232547200Y-113967500D03*
%TO.P,U1,3,V_{IN}*%
%TO.N,+5V*%
X231597200Y-112092500D03*
%TD*%
D14*
%TO.P,J2,1,Pin_1*%
%TO.N,GND*%
X226487800Y-118491000D03*
%TO.P,J2,2,Pin_2*%
%TO.N,+5V_IN*%
X226487800Y-121031000D03*
%TO.P,J2,3,Pin_3*%
%TO.N,/A*%
X226487800Y-123571000D03*
%TO.P,J2,4,Pin_4*%
%TO.N,/B*%
X226487800Y-126111000D03*
%TO.P,J2,5,Pin_5*%
%TO.N,/PWM*%
X226487800Y-128651000D03*
%TD*%
D12*
%TO.P,D3,1,K*%
%TO.N,Net-(D3-K)*%
X230378000Y-134518500D03*
%TO.P,D3,2,A*%
%TO.N,Net-(D3-A)*%
X230378000Y-132943500D03*
%TD*%
D15*
%TO.P,J1,1,Pin_1*%
%TO.N,GND*%
X221411800Y-117221000D03*
D16*
%TO.P,J1,2,Pin_2*%
%TO.N,+3.3V*%
X221411800Y-119761000D03*
%TO.P,J1,3,Pin_3*%
%TO.N,/CS*%
X221411800Y-122301000D03*
%TO.P,J1,4,Pin_4*%
%TO.N,/MOSI*%
X221411800Y-124841000D03*
%TO.P,J1,5,Pin_5*%
%TO.N,/MISO*%
X221411800Y-127381000D03*
%TO.P,J1,6,Pin_6*%
%TO.N,/SCLK*%
X221411800Y-129921000D03*
%TD*%
D17*
%TO.P,D5,1,K*%
%TO.N,+5V*%
X237489000Y-113792000D03*
%TO.P,D5,2,A*%
%TO.N,+5V_IN*%
X234189000Y-113792000D03*
%TD*%
D12*
%TO.P,D4,1,K*%
%TO.N,GND*%
X232029000Y-134518500D03*
%TO.P,D4,2,A*%
%TO.N,Net-(D4-A)*%
X232029000Y-132943500D03*
%TD*%
D10*
%TO.P,H2,*%
%TO.N,*%
X224840800Y-133096000D03*
%TD*%
D18*
%TO.N,+3.3V*%
X234696000Y-135939583D03*
X233248200Y-112344200D03*
D19*
X233464100Y-125260100D03*
X231317800Y-125984000D03*
D18*
X229857300Y-118021100D03*
X228463539Y-115122261D03*
%TO.N,GND*%
X229946200Y-115112800D03*
D19*
X226466400Y-117068600D03*
X232003600Y-122097800D03*
D18*
X228701600Y-135509000D03*
X234443344Y-118868025D03*
D20*
X232706800Y-118059200D03*
D18*
X232029000Y-135509000D03*
D20*
X231706800Y-118059200D03*
D18*
X238480600Y-127609600D03*
D19*
X233984800Y-121793000D03*
D18*
%TO.N,+5V*%
X230530400Y-111226600D03*
%TO.N,Net-(D4-A)*%
X233019600Y-131724400D03*
%TO.N,Net-(D1-K)*%
X228981000Y-111226600D03*
%TO.N,Net-(D3-A)*%
X231292400Y-131826000D03*
%TO.N,Net-(C1-Pad1)*%
X229692200Y-116586000D03*
X233196882Y-115905000D03*
X233274839Y-120568637D03*
X230530400Y-119202200D03*
X236082570Y-125386858D03*
%TO.N,/A*%
X234645200Y-125501400D03*
%TO.N,/B*%
X237617000Y-125476000D03*
%TO.N,/PWM*%
X238531400Y-121640600D03*
%TO.N,Net-(D2-A)*%
X233984800Y-131449800D03*
%TO.N,Net-(D3-K)*%
X235153200Y-131826000D03*
X231622600Y-115595400D03*
D19*
%TO.N,Net-(U3-MGH)*%
X229368646Y-130086100D03*
D18*
X223850200Y-116916200D03*
D19*
X231343200Y-129692400D03*
%TO.N,/MISO*%
X231123451Y-121098347D03*
X230880538Y-126713954D03*
D18*
%TO.N,Net-(U3-A)*%
X223278961Y-121078604D03*
X223502500Y-124815600D03*
%TO.N,Net-(U3-PWM)*%
X232909286Y-122614514D03*
X233704267Y-115233918D03*
%TO.N,Net-(R3-Pad1)*%
X235458000Y-121793000D03*
X232435400Y-120624600D03*
%TD*%
D21*
%TO.N,+3.3V*%
X232537000Y-113055400D02*
X232537000Y-113957300D01*
X228981000Y-114604800D02*
X228981000Y-113817500D01*
X228463539Y-115122261D02*
X228981000Y-114604800D01*
X232537000Y-113957300D02*
X232547200Y-113967500D01*
X233248200Y-112344200D02*
X232537000Y-113055400D01*
%TO.N,GND*%
X228727000Y-134518500D02*
X228727000Y-135483600D01*
X228727000Y-135483600D02*
X228701600Y-135509000D01*
X230647200Y-114919800D02*
X230647200Y-113967500D01*
X232029000Y-134518500D02*
X232029000Y-135509000D01*
X230454200Y-115112800D02*
X230647200Y-114919800D01*
X226466400Y-117356000D02*
X226487800Y-117377400D01*
X226487800Y-117377400D02*
X226487800Y-118491000D01*
X226466400Y-117068600D02*
X226466400Y-117356000D01*
X229946200Y-115112800D02*
X230454200Y-115112800D01*
%TO.N,+5V*%
X231597200Y-112092500D02*
X230888300Y-112092500D01*
X232382300Y-112092500D02*
X231597200Y-112092500D01*
X230530400Y-111734600D02*
X230530400Y-111226600D01*
X232918000Y-111556800D02*
X232382300Y-112092500D01*
X230888300Y-112092500D02*
X230530400Y-111734600D01*
X236321600Y-113792000D02*
X234086400Y-111556800D01*
X237489000Y-113792000D02*
X236321600Y-113792000D01*
X234086400Y-111556800D02*
X232918000Y-111556800D01*
%TO.N,Net-(D4-A)*%
X232511600Y-131724400D02*
X232029000Y-132207000D01*
X233019600Y-131724400D02*
X232511600Y-131724400D01*
X232029000Y-132207000D02*
X232029000Y-132943500D01*
%TO.N,Net-(D1-K)*%
X228981000Y-112242500D02*
X228981000Y-111226600D01*
%TO.N,Net-(D3-A)*%
X230835200Y-131826000D02*
X231292400Y-131826000D01*
X230835200Y-131826000D02*
X230378000Y-132283200D01*
X230378000Y-132283200D02*
X230378000Y-132943500D01*
%TO.N,+5V_IN*%
X235153200Y-113969800D02*
X234975400Y-113792000D01*
X230022400Y-121031000D02*
X231394000Y-119659400D01*
X232689400Y-119659400D02*
X233500004Y-118848796D01*
X235153200Y-114983604D02*
X235153200Y-113969800D01*
X234975400Y-113792000D02*
X234189000Y-113792000D01*
X233500004Y-118848796D02*
X233500004Y-116636800D01*
X233500004Y-116636800D02*
X235153200Y-114983604D01*
X231394000Y-119659400D02*
X232689400Y-119659400D01*
X226487800Y-121031000D02*
X230022400Y-121031000D01*
%TO.N,Net-(C1-Pad1)*%
X236189800Y-125279628D02*
X236189800Y-121489878D01*
X236082570Y-125386858D02*
X236189800Y-125279628D01*
X235268559Y-120568637D02*
X233274839Y-120568637D01*
X236189800Y-121489878D02*
X235268559Y-120568637D01*
%TO.N,/A*%
X229489000Y-123571000D02*
X226487800Y-123571000D01*
X234645200Y-125501400D02*
X234645200Y-126212600D01*
X230073200Y-127025400D02*
X230073200Y-124220760D01*
X234645200Y-126212600D02*
X233172000Y-127685800D01*
X230105980Y-124187980D02*
X229489000Y-123571000D01*
X230733600Y-127685800D02*
X230073200Y-127025400D01*
X230073200Y-124220760D02*
X230105980Y-124187980D01*
X233172000Y-127685800D02*
X230733600Y-127685800D01*
%TO.N,/B*%
X228278734Y-126111000D02*
X226487800Y-126111000D01*
X237617000Y-125577600D02*
X236613700Y-126580900D01*
X237617000Y-125476000D02*
X237617000Y-125577600D01*
X235835234Y-126580900D02*
X234108034Y-128308100D01*
X234108034Y-128308100D02*
X230475834Y-128308100D01*
X230475834Y-128308100D02*
X228278734Y-126111000D01*
X236613700Y-126580900D02*
X235835234Y-126580900D01*
%TO.N,/PWM*%
X226767200Y-128930400D02*
X226487800Y-128651000D01*
X238531400Y-121640600D02*
X238531400Y-125653800D01*
X236093000Y-127203200D02*
X234365800Y-128930400D01*
X236982000Y-127203200D02*
X236093000Y-127203200D01*
X238531400Y-125653800D02*
X236982000Y-127203200D01*
X234365800Y-128930400D02*
X226767200Y-128930400D01*
%TO.N,Net-(D2-A)*%
X228727000Y-132080000D02*
X228727000Y-132943500D01*
X229870000Y-130937000D02*
X228727000Y-132080000D01*
X233472000Y-130937000D02*
X229870000Y-130937000D01*
X233984800Y-131449800D02*
X233472000Y-130937000D01*
%TO.N,Net-(D3-K)*%
X235153200Y-131826000D02*
X235153200Y-133578600D01*
X232491000Y-136240800D02*
X231186000Y-136240800D01*
X231186000Y-136240800D02*
X230378000Y-135432800D01*
X235153200Y-133578600D02*
X232491000Y-136240800D01*
X230378000Y-135432800D02*
X230378000Y-134518500D01*
%TO.N,Net-(U3-MGH)*%
X222770700Y-124512478D02*
X222808800Y-124474378D01*
X223037400Y-125476000D02*
X222770700Y-125209300D01*
X231343200Y-129692400D02*
X230949500Y-130086100D01*
X222808800Y-124474378D02*
X222808800Y-121643365D01*
X222808800Y-121643365D02*
X222547161Y-121381726D01*
X223735900Y-130086100D02*
X223037400Y-129387600D01*
X223037400Y-129387600D02*
X223037400Y-125476000D01*
X230949500Y-130086100D02*
X229368646Y-130086100D01*
X223012000Y-117500400D02*
X223596200Y-116916200D01*
X222770700Y-125209300D02*
X222770700Y-124512478D01*
X222547161Y-121381726D02*
X222547161Y-120775482D01*
X229368646Y-130086100D02*
X223735900Y-130086100D01*
X223012000Y-120310643D02*
X223012000Y-117500400D01*
X223596200Y-116916200D02*
X223850200Y-116916200D01*
X222547161Y-120775482D02*
X223012000Y-120310643D01*
D22*
%TO.N,/MISO*%
X230632000Y-124452223D02*
X231232800Y-123851423D01*
X231232800Y-123851423D02*
X231232800Y-121207696D01*
X230880538Y-126713954D02*
X230632000Y-126465416D01*
X231232800Y-121207696D02*
X231123451Y-121098347D01*
X230632000Y-126465416D02*
X230632000Y-124452223D01*
%TO.N,Net-(R3-Pad1)*%
X234784900Y-122466100D02*
X235458000Y-121793000D01*
X232435400Y-120624600D02*
X232606539Y-120795739D01*
X232606539Y-120795739D02*
X232606539Y-121366647D01*
X232606539Y-121366647D02*
X233705992Y-122466100D01*
X233705992Y-122466100D02*
X234784900Y-122466100D01*
%TD*%
M02*
