%TF.GenerationSoftware,KiCad,Pcbnew,8.0.6-8.0.6-0~ubuntu24.04.1*%
%TF.CreationDate,2024-12-03T19:51:49-08:00*%
%TF.ProjectId,mag-encoder,6d61672d-656e-4636-9f64-65722e6b6963,4*%
%TF.SameCoordinates,Original*%
%TF.FileFunction,Legend,Bot*%
%TF.FilePolarity,Positive*%
%FSLAX46Y46*%
G04 Gerber Fmt 4.6, Leading zero omitted, Abs format (unit mm)*
G04 Created by KiCad (PCBNEW 8.0.6-8.0.6-0~ubuntu24.04.1) date 2024-12-03 19:51:49*
%MOMM*%
%LPD*%
G01*
G04 APERTURE LIST*
%ADD10C,0.127000*%
%ADD11C,0.152400*%
%ADD12C,0.120000*%
%ADD13C,0.100000*%
G04 APERTURE END LIST*
D10*
X223306008Y-122625140D02*
X223342294Y-122661426D01*
X223342294Y-122661426D02*
X223451151Y-122697711D01*
X223451151Y-122697711D02*
X223523723Y-122697711D01*
X223523723Y-122697711D02*
X223632580Y-122661426D01*
X223632580Y-122661426D02*
X223705151Y-122588854D01*
X223705151Y-122588854D02*
X223741437Y-122516283D01*
X223741437Y-122516283D02*
X223777723Y-122371140D01*
X223777723Y-122371140D02*
X223777723Y-122262283D01*
X223777723Y-122262283D02*
X223741437Y-122117140D01*
X223741437Y-122117140D02*
X223705151Y-122044568D01*
X223705151Y-122044568D02*
X223632580Y-121971997D01*
X223632580Y-121971997D02*
X223523723Y-121935711D01*
X223523723Y-121935711D02*
X223451151Y-121935711D01*
X223451151Y-121935711D02*
X223342294Y-121971997D01*
X223342294Y-121971997D02*
X223306008Y-122008283D01*
X223015723Y-122661426D02*
X222906866Y-122697711D01*
X222906866Y-122697711D02*
X222725437Y-122697711D01*
X222725437Y-122697711D02*
X222652866Y-122661426D01*
X222652866Y-122661426D02*
X222616580Y-122625140D01*
X222616580Y-122625140D02*
X222580294Y-122552568D01*
X222580294Y-122552568D02*
X222580294Y-122479997D01*
X222580294Y-122479997D02*
X222616580Y-122407426D01*
X222616580Y-122407426D02*
X222652866Y-122371140D01*
X222652866Y-122371140D02*
X222725437Y-122334854D01*
X222725437Y-122334854D02*
X222870580Y-122298568D01*
X222870580Y-122298568D02*
X222943151Y-122262283D01*
X222943151Y-122262283D02*
X222979437Y-122225997D01*
X222979437Y-122225997D02*
X223015723Y-122153426D01*
X223015723Y-122153426D02*
X223015723Y-122080854D01*
X223015723Y-122080854D02*
X222979437Y-122008283D01*
X222979437Y-122008283D02*
X222943151Y-121971997D01*
X222943151Y-121971997D02*
X222870580Y-121935711D01*
X222870580Y-121935711D02*
X222689151Y-121935711D01*
X222689151Y-121935711D02*
X222580294Y-121971997D01*
X224176866Y-117171397D02*
X224249438Y-117135111D01*
X224249438Y-117135111D02*
X224358295Y-117135111D01*
X224358295Y-117135111D02*
X224467152Y-117171397D01*
X224467152Y-117171397D02*
X224539723Y-117243968D01*
X224539723Y-117243968D02*
X224576009Y-117316540D01*
X224576009Y-117316540D02*
X224612295Y-117461683D01*
X224612295Y-117461683D02*
X224612295Y-117570540D01*
X224612295Y-117570540D02*
X224576009Y-117715683D01*
X224576009Y-117715683D02*
X224539723Y-117788254D01*
X224539723Y-117788254D02*
X224467152Y-117860826D01*
X224467152Y-117860826D02*
X224358295Y-117897111D01*
X224358295Y-117897111D02*
X224285723Y-117897111D01*
X224285723Y-117897111D02*
X224176866Y-117860826D01*
X224176866Y-117860826D02*
X224140580Y-117824540D01*
X224140580Y-117824540D02*
X224140580Y-117570540D01*
X224140580Y-117570540D02*
X224285723Y-117570540D01*
X223814009Y-117897111D02*
X223814009Y-117135111D01*
X223814009Y-117135111D02*
X223378580Y-117897111D01*
X223378580Y-117897111D02*
X223378580Y-117135111D01*
X223015723Y-117897111D02*
X223015723Y-117135111D01*
X223015723Y-117135111D02*
X222834294Y-117135111D01*
X222834294Y-117135111D02*
X222725437Y-117171397D01*
X222725437Y-117171397D02*
X222652866Y-117243968D01*
X222652866Y-117243968D02*
X222616580Y-117316540D01*
X222616580Y-117316540D02*
X222580294Y-117461683D01*
X222580294Y-117461683D02*
X222580294Y-117570540D01*
X222580294Y-117570540D02*
X222616580Y-117715683D01*
X222616580Y-117715683D02*
X222652866Y-117788254D01*
X222652866Y-117788254D02*
X222725437Y-117860826D01*
X222725437Y-117860826D02*
X222834294Y-117897111D01*
X222834294Y-117897111D02*
X223015723Y-117897111D01*
X225011437Y-127777711D02*
X225011437Y-127015711D01*
X225011437Y-127015711D02*
X224757437Y-127559997D01*
X224757437Y-127559997D02*
X224503437Y-127015711D01*
X224503437Y-127015711D02*
X224503437Y-127777711D01*
X224140580Y-127777711D02*
X224140580Y-127015711D01*
X223814009Y-127741426D02*
X223705152Y-127777711D01*
X223705152Y-127777711D02*
X223523723Y-127777711D01*
X223523723Y-127777711D02*
X223451152Y-127741426D01*
X223451152Y-127741426D02*
X223414866Y-127705140D01*
X223414866Y-127705140D02*
X223378580Y-127632568D01*
X223378580Y-127632568D02*
X223378580Y-127559997D01*
X223378580Y-127559997D02*
X223414866Y-127487426D01*
X223414866Y-127487426D02*
X223451152Y-127451140D01*
X223451152Y-127451140D02*
X223523723Y-127414854D01*
X223523723Y-127414854D02*
X223668866Y-127378568D01*
X223668866Y-127378568D02*
X223741437Y-127342283D01*
X223741437Y-127342283D02*
X223777723Y-127305997D01*
X223777723Y-127305997D02*
X223814009Y-127233426D01*
X223814009Y-127233426D02*
X223814009Y-127160854D01*
X223814009Y-127160854D02*
X223777723Y-127088283D01*
X223777723Y-127088283D02*
X223741437Y-127051997D01*
X223741437Y-127051997D02*
X223668866Y-127015711D01*
X223668866Y-127015711D02*
X223487437Y-127015711D01*
X223487437Y-127015711D02*
X223378580Y-127051997D01*
X222906866Y-127015711D02*
X222761723Y-127015711D01*
X222761723Y-127015711D02*
X222689152Y-127051997D01*
X222689152Y-127051997D02*
X222616580Y-127124568D01*
X222616580Y-127124568D02*
X222580295Y-127269711D01*
X222580295Y-127269711D02*
X222580295Y-127523711D01*
X222580295Y-127523711D02*
X222616580Y-127668854D01*
X222616580Y-127668854D02*
X222689152Y-127741426D01*
X222689152Y-127741426D02*
X222761723Y-127777711D01*
X222761723Y-127777711D02*
X222906866Y-127777711D01*
X222906866Y-127777711D02*
X222979438Y-127741426D01*
X222979438Y-127741426D02*
X223052009Y-127668854D01*
X223052009Y-127668854D02*
X223088295Y-127523711D01*
X223088295Y-127523711D02*
X223088295Y-127269711D01*
X223088295Y-127269711D02*
X223052009Y-127124568D01*
X223052009Y-127124568D02*
X222979438Y-127051997D01*
X222979438Y-127051997D02*
X222906866Y-127015711D01*
X224430865Y-119344911D02*
X223959151Y-119344911D01*
X223959151Y-119344911D02*
X224213151Y-119635197D01*
X224213151Y-119635197D02*
X224104294Y-119635197D01*
X224104294Y-119635197D02*
X224031723Y-119671483D01*
X224031723Y-119671483D02*
X223995437Y-119707768D01*
X223995437Y-119707768D02*
X223959151Y-119780340D01*
X223959151Y-119780340D02*
X223959151Y-119961768D01*
X223959151Y-119961768D02*
X223995437Y-120034340D01*
X223995437Y-120034340D02*
X224031723Y-120070626D01*
X224031723Y-120070626D02*
X224104294Y-120106911D01*
X224104294Y-120106911D02*
X224322008Y-120106911D01*
X224322008Y-120106911D02*
X224394580Y-120070626D01*
X224394580Y-120070626D02*
X224430865Y-120034340D01*
X223741437Y-119344911D02*
X223487437Y-120106911D01*
X223487437Y-120106911D02*
X223233437Y-119344911D01*
X223052008Y-119344911D02*
X222580294Y-119344911D01*
X222580294Y-119344911D02*
X222834294Y-119635197D01*
X222834294Y-119635197D02*
X222725437Y-119635197D01*
X222725437Y-119635197D02*
X222652866Y-119671483D01*
X222652866Y-119671483D02*
X222616580Y-119707768D01*
X222616580Y-119707768D02*
X222580294Y-119780340D01*
X222580294Y-119780340D02*
X222580294Y-119961768D01*
X222580294Y-119961768D02*
X222616580Y-120034340D01*
X222616580Y-120034340D02*
X222652866Y-120070626D01*
X222652866Y-120070626D02*
X222725437Y-120106911D01*
X222725437Y-120106911D02*
X222943151Y-120106911D01*
X222943151Y-120106911D02*
X223015723Y-120070626D01*
X223015723Y-120070626D02*
X223052008Y-120034340D01*
D11*
X226672560Y-122863429D02*
X226672560Y-123008572D01*
X226672560Y-123008572D02*
X226636275Y-123081143D01*
X226636275Y-123081143D02*
X226599989Y-123117429D01*
X226599989Y-123117429D02*
X226491132Y-123190000D01*
X226491132Y-123190000D02*
X226345989Y-123226286D01*
X226345989Y-123226286D02*
X226055703Y-123226286D01*
X226055703Y-123226286D02*
X225983132Y-123190000D01*
X225983132Y-123190000D02*
X225946846Y-123153715D01*
X225946846Y-123153715D02*
X225910560Y-123081143D01*
X225910560Y-123081143D02*
X225910560Y-122936000D01*
X225910560Y-122936000D02*
X225946846Y-122863429D01*
X225946846Y-122863429D02*
X225983132Y-122827143D01*
X225983132Y-122827143D02*
X226055703Y-122790857D01*
X226055703Y-122790857D02*
X226237132Y-122790857D01*
X226237132Y-122790857D02*
X226309703Y-122827143D01*
X226309703Y-122827143D02*
X226345989Y-122863429D01*
X226345989Y-122863429D02*
X226382275Y-122936000D01*
X226382275Y-122936000D02*
X226382275Y-123081143D01*
X226382275Y-123081143D02*
X226345989Y-123153715D01*
X226345989Y-123153715D02*
X226309703Y-123190000D01*
X226309703Y-123190000D02*
X226237132Y-123226286D01*
X225910560Y-123480286D02*
X225910560Y-123988286D01*
X225910560Y-123988286D02*
X226672560Y-123661714D01*
X226672560Y-124677714D02*
X226672560Y-124242285D01*
X226672560Y-124460000D02*
X225910560Y-124460000D01*
X225910560Y-124460000D02*
X226019417Y-124387428D01*
X226019417Y-124387428D02*
X226091989Y-124314857D01*
X226091989Y-124314857D02*
X226128275Y-124242285D01*
X226636275Y-125548570D02*
X226672560Y-125657428D01*
X226672560Y-125657428D02*
X226672560Y-125838856D01*
X226672560Y-125838856D02*
X226636275Y-125911428D01*
X226636275Y-125911428D02*
X226599989Y-125947713D01*
X226599989Y-125947713D02*
X226527417Y-125983999D01*
X226527417Y-125983999D02*
X226454846Y-125983999D01*
X226454846Y-125983999D02*
X226382275Y-125947713D01*
X226382275Y-125947713D02*
X226345989Y-125911428D01*
X226345989Y-125911428D02*
X226309703Y-125838856D01*
X226309703Y-125838856D02*
X226273417Y-125693713D01*
X226273417Y-125693713D02*
X226237132Y-125621142D01*
X226237132Y-125621142D02*
X226200846Y-125584856D01*
X226200846Y-125584856D02*
X226128275Y-125548570D01*
X226128275Y-125548570D02*
X226055703Y-125548570D01*
X226055703Y-125548570D02*
X225983132Y-125584856D01*
X225983132Y-125584856D02*
X225946846Y-125621142D01*
X225946846Y-125621142D02*
X225910560Y-125693713D01*
X225910560Y-125693713D02*
X225910560Y-125875142D01*
X225910560Y-125875142D02*
X225946846Y-125983999D01*
X226672560Y-126310570D02*
X225910560Y-126310570D01*
X225910560Y-126310570D02*
X225910560Y-126600856D01*
X225910560Y-126600856D02*
X225946846Y-126673427D01*
X225946846Y-126673427D02*
X225983132Y-126709713D01*
X225983132Y-126709713D02*
X226055703Y-126745999D01*
X226055703Y-126745999D02*
X226164560Y-126745999D01*
X226164560Y-126745999D02*
X226237132Y-126709713D01*
X226237132Y-126709713D02*
X226273417Y-126673427D01*
X226273417Y-126673427D02*
X226309703Y-126600856D01*
X226309703Y-126600856D02*
X226309703Y-126310570D01*
X226454846Y-127036284D02*
X226454846Y-127399142D01*
X226672560Y-126963713D02*
X225910560Y-127217713D01*
X225910560Y-127217713D02*
X226672560Y-127471713D01*
X226672560Y-128161142D02*
X226309703Y-127907142D01*
X226672560Y-127725713D02*
X225910560Y-127725713D01*
X225910560Y-127725713D02*
X225910560Y-128015999D01*
X225910560Y-128015999D02*
X225946846Y-128088570D01*
X225946846Y-128088570D02*
X225983132Y-128124856D01*
X225983132Y-128124856D02*
X226055703Y-128161142D01*
X226055703Y-128161142D02*
X226164560Y-128161142D01*
X226164560Y-128161142D02*
X226237132Y-128124856D01*
X226237132Y-128124856D02*
X226273417Y-128088570D01*
X226273417Y-128088570D02*
X226309703Y-128015999D01*
X226309703Y-128015999D02*
X226309703Y-127725713D01*
X225910560Y-128378856D02*
X225910560Y-128814285D01*
X226672560Y-128596570D02*
X225910560Y-128596570D01*
X226454846Y-129031998D02*
X226454846Y-129394856D01*
X226672560Y-128959427D02*
X225910560Y-129213427D01*
X225910560Y-129213427D02*
X226672560Y-129467427D01*
X226672560Y-129721427D02*
X225910560Y-129721427D01*
X225910560Y-129721427D02*
X226672560Y-130156856D01*
X226672560Y-130156856D02*
X225910560Y-130156856D01*
X227899337Y-122591287D02*
X227536480Y-122337287D01*
X227899337Y-122155858D02*
X227137337Y-122155858D01*
X227137337Y-122155858D02*
X227137337Y-122446144D01*
X227137337Y-122446144D02*
X227173623Y-122518715D01*
X227173623Y-122518715D02*
X227209909Y-122555001D01*
X227209909Y-122555001D02*
X227282480Y-122591287D01*
X227282480Y-122591287D02*
X227391337Y-122591287D01*
X227391337Y-122591287D02*
X227463909Y-122555001D01*
X227463909Y-122555001D02*
X227500194Y-122518715D01*
X227500194Y-122518715D02*
X227536480Y-122446144D01*
X227536480Y-122446144D02*
X227536480Y-122155858D01*
X227137337Y-123063001D02*
X227137337Y-123208144D01*
X227137337Y-123208144D02*
X227173623Y-123280715D01*
X227173623Y-123280715D02*
X227246194Y-123353287D01*
X227246194Y-123353287D02*
X227391337Y-123389572D01*
X227391337Y-123389572D02*
X227645337Y-123389572D01*
X227645337Y-123389572D02*
X227790480Y-123353287D01*
X227790480Y-123353287D02*
X227863052Y-123280715D01*
X227863052Y-123280715D02*
X227899337Y-123208144D01*
X227899337Y-123208144D02*
X227899337Y-123063001D01*
X227899337Y-123063001D02*
X227863052Y-122990430D01*
X227863052Y-122990430D02*
X227790480Y-122917858D01*
X227790480Y-122917858D02*
X227645337Y-122881572D01*
X227645337Y-122881572D02*
X227391337Y-122881572D01*
X227391337Y-122881572D02*
X227246194Y-122917858D01*
X227246194Y-122917858D02*
X227173623Y-122990430D01*
X227173623Y-122990430D02*
X227137337Y-123063001D01*
X227500194Y-123970144D02*
X227536480Y-124079001D01*
X227536480Y-124079001D02*
X227572766Y-124115287D01*
X227572766Y-124115287D02*
X227645337Y-124151573D01*
X227645337Y-124151573D02*
X227754194Y-124151573D01*
X227754194Y-124151573D02*
X227826766Y-124115287D01*
X227826766Y-124115287D02*
X227863052Y-124079001D01*
X227863052Y-124079001D02*
X227899337Y-124006430D01*
X227899337Y-124006430D02*
X227899337Y-123716144D01*
X227899337Y-123716144D02*
X227137337Y-123716144D01*
X227137337Y-123716144D02*
X227137337Y-123970144D01*
X227137337Y-123970144D02*
X227173623Y-124042716D01*
X227173623Y-124042716D02*
X227209909Y-124079001D01*
X227209909Y-124079001D02*
X227282480Y-124115287D01*
X227282480Y-124115287D02*
X227355052Y-124115287D01*
X227355052Y-124115287D02*
X227427623Y-124079001D01*
X227427623Y-124079001D02*
X227463909Y-124042716D01*
X227463909Y-124042716D02*
X227500194Y-123970144D01*
X227500194Y-123970144D02*
X227500194Y-123716144D01*
X227137337Y-124623287D02*
X227137337Y-124768430D01*
X227137337Y-124768430D02*
X227173623Y-124841001D01*
X227173623Y-124841001D02*
X227246194Y-124913573D01*
X227246194Y-124913573D02*
X227391337Y-124949858D01*
X227391337Y-124949858D02*
X227645337Y-124949858D01*
X227645337Y-124949858D02*
X227790480Y-124913573D01*
X227790480Y-124913573D02*
X227863052Y-124841001D01*
X227863052Y-124841001D02*
X227899337Y-124768430D01*
X227899337Y-124768430D02*
X227899337Y-124623287D01*
X227899337Y-124623287D02*
X227863052Y-124550716D01*
X227863052Y-124550716D02*
X227790480Y-124478144D01*
X227790480Y-124478144D02*
X227645337Y-124441858D01*
X227645337Y-124441858D02*
X227391337Y-124441858D01*
X227391337Y-124441858D02*
X227246194Y-124478144D01*
X227246194Y-124478144D02*
X227173623Y-124550716D01*
X227173623Y-124550716D02*
X227137337Y-124623287D01*
X227137337Y-125167573D02*
X227137337Y-125603002D01*
X227899337Y-125385287D02*
X227137337Y-125385287D01*
X227899337Y-125857001D02*
X227137337Y-125857001D01*
X227826766Y-126655287D02*
X227863052Y-126619001D01*
X227863052Y-126619001D02*
X227899337Y-126510144D01*
X227899337Y-126510144D02*
X227899337Y-126437572D01*
X227899337Y-126437572D02*
X227863052Y-126328715D01*
X227863052Y-126328715D02*
X227790480Y-126256144D01*
X227790480Y-126256144D02*
X227717909Y-126219858D01*
X227717909Y-126219858D02*
X227572766Y-126183572D01*
X227572766Y-126183572D02*
X227463909Y-126183572D01*
X227463909Y-126183572D02*
X227318766Y-126219858D01*
X227318766Y-126219858D02*
X227246194Y-126256144D01*
X227246194Y-126256144D02*
X227173623Y-126328715D01*
X227173623Y-126328715D02*
X227137337Y-126437572D01*
X227137337Y-126437572D02*
X227137337Y-126510144D01*
X227137337Y-126510144D02*
X227173623Y-126619001D01*
X227173623Y-126619001D02*
X227209909Y-126655287D01*
X227863052Y-126945572D02*
X227899337Y-127054430D01*
X227899337Y-127054430D02*
X227899337Y-127235858D01*
X227899337Y-127235858D02*
X227863052Y-127308430D01*
X227863052Y-127308430D02*
X227826766Y-127344715D01*
X227826766Y-127344715D02*
X227754194Y-127381001D01*
X227754194Y-127381001D02*
X227681623Y-127381001D01*
X227681623Y-127381001D02*
X227609052Y-127344715D01*
X227609052Y-127344715D02*
X227572766Y-127308430D01*
X227572766Y-127308430D02*
X227536480Y-127235858D01*
X227536480Y-127235858D02*
X227500194Y-127090715D01*
X227500194Y-127090715D02*
X227463909Y-127018144D01*
X227463909Y-127018144D02*
X227427623Y-126981858D01*
X227427623Y-126981858D02*
X227355052Y-126945572D01*
X227355052Y-126945572D02*
X227282480Y-126945572D01*
X227282480Y-126945572D02*
X227209909Y-126981858D01*
X227209909Y-126981858D02*
X227173623Y-127018144D01*
X227173623Y-127018144D02*
X227137337Y-127090715D01*
X227137337Y-127090715D02*
X227137337Y-127272144D01*
X227137337Y-127272144D02*
X227173623Y-127381001D01*
X227209909Y-128251857D02*
X227173623Y-128288143D01*
X227173623Y-128288143D02*
X227137337Y-128360715D01*
X227137337Y-128360715D02*
X227137337Y-128542143D01*
X227137337Y-128542143D02*
X227173623Y-128614715D01*
X227173623Y-128614715D02*
X227209909Y-128651000D01*
X227209909Y-128651000D02*
X227282480Y-128687286D01*
X227282480Y-128687286D02*
X227355052Y-128687286D01*
X227355052Y-128687286D02*
X227463909Y-128651000D01*
X227463909Y-128651000D02*
X227899337Y-128215572D01*
X227899337Y-128215572D02*
X227899337Y-128687286D01*
X227137337Y-129159000D02*
X227137337Y-129231571D01*
X227137337Y-129231571D02*
X227173623Y-129304143D01*
X227173623Y-129304143D02*
X227209909Y-129340429D01*
X227209909Y-129340429D02*
X227282480Y-129376714D01*
X227282480Y-129376714D02*
X227427623Y-129413000D01*
X227427623Y-129413000D02*
X227609052Y-129413000D01*
X227609052Y-129413000D02*
X227754194Y-129376714D01*
X227754194Y-129376714D02*
X227826766Y-129340429D01*
X227826766Y-129340429D02*
X227863052Y-129304143D01*
X227863052Y-129304143D02*
X227899337Y-129231571D01*
X227899337Y-129231571D02*
X227899337Y-129159000D01*
X227899337Y-129159000D02*
X227863052Y-129086429D01*
X227863052Y-129086429D02*
X227826766Y-129050143D01*
X227826766Y-129050143D02*
X227754194Y-129013857D01*
X227754194Y-129013857D02*
X227609052Y-128977571D01*
X227609052Y-128977571D02*
X227427623Y-128977571D01*
X227427623Y-128977571D02*
X227282480Y-129013857D01*
X227282480Y-129013857D02*
X227209909Y-129050143D01*
X227209909Y-129050143D02*
X227173623Y-129086429D01*
X227173623Y-129086429D02*
X227137337Y-129159000D01*
X227209909Y-129703285D02*
X227173623Y-129739571D01*
X227173623Y-129739571D02*
X227137337Y-129812143D01*
X227137337Y-129812143D02*
X227137337Y-129993571D01*
X227137337Y-129993571D02*
X227173623Y-130066143D01*
X227173623Y-130066143D02*
X227209909Y-130102428D01*
X227209909Y-130102428D02*
X227282480Y-130138714D01*
X227282480Y-130138714D02*
X227355052Y-130138714D01*
X227355052Y-130138714D02*
X227463909Y-130102428D01*
X227463909Y-130102428D02*
X227899337Y-129667000D01*
X227899337Y-129667000D02*
X227899337Y-130138714D01*
X227391337Y-130791857D02*
X227899337Y-130791857D01*
X227101052Y-130610428D02*
X227645337Y-130428999D01*
X227645337Y-130428999D02*
X227645337Y-130900714D01*
D10*
X225011437Y-125288511D02*
X225011437Y-124526511D01*
X225011437Y-124526511D02*
X224757437Y-125070797D01*
X224757437Y-125070797D02*
X224503437Y-124526511D01*
X224503437Y-124526511D02*
X224503437Y-125288511D01*
X223995437Y-124526511D02*
X223850294Y-124526511D01*
X223850294Y-124526511D02*
X223777723Y-124562797D01*
X223777723Y-124562797D02*
X223705151Y-124635368D01*
X223705151Y-124635368D02*
X223668866Y-124780511D01*
X223668866Y-124780511D02*
X223668866Y-125034511D01*
X223668866Y-125034511D02*
X223705151Y-125179654D01*
X223705151Y-125179654D02*
X223777723Y-125252226D01*
X223777723Y-125252226D02*
X223850294Y-125288511D01*
X223850294Y-125288511D02*
X223995437Y-125288511D01*
X223995437Y-125288511D02*
X224068009Y-125252226D01*
X224068009Y-125252226D02*
X224140580Y-125179654D01*
X224140580Y-125179654D02*
X224176866Y-125034511D01*
X224176866Y-125034511D02*
X224176866Y-124780511D01*
X224176866Y-124780511D02*
X224140580Y-124635368D01*
X224140580Y-124635368D02*
X224068009Y-124562797D01*
X224068009Y-124562797D02*
X223995437Y-124526511D01*
X223378580Y-125252226D02*
X223269723Y-125288511D01*
X223269723Y-125288511D02*
X223088294Y-125288511D01*
X223088294Y-125288511D02*
X223015723Y-125252226D01*
X223015723Y-125252226D02*
X222979437Y-125215940D01*
X222979437Y-125215940D02*
X222943151Y-125143368D01*
X222943151Y-125143368D02*
X222943151Y-125070797D01*
X222943151Y-125070797D02*
X222979437Y-124998226D01*
X222979437Y-124998226D02*
X223015723Y-124961940D01*
X223015723Y-124961940D02*
X223088294Y-124925654D01*
X223088294Y-124925654D02*
X223233437Y-124889368D01*
X223233437Y-124889368D02*
X223306008Y-124853083D01*
X223306008Y-124853083D02*
X223342294Y-124816797D01*
X223342294Y-124816797D02*
X223378580Y-124744226D01*
X223378580Y-124744226D02*
X223378580Y-124671654D01*
X223378580Y-124671654D02*
X223342294Y-124599083D01*
X223342294Y-124599083D02*
X223306008Y-124562797D01*
X223306008Y-124562797D02*
X223233437Y-124526511D01*
X223233437Y-124526511D02*
X223052008Y-124526511D01*
X223052008Y-124526511D02*
X222943151Y-124562797D01*
X222616580Y-125288511D02*
X222616580Y-124526511D01*
D11*
X229146904Y-132634566D02*
X228257904Y-132634566D01*
X228257904Y-132634566D02*
X228892904Y-132930900D01*
X228892904Y-132930900D02*
X228257904Y-133227233D01*
X228257904Y-133227233D02*
X229146904Y-133227233D01*
X228892904Y-133608233D02*
X228892904Y-134031566D01*
X229146904Y-133523566D02*
X228257904Y-133819900D01*
X228257904Y-133819900D02*
X229146904Y-134116233D01*
X228300237Y-134878233D02*
X228257904Y-134793566D01*
X228257904Y-134793566D02*
X228257904Y-134666566D01*
X228257904Y-134666566D02*
X228300237Y-134539566D01*
X228300237Y-134539566D02*
X228384904Y-134454900D01*
X228384904Y-134454900D02*
X228469571Y-134412566D01*
X228469571Y-134412566D02*
X228638904Y-134370233D01*
X228638904Y-134370233D02*
X228765904Y-134370233D01*
X228765904Y-134370233D02*
X228935237Y-134412566D01*
X228935237Y-134412566D02*
X229019904Y-134454900D01*
X229019904Y-134454900D02*
X229104571Y-134539566D01*
X229104571Y-134539566D02*
X229146904Y-134666566D01*
X229146904Y-134666566D02*
X229146904Y-134751233D01*
X229146904Y-134751233D02*
X229104571Y-134878233D01*
X229104571Y-134878233D02*
X229062237Y-134920566D01*
X229062237Y-134920566D02*
X228765904Y-134920566D01*
X228765904Y-134920566D02*
X228765904Y-134751233D01*
X230112477Y-130898900D02*
X230112477Y-131195234D01*
X230578144Y-131322234D02*
X230578144Y-130898900D01*
X230578144Y-130898900D02*
X229689144Y-130898900D01*
X229689144Y-130898900D02*
X229689144Y-131322234D01*
X230578144Y-131703233D02*
X229689144Y-131703233D01*
X229689144Y-131703233D02*
X230578144Y-132211233D01*
X230578144Y-132211233D02*
X229689144Y-132211233D01*
X230493477Y-133142566D02*
X230535811Y-133100233D01*
X230535811Y-133100233D02*
X230578144Y-132973233D01*
X230578144Y-132973233D02*
X230578144Y-132888566D01*
X230578144Y-132888566D02*
X230535811Y-132761566D01*
X230535811Y-132761566D02*
X230451144Y-132676900D01*
X230451144Y-132676900D02*
X230366477Y-132634566D01*
X230366477Y-132634566D02*
X230197144Y-132592233D01*
X230197144Y-132592233D02*
X230070144Y-132592233D01*
X230070144Y-132592233D02*
X229900811Y-132634566D01*
X229900811Y-132634566D02*
X229816144Y-132676900D01*
X229816144Y-132676900D02*
X229731477Y-132761566D01*
X229731477Y-132761566D02*
X229689144Y-132888566D01*
X229689144Y-132888566D02*
X229689144Y-132973233D01*
X229689144Y-132973233D02*
X229731477Y-133100233D01*
X229731477Y-133100233D02*
X229773811Y-133142566D01*
X229689144Y-133692900D02*
X229689144Y-133862233D01*
X229689144Y-133862233D02*
X229731477Y-133946900D01*
X229731477Y-133946900D02*
X229816144Y-134031566D01*
X229816144Y-134031566D02*
X229985477Y-134073900D01*
X229985477Y-134073900D02*
X230281811Y-134073900D01*
X230281811Y-134073900D02*
X230451144Y-134031566D01*
X230451144Y-134031566D02*
X230535811Y-133946900D01*
X230535811Y-133946900D02*
X230578144Y-133862233D01*
X230578144Y-133862233D02*
X230578144Y-133692900D01*
X230578144Y-133692900D02*
X230535811Y-133608233D01*
X230535811Y-133608233D02*
X230451144Y-133523566D01*
X230451144Y-133523566D02*
X230281811Y-133481233D01*
X230281811Y-133481233D02*
X229985477Y-133481233D01*
X229985477Y-133481233D02*
X229816144Y-133523566D01*
X229816144Y-133523566D02*
X229731477Y-133608233D01*
X229731477Y-133608233D02*
X229689144Y-133692900D01*
X230578144Y-134454899D02*
X229689144Y-134454899D01*
X229689144Y-134454899D02*
X229689144Y-134666566D01*
X229689144Y-134666566D02*
X229731477Y-134793566D01*
X229731477Y-134793566D02*
X229816144Y-134878233D01*
X229816144Y-134878233D02*
X229900811Y-134920566D01*
X229900811Y-134920566D02*
X230070144Y-134962899D01*
X230070144Y-134962899D02*
X230197144Y-134962899D01*
X230197144Y-134962899D02*
X230366477Y-134920566D01*
X230366477Y-134920566D02*
X230451144Y-134878233D01*
X230451144Y-134878233D02*
X230535811Y-134793566D01*
X230535811Y-134793566D02*
X230578144Y-134666566D01*
X230578144Y-134666566D02*
X230578144Y-134454899D01*
X230112477Y-135343899D02*
X230112477Y-135640233D01*
X230578144Y-135767233D02*
X230578144Y-135343899D01*
X230578144Y-135343899D02*
X229689144Y-135343899D01*
X229689144Y-135343899D02*
X229689144Y-135767233D01*
X230578144Y-136656232D02*
X230154811Y-136359899D01*
X230578144Y-136148232D02*
X229689144Y-136148232D01*
X229689144Y-136148232D02*
X229689144Y-136486899D01*
X229689144Y-136486899D02*
X229731477Y-136571566D01*
X229731477Y-136571566D02*
X229773811Y-136613899D01*
X229773811Y-136613899D02*
X229858477Y-136656232D01*
X229858477Y-136656232D02*
X229985477Y-136656232D01*
X229985477Y-136656232D02*
X230070144Y-136613899D01*
X230070144Y-136613899D02*
X230112477Y-136571566D01*
X230112477Y-136571566D02*
X230154811Y-136486899D01*
X230154811Y-136486899D02*
X230154811Y-136148232D01*
X231120384Y-133036733D02*
X232009384Y-133333067D01*
X232009384Y-133333067D02*
X231120384Y-133629400D01*
X231416717Y-134306733D02*
X232009384Y-134306733D01*
X231078051Y-134095067D02*
X231713051Y-133883400D01*
X231713051Y-133883400D02*
X231713051Y-134433733D01*
D10*
X225156580Y-130256026D02*
X225047723Y-130292311D01*
X225047723Y-130292311D02*
X224866294Y-130292311D01*
X224866294Y-130292311D02*
X224793723Y-130256026D01*
X224793723Y-130256026D02*
X224757437Y-130219740D01*
X224757437Y-130219740D02*
X224721151Y-130147168D01*
X224721151Y-130147168D02*
X224721151Y-130074597D01*
X224721151Y-130074597D02*
X224757437Y-130002026D01*
X224757437Y-130002026D02*
X224793723Y-129965740D01*
X224793723Y-129965740D02*
X224866294Y-129929454D01*
X224866294Y-129929454D02*
X225011437Y-129893168D01*
X225011437Y-129893168D02*
X225084008Y-129856883D01*
X225084008Y-129856883D02*
X225120294Y-129820597D01*
X225120294Y-129820597D02*
X225156580Y-129748026D01*
X225156580Y-129748026D02*
X225156580Y-129675454D01*
X225156580Y-129675454D02*
X225120294Y-129602883D01*
X225120294Y-129602883D02*
X225084008Y-129566597D01*
X225084008Y-129566597D02*
X225011437Y-129530311D01*
X225011437Y-129530311D02*
X224830008Y-129530311D01*
X224830008Y-129530311D02*
X224721151Y-129566597D01*
X223959151Y-130219740D02*
X223995437Y-130256026D01*
X223995437Y-130256026D02*
X224104294Y-130292311D01*
X224104294Y-130292311D02*
X224176866Y-130292311D01*
X224176866Y-130292311D02*
X224285723Y-130256026D01*
X224285723Y-130256026D02*
X224358294Y-130183454D01*
X224358294Y-130183454D02*
X224394580Y-130110883D01*
X224394580Y-130110883D02*
X224430866Y-129965740D01*
X224430866Y-129965740D02*
X224430866Y-129856883D01*
X224430866Y-129856883D02*
X224394580Y-129711740D01*
X224394580Y-129711740D02*
X224358294Y-129639168D01*
X224358294Y-129639168D02*
X224285723Y-129566597D01*
X224285723Y-129566597D02*
X224176866Y-129530311D01*
X224176866Y-129530311D02*
X224104294Y-129530311D01*
X224104294Y-129530311D02*
X223995437Y-129566597D01*
X223995437Y-129566597D02*
X223959151Y-129602883D01*
X223269723Y-130292311D02*
X223632580Y-130292311D01*
X223632580Y-130292311D02*
X223632580Y-129530311D01*
X223015723Y-130292311D02*
X223015723Y-129530311D01*
X222580294Y-130292311D02*
X222906866Y-129856883D01*
X222580294Y-129530311D02*
X223015723Y-129965740D01*
X235160959Y-121483966D02*
X234858578Y-121272299D01*
X235160959Y-121121109D02*
X234525959Y-121121109D01*
X234525959Y-121121109D02*
X234525959Y-121363014D01*
X234525959Y-121363014D02*
X234556197Y-121423490D01*
X234556197Y-121423490D02*
X234586435Y-121453728D01*
X234586435Y-121453728D02*
X234646911Y-121483966D01*
X234646911Y-121483966D02*
X234737625Y-121483966D01*
X234737625Y-121483966D02*
X234798101Y-121453728D01*
X234798101Y-121453728D02*
X234828340Y-121423490D01*
X234828340Y-121423490D02*
X234858578Y-121363014D01*
X234858578Y-121363014D02*
X234858578Y-121121109D01*
X234525959Y-121695633D02*
X234525959Y-122088728D01*
X234525959Y-122088728D02*
X234767863Y-121877061D01*
X234767863Y-121877061D02*
X234767863Y-121967776D01*
X234767863Y-121967776D02*
X234798101Y-122028252D01*
X234798101Y-122028252D02*
X234828340Y-122058490D01*
X234828340Y-122058490D02*
X234888816Y-122088728D01*
X234888816Y-122088728D02*
X235040006Y-122088728D01*
X235040006Y-122088728D02*
X235100482Y-122058490D01*
X235100482Y-122058490D02*
X235130721Y-122028252D01*
X235130721Y-122028252D02*
X235160959Y-121967776D01*
X235160959Y-121967776D02*
X235160959Y-121786347D01*
X235160959Y-121786347D02*
X235130721Y-121725871D01*
X235130721Y-121725871D02*
X235100482Y-121695633D01*
X233196682Y-123454166D02*
X233226921Y-123423928D01*
X233226921Y-123423928D02*
X233257159Y-123333214D01*
X233257159Y-123333214D02*
X233257159Y-123272738D01*
X233257159Y-123272738D02*
X233226921Y-123182023D01*
X233226921Y-123182023D02*
X233166444Y-123121547D01*
X233166444Y-123121547D02*
X233105968Y-123091309D01*
X233105968Y-123091309D02*
X232985016Y-123061071D01*
X232985016Y-123061071D02*
X232894301Y-123061071D01*
X232894301Y-123061071D02*
X232773349Y-123091309D01*
X232773349Y-123091309D02*
X232712873Y-123121547D01*
X232712873Y-123121547D02*
X232652397Y-123182023D01*
X232652397Y-123182023D02*
X232622159Y-123272738D01*
X232622159Y-123272738D02*
X232622159Y-123333214D01*
X232622159Y-123333214D02*
X232652397Y-123423928D01*
X232652397Y-123423928D02*
X232682635Y-123454166D01*
X232682635Y-123696071D02*
X232652397Y-123726309D01*
X232652397Y-123726309D02*
X232622159Y-123786785D01*
X232622159Y-123786785D02*
X232622159Y-123937976D01*
X232622159Y-123937976D02*
X232652397Y-123998452D01*
X232652397Y-123998452D02*
X232682635Y-124028690D01*
X232682635Y-124028690D02*
X232743111Y-124058928D01*
X232743111Y-124058928D02*
X232803587Y-124058928D01*
X232803587Y-124058928D02*
X232894301Y-124028690D01*
X232894301Y-124028690D02*
X233257159Y-123665833D01*
X233257159Y-123665833D02*
X233257159Y-124058928D01*
X230147482Y-111069966D02*
X230177721Y-111039728D01*
X230177721Y-111039728D02*
X230207959Y-110949014D01*
X230207959Y-110949014D02*
X230207959Y-110888538D01*
X230207959Y-110888538D02*
X230177721Y-110797823D01*
X230177721Y-110797823D02*
X230117244Y-110737347D01*
X230117244Y-110737347D02*
X230056768Y-110707109D01*
X230056768Y-110707109D02*
X229935816Y-110676871D01*
X229935816Y-110676871D02*
X229845101Y-110676871D01*
X229845101Y-110676871D02*
X229724149Y-110707109D01*
X229724149Y-110707109D02*
X229663673Y-110737347D01*
X229663673Y-110737347D02*
X229603197Y-110797823D01*
X229603197Y-110797823D02*
X229572959Y-110888538D01*
X229572959Y-110888538D02*
X229572959Y-110949014D01*
X229572959Y-110949014D02*
X229603197Y-111039728D01*
X229603197Y-111039728D02*
X229633435Y-111069966D01*
X229784625Y-111614252D02*
X230207959Y-111614252D01*
X229542721Y-111463061D02*
X229996292Y-111311871D01*
X229996292Y-111311871D02*
X229996292Y-111704966D01*
X234373559Y-116914990D02*
X234887606Y-116914990D01*
X234887606Y-116914990D02*
X234948082Y-116945228D01*
X234948082Y-116945228D02*
X234978321Y-116975466D01*
X234978321Y-116975466D02*
X235008559Y-117035942D01*
X235008559Y-117035942D02*
X235008559Y-117156895D01*
X235008559Y-117156895D02*
X234978321Y-117217371D01*
X234978321Y-117217371D02*
X234948082Y-117247609D01*
X234948082Y-117247609D02*
X234887606Y-117277847D01*
X234887606Y-117277847D02*
X234373559Y-117277847D01*
X234434035Y-117549990D02*
X234403797Y-117580228D01*
X234403797Y-117580228D02*
X234373559Y-117640704D01*
X234373559Y-117640704D02*
X234373559Y-117791895D01*
X234373559Y-117791895D02*
X234403797Y-117852371D01*
X234403797Y-117852371D02*
X234434035Y-117882609D01*
X234434035Y-117882609D02*
X234494511Y-117912847D01*
X234494511Y-117912847D02*
X234554987Y-117912847D01*
X234554987Y-117912847D02*
X234645701Y-117882609D01*
X234645701Y-117882609D02*
X235008559Y-117519752D01*
X235008559Y-117519752D02*
X235008559Y-117912847D01*
X232747959Y-131593166D02*
X232445578Y-131381499D01*
X232747959Y-131230309D02*
X232112959Y-131230309D01*
X232112959Y-131230309D02*
X232112959Y-131472214D01*
X232112959Y-131472214D02*
X232143197Y-131532690D01*
X232143197Y-131532690D02*
X232173435Y-131562928D01*
X232173435Y-131562928D02*
X232233911Y-131593166D01*
X232233911Y-131593166D02*
X232324625Y-131593166D01*
X232324625Y-131593166D02*
X232385101Y-131562928D01*
X232385101Y-131562928D02*
X232415340Y-131532690D01*
X232415340Y-131532690D02*
X232445578Y-131472214D01*
X232445578Y-131472214D02*
X232445578Y-131230309D01*
X232112959Y-131804833D02*
X232112959Y-132228166D01*
X232112959Y-132228166D02*
X232747959Y-131956023D01*
X228248633Y-119403482D02*
X228278871Y-119433721D01*
X228278871Y-119433721D02*
X228369585Y-119463959D01*
X228369585Y-119463959D02*
X228430061Y-119463959D01*
X228430061Y-119463959D02*
X228520776Y-119433721D01*
X228520776Y-119433721D02*
X228581252Y-119373244D01*
X228581252Y-119373244D02*
X228611490Y-119312768D01*
X228611490Y-119312768D02*
X228641728Y-119191816D01*
X228641728Y-119191816D02*
X228641728Y-119101101D01*
X228641728Y-119101101D02*
X228611490Y-118980149D01*
X228611490Y-118980149D02*
X228581252Y-118919673D01*
X228581252Y-118919673D02*
X228520776Y-118859197D01*
X228520776Y-118859197D02*
X228430061Y-118828959D01*
X228430061Y-118828959D02*
X228369585Y-118828959D01*
X228369585Y-118828959D02*
X228278871Y-118859197D01*
X228278871Y-118859197D02*
X228248633Y-118889435D01*
X227674109Y-118828959D02*
X227976490Y-118828959D01*
X227976490Y-118828959D02*
X228006728Y-119131340D01*
X228006728Y-119131340D02*
X227976490Y-119101101D01*
X227976490Y-119101101D02*
X227916014Y-119070863D01*
X227916014Y-119070863D02*
X227764823Y-119070863D01*
X227764823Y-119070863D02*
X227704347Y-119101101D01*
X227704347Y-119101101D02*
X227674109Y-119131340D01*
X227674109Y-119131340D02*
X227643871Y-119191816D01*
X227643871Y-119191816D02*
X227643871Y-119343006D01*
X227643871Y-119343006D02*
X227674109Y-119403482D01*
X227674109Y-119403482D02*
X227704347Y-119433721D01*
X227704347Y-119433721D02*
X227764823Y-119463959D01*
X227764823Y-119463959D02*
X227916014Y-119463959D01*
X227916014Y-119463959D02*
X227976490Y-119433721D01*
X227976490Y-119433721D02*
X228006728Y-119403482D01*
X236227759Y-134031566D02*
X235925378Y-133819899D01*
X236227759Y-133668709D02*
X235592759Y-133668709D01*
X235592759Y-133668709D02*
X235592759Y-133910614D01*
X235592759Y-133910614D02*
X235622997Y-133971090D01*
X235622997Y-133971090D02*
X235653235Y-134001328D01*
X235653235Y-134001328D02*
X235713711Y-134031566D01*
X235713711Y-134031566D02*
X235804425Y-134031566D01*
X235804425Y-134031566D02*
X235864901Y-134001328D01*
X235864901Y-134001328D02*
X235895140Y-133971090D01*
X235895140Y-133971090D02*
X235925378Y-133910614D01*
X235925378Y-133910614D02*
X235925378Y-133668709D01*
X235592759Y-134606090D02*
X235592759Y-134303709D01*
X235592759Y-134303709D02*
X235895140Y-134273471D01*
X235895140Y-134273471D02*
X235864901Y-134303709D01*
X235864901Y-134303709D02*
X235834663Y-134364185D01*
X235834663Y-134364185D02*
X235834663Y-134515376D01*
X235834663Y-134515376D02*
X235864901Y-134575852D01*
X235864901Y-134575852D02*
X235895140Y-134606090D01*
X235895140Y-134606090D02*
X235955616Y-134636328D01*
X235955616Y-134636328D02*
X236106806Y-134636328D01*
X236106806Y-134636328D02*
X236167282Y-134606090D01*
X236167282Y-134606090D02*
X236197521Y-134575852D01*
X236197521Y-134575852D02*
X236227759Y-134515376D01*
X236227759Y-134515376D02*
X236227759Y-134364185D01*
X236227759Y-134364185D02*
X236197521Y-134303709D01*
X236197521Y-134303709D02*
X236167282Y-134273471D01*
X238488359Y-123465166D02*
X238185978Y-123253499D01*
X238488359Y-123102309D02*
X237853359Y-123102309D01*
X237853359Y-123102309D02*
X237853359Y-123344214D01*
X237853359Y-123344214D02*
X237883597Y-123404690D01*
X237883597Y-123404690D02*
X237913835Y-123434928D01*
X237913835Y-123434928D02*
X237974311Y-123465166D01*
X237974311Y-123465166D02*
X238065025Y-123465166D01*
X238065025Y-123465166D02*
X238125501Y-123434928D01*
X238125501Y-123434928D02*
X238155740Y-123404690D01*
X238155740Y-123404690D02*
X238185978Y-123344214D01*
X238185978Y-123344214D02*
X238185978Y-123102309D01*
X237913835Y-123707071D02*
X237883597Y-123737309D01*
X237883597Y-123737309D02*
X237853359Y-123797785D01*
X237853359Y-123797785D02*
X237853359Y-123948976D01*
X237853359Y-123948976D02*
X237883597Y-124009452D01*
X237883597Y-124009452D02*
X237913835Y-124039690D01*
X237913835Y-124039690D02*
X237974311Y-124069928D01*
X237974311Y-124069928D02*
X238034787Y-124069928D01*
X238034787Y-124069928D02*
X238125501Y-124039690D01*
X238125501Y-124039690D02*
X238488359Y-123676833D01*
X238488359Y-123676833D02*
X238488359Y-124069928D01*
X237291033Y-127963282D02*
X237321271Y-127993521D01*
X237321271Y-127993521D02*
X237411985Y-128023759D01*
X237411985Y-128023759D02*
X237472461Y-128023759D01*
X237472461Y-128023759D02*
X237563176Y-127993521D01*
X237563176Y-127993521D02*
X237623652Y-127933044D01*
X237623652Y-127933044D02*
X237653890Y-127872568D01*
X237653890Y-127872568D02*
X237684128Y-127751616D01*
X237684128Y-127751616D02*
X237684128Y-127660901D01*
X237684128Y-127660901D02*
X237653890Y-127539949D01*
X237653890Y-127539949D02*
X237623652Y-127479473D01*
X237623652Y-127479473D02*
X237563176Y-127418997D01*
X237563176Y-127418997D02*
X237472461Y-127388759D01*
X237472461Y-127388759D02*
X237411985Y-127388759D01*
X237411985Y-127388759D02*
X237321271Y-127418997D01*
X237321271Y-127418997D02*
X237291033Y-127449235D01*
X236686271Y-128023759D02*
X237049128Y-128023759D01*
X236867700Y-128023759D02*
X236867700Y-127388759D01*
X236867700Y-127388759D02*
X236928176Y-127479473D01*
X236928176Y-127479473D02*
X236988652Y-127539949D01*
X236988652Y-127539949D02*
X237049128Y-127570187D01*
X235157433Y-120429159D02*
X235369100Y-120126778D01*
X235520290Y-120429159D02*
X235520290Y-119794159D01*
X235520290Y-119794159D02*
X235278385Y-119794159D01*
X235278385Y-119794159D02*
X235217909Y-119824397D01*
X235217909Y-119824397D02*
X235187671Y-119854635D01*
X235187671Y-119854635D02*
X235157433Y-119915111D01*
X235157433Y-119915111D02*
X235157433Y-120005825D01*
X235157433Y-120005825D02*
X235187671Y-120066301D01*
X235187671Y-120066301D02*
X235217909Y-120096540D01*
X235217909Y-120096540D02*
X235278385Y-120126778D01*
X235278385Y-120126778D02*
X235520290Y-120126778D01*
X234552671Y-120429159D02*
X234915528Y-120429159D01*
X234734100Y-120429159D02*
X234734100Y-119794159D01*
X234734100Y-119794159D02*
X234794576Y-119884873D01*
X234794576Y-119884873D02*
X234855052Y-119945349D01*
X234855052Y-119945349D02*
X234915528Y-119975587D01*
X234293833Y-128049159D02*
X234505500Y-127746778D01*
X234656690Y-128049159D02*
X234656690Y-127414159D01*
X234656690Y-127414159D02*
X234414785Y-127414159D01*
X234414785Y-127414159D02*
X234354309Y-127444397D01*
X234354309Y-127444397D02*
X234324071Y-127474635D01*
X234324071Y-127474635D02*
X234293833Y-127535111D01*
X234293833Y-127535111D02*
X234293833Y-127625825D01*
X234293833Y-127625825D02*
X234324071Y-127686301D01*
X234324071Y-127686301D02*
X234354309Y-127716540D01*
X234354309Y-127716540D02*
X234414785Y-127746778D01*
X234414785Y-127746778D02*
X234656690Y-127746778D01*
X233749547Y-127625825D02*
X233749547Y-128049159D01*
X233900738Y-127383921D02*
X234051928Y-127837492D01*
X234051928Y-127837492D02*
X233658833Y-127837492D01*
X233373282Y-112924166D02*
X233403521Y-112893928D01*
X233403521Y-112893928D02*
X233433759Y-112803214D01*
X233433759Y-112803214D02*
X233433759Y-112742738D01*
X233433759Y-112742738D02*
X233403521Y-112652023D01*
X233403521Y-112652023D02*
X233343044Y-112591547D01*
X233343044Y-112591547D02*
X233282568Y-112561309D01*
X233282568Y-112561309D02*
X233161616Y-112531071D01*
X233161616Y-112531071D02*
X233070901Y-112531071D01*
X233070901Y-112531071D02*
X232949949Y-112561309D01*
X232949949Y-112561309D02*
X232889473Y-112591547D01*
X232889473Y-112591547D02*
X232828997Y-112652023D01*
X232828997Y-112652023D02*
X232798759Y-112742738D01*
X232798759Y-112742738D02*
X232798759Y-112803214D01*
X232798759Y-112803214D02*
X232828997Y-112893928D01*
X232828997Y-112893928D02*
X232859235Y-112924166D01*
X232798759Y-113135833D02*
X232798759Y-113528928D01*
X232798759Y-113528928D02*
X233040663Y-113317261D01*
X233040663Y-113317261D02*
X233040663Y-113407976D01*
X233040663Y-113407976D02*
X233070901Y-113468452D01*
X233070901Y-113468452D02*
X233101140Y-113498690D01*
X233101140Y-113498690D02*
X233161616Y-113528928D01*
X233161616Y-113528928D02*
X233312806Y-113528928D01*
X233312806Y-113528928D02*
X233373282Y-113498690D01*
X233373282Y-113498690D02*
X233403521Y-113468452D01*
X233403521Y-113468452D02*
X233433759Y-113407976D01*
X233433759Y-113407976D02*
X233433759Y-113226547D01*
X233433759Y-113226547D02*
X233403521Y-113166071D01*
X233403521Y-113166071D02*
X233373282Y-113135833D01*
X229109209Y-120886359D02*
X229109209Y-121400406D01*
X229109209Y-121400406D02*
X229078971Y-121460882D01*
X229078971Y-121460882D02*
X229048733Y-121491121D01*
X229048733Y-121491121D02*
X228988257Y-121521359D01*
X228988257Y-121521359D02*
X228867304Y-121521359D01*
X228867304Y-121521359D02*
X228806828Y-121491121D01*
X228806828Y-121491121D02*
X228776590Y-121460882D01*
X228776590Y-121460882D02*
X228746352Y-121400406D01*
X228746352Y-121400406D02*
X228746352Y-120886359D01*
X228504447Y-120886359D02*
X228111352Y-120886359D01*
X228111352Y-120886359D02*
X228323019Y-121128263D01*
X228323019Y-121128263D02*
X228232304Y-121128263D01*
X228232304Y-121128263D02*
X228171828Y-121158501D01*
X228171828Y-121158501D02*
X228141590Y-121188740D01*
X228141590Y-121188740D02*
X228111352Y-121249216D01*
X228111352Y-121249216D02*
X228111352Y-121400406D01*
X228111352Y-121400406D02*
X228141590Y-121460882D01*
X228141590Y-121460882D02*
X228171828Y-121491121D01*
X228171828Y-121491121D02*
X228232304Y-121521359D01*
X228232304Y-121521359D02*
X228413733Y-121521359D01*
X228413733Y-121521359D02*
X228474209Y-121491121D01*
X228474209Y-121491121D02*
X228504447Y-121460882D01*
X234881559Y-131466166D02*
X234579178Y-131254499D01*
X234881559Y-131103309D02*
X234246559Y-131103309D01*
X234246559Y-131103309D02*
X234246559Y-131345214D01*
X234246559Y-131345214D02*
X234276797Y-131405690D01*
X234276797Y-131405690D02*
X234307035Y-131435928D01*
X234307035Y-131435928D02*
X234367511Y-131466166D01*
X234367511Y-131466166D02*
X234458225Y-131466166D01*
X234458225Y-131466166D02*
X234518701Y-131435928D01*
X234518701Y-131435928D02*
X234548940Y-131405690D01*
X234548940Y-131405690D02*
X234579178Y-131345214D01*
X234579178Y-131345214D02*
X234579178Y-131103309D01*
X234246559Y-132010452D02*
X234246559Y-131889499D01*
X234246559Y-131889499D02*
X234276797Y-131829023D01*
X234276797Y-131829023D02*
X234307035Y-131798785D01*
X234307035Y-131798785D02*
X234397749Y-131738309D01*
X234397749Y-131738309D02*
X234518701Y-131708071D01*
X234518701Y-131708071D02*
X234760606Y-131708071D01*
X234760606Y-131708071D02*
X234821082Y-131738309D01*
X234821082Y-131738309D02*
X234851321Y-131768547D01*
X234851321Y-131768547D02*
X234881559Y-131829023D01*
X234881559Y-131829023D02*
X234881559Y-131949976D01*
X234881559Y-131949976D02*
X234851321Y-132010452D01*
X234851321Y-132010452D02*
X234821082Y-132040690D01*
X234821082Y-132040690D02*
X234760606Y-132070928D01*
X234760606Y-132070928D02*
X234609416Y-132070928D01*
X234609416Y-132070928D02*
X234548940Y-132040690D01*
X234548940Y-132040690D02*
X234518701Y-132010452D01*
X234518701Y-132010452D02*
X234488463Y-131949976D01*
X234488463Y-131949976D02*
X234488463Y-131829023D01*
X234488463Y-131829023D02*
X234518701Y-131768547D01*
X234518701Y-131768547D02*
X234548940Y-131738309D01*
X234548940Y-131738309D02*
X234609416Y-131708071D01*
X228150559Y-112924166D02*
X227848178Y-112712499D01*
X228150559Y-112561309D02*
X227515559Y-112561309D01*
X227515559Y-112561309D02*
X227515559Y-112803214D01*
X227515559Y-112803214D02*
X227545797Y-112863690D01*
X227545797Y-112863690D02*
X227576035Y-112893928D01*
X227576035Y-112893928D02*
X227636511Y-112924166D01*
X227636511Y-112924166D02*
X227727225Y-112924166D01*
X227727225Y-112924166D02*
X227787701Y-112893928D01*
X227787701Y-112893928D02*
X227817940Y-112863690D01*
X227817940Y-112863690D02*
X227848178Y-112803214D01*
X227848178Y-112803214D02*
X227848178Y-112561309D01*
X227787701Y-113287023D02*
X227757463Y-113226547D01*
X227757463Y-113226547D02*
X227727225Y-113196309D01*
X227727225Y-113196309D02*
X227666749Y-113166071D01*
X227666749Y-113166071D02*
X227636511Y-113166071D01*
X227636511Y-113166071D02*
X227576035Y-113196309D01*
X227576035Y-113196309D02*
X227545797Y-113226547D01*
X227545797Y-113226547D02*
X227515559Y-113287023D01*
X227515559Y-113287023D02*
X227515559Y-113407976D01*
X227515559Y-113407976D02*
X227545797Y-113468452D01*
X227545797Y-113468452D02*
X227576035Y-113498690D01*
X227576035Y-113498690D02*
X227636511Y-113528928D01*
X227636511Y-113528928D02*
X227666749Y-113528928D01*
X227666749Y-113528928D02*
X227727225Y-113498690D01*
X227727225Y-113498690D02*
X227757463Y-113468452D01*
X227757463Y-113468452D02*
X227787701Y-113407976D01*
X227787701Y-113407976D02*
X227787701Y-113287023D01*
X227787701Y-113287023D02*
X227817940Y-113226547D01*
X227817940Y-113226547D02*
X227848178Y-113196309D01*
X227848178Y-113196309D02*
X227908654Y-113166071D01*
X227908654Y-113166071D02*
X228029606Y-113166071D01*
X228029606Y-113166071D02*
X228090082Y-113196309D01*
X228090082Y-113196309D02*
X228120321Y-113226547D01*
X228120321Y-113226547D02*
X228150559Y-113287023D01*
X228150559Y-113287023D02*
X228150559Y-113407976D01*
X228150559Y-113407976D02*
X228120321Y-113468452D01*
X228120321Y-113468452D02*
X228090082Y-113498690D01*
X228090082Y-113498690D02*
X228029606Y-113528928D01*
X228029606Y-113528928D02*
X227908654Y-113528928D01*
X227908654Y-113528928D02*
X227848178Y-113498690D01*
X227848178Y-113498690D02*
X227817940Y-113468452D01*
X227817940Y-113468452D02*
X227787701Y-113407976D01*
D12*
%TO.C,R3*%
X234986300Y-123808258D02*
X234986300Y-123333742D01*
X236031300Y-123808258D02*
X236031300Y-123333742D01*
%TO.C,C2*%
X233474800Y-123430420D02*
X233474800Y-123711580D01*
X234494800Y-123430420D02*
X234494800Y-123711580D01*
%TO.C,C4*%
X229995000Y-113170580D02*
X229995000Y-112889420D01*
X231015000Y-113170580D02*
X231015000Y-112889420D01*
D13*
%TO.C,U2*%
X230606800Y-116659200D02*
X230906800Y-116659200D01*
X230606800Y-117459200D02*
X230606800Y-116659200D01*
X230606800Y-119459200D02*
X230606800Y-118659200D01*
X230906800Y-119459200D02*
X230606800Y-119459200D01*
X233506800Y-116659200D02*
X233806800Y-116659200D01*
X233506800Y-119459200D02*
X233806800Y-119459200D01*
X233806800Y-116659200D02*
X233806800Y-117459200D01*
X233806800Y-119459200D02*
X233806800Y-118659200D01*
X230406800Y-116859200D02*
X230106800Y-117159200D01*
X230106800Y-116559200D01*
X230406800Y-116859200D01*
G36*
X230406800Y-116859200D02*
G01*
X230106800Y-117159200D01*
X230106800Y-116559200D01*
X230406800Y-116859200D01*
G37*
D12*
%TO.C,R7*%
X231938300Y-129904258D02*
X231938300Y-129429742D01*
X232983300Y-129904258D02*
X232983300Y-129429742D01*
%TO.C,C5*%
X228002220Y-117549200D02*
X228283380Y-117549200D01*
X228002220Y-118569200D02*
X228283380Y-118569200D01*
%TO.C,R5*%
X234173500Y-133874742D02*
X234173500Y-134349258D01*
X235218500Y-133874742D02*
X235218500Y-134349258D01*
%TO.C,R2*%
X236510300Y-123808258D02*
X236510300Y-123333742D01*
X237555300Y-123808258D02*
X237555300Y-123333742D01*
%TO.C,C1*%
X237376580Y-126109000D02*
X237095420Y-126109000D01*
X237376580Y-127129000D02*
X237095420Y-127129000D01*
%TO.C,R1*%
X237270058Y-119619500D02*
X236795542Y-119619500D01*
X237270058Y-120664500D02*
X236795542Y-120664500D01*
%TO.C,R4*%
X234425258Y-126096500D02*
X233950742Y-126096500D01*
X234425258Y-127141500D02*
X233950742Y-127141500D01*
%TO.C,C3*%
X231519000Y-113170580D02*
X231519000Y-112889420D01*
X232539000Y-113170580D02*
X232539000Y-112889420D01*
%TO.C,U3*%
X228945800Y-121961000D02*
X229420800Y-121961000D01*
X228945800Y-122436000D02*
X228945800Y-121961000D01*
X228945800Y-124941000D02*
X228945800Y-124706000D01*
X229245800Y-125181000D02*
X229420800Y-125181000D01*
X232165800Y-121961000D02*
X231690800Y-121961000D01*
X232165800Y-122436000D02*
X232165800Y-121961000D01*
X232165800Y-124706000D02*
X232165800Y-125181000D01*
X232165800Y-125181000D02*
X231690800Y-125181000D01*
X229185800Y-125511000D02*
X228705800Y-125511000D01*
X228945800Y-125181000D01*
X229185800Y-125511000D01*
G36*
X229185800Y-125511000D02*
G01*
X228705800Y-125511000D01*
X228945800Y-125181000D01*
X229185800Y-125511000D01*
G37*
%TO.C,R6*%
X233462300Y-129904258D02*
X233462300Y-129429742D01*
X234507300Y-129904258D02*
X234507300Y-129429742D01*
%TO.C,R8*%
X228458500Y-113267258D02*
X228458500Y-112792742D01*
X229503500Y-113267258D02*
X229503500Y-112792742D01*
%TD*%
M02*
