  0
SECTION
  2
HEADER
  9
$ANGBASE
  50
0.0
  9
$ANGDIR
  70
1
  9
$MEASUREMENT
  70
0
  0
ENDSEC
  0
SECTION
  2
TABLES
  0
TABLE
  2
LTYPE
  70
4
  0
LTYPE
  5
40F
  2
CONTINUOUS
  70
0
  3
Solid line
  72
65
  73
0
  40
0.0
  0
LTYPE
  5
410
  2
DASHDOT
 70
0
  3
Dash Dot ____ _ ____ _
 72
65
 73
4
 40
2.0
 49
1.25
 49
-0.25
 49
0.25
 49
-0.25
  0
LTYPE
  5
411
  2
DASHED
 70
0
  3
Dashed __ __ __ __ __
 72
65
 73
2
 40
0.75
 49
0.5
 49
-0.25
  0
LTYPE
  5
43B
  2
DOTTED
 70
0
  3
Dotted .  .  .  .
 72
65
 73
2
 40
0.2
 49
0.0
 49
-0.2
  0
ENDTAB
  0
TABLE
  2
STYLE
  70
4
  0
STYLE
  2
KICAD
  70
0
  40
0
  41
1
  42
1
  50
0
  71
0
  3
isocp.shx
  0
STYLE
  2
KICADB
  70
0
  40
0
  41
1
  42
1
  50
0
  71
0
  3
isocp.shx
  0
STYLE
  2
KICADI
  70
0
  40
0
  41
1
  42
1
  50
15
  71
0
  3
isocp.shx
  0
STYLE
  2
KICADBI
  70
0
  40
0
  41
1
  42
1
  50
15
  71
0
  3
isocp.shx
  0
ENDTAB
  0
TABLE
  2
LAYER
  70
1
  0
LAYER
  2
BLACK
  70
0
  62
7
  6
CONTINUOUS
  0
ENDTAB
  0
ENDSEC
  0
SECTION
  2
ENTITIES
0
ARC
8
BLACK
10
4.5925237007874014
20
-4.8949331102362201
40
0.0249991833963238
50
42.27173620
51
90.00215145
0
ARC
8
BLACK
10
3.7727208267716534
20
-4.8949525590551177
40
0.0249995109772724
50
90.00090148
51
137.74109987
0
ARC
8
BLACK
10
3.3357636614173227
20
-4.8235138582677166
40
0.0250032351767848
50
-222.74776907
51
-132.28117820
0
ARC
8
BLACK
10
4.4389805905511812
20
-4.345913503937008
40
0.1349999621894278
50
48.04837114
51
90.00001551
0
LINE
8
BLACK
6
CONTINUOUS
10
5.0463453543307084
20
-4.8419587795275589
11
4.8084985039370078
21
-5.0581831889763782
0
ARC
8
BLACK
10
3.9263074015748032
20
-4.3459683464566927
40
0.1350010502827015
50
90.00016153
51
131.95145181
0
ARC
8
BLACK
10
5.0295275590551176
20
-4.8234602362204724
40
0.0250006724675
50
-47.72474327
51
42.75369054
0
LINE
8
BLACK
6
CONTINUOUS
10
3.9263070472440944
20
-4.2109673228346454
11
4.4389805905511812
21
-4.2109135433070861
0
LINE
8
BLACK
6
CONTINUOUS
10
3.7727204724409447
20
-4.869953070866142
11
4.59252279527559
21
-4.8699339370078736
0
ARC
8
BLACK
10
4.7916816535433071
20
-5.0396850393700783
40
0.0249997254911195
50
-137.72694830
51
-47.72571011
0
ARC
8
BLACK
10
3.5736060236220473
20
-5.0397401574803151
40
0.0249987880142942
50
-132.27643862
51
-42.27090297
0
LINE
8
BLACK
6
CONTINUOUS
10
3.3174025984251969
20
-4.8065423622047243
11
3.8360591338582677
21
-4.2455665354330705
0
LINE
8
BLACK
6
CONTINUOUS
10
4.5292285039370075
20
-4.2455127559055121
11
5.0478850393700787
21
-4.8064885826771651
0
LINE
8
BLACK
6
CONTINUOUS
10
3.5567891338582678
20
-5.0582369685039366
11
3.3189422834645668
21
-4.8420125590551182
0
LINE
8
BLACK
6
CONTINUOUS
10
3.7542183858267717
20
-4.8781408661417318
11
3.5921044488188976
21
-5.0565552755905507
0
LINE
8
BLACK
6
CONTINUOUS
10
4.7731831889763781
20
-5.0565014960629924
11
4.6110222047244092
21
-4.8781174803149607
0
LINE
8
BLACK
6
CONTINUOUS
10
3.505752874015748
20
-4.7828545275590546
11
3.5487528740157481
21
-4.8258545275590548
0
LINE
8
BLACK
6
CONTINUOUS
10
3.5487528740157481
20
-4.7828545275590546
11
3.505752874015748
21
-4.8258545275590548
0
LINE
8
BLACK
6
CONTINUOUS
10
3.5794805905511811
20
-4.8504135433070861
11
3.6224805905511812
21
-4.8934135433070862
0
LINE
8
BLACK
6
CONTINUOUS
10
3.6224805905511812
20
-4.8504135433070861
11
3.5794805905511811
21
-4.8934135433070862
0
LINE
8
BLACK
6
CONTINUOUS
10
4.7434805905511812
20
-4.8504135433070861
11
4.7864805905511814
21
-4.8934135433070862
0
LINE
8
BLACK
6
CONTINUOUS
10
4.7864805905511814
20
-4.8504135433070861
11
4.7434805905511812
21
-4.8934135433070862
0
LINE
8
BLACK
6
CONTINUOUS
10
4.8172083070866138
20
-4.7828545275590546
11
4.860208307086614
21
-4.8258545275590548
0
LINE
8
BLACK
6
CONTINUOUS
10
4.860208307086614
20
-4.7828545275590546
11
4.8172083070866138
21
-4.8258545275590548
0
CIRCLE
8
BLACK
10
3.9269805905511812
20
-4.3459135433070868
40
0.0625
0
CIRCLE
8
BLACK
10
4.4389805905511812
20
-4.3459135433070868
40
0.0625
0
LINE
8
BLACK
6
CONTINUOUS
10
3.4114614173228346
20
-5.1893386614173229
11
3.4114614173228346
21
-5.1105985039370081
0
LINE
8
BLACK
6
CONTINUOUS
10
3.4114614173228346
20
-5.1105985039370081
11
3.4302090551181101
21
-5.1105985039370081
0
LINE
8
BLACK
6
CONTINUOUS
10
3.4302090551181101
20
-5.1105985039370081
11
3.4414576771653542
21
-5.1143480314960632
0
LINE
8
BLACK
6
CONTINUOUS
10
3.4414576771653542
20
-5.1143480314960632
11
3.4489567322834644
21
-5.1218470866141734
0
LINE
8
BLACK
6
CONTINUOUS
10
3.4489567322834644
20
-5.1218470866141734
11
3.4527062598425196
21
-5.1293461417322836
0
LINE
8
BLACK
6
CONTINUOUS
10
3.4527062598425196
20
-5.1293461417322836
11
3.4564557874015747
21
-5.1443442519685041
0
LINE
8
BLACK
6
CONTINUOUS
10
3.4564557874015747
20
-5.1443442519685041
11
3.4564557874015747
21
-5.1555928740157482
0
LINE
8
BLACK
6
CONTINUOUS
10
3.4564557874015747
20
-5.1555928740157482
11
3.4527062598425196
21
-5.1705909842519686
0
LINE
8
BLACK
6
CONTINUOUS
10
3.4527062598425196
20
-5.1705909842519686
11
3.4489567322834644
21
-5.1780900393700788
0
LINE
8
BLACK
6
CONTINUOUS
10
3.4489567322834644
20
-5.1780900393700788
11
3.4414576771653542
21
-5.1855891338582678
0
LINE
8
BLACK
6
CONTINUOUS
10
3.4414576771653542
20
-5.1855891338582678
11
3.4302090551181101
21
-5.1893386614173229
0
LINE
8
BLACK
6
CONTINUOUS
10
3.4302090551181101
20
-5.1893386614173229
11
3.4114614173228346
21
-5.1893386614173229
0
LINE
8
BLACK
6
CONTINUOUS
10
3.4902015748031494
20
-5.1893386614173229
11
3.4902015748031494
21
-5.1368451968503939
0
LINE
8
BLACK
6
CONTINUOUS
10
3.4902015748031494
20
-5.1518433464566931
11
3.4939511023622045
21
-5.1443442519685041
0
LINE
8
BLACK
6
CONTINUOUS
10
3.4939511023622045
20
-5.1443442519685041
11
3.4977006299212596
21
-5.140594724409449
0
LINE
8
BLACK
6
CONTINUOUS
10
3.4977006299212596
20
-5.140594724409449
11
3.5051996850393699
21
-5.1368451968503939
0
LINE
8
BLACK
6
CONTINUOUS
10
3.5051996850393699
20
-5.1368451968503939
11
3.5126987795275588
21
-5.1368451968503939
0
LINE
8
BLACK
6
CONTINUOUS
10
3.5389454724409446
20
-5.1893386614173229
11
3.5389454724409446
21
-5.1368451968503939
0
LINE
8
BLACK
6
CONTINUOUS
10
3.5389454724409446
20
-5.1105985039370081
11
3.5351959448818895
21
-5.1143480314960632
0
LINE
8
BLACK
6
CONTINUOUS
10
3.5351959448818895
20
-5.1143480314960632
11
3.5389454724409446
21
-5.1180975590551183
0
LINE
8
BLACK
6
CONTINUOUS
10
3.5389454724409446
20
-5.1180975590551183
11
3.5426949999999997
21
-5.1143480314960632
0
LINE
8
BLACK
6
CONTINUOUS
10
3.5426949999999997
20
-5.1143480314960632
11
3.5389454724409446
21
-5.1105985039370081
0
LINE
8
BLACK
6
CONTINUOUS
10
3.5389454724409446
20
-5.1105985039370081
11
3.5389454724409446
21
-5.1180975590551183
0
LINE
8
BLACK
6
CONTINUOUS
10
3.5876893700787402
20
-5.1893386614173229
11
3.58019031496063
21
-5.1855891338582678
0
LINE
8
BLACK
6
CONTINUOUS
10
3.58019031496063
20
-5.1855891338582678
11
3.5764407874015749
21
-5.1780900393700788
0
LINE
8
BLACK
6
CONTINUOUS
10
3.5764407874015749
20
-5.1780900393700788
11
3.5764407874015749
21
-5.1105985039370081
0
LINE
8
BLACK
6
CONTINUOUS
10
3.6289342125984252
20
-5.1893386614173229
11
3.621435157480315
21
-5.1855891338582678
0
LINE
8
BLACK
6
CONTINUOUS
10
3.621435157480315
20
-5.1855891338582678
11
3.6176856299212599
21
-5.1780900393700788
0
LINE
8
BLACK
6
CONTINUOUS
10
3.6176856299212599
20
-5.1780900393700788
11
3.6176856299212599
21
-5.1105985039370081
0
LINE
8
BLACK
6
CONTINUOUS
10
3.7189229921259841
20
-5.1893386614173229
11
3.7189229921259841
21
-5.1105985039370081
0
LINE
8
BLACK
6
CONTINUOUS
10
3.7189229921259841
20
-5.1105985039370081
11
3.7451697244094486
21
-5.1668414566929135
0
LINE
8
BLACK
6
CONTINUOUS
10
3.7451697244094486
20
-5.1668414566929135
11
3.7714164173228344
21
-5.1105985039370081
0
LINE
8
BLACK
6
CONTINUOUS
10
3.7714164173228344
20
-5.1105985039370081
11
3.7714164173228344
21
-5.1893386614173229
0
LINE
8
BLACK
6
CONTINUOUS
10
3.8426575196850394
20
-5.1893386614173229
11
3.8426575196850394
21
-5.148093818897638
0
LINE
8
BLACK
6
CONTINUOUS
10
3.8426575196850394
20
-5.148093818897638
11
3.8389079921259843
21
-5.140594724409449
0
LINE
8
BLACK
6
CONTINUOUS
10
3.8389079921259843
20
-5.140594724409449
11
3.8314089370078741
21
-5.1368451968503939
0
LINE
8
BLACK
6
CONTINUOUS
10
3.8314089370078741
20
-5.1368451968503939
11
3.8164107874015749
21
-5.1368451968503939
0
LINE
8
BLACK
6
CONTINUOUS
10
3.8164107874015749
20
-5.1368451968503939
11
3.8089117322834647
21
-5.140594724409449
0
LINE
8
BLACK
6
CONTINUOUS
10
3.8426575196850394
20
-5.1855891338582678
11
3.8351584645669292
21
-5.1893386614173229
0
LINE
8
BLACK
6
CONTINUOUS
10
3.8351584645669292
20
-5.1893386614173229
11
3.8164107874015749
21
-5.1893386614173229
0
LINE
8
BLACK
6
CONTINUOUS
10
3.8164107874015749
20
-5.1893386614173229
11
3.8089117322834647
21
-5.1855891338582678
0
LINE
8
BLACK
6
CONTINUOUS
10
3.8089117322834647
20
-5.1855891338582678
11
3.8051622047244096
21
-5.1780900393700788
0
LINE
8
BLACK
6
CONTINUOUS
10
3.8051622047244096
20
-5.1780900393700788
11
3.8051622047244096
21
-5.1705909842519686
0
LINE
8
BLACK
6
CONTINUOUS
10
3.8051622047244096
20
-5.1705909842519686
11
3.8089117322834647
21
-5.1630919291338584
0
LINE
8
BLACK
6
CONTINUOUS
10
3.8089117322834647
20
-5.1630919291338584
11
3.8164107874015749
21
-5.1593424015748033
0
LINE
8
BLACK
6
CONTINUOUS
10
3.8164107874015749
20
-5.1593424015748033
11
3.8351584645669292
21
-5.1593424015748033
0
LINE
8
BLACK
6
CONTINUOUS
10
3.8351584645669292
20
-5.1593424015748033
11
3.8426575196850394
21
-5.1555928740157482
0
LINE
8
BLACK
6
CONTINUOUS
10
3.8801528346456693
20
-5.1368451968503939
11
3.8801528346456693
21
-5.2155853543307087
0
LINE
8
BLACK
6
CONTINUOUS
10
3.8801528346456693
20
-5.140594724409449
11
3.8876518897637795
21
-5.1368451968503939
0
LINE
8
BLACK
6
CONTINUOUS
10
3.8876518897637795
20
-5.1368451968503939
11
3.9026500393700787
21
-5.1368451968503939
0
LINE
8
BLACK
6
CONTINUOUS
10
3.9026500393700787
20
-5.1368451968503939
11
3.9101490944881889
21
-5.140594724409449
0
LINE
8
BLACK
6
CONTINUOUS
10
3.9101490944881889
20
-5.140594724409449
11
3.913898622047244
21
-5.1443442519685041
0
LINE
8
BLACK
6
CONTINUOUS
10
3.913898622047244
20
-5.1443442519685041
11
3.9176481496062991
21
-5.1518433464566931
0
LINE
8
BLACK
6
CONTINUOUS
10
3.9176481496062991
20
-5.1518433464566931
11
3.9176481496062991
21
-5.1743405118110237
0
LINE
8
BLACK
6
CONTINUOUS
10
3.9176481496062991
20
-5.1743405118110237
11
3.913898622047244
21
-5.1818395669291339
0
LINE
8
BLACK
6
CONTINUOUS
10
3.913898622047244
20
-5.1818395669291339
11
3.9101490944881889
21
-5.1855891338582678
0
LINE
8
BLACK
6
CONTINUOUS
10
3.9101490944881889
20
-5.1855891338582678
11
3.9026500393700787
21
-5.1893386614173229
0
LINE
8
BLACK
6
CONTINUOUS
10
3.9026500393700787
20
-5.1893386614173229
11
3.8876518897637795
21
-5.1893386614173229
0
LINE
8
BLACK
6
CONTINUOUS
10
3.8876518897637795
20
-5.1893386614173229
11
3.8801528346456693
21
-5.1855891338582678
0
LINE
8
BLACK
6
CONTINUOUS
10
3.9513939370078739
20
-5.1818395669291339
11
3.955143464566929
21
-5.1855891338582678
0
LINE
8
BLACK
6
CONTINUOUS
10
3.955143464566929
20
-5.1855891338582678
11
3.9513939370078739
21
-5.1893386614173229
0
LINE
8
BLACK
6
CONTINUOUS
10
3.9513939370078739
20
-5.1893386614173229
11
3.9476444094488188
21
-5.1855891338582678
0
LINE
8
BLACK
6
CONTINUOUS
10
3.9476444094488188
20
-5.1855891338582678
11
3.9513939370078739
21
-5.1818395669291339
0
LINE
8
BLACK
6
CONTINUOUS
10
3.9513939370078739
20
-5.1818395669291339
11
3.9513939370078739
21
-5.1893386614173229
0
LINE
8
BLACK
6
CONTINUOUS
10
3.9513939370078739
20
-5.140594724409449
11
3.955143464566929
21
-5.1443442519685041
0
LINE
8
BLACK
6
CONTINUOUS
10
3.955143464566929
20
-5.1443442519685041
11
3.9513939370078739
21
-5.148093818897638
0
LINE
8
BLACK
6
CONTINUOUS
10
3.9513939370078739
20
-5.148093818897638
11
3.9476444094488188
21
-5.1443442519685041
0
LINE
8
BLACK
6
CONTINUOUS
10
3.9476444094488188
20
-5.1443442519685041
11
3.9513939370078739
21
-5.140594724409449
0
LINE
8
BLACK
6
CONTINUOUS
10
3.9513939370078739
20
-5.140594724409449
11
3.9513939370078739
21
-5.148093818897638
0
LINE
8
BLACK
6
CONTINUOUS
10
3.2657933858267714
20
-5.2971757480314956
11
3.3087933858267715
21
-5.3401757480314958
0
LINE
8
BLACK
6
CONTINUOUS
10
3.3087933858267715
20
-5.2971757480314956
11
3.2657933858267714
21
-5.3401757480314958
0
LINE
8
BLACK
6
CONTINUOUS
10
3.4527062598425196
20
-5.354692992125984
11
3.4077118897637795
21
-5.354692992125984
0
LINE
8
BLACK
6
CONTINUOUS
10
3.4302090551181101
20
-5.354692992125984
11
3.4302090551181101
21
-5.2759528346456692
0
LINE
8
BLACK
6
CONTINUOUS
10
3.4302090551181101
20
-5.2759528346456692
11
3.4227099999999999
21
-5.2872014173228346
0
LINE
8
BLACK
6
CONTINUOUS
10
3.4227099999999999
20
-5.2872014173228346
11
3.4152109448818897
21
-5.2947004724409448
0
LINE
8
BLACK
6
CONTINUOUS
10
3.4152109448818897
20
-5.2947004724409448
11
3.4077118897637795
21
-5.2984499999999999
0
LINE
8
BLACK
6
CONTINUOUS
10
3.4864520472440943
20
-5.3471938976377951
11
3.4902015748031494
21
-5.3509434645669289
0
LINE
8
BLACK
6
CONTINUOUS
10
3.4902015748031494
20
-5.3509434645669289
11
3.4864520472440943
21
-5.354692992125984
0
LINE
8
BLACK
6
CONTINUOUS
10
3.4864520472440943
20
-5.354692992125984
11
3.4827025196850392
21
-5.3509434645669289
0
LINE
8
BLACK
6
CONTINUOUS
10
3.4827025196850392
20
-5.3509434645669289
11
3.4864520472440943
21
-5.3471938976377951
0
LINE
8
BLACK
6
CONTINUOUS
10
3.4864520472440943
20
-5.3471938976377951
11
3.4864520472440943
21
-5.354692992125984
0
LINE
8
BLACK
6
CONTINUOUS
10
3.5389454724409446
20
-5.2759528346456692
11
3.5464445669291336
21
-5.2759528346456692
0
LINE
8
BLACK
6
CONTINUOUS
10
3.5464445669291336
20
-5.2759528346456692
11
3.5539436220472442
21
-5.2797023622047243
0
LINE
8
BLACK
6
CONTINUOUS
10
3.5539436220472442
20
-5.2797023622047243
11
3.5576931496062993
21
-5.2834518897637794
0
LINE
8
BLACK
6
CONTINUOUS
10
3.5576931496062993
20
-5.2834518897637794
11
3.5614426771653545
21
-5.2909509448818897
0
LINE
8
BLACK
6
CONTINUOUS
10
3.5614426771653545
20
-5.2909509448818897
11
3.5651922047244096
21
-5.3059490551181101
0
LINE
8
BLACK
6
CONTINUOUS
10
3.5651922047244096
20
-5.3059490551181101
11
3.5651922047244096
21
-5.3246967322834644
0
LINE
8
BLACK
6
CONTINUOUS
10
3.5651922047244096
20
-5.3246967322834644
11
3.5614426771653545
21
-5.3396948425196848
0
LINE
8
BLACK
6
CONTINUOUS
10
3.5614426771653545
20
-5.3396948425196848
11
3.5576931496062993
21
-5.3471938976377951
0
LINE
8
BLACK
6
CONTINUOUS
10
3.5576931496062993
20
-5.3471938976377951
11
3.5539436220472442
21
-5.3509434645669289
0
LINE
8
BLACK
6
CONTINUOUS
10
3.5539436220472442
20
-5.3509434645669289
11
3.5464445669291336
21
-5.354692992125984
0
LINE
8
BLACK
6
CONTINUOUS
10
3.5464445669291336
20
-5.354692992125984
11
3.5389454724409446
21
-5.354692992125984
0
LINE
8
BLACK
6
CONTINUOUS
10
3.5389454724409446
20
-5.354692992125984
11
3.5314464173228344
21
-5.3509434645669289
0
LINE
8
BLACK
6
CONTINUOUS
10
3.5314464173228344
20
-5.3509434645669289
11
3.5276968897637793
21
-5.3471938976377951
0
LINE
8
BLACK
6
CONTINUOUS
10
3.5276968897637793
20
-5.3471938976377951
11
3.5239473622047242
21
-5.3396948425196848
0
LINE
8
BLACK
6
CONTINUOUS
10
3.5239473622047242
20
-5.3396948425196848
11
3.520197834645669
21
-5.3246967322834644
0
LINE
8
BLACK
6
CONTINUOUS
10
3.520197834645669
20
-5.3246967322834644
11
3.520197834645669
21
-5.3059490551181101
0
LINE
8
BLACK
6
CONTINUOUS
10
3.520197834645669
20
-5.3059490551181101
11
3.5239473622047242
21
-5.2909509448818897
0
LINE
8
BLACK
6
CONTINUOUS
10
3.5239473622047242
20
-5.2909509448818897
11
3.5276968897637793
21
-5.2834518897637794
0
LINE
8
BLACK
6
CONTINUOUS
10
3.5276968897637793
20
-5.2834518897637794
11
3.5314464173228344
21
-5.2797023622047243
0
LINE
8
BLACK
6
CONTINUOUS
10
3.5314464173228344
20
-5.2797023622047243
11
3.5389454724409446
21
-5.2759528346456692
0
LINE
8
BLACK
6
CONTINUOUS
10
3.6026875196850394
20
-5.354692992125984
11
3.6176856299212599
21
-5.354692992125984
0
LINE
8
BLACK
6
CONTINUOUS
10
3.6176856299212599
20
-5.354692992125984
11
3.6251847244094488
21
-5.3509434645669289
0
LINE
8
BLACK
6
CONTINUOUS
10
3.6251847244094488
20
-5.3509434645669289
11
3.6289342519685039
21
-5.3471938976377951
0
LINE
8
BLACK
6
CONTINUOUS
10
3.6289342519685039
20
-5.3471938976377951
11
3.6364333070866142
21
-5.3359453149606297
0
LINE
8
BLACK
6
CONTINUOUS
10
3.6364333070866142
20
-5.3359453149606297
11
3.6401828346456693
21
-5.3209472047244093
0
LINE
8
BLACK
6
CONTINUOUS
10
3.6401828346456693
20
-5.3209472047244093
11
3.6401828346456693
21
-5.2909509448818897
0
LINE
8
BLACK
6
CONTINUOUS
10
3.6401828346456693
20
-5.2909509448818897
11
3.6364333070866142
21
-5.2834518897637794
0
LINE
8
BLACK
6
CONTINUOUS
10
3.6364333070866142
20
-5.2834518897637794
11
3.6326837795275591
21
-5.2797023622047243
0
LINE
8
BLACK
6
CONTINUOUS
10
3.6326837795275591
20
-5.2797023622047243
11
3.6251847244094488
21
-5.2759528346456692
0
LINE
8
BLACK
6
CONTINUOUS
10
3.6251847244094488
20
-5.2759528346456692
11
3.6101865748031496
21
-5.2759528346456692
0
LINE
8
BLACK
6
CONTINUOUS
10
3.6101865748031496
20
-5.2759528346456692
11
3.6026875196850394
21
-5.2797023622047243
0
LINE
8
BLACK
6
CONTINUOUS
10
3.6026875196850394
20
-5.2797023622047243
11
3.5989379921259843
21
-5.2834518897637794
0
LINE
8
BLACK
6
CONTINUOUS
10
3.5989379921259843
20
-5.2834518897637794
11
3.5951884645669292
21
-5.2909509448818897
0
LINE
8
BLACK
6
CONTINUOUS
10
3.5951884645669292
20
-5.2909509448818897
11
3.5951884645669292
21
-5.3096985826771652
0
LINE
8
BLACK
6
CONTINUOUS
10
3.5951884645669292
20
-5.3096985826771652
11
3.5989379921259843
21
-5.3171976771653542
0
LINE
8
BLACK
6
CONTINUOUS
10
3.5989379921259843
20
-5.3171976771653542
11
3.6026875196850394
21
-5.3209472047244093
0
LINE
8
BLACK
6
CONTINUOUS
10
3.6026875196850394
20
-5.3209472047244093
11
3.6101865748031496
21
-5.3246967322834644
0
LINE
8
BLACK
6
CONTINUOUS
10
3.6101865748031496
20
-5.3246967322834644
11
3.6251847244094488
21
-5.3246967322834644
0
LINE
8
BLACK
6
CONTINUOUS
10
3.6251847244094488
20
-5.3246967322834644
11
3.6326837795275591
21
-5.3209472047244093
0
LINE
8
BLACK
6
CONTINUOUS
10
3.6326837795275591
20
-5.3209472047244093
11
3.6364333070866142
21
-5.3171976771653542
0
LINE
8
BLACK
6
CONTINUOUS
10
3.6364333070866142
20
-5.3171976771653542
11
3.6401828346456693
21
-5.3096985826771652
0
LINE
8
BLACK
6
CONTINUOUS
10
3.6701790944881889
20
-5.2834518897637794
11
3.673928622047244
21
-5.2797023622047243
0
LINE
8
BLACK
6
CONTINUOUS
10
3.673928622047244
20
-5.2797023622047243
11
3.6814276771653542
21
-5.2759528346456692
0
LINE
8
BLACK
6
CONTINUOUS
10
3.6814276771653542
20
-5.2759528346456692
11
3.7001753543307085
21
-5.2759528346456692
0
LINE
8
BLACK
6
CONTINUOUS
10
3.7001753543307085
20
-5.2759528346456692
11
3.7076744094488188
21
-5.2797023622047243
0
LINE
8
BLACK
6
CONTINUOUS
10
3.7076744094488188
20
-5.2797023622047243
11
3.7114239370078739
21
-5.2834518897637794
0
LINE
8
BLACK
6
CONTINUOUS
10
3.7114239370078739
20
-5.2834518897637794
11
3.715173464566929
21
-5.2909509448818897
0
LINE
8
BLACK
6
CONTINUOUS
10
3.715173464566929
20
-5.2909509448818897
11
3.715173464566929
21
-5.2984499999999999
0
LINE
8
BLACK
6
CONTINUOUS
10
3.715173464566929
20
-5.2984499999999999
11
3.7114239370078739
21
-5.3096985826771652
0
LINE
8
BLACK
6
CONTINUOUS
10
3.7114239370078739
20
-5.3096985826771652
11
3.6664295669291338
21
-5.354692992125984
0
LINE
8
BLACK
6
CONTINUOUS
10
3.6664295669291338
20
-5.354692992125984
11
3.715173464566929
21
-5.354692992125984
0
LINE
8
BLACK
6
CONTINUOUS
10
3.7489192519685037
20
-5.354692992125984
11
3.7489192519685037
21
-5.302199527559055
0
LINE
8
BLACK
6
CONTINUOUS
10
3.7489192519685037
20
-5.3096985826771652
11
3.7526687795275588
21
-5.3059490551181101
0
LINE
8
BLACK
6
CONTINUOUS
10
3.7526687795275588
20
-5.3059490551181101
11
3.7601678346456691
21
-5.302199527559055
0
LINE
8
BLACK
6
CONTINUOUS
10
3.7601678346456691
20
-5.302199527559055
11
3.7714164566929131
21
-5.302199527559055
0
LINE
8
BLACK
6
CONTINUOUS
10
3.7714164566929131
20
-5.302199527559055
11
3.7789155118110234
21
-5.3059490551181101
0
LINE
8
BLACK
6
CONTINUOUS
10
3.7789155118110234
20
-5.3059490551181101
11
3.7826650393700785
21
-5.3134481496062991
0
LINE
8
BLACK
6
CONTINUOUS
10
3.7826650393700785
20
-5.3134481496062991
11
3.7826650393700785
21
-5.354692992125984
0
LINE
8
BLACK
6
CONTINUOUS
10
3.7826650393700785
20
-5.3134481496062991
11
3.7864145669291336
21
-5.3059490551181101
0
LINE
8
BLACK
6
CONTINUOUS
10
3.7864145669291336
20
-5.3059490551181101
11
3.7939136220472438
21
-5.302199527559055
0
LINE
8
BLACK
6
CONTINUOUS
10
3.7939136220472438
20
-5.302199527559055
11
3.8051622047244096
21
-5.302199527559055
0
LINE
8
BLACK
6
CONTINUOUS
10
3.8051622047244096
20
-5.302199527559055
11
3.8126612992125986
21
-5.3059490551181101
0
LINE
8
BLACK
6
CONTINUOUS
10
3.8126612992125986
20
-5.3059490551181101
11
3.8164108267716537
21
-5.3134481496062991
0
LINE
8
BLACK
6
CONTINUOUS
10
3.8164108267716537
20
-5.3134481496062991
11
3.8164108267716537
21
-5.354692992125984
0
LINE
8
BLACK
6
CONTINUOUS
10
3.8539061417322835
20
-5.354692992125984
11
3.8539061417322835
21
-5.302199527559055
0
LINE
8
BLACK
6
CONTINUOUS
10
3.8539061417322835
20
-5.3096985826771652
11
3.8576556692913386
21
-5.3059490551181101
0
LINE
8
BLACK
6
CONTINUOUS
10
3.8576556692913386
20
-5.3059490551181101
11
3.8651547244094488
21
-5.302199527559055
0
LINE
8
BLACK
6
CONTINUOUS
10
3.8651547244094488
20
-5.302199527559055
11
3.8764033464566929
21
-5.302199527559055
0
LINE
8
BLACK
6
CONTINUOUS
10
3.8764033464566929
20
-5.302199527559055
11
3.8839024015748032
21
-5.3059490551181101
0
LINE
8
BLACK
6
CONTINUOUS
10
3.8839024015748032
20
-5.3059490551181101
11
3.8876519291338583
21
-5.3134481496062991
0
LINE
8
BLACK
6
CONTINUOUS
10
3.8876519291338583
20
-5.3134481496062991
11
3.8876519291338583
21
-5.354692992125984
0
LINE
8
BLACK
6
CONTINUOUS
10
3.8876519291338583
20
-5.3134481496062991
11
3.8914014566929134
21
-5.3059490551181101
0
LINE
8
BLACK
6
CONTINUOUS
10
3.8914014566929134
20
-5.3059490551181101
11
3.8989005118110236
21
-5.302199527559055
0
LINE
8
BLACK
6
CONTINUOUS
10
3.8989005118110236
20
-5.302199527559055
11
3.9101490944881889
21
-5.302199527559055
0
LINE
8
BLACK
6
CONTINUOUS
10
3.9101490944881889
20
-5.302199527559055
11
3.9176481889763779
21
-5.3059490551181101
0
LINE
8
BLACK
6
CONTINUOUS
10
3.9176481889763779
20
-5.3059490551181101
11
3.921397716535433
21
-5.3134481496062991
0
LINE
8
BLACK
6
CONTINUOUS
10
3.921397716535433
20
-5.3134481496062991
11
3.921397716535433
21
-5.354692992125984
0
LINE
8
BLACK
6
CONTINUOUS
10
4.075128503937008
20
-5.2722033070866141
11
4.0076369685039372
21
-5.3734406299212596
0
LINE
8
BLACK
6
CONTINUOUS
10
4.1763658661417322
20
-5.2759528346456692
11
4.1838649606299212
21
-5.2759528346456692
0
LINE
8
BLACK
6
CONTINUOUS
10
4.1838649606299212
20
-5.2759528346456692
11
4.1913640157480314
21
-5.2797023622047243
0
LINE
8
BLACK
6
CONTINUOUS
10
4.1913640157480314
20
-5.2797023622047243
11
4.1951135433070865
21
-5.2834518897637794
0
LINE
8
BLACK
6
CONTINUOUS
10
4.1951135433070865
20
-5.2834518897637794
11
4.1988630708661416
21
-5.2909509448818897
0
LINE
8
BLACK
6
CONTINUOUS
10
4.1988630708661416
20
-5.2909509448818897
11
4.2026125984251967
21
-5.3059490551181101
0
LINE
8
BLACK
6
CONTINUOUS
10
4.2026125984251967
20
-5.3059490551181101
11
4.2026125984251967
21
-5.3246967322834644
0
LINE
8
BLACK
6
CONTINUOUS
10
4.2026125984251967
20
-5.3246967322834644
11
4.1988630708661416
21
-5.3396948425196848
0
LINE
8
BLACK
6
CONTINUOUS
10
4.1988630708661416
20
-5.3396948425196848
11
4.1951135433070865
21
-5.3471938976377951
0
LINE
8
BLACK
6
CONTINUOUS
10
4.1951135433070865
20
-5.3471938976377951
11
4.1913640157480314
21
-5.3509434645669289
0
LINE
8
BLACK
6
CONTINUOUS
10
4.1913640157480314
20
-5.3509434645669289
11
4.1838649606299212
21
-5.354692992125984
0
LINE
8
BLACK
6
CONTINUOUS
10
4.1838649606299212
20
-5.354692992125984
11
4.1763658661417322
21
-5.354692992125984
0
LINE
8
BLACK
6
CONTINUOUS
10
4.1763658661417322
20
-5.354692992125984
11
4.168866811023622
21
-5.3509434645669289
0
LINE
8
BLACK
6
CONTINUOUS
10
4.168866811023622
20
-5.3509434645669289
11
4.1651172834645669
21
-5.3471938976377951
0
LINE
8
BLACK
6
CONTINUOUS
10
4.1651172834645669
20
-5.3471938976377951
11
4.1613677559055118
21
-5.3396948425196848
0
LINE
8
BLACK
6
CONTINUOUS
10
4.1613677559055118
20
-5.3396948425196848
11
4.1576182283464567
21
-5.3246967322834644
0
LINE
8
BLACK
6
CONTINUOUS
10
4.1576182283464567
20
-5.3246967322834644
11
4.1576182283464567
21
-5.3059490551181101
0
LINE
8
BLACK
6
CONTINUOUS
10
4.1576182283464567
20
-5.3059490551181101
11
4.1613677559055118
21
-5.2909509448818897
0
LINE
8
BLACK
6
CONTINUOUS
10
4.1613677559055118
20
-5.2909509448818897
11
4.1651172834645669
21
-5.2834518897637794
0
LINE
8
BLACK
6
CONTINUOUS
10
4.1651172834645669
20
-5.2834518897637794
11
4.168866811023622
21
-5.2797023622047243
0
LINE
8
BLACK
6
CONTINUOUS
10
4.168866811023622
20
-5.2797023622047243
11
4.1763658661417322
21
-5.2759528346456692
0
LINE
8
BLACK
6
CONTINUOUS
10
4.2363583858267715
20
-5.3471938976377951
11
4.2401079133858266
21
-5.3509434645669289
0
LINE
8
BLACK
6
CONTINUOUS
10
4.2401079133858266
20
-5.3509434645669289
11
4.2363583858267715
21
-5.354692992125984
0
LINE
8
BLACK
6
CONTINUOUS
10
4.2363583858267715
20
-5.354692992125984
11
4.2326088582677164
21
-5.3509434645669289
0
LINE
8
BLACK
6
CONTINUOUS
10
4.2326088582677164
20
-5.3509434645669289
11
4.2363583858267715
21
-5.3471938976377951
0
LINE
8
BLACK
6
CONTINUOUS
10
4.2363583858267715
20
-5.3471938976377951
11
4.2363583858267715
21
-5.354692992125984
0
LINE
8
BLACK
6
CONTINUOUS
10
4.2888518110236218
20
-5.2759528346456692
11
4.2963509055118108
21
-5.2759528346456692
0
LINE
8
BLACK
6
CONTINUOUS
10
4.2963509055118108
20
-5.2759528346456692
11
4.303849960629921
21
-5.2797023622047243
0
LINE
8
BLACK
6
CONTINUOUS
10
4.303849960629921
20
-5.2797023622047243
11
4.3075994881889761
21
-5.2834518897637794
0
LINE
8
BLACK
6
CONTINUOUS
10
4.3075994881889761
20
-5.2834518897637794
11
4.3113490157480312
21
-5.2909509448818897
0
LINE
8
BLACK
6
CONTINUOUS
10
4.3113490157480312
20
-5.2909509448818897
11
4.3150985433070863
21
-5.3059490551181101
0
LINE
8
BLACK
6
CONTINUOUS
10
4.3150985433070863
20
-5.3059490551181101
11
4.3150985433070863
21
-5.3246967322834644
0
LINE
8
BLACK
6
CONTINUOUS
10
4.3150985433070863
20
-5.3246967322834644
11
4.3113490157480312
21
-5.3396948425196848
0
LINE
8
BLACK
6
CONTINUOUS
10
4.3113490157480312
20
-5.3396948425196848
11
4.3075994881889761
21
-5.3471938976377951
0
LINE
8
BLACK
6
CONTINUOUS
10
4.3075994881889761
20
-5.3471938976377951
11
4.303849960629921
21
-5.3509434645669289
0
LINE
8
BLACK
6
CONTINUOUS
10
4.303849960629921
20
-5.3509434645669289
11
4.2963509055118108
21
-5.354692992125984
0
LINE
8
BLACK
6
CONTINUOUS
10
4.2963509055118108
20
-5.354692992125984
11
4.2888518110236218
21
-5.354692992125984
0
LINE
8
BLACK
6
CONTINUOUS
10
4.2888518110236218
20
-5.354692992125984
11
4.2813527559055116
21
-5.3509434645669289
0
LINE
8
BLACK
6
CONTINUOUS
10
4.2813527559055116
20
-5.3509434645669289
11
4.2776032283464565
21
-5.3471938976377951
0
LINE
8
BLACK
6
CONTINUOUS
10
4.2776032283464565
20
-5.3471938976377951
11
4.2738537007874013
21
-5.3396948425196848
0
LINE
8
BLACK
6
CONTINUOUS
10
4.2738537007874013
20
-5.3396948425196848
11
4.2701041732283462
21
-5.3246967322834644
0
LINE
8
BLACK
6
CONTINUOUS
10
4.2701041732283462
20
-5.3246967322834644
11
4.2701041732283462
21
-5.3059490551181101
0
LINE
8
BLACK
6
CONTINUOUS
10
4.2701041732283462
20
-5.3059490551181101
11
4.2738537007874013
21
-5.2909509448818897
0
LINE
8
BLACK
6
CONTINUOUS
10
4.2738537007874013
20
-5.2909509448818897
11
4.2776032283464565
21
-5.2834518897637794
0
LINE
8
BLACK
6
CONTINUOUS
10
4.2776032283464565
20
-5.2834518897637794
11
4.2813527559055116
21
-5.2797023622047243
0
LINE
8
BLACK
6
CONTINUOUS
10
4.2813527559055116
20
-5.2797023622047243
11
4.2888518110236218
21
-5.2759528346456692
0
LINE
8
BLACK
6
CONTINUOUS
10
4.3825901181102358
20
-5.302199527559055
11
4.3825901181102358
21
-5.354692992125984
0
LINE
8
BLACK
6
CONTINUOUS
10
4.3638424409448815
20
-5.2722033070866141
11
4.3450948031496059
21
-5.3284462598425195
0
LINE
8
BLACK
6
CONTINUOUS
10
4.3450948031496059
20
-5.3284462598425195
11
4.3938387007874011
21
-5.3284462598425195
0
LINE
8
BLACK
6
CONTINUOUS
10
4.4163359055118105
20
-5.2759528346456692
11
4.4650798031496066
21
-5.2759528346456692
0
LINE
8
BLACK
6
CONTINUOUS
10
4.4650798031496066
20
-5.2759528346456692
11
4.4388330708661412
21
-5.3059490551181101
0
LINE
8
BLACK
6
CONTINUOUS
10
4.4388330708661412
20
-5.3059490551181101
11
4.4500816929133853
21
-5.3059490551181101
0
LINE
8
BLACK
6
CONTINUOUS
10
4.4500816929133853
20
-5.3059490551181101
11
4.4575807480314964
21
-5.3096985826771652
0
LINE
8
BLACK
6
CONTINUOUS
10
4.4575807480314964
20
-5.3096985826771652
11
4.4613302755905515
21
-5.3134481496062991
0
LINE
8
BLACK
6
CONTINUOUS
10
4.4613302755905515
20
-5.3134481496062991
11
4.4650798031496066
21
-5.3209472047244093
0
LINE
8
BLACK
6
CONTINUOUS
10
4.4650798031496066
20
-5.3209472047244093
11
4.4650798031496066
21
-5.3396948425196848
0
LINE
8
BLACK
6
CONTINUOUS
10
4.4650798031496066
20
-5.3396948425196848
11
4.4613302755905515
21
-5.3471938976377951
0
LINE
8
BLACK
6
CONTINUOUS
10
4.4613302755905515
20
-5.3471938976377951
11
4.4575807480314964
21
-5.3509434645669289
0
LINE
8
BLACK
6
CONTINUOUS
10
4.4575807480314964
20
-5.3509434645669289
11
4.4500816929133853
21
-5.354692992125984
0
LINE
8
BLACK
6
CONTINUOUS
10
4.4500816929133853
20
-5.354692992125984
11
4.4275844881889759
21
-5.354692992125984
0
LINE
8
BLACK
6
CONTINUOUS
10
4.4275844881889759
20
-5.354692992125984
11
4.4200854330708657
21
-5.3509434645669289
0
LINE
8
BLACK
6
CONTINUOUS
10
4.4200854330708657
20
-5.3509434645669289
11
4.4163359055118105
21
-5.3471938976377951
0
LINE
8
BLACK
6
CONTINUOUS
10
4.5138237007874018
20
-5.2759528346456692
11
4.5213227952755908
21
-5.2759528346456692
0
LINE
8
BLACK
6
CONTINUOUS
10
4.5213227952755908
20
-5.2759528346456692
11
4.528821850393701
21
-5.2797023622047243
0
LINE
8
BLACK
6
CONTINUOUS
10
4.528821850393701
20
-5.2797023622047243
11
4.5325713779527561
21
-5.2834518897637794
0
LINE
8
BLACK
6
CONTINUOUS
10
4.5325713779527561
20
-5.2834518897637794
11
4.5363209055118112
21
-5.2909509448818897
0
LINE
8
BLACK
6
CONTINUOUS
10
4.5363209055118112
20
-5.2909509448818897
11
4.5400704330708663
21
-5.3059490551181101
0
LINE
8
BLACK
6
CONTINUOUS
10
4.5400704330708663
20
-5.3059490551181101
11
4.5400704330708663
21
-5.3246967322834644
0
LINE
8
BLACK
6
CONTINUOUS
10
4.5400704330708663
20
-5.3246967322834644
11
4.5363209055118112
21
-5.3396948425196848
0
LINE
8
BLACK
6
CONTINUOUS
10
4.5363209055118112
20
-5.3396948425196848
11
4.5325713779527561
21
-5.3471938976377951
0
LINE
8
BLACK
6
CONTINUOUS
10
4.5325713779527561
20
-5.3471938976377951
11
4.528821850393701
21
-5.3509434645669289
0
LINE
8
BLACK
6
CONTINUOUS
10
4.528821850393701
20
-5.3509434645669289
11
4.5213227952755908
21
-5.354692992125984
0
LINE
8
BLACK
6
CONTINUOUS
10
4.5213227952755908
20
-5.354692992125984
11
4.5138237007874018
21
-5.354692992125984
0
LINE
8
BLACK
6
CONTINUOUS
10
4.5138237007874018
20
-5.354692992125984
11
4.5063246456692916
21
-5.3509434645669289
0
LINE
8
BLACK
6
CONTINUOUS
10
4.5063246456692916
20
-5.3509434645669289
11
4.5025751181102365
21
-5.3471938976377951
0
LINE
8
BLACK
6
CONTINUOUS
10
4.5025751181102365
20
-5.3471938976377951
11
4.4988255905511814
21
-5.3396948425196848
0
LINE
8
BLACK
6
CONTINUOUS
10
4.4988255905511814
20
-5.3396948425196848
11
4.4950760629921263
21
-5.3246967322834644
0
LINE
8
BLACK
6
CONTINUOUS
10
4.4950760629921263
20
-5.3246967322834644
11
4.4950760629921263
21
-5.3059490551181101
0
LINE
8
BLACK
6
CONTINUOUS
10
4.4950760629921263
20
-5.3059490551181101
11
4.4988255905511814
21
-5.2909509448818897
0
LINE
8
BLACK
6
CONTINUOUS
10
4.4988255905511814
20
-5.2909509448818897
11
4.5025751181102365
21
-5.2834518897637794
0
LINE
8
BLACK
6
CONTINUOUS
10
4.5025751181102365
20
-5.2834518897637794
11
4.5063246456692916
21
-5.2797023622047243
0
LINE
8
BLACK
6
CONTINUOUS
10
4.5063246456692916
20
-5.2797023622047243
11
4.5138237007874018
21
-5.2759528346456692
0
LINE
8
BLACK
6
CONTINUOUS
10
4.570066692913386
20
-5.2759528346456692
11
4.570066692913386
21
-5.2909509448818897
0
LINE
8
BLACK
6
CONTINUOUS
10
4.6000629527559056
20
-5.2759528346456692
11
4.6000629527559056
21
-5.2909509448818897
0
LINE
8
BLACK
6
CONTINUOUS
10
4.716298464566929
20
-5.3846892125984249
11
4.7125488976377952
21
-5.3809396850393698
0
LINE
8
BLACK
6
CONTINUOUS
10
4.7125488976377952
20
-5.3809396850393698
11
4.7050498425196849
21
-5.3696911023622045
0
LINE
8
BLACK
6
CONTINUOUS
10
4.7050498425196849
20
-5.3696911023622045
11
4.7013003149606298
21
-5.3621920472440943
0
LINE
8
BLACK
6
CONTINUOUS
10
4.7013003149606298
20
-5.3621920472440943
11
4.6975507874015747
21
-5.3509434645669289
0
LINE
8
BLACK
6
CONTINUOUS
10
4.6975507874015747
20
-5.3509434645669289
11
4.6938012598425196
21
-5.3321957874015746
0
LINE
8
BLACK
6
CONTINUOUS
10
4.6938012598425196
20
-5.3321957874015746
11
4.6938012598425196
21
-5.3171976771653542
0
LINE
8
BLACK
6
CONTINUOUS
10
4.6938012598425196
20
-5.3171976771653542
11
4.6975507874015747
21
-5.2984499999999999
0
LINE
8
BLACK
6
CONTINUOUS
10
4.6975507874015747
20
-5.2984499999999999
11
4.7013003149606298
21
-5.2872014173228346
0
LINE
8
BLACK
6
CONTINUOUS
10
4.7013003149606298
20
-5.2872014173228346
11
4.7050498425196849
21
-5.2797023622047243
0
LINE
8
BLACK
6
CONTINUOUS
10
4.7050498425196849
20
-5.2797023622047243
11
4.7125488976377952
21
-5.2684537401574802
0
LINE
8
BLACK
6
CONTINUOUS
10
4.7125488976377952
20
-5.2684537401574802
11
4.716298464566929
21
-5.2647042125984251
0
LINE
8
BLACK
6
CONTINUOUS
10
4.7800404724409447
20
-5.302199527559055
11
4.7800404724409447
21
-5.354692992125984
0
LINE
8
BLACK
6
CONTINUOUS
10
4.7612927952755904
20
-5.2722033070866141
11
4.7425451574803148
21
-5.3284462598425195
0
LINE
8
BLACK
6
CONTINUOUS
10
4.7425451574803148
20
-5.3284462598425195
11
4.79128905511811
21
-5.3284462598425195
0
LINE
8
BLACK
6
CONTINUOUS
10
4.8812778346456689
20
-5.354692992125984
11
4.8812778346456689
21
-5.2759528346456692
0
LINE
8
BLACK
6
CONTINUOUS
10
4.9150236220472436
20
-5.354692992125984
11
4.9150236220472436
21
-5.3134481496062991
0
LINE
8
BLACK
6
CONTINUOUS
10
4.9150236220472436
20
-5.3134481496062991
11
4.9112740944881885
21
-5.3059490551181101
0
LINE
8
BLACK
6
CONTINUOUS
10
4.9112740944881885
20
-5.3059490551181101
11
4.9037750393700783
21
-5.302199527559055
0
LINE
8
BLACK
6
CONTINUOUS
10
4.9037750393700783
20
-5.302199527559055
11
4.8925264173228342
21
-5.302199527559055
0
LINE
8
BLACK
6
CONTINUOUS
10
4.8925264173228342
20
-5.302199527559055
11
4.885027362204724
21
-5.3059490551181101
0
LINE
8
BLACK
6
CONTINUOUS
10
4.885027362204724
20
-5.3059490551181101
11
4.8812778346456689
21
-5.3096985826771652
0
LINE
8
BLACK
6
CONTINUOUS
10
4.9637675196850388
20
-5.354692992125984
11
4.9562684645669286
21
-5.3509434645669289
0
LINE
8
BLACK
6
CONTINUOUS
10
4.9562684645669286
20
-5.3509434645669289
11
4.9525189370078735
21
-5.3471938976377951
0
LINE
8
BLACK
6
CONTINUOUS
10
4.9525189370078735
20
-5.3471938976377951
11
4.9487694094488184
21
-5.3396948425196848
0
LINE
8
BLACK
6
CONTINUOUS
10
4.9487694094488184
20
-5.3396948425196848
11
4.9487694094488184
21
-5.3171976771653542
0
LINE
8
BLACK
6
CONTINUOUS
10
4.9487694094488184
20
-5.3171976771653542
11
4.9525189370078735
21
-5.3096985826771652
0
LINE
8
BLACK
6
CONTINUOUS
10
4.9525189370078735
20
-5.3096985826771652
11
4.9562684645669286
21
-5.3059490551181101
0
LINE
8
BLACK
6
CONTINUOUS
10
4.9562684645669286
20
-5.3059490551181101
11
4.9637675196850388
21
-5.302199527559055
0
LINE
8
BLACK
6
CONTINUOUS
10
4.9637675196850388
20
-5.302199527559055
11
4.9750161417322838
21
-5.302199527559055
0
LINE
8
BLACK
6
CONTINUOUS
10
4.9750161417322838
20
-5.302199527559055
11
4.982515196850394
21
-5.3059490551181101
0
LINE
8
BLACK
6
CONTINUOUS
10
4.982515196850394
20
-5.3059490551181101
11
4.9862647244094491
21
-5.3096985826771652
0
LINE
8
BLACK
6
CONTINUOUS
10
4.9862647244094491
20
-5.3096985826771652
11
4.9900142519685042
21
-5.3171976771653542
0
LINE
8
BLACK
6
CONTINUOUS
10
4.9900142519685042
20
-5.3171976771653542
11
4.9900142519685042
21
-5.3396948425196848
0
LINE
8
BLACK
6
CONTINUOUS
10
4.9900142519685042
20
-5.3396948425196848
11
4.9862647244094491
21
-5.3471938976377951
0
LINE
8
BLACK
6
CONTINUOUS
10
4.9862647244094491
20
-5.3471938976377951
11
4.982515196850394
21
-5.3509434645669289
0
LINE
8
BLACK
6
CONTINUOUS
10
4.982515196850394
20
-5.3509434645669289
11
4.9750161417322838
21
-5.354692992125984
0
LINE
8
BLACK
6
CONTINUOUS
10
4.9750161417322838
20
-5.354692992125984
11
4.9637675196850388
21
-5.354692992125984
0
LINE
8
BLACK
6
CONTINUOUS
10
5.0350086220472443
20
-5.354692992125984
11
5.0275095669291341
21
-5.3509434645669289
0
LINE
8
BLACK
6
CONTINUOUS
10
5.0275095669291341
20
-5.3509434645669289
11
5.023760039370079
21
-5.34344437007874
0
LINE
8
BLACK
6
CONTINUOUS
10
5.023760039370079
20
-5.34344437007874
11
5.023760039370079
21
-5.2759528346456692
0
LINE
8
BLACK
6
CONTINUOUS
10
5.0950011417322836
20
-5.3509434645669289
11
5.0875020866141734
21
-5.354692992125984
0
LINE
8
BLACK
6
CONTINUOUS
10
5.0875020866141734
20
-5.354692992125984
11
5.0725039370078742
21
-5.354692992125984
0
LINE
8
BLACK
6
CONTINUOUS
10
5.0725039370078742
20
-5.354692992125984
11
5.0650048818897639
21
-5.3509434645669289
0
LINE
8
BLACK
6
CONTINUOUS
10
5.0650048818897639
20
-5.3509434645669289
11
5.0612553543307088
21
-5.34344437007874
0
LINE
8
BLACK
6
CONTINUOUS
10
5.0612553543307088
20
-5.34344437007874
11
5.0612553543307088
21
-5.3134481496062991
0
LINE
8
BLACK
6
CONTINUOUS
10
5.0612553543307088
20
-5.3134481496062991
11
5.0650048818897639
21
-5.3059490551181101
0
LINE
8
BLACK
6
CONTINUOUS
10
5.0650048818897639
20
-5.3059490551181101
11
5.0725039370078742
21
-5.302199527559055
0
LINE
8
BLACK
6
CONTINUOUS
10
5.0725039370078742
20
-5.302199527559055
11
5.0875020866141734
21
-5.302199527559055
0
LINE
8
BLACK
6
CONTINUOUS
10
5.0875020866141734
20
-5.302199527559055
11
5.0950011417322836
21
-5.3059490551181101
0
LINE
8
BLACK
6
CONTINUOUS
10
5.0950011417322836
20
-5.3059490551181101
11
5.0987506692913387
21
-5.3134481496062991
0
LINE
8
BLACK
6
CONTINUOUS
10
5.0987506692913387
20
-5.3134481496062991
11
5.0987506692913387
21
-5.3209472047244093
0
LINE
8
BLACK
6
CONTINUOUS
10
5.0987506692913387
20
-5.3209472047244093
11
5.0612553543307088
21
-5.3284462598425195
0
LINE
8
BLACK
6
CONTINUOUS
10
5.1287469291338583
20
-5.3509434645669289
11
5.1362459842519685
21
-5.354692992125984
0
LINE
8
BLACK
6
CONTINUOUS
10
5.1362459842519685
20
-5.354692992125984
11
5.151244094488189
21
-5.354692992125984
0
LINE
8
BLACK
6
CONTINUOUS
10
5.151244094488189
20
-5.354692992125984
11
5.158743188976378
21
-5.3509434645669289
0
LINE
8
BLACK
6
CONTINUOUS
10
5.158743188976378
20
-5.3509434645669289
11
5.1624927165354331
21
-5.34344437007874
0
LINE
8
BLACK
6
CONTINUOUS
10
5.1624927165354331
20
-5.34344437007874
11
5.1624927165354331
21
-5.3396948425196848
0
LINE
8
BLACK
6
CONTINUOUS
10
5.1624927165354331
20
-5.3396948425196848
11
5.158743188976378
21
-5.3321957874015746
0
LINE
8
BLACK
6
CONTINUOUS
10
5.158743188976378
20
-5.3321957874015746
11
5.151244094488189
21
-5.3284462598425195
0
LINE
8
BLACK
6
CONTINUOUS
10
5.151244094488189
20
-5.3284462598425195
11
5.1399955118110237
21
-5.3284462598425195
0
LINE
8
BLACK
6
CONTINUOUS
10
5.1399955118110237
20
-5.3284462598425195
11
5.1324964566929134
21
-5.3246967322834644
0
LINE
8
BLACK
6
CONTINUOUS
10
5.1324964566929134
20
-5.3246967322834644
11
5.1287469291338583
21
-5.3171976771653542
0
LINE
8
BLACK
6
CONTINUOUS
10
5.1287469291338583
20
-5.3171976771653542
11
5.1287469291338583
21
-5.3134481496062991
0
LINE
8
BLACK
6
CONTINUOUS
10
5.1287469291338583
20
-5.3134481496062991
11
5.1324964566929134
21
-5.3059490551181101
0
LINE
8
BLACK
6
CONTINUOUS
10
5.1324964566929134
20
-5.3059490551181101
11
5.1399955118110237
21
-5.302199527559055
0
LINE
8
BLACK
6
CONTINUOUS
10
5.1399955118110237
20
-5.302199527559055
11
5.151244094488189
21
-5.302199527559055
0
LINE
8
BLACK
6
CONTINUOUS
10
5.151244094488189
20
-5.302199527559055
11
5.158743188976378
21
-5.3059490551181101
0
LINE
8
BLACK
6
CONTINUOUS
10
5.1887394488188976
20
-5.3846892125984249
11
5.1924889763779527
21
-5.3809396850393698
0
LINE
8
BLACK
6
CONTINUOUS
10
5.1924889763779527
20
-5.3809396850393698
11
5.1999880314960629
21
-5.3696911023622045
0
LINE
8
BLACK
6
CONTINUOUS
10
5.1999880314960629
20
-5.3696911023622045
11
5.203737559055118
21
-5.3621920472440943
0
LINE
8
BLACK
6
CONTINUOUS
10
5.203737559055118
20
-5.3621920472440943
11
5.2074870866141731
21
-5.3509434645669289
0
LINE
8
BLACK
6
CONTINUOUS
10
5.2074870866141731
20
-5.3509434645669289
11
5.2112366141732283
21
-5.3321957874015746
0
LINE
8
BLACK
6
CONTINUOUS
10
5.2112366141732283
20
-5.3321957874015746
11
5.2112366141732283
21
-5.3171976771653542
0
LINE
8
BLACK
6
CONTINUOUS
10
5.2112366141732283
20
-5.3171976771653542
11
5.2074870866141731
21
-5.2984499999999999
0
LINE
8
BLACK
6
CONTINUOUS
10
5.2074870866141731
20
-5.2984499999999999
11
5.203737559055118
21
-5.2872014173228346
0
LINE
8
BLACK
6
CONTINUOUS
10
5.203737559055118
20
-5.2872014173228346
11
5.1999880314960629
21
-5.2797023622047243
0
LINE
8
BLACK
6
CONTINUOUS
10
5.1999880314960629
20
-5.2797023622047243
11
5.1924889763779527
21
-5.2684537401574802
0
LINE
8
BLACK
6
CONTINUOUS
10
5.1924889763779527
20
-5.2684537401574802
11
5.1887394488188976
21
-5.2647042125984251
0
CIRCLE
8
BLACK
10
3.2694233070866141
20
-5.4226127559055115
40
0.0393700787401575
0
LINE
8
BLACK
6
CONTINUOUS
10
3.4039623622047244
20
-5.3798898425196846
11
3.4527062598425196
21
-5.3798898425196846
0
LINE
8
BLACK
6
CONTINUOUS
10
3.4527062598425196
20
-5.3798898425196846
11
3.426459527559055
21
-5.4098860629921255
0
LINE
8
BLACK
6
CONTINUOUS
10
3.426459527559055
20
-5.4098860629921255
11
3.4377081496062991
21
-5.4098860629921255
0
LINE
8
BLACK
6
CONTINUOUS
10
3.4377081496062991
20
-5.4098860629921255
11
3.4452072047244093
21
-5.4136355905511806
0
LINE
8
BLACK
6
CONTINUOUS
10
3.4452072047244093
20
-5.4136355905511806
11
3.4489567322834644
21
-5.4173851574803145
0
LINE
8
BLACK
6
CONTINUOUS
10
3.4489567322834644
20
-5.4173851574803145
11
3.4527062598425196
21
-5.4248842125984247
0
LINE
8
BLACK
6
CONTINUOUS
10
3.4527062598425196
20
-5.4248842125984247
11
3.4527062598425196
21
-5.4436318503937002
0
LINE
8
BLACK
6
CONTINUOUS
10
3.4527062598425196
20
-5.4436318503937002
11
3.4489567322834644
21
-5.4511309055118113
0
LINE
8
BLACK
6
CONTINUOUS
10
3.4489567322834644
20
-5.4511309055118113
11
3.4452072047244093
21
-5.4548804724409443
0
LINE
8
BLACK
6
CONTINUOUS
10
3.4452072047244093
20
-5.4548804724409443
11
3.4377081496062991
21
-5.4586300000000003
0
LINE
8
BLACK
6
CONTINUOUS
10
3.4377081496062991
20
-5.4586300000000003
11
3.4152109448818897
21
-5.4586300000000003
0
LINE
8
BLACK
6
CONTINUOUS
10
3.4152109448818897
20
-5.4586300000000003
11
3.4077118897637795
21
-5.4548804724409443
0
LINE
8
BLACK
6
CONTINUOUS
10
3.4077118897637795
20
-5.4548804724409443
11
3.4039623622047244
21
-5.4511309055118113
0
LINE
8
BLACK
6
CONTINUOUS
10
3.4864520472440943
20
-5.4511309055118113
11
3.4902015748031494
21
-5.4548804724409443
0
LINE
8
BLACK
6
CONTINUOUS
10
3.4902015748031494
20
-5.4548804724409443
11
3.4864520472440943
21
-5.4586300000000003
0
LINE
8
BLACK
6
CONTINUOUS
10
3.4864520472440943
20
-5.4586300000000003
11
3.4827025196850392
21
-5.4548804724409443
0
LINE
8
BLACK
6
CONTINUOUS
10
3.4827025196850392
20
-5.4548804724409443
11
3.4864520472440943
21
-5.4511309055118113
0
LINE
8
BLACK
6
CONTINUOUS
10
3.4864520472440943
20
-5.4511309055118113
11
3.4864520472440943
21
-5.4586300000000003
0
LINE
8
BLACK
6
CONTINUOUS
10
3.5651922047244096
20
-5.4586300000000003
11
3.520197834645669
21
-5.4586300000000003
0
LINE
8
BLACK
6
CONTINUOUS
10
3.5426949999999997
20
-5.4586300000000003
11
3.5426949999999997
21
-5.3798898425196846
0
LINE
8
BLACK
6
CONTINUOUS
10
3.5426949999999997
20
-5.3798898425196846
11
3.5351959448818895
21
-5.3911384251968499
0
LINE
8
BLACK
6
CONTINUOUS
10
3.5351959448818895
20
-5.3911384251968499
11
3.5276968897637793
21
-5.3986374803149602
0
LINE
8
BLACK
6
CONTINUOUS
10
3.5276968897637793
20
-5.3986374803149602
11
3.520197834645669
21
-5.4023870078740153
0
LINE
8
BLACK
6
CONTINUOUS
10
3.5914389370078741
20
-5.3798898425196846
11
3.6439323622047244
21
-5.3798898425196846
0
LINE
8
BLACK
6
CONTINUOUS
10
3.6439323622047244
20
-5.3798898425196846
11
3.6101865748031496
21
-5.4586300000000003
0
LINE
8
BLACK
6
CONTINUOUS
10
3.7114239370078739
20
-5.3798898425196846
11
3.673928622047244
21
-5.3798898425196846
0
LINE
8
BLACK
6
CONTINUOUS
10
3.673928622047244
20
-5.3798898425196846
11
3.6701790944881889
21
-5.4173851574803145
0
LINE
8
BLACK
6
CONTINUOUS
10
3.6701790944881889
20
-5.4173851574803145
11
3.673928622047244
21
-5.4136355905511806
0
LINE
8
BLACK
6
CONTINUOUS
10
3.673928622047244
20
-5.4136355905511806
11
3.6814276771653542
21
-5.4098860629921255
0
LINE
8
BLACK
6
CONTINUOUS
10
3.6814276771653542
20
-5.4098860629921255
11
3.7001753543307085
21
-5.4098860629921255
0
LINE
8
BLACK
6
CONTINUOUS
10
3.7001753543307085
20
-5.4098860629921255
11
3.7076744094488188
21
-5.4136355905511806
0
LINE
8
BLACK
6
CONTINUOUS
10
3.7076744094488188
20
-5.4136355905511806
11
3.7114239370078739
21
-5.4173851574803145
0
LINE
8
BLACK
6
CONTINUOUS
10
3.7114239370078739
20
-5.4173851574803145
11
3.715173464566929
21
-5.4248842125984247
0
LINE
8
BLACK
6
CONTINUOUS
10
3.715173464566929
20
-5.4248842125984247
11
3.715173464566929
21
-5.4436318503937002
0
LINE
8
BLACK
6
CONTINUOUS
10
3.715173464566929
20
-5.4436318503937002
11
3.7114239370078739
21
-5.4511309055118113
0
LINE
8
BLACK
6
CONTINUOUS
10
3.7114239370078739
20
-5.4511309055118113
11
3.7076744094488188
21
-5.4548804724409443
0
LINE
8
BLACK
6
CONTINUOUS
10
3.7076744094488188
20
-5.4548804724409443
11
3.7001753543307085
21
-5.4586300000000003
0
LINE
8
BLACK
6
CONTINUOUS
10
3.7001753543307085
20
-5.4586300000000003
11
3.6814276771653542
21
-5.4586300000000003
0
LINE
8
BLACK
6
CONTINUOUS
10
3.6814276771653542
20
-5.4586300000000003
11
3.673928622047244
21
-5.4548804724409443
0
LINE
8
BLACK
6
CONTINUOUS
10
3.673928622047244
20
-5.4548804724409443
11
3.6701790944881889
21
-5.4511309055118113
0
LINE
8
BLACK
6
CONTINUOUS
10
3.7489192519685037
20
-5.4586300000000003
11
3.7489192519685037
21
-5.4061365354330704
0
LINE
8
BLACK
6
CONTINUOUS
10
3.7489192519685037
20
-5.4136355905511806
11
3.7526687795275588
21
-5.4098860629921255
0
LINE
8
BLACK
6
CONTINUOUS
10
3.7526687795275588
20
-5.4098860629921255
11
3.7601678346456691
21
-5.4061365354330704
0
LINE
8
BLACK
6
CONTINUOUS
10
3.7601678346456691
20
-5.4061365354330704
11
3.7714164566929131
21
-5.4061365354330704
0
LINE
8
BLACK
6
CONTINUOUS
10
3.7714164566929131
20
-5.4061365354330704
11
3.7789155118110234
21
-5.4098860629921255
0
LINE
8
BLACK
6
CONTINUOUS
10
3.7789155118110234
20
-5.4098860629921255
11
3.7826650393700785
21
-5.4173851574803145
0
LINE
8
BLACK
6
CONTINUOUS
10
3.7826650393700785
20
-5.4173851574803145
11
3.7826650393700785
21
-5.4586300000000003
0
LINE
8
BLACK
6
CONTINUOUS
10
3.7826650393700785
20
-5.4173851574803145
11
3.7864145669291336
21
-5.4098860629921255
0
LINE
8
BLACK
6
CONTINUOUS
10
3.7864145669291336
20
-5.4098860629921255
11
3.7939136220472438
21
-5.4061365354330704
0
LINE
8
BLACK
6
CONTINUOUS
10
3.7939136220472438
20
-5.4061365354330704
11
3.8051622047244096
21
-5.4061365354330704
0
LINE
8
BLACK
6
CONTINUOUS
10
3.8051622047244096
20
-5.4061365354330704
11
3.8126612992125986
21
-5.4098860629921255
0
LINE
8
BLACK
6
CONTINUOUS
10
3.8126612992125986
20
-5.4098860629921255
11
3.8164108267716537
21
-5.4173851574803145
0
LINE
8
BLACK
6
CONTINUOUS
10
3.8164108267716537
20
-5.4173851574803145
11
3.8164108267716537
21
-5.4586300000000003
0
LINE
8
BLACK
6
CONTINUOUS
10
3.8539061417322835
20
-5.4586300000000003
11
3.8539061417322835
21
-5.4061365354330704
0
LINE
8
BLACK
6
CONTINUOUS
10
3.8539061417322835
20
-5.4136355905511806
11
3.8576556692913386
21
-5.4098860629921255
0
LINE
8
BLACK
6
CONTINUOUS
10
3.8576556692913386
20
-5.4098860629921255
11
3.8651547244094488
21
-5.4061365354330704
0
LINE
8
BLACK
6
CONTINUOUS
10
3.8651547244094488
20
-5.4061365354330704
11
3.8764033464566929
21
-5.4061365354330704
0
LINE
8
BLACK
6
CONTINUOUS
10
3.8764033464566929
20
-5.4061365354330704
11
3.8839024015748032
21
-5.4098860629921255
0
LINE
8
BLACK
6
CONTINUOUS
10
3.8839024015748032
20
-5.4098860629921255
11
3.8876519291338583
21
-5.4173851574803145
0
LINE
8
BLACK
6
CONTINUOUS
10
3.8876519291338583
20
-5.4173851574803145
11
3.8876519291338583
21
-5.4586300000000003
0
LINE
8
BLACK
6
CONTINUOUS
10
3.8876519291338583
20
-5.4173851574803145
11
3.8914014566929134
21
-5.4098860629921255
0
LINE
8
BLACK
6
CONTINUOUS
10
3.8914014566929134
20
-5.4098860629921255
11
3.8989005118110236
21
-5.4061365354330704
0
LINE
8
BLACK
6
CONTINUOUS
10
3.8989005118110236
20
-5.4061365354330704
11
3.9101490944881889
21
-5.4061365354330704
0
LINE
8
BLACK
6
CONTINUOUS
10
3.9101490944881889
20
-5.4061365354330704
11
3.9176481889763779
21
-5.4098860629921255
0
LINE
8
BLACK
6
CONTINUOUS
10
3.9176481889763779
20
-5.4098860629921255
11
3.921397716535433
21
-5.4173851574803145
0
LINE
8
BLACK
6
CONTINUOUS
10
3.921397716535433
20
-5.4173851574803145
11
3.921397716535433
21
-5.4586300000000003
0
LINE
8
BLACK
6
CONTINUOUS
10
4.075128503937008
20
-5.3761403149606295
11
4.0076369685039372
21
-5.4773776377952759
0
LINE
8
BLACK
6
CONTINUOUS
10
4.1763658661417322
20
-5.3798898425196846
11
4.1838649606299212
21
-5.3798898425196846
0
LINE
8
BLACK
6
CONTINUOUS
10
4.1838649606299212
20
-5.3798898425196846
11
4.1913640157480314
21
-5.3836393700787397
0
LINE
8
BLACK
6
CONTINUOUS
10
4.1913640157480314
20
-5.3836393700787397
11
4.1951135433070865
21
-5.3873888976377948
0
LINE
8
BLACK
6
CONTINUOUS
10
4.1951135433070865
20
-5.3873888976377948
11
4.1988630708661416
21
-5.394887952755905
0
LINE
8
BLACK
6
CONTINUOUS
10
4.1988630708661416
20
-5.394887952755905
11
4.2026125984251967
21
-5.4098860629921255
0
LINE
8
BLACK
6
CONTINUOUS
10
4.2026125984251967
20
-5.4098860629921255
11
4.2026125984251967
21
-5.4286337401574798
0
LINE
8
BLACK
6
CONTINUOUS
10
4.2026125984251967
20
-5.4286337401574798
11
4.1988630708661416
21
-5.4436318503937002
0
LINE
8
BLACK
6
CONTINUOUS
10
4.1988630708661416
20
-5.4436318503937002
11
4.1951135433070865
21
-5.4511309055118113
0
LINE
8
BLACK
6
CONTINUOUS
10
4.1951135433070865
20
-5.4511309055118113
11
4.1913640157480314
21
-5.4548804724409443
0
LINE
8
BLACK
6
CONTINUOUS
10
4.1913640157480314
20
-5.4548804724409443
11
4.1838649606299212
21
-5.4586300000000003
0
LINE
8
BLACK
6
CONTINUOUS
10
4.1838649606299212
20
-5.4586300000000003
11
4.1763658661417322
21
-5.4586300000000003
0
LINE
8
BLACK
6
CONTINUOUS
10
4.1763658661417322
20
-5.4586300000000003
11
4.168866811023622
21
-5.4548804724409443
0
LINE
8
BLACK
6
CONTINUOUS
10
4.168866811023622
20
-5.4548804724409443
11
4.1651172834645669
21
-5.4511309055118113
0
LINE
8
BLACK
6
CONTINUOUS
10
4.1651172834645669
20
-5.4511309055118113
11
4.1613677559055118
21
-5.4436318503937002
0
LINE
8
BLACK
6
CONTINUOUS
10
4.1613677559055118
20
-5.4436318503937002
11
4.1576182283464567
21
-5.4286337401574798
0
LINE
8
BLACK
6
CONTINUOUS
10
4.1576182283464567
20
-5.4286337401574798
11
4.1576182283464567
21
-5.4098860629921255
0
LINE
8
BLACK
6
CONTINUOUS
10
4.1576182283464567
20
-5.4098860629921255
11
4.1613677559055118
21
-5.394887952755905
0
LINE
8
BLACK
6
CONTINUOUS
10
4.1613677559055118
20
-5.394887952755905
11
4.1651172834645669
21
-5.3873888976377948
0
LINE
8
BLACK
6
CONTINUOUS
10
4.1651172834645669
20
-5.3873888976377948
11
4.168866811023622
21
-5.3836393700787397
0
LINE
8
BLACK
6
CONTINUOUS
10
4.168866811023622
20
-5.3836393700787397
11
4.1763658661417322
21
-5.3798898425196846
0
LINE
8
BLACK
6
CONTINUOUS
10
4.2363583858267715
20
-5.4511309055118113
11
4.2401079133858266
21
-5.4548804724409443
0
LINE
8
BLACK
6
CONTINUOUS
10
4.2401079133858266
20
-5.4548804724409443
11
4.2363583858267715
21
-5.4586300000000003
0
LINE
8
BLACK
6
CONTINUOUS
10
4.2363583858267715
20
-5.4586300000000003
11
4.2326088582677164
21
-5.4548804724409443
0
LINE
8
BLACK
6
CONTINUOUS
10
4.2326088582677164
20
-5.4548804724409443
11
4.2363583858267715
21
-5.4511309055118113
0
LINE
8
BLACK
6
CONTINUOUS
10
4.2363583858267715
20
-5.4511309055118113
11
4.2363583858267715
21
-5.4586300000000003
0
LINE
8
BLACK
6
CONTINUOUS
10
4.3150985433070863
20
-5.4586300000000003
11
4.2701041732283462
21
-5.4586300000000003
0
LINE
8
BLACK
6
CONTINUOUS
10
4.2926013385826769
20
-5.4586300000000003
11
4.2926013385826769
21
-5.3798898425196846
0
LINE
8
BLACK
6
CONTINUOUS
10
4.2926013385826769
20
-5.3798898425196846
11
4.2851022834645667
21
-5.3911384251968499
0
LINE
8
BLACK
6
CONTINUOUS
10
4.2851022834645667
20
-5.3911384251968499
11
4.2776032283464565
21
-5.3986374803149602
0
LINE
8
BLACK
6
CONTINUOUS
10
4.2776032283464565
20
-5.3986374803149602
11
4.2701041732283462
21
-5.4023870078740153
0
LINE
8
BLACK
6
CONTINUOUS
10
4.3450948031496059
20
-5.3873888976377948
11
4.3488443307086611
21
-5.3836393700787397
0
LINE
8
BLACK
6
CONTINUOUS
10
4.3488443307086611
20
-5.3836393700787397
11
4.3563433858267713
21
-5.3798898425196846
0
LINE
8
BLACK
6
CONTINUOUS
10
4.3563433858267713
20
-5.3798898425196846
11
4.3750910629921256
21
-5.3798898425196846
0
LINE
8
BLACK
6
CONTINUOUS
10
4.3750910629921256
20
-5.3798898425196846
11
4.3825901181102358
21
-5.3836393700787397
0
LINE
8
BLACK
6
CONTINUOUS
10
4.3825901181102358
20
-5.3836393700787397
11
4.3863396456692909
21
-5.3873888976377948
0
LINE
8
BLACK
6
CONTINUOUS
10
4.3863396456692909
20
-5.3873888976377948
11
4.390089173228346
21
-5.394887952755905
0
LINE
8
BLACK
6
CONTINUOUS
10
4.390089173228346
20
-5.394887952755905
11
4.390089173228346
21
-5.4023870078740153
0
LINE
8
BLACK
6
CONTINUOUS
10
4.390089173228346
20
-5.4023870078740153
11
4.3863396456692909
21
-5.4136355905511806
0
LINE
8
BLACK
6
CONTINUOUS
10
4.3863396456692909
20
-5.4136355905511806
11
4.3413452755905508
21
-5.4586300000000003
0
LINE
8
BLACK
6
CONTINUOUS
10
4.3413452755905508
20
-5.4586300000000003
11
4.390089173228346
21
-5.4586300000000003
0
LINE
8
BLACK
6
CONTINUOUS
10
4.4613302755905515
20
-5.3798898425196846
11
4.4238349606299208
21
-5.3798898425196846
0
LINE
8
BLACK
6
CONTINUOUS
10
4.4238349606299208
20
-5.3798898425196846
11
4.4200854330708657
21
-5.4173851574803145
0
LINE
8
BLACK
6
CONTINUOUS
10
4.4200854330708657
20
-5.4173851574803145
11
4.4238349606299208
21
-5.4136355905511806
0
LINE
8
BLACK
6
CONTINUOUS
10
4.4238349606299208
20
-5.4136355905511806
11
4.431334015748031
21
-5.4098860629921255
0
LINE
8
BLACK
6
CONTINUOUS
10
4.431334015748031
20
-5.4098860629921255
11
4.4500816929133853
21
-5.4098860629921255
0
LINE
8
BLACK
6
CONTINUOUS
10
4.4500816929133853
20
-5.4098860629921255
11
4.4575807480314964
21
-5.4136355905511806
0
LINE
8
BLACK
6
CONTINUOUS
10
4.4575807480314964
20
-5.4136355905511806
11
4.4613302755905515
21
-5.4173851574803145
0
LINE
8
BLACK
6
CONTINUOUS
10
4.4613302755905515
20
-5.4173851574803145
11
4.4650798031496066
21
-5.4248842125984247
0
LINE
8
BLACK
6
CONTINUOUS
10
4.4650798031496066
20
-5.4248842125984247
11
4.4650798031496066
21
-5.4436318503937002
0
LINE
8
BLACK
6
CONTINUOUS
10
4.4650798031496066
20
-5.4436318503937002
11
4.4613302755905515
21
-5.4511309055118113
0
LINE
8
BLACK
6
CONTINUOUS
10
4.4613302755905515
20
-5.4511309055118113
11
4.4575807480314964
21
-5.4548804724409443
0
LINE
8
BLACK
6
CONTINUOUS
10
4.4575807480314964
20
-5.4548804724409443
11
4.4500816929133853
21
-5.4586300000000003
0
LINE
8
BLACK
6
CONTINUOUS
10
4.4500816929133853
20
-5.4586300000000003
11
4.431334015748031
21
-5.4586300000000003
0
LINE
8
BLACK
6
CONTINUOUS
10
4.431334015748031
20
-5.4586300000000003
11
4.4238349606299208
21
-5.4548804724409443
0
LINE
8
BLACK
6
CONTINUOUS
10
4.4238349606299208
20
-5.4548804724409443
11
4.4200854330708657
21
-5.4511309055118113
0
LINE
8
BLACK
6
CONTINUOUS
10
4.5138237007874018
20
-5.3798898425196846
11
4.5213227952755908
21
-5.3798898425196846
0
LINE
8
BLACK
6
CONTINUOUS
10
4.5213227952755908
20
-5.3798898425196846
11
4.528821850393701
21
-5.3836393700787397
0
LINE
8
BLACK
6
CONTINUOUS
10
4.528821850393701
20
-5.3836393700787397
11
4.5325713779527561
21
-5.3873888976377948
0
LINE
8
BLACK
6
CONTINUOUS
10
4.5325713779527561
20
-5.3873888976377948
11
4.5363209055118112
21
-5.394887952755905
0
LINE
8
BLACK
6
CONTINUOUS
10
4.5363209055118112
20
-5.394887952755905
11
4.5400704330708663
21
-5.4098860629921255
0
LINE
8
BLACK
6
CONTINUOUS
10
4.5400704330708663
20
-5.4098860629921255
11
4.5400704330708663
21
-5.4286337401574798
0
LINE
8
BLACK
6
CONTINUOUS
10
4.5400704330708663
20
-5.4286337401574798
11
4.5363209055118112
21
-5.4436318503937002
0
LINE
8
BLACK
6
CONTINUOUS
10
4.5363209055118112
20
-5.4436318503937002
11
4.5325713779527561
21
-5.4511309055118113
0
LINE
8
BLACK
6
CONTINUOUS
10
4.5325713779527561
20
-5.4511309055118113
11
4.528821850393701
21
-5.4548804724409443
0
LINE
8
BLACK
6
CONTINUOUS
10
4.528821850393701
20
-5.4548804724409443
11
4.5213227952755908
21
-5.4586300000000003
0
LINE
8
BLACK
6
CONTINUOUS
10
4.5213227952755908
20
-5.4586300000000003
11
4.5138237007874018
21
-5.4586300000000003
0
LINE
8
BLACK
6
CONTINUOUS
10
4.5138237007874018
20
-5.4586300000000003
11
4.5063246456692916
21
-5.4548804724409443
0
LINE
8
BLACK
6
CONTINUOUS
10
4.5063246456692916
20
-5.4548804724409443
11
4.5025751181102365
21
-5.4511309055118113
0
LINE
8
BLACK
6
CONTINUOUS
10
4.5025751181102365
20
-5.4511309055118113
11
4.4988255905511814
21
-5.4436318503937002
0
LINE
8
BLACK
6
CONTINUOUS
10
4.4988255905511814
20
-5.4436318503937002
11
4.4950760629921263
21
-5.4286337401574798
0
LINE
8
BLACK
6
CONTINUOUS
10
4.4950760629921263
20
-5.4286337401574798
11
4.4950760629921263
21
-5.4098860629921255
0
LINE
8
BLACK
6
CONTINUOUS
10
4.4950760629921263
20
-5.4098860629921255
11
4.4988255905511814
21
-5.394887952755905
0
LINE
8
BLACK
6
CONTINUOUS
10
4.4988255905511814
20
-5.394887952755905
11
4.5025751181102365
21
-5.3873888976377948
0
LINE
8
BLACK
6
CONTINUOUS
10
4.5025751181102365
20
-5.3873888976377948
11
4.5063246456692916
21
-5.3836393700787397
0
LINE
8
BLACK
6
CONTINUOUS
10
4.5063246456692916
20
-5.3836393700787397
11
4.5138237007874018
21
-5.3798898425196846
0
LINE
8
BLACK
6
CONTINUOUS
10
4.570066692913386
20
-5.3798898425196846
11
4.570066692913386
21
-5.394887952755905
0
LINE
8
BLACK
6
CONTINUOUS
10
4.6000629527559056
20
-5.3798898425196846
11
4.6000629527559056
21
-5.394887952755905
0
LINE
8
BLACK
6
CONTINUOUS
10
4.716298464566929
20
-5.4886262204724412
11
4.7125488976377952
21
-5.4848766929133861
0
LINE
8
BLACK
6
CONTINUOUS
10
4.7125488976377952
20
-5.4848766929133861
11
4.7050498425196849
21
-5.4736281102362208
0
LINE
8
BLACK
6
CONTINUOUS
10
4.7050498425196849
20
-5.4736281102362208
11
4.7013003149606298
21
-5.4661290551181105
0
LINE
8
BLACK
6
CONTINUOUS
10
4.7013003149606298
20
-5.4661290551181105
11
4.6975507874015747
21
-5.4548804724409443
0
LINE
8
BLACK
6
CONTINUOUS
10
4.6975507874015747
20
-5.4548804724409443
11
4.6938012598425196
21
-5.43613279527559
0
LINE
8
BLACK
6
CONTINUOUS
10
4.6938012598425196
20
-5.43613279527559
11
4.6938012598425196
21
-5.4211346850393696
0
LINE
8
BLACK
6
CONTINUOUS
10
4.6938012598425196
20
-5.4211346850393696
11
4.6975507874015747
21
-5.4023870078740153
0
LINE
8
BLACK
6
CONTINUOUS
10
4.6975507874015747
20
-5.4023870078740153
11
4.7013003149606298
21
-5.3911384251968499
0
LINE
8
BLACK
6
CONTINUOUS
10
4.7013003149606298
20
-5.3911384251968499
11
4.7050498425196849
21
-5.3836393700787397
0
LINE
8
BLACK
6
CONTINUOUS
10
4.7050498425196849
20
-5.3836393700787397
11
4.7125488976377952
21
-5.3723907480314956
0
LINE
8
BLACK
6
CONTINUOUS
10
4.7125488976377952
20
-5.3723907480314956
11
4.716298464566929
21
-5.3686412204724405
0
LINE
8
BLACK
6
CONTINUOUS
10
4.7425451574803148
20
-5.3873888976377948
11
4.7462946850393699
21
-5.3836393700787397
0
LINE
8
BLACK
6
CONTINUOUS
10
4.7462946850393699
20
-5.3836393700787397
11
4.7537937401574801
21
-5.3798898425196846
0
LINE
8
BLACK
6
CONTINUOUS
10
4.7537937401574801
20
-5.3798898425196846
11
4.7725414173228344
21
-5.3798898425196846
0
LINE
8
BLACK
6
CONTINUOUS
10
4.7725414173228344
20
-5.3798898425196846
11
4.7800404724409447
21
-5.3836393700787397
0
LINE
8
BLACK
6
CONTINUOUS
10
4.7800404724409447
20
-5.3836393700787397
11
4.7837899999999998
21
-5.3873888976377948
0
LINE
8
BLACK
6
CONTINUOUS
10
4.7837899999999998
20
-5.3873888976377948
11
4.7875395275590549
21
-5.394887952755905
0
LINE
8
BLACK
6
CONTINUOUS
10
4.7875395275590549
20
-5.394887952755905
11
4.7875395275590549
21
-5.4023870078740153
0
LINE
8
BLACK
6
CONTINUOUS
10
4.7875395275590549
20
-5.4023870078740153
11
4.7837899999999998
21
-5.4136355905511806
0
LINE
8
BLACK
6
CONTINUOUS
10
4.7837899999999998
20
-5.4136355905511806
11
4.7387956299212597
21
-5.4586300000000003
0
LINE
8
BLACK
6
CONTINUOUS
10
4.7387956299212597
20
-5.4586300000000003
11
4.7875395275590549
21
-5.4586300000000003
0
LINE
8
BLACK
6
CONTINUOUS
10
4.8812778346456689
20
-5.4586300000000003
11
4.8812778346456689
21
-5.3798898425196846
0
LINE
8
BLACK
6
CONTINUOUS
10
4.9150236220472436
20
-5.4586300000000003
11
4.9150236220472436
21
-5.4173851574803145
0
LINE
8
BLACK
6
CONTINUOUS
10
4.9150236220472436
20
-5.4173851574803145
11
4.9112740944881885
21
-5.4098860629921255
0
LINE
8
BLACK
6
CONTINUOUS
10
4.9112740944881885
20
-5.4098860629921255
11
4.9037750393700783
21
-5.4061365354330704
0
LINE
8
BLACK
6
CONTINUOUS
10
4.9037750393700783
20
-5.4061365354330704
11
4.8925264173228342
21
-5.4061365354330704
0
LINE
8
BLACK
6
CONTINUOUS
10
4.8925264173228342
20
-5.4061365354330704
11
4.885027362204724
21
-5.4098860629921255
0
LINE
8
BLACK
6
CONTINUOUS
10
4.885027362204724
20
-5.4098860629921255
11
4.8812778346456689
21
-5.4136355905511806
0
LINE
8
BLACK
6
CONTINUOUS
10
4.9637675196850388
20
-5.4586300000000003
11
4.9562684645669286
21
-5.4548804724409443
0
LINE
8
BLACK
6
CONTINUOUS
10
4.9562684645669286
20
-5.4548804724409443
11
4.9525189370078735
21
-5.4511309055118113
0
LINE
8
BLACK
6
CONTINUOUS
10
4.9525189370078735
20
-5.4511309055118113
11
4.9487694094488184
21
-5.4436318503937002
0
LINE
8
BLACK
6
CONTINUOUS
10
4.9487694094488184
20
-5.4436318503937002
11
4.9487694094488184
21
-5.4211346850393696
0
LINE
8
BLACK
6
CONTINUOUS
10
4.9487694094488184
20
-5.4211346850393696
11
4.9525189370078735
21
-5.4136355905511806
0
LINE
8
BLACK
6
CONTINUOUS
10
4.9525189370078735
20
-5.4136355905511806
11
4.9562684645669286
21
-5.4098860629921255
0
LINE
8
BLACK
6
CONTINUOUS
10
4.9562684645669286
20
-5.4098860629921255
11
4.9637675196850388
21
-5.4061365354330704
0
LINE
8
BLACK
6
CONTINUOUS
10
4.9637675196850388
20
-5.4061365354330704
11
4.9750161417322838
21
-5.4061365354330704
0
LINE
8
BLACK
6
CONTINUOUS
10
4.9750161417322838
20
-5.4061365354330704
11
4.982515196850394
21
-5.4098860629921255
0
LINE
8
BLACK
6
CONTINUOUS
10
4.982515196850394
20
-5.4098860629921255
11
4.9862647244094491
21
-5.4136355905511806
0
LINE
8
BLACK
6
CONTINUOUS
10
4.9862647244094491
20
-5.4136355905511806
11
4.9900142519685042
21
-5.4211346850393696
0
LINE
8
BLACK
6
CONTINUOUS
10
4.9900142519685042
20
-5.4211346850393696
11
4.9900142519685042
21
-5.4436318503937002
0
LINE
8
BLACK
6
CONTINUOUS
10
4.9900142519685042
20
-5.4436318503937002
11
4.9862647244094491
21
-5.4511309055118113
0
LINE
8
BLACK
6
CONTINUOUS
10
4.9862647244094491
20
-5.4511309055118113
11
4.982515196850394
21
-5.4548804724409443
0
LINE
8
BLACK
6
CONTINUOUS
10
4.982515196850394
20
-5.4548804724409443
11
4.9750161417322838
21
-5.4586300000000003
0
LINE
8
BLACK
6
CONTINUOUS
10
4.9750161417322838
20
-5.4586300000000003
11
4.9637675196850388
21
-5.4586300000000003
0
LINE
8
BLACK
6
CONTINUOUS
10
5.0350086220472443
20
-5.4586300000000003
11
5.0275095669291341
21
-5.4548804724409443
0
LINE
8
BLACK
6
CONTINUOUS
10
5.0275095669291341
20
-5.4548804724409443
11
5.023760039370079
21
-5.4473813779527553
0
LINE
8
BLACK
6
CONTINUOUS
10
5.023760039370079
20
-5.4473813779527553
11
5.023760039370079
21
-5.3798898425196846
0
LINE
8
BLACK
6
CONTINUOUS
10
5.0950011417322836
20
-5.4548804724409443
11
5.0875020866141734
21
-5.4586300000000003
0
LINE
8
BLACK
6
CONTINUOUS
10
5.0875020866141734
20
-5.4586300000000003
11
5.0725039370078742
21
-5.4586300000000003
0
LINE
8
BLACK
6
CONTINUOUS
10
5.0725039370078742
20
-5.4586300000000003
11
5.0650048818897639
21
-5.4548804724409443
0
LINE
8
BLACK
6
CONTINUOUS
10
5.0650048818897639
20
-5.4548804724409443
11
5.0612553543307088
21
-5.4473813779527553
0
LINE
8
BLACK
6
CONTINUOUS
10
5.0612553543307088
20
-5.4473813779527553
11
5.0612553543307088
21
-5.4173851574803145
0
LINE
8
BLACK
6
CONTINUOUS
10
5.0612553543307088
20
-5.4173851574803145
11
5.0650048818897639
21
-5.4098860629921255
0
LINE
8
BLACK
6
CONTINUOUS
10
5.0650048818897639
20
-5.4098860629921255
11
5.0725039370078742
21
-5.4061365354330704
0
LINE
8
BLACK
6
CONTINUOUS
10
5.0725039370078742
20
-5.4061365354330704
11
5.0875020866141734
21
-5.4061365354330704
0
LINE
8
BLACK
6
CONTINUOUS
10
5.0875020866141734
20
-5.4061365354330704
11
5.0950011417322836
21
-5.4098860629921255
0
LINE
8
BLACK
6
CONTINUOUS
10
5.0950011417322836
20
-5.4098860629921255
11
5.0987506692913387
21
-5.4173851574803145
0
LINE
8
BLACK
6
CONTINUOUS
10
5.0987506692913387
20
-5.4173851574803145
11
5.0987506692913387
21
-5.4248842125984247
0
LINE
8
BLACK
6
CONTINUOUS
10
5.0987506692913387
20
-5.4248842125984247
11
5.0612553543307088
21
-5.4323832677165349
0
LINE
8
BLACK
6
CONTINUOUS
10
5.1287469291338583
20
-5.4548804724409443
11
5.1362459842519685
21
-5.4586300000000003
0
LINE
8
BLACK
6
CONTINUOUS
10
5.1362459842519685
20
-5.4586300000000003
11
5.151244094488189
21
-5.4586300000000003
0
LINE
8
BLACK
6
CONTINUOUS
10
5.151244094488189
20
-5.4586300000000003
11
5.158743188976378
21
-5.4548804724409443
0
LINE
8
BLACK
6
CONTINUOUS
10
5.158743188976378
20
-5.4548804724409443
11
5.1624927165354331
21
-5.4473813779527553
0
LINE
8
BLACK
6
CONTINUOUS
10
5.1624927165354331
20
-5.4473813779527553
11
5.1624927165354331
21
-5.4436318503937002
0
LINE
8
BLACK
6
CONTINUOUS
10
5.1624927165354331
20
-5.4436318503937002
11
5.158743188976378
21
-5.43613279527559
0
LINE
8
BLACK
6
CONTINUOUS
10
5.158743188976378
20
-5.43613279527559
11
5.151244094488189
21
-5.4323832677165349
0
LINE
8
BLACK
6
CONTINUOUS
10
5.151244094488189
20
-5.4323832677165349
11
5.1399955118110237
21
-5.4323832677165349
0
LINE
8
BLACK
6
CONTINUOUS
10
5.1399955118110237
20
-5.4323832677165349
11
5.1324964566929134
21
-5.4286337401574798
0
LINE
8
BLACK
6
CONTINUOUS
10
5.1324964566929134
20
-5.4286337401574798
11
5.1287469291338583
21
-5.4211346850393696
0
LINE
8
BLACK
6
CONTINUOUS
10
5.1287469291338583
20
-5.4211346850393696
11
5.1287469291338583
21
-5.4173851574803145
0
LINE
8
BLACK
6
CONTINUOUS
10
5.1287469291338583
20
-5.4173851574803145
11
5.1324964566929134
21
-5.4098860629921255
0
LINE
8
BLACK
6
CONTINUOUS
10
5.1324964566929134
20
-5.4098860629921255
11
5.1399955118110237
21
-5.4061365354330704
0
LINE
8
BLACK
6
CONTINUOUS
10
5.1399955118110237
20
-5.4061365354330704
11
5.151244094488189
21
-5.4061365354330704
0
LINE
8
BLACK
6
CONTINUOUS
10
5.151244094488189
20
-5.4061365354330704
11
5.158743188976378
21
-5.4098860629921255
0
LINE
8
BLACK
6
CONTINUOUS
10
5.1887394488188976
20
-5.4886262204724412
11
5.1924889763779527
21
-5.4848766929133861
0
LINE
8
BLACK
6
CONTINUOUS
10
5.1924889763779527
20
-5.4848766929133861
11
5.1999880314960629
21
-5.4736281102362208
0
LINE
8
BLACK
6
CONTINUOUS
10
5.1999880314960629
20
-5.4736281102362208
11
5.203737559055118
21
-5.4661290551181105
0
LINE
8
BLACK
6
CONTINUOUS
10
5.203737559055118
20
-5.4661290551181105
11
5.2074870866141731
21
-5.4548804724409443
0
LINE
8
BLACK
6
CONTINUOUS
10
5.2074870866141731
20
-5.4548804724409443
11
5.2112366141732283
21
-5.43613279527559
0
LINE
8
BLACK
6
CONTINUOUS
10
5.2112366141732283
20
-5.43613279527559
11
5.2112366141732283
21
-5.4211346850393696
0
LINE
8
BLACK
6
CONTINUOUS
10
5.2112366141732283
20
-5.4211346850393696
11
5.2074870866141731
21
-5.4023870078740153
0
LINE
8
BLACK
6
CONTINUOUS
10
5.2074870866141731
20
-5.4023870078740153
11
5.203737559055118
21
-5.3911384251968499
0
LINE
8
BLACK
6
CONTINUOUS
10
5.203737559055118
20
-5.3911384251968499
11
5.1999880314960629
21
-5.3836393700787397
0
LINE
8
BLACK
6
CONTINUOUS
10
5.1999880314960629
20
-5.3836393700787397
11
5.1924889763779527
21
-5.3723907480314956
0
LINE
8
BLACK
6
CONTINUOUS
10
5.1924889763779527
20
-5.3723907480314956
11
5.1887394488188976
21
-5.3686412204724405
  0
ENDSEC
  0
EOF
