<?xml version="1.0" standalone="no"?>
 <!DOCTYPE svg PUBLIC "-//W3C//DTD SVG 1.1//EN" 
 "http://www.w3.org/Graphics/SVG/1.1/DTD/svg11.dtd"> 
<svg
  xmlns:svg="http://www.w3.org/2000/svg"
  xmlns="http://www.w3.org/2000/svg"
  xmlns:xlink="http://www.w3.org/1999/xlink"
  version="1.1"
  width="431.8000mm" height="279.4000mm" viewBox="0.0000 0.0000 431.8000 279.4000">
<title>SVG Image created as mag-encoder-F_Silkscreen.svg date 2024/08/24 22:03:12 </title>
  <desc>Image generated by PCBNEW </desc>
<g style="fill:#000000; fill-opacity:1.0000;stroke:#000000; stroke-opacity:1.0000;
stroke-linecap:round; stroke-linejoin:round;"
 transform="translate(0 0) scale(1 1)">
</g>
<g style="fill:none; 
stroke:#000000; stroke-width:0.1524; stroke-opacity:1; 
stroke-linecap:round; stroke-linejoin:round;">
<text x="224.7900" y="133.7310"
textLength="4.2962" font-size="1.0160" lengthAdjust="spacingAndGlyphs"
text-anchor="start" opacity="0" stroke-opacity="0">1-GND</text>
<g class="stroked-text"><desc>1-GND</desc>
<path d="M225.4708 133.7594
L225.0354 133.7594
" />
<path d="M225.2531 133.7594
L225.2531 132.9974
" />
<path d="M225.2531 132.9974
L225.1805 133.1062
" />
<path d="M225.1805 133.1062
L225.1080 133.1788
" />
<path d="M225.1080 133.1788
L225.0354 133.2151
" />
<path d="M225.7974 133.4691
L226.3780 133.4691
" />
<path d="M227.1400 133.0336
L227.0674 132.9974
" />
<path d="M227.0674 132.9974
L226.9585 132.9974
" />
<path d="M226.9585 132.9974
L226.8497 133.0336
" />
<path d="M226.8497 133.0336
L226.7771 133.1062
" />
<path d="M226.7771 133.1062
L226.7408 133.1788
" />
<path d="M226.7408 133.1788
L226.7045 133.3239
" />
<path d="M226.7045 133.3239
L226.7045 133.4328
" />
<path d="M226.7045 133.4328
L226.7408 133.5779
" />
<path d="M226.7408 133.5779
L226.7771 133.6505
" />
<path d="M226.7771 133.6505
L226.8497 133.7231
" />
<path d="M226.8497 133.7231
L226.9585 133.7594
" />
<path d="M226.9585 133.7594
L227.0311 133.7594
" />
<path d="M227.0311 133.7594
L227.1400 133.7231
" />
<path d="M227.1400 133.7231
L227.1763 133.6868
" />
<path d="M227.1763 133.6868
L227.1763 133.4328
" />
<path d="M227.1763 133.4328
L227.0311 133.4328
" />
<path d="M227.5028 133.7594
L227.5028 132.9974
" />
<path d="M227.5028 132.9974
L227.9383 133.7594
" />
<path d="M227.9383 133.7594
L227.9383 132.9974
" />
<path d="M228.3011 133.7594
L228.3011 132.9974
" />
<path d="M228.3011 132.9974
L228.4825 132.9974
" />
<path d="M228.4825 132.9974
L228.5914 133.0336
" />
<path d="M228.5914 133.0336
L228.6640 133.1062
" />
<path d="M228.6640 133.1062
L228.7003 133.1788
" />
<path d="M228.7003 133.1788
L228.7365 133.3239
" />
<path d="M228.7365 133.3239
L228.7365 133.4328
" />
<path d="M228.7365 133.4328
L228.7003 133.5779
" />
<path d="M228.7003 133.5779
L228.6640 133.6505
" />
<path d="M228.6640 133.6505
L228.5914 133.7231
" />
<path d="M228.5914 133.7231
L228.4825 133.7594
" />
<path d="M228.4825 133.7594
L228.3011 133.7594
" />
</g><text x="224.7900" y="134.9578"
textLength="3.3528" font-size="1.0160" lengthAdjust="spacingAndGlyphs"
text-anchor="start" opacity="0" stroke-opacity="0">2-5V</text>
<g class="stroked-text"><desc>2-5V</desc>
<path d="M225.0354 134.2967
L225.0717 134.2604
" />
<path d="M225.0717 134.2604
L225.1443 134.2241
" />
<path d="M225.1443 134.2241
L225.3257 134.2241
" />
<path d="M225.3257 134.2241
L225.3983 134.2604
" />
<path d="M225.3983 134.2604
L225.4345 134.2967
" />
<path d="M225.4345 134.2967
L225.4708 134.3693
" />
<path d="M225.4708 134.3693
L225.4708 134.4419
" />
<path d="M225.4708 134.4419
L225.4345 134.5507
" />
<path d="M225.4345 134.5507
L224.9991 134.9861
" />
<path d="M224.9991 134.9861
L225.4708 134.9861
" />
<path d="M225.7974 134.6959
L226.3780 134.6959
" />
<path d="M227.1037 134.2241
L226.7408 134.2241
" />
<path d="M226.7408 134.2241
L226.7045 134.5870
" />
<path d="M226.7045 134.5870
L226.7408 134.5507
" />
<path d="M226.7408 134.5507
L226.8134 134.5144
" />
<path d="M226.8134 134.5144
L226.9948 134.5144
" />
<path d="M226.9948 134.5144
L227.0674 134.5507
" />
<path d="M227.0674 134.5507
L227.1037 134.5870
" />
<path d="M227.1037 134.5870
L227.1400 134.6596
" />
<path d="M227.1400 134.6596
L227.1400 134.8410
" />
<path d="M227.1400 134.8410
L227.1037 134.9136
" />
<path d="M227.1037 134.9136
L227.0674 134.9499
" />
<path d="M227.0674 134.9499
L226.9948 134.9861
" />
<path d="M226.9948 134.9861
L226.8134 134.9861
" />
<path d="M226.8134 134.9861
L226.7408 134.9499
" />
<path d="M226.7408 134.9499
L226.7045 134.9136
" />
<path d="M227.3577 134.2241
L227.6117 134.9861
" />
<path d="M227.6117 134.9861
L227.8657 134.2241
" />
</g><text x="224.7900" y="136.1846"
textLength="2.6271" font-size="1.0160" lengthAdjust="spacingAndGlyphs"
text-anchor="start" opacity="0" stroke-opacity="0">3-A</text>
<g class="stroked-text"><desc>3-A</desc>
<path d="M224.9991 135.4509
L225.4708 135.4509
" />
<path d="M225.4708 135.4509
L225.2168 135.7412
" />
<path d="M225.2168 135.7412
L225.3257 135.7412
" />
<path d="M225.3257 135.7412
L225.3983 135.7775
" />
<path d="M225.3983 135.7775
L225.4345 135.8138
" />
<path d="M225.4345 135.8138
L225.4708 135.8863
" />
<path d="M225.4708 135.8863
L225.4708 136.0678
" />
<path d="M225.4708 136.0678
L225.4345 136.1403
" />
<path d="M225.4345 136.1403
L225.3983 136.1766
" />
<path d="M225.3983 136.1766
L225.3257 136.2129
" />
<path d="M225.3257 136.2129
L225.1080 136.2129
" />
<path d="M225.1080 136.2129
L225.0354 136.1766
" />
<path d="M225.0354 136.1766
L224.9991 136.1403
" />
<path d="M225.7974 135.9226
L226.3780 135.9226
" />
<path d="M226.7045 135.9952
L227.0674 135.9952
" />
<path d="M226.6320 136.2129
L226.8860 135.4509
" />
<path d="M226.8860 135.4509
L227.1400 136.2129
" />
</g><text x="224.7900" y="137.4113"
textLength="2.7359" font-size="1.0160" lengthAdjust="spacingAndGlyphs"
text-anchor="start" opacity="0" stroke-opacity="0">4-B</text>
<g class="stroked-text"><desc>4-B</desc>
<path d="M225.3983 136.9317
L225.3983 137.4397
" />
<path d="M225.2168 136.6414
L225.0354 137.1857
" />
<path d="M225.0354 137.1857
L225.5071 137.1857
" />
<path d="M225.7974 137.1494
L226.3780 137.1494
" />
<path d="M226.9948 137.0405
L227.1037 137.0768
" />
<path d="M227.1037 137.0768
L227.1400 137.1131
" />
<path d="M227.1400 137.1131
L227.1763 137.1857
" />
<path d="M227.1763 137.1857
L227.1763 137.2945
" />
<path d="M227.1763 137.2945
L227.1400 137.3671
" />
<path d="M227.1400 137.3671
L227.1037 137.4034
" />
<path d="M227.1037 137.4034
L227.0311 137.4397
" />
<path d="M227.0311 137.4397
L226.7408 137.4397
" />
<path d="M226.7408 137.4397
L226.7408 136.6777
" />
<path d="M226.7408 136.6777
L226.9948 136.6777
" />
<path d="M226.9948 136.6777
L227.0674 136.7140
" />
<path d="M227.0674 136.7140
L227.1037 136.7503
" />
<path d="M227.1037 136.7503
L227.1400 136.8228
" />
<path d="M227.1400 136.8228
L227.1400 136.8954
" />
<path d="M227.1400 136.8954
L227.1037 136.9680
" />
<path d="M227.1037 136.9680
L227.0674 137.0043
" />
<path d="M227.0674 137.0043
L226.9948 137.0405
" />
<path d="M226.9948 137.0405
L226.7408 137.0405
" />
</g><text x="224.7900" y="138.6381"
textLength="4.4777" font-size="1.0160" lengthAdjust="spacingAndGlyphs"
text-anchor="start" opacity="0" stroke-opacity="0">5-PWM</text>
<g class="stroked-text"><desc>5-PWM</desc>
<path d="M225.4345 137.9045
L225.0717 137.9045
" />
<path d="M225.0717 137.9045
L225.0354 138.2673
" />
<path d="M225.0354 138.2673
L225.0717 138.2310
" />
<path d="M225.0717 138.2310
L225.1443 138.1948
" />
<path d="M225.1443 138.1948
L225.3257 138.1948
" />
<path d="M225.3257 138.1948
L225.3983 138.2310
" />
<path d="M225.3983 138.2310
L225.4345 138.2673
" />
<path d="M225.4345 138.2673
L225.4708 138.3399
" />
<path d="M225.4708 138.3399
L225.4708 138.5213
" />
<path d="M225.4708 138.5213
L225.4345 138.5939
" />
<path d="M225.4345 138.5939
L225.3983 138.6302
" />
<path d="M225.3983 138.6302
L225.3257 138.6665
" />
<path d="M225.3257 138.6665
L225.1443 138.6665
" />
<path d="M225.1443 138.6665
L225.0717 138.6302
" />
<path d="M225.0717 138.6302
L225.0354 138.5939
" />
<path d="M225.7974 138.3762
L226.3780 138.3762
" />
<path d="M226.7408 138.6665
L226.7408 137.9045
" />
<path d="M226.7408 137.9045
L227.0311 137.9045
" />
<path d="M227.0311 137.9045
L227.1037 137.9408
" />
<path d="M227.1037 137.9408
L227.1400 137.9770
" />
<path d="M227.1400 137.9770
L227.1763 138.0496
" />
<path d="M227.1763 138.0496
L227.1763 138.1585
" />
<path d="M227.1763 138.1585
L227.1400 138.2310
" />
<path d="M227.1400 138.2310
L227.1037 138.2673
" />
<path d="M227.1037 138.2673
L227.0311 138.3036
" />
<path d="M227.0311 138.3036
L226.7408 138.3036
" />
<path d="M227.4303 137.9045
L227.6117 138.6665
" />
<path d="M227.6117 138.6665
L227.7568 138.1222
" />
<path d="M227.7568 138.1222
L227.9020 138.6665
" />
<path d="M227.9020 138.6665
L228.0834 137.9045
" />
<path d="M228.3737 138.6665
L228.3737 137.9045
" />
<path d="M228.3737 137.9045
L228.6277 138.4488
" />
<path d="M228.6277 138.4488
L228.8817 137.9045
" />
<path d="M228.8817 137.9045
L228.8817 138.6665
" />
</g></g>
<g style="fill:none; 
stroke:#000000; stroke-width:0.1270; stroke-opacity:1; 
stroke-linecap:round; stroke-linejoin:round;">
<g transform="rotate(-90.000000 221.8897 108.6979)">
<text x="221.8897" y="109.0154"
textLength="1.5240" font-size="0.8467" lengthAdjust="spacingAndGlyphs"
text-anchor="middle" opacity="0" stroke-opacity="0">U1</text>
</g>
<g class="stroked-text"><desc>U1</desc>
<path d="M221.5419 109.1817
L222.0559 109.1817
" />
<path d="M222.0559 109.1817
L222.1164 109.1515
" />
<path d="M222.1164 109.1515
L222.1466 109.1213
" />
<path d="M222.1466 109.1213
L222.1769 109.0608
" />
<path d="M222.1769 109.0608
L222.1769 108.9398
" />
<path d="M222.1769 108.9398
L222.1466 108.8794
" />
<path d="M222.1466 108.8794
L222.1164 108.8491
" />
<path d="M222.1164 108.8491
L222.0559 108.8189
" />
<path d="M222.0559 108.8189
L221.5419 108.8189
" />
<path d="M222.1769 108.1839
L222.1769 108.5467
" />
<path d="M222.1769 108.3653
L221.5419 108.3653
" />
<path d="M221.5419 108.3653
L221.6326 108.4258
" />
<path d="M221.6326 108.4258
L221.6931 108.4863
" />
<path d="M221.6931 108.4863
L221.7233 108.5467
" />
</g><g transform="rotate(-90.000000 239.6490 133.1468)">
<text x="239.6490" y="133.4643"
textLength="1.4938" font-size="0.8467" lengthAdjust="spacingAndGlyphs"
text-anchor="middle" opacity="0" stroke-opacity="0">D5</text>
</g>
<g class="stroked-text"><desc>D5</desc>
<path d="M239.9362 133.6155
L239.3012 133.6155
" />
<path d="M239.3012 133.6155
L239.3012 133.4643
" />
<path d="M239.3012 133.4643
L239.3314 133.3736
" />
<path d="M239.3314 133.3736
L239.3919 133.3131
" />
<path d="M239.3919 133.3131
L239.4523 133.2829
" />
<path d="M239.4523 133.2829
L239.5733 133.2526
" />
<path d="M239.5733 133.2526
L239.6640 133.2526
" />
<path d="M239.6640 133.2526
L239.7850 133.2829
" />
<path d="M239.7850 133.2829
L239.8454 133.3131
" />
<path d="M239.8454 133.3131
L239.9059 133.3736
" />
<path d="M239.9059 133.3736
L239.9362 133.4643
" />
<path d="M239.9362 133.4643
L239.9362 133.6155
" />
<path d="M239.3012 132.6781
L239.3012 132.9805
" />
<path d="M239.3012 132.9805
L239.6035 133.0107
" />
<path d="M239.6035 133.0107
L239.5733 132.9805
" />
<path d="M239.5733 132.9805
L239.5431 132.9200
" />
<path d="M239.5431 132.9200
L239.5431 132.7688
" />
<path d="M239.5431 132.7688
L239.5733 132.7083
" />
<path d="M239.5733 132.7083
L239.6035 132.6781
" />
<path d="M239.6035 132.6781
L239.6640 132.6479
" />
<path d="M239.6640 132.6479
L239.8152 132.6479
" />
<path d="M239.8152 132.6479
L239.8757 132.6781
" />
<path d="M239.8757 132.6781
L239.9059 132.7083
" />
<path d="M239.9059 132.7083
L239.9362 132.7688
" />
<path d="M239.9362 132.7688
L239.9362 132.9200
" />
<path d="M239.9362 132.9200
L239.9059 132.9805
" />
<path d="M239.9059 132.9805
L239.8757 133.0107
" />
</g><g transform="rotate(-90.000000 239.6490 137.6178)">
<text x="239.6490" y="137.9353"
textLength="1.5845" font-size="0.8467" lengthAdjust="spacingAndGlyphs"
text-anchor="middle" opacity="0" stroke-opacity="0">ON</text>
</g>
<g class="stroked-text"><desc>ON</desc>
<path d="M239.3012 138.0109
L239.3012 137.8899
" />
<path d="M239.3012 137.8899
L239.3314 137.8295
" />
<path d="M239.3314 137.8295
L239.3919 137.7690
" />
<path d="M239.3919 137.7690
L239.5128 137.7388
" />
<path d="M239.5128 137.7388
L239.7245 137.7388
" />
<path d="M239.7245 137.7388
L239.8454 137.7690
" />
<path d="M239.8454 137.7690
L239.9059 137.8295
" />
<path d="M239.9059 137.8295
L239.9362 137.8899
" />
<path d="M239.9362 137.8899
L239.9362 138.0109
" />
<path d="M239.9362 138.0109
L239.9059 138.0714
" />
<path d="M239.9059 138.0714
L239.8454 138.1319
" />
<path d="M239.8454 138.1319
L239.7245 138.1621
" />
<path d="M239.7245 138.1621
L239.5128 138.1621
" />
<path d="M239.5128 138.1621
L239.3919 138.1319
" />
<path d="M239.3919 138.1319
L239.3314 138.0714
" />
<path d="M239.3314 138.0714
L239.3012 138.0109
" />
<path d="M239.9362 137.4666
L239.3012 137.4666
" />
<path d="M239.3012 137.4666
L239.9362 137.1038
" />
<path d="M239.9362 137.1038
L239.3012 137.1038
" />
</g><g transform="rotate(-90.000000 236.4486 133.1468)">
<text x="236.4486" y="133.4643"
textLength="1.4938" font-size="0.8467" lengthAdjust="spacingAndGlyphs"
text-anchor="middle" opacity="0" stroke-opacity="0">D3</text>
</g>
<g class="stroked-text"><desc>D3</desc>
<path d="M236.7358 133.6155
L236.1008 133.6155
" />
<path d="M236.1008 133.6155
L236.1008 133.4643
" />
<path d="M236.1008 133.4643
L236.1310 133.3736
" />
<path d="M236.1310 133.3736
L236.1915 133.3131
" />
<path d="M236.1915 133.3131
L236.2519 133.2829
" />
<path d="M236.2519 133.2829
L236.3729 133.2526
" />
<path d="M236.3729 133.2526
L236.4636 133.2526
" />
<path d="M236.4636 133.2526
L236.5846 133.2829
" />
<path d="M236.5846 133.2829
L236.6450 133.3131
" />
<path d="M236.6450 133.3131
L236.7055 133.3736
" />
<path d="M236.7055 133.3736
L236.7358 133.4643
" />
<path d="M236.7358 133.4643
L236.7358 133.6155
" />
<path d="M236.1008 133.0410
L236.1008 132.6479
" />
<path d="M236.1008 132.6479
L236.3427 132.8595
" />
<path d="M236.3427 132.8595
L236.3427 132.7688
" />
<path d="M236.3427 132.7688
L236.3729 132.7083
" />
<path d="M236.3729 132.7083
L236.4031 132.6781
" />
<path d="M236.4031 132.6781
L236.4636 132.6479
" />
<path d="M236.4636 132.6479
L236.6148 132.6479
" />
<path d="M236.6148 132.6479
L236.6753 132.6781
" />
<path d="M236.6753 132.6781
L236.7055 132.7083
" />
<path d="M236.7055 132.7083
L236.7358 132.7688
" />
<path d="M236.7358 132.7688
L236.7358 132.9503
" />
<path d="M236.7358 132.9503
L236.7055 133.0107
" />
<path d="M236.7055 133.0107
L236.6753 133.0410
" />
</g><g transform="rotate(-90.000000 236.4147 137.6934)">
<text x="236.4147" y="138.0109"
textLength="1.4333" font-size="0.8467" lengthAdjust="spacingAndGlyphs"
text-anchor="middle" opacity="0" stroke-opacity="0">LO</text>
</g>
<g class="stroked-text"><desc>LO</desc>
<path d="M236.7019 137.8295
L236.7019 138.1319
" />
<path d="M236.7019 138.1319
L236.0669 138.1319
" />
<path d="M236.0669 137.4969
L236.0669 137.3759
" />
<path d="M236.0669 137.3759
L236.0971 137.3154
" />
<path d="M236.0971 137.3154
L236.1576 137.2549
" />
<path d="M236.1576 137.2549
L236.2786 137.2247
" />
<path d="M236.2786 137.2247
L236.4902 137.2247
" />
<path d="M236.4902 137.2247
L236.6112 137.2549
" />
<path d="M236.6112 137.2549
L236.6717 137.3154
" />
<path d="M236.6717 137.3154
L236.7019 137.3759
" />
<path d="M236.7019 137.3759
L236.7019 137.4969
" />
<path d="M236.7019 137.4969
L236.6717 137.5573
" />
<path d="M236.6717 137.5573
L236.6112 137.6178
" />
<path d="M236.6112 137.6178
L236.4902 137.6480
" />
<path d="M236.4902 137.6480
L236.2786 137.6480
" />
<path d="M236.2786 137.6480
L236.1576 137.6178
" />
<path d="M236.1576 137.6178
L236.0971 137.5573
" />
<path d="M236.0971 137.5573
L236.0669 137.4969
" />
</g><g transform="rotate(-90.000000 225.2980 112.1410)">
<text x="225.2980" y="112.4585"
textLength="1.5240" font-size="0.8467" lengthAdjust="spacingAndGlyphs"
text-anchor="middle" opacity="0" stroke-opacity="0">U2</text>
</g>
<g class="stroked-text"><desc>U2</desc>
<path d="M224.9502 112.6248
L225.4642 112.6248
" />
<path d="M225.4642 112.6248
L225.5247 112.5946
" />
<path d="M225.5247 112.5946
L225.5549 112.5643
" />
<path d="M225.5549 112.5643
L225.5852 112.5039
" />
<path d="M225.5852 112.5039
L225.5852 112.3829
" />
<path d="M225.5852 112.3829
L225.5549 112.3224
" />
<path d="M225.5549 112.3224
L225.5247 112.2922
" />
<path d="M225.5247 112.2922
L225.4642 112.2620
" />
<path d="M225.4642 112.2620
L224.9502 112.2620
" />
<path d="M225.0106 111.9898
L224.9804 111.9596
" />
<path d="M224.9804 111.9596
L224.9502 111.8991
" />
<path d="M224.9502 111.8991
L224.9502 111.7479
" />
<path d="M224.9502 111.7479
L224.9804 111.6874
" />
<path d="M224.9804 111.6874
L225.0106 111.6572
" />
<path d="M225.0106 111.6572
L225.0711 111.6270
" />
<path d="M225.0711 111.6270
L225.1316 111.6270
" />
<path d="M225.1316 111.6270
L225.2223 111.6572
" />
<path d="M225.2223 111.6572
L225.5852 112.0200
" />
<path d="M225.5852 112.0200
L225.5852 111.6270
" />
</g><text x="235.6358" y="114.8715"
textLength="1.3426" font-size="0.8467" lengthAdjust="spacingAndGlyphs"
text-anchor="middle" opacity="0" stroke-opacity="0">J2</text>
<g class="stroked-text"><desc>J2</desc>
<path d="M235.4241 114.2062
L235.4241 114.6597
" />
<path d="M235.4241 114.6597
L235.3939 114.7504
" />
<path d="M235.3939 114.7504
L235.3334 114.8109
" />
<path d="M235.3334 114.8109
L235.2427 114.8412
" />
<path d="M235.2427 114.8412
L235.1822 114.8412
" />
<path d="M235.6963 114.2666
L235.7265 114.2364
" />
<path d="M235.7265 114.2364
L235.7870 114.2062
" />
<path d="M235.7870 114.2062
L235.9382 114.2062
" />
<path d="M235.9382 114.2062
L235.9987 114.2364
" />
<path d="M235.9987 114.2364
L236.0289 114.2666
" />
<path d="M236.0289 114.2666
L236.0591 114.3271
" />
<path d="M236.0591 114.3271
L236.0591 114.3876
" />
<path d="M236.0591 114.3876
L236.0289 114.4783
" />
<path d="M236.0289 114.4783
L235.6660 114.8412
" />
<path d="M235.6660 114.8412
L236.0591 114.8412
" />
</g><g transform="rotate(-90.000000 238.0488 133.1468)">
<text x="238.0488" y="133.4643"
textLength="1.4938" font-size="0.8467" lengthAdjust="spacingAndGlyphs"
text-anchor="middle" opacity="0" stroke-opacity="0">D4</text>
</g>
<g class="stroked-text"><desc>D4</desc>
<path d="M238.3360 133.6155
L237.7010 133.6155
" />
<path d="M237.7010 133.6155
L237.7010 133.4643
" />
<path d="M237.7010 133.4643
L237.7312 133.3736
" />
<path d="M237.7312 133.3736
L237.7917 133.3131
" />
<path d="M237.7917 133.3131
L237.8521 133.2829
" />
<path d="M237.8521 133.2829
L237.9731 133.2526
" />
<path d="M237.9731 133.2526
L238.0638 133.2526
" />
<path d="M238.0638 133.2526
L238.1848 133.2829
" />
<path d="M238.1848 133.2829
L238.2452 133.3131
" />
<path d="M238.2452 133.3131
L238.3057 133.3736
" />
<path d="M238.3057 133.3736
L238.3360 133.4643
" />
<path d="M238.3360 133.4643
L238.3360 133.6155
" />
<path d="M237.9126 132.7083
L238.3360 132.7083
" />
<path d="M237.6707 132.8595
L238.1243 133.0107
" />
<path d="M238.1243 133.0107
L238.1243 132.6176
" />
</g><g transform="rotate(-90.000000 238.0319 137.6329)">
<text x="238.0319" y="137.9504"
textLength="1.5542" font-size="0.8467" lengthAdjust="spacingAndGlyphs"
text-anchor="middle" opacity="0" stroke-opacity="0">OK</text>
</g>
<g class="stroked-text"><desc>OK</desc>
<path d="M237.6840 138.0109
L237.6840 137.8899
" />
<path d="M237.6840 137.8899
L237.7143 137.8295
" />
<path d="M237.7143 137.8295
L237.7747 137.7690
" />
<path d="M237.7747 137.7690
L237.8957 137.7388
" />
<path d="M237.8957 137.7388
L238.1074 137.7388
" />
<path d="M238.1074 137.7388
L238.2283 137.7690
" />
<path d="M238.2283 137.7690
L238.2888 137.8295
" />
<path d="M238.2888 137.8295
L238.3190 137.8899
" />
<path d="M238.3190 137.8899
L238.3190 138.0109
" />
<path d="M238.3190 138.0109
L238.2888 138.0714
" />
<path d="M238.2888 138.0714
L238.2283 138.1319
" />
<path d="M238.2283 138.1319
L238.1074 138.1621
" />
<path d="M238.1074 138.1621
L237.8957 138.1621
" />
<path d="M237.8957 138.1621
L237.7747 138.1319
" />
<path d="M237.7747 138.1319
L237.7143 138.0714
" />
<path d="M237.7143 138.0714
L237.6840 138.0109
" />
<path d="M238.3190 137.4666
L237.6840 137.4666
" />
<path d="M238.3190 137.1038
L237.9562 137.3759
" />
<path d="M237.6840 137.1038
L238.0469 137.4666
" />
</g><text x="221.4626" y="132.2451"
textLength="1.3426" font-size="0.8467" lengthAdjust="spacingAndGlyphs"
text-anchor="middle" opacity="0" stroke-opacity="0">J1</text>
<g class="stroked-text"><desc>J1</desc>
<path d="M221.2509 131.5798
L221.2509 132.0333
" />
<path d="M221.2509 132.0333
L221.2207 132.1240
" />
<path d="M221.2207 132.1240
L221.1602 132.1845
" />
<path d="M221.1602 132.1845
L221.0695 132.2148
" />
<path d="M221.0695 132.2148
L221.0090 132.2148
" />
<path d="M221.8859 132.2148
L221.5231 132.2148
" />
<path d="M221.7045 132.2148
L221.7045 131.5798
" />
<path d="M221.7045 131.5798
L221.6440 131.6705
" />
<path d="M221.6440 131.6705
L221.5836 131.7309
" />
<path d="M221.5836 131.7309
L221.5231 131.7612
" />
</g><g transform="rotate(-90.000000 221.8690 114.3508)">
<text x="221.8690" y="114.6683"
textLength="1.4938" font-size="0.8467" lengthAdjust="spacingAndGlyphs"
text-anchor="middle" opacity="0" stroke-opacity="0">D1</text>
</g>
<g class="stroked-text"><desc>D1</desc>
<path d="M222.1562 114.8195
L221.5212 114.8195
" />
<path d="M221.5212 114.8195
L221.5212 114.6683
" />
<path d="M221.5212 114.6683
L221.5514 114.5776
" />
<path d="M221.5514 114.5776
L221.6119 114.5171
" />
<path d="M221.6119 114.5171
L221.6723 114.4869
" />
<path d="M221.6723 114.4869
L221.7933 114.4566
" />
<path d="M221.7933 114.4566
L221.8840 114.4566
" />
<path d="M221.8840 114.4566
L222.0050 114.4869
" />
<path d="M222.0050 114.4869
L222.0654 114.5171
" />
<path d="M222.0654 114.5171
L222.1259 114.5776
" />
<path d="M222.1259 114.5776
L222.1562 114.6683
" />
<path d="M222.1562 114.6683
L222.1562 114.8195
" />
<path d="M222.1562 113.8519
L222.1562 114.2147
" />
<path d="M222.1562 114.0333
L221.5212 114.0333
" />
<path d="M221.5212 114.0333
L221.6119 114.0938
" />
<path d="M221.6119 114.0938
L221.6723 114.1543
" />
<path d="M221.6723 114.1543
L221.7026 114.2147
" />
</g><g transform="rotate(-90.000000 234.8484 133.1468)">
<text x="234.8484" y="133.4643"
textLength="1.4938" font-size="0.8467" lengthAdjust="spacingAndGlyphs"
text-anchor="middle" opacity="0" stroke-opacity="0">D2</text>
</g>
<g class="stroked-text"><desc>D2</desc>
<path d="M235.1356 133.6155
L234.5006 133.6155
" />
<path d="M234.5006 133.6155
L234.5006 133.4643
" />
<path d="M234.5006 133.4643
L234.5308 133.3736
" />
<path d="M234.5308 133.3736
L234.5913 133.3131
" />
<path d="M234.5913 133.3131
L234.6517 133.2829
" />
<path d="M234.6517 133.2829
L234.7727 133.2526
" />
<path d="M234.7727 133.2526
L234.8634 133.2526
" />
<path d="M234.8634 133.2526
L234.9844 133.2829
" />
<path d="M234.9844 133.2829
L235.0448 133.3131
" />
<path d="M235.0448 133.3131
L235.1053 133.3736
" />
<path d="M235.1053 133.3736
L235.1356 133.4643
" />
<path d="M235.1356 133.4643
L235.1356 133.6155
" />
<path d="M234.5610 133.0107
L234.5308 132.9805
" />
<path d="M234.5308 132.9805
L234.5006 132.9200
" />
<path d="M234.5006 132.9200
L234.5006 132.7688
" />
<path d="M234.5006 132.7688
L234.5308 132.7083
" />
<path d="M234.5308 132.7083
L234.5610 132.6781
" />
<path d="M234.5610 132.6781
L234.6215 132.6479
" />
<path d="M234.6215 132.6479
L234.6820 132.6479
" />
<path d="M234.6820 132.6479
L234.7727 132.6781
" />
<path d="M234.7727 132.6781
L235.1356 133.0410
" />
<path d="M235.1356 133.0410
L235.1356 132.6479
" />
</g><g transform="rotate(-90.000000 234.7976 137.7992)">
<text x="234.7976" y="138.1167"
textLength="1.2216" font-size="0.8467" lengthAdjust="spacingAndGlyphs"
text-anchor="middle" opacity="0" stroke-opacity="0">HI</text>
</g>
<g class="stroked-text"><desc>HI</desc>
<path d="M235.0848 138.1319
L234.4498 138.1319
" />
<path d="M234.7521 138.1319
L234.7521 137.7690
" />
<path d="M235.0848 137.7690
L234.4498 137.7690
" />
<path d="M235.0848 137.4666
L234.4498 137.4666
" />
</g></g>
<g style="fill:none; 
stroke:#000000; stroke-width:0.1200; stroke-opacity:1; 
stroke-linecap:round; stroke-linejoin:round;">
<path d="M220.3090 110.6170
L220.3090 109.8170
" />
<path d="M220.3090 110.6170
L220.3090 111.4170
" />
<path d="M223.4290 110.6170
L223.4290 109.8170
" />
<path d="M223.4290 110.6170
L223.4290 111.4170
" />
<path style="fill:#000000; fill-opacity:1.0000; 
stroke:#000000; stroke-width:0.1200; stroke-opacity:1; 
stroke-linecap:round; stroke-linejoin:round;fill-rule:evenodd;"
d="M 220.3590,111.9170
220.0290,112.1570
220.0290,111.6770
Z" /> 
</g>
<g style="fill:none; 
stroke:#000000; stroke-width:0.1200; stroke-opacity:1; 
stroke-linecap:round; stroke-linejoin:round;">
<path d="M240.3586 136.6130
L240.3586 134.3280
" />
<path d="M238.8886 136.6130
L240.3586 136.6130
" />
<path d="M238.8886 134.3280
L238.8886 136.6130
" />
<path d="M237.1582 136.6130
L237.1582 134.3280
" />
<path d="M235.6882 136.6130
L237.1582 136.6130
" />
<path d="M235.6882 134.3280
L235.6882 136.6130
" />
<path style="fill:#000000; fill-opacity:1.0000; 
stroke:#000000; stroke-width:0.1200; stroke-opacity:1; 
stroke-linecap:round; stroke-linejoin:round;fill-rule:evenodd;"
d="M 223.7880,111.7795
223.4580,112.0195
223.4580,111.5395
Z" /> 
</g>
<g style="fill:none; 
stroke:#000000; stroke-width:0.1200; stroke-opacity:1; 
stroke-linecap:round; stroke-linejoin:round;">
<path d="M226.8580 110.6170
L226.8580 111.2670
" />
<path d="M226.8580 110.6170
L226.8580 109.9670
" />
<path d="M223.7380 110.6170
L223.7380 111.2670
" />
<path d="M223.7380 110.6170
L223.7380 109.9670
" />
</g>
<g style="fill:none; 
stroke:#000000; stroke-width:0.1000; stroke-opacity:1; 
stroke-linecap:round; stroke-linejoin:round;">
<path d="M222.9778 131.9460
L222.9778 115.1960
" />
<path d="M240.7778 115.1960
L222.9778 115.1960
" />
<path d="M240.7778 131.9460
L222.9778 131.9460
" />
</g>
<g style="fill:none; 
stroke:#000000; stroke-width:0.1200; stroke-opacity:1; 
stroke-linecap:round; stroke-linejoin:round;">
<path d="M237.2884 134.3280
L237.2884 136.6130
" />
<path d="M237.2884 136.6130
L238.7584 136.6130
" />
<path d="M238.7584 136.6130
L238.7584 134.3280
" />
<path d="M220.0818 115.8910
L221.4118 115.8910
" />
<path d="M220.0818 117.2210
L220.0818 115.8910
" />
<path d="M220.0818 118.4910
L220.0818 131.2510
" />
<path d="M220.0818 118.4910
L222.7418 118.4910
" />
<path d="M220.0818 131.2510
L222.7418 131.2510
" />
<path d="M222.7418 118.4910
L222.7418 131.2510
" />
<path d="M222.5800 112.9190
L222.5800 114.9190
" />
<path d="M222.5800 112.9190
L226.4400 112.9190
" />
<path d="M222.5800 114.9190
L226.4400 114.9190
" />
<path d="M234.0880 134.3280
L234.0880 136.6130
" />
<path d="M234.0880 136.6130
L235.5580 136.6130
" />
<path d="M235.5580 136.6130
L235.5580 134.3280
" />
</g>
<g style="fill:none; 
stroke:#000000; stroke-width:2.5400; stroke-opacity:1; 
stroke-linecap:round; stroke-linejoin:round;">
<path d="M238.0450 111.0887
L238.3066 110.6533
" />
</g>
<g style="fill:#000000; fill-opacity:1.0000; stroke:none;">
<circle cx="222.9358" cy="136.2710" r="1.2700" /> 
</g>
<g style="fill:#000000; fill-opacity:1.0000; stroke:none;">
<circle cx="230.5558" cy="110.8710" r="1.6000" /> 
</g>
<g style="fill:#000000; fill-opacity:1.0000; stroke:none;">
<circle cx="237.1778" cy="130.0510" r="1.7000" /> 
</g>
<g style="fill:#000000; fill-opacity:1.0000; stroke:none;">
<circle cx="237.1778" cy="117.0910" r="1.7000" /> 
</g>
<g style="fill:#000000; fill-opacity:1.0000; stroke:none;">
<circle cx="221.4118" cy="117.2210" r="0.5000" /> 
</g>
<g style="fill:#000000; fill-opacity:1.0000; stroke:none;">
<circle cx="221.4118" cy="119.7610" r="0.5000" /> 
</g>
<g style="fill:#000000; fill-opacity:1.0000; stroke:none;">
<circle cx="221.4118" cy="122.3010" r="0.5000" /> 
</g>
<g style="fill:#000000; fill-opacity:1.0000; stroke:none;">
<circle cx="221.4118" cy="124.8410" r="0.5000" /> 
</g>
<g style="fill:#000000; fill-opacity:1.0000; stroke:none;">
<circle cx="221.4118" cy="127.3810" r="0.5000" /> 
</g>
<g style="fill:#000000; fill-opacity:1.0000; stroke:none;">
<circle cx="221.4118" cy="129.9210" r="0.5000" /> 
</g>
<g style="fill:#000000; fill-opacity:1.0000; stroke:none;">
<circle cx="230.5558" cy="136.2710" r="1.6000" /> 
</g>
<g style="fill:none; 
stroke:#000000; stroke-width:2.5400; stroke-opacity:1; 
stroke-linecap:round; stroke-linejoin:round;">
<path d="M238.0450 111.0887
L238.3066 110.6533
" />
</g>
<g style="fill:#000000; fill-opacity:1.0000; stroke:none;">
<circle cx="222.9358" cy="136.2710" r="1.2700" /> 
<path style="fill:#000000; fill-opacity:1.0000; stroke:none;fill-rule:evenodd;"
d="M 220.7690,112.4170
220.7116,112.4056
220.6629,112.3731
220.6304,112.3244
220.6190,112.2670
220.6190,111.2420
220.6304,111.1846
220.6629,111.1359
220.7116,111.1034
220.7690,111.0920
221.0690,111.0920
221.1264,111.1034
221.1751,111.1359
221.2076,111.1846
221.2190,111.2420
221.2190,112.2670
221.2076,112.3244
221.1751,112.3731
221.1264,112.4056
221.0690,112.4170
Z" /> 
<path style="fill:#000000; fill-opacity:1.0000; stroke:none;fill-rule:evenodd;"
d="M 221.7190,112.4170
221.6616,112.4056
221.6129,112.3731
221.5804,112.3244
221.5690,112.2670
221.5690,111.2420
221.5804,111.1846
221.6129,111.1359
221.6616,111.1034
221.7190,111.0920
222.0190,111.0920
222.0764,111.1034
222.1251,111.1359
222.1576,111.1846
222.1690,111.2420
222.1690,112.2670
222.1576,112.3244
222.1251,112.3731
222.0764,112.4056
222.0190,112.4170
Z" /> 
<path style="fill:#000000; fill-opacity:1.0000; stroke:none;fill-rule:evenodd;"
d="M 222.6690,112.4170
222.6116,112.4056
222.5629,112.3731
222.5304,112.3244
222.5190,112.2670
222.5190,111.2420
222.5304,111.1846
222.5629,111.1359
222.6116,111.1034
222.6690,111.0920
222.9690,111.0920
223.0264,111.1034
223.0751,111.1359
223.1076,111.1846
223.1190,111.2420
223.1190,112.2670
223.1076,112.3244
223.0751,112.3731
223.0264,112.4056
222.9690,112.4170
Z" /> 
<path style="fill:#000000; fill-opacity:1.0000; stroke:none;fill-rule:evenodd;"
d="M 222.6690,110.1420
222.6116,110.1306
222.5629,110.0981
222.5304,110.0494
222.5190,109.9920
222.5190,108.9670
222.5304,108.9096
222.5629,108.8609
222.6116,108.8284
222.6690,108.8170
222.9690,108.8170
223.0264,108.8284
223.0751,108.8609
223.1076,108.9096
223.1190,108.9670
223.1190,109.9920
223.1076,110.0494
223.0751,110.0981
223.0264,110.1306
222.9690,110.1420
Z" /> 
<path style="fill:#000000; fill-opacity:1.0000; stroke:none;fill-rule:evenodd;"
d="M 220.7690,110.1420
220.7116,110.1306
220.6629,110.0981
220.6304,110.0494
220.6190,109.9920
220.6190,108.9670
220.6304,108.9096
220.6629,108.8609
220.7116,108.8284
220.7690,108.8170
221.0690,108.8170
221.1264,108.8284
221.1751,108.8609
221.2076,108.9096
221.2190,108.9670
221.2190,109.9920
221.2076,110.0494
221.1751,110.0981
221.1264,110.1306
221.0690,110.1420
Z" /> 
</g>
<g style="fill:#000000; fill-opacity:1.0000; stroke:none;">
<circle cx="230.5558" cy="110.8710" r="1.6000" /> 
<path style="fill:#000000; fill-opacity:1.0000; stroke:none;fill-rule:evenodd;"
d="M 239.3673,134.7780
239.2836,134.7613
239.2127,134.7139
239.1653,134.6430
239.1486,134.5592
239.1486,134.1217
239.1653,134.0380
239.2127,133.9671
239.2836,133.9197
239.3673,133.9030
239.8798,133.9030
239.9636,133.9197
240.0345,133.9671
240.0819,134.0380
240.0986,134.1217
240.0986,134.5592
240.0819,134.6430
240.0345,134.7139
239.9636,134.7613
239.8798,134.7780
Z" /> 
<path style="fill:#000000; fill-opacity:1.0000; stroke:none;fill-rule:evenodd;"
d="M 239.3673,136.3530
239.2836,136.3363
239.2127,136.2889
239.1653,136.2180
239.1486,136.1342
239.1486,135.6967
239.1653,135.6130
239.2127,135.5421
239.2836,135.4947
239.3673,135.4780
239.8798,135.4780
239.9636,135.4947
240.0345,135.5421
240.0819,135.6130
240.0986,135.6967
240.0986,136.1342
240.0819,136.2180
240.0345,136.2889
239.9636,136.3363
239.8798,136.3530
Z" /> 
<path style="fill:#000000; fill-opacity:1.0000; stroke:none;fill-rule:evenodd;"
d="M 236.1669,134.7780
236.0832,134.7613
236.0123,134.7139
235.9649,134.6430
235.9482,134.5592
235.9482,134.1217
235.9649,134.0380
236.0123,133.9671
236.0832,133.9197
236.1669,133.9030
236.6795,133.9030
236.7632,133.9197
236.8341,133.9671
236.8815,134.0380
236.8982,134.1217
236.8982,134.5592
236.8815,134.6430
236.8341,134.7139
236.7632,134.7613
236.6795,134.7780
Z" /> 
<path style="fill:#000000; fill-opacity:1.0000; stroke:none;fill-rule:evenodd;"
d="M 236.1669,136.3530
236.0832,136.3363
236.0123,136.2889
235.9649,136.2180
235.9482,136.1342
235.9482,135.6967
235.9649,135.6130
236.0123,135.5421
236.0832,135.4947
236.1669,135.4780
236.6795,135.4780
236.7632,135.4947
236.8341,135.5421
236.8815,135.6130
236.8982,135.6967
236.8982,136.1342
236.8815,136.2180
236.8341,136.2889
236.7632,136.3363
236.6795,136.3530
Z" /> 
<path style="fill:#000000; fill-opacity:1.0000; stroke:none;fill-rule:evenodd;"
d="M 225.1480,110.4170
225.0906,110.4056
225.0419,110.3731
225.0094,110.3244
224.9980,110.2670
224.9980,109.0920
225.0094,109.0346
225.0419,108.9859
225.0906,108.9534
225.1480,108.9420
225.4480,108.9420
225.5054,108.9534
225.5541,108.9859
225.5866,109.0346
225.5980,109.0920
225.5980,110.2670
225.5866,110.3244
225.5541,110.3731
225.5054,110.4056
225.4480,110.4170
Z" /> 
<path style="fill:#000000; fill-opacity:1.0000; stroke:none;fill-rule:evenodd;"
d="M 226.0980,112.2920
226.0406,112.2806
225.9919,112.2481
225.9594,112.1994
225.9480,112.1420
225.9480,110.9670
225.9594,110.9096
225.9919,110.8609
226.0406,110.8284
226.0980,110.8170
226.3980,110.8170
226.4554,110.8284
226.5041,110.8609
226.5366,110.9096
226.5480,110.9670
226.5480,112.1420
226.5366,112.1994
226.5041,112.2481
226.4554,112.2806
226.3980,112.2920
Z" /> 
<path style="fill:#000000; fill-opacity:1.0000; stroke:none;fill-rule:evenodd;"
d="M 224.1980,112.2920
224.1406,112.2806
224.0919,112.2481
224.0594,112.1994
224.0480,112.1420
224.0480,110.9670
224.0594,110.9096
224.0919,110.8609
224.1406,110.8284
224.1980,110.8170
224.4980,110.8170
224.5554,110.8284
224.6041,110.8609
224.6366,110.9096
224.6480,110.9670
224.6480,112.1420
224.6366,112.1994
224.6041,112.2481
224.5554,112.2806
224.4980,112.2920
Z" /> 
</g>
<g style="fill:#000000; fill-opacity:1.0000; stroke:none;">
<circle cx="237.1778" cy="130.0510" r="1.7000" /> 
</g>
<g style="fill:#000000; fill-opacity:1.0000; stroke:none;">
<circle cx="237.1778" cy="117.0910" r="1.7000" /> 
<path style="fill:#000000; fill-opacity:1.0000; stroke:none;fill-rule:evenodd;"
d="M 223.9441,119.3160
223.8977,119.3068
223.8583,119.2805
223.8320,119.2411
223.8228,119.1947
223.8228,117.7873
223.8320,117.7409
223.8583,117.7015
223.8977,117.6752
223.9441,117.6660
229.0315,117.6660
229.0779,117.6752
229.1173,117.7015
229.1436,117.7409
229.1528,117.7873
229.1528,119.1947
229.1436,119.2411
229.1173,119.2805
229.0779,119.3068
229.0315,119.3160
Z" /> 
<path style="fill:#000000; fill-opacity:1.0000; stroke:none;fill-rule:evenodd;"
d="M 223.9441,121.8560
223.8977,121.8468
223.8583,121.8205
223.8320,121.7811
223.8228,121.7347
223.8228,120.3273
223.8320,120.2809
223.8583,120.2415
223.8977,120.2152
223.9441,120.2060
229.0315,120.2060
229.0779,120.2152
229.1173,120.2415
229.1436,120.2809
229.1528,120.3273
229.1528,121.7347
229.1436,121.7811
229.1173,121.8205
229.0779,121.8468
229.0315,121.8560
Z" /> 
<path style="fill:#000000; fill-opacity:1.0000; stroke:none;fill-rule:evenodd;"
d="M 223.9441,124.3960
223.8977,124.3868
223.8583,124.3605
223.8320,124.3211
223.8228,124.2747
223.8228,122.8673
223.8320,122.8209
223.8583,122.7815
223.8977,122.7552
223.9441,122.7460
229.0315,122.7460
229.0779,122.7552
229.1173,122.7815
229.1436,122.8209
229.1528,122.8673
229.1528,124.2747
229.1436,124.3211
229.1173,124.3605
229.0779,124.3868
229.0315,124.3960
Z" /> 
<path style="fill:#000000; fill-opacity:1.0000; stroke:none;fill-rule:evenodd;"
d="M 223.9441,126.9360
223.8977,126.9268
223.8583,126.9005
223.8320,126.8611
223.8228,126.8147
223.8228,125.4073
223.8320,125.3609
223.8583,125.3215
223.8977,125.2952
223.9441,125.2860
229.0315,125.2860
229.0779,125.2952
229.1173,125.3215
229.1436,125.3609
229.1528,125.4073
229.1528,126.8147
229.1436,126.8611
229.1173,126.9005
229.0779,126.9268
229.0315,126.9360
Z" /> 
<path style="fill:#000000; fill-opacity:1.0000; stroke:none;fill-rule:evenodd;"
d="M 223.9441,129.4760
223.8977,129.4668
223.8583,129.4405
223.8320,129.4011
223.8228,129.3547
223.8228,127.9473
223.8320,127.9009
223.8583,127.8615
223.8977,127.8352
223.9441,127.8260
229.0315,127.8260
229.0779,127.8352
229.1173,127.8615
229.1436,127.9009
229.1528,127.9473
229.1528,129.3547
229.1436,129.4011
229.1173,129.4405
229.0779,129.4668
229.0315,129.4760
Z" /> 
<path style="fill:#000000; fill-opacity:1.0000; stroke:none;fill-rule:evenodd;"
d="M 237.7671,136.3530
237.6834,136.3363
237.6125,136.2889
237.5651,136.2180
237.5484,136.1342
237.5484,135.6967
237.5651,135.6130
237.6125,135.5421
237.6834,135.4947
237.7671,135.4780
238.2796,135.4780
238.3634,135.4947
238.4343,135.5421
238.4817,135.6130
238.4984,135.6967
238.4984,136.1342
238.4817,136.2180
238.4343,136.2889
238.3634,136.3363
238.2796,136.3530
Z" /> 
<path style="fill:#000000; fill-opacity:1.0000; stroke:none;fill-rule:evenodd;"
d="M 237.7671,134.7780
237.6834,134.7613
237.6125,134.7139
237.5651,134.6430
237.5484,134.5592
237.5484,134.1217
237.5651,134.0380
237.6125,133.9671
237.6834,133.9197
237.7671,133.9030
238.2796,133.9030
238.3634,133.9197
238.4343,133.9671
238.4817,134.0380
238.4984,134.1217
238.4984,134.5592
238.4817,134.6430
238.4343,134.7139
238.3634,134.7613
238.2796,134.7780
Z" /> 
<path style="fill:#000000; fill-opacity:1.0000; stroke:none;fill-rule:evenodd;"
d="M 220.5618,118.0710
220.5618,116.3710
222.2618,116.3710
222.2618,118.0710
Z" /> 
</g>
<g style="fill:#000000; fill-opacity:1.0000; stroke:none;">
<circle cx="221.4118" cy="119.7610" r="0.8500" /> 
<circle cx="221.4118" cy="122.3010" r="0.8500" /> 
<circle cx="221.4118" cy="124.8410" r="0.8500" /> 
<circle cx="221.4118" cy="127.3810" r="0.8500" /> 
<circle cx="221.4118" cy="129.9210" r="0.8500" /> 
<path style="fill:#000000; fill-opacity:1.0000; stroke:none;fill-rule:evenodd;"
d="M 222.8400,113.6190
222.8590,113.5233
222.9132,113.4422
222.9943,113.3880
223.0900,113.3690
223.6900,113.3690
223.7857,113.3880
223.8668,113.4422
223.9210,113.5233
223.9400,113.6190
223.9400,114.2190
223.9210,114.3147
223.8668,114.3958
223.7857,114.4500
223.6900,114.4690
223.0900,114.4690
222.9943,114.4500
222.9132,114.3958
222.8590,114.3147
222.8400,114.2190
Z" /> 
<path style="fill:#000000; fill-opacity:1.0000; stroke:none;fill-rule:evenodd;"
d="M 225.6400,113.6190
225.6590,113.5233
225.7132,113.4422
225.7943,113.3880
225.8900,113.3690
226.4900,113.3690
226.5857,113.3880
226.6668,113.4422
226.7210,113.5233
226.7400,113.6190
226.7400,114.2190
226.7210,114.3147
226.6668,114.3958
226.5857,114.4500
226.4900,114.4690
225.8900,114.4690
225.7943,114.4500
225.7132,114.3958
225.6590,114.3147
225.6400,114.2190
Z" /> 
<path style="fill:#000000; fill-opacity:1.0000; stroke:none;fill-rule:evenodd;"
d="M 234.5667,136.3530
234.4830,136.3363
234.4121,136.2889
234.3647,136.2180
234.3480,136.1342
234.3480,135.6967
234.3647,135.6130
234.4121,135.5421
234.4830,135.4947
234.5667,135.4780
235.0793,135.4780
235.1630,135.4947
235.2339,135.5421
235.2813,135.6130
235.2980,135.6967
235.2980,136.1342
235.2813,136.2180
235.2339,136.2889
235.1630,136.3363
235.0793,136.3530
Z" /> 
<path style="fill:#000000; fill-opacity:1.0000; stroke:none;fill-rule:evenodd;"
d="M 234.5667,134.7780
234.4830,134.7613
234.4121,134.7139
234.3647,134.6430
234.3480,134.5592
234.3480,134.1217
234.3647,134.0380
234.4121,133.9671
234.4830,133.9197
234.5667,133.9030
235.0793,133.9030
235.1630,133.9197
235.2339,133.9671
235.2813,134.0380
235.2980,134.1217
235.2980,134.5592
235.2813,134.6430
235.2339,134.7139
235.1630,134.7613
235.0793,134.7780
Z" /> 
<circle cx="230.5558" cy="136.2710" r="1.6000" /> 
</g>
<g style="fill:none; 
stroke:#000000; stroke-width:0.0500; stroke-opacity:1; 
stroke-linecap:round; stroke-linejoin:round;">
<path d="M220.9038 107.6960 A1.2700 1.2700 0.0 0 0 219.6338 108.9660" />
<path d="M240.2078 139.4460 A1.2700 1.2700 0.0 0 0 241.4778 138.1760" />
<path d="M219.6338 108.9660
L219.6338 138.1760
" />
<path d="M241.4778 138.1760
L241.4778 108.9660
" />
<path d="M240.2078 107.6960
L220.9038 107.6960
" />
<path d="M219.6338 138.1760 A1.2700 1.2700 0.0 0 0 220.9038 139.4460" />
<path d="M220.9038 139.4460
L240.2078 139.4460
" />
<path d="M241.4778 108.9660 A1.2700 1.2700 0.0 0 0 240.2078 107.6960" />
</g>
<g style="fill:none; 
stroke:#000000; stroke-width:2.5400; stroke-opacity:1; 
stroke-linecap:round; stroke-linejoin:round;">
<path d="M238.0450 111.0887
L238.3066 110.6533
" />
</g>
<g style="fill:#000000; fill-opacity:1.0000; stroke:none;">
<circle cx="222.9358" cy="136.2710" r="1.2700" /> 
</g>
<g style="fill:#000000; fill-opacity:1.0000; stroke:none;">
<circle cx="230.5558" cy="110.8710" r="1.6000" /> 
</g>
<g style="fill:#000000; fill-opacity:1.0000; stroke:none;">
<circle cx="237.1778" cy="130.0510" r="1.7000" /> 
</g>
<g style="fill:#000000; fill-opacity:1.0000; stroke:none;">
<circle cx="237.1778" cy="117.0910" r="1.7000" /> 
</g>
<g style="fill:#000000; fill-opacity:1.0000; stroke:none;">
<circle cx="221.4118" cy="117.2210" r="0.5000" /> 
</g>
<g style="fill:#000000; fill-opacity:1.0000; stroke:none;">
<circle cx="221.4118" cy="119.7610" r="0.5000" /> 
</g>
<g style="fill:#000000; fill-opacity:1.0000; stroke:none;">
<circle cx="221.4118" cy="122.3010" r="0.5000" /> 
</g>
<g style="fill:#000000; fill-opacity:1.0000; stroke:none;">
<circle cx="221.4118" cy="124.8410" r="0.5000" /> 
</g>
<g style="fill:#000000; fill-opacity:1.0000; stroke:none;">
<circle cx="221.4118" cy="127.3810" r="0.5000" /> 
</g>
<g style="fill:#000000; fill-opacity:1.0000; stroke:none;">
<circle cx="221.4118" cy="129.9210" r="0.5000" /> 
</g>
<g style="fill:#000000; fill-opacity:1.0000; stroke:none;">
<circle cx="230.5558" cy="136.2710" r="1.6000" /> 
</g> 
</svg>
