<?xml version="1.0" standalone="no"?>
 <!DOCTYPE svg PUBLIC "-//W3C//DTD SVG 1.1//EN" 
 "http://www.w3.org/Graphics/SVG/1.1/DTD/svg11.dtd"> 
<svg
  xmlns:svg="http://www.w3.org/2000/svg"
  xmlns="http://www.w3.org/2000/svg"
  xmlns:xlink="http://www.w3.org/1999/xlink"
  version="1.1"
  width="431.8000mm" height="279.4000mm" viewBox="0.0000 0.0000 431.8000 279.4000">
<title>SVG Image created as mag-encoder-B_Silkscreen.svg date 2024/08/25 22:55:47 </title>
  <desc>Image generated by PCBNEW </desc>
<g style="fill:#000000; fill-opacity:1.0000;stroke:#000000; stroke-opacity:1.0000;
stroke-linecap:round; stroke-linejoin:round;"
 transform="translate(0 0) scale(1 1)">
</g>
<g style="fill:none; 
stroke:#000000; stroke-width:0.1524; stroke-opacity:1; 
stroke-linecap:round; stroke-linejoin:round;">
<text x="201.2950" y="116.3828"
textLength="2.9464" font-size="1.1853" lengthAdjust="spacingAndGlyphs"
text-anchor="middle" opacity="0" stroke-opacity="0">MAG</text>
<g class="stroked-text"><desc>MAG</desc>
<path d="M200.1732 116.4172
L200.1732 115.5282
" />
<path d="M200.1732 115.5282
L200.4695 116.1632
" />
<path d="M200.4695 116.1632
L200.7658 115.5282
" />
<path d="M200.7658 115.5282
L200.7658 116.4172
" />
<path d="M201.1468 116.1632
L201.5702 116.1632
" />
<path d="M201.0622 116.4172
L201.3585 115.5282
" />
<path d="M201.3585 115.5282
L201.6548 116.4172
" />
<path d="M202.4168 115.5705
L202.3322 115.5282
" />
<path d="M202.3322 115.5282
L202.2052 115.5282
" />
<path d="M202.2052 115.5282
L202.0782 115.5705
" />
<path d="M202.0782 115.5705
L201.9935 115.6552
" />
<path d="M201.9935 115.6552
L201.9512 115.7399
" />
<path d="M201.9512 115.7399
L201.9088 115.9092
" />
<path d="M201.9088 115.9092
L201.9088 116.0362
" />
<path d="M201.9088 116.0362
L201.9512 116.2055
" />
<path d="M201.9512 116.2055
L201.9935 116.2902
" />
<path d="M201.9935 116.2902
L202.0782 116.3749
" />
<path d="M202.0782 116.3749
L202.2052 116.4172
" />
<path d="M202.2052 116.4172
L202.2898 116.4172
" />
<path d="M202.2898 116.4172
L202.4168 116.3749
" />
<path d="M202.4168 116.3749
L202.4592 116.3325
" />
<path d="M202.4592 116.3325
L202.4592 116.0362
" />
<path d="M202.4592 116.0362
L202.2898 116.0362
" />
</g><text x="201.2950" y="117.8140"
textLength="6.4177" font-size="1.1853" lengthAdjust="spacingAndGlyphs"
text-anchor="middle" opacity="0" stroke-opacity="0">ENCODER</text>
<g class="stroked-text"><desc>ENCODER</desc>
<path d="M198.4375 117.3828
L198.7338 117.3828
" />
<path d="M198.8608 117.8484
L198.4375 117.8484
" />
<path d="M198.4375 117.8484
L198.4375 116.9594
" />
<path d="M198.4375 116.9594
L198.8608 116.9594
" />
<path d="M199.2418 117.8484
L199.2418 116.9594
" />
<path d="M199.2418 116.9594
L199.7498 117.8484
" />
<path d="M199.7498 117.8484
L199.7498 116.9594
" />
<path d="M200.6812 117.7638
L200.6388 117.8061
" />
<path d="M200.6388 117.8061
L200.5118 117.8484
" />
<path d="M200.5118 117.8484
L200.4272 117.8484
" />
<path d="M200.4272 117.8484
L200.3002 117.8061
" />
<path d="M200.3002 117.8061
L200.2155 117.7214
" />
<path d="M200.2155 117.7214
L200.1732 117.6368
" />
<path d="M200.1732 117.6368
L200.1308 117.4674
" />
<path d="M200.1308 117.4674
L200.1308 117.3404
" />
<path d="M200.1308 117.3404
L200.1732 117.1711
" />
<path d="M200.1732 117.1711
L200.2155 117.0864
" />
<path d="M200.2155 117.0864
L200.3002 117.0018
" />
<path d="M200.3002 117.0018
L200.4272 116.9594
" />
<path d="M200.4272 116.9594
L200.5118 116.9594
" />
<path d="M200.5118 116.9594
L200.6388 117.0018
" />
<path d="M200.6388 117.0018
L200.6812 117.0441
" />
<path d="M201.2315 116.9594
L201.4008 116.9594
" />
<path d="M201.4008 116.9594
L201.4855 117.0018
" />
<path d="M201.4855 117.0018
L201.5702 117.0864
" />
<path d="M201.5702 117.0864
L201.6125 117.2558
" />
<path d="M201.6125 117.2558
L201.6125 117.5521
" />
<path d="M201.6125 117.5521
L201.5702 117.7214
" />
<path d="M201.5702 117.7214
L201.4855 117.8061
" />
<path d="M201.4855 117.8061
L201.4008 117.8484
" />
<path d="M201.4008 117.8484
L201.2315 117.8484
" />
<path d="M201.2315 117.8484
L201.1468 117.8061
" />
<path d="M201.1468 117.8061
L201.0622 117.7214
" />
<path d="M201.0622 117.7214
L201.0198 117.5521
" />
<path d="M201.0198 117.5521
L201.0198 117.2558
" />
<path d="M201.0198 117.2558
L201.0622 117.0864
" />
<path d="M201.0622 117.0864
L201.1468 117.0018
" />
<path d="M201.1468 117.0018
L201.2315 116.9594
" />
<path d="M201.9935 117.8484
L201.9935 116.9594
" />
<path d="M201.9935 116.9594
L202.2052 116.9594
" />
<path d="M202.2052 116.9594
L202.3322 117.0018
" />
<path d="M202.3322 117.0018
L202.4168 117.0864
" />
<path d="M202.4168 117.0864
L202.4592 117.1711
" />
<path d="M202.4592 117.1711
L202.5015 117.3404
" />
<path d="M202.5015 117.3404
L202.5015 117.4674
" />
<path d="M202.5015 117.4674
L202.4592 117.6368
" />
<path d="M202.4592 117.6368
L202.4168 117.7214
" />
<path d="M202.4168 117.7214
L202.3322 117.8061
" />
<path d="M202.3322 117.8061
L202.2052 117.8484
" />
<path d="M202.2052 117.8484
L201.9935 117.8484
" />
<path d="M202.8825 117.3828
L203.1788 117.3828
" />
<path d="M203.3058 117.8484
L202.8825 117.8484
" />
<path d="M202.8825 117.8484
L202.8825 116.9594
" />
<path d="M202.8825 116.9594
L203.3058 116.9594
" />
<path d="M204.1948 117.8484
L203.8985 117.4251
" />
<path d="M203.6868 117.8484
L203.6868 116.9594
" />
<path d="M203.6868 116.9594
L204.0255 116.9594
" />
<path d="M204.0255 116.9594
L204.1102 117.0018
" />
<path d="M204.1102 117.0018
L204.1525 117.0441
" />
<path d="M204.1525 117.0441
L204.1948 117.1288
" />
<path d="M204.1948 117.1288
L204.1948 117.2558
" />
<path d="M204.1948 117.2558
L204.1525 117.3404
" />
<path d="M204.1525 117.3404
L204.1102 117.3828
" />
<path d="M204.1102 117.3828
L204.0255 117.4251
" />
<path d="M204.0255 117.4251
L203.6868 117.4251
" />
</g><text x="201.2950" y="119.2453"
textLength="1.8881" font-size="1.1853" lengthAdjust="spacingAndGlyphs"
text-anchor="middle" opacity="0" stroke-opacity="0">V1</text>
<g class="stroked-text"><desc>V1</desc>
<path d="M200.5753 118.3907
L200.8717 119.2797
" />
<path d="M200.8717 119.2797
L201.1680 118.3907
" />
<path d="M201.9300 119.2797
L201.4220 119.2797
" />
<path d="M201.6760 119.2797
L201.6760 118.3907
" />
<path d="M201.6760 118.3907
L201.5913 118.5177
" />
<path d="M201.5913 118.5177
L201.5067 118.6024
" />
<path d="M201.5067 118.6024
L201.4220 118.6447
" />
</g><text x="209.2960" y="122.7455"
textLength="2.0151" font-size="1.1853" lengthAdjust="spacingAndGlyphs"
text-anchor="end" opacity="0" stroke-opacity="0">CS</text>
<g class="stroked-text"><desc>CS</desc>
<path d="M208.1797 122.6197
L208.1374 122.6620
" />
<path d="M208.1374 122.6620
L208.0104 122.7043
" />
<path d="M208.0104 122.7043
L207.9257 122.7043
" />
<path d="M207.9257 122.7043
L207.7987 122.6620
" />
<path d="M207.7987 122.6620
L207.7141 122.5773
" />
<path d="M207.7141 122.5773
L207.6717 122.4927
" />
<path d="M207.6717 122.4927
L207.6294 122.3233
" />
<path d="M207.6294 122.3233
L207.6294 122.1963
" />
<path d="M207.6294 122.1963
L207.6717 122.0270
" />
<path d="M207.6717 122.0270
L207.7141 121.9423
" />
<path d="M207.7141 121.9423
L207.7987 121.8577
" />
<path d="M207.7987 121.8577
L207.9257 121.8153
" />
<path d="M207.9257 121.8153
L208.0104 121.8153
" />
<path d="M208.0104 121.8153
L208.1374 121.8577
" />
<path d="M208.1374 121.8577
L208.1797 121.9000
" />
<path d="M208.5184 122.6620
L208.6454 122.7043
" />
<path d="M208.6454 122.7043
L208.8571 122.7043
" />
<path d="M208.8571 122.7043
L208.9417 122.6620
" />
<path d="M208.9417 122.6620
L208.9841 122.6197
" />
<path d="M208.9841 122.6197
L209.0264 122.5350
" />
<path d="M209.0264 122.5350
L209.0264 122.4503
" />
<path d="M209.0264 122.4503
L208.9841 122.3657
" />
<path d="M208.9841 122.3657
L208.9417 122.3233
" />
<path d="M208.9417 122.3233
L208.8571 122.2810
" />
<path d="M208.8571 122.2810
L208.6877 122.2387
" />
<path d="M208.6877 122.2387
L208.6031 122.1963
" />
<path d="M208.6031 122.1963
L208.5607 122.1540
" />
<path d="M208.5607 122.1540
L208.5184 122.0693
" />
<path d="M208.5184 122.0693
L208.5184 121.9847
" />
<path d="M208.5184 121.9847
L208.5607 121.9000
" />
<path d="M208.5607 121.9000
L208.6031 121.8577
" />
<path d="M208.6031 121.8577
L208.6877 121.8153
" />
<path d="M208.6877 121.8153
L208.8994 121.8153
" />
<path d="M208.8994 121.8153
L209.0264 121.8577
" />
</g><text x="209.2960" y="117.6909"
textLength="2.9887" font-size="1.1853" lengthAdjust="spacingAndGlyphs"
text-anchor="end" opacity="0" stroke-opacity="0">GND</text>
<g class="stroked-text"><desc>GND</desc>
<path d="M207.1637 116.8031
L207.0791 116.7607
" />
<path d="M207.0791 116.7607
L206.9521 116.7607
" />
<path d="M206.9521 116.7607
L206.8251 116.8031
" />
<path d="M206.8251 116.8031
L206.7404 116.8877
" />
<path d="M206.7404 116.8877
L206.6981 116.9724
" />
<path d="M206.6981 116.9724
L206.6557 117.1417
" />
<path d="M206.6557 117.1417
L206.6557 117.2687
" />
<path d="M206.6557 117.2687
L206.6981 117.4381
" />
<path d="M206.6981 117.4381
L206.7404 117.5227
" />
<path d="M206.7404 117.5227
L206.8251 117.6074
" />
<path d="M206.8251 117.6074
L206.9521 117.6497
" />
<path d="M206.9521 117.6497
L207.0367 117.6497
" />
<path d="M207.0367 117.6497
L207.1637 117.6074
" />
<path d="M207.1637 117.6074
L207.2061 117.5651
" />
<path d="M207.2061 117.5651
L207.2061 117.2687
" />
<path d="M207.2061 117.2687
L207.0367 117.2687
" />
<path d="M207.5871 117.6497
L207.5871 116.7607
" />
<path d="M207.5871 116.7607
L208.0951 117.6497
" />
<path d="M208.0951 117.6497
L208.0951 116.7607
" />
<path d="M208.5184 117.6497
L208.5184 116.7607
" />
<path d="M208.5184 116.7607
L208.7301 116.7607
" />
<path d="M208.7301 116.7607
L208.8571 116.8031
" />
<path d="M208.8571 116.8031
L208.9417 116.8877
" />
<path d="M208.9417 116.8877
L208.9841 116.9724
" />
<path d="M208.9841 116.9724
L209.0264 117.1417
" />
<path d="M209.0264 117.1417
L209.0264 117.2687
" />
<path d="M209.0264 117.2687
L208.9841 117.4381
" />
<path d="M208.9841 117.4381
L208.9417 117.5227
" />
<path d="M208.9417 117.5227
L208.8571 117.6074
" />
<path d="M208.8571 117.6074
L208.7301 117.6497
" />
<path d="M208.7301 117.6497
L208.5184 117.6497
" />
</g><text x="209.2960" y="127.8255"
textLength="3.4967" font-size="1.1853" lengthAdjust="spacingAndGlyphs"
text-anchor="end" opacity="0" stroke-opacity="0">MISO</text>
<g class="stroked-text"><desc>MISO</desc>
<path d="M206.1901 127.7843
L206.1901 126.8953
" />
<path d="M206.1901 126.8953
L206.4864 127.5303
" />
<path d="M206.4864 127.5303
L206.7827 126.8953
" />
<path d="M206.7827 126.8953
L206.7827 127.7843
" />
<path d="M207.2061 127.7843
L207.2061 126.8953
" />
<path d="M207.5871 127.7420
L207.7141 127.7843
" />
<path d="M207.7141 127.7843
L207.9257 127.7843
" />
<path d="M207.9257 127.7843
L208.0104 127.7420
" />
<path d="M208.0104 127.7420
L208.0527 127.6997
" />
<path d="M208.0527 127.6997
L208.0951 127.6150
" />
<path d="M208.0951 127.6150
L208.0951 127.5303
" />
<path d="M208.0951 127.5303
L208.0527 127.4457
" />
<path d="M208.0527 127.4457
L208.0104 127.4033
" />
<path d="M208.0104 127.4033
L207.9257 127.3610
" />
<path d="M207.9257 127.3610
L207.7564 127.3187
" />
<path d="M207.7564 127.3187
L207.6717 127.2763
" />
<path d="M207.6717 127.2763
L207.6294 127.2340
" />
<path d="M207.6294 127.2340
L207.5871 127.1493
" />
<path d="M207.5871 127.1493
L207.5871 127.0647
" />
<path d="M207.5871 127.0647
L207.6294 126.9800
" />
<path d="M207.6294 126.9800
L207.6717 126.9377
" />
<path d="M207.6717 126.9377
L207.7564 126.8953
" />
<path d="M207.7564 126.8953
L207.9681 126.8953
" />
<path d="M207.9681 126.8953
L208.0951 126.9377
" />
<path d="M208.6454 126.8953
L208.8147 126.8953
" />
<path d="M208.8147 126.8953
L208.8994 126.9377
" />
<path d="M208.8994 126.9377
L208.9841 127.0223
" />
<path d="M208.9841 127.0223
L209.0264 127.1917
" />
<path d="M209.0264 127.1917
L209.0264 127.4880
" />
<path d="M209.0264 127.4880
L208.9841 127.6573
" />
<path d="M208.9841 127.6573
L208.8994 127.7420
" />
<path d="M208.8994 127.7420
L208.8147 127.7843
" />
<path d="M208.8147 127.7843
L208.6454 127.7843
" />
<path d="M208.6454 127.7843
L208.5607 127.7420
" />
<path d="M208.5607 127.7420
L208.4761 127.6573
" />
<path d="M208.4761 127.6573
L208.4337 127.4880
" />
<path d="M208.4337 127.4880
L208.4337 127.1917
" />
<path d="M208.4337 127.1917
L208.4761 127.0223
" />
<path d="M208.4761 127.0223
L208.5607 126.9377
" />
<path d="M208.5607 126.9377
L208.6454 126.8953
" />
</g><text x="209.2960" y="120.2055"
textLength="2.7347" font-size="1.1853" lengthAdjust="spacingAndGlyphs"
text-anchor="end" opacity="0" stroke-opacity="0">3V3</text>
<g class="stroked-text"><desc>3V3</desc>
<path d="M206.8674 119.2753
L207.4177 119.2753
" />
<path d="M207.4177 119.2753
L207.1214 119.6140
" />
<path d="M207.1214 119.6140
L207.2484 119.6140
" />
<path d="M207.2484 119.6140
L207.3331 119.6563
" />
<path d="M207.3331 119.6563
L207.3754 119.6987
" />
<path d="M207.3754 119.6987
L207.4177 119.7833
" />
<path d="M207.4177 119.7833
L207.4177 119.9950
" />
<path d="M207.4177 119.9950
L207.3754 120.0797
" />
<path d="M207.3754 120.0797
L207.3331 120.1220
" />
<path d="M207.3331 120.1220
L207.2484 120.1643
" />
<path d="M207.2484 120.1643
L206.9944 120.1643
" />
<path d="M206.9944 120.1643
L206.9097 120.1220
" />
<path d="M206.9097 120.1220
L206.8674 120.0797
" />
<path d="M207.6717 119.2753
L207.9681 120.1643
" />
<path d="M207.9681 120.1643
L208.2644 119.2753
" />
<path d="M208.4761 119.2753
L209.0264 119.2753
" />
<path d="M209.0264 119.2753
L208.7301 119.6140
" />
<path d="M208.7301 119.6140
L208.8571 119.6140
" />
<path d="M208.8571 119.6140
L208.9417 119.6563
" />
<path d="M208.9417 119.6563
L208.9841 119.6987
" />
<path d="M208.9841 119.6987
L209.0264 119.7833
" />
<path d="M209.0264 119.7833
L209.0264 119.9950
" />
<path d="M209.0264 119.9950
L208.9841 120.0797
" />
<path d="M208.9841 120.0797
L208.9417 120.1220
" />
<path d="M208.9417 120.1220
L208.8571 120.1643
" />
<path d="M208.8571 120.1643
L208.6031 120.1643
" />
<path d="M208.6031 120.1643
L208.5184 120.1220
" />
<path d="M208.5184 120.1220
L208.4761 120.0797
" />
</g><g transform="rotate(90.000000 191.9986 125.2982)">
<text x="191.9986" y="126.1872"
textLength="20.4724" font-size="1.1853" lengthAdjust="spacingAndGlyphs"
text-anchor="middle" opacity="0" stroke-opacity="0">971 SPARTAN ROBOTICS 2024</text>
</g>
<g class="stroked-text"><desc>971 SPARTAN ROBOTICS 2024</desc>
<path d="M191.0752 115.4557
L191.0752 115.6250
" />
<path d="M191.0752 115.6250
L191.1175 115.7097
" />
<path d="M191.1175 115.7097
L191.1599 115.7520
" />
<path d="M191.1599 115.7520
L191.2869 115.8367
" />
<path d="M191.2869 115.8367
L191.4562 115.8790
" />
<path d="M191.4562 115.8790
L191.7949 115.8790
" />
<path d="M191.7949 115.8790
L191.8795 115.8367
" />
<path d="M191.8795 115.8367
L191.9219 115.7944
" />
<path d="M191.9219 115.7944
L191.9642 115.7097
" />
<path d="M191.9642 115.7097
L191.9642 115.5404
" />
<path d="M191.9642 115.5404
L191.9219 115.4557
" />
<path d="M191.9219 115.4557
L191.8795 115.4134
" />
<path d="M191.8795 115.4134
L191.7949 115.3710
" />
<path d="M191.7949 115.3710
L191.5832 115.3710
" />
<path d="M191.5832 115.3710
L191.4985 115.4134
" />
<path d="M191.4985 115.4134
L191.4562 115.4557
" />
<path d="M191.4562 115.4557
L191.4139 115.5404
" />
<path d="M191.4139 115.5404
L191.4139 115.7097
" />
<path d="M191.4139 115.7097
L191.4562 115.7944
" />
<path d="M191.4562 115.7944
L191.4985 115.8367
" />
<path d="M191.4985 115.8367
L191.5832 115.8790
" />
<path d="M191.9642 116.1754
L191.9642 116.7680
" />
<path d="M191.9642 116.7680
L191.0752 116.3870
" />
<path d="M191.0752 117.5724
L191.0752 117.0644
" />
<path d="M191.0752 117.3184
L191.9642 117.3184
" />
<path d="M191.9642 117.3184
L191.8372 117.2337
" />
<path d="M191.8372 117.2337
L191.7525 117.1490
" />
<path d="M191.7525 117.1490
L191.7102 117.0644
" />
<path d="M191.1175 118.5884
L191.0752 118.7154
" />
<path d="M191.0752 118.7154
L191.0752 118.9270
" />
<path d="M191.0752 118.9270
L191.1175 119.0117
" />
<path d="M191.1175 119.0117
L191.1599 119.0540
" />
<path d="M191.1599 119.0540
L191.2445 119.0964
" />
<path d="M191.2445 119.0964
L191.3292 119.0964
" />
<path d="M191.3292 119.0964
L191.4139 119.0540
" />
<path d="M191.4139 119.0540
L191.4562 119.0117
" />
<path d="M191.4562 119.0117
L191.4985 118.9270
" />
<path d="M191.4985 118.9270
L191.5409 118.7577
" />
<path d="M191.5409 118.7577
L191.5832 118.6730
" />
<path d="M191.5832 118.6730
L191.6255 118.6307
" />
<path d="M191.6255 118.6307
L191.7102 118.5884
" />
<path d="M191.7102 118.5884
L191.7949 118.5884
" />
<path d="M191.7949 118.5884
L191.8795 118.6307
" />
<path d="M191.8795 118.6307
L191.9219 118.6730
" />
<path d="M191.9219 118.6730
L191.9642 118.7577
" />
<path d="M191.9642 118.7577
L191.9642 118.9694
" />
<path d="M191.9642 118.9694
L191.9219 119.0964
" />
<path d="M191.0752 119.4774
L191.9642 119.4774
" />
<path d="M191.9642 119.4774
L191.9642 119.8160
" />
<path d="M191.9642 119.8160
L191.9219 119.9007
" />
<path d="M191.9219 119.9007
L191.8795 119.9430
" />
<path d="M191.8795 119.9430
L191.7949 119.9854
" />
<path d="M191.7949 119.9854
L191.6679 119.9854
" />
<path d="M191.6679 119.9854
L191.5832 119.9430
" />
<path d="M191.5832 119.9430
L191.5409 119.9007
" />
<path d="M191.5409 119.9007
L191.4985 119.8160
" />
<path d="M191.4985 119.8160
L191.4985 119.4774
" />
<path d="M191.3292 120.3240
L191.3292 120.7474
" />
<path d="M191.0752 120.2394
L191.9642 120.5357
" />
<path d="M191.9642 120.5357
L191.0752 120.8320
" />
<path d="M191.0752 121.6364
L191.4985 121.3400
" />
<path d="M191.0752 121.1284
L191.9642 121.1284
" />
<path d="M191.9642 121.1284
L191.9642 121.4670
" />
<path d="M191.9642 121.4670
L191.9219 121.5517
" />
<path d="M191.9219 121.5517
L191.8795 121.5940
" />
<path d="M191.8795 121.5940
L191.7949 121.6364
" />
<path d="M191.7949 121.6364
L191.6679 121.6364
" />
<path d="M191.6679 121.6364
L191.5832 121.5940
" />
<path d="M191.5832 121.5940
L191.5409 121.5517
" />
<path d="M191.5409 121.5517
L191.4985 121.4670
" />
<path d="M191.4985 121.4670
L191.4985 121.1284
" />
<path d="M191.9642 121.8904
L191.9642 122.3984
" />
<path d="M191.0752 122.1444
L191.9642 122.1444
" />
<path d="M191.3292 122.6524
L191.3292 123.0757
" />
<path d="M191.0752 122.5677
L191.9642 122.8640
" />
<path d="M191.9642 122.8640
L191.0752 123.1604
" />
<path d="M191.0752 123.4567
L191.9642 123.4567
" />
<path d="M191.9642 123.4567
L191.0752 123.9647
" />
<path d="M191.0752 123.9647
L191.9642 123.9647
" />
<path d="M191.0752 125.5734
L191.4985 125.2770
" />
<path d="M191.0752 125.0654
L191.9642 125.0654
" />
<path d="M191.9642 125.0654
L191.9642 125.4040
" />
<path d="M191.9642 125.4040
L191.9219 125.4887
" />
<path d="M191.9219 125.4887
L191.8795 125.5310
" />
<path d="M191.8795 125.5310
L191.7949 125.5734
" />
<path d="M191.7949 125.5734
L191.6679 125.5734
" />
<path d="M191.6679 125.5734
L191.5832 125.5310
" />
<path d="M191.5832 125.5310
L191.5409 125.4887
" />
<path d="M191.5409 125.4887
L191.4985 125.4040
" />
<path d="M191.4985 125.4040
L191.4985 125.0654
" />
<path d="M191.9642 126.1237
L191.9642 126.2930
" />
<path d="M191.9642 126.2930
L191.9219 126.3777
" />
<path d="M191.9219 126.3777
L191.8372 126.4624
" />
<path d="M191.8372 126.4624
L191.6679 126.5047
" />
<path d="M191.6679 126.5047
L191.3715 126.5047
" />
<path d="M191.3715 126.5047
L191.2022 126.4624
" />
<path d="M191.2022 126.4624
L191.1175 126.3777
" />
<path d="M191.1175 126.3777
L191.0752 126.2930
" />
<path d="M191.0752 126.2930
L191.0752 126.1237
" />
<path d="M191.0752 126.1237
L191.1175 126.0390
" />
<path d="M191.1175 126.0390
L191.2022 125.9544
" />
<path d="M191.2022 125.9544
L191.3715 125.9120
" />
<path d="M191.3715 125.9120
L191.6679 125.9120
" />
<path d="M191.6679 125.9120
L191.8372 125.9544
" />
<path d="M191.8372 125.9544
L191.9219 126.0390
" />
<path d="M191.9219 126.0390
L191.9642 126.1237
" />
<path d="M191.5409 127.1820
L191.4985 127.3090
" />
<path d="M191.4985 127.3090
L191.4562 127.3514
" />
<path d="M191.4562 127.3514
L191.3715 127.3937
" />
<path d="M191.3715 127.3937
L191.2445 127.3937
" />
<path d="M191.2445 127.3937
L191.1599 127.3514
" />
<path d="M191.1599 127.3514
L191.1175 127.3090
" />
<path d="M191.1175 127.3090
L191.0752 127.2244
" />
<path d="M191.0752 127.2244
L191.0752 126.8857
" />
<path d="M191.0752 126.8857
L191.9642 126.8857
" />
<path d="M191.9642 126.8857
L191.9642 127.1820
" />
<path d="M191.9642 127.1820
L191.9219 127.2667
" />
<path d="M191.9219 127.2667
L191.8795 127.3090
" />
<path d="M191.8795 127.3090
L191.7949 127.3514
" />
<path d="M191.7949 127.3514
L191.7102 127.3514
" />
<path d="M191.7102 127.3514
L191.6255 127.3090
" />
<path d="M191.6255 127.3090
L191.5832 127.2667
" />
<path d="M191.5832 127.2667
L191.5409 127.1820
" />
<path d="M191.5409 127.1820
L191.5409 126.8857
" />
<path d="M191.9642 127.9440
L191.9642 128.1134
" />
<path d="M191.9642 128.1134
L191.9219 128.1980
" />
<path d="M191.9219 128.1980
L191.8372 128.2827
" />
<path d="M191.8372 128.2827
L191.6679 128.3250
" />
<path d="M191.6679 128.3250
L191.3715 128.3250
" />
<path d="M191.3715 128.3250
L191.2022 128.2827
" />
<path d="M191.2022 128.2827
L191.1175 128.1980
" />
<path d="M191.1175 128.1980
L191.0752 128.1134
" />
<path d="M191.0752 128.1134
L191.0752 127.9440
" />
<path d="M191.0752 127.9440
L191.1175 127.8594
" />
<path d="M191.1175 127.8594
L191.2022 127.7747
" />
<path d="M191.2022 127.7747
L191.3715 127.7324
" />
<path d="M191.3715 127.7324
L191.6679 127.7324
" />
<path d="M191.6679 127.7324
L191.8372 127.7747
" />
<path d="M191.8372 127.7747
L191.9219 127.8594
" />
<path d="M191.9219 127.8594
L191.9642 127.9440
" />
<path d="M191.9642 128.5790
L191.9642 129.0870
" />
<path d="M191.0752 128.8330
L191.9642 128.8330
" />
<path d="M191.0752 129.3834
L191.9642 129.3834
" />
<path d="M191.1599 130.3147
L191.1175 130.2724
" />
<path d="M191.1175 130.2724
L191.0752 130.1454
" />
<path d="M191.0752 130.1454
L191.0752 130.0607
" />
<path d="M191.0752 130.0607
L191.1175 129.9337
" />
<path d="M191.1175 129.9337
L191.2022 129.8490
" />
<path d="M191.2022 129.8490
L191.2869 129.8067
" />
<path d="M191.2869 129.8067
L191.4562 129.7644
" />
<path d="M191.4562 129.7644
L191.5832 129.7644
" />
<path d="M191.5832 129.7644
L191.7525 129.8067
" />
<path d="M191.7525 129.8067
L191.8372 129.8490
" />
<path d="M191.8372 129.8490
L191.9219 129.9337
" />
<path d="M191.9219 129.9337
L191.9642 130.0607
" />
<path d="M191.9642 130.0607
L191.9642 130.1454
" />
<path d="M191.9642 130.1454
L191.9219 130.2724
" />
<path d="M191.9219 130.2724
L191.8795 130.3147
" />
<path d="M191.1175 130.6534
L191.0752 130.7804
" />
<path d="M191.0752 130.7804
L191.0752 130.9920
" />
<path d="M191.0752 130.9920
L191.1175 131.0767
" />
<path d="M191.1175 131.0767
L191.1599 131.1190
" />
<path d="M191.1599 131.1190
L191.2445 131.1614
" />
<path d="M191.2445 131.1614
L191.3292 131.1614
" />
<path d="M191.3292 131.1614
L191.4139 131.1190
" />
<path d="M191.4139 131.1190
L191.4562 131.0767
" />
<path d="M191.4562 131.0767
L191.4985 130.9920
" />
<path d="M191.4985 130.9920
L191.5409 130.8227
" />
<path d="M191.5409 130.8227
L191.5832 130.7380
" />
<path d="M191.5832 130.7380
L191.6255 130.6957
" />
<path d="M191.6255 130.6957
L191.7102 130.6534
" />
<path d="M191.7102 130.6534
L191.7949 130.6534
" />
<path d="M191.7949 130.6534
L191.8795 130.6957
" />
<path d="M191.8795 130.6957
L191.9219 130.7380
" />
<path d="M191.9219 130.7380
L191.9642 130.8227
" />
<path d="M191.9642 130.8227
L191.9642 131.0344
" />
<path d="M191.9642 131.0344
L191.9219 131.1614
" />
<path d="M191.8795 132.1774
L191.9219 132.2197
" />
<path d="M191.9219 132.2197
L191.9642 132.3044
" />
<path d="M191.9642 132.3044
L191.9642 132.5160
" />
<path d="M191.9642 132.5160
L191.9219 132.6007
" />
<path d="M191.9219 132.6007
L191.8795 132.6430
" />
<path d="M191.8795 132.6430
L191.7949 132.6854
" />
<path d="M191.7949 132.6854
L191.7102 132.6854
" />
<path d="M191.7102 132.6854
L191.5832 132.6430
" />
<path d="M191.5832 132.6430
L191.0752 132.1350
" />
<path d="M191.0752 132.1350
L191.0752 132.6854
" />
<path d="M191.9642 133.2357
L191.9642 133.3204
" />
<path d="M191.9642 133.3204
L191.9219 133.4050
" />
<path d="M191.9219 133.4050
L191.8795 133.4474
" />
<path d="M191.8795 133.4474
L191.7949 133.4897
" />
<path d="M191.7949 133.4897
L191.6255 133.5320
" />
<path d="M191.6255 133.5320
L191.4139 133.5320
" />
<path d="M191.4139 133.5320
L191.2445 133.4897
" />
<path d="M191.2445 133.4897
L191.1599 133.4474
" />
<path d="M191.1599 133.4474
L191.1175 133.4050
" />
<path d="M191.1175 133.4050
L191.0752 133.3204
" />
<path d="M191.0752 133.3204
L191.0752 133.2357
" />
<path d="M191.0752 133.2357
L191.1175 133.1510
" />
<path d="M191.1175 133.1510
L191.1599 133.1087
" />
<path d="M191.1599 133.1087
L191.2445 133.0664
" />
<path d="M191.2445 133.0664
L191.4139 133.0240
" />
<path d="M191.4139 133.0240
L191.6255 133.0240
" />
<path d="M191.6255 133.0240
L191.7949 133.0664
" />
<path d="M191.7949 133.0664
L191.8795 133.1087
" />
<path d="M191.8795 133.1087
L191.9219 133.1510
" />
<path d="M191.9219 133.1510
L191.9642 133.2357
" />
<path d="M191.8795 133.8707
L191.9219 133.9130
" />
<path d="M191.9219 133.9130
L191.9642 133.9977
" />
<path d="M191.9642 133.9977
L191.9642 134.2094
" />
<path d="M191.9642 134.2094
L191.9219 134.2940
" />
<path d="M191.9219 134.2940
L191.8795 134.3364
" />
<path d="M191.8795 134.3364
L191.7949 134.3787
" />
<path d="M191.7949 134.3787
L191.7102 134.3787
" />
<path d="M191.7102 134.3787
L191.5832 134.3364
" />
<path d="M191.5832 134.3364
L191.0752 133.8284
" />
<path d="M191.0752 133.8284
L191.0752 134.3787
" />
<path d="M191.6679 135.1407
L191.0752 135.1407
" />
<path d="M192.0065 134.9290
L191.3715 134.7174
" />
<path d="M191.3715 134.7174
L191.3715 135.2677
" />
</g><text x="209.2960" y="125.6665"
textLength="3.4967" font-size="1.1853" lengthAdjust="spacingAndGlyphs"
text-anchor="end" opacity="0" stroke-opacity="0">MOSI</text>
<g class="stroked-text"><desc>MOSI</desc>
<path d="M206.1901 125.6253
L206.1901 124.7363
" />
<path d="M206.1901 124.7363
L206.4864 125.3713
" />
<path d="M206.4864 125.3713
L206.7827 124.7363
" />
<path d="M206.7827 124.7363
L206.7827 125.6253
" />
<path d="M207.3754 124.7363
L207.5447 124.7363
" />
<path d="M207.5447 124.7363
L207.6294 124.7787
" />
<path d="M207.6294 124.7787
L207.7141 124.8633
" />
<path d="M207.7141 124.8633
L207.7564 125.0327
" />
<path d="M207.7564 125.0327
L207.7564 125.3290
" />
<path d="M207.7564 125.3290
L207.7141 125.4983
" />
<path d="M207.7141 125.4983
L207.6294 125.5830
" />
<path d="M207.6294 125.5830
L207.5447 125.6253
" />
<path d="M207.5447 125.6253
L207.3754 125.6253
" />
<path d="M207.3754 125.6253
L207.2907 125.5830
" />
<path d="M207.2907 125.5830
L207.2061 125.4983
" />
<path d="M207.2061 125.4983
L207.1637 125.3290
" />
<path d="M207.1637 125.3290
L207.1637 125.0327
" />
<path d="M207.1637 125.0327
L207.2061 124.8633
" />
<path d="M207.2061 124.8633
L207.2907 124.7787
" />
<path d="M207.2907 124.7787
L207.3754 124.7363
" />
<path d="M208.0951 125.5830
L208.2221 125.6253
" />
<path d="M208.2221 125.6253
L208.4337 125.6253
" />
<path d="M208.4337 125.6253
L208.5184 125.5830
" />
<path d="M208.5184 125.5830
L208.5607 125.5407
" />
<path d="M208.5607 125.5407
L208.6031 125.4560
" />
<path d="M208.6031 125.4560
L208.6031 125.3713
" />
<path d="M208.6031 125.3713
L208.5607 125.2867
" />
<path d="M208.5607 125.2867
L208.5184 125.2443
" />
<path d="M208.5184 125.2443
L208.4337 125.2020
" />
<path d="M208.4337 125.2020
L208.2644 125.1597
" />
<path d="M208.2644 125.1597
L208.1797 125.1173
" />
<path d="M208.1797 125.1173
L208.1374 125.0750
" />
<path d="M208.1374 125.0750
L208.0951 124.9903
" />
<path d="M208.0951 124.9903
L208.0951 124.9057
" />
<path d="M208.0951 124.9057
L208.1374 124.8210
" />
<path d="M208.1374 124.8210
L208.1797 124.7787
" />
<path d="M208.1797 124.7787
L208.2644 124.7363
" />
<path d="M208.2644 124.7363
L208.4761 124.7363
" />
<path d="M208.4761 124.7363
L208.6031 124.7787
" />
<path d="M208.9841 125.6253
L208.9841 124.7363
" />
</g><text x="209.2960" y="130.3655"
textLength="3.6237" font-size="1.1853" lengthAdjust="spacingAndGlyphs"
text-anchor="end" opacity="0" stroke-opacity="0">SCLK</text>
<g class="stroked-text"><desc>SCLK</desc>
<path d="M206.0207 130.2820
L206.1477 130.3243
" />
<path d="M206.1477 130.3243
L206.3594 130.3243
" />
<path d="M206.3594 130.3243
L206.4441 130.2820
" />
<path d="M206.4441 130.2820
L206.4864 130.2397
" />
<path d="M206.4864 130.2397
L206.5287 130.1550
" />
<path d="M206.5287 130.1550
L206.5287 130.0703
" />
<path d="M206.5287 130.0703
L206.4864 129.9857
" />
<path d="M206.4864 129.9857
L206.4441 129.9433
" />
<path d="M206.4441 129.9433
L206.3594 129.9010
" />
<path d="M206.3594 129.9010
L206.1901 129.8587
" />
<path d="M206.1901 129.8587
L206.1054 129.8163
" />
<path d="M206.1054 129.8163
L206.0631 129.7740
" />
<path d="M206.0631 129.7740
L206.0207 129.6893
" />
<path d="M206.0207 129.6893
L206.0207 129.6047
" />
<path d="M206.0207 129.6047
L206.0631 129.5200
" />
<path d="M206.0631 129.5200
L206.1054 129.4777
" />
<path d="M206.1054 129.4777
L206.1901 129.4353
" />
<path d="M206.1901 129.4353
L206.4017 129.4353
" />
<path d="M206.4017 129.4353
L206.5287 129.4777
" />
<path d="M207.4177 130.2397
L207.3754 130.2820
" />
<path d="M207.3754 130.2820
L207.2484 130.3243
" />
<path d="M207.2484 130.3243
L207.1637 130.3243
" />
<path d="M207.1637 130.3243
L207.0367 130.2820
" />
<path d="M207.0367 130.2820
L206.9521 130.1973
" />
<path d="M206.9521 130.1973
L206.9097 130.1127
" />
<path d="M206.9097 130.1127
L206.8674 129.9433
" />
<path d="M206.8674 129.9433
L206.8674 129.8163
" />
<path d="M206.8674 129.8163
L206.9097 129.6470
" />
<path d="M206.9097 129.6470
L206.9521 129.5623
" />
<path d="M206.9521 129.5623
L207.0367 129.4777
" />
<path d="M207.0367 129.4777
L207.1637 129.4353
" />
<path d="M207.1637 129.4353
L207.2484 129.4353
" />
<path d="M207.2484 129.4353
L207.3754 129.4777
" />
<path d="M207.3754 129.4777
L207.4177 129.5200
" />
<path d="M208.2221 130.3243
L207.7987 130.3243
" />
<path d="M207.7987 130.3243
L207.7987 129.4353
" />
<path d="M208.5184 130.3243
L208.5184 129.4353
" />
<path d="M209.0264 130.3243
L208.6454 129.8163
" />
<path d="M209.0264 129.4353
L208.5184 129.9433
" />
</g></g>
<g style="fill:none; 
stroke:#000000; stroke-width:0.1270; stroke-opacity:1; 
stroke-linecap:round; stroke-linejoin:round;">
<text x="205.4606" y="123.0503"
textLength="1.4938" font-size="0.8467" lengthAdjust="spacingAndGlyphs"
text-anchor="middle" opacity="0" stroke-opacity="0">R3</text>
<g class="stroked-text"><desc>R3</desc>
<path d="M205.3548 123.0200
L205.1431 122.7176
" />
<path d="M204.9919 123.0200
L204.9919 122.3850
" />
<path d="M204.9919 122.3850
L205.2338 122.3850
" />
<path d="M205.2338 122.3850
L205.2943 122.4152
" />
<path d="M205.2943 122.4152
L205.3245 122.4454
" />
<path d="M205.3245 122.4454
L205.3548 122.5059
" />
<path d="M205.3548 122.5059
L205.3548 122.5966
" />
<path d="M205.3548 122.5966
L205.3245 122.6571
" />
<path d="M205.3245 122.6571
L205.2943 122.6873
" />
<path d="M205.2943 122.6873
L205.2338 122.7176
" />
<path d="M205.2338 122.7176
L204.9919 122.7176
" />
<path d="M205.5664 122.3850
L205.9595 122.3850
" />
<path d="M205.9595 122.3850
L205.7479 122.6269
" />
<path d="M205.7479 122.6269
L205.8386 122.6269
" />
<path d="M205.8386 122.6269
L205.8991 122.6571
" />
<path d="M205.8991 122.6571
L205.9293 122.6873
" />
<path d="M205.9293 122.6873
L205.9595 122.7478
" />
<path d="M205.9595 122.7478
L205.9595 122.8990
" />
<path d="M205.9595 122.8990
L205.9293 122.9595
" />
<path d="M205.9293 122.9595
L205.8991 122.9897
" />
<path d="M205.8991 122.9897
L205.8386 123.0200
" />
<path d="M205.8386 123.0200
L205.6571 123.0200
" />
<path d="M205.6571 123.0200
L205.5967 122.9897
" />
<path d="M205.5967 122.9897
L205.5664 122.9595
" />
</g><g transform="rotate(90.000000 197.7644 125.6030)">
<text x="197.7644" y="125.9205"
textLength="1.4938" font-size="0.8467" lengthAdjust="spacingAndGlyphs"
text-anchor="middle" opacity="0" stroke-opacity="0">C3</text>
</g>
<g class="stroked-text"><desc>C3</desc>
<path d="M197.5377 125.4972
L197.5075 125.4669
" />
<path d="M197.5075 125.4669
L197.4772 125.3762
" />
<path d="M197.4772 125.3762
L197.4772 125.3157
" />
<path d="M197.4772 125.3157
L197.5075 125.2250
" />
<path d="M197.5075 125.2250
L197.5680 125.1645
" />
<path d="M197.5680 125.1645
L197.6284 125.1343
" />
<path d="M197.6284 125.1343
L197.7494 125.1041
" />
<path d="M197.7494 125.1041
L197.8401 125.1041
" />
<path d="M197.8401 125.1041
L197.9611 125.1343
" />
<path d="M197.9611 125.1343
L198.0215 125.1645
" />
<path d="M198.0215 125.1645
L198.0820 125.2250
" />
<path d="M198.0820 125.2250
L198.1122 125.3157
" />
<path d="M198.1122 125.3157
L198.1122 125.3762
" />
<path d="M198.1122 125.3762
L198.0820 125.4669
" />
<path d="M198.0820 125.4669
L198.0518 125.4972
" />
<path d="M198.1122 125.7088
L198.1122 126.1019
" />
<path d="M198.1122 126.1019
L197.8703 125.8903
" />
<path d="M197.8703 125.8903
L197.8703 125.9810
" />
<path d="M197.8703 125.9810
L197.8401 126.0415
" />
<path d="M197.8401 126.0415
L197.8099 126.0717
" />
<path d="M197.8099 126.0717
L197.7494 126.1019
" />
<path d="M197.7494 126.1019
L197.5982 126.1019
" />
<path d="M197.5982 126.1019
L197.5377 126.0717
" />
<path d="M197.5377 126.0717
L197.5075 126.0415
" />
<path d="M197.5075 126.0415
L197.4772 125.9810
" />
<path d="M197.4772 125.9810
L197.4772 125.7995
" />
<path d="M197.4772 125.7995
L197.5075 125.7391
" />
<path d="M197.5075 125.7391
L197.5377 125.7088
" />
</g><g transform="rotate(90.000000 208.0514 113.4110)">
<text x="208.0514" y="113.7285"
textLength="1.4938" font-size="0.8467" lengthAdjust="spacingAndGlyphs"
text-anchor="middle" opacity="0" stroke-opacity="0">C2</text>
</g>
<g class="stroked-text"><desc>C2</desc>
<path d="M207.8247 113.3052
L207.7945 113.2749
" />
<path d="M207.7945 113.2749
L207.7642 113.1842
" />
<path d="M207.7642 113.1842
L207.7642 113.1237
" />
<path d="M207.7642 113.1237
L207.7945 113.0330
" />
<path d="M207.7945 113.0330
L207.8550 112.9725
" />
<path d="M207.8550 112.9725
L207.9154 112.9423
" />
<path d="M207.9154 112.9423
L208.0364 112.9121
" />
<path d="M208.0364 112.9121
L208.1271 112.9121
" />
<path d="M208.1271 112.9121
L208.2481 112.9423
" />
<path d="M208.2481 112.9423
L208.3085 112.9725
" />
<path d="M208.3085 112.9725
L208.3690 113.0330
" />
<path d="M208.3690 113.0330
L208.3992 113.1237
" />
<path d="M208.3992 113.1237
L208.3992 113.1842
" />
<path d="M208.3992 113.1842
L208.3690 113.2749
" />
<path d="M208.3690 113.2749
L208.3388 113.3052
" />
<path d="M208.3388 113.5471
L208.3690 113.5773
" />
<path d="M208.3690 113.5773
L208.3992 113.6378
" />
<path d="M208.3992 113.6378
L208.3992 113.7890
" />
<path d="M208.3992 113.7890
L208.3690 113.8495
" />
<path d="M208.3690 113.8495
L208.3388 113.8797
" />
<path d="M208.3388 113.8797
L208.2783 113.9099
" />
<path d="M208.2783 113.9099
L208.2178 113.9099
" />
<path d="M208.2178 113.9099
L208.1271 113.8797
" />
<path d="M208.1271 113.8797
L207.7642 113.5168
" />
<path d="M207.7642 113.5168
L207.7642 113.9099
" />
</g><g transform="rotate(90.000000 199.3392 127.5842)">
<text x="199.3392" y="127.9017"
textLength="1.4938" font-size="0.8467" lengthAdjust="spacingAndGlyphs"
text-anchor="middle" opacity="0" stroke-opacity="0">R5</text>
</g>
<g class="stroked-text"><desc>R5</desc>
<path d="M199.0520 127.4784
L199.3544 127.2667
" />
<path d="M199.0520 127.1155
L199.6870 127.1155
" />
<path d="M199.6870 127.1155
L199.6870 127.3574
" />
<path d="M199.6870 127.3574
L199.6568 127.4179
" />
<path d="M199.6568 127.4179
L199.6266 127.4481
" />
<path d="M199.6266 127.4481
L199.5661 127.4784
" />
<path d="M199.5661 127.4784
L199.4754 127.4784
" />
<path d="M199.4754 127.4784
L199.4149 127.4481
" />
<path d="M199.4149 127.4481
L199.3847 127.4179
" />
<path d="M199.3847 127.4179
L199.3544 127.3574
" />
<path d="M199.3544 127.3574
L199.3544 127.1155
" />
<path d="M199.6870 128.0529
L199.6870 127.7505
" />
<path d="M199.6870 127.7505
L199.3847 127.7203
" />
<path d="M199.3847 127.7203
L199.4149 127.7505
" />
<path d="M199.4149 127.7505
L199.4451 127.8110
" />
<path d="M199.4451 127.8110
L199.4451 127.9622
" />
<path d="M199.4451 127.9622
L199.4149 128.0227
" />
<path d="M199.4149 128.0227
L199.3847 128.0529
" />
<path d="M199.3847 128.0529
L199.3242 128.0831
" />
<path d="M199.3242 128.0831
L199.1730 128.0831
" />
<path d="M199.1730 128.0831
L199.1125 128.0529
" />
<path d="M199.1125 128.0529
L199.0823 128.0227
" />
<path d="M199.0823 128.0227
L199.0520 127.9622
" />
<path d="M199.0520 127.9622
L199.0520 127.8110
" />
<path d="M199.0520 127.8110
L199.0823 127.7505
" />
<path d="M199.0823 127.7505
L199.1125 127.7203
" />
</g><text x="196.6214" y="134.6329"
textLength="1.4938" font-size="0.8467" lengthAdjust="spacingAndGlyphs"
text-anchor="middle" opacity="0" stroke-opacity="0">R6</text>
<g class="stroked-text"><desc>R6</desc>
<path d="M196.5156 134.6026
L196.3039 134.3002
" />
<path d="M196.1527 134.6026
L196.1527 133.9676
" />
<path d="M196.1527 133.9676
L196.3946 133.9676
" />
<path d="M196.3946 133.9676
L196.4551 133.9978
" />
<path d="M196.4551 133.9978
L196.4853 134.0280
" />
<path d="M196.4853 134.0280
L196.5156 134.0885
" />
<path d="M196.5156 134.0885
L196.5156 134.1792
" />
<path d="M196.5156 134.1792
L196.4853 134.2397
" />
<path d="M196.4853 134.2397
L196.4551 134.2699
" />
<path d="M196.4551 134.2699
L196.3946 134.3002
" />
<path d="M196.3946 134.3002
L196.1527 134.3002
" />
<path d="M197.0599 133.9676
L196.9389 133.9676
" />
<path d="M196.9389 133.9676
L196.8784 133.9978
" />
<path d="M196.8784 133.9978
L196.8482 134.0280
" />
<path d="M196.8482 134.0280
L196.7877 134.1187
" />
<path d="M196.7877 134.1187
L196.7575 134.2397
" />
<path d="M196.7575 134.2397
L196.7575 134.4816
" />
<path d="M196.7575 134.4816
L196.7877 134.5421
" />
<path d="M196.7877 134.5421
L196.8179 134.5723
" />
<path d="M196.8179 134.5723
L196.8784 134.6026
" />
<path d="M196.8784 134.6026
L196.9994 134.6026
" />
<path d="M196.9994 134.6026
L197.0599 134.5723
" />
<path d="M197.0599 134.5723
L197.0901 134.5421
" />
<path d="M197.0901 134.5421
L197.1203 134.4816
" />
<path d="M197.1203 134.4816
L197.1203 134.3304
" />
<path d="M197.1203 134.3304
L197.0901 134.2699
" />
<path d="M197.0901 134.2699
L197.0599 134.2397
" />
<path d="M197.0599 134.2397
L196.9994 134.2095
" />
<path d="M196.9994 134.2095
L196.8784 134.2095
" />
<path d="M196.8784 134.2095
L196.8179 134.2397
" />
<path d="M196.8179 134.2397
L196.7877 134.2699
" />
<path d="M196.7877 134.2699
L196.7575 134.3304
" />
</g><g transform="rotate(90.000000 194.7672 125.6030)">
<text x="194.7672" y="125.9205"
textLength="1.4938" font-size="0.8467" lengthAdjust="spacingAndGlyphs"
text-anchor="middle" opacity="0" stroke-opacity="0">R1</text>
</g>
<g class="stroked-text"><desc>R1</desc>
<path d="M194.4800 125.4972
L194.7824 125.2855
" />
<path d="M194.4800 125.1343
L195.1150 125.1343
" />
<path d="M195.1150 125.1343
L195.1150 125.3762
" />
<path d="M195.1150 125.3762
L195.0848 125.4367
" />
<path d="M195.0848 125.4367
L195.0546 125.4669
" />
<path d="M195.0546 125.4669
L194.9941 125.4972
" />
<path d="M194.9941 125.4972
L194.9034 125.4972
" />
<path d="M194.9034 125.4972
L194.8429 125.4669
" />
<path d="M194.8429 125.4669
L194.8127 125.4367
" />
<path d="M194.8127 125.4367
L194.7824 125.3762
" />
<path d="M194.7824 125.3762
L194.7824 125.1343
" />
<path d="M194.4800 126.1019
L194.4800 125.7391
" />
<path d="M194.4800 125.9205
L195.1150 125.9205
" />
<path d="M195.1150 125.9205
L195.0243 125.8600
" />
<path d="M195.0243 125.8600
L194.9639 125.7995
" />
<path d="M194.9639 125.7995
L194.9336 125.7391
" />
</g><g transform="rotate(90.000000 196.2912 125.6030)">
<text x="196.2912" y="125.9205"
textLength="1.4938" font-size="0.8467" lengthAdjust="spacingAndGlyphs"
text-anchor="middle" opacity="0" stroke-opacity="0">R2</text>
</g>
<g class="stroked-text"><desc>R2</desc>
<path d="M196.0040 125.4972
L196.3064 125.2855
" />
<path d="M196.0040 125.1343
L196.6390 125.1343
" />
<path d="M196.6390 125.1343
L196.6390 125.3762
" />
<path d="M196.6390 125.3762
L196.6088 125.4367
" />
<path d="M196.6088 125.4367
L196.5786 125.4669
" />
<path d="M196.5786 125.4669
L196.5181 125.4972
" />
<path d="M196.5181 125.4972
L196.4274 125.4972
" />
<path d="M196.4274 125.4972
L196.3669 125.4669
" />
<path d="M196.3669 125.4669
L196.3367 125.4367
" />
<path d="M196.3367 125.4367
L196.3064 125.3762
" />
<path d="M196.3064 125.3762
L196.3064 125.1343
" />
<path d="M196.5786 125.7391
L196.6088 125.7693
" />
<path d="M196.6088 125.7693
L196.6390 125.8298
" />
<path d="M196.6390 125.8298
L196.6390 125.9810
" />
<path d="M196.6390 125.9810
L196.6088 126.0415
" />
<path d="M196.6088 126.0415
L196.5786 126.0717
" />
<path d="M196.5786 126.0717
L196.5181 126.1019
" />
<path d="M196.5181 126.1019
L196.4576 126.1019
" />
<path d="M196.4576 126.1019
L196.3669 126.0717
" />
<path d="M196.3669 126.0717
L196.0040 125.7088
" />
<path d="M196.0040 125.7088
L196.0040 126.1019
" />
</g><g transform="rotate(90.000000 204.3684 113.4110)">
<text x="204.3684" y="113.7285"
textLength="1.4938" font-size="0.8467" lengthAdjust="spacingAndGlyphs"
text-anchor="middle" opacity="0" stroke-opacity="0">C1</text>
</g>
<g class="stroked-text"><desc>C1</desc>
<path d="M204.1417 113.3052
L204.1115 113.2749
" />
<path d="M204.1115 113.2749
L204.0812 113.1842
" />
<path d="M204.0812 113.1842
L204.0812 113.1237
" />
<path d="M204.0812 113.1237
L204.1115 113.0330
" />
<path d="M204.1115 113.0330
L204.1720 112.9725
" />
<path d="M204.1720 112.9725
L204.2324 112.9423
" />
<path d="M204.2324 112.9423
L204.3534 112.9121
" />
<path d="M204.3534 112.9121
L204.4441 112.9121
" />
<path d="M204.4441 112.9121
L204.5651 112.9423
" />
<path d="M204.5651 112.9423
L204.6255 112.9725
" />
<path d="M204.6255 112.9725
L204.6860 113.0330
" />
<path d="M204.6860 113.0330
L204.7162 113.1237
" />
<path d="M204.7162 113.1237
L204.7162 113.1842
" />
<path d="M204.7162 113.1842
L204.6860 113.2749
" />
<path d="M204.6860 113.2749
L204.6558 113.3052
" />
<path d="M204.0812 113.9099
L204.0812 113.5471
" />
<path d="M204.0812 113.7285
L204.7162 113.7285
" />
<path d="M204.7162 113.7285
L204.6255 113.6680
" />
<path d="M204.6255 113.6680
L204.5651 113.6075
" />
<path d="M204.5651 113.6075
L204.5348 113.5471
" />
</g><text x="201.2696" y="121.5517"
textLength="1.5240" font-size="0.8467" lengthAdjust="spacingAndGlyphs"
text-anchor="middle" opacity="0" stroke-opacity="0">U2</text>
<g class="stroked-text"><desc>U2</desc>
<path d="M200.7858 120.8864
L200.7858 121.4004
" />
<path d="M200.7858 121.4004
L200.8160 121.4609
" />
<path d="M200.8160 121.4609
L200.8463 121.4911
" />
<path d="M200.8463 121.4911
L200.9067 121.5214
" />
<path d="M200.9067 121.5214
L201.0277 121.5214
" />
<path d="M201.0277 121.5214
L201.0882 121.4911
" />
<path d="M201.0882 121.4911
L201.1184 121.4609
" />
<path d="M201.1184 121.4609
L201.1486 121.4004
" />
<path d="M201.1486 121.4004
L201.1486 120.8864
" />
<path d="M201.4208 120.9468
L201.4510 120.9166
" />
<path d="M201.4510 120.9166
L201.5115 120.8864
" />
<path d="M201.5115 120.8864
L201.6627 120.8864
" />
<path d="M201.6627 120.8864
L201.7232 120.9166
" />
<path d="M201.7232 120.9166
L201.7534 120.9468
" />
<path d="M201.7534 120.9468
L201.7836 121.0073
" />
<path d="M201.7836 121.0073
L201.7836 121.0678
" />
<path d="M201.7836 121.0678
L201.7534 121.1585
" />
<path d="M201.7534 121.1585
L201.3906 121.5214
" />
<path d="M201.3906 121.5214
L201.7836 121.5214
" />
</g><g transform="rotate(90.000000 197.9168 127.5842)">
<text x="197.9168" y="127.9017"
textLength="1.4938" font-size="0.8467" lengthAdjust="spacingAndGlyphs"
text-anchor="middle" opacity="0" stroke-opacity="0">R4</text>
</g>
<g class="stroked-text"><desc>R4</desc>
<path d="M197.6296 127.4784
L197.9320 127.2667
" />
<path d="M197.6296 127.1155
L198.2646 127.1155
" />
<path d="M198.2646 127.1155
L198.2646 127.3574
" />
<path d="M198.2646 127.3574
L198.2344 127.4179
" />
<path d="M198.2344 127.4179
L198.2042 127.4481
" />
<path d="M198.2042 127.4481
L198.1437 127.4784
" />
<path d="M198.1437 127.4784
L198.0530 127.4784
" />
<path d="M198.0530 127.4784
L197.9925 127.4481
" />
<path d="M197.9925 127.4481
L197.9623 127.4179
" />
<path d="M197.9623 127.4179
L197.9320 127.3574
" />
<path d="M197.9320 127.3574
L197.9320 127.1155
" />
<path d="M198.0530 128.0227
L197.6296 128.0227
" />
<path d="M198.2949 127.8715
L197.8413 127.7203
" />
<path d="M197.8413 127.7203
L197.8413 128.1134
" />
</g><text x="196.6214" y="136.2075"
textLength="1.4938" font-size="0.8467" lengthAdjust="spacingAndGlyphs"
text-anchor="middle" opacity="0" stroke-opacity="0">R7</text>
<g class="stroked-text"><desc>R7</desc>
<path d="M196.5156 136.1772
L196.3039 135.8748
" />
<path d="M196.1527 136.1772
L196.1527 135.5422
" />
<path d="M196.1527 135.5422
L196.3946 135.5422
" />
<path d="M196.3946 135.5422
L196.4551 135.5724
" />
<path d="M196.4551 135.5724
L196.4853 135.6026
" />
<path d="M196.4853 135.6026
L196.5156 135.6631
" />
<path d="M196.5156 135.6631
L196.5156 135.7538
" />
<path d="M196.5156 135.7538
L196.4853 135.8143
" />
<path d="M196.4853 135.8143
L196.4551 135.8445
" />
<path d="M196.4551 135.8445
L196.3946 135.8748
" />
<path d="M196.3946 135.8748
L196.1527 135.8748
" />
<path d="M196.7272 135.5422
L197.1506 135.5422
" />
<path d="M197.1506 135.5422
L196.8784 136.1772
" />
</g></g>
<g style="fill:none; 
stroke:#000000; stroke-width:0.1200; stroke-opacity:1; 
stroke-linecap:round; stroke-linejoin:round;">
<path d="M205.6725 123.3025
L205.1979 123.3025
" />
<path d="M205.6725 124.3475
L205.1979 124.3475
" />
<path d="M198.3252 123.4304
L198.3252 123.7116
" />
<path d="M197.3052 123.4304
L197.3052 123.7116
" />
<path d="M206.5000 113.5516
L206.5000 113.2704
" />
<path d="M207.5200 113.5516
L207.5200 113.2704
" />
<path d="M199.8617 129.9043
L199.8617 129.4297
" />
<path d="M198.8167 129.9043
L198.8167 129.4297
" />
<path d="M194.8267 133.7675
L194.3521 133.7675
" />
<path d="M194.8267 134.8125
L194.3521 134.8125
" />
<path d="M195.2897 123.8083
L195.2897 123.3337
" />
<path d="M194.2447 123.8083
L194.2447 123.3337
" />
<path d="M196.8137 123.8083
L196.8137 123.3337
" />
<path d="M195.7687 123.8083
L195.7687 123.3337
" />
<path d="M204.9760 113.5516
L204.9760 113.2704
" />
<path d="M205.9960 113.5516
L205.9960 113.2704
" />
<path d="M202.8542 121.9610
L202.3792 121.9610
" />
<path d="M202.8542 122.4360
L202.8542 121.9610
" />
<path d="M202.8542 124.9410
L202.8542 124.7060
" />
<path d="M202.5542 125.1810
L202.3792 125.1810
" />
<path d="M199.6342 121.9610
L200.1092 121.9610
" />
<path d="M199.6342 122.4360
L199.6342 121.9610
" />
<path d="M199.6342 124.7060
L199.6342 125.1810
" />
<path d="M199.6342 125.1810
L200.1092 125.1810
" />
<path style="fill:#000000; fill-opacity:1.0000; 
stroke:#000000; stroke-width:0.1200; stroke-opacity:1; 
stroke-linecap:round; stroke-linejoin:round;fill-rule:evenodd;"
d="M 202.6142,125.5110
203.0942,125.5110
202.8542,125.1810
Z" /> 
</g>
<g style="fill:none; 
stroke:#000000; stroke-width:0.1200; stroke-opacity:1; 
stroke-linecap:round; stroke-linejoin:round;">
<path d="M198.3377 129.9043
L198.3377 129.4297
" />
<path d="M197.2927 129.9043
L197.2927 129.4297
" />
<path d="M194.8267 135.3675
L194.3521 135.3675
" />
<path d="M194.8267 136.4125
L194.3521 136.4125
" />
</g>
<g style="fill:none; 
stroke:#000000; stroke-width:3.1750; stroke-opacity:1; 
stroke-linecap:round; stroke-linejoin:round;">
<path d="M193.7550 111.0887
L193.4934 110.6533
" />
</g>
<g style="fill:#000000; fill-opacity:1.0000; stroke:none;">
<circle cx="201.2442" cy="110.8710" r="1.5875" /> 
</g>
<g style="fill:#000000; fill-opacity:1.0000; stroke:none;">
<circle cx="208.8642" cy="136.2710" r="1.5875" /> 
</g>
<g style="fill:#000000; fill-opacity:1.0000; stroke:none;">
<circle cx="210.3882" cy="117.2210" r="0.5000" /> 
</g>
<g style="fill:#000000; fill-opacity:1.0000; stroke:none;">
<circle cx="210.3882" cy="119.7610" r="0.5000" /> 
</g>
<g style="fill:#000000; fill-opacity:1.0000; stroke:none;">
<circle cx="210.3882" cy="122.3010" r="0.5000" /> 
</g>
<g style="fill:#000000; fill-opacity:1.0000; stroke:none;">
<circle cx="210.3882" cy="124.8410" r="0.5000" /> 
</g>
<g style="fill:#000000; fill-opacity:1.0000; stroke:none;">
<circle cx="210.3882" cy="127.3810" r="0.5000" /> 
</g>
<g style="fill:#000000; fill-opacity:1.0000; stroke:none;">
<circle cx="210.3882" cy="129.9210" r="0.5000" /> 
</g>
<g style="fill:#000000; fill-opacity:1.0000; stroke:none;">
<circle cx="201.2442" cy="136.2710" r="1.5875" /> 
</g>
<g style="fill:#000000; fill-opacity:1.0000; stroke:none;">
<circle cx="194.6222" cy="130.0510" r="1.7000" /> 
</g>
<g style="fill:#000000; fill-opacity:1.0000; stroke:none;">
<circle cx="194.6222" cy="117.0910" r="1.7000" /> 
</g>
<g style="fill:none; 
stroke:#000000; stroke-width:4.4450; stroke-opacity:1; 
stroke-linecap:round; stroke-linejoin:round;">
<path d="M193.7550 111.0887
L193.4934 110.6533
" />
</g>
<g style="fill:#000000; fill-opacity:1.0000; stroke:none;">
<circle cx="201.2442" cy="110.8710" r="2.5400" /> 
</g>
<g style="fill:#000000; fill-opacity:1.0000; stroke:none;">
<circle cx="208.8642" cy="136.2710" r="2.2225" /> 
<path style="fill:#000000; fill-opacity:1.0000; stroke:none;fill-rule:evenodd;"
d="M 211.2382,118.0710
211.2382,116.3710
209.5382,116.3710
209.5382,118.0710
Z" /> 
</g>
<g style="fill:#000000; fill-opacity:1.0000; stroke:none;">
<circle cx="210.3882" cy="119.7610" r="0.8500" /> 
<circle cx="210.3882" cy="122.3010" r="0.8500" /> 
<circle cx="210.3882" cy="124.8410" r="0.8500" /> 
<circle cx="210.3882" cy="127.3810" r="0.8500" /> 
<circle cx="210.3882" cy="129.9210" r="0.8500" /> 
<circle cx="201.2442" cy="136.2710" r="2.5400" /> 
<path style="fill:#000000; fill-opacity:1.0000; stroke:none;fill-rule:evenodd;"
d="M 204.2102,124.1000
204.2254,124.1765
204.2688,124.2414
204.3337,124.2848
204.4102,124.3000
204.8102,124.3000
204.8867,124.2848
204.9516,124.2414
204.9950,124.1765
205.0102,124.1000
205.0102,123.5500
204.9950,123.4735
204.9516,123.4086
204.8867,123.3652
204.8102,123.3500
204.4102,123.3500
204.3337,123.3652
204.2688,123.4086
204.2254,123.4735
204.2102,123.5500
Z" /> 
<path style="fill:#000000; fill-opacity:1.0000; stroke:none;fill-rule:evenodd;"
d="M 205.8602,124.1000
205.8754,124.1765
205.9188,124.2414
205.9837,124.2848
206.0602,124.3000
206.4602,124.3000
206.5367,124.2848
206.6016,124.2414
206.6450,124.1765
206.6602,124.1000
206.6602,123.5500
206.6450,123.4735
206.6016,123.4086
206.5367,123.3652
206.4602,123.3500
206.0602,123.3500
205.9837,123.3652
205.9188,123.4086
205.8754,123.4735
205.8602,123.5500
Z" /> 
<path style="fill:#000000; fill-opacity:1.0000; stroke:none;fill-rule:evenodd;"
d="M 198.0652,124.7960
198.1513,124.7789
198.2243,124.7301
198.2731,124.6571
198.2902,124.5710
198.2902,124.1210
198.2731,124.0349
198.2243,123.9619
198.1513,123.9131
198.0652,123.8960
197.5652,123.8960
197.4791,123.9131
197.4061,123.9619
197.3573,124.0349
197.3402,124.1210
197.3402,124.5710
197.3573,124.6571
197.4061,124.7301
197.4791,124.7789
197.5652,124.7960
Z" /> 
<path style="fill:#000000; fill-opacity:1.0000; stroke:none;fill-rule:evenodd;"
d="M 198.0652,123.2460
198.1513,123.2289
198.2243,123.1801
198.2731,123.1071
198.2902,123.0210
198.2902,122.5710
198.2731,122.4849
198.2243,122.4119
198.1513,122.3631
198.0652,122.3460
197.5652,122.3460
197.4791,122.3631
197.4061,122.4119
197.3573,122.4849
197.3402,122.5710
197.3402,123.0210
197.3573,123.1071
197.4061,123.1801
197.4791,123.2289
197.5652,123.2460
Z" /> 
<path style="fill:#000000; fill-opacity:1.0000; stroke:none;fill-rule:evenodd;"
d="M 206.7600,113.7360
206.6739,113.7531
206.6009,113.8019
206.5521,113.8749
206.5350,113.9610
206.5350,114.4110
206.5521,114.4971
206.6009,114.5701
206.6739,114.6189
206.7600,114.6360
207.2600,114.6360
207.3461,114.6189
207.4191,114.5701
207.4679,114.4971
207.4850,114.4110
207.4850,113.9610
207.4679,113.8749
207.4191,113.8019
207.3461,113.7531
207.2600,113.7360
Z" /> 
<path style="fill:#000000; fill-opacity:1.0000; stroke:none;fill-rule:evenodd;"
d="M 206.7600,112.1860
206.6739,112.2031
206.6009,112.2519
206.5521,112.3249
206.5350,112.4110
206.5350,112.8610
206.5521,112.9471
206.6009,113.0201
206.6739,113.0689
206.7600,113.0860
207.2600,113.0860
207.3461,113.0689
207.4191,113.0201
207.4679,112.9471
207.4850,112.8610
207.4850,112.4110
207.4679,112.3249
207.4191,112.2519
207.3461,112.2031
207.2600,112.1860
Z" /> 
<path style="fill:#000000; fill-opacity:1.0000; stroke:none;fill-rule:evenodd;"
d="M 199.0642,128.4420
198.9877,128.4572
198.9228,128.5006
198.8794,128.5655
198.8642,128.6420
198.8642,129.0420
198.8794,129.1185
198.9228,129.1834
198.9877,129.2268
199.0642,129.2420
199.6142,129.2420
199.6907,129.2268
199.7556,129.1834
199.7990,129.1185
199.8142,129.0420
199.8142,128.6420
199.7990,128.5655
199.7556,128.5006
199.6907,128.4572
199.6142,128.4420
Z" /> 
<path style="fill:#000000; fill-opacity:1.0000; stroke:none;fill-rule:evenodd;"
d="M 199.0642,130.0920
198.9877,130.1072
198.9228,130.1506
198.8794,130.2155
198.8642,130.2920
198.8642,130.6920
198.8794,130.7685
198.9228,130.8334
198.9877,130.8768
199.0642,130.8920
199.6142,130.8920
199.6907,130.8768
199.7556,130.8334
199.7990,130.7685
199.8142,130.6920
199.8142,130.2920
199.7990,130.2155
199.7556,130.1506
199.6907,130.1072
199.6142,130.0920
Z" /> 
<path style="fill:#000000; fill-opacity:1.0000; stroke:none;fill-rule:evenodd;"
d="M 193.3644,134.5650
193.3796,134.6415
193.4230,134.7064
193.4879,134.7498
193.5644,134.7650
193.9644,134.7650
194.0409,134.7498
194.1058,134.7064
194.1492,134.6415
194.1644,134.5650
194.1644,134.0150
194.1492,133.9385
194.1058,133.8736
194.0409,133.8302
193.9644,133.8150
193.5644,133.8150
193.4879,133.8302
193.4230,133.8736
193.3796,133.9385
193.3644,134.0150
Z" /> 
<path style="fill:#000000; fill-opacity:1.0000; stroke:none;fill-rule:evenodd;"
d="M 195.0144,134.5650
195.0296,134.6415
195.0730,134.7064
195.1379,134.7498
195.2144,134.7650
195.6144,134.7650
195.6909,134.7498
195.7558,134.7064
195.7992,134.6415
195.8144,134.5650
195.8144,134.0150
195.7992,133.9385
195.7558,133.8736
195.6909,133.8302
195.6144,133.8150
195.2144,133.8150
195.1379,133.8302
195.0730,133.8736
195.0296,133.9385
195.0144,134.0150
Z" /> 
<path style="fill:#000000; fill-opacity:1.0000; stroke:none;fill-rule:evenodd;"
d="M 194.4922,122.3460
194.4157,122.3612
194.3508,122.4046
194.3074,122.4695
194.2922,122.5460
194.2922,122.9460
194.3074,123.0225
194.3508,123.0874
194.4157,123.1308
194.4922,123.1460
195.0422,123.1460
195.1187,123.1308
195.1836,123.0874
195.2270,123.0225
195.2422,122.9460
195.2422,122.5460
195.2270,122.4695
195.1836,122.4046
195.1187,122.3612
195.0422,122.3460
Z" /> 
<path style="fill:#000000; fill-opacity:1.0000; stroke:none;fill-rule:evenodd;"
d="M 194.4922,123.9960
194.4157,124.0112
194.3508,124.0546
194.3074,124.1195
194.2922,124.1960
194.2922,124.5960
194.3074,124.6725
194.3508,124.7374
194.4157,124.7808
194.4922,124.7960
195.0422,124.7960
195.1187,124.7808
195.1836,124.7374
195.2270,124.6725
195.2422,124.5960
195.2422,124.1960
195.2270,124.1195
195.1836,124.0546
195.1187,124.0112
195.0422,123.9960
Z" /> 
<path style="fill:#000000; fill-opacity:1.0000; stroke:none;fill-rule:evenodd;"
d="M 196.0162,122.3460
195.9397,122.3612
195.8748,122.4046
195.8314,122.4695
195.8162,122.5460
195.8162,122.9460
195.8314,123.0225
195.8748,123.0874
195.9397,123.1308
196.0162,123.1460
196.5662,123.1460
196.6427,123.1308
196.7076,123.0874
196.7510,123.0225
196.7662,122.9460
196.7662,122.5460
196.7510,122.4695
196.7076,122.4046
196.6427,122.3612
196.5662,122.3460
Z" /> 
<path style="fill:#000000; fill-opacity:1.0000; stroke:none;fill-rule:evenodd;"
d="M 196.0162,123.9960
195.9397,124.0112
195.8748,124.0546
195.8314,124.1195
195.8162,124.1960
195.8162,124.5960
195.8314,124.6725
195.8748,124.7374
195.9397,124.7808
196.0162,124.7960
196.5662,124.7960
196.6427,124.7808
196.7076,124.7374
196.7510,124.6725
196.7662,124.5960
196.7662,124.1960
196.7510,124.1195
196.7076,124.0546
196.6427,124.0112
196.5662,123.9960
Z" /> 
<path style="fill:#000000; fill-opacity:1.0000; stroke:none;fill-rule:evenodd;"
d="M 205.2360,113.7360
205.1499,113.7531
205.0769,113.8019
205.0281,113.8749
205.0110,113.9610
205.0110,114.4110
205.0281,114.4971
205.0769,114.5701
205.1499,114.6189
205.2360,114.6360
205.7360,114.6360
205.8221,114.6189
205.8951,114.5701
205.9439,114.4971
205.9610,114.4110
205.9610,113.9610
205.9439,113.8749
205.8951,113.8019
205.8221,113.7531
205.7360,113.7360
Z" /> 
<path style="fill:#000000; fill-opacity:1.0000; stroke:none;fill-rule:evenodd;"
d="M 205.2360,112.1860
205.1499,112.2031
205.0769,112.2519
205.0281,112.3249
205.0110,112.4110
205.0110,112.8610
205.0281,112.9471
205.0769,113.0201
205.1499,113.0689
205.2360,113.0860
205.7360,113.0860
205.8221,113.0689
205.8951,113.0201
205.9439,112.9471
205.9610,112.8610
205.9610,112.4110
205.9439,112.3249
205.8951,112.2519
205.8221,112.2031
205.7360,112.1860
Z" /> 
<path style="fill:#000000; fill-opacity:1.0000; stroke:none;fill-rule:evenodd;"
d="M 203.0442,124.2465
203.0394,124.2226
203.0259,124.2023
203.0056,124.1888
202.9817,124.1840
202.4067,124.1840
202.3828,124.1888
202.3625,124.2023
202.3490,124.2226
202.3442,124.2465
202.3442,124.3715
202.3490,124.3954
202.3625,124.4157
202.3828,124.4292
202.4067,124.4340
202.9817,124.4340
203.0056,124.4292
203.0259,124.4157
203.0394,124.3954
203.0442,124.3715
Z" /> 
<path style="fill:#000000; fill-opacity:1.0000; stroke:none;fill-rule:evenodd;"
d="M 203.0442,123.7465
203.0394,123.7226
203.0259,123.7023
203.0056,123.6888
202.9817,123.6840
202.4067,123.6840
202.3828,123.6888
202.3625,123.7023
202.3490,123.7226
202.3442,123.7465
202.3442,123.8715
202.3490,123.8954
202.3625,123.9157
202.3828,123.9292
202.4067,123.9340
202.9817,123.9340
203.0056,123.9292
203.0259,123.9157
203.0394,123.8954
203.0442,123.8715
Z" /> 
<path style="fill:#000000; fill-opacity:1.0000; stroke:none;fill-rule:evenodd;"
d="M 203.0442,123.2465
203.0394,123.2226
203.0259,123.2023
203.0056,123.1888
202.9817,123.1840
202.4067,123.1840
202.3828,123.1888
202.3625,123.2023
202.3490,123.2226
202.3442,123.2465
202.3442,123.3715
202.3490,123.3954
202.3625,123.4157
202.3828,123.4292
202.4067,123.4340
202.9817,123.4340
203.0056,123.4292
203.0259,123.4157
203.0394,123.3954
203.0442,123.3715
Z" /> 
<path style="fill:#000000; fill-opacity:1.0000; stroke:none;fill-rule:evenodd;"
d="M 203.0442,122.7465
203.0394,122.7226
203.0259,122.7023
203.0056,122.6888
202.9817,122.6840
202.4067,122.6840
202.3828,122.6888
202.3625,122.7023
202.3490,122.7226
202.3442,122.7465
202.3442,122.8715
202.3490,122.8954
202.3625,122.9157
202.3828,122.9292
202.4067,122.9340
202.9817,122.9340
203.0056,122.9292
203.0259,122.9157
203.0394,122.8954
203.0442,122.8715
Z" /> 
<path style="fill:#000000; fill-opacity:1.0000; stroke:none;fill-rule:evenodd;"
d="M 202.1192,121.8335
202.1144,121.8096
202.1009,121.7893
202.0806,121.7758
202.0567,121.7710
201.9317,121.7710
201.9078,121.7758
201.8875,121.7893
201.8740,121.8096
201.8692,121.8335
201.8692,122.4085
201.8740,122.4324
201.8875,122.4527
201.9078,122.4662
201.9317,122.4710
202.0567,122.4710
202.0806,122.4662
202.1009,122.4527
202.1144,122.4324
202.1192,122.4085
Z" /> 
<path style="fill:#000000; fill-opacity:1.0000; stroke:none;fill-rule:evenodd;"
d="M 201.6192,121.8335
201.6144,121.8096
201.6009,121.7893
201.5806,121.7758
201.5567,121.7710
201.4317,121.7710
201.4078,121.7758
201.3875,121.7893
201.3740,121.8096
201.3692,121.8335
201.3692,122.4085
201.3740,122.4324
201.3875,122.4527
201.4078,122.4662
201.4317,122.4710
201.5567,122.4710
201.5806,122.4662
201.6009,122.4527
201.6144,122.4324
201.6192,122.4085
Z" /> 
<path style="fill:#000000; fill-opacity:1.0000; stroke:none;fill-rule:evenodd;"
d="M 201.1192,121.8335
201.1144,121.8096
201.1009,121.7893
201.0806,121.7758
201.0567,121.7710
200.9317,121.7710
200.9078,121.7758
200.8875,121.7893
200.8740,121.8096
200.8692,121.8335
200.8692,122.4085
200.8740,122.4324
200.8875,122.4527
200.9078,122.4662
200.9317,122.4710
201.0567,122.4710
201.0806,122.4662
201.1009,122.4527
201.1144,122.4324
201.1192,122.4085
Z" /> 
<path style="fill:#000000; fill-opacity:1.0000; stroke:none;fill-rule:evenodd;"
d="M 200.6192,121.8335
200.6144,121.8096
200.6009,121.7893
200.5806,121.7758
200.5567,121.7710
200.4317,121.7710
200.4078,121.7758
200.3875,121.7893
200.3740,121.8096
200.3692,121.8335
200.3692,122.4085
200.3740,122.4324
200.3875,122.4527
200.4078,122.4662
200.4317,122.4710
200.5567,122.4710
200.5806,122.4662
200.6009,122.4527
200.6144,122.4324
200.6192,122.4085
Z" /> 
<path style="fill:#000000; fill-opacity:1.0000; stroke:none;fill-rule:evenodd;"
d="M 200.1442,122.7585
200.1394,122.7346
200.1259,122.7143
200.1056,122.7008
200.0817,122.6960
199.5067,122.6960
199.4828,122.7008
199.4625,122.7143
199.4490,122.7346
199.4442,122.7585
199.4442,122.8835
199.4490,122.9074
199.4625,122.9277
199.4828,122.9412
199.5067,122.9460
200.0817,122.9460
200.1056,122.9412
200.1259,122.9277
200.1394,122.9074
200.1442,122.8835
Z" /> 
<path style="fill:#000000; fill-opacity:1.0000; stroke:none;fill-rule:evenodd;"
d="M 200.1442,123.2585
200.1394,123.2346
200.1259,123.2143
200.1056,123.2008
200.0817,123.1960
199.5067,123.1960
199.4828,123.2008
199.4625,123.2143
199.4490,123.2346
199.4442,123.2585
199.4442,123.3835
199.4490,123.4074
199.4625,123.4277
199.4828,123.4412
199.5067,123.4460
200.0817,123.4460
200.1056,123.4412
200.1259,123.4277
200.1394,123.4074
200.1442,123.3835
Z" /> 
<path style="fill:#000000; fill-opacity:1.0000; stroke:none;fill-rule:evenodd;"
d="M 200.1442,123.7585
200.1394,123.7346
200.1259,123.7143
200.1056,123.7008
200.0817,123.6960
199.5067,123.6960
199.4828,123.7008
199.4625,123.7143
199.4490,123.7346
199.4442,123.7585
199.4442,123.8835
199.4490,123.9074
199.4625,123.9277
199.4828,123.9412
199.5067,123.9460
200.0817,123.9460
200.1056,123.9412
200.1259,123.9277
200.1394,123.9074
200.1442,123.8835
Z" /> 
<path style="fill:#000000; fill-opacity:1.0000; stroke:none;fill-rule:evenodd;"
d="M 200.1442,124.2585
200.1394,124.2346
200.1259,124.2143
200.1056,124.2008
200.0817,124.1960
199.5067,124.1960
199.4828,124.2008
199.4625,124.2143
199.4490,124.2346
199.4442,124.2585
199.4442,124.3835
199.4490,124.4074
199.4625,124.4277
199.4828,124.4412
199.5067,124.4460
200.0817,124.4460
200.1056,124.4412
200.1259,124.4277
200.1394,124.4074
200.1442,124.3835
Z" /> 
<path style="fill:#000000; fill-opacity:1.0000; stroke:none;fill-rule:evenodd;"
d="M 200.6192,124.7335
200.6144,124.7096
200.6009,124.6893
200.5806,124.6758
200.5567,124.6710
200.4317,124.6710
200.4078,124.6758
200.3875,124.6893
200.3740,124.7096
200.3692,124.7335
200.3692,125.3085
200.3740,125.3324
200.3875,125.3527
200.4078,125.3662
200.4317,125.3710
200.5567,125.3710
200.5806,125.3662
200.6009,125.3527
200.6144,125.3324
200.6192,125.3085
Z" /> 
<path style="fill:#000000; fill-opacity:1.0000; stroke:none;fill-rule:evenodd;"
d="M 201.1192,124.7335
201.1144,124.7096
201.1009,124.6893
201.0806,124.6758
201.0567,124.6710
200.9317,124.6710
200.9078,124.6758
200.8875,124.6893
200.8740,124.7096
200.8692,124.7335
200.8692,125.3085
200.8740,125.3324
200.8875,125.3527
200.9078,125.3662
200.9317,125.3710
201.0567,125.3710
201.0806,125.3662
201.1009,125.3527
201.1144,125.3324
201.1192,125.3085
Z" /> 
<path style="fill:#000000; fill-opacity:1.0000; stroke:none;fill-rule:evenodd;"
d="M 201.6192,124.7335
201.6144,124.7096
201.6009,124.6893
201.5806,124.6758
201.5567,124.6710
201.4317,124.6710
201.4078,124.6758
201.3875,124.6893
201.3740,124.7096
201.3692,124.7335
201.3692,125.3085
201.3740,125.3324
201.3875,125.3527
201.4078,125.3662
201.4317,125.3710
201.5567,125.3710
201.5806,125.3662
201.6009,125.3527
201.6144,125.3324
201.6192,125.3085
Z" /> 
<path style="fill:#000000; fill-opacity:1.0000; stroke:none;fill-rule:evenodd;"
d="M 202.1192,124.7335
202.1144,124.7096
202.1009,124.6893
202.0806,124.6758
202.0567,124.6710
201.9317,124.6710
201.9078,124.6758
201.8875,124.6893
201.8740,124.7096
201.8692,124.7335
201.8692,125.3085
201.8740,125.3324
201.8875,125.3527
201.9078,125.3662
201.9317,125.3710
202.0567,125.3710
202.0806,125.3662
202.1009,125.3527
202.1144,125.3324
202.1192,125.3085
Z" /> 
<path style="fill:#000000; fill-opacity:1.0000; stroke:none;fill-rule:evenodd;"
d="M 202.0942,124.4210
202.0942,122.7210
200.3942,122.7210
200.3942,124.4210
Z" /> 
<path style="fill:#000000; fill-opacity:1.0000; stroke:none;fill-rule:evenodd;"
d="M 197.5402,128.4420
197.4637,128.4572
197.3988,128.5006
197.3554,128.5655
197.3402,128.6420
197.3402,129.0420
197.3554,129.1185
197.3988,129.1834
197.4637,129.2268
197.5402,129.2420
198.0902,129.2420
198.1667,129.2268
198.2316,129.1834
198.2750,129.1185
198.2902,129.0420
198.2902,128.6420
198.2750,128.5655
198.2316,128.5006
198.1667,128.4572
198.0902,128.4420
Z" /> 
<path style="fill:#000000; fill-opacity:1.0000; stroke:none;fill-rule:evenodd;"
d="M 197.5402,130.0920
197.4637,130.1072
197.3988,130.1506
197.3554,130.2155
197.3402,130.2920
197.3402,130.6920
197.3554,130.7685
197.3988,130.8334
197.4637,130.8768
197.5402,130.8920
198.0902,130.8920
198.1667,130.8768
198.2316,130.8334
198.2750,130.7685
198.2902,130.6920
198.2902,130.2920
198.2750,130.2155
198.2316,130.1506
198.1667,130.1072
198.0902,130.0920
Z" /> 
<path style="fill:#000000; fill-opacity:1.0000; stroke:none;fill-rule:evenodd;"
d="M 193.3644,136.1650
193.3796,136.2415
193.4230,136.3064
193.4879,136.3498
193.5644,136.3650
193.9644,136.3650
194.0409,136.3498
194.1058,136.3064
194.1492,136.2415
194.1644,136.1650
194.1644,135.6150
194.1492,135.5385
194.1058,135.4736
194.0409,135.4302
193.9644,135.4150
193.5644,135.4150
193.4879,135.4302
193.4230,135.4736
193.3796,135.5385
193.3644,135.6150
Z" /> 
<path style="fill:#000000; fill-opacity:1.0000; stroke:none;fill-rule:evenodd;"
d="M 195.0144,136.1650
195.0296,136.2415
195.0730,136.3064
195.1379,136.3498
195.2144,136.3650
195.6144,136.3650
195.6909,136.3498
195.7558,136.3064
195.7992,136.2415
195.8144,136.1650
195.8144,135.6150
195.7992,135.5385
195.7558,135.4736
195.6909,135.4302
195.6144,135.4150
195.2144,135.4150
195.1379,135.4302
195.0730,135.4736
195.0296,135.5385
195.0144,135.6150
Z" /> 
</g>
<g style="fill:#000000; fill-opacity:1.0000; stroke:none;">
<circle cx="194.6222" cy="130.0510" r="1.7000" /> 
</g>
<g style="fill:#000000; fill-opacity:1.0000; stroke:none;">
<circle cx="194.6222" cy="117.0910" r="1.7000" /> 
</g>
<g style="fill:none; 
stroke:#000000; stroke-width:0.0500; stroke-opacity:1; 
stroke-linecap:round; stroke-linejoin:round;">
<path d="M212.1662 108.9660 A1.2700 1.2700 0.0 0 0 210.8962 107.6960" />
<path d="M190.3222 138.1760 A1.2700 1.2700 0.0 0 0 191.5922 139.4460" />
<path d="M212.1662 108.9660
L212.1662 138.1760
" />
<path d="M190.3222 138.1760
L190.3222 108.9660
" />
<path d="M191.5922 107.6960
L210.8962 107.6960
" />
<path d="M210.8962 139.4460 A1.2700 1.2700 0.0 0 0 212.1662 138.1760" />
<path d="M210.8962 139.4460
L191.5922 139.4460
" />
<path d="M191.5922 107.6960 A1.2700 1.2700 0.0 0 0 190.3222 108.9660" />
</g>
<g style="fill:none; 
stroke:#000000; stroke-width:3.1750; stroke-opacity:1; 
stroke-linecap:round; stroke-linejoin:round;">
<path d="M193.7550 111.0887
L193.4934 110.6533
" />
</g>
<g style="fill:#000000; fill-opacity:1.0000; stroke:none;">
<circle cx="201.2442" cy="110.8710" r="1.5875" /> 
</g>
<g style="fill:#000000; fill-opacity:1.0000; stroke:none;">
<circle cx="208.8642" cy="136.2710" r="1.5875" /> 
</g>
<g style="fill:#000000; fill-opacity:1.0000; stroke:none;">
<circle cx="210.3882" cy="117.2210" r="0.5000" /> 
</g>
<g style="fill:#000000; fill-opacity:1.0000; stroke:none;">
<circle cx="210.3882" cy="119.7610" r="0.5000" /> 
</g>
<g style="fill:#000000; fill-opacity:1.0000; stroke:none;">
<circle cx="210.3882" cy="122.3010" r="0.5000" /> 
</g>
<g style="fill:#000000; fill-opacity:1.0000; stroke:none;">
<circle cx="210.3882" cy="124.8410" r="0.5000" /> 
</g>
<g style="fill:#000000; fill-opacity:1.0000; stroke:none;">
<circle cx="210.3882" cy="127.3810" r="0.5000" /> 
</g>
<g style="fill:#000000; fill-opacity:1.0000; stroke:none;">
<circle cx="210.3882" cy="129.9210" r="0.5000" /> 
</g>
<g style="fill:#000000; fill-opacity:1.0000; stroke:none;">
<circle cx="201.2442" cy="136.2710" r="1.5875" /> 
</g>
<g style="fill:#000000; fill-opacity:1.0000; stroke:none;">
<circle cx="194.6222" cy="130.0510" r="1.7000" /> 
</g>
<g style="fill:#000000; fill-opacity:1.0000; stroke:none;">
<circle cx="194.6222" cy="117.0910" r="1.7000" /> 
</g> 
</svg>
