<?xml version="1.0" standalone="no"?>
 <!DOCTYPE svg PUBLIC "-//W3C//DTD SVG 1.1//EN" 
 "http://www.w3.org/Graphics/SVG/1.1/DTD/svg11.dtd"> 
<svg
  xmlns:svg="http://www.w3.org/2000/svg"
  xmlns="http://www.w3.org/2000/svg"
  xmlns:xlink="http://www.w3.org/1999/xlink"
  version="1.1"
  width="431.8000mm" height="279.4000mm" viewBox="0.0000 0.0000 431.8000 279.4000">
<title>SVG Image created as mag-encoder-F_Silkscreen.svg date 2024/08/25 22:55:58 </title>
  <desc>Image generated by PCBNEW </desc>
<g style="fill:#000000; fill-opacity:1.0000;stroke:#000000; stroke-opacity:1.0000;
stroke-linecap:round; stroke-linejoin:round;"
 transform="translate(0 0) scale(1 1)">
</g>
<g style="fill:none; 
stroke:#000000; stroke-width:0.1524; stroke-opacity:1; 
stroke-linecap:round; stroke-linejoin:round;">
<text x="225.2218" y="133.8580"
textLength="2.6271" font-size="1.0160" lengthAdjust="spacingAndGlyphs"
text-anchor="start" opacity="0" stroke-opacity="0">GND</text>
<g class="stroked-text"><desc>GND</desc>
<path d="M225.9026 133.1606
L225.8301 133.1244
" />
<path d="M225.8301 133.1244
L225.7212 133.1244
" />
<path d="M225.7212 133.1244
L225.6123 133.1606
" />
<path d="M225.6123 133.1606
L225.5398 133.2332
" />
<path d="M225.5398 133.2332
L225.5035 133.3058
" />
<path d="M225.5035 133.3058
L225.4672 133.4509
" />
<path d="M225.4672 133.4509
L225.4672 133.5598
" />
<path d="M225.4672 133.5598
L225.5035 133.7049
" />
<path d="M225.5035 133.7049
L225.5398 133.7775
" />
<path d="M225.5398 133.7775
L225.6123 133.8501
" />
<path d="M225.6123 133.8501
L225.7212 133.8864
" />
<path d="M225.7212 133.8864
L225.7938 133.8864
" />
<path d="M225.7938 133.8864
L225.9026 133.8501
" />
<path d="M225.9026 133.8501
L225.9389 133.8138
" />
<path d="M225.9389 133.8138
L225.9389 133.5598
" />
<path d="M225.9389 133.5598
L225.7938 133.5598
" />
<path d="M226.2655 133.8864
L226.2655 133.1244
" />
<path d="M226.2655 133.1244
L226.7009 133.8864
" />
<path d="M226.7009 133.8864
L226.7009 133.1244
" />
<path d="M227.0638 133.8864
L227.0638 133.1244
" />
<path d="M227.0638 133.1244
L227.2452 133.1244
" />
<path d="M227.2452 133.1244
L227.3541 133.1606
" />
<path d="M227.3541 133.1606
L227.4266 133.2332
" />
<path d="M227.4266 133.2332
L227.4629 133.3058
" />
<path d="M227.4629 133.3058
L227.4992 133.4509
" />
<path d="M227.4992 133.4509
L227.4992 133.5598
" />
<path d="M227.4992 133.5598
L227.4629 133.7049
" />
<path d="M227.4629 133.7049
L227.4266 133.7775
" />
<path d="M227.4266 133.7775
L227.3541 133.8501
" />
<path d="M227.3541 133.8501
L227.2452 133.8864
" />
<path d="M227.2452 133.8864
L227.0638 133.8864
" />
</g><text x="225.2218" y="135.0848"
textLength="1.6837" font-size="1.0160" lengthAdjust="spacingAndGlyphs"
text-anchor="start" opacity="0" stroke-opacity="0">5V</text>
<g class="stroked-text"><desc>5V</desc>
<path d="M225.8663 134.3511
L225.5035 134.3511
" />
<path d="M225.5035 134.3511
L225.4672 134.7140
" />
<path d="M225.4672 134.7140
L225.5035 134.6777
" />
<path d="M225.5035 134.6777
L225.5761 134.6414
" />
<path d="M225.5761 134.6414
L225.7575 134.6414
" />
<path d="M225.7575 134.6414
L225.8301 134.6777
" />
<path d="M225.8301 134.6777
L225.8663 134.7140
" />
<path d="M225.8663 134.7140
L225.9026 134.7866
" />
<path d="M225.9026 134.7866
L225.9026 134.9680
" />
<path d="M225.9026 134.9680
L225.8663 135.0406
" />
<path d="M225.8663 135.0406
L225.8301 135.0769
" />
<path d="M225.8301 135.0769
L225.7575 135.1131
" />
<path d="M225.7575 135.1131
L225.5761 135.1131
" />
<path d="M225.5761 135.1131
L225.5035 135.0769
" />
<path d="M225.5035 135.0769
L225.4672 135.0406
" />
<path d="M226.1203 134.3511
L226.3743 135.1131
" />
<path d="M226.3743 135.1131
L226.6283 134.3511
" />
</g><text x="225.2218" y="136.3116"
textLength="0.9579" font-size="1.0160" lengthAdjust="spacingAndGlyphs"
text-anchor="start" opacity="0" stroke-opacity="0">A</text>
<g class="stroked-text"><desc>A</desc>
<path d="M225.4672 136.1222
L225.8301 136.1222
" />
<path d="M225.3946 136.3399
L225.6486 135.5779
" />
<path d="M225.6486 135.5779
L225.9026 136.3399
" />
</g><text x="225.2218" y="137.5383"
textLength="1.0668" font-size="1.0160" lengthAdjust="spacingAndGlyphs"
text-anchor="start" opacity="0" stroke-opacity="0">B</text>
<g class="stroked-text"><desc>B</desc>
<path d="M225.7575 137.1675
L225.8663 137.2038
" />
<path d="M225.8663 137.2038
L225.9026 137.2401
" />
<path d="M225.9026 137.2401
L225.9389 137.3127
" />
<path d="M225.9389 137.3127
L225.9389 137.4215
" />
<path d="M225.9389 137.4215
L225.9026 137.4941
" />
<path d="M225.9026 137.4941
L225.8663 137.5304
" />
<path d="M225.8663 137.5304
L225.7938 137.5667
" />
<path d="M225.7938 137.5667
L225.5035 137.5667
" />
<path d="M225.5035 137.5667
L225.5035 136.8047
" />
<path d="M225.5035 136.8047
L225.7575 136.8047
" />
<path d="M225.7575 136.8047
L225.8301 136.8410
" />
<path d="M225.8301 136.8410
L225.8663 136.8773
" />
<path d="M225.8663 136.8773
L225.9026 136.9498
" />
<path d="M225.9026 136.9498
L225.9026 137.0224
" />
<path d="M225.9026 137.0224
L225.8663 137.0950
" />
<path d="M225.8663 137.0950
L225.8301 137.1313
" />
<path d="M225.8301 137.1313
L225.7575 137.1675
" />
<path d="M225.7575 137.1675
L225.5035 137.1675
" />
</g><text x="225.2218" y="138.7651"
textLength="2.8085" font-size="1.0160" lengthAdjust="spacingAndGlyphs"
text-anchor="start" opacity="0" stroke-opacity="0">PWM</text>
<g class="stroked-text"><desc>PWM</desc>
<path d="M225.5035 138.7935
L225.5035 138.0315
" />
<path d="M225.5035 138.0315
L225.7938 138.0315
" />
<path d="M225.7938 138.0315
L225.8663 138.0678
" />
<path d="M225.8663 138.0678
L225.9026 138.1040
" />
<path d="M225.9026 138.1040
L225.9389 138.1766
" />
<path d="M225.9389 138.1766
L225.9389 138.2855
" />
<path d="M225.9389 138.2855
L225.9026 138.3580
" />
<path d="M225.9026 138.3580
L225.8663 138.3943
" />
<path d="M225.8663 138.3943
L225.7938 138.4306
" />
<path d="M225.7938 138.4306
L225.5035 138.4306
" />
<path d="M226.1929 138.0315
L226.3743 138.7935
" />
<path d="M226.3743 138.7935
L226.5195 138.2492
" />
<path d="M226.5195 138.2492
L226.6646 138.7935
" />
<path d="M226.6646 138.7935
L226.8461 138.0315
" />
<path d="M227.1363 138.7935
L227.1363 138.0315
" />
<path d="M227.1363 138.0315
L227.3903 138.5758
" />
<path d="M227.3903 138.5758
L227.6443 138.0315
" />
<path d="M227.6443 138.0315
L227.6443 138.7935
" />
</g></g>
<g style="fill:none; 
stroke:#000000; stroke-width:0.1270; stroke-opacity:1; 
stroke-linecap:round; stroke-linejoin:round;">
<text x="221.9452" y="115.5065"
textLength="1.5240" font-size="0.8467" lengthAdjust="spacingAndGlyphs"
text-anchor="middle" opacity="0" stroke-opacity="0">Q1</text>
<g class="stroked-text"><desc>Q1</desc>
<path d="M221.8847 115.5366
L221.8242 115.5064
" />
<path d="M221.8242 115.5064
L221.7638 115.4459
" />
<path d="M221.7638 115.4459
L221.6731 115.3552
" />
<path d="M221.6731 115.3552
L221.6126 115.3250
" />
<path d="M221.6126 115.3250
L221.5521 115.3250
" />
<path d="M221.5823 115.4762
L221.5219 115.4459
" />
<path d="M221.5219 115.4459
L221.4614 115.3854
" />
<path d="M221.4614 115.3854
L221.4312 115.2645
" />
<path d="M221.4312 115.2645
L221.4312 115.0528
" />
<path d="M221.4312 115.0528
L221.4614 114.9319
" />
<path d="M221.4614 114.9319
L221.5219 114.8714
" />
<path d="M221.5219 114.8714
L221.5823 114.8412
" />
<path d="M221.5823 114.8412
L221.7033 114.8412
" />
<path d="M221.7033 114.8412
L221.7638 114.8714
" />
<path d="M221.7638 114.8714
L221.8242 114.9319
" />
<path d="M221.8242 114.9319
L221.8545 115.0528
" />
<path d="M221.8545 115.0528
L221.8545 115.2645
" />
<path d="M221.8545 115.2645
L221.8242 115.3854
" />
<path d="M221.8242 115.3854
L221.7638 115.4459
" />
<path d="M221.7638 115.4459
L221.7033 115.4762
" />
<path d="M221.7033 115.4762
L221.5823 115.4762
" />
<path d="M222.4592 115.4762
L222.0964 115.4762
" />
<path d="M222.2778 115.4762
L222.2778 114.8412
" />
<path d="M222.2778 114.8412
L222.2173 114.9319
" />
<path d="M222.2173 114.9319
L222.1569 114.9923
" />
<path d="M222.1569 114.9923
L222.0964 115.0226
" />
</g><g transform="rotate(-90.000000 239.6490 133.1468)">
<text x="239.6490" y="133.4643"
textLength="1.4938" font-size="0.8467" lengthAdjust="spacingAndGlyphs"
text-anchor="middle" opacity="0" stroke-opacity="0">D5</text>
</g>
<g class="stroked-text"><desc>D5</desc>
<path d="M239.9362 133.6155
L239.3012 133.6155
" />
<path d="M239.3012 133.6155
L239.3012 133.4643
" />
<path d="M239.3012 133.4643
L239.3314 133.3736
" />
<path d="M239.3314 133.3736
L239.3919 133.3131
" />
<path d="M239.3919 133.3131
L239.4523 133.2829
" />
<path d="M239.4523 133.2829
L239.5733 133.2526
" />
<path d="M239.5733 133.2526
L239.6640 133.2526
" />
<path d="M239.6640 133.2526
L239.7850 133.2829
" />
<path d="M239.7850 133.2829
L239.8454 133.3131
" />
<path d="M239.8454 133.3131
L239.9059 133.3736
" />
<path d="M239.9059 133.3736
L239.9362 133.4643
" />
<path d="M239.9362 133.4643
L239.9362 133.6155
" />
<path d="M239.3012 132.6781
L239.3012 132.9805
" />
<path d="M239.3012 132.9805
L239.6035 133.0107
" />
<path d="M239.6035 133.0107
L239.5733 132.9805
" />
<path d="M239.5733 132.9805
L239.5431 132.9200
" />
<path d="M239.5431 132.9200
L239.5431 132.7688
" />
<path d="M239.5431 132.7688
L239.5733 132.7083
" />
<path d="M239.5733 132.7083
L239.6035 132.6781
" />
<path d="M239.6035 132.6781
L239.6640 132.6479
" />
<path d="M239.6640 132.6479
L239.8152 132.6479
" />
<path d="M239.8152 132.6479
L239.8757 132.6781
" />
<path d="M239.8757 132.6781
L239.9059 132.7083
" />
<path d="M239.9059 132.7083
L239.9362 132.7688
" />
<path d="M239.9362 132.7688
L239.9362 132.9200
" />
<path d="M239.9362 132.9200
L239.9059 132.9805
" />
<path d="M239.9059 132.9805
L239.8757 133.0107
" />
</g><g transform="rotate(-90.000000 239.6490 137.6178)">
<text x="239.6490" y="137.9353"
textLength="1.5845" font-size="0.8467" lengthAdjust="spacingAndGlyphs"
text-anchor="middle" opacity="0" stroke-opacity="0">ON</text>
</g>
<g class="stroked-text"><desc>ON</desc>
<path d="M239.3012 138.0109
L239.3012 137.8899
" />
<path d="M239.3012 137.8899
L239.3314 137.8295
" />
<path d="M239.3314 137.8295
L239.3919 137.7690
" />
<path d="M239.3919 137.7690
L239.5128 137.7388
" />
<path d="M239.5128 137.7388
L239.7245 137.7388
" />
<path d="M239.7245 137.7388
L239.8454 137.7690
" />
<path d="M239.8454 137.7690
L239.9059 137.8295
" />
<path d="M239.9059 137.8295
L239.9362 137.8899
" />
<path d="M239.9362 137.8899
L239.9362 138.0109
" />
<path d="M239.9362 138.0109
L239.9059 138.0714
" />
<path d="M239.9059 138.0714
L239.8454 138.1319
" />
<path d="M239.8454 138.1319
L239.7245 138.1621
" />
<path d="M239.7245 138.1621
L239.5128 138.1621
" />
<path d="M239.5128 138.1621
L239.3919 138.1319
" />
<path d="M239.3919 138.1319
L239.3314 138.0714
" />
<path d="M239.3314 138.0714
L239.3012 138.0109
" />
<path d="M239.9362 137.4666
L239.3012 137.4666
" />
<path d="M239.3012 137.4666
L239.9362 137.1038
" />
<path d="M239.9362 137.1038
L239.3012 137.1038
" />
</g><g transform="rotate(-90.000000 238.0486 133.1468)">
<text x="238.0486" y="133.4643"
textLength="1.4938" font-size="0.8467" lengthAdjust="spacingAndGlyphs"
text-anchor="middle" opacity="0" stroke-opacity="0">D4</text>
</g>
<g class="stroked-text"><desc>D4</desc>
<path d="M238.3358 133.6155
L237.7008 133.6155
" />
<path d="M237.7008 133.6155
L237.7008 133.4643
" />
<path d="M237.7008 133.4643
L237.7310 133.3736
" />
<path d="M237.7310 133.3736
L237.7915 133.3131
" />
<path d="M237.7915 133.3131
L237.8519 133.2829
" />
<path d="M237.8519 133.2829
L237.9729 133.2526
" />
<path d="M237.9729 133.2526
L238.0636 133.2526
" />
<path d="M238.0636 133.2526
L238.1846 133.2829
" />
<path d="M238.1846 133.2829
L238.2450 133.3131
" />
<path d="M238.2450 133.3131
L238.3055 133.3736
" />
<path d="M238.3055 133.3736
L238.3358 133.4643
" />
<path d="M238.3358 133.4643
L238.3358 133.6155
" />
<path d="M237.9124 132.7083
L238.3358 132.7083
" />
<path d="M237.6705 132.8595
L238.1241 133.0107
" />
<path d="M238.1241 133.0107
L238.1241 132.6176
" />
</g><g transform="rotate(-90.000000 238.0147 137.6934)">
<text x="238.0147" y="138.0109"
textLength="1.4333" font-size="0.8467" lengthAdjust="spacingAndGlyphs"
text-anchor="middle" opacity="0" stroke-opacity="0">LO</text>
</g>
<g class="stroked-text"><desc>LO</desc>
<path d="M238.3019 137.8295
L238.3019 138.1319
" />
<path d="M238.3019 138.1319
L237.6669 138.1319
" />
<path d="M237.6669 137.4969
L237.6669 137.3759
" />
<path d="M237.6669 137.3759
L237.6971 137.3154
" />
<path d="M237.6971 137.3154
L237.7576 137.2549
" />
<path d="M237.7576 137.2549
L237.8786 137.2247
" />
<path d="M237.8786 137.2247
L238.0902 137.2247
" />
<path d="M238.0902 137.2247
L238.2112 137.2549
" />
<path d="M238.2112 137.2549
L238.2717 137.3154
" />
<path d="M238.2717 137.3154
L238.3019 137.3759
" />
<path d="M238.3019 137.3759
L238.3019 137.4969
" />
<path d="M238.3019 137.4969
L238.2717 137.5573
" />
<path d="M238.2717 137.5573
L238.2112 137.6178
" />
<path d="M238.2112 137.6178
L238.0902 137.6480
" />
<path d="M238.0902 137.6480
L237.8786 137.6480
" />
<path d="M237.8786 137.6480
L237.7576 137.6178
" />
<path d="M237.7576 137.6178
L237.6971 137.5573
" />
<path d="M237.6971 137.5573
L237.6669 137.4969
" />
</g><text x="227.3808" y="114.8207"
textLength="1.5240" font-size="0.8467" lengthAdjust="spacingAndGlyphs"
text-anchor="middle" opacity="0" stroke-opacity="0">U1</text>
<g class="stroked-text"><desc>U1</desc>
<path d="M226.8970 114.1554
L226.8970 114.6694
" />
<path d="M226.8970 114.6694
L226.9272 114.7299
" />
<path d="M226.9272 114.7299
L226.9575 114.7601
" />
<path d="M226.9575 114.7601
L227.0179 114.7904
" />
<path d="M227.0179 114.7904
L227.1389 114.7904
" />
<path d="M227.1389 114.7904
L227.1994 114.7601
" />
<path d="M227.1994 114.7601
L227.2296 114.7299
" />
<path d="M227.2296 114.7299
L227.2598 114.6694
" />
<path d="M227.2598 114.6694
L227.2598 114.1554
" />
<path d="M227.8948 114.7904
L227.5320 114.7904
" />
<path d="M227.7134 114.7904
L227.7134 114.1554
" />
<path d="M227.7134 114.1554
L227.6529 114.2461
" />
<path d="M227.6529 114.2461
L227.5925 114.3065
" />
<path d="M227.5925 114.3065
L227.5320 114.3368
" />
</g><g transform="rotate(-90.000000 234.8486 133.1468)">
<text x="234.8486" y="133.4643"
textLength="1.4938" font-size="0.8467" lengthAdjust="spacingAndGlyphs"
text-anchor="middle" opacity="0" stroke-opacity="0">D2</text>
</g>
<g class="stroked-text"><desc>D2</desc>
<path d="M235.1358 133.6155
L234.5008 133.6155
" />
<path d="M234.5008 133.6155
L234.5008 133.4643
" />
<path d="M234.5008 133.4643
L234.5310 133.3736
" />
<path d="M234.5310 133.3736
L234.5915 133.3131
" />
<path d="M234.5915 133.3131
L234.6519 133.2829
" />
<path d="M234.6519 133.2829
L234.7729 133.2526
" />
<path d="M234.7729 133.2526
L234.8636 133.2526
" />
<path d="M234.8636 133.2526
L234.9846 133.2829
" />
<path d="M234.9846 133.2829
L235.0450 133.3131
" />
<path d="M235.0450 133.3131
L235.1055 133.3736
" />
<path d="M235.1055 133.3736
L235.1358 133.4643
" />
<path d="M235.1358 133.4643
L235.1358 133.6155
" />
<path d="M234.5612 133.0107
L234.5310 132.9805
" />
<path d="M234.5310 132.9805
L234.5008 132.9200
" />
<path d="M234.5008 132.9200
L234.5008 132.7688
" />
<path d="M234.5008 132.7688
L234.5310 132.7083
" />
<path d="M234.5310 132.7083
L234.5612 132.6781
" />
<path d="M234.5612 132.6781
L234.6217 132.6479
" />
<path d="M234.6217 132.6479
L234.6822 132.6479
" />
<path d="M234.6822 132.6479
L234.7729 132.6781
" />
<path d="M234.7729 132.6781
L235.1358 133.0410
" />
<path d="M235.1358 133.0410
L235.1358 132.6479
" />
</g><g transform="rotate(-90.000000 234.8317 137.6329)">
<text x="234.8317" y="137.9504"
textLength="1.5542" font-size="0.8467" lengthAdjust="spacingAndGlyphs"
text-anchor="middle" opacity="0" stroke-opacity="0">OK</text>
</g>
<g class="stroked-text"><desc>OK</desc>
<path d="M234.4838 138.0109
L234.4838 137.8899
" />
<path d="M234.4838 137.8899
L234.5141 137.8295
" />
<path d="M234.5141 137.8295
L234.5745 137.7690
" />
<path d="M234.5745 137.7690
L234.6955 137.7388
" />
<path d="M234.6955 137.7388
L234.9072 137.7388
" />
<path d="M234.9072 137.7388
L235.0281 137.7690
" />
<path d="M235.0281 137.7690
L235.0886 137.8295
" />
<path d="M235.0886 137.8295
L235.1188 137.8899
" />
<path d="M235.1188 137.8899
L235.1188 138.0109
" />
<path d="M235.1188 138.0109
L235.0886 138.0714
" />
<path d="M235.0886 138.0714
L235.0281 138.1319
" />
<path d="M235.0281 138.1319
L234.9072 138.1621
" />
<path d="M234.9072 138.1621
L234.6955 138.1621
" />
<path d="M234.6955 138.1621
L234.5745 138.1319
" />
<path d="M234.5745 138.1319
L234.5141 138.0714
" />
<path d="M234.5141 138.0714
L234.4838 138.0109
" />
<path d="M235.1188 137.4666
L234.4838 137.4666
" />
<path d="M235.1188 137.1038
L234.7560 137.3759
" />
<path d="M234.4838 137.1038
L234.8467 137.4666
" />
</g><text x="221.4626" y="132.2451"
textLength="1.3426" font-size="0.8467" lengthAdjust="spacingAndGlyphs"
text-anchor="middle" opacity="0" stroke-opacity="0">J1</text>
<g class="stroked-text"><desc>J1</desc>
<path d="M221.2509 131.5798
L221.2509 132.0333
" />
<path d="M221.2509 132.0333
L221.2207 132.1240
" />
<path d="M221.2207 132.1240
L221.1602 132.1845
" />
<path d="M221.1602 132.1845
L221.0695 132.2148
" />
<path d="M221.0695 132.2148
L221.0090 132.2148
" />
<path d="M221.8859 132.2148
L221.5231 132.2148
" />
<path d="M221.7045 132.2148
L221.7045 131.5798
" />
<path d="M221.7045 131.5798
L221.6440 131.6705
" />
<path d="M221.6440 131.6705
L221.5836 131.7309
" />
<path d="M221.5836 131.7309
L221.5231 131.7612
" />
</g><text x="226.3140" y="109.4867"
textLength="1.4938" font-size="0.8467" lengthAdjust="spacingAndGlyphs"
text-anchor="middle" opacity="0" stroke-opacity="0">D1</text>
<g class="stroked-text"><desc>D1</desc>
<path d="M225.8453 109.4564
L225.8453 108.8214
" />
<path d="M225.8453 108.8214
L225.9965 108.8214
" />
<path d="M225.9965 108.8214
L226.0872 108.8516
" />
<path d="M226.0872 108.8516
L226.1477 108.9121
" />
<path d="M226.1477 108.9121
L226.1779 108.9725
" />
<path d="M226.1779 108.9725
L226.2082 109.0935
" />
<path d="M226.2082 109.0935
L226.2082 109.1842
" />
<path d="M226.2082 109.1842
L226.1779 109.3052
" />
<path d="M226.1779 109.3052
L226.1477 109.3656
" />
<path d="M226.1477 109.3656
L226.0872 109.4261
" />
<path d="M226.0872 109.4261
L225.9965 109.4564
" />
<path d="M225.9965 109.4564
L225.8453 109.4564
" />
<path d="M226.8129 109.4564
L226.4501 109.4564
" />
<path d="M226.6315 109.4564
L226.6315 108.8214
" />
<path d="M226.6315 108.8214
L226.5710 108.9121
" />
<path d="M226.5710 108.9121
L226.5105 108.9725
" />
<path d="M226.5105 108.9725
L226.4501 109.0028
" />
</g><g transform="rotate(-90.000000 236.4484 133.1468)">
<text x="236.4484" y="133.4643"
textLength="1.4938" font-size="0.8467" lengthAdjust="spacingAndGlyphs"
text-anchor="middle" opacity="0" stroke-opacity="0">D3</text>
</g>
<g class="stroked-text"><desc>D3</desc>
<path d="M236.7356 133.6155
L236.1006 133.6155
" />
<path d="M236.1006 133.6155
L236.1006 133.4643
" />
<path d="M236.1006 133.4643
L236.1308 133.3736
" />
<path d="M236.1308 133.3736
L236.1913 133.3131
" />
<path d="M236.1913 133.3131
L236.2517 133.2829
" />
<path d="M236.2517 133.2829
L236.3727 133.2526
" />
<path d="M236.3727 133.2526
L236.4634 133.2526
" />
<path d="M236.4634 133.2526
L236.5844 133.2829
" />
<path d="M236.5844 133.2829
L236.6448 133.3131
" />
<path d="M236.6448 133.3131
L236.7053 133.3736
" />
<path d="M236.7053 133.3736
L236.7356 133.4643
" />
<path d="M236.7356 133.4643
L236.7356 133.6155
" />
<path d="M236.1006 133.0410
L236.1006 132.6479
" />
<path d="M236.1006 132.6479
L236.3425 132.8595
" />
<path d="M236.3425 132.8595
L236.3425 132.7688
" />
<path d="M236.3425 132.7688
L236.3727 132.7083
" />
<path d="M236.3727 132.7083
L236.4029 132.6781
" />
<path d="M236.4029 132.6781
L236.4634 132.6479
" />
<path d="M236.4634 132.6479
L236.6146 132.6479
" />
<path d="M236.6146 132.6479
L236.6751 132.6781
" />
<path d="M236.6751 132.6781
L236.7053 132.7083
" />
<path d="M236.7053 132.7083
L236.7356 132.7688
" />
<path d="M236.7356 132.7688
L236.7356 132.9503
" />
<path d="M236.7356 132.9503
L236.7053 133.0107
" />
<path d="M236.7053 133.0107
L236.6751 133.0410
" />
</g><g transform="rotate(-90.000000 236.3976 137.7992)">
<text x="236.3976" y="138.1167"
textLength="1.2216" font-size="0.8467" lengthAdjust="spacingAndGlyphs"
text-anchor="middle" opacity="0" stroke-opacity="0">HI</text>
</g>
<g class="stroked-text"><desc>HI</desc>
<path d="M236.6848 138.1319
L236.0498 138.1319
" />
<path d="M236.3521 138.1319
L236.3521 137.7690
" />
<path d="M236.6848 137.7690
L236.0498 137.7690
" />
<path d="M236.6848 137.4666
L236.0498 137.4666
" />
</g><text x="235.6358" y="114.8715"
textLength="1.3426" font-size="0.8467" lengthAdjust="spacingAndGlyphs"
text-anchor="middle" opacity="0" stroke-opacity="0">J2</text>
<g class="stroked-text"><desc>J2</desc>
<path d="M235.4241 114.2062
L235.4241 114.6597
" />
<path d="M235.4241 114.6597
L235.3939 114.7504
" />
<path d="M235.3939 114.7504
L235.3334 114.8109
" />
<path d="M235.3334 114.8109
L235.2427 114.8412
" />
<path d="M235.2427 114.8412
L235.1822 114.8412
" />
<path d="M235.6963 114.2666
L235.7265 114.2364
" />
<path d="M235.7265 114.2364
L235.7870 114.2062
" />
<path d="M235.7870 114.2062
L235.9382 114.2062
" />
<path d="M235.9382 114.2062
L235.9987 114.2364
" />
<path d="M235.9987 114.2364
L236.0289 114.2666
" />
<path d="M236.0289 114.2666
L236.0591 114.3271
" />
<path d="M236.0591 114.3271
L236.0591 114.3876
" />
<path d="M236.0591 114.3876
L236.0289 114.4783
" />
<path d="M236.0289 114.4783
L235.6660 114.8412
" />
<path d="M235.6660 114.8412
L236.0591 114.8412
" />
</g><path style="fill:#000000; fill-opacity:1.0000; 
stroke:#000000; stroke-width:0.1200; stroke-opacity:1; 
stroke-linecap:round; stroke-linejoin:round;fill-rule:evenodd;"
d="M 220.3590,114.1925
220.0290,114.4325
220.0290,113.9525
Z" /> 
</g>
<g style="fill:none; 
stroke:#000000; stroke-width:0.1200; stroke-opacity:1; 
stroke-linecap:round; stroke-linejoin:round;">
<path d="M223.4290 113.0300
L223.4290 112.3800
" />
<path d="M223.4290 113.0300
L223.4290 113.6800
" />
<path d="M220.3090 113.0300
L220.3090 112.3800
" />
<path d="M220.3090 113.0300
L220.3090 113.6800
" />
<path d="M238.8886 134.3280
L238.8886 136.6130
" />
<path d="M238.8886 136.6130
L240.3586 136.6130
" />
<path d="M240.3586 136.6130
L240.3586 134.3280
" />
<path d="M237.2882 134.3280
L237.2882 136.6130
" />
<path d="M237.2882 136.6130
L238.7582 136.6130
" />
<path d="M238.7582 136.6130
L238.7582 134.3280
" />
<path style="fill:#000000; fill-opacity:1.0000; 
stroke:#000000; stroke-width:0.1200; stroke-opacity:1; 
stroke-linecap:round; stroke-linejoin:round;fill-rule:evenodd;"
d="M 223.7880,114.1925
223.4580,114.4325
223.4580,113.9525
Z" /> 
</g>
<g style="fill:none; 
stroke:#000000; stroke-width:0.1200; stroke-opacity:1; 
stroke-linecap:round; stroke-linejoin:round;">
<path d="M226.8580 113.0300
L226.8580 113.6800
" />
<path d="M226.8580 113.0300
L226.8580 112.3800
" />
<path d="M223.7380 113.0300
L223.7380 113.6800
" />
<path d="M223.7380 113.0300
L223.7380 112.3800
" />
<path d="M234.0882 134.3280
L234.0882 136.6130
" />
<path d="M234.0882 136.6130
L235.5582 136.6130
" />
<path d="M235.5582 136.6130
L235.5582 134.3280
" />
<path d="M220.0818 115.8910
L221.4118 115.8910
" />
<path d="M220.0818 117.2210
L220.0818 115.8910
" />
<path d="M220.0818 118.4910
L220.0818 131.2510
" />
<path d="M220.0818 118.4910
L222.7418 118.4910
" />
<path d="M220.0818 131.2510
L222.7418 131.2510
" />
<path d="M222.7418 118.4910
L222.7418 131.2510
" />
<path d="M221.4370 108.8550
L221.4370 110.8550
" />
<path d="M221.4370 108.8550
L225.2970 108.8550
" />
<path d="M221.4370 110.8550
L225.2970 110.8550
" />
<path d="M235.6880 134.3280
L235.6880 136.6130
" />
<path d="M235.6880 136.6130
L237.1580 136.6130
" />
<path d="M237.1580 136.6130
L237.1580 134.3280
" />
</g>
<g style="fill:none; 
stroke:#000000; stroke-width:0.1000; stroke-opacity:1; 
stroke-linecap:round; stroke-linejoin:round;">
<path d="M222.9778 131.9460
L222.9778 115.1960
" />
<path d="M240.7778 115.1960
L222.9778 115.1960
" />
<path d="M240.7778 131.9460
L222.9778 131.9460
" />
</g>
<g style="fill:none; 
stroke:#000000; stroke-width:3.1750; stroke-opacity:1; 
stroke-linecap:round; stroke-linejoin:round;">
<path d="M238.0450 111.0887
L238.3066 110.6533
" />
</g>
<g style="fill:#000000; fill-opacity:1.0000; stroke:none;">
<circle cx="230.5558" cy="110.8710" r="1.5875" /> 
</g>
<g style="fill:#000000; fill-opacity:1.0000; stroke:none;">
<circle cx="222.9358" cy="136.2710" r="1.5875" /> 
</g>
<g style="fill:#000000; fill-opacity:1.0000; stroke:none;">
<circle cx="221.4118" cy="117.2210" r="0.5000" /> 
</g>
<g style="fill:#000000; fill-opacity:1.0000; stroke:none;">
<circle cx="221.4118" cy="119.7610" r="0.5000" /> 
</g>
<g style="fill:#000000; fill-opacity:1.0000; stroke:none;">
<circle cx="221.4118" cy="122.3010" r="0.5000" /> 
</g>
<g style="fill:#000000; fill-opacity:1.0000; stroke:none;">
<circle cx="221.4118" cy="124.8410" r="0.5000" /> 
</g>
<g style="fill:#000000; fill-opacity:1.0000; stroke:none;">
<circle cx="221.4118" cy="127.3810" r="0.5000" /> 
</g>
<g style="fill:#000000; fill-opacity:1.0000; stroke:none;">
<circle cx="221.4118" cy="129.9210" r="0.5000" /> 
</g>
<g style="fill:#000000; fill-opacity:1.0000; stroke:none;">
<circle cx="230.5558" cy="136.2710" r="1.5875" /> 
</g>
<g style="fill:#000000; fill-opacity:1.0000; stroke:none;">
<circle cx="237.1778" cy="130.0510" r="1.7000" /> 
</g>
<g style="fill:#000000; fill-opacity:1.0000; stroke:none;">
<circle cx="237.1778" cy="117.0910" r="1.7000" /> 
<path style="fill:#000000; fill-opacity:1.0000; stroke:none;fill-rule:evenodd;"
d="M 221.7190,112.8300
221.6616,112.8186
221.6129,112.7861
221.5804,112.7374
221.5690,112.6800
221.5690,111.5050
221.5804,111.4476
221.6129,111.3989
221.6616,111.3664
221.7190,111.3550
222.0190,111.3550
222.0764,111.3664
222.1251,111.3989
222.1576,111.4476
222.1690,111.5050
222.1690,112.6800
222.1576,112.7374
222.1251,112.7861
222.0764,112.8186
222.0190,112.8300
Z" /> 
<path style="fill:#000000; fill-opacity:1.0000; stroke:none;fill-rule:evenodd;"
d="M 222.6690,114.7050
222.6116,114.6936
222.5629,114.6611
222.5304,114.6124
222.5190,114.5550
222.5190,113.3800
222.5304,113.3226
222.5629,113.2739
222.6116,113.2414
222.6690,113.2300
222.9690,113.2300
223.0264,113.2414
223.0751,113.2739
223.1076,113.3226
223.1190,113.3800
223.1190,114.5550
223.1076,114.6124
223.0751,114.6611
223.0264,114.6936
222.9690,114.7050
Z" /> 
<path style="fill:#000000; fill-opacity:1.0000; stroke:none;fill-rule:evenodd;"
d="M 220.7690,114.7050
220.7116,114.6936
220.6629,114.6611
220.6304,114.6124
220.6190,114.5550
220.6190,113.3800
220.6304,113.3226
220.6629,113.2739
220.7116,113.2414
220.7690,113.2300
221.0690,113.2300
221.1264,113.2414
221.1751,113.2739
221.2076,113.3226
221.2190,113.3800
221.2190,114.5550
221.2076,114.6124
221.1751,114.6611
221.1264,114.6936
221.0690,114.7050
Z" /> 
</g>
<g style="fill:none; 
stroke:#000000; stroke-width:4.4450; stroke-opacity:1; 
stroke-linecap:round; stroke-linejoin:round;">
<path d="M238.0450 111.0887
L238.3066 110.6533
" />
</g>
<g style="fill:#000000; fill-opacity:1.0000; stroke:none;">
<circle cx="230.5558" cy="110.8710" r="2.5400" /> 
<path style="fill:#000000; fill-opacity:1.0000; stroke:none;fill-rule:evenodd;"
d="M 239.3673,136.3530
239.2836,136.3363
239.2127,136.2889
239.1653,136.2180
239.1486,136.1342
239.1486,135.6967
239.1653,135.6130
239.2127,135.5421
239.2836,135.4947
239.3673,135.4780
239.8798,135.4780
239.9636,135.4947
240.0345,135.5421
240.0819,135.6130
240.0986,135.6967
240.0986,136.1342
240.0819,136.2180
240.0345,136.2889
239.9636,136.3363
239.8798,136.3530
Z" /> 
<path style="fill:#000000; fill-opacity:1.0000; stroke:none;fill-rule:evenodd;"
d="M 239.3673,134.7780
239.2836,134.7613
239.2127,134.7139
239.1653,134.6430
239.1486,134.5592
239.1486,134.1217
239.1653,134.0380
239.2127,133.9671
239.2836,133.9197
239.3673,133.9030
239.8798,133.9030
239.9636,133.9197
240.0345,133.9671
240.0819,134.0380
240.0986,134.1217
240.0986,134.5592
240.0819,134.6430
240.0345,134.7139
239.9636,134.7613
239.8798,134.7780
Z" /> 
</g>
<g style="fill:#000000; fill-opacity:1.0000; stroke:none;">
<circle cx="222.9358" cy="136.2710" r="2.2225" /> 
<path style="fill:#000000; fill-opacity:1.0000; stroke:none;fill-rule:evenodd;"
d="M 237.7669,136.3530
237.6832,136.3363
237.6123,136.2889
237.5649,136.2180
237.5482,136.1342
237.5482,135.6967
237.5649,135.6130
237.6123,135.5421
237.6832,135.4947
237.7669,135.4780
238.2794,135.4780
238.3632,135.4947
238.4341,135.5421
238.4815,135.6130
238.4982,135.6967
238.4982,136.1342
238.4815,136.2180
238.4341,136.2889
238.3632,136.3363
238.2794,136.3530
Z" /> 
<path style="fill:#000000; fill-opacity:1.0000; stroke:none;fill-rule:evenodd;"
d="M 237.7669,134.7780
237.6832,134.7613
237.6123,134.7139
237.5649,134.6430
237.5482,134.5592
237.5482,134.1217
237.5649,134.0380
237.6123,133.9671
237.6832,133.9197
237.7669,133.9030
238.2794,133.9030
238.3632,133.9197
238.4341,133.9671
238.4815,134.0380
238.4982,134.1217
238.4982,134.5592
238.4815,134.6430
238.4341,134.7139
238.3632,134.7613
238.2794,134.7780
Z" /> 
<path style="fill:#000000; fill-opacity:1.0000; stroke:none;fill-rule:evenodd;"
d="M 225.1480,112.8300
225.0906,112.8186
225.0419,112.7861
225.0094,112.7374
224.9980,112.6800
224.9980,111.5050
225.0094,111.4476
225.0419,111.3989
225.0906,111.3664
225.1480,111.3550
225.4480,111.3550
225.5054,111.3664
225.5541,111.3989
225.5866,111.4476
225.5980,111.5050
225.5980,112.6800
225.5866,112.7374
225.5541,112.7861
225.5054,112.8186
225.4480,112.8300
Z" /> 
<path style="fill:#000000; fill-opacity:1.0000; stroke:none;fill-rule:evenodd;"
d="M 226.0980,114.7050
226.0406,114.6936
225.9919,114.6611
225.9594,114.6124
225.9480,114.5550
225.9480,113.3800
225.9594,113.3226
225.9919,113.2739
226.0406,113.2414
226.0980,113.2300
226.3980,113.2300
226.4554,113.2414
226.5041,113.2739
226.5366,113.3226
226.5480,113.3800
226.5480,114.5550
226.5366,114.6124
226.5041,114.6611
226.4554,114.6936
226.3980,114.7050
Z" /> 
<path style="fill:#000000; fill-opacity:1.0000; stroke:none;fill-rule:evenodd;"
d="M 224.1980,114.7050
224.1406,114.6936
224.0919,114.6611
224.0594,114.6124
224.0480,114.5550
224.0480,113.3800
224.0594,113.3226
224.0919,113.2739
224.1406,113.2414
224.1980,113.2300
224.4980,113.2300
224.5554,113.2414
224.6041,113.2739
224.6366,113.3226
224.6480,113.3800
224.6480,114.5550
224.6366,114.6124
224.6041,114.6611
224.5554,114.6936
224.4980,114.7050
Z" /> 
<path style="fill:#000000; fill-opacity:1.0000; stroke:none;fill-rule:evenodd;"
d="M 234.5669,136.3530
234.4832,136.3363
234.4123,136.2889
234.3649,136.2180
234.3482,136.1342
234.3482,135.6967
234.3649,135.6130
234.4123,135.5421
234.4832,135.4947
234.5669,135.4780
235.0794,135.4780
235.1632,135.4947
235.2341,135.5421
235.2815,135.6130
235.2982,135.6967
235.2982,136.1342
235.2815,136.2180
235.2341,136.2889
235.1632,136.3363
235.0794,136.3530
Z" /> 
<path style="fill:#000000; fill-opacity:1.0000; stroke:none;fill-rule:evenodd;"
d="M 234.5669,134.7780
234.4832,134.7613
234.4123,134.7139
234.3649,134.6430
234.3482,134.5592
234.3482,134.1217
234.3649,134.0380
234.4123,133.9671
234.4832,133.9197
234.5669,133.9030
235.0794,133.9030
235.1632,133.9197
235.2341,133.9671
235.2815,134.0380
235.2982,134.1217
235.2982,134.5592
235.2815,134.6430
235.2341,134.7139
235.1632,134.7613
235.0794,134.7780
Z" /> 
<path style="fill:#000000; fill-opacity:1.0000; stroke:none;fill-rule:evenodd;"
d="M 220.5618,118.0710
220.5618,116.3710
222.2618,116.3710
222.2618,118.0710
Z" /> 
</g>
<g style="fill:#000000; fill-opacity:1.0000; stroke:none;">
<circle cx="221.4118" cy="119.7610" r="0.8500" /> 
<circle cx="221.4118" cy="122.3010" r="0.8500" /> 
<circle cx="221.4118" cy="124.8410" r="0.8500" /> 
<circle cx="221.4118" cy="127.3810" r="0.8500" /> 
<circle cx="221.4118" cy="129.9210" r="0.8500" /> 
<path style="fill:#000000; fill-opacity:1.0000; stroke:none;fill-rule:evenodd;"
d="M 221.6970,109.5550
221.7160,109.4593
221.7702,109.3782
221.8513,109.3240
221.9470,109.3050
222.5470,109.3050
222.6427,109.3240
222.7238,109.3782
222.7780,109.4593
222.7970,109.5550
222.7970,110.1550
222.7780,110.2507
222.7238,110.3318
222.6427,110.3860
222.5470,110.4050
221.9470,110.4050
221.8513,110.3860
221.7702,110.3318
221.7160,110.2507
221.6970,110.1550
Z" /> 
<path style="fill:#000000; fill-opacity:1.0000; stroke:none;fill-rule:evenodd;"
d="M 224.4970,109.5550
224.5160,109.4593
224.5702,109.3782
224.6513,109.3240
224.7470,109.3050
225.3470,109.3050
225.4427,109.3240
225.5238,109.3782
225.5780,109.4593
225.5970,109.5550
225.5970,110.1550
225.5780,110.2507
225.5238,110.3318
225.4427,110.3860
225.3470,110.4050
224.7470,110.4050
224.6513,110.3860
224.5702,110.3318
224.5160,110.2507
224.4970,110.1550
Z" /> 
<path style="fill:#000000; fill-opacity:1.0000; stroke:none;fill-rule:evenodd;"
d="M 236.1667,136.3530
236.0830,136.3363
236.0121,136.2889
235.9647,136.2180
235.9480,136.1342
235.9480,135.6967
235.9647,135.6130
236.0121,135.5421
236.0830,135.4947
236.1667,135.4780
236.6792,135.4780
236.7630,135.4947
236.8339,135.5421
236.8813,135.6130
236.8980,135.6967
236.8980,136.1342
236.8813,136.2180
236.8339,136.2889
236.7630,136.3363
236.6792,136.3530
Z" /> 
<path style="fill:#000000; fill-opacity:1.0000; stroke:none;fill-rule:evenodd;"
d="M 236.1667,134.7780
236.0830,134.7613
236.0121,134.7139
235.9647,134.6430
235.9480,134.5592
235.9480,134.1217
235.9647,134.0380
236.0121,133.9671
236.0830,133.9197
236.1667,133.9030
236.6792,133.9030
236.7630,133.9197
236.8339,133.9671
236.8813,134.0380
236.8980,134.1217
236.8980,134.5592
236.8813,134.6430
236.8339,134.7139
236.7630,134.7613
236.6792,134.7780
Z" /> 
<circle cx="230.5558" cy="136.2710" r="2.5400" /> 
</g>
<g style="fill:#000000; fill-opacity:1.0000; stroke:none;">
<circle cx="237.1778" cy="130.0510" r="1.7000" /> 
</g>
<g style="fill:#000000; fill-opacity:1.0000; stroke:none;">
<circle cx="237.1778" cy="117.0910" r="1.7000" /> 
<path style="fill:#000000; fill-opacity:1.0000; stroke:none;fill-rule:evenodd;"
d="M 223.9441,119.3160
223.8977,119.3068
223.8583,119.2805
223.8320,119.2411
223.8228,119.1947
223.8228,117.7873
223.8320,117.7409
223.8583,117.7015
223.8977,117.6752
223.9441,117.6660
229.0315,117.6660
229.0779,117.6752
229.1173,117.7015
229.1436,117.7409
229.1528,117.7873
229.1528,119.1947
229.1436,119.2411
229.1173,119.2805
229.0779,119.3068
229.0315,119.3160
Z" /> 
<path style="fill:#000000; fill-opacity:1.0000; stroke:none;fill-rule:evenodd;"
d="M 223.9441,121.8560
223.8977,121.8468
223.8583,121.8205
223.8320,121.7811
223.8228,121.7347
223.8228,120.3273
223.8320,120.2809
223.8583,120.2415
223.8977,120.2152
223.9441,120.2060
229.0315,120.2060
229.0779,120.2152
229.1173,120.2415
229.1436,120.2809
229.1528,120.3273
229.1528,121.7347
229.1436,121.7811
229.1173,121.8205
229.0779,121.8468
229.0315,121.8560
Z" /> 
<path style="fill:#000000; fill-opacity:1.0000; stroke:none;fill-rule:evenodd;"
d="M 223.9441,124.3960
223.8977,124.3868
223.8583,124.3605
223.8320,124.3211
223.8228,124.2747
223.8228,122.8673
223.8320,122.8209
223.8583,122.7815
223.8977,122.7552
223.9441,122.7460
229.0315,122.7460
229.0779,122.7552
229.1173,122.7815
229.1436,122.8209
229.1528,122.8673
229.1528,124.2747
229.1436,124.3211
229.1173,124.3605
229.0779,124.3868
229.0315,124.3960
Z" /> 
<path style="fill:#000000; fill-opacity:1.0000; stroke:none;fill-rule:evenodd;"
d="M 223.9441,126.9360
223.8977,126.9268
223.8583,126.9005
223.8320,126.8611
223.8228,126.8147
223.8228,125.4073
223.8320,125.3609
223.8583,125.3215
223.8977,125.2952
223.9441,125.2860
229.0315,125.2860
229.0779,125.2952
229.1173,125.3215
229.1436,125.3609
229.1528,125.4073
229.1528,126.8147
229.1436,126.8611
229.1173,126.9005
229.0779,126.9268
229.0315,126.9360
Z" /> 
<path style="fill:#000000; fill-opacity:1.0000; stroke:none;fill-rule:evenodd;"
d="M 223.9441,129.4760
223.8977,129.4668
223.8583,129.4405
223.8320,129.4011
223.8228,129.3547
223.8228,127.9473
223.8320,127.9009
223.8583,127.8615
223.8977,127.8352
223.9441,127.8260
229.0315,127.8260
229.0779,127.8352
229.1173,127.8615
229.1436,127.9009
229.1528,127.9473
229.1528,129.3547
229.1436,129.4011
229.1173,129.4405
229.0779,129.4668
229.0315,129.4760
Z" /> 
</g>
<g style="fill:none; 
stroke:#000000; stroke-width:0.0500; stroke-opacity:1; 
stroke-linecap:round; stroke-linejoin:round;">
<path d="M220.9038 107.6960 A1.2700 1.2700 0.0 0 0 219.6338 108.9660" />
<path d="M240.2078 139.4460 A1.2700 1.2700 0.0 0 0 241.4778 138.1760" />
<path d="M219.6338 108.9660
L219.6338 138.1760
" />
<path d="M241.4778 138.1760
L241.4778 108.9660
" />
<path d="M240.2078 107.6960
L220.9038 107.6960
" />
<path d="M219.6338 138.1760 A1.2700 1.2700 0.0 0 0 220.9038 139.4460" />
<path d="M220.9038 139.4460
L240.2078 139.4460
" />
<path d="M241.4778 108.9660 A1.2700 1.2700 0.0 0 0 240.2078 107.6960" />
</g>
<g style="fill:none; 
stroke:#000000; stroke-width:3.1750; stroke-opacity:1; 
stroke-linecap:round; stroke-linejoin:round;">
<path d="M238.0450 111.0887
L238.3066 110.6533
" />
</g>
<g style="fill:#000000; fill-opacity:1.0000; stroke:none;">
<circle cx="230.5558" cy="110.8710" r="1.5875" /> 
</g>
<g style="fill:#000000; fill-opacity:1.0000; stroke:none;">
<circle cx="222.9358" cy="136.2710" r="1.5875" /> 
</g>
<g style="fill:#000000; fill-opacity:1.0000; stroke:none;">
<circle cx="221.4118" cy="117.2210" r="0.5000" /> 
</g>
<g style="fill:#000000; fill-opacity:1.0000; stroke:none;">
<circle cx="221.4118" cy="119.7610" r="0.5000" /> 
</g>
<g style="fill:#000000; fill-opacity:1.0000; stroke:none;">
<circle cx="221.4118" cy="122.3010" r="0.5000" /> 
</g>
<g style="fill:#000000; fill-opacity:1.0000; stroke:none;">
<circle cx="221.4118" cy="124.8410" r="0.5000" /> 
</g>
<g style="fill:#000000; fill-opacity:1.0000; stroke:none;">
<circle cx="221.4118" cy="127.3810" r="0.5000" /> 
</g>
<g style="fill:#000000; fill-opacity:1.0000; stroke:none;">
<circle cx="221.4118" cy="129.9210" r="0.5000" /> 
</g>
<g style="fill:#000000; fill-opacity:1.0000; stroke:none;">
<circle cx="230.5558" cy="136.2710" r="1.5875" /> 
</g>
<g style="fill:#000000; fill-opacity:1.0000; stroke:none;">
<circle cx="237.1778" cy="130.0510" r="1.7000" /> 
</g>
<g style="fill:#000000; fill-opacity:1.0000; stroke:none;">
<circle cx="237.1778" cy="117.0910" r="1.7000" /> 
</g> 
</svg>
