  0
SECTION
  2
HEADER
  9
$ANGBASE
  50
0.0
  9
$ANGDIR
  70
1
  9
$MEASUREMENT
  70
0
  0
ENDSEC
  0
SECTION
  2
TABLES
  0
TABLE
  2
LTYPE
  70
4
  0
LTYPE
  5
40F
  2
CONTINUOUS
  70
0
  3
Solid line
  72
65
  73
0
  40
0.0
  0
LTYPE
  5
410
  2
DASHDOT
 70
0
  3
Dash Dot ____ _ ____ _
 72
65
 73
4
 40
2.0
 49
1.25
 49
-0.25
 49
0.25
 49
-0.25
  0
LTYPE
  5
411
  2
DASHED
 70
0
  3
Dashed __ __ __ __ __
 72
65
 73
2
 40
0.75
 49
0.5
 49
-0.25
  0
LTYPE
  5
43B
  2
DOTTED
 70
0
  3
Dotted .  .  .  .
 72
65
 73
2
 40
0.2
 49
0.0
 49
-0.2
  0
ENDTAB
  0
TABLE
  2
STYLE
  70
4
  0
STYLE
  2
KICAD
  70
0
  40
0
  41
1
  42
1
  50
0
  71
0
  3
isocp.shx
  0
STYLE
  2
KICADB
  70
0
  40
0
  41
1
  42
1
  50
0
  71
0
  3
isocp.shx
  0
STYLE
  2
KICADI
  70
0
  40
0
  41
1
  42
1
  50
15
  71
0
  3
isocp.shx
  0
STYLE
  2
KICADBI
  70
0
  40
0
  41
1
  42
1
  50
15
  71
0
  3
isocp.shx
  0
ENDTAB
  0
TABLE
  2
LAYER
  70
1
  0
LAYER
  2
BLACK
  70
0
  62
7
  6
CONTINUOUS
  0
ENDTAB
  0
ENDSEC
  0
SECTION
  2
ENTITIES
0
ARC
8
BLACK
10
8.7349999999999994
20
-4.75
40
0.1
50
-90.00000000
51
-0.00000000
0
ARC
8
BLACK
10
8.4649999999999999
20
-3.7749999999999999
40
0.1
50
-90.00000000
51
-0.00000000
0
ARC
8
BLACK
10
8.1999999999999993
20
-3.8999999999999999
40
0.025
50
90.00000000
51
180.00000000
0
ARC
8
BLACK
10
9.1999999999999993
20
-4.5499999999999998
40
0.025
50
-90.00000000
51
-0.00000000
0
ARC
8
BLACK
10
8.9350000000000005
20
-3.7749999999999999
40
0.1
50
-180.00000000
51
-90.00000000
0
LINE
8
BLACK
6
CONTINUOUS
10
8.9350000000000005
20
-4.5750000000000002
11
9.1999999999999993
21
-4.5750000000000002
0
ARC
8
BLACK
10
8.6649999999999991
20
-4.75
40
0.1
50
-180.00000000
51
-90.00000000
0
LINE
8
BLACK
6
CONTINUOUS
10
8.5649999999999995
20
-4.6749999999999998
11
8.5649999999999995
21
-4.75
0
ARC
8
BLACK
10
8.9350000000000005
20
-4.6749999999999998
40
0.1
50
90.00000000
51
180.00000000
0
ARC
8
BLACK
10
8.4649999999999999
20
-4.6749999999999998
40
0.1
50
0.00000000
51
90.00000000
0
ARC
8
BLACK
10
8.1999999999999993
20
-4.5499999999999998
40
0.025
50
-180.00000000
51
-90.00000000
0
LINE
8
BLACK
6
CONTINUOUS
10
8.5649999999999995
20
-3.6999999999999997
11
8.5649999999999995
21
-3.7749999999999999
0
ARC
8
BLACK
10
9.1999999999999993
20
-3.8999999999999999
40
0.025
50
0.00000000
51
90.00000000
0
LINE
8
BLACK
6
CONTINUOUS
10
9.2249999999999996
20
-4.5499999999999998
11
9.2249999999999996
21
-3.8999999999999999
0
LINE
8
BLACK
6
CONTINUOUS
10
8.8349999999999991
20
-3.7749999999999999
11
8.8349999999999991
21
-3.6999999999999997
0
LINE
8
BLACK
6
CONTINUOUS
10
8.1999999999999993
20
-4.5750000000000002
11
8.4649999999999999
21
-4.5750000000000002
0
ARC
8
BLACK
10
8.7349999999999994
20
-3.6999999999999997
40
0.1
50
0.00000000
51
90.00000000
0
LINE
8
BLACK
6
CONTINUOUS
10
8.1749999999999989
20
-3.8999999999999999
11
8.1749999999999989
21
-4.5499999999999998
0
LINE
8
BLACK
6
CONTINUOUS
10
8.6649999999999991
20
-4.8499999999999996
11
8.7349999999999994
21
-4.8499999999999996
0
LINE
8
BLACK
6
CONTINUOUS
10
8.9350000000000005
20
-3.875
11
9.1999999999999993
21
-3.875
0
LINE
8
BLACK
6
CONTINUOUS
10
8.8349999999999991
20
-4.75
11
8.8349999999999991
21
-4.6749999999999998
0
ARC
8
BLACK
10
8.6649999999999991
20
-3.6999999999999997
40
0.1
50
90.00000000
51
180.00000000
0
LINE
8
BLACK
6
CONTINUOUS
10
8.7349999999999994
20
-3.6000000000000001
11
8.6649999999999991
21
-3.6000000000000001
0
LINE
8
BLACK
6
CONTINUOUS
10
8.4649999999999999
20
-3.875
11
8.1999999999999993
21
-3.875
0
LINE
8
BLACK
6
CONTINUOUS
10
8.6290001574803146
20
-4.0199999999999996
11
8.641000157480315
21
-4.032
0
LINE
8
BLACK
6
CONTINUOUS
10
8.641000157480315
20
-4.0199999999999996
11
8.6290001574803146
21
-4.032
0
LINE
8
BLACK
6
CONTINUOUS
10
8.6310000000000002
20
-4.1200000000000001
11
8.6430000000000007
21
-4.1319999999999997
0
LINE
8
BLACK
6
CONTINUOUS
10
8.6430000000000007
20
-4.1200000000000001
11
8.6310000000000002
21
-4.1319999999999997
0
LINE
8
BLACK
6
CONTINUOUS
10
8.6310000000000002
20
-4.218
11
8.6430000000000007
21
-4.2299999999999995
0
LINE
8
BLACK
6
CONTINUOUS
10
8.6430000000000007
20
-4.218
11
8.6310000000000002
21
-4.2299999999999995
0
LINE
8
BLACK
6
CONTINUOUS
10
8.6329999999999991
20
-4.4189999999999996
11
8.6449999999999996
21
-4.431
0
LINE
8
BLACK
6
CONTINUOUS
10
8.6449999999999996
20
-4.4189999999999996
11
8.6329999999999991
21
-4.431
0
LINE
8
BLACK
6
CONTINUOUS
10
8.9049999999999994
20
-4.173
11
8.9169999999999998
21
-4.1849999999999996
0
LINE
8
BLACK
6
CONTINUOUS
10
8.9169999999999998
20
-4.173
11
8.9049999999999994
21
-4.1849999999999996
0
LINE
8
BLACK
6
CONTINUOUS
10
8.9359999999999999
20
-3.9790000000000001
11
8.9480000000000004
21
-3.9910000000000001
0
LINE
8
BLACK
6
CONTINUOUS
10
8.9480000000000004
20
-3.9790000000000001
11
8.9359999999999999
21
-3.9910000000000001
0
LINE
8
BLACK
6
CONTINUOUS
10
8.9359999999999999
20
-4.0690000787401575
11
8.9480000000000004
21
-4.081000078740157
0
LINE
8
BLACK
6
CONTINUOUS
10
8.9480000000000004
20
-4.0690000787401575
11
8.9359999999999999
21
-4.081000078740157
0
LINE
8
BLACK
6
CONTINUOUS
10
8.9800513385826761
20
-4.1293425196850393
11
8.9920513385826766
21
-4.1413425196850389
0
LINE
8
BLACK
6
CONTINUOUS
10
8.9920513385826766
20
-4.1293425196850393
11
8.9800513385826761
21
-4.1413425196850389
0
LINE
8
BLACK
6
CONTINUOUS
10
9.0099999999999998
20
-4.1120000000000001
11
9.0220000000000002
21
-4.1239999999999997
0
LINE
8
BLACK
6
CONTINUOUS
10
9.0220000000000002
20
-4.1120000000000001
11
9.0099999999999998
21
-4.1239999999999997
0
LINE
8
BLACK
6
CONTINUOUS
10
9.0630000000000006
20
-4.1600000000000001
11
9.0749999999999993
21
-4.1719999999999997
0
LINE
8
BLACK
6
CONTINUOUS
10
9.0749999999999993
20
-4.1600000000000001
11
9.0630000000000006
21
-4.1719999999999997
0
LINE
8
BLACK
6
CONTINUOUS
10
9.0800000000000001
20
-4.3049999999999997
11
9.0920000000000005
21
-4.3170000000000002
0
LINE
8
BLACK
6
CONTINUOUS
10
9.0920000000000005
20
-4.3049999999999997
11
9.0800000000000001
21
-4.3170000000000002
0
LINE
8
BLACK
6
CONTINUOUS
10
9.0939999999999994
20
-3.9579999999999997
11
9.1059999999999999
21
-3.9699999999999998
0
LINE
8
BLACK
6
CONTINUOUS
10
9.1059999999999999
20
-3.9579999999999997
11
9.0939999999999994
21
-3.9699999999999998
0
LINE
8
BLACK
6
CONTINUOUS
10
9.0990000000000002
20
-4.0389999999999997
11
9.1110000000000007
21
-4.0510000000000002
0
LINE
8
BLACK
6
CONTINUOUS
10
9.1110000000000007
20
-4.0389999999999997
11
9.0990000000000002
21
-4.0510000000000002
0
LINE
8
BLACK
6
CONTINUOUS
10
9.1050000000000004
20
-4.3919999999999995
11
9.1169999999999991
21
-4.4039999999999999
0
LINE
8
BLACK
6
CONTINUOUS
10
9.1169999999999991
20
-4.3919999999999995
11
9.1050000000000004
21
-4.4039999999999999
0
LINE
8
BLACK
6
CONTINUOUS
10
9.1069999999999993
20
-4.2199999999999998
11
9.1189999999999998
21
-4.2320000000000002
0
LINE
8
BLACK
6
CONTINUOUS
10
9.1189999999999998
20
-4.2199999999999998
11
9.1069999999999993
21
-4.2320000000000002
0
LINE
8
BLACK
6
CONTINUOUS
10
9.1199999999999992
20
-4.0649999999999995
11
9.1319999999999997
21
-4.077
0
LINE
8
BLACK
6
CONTINUOUS
10
9.1319999999999997
20
-4.0649999999999995
11
9.1199999999999992
21
-4.077
0
LINE
8
BLACK
6
CONTINUOUS
10
9.1440000000000001
20
-4.516
11
9.1560000000000006
21
-4.5279999999999996
0
LINE
8
BLACK
6
CONTINUOUS
10
9.1560000000000006
20
-4.516
11
9.1440000000000001
21
-4.5279999999999996
0
LINE
8
BLACK
6
CONTINUOUS
10
9.156999842519685
20
-4.218
11
9.1689998425196855
21
-4.2299999999999995
0
LINE
8
BLACK
6
CONTINUOUS
10
9.1689998425196855
20
-4.218
11
9.156999842519685
21
-4.2299999999999995
0
LINE
8
BLACK
6
CONTINUOUS
10
9.164323543307086
20
-4.3697088188976378
11
9.1763235433070864
21
-4.3817088188976374
0
LINE
8
BLACK
6
CONTINUOUS
10
9.1763235433070864
20
-4.3697088188976378
11
9.164323543307086
21
-4.3817088188976374
0
CIRCLE
8
BLACK
10
8.6999999999999993
20
-3.7399999999999998
40
0.062992125984252
0
CIRCLE
8
BLACK
10
8.6999999999999993
20
-4.71
40
0.062992125984252
0
LINE
8
BLACK
6
CONTINUOUS
10
8.3442913385826767
20
-3.9029527559055119
11
8.3442913385826767
21
-4.0368110236220476
0
LINE
8
BLACK
6
CONTINUOUS
10
8.27736220472441
20
-3.9698818897637795
11
8.4112204724409452
21
-3.9698818897637795
0
LINE
8
BLACK
6
CONTINUOUS
10
8.3442913385826767
20
-4.4131889763779526
11
8.3442913385826767
21
-4.5470472440944878
0
LINE
8
BLACK
6
CONTINUOUS
10
8.27736220472441
20
-4.4801181102362202
11
8.4112204724409452
21
-4.4801181102362202
0
LINE
8
BLACK
6
CONTINUOUS
10
8.2766837795275592
20
-4.9736156692913385
11
8.2766837795275592
21
-4.8948755118110236
0
LINE
8
BLACK
6
CONTINUOUS
10
8.2766837795275592
20
-4.8948755118110236
11
8.2954314173228347
21
-4.8948755118110236
0
LINE
8
BLACK
6
CONTINUOUS
10
8.2954314173228347
20
-4.8948755118110236
11
8.3066800393700788
21
-4.8986250393700788
0
LINE
8
BLACK
6
CONTINUOUS
10
8.3066800393700788
20
-4.8986250393700788
11
8.314179094488189
21
-4.906124094488189
0
LINE
8
BLACK
6
CONTINUOUS
10
8.314179094488189
20
-4.906124094488189
11
8.3179286220472441
21
-4.9136231496062992
0
LINE
8
BLACK
6
CONTINUOUS
10
8.3179286220472441
20
-4.9136231496062992
11
8.3216781496062993
21
-4.9286212598425196
0
LINE
8
BLACK
6
CONTINUOUS
10
8.3216781496062993
20
-4.9286212598425196
11
8.3216781496062993
21
-4.9398698818897637
0
LINE
8
BLACK
6
CONTINUOUS
10
8.3216781496062993
20
-4.9398698818897637
11
8.3179286220472441
21
-4.9548679921259842
0
LINE
8
BLACK
6
CONTINUOUS
10
8.3179286220472441
20
-4.9548679921259842
11
8.314179094488189
21
-4.9623670472440944
0
LINE
8
BLACK
6
CONTINUOUS
10
8.314179094488189
20
-4.9623670472440944
11
8.3066800393700788
21
-4.9698661417322834
0
LINE
8
BLACK
6
CONTINUOUS
10
8.3066800393700788
20
-4.9698661417322834
11
8.2954314173228347
21
-4.9736156692913385
0
LINE
8
BLACK
6
CONTINUOUS
10
8.2954314173228347
20
-4.9736156692913385
11
8.2766837795275592
21
-4.9736156692913385
0
LINE
8
BLACK
6
CONTINUOUS
10
8.355423937007874
20
-4.9736156692913385
11
8.355423937007874
21
-4.9211222047244094
0
LINE
8
BLACK
6
CONTINUOUS
10
8.355423937007874
20
-4.9361203543307086
11
8.3591734645669291
21
-4.9286212598425196
0
LINE
8
BLACK
6
CONTINUOUS
10
8.3591734645669291
20
-4.9286212598425196
11
8.3629229921259842
21
-4.9248717322834645
0
LINE
8
BLACK
6
CONTINUOUS
10
8.3629229921259842
20
-4.9248717322834645
11
8.3704220472440944
21
-4.9211222047244094
0
LINE
8
BLACK
6
CONTINUOUS
10
8.3704220472440944
20
-4.9211222047244094
11
8.3779211417322834
21
-4.9211222047244094
0
LINE
8
BLACK
6
CONTINUOUS
10
8.4041678346456692
20
-4.9736156692913385
11
8.4041678346456692
21
-4.9211222047244094
0
LINE
8
BLACK
6
CONTINUOUS
10
8.4041678346456692
20
-4.8948755118110236
11
8.4004183070866141
21
-4.8986250393700788
0
LINE
8
BLACK
6
CONTINUOUS
10
8.4004183070866141
20
-4.8986250393700788
11
8.4041678346456692
21
-4.9023745669291339
0
LINE
8
BLACK
6
CONTINUOUS
10
8.4041678346456692
20
-4.9023745669291339
11
8.4079173622047243
21
-4.8986250393700788
0
LINE
8
BLACK
6
CONTINUOUS
10
8.4079173622047243
20
-4.8986250393700788
11
8.4041678346456692
21
-4.8948755118110236
0
LINE
8
BLACK
6
CONTINUOUS
10
8.4041678346456692
20
-4.8948755118110236
11
8.4041678346456692
21
-4.9023745669291339
0
LINE
8
BLACK
6
CONTINUOUS
10
8.4529117322834644
20
-4.9736156692913385
11
8.4454126771653542
21
-4.9698661417322834
0
LINE
8
BLACK
6
CONTINUOUS
10
8.4454126771653542
20
-4.9698661417322834
11
8.441663149606299
21
-4.9623670472440944
0
LINE
8
BLACK
6
CONTINUOUS
10
8.441663149606299
20
-4.9623670472440944
11
8.441663149606299
21
-4.8948755118110236
0
LINE
8
BLACK
6
CONTINUOUS
10
8.4941565748031493
20
-4.9736156692913385
11
8.4866575196850391
21
-4.9698661417322834
0
LINE
8
BLACK
6
CONTINUOUS
10
8.4866575196850391
20
-4.9698661417322834
11
8.482907992125984
21
-4.9623670472440944
0
LINE
8
BLACK
6
CONTINUOUS
10
8.482907992125984
20
-4.9623670472440944
11
8.482907992125984
21
-4.8948755118110236
0
LINE
8
BLACK
6
CONTINUOUS
10
8.5841453543307082
20
-4.9736156692913385
11
8.5841453543307082
21
-4.8948755118110236
0
LINE
8
BLACK
6
CONTINUOUS
10
8.5841453543307082
20
-4.8948755118110236
11
8.6103920866141728
21
-4.9511184645669291
0
LINE
8
BLACK
6
CONTINUOUS
10
8.6103920866141728
20
-4.9511184645669291
11
8.6366387795275585
21
-4.8948755118110236
0
LINE
8
BLACK
6
CONTINUOUS
10
8.6366387795275585
20
-4.8948755118110236
11
8.6366387795275585
21
-4.9736156692913385
0
LINE
8
BLACK
6
CONTINUOUS
10
8.7078798818897631
20
-4.9736156692913385
11
8.7078798818897631
21
-4.9323708267716535
0
LINE
8
BLACK
6
CONTINUOUS
10
8.7078798818897631
20
-4.9323708267716535
11
8.704130354330708
21
-4.9248717322834645
0
LINE
8
BLACK
6
CONTINUOUS
10
8.704130354330708
20
-4.9248717322834645
11
8.6966312992125978
21
-4.9211222047244094
0
LINE
8
BLACK
6
CONTINUOUS
10
8.6966312992125978
20
-4.9211222047244094
11
8.6816331496062986
21
-4.9211222047244094
0
LINE
8
BLACK
6
CONTINUOUS
10
8.6816331496062986
20
-4.9211222047244094
11
8.6741340944881884
21
-4.9248717322834645
0
LINE
8
BLACK
6
CONTINUOUS
10
8.7078798818897631
20
-4.9698661417322834
11
8.7003808267716529
21
-4.9736156692913385
0
LINE
8
BLACK
6
CONTINUOUS
10
8.7003808267716529
20
-4.9736156692913385
11
8.6816331496062986
21
-4.9736156692913385
0
LINE
8
BLACK
6
CONTINUOUS
10
8.6816331496062986
20
-4.9736156692913385
11
8.6741340944881884
21
-4.9698661417322834
0
LINE
8
BLACK
6
CONTINUOUS
10
8.6741340944881884
20
-4.9698661417322834
11
8.6703845669291333
21
-4.9623670472440944
0
LINE
8
BLACK
6
CONTINUOUS
10
8.6703845669291333
20
-4.9623670472440944
11
8.6703845669291333
21
-4.9548679921259842
0
LINE
8
BLACK
6
CONTINUOUS
10
8.6703845669291333
20
-4.9548679921259842
11
8.6741340944881884
21
-4.9473689370078739
0
LINE
8
BLACK
6
CONTINUOUS
10
8.6741340944881884
20
-4.9473689370078739
11
8.6816331496062986
21
-4.9436194094488188
0
LINE
8
BLACK
6
CONTINUOUS
10
8.6816331496062986
20
-4.9436194094488188
11
8.7003808267716529
21
-4.9436194094488188
0
LINE
8
BLACK
6
CONTINUOUS
10
8.7003808267716529
20
-4.9436194094488188
11
8.7078798818897631
21
-4.9398698818897637
0
LINE
8
BLACK
6
CONTINUOUS
10
8.745375196850393
20
-4.9211222047244094
11
8.745375196850393
21
-4.9998623622047242
0
LINE
8
BLACK
6
CONTINUOUS
10
8.745375196850393
20
-4.9248717322834645
11
8.7528742519685032
21
-4.9211222047244094
0
LINE
8
BLACK
6
CONTINUOUS
10
8.7528742519685032
20
-4.9211222047244094
11
8.7678724015748024
21
-4.9211222047244094
0
LINE
8
BLACK
6
CONTINUOUS
10
8.7678724015748024
20
-4.9211222047244094
11
8.7753714566929126
21
-4.9248717322834645
0
LINE
8
BLACK
6
CONTINUOUS
10
8.7753714566929126
20
-4.9248717322834645
11
8.7791209842519677
21
-4.9286212598425196
0
LINE
8
BLACK
6
CONTINUOUS
10
8.7791209842519677
20
-4.9286212598425196
11
8.7828705118110229
21
-4.9361203543307086
0
LINE
8
BLACK
6
CONTINUOUS
10
8.7828705118110229
20
-4.9361203543307086
11
8.7828705118110229
21
-4.9586175196850393
0
LINE
8
BLACK
6
CONTINUOUS
10
8.7828705118110229
20
-4.9586175196850393
11
8.7791209842519677
21
-4.9661165748031495
0
LINE
8
BLACK
6
CONTINUOUS
10
8.7791209842519677
20
-4.9661165748031495
11
8.7753714566929126
21
-4.9698661417322834
0
LINE
8
BLACK
6
CONTINUOUS
10
8.7753714566929126
20
-4.9698661417322834
11
8.7678724015748024
21
-4.9736156692913385
0
LINE
8
BLACK
6
CONTINUOUS
10
8.7678724015748024
20
-4.9736156692913385
11
8.7528742519685032
21
-4.9736156692913385
0
LINE
8
BLACK
6
CONTINUOUS
10
8.7528742519685032
20
-4.9736156692913385
11
8.745375196850393
21
-4.9698661417322834
0
LINE
8
BLACK
6
CONTINUOUS
10
8.8166162992125976
20
-4.9661165748031495
11
8.8203658267716527
21
-4.9698661417322834
0
LINE
8
BLACK
6
CONTINUOUS
10
8.8203658267716527
20
-4.9698661417322834
11
8.8166162992125976
21
-4.9736156692913385
0
LINE
8
BLACK
6
CONTINUOUS
10
8.8166162992125976
20
-4.9736156692913385
11
8.8128667716535425
21
-4.9698661417322834
0
LINE
8
BLACK
6
CONTINUOUS
10
8.8128667716535425
20
-4.9698661417322834
11
8.8166162992125976
21
-4.9661165748031495
0
LINE
8
BLACK
6
CONTINUOUS
10
8.8166162992125976
20
-4.9661165748031495
11
8.8166162992125976
21
-4.9736156692913385
0
LINE
8
BLACK
6
CONTINUOUS
10
8.8166162992125976
20
-4.9248717322834645
11
8.8203658267716527
21
-4.9286212598425196
0
LINE
8
BLACK
6
CONTINUOUS
10
8.8203658267716527
20
-4.9286212598425196
11
8.8166162992125976
21
-4.9323708267716535
0
LINE
8
BLACK
6
CONTINUOUS
10
8.8166162992125976
20
-4.9323708267716535
11
8.8128667716535425
21
-4.9286212598425196
0
LINE
8
BLACK
6
CONTINUOUS
10
8.8128667716535425
20
-4.9286212598425196
11
8.8166162992125976
21
-4.9248717322834645
0
LINE
8
BLACK
6
CONTINUOUS
10
8.8166162992125976
20
-4.9248717322834645
11
8.8166162992125976
21
-4.9323708267716535
0
LINE
8
BLACK
6
CONTINUOUS
10
8.1620157480314965
20
-5.0969527559055114
11
8.1740157480314952
21
-5.1089527559055119
0
LINE
8
BLACK
6
CONTINUOUS
10
8.1740157480314952
20
-5.0969527559055114
11
8.1620157480314965
21
-5.1089527559055119
0
LINE
8
BLACK
6
CONTINUOUS
10
8.2916818897637796
20
-5.0602298425196848
11
8.2991809842519686
21
-5.0602298425196848
0
LINE
8
BLACK
6
CONTINUOUS
10
8.2991809842519686
20
-5.0602298425196848
11
8.3066800393700788
21
-5.0639793700787399
0
LINE
8
BLACK
6
CONTINUOUS
10
8.3066800393700788
20
-5.0639793700787399
11
8.3104295669291339
21
-5.067728897637795
0
LINE
8
BLACK
6
CONTINUOUS
10
8.3104295669291339
20
-5.067728897637795
11
8.314179094488189
21
-5.0752279527559052
0
LINE
8
BLACK
6
CONTINUOUS
10
8.314179094488189
20
-5.0752279527559052
11
8.3179286220472441
21
-5.0902260629921257
0
LINE
8
BLACK
6
CONTINUOUS
10
8.3179286220472441
20
-5.0902260629921257
11
8.3179286220472441
21
-5.10897374015748
0
LINE
8
BLACK
6
CONTINUOUS
10
8.3179286220472441
20
-5.10897374015748
11
8.314179094488189
21
-5.1239718503937004
0
LINE
8
BLACK
6
CONTINUOUS
10
8.314179094488189
20
-5.1239718503937004
11
8.3104295669291339
21
-5.1314709055118106
0
LINE
8
BLACK
6
CONTINUOUS
10
8.3104295669291339
20
-5.1314709055118106
11
8.3066800393700788
21
-5.1352204724409445
0
LINE
8
BLACK
6
CONTINUOUS
10
8.3066800393700788
20
-5.1352204724409445
11
8.2991809842519686
21
-5.1389699999999996
0
LINE
8
BLACK
6
CONTINUOUS
10
8.2991809842519686
20
-5.1389699999999996
11
8.2916818897637796
21
-5.1389699999999996
0
LINE
8
BLACK
6
CONTINUOUS
10
8.2916818897637796
20
-5.1389699999999996
11
8.2841828346456694
21
-5.1352204724409445
0
LINE
8
BLACK
6
CONTINUOUS
10
8.2841828346456694
20
-5.1352204724409445
11
8.2804333070866143
21
-5.1314709055118106
0
LINE
8
BLACK
6
CONTINUOUS
10
8.2804333070866143
20
-5.1314709055118106
11
8.2766837795275592
21
-5.1239718503937004
0
LINE
8
BLACK
6
CONTINUOUS
10
8.2766837795275592
20
-5.1239718503937004
11
8.2729342519685041
21
-5.10897374015748
0
LINE
8
BLACK
6
CONTINUOUS
10
8.2729342519685041
20
-5.10897374015748
11
8.2729342519685041
21
-5.0902260629921257
0
LINE
8
BLACK
6
CONTINUOUS
10
8.2729342519685041
20
-5.0902260629921257
11
8.2766837795275592
21
-5.0752279527559052
0
LINE
8
BLACK
6
CONTINUOUS
10
8.2766837795275592
20
-5.0752279527559052
11
8.2804333070866143
21
-5.067728897637795
0
LINE
8
BLACK
6
CONTINUOUS
10
8.2804333070866143
20
-5.067728897637795
11
8.2841828346456694
21
-5.0639793700787399
0
LINE
8
BLACK
6
CONTINUOUS
10
8.2841828346456694
20
-5.0639793700787399
11
8.2916818897637796
21
-5.0602298425196848
0
LINE
8
BLACK
6
CONTINUOUS
10
8.3516744094488189
20
-5.1314709055118106
11
8.355423937007874
21
-5.1352204724409445
0
LINE
8
BLACK
6
CONTINUOUS
10
8.355423937007874
20
-5.1352204724409445
11
8.3516744094488189
21
-5.1389699999999996
0
LINE
8
BLACK
6
CONTINUOUS
10
8.3516744094488189
20
-5.1389699999999996
11
8.3479248818897638
21
-5.1352204724409445
0
LINE
8
BLACK
6
CONTINUOUS
10
8.3479248818897638
20
-5.1352204724409445
11
8.3516744094488189
21
-5.1314709055118106
0
LINE
8
BLACK
6
CONTINUOUS
10
8.3516744094488189
20
-5.1314709055118106
11
8.3516744094488189
21
-5.1389699999999996
0
LINE
8
BLACK
6
CONTINUOUS
10
8.3816706692913385
20
-5.0602298425196848
11
8.4304145669291337
21
-5.0602298425196848
0
LINE
8
BLACK
6
CONTINUOUS
10
8.4304145669291337
20
-5.0602298425196848
11
8.4041678346456692
21
-5.0902260629921257
0
LINE
8
BLACK
6
CONTINUOUS
10
8.4041678346456692
20
-5.0902260629921257
11
8.4154164566929133
21
-5.0902260629921257
0
LINE
8
BLACK
6
CONTINUOUS
10
8.4154164566929133
20
-5.0902260629921257
11
8.4229155118110235
21
-5.0939755905511808
0
LINE
8
BLACK
6
CONTINUOUS
10
8.4229155118110235
20
-5.0939755905511808
11
8.4266650393700786
21
-5.0977251574803146
0
LINE
8
BLACK
6
CONTINUOUS
10
8.4266650393700786
20
-5.0977251574803146
11
8.4304145669291337
21
-5.1052242125984248
0
LINE
8
BLACK
6
CONTINUOUS
10
8.4304145669291337
20
-5.1052242125984248
11
8.4304145669291337
21
-5.1239718503937004
0
LINE
8
BLACK
6
CONTINUOUS
10
8.4304145669291337
20
-5.1239718503937004
11
8.4266650393700786
21
-5.1314709055118106
0
LINE
8
BLACK
6
CONTINUOUS
10
8.4266650393700786
20
-5.1314709055118106
11
8.4229155118110235
21
-5.1352204724409445
0
LINE
8
BLACK
6
CONTINUOUS
10
8.4229155118110235
20
-5.1352204724409445
11
8.4154164566929133
21
-5.1389699999999996
0
LINE
8
BLACK
6
CONTINUOUS
10
8.4154164566929133
20
-5.1389699999999996
11
8.3929192519685039
21
-5.1389699999999996
0
LINE
8
BLACK
6
CONTINUOUS
10
8.3929192519685039
20
-5.1389699999999996
11
8.3854201968503936
21
-5.1352204724409445
0
LINE
8
BLACK
6
CONTINUOUS
10
8.3854201968503936
20
-5.1352204724409445
11
8.3816706692913385
21
-5.1314709055118106
0
LINE
8
BLACK
6
CONTINUOUS
10
8.4791584645669289
20
-5.0602298425196848
11
8.4866575590551179
21
-5.0602298425196848
0
LINE
8
BLACK
6
CONTINUOUS
10
8.4866575590551179
20
-5.0602298425196848
11
8.4941566141732281
21
-5.0639793700787399
0
LINE
8
BLACK
6
CONTINUOUS
10
8.4941566141732281
20
-5.0639793700787399
11
8.4979061417322832
21
-5.067728897637795
0
LINE
8
BLACK
6
CONTINUOUS
10
8.4979061417322832
20
-5.067728897637795
11
8.5016556692913383
21
-5.0752279527559052
0
LINE
8
BLACK
6
CONTINUOUS
10
8.5016556692913383
20
-5.0752279527559052
11
8.5054051968503934
21
-5.0902260629921257
0
LINE
8
BLACK
6
CONTINUOUS
10
8.5054051968503934
20
-5.0902260629921257
11
8.5054051968503934
21
-5.10897374015748
0
LINE
8
BLACK
6
CONTINUOUS
10
8.5054051968503934
20
-5.10897374015748
11
8.5016556692913383
21
-5.1239718503937004
0
LINE
8
BLACK
6
CONTINUOUS
10
8.5016556692913383
20
-5.1239718503937004
11
8.4979061417322832
21
-5.1314709055118106
0
LINE
8
BLACK
6
CONTINUOUS
10
8.4979061417322832
20
-5.1314709055118106
11
8.4941566141732281
21
-5.1352204724409445
0
LINE
8
BLACK
6
CONTINUOUS
10
8.4941566141732281
20
-5.1352204724409445
11
8.4866575590551179
21
-5.1389699999999996
0
LINE
8
BLACK
6
CONTINUOUS
10
8.4866575590551179
20
-5.1389699999999996
11
8.4791584645669289
21
-5.1389699999999996
0
LINE
8
BLACK
6
CONTINUOUS
10
8.4791584645669289
20
-5.1389699999999996
11
8.4716594094488187
21
-5.1352204724409445
0
LINE
8
BLACK
6
CONTINUOUS
10
8.4716594094488187
20
-5.1352204724409445
11
8.4679098818897636
21
-5.1314709055118106
0
LINE
8
BLACK
6
CONTINUOUS
10
8.4679098818897636
20
-5.1314709055118106
11
8.4641603543307085
21
-5.1239718503937004
0
LINE
8
BLACK
6
CONTINUOUS
10
8.4641603543307085
20
-5.1239718503937004
11
8.4604108267716533
21
-5.10897374015748
0
LINE
8
BLACK
6
CONTINUOUS
10
8.4604108267716533
20
-5.10897374015748
11
8.4604108267716533
21
-5.0902260629921257
0
LINE
8
BLACK
6
CONTINUOUS
10
8.4604108267716533
20
-5.0902260629921257
11
8.4641603543307085
21
-5.0752279527559052
0
LINE
8
BLACK
6
CONTINUOUS
10
8.4641603543307085
20
-5.0752279527559052
11
8.4679098818897636
21
-5.067728897637795
0
LINE
8
BLACK
6
CONTINUOUS
10
8.4679098818897636
20
-5.067728897637795
11
8.4716594094488187
21
-5.0639793700787399
0
LINE
8
BLACK
6
CONTINUOUS
10
8.4716594094488187
20
-5.0639793700787399
11
8.4791584645669289
21
-5.0602298425196848
0
LINE
8
BLACK
6
CONTINUOUS
10
8.576646299212598
20
-5.0602298425196848
11
8.5391509842519682
21
-5.0602298425196848
0
LINE
8
BLACK
6
CONTINUOUS
10
8.5391509842519682
20
-5.0602298425196848
11
8.5354014566929131
21
-5.0977251574803146
0
LINE
8
BLACK
6
CONTINUOUS
10
8.5354014566929131
20
-5.0977251574803146
11
8.5391509842519682
21
-5.0939755905511808
0
LINE
8
BLACK
6
CONTINUOUS
10
8.5391509842519682
20
-5.0939755905511808
11
8.5466500393700784
21
-5.0902260629921257
0
LINE
8
BLACK
6
CONTINUOUS
10
8.5466500393700784
20
-5.0902260629921257
11
8.5653977165354327
21
-5.0902260629921257
0
LINE
8
BLACK
6
CONTINUOUS
10
8.5653977165354327
20
-5.0902260629921257
11
8.5728967716535429
21
-5.0939755905511808
0
LINE
8
BLACK
6
CONTINUOUS
10
8.5728967716535429
20
-5.0939755905511808
11
8.576646299212598
21
-5.0977251574803146
0
LINE
8
BLACK
6
CONTINUOUS
10
8.576646299212598
20
-5.0977251574803146
11
8.5803958267716531
21
-5.1052242125984248
0
LINE
8
BLACK
6
CONTINUOUS
10
8.5803958267716531
20
-5.1052242125984248
11
8.5803958267716531
21
-5.1239718503937004
0
LINE
8
BLACK
6
CONTINUOUS
10
8.5803958267716531
20
-5.1239718503937004
11
8.576646299212598
21
-5.1314709055118106
0
LINE
8
BLACK
6
CONTINUOUS
10
8.576646299212598
20
-5.1314709055118106
11
8.5728967716535429
21
-5.1352204724409445
0
LINE
8
BLACK
6
CONTINUOUS
10
8.5728967716535429
20
-5.1352204724409445
11
8.5653977165354327
21
-5.1389699999999996
0
LINE
8
BLACK
6
CONTINUOUS
10
8.5653977165354327
20
-5.1389699999999996
11
8.5466500393700784
21
-5.1389699999999996
0
LINE
8
BLACK
6
CONTINUOUS
10
8.5466500393700784
20
-5.1389699999999996
11
8.5391509842519682
21
-5.1352204724409445
0
LINE
8
BLACK
6
CONTINUOUS
10
8.5391509842519682
20
-5.1352204724409445
11
8.5354014566929131
21
-5.1314709055118106
0
LINE
8
BLACK
6
CONTINUOUS
10
8.6141416141732279
20
-5.1389699999999996
11
8.6141416141732279
21
-5.0864765354330705
0
LINE
8
BLACK
6
CONTINUOUS
10
8.6141416141732279
20
-5.0939755905511808
11
8.617891141732283
21
-5.0902260629921257
0
LINE
8
BLACK
6
CONTINUOUS
10
8.617891141732283
20
-5.0902260629921257
11
8.6253901968503932
21
-5.0864765354330705
0
LINE
8
BLACK
6
CONTINUOUS
10
8.6253901968503932
20
-5.0864765354330705
11
8.6366388188976373
21
-5.0864765354330705
0
LINE
8
BLACK
6
CONTINUOUS
10
8.6366388188976373
20
-5.0864765354330705
11
8.6441378740157475
21
-5.0902260629921257
0
LINE
8
BLACK
6
CONTINUOUS
10
8.6441378740157475
20
-5.0902260629921257
11
8.6478874015748026
21
-5.0977251574803146
0
LINE
8
BLACK
6
CONTINUOUS
10
8.6478874015748026
20
-5.0977251574803146
11
8.6478874015748026
21
-5.1389699999999996
0
LINE
8
BLACK
6
CONTINUOUS
10
8.6478874015748026
20
-5.0977251574803146
11
8.6516369291338577
21
-5.0902260629921257
0
LINE
8
BLACK
6
CONTINUOUS
10
8.6516369291338577
20
-5.0902260629921257
11
8.659135984251968
21
-5.0864765354330705
0
LINE
8
BLACK
6
CONTINUOUS
10
8.659135984251968
20
-5.0864765354330705
11
8.6703845669291333
21
-5.0864765354330705
0
LINE
8
BLACK
6
CONTINUOUS
10
8.6703845669291333
20
-5.0864765354330705
11
8.6778836614173223
21
-5.0902260629921257
0
LINE
8
BLACK
6
CONTINUOUS
10
8.6778836614173223
20
-5.0902260629921257
11
8.6816331889763774
21
-5.0977251574803146
0
LINE
8
BLACK
6
CONTINUOUS
10
8.6816331889763774
20
-5.0977251574803146
11
8.6816331889763774
21
-5.1389699999999996
0
LINE
8
BLACK
6
CONTINUOUS
10
8.7191285039370072
20
-5.1389699999999996
11
8.7191285039370072
21
-5.0864765354330705
0
LINE
8
BLACK
6
CONTINUOUS
10
8.7191285039370072
20
-5.0939755905511808
11
8.7228780314960623
21
-5.0902260629921257
0
LINE
8
BLACK
6
CONTINUOUS
10
8.7228780314960623
20
-5.0902260629921257
11
8.7303770866141726
21
-5.0864765354330705
0
LINE
8
BLACK
6
CONTINUOUS
10
8.7303770866141726
20
-5.0864765354330705
11
8.7416257086614166
21
-5.0864765354330705
0
LINE
8
BLACK
6
CONTINUOUS
10
8.7416257086614166
20
-5.0864765354330705
11
8.7491247637795269
21
-5.0902260629921257
0
LINE
8
BLACK
6
CONTINUOUS
10
8.7491247637795269
20
-5.0902260629921257
11
8.752874291338582
21
-5.0977251574803146
0
LINE
8
BLACK
6
CONTINUOUS
10
8.752874291338582
20
-5.0977251574803146
11
8.752874291338582
21
-5.1389699999999996
0
LINE
8
BLACK
6
CONTINUOUS
10
8.752874291338582
20
-5.0977251574803146
11
8.7566238188976371
21
-5.0902260629921257
0
LINE
8
BLACK
6
CONTINUOUS
10
8.7566238188976371
20
-5.0902260629921257
11
8.7641228740157473
21
-5.0864765354330705
0
LINE
8
BLACK
6
CONTINUOUS
10
8.7641228740157473
20
-5.0864765354330705
11
8.7753714566929126
21
-5.0864765354330705
0
LINE
8
BLACK
6
CONTINUOUS
10
8.7753714566929126
20
-5.0864765354330705
11
8.7828705511811016
21
-5.0902260629921257
0
LINE
8
BLACK
6
CONTINUOUS
10
8.7828705511811016
20
-5.0902260629921257
11
8.7866200787401567
21
-5.0977251574803146
0
LINE
8
BLACK
6
CONTINUOUS
10
8.7866200787401567
20
-5.0977251574803146
11
8.7866200787401567
21
-5.1389699999999996
0
LINE
8
BLACK
6
CONTINUOUS
10
8.9403508661417312
20
-5.0564803149606297
11
8.8728593307086605
21
-5.1577176377952751
0
LINE
8
BLACK
6
CONTINUOUS
10
9.0415882283464573
20
-5.0602298425196848
11
9.0490873228346462
21
-5.0602298425196848
0
LINE
8
BLACK
6
CONTINUOUS
10
9.0490873228346462
20
-5.0602298425196848
11
9.0565863779527565
21
-5.0639793700787399
0
LINE
8
BLACK
6
CONTINUOUS
10
9.0565863779527565
20
-5.0639793700787399
11
9.0603359055118116
21
-5.067728897637795
0
LINE
8
BLACK
6
CONTINUOUS
10
9.0603359055118116
20
-5.067728897637795
11
9.0640854330708667
21
-5.0752279527559052
0
LINE
8
BLACK
6
CONTINUOUS
10
9.0640854330708667
20
-5.0752279527559052
11
9.0678349606299218
21
-5.0902260629921257
0
LINE
8
BLACK
6
CONTINUOUS
10
9.0678349606299218
20
-5.0902260629921257
11
9.0678349606299218
21
-5.10897374015748
0
LINE
8
BLACK
6
CONTINUOUS
10
9.0678349606299218
20
-5.10897374015748
11
9.0640854330708667
21
-5.1239718503937004
0
LINE
8
BLACK
6
CONTINUOUS
10
9.0640854330708667
20
-5.1239718503937004
11
9.0603359055118116
21
-5.1314709055118106
0
LINE
8
BLACK
6
CONTINUOUS
10
9.0603359055118116
20
-5.1314709055118106
11
9.0565863779527565
21
-5.1352204724409445
0
LINE
8
BLACK
6
CONTINUOUS
10
9.0565863779527565
20
-5.1352204724409445
11
9.0490873228346462
21
-5.1389699999999996
0
LINE
8
BLACK
6
CONTINUOUS
10
9.0490873228346462
20
-5.1389699999999996
11
9.0415882283464573
21
-5.1389699999999996
0
LINE
8
BLACK
6
CONTINUOUS
10
9.0415882283464573
20
-5.1389699999999996
11
9.034089173228347
21
-5.1352204724409445
0
LINE
8
BLACK
6
CONTINUOUS
10
9.034089173228347
20
-5.1352204724409445
11
9.0303396456692919
21
-5.1314709055118106
0
LINE
8
BLACK
6
CONTINUOUS
10
9.0303396456692919
20
-5.1314709055118106
11
9.0265901181102368
21
-5.1239718503937004
0
LINE
8
BLACK
6
CONTINUOUS
10
9.0265901181102368
20
-5.1239718503937004
11
9.0228405905511817
21
-5.10897374015748
0
LINE
8
BLACK
6
CONTINUOUS
10
9.0228405905511817
20
-5.10897374015748
11
9.0228405905511817
21
-5.0902260629921257
0
LINE
8
BLACK
6
CONTINUOUS
10
9.0228405905511817
20
-5.0902260629921257
11
9.0265901181102368
21
-5.0752279527559052
0
LINE
8
BLACK
6
CONTINUOUS
10
9.0265901181102368
20
-5.0752279527559052
11
9.0303396456692919
21
-5.067728897637795
0
LINE
8
BLACK
6
CONTINUOUS
10
9.0303396456692919
20
-5.067728897637795
11
9.034089173228347
21
-5.0639793700787399
0
LINE
8
BLACK
6
CONTINUOUS
10
9.034089173228347
20
-5.0639793700787399
11
9.0415882283464573
21
-5.0602298425196848
0
LINE
8
BLACK
6
CONTINUOUS
10
9.1015807480314965
20
-5.1314709055118106
11
9.1053302755905516
21
-5.1352204724409445
0
LINE
8
BLACK
6
CONTINUOUS
10
9.1053302755905516
20
-5.1352204724409445
11
9.1015807480314965
21
-5.1389699999999996
0
LINE
8
BLACK
6
CONTINUOUS
10
9.1015807480314965
20
-5.1389699999999996
11
9.0978312204724414
21
-5.1352204724409445
0
LINE
8
BLACK
6
CONTINUOUS
10
9.0978312204724414
20
-5.1352204724409445
11
9.1015807480314965
21
-5.1314709055118106
0
LINE
8
BLACK
6
CONTINUOUS
10
9.1015807480314965
20
-5.1314709055118106
11
9.1015807480314965
21
-5.1389699999999996
0
LINE
8
BLACK
6
CONTINUOUS
10
9.1540741732283468
20
-5.0602298425196848
11
9.1615732677165358
21
-5.0602298425196848
0
LINE
8
BLACK
6
CONTINUOUS
10
9.1615732677165358
20
-5.0602298425196848
11
9.169072322834646
21
-5.0639793700787399
0
LINE
8
BLACK
6
CONTINUOUS
10
9.169072322834646
20
-5.0639793700787399
11
9.1728218503937011
21
-5.067728897637795
0
LINE
8
BLACK
6
CONTINUOUS
10
9.1728218503937011
20
-5.067728897637795
11
9.1765713779527562
21
-5.0752279527559052
0
LINE
8
BLACK
6
CONTINUOUS
10
9.1765713779527562
20
-5.0752279527559052
11
9.1803209055118113
21
-5.0902260629921257
0
LINE
8
BLACK
6
CONTINUOUS
10
9.1803209055118113
20
-5.0902260629921257
11
9.1803209055118113
21
-5.10897374015748
0
LINE
8
BLACK
6
CONTINUOUS
10
9.1803209055118113
20
-5.10897374015748
11
9.1765713779527562
21
-5.1239718503937004
0
LINE
8
BLACK
6
CONTINUOUS
10
9.1765713779527562
20
-5.1239718503937004
11
9.1728218503937011
21
-5.1314709055118106
0
LINE
8
BLACK
6
CONTINUOUS
10
9.1728218503937011
20
-5.1314709055118106
11
9.169072322834646
21
-5.1352204724409445
0
LINE
8
BLACK
6
CONTINUOUS
10
9.169072322834646
20
-5.1352204724409445
11
9.1615732677165358
21
-5.1389699999999996
0
LINE
8
BLACK
6
CONTINUOUS
10
9.1615732677165358
20
-5.1389699999999996
11
9.1540741732283468
21
-5.1389699999999996
0
LINE
8
BLACK
6
CONTINUOUS
10
9.1540741732283468
20
-5.1389699999999996
11
9.1465751181102366
21
-5.1352204724409445
0
LINE
8
BLACK
6
CONTINUOUS
10
9.1465751181102366
20
-5.1352204724409445
11
9.1428255905511815
21
-5.1314709055118106
0
LINE
8
BLACK
6
CONTINUOUS
10
9.1428255905511815
20
-5.1314709055118106
11
9.1390760629921264
21
-5.1239718503937004
0
LINE
8
BLACK
6
CONTINUOUS
10
9.1390760629921264
20
-5.1239718503937004
11
9.1353265354330713
21
-5.10897374015748
0
LINE
8
BLACK
6
CONTINUOUS
10
9.1353265354330713
20
-5.10897374015748
11
9.1353265354330713
21
-5.0902260629921257
0
LINE
8
BLACK
6
CONTINUOUS
10
9.1353265354330713
20
-5.0902260629921257
11
9.1390760629921264
21
-5.0752279527559052
0
LINE
8
BLACK
6
CONTINUOUS
10
9.1390760629921264
20
-5.0752279527559052
11
9.1428255905511815
21
-5.067728897637795
0
LINE
8
BLACK
6
CONTINUOUS
10
9.1428255905511815
20
-5.067728897637795
11
9.1465751181102366
21
-5.0639793700787399
0
LINE
8
BLACK
6
CONTINUOUS
10
9.1465751181102366
20
-5.0639793700787399
11
9.1540741732283468
21
-5.0602298425196848
0
LINE
8
BLACK
6
CONTINUOUS
10
9.2553115354330711
20
-5.1389699999999996
11
9.210317165354331
21
-5.1389699999999996
0
LINE
8
BLACK
6
CONTINUOUS
10
9.2328143307086616
20
-5.1389699999999996
11
9.2328143307086616
21
-5.0602298425196848
0
LINE
8
BLACK
6
CONTINUOUS
10
9.2328143307086616
20
-5.0602298425196848
11
9.2253152755905514
21
-5.0714784251968501
0
LINE
8
BLACK
6
CONTINUOUS
10
9.2253152755905514
20
-5.0714784251968501
11
9.2178162204724412
21
-5.0789774803149603
0
LINE
8
BLACK
6
CONTINUOUS
10
9.2178162204724412
20
-5.0789774803149603
11
9.210317165354331
21
-5.0827270078740154
0
LINE
8
BLACK
6
CONTINUOUS
10
9.2853077952755907
20
-5.067728897637795
11
9.2890573228346458
21
-5.0639793700787399
0
LINE
8
BLACK
6
CONTINUOUS
10
9.2890573228346458
20
-5.0639793700787399
11
9.296556377952756
21
-5.0602298425196848
0
LINE
8
BLACK
6
CONTINUOUS
10
9.296556377952756
20
-5.0602298425196848
11
9.3153040551181103
21
-5.0602298425196848
0
LINE
8
BLACK
6
CONTINUOUS
10
9.3153040551181103
20
-5.0602298425196848
11
9.3228031102362205
21
-5.0639793700787399
0
LINE
8
BLACK
6
CONTINUOUS
10
9.3228031102362205
20
-5.0639793700787399
11
9.3265526377952757
21
-5.067728897637795
0
LINE
8
BLACK
6
CONTINUOUS
10
9.3265526377952757
20
-5.067728897637795
11
9.3303021653543308
21
-5.0752279527559052
0
LINE
8
BLACK
6
CONTINUOUS
10
9.3303021653543308
20
-5.0752279527559052
11
9.3303021653543308
21
-5.0827270078740154
0
LINE
8
BLACK
6
CONTINUOUS
10
9.3303021653543308
20
-5.0827270078740154
11
9.3265526377952757
21
-5.0939755905511808
0
LINE
8
BLACK
6
CONTINUOUS
10
9.3265526377952757
20
-5.0939755905511808
11
9.2815582677165356
21
-5.1389699999999996
0
LINE
8
BLACK
6
CONTINUOUS
10
9.2815582677165356
20
-5.1389699999999996
11
9.3303021653543308
21
-5.1389699999999996
0
LINE
8
BLACK
6
CONTINUOUS
10
9.379046062992126
20
-5.0602298425196848
11
9.3865451574803149
21
-5.0602298425196848
0
LINE
8
BLACK
6
CONTINUOUS
10
9.3865451574803149
20
-5.0602298425196848
11
9.3940442125984251
21
-5.0639793700787399
0
LINE
8
BLACK
6
CONTINUOUS
10
9.3940442125984251
20
-5.0639793700787399
11
9.3977937401574803
21
-5.067728897637795
0
LINE
8
BLACK
6
CONTINUOUS
10
9.3977937401574803
20
-5.067728897637795
11
9.4015432677165354
21
-5.0752279527559052
0
LINE
8
BLACK
6
CONTINUOUS
10
9.4015432677165354
20
-5.0752279527559052
11
9.4052927952755905
21
-5.0902260629921257
0
LINE
8
BLACK
6
CONTINUOUS
10
9.4052927952755905
20
-5.0902260629921257
11
9.4052927952755905
21
-5.10897374015748
0
LINE
8
BLACK
6
CONTINUOUS
10
9.4052927952755905
20
-5.10897374015748
11
9.4015432677165354
21
-5.1239718503937004
0
LINE
8
BLACK
6
CONTINUOUS
10
9.4015432677165354
20
-5.1239718503937004
11
9.3977937401574803
21
-5.1314709055118106
0
LINE
8
BLACK
6
CONTINUOUS
10
9.3977937401574803
20
-5.1314709055118106
11
9.3940442125984251
21
-5.1352204724409445
0
LINE
8
BLACK
6
CONTINUOUS
10
9.3940442125984251
20
-5.1352204724409445
11
9.3865451574803149
21
-5.1389699999999996
0
LINE
8
BLACK
6
CONTINUOUS
10
9.3865451574803149
20
-5.1389699999999996
11
9.379046062992126
21
-5.1389699999999996
0
LINE
8
BLACK
6
CONTINUOUS
10
9.379046062992126
20
-5.1389699999999996
11
9.3715470078740157
21
-5.1352204724409445
0
LINE
8
BLACK
6
CONTINUOUS
10
9.3715470078740157
20
-5.1352204724409445
11
9.3677974803149606
21
-5.1314709055118106
0
LINE
8
BLACK
6
CONTINUOUS
10
9.3677974803149606
20
-5.1314709055118106
11
9.3640479527559055
21
-5.1239718503937004
0
LINE
8
BLACK
6
CONTINUOUS
10
9.3640479527559055
20
-5.1239718503937004
11
9.3602984251968504
21
-5.10897374015748
0
LINE
8
BLACK
6
CONTINUOUS
10
9.3602984251968504
20
-5.10897374015748
11
9.3602984251968504
21
-5.0902260629921257
0
LINE
8
BLACK
6
CONTINUOUS
10
9.3602984251968504
20
-5.0902260629921257
11
9.3640479527559055
21
-5.0752279527559052
0
LINE
8
BLACK
6
CONTINUOUS
10
9.3640479527559055
20
-5.0752279527559052
11
9.3677974803149606
21
-5.067728897637795
0
LINE
8
BLACK
6
CONTINUOUS
10
9.3677974803149606
20
-5.067728897637795
11
9.3715470078740157
21
-5.0639793700787399
0
LINE
8
BLACK
6
CONTINUOUS
10
9.3715470078740157
20
-5.0639793700787399
11
9.379046062992126
21
-5.0602298425196848
0
LINE
8
BLACK
6
CONTINUOUS
10
9.4352890551181101
20
-5.0602298425196848
11
9.4352890551181101
21
-5.0752279527559052
0
LINE
8
BLACK
6
CONTINUOUS
10
9.4652853149606297
20
-5.0602298425196848
11
9.4652853149606297
21
-5.0752279527559052
0
LINE
8
BLACK
6
CONTINUOUS
10
9.5815208267716532
20
-5.1689662204724405
11
9.5777712598425193
21
-5.1652166929133854
0
LINE
8
BLACK
6
CONTINUOUS
10
9.5777712598425193
20
-5.1652166929133854
11
9.5702722047244091
21
-5.15396811023622
0
LINE
8
BLACK
6
CONTINUOUS
10
9.5702722047244091
20
-5.15396811023622
11
9.566522677165354
21
-5.1464690551181098
0
LINE
8
BLACK
6
CONTINUOUS
10
9.566522677165354
20
-5.1464690551181098
11
9.5627731496062989
21
-5.1352204724409445
0
LINE
8
BLACK
6
CONTINUOUS
10
9.5627731496062989
20
-5.1352204724409445
11
9.5590236220472438
21
-5.1164727952755902
0
LINE
8
BLACK
6
CONTINUOUS
10
9.5590236220472438
20
-5.1164727952755902
11
9.5590236220472438
21
-5.1014746850393697
0
LINE
8
BLACK
6
CONTINUOUS
10
9.5590236220472438
20
-5.1014746850393697
11
9.5627731496062989
21
-5.0827270078740154
0
LINE
8
BLACK
6
CONTINUOUS
10
9.5627731496062989
20
-5.0827270078740154
11
9.566522677165354
21
-5.0714784251968501
0
LINE
8
BLACK
6
CONTINUOUS
10
9.566522677165354
20
-5.0714784251968501
11
9.5702722047244091
21
-5.0639793700787399
0
LINE
8
BLACK
6
CONTINUOUS
10
9.5702722047244091
20
-5.0639793700787399
11
9.5777712598425193
21
-5.0527307480314958
0
LINE
8
BLACK
6
CONTINUOUS
10
9.5777712598425193
20
-5.0527307480314958
11
9.5815208267716532
21
-5.0489812204724407
0
LINE
8
BLACK
6
CONTINUOUS
10
9.652761889763779
20
-5.1389699999999996
11
9.6077675196850389
21
-5.1389699999999996
0
LINE
8
BLACK
6
CONTINUOUS
10
9.6302646850393696
20
-5.1389699999999996
11
9.6302646850393696
21
-5.0602298425196848
0
LINE
8
BLACK
6
CONTINUOUS
10
9.6302646850393696
20
-5.0602298425196848
11
9.6227656299212594
21
-5.0714784251968501
0
LINE
8
BLACK
6
CONTINUOUS
10
9.6227656299212594
20
-5.0714784251968501
11
9.6152665748031492
21
-5.0789774803149603
0
LINE
8
BLACK
6
CONTINUOUS
10
9.6152665748031492
20
-5.0789774803149603
11
9.6077675196850389
21
-5.0827270078740154
0
LINE
8
BLACK
6
CONTINUOUS
10
9.6902572047244089
20
-5.1389699999999996
11
9.7052553149606293
21
-5.1389699999999996
0
LINE
8
BLACK
6
CONTINUOUS
10
9.7052553149606293
20
-5.1389699999999996
11
9.7127544094488183
21
-5.1352204724409445
0
LINE
8
BLACK
6
CONTINUOUS
10
9.7127544094488183
20
-5.1352204724409445
11
9.7165039370078734
21
-5.1314709055118106
0
LINE
8
BLACK
6
CONTINUOUS
10
9.7165039370078734
20
-5.1314709055118106
11
9.7240029921259836
21
-5.1202223228346453
0
LINE
8
BLACK
6
CONTINUOUS
10
9.7240029921259836
20
-5.1202223228346453
11
9.7277525196850387
21
-5.1052242125984248
0
LINE
8
BLACK
6
CONTINUOUS
10
9.7277525196850387
20
-5.1052242125984248
11
9.7277525196850387
21
-5.0752279527559052
0
LINE
8
BLACK
6
CONTINUOUS
10
9.7277525196850387
20
-5.0752279527559052
11
9.7240029921259836
21
-5.067728897637795
0
LINE
8
BLACK
6
CONTINUOUS
10
9.7240029921259836
20
-5.067728897637795
11
9.7202534645669285
21
-5.0639793700787399
0
LINE
8
BLACK
6
CONTINUOUS
10
9.7202534645669285
20
-5.0639793700787399
11
9.7127544094488183
21
-5.0602298425196848
0
LINE
8
BLACK
6
CONTINUOUS
10
9.7127544094488183
20
-5.0602298425196848
11
9.6977562598425191
21
-5.0602298425196848
0
LINE
8
BLACK
6
CONTINUOUS
10
9.6977562598425191
20
-5.0602298425196848
11
9.6902572047244089
21
-5.0639793700787399
0
LINE
8
BLACK
6
CONTINUOUS
10
9.6902572047244089
20
-5.0639793700787399
11
9.6865076771653538
21
-5.067728897637795
0
LINE
8
BLACK
6
CONTINUOUS
10
9.6865076771653538
20
-5.067728897637795
11
9.6827581496062987
21
-5.0752279527559052
0
LINE
8
BLACK
6
CONTINUOUS
10
9.6827581496062987
20
-5.0752279527559052
11
9.6827581496062987
21
-5.0939755905511808
0
LINE
8
BLACK
6
CONTINUOUS
10
9.6827581496062987
20
-5.0939755905511808
11
9.6865076771653538
21
-5.1014746850393697
0
LINE
8
BLACK
6
CONTINUOUS
10
9.6865076771653538
20
-5.1014746850393697
11
9.6902572047244089
21
-5.1052242125984248
0
LINE
8
BLACK
6
CONTINUOUS
10
9.6902572047244089
20
-5.1052242125984248
11
9.6977562598425191
21
-5.10897374015748
0
LINE
8
BLACK
6
CONTINUOUS
10
9.6977562598425191
20
-5.10897374015748
11
9.7127544094488183
21
-5.10897374015748
0
LINE
8
BLACK
6
CONTINUOUS
10
9.7127544094488183
20
-5.10897374015748
11
9.7202534645669285
21
-5.1052242125984248
0
LINE
8
BLACK
6
CONTINUOUS
10
9.7202534645669285
20
-5.1052242125984248
11
9.7240029921259836
21
-5.1014746850393697
0
LINE
8
BLACK
6
CONTINUOUS
10
9.7240029921259836
20
-5.1014746850393697
11
9.7277525196850387
21
-5.0939755905511808
0
LINE
8
BLACK
6
CONTINUOUS
10
9.8214908267716527
20
-5.1389699999999996
11
9.8214908267716527
21
-5.0602298425196848
0
LINE
8
BLACK
6
CONTINUOUS
10
9.8552366141732275
20
-5.1389699999999996
11
9.8552366141732275
21
-5.0977251574803146
0
LINE
8
BLACK
6
CONTINUOUS
10
9.8552366141732275
20
-5.0977251574803146
11
9.8514870866141724
21
-5.0902260629921257
0
LINE
8
BLACK
6
CONTINUOUS
10
9.8514870866141724
20
-5.0902260629921257
11
9.8439880314960622
21
-5.0864765354330705
0
LINE
8
BLACK
6
CONTINUOUS
10
9.8439880314960622
20
-5.0864765354330705
11
9.8327394094488181
21
-5.0864765354330705
0
LINE
8
BLACK
6
CONTINUOUS
10
9.8327394094488181
20
-5.0864765354330705
11
9.8252403543307079
21
-5.0902260629921257
0
LINE
8
BLACK
6
CONTINUOUS
10
9.8252403543307079
20
-5.0902260629921257
11
9.8214908267716527
21
-5.0939755905511808
0
LINE
8
BLACK
6
CONTINUOUS
10
9.9039805118110227
20
-5.1389699999999996
11
9.8964814566929125
21
-5.1352204724409445
0
LINE
8
BLACK
6
CONTINUOUS
10
9.8964814566929125
20
-5.1352204724409445
11
9.8927319291338573
21
-5.1314709055118106
0
LINE
8
BLACK
6
CONTINUOUS
10
9.8927319291338573
20
-5.1314709055118106
11
9.8889824015748022
21
-5.1239718503937004
0
LINE
8
BLACK
6
CONTINUOUS
10
9.8889824015748022
20
-5.1239718503937004
11
9.8889824015748022
21
-5.1014746850393697
0
LINE
8
BLACK
6
CONTINUOUS
10
9.8889824015748022
20
-5.1014746850393697
11
9.8927319291338573
21
-5.0939755905511808
0
LINE
8
BLACK
6
CONTINUOUS
10
9.8927319291338573
20
-5.0939755905511808
11
9.8964814566929125
21
-5.0902260629921257
0
LINE
8
BLACK
6
CONTINUOUS
10
9.8964814566929125
20
-5.0902260629921257
11
9.9039805118110227
21
-5.0864765354330705
0
LINE
8
BLACK
6
CONTINUOUS
10
9.9039805118110227
20
-5.0864765354330705
11
9.9152291338582668
21
-5.0864765354330705
0
LINE
8
BLACK
6
CONTINUOUS
10
9.9152291338582668
20
-5.0864765354330705
11
9.922728188976377
21
-5.0902260629921257
0
LINE
8
BLACK
6
CONTINUOUS
10
9.922728188976377
20
-5.0902260629921257
11
9.9264777165354321
21
-5.0939755905511808
0
LINE
8
BLACK
6
CONTINUOUS
10
9.9264777165354321
20
-5.0939755905511808
11
9.9302272440944872
21
-5.1014746850393697
0
LINE
8
BLACK
6
CONTINUOUS
10
9.9302272440944872
20
-5.1014746850393697
11
9.9302272440944872
21
-5.1239718503937004
0
LINE
8
BLACK
6
CONTINUOUS
10
9.9302272440944872
20
-5.1239718503937004
11
9.9264777165354321
21
-5.1314709055118106
0
LINE
8
BLACK
6
CONTINUOUS
10
9.9264777165354321
20
-5.1314709055118106
11
9.922728188976377
21
-5.1352204724409445
0
LINE
8
BLACK
6
CONTINUOUS
10
9.922728188976377
20
-5.1352204724409445
11
9.9152291338582668
21
-5.1389699999999996
0
LINE
8
BLACK
6
CONTINUOUS
10
9.9152291338582668
20
-5.1389699999999996
11
9.9039805118110227
21
-5.1389699999999996
0
LINE
8
BLACK
6
CONTINUOUS
10
9.9752216141732273
20
-5.1389699999999996
11
9.9677225590551171
21
-5.1352204724409445
0
LINE
8
BLACK
6
CONTINUOUS
10
9.9677225590551171
20
-5.1352204724409445
11
9.9639730314960619
21
-5.1277213779527555
0
LINE
8
BLACK
6
CONTINUOUS
10
9.9639730314960619
20
-5.1277213779527555
11
9.9639730314960619
21
-5.0602298425196848
0
LINE
8
BLACK
6
CONTINUOUS
10
10.0352141338582683
20
-5.1352204724409445
11
10.0277150787401581
21
-5.1389699999999996
0
LINE
8
BLACK
6
CONTINUOUS
10
10.0277150787401581
20
-5.1389699999999996
11
10.0127169291338589
21
-5.1389699999999996
0
LINE
8
BLACK
6
CONTINUOUS
10
10.0127169291338589
20
-5.1389699999999996
11
10.0052178740157487
21
-5.1352204724409445
0
LINE
8
BLACK
6
CONTINUOUS
10
10.0052178740157487
20
-5.1352204724409445
11
10.0014683464566918
21
-5.1277213779527555
0
LINE
8
BLACK
6
CONTINUOUS
10
10.0014683464566918
20
-5.1277213779527555
11
10.0014683464566918
21
-5.0977251574803146
0
LINE
8
BLACK
6
CONTINUOUS
10
10.0014683464566918
20
-5.0977251574803146
11
10.0052178740157487
21
-5.0902260629921257
0
LINE
8
BLACK
6
CONTINUOUS
10
10.0052178740157487
20
-5.0902260629921257
11
10.0127169291338589
21
-5.0864765354330705
0
LINE
8
BLACK
6
CONTINUOUS
10
10.0127169291338589
20
-5.0864765354330705
11
10.0277150787401581
21
-5.0864765354330705
0
LINE
8
BLACK
6
CONTINUOUS
10
10.0277150787401581
20
-5.0864765354330705
11
10.0352141338582683
21
-5.0902260629921257
0
LINE
8
BLACK
6
CONTINUOUS
10
10.0352141338582683
20
-5.0902260629921257
11
10.0389636614173234
21
-5.0977251574803146
0
LINE
8
BLACK
6
CONTINUOUS
10
10.0389636614173234
20
-5.0977251574803146
11
10.0389636614173234
21
-5.1052242125984248
0
LINE
8
BLACK
6
CONTINUOUS
10
10.0389636614173234
20
-5.1052242125984248
11
10.0014683464566918
21
-5.1127232677165351
0
LINE
8
BLACK
6
CONTINUOUS
10
10.0689599212598431
20
-5.1352204724409445
11
10.0764589763779533
21
-5.1389699999999996
0
LINE
8
BLACK
6
CONTINUOUS
10
10.0764589763779533
20
-5.1389699999999996
11
10.0914570866141737
21
-5.1389699999999996
0
LINE
8
BLACK
6
CONTINUOUS
10
10.0914570866141737
20
-5.1389699999999996
11
10.0989561811023627
21
-5.1352204724409445
0
LINE
8
BLACK
6
CONTINUOUS
10
10.0989561811023627
20
-5.1352204724409445
11
10.1027057086614178
21
-5.1277213779527555
0
LINE
8
BLACK
6
CONTINUOUS
10
10.1027057086614178
20
-5.1277213779527555
11
10.1027057086614178
21
-5.1239718503937004
0
LINE
8
BLACK
6
CONTINUOUS
10
10.1027057086614178
20
-5.1239718503937004
11
10.0989561811023627
21
-5.1164727952755902
0
LINE
8
BLACK
6
CONTINUOUS
10
10.0989561811023627
20
-5.1164727952755902
11
10.0914570866141737
21
-5.1127232677165351
0
LINE
8
BLACK
6
CONTINUOUS
10
10.0914570866141737
20
-5.1127232677165351
11
10.0802085039370084
21
-5.1127232677165351
0
LINE
8
BLACK
6
CONTINUOUS
10
10.0802085039370084
20
-5.1127232677165351
11
10.0727094488188982
21
-5.10897374015748
0
LINE
8
BLACK
6
CONTINUOUS
10
10.0727094488188982
20
-5.10897374015748
11
10.0689599212598431
21
-5.1014746850393697
0
LINE
8
BLACK
6
CONTINUOUS
10
10.0689599212598431
20
-5.1014746850393697
11
10.0689599212598431
21
-5.0977251574803146
0
LINE
8
BLACK
6
CONTINUOUS
10
10.0689599212598431
20
-5.0977251574803146
11
10.0727094488188982
21
-5.0902260629921257
0
LINE
8
BLACK
6
CONTINUOUS
10
10.0727094488188982
20
-5.0902260629921257
11
10.0802085039370084
21
-5.0864765354330705
0
LINE
8
BLACK
6
CONTINUOUS
10
10.0802085039370084
20
-5.0864765354330705
11
10.0914570866141737
21
-5.0864765354330705
0
LINE
8
BLACK
6
CONTINUOUS
10
10.0914570866141737
20
-5.0864765354330705
11
10.0989561811023627
21
-5.0902260629921257
0
LINE
8
BLACK
6
CONTINUOUS
10
10.1289524409448823
20
-5.1689662204724405
11
10.1327019685039375
21
-5.1652166929133854
0
LINE
8
BLACK
6
CONTINUOUS
10
10.1327019685039375
20
-5.1652166929133854
11
10.1402010236220477
21
-5.15396811023622
0
LINE
8
BLACK
6
CONTINUOUS
10
10.1402010236220477
20
-5.15396811023622
11
10.1439505511811028
21
-5.1464690551181098
0
LINE
8
BLACK
6
CONTINUOUS
10
10.1439505511811028
20
-5.1464690551181098
11
10.1477000787401579
21
-5.1352204724409445
0
LINE
8
BLACK
6
CONTINUOUS
10
10.1477000787401579
20
-5.1352204724409445
11
10.151449606299213
21
-5.1164727952755902
0
LINE
8
BLACK
6
CONTINUOUS
10
10.151449606299213
20
-5.1164727952755902
11
10.151449606299213
21
-5.1014746850393697
0
LINE
8
BLACK
6
CONTINUOUS
10
10.151449606299213
20
-5.1014746850393697
11
10.1477000787401579
21
-5.0827270078740154
0
LINE
8
BLACK
6
CONTINUOUS
10
10.1477000787401579
20
-5.0827270078740154
11
10.1439505511811028
21
-5.0714784251968501
0
LINE
8
BLACK
6
CONTINUOUS
10
10.1439505511811028
20
-5.0714784251968501
11
10.1402010236220477
21
-5.0639793700787399
0
LINE
8
BLACK
6
CONTINUOUS
10
10.1402010236220477
20
-5.0639793700787399
11
10.1327019685039375
21
-5.0527307480314958
0
LINE
8
BLACK
6
CONTINUOUS
10
10.1327019685039375
20
-5.0527307480314958
11
10.1289524409448823
21
-5.0489812204724407
0
CIRCLE
8
BLACK
10
8.1346456692913378
20
-5.2068897637795271
40
0.0393700787401575
0
LINE
8
BLACK
6
CONTINUOUS
10
8.269184724409449
20
-5.164166850393701
11
8.3179286220472441
21
-5.164166850393701
0
LINE
8
BLACK
6
CONTINUOUS
10
8.3179286220472441
20
-5.164166850393701
11
8.2916818897637796
21
-5.1941630708661419
0
LINE
8
BLACK
6
CONTINUOUS
10
8.2916818897637796
20
-5.1941630708661419
11
8.3029305118110237
21
-5.1941630708661419
0
LINE
8
BLACK
6
CONTINUOUS
10
8.3029305118110237
20
-5.1941630708661419
11
8.3104295669291339
21
-5.197912598425197
0
LINE
8
BLACK
6
CONTINUOUS
10
8.3104295669291339
20
-5.197912598425197
11
8.314179094488189
21
-5.2016621653543309
0
LINE
8
BLACK
6
CONTINUOUS
10
8.314179094488189
20
-5.2016621653543309
11
8.3179286220472441
21
-5.2091612204724411
0
LINE
8
BLACK
6
CONTINUOUS
10
8.3179286220472441
20
-5.2091612204724411
11
8.3179286220472441
21
-5.2279088582677167
0
LINE
8
BLACK
6
CONTINUOUS
10
8.3179286220472441
20
-5.2279088582677167
11
8.314179094488189
21
-5.2354079133858269
0
LINE
8
BLACK
6
CONTINUOUS
10
8.314179094488189
20
-5.2354079133858269
11
8.3104295669291339
21
-5.2391574803149608
0
LINE
8
BLACK
6
CONTINUOUS
10
8.3104295669291339
20
-5.2391574803149608
11
8.3029305118110237
21
-5.2429070078740159
0
LINE
8
BLACK
6
CONTINUOUS
10
8.3029305118110237
20
-5.2429070078740159
11
8.2804333070866143
21
-5.2429070078740159
0
LINE
8
BLACK
6
CONTINUOUS
10
8.2804333070866143
20
-5.2429070078740159
11
8.2729342519685041
21
-5.2391574803149608
0
LINE
8
BLACK
6
CONTINUOUS
10
8.2729342519685041
20
-5.2391574803149608
11
8.269184724409449
21
-5.2354079133858269
0
LINE
8
BLACK
6
CONTINUOUS
10
8.3516744094488189
20
-5.2354079133858269
11
8.355423937007874
21
-5.2391574803149608
0
LINE
8
BLACK
6
CONTINUOUS
10
8.355423937007874
20
-5.2391574803149608
11
8.3516744094488189
21
-5.2429070078740159
0
LINE
8
BLACK
6
CONTINUOUS
10
8.3516744094488189
20
-5.2429070078740159
11
8.3479248818897638
21
-5.2391574803149608
0
LINE
8
BLACK
6
CONTINUOUS
10
8.3479248818897638
20
-5.2391574803149608
11
8.3516744094488189
21
-5.2354079133858269
0
LINE
8
BLACK
6
CONTINUOUS
10
8.3516744094488189
20
-5.2354079133858269
11
8.3516744094488189
21
-5.2429070078740159
0
LINE
8
BLACK
6
CONTINUOUS
10
8.3854201968503936
20
-5.1716659055118113
11
8.3891697244094487
21
-5.1679163779527562
0
LINE
8
BLACK
6
CONTINUOUS
10
8.3891697244094487
20
-5.1679163779527562
11
8.396668779527559
21
-5.164166850393701
0
LINE
8
BLACK
6
CONTINUOUS
10
8.396668779527559
20
-5.164166850393701
11
8.4154164566929133
21
-5.164166850393701
0
LINE
8
BLACK
6
CONTINUOUS
10
8.4154164566929133
20
-5.164166850393701
11
8.4229155118110235
21
-5.1679163779527562
0
LINE
8
BLACK
6
CONTINUOUS
10
8.4229155118110235
20
-5.1679163779527562
11
8.4266650393700786
21
-5.1716659055118113
0
LINE
8
BLACK
6
CONTINUOUS
10
8.4266650393700786
20
-5.1716659055118113
11
8.4304145669291337
21
-5.1791649606299215
0
LINE
8
BLACK
6
CONTINUOUS
10
8.4304145669291337
20
-5.1791649606299215
11
8.4304145669291337
21
-5.1866640157480317
0
LINE
8
BLACK
6
CONTINUOUS
10
8.4304145669291337
20
-5.1866640157480317
11
8.4266650393700786
21
-5.197912598425197
0
LINE
8
BLACK
6
CONTINUOUS
10
8.4266650393700786
20
-5.197912598425197
11
8.3816706692913385
21
-5.2429070078740159
0
LINE
8
BLACK
6
CONTINUOUS
10
8.3816706692913385
20
-5.2429070078740159
11
8.4304145669291337
21
-5.2429070078740159
0
LINE
8
BLACK
6
CONTINUOUS
10
8.4791584645669289
20
-5.164166850393701
11
8.4866575590551179
21
-5.164166850393701
0
LINE
8
BLACK
6
CONTINUOUS
10
8.4866575590551179
20
-5.164166850393701
11
8.4941566141732281
21
-5.1679163779527562
0
LINE
8
BLACK
6
CONTINUOUS
10
8.4941566141732281
20
-5.1679163779527562
11
8.4979061417322832
21
-5.1716659055118113
0
LINE
8
BLACK
6
CONTINUOUS
10
8.4979061417322832
20
-5.1716659055118113
11
8.5016556692913383
21
-5.1791649606299215
0
LINE
8
BLACK
6
CONTINUOUS
10
8.5016556692913383
20
-5.1791649606299215
11
8.5054051968503934
21
-5.1941630708661419
0
LINE
8
BLACK
6
CONTINUOUS
10
8.5054051968503934
20
-5.1941630708661419
11
8.5054051968503934
21
-5.2129107480314962
0
LINE
8
BLACK
6
CONTINUOUS
10
8.5054051968503934
20
-5.2129107480314962
11
8.5016556692913383
21
-5.2279088582677167
0
LINE
8
BLACK
6
CONTINUOUS
10
8.5016556692913383
20
-5.2279088582677167
11
8.4979061417322832
21
-5.2354079133858269
0
LINE
8
BLACK
6
CONTINUOUS
10
8.4979061417322832
20
-5.2354079133858269
11
8.4941566141732281
21
-5.2391574803149608
0
LINE
8
BLACK
6
CONTINUOUS
10
8.4941566141732281
20
-5.2391574803149608
11
8.4866575590551179
21
-5.2429070078740159
0
LINE
8
BLACK
6
CONTINUOUS
10
8.4866575590551179
20
-5.2429070078740159
11
8.4791584645669289
21
-5.2429070078740159
0
LINE
8
BLACK
6
CONTINUOUS
10
8.4791584645669289
20
-5.2429070078740159
11
8.4716594094488187
21
-5.2391574803149608
0
LINE
8
BLACK
6
CONTINUOUS
10
8.4716594094488187
20
-5.2391574803149608
11
8.4679098818897636
21
-5.2354079133858269
0
LINE
8
BLACK
6
CONTINUOUS
10
8.4679098818897636
20
-5.2354079133858269
11
8.4641603543307085
21
-5.2279088582677167
0
LINE
8
BLACK
6
CONTINUOUS
10
8.4641603543307085
20
-5.2279088582677167
11
8.4604108267716533
21
-5.2129107480314962
0
LINE
8
BLACK
6
CONTINUOUS
10
8.4604108267716533
20
-5.2129107480314962
11
8.4604108267716533
21
-5.1941630708661419
0
LINE
8
BLACK
6
CONTINUOUS
10
8.4604108267716533
20
-5.1941630708661419
11
8.4641603543307085
21
-5.1791649606299215
0
LINE
8
BLACK
6
CONTINUOUS
10
8.4641603543307085
20
-5.1791649606299215
11
8.4679098818897636
21
-5.1716659055118113
0
LINE
8
BLACK
6
CONTINUOUS
10
8.4679098818897636
20
-5.1716659055118113
11
8.4716594094488187
21
-5.1679163779527562
0
LINE
8
BLACK
6
CONTINUOUS
10
8.4716594094488187
20
-5.1679163779527562
11
8.4791584645669289
21
-5.164166850393701
0
LINE
8
BLACK
6
CONTINUOUS
10
8.5541490944881886
20
-5.164166850393701
11
8.5616481889763776
21
-5.164166850393701
0
LINE
8
BLACK
6
CONTINUOUS
10
8.5616481889763776
20
-5.164166850393701
11
8.5691472440944878
21
-5.1679163779527562
0
LINE
8
BLACK
6
CONTINUOUS
10
8.5691472440944878
20
-5.1679163779527562
11
8.5728967716535429
21
-5.1716659055118113
0
LINE
8
BLACK
6
CONTINUOUS
10
8.5728967716535429
20
-5.1716659055118113
11
8.576646299212598
21
-5.1791649606299215
0
LINE
8
BLACK
6
CONTINUOUS
10
8.576646299212598
20
-5.1791649606299215
11
8.5803958267716531
21
-5.1941630708661419
0
LINE
8
BLACK
6
CONTINUOUS
10
8.5803958267716531
20
-5.1941630708661419
11
8.5803958267716531
21
-5.2129107480314962
0
LINE
8
BLACK
6
CONTINUOUS
10
8.5803958267716531
20
-5.2129107480314962
11
8.576646299212598
21
-5.2279088582677167
0
LINE
8
BLACK
6
CONTINUOUS
10
8.576646299212598
20
-5.2279088582677167
11
8.5728967716535429
21
-5.2354079133858269
0
LINE
8
BLACK
6
CONTINUOUS
10
8.5728967716535429
20
-5.2354079133858269
11
8.5691472440944878
21
-5.2391574803149608
0
LINE
8
BLACK
6
CONTINUOUS
10
8.5691472440944878
20
-5.2391574803149608
11
8.5616481889763776
21
-5.2429070078740159
0
LINE
8
BLACK
6
CONTINUOUS
10
8.5616481889763776
20
-5.2429070078740159
11
8.5541490944881886
21
-5.2429070078740159
0
LINE
8
BLACK
6
CONTINUOUS
10
8.5541490944881886
20
-5.2429070078740159
11
8.5466500393700784
21
-5.2391574803149608
0
LINE
8
BLACK
6
CONTINUOUS
10
8.5466500393700784
20
-5.2391574803149608
11
8.5429005118110233
21
-5.2354079133858269
0
LINE
8
BLACK
6
CONTINUOUS
10
8.5429005118110233
20
-5.2354079133858269
11
8.5391509842519682
21
-5.2279088582677167
0
LINE
8
BLACK
6
CONTINUOUS
10
8.5391509842519682
20
-5.2279088582677167
11
8.5354014566929131
21
-5.2129107480314962
0
LINE
8
BLACK
6
CONTINUOUS
10
8.5354014566929131
20
-5.2129107480314962
11
8.5354014566929131
21
-5.1941630708661419
0
LINE
8
BLACK
6
CONTINUOUS
10
8.5354014566929131
20
-5.1941630708661419
11
8.5391509842519682
21
-5.1791649606299215
0
LINE
8
BLACK
6
CONTINUOUS
10
8.5391509842519682
20
-5.1791649606299215
11
8.5429005118110233
21
-5.1716659055118113
0
LINE
8
BLACK
6
CONTINUOUS
10
8.5429005118110233
20
-5.1716659055118113
11
8.5466500393700784
21
-5.1679163779527562
0
LINE
8
BLACK
6
CONTINUOUS
10
8.5466500393700784
20
-5.1679163779527562
11
8.5541490944881886
21
-5.164166850393701
0
LINE
8
BLACK
6
CONTINUOUS
10
8.6141416141732279
20
-5.2429070078740159
11
8.6141416141732279
21
-5.1904135433070868
0
LINE
8
BLACK
6
CONTINUOUS
10
8.6141416141732279
20
-5.197912598425197
11
8.617891141732283
21
-5.1941630708661419
0
LINE
8
BLACK
6
CONTINUOUS
10
8.617891141732283
20
-5.1941630708661419
11
8.6253901968503932
21
-5.1904135433070868
0
LINE
8
BLACK
6
CONTINUOUS
10
8.6253901968503932
20
-5.1904135433070868
11
8.6366388188976373
21
-5.1904135433070868
0
LINE
8
BLACK
6
CONTINUOUS
10
8.6366388188976373
20
-5.1904135433070868
11
8.6441378740157475
21
-5.1941630708661419
0
LINE
8
BLACK
6
CONTINUOUS
10
8.6441378740157475
20
-5.1941630708661419
11
8.6478874015748026
21
-5.2016621653543309
0
LINE
8
BLACK
6
CONTINUOUS
10
8.6478874015748026
20
-5.2016621653543309
11
8.6478874015748026
21
-5.2429070078740159
0
LINE
8
BLACK
6
CONTINUOUS
10
8.6478874015748026
20
-5.2016621653543309
11
8.6516369291338577
21
-5.1941630708661419
0
LINE
8
BLACK
6
CONTINUOUS
10
8.6516369291338577
20
-5.1941630708661419
11
8.659135984251968
21
-5.1904135433070868
0
LINE
8
BLACK
6
CONTINUOUS
10
8.659135984251968
20
-5.1904135433070868
11
8.6703845669291333
21
-5.1904135433070868
0
LINE
8
BLACK
6
CONTINUOUS
10
8.6703845669291333
20
-5.1904135433070868
11
8.6778836614173223
21
-5.1941630708661419
0
LINE
8
BLACK
6
CONTINUOUS
10
8.6778836614173223
20
-5.1941630708661419
11
8.6816331889763774
21
-5.2016621653543309
0
LINE
8
BLACK
6
CONTINUOUS
10
8.6816331889763774
20
-5.2016621653543309
11
8.6816331889763774
21
-5.2429070078740159
0
LINE
8
BLACK
6
CONTINUOUS
10
8.7191285039370072
20
-5.2429070078740159
11
8.7191285039370072
21
-5.1904135433070868
0
LINE
8
BLACK
6
CONTINUOUS
10
8.7191285039370072
20
-5.197912598425197
11
8.7228780314960623
21
-5.1941630708661419
0
LINE
8
BLACK
6
CONTINUOUS
10
8.7228780314960623
20
-5.1941630708661419
11
8.7303770866141726
21
-5.1904135433070868
0
LINE
8
BLACK
6
CONTINUOUS
10
8.7303770866141726
20
-5.1904135433070868
11
8.7416257086614166
21
-5.1904135433070868
0
LINE
8
BLACK
6
CONTINUOUS
10
8.7416257086614166
20
-5.1904135433070868
11
8.7491247637795269
21
-5.1941630708661419
0
LINE
8
BLACK
6
CONTINUOUS
10
8.7491247637795269
20
-5.1941630708661419
11
8.752874291338582
21
-5.2016621653543309
0
LINE
8
BLACK
6
CONTINUOUS
10
8.752874291338582
20
-5.2016621653543309
11
8.752874291338582
21
-5.2429070078740159
0
LINE
8
BLACK
6
CONTINUOUS
10
8.752874291338582
20
-5.2016621653543309
11
8.7566238188976371
21
-5.1941630708661419
0
LINE
8
BLACK
6
CONTINUOUS
10
8.7566238188976371
20
-5.1941630708661419
11
8.7641228740157473
21
-5.1904135433070868
0
LINE
8
BLACK
6
CONTINUOUS
10
8.7641228740157473
20
-5.1904135433070868
11
8.7753714566929126
21
-5.1904135433070868
0
LINE
8
BLACK
6
CONTINUOUS
10
8.7753714566929126
20
-5.1904135433070868
11
8.7828705511811016
21
-5.1941630708661419
0
LINE
8
BLACK
6
CONTINUOUS
10
8.7828705511811016
20
-5.1941630708661419
11
8.7866200787401567
21
-5.2016621653543309
0
LINE
8
BLACK
6
CONTINUOUS
10
8.7866200787401567
20
-5.2016621653543309
11
8.7866200787401567
21
-5.2429070078740159
0
LINE
8
BLACK
6
CONTINUOUS
10
8.9403508661417312
20
-5.1604173228346459
11
8.8728593307086605
21
-5.2616546456692914
0
LINE
8
BLACK
6
CONTINUOUS
10
9.0415882283464573
20
-5.164166850393701
11
9.0490873228346462
21
-5.164166850393701
0
LINE
8
BLACK
6
CONTINUOUS
10
9.0490873228346462
20
-5.164166850393701
11
9.0565863779527565
21
-5.1679163779527562
0
LINE
8
BLACK
6
CONTINUOUS
10
9.0565863779527565
20
-5.1679163779527562
11
9.0603359055118116
21
-5.1716659055118113
0
LINE
8
BLACK
6
CONTINUOUS
10
9.0603359055118116
20
-5.1716659055118113
11
9.0640854330708667
21
-5.1791649606299215
0
LINE
8
BLACK
6
CONTINUOUS
10
9.0640854330708667
20
-5.1791649606299215
11
9.0678349606299218
21
-5.1941630708661419
0
LINE
8
BLACK
6
CONTINUOUS
10
9.0678349606299218
20
-5.1941630708661419
11
9.0678349606299218
21
-5.2129107480314962
0
LINE
8
BLACK
6
CONTINUOUS
10
9.0678349606299218
20
-5.2129107480314962
11
9.0640854330708667
21
-5.2279088582677167
0
LINE
8
BLACK
6
CONTINUOUS
10
9.0640854330708667
20
-5.2279088582677167
11
9.0603359055118116
21
-5.2354079133858269
0
LINE
8
BLACK
6
CONTINUOUS
10
9.0603359055118116
20
-5.2354079133858269
11
9.0565863779527565
21
-5.2391574803149608
0
LINE
8
BLACK
6
CONTINUOUS
10
9.0565863779527565
20
-5.2391574803149608
11
9.0490873228346462
21
-5.2429070078740159
0
LINE
8
BLACK
6
CONTINUOUS
10
9.0490873228346462
20
-5.2429070078740159
11
9.0415882283464573
21
-5.2429070078740159
0
LINE
8
BLACK
6
CONTINUOUS
10
9.0415882283464573
20
-5.2429070078740159
11
9.034089173228347
21
-5.2391574803149608
0
LINE
8
BLACK
6
CONTINUOUS
10
9.034089173228347
20
-5.2391574803149608
11
9.0303396456692919
21
-5.2354079133858269
0
LINE
8
BLACK
6
CONTINUOUS
10
9.0303396456692919
20
-5.2354079133858269
11
9.0265901181102368
21
-5.2279088582677167
0
LINE
8
BLACK
6
CONTINUOUS
10
9.0265901181102368
20
-5.2279088582677167
11
9.0228405905511817
21
-5.2129107480314962
0
LINE
8
BLACK
6
CONTINUOUS
10
9.0228405905511817
20
-5.2129107480314962
11
9.0228405905511817
21
-5.1941630708661419
0
LINE
8
BLACK
6
CONTINUOUS
10
9.0228405905511817
20
-5.1941630708661419
11
9.0265901181102368
21
-5.1791649606299215
0
LINE
8
BLACK
6
CONTINUOUS
10
9.0265901181102368
20
-5.1791649606299215
11
9.0303396456692919
21
-5.1716659055118113
0
LINE
8
BLACK
6
CONTINUOUS
10
9.0303396456692919
20
-5.1716659055118113
11
9.034089173228347
21
-5.1679163779527562
0
LINE
8
BLACK
6
CONTINUOUS
10
9.034089173228347
20
-5.1679163779527562
11
9.0415882283464573
21
-5.164166850393701
0
LINE
8
BLACK
6
CONTINUOUS
10
9.1015807480314965
20
-5.2354079133858269
11
9.1053302755905516
21
-5.2391574803149608
0
LINE
8
BLACK
6
CONTINUOUS
10
9.1053302755905516
20
-5.2391574803149608
11
9.1015807480314965
21
-5.2429070078740159
0
LINE
8
BLACK
6
CONTINUOUS
10
9.1015807480314965
20
-5.2429070078740159
11
9.0978312204724414
21
-5.2391574803149608
0
LINE
8
BLACK
6
CONTINUOUS
10
9.0978312204724414
20
-5.2391574803149608
11
9.1015807480314965
21
-5.2354079133858269
0
LINE
8
BLACK
6
CONTINUOUS
10
9.1015807480314965
20
-5.2354079133858269
11
9.1015807480314965
21
-5.2429070078740159
0
LINE
8
BLACK
6
CONTINUOUS
10
9.1803209055118113
20
-5.2429070078740159
11
9.1353265354330713
21
-5.2429070078740159
0
LINE
8
BLACK
6
CONTINUOUS
10
9.1578237007874019
20
-5.2429070078740159
11
9.1578237007874019
21
-5.164166850393701
0
LINE
8
BLACK
6
CONTINUOUS
10
9.1578237007874019
20
-5.164166850393701
11
9.1503246456692917
21
-5.1754154330708664
0
LINE
8
BLACK
6
CONTINUOUS
10
9.1503246456692917
20
-5.1754154330708664
11
9.1428255905511815
21
-5.1829144881889766
0
LINE
8
BLACK
6
CONTINUOUS
10
9.1428255905511815
20
-5.1829144881889766
11
9.1353265354330713
21
-5.1866640157480317
0
LINE
8
BLACK
6
CONTINUOUS
10
9.210317165354331
20
-5.1716659055118113
11
9.2140666929133861
21
-5.1679163779527562
0
LINE
8
BLACK
6
CONTINUOUS
10
9.2140666929133861
20
-5.1679163779527562
11
9.2215657480314963
21
-5.164166850393701
0
LINE
8
BLACK
6
CONTINUOUS
10
9.2215657480314963
20
-5.164166850393701
11
9.2403134251968506
21
-5.164166850393701
0
LINE
8
BLACK
6
CONTINUOUS
10
9.2403134251968506
20
-5.164166850393701
11
9.2478124803149608
21
-5.1679163779527562
0
LINE
8
BLACK
6
CONTINUOUS
10
9.2478124803149608
20
-5.1679163779527562
11
9.2515620078740159
21
-5.1716659055118113
0
LINE
8
BLACK
6
CONTINUOUS
10
9.2515620078740159
20
-5.1716659055118113
11
9.2553115354330711
21
-5.1791649606299215
0
LINE
8
BLACK
6
CONTINUOUS
10
9.2553115354330711
20
-5.1791649606299215
11
9.2553115354330711
21
-5.1866640157480317
0
LINE
8
BLACK
6
CONTINUOUS
10
9.2553115354330711
20
-5.1866640157480317
11
9.2515620078740159
21
-5.197912598425197
0
LINE
8
BLACK
6
CONTINUOUS
10
9.2515620078740159
20
-5.197912598425197
11
9.2065676377952759
21
-5.2429070078740159
0
LINE
8
BLACK
6
CONTINUOUS
10
9.2065676377952759
20
-5.2429070078740159
11
9.2553115354330711
21
-5.2429070078740159
0
LINE
8
BLACK
6
CONTINUOUS
10
9.3228031102362205
20
-5.164166850393701
11
9.3078049606299214
21
-5.164166850393701
0
LINE
8
BLACK
6
CONTINUOUS
10
9.3078049606299214
20
-5.164166850393701
11
9.3003059055118111
21
-5.1679163779527562
0
LINE
8
BLACK
6
CONTINUOUS
10
9.3003059055118111
20
-5.1679163779527562
11
9.296556377952756
21
-5.1716659055118113
0
LINE
8
BLACK
6
CONTINUOUS
10
9.296556377952756
20
-5.1716659055118113
11
9.2890573228346458
21
-5.1829144881889766
0
LINE
8
BLACK
6
CONTINUOUS
10
9.2890573228346458
20
-5.1829144881889766
11
9.2853077952755907
21
-5.197912598425197
0
LINE
8
BLACK
6
CONTINUOUS
10
9.2853077952755907
20
-5.197912598425197
11
9.2853077952755907
21
-5.2279088582677167
0
LINE
8
BLACK
6
CONTINUOUS
10
9.2853077952755907
20
-5.2279088582677167
11
9.2890573228346458
21
-5.2354079133858269
0
LINE
8
BLACK
6
CONTINUOUS
10
9.2890573228346458
20
-5.2354079133858269
11
9.2928068503937009
21
-5.2391574803149608
0
LINE
8
BLACK
6
CONTINUOUS
10
9.2928068503937009
20
-5.2391574803149608
11
9.3003059055118111
21
-5.2429070078740159
0
LINE
8
BLACK
6
CONTINUOUS
10
9.3003059055118111
20
-5.2429070078740159
11
9.3153040551181103
21
-5.2429070078740159
0
LINE
8
BLACK
6
CONTINUOUS
10
9.3153040551181103
20
-5.2429070078740159
11
9.3228031102362205
21
-5.2391574803149608
0
LINE
8
BLACK
6
CONTINUOUS
10
9.3228031102362205
20
-5.2391574803149608
11
9.3265526377952757
21
-5.2354079133858269
0
LINE
8
BLACK
6
CONTINUOUS
10
9.3265526377952757
20
-5.2354079133858269
11
9.3303021653543308
21
-5.2279088582677167
0
LINE
8
BLACK
6
CONTINUOUS
10
9.3303021653543308
20
-5.2279088582677167
11
9.3303021653543308
21
-5.2091612204724411
0
LINE
8
BLACK
6
CONTINUOUS
10
9.3303021653543308
20
-5.2091612204724411
11
9.3265526377952757
21
-5.2016621653543309
0
LINE
8
BLACK
6
CONTINUOUS
10
9.3265526377952757
20
-5.2016621653543309
11
9.3228031102362205
21
-5.197912598425197
0
LINE
8
BLACK
6
CONTINUOUS
10
9.3228031102362205
20
-5.197912598425197
11
9.3153040551181103
21
-5.1941630708661419
0
LINE
8
BLACK
6
CONTINUOUS
10
9.3153040551181103
20
-5.1941630708661419
11
9.3003059055118111
21
-5.1941630708661419
0
LINE
8
BLACK
6
CONTINUOUS
10
9.3003059055118111
20
-5.1941630708661419
11
9.2928068503937009
21
-5.197912598425197
0
LINE
8
BLACK
6
CONTINUOUS
10
9.2928068503937009
20
-5.197912598425197
11
9.2890573228346458
21
-5.2016621653543309
0
LINE
8
BLACK
6
CONTINUOUS
10
9.2890573228346458
20
-5.2016621653543309
11
9.2853077952755907
21
-5.2091612204724411
0
LINE
8
BLACK
6
CONTINUOUS
10
9.379046062992126
20
-5.164166850393701
11
9.3865451574803149
21
-5.164166850393701
0
LINE
8
BLACK
6
CONTINUOUS
10
9.3865451574803149
20
-5.164166850393701
11
9.3940442125984251
21
-5.1679163779527562
0
LINE
8
BLACK
6
CONTINUOUS
10
9.3940442125984251
20
-5.1679163779527562
11
9.3977937401574803
21
-5.1716659055118113
0
LINE
8
BLACK
6
CONTINUOUS
10
9.3977937401574803
20
-5.1716659055118113
11
9.4015432677165354
21
-5.1791649606299215
0
LINE
8
BLACK
6
CONTINUOUS
10
9.4015432677165354
20
-5.1791649606299215
11
9.4052927952755905
21
-5.1941630708661419
0
LINE
8
BLACK
6
CONTINUOUS
10
9.4052927952755905
20
-5.1941630708661419
11
9.4052927952755905
21
-5.2129107480314962
0
LINE
8
BLACK
6
CONTINUOUS
10
9.4052927952755905
20
-5.2129107480314962
11
9.4015432677165354
21
-5.2279088582677167
0
LINE
8
BLACK
6
CONTINUOUS
10
9.4015432677165354
20
-5.2279088582677167
11
9.3977937401574803
21
-5.2354079133858269
0
LINE
8
BLACK
6
CONTINUOUS
10
9.3977937401574803
20
-5.2354079133858269
11
9.3940442125984251
21
-5.2391574803149608
0
LINE
8
BLACK
6
CONTINUOUS
10
9.3940442125984251
20
-5.2391574803149608
11
9.3865451574803149
21
-5.2429070078740159
0
LINE
8
BLACK
6
CONTINUOUS
10
9.3865451574803149
20
-5.2429070078740159
11
9.379046062992126
21
-5.2429070078740159
0
LINE
8
BLACK
6
CONTINUOUS
10
9.379046062992126
20
-5.2429070078740159
11
9.3715470078740157
21
-5.2391574803149608
0
LINE
8
BLACK
6
CONTINUOUS
10
9.3715470078740157
20
-5.2391574803149608
11
9.3677974803149606
21
-5.2354079133858269
0
LINE
8
BLACK
6
CONTINUOUS
10
9.3677974803149606
20
-5.2354079133858269
11
9.3640479527559055
21
-5.2279088582677167
0
LINE
8
BLACK
6
CONTINUOUS
10
9.3640479527559055
20
-5.2279088582677167
11
9.3602984251968504
21
-5.2129107480314962
0
LINE
8
BLACK
6
CONTINUOUS
10
9.3602984251968504
20
-5.2129107480314962
11
9.3602984251968504
21
-5.1941630708661419
0
LINE
8
BLACK
6
CONTINUOUS
10
9.3602984251968504
20
-5.1941630708661419
11
9.3640479527559055
21
-5.1791649606299215
0
LINE
8
BLACK
6
CONTINUOUS
10
9.3640479527559055
20
-5.1791649606299215
11
9.3677974803149606
21
-5.1716659055118113
0
LINE
8
BLACK
6
CONTINUOUS
10
9.3677974803149606
20
-5.1716659055118113
11
9.3715470078740157
21
-5.1679163779527562
0
LINE
8
BLACK
6
CONTINUOUS
10
9.3715470078740157
20
-5.1679163779527562
11
9.379046062992126
21
-5.164166850393701
0
LINE
8
BLACK
6
CONTINUOUS
10
9.4352890551181101
20
-5.164166850393701
11
9.4352890551181101
21
-5.1791649606299215
0
LINE
8
BLACK
6
CONTINUOUS
10
9.4652853149606297
20
-5.164166850393701
11
9.4652853149606297
21
-5.1791649606299215
0
LINE
8
BLACK
6
CONTINUOUS
10
9.5815208267716532
20
-5.2729032283464567
11
9.5777712598425193
21
-5.2691537007874016
0
LINE
8
BLACK
6
CONTINUOUS
10
9.5777712598425193
20
-5.2691537007874016
11
9.5702722047244091
21
-5.2579051181102363
0
LINE
8
BLACK
6
CONTINUOUS
10
9.5702722047244091
20
-5.2579051181102363
11
9.566522677165354
21
-5.2504060629921261
0
LINE
8
BLACK
6
CONTINUOUS
10
9.566522677165354
20
-5.2504060629921261
11
9.5627731496062989
21
-5.2391574803149608
0
LINE
8
BLACK
6
CONTINUOUS
10
9.5627731496062989
20
-5.2391574803149608
11
9.5590236220472438
21
-5.2204098031496065
0
LINE
8
BLACK
6
CONTINUOUS
10
9.5590236220472438
20
-5.2204098031496065
11
9.5590236220472438
21
-5.205411692913386
0
LINE
8
BLACK
6
CONTINUOUS
10
9.5590236220472438
20
-5.205411692913386
11
9.5627731496062989
21
-5.1866640157480317
0
LINE
8
BLACK
6
CONTINUOUS
10
9.5627731496062989
20
-5.1866640157480317
11
9.566522677165354
21
-5.1754154330708664
0
LINE
8
BLACK
6
CONTINUOUS
10
9.566522677165354
20
-5.1754154330708664
11
9.5702722047244091
21
-5.1679163779527562
0
LINE
8
BLACK
6
CONTINUOUS
10
9.5702722047244091
20
-5.1679163779527562
11
9.5777712598425193
21
-5.1566677559055121
0
LINE
8
BLACK
6
CONTINUOUS
10
9.5777712598425193
20
-5.1566677559055121
11
9.5815208267716532
21
-5.152918228346457
0
LINE
8
BLACK
6
CONTINUOUS
10
9.6077675196850389
20
-5.1716659055118113
11
9.6115170472440941
21
-5.1679163779527562
0
LINE
8
BLACK
6
CONTINUOUS
10
9.6115170472440941
20
-5.1679163779527562
11
9.6190161023622043
21
-5.164166850393701
0
LINE
8
BLACK
6
CONTINUOUS
10
9.6190161023622043
20
-5.164166850393701
11
9.6377637795275586
21
-5.164166850393701
0
LINE
8
BLACK
6
CONTINUOUS
10
9.6377637795275586
20
-5.164166850393701
11
9.6452628346456688
21
-5.1679163779527562
0
LINE
8
BLACK
6
CONTINUOUS
10
9.6452628346456688
20
-5.1679163779527562
11
9.6490123622047239
21
-5.1716659055118113
0
LINE
8
BLACK
6
CONTINUOUS
10
9.6490123622047239
20
-5.1716659055118113
11
9.652761889763779
21
-5.1791649606299215
0
LINE
8
BLACK
6
CONTINUOUS
10
9.652761889763779
20
-5.1791649606299215
11
9.652761889763779
21
-5.1866640157480317
0
LINE
8
BLACK
6
CONTINUOUS
10
9.652761889763779
20
-5.1866640157480317
11
9.6490123622047239
21
-5.197912598425197
0
LINE
8
BLACK
6
CONTINUOUS
10
9.6490123622047239
20
-5.197912598425197
11
9.6040179921259838
21
-5.2429070078740159
0
LINE
8
BLACK
6
CONTINUOUS
10
9.6040179921259838
20
-5.2429070078740159
11
9.652761889763779
21
-5.2429070078740159
0
LINE
8
BLACK
6
CONTINUOUS
10
9.746500196850393
20
-5.2429070078740159
11
9.746500196850393
21
-5.164166850393701
0
LINE
8
BLACK
6
CONTINUOUS
10
9.7802459842519678
20
-5.2429070078740159
11
9.7802459842519678
21
-5.2016621653543309
0
LINE
8
BLACK
6
CONTINUOUS
10
9.7802459842519678
20
-5.2016621653543309
11
9.7764964566929127
21
-5.1941630708661419
0
LINE
8
BLACK
6
CONTINUOUS
10
9.7764964566929127
20
-5.1941630708661419
11
9.7689974015748025
21
-5.1904135433070868
0
LINE
8
BLACK
6
CONTINUOUS
10
9.7689974015748025
20
-5.1904135433070868
11
9.7577487795275584
21
-5.1904135433070868
0
LINE
8
BLACK
6
CONTINUOUS
10
9.7577487795275584
20
-5.1904135433070868
11
9.7502497244094481
21
-5.1941630708661419
0
LINE
8
BLACK
6
CONTINUOUS
10
9.7502497244094481
20
-5.1941630708661419
11
9.746500196850393
21
-5.197912598425197
0
LINE
8
BLACK
6
CONTINUOUS
10
9.828989881889763
20
-5.2429070078740159
11
9.8214908267716527
21
-5.2391574803149608
0
LINE
8
BLACK
6
CONTINUOUS
10
9.8214908267716527
20
-5.2391574803149608
11
9.8177412992125976
21
-5.2354079133858269
0
LINE
8
BLACK
6
CONTINUOUS
10
9.8177412992125976
20
-5.2354079133858269
11
9.8139917716535425
21
-5.2279088582677167
0
LINE
8
BLACK
6
CONTINUOUS
10
9.8139917716535425
20
-5.2279088582677167
11
9.8139917716535425
21
-5.205411692913386
0
LINE
8
BLACK
6
CONTINUOUS
10
9.8139917716535425
20
-5.205411692913386
11
9.8177412992125976
21
-5.197912598425197
0
LINE
8
BLACK
6
CONTINUOUS
10
9.8177412992125976
20
-5.197912598425197
11
9.8214908267716527
21
-5.1941630708661419
0
LINE
8
BLACK
6
CONTINUOUS
10
9.8214908267716527
20
-5.1941630708661419
11
9.828989881889763
21
-5.1904135433070868
0
LINE
8
BLACK
6
CONTINUOUS
10
9.828989881889763
20
-5.1904135433070868
11
9.8402385039370071
21
-5.1904135433070868
0
LINE
8
BLACK
6
CONTINUOUS
10
9.8402385039370071
20
-5.1904135433070868
11
9.8477375590551173
21
-5.1941630708661419
0
LINE
8
BLACK
6
CONTINUOUS
10
9.8477375590551173
20
-5.1941630708661419
11
9.8514870866141724
21
-5.197912598425197
0
LINE
8
BLACK
6
CONTINUOUS
10
9.8514870866141724
20
-5.197912598425197
11
9.8552366141732275
21
-5.205411692913386
0
LINE
8
BLACK
6
CONTINUOUS
10
9.8552366141732275
20
-5.205411692913386
11
9.8552366141732275
21
-5.2279088582677167
0
LINE
8
BLACK
6
CONTINUOUS
10
9.8552366141732275
20
-5.2279088582677167
11
9.8514870866141724
21
-5.2354079133858269
0
LINE
8
BLACK
6
CONTINUOUS
10
9.8514870866141724
20
-5.2354079133858269
11
9.8477375590551173
21
-5.2391574803149608
0
LINE
8
BLACK
6
CONTINUOUS
10
9.8477375590551173
20
-5.2391574803149608
11
9.8402385039370071
21
-5.2429070078740159
0
LINE
8
BLACK
6
CONTINUOUS
10
9.8402385039370071
20
-5.2429070078740159
11
9.828989881889763
21
-5.2429070078740159
0
LINE
8
BLACK
6
CONTINUOUS
10
9.9002309842519676
20
-5.2429070078740159
11
9.8927319291338573
21
-5.2391574803149608
0
LINE
8
BLACK
6
CONTINUOUS
10
9.8927319291338573
20
-5.2391574803149608
11
9.8889824015748022
21
-5.2316583858267718
0
LINE
8
BLACK
6
CONTINUOUS
10
9.8889824015748022
20
-5.2316583858267718
11
9.8889824015748022
21
-5.164166850393701
0
LINE
8
BLACK
6
CONTINUOUS
10
9.9602235039370068
20
-5.2391574803149608
11
9.9527244488188966
21
-5.2429070078740159
0
LINE
8
BLACK
6
CONTINUOUS
10
9.9527244488188966
20
-5.2429070078740159
11
9.9377262992125974
21
-5.2429070078740159
0
LINE
8
BLACK
6
CONTINUOUS
10
9.9377262992125974
20
-5.2429070078740159
11
9.9302272440944872
21
-5.2391574803149608
0
LINE
8
BLACK
6
CONTINUOUS
10
9.9302272440944872
20
-5.2391574803149608
11
9.9264777165354321
21
-5.2316583858267718
0
LINE
8
BLACK
6
CONTINUOUS
10
9.9264777165354321
20
-5.2316583858267718
11
9.9264777165354321
21
-5.2016621653543309
0
LINE
8
BLACK
6
CONTINUOUS
10
9.9264777165354321
20
-5.2016621653543309
11
9.9302272440944872
21
-5.1941630708661419
0
LINE
8
BLACK
6
CONTINUOUS
10
9.9302272440944872
20
-5.1941630708661419
11
9.9377262992125974
21
-5.1904135433070868
0
LINE
8
BLACK
6
CONTINUOUS
10
9.9377262992125974
20
-5.1904135433070868
11
9.9527244488188966
21
-5.1904135433070868
0
LINE
8
BLACK
6
CONTINUOUS
10
9.9527244488188966
20
-5.1904135433070868
11
9.9602235039370068
21
-5.1941630708661419
0
LINE
8
BLACK
6
CONTINUOUS
10
9.9602235039370068
20
-5.1941630708661419
11
9.9639730314960619
21
-5.2016621653543309
0
LINE
8
BLACK
6
CONTINUOUS
10
9.9639730314960619
20
-5.2016621653543309
11
9.9639730314960619
21
-5.2091612204724411
0
LINE
8
BLACK
6
CONTINUOUS
10
9.9639730314960619
20
-5.2091612204724411
11
9.9264777165354321
21
-5.2166602755905513
0
LINE
8
BLACK
6
CONTINUOUS
10
9.9939692913385816
20
-5.2391574803149608
11
10.0014683464566918
21
-5.2429070078740159
0
LINE
8
BLACK
6
CONTINUOUS
10
10.0014683464566918
20
-5.2429070078740159
11
10.016466456692914
21
-5.2429070078740159
0
LINE
8
BLACK
6
CONTINUOUS
10
10.016466456692914
20
-5.2429070078740159
11
10.023965551181103
21
-5.2391574803149608
0
LINE
8
BLACK
6
CONTINUOUS
10
10.023965551181103
20
-5.2391574803149608
11
10.0277150787401581
21
-5.2316583858267718
0
LINE
8
BLACK
6
CONTINUOUS
10
10.0277150787401581
20
-5.2316583858267718
11
10.0277150787401581
21
-5.2279088582677167
0
LINE
8
BLACK
6
CONTINUOUS
10
10.0277150787401581
20
-5.2279088582677167
11
10.023965551181103
21
-5.2204098031496065
0
LINE
8
BLACK
6
CONTINUOUS
10
10.023965551181103
20
-5.2204098031496065
11
10.016466456692914
21
-5.2166602755905513
0
LINE
8
BLACK
6
CONTINUOUS
10
10.016466456692914
20
-5.2166602755905513
11
10.0052178740157487
21
-5.2166602755905513
0
LINE
8
BLACK
6
CONTINUOUS
10
10.0052178740157487
20
-5.2166602755905513
11
9.9977188188976367
21
-5.2129107480314962
0
LINE
8
BLACK
6
CONTINUOUS
10
9.9977188188976367
20
-5.2129107480314962
11
9.9939692913385816
21
-5.205411692913386
0
LINE
8
BLACK
6
CONTINUOUS
10
9.9939692913385816
20
-5.205411692913386
11
9.9939692913385816
21
-5.2016621653543309
0
LINE
8
BLACK
6
CONTINUOUS
10
9.9939692913385816
20
-5.2016621653543309
11
9.9977188188976367
21
-5.1941630708661419
0
LINE
8
BLACK
6
CONTINUOUS
10
9.9977188188976367
20
-5.1941630708661419
11
10.0052178740157487
21
-5.1904135433070868
0
LINE
8
BLACK
6
CONTINUOUS
10
10.0052178740157487
20
-5.1904135433070868
11
10.016466456692914
21
-5.1904135433070868
0
LINE
8
BLACK
6
CONTINUOUS
10
10.016466456692914
20
-5.1904135433070868
11
10.023965551181103
21
-5.1941630708661419
0
LINE
8
BLACK
6
CONTINUOUS
10
10.0539618110236226
20
-5.2729032283464567
11
10.0577113385826777
21
-5.2691537007874016
0
LINE
8
BLACK
6
CONTINUOUS
10
10.0577113385826777
20
-5.2691537007874016
11
10.065210393700788
21
-5.2579051181102363
0
LINE
8
BLACK
6
CONTINUOUS
10
10.065210393700788
20
-5.2579051181102363
11
10.0689599212598431
21
-5.2504060629921261
0
LINE
8
BLACK
6
CONTINUOUS
10
10.0689599212598431
20
-5.2504060629921261
11
10.0727094488188982
21
-5.2391574803149608
0
LINE
8
BLACK
6
CONTINUOUS
10
10.0727094488188982
20
-5.2391574803149608
11
10.0764589763779533
21
-5.2204098031496065
0
LINE
8
BLACK
6
CONTINUOUS
10
10.0764589763779533
20
-5.2204098031496065
11
10.0764589763779533
21
-5.205411692913386
0
LINE
8
BLACK
6
CONTINUOUS
10
10.0764589763779533
20
-5.205411692913386
11
10.0727094488188982
21
-5.1866640157480317
0
LINE
8
BLACK
6
CONTINUOUS
10
10.0727094488188982
20
-5.1866640157480317
11
10.0689599212598431
21
-5.1754154330708664
0
LINE
8
BLACK
6
CONTINUOUS
10
10.0689599212598431
20
-5.1754154330708664
11
10.065210393700788
21
-5.1679163779527562
0
LINE
8
BLACK
6
CONTINUOUS
10
10.065210393700788
20
-5.1679163779527562
11
10.0577113385826777
21
-5.1566677559055121
0
LINE
8
BLACK
6
CONTINUOUS
10
10.0577113385826777
20
-5.1566677559055121
11
10.0539618110236226
21
-5.152918228346457
0
LINE
8
BLACK
6
CONTINUOUS
10
10.1964440157480318
20
-5.2729032283464567
11
10.192694448818898
21
-5.2691537007874016
0
LINE
8
BLACK
6
CONTINUOUS
10
10.192694448818898
20
-5.2691537007874016
11
10.1851953937007877
21
-5.2579051181102363
0
LINE
8
BLACK
6
CONTINUOUS
10
10.1851953937007877
20
-5.2579051181102363
11
10.1814458661417326
21
-5.2504060629921261
0
LINE
8
BLACK
6
CONTINUOUS
10
10.1814458661417326
20
-5.2504060629921261
11
10.1776963385826775
21
-5.2391574803149608
0
LINE
8
BLACK
6
CONTINUOUS
10
10.1776963385826775
20
-5.2391574803149608
11
10.1739468110236224
21
-5.2204098031496065
0
LINE
8
BLACK
6
CONTINUOUS
10
10.1739468110236224
20
-5.2204098031496065
11
10.1739468110236224
21
-5.205411692913386
0
LINE
8
BLACK
6
CONTINUOUS
10
10.1739468110236224
20
-5.205411692913386
11
10.1776963385826775
21
-5.1866640157480317
0
LINE
8
BLACK
6
CONTINUOUS
10
10.1776963385826775
20
-5.1866640157480317
11
10.1814458661417326
21
-5.1754154330708664
0
LINE
8
BLACK
6
CONTINUOUS
10
10.1814458661417326
20
-5.1754154330708664
11
10.1851953937007877
21
-5.1679163779527562
0
LINE
8
BLACK
6
CONTINUOUS
10
10.1851953937007877
20
-5.1679163779527562
11
10.192694448818898
21
-5.1566677559055121
0
LINE
8
BLACK
6
CONTINUOUS
10
10.192694448818898
20
-5.1566677559055121
11
10.1964440157480318
21
-5.152918228346457
0
LINE
8
BLACK
6
CONTINUOUS
10
10.2264402362204727
20
-5.1904135433070868
11
10.2264402362204727
21
-5.2429070078740159
0
LINE
8
BLACK
6
CONTINUOUS
10
10.2264402362204727
20
-5.197912598425197
11
10.2301897637795278
21
-5.1941630708661419
0
LINE
8
BLACK
6
CONTINUOUS
10
10.2301897637795278
20
-5.1941630708661419
11
10.237688818897638
21
-5.1904135433070868
0
LINE
8
BLACK
6
CONTINUOUS
10
10.237688818897638
20
-5.1904135433070868
11
10.2489374409448821
21
-5.1904135433070868
0
LINE
8
BLACK
6
CONTINUOUS
10
10.2489374409448821
20
-5.1904135433070868
11
10.2564364960629923
21
-5.1941630708661419
0
LINE
8
BLACK
6
CONTINUOUS
10
10.2564364960629923
20
-5.1941630708661419
11
10.2601860236220475
21
-5.2016621653543309
0
LINE
8
BLACK
6
CONTINUOUS
10
10.2601860236220475
20
-5.2016621653543309
11
10.2601860236220475
21
-5.2429070078740159
0
LINE
8
BLACK
6
CONTINUOUS
10
10.3089299212598426
20
-5.2429070078740159
11
10.3014308661417324
21
-5.2391574803149608
0
LINE
8
BLACK
6
CONTINUOUS
10
10.3014308661417324
20
-5.2391574803149608
11
10.2976813385826773
21
-5.2354079133858269
0
LINE
8
BLACK
6
CONTINUOUS
10
10.2976813385826773
20
-5.2354079133858269
11
10.2939318110236222
21
-5.2279088582677167
0
LINE
8
BLACK
6
CONTINUOUS
10
10.2939318110236222
20
-5.2279088582677167
11
10.2939318110236222
21
-5.205411692913386
0
LINE
8
BLACK
6
CONTINUOUS
10
10.2939318110236222
20
-5.205411692913386
11
10.2976813385826773
21
-5.197912598425197
0
LINE
8
BLACK
6
CONTINUOUS
10
10.2976813385826773
20
-5.197912598425197
11
10.3014308661417324
21
-5.1941630708661419
0
LINE
8
BLACK
6
CONTINUOUS
10
10.3014308661417324
20
-5.1941630708661419
11
10.3089299212598426
21
-5.1904135433070868
0
LINE
8
BLACK
6
CONTINUOUS
10
10.3089299212598426
20
-5.1904135433070868
11
10.3201785433070867
21
-5.1904135433070868
0
LINE
8
BLACK
6
CONTINUOUS
10
10.3201785433070867
20
-5.1904135433070868
11
10.3276775984251969
21
-5.1941630708661419
0
LINE
8
BLACK
6
CONTINUOUS
10
10.3276775984251969
20
-5.1941630708661419
11
10.3314271259842521
21
-5.197912598425197
0
LINE
8
BLACK
6
CONTINUOUS
10
10.3314271259842521
20
-5.197912598425197
11
10.3351766535433072
21
-5.205411692913386
0
LINE
8
BLACK
6
CONTINUOUS
10
10.3351766535433072
20
-5.205411692913386
11
10.3351766535433072
21
-5.2279088582677167
0
LINE
8
BLACK
6
CONTINUOUS
10
10.3351766535433072
20
-5.2279088582677167
11
10.3314271259842521
21
-5.2354079133858269
0
LINE
8
BLACK
6
CONTINUOUS
10
10.3314271259842521
20
-5.2354079133858269
11
10.3276775984251969
21
-5.2391574803149608
0
LINE
8
BLACK
6
CONTINUOUS
10
10.3276775984251969
20
-5.2391574803149608
11
10.3201785433070867
21
-5.2429070078740159
0
LINE
8
BLACK
6
CONTINUOUS
10
10.3201785433070867
20
-5.2429070078740159
11
10.3089299212598426
21
-5.2429070078740159
0
LINE
8
BLACK
6
CONTINUOUS
10
10.3576738582677166
20
-5.1904135433070868
11
10.3876700787401575
21
-5.1904135433070868
0
LINE
8
BLACK
6
CONTINUOUS
10
10.3689224409448819
20
-5.164166850393701
11
10.3689224409448819
21
-5.2316583858267718
0
LINE
8
BLACK
6
CONTINUOUS
10
10.3689224409448819
20
-5.2316583858267718
11
10.372671968503937
21
-5.2391574803149608
0
LINE
8
BLACK
6
CONTINUOUS
10
10.372671968503937
20
-5.2391574803149608
11
10.3801710236220472
21
-5.2429070078740159
0
LINE
8
BLACK
6
CONTINUOUS
10
10.3801710236220472
20
-5.2429070078740159
11
10.3876700787401575
21
-5.2429070078740159
0
LINE
8
BLACK
6
CONTINUOUS
10
10.4739093307086613
20
-5.1904135433070868
11
10.4739093307086613
21
-5.2691537007874016
0
LINE
8
BLACK
6
CONTINUOUS
10
10.4739093307086613
20
-5.1941630708661419
11
10.4814083858267715
21
-5.1904135433070868
0
LINE
8
BLACK
6
CONTINUOUS
10
10.4814083858267715
20
-5.1904135433070868
11
10.4964065354330707
21
-5.1904135433070868
0
LINE
8
BLACK
6
CONTINUOUS
10
10.4964065354330707
20
-5.1904135433070868
11
10.5039055905511809
21
-5.1941630708661419
0
LINE
8
BLACK
6
CONTINUOUS
10
10.5039055905511809
20
-5.1941630708661419
11
10.507655118110236
21
-5.197912598425197
0
LINE
8
BLACK
6
CONTINUOUS
10
10.507655118110236
20
-5.197912598425197
11
10.5114046456692911
21
-5.205411692913386
0
LINE
8
BLACK
6
CONTINUOUS
10
10.5114046456692911
20
-5.205411692913386
11
10.5114046456692911
21
-5.2279088582677167
0
LINE
8
BLACK
6
CONTINUOUS
10
10.5114046456692911
20
-5.2279088582677167
11
10.507655118110236
21
-5.2354079133858269
0
LINE
8
BLACK
6
CONTINUOUS
10
10.507655118110236
20
-5.2354079133858269
11
10.5039055905511809
21
-5.2391574803149608
0
LINE
8
BLACK
6
CONTINUOUS
10
10.5039055905511809
20
-5.2391574803149608
11
10.4964065354330707
21
-5.2429070078740159
0
LINE
8
BLACK
6
CONTINUOUS
10
10.4964065354330707
20
-5.2429070078740159
11
10.4814083858267715
21
-5.2429070078740159
0
LINE
8
BLACK
6
CONTINUOUS
10
10.4814083858267715
20
-5.2429070078740159
11
10.4739093307086613
21
-5.2391574803149608
0
LINE
8
BLACK
6
CONTINUOUS
10
10.5563990157480312
20
-5.2429070078740159
11
10.548899960629921
21
-5.2391574803149608
0
LINE
8
BLACK
6
CONTINUOUS
10
10.548899960629921
20
-5.2391574803149608
11
10.5451504330708659
21
-5.2316583858267718
0
LINE
8
BLACK
6
CONTINUOUS
10
10.5451504330708659
20
-5.2316583858267718
11
10.5451504330708659
21
-5.164166850393701
0
LINE
8
BLACK
6
CONTINUOUS
10
10.6201410629921256
20
-5.2429070078740159
11
10.6201410629921256
21
-5.2016621653543309
0
LINE
8
BLACK
6
CONTINUOUS
10
10.6201410629921256
20
-5.2016621653543309
11
10.6163915354330705
21
-5.1941630708661419
0
LINE
8
BLACK
6
CONTINUOUS
10
10.6163915354330705
20
-5.1941630708661419
11
10.6088924803149602
21
-5.1904135433070868
0
LINE
8
BLACK
6
CONTINUOUS
10
10.6088924803149602
20
-5.1904135433070868
11
10.593894330708661
21
-5.1904135433070868
0
LINE
8
BLACK
6
CONTINUOUS
10
10.593894330708661
20
-5.1904135433070868
11
10.5863952755905508
21
-5.1941630708661419
0
LINE
8
BLACK
6
CONTINUOUS
10
10.6201410629921256
20
-5.2391574803149608
11
10.6126420078740153
21
-5.2429070078740159
0
LINE
8
BLACK
6
CONTINUOUS
10
10.6126420078740153
20
-5.2429070078740159
11
10.593894330708661
21
-5.2429070078740159
0
LINE
8
BLACK
6
CONTINUOUS
10
10.593894330708661
20
-5.2429070078740159
11
10.5863952755905508
21
-5.2391574803149608
0
LINE
8
BLACK
6
CONTINUOUS
10
10.5863952755905508
20
-5.2391574803149608
11
10.5826457480314957
21
-5.2316583858267718
0
LINE
8
BLACK
6
CONTINUOUS
10
10.5826457480314957
20
-5.2316583858267718
11
10.5826457480314957
21
-5.2241593307086616
0
LINE
8
BLACK
6
CONTINUOUS
10
10.5826457480314957
20
-5.2241593307086616
11
10.5863952755905508
21
-5.2166602755905513
0
LINE
8
BLACK
6
CONTINUOUS
10
10.5863952755905508
20
-5.2166602755905513
11
10.593894330708661
21
-5.2129107480314962
0
LINE
8
BLACK
6
CONTINUOUS
10
10.593894330708661
20
-5.2129107480314962
11
10.6126420078740153
21
-5.2129107480314962
0
LINE
8
BLACK
6
CONTINUOUS
10
10.6126420078740153
20
-5.2129107480314962
11
10.6201410629921256
21
-5.2091612204724411
0
LINE
8
BLACK
6
CONTINUOUS
10
10.6463877952755901
20
-5.1904135433070868
11
10.676384015748031
21
-5.1904135433070868
0
LINE
8
BLACK
6
CONTINUOUS
10
10.6576363779527554
20
-5.164166850393701
11
10.6576363779527554
21
-5.2316583858267718
0
LINE
8
BLACK
6
CONTINUOUS
10
10.6576363779527554
20
-5.2316583858267718
11
10.6613859055118105
21
-5.2391574803149608
0
LINE
8
BLACK
6
CONTINUOUS
10
10.6613859055118105
20
-5.2391574803149608
11
10.6688849606299208
21
-5.2429070078740159
0
LINE
8
BLACK
6
CONTINUOUS
10
10.6688849606299208
20
-5.2429070078740159
11
10.676384015748031
21
-5.2429070078740159
0
LINE
8
BLACK
6
CONTINUOUS
10
10.7326270078740151
20
-5.2391574803149608
11
10.7251279527559049
21
-5.2429070078740159
0
LINE
8
BLACK
6
CONTINUOUS
10
10.7251279527559049
20
-5.2429070078740159
11
10.7101298031496057
21
-5.2429070078740159
0
LINE
8
BLACK
6
CONTINUOUS
10
10.7101298031496057
20
-5.2429070078740159
11
10.7026307480314955
21
-5.2391574803149608
0
LINE
8
BLACK
6
CONTINUOUS
10
10.7026307480314955
20
-5.2391574803149608
11
10.6988812204724404
21
-5.2316583858267718
0
LINE
8
BLACK
6
CONTINUOUS
10
10.6988812204724404
20
-5.2316583858267718
11
10.6988812204724404
21
-5.2016621653543309
0
LINE
8
BLACK
6
CONTINUOUS
10
10.6988812204724404
20
-5.2016621653543309
11
10.7026307480314955
21
-5.1941630708661419
0
LINE
8
BLACK
6
CONTINUOUS
10
10.7026307480314955
20
-5.1941630708661419
11
10.7101298031496057
21
-5.1904135433070868
0
LINE
8
BLACK
6
CONTINUOUS
10
10.7101298031496057
20
-5.1904135433070868
11
10.7251279527559049
21
-5.1904135433070868
0
LINE
8
BLACK
6
CONTINUOUS
10
10.7251279527559049
20
-5.1904135433070868
11
10.7326270078740151
21
-5.1941630708661419
0
LINE
8
BLACK
6
CONTINUOUS
10
10.7326270078740151
20
-5.1941630708661419
11
10.7363765354330702
21
-5.2016621653543309
0
LINE
8
BLACK
6
CONTINUOUS
10
10.7363765354330702
20
-5.2016621653543309
11
10.7363765354330702
21
-5.2091612204724411
0
LINE
8
BLACK
6
CONTINUOUS
10
10.7363765354330702
20
-5.2091612204724411
11
10.6988812204724404
21
-5.2166602755905513
0
LINE
8
BLACK
6
CONTINUOUS
10
10.8038681102362197
20
-5.2429070078740159
11
10.8038681102362197
21
-5.164166850393701
0
LINE
8
BLACK
6
CONTINUOUS
10
10.8038681102362197
20
-5.2391574803149608
11
10.7963690551181095
21
-5.2429070078740159
0
LINE
8
BLACK
6
CONTINUOUS
10
10.7963690551181095
20
-5.2429070078740159
11
10.7813709055118103
21
-5.2429070078740159
0
LINE
8
BLACK
6
CONTINUOUS
10
10.7813709055118103
20
-5.2429070078740159
11
10.7738718503937001
21
-5.2391574803149608
0
LINE
8
BLACK
6
CONTINUOUS
10
10.7738718503937001
20
-5.2391574803149608
11
10.770122322834645
21
-5.2354079133858269
0
LINE
8
BLACK
6
CONTINUOUS
10
10.770122322834645
20
-5.2354079133858269
11
10.7663727952755899
21
-5.2279088582677167
0
LINE
8
BLACK
6
CONTINUOUS
10
10.7663727952755899
20
-5.2279088582677167
11
10.7663727952755899
21
-5.205411692913386
0
LINE
8
BLACK
6
CONTINUOUS
10
10.7663727952755899
20
-5.205411692913386
11
10.770122322834645
21
-5.197912598425197
0
LINE
8
BLACK
6
CONTINUOUS
10
10.770122322834645
20
-5.197912598425197
11
10.7738718503937001
21
-5.1941630708661419
0
LINE
8
BLACK
6
CONTINUOUS
10
10.7738718503937001
20
-5.1941630708661419
11
10.7813709055118103
21
-5.1904135433070868
0
LINE
8
BLACK
6
CONTINUOUS
10
10.7813709055118103
20
-5.1904135433070868
11
10.7963690551181095
21
-5.1904135433070868
0
LINE
8
BLACK
6
CONTINUOUS
10
10.7963690551181095
20
-5.1904135433070868
11
10.8038681102362197
21
-5.1941630708661419
0
LINE
8
BLACK
6
CONTINUOUS
10
10.8338643700787394
20
-5.2729032283464567
11
10.8376138976377945
21
-5.2691537007874016
0
LINE
8
BLACK
6
CONTINUOUS
10
10.8376138976377945
20
-5.2691537007874016
11
10.8451129527559047
21
-5.2579051181102363
0
LINE
8
BLACK
6
CONTINUOUS
10
10.8451129527559047
20
-5.2579051181102363
11
10.8488624803149598
21
-5.2504060629921261
0
LINE
8
BLACK
6
CONTINUOUS
10
10.8488624803149598
20
-5.2504060629921261
11
10.8526120078740149
21
-5.2391574803149608
0
LINE
8
BLACK
6
CONTINUOUS
10
10.8526120078740149
20
-5.2391574803149608
11
10.85636153543307
21
-5.2204098031496065
0
LINE
8
BLACK
6
CONTINUOUS
10
10.85636153543307
20
-5.2204098031496065
11
10.85636153543307
21
-5.205411692913386
0
LINE
8
BLACK
6
CONTINUOUS
10
10.85636153543307
20
-5.205411692913386
11
10.8526120078740149
21
-5.1866640157480317
0
LINE
8
BLACK
6
CONTINUOUS
10
10.8526120078740149
20
-5.1866640157480317
11
10.8488624803149598
21
-5.1754154330708664
0
LINE
8
BLACK
6
CONTINUOUS
10
10.8488624803149598
20
-5.1754154330708664
11
10.8451129527559047
21
-5.1679163779527562
0
LINE
8
BLACK
6
CONTINUOUS
10
10.8451129527559047
20
-5.1679163779527562
11
10.8376138976377945
21
-5.1566677559055121
0
LINE
8
BLACK
6
CONTINUOUS
10
10.8376138976377945
20
-5.1566677559055121
11
10.8338643700787394
21
-5.152918228346457
0
LINE
8
BLACK
6
CONTINUOUS
10
8.1346456692913378
20
-5.2935039370078742
11
8.1346456692913378
21
-5.3722440944881891
0
LINE
8
BLACK
6
CONTINUOUS
10
8.0952755905511804
20
-5.3328740157480317
11
8.1740157480314952
21
-5.3328740157480317
0
LINE
8
BLACK
6
CONTINUOUS
10
8.269184724409449
20
-5.2901511023622048
11
8.3179286220472441
21
-5.2901511023622048
0
LINE
8
BLACK
6
CONTINUOUS
10
8.3179286220472441
20
-5.2901511023622048
11
8.2916818897637796
21
-5.3201473228346456
0
LINE
8
BLACK
6
CONTINUOUS
10
8.2916818897637796
20
-5.3201473228346456
11
8.3029305118110237
21
-5.3201473228346456
0
LINE
8
BLACK
6
CONTINUOUS
10
8.3029305118110237
20
-5.3201473228346456
11
8.3104295669291339
21
-5.3238968503937008
0
LINE
8
BLACK
6
CONTINUOUS
10
8.3104295669291339
20
-5.3238968503937008
11
8.314179094488189
21
-5.3276464173228346
0
LINE
8
BLACK
6
CONTINUOUS
10
8.314179094488189
20
-5.3276464173228346
11
8.3179286220472441
21
-5.3351454724409448
0
LINE
8
BLACK
6
CONTINUOUS
10
8.3179286220472441
20
-5.3351454724409448
11
8.3179286220472441
21
-5.3538931102362204
0
LINE
8
BLACK
6
CONTINUOUS
10
8.3179286220472441
20
-5.3538931102362204
11
8.314179094488189
21
-5.3613921653543306
0
LINE
8
BLACK
6
CONTINUOUS
10
8.314179094488189
20
-5.3613921653543306
11
8.3104295669291339
21
-5.3651417322834645
0
LINE
8
BLACK
6
CONTINUOUS
10
8.3104295669291339
20
-5.3651417322834645
11
8.3029305118110237
21
-5.3688912598425196
0
LINE
8
BLACK
6
CONTINUOUS
10
8.3029305118110237
20
-5.3688912598425196
11
8.2804333070866143
21
-5.3688912598425196
0
LINE
8
BLACK
6
CONTINUOUS
10
8.2804333070866143
20
-5.3688912598425196
11
8.2729342519685041
21
-5.3651417322834645
0
LINE
8
BLACK
6
CONTINUOUS
10
8.2729342519685041
20
-5.3651417322834645
11
8.269184724409449
21
-5.3613921653543306
0
LINE
8
BLACK
6
CONTINUOUS
10
8.3516744094488189
20
-5.3613921653543306
11
8.355423937007874
21
-5.3651417322834645
0
LINE
8
BLACK
6
CONTINUOUS
10
8.355423937007874
20
-5.3651417322834645
11
8.3516744094488189
21
-5.3688912598425196
0
LINE
8
BLACK
6
CONTINUOUS
10
8.3516744094488189
20
-5.3688912598425196
11
8.3479248818897638
21
-5.3651417322834645
0
LINE
8
BLACK
6
CONTINUOUS
10
8.3479248818897638
20
-5.3651417322834645
11
8.3516744094488189
21
-5.3613921653543306
0
LINE
8
BLACK
6
CONTINUOUS
10
8.3516744094488189
20
-5.3613921653543306
11
8.3516744094488189
21
-5.3688912598425196
0
LINE
8
BLACK
6
CONTINUOUS
10
8.4229155118110235
20
-5.3163977952755905
11
8.4229155118110235
21
-5.3688912598425196
0
LINE
8
BLACK
6
CONTINUOUS
10
8.4041678346456692
20
-5.2864015748031496
11
8.3854201968503936
21
-5.3426445275590551
0
LINE
8
BLACK
6
CONTINUOUS
10
8.3854201968503936
20
-5.3426445275590551
11
8.4341640944881888
21
-5.3426445275590551
0
LINE
8
BLACK
6
CONTINUOUS
10
8.4791584645669289
20
-5.2901511023622048
11
8.4866575590551179
21
-5.2901511023622048
0
LINE
8
BLACK
6
CONTINUOUS
10
8.4866575590551179
20
-5.2901511023622048
11
8.4941566141732281
21
-5.2939006299212599
0
LINE
8
BLACK
6
CONTINUOUS
10
8.4941566141732281
20
-5.2939006299212599
11
8.4979061417322832
21
-5.297650157480315
0
LINE
8
BLACK
6
CONTINUOUS
10
8.4979061417322832
20
-5.297650157480315
11
8.5016556692913383
21
-5.3051492125984252
0
LINE
8
BLACK
6
CONTINUOUS
10
8.5016556692913383
20
-5.3051492125984252
11
8.5054051968503934
21
-5.3201473228346456
0
LINE
8
BLACK
6
CONTINUOUS
10
8.5054051968503934
20
-5.3201473228346456
11
8.5054051968503934
21
-5.3388949999999999
0
LINE
8
BLACK
6
CONTINUOUS
10
8.5054051968503934
20
-5.3388949999999999
11
8.5016556692913383
21
-5.3538931102362204
0
LINE
8
BLACK
6
CONTINUOUS
10
8.5016556692913383
20
-5.3538931102362204
11
8.4979061417322832
21
-5.3613921653543306
0
LINE
8
BLACK
6
CONTINUOUS
10
8.4979061417322832
20
-5.3613921653543306
11
8.4941566141732281
21
-5.3651417322834645
0
LINE
8
BLACK
6
CONTINUOUS
10
8.4941566141732281
20
-5.3651417322834645
11
8.4866575590551179
21
-5.3688912598425196
0
LINE
8
BLACK
6
CONTINUOUS
10
8.4866575590551179
20
-5.3688912598425196
11
8.4791584645669289
21
-5.3688912598425196
0
LINE
8
BLACK
6
CONTINUOUS
10
8.4791584645669289
20
-5.3688912598425196
11
8.4716594094488187
21
-5.3651417322834645
0
LINE
8
BLACK
6
CONTINUOUS
10
8.4716594094488187
20
-5.3651417322834645
11
8.4679098818897636
21
-5.3613921653543306
0
LINE
8
BLACK
6
CONTINUOUS
10
8.4679098818897636
20
-5.3613921653543306
11
8.4641603543307085
21
-5.3538931102362204
0
LINE
8
BLACK
6
CONTINUOUS
10
8.4641603543307085
20
-5.3538931102362204
11
8.4604108267716533
21
-5.3388949999999999
0
LINE
8
BLACK
6
CONTINUOUS
10
8.4604108267716533
20
-5.3388949999999999
11
8.4604108267716533
21
-5.3201473228346456
0
LINE
8
BLACK
6
CONTINUOUS
10
8.4604108267716533
20
-5.3201473228346456
11
8.4641603543307085
21
-5.3051492125984252
0
LINE
8
BLACK
6
CONTINUOUS
10
8.4641603543307085
20
-5.3051492125984252
11
8.4679098818897636
21
-5.297650157480315
0
LINE
8
BLACK
6
CONTINUOUS
10
8.4679098818897636
20
-5.297650157480315
11
8.4716594094488187
21
-5.2939006299212599
0
LINE
8
BLACK
6
CONTINUOUS
10
8.4716594094488187
20
-5.2939006299212599
11
8.4791584645669289
21
-5.2901511023622048
0
LINE
8
BLACK
6
CONTINUOUS
10
8.5541490944881886
20
-5.2901511023622048
11
8.5616481889763776
21
-5.2901511023622048
0
LINE
8
BLACK
6
CONTINUOUS
10
8.5616481889763776
20
-5.2901511023622048
11
8.5691472440944878
21
-5.2939006299212599
0
LINE
8
BLACK
6
CONTINUOUS
10
8.5691472440944878
20
-5.2939006299212599
11
8.5728967716535429
21
-5.297650157480315
0
LINE
8
BLACK
6
CONTINUOUS
10
8.5728967716535429
20
-5.297650157480315
11
8.576646299212598
21
-5.3051492125984252
0
LINE
8
BLACK
6
CONTINUOUS
10
8.576646299212598
20
-5.3051492125984252
11
8.5803958267716531
21
-5.3201473228346456
0
LINE
8
BLACK
6
CONTINUOUS
10
8.5803958267716531
20
-5.3201473228346456
11
8.5803958267716531
21
-5.3388949999999999
0
LINE
8
BLACK
6
CONTINUOUS
10
8.5803958267716531
20
-5.3388949999999999
11
8.576646299212598
21
-5.3538931102362204
0
LINE
8
BLACK
6
CONTINUOUS
10
8.576646299212598
20
-5.3538931102362204
11
8.5728967716535429
21
-5.3613921653543306
0
LINE
8
BLACK
6
CONTINUOUS
10
8.5728967716535429
20
-5.3613921653543306
11
8.5691472440944878
21
-5.3651417322834645
0
LINE
8
BLACK
6
CONTINUOUS
10
8.5691472440944878
20
-5.3651417322834645
11
8.5616481889763776
21
-5.3688912598425196
0
LINE
8
BLACK
6
CONTINUOUS
10
8.5616481889763776
20
-5.3688912598425196
11
8.5541490944881886
21
-5.3688912598425196
0
LINE
8
BLACK
6
CONTINUOUS
10
8.5541490944881886
20
-5.3688912598425196
11
8.5466500393700784
21
-5.3651417322834645
0
LINE
8
BLACK
6
CONTINUOUS
10
8.5466500393700784
20
-5.3651417322834645
11
8.5429005118110233
21
-5.3613921653543306
0
LINE
8
BLACK
6
CONTINUOUS
10
8.5429005118110233
20
-5.3613921653543306
11
8.5391509842519682
21
-5.3538931102362204
0
LINE
8
BLACK
6
CONTINUOUS
10
8.5391509842519682
20
-5.3538931102362204
11
8.5354014566929131
21
-5.3388949999999999
0
LINE
8
BLACK
6
CONTINUOUS
10
8.5354014566929131
20
-5.3388949999999999
11
8.5354014566929131
21
-5.3201473228346456
0
LINE
8
BLACK
6
CONTINUOUS
10
8.5354014566929131
20
-5.3201473228346456
11
8.5391509842519682
21
-5.3051492125984252
0
LINE
8
BLACK
6
CONTINUOUS
10
8.5391509842519682
20
-5.3051492125984252
11
8.5429005118110233
21
-5.297650157480315
0
LINE
8
BLACK
6
CONTINUOUS
10
8.5429005118110233
20
-5.297650157480315
11
8.5466500393700784
21
-5.2939006299212599
0
LINE
8
BLACK
6
CONTINUOUS
10
8.5466500393700784
20
-5.2939006299212599
11
8.5541490944881886
21
-5.2901511023622048
0
LINE
8
BLACK
6
CONTINUOUS
10
8.6141416141732279
20
-5.3688912598425196
11
8.6141416141732279
21
-5.3163977952755905
0
LINE
8
BLACK
6
CONTINUOUS
10
8.6141416141732279
20
-5.3238968503937008
11
8.617891141732283
21
-5.3201473228346456
0
LINE
8
BLACK
6
CONTINUOUS
10
8.617891141732283
20
-5.3201473228346456
11
8.6253901968503932
21
-5.3163977952755905
0
LINE
8
BLACK
6
CONTINUOUS
10
8.6253901968503932
20
-5.3163977952755905
11
8.6366388188976373
21
-5.3163977952755905
0
LINE
8
BLACK
6
CONTINUOUS
10
8.6366388188976373
20
-5.3163977952755905
11
8.6441378740157475
21
-5.3201473228346456
0
LINE
8
BLACK
6
CONTINUOUS
10
8.6441378740157475
20
-5.3201473228346456
11
8.6478874015748026
21
-5.3276464173228346
0
LINE
8
BLACK
6
CONTINUOUS
10
8.6478874015748026
20
-5.3276464173228346
11
8.6478874015748026
21
-5.3688912598425196
0
LINE
8
BLACK
6
CONTINUOUS
10
8.6478874015748026
20
-5.3276464173228346
11
8.6516369291338577
21
-5.3201473228346456
0
LINE
8
BLACK
6
CONTINUOUS
10
8.6516369291338577
20
-5.3201473228346456
11
8.659135984251968
21
-5.3163977952755905
0
LINE
8
BLACK
6
CONTINUOUS
10
8.659135984251968
20
-5.3163977952755905
11
8.6703845669291333
21
-5.3163977952755905
0
LINE
8
BLACK
6
CONTINUOUS
10
8.6703845669291333
20
-5.3163977952755905
11
8.6778836614173223
21
-5.3201473228346456
0
LINE
8
BLACK
6
CONTINUOUS
10
8.6778836614173223
20
-5.3201473228346456
11
8.6816331889763774
21
-5.3276464173228346
0
LINE
8
BLACK
6
CONTINUOUS
10
8.6816331889763774
20
-5.3276464173228346
11
8.6816331889763774
21
-5.3688912598425196
0
LINE
8
BLACK
6
CONTINUOUS
10
8.7191285039370072
20
-5.3688912598425196
11
8.7191285039370072
21
-5.3163977952755905
0
LINE
8
BLACK
6
CONTINUOUS
10
8.7191285039370072
20
-5.3238968503937008
11
8.7228780314960623
21
-5.3201473228346456
0
LINE
8
BLACK
6
CONTINUOUS
10
8.7228780314960623
20
-5.3201473228346456
11
8.7303770866141726
21
-5.3163977952755905
0
LINE
8
BLACK
6
CONTINUOUS
10
8.7303770866141726
20
-5.3163977952755905
11
8.7416257086614166
21
-5.3163977952755905
0
LINE
8
BLACK
6
CONTINUOUS
10
8.7416257086614166
20
-5.3163977952755905
11
8.7491247637795269
21
-5.3201473228346456
0
LINE
8
BLACK
6
CONTINUOUS
10
8.7491247637795269
20
-5.3201473228346456
11
8.752874291338582
21
-5.3276464173228346
0
LINE
8
BLACK
6
CONTINUOUS
10
8.752874291338582
20
-5.3276464173228346
11
8.752874291338582
21
-5.3688912598425196
0
LINE
8
BLACK
6
CONTINUOUS
10
8.752874291338582
20
-5.3276464173228346
11
8.7566238188976371
21
-5.3201473228346456
0
LINE
8
BLACK
6
CONTINUOUS
10
8.7566238188976371
20
-5.3201473228346456
11
8.7641228740157473
21
-5.3163977952755905
0
LINE
8
BLACK
6
CONTINUOUS
10
8.7641228740157473
20
-5.3163977952755905
11
8.7753714566929126
21
-5.3163977952755905
0
LINE
8
BLACK
6
CONTINUOUS
10
8.7753714566929126
20
-5.3163977952755905
11
8.7828705511811016
21
-5.3201473228346456
0
LINE
8
BLACK
6
CONTINUOUS
10
8.7828705511811016
20
-5.3201473228346456
11
8.7866200787401567
21
-5.3276464173228346
0
LINE
8
BLACK
6
CONTINUOUS
10
8.7866200787401567
20
-5.3276464173228346
11
8.7866200787401567
21
-5.3688912598425196
0
LINE
8
BLACK
6
CONTINUOUS
10
8.9403508661417312
20
-5.2864015748031496
11
8.8728593307086605
21
-5.3876388976377951
0
LINE
8
BLACK
6
CONTINUOUS
10
9.0415882283464573
20
-5.2901511023622048
11
9.0490873228346462
21
-5.2901511023622048
0
LINE
8
BLACK
6
CONTINUOUS
10
9.0490873228346462
20
-5.2901511023622048
11
9.0565863779527565
21
-5.2939006299212599
0
LINE
8
BLACK
6
CONTINUOUS
10
9.0565863779527565
20
-5.2939006299212599
11
9.0603359055118116
21
-5.297650157480315
0
LINE
8
BLACK
6
CONTINUOUS
10
9.0603359055118116
20
-5.297650157480315
11
9.0640854330708667
21
-5.3051492125984252
0
LINE
8
BLACK
6
CONTINUOUS
10
9.0640854330708667
20
-5.3051492125984252
11
9.0678349606299218
21
-5.3201473228346456
0
LINE
8
BLACK
6
CONTINUOUS
10
9.0678349606299218
20
-5.3201473228346456
11
9.0678349606299218
21
-5.3388949999999999
0
LINE
8
BLACK
6
CONTINUOUS
10
9.0678349606299218
20
-5.3388949999999999
11
9.0640854330708667
21
-5.3538931102362204
0
LINE
8
BLACK
6
CONTINUOUS
10
9.0640854330708667
20
-5.3538931102362204
11
9.0603359055118116
21
-5.3613921653543306
0
LINE
8
BLACK
6
CONTINUOUS
10
9.0603359055118116
20
-5.3613921653543306
11
9.0565863779527565
21
-5.3651417322834645
0
LINE
8
BLACK
6
CONTINUOUS
10
9.0565863779527565
20
-5.3651417322834645
11
9.0490873228346462
21
-5.3688912598425196
0
LINE
8
BLACK
6
CONTINUOUS
10
9.0490873228346462
20
-5.3688912598425196
11
9.0415882283464573
21
-5.3688912598425196
0
LINE
8
BLACK
6
CONTINUOUS
10
9.0415882283464573
20
-5.3688912598425196
11
9.034089173228347
21
-5.3651417322834645
0
LINE
8
BLACK
6
CONTINUOUS
10
9.034089173228347
20
-5.3651417322834645
11
9.0303396456692919
21
-5.3613921653543306
0
LINE
8
BLACK
6
CONTINUOUS
10
9.0303396456692919
20
-5.3613921653543306
11
9.0265901181102368
21
-5.3538931102362204
0
LINE
8
BLACK
6
CONTINUOUS
10
9.0265901181102368
20
-5.3538931102362204
11
9.0228405905511817
21
-5.3388949999999999
0
LINE
8
BLACK
6
CONTINUOUS
10
9.0228405905511817
20
-5.3388949999999999
11
9.0228405905511817
21
-5.3201473228346456
0
LINE
8
BLACK
6
CONTINUOUS
10
9.0228405905511817
20
-5.3201473228346456
11
9.0265901181102368
21
-5.3051492125984252
0
LINE
8
BLACK
6
CONTINUOUS
10
9.0265901181102368
20
-5.3051492125984252
11
9.0303396456692919
21
-5.297650157480315
0
LINE
8
BLACK
6
CONTINUOUS
10
9.0303396456692919
20
-5.297650157480315
11
9.034089173228347
21
-5.2939006299212599
0
LINE
8
BLACK
6
CONTINUOUS
10
9.034089173228347
20
-5.2939006299212599
11
9.0415882283464573
21
-5.2901511023622048
0
LINE
8
BLACK
6
CONTINUOUS
10
9.1015807480314965
20
-5.3613921653543306
11
9.1053302755905516
21
-5.3651417322834645
0
LINE
8
BLACK
6
CONTINUOUS
10
9.1053302755905516
20
-5.3651417322834645
11
9.1015807480314965
21
-5.3688912598425196
0
LINE
8
BLACK
6
CONTINUOUS
10
9.1015807480314965
20
-5.3688912598425196
11
9.0978312204724414
21
-5.3651417322834645
0
LINE
8
BLACK
6
CONTINUOUS
10
9.0978312204724414
20
-5.3651417322834645
11
9.1015807480314965
21
-5.3613921653543306
0
LINE
8
BLACK
6
CONTINUOUS
10
9.1015807480314965
20
-5.3613921653543306
11
9.1015807480314965
21
-5.3688912598425196
0
LINE
8
BLACK
6
CONTINUOUS
10
9.1803209055118113
20
-5.3688912598425196
11
9.1353265354330713
21
-5.3688912598425196
0
LINE
8
BLACK
6
CONTINUOUS
10
9.1578237007874019
20
-5.3688912598425196
11
9.1578237007874019
21
-5.2901511023622048
0
LINE
8
BLACK
6
CONTINUOUS
10
9.1578237007874019
20
-5.2901511023622048
11
9.1503246456692917
21
-5.3013996850393701
0
LINE
8
BLACK
6
CONTINUOUS
10
9.1503246456692917
20
-5.3013996850393701
11
9.1428255905511815
21
-5.3088987401574803
0
LINE
8
BLACK
6
CONTINUOUS
10
9.1428255905511815
20
-5.3088987401574803
11
9.1353265354330713
21
-5.3126482677165354
0
LINE
8
BLACK
6
CONTINUOUS
10
9.2065676377952759
20
-5.2901511023622048
11
9.2553115354330711
21
-5.2901511023622048
0
LINE
8
BLACK
6
CONTINUOUS
10
9.2553115354330711
20
-5.2901511023622048
11
9.2290648031496065
21
-5.3201473228346456
0
LINE
8
BLACK
6
CONTINUOUS
10
9.2290648031496065
20
-5.3201473228346456
11
9.2403134251968506
21
-5.3201473228346456
0
LINE
8
BLACK
6
CONTINUOUS
10
9.2403134251968506
20
-5.3201473228346456
11
9.2478124803149608
21
-5.3238968503937008
0
LINE
8
BLACK
6
CONTINUOUS
10
9.2478124803149608
20
-5.3238968503937008
11
9.2515620078740159
21
-5.3276464173228346
0
LINE
8
BLACK
6
CONTINUOUS
10
9.2515620078740159
20
-5.3276464173228346
11
9.2553115354330711
21
-5.3351454724409448
0
LINE
8
BLACK
6
CONTINUOUS
10
9.2553115354330711
20
-5.3351454724409448
11
9.2553115354330711
21
-5.3538931102362204
0
LINE
8
BLACK
6
CONTINUOUS
10
9.2553115354330711
20
-5.3538931102362204
11
9.2515620078740159
21
-5.3613921653543306
0
LINE
8
BLACK
6
CONTINUOUS
10
9.2515620078740159
20
-5.3613921653543306
11
9.2478124803149608
21
-5.3651417322834645
0
LINE
8
BLACK
6
CONTINUOUS
10
9.2478124803149608
20
-5.3651417322834645
11
9.2403134251968506
21
-5.3688912598425196
0
LINE
8
BLACK
6
CONTINUOUS
10
9.2403134251968506
20
-5.3688912598425196
11
9.2178162204724412
21
-5.3688912598425196
0
LINE
8
BLACK
6
CONTINUOUS
10
9.2178162204724412
20
-5.3688912598425196
11
9.210317165354331
21
-5.3651417322834645
0
LINE
8
BLACK
6
CONTINUOUS
10
9.210317165354331
20
-5.3651417322834645
11
9.2065676377952759
21
-5.3613921653543306
0
LINE
8
BLACK
6
CONTINUOUS
10
9.2815582677165356
20
-5.2901511023622048
11
9.3303021653543308
21
-5.2901511023622048
0
LINE
8
BLACK
6
CONTINUOUS
10
9.3303021653543308
20
-5.2901511023622048
11
9.3040554330708662
21
-5.3201473228346456
0
LINE
8
BLACK
6
CONTINUOUS
10
9.3040554330708662
20
-5.3201473228346456
11
9.3153040551181103
21
-5.3201473228346456
0
LINE
8
BLACK
6
CONTINUOUS
10
9.3153040551181103
20
-5.3201473228346456
11
9.3228031102362205
21
-5.3238968503937008
0
LINE
8
BLACK
6
CONTINUOUS
10
9.3228031102362205
20
-5.3238968503937008
11
9.3265526377952757
21
-5.3276464173228346
0
LINE
8
BLACK
6
CONTINUOUS
10
9.3265526377952757
20
-5.3276464173228346
11
9.3303021653543308
21
-5.3351454724409448
0
LINE
8
BLACK
6
CONTINUOUS
10
9.3303021653543308
20
-5.3351454724409448
11
9.3303021653543308
21
-5.3538931102362204
0
LINE
8
BLACK
6
CONTINUOUS
10
9.3303021653543308
20
-5.3538931102362204
11
9.3265526377952757
21
-5.3613921653543306
0
LINE
8
BLACK
6
CONTINUOUS
10
9.3265526377952757
20
-5.3613921653543306
11
9.3228031102362205
21
-5.3651417322834645
0
LINE
8
BLACK
6
CONTINUOUS
10
9.3228031102362205
20
-5.3651417322834645
11
9.3153040551181103
21
-5.3688912598425196
0
LINE
8
BLACK
6
CONTINUOUS
10
9.3153040551181103
20
-5.3688912598425196
11
9.2928068503937009
21
-5.3688912598425196
0
LINE
8
BLACK
6
CONTINUOUS
10
9.2928068503937009
20
-5.3688912598425196
11
9.2853077952755907
21
-5.3651417322834645
0
LINE
8
BLACK
6
CONTINUOUS
10
9.2853077952755907
20
-5.3651417322834645
11
9.2815582677165356
21
-5.3613921653543306
0
LINE
8
BLACK
6
CONTINUOUS
10
9.3677974803149606
20
-5.3688912598425196
11
9.3827955905511811
21
-5.3688912598425196
0
LINE
8
BLACK
6
CONTINUOUS
10
9.3827955905511811
20
-5.3688912598425196
11
9.39029468503937
21
-5.3651417322834645
0
LINE
8
BLACK
6
CONTINUOUS
10
9.39029468503937
20
-5.3651417322834645
11
9.3940442125984251
21
-5.3613921653543306
0
LINE
8
BLACK
6
CONTINUOUS
10
9.3940442125984251
20
-5.3613921653543306
11
9.4015432677165354
21
-5.3501435826771653
0
LINE
8
BLACK
6
CONTINUOUS
10
9.4015432677165354
20
-5.3501435826771653
11
9.4052927952755905
21
-5.3351454724409448
0
LINE
8
BLACK
6
CONTINUOUS
10
9.4052927952755905
20
-5.3351454724409448
11
9.4052927952755905
21
-5.3051492125984252
0
LINE
8
BLACK
6
CONTINUOUS
10
9.4052927952755905
20
-5.3051492125984252
11
9.4015432677165354
21
-5.297650157480315
0
LINE
8
BLACK
6
CONTINUOUS
10
9.4015432677165354
20
-5.297650157480315
11
9.3977937401574803
21
-5.2939006299212599
0
LINE
8
BLACK
6
CONTINUOUS
10
9.3977937401574803
20
-5.2939006299212599
11
9.39029468503937
21
-5.2901511023622048
0
LINE
8
BLACK
6
CONTINUOUS
10
9.39029468503937
20
-5.2901511023622048
11
9.3752965354330708
21
-5.2901511023622048
0
LINE
8
BLACK
6
CONTINUOUS
10
9.3752965354330708
20
-5.2901511023622048
11
9.3677974803149606
21
-5.2939006299212599
0
LINE
8
BLACK
6
CONTINUOUS
10
9.3677974803149606
20
-5.2939006299212599
11
9.3640479527559055
21
-5.297650157480315
0
LINE
8
BLACK
6
CONTINUOUS
10
9.3640479527559055
20
-5.297650157480315
11
9.3602984251968504
21
-5.3051492125984252
0
LINE
8
BLACK
6
CONTINUOUS
10
9.3602984251968504
20
-5.3051492125984252
11
9.3602984251968504
21
-5.3238968503937008
0
LINE
8
BLACK
6
CONTINUOUS
10
9.3602984251968504
20
-5.3238968503937008
11
9.3640479527559055
21
-5.3313959448818897
0
LINE
8
BLACK
6
CONTINUOUS
10
9.3640479527559055
20
-5.3313959448818897
11
9.3677974803149606
21
-5.3351454724409448
0
LINE
8
BLACK
6
CONTINUOUS
10
9.3677974803149606
20
-5.3351454724409448
11
9.3752965354330708
21
-5.3388949999999999
0
LINE
8
BLACK
6
CONTINUOUS
10
9.3752965354330708
20
-5.3388949999999999
11
9.39029468503937
21
-5.3388949999999999
0
LINE
8
BLACK
6
CONTINUOUS
10
9.39029468503937
20
-5.3388949999999999
11
9.3977937401574803
21
-5.3351454724409448
0
LINE
8
BLACK
6
CONTINUOUS
10
9.3977937401574803
20
-5.3351454724409448
11
9.4015432677165354
21
-5.3313959448818897
0
LINE
8
BLACK
6
CONTINUOUS
10
9.4015432677165354
20
-5.3313959448818897
11
9.4052927952755905
21
-5.3238968503937008
0
LINE
8
BLACK
6
CONTINUOUS
10
9.4352890551181101
20
-5.2901511023622048
11
9.4352890551181101
21
-5.3051492125984252
0
LINE
8
BLACK
6
CONTINUOUS
10
9.4652853149606297
20
-5.2901511023622048
11
9.4652853149606297
21
-5.3051492125984252
0
LINE
8
BLACK
6
CONTINUOUS
10
9.5815208267716532
20
-5.3988874803149605
11
9.5777712598425193
21
-5.3951379527559054
0
LINE
8
BLACK
6
CONTINUOUS
10
9.5777712598425193
20
-5.3951379527559054
11
9.5702722047244091
21
-5.38388937007874
0
LINE
8
BLACK
6
CONTINUOUS
10
9.5702722047244091
20
-5.38388937007874
11
9.566522677165354
21
-5.3763903149606298
0
LINE
8
BLACK
6
CONTINUOUS
10
9.566522677165354
20
-5.3763903149606298
11
9.5627731496062989
21
-5.3651417322834645
0
LINE
8
BLACK
6
CONTINUOUS
10
9.5627731496062989
20
-5.3651417322834645
11
9.5590236220472438
21
-5.3463940551181102
0
LINE
8
BLACK
6
CONTINUOUS
10
9.5590236220472438
20
-5.3463940551181102
11
9.5590236220472438
21
-5.3313959448818897
0
LINE
8
BLACK
6
CONTINUOUS
10
9.5590236220472438
20
-5.3313959448818897
11
9.5627731496062989
21
-5.3126482677165354
0
LINE
8
BLACK
6
CONTINUOUS
10
9.5627731496062989
20
-5.3126482677165354
11
9.566522677165354
21
-5.3013996850393701
0
LINE
8
BLACK
6
CONTINUOUS
10
9.566522677165354
20
-5.3013996850393701
11
9.5702722047244091
21
-5.2939006299212599
0
LINE
8
BLACK
6
CONTINUOUS
10
9.5702722047244091
20
-5.2939006299212599
11
9.5777712598425193
21
-5.2826520078740158
0
LINE
8
BLACK
6
CONTINUOUS
10
9.5777712598425193
20
-5.2826520078740158
11
9.5815208267716532
21
-5.2789024803149607
0
LINE
8
BLACK
6
CONTINUOUS
10
9.6077675196850389
20
-5.297650157480315
11
9.6115170472440941
21
-5.2939006299212599
0
LINE
8
BLACK
6
CONTINUOUS
10
9.6115170472440941
20
-5.2939006299212599
11
9.6190161023622043
21
-5.2901511023622048
0
LINE
8
BLACK
6
CONTINUOUS
10
9.6190161023622043
20
-5.2901511023622048
11
9.6377637795275586
21
-5.2901511023622048
0
LINE
8
BLACK
6
CONTINUOUS
10
9.6377637795275586
20
-5.2901511023622048
11
9.6452628346456688
21
-5.2939006299212599
0
LINE
8
BLACK
6
CONTINUOUS
10
9.6452628346456688
20
-5.2939006299212599
11
9.6490123622047239
21
-5.297650157480315
0
LINE
8
BLACK
6
CONTINUOUS
10
9.6490123622047239
20
-5.297650157480315
11
9.652761889763779
21
-5.3051492125984252
0
LINE
8
BLACK
6
CONTINUOUS
10
9.652761889763779
20
-5.3051492125984252
11
9.652761889763779
21
-5.3126482677165354
0
LINE
8
BLACK
6
CONTINUOUS
10
9.652761889763779
20
-5.3126482677165354
11
9.6490123622047239
21
-5.3238968503937008
0
LINE
8
BLACK
6
CONTINUOUS
10
9.6490123622047239
20
-5.3238968503937008
11
9.6040179921259838
21
-5.3688912598425196
0
LINE
8
BLACK
6
CONTINUOUS
10
9.6040179921259838
20
-5.3688912598425196
11
9.652761889763779
21
-5.3688912598425196
0
LINE
8
BLACK
6
CONTINUOUS
10
9.746500196850393
20
-5.3688912598425196
11
9.746500196850393
21
-5.2901511023622048
0
LINE
8
BLACK
6
CONTINUOUS
10
9.7802459842519678
20
-5.3688912598425196
11
9.7802459842519678
21
-5.3276464173228346
0
LINE
8
BLACK
6
CONTINUOUS
10
9.7802459842519678
20
-5.3276464173228346
11
9.7764964566929127
21
-5.3201473228346456
0
LINE
8
BLACK
6
CONTINUOUS
10
9.7764964566929127
20
-5.3201473228346456
11
9.7689974015748025
21
-5.3163977952755905
0
LINE
8
BLACK
6
CONTINUOUS
10
9.7689974015748025
20
-5.3163977952755905
11
9.7577487795275584
21
-5.3163977952755905
0
LINE
8
BLACK
6
CONTINUOUS
10
9.7577487795275584
20
-5.3163977952755905
11
9.7502497244094481
21
-5.3201473228346456
0
LINE
8
BLACK
6
CONTINUOUS
10
9.7502497244094481
20
-5.3201473228346456
11
9.746500196850393
21
-5.3238968503937008
0
LINE
8
BLACK
6
CONTINUOUS
10
9.828989881889763
20
-5.3688912598425196
11
9.8214908267716527
21
-5.3651417322834645
0
LINE
8
BLACK
6
CONTINUOUS
10
9.8214908267716527
20
-5.3651417322834645
11
9.8177412992125976
21
-5.3613921653543306
0
LINE
8
BLACK
6
CONTINUOUS
10
9.8177412992125976
20
-5.3613921653543306
11
9.8139917716535425
21
-5.3538931102362204
0
LINE
8
BLACK
6
CONTINUOUS
10
9.8139917716535425
20
-5.3538931102362204
11
9.8139917716535425
21
-5.3313959448818897
0
LINE
8
BLACK
6
CONTINUOUS
10
9.8139917716535425
20
-5.3313959448818897
11
9.8177412992125976
21
-5.3238968503937008
0
LINE
8
BLACK
6
CONTINUOUS
10
9.8177412992125976
20
-5.3238968503937008
11
9.8214908267716527
21
-5.3201473228346456
0
LINE
8
BLACK
6
CONTINUOUS
10
9.8214908267716527
20
-5.3201473228346456
11
9.828989881889763
21
-5.3163977952755905
0
LINE
8
BLACK
6
CONTINUOUS
10
9.828989881889763
20
-5.3163977952755905
11
9.8402385039370071
21
-5.3163977952755905
0
LINE
8
BLACK
6
CONTINUOUS
10
9.8402385039370071
20
-5.3163977952755905
11
9.8477375590551173
21
-5.3201473228346456
0
LINE
8
BLACK
6
CONTINUOUS
10
9.8477375590551173
20
-5.3201473228346456
11
9.8514870866141724
21
-5.3238968503937008
0
LINE
8
BLACK
6
CONTINUOUS
10
9.8514870866141724
20
-5.3238968503937008
11
9.8552366141732275
21
-5.3313959448818897
0
LINE
8
BLACK
6
CONTINUOUS
10
9.8552366141732275
20
-5.3313959448818897
11
9.8552366141732275
21
-5.3538931102362204
0
LINE
8
BLACK
6
CONTINUOUS
10
9.8552366141732275
20
-5.3538931102362204
11
9.8514870866141724
21
-5.3613921653543306
0
LINE
8
BLACK
6
CONTINUOUS
10
9.8514870866141724
20
-5.3613921653543306
11
9.8477375590551173
21
-5.3651417322834645
0
LINE
8
BLACK
6
CONTINUOUS
10
9.8477375590551173
20
-5.3651417322834645
11
9.8402385039370071
21
-5.3688912598425196
0
LINE
8
BLACK
6
CONTINUOUS
10
9.8402385039370071
20
-5.3688912598425196
11
9.828989881889763
21
-5.3688912598425196
0
LINE
8
BLACK
6
CONTINUOUS
10
9.9002309842519676
20
-5.3688912598425196
11
9.8927319291338573
21
-5.3651417322834645
0
LINE
8
BLACK
6
CONTINUOUS
10
9.8927319291338573
20
-5.3651417322834645
11
9.8889824015748022
21
-5.3576426377952755
0
LINE
8
BLACK
6
CONTINUOUS
10
9.8889824015748022
20
-5.3576426377952755
11
9.8889824015748022
21
-5.2901511023622048
0
LINE
8
BLACK
6
CONTINUOUS
10
9.9602235039370068
20
-5.3651417322834645
11
9.9527244488188966
21
-5.3688912598425196
0
LINE
8
BLACK
6
CONTINUOUS
10
9.9527244488188966
20
-5.3688912598425196
11
9.9377262992125974
21
-5.3688912598425196
0
LINE
8
BLACK
6
CONTINUOUS
10
9.9377262992125974
20
-5.3688912598425196
11
9.9302272440944872
21
-5.3651417322834645
0
LINE
8
BLACK
6
CONTINUOUS
10
9.9302272440944872
20
-5.3651417322834645
11
9.9264777165354321
21
-5.3576426377952755
0
LINE
8
BLACK
6
CONTINUOUS
10
9.9264777165354321
20
-5.3576426377952755
11
9.9264777165354321
21
-5.3276464173228346
0
LINE
8
BLACK
6
CONTINUOUS
10
9.9264777165354321
20
-5.3276464173228346
11
9.9302272440944872
21
-5.3201473228346456
0
LINE
8
BLACK
6
CONTINUOUS
10
9.9302272440944872
20
-5.3201473228346456
11
9.9377262992125974
21
-5.3163977952755905
0
LINE
8
BLACK
6
CONTINUOUS
10
9.9377262992125974
20
-5.3163977952755905
11
9.9527244488188966
21
-5.3163977952755905
0
LINE
8
BLACK
6
CONTINUOUS
10
9.9527244488188966
20
-5.3163977952755905
11
9.9602235039370068
21
-5.3201473228346456
0
LINE
8
BLACK
6
CONTINUOUS
10
9.9602235039370068
20
-5.3201473228346456
11
9.9639730314960619
21
-5.3276464173228346
0
LINE
8
BLACK
6
CONTINUOUS
10
9.9639730314960619
20
-5.3276464173228346
11
9.9639730314960619
21
-5.3351454724409448
0
LINE
8
BLACK
6
CONTINUOUS
10
9.9639730314960619
20
-5.3351454724409448
11
9.9264777165354321
21
-5.3426445275590551
0
LINE
8
BLACK
6
CONTINUOUS
10
9.9939692913385816
20
-5.3651417322834645
11
10.0014683464566918
21
-5.3688912598425196
0
LINE
8
BLACK
6
CONTINUOUS
10
10.0014683464566918
20
-5.3688912598425196
11
10.016466456692914
21
-5.3688912598425196
0
LINE
8
BLACK
6
CONTINUOUS
10
10.016466456692914
20
-5.3688912598425196
11
10.023965551181103
21
-5.3651417322834645
0
LINE
8
BLACK
6
CONTINUOUS
10
10.023965551181103
20
-5.3651417322834645
11
10.0277150787401581
21
-5.3576426377952755
0
LINE
8
BLACK
6
CONTINUOUS
10
10.0277150787401581
20
-5.3576426377952755
11
10.0277150787401581
21
-5.3538931102362204
0
LINE
8
BLACK
6
CONTINUOUS
10
10.0277150787401581
20
-5.3538931102362204
11
10.023965551181103
21
-5.3463940551181102
0
LINE
8
BLACK
6
CONTINUOUS
10
10.023965551181103
20
-5.3463940551181102
11
10.016466456692914
21
-5.3426445275590551
0
LINE
8
BLACK
6
CONTINUOUS
10
10.016466456692914
20
-5.3426445275590551
11
10.0052178740157487
21
-5.3426445275590551
0
LINE
8
BLACK
6
CONTINUOUS
10
10.0052178740157487
20
-5.3426445275590551
11
9.9977188188976367
21
-5.3388949999999999
0
LINE
8
BLACK
6
CONTINUOUS
10
9.9977188188976367
20
-5.3388949999999999
11
9.9939692913385816
21
-5.3313959448818897
0
LINE
8
BLACK
6
CONTINUOUS
10
9.9939692913385816
20
-5.3313959448818897
11
9.9939692913385816
21
-5.3276464173228346
0
LINE
8
BLACK
6
CONTINUOUS
10
9.9939692913385816
20
-5.3276464173228346
11
9.9977188188976367
21
-5.3201473228346456
0
LINE
8
BLACK
6
CONTINUOUS
10
9.9977188188976367
20
-5.3201473228346456
11
10.0052178740157487
21
-5.3163977952755905
0
LINE
8
BLACK
6
CONTINUOUS
10
10.0052178740157487
20
-5.3163977952755905
11
10.016466456692914
21
-5.3163977952755905
0
LINE
8
BLACK
6
CONTINUOUS
10
10.016466456692914
20
-5.3163977952755905
11
10.023965551181103
21
-5.3201473228346456
0
LINE
8
BLACK
6
CONTINUOUS
10
10.0539618110236226
20
-5.3988874803149605
11
10.0577113385826777
21
-5.3951379527559054
0
LINE
8
BLACK
6
CONTINUOUS
10
10.0577113385826777
20
-5.3951379527559054
11
10.065210393700788
21
-5.38388937007874
0
LINE
8
BLACK
6
CONTINUOUS
10
10.065210393700788
20
-5.38388937007874
11
10.0689599212598431
21
-5.3763903149606298
0
LINE
8
BLACK
6
CONTINUOUS
10
10.0689599212598431
20
-5.3763903149606298
11
10.0727094488188982
21
-5.3651417322834645
0
LINE
8
BLACK
6
CONTINUOUS
10
10.0727094488188982
20
-5.3651417322834645
11
10.0764589763779533
21
-5.3463940551181102
0
LINE
8
BLACK
6
CONTINUOUS
10
10.0764589763779533
20
-5.3463940551181102
11
10.0764589763779533
21
-5.3313959448818897
0
LINE
8
BLACK
6
CONTINUOUS
10
10.0764589763779533
20
-5.3313959448818897
11
10.0727094488188982
21
-5.3126482677165354
0
LINE
8
BLACK
6
CONTINUOUS
10
10.0727094488188982
20
-5.3126482677165354
11
10.0689599212598431
21
-5.3013996850393701
0
LINE
8
BLACK
6
CONTINUOUS
10
10.0689599212598431
20
-5.3013996850393701
11
10.065210393700788
21
-5.2939006299212599
0
LINE
8
BLACK
6
CONTINUOUS
10
10.065210393700788
20
-5.2939006299212599
11
10.0577113385826777
21
-5.2826520078740158
0
LINE
8
BLACK
6
CONTINUOUS
10
10.0577113385826777
20
-5.2826520078740158
11
10.0539618110236226
21
-5.2789024803149607
0
LINE
8
BLACK
6
CONTINUOUS
10
10.1964440157480318
20
-5.3988874803149605
11
10.192694448818898
21
-5.3951379527559054
0
LINE
8
BLACK
6
CONTINUOUS
10
10.192694448818898
20
-5.3951379527559054
11
10.1851953937007877
21
-5.38388937007874
0
LINE
8
BLACK
6
CONTINUOUS
10
10.1851953937007877
20
-5.38388937007874
11
10.1814458661417326
21
-5.3763903149606298
0
LINE
8
BLACK
6
CONTINUOUS
10
10.1814458661417326
20
-5.3763903149606298
11
10.1776963385826775
21
-5.3651417322834645
0
LINE
8
BLACK
6
CONTINUOUS
10
10.1776963385826775
20
-5.3651417322834645
11
10.1739468110236224
21
-5.3463940551181102
0
LINE
8
BLACK
6
CONTINUOUS
10
10.1739468110236224
20
-5.3463940551181102
11
10.1739468110236224
21
-5.3313959448818897
0
LINE
8
BLACK
6
CONTINUOUS
10
10.1739468110236224
20
-5.3313959448818897
11
10.1776963385826775
21
-5.3126482677165354
0
LINE
8
BLACK
6
CONTINUOUS
10
10.1776963385826775
20
-5.3126482677165354
11
10.1814458661417326
21
-5.3013996850393701
0
LINE
8
BLACK
6
CONTINUOUS
10
10.1814458661417326
20
-5.3013996850393701
11
10.1851953937007877
21
-5.2939006299212599
0
LINE
8
BLACK
6
CONTINUOUS
10
10.1851953937007877
20
-5.2939006299212599
11
10.192694448818898
21
-5.2826520078740158
0
LINE
8
BLACK
6
CONTINUOUS
10
10.192694448818898
20
-5.2826520078740158
11
10.1964440157480318
21
-5.2789024803149607
0
LINE
8
BLACK
6
CONTINUOUS
10
10.2264402362204727
20
-5.3163977952755905
11
10.2264402362204727
21
-5.3688912598425196
0
LINE
8
BLACK
6
CONTINUOUS
10
10.2264402362204727
20
-5.3238968503937008
11
10.2301897637795278
21
-5.3201473228346456
0
LINE
8
BLACK
6
CONTINUOUS
10
10.2301897637795278
20
-5.3201473228346456
11
10.237688818897638
21
-5.3163977952755905
0
LINE
8
BLACK
6
CONTINUOUS
10
10.237688818897638
20
-5.3163977952755905
11
10.2489374409448821
21
-5.3163977952755905
0
LINE
8
BLACK
6
CONTINUOUS
10
10.2489374409448821
20
-5.3163977952755905
11
10.2564364960629923
21
-5.3201473228346456
0
LINE
8
BLACK
6
CONTINUOUS
10
10.2564364960629923
20
-5.3201473228346456
11
10.2601860236220475
21
-5.3276464173228346
0
LINE
8
BLACK
6
CONTINUOUS
10
10.2601860236220475
20
-5.3276464173228346
11
10.2601860236220475
21
-5.3688912598425196
0
LINE
8
BLACK
6
CONTINUOUS
10
10.3089299212598426
20
-5.3688912598425196
11
10.3014308661417324
21
-5.3651417322834645
0
LINE
8
BLACK
6
CONTINUOUS
10
10.3014308661417324
20
-5.3651417322834645
11
10.2976813385826773
21
-5.3613921653543306
0
LINE
8
BLACK
6
CONTINUOUS
10
10.2976813385826773
20
-5.3613921653543306
11
10.2939318110236222
21
-5.3538931102362204
0
LINE
8
BLACK
6
CONTINUOUS
10
10.2939318110236222
20
-5.3538931102362204
11
10.2939318110236222
21
-5.3313959448818897
0
LINE
8
BLACK
6
CONTINUOUS
10
10.2939318110236222
20
-5.3313959448818897
11
10.2976813385826773
21
-5.3238968503937008
0
LINE
8
BLACK
6
CONTINUOUS
10
10.2976813385826773
20
-5.3238968503937008
11
10.3014308661417324
21
-5.3201473228346456
0
LINE
8
BLACK
6
CONTINUOUS
10
10.3014308661417324
20
-5.3201473228346456
11
10.3089299212598426
21
-5.3163977952755905
0
LINE
8
BLACK
6
CONTINUOUS
10
10.3089299212598426
20
-5.3163977952755905
11
10.3201785433070867
21
-5.3163977952755905
0
LINE
8
BLACK
6
CONTINUOUS
10
10.3201785433070867
20
-5.3163977952755905
11
10.3276775984251969
21
-5.3201473228346456
0
LINE
8
BLACK
6
CONTINUOUS
10
10.3276775984251969
20
-5.3201473228346456
11
10.3314271259842521
21
-5.3238968503937008
0
LINE
8
BLACK
6
CONTINUOUS
10
10.3314271259842521
20
-5.3238968503937008
11
10.3351766535433072
21
-5.3313959448818897
0
LINE
8
BLACK
6
CONTINUOUS
10
10.3351766535433072
20
-5.3313959448818897
11
10.3351766535433072
21
-5.3538931102362204
0
LINE
8
BLACK
6
CONTINUOUS
10
10.3351766535433072
20
-5.3538931102362204
11
10.3314271259842521
21
-5.3613921653543306
0
LINE
8
BLACK
6
CONTINUOUS
10
10.3314271259842521
20
-5.3613921653543306
11
10.3276775984251969
21
-5.3651417322834645
0
LINE
8
BLACK
6
CONTINUOUS
10
10.3276775984251969
20
-5.3651417322834645
11
10.3201785433070867
21
-5.3688912598425196
0
LINE
8
BLACK
6
CONTINUOUS
10
10.3201785433070867
20
-5.3688912598425196
11
10.3089299212598426
21
-5.3688912598425196
0
LINE
8
BLACK
6
CONTINUOUS
10
10.3576738582677166
20
-5.3163977952755905
11
10.3876700787401575
21
-5.3163977952755905
0
LINE
8
BLACK
6
CONTINUOUS
10
10.3689224409448819
20
-5.2901511023622048
11
10.3689224409448819
21
-5.3576426377952755
0
LINE
8
BLACK
6
CONTINUOUS
10
10.3689224409448819
20
-5.3576426377952755
11
10.372671968503937
21
-5.3651417322834645
0
LINE
8
BLACK
6
CONTINUOUS
10
10.372671968503937
20
-5.3651417322834645
11
10.3801710236220472
21
-5.3688912598425196
0
LINE
8
BLACK
6
CONTINUOUS
10
10.3801710236220472
20
-5.3688912598425196
11
10.3876700787401575
21
-5.3688912598425196
0
LINE
8
BLACK
6
CONTINUOUS
10
10.4739093307086613
20
-5.3163977952755905
11
10.4739093307086613
21
-5.3951379527559054
0
LINE
8
BLACK
6
CONTINUOUS
10
10.4739093307086613
20
-5.3201473228346456
11
10.4814083858267715
21
-5.3163977952755905
0
LINE
8
BLACK
6
CONTINUOUS
10
10.4814083858267715
20
-5.3163977952755905
11
10.4964065354330707
21
-5.3163977952755905
0
LINE
8
BLACK
6
CONTINUOUS
10
10.4964065354330707
20
-5.3163977952755905
11
10.5039055905511809
21
-5.3201473228346456
0
LINE
8
BLACK
6
CONTINUOUS
10
10.5039055905511809
20
-5.3201473228346456
11
10.507655118110236
21
-5.3238968503937008
0
LINE
8
BLACK
6
CONTINUOUS
10
10.507655118110236
20
-5.3238968503937008
11
10.5114046456692911
21
-5.3313959448818897
0
LINE
8
BLACK
6
CONTINUOUS
10
10.5114046456692911
20
-5.3313959448818897
11
10.5114046456692911
21
-5.3538931102362204
0
LINE
8
BLACK
6
CONTINUOUS
10
10.5114046456692911
20
-5.3538931102362204
11
10.507655118110236
21
-5.3613921653543306
0
LINE
8
BLACK
6
CONTINUOUS
10
10.507655118110236
20
-5.3613921653543306
11
10.5039055905511809
21
-5.3651417322834645
0
LINE
8
BLACK
6
CONTINUOUS
10
10.5039055905511809
20
-5.3651417322834645
11
10.4964065354330707
21
-5.3688912598425196
0
LINE
8
BLACK
6
CONTINUOUS
10
10.4964065354330707
20
-5.3688912598425196
11
10.4814083858267715
21
-5.3688912598425196
0
LINE
8
BLACK
6
CONTINUOUS
10
10.4814083858267715
20
-5.3688912598425196
11
10.4739093307086613
21
-5.3651417322834645
0
LINE
8
BLACK
6
CONTINUOUS
10
10.5563990157480312
20
-5.3688912598425196
11
10.548899960629921
21
-5.3651417322834645
0
LINE
8
BLACK
6
CONTINUOUS
10
10.548899960629921
20
-5.3651417322834645
11
10.5451504330708659
21
-5.3576426377952755
0
LINE
8
BLACK
6
CONTINUOUS
10
10.5451504330708659
20
-5.3576426377952755
11
10.5451504330708659
21
-5.2901511023622048
0
LINE
8
BLACK
6
CONTINUOUS
10
10.6201410629921256
20
-5.3688912598425196
11
10.6201410629921256
21
-5.3276464173228346
0
LINE
8
BLACK
6
CONTINUOUS
10
10.6201410629921256
20
-5.3276464173228346
11
10.6163915354330705
21
-5.3201473228346456
0
LINE
8
BLACK
6
CONTINUOUS
10
10.6163915354330705
20
-5.3201473228346456
11
10.6088924803149602
21
-5.3163977952755905
0
LINE
8
BLACK
6
CONTINUOUS
10
10.6088924803149602
20
-5.3163977952755905
11
10.593894330708661
21
-5.3163977952755905
0
LINE
8
BLACK
6
CONTINUOUS
10
10.593894330708661
20
-5.3163977952755905
11
10.5863952755905508
21
-5.3201473228346456
0
LINE
8
BLACK
6
CONTINUOUS
10
10.6201410629921256
20
-5.3651417322834645
11
10.6126420078740153
21
-5.3688912598425196
0
LINE
8
BLACK
6
CONTINUOUS
10
10.6126420078740153
20
-5.3688912598425196
11
10.593894330708661
21
-5.3688912598425196
0
LINE
8
BLACK
6
CONTINUOUS
10
10.593894330708661
20
-5.3688912598425196
11
10.5863952755905508
21
-5.3651417322834645
0
LINE
8
BLACK
6
CONTINUOUS
10
10.5863952755905508
20
-5.3651417322834645
11
10.5826457480314957
21
-5.3576426377952755
0
LINE
8
BLACK
6
CONTINUOUS
10
10.5826457480314957
20
-5.3576426377952755
11
10.5826457480314957
21
-5.3501435826771653
0
LINE
8
BLACK
6
CONTINUOUS
10
10.5826457480314957
20
-5.3501435826771653
11
10.5863952755905508
21
-5.3426445275590551
0
LINE
8
BLACK
6
CONTINUOUS
10
10.5863952755905508
20
-5.3426445275590551
11
10.593894330708661
21
-5.3388949999999999
0
LINE
8
BLACK
6
CONTINUOUS
10
10.593894330708661
20
-5.3388949999999999
11
10.6126420078740153
21
-5.3388949999999999
0
LINE
8
BLACK
6
CONTINUOUS
10
10.6126420078740153
20
-5.3388949999999999
11
10.6201410629921256
21
-5.3351454724409448
0
LINE
8
BLACK
6
CONTINUOUS
10
10.6463877952755901
20
-5.3163977952755905
11
10.676384015748031
21
-5.3163977952755905
0
LINE
8
BLACK
6
CONTINUOUS
10
10.6576363779527554
20
-5.2901511023622048
11
10.6576363779527554
21
-5.3576426377952755
0
LINE
8
BLACK
6
CONTINUOUS
10
10.6576363779527554
20
-5.3576426377952755
11
10.6613859055118105
21
-5.3651417322834645
0
LINE
8
BLACK
6
CONTINUOUS
10
10.6613859055118105
20
-5.3651417322834645
11
10.6688849606299208
21
-5.3688912598425196
0
LINE
8
BLACK
6
CONTINUOUS
10
10.6688849606299208
20
-5.3688912598425196
11
10.676384015748031
21
-5.3688912598425196
0
LINE
8
BLACK
6
CONTINUOUS
10
10.7326270078740151
20
-5.3651417322834645
11
10.7251279527559049
21
-5.3688912598425196
0
LINE
8
BLACK
6
CONTINUOUS
10
10.7251279527559049
20
-5.3688912598425196
11
10.7101298031496057
21
-5.3688912598425196
0
LINE
8
BLACK
6
CONTINUOUS
10
10.7101298031496057
20
-5.3688912598425196
11
10.7026307480314955
21
-5.3651417322834645
0
LINE
8
BLACK
6
CONTINUOUS
10
10.7026307480314955
20
-5.3651417322834645
11
10.6988812204724404
21
-5.3576426377952755
0
LINE
8
BLACK
6
CONTINUOUS
10
10.6988812204724404
20
-5.3576426377952755
11
10.6988812204724404
21
-5.3276464173228346
0
LINE
8
BLACK
6
CONTINUOUS
10
10.6988812204724404
20
-5.3276464173228346
11
10.7026307480314955
21
-5.3201473228346456
0
LINE
8
BLACK
6
CONTINUOUS
10
10.7026307480314955
20
-5.3201473228346456
11
10.7101298031496057
21
-5.3163977952755905
0
LINE
8
BLACK
6
CONTINUOUS
10
10.7101298031496057
20
-5.3163977952755905
11
10.7251279527559049
21
-5.3163977952755905
0
LINE
8
BLACK
6
CONTINUOUS
10
10.7251279527559049
20
-5.3163977952755905
11
10.7326270078740151
21
-5.3201473228346456
0
LINE
8
BLACK
6
CONTINUOUS
10
10.7326270078740151
20
-5.3201473228346456
11
10.7363765354330702
21
-5.3276464173228346
0
LINE
8
BLACK
6
CONTINUOUS
10
10.7363765354330702
20
-5.3276464173228346
11
10.7363765354330702
21
-5.3351454724409448
0
LINE
8
BLACK
6
CONTINUOUS
10
10.7363765354330702
20
-5.3351454724409448
11
10.6988812204724404
21
-5.3426445275590551
0
LINE
8
BLACK
6
CONTINUOUS
10
10.8038681102362197
20
-5.3688912598425196
11
10.8038681102362197
21
-5.2901511023622048
0
LINE
8
BLACK
6
CONTINUOUS
10
10.8038681102362197
20
-5.3651417322834645
11
10.7963690551181095
21
-5.3688912598425196
0
LINE
8
BLACK
6
CONTINUOUS
10
10.7963690551181095
20
-5.3688912598425196
11
10.7813709055118103
21
-5.3688912598425196
0
LINE
8
BLACK
6
CONTINUOUS
10
10.7813709055118103
20
-5.3688912598425196
11
10.7738718503937001
21
-5.3651417322834645
0
LINE
8
BLACK
6
CONTINUOUS
10
10.7738718503937001
20
-5.3651417322834645
11
10.770122322834645
21
-5.3613921653543306
0
LINE
8
BLACK
6
CONTINUOUS
10
10.770122322834645
20
-5.3613921653543306
11
10.7663727952755899
21
-5.3538931102362204
0
LINE
8
BLACK
6
CONTINUOUS
10
10.7663727952755899
20
-5.3538931102362204
11
10.7663727952755899
21
-5.3313959448818897
0
LINE
8
BLACK
6
CONTINUOUS
10
10.7663727952755899
20
-5.3313959448818897
11
10.770122322834645
21
-5.3238968503937008
0
LINE
8
BLACK
6
CONTINUOUS
10
10.770122322834645
20
-5.3238968503937008
11
10.7738718503937001
21
-5.3201473228346456
0
LINE
8
BLACK
6
CONTINUOUS
10
10.7738718503937001
20
-5.3201473228346456
11
10.7813709055118103
21
-5.3163977952755905
0
LINE
8
BLACK
6
CONTINUOUS
10
10.7813709055118103
20
-5.3163977952755905
11
10.7963690551181095
21
-5.3163977952755905
0
LINE
8
BLACK
6
CONTINUOUS
10
10.7963690551181095
20
-5.3163977952755905
11
10.8038681102362197
21
-5.3201473228346456
0
LINE
8
BLACK
6
CONTINUOUS
10
10.8338643700787394
20
-5.3988874803149605
11
10.8376138976377945
21
-5.3951379527559054
0
LINE
8
BLACK
6
CONTINUOUS
10
10.8376138976377945
20
-5.3951379527559054
11
10.8451129527559047
21
-5.38388937007874
0
LINE
8
BLACK
6
CONTINUOUS
10
10.8451129527559047
20
-5.38388937007874
11
10.8488624803149598
21
-5.3763903149606298
0
LINE
8
BLACK
6
CONTINUOUS
10
10.8488624803149598
20
-5.3763903149606298
11
10.8526120078740149
21
-5.3651417322834645
0
LINE
8
BLACK
6
CONTINUOUS
10
10.8526120078740149
20
-5.3651417322834645
11
10.85636153543307
21
-5.3463940551181102
0
LINE
8
BLACK
6
CONTINUOUS
10
10.85636153543307
20
-5.3463940551181102
11
10.85636153543307
21
-5.3313959448818897
0
LINE
8
BLACK
6
CONTINUOUS
10
10.85636153543307
20
-5.3313959448818897
11
10.8526120078740149
21
-5.3126482677165354
0
LINE
8
BLACK
6
CONTINUOUS
10
10.8526120078740149
20
-5.3126482677165354
11
10.8488624803149598
21
-5.3013996850393701
0
LINE
8
BLACK
6
CONTINUOUS
10
10.8488624803149598
20
-5.3013996850393701
11
10.8451129527559047
21
-5.2939006299212599
0
LINE
8
BLACK
6
CONTINUOUS
10
10.8451129527559047
20
-5.2939006299212599
11
10.8376138976377945
21
-5.2826520078740158
0
LINE
8
BLACK
6
CONTINUOUS
10
10.8376138976377945
20
-5.2826520078740158
11
10.8338643700787394
21
-5.2789024803149607
  0
ENDSEC
  0
EOF
