<?xml version="1.0" standalone="no"?>
 <!DOCTYPE svg PUBLIC "-//W3C//DTD SVG 1.1//EN" 
 "http://www.w3.org/Graphics/SVG/1.1/DTD/svg11.dtd"> 
<svg
  xmlns:svg="http://www.w3.org/2000/svg"
  xmlns="http://www.w3.org/2000/svg"
  xmlns:xlink="http://www.w3.org/1999/xlink"
  version="1.1"
  width="431.8000mm" height="279.4000mm" viewBox="0.0000 0.0000 431.8000 279.4000">
<title>SVG Image created as mag-encoder-B_Silkscreen.svg date 2024/08/24 22:03:31 </title>
  <desc>Image generated by PCBNEW </desc>
<g style="fill:#000000; fill-opacity:1.0000;stroke:#000000; stroke-opacity:1.0000;
stroke-linecap:round; stroke-linejoin:round;"
 transform="translate(0 0) scale(1 1)">
</g>
<g style="fill:none; 
stroke:#000000; stroke-width:0.1524; stroke-opacity:1; 
stroke-linecap:round; stroke-linejoin:round;">
<text x="209.2960" y="130.3655"
textLength="3.6237" font-size="1.1853" lengthAdjust="spacingAndGlyphs"
text-anchor="end" opacity="0" stroke-opacity="0">SCLK</text>
<g class="stroked-text"><desc>SCLK</desc>
<path d="M206.0207 130.2820
L206.1477 130.3243
" />
<path d="M206.1477 130.3243
L206.3594 130.3243
" />
<path d="M206.3594 130.3243
L206.4441 130.2820
" />
<path d="M206.4441 130.2820
L206.4864 130.2397
" />
<path d="M206.4864 130.2397
L206.5287 130.1550
" />
<path d="M206.5287 130.1550
L206.5287 130.0703
" />
<path d="M206.5287 130.0703
L206.4864 129.9857
" />
<path d="M206.4864 129.9857
L206.4441 129.9433
" />
<path d="M206.4441 129.9433
L206.3594 129.9010
" />
<path d="M206.3594 129.9010
L206.1901 129.8587
" />
<path d="M206.1901 129.8587
L206.1054 129.8163
" />
<path d="M206.1054 129.8163
L206.0631 129.7740
" />
<path d="M206.0631 129.7740
L206.0207 129.6893
" />
<path d="M206.0207 129.6893
L206.0207 129.6047
" />
<path d="M206.0207 129.6047
L206.0631 129.5200
" />
<path d="M206.0631 129.5200
L206.1054 129.4777
" />
<path d="M206.1054 129.4777
L206.1901 129.4353
" />
<path d="M206.1901 129.4353
L206.4017 129.4353
" />
<path d="M206.4017 129.4353
L206.5287 129.4777
" />
<path d="M207.4177 130.2397
L207.3754 130.2820
" />
<path d="M207.3754 130.2820
L207.2484 130.3243
" />
<path d="M207.2484 130.3243
L207.1637 130.3243
" />
<path d="M207.1637 130.3243
L207.0367 130.2820
" />
<path d="M207.0367 130.2820
L206.9521 130.1973
" />
<path d="M206.9521 130.1973
L206.9097 130.1127
" />
<path d="M206.9097 130.1127
L206.8674 129.9433
" />
<path d="M206.8674 129.9433
L206.8674 129.8163
" />
<path d="M206.8674 129.8163
L206.9097 129.6470
" />
<path d="M206.9097 129.6470
L206.9521 129.5623
" />
<path d="M206.9521 129.5623
L207.0367 129.4777
" />
<path d="M207.0367 129.4777
L207.1637 129.4353
" />
<path d="M207.1637 129.4353
L207.2484 129.4353
" />
<path d="M207.2484 129.4353
L207.3754 129.4777
" />
<path d="M207.3754 129.4777
L207.4177 129.5200
" />
<path d="M208.2221 130.3243
L207.7987 130.3243
" />
<path d="M207.7987 130.3243
L207.7987 129.4353
" />
<path d="M208.5184 130.3243
L208.5184 129.4353
" />
<path d="M209.0264 130.3243
L208.6454 129.8163
" />
<path d="M209.0264 129.4353
L208.5184 129.9433
" />
</g><text x="209.2960" y="127.8255"
textLength="3.4967" font-size="1.1853" lengthAdjust="spacingAndGlyphs"
text-anchor="end" opacity="0" stroke-opacity="0">MISO</text>
<g class="stroked-text"><desc>MISO</desc>
<path d="M206.1901 127.7843
L206.1901 126.8953
" />
<path d="M206.1901 126.8953
L206.4864 127.5303
" />
<path d="M206.4864 127.5303
L206.7827 126.8953
" />
<path d="M206.7827 126.8953
L206.7827 127.7843
" />
<path d="M207.2061 127.7843
L207.2061 126.8953
" />
<path d="M207.5871 127.7420
L207.7141 127.7843
" />
<path d="M207.7141 127.7843
L207.9257 127.7843
" />
<path d="M207.9257 127.7843
L208.0104 127.7420
" />
<path d="M208.0104 127.7420
L208.0527 127.6997
" />
<path d="M208.0527 127.6997
L208.0951 127.6150
" />
<path d="M208.0951 127.6150
L208.0951 127.5303
" />
<path d="M208.0951 127.5303
L208.0527 127.4457
" />
<path d="M208.0527 127.4457
L208.0104 127.4033
" />
<path d="M208.0104 127.4033
L207.9257 127.3610
" />
<path d="M207.9257 127.3610
L207.7564 127.3187
" />
<path d="M207.7564 127.3187
L207.6717 127.2763
" />
<path d="M207.6717 127.2763
L207.6294 127.2340
" />
<path d="M207.6294 127.2340
L207.5871 127.1493
" />
<path d="M207.5871 127.1493
L207.5871 127.0647
" />
<path d="M207.5871 127.0647
L207.6294 126.9800
" />
<path d="M207.6294 126.9800
L207.6717 126.9377
" />
<path d="M207.6717 126.9377
L207.7564 126.8953
" />
<path d="M207.7564 126.8953
L207.9681 126.8953
" />
<path d="M207.9681 126.8953
L208.0951 126.9377
" />
<path d="M208.6454 126.8953
L208.8147 126.8953
" />
<path d="M208.8147 126.8953
L208.8994 126.9377
" />
<path d="M208.8994 126.9377
L208.9841 127.0223
" />
<path d="M208.9841 127.0223
L209.0264 127.1917
" />
<path d="M209.0264 127.1917
L209.0264 127.4880
" />
<path d="M209.0264 127.4880
L208.9841 127.6573
" />
<path d="M208.9841 127.6573
L208.8994 127.7420
" />
<path d="M208.8994 127.7420
L208.8147 127.7843
" />
<path d="M208.8147 127.7843
L208.6454 127.7843
" />
<path d="M208.6454 127.7843
L208.5607 127.7420
" />
<path d="M208.5607 127.7420
L208.4761 127.6573
" />
<path d="M208.4761 127.6573
L208.4337 127.4880
" />
<path d="M208.4337 127.4880
L208.4337 127.1917
" />
<path d="M208.4337 127.1917
L208.4761 127.0223
" />
<path d="M208.4761 127.0223
L208.5607 126.9377
" />
<path d="M208.5607 126.9377
L208.6454 126.8953
" />
</g><text x="209.2960" y="125.6665"
textLength="3.4967" font-size="1.1853" lengthAdjust="spacingAndGlyphs"
text-anchor="end" opacity="0" stroke-opacity="0">MOSI</text>
<g class="stroked-text"><desc>MOSI</desc>
<path d="M206.1901 125.6253
L206.1901 124.7363
" />
<path d="M206.1901 124.7363
L206.4864 125.3713
" />
<path d="M206.4864 125.3713
L206.7827 124.7363
" />
<path d="M206.7827 124.7363
L206.7827 125.6253
" />
<path d="M207.3754 124.7363
L207.5447 124.7363
" />
<path d="M207.5447 124.7363
L207.6294 124.7787
" />
<path d="M207.6294 124.7787
L207.7141 124.8633
" />
<path d="M207.7141 124.8633
L207.7564 125.0327
" />
<path d="M207.7564 125.0327
L207.7564 125.3290
" />
<path d="M207.7564 125.3290
L207.7141 125.4983
" />
<path d="M207.7141 125.4983
L207.6294 125.5830
" />
<path d="M207.6294 125.5830
L207.5447 125.6253
" />
<path d="M207.5447 125.6253
L207.3754 125.6253
" />
<path d="M207.3754 125.6253
L207.2907 125.5830
" />
<path d="M207.2907 125.5830
L207.2061 125.4983
" />
<path d="M207.2061 125.4983
L207.1637 125.3290
" />
<path d="M207.1637 125.3290
L207.1637 125.0327
" />
<path d="M207.1637 125.0327
L207.2061 124.8633
" />
<path d="M207.2061 124.8633
L207.2907 124.7787
" />
<path d="M207.2907 124.7787
L207.3754 124.7363
" />
<path d="M208.0951 125.5830
L208.2221 125.6253
" />
<path d="M208.2221 125.6253
L208.4337 125.6253
" />
<path d="M208.4337 125.6253
L208.5184 125.5830
" />
<path d="M208.5184 125.5830
L208.5607 125.5407
" />
<path d="M208.5607 125.5407
L208.6031 125.4560
" />
<path d="M208.6031 125.4560
L208.6031 125.3713
" />
<path d="M208.6031 125.3713
L208.5607 125.2867
" />
<path d="M208.5607 125.2867
L208.5184 125.2443
" />
<path d="M208.5184 125.2443
L208.4337 125.2020
" />
<path d="M208.4337 125.2020
L208.2644 125.1597
" />
<path d="M208.2644 125.1597
L208.1797 125.1173
" />
<path d="M208.1797 125.1173
L208.1374 125.0750
" />
<path d="M208.1374 125.0750
L208.0951 124.9903
" />
<path d="M208.0951 124.9903
L208.0951 124.9057
" />
<path d="M208.0951 124.9057
L208.1374 124.8210
" />
<path d="M208.1374 124.8210
L208.1797 124.7787
" />
<path d="M208.1797 124.7787
L208.2644 124.7363
" />
<path d="M208.2644 124.7363
L208.4761 124.7363
" />
<path d="M208.4761 124.7363
L208.6031 124.7787
" />
<path d="M208.9841 125.6253
L208.9841 124.7363
" />
</g><text x="209.2960" y="122.7455"
textLength="2.0151" font-size="1.1853" lengthAdjust="spacingAndGlyphs"
text-anchor="end" opacity="0" stroke-opacity="0">CS</text>
<g class="stroked-text"><desc>CS</desc>
<path d="M208.1797 122.6197
L208.1374 122.6620
" />
<path d="M208.1374 122.6620
L208.0104 122.7043
" />
<path d="M208.0104 122.7043
L207.9257 122.7043
" />
<path d="M207.9257 122.7043
L207.7987 122.6620
" />
<path d="M207.7987 122.6620
L207.7141 122.5773
" />
<path d="M207.7141 122.5773
L207.6717 122.4927
" />
<path d="M207.6717 122.4927
L207.6294 122.3233
" />
<path d="M207.6294 122.3233
L207.6294 122.1963
" />
<path d="M207.6294 122.1963
L207.6717 122.0270
" />
<path d="M207.6717 122.0270
L207.7141 121.9423
" />
<path d="M207.7141 121.9423
L207.7987 121.8577
" />
<path d="M207.7987 121.8577
L207.9257 121.8153
" />
<path d="M207.9257 121.8153
L208.0104 121.8153
" />
<path d="M208.0104 121.8153
L208.1374 121.8577
" />
<path d="M208.1374 121.8577
L208.1797 121.9000
" />
<path d="M208.5184 122.6620
L208.6454 122.7043
" />
<path d="M208.6454 122.7043
L208.8571 122.7043
" />
<path d="M208.8571 122.7043
L208.9417 122.6620
" />
<path d="M208.9417 122.6620
L208.9841 122.6197
" />
<path d="M208.9841 122.6197
L209.0264 122.5350
" />
<path d="M209.0264 122.5350
L209.0264 122.4503
" />
<path d="M209.0264 122.4503
L208.9841 122.3657
" />
<path d="M208.9841 122.3657
L208.9417 122.3233
" />
<path d="M208.9417 122.3233
L208.8571 122.2810
" />
<path d="M208.8571 122.2810
L208.6877 122.2387
" />
<path d="M208.6877 122.2387
L208.6031 122.1963
" />
<path d="M208.6031 122.1963
L208.5607 122.1540
" />
<path d="M208.5607 122.1540
L208.5184 122.0693
" />
<path d="M208.5184 122.0693
L208.5184 121.9847
" />
<path d="M208.5184 121.9847
L208.5607 121.9000
" />
<path d="M208.5607 121.9000
L208.6031 121.8577
" />
<path d="M208.6031 121.8577
L208.6877 121.8153
" />
<path d="M208.6877 121.8153
L208.8994 121.8153
" />
<path d="M208.8994 121.8153
L209.0264 121.8577
" />
</g><text x="209.2960" y="120.2055"
textLength="2.7347" font-size="1.1853" lengthAdjust="spacingAndGlyphs"
text-anchor="end" opacity="0" stroke-opacity="0">3V3</text>
<g class="stroked-text"><desc>3V3</desc>
<path d="M206.8674 119.2753
L207.4177 119.2753
" />
<path d="M207.4177 119.2753
L207.1214 119.6140
" />
<path d="M207.1214 119.6140
L207.2484 119.6140
" />
<path d="M207.2484 119.6140
L207.3331 119.6563
" />
<path d="M207.3331 119.6563
L207.3754 119.6987
" />
<path d="M207.3754 119.6987
L207.4177 119.7833
" />
<path d="M207.4177 119.7833
L207.4177 119.9950
" />
<path d="M207.4177 119.9950
L207.3754 120.0797
" />
<path d="M207.3754 120.0797
L207.3331 120.1220
" />
<path d="M207.3331 120.1220
L207.2484 120.1643
" />
<path d="M207.2484 120.1643
L206.9944 120.1643
" />
<path d="M206.9944 120.1643
L206.9097 120.1220
" />
<path d="M206.9097 120.1220
L206.8674 120.0797
" />
<path d="M207.6717 119.2753
L207.9681 120.1643
" />
<path d="M207.9681 120.1643
L208.2644 119.2753
" />
<path d="M208.4761 119.2753
L209.0264 119.2753
" />
<path d="M209.0264 119.2753
L208.7301 119.6140
" />
<path d="M208.7301 119.6140
L208.8571 119.6140
" />
<path d="M208.8571 119.6140
L208.9417 119.6563
" />
<path d="M208.9417 119.6563
L208.9841 119.6987
" />
<path d="M208.9841 119.6987
L209.0264 119.7833
" />
<path d="M209.0264 119.7833
L209.0264 119.9950
" />
<path d="M209.0264 119.9950
L208.9841 120.0797
" />
<path d="M208.9841 120.0797
L208.9417 120.1220
" />
<path d="M208.9417 120.1220
L208.8571 120.1643
" />
<path d="M208.8571 120.1643
L208.6031 120.1643
" />
<path d="M208.6031 120.1643
L208.5184 120.1220
" />
<path d="M208.5184 120.1220
L208.4761 120.0797
" />
</g><text x="209.2960" y="117.6909"
textLength="2.9887" font-size="1.1853" lengthAdjust="spacingAndGlyphs"
text-anchor="end" opacity="0" stroke-opacity="0">GND</text>
<g class="stroked-text"><desc>GND</desc>
<path d="M207.1637 116.8031
L207.0791 116.7607
" />
<path d="M207.0791 116.7607
L206.9521 116.7607
" />
<path d="M206.9521 116.7607
L206.8251 116.8031
" />
<path d="M206.8251 116.8031
L206.7404 116.8877
" />
<path d="M206.7404 116.8877
L206.6981 116.9724
" />
<path d="M206.6981 116.9724
L206.6557 117.1417
" />
<path d="M206.6557 117.1417
L206.6557 117.2687
" />
<path d="M206.6557 117.2687
L206.6981 117.4381
" />
<path d="M206.6981 117.4381
L206.7404 117.5227
" />
<path d="M206.7404 117.5227
L206.8251 117.6074
" />
<path d="M206.8251 117.6074
L206.9521 117.6497
" />
<path d="M206.9521 117.6497
L207.0367 117.6497
" />
<path d="M207.0367 117.6497
L207.1637 117.6074
" />
<path d="M207.1637 117.6074
L207.2061 117.5651
" />
<path d="M207.2061 117.5651
L207.2061 117.2687
" />
<path d="M207.2061 117.2687
L207.0367 117.2687
" />
<path d="M207.5871 117.6497
L207.5871 116.7607
" />
<path d="M207.5871 116.7607
L208.0951 117.6497
" />
<path d="M208.0951 117.6497
L208.0951 116.7607
" />
<path d="M208.5184 117.6497
L208.5184 116.7607
" />
<path d="M208.5184 116.7607
L208.7301 116.7607
" />
<path d="M208.7301 116.7607
L208.8571 116.8031
" />
<path d="M208.8571 116.8031
L208.9417 116.8877
" />
<path d="M208.9417 116.8877
L208.9841 116.9724
" />
<path d="M208.9841 116.9724
L209.0264 117.1417
" />
<path d="M209.0264 117.1417
L209.0264 117.2687
" />
<path d="M209.0264 117.2687
L208.9841 117.4381
" />
<path d="M208.9841 117.4381
L208.9417 117.5227
" />
<path d="M208.9417 117.5227
L208.8571 117.6074
" />
<path d="M208.8571 117.6074
L208.7301 117.6497
" />
<path d="M208.7301 117.6497
L208.5184 117.6497
" />
</g><text x="201.2950" y="114.4270"
textLength="12.0481" font-size="1.1853" lengthAdjust="spacingAndGlyphs"
text-anchor="middle" opacity="0" stroke-opacity="0">MAG ENCODER V1</text>
<g class="stroked-text"><desc>MAG ENCODER V1</desc>
<path d="M195.6223 114.4614
L195.6223 113.5724
" />
<path d="M195.6223 113.5724
L195.9187 114.2074
" />
<path d="M195.9187 114.2074
L196.2150 113.5724
" />
<path d="M196.2150 113.5724
L196.2150 114.4614
" />
<path d="M196.5960 114.2074
L197.0193 114.2074
" />
<path d="M196.5113 114.4614
L196.8077 113.5724
" />
<path d="M196.8077 113.5724
L197.1040 114.4614
" />
<path d="M197.8660 113.6147
L197.7813 113.5724
" />
<path d="M197.7813 113.5724
L197.6543 113.5724
" />
<path d="M197.6543 113.5724
L197.5273 113.6147
" />
<path d="M197.5273 113.6147
L197.4427 113.6994
" />
<path d="M197.4427 113.6994
L197.4003 113.7841
" />
<path d="M197.4003 113.7841
L197.3580 113.9534
" />
<path d="M197.3580 113.9534
L197.3580 114.0804
" />
<path d="M197.3580 114.0804
L197.4003 114.2497
" />
<path d="M197.4003 114.2497
L197.4427 114.3344
" />
<path d="M197.4427 114.3344
L197.5273 114.4191
" />
<path d="M197.5273 114.4191
L197.6543 114.4614
" />
<path d="M197.6543 114.4614
L197.7390 114.4614
" />
<path d="M197.7390 114.4614
L197.8660 114.4191
" />
<path d="M197.8660 114.4191
L197.9083 114.3767
" />
<path d="M197.9083 114.3767
L197.9083 114.0804
" />
<path d="M197.9083 114.0804
L197.7390 114.0804
" />
<path d="M198.9667 113.9957
L199.2630 113.9957
" />
<path d="M199.3900 114.4614
L198.9667 114.4614
" />
<path d="M198.9667 114.4614
L198.9667 113.5724
" />
<path d="M198.9667 113.5724
L199.3900 113.5724
" />
<path d="M199.7710 114.4614
L199.7710 113.5724
" />
<path d="M199.7710 113.5724
L200.2790 114.4614
" />
<path d="M200.2790 114.4614
L200.2790 113.5724
" />
<path d="M201.2103 114.3767
L201.1680 114.4191
" />
<path d="M201.1680 114.4191
L201.0410 114.4614
" />
<path d="M201.0410 114.4614
L200.9563 114.4614
" />
<path d="M200.9563 114.4614
L200.8293 114.4191
" />
<path d="M200.8293 114.4191
L200.7447 114.3344
" />
<path d="M200.7447 114.3344
L200.7023 114.2497
" />
<path d="M200.7023 114.2497
L200.6600 114.0804
" />
<path d="M200.6600 114.0804
L200.6600 113.9534
" />
<path d="M200.6600 113.9534
L200.7023 113.7841
" />
<path d="M200.7023 113.7841
L200.7447 113.6994
" />
<path d="M200.7447 113.6994
L200.8293 113.6147
" />
<path d="M200.8293 113.6147
L200.9563 113.5724
" />
<path d="M200.9563 113.5724
L201.0410 113.5724
" />
<path d="M201.0410 113.5724
L201.1680 113.6147
" />
<path d="M201.1680 113.6147
L201.2103 113.6571
" />
<path d="M201.7607 113.5724
L201.9300 113.5724
" />
<path d="M201.9300 113.5724
L202.0147 113.6147
" />
<path d="M202.0147 113.6147
L202.0993 113.6994
" />
<path d="M202.0993 113.6994
L202.1417 113.8687
" />
<path d="M202.1417 113.8687
L202.1417 114.1651
" />
<path d="M202.1417 114.1651
L202.0993 114.3344
" />
<path d="M202.0993 114.3344
L202.0147 114.4191
" />
<path d="M202.0147 114.4191
L201.9300 114.4614
" />
<path d="M201.9300 114.4614
L201.7607 114.4614
" />
<path d="M201.7607 114.4614
L201.6760 114.4191
" />
<path d="M201.6760 114.4191
L201.5913 114.3344
" />
<path d="M201.5913 114.3344
L201.5490 114.1651
" />
<path d="M201.5490 114.1651
L201.5490 113.8687
" />
<path d="M201.5490 113.8687
L201.5913 113.6994
" />
<path d="M201.5913 113.6994
L201.6760 113.6147
" />
<path d="M201.6760 113.6147
L201.7607 113.5724
" />
<path d="M202.5227 114.4614
L202.5227 113.5724
" />
<path d="M202.5227 113.5724
L202.7343 113.5724
" />
<path d="M202.7343 113.5724
L202.8613 113.6147
" />
<path d="M202.8613 113.6147
L202.9460 113.6994
" />
<path d="M202.9460 113.6994
L202.9883 113.7841
" />
<path d="M202.9883 113.7841
L203.0307 113.9534
" />
<path d="M203.0307 113.9534
L203.0307 114.0804
" />
<path d="M203.0307 114.0804
L202.9883 114.2497
" />
<path d="M202.9883 114.2497
L202.9460 114.3344
" />
<path d="M202.9460 114.3344
L202.8613 114.4191
" />
<path d="M202.8613 114.4191
L202.7343 114.4614
" />
<path d="M202.7343 114.4614
L202.5227 114.4614
" />
<path d="M203.4117 113.9957
L203.7080 113.9957
" />
<path d="M203.8350 114.4614
L203.4117 114.4614
" />
<path d="M203.4117 114.4614
L203.4117 113.5724
" />
<path d="M203.4117 113.5724
L203.8350 113.5724
" />
<path d="M204.7240 114.4614
L204.4277 114.0381
" />
<path d="M204.2160 114.4614
L204.2160 113.5724
" />
<path d="M204.2160 113.5724
L204.5547 113.5724
" />
<path d="M204.5547 113.5724
L204.6393 113.6147
" />
<path d="M204.6393 113.6147
L204.6817 113.6571
" />
<path d="M204.6817 113.6571
L204.7240 113.7417
" />
<path d="M204.7240 113.7417
L204.7240 113.8687
" />
<path d="M204.7240 113.8687
L204.6817 113.9534
" />
<path d="M204.6817 113.9534
L204.6393 113.9957
" />
<path d="M204.6393 113.9957
L204.5547 114.0381
" />
<path d="M204.5547 114.0381
L204.2160 114.0381
" />
<path d="M205.6553 113.5724
L205.9517 114.4614
" />
<path d="M205.9517 114.4614
L206.2480 113.5724
" />
<path d="M207.0100 114.4614
L206.5020 114.4614
" />
<path d="M206.7560 114.4614
L206.7560 113.5724
" />
<path d="M206.7560 113.5724
L206.6713 113.6994
" />
<path d="M206.6713 113.6994
L206.5867 113.7841
" />
<path d="M206.5867 113.7841
L206.5020 113.8264
" />
</g><text x="201.2950" y="115.8582"
textLength="9.2541" font-size="1.1853" lengthAdjust="spacingAndGlyphs"
text-anchor="middle" opacity="0" stroke-opacity="0">971 SPARTAN</text>
<g class="stroked-text"><desc>971 SPARTAN</desc>
<path d="M197.0617 115.8926
L197.2310 115.8926
" />
<path d="M197.2310 115.8926
L197.3157 115.8503
" />
<path d="M197.3157 115.8503
L197.3580 115.8080
" />
<path d="M197.3580 115.8080
L197.4427 115.6810
" />
<path d="M197.4427 115.6810
L197.4850 115.5116
" />
<path d="M197.4850 115.5116
L197.4850 115.1730
" />
<path d="M197.4850 115.1730
L197.4427 115.0883
" />
<path d="M197.4427 115.0883
L197.4003 115.0460
" />
<path d="M197.4003 115.0460
L197.3157 115.0036
" />
<path d="M197.3157 115.0036
L197.1463 115.0036
" />
<path d="M197.1463 115.0036
L197.0617 115.0460
" />
<path d="M197.0617 115.0460
L197.0193 115.0883
" />
<path d="M197.0193 115.0883
L196.9770 115.1730
" />
<path d="M196.9770 115.1730
L196.9770 115.3846
" />
<path d="M196.9770 115.3846
L197.0193 115.4693
" />
<path d="M197.0193 115.4693
L197.0617 115.5116
" />
<path d="M197.0617 115.5116
L197.1463 115.5540
" />
<path d="M197.1463 115.5540
L197.3157 115.5540
" />
<path d="M197.3157 115.5540
L197.4003 115.5116
" />
<path d="M197.4003 115.5116
L197.4427 115.4693
" />
<path d="M197.4427 115.4693
L197.4850 115.3846
" />
<path d="M197.7813 115.0036
L198.3740 115.0036
" />
<path d="M198.3740 115.0036
L197.9930 115.8926
" />
<path d="M199.1783 115.8926
L198.6703 115.8926
" />
<path d="M198.9243 115.8926
L198.9243 115.0036
" />
<path d="M198.9243 115.0036
L198.8397 115.1306
" />
<path d="M198.8397 115.1306
L198.7550 115.2153
" />
<path d="M198.7550 115.2153
L198.6703 115.2576
" />
<path d="M200.1943 115.8503
L200.3213 115.8926
" />
<path d="M200.3213 115.8926
L200.5330 115.8926
" />
<path d="M200.5330 115.8926
L200.6177 115.8503
" />
<path d="M200.6177 115.8503
L200.6600 115.8080
" />
<path d="M200.6600 115.8080
L200.7023 115.7233
" />
<path d="M200.7023 115.7233
L200.7023 115.6386
" />
<path d="M200.7023 115.6386
L200.6600 115.5540
" />
<path d="M200.6600 115.5540
L200.6177 115.5116
" />
<path d="M200.6177 115.5116
L200.5330 115.4693
" />
<path d="M200.5330 115.4693
L200.3637 115.4270
" />
<path d="M200.3637 115.4270
L200.2790 115.3846
" />
<path d="M200.2790 115.3846
L200.2367 115.3423
" />
<path d="M200.2367 115.3423
L200.1943 115.2576
" />
<path d="M200.1943 115.2576
L200.1943 115.1730
" />
<path d="M200.1943 115.1730
L200.2367 115.0883
" />
<path d="M200.2367 115.0883
L200.2790 115.0460
" />
<path d="M200.2790 115.0460
L200.3637 115.0036
" />
<path d="M200.3637 115.0036
L200.5753 115.0036
" />
<path d="M200.5753 115.0036
L200.7023 115.0460
" />
<path d="M201.0833 115.8926
L201.0833 115.0036
" />
<path d="M201.0833 115.0036
L201.4220 115.0036
" />
<path d="M201.4220 115.0036
L201.5067 115.0460
" />
<path d="M201.5067 115.0460
L201.5490 115.0883
" />
<path d="M201.5490 115.0883
L201.5913 115.1730
" />
<path d="M201.5913 115.1730
L201.5913 115.3000
" />
<path d="M201.5913 115.3000
L201.5490 115.3846
" />
<path d="M201.5490 115.3846
L201.5067 115.4270
" />
<path d="M201.5067 115.4270
L201.4220 115.4693
" />
<path d="M201.4220 115.4693
L201.0833 115.4693
" />
<path d="M201.9300 115.6386
L202.3533 115.6386
" />
<path d="M201.8453 115.8926
L202.1417 115.0036
" />
<path d="M202.1417 115.0036
L202.4380 115.8926
" />
<path d="M203.2423 115.8926
L202.9460 115.4693
" />
<path d="M202.7343 115.8926
L202.7343 115.0036
" />
<path d="M202.7343 115.0036
L203.0730 115.0036
" />
<path d="M203.0730 115.0036
L203.1577 115.0460
" />
<path d="M203.1577 115.0460
L203.2000 115.0883
" />
<path d="M203.2000 115.0883
L203.2423 115.1730
" />
<path d="M203.2423 115.1730
L203.2423 115.3000
" />
<path d="M203.2423 115.3000
L203.2000 115.3846
" />
<path d="M203.2000 115.3846
L203.1577 115.4270
" />
<path d="M203.1577 115.4270
L203.0730 115.4693
" />
<path d="M203.0730 115.4693
L202.7343 115.4693
" />
<path d="M203.4963 115.0036
L204.0043 115.0036
" />
<path d="M203.7503 115.8926
L203.7503 115.0036
" />
<path d="M204.2583 115.6386
L204.6817 115.6386
" />
<path d="M204.1737 115.8926
L204.4700 115.0036
" />
<path d="M204.4700 115.0036
L204.7663 115.8926
" />
<path d="M205.0627 115.8926
L205.0627 115.0036
" />
<path d="M205.0627 115.0036
L205.5707 115.8926
" />
<path d="M205.5707 115.8926
L205.5707 115.0036
" />
</g><text x="201.2950" y="117.2895"
textLength="7.4337" font-size="1.1853" lengthAdjust="spacingAndGlyphs"
text-anchor="middle" opacity="0" stroke-opacity="0">ROBOTICS </text>
<g class="stroked-text"><desc>ROBOTICS </desc>
<path d="M198.4375 117.3239
L198.1412 116.9006
" />
<path d="M197.9295 117.3239
L197.9295 116.4349
" />
<path d="M197.9295 116.4349
L198.2682 116.4349
" />
<path d="M198.2682 116.4349
L198.3528 116.4772
" />
<path d="M198.3528 116.4772
L198.3952 116.5196
" />
<path d="M198.3952 116.5196
L198.4375 116.6042
" />
<path d="M198.4375 116.6042
L198.4375 116.7312
" />
<path d="M198.4375 116.7312
L198.3952 116.8159
" />
<path d="M198.3952 116.8159
L198.3528 116.8582
" />
<path d="M198.3528 116.8582
L198.2682 116.9006
" />
<path d="M198.2682 116.9006
L197.9295 116.9006
" />
<path d="M198.9878 116.4349
L199.1572 116.4349
" />
<path d="M199.1572 116.4349
L199.2418 116.4772
" />
<path d="M199.2418 116.4772
L199.3265 116.5619
" />
<path d="M199.3265 116.5619
L199.3688 116.7312
" />
<path d="M199.3688 116.7312
L199.3688 117.0276
" />
<path d="M199.3688 117.0276
L199.3265 117.1969
" />
<path d="M199.3265 117.1969
L199.2418 117.2816
" />
<path d="M199.2418 117.2816
L199.1572 117.3239
" />
<path d="M199.1572 117.3239
L198.9878 117.3239
" />
<path d="M198.9878 117.3239
L198.9032 117.2816
" />
<path d="M198.9032 117.2816
L198.8185 117.1969
" />
<path d="M198.8185 117.1969
L198.7762 117.0276
" />
<path d="M198.7762 117.0276
L198.7762 116.7312
" />
<path d="M198.7762 116.7312
L198.8185 116.5619
" />
<path d="M198.8185 116.5619
L198.9032 116.4772
" />
<path d="M198.9032 116.4772
L198.9878 116.4349
" />
<path d="M200.0462 116.8582
L200.1732 116.9006
" />
<path d="M200.1732 116.9006
L200.2155 116.9429
" />
<path d="M200.2155 116.9429
L200.2578 117.0276
" />
<path d="M200.2578 117.0276
L200.2578 117.1546
" />
<path d="M200.2578 117.1546
L200.2155 117.2392
" />
<path d="M200.2155 117.2392
L200.1732 117.2816
" />
<path d="M200.1732 117.2816
L200.0885 117.3239
" />
<path d="M200.0885 117.3239
L199.7498 117.3239
" />
<path d="M199.7498 117.3239
L199.7498 116.4349
" />
<path d="M199.7498 116.4349
L200.0462 116.4349
" />
<path d="M200.0462 116.4349
L200.1308 116.4772
" />
<path d="M200.1308 116.4772
L200.1732 116.5196
" />
<path d="M200.1732 116.5196
L200.2155 116.6042
" />
<path d="M200.2155 116.6042
L200.2155 116.6889
" />
<path d="M200.2155 116.6889
L200.1732 116.7736
" />
<path d="M200.1732 116.7736
L200.1308 116.8159
" />
<path d="M200.1308 116.8159
L200.0462 116.8582
" />
<path d="M200.0462 116.8582
L199.7498 116.8582
" />
<path d="M200.8082 116.4349
L200.9775 116.4349
" />
<path d="M200.9775 116.4349
L201.0622 116.4772
" />
<path d="M201.0622 116.4772
L201.1468 116.5619
" />
<path d="M201.1468 116.5619
L201.1892 116.7312
" />
<path d="M201.1892 116.7312
L201.1892 117.0276
" />
<path d="M201.1892 117.0276
L201.1468 117.1969
" />
<path d="M201.1468 117.1969
L201.0622 117.2816
" />
<path d="M201.0622 117.2816
L200.9775 117.3239
" />
<path d="M200.9775 117.3239
L200.8082 117.3239
" />
<path d="M200.8082 117.3239
L200.7235 117.2816
" />
<path d="M200.7235 117.2816
L200.6388 117.1969
" />
<path d="M200.6388 117.1969
L200.5965 117.0276
" />
<path d="M200.5965 117.0276
L200.5965 116.7312
" />
<path d="M200.5965 116.7312
L200.6388 116.5619
" />
<path d="M200.6388 116.5619
L200.7235 116.4772
" />
<path d="M200.7235 116.4772
L200.8082 116.4349
" />
<path d="M201.4432 116.4349
L201.9512 116.4349
" />
<path d="M201.6972 117.3239
L201.6972 116.4349
" />
<path d="M202.2475 117.3239
L202.2475 116.4349
" />
<path d="M203.1788 117.2392
L203.1365 117.2816
" />
<path d="M203.1365 117.2816
L203.0095 117.3239
" />
<path d="M203.0095 117.3239
L202.9248 117.3239
" />
<path d="M202.9248 117.3239
L202.7978 117.2816
" />
<path d="M202.7978 117.2816
L202.7132 117.1969
" />
<path d="M202.7132 117.1969
L202.6708 117.1122
" />
<path d="M202.6708 117.1122
L202.6285 116.9429
" />
<path d="M202.6285 116.9429
L202.6285 116.8159
" />
<path d="M202.6285 116.8159
L202.6708 116.6466
" />
<path d="M202.6708 116.6466
L202.7132 116.5619
" />
<path d="M202.7132 116.5619
L202.7978 116.4772
" />
<path d="M202.7978 116.4772
L202.9248 116.4349
" />
<path d="M202.9248 116.4349
L203.0095 116.4349
" />
<path d="M203.0095 116.4349
L203.1365 116.4772
" />
<path d="M203.1365 116.4772
L203.1788 116.5196
" />
<path d="M203.5175 117.2816
L203.6445 117.3239
" />
<path d="M203.6445 117.3239
L203.8562 117.3239
" />
<path d="M203.8562 117.3239
L203.9408 117.2816
" />
<path d="M203.9408 117.2816
L203.9832 117.2392
" />
<path d="M203.9832 117.2392
L204.0255 117.1546
" />
<path d="M204.0255 117.1546
L204.0255 117.0699
" />
<path d="M204.0255 117.0699
L203.9832 116.9852
" />
<path d="M203.9832 116.9852
L203.9408 116.9429
" />
<path d="M203.9408 116.9429
L203.8562 116.9006
" />
<path d="M203.8562 116.9006
L203.6868 116.8582
" />
<path d="M203.6868 116.8582
L203.6022 116.8159
" />
<path d="M203.6022 116.8159
L203.5598 116.7736
" />
<path d="M203.5598 116.7736
L203.5175 116.6889
" />
<path d="M203.5175 116.6889
L203.5175 116.6042
" />
<path d="M203.5175 116.6042
L203.5598 116.5196
" />
<path d="M203.5598 116.5196
L203.6022 116.4772
" />
<path d="M203.6022 116.4772
L203.6868 116.4349
" />
<path d="M203.6868 116.4349
L203.8985 116.4349
" />
<path d="M203.8985 116.4349
L204.0255 116.4772
" />
</g><text x="201.2950" y="118.7207"
textLength="3.6661" font-size="1.1853" lengthAdjust="spacingAndGlyphs"
text-anchor="middle" opacity="0" stroke-opacity="0">2024</text>
<g class="stroked-text"><desc>2024</desc>
<path d="M199.7710 117.9508
L199.8133 117.9085
" />
<path d="M199.8133 117.9085
L199.8980 117.8661
" />
<path d="M199.8980 117.8661
L200.1097 117.8661
" />
<path d="M200.1097 117.8661
L200.1943 117.9085
" />
<path d="M200.1943 117.9085
L200.2367 117.9508
" />
<path d="M200.2367 117.9508
L200.2790 118.0355
" />
<path d="M200.2790 118.0355
L200.2790 118.1201
" />
<path d="M200.2790 118.1201
L200.2367 118.2471
" />
<path d="M200.2367 118.2471
L199.7287 118.7551
" />
<path d="M199.7287 118.7551
L200.2790 118.7551
" />
<path d="M200.8293 117.8661
L200.9140 117.8661
" />
<path d="M200.9140 117.8661
L200.9987 117.9085
" />
<path d="M200.9987 117.9085
L201.0410 117.9508
" />
<path d="M201.0410 117.9508
L201.0833 118.0355
" />
<path d="M201.0833 118.0355
L201.1257 118.2048
" />
<path d="M201.1257 118.2048
L201.1257 118.4165
" />
<path d="M201.1257 118.4165
L201.0833 118.5858
" />
<path d="M201.0833 118.5858
L201.0410 118.6705
" />
<path d="M201.0410 118.6705
L200.9987 118.7128
" />
<path d="M200.9987 118.7128
L200.9140 118.7551
" />
<path d="M200.9140 118.7551
L200.8293 118.7551
" />
<path d="M200.8293 118.7551
L200.7447 118.7128
" />
<path d="M200.7447 118.7128
L200.7023 118.6705
" />
<path d="M200.7023 118.6705
L200.6600 118.5858
" />
<path d="M200.6600 118.5858
L200.6177 118.4165
" />
<path d="M200.6177 118.4165
L200.6177 118.2048
" />
<path d="M200.6177 118.2048
L200.6600 118.0355
" />
<path d="M200.6600 118.0355
L200.7023 117.9508
" />
<path d="M200.7023 117.9508
L200.7447 117.9085
" />
<path d="M200.7447 117.9085
L200.8293 117.8661
" />
<path d="M201.4643 117.9508
L201.5067 117.9085
" />
<path d="M201.5067 117.9085
L201.5913 117.8661
" />
<path d="M201.5913 117.8661
L201.8030 117.8661
" />
<path d="M201.8030 117.8661
L201.8877 117.9085
" />
<path d="M201.8877 117.9085
L201.9300 117.9508
" />
<path d="M201.9300 117.9508
L201.9723 118.0355
" />
<path d="M201.9723 118.0355
L201.9723 118.1201
" />
<path d="M201.9723 118.1201
L201.9300 118.2471
" />
<path d="M201.9300 118.2471
L201.4220 118.7551
" />
<path d="M201.4220 118.7551
L201.9723 118.7551
" />
<path d="M202.7343 118.1625
L202.7343 118.7551
" />
<path d="M202.5227 117.8238
L202.3110 118.4588
" />
<path d="M202.3110 118.4588
L202.8613 118.4588
" />
</g></g>
<g style="fill:none; 
stroke:#000000; stroke-width:0.1270; stroke-opacity:1; 
stroke-linecap:round; stroke-linejoin:round;">
<text x="194.6910" y="134.3533"
textLength="1.4938" font-size="0.8467" lengthAdjust="spacingAndGlyphs"
text-anchor="middle" opacity="0" stroke-opacity="0">R7</text>
<g class="stroked-text"><desc>R7</desc>
<path d="M194.5852 134.3230
L194.3735 134.0206
" />
<path d="M194.2223 134.3230
L194.2223 133.6880
" />
<path d="M194.2223 133.6880
L194.4642 133.6880
" />
<path d="M194.4642 133.6880
L194.5247 133.7182
" />
<path d="M194.5247 133.7182
L194.5549 133.7484
" />
<path d="M194.5549 133.7484
L194.5852 133.8089
" />
<path d="M194.5852 133.8089
L194.5852 133.8996
" />
<path d="M194.5852 133.8996
L194.5549 133.9601
" />
<path d="M194.5549 133.9601
L194.5247 133.9903
" />
<path d="M194.5247 133.9903
L194.4642 134.0206
" />
<path d="M194.4642 134.0206
L194.2223 134.0206
" />
<path d="M194.7968 133.6880
L195.2202 133.6880
" />
<path d="M195.2202 133.6880
L194.9480 134.3230
" />
</g><text x="205.4606" y="123.0503"
textLength="1.4938" font-size="0.8467" lengthAdjust="spacingAndGlyphs"
text-anchor="middle" opacity="0" stroke-opacity="0">R4</text>
<g class="stroked-text"><desc>R4</desc>
<path d="M205.3548 123.0200
L205.1431 122.7176
" />
<path d="M204.9919 123.0200
L204.9919 122.3850
" />
<path d="M204.9919 122.3850
L205.2338 122.3850
" />
<path d="M205.2338 122.3850
L205.2943 122.4152
" />
<path d="M205.2943 122.4152
L205.3245 122.4454
" />
<path d="M205.3245 122.4454
L205.3548 122.5059
" />
<path d="M205.3548 122.5059
L205.3548 122.5966
" />
<path d="M205.3548 122.5966
L205.3245 122.6571
" />
<path d="M205.3245 122.6571
L205.2943 122.6873
" />
<path d="M205.2943 122.6873
L205.2338 122.7176
" />
<path d="M205.2338 122.7176
L204.9919 122.7176
" />
<path d="M205.8991 122.5966
L205.8991 123.0200
" />
<path d="M205.7479 122.3547
L205.5967 122.8083
" />
<path d="M205.5967 122.8083
L205.9898 122.8083
" />
</g><g transform="rotate(90.000000 197.7644 125.6030)">
<text x="197.7644" y="125.9205"
textLength="1.4938" font-size="0.8467" lengthAdjust="spacingAndGlyphs"
text-anchor="middle" opacity="0" stroke-opacity="0">C3</text>
</g>
<g class="stroked-text"><desc>C3</desc>
<path d="M197.5377 125.4972
L197.5075 125.4669
" />
<path d="M197.5075 125.4669
L197.4772 125.3762
" />
<path d="M197.4772 125.3762
L197.4772 125.3157
" />
<path d="M197.4772 125.3157
L197.5075 125.2250
" />
<path d="M197.5075 125.2250
L197.5680 125.1645
" />
<path d="M197.5680 125.1645
L197.6284 125.1343
" />
<path d="M197.6284 125.1343
L197.7494 125.1041
" />
<path d="M197.7494 125.1041
L197.8401 125.1041
" />
<path d="M197.8401 125.1041
L197.9611 125.1343
" />
<path d="M197.9611 125.1343
L198.0215 125.1645
" />
<path d="M198.0215 125.1645
L198.0820 125.2250
" />
<path d="M198.0820 125.2250
L198.1122 125.3157
" />
<path d="M198.1122 125.3157
L198.1122 125.3762
" />
<path d="M198.1122 125.3762
L198.0820 125.4669
" />
<path d="M198.0820 125.4669
L198.0518 125.4972
" />
<path d="M198.1122 125.7088
L198.1122 126.1019
" />
<path d="M198.1122 126.1019
L197.8703 125.8903
" />
<path d="M197.8703 125.8903
L197.8703 125.9810
" />
<path d="M197.8703 125.9810
L197.8401 126.0415
" />
<path d="M197.8401 126.0415
L197.8099 126.0717
" />
<path d="M197.8099 126.0717
L197.7494 126.1019
" />
<path d="M197.7494 126.1019
L197.5982 126.1019
" />
<path d="M197.5982 126.1019
L197.5377 126.0717
" />
<path d="M197.5377 126.0717
L197.5075 126.0415
" />
<path d="M197.5075 126.0415
L197.4772 125.9810
" />
<path d="M197.4772 125.9810
L197.4772 125.7995
" />
<path d="M197.4772 125.7995
L197.5075 125.7391
" />
<path d="M197.5075 125.7391
L197.5377 125.7088
" />
</g><g transform="rotate(90.000000 208.3054 110.6170)">
<text x="208.3054" y="110.9345"
textLength="1.4938" font-size="0.8467" lengthAdjust="spacingAndGlyphs"
text-anchor="middle" opacity="0" stroke-opacity="0">C2</text>
</g>
<g class="stroked-text"><desc>C2</desc>
<path d="M208.0787 110.5112
L208.0485 110.4809
" />
<path d="M208.0485 110.4809
L208.0182 110.3902
" />
<path d="M208.0182 110.3902
L208.0182 110.3297
" />
<path d="M208.0182 110.3297
L208.0485 110.2390
" />
<path d="M208.0485 110.2390
L208.1090 110.1785
" />
<path d="M208.1090 110.1785
L208.1694 110.1483
" />
<path d="M208.1694 110.1483
L208.2904 110.1181
" />
<path d="M208.2904 110.1181
L208.3811 110.1181
" />
<path d="M208.3811 110.1181
L208.5021 110.1483
" />
<path d="M208.5021 110.1483
L208.5625 110.1785
" />
<path d="M208.5625 110.1785
L208.6230 110.2390
" />
<path d="M208.6230 110.2390
L208.6532 110.3297
" />
<path d="M208.6532 110.3297
L208.6532 110.3902
" />
<path d="M208.6532 110.3902
L208.6230 110.4809
" />
<path d="M208.6230 110.4809
L208.5928 110.5112
" />
<path d="M208.5928 110.7531
L208.6230 110.7833
" />
<path d="M208.6230 110.7833
L208.6532 110.8438
" />
<path d="M208.6532 110.8438
L208.6532 110.9950
" />
<path d="M208.6532 110.9950
L208.6230 111.0555
" />
<path d="M208.6230 111.0555
L208.5928 111.0857
" />
<path d="M208.5928 111.0857
L208.5323 111.1159
" />
<path d="M208.5323 111.1159
L208.4718 111.1159
" />
<path d="M208.4718 111.1159
L208.3811 111.0857
" />
<path d="M208.3811 111.0857
L208.0182 110.7228
" />
<path d="M208.0182 110.7228
L208.0182 111.1159
" />
</g><g transform="rotate(90.000000 200.3806 129.5908)">
<text x="200.3806" y="129.9083"
textLength="1.4938" font-size="0.8467" lengthAdjust="spacingAndGlyphs"
text-anchor="middle" opacity="0" stroke-opacity="0">R6</text>
</g>
<g class="stroked-text"><desc>R6</desc>
<path d="M200.0934 129.4850
L200.3958 129.2733
" />
<path d="M200.0934 129.1221
L200.7284 129.1221
" />
<path d="M200.7284 129.1221
L200.7284 129.3640
" />
<path d="M200.7284 129.3640
L200.6982 129.4245
" />
<path d="M200.6982 129.4245
L200.6680 129.4547
" />
<path d="M200.6680 129.4547
L200.6075 129.4850
" />
<path d="M200.6075 129.4850
L200.5168 129.4850
" />
<path d="M200.5168 129.4850
L200.4563 129.4547
" />
<path d="M200.4563 129.4547
L200.4261 129.4245
" />
<path d="M200.4261 129.4245
L200.3958 129.3640
" />
<path d="M200.3958 129.3640
L200.3958 129.1221
" />
<path d="M200.7284 130.0293
L200.7284 129.9083
" />
<path d="M200.7284 129.9083
L200.6982 129.8478
" />
<path d="M200.6982 129.8478
L200.6680 129.8176
" />
<path d="M200.6680 129.8176
L200.5773 129.7571
" />
<path d="M200.5773 129.7571
L200.4563 129.7269
" />
<path d="M200.4563 129.7269
L200.2144 129.7269
" />
<path d="M200.2144 129.7269
L200.1539 129.7571
" />
<path d="M200.1539 129.7571
L200.1237 129.7873
" />
<path d="M200.1237 129.7873
L200.0934 129.8478
" />
<path d="M200.0934 129.8478
L200.0934 129.9688
" />
<path d="M200.0934 129.9688
L200.1237 130.0293
" />
<path d="M200.1237 130.0293
L200.1539 130.0595
" />
<path d="M200.1539 130.0595
L200.2144 130.0897
" />
<path d="M200.2144 130.0897
L200.3656 130.0897
" />
<path d="M200.3656 130.0897
L200.4261 130.0595
" />
<path d="M200.4261 130.0595
L200.4563 130.0293
" />
<path d="M200.4563 130.0293
L200.4865 129.9688
" />
<path d="M200.4865 129.9688
L200.4865 129.8478
" />
<path d="M200.4865 129.8478
L200.4563 129.7873
" />
<path d="M200.4563 129.7873
L200.4261 129.7571
" />
<path d="M200.4261 129.7571
L200.3656 129.7269
" />
</g><g transform="rotate(90.000000 192.0748 125.6030)">
<text x="192.0748" y="125.9205"
textLength="1.4938" font-size="0.8467" lengthAdjust="spacingAndGlyphs"
text-anchor="middle" opacity="0" stroke-opacity="0">R1</text>
</g>
<g class="stroked-text"><desc>R1</desc>
<path d="M191.7876 125.4972
L192.0900 125.2855
" />
<path d="M191.7876 125.1343
L192.4226 125.1343
" />
<path d="M192.4226 125.1343
L192.4226 125.3762
" />
<path d="M192.4226 125.3762
L192.3924 125.4367
" />
<path d="M192.3924 125.4367
L192.3622 125.4669
" />
<path d="M192.3622 125.4669
L192.3017 125.4972
" />
<path d="M192.3017 125.4972
L192.2110 125.4972
" />
<path d="M192.2110 125.4972
L192.1505 125.4669
" />
<path d="M192.1505 125.4669
L192.1203 125.4367
" />
<path d="M192.1203 125.4367
L192.0900 125.3762
" />
<path d="M192.0900 125.3762
L192.0900 125.1343
" />
<path d="M191.7876 126.1019
L191.7876 125.7391
" />
<path d="M191.7876 125.9205
L192.4226 125.9205
" />
<path d="M192.4226 125.9205
L192.3319 125.8600
" />
<path d="M192.3319 125.8600
L192.2715 125.7995
" />
<path d="M192.2715 125.7995
L192.2412 125.7391
" />
</g><g transform="rotate(90.000000 194.7672 125.6030)">
<text x="194.7672" y="125.9205"
textLength="1.4938" font-size="0.8467" lengthAdjust="spacingAndGlyphs"
text-anchor="middle" opacity="0" stroke-opacity="0">R2</text>
</g>
<g class="stroked-text"><desc>R2</desc>
<path d="M194.4800 125.4972
L194.7824 125.2855
" />
<path d="M194.4800 125.1343
L195.1150 125.1343
" />
<path d="M195.1150 125.1343
L195.1150 125.3762
" />
<path d="M195.1150 125.3762
L195.0848 125.4367
" />
<path d="M195.0848 125.4367
L195.0546 125.4669
" />
<path d="M195.0546 125.4669
L194.9941 125.4972
" />
<path d="M194.9941 125.4972
L194.9034 125.4972
" />
<path d="M194.9034 125.4972
L194.8429 125.4669
" />
<path d="M194.8429 125.4669
L194.8127 125.4367
" />
<path d="M194.8127 125.4367
L194.7824 125.3762
" />
<path d="M194.7824 125.3762
L194.7824 125.1343
" />
<path d="M195.0546 125.7391
L195.0848 125.7693
" />
<path d="M195.0848 125.7693
L195.1150 125.8298
" />
<path d="M195.1150 125.8298
L195.1150 125.9810
" />
<path d="M195.1150 125.9810
L195.0848 126.0415
" />
<path d="M195.0848 126.0415
L195.0546 126.0717
" />
<path d="M195.0546 126.0717
L194.9941 126.1019
" />
<path d="M194.9941 126.1019
L194.9336 126.1019
" />
<path d="M194.9336 126.1019
L194.8429 126.0717
" />
<path d="M194.8429 126.0717
L194.4800 125.7088
" />
<path d="M194.4800 125.7088
L194.4800 126.1019
" />
</g><g transform="rotate(90.000000 196.2912 125.6030)">
<text x="196.2912" y="125.9205"
textLength="1.4938" font-size="0.8467" lengthAdjust="spacingAndGlyphs"
text-anchor="middle" opacity="0" stroke-opacity="0">R3</text>
</g>
<g class="stroked-text"><desc>R3</desc>
<path d="M196.0040 125.4972
L196.3064 125.2855
" />
<path d="M196.0040 125.1343
L196.6390 125.1343
" />
<path d="M196.6390 125.1343
L196.6390 125.3762
" />
<path d="M196.6390 125.3762
L196.6088 125.4367
" />
<path d="M196.6088 125.4367
L196.5786 125.4669
" />
<path d="M196.5786 125.4669
L196.5181 125.4972
" />
<path d="M196.5181 125.4972
L196.4274 125.4972
" />
<path d="M196.4274 125.4972
L196.3669 125.4669
" />
<path d="M196.3669 125.4669
L196.3367 125.4367
" />
<path d="M196.3367 125.4367
L196.3064 125.3762
" />
<path d="M196.3064 125.3762
L196.3064 125.1343
" />
<path d="M196.6390 125.7088
L196.6390 126.1019
" />
<path d="M196.6390 126.1019
L196.3971 125.8903
" />
<path d="M196.3971 125.8903
L196.3971 125.9810
" />
<path d="M196.3971 125.9810
L196.3669 126.0415
" />
<path d="M196.3669 126.0415
L196.3367 126.0717
" />
<path d="M196.3367 126.0717
L196.2762 126.1019
" />
<path d="M196.2762 126.1019
L196.1250 126.1019
" />
<path d="M196.1250 126.1019
L196.0645 126.0717
" />
<path d="M196.0645 126.0717
L196.0343 126.0415
" />
<path d="M196.0343 126.0415
L196.0040 125.9810
" />
<path d="M196.0040 125.9810
L196.0040 125.7995
" />
<path d="M196.0040 125.7995
L196.0343 125.7391
" />
<path d="M196.0343 125.7391
L196.0645 125.7088
" />
</g><g transform="rotate(90.000000 204.6224 110.6170)">
<text x="204.6224" y="110.9345"
textLength="1.4938" font-size="0.8467" lengthAdjust="spacingAndGlyphs"
text-anchor="middle" opacity="0" stroke-opacity="0">C1</text>
</g>
<g class="stroked-text"><desc>C1</desc>
<path d="M204.3957 110.5112
L204.3655 110.4809
" />
<path d="M204.3655 110.4809
L204.3352 110.3902
" />
<path d="M204.3352 110.3902
L204.3352 110.3297
" />
<path d="M204.3352 110.3297
L204.3655 110.2390
" />
<path d="M204.3655 110.2390
L204.4260 110.1785
" />
<path d="M204.4260 110.1785
L204.4864 110.1483
" />
<path d="M204.4864 110.1483
L204.6074 110.1181
" />
<path d="M204.6074 110.1181
L204.6981 110.1181
" />
<path d="M204.6981 110.1181
L204.8191 110.1483
" />
<path d="M204.8191 110.1483
L204.8795 110.1785
" />
<path d="M204.8795 110.1785
L204.9400 110.2390
" />
<path d="M204.9400 110.2390
L204.9702 110.3297
" />
<path d="M204.9702 110.3297
L204.9702 110.3902
" />
<path d="M204.9702 110.3902
L204.9400 110.4809
" />
<path d="M204.9400 110.4809
L204.9098 110.5112
" />
<path d="M204.3352 111.1159
L204.3352 110.7531
" />
<path d="M204.3352 110.9345
L204.9702 110.9345
" />
<path d="M204.9702 110.9345
L204.8795 110.8740
" />
<path d="M204.8795 110.8740
L204.8191 110.8135
" />
<path d="M204.8191 110.8135
L204.7888 110.7531
" />
</g><text x="201.2696" y="121.5517"
textLength="1.5240" font-size="0.8467" lengthAdjust="spacingAndGlyphs"
text-anchor="middle" opacity="0" stroke-opacity="0">U3</text>
<g class="stroked-text"><desc>U3</desc>
<path d="M200.7858 120.8864
L200.7858 121.4004
" />
<path d="M200.7858 121.4004
L200.8160 121.4609
" />
<path d="M200.8160 121.4609
L200.8463 121.4911
" />
<path d="M200.8463 121.4911
L200.9067 121.5214
" />
<path d="M200.9067 121.5214
L201.0277 121.5214
" />
<path d="M201.0277 121.5214
L201.0882 121.4911
" />
<path d="M201.0882 121.4911
L201.1184 121.4609
" />
<path d="M201.1184 121.4609
L201.1486 121.4004
" />
<path d="M201.1486 121.4004
L201.1486 120.8864
" />
<path d="M201.3906 120.8864
L201.7836 120.8864
" />
<path d="M201.7836 120.8864
L201.5720 121.1283
" />
<path d="M201.5720 121.1283
L201.6627 121.1283
" />
<path d="M201.6627 121.1283
L201.7232 121.1585
" />
<path d="M201.7232 121.1585
L201.7534 121.1887
" />
<path d="M201.7534 121.1887
L201.7836 121.2492
" />
<path d="M201.7836 121.2492
L201.7836 121.4004
" />
<path d="M201.7836 121.4004
L201.7534 121.4609
" />
<path d="M201.7534 121.4609
L201.7232 121.4911
" />
<path d="M201.7232 121.4911
L201.6627 121.5214
" />
<path d="M201.6627 121.5214
L201.4813 121.5214
" />
<path d="M201.4813 121.5214
L201.4208 121.4911
" />
<path d="M201.4208 121.4911
L201.3906 121.4609
" />
</g><g transform="rotate(90.000000 197.9168 127.5842)">
<text x="197.9168" y="127.9017"
textLength="1.4938" font-size="0.8467" lengthAdjust="spacingAndGlyphs"
text-anchor="middle" opacity="0" stroke-opacity="0">R5</text>
</g>
<g class="stroked-text"><desc>R5</desc>
<path d="M197.6296 127.4784
L197.9320 127.2667
" />
<path d="M197.6296 127.1155
L198.2646 127.1155
" />
<path d="M198.2646 127.1155
L198.2646 127.3574
" />
<path d="M198.2646 127.3574
L198.2344 127.4179
" />
<path d="M198.2344 127.4179
L198.2042 127.4481
" />
<path d="M198.2042 127.4481
L198.1437 127.4784
" />
<path d="M198.1437 127.4784
L198.0530 127.4784
" />
<path d="M198.0530 127.4784
L197.9925 127.4481
" />
<path d="M197.9925 127.4481
L197.9623 127.4179
" />
<path d="M197.9623 127.4179
L197.9320 127.3574
" />
<path d="M197.9320 127.3574
L197.9320 127.1155
" />
<path d="M198.2646 128.0529
L198.2646 127.7505
" />
<path d="M198.2646 127.7505
L197.9623 127.7203
" />
<path d="M197.9623 127.7203
L197.9925 127.7505
" />
<path d="M197.9925 127.7505
L198.0227 127.8110
" />
<path d="M198.0227 127.8110
L198.0227 127.9622
" />
<path d="M198.0227 127.9622
L197.9925 128.0227
" />
<path d="M197.9925 128.0227
L197.9623 128.0529
" />
<path d="M197.9623 128.0529
L197.9018 128.0831
" />
<path d="M197.9018 128.0831
L197.7506 128.0831
" />
<path d="M197.7506 128.0831
L197.6901 128.0529
" />
<path d="M197.6901 128.0529
L197.6599 128.0227
" />
<path d="M197.6599 128.0227
L197.6296 127.9622
" />
<path d="M197.6296 127.9622
L197.6296 127.8110
" />
<path d="M197.6296 127.8110
L197.6599 127.7505
" />
<path d="M197.6599 127.7505
L197.6901 127.7203
" />
</g></g>
<g style="fill:none; 
stroke:#000000; stroke-width:0.1200; stroke-opacity:1; 
stroke-linecap:round; stroke-linejoin:round;">
<path d="M194.9283 134.6055
L194.4537 134.6055
" />
<path d="M194.9283 135.6505
L194.4537 135.6505
" />
<path d="M205.6725 123.3025
L205.1979 123.3025
" />
<path d="M205.6725 124.3475
L205.1979 124.3475
" />
<path d="M198.3252 123.4304
L198.3252 123.7116
" />
<path d="M197.3052 123.4304
L197.3052 123.7116
" />
<path d="M206.7540 110.7576
L206.7540 110.4764
" />
<path d="M207.7740 110.7576
L207.7740 110.4764
" />
<path d="M199.8617 129.9043
L199.8617 129.4297
" />
<path d="M198.8167 129.9043
L198.8167 129.4297
" />
<path d="M192.6227 123.8083
L192.6227 123.3337
" />
<path d="M191.5777 123.8083
L191.5777 123.3337
" />
<path d="M195.2897 123.8083
L195.2897 123.3337
" />
<path d="M194.2447 123.8083
L194.2447 123.3337
" />
<path d="M196.8137 123.8083
L196.8137 123.3337
" />
<path d="M195.7687 123.8083
L195.7687 123.3337
" />
<path d="M205.2300 110.7576
L205.2300 110.4764
" />
<path d="M206.2500 110.7576
L206.2500 110.4764
" />
<path d="M202.8542 121.9610
L202.3792 121.9610
" />
<path d="M202.8542 122.4360
L202.8542 121.9610
" />
<path d="M202.8542 124.9410
L202.8542 124.7060
" />
<path d="M202.5542 125.1810
L202.3792 125.1810
" />
<path d="M199.6342 121.9610
L200.1092 121.9610
" />
<path d="M199.6342 122.4360
L199.6342 121.9610
" />
<path d="M199.6342 124.7060
L199.6342 125.1810
" />
<path d="M199.6342 125.1810
L200.1092 125.1810
" />
<path style="fill:#000000; fill-opacity:1.0000; 
stroke:#000000; stroke-width:0.1200; stroke-opacity:1; 
stroke-linecap:round; stroke-linejoin:round;fill-rule:evenodd;"
d="M 202.6142,125.5110
203.0942,125.5110
202.8542,125.1810
Z" /> 
</g>
<g style="fill:none; 
stroke:#000000; stroke-width:0.1200; stroke-opacity:1; 
stroke-linecap:round; stroke-linejoin:round;">
<path d="M197.2927 129.9043
L197.2927 129.4297
" />
<path d="M198.3377 129.9043
L198.3377 129.4297
" />
</g>
<g style="fill:none; 
stroke:#000000; stroke-width:2.5400; stroke-opacity:1; 
stroke-linecap:round; stroke-linejoin:round;">
<path d="M193.7550 111.0887
L193.4934 110.6533
" />
</g>
<g style="fill:#000000; fill-opacity:1.0000; stroke:none;">
<circle cx="208.8642" cy="136.2710" r="1.2700" /> 
</g>
<g style="fill:#000000; fill-opacity:1.0000; stroke:none;">
<circle cx="201.2442" cy="110.8710" r="1.6000" /> 
</g>
<g style="fill:#000000; fill-opacity:1.0000; stroke:none;">
<circle cx="194.6222" cy="130.0510" r="1.7000" /> 
</g>
<g style="fill:#000000; fill-opacity:1.0000; stroke:none;">
<circle cx="194.6222" cy="117.0910" r="1.7000" /> 
</g>
<g style="fill:#000000; fill-opacity:1.0000; stroke:none;">
<circle cx="210.3882" cy="117.2210" r="0.5000" /> 
</g>
<g style="fill:#000000; fill-opacity:1.0000; stroke:none;">
<circle cx="210.3882" cy="119.7610" r="0.5000" /> 
</g>
<g style="fill:#000000; fill-opacity:1.0000; stroke:none;">
<circle cx="210.3882" cy="122.3010" r="0.5000" /> 
</g>
<g style="fill:#000000; fill-opacity:1.0000; stroke:none;">
<circle cx="210.3882" cy="124.8410" r="0.5000" /> 
</g>
<g style="fill:#000000; fill-opacity:1.0000; stroke:none;">
<circle cx="210.3882" cy="127.3810" r="0.5000" /> 
</g>
<g style="fill:#000000; fill-opacity:1.0000; stroke:none;">
<circle cx="210.3882" cy="129.9210" r="0.5000" /> 
</g>
<g style="fill:#000000; fill-opacity:1.0000; stroke:none;">
<circle cx="201.2442" cy="136.2710" r="1.6000" /> 
<path style="fill:#000000; fill-opacity:1.0000; stroke:none;fill-rule:evenodd;"
d="M 193.4660,135.4030
193.4812,135.4795
193.5246,135.5444
193.5895,135.5878
193.6660,135.6030
194.0660,135.6030
194.1425,135.5878
194.2074,135.5444
194.2508,135.4795
194.2660,135.4030
194.2660,134.8530
194.2508,134.7765
194.2074,134.7116
194.1425,134.6682
194.0660,134.6530
193.6660,134.6530
193.5895,134.6682
193.5246,134.7116
193.4812,134.7765
193.4660,134.8530
Z" /> 
<path style="fill:#000000; fill-opacity:1.0000; stroke:none;fill-rule:evenodd;"
d="M 195.1160,135.4030
195.1312,135.4795
195.1746,135.5444
195.2395,135.5878
195.3160,135.6030
195.7160,135.6030
195.7925,135.5878
195.8574,135.5444
195.9008,135.4795
195.9160,135.4030
195.9160,134.8530
195.9008,134.7765
195.8574,134.7116
195.7925,134.6682
195.7160,134.6530
195.3160,134.6530
195.2395,134.6682
195.1746,134.7116
195.1312,134.7765
195.1160,134.8530
Z" /> 
</g>
<g style="fill:none; 
stroke:#000000; stroke-width:2.5400; stroke-opacity:1; 
stroke-linecap:round; stroke-linejoin:round;">
<path d="M193.7550 111.0887
L193.4934 110.6533
" />
</g>
<g style="fill:#000000; fill-opacity:1.0000; stroke:none;">
<circle cx="208.8642" cy="136.2710" r="1.2700" /> 
</g>
<g style="fill:#000000; fill-opacity:1.0000; stroke:none;">
<circle cx="201.2442" cy="110.8710" r="1.6000" /> 
</g>
<g style="fill:#000000; fill-opacity:1.0000; stroke:none;">
<circle cx="194.6222" cy="130.0510" r="1.7000" /> 
</g>
<g style="fill:#000000; fill-opacity:1.0000; stroke:none;">
<circle cx="194.6222" cy="117.0910" r="1.7000" /> 
<path style="fill:#000000; fill-opacity:1.0000; stroke:none;fill-rule:evenodd;"
d="M 211.2382,118.0710
211.2382,116.3710
209.5382,116.3710
209.5382,118.0710
Z" /> 
</g>
<g style="fill:#000000; fill-opacity:1.0000; stroke:none;">
<circle cx="210.3882" cy="119.7610" r="0.8500" /> 
<circle cx="210.3882" cy="122.3010" r="0.8500" /> 
<circle cx="210.3882" cy="124.8410" r="0.8500" /> 
<circle cx="210.3882" cy="127.3810" r="0.8500" /> 
<circle cx="210.3882" cy="129.9210" r="0.8500" /> 
<circle cx="201.2442" cy="136.2710" r="1.6000" /> 
<path style="fill:#000000; fill-opacity:1.0000; stroke:none;fill-rule:evenodd;"
d="M 204.2102,124.1000
204.2254,124.1765
204.2688,124.2414
204.3337,124.2848
204.4102,124.3000
204.8102,124.3000
204.8867,124.2848
204.9516,124.2414
204.9950,124.1765
205.0102,124.1000
205.0102,123.5500
204.9950,123.4735
204.9516,123.4086
204.8867,123.3652
204.8102,123.3500
204.4102,123.3500
204.3337,123.3652
204.2688,123.4086
204.2254,123.4735
204.2102,123.5500
Z" /> 
<path style="fill:#000000; fill-opacity:1.0000; stroke:none;fill-rule:evenodd;"
d="M 205.8602,124.1000
205.8754,124.1765
205.9188,124.2414
205.9837,124.2848
206.0602,124.3000
206.4602,124.3000
206.5367,124.2848
206.6016,124.2414
206.6450,124.1765
206.6602,124.1000
206.6602,123.5500
206.6450,123.4735
206.6016,123.4086
206.5367,123.3652
206.4602,123.3500
206.0602,123.3500
205.9837,123.3652
205.9188,123.4086
205.8754,123.4735
205.8602,123.5500
Z" /> 
<path style="fill:#000000; fill-opacity:1.0000; stroke:none;fill-rule:evenodd;"
d="M 198.0652,124.7960
198.1513,124.7789
198.2243,124.7301
198.2731,124.6571
198.2902,124.5710
198.2902,124.1210
198.2731,124.0349
198.2243,123.9619
198.1513,123.9131
198.0652,123.8960
197.5652,123.8960
197.4791,123.9131
197.4061,123.9619
197.3573,124.0349
197.3402,124.1210
197.3402,124.5710
197.3573,124.6571
197.4061,124.7301
197.4791,124.7789
197.5652,124.7960
Z" /> 
<path style="fill:#000000; fill-opacity:1.0000; stroke:none;fill-rule:evenodd;"
d="M 198.0652,123.2460
198.1513,123.2289
198.2243,123.1801
198.2731,123.1071
198.2902,123.0210
198.2902,122.5710
198.2731,122.4849
198.2243,122.4119
198.1513,122.3631
198.0652,122.3460
197.5652,122.3460
197.4791,122.3631
197.4061,122.4119
197.3573,122.4849
197.3402,122.5710
197.3402,123.0210
197.3573,123.1071
197.4061,123.1801
197.4791,123.2289
197.5652,123.2460
Z" /> 
<path style="fill:#000000; fill-opacity:1.0000; stroke:none;fill-rule:evenodd;"
d="M 207.0140,109.3920
206.9279,109.4091
206.8549,109.4579
206.8061,109.5309
206.7890,109.6170
206.7890,110.0670
206.8061,110.1531
206.8549,110.2261
206.9279,110.2749
207.0140,110.2920
207.5140,110.2920
207.6001,110.2749
207.6731,110.2261
207.7219,110.1531
207.7390,110.0670
207.7390,109.6170
207.7219,109.5309
207.6731,109.4579
207.6001,109.4091
207.5140,109.3920
Z" /> 
<path style="fill:#000000; fill-opacity:1.0000; stroke:none;fill-rule:evenodd;"
d="M 207.0140,110.9420
206.9279,110.9591
206.8549,111.0079
206.8061,111.0809
206.7890,111.1670
206.7890,111.6170
206.8061,111.7031
206.8549,111.7761
206.9279,111.8249
207.0140,111.8420
207.5140,111.8420
207.6001,111.8249
207.6731,111.7761
207.7219,111.7031
207.7390,111.6170
207.7390,111.1670
207.7219,111.0809
207.6731,111.0079
207.6001,110.9591
207.5140,110.9420
Z" /> 
<path style="fill:#000000; fill-opacity:1.0000; stroke:none;fill-rule:evenodd;"
d="M 199.0642,128.4420
198.9877,128.4572
198.9228,128.5006
198.8794,128.5655
198.8642,128.6420
198.8642,129.0420
198.8794,129.1185
198.9228,129.1834
198.9877,129.2268
199.0642,129.2420
199.6142,129.2420
199.6907,129.2268
199.7556,129.1834
199.7990,129.1185
199.8142,129.0420
199.8142,128.6420
199.7990,128.5655
199.7556,128.5006
199.6907,128.4572
199.6142,128.4420
Z" /> 
<path style="fill:#000000; fill-opacity:1.0000; stroke:none;fill-rule:evenodd;"
d="M 199.0642,130.0920
198.9877,130.1072
198.9228,130.1506
198.8794,130.2155
198.8642,130.2920
198.8642,130.6920
198.8794,130.7685
198.9228,130.8334
198.9877,130.8768
199.0642,130.8920
199.6142,130.8920
199.6907,130.8768
199.7556,130.8334
199.7990,130.7685
199.8142,130.6920
199.8142,130.2920
199.7990,130.2155
199.7556,130.1506
199.6907,130.1072
199.6142,130.0920
Z" /> 
<path style="fill:#000000; fill-opacity:1.0000; stroke:none;fill-rule:evenodd;"
d="M 191.8252,122.3460
191.7487,122.3612
191.6838,122.4046
191.6404,122.4695
191.6252,122.5460
191.6252,122.9460
191.6404,123.0225
191.6838,123.0874
191.7487,123.1308
191.8252,123.1460
192.3752,123.1460
192.4517,123.1308
192.5166,123.0874
192.5600,123.0225
192.5752,122.9460
192.5752,122.5460
192.5600,122.4695
192.5166,122.4046
192.4517,122.3612
192.3752,122.3460
Z" /> 
<path style="fill:#000000; fill-opacity:1.0000; stroke:none;fill-rule:evenodd;"
d="M 191.8252,123.9960
191.7487,124.0112
191.6838,124.0546
191.6404,124.1195
191.6252,124.1960
191.6252,124.5960
191.6404,124.6725
191.6838,124.7374
191.7487,124.7808
191.8252,124.7960
192.3752,124.7960
192.4517,124.7808
192.5166,124.7374
192.5600,124.6725
192.5752,124.5960
192.5752,124.1960
192.5600,124.1195
192.5166,124.0546
192.4517,124.0112
192.3752,123.9960
Z" /> 
<path style="fill:#000000; fill-opacity:1.0000; stroke:none;fill-rule:evenodd;"
d="M 194.4922,122.3460
194.4157,122.3612
194.3508,122.4046
194.3074,122.4695
194.2922,122.5460
194.2922,122.9460
194.3074,123.0225
194.3508,123.0874
194.4157,123.1308
194.4922,123.1460
195.0422,123.1460
195.1187,123.1308
195.1836,123.0874
195.2270,123.0225
195.2422,122.9460
195.2422,122.5460
195.2270,122.4695
195.1836,122.4046
195.1187,122.3612
195.0422,122.3460
Z" /> 
<path style="fill:#000000; fill-opacity:1.0000; stroke:none;fill-rule:evenodd;"
d="M 194.4922,123.9960
194.4157,124.0112
194.3508,124.0546
194.3074,124.1195
194.2922,124.1960
194.2922,124.5960
194.3074,124.6725
194.3508,124.7374
194.4157,124.7808
194.4922,124.7960
195.0422,124.7960
195.1187,124.7808
195.1836,124.7374
195.2270,124.6725
195.2422,124.5960
195.2422,124.1960
195.2270,124.1195
195.1836,124.0546
195.1187,124.0112
195.0422,123.9960
Z" /> 
<path style="fill:#000000; fill-opacity:1.0000; stroke:none;fill-rule:evenodd;"
d="M 196.0162,122.3460
195.9397,122.3612
195.8748,122.4046
195.8314,122.4695
195.8162,122.5460
195.8162,122.9460
195.8314,123.0225
195.8748,123.0874
195.9397,123.1308
196.0162,123.1460
196.5662,123.1460
196.6427,123.1308
196.7076,123.0874
196.7510,123.0225
196.7662,122.9460
196.7662,122.5460
196.7510,122.4695
196.7076,122.4046
196.6427,122.3612
196.5662,122.3460
Z" /> 
<path style="fill:#000000; fill-opacity:1.0000; stroke:none;fill-rule:evenodd;"
d="M 196.0162,123.9960
195.9397,124.0112
195.8748,124.0546
195.8314,124.1195
195.8162,124.1960
195.8162,124.5960
195.8314,124.6725
195.8748,124.7374
195.9397,124.7808
196.0162,124.7960
196.5662,124.7960
196.6427,124.7808
196.7076,124.7374
196.7510,124.6725
196.7662,124.5960
196.7662,124.1960
196.7510,124.1195
196.7076,124.0546
196.6427,124.0112
196.5662,123.9960
Z" /> 
<path style="fill:#000000; fill-opacity:1.0000; stroke:none;fill-rule:evenodd;"
d="M 205.4900,110.9420
205.4039,110.9591
205.3309,111.0079
205.2821,111.0809
205.2650,111.1670
205.2650,111.6170
205.2821,111.7031
205.3309,111.7761
205.4039,111.8249
205.4900,111.8420
205.9900,111.8420
206.0761,111.8249
206.1491,111.7761
206.1979,111.7031
206.2150,111.6170
206.2150,111.1670
206.1979,111.0809
206.1491,111.0079
206.0761,110.9591
205.9900,110.9420
Z" /> 
<path style="fill:#000000; fill-opacity:1.0000; stroke:none;fill-rule:evenodd;"
d="M 205.4900,109.3920
205.4039,109.4091
205.3309,109.4579
205.2821,109.5309
205.2650,109.6170
205.2650,110.0670
205.2821,110.1531
205.3309,110.2261
205.4039,110.2749
205.4900,110.2920
205.9900,110.2920
206.0761,110.2749
206.1491,110.2261
206.1979,110.1531
206.2150,110.0670
206.2150,109.6170
206.1979,109.5309
206.1491,109.4579
206.0761,109.4091
205.9900,109.3920
Z" /> 
<path style="fill:#000000; fill-opacity:1.0000; stroke:none;fill-rule:evenodd;"
d="M 203.0442,124.2465
203.0394,124.2226
203.0259,124.2023
203.0056,124.1888
202.9817,124.1840
202.4067,124.1840
202.3828,124.1888
202.3625,124.2023
202.3490,124.2226
202.3442,124.2465
202.3442,124.3715
202.3490,124.3954
202.3625,124.4157
202.3828,124.4292
202.4067,124.4340
202.9817,124.4340
203.0056,124.4292
203.0259,124.4157
203.0394,124.3954
203.0442,124.3715
Z" /> 
<path style="fill:#000000; fill-opacity:1.0000; stroke:none;fill-rule:evenodd;"
d="M 203.0442,123.7465
203.0394,123.7226
203.0259,123.7023
203.0056,123.6888
202.9817,123.6840
202.4067,123.6840
202.3828,123.6888
202.3625,123.7023
202.3490,123.7226
202.3442,123.7465
202.3442,123.8715
202.3490,123.8954
202.3625,123.9157
202.3828,123.9292
202.4067,123.9340
202.9817,123.9340
203.0056,123.9292
203.0259,123.9157
203.0394,123.8954
203.0442,123.8715
Z" /> 
<path style="fill:#000000; fill-opacity:1.0000; stroke:none;fill-rule:evenodd;"
d="M 203.0442,123.2465
203.0394,123.2226
203.0259,123.2023
203.0056,123.1888
202.9817,123.1840
202.4067,123.1840
202.3828,123.1888
202.3625,123.2023
202.3490,123.2226
202.3442,123.2465
202.3442,123.3715
202.3490,123.3954
202.3625,123.4157
202.3828,123.4292
202.4067,123.4340
202.9817,123.4340
203.0056,123.4292
203.0259,123.4157
203.0394,123.3954
203.0442,123.3715
Z" /> 
<path style="fill:#000000; fill-opacity:1.0000; stroke:none;fill-rule:evenodd;"
d="M 203.0442,122.7465
203.0394,122.7226
203.0259,122.7023
203.0056,122.6888
202.9817,122.6840
202.4067,122.6840
202.3828,122.6888
202.3625,122.7023
202.3490,122.7226
202.3442,122.7465
202.3442,122.8715
202.3490,122.8954
202.3625,122.9157
202.3828,122.9292
202.4067,122.9340
202.9817,122.9340
203.0056,122.9292
203.0259,122.9157
203.0394,122.8954
203.0442,122.8715
Z" /> 
<path style="fill:#000000; fill-opacity:1.0000; stroke:none;fill-rule:evenodd;"
d="M 202.1192,121.8335
202.1144,121.8096
202.1009,121.7893
202.0806,121.7758
202.0567,121.7710
201.9317,121.7710
201.9078,121.7758
201.8875,121.7893
201.8740,121.8096
201.8692,121.8335
201.8692,122.4085
201.8740,122.4324
201.8875,122.4527
201.9078,122.4662
201.9317,122.4710
202.0567,122.4710
202.0806,122.4662
202.1009,122.4527
202.1144,122.4324
202.1192,122.4085
Z" /> 
<path style="fill:#000000; fill-opacity:1.0000; stroke:none;fill-rule:evenodd;"
d="M 201.6192,121.8335
201.6144,121.8096
201.6009,121.7893
201.5806,121.7758
201.5567,121.7710
201.4317,121.7710
201.4078,121.7758
201.3875,121.7893
201.3740,121.8096
201.3692,121.8335
201.3692,122.4085
201.3740,122.4324
201.3875,122.4527
201.4078,122.4662
201.4317,122.4710
201.5567,122.4710
201.5806,122.4662
201.6009,122.4527
201.6144,122.4324
201.6192,122.4085
Z" /> 
<path style="fill:#000000; fill-opacity:1.0000; stroke:none;fill-rule:evenodd;"
d="M 201.1192,121.8335
201.1144,121.8096
201.1009,121.7893
201.0806,121.7758
201.0567,121.7710
200.9317,121.7710
200.9078,121.7758
200.8875,121.7893
200.8740,121.8096
200.8692,121.8335
200.8692,122.4085
200.8740,122.4324
200.8875,122.4527
200.9078,122.4662
200.9317,122.4710
201.0567,122.4710
201.0806,122.4662
201.1009,122.4527
201.1144,122.4324
201.1192,122.4085
Z" /> 
<path style="fill:#000000; fill-opacity:1.0000; stroke:none;fill-rule:evenodd;"
d="M 200.6192,121.8335
200.6144,121.8096
200.6009,121.7893
200.5806,121.7758
200.5567,121.7710
200.4317,121.7710
200.4078,121.7758
200.3875,121.7893
200.3740,121.8096
200.3692,121.8335
200.3692,122.4085
200.3740,122.4324
200.3875,122.4527
200.4078,122.4662
200.4317,122.4710
200.5567,122.4710
200.5806,122.4662
200.6009,122.4527
200.6144,122.4324
200.6192,122.4085
Z" /> 
<path style="fill:#000000; fill-opacity:1.0000; stroke:none;fill-rule:evenodd;"
d="M 200.1442,122.7585
200.1394,122.7346
200.1259,122.7143
200.1056,122.7008
200.0817,122.6960
199.5067,122.6960
199.4828,122.7008
199.4625,122.7143
199.4490,122.7346
199.4442,122.7585
199.4442,122.8835
199.4490,122.9074
199.4625,122.9277
199.4828,122.9412
199.5067,122.9460
200.0817,122.9460
200.1056,122.9412
200.1259,122.9277
200.1394,122.9074
200.1442,122.8835
Z" /> 
<path style="fill:#000000; fill-opacity:1.0000; stroke:none;fill-rule:evenodd;"
d="M 200.1442,123.2585
200.1394,123.2346
200.1259,123.2143
200.1056,123.2008
200.0817,123.1960
199.5067,123.1960
199.4828,123.2008
199.4625,123.2143
199.4490,123.2346
199.4442,123.2585
199.4442,123.3835
199.4490,123.4074
199.4625,123.4277
199.4828,123.4412
199.5067,123.4460
200.0817,123.4460
200.1056,123.4412
200.1259,123.4277
200.1394,123.4074
200.1442,123.3835
Z" /> 
<path style="fill:#000000; fill-opacity:1.0000; stroke:none;fill-rule:evenodd;"
d="M 200.1442,123.7585
200.1394,123.7346
200.1259,123.7143
200.1056,123.7008
200.0817,123.6960
199.5067,123.6960
199.4828,123.7008
199.4625,123.7143
199.4490,123.7346
199.4442,123.7585
199.4442,123.8835
199.4490,123.9074
199.4625,123.9277
199.4828,123.9412
199.5067,123.9460
200.0817,123.9460
200.1056,123.9412
200.1259,123.9277
200.1394,123.9074
200.1442,123.8835
Z" /> 
<path style="fill:#000000; fill-opacity:1.0000; stroke:none;fill-rule:evenodd;"
d="M 200.1442,124.2585
200.1394,124.2346
200.1259,124.2143
200.1056,124.2008
200.0817,124.1960
199.5067,124.1960
199.4828,124.2008
199.4625,124.2143
199.4490,124.2346
199.4442,124.2585
199.4442,124.3835
199.4490,124.4074
199.4625,124.4277
199.4828,124.4412
199.5067,124.4460
200.0817,124.4460
200.1056,124.4412
200.1259,124.4277
200.1394,124.4074
200.1442,124.3835
Z" /> 
<path style="fill:#000000; fill-opacity:1.0000; stroke:none;fill-rule:evenodd;"
d="M 200.6192,124.7335
200.6144,124.7096
200.6009,124.6893
200.5806,124.6758
200.5567,124.6710
200.4317,124.6710
200.4078,124.6758
200.3875,124.6893
200.3740,124.7096
200.3692,124.7335
200.3692,125.3085
200.3740,125.3324
200.3875,125.3527
200.4078,125.3662
200.4317,125.3710
200.5567,125.3710
200.5806,125.3662
200.6009,125.3527
200.6144,125.3324
200.6192,125.3085
Z" /> 
<path style="fill:#000000; fill-opacity:1.0000; stroke:none;fill-rule:evenodd;"
d="M 201.1192,124.7335
201.1144,124.7096
201.1009,124.6893
201.0806,124.6758
201.0567,124.6710
200.9317,124.6710
200.9078,124.6758
200.8875,124.6893
200.8740,124.7096
200.8692,124.7335
200.8692,125.3085
200.8740,125.3324
200.8875,125.3527
200.9078,125.3662
200.9317,125.3710
201.0567,125.3710
201.0806,125.3662
201.1009,125.3527
201.1144,125.3324
201.1192,125.3085
Z" /> 
<path style="fill:#000000; fill-opacity:1.0000; stroke:none;fill-rule:evenodd;"
d="M 201.6192,124.7335
201.6144,124.7096
201.6009,124.6893
201.5806,124.6758
201.5567,124.6710
201.4317,124.6710
201.4078,124.6758
201.3875,124.6893
201.3740,124.7096
201.3692,124.7335
201.3692,125.3085
201.3740,125.3324
201.3875,125.3527
201.4078,125.3662
201.4317,125.3710
201.5567,125.3710
201.5806,125.3662
201.6009,125.3527
201.6144,125.3324
201.6192,125.3085
Z" /> 
<path style="fill:#000000; fill-opacity:1.0000; stroke:none;fill-rule:evenodd;"
d="M 202.1192,124.7335
202.1144,124.7096
202.1009,124.6893
202.0806,124.6758
202.0567,124.6710
201.9317,124.6710
201.9078,124.6758
201.8875,124.6893
201.8740,124.7096
201.8692,124.7335
201.8692,125.3085
201.8740,125.3324
201.8875,125.3527
201.9078,125.3662
201.9317,125.3710
202.0567,125.3710
202.0806,125.3662
202.1009,125.3527
202.1144,125.3324
202.1192,125.3085
Z" /> 
<path style="fill:#000000; fill-opacity:1.0000; stroke:none;fill-rule:evenodd;"
d="M 202.0942,124.4210
202.0942,122.7210
200.3942,122.7210
200.3942,124.4210
Z" /> 
<path style="fill:#000000; fill-opacity:1.0000; stroke:none;fill-rule:evenodd;"
d="M 197.5402,130.0920
197.4637,130.1072
197.3988,130.1506
197.3554,130.2155
197.3402,130.2920
197.3402,130.6920
197.3554,130.7685
197.3988,130.8334
197.4637,130.8768
197.5402,130.8920
198.0902,130.8920
198.1667,130.8768
198.2316,130.8334
198.2750,130.7685
198.2902,130.6920
198.2902,130.2920
198.2750,130.2155
198.2316,130.1506
198.1667,130.1072
198.0902,130.0920
Z" /> 
<path style="fill:#000000; fill-opacity:1.0000; stroke:none;fill-rule:evenodd;"
d="M 197.5402,128.4420
197.4637,128.4572
197.3988,128.5006
197.3554,128.5655
197.3402,128.6420
197.3402,129.0420
197.3554,129.1185
197.3988,129.1834
197.4637,129.2268
197.5402,129.2420
198.0902,129.2420
198.1667,129.2268
198.2316,129.1834
198.2750,129.1185
198.2902,129.0420
198.2902,128.6420
198.2750,128.5655
198.2316,128.5006
198.1667,128.4572
198.0902,128.4420
Z" /> 
</g>
<g style="fill:none; 
stroke:#000000; stroke-width:0.0500; stroke-opacity:1; 
stroke-linecap:round; stroke-linejoin:round;">
<path d="M212.1662 108.9660 A1.2700 1.2700 0.0 0 0 210.8962 107.6960" />
<path d="M190.3222 138.1760 A1.2700 1.2700 0.0 0 0 191.5922 139.4460" />
<path d="M212.1662 108.9660
L212.1662 138.1760
" />
<path d="M190.3222 138.1760
L190.3222 108.9660
" />
<path d="M191.5922 107.6960
L210.8962 107.6960
" />
<path d="M210.8962 139.4460 A1.2700 1.2700 0.0 0 0 212.1662 138.1760" />
<path d="M210.8962 139.4460
L191.5922 139.4460
" />
<path d="M191.5922 107.6960 A1.2700 1.2700 0.0 0 0 190.3222 108.9660" />
</g>
<g style="fill:none; 
stroke:#000000; stroke-width:2.5400; stroke-opacity:1; 
stroke-linecap:round; stroke-linejoin:round;">
<path d="M193.7550 111.0887
L193.4934 110.6533
" />
</g>
<g style="fill:#000000; fill-opacity:1.0000; stroke:none;">
<circle cx="208.8642" cy="136.2710" r="1.2700" /> 
</g>
<g style="fill:#000000; fill-opacity:1.0000; stroke:none;">
<circle cx="201.2442" cy="110.8710" r="1.6000" /> 
</g>
<g style="fill:#000000; fill-opacity:1.0000; stroke:none;">
<circle cx="194.6222" cy="130.0510" r="1.7000" /> 
</g>
<g style="fill:#000000; fill-opacity:1.0000; stroke:none;">
<circle cx="194.6222" cy="117.0910" r="1.7000" /> 
</g>
<g style="fill:#000000; fill-opacity:1.0000; stroke:none;">
<circle cx="210.3882" cy="117.2210" r="0.5000" /> 
</g>
<g style="fill:#000000; fill-opacity:1.0000; stroke:none;">
<circle cx="210.3882" cy="119.7610" r="0.5000" /> 
</g>
<g style="fill:#000000; fill-opacity:1.0000; stroke:none;">
<circle cx="210.3882" cy="122.3010" r="0.5000" /> 
</g>
<g style="fill:#000000; fill-opacity:1.0000; stroke:none;">
<circle cx="210.3882" cy="124.8410" r="0.5000" /> 
</g>
<g style="fill:#000000; fill-opacity:1.0000; stroke:none;">
<circle cx="210.3882" cy="127.3810" r="0.5000" /> 
</g>
<g style="fill:#000000; fill-opacity:1.0000; stroke:none;">
<circle cx="210.3882" cy="129.9210" r="0.5000" /> 
</g>
<g style="fill:#000000; fill-opacity:1.0000; stroke:none;">
<circle cx="201.2442" cy="136.2710" r="1.6000" /> 
</g> 
</svg>
