  0
SECTION
  2
HEADER
  9
$ANGBASE
  50
0.0
  9
$ANGDIR
  70
1
  9
$MEASUREMENT
  70
0
  0
ENDSEC
  0
SECTION
  2
TABLES
  0
TABLE
  2
LTYPE
  70
4
  0
LTYPE
  5
40F
  2
CONTINUOUS
  70
0
  3
Solid line
  72
65
  73
0
  40
0.0
  0
LTYPE
  5
410
  2
DASHDOT
 70
0
  3
Dash Dot ____ _ ____ _
 72
65
 73
4
 40
2.0
 49
1.25
 49
-0.25
 49
0.25
 49
-0.25
  0
LTYPE
  5
411
  2
DASHED
 70
0
  3
Dashed __ __ __ __ __
 72
65
 73
2
 40
0.75
 49
0.5
 49
-0.25
  0
LTYPE
  5
43B
  2
DOTTED
 70
0
  3
Dotted .  .  .  .
 72
65
 73
2
 40
0.2
 49
0.0
 49
-0.2
  0
ENDTAB
  0
TABLE
  2
STYLE
  70
4
  0
STYLE
  2
KICAD
  70
0
  40
0
  41
1
  42
1
  50
0
  71
0
  3
isocp.shx
  0
STYLE
  2
KICADB
  70
0
  40
0
  41
1
  42
1
  50
0
  71
0
  3
isocp.shx
  0
STYLE
  2
KICADI
  70
0
  40
0
  41
1
  42
1
  50
15
  71
0
  3
isocp.shx
  0
STYLE
  2
KICADBI
  70
0
  40
0
  41
1
  42
1
  50
15
  71
0
  3
isocp.shx
  0
ENDTAB
  0
TABLE
  2
LAYER
  70
1
  0
LAYER
  2
BLACK
  70
0
  62
7
  6
CONTINUOUS
  0
ENDTAB
  0
ENDSEC
  0
SECTION
  2
ENTITIES
0
ARC
8
BLACK
10
8.6969999999999992
20
-4.29
40
0.05
50
90.00000000
51
180.00000000
0
ARC
8
BLACK
10
9.456999999999999
20
-5.4399999999999995
40
0.05
50
-90.00000000
51
-0.00000000
0
LINE
8
BLACK
6
CONTINUOUS
10
8.6470000000000002
20
-4.29
11
8.6470000000000002
21
-5.4399999999999995
0
LINE
8
BLACK
6
CONTINUOUS
10
9.5069999999999997
20
-5.4399999999999995
11
9.5069999999999997
21
-4.29
0
LINE
8
BLACK
6
CONTINUOUS
10
9.456999999999999
20
-4.2400000000000002
11
8.6969999999999992
21
-4.2400000000000002
0
ARC
8
BLACK
10
8.6969999999999992
20
-5.4399999999999995
40
0.05
50
-180.00000000
51
-90.00000000
0
LINE
8
BLACK
6
CONTINUOUS
10
8.6969999999999992
20
-5.4900000000000002
11
9.456999999999999
21
-5.4900000000000002
0
ARC
8
BLACK
10
9.456999999999999
20
-4.29
40
0.05
50
0.00000000
51
90.00000000
0
LINE
8
BLACK
6
CONTINUOUS
10
8.6920000000000002
20
-4.4249999999999998
11
8.7040000000000006
21
-4.4370000000000003
0
LINE
8
BLACK
6
CONTINUOUS
10
8.7040000000000006
20
-4.4249999999999998
11
8.6920000000000002
21
-4.4370000000000003
0
LINE
8
BLACK
6
CONTINUOUS
10
8.7669999999999995
20
-4.4249999999999998
11
8.7789999999999999
21
-4.4370000000000003
0
LINE
8
BLACK
6
CONTINUOUS
10
8.7789999999999999
20
-4.4249999999999998
11
8.7669999999999995
21
-4.4370000000000003
0
LINE
8
BLACK
6
CONTINUOUS
10
8.7759999999999998
20
-4.8839999999999995
11
8.7880000000000003
21
-4.8959999999999999
0
LINE
8
BLACK
6
CONTINUOUS
10
8.7880000000000003
20
-4.8839999999999995
11
8.7759999999999998
21
-4.8959999999999999
0
LINE
8
BLACK
6
CONTINUOUS
10
8.7789999999999999
20
-4.609
11
8.7910000000000004
21
-4.6209999999999996
0
LINE
8
BLACK
6
CONTINUOUS
10
8.7910000000000004
20
-4.609
11
8.7789999999999999
21
-4.6209999999999996
0
LINE
8
BLACK
6
CONTINUOUS
10
8.8189999999999991
20
-4.3769999999999998
11
8.8309999999999995
21
-4.3890000000000002
0
LINE
8
BLACK
6
CONTINUOUS
10
8.8309999999999995
20
-4.3769999999999998
11
8.8189999999999991
21
-4.3890000000000002
0
LINE
8
BLACK
6
CONTINUOUS
10
8.8740000000000006
20
-4.5270000000000001
11
8.8859999999999992
21
-4.5389999999999997
0
LINE
8
BLACK
6
CONTINUOUS
10
8.8859999999999992
20
-4.5270000000000001
11
8.8740000000000006
21
-4.5389999999999997
0
LINE
8
BLACK
6
CONTINUOUS
10
8.8979999999999997
20
-4.3200000000000003
11
8.9100000000000001
21
-4.3319999999999999
0
LINE
8
BLACK
6
CONTINUOUS
10
8.9100000000000001
20
-4.3200000000000003
11
8.8979999999999997
21
-4.3319999999999999
0
LINE
8
BLACK
6
CONTINUOUS
10
8.9049999999999994
20
-4.383
11
8.9169999999999998
21
-4.3949999999999996
0
LINE
8
BLACK
6
CONTINUOUS
10
8.9169999999999998
20
-4.383
11
8.9049999999999994
21
-4.3949999999999996
0
LINE
8
BLACK
6
CONTINUOUS
10
8.9109999999999996
20
-4.6040000000000001
11
8.923
21
-4.6159999999999997
0
LINE
8
BLACK
6
CONTINUOUS
10
8.923
20
-4.6040000000000001
11
8.9109999999999996
21
-4.6159999999999997
0
LINE
8
BLACK
6
CONTINUOUS
10
9.0242616535433076
20
-5.1154999999999999
11
9.0362616535433062
21
-5.1274999999999995
0
LINE
8
BLACK
6
CONTINUOUS
10
9.0362616535433062
20
-5.1154999999999999
11
9.0242616535433076
21
-5.1274999999999995
0
LINE
8
BLACK
6
CONTINUOUS
10
9.0749999999999993
20
-4.9870000000000001
11
9.0869999999999997
21
-4.9989999999999997
0
LINE
8
BLACK
6
CONTINUOUS
10
9.0869999999999997
20
-4.9870000000000001
11
9.0749999999999993
21
-4.9989999999999997
0
LINE
8
BLACK
6
CONTINUOUS
10
9.0990000000000002
20
-5.1150000000000002
11
9.1110000000000007
21
-5.1269999999999998
0
LINE
8
BLACK
6
CONTINUOUS
10
9.1110000000000007
20
-5.1150000000000002
11
9.0990000000000002
21
-5.1269999999999998
0
LINE
8
BLACK
6
CONTINUOUS
10
9.1009999999999991
20
-4.9539999999999997
11
9.1129999999999995
21
-4.9660000000000002
0
LINE
8
BLACK
6
CONTINUOUS
10
9.1129999999999995
20
-4.9539999999999997
11
9.1009999999999991
21
-4.9660000000000002
0
LINE
8
BLACK
6
CONTINUOUS
10
9.1080000000000005
20
-4.7589999999999995
11
9.1199999999999992
21
-4.7709999999999999
0
LINE
8
BLACK
6
CONTINUOUS
10
9.1199999999999992
20
-4.7589999999999995
11
9.1080000000000005
21
-4.7709999999999999
0
LINE
8
BLACK
6
CONTINUOUS
10
9.1280000000000001
20
-4.8010000000000002
11
9.1400000000000006
21
-4.8129999999999997
0
LINE
8
BLACK
6
CONTINUOUS
10
9.1400000000000006
20
-4.8010000000000002
11
9.1280000000000001
21
-4.8129999999999997
0
LINE
8
BLACK
6
CONTINUOUS
10
9.1449999999999996
20
-5.1710000000000003
11
9.157
21
-5.1829999999999998
0
LINE
8
BLACK
6
CONTINUOUS
10
9.157
20
-5.1710000000000003
11
9.1449999999999996
21
-5.1829999999999998
0
LINE
8
BLACK
6
CONTINUOUS
10
9.1854999999999993
20
-4.9254999999999995
11
9.1974999999999998
21
-4.9375
0
LINE
8
BLACK
6
CONTINUOUS
10
9.1974999999999998
20
-4.9254999999999995
11
9.1854999999999993
21
-4.9375
0
LINE
8
BLACK
6
CONTINUOUS
10
9.2059999999999995
20
-4.7889999999999997
11
9.218
21
-4.8010000000000002
0
LINE
8
BLACK
6
CONTINUOUS
10
9.218
20
-4.7889999999999997
11
9.2059999999999995
21
-4.8010000000000002
0
LINE
8
BLACK
6
CONTINUOUS
10
9.206999999999999
20
-5.1699999999999999
11
9.2189999999999994
21
-5.1819999999999995
0
LINE
8
BLACK
6
CONTINUOUS
10
9.2189999999999994
20
-5.1699999999999999
11
9.206999999999999
21
-5.1819999999999995
0
LINE
8
BLACK
6
CONTINUOUS
10
9.2159833070866135
20
-5.2419833070866142
11
9.227983307086614
21
-5.2539833070866138
0
LINE
8
BLACK
6
CONTINUOUS
10
9.227983307086614
20
-5.2419833070866142
11
9.2159833070866135
21
-5.2539833070866138
0
LINE
8
BLACK
6
CONTINUOUS
10
9.2379999999999995
20
-5.3860000000000001
11
9.25
21
-5.3979999999999997
0
LINE
8
BLACK
6
CONTINUOUS
10
9.25
20
-5.3860000000000001
11
9.2379999999999995
21
-5.3979999999999997
0
LINE
8
BLACK
6
CONTINUOUS
10
9.2424931889763773
20
-4.9694945669291339
11
9.2544931889763777
21
-4.9814945669291335
0
LINE
8
BLACK
6
CONTINUOUS
10
9.2544931889763777
20
-4.9694945669291339
11
9.2424931889763773
21
-4.9814945669291335
0
LINE
8
BLACK
6
CONTINUOUS
10
9.2720000000000002
20
-5.3869999999999996
11
9.2839999999999989
21
-5.399
0
LINE
8
BLACK
6
CONTINUOUS
10
9.2839999999999989
20
-5.3869999999999996
11
9.2720000000000002
21
-5.399
0
LINE
8
BLACK
6
CONTINUOUS
10
9.2949999999999999
20
-4.9315000393700785
11
9.3070000000000004
21
-4.943500039370079
0
LINE
8
BLACK
6
CONTINUOUS
10
9.3070000000000004
20
-4.9315000393700785
11
9.2949999999999999
21
-4.943500039370079
0
LINE
8
BLACK
6
CONTINUOUS
10
9.395999999999999
20
-5.3890000000000002
11
9.4079999999999995
21
-5.4009999999999998
0
LINE
8
BLACK
6
CONTINUOUS
10
9.4079999999999995
20
-5.3890000000000002
11
9.395999999999999
21
-5.4009999999999998
0
LINE
8
BLACK
6
CONTINUOUS
10
9.4018838188976375
20
-5.2226451968503937
11
9.4138838188976379
21
-5.2346451968503933
0
LINE
8
BLACK
6
CONTINUOUS
10
9.4138838188976379
20
-5.2226451968503937
11
9.4018838188976375
21
-5.2346451968503933
0
LINE
8
BLACK
6
CONTINUOUS
10
9.4540000000000006
20
-5.1749999999999998
11
9.4659999999999993
21
-5.1870000000000003
0
LINE
8
BLACK
6
CONTINUOUS
10
9.4659999999999993
20
-5.1749999999999998
11
9.4540000000000006
21
-5.1870000000000003
0
CIRCLE
8
BLACK
10
8.7170000000000005
20
-4.6150000000000002
40
0.0196850393700787
0
CIRCLE
8
BLACK
10
8.7170000000000005
20
-4.7149999999999999
40
0.0196850393700787
0
CIRCLE
8
BLACK
10
8.7170000000000005
20
-4.8149999999999995
40
0.0196850393700787
0
CIRCLE
8
BLACK
10
8.7170000000000005
20
-4.915
40
0.0196850393700787
0
CIRCLE
8
BLACK
10
8.7170000000000005
20
-5.0149999999999997
40
0.0196850393700787
0
CIRCLE
8
BLACK
10
8.7170000000000005
20
-5.1150000000000002
40
0.0196850393700787
0
LINE
8
BLACK
6
CONTINUOUS
10
8.7769999999999992
20
-5.3025000000000002
11
8.7769999999999992
21
-5.4275000000000002
0
LINE
8
BLACK
6
CONTINUOUS
10
8.7144999999999992
20
-5.3650000000000002
11
8.8394999999999992
21
-5.3650000000000002
0
LINE
8
BLACK
6
CONTINUOUS
10
9.077
20
-4.3025000000000002
11
9.077
21
-4.4275000000000002
0
LINE
8
BLACK
6
CONTINUOUS
10
9.0145
20
-4.3650000000000002
11
9.1395
21
-4.3650000000000002
0
LINE
8
BLACK
6
CONTINUOUS
10
9.077
20
-5.3025000000000002
11
9.077
21
-5.4275000000000002
0
LINE
8
BLACK
6
CONTINUOUS
10
9.0145
20
-5.3650000000000002
11
9.1395
21
-5.3650000000000002
0
LINE
8
BLACK
6
CONTINUOUS
10
9.3770000000000007
20
-4.3025000000000002
11
9.3770000000000007
21
-4.4275000000000002
0
LINE
8
BLACK
6
CONTINUOUS
10
9.3145000000000007
20
-4.3650000000000002
11
9.4395000000000007
21
-4.3650000000000002
0
LINE
8
BLACK
6
CONTINUOUS
10
9.4254225590551179
20
-4.4057615354330704
11
9.4357233464566921
21
-4.3886181889763778
0
ARC
8
BLACK
10
9.3821503937007869
20
-4.3564283464566929
40
0.0625
50
-31.00000000
51
149.00000000
0
LINE
8
BLACK
6
CONTINUOUS
10
9.3285774409448816
20
-4.3242384645669292
11
9.3182766535433075
21
-4.3413818110236218
0
ARC
8
BLACK
10
9.3718496062992127
20
-4.3735716535433067
40
0.0625
50
149.00000000
51
329.00000000
0
LINE
8
BLACK
6
CONTINUOUS
10
9.3850351574803152
20
-4.6572083858267712
11
9.3850351574803152
21
-4.5625553937007872
0
LINE
8
BLACK
6
CONTINUOUS
10
9.3850351574803152
20
-4.5625553937007872
11
9.2903821653543304
21
-4.5625553937007872
0
LINE
8
BLACK
6
CONTINUOUS
10
9.2903821653543304
20
-4.5625553937007872
11
9.2903821653543304
21
-4.6572083858267712
0
LINE
8
BLACK
6
CONTINUOUS
10
9.2903821653543304
20
-4.6572083858267712
11
9.3850351574803152
21
-4.6572083858267712
0
LINE
8
BLACK
6
CONTINUOUS
10
9.3850351574803152
20
-5.1674446062992123
11
9.3850351574803152
21
-5.0727916141732283
0
LINE
8
BLACK
6
CONTINUOUS
10
9.3850351574803152
20
-5.0727916141732283
11
9.2903821653543304
21
-5.0727916141732283
0
LINE
8
BLACK
6
CONTINUOUS
10
9.2903821653543304
20
-5.0727916141732283
11
9.2903821653543304
21
-5.1674446062992123
0
LINE
8
BLACK
6
CONTINUOUS
10
9.2903821653543304
20
-5.1674446062992123
11
9.3850351574803152
21
-5.1674446062992123
0
LINE
8
BLACK
6
CONTINUOUS
10
8.7486837795275587
20
-5.6136156692913382
11
8.7486837795275587
21
-5.5348755118110233
0
LINE
8
BLACK
6
CONTINUOUS
10
8.7486837795275587
20
-5.5348755118110233
11
8.7674314173228343
21
-5.5348755118110233
0
LINE
8
BLACK
6
CONTINUOUS
10
8.7674314173228343
20
-5.5348755118110233
11
8.7786800393700783
21
-5.5386250393700784
0
LINE
8
BLACK
6
CONTINUOUS
10
8.7786800393700783
20
-5.5386250393700784
11
8.7861790944881886
21
-5.5461240944881887
0
LINE
8
BLACK
6
CONTINUOUS
10
8.7861790944881886
20
-5.5461240944881887
11
8.7899286220472437
21
-5.5536231496062989
0
LINE
8
BLACK
6
CONTINUOUS
10
8.7899286220472437
20
-5.5536231496062989
11
8.7936781496062988
21
-5.5686212598425193
0
LINE
8
BLACK
6
CONTINUOUS
10
8.7936781496062988
20
-5.5686212598425193
11
8.7936781496062988
21
-5.5798698818897634
0
LINE
8
BLACK
6
CONTINUOUS
10
8.7936781496062988
20
-5.5798698818897634
11
8.7899286220472437
21
-5.5948679921259838
0
LINE
8
BLACK
6
CONTINUOUS
10
8.7899286220472437
20
-5.5948679921259838
11
8.7861790944881886
21
-5.6023670472440941
0
LINE
8
BLACK
6
CONTINUOUS
10
8.7861790944881886
20
-5.6023670472440941
11
8.7786800393700783
21
-5.609866141732283
0
LINE
8
BLACK
6
CONTINUOUS
10
8.7786800393700783
20
-5.609866141732283
11
8.7674314173228343
21
-5.6136156692913382
0
LINE
8
BLACK
6
CONTINUOUS
10
8.7674314173228343
20
-5.6136156692913382
11
8.7486837795275587
21
-5.6136156692913382
0
LINE
8
BLACK
6
CONTINUOUS
10
8.8274239370078735
20
-5.6136156692913382
11
8.8274239370078735
21
-5.5611222047244091
0
LINE
8
BLACK
6
CONTINUOUS
10
8.8274239370078735
20
-5.5761203543307083
11
8.8311734645669286
21
-5.5686212598425193
0
LINE
8
BLACK
6
CONTINUOUS
10
8.8311734645669286
20
-5.5686212598425193
11
8.8349229921259838
21
-5.5648717322834642
0
LINE
8
BLACK
6
CONTINUOUS
10
8.8349229921259838
20
-5.5648717322834642
11
8.842422047244094
21
-5.5611222047244091
0
LINE
8
BLACK
6
CONTINUOUS
10
8.842422047244094
20
-5.5611222047244091
11
8.8499211417322829
21
-5.5611222047244091
0
LINE
8
BLACK
6
CONTINUOUS
10
8.8761678346456687
20
-5.6136156692913382
11
8.8761678346456687
21
-5.5611222047244091
0
LINE
8
BLACK
6
CONTINUOUS
10
8.8761678346456687
20
-5.5348755118110233
11
8.8724183070866136
21
-5.5386250393700784
0
LINE
8
BLACK
6
CONTINUOUS
10
8.8724183070866136
20
-5.5386250393700784
11
8.8761678346456687
21
-5.5423745669291336
0
LINE
8
BLACK
6
CONTINUOUS
10
8.8761678346456687
20
-5.5423745669291336
11
8.8799173622047238
21
-5.5386250393700784
0
LINE
8
BLACK
6
CONTINUOUS
10
8.8799173622047238
20
-5.5386250393700784
11
8.8761678346456687
21
-5.5348755118110233
0
LINE
8
BLACK
6
CONTINUOUS
10
8.8761678346456687
20
-5.5348755118110233
11
8.8761678346456687
21
-5.5423745669291336
0
LINE
8
BLACK
6
CONTINUOUS
10
8.9249117322834639
20
-5.6136156692913382
11
8.9174126771653537
21
-5.609866141732283
0
LINE
8
BLACK
6
CONTINUOUS
10
8.9174126771653537
20
-5.609866141732283
11
8.9136631496062986
21
-5.6023670472440941
0
LINE
8
BLACK
6
CONTINUOUS
10
8.9136631496062986
20
-5.6023670472440941
11
8.9136631496062986
21
-5.5348755118110233
0
LINE
8
BLACK
6
CONTINUOUS
10
8.9661565748031489
20
-5.6136156692913382
11
8.9586575196850387
21
-5.609866141732283
0
LINE
8
BLACK
6
CONTINUOUS
10
8.9586575196850387
20
-5.609866141732283
11
8.9549079921259835
21
-5.6023670472440941
0
LINE
8
BLACK
6
CONTINUOUS
10
8.9549079921259835
20
-5.6023670472440941
11
8.9549079921259835
21
-5.5348755118110233
0
LINE
8
BLACK
6
CONTINUOUS
10
9.0561453543307078
20
-5.6136156692913382
11
9.0561453543307078
21
-5.5348755118110233
0
LINE
8
BLACK
6
CONTINUOUS
10
9.0561453543307078
20
-5.5348755118110233
11
9.0823920866141723
21
-5.5911184645669287
0
LINE
8
BLACK
6
CONTINUOUS
10
9.0823920866141723
20
-5.5911184645669287
11
9.1086387795275581
21
-5.5348755118110233
0
LINE
8
BLACK
6
CONTINUOUS
10
9.1086387795275581
20
-5.5348755118110233
11
9.1086387795275581
21
-5.6136156692913382
0
LINE
8
BLACK
6
CONTINUOUS
10
9.1798798818897644
20
-5.6136156692913382
11
9.1798798818897644
21
-5.5723708267716532
0
LINE
8
BLACK
6
CONTINUOUS
10
9.1798798818897644
20
-5.5723708267716532
11
9.1761303543307093
21
-5.5648717322834642
0
LINE
8
BLACK
6
CONTINUOUS
10
9.1761303543307093
20
-5.5648717322834642
11
9.1686312992125973
21
-5.5611222047244091
0
LINE
8
BLACK
6
CONTINUOUS
10
9.1686312992125973
20
-5.5611222047244091
11
9.1536331496062981
21
-5.5611222047244091
0
LINE
8
BLACK
6
CONTINUOUS
10
9.1536331496062981
20
-5.5611222047244091
11
9.1461340944881879
21
-5.5648717322834642
0
LINE
8
BLACK
6
CONTINUOUS
10
9.1798798818897644
20
-5.609866141732283
11
9.1723808267716525
21
-5.6136156692913382
0
LINE
8
BLACK
6
CONTINUOUS
10
9.1723808267716525
20
-5.6136156692913382
11
9.1536331496062981
21
-5.6136156692913382
0
LINE
8
BLACK
6
CONTINUOUS
10
9.1536331496062981
20
-5.6136156692913382
11
9.1461340944881879
21
-5.609866141732283
0
LINE
8
BLACK
6
CONTINUOUS
10
9.1461340944881879
20
-5.609866141732283
11
9.1423845669291328
21
-5.6023670472440941
0
LINE
8
BLACK
6
CONTINUOUS
10
9.1423845669291328
20
-5.6023670472440941
11
9.1423845669291328
21
-5.5948679921259838
0
LINE
8
BLACK
6
CONTINUOUS
10
9.1423845669291328
20
-5.5948679921259838
11
9.1461340944881879
21
-5.5873689370078736
0
LINE
8
BLACK
6
CONTINUOUS
10
9.1461340944881879
20
-5.5873689370078736
11
9.1536331496062981
21
-5.5836194094488185
0
LINE
8
BLACK
6
CONTINUOUS
10
9.1536331496062981
20
-5.5836194094488185
11
9.1723808267716525
21
-5.5836194094488185
0
LINE
8
BLACK
6
CONTINUOUS
10
9.1723808267716525
20
-5.5836194094488185
11
9.1798798818897644
21
-5.5798698818897634
0
LINE
8
BLACK
6
CONTINUOUS
10
9.2173751968503943
20
-5.5611222047244091
11
9.2173751968503943
21
-5.6398623622047239
0
LINE
8
BLACK
6
CONTINUOUS
10
9.2173751968503943
20
-5.5648717322834642
11
9.2248742519685045
21
-5.5611222047244091
0
LINE
8
BLACK
6
CONTINUOUS
10
9.2248742519685045
20
-5.5611222047244091
11
9.2398724015748037
21
-5.5611222047244091
0
LINE
8
BLACK
6
CONTINUOUS
10
9.2398724015748037
20
-5.5611222047244091
11
9.2473714566929139
21
-5.5648717322834642
0
LINE
8
BLACK
6
CONTINUOUS
10
9.2473714566929139
20
-5.5648717322834642
11
9.251120984251969
21
-5.5686212598425193
0
LINE
8
BLACK
6
CONTINUOUS
10
9.251120984251969
20
-5.5686212598425193
11
9.2548705118110242
21
-5.5761203543307083
0
LINE
8
BLACK
6
CONTINUOUS
10
9.2548705118110242
20
-5.5761203543307083
11
9.2548705118110242
21
-5.598617519685039
0
LINE
8
BLACK
6
CONTINUOUS
10
9.2548705118110242
20
-5.598617519685039
11
9.251120984251969
21
-5.6061165748031492
0
LINE
8
BLACK
6
CONTINUOUS
10
9.251120984251969
20
-5.6061165748031492
11
9.2473714566929139
21
-5.609866141732283
0
LINE
8
BLACK
6
CONTINUOUS
10
9.2473714566929139
20
-5.609866141732283
11
9.2398724015748037
21
-5.6136156692913382
0
LINE
8
BLACK
6
CONTINUOUS
10
9.2398724015748037
20
-5.6136156692913382
11
9.2248742519685045
21
-5.6136156692913382
0
LINE
8
BLACK
6
CONTINUOUS
10
9.2248742519685045
20
-5.6136156692913382
11
9.2173751968503943
21
-5.609866141732283
0
LINE
8
BLACK
6
CONTINUOUS
10
9.2886162992125989
20
-5.6061165748031492
11
9.292365826771654
21
-5.609866141732283
0
LINE
8
BLACK
6
CONTINUOUS
10
9.292365826771654
20
-5.609866141732283
11
9.2886162992125989
21
-5.6136156692913382
0
LINE
8
BLACK
6
CONTINUOUS
10
9.2886162992125989
20
-5.6136156692913382
11
9.2848667716535438
21
-5.609866141732283
0
LINE
8
BLACK
6
CONTINUOUS
10
9.2848667716535438
20
-5.609866141732283
11
9.2886162992125989
21
-5.6061165748031492
0
LINE
8
BLACK
6
CONTINUOUS
10
9.2886162992125989
20
-5.6061165748031492
11
9.2886162992125989
21
-5.6136156692913382
0
LINE
8
BLACK
6
CONTINUOUS
10
9.2886162992125989
20
-5.5648717322834642
11
9.292365826771654
21
-5.5686212598425193
0
LINE
8
BLACK
6
CONTINUOUS
10
9.292365826771654
20
-5.5686212598425193
11
9.2886162992125989
21
-5.5723708267716532
0
LINE
8
BLACK
6
CONTINUOUS
10
9.2886162992125989
20
-5.5723708267716532
11
9.2848667716535438
21
-5.5686212598425193
0
LINE
8
BLACK
6
CONTINUOUS
10
9.2848667716535438
20
-5.5686212598425193
11
9.2886162992125989
21
-5.5648717322834642
0
LINE
8
BLACK
6
CONTINUOUS
10
9.2886162992125989
20
-5.5648717322834642
11
9.2886162992125989
21
-5.5723708267716532
0
LINE
8
BLACK
6
CONTINUOUS
10
8.6340157480314961
20
-5.736952755905512
11
8.6460157480314965
21
-5.7489527559055116
0
LINE
8
BLACK
6
CONTINUOUS
10
8.6460157480314965
20
-5.736952755905512
11
8.6340157480314961
21
-5.7489527559055116
0
LINE
8
BLACK
6
CONTINUOUS
10
8.7636818897637792
20
-5.7002298425196853
11
8.7711809842519681
21
-5.7002298425196853
0
LINE
8
BLACK
6
CONTINUOUS
10
8.7711809842519681
20
-5.7002298425196853
11
8.7786800393700783
21
-5.7039793700787405
0
LINE
8
BLACK
6
CONTINUOUS
10
8.7786800393700783
20
-5.7039793700787405
11
8.7824295669291335
21
-5.7077288976377956
0
LINE
8
BLACK
6
CONTINUOUS
10
8.7824295669291335
20
-5.7077288976377956
11
8.7861790944881886
21
-5.7152279527559058
0
LINE
8
BLACK
6
CONTINUOUS
10
8.7861790944881886
20
-5.7152279527559058
11
8.7899286220472437
21
-5.7302260629921262
0
LINE
8
BLACK
6
CONTINUOUS
10
8.7899286220472437
20
-5.7302260629921262
11
8.7899286220472437
21
-5.7489737401574805
0
LINE
8
BLACK
6
CONTINUOUS
10
8.7899286220472437
20
-5.7489737401574805
11
8.7861790944881886
21
-5.763971850393701
0
LINE
8
BLACK
6
CONTINUOUS
10
8.7861790944881886
20
-5.763971850393701
11
8.7824295669291335
21
-5.7714709055118112
0
LINE
8
BLACK
6
CONTINUOUS
10
8.7824295669291335
20
-5.7714709055118112
11
8.7786800393700783
21
-5.7752204724409451
0
LINE
8
BLACK
6
CONTINUOUS
10
8.7786800393700783
20
-5.7752204724409451
11
8.7711809842519681
21
-5.7789700000000002
0
LINE
8
BLACK
6
CONTINUOUS
10
8.7711809842519681
20
-5.7789700000000002
11
8.7636818897637792
21
-5.7789700000000002
0
LINE
8
BLACK
6
CONTINUOUS
10
8.7636818897637792
20
-5.7789700000000002
11
8.7561828346456689
21
-5.7752204724409451
0
LINE
8
BLACK
6
CONTINUOUS
10
8.7561828346456689
20
-5.7752204724409451
11
8.7524333070866138
21
-5.7714709055118112
0
LINE
8
BLACK
6
CONTINUOUS
10
8.7524333070866138
20
-5.7714709055118112
11
8.7486837795275587
21
-5.763971850393701
0
LINE
8
BLACK
6
CONTINUOUS
10
8.7486837795275587
20
-5.763971850393701
11
8.7449342519685036
21
-5.7489737401574805
0
LINE
8
BLACK
6
CONTINUOUS
10
8.7449342519685036
20
-5.7489737401574805
11
8.7449342519685036
21
-5.7302260629921262
0
LINE
8
BLACK
6
CONTINUOUS
10
8.7449342519685036
20
-5.7302260629921262
11
8.7486837795275587
21
-5.7152279527559058
0
LINE
8
BLACK
6
CONTINUOUS
10
8.7486837795275587
20
-5.7152279527559058
11
8.7524333070866138
21
-5.7077288976377956
0
LINE
8
BLACK
6
CONTINUOUS
10
8.7524333070866138
20
-5.7077288976377956
11
8.7561828346456689
21
-5.7039793700787405
0
LINE
8
BLACK
6
CONTINUOUS
10
8.7561828346456689
20
-5.7039793700787405
11
8.7636818897637792
21
-5.7002298425196853
0
LINE
8
BLACK
6
CONTINUOUS
10
8.8236744094488184
20
-5.7714709055118112
11
8.8274239370078735
21
-5.7752204724409451
0
LINE
8
BLACK
6
CONTINUOUS
10
8.8274239370078735
20
-5.7752204724409451
11
8.8236744094488184
21
-5.7789700000000002
0
LINE
8
BLACK
6
CONTINUOUS
10
8.8236744094488184
20
-5.7789700000000002
11
8.8199248818897633
21
-5.7752204724409451
0
LINE
8
BLACK
6
CONTINUOUS
10
8.8199248818897633
20
-5.7752204724409451
11
8.8236744094488184
21
-5.7714709055118112
0
LINE
8
BLACK
6
CONTINUOUS
10
8.8236744094488184
20
-5.7714709055118112
11
8.8236744094488184
21
-5.7789700000000002
0
LINE
8
BLACK
6
CONTINUOUS
10
8.8536706692913381
20
-5.7002298425196853
11
8.9024145669291332
21
-5.7002298425196853
0
LINE
8
BLACK
6
CONTINUOUS
10
8.9024145669291332
20
-5.7002298425196853
11
8.8761678346456687
21
-5.7302260629921262
0
LINE
8
BLACK
6
CONTINUOUS
10
8.8761678346456687
20
-5.7302260629921262
11
8.8874164566929128
21
-5.7302260629921262
0
LINE
8
BLACK
6
CONTINUOUS
10
8.8874164566929128
20
-5.7302260629921262
11
8.894915511811023
21
-5.7339755905511813
0
LINE
8
BLACK
6
CONTINUOUS
10
8.894915511811023
20
-5.7339755905511813
11
8.8986650393700781
21
-5.7377251574803152
0
LINE
8
BLACK
6
CONTINUOUS
10
8.8986650393700781
20
-5.7377251574803152
11
8.9024145669291332
21
-5.7452242125984254
0
LINE
8
BLACK
6
CONTINUOUS
10
8.9024145669291332
20
-5.7452242125984254
11
8.9024145669291332
21
-5.763971850393701
0
LINE
8
BLACK
6
CONTINUOUS
10
8.9024145669291332
20
-5.763971850393701
11
8.8986650393700781
21
-5.7714709055118112
0
LINE
8
BLACK
6
CONTINUOUS
10
8.8986650393700781
20
-5.7714709055118112
11
8.894915511811023
21
-5.7752204724409451
0
LINE
8
BLACK
6
CONTINUOUS
10
8.894915511811023
20
-5.7752204724409451
11
8.8874164566929128
21
-5.7789700000000002
0
LINE
8
BLACK
6
CONTINUOUS
10
8.8874164566929128
20
-5.7789700000000002
11
8.8649192519685034
21
-5.7789700000000002
0
LINE
8
BLACK
6
CONTINUOUS
10
8.8649192519685034
20
-5.7789700000000002
11
8.8574201968503932
21
-5.7752204724409451
0
LINE
8
BLACK
6
CONTINUOUS
10
8.8574201968503932
20
-5.7752204724409451
11
8.8536706692913381
21
-5.7714709055118112
0
LINE
8
BLACK
6
CONTINUOUS
10
8.9511584645669284
20
-5.7002298425196853
11
8.9586575590551174
21
-5.7002298425196853
0
LINE
8
BLACK
6
CONTINUOUS
10
8.9586575590551174
20
-5.7002298425196853
11
8.9661566141732276
21
-5.7039793700787405
0
LINE
8
BLACK
6
CONTINUOUS
10
8.9661566141732276
20
-5.7039793700787405
11
8.9699061417322827
21
-5.7077288976377956
0
LINE
8
BLACK
6
CONTINUOUS
10
8.9699061417322827
20
-5.7077288976377956
11
8.9736556692913378
21
-5.7152279527559058
0
LINE
8
BLACK
6
CONTINUOUS
10
8.9736556692913378
20
-5.7152279527559058
11
8.977405196850393
21
-5.7302260629921262
0
LINE
8
BLACK
6
CONTINUOUS
10
8.977405196850393
20
-5.7302260629921262
11
8.977405196850393
21
-5.7489737401574805
0
LINE
8
BLACK
6
CONTINUOUS
10
8.977405196850393
20
-5.7489737401574805
11
8.9736556692913378
21
-5.763971850393701
0
LINE
8
BLACK
6
CONTINUOUS
10
8.9736556692913378
20
-5.763971850393701
11
8.9699061417322827
21
-5.7714709055118112
0
LINE
8
BLACK
6
CONTINUOUS
10
8.9699061417322827
20
-5.7714709055118112
11
8.9661566141732276
21
-5.7752204724409451
0
LINE
8
BLACK
6
CONTINUOUS
10
8.9661566141732276
20
-5.7752204724409451
11
8.9586575590551174
21
-5.7789700000000002
0
LINE
8
BLACK
6
CONTINUOUS
10
8.9586575590551174
20
-5.7789700000000002
11
8.9511584645669284
21
-5.7789700000000002
0
LINE
8
BLACK
6
CONTINUOUS
10
8.9511584645669284
20
-5.7789700000000002
11
8.9436594094488182
21
-5.7752204724409451
0
LINE
8
BLACK
6
CONTINUOUS
10
8.9436594094488182
20
-5.7752204724409451
11
8.9399098818897631
21
-5.7714709055118112
0
LINE
8
BLACK
6
CONTINUOUS
10
8.9399098818897631
20
-5.7714709055118112
11
8.936160354330708
21
-5.763971850393701
0
LINE
8
BLACK
6
CONTINUOUS
10
8.936160354330708
20
-5.763971850393701
11
8.9324108267716529
21
-5.7489737401574805
0
LINE
8
BLACK
6
CONTINUOUS
10
8.9324108267716529
20
-5.7489737401574805
11
8.9324108267716529
21
-5.7302260629921262
0
LINE
8
BLACK
6
CONTINUOUS
10
8.9324108267716529
20
-5.7302260629921262
11
8.936160354330708
21
-5.7152279527559058
0
LINE
8
BLACK
6
CONTINUOUS
10
8.936160354330708
20
-5.7152279527559058
11
8.9399098818897631
21
-5.7077288976377956
0
LINE
8
BLACK
6
CONTINUOUS
10
8.9399098818897631
20
-5.7077288976377956
11
8.9436594094488182
21
-5.7039793700787405
0
LINE
8
BLACK
6
CONTINUOUS
10
8.9436594094488182
20
-5.7039793700787405
11
8.9511584645669284
21
-5.7002298425196853
0
LINE
8
BLACK
6
CONTINUOUS
10
9.0486462992125976
20
-5.7002298425196853
11
9.0111509842519677
21
-5.7002298425196853
0
LINE
8
BLACK
6
CONTINUOUS
10
9.0111509842519677
20
-5.7002298425196853
11
9.0074014566929126
21
-5.7377251574803152
0
LINE
8
BLACK
6
CONTINUOUS
10
9.0074014566929126
20
-5.7377251574803152
11
9.0111509842519677
21
-5.7339755905511813
0
LINE
8
BLACK
6
CONTINUOUS
10
9.0111509842519677
20
-5.7339755905511813
11
9.0186500393700779
21
-5.7302260629921262
0
LINE
8
BLACK
6
CONTINUOUS
10
9.0186500393700779
20
-5.7302260629921262
11
9.0373977165354322
21
-5.7302260629921262
0
LINE
8
BLACK
6
CONTINUOUS
10
9.0373977165354322
20
-5.7302260629921262
11
9.0448967716535424
21
-5.7339755905511813
0
LINE
8
BLACK
6
CONTINUOUS
10
9.0448967716535424
20
-5.7339755905511813
11
9.0486462992125976
21
-5.7377251574803152
0
LINE
8
BLACK
6
CONTINUOUS
10
9.0486462992125976
20
-5.7377251574803152
11
9.0523958267716527
21
-5.7452242125984254
0
LINE
8
BLACK
6
CONTINUOUS
10
9.0523958267716527
20
-5.7452242125984254
11
9.0523958267716527
21
-5.763971850393701
0
LINE
8
BLACK
6
CONTINUOUS
10
9.0523958267716527
20
-5.763971850393701
11
9.0486462992125976
21
-5.7714709055118112
0
LINE
8
BLACK
6
CONTINUOUS
10
9.0486462992125976
20
-5.7714709055118112
11
9.0448967716535424
21
-5.7752204724409451
0
LINE
8
BLACK
6
CONTINUOUS
10
9.0448967716535424
20
-5.7752204724409451
11
9.0373977165354322
21
-5.7789700000000002
0
LINE
8
BLACK
6
CONTINUOUS
10
9.0373977165354322
20
-5.7789700000000002
11
9.0186500393700779
21
-5.7789700000000002
0
LINE
8
BLACK
6
CONTINUOUS
10
9.0186500393700779
20
-5.7789700000000002
11
9.0111509842519677
21
-5.7752204724409451
0
LINE
8
BLACK
6
CONTINUOUS
10
9.0111509842519677
20
-5.7752204724409451
11
9.0074014566929126
21
-5.7714709055118112
0
LINE
8
BLACK
6
CONTINUOUS
10
9.0861416141732274
20
-5.7789700000000002
11
9.0861416141732274
21
-5.7264765354330711
0
LINE
8
BLACK
6
CONTINUOUS
10
9.0861416141732274
20
-5.7339755905511813
11
9.0898911417322825
21
-5.7302260629921262
0
LINE
8
BLACK
6
CONTINUOUS
10
9.0898911417322825
20
-5.7302260629921262
11
9.0973901968503927
21
-5.7264765354330711
0
LINE
8
BLACK
6
CONTINUOUS
10
9.0973901968503927
20
-5.7264765354330711
11
9.1086388188976368
21
-5.7264765354330711
0
LINE
8
BLACK
6
CONTINUOUS
10
9.1086388188976368
20
-5.7264765354330711
11
9.116137874015747
21
-5.7302260629921262
0
LINE
8
BLACK
6
CONTINUOUS
10
9.116137874015747
20
-5.7302260629921262
11
9.1198874015748022
21
-5.7377251574803152
0
LINE
8
BLACK
6
CONTINUOUS
10
9.1198874015748022
20
-5.7377251574803152
11
9.1198874015748022
21
-5.7789700000000002
0
LINE
8
BLACK
6
CONTINUOUS
10
9.1198874015748022
20
-5.7377251574803152
11
9.1236369291338573
21
-5.7302260629921262
0
LINE
8
BLACK
6
CONTINUOUS
10
9.1236369291338573
20
-5.7302260629921262
11
9.1311359842519675
21
-5.7264765354330711
0
LINE
8
BLACK
6
CONTINUOUS
10
9.1311359842519675
20
-5.7264765354330711
11
9.1423845669291328
21
-5.7264765354330711
0
LINE
8
BLACK
6
CONTINUOUS
10
9.1423845669291328
20
-5.7264765354330711
11
9.1498836614173218
21
-5.7302260629921262
0
LINE
8
BLACK
6
CONTINUOUS
10
9.1498836614173218
20
-5.7302260629921262
11
9.1536331889763769
21
-5.7377251574803152
0
LINE
8
BLACK
6
CONTINUOUS
10
9.1536331889763769
20
-5.7377251574803152
11
9.1536331889763769
21
-5.7789700000000002
0
LINE
8
BLACK
6
CONTINUOUS
10
9.1911285039370085
20
-5.7789700000000002
11
9.1911285039370085
21
-5.7264765354330711
0
LINE
8
BLACK
6
CONTINUOUS
10
9.1911285039370085
20
-5.7339755905511813
11
9.1948780314960636
21
-5.7302260629921262
0
LINE
8
BLACK
6
CONTINUOUS
10
9.1948780314960636
20
-5.7302260629921262
11
9.2023770866141739
21
-5.7264765354330711
0
LINE
8
BLACK
6
CONTINUOUS
10
9.2023770866141739
20
-5.7264765354330711
11
9.2136257086614179
21
-5.7264765354330711
0
LINE
8
BLACK
6
CONTINUOUS
10
9.2136257086614179
20
-5.7264765354330711
11
9.2211247637795282
21
-5.7302260629921262
0
LINE
8
BLACK
6
CONTINUOUS
10
9.2211247637795282
20
-5.7302260629921262
11
9.2248742913385833
21
-5.7377251574803152
0
LINE
8
BLACK
6
CONTINUOUS
10
9.2248742913385833
20
-5.7377251574803152
11
9.2248742913385833
21
-5.7789700000000002
0
LINE
8
BLACK
6
CONTINUOUS
10
9.2248742913385833
20
-5.7377251574803152
11
9.2286238188976384
21
-5.7302260629921262
0
LINE
8
BLACK
6
CONTINUOUS
10
9.2286238188976384
20
-5.7302260629921262
11
9.2361228740157486
21
-5.7264765354330711
0
LINE
8
BLACK
6
CONTINUOUS
10
9.2361228740157486
20
-5.7264765354330711
11
9.2473714566929139
21
-5.7264765354330711
0
LINE
8
BLACK
6
CONTINUOUS
10
9.2473714566929139
20
-5.7264765354330711
11
9.2548705511811029
21
-5.7302260629921262
0
LINE
8
BLACK
6
CONTINUOUS
10
9.2548705511811029
20
-5.7302260629921262
11
9.258620078740158
21
-5.7377251574803152
0
LINE
8
BLACK
6
CONTINUOUS
10
9.258620078740158
20
-5.7377251574803152
11
9.258620078740158
21
-5.7789700000000002
0
LINE
8
BLACK
6
CONTINUOUS
10
9.4123508661417326
20
-5.6964803149606302
11
9.3448593307086618
21
-5.7977176377952757
0
LINE
8
BLACK
6
CONTINUOUS
10
9.5135882283464568
20
-5.7002298425196853
11
9.5210873228346458
21
-5.7002298425196853
0
LINE
8
BLACK
6
CONTINUOUS
10
9.5210873228346458
20
-5.7002298425196853
11
9.528586377952756
21
-5.7039793700787405
0
LINE
8
BLACK
6
CONTINUOUS
10
9.528586377952756
20
-5.7039793700787405
11
9.5323359055118111
21
-5.7077288976377956
0
LINE
8
BLACK
6
CONTINUOUS
10
9.5323359055118111
20
-5.7077288976377956
11
9.5360854330708662
21
-5.7152279527559058
0
LINE
8
BLACK
6
CONTINUOUS
10
9.5360854330708662
20
-5.7152279527559058
11
9.5398349606299213
21
-5.7302260629921262
0
LINE
8
BLACK
6
CONTINUOUS
10
9.5398349606299213
20
-5.7302260629921262
11
9.5398349606299213
21
-5.7489737401574805
0
LINE
8
BLACK
6
CONTINUOUS
10
9.5398349606299213
20
-5.7489737401574805
11
9.5360854330708662
21
-5.763971850393701
0
LINE
8
BLACK
6
CONTINUOUS
10
9.5360854330708662
20
-5.763971850393701
11
9.5323359055118111
21
-5.7714709055118112
0
LINE
8
BLACK
6
CONTINUOUS
10
9.5323359055118111
20
-5.7714709055118112
11
9.528586377952756
21
-5.7752204724409451
0
LINE
8
BLACK
6
CONTINUOUS
10
9.528586377952756
20
-5.7752204724409451
11
9.5210873228346458
21
-5.7789700000000002
0
LINE
8
BLACK
6
CONTINUOUS
10
9.5210873228346458
20
-5.7789700000000002
11
9.5135882283464568
21
-5.7789700000000002
0
LINE
8
BLACK
6
CONTINUOUS
10
9.5135882283464568
20
-5.7789700000000002
11
9.5060891732283466
21
-5.7752204724409451
0
LINE
8
BLACK
6
CONTINUOUS
10
9.5060891732283466
20
-5.7752204724409451
11
9.5023396456692915
21
-5.7714709055118112
0
LINE
8
BLACK
6
CONTINUOUS
10
9.5023396456692915
20
-5.7714709055118112
11
9.4985901181102363
21
-5.763971850393701
0
LINE
8
BLACK
6
CONTINUOUS
10
9.4985901181102363
20
-5.763971850393701
11
9.4948405905511812
21
-5.7489737401574805
0
LINE
8
BLACK
6
CONTINUOUS
10
9.4948405905511812
20
-5.7489737401574805
11
9.4948405905511812
21
-5.7302260629921262
0
LINE
8
BLACK
6
CONTINUOUS
10
9.4948405905511812
20
-5.7302260629921262
11
9.4985901181102363
21
-5.7152279527559058
0
LINE
8
BLACK
6
CONTINUOUS
10
9.4985901181102363
20
-5.7152279527559058
11
9.5023396456692915
21
-5.7077288976377956
0
LINE
8
BLACK
6
CONTINUOUS
10
9.5023396456692915
20
-5.7077288976377956
11
9.5060891732283466
21
-5.7039793700787405
0
LINE
8
BLACK
6
CONTINUOUS
10
9.5060891732283466
20
-5.7039793700787405
11
9.5135882283464568
21
-5.7002298425196853
0
LINE
8
BLACK
6
CONTINUOUS
10
9.5735807480314961
20
-5.7714709055118112
11
9.5773302755905512
21
-5.7752204724409451
0
LINE
8
BLACK
6
CONTINUOUS
10
9.5773302755905512
20
-5.7752204724409451
11
9.5735807480314961
21
-5.7789700000000002
0
LINE
8
BLACK
6
CONTINUOUS
10
9.5735807480314961
20
-5.7789700000000002
11
9.5698312204724409
21
-5.7752204724409451
0
LINE
8
BLACK
6
CONTINUOUS
10
9.5698312204724409
20
-5.7752204724409451
11
9.5735807480314961
21
-5.7714709055118112
0
LINE
8
BLACK
6
CONTINUOUS
10
9.5735807480314961
20
-5.7714709055118112
11
9.5735807480314961
21
-5.7789700000000002
0
LINE
8
BLACK
6
CONTINUOUS
10
9.6260741732283464
20
-5.7002298425196853
11
9.6335732677165353
21
-5.7002298425196853
0
LINE
8
BLACK
6
CONTINUOUS
10
9.6335732677165353
20
-5.7002298425196853
11
9.6410723228346455
21
-5.7039793700787405
0
LINE
8
BLACK
6
CONTINUOUS
10
9.6410723228346455
20
-5.7039793700787405
11
9.6448218503937007
21
-5.7077288976377956
0
LINE
8
BLACK
6
CONTINUOUS
10
9.6448218503937007
20
-5.7077288976377956
11
9.6485713779527558
21
-5.7152279527559058
0
LINE
8
BLACK
6
CONTINUOUS
10
9.6485713779527558
20
-5.7152279527559058
11
9.6523209055118109
21
-5.7302260629921262
0
LINE
8
BLACK
6
CONTINUOUS
10
9.6523209055118109
20
-5.7302260629921262
11
9.6523209055118109
21
-5.7489737401574805
0
LINE
8
BLACK
6
CONTINUOUS
10
9.6523209055118109
20
-5.7489737401574805
11
9.6485713779527558
21
-5.763971850393701
0
LINE
8
BLACK
6
CONTINUOUS
10
9.6485713779527558
20
-5.763971850393701
11
9.6448218503937007
21
-5.7714709055118112
0
LINE
8
BLACK
6
CONTINUOUS
10
9.6448218503937007
20
-5.7714709055118112
11
9.6410723228346455
21
-5.7752204724409451
0
LINE
8
BLACK
6
CONTINUOUS
10
9.6410723228346455
20
-5.7752204724409451
11
9.6335732677165353
21
-5.7789700000000002
0
LINE
8
BLACK
6
CONTINUOUS
10
9.6335732677165353
20
-5.7789700000000002
11
9.6260741732283464
21
-5.7789700000000002
0
LINE
8
BLACK
6
CONTINUOUS
10
9.6260741732283464
20
-5.7789700000000002
11
9.6185751181102361
21
-5.7752204724409451
0
LINE
8
BLACK
6
CONTINUOUS
10
9.6185751181102361
20
-5.7752204724409451
11
9.614825590551181
21
-5.7714709055118112
0
LINE
8
BLACK
6
CONTINUOUS
10
9.614825590551181
20
-5.7714709055118112
11
9.6110760629921259
21
-5.763971850393701
0
LINE
8
BLACK
6
CONTINUOUS
10
9.6110760629921259
20
-5.763971850393701
11
9.6073265354330708
21
-5.7489737401574805
0
LINE
8
BLACK
6
CONTINUOUS
10
9.6073265354330708
20
-5.7489737401574805
11
9.6073265354330708
21
-5.7302260629921262
0
LINE
8
BLACK
6
CONTINUOUS
10
9.6073265354330708
20
-5.7302260629921262
11
9.6110760629921259
21
-5.7152279527559058
0
LINE
8
BLACK
6
CONTINUOUS
10
9.6110760629921259
20
-5.7152279527559058
11
9.614825590551181
21
-5.7077288976377956
0
LINE
8
BLACK
6
CONTINUOUS
10
9.614825590551181
20
-5.7077288976377956
11
9.6185751181102361
21
-5.7039793700787405
0
LINE
8
BLACK
6
CONTINUOUS
10
9.6185751181102361
20
-5.7039793700787405
11
9.6260741732283464
21
-5.7002298425196853
0
LINE
8
BLACK
6
CONTINUOUS
10
9.7273115354330706
20
-5.7789700000000002
11
9.6823171653543305
21
-5.7789700000000002
0
LINE
8
BLACK
6
CONTINUOUS
10
9.7048143307086612
20
-5.7789700000000002
11
9.7048143307086612
21
-5.7002298425196853
0
LINE
8
BLACK
6
CONTINUOUS
10
9.7048143307086612
20
-5.7002298425196853
11
9.697315275590551
21
-5.7114784251968507
0
LINE
8
BLACK
6
CONTINUOUS
10
9.697315275590551
20
-5.7114784251968507
11
9.6898162204724407
21
-5.7189774803149609
0
LINE
8
BLACK
6
CONTINUOUS
10
9.6898162204724407
20
-5.7189774803149609
11
9.6823171653543305
21
-5.722727007874016
0
LINE
8
BLACK
6
CONTINUOUS
10
9.7573077952755902
20
-5.7077288976377956
11
9.7610573228346453
21
-5.7039793700787405
0
LINE
8
BLACK
6
CONTINUOUS
10
9.7610573228346453
20
-5.7039793700787405
11
9.7685563779527556
21
-5.7002298425196853
0
LINE
8
BLACK
6
CONTINUOUS
10
9.7685563779527556
20
-5.7002298425196853
11
9.7873040551181099
21
-5.7002298425196853
0
LINE
8
BLACK
6
CONTINUOUS
10
9.7873040551181099
20
-5.7002298425196853
11
9.7948031102362201
21
-5.7039793700787405
0
LINE
8
BLACK
6
CONTINUOUS
10
9.7948031102362201
20
-5.7039793700787405
11
9.7985526377952752
21
-5.7077288976377956
0
LINE
8
BLACK
6
CONTINUOUS
10
9.7985526377952752
20
-5.7077288976377956
11
9.8023021653543303
21
-5.7152279527559058
0
LINE
8
BLACK
6
CONTINUOUS
10
9.8023021653543303
20
-5.7152279527559058
11
9.8023021653543303
21
-5.722727007874016
0
LINE
8
BLACK
6
CONTINUOUS
10
9.8023021653543303
20
-5.722727007874016
11
9.7985526377952752
21
-5.7339755905511813
0
LINE
8
BLACK
6
CONTINUOUS
10
9.7985526377952752
20
-5.7339755905511813
11
9.7535582677165351
21
-5.7789700000000002
0
LINE
8
BLACK
6
CONTINUOUS
10
9.7535582677165351
20
-5.7789700000000002
11
9.8023021653543303
21
-5.7789700000000002
0
LINE
8
BLACK
6
CONTINUOUS
10
9.8510460629921255
20
-5.7002298425196853
11
9.8585451574803145
21
-5.7002298425196853
0
LINE
8
BLACK
6
CONTINUOUS
10
9.8585451574803145
20
-5.7002298425196853
11
9.8660442125984247
21
-5.7039793700787405
0
LINE
8
BLACK
6
CONTINUOUS
10
9.8660442125984247
20
-5.7039793700787405
11
9.8697937401574798
21
-5.7077288976377956
0
LINE
8
BLACK
6
CONTINUOUS
10
9.8697937401574798
20
-5.7077288976377956
11
9.8735432677165349
21
-5.7152279527559058
0
LINE
8
BLACK
6
CONTINUOUS
10
9.8735432677165349
20
-5.7152279527559058
11
9.87729279527559
21
-5.7302260629921262
0
LINE
8
BLACK
6
CONTINUOUS
10
9.87729279527559
20
-5.7302260629921262
11
9.87729279527559
21
-5.7489737401574805
0
LINE
8
BLACK
6
CONTINUOUS
10
9.87729279527559
20
-5.7489737401574805
11
9.8735432677165349
21
-5.763971850393701
0
LINE
8
BLACK
6
CONTINUOUS
10
9.8735432677165349
20
-5.763971850393701
11
9.8697937401574798
21
-5.7714709055118112
0
LINE
8
BLACK
6
CONTINUOUS
10
9.8697937401574798
20
-5.7714709055118112
11
9.8660442125984247
21
-5.7752204724409451
0
LINE
8
BLACK
6
CONTINUOUS
10
9.8660442125984247
20
-5.7752204724409451
11
9.8585451574803145
21
-5.7789700000000002
0
LINE
8
BLACK
6
CONTINUOUS
10
9.8585451574803145
20
-5.7789700000000002
11
9.8510460629921255
21
-5.7789700000000002
0
LINE
8
BLACK
6
CONTINUOUS
10
9.8510460629921255
20
-5.7789700000000002
11
9.8435470078740153
21
-5.7752204724409451
0
LINE
8
BLACK
6
CONTINUOUS
10
9.8435470078740153
20
-5.7752204724409451
11
9.8397974803149602
21
-5.7714709055118112
0
LINE
8
BLACK
6
CONTINUOUS
10
9.8397974803149602
20
-5.7714709055118112
11
9.836047952755905
21
-5.763971850393701
0
LINE
8
BLACK
6
CONTINUOUS
10
9.836047952755905
20
-5.763971850393701
11
9.8322984251968499
21
-5.7489737401574805
0
LINE
8
BLACK
6
CONTINUOUS
10
9.8322984251968499
20
-5.7489737401574805
11
9.8322984251968499
21
-5.7302260629921262
0
LINE
8
BLACK
6
CONTINUOUS
10
9.8322984251968499
20
-5.7302260629921262
11
9.836047952755905
21
-5.7152279527559058
0
LINE
8
BLACK
6
CONTINUOUS
10
9.836047952755905
20
-5.7152279527559058
11
9.8397974803149602
21
-5.7077288976377956
0
LINE
8
BLACK
6
CONTINUOUS
10
9.8397974803149602
20
-5.7077288976377956
11
9.8435470078740153
21
-5.7039793700787405
0
LINE
8
BLACK
6
CONTINUOUS
10
9.8435470078740153
20
-5.7039793700787405
11
9.8510460629921255
21
-5.7002298425196853
0
LINE
8
BLACK
6
CONTINUOUS
10
9.9072890551181096
20
-5.7002298425196853
11
9.9072890551181096
21
-5.7152279527559058
0
LINE
8
BLACK
6
CONTINUOUS
10
9.9372853149606293
20
-5.7002298425196853
11
9.9372853149606293
21
-5.7152279527559058
0
LINE
8
BLACK
6
CONTINUOUS
10
10.0535208267716527
20
-5.808966220472441
11
10.0497712598425188
21
-5.8052166929133859
0
LINE
8
BLACK
6
CONTINUOUS
10
10.0497712598425188
20
-5.8052166929133859
11
10.0422722047244086
21
-5.7939681102362206
0
LINE
8
BLACK
6
CONTINUOUS
10
10.0422722047244086
20
-5.7939681102362206
11
10.0385226771653535
21
-5.7864690551181104
0
LINE
8
BLACK
6
CONTINUOUS
10
10.0385226771653535
20
-5.7864690551181104
11
10.0347731496062984
21
-5.7752204724409451
0
LINE
8
BLACK
6
CONTINUOUS
10
10.0347731496062984
20
-5.7752204724409451
11
10.0310236220472433
21
-5.7564727952755907
0
LINE
8
BLACK
6
CONTINUOUS
10
10.0310236220472433
20
-5.7564727952755907
11
10.0310236220472433
21
-5.7414746850393703
0
LINE
8
BLACK
6
CONTINUOUS
10
10.0310236220472433
20
-5.7414746850393703
11
10.0347731496062984
21
-5.722727007874016
0
LINE
8
BLACK
6
CONTINUOUS
10
10.0347731496062984
20
-5.722727007874016
11
10.0385226771653535
21
-5.7114784251968507
0
LINE
8
BLACK
6
CONTINUOUS
10
10.0385226771653535
20
-5.7114784251968507
11
10.0422722047244086
21
-5.7039793700787405
0
LINE
8
BLACK
6
CONTINUOUS
10
10.0422722047244086
20
-5.7039793700787405
11
10.0497712598425188
21
-5.6927307480314964
0
LINE
8
BLACK
6
CONTINUOUS
10
10.0497712598425188
20
-5.6927307480314964
11
10.0535208267716527
21
-5.6889812204724413
0
LINE
8
BLACK
6
CONTINUOUS
10
10.0797675196850385
20
-5.7077288976377956
11
10.0835170472440936
21
-5.7039793700787405
0
LINE
8
BLACK
6
CONTINUOUS
10
10.0835170472440936
20
-5.7039793700787405
11
10.0910161023622038
21
-5.7002298425196853
0
LINE
8
BLACK
6
CONTINUOUS
10
10.0910161023622038
20
-5.7002298425196853
11
10.1097637795275581
21
-5.7002298425196853
0
LINE
8
BLACK
6
CONTINUOUS
10
10.1097637795275581
20
-5.7002298425196853
11
10.1172628346456683
21
-5.7039793700787405
0
LINE
8
BLACK
6
CONTINUOUS
10
10.1172628346456683
20
-5.7039793700787405
11
10.1210123622047234
21
-5.7077288976377956
0
LINE
8
BLACK
6
CONTINUOUS
10
10.1210123622047234
20
-5.7077288976377956
11
10.1247618897637786
21
-5.7152279527559058
0
LINE
8
BLACK
6
CONTINUOUS
10
10.1247618897637786
20
-5.7152279527559058
11
10.1247618897637786
21
-5.722727007874016
0
LINE
8
BLACK
6
CONTINUOUS
10
10.1247618897637786
20
-5.722727007874016
11
10.1210123622047234
21
-5.7339755905511813
0
LINE
8
BLACK
6
CONTINUOUS
10
10.1210123622047234
20
-5.7339755905511813
11
10.0760179921259834
21
-5.7789700000000002
0
LINE
8
BLACK
6
CONTINUOUS
10
10.0760179921259834
20
-5.7789700000000002
11
10.1247618897637786
21
-5.7789700000000002
0
LINE
8
BLACK
6
CONTINUOUS
10
10.1510086220472431
20
-5.7002298425196853
11
10.2035020472440934
21
-5.7002298425196853
0
LINE
8
BLACK
6
CONTINUOUS
10
10.2035020472440934
20
-5.7002298425196853
11
10.1697562598425186
21
-5.7789700000000002
0
LINE
8
BLACK
6
CONTINUOUS
10
10.2934908267716541
20
-5.7789700000000002
11
10.2934908267716541
21
-5.7002298425196853
0
LINE
8
BLACK
6
CONTINUOUS
10
10.3272366141732288
20
-5.7789700000000002
11
10.3272366141732288
21
-5.7377251574803152
0
LINE
8
BLACK
6
CONTINUOUS
10
10.3272366141732288
20
-5.7377251574803152
11
10.3234870866141737
21
-5.7302260629921262
0
LINE
8
BLACK
6
CONTINUOUS
10
10.3234870866141737
20
-5.7302260629921262
11
10.3159880314960635
21
-5.7264765354330711
0
LINE
8
BLACK
6
CONTINUOUS
10
10.3159880314960635
20
-5.7264765354330711
11
10.3047394094488194
21
-5.7264765354330711
0
LINE
8
BLACK
6
CONTINUOUS
10
10.3047394094488194
20
-5.7264765354330711
11
10.2972403543307092
21
-5.7302260629921262
0
LINE
8
BLACK
6
CONTINUOUS
10
10.2972403543307092
20
-5.7302260629921262
11
10.2934908267716541
21
-5.7339755905511813
0
LINE
8
BLACK
6
CONTINUOUS
10
10.375980511811024
20
-5.7789700000000002
11
10.3684814566929138
21
-5.7752204724409451
0
LINE
8
BLACK
6
CONTINUOUS
10
10.3684814566929138
20
-5.7752204724409451
11
10.3647319291338587
21
-5.7714709055118112
0
LINE
8
BLACK
6
CONTINUOUS
10
10.3647319291338587
20
-5.7714709055118112
11
10.3609824015748035
21
-5.763971850393701
0
LINE
8
BLACK
6
CONTINUOUS
10
10.3609824015748035
20
-5.763971850393701
11
10.3609824015748035
21
-5.7414746850393703
0
LINE
8
BLACK
6
CONTINUOUS
10
10.3609824015748035
20
-5.7414746850393703
11
10.3647319291338587
21
-5.7339755905511813
0
LINE
8
BLACK
6
CONTINUOUS
10
10.3647319291338587
20
-5.7339755905511813
11
10.3684814566929138
21
-5.7302260629921262
0
LINE
8
BLACK
6
CONTINUOUS
10
10.3684814566929138
20
-5.7302260629921262
11
10.375980511811024
21
-5.7264765354330711
0
LINE
8
BLACK
6
CONTINUOUS
10
10.375980511811024
20
-5.7264765354330711
11
10.3872291338582681
21
-5.7264765354330711
0
LINE
8
BLACK
6
CONTINUOUS
10
10.3872291338582681
20
-5.7264765354330711
11
10.3947281889763783
21
-5.7302260629921262
0
LINE
8
BLACK
6
CONTINUOUS
10
10.3947281889763783
20
-5.7302260629921262
11
10.3984777165354334
21
-5.7339755905511813
0
LINE
8
BLACK
6
CONTINUOUS
10
10.3984777165354334
20
-5.7339755905511813
11
10.4022272440944885
21
-5.7414746850393703
0
LINE
8
BLACK
6
CONTINUOUS
10
10.4022272440944885
20
-5.7414746850393703
11
10.4022272440944885
21
-5.763971850393701
0
LINE
8
BLACK
6
CONTINUOUS
10
10.4022272440944885
20
-5.763971850393701
11
10.3984777165354334
21
-5.7714709055118112
0
LINE
8
BLACK
6
CONTINUOUS
10
10.3984777165354334
20
-5.7714709055118112
11
10.3947281889763783
21
-5.7752204724409451
0
LINE
8
BLACK
6
CONTINUOUS
10
10.3947281889763783
20
-5.7752204724409451
11
10.3872291338582681
21
-5.7789700000000002
0
LINE
8
BLACK
6
CONTINUOUS
10
10.3872291338582681
20
-5.7789700000000002
11
10.375980511811024
21
-5.7789700000000002
0
LINE
8
BLACK
6
CONTINUOUS
10
10.4472216141732286
20
-5.7789700000000002
11
10.4397225590551184
21
-5.7752204724409451
0
LINE
8
BLACK
6
CONTINUOUS
10
10.4397225590551184
20
-5.7752204724409451
11
10.4359730314960633
21
-5.7677213779527561
0
LINE
8
BLACK
6
CONTINUOUS
10
10.4359730314960633
20
-5.7677213779527561
11
10.4359730314960633
21
-5.7002298425196853
0
LINE
8
BLACK
6
CONTINUOUS
10
10.5072141338582679
20
-5.7752204724409451
11
10.4997150787401576
21
-5.7789700000000002
0
LINE
8
BLACK
6
CONTINUOUS
10
10.4997150787401576
20
-5.7789700000000002
11
10.4847169291338584
21
-5.7789700000000002
0
LINE
8
BLACK
6
CONTINUOUS
10
10.4847169291338584
20
-5.7789700000000002
11
10.4772178740157482
21
-5.7752204724409451
0
LINE
8
BLACK
6
CONTINUOUS
10
10.4772178740157482
20
-5.7752204724409451
11
10.4734683464566931
21
-5.7677213779527561
0
LINE
8
BLACK
6
CONTINUOUS
10
10.4734683464566931
20
-5.7677213779527561
11
10.4734683464566931
21
-5.7377251574803152
0
LINE
8
BLACK
6
CONTINUOUS
10
10.4734683464566931
20
-5.7377251574803152
11
10.4772178740157482
21
-5.7302260629921262
0
LINE
8
BLACK
6
CONTINUOUS
10
10.4772178740157482
20
-5.7302260629921262
11
10.4847169291338584
21
-5.7264765354330711
0
LINE
8
BLACK
6
CONTINUOUS
10
10.4847169291338584
20
-5.7264765354330711
11
10.4997150787401576
21
-5.7264765354330711
0
LINE
8
BLACK
6
CONTINUOUS
10
10.4997150787401576
20
-5.7264765354330711
11
10.5072141338582679
21
-5.7302260629921262
0
LINE
8
BLACK
6
CONTINUOUS
10
10.5072141338582679
20
-5.7302260629921262
11
10.510963661417323
21
-5.7377251574803152
0
LINE
8
BLACK
6
CONTINUOUS
10
10.510963661417323
20
-5.7377251574803152
11
10.510963661417323
21
-5.7452242125984254
0
LINE
8
BLACK
6
CONTINUOUS
10
10.510963661417323
20
-5.7452242125984254
11
10.4734683464566931
21
-5.7527232677165356
0
LINE
8
BLACK
6
CONTINUOUS
10
10.5409599212598426
20
-5.7752204724409451
11
10.5484589763779528
21
-5.7789700000000002
0
LINE
8
BLACK
6
CONTINUOUS
10
10.5484589763779528
20
-5.7789700000000002
11
10.5634570866141733
21
-5.7789700000000002
0
LINE
8
BLACK
6
CONTINUOUS
10
10.5634570866141733
20
-5.7789700000000002
11
10.5709561811023622
21
-5.7752204724409451
0
LINE
8
BLACK
6
CONTINUOUS
10
10.5709561811023622
20
-5.7752204724409451
11
10.5747057086614173
21
-5.7677213779527561
0
LINE
8
BLACK
6
CONTINUOUS
10
10.5747057086614173
20
-5.7677213779527561
11
10.5747057086614173
21
-5.763971850393701
0
LINE
8
BLACK
6
CONTINUOUS
10
10.5747057086614173
20
-5.763971850393701
11
10.5709561811023622
21
-5.7564727952755907
0
LINE
8
BLACK
6
CONTINUOUS
10
10.5709561811023622
20
-5.7564727952755907
11
10.5634570866141733
21
-5.7527232677165356
0
LINE
8
BLACK
6
CONTINUOUS
10
10.5634570866141733
20
-5.7527232677165356
11
10.5522085039370079
21
-5.7527232677165356
0
LINE
8
BLACK
6
CONTINUOUS
10
10.5522085039370079
20
-5.7527232677165356
11
10.5447094488188977
21
-5.7489737401574805
0
LINE
8
BLACK
6
CONTINUOUS
10
10.5447094488188977
20
-5.7489737401574805
11
10.5409599212598426
21
-5.7414746850393703
0
LINE
8
BLACK
6
CONTINUOUS
10
10.5409599212598426
20
-5.7414746850393703
11
10.5409599212598426
21
-5.7377251574803152
0
LINE
8
BLACK
6
CONTINUOUS
10
10.5409599212598426
20
-5.7377251574803152
11
10.5447094488188977
21
-5.7302260629921262
0
LINE
8
BLACK
6
CONTINUOUS
10
10.5447094488188977
20
-5.7302260629921262
11
10.5522085039370079
21
-5.7264765354330711
0
LINE
8
BLACK
6
CONTINUOUS
10
10.5522085039370079
20
-5.7264765354330711
11
10.5634570866141733
21
-5.7264765354330711
0
LINE
8
BLACK
6
CONTINUOUS
10
10.5634570866141733
20
-5.7264765354330711
11
10.5709561811023622
21
-5.7302260629921262
0
LINE
8
BLACK
6
CONTINUOUS
10
10.6009524409448819
20
-5.808966220472441
11
10.604701968503937
21
-5.8052166929133859
0
LINE
8
BLACK
6
CONTINUOUS
10
10.604701968503937
20
-5.8052166929133859
11
10.6122010236220472
21
-5.7939681102362206
0
LINE
8
BLACK
6
CONTINUOUS
10
10.6122010236220472
20
-5.7939681102362206
11
10.6159505511811023
21
-5.7864690551181104
0
LINE
8
BLACK
6
CONTINUOUS
10
10.6159505511811023
20
-5.7864690551181104
11
10.6197000787401574
21
-5.7752204724409451
0
LINE
8
BLACK
6
CONTINUOUS
10
10.6197000787401574
20
-5.7752204724409451
11
10.6234496062992125
21
-5.7564727952755907
0
LINE
8
BLACK
6
CONTINUOUS
10
10.6234496062992125
20
-5.7564727952755907
11
10.6234496062992125
21
-5.7414746850393703
0
LINE
8
BLACK
6
CONTINUOUS
10
10.6234496062992125
20
-5.7414746850393703
11
10.6197000787401574
21
-5.722727007874016
0
LINE
8
BLACK
6
CONTINUOUS
10
10.6197000787401574
20
-5.722727007874016
11
10.6159505511811023
21
-5.7114784251968507
0
LINE
8
BLACK
6
CONTINUOUS
10
10.6159505511811023
20
-5.7114784251968507
11
10.6122010236220472
21
-5.7039793700787405
0
LINE
8
BLACK
6
CONTINUOUS
10
10.6122010236220472
20
-5.7039793700787405
11
10.604701968503937
21
-5.6927307480314964
0
LINE
8
BLACK
6
CONTINUOUS
10
10.604701968503937
20
-5.6927307480314964
11
10.6009524409448819
21
-5.6889812204724413
0
CIRCLE
8
BLACK
10
8.6263307086614169
20
-5.8468897637795276
40
0.0196850393700787
0
LINE
8
BLACK
6
CONTINUOUS
10
8.7899286220472437
20
-5.8829070078740155
11
8.7449342519685036
21
-5.8829070078740155
0
LINE
8
BLACK
6
CONTINUOUS
10
8.7674314173228343
20
-5.8829070078740155
11
8.7674314173228343
21
-5.8041668503937007
0
LINE
8
BLACK
6
CONTINUOUS
10
8.7674314173228343
20
-5.8041668503937007
11
8.759932362204724
21
-5.8154154330708661
0
LINE
8
BLACK
6
CONTINUOUS
10
8.759932362204724
20
-5.8154154330708661
11
8.7524333070866138
21
-5.8229144881889763
0
LINE
8
BLACK
6
CONTINUOUS
10
8.7524333070866138
20
-5.8229144881889763
11
8.7449342519685036
21
-5.8266640157480314
0
LINE
8
BLACK
6
CONTINUOUS
10
8.8236744094488184
20
-5.8754079133858266
11
8.8274239370078735
21
-5.8791574803149604
0
LINE
8
BLACK
6
CONTINUOUS
10
8.8274239370078735
20
-5.8791574803149604
11
8.8236744094488184
21
-5.8829070078740155
0
LINE
8
BLACK
6
CONTINUOUS
10
8.8236744094488184
20
-5.8829070078740155
11
8.8199248818897633
21
-5.8791574803149604
0
LINE
8
BLACK
6
CONTINUOUS
10
8.8199248818897633
20
-5.8791574803149604
11
8.8236744094488184
21
-5.8754079133858266
0
LINE
8
BLACK
6
CONTINUOUS
10
8.8236744094488184
20
-5.8754079133858266
11
8.8236744094488184
21
-5.8829070078740155
0
LINE
8
BLACK
6
CONTINUOUS
10
8.8761678346456687
20
-5.8041668503937007
11
8.8836669291338577
21
-5.8041668503937007
0
LINE
8
BLACK
6
CONTINUOUS
10
8.8836669291338577
20
-5.8041668503937007
11
8.8911659842519679
21
-5.8079163779527558
0
LINE
8
BLACK
6
CONTINUOUS
10
8.8911659842519679
20
-5.8079163779527558
11
8.894915511811023
21
-5.8116659055118109
0
LINE
8
BLACK
6
CONTINUOUS
10
8.894915511811023
20
-5.8116659055118109
11
8.8986650393700781
21
-5.8191649606299212
0
LINE
8
BLACK
6
CONTINUOUS
10
8.8986650393700781
20
-5.8191649606299212
11
8.9024145669291332
21
-5.8341630708661416
0
LINE
8
BLACK
6
CONTINUOUS
10
8.9024145669291332
20
-5.8341630708661416
11
8.9024145669291332
21
-5.8529107480314959
0
LINE
8
BLACK
6
CONTINUOUS
10
8.9024145669291332
20
-5.8529107480314959
11
8.8986650393700781
21
-5.8679088582677164
0
LINE
8
BLACK
6
CONTINUOUS
10
8.8986650393700781
20
-5.8679088582677164
11
8.894915511811023
21
-5.8754079133858266
0
LINE
8
BLACK
6
CONTINUOUS
10
8.894915511811023
20
-5.8754079133858266
11
8.8911659842519679
21
-5.8791574803149604
0
LINE
8
BLACK
6
CONTINUOUS
10
8.8911659842519679
20
-5.8791574803149604
11
8.8836669291338577
21
-5.8829070078740155
0
LINE
8
BLACK
6
CONTINUOUS
10
8.8836669291338577
20
-5.8829070078740155
11
8.8761678346456687
21
-5.8829070078740155
0
LINE
8
BLACK
6
CONTINUOUS
10
8.8761678346456687
20
-5.8829070078740155
11
8.8686687795275585
21
-5.8791574803149604
0
LINE
8
BLACK
6
CONTINUOUS
10
8.8686687795275585
20
-5.8791574803149604
11
8.8649192519685034
21
-5.8754079133858266
0
LINE
8
BLACK
6
CONTINUOUS
10
8.8649192519685034
20
-5.8754079133858266
11
8.8611697244094483
21
-5.8679088582677164
0
LINE
8
BLACK
6
CONTINUOUS
10
8.8611697244094483
20
-5.8679088582677164
11
8.8574201968503932
21
-5.8529107480314959
0
LINE
8
BLACK
6
CONTINUOUS
10
8.8574201968503932
20
-5.8529107480314959
11
8.8574201968503932
21
-5.8341630708661416
0
LINE
8
BLACK
6
CONTINUOUS
10
8.8574201968503932
20
-5.8341630708661416
11
8.8611697244094483
21
-5.8191649606299212
0
LINE
8
BLACK
6
CONTINUOUS
10
8.8611697244094483
20
-5.8191649606299212
11
8.8649192519685034
21
-5.8116659055118109
0
LINE
8
BLACK
6
CONTINUOUS
10
8.8649192519685034
20
-5.8116659055118109
11
8.8686687795275585
21
-5.8079163779527558
0
LINE
8
BLACK
6
CONTINUOUS
10
8.8686687795275585
20
-5.8079163779527558
11
8.8761678346456687
21
-5.8041668503937007
0
LINE
8
BLACK
6
CONTINUOUS
10
8.9511584645669284
20
-5.8041668503937007
11
8.9586575590551174
21
-5.8041668503937007
0
LINE
8
BLACK
6
CONTINUOUS
10
8.9586575590551174
20
-5.8041668503937007
11
8.9661566141732276
21
-5.8079163779527558
0
LINE
8
BLACK
6
CONTINUOUS
10
8.9661566141732276
20
-5.8079163779527558
11
8.9699061417322827
21
-5.8116659055118109
0
LINE
8
BLACK
6
CONTINUOUS
10
8.9699061417322827
20
-5.8116659055118109
11
8.9736556692913378
21
-5.8191649606299212
0
LINE
8
BLACK
6
CONTINUOUS
10
8.9736556692913378
20
-5.8191649606299212
11
8.977405196850393
21
-5.8341630708661416
0
LINE
8
BLACK
6
CONTINUOUS
10
8.977405196850393
20
-5.8341630708661416
11
8.977405196850393
21
-5.8529107480314959
0
LINE
8
BLACK
6
CONTINUOUS
10
8.977405196850393
20
-5.8529107480314959
11
8.9736556692913378
21
-5.8679088582677164
0
LINE
8
BLACK
6
CONTINUOUS
10
8.9736556692913378
20
-5.8679088582677164
11
8.9699061417322827
21
-5.8754079133858266
0
LINE
8
BLACK
6
CONTINUOUS
10
8.9699061417322827
20
-5.8754079133858266
11
8.9661566141732276
21
-5.8791574803149604
0
LINE
8
BLACK
6
CONTINUOUS
10
8.9661566141732276
20
-5.8791574803149604
11
8.9586575590551174
21
-5.8829070078740155
0
LINE
8
BLACK
6
CONTINUOUS
10
8.9586575590551174
20
-5.8829070078740155
11
8.9511584645669284
21
-5.8829070078740155
0
LINE
8
BLACK
6
CONTINUOUS
10
8.9511584645669284
20
-5.8829070078740155
11
8.9436594094488182
21
-5.8791574803149604
0
LINE
8
BLACK
6
CONTINUOUS
10
8.9436594094488182
20
-5.8791574803149604
11
8.9399098818897631
21
-5.8754079133858266
0
LINE
8
BLACK
6
CONTINUOUS
10
8.9399098818897631
20
-5.8754079133858266
11
8.936160354330708
21
-5.8679088582677164
0
LINE
8
BLACK
6
CONTINUOUS
10
8.936160354330708
20
-5.8679088582677164
11
8.9324108267716529
21
-5.8529107480314959
0
LINE
8
BLACK
6
CONTINUOUS
10
8.9324108267716529
20
-5.8529107480314959
11
8.9324108267716529
21
-5.8341630708661416
0
LINE
8
BLACK
6
CONTINUOUS
10
8.9324108267716529
20
-5.8341630708661416
11
8.936160354330708
21
-5.8191649606299212
0
LINE
8
BLACK
6
CONTINUOUS
10
8.936160354330708
20
-5.8191649606299212
11
8.9399098818897631
21
-5.8116659055118109
0
LINE
8
BLACK
6
CONTINUOUS
10
8.9399098818897631
20
-5.8116659055118109
11
8.9436594094488182
21
-5.8079163779527558
0
LINE
8
BLACK
6
CONTINUOUS
10
8.9436594094488182
20
-5.8079163779527558
11
8.9511584645669284
21
-5.8041668503937007
0
LINE
8
BLACK
6
CONTINUOUS
10
9.0261490944881881
20
-5.8041668503937007
11
9.0336481889763771
21
-5.8041668503937007
0
LINE
8
BLACK
6
CONTINUOUS
10
9.0336481889763771
20
-5.8041668503937007
11
9.0411472440944873
21
-5.8079163779527558
0
LINE
8
BLACK
6
CONTINUOUS
10
9.0411472440944873
20
-5.8079163779527558
11
9.0448967716535424
21
-5.8116659055118109
0
LINE
8
BLACK
6
CONTINUOUS
10
9.0448967716535424
20
-5.8116659055118109
11
9.0486462992125976
21
-5.8191649606299212
0
LINE
8
BLACK
6
CONTINUOUS
10
9.0486462992125976
20
-5.8191649606299212
11
9.0523958267716527
21
-5.8341630708661416
0
LINE
8
BLACK
6
CONTINUOUS
10
9.0523958267716527
20
-5.8341630708661416
11
9.0523958267716527
21
-5.8529107480314959
0
LINE
8
BLACK
6
CONTINUOUS
10
9.0523958267716527
20
-5.8529107480314959
11
9.0486462992125976
21
-5.8679088582677164
0
LINE
8
BLACK
6
CONTINUOUS
10
9.0486462992125976
20
-5.8679088582677164
11
9.0448967716535424
21
-5.8754079133858266
0
LINE
8
BLACK
6
CONTINUOUS
10
9.0448967716535424
20
-5.8754079133858266
11
9.0411472440944873
21
-5.8791574803149604
0
LINE
8
BLACK
6
CONTINUOUS
10
9.0411472440944873
20
-5.8791574803149604
11
9.0336481889763771
21
-5.8829070078740155
0
LINE
8
BLACK
6
CONTINUOUS
10
9.0336481889763771
20
-5.8829070078740155
11
9.0261490944881881
21
-5.8829070078740155
0
LINE
8
BLACK
6
CONTINUOUS
10
9.0261490944881881
20
-5.8829070078740155
11
9.0186500393700779
21
-5.8791574803149604
0
LINE
8
BLACK
6
CONTINUOUS
10
9.0186500393700779
20
-5.8791574803149604
11
9.0149005118110228
21
-5.8754079133858266
0
LINE
8
BLACK
6
CONTINUOUS
10
9.0149005118110228
20
-5.8754079133858266
11
9.0111509842519677
21
-5.8679088582677164
0
LINE
8
BLACK
6
CONTINUOUS
10
9.0111509842519677
20
-5.8679088582677164
11
9.0074014566929126
21
-5.8529107480314959
0
LINE
8
BLACK
6
CONTINUOUS
10
9.0074014566929126
20
-5.8529107480314959
11
9.0074014566929126
21
-5.8341630708661416
0
LINE
8
BLACK
6
CONTINUOUS
10
9.0074014566929126
20
-5.8341630708661416
11
9.0111509842519677
21
-5.8191649606299212
0
LINE
8
BLACK
6
CONTINUOUS
10
9.0111509842519677
20
-5.8191649606299212
11
9.0149005118110228
21
-5.8116659055118109
0
LINE
8
BLACK
6
CONTINUOUS
10
9.0149005118110228
20
-5.8116659055118109
11
9.0186500393700779
21
-5.8079163779527558
0
LINE
8
BLACK
6
CONTINUOUS
10
9.0186500393700779
20
-5.8079163779527558
11
9.0261490944881881
21
-5.8041668503937007
0
LINE
8
BLACK
6
CONTINUOUS
10
9.0861416141732274
20
-5.8829070078740155
11
9.0861416141732274
21
-5.8304135433070865
0
LINE
8
BLACK
6
CONTINUOUS
10
9.0861416141732274
20
-5.8379125984251967
11
9.0898911417322825
21
-5.8341630708661416
0
LINE
8
BLACK
6
CONTINUOUS
10
9.0898911417322825
20
-5.8341630708661416
11
9.0973901968503927
21
-5.8304135433070865
0
LINE
8
BLACK
6
CONTINUOUS
10
9.0973901968503927
20
-5.8304135433070865
11
9.1086388188976368
21
-5.8304135433070865
0
LINE
8
BLACK
6
CONTINUOUS
10
9.1086388188976368
20
-5.8304135433070865
11
9.116137874015747
21
-5.8341630708661416
0
LINE
8
BLACK
6
CONTINUOUS
10
9.116137874015747
20
-5.8341630708661416
11
9.1198874015748022
21
-5.8416621653543306
0
LINE
8
BLACK
6
CONTINUOUS
10
9.1198874015748022
20
-5.8416621653543306
11
9.1198874015748022
21
-5.8829070078740155
0
LINE
8
BLACK
6
CONTINUOUS
10
9.1198874015748022
20
-5.8416621653543306
11
9.1236369291338573
21
-5.8341630708661416
0
LINE
8
BLACK
6
CONTINUOUS
10
9.1236369291338573
20
-5.8341630708661416
11
9.1311359842519675
21
-5.8304135433070865
0
LINE
8
BLACK
6
CONTINUOUS
10
9.1311359842519675
20
-5.8304135433070865
11
9.1423845669291328
21
-5.8304135433070865
0
LINE
8
BLACK
6
CONTINUOUS
10
9.1423845669291328
20
-5.8304135433070865
11
9.1498836614173218
21
-5.8341630708661416
0
LINE
8
BLACK
6
CONTINUOUS
10
9.1498836614173218
20
-5.8341630708661416
11
9.1536331889763769
21
-5.8416621653543306
0
LINE
8
BLACK
6
CONTINUOUS
10
9.1536331889763769
20
-5.8416621653543306
11
9.1536331889763769
21
-5.8829070078740155
0
LINE
8
BLACK
6
CONTINUOUS
10
9.1911285039370085
20
-5.8829070078740155
11
9.1911285039370085
21
-5.8304135433070865
0
LINE
8
BLACK
6
CONTINUOUS
10
9.1911285039370085
20
-5.8379125984251967
11
9.1948780314960636
21
-5.8341630708661416
0
LINE
8
BLACK
6
CONTINUOUS
10
9.1948780314960636
20
-5.8341630708661416
11
9.2023770866141739
21
-5.8304135433070865
0
LINE
8
BLACK
6
CONTINUOUS
10
9.2023770866141739
20
-5.8304135433070865
11
9.2136257086614179
21
-5.8304135433070865
0
LINE
8
BLACK
6
CONTINUOUS
10
9.2136257086614179
20
-5.8304135433070865
11
9.2211247637795282
21
-5.8341630708661416
0
LINE
8
BLACK
6
CONTINUOUS
10
9.2211247637795282
20
-5.8341630708661416
11
9.2248742913385833
21
-5.8416621653543306
0
LINE
8
BLACK
6
CONTINUOUS
10
9.2248742913385833
20
-5.8416621653543306
11
9.2248742913385833
21
-5.8829070078740155
0
LINE
8
BLACK
6
CONTINUOUS
10
9.2248742913385833
20
-5.8416621653543306
11
9.2286238188976384
21
-5.8341630708661416
0
LINE
8
BLACK
6
CONTINUOUS
10
9.2286238188976384
20
-5.8341630708661416
11
9.2361228740157486
21
-5.8304135433070865
0
LINE
8
BLACK
6
CONTINUOUS
10
9.2361228740157486
20
-5.8304135433070865
11
9.2473714566929139
21
-5.8304135433070865
0
LINE
8
BLACK
6
CONTINUOUS
10
9.2473714566929139
20
-5.8304135433070865
11
9.2548705511811029
21
-5.8341630708661416
0
LINE
8
BLACK
6
CONTINUOUS
10
9.2548705511811029
20
-5.8341630708661416
11
9.258620078740158
21
-5.8416621653543306
0
LINE
8
BLACK
6
CONTINUOUS
10
9.258620078740158
20
-5.8416621653543306
11
9.258620078740158
21
-5.8829070078740155
0
LINE
8
BLACK
6
CONTINUOUS
10
9.4123508661417326
20
-5.8004173228346456
11
9.3448593307086618
21
-5.9016546456692911
0
LINE
8
BLACK
6
CONTINUOUS
10
9.5135882283464568
20
-5.8041668503937007
11
9.5210873228346458
21
-5.8041668503937007
0
LINE
8
BLACK
6
CONTINUOUS
10
9.5210873228346458
20
-5.8041668503937007
11
9.528586377952756
21
-5.8079163779527558
0
LINE
8
BLACK
6
CONTINUOUS
10
9.528586377952756
20
-5.8079163779527558
11
9.5323359055118111
21
-5.8116659055118109
0
LINE
8
BLACK
6
CONTINUOUS
10
9.5323359055118111
20
-5.8116659055118109
11
9.5360854330708662
21
-5.8191649606299212
0
LINE
8
BLACK
6
CONTINUOUS
10
9.5360854330708662
20
-5.8191649606299212
11
9.5398349606299213
21
-5.8341630708661416
0
LINE
8
BLACK
6
CONTINUOUS
10
9.5398349606299213
20
-5.8341630708661416
11
9.5398349606299213
21
-5.8529107480314959
0
LINE
8
BLACK
6
CONTINUOUS
10
9.5398349606299213
20
-5.8529107480314959
11
9.5360854330708662
21
-5.8679088582677164
0
LINE
8
BLACK
6
CONTINUOUS
10
9.5360854330708662
20
-5.8679088582677164
11
9.5323359055118111
21
-5.8754079133858266
0
LINE
8
BLACK
6
CONTINUOUS
10
9.5323359055118111
20
-5.8754079133858266
11
9.528586377952756
21
-5.8791574803149604
0
LINE
8
BLACK
6
CONTINUOUS
10
9.528586377952756
20
-5.8791574803149604
11
9.5210873228346458
21
-5.8829070078740155
0
LINE
8
BLACK
6
CONTINUOUS
10
9.5210873228346458
20
-5.8829070078740155
11
9.5135882283464568
21
-5.8829070078740155
0
LINE
8
BLACK
6
CONTINUOUS
10
9.5135882283464568
20
-5.8829070078740155
11
9.5060891732283466
21
-5.8791574803149604
0
LINE
8
BLACK
6
CONTINUOUS
10
9.5060891732283466
20
-5.8791574803149604
11
9.5023396456692915
21
-5.8754079133858266
0
LINE
8
BLACK
6
CONTINUOUS
10
9.5023396456692915
20
-5.8754079133858266
11
9.4985901181102363
21
-5.8679088582677164
0
LINE
8
BLACK
6
CONTINUOUS
10
9.4985901181102363
20
-5.8679088582677164
11
9.4948405905511812
21
-5.8529107480314959
0
LINE
8
BLACK
6
CONTINUOUS
10
9.4948405905511812
20
-5.8529107480314959
11
9.4948405905511812
21
-5.8341630708661416
0
LINE
8
BLACK
6
CONTINUOUS
10
9.4948405905511812
20
-5.8341630708661416
11
9.4985901181102363
21
-5.8191649606299212
0
LINE
8
BLACK
6
CONTINUOUS
10
9.4985901181102363
20
-5.8191649606299212
11
9.5023396456692915
21
-5.8116659055118109
0
LINE
8
BLACK
6
CONTINUOUS
10
9.5023396456692915
20
-5.8116659055118109
11
9.5060891732283466
21
-5.8079163779527558
0
LINE
8
BLACK
6
CONTINUOUS
10
9.5060891732283466
20
-5.8079163779527558
11
9.5135882283464568
21
-5.8041668503937007
0
LINE
8
BLACK
6
CONTINUOUS
10
9.5735807480314961
20
-5.8754079133858266
11
9.5773302755905512
21
-5.8791574803149604
0
LINE
8
BLACK
6
CONTINUOUS
10
9.5773302755905512
20
-5.8791574803149604
11
9.5735807480314961
21
-5.8829070078740155
0
LINE
8
BLACK
6
CONTINUOUS
10
9.5735807480314961
20
-5.8829070078740155
11
9.5698312204724409
21
-5.8791574803149604
0
LINE
8
BLACK
6
CONTINUOUS
10
9.5698312204724409
20
-5.8791574803149604
11
9.5735807480314961
21
-5.8754079133858266
0
LINE
8
BLACK
6
CONTINUOUS
10
9.5735807480314961
20
-5.8754079133858266
11
9.5735807480314961
21
-5.8829070078740155
0
LINE
8
BLACK
6
CONTINUOUS
10
9.6260741732283464
20
-5.8041668503937007
11
9.6335732677165353
21
-5.8041668503937007
0
LINE
8
BLACK
6
CONTINUOUS
10
9.6335732677165353
20
-5.8041668503937007
11
9.6410723228346455
21
-5.8079163779527558
0
LINE
8
BLACK
6
CONTINUOUS
10
9.6410723228346455
20
-5.8079163779527558
11
9.6448218503937007
21
-5.8116659055118109
0
LINE
8
BLACK
6
CONTINUOUS
10
9.6448218503937007
20
-5.8116659055118109
11
9.6485713779527558
21
-5.8191649606299212
0
LINE
8
BLACK
6
CONTINUOUS
10
9.6485713779527558
20
-5.8191649606299212
11
9.6523209055118109
21
-5.8341630708661416
0
LINE
8
BLACK
6
CONTINUOUS
10
9.6523209055118109
20
-5.8341630708661416
11
9.6523209055118109
21
-5.8529107480314959
0
LINE
8
BLACK
6
CONTINUOUS
10
9.6523209055118109
20
-5.8529107480314959
11
9.6485713779527558
21
-5.8679088582677164
0
LINE
8
BLACK
6
CONTINUOUS
10
9.6485713779527558
20
-5.8679088582677164
11
9.6448218503937007
21
-5.8754079133858266
0
LINE
8
BLACK
6
CONTINUOUS
10
9.6448218503937007
20
-5.8754079133858266
11
9.6410723228346455
21
-5.8791574803149604
0
LINE
8
BLACK
6
CONTINUOUS
10
9.6410723228346455
20
-5.8791574803149604
11
9.6335732677165353
21
-5.8829070078740155
0
LINE
8
BLACK
6
CONTINUOUS
10
9.6335732677165353
20
-5.8829070078740155
11
9.6260741732283464
21
-5.8829070078740155
0
LINE
8
BLACK
6
CONTINUOUS
10
9.6260741732283464
20
-5.8829070078740155
11
9.6185751181102361
21
-5.8791574803149604
0
LINE
8
BLACK
6
CONTINUOUS
10
9.6185751181102361
20
-5.8791574803149604
11
9.614825590551181
21
-5.8754079133858266
0
LINE
8
BLACK
6
CONTINUOUS
10
9.614825590551181
20
-5.8754079133858266
11
9.6110760629921259
21
-5.8679088582677164
0
LINE
8
BLACK
6
CONTINUOUS
10
9.6110760629921259
20
-5.8679088582677164
11
9.6073265354330708
21
-5.8529107480314959
0
LINE
8
BLACK
6
CONTINUOUS
10
9.6073265354330708
20
-5.8529107480314959
11
9.6073265354330708
21
-5.8341630708661416
0
LINE
8
BLACK
6
CONTINUOUS
10
9.6073265354330708
20
-5.8341630708661416
11
9.6110760629921259
21
-5.8191649606299212
0
LINE
8
BLACK
6
CONTINUOUS
10
9.6110760629921259
20
-5.8191649606299212
11
9.614825590551181
21
-5.8116659055118109
0
LINE
8
BLACK
6
CONTINUOUS
10
9.614825590551181
20
-5.8116659055118109
11
9.6185751181102361
21
-5.8079163779527558
0
LINE
8
BLACK
6
CONTINUOUS
10
9.6185751181102361
20
-5.8079163779527558
11
9.6260741732283464
21
-5.8041668503937007
0
LINE
8
BLACK
6
CONTINUOUS
10
9.6785676377952754
20
-5.8041668503937007
11
9.7273115354330706
21
-5.8041668503937007
0
LINE
8
BLACK
6
CONTINUOUS
10
9.7273115354330706
20
-5.8041668503937007
11
9.7010648031496061
21
-5.8341630708661416
0
LINE
8
BLACK
6
CONTINUOUS
10
9.7010648031496061
20
-5.8341630708661416
11
9.7123134251968501
21
-5.8341630708661416
0
LINE
8
BLACK
6
CONTINUOUS
10
9.7123134251968501
20
-5.8341630708661416
11
9.7198124803149604
21
-5.8379125984251967
0
LINE
8
BLACK
6
CONTINUOUS
10
9.7198124803149604
20
-5.8379125984251967
11
9.7235620078740155
21
-5.8416621653543306
0
LINE
8
BLACK
6
CONTINUOUS
10
9.7235620078740155
20
-5.8416621653543306
11
9.7273115354330706
21
-5.8491612204724408
0
LINE
8
BLACK
6
CONTINUOUS
10
9.7273115354330706
20
-5.8491612204724408
11
9.7273115354330706
21
-5.8679088582677164
0
LINE
8
BLACK
6
CONTINUOUS
10
9.7273115354330706
20
-5.8679088582677164
11
9.7235620078740155
21
-5.8754079133858266
0
LINE
8
BLACK
6
CONTINUOUS
10
9.7235620078740155
20
-5.8754079133858266
11
9.7198124803149604
21
-5.8791574803149604
0
LINE
8
BLACK
6
CONTINUOUS
10
9.7198124803149604
20
-5.8791574803149604
11
9.7123134251968501
21
-5.8829070078740155
0
LINE
8
BLACK
6
CONTINUOUS
10
9.7123134251968501
20
-5.8829070078740155
11
9.6898162204724407
21
-5.8829070078740155
0
LINE
8
BLACK
6
CONTINUOUS
10
9.6898162204724407
20
-5.8829070078740155
11
9.6823171653543305
21
-5.8791574803149604
0
LINE
8
BLACK
6
CONTINUOUS
10
9.6823171653543305
20
-5.8791574803149604
11
9.6785676377952754
21
-5.8754079133858266
0
LINE
8
BLACK
6
CONTINUOUS
10
9.7648068503937004
20
-5.8829070078740155
11
9.7798049606299209
21
-5.8829070078740155
0
LINE
8
BLACK
6
CONTINUOUS
10
9.7798049606299209
20
-5.8829070078740155
11
9.7873040551181099
21
-5.8791574803149604
0
LINE
8
BLACK
6
CONTINUOUS
10
9.7873040551181099
20
-5.8791574803149604
11
9.791053582677165
21
-5.8754079133858266
0
LINE
8
BLACK
6
CONTINUOUS
10
9.791053582677165
20
-5.8754079133858266
11
9.7985526377952752
21
-5.8641593307086612
0
LINE
8
BLACK
6
CONTINUOUS
10
9.7985526377952752
20
-5.8641593307086612
11
9.8023021653543303
21
-5.8491612204724408
0
LINE
8
BLACK
6
CONTINUOUS
10
9.8023021653543303
20
-5.8491612204724408
11
9.8023021653543303
21
-5.8191649606299212
0
LINE
8
BLACK
6
CONTINUOUS
10
9.8023021653543303
20
-5.8191649606299212
11
9.7985526377952752
21
-5.8116659055118109
0
LINE
8
BLACK
6
CONTINUOUS
10
9.7985526377952752
20
-5.8116659055118109
11
9.7948031102362201
21
-5.8079163779527558
0
LINE
8
BLACK
6
CONTINUOUS
10
9.7948031102362201
20
-5.8079163779527558
11
9.7873040551181099
21
-5.8041668503937007
0
LINE
8
BLACK
6
CONTINUOUS
10
9.7873040551181099
20
-5.8041668503937007
11
9.7723059055118107
21
-5.8041668503937007
0
LINE
8
BLACK
6
CONTINUOUS
10
9.7723059055118107
20
-5.8041668503937007
11
9.7648068503937004
21
-5.8079163779527558
0
LINE
8
BLACK
6
CONTINUOUS
10
9.7648068503937004
20
-5.8079163779527558
11
9.7610573228346453
21
-5.8116659055118109
0
LINE
8
BLACK
6
CONTINUOUS
10
9.7610573228346453
20
-5.8116659055118109
11
9.7573077952755902
21
-5.8191649606299212
0
LINE
8
BLACK
6
CONTINUOUS
10
9.7573077952755902
20
-5.8191649606299212
11
9.7573077952755902
21
-5.8379125984251967
0
LINE
8
BLACK
6
CONTINUOUS
10
9.7573077952755902
20
-5.8379125984251967
11
9.7610573228346453
21
-5.8454116929133857
0
LINE
8
BLACK
6
CONTINUOUS
10
9.7610573228346453
20
-5.8454116929133857
11
9.7648068503937004
21
-5.8491612204724408
0
LINE
8
BLACK
6
CONTINUOUS
10
9.7648068503937004
20
-5.8491612204724408
11
9.7723059055118107
21
-5.8529107480314959
0
LINE
8
BLACK
6
CONTINUOUS
10
9.7723059055118107
20
-5.8529107480314959
11
9.7873040551181099
21
-5.8529107480314959
0
LINE
8
BLACK
6
CONTINUOUS
10
9.7873040551181099
20
-5.8529107480314959
11
9.7948031102362201
21
-5.8491612204724408
0
LINE
8
BLACK
6
CONTINUOUS
10
9.7948031102362201
20
-5.8491612204724408
11
9.7985526377952752
21
-5.8454116929133857
0
LINE
8
BLACK
6
CONTINUOUS
10
9.7985526377952752
20
-5.8454116929133857
11
9.8023021653543303
21
-5.8379125984251967
0
LINE
8
BLACK
6
CONTINUOUS
10
9.8697937401574798
20
-5.8304135433070865
11
9.8697937401574798
21
-5.8829070078740155
0
LINE
8
BLACK
6
CONTINUOUS
10
9.8510460629921255
20
-5.8004173228346456
11
9.8322984251968499
21
-5.856660275590551
0
LINE
8
BLACK
6
CONTINUOUS
10
9.8322984251968499
20
-5.856660275590551
11
9.8810423228346451
21
-5.856660275590551
0
LINE
8
BLACK
6
CONTINUOUS
10
9.9072890551181096
20
-5.8041668503937007
11
9.9072890551181096
21
-5.8191649606299212
0
LINE
8
BLACK
6
CONTINUOUS
10
9.9372853149606293
20
-5.8041668503937007
11
9.9372853149606293
21
-5.8191649606299212
0
LINE
8
BLACK
6
CONTINUOUS
10
10.0535208267716527
20
-5.9129032283464564
11
10.0497712598425188
21
-5.9091537007874013
0
LINE
8
BLACK
6
CONTINUOUS
10
10.0497712598425188
20
-5.9091537007874013
11
10.0422722047244086
21
-5.897905118110236
0
LINE
8
BLACK
6
CONTINUOUS
10
10.0422722047244086
20
-5.897905118110236
11
10.0385226771653535
21
-5.8904060629921258
0
LINE
8
BLACK
6
CONTINUOUS
10
10.0385226771653535
20
-5.8904060629921258
11
10.0347731496062984
21
-5.8791574803149604
0
LINE
8
BLACK
6
CONTINUOUS
10
10.0347731496062984
20
-5.8791574803149604
11
10.0310236220472433
21
-5.8604098031496061
0
LINE
8
BLACK
6
CONTINUOUS
10
10.0310236220472433
20
-5.8604098031496061
11
10.0310236220472433
21
-5.8454116929133857
0
LINE
8
BLACK
6
CONTINUOUS
10
10.0310236220472433
20
-5.8454116929133857
11
10.0347731496062984
21
-5.8266640157480314
0
LINE
8
BLACK
6
CONTINUOUS
10
10.0347731496062984
20
-5.8266640157480314
11
10.0385226771653535
21
-5.8154154330708661
0
LINE
8
BLACK
6
CONTINUOUS
10
10.0385226771653535
20
-5.8154154330708661
11
10.0422722047244086
21
-5.8079163779527558
0
LINE
8
BLACK
6
CONTINUOUS
10
10.0422722047244086
20
-5.8079163779527558
11
10.0497712598425188
21
-5.7966677559055118
0
LINE
8
BLACK
6
CONTINUOUS
10
10.0497712598425188
20
-5.7966677559055118
11
10.0535208267716527
21
-5.7929182283464566
0
LINE
8
BLACK
6
CONTINUOUS
10
10.1172628346456683
20
-5.8041668503937007
11
10.1022646850393691
21
-5.8041668503937007
0
LINE
8
BLACK
6
CONTINUOUS
10
10.1022646850393691
20
-5.8041668503937007
11
10.0947656299212589
21
-5.8079163779527558
0
LINE
8
BLACK
6
CONTINUOUS
10
10.0947656299212589
20
-5.8079163779527558
11
10.0910161023622038
21
-5.8116659055118109
0
LINE
8
BLACK
6
CONTINUOUS
10
10.0910161023622038
20
-5.8116659055118109
11
10.0835170472440936
21
-5.8229144881889763
0
LINE
8
BLACK
6
CONTINUOUS
10
10.0835170472440936
20
-5.8229144881889763
11
10.0797675196850385
21
-5.8379125984251967
0
LINE
8
BLACK
6
CONTINUOUS
10
10.0797675196850385
20
-5.8379125984251967
11
10.0797675196850385
21
-5.8679088582677164
0
LINE
8
BLACK
6
CONTINUOUS
10
10.0797675196850385
20
-5.8679088582677164
11
10.0835170472440936
21
-5.8754079133858266
0
LINE
8
BLACK
6
CONTINUOUS
10
10.0835170472440936
20
-5.8754079133858266
11
10.0872665748031487
21
-5.8791574803149604
0
LINE
8
BLACK
6
CONTINUOUS
10
10.0872665748031487
20
-5.8791574803149604
11
10.0947656299212589
21
-5.8829070078740155
0
LINE
8
BLACK
6
CONTINUOUS
10
10.0947656299212589
20
-5.8829070078740155
11
10.1097637795275581
21
-5.8829070078740155
0
LINE
8
BLACK
6
CONTINUOUS
10
10.1097637795275581
20
-5.8829070078740155
11
10.1172628346456683
21
-5.8791574803149604
0
LINE
8
BLACK
6
CONTINUOUS
10
10.1172628346456683
20
-5.8791574803149604
11
10.1210123622047234
21
-5.8754079133858266
0
LINE
8
BLACK
6
CONTINUOUS
10
10.1210123622047234
20
-5.8754079133858266
11
10.1247618897637786
21
-5.8679088582677164
0
LINE
8
BLACK
6
CONTINUOUS
10
10.1247618897637786
20
-5.8679088582677164
11
10.1247618897637786
21
-5.8491612204724408
0
LINE
8
BLACK
6
CONTINUOUS
10
10.1247618897637786
20
-5.8491612204724408
11
10.1210123622047234
21
-5.8416621653543306
0
LINE
8
BLACK
6
CONTINUOUS
10
10.1210123622047234
20
-5.8416621653543306
11
10.1172628346456683
21
-5.8379125984251967
0
LINE
8
BLACK
6
CONTINUOUS
10
10.1172628346456683
20
-5.8379125984251967
11
10.1097637795275581
21
-5.8341630708661416
0
LINE
8
BLACK
6
CONTINUOUS
10
10.1097637795275581
20
-5.8341630708661416
11
10.0947656299212589
21
-5.8341630708661416
0
LINE
8
BLACK
6
CONTINUOUS
10
10.0947656299212589
20
-5.8341630708661416
11
10.0872665748031487
21
-5.8379125984251967
0
LINE
8
BLACK
6
CONTINUOUS
10
10.0872665748031487
20
-5.8379125984251967
11
10.0835170472440936
21
-5.8416621653543306
0
LINE
8
BLACK
6
CONTINUOUS
10
10.0835170472440936
20
-5.8416621653543306
11
10.0797675196850385
21
-5.8491612204724408
0
LINE
8
BLACK
6
CONTINUOUS
10
10.2185001968503943
20
-5.8829070078740155
11
10.2185001968503943
21
-5.8041668503937007
0
LINE
8
BLACK
6
CONTINUOUS
10
10.2522459842519691
20
-5.8829070078740155
11
10.2522459842519691
21
-5.8416621653543306
0
LINE
8
BLACK
6
CONTINUOUS
10
10.2522459842519691
20
-5.8416621653543306
11
10.248496456692914
21
-5.8341630708661416
0
LINE
8
BLACK
6
CONTINUOUS
10
10.248496456692914
20
-5.8341630708661416
11
10.2409974015748038
21
-5.8304135433070865
0
LINE
8
BLACK
6
CONTINUOUS
10
10.2409974015748038
20
-5.8304135433070865
11
10.2297487795275597
21
-5.8304135433070865
0
LINE
8
BLACK
6
CONTINUOUS
10
10.2297487795275597
20
-5.8304135433070865
11
10.2222497244094495
21
-5.8341630708661416
0
LINE
8
BLACK
6
CONTINUOUS
10
10.2222497244094495
20
-5.8341630708661416
11
10.2185001968503943
21
-5.8379125984251967
0
LINE
8
BLACK
6
CONTINUOUS
10
10.3009898818897643
20
-5.8829070078740155
11
10.2934908267716541
21
-5.8791574803149604
0
LINE
8
BLACK
6
CONTINUOUS
10
10.2934908267716541
20
-5.8791574803149604
11
10.2897412992125989
21
-5.8754079133858266
0
LINE
8
BLACK
6
CONTINUOUS
10
10.2897412992125989
20
-5.8754079133858266
11
10.2859917716535438
21
-5.8679088582677164
0
LINE
8
BLACK
6
CONTINUOUS
10
10.2859917716535438
20
-5.8679088582677164
11
10.2859917716535438
21
-5.8454116929133857
0
LINE
8
BLACK
6
CONTINUOUS
10
10.2859917716535438
20
-5.8454116929133857
11
10.2897412992125989
21
-5.8379125984251967
0
LINE
8
BLACK
6
CONTINUOUS
10
10.2897412992125989
20
-5.8379125984251967
11
10.2934908267716541
21
-5.8341630708661416
0
LINE
8
BLACK
6
CONTINUOUS
10
10.2934908267716541
20
-5.8341630708661416
11
10.3009898818897643
21
-5.8304135433070865
0
LINE
8
BLACK
6
CONTINUOUS
10
10.3009898818897643
20
-5.8304135433070865
11
10.3122385039370084
21
-5.8304135433070865
0
LINE
8
BLACK
6
CONTINUOUS
10
10.3122385039370084
20
-5.8304135433070865
11
10.3197375590551186
21
-5.8341630708661416
0
LINE
8
BLACK
6
CONTINUOUS
10
10.3197375590551186
20
-5.8341630708661416
11
10.3234870866141737
21
-5.8379125984251967
0
LINE
8
BLACK
6
CONTINUOUS
10
10.3234870866141737
20
-5.8379125984251967
11
10.3272366141732288
21
-5.8454116929133857
0
LINE
8
BLACK
6
CONTINUOUS
10
10.3272366141732288
20
-5.8454116929133857
11
10.3272366141732288
21
-5.8679088582677164
0
LINE
8
BLACK
6
CONTINUOUS
10
10.3272366141732288
20
-5.8679088582677164
11
10.3234870866141737
21
-5.8754079133858266
0
LINE
8
BLACK
6
CONTINUOUS
10
10.3234870866141737
20
-5.8754079133858266
11
10.3197375590551186
21
-5.8791574803149604
0
LINE
8
BLACK
6
CONTINUOUS
10
10.3197375590551186
20
-5.8791574803149604
11
10.3122385039370084
21
-5.8829070078740155
0
LINE
8
BLACK
6
CONTINUOUS
10
10.3122385039370084
20
-5.8829070078740155
11
10.3009898818897643
21
-5.8829070078740155
0
LINE
8
BLACK
6
CONTINUOUS
10
10.3722309842519689
20
-5.8829070078740155
11
10.3647319291338587
21
-5.8791574803149604
0
LINE
8
BLACK
6
CONTINUOUS
10
10.3647319291338587
20
-5.8791574803149604
11
10.3609824015748035
21
-5.8716583858267715
0
LINE
8
BLACK
6
CONTINUOUS
10
10.3609824015748035
20
-5.8716583858267715
11
10.3609824015748035
21
-5.8041668503937007
0
LINE
8
BLACK
6
CONTINUOUS
10
10.4322235039370081
20
-5.8791574803149604
11
10.4247244488188979
21
-5.8829070078740155
0
LINE
8
BLACK
6
CONTINUOUS
10
10.4247244488188979
20
-5.8829070078740155
11
10.4097262992125987
21
-5.8829070078740155
0
LINE
8
BLACK
6
CONTINUOUS
10
10.4097262992125987
20
-5.8829070078740155
11
10.4022272440944885
21
-5.8791574803149604
0
LINE
8
BLACK
6
CONTINUOUS
10
10.4022272440944885
20
-5.8791574803149604
11
10.3984777165354334
21
-5.8716583858267715
0
LINE
8
BLACK
6
CONTINUOUS
10
10.3984777165354334
20
-5.8716583858267715
11
10.3984777165354334
21
-5.8416621653543306
0
LINE
8
BLACK
6
CONTINUOUS
10
10.3984777165354334
20
-5.8416621653543306
11
10.4022272440944885
21
-5.8341630708661416
0
LINE
8
BLACK
6
CONTINUOUS
10
10.4022272440944885
20
-5.8341630708661416
11
10.4097262992125987
21
-5.8304135433070865
0
LINE
8
BLACK
6
CONTINUOUS
10
10.4097262992125987
20
-5.8304135433070865
11
10.4247244488188979
21
-5.8304135433070865
0
LINE
8
BLACK
6
CONTINUOUS
10
10.4247244488188979
20
-5.8304135433070865
11
10.4322235039370081
21
-5.8341630708661416
0
LINE
8
BLACK
6
CONTINUOUS
10
10.4322235039370081
20
-5.8341630708661416
11
10.4359730314960633
21
-5.8416621653543306
0
LINE
8
BLACK
6
CONTINUOUS
10
10.4359730314960633
20
-5.8416621653543306
11
10.4359730314960633
21
-5.8491612204724408
0
LINE
8
BLACK
6
CONTINUOUS
10
10.4359730314960633
20
-5.8491612204724408
11
10.3984777165354334
21
-5.856660275590551
0
LINE
8
BLACK
6
CONTINUOUS
10
10.4659692913385829
20
-5.8791574803149604
11
10.4734683464566931
21
-5.8829070078740155
0
LINE
8
BLACK
6
CONTINUOUS
10
10.4734683464566931
20
-5.8829070078740155
11
10.4884664566929136
21
-5.8829070078740155
0
LINE
8
BLACK
6
CONTINUOUS
10
10.4884664566929136
20
-5.8829070078740155
11
10.4959655511811025
21
-5.8791574803149604
0
LINE
8
BLACK
6
CONTINUOUS
10
10.4959655511811025
20
-5.8791574803149604
11
10.4997150787401576
21
-5.8716583858267715
0
LINE
8
BLACK
6
CONTINUOUS
10
10.4997150787401576
20
-5.8716583858267715
11
10.4997150787401576
21
-5.8679088582677164
0
LINE
8
BLACK
6
CONTINUOUS
10
10.4997150787401576
20
-5.8679088582677164
11
10.4959655511811025
21
-5.8604098031496061
0
LINE
8
BLACK
6
CONTINUOUS
10
10.4959655511811025
20
-5.8604098031496061
11
10.4884664566929136
21
-5.856660275590551
0
LINE
8
BLACK
6
CONTINUOUS
10
10.4884664566929136
20
-5.856660275590551
11
10.4772178740157482
21
-5.856660275590551
0
LINE
8
BLACK
6
CONTINUOUS
10
10.4772178740157482
20
-5.856660275590551
11
10.469718818897638
21
-5.8529107480314959
0
LINE
8
BLACK
6
CONTINUOUS
10
10.469718818897638
20
-5.8529107480314959
11
10.4659692913385829
21
-5.8454116929133857
0
LINE
8
BLACK
6
CONTINUOUS
10
10.4659692913385829
20
-5.8454116929133857
11
10.4659692913385829
21
-5.8416621653543306
0
LINE
8
BLACK
6
CONTINUOUS
10
10.4659692913385829
20
-5.8416621653543306
11
10.469718818897638
21
-5.8341630708661416
0
LINE
8
BLACK
6
CONTINUOUS
10
10.469718818897638
20
-5.8341630708661416
11
10.4772178740157482
21
-5.8304135433070865
0
LINE
8
BLACK
6
CONTINUOUS
10
10.4772178740157482
20
-5.8304135433070865
11
10.4884664566929136
21
-5.8304135433070865
0
LINE
8
BLACK
6
CONTINUOUS
10
10.4884664566929136
20
-5.8304135433070865
11
10.4959655511811025
21
-5.8341630708661416
0
LINE
8
BLACK
6
CONTINUOUS
10
10.5259618110236222
20
-5.9129032283464564
11
10.5297113385826773
21
-5.9091537007874013
0
LINE
8
BLACK
6
CONTINUOUS
10
10.5297113385826773
20
-5.9091537007874013
11
10.5372103937007875
21
-5.897905118110236
0
LINE
8
BLACK
6
CONTINUOUS
10
10.5372103937007875
20
-5.897905118110236
11
10.5409599212598426
21
-5.8904060629921258
0
LINE
8
BLACK
6
CONTINUOUS
10
10.5409599212598426
20
-5.8904060629921258
11
10.5447094488188977
21
-5.8791574803149604
0
LINE
8
BLACK
6
CONTINUOUS
10
10.5447094488188977
20
-5.8791574803149604
11
10.5484589763779528
21
-5.8604098031496061
0
LINE
8
BLACK
6
CONTINUOUS
10
10.5484589763779528
20
-5.8604098031496061
11
10.5484589763779528
21
-5.8454116929133857
0
LINE
8
BLACK
6
CONTINUOUS
10
10.5484589763779528
20
-5.8454116929133857
11
10.5447094488188977
21
-5.8266640157480314
0
LINE
8
BLACK
6
CONTINUOUS
10
10.5447094488188977
20
-5.8266640157480314
11
10.5409599212598426
21
-5.8154154330708661
0
LINE
8
BLACK
6
CONTINUOUS
10
10.5409599212598426
20
-5.8154154330708661
11
10.5372103937007875
21
-5.8079163779527558
0
LINE
8
BLACK
6
CONTINUOUS
10
10.5372103937007875
20
-5.8079163779527558
11
10.5297113385826773
21
-5.7966677559055118
0
LINE
8
BLACK
6
CONTINUOUS
10
10.5297113385826773
20
-5.7966677559055118
11
10.5259618110236222
21
-5.7929182283464566
0
LINE
8
BLACK
6
CONTINUOUS
10
8.6066456692913391
20
-5.9114566929133856
11
8.6066456692913391
21
-5.9901968503937004
0
LINE
8
BLACK
6
CONTINUOUS
10
8.5672755905511817
20
-5.950826771653543
11
8.6460157480314965
21
-5.950826771653543
0
LINE
8
BLACK
6
CONTINUOUS
10
8.7411847244094485
20
-5.9081038582677161
11
8.7899286220472437
21
-5.9081038582677161
0
LINE
8
BLACK
6
CONTINUOUS
10
8.7899286220472437
20
-5.9081038582677161
11
8.7636818897637792
21
-5.938100078740157
0
LINE
8
BLACK
6
CONTINUOUS
10
8.7636818897637792
20
-5.938100078740157
11
8.7749305118110232
21
-5.938100078740157
0
LINE
8
BLACK
6
CONTINUOUS
10
8.7749305118110232
20
-5.938100078740157
11
8.7824295669291335
21
-5.9418496062992121
0
LINE
8
BLACK
6
CONTINUOUS
10
8.7824295669291335
20
-5.9418496062992121
11
8.7861790944881886
21
-5.945599173228346
0
LINE
8
BLACK
6
CONTINUOUS
10
8.7861790944881886
20
-5.945599173228346
11
8.7899286220472437
21
-5.9530982283464562
0
LINE
8
BLACK
6
CONTINUOUS
10
8.7899286220472437
20
-5.9530982283464562
11
8.7899286220472437
21
-5.9718458661417317
0
LINE
8
BLACK
6
CONTINUOUS
10
8.7899286220472437
20
-5.9718458661417317
11
8.7861790944881886
21
-5.979344921259842
0
LINE
8
BLACK
6
CONTINUOUS
10
8.7861790944881886
20
-5.979344921259842
11
8.7824295669291335
21
-5.9830944881889758
0
LINE
8
BLACK
6
CONTINUOUS
10
8.7824295669291335
20
-5.9830944881889758
11
8.7749305118110232
21
-5.9868440157480309
0
LINE
8
BLACK
6
CONTINUOUS
10
8.7749305118110232
20
-5.9868440157480309
11
8.7524333070866138
21
-5.9868440157480309
0
LINE
8
BLACK
6
CONTINUOUS
10
8.7524333070866138
20
-5.9868440157480309
11
8.7449342519685036
21
-5.9830944881889758
0
LINE
8
BLACK
6
CONTINUOUS
10
8.7449342519685036
20
-5.9830944881889758
11
8.7411847244094485
21
-5.979344921259842
0
LINE
8
BLACK
6
CONTINUOUS
10
8.8236744094488184
20
-5.979344921259842
11
8.8274239370078735
21
-5.9830944881889758
0
LINE
8
BLACK
6
CONTINUOUS
10
8.8274239370078735
20
-5.9830944881889758
11
8.8236744094488184
21
-5.9868440157480309
0
LINE
8
BLACK
6
CONTINUOUS
10
8.8236744094488184
20
-5.9868440157480309
11
8.8199248818897633
21
-5.9830944881889758
0
LINE
8
BLACK
6
CONTINUOUS
10
8.8199248818897633
20
-5.9830944881889758
11
8.8236744094488184
21
-5.979344921259842
0
LINE
8
BLACK
6
CONTINUOUS
10
8.8236744094488184
20
-5.979344921259842
11
8.8236744094488184
21
-5.9868440157480309
0
LINE
8
BLACK
6
CONTINUOUS
10
8.9024145669291332
20
-5.9868440157480309
11
8.8574201968503932
21
-5.9868440157480309
0
LINE
8
BLACK
6
CONTINUOUS
10
8.8799173622047238
20
-5.9868440157480309
11
8.8799173622047238
21
-5.9081038582677161
0
LINE
8
BLACK
6
CONTINUOUS
10
8.8799173622047238
20
-5.9081038582677161
11
8.8724183070866136
21
-5.9193524409448814
0
LINE
8
BLACK
6
CONTINUOUS
10
8.8724183070866136
20
-5.9193524409448814
11
8.8649192519685034
21
-5.9268514960629917
0
LINE
8
BLACK
6
CONTINUOUS
10
8.8649192519685034
20
-5.9268514960629917
11
8.8574201968503932
21
-5.9306010236220468
0
LINE
8
BLACK
6
CONTINUOUS
10
8.9286612992125978
20
-5.9081038582677161
11
8.9811547244094481
21
-5.9081038582677161
0
LINE
8
BLACK
6
CONTINUOUS
10
8.9811547244094481
20
-5.9081038582677161
11
8.9474089370078733
21
-5.9868440157480309
0
LINE
8
BLACK
6
CONTINUOUS
10
9.0486462992125976
20
-5.9081038582677161
11
9.0111509842519677
21
-5.9081038582677161
0
LINE
8
BLACK
6
CONTINUOUS
10
9.0111509842519677
20
-5.9081038582677161
11
9.0074014566929126
21
-5.945599173228346
0
LINE
8
BLACK
6
CONTINUOUS
10
9.0074014566929126
20
-5.945599173228346
11
9.0111509842519677
21
-5.9418496062992121
0
LINE
8
BLACK
6
CONTINUOUS
10
9.0111509842519677
20
-5.9418496062992121
11
9.0186500393700779
21
-5.938100078740157
0
LINE
8
BLACK
6
CONTINUOUS
10
9.0186500393700779
20
-5.938100078740157
11
9.0373977165354322
21
-5.938100078740157
0
LINE
8
BLACK
6
CONTINUOUS
10
9.0373977165354322
20
-5.938100078740157
11
9.0448967716535424
21
-5.9418496062992121
0
LINE
8
BLACK
6
CONTINUOUS
10
9.0448967716535424
20
-5.9418496062992121
11
9.0486462992125976
21
-5.945599173228346
0
LINE
8
BLACK
6
CONTINUOUS
10
9.0486462992125976
20
-5.945599173228346
11
9.0523958267716527
21
-5.9530982283464562
0
LINE
8
BLACK
6
CONTINUOUS
10
9.0523958267716527
20
-5.9530982283464562
11
9.0523958267716527
21
-5.9718458661417317
0
LINE
8
BLACK
6
CONTINUOUS
10
9.0523958267716527
20
-5.9718458661417317
11
9.0486462992125976
21
-5.979344921259842
0
LINE
8
BLACK
6
CONTINUOUS
10
9.0486462992125976
20
-5.979344921259842
11
9.0448967716535424
21
-5.9830944881889758
0
LINE
8
BLACK
6
CONTINUOUS
10
9.0448967716535424
20
-5.9830944881889758
11
9.0373977165354322
21
-5.9868440157480309
0
LINE
8
BLACK
6
CONTINUOUS
10
9.0373977165354322
20
-5.9868440157480309
11
9.0186500393700779
21
-5.9868440157480309
0
LINE
8
BLACK
6
CONTINUOUS
10
9.0186500393700779
20
-5.9868440157480309
11
9.0111509842519677
21
-5.9830944881889758
0
LINE
8
BLACK
6
CONTINUOUS
10
9.0111509842519677
20
-5.9830944881889758
11
9.0074014566929126
21
-5.979344921259842
0
LINE
8
BLACK
6
CONTINUOUS
10
9.0861416141732274
20
-5.9868440157480309
11
9.0861416141732274
21
-5.9343505511811019
0
LINE
8
BLACK
6
CONTINUOUS
10
9.0861416141732274
20
-5.9418496062992121
11
9.0898911417322825
21
-5.938100078740157
0
LINE
8
BLACK
6
CONTINUOUS
10
9.0898911417322825
20
-5.938100078740157
11
9.0973901968503927
21
-5.9343505511811019
0
LINE
8
BLACK
6
CONTINUOUS
10
9.0973901968503927
20
-5.9343505511811019
11
9.1086388188976368
21
-5.9343505511811019
0
LINE
8
BLACK
6
CONTINUOUS
10
9.1086388188976368
20
-5.9343505511811019
11
9.116137874015747
21
-5.938100078740157
0
LINE
8
BLACK
6
CONTINUOUS
10
9.116137874015747
20
-5.938100078740157
11
9.1198874015748022
21
-5.945599173228346
0
LINE
8
BLACK
6
CONTINUOUS
10
9.1198874015748022
20
-5.945599173228346
11
9.1198874015748022
21
-5.9868440157480309
0
LINE
8
BLACK
6
CONTINUOUS
10
9.1198874015748022
20
-5.945599173228346
11
9.1236369291338573
21
-5.938100078740157
0
LINE
8
BLACK
6
CONTINUOUS
10
9.1236369291338573
20
-5.938100078740157
11
9.1311359842519675
21
-5.9343505511811019
0
LINE
8
BLACK
6
CONTINUOUS
10
9.1311359842519675
20
-5.9343505511811019
11
9.1423845669291328
21
-5.9343505511811019
0
LINE
8
BLACK
6
CONTINUOUS
10
9.1423845669291328
20
-5.9343505511811019
11
9.1498836614173218
21
-5.938100078740157
0
LINE
8
BLACK
6
CONTINUOUS
10
9.1498836614173218
20
-5.938100078740157
11
9.1536331889763769
21
-5.945599173228346
0
LINE
8
BLACK
6
CONTINUOUS
10
9.1536331889763769
20
-5.945599173228346
11
9.1536331889763769
21
-5.9868440157480309
0
LINE
8
BLACK
6
CONTINUOUS
10
9.1911285039370085
20
-5.9868440157480309
11
9.1911285039370085
21
-5.9343505511811019
0
LINE
8
BLACK
6
CONTINUOUS
10
9.1911285039370085
20
-5.9418496062992121
11
9.1948780314960636
21
-5.938100078740157
0
LINE
8
BLACK
6
CONTINUOUS
10
9.1948780314960636
20
-5.938100078740157
11
9.2023770866141739
21
-5.9343505511811019
0
LINE
8
BLACK
6
CONTINUOUS
10
9.2023770866141739
20
-5.9343505511811019
11
9.2136257086614179
21
-5.9343505511811019
0
LINE
8
BLACK
6
CONTINUOUS
10
9.2136257086614179
20
-5.9343505511811019
11
9.2211247637795282
21
-5.938100078740157
0
LINE
8
BLACK
6
CONTINUOUS
10
9.2211247637795282
20
-5.938100078740157
11
9.2248742913385833
21
-5.945599173228346
0
LINE
8
BLACK
6
CONTINUOUS
10
9.2248742913385833
20
-5.945599173228346
11
9.2248742913385833
21
-5.9868440157480309
0
LINE
8
BLACK
6
CONTINUOUS
10
9.2248742913385833
20
-5.945599173228346
11
9.2286238188976384
21
-5.938100078740157
0
LINE
8
BLACK
6
CONTINUOUS
10
9.2286238188976384
20
-5.938100078740157
11
9.2361228740157486
21
-5.9343505511811019
0
LINE
8
BLACK
6
CONTINUOUS
10
9.2361228740157486
20
-5.9343505511811019
11
9.2473714566929139
21
-5.9343505511811019
0
LINE
8
BLACK
6
CONTINUOUS
10
9.2473714566929139
20
-5.9343505511811019
11
9.2548705511811029
21
-5.938100078740157
0
LINE
8
BLACK
6
CONTINUOUS
10
9.2548705511811029
20
-5.938100078740157
11
9.258620078740158
21
-5.945599173228346
0
LINE
8
BLACK
6
CONTINUOUS
10
9.258620078740158
20
-5.945599173228346
11
9.258620078740158
21
-5.9868440157480309
0
LINE
8
BLACK
6
CONTINUOUS
10
9.4123508661417326
20
-5.904354330708661
11
9.3448593307086618
21
-6.0055916535433074
0
LINE
8
BLACK
6
CONTINUOUS
10
9.5135882283464568
20
-5.9081038582677161
11
9.5210873228346458
21
-5.9081038582677161
0
LINE
8
BLACK
6
CONTINUOUS
10
9.5210873228346458
20
-5.9081038582677161
11
9.528586377952756
21
-5.9118533858267712
0
LINE
8
BLACK
6
CONTINUOUS
10
9.528586377952756
20
-5.9118533858267712
11
9.5323359055118111
21
-5.9156029133858263
0
LINE
8
BLACK
6
CONTINUOUS
10
9.5323359055118111
20
-5.9156029133858263
11
9.5360854330708662
21
-5.9231019685039366
0
LINE
8
BLACK
6
CONTINUOUS
10
9.5360854330708662
20
-5.9231019685039366
11
9.5398349606299213
21
-5.938100078740157
0
LINE
8
BLACK
6
CONTINUOUS
10
9.5398349606299213
20
-5.938100078740157
11
9.5398349606299213
21
-5.9568477559055113
0
LINE
8
BLACK
6
CONTINUOUS
10
9.5398349606299213
20
-5.9568477559055113
11
9.5360854330708662
21
-5.9718458661417317
0
LINE
8
BLACK
6
CONTINUOUS
10
9.5360854330708662
20
-5.9718458661417317
11
9.5323359055118111
21
-5.979344921259842
0
LINE
8
BLACK
6
CONTINUOUS
10
9.5323359055118111
20
-5.979344921259842
11
9.528586377952756
21
-5.9830944881889758
0
LINE
8
BLACK
6
CONTINUOUS
10
9.528586377952756
20
-5.9830944881889758
11
9.5210873228346458
21
-5.9868440157480309
0
LINE
8
BLACK
6
CONTINUOUS
10
9.5210873228346458
20
-5.9868440157480309
11
9.5135882283464568
21
-5.9868440157480309
0
LINE
8
BLACK
6
CONTINUOUS
10
9.5135882283464568
20
-5.9868440157480309
11
9.5060891732283466
21
-5.9830944881889758
0
LINE
8
BLACK
6
CONTINUOUS
10
9.5060891732283466
20
-5.9830944881889758
11
9.5023396456692915
21
-5.979344921259842
0
LINE
8
BLACK
6
CONTINUOUS
10
9.5023396456692915
20
-5.979344921259842
11
9.4985901181102363
21
-5.9718458661417317
0
LINE
8
BLACK
6
CONTINUOUS
10
9.4985901181102363
20
-5.9718458661417317
11
9.4948405905511812
21
-5.9568477559055113
0
LINE
8
BLACK
6
CONTINUOUS
10
9.4948405905511812
20
-5.9568477559055113
11
9.4948405905511812
21
-5.938100078740157
0
LINE
8
BLACK
6
CONTINUOUS
10
9.4948405905511812
20
-5.938100078740157
11
9.4985901181102363
21
-5.9231019685039366
0
LINE
8
BLACK
6
CONTINUOUS
10
9.4985901181102363
20
-5.9231019685039366
11
9.5023396456692915
21
-5.9156029133858263
0
LINE
8
BLACK
6
CONTINUOUS
10
9.5023396456692915
20
-5.9156029133858263
11
9.5060891732283466
21
-5.9118533858267712
0
LINE
8
BLACK
6
CONTINUOUS
10
9.5060891732283466
20
-5.9118533858267712
11
9.5135882283464568
21
-5.9081038582677161
0
LINE
8
BLACK
6
CONTINUOUS
10
9.5735807480314961
20
-5.979344921259842
11
9.5773302755905512
21
-5.9830944881889758
0
LINE
8
BLACK
6
CONTINUOUS
10
9.5773302755905512
20
-5.9830944881889758
11
9.5735807480314961
21
-5.9868440157480309
0
LINE
8
BLACK
6
CONTINUOUS
10
9.5735807480314961
20
-5.9868440157480309
11
9.5698312204724409
21
-5.9830944881889758
0
LINE
8
BLACK
6
CONTINUOUS
10
9.5698312204724409
20
-5.9830944881889758
11
9.5735807480314961
21
-5.979344921259842
0
LINE
8
BLACK
6
CONTINUOUS
10
9.5735807480314961
20
-5.979344921259842
11
9.5735807480314961
21
-5.9868440157480309
0
LINE
8
BLACK
6
CONTINUOUS
10
9.6523209055118109
20
-5.9868440157480309
11
9.6073265354330708
21
-5.9868440157480309
0
LINE
8
BLACK
6
CONTINUOUS
10
9.6298237007874015
20
-5.9868440157480309
11
9.6298237007874015
21
-5.9081038582677161
0
LINE
8
BLACK
6
CONTINUOUS
10
9.6298237007874015
20
-5.9081038582677161
11
9.6223246456692912
21
-5.9193524409448814
0
LINE
8
BLACK
6
CONTINUOUS
10
9.6223246456692912
20
-5.9193524409448814
11
9.614825590551181
21
-5.9268514960629917
0
LINE
8
BLACK
6
CONTINUOUS
10
9.614825590551181
20
-5.9268514960629917
11
9.6073265354330708
21
-5.9306010236220468
0
LINE
8
BLACK
6
CONTINUOUS
10
9.6823171653543305
20
-5.9156029133858263
11
9.6860666929133856
21
-5.9118533858267712
0
LINE
8
BLACK
6
CONTINUOUS
10
9.6860666929133856
20
-5.9118533858267712
11
9.6935657480314958
21
-5.9081038582677161
0
LINE
8
BLACK
6
CONTINUOUS
10
9.6935657480314958
20
-5.9081038582677161
11
9.7123134251968501
21
-5.9081038582677161
0
LINE
8
BLACK
6
CONTINUOUS
10
9.7123134251968501
20
-5.9081038582677161
11
9.7198124803149604
21
-5.9118533858267712
0
LINE
8
BLACK
6
CONTINUOUS
10
9.7198124803149604
20
-5.9118533858267712
11
9.7235620078740155
21
-5.9156029133858263
0
LINE
8
BLACK
6
CONTINUOUS
10
9.7235620078740155
20
-5.9156029133858263
11
9.7273115354330706
21
-5.9231019685039366
0
LINE
8
BLACK
6
CONTINUOUS
10
9.7273115354330706
20
-5.9231019685039366
11
9.7273115354330706
21
-5.9306010236220468
0
LINE
8
BLACK
6
CONTINUOUS
10
9.7273115354330706
20
-5.9306010236220468
11
9.7235620078740155
21
-5.9418496062992121
0
LINE
8
BLACK
6
CONTINUOUS
10
9.7235620078740155
20
-5.9418496062992121
11
9.6785676377952754
21
-5.9868440157480309
0
LINE
8
BLACK
6
CONTINUOUS
10
9.6785676377952754
20
-5.9868440157480309
11
9.7273115354330706
21
-5.9868440157480309
0
LINE
8
BLACK
6
CONTINUOUS
10
9.7985526377952752
20
-5.9081038582677161
11
9.7610573228346453
21
-5.9081038582677161
0
LINE
8
BLACK
6
CONTINUOUS
10
9.7610573228346453
20
-5.9081038582677161
11
9.7573077952755902
21
-5.945599173228346
0
LINE
8
BLACK
6
CONTINUOUS
10
9.7573077952755902
20
-5.945599173228346
11
9.7610573228346453
21
-5.9418496062992121
0
LINE
8
BLACK
6
CONTINUOUS
10
9.7610573228346453
20
-5.9418496062992121
11
9.7685563779527556
21
-5.938100078740157
0
LINE
8
BLACK
6
CONTINUOUS
10
9.7685563779527556
20
-5.938100078740157
11
9.7873040551181099
21
-5.938100078740157
0
LINE
8
BLACK
6
CONTINUOUS
10
9.7873040551181099
20
-5.938100078740157
11
9.7948031102362201
21
-5.9418496062992121
0
LINE
8
BLACK
6
CONTINUOUS
10
9.7948031102362201
20
-5.9418496062992121
11
9.7985526377952752
21
-5.945599173228346
0
LINE
8
BLACK
6
CONTINUOUS
10
9.7985526377952752
20
-5.945599173228346
11
9.8023021653543303
21
-5.9530982283464562
0
LINE
8
BLACK
6
CONTINUOUS
10
9.8023021653543303
20
-5.9530982283464562
11
9.8023021653543303
21
-5.9718458661417317
0
LINE
8
BLACK
6
CONTINUOUS
10
9.8023021653543303
20
-5.9718458661417317
11
9.7985526377952752
21
-5.979344921259842
0
LINE
8
BLACK
6
CONTINUOUS
10
9.7985526377952752
20
-5.979344921259842
11
9.7948031102362201
21
-5.9830944881889758
0
LINE
8
BLACK
6
CONTINUOUS
10
9.7948031102362201
20
-5.9830944881889758
11
9.7873040551181099
21
-5.9868440157480309
0
LINE
8
BLACK
6
CONTINUOUS
10
9.7873040551181099
20
-5.9868440157480309
11
9.7685563779527556
21
-5.9868440157480309
0
LINE
8
BLACK
6
CONTINUOUS
10
9.7685563779527556
20
-5.9868440157480309
11
9.7610573228346453
21
-5.9830944881889758
0
LINE
8
BLACK
6
CONTINUOUS
10
9.7610573228346453
20
-5.9830944881889758
11
9.7573077952755902
21
-5.979344921259842
0
LINE
8
BLACK
6
CONTINUOUS
10
9.8510460629921255
20
-5.9081038582677161
11
9.8585451574803145
21
-5.9081038582677161
0
LINE
8
BLACK
6
CONTINUOUS
10
9.8585451574803145
20
-5.9081038582677161
11
9.8660442125984247
21
-5.9118533858267712
0
LINE
8
BLACK
6
CONTINUOUS
10
9.8660442125984247
20
-5.9118533858267712
11
9.8697937401574798
21
-5.9156029133858263
0
LINE
8
BLACK
6
CONTINUOUS
10
9.8697937401574798
20
-5.9156029133858263
11
9.8735432677165349
21
-5.9231019685039366
0
LINE
8
BLACK
6
CONTINUOUS
10
9.8735432677165349
20
-5.9231019685039366
11
9.87729279527559
21
-5.938100078740157
0
LINE
8
BLACK
6
CONTINUOUS
10
9.87729279527559
20
-5.938100078740157
11
9.87729279527559
21
-5.9568477559055113
0
LINE
8
BLACK
6
CONTINUOUS
10
9.87729279527559
20
-5.9568477559055113
11
9.8735432677165349
21
-5.9718458661417317
0
LINE
8
BLACK
6
CONTINUOUS
10
9.8735432677165349
20
-5.9718458661417317
11
9.8697937401574798
21
-5.979344921259842
0
LINE
8
BLACK
6
CONTINUOUS
10
9.8697937401574798
20
-5.979344921259842
11
9.8660442125984247
21
-5.9830944881889758
0
LINE
8
BLACK
6
CONTINUOUS
10
9.8660442125984247
20
-5.9830944881889758
11
9.8585451574803145
21
-5.9868440157480309
0
LINE
8
BLACK
6
CONTINUOUS
10
9.8585451574803145
20
-5.9868440157480309
11
9.8510460629921255
21
-5.9868440157480309
0
LINE
8
BLACK
6
CONTINUOUS
10
9.8510460629921255
20
-5.9868440157480309
11
9.8435470078740153
21
-5.9830944881889758
0
LINE
8
BLACK
6
CONTINUOUS
10
9.8435470078740153
20
-5.9830944881889758
11
9.8397974803149602
21
-5.979344921259842
0
LINE
8
BLACK
6
CONTINUOUS
10
9.8397974803149602
20
-5.979344921259842
11
9.836047952755905
21
-5.9718458661417317
0
LINE
8
BLACK
6
CONTINUOUS
10
9.836047952755905
20
-5.9718458661417317
11
9.8322984251968499
21
-5.9568477559055113
0
LINE
8
BLACK
6
CONTINUOUS
10
9.8322984251968499
20
-5.9568477559055113
11
9.8322984251968499
21
-5.938100078740157
0
LINE
8
BLACK
6
CONTINUOUS
10
9.8322984251968499
20
-5.938100078740157
11
9.836047952755905
21
-5.9231019685039366
0
LINE
8
BLACK
6
CONTINUOUS
10
9.836047952755905
20
-5.9231019685039366
11
9.8397974803149602
21
-5.9156029133858263
0
LINE
8
BLACK
6
CONTINUOUS
10
9.8397974803149602
20
-5.9156029133858263
11
9.8435470078740153
21
-5.9118533858267712
0
LINE
8
BLACK
6
CONTINUOUS
10
9.8435470078740153
20
-5.9118533858267712
11
9.8510460629921255
21
-5.9081038582677161
0
LINE
8
BLACK
6
CONTINUOUS
10
9.9072890551181096
20
-5.9081038582677161
11
9.9072890551181096
21
-5.9231019685039366
0
LINE
8
BLACK
6
CONTINUOUS
10
9.9372853149606293
20
-5.9081038582677161
11
9.9372853149606293
21
-5.9231019685039366
0
LINE
8
BLACK
6
CONTINUOUS
10
10.0535208267716527
20
-6.0168402362204727
11
10.0497712598425188
21
-6.0130907086614176
0
LINE
8
BLACK
6
CONTINUOUS
10
10.0497712598425188
20
-6.0130907086614176
11
10.0422722047244086
21
-6.0018421259842523
0
LINE
8
BLACK
6
CONTINUOUS
10
10.0422722047244086
20
-6.0018421259842523
11
10.0385226771653535
21
-5.9943430708661412
0
LINE
8
BLACK
6
CONTINUOUS
10
10.0385226771653535
20
-5.9943430708661412
11
10.0347731496062984
21
-5.9830944881889758
0
LINE
8
BLACK
6
CONTINUOUS
10
10.0347731496062984
20
-5.9830944881889758
11
10.0310236220472433
21
-5.9643468110236215
0
LINE
8
BLACK
6
CONTINUOUS
10
10.0310236220472433
20
-5.9643468110236215
11
10.0310236220472433
21
-5.9493487007874011
0
LINE
8
BLACK
6
CONTINUOUS
10
10.0310236220472433
20
-5.9493487007874011
11
10.0347731496062984
21
-5.9306010236220468
0
LINE
8
BLACK
6
CONTINUOUS
10
10.0347731496062984
20
-5.9306010236220468
11
10.0385226771653535
21
-5.9193524409448814
0
LINE
8
BLACK
6
CONTINUOUS
10
10.0385226771653535
20
-5.9193524409448814
11
10.0422722047244086
21
-5.9118533858267712
0
LINE
8
BLACK
6
CONTINUOUS
10
10.0422722047244086
20
-5.9118533858267712
11
10.0497712598425188
21
-5.9006047637795271
0
LINE
8
BLACK
6
CONTINUOUS
10
10.0497712598425188
20
-5.9006047637795271
11
10.0535208267716527
21
-5.896855236220472
0
LINE
8
BLACK
6
CONTINUOUS
10
10.0760179921259834
20
-5.9081038582677161
11
10.1247618897637786
21
-5.9081038582677161
0
LINE
8
BLACK
6
CONTINUOUS
10
10.1247618897637786
20
-5.9081038582677161
11
10.098515157480314
21
-5.938100078740157
0
LINE
8
BLACK
6
CONTINUOUS
10
10.098515157480314
20
-5.938100078740157
11
10.1097637795275581
21
-5.938100078740157
0
LINE
8
BLACK
6
CONTINUOUS
10
10.1097637795275581
20
-5.938100078740157
11
10.1172628346456683
21
-5.9418496062992121
0
LINE
8
BLACK
6
CONTINUOUS
10
10.1172628346456683
20
-5.9418496062992121
11
10.1210123622047234
21
-5.945599173228346
0
LINE
8
BLACK
6
CONTINUOUS
10
10.1210123622047234
20
-5.945599173228346
11
10.1247618897637786
21
-5.9530982283464562
0
LINE
8
BLACK
6
CONTINUOUS
10
10.1247618897637786
20
-5.9530982283464562
11
10.1247618897637786
21
-5.9718458661417317
0
LINE
8
BLACK
6
CONTINUOUS
10
10.1247618897637786
20
-5.9718458661417317
11
10.1210123622047234
21
-5.979344921259842
0
LINE
8
BLACK
6
CONTINUOUS
10
10.1210123622047234
20
-5.979344921259842
11
10.1172628346456683
21
-5.9830944881889758
0
LINE
8
BLACK
6
CONTINUOUS
10
10.1172628346456683
20
-5.9830944881889758
11
10.1097637795275581
21
-5.9868440157480309
0
LINE
8
BLACK
6
CONTINUOUS
10
10.1097637795275581
20
-5.9868440157480309
11
10.0872665748031487
21
-5.9868440157480309
0
LINE
8
BLACK
6
CONTINUOUS
10
10.0872665748031487
20
-5.9868440157480309
11
10.0797675196850385
21
-5.9830944881889758
0
LINE
8
BLACK
6
CONTINUOUS
10
10.0797675196850385
20
-5.9830944881889758
11
10.0760179921259834
21
-5.979344921259842
0
LINE
8
BLACK
6
CONTINUOUS
10
10.2185001968503943
20
-5.9868440157480309
11
10.2185001968503943
21
-5.9081038582677161
0
LINE
8
BLACK
6
CONTINUOUS
10
10.2522459842519691
20
-5.9868440157480309
11
10.2522459842519691
21
-5.945599173228346
0
LINE
8
BLACK
6
CONTINUOUS
10
10.2522459842519691
20
-5.945599173228346
11
10.248496456692914
21
-5.938100078740157
0
LINE
8
BLACK
6
CONTINUOUS
10
10.248496456692914
20
-5.938100078740157
11
10.2409974015748038
21
-5.9343505511811019
0
LINE
8
BLACK
6
CONTINUOUS
10
10.2409974015748038
20
-5.9343505511811019
11
10.2297487795275597
21
-5.9343505511811019
0
LINE
8
BLACK
6
CONTINUOUS
10
10.2297487795275597
20
-5.9343505511811019
11
10.2222497244094495
21
-5.938100078740157
0
LINE
8
BLACK
6
CONTINUOUS
10
10.2222497244094495
20
-5.938100078740157
11
10.2185001968503943
21
-5.9418496062992121
0
LINE
8
BLACK
6
CONTINUOUS
10
10.3009898818897643
20
-5.9868440157480309
11
10.2934908267716541
21
-5.9830944881889758
0
LINE
8
BLACK
6
CONTINUOUS
10
10.2934908267716541
20
-5.9830944881889758
11
10.2897412992125989
21
-5.979344921259842
0
LINE
8
BLACK
6
CONTINUOUS
10
10.2897412992125989
20
-5.979344921259842
11
10.2859917716535438
21
-5.9718458661417317
0
LINE
8
BLACK
6
CONTINUOUS
10
10.2859917716535438
20
-5.9718458661417317
11
10.2859917716535438
21
-5.9493487007874011
0
LINE
8
BLACK
6
CONTINUOUS
10
10.2859917716535438
20
-5.9493487007874011
11
10.2897412992125989
21
-5.9418496062992121
0
LINE
8
BLACK
6
CONTINUOUS
10
10.2897412992125989
20
-5.9418496062992121
11
10.2934908267716541
21
-5.938100078740157
0
LINE
8
BLACK
6
CONTINUOUS
10
10.2934908267716541
20
-5.938100078740157
11
10.3009898818897643
21
-5.9343505511811019
0
LINE
8
BLACK
6
CONTINUOUS
10
10.3009898818897643
20
-5.9343505511811019
11
10.3122385039370084
21
-5.9343505511811019
0
LINE
8
BLACK
6
CONTINUOUS
10
10.3122385039370084
20
-5.9343505511811019
11
10.3197375590551186
21
-5.938100078740157
0
LINE
8
BLACK
6
CONTINUOUS
10
10.3197375590551186
20
-5.938100078740157
11
10.3234870866141737
21
-5.9418496062992121
0
LINE
8
BLACK
6
CONTINUOUS
10
10.3234870866141737
20
-5.9418496062992121
11
10.3272366141732288
21
-5.9493487007874011
0
LINE
8
BLACK
6
CONTINUOUS
10
10.3272366141732288
20
-5.9493487007874011
11
10.3272366141732288
21
-5.9718458661417317
0
LINE
8
BLACK
6
CONTINUOUS
10
10.3272366141732288
20
-5.9718458661417317
11
10.3234870866141737
21
-5.979344921259842
0
LINE
8
BLACK
6
CONTINUOUS
10
10.3234870866141737
20
-5.979344921259842
11
10.3197375590551186
21
-5.9830944881889758
0
LINE
8
BLACK
6
CONTINUOUS
10
10.3197375590551186
20
-5.9830944881889758
11
10.3122385039370084
21
-5.9868440157480309
0
LINE
8
BLACK
6
CONTINUOUS
10
10.3122385039370084
20
-5.9868440157480309
11
10.3009898818897643
21
-5.9868440157480309
0
LINE
8
BLACK
6
CONTINUOUS
10
10.3722309842519689
20
-5.9868440157480309
11
10.3647319291338587
21
-5.9830944881889758
0
LINE
8
BLACK
6
CONTINUOUS
10
10.3647319291338587
20
-5.9830944881889758
11
10.3609824015748035
21
-5.9755953937007869
0
LINE
8
BLACK
6
CONTINUOUS
10
10.3609824015748035
20
-5.9755953937007869
11
10.3609824015748035
21
-5.9081038582677161
0
LINE
8
BLACK
6
CONTINUOUS
10
10.4322235039370081
20
-5.9830944881889758
11
10.4247244488188979
21
-5.9868440157480309
0
LINE
8
BLACK
6
CONTINUOUS
10
10.4247244488188979
20
-5.9868440157480309
11
10.4097262992125987
21
-5.9868440157480309
0
LINE
8
BLACK
6
CONTINUOUS
10
10.4097262992125987
20
-5.9868440157480309
11
10.4022272440944885
21
-5.9830944881889758
0
LINE
8
BLACK
6
CONTINUOUS
10
10.4022272440944885
20
-5.9830944881889758
11
10.3984777165354334
21
-5.9755953937007869
0
LINE
8
BLACK
6
CONTINUOUS
10
10.3984777165354334
20
-5.9755953937007869
11
10.3984777165354334
21
-5.945599173228346
0
LINE
8
BLACK
6
CONTINUOUS
10
10.3984777165354334
20
-5.945599173228346
11
10.4022272440944885
21
-5.938100078740157
0
LINE
8
BLACK
6
CONTINUOUS
10
10.4022272440944885
20
-5.938100078740157
11
10.4097262992125987
21
-5.9343505511811019
0
LINE
8
BLACK
6
CONTINUOUS
10
10.4097262992125987
20
-5.9343505511811019
11
10.4247244488188979
21
-5.9343505511811019
0
LINE
8
BLACK
6
CONTINUOUS
10
10.4247244488188979
20
-5.9343505511811019
11
10.4322235039370081
21
-5.938100078740157
0
LINE
8
BLACK
6
CONTINUOUS
10
10.4322235039370081
20
-5.938100078740157
11
10.4359730314960633
21
-5.945599173228346
0
LINE
8
BLACK
6
CONTINUOUS
10
10.4359730314960633
20
-5.945599173228346
11
10.4359730314960633
21
-5.9530982283464562
0
LINE
8
BLACK
6
CONTINUOUS
10
10.4359730314960633
20
-5.9530982283464562
11
10.3984777165354334
21
-5.9605972834645664
0
LINE
8
BLACK
6
CONTINUOUS
10
10.4659692913385829
20
-5.9830944881889758
11
10.4734683464566931
21
-5.9868440157480309
0
LINE
8
BLACK
6
CONTINUOUS
10
10.4734683464566931
20
-5.9868440157480309
11
10.4884664566929136
21
-5.9868440157480309
0
LINE
8
BLACK
6
CONTINUOUS
10
10.4884664566929136
20
-5.9868440157480309
11
10.4959655511811025
21
-5.9830944881889758
0
LINE
8
BLACK
6
CONTINUOUS
10
10.4959655511811025
20
-5.9830944881889758
11
10.4997150787401576
21
-5.9755953937007869
0
LINE
8
BLACK
6
CONTINUOUS
10
10.4997150787401576
20
-5.9755953937007869
11
10.4997150787401576
21
-5.9718458661417317
0
LINE
8
BLACK
6
CONTINUOUS
10
10.4997150787401576
20
-5.9718458661417317
11
10.4959655511811025
21
-5.9643468110236215
0
LINE
8
BLACK
6
CONTINUOUS
10
10.4959655511811025
20
-5.9643468110236215
11
10.4884664566929136
21
-5.9605972834645664
0
LINE
8
BLACK
6
CONTINUOUS
10
10.4884664566929136
20
-5.9605972834645664
11
10.4772178740157482
21
-5.9605972834645664
0
LINE
8
BLACK
6
CONTINUOUS
10
10.4772178740157482
20
-5.9605972834645664
11
10.469718818897638
21
-5.9568477559055113
0
LINE
8
BLACK
6
CONTINUOUS
10
10.469718818897638
20
-5.9568477559055113
11
10.4659692913385829
21
-5.9493487007874011
0
LINE
8
BLACK
6
CONTINUOUS
10
10.4659692913385829
20
-5.9493487007874011
11
10.4659692913385829
21
-5.945599173228346
0
LINE
8
BLACK
6
CONTINUOUS
10
10.4659692913385829
20
-5.945599173228346
11
10.469718818897638
21
-5.938100078740157
0
LINE
8
BLACK
6
CONTINUOUS
10
10.469718818897638
20
-5.938100078740157
11
10.4772178740157482
21
-5.9343505511811019
0
LINE
8
BLACK
6
CONTINUOUS
10
10.4772178740157482
20
-5.9343505511811019
11
10.4884664566929136
21
-5.9343505511811019
0
LINE
8
BLACK
6
CONTINUOUS
10
10.4884664566929136
20
-5.9343505511811019
11
10.4959655511811025
21
-5.938100078740157
0
LINE
8
BLACK
6
CONTINUOUS
10
10.5934533858267717
20
-5.9568477559055113
11
10.6534459055118109
21
-5.9568477559055113
0
LINE
8
BLACK
6
CONTINUOUS
10
10.6234496456692913
20
-5.9868440157480309
11
10.6234496456692913
21
-5.9268514960629917
0
LINE
8
BLACK
6
CONTINUOUS
10
10.7921785433070863
20
-5.9868440157480309
11
10.7471841732283462
21
-5.9868440157480309
0
LINE
8
BLACK
6
CONTINUOUS
10
10.7696813385826768
20
-5.9868440157480309
11
10.7696813385826768
21
-5.9081038582677161
0
LINE
8
BLACK
6
CONTINUOUS
10
10.7696813385826768
20
-5.9081038582677161
11
10.7621822834645666
21
-5.9193524409448814
0
LINE
8
BLACK
6
CONTINUOUS
10
10.7621822834645666
20
-5.9193524409448814
11
10.7546832283464564
21
-5.9268514960629917
0
LINE
8
BLACK
6
CONTINUOUS
10
10.7546832283464564
20
-5.9268514960629917
11
10.7471841732283462
21
-5.9306010236220468
0
LINE
8
BLACK
6
CONTINUOUS
10
10.8821673228346452
20
-5.9830944881889758
11
10.8896663779527554
21
-5.9868440157480309
0
LINE
8
BLACK
6
CONTINUOUS
10
10.8896663779527554
20
-5.9868440157480309
11
10.9046644881889758
21
-5.9868440157480309
0
LINE
8
BLACK
6
CONTINUOUS
10
10.9046644881889758
20
-5.9868440157480309
11
10.9121635826771648
21
-5.9830944881889758
0
LINE
8
BLACK
6
CONTINUOUS
10
10.9121635826771648
20
-5.9830944881889758
11
10.9159131102362199
21
-5.9755953937007869
0
LINE
8
BLACK
6
CONTINUOUS
10
10.9159131102362199
20
-5.9755953937007869
11
10.9159131102362199
21
-5.9718458661417317
0
LINE
8
BLACK
6
CONTINUOUS
10
10.9159131102362199
20
-5.9718458661417317
11
10.9121635826771648
21
-5.9643468110236215
0
LINE
8
BLACK
6
CONTINUOUS
10
10.9121635826771648
20
-5.9643468110236215
11
10.9046644881889758
21
-5.9605972834645664
0
LINE
8
BLACK
6
CONTINUOUS
10
10.9046644881889758
20
-5.9605972834645664
11
10.8934159055118105
21
-5.9605972834645664
0
LINE
8
BLACK
6
CONTINUOUS
10
10.8934159055118105
20
-5.9605972834645664
11
10.8859168503937003
21
-5.9568477559055113
0
LINE
8
BLACK
6
CONTINUOUS
10
10.8859168503937003
20
-5.9568477559055113
11
10.8821673228346452
21
-5.9493487007874011
0
LINE
8
BLACK
6
CONTINUOUS
10
10.8821673228346452
20
-5.9493487007874011
11
10.8821673228346452
21
-5.945599173228346
0
LINE
8
BLACK
6
CONTINUOUS
10
10.8821673228346452
20
-5.945599173228346
11
10.8859168503937003
21
-5.938100078740157
0
LINE
8
BLACK
6
CONTINUOUS
10
10.8859168503937003
20
-5.938100078740157
11
10.8934159055118105
21
-5.9343505511811019
0
LINE
8
BLACK
6
CONTINUOUS
10
10.8934159055118105
20
-5.9343505511811019
11
10.9046644881889758
21
-5.9343505511811019
0
LINE
8
BLACK
6
CONTINUOUS
10
10.9046644881889758
20
-5.9343505511811019
11
10.9121635826771648
21
-5.938100078740157
0
LINE
8
BLACK
6
CONTINUOUS
10
10.96090748031496
20
-5.9868440157480309
11
10.9534084251968498
21
-5.9830944881889758
0
LINE
8
BLACK
6
CONTINUOUS
10
10.9534084251968498
20
-5.9830944881889758
11
10.9496588976377947
21
-5.9755953937007869
0
LINE
8
BLACK
6
CONTINUOUS
10
10.9496588976377947
20
-5.9755953937007869
11
10.9496588976377947
21
-5.9081038582677161
0
LINE
8
BLACK
6
CONTINUOUS
10
11.0021523228346449
20
-5.9868440157480309
11
10.9946532677165347
21
-5.9830944881889758
0
LINE
8
BLACK
6
CONTINUOUS
10
10.9946532677165347
20
-5.9830944881889758
11
10.9909037401574796
21
-5.979344921259842
0
LINE
8
BLACK
6
CONTINUOUS
10
10.9909037401574796
20
-5.979344921259842
11
10.9871542125984245
21
-5.9718458661417317
0
LINE
8
BLACK
6
CONTINUOUS
10
10.9871542125984245
20
-5.9718458661417317
11
10.9871542125984245
21
-5.9493487007874011
0
LINE
8
BLACK
6
CONTINUOUS
10
10.9871542125984245
20
-5.9493487007874011
11
10.9909037401574796
21
-5.9418496062992121
0
LINE
8
BLACK
6
CONTINUOUS
10
10.9909037401574796
20
-5.9418496062992121
11
10.9946532677165347
21
-5.938100078740157
0
LINE
8
BLACK
6
CONTINUOUS
10
10.9946532677165347
20
-5.938100078740157
11
11.0021523228346449
21
-5.9343505511811019
0
LINE
8
BLACK
6
CONTINUOUS
10
11.0021523228346449
20
-5.9343505511811019
11
11.013400944881889
21
-5.9343505511811019
0
LINE
8
BLACK
6
CONTINUOUS
10
11.013400944881889
20
-5.9343505511811019
11
11.0208999999999993
21
-5.938100078740157
0
LINE
8
BLACK
6
CONTINUOUS
10
11.0208999999999993
20
-5.938100078740157
11
11.0246495275590544
21
-5.9418496062992121
0
LINE
8
BLACK
6
CONTINUOUS
10
11.0246495275590544
20
-5.9418496062992121
11
11.0283990551181095
21
-5.9493487007874011
0
LINE
8
BLACK
6
CONTINUOUS
10
11.0283990551181095
20
-5.9493487007874011
11
11.0283990551181095
21
-5.9718458661417317
0
LINE
8
BLACK
6
CONTINUOUS
10
11.0283990551181095
20
-5.9718458661417317
11
11.0246495275590544
21
-5.979344921259842
0
LINE
8
BLACK
6
CONTINUOUS
10
11.0246495275590544
20
-5.979344921259842
11
11.0208999999999993
21
-5.9830944881889758
0
LINE
8
BLACK
6
CONTINUOUS
10
11.0208999999999993
20
-5.9830944881889758
11
11.013400944881889
21
-5.9868440157480309
0
LINE
8
BLACK
6
CONTINUOUS
10
11.013400944881889
20
-5.9868440157480309
11
11.0021523228346449
21
-5.9868440157480309
0
LINE
8
BLACK
6
CONTINUOUS
10
11.0508962598425189
20
-5.9343505511811019
11
11.0808924803149598
21
-5.9343505511811019
0
LINE
8
BLACK
6
CONTINUOUS
10
11.0621448425196842
20
-5.9081038582677161
11
11.0621448425196842
21
-5.9755953937007869
0
LINE
8
BLACK
6
CONTINUOUS
10
11.0621448425196842
20
-5.9755953937007869
11
11.0658943700787393
21
-5.9830944881889758
0
LINE
8
BLACK
6
CONTINUOUS
10
11.0658943700787393
20
-5.9830944881889758
11
11.0733934251968495
21
-5.9868440157480309
0
LINE
8
BLACK
6
CONTINUOUS
10
11.0733934251968495
20
-5.9868440157480309
11
11.0808924803149598
21
-5.9868440157480309
0
LINE
8
BLACK
6
CONTINUOUS
10
11.0996401574803141
20
-6.0168402362204727
11
11.1033896850393692
21
-6.0130907086614176
0
LINE
8
BLACK
6
CONTINUOUS
10
11.1033896850393692
20
-6.0130907086614176
11
11.1108887401574794
21
-6.0018421259842523
0
LINE
8
BLACK
6
CONTINUOUS
10
11.1108887401574794
20
-6.0018421259842523
11
11.1146382677165345
21
-5.9943430708661412
0
LINE
8
BLACK
6
CONTINUOUS
10
11.1146382677165345
20
-5.9943430708661412
11
11.1183877952755896
21
-5.9830944881889758
0
LINE
8
BLACK
6
CONTINUOUS
10
11.1183877952755896
20
-5.9830944881889758
11
11.1221373228346447
21
-5.9643468110236215
0
LINE
8
BLACK
6
CONTINUOUS
10
11.1221373228346447
20
-5.9643468110236215
11
11.1221373228346447
21
-5.9493487007874011
0
LINE
8
BLACK
6
CONTINUOUS
10
11.1221373228346447
20
-5.9493487007874011
11
11.1183877952755896
21
-5.9306010236220468
0
LINE
8
BLACK
6
CONTINUOUS
10
11.1183877952755896
20
-5.9306010236220468
11
11.1146382677165345
21
-5.9193524409448814
0
LINE
8
BLACK
6
CONTINUOUS
10
11.1146382677165345
20
-5.9193524409448814
11
11.1108887401574794
21
-5.9118533858267712
0
LINE
8
BLACK
6
CONTINUOUS
10
11.1108887401574794
20
-5.9118533858267712
11
11.1033896850393692
21
-5.9006047637795271
0
LINE
8
BLACK
6
CONTINUOUS
10
11.1033896850393692
20
-5.9006047637795271
11
11.0996401574803141
21
-5.896855236220472
0
LINE
8
BLACK
6
CONTINUOUS
10
8.634484803149606
20
-6.1046501574803145
11
8.634484803149606
21
-6.048971889763779
0
LINE
8
BLACK
6
CONTINUOUS
10
8.634484803149606
20
-6.048971889763779
11
8.5788065354330705
21
-6.048971889763779
0
LINE
8
BLACK
6
CONTINUOUS
10
8.5788065354330705
20
-6.048971889763779
11
8.5788065354330705
21
-6.1046501574803145
0
LINE
8
BLACK
6
CONTINUOUS
10
8.5788065354330705
20
-6.1046501574803145
11
8.634484803149606
21
-6.1046501574803145
0
LINE
8
BLACK
6
CONTINUOUS
10
8.7411847244094485
20
-6.0340881102362207
11
8.7899286220472437
21
-6.0340881102362207
0
LINE
8
BLACK
6
CONTINUOUS
10
8.7899286220472437
20
-6.0340881102362207
11
8.7636818897637792
21
-6.0640843307086616
0
LINE
8
BLACK
6
CONTINUOUS
10
8.7636818897637792
20
-6.0640843307086616
11
8.7749305118110232
21
-6.0640843307086616
0
LINE
8
BLACK
6
CONTINUOUS
10
8.7749305118110232
20
-6.0640843307086616
11
8.7824295669291335
21
-6.0678338582677167
0
LINE
8
BLACK
6
CONTINUOUS
10
8.7824295669291335
20
-6.0678338582677167
11
8.7861790944881886
21
-6.0715834251968506
0
LINE
8
BLACK
6
CONTINUOUS
10
8.7861790944881886
20
-6.0715834251968506
11
8.7899286220472437
21
-6.0790824803149608
0
LINE
8
BLACK
6
CONTINUOUS
10
8.7899286220472437
20
-6.0790824803149608
11
8.7899286220472437
21
-6.0978301181102363
0
LINE
8
BLACK
6
CONTINUOUS
10
8.7899286220472437
20
-6.0978301181102363
11
8.7861790944881886
21
-6.1053291732283466
0
LINE
8
BLACK
6
CONTINUOUS
10
8.7861790944881886
20
-6.1053291732283466
11
8.7824295669291335
21
-6.1090787401574804
0
LINE
8
BLACK
6
CONTINUOUS
10
8.7824295669291335
20
-6.1090787401574804
11
8.7749305118110232
21
-6.1128282677165355
0
LINE
8
BLACK
6
CONTINUOUS
10
8.7749305118110232
20
-6.1128282677165355
11
8.7524333070866138
21
-6.1128282677165355
0
LINE
8
BLACK
6
CONTINUOUS
10
8.7524333070866138
20
-6.1128282677165355
11
8.7449342519685036
21
-6.1090787401574804
0
LINE
8
BLACK
6
CONTINUOUS
10
8.7449342519685036
20
-6.1090787401574804
11
8.7411847244094485
21
-6.1053291732283466
0
LINE
8
BLACK
6
CONTINUOUS
10
8.8236744094488184
20
-6.1053291732283466
11
8.8274239370078735
21
-6.1090787401574804
0
LINE
8
BLACK
6
CONTINUOUS
10
8.8274239370078735
20
-6.1090787401574804
11
8.8236744094488184
21
-6.1128282677165355
0
LINE
8
BLACK
6
CONTINUOUS
10
8.8236744094488184
20
-6.1128282677165355
11
8.8199248818897633
21
-6.1090787401574804
0
LINE
8
BLACK
6
CONTINUOUS
10
8.8199248818897633
20
-6.1090787401574804
11
8.8236744094488184
21
-6.1053291732283466
0
LINE
8
BLACK
6
CONTINUOUS
10
8.8236744094488184
20
-6.1053291732283466
11
8.8236744094488184
21
-6.1128282677165355
0
LINE
8
BLACK
6
CONTINUOUS
10
8.894915511811023
20
-6.0603348031496065
11
8.894915511811023
21
-6.1128282677165355
0
LINE
8
BLACK
6
CONTINUOUS
10
8.8761678346456687
20
-6.0303385826771656
11
8.8574201968503932
21
-6.086581535433071
0
LINE
8
BLACK
6
CONTINUOUS
10
8.8574201968503932
20
-6.086581535433071
11
8.9061640944881884
21
-6.086581535433071
0
LINE
8
BLACK
6
CONTINUOUS
10
8.9511584645669284
20
-6.0340881102362207
11
8.9586575590551174
21
-6.0340881102362207
0
LINE
8
BLACK
6
CONTINUOUS
10
8.9586575590551174
20
-6.0340881102362207
11
8.9661566141732276
21
-6.0378376377952758
0
LINE
8
BLACK
6
CONTINUOUS
10
8.9661566141732276
20
-6.0378376377952758
11
8.9699061417322827
21
-6.0415871653543309
0
LINE
8
BLACK
6
CONTINUOUS
10
8.9699061417322827
20
-6.0415871653543309
11
8.9736556692913378
21
-6.0490862204724412
0
LINE
8
BLACK
6
CONTINUOUS
10
8.9736556692913378
20
-6.0490862204724412
11
8.977405196850393
21
-6.0640843307086616
0
LINE
8
BLACK
6
CONTINUOUS
10
8.977405196850393
20
-6.0640843307086616
11
8.977405196850393
21
-6.0828320078740159
0
LINE
8
BLACK
6
CONTINUOUS
10
8.977405196850393
20
-6.0828320078740159
11
8.9736556692913378
21
-6.0978301181102363
0
LINE
8
BLACK
6
CONTINUOUS
10
8.9736556692913378
20
-6.0978301181102363
11
8.9699061417322827
21
-6.1053291732283466
0
LINE
8
BLACK
6
CONTINUOUS
10
8.9699061417322827
20
-6.1053291732283466
11
8.9661566141732276
21
-6.1090787401574804
0
LINE
8
BLACK
6
CONTINUOUS
10
8.9661566141732276
20
-6.1090787401574804
11
8.9586575590551174
21
-6.1128282677165355
0
LINE
8
BLACK
6
CONTINUOUS
10
8.9586575590551174
20
-6.1128282677165355
11
8.9511584645669284
21
-6.1128282677165355
0
LINE
8
BLACK
6
CONTINUOUS
10
8.9511584645669284
20
-6.1128282677165355
11
8.9436594094488182
21
-6.1090787401574804
0
LINE
8
BLACK
6
CONTINUOUS
10
8.9436594094488182
20
-6.1090787401574804
11
8.9399098818897631
21
-6.1053291732283466
0
LINE
8
BLACK
6
CONTINUOUS
10
8.9399098818897631
20
-6.1053291732283466
11
8.936160354330708
21
-6.0978301181102363
0
LINE
8
BLACK
6
CONTINUOUS
10
8.936160354330708
20
-6.0978301181102363
11
8.9324108267716529
21
-6.0828320078740159
0
LINE
8
BLACK
6
CONTINUOUS
10
8.9324108267716529
20
-6.0828320078740159
11
8.9324108267716529
21
-6.0640843307086616
0
LINE
8
BLACK
6
CONTINUOUS
10
8.9324108267716529
20
-6.0640843307086616
11
8.936160354330708
21
-6.0490862204724412
0
LINE
8
BLACK
6
CONTINUOUS
10
8.936160354330708
20
-6.0490862204724412
11
8.9399098818897631
21
-6.0415871653543309
0
LINE
8
BLACK
6
CONTINUOUS
10
8.9399098818897631
20
-6.0415871653543309
11
8.9436594094488182
21
-6.0378376377952758
0
LINE
8
BLACK
6
CONTINUOUS
10
8.9436594094488182
20
-6.0378376377952758
11
8.9511584645669284
21
-6.0340881102362207
0
LINE
8
BLACK
6
CONTINUOUS
10
9.0261490944881881
20
-6.0340881102362207
11
9.0336481889763771
21
-6.0340881102362207
0
LINE
8
BLACK
6
CONTINUOUS
10
9.0336481889763771
20
-6.0340881102362207
11
9.0411472440944873
21
-6.0378376377952758
0
LINE
8
BLACK
6
CONTINUOUS
10
9.0411472440944873
20
-6.0378376377952758
11
9.0448967716535424
21
-6.0415871653543309
0
LINE
8
BLACK
6
CONTINUOUS
10
9.0448967716535424
20
-6.0415871653543309
11
9.0486462992125976
21
-6.0490862204724412
0
LINE
8
BLACK
6
CONTINUOUS
10
9.0486462992125976
20
-6.0490862204724412
11
9.0523958267716527
21
-6.0640843307086616
0
LINE
8
BLACK
6
CONTINUOUS
10
9.0523958267716527
20
-6.0640843307086616
11
9.0523958267716527
21
-6.0828320078740159
0
LINE
8
BLACK
6
CONTINUOUS
10
9.0523958267716527
20
-6.0828320078740159
11
9.0486462992125976
21
-6.0978301181102363
0
LINE
8
BLACK
6
CONTINUOUS
10
9.0486462992125976
20
-6.0978301181102363
11
9.0448967716535424
21
-6.1053291732283466
0
LINE
8
BLACK
6
CONTINUOUS
10
9.0448967716535424
20
-6.1053291732283466
11
9.0411472440944873
21
-6.1090787401574804
0
LINE
8
BLACK
6
CONTINUOUS
10
9.0411472440944873
20
-6.1090787401574804
11
9.0336481889763771
21
-6.1128282677165355
0
LINE
8
BLACK
6
CONTINUOUS
10
9.0336481889763771
20
-6.1128282677165355
11
9.0261490944881881
21
-6.1128282677165355
0
LINE
8
BLACK
6
CONTINUOUS
10
9.0261490944881881
20
-6.1128282677165355
11
9.0186500393700779
21
-6.1090787401574804
0
LINE
8
BLACK
6
CONTINUOUS
10
9.0186500393700779
20
-6.1090787401574804
11
9.0149005118110228
21
-6.1053291732283466
0
LINE
8
BLACK
6
CONTINUOUS
10
9.0149005118110228
20
-6.1053291732283466
11
9.0111509842519677
21
-6.0978301181102363
0
LINE
8
BLACK
6
CONTINUOUS
10
9.0111509842519677
20
-6.0978301181102363
11
9.0074014566929126
21
-6.0828320078740159
0
LINE
8
BLACK
6
CONTINUOUS
10
9.0074014566929126
20
-6.0828320078740159
11
9.0074014566929126
21
-6.0640843307086616
0
LINE
8
BLACK
6
CONTINUOUS
10
9.0074014566929126
20
-6.0640843307086616
11
9.0111509842519677
21
-6.0490862204724412
0
LINE
8
BLACK
6
CONTINUOUS
10
9.0111509842519677
20
-6.0490862204724412
11
9.0149005118110228
21
-6.0415871653543309
0
LINE
8
BLACK
6
CONTINUOUS
10
9.0149005118110228
20
-6.0415871653543309
11
9.0186500393700779
21
-6.0378376377952758
0
LINE
8
BLACK
6
CONTINUOUS
10
9.0186500393700779
20
-6.0378376377952758
11
9.0261490944881881
21
-6.0340881102362207
0
LINE
8
BLACK
6
CONTINUOUS
10
9.0861416141732274
20
-6.1128282677165355
11
9.0861416141732274
21
-6.0603348031496065
0
LINE
8
BLACK
6
CONTINUOUS
10
9.0861416141732274
20
-6.0678338582677167
11
9.0898911417322825
21
-6.0640843307086616
0
LINE
8
BLACK
6
CONTINUOUS
10
9.0898911417322825
20
-6.0640843307086616
11
9.0973901968503927
21
-6.0603348031496065
0
LINE
8
BLACK
6
CONTINUOUS
10
9.0973901968503927
20
-6.0603348031496065
11
9.1086388188976368
21
-6.0603348031496065
0
LINE
8
BLACK
6
CONTINUOUS
10
9.1086388188976368
20
-6.0603348031496065
11
9.116137874015747
21
-6.0640843307086616
0
LINE
8
BLACK
6
CONTINUOUS
10
9.116137874015747
20
-6.0640843307086616
11
9.1198874015748022
21
-6.0715834251968506
0
LINE
8
BLACK
6
CONTINUOUS
10
9.1198874015748022
20
-6.0715834251968506
11
9.1198874015748022
21
-6.1128282677165355
0
LINE
8
BLACK
6
CONTINUOUS
10
9.1198874015748022
20
-6.0715834251968506
11
9.1236369291338573
21
-6.0640843307086616
0
LINE
8
BLACK
6
CONTINUOUS
10
9.1236369291338573
20
-6.0640843307086616
11
9.1311359842519675
21
-6.0603348031496065
0
LINE
8
BLACK
6
CONTINUOUS
10
9.1311359842519675
20
-6.0603348031496065
11
9.1423845669291328
21
-6.0603348031496065
0
LINE
8
BLACK
6
CONTINUOUS
10
9.1423845669291328
20
-6.0603348031496065
11
9.1498836614173218
21
-6.0640843307086616
0
LINE
8
BLACK
6
CONTINUOUS
10
9.1498836614173218
20
-6.0640843307086616
11
9.1536331889763769
21
-6.0715834251968506
0
LINE
8
BLACK
6
CONTINUOUS
10
9.1536331889763769
20
-6.0715834251968506
11
9.1536331889763769
21
-6.1128282677165355
0
LINE
8
BLACK
6
CONTINUOUS
10
9.1911285039370085
20
-6.1128282677165355
11
9.1911285039370085
21
-6.0603348031496065
0
LINE
8
BLACK
6
CONTINUOUS
10
9.1911285039370085
20
-6.0678338582677167
11
9.1948780314960636
21
-6.0640843307086616
0
LINE
8
BLACK
6
CONTINUOUS
10
9.1948780314960636
20
-6.0640843307086616
11
9.2023770866141739
21
-6.0603348031496065
0
LINE
8
BLACK
6
CONTINUOUS
10
9.2023770866141739
20
-6.0603348031496065
11
9.2136257086614179
21
-6.0603348031496065
0
LINE
8
BLACK
6
CONTINUOUS
10
9.2136257086614179
20
-6.0603348031496065
11
9.2211247637795282
21
-6.0640843307086616
0
LINE
8
BLACK
6
CONTINUOUS
10
9.2211247637795282
20
-6.0640843307086616
11
9.2248742913385833
21
-6.0715834251968506
0
LINE
8
BLACK
6
CONTINUOUS
10
9.2248742913385833
20
-6.0715834251968506
11
9.2248742913385833
21
-6.1128282677165355
0
LINE
8
BLACK
6
CONTINUOUS
10
9.2248742913385833
20
-6.0715834251968506
11
9.2286238188976384
21
-6.0640843307086616
0
LINE
8
BLACK
6
CONTINUOUS
10
9.2286238188976384
20
-6.0640843307086616
11
9.2361228740157486
21
-6.0603348031496065
0
LINE
8
BLACK
6
CONTINUOUS
10
9.2361228740157486
20
-6.0603348031496065
11
9.2473714566929139
21
-6.0603348031496065
0
LINE
8
BLACK
6
CONTINUOUS
10
9.2473714566929139
20
-6.0603348031496065
11
9.2548705511811029
21
-6.0640843307086616
0
LINE
8
BLACK
6
CONTINUOUS
10
9.2548705511811029
20
-6.0640843307086616
11
9.258620078740158
21
-6.0715834251968506
0
LINE
8
BLACK
6
CONTINUOUS
10
9.258620078740158
20
-6.0715834251968506
11
9.258620078740158
21
-6.1128282677165355
0
LINE
8
BLACK
6
CONTINUOUS
10
9.4123508661417326
20
-6.0303385826771656
11
9.3448593307086618
21
-6.1315759055118111
0
LINE
8
BLACK
6
CONTINUOUS
10
9.5135882283464568
20
-6.0340881102362207
11
9.5210873228346458
21
-6.0340881102362207
0
LINE
8
BLACK
6
CONTINUOUS
10
9.5210873228346458
20
-6.0340881102362207
11
9.528586377952756
21
-6.0378376377952758
0
LINE
8
BLACK
6
CONTINUOUS
10
9.528586377952756
20
-6.0378376377952758
11
9.5323359055118111
21
-6.0415871653543309
0
LINE
8
BLACK
6
CONTINUOUS
10
9.5323359055118111
20
-6.0415871653543309
11
9.5360854330708662
21
-6.0490862204724412
0
LINE
8
BLACK
6
CONTINUOUS
10
9.5360854330708662
20
-6.0490862204724412
11
9.5398349606299213
21
-6.0640843307086616
0
LINE
8
BLACK
6
CONTINUOUS
10
9.5398349606299213
20
-6.0640843307086616
11
9.5398349606299213
21
-6.0828320078740159
0
LINE
8
BLACK
6
CONTINUOUS
10
9.5398349606299213
20
-6.0828320078740159
11
9.5360854330708662
21
-6.0978301181102363
0
LINE
8
BLACK
6
CONTINUOUS
10
9.5360854330708662
20
-6.0978301181102363
11
9.5323359055118111
21
-6.1053291732283466
0
LINE
8
BLACK
6
CONTINUOUS
10
9.5323359055118111
20
-6.1053291732283466
11
9.528586377952756
21
-6.1090787401574804
0
LINE
8
BLACK
6
CONTINUOUS
10
9.528586377952756
20
-6.1090787401574804
11
9.5210873228346458
21
-6.1128282677165355
0
LINE
8
BLACK
6
CONTINUOUS
10
9.5210873228346458
20
-6.1128282677165355
11
9.5135882283464568
21
-6.1128282677165355
0
LINE
8
BLACK
6
CONTINUOUS
10
9.5135882283464568
20
-6.1128282677165355
11
9.5060891732283466
21
-6.1090787401574804
0
LINE
8
BLACK
6
CONTINUOUS
10
9.5060891732283466
20
-6.1090787401574804
11
9.5023396456692915
21
-6.1053291732283466
0
LINE
8
BLACK
6
CONTINUOUS
10
9.5023396456692915
20
-6.1053291732283466
11
9.4985901181102363
21
-6.0978301181102363
0
LINE
8
BLACK
6
CONTINUOUS
10
9.4985901181102363
20
-6.0978301181102363
11
9.4948405905511812
21
-6.0828320078740159
0
LINE
8
BLACK
6
CONTINUOUS
10
9.4948405905511812
20
-6.0828320078740159
11
9.4948405905511812
21
-6.0640843307086616
0
LINE
8
BLACK
6
CONTINUOUS
10
9.4948405905511812
20
-6.0640843307086616
11
9.4985901181102363
21
-6.0490862204724412
0
LINE
8
BLACK
6
CONTINUOUS
10
9.4985901181102363
20
-6.0490862204724412
11
9.5023396456692915
21
-6.0415871653543309
0
LINE
8
BLACK
6
CONTINUOUS
10
9.5023396456692915
20
-6.0415871653543309
11
9.5060891732283466
21
-6.0378376377952758
0
LINE
8
BLACK
6
CONTINUOUS
10
9.5060891732283466
20
-6.0378376377952758
11
9.5135882283464568
21
-6.0340881102362207
0
LINE
8
BLACK
6
CONTINUOUS
10
9.5735807480314961
20
-6.1053291732283466
11
9.5773302755905512
21
-6.1090787401574804
0
LINE
8
BLACK
6
CONTINUOUS
10
9.5773302755905512
20
-6.1090787401574804
11
9.5735807480314961
21
-6.1128282677165355
0
LINE
8
BLACK
6
CONTINUOUS
10
9.5735807480314961
20
-6.1128282677165355
11
9.5698312204724409
21
-6.1090787401574804
0
LINE
8
BLACK
6
CONTINUOUS
10
9.5698312204724409
20
-6.1090787401574804
11
9.5735807480314961
21
-6.1053291732283466
0
LINE
8
BLACK
6
CONTINUOUS
10
9.5735807480314961
20
-6.1053291732283466
11
9.5735807480314961
21
-6.1128282677165355
0
LINE
8
BLACK
6
CONTINUOUS
10
9.6523209055118109
20
-6.1128282677165355
11
9.6073265354330708
21
-6.1128282677165355
0
LINE
8
BLACK
6
CONTINUOUS
10
9.6298237007874015
20
-6.1128282677165355
11
9.6298237007874015
21
-6.0340881102362207
0
LINE
8
BLACK
6
CONTINUOUS
10
9.6298237007874015
20
-6.0340881102362207
11
9.6223246456692912
21
-6.045336692913386
0
LINE
8
BLACK
6
CONTINUOUS
10
9.6223246456692912
20
-6.045336692913386
11
9.614825590551181
21
-6.0528357480314963
0
LINE
8
BLACK
6
CONTINUOUS
10
9.614825590551181
20
-6.0528357480314963
11
9.6073265354330708
21
-6.0565852755905514
0
LINE
8
BLACK
6
CONTINUOUS
10
9.6785676377952754
20
-6.0340881102362207
11
9.7273115354330706
21
-6.0340881102362207
0
LINE
8
BLACK
6
CONTINUOUS
10
9.7273115354330706
20
-6.0340881102362207
11
9.7010648031496061
21
-6.0640843307086616
0
LINE
8
BLACK
6
CONTINUOUS
10
9.7010648031496061
20
-6.0640843307086616
11
9.7123134251968501
21
-6.0640843307086616
0
LINE
8
BLACK
6
CONTINUOUS
10
9.7123134251968501
20
-6.0640843307086616
11
9.7198124803149604
21
-6.0678338582677167
0
LINE
8
BLACK
6
CONTINUOUS
10
9.7198124803149604
20
-6.0678338582677167
11
9.7235620078740155
21
-6.0715834251968506
0
LINE
8
BLACK
6
CONTINUOUS
10
9.7235620078740155
20
-6.0715834251968506
11
9.7273115354330706
21
-6.0790824803149608
0
LINE
8
BLACK
6
CONTINUOUS
10
9.7273115354330706
20
-6.0790824803149608
11
9.7273115354330706
21
-6.0978301181102363
0
LINE
8
BLACK
6
CONTINUOUS
10
9.7273115354330706
20
-6.0978301181102363
11
9.7235620078740155
21
-6.1053291732283466
0
LINE
8
BLACK
6
CONTINUOUS
10
9.7235620078740155
20
-6.1053291732283466
11
9.7198124803149604
21
-6.1090787401574804
0
LINE
8
BLACK
6
CONTINUOUS
10
9.7198124803149604
20
-6.1090787401574804
11
9.7123134251968501
21
-6.1128282677165355
0
LINE
8
BLACK
6
CONTINUOUS
10
9.7123134251968501
20
-6.1128282677165355
11
9.6898162204724407
21
-6.1128282677165355
0
LINE
8
BLACK
6
CONTINUOUS
10
9.6898162204724407
20
-6.1128282677165355
11
9.6823171653543305
21
-6.1090787401574804
0
LINE
8
BLACK
6
CONTINUOUS
10
9.6823171653543305
20
-6.1090787401574804
11
9.6785676377952754
21
-6.1053291732283466
0
LINE
8
BLACK
6
CONTINUOUS
10
9.7535582677165351
20
-6.0340881102362207
11
9.8023021653543303
21
-6.0340881102362207
0
LINE
8
BLACK
6
CONTINUOUS
10
9.8023021653543303
20
-6.0340881102362207
11
9.7760554330708658
21
-6.0640843307086616
0
LINE
8
BLACK
6
CONTINUOUS
10
9.7760554330708658
20
-6.0640843307086616
11
9.7873040551181099
21
-6.0640843307086616
0
LINE
8
BLACK
6
CONTINUOUS
10
9.7873040551181099
20
-6.0640843307086616
11
9.7948031102362201
21
-6.0678338582677167
0
LINE
8
BLACK
6
CONTINUOUS
10
9.7948031102362201
20
-6.0678338582677167
11
9.7985526377952752
21
-6.0715834251968506
0
LINE
8
BLACK
6
CONTINUOUS
10
9.7985526377952752
20
-6.0715834251968506
11
9.8023021653543303
21
-6.0790824803149608
0
LINE
8
BLACK
6
CONTINUOUS
10
9.8023021653543303
20
-6.0790824803149608
11
9.8023021653543303
21
-6.0978301181102363
0
LINE
8
BLACK
6
CONTINUOUS
10
9.8023021653543303
20
-6.0978301181102363
11
9.7985526377952752
21
-6.1053291732283466
0
LINE
8
BLACK
6
CONTINUOUS
10
9.7985526377952752
20
-6.1053291732283466
11
9.7948031102362201
21
-6.1090787401574804
0
LINE
8
BLACK
6
CONTINUOUS
10
9.7948031102362201
20
-6.1090787401574804
11
9.7873040551181099
21
-6.1128282677165355
0
LINE
8
BLACK
6
CONTINUOUS
10
9.7873040551181099
20
-6.1128282677165355
11
9.7648068503937004
21
-6.1128282677165355
0
LINE
8
BLACK
6
CONTINUOUS
10
9.7648068503937004
20
-6.1128282677165355
11
9.7573077952755902
21
-6.1090787401574804
0
LINE
8
BLACK
6
CONTINUOUS
10
9.7573077952755902
20
-6.1090787401574804
11
9.7535582677165351
21
-6.1053291732283466
0
LINE
8
BLACK
6
CONTINUOUS
10
9.8397974803149602
20
-6.1128282677165355
11
9.8547955905511806
21
-6.1128282677165355
0
LINE
8
BLACK
6
CONTINUOUS
10
9.8547955905511806
20
-6.1128282677165355
11
9.8622946850393696
21
-6.1090787401574804
0
LINE
8
BLACK
6
CONTINUOUS
10
9.8622946850393696
20
-6.1090787401574804
11
9.8660442125984247
21
-6.1053291732283466
0
LINE
8
BLACK
6
CONTINUOUS
10
9.8660442125984247
20
-6.1053291732283466
11
9.8735432677165349
21
-6.0940805905511812
0
LINE
8
BLACK
6
CONTINUOUS
10
9.8735432677165349
20
-6.0940805905511812
11
9.87729279527559
21
-6.0790824803149608
0
LINE
8
BLACK
6
CONTINUOUS
10
9.87729279527559
20
-6.0790824803149608
11
9.87729279527559
21
-6.0490862204724412
0
LINE
8
BLACK
6
CONTINUOUS
10
9.87729279527559
20
-6.0490862204724412
11
9.8735432677165349
21
-6.0415871653543309
0
LINE
8
BLACK
6
CONTINUOUS
10
9.8735432677165349
20
-6.0415871653543309
11
9.8697937401574798
21
-6.0378376377952758
0
LINE
8
BLACK
6
CONTINUOUS
10
9.8697937401574798
20
-6.0378376377952758
11
9.8622946850393696
21
-6.0340881102362207
0
LINE
8
BLACK
6
CONTINUOUS
10
9.8622946850393696
20
-6.0340881102362207
11
9.8472965354330704
21
-6.0340881102362207
0
LINE
8
BLACK
6
CONTINUOUS
10
9.8472965354330704
20
-6.0340881102362207
11
9.8397974803149602
21
-6.0378376377952758
0
LINE
8
BLACK
6
CONTINUOUS
10
9.8397974803149602
20
-6.0378376377952758
11
9.836047952755905
21
-6.0415871653543309
0
LINE
8
BLACK
6
CONTINUOUS
10
9.836047952755905
20
-6.0415871653543309
11
9.8322984251968499
21
-6.0490862204724412
0
LINE
8
BLACK
6
CONTINUOUS
10
9.8322984251968499
20
-6.0490862204724412
11
9.8322984251968499
21
-6.0678338582677167
0
LINE
8
BLACK
6
CONTINUOUS
10
9.8322984251968499
20
-6.0678338582677167
11
9.836047952755905
21
-6.0753329527559057
0
LINE
8
BLACK
6
CONTINUOUS
10
9.836047952755905
20
-6.0753329527559057
11
9.8397974803149602
21
-6.0790824803149608
0
LINE
8
BLACK
6
CONTINUOUS
10
9.8397974803149602
20
-6.0790824803149608
11
9.8472965354330704
21
-6.0828320078740159
0
LINE
8
BLACK
6
CONTINUOUS
10
9.8472965354330704
20
-6.0828320078740159
11
9.8622946850393696
21
-6.0828320078740159
0
LINE
8
BLACK
6
CONTINUOUS
10
9.8622946850393696
20
-6.0828320078740159
11
9.8697937401574798
21
-6.0790824803149608
0
LINE
8
BLACK
6
CONTINUOUS
10
9.8697937401574798
20
-6.0790824803149608
11
9.8735432677165349
21
-6.0753329527559057
0
LINE
8
BLACK
6
CONTINUOUS
10
9.8735432677165349
20
-6.0753329527559057
11
9.87729279527559
21
-6.0678338582677167
0
LINE
8
BLACK
6
CONTINUOUS
10
9.9072890551181096
20
-6.0340881102362207
11
9.9072890551181096
21
-6.0490862204724412
0
LINE
8
BLACK
6
CONTINUOUS
10
9.9372853149606293
20
-6.0340881102362207
11
9.9372853149606293
21
-6.0490862204724412
0
LINE
8
BLACK
6
CONTINUOUS
10
10.0535208267716527
20
-6.1428244881889764
11
10.0497712598425188
21
-6.1390749606299213
0
LINE
8
BLACK
6
CONTINUOUS
10
10.0497712598425188
20
-6.1390749606299213
11
10.0422722047244086
21
-6.127826377952756
0
LINE
8
BLACK
6
CONTINUOUS
10
10.0422722047244086
20
-6.127826377952756
11
10.0385226771653535
21
-6.1203273228346458
0
LINE
8
BLACK
6
CONTINUOUS
10
10.0385226771653535
20
-6.1203273228346458
11
10.0347731496062984
21
-6.1090787401574804
0
LINE
8
BLACK
6
CONTINUOUS
10
10.0347731496062984
20
-6.1090787401574804
11
10.0310236220472433
21
-6.0903310629921261
0
LINE
8
BLACK
6
CONTINUOUS
10
10.0310236220472433
20
-6.0903310629921261
11
10.0310236220472433
21
-6.0753329527559057
0
LINE
8
BLACK
6
CONTINUOUS
10
10.0310236220472433
20
-6.0753329527559057
11
10.0347731496062984
21
-6.0565852755905514
0
LINE
8
BLACK
6
CONTINUOUS
10
10.0347731496062984
20
-6.0565852755905514
11
10.0385226771653535
21
-6.045336692913386
0
LINE
8
BLACK
6
CONTINUOUS
10
10.0385226771653535
20
-6.045336692913386
11
10.0422722047244086
21
-6.0378376377952758
0
LINE
8
BLACK
6
CONTINUOUS
10
10.0422722047244086
20
-6.0378376377952758
11
10.0497712598425188
21
-6.0265890157480317
0
LINE
8
BLACK
6
CONTINUOUS
10
10.0497712598425188
20
-6.0265890157480317
11
10.0535208267716527
21
-6.0228394881889766
0
LINE
8
BLACK
6
CONTINUOUS
10
10.0797675196850385
20
-6.0415871653543309
11
10.0835170472440936
21
-6.0378376377952758
0
LINE
8
BLACK
6
CONTINUOUS
10
10.0835170472440936
20
-6.0378376377952758
11
10.0910161023622038
21
-6.0340881102362207
0
LINE
8
BLACK
6
CONTINUOUS
10
10.0910161023622038
20
-6.0340881102362207
11
10.1097637795275581
21
-6.0340881102362207
0
LINE
8
BLACK
6
CONTINUOUS
10
10.1097637795275581
20
-6.0340881102362207
11
10.1172628346456683
21
-6.0378376377952758
0
LINE
8
BLACK
6
CONTINUOUS
10
10.1172628346456683
20
-6.0378376377952758
11
10.1210123622047234
21
-6.0415871653543309
0
LINE
8
BLACK
6
CONTINUOUS
10
10.1210123622047234
20
-6.0415871653543309
11
10.1247618897637786
21
-6.0490862204724412
0
LINE
8
BLACK
6
CONTINUOUS
10
10.1247618897637786
20
-6.0490862204724412
11
10.1247618897637786
21
-6.0565852755905514
0
LINE
8
BLACK
6
CONTINUOUS
10
10.1247618897637786
20
-6.0565852755905514
11
10.1210123622047234
21
-6.0678338582677167
0
LINE
8
BLACK
6
CONTINUOUS
10
10.1210123622047234
20
-6.0678338582677167
11
10.0760179921259834
21
-6.1128282677165355
0
LINE
8
BLACK
6
CONTINUOUS
10
10.0760179921259834
20
-6.1128282677165355
11
10.1247618897637786
21
-6.1128282677165355
0
LINE
8
BLACK
6
CONTINUOUS
10
10.2185001968503943
20
-6.1128282677165355
11
10.2185001968503943
21
-6.0340881102362207
0
LINE
8
BLACK
6
CONTINUOUS
10
10.2522459842519691
20
-6.1128282677165355
11
10.2522459842519691
21
-6.0715834251968506
0
LINE
8
BLACK
6
CONTINUOUS
10
10.2522459842519691
20
-6.0715834251968506
11
10.248496456692914
21
-6.0640843307086616
0
LINE
8
BLACK
6
CONTINUOUS
10
10.248496456692914
20
-6.0640843307086616
11
10.2409974015748038
21
-6.0603348031496065
0
LINE
8
BLACK
6
CONTINUOUS
10
10.2409974015748038
20
-6.0603348031496065
11
10.2297487795275597
21
-6.0603348031496065
0
LINE
8
BLACK
6
CONTINUOUS
10
10.2297487795275597
20
-6.0603348031496065
11
10.2222497244094495
21
-6.0640843307086616
0
LINE
8
BLACK
6
CONTINUOUS
10
10.2222497244094495
20
-6.0640843307086616
11
10.2185001968503943
21
-6.0678338582677167
0
LINE
8
BLACK
6
CONTINUOUS
10
10.3009898818897643
20
-6.1128282677165355
11
10.2934908267716541
21
-6.1090787401574804
0
LINE
8
BLACK
6
CONTINUOUS
10
10.2934908267716541
20
-6.1090787401574804
11
10.2897412992125989
21
-6.1053291732283466
0
LINE
8
BLACK
6
CONTINUOUS
10
10.2897412992125989
20
-6.1053291732283466
11
10.2859917716535438
21
-6.0978301181102363
0
LINE
8
BLACK
6
CONTINUOUS
10
10.2859917716535438
20
-6.0978301181102363
11
10.2859917716535438
21
-6.0753329527559057
0
LINE
8
BLACK
6
CONTINUOUS
10
10.2859917716535438
20
-6.0753329527559057
11
10.2897412992125989
21
-6.0678338582677167
0
LINE
8
BLACK
6
CONTINUOUS
10
10.2897412992125989
20
-6.0678338582677167
11
10.2934908267716541
21
-6.0640843307086616
0
LINE
8
BLACK
6
CONTINUOUS
10
10.2934908267716541
20
-6.0640843307086616
11
10.3009898818897643
21
-6.0603348031496065
0
LINE
8
BLACK
6
CONTINUOUS
10
10.3009898818897643
20
-6.0603348031496065
11
10.3122385039370084
21
-6.0603348031496065
0
LINE
8
BLACK
6
CONTINUOUS
10
10.3122385039370084
20
-6.0603348031496065
11
10.3197375590551186
21
-6.0640843307086616
0
LINE
8
BLACK
6
CONTINUOUS
10
10.3197375590551186
20
-6.0640843307086616
11
10.3234870866141737
21
-6.0678338582677167
0
LINE
8
BLACK
6
CONTINUOUS
10
10.3234870866141737
20
-6.0678338582677167
11
10.3272366141732288
21
-6.0753329527559057
0
LINE
8
BLACK
6
CONTINUOUS
10
10.3272366141732288
20
-6.0753329527559057
11
10.3272366141732288
21
-6.0978301181102363
0
LINE
8
BLACK
6
CONTINUOUS
10
10.3272366141732288
20
-6.0978301181102363
11
10.3234870866141737
21
-6.1053291732283466
0
LINE
8
BLACK
6
CONTINUOUS
10
10.3234870866141737
20
-6.1053291732283466
11
10.3197375590551186
21
-6.1090787401574804
0
LINE
8
BLACK
6
CONTINUOUS
10
10.3197375590551186
20
-6.1090787401574804
11
10.3122385039370084
21
-6.1128282677165355
0
LINE
8
BLACK
6
CONTINUOUS
10
10.3122385039370084
20
-6.1128282677165355
11
10.3009898818897643
21
-6.1128282677165355
0
LINE
8
BLACK
6
CONTINUOUS
10
10.3722309842519689
20
-6.1128282677165355
11
10.3647319291338587
21
-6.1090787401574804
0
LINE
8
BLACK
6
CONTINUOUS
10
10.3647319291338587
20
-6.1090787401574804
11
10.3609824015748035
21
-6.1015796456692915
0
LINE
8
BLACK
6
CONTINUOUS
10
10.3609824015748035
20
-6.1015796456692915
11
10.3609824015748035
21
-6.0340881102362207
0
LINE
8
BLACK
6
CONTINUOUS
10
10.4322235039370081
20
-6.1090787401574804
11
10.4247244488188979
21
-6.1128282677165355
0
LINE
8
BLACK
6
CONTINUOUS
10
10.4247244488188979
20
-6.1128282677165355
11
10.4097262992125987
21
-6.1128282677165355
0
LINE
8
BLACK
6
CONTINUOUS
10
10.4097262992125987
20
-6.1128282677165355
11
10.4022272440944885
21
-6.1090787401574804
0
LINE
8
BLACK
6
CONTINUOUS
10
10.4022272440944885
20
-6.1090787401574804
11
10.3984777165354334
21
-6.1015796456692915
0
LINE
8
BLACK
6
CONTINUOUS
10
10.3984777165354334
20
-6.1015796456692915
11
10.3984777165354334
21
-6.0715834251968506
0
LINE
8
BLACK
6
CONTINUOUS
10
10.3984777165354334
20
-6.0715834251968506
11
10.4022272440944885
21
-6.0640843307086616
0
LINE
8
BLACK
6
CONTINUOUS
10
10.4022272440944885
20
-6.0640843307086616
11
10.4097262992125987
21
-6.0603348031496065
0
LINE
8
BLACK
6
CONTINUOUS
10
10.4097262992125987
20
-6.0603348031496065
11
10.4247244488188979
21
-6.0603348031496065
0
LINE
8
BLACK
6
CONTINUOUS
10
10.4247244488188979
20
-6.0603348031496065
11
10.4322235039370081
21
-6.0640843307086616
0
LINE
8
BLACK
6
CONTINUOUS
10
10.4322235039370081
20
-6.0640843307086616
11
10.4359730314960633
21
-6.0715834251968506
0
LINE
8
BLACK
6
CONTINUOUS
10
10.4359730314960633
20
-6.0715834251968506
11
10.4359730314960633
21
-6.0790824803149608
0
LINE
8
BLACK
6
CONTINUOUS
10
10.4359730314960633
20
-6.0790824803149608
11
10.3984777165354334
21
-6.086581535433071
0
LINE
8
BLACK
6
CONTINUOUS
10
10.4659692913385829
20
-6.1090787401574804
11
10.4734683464566931
21
-6.1128282677165355
0
LINE
8
BLACK
6
CONTINUOUS
10
10.4734683464566931
20
-6.1128282677165355
11
10.4884664566929136
21
-6.1128282677165355
0
LINE
8
BLACK
6
CONTINUOUS
10
10.4884664566929136
20
-6.1128282677165355
11
10.4959655511811025
21
-6.1090787401574804
0
LINE
8
BLACK
6
CONTINUOUS
10
10.4959655511811025
20
-6.1090787401574804
11
10.4997150787401576
21
-6.1015796456692915
0
LINE
8
BLACK
6
CONTINUOUS
10
10.4997150787401576
20
-6.1015796456692915
11
10.4997150787401576
21
-6.0978301181102363
0
LINE
8
BLACK
6
CONTINUOUS
10
10.4997150787401576
20
-6.0978301181102363
11
10.4959655511811025
21
-6.0903310629921261
0
LINE
8
BLACK
6
CONTINUOUS
10
10.4959655511811025
20
-6.0903310629921261
11
10.4884664566929136
21
-6.086581535433071
0
LINE
8
BLACK
6
CONTINUOUS
10
10.4884664566929136
20
-6.086581535433071
11
10.4772178740157482
21
-6.086581535433071
0
LINE
8
BLACK
6
CONTINUOUS
10
10.4772178740157482
20
-6.086581535433071
11
10.469718818897638
21
-6.0828320078740159
0
LINE
8
BLACK
6
CONTINUOUS
10
10.469718818897638
20
-6.0828320078740159
11
10.4659692913385829
21
-6.0753329527559057
0
LINE
8
BLACK
6
CONTINUOUS
10
10.4659692913385829
20
-6.0753329527559057
11
10.4659692913385829
21
-6.0715834251968506
0
LINE
8
BLACK
6
CONTINUOUS
10
10.4659692913385829
20
-6.0715834251968506
11
10.469718818897638
21
-6.0640843307086616
0
LINE
8
BLACK
6
CONTINUOUS
10
10.469718818897638
20
-6.0640843307086616
11
10.4772178740157482
21
-6.0603348031496065
0
LINE
8
BLACK
6
CONTINUOUS
10
10.4772178740157482
20
-6.0603348031496065
11
10.4884664566929136
21
-6.0603348031496065
0
LINE
8
BLACK
6
CONTINUOUS
10
10.4884664566929136
20
-6.0603348031496065
11
10.4959655511811025
21
-6.0640843307086616
0
LINE
8
BLACK
6
CONTINUOUS
10
10.5259618110236222
20
-6.1428244881889764
11
10.5297113385826773
21
-6.1390749606299213
0
LINE
8
BLACK
6
CONTINUOUS
10
10.5297113385826773
20
-6.1390749606299213
11
10.5372103937007875
21
-6.127826377952756
0
LINE
8
BLACK
6
CONTINUOUS
10
10.5372103937007875
20
-6.127826377952756
11
10.5409599212598426
21
-6.1203273228346458
0
LINE
8
BLACK
6
CONTINUOUS
10
10.5409599212598426
20
-6.1203273228346458
11
10.5447094488188977
21
-6.1090787401574804
0
LINE
8
BLACK
6
CONTINUOUS
10
10.5447094488188977
20
-6.1090787401574804
11
10.5484589763779528
21
-6.0903310629921261
0
LINE
8
BLACK
6
CONTINUOUS
10
10.5484589763779528
20
-6.0903310629921261
11
10.5484589763779528
21
-6.0753329527559057
0
LINE
8
BLACK
6
CONTINUOUS
10
10.5484589763779528
20
-6.0753329527559057
11
10.5447094488188977
21
-6.0565852755905514
0
LINE
8
BLACK
6
CONTINUOUS
10
10.5447094488188977
20
-6.0565852755905514
11
10.5409599212598426
21
-6.045336692913386
0
LINE
8
BLACK
6
CONTINUOUS
10
10.5409599212598426
20
-6.045336692913386
11
10.5372103937007875
21
-6.0378376377952758
0
LINE
8
BLACK
6
CONTINUOUS
10
10.5372103937007875
20
-6.0378376377952758
11
10.5297113385826773
21
-6.0265890157480317
0
LINE
8
BLACK
6
CONTINUOUS
10
10.5297113385826773
20
-6.0265890157480317
11
10.5259618110236222
21
-6.0228394881889766
0
LINE
8
BLACK
6
CONTINUOUS
10
10.6684440157480314
20
-6.1428244881889764
11
10.6646944488188975
21
-6.1390749606299213
0
LINE
8
BLACK
6
CONTINUOUS
10
10.6646944488188975
20
-6.1390749606299213
11
10.6571953937007873
21
-6.127826377952756
0
LINE
8
BLACK
6
CONTINUOUS
10
10.6571953937007873
20
-6.127826377952756
11
10.6534458661417322
21
-6.1203273228346458
0
LINE
8
BLACK
6
CONTINUOUS
10
10.6534458661417322
20
-6.1203273228346458
11
10.6496963385826771
21
-6.1090787401574804
0
LINE
8
BLACK
6
CONTINUOUS
10
10.6496963385826771
20
-6.1090787401574804
11
10.6459468110236219
21
-6.0903310629921261
0
LINE
8
BLACK
6
CONTINUOUS
10
10.6459468110236219
20
-6.0903310629921261
11
10.6459468110236219
21
-6.0753329527559057
0
LINE
8
BLACK
6
CONTINUOUS
10
10.6459468110236219
20
-6.0753329527559057
11
10.6496963385826771
21
-6.0565852755905514
0
LINE
8
BLACK
6
CONTINUOUS
10
10.6496963385826771
20
-6.0565852755905514
11
10.6534458661417322
21
-6.045336692913386
0
LINE
8
BLACK
6
CONTINUOUS
10
10.6534458661417322
20
-6.045336692913386
11
10.6571953937007873
21
-6.0378376377952758
0
LINE
8
BLACK
6
CONTINUOUS
10
10.6571953937007873
20
-6.0378376377952758
11
10.6646944488188975
21
-6.0265890157480317
0
LINE
8
BLACK
6
CONTINUOUS
10
10.6646944488188975
20
-6.0265890157480317
11
10.6684440157480314
21
-6.0228394881889766
0
LINE
8
BLACK
6
CONTINUOUS
10
10.6984402362204722
20
-6.0603348031496065
11
10.6984402362204722
21
-6.1128282677165355
0
LINE
8
BLACK
6
CONTINUOUS
10
10.6984402362204722
20
-6.0678338582677167
11
10.7021897637795274
21
-6.0640843307086616
0
LINE
8
BLACK
6
CONTINUOUS
10
10.7021897637795274
20
-6.0640843307086616
11
10.7096888188976376
21
-6.0603348031496065
0
LINE
8
BLACK
6
CONTINUOUS
10
10.7096888188976376
20
-6.0603348031496065
11
10.7209374409448817
21
-6.0603348031496065
0
LINE
8
BLACK
6
CONTINUOUS
10
10.7209374409448817
20
-6.0603348031496065
11
10.7284364960629919
21
-6.0640843307086616
0
LINE
8
BLACK
6
CONTINUOUS
10
10.7284364960629919
20
-6.0640843307086616
11
10.732186023622047
21
-6.0715834251968506
0
LINE
8
BLACK
6
CONTINUOUS
10
10.732186023622047
20
-6.0715834251968506
11
10.732186023622047
21
-6.1128282677165355
0
LINE
8
BLACK
6
CONTINUOUS
10
10.7809299212598422
20
-6.1128282677165355
11
10.773430866141732
21
-6.1090787401574804
0
LINE
8
BLACK
6
CONTINUOUS
10
10.773430866141732
20
-6.1090787401574804
11
10.7696813385826768
21
-6.1053291732283466
0
LINE
8
BLACK
6
CONTINUOUS
10
10.7696813385826768
20
-6.1053291732283466
11
10.7659318110236217
21
-6.0978301181102363
0
LINE
8
BLACK
6
CONTINUOUS
10
10.7659318110236217
20
-6.0978301181102363
11
10.7659318110236217
21
-6.0753329527559057
0
LINE
8
BLACK
6
CONTINUOUS
10
10.7659318110236217
20
-6.0753329527559057
11
10.7696813385826768
21
-6.0678338582677167
0
LINE
8
BLACK
6
CONTINUOUS
10
10.7696813385826768
20
-6.0678338582677167
11
10.773430866141732
21
-6.0640843307086616
0
LINE
8
BLACK
6
CONTINUOUS
10
10.773430866141732
20
-6.0640843307086616
11
10.7809299212598422
21
-6.0603348031496065
0
LINE
8
BLACK
6
CONTINUOUS
10
10.7809299212598422
20
-6.0603348031496065
11
10.7921785433070863
21
-6.0603348031496065
0
LINE
8
BLACK
6
CONTINUOUS
10
10.7921785433070863
20
-6.0603348031496065
11
10.7996775984251965
21
-6.0640843307086616
0
LINE
8
BLACK
6
CONTINUOUS
10
10.7996775984251965
20
-6.0640843307086616
11
10.8034271259842516
21
-6.0678338582677167
0
LINE
8
BLACK
6
CONTINUOUS
10
10.8034271259842516
20
-6.0678338582677167
11
10.8071766535433067
21
-6.0753329527559057
0
LINE
8
BLACK
6
CONTINUOUS
10
10.8071766535433067
20
-6.0753329527559057
11
10.8071766535433067
21
-6.0978301181102363
0
LINE
8
BLACK
6
CONTINUOUS
10
10.8071766535433067
20
-6.0978301181102363
11
10.8034271259842516
21
-6.1053291732283466
0
LINE
8
BLACK
6
CONTINUOUS
10
10.8034271259842516
20
-6.1053291732283466
11
10.7996775984251965
21
-6.1090787401574804
0
LINE
8
BLACK
6
CONTINUOUS
10
10.7996775984251965
20
-6.1090787401574804
11
10.7921785433070863
21
-6.1128282677165355
0
LINE
8
BLACK
6
CONTINUOUS
10
10.7921785433070863
20
-6.1128282677165355
11
10.7809299212598422
21
-6.1128282677165355
0
LINE
8
BLACK
6
CONTINUOUS
10
10.8296738582677161
20
-6.0603348031496065
11
10.859670078740157
21
-6.0603348031496065
0
LINE
8
BLACK
6
CONTINUOUS
10
10.8409224409448814
20
-6.0340881102362207
11
10.8409224409448814
21
-6.1015796456692915
0
LINE
8
BLACK
6
CONTINUOUS
10
10.8409224409448814
20
-6.1015796456692915
11
10.8446719685039366
21
-6.1090787401574804
0
LINE
8
BLACK
6
CONTINUOUS
10
10.8446719685039366
20
-6.1090787401574804
11
10.8521710236220468
21
-6.1128282677165355
0
LINE
8
BLACK
6
CONTINUOUS
10
10.8521710236220468
20
-6.1128282677165355
11
10.859670078740157
21
-6.1128282677165355
0
LINE
8
BLACK
6
CONTINUOUS
10
10.9459093307086608
20
-6.0603348031496065
11
10.9459093307086608
21
-6.1390749606299213
0
LINE
8
BLACK
6
CONTINUOUS
10
10.9459093307086608
20
-6.0640843307086616
11
10.953408385826771
21
-6.0603348031496065
0
LINE
8
BLACK
6
CONTINUOUS
10
10.953408385826771
20
-6.0603348031496065
11
10.9684065354330702
21
-6.0603348031496065
0
LINE
8
BLACK
6
CONTINUOUS
10
10.9684065354330702
20
-6.0603348031496065
11
10.9759055905511804
21
-6.0640843307086616
0
LINE
8
BLACK
6
CONTINUOUS
10
10.9759055905511804
20
-6.0640843307086616
11
10.9796551181102355
21
-6.0678338582677167
0
LINE
8
BLACK
6
CONTINUOUS
10
10.9796551181102355
20
-6.0678338582677167
11
10.9834046456692906
21
-6.0753329527559057
0
LINE
8
BLACK
6
CONTINUOUS
10
10.9834046456692906
20
-6.0753329527559057
11
10.9834046456692906
21
-6.0978301181102363
0
LINE
8
BLACK
6
CONTINUOUS
10
10.9834046456692906
20
-6.0978301181102363
11
10.9796551181102355
21
-6.1053291732283466
0
LINE
8
BLACK
6
CONTINUOUS
10
10.9796551181102355
20
-6.1053291732283466
11
10.9759055905511804
21
-6.1090787401574804
0
LINE
8
BLACK
6
CONTINUOUS
10
10.9759055905511804
20
-6.1090787401574804
11
10.9684065354330702
21
-6.1128282677165355
0
LINE
8
BLACK
6
CONTINUOUS
10
10.9684065354330702
20
-6.1128282677165355
11
10.953408385826771
21
-6.1128282677165355
0
LINE
8
BLACK
6
CONTINUOUS
10
10.953408385826771
20
-6.1128282677165355
11
10.9459093307086608
21
-6.1090787401574804
0
LINE
8
BLACK
6
CONTINUOUS
10
11.0283990157480307
20
-6.1128282677165355
11
11.0208999606299205
21
-6.1090787401574804
0
LINE
8
BLACK
6
CONTINUOUS
10
11.0208999606299205
20
-6.1090787401574804
11
11.0171504330708654
21
-6.1015796456692915
0
LINE
8
BLACK
6
CONTINUOUS
10
11.0171504330708654
20
-6.1015796456692915
11
11.0171504330708654
21
-6.0340881102362207
0
LINE
8
BLACK
6
CONTINUOUS
10
11.0921410629921251
20
-6.1128282677165355
11
11.0921410629921251
21
-6.0715834251968506
0
LINE
8
BLACK
6
CONTINUOUS
10
11.0921410629921251
20
-6.0715834251968506
11
11.08839153543307
21
-6.0640843307086616
0
LINE
8
BLACK
6
CONTINUOUS
10
11.08839153543307
20
-6.0640843307086616
11
11.0808924803149598
21
-6.0603348031496065
0
LINE
8
BLACK
6
CONTINUOUS
10
11.0808924803149598
20
-6.0603348031496065
11
11.0658943307086606
21
-6.0603348031496065
0
LINE
8
BLACK
6
CONTINUOUS
10
11.0658943307086606
20
-6.0603348031496065
11
11.0583952755905504
21
-6.0640843307086616
0
LINE
8
BLACK
6
CONTINUOUS
10
11.0921410629921251
20
-6.1090787401574804
11
11.0846420078740149
21
-6.1128282677165355
0
LINE
8
BLACK
6
CONTINUOUS
10
11.0846420078740149
20
-6.1128282677165355
11
11.0658943307086606
21
-6.1128282677165355
0
LINE
8
BLACK
6
CONTINUOUS
10
11.0658943307086606
20
-6.1128282677165355
11
11.0583952755905504
21
-6.1090787401574804
0
LINE
8
BLACK
6
CONTINUOUS
10
11.0583952755905504
20
-6.1090787401574804
11
11.0546457480314952
21
-6.1015796456692915
0
LINE
8
BLACK
6
CONTINUOUS
10
11.0546457480314952
20
-6.1015796456692915
11
11.0546457480314952
21
-6.0940805905511812
0
LINE
8
BLACK
6
CONTINUOUS
10
11.0546457480314952
20
-6.0940805905511812
11
11.0583952755905504
21
-6.086581535433071
0
LINE
8
BLACK
6
CONTINUOUS
10
11.0583952755905504
20
-6.086581535433071
11
11.0658943307086606
21
-6.0828320078740159
0
LINE
8
BLACK
6
CONTINUOUS
10
11.0658943307086606
20
-6.0828320078740159
11
11.0846420078740149
21
-6.0828320078740159
0
LINE
8
BLACK
6
CONTINUOUS
10
11.0846420078740149
20
-6.0828320078740159
11
11.0921410629921251
21
-6.0790824803149608
0
LINE
8
BLACK
6
CONTINUOUS
10
11.1183877952755896
20
-6.0603348031496065
11
11.1483840157480305
21
-6.0603348031496065
0
LINE
8
BLACK
6
CONTINUOUS
10
11.129636377952755
20
-6.0340881102362207
11
11.129636377952755
21
-6.1015796456692915
0
LINE
8
BLACK
6
CONTINUOUS
10
11.129636377952755
20
-6.1015796456692915
11
11.1333859055118101
21
-6.1090787401574804
0
LINE
8
BLACK
6
CONTINUOUS
10
11.1333859055118101
20
-6.1090787401574804
11
11.1408849606299203
21
-6.1128282677165355
0
LINE
8
BLACK
6
CONTINUOUS
10
11.1408849606299203
20
-6.1128282677165355
11
11.1483840157480305
21
-6.1128282677165355
0
LINE
8
BLACK
6
CONTINUOUS
10
11.2046270078740147
20
-6.1090787401574804
11
11.1971279527559044
21
-6.1128282677165355
0
LINE
8
BLACK
6
CONTINUOUS
10
11.1971279527559044
20
-6.1128282677165355
11
11.1821298031496053
21
-6.1128282677165355
0
LINE
8
BLACK
6
CONTINUOUS
10
11.1821298031496053
20
-6.1128282677165355
11
11.174630748031495
21
-6.1090787401574804
0
LINE
8
BLACK
6
CONTINUOUS
10
11.174630748031495
20
-6.1090787401574804
11
11.1708812204724399
21
-6.1015796456692915
0
LINE
8
BLACK
6
CONTINUOUS
10
11.1708812204724399
20
-6.1015796456692915
11
11.1708812204724399
21
-6.0715834251968506
0
LINE
8
BLACK
6
CONTINUOUS
10
11.1708812204724399
20
-6.0715834251968506
11
11.174630748031495
21
-6.0640843307086616
0
LINE
8
BLACK
6
CONTINUOUS
10
11.174630748031495
20
-6.0640843307086616
11
11.1821298031496053
21
-6.0603348031496065
0
LINE
8
BLACK
6
CONTINUOUS
10
11.1821298031496053
20
-6.0603348031496065
11
11.1971279527559044
21
-6.0603348031496065
0
LINE
8
BLACK
6
CONTINUOUS
10
11.1971279527559044
20
-6.0603348031496065
11
11.2046270078740147
21
-6.0640843307086616
0
LINE
8
BLACK
6
CONTINUOUS
10
11.2046270078740147
20
-6.0640843307086616
11
11.2083765354330698
21
-6.0715834251968506
0
LINE
8
BLACK
6
CONTINUOUS
10
11.2083765354330698
20
-6.0715834251968506
11
11.2083765354330698
21
-6.0790824803149608
0
LINE
8
BLACK
6
CONTINUOUS
10
11.2083765354330698
20
-6.0790824803149608
11
11.1708812204724399
21
-6.086581535433071
0
LINE
8
BLACK
6
CONTINUOUS
10
11.275868110236221
20
-6.1128282677165355
11
11.275868110236221
21
-6.0340881102362207
0
LINE
8
BLACK
6
CONTINUOUS
10
11.275868110236221
20
-6.1090787401574804
11
11.2683690551181108
21
-6.1128282677165355
0
LINE
8
BLACK
6
CONTINUOUS
10
11.2683690551181108
20
-6.1128282677165355
11
11.2533709055118116
21
-6.1128282677165355
0
LINE
8
BLACK
6
CONTINUOUS
10
11.2533709055118116
20
-6.1128282677165355
11
11.2458718503937014
21
-6.1090787401574804
0
LINE
8
BLACK
6
CONTINUOUS
10
11.2458718503937014
20
-6.1090787401574804
11
11.2421223228346463
21
-6.1053291732283466
0
LINE
8
BLACK
6
CONTINUOUS
10
11.2421223228346463
20
-6.1053291732283466
11
11.2383727952755894
21
-6.0978301181102363
0
LINE
8
BLACK
6
CONTINUOUS
10
11.2383727952755894
20
-6.0978301181102363
11
11.2383727952755894
21
-6.0753329527559057
0
LINE
8
BLACK
6
CONTINUOUS
10
11.2383727952755894
20
-6.0753329527559057
11
11.2421223228346463
21
-6.0678338582677167
0
LINE
8
BLACK
6
CONTINUOUS
10
11.2421223228346463
20
-6.0678338582677167
11
11.2458718503937014
21
-6.0640843307086616
0
LINE
8
BLACK
6
CONTINUOUS
10
11.2458718503937014
20
-6.0640843307086616
11
11.2533709055118116
21
-6.0603348031496065
0
LINE
8
BLACK
6
CONTINUOUS
10
11.2533709055118116
20
-6.0603348031496065
11
11.2683690551181108
21
-6.0603348031496065
0
LINE
8
BLACK
6
CONTINUOUS
10
11.2683690551181108
20
-6.0603348031496065
11
11.275868110236221
21
-6.0640843307086616
0
LINE
8
BLACK
6
CONTINUOUS
10
11.3058643700787407
20
-6.1428244881889764
11
11.3096138976377958
21
-6.1390749606299213
0
LINE
8
BLACK
6
CONTINUOUS
10
11.3096138976377958
20
-6.1390749606299213
11
11.317112952755906
21
-6.127826377952756
0
LINE
8
BLACK
6
CONTINUOUS
10
11.317112952755906
20
-6.127826377952756
11
11.3208624803149611
21
-6.1203273228346458
0
LINE
8
BLACK
6
CONTINUOUS
10
11.3208624803149611
20
-6.1203273228346458
11
11.3246120078740162
21
-6.1090787401574804
0
LINE
8
BLACK
6
CONTINUOUS
10
11.3246120078740162
20
-6.1090787401574804
11
11.3283615354330713
21
-6.0903310629921261
0
LINE
8
BLACK
6
CONTINUOUS
10
11.3283615354330713
20
-6.0903310629921261
11
11.3283615354330713
21
-6.0753329527559057
0
LINE
8
BLACK
6
CONTINUOUS
10
11.3283615354330713
20
-6.0753329527559057
11
11.3246120078740162
21
-6.0565852755905514
0
LINE
8
BLACK
6
CONTINUOUS
10
11.3246120078740162
20
-6.0565852755905514
11
11.3208624803149611
21
-6.045336692913386
0
LINE
8
BLACK
6
CONTINUOUS
10
11.3208624803149611
20
-6.045336692913386
11
11.317112952755906
21
-6.0378376377952758
0
LINE
8
BLACK
6
CONTINUOUS
10
11.317112952755906
20
-6.0378376377952758
11
11.3096138976377958
21
-6.0265890157480317
0
LINE
8
BLACK
6
CONTINUOUS
10
11.3096138976377958
20
-6.0265890157480317
11
11.3058643700787407
21
-6.0228394881889766
  0
ENDSEC
  0
EOF
