%TF.GenerationSoftware,KiCad,Pcbnew,7.0.7*%
%TF.CreationDate,2023-11-23T16:05:46-08:00*%
%TF.ProjectId,MIPI2HDMI,4d495049-3248-4444-9d49-2e6b69636164,R1*%
%TF.SameCoordinates,Original*%
%TF.FileFunction,Copper,L2,Bot*%
%TF.FilePolarity,Positive*%
%FSLAX46Y46*%
G04 Gerber Fmt 4.6, Leading zero omitted, Abs format (unit mm)*
G04 Created by KiCad (PCBNEW 7.0.7) date 2023-11-23 16:05:46*
%MOMM*%
%LPD*%
G01*
G04 APERTURE LIST*
G04 Aperture macros list*
%AMRoundRect*
0 Rectangle with rounded corners*
0 $1 Rounding radius*
0 $2 $3 $4 $5 $6 $7 $8 $9 X,Y pos of 4 corners*
0 Add a 4 corners polygon primitive as box body*
4,1,4,$2,$3,$4,$5,$6,$7,$8,$9,$2,$3,0*
0 Add four circle primitives for the rounded corners*
1,1,$1+$1,$2,$3*
1,1,$1+$1,$4,$5*
1,1,$1+$1,$6,$7*
1,1,$1+$1,$8,$9*
0 Add four rect primitives between the rounded corners*
20,1,$1+$1,$2,$3,$4,$5,0*
20,1,$1+$1,$4,$5,$6,$7,0*
20,1,$1+$1,$6,$7,$8,$9,0*
20,1,$1+$1,$8,$9,$2,$3,0*%
G04 Aperture macros list end*
%ADD10C,0.500000*%
%TA.AperFunction,NonConductor*%
%ADD11C,0.500000*%
%TD*%
%TA.AperFunction,ComponentPad*%
%ADD12O,1.500000X3.300000*%
%TD*%
%TA.AperFunction,ComponentPad*%
%ADD13O,1.500000X2.300000*%
%TD*%
%TA.AperFunction,ComponentPad*%
%ADD14C,6.000000*%
%TD*%
%TA.AperFunction,SMDPad,CuDef*%
%ADD15RoundRect,0.225000X-0.275000X-0.225000X0.275000X-0.225000X0.275000X0.225000X-0.275000X0.225000X0*%
%TD*%
%TA.AperFunction,SMDPad,CuDef*%
%ADD16RoundRect,0.250000X-0.500000X-0.250000X0.500000X-0.250000X0.500000X0.250000X-0.500000X0.250000X0*%
%TD*%
%TA.AperFunction,SMDPad,CuDef*%
%ADD17RoundRect,0.250000X-0.350000X-0.450000X0.350000X-0.450000X0.350000X0.450000X-0.350000X0.450000X0*%
%TD*%
%TA.AperFunction,SMDPad,CuDef*%
%ADD18RoundRect,0.250000X0.350000X0.450000X-0.350000X0.450000X-0.350000X-0.450000X0.350000X-0.450000X0*%
%TD*%
%TA.AperFunction,SMDPad,CuDef*%
%ADD19RoundRect,0.225000X0.275000X0.225000X-0.275000X0.225000X-0.275000X-0.225000X0.275000X-0.225000X0*%
%TD*%
%TA.AperFunction,SMDPad,CuDef*%
%ADD20RoundRect,0.250000X0.500000X0.250000X-0.500000X0.250000X-0.500000X-0.250000X0.500000X-0.250000X0*%
%TD*%
%TA.AperFunction,ViaPad*%
%ADD21C,0.800000*%
%TD*%
%TA.AperFunction,Conductor*%
%ADD22C,0.500000*%
%TD*%
%TA.AperFunction,Conductor*%
%ADD23C,2.000000*%
%TD*%
%TA.AperFunction,Conductor*%
%ADD24C,0.762000*%
%TD*%
%TA.AperFunction,Conductor*%
%ADD25C,0.400000*%
%TD*%
G04 APERTURE END LIST*
D10*
D11*
X135411804Y-85451619D02*
X135697518Y-85546857D01*
X135697518Y-85546857D02*
X135792756Y-85642095D01*
X135792756Y-85642095D02*
X135887994Y-85832571D01*
X135887994Y-85832571D02*
X135887994Y-86118285D01*
X135887994Y-86118285D02*
X135792756Y-86308761D01*
X135792756Y-86308761D02*
X135697518Y-86404000D01*
X135697518Y-86404000D02*
X135507042Y-86499238D01*
X135507042Y-86499238D02*
X134745137Y-86499238D01*
X134745137Y-86499238D02*
X134745137Y-84499238D01*
X134745137Y-84499238D02*
X135411804Y-84499238D01*
X135411804Y-84499238D02*
X135602280Y-84594476D01*
X135602280Y-84594476D02*
X135697518Y-84689714D01*
X135697518Y-84689714D02*
X135792756Y-84880190D01*
X135792756Y-84880190D02*
X135792756Y-85070666D01*
X135792756Y-85070666D02*
X135697518Y-85261142D01*
X135697518Y-85261142D02*
X135602280Y-85356380D01*
X135602280Y-85356380D02*
X135411804Y-85451619D01*
X135411804Y-85451619D02*
X134745137Y-85451619D01*
X137030851Y-86499238D02*
X136840375Y-86404000D01*
X136840375Y-86404000D02*
X136745137Y-86308761D01*
X136745137Y-86308761D02*
X136649899Y-86118285D01*
X136649899Y-86118285D02*
X136649899Y-85546857D01*
X136649899Y-85546857D02*
X136745137Y-85356380D01*
X136745137Y-85356380D02*
X136840375Y-85261142D01*
X136840375Y-85261142D02*
X137030851Y-85165904D01*
X137030851Y-85165904D02*
X137316566Y-85165904D01*
X137316566Y-85165904D02*
X137507042Y-85261142D01*
X137507042Y-85261142D02*
X137602280Y-85356380D01*
X137602280Y-85356380D02*
X137697518Y-85546857D01*
X137697518Y-85546857D02*
X137697518Y-86118285D01*
X137697518Y-86118285D02*
X137602280Y-86308761D01*
X137602280Y-86308761D02*
X137507042Y-86404000D01*
X137507042Y-86404000D02*
X137316566Y-86499238D01*
X137316566Y-86499238D02*
X137030851Y-86499238D01*
X138268947Y-85165904D02*
X139030851Y-85165904D01*
X138554661Y-84499238D02*
X138554661Y-86213523D01*
X138554661Y-86213523D02*
X138649899Y-86404000D01*
X138649899Y-86404000D02*
X138840375Y-86499238D01*
X138840375Y-86499238D02*
X139030851Y-86499238D01*
X139411804Y-85165904D02*
X140173708Y-85165904D01*
X139697518Y-84499238D02*
X139697518Y-86213523D01*
X139697518Y-86213523D02*
X139792756Y-86404000D01*
X139792756Y-86404000D02*
X139983232Y-86499238D01*
X139983232Y-86499238D02*
X140173708Y-86499238D01*
X141126089Y-86499238D02*
X140935613Y-86404000D01*
X140935613Y-86404000D02*
X140840375Y-86308761D01*
X140840375Y-86308761D02*
X140745137Y-86118285D01*
X140745137Y-86118285D02*
X140745137Y-85546857D01*
X140745137Y-85546857D02*
X140840375Y-85356380D01*
X140840375Y-85356380D02*
X140935613Y-85261142D01*
X140935613Y-85261142D02*
X141126089Y-85165904D01*
X141126089Y-85165904D02*
X141411804Y-85165904D01*
X141411804Y-85165904D02*
X141602280Y-85261142D01*
X141602280Y-85261142D02*
X141697518Y-85356380D01*
X141697518Y-85356380D02*
X141792756Y-85546857D01*
X141792756Y-85546857D02*
X141792756Y-86118285D01*
X141792756Y-86118285D02*
X141697518Y-86308761D01*
X141697518Y-86308761D02*
X141602280Y-86404000D01*
X141602280Y-86404000D02*
X141411804Y-86499238D01*
X141411804Y-86499238D02*
X141126089Y-86499238D01*
X142649899Y-86499238D02*
X142649899Y-85165904D01*
X142649899Y-85356380D02*
X142745137Y-85261142D01*
X142745137Y-85261142D02*
X142935613Y-85165904D01*
X142935613Y-85165904D02*
X143221328Y-85165904D01*
X143221328Y-85165904D02*
X143411804Y-85261142D01*
X143411804Y-85261142D02*
X143507042Y-85451619D01*
X143507042Y-85451619D02*
X143507042Y-86499238D01*
X143507042Y-85451619D02*
X143602280Y-85261142D01*
X143602280Y-85261142D02*
X143792756Y-85165904D01*
X143792756Y-85165904D02*
X144078470Y-85165904D01*
X144078470Y-85165904D02*
X144268947Y-85261142D01*
X144268947Y-85261142D02*
X144364185Y-85451619D01*
X144364185Y-85451619D02*
X144364185Y-86499238D01*
X147792757Y-86499238D02*
X146840376Y-86499238D01*
X146840376Y-86499238D02*
X146840376Y-84499238D01*
X149316567Y-86499238D02*
X149316567Y-85451619D01*
X149316567Y-85451619D02*
X149221329Y-85261142D01*
X149221329Y-85261142D02*
X149030853Y-85165904D01*
X149030853Y-85165904D02*
X148649900Y-85165904D01*
X148649900Y-85165904D02*
X148459424Y-85261142D01*
X149316567Y-86404000D02*
X149126091Y-86499238D01*
X149126091Y-86499238D02*
X148649900Y-86499238D01*
X148649900Y-86499238D02*
X148459424Y-86404000D01*
X148459424Y-86404000D02*
X148364186Y-86213523D01*
X148364186Y-86213523D02*
X148364186Y-86023047D01*
X148364186Y-86023047D02*
X148459424Y-85832571D01*
X148459424Y-85832571D02*
X148649900Y-85737333D01*
X148649900Y-85737333D02*
X149126091Y-85737333D01*
X149126091Y-85737333D02*
X149316567Y-85642095D01*
X150078472Y-85165904D02*
X150554662Y-86499238D01*
X151030853Y-85165904D02*
X150554662Y-86499238D01*
X150554662Y-86499238D02*
X150364186Y-86975428D01*
X150364186Y-86975428D02*
X150268948Y-87070666D01*
X150268948Y-87070666D02*
X150078472Y-87165904D01*
X152554663Y-86404000D02*
X152364187Y-86499238D01*
X152364187Y-86499238D02*
X151983234Y-86499238D01*
X151983234Y-86499238D02*
X151792758Y-86404000D01*
X151792758Y-86404000D02*
X151697520Y-86213523D01*
X151697520Y-86213523D02*
X151697520Y-85451619D01*
X151697520Y-85451619D02*
X151792758Y-85261142D01*
X151792758Y-85261142D02*
X151983234Y-85165904D01*
X151983234Y-85165904D02*
X152364187Y-85165904D01*
X152364187Y-85165904D02*
X152554663Y-85261142D01*
X152554663Y-85261142D02*
X152649901Y-85451619D01*
X152649901Y-85451619D02*
X152649901Y-85642095D01*
X152649901Y-85642095D02*
X151697520Y-85832571D01*
X153507044Y-86499238D02*
X153507044Y-85165904D01*
X153507044Y-85546857D02*
X153602282Y-85356380D01*
X153602282Y-85356380D02*
X153697520Y-85261142D01*
X153697520Y-85261142D02*
X153887996Y-85165904D01*
X153887996Y-85165904D02*
X154078473Y-85165904D01*
D12*
%TO.P,J1,SH,SH*%
%TO.N,GND*%
X106550000Y-79630000D03*
X121050000Y-79630000D03*
D13*
X106550000Y-73670000D03*
X121050000Y-73670000D03*
%TD*%
D14*
%TO.P,H1,1*%
%TO.N,N/C*%
X128800000Y-71200000D03*
%TD*%
%TO.P,H3,1*%
%TO.N,N/C*%
X128800000Y-101200000D03*
%TD*%
%TO.P,H4,1*%
%TO.N,N/C*%
X98800000Y-101200000D03*
%TD*%
%TO.P,H2,1*%
%TO.N,N/C*%
X98800000Y-71200000D03*
%TD*%
D15*
%TO.P,D1,*%
%TO.N,*%
X113565000Y-73040000D03*
D16*
%TO.P,D1,1,A*%
%TO.N,+3V3*%
X115565000Y-72490000D03*
%TO.P,D1,2,K*%
%TO.N,Net-(D1-K)*%
X111565000Y-72490000D03*
%TD*%
D17*
%TO.P,R1,1*%
%TO.N,Net-(D1-K)*%
X112575000Y-74850000D03*
%TO.P,R1,2*%
%TO.N,GND*%
X114575000Y-74850000D03*
%TD*%
D18*
%TO.P,R3,1*%
%TO.N,Net-(D3-K)*%
X114675000Y-97310000D03*
%TO.P,R3,2*%
%TO.N,GND*%
X112675000Y-97310000D03*
%TD*%
D19*
%TO.P,D3,*%
%TO.N,*%
X113685000Y-98990000D03*
D20*
%TO.P,D3,1,A*%
%TO.N,+3V3*%
X111685000Y-99540000D03*
%TO.P,D3,2,K*%
%TO.N,Net-(D3-K)*%
X115685000Y-99540000D03*
%TD*%
D21*
%TO.N,+3V3*%
X117780000Y-72760000D03*
X101119500Y-82440000D03*
%TO.N,GND*%
X120799000Y-93543200D03*
X103700000Y-97130000D03*
X104700000Y-97130000D03*
X105700000Y-93630000D03*
X102700000Y-92130000D03*
X124700000Y-97130000D03*
X123700000Y-92130000D03*
X112800000Y-78480000D03*
X122700000Y-92130000D03*
X111300000Y-78480000D03*
X122700000Y-97130000D03*
X109800000Y-78480000D03*
X114800000Y-90130000D03*
X101700000Y-93630000D03*
X117799000Y-93538000D03*
X111800000Y-90080000D03*
X105700000Y-94630000D03*
X111799000Y-93538000D03*
X105700000Y-95630000D03*
X102700000Y-97130000D03*
X121700000Y-95630000D03*
X114799000Y-93538000D03*
X125700000Y-95630000D03*
X117300000Y-82430000D03*
X125700000Y-93630000D03*
X121700000Y-94630000D03*
X114300000Y-78480000D03*
X123700000Y-97130000D03*
X125700000Y-94630000D03*
X117800000Y-90130000D03*
X101700000Y-95630000D03*
X124700000Y-92130000D03*
X103700000Y-92130000D03*
X120800000Y-90130000D03*
X101700000Y-94630000D03*
%TD*%
D22*
%TO.N,+3V3*%
X115565000Y-72490000D02*
X117510000Y-72490000D01*
X100060000Y-83499500D02*
X101119500Y-82440000D01*
X100060000Y-97040000D02*
X100060000Y-83499500D01*
X117510000Y-72490000D02*
X117780000Y-72760000D01*
X111685000Y-99540000D02*
X102560000Y-99540000D01*
X102560000Y-99540000D02*
X100060000Y-97040000D01*
D23*
%TO.N,GND*%
X121050000Y-73670000D02*
X121050000Y-79630000D01*
X106550000Y-73670000D02*
X106550000Y-79630000D01*
D24*
%TO.N,Net-(D1-K)*%
X109555000Y-72490000D02*
X111565000Y-72490000D01*
X108895000Y-73150000D02*
X109555000Y-72490000D01*
X112575000Y-74850000D02*
X109485000Y-74850000D01*
X109485000Y-74850000D02*
X108895000Y-74260000D01*
D25*
X108895000Y-74260000D02*
X108895000Y-73150000D01*
D22*
%TO.N,Net-(D3-K)*%
X117375000Y-97310000D02*
X117785000Y-97720000D01*
D25*
X117785000Y-97720000D02*
X117785000Y-99070000D01*
D22*
X114675000Y-97310000D02*
X117375000Y-97310000D01*
X117785000Y-99070000D02*
X117315000Y-99540000D01*
X117315000Y-99540000D02*
X115685000Y-99540000D01*
%TD*%
%TA.AperFunction,Conductor*%
%TO.N,GND*%
G36*
X110856096Y-71294002D02*
G01*
X110902589Y-71347658D01*
X110912693Y-71417932D01*
X110883199Y-71482512D01*
X110827608Y-71519604D01*
X110742262Y-71547885D01*
X110742259Y-71547886D01*
X110687372Y-71581741D01*
X110621226Y-71600500D01*
X109634925Y-71600500D01*
X109615214Y-71598949D01*
X109601806Y-71596825D01*
X109557874Y-71599128D01*
X109533328Y-71600414D01*
X109530056Y-71600500D01*
X109508371Y-71600500D01*
X109486822Y-71602765D01*
X109483538Y-71603023D01*
X109475952Y-71603421D01*
X109415087Y-71606610D01*
X109401968Y-71610125D01*
X109382538Y-71613726D01*
X109369042Y-71615144D01*
X109316795Y-71632121D01*
X109303843Y-71636329D01*
X109300696Y-71637261D01*
X109252497Y-71650176D01*
X109234476Y-71655006D01*
X109234475Y-71655006D01*
X109234473Y-71655007D01*
X109222381Y-71661168D01*
X109204120Y-71668731D01*
X109191217Y-71672923D01*
X109191214Y-71672925D01*
X109131848Y-71707199D01*
X109128950Y-71708773D01*
X109067874Y-71739893D01*
X109057331Y-71748431D01*
X109041042Y-71759626D01*
X109029292Y-71766410D01*
X109029281Y-71766418D01*
X108978352Y-71812274D01*
X108975848Y-71814412D01*
X108959000Y-71828057D01*
X108958991Y-71828065D01*
X108943657Y-71843398D01*
X108941267Y-71845665D01*
X108890331Y-71891529D01*
X108882350Y-71902513D01*
X108869515Y-71917540D01*
X108233064Y-72553992D01*
X108233059Y-72553998D01*
X108144897Y-72662868D01*
X108144892Y-72662877D01*
X108060005Y-72829476D01*
X108011611Y-73010079D01*
X108011610Y-73010089D01*
X108001825Y-73196807D01*
X108031076Y-73381490D01*
X108098084Y-73556050D01*
X108150248Y-73636374D01*
X108170575Y-73704398D01*
X108150898Y-73772614D01*
X108150249Y-73773623D01*
X108098083Y-73853952D01*
X108031076Y-74028509D01*
X108001826Y-74213190D01*
X108011610Y-74399910D01*
X108011611Y-74399920D01*
X108060005Y-74580523D01*
X108088548Y-74636541D01*
X108144893Y-74747125D01*
X108144895Y-74747127D01*
X108144897Y-74747131D01*
X108203472Y-74819464D01*
X108233063Y-74856006D01*
X108799514Y-75422457D01*
X108812348Y-75437483D01*
X108820332Y-75448472D01*
X108846954Y-75472442D01*
X108871297Y-75494360D01*
X108873652Y-75496595D01*
X108888992Y-75511935D01*
X108905843Y-75525581D01*
X108908327Y-75527702D01*
X108959285Y-75573585D01*
X108968851Y-75579107D01*
X108971034Y-75580368D01*
X108987333Y-75591570D01*
X108997872Y-75600105D01*
X108997877Y-75600108D01*
X109058939Y-75631220D01*
X109061838Y-75632794D01*
X109105276Y-75657872D01*
X109121215Y-75667075D01*
X109134126Y-75671270D01*
X109152379Y-75678830D01*
X109164476Y-75684994D01*
X109230707Y-75702740D01*
X109233828Y-75703664D01*
X109299044Y-75724855D01*
X109312530Y-75726272D01*
X109331969Y-75729874D01*
X109345085Y-75733389D01*
X109345091Y-75733389D01*
X109345094Y-75733390D01*
X109384173Y-75735436D01*
X109413554Y-75736976D01*
X109416815Y-75737232D01*
X109438380Y-75739500D01*
X109460056Y-75739500D01*
X109463328Y-75739585D01*
X109522609Y-75742691D01*
X109531808Y-75743174D01*
X109531808Y-75743173D01*
X109531810Y-75743174D01*
X109545214Y-75741050D01*
X109564925Y-75739500D01*
X111539627Y-75739500D01*
X111607748Y-75759502D01*
X111628722Y-75776405D01*
X111751341Y-75899024D01*
X111751347Y-75899029D01*
X111751348Y-75899030D01*
X111902262Y-75992115D01*
X112070574Y-76047887D01*
X112174455Y-76058500D01*
X112975544Y-76058499D01*
X113079426Y-76047887D01*
X113247738Y-75992115D01*
X113398652Y-75899030D01*
X113524030Y-75773652D01*
X113617115Y-75622738D01*
X113672887Y-75454426D01*
X113683500Y-75350545D01*
X113683499Y-74349456D01*
X113672887Y-74245574D01*
X113672886Y-74245570D01*
X113672886Y-74245568D01*
X113645901Y-74164133D01*
X113644446Y-74121827D01*
X119995200Y-74121827D01*
X120010460Y-74276770D01*
X120070776Y-74475608D01*
X120168722Y-74658851D01*
X120300535Y-74819464D01*
X120461148Y-74951277D01*
X120644388Y-75049222D01*
X120644394Y-75049224D01*
X120668998Y-75056688D01*
X120668999Y-75056688D01*
X120668999Y-74587883D01*
X120689001Y-74519762D01*
X120742657Y-74473269D01*
X120812931Y-74463165D01*
X120857999Y-74478764D01*
X120883735Y-74493623D01*
X120883738Y-74493623D01*
X120883740Y-74493625D01*
X121015992Y-74523810D01*
X121151265Y-74513673D01*
X121258969Y-74471401D01*
X121329685Y-74465134D01*
X121392567Y-74498094D01*
X121427647Y-74559819D01*
X121431000Y-74588692D01*
X121431000Y-75056687D01*
X121455605Y-75049224D01*
X121638851Y-74951277D01*
X121799464Y-74819464D01*
X121931277Y-74658851D01*
X122029223Y-74475608D01*
X122089539Y-74276770D01*
X122104799Y-74121827D01*
X122104800Y-74121811D01*
X122104800Y-74051000D01*
X121626000Y-74051000D01*
X121557879Y-74030998D01*
X121511386Y-73977342D01*
X121500000Y-73925000D01*
X121500000Y-73415000D01*
X121520002Y-73346879D01*
X121573658Y-73300386D01*
X121626000Y-73289000D01*
X122104800Y-73289000D01*
X122104800Y-73218188D01*
X122104799Y-73218172D01*
X122089539Y-73063229D01*
X122029223Y-72864391D01*
X121931277Y-72681148D01*
X121799464Y-72520535D01*
X121638851Y-72388722D01*
X121455610Y-72290777D01*
X121430999Y-72283311D01*
X121431000Y-72752116D01*
X121410998Y-72820237D01*
X121357342Y-72866730D01*
X121287068Y-72876834D01*
X121242001Y-72861236D01*
X121216262Y-72846376D01*
X121216257Y-72846374D01*
X121084010Y-72816190D01*
X121084009Y-72816190D01*
X121084008Y-72816190D01*
X121038916Y-72819569D01*
X120948733Y-72826327D01*
X120841032Y-72868597D01*
X120770312Y-72874865D01*
X120707431Y-72841904D01*
X120672352Y-72780179D01*
X120668999Y-72751307D01*
X120668999Y-72283311D01*
X120644391Y-72290776D01*
X120461146Y-72388723D01*
X120300535Y-72520535D01*
X120168722Y-72681148D01*
X120070776Y-72864391D01*
X120010460Y-73063229D01*
X119995200Y-73218172D01*
X119995200Y-73289000D01*
X120474000Y-73289000D01*
X120542121Y-73309002D01*
X120588614Y-73362658D01*
X120600000Y-73415000D01*
X120600000Y-73925000D01*
X120579998Y-73993121D01*
X120526342Y-74039614D01*
X120474000Y-74051000D01*
X119995200Y-74051000D01*
X119995200Y-74121827D01*
X113644446Y-74121827D01*
X113643460Y-74093178D01*
X113679768Y-74032168D01*
X113743297Y-74000473D01*
X113765505Y-73998500D01*
X113888880Y-73998500D01*
X113961936Y-73991035D01*
X113989336Y-73988236D01*
X114152101Y-73934302D01*
X114298040Y-73844285D01*
X114419285Y-73723040D01*
X114509302Y-73577101D01*
X114538602Y-73488675D01*
X114579014Y-73430306D01*
X114644570Y-73403049D01*
X114714456Y-73415562D01*
X114724343Y-73421062D01*
X114742262Y-73432115D01*
X114910574Y-73487887D01*
X115014455Y-73498500D01*
X116115544Y-73498499D01*
X116219426Y-73487887D01*
X116387738Y-73432115D01*
X116538652Y-73339030D01*
X116592278Y-73285403D01*
X116654588Y-73251380D01*
X116681372Y-73248500D01*
X116941563Y-73248500D01*
X117009684Y-73268502D01*
X117035549Y-73292929D01*
X117036541Y-73292037D01*
X117168744Y-73438864D01*
X117168747Y-73438866D01*
X117323248Y-73551118D01*
X117497712Y-73628794D01*
X117684513Y-73668500D01*
X117875487Y-73668500D01*
X118062288Y-73628794D01*
X118236752Y-73551118D01*
X118391253Y-73438866D01*
X118397333Y-73432114D01*
X118519034Y-73296951D01*
X118519035Y-73296949D01*
X118519040Y-73296944D01*
X118614527Y-73131556D01*
X118673542Y-72949928D01*
X118693504Y-72760000D01*
X118673542Y-72570072D01*
X118614527Y-72388444D01*
X118519040Y-72223056D01*
X118519038Y-72223054D01*
X118519034Y-72223048D01*
X118391255Y-72081135D01*
X118236752Y-71968882D01*
X118062288Y-71891206D01*
X117977657Y-71873216D01*
X117934619Y-71855242D01*
X117923512Y-71847937D01*
X117923548Y-71847882D01*
X117917187Y-71843829D01*
X117917153Y-71843886D01*
X117910906Y-71840033D01*
X117840540Y-71807220D01*
X117771188Y-71772391D01*
X117771186Y-71772390D01*
X117771183Y-71772389D01*
X117764289Y-71769880D01*
X117764311Y-71769817D01*
X117757189Y-71767341D01*
X117757169Y-71767404D01*
X117750209Y-71765097D01*
X117674150Y-71749392D01*
X117598652Y-71731499D01*
X117591367Y-71730648D01*
X117591374Y-71730580D01*
X117583877Y-71729814D01*
X117583872Y-71729881D01*
X117576559Y-71729241D01*
X117576558Y-71729241D01*
X117498920Y-71731500D01*
X116681372Y-71731500D01*
X116613251Y-71711498D01*
X116592281Y-71694599D01*
X116538652Y-71640970D01*
X116387738Y-71547885D01*
X116302391Y-71519604D01*
X116244020Y-71479191D01*
X116216764Y-71413635D01*
X116229277Y-71343749D01*
X116277587Y-71291723D01*
X116342024Y-71274000D01*
X122396358Y-71274000D01*
X122464479Y-71294002D01*
X122506140Y-71338164D01*
X124983759Y-75736975D01*
X126033783Y-77601208D01*
X126050000Y-77663043D01*
X126050000Y-97504000D01*
X126029998Y-97572121D01*
X125976342Y-97618614D01*
X125924000Y-97630000D01*
X118645221Y-97630000D01*
X118577100Y-97609998D01*
X118530607Y-97556342D01*
X118525617Y-97543633D01*
X118477115Y-97397265D01*
X118477114Y-97397264D01*
X118477114Y-97397262D01*
X118384030Y-97246349D01*
X117956901Y-96819220D01*
X117944936Y-96805375D01*
X117930469Y-96785942D01*
X117930467Y-96785940D01*
X117890024Y-96752003D01*
X117885970Y-96748289D01*
X117880107Y-96742425D01*
X117854104Y-96721864D01*
X117794636Y-96671965D01*
X117788506Y-96667933D01*
X117788541Y-96667878D01*
X117782187Y-96663829D01*
X117782153Y-96663886D01*
X117775906Y-96660033D01*
X117705540Y-96627220D01*
X117705539Y-96627219D01*
X117636188Y-96592391D01*
X117636186Y-96592390D01*
X117636183Y-96592389D01*
X117629289Y-96589880D01*
X117629311Y-96589817D01*
X117622189Y-96587341D01*
X117622169Y-96587404D01*
X117615209Y-96585097D01*
X117539150Y-96569392D01*
X117463652Y-96551499D01*
X117456367Y-96550648D01*
X117456374Y-96550580D01*
X117448877Y-96549814D01*
X117448872Y-96549881D01*
X117441559Y-96549241D01*
X117441558Y-96549241D01*
X117363920Y-96551500D01*
X115796220Y-96551500D01*
X115728099Y-96531498D01*
X115688979Y-96491647D01*
X115624029Y-96386347D01*
X115624024Y-96386341D01*
X115498658Y-96260975D01*
X115498652Y-96260970D01*
X115498652Y-96260969D01*
X115347738Y-96167885D01*
X115263581Y-96139998D01*
X115179427Y-96112113D01*
X115179420Y-96112112D01*
X115075553Y-96101500D01*
X114274455Y-96101500D01*
X114170574Y-96112112D01*
X114002261Y-96167885D01*
X113851347Y-96260970D01*
X113851341Y-96260975D01*
X113725975Y-96386341D01*
X113725970Y-96386347D01*
X113632885Y-96537262D01*
X113577113Y-96705572D01*
X113577112Y-96705579D01*
X113566500Y-96809446D01*
X113566500Y-96809454D01*
X113566500Y-96809455D01*
X113566500Y-97246349D01*
X113566501Y-97504000D01*
X113546499Y-97572121D01*
X113492843Y-97618614D01*
X113440501Y-97630000D01*
X101774871Y-97630000D01*
X101706750Y-97609998D01*
X101685776Y-97593095D01*
X101086905Y-96994224D01*
X101052879Y-96931912D01*
X101050000Y-96905129D01*
X101050000Y-83634369D01*
X101070002Y-83566248D01*
X101086899Y-83545280D01*
X101275832Y-83356347D01*
X101338142Y-83322323D01*
X101338499Y-83322246D01*
X101401788Y-83308794D01*
X101576252Y-83231118D01*
X101730753Y-83118866D01*
X101749006Y-83098594D01*
X101858534Y-82976951D01*
X101858535Y-82976949D01*
X101858540Y-82976944D01*
X101954027Y-82811556D01*
X102013042Y-82629928D01*
X102033004Y-82440000D01*
X102013042Y-82250072D01*
X101954027Y-82068444D01*
X101858540Y-81903056D01*
X101858538Y-81903054D01*
X101858534Y-81903048D01*
X101730755Y-81761135D01*
X101576252Y-81648882D01*
X101401788Y-81571206D01*
X101214987Y-81531500D01*
X101176000Y-81531500D01*
X101107879Y-81511498D01*
X101061386Y-81457842D01*
X101050000Y-81405500D01*
X101050000Y-80581827D01*
X105495200Y-80581827D01*
X105510460Y-80736770D01*
X105570776Y-80935608D01*
X105668722Y-81118851D01*
X105800535Y-81279464D01*
X105961148Y-81411277D01*
X106144394Y-81509224D01*
X106169000Y-81516687D01*
X106169000Y-81047883D01*
X106189002Y-80979762D01*
X106242658Y-80933269D01*
X106312932Y-80923165D01*
X106357998Y-80938763D01*
X106383740Y-80953625D01*
X106515992Y-80983810D01*
X106651265Y-80973673D01*
X106758969Y-80931401D01*
X106829685Y-80925134D01*
X106892567Y-80958094D01*
X106927647Y-81019819D01*
X106931000Y-81048692D01*
X106931000Y-81516687D01*
X106955605Y-81509224D01*
X107138851Y-81411277D01*
X107299464Y-81279464D01*
X107431277Y-81118851D01*
X107529223Y-80935608D01*
X107589539Y-80736770D01*
X107604799Y-80581827D01*
X119995200Y-80581827D01*
X120010460Y-80736770D01*
X120070776Y-80935608D01*
X120168722Y-81118851D01*
X120300535Y-81279464D01*
X120461148Y-81411277D01*
X120644394Y-81509224D01*
X120669000Y-81516687D01*
X120669000Y-81047883D01*
X120689002Y-80979762D01*
X120742658Y-80933269D01*
X120812932Y-80923165D01*
X120857998Y-80938763D01*
X120883740Y-80953625D01*
X121015992Y-80983810D01*
X121151265Y-80973673D01*
X121258970Y-80931401D01*
X121329684Y-80925134D01*
X121392566Y-80958094D01*
X121427646Y-81019818D01*
X121430999Y-81048692D01*
X121430999Y-81516687D01*
X121455607Y-81509224D01*
X121638853Y-81411276D01*
X121799464Y-81279464D01*
X121931277Y-81118851D01*
X122029223Y-80935608D01*
X122089539Y-80736770D01*
X122104799Y-80581827D01*
X122104800Y-80581811D01*
X122104800Y-80011000D01*
X121626000Y-80011000D01*
X121557879Y-79990998D01*
X121511386Y-79937342D01*
X121500000Y-79885000D01*
X121500000Y-79375000D01*
X121520002Y-79306879D01*
X121573658Y-79260386D01*
X121626000Y-79249000D01*
X122104800Y-79249000D01*
X122104800Y-78678188D01*
X122104799Y-78678172D01*
X122089539Y-78523229D01*
X122029223Y-78324391D01*
X121931277Y-78141148D01*
X121799464Y-77980535D01*
X121638851Y-77848722D01*
X121455608Y-77750776D01*
X121430999Y-77743311D01*
X121430999Y-78212116D01*
X121410997Y-78280237D01*
X121357341Y-78326730D01*
X121287067Y-78336834D01*
X121241999Y-78321235D01*
X121216263Y-78306376D01*
X121216257Y-78306374D01*
X121084010Y-78276190D01*
X121084009Y-78276190D01*
X121084008Y-78276190D01*
X121038917Y-78279569D01*
X120948733Y-78286327D01*
X120841033Y-78328597D01*
X120770314Y-78334865D01*
X120707432Y-78301904D01*
X120672353Y-78240180D01*
X120669000Y-78211307D01*
X120668999Y-77743311D01*
X120644389Y-77750777D01*
X120461148Y-77848722D01*
X120300535Y-77980535D01*
X120168722Y-78141148D01*
X120070776Y-78324391D01*
X120010460Y-78523229D01*
X119995200Y-78678172D01*
X119995200Y-79249000D01*
X120474000Y-79249000D01*
X120542121Y-79269002D01*
X120588614Y-79322658D01*
X120600000Y-79375000D01*
X120600000Y-79885000D01*
X120579998Y-79953121D01*
X120526342Y-79999614D01*
X120474000Y-80011000D01*
X119995200Y-80011000D01*
X119995200Y-80581827D01*
X107604799Y-80581827D01*
X107604800Y-80581811D01*
X107604800Y-80011000D01*
X107126000Y-80011000D01*
X107057879Y-79990998D01*
X107011386Y-79937342D01*
X107000000Y-79885000D01*
X107000000Y-79375000D01*
X107020002Y-79306879D01*
X107073658Y-79260386D01*
X107126000Y-79249000D01*
X107604800Y-79249000D01*
X107604800Y-78678188D01*
X107604799Y-78678172D01*
X107589539Y-78523229D01*
X107529223Y-78324391D01*
X107431277Y-78141148D01*
X107299464Y-77980535D01*
X107138851Y-77848722D01*
X106955610Y-77750777D01*
X106931000Y-77743311D01*
X106931000Y-78212116D01*
X106910998Y-78280237D01*
X106857342Y-78326730D01*
X106787068Y-78336834D01*
X106742001Y-78321236D01*
X106716262Y-78306376D01*
X106716257Y-78306374D01*
X106584010Y-78276190D01*
X106584009Y-78276190D01*
X106584008Y-78276190D01*
X106538917Y-78279569D01*
X106448733Y-78286327D01*
X106341033Y-78328597D01*
X106270314Y-78334865D01*
X106207432Y-78301904D01*
X106172353Y-78240180D01*
X106169000Y-78211307D01*
X106168999Y-77743311D01*
X106144389Y-77750777D01*
X105961148Y-77848722D01*
X105800535Y-77980535D01*
X105668722Y-78141148D01*
X105570776Y-78324391D01*
X105510460Y-78523229D01*
X105495200Y-78678172D01*
X105495200Y-79249000D01*
X105974000Y-79249000D01*
X106042121Y-79269002D01*
X106088614Y-79322658D01*
X106100000Y-79375000D01*
X106100000Y-79885000D01*
X106079998Y-79953121D01*
X106026342Y-79999614D01*
X105974000Y-80011000D01*
X105495200Y-80011000D01*
X105495200Y-80581827D01*
X101050000Y-80581827D01*
X101050000Y-77667264D01*
X101070002Y-77599143D01*
X101070270Y-77598729D01*
X103324020Y-74121827D01*
X105495200Y-74121827D01*
X105510460Y-74276770D01*
X105570776Y-74475608D01*
X105668722Y-74658851D01*
X105800535Y-74819464D01*
X105961148Y-74951277D01*
X106144394Y-75049224D01*
X106169000Y-75056687D01*
X106169000Y-74587883D01*
X106189002Y-74519762D01*
X106242658Y-74473269D01*
X106312932Y-74463165D01*
X106357998Y-74478763D01*
X106383740Y-74493625D01*
X106515992Y-74523810D01*
X106651265Y-74513673D01*
X106758969Y-74471401D01*
X106829685Y-74465134D01*
X106892567Y-74498094D01*
X106927647Y-74559819D01*
X106931000Y-74588692D01*
X106931000Y-75056687D01*
X106955605Y-75049224D01*
X107138851Y-74951277D01*
X107299464Y-74819464D01*
X107431277Y-74658851D01*
X107529223Y-74475608D01*
X107589539Y-74276770D01*
X107604799Y-74121827D01*
X107604800Y-74121811D01*
X107604800Y-74051000D01*
X107126000Y-74051000D01*
X107057879Y-74030998D01*
X107011386Y-73977342D01*
X107000000Y-73925000D01*
X107000000Y-73415000D01*
X107020002Y-73346879D01*
X107073658Y-73300386D01*
X107126000Y-73289000D01*
X107604800Y-73289000D01*
X107604800Y-73218188D01*
X107604799Y-73218172D01*
X107589539Y-73063229D01*
X107529223Y-72864391D01*
X107431277Y-72681148D01*
X107299464Y-72520535D01*
X107138851Y-72388722D01*
X106955610Y-72290777D01*
X106931000Y-72283311D01*
X106931000Y-72752116D01*
X106910998Y-72820237D01*
X106857342Y-72866730D01*
X106787068Y-72876834D01*
X106742001Y-72861236D01*
X106716262Y-72846376D01*
X106716257Y-72846374D01*
X106584010Y-72816190D01*
X106584009Y-72816190D01*
X106584008Y-72816190D01*
X106538917Y-72819569D01*
X106448733Y-72826327D01*
X106341033Y-72868597D01*
X106270314Y-72874865D01*
X106207432Y-72841904D01*
X106172353Y-72780180D01*
X106169000Y-72751307D01*
X106168999Y-72283311D01*
X106144389Y-72290777D01*
X105961148Y-72388722D01*
X105800535Y-72520535D01*
X105668722Y-72681148D01*
X105570776Y-72864391D01*
X105510460Y-73063229D01*
X105495200Y-73218172D01*
X105495200Y-73289000D01*
X105974000Y-73289000D01*
X106042121Y-73309002D01*
X106088614Y-73362658D01*
X106100000Y-73415000D01*
X106100000Y-73925000D01*
X106079998Y-73993121D01*
X106026342Y-74039614D01*
X105974000Y-74051000D01*
X105495200Y-74051000D01*
X105495200Y-74121827D01*
X103324020Y-74121827D01*
X105132751Y-71331465D01*
X105186588Y-71285182D01*
X105238481Y-71274000D01*
X110787975Y-71274000D01*
X110856096Y-71294002D01*
G37*
%TD.AperFunction*%
%TD*%
M02*
