%TF.GenerationSoftware,KiCad,Pcbnew,7.0.10-7.0.10~ubuntu22.04.1*%
%TF.CreationDate,2024-02-04T10:47:17-08:00*%
%TF.ProjectId,PI-Power-Board,50492d50-6f77-4657-922d-426f6172642e,rev?*%
%TF.SameCoordinates,Original*%
%TF.FileFunction,Legend,Bot*%
%TF.FilePolarity,Positive*%
%FSLAX46Y46*%
G04 Gerber Fmt 4.6, Leading zero omitted, Abs format (unit mm)*
G04 Created by KiCad (PCBNEW 7.0.10-7.0.10~ubuntu22.04.1) date 2024-02-04 10:47:17*
%MOMM*%
%LPD*%
G01*
G04 APERTURE LIST*
%ADD10C,0.150000*%
%ADD11C,0.120000*%
G04 APERTURE END LIST*
D10*
X69177819Y-98425095D02*
X69987342Y-98425095D01*
X69987342Y-98425095D02*
X70082580Y-98472714D01*
X70082580Y-98472714D02*
X70130200Y-98520333D01*
X70130200Y-98520333D02*
X70177819Y-98615571D01*
X70177819Y-98615571D02*
X70177819Y-98806047D01*
X70177819Y-98806047D02*
X70130200Y-98901285D01*
X70130200Y-98901285D02*
X70082580Y-98948904D01*
X70082580Y-98948904D02*
X69987342Y-98996523D01*
X69987342Y-98996523D02*
X69177819Y-98996523D01*
X70177819Y-99520333D02*
X70177819Y-99710809D01*
X70177819Y-99710809D02*
X70130200Y-99806047D01*
X70130200Y-99806047D02*
X70082580Y-99853666D01*
X70082580Y-99853666D02*
X69939723Y-99948904D01*
X69939723Y-99948904D02*
X69749247Y-99996523D01*
X69749247Y-99996523D02*
X69368295Y-99996523D01*
X69368295Y-99996523D02*
X69273057Y-99948904D01*
X69273057Y-99948904D02*
X69225438Y-99901285D01*
X69225438Y-99901285D02*
X69177819Y-99806047D01*
X69177819Y-99806047D02*
X69177819Y-99615571D01*
X69177819Y-99615571D02*
X69225438Y-99520333D01*
X69225438Y-99520333D02*
X69273057Y-99472714D01*
X69273057Y-99472714D02*
X69368295Y-99425095D01*
X69368295Y-99425095D02*
X69606390Y-99425095D01*
X69606390Y-99425095D02*
X69701628Y-99472714D01*
X69701628Y-99472714D02*
X69749247Y-99520333D01*
X69749247Y-99520333D02*
X69796866Y-99615571D01*
X69796866Y-99615571D02*
X69796866Y-99806047D01*
X69796866Y-99806047D02*
X69749247Y-99901285D01*
X69749247Y-99901285D02*
X69701628Y-99948904D01*
X69701628Y-99948904D02*
X69606390Y-99996523D01*
X107420580Y-109593142D02*
X107468200Y-109545523D01*
X107468200Y-109545523D02*
X107515819Y-109402666D01*
X107515819Y-109402666D02*
X107515819Y-109307428D01*
X107515819Y-109307428D02*
X107468200Y-109164571D01*
X107468200Y-109164571D02*
X107372961Y-109069333D01*
X107372961Y-109069333D02*
X107277723Y-109021714D01*
X107277723Y-109021714D02*
X107087247Y-108974095D01*
X107087247Y-108974095D02*
X106944390Y-108974095D01*
X106944390Y-108974095D02*
X106753914Y-109021714D01*
X106753914Y-109021714D02*
X106658676Y-109069333D01*
X106658676Y-109069333D02*
X106563438Y-109164571D01*
X106563438Y-109164571D02*
X106515819Y-109307428D01*
X106515819Y-109307428D02*
X106515819Y-109402666D01*
X106515819Y-109402666D02*
X106563438Y-109545523D01*
X106563438Y-109545523D02*
X106611057Y-109593142D01*
X106515819Y-109926476D02*
X106515819Y-110545523D01*
X106515819Y-110545523D02*
X106896771Y-110212190D01*
X106896771Y-110212190D02*
X106896771Y-110355047D01*
X106896771Y-110355047D02*
X106944390Y-110450285D01*
X106944390Y-110450285D02*
X106992009Y-110497904D01*
X106992009Y-110497904D02*
X107087247Y-110545523D01*
X107087247Y-110545523D02*
X107325342Y-110545523D01*
X107325342Y-110545523D02*
X107420580Y-110497904D01*
X107420580Y-110497904D02*
X107468200Y-110450285D01*
X107468200Y-110450285D02*
X107515819Y-110355047D01*
X107515819Y-110355047D02*
X107515819Y-110069333D01*
X107515819Y-110069333D02*
X107468200Y-109974095D01*
X107468200Y-109974095D02*
X107420580Y-109926476D01*
X106611057Y-110926476D02*
X106563438Y-110974095D01*
X106563438Y-110974095D02*
X106515819Y-111069333D01*
X106515819Y-111069333D02*
X106515819Y-111307428D01*
X106515819Y-111307428D02*
X106563438Y-111402666D01*
X106563438Y-111402666D02*
X106611057Y-111450285D01*
X106611057Y-111450285D02*
X106706295Y-111497904D01*
X106706295Y-111497904D02*
X106801533Y-111497904D01*
X106801533Y-111497904D02*
X106944390Y-111450285D01*
X106944390Y-111450285D02*
X107515819Y-110878857D01*
X107515819Y-110878857D02*
X107515819Y-111497904D01*
X93171180Y-90390742D02*
X93218800Y-90343123D01*
X93218800Y-90343123D02*
X93266419Y-90200266D01*
X93266419Y-90200266D02*
X93266419Y-90105028D01*
X93266419Y-90105028D02*
X93218800Y-89962171D01*
X93218800Y-89962171D02*
X93123561Y-89866933D01*
X93123561Y-89866933D02*
X93028323Y-89819314D01*
X93028323Y-89819314D02*
X92837847Y-89771695D01*
X92837847Y-89771695D02*
X92694990Y-89771695D01*
X92694990Y-89771695D02*
X92504514Y-89819314D01*
X92504514Y-89819314D02*
X92409276Y-89866933D01*
X92409276Y-89866933D02*
X92314038Y-89962171D01*
X92314038Y-89962171D02*
X92266419Y-90105028D01*
X92266419Y-90105028D02*
X92266419Y-90200266D01*
X92266419Y-90200266D02*
X92314038Y-90343123D01*
X92314038Y-90343123D02*
X92361657Y-90390742D01*
X92361657Y-90771695D02*
X92314038Y-90819314D01*
X92314038Y-90819314D02*
X92266419Y-90914552D01*
X92266419Y-90914552D02*
X92266419Y-91152647D01*
X92266419Y-91152647D02*
X92314038Y-91247885D01*
X92314038Y-91247885D02*
X92361657Y-91295504D01*
X92361657Y-91295504D02*
X92456895Y-91343123D01*
X92456895Y-91343123D02*
X92552133Y-91343123D01*
X92552133Y-91343123D02*
X92694990Y-91295504D01*
X92694990Y-91295504D02*
X93266419Y-90724076D01*
X93266419Y-90724076D02*
X93266419Y-91343123D01*
X92266419Y-91676457D02*
X92266419Y-92295504D01*
X92266419Y-92295504D02*
X92647371Y-91962171D01*
X92647371Y-91962171D02*
X92647371Y-92105028D01*
X92647371Y-92105028D02*
X92694990Y-92200266D01*
X92694990Y-92200266D02*
X92742609Y-92247885D01*
X92742609Y-92247885D02*
X92837847Y-92295504D01*
X92837847Y-92295504D02*
X93075942Y-92295504D01*
X93075942Y-92295504D02*
X93171180Y-92247885D01*
X93171180Y-92247885D02*
X93218800Y-92200266D01*
X93218800Y-92200266D02*
X93266419Y-92105028D01*
X93266419Y-92105028D02*
X93266419Y-91819314D01*
X93266419Y-91819314D02*
X93218800Y-91724076D01*
X93218800Y-91724076D02*
X93171180Y-91676457D01*
X111310657Y-121466780D02*
X111358276Y-121514400D01*
X111358276Y-121514400D02*
X111501133Y-121562019D01*
X111501133Y-121562019D02*
X111596371Y-121562019D01*
X111596371Y-121562019D02*
X111739228Y-121514400D01*
X111739228Y-121514400D02*
X111834466Y-121419161D01*
X111834466Y-121419161D02*
X111882085Y-121323923D01*
X111882085Y-121323923D02*
X111929704Y-121133447D01*
X111929704Y-121133447D02*
X111929704Y-120990590D01*
X111929704Y-120990590D02*
X111882085Y-120800114D01*
X111882085Y-120800114D02*
X111834466Y-120704876D01*
X111834466Y-120704876D02*
X111739228Y-120609638D01*
X111739228Y-120609638D02*
X111596371Y-120562019D01*
X111596371Y-120562019D02*
X111501133Y-120562019D01*
X111501133Y-120562019D02*
X111358276Y-120609638D01*
X111358276Y-120609638D02*
X111310657Y-120657257D01*
X110977323Y-120562019D02*
X110358276Y-120562019D01*
X110358276Y-120562019D02*
X110691609Y-120942971D01*
X110691609Y-120942971D02*
X110548752Y-120942971D01*
X110548752Y-120942971D02*
X110453514Y-120990590D01*
X110453514Y-120990590D02*
X110405895Y-121038209D01*
X110405895Y-121038209D02*
X110358276Y-121133447D01*
X110358276Y-121133447D02*
X110358276Y-121371542D01*
X110358276Y-121371542D02*
X110405895Y-121466780D01*
X110405895Y-121466780D02*
X110453514Y-121514400D01*
X110453514Y-121514400D02*
X110548752Y-121562019D01*
X110548752Y-121562019D02*
X110834466Y-121562019D01*
X110834466Y-121562019D02*
X110929704Y-121514400D01*
X110929704Y-121514400D02*
X110977323Y-121466780D01*
X109786847Y-120990590D02*
X109882085Y-120942971D01*
X109882085Y-120942971D02*
X109929704Y-120895352D01*
X109929704Y-120895352D02*
X109977323Y-120800114D01*
X109977323Y-120800114D02*
X109977323Y-120752495D01*
X109977323Y-120752495D02*
X109929704Y-120657257D01*
X109929704Y-120657257D02*
X109882085Y-120609638D01*
X109882085Y-120609638D02*
X109786847Y-120562019D01*
X109786847Y-120562019D02*
X109596371Y-120562019D01*
X109596371Y-120562019D02*
X109501133Y-120609638D01*
X109501133Y-120609638D02*
X109453514Y-120657257D01*
X109453514Y-120657257D02*
X109405895Y-120752495D01*
X109405895Y-120752495D02*
X109405895Y-120800114D01*
X109405895Y-120800114D02*
X109453514Y-120895352D01*
X109453514Y-120895352D02*
X109501133Y-120942971D01*
X109501133Y-120942971D02*
X109596371Y-120990590D01*
X109596371Y-120990590D02*
X109786847Y-120990590D01*
X109786847Y-120990590D02*
X109882085Y-121038209D01*
X109882085Y-121038209D02*
X109929704Y-121085828D01*
X109929704Y-121085828D02*
X109977323Y-121181066D01*
X109977323Y-121181066D02*
X109977323Y-121371542D01*
X109977323Y-121371542D02*
X109929704Y-121466780D01*
X109929704Y-121466780D02*
X109882085Y-121514400D01*
X109882085Y-121514400D02*
X109786847Y-121562019D01*
X109786847Y-121562019D02*
X109596371Y-121562019D01*
X109596371Y-121562019D02*
X109501133Y-121514400D01*
X109501133Y-121514400D02*
X109453514Y-121466780D01*
X109453514Y-121466780D02*
X109405895Y-121371542D01*
X109405895Y-121371542D02*
X109405895Y-121181066D01*
X109405895Y-121181066D02*
X109453514Y-121085828D01*
X109453514Y-121085828D02*
X109501133Y-121038209D01*
X109501133Y-121038209D02*
X109596371Y-120990590D01*
X117451094Y-103451819D02*
X117451094Y-102451819D01*
X117451094Y-102451819D02*
X117212999Y-102451819D01*
X117212999Y-102451819D02*
X117070142Y-102499438D01*
X117070142Y-102499438D02*
X116974904Y-102594676D01*
X116974904Y-102594676D02*
X116927285Y-102689914D01*
X116927285Y-102689914D02*
X116879666Y-102880390D01*
X116879666Y-102880390D02*
X116879666Y-103023247D01*
X116879666Y-103023247D02*
X116927285Y-103213723D01*
X116927285Y-103213723D02*
X116974904Y-103308961D01*
X116974904Y-103308961D02*
X117070142Y-103404200D01*
X117070142Y-103404200D02*
X117212999Y-103451819D01*
X117212999Y-103451819D02*
X117451094Y-103451819D01*
X116546332Y-102451819D02*
X115879666Y-102451819D01*
X115879666Y-102451819D02*
X116308237Y-103451819D01*
X91041457Y-101172180D02*
X91089076Y-101219800D01*
X91089076Y-101219800D02*
X91231933Y-101267419D01*
X91231933Y-101267419D02*
X91327171Y-101267419D01*
X91327171Y-101267419D02*
X91470028Y-101219800D01*
X91470028Y-101219800D02*
X91565266Y-101124561D01*
X91565266Y-101124561D02*
X91612885Y-101029323D01*
X91612885Y-101029323D02*
X91660504Y-100838847D01*
X91660504Y-100838847D02*
X91660504Y-100695990D01*
X91660504Y-100695990D02*
X91612885Y-100505514D01*
X91612885Y-100505514D02*
X91565266Y-100410276D01*
X91565266Y-100410276D02*
X91470028Y-100315038D01*
X91470028Y-100315038D02*
X91327171Y-100267419D01*
X91327171Y-100267419D02*
X91231933Y-100267419D01*
X91231933Y-100267419D02*
X91089076Y-100315038D01*
X91089076Y-100315038D02*
X91041457Y-100362657D01*
X90708123Y-100267419D02*
X90089076Y-100267419D01*
X90089076Y-100267419D02*
X90422409Y-100648371D01*
X90422409Y-100648371D02*
X90279552Y-100648371D01*
X90279552Y-100648371D02*
X90184314Y-100695990D01*
X90184314Y-100695990D02*
X90136695Y-100743609D01*
X90136695Y-100743609D02*
X90089076Y-100838847D01*
X90089076Y-100838847D02*
X90089076Y-101076942D01*
X90089076Y-101076942D02*
X90136695Y-101172180D01*
X90136695Y-101172180D02*
X90184314Y-101219800D01*
X90184314Y-101219800D02*
X90279552Y-101267419D01*
X90279552Y-101267419D02*
X90565266Y-101267419D01*
X90565266Y-101267419D02*
X90660504Y-101219800D01*
X90660504Y-101219800D02*
X90708123Y-101172180D01*
X89136695Y-101267419D02*
X89708123Y-101267419D01*
X89422409Y-101267419D02*
X89422409Y-100267419D01*
X89422409Y-100267419D02*
X89517647Y-100410276D01*
X89517647Y-100410276D02*
X89612885Y-100505514D01*
X89612885Y-100505514D02*
X89708123Y-100553133D01*
X103991580Y-109593142D02*
X104039200Y-109545523D01*
X104039200Y-109545523D02*
X104086819Y-109402666D01*
X104086819Y-109402666D02*
X104086819Y-109307428D01*
X104086819Y-109307428D02*
X104039200Y-109164571D01*
X104039200Y-109164571D02*
X103943961Y-109069333D01*
X103943961Y-109069333D02*
X103848723Y-109021714D01*
X103848723Y-109021714D02*
X103658247Y-108974095D01*
X103658247Y-108974095D02*
X103515390Y-108974095D01*
X103515390Y-108974095D02*
X103324914Y-109021714D01*
X103324914Y-109021714D02*
X103229676Y-109069333D01*
X103229676Y-109069333D02*
X103134438Y-109164571D01*
X103134438Y-109164571D02*
X103086819Y-109307428D01*
X103086819Y-109307428D02*
X103086819Y-109402666D01*
X103086819Y-109402666D02*
X103134438Y-109545523D01*
X103134438Y-109545523D02*
X103182057Y-109593142D01*
X103086819Y-109926476D02*
X103086819Y-110545523D01*
X103086819Y-110545523D02*
X103467771Y-110212190D01*
X103467771Y-110212190D02*
X103467771Y-110355047D01*
X103467771Y-110355047D02*
X103515390Y-110450285D01*
X103515390Y-110450285D02*
X103563009Y-110497904D01*
X103563009Y-110497904D02*
X103658247Y-110545523D01*
X103658247Y-110545523D02*
X103896342Y-110545523D01*
X103896342Y-110545523D02*
X103991580Y-110497904D01*
X103991580Y-110497904D02*
X104039200Y-110450285D01*
X104039200Y-110450285D02*
X104086819Y-110355047D01*
X104086819Y-110355047D02*
X104086819Y-110069333D01*
X104086819Y-110069333D02*
X104039200Y-109974095D01*
X104039200Y-109974095D02*
X103991580Y-109926476D01*
X103086819Y-110878857D02*
X103086819Y-111497904D01*
X103086819Y-111497904D02*
X103467771Y-111164571D01*
X103467771Y-111164571D02*
X103467771Y-111307428D01*
X103467771Y-111307428D02*
X103515390Y-111402666D01*
X103515390Y-111402666D02*
X103563009Y-111450285D01*
X103563009Y-111450285D02*
X103658247Y-111497904D01*
X103658247Y-111497904D02*
X103896342Y-111497904D01*
X103896342Y-111497904D02*
X103991580Y-111450285D01*
X103991580Y-111450285D02*
X104039200Y-111402666D01*
X104039200Y-111402666D02*
X104086819Y-111307428D01*
X104086819Y-111307428D02*
X104086819Y-111021714D01*
X104086819Y-111021714D02*
X104039200Y-110926476D01*
X104039200Y-110926476D02*
X103991580Y-110878857D01*
X77383819Y-80002142D02*
X76907628Y-79668809D01*
X77383819Y-79430714D02*
X76383819Y-79430714D01*
X76383819Y-79430714D02*
X76383819Y-79811666D01*
X76383819Y-79811666D02*
X76431438Y-79906904D01*
X76431438Y-79906904D02*
X76479057Y-79954523D01*
X76479057Y-79954523D02*
X76574295Y-80002142D01*
X76574295Y-80002142D02*
X76717152Y-80002142D01*
X76717152Y-80002142D02*
X76812390Y-79954523D01*
X76812390Y-79954523D02*
X76860009Y-79906904D01*
X76860009Y-79906904D02*
X76907628Y-79811666D01*
X76907628Y-79811666D02*
X76907628Y-79430714D01*
X77383819Y-80954523D02*
X77383819Y-80383095D01*
X77383819Y-80668809D02*
X76383819Y-80668809D01*
X76383819Y-80668809D02*
X76526676Y-80573571D01*
X76526676Y-80573571D02*
X76621914Y-80478333D01*
X76621914Y-80478333D02*
X76669533Y-80383095D01*
X76812390Y-81525952D02*
X76764771Y-81430714D01*
X76764771Y-81430714D02*
X76717152Y-81383095D01*
X76717152Y-81383095D02*
X76621914Y-81335476D01*
X76621914Y-81335476D02*
X76574295Y-81335476D01*
X76574295Y-81335476D02*
X76479057Y-81383095D01*
X76479057Y-81383095D02*
X76431438Y-81430714D01*
X76431438Y-81430714D02*
X76383819Y-81525952D01*
X76383819Y-81525952D02*
X76383819Y-81716428D01*
X76383819Y-81716428D02*
X76431438Y-81811666D01*
X76431438Y-81811666D02*
X76479057Y-81859285D01*
X76479057Y-81859285D02*
X76574295Y-81906904D01*
X76574295Y-81906904D02*
X76621914Y-81906904D01*
X76621914Y-81906904D02*
X76717152Y-81859285D01*
X76717152Y-81859285D02*
X76764771Y-81811666D01*
X76764771Y-81811666D02*
X76812390Y-81716428D01*
X76812390Y-81716428D02*
X76812390Y-81525952D01*
X76812390Y-81525952D02*
X76860009Y-81430714D01*
X76860009Y-81430714D02*
X76907628Y-81383095D01*
X76907628Y-81383095D02*
X77002866Y-81335476D01*
X77002866Y-81335476D02*
X77193342Y-81335476D01*
X77193342Y-81335476D02*
X77288580Y-81383095D01*
X77288580Y-81383095D02*
X77336200Y-81430714D01*
X77336200Y-81430714D02*
X77383819Y-81525952D01*
X77383819Y-81525952D02*
X77383819Y-81716428D01*
X77383819Y-81716428D02*
X77336200Y-81811666D01*
X77336200Y-81811666D02*
X77288580Y-81859285D01*
X77288580Y-81859285D02*
X77193342Y-81906904D01*
X77193342Y-81906904D02*
X77002866Y-81906904D01*
X77002866Y-81906904D02*
X76907628Y-81859285D01*
X76907628Y-81859285D02*
X76860009Y-81811666D01*
X76860009Y-81811666D02*
X76812390Y-81716428D01*
X96085819Y-93591142D02*
X95609628Y-93257809D01*
X96085819Y-93019714D02*
X95085819Y-93019714D01*
X95085819Y-93019714D02*
X95085819Y-93400666D01*
X95085819Y-93400666D02*
X95133438Y-93495904D01*
X95133438Y-93495904D02*
X95181057Y-93543523D01*
X95181057Y-93543523D02*
X95276295Y-93591142D01*
X95276295Y-93591142D02*
X95419152Y-93591142D01*
X95419152Y-93591142D02*
X95514390Y-93543523D01*
X95514390Y-93543523D02*
X95562009Y-93495904D01*
X95562009Y-93495904D02*
X95609628Y-93400666D01*
X95609628Y-93400666D02*
X95609628Y-93019714D01*
X95181057Y-93972095D02*
X95133438Y-94019714D01*
X95133438Y-94019714D02*
X95085819Y-94114952D01*
X95085819Y-94114952D02*
X95085819Y-94353047D01*
X95085819Y-94353047D02*
X95133438Y-94448285D01*
X95133438Y-94448285D02*
X95181057Y-94495904D01*
X95181057Y-94495904D02*
X95276295Y-94543523D01*
X95276295Y-94543523D02*
X95371533Y-94543523D01*
X95371533Y-94543523D02*
X95514390Y-94495904D01*
X95514390Y-94495904D02*
X96085819Y-93924476D01*
X96085819Y-93924476D02*
X96085819Y-94543523D01*
X95181057Y-94924476D02*
X95133438Y-94972095D01*
X95133438Y-94972095D02*
X95085819Y-95067333D01*
X95085819Y-95067333D02*
X95085819Y-95305428D01*
X95085819Y-95305428D02*
X95133438Y-95400666D01*
X95133438Y-95400666D02*
X95181057Y-95448285D01*
X95181057Y-95448285D02*
X95276295Y-95495904D01*
X95276295Y-95495904D02*
X95371533Y-95495904D01*
X95371533Y-95495904D02*
X95514390Y-95448285D01*
X95514390Y-95448285D02*
X96085819Y-94876857D01*
X96085819Y-94876857D02*
X96085819Y-95495904D01*
X82401580Y-87368142D02*
X82449200Y-87320523D01*
X82449200Y-87320523D02*
X82496819Y-87177666D01*
X82496819Y-87177666D02*
X82496819Y-87082428D01*
X82496819Y-87082428D02*
X82449200Y-86939571D01*
X82449200Y-86939571D02*
X82353961Y-86844333D01*
X82353961Y-86844333D02*
X82258723Y-86796714D01*
X82258723Y-86796714D02*
X82068247Y-86749095D01*
X82068247Y-86749095D02*
X81925390Y-86749095D01*
X81925390Y-86749095D02*
X81734914Y-86796714D01*
X81734914Y-86796714D02*
X81639676Y-86844333D01*
X81639676Y-86844333D02*
X81544438Y-86939571D01*
X81544438Y-86939571D02*
X81496819Y-87082428D01*
X81496819Y-87082428D02*
X81496819Y-87177666D01*
X81496819Y-87177666D02*
X81544438Y-87320523D01*
X81544438Y-87320523D02*
X81592057Y-87368142D01*
X81592057Y-87749095D02*
X81544438Y-87796714D01*
X81544438Y-87796714D02*
X81496819Y-87891952D01*
X81496819Y-87891952D02*
X81496819Y-88130047D01*
X81496819Y-88130047D02*
X81544438Y-88225285D01*
X81544438Y-88225285D02*
X81592057Y-88272904D01*
X81592057Y-88272904D02*
X81687295Y-88320523D01*
X81687295Y-88320523D02*
X81782533Y-88320523D01*
X81782533Y-88320523D02*
X81925390Y-88272904D01*
X81925390Y-88272904D02*
X82496819Y-87701476D01*
X82496819Y-87701476D02*
X82496819Y-88320523D01*
X81496819Y-88939571D02*
X81496819Y-89034809D01*
X81496819Y-89034809D02*
X81544438Y-89130047D01*
X81544438Y-89130047D02*
X81592057Y-89177666D01*
X81592057Y-89177666D02*
X81687295Y-89225285D01*
X81687295Y-89225285D02*
X81877771Y-89272904D01*
X81877771Y-89272904D02*
X82115866Y-89272904D01*
X82115866Y-89272904D02*
X82306342Y-89225285D01*
X82306342Y-89225285D02*
X82401580Y-89177666D01*
X82401580Y-89177666D02*
X82449200Y-89130047D01*
X82449200Y-89130047D02*
X82496819Y-89034809D01*
X82496819Y-89034809D02*
X82496819Y-88939571D01*
X82496819Y-88939571D02*
X82449200Y-88844333D01*
X82449200Y-88844333D02*
X82401580Y-88796714D01*
X82401580Y-88796714D02*
X82306342Y-88749095D01*
X82306342Y-88749095D02*
X82115866Y-88701476D01*
X82115866Y-88701476D02*
X81877771Y-88701476D01*
X81877771Y-88701476D02*
X81687295Y-88749095D01*
X81687295Y-88749095D02*
X81592057Y-88796714D01*
X81592057Y-88796714D02*
X81544438Y-88844333D01*
X81544438Y-88844333D02*
X81496819Y-88939571D01*
X83671580Y-79748142D02*
X83719200Y-79700523D01*
X83719200Y-79700523D02*
X83766819Y-79557666D01*
X83766819Y-79557666D02*
X83766819Y-79462428D01*
X83766819Y-79462428D02*
X83719200Y-79319571D01*
X83719200Y-79319571D02*
X83623961Y-79224333D01*
X83623961Y-79224333D02*
X83528723Y-79176714D01*
X83528723Y-79176714D02*
X83338247Y-79129095D01*
X83338247Y-79129095D02*
X83195390Y-79129095D01*
X83195390Y-79129095D02*
X83004914Y-79176714D01*
X83004914Y-79176714D02*
X82909676Y-79224333D01*
X82909676Y-79224333D02*
X82814438Y-79319571D01*
X82814438Y-79319571D02*
X82766819Y-79462428D01*
X82766819Y-79462428D02*
X82766819Y-79557666D01*
X82766819Y-79557666D02*
X82814438Y-79700523D01*
X82814438Y-79700523D02*
X82862057Y-79748142D01*
X83766819Y-80700523D02*
X83766819Y-80129095D01*
X83766819Y-80414809D02*
X82766819Y-80414809D01*
X82766819Y-80414809D02*
X82909676Y-80319571D01*
X82909676Y-80319571D02*
X83004914Y-80224333D01*
X83004914Y-80224333D02*
X83052533Y-80129095D01*
X82766819Y-81033857D02*
X82766819Y-81700523D01*
X82766819Y-81700523D02*
X83766819Y-81271952D01*
X86621857Y-99546580D02*
X86669476Y-99594200D01*
X86669476Y-99594200D02*
X86812333Y-99641819D01*
X86812333Y-99641819D02*
X86907571Y-99641819D01*
X86907571Y-99641819D02*
X87050428Y-99594200D01*
X87050428Y-99594200D02*
X87145666Y-99498961D01*
X87145666Y-99498961D02*
X87193285Y-99403723D01*
X87193285Y-99403723D02*
X87240904Y-99213247D01*
X87240904Y-99213247D02*
X87240904Y-99070390D01*
X87240904Y-99070390D02*
X87193285Y-98879914D01*
X87193285Y-98879914D02*
X87145666Y-98784676D01*
X87145666Y-98784676D02*
X87050428Y-98689438D01*
X87050428Y-98689438D02*
X86907571Y-98641819D01*
X86907571Y-98641819D02*
X86812333Y-98641819D01*
X86812333Y-98641819D02*
X86669476Y-98689438D01*
X86669476Y-98689438D02*
X86621857Y-98737057D01*
X86240904Y-98737057D02*
X86193285Y-98689438D01*
X86193285Y-98689438D02*
X86098047Y-98641819D01*
X86098047Y-98641819D02*
X85859952Y-98641819D01*
X85859952Y-98641819D02*
X85764714Y-98689438D01*
X85764714Y-98689438D02*
X85717095Y-98737057D01*
X85717095Y-98737057D02*
X85669476Y-98832295D01*
X85669476Y-98832295D02*
X85669476Y-98927533D01*
X85669476Y-98927533D02*
X85717095Y-99070390D01*
X85717095Y-99070390D02*
X86288523Y-99641819D01*
X86288523Y-99641819D02*
X85669476Y-99641819D01*
X84812333Y-98641819D02*
X85002809Y-98641819D01*
X85002809Y-98641819D02*
X85098047Y-98689438D01*
X85098047Y-98689438D02*
X85145666Y-98737057D01*
X85145666Y-98737057D02*
X85240904Y-98879914D01*
X85240904Y-98879914D02*
X85288523Y-99070390D01*
X85288523Y-99070390D02*
X85288523Y-99451342D01*
X85288523Y-99451342D02*
X85240904Y-99546580D01*
X85240904Y-99546580D02*
X85193285Y-99594200D01*
X85193285Y-99594200D02*
X85098047Y-99641819D01*
X85098047Y-99641819D02*
X84907571Y-99641819D01*
X84907571Y-99641819D02*
X84812333Y-99594200D01*
X84812333Y-99594200D02*
X84764714Y-99546580D01*
X84764714Y-99546580D02*
X84717095Y-99451342D01*
X84717095Y-99451342D02*
X84717095Y-99213247D01*
X84717095Y-99213247D02*
X84764714Y-99118009D01*
X84764714Y-99118009D02*
X84812333Y-99070390D01*
X84812333Y-99070390D02*
X84907571Y-99022771D01*
X84907571Y-99022771D02*
X85098047Y-99022771D01*
X85098047Y-99022771D02*
X85193285Y-99070390D01*
X85193285Y-99070390D02*
X85240904Y-99118009D01*
X85240904Y-99118009D02*
X85288523Y-99213247D01*
X88243580Y-78605142D02*
X88291200Y-78557523D01*
X88291200Y-78557523D02*
X88338819Y-78414666D01*
X88338819Y-78414666D02*
X88338819Y-78319428D01*
X88338819Y-78319428D02*
X88291200Y-78176571D01*
X88291200Y-78176571D02*
X88195961Y-78081333D01*
X88195961Y-78081333D02*
X88100723Y-78033714D01*
X88100723Y-78033714D02*
X87910247Y-77986095D01*
X87910247Y-77986095D02*
X87767390Y-77986095D01*
X87767390Y-77986095D02*
X87576914Y-78033714D01*
X87576914Y-78033714D02*
X87481676Y-78081333D01*
X87481676Y-78081333D02*
X87386438Y-78176571D01*
X87386438Y-78176571D02*
X87338819Y-78319428D01*
X87338819Y-78319428D02*
X87338819Y-78414666D01*
X87338819Y-78414666D02*
X87386438Y-78557523D01*
X87386438Y-78557523D02*
X87434057Y-78605142D01*
X87672152Y-79462285D02*
X88338819Y-79462285D01*
X87291200Y-79224190D02*
X88005485Y-78986095D01*
X88005485Y-78986095D02*
X88005485Y-79605142D01*
X87338819Y-80176571D02*
X87338819Y-80271809D01*
X87338819Y-80271809D02*
X87386438Y-80367047D01*
X87386438Y-80367047D02*
X87434057Y-80414666D01*
X87434057Y-80414666D02*
X87529295Y-80462285D01*
X87529295Y-80462285D02*
X87719771Y-80509904D01*
X87719771Y-80509904D02*
X87957866Y-80509904D01*
X87957866Y-80509904D02*
X88148342Y-80462285D01*
X88148342Y-80462285D02*
X88243580Y-80414666D01*
X88243580Y-80414666D02*
X88291200Y-80367047D01*
X88291200Y-80367047D02*
X88338819Y-80271809D01*
X88338819Y-80271809D02*
X88338819Y-80176571D01*
X88338819Y-80176571D02*
X88291200Y-80081333D01*
X88291200Y-80081333D02*
X88243580Y-80033714D01*
X88243580Y-80033714D02*
X88148342Y-79986095D01*
X88148342Y-79986095D02*
X87957866Y-79938476D01*
X87957866Y-79938476D02*
X87719771Y-79938476D01*
X87719771Y-79938476D02*
X87529295Y-79986095D01*
X87529295Y-79986095D02*
X87434057Y-80033714D01*
X87434057Y-80033714D02*
X87386438Y-80081333D01*
X87386438Y-80081333D02*
X87338819Y-80176571D01*
X69050819Y-90043095D02*
X69860342Y-90043095D01*
X69860342Y-90043095D02*
X69955580Y-90090714D01*
X69955580Y-90090714D02*
X70003200Y-90138333D01*
X70003200Y-90138333D02*
X70050819Y-90233571D01*
X70050819Y-90233571D02*
X70050819Y-90424047D01*
X70050819Y-90424047D02*
X70003200Y-90519285D01*
X70003200Y-90519285D02*
X69955580Y-90566904D01*
X69955580Y-90566904D02*
X69860342Y-90614523D01*
X69860342Y-90614523D02*
X69050819Y-90614523D01*
X69479390Y-91233571D02*
X69431771Y-91138333D01*
X69431771Y-91138333D02*
X69384152Y-91090714D01*
X69384152Y-91090714D02*
X69288914Y-91043095D01*
X69288914Y-91043095D02*
X69241295Y-91043095D01*
X69241295Y-91043095D02*
X69146057Y-91090714D01*
X69146057Y-91090714D02*
X69098438Y-91138333D01*
X69098438Y-91138333D02*
X69050819Y-91233571D01*
X69050819Y-91233571D02*
X69050819Y-91424047D01*
X69050819Y-91424047D02*
X69098438Y-91519285D01*
X69098438Y-91519285D02*
X69146057Y-91566904D01*
X69146057Y-91566904D02*
X69241295Y-91614523D01*
X69241295Y-91614523D02*
X69288914Y-91614523D01*
X69288914Y-91614523D02*
X69384152Y-91566904D01*
X69384152Y-91566904D02*
X69431771Y-91519285D01*
X69431771Y-91519285D02*
X69479390Y-91424047D01*
X69479390Y-91424047D02*
X69479390Y-91233571D01*
X69479390Y-91233571D02*
X69527009Y-91138333D01*
X69527009Y-91138333D02*
X69574628Y-91090714D01*
X69574628Y-91090714D02*
X69669866Y-91043095D01*
X69669866Y-91043095D02*
X69860342Y-91043095D01*
X69860342Y-91043095D02*
X69955580Y-91090714D01*
X69955580Y-91090714D02*
X70003200Y-91138333D01*
X70003200Y-91138333D02*
X70050819Y-91233571D01*
X70050819Y-91233571D02*
X70050819Y-91424047D01*
X70050819Y-91424047D02*
X70003200Y-91519285D01*
X70003200Y-91519285D02*
X69955580Y-91566904D01*
X69955580Y-91566904D02*
X69860342Y-91614523D01*
X69860342Y-91614523D02*
X69669866Y-91614523D01*
X69669866Y-91614523D02*
X69574628Y-91566904D01*
X69574628Y-91566904D02*
X69527009Y-91519285D01*
X69527009Y-91519285D02*
X69479390Y-91424047D01*
X90021580Y-78605142D02*
X90069200Y-78557523D01*
X90069200Y-78557523D02*
X90116819Y-78414666D01*
X90116819Y-78414666D02*
X90116819Y-78319428D01*
X90116819Y-78319428D02*
X90069200Y-78176571D01*
X90069200Y-78176571D02*
X89973961Y-78081333D01*
X89973961Y-78081333D02*
X89878723Y-78033714D01*
X89878723Y-78033714D02*
X89688247Y-77986095D01*
X89688247Y-77986095D02*
X89545390Y-77986095D01*
X89545390Y-77986095D02*
X89354914Y-78033714D01*
X89354914Y-78033714D02*
X89259676Y-78081333D01*
X89259676Y-78081333D02*
X89164438Y-78176571D01*
X89164438Y-78176571D02*
X89116819Y-78319428D01*
X89116819Y-78319428D02*
X89116819Y-78414666D01*
X89116819Y-78414666D02*
X89164438Y-78557523D01*
X89164438Y-78557523D02*
X89212057Y-78605142D01*
X89116819Y-78938476D02*
X89116819Y-79557523D01*
X89116819Y-79557523D02*
X89497771Y-79224190D01*
X89497771Y-79224190D02*
X89497771Y-79367047D01*
X89497771Y-79367047D02*
X89545390Y-79462285D01*
X89545390Y-79462285D02*
X89593009Y-79509904D01*
X89593009Y-79509904D02*
X89688247Y-79557523D01*
X89688247Y-79557523D02*
X89926342Y-79557523D01*
X89926342Y-79557523D02*
X90021580Y-79509904D01*
X90021580Y-79509904D02*
X90069200Y-79462285D01*
X90069200Y-79462285D02*
X90116819Y-79367047D01*
X90116819Y-79367047D02*
X90116819Y-79081333D01*
X90116819Y-79081333D02*
X90069200Y-78986095D01*
X90069200Y-78986095D02*
X90021580Y-78938476D01*
X90116819Y-80033714D02*
X90116819Y-80224190D01*
X90116819Y-80224190D02*
X90069200Y-80319428D01*
X90069200Y-80319428D02*
X90021580Y-80367047D01*
X90021580Y-80367047D02*
X89878723Y-80462285D01*
X89878723Y-80462285D02*
X89688247Y-80509904D01*
X89688247Y-80509904D02*
X89307295Y-80509904D01*
X89307295Y-80509904D02*
X89212057Y-80462285D01*
X89212057Y-80462285D02*
X89164438Y-80414666D01*
X89164438Y-80414666D02*
X89116819Y-80319428D01*
X89116819Y-80319428D02*
X89116819Y-80128952D01*
X89116819Y-80128952D02*
X89164438Y-80033714D01*
X89164438Y-80033714D02*
X89212057Y-79986095D01*
X89212057Y-79986095D02*
X89307295Y-79938476D01*
X89307295Y-79938476D02*
X89545390Y-79938476D01*
X89545390Y-79938476D02*
X89640628Y-79986095D01*
X89640628Y-79986095D02*
X89688247Y-80033714D01*
X89688247Y-80033714D02*
X89735866Y-80128952D01*
X89735866Y-80128952D02*
X89735866Y-80319428D01*
X89735866Y-80319428D02*
X89688247Y-80414666D01*
X89688247Y-80414666D02*
X89640628Y-80462285D01*
X89640628Y-80462285D02*
X89545390Y-80509904D01*
X84966980Y-106545142D02*
X85014600Y-106497523D01*
X85014600Y-106497523D02*
X85062219Y-106354666D01*
X85062219Y-106354666D02*
X85062219Y-106259428D01*
X85062219Y-106259428D02*
X85014600Y-106116571D01*
X85014600Y-106116571D02*
X84919361Y-106021333D01*
X84919361Y-106021333D02*
X84824123Y-105973714D01*
X84824123Y-105973714D02*
X84633647Y-105926095D01*
X84633647Y-105926095D02*
X84490790Y-105926095D01*
X84490790Y-105926095D02*
X84300314Y-105973714D01*
X84300314Y-105973714D02*
X84205076Y-106021333D01*
X84205076Y-106021333D02*
X84109838Y-106116571D01*
X84109838Y-106116571D02*
X84062219Y-106259428D01*
X84062219Y-106259428D02*
X84062219Y-106354666D01*
X84062219Y-106354666D02*
X84109838Y-106497523D01*
X84109838Y-106497523D02*
X84157457Y-106545142D01*
X84062219Y-106878476D02*
X84062219Y-107497523D01*
X84062219Y-107497523D02*
X84443171Y-107164190D01*
X84443171Y-107164190D02*
X84443171Y-107307047D01*
X84443171Y-107307047D02*
X84490790Y-107402285D01*
X84490790Y-107402285D02*
X84538409Y-107449904D01*
X84538409Y-107449904D02*
X84633647Y-107497523D01*
X84633647Y-107497523D02*
X84871742Y-107497523D01*
X84871742Y-107497523D02*
X84966980Y-107449904D01*
X84966980Y-107449904D02*
X85014600Y-107402285D01*
X85014600Y-107402285D02*
X85062219Y-107307047D01*
X85062219Y-107307047D02*
X85062219Y-107021333D01*
X85062219Y-107021333D02*
X85014600Y-106926095D01*
X85014600Y-106926095D02*
X84966980Y-106878476D01*
X84062219Y-108402285D02*
X84062219Y-107926095D01*
X84062219Y-107926095D02*
X84538409Y-107878476D01*
X84538409Y-107878476D02*
X84490790Y-107926095D01*
X84490790Y-107926095D02*
X84443171Y-108021333D01*
X84443171Y-108021333D02*
X84443171Y-108259428D01*
X84443171Y-108259428D02*
X84490790Y-108354666D01*
X84490790Y-108354666D02*
X84538409Y-108402285D01*
X84538409Y-108402285D02*
X84633647Y-108449904D01*
X84633647Y-108449904D02*
X84871742Y-108449904D01*
X84871742Y-108449904D02*
X84966980Y-108402285D01*
X84966980Y-108402285D02*
X85014600Y-108354666D01*
X85014600Y-108354666D02*
X85062219Y-108259428D01*
X85062219Y-108259428D02*
X85062219Y-108021333D01*
X85062219Y-108021333D02*
X85014600Y-107926095D01*
X85014600Y-107926095D02*
X84966980Y-107878476D01*
X96070657Y-97082780D02*
X96118276Y-97130400D01*
X96118276Y-97130400D02*
X96261133Y-97178019D01*
X96261133Y-97178019D02*
X96356371Y-97178019D01*
X96356371Y-97178019D02*
X96499228Y-97130400D01*
X96499228Y-97130400D02*
X96594466Y-97035161D01*
X96594466Y-97035161D02*
X96642085Y-96939923D01*
X96642085Y-96939923D02*
X96689704Y-96749447D01*
X96689704Y-96749447D02*
X96689704Y-96606590D01*
X96689704Y-96606590D02*
X96642085Y-96416114D01*
X96642085Y-96416114D02*
X96594466Y-96320876D01*
X96594466Y-96320876D02*
X96499228Y-96225638D01*
X96499228Y-96225638D02*
X96356371Y-96178019D01*
X96356371Y-96178019D02*
X96261133Y-96178019D01*
X96261133Y-96178019D02*
X96118276Y-96225638D01*
X96118276Y-96225638D02*
X96070657Y-96273257D01*
X95689704Y-96273257D02*
X95642085Y-96225638D01*
X95642085Y-96225638D02*
X95546847Y-96178019D01*
X95546847Y-96178019D02*
X95308752Y-96178019D01*
X95308752Y-96178019D02*
X95213514Y-96225638D01*
X95213514Y-96225638D02*
X95165895Y-96273257D01*
X95165895Y-96273257D02*
X95118276Y-96368495D01*
X95118276Y-96368495D02*
X95118276Y-96463733D01*
X95118276Y-96463733D02*
X95165895Y-96606590D01*
X95165895Y-96606590D02*
X95737323Y-97178019D01*
X95737323Y-97178019D02*
X95118276Y-97178019D01*
X94261133Y-96511352D02*
X94261133Y-97178019D01*
X94499228Y-96130400D02*
X94737323Y-96844685D01*
X94737323Y-96844685D02*
X94118276Y-96844685D01*
X104147857Y-94339580D02*
X104195476Y-94387200D01*
X104195476Y-94387200D02*
X104338333Y-94434819D01*
X104338333Y-94434819D02*
X104433571Y-94434819D01*
X104433571Y-94434819D02*
X104576428Y-94387200D01*
X104576428Y-94387200D02*
X104671666Y-94291961D01*
X104671666Y-94291961D02*
X104719285Y-94196723D01*
X104719285Y-94196723D02*
X104766904Y-94006247D01*
X104766904Y-94006247D02*
X104766904Y-93863390D01*
X104766904Y-93863390D02*
X104719285Y-93672914D01*
X104719285Y-93672914D02*
X104671666Y-93577676D01*
X104671666Y-93577676D02*
X104576428Y-93482438D01*
X104576428Y-93482438D02*
X104433571Y-93434819D01*
X104433571Y-93434819D02*
X104338333Y-93434819D01*
X104338333Y-93434819D02*
X104195476Y-93482438D01*
X104195476Y-93482438D02*
X104147857Y-93530057D01*
X103766904Y-93530057D02*
X103719285Y-93482438D01*
X103719285Y-93482438D02*
X103624047Y-93434819D01*
X103624047Y-93434819D02*
X103385952Y-93434819D01*
X103385952Y-93434819D02*
X103290714Y-93482438D01*
X103290714Y-93482438D02*
X103243095Y-93530057D01*
X103243095Y-93530057D02*
X103195476Y-93625295D01*
X103195476Y-93625295D02*
X103195476Y-93720533D01*
X103195476Y-93720533D02*
X103243095Y-93863390D01*
X103243095Y-93863390D02*
X103814523Y-94434819D01*
X103814523Y-94434819D02*
X103195476Y-94434819D01*
X102814523Y-93530057D02*
X102766904Y-93482438D01*
X102766904Y-93482438D02*
X102671666Y-93434819D01*
X102671666Y-93434819D02*
X102433571Y-93434819D01*
X102433571Y-93434819D02*
X102338333Y-93482438D01*
X102338333Y-93482438D02*
X102290714Y-93530057D01*
X102290714Y-93530057D02*
X102243095Y-93625295D01*
X102243095Y-93625295D02*
X102243095Y-93720533D01*
X102243095Y-93720533D02*
X102290714Y-93863390D01*
X102290714Y-93863390D02*
X102862142Y-94434819D01*
X102862142Y-94434819D02*
X102243095Y-94434819D01*
X120276857Y-80337819D02*
X120610190Y-79861628D01*
X120848285Y-80337819D02*
X120848285Y-79337819D01*
X120848285Y-79337819D02*
X120467333Y-79337819D01*
X120467333Y-79337819D02*
X120372095Y-79385438D01*
X120372095Y-79385438D02*
X120324476Y-79433057D01*
X120324476Y-79433057D02*
X120276857Y-79528295D01*
X120276857Y-79528295D02*
X120276857Y-79671152D01*
X120276857Y-79671152D02*
X120324476Y-79766390D01*
X120324476Y-79766390D02*
X120372095Y-79814009D01*
X120372095Y-79814009D02*
X120467333Y-79861628D01*
X120467333Y-79861628D02*
X120848285Y-79861628D01*
X119324476Y-80337819D02*
X119895904Y-80337819D01*
X119610190Y-80337819D02*
X119610190Y-79337819D01*
X119610190Y-79337819D02*
X119705428Y-79480676D01*
X119705428Y-79480676D02*
X119800666Y-79575914D01*
X119800666Y-79575914D02*
X119895904Y-79623533D01*
X118848285Y-80337819D02*
X118657809Y-80337819D01*
X118657809Y-80337819D02*
X118562571Y-80290200D01*
X118562571Y-80290200D02*
X118514952Y-80242580D01*
X118514952Y-80242580D02*
X118419714Y-80099723D01*
X118419714Y-80099723D02*
X118372095Y-79909247D01*
X118372095Y-79909247D02*
X118372095Y-79528295D01*
X118372095Y-79528295D02*
X118419714Y-79433057D01*
X118419714Y-79433057D02*
X118467333Y-79385438D01*
X118467333Y-79385438D02*
X118562571Y-79337819D01*
X118562571Y-79337819D02*
X118753047Y-79337819D01*
X118753047Y-79337819D02*
X118848285Y-79385438D01*
X118848285Y-79385438D02*
X118895904Y-79433057D01*
X118895904Y-79433057D02*
X118943523Y-79528295D01*
X118943523Y-79528295D02*
X118943523Y-79766390D01*
X118943523Y-79766390D02*
X118895904Y-79861628D01*
X118895904Y-79861628D02*
X118848285Y-79909247D01*
X118848285Y-79909247D02*
X118753047Y-79956866D01*
X118753047Y-79956866D02*
X118562571Y-79956866D01*
X118562571Y-79956866D02*
X118467333Y-79909247D01*
X118467333Y-79909247D02*
X118419714Y-79861628D01*
X118419714Y-79861628D02*
X118372095Y-79766390D01*
X99038580Y-96029542D02*
X99086200Y-95981923D01*
X99086200Y-95981923D02*
X99133819Y-95839066D01*
X99133819Y-95839066D02*
X99133819Y-95743828D01*
X99133819Y-95743828D02*
X99086200Y-95600971D01*
X99086200Y-95600971D02*
X98990961Y-95505733D01*
X98990961Y-95505733D02*
X98895723Y-95458114D01*
X98895723Y-95458114D02*
X98705247Y-95410495D01*
X98705247Y-95410495D02*
X98562390Y-95410495D01*
X98562390Y-95410495D02*
X98371914Y-95458114D01*
X98371914Y-95458114D02*
X98276676Y-95505733D01*
X98276676Y-95505733D02*
X98181438Y-95600971D01*
X98181438Y-95600971D02*
X98133819Y-95743828D01*
X98133819Y-95743828D02*
X98133819Y-95839066D01*
X98133819Y-95839066D02*
X98181438Y-95981923D01*
X98181438Y-95981923D02*
X98229057Y-96029542D01*
X98229057Y-96410495D02*
X98181438Y-96458114D01*
X98181438Y-96458114D02*
X98133819Y-96553352D01*
X98133819Y-96553352D02*
X98133819Y-96791447D01*
X98133819Y-96791447D02*
X98181438Y-96886685D01*
X98181438Y-96886685D02*
X98229057Y-96934304D01*
X98229057Y-96934304D02*
X98324295Y-96981923D01*
X98324295Y-96981923D02*
X98419533Y-96981923D01*
X98419533Y-96981923D02*
X98562390Y-96934304D01*
X98562390Y-96934304D02*
X99133819Y-96362876D01*
X99133819Y-96362876D02*
X99133819Y-96981923D01*
X98133819Y-97315257D02*
X98133819Y-97981923D01*
X98133819Y-97981923D02*
X99133819Y-97553352D01*
X95634980Y-101846142D02*
X95682600Y-101798523D01*
X95682600Y-101798523D02*
X95730219Y-101655666D01*
X95730219Y-101655666D02*
X95730219Y-101560428D01*
X95730219Y-101560428D02*
X95682600Y-101417571D01*
X95682600Y-101417571D02*
X95587361Y-101322333D01*
X95587361Y-101322333D02*
X95492123Y-101274714D01*
X95492123Y-101274714D02*
X95301647Y-101227095D01*
X95301647Y-101227095D02*
X95158790Y-101227095D01*
X95158790Y-101227095D02*
X94968314Y-101274714D01*
X94968314Y-101274714D02*
X94873076Y-101322333D01*
X94873076Y-101322333D02*
X94777838Y-101417571D01*
X94777838Y-101417571D02*
X94730219Y-101560428D01*
X94730219Y-101560428D02*
X94730219Y-101655666D01*
X94730219Y-101655666D02*
X94777838Y-101798523D01*
X94777838Y-101798523D02*
X94825457Y-101846142D01*
X94825457Y-102227095D02*
X94777838Y-102274714D01*
X94777838Y-102274714D02*
X94730219Y-102369952D01*
X94730219Y-102369952D02*
X94730219Y-102608047D01*
X94730219Y-102608047D02*
X94777838Y-102703285D01*
X94777838Y-102703285D02*
X94825457Y-102750904D01*
X94825457Y-102750904D02*
X94920695Y-102798523D01*
X94920695Y-102798523D02*
X95015933Y-102798523D01*
X95015933Y-102798523D02*
X95158790Y-102750904D01*
X95158790Y-102750904D02*
X95730219Y-102179476D01*
X95730219Y-102179476D02*
X95730219Y-102798523D01*
X95730219Y-103274714D02*
X95730219Y-103465190D01*
X95730219Y-103465190D02*
X95682600Y-103560428D01*
X95682600Y-103560428D02*
X95634980Y-103608047D01*
X95634980Y-103608047D02*
X95492123Y-103703285D01*
X95492123Y-103703285D02*
X95301647Y-103750904D01*
X95301647Y-103750904D02*
X94920695Y-103750904D01*
X94920695Y-103750904D02*
X94825457Y-103703285D01*
X94825457Y-103703285D02*
X94777838Y-103655666D01*
X94777838Y-103655666D02*
X94730219Y-103560428D01*
X94730219Y-103560428D02*
X94730219Y-103369952D01*
X94730219Y-103369952D02*
X94777838Y-103274714D01*
X94777838Y-103274714D02*
X94825457Y-103227095D01*
X94825457Y-103227095D02*
X94920695Y-103179476D01*
X94920695Y-103179476D02*
X95158790Y-103179476D01*
X95158790Y-103179476D02*
X95254028Y-103227095D01*
X95254028Y-103227095D02*
X95301647Y-103274714D01*
X95301647Y-103274714D02*
X95349266Y-103369952D01*
X95349266Y-103369952D02*
X95349266Y-103560428D01*
X95349266Y-103560428D02*
X95301647Y-103655666D01*
X95301647Y-103655666D02*
X95254028Y-103703285D01*
X95254028Y-103703285D02*
X95158790Y-103750904D01*
X88719819Y-93731142D02*
X88243628Y-93397809D01*
X88719819Y-93159714D02*
X87719819Y-93159714D01*
X87719819Y-93159714D02*
X87719819Y-93540666D01*
X87719819Y-93540666D02*
X87767438Y-93635904D01*
X87767438Y-93635904D02*
X87815057Y-93683523D01*
X87815057Y-93683523D02*
X87910295Y-93731142D01*
X87910295Y-93731142D02*
X88053152Y-93731142D01*
X88053152Y-93731142D02*
X88148390Y-93683523D01*
X88148390Y-93683523D02*
X88196009Y-93635904D01*
X88196009Y-93635904D02*
X88243628Y-93540666D01*
X88243628Y-93540666D02*
X88243628Y-93159714D01*
X87815057Y-94112095D02*
X87767438Y-94159714D01*
X87767438Y-94159714D02*
X87719819Y-94254952D01*
X87719819Y-94254952D02*
X87719819Y-94493047D01*
X87719819Y-94493047D02*
X87767438Y-94588285D01*
X87767438Y-94588285D02*
X87815057Y-94635904D01*
X87815057Y-94635904D02*
X87910295Y-94683523D01*
X87910295Y-94683523D02*
X88005533Y-94683523D01*
X88005533Y-94683523D02*
X88148390Y-94635904D01*
X88148390Y-94635904D02*
X88719819Y-94064476D01*
X88719819Y-94064476D02*
X88719819Y-94683523D01*
X88053152Y-95540666D02*
X88719819Y-95540666D01*
X87672200Y-95302571D02*
X88386485Y-95064476D01*
X88386485Y-95064476D02*
X88386485Y-95683523D01*
X62589580Y-101846142D02*
X62637200Y-101798523D01*
X62637200Y-101798523D02*
X62684819Y-101655666D01*
X62684819Y-101655666D02*
X62684819Y-101560428D01*
X62684819Y-101560428D02*
X62637200Y-101417571D01*
X62637200Y-101417571D02*
X62541961Y-101322333D01*
X62541961Y-101322333D02*
X62446723Y-101274714D01*
X62446723Y-101274714D02*
X62256247Y-101227095D01*
X62256247Y-101227095D02*
X62113390Y-101227095D01*
X62113390Y-101227095D02*
X61922914Y-101274714D01*
X61922914Y-101274714D02*
X61827676Y-101322333D01*
X61827676Y-101322333D02*
X61732438Y-101417571D01*
X61732438Y-101417571D02*
X61684819Y-101560428D01*
X61684819Y-101560428D02*
X61684819Y-101655666D01*
X61684819Y-101655666D02*
X61732438Y-101798523D01*
X61732438Y-101798523D02*
X61780057Y-101846142D01*
X61780057Y-102227095D02*
X61732438Y-102274714D01*
X61732438Y-102274714D02*
X61684819Y-102369952D01*
X61684819Y-102369952D02*
X61684819Y-102608047D01*
X61684819Y-102608047D02*
X61732438Y-102703285D01*
X61732438Y-102703285D02*
X61780057Y-102750904D01*
X61780057Y-102750904D02*
X61875295Y-102798523D01*
X61875295Y-102798523D02*
X61970533Y-102798523D01*
X61970533Y-102798523D02*
X62113390Y-102750904D01*
X62113390Y-102750904D02*
X62684819Y-102179476D01*
X62684819Y-102179476D02*
X62684819Y-102798523D01*
X62113390Y-103369952D02*
X62065771Y-103274714D01*
X62065771Y-103274714D02*
X62018152Y-103227095D01*
X62018152Y-103227095D02*
X61922914Y-103179476D01*
X61922914Y-103179476D02*
X61875295Y-103179476D01*
X61875295Y-103179476D02*
X61780057Y-103227095D01*
X61780057Y-103227095D02*
X61732438Y-103274714D01*
X61732438Y-103274714D02*
X61684819Y-103369952D01*
X61684819Y-103369952D02*
X61684819Y-103560428D01*
X61684819Y-103560428D02*
X61732438Y-103655666D01*
X61732438Y-103655666D02*
X61780057Y-103703285D01*
X61780057Y-103703285D02*
X61875295Y-103750904D01*
X61875295Y-103750904D02*
X61922914Y-103750904D01*
X61922914Y-103750904D02*
X62018152Y-103703285D01*
X62018152Y-103703285D02*
X62065771Y-103655666D01*
X62065771Y-103655666D02*
X62113390Y-103560428D01*
X62113390Y-103560428D02*
X62113390Y-103369952D01*
X62113390Y-103369952D02*
X62161009Y-103274714D01*
X62161009Y-103274714D02*
X62208628Y-103227095D01*
X62208628Y-103227095D02*
X62303866Y-103179476D01*
X62303866Y-103179476D02*
X62494342Y-103179476D01*
X62494342Y-103179476D02*
X62589580Y-103227095D01*
X62589580Y-103227095D02*
X62637200Y-103274714D01*
X62637200Y-103274714D02*
X62684819Y-103369952D01*
X62684819Y-103369952D02*
X62684819Y-103560428D01*
X62684819Y-103560428D02*
X62637200Y-103655666D01*
X62637200Y-103655666D02*
X62589580Y-103703285D01*
X62589580Y-103703285D02*
X62494342Y-103750904D01*
X62494342Y-103750904D02*
X62303866Y-103750904D01*
X62303866Y-103750904D02*
X62208628Y-103703285D01*
X62208628Y-103703285D02*
X62161009Y-103655666D01*
X62161009Y-103655666D02*
X62113390Y-103560428D01*
X114561857Y-83163580D02*
X114609476Y-83211200D01*
X114609476Y-83211200D02*
X114752333Y-83258819D01*
X114752333Y-83258819D02*
X114847571Y-83258819D01*
X114847571Y-83258819D02*
X114990428Y-83211200D01*
X114990428Y-83211200D02*
X115085666Y-83115961D01*
X115085666Y-83115961D02*
X115133285Y-83020723D01*
X115133285Y-83020723D02*
X115180904Y-82830247D01*
X115180904Y-82830247D02*
X115180904Y-82687390D01*
X115180904Y-82687390D02*
X115133285Y-82496914D01*
X115133285Y-82496914D02*
X115085666Y-82401676D01*
X115085666Y-82401676D02*
X114990428Y-82306438D01*
X114990428Y-82306438D02*
X114847571Y-82258819D01*
X114847571Y-82258819D02*
X114752333Y-82258819D01*
X114752333Y-82258819D02*
X114609476Y-82306438D01*
X114609476Y-82306438D02*
X114561857Y-82354057D01*
X113609476Y-83258819D02*
X114180904Y-83258819D01*
X113895190Y-83258819D02*
X113895190Y-82258819D01*
X113895190Y-82258819D02*
X113990428Y-82401676D01*
X113990428Y-82401676D02*
X114085666Y-82496914D01*
X114085666Y-82496914D02*
X114180904Y-82544533D01*
X112752333Y-82258819D02*
X112942809Y-82258819D01*
X112942809Y-82258819D02*
X113038047Y-82306438D01*
X113038047Y-82306438D02*
X113085666Y-82354057D01*
X113085666Y-82354057D02*
X113180904Y-82496914D01*
X113180904Y-82496914D02*
X113228523Y-82687390D01*
X113228523Y-82687390D02*
X113228523Y-83068342D01*
X113228523Y-83068342D02*
X113180904Y-83163580D01*
X113180904Y-83163580D02*
X113133285Y-83211200D01*
X113133285Y-83211200D02*
X113038047Y-83258819D01*
X113038047Y-83258819D02*
X112847571Y-83258819D01*
X112847571Y-83258819D02*
X112752333Y-83211200D01*
X112752333Y-83211200D02*
X112704714Y-83163580D01*
X112704714Y-83163580D02*
X112657095Y-83068342D01*
X112657095Y-83068342D02*
X112657095Y-82830247D01*
X112657095Y-82830247D02*
X112704714Y-82735009D01*
X112704714Y-82735009D02*
X112752333Y-82687390D01*
X112752333Y-82687390D02*
X112847571Y-82639771D01*
X112847571Y-82639771D02*
X113038047Y-82639771D01*
X113038047Y-82639771D02*
X113133285Y-82687390D01*
X113133285Y-82687390D02*
X113180904Y-82735009D01*
X113180904Y-82735009D02*
X113228523Y-82830247D01*
X62589580Y-110736142D02*
X62637200Y-110688523D01*
X62637200Y-110688523D02*
X62684819Y-110545666D01*
X62684819Y-110545666D02*
X62684819Y-110450428D01*
X62684819Y-110450428D02*
X62637200Y-110307571D01*
X62637200Y-110307571D02*
X62541961Y-110212333D01*
X62541961Y-110212333D02*
X62446723Y-110164714D01*
X62446723Y-110164714D02*
X62256247Y-110117095D01*
X62256247Y-110117095D02*
X62113390Y-110117095D01*
X62113390Y-110117095D02*
X61922914Y-110164714D01*
X61922914Y-110164714D02*
X61827676Y-110212333D01*
X61827676Y-110212333D02*
X61732438Y-110307571D01*
X61732438Y-110307571D02*
X61684819Y-110450428D01*
X61684819Y-110450428D02*
X61684819Y-110545666D01*
X61684819Y-110545666D02*
X61732438Y-110688523D01*
X61732438Y-110688523D02*
X61780057Y-110736142D01*
X61684819Y-111069476D02*
X61684819Y-111688523D01*
X61684819Y-111688523D02*
X62065771Y-111355190D01*
X62065771Y-111355190D02*
X62065771Y-111498047D01*
X62065771Y-111498047D02*
X62113390Y-111593285D01*
X62113390Y-111593285D02*
X62161009Y-111640904D01*
X62161009Y-111640904D02*
X62256247Y-111688523D01*
X62256247Y-111688523D02*
X62494342Y-111688523D01*
X62494342Y-111688523D02*
X62589580Y-111640904D01*
X62589580Y-111640904D02*
X62637200Y-111593285D01*
X62637200Y-111593285D02*
X62684819Y-111498047D01*
X62684819Y-111498047D02*
X62684819Y-111212333D01*
X62684819Y-111212333D02*
X62637200Y-111117095D01*
X62637200Y-111117095D02*
X62589580Y-111069476D01*
X61684819Y-112021857D02*
X61684819Y-112688523D01*
X61684819Y-112688523D02*
X62684819Y-112259952D01*
X81226819Y-99560142D02*
X80750628Y-99226809D01*
X81226819Y-98988714D02*
X80226819Y-98988714D01*
X80226819Y-98988714D02*
X80226819Y-99369666D01*
X80226819Y-99369666D02*
X80274438Y-99464904D01*
X80274438Y-99464904D02*
X80322057Y-99512523D01*
X80322057Y-99512523D02*
X80417295Y-99560142D01*
X80417295Y-99560142D02*
X80560152Y-99560142D01*
X80560152Y-99560142D02*
X80655390Y-99512523D01*
X80655390Y-99512523D02*
X80703009Y-99464904D01*
X80703009Y-99464904D02*
X80750628Y-99369666D01*
X80750628Y-99369666D02*
X80750628Y-98988714D01*
X80322057Y-99941095D02*
X80274438Y-99988714D01*
X80274438Y-99988714D02*
X80226819Y-100083952D01*
X80226819Y-100083952D02*
X80226819Y-100322047D01*
X80226819Y-100322047D02*
X80274438Y-100417285D01*
X80274438Y-100417285D02*
X80322057Y-100464904D01*
X80322057Y-100464904D02*
X80417295Y-100512523D01*
X80417295Y-100512523D02*
X80512533Y-100512523D01*
X80512533Y-100512523D02*
X80655390Y-100464904D01*
X80655390Y-100464904D02*
X81226819Y-99893476D01*
X81226819Y-99893476D02*
X81226819Y-100512523D01*
X80655390Y-101083952D02*
X80607771Y-100988714D01*
X80607771Y-100988714D02*
X80560152Y-100941095D01*
X80560152Y-100941095D02*
X80464914Y-100893476D01*
X80464914Y-100893476D02*
X80417295Y-100893476D01*
X80417295Y-100893476D02*
X80322057Y-100941095D01*
X80322057Y-100941095D02*
X80274438Y-100988714D01*
X80274438Y-100988714D02*
X80226819Y-101083952D01*
X80226819Y-101083952D02*
X80226819Y-101274428D01*
X80226819Y-101274428D02*
X80274438Y-101369666D01*
X80274438Y-101369666D02*
X80322057Y-101417285D01*
X80322057Y-101417285D02*
X80417295Y-101464904D01*
X80417295Y-101464904D02*
X80464914Y-101464904D01*
X80464914Y-101464904D02*
X80560152Y-101417285D01*
X80560152Y-101417285D02*
X80607771Y-101369666D01*
X80607771Y-101369666D02*
X80655390Y-101274428D01*
X80655390Y-101274428D02*
X80655390Y-101083952D01*
X80655390Y-101083952D02*
X80703009Y-100988714D01*
X80703009Y-100988714D02*
X80750628Y-100941095D01*
X80750628Y-100941095D02*
X80845866Y-100893476D01*
X80845866Y-100893476D02*
X81036342Y-100893476D01*
X81036342Y-100893476D02*
X81131580Y-100941095D01*
X81131580Y-100941095D02*
X81179200Y-100988714D01*
X81179200Y-100988714D02*
X81226819Y-101083952D01*
X81226819Y-101083952D02*
X81226819Y-101274428D01*
X81226819Y-101274428D02*
X81179200Y-101369666D01*
X81179200Y-101369666D02*
X81131580Y-101417285D01*
X81131580Y-101417285D02*
X81036342Y-101464904D01*
X81036342Y-101464904D02*
X80845866Y-101464904D01*
X80845866Y-101464904D02*
X80750628Y-101417285D01*
X80750628Y-101417285D02*
X80703009Y-101369666D01*
X80703009Y-101369666D02*
X80655390Y-101274428D01*
X79988580Y-87622142D02*
X80036200Y-87574523D01*
X80036200Y-87574523D02*
X80083819Y-87431666D01*
X80083819Y-87431666D02*
X80083819Y-87336428D01*
X80083819Y-87336428D02*
X80036200Y-87193571D01*
X80036200Y-87193571D02*
X79940961Y-87098333D01*
X79940961Y-87098333D02*
X79845723Y-87050714D01*
X79845723Y-87050714D02*
X79655247Y-87003095D01*
X79655247Y-87003095D02*
X79512390Y-87003095D01*
X79512390Y-87003095D02*
X79321914Y-87050714D01*
X79321914Y-87050714D02*
X79226676Y-87098333D01*
X79226676Y-87098333D02*
X79131438Y-87193571D01*
X79131438Y-87193571D02*
X79083819Y-87336428D01*
X79083819Y-87336428D02*
X79083819Y-87431666D01*
X79083819Y-87431666D02*
X79131438Y-87574523D01*
X79131438Y-87574523D02*
X79179057Y-87622142D01*
X79179057Y-88003095D02*
X79131438Y-88050714D01*
X79131438Y-88050714D02*
X79083819Y-88145952D01*
X79083819Y-88145952D02*
X79083819Y-88384047D01*
X79083819Y-88384047D02*
X79131438Y-88479285D01*
X79131438Y-88479285D02*
X79179057Y-88526904D01*
X79179057Y-88526904D02*
X79274295Y-88574523D01*
X79274295Y-88574523D02*
X79369533Y-88574523D01*
X79369533Y-88574523D02*
X79512390Y-88526904D01*
X79512390Y-88526904D02*
X80083819Y-87955476D01*
X80083819Y-87955476D02*
X80083819Y-88574523D01*
X80083819Y-89526904D02*
X80083819Y-88955476D01*
X80083819Y-89241190D02*
X79083819Y-89241190D01*
X79083819Y-89241190D02*
X79226676Y-89145952D01*
X79226676Y-89145952D02*
X79321914Y-89050714D01*
X79321914Y-89050714D02*
X79369533Y-88955476D01*
X79353580Y-106545142D02*
X79401200Y-106497523D01*
X79401200Y-106497523D02*
X79448819Y-106354666D01*
X79448819Y-106354666D02*
X79448819Y-106259428D01*
X79448819Y-106259428D02*
X79401200Y-106116571D01*
X79401200Y-106116571D02*
X79305961Y-106021333D01*
X79305961Y-106021333D02*
X79210723Y-105973714D01*
X79210723Y-105973714D02*
X79020247Y-105926095D01*
X79020247Y-105926095D02*
X78877390Y-105926095D01*
X78877390Y-105926095D02*
X78686914Y-105973714D01*
X78686914Y-105973714D02*
X78591676Y-106021333D01*
X78591676Y-106021333D02*
X78496438Y-106116571D01*
X78496438Y-106116571D02*
X78448819Y-106259428D01*
X78448819Y-106259428D02*
X78448819Y-106354666D01*
X78448819Y-106354666D02*
X78496438Y-106497523D01*
X78496438Y-106497523D02*
X78544057Y-106545142D01*
X78448819Y-106878476D02*
X78448819Y-107497523D01*
X78448819Y-107497523D02*
X78829771Y-107164190D01*
X78829771Y-107164190D02*
X78829771Y-107307047D01*
X78829771Y-107307047D02*
X78877390Y-107402285D01*
X78877390Y-107402285D02*
X78925009Y-107449904D01*
X78925009Y-107449904D02*
X79020247Y-107497523D01*
X79020247Y-107497523D02*
X79258342Y-107497523D01*
X79258342Y-107497523D02*
X79353580Y-107449904D01*
X79353580Y-107449904D02*
X79401200Y-107402285D01*
X79401200Y-107402285D02*
X79448819Y-107307047D01*
X79448819Y-107307047D02*
X79448819Y-107021333D01*
X79448819Y-107021333D02*
X79401200Y-106926095D01*
X79401200Y-106926095D02*
X79353580Y-106878476D01*
X78448819Y-108354666D02*
X78448819Y-108164190D01*
X78448819Y-108164190D02*
X78496438Y-108068952D01*
X78496438Y-108068952D02*
X78544057Y-108021333D01*
X78544057Y-108021333D02*
X78686914Y-107926095D01*
X78686914Y-107926095D02*
X78877390Y-107878476D01*
X78877390Y-107878476D02*
X79258342Y-107878476D01*
X79258342Y-107878476D02*
X79353580Y-107926095D01*
X79353580Y-107926095D02*
X79401200Y-107973714D01*
X79401200Y-107973714D02*
X79448819Y-108068952D01*
X79448819Y-108068952D02*
X79448819Y-108259428D01*
X79448819Y-108259428D02*
X79401200Y-108354666D01*
X79401200Y-108354666D02*
X79353580Y-108402285D01*
X79353580Y-108402285D02*
X79258342Y-108449904D01*
X79258342Y-108449904D02*
X79020247Y-108449904D01*
X79020247Y-108449904D02*
X78925009Y-108402285D01*
X78925009Y-108402285D02*
X78877390Y-108354666D01*
X78877390Y-108354666D02*
X78829771Y-108259428D01*
X78829771Y-108259428D02*
X78829771Y-108068952D01*
X78829771Y-108068952D02*
X78877390Y-107973714D01*
X78877390Y-107973714D02*
X78925009Y-107926095D01*
X78925009Y-107926095D02*
X79020247Y-107878476D01*
X86621857Y-98117819D02*
X86955190Y-97641628D01*
X87193285Y-98117819D02*
X87193285Y-97117819D01*
X87193285Y-97117819D02*
X86812333Y-97117819D01*
X86812333Y-97117819D02*
X86717095Y-97165438D01*
X86717095Y-97165438D02*
X86669476Y-97213057D01*
X86669476Y-97213057D02*
X86621857Y-97308295D01*
X86621857Y-97308295D02*
X86621857Y-97451152D01*
X86621857Y-97451152D02*
X86669476Y-97546390D01*
X86669476Y-97546390D02*
X86717095Y-97594009D01*
X86717095Y-97594009D02*
X86812333Y-97641628D01*
X86812333Y-97641628D02*
X87193285Y-97641628D01*
X86240904Y-97213057D02*
X86193285Y-97165438D01*
X86193285Y-97165438D02*
X86098047Y-97117819D01*
X86098047Y-97117819D02*
X85859952Y-97117819D01*
X85859952Y-97117819D02*
X85764714Y-97165438D01*
X85764714Y-97165438D02*
X85717095Y-97213057D01*
X85717095Y-97213057D02*
X85669476Y-97308295D01*
X85669476Y-97308295D02*
X85669476Y-97403533D01*
X85669476Y-97403533D02*
X85717095Y-97546390D01*
X85717095Y-97546390D02*
X86288523Y-98117819D01*
X86288523Y-98117819D02*
X85669476Y-98117819D01*
X84764714Y-97117819D02*
X85240904Y-97117819D01*
X85240904Y-97117819D02*
X85288523Y-97594009D01*
X85288523Y-97594009D02*
X85240904Y-97546390D01*
X85240904Y-97546390D02*
X85145666Y-97498771D01*
X85145666Y-97498771D02*
X84907571Y-97498771D01*
X84907571Y-97498771D02*
X84812333Y-97546390D01*
X84812333Y-97546390D02*
X84764714Y-97594009D01*
X84764714Y-97594009D02*
X84717095Y-97689247D01*
X84717095Y-97689247D02*
X84717095Y-97927342D01*
X84717095Y-97927342D02*
X84764714Y-98022580D01*
X84764714Y-98022580D02*
X84812333Y-98070200D01*
X84812333Y-98070200D02*
X84907571Y-98117819D01*
X84907571Y-98117819D02*
X85145666Y-98117819D01*
X85145666Y-98117819D02*
X85240904Y-98070200D01*
X85240904Y-98070200D02*
X85288523Y-98022580D01*
X102087819Y-98938142D02*
X101611628Y-98604809D01*
X102087819Y-98366714D02*
X101087819Y-98366714D01*
X101087819Y-98366714D02*
X101087819Y-98747666D01*
X101087819Y-98747666D02*
X101135438Y-98842904D01*
X101135438Y-98842904D02*
X101183057Y-98890523D01*
X101183057Y-98890523D02*
X101278295Y-98938142D01*
X101278295Y-98938142D02*
X101421152Y-98938142D01*
X101421152Y-98938142D02*
X101516390Y-98890523D01*
X101516390Y-98890523D02*
X101564009Y-98842904D01*
X101564009Y-98842904D02*
X101611628Y-98747666D01*
X101611628Y-98747666D02*
X101611628Y-98366714D01*
X101183057Y-99319095D02*
X101135438Y-99366714D01*
X101135438Y-99366714D02*
X101087819Y-99461952D01*
X101087819Y-99461952D02*
X101087819Y-99700047D01*
X101087819Y-99700047D02*
X101135438Y-99795285D01*
X101135438Y-99795285D02*
X101183057Y-99842904D01*
X101183057Y-99842904D02*
X101278295Y-99890523D01*
X101278295Y-99890523D02*
X101373533Y-99890523D01*
X101373533Y-99890523D02*
X101516390Y-99842904D01*
X101516390Y-99842904D02*
X102087819Y-99271476D01*
X102087819Y-99271476D02*
X102087819Y-99890523D01*
X101087819Y-100747666D02*
X101087819Y-100557190D01*
X101087819Y-100557190D02*
X101135438Y-100461952D01*
X101135438Y-100461952D02*
X101183057Y-100414333D01*
X101183057Y-100414333D02*
X101325914Y-100319095D01*
X101325914Y-100319095D02*
X101516390Y-100271476D01*
X101516390Y-100271476D02*
X101897342Y-100271476D01*
X101897342Y-100271476D02*
X101992580Y-100319095D01*
X101992580Y-100319095D02*
X102040200Y-100366714D01*
X102040200Y-100366714D02*
X102087819Y-100461952D01*
X102087819Y-100461952D02*
X102087819Y-100652428D01*
X102087819Y-100652428D02*
X102040200Y-100747666D01*
X102040200Y-100747666D02*
X101992580Y-100795285D01*
X101992580Y-100795285D02*
X101897342Y-100842904D01*
X101897342Y-100842904D02*
X101659247Y-100842904D01*
X101659247Y-100842904D02*
X101564009Y-100795285D01*
X101564009Y-100795285D02*
X101516390Y-100747666D01*
X101516390Y-100747666D02*
X101468771Y-100652428D01*
X101468771Y-100652428D02*
X101468771Y-100461952D01*
X101468771Y-100461952D02*
X101516390Y-100366714D01*
X101516390Y-100366714D02*
X101564009Y-100319095D01*
X101564009Y-100319095D02*
X101659247Y-100271476D01*
X78399819Y-96766142D02*
X77923628Y-96432809D01*
X78399819Y-96194714D02*
X77399819Y-96194714D01*
X77399819Y-96194714D02*
X77399819Y-96575666D01*
X77399819Y-96575666D02*
X77447438Y-96670904D01*
X77447438Y-96670904D02*
X77495057Y-96718523D01*
X77495057Y-96718523D02*
X77590295Y-96766142D01*
X77590295Y-96766142D02*
X77733152Y-96766142D01*
X77733152Y-96766142D02*
X77828390Y-96718523D01*
X77828390Y-96718523D02*
X77876009Y-96670904D01*
X77876009Y-96670904D02*
X77923628Y-96575666D01*
X77923628Y-96575666D02*
X77923628Y-96194714D01*
X77495057Y-97147095D02*
X77447438Y-97194714D01*
X77447438Y-97194714D02*
X77399819Y-97289952D01*
X77399819Y-97289952D02*
X77399819Y-97528047D01*
X77399819Y-97528047D02*
X77447438Y-97623285D01*
X77447438Y-97623285D02*
X77495057Y-97670904D01*
X77495057Y-97670904D02*
X77590295Y-97718523D01*
X77590295Y-97718523D02*
X77685533Y-97718523D01*
X77685533Y-97718523D02*
X77828390Y-97670904D01*
X77828390Y-97670904D02*
X78399819Y-97099476D01*
X78399819Y-97099476D02*
X78399819Y-97718523D01*
X77399819Y-98051857D02*
X77399819Y-98718523D01*
X77399819Y-98718523D02*
X78399819Y-98289952D01*
X82147580Y-79748142D02*
X82195200Y-79700523D01*
X82195200Y-79700523D02*
X82242819Y-79557666D01*
X82242819Y-79557666D02*
X82242819Y-79462428D01*
X82242819Y-79462428D02*
X82195200Y-79319571D01*
X82195200Y-79319571D02*
X82099961Y-79224333D01*
X82099961Y-79224333D02*
X82004723Y-79176714D01*
X82004723Y-79176714D02*
X81814247Y-79129095D01*
X81814247Y-79129095D02*
X81671390Y-79129095D01*
X81671390Y-79129095D02*
X81480914Y-79176714D01*
X81480914Y-79176714D02*
X81385676Y-79224333D01*
X81385676Y-79224333D02*
X81290438Y-79319571D01*
X81290438Y-79319571D02*
X81242819Y-79462428D01*
X81242819Y-79462428D02*
X81242819Y-79557666D01*
X81242819Y-79557666D02*
X81290438Y-79700523D01*
X81290438Y-79700523D02*
X81338057Y-79748142D01*
X82242819Y-80700523D02*
X82242819Y-80129095D01*
X82242819Y-80414809D02*
X81242819Y-80414809D01*
X81242819Y-80414809D02*
X81385676Y-80319571D01*
X81385676Y-80319571D02*
X81480914Y-80224333D01*
X81480914Y-80224333D02*
X81528533Y-80129095D01*
X81671390Y-81271952D02*
X81623771Y-81176714D01*
X81623771Y-81176714D02*
X81576152Y-81129095D01*
X81576152Y-81129095D02*
X81480914Y-81081476D01*
X81480914Y-81081476D02*
X81433295Y-81081476D01*
X81433295Y-81081476D02*
X81338057Y-81129095D01*
X81338057Y-81129095D02*
X81290438Y-81176714D01*
X81290438Y-81176714D02*
X81242819Y-81271952D01*
X81242819Y-81271952D02*
X81242819Y-81462428D01*
X81242819Y-81462428D02*
X81290438Y-81557666D01*
X81290438Y-81557666D02*
X81338057Y-81605285D01*
X81338057Y-81605285D02*
X81433295Y-81652904D01*
X81433295Y-81652904D02*
X81480914Y-81652904D01*
X81480914Y-81652904D02*
X81576152Y-81605285D01*
X81576152Y-81605285D02*
X81623771Y-81557666D01*
X81623771Y-81557666D02*
X81671390Y-81462428D01*
X81671390Y-81462428D02*
X81671390Y-81271952D01*
X81671390Y-81271952D02*
X81719009Y-81176714D01*
X81719009Y-81176714D02*
X81766628Y-81129095D01*
X81766628Y-81129095D02*
X81861866Y-81081476D01*
X81861866Y-81081476D02*
X82052342Y-81081476D01*
X82052342Y-81081476D02*
X82147580Y-81129095D01*
X82147580Y-81129095D02*
X82195200Y-81176714D01*
X82195200Y-81176714D02*
X82242819Y-81271952D01*
X82242819Y-81271952D02*
X82242819Y-81462428D01*
X82242819Y-81462428D02*
X82195200Y-81557666D01*
X82195200Y-81557666D02*
X82147580Y-81605285D01*
X82147580Y-81605285D02*
X82052342Y-81652904D01*
X82052342Y-81652904D02*
X81861866Y-81652904D01*
X81861866Y-81652904D02*
X81766628Y-81605285D01*
X81766628Y-81605285D02*
X81719009Y-81557666D01*
X81719009Y-81557666D02*
X81671390Y-81462428D01*
X92921057Y-108125419D02*
X93254390Y-107649228D01*
X93492485Y-108125419D02*
X93492485Y-107125419D01*
X93492485Y-107125419D02*
X93111533Y-107125419D01*
X93111533Y-107125419D02*
X93016295Y-107173038D01*
X93016295Y-107173038D02*
X92968676Y-107220657D01*
X92968676Y-107220657D02*
X92921057Y-107315895D01*
X92921057Y-107315895D02*
X92921057Y-107458752D01*
X92921057Y-107458752D02*
X92968676Y-107553990D01*
X92968676Y-107553990D02*
X93016295Y-107601609D01*
X93016295Y-107601609D02*
X93111533Y-107649228D01*
X93111533Y-107649228D02*
X93492485Y-107649228D01*
X92587723Y-107125419D02*
X91968676Y-107125419D01*
X91968676Y-107125419D02*
X92302009Y-107506371D01*
X92302009Y-107506371D02*
X92159152Y-107506371D01*
X92159152Y-107506371D02*
X92063914Y-107553990D01*
X92063914Y-107553990D02*
X92016295Y-107601609D01*
X92016295Y-107601609D02*
X91968676Y-107696847D01*
X91968676Y-107696847D02*
X91968676Y-107934942D01*
X91968676Y-107934942D02*
X92016295Y-108030180D01*
X92016295Y-108030180D02*
X92063914Y-108077800D01*
X92063914Y-108077800D02*
X92159152Y-108125419D01*
X92159152Y-108125419D02*
X92444866Y-108125419D01*
X92444866Y-108125419D02*
X92540104Y-108077800D01*
X92540104Y-108077800D02*
X92587723Y-108030180D01*
X91349628Y-107125419D02*
X91254390Y-107125419D01*
X91254390Y-107125419D02*
X91159152Y-107173038D01*
X91159152Y-107173038D02*
X91111533Y-107220657D01*
X91111533Y-107220657D02*
X91063914Y-107315895D01*
X91063914Y-107315895D02*
X91016295Y-107506371D01*
X91016295Y-107506371D02*
X91016295Y-107744466D01*
X91016295Y-107744466D02*
X91063914Y-107934942D01*
X91063914Y-107934942D02*
X91111533Y-108030180D01*
X91111533Y-108030180D02*
X91159152Y-108077800D01*
X91159152Y-108077800D02*
X91254390Y-108125419D01*
X91254390Y-108125419D02*
X91349628Y-108125419D01*
X91349628Y-108125419D02*
X91444866Y-108077800D01*
X91444866Y-108077800D02*
X91492485Y-108030180D01*
X91492485Y-108030180D02*
X91540104Y-107934942D01*
X91540104Y-107934942D02*
X91587723Y-107744466D01*
X91587723Y-107744466D02*
X91587723Y-107506371D01*
X91587723Y-107506371D02*
X91540104Y-107315895D01*
X91540104Y-107315895D02*
X91492485Y-107220657D01*
X91492485Y-107220657D02*
X91444866Y-107173038D01*
X91444866Y-107173038D02*
X91349628Y-107125419D01*
X69391319Y-114038142D02*
X68915128Y-113704809D01*
X69391319Y-113466714D02*
X68391319Y-113466714D01*
X68391319Y-113466714D02*
X68391319Y-113847666D01*
X68391319Y-113847666D02*
X68438938Y-113942904D01*
X68438938Y-113942904D02*
X68486557Y-113990523D01*
X68486557Y-113990523D02*
X68581795Y-114038142D01*
X68581795Y-114038142D02*
X68724652Y-114038142D01*
X68724652Y-114038142D02*
X68819890Y-113990523D01*
X68819890Y-113990523D02*
X68867509Y-113942904D01*
X68867509Y-113942904D02*
X68915128Y-113847666D01*
X68915128Y-113847666D02*
X68915128Y-113466714D01*
X68391319Y-114371476D02*
X68391319Y-114990523D01*
X68391319Y-114990523D02*
X68772271Y-114657190D01*
X68772271Y-114657190D02*
X68772271Y-114800047D01*
X68772271Y-114800047D02*
X68819890Y-114895285D01*
X68819890Y-114895285D02*
X68867509Y-114942904D01*
X68867509Y-114942904D02*
X68962747Y-114990523D01*
X68962747Y-114990523D02*
X69200842Y-114990523D01*
X69200842Y-114990523D02*
X69296080Y-114942904D01*
X69296080Y-114942904D02*
X69343700Y-114895285D01*
X69343700Y-114895285D02*
X69391319Y-114800047D01*
X69391319Y-114800047D02*
X69391319Y-114514333D01*
X69391319Y-114514333D02*
X69343700Y-114419095D01*
X69343700Y-114419095D02*
X69296080Y-114371476D01*
X69391319Y-115942904D02*
X69391319Y-115371476D01*
X69391319Y-115657190D02*
X68391319Y-115657190D01*
X68391319Y-115657190D02*
X68534176Y-115561952D01*
X68534176Y-115561952D02*
X68629414Y-115466714D01*
X68629414Y-115466714D02*
X68677033Y-115371476D01*
X90660457Y-103655019D02*
X90993790Y-103178828D01*
X91231885Y-103655019D02*
X91231885Y-102655019D01*
X91231885Y-102655019D02*
X90850933Y-102655019D01*
X90850933Y-102655019D02*
X90755695Y-102702638D01*
X90755695Y-102702638D02*
X90708076Y-102750257D01*
X90708076Y-102750257D02*
X90660457Y-102845495D01*
X90660457Y-102845495D02*
X90660457Y-102988352D01*
X90660457Y-102988352D02*
X90708076Y-103083590D01*
X90708076Y-103083590D02*
X90755695Y-103131209D01*
X90755695Y-103131209D02*
X90850933Y-103178828D01*
X90850933Y-103178828D02*
X91231885Y-103178828D01*
X90279504Y-102750257D02*
X90231885Y-102702638D01*
X90231885Y-102702638D02*
X90136647Y-102655019D01*
X90136647Y-102655019D02*
X89898552Y-102655019D01*
X89898552Y-102655019D02*
X89803314Y-102702638D01*
X89803314Y-102702638D02*
X89755695Y-102750257D01*
X89755695Y-102750257D02*
X89708076Y-102845495D01*
X89708076Y-102845495D02*
X89708076Y-102940733D01*
X89708076Y-102940733D02*
X89755695Y-103083590D01*
X89755695Y-103083590D02*
X90327123Y-103655019D01*
X90327123Y-103655019D02*
X89708076Y-103655019D01*
X89231885Y-103655019D02*
X89041409Y-103655019D01*
X89041409Y-103655019D02*
X88946171Y-103607400D01*
X88946171Y-103607400D02*
X88898552Y-103559780D01*
X88898552Y-103559780D02*
X88803314Y-103416923D01*
X88803314Y-103416923D02*
X88755695Y-103226447D01*
X88755695Y-103226447D02*
X88755695Y-102845495D01*
X88755695Y-102845495D02*
X88803314Y-102750257D01*
X88803314Y-102750257D02*
X88850933Y-102702638D01*
X88850933Y-102702638D02*
X88946171Y-102655019D01*
X88946171Y-102655019D02*
X89136647Y-102655019D01*
X89136647Y-102655019D02*
X89231885Y-102702638D01*
X89231885Y-102702638D02*
X89279504Y-102750257D01*
X89279504Y-102750257D02*
X89327123Y-102845495D01*
X89327123Y-102845495D02*
X89327123Y-103083590D01*
X89327123Y-103083590D02*
X89279504Y-103178828D01*
X89279504Y-103178828D02*
X89231885Y-103226447D01*
X89231885Y-103226447D02*
X89136647Y-103274066D01*
X89136647Y-103274066D02*
X88946171Y-103274066D01*
X88946171Y-103274066D02*
X88850933Y-103226447D01*
X88850933Y-103226447D02*
X88803314Y-103178828D01*
X88803314Y-103178828D02*
X88755695Y-103083590D01*
X85544819Y-91305142D02*
X85068628Y-90971809D01*
X85544819Y-90733714D02*
X84544819Y-90733714D01*
X84544819Y-90733714D02*
X84544819Y-91114666D01*
X84544819Y-91114666D02*
X84592438Y-91209904D01*
X84592438Y-91209904D02*
X84640057Y-91257523D01*
X84640057Y-91257523D02*
X84735295Y-91305142D01*
X84735295Y-91305142D02*
X84878152Y-91305142D01*
X84878152Y-91305142D02*
X84973390Y-91257523D01*
X84973390Y-91257523D02*
X85021009Y-91209904D01*
X85021009Y-91209904D02*
X85068628Y-91114666D01*
X85068628Y-91114666D02*
X85068628Y-90733714D01*
X84640057Y-91686095D02*
X84592438Y-91733714D01*
X84592438Y-91733714D02*
X84544819Y-91828952D01*
X84544819Y-91828952D02*
X84544819Y-92067047D01*
X84544819Y-92067047D02*
X84592438Y-92162285D01*
X84592438Y-92162285D02*
X84640057Y-92209904D01*
X84640057Y-92209904D02*
X84735295Y-92257523D01*
X84735295Y-92257523D02*
X84830533Y-92257523D01*
X84830533Y-92257523D02*
X84973390Y-92209904D01*
X84973390Y-92209904D02*
X85544819Y-91638476D01*
X85544819Y-91638476D02*
X85544819Y-92257523D01*
X84544819Y-92876571D02*
X84544819Y-92971809D01*
X84544819Y-92971809D02*
X84592438Y-93067047D01*
X84592438Y-93067047D02*
X84640057Y-93114666D01*
X84640057Y-93114666D02*
X84735295Y-93162285D01*
X84735295Y-93162285D02*
X84925771Y-93209904D01*
X84925771Y-93209904D02*
X85163866Y-93209904D01*
X85163866Y-93209904D02*
X85354342Y-93162285D01*
X85354342Y-93162285D02*
X85449580Y-93114666D01*
X85449580Y-93114666D02*
X85497200Y-93067047D01*
X85497200Y-93067047D02*
X85544819Y-92971809D01*
X85544819Y-92971809D02*
X85544819Y-92876571D01*
X85544819Y-92876571D02*
X85497200Y-92781333D01*
X85497200Y-92781333D02*
X85449580Y-92733714D01*
X85449580Y-92733714D02*
X85354342Y-92686095D01*
X85354342Y-92686095D02*
X85163866Y-92638476D01*
X85163866Y-92638476D02*
X84925771Y-92638476D01*
X84925771Y-92638476D02*
X84735295Y-92686095D01*
X84735295Y-92686095D02*
X84640057Y-92733714D01*
X84640057Y-92733714D02*
X84592438Y-92781333D01*
X84592438Y-92781333D02*
X84544819Y-92876571D01*
X69050819Y-107092905D02*
X69860342Y-107092905D01*
X69860342Y-107092905D02*
X69955580Y-107140524D01*
X69955580Y-107140524D02*
X70003200Y-107188143D01*
X70003200Y-107188143D02*
X70050819Y-107283381D01*
X70050819Y-107283381D02*
X70050819Y-107473857D01*
X70050819Y-107473857D02*
X70003200Y-107569095D01*
X70003200Y-107569095D02*
X69955580Y-107616714D01*
X69955580Y-107616714D02*
X69860342Y-107664333D01*
X69860342Y-107664333D02*
X69050819Y-107664333D01*
X70050819Y-108664333D02*
X70050819Y-108092905D01*
X70050819Y-108378619D02*
X69050819Y-108378619D01*
X69050819Y-108378619D02*
X69193676Y-108283381D01*
X69193676Y-108283381D02*
X69288914Y-108188143D01*
X69288914Y-108188143D02*
X69336533Y-108092905D01*
X69050819Y-109283381D02*
X69050819Y-109378619D01*
X69050819Y-109378619D02*
X69098438Y-109473857D01*
X69098438Y-109473857D02*
X69146057Y-109521476D01*
X69146057Y-109521476D02*
X69241295Y-109569095D01*
X69241295Y-109569095D02*
X69431771Y-109616714D01*
X69431771Y-109616714D02*
X69669866Y-109616714D01*
X69669866Y-109616714D02*
X69860342Y-109569095D01*
X69860342Y-109569095D02*
X69955580Y-109521476D01*
X69955580Y-109521476D02*
X70003200Y-109473857D01*
X70003200Y-109473857D02*
X70050819Y-109378619D01*
X70050819Y-109378619D02*
X70050819Y-109283381D01*
X70050819Y-109283381D02*
X70003200Y-109188143D01*
X70003200Y-109188143D02*
X69955580Y-109140524D01*
X69955580Y-109140524D02*
X69860342Y-109092905D01*
X69860342Y-109092905D02*
X69669866Y-109045286D01*
X69669866Y-109045286D02*
X69431771Y-109045286D01*
X69431771Y-109045286D02*
X69241295Y-109092905D01*
X69241295Y-109092905D02*
X69146057Y-109140524D01*
X69146057Y-109140524D02*
X69098438Y-109188143D01*
X69098438Y-109188143D02*
X69050819Y-109283381D01*
X100689580Y-109593142D02*
X100737200Y-109545523D01*
X100737200Y-109545523D02*
X100784819Y-109402666D01*
X100784819Y-109402666D02*
X100784819Y-109307428D01*
X100784819Y-109307428D02*
X100737200Y-109164571D01*
X100737200Y-109164571D02*
X100641961Y-109069333D01*
X100641961Y-109069333D02*
X100546723Y-109021714D01*
X100546723Y-109021714D02*
X100356247Y-108974095D01*
X100356247Y-108974095D02*
X100213390Y-108974095D01*
X100213390Y-108974095D02*
X100022914Y-109021714D01*
X100022914Y-109021714D02*
X99927676Y-109069333D01*
X99927676Y-109069333D02*
X99832438Y-109164571D01*
X99832438Y-109164571D02*
X99784819Y-109307428D01*
X99784819Y-109307428D02*
X99784819Y-109402666D01*
X99784819Y-109402666D02*
X99832438Y-109545523D01*
X99832438Y-109545523D02*
X99880057Y-109593142D01*
X99784819Y-109926476D02*
X99784819Y-110545523D01*
X99784819Y-110545523D02*
X100165771Y-110212190D01*
X100165771Y-110212190D02*
X100165771Y-110355047D01*
X100165771Y-110355047D02*
X100213390Y-110450285D01*
X100213390Y-110450285D02*
X100261009Y-110497904D01*
X100261009Y-110497904D02*
X100356247Y-110545523D01*
X100356247Y-110545523D02*
X100594342Y-110545523D01*
X100594342Y-110545523D02*
X100689580Y-110497904D01*
X100689580Y-110497904D02*
X100737200Y-110450285D01*
X100737200Y-110450285D02*
X100784819Y-110355047D01*
X100784819Y-110355047D02*
X100784819Y-110069333D01*
X100784819Y-110069333D02*
X100737200Y-109974095D01*
X100737200Y-109974095D02*
X100689580Y-109926476D01*
X100118152Y-111402666D02*
X100784819Y-111402666D01*
X99737200Y-111164571D02*
X100451485Y-110926476D01*
X100451485Y-110926476D02*
X100451485Y-111545523D01*
X106941857Y-100976580D02*
X106989476Y-101024200D01*
X106989476Y-101024200D02*
X107132333Y-101071819D01*
X107132333Y-101071819D02*
X107227571Y-101071819D01*
X107227571Y-101071819D02*
X107370428Y-101024200D01*
X107370428Y-101024200D02*
X107465666Y-100928961D01*
X107465666Y-100928961D02*
X107513285Y-100833723D01*
X107513285Y-100833723D02*
X107560904Y-100643247D01*
X107560904Y-100643247D02*
X107560904Y-100500390D01*
X107560904Y-100500390D02*
X107513285Y-100309914D01*
X107513285Y-100309914D02*
X107465666Y-100214676D01*
X107465666Y-100214676D02*
X107370428Y-100119438D01*
X107370428Y-100119438D02*
X107227571Y-100071819D01*
X107227571Y-100071819D02*
X107132333Y-100071819D01*
X107132333Y-100071819D02*
X106989476Y-100119438D01*
X106989476Y-100119438D02*
X106941857Y-100167057D01*
X106560904Y-100167057D02*
X106513285Y-100119438D01*
X106513285Y-100119438D02*
X106418047Y-100071819D01*
X106418047Y-100071819D02*
X106179952Y-100071819D01*
X106179952Y-100071819D02*
X106084714Y-100119438D01*
X106084714Y-100119438D02*
X106037095Y-100167057D01*
X106037095Y-100167057D02*
X105989476Y-100262295D01*
X105989476Y-100262295D02*
X105989476Y-100357533D01*
X105989476Y-100357533D02*
X106037095Y-100500390D01*
X106037095Y-100500390D02*
X106608523Y-101071819D01*
X106608523Y-101071819D02*
X105989476Y-101071819D01*
X105084714Y-100071819D02*
X105560904Y-100071819D01*
X105560904Y-100071819D02*
X105608523Y-100548009D01*
X105608523Y-100548009D02*
X105560904Y-100500390D01*
X105560904Y-100500390D02*
X105465666Y-100452771D01*
X105465666Y-100452771D02*
X105227571Y-100452771D01*
X105227571Y-100452771D02*
X105132333Y-100500390D01*
X105132333Y-100500390D02*
X105084714Y-100548009D01*
X105084714Y-100548009D02*
X105037095Y-100643247D01*
X105037095Y-100643247D02*
X105037095Y-100881342D01*
X105037095Y-100881342D02*
X105084714Y-100976580D01*
X105084714Y-100976580D02*
X105132333Y-101024200D01*
X105132333Y-101024200D02*
X105227571Y-101071819D01*
X105227571Y-101071819D02*
X105465666Y-101071819D01*
X105465666Y-101071819D02*
X105560904Y-101024200D01*
X105560904Y-101024200D02*
X105608523Y-100976580D01*
X91640819Y-90289142D02*
X91164628Y-89955809D01*
X91640819Y-89717714D02*
X90640819Y-89717714D01*
X90640819Y-89717714D02*
X90640819Y-90098666D01*
X90640819Y-90098666D02*
X90688438Y-90193904D01*
X90688438Y-90193904D02*
X90736057Y-90241523D01*
X90736057Y-90241523D02*
X90831295Y-90289142D01*
X90831295Y-90289142D02*
X90974152Y-90289142D01*
X90974152Y-90289142D02*
X91069390Y-90241523D01*
X91069390Y-90241523D02*
X91117009Y-90193904D01*
X91117009Y-90193904D02*
X91164628Y-90098666D01*
X91164628Y-90098666D02*
X91164628Y-89717714D01*
X90736057Y-90670095D02*
X90688438Y-90717714D01*
X90688438Y-90717714D02*
X90640819Y-90812952D01*
X90640819Y-90812952D02*
X90640819Y-91051047D01*
X90640819Y-91051047D02*
X90688438Y-91146285D01*
X90688438Y-91146285D02*
X90736057Y-91193904D01*
X90736057Y-91193904D02*
X90831295Y-91241523D01*
X90831295Y-91241523D02*
X90926533Y-91241523D01*
X90926533Y-91241523D02*
X91069390Y-91193904D01*
X91069390Y-91193904D02*
X91640819Y-90622476D01*
X91640819Y-90622476D02*
X91640819Y-91241523D01*
X90640819Y-91574857D02*
X90640819Y-92193904D01*
X90640819Y-92193904D02*
X91021771Y-91860571D01*
X91021771Y-91860571D02*
X91021771Y-92003428D01*
X91021771Y-92003428D02*
X91069390Y-92098666D01*
X91069390Y-92098666D02*
X91117009Y-92146285D01*
X91117009Y-92146285D02*
X91212247Y-92193904D01*
X91212247Y-92193904D02*
X91450342Y-92193904D01*
X91450342Y-92193904D02*
X91545580Y-92146285D01*
X91545580Y-92146285D02*
X91593200Y-92098666D01*
X91593200Y-92098666D02*
X91640819Y-92003428D01*
X91640819Y-92003428D02*
X91640819Y-91717714D01*
X91640819Y-91717714D02*
X91593200Y-91622476D01*
X91593200Y-91622476D02*
X91545580Y-91574857D01*
X100013419Y-83007295D02*
X100822942Y-83007295D01*
X100822942Y-83007295D02*
X100918180Y-83054914D01*
X100918180Y-83054914D02*
X100965800Y-83102533D01*
X100965800Y-83102533D02*
X101013419Y-83197771D01*
X101013419Y-83197771D02*
X101013419Y-83388247D01*
X101013419Y-83388247D02*
X100965800Y-83483485D01*
X100965800Y-83483485D02*
X100918180Y-83531104D01*
X100918180Y-83531104D02*
X100822942Y-83578723D01*
X100822942Y-83578723D02*
X100013419Y-83578723D01*
X100013419Y-83959676D02*
X100013419Y-84626342D01*
X100013419Y-84626342D02*
X101013419Y-84197771D01*
X76527819Y-91686142D02*
X76051628Y-91352809D01*
X76527819Y-91114714D02*
X75527819Y-91114714D01*
X75527819Y-91114714D02*
X75527819Y-91495666D01*
X75527819Y-91495666D02*
X75575438Y-91590904D01*
X75575438Y-91590904D02*
X75623057Y-91638523D01*
X75623057Y-91638523D02*
X75718295Y-91686142D01*
X75718295Y-91686142D02*
X75861152Y-91686142D01*
X75861152Y-91686142D02*
X75956390Y-91638523D01*
X75956390Y-91638523D02*
X76004009Y-91590904D01*
X76004009Y-91590904D02*
X76051628Y-91495666D01*
X76051628Y-91495666D02*
X76051628Y-91114714D01*
X75623057Y-92067095D02*
X75575438Y-92114714D01*
X75575438Y-92114714D02*
X75527819Y-92209952D01*
X75527819Y-92209952D02*
X75527819Y-92448047D01*
X75527819Y-92448047D02*
X75575438Y-92543285D01*
X75575438Y-92543285D02*
X75623057Y-92590904D01*
X75623057Y-92590904D02*
X75718295Y-92638523D01*
X75718295Y-92638523D02*
X75813533Y-92638523D01*
X75813533Y-92638523D02*
X75956390Y-92590904D01*
X75956390Y-92590904D02*
X76527819Y-92019476D01*
X76527819Y-92019476D02*
X76527819Y-92638523D01*
X76527819Y-93590904D02*
X76527819Y-93019476D01*
X76527819Y-93305190D02*
X75527819Y-93305190D01*
X75527819Y-93305190D02*
X75670676Y-93209952D01*
X75670676Y-93209952D02*
X75765914Y-93114714D01*
X75765914Y-93114714D02*
X75813533Y-93019476D01*
X62589580Y-92956142D02*
X62637200Y-92908523D01*
X62637200Y-92908523D02*
X62684819Y-92765666D01*
X62684819Y-92765666D02*
X62684819Y-92670428D01*
X62684819Y-92670428D02*
X62637200Y-92527571D01*
X62637200Y-92527571D02*
X62541961Y-92432333D01*
X62541961Y-92432333D02*
X62446723Y-92384714D01*
X62446723Y-92384714D02*
X62256247Y-92337095D01*
X62256247Y-92337095D02*
X62113390Y-92337095D01*
X62113390Y-92337095D02*
X61922914Y-92384714D01*
X61922914Y-92384714D02*
X61827676Y-92432333D01*
X61827676Y-92432333D02*
X61732438Y-92527571D01*
X61732438Y-92527571D02*
X61684819Y-92670428D01*
X61684819Y-92670428D02*
X61684819Y-92765666D01*
X61684819Y-92765666D02*
X61732438Y-92908523D01*
X61732438Y-92908523D02*
X61780057Y-92956142D01*
X62684819Y-93908523D02*
X62684819Y-93337095D01*
X62684819Y-93622809D02*
X61684819Y-93622809D01*
X61684819Y-93622809D02*
X61827676Y-93527571D01*
X61827676Y-93527571D02*
X61922914Y-93432333D01*
X61922914Y-93432333D02*
X61970533Y-93337095D01*
X62684819Y-94384714D02*
X62684819Y-94575190D01*
X62684819Y-94575190D02*
X62637200Y-94670428D01*
X62637200Y-94670428D02*
X62589580Y-94718047D01*
X62589580Y-94718047D02*
X62446723Y-94813285D01*
X62446723Y-94813285D02*
X62256247Y-94860904D01*
X62256247Y-94860904D02*
X61875295Y-94860904D01*
X61875295Y-94860904D02*
X61780057Y-94813285D01*
X61780057Y-94813285D02*
X61732438Y-94765666D01*
X61732438Y-94765666D02*
X61684819Y-94670428D01*
X61684819Y-94670428D02*
X61684819Y-94479952D01*
X61684819Y-94479952D02*
X61732438Y-94384714D01*
X61732438Y-94384714D02*
X61780057Y-94337095D01*
X61780057Y-94337095D02*
X61875295Y-94289476D01*
X61875295Y-94289476D02*
X62113390Y-94289476D01*
X62113390Y-94289476D02*
X62208628Y-94337095D01*
X62208628Y-94337095D02*
X62256247Y-94384714D01*
X62256247Y-94384714D02*
X62303866Y-94479952D01*
X62303866Y-94479952D02*
X62303866Y-94670428D01*
X62303866Y-94670428D02*
X62256247Y-94765666D01*
X62256247Y-94765666D02*
X62208628Y-94813285D01*
X62208628Y-94813285D02*
X62113390Y-94860904D01*
D11*
%TO.C,U9*%
X68600000Y-99695000D02*
X68600000Y-97745000D01*
X68600000Y-99695000D02*
X68600000Y-101645000D01*
X63480000Y-99695000D02*
X63480000Y-96245000D01*
X63480000Y-99695000D02*
X63480000Y-101645000D01*
%TO.C,C32*%
X108294000Y-105714748D02*
X108294000Y-107137252D01*
X105574000Y-105714748D02*
X105574000Y-107137252D01*
%TO.C,C23*%
X92200000Y-94527580D02*
X92200000Y-94246420D01*
X93220000Y-94527580D02*
X93220000Y-94246420D01*
%TO.C,C38*%
X108217800Y-120370548D02*
X108217800Y-121793052D01*
X105497800Y-120370548D02*
X105497800Y-121793052D01*
%TO.C,D7*%
X116840000Y-98770000D02*
X116190000Y-98770000D01*
X116840000Y-98770000D02*
X117490000Y-98770000D01*
X116840000Y-101890000D02*
X115165000Y-101890000D01*
X116840000Y-101890000D02*
X117490000Y-101890000D01*
%TO.C,C31*%
X92073000Y-100953180D02*
X92073000Y-100672020D01*
X93093000Y-100953180D02*
X93093000Y-100672020D01*
%TO.C,C33*%
X104992000Y-105714748D02*
X104992000Y-107137252D01*
X102272000Y-105714748D02*
X102272000Y-107137252D01*
%TO.C,R18*%
X78881500Y-80407742D02*
X78881500Y-80882258D01*
X77836500Y-80407742D02*
X77836500Y-80882258D01*
%TO.C,R22*%
X93711500Y-94611258D02*
X93711500Y-94136742D01*
X94756500Y-94611258D02*
X94756500Y-94136742D01*
%TO.C,C20*%
X82650000Y-90797748D02*
X82650000Y-91320252D01*
X81180000Y-90797748D02*
X81180000Y-91320252D01*
%TO.C,C17*%
X83822000Y-83044420D02*
X83822000Y-83325580D01*
X82802000Y-83044420D02*
X82802000Y-83325580D01*
%TO.C,C26*%
X88581620Y-98690000D02*
X88862780Y-98690000D01*
X88581620Y-99710000D02*
X88862780Y-99710000D01*
%TO.C,C40*%
X88394000Y-81901420D02*
X88394000Y-82182580D01*
X87374000Y-81901420D02*
X87374000Y-82182580D01*
%TO.C,U8*%
X68600000Y-90805000D02*
X68600000Y-88855000D01*
X68600000Y-90805000D02*
X68600000Y-92755000D01*
X63480000Y-90805000D02*
X63480000Y-87355000D01*
X63480000Y-90805000D02*
X63480000Y-92755000D01*
%TO.C,C39*%
X90172000Y-81901420D02*
X90172000Y-82182580D01*
X89152000Y-81901420D02*
X89152000Y-82182580D01*
%TO.C,C35*%
X82069000Y-107449252D02*
X82069000Y-106926748D01*
X83539000Y-107449252D02*
X83539000Y-106926748D01*
%TO.C,C24*%
X95390580Y-98567000D02*
X95109420Y-98567000D01*
X95390580Y-97547000D02*
X95109420Y-97547000D01*
%TO.C,C22*%
X106158420Y-93470000D02*
X106439580Y-93470000D01*
X106158420Y-94490000D02*
X106439580Y-94490000D01*
%TO.C,R19*%
X119399742Y-80757500D02*
X119874258Y-80757500D01*
X119399742Y-81802500D02*
X119874258Y-81802500D01*
%TO.C,C27*%
X98169000Y-99721580D02*
X98169000Y-99440420D01*
X99189000Y-99721580D02*
X99189000Y-99440420D01*
%TO.C,C29*%
X95390580Y-100916200D02*
X95109420Y-100916200D01*
X95390580Y-99896200D02*
X95109420Y-99896200D01*
%TO.C,R24*%
X89139500Y-94611258D02*
X89139500Y-94136742D01*
X90184500Y-94611258D02*
X90184500Y-94136742D01*
%TO.C,C28*%
X62740000Y-99554420D02*
X62740000Y-99835580D01*
X61720000Y-99554420D02*
X61720000Y-99835580D01*
%TO.C,C16*%
X112016000Y-82028420D02*
X112016000Y-82309580D01*
X110996000Y-82028420D02*
X110996000Y-82309580D01*
%TO.C,C37*%
X62740000Y-108444420D02*
X62740000Y-108725580D01*
X61720000Y-108444420D02*
X61720000Y-108725580D01*
%TO.C,R28*%
X77328500Y-100440258D02*
X77328500Y-99965742D01*
X78373500Y-100440258D02*
X78373500Y-99965742D01*
%TO.C,C21*%
X80139000Y-90918420D02*
X80139000Y-91199580D01*
X79119000Y-90918420D02*
X79119000Y-91199580D01*
%TO.C,C36*%
X80037000Y-107449252D02*
X80037000Y-106926748D01*
X81507000Y-107449252D02*
X81507000Y-106926748D01*
%TO.C,R25*%
X88484942Y-97153500D02*
X88959458Y-97153500D01*
X88484942Y-98198500D02*
X88959458Y-98198500D01*
%TO.C,R26*%
X99680500Y-99818258D02*
X99680500Y-99343742D01*
X100725500Y-99818258D02*
X100725500Y-99343742D01*
%TO.C,R27*%
X79897500Y-99965742D02*
X79897500Y-100440258D01*
X78852500Y-99965742D02*
X78852500Y-100440258D01*
%TO.C,C18*%
X82298000Y-83044420D02*
X82298000Y-83325580D01*
X81278000Y-83044420D02*
X81278000Y-83325580D01*
%TO.C,R30*%
X92091742Y-105535500D02*
X92566258Y-105535500D01*
X92091742Y-106580500D02*
X92566258Y-106580500D01*
%TO.C,R31*%
X66551500Y-114908064D02*
X66551500Y-114453936D01*
X68021500Y-114908064D02*
X68021500Y-114453936D01*
%TO.C,R29*%
X92091742Y-104011500D02*
X92566258Y-104011500D01*
X92091742Y-105056500D02*
X92566258Y-105056500D01*
%TO.C,R20*%
X84215500Y-90882742D02*
X84215500Y-91357258D01*
X83170500Y-90882742D02*
X83170500Y-91357258D01*
%TO.C,U10*%
X68600000Y-108585000D02*
X68600000Y-106635000D01*
X68600000Y-108585000D02*
X68600000Y-110535000D01*
X63480000Y-108585000D02*
X63480000Y-105135000D01*
X63480000Y-108585000D02*
X63480000Y-110535000D01*
%TO.C,C34*%
X101690000Y-105714748D02*
X101690000Y-107137252D01*
X98970000Y-105714748D02*
X98970000Y-107137252D01*
%TO.C,C25*%
X106158420Y-98677000D02*
X106439580Y-98677000D01*
X106158420Y-99697000D02*
X106439580Y-99697000D01*
%TO.C,R23*%
X91708500Y-94149742D02*
X91708500Y-94624258D01*
X90663500Y-94149742D02*
X90663500Y-94624258D01*
%TO.C,U7*%
X101610000Y-83820000D02*
X101610000Y-85770000D01*
X101610000Y-83820000D02*
X101610000Y-81870000D01*
X110480000Y-83820000D02*
X110480000Y-87270000D01*
X110480000Y-83820000D02*
X110480000Y-81870000D01*
%TO.C,R21*%
X75157000Y-92101936D02*
X75157000Y-92556064D01*
X73687000Y-92101936D02*
X73687000Y-92556064D01*
%TO.C,C19*%
X62740000Y-90664420D02*
X62740000Y-90945580D01*
X61720000Y-90664420D02*
X61720000Y-90945580D01*
%TD*%
M02*
