<?xml version="1.0" standalone="no"?>
 <!DOCTYPE svg PUBLIC "-//W3C//DTD SVG 1.1//EN" 
 "http://www.w3.org/Graphics/SVG/1.1/DTD/svg11.dtd"> 
<svg
  xmlns:svg="http://www.w3.org/2000/svg"
  xmlns="http://www.w3.org/2000/svg"
  xmlns:xlink="http://www.w3.org/1999/xlink"
  version="1.1"
  width="297.0022mm" height="210.0072mm" viewBox="0.0000 0.0000 297.0022 210.0072">
<title>SVG Image created as PowerDistribution-drl_map.svg date 2023/11/23 15:16:15 </title>
  <desc>Image generated by PCBNEW </desc>
<g style="fill:#000000; fill-opacity:1.0000;stroke:#000000; stroke-opacity:1.0000;
stroke-linecap:round; stroke-linejoin:round;"
 transform="translate(0 0) scale(1 1)">
</g>
<g style="fill:#000000; fill-opacity:0.0; 
stroke:#000000; stroke-width:0.0000; stroke-opacity:1; 
stroke-linecap:round; stroke-linejoin:round;">
</g>
<g style="fill:#000000; fill-opacity:1.0000; 
stroke:#000000; stroke-width:0.0000; stroke-opacity:1; 
stroke-linecap:round; stroke-linejoin:round;">
<circle cx="186.4427" cy="108.8840" r="0.0785" /> 
<circle cx="186.4427" cy="17.7355" r="0.0785" /> 
</g>
<g style="fill:#000000; fill-opacity:0.0; 
stroke:#000000; stroke-width:0.1570; stroke-opacity:1; 
stroke-linecap:round; stroke-linejoin:round;">
<path d="M102.6285 5.0785 A4.9774 4.9774 0.0 0 0 97.6511 10.0560" />
<path d="M97.6511 115.9484 A4.9774 4.9774 0.0 0 0 102.6285 120.9258" />
<path d="M199.3511 10.0560 A4.9774 4.9774 0.0 0 0 194.3737 5.0785" />
<path d="M199.3511 103.3870
L199.3511 115.9484
" />
<path d="M97.6511 22.6173
L97.6511 10.0560
" />
<path d="M97.6511 103.3870
L97.6511 115.9484
" />
<path d="M199.3511 22.6173
L199.3511 10.0560
" />
<path d="M102.6285 120.9258
L194.3737 120.9258
" />
</g>
<g style="fill:#000000; fill-opacity:1.0000; 
stroke:#000000; stroke-width:0.0000; stroke-opacity:1; 
stroke-linecap:round; stroke-linejoin:round;">
<circle cx="189.5831" cy="20.8759" r="0.0785" /> 
</g>
<g style="fill:#000000; fill-opacity:1.0000; 
stroke:#000000; stroke-width:0.1570; stroke-opacity:1; 
stroke-linecap:round; stroke-linejoin:round;">
</g>
<g style="fill:#000000; fill-opacity:0.0; 
stroke:#000000; stroke-width:0.1570; stroke-opacity:1; 
stroke-linecap:round; stroke-linejoin:round;">
<path d="M199.3511 103.3870
L199.3511 22.6173
" />
<path d="M97.6511 22.6173
L97.6511 103.3870
" />
<path d="M194.3737 5.0785
L102.6285 5.0785
" />
</g>
<g style="fill:#000000; fill-opacity:1.0000; 
stroke:#000000; stroke-width:0.0000; stroke-opacity:1; 
stroke-linecap:round; stroke-linejoin:round;">
<circle cx="189.5831" cy="105.7437" r="0.0785" /> 
</g>
<g style="fill:#000000; fill-opacity:0.0; 
stroke:#000000; stroke-width:0.1570; stroke-opacity:1; 
stroke-linecap:round; stroke-linejoin:round;">
<path d="M194.3737 120.9258 A4.9774 4.9774 0.0 0 0 199.3511 115.9484" />
</g>
<g style="fill:#000000; fill-opacity:0.0; 
stroke:#000000; stroke-width:0.3140; stroke-opacity:1; 
stroke-linecap:round; stroke-linejoin:round;">
</g>
<g style="fill:#000000; fill-opacity:0.0; 
stroke:#000000; stroke-width:0.2194; stroke-opacity:1; 
stroke-linecap:round; stroke-linejoin:round;">
<path d="M159.2183 26.8292
L161.4118 29.0227
" />
<path d="M161.4118 26.8292
L159.2183 29.0227
" />
<path d="M159.2183 34.6800
L161.4118 36.8736
" />
<path d="M161.4118 34.6800
L159.2183 36.8736
" />
<path d="M159.2183 42.5309
L161.4118 44.7244
" />
<path d="M161.4118 42.5309
L159.2183 44.7244
" />
<path d="M159.2183 50.3817
L161.4118 52.5753
" />
<path d="M161.4118 50.3817
L159.2183 52.5753
" />
<path d="M159.2183 58.2326
L161.4118 60.4261
" />
<path d="M161.4118 58.2326
L159.2183 60.4261
" />
<path d="M159.2183 66.0835
L161.4118 68.2770
" />
<path d="M161.4118 66.0835
L159.2183 68.2770
" />
<path d="M159.2183 73.9343
L161.4118 76.1279
" />
<path d="M161.4118 73.9343
L159.2183 76.1279
" />
<path d="M159.2183 81.7852
L161.4118 83.9787
" />
<path d="M161.4118 81.7852
L159.2183 83.9787
" />
<path d="M159.2183 89.6360
L161.4118 91.8296
" />
<path d="M161.4118 89.6360
L159.2183 91.8296
" />
<path d="M159.2183 97.4869
L161.4118 99.6804
" />
<path d="M161.4118 97.4869
L159.2183 99.6804
" />
<path d="M172.0937 26.8292
L174.2873 29.0227
" />
<path d="M174.2873 26.8292
L172.0937 29.0227
" />
<path d="M172.0937 34.6800
L174.2873 36.8736
" />
<path d="M174.2873 34.6800
L172.0937 36.8736
" />
<path d="M172.0937 42.5309
L174.2873 44.7244
" />
<path d="M174.2873 42.5309
L172.0937 44.7244
" />
<path d="M172.0937 50.3817
L174.2873 52.5753
" />
<path d="M174.2873 50.3817
L172.0937 52.5753
" />
<path d="M172.0937 58.2326
L174.2873 60.4261
" />
<path d="M174.2873 58.2326
L172.0937 60.4261
" />
<path d="M172.0937 66.0835
L174.2873 68.2770
" />
<path d="M174.2873 66.0835
L172.0937 68.2770
" />
<path d="M172.0937 73.9343
L174.2873 76.1279
" />
<path d="M174.2873 73.9343
L172.0937 76.1279
" />
<path d="M172.0937 81.7852
L174.2873 83.9787
" />
<path d="M174.2873 81.7852
L172.0937 83.9787
" />
<path d="M172.0937 89.6360
L174.2873 91.8296
" />
<path d="M174.2873 89.6360
L172.0937 91.8296
" />
<path d="M172.0937 97.4869
L174.2873 99.6804
" />
<path d="M174.2873 97.4869
L172.0937 99.6804
" />
</g>
<g style="fill:#000000; fill-opacity:0.0; 
stroke:#000000; stroke-width:0.2826; stroke-opacity:1; 
stroke-linecap:round; stroke-linejoin:round;">
<circle cx="134.0618" cy="64.4795" r="1.4132" /> 
<circle cx="134.0618" cy="69.8181" r="1.4132" /> 
<circle cx="134.1089" cy="33.1389" r="1.4132" /> 
<circle cx="134.1089" cy="38.4775" r="1.4132" /> 
<circle cx="134.1717" cy="48.7935" r="1.4132" /> 
<circle cx="134.1717" cy="54.1321" r="1.4132" /> 
<circle cx="134.1717" cy="80.2755" r="1.4132" /> 
<circle cx="134.1717" cy="85.6141" r="1.4132" /> 
<circle cx="134.1874" cy="95.9144" r="1.4132" /> 
<circle cx="134.1874" cy="101.2530" r="1.4132" /> 
<circle cx="149.6379" cy="64.4795" r="1.4132" /> 
<circle cx="149.6379" cy="69.8181" r="1.4132" /> 
<circle cx="149.6850" cy="33.1389" r="1.4132" /> 
<circle cx="149.6850" cy="38.4775" r="1.4132" /> 
<circle cx="149.7478" cy="48.7935" r="1.4132" /> 
<circle cx="149.7478" cy="54.1321" r="1.4132" /> 
<circle cx="149.7478" cy="80.2755" r="1.4132" /> 
<circle cx="149.7478" cy="85.6141" r="1.4132" /> 
<circle cx="149.7635" cy="95.9144" r="1.4132" /> 
<circle cx="149.7635" cy="101.2530" r="1.4132" /> 
</g>
<g style="fill:#000000; fill-opacity:0.0; 
stroke:#000000; stroke-width:0.3310; stroke-opacity:1; 
stroke-linecap:round; stroke-linejoin:round;">
<path d="M110.5186 48.3978
L110.5186 51.7081
" />
<path d="M108.8635 50.0529
L112.1738 50.0529
" />
<path d="M110.5186 68.0250
L110.5186 71.3352
" />
<path d="M108.8635 69.6801
L112.1738 69.6801
" />
<path d="M122.2949 48.3978
L122.2949 51.7081
" />
<path d="M120.6398 50.0529
L123.9500 50.0529
" />
<path d="M122.2949 68.0250
L122.2949 71.3352
" />
<path d="M120.6398 69.6801
L123.9500 69.6801
" />
</g>
<g style="fill:#000000; fill-opacity:0.0; 
stroke:#000000; stroke-width:0.4985; stroke-opacity:1; 
stroke-linecap:round; stroke-linejoin:round;">
<path style="fill:#000000; fill-opacity:0.0; 
stroke:#000000; stroke-width:0.4985; stroke-opacity:1; 
stroke-linecap:round; stroke-linejoin:round;fill:none"
d="M 108.1124,15.5398
108.1124,12.0147
104.5872,12.0147
104.5872,15.5398
Z" /> 
<path style="fill:#000000; fill-opacity:0.0; 
stroke:#000000; stroke-width:0.4985; stroke-opacity:1; 
stroke-linecap:round; stroke-linejoin:round;fill:none"
d="M 108.1124,113.9896
108.1124,110.4645
104.5872,110.4645
104.5872,113.9896
Z" /> 
<path style="fill:#000000; fill-opacity:0.0; 
stroke:#000000; stroke-width:0.4985; stroke-opacity:1; 
stroke-linecap:round; stroke-linejoin:round;fill:none"
d="M 192.4150,15.5398
192.4150,12.0147
188.8898,12.0147
188.8898,15.5398
Z" /> 
<path style="fill:#000000; fill-opacity:0.0; 
stroke:#000000; stroke-width:0.4985; stroke-opacity:1; 
stroke-linecap:round; stroke-linejoin:round;fill:none"
d="M 192.4150,113.9896
192.4150,110.4645
188.8898,110.4645
188.8898,113.9896
Z" /> 
</g>
<g style="fill:#000000; fill-opacity:0.0; 
stroke:#000000; stroke-width:0.3140; stroke-opacity:1; 
stroke-linecap:round; stroke-linejoin:round;">
</g>
<g style="fill:#000000; fill-opacity:0.0; 
stroke:#000000; stroke-width:0.2000; stroke-opacity:1; 
stroke-linecap:round; stroke-linejoin:round;">
<text x="99.5726" y="124.2043"
textLength="14.8667" font-size="2.6667" lengthAdjust="spacingAndGlyphs"
text-anchor="start" opacity="0">Drill Map:</text>
<g class="stroked-text"><desc>Drill Map:</desc>
<path d="M100.1803 124.1192
L100.1803 122.1192
" />
<path d="M100.1803 122.1192
L100.6565 122.1192
" />
<path d="M100.6565 122.1192
L100.9422 122.2144
" />
<path d="M100.9422 122.2144
L101.1327 122.4049
" />
<path d="M101.1327 122.4049
L101.2280 122.5953
" />
<path d="M101.2280 122.5953
L101.3232 122.9763
" />
<path d="M101.3232 122.9763
L101.3232 123.2620
" />
<path d="M101.3232 123.2620
L101.2280 123.6430
" />
<path d="M101.2280 123.6430
L101.1327 123.8334
" />
<path d="M101.1327 123.8334
L100.9422 124.0239
" />
<path d="M100.9422 124.0239
L100.6565 124.1192
" />
<path d="M100.6565 124.1192
L100.1803 124.1192
" />
<path d="M102.1803 124.1192
L102.1803 122.7858
" />
<path d="M102.1803 123.1668
L102.2756 122.9763
" />
<path d="M102.2756 122.9763
L102.3708 122.8811
" />
<path d="M102.3708 122.8811
L102.5613 122.7858
" />
<path d="M102.5613 122.7858
L102.7518 122.7858
" />
<path d="M103.4184 124.1192
L103.4184 122.7858
" />
<path d="M103.4184 122.1192
L103.3232 122.2144
" />
<path d="M103.3232 122.2144
L103.4184 122.3096
" />
<path d="M103.4184 122.3096
L103.5137 122.2144
" />
<path d="M103.5137 122.2144
L103.4184 122.1192
" />
<path d="M103.4184 122.1192
L103.4184 122.3096
" />
<path d="M104.6565 124.1192
L104.4660 124.0239
" />
<path d="M104.4660 124.0239
L104.3708 123.8334
" />
<path d="M104.3708 123.8334
L104.3708 122.1192
" />
<path d="M105.7041 124.1192
L105.5137 124.0239
" />
<path d="M105.5137 124.0239
L105.4184 123.8334
" />
<path d="M105.4184 123.8334
L105.4184 122.1192
" />
<path d="M107.9899 124.1192
L107.9899 122.1192
" />
<path d="M107.9899 122.1192
L108.6565 123.5477
" />
<path d="M108.6565 123.5477
L109.3232 122.1192
" />
<path d="M109.3232 122.1192
L109.3232 124.1192
" />
<path d="M111.1327 124.1192
L111.1327 123.0715
" />
<path d="M111.1327 123.0715
L111.0375 122.8811
" />
<path d="M111.0375 122.8811
L110.8470 122.7858
" />
<path d="M110.8470 122.7858
L110.4661 122.7858
" />
<path d="M110.4661 122.7858
L110.2756 122.8811
" />
<path d="M111.1327 124.0239
L110.9422 124.1192
" />
<path d="M110.9422 124.1192
L110.4661 124.1192
" />
<path d="M110.4661 124.1192
L110.2756 124.0239
" />
<path d="M110.2756 124.0239
L110.1803 123.8334
" />
<path d="M110.1803 123.8334
L110.1803 123.6430
" />
<path d="M110.1803 123.6430
L110.2756 123.4525
" />
<path d="M110.2756 123.4525
L110.4661 123.3573
" />
<path d="M110.4661 123.3573
L110.9422 123.3573
" />
<path d="M110.9422 123.3573
L111.1327 123.2620
" />
<path d="M112.0851 122.7858
L112.0851 124.7858
" />
<path d="M112.0851 122.8811
L112.2756 122.7858
" />
<path d="M112.2756 122.7858
L112.6565 122.7858
" />
<path d="M112.6565 122.7858
L112.8470 122.8811
" />
<path d="M112.8470 122.8811
L112.9422 122.9763
" />
<path d="M112.9422 122.9763
L113.0375 123.1668
" />
<path d="M113.0375 123.1668
L113.0375 123.7382
" />
<path d="M113.0375 123.7382
L112.9422 123.9287
" />
<path d="M112.9422 123.9287
L112.8470 124.0239
" />
<path d="M112.8470 124.0239
L112.6565 124.1192
" />
<path d="M112.6565 124.1192
L112.2756 124.1192
" />
<path d="M112.2756 124.1192
L112.0851 124.0239
" />
<path d="M113.8946 123.9287
L113.9899 124.0239
" />
<path d="M113.9899 124.0239
L113.8946 124.1192
" />
<path d="M113.8946 124.1192
L113.7994 124.0239
" />
<path d="M113.7994 124.0239
L113.8946 123.9287
" />
<path d="M113.8946 123.9287
L113.8946 124.1192
" />
<path d="M113.8946 122.8811
L113.9899 122.9763
" />
<path d="M113.9899 122.9763
L113.8946 123.0715
" />
<path d="M113.8946 123.0715
L113.7994 122.9763
" />
<path d="M113.7994 122.9763
L113.8946 122.8811
" />
<path d="M113.8946 122.8811
L113.8946 123.0715
" />
</g></g>
<g style="fill:#000000; fill-opacity:0.0; 
stroke:#000000; stroke-width:0.2000; stroke-opacity:1; 
stroke-linecap:round; stroke-linejoin:round;">
<path d="M95.5726 126.4043
L97.5726 128.4043
" />
<path d="M97.5726 126.4043
L95.5726 128.4043
" />
</g>
<g style="fill:#000000; fill-opacity:0.0; 
stroke:#000000; stroke-width:0.3140; stroke-opacity:1; 
stroke-linecap:round; stroke-linejoin:round;">
</g>
<g style="fill:#000000; fill-opacity:0.0; 
stroke:#000000; stroke-width:0.2000; stroke-opacity:1; 
stroke-linecap:round; stroke-linejoin:round;">
<text x="99.5726" y="128.4043"
textLength="48.7714" font-size="2.6667" lengthAdjust="spacingAndGlyphs"
text-anchor="start" opacity="0">1.397mm / 0.0550" (20 holes)</text>
<g class="stroked-text"><desc>1.397mm / 0.0550" (20 holes)</desc>
<path d="M101.2280 128.3192
L100.0851 128.3192
" />
<path d="M100.6565 128.3192
L100.6565 126.3192
" />
<path d="M100.6565 126.3192
L100.4660 126.6049
" />
<path d="M100.4660 126.6049
L100.2756 126.7954
" />
<path d="M100.2756 126.7954
L100.0851 126.8906
" />
<path d="M102.0851 128.1287
L102.1803 128.2239
" />
<path d="M102.1803 128.2239
L102.0851 128.3192
" />
<path d="M102.0851 128.3192
L101.9899 128.2239
" />
<path d="M101.9899 128.2239
L102.0851 128.1287
" />
<path d="M102.0851 128.1287
L102.0851 128.3192
" />
<path d="M102.8470 126.3192
L104.0851 126.3192
" />
<path d="M104.0851 126.3192
L103.4184 127.0811
" />
<path d="M103.4184 127.0811
L103.7041 127.0811
" />
<path d="M103.7041 127.0811
L103.8946 127.1763
" />
<path d="M103.8946 127.1763
L103.9899 127.2715
" />
<path d="M103.9899 127.2715
L104.0851 127.4620
" />
<path d="M104.0851 127.4620
L104.0851 127.9382
" />
<path d="M104.0851 127.9382
L103.9899 128.1287
" />
<path d="M103.9899 128.1287
L103.8946 128.2239
" />
<path d="M103.8946 128.2239
L103.7041 128.3192
" />
<path d="M103.7041 128.3192
L103.1327 128.3192
" />
<path d="M103.1327 128.3192
L102.9422 128.2239
" />
<path d="M102.9422 128.2239
L102.8470 128.1287
" />
<path d="M105.0375 128.3192
L105.4184 128.3192
" />
<path d="M105.4184 128.3192
L105.6089 128.2239
" />
<path d="M105.6089 128.2239
L105.7041 128.1287
" />
<path d="M105.7041 128.1287
L105.8946 127.8430
" />
<path d="M105.8946 127.8430
L105.9899 127.4620
" />
<path d="M105.9899 127.4620
L105.9899 126.7001
" />
<path d="M105.9899 126.7001
L105.8946 126.5096
" />
<path d="M105.8946 126.5096
L105.7994 126.4144
" />
<path d="M105.7994 126.4144
L105.6089 126.3192
" />
<path d="M105.6089 126.3192
L105.2280 126.3192
" />
<path d="M105.2280 126.3192
L105.0375 126.4144
" />
<path d="M105.0375 126.4144
L104.9422 126.5096
" />
<path d="M104.9422 126.5096
L104.8470 126.7001
" />
<path d="M104.8470 126.7001
L104.8470 127.1763
" />
<path d="M104.8470 127.1763
L104.9422 127.3668
" />
<path d="M104.9422 127.3668
L105.0375 127.4620
" />
<path d="M105.0375 127.4620
L105.2280 127.5573
" />
<path d="M105.2280 127.5573
L105.6089 127.5573
" />
<path d="M105.6089 127.5573
L105.7994 127.4620
" />
<path d="M105.7994 127.4620
L105.8946 127.3668
" />
<path d="M105.8946 127.3668
L105.9899 127.1763
" />
<path d="M106.6565 126.3192
L107.9899 126.3192
" />
<path d="M107.9899 126.3192
L107.1327 128.3192
" />
<path d="M108.7518 128.3192
L108.7518 126.9858
" />
<path d="M108.7518 127.1763
L108.8470 127.0811
" />
<path d="M108.8470 127.0811
L109.0375 126.9858
" />
<path d="M109.0375 126.9858
L109.3232 126.9858
" />
<path d="M109.3232 126.9858
L109.5137 127.0811
" />
<path d="M109.5137 127.0811
L109.6089 127.2715
" />
<path d="M109.6089 127.2715
L109.6089 128.3192
" />
<path d="M109.6089 127.2715
L109.7041 127.0811
" />
<path d="M109.7041 127.0811
L109.8946 126.9858
" />
<path d="M109.8946 126.9858
L110.1803 126.9858
" />
<path d="M110.1803 126.9858
L110.3708 127.0811
" />
<path d="M110.3708 127.0811
L110.4660 127.2715
" />
<path d="M110.4660 127.2715
L110.4660 128.3192
" />
<path d="M111.4184 128.3192
L111.4184 126.9858
" />
<path d="M111.4184 127.1763
L111.5137 127.0811
" />
<path d="M111.5137 127.0811
L111.7041 126.9858
" />
<path d="M111.7041 126.9858
L111.9899 126.9858
" />
<path d="M111.9899 126.9858
L112.1803 127.0811
" />
<path d="M112.1803 127.0811
L112.2756 127.2715
" />
<path d="M112.2756 127.2715
L112.2756 128.3192
" />
<path d="M112.2756 127.2715
L112.3708 127.0811
" />
<path d="M112.3708 127.0811
L112.5613 126.9858
" />
<path d="M112.5613 126.9858
L112.8470 126.9858
" />
<path d="M112.8470 126.9858
L113.0375 127.0811
" />
<path d="M113.0375 127.0811
L113.1327 127.2715
" />
<path d="M113.1327 127.2715
L113.1327 128.3192
" />
<path d="M117.0375 126.2239
L115.3232 128.7954
" />
<path d="M119.6089 126.3192
L119.7994 126.3192
" />
<path d="M119.7994 126.3192
L119.9899 126.4144
" />
<path d="M119.9899 126.4144
L120.0851 126.5096
" />
<path d="M120.0851 126.5096
L120.1803 126.7001
" />
<path d="M120.1803 126.7001
L120.2756 127.0811
" />
<path d="M120.2756 127.0811
L120.2756 127.5573
" />
<path d="M120.2756 127.5573
L120.1803 127.9382
" />
<path d="M120.1803 127.9382
L120.0851 128.1287
" />
<path d="M120.0851 128.1287
L119.9899 128.2239
" />
<path d="M119.9899 128.2239
L119.7994 128.3192
" />
<path d="M119.7994 128.3192
L119.6089 128.3192
" />
<path d="M119.6089 128.3192
L119.4184 128.2239
" />
<path d="M119.4184 128.2239
L119.3232 128.1287
" />
<path d="M119.3232 128.1287
L119.2280 127.9382
" />
<path d="M119.2280 127.9382
L119.1327 127.5573
" />
<path d="M119.1327 127.5573
L119.1327 127.0811
" />
<path d="M119.1327 127.0811
L119.2280 126.7001
" />
<path d="M119.2280 126.7001
L119.3232 126.5096
" />
<path d="M119.3232 126.5096
L119.4184 126.4144
" />
<path d="M119.4184 126.4144
L119.6089 126.3192
" />
<path d="M121.1327 128.1287
L121.2280 128.2239
" />
<path d="M121.2280 128.2239
L121.1327 128.3192
" />
<path d="M121.1327 128.3192
L121.0375 128.2239
" />
<path d="M121.0375 128.2239
L121.1327 128.1287
" />
<path d="M121.1327 128.1287
L121.1327 128.3192
" />
<path d="M122.4661 126.3192
L122.6565 126.3192
" />
<path d="M122.6565 126.3192
L122.8470 126.4144
" />
<path d="M122.8470 126.4144
L122.9422 126.5096
" />
<path d="M122.9422 126.5096
L123.0375 126.7001
" />
<path d="M123.0375 126.7001
L123.1327 127.0811
" />
<path d="M123.1327 127.0811
L123.1327 127.5573
" />
<path d="M123.1327 127.5573
L123.0375 127.9382
" />
<path d="M123.0375 127.9382
L122.9422 128.1287
" />
<path d="M122.9422 128.1287
L122.8470 128.2239
" />
<path d="M122.8470 128.2239
L122.6565 128.3192
" />
<path d="M122.6565 128.3192
L122.4661 128.3192
" />
<path d="M122.4661 128.3192
L122.2756 128.2239
" />
<path d="M122.2756 128.2239
L122.1803 128.1287
" />
<path d="M122.1803 128.1287
L122.0851 127.9382
" />
<path d="M122.0851 127.9382
L121.9899 127.5573
" />
<path d="M121.9899 127.5573
L121.9899 127.0811
" />
<path d="M121.9899 127.0811
L122.0851 126.7001
" />
<path d="M122.0851 126.7001
L122.1803 126.5096
" />
<path d="M122.1803 126.5096
L122.2756 126.4144
" />
<path d="M122.2756 126.4144
L122.4661 126.3192
" />
<path d="M124.9422 126.3192
L123.9899 126.3192
" />
<path d="M123.9899 126.3192
L123.8946 127.2715
" />
<path d="M123.8946 127.2715
L123.9899 127.1763
" />
<path d="M123.9899 127.1763
L124.1803 127.0811
" />
<path d="M124.1803 127.0811
L124.6565 127.0811
" />
<path d="M124.6565 127.0811
L124.8470 127.1763
" />
<path d="M124.8470 127.1763
L124.9422 127.2715
" />
<path d="M124.9422 127.2715
L125.0375 127.4620
" />
<path d="M125.0375 127.4620
L125.0375 127.9382
" />
<path d="M125.0375 127.9382
L124.9422 128.1287
" />
<path d="M124.9422 128.1287
L124.8470 128.2239
" />
<path d="M124.8470 128.2239
L124.6565 128.3192
" />
<path d="M124.6565 128.3192
L124.1803 128.3192
" />
<path d="M124.1803 128.3192
L123.9899 128.2239
" />
<path d="M123.9899 128.2239
L123.8946 128.1287
" />
<path d="M126.8470 126.3192
L125.8946 126.3192
" />
<path d="M125.8946 126.3192
L125.7994 127.2715
" />
<path d="M125.7994 127.2715
L125.8946 127.1763
" />
<path d="M125.8946 127.1763
L126.0851 127.0811
" />
<path d="M126.0851 127.0811
L126.5613 127.0811
" />
<path d="M126.5613 127.0811
L126.7518 127.1763
" />
<path d="M126.7518 127.1763
L126.8470 127.2715
" />
<path d="M126.8470 127.2715
L126.9422 127.4620
" />
<path d="M126.9422 127.4620
L126.9422 127.9382
" />
<path d="M126.9422 127.9382
L126.8470 128.1287
" />
<path d="M126.8470 128.1287
L126.7518 128.2239
" />
<path d="M126.7518 128.2239
L126.5613 128.3192
" />
<path d="M126.5613 128.3192
L126.0851 128.3192
" />
<path d="M126.0851 128.3192
L125.8946 128.2239
" />
<path d="M125.8946 128.2239
L125.7994 128.1287
" />
<path d="M128.1803 126.3192
L128.3708 126.3192
" />
<path d="M128.3708 126.3192
L128.5613 126.4144
" />
<path d="M128.5613 126.4144
L128.6565 126.5096
" />
<path d="M128.6565 126.5096
L128.7518 126.7001
" />
<path d="M128.7518 126.7001
L128.8470 127.0811
" />
<path d="M128.8470 127.0811
L128.8470 127.5573
" />
<path d="M128.8470 127.5573
L128.7518 127.9382
" />
<path d="M128.7518 127.9382
L128.6565 128.1287
" />
<path d="M128.6565 128.1287
L128.5613 128.2239
" />
<path d="M128.5613 128.2239
L128.3708 128.3192
" />
<path d="M128.3708 128.3192
L128.1803 128.3192
" />
<path d="M128.1803 128.3192
L127.9899 128.2239
" />
<path d="M127.9899 128.2239
L127.8946 128.1287
" />
<path d="M127.8946 128.1287
L127.7994 127.9382
" />
<path d="M127.7994 127.9382
L127.7041 127.5573
" />
<path d="M127.7041 127.5573
L127.7041 127.0811
" />
<path d="M127.7041 127.0811
L127.7994 126.7001
" />
<path d="M127.7994 126.7001
L127.8946 126.5096
" />
<path d="M127.8946 126.5096
L127.9899 126.4144
" />
<path d="M127.9899 126.4144
L128.1803 126.3192
" />
<path d="M129.6089 126.3192
L129.6089 126.7001
" />
<path d="M130.3708 126.3192
L130.3708 126.7001
" />
<path d="M133.3232 129.0811
L133.2280 128.9858
" />
<path d="M133.2280 128.9858
L133.0375 128.7001
" />
<path d="M133.0375 128.7001
L132.9422 128.5096
" />
<path d="M132.9422 128.5096
L132.8470 128.2239
" />
<path d="M132.8470 128.2239
L132.7518 127.7477
" />
<path d="M132.7518 127.7477
L132.7518 127.3668
" />
<path d="M132.7518 127.3668
L132.8470 126.8906
" />
<path d="M132.8470 126.8906
L132.9422 126.6049
" />
<path d="M132.9422 126.6049
L133.0375 126.4144
" />
<path d="M133.0375 126.4144
L133.2280 126.1287
" />
<path d="M133.2280 126.1287
L133.3232 126.0334
" />
<path d="M133.9899 126.5096
L134.0851 126.4144
" />
<path d="M134.0851 126.4144
L134.2756 126.3192
" />
<path d="M134.2756 126.3192
L134.7518 126.3192
" />
<path d="M134.7518 126.3192
L134.9422 126.4144
" />
<path d="M134.9422 126.4144
L135.0375 126.5096
" />
<path d="M135.0375 126.5096
L135.1327 126.7001
" />
<path d="M135.1327 126.7001
L135.1327 126.8906
" />
<path d="M135.1327 126.8906
L135.0375 127.1763
" />
<path d="M135.0375 127.1763
L133.8946 128.3192
" />
<path d="M133.8946 128.3192
L135.1327 128.3192
" />
<path d="M136.3708 126.3192
L136.5613 126.3192
" />
<path d="M136.5613 126.3192
L136.7518 126.4144
" />
<path d="M136.7518 126.4144
L136.8470 126.5096
" />
<path d="M136.8470 126.5096
L136.9422 126.7001
" />
<path d="M136.9422 126.7001
L137.0375 127.0811
" />
<path d="M137.0375 127.0811
L137.0375 127.5573
" />
<path d="M137.0375 127.5573
L136.9422 127.9382
" />
<path d="M136.9422 127.9382
L136.8470 128.1287
" />
<path d="M136.8470 128.1287
L136.7518 128.2239
" />
<path d="M136.7518 128.2239
L136.5613 128.3192
" />
<path d="M136.5613 128.3192
L136.3708 128.3192
" />
<path d="M136.3708 128.3192
L136.1803 128.2239
" />
<path d="M136.1803 128.2239
L136.0851 128.1287
" />
<path d="M136.0851 128.1287
L135.9899 127.9382
" />
<path d="M135.9899 127.9382
L135.8946 127.5573
" />
<path d="M135.8946 127.5573
L135.8946 127.0811
" />
<path d="M135.8946 127.0811
L135.9899 126.7001
" />
<path d="M135.9899 126.7001
L136.0851 126.5096
" />
<path d="M136.0851 126.5096
L136.1803 126.4144
" />
<path d="M136.1803 126.4144
L136.3708 126.3192
" />
<path d="M139.4184 128.3192
L139.4184 126.3192
" />
<path d="M140.2756 128.3192
L140.2756 127.2715
" />
<path d="M140.2756 127.2715
L140.1803 127.0811
" />
<path d="M140.1803 127.0811
L139.9899 126.9858
" />
<path d="M139.9899 126.9858
L139.7041 126.9858
" />
<path d="M139.7041 126.9858
L139.5137 127.0811
" />
<path d="M139.5137 127.0811
L139.4184 127.1763
" />
<path d="M141.5137 128.3192
L141.3232 128.2239
" />
<path d="M141.3232 128.2239
L141.2280 128.1287
" />
<path d="M141.2280 128.1287
L141.1327 127.9382
" />
<path d="M141.1327 127.9382
L141.1327 127.3668
" />
<path d="M141.1327 127.3668
L141.2280 127.1763
" />
<path d="M141.2280 127.1763
L141.3232 127.0811
" />
<path d="M141.3232 127.0811
L141.5137 126.9858
" />
<path d="M141.5137 126.9858
L141.7994 126.9858
" />
<path d="M141.7994 126.9858
L141.9899 127.0811
" />
<path d="M141.9899 127.0811
L142.0851 127.1763
" />
<path d="M142.0851 127.1763
L142.1803 127.3668
" />
<path d="M142.1803 127.3668
L142.1803 127.9382
" />
<path d="M142.1803 127.9382
L142.0851 128.1287
" />
<path d="M142.0851 128.1287
L141.9899 128.2239
" />
<path d="M141.9899 128.2239
L141.7994 128.3192
" />
<path d="M141.7994 128.3192
L141.5137 128.3192
" />
<path d="M143.3232 128.3192
L143.1327 128.2239
" />
<path d="M143.1327 128.2239
L143.0375 128.0334
" />
<path d="M143.0375 128.0334
L143.0375 126.3192
" />
<path d="M144.8470 128.2239
L144.6565 128.3192
" />
<path d="M144.6565 128.3192
L144.2756 128.3192
" />
<path d="M144.2756 128.3192
L144.0851 128.2239
" />
<path d="M144.0851 128.2239
L143.9899 128.0334
" />
<path d="M143.9899 128.0334
L143.9899 127.2715
" />
<path d="M143.9899 127.2715
L144.0851 127.0811
" />
<path d="M144.0851 127.0811
L144.2756 126.9858
" />
<path d="M144.2756 126.9858
L144.6565 126.9858
" />
<path d="M144.6565 126.9858
L144.8470 127.0811
" />
<path d="M144.8470 127.0811
L144.9422 127.2715
" />
<path d="M144.9422 127.2715
L144.9422 127.4620
" />
<path d="M144.9422 127.4620
L143.9899 127.6525
" />
<path d="M145.7041 128.2239
L145.8946 128.3192
" />
<path d="M145.8946 128.3192
L146.2756 128.3192
" />
<path d="M146.2756 128.3192
L146.4661 128.2239
" />
<path d="M146.4661 128.2239
L146.5613 128.0334
" />
<path d="M146.5613 128.0334
L146.5613 127.9382
" />
<path d="M146.5613 127.9382
L146.4661 127.7477
" />
<path d="M146.4661 127.7477
L146.2756 127.6525
" />
<path d="M146.2756 127.6525
L145.9899 127.6525
" />
<path d="M145.9899 127.6525
L145.7994 127.5573
" />
<path d="M145.7994 127.5573
L145.7041 127.3668
" />
<path d="M145.7041 127.3668
L145.7041 127.2715
" />
<path d="M145.7041 127.2715
L145.7994 127.0811
" />
<path d="M145.7994 127.0811
L145.9899 126.9858
" />
<path d="M145.9899 126.9858
L146.2756 126.9858
" />
<path d="M146.2756 126.9858
L146.4661 127.0811
" />
<path d="M147.2280 129.0811
L147.3232 128.9858
" />
<path d="M147.3232 128.9858
L147.5137 128.7001
" />
<path d="M147.5137 128.7001
L147.6089 128.5096
" />
<path d="M147.6089 128.5096
L147.7041 128.2239
" />
<path d="M147.7041 128.2239
L147.7994 127.7477
" />
<path d="M147.7994 127.7477
L147.7994 127.3668
" />
<path d="M147.7994 127.3668
L147.7041 126.8906
" />
<path d="M147.7041 126.8906
L147.6089 126.6049
" />
<path d="M147.6089 126.6049
L147.5137 126.4144
" />
<path d="M147.5137 126.4144
L147.3232 126.1287
" />
<path d="M147.3232 126.1287
L147.2280 126.0334
" />
</g></g>
<g style="fill:#000000; fill-opacity:0.0; 
stroke:#000000; stroke-width:0.2000; stroke-opacity:1; 
stroke-linecap:round; stroke-linejoin:round;">
<circle cx="96.5726" cy="130.6043" r="1.0000" /> 
</g>
<g style="fill:#000000; fill-opacity:0.0; 
stroke:#000000; stroke-width:0.3140; stroke-opacity:1; 
stroke-linecap:round; stroke-linejoin:round;">
</g>
<g style="fill:#000000; fill-opacity:0.0; 
stroke:#000000; stroke-width:0.2000; stroke-opacity:1; 
stroke-linecap:round; stroke-linejoin:round;">
<text x="99.5726" y="131.6043"
textLength="48.7714" font-size="2.6667" lengthAdjust="spacingAndGlyphs"
text-anchor="start" opacity="0">1.800mm / 0.0709" (20 holes)</text>
<g class="stroked-text"><desc>1.800mm / 0.0709" (20 holes)</desc>
<path d="M101.2280 131.5192
L100.0851 131.5192
" />
<path d="M100.6565 131.5192
L100.6565 129.5192
" />
<path d="M100.6565 129.5192
L100.4660 129.8049
" />
<path d="M100.4660 129.8049
L100.2756 129.9954
" />
<path d="M100.2756 129.9954
L100.0851 130.0906
" />
<path d="M102.0851 131.3287
L102.1803 131.4239
" />
<path d="M102.1803 131.4239
L102.0851 131.5192
" />
<path d="M102.0851 131.5192
L101.9899 131.4239
" />
<path d="M101.9899 131.4239
L102.0851 131.3287
" />
<path d="M102.0851 131.3287
L102.0851 131.5192
" />
<path d="M103.3232 130.3763
L103.1327 130.2811
" />
<path d="M103.1327 130.2811
L103.0375 130.1858
" />
<path d="M103.0375 130.1858
L102.9422 129.9954
" />
<path d="M102.9422 129.9954
L102.9422 129.9001
" />
<path d="M102.9422 129.9001
L103.0375 129.7096
" />
<path d="M103.0375 129.7096
L103.1327 129.6144
" />
<path d="M103.1327 129.6144
L103.3232 129.5192
" />
<path d="M103.3232 129.5192
L103.7041 129.5192
" />
<path d="M103.7041 129.5192
L103.8946 129.6144
" />
<path d="M103.8946 129.6144
L103.9899 129.7096
" />
<path d="M103.9899 129.7096
L104.0851 129.9001
" />
<path d="M104.0851 129.9001
L104.0851 129.9954
" />
<path d="M104.0851 129.9954
L103.9899 130.1858
" />
<path d="M103.9899 130.1858
L103.8946 130.2811
" />
<path d="M103.8946 130.2811
L103.7041 130.3763
" />
<path d="M103.7041 130.3763
L103.3232 130.3763
" />
<path d="M103.3232 130.3763
L103.1327 130.4715
" />
<path d="M103.1327 130.4715
L103.0375 130.5668
" />
<path d="M103.0375 130.5668
L102.9422 130.7573
" />
<path d="M102.9422 130.7573
L102.9422 131.1382
" />
<path d="M102.9422 131.1382
L103.0375 131.3287
" />
<path d="M103.0375 131.3287
L103.1327 131.4239
" />
<path d="M103.1327 131.4239
L103.3232 131.5192
" />
<path d="M103.3232 131.5192
L103.7041 131.5192
" />
<path d="M103.7041 131.5192
L103.8946 131.4239
" />
<path d="M103.8946 131.4239
L103.9899 131.3287
" />
<path d="M103.9899 131.3287
L104.0851 131.1382
" />
<path d="M104.0851 131.1382
L104.0851 130.7573
" />
<path d="M104.0851 130.7573
L103.9899 130.5668
" />
<path d="M103.9899 130.5668
L103.8946 130.4715
" />
<path d="M103.8946 130.4715
L103.7041 130.3763
" />
<path d="M105.3232 129.5192
L105.5137 129.5192
" />
<path d="M105.5137 129.5192
L105.7041 129.6144
" />
<path d="M105.7041 129.6144
L105.7994 129.7096
" />
<path d="M105.7994 129.7096
L105.8946 129.9001
" />
<path d="M105.8946 129.9001
L105.9899 130.2811
" />
<path d="M105.9899 130.2811
L105.9899 130.7573
" />
<path d="M105.9899 130.7573
L105.8946 131.1382
" />
<path d="M105.8946 131.1382
L105.7994 131.3287
" />
<path d="M105.7994 131.3287
L105.7041 131.4239
" />
<path d="M105.7041 131.4239
L105.5137 131.5192
" />
<path d="M105.5137 131.5192
L105.3232 131.5192
" />
<path d="M105.3232 131.5192
L105.1327 131.4239
" />
<path d="M105.1327 131.4239
L105.0375 131.3287
" />
<path d="M105.0375 131.3287
L104.9422 131.1382
" />
<path d="M104.9422 131.1382
L104.8470 130.7573
" />
<path d="M104.8470 130.7573
L104.8470 130.2811
" />
<path d="M104.8470 130.2811
L104.9422 129.9001
" />
<path d="M104.9422 129.9001
L105.0375 129.7096
" />
<path d="M105.0375 129.7096
L105.1327 129.6144
" />
<path d="M105.1327 129.6144
L105.3232 129.5192
" />
<path d="M107.2280 129.5192
L107.4184 129.5192
" />
<path d="M107.4184 129.5192
L107.6089 129.6144
" />
<path d="M107.6089 129.6144
L107.7041 129.7096
" />
<path d="M107.7041 129.7096
L107.7994 129.9001
" />
<path d="M107.7994 129.9001
L107.8946 130.2811
" />
<path d="M107.8946 130.2811
L107.8946 130.7573
" />
<path d="M107.8946 130.7573
L107.7994 131.1382
" />
<path d="M107.7994 131.1382
L107.7041 131.3287
" />
<path d="M107.7041 131.3287
L107.6089 131.4239
" />
<path d="M107.6089 131.4239
L107.4184 131.5192
" />
<path d="M107.4184 131.5192
L107.2280 131.5192
" />
<path d="M107.2280 131.5192
L107.0375 131.4239
" />
<path d="M107.0375 131.4239
L106.9422 131.3287
" />
<path d="M106.9422 131.3287
L106.8470 131.1382
" />
<path d="M106.8470 131.1382
L106.7518 130.7573
" />
<path d="M106.7518 130.7573
L106.7518 130.2811
" />
<path d="M106.7518 130.2811
L106.8470 129.9001
" />
<path d="M106.8470 129.9001
L106.9422 129.7096
" />
<path d="M106.9422 129.7096
L107.0375 129.6144
" />
<path d="M107.0375 129.6144
L107.2280 129.5192
" />
<path d="M108.7518 131.5192
L108.7518 130.1858
" />
<path d="M108.7518 130.3763
L108.8470 130.2811
" />
<path d="M108.8470 130.2811
L109.0375 130.1858
" />
<path d="M109.0375 130.1858
L109.3232 130.1858
" />
<path d="M109.3232 130.1858
L109.5137 130.2811
" />
<path d="M109.5137 130.2811
L109.6089 130.4715
" />
<path d="M109.6089 130.4715
L109.6089 131.5192
" />
<path d="M109.6089 130.4715
L109.7041 130.2811
" />
<path d="M109.7041 130.2811
L109.8946 130.1858
" />
<path d="M109.8946 130.1858
L110.1803 130.1858
" />
<path d="M110.1803 130.1858
L110.3708 130.2811
" />
<path d="M110.3708 130.2811
L110.4660 130.4715
" />
<path d="M110.4660 130.4715
L110.4660 131.5192
" />
<path d="M111.4184 131.5192
L111.4184 130.1858
" />
<path d="M111.4184 130.3763
L111.5137 130.2811
" />
<path d="M111.5137 130.2811
L111.7041 130.1858
" />
<path d="M111.7041 130.1858
L111.9899 130.1858
" />
<path d="M111.9899 130.1858
L112.1803 130.2811
" />
<path d="M112.1803 130.2811
L112.2756 130.4715
" />
<path d="M112.2756 130.4715
L112.2756 131.5192
" />
<path d="M112.2756 130.4715
L112.3708 130.2811
" />
<path d="M112.3708 130.2811
L112.5613 130.1858
" />
<path d="M112.5613 130.1858
L112.8470 130.1858
" />
<path d="M112.8470 130.1858
L113.0375 130.2811
" />
<path d="M113.0375 130.2811
L113.1327 130.4715
" />
<path d="M113.1327 130.4715
L113.1327 131.5192
" />
<path d="M117.0375 129.4239
L115.3232 131.9954
" />
<path d="M119.6089 129.5192
L119.7994 129.5192
" />
<path d="M119.7994 129.5192
L119.9899 129.6144
" />
<path d="M119.9899 129.6144
L120.0851 129.7096
" />
<path d="M120.0851 129.7096
L120.1803 129.9001
" />
<path d="M120.1803 129.9001
L120.2756 130.2811
" />
<path d="M120.2756 130.2811
L120.2756 130.7573
" />
<path d="M120.2756 130.7573
L120.1803 131.1382
" />
<path d="M120.1803 131.1382
L120.0851 131.3287
" />
<path d="M120.0851 131.3287
L119.9899 131.4239
" />
<path d="M119.9899 131.4239
L119.7994 131.5192
" />
<path d="M119.7994 131.5192
L119.6089 131.5192
" />
<path d="M119.6089 131.5192
L119.4184 131.4239
" />
<path d="M119.4184 131.4239
L119.3232 131.3287
" />
<path d="M119.3232 131.3287
L119.2280 131.1382
" />
<path d="M119.2280 131.1382
L119.1327 130.7573
" />
<path d="M119.1327 130.7573
L119.1327 130.2811
" />
<path d="M119.1327 130.2811
L119.2280 129.9001
" />
<path d="M119.2280 129.9001
L119.3232 129.7096
" />
<path d="M119.3232 129.7096
L119.4184 129.6144
" />
<path d="M119.4184 129.6144
L119.6089 129.5192
" />
<path d="M121.1327 131.3287
L121.2280 131.4239
" />
<path d="M121.2280 131.4239
L121.1327 131.5192
" />
<path d="M121.1327 131.5192
L121.0375 131.4239
" />
<path d="M121.0375 131.4239
L121.1327 131.3287
" />
<path d="M121.1327 131.3287
L121.1327 131.5192
" />
<path d="M122.4661 129.5192
L122.6565 129.5192
" />
<path d="M122.6565 129.5192
L122.8470 129.6144
" />
<path d="M122.8470 129.6144
L122.9422 129.7096
" />
<path d="M122.9422 129.7096
L123.0375 129.9001
" />
<path d="M123.0375 129.9001
L123.1327 130.2811
" />
<path d="M123.1327 130.2811
L123.1327 130.7573
" />
<path d="M123.1327 130.7573
L123.0375 131.1382
" />
<path d="M123.0375 131.1382
L122.9422 131.3287
" />
<path d="M122.9422 131.3287
L122.8470 131.4239
" />
<path d="M122.8470 131.4239
L122.6565 131.5192
" />
<path d="M122.6565 131.5192
L122.4661 131.5192
" />
<path d="M122.4661 131.5192
L122.2756 131.4239
" />
<path d="M122.2756 131.4239
L122.1803 131.3287
" />
<path d="M122.1803 131.3287
L122.0851 131.1382
" />
<path d="M122.0851 131.1382
L121.9899 130.7573
" />
<path d="M121.9899 130.7573
L121.9899 130.2811
" />
<path d="M121.9899 130.2811
L122.0851 129.9001
" />
<path d="M122.0851 129.9001
L122.1803 129.7096
" />
<path d="M122.1803 129.7096
L122.2756 129.6144
" />
<path d="M122.2756 129.6144
L122.4661 129.5192
" />
<path d="M123.7994 129.5192
L125.1327 129.5192
" />
<path d="M125.1327 129.5192
L124.2756 131.5192
" />
<path d="M126.2756 129.5192
L126.4661 129.5192
" />
<path d="M126.4661 129.5192
L126.6565 129.6144
" />
<path d="M126.6565 129.6144
L126.7518 129.7096
" />
<path d="M126.7518 129.7096
L126.8470 129.9001
" />
<path d="M126.8470 129.9001
L126.9422 130.2811
" />
<path d="M126.9422 130.2811
L126.9422 130.7573
" />
<path d="M126.9422 130.7573
L126.8470 131.1382
" />
<path d="M126.8470 131.1382
L126.7518 131.3287
" />
<path d="M126.7518 131.3287
L126.6565 131.4239
" />
<path d="M126.6565 131.4239
L126.4661 131.5192
" />
<path d="M126.4661 131.5192
L126.2756 131.5192
" />
<path d="M126.2756 131.5192
L126.0851 131.4239
" />
<path d="M126.0851 131.4239
L125.9899 131.3287
" />
<path d="M125.9899 131.3287
L125.8946 131.1382
" />
<path d="M125.8946 131.1382
L125.7994 130.7573
" />
<path d="M125.7994 130.7573
L125.7994 130.2811
" />
<path d="M125.7994 130.2811
L125.8946 129.9001
" />
<path d="M125.8946 129.9001
L125.9899 129.7096
" />
<path d="M125.9899 129.7096
L126.0851 129.6144
" />
<path d="M126.0851 129.6144
L126.2756 129.5192
" />
<path d="M127.8946 131.5192
L128.2756 131.5192
" />
<path d="M128.2756 131.5192
L128.4661 131.4239
" />
<path d="M128.4661 131.4239
L128.5613 131.3287
" />
<path d="M128.5613 131.3287
L128.7518 131.0430
" />
<path d="M128.7518 131.0430
L128.8470 130.6620
" />
<path d="M128.8470 130.6620
L128.8470 129.9001
" />
<path d="M128.8470 129.9001
L128.7518 129.7096
" />
<path d="M128.7518 129.7096
L128.6565 129.6144
" />
<path d="M128.6565 129.6144
L128.4661 129.5192
" />
<path d="M128.4661 129.5192
L128.0851 129.5192
" />
<path d="M128.0851 129.5192
L127.8946 129.6144
" />
<path d="M127.8946 129.6144
L127.7994 129.7096
" />
<path d="M127.7994 129.7096
L127.7041 129.9001
" />
<path d="M127.7041 129.9001
L127.7041 130.3763
" />
<path d="M127.7041 130.3763
L127.7994 130.5668
" />
<path d="M127.7994 130.5668
L127.8946 130.6620
" />
<path d="M127.8946 130.6620
L128.0851 130.7573
" />
<path d="M128.0851 130.7573
L128.4661 130.7573
" />
<path d="M128.4661 130.7573
L128.6565 130.6620
" />
<path d="M128.6565 130.6620
L128.7518 130.5668
" />
<path d="M128.7518 130.5668
L128.8470 130.3763
" />
<path d="M129.6089 129.5192
L129.6089 129.9001
" />
<path d="M130.3708 129.5192
L130.3708 129.9001
" />
<path d="M133.3232 132.2811
L133.2280 132.1858
" />
<path d="M133.2280 132.1858
L133.0375 131.9001
" />
<path d="M133.0375 131.9001
L132.9422 131.7096
" />
<path d="M132.9422 131.7096
L132.8470 131.4239
" />
<path d="M132.8470 131.4239
L132.7518 130.9477
" />
<path d="M132.7518 130.9477
L132.7518 130.5668
" />
<path d="M132.7518 130.5668
L132.8470 130.0906
" />
<path d="M132.8470 130.0906
L132.9422 129.8049
" />
<path d="M132.9422 129.8049
L133.0375 129.6144
" />
<path d="M133.0375 129.6144
L133.2280 129.3287
" />
<path d="M133.2280 129.3287
L133.3232 129.2334
" />
<path d="M133.9899 129.7096
L134.0851 129.6144
" />
<path d="M134.0851 129.6144
L134.2756 129.5192
" />
<path d="M134.2756 129.5192
L134.7518 129.5192
" />
<path d="M134.7518 129.5192
L134.9422 129.6144
" />
<path d="M134.9422 129.6144
L135.0375 129.7096
" />
<path d="M135.0375 129.7096
L135.1327 129.9001
" />
<path d="M135.1327 129.9001
L135.1327 130.0906
" />
<path d="M135.1327 130.0906
L135.0375 130.3763
" />
<path d="M135.0375 130.3763
L133.8946 131.5192
" />
<path d="M133.8946 131.5192
L135.1327 131.5192
" />
<path d="M136.3708 129.5192
L136.5613 129.5192
" />
<path d="M136.5613 129.5192
L136.7518 129.6144
" />
<path d="M136.7518 129.6144
L136.8470 129.7096
" />
<path d="M136.8470 129.7096
L136.9422 129.9001
" />
<path d="M136.9422 129.9001
L137.0375 130.2811
" />
<path d="M137.0375 130.2811
L137.0375 130.7573
" />
<path d="M137.0375 130.7573
L136.9422 131.1382
" />
<path d="M136.9422 131.1382
L136.8470 131.3287
" />
<path d="M136.8470 131.3287
L136.7518 131.4239
" />
<path d="M136.7518 131.4239
L136.5613 131.5192
" />
<path d="M136.5613 131.5192
L136.3708 131.5192
" />
<path d="M136.3708 131.5192
L136.1803 131.4239
" />
<path d="M136.1803 131.4239
L136.0851 131.3287
" />
<path d="M136.0851 131.3287
L135.9899 131.1382
" />
<path d="M135.9899 131.1382
L135.8946 130.7573
" />
<path d="M135.8946 130.7573
L135.8946 130.2811
" />
<path d="M135.8946 130.2811
L135.9899 129.9001
" />
<path d="M135.9899 129.9001
L136.0851 129.7096
" />
<path d="M136.0851 129.7096
L136.1803 129.6144
" />
<path d="M136.1803 129.6144
L136.3708 129.5192
" />
<path d="M139.4184 131.5192
L139.4184 129.5192
" />
<path d="M140.2756 131.5192
L140.2756 130.4715
" />
<path d="M140.2756 130.4715
L140.1803 130.2811
" />
<path d="M140.1803 130.2811
L139.9899 130.1858
" />
<path d="M139.9899 130.1858
L139.7041 130.1858
" />
<path d="M139.7041 130.1858
L139.5137 130.2811
" />
<path d="M139.5137 130.2811
L139.4184 130.3763
" />
<path d="M141.5137 131.5192
L141.3232 131.4239
" />
<path d="M141.3232 131.4239
L141.2280 131.3287
" />
<path d="M141.2280 131.3287
L141.1327 131.1382
" />
<path d="M141.1327 131.1382
L141.1327 130.5668
" />
<path d="M141.1327 130.5668
L141.2280 130.3763
" />
<path d="M141.2280 130.3763
L141.3232 130.2811
" />
<path d="M141.3232 130.2811
L141.5137 130.1858
" />
<path d="M141.5137 130.1858
L141.7994 130.1858
" />
<path d="M141.7994 130.1858
L141.9899 130.2811
" />
<path d="M141.9899 130.2811
L142.0851 130.3763
" />
<path d="M142.0851 130.3763
L142.1803 130.5668
" />
<path d="M142.1803 130.5668
L142.1803 131.1382
" />
<path d="M142.1803 131.1382
L142.0851 131.3287
" />
<path d="M142.0851 131.3287
L141.9899 131.4239
" />
<path d="M141.9899 131.4239
L141.7994 131.5192
" />
<path d="M141.7994 131.5192
L141.5137 131.5192
" />
<path d="M143.3232 131.5192
L143.1327 131.4239
" />
<path d="M143.1327 131.4239
L143.0375 131.2334
" />
<path d="M143.0375 131.2334
L143.0375 129.5192
" />
<path d="M144.8470 131.4239
L144.6565 131.5192
" />
<path d="M144.6565 131.5192
L144.2756 131.5192
" />
<path d="M144.2756 131.5192
L144.0851 131.4239
" />
<path d="M144.0851 131.4239
L143.9899 131.2334
" />
<path d="M143.9899 131.2334
L143.9899 130.4715
" />
<path d="M143.9899 130.4715
L144.0851 130.2811
" />
<path d="M144.0851 130.2811
L144.2756 130.1858
" />
<path d="M144.2756 130.1858
L144.6565 130.1858
" />
<path d="M144.6565 130.1858
L144.8470 130.2811
" />
<path d="M144.8470 130.2811
L144.9422 130.4715
" />
<path d="M144.9422 130.4715
L144.9422 130.6620
" />
<path d="M144.9422 130.6620
L143.9899 130.8525
" />
<path d="M145.7041 131.4239
L145.8946 131.5192
" />
<path d="M145.8946 131.5192
L146.2756 131.5192
" />
<path d="M146.2756 131.5192
L146.4661 131.4239
" />
<path d="M146.4661 131.4239
L146.5613 131.2334
" />
<path d="M146.5613 131.2334
L146.5613 131.1382
" />
<path d="M146.5613 131.1382
L146.4661 130.9477
" />
<path d="M146.4661 130.9477
L146.2756 130.8525
" />
<path d="M146.2756 130.8525
L145.9899 130.8525
" />
<path d="M145.9899 130.8525
L145.7994 130.7573
" />
<path d="M145.7994 130.7573
L145.7041 130.5668
" />
<path d="M145.7041 130.5668
L145.7041 130.4715
" />
<path d="M145.7041 130.4715
L145.7994 130.2811
" />
<path d="M145.7994 130.2811
L145.9899 130.1858
" />
<path d="M145.9899 130.1858
L146.2756 130.1858
" />
<path d="M146.2756 130.1858
L146.4661 130.2811
" />
<path d="M147.2280 132.2811
L147.3232 132.1858
" />
<path d="M147.3232 132.1858
L147.5137 131.9001
" />
<path d="M147.5137 131.9001
L147.6089 131.7096
" />
<path d="M147.6089 131.7096
L147.7041 131.4239
" />
<path d="M147.7041 131.4239
L147.7994 130.9477
" />
<path d="M147.7994 130.9477
L147.7994 130.5668
" />
<path d="M147.7994 130.5668
L147.7041 130.0906
" />
<path d="M147.7041 130.0906
L147.6089 129.8049
" />
<path d="M147.6089 129.8049
L147.5137 129.6144
" />
<path d="M147.5137 129.6144
L147.3232 129.3287
" />
<path d="M147.3232 129.3287
L147.2280 129.2334
" />
</g></g>
<g style="fill:#000000; fill-opacity:0.0; 
stroke:#000000; stroke-width:0.2000; stroke-opacity:1; 
stroke-linecap:round; stroke-linejoin:round;">
<path d="M96.5726 132.8043
L96.5726 134.8043
" />
<path d="M95.5726 133.8043
L97.5726 133.8043
" />
</g>
<g style="fill:#000000; fill-opacity:0.0; 
stroke:#000000; stroke-width:0.3140; stroke-opacity:1; 
stroke-linecap:round; stroke-linejoin:round;">
</g>
<g style="fill:#000000; fill-opacity:0.0; 
stroke:#000000; stroke-width:0.2000; stroke-opacity:1; 
stroke-linecap:round; stroke-linejoin:round;">
<text x="99.5726" y="134.8043"
textLength="46.8667" font-size="2.6667" lengthAdjust="spacingAndGlyphs"
text-anchor="start" opacity="0">2.108mm / 0.0830" (4 holes)</text>
<g class="stroked-text"><desc>2.108mm / 0.0830" (4 holes)</desc>
<path d="M100.0851 132.9096
L100.1803 132.8144
" />
<path d="M100.1803 132.8144
L100.3708 132.7192
" />
<path d="M100.3708 132.7192
L100.8470 132.7192
" />
<path d="M100.8470 132.7192
L101.0375 132.8144
" />
<path d="M101.0375 132.8144
L101.1327 132.9096
" />
<path d="M101.1327 132.9096
L101.2280 133.1001
" />
<path d="M101.2280 133.1001
L101.2280 133.2906
" />
<path d="M101.2280 133.2906
L101.1327 133.5763
" />
<path d="M101.1327 133.5763
L99.9899 134.7192
" />
<path d="M99.9899 134.7192
L101.2280 134.7192
" />
<path d="M102.0851 134.5287
L102.1803 134.6239
" />
<path d="M102.1803 134.6239
L102.0851 134.7192
" />
<path d="M102.0851 134.7192
L101.9899 134.6239
" />
<path d="M101.9899 134.6239
L102.0851 134.5287
" />
<path d="M102.0851 134.5287
L102.0851 134.7192
" />
<path d="M104.0851 134.7192
L102.9422 134.7192
" />
<path d="M103.5137 134.7192
L103.5137 132.7192
" />
<path d="M103.5137 132.7192
L103.3232 133.0049
" />
<path d="M103.3232 133.0049
L103.1327 133.1954
" />
<path d="M103.1327 133.1954
L102.9422 133.2906
" />
<path d="M105.3232 132.7192
L105.5137 132.7192
" />
<path d="M105.5137 132.7192
L105.7041 132.8144
" />
<path d="M105.7041 132.8144
L105.7994 132.9096
" />
<path d="M105.7994 132.9096
L105.8946 133.1001
" />
<path d="M105.8946 133.1001
L105.9899 133.4811
" />
<path d="M105.9899 133.4811
L105.9899 133.9573
" />
<path d="M105.9899 133.9573
L105.8946 134.3382
" />
<path d="M105.8946 134.3382
L105.7994 134.5287
" />
<path d="M105.7994 134.5287
L105.7041 134.6239
" />
<path d="M105.7041 134.6239
L105.5137 134.7192
" />
<path d="M105.5137 134.7192
L105.3232 134.7192
" />
<path d="M105.3232 134.7192
L105.1327 134.6239
" />
<path d="M105.1327 134.6239
L105.0375 134.5287
" />
<path d="M105.0375 134.5287
L104.9422 134.3382
" />
<path d="M104.9422 134.3382
L104.8470 133.9573
" />
<path d="M104.8470 133.9573
L104.8470 133.4811
" />
<path d="M104.8470 133.4811
L104.9422 133.1001
" />
<path d="M104.9422 133.1001
L105.0375 132.9096
" />
<path d="M105.0375 132.9096
L105.1327 132.8144
" />
<path d="M105.1327 132.8144
L105.3232 132.7192
" />
<path d="M107.1327 133.5763
L106.9422 133.4811
" />
<path d="M106.9422 133.4811
L106.8470 133.3858
" />
<path d="M106.8470 133.3858
L106.7518 133.1954
" />
<path d="M106.7518 133.1954
L106.7518 133.1001
" />
<path d="M106.7518 133.1001
L106.8470 132.9096
" />
<path d="M106.8470 132.9096
L106.9422 132.8144
" />
<path d="M106.9422 132.8144
L107.1327 132.7192
" />
<path d="M107.1327 132.7192
L107.5137 132.7192
" />
<path d="M107.5137 132.7192
L107.7041 132.8144
" />
<path d="M107.7041 132.8144
L107.7994 132.9096
" />
<path d="M107.7994 132.9096
L107.8946 133.1001
" />
<path d="M107.8946 133.1001
L107.8946 133.1954
" />
<path d="M107.8946 133.1954
L107.7994 133.3858
" />
<path d="M107.7994 133.3858
L107.7041 133.4811
" />
<path d="M107.7041 133.4811
L107.5137 133.5763
" />
<path d="M107.5137 133.5763
L107.1327 133.5763
" />
<path d="M107.1327 133.5763
L106.9422 133.6715
" />
<path d="M106.9422 133.6715
L106.8470 133.7668
" />
<path d="M106.8470 133.7668
L106.7518 133.9573
" />
<path d="M106.7518 133.9573
L106.7518 134.3382
" />
<path d="M106.7518 134.3382
L106.8470 134.5287
" />
<path d="M106.8470 134.5287
L106.9422 134.6239
" />
<path d="M106.9422 134.6239
L107.1327 134.7192
" />
<path d="M107.1327 134.7192
L107.5137 134.7192
" />
<path d="M107.5137 134.7192
L107.7041 134.6239
" />
<path d="M107.7041 134.6239
L107.7994 134.5287
" />
<path d="M107.7994 134.5287
L107.8946 134.3382
" />
<path d="M107.8946 134.3382
L107.8946 133.9573
" />
<path d="M107.8946 133.9573
L107.7994 133.7668
" />
<path d="M107.7994 133.7668
L107.7041 133.6715
" />
<path d="M107.7041 133.6715
L107.5137 133.5763
" />
<path d="M108.7518 134.7192
L108.7518 133.3858
" />
<path d="M108.7518 133.5763
L108.8470 133.4811
" />
<path d="M108.8470 133.4811
L109.0375 133.3858
" />
<path d="M109.0375 133.3858
L109.3232 133.3858
" />
<path d="M109.3232 133.3858
L109.5137 133.4811
" />
<path d="M109.5137 133.4811
L109.6089 133.6715
" />
<path d="M109.6089 133.6715
L109.6089 134.7192
" />
<path d="M109.6089 133.6715
L109.7041 133.4811
" />
<path d="M109.7041 133.4811
L109.8946 133.3858
" />
<path d="M109.8946 133.3858
L110.1803 133.3858
" />
<path d="M110.1803 133.3858
L110.3708 133.4811
" />
<path d="M110.3708 133.4811
L110.4660 133.6715
" />
<path d="M110.4660 133.6715
L110.4660 134.7192
" />
<path d="M111.4184 134.7192
L111.4184 133.3858
" />
<path d="M111.4184 133.5763
L111.5137 133.4811
" />
<path d="M111.5137 133.4811
L111.7041 133.3858
" />
<path d="M111.7041 133.3858
L111.9899 133.3858
" />
<path d="M111.9899 133.3858
L112.1803 133.4811
" />
<path d="M112.1803 133.4811
L112.2756 133.6715
" />
<path d="M112.2756 133.6715
L112.2756 134.7192
" />
<path d="M112.2756 133.6715
L112.3708 133.4811
" />
<path d="M112.3708 133.4811
L112.5613 133.3858
" />
<path d="M112.5613 133.3858
L112.8470 133.3858
" />
<path d="M112.8470 133.3858
L113.0375 133.4811
" />
<path d="M113.0375 133.4811
L113.1327 133.6715
" />
<path d="M113.1327 133.6715
L113.1327 134.7192
" />
<path d="M117.0375 132.6239
L115.3232 135.1954
" />
<path d="M119.6089 132.7192
L119.7994 132.7192
" />
<path d="M119.7994 132.7192
L119.9899 132.8144
" />
<path d="M119.9899 132.8144
L120.0851 132.9096
" />
<path d="M120.0851 132.9096
L120.1803 133.1001
" />
<path d="M120.1803 133.1001
L120.2756 133.4811
" />
<path d="M120.2756 133.4811
L120.2756 133.9573
" />
<path d="M120.2756 133.9573
L120.1803 134.3382
" />
<path d="M120.1803 134.3382
L120.0851 134.5287
" />
<path d="M120.0851 134.5287
L119.9899 134.6239
" />
<path d="M119.9899 134.6239
L119.7994 134.7192
" />
<path d="M119.7994 134.7192
L119.6089 134.7192
" />
<path d="M119.6089 134.7192
L119.4184 134.6239
" />
<path d="M119.4184 134.6239
L119.3232 134.5287
" />
<path d="M119.3232 134.5287
L119.2280 134.3382
" />
<path d="M119.2280 134.3382
L119.1327 133.9573
" />
<path d="M119.1327 133.9573
L119.1327 133.4811
" />
<path d="M119.1327 133.4811
L119.2280 133.1001
" />
<path d="M119.2280 133.1001
L119.3232 132.9096
" />
<path d="M119.3232 132.9096
L119.4184 132.8144
" />
<path d="M119.4184 132.8144
L119.6089 132.7192
" />
<path d="M121.1327 134.5287
L121.2280 134.6239
" />
<path d="M121.2280 134.6239
L121.1327 134.7192
" />
<path d="M121.1327 134.7192
L121.0375 134.6239
" />
<path d="M121.0375 134.6239
L121.1327 134.5287
" />
<path d="M121.1327 134.5287
L121.1327 134.7192
" />
<path d="M122.4661 132.7192
L122.6565 132.7192
" />
<path d="M122.6565 132.7192
L122.8470 132.8144
" />
<path d="M122.8470 132.8144
L122.9422 132.9096
" />
<path d="M122.9422 132.9096
L123.0375 133.1001
" />
<path d="M123.0375 133.1001
L123.1327 133.4811
" />
<path d="M123.1327 133.4811
L123.1327 133.9573
" />
<path d="M123.1327 133.9573
L123.0375 134.3382
" />
<path d="M123.0375 134.3382
L122.9422 134.5287
" />
<path d="M122.9422 134.5287
L122.8470 134.6239
" />
<path d="M122.8470 134.6239
L122.6565 134.7192
" />
<path d="M122.6565 134.7192
L122.4661 134.7192
" />
<path d="M122.4661 134.7192
L122.2756 134.6239
" />
<path d="M122.2756 134.6239
L122.1803 134.5287
" />
<path d="M122.1803 134.5287
L122.0851 134.3382
" />
<path d="M122.0851 134.3382
L121.9899 133.9573
" />
<path d="M121.9899 133.9573
L121.9899 133.4811
" />
<path d="M121.9899 133.4811
L122.0851 133.1001
" />
<path d="M122.0851 133.1001
L122.1803 132.9096
" />
<path d="M122.1803 132.9096
L122.2756 132.8144
" />
<path d="M122.2756 132.8144
L122.4661 132.7192
" />
<path d="M124.2756 133.5763
L124.0851 133.4811
" />
<path d="M124.0851 133.4811
L123.9899 133.3858
" />
<path d="M123.9899 133.3858
L123.8946 133.1954
" />
<path d="M123.8946 133.1954
L123.8946 133.1001
" />
<path d="M123.8946 133.1001
L123.9899 132.9096
" />
<path d="M123.9899 132.9096
L124.0851 132.8144
" />
<path d="M124.0851 132.8144
L124.2756 132.7192
" />
<path d="M124.2756 132.7192
L124.6565 132.7192
" />
<path d="M124.6565 132.7192
L124.8470 132.8144
" />
<path d="M124.8470 132.8144
L124.9422 132.9096
" />
<path d="M124.9422 132.9096
L125.0375 133.1001
" />
<path d="M125.0375 133.1001
L125.0375 133.1954
" />
<path d="M125.0375 133.1954
L124.9422 133.3858
" />
<path d="M124.9422 133.3858
L124.8470 133.4811
" />
<path d="M124.8470 133.4811
L124.6565 133.5763
" />
<path d="M124.6565 133.5763
L124.2756 133.5763
" />
<path d="M124.2756 133.5763
L124.0851 133.6715
" />
<path d="M124.0851 133.6715
L123.9899 133.7668
" />
<path d="M123.9899 133.7668
L123.8946 133.9573
" />
<path d="M123.8946 133.9573
L123.8946 134.3382
" />
<path d="M123.8946 134.3382
L123.9899 134.5287
" />
<path d="M123.9899 134.5287
L124.0851 134.6239
" />
<path d="M124.0851 134.6239
L124.2756 134.7192
" />
<path d="M124.2756 134.7192
L124.6565 134.7192
" />
<path d="M124.6565 134.7192
L124.8470 134.6239
" />
<path d="M124.8470 134.6239
L124.9422 134.5287
" />
<path d="M124.9422 134.5287
L125.0375 134.3382
" />
<path d="M125.0375 134.3382
L125.0375 133.9573
" />
<path d="M125.0375 133.9573
L124.9422 133.7668
" />
<path d="M124.9422 133.7668
L124.8470 133.6715
" />
<path d="M124.8470 133.6715
L124.6565 133.5763
" />
<path d="M125.7041 132.7192
L126.9422 132.7192
" />
<path d="M126.9422 132.7192
L126.2756 133.4811
" />
<path d="M126.2756 133.4811
L126.5613 133.4811
" />
<path d="M126.5613 133.4811
L126.7518 133.5763
" />
<path d="M126.7518 133.5763
L126.8470 133.6715
" />
<path d="M126.8470 133.6715
L126.9422 133.8620
" />
<path d="M126.9422 133.8620
L126.9422 134.3382
" />
<path d="M126.9422 134.3382
L126.8470 134.5287
" />
<path d="M126.8470 134.5287
L126.7518 134.6239
" />
<path d="M126.7518 134.6239
L126.5613 134.7192
" />
<path d="M126.5613 134.7192
L125.9899 134.7192
" />
<path d="M125.9899 134.7192
L125.7994 134.6239
" />
<path d="M125.7994 134.6239
L125.7041 134.5287
" />
<path d="M128.1803 132.7192
L128.3708 132.7192
" />
<path d="M128.3708 132.7192
L128.5613 132.8144
" />
<path d="M128.5613 132.8144
L128.6565 132.9096
" />
<path d="M128.6565 132.9096
L128.7518 133.1001
" />
<path d="M128.7518 133.1001
L128.8470 133.4811
" />
<path d="M128.8470 133.4811
L128.8470 133.9573
" />
<path d="M128.8470 133.9573
L128.7518 134.3382
" />
<path d="M128.7518 134.3382
L128.6565 134.5287
" />
<path d="M128.6565 134.5287
L128.5613 134.6239
" />
<path d="M128.5613 134.6239
L128.3708 134.7192
" />
<path d="M128.3708 134.7192
L128.1803 134.7192
" />
<path d="M128.1803 134.7192
L127.9899 134.6239
" />
<path d="M127.9899 134.6239
L127.8946 134.5287
" />
<path d="M127.8946 134.5287
L127.7994 134.3382
" />
<path d="M127.7994 134.3382
L127.7041 133.9573
" />
<path d="M127.7041 133.9573
L127.7041 133.4811
" />
<path d="M127.7041 133.4811
L127.7994 133.1001
" />
<path d="M127.7994 133.1001
L127.8946 132.9096
" />
<path d="M127.8946 132.9096
L127.9899 132.8144
" />
<path d="M127.9899 132.8144
L128.1803 132.7192
" />
<path d="M129.6089 132.7192
L129.6089 133.1001
" />
<path d="M130.3708 132.7192
L130.3708 133.1001
" />
<path d="M133.3232 135.4811
L133.2280 135.3858
" />
<path d="M133.2280 135.3858
L133.0375 135.1001
" />
<path d="M133.0375 135.1001
L132.9422 134.9096
" />
<path d="M132.9422 134.9096
L132.8470 134.6239
" />
<path d="M132.8470 134.6239
L132.7518 134.1477
" />
<path d="M132.7518 134.1477
L132.7518 133.7668
" />
<path d="M132.7518 133.7668
L132.8470 133.2906
" />
<path d="M132.8470 133.2906
L132.9422 133.0049
" />
<path d="M132.9422 133.0049
L133.0375 132.8144
" />
<path d="M133.0375 132.8144
L133.2280 132.5287
" />
<path d="M133.2280 132.5287
L133.3232 132.4334
" />
<path d="M134.9422 133.3858
L134.9422 134.7192
" />
<path d="M134.4661 132.6239
L133.9899 134.0525
" />
<path d="M133.9899 134.0525
L135.2280 134.0525
" />
<path d="M137.5137 134.7192
L137.5137 132.7192
" />
<path d="M138.3708 134.7192
L138.3708 133.6715
" />
<path d="M138.3708 133.6715
L138.2756 133.4811
" />
<path d="M138.2756 133.4811
L138.0851 133.3858
" />
<path d="M138.0851 133.3858
L137.7994 133.3858
" />
<path d="M137.7994 133.3858
L137.6089 133.4811
" />
<path d="M137.6089 133.4811
L137.5137 133.5763
" />
<path d="M139.6089 134.7192
L139.4184 134.6239
" />
<path d="M139.4184 134.6239
L139.3232 134.5287
" />
<path d="M139.3232 134.5287
L139.2280 134.3382
" />
<path d="M139.2280 134.3382
L139.2280 133.7668
" />
<path d="M139.2280 133.7668
L139.3232 133.5763
" />
<path d="M139.3232 133.5763
L139.4184 133.4811
" />
<path d="M139.4184 133.4811
L139.6089 133.3858
" />
<path d="M139.6089 133.3858
L139.8946 133.3858
" />
<path d="M139.8946 133.3858
L140.0851 133.4811
" />
<path d="M140.0851 133.4811
L140.1803 133.5763
" />
<path d="M140.1803 133.5763
L140.2756 133.7668
" />
<path d="M140.2756 133.7668
L140.2756 134.3382
" />
<path d="M140.2756 134.3382
L140.1803 134.5287
" />
<path d="M140.1803 134.5287
L140.0851 134.6239
" />
<path d="M140.0851 134.6239
L139.8946 134.7192
" />
<path d="M139.8946 134.7192
L139.6089 134.7192
" />
<path d="M141.4184 134.7192
L141.2280 134.6239
" />
<path d="M141.2280 134.6239
L141.1327 134.4334
" />
<path d="M141.1327 134.4334
L141.1327 132.7192
" />
<path d="M142.9422 134.6239
L142.7518 134.7192
" />
<path d="M142.7518 134.7192
L142.3708 134.7192
" />
<path d="M142.3708 134.7192
L142.1803 134.6239
" />
<path d="M142.1803 134.6239
L142.0851 134.4334
" />
<path d="M142.0851 134.4334
L142.0851 133.6715
" />
<path d="M142.0851 133.6715
L142.1803 133.4811
" />
<path d="M142.1803 133.4811
L142.3708 133.3858
" />
<path d="M142.3708 133.3858
L142.7518 133.3858
" />
<path d="M142.7518 133.3858
L142.9422 133.4811
" />
<path d="M142.9422 133.4811
L143.0375 133.6715
" />
<path d="M143.0375 133.6715
L143.0375 133.8620
" />
<path d="M143.0375 133.8620
L142.0851 134.0525
" />
<path d="M143.7994 134.6239
L143.9899 134.7192
" />
<path d="M143.9899 134.7192
L144.3708 134.7192
" />
<path d="M144.3708 134.7192
L144.5613 134.6239
" />
<path d="M144.5613 134.6239
L144.6565 134.4334
" />
<path d="M144.6565 134.4334
L144.6565 134.3382
" />
<path d="M144.6565 134.3382
L144.5613 134.1477
" />
<path d="M144.5613 134.1477
L144.3708 134.0525
" />
<path d="M144.3708 134.0525
L144.0851 134.0525
" />
<path d="M144.0851 134.0525
L143.8946 133.9573
" />
<path d="M143.8946 133.9573
L143.7994 133.7668
" />
<path d="M143.7994 133.7668
L143.7994 133.6715
" />
<path d="M143.7994 133.6715
L143.8946 133.4811
" />
<path d="M143.8946 133.4811
L144.0851 133.3858
" />
<path d="M144.0851 133.3858
L144.3708 133.3858
" />
<path d="M144.3708 133.3858
L144.5613 133.4811
" />
<path d="M145.3232 135.4811
L145.4184 135.3858
" />
<path d="M145.4184 135.3858
L145.6089 135.1001
" />
<path d="M145.6089 135.1001
L145.7042 134.9096
" />
<path d="M145.7042 134.9096
L145.7994 134.6239
" />
<path d="M145.7994 134.6239
L145.8946 134.1477
" />
<path d="M145.8946 134.1477
L145.8946 133.7668
" />
<path d="M145.8946 133.7668
L145.7994 133.2906
" />
<path d="M145.7994 133.2906
L145.7042 133.0049
" />
<path d="M145.7042 133.0049
L145.6089 132.8144
" />
<path d="M145.6089 132.8144
L145.4184 132.5287
" />
<path d="M145.4184 132.5287
L145.3232 132.4334
" />
</g></g>
<g style="fill:#000000; fill-opacity:0.0; 
stroke:#000000; stroke-width:0.2000; stroke-opacity:1; 
stroke-linecap:round; stroke-linejoin:round;">
<path style="fill:#000000; fill-opacity:0.0; 
stroke:#000000; stroke-width:0.2000; stroke-opacity:1; 
stroke-linecap:round; stroke-linejoin:round;fill:none"
d="M 97.2797,137.7114
97.2797,136.2972
95.8655,136.2972
95.8655,137.7114
Z" /> 
</g>
<g style="fill:#000000; fill-opacity:0.0; 
stroke:#000000; stroke-width:0.3140; stroke-opacity:1; 
stroke-linecap:round; stroke-linejoin:round;">
</g>
<g style="fill:#000000; fill-opacity:0.0; 
stroke:#000000; stroke-width:0.2000; stroke-opacity:1; 
stroke-linecap:round; stroke-linejoin:round;">
<text x="99.5726" y="138.0043"
textLength="66.6762" font-size="2.6667" lengthAdjust="spacingAndGlyphs"
text-anchor="start" opacity="0">3.175mm / 0.1250" (4 holes) (not plated)</text>
<g class="stroked-text"><desc>3.175mm / 0.1250" (4 holes) (not plated)</desc>
<path d="M99.9899 135.9192
L101.2280 135.9192
" />
<path d="M101.2280 135.9192
L100.5613 136.6811
" />
<path d="M100.5613 136.6811
L100.8470 136.6811
" />
<path d="M100.8470 136.6811
L101.0375 136.7763
" />
<path d="M101.0375 136.7763
L101.1327 136.8715
" />
<path d="M101.1327 136.8715
L101.2280 137.0620
" />
<path d="M101.2280 137.0620
L101.2280 137.5382
" />
<path d="M101.2280 137.5382
L101.1327 137.7287
" />
<path d="M101.1327 137.7287
L101.0375 137.8239
" />
<path d="M101.0375 137.8239
L100.8470 137.9192
" />
<path d="M100.8470 137.9192
L100.2756 137.9192
" />
<path d="M100.2756 137.9192
L100.0851 137.8239
" />
<path d="M100.0851 137.8239
L99.9899 137.7287
" />
<path d="M102.0851 137.7287
L102.1803 137.8239
" />
<path d="M102.1803 137.8239
L102.0851 137.9192
" />
<path d="M102.0851 137.9192
L101.9899 137.8239
" />
<path d="M101.9899 137.8239
L102.0851 137.7287
" />
<path d="M102.0851 137.7287
L102.0851 137.9192
" />
<path d="M104.0851 137.9192
L102.9422 137.9192
" />
<path d="M103.5137 137.9192
L103.5137 135.9192
" />
<path d="M103.5137 135.9192
L103.3232 136.2049
" />
<path d="M103.3232 136.2049
L103.1327 136.3953
" />
<path d="M103.1327 136.3953
L102.9422 136.4906
" />
<path d="M104.7518 135.9192
L106.0851 135.9192
" />
<path d="M106.0851 135.9192
L105.2280 137.9192
" />
<path d="M107.7994 135.9192
L106.8470 135.9192
" />
<path d="M106.8470 135.9192
L106.7518 136.8715
" />
<path d="M106.7518 136.8715
L106.8470 136.7763
" />
<path d="M106.8470 136.7763
L107.0375 136.6811
" />
<path d="M107.0375 136.6811
L107.5137 136.6811
" />
<path d="M107.5137 136.6811
L107.7041 136.7763
" />
<path d="M107.7041 136.7763
L107.7994 136.8715
" />
<path d="M107.7994 136.8715
L107.8946 137.0620
" />
<path d="M107.8946 137.0620
L107.8946 137.5382
" />
<path d="M107.8946 137.5382
L107.7994 137.7287
" />
<path d="M107.7994 137.7287
L107.7041 137.8239
" />
<path d="M107.7041 137.8239
L107.5137 137.9192
" />
<path d="M107.5137 137.9192
L107.0375 137.9192
" />
<path d="M107.0375 137.9192
L106.8470 137.8239
" />
<path d="M106.8470 137.8239
L106.7518 137.7287
" />
<path d="M108.7518 137.9192
L108.7518 136.5858
" />
<path d="M108.7518 136.7763
L108.8470 136.6811
" />
<path d="M108.8470 136.6811
L109.0375 136.5858
" />
<path d="M109.0375 136.5858
L109.3232 136.5858
" />
<path d="M109.3232 136.5858
L109.5137 136.6811
" />
<path d="M109.5137 136.6811
L109.6089 136.8715
" />
<path d="M109.6089 136.8715
L109.6089 137.9192
" />
<path d="M109.6089 136.8715
L109.7041 136.6811
" />
<path d="M109.7041 136.6811
L109.8946 136.5858
" />
<path d="M109.8946 136.5858
L110.1803 136.5858
" />
<path d="M110.1803 136.5858
L110.3708 136.6811
" />
<path d="M110.3708 136.6811
L110.4660 136.8715
" />
<path d="M110.4660 136.8715
L110.4660 137.9192
" />
<path d="M111.4184 137.9192
L111.4184 136.5858
" />
<path d="M111.4184 136.7763
L111.5137 136.6811
" />
<path d="M111.5137 136.6811
L111.7041 136.5858
" />
<path d="M111.7041 136.5858
L111.9899 136.5858
" />
<path d="M111.9899 136.5858
L112.1803 136.6811
" />
<path d="M112.1803 136.6811
L112.2756 136.8715
" />
<path d="M112.2756 136.8715
L112.2756 137.9192
" />
<path d="M112.2756 136.8715
L112.3708 136.6811
" />
<path d="M112.3708 136.6811
L112.5613 136.5858
" />
<path d="M112.5613 136.5858
L112.8470 136.5858
" />
<path d="M112.8470 136.5858
L113.0375 136.6811
" />
<path d="M113.0375 136.6811
L113.1327 136.8715
" />
<path d="M113.1327 136.8715
L113.1327 137.9192
" />
<path d="M117.0375 135.8239
L115.3232 138.3954
" />
<path d="M119.6089 135.9192
L119.7994 135.9192
" />
<path d="M119.7994 135.9192
L119.9899 136.0144
" />
<path d="M119.9899 136.0144
L120.0851 136.1096
" />
<path d="M120.0851 136.1096
L120.1803 136.3001
" />
<path d="M120.1803 136.3001
L120.2756 136.6811
" />
<path d="M120.2756 136.6811
L120.2756 137.1573
" />
<path d="M120.2756 137.1573
L120.1803 137.5382
" />
<path d="M120.1803 137.5382
L120.0851 137.7287
" />
<path d="M120.0851 137.7287
L119.9899 137.8239
" />
<path d="M119.9899 137.8239
L119.7994 137.9192
" />
<path d="M119.7994 137.9192
L119.6089 137.9192
" />
<path d="M119.6089 137.9192
L119.4184 137.8239
" />
<path d="M119.4184 137.8239
L119.3232 137.7287
" />
<path d="M119.3232 137.7287
L119.2280 137.5382
" />
<path d="M119.2280 137.5382
L119.1327 137.1573
" />
<path d="M119.1327 137.1573
L119.1327 136.6811
" />
<path d="M119.1327 136.6811
L119.2280 136.3001
" />
<path d="M119.2280 136.3001
L119.3232 136.1096
" />
<path d="M119.3232 136.1096
L119.4184 136.0144
" />
<path d="M119.4184 136.0144
L119.6089 135.9192
" />
<path d="M121.1327 137.7287
L121.2280 137.8239
" />
<path d="M121.2280 137.8239
L121.1327 137.9192
" />
<path d="M121.1327 137.9192
L121.0375 137.8239
" />
<path d="M121.0375 137.8239
L121.1327 137.7287
" />
<path d="M121.1327 137.7287
L121.1327 137.9192
" />
<path d="M123.1327 137.9192
L121.9899 137.9192
" />
<path d="M122.5613 137.9192
L122.5613 135.9192
" />
<path d="M122.5613 135.9192
L122.3708 136.2049
" />
<path d="M122.3708 136.2049
L122.1803 136.3953
" />
<path d="M122.1803 136.3953
L121.9899 136.4906
" />
<path d="M123.8946 136.1096
L123.9899 136.0144
" />
<path d="M123.9899 136.0144
L124.1803 135.9192
" />
<path d="M124.1803 135.9192
L124.6565 135.9192
" />
<path d="M124.6565 135.9192
L124.8470 136.0144
" />
<path d="M124.8470 136.0144
L124.9422 136.1096
" />
<path d="M124.9422 136.1096
L125.0375 136.3001
" />
<path d="M125.0375 136.3001
L125.0375 136.4906
" />
<path d="M125.0375 136.4906
L124.9422 136.7763
" />
<path d="M124.9422 136.7763
L123.7994 137.9192
" />
<path d="M123.7994 137.9192
L125.0375 137.9192
" />
<path d="M126.8470 135.9192
L125.8946 135.9192
" />
<path d="M125.8946 135.9192
L125.7994 136.8715
" />
<path d="M125.7994 136.8715
L125.8946 136.7763
" />
<path d="M125.8946 136.7763
L126.0851 136.6811
" />
<path d="M126.0851 136.6811
L126.5613 136.6811
" />
<path d="M126.5613 136.6811
L126.7518 136.7763
" />
<path d="M126.7518 136.7763
L126.8470 136.8715
" />
<path d="M126.8470 136.8715
L126.9422 137.0620
" />
<path d="M126.9422 137.0620
L126.9422 137.5382
" />
<path d="M126.9422 137.5382
L126.8470 137.7287
" />
<path d="M126.8470 137.7287
L126.7518 137.8239
" />
<path d="M126.7518 137.8239
L126.5613 137.9192
" />
<path d="M126.5613 137.9192
L126.0851 137.9192
" />
<path d="M126.0851 137.9192
L125.8946 137.8239
" />
<path d="M125.8946 137.8239
L125.7994 137.7287
" />
<path d="M128.1803 135.9192
L128.3708 135.9192
" />
<path d="M128.3708 135.9192
L128.5613 136.0144
" />
<path d="M128.5613 136.0144
L128.6565 136.1096
" />
<path d="M128.6565 136.1096
L128.7518 136.3001
" />
<path d="M128.7518 136.3001
L128.8470 136.6811
" />
<path d="M128.8470 136.6811
L128.8470 137.1573
" />
<path d="M128.8470 137.1573
L128.7518 137.5382
" />
<path d="M128.7518 137.5382
L128.6565 137.7287
" />
<path d="M128.6565 137.7287
L128.5613 137.8239
" />
<path d="M128.5613 137.8239
L128.3708 137.9192
" />
<path d="M128.3708 137.9192
L128.1803 137.9192
" />
<path d="M128.1803 137.9192
L127.9899 137.8239
" />
<path d="M127.9899 137.8239
L127.8946 137.7287
" />
<path d="M127.8946 137.7287
L127.7994 137.5382
" />
<path d="M127.7994 137.5382
L127.7041 137.1573
" />
<path d="M127.7041 137.1573
L127.7041 136.6811
" />
<path d="M127.7041 136.6811
L127.7994 136.3001
" />
<path d="M127.7994 136.3001
L127.8946 136.1096
" />
<path d="M127.8946 136.1096
L127.9899 136.0144
" />
<path d="M127.9899 136.0144
L128.1803 135.9192
" />
<path d="M129.6089 135.9192
L129.6089 136.3001
" />
<path d="M130.3708 135.9192
L130.3708 136.3001
" />
<path d="M133.3232 138.6811
L133.2280 138.5858
" />
<path d="M133.2280 138.5858
L133.0375 138.3001
" />
<path d="M133.0375 138.3001
L132.9422 138.1096
" />
<path d="M132.9422 138.1096
L132.8470 137.8239
" />
<path d="M132.8470 137.8239
L132.7518 137.3477
" />
<path d="M132.7518 137.3477
L132.7518 136.9668
" />
<path d="M132.7518 136.9668
L132.8470 136.4906
" />
<path d="M132.8470 136.4906
L132.9422 136.2049
" />
<path d="M132.9422 136.2049
L133.0375 136.0144
" />
<path d="M133.0375 136.0144
L133.2280 135.7287
" />
<path d="M133.2280 135.7287
L133.3232 135.6334
" />
<path d="M134.9422 136.5858
L134.9422 137.9192
" />
<path d="M134.4661 135.8239
L133.9899 137.2525
" />
<path d="M133.9899 137.2525
L135.2280 137.2525
" />
<path d="M137.5137 137.9192
L137.5137 135.9192
" />
<path d="M138.3708 137.9192
L138.3708 136.8715
" />
<path d="M138.3708 136.8715
L138.2756 136.6811
" />
<path d="M138.2756 136.6811
L138.0851 136.5858
" />
<path d="M138.0851 136.5858
L137.7994 136.5858
" />
<path d="M137.7994 136.5858
L137.6089 136.6811
" />
<path d="M137.6089 136.6811
L137.5137 136.7763
" />
<path d="M139.6089 137.9192
L139.4184 137.8239
" />
<path d="M139.4184 137.8239
L139.3232 137.7287
" />
<path d="M139.3232 137.7287
L139.2280 137.5382
" />
<path d="M139.2280 137.5382
L139.2280 136.9668
" />
<path d="M139.2280 136.9668
L139.3232 136.7763
" />
<path d="M139.3232 136.7763
L139.4184 136.6811
" />
<path d="M139.4184 136.6811
L139.6089 136.5858
" />
<path d="M139.6089 136.5858
L139.8946 136.5858
" />
<path d="M139.8946 136.5858
L140.0851 136.6811
" />
<path d="M140.0851 136.6811
L140.1803 136.7763
" />
<path d="M140.1803 136.7763
L140.2756 136.9668
" />
<path d="M140.2756 136.9668
L140.2756 137.5382
" />
<path d="M140.2756 137.5382
L140.1803 137.7287
" />
<path d="M140.1803 137.7287
L140.0851 137.8239
" />
<path d="M140.0851 137.8239
L139.8946 137.9192
" />
<path d="M139.8946 137.9192
L139.6089 137.9192
" />
<path d="M141.4184 137.9192
L141.2280 137.8239
" />
<path d="M141.2280 137.8239
L141.1327 137.6334
" />
<path d="M141.1327 137.6334
L141.1327 135.9192
" />
<path d="M142.9422 137.8239
L142.7518 137.9192
" />
<path d="M142.7518 137.9192
L142.3708 137.9192
" />
<path d="M142.3708 137.9192
L142.1803 137.8239
" />
<path d="M142.1803 137.8239
L142.0851 137.6334
" />
<path d="M142.0851 137.6334
L142.0851 136.8715
" />
<path d="M142.0851 136.8715
L142.1803 136.6811
" />
<path d="M142.1803 136.6811
L142.3708 136.5858
" />
<path d="M142.3708 136.5858
L142.7518 136.5858
" />
<path d="M142.7518 136.5858
L142.9422 136.6811
" />
<path d="M142.9422 136.6811
L143.0375 136.8715
" />
<path d="M143.0375 136.8715
L143.0375 137.0620
" />
<path d="M143.0375 137.0620
L142.0851 137.2525
" />
<path d="M143.7994 137.8239
L143.9899 137.9192
" />
<path d="M143.9899 137.9192
L144.3708 137.9192
" />
<path d="M144.3708 137.9192
L144.5613 137.8239
" />
<path d="M144.5613 137.8239
L144.6565 137.6334
" />
<path d="M144.6565 137.6334
L144.6565 137.5382
" />
<path d="M144.6565 137.5382
L144.5613 137.3477
" />
<path d="M144.5613 137.3477
L144.3708 137.2525
" />
<path d="M144.3708 137.2525
L144.0851 137.2525
" />
<path d="M144.0851 137.2525
L143.8946 137.1573
" />
<path d="M143.8946 137.1573
L143.7994 136.9668
" />
<path d="M143.7994 136.9668
L143.7994 136.8715
" />
<path d="M143.7994 136.8715
L143.8946 136.6811
" />
<path d="M143.8946 136.6811
L144.0851 136.5858
" />
<path d="M144.0851 136.5858
L144.3708 136.5858
" />
<path d="M144.3708 136.5858
L144.5613 136.6811
" />
<path d="M145.3232 138.6811
L145.4184 138.5858
" />
<path d="M145.4184 138.5858
L145.6089 138.3001
" />
<path d="M145.6089 138.3001
L145.7042 138.1096
" />
<path d="M145.7042 138.1096
L145.7994 137.8239
" />
<path d="M145.7994 137.8239
L145.8946 137.3477
" />
<path d="M145.8946 137.3477
L145.8946 136.9668
" />
<path d="M145.8946 136.9668
L145.7994 136.4906
" />
<path d="M145.7994 136.4906
L145.7042 136.2049
" />
<path d="M145.7042 136.2049
L145.6089 136.0144
" />
<path d="M145.6089 136.0144
L145.4184 135.7287
" />
<path d="M145.4184 135.7287
L145.3232 135.6334
" />
<path d="M148.9422 138.6811
L148.8470 138.5858
" />
<path d="M148.8470 138.5858
L148.6565 138.3001
" />
<path d="M148.6565 138.3001
L148.5613 138.1096
" />
<path d="M148.5613 138.1096
L148.4661 137.8239
" />
<path d="M148.4661 137.8239
L148.3708 137.3477
" />
<path d="M148.3708 137.3477
L148.3708 136.9668
" />
<path d="M148.3708 136.9668
L148.4661 136.4906
" />
<path d="M148.4661 136.4906
L148.5613 136.2049
" />
<path d="M148.5613 136.2049
L148.6565 136.0144
" />
<path d="M148.6565 136.0144
L148.8470 135.7287
" />
<path d="M148.8470 135.7287
L148.9422 135.6334
" />
<path d="M149.7041 136.5858
L149.7041 137.9192
" />
<path d="M149.7041 136.7763
L149.7994 136.6811
" />
<path d="M149.7994 136.6811
L149.9899 136.5858
" />
<path d="M149.9899 136.5858
L150.2756 136.5858
" />
<path d="M150.2756 136.5858
L150.4661 136.6811
" />
<path d="M150.4661 136.6811
L150.5613 136.8715
" />
<path d="M150.5613 136.8715
L150.5613 137.9192
" />
<path d="M151.7994 137.9192
L151.6089 137.8239
" />
<path d="M151.6089 137.8239
L151.5137 137.7287
" />
<path d="M151.5137 137.7287
L151.4184 137.5382
" />
<path d="M151.4184 137.5382
L151.4184 136.9668
" />
<path d="M151.4184 136.9668
L151.5137 136.7763
" />
<path d="M151.5137 136.7763
L151.6089 136.6811
" />
<path d="M151.6089 136.6811
L151.7994 136.5858
" />
<path d="M151.7994 136.5858
L152.0851 136.5858
" />
<path d="M152.0851 136.5858
L152.2756 136.6811
" />
<path d="M152.2756 136.6811
L152.3708 136.7763
" />
<path d="M152.3708 136.7763
L152.4661 136.9668
" />
<path d="M152.4661 136.9668
L152.4661 137.5382
" />
<path d="M152.4661 137.5382
L152.3708 137.7287
" />
<path d="M152.3708 137.7287
L152.2756 137.8239
" />
<path d="M152.2756 137.8239
L152.0851 137.9192
" />
<path d="M152.0851 137.9192
L151.7994 137.9192
" />
<path d="M153.0375 136.5858
L153.7994 136.5858
" />
<path d="M153.3232 135.9192
L153.3232 137.6334
" />
<path d="M153.3232 137.6334
L153.4184 137.8239
" />
<path d="M153.4184 137.8239
L153.6089 137.9192
" />
<path d="M153.6089 137.9192
L153.7994 137.9192
" />
<path d="M155.9899 136.5858
L155.9899 138.5858
" />
<path d="M155.9899 136.6811
L156.1803 136.5858
" />
<path d="M156.1803 136.5858
L156.5613 136.5858
" />
<path d="M156.5613 136.5858
L156.7518 136.6811
" />
<path d="M156.7518 136.6811
L156.8470 136.7763
" />
<path d="M156.8470 136.7763
L156.9422 136.9668
" />
<path d="M156.9422 136.9668
L156.9422 137.5382
" />
<path d="M156.9422 137.5382
L156.8470 137.7287
" />
<path d="M156.8470 137.7287
L156.7518 137.8239
" />
<path d="M156.7518 137.8239
L156.5613 137.9192
" />
<path d="M156.5613 137.9192
L156.1803 137.9192
" />
<path d="M156.1803 137.9192
L155.9899 137.8239
" />
<path d="M158.0851 137.9192
L157.8946 137.8239
" />
<path d="M157.8946 137.8239
L157.7994 137.6334
" />
<path d="M157.7994 137.6334
L157.7994 135.9192
" />
<path d="M159.7042 137.9192
L159.7042 136.8715
" />
<path d="M159.7042 136.8715
L159.6089 136.6811
" />
<path d="M159.6089 136.6811
L159.4184 136.5858
" />
<path d="M159.4184 136.5858
L159.0375 136.5858
" />
<path d="M159.0375 136.5858
L158.8470 136.6811
" />
<path d="M159.7042 137.8239
L159.5137 137.9192
" />
<path d="M159.5137 137.9192
L159.0375 137.9192
" />
<path d="M159.0375 137.9192
L158.8470 137.8239
" />
<path d="M158.8470 137.8239
L158.7518 137.6334
" />
<path d="M158.7518 137.6334
L158.7518 137.4430
" />
<path d="M158.7518 137.4430
L158.8470 137.2525
" />
<path d="M158.8470 137.2525
L159.0375 137.1573
" />
<path d="M159.0375 137.1573
L159.5137 137.1573
" />
<path d="M159.5137 137.1573
L159.7042 137.0620
" />
<path d="M160.3708 136.5858
L161.1327 136.5858
" />
<path d="M160.6565 135.9192
L160.6565 137.6334
" />
<path d="M160.6565 137.6334
L160.7518 137.8239
" />
<path d="M160.7518 137.8239
L160.9422 137.9192
" />
<path d="M160.9422 137.9192
L161.1327 137.9192
" />
<path d="M162.5613 137.8239
L162.3708 137.9192
" />
<path d="M162.3708 137.9192
L161.9899 137.9192
" />
<path d="M161.9899 137.9192
L161.7994 137.8239
" />
<path d="M161.7994 137.8239
L161.7042 137.6334
" />
<path d="M161.7042 137.6334
L161.7042 136.8715
" />
<path d="M161.7042 136.8715
L161.7994 136.6811
" />
<path d="M161.7994 136.6811
L161.9899 136.5858
" />
<path d="M161.9899 136.5858
L162.3708 136.5858
" />
<path d="M162.3708 136.5858
L162.5613 136.6811
" />
<path d="M162.5613 136.6811
L162.6565 136.8715
" />
<path d="M162.6565 136.8715
L162.6565 137.0620
" />
<path d="M162.6565 137.0620
L161.7042 137.2525
" />
<path d="M164.3708 137.9192
L164.3708 135.9192
" />
<path d="M164.3708 137.8239
L164.1803 137.9192
" />
<path d="M164.1803 137.9192
L163.7994 137.9192
" />
<path d="M163.7994 137.9192
L163.6089 137.8239
" />
<path d="M163.6089 137.8239
L163.5137 137.7287
" />
<path d="M163.5137 137.7287
L163.4184 137.5382
" />
<path d="M163.4184 137.5382
L163.4184 136.9668
" />
<path d="M163.4184 136.9668
L163.5137 136.7763
" />
<path d="M163.5137 136.7763
L163.6089 136.6811
" />
<path d="M163.6089 136.6811
L163.7994 136.5858
" />
<path d="M163.7994 136.5858
L164.1803 136.5858
" />
<path d="M164.1803 136.5858
L164.3708 136.6811
" />
<path d="M165.1327 138.6811
L165.2280 138.5858
" />
<path d="M165.2280 138.5858
L165.4184 138.3001
" />
<path d="M165.4184 138.3001
L165.5137 138.1096
" />
<path d="M165.5137 138.1096
L165.6089 137.8239
" />
<path d="M165.6089 137.8239
L165.7042 137.3477
" />
<path d="M165.7042 137.3477
L165.7042 136.9668
" />
<path d="M165.7042 136.9668
L165.6089 136.4906
" />
<path d="M165.6089 136.4906
L165.5137 136.2049
" />
<path d="M165.5137 136.2049
L165.4184 136.0144
" />
<path d="M165.4184 136.0144
L165.2280 135.7287
" />
<path d="M165.2280 135.7287
L165.1327 135.6334
" />
</g></g> 
</svg>
