<?xml version="1.0" standalone="no"?>
 <!DOCTYPE svg PUBLIC "-//W3C//DTD SVG 1.1//EN" 
 "http://www.w3.org/Graphics/SVG/1.1/DTD/svg11.dtd"> 
<svg
  xmlns:svg="http://www.w3.org/2000/svg"
  xmlns="http://www.w3.org/2000/svg"
  xmlns:xlink="http://www.w3.org/1999/xlink"
  version="1.1"
  width="431.8000mm" height="279.4000mm" viewBox="0.0000 0.0000 431.8000 279.4000">
<title>SVG Image created as mag-encoder-F_Silkscreen.svg date 2024/08/20 22:47:59 </title>
  <desc>Image generated by PCBNEW </desc>
<g style="fill:#000000; fill-opacity:1.0000;stroke:#000000; stroke-opacity:1.0000;
stroke-linecap:round; stroke-linejoin:round;"
 transform="translate(0 0) scale(1 1)">
</g>
<g style="fill:none; 
stroke:#000000; stroke-width:0.1270; stroke-opacity:1; 
stroke-linecap:round; stroke-linejoin:round;">
<g transform="rotate(-90.000000 231.1400 115.0620)">
<text x="231.1400" y="115.3795"
textLength="1.4938" font-size="0.8467" lengthAdjust="spacingAndGlyphs"
text-anchor="middle" opacity="0" stroke-opacity="0">D5</text>
</g>
<g class="stroked-text"><desc>D5</desc>
<path d="M231.4272 115.5307
L230.7922 115.5307
" />
<path d="M230.7922 115.5307
L230.7922 115.3795
" />
<path d="M230.7922 115.3795
L230.8224 115.2888
" />
<path d="M230.8224 115.2888
L230.8829 115.2283
" />
<path d="M230.8829 115.2283
L230.9433 115.1981
" />
<path d="M230.9433 115.1981
L231.0643 115.1678
" />
<path d="M231.0643 115.1678
L231.1550 115.1678
" />
<path d="M231.1550 115.1678
L231.2760 115.1981
" />
<path d="M231.2760 115.1981
L231.3364 115.2283
" />
<path d="M231.3364 115.2283
L231.3969 115.2888
" />
<path d="M231.3969 115.2888
L231.4272 115.3795
" />
<path d="M231.4272 115.3795
L231.4272 115.5307
" />
<path d="M230.7922 114.5933
L230.7922 114.8957
" />
<path d="M230.7922 114.8957
L231.0945 114.9259
" />
<path d="M231.0945 114.9259
L231.0643 114.8957
" />
<path d="M231.0643 114.8957
L231.0341 114.8352
" />
<path d="M231.0341 114.8352
L231.0341 114.6840
" />
<path d="M231.0341 114.6840
L231.0643 114.6235
" />
<path d="M231.0643 114.6235
L231.0945 114.5933
" />
<path d="M231.0945 114.5933
L231.1550 114.5631
" />
<path d="M231.1550 114.5631
L231.3062 114.5631
" />
<path d="M231.3062 114.5631
L231.3667 114.5933
" />
<path d="M231.3667 114.5933
L231.3969 114.6235
" />
<path d="M231.3969 114.6235
L231.4272 114.6840
" />
<path d="M231.4272 114.6840
L231.4272 114.8352
" />
<path d="M231.4272 114.8352
L231.3969 114.8957
" />
<path d="M231.3969 114.8957
L231.3667 114.9259
" />
</g><g transform="rotate(-90.000000 233.6800 113.1570)">
<text x="233.6800" y="113.4745"
textLength="2.2497" font-size="0.8467" lengthAdjust="spacingAndGlyphs"
text-anchor="middle" opacity="0" stroke-opacity="0">PWR</text>
</g>
<g class="stroked-text"><desc>PWR</desc>
<path d="M233.9672 114.0037
L233.3322 114.0037
" />
<path d="M233.3322 114.0037
L233.3322 113.7618
" />
<path d="M233.3322 113.7618
L233.3624 113.7013
" />
<path d="M233.3624 113.7013
L233.3926 113.6710
" />
<path d="M233.3926 113.6710
L233.4531 113.6408
" />
<path d="M233.4531 113.6408
L233.5438 113.6408
" />
<path d="M233.5438 113.6408
L233.6043 113.6710
" />
<path d="M233.6043 113.6710
L233.6345 113.7013
" />
<path d="M233.6345 113.7013
L233.6648 113.7618
" />
<path d="M233.6648 113.7618
L233.6648 114.0037
" />
<path d="M233.3322 113.4291
L233.9672 113.2780
" />
<path d="M233.9672 113.2780
L233.5136 113.1570
" />
<path d="M233.5136 113.1570
L233.9672 113.0360
" />
<path d="M233.9672 113.0360
L233.3322 112.8849
" />
<path d="M233.9672 112.2801
L233.6648 112.4918
" />
<path d="M233.9672 112.6430
L233.3322 112.6430
" />
<path d="M233.3322 112.6430
L233.3322 112.4010
" />
<path d="M233.3322 112.4010
L233.3624 112.3406
" />
<path d="M233.3624 112.3406
L233.3926 112.3103
" />
<path d="M233.3926 112.3103
L233.4531 112.2801
" />
<path d="M233.4531 112.2801
L233.5438 112.2801
" />
<path d="M233.5438 112.2801
L233.6043 112.3103
" />
<path d="M233.6043 112.3103
L233.6345 112.3406
" />
<path d="M233.6345 112.3406
L233.6648 112.4010
" />
<path d="M233.6648 112.4010
L233.6648 112.6430
" />
</g><g transform="rotate(-90.000000 231.1400 108.7120)">
<text x="231.1400" y="109.0295"
textLength="1.4938" font-size="0.8467" lengthAdjust="spacingAndGlyphs"
text-anchor="middle" opacity="0" stroke-opacity="0">D4</text>
</g>
<g class="stroked-text"><desc>D4</desc>
<path d="M231.4272 109.1807
L230.7922 109.1807
" />
<path d="M230.7922 109.1807
L230.7922 109.0295
" />
<path d="M230.7922 109.0295
L230.8224 108.9388
" />
<path d="M230.8224 108.9388
L230.8829 108.8783
" />
<path d="M230.8829 108.8783
L230.9433 108.8481
" />
<path d="M230.9433 108.8481
L231.0643 108.8178
" />
<path d="M231.0643 108.8178
L231.1550 108.8178
" />
<path d="M231.1550 108.8178
L231.2760 108.8481
" />
<path d="M231.2760 108.8481
L231.3364 108.8783
" />
<path d="M231.3364 108.8783
L231.3969 108.9388
" />
<path d="M231.3969 108.9388
L231.4272 109.0295
" />
<path d="M231.4272 109.0295
L231.4272 109.1807
" />
<path d="M231.0038 108.2735
L231.4272 108.2735
" />
<path d="M230.7619 108.4247
L231.2155 108.5759
" />
<path d="M231.2155 108.5759
L231.2155 108.1828
" />
</g><g transform="rotate(-90.000000 233.6800 109.2200)">
<text x="233.6800" y="109.5375"
textLength="2.5219" font-size="0.8467" lengthAdjust="spacingAndGlyphs"
text-anchor="middle" opacity="0" stroke-opacity="0">HIGH</text>
</g>
<g class="stroked-text"><desc>HIGH</desc>
<path d="M233.9672 110.2027
L233.3322 110.2027
" />
<path d="M233.6345 110.2027
L233.6345 109.8399
" />
<path d="M233.9672 109.8399
L233.3322 109.8399
" />
<path d="M233.9672 109.5375
L233.3322 109.5375
" />
<path d="M233.3624 108.9025
L233.3322 108.9630
" />
<path d="M233.3322 108.9630
L233.3322 109.0537
" />
<path d="M233.3322 109.0537
L233.3624 109.1444
" />
<path d="M233.3624 109.1444
L233.4229 109.2049
" />
<path d="M233.4229 109.2049
L233.4833 109.2351
" />
<path d="M233.4833 109.2351
L233.6043 109.2654
" />
<path d="M233.6043 109.2654
L233.6950 109.2654
" />
<path d="M233.6950 109.2654
L233.8160 109.2351
" />
<path d="M233.8160 109.2351
L233.8764 109.2049
" />
<path d="M233.8764 109.2049
L233.9369 109.1444
" />
<path d="M233.9369 109.1444
L233.9672 109.0537
" />
<path d="M233.9672 109.0537
L233.9672 108.9932
" />
<path d="M233.9672 108.9932
L233.9369 108.9025
" />
<path d="M233.9369 108.9025
L233.9067 108.8723
" />
<path d="M233.9067 108.8723
L233.6950 108.8723
" />
<path d="M233.6950 108.8723
L233.6950 108.9932
" />
<path d="M233.9672 108.6001
L233.3322 108.6001
" />
<path d="M233.6345 108.6001
L233.6345 108.2373
" />
<path d="M233.9672 108.2373
L233.3322 108.2373
" />
</g><text x="232.4100" y="100.0125"
textLength="1.4938" font-size="0.8467" lengthAdjust="spacingAndGlyphs"
text-anchor="middle" opacity="0" stroke-opacity="0">D2</text>
<g class="stroked-text"><desc>D2</desc>
<path d="M231.9413 99.9822
L231.9413 99.3472
" />
<path d="M231.9413 99.3472
L232.0925 99.3472
" />
<path d="M232.0925 99.3472
L232.1832 99.3774
" />
<path d="M232.1832 99.3774
L232.2437 99.4379
" />
<path d="M232.2437 99.4379
L232.2739 99.4983
" />
<path d="M232.2739 99.4983
L232.3042 99.6193
" />
<path d="M232.3042 99.6193
L232.3042 99.7100
" />
<path d="M232.3042 99.7100
L232.2739 99.8310
" />
<path d="M232.2739 99.8310
L232.2437 99.8914
" />
<path d="M232.2437 99.8914
L232.1832 99.9519
" />
<path d="M232.1832 99.9519
L232.0925 99.9822
" />
<path d="M232.0925 99.9822
L231.9413 99.9822
" />
<path d="M232.5461 99.4076
L232.5763 99.3774
" />
<path d="M232.5763 99.3774
L232.6368 99.3472
" />
<path d="M232.6368 99.3472
L232.7880 99.3472
" />
<path d="M232.7880 99.3472
L232.8485 99.3774
" />
<path d="M232.8485 99.3774
L232.8787 99.4076
" />
<path d="M232.8787 99.4076
L232.9089 99.4681
" />
<path d="M232.9089 99.4681
L232.9089 99.5286
" />
<path d="M232.9089 99.5286
L232.8787 99.6193
" />
<path d="M232.8787 99.6193
L232.5158 99.9822
" />
<path d="M232.5158 99.9822
L232.9089 99.9822
" />
</g><g transform="rotate(-90.000000 233.6800 101.4730)">
<text x="233.6800" y="101.7905"
textLength="2.1590" font-size="0.8467" lengthAdjust="spacingAndGlyphs"
text-anchor="middle" opacity="0" stroke-opacity="0">LOW</text>
</g>
<g class="stroked-text"><desc>LOW</desc>
<path d="M233.9672 101.9719
L233.9672 102.2743
" />
<path d="M233.9672 102.2743
L233.3322 102.2743
" />
<path d="M233.3322 101.6393
L233.3322 101.5184
" />
<path d="M233.3322 101.5184
L233.3624 101.4579
" />
<path d="M233.3624 101.4579
L233.4229 101.3974
" />
<path d="M233.4229 101.3974
L233.5438 101.3672
" />
<path d="M233.5438 101.3672
L233.7555 101.3672
" />
<path d="M233.7555 101.3672
L233.8764 101.3974
" />
<path d="M233.8764 101.3974
L233.9369 101.4579
" />
<path d="M233.9369 101.4579
L233.9672 101.5184
" />
<path d="M233.9672 101.5184
L233.9672 101.6393
" />
<path d="M233.9672 101.6393
L233.9369 101.6998
" />
<path d="M233.9369 101.6998
L233.8764 101.7603
" />
<path d="M233.8764 101.7603
L233.7555 101.7905
" />
<path d="M233.7555 101.7905
L233.5438 101.7905
" />
<path d="M233.5438 101.7905
L233.4229 101.7603
" />
<path d="M233.4229 101.7603
L233.3624 101.6998
" />
<path d="M233.3624 101.6998
L233.3322 101.6393
" />
<path d="M233.3322 101.1555
L233.9672 101.0043
" />
<path d="M233.9672 101.0043
L233.5136 100.8834
" />
<path d="M233.5136 100.8834
L233.9672 100.7624
" />
<path d="M233.9672 100.7624
L233.3322 100.6112
" />
</g><g transform="rotate(-90.000000 230.9800 105.3677)">
<text x="230.9800" y="105.6852"
textLength="1.4938" font-size="0.8467" lengthAdjust="spacingAndGlyphs"
text-anchor="middle" opacity="0" stroke-opacity="0">D3</text>
</g>
<g class="stroked-text"><desc>D3</desc>
<path d="M231.2672 105.8364
L230.6322 105.8364
" />
<path d="M230.6322 105.8364
L230.6322 105.6852
" />
<path d="M230.6322 105.6852
L230.6624 105.5945
" />
<path d="M230.6624 105.5945
L230.7229 105.5340
" />
<path d="M230.7229 105.5340
L230.7833 105.5037
" />
<path d="M230.7833 105.5037
L230.9043 105.4735
" />
<path d="M230.9043 105.4735
L230.9950 105.4735
" />
<path d="M230.9950 105.4735
L231.1160 105.5037
" />
<path d="M231.1160 105.5037
L231.1764 105.5340
" />
<path d="M231.1764 105.5340
L231.2369 105.5945
" />
<path d="M231.2369 105.5945
L231.2672 105.6852
" />
<path d="M231.2672 105.6852
L231.2672 105.8364
" />
<path d="M230.6322 105.2618
L230.6322 104.8687
" />
<path d="M230.6322 104.8687
L230.8741 105.0804
" />
<path d="M230.8741 105.0804
L230.8741 104.9897
" />
<path d="M230.8741 104.9897
L230.9043 104.9292
" />
<path d="M230.9043 104.9292
L230.9345 104.8990
" />
<path d="M230.9345 104.8990
L230.9950 104.8687
" />
<path d="M230.9950 104.8687
L231.1462 104.8687
" />
<path d="M231.1462 104.8687
L231.2067 104.8990
" />
<path d="M231.2067 104.8990
L231.2369 104.9292
" />
<path d="M231.2369 104.9292
L231.2672 104.9897
" />
<path d="M231.2672 104.9897
L231.2672 105.1711
" />
<path d="M231.2672 105.1711
L231.2369 105.2316
" />
<path d="M231.2369 105.2316
L231.2067 105.2618
" />
</g><g transform="rotate(-90.000000 233.6800 105.3677)">
<text x="233.6800" y="105.6852"
textLength="1.5542" font-size="0.8467" lengthAdjust="spacingAndGlyphs"
text-anchor="middle" opacity="0" stroke-opacity="0">OK</text>
</g>
<g class="stroked-text"><desc>OK</desc>
<path d="M233.3322 105.7456
L233.3322 105.6247
" />
<path d="M233.3322 105.6247
L233.3624 105.5642
" />
<path d="M233.3624 105.5642
L233.4229 105.5037
" />
<path d="M233.4229 105.5037
L233.5438 105.4735
" />
<path d="M233.5438 105.4735
L233.7555 105.4735
" />
<path d="M233.7555 105.4735
L233.8764 105.5037
" />
<path d="M233.8764 105.5037
L233.9369 105.5642
" />
<path d="M233.9369 105.5642
L233.9672 105.6247
" />
<path d="M233.9672 105.6247
L233.9672 105.7456
" />
<path d="M233.9672 105.7456
L233.9369 105.8061
" />
<path d="M233.9369 105.8061
L233.8764 105.8666
" />
<path d="M233.8764 105.8666
L233.7555 105.8968
" />
<path d="M233.7555 105.8968
L233.5438 105.8968
" />
<path d="M233.5438 105.8968
L233.4229 105.8666
" />
<path d="M233.4229 105.8666
L233.3624 105.8061
" />
<path d="M233.3624 105.8061
L233.3322 105.7456
" />
<path d="M233.9672 105.2014
L233.3322 105.2014
" />
<path d="M233.9672 104.8385
L233.6043 105.1106
" />
<path d="M233.3322 104.8385
L233.6950 105.2014
" />
</g><text x="228.8540" y="100.2665"
textLength="1.5240" font-size="0.8467" lengthAdjust="spacingAndGlyphs"
text-anchor="middle" opacity="0" stroke-opacity="0">U2</text>
<g class="stroked-text"><desc>U2</desc>
<path d="M228.3702 99.6012
L228.3702 100.1152
" />
<path d="M228.3702 100.1152
L228.4004 100.1757
" />
<path d="M228.4004 100.1757
L228.4307 100.2059
" />
<path d="M228.4307 100.2059
L228.4911 100.2362
" />
<path d="M228.4911 100.2362
L228.6121 100.2362
" />
<path d="M228.6121 100.2362
L228.6726 100.2059
" />
<path d="M228.6726 100.2059
L228.7028 100.1757
" />
<path d="M228.7028 100.1757
L228.7330 100.1152
" />
<path d="M228.7330 100.1152
L228.7330 99.6012
" />
<path d="M229.0052 99.6616
L229.0354 99.6314
" />
<path d="M229.0354 99.6314
L229.0959 99.6012
" />
<path d="M229.0959 99.6012
L229.2471 99.6012
" />
<path d="M229.2471 99.6012
L229.3076 99.6314
" />
<path d="M229.3076 99.6314
L229.3378 99.6616
" />
<path d="M229.3378 99.6616
L229.3680 99.7221
" />
<path d="M229.3680 99.7221
L229.3680 99.7826
" />
<path d="M229.3680 99.7826
L229.3378 99.8733
" />
<path d="M229.3378 99.8733
L228.9750 100.2362
" />
<path d="M228.9750 100.2362
L229.3680 100.2362
" />
</g><text x="227.0760" y="107.7595"
textLength="1.5240" font-size="0.8467" lengthAdjust="spacingAndGlyphs"
text-anchor="middle" opacity="0" stroke-opacity="0">U1</text>
<g class="stroked-text"><desc>U1</desc>
<path d="M226.5922 107.0942
L226.5922 107.6082
" />
<path d="M226.5922 107.6082
L226.6224 107.6687
" />
<path d="M226.6224 107.6687
L226.6527 107.6989
" />
<path d="M226.6527 107.6989
L226.7131 107.7292
" />
<path d="M226.7131 107.7292
L226.8341 107.7292
" />
<path d="M226.8341 107.7292
L226.8946 107.6989
" />
<path d="M226.8946 107.6989
L226.9248 107.6687
" />
<path d="M226.9248 107.6687
L226.9550 107.6082
" />
<path d="M226.9550 107.6082
L226.9550 107.0942
" />
<path d="M227.5900 107.7292
L227.2272 107.7292
" />
<path d="M227.4086 107.7292
L227.4086 107.0942
" />
<path d="M227.4086 107.0942
L227.3481 107.1849
" />
<path d="M227.3481 107.1849
L227.2877 107.2453
" />
<path d="M227.2877 107.2453
L227.2272 107.2756
" />
</g><text x="218.1860" y="116.7765"
textLength="1.3426" font-size="0.8467" lengthAdjust="spacingAndGlyphs"
text-anchor="middle" opacity="0" stroke-opacity="0">J1</text>
<g class="stroked-text"><desc>J1</desc>
<path d="M217.9743 116.1112
L217.9743 116.5647
" />
<path d="M217.9743 116.5647
L217.9441 116.6554
" />
<path d="M217.9441 116.6554
L217.8836 116.7159
" />
<path d="M217.8836 116.7159
L217.7929 116.7462
" />
<path d="M217.7929 116.7462
L217.7324 116.7462
" />
<path d="M218.6093 116.7462
L218.2465 116.7462
" />
<path d="M218.4279 116.7462
L218.4279 116.1112
" />
<path d="M218.4279 116.1112
L218.3674 116.2019
" />
<path d="M218.3674 116.2019
L218.3070 116.2623
" />
<path d="M218.3070 116.2623
L218.2465 116.2926
" />
</g><text x="228.9810" y="114.9985"
textLength="1.4938" font-size="0.8467" lengthAdjust="spacingAndGlyphs"
text-anchor="middle" opacity="0" stroke-opacity="0">D1</text>
<g class="stroked-text"><desc>D1</desc>
<path d="M228.5123 114.9682
L228.5123 114.3332
" />
<path d="M228.5123 114.3332
L228.6635 114.3332
" />
<path d="M228.6635 114.3332
L228.7542 114.3634
" />
<path d="M228.7542 114.3634
L228.8147 114.4239
" />
<path d="M228.8147 114.4239
L228.8449 114.4843
" />
<path d="M228.8449 114.4843
L228.8752 114.6053
" />
<path d="M228.8752 114.6053
L228.8752 114.6960
" />
<path d="M228.8752 114.6960
L228.8449 114.8170
" />
<path d="M228.8449 114.8170
L228.8147 114.8774
" />
<path d="M228.8147 114.8774
L228.7542 114.9379
" />
<path d="M228.7542 114.9379
L228.6635 114.9682
" />
<path d="M228.6635 114.9682
L228.5123 114.9682
" />
<path d="M229.4799 114.9682
L229.1171 114.9682
" />
<path d="M229.2985 114.9682
L229.2985 114.3332
" />
<path d="M229.2985 114.3332
L229.2380 114.4239
" />
<path d="M229.2380 114.4239
L229.1775 114.4843
" />
<path d="M229.1775 114.4843
L229.1171 114.5146
" />
</g><text x="227.3300" y="105.3465"
textLength="1.4938" font-size="0.8467" lengthAdjust="spacingAndGlyphs"
text-anchor="middle" opacity="0" stroke-opacity="0">C1</text>
<g class="stroked-text"><desc>C1</desc>
<path d="M227.2242 105.2557
L227.1939 105.2859
" />
<path d="M227.1939 105.2859
L227.1032 105.3162
" />
<path d="M227.1032 105.3162
L227.0427 105.3162
" />
<path d="M227.0427 105.3162
L226.9520 105.2859
" />
<path d="M226.9520 105.2859
L226.8915 105.2254
" />
<path d="M226.8915 105.2254
L226.8613 105.1650
" />
<path d="M226.8613 105.1650
L226.8311 105.0440
" />
<path d="M226.8311 105.0440
L226.8311 104.9533
" />
<path d="M226.8311 104.9533
L226.8613 104.8323
" />
<path d="M226.8613 104.8323
L226.8915 104.7719
" />
<path d="M226.8915 104.7719
L226.9520 104.7114
" />
<path d="M226.9520 104.7114
L227.0427 104.6812
" />
<path d="M227.0427 104.6812
L227.1032 104.6812
" />
<path d="M227.1032 104.6812
L227.1939 104.7114
" />
<path d="M227.1939 104.7114
L227.2242 104.7416
" />
<path d="M227.8289 105.3162
L227.4661 105.3162
" />
<path d="M227.6475 105.3162
L227.6475 104.6812
" />
<path d="M227.6475 104.6812
L227.5870 104.7719
" />
<path d="M227.5870 104.7719
L227.5265 104.8323
" />
<path d="M227.5265 104.8323
L227.4661 104.8626
" />
</g><text x="227.0760" y="111.4425"
textLength="1.4938" font-size="0.8467" lengthAdjust="spacingAndGlyphs"
text-anchor="middle" opacity="0" stroke-opacity="0">C2</text>
<g class="stroked-text"><desc>C2</desc>
<path d="M226.9702 111.3517
L226.9399 111.3819
" />
<path d="M226.9399 111.3819
L226.8492 111.4122
" />
<path d="M226.8492 111.4122
L226.7887 111.4122
" />
<path d="M226.7887 111.4122
L226.6980 111.3819
" />
<path d="M226.6980 111.3819
L226.6375 111.3214
" />
<path d="M226.6375 111.3214
L226.6073 111.2610
" />
<path d="M226.6073 111.2610
L226.5771 111.1400
" />
<path d="M226.5771 111.1400
L226.5771 111.0493
" />
<path d="M226.5771 111.0493
L226.6073 110.9283
" />
<path d="M226.6073 110.9283
L226.6375 110.8679
" />
<path d="M226.6375 110.8679
L226.6980 110.8074
" />
<path d="M226.6980 110.8074
L226.7887 110.7772
" />
<path d="M226.7887 110.7772
L226.8492 110.7772
" />
<path d="M226.8492 110.7772
L226.9399 110.8074
" />
<path d="M226.9399 110.8074
L226.9702 110.8376
" />
<path d="M227.2121 110.8376
L227.2423 110.8074
" />
<path d="M227.2423 110.8074
L227.3028 110.7772
" />
<path d="M227.3028 110.7772
L227.4540 110.7772
" />
<path d="M227.4540 110.7772
L227.5145 110.8074
" />
<path d="M227.5145 110.8074
L227.5447 110.8376
" />
<path d="M227.5447 110.8376
L227.5749 110.8981
" />
<path d="M227.5749 110.8981
L227.5749 110.9586
" />
<path d="M227.5749 110.9586
L227.5447 111.0493
" />
<path d="M227.5447 111.0493
L227.1818 111.4122
" />
<path d="M227.1818 111.4122
L227.5749 111.4122
" />
</g></g>
<g style="fill:none; 
stroke:#000000; stroke-width:0.1200; stroke-opacity:1; 
stroke-linecap:round; stroke-linejoin:round;">
<path d="M231.6750 112.3570
L231.6750 114.6420
" />
<path d="M233.1450 114.6420
L233.1450 112.3570
" />
<path d="M231.6750 114.6420
L233.1450 114.6420
" />
<path d="M233.1450 107.7773
L231.6750 107.7773
" />
<path d="M231.6750 107.7773
L231.6750 110.0623
" />
<path d="M233.1450 110.0623
L233.1450 107.7773
" />
<path d="M231.6750 102.9580
L233.1450 102.9580
" />
<path d="M233.1450 102.9580
L233.1450 100.6730
" />
<path d="M231.6750 100.6730
L231.6750 102.9580
" />
<path d="M231.6750 106.8527
L233.1450 106.8527
" />
<path d="M233.1450 106.8527
L233.1450 104.5677
" />
<path d="M231.6750 104.5677
L231.6750 106.8527
" />
<path d="M230.4140 102.3620
L230.4140 101.5620
" />
<path d="M230.4140 102.3620
L230.4140 103.1620
" />
<path d="M227.2940 102.3620
L227.2940 101.5620
" />
<path d="M227.2940 102.3620
L227.2940 103.1620
" />
<path style="fill:#000000; fill-opacity:1.0000; 
stroke:#000000; stroke-width:0.1200; stroke-opacity:1; 
stroke-linecap:round; stroke-linejoin:round;fill-rule:evenodd;"
d="M 230.6940,101.3020
230.3640,101.0620
230.6940,100.8220
Z" /> 
</g>
<g style="fill:none; 
stroke:#000000; stroke-width:0.1200; stroke-opacity:1; 
stroke-linecap:round; stroke-linejoin:round;">
<path d="M228.6000 110.1450
L229.2500 110.1450
" />
<path d="M228.6000 110.1450
L227.9500 110.1450
" />
<path d="M228.6000 107.0250
L229.2500 107.0250
" />
<path d="M228.6000 107.0250
L227.9500 107.0250
" />
<path style="fill:#000000; fill-opacity:1.0000; 
stroke:#000000; stroke-width:0.1200; stroke-opacity:1; 
stroke-linecap:round; stroke-linejoin:round;fill-rule:evenodd;"
d="M 230.0025,110.4250
229.5225,110.4250
229.7625,110.0950
Z" /> 
</g>
<g style="fill:none; 
stroke:#000000; stroke-width:0.1000; stroke-opacity:1; 
stroke-linecap:round; stroke-linejoin:round;">
<path d="M226.1450 98.9400
L226.1450 115.6900
" />
<path d="M207.6450 98.9400
L226.1450 98.9400
" />
<path d="M207.6450 98.9400
L207.6450 115.6900
" />
<path d="M207.6450 115.6900
L226.1450 115.6900
" />
</g>
<g style="fill:none; 
stroke:#000000; stroke-width:0.1200; stroke-opacity:1; 
stroke-linecap:round; stroke-linejoin:round;">
<path d="M226.7710 112.1570
L226.7710 114.1570
" />
<path d="M226.7710 112.1570
L230.6310 112.1570
" />
<path d="M226.7710 114.1570
L230.6310 114.1570
" />
<path d="M228.7406 106.5550
L228.4594 106.5550
" />
<path d="M228.7406 105.5350
L228.4594 105.5350
" />
<path d="M229.1960 111.6350
L229.4772 111.6350
" />
<path d="M229.1960 110.6150
L229.4772 110.6150
" />
</g>
<g style="fill:#000000; fill-opacity:1.0000; stroke:none;">
<circle cx="220.9800" cy="119.6340" r="1.6000" /> 
</g>
<g style="fill:#000000; fill-opacity:1.0000; stroke:none;">
<circle cx="220.9800" cy="94.9960" r="1.6000" /> 
<path style="fill:#000000; fill-opacity:1.0000; stroke:none;fill-rule:evenodd;"
d="M 232.1538,112.8070
232.0700,112.7903
231.9991,112.7429
231.9517,112.6720
231.9350,112.5882
231.9350,112.1507
231.9517,112.0670
231.9991,111.9961
232.0700,111.9487
232.1538,111.9320
232.6662,111.9320
232.7500,111.9487
232.8209,111.9961
232.8683,112.0670
232.8850,112.1507
232.8850,112.5882
232.8683,112.6720
232.8209,112.7429
232.7500,112.7903
232.6662,112.8070
Z" /> 
<path style="fill:#000000; fill-opacity:1.0000; stroke:none;fill-rule:evenodd;"
d="M 232.1538,114.3820
232.0700,114.3653
231.9991,114.3179
231.9517,114.2470
231.9350,114.1632
231.9350,113.7257
231.9517,113.6420
231.9991,113.5711
232.0700,113.5237
232.1538,113.5070
232.6662,113.5070
232.7500,113.5237
232.8209,113.5711
232.8683,113.6420
232.8850,113.7257
232.8850,114.1632
232.8683,114.2470
232.8209,114.3179
232.7500,114.3653
232.6662,114.3820
Z" /> 
<path style="fill:#000000; fill-opacity:1.0000; stroke:none;fill-rule:evenodd;"
d="M 232.6662,108.0373
232.7500,108.0540
232.8209,108.1014
232.8683,108.1724
232.8850,108.2561
232.8850,108.6936
232.8683,108.7773
232.8209,108.8483
232.7500,108.8957
232.6662,108.9123
232.1538,108.9123
232.0700,108.8957
231.9991,108.8483
231.9517,108.7773
231.9350,108.6936
231.9350,108.2561
231.9517,108.1724
231.9991,108.1014
232.0700,108.0540
232.1538,108.0373
Z" /> 
<path style="fill:#000000; fill-opacity:1.0000; stroke:none;fill-rule:evenodd;"
d="M 232.6662,109.6123
232.7500,109.6290
232.8209,109.6764
232.8683,109.7474
232.8850,109.8311
232.8850,110.2686
232.8683,110.3523
232.8209,110.4233
232.7500,110.4707
232.6662,110.4873
232.1538,110.4873
232.0700,110.4707
231.9991,110.4233
231.9517,110.3523
231.9350,110.2686
231.9350,109.8311
231.9517,109.7474
231.9991,109.6764
232.0700,109.6290
232.1538,109.6123
Z" /> 
<path style="fill:#000000; fill-opacity:1.0000; stroke:none;fill-rule:evenodd;"
d="M 232.1538,102.6980
232.0700,102.6813
231.9991,102.6339
231.9517,102.5630
231.9350,102.4792
231.9350,102.0417
231.9517,101.9580
231.9991,101.8871
232.0700,101.8397
232.1538,101.8230
232.6662,101.8230
232.7500,101.8397
232.8209,101.8871
232.8683,101.9580
232.8850,102.0417
232.8850,102.4792
232.8683,102.5630
232.8209,102.6339
232.7500,102.6813
232.6662,102.6980
Z" /> 
<path style="fill:#000000; fill-opacity:1.0000; stroke:none;fill-rule:evenodd;"
d="M 232.1538,101.1230
232.0700,101.1063
231.9991,101.0589
231.9517,100.9880
231.9350,100.9042
231.9350,100.4667
231.9517,100.3830
231.9991,100.3121
232.0700,100.2647
232.1538,100.2480
232.6662,100.2480
232.7500,100.2647
232.8209,100.3121
232.8683,100.3830
232.8850,100.4667
232.8850,100.9042
232.8683,100.9880
232.8209,101.0589
232.7500,101.1063
232.6662,101.1230
Z" /> 
<path style="fill:#000000; fill-opacity:1.0000; stroke:none;fill-rule:evenodd;"
d="M 232.1538,106.5927
232.0700,106.5760
231.9991,106.5286
231.9517,106.4576
231.9350,106.3739
231.9350,105.9364
231.9517,105.8527
231.9991,105.7817
232.0700,105.7343
232.1538,105.7177
232.6662,105.7177
232.7500,105.7343
232.8209,105.7817
232.8683,105.8527
232.8850,105.9364
232.8850,106.3739
232.8683,106.4576
232.8209,106.5286
232.7500,106.5760
232.6662,106.5927
Z" /> 
<path style="fill:#000000; fill-opacity:1.0000; stroke:none;fill-rule:evenodd;"
d="M 232.1538,105.0177
232.0700,105.0010
231.9991,104.9536
231.9517,104.8826
231.9350,104.7989
231.9350,104.3614
231.9517,104.2777
231.9991,104.2067
232.0700,104.1593
232.1538,104.1427
232.6662,104.1427
232.7500,104.1593
232.8209,104.2067
232.8683,104.2777
232.8850,104.3614
232.8850,104.7989
232.8683,104.8826
232.8209,104.9536
232.7500,105.0010
232.6662,105.0177
Z" /> 
<path style="fill:#000000; fill-opacity:1.0000; stroke:none;fill-rule:evenodd;"
d="M 229.9540,100.5620
230.0114,100.5734
230.0601,100.6059
230.0926,100.6546
230.1040,100.7120
230.1040,101.7370
230.0926,101.7944
230.0601,101.8431
230.0114,101.8756
229.9540,101.8870
229.6540,101.8870
229.5966,101.8756
229.5479,101.8431
229.5154,101.7944
229.5040,101.7370
229.5040,100.7120
229.5154,100.6546
229.5479,100.6059
229.5966,100.5734
229.6540,100.5620
Z" /> 
<path style="fill:#000000; fill-opacity:1.0000; stroke:none;fill-rule:evenodd;"
d="M 229.0040,100.5620
229.0614,100.5734
229.1101,100.6059
229.1426,100.6546
229.1540,100.7120
229.1540,101.7370
229.1426,101.7944
229.1101,101.8431
229.0614,101.8756
229.0040,101.8870
228.7040,101.8870
228.6466,101.8756
228.5979,101.8431
228.5654,101.7944
228.5540,101.7370
228.5540,100.7120
228.5654,100.6546
228.5979,100.6059
228.6466,100.5734
228.7040,100.5620
Z" /> 
<path style="fill:#000000; fill-opacity:1.0000; stroke:none;fill-rule:evenodd;"
d="M 228.0540,100.5620
228.1114,100.5734
228.1601,100.6059
228.1926,100.6546
228.2040,100.7120
228.2040,101.7370
228.1926,101.7944
228.1601,101.8431
228.1114,101.8756
228.0540,101.8870
227.7540,101.8870
227.6966,101.8756
227.6479,101.8431
227.6154,101.7944
227.6040,101.7370
227.6040,100.7120
227.6154,100.6546
227.6479,100.6059
227.6966,100.5734
227.7540,100.5620
Z" /> 
<path style="fill:#000000; fill-opacity:1.0000; stroke:none;fill-rule:evenodd;"
d="M 228.0540,102.8370
228.1114,102.8484
228.1601,102.8809
228.1926,102.9296
228.2040,102.9870
228.2040,104.0120
228.1926,104.0694
228.1601,104.1181
228.1114,104.1506
228.0540,104.1620
227.7540,104.1620
227.6966,104.1506
227.6479,104.1181
227.6154,104.0694
227.6040,104.0120
227.6040,102.9870
227.6154,102.9296
227.6479,102.8809
227.6966,102.8484
227.7540,102.8370
Z" /> 
<path style="fill:#000000; fill-opacity:1.0000; stroke:none;fill-rule:evenodd;"
d="M 229.9540,102.8370
230.0114,102.8484
230.0601,102.8809
230.0926,102.9296
230.1040,102.9870
230.1040,104.0120
230.0926,104.0694
230.0601,104.1181
230.0114,104.1506
229.9540,104.1620
229.6540,104.1620
229.5966,104.1506
229.5479,104.1181
229.5154,104.0694
229.5040,104.0120
229.5040,102.9870
229.5154,102.9296
229.5479,102.8809
229.5966,102.8484
229.6540,102.8370
Z" /> 
<path style="fill:#000000; fill-opacity:1.0000; stroke:none;fill-rule:evenodd;"
d="M 230.2750,109.6850
230.2636,109.7424
230.2311,109.7911
230.1824,109.8236
230.1250,109.8350
228.9500,109.8350
228.8926,109.8236
228.8439,109.7911
228.8114,109.7424
228.8000,109.6850
228.8000,109.3850
228.8114,109.3276
228.8439,109.2789
228.8926,109.2464
228.9500,109.2350
230.1250,109.2350
230.1824,109.2464
230.2311,109.2789
230.2636,109.3276
230.2750,109.3850
Z" /> 
<path style="fill:#000000; fill-opacity:1.0000; stroke:none;fill-rule:evenodd;"
d="M 230.2750,107.7850
230.2636,107.8424
230.2311,107.8911
230.1824,107.9236
230.1250,107.9350
228.9500,107.9350
228.8926,107.9236
228.8439,107.8911
228.8114,107.8424
228.8000,107.7850
228.8000,107.4850
228.8114,107.4276
228.8439,107.3789
228.8926,107.3464
228.9500,107.3350
230.1250,107.3350
230.1824,107.3464
230.2311,107.3789
230.2636,107.4276
230.2750,107.4850
Z" /> 
<path style="fill:#000000; fill-opacity:1.0000; stroke:none;fill-rule:evenodd;"
d="M 228.4000,108.7350
228.3886,108.7924
228.3561,108.8411
228.3074,108.8736
228.2500,108.8850
227.0750,108.8850
227.0176,108.8736
226.9689,108.8411
226.9364,108.7924
226.9250,108.7350
226.9250,108.4350
226.9364,108.3776
226.9689,108.3289
227.0176,108.2964
227.0750,108.2850
228.2500,108.2850
228.3074,108.2964
228.3561,108.3289
228.3886,108.3776
228.4000,108.4350
Z" /> 
</g>
<g style="fill:#000000; fill-opacity:1.0000; stroke:none;">
<circle cx="211.9450" cy="100.8350" r="1.7000" /> 
</g>
<g style="fill:#000000; fill-opacity:1.0000; stroke:none;">
<circle cx="211.9450" cy="113.7950" r="1.7000" /> 
<path style="fill:#000000; fill-opacity:1.0000; stroke:none;fill-rule:evenodd;"
d="M 225.1787,111.5700
225.2251,111.5792
225.2645,111.6055
225.2908,111.6449
225.3000,111.6913
225.3000,113.0987
225.2908,113.1451
225.2645,113.1845
225.2251,113.2108
225.1787,113.2200
220.0913,113.2200
220.0449,113.2108
220.0055,113.1845
219.9792,113.1451
219.9700,113.0987
219.9700,111.6913
219.9792,111.6449
220.0055,111.6055
220.0449,111.5792
220.0913,111.5700
Z" /> 
<path style="fill:#000000; fill-opacity:1.0000; stroke:none;fill-rule:evenodd;"
d="M 225.1787,109.0300
225.2251,109.0392
225.2645,109.0655
225.2908,109.1049
225.3000,109.1513
225.3000,110.5587
225.2908,110.6051
225.2645,110.6445
225.2251,110.6708
225.1787,110.6800
220.0913,110.6800
220.0449,110.6708
220.0055,110.6445
219.9792,110.6051
219.9700,110.5587
219.9700,109.1513
219.9792,109.1049
220.0055,109.0655
220.0449,109.0392
220.0913,109.0300
Z" /> 
<path style="fill:#000000; fill-opacity:1.0000; stroke:none;fill-rule:evenodd;"
d="M 225.1787,106.4900
225.2251,106.4992
225.2645,106.5255
225.2908,106.5649
225.3000,106.6113
225.3000,108.0187
225.2908,108.0651
225.2645,108.1045
225.2251,108.1308
225.1787,108.1400
220.0913,108.1400
220.0449,108.1308
220.0055,108.1045
219.9792,108.0651
219.9700,108.0187
219.9700,106.6113
219.9792,106.5649
220.0055,106.5255
220.0449,106.4992
220.0913,106.4900
Z" /> 
<path style="fill:#000000; fill-opacity:1.0000; stroke:none;fill-rule:evenodd;"
d="M 225.1787,103.9500
225.2251,103.9592
225.2645,103.9855
225.2908,104.0249
225.3000,104.0713
225.3000,105.4787
225.2908,105.5251
225.2645,105.5645
225.2251,105.5908
225.1787,105.6000
220.0913,105.6000
220.0449,105.5908
220.0055,105.5645
219.9792,105.5251
219.9700,105.4787
219.9700,104.0713
219.9792,104.0249
220.0055,103.9855
220.0449,103.9592
220.0913,103.9500
Z" /> 
<path style="fill:#000000; fill-opacity:1.0000; stroke:none;fill-rule:evenodd;"
d="M 225.1787,101.4100
225.2251,101.4192
225.2645,101.4455
225.2908,101.4849
225.3000,101.5313
225.3000,102.9387
225.2908,102.9851
225.2645,103.0245
225.2251,103.0508
225.1787,103.0600
220.0913,103.0600
220.0449,103.0508
220.0055,103.0245
219.9792,102.9851
219.9700,102.9387
219.9700,101.5313
219.9792,101.4849
220.0055,101.4455
220.0449,101.4192
220.0913,101.4100
Z" /> 
<path style="fill:#000000; fill-opacity:1.0000; stroke:none;fill-rule:evenodd;"
d="M 227.0310,112.8570
227.0500,112.7613
227.1042,112.6802
227.1853,112.6260
227.2810,112.6070
227.8810,112.6070
227.9767,112.6260
228.0578,112.6802
228.1120,112.7613
228.1310,112.8570
228.1310,113.4570
228.1120,113.5527
228.0578,113.6338
227.9767,113.6880
227.8810,113.7070
227.2810,113.7070
227.1853,113.6880
227.1042,113.6338
227.0500,113.5527
227.0310,113.4570
Z" /> 
<path style="fill:#000000; fill-opacity:1.0000; stroke:none;fill-rule:evenodd;"
d="M 229.8310,112.8570
229.8500,112.7613
229.9042,112.6802
229.9853,112.6260
230.0810,112.6070
230.6810,112.6070
230.7767,112.6260
230.8578,112.6802
230.9120,112.7613
230.9310,112.8570
230.9310,113.4570
230.9120,113.5527
230.8578,113.6338
230.7767,113.6880
230.6810,113.7070
230.0810,113.7070
229.9853,113.6880
229.9042,113.6338
229.8500,113.5527
229.8310,113.4570
Z" /> 
<path style="fill:#000000; fill-opacity:1.0000; stroke:none;fill-rule:evenodd;"
d="M 229.8250,106.2950
229.8079,106.3811
229.7591,106.4541
229.6861,106.5029
229.6000,106.5200
229.1500,106.5200
229.0639,106.5029
228.9909,106.4541
228.9421,106.3811
228.9250,106.2950
228.9250,105.7950
228.9421,105.7089
228.9909,105.6359
229.0639,105.5871
229.1500,105.5700
229.6000,105.5700
229.6861,105.5871
229.7591,105.6359
229.8079,105.7089
229.8250,105.7950
Z" /> 
<path style="fill:#000000; fill-opacity:1.0000; stroke:none;fill-rule:evenodd;"
d="M 228.2750,106.2950
228.2579,106.3811
228.2091,106.4541
228.1361,106.5029
228.0500,106.5200
227.6000,106.5200
227.5139,106.5029
227.4409,106.4541
227.3921,106.3811
227.3750,106.2950
227.3750,105.7950
227.3921,105.7089
227.4409,105.6359
227.5139,105.5871
227.6000,105.5700
228.0500,105.5700
228.1361,105.5871
228.2091,105.6359
228.2579,105.7089
228.2750,105.7950
Z" /> 
<path style="fill:#000000; fill-opacity:1.0000; stroke:none;fill-rule:evenodd;"
d="M 229.6616,110.8750
229.6787,110.7889
229.7275,110.7159
229.8005,110.6671
229.8866,110.6500
230.3366,110.6500
230.4227,110.6671
230.4957,110.7159
230.5445,110.7889
230.5616,110.8750
230.5616,111.3750
230.5445,111.4611
230.4957,111.5341
230.4227,111.5829
230.3366,111.6000
229.8866,111.6000
229.8005,111.5829
229.7275,111.5341
229.6787,111.4611
229.6616,111.3750
Z" /> 
<path style="fill:#000000; fill-opacity:1.0000; stroke:none;fill-rule:evenodd;"
d="M 228.1116,110.8750
228.1287,110.7889
228.1775,110.7159
228.2505,110.6671
228.3366,110.6500
228.7866,110.6500
228.8727,110.6671
228.9457,110.7159
228.9945,110.7889
229.0116,110.8750
229.0116,111.3750
228.9945,111.4611
228.9457,111.5341
228.8727,111.5829
228.7866,111.6000
228.3366,111.6000
228.2505,111.5829
228.1775,111.5341
228.1287,111.4611
228.1116,111.3750
Z" /> 
</g>
<g style="fill:none; 
stroke:#000000; stroke-width:0.0500; stroke-opacity:1; 
stroke-linecap:round; stroke-linejoin:round;">
<path d="M234.3150 99.0600 A0.6350 0.6350 0.0 0 0 233.6800 98.4250" />
<path d="M233.6800 116.2050 A0.6350 0.6350 0.0 0 0 234.3150 115.5700" />
<path d="M208.2800 98.4250 A0.6350 0.6350 0.0 0 0 207.6450 99.0600" />
<path d="M207.6450 115.5700 A0.6350 0.6350 0.0 0 0 208.2800 116.2050" />
<path d="M217.5510 120.6500 A2.5400 2.5400 0.0 0 0 220.0910 123.1900" />
<path d="M221.8690 123.1900 A2.5400 2.5400 0.0 0 0 224.4090 120.6500" />
<path d="M226.9490 116.2050 A2.5400 2.5400 0.0 0 0 224.4090 118.7450" />
<path d="M217.5510 118.7450 A2.5400 2.5400 0.0 0 0 215.0110 116.2050" />
<path d="M224.4090 93.9800 A2.5400 2.5400 0.0 0 0 221.8690 91.4400" />
<path d="M224.4090 95.8850 A2.5400 2.5400 0.0 0 0 226.9490 98.4250" />
<path d="M220.0910 91.4400 A2.5400 2.5400 0.0 0 0 217.5510 93.9800" />
<path d="M215.0110 98.4250 A2.5400 2.5400 0.0 0 0 217.5510 95.8850" />
<path d="M226.9490 98.4250
L233.6800 98.4250
" />
<path d="M221.8690 91.4400
L220.0910 91.4400
" />
<path d="M224.4090 95.8850
L224.4090 93.9800
" />
<path d="M217.5510 93.9800
L217.5510 95.8850
" />
<path d="M226.9490 116.2050
L233.6800 116.2050
" />
<path d="M224.4090 120.6500
L224.4090 118.7450
" />
<path d="M220.0910 123.1900
L221.8690 123.1900
" />
<path d="M217.5510 118.7450
L217.5510 120.6500
" />
<path d="M215.0110 98.4250
L208.2800 98.4250
" />
<path d="M234.3150 115.5700
L234.3150 99.0600
" />
<path d="M208.2800 116.2050
L215.0110 116.2050
" />
<path d="M207.6450 99.0600
L207.6450 115.5700
" />
</g> 
</svg>
