<?xml version="1.0" standalone="no"?>
 <!DOCTYPE svg PUBLIC "-//W3C//DTD SVG 1.1//EN" 
 "http://www.w3.org/Graphics/SVG/1.1/DTD/svg11.dtd"> 
<svg
  xmlns:svg="http://www.w3.org/2000/svg"
  xmlns="http://www.w3.org/2000/svg"
  xmlns:xlink="http://www.w3.org/1999/xlink"
  version="1.1"
  width="431.8000mm" height="279.4000mm" viewBox="0.0000 0.0000 431.8000 279.4000">
<title>SVG Image created as NX-J401-Adapter-B_Fab.svg date 2023/11/18 19:09:03 </title>
  <desc>Image generated by PCBNEW </desc>
<g style="fill:#000000; fill-opacity:1.0000;stroke:#000000; stroke-opacity:1.0000;
stroke-linecap:round; stroke-linejoin:round;"
 transform="translate(0 0) scale(1 1)">
</g>
<g style="fill:#000000; fill-opacity:0.0; 
stroke:#000000; stroke-width:0.0000; stroke-opacity:1; 
stroke-linecap:round; stroke-linejoin:round;">
</g>
<g style="fill:#000000; fill-opacity:0.0; 
stroke:#000000; stroke-width:0.3000; stroke-opacity:1; 
stroke-linecap:round; stroke-linejoin:round;">
<text x="73.0250" y="130.1750"
textLength="6.8996" font-size="2.3707" lengthAdjust="spacingAndGlyphs"
text-anchor="start" opacity="0">B.Fab</text>
<g class="stroked-text"><desc>B.Fab</desc>
</g>
<g style="fill:#000000; fill-opacity:1.0000; 
stroke:#000000; stroke-width:0.0000; stroke-opacity:1; 
stroke-linecap:round; stroke-linejoin:round;">
<path style="fill:#000000; fill-opacity:1.0000; 
stroke:#000000; stroke-width:0.0000; stroke-opacity:1; 
stroke-linecap:round; stroke-linejoin:round;fill-rule:evenodd;"
d="M 71.9908,128.0495
71.9701,128.0500
71.9498,128.0510
71.9298,128.0524
71.9102,128.0541
71.8910,128.0563
71.8721,128.0588
71.8536,128.0618
71.8354,128.0651
71.8176,128.0688
71.8001,128.0729
71.7831,128.0774
71.7663,128.0822
71.7419,128.0903
71.7183,128.0992
71.6956,128.1088
71.6739,128.1190
71.6534,128.1296
71.6340,128.1408
71.6157,128.1524
71.5985,128.1646
71.5824,128.1773
71.5674,128.1905
71.5535,128.2042
71.5408,128.2184
71.5329,128.2282
71.5217,128.2429
71.5111,128.2575
71.5011,128.2721
71.4887,128.2915
71.4774,128.3107
71.4671,128.3299
71.4579,128.3489
71.4497,128.3678
71.4443,128.3819
71.4378,128.4007
71.4321,128.4193
71.4273,128.4379
71.4234,128.4564
71.4204,128.4748
71.4182,128.4931
71.4169,128.5114
71.4165,128.5296
71.4170,128.5514
71.4185,128.5726
71.4211,128.5933
71.4246,128.6134
71.4292,128.6330
71.4348,128.6521
71.4414,128.6706
71.4490,128.6885
71.4576,128.7059
71.4673,128.7227
71.4742,128.7337
71.4857,128.7498
71.4985,128.7659
71.5126,128.7820
71.5282,128.7980
71.5451,128.8141
71.5633,128.8301
71.5830,128.8461
71.5968,128.8568
71.6113,128.8675
71.6263,128.8781
71.6420,128.8888
71.6583,128.8994
71.6666,128.9048
71.6480,128.9160
71.6300,128.9273
71.6125,128.9388
71.5957,128.9505
71.5794,128.9624
71.5638,128.9744
71.5487,128.9866
71.5342,128.9990
71.5203,129.0116
71.5070,129.0243
71.4943,129.0372
71.4822,129.0503
71.4706,129.0635
71.4494,129.0905
71.4304,129.1181
71.4139,129.1465
71.3997,129.1755
71.3879,129.2052
71.3784,129.2356
71.3713,129.2666
71.3666,129.2984
71.3642,129.3308
71.3639,129.3473
71.3644,129.3698
71.3658,129.3921
71.3682,129.4143
71.3715,129.4363
71.3758,129.4582
71.3810,129.4798
71.3872,129.5014
71.3943,129.5227
71.4024,129.5439
71.4116,129.5650
71.4193,129.5807
71.4275,129.5965
71.4365,129.6122
71.4460,129.6279
71.4563,129.6436
71.4671,129.6592
71.4786,129.6748
71.4907,129.6903
71.5037,129.7055
71.5178,129.7201
71.5331,129.7342
71.5496,129.7477
71.5672,129.7605
71.5860,129.7729
71.6060,129.7846
71.6271,129.7958
71.6494,129.8064
71.6729,129.8164
71.6892,129.8228
71.7060,129.8288
71.7231,129.8345
71.7406,129.8398
71.7586,129.8446
71.7769,129.8491
71.7956,129.8532
71.8147,129.8569
71.8342,129.8603
71.8542,129.8632
71.8744,129.8657
71.8951,129.8679
71.9162,129.8696
71.9377,129.8710
71.9596,129.8720
71.9818,129.8725
72.0045,129.8727
72.8248,129.8727
72.8248,129.0872
72.4496,129.0872
72.4496,129.5601
72.0019,129.5601
71.9683,129.5592
71.9368,129.5564
71.9076,129.5518
71.8805,129.5454
71.8555,129.5371
71.8328,129.5270
71.8122,129.5151
71.7938,129.5013
71.7775,129.4857
71.7634,129.4683
71.7515,129.4490
71.7417,129.4279
71.7341,129.4050
71.7287,129.3802
71.7255,129.3536
71.7244,129.3251
71.7255,129.2963
71.7287,129.2694
71.7341,129.2443
71.7417,129.2210
71.7515,129.1996
71.7634,129.1801
71.7775,129.1625
71.7938,129.1467
71.8122,129.1327
71.8328,129.1206
71.8555,129.1104
71.8805,129.1020
71.9076,129.0955
71.9368,129.0909
71.9683,129.0881
72.0019,129.0872
72.4496,129.0872
72.8248,129.0872
72.8248,128.3619
72.4496,128.3619
72.4496,128.7745
72.0418,128.7745
72.0097,128.7737
71.9797,128.7713
71.9518,128.7673
71.9259,128.7617
71.9021,128.7545
71.8804,128.7457
71.8607,128.7353
71.8432,128.7232
71.8276,128.7096
71.8142,128.6944
71.8028,128.6776
71.7935,128.6592
71.7862,128.6392
71.7811,128.6176
71.7780,128.5943
71.7769,128.5695
71.7780,128.5444
71.7811,128.5209
71.7862,128.4990
71.7935,128.4787
71.8028,128.4600
71.8142,128.4430
71.8276,128.4276
71.8432,128.4138
71.8607,128.4017
71.8804,128.3911
71.9021,128.3822
71.9259,128.3749
71.9518,128.3692
71.9797,128.3652
72.0097,128.3627
72.0418,128.3619
72.4496,128.3619
72.8248,128.3619
72.8248,128.0493
72.0119,128.0493
Z" /> 
<path style="fill:#000000; fill-opacity:1.0000; 
stroke:#000000; stroke-width:0.0000; stroke-opacity:1; 
stroke-linecap:round; stroke-linejoin:round;fill-rule:evenodd;"
d="M 70.7738,129.5075
70.7738,129.8727
71.1490,129.8727
71.1490,129.5075
Z" /> 
<path style="fill:#000000; fill-opacity:1.0000; 
stroke:#000000; stroke-width:0.0000; stroke-opacity:1; 
stroke-linecap:round; stroke-linejoin:round;fill-rule:evenodd;"
d="M 70.0768,129.0872
70.0768,129.8727
70.4520,129.8727
70.4520,128.0493
69.1713,128.0493
69.1713,128.3619
70.0768,128.3619
70.0768,128.7745
69.2790,128.7745
69.2790,129.0872
Z" /> 
<path style="fill:#000000; fill-opacity:1.0000; 
stroke:#000000; stroke-width:0.0000; stroke-opacity:1; 
stroke-linecap:round; stroke-linejoin:round;fill-rule:evenodd;"
d="M 68.3383,128.5000
68.3054,128.5012
68.2735,128.5032
68.2427,128.5061
68.2130,128.5097
68.1844,128.5142
68.1569,128.5195
68.1304,128.5255
68.1051,128.5324
68.0808,128.5401
68.0576,128.5487
68.0354,128.5580
68.0144,128.5681
67.9944,128.5791
67.9755,128.5908
67.9577,128.6034
67.9409,128.6168
67.9253,128.6310
67.9107,128.6460
67.8972,128.6618
67.8848,128.6784
67.8735,128.6958
67.8632,128.7141
67.8540,128.7331
67.8459,128.7530
67.8389,128.7737
67.8330,128.7952
67.8281,128.8175
67.8243,128.8406
67.8216,128.8645
67.8200,128.8892
67.8195,128.9148
67.8195,129.6652
67.8182,129.6880
67.8145,129.7102
67.8082,129.7317
67.7995,129.7527
67.7883,129.7730
67.7782,129.7878
67.7667,129.8023
67.7539,129.8164
67.7396,129.8302
67.7396,129.8727
68.1196,129.8727
68.1311,129.8563
68.1406,129.8381
68.1482,129.8182
68.1529,129.8010
68.1563,129.7828
68.1585,129.7634
68.1595,129.7430
68.1595,129.7377
68.1828,129.7610
68.2065,129.7828
68.2304,129.8031
68.2547,129.8218
68.2793,129.8391
68.3041,129.8549
68.3293,129.8692
68.3548,129.8820
68.3806,129.8932
68.4067,129.9030
68.4332,129.9113
68.4599,129.9180
68.4869,129.9233
68.5143,129.9271
68.5419,129.9293
68.5699,129.9301
68.5927,129.9296
68.6150,129.9283
68.6367,129.9262
68.6579,129.9231
68.6785,129.9192
68.6985,129.9144
68.7180,129.9088
68.7369,129.9023
68.7552,129.8949
68.7730,129.8866
68.7902,129.8775
68.8068,129.8675
68.8229,129.8567
68.8384,129.8449
68.8534,129.8324
68.8678,129.8189
68.8814,129.8047
68.8942,129.7900
68.9060,129.7747
68.9170,129.7588
68.9271,129.7424
68.9363,129.7254
68.9447,129.7079
68.9521,129.6898
68.9587,129.6712
68.9645,129.6519
68.9693,129.6322
68.9732,129.6118
68.9763,129.5909
68.9785,129.5695
68.9798,129.5475
68.9803,129.5249
68.9799,129.5028
68.9789,129.4849
68.6298,129.4849
68.6290,129.5032
68.6266,129.5206
68.6214,129.5408
68.6136,129.5596
68.6033,129.5768
68.5906,129.5925
68.5786,129.6039
68.5617,129.6166
68.5430,129.6271
68.5268,129.6339
68.5094,129.6394
68.4909,129.6435
68.4712,129.6462
68.4504,129.6476
68.4396,129.6478
68.4153,129.6471
68.3920,129.6449
68.3698,129.6413
68.3487,129.6362
68.3286,129.6297
68.3096,129.6217
68.2916,129.6123
68.2746,129.6014
68.2588,129.5891
68.2439,129.5753
68.2346,129.5653
68.2217,129.5491
68.2100,129.5317
68.1996,129.5131
68.1904,129.4933
68.1826,129.4723
68.1760,129.4500
68.1707,129.4265
68.1666,129.4018
68.1639,129.3758
68.1628,129.3579
68.1622,129.3394
68.1621,129.3299
68.1621,129.2348
68.1783,129.2418
68.1971,129.2487
68.2139,129.2541
68.2323,129.2594
68.2524,129.2646
68.2741,129.2698
68.2915,129.2736
68.3098,129.2774
68.4296,129.2999
68.4497,129.3044
68.4687,129.3091
68.4865,129.3142
68.5032,129.3197
68.5236,129.3275
68.5421,129.3360
68.5584,129.3451
68.5760,129.3573
68.5851,129.3651
68.5980,129.3792
68.6087,129.3951
68.6172,129.4126
68.6235,129.4319
68.6277,129.4528
68.6294,129.4708
68.6298,129.4849
68.9789,129.4849
68.9787,129.4814
68.9768,129.4604
68.9741,129.4401
68.9706,129.4203
68.9663,129.4011
68.9612,129.3824
68.9554,129.3643
68.9488,129.3468
68.9414,129.3298
68.9333,129.3134
68.9243,129.2976
68.9146,129.2823
68.9041,129.2676
68.8929,129.2535
68.8808,129.2399
68.8680,129.2269
68.8544,129.2145
68.8400,129.2026
68.8249,129.1913
68.8090,129.1806
68.7923,129.1704
68.7748,129.1608
68.7565,129.1517
68.7375,129.1432
68.7177,129.1353
68.6971,129.1280
68.6757,129.1212
68.6536,129.1150
68.6307,129.1094
68.6070,129.1043
68.5825,129.0998
68.4422,129.0750
68.4241,129.0731
68.4054,129.0707
68.3923,129.0689
68.3741,129.0662
68.3554,129.0631
68.3375,129.0593
68.3350,129.0585
68.3180,129.0541
68.3010,129.0503
68.2863,129.0472
68.2675,129.0428
68.2507,129.0375
68.2351,129.0298
68.2206,129.0199
68.2064,129.0096
68.1986,129.0038
68.1856,128.9919
68.1752,128.9776
68.1699,128.9660
68.1652,128.9492
68.1626,128.9307
68.1621,128.9174
68.1639,128.8932
68.1692,128.8715
68.1782,128.8521
68.1906,128.8351
68.2067,128.8204
68.2263,128.8082
68.2495,128.7983
68.2669,128.7930
68.2859,128.7888
68.3065,128.7856
68.3287,128.7835
68.3524,128.7824
68.3649,128.7823
68.3886,128.7827
68.4109,128.7837
68.4318,128.7855
68.4514,128.7879
68.4697,128.7911
68.4919,128.7964
68.5116,128.8029
68.5290,128.8107
68.5439,128.8198
68.5473,128.8223
68.5628,128.8363
68.5737,128.8499
68.5834,128.8655
68.5919,128.8831
68.5991,128.9027
68.6050,128.9244
68.6087,128.9420
68.6116,128.9608
68.6124,128.9673
68.9499,128.9673
68.9474,128.9385
68.9438,128.9107
68.9393,128.8837
68.9338,128.8577
68.9273,128.8326
68.9198,128.8084
68.9112,128.7851
68.9017,128.7627
68.8912,128.7412
68.8797,128.7207
68.8671,128.7010
68.8536,128.6823
68.8390,128.6645
68.8235,128.6476
68.8070,128.6316
68.7894,128.6165
68.7709,128.6024
68.7513,128.5891
68.7308,128.5768
68.7092,128.5654
68.6866,128.5549
68.6631,128.5453
68.6385,128.5366
68.6129,128.5288
68.5864,128.5220
68.5588,128.5160
68.5302,128.5110
68.5006,128.5069
68.4701,128.5037
68.4385,128.5014
68.4059,128.5001
68.3723,128.4996
Z" /> 
<path style="fill:#000000; fill-opacity:1.0000; 
stroke:#000000; stroke-width:0.0000; stroke-opacity:1; 
stroke-linecap:round; stroke-linejoin:round;fill-rule:evenodd;"
d="M 67.1585,128.6972
67.1424,128.6733
67.1254,128.6509
67.1073,128.6300
67.0883,128.6107
67.0684,128.5930
67.0475,128.5768
67.0257,128.5621
67.0028,128.5490
66.9791,128.5374
66.9544,128.5274
66.9287,128.5189
66.9020,128.5119
66.8745,128.5065
66.8459,128.5027
66.8164,128.5004
66.7859,128.4996
66.7559,128.5004
66.7265,128.5027
66.6977,128.5067
66.6696,128.5122
66.6421,128.5193
66.6152,128.5279
66.5889,128.5382
66.5633,128.5500
66.5383,128.5634
66.5139,128.5783
66.4901,128.5948
66.4670,128.6129
66.4445,128.6326
66.4226,128.6539
66.4014,128.6767
66.3808,128.7011
66.3610,128.7267
66.3426,128.7531
66.3254,128.7804
66.3095,128.8086
66.2949,128.8377
66.2815,128.8676
66.2694,128.8984
66.2586,128.9301
66.2491,128.9626
66.2408,128.9960
66.2372,129.0131
66.2338,129.0303
66.2308,129.0478
66.2281,129.0655
66.2257,129.0834
66.2236,129.1015
66.2219,129.1198
66.2205,129.1384
66.2193,129.1572
66.2186,129.1762
66.2181,129.1954
66.2179,129.2148
66.2181,129.2338
66.2186,129.2526
66.2193,129.2712
66.2205,129.2896
66.2219,129.3078
66.2236,129.3258
66.2257,129.3436
66.2281,129.3612
66.2308,129.3786
66.2338,129.3958
66.2408,129.4297
66.2491,129.4628
66.2586,129.4950
66.2694,129.5265
66.2815,129.5573
66.2949,129.5872
66.3095,129.6163
66.3254,129.6447
66.3426,129.6723
66.3610,129.6991
66.3808,129.7251
66.4014,129.7499
66.4226,129.7731
66.4445,129.7947
66.4670,129.8148
66.4901,129.8332
66.5139,129.8500
66.5383,129.8652
66.5633,129.8788
66.5889,129.8908
66.6152,129.9012
66.6421,129.9100
66.6696,129.9173
66.6977,129.9229
66.7265,129.9269
66.7559,129.9293
66.7859,129.9301
66.8164,129.9293
66.8459,129.9270
66.8745,129.9232
66.9020,129.9179
66.9287,129.9110
66.9544,129.9026
66.9791,129.8927
67.0028,129.8813
67.0257,129.8684
67.0475,129.8539
67.0684,129.8379
67.0883,129.8204
67.1073,129.8013
67.1254,129.7808
67.1424,129.7587
67.1585,129.7351
67.1585,129.8727
67.5090,129.8727
67.5090,129.2101
67.1585,129.2101
67.1582,129.2338
67.1573,129.2570
67.1557,129.2796
67.1535,129.3016
67.1506,129.3230
67.1471,129.3438
67.1430,129.3641
67.1382,129.3838
67.1328,129.4028
67.1268,129.4213
67.1201,129.4393
67.1129,129.4566
67.1049,129.4734
67.0964,129.4895
67.0872,129.5051
67.0773,129.5201
67.0670,129.5344
67.0507,129.5540
67.0335,129.5716
67.0154,129.5871
66.9965,129.6006
66.9766,129.6119
66.9558,129.6213
66.9341,129.6285
66.9115,129.6337
66.8880,129.6368
66.8637,129.6378
66.8397,129.6368
66.8165,129.6337
66.7942,129.6285
66.7727,129.6213
66.7520,129.6119
66.7322,129.6006
66.7132,129.5871
66.6951,129.5716
66.6778,129.5540
66.6614,129.5344
66.6509,129.5201
66.6409,129.5051
66.6315,129.4896
66.6228,129.4736
66.6148,129.4571
66.6074,129.4400
66.6006,129.4224
66.5945,129.4043
66.5890,129.3856
66.5842,129.3664
66.5800,129.3467
66.5764,129.3265
66.5735,129.3057
66.5713,129.2844
66.5697,129.2626
66.5687,129.2403
66.5684,129.2174
66.5687,129.1943
66.5697,129.1716
66.5713,129.1495
66.5735,129.1280
66.5764,129.1069
66.5800,129.0864
66.5842,129.0665
66.5890,129.0471
66.5945,129.0282
66.6006,129.0099
66.6074,128.9921
66.6148,128.9749
66.6228,128.9582
66.6315,128.9420
66.6409,128.9264
66.6509,128.9113
66.6614,128.8969
66.6778,128.8770
66.6951,128.8592
66.7132,128.8435
66.7322,128.8299
66.7520,128.8184
66.7727,128.8090
66.7942,128.8017
66.8165,128.7965
66.8397,128.7933
66.8637,128.7923
66.8876,128.7933
66.9107,128.7964
66.9330,128.8015
66.9544,128.8087
66.9750,128.8179
66.9948,128.8291
67.0137,128.8424
67.0318,128.8578
67.0491,128.8751
67.0655,128.8946
67.0760,128.9087
67.0860,128.9234
67.0954,128.9387
67.1041,128.9546
67.1121,128.9710
67.1195,128.9879
67.1263,129.0054
67.1324,129.0234
67.1379,129.0420
67.1427,129.0611
67.1469,129.0808
67.1505,129.1009
67.1534,129.1217
67.1556,129.1430
67.1572,129.1648
67.1582,129.1871
67.1585,129.2101
67.5090,129.2101
67.5090,128.0493
67.1585,128.0493
Z" /> 
</g></g>
<g style="fill:#000000; fill-opacity:1.0000; 
stroke:#000000; stroke-width:0.0600; stroke-opacity:1; 
stroke-linecap:round; stroke-linejoin:round;">
</g>
<g style="fill:#000000; fill-opacity:0.0; 
stroke:#000000; stroke-width:0.0600; stroke-opacity:1; 
stroke-linecap:round; stroke-linejoin:round;">
<g transform="rotate(-90.000000 165.8620 85.5980)">
<text x="165.8620" y="85.7980"
transform="scale(-1 1) translate(-331.724000 0)"
textLength="1.2619" font-size="0.5333" lengthAdjust="spacingAndGlyphs"
text-anchor="middle" opacity="0">R14</text>
</g>
<g class="stroked-text"><desc>R14</desc>
<path d="M165.6801 85.3409
L165.8705 85.2075
" />
<path d="M165.6801 85.1123
L166.0801 85.1123
" />
<path d="M166.0801 85.1123
L166.0801 85.2647
" />
<path d="M166.0801 85.2647
L166.0610 85.3028
" />
<path d="M166.0610 85.3028
L166.0420 85.3218
" />
<path d="M166.0420 85.3218
L166.0039 85.3409
" />
<path d="M166.0039 85.3409
L165.9467 85.3409
" />
<path d="M165.9467 85.3409
L165.9086 85.3218
" />
<path d="M165.9086 85.3218
L165.8896 85.3028
" />
<path d="M165.8896 85.3028
L165.8705 85.2647
" />
<path d="M165.8705 85.2647
L165.8705 85.1123
" />
<path d="M165.6801 85.7218
L165.6801 85.4932
" />
<path d="M165.6801 85.6075
L166.0801 85.6075
" />
<path d="M166.0801 85.6075
L166.0229 85.5694
" />
<path d="M166.0229 85.5694
L165.9848 85.5313
" />
<path d="M165.9848 85.5313
L165.9658 85.4932
" />
<path d="M165.9467 86.0647
L165.6801 86.0647
" />
<path d="M166.0991 85.9694
L165.8134 85.8742
" />
<path d="M165.8134 85.8742
L165.8134 86.1218
" />
</g><g transform="rotate(-90.000000 122.0470 90.4240)">
<text x="122.0470" y="90.6240"
transform="scale(-1 1) translate(-244.094000 0)"
textLength="1.2619" font-size="0.5333" lengthAdjust="spacingAndGlyphs"
text-anchor="middle" opacity="0">C12</text>
</g>
<g class="stroked-text"><desc>C12</desc>
<path d="M121.9032 90.1669
L121.8841 90.1478
" />
<path d="M121.8841 90.1478
L121.8651 90.0907
" />
<path d="M121.8651 90.0907
L121.8651 90.0526
" />
<path d="M121.8651 90.0526
L121.8841 89.9954
" />
<path d="M121.8841 89.9954
L121.9222 89.9573
" />
<path d="M121.9222 89.9573
L121.9603 89.9383
" />
<path d="M121.9603 89.9383
L122.0365 89.9192
" />
<path d="M122.0365 89.9192
L122.0936 89.9192
" />
<path d="M122.0936 89.9192
L122.1698 89.9383
" />
<path d="M122.1698 89.9383
L122.2079 89.9573
" />
<path d="M122.2079 89.9573
L122.2460 89.9954
" />
<path d="M122.2460 89.9954
L122.2651 90.0526
" />
<path d="M122.2651 90.0526
L122.2651 90.0907
" />
<path d="M122.2651 90.0907
L122.2460 90.1478
" />
<path d="M122.2460 90.1478
L122.2270 90.1669
" />
<path d="M121.8651 90.5478
L121.8651 90.3192
" />
<path d="M121.8651 90.4335
L122.2651 90.4335
" />
<path d="M122.2651 90.4335
L122.2079 90.3954
" />
<path d="M122.2079 90.3954
L122.1698 90.3573
" />
<path d="M122.1698 90.3573
L122.1508 90.3192
" />
<path d="M122.2270 90.7002
L122.2460 90.7192
" />
<path d="M122.2460 90.7192
L122.2651 90.7573
" />
<path d="M122.2651 90.7573
L122.2651 90.8526
" />
<path d="M122.2651 90.8526
L122.2460 90.8907
" />
<path d="M122.2460 90.8907
L122.2270 90.9097
" />
<path d="M122.2270 90.9097
L122.1889 90.9288
" />
<path d="M122.1889 90.9288
L122.1508 90.9288
" />
<path d="M122.1508 90.9288
L122.0936 90.9097
" />
<path d="M122.0936 90.9097
L121.8651 90.6811
" />
<path d="M121.8651 90.6811
L121.8651 90.9288
" />
</g><g transform="rotate(-90.000000 112.3950 91.4400)">
<text x="112.3950" y="91.6400"
transform="scale(-1 1) translate(-224.790000 0)"
textLength="1.2619" font-size="0.5333" lengthAdjust="spacingAndGlyphs"
text-anchor="middle" opacity="0">R17</text>
</g>
<g class="stroked-text"><desc>R17</desc>
<path d="M112.2131 91.1829
L112.4035 91.0495
" />
<path d="M112.2131 90.9543
L112.6131 90.9543
" />
<path d="M112.6131 90.9543
L112.6131 91.1067
" />
<path d="M112.6131 91.1067
L112.5940 91.1448
" />
<path d="M112.5940 91.1448
L112.5750 91.1638
" />
<path d="M112.5750 91.1638
L112.5369 91.1829
" />
<path d="M112.5369 91.1829
L112.4797 91.1829
" />
<path d="M112.4797 91.1829
L112.4416 91.1638
" />
<path d="M112.4416 91.1638
L112.4226 91.1448
" />
<path d="M112.4226 91.1448
L112.4035 91.1067
" />
<path d="M112.4035 91.1067
L112.4035 90.9543
" />
<path d="M112.2131 91.5638
L112.2131 91.3352
" />
<path d="M112.2131 91.4495
L112.6131 91.4495
" />
<path d="M112.6131 91.4495
L112.5559 91.4114
" />
<path d="M112.5559 91.4114
L112.5178 91.3733
" />
<path d="M112.5178 91.3733
L112.4988 91.3352
" />
<path d="M112.6131 91.6971
L112.6131 91.9638
" />
<path d="M112.6131 91.9638
L112.2131 91.7924
" />
</g><text x="116.8400" y="103.8320"
transform="scale(-1 1) translate(-233.680000 0)"
textLength="1.2619" font-size="0.5333" lengthAdjust="spacingAndGlyphs"
text-anchor="middle" opacity="0">R19</text>
<g class="stroked-text"><desc>R19</desc>
<path d="M116.5829 103.8139
L116.4495 103.6235
" />
<path d="M116.3543 103.8139
L116.3543 103.4139
" />
<path d="M116.3543 103.4139
L116.5067 103.4139
" />
<path d="M116.5067 103.4139
L116.5448 103.4330
" />
<path d="M116.5448 103.4330
L116.5638 103.4520
" />
<path d="M116.5638 103.4520
L116.5829 103.4901
" />
<path d="M116.5829 103.4901
L116.5829 103.5473
" />
<path d="M116.5829 103.5473
L116.5638 103.5854
" />
<path d="M116.5638 103.5854
L116.5448 103.6044
" />
<path d="M116.5448 103.6044
L116.5067 103.6235
" />
<path d="M116.5067 103.6235
L116.3543 103.6235
" />
<path d="M116.9638 103.8139
L116.7352 103.8139
" />
<path d="M116.8495 103.8139
L116.8495 103.4139
" />
<path d="M116.8495 103.4139
L116.8114 103.4711
" />
<path d="M116.8114 103.4711
L116.7733 103.5092
" />
<path d="M116.7733 103.5092
L116.7352 103.5282
" />
<path d="M117.1543 103.8139
L117.2305 103.8139
" />
<path d="M117.2305 103.8139
L117.2686 103.7949
" />
<path d="M117.2686 103.7949
L117.2876 103.7758
" />
<path d="M117.2876 103.7758
L117.3257 103.7187
" />
<path d="M117.3257 103.7187
L117.3448 103.6425
" />
<path d="M117.3448 103.6425
L117.3448 103.4901
" />
<path d="M117.3448 103.4901
L117.3257 103.4520
" />
<path d="M117.3257 103.4520
L117.3067 103.4330
" />
<path d="M117.3067 103.4330
L117.2686 103.4139
" />
<path d="M117.2686 103.4139
L117.1924 103.4139
" />
<path d="M117.1924 103.4139
L117.1543 103.4330
" />
<path d="M117.1543 103.4330
L117.1352 103.4520
" />
<path d="M117.1352 103.4520
L117.1162 103.4901
" />
<path d="M117.1162 103.4901
L117.1162 103.5854
" />
<path d="M117.1162 103.5854
L117.1352 103.6235
" />
<path d="M117.1352 103.6235
L117.1543 103.6425
" />
<path d="M117.1543 103.6425
L117.1924 103.6615
" />
<path d="M117.1924 103.6615
L117.2686 103.6615
" />
<path d="M117.2686 103.6615
L117.3067 103.6425
" />
<path d="M117.3067 103.6425
L117.3257 103.6235
" />
<path d="M117.3257 103.6235
L117.3448 103.5854
" />
</g><text x="172.4660" y="83.7660"
transform="scale(-1 1) translate(-344.932000 0)"
textLength="1.2619" font-size="0.5333" lengthAdjust="spacingAndGlyphs"
text-anchor="middle" opacity="0">C10</text>
<g class="stroked-text"><desc>C10</desc>
<path d="M172.2089 83.7098
L172.1898 83.7289
" />
<path d="M172.1898 83.7289
L172.1327 83.7479
" />
<path d="M172.1327 83.7479
L172.0946 83.7479
" />
<path d="M172.0946 83.7479
L172.0374 83.7289
" />
<path d="M172.0374 83.7289
L171.9993 83.6908
" />
<path d="M171.9993 83.6908
L171.9803 83.6527
" />
<path d="M171.9803 83.6527
L171.9612 83.5765
" />
<path d="M171.9612 83.5765
L171.9612 83.5194
" />
<path d="M171.9612 83.5194
L171.9803 83.4432
" />
<path d="M171.9803 83.4432
L171.9993 83.4051
" />
<path d="M171.9993 83.4051
L172.0374 83.3670
" />
<path d="M172.0374 83.3670
L172.0946 83.3479
" />
<path d="M172.0946 83.3479
L172.1327 83.3479
" />
<path d="M172.1327 83.3479
L172.1898 83.3670
" />
<path d="M172.1898 83.3670
L172.2089 83.3860
" />
<path d="M172.5898 83.7479
L172.3612 83.7479
" />
<path d="M172.4755 83.7479
L172.4755 83.3479
" />
<path d="M172.4755 83.3479
L172.4374 83.4051
" />
<path d="M172.4374 83.4051
L172.3993 83.4432
" />
<path d="M172.3993 83.4432
L172.3612 83.4622
" />
<path d="M172.8374 83.3479
L172.8755 83.3479
" />
<path d="M172.8755 83.3479
L172.9136 83.3670
" />
<path d="M172.9136 83.3670
L172.9327 83.3860
" />
<path d="M172.9327 83.3860
L172.9517 83.4241
" />
<path d="M172.9517 83.4241
L172.9708 83.5003
" />
<path d="M172.9708 83.5003
L172.9708 83.5955
" />
<path d="M172.9708 83.5955
L172.9517 83.6717
" />
<path d="M172.9517 83.6717
L172.9327 83.7098
" />
<path d="M172.9327 83.7098
L172.9136 83.7289
" />
<path d="M172.9136 83.7289
L172.8755 83.7479
" />
<path d="M172.8755 83.7479
L172.8374 83.7479
" />
<path d="M172.8374 83.7479
L172.7993 83.7289
" />
<path d="M172.7993 83.7289
L172.7803 83.7098
" />
<path d="M172.7803 83.7098
L172.7612 83.6717
" />
<path d="M172.7612 83.6717
L172.7422 83.5955
" />
<path d="M172.7422 83.5955
L172.7422 83.5003
" />
<path d="M172.7422 83.5003
L172.7612 83.4241
" />
<path d="M172.7612 83.4241
L172.7803 83.3860
" />
<path d="M172.7803 83.3860
L172.7993 83.3670
" />
<path d="M172.7993 83.3670
L172.8374 83.3479
" />
</g><g transform="rotate(-90.000000 113.9190 91.4400)">
<text x="113.9190" y="91.6400"
transform="scale(-1 1) translate(-227.838000 0)"
textLength="1.2619" font-size="0.5333" lengthAdjust="spacingAndGlyphs"
text-anchor="middle" opacity="0">C13</text>
</g>
<g class="stroked-text"><desc>C13</desc>
<path d="M113.7752 91.1829
L113.7561 91.1638
" />
<path d="M113.7561 91.1638
L113.7371 91.1067
" />
<path d="M113.7371 91.1067
L113.7371 91.0686
" />
<path d="M113.7371 91.0686
L113.7561 91.0114
" />
<path d="M113.7561 91.0114
L113.7942 90.9733
" />
<path d="M113.7942 90.9733
L113.8323 90.9543
" />
<path d="M113.8323 90.9543
L113.9085 90.9352
" />
<path d="M113.9085 90.9352
L113.9656 90.9352
" />
<path d="M113.9656 90.9352
L114.0418 90.9543
" />
<path d="M114.0418 90.9543
L114.0799 90.9733
" />
<path d="M114.0799 90.9733
L114.1180 91.0114
" />
<path d="M114.1180 91.0114
L114.1371 91.0686
" />
<path d="M114.1371 91.0686
L114.1371 91.1067
" />
<path d="M114.1371 91.1067
L114.1180 91.1638
" />
<path d="M114.1180 91.1638
L114.0990 91.1829
" />
<path d="M113.7371 91.5638
L113.7371 91.3352
" />
<path d="M113.7371 91.4495
L114.1371 91.4495
" />
<path d="M114.1371 91.4495
L114.0799 91.4114
" />
<path d="M114.0799 91.4114
L114.0418 91.3733
" />
<path d="M114.0418 91.3733
L114.0228 91.3352
" />
<path d="M114.1371 91.6971
L114.1371 91.9448
" />
<path d="M114.1371 91.9448
L113.9847 91.8114
" />
<path d="M113.9847 91.8114
L113.9847 91.8686
" />
<path d="M113.9847 91.8686
L113.9656 91.9067
" />
<path d="M113.9656 91.9067
L113.9466 91.9257
" />
<path d="M113.9466 91.9257
L113.9085 91.9448
" />
<path d="M113.9085 91.9448
L113.8133 91.9448
" />
<path d="M113.8133 91.9448
L113.7752 91.9257
" />
<path d="M113.7752 91.9257
L113.7561 91.9067
" />
<path d="M113.7561 91.9067
L113.7371 91.8686
" />
<path d="M113.7371 91.8686
L113.7371 91.7543
" />
<path d="M113.7371 91.7543
L113.7561 91.7162
" />
<path d="M113.7561 91.7162
L113.7752 91.6971
" />
</g><g transform="rotate(-90.000000 115.4430 91.4400)">
<text x="115.4430" y="91.6400"
transform="scale(-1 1) translate(-230.886000 0)"
textLength="1.2619" font-size="0.5333" lengthAdjust="spacingAndGlyphs"
text-anchor="middle" opacity="0">R18</text>
</g>
<g class="stroked-text"><desc>R18</desc>
<path d="M115.2611 91.1829
L115.4515 91.0495
" />
<path d="M115.2611 90.9543
L115.6611 90.9543
" />
<path d="M115.6611 90.9543
L115.6611 91.1067
" />
<path d="M115.6611 91.1067
L115.6420 91.1448
" />
<path d="M115.6420 91.1448
L115.6230 91.1638
" />
<path d="M115.6230 91.1638
L115.5849 91.1829
" />
<path d="M115.5849 91.1829
L115.5277 91.1829
" />
<path d="M115.5277 91.1829
L115.4896 91.1638
" />
<path d="M115.4896 91.1638
L115.4706 91.1448
" />
<path d="M115.4706 91.1448
L115.4515 91.1067
" />
<path d="M115.4515 91.1067
L115.4515 90.9543
" />
<path d="M115.2611 91.5638
L115.2611 91.3352
" />
<path d="M115.2611 91.4495
L115.6611 91.4495
" />
<path d="M115.6611 91.4495
L115.6039 91.4114
" />
<path d="M115.6039 91.4114
L115.5658 91.3733
" />
<path d="M115.5658 91.3733
L115.5468 91.3352
" />
<path d="M115.4896 91.7924
L115.5087 91.7543
" />
<path d="M115.5087 91.7543
L115.5277 91.7352
" />
<path d="M115.5277 91.7352
L115.5658 91.7162
" />
<path d="M115.5658 91.7162
L115.5849 91.7162
" />
<path d="M115.5849 91.7162
L115.6230 91.7352
" />
<path d="M115.6230 91.7352
L115.6420 91.7543
" />
<path d="M115.6420 91.7543
L115.6611 91.7924
" />
<path d="M115.6611 91.7924
L115.6611 91.8686
" />
<path d="M115.6611 91.8686
L115.6420 91.9067
" />
<path d="M115.6420 91.9067
L115.6230 91.9257
" />
<path d="M115.6230 91.9257
L115.5849 91.9448
" />
<path d="M115.5849 91.9448
L115.5658 91.9448
" />
<path d="M115.5658 91.9448
L115.5277 91.9257
" />
<path d="M115.5277 91.9257
L115.5087 91.9067
" />
<path d="M115.5087 91.9067
L115.4896 91.8686
" />
<path d="M115.4896 91.8686
L115.4896 91.7924
" />
<path d="M115.4896 91.7924
L115.4706 91.7543
" />
<path d="M115.4706 91.7543
L115.4515 91.7352
" />
<path d="M115.4515 91.7352
L115.4135 91.7162
" />
<path d="M115.4135 91.7162
L115.3373 91.7162
" />
<path d="M115.3373 91.7162
L115.2992 91.7352
" />
<path d="M115.2992 91.7352
L115.2801 91.7543
" />
<path d="M115.2801 91.7543
L115.2611 91.7924
" />
<path d="M115.2611 91.7924
L115.2611 91.8686
" />
<path d="M115.2611 91.8686
L115.2801 91.9067
" />
<path d="M115.2801 91.9067
L115.2992 91.9257
" />
<path d="M115.2992 91.9257
L115.3373 91.9448
" />
<path d="M115.3373 91.9448
L115.4135 91.9448
" />
<path d="M115.4135 91.9448
L115.4515 91.9257
" />
<path d="M115.4515 91.9257
L115.4706 91.9067
" />
<path d="M115.4706 91.9067
L115.4896 91.8686
" />
</g><g transform="rotate(-90.000000 167.3860 85.5980)">
<text x="167.3860" y="85.7980"
transform="scale(-1 1) translate(-334.772000 0)"
textLength="1.2619" font-size="0.5333" lengthAdjust="spacingAndGlyphs"
text-anchor="middle" opacity="0">C11</text>
</g>
<g class="stroked-text"><desc>C11</desc>
<path d="M167.2422 85.3409
L167.2231 85.3218
" />
<path d="M167.2231 85.3218
L167.2041 85.2647
" />
<path d="M167.2041 85.2647
L167.2041 85.2266
" />
<path d="M167.2041 85.2266
L167.2231 85.1694
" />
<path d="M167.2231 85.1694
L167.2612 85.1313
" />
<path d="M167.2612 85.1313
L167.2993 85.1123
" />
<path d="M167.2993 85.1123
L167.3755 85.0932
" />
<path d="M167.3755 85.0932
L167.4326 85.0932
" />
<path d="M167.4326 85.0932
L167.5088 85.1123
" />
<path d="M167.5088 85.1123
L167.5469 85.1313
" />
<path d="M167.5469 85.1313
L167.5850 85.1694
" />
<path d="M167.5850 85.1694
L167.6041 85.2266
" />
<path d="M167.6041 85.2266
L167.6041 85.2647
" />
<path d="M167.6041 85.2647
L167.5850 85.3218
" />
<path d="M167.5850 85.3218
L167.5660 85.3409
" />
<path d="M167.2041 85.7218
L167.2041 85.4932
" />
<path d="M167.2041 85.6075
L167.6041 85.6075
" />
<path d="M167.6041 85.6075
L167.5469 85.5694
" />
<path d="M167.5469 85.5694
L167.5088 85.5313
" />
<path d="M167.5088 85.5313
L167.4898 85.4932
" />
<path d="M167.2041 86.1028
L167.2041 85.8742
" />
<path d="M167.2041 85.9885
L167.6041 85.9885
" />
<path d="M167.6041 85.9885
L167.5469 85.9504
" />
<path d="M167.5469 85.9504
L167.5088 85.9123
" />
<path d="M167.5088 85.9123
L167.4898 85.8742
" />
</g><text x="172.2120" y="86.5600"
transform="scale(-1 1) translate(-344.424000 0)"
textLength="1.2619" font-size="0.5333" lengthAdjust="spacingAndGlyphs"
text-anchor="middle" opacity="0">R15</text>
<g class="stroked-text"><desc>R15</desc>
<path d="M171.9549 86.5419
L171.8215 86.3515
" />
<path d="M171.7263 86.5419
L171.7263 86.1419
" />
<path d="M171.7263 86.1419
L171.8787 86.1419
" />
<path d="M171.8787 86.1419
L171.9168 86.1610
" />
<path d="M171.9168 86.1610
L171.9358 86.1800
" />
<path d="M171.9358 86.1800
L171.9549 86.2181
" />
<path d="M171.9549 86.2181
L171.9549 86.2753
" />
<path d="M171.9549 86.2753
L171.9358 86.3134
" />
<path d="M171.9358 86.3134
L171.9168 86.3324
" />
<path d="M171.9168 86.3324
L171.8787 86.3515
" />
<path d="M171.8787 86.3515
L171.7263 86.3515
" />
<path d="M172.3358 86.5419
L172.1072 86.5419
" />
<path d="M172.2215 86.5419
L172.2215 86.1419
" />
<path d="M172.2215 86.1419
L172.1834 86.1991
" />
<path d="M172.1834 86.1991
L172.1453 86.2372
" />
<path d="M172.1453 86.2372
L172.1072 86.2562
" />
<path d="M172.6977 86.1419
L172.5072 86.1419
" />
<path d="M172.5072 86.1419
L172.4882 86.3324
" />
<path d="M172.4882 86.3324
L172.5072 86.3134
" />
<path d="M172.5072 86.3134
L172.5453 86.2943
" />
<path d="M172.5453 86.2943
L172.6406 86.2943
" />
<path d="M172.6406 86.2943
L172.6787 86.3134
" />
<path d="M172.6787 86.3134
L172.6977 86.3324
" />
<path d="M172.6977 86.3324
L172.7168 86.3705
" />
<path d="M172.7168 86.3705
L172.7168 86.4657
" />
<path d="M172.7168 86.4657
L172.6977 86.5038
" />
<path d="M172.6977 86.5038
L172.6787 86.5229
" />
<path d="M172.6787 86.5229
L172.6406 86.5419
" />
<path d="M172.6406 86.5419
L172.5453 86.5419
" />
<path d="M172.5453 86.5419
L172.5072 86.5229
" />
<path d="M172.5072 86.5229
L172.4882 86.5038
" />
</g><text x="176.2760" y="86.5600"
transform="scale(-1 1) translate(-352.552000 0)"
textLength="1.2619" font-size="0.5333" lengthAdjust="spacingAndGlyphs"
text-anchor="middle" opacity="0">R16</text>
<g class="stroked-text"><desc>R16</desc>
<path d="M176.0189 86.5419
L175.8855 86.3515
" />
<path d="M175.7903 86.5419
L175.7903 86.1419
" />
<path d="M175.7903 86.1419
L175.9427 86.1419
" />
<path d="M175.9427 86.1419
L175.9808 86.1610
" />
<path d="M175.9808 86.1610
L175.9998 86.1800
" />
<path d="M175.9998 86.1800
L176.0189 86.2181
" />
<path d="M176.0189 86.2181
L176.0189 86.2753
" />
<path d="M176.0189 86.2753
L175.9998 86.3134
" />
<path d="M175.9998 86.3134
L175.9808 86.3324
" />
<path d="M175.9808 86.3324
L175.9427 86.3515
" />
<path d="M175.9427 86.3515
L175.7903 86.3515
" />
<path d="M176.3998 86.5419
L176.1712 86.5419
" />
<path d="M176.2855 86.5419
L176.2855 86.1419
" />
<path d="M176.2855 86.1419
L176.2474 86.1991
" />
<path d="M176.2474 86.1991
L176.2093 86.2372
" />
<path d="M176.2093 86.2372
L176.1712 86.2562
" />
<path d="M176.7427 86.1419
L176.6665 86.1419
" />
<path d="M176.6665 86.1419
L176.6284 86.1610
" />
<path d="M176.6284 86.1610
L176.6093 86.1800
" />
<path d="M176.6093 86.1800
L176.5712 86.2372
" />
<path d="M176.5712 86.2372
L176.5522 86.3134
" />
<path d="M176.5522 86.3134
L176.5522 86.4657
" />
<path d="M176.5522 86.4657
L176.5712 86.5038
" />
<path d="M176.5712 86.5038
L176.5903 86.5229
" />
<path d="M176.5903 86.5229
L176.6284 86.5419
" />
<path d="M176.6284 86.5419
L176.7046 86.5419
" />
<path d="M176.7046 86.5419
L176.7427 86.5229
" />
<path d="M176.7427 86.5229
L176.7617 86.5038
" />
<path d="M176.7617 86.5038
L176.7808 86.4657
" />
<path d="M176.7808 86.4657
L176.7808 86.3705
" />
<path d="M176.7808 86.3705
L176.7617 86.3324
" />
<path d="M176.7617 86.3324
L176.7427 86.3134
" />
<path d="M176.7427 86.3134
L176.7046 86.2943
" />
<path d="M176.7046 86.2943
L176.6284 86.2943
" />
<path d="M176.6284 86.2943
L176.5903 86.3134
" />
<path d="M176.5903 86.3134
L176.5712 86.3324
" />
<path d="M176.5712 86.3324
L176.5522 86.3705
" />
</g></g>
<g style="fill:#000000; fill-opacity:0.0; 
stroke:#000000; stroke-width:0.1000; stroke-opacity:1; 
stroke-linecap:round; stroke-linejoin:round;">
<g transform="rotate(-90.000000 157.2220 83.1210)">
<text x="157.2220" y="83.3710"
transform="scale(-1 1) translate(-314.444000 0)"
textLength="1.6524" font-size="0.6667" lengthAdjust="spacingAndGlyphs"
text-anchor="middle" opacity="0">R13</text>
</g>
<g class="stroked-text"><desc>R13</desc>
<path d="M156.9959 82.7996
L157.2340 82.6329
" />
<path d="M156.9959 82.5139
L157.4959 82.5139
" />
<path d="M157.4959 82.5139
L157.4959 82.7043
" />
<path d="M157.4959 82.7043
L157.4721 82.7520
" />
<path d="M157.4721 82.7520
L157.4483 82.7758
" />
<path d="M157.4483 82.7758
L157.4007 82.7996
" />
<path d="M157.4007 82.7996
L157.3292 82.7996
" />
<path d="M157.3292 82.7996
L157.2816 82.7758
" />
<path d="M157.2816 82.7758
L157.2578 82.7520
" />
<path d="M157.2578 82.7520
L157.2340 82.7043
" />
<path d="M157.2340 82.7043
L157.2340 82.5139
" />
<path d="M156.9959 83.2758
L156.9959 82.9900
" />
<path d="M156.9959 83.1329
L157.4959 83.1329
" />
<path d="M157.4959 83.1329
L157.4245 83.0853
" />
<path d="M157.4245 83.0853
L157.3768 83.0377
" />
<path d="M157.3768 83.0377
L157.3530 82.9900
" />
<path d="M157.4959 83.4424
L157.4959 83.7520
" />
<path d="M157.4959 83.7520
L157.3054 83.5853
" />
<path d="M157.3054 83.5853
L157.3054 83.6567
" />
<path d="M157.3054 83.6567
L157.2816 83.7043
" />
<path d="M157.2816 83.7043
L157.2578 83.7281
" />
<path d="M157.2578 83.7281
L157.2102 83.7520
" />
<path d="M157.2102 83.7520
L157.0911 83.7520
" />
<path d="M157.0911 83.7520
L157.0435 83.7281
" />
<path d="M157.0435 83.7281
L157.0197 83.7043
" />
<path d="M157.0197 83.7043
L156.9959 83.6567
" />
<path d="M156.9959 83.6567
L156.9959 83.5139
" />
<path d="M156.9959 83.5139
L157.0197 83.4662
" />
<path d="M157.0197 83.4662
L157.0435 83.4424
" />
</g></g>
<g style="fill:#000000; fill-opacity:0.0; 
stroke:#000000; stroke-width:0.0600; stroke-opacity:1; 
stroke-linecap:round; stroke-linejoin:round;">
<text x="172.4660" y="82.2420"
transform="scale(-1 1) translate(-344.932000 0)"
textLength="1.2619" font-size="0.5333" lengthAdjust="spacingAndGlyphs"
text-anchor="middle" opacity="0">R12</text>
<g class="stroked-text"><desc>R12</desc>
<path d="M172.2089 82.2239
L172.0755 82.0335
" />
<path d="M171.9803 82.2239
L171.9803 81.8239
" />
<path d="M171.9803 81.8239
L172.1327 81.8239
" />
<path d="M172.1327 81.8239
L172.1708 81.8430
" />
<path d="M172.1708 81.8430
L172.1898 81.8620
" />
<path d="M172.1898 81.8620
L172.2089 81.9001
" />
<path d="M172.2089 81.9001
L172.2089 81.9573
" />
<path d="M172.2089 81.9573
L172.1898 81.9954
" />
<path d="M172.1898 81.9954
L172.1708 82.0144
" />
<path d="M172.1708 82.0144
L172.1327 82.0335
" />
<path d="M172.1327 82.0335
L171.9803 82.0335
" />
<path d="M172.5898 82.2239
L172.3612 82.2239
" />
<path d="M172.4755 82.2239
L172.4755 81.8239
" />
<path d="M172.4755 81.8239
L172.4374 81.8811
" />
<path d="M172.4374 81.8811
L172.3993 81.9192
" />
<path d="M172.3993 81.9192
L172.3612 81.9382
" />
<path d="M172.7422 81.8620
L172.7612 81.8430
" />
<path d="M172.7612 81.8430
L172.7993 81.8239
" />
<path d="M172.7993 81.8239
L172.8946 81.8239
" />
<path d="M172.8946 81.8239
L172.9327 81.8430
" />
<path d="M172.9327 81.8430
L172.9517 81.8620
" />
<path d="M172.9517 81.8620
L172.9708 81.9001
" />
<path d="M172.9708 81.9001
L172.9708 81.9382
" />
<path d="M172.9708 81.9382
L172.9517 81.9954
" />
<path d="M172.9517 81.9954
L172.7231 82.2239
" />
<path d="M172.7231 82.2239
L172.9708 82.2239
" />
</g><text x="112.7760" y="105.3560"
transform="scale(-1 1) translate(-225.552000 0)"
textLength="1.2619" font-size="0.5333" lengthAdjust="spacingAndGlyphs"
text-anchor="middle" opacity="0">R20</text>
<g class="stroked-text"><desc>R20</desc>
<path d="M112.5189 105.3379
L112.3855 105.1475
" />
<path d="M112.2903 105.3379
L112.2903 104.9379
" />
<path d="M112.2903 104.9379
L112.4427 104.9379
" />
<path d="M112.4427 104.9379
L112.4808 104.9570
" />
<path d="M112.4808 104.9570
L112.4998 104.9760
" />
<path d="M112.4998 104.9760
L112.5189 105.0141
" />
<path d="M112.5189 105.0141
L112.5189 105.0713
" />
<path d="M112.5189 105.0713
L112.4998 105.1094
" />
<path d="M112.4998 105.1094
L112.4808 105.1284
" />
<path d="M112.4808 105.1284
L112.4427 105.1475
" />
<path d="M112.4427 105.1475
L112.2903 105.1475
" />
<path d="M112.6712 104.9760
L112.6903 104.9570
" />
<path d="M112.6903 104.9570
L112.7284 104.9379
" />
<path d="M112.7284 104.9379
L112.8236 104.9379
" />
<path d="M112.8236 104.9379
L112.8617 104.9570
" />
<path d="M112.8617 104.9570
L112.8808 104.9760
" />
<path d="M112.8808 104.9760
L112.8998 105.0141
" />
<path d="M112.8998 105.0141
L112.8998 105.0522
" />
<path d="M112.8998 105.0522
L112.8808 105.1094
" />
<path d="M112.8808 105.1094
L112.6522 105.3379
" />
<path d="M112.6522 105.3379
L112.8998 105.3379
" />
<path d="M113.1474 104.9379
L113.1855 104.9379
" />
<path d="M113.1855 104.9379
L113.2236 104.9570
" />
<path d="M113.2236 104.9570
L113.2427 104.9760
" />
<path d="M113.2427 104.9760
L113.2617 105.0141
" />
<path d="M113.2617 105.0141
L113.2808 105.0903
" />
<path d="M113.2808 105.0903
L113.2808 105.1855
" />
<path d="M113.2808 105.1855
L113.2617 105.2617
" />
<path d="M113.2617 105.2617
L113.2427 105.2998
" />
<path d="M113.2427 105.2998
L113.2236 105.3189
" />
<path d="M113.2236 105.3189
L113.1855 105.3379
" />
<path d="M113.1855 105.3379
L113.1474 105.3379
" />
<path d="M113.1474 105.3379
L113.1093 105.3189
" />
<path d="M113.1093 105.3189
L113.0903 105.2998
" />
<path d="M113.0903 105.2998
L113.0712 105.2617
" />
<path d="M113.0712 105.2617
L113.0522 105.1855
" />
<path d="M113.0522 105.1855
L113.0522 105.0903
" />
<path d="M113.0522 105.0903
L113.0712 105.0141
" />
<path d="M113.0712 105.0141
L113.0903 104.9760
" />
<path d="M113.0903 104.9760
L113.1093 104.9570
" />
<path d="M113.1093 104.9570
L113.1474 104.9379
" />
</g><text x="116.8400" y="105.3560"
transform="scale(-1 1) translate(-233.680000 0)"
textLength="1.2619" font-size="0.5333" lengthAdjust="spacingAndGlyphs"
text-anchor="middle" opacity="0">R21</text>
<g class="stroked-text"><desc>R21</desc>
<path d="M116.5829 105.3379
L116.4495 105.1475
" />
<path d="M116.3543 105.3379
L116.3543 104.9379
" />
<path d="M116.3543 104.9379
L116.5067 104.9379
" />
<path d="M116.5067 104.9379
L116.5448 104.9570
" />
<path d="M116.5448 104.9570
L116.5638 104.9760
" />
<path d="M116.5638 104.9760
L116.5829 105.0141
" />
<path d="M116.5829 105.0141
L116.5829 105.0713
" />
<path d="M116.5829 105.0713
L116.5638 105.1094
" />
<path d="M116.5638 105.1094
L116.5448 105.1284
" />
<path d="M116.5448 105.1284
L116.5067 105.1475
" />
<path d="M116.5067 105.1475
L116.3543 105.1475
" />
<path d="M116.7352 104.9760
L116.7543 104.9570
" />
<path d="M116.7543 104.9570
L116.7924 104.9379
" />
<path d="M116.7924 104.9379
L116.8876 104.9379
" />
<path d="M116.8876 104.9379
L116.9257 104.9570
" />
<path d="M116.9257 104.9570
L116.9448 104.9760
" />
<path d="M116.9448 104.9760
L116.9638 105.0141
" />
<path d="M116.9638 105.0141
L116.9638 105.0522
" />
<path d="M116.9638 105.0522
L116.9448 105.1094
" />
<path d="M116.9448 105.1094
L116.7162 105.3379
" />
<path d="M116.7162 105.3379
L116.9638 105.3379
" />
<path d="M117.3448 105.3379
L117.1162 105.3379
" />
<path d="M117.2305 105.3379
L117.2305 104.9379
" />
<path d="M117.2305 104.9379
L117.1924 104.9951
" />
<path d="M117.1924 104.9951
L117.1543 105.0332
" />
<path d="M117.1543 105.0332
L117.1162 105.0522
" />
</g></g>
<g style="fill:#000000; fill-opacity:0.0; 
stroke:#000000; stroke-width:0.1000; stroke-opacity:1; 
stroke-linecap:round; stroke-linejoin:round;">
<path d="M166.2745 86.3980
L165.4495 86.3980
" />
<path d="M165.4495 86.3980
L165.4495 84.7980
" />
<path d="M166.2745 84.7980
L166.2745 86.3980
" />
<path d="M165.4495 84.7980
L166.2745 84.7980
" />
<path d="M121.6470 89.6240
L122.4470 89.6240
" />
<path d="M122.4470 89.6240
L122.4470 91.2240
" />
<path d="M121.6470 91.2240
L121.6470 89.6240
" />
<path d="M122.4470 91.2240
L121.6470 91.2240
" />
<path d="M112.8075 92.2400
L111.9825 92.2400
" />
<path d="M111.9825 92.2400
L111.9825 90.6400
" />
<path d="M112.8075 90.6400
L112.8075 92.2400
" />
<path d="M111.9825 90.6400
L112.8075 90.6400
" />
<path d="M116.0400 104.0445
L116.0400 103.2195
" />
<path d="M116.0400 103.2195
L117.6400 103.2195
" />
<path d="M117.6400 104.0445
L116.0400 104.0445
" />
<path d="M117.6400 103.2195
L117.6400 104.0445
" />
<path d="M173.2660 83.1660
L173.2660 83.9660
" />
<path d="M173.2660 83.9660
L171.6660 83.9660
" />
<path d="M171.6660 83.1660
L173.2660 83.1660
" />
<path d="M171.6660 83.9660
L171.6660 83.1660
" />
<path d="M113.5190 90.6400
L114.3190 90.6400
" />
<path d="M114.3190 90.6400
L114.3190 92.2400
" />
<path d="M113.5190 92.2400
L113.5190 90.6400
" />
<path d="M114.3190 92.2400
L113.5190 92.2400
" />
<path d="M115.8555 92.2400
L115.0305 92.2400
" />
<path d="M115.0305 92.2400
L115.0305 90.6400
" />
<path d="M115.8555 90.6400
L115.8555 92.2400
" />
<path d="M115.0305 90.6400
L115.8555 90.6400
" />
<path d="M166.9860 84.7980
L167.7860 84.7980
" />
<path d="M167.7860 84.7980
L167.7860 86.3980
" />
<path d="M166.9860 86.3980
L166.9860 84.7980
" />
<path d="M167.7860 86.3980
L166.9860 86.3980
" />
<path d="M173.0120 85.9475
L173.0120 86.7725
" />
<path d="M173.0120 86.7725
L171.4120 86.7725
" />
<path d="M171.4120 85.9475
L173.0120 85.9475
" />
<path d="M171.4120 86.7725
L171.4120 85.9475
" />
<path d="M177.0760 85.9475
L177.0760 86.7725
" />
<path d="M177.0760 86.7725
L175.4760 86.7725
" />
<path d="M175.4760 85.9475
L177.0760 85.9475
" />
<path d="M175.4760 86.7725
L175.4760 85.9475
" />
<path d="M157.9720 84.6460
L156.9720 84.6460
" />
<path d="M157.9720 84.6460
L157.9720 81.5960
" />
<path d="M156.9720 84.6460
L156.4720 84.1460
" />
<path d="M157.9720 81.5960
L156.4720 81.5960
" />
<path d="M156.4720 81.5960
L156.4720 84.1460
" />
<path d="M171.6660 82.4545
L171.6660 81.6295
" />
<path d="M171.6660 81.6295
L173.2660 81.6295
" />
<path d="M173.2660 82.4545
L171.6660 82.4545
" />
<path d="M173.2660 81.6295
L173.2660 82.4545
" />
<path d="M113.5760 104.7435
L113.5760 105.5685
" />
<path d="M113.5760 105.5685
L111.9760 105.5685
" />
<path d="M111.9760 104.7435
L113.5760 104.7435
" />
<path d="M111.9760 105.5685
L111.9760 104.7435
" />
<path d="M117.6400 104.7435
L117.6400 105.5685
" />
<path d="M117.6400 105.5685
L116.0400 105.5685
" />
<path d="M116.0400 104.7435
L117.6400 104.7435
" />
<path d="M116.0400 105.5685
L116.0400 104.7435
" />
<g >
</g>
<g >
</g>
<g >
</g>
<g >
</g>
<g >
</g>
<g >
</g>
<g >
</g>
<g >
</g>
<g >
</g>
<g >
</g>
<g >
</g>
<g >
</g>
<g >
</g>
<g >
</g>
<g >
</g>
<g >
</g>
<g >
</g>
<g >
</g>
<g >
</g>
<g >
</g>
<g >
</g>
<g >
</g>
<g >
</g>
<g >
</g>
<g >
</g>
<g >
</g>
<g >
</g>
<g >
</g>
<g >
</g>
<g >
</g>
<g >
</g>
<g >
</g>
<g >
</g>
<g >
</g>
<g >
</g>
<g >
</g>
<g >
</g>
<g >
</g>
<g >
</g>
<g >
</g>
<g >
</g>
<g >
</g>
<g >
</g>
<g >
</g>
<g >
</g>
<g >
</g>
<g >
</g>
<g >
</g>
<g >
</g>
<g >
</g>
<g >
</g>
<g >
</g>
<g >
</g>
<g >
</g>
<g >
</g>
<g >
</g>
<g >
</g>
<g >
</g>
<g >
</g>
<g >
</g>
<g >
</g>
<g >
</g>
<g >
</g>
<g >
</g>
<g >
</g>
<g >
</g>
<g >
</g>
<g >
</g>
<g >
</g>
<g >
</g>
<g >
</g>
<g >
</g>
<g >
</g>
<g >
</g>
<g >
</g>
</g>
<g style="fill:#000000; fill-opacity:0.0; 
stroke:#000000; stroke-width:0.1000; stroke-opacity:1; 
stroke-linecap:round; stroke-linejoin:round;">
<path d="M210.6930 159.0040 A1.0160 1.0160 0.0 0 0 211.7090 157.9880" />
<path d="M211.7090 81.0260 A1.0160 1.0160 0.0 0 0 210.6930 80.0100" />
<path d="M102.8700 80.0100 A1.0160 1.0160 0.0 0 0 101.8540 81.0260" />
<path d="M211.7090 81.0260
L211.7090 157.9880
" />
<path d="M210.6930 159.0040
L102.8700 159.0040
" />
<path d="M101.8540 157.9880 A1.0160 1.0160 0.0 0 0 102.8700 159.0040" />
<path d="M101.8540 157.9880
L101.8540 81.0260
" />
<path d="M102.8700 80.0100
L210.6930 80.0100
" />
<g >
</g>
<g >
</g>
<g >
</g>
<g >
</g>
<g >
</g>
<g >
</g>
<g >
</g>
<g >
</g>
<g >
</g>
<g >
</g>
<g >
</g>
<g >
</g>
<g >
</g>
<g >
</g>
<g >
</g>
<g >
</g>
<g >
</g>
<g >
</g>
<g >
</g>
<g >
</g>
<g >
</g>
<g >
</g>
<g >
</g>
<g >
</g>
<g >
</g>
<g >
</g>
<g >
</g>
<g >
</g>
<g >
</g>
<g >
</g>
<g >
</g>
<g >
</g>
<g >
</g>
<g >
</g>
<g >
</g>
<g >
</g>
<g >
</g>
<g >
</g>
<g >
</g>
<g >
</g>
<g >
</g>
<g >
</g>
<g >
</g>
<g >
</g>
<g >
</g>
<g >
</g>
<g >
</g>
<g >
</g>
<g >
</g>
<g >
</g>
<g >
</g>
<g >
</g>
<g >
</g>
<g >
</g>
<g >
</g>
<g >
</g>
<g >
</g>
<g >
</g>
<g >
</g>
<g >
</g>
<g >
</g>
<g >
</g>
<g >
</g>
<g >
</g>
<g >
</g>
<g >
</g>
<g >
</g>
<g >
</g>
<g >
</g>
<g >
</g>
<g >
</g>
<g >
</g>
<g >
</g>
<g >
</g>
<g >
</g>
</g> 
</svg>
