%TF.GenerationSoftware,KiCad,Pcbnew,7.0.9-7.0.9~ubuntu22.04.1*%
%TF.CreationDate,2024-01-02T11:30:05-08:00*%
%TF.ProjectId,kraken-can-adapter,6b72616b-656e-42d6-9361-6e2d61646170,1*%
%TF.SameCoordinates,Original*%
%TF.FileFunction,Legend,Bot*%
%TF.FilePolarity,Positive*%
%FSLAX46Y46*%
G04 Gerber Fmt 4.6, Leading zero omitted, Abs format (unit mm)*
G04 Created by KiCad (PCBNEW 7.0.9-7.0.9~ubuntu22.04.1) date 2024-01-02 11:30:05*
%MOMM*%
%LPD*%
G01*
G04 APERTURE LIST*
%ADD10C,0.254000*%
%ADD11C,0.120000*%
%ADD12C,0.200000*%
G04 APERTURE END LIST*
D10*
G36*
X120416575Y-119941296D02*
G01*
X120426547Y-119931943D01*
X120436226Y-119922430D01*
X120445611Y-119912759D01*
X120454701Y-119902927D01*
X120463498Y-119892937D01*
X120472000Y-119882787D01*
X120480209Y-119872477D01*
X120488123Y-119862008D01*
X120495743Y-119851379D01*
X120503070Y-119840591D01*
X120507790Y-119833310D01*
X120514641Y-119822248D01*
X120521148Y-119810923D01*
X120527311Y-119799337D01*
X120533131Y-119787489D01*
X120538608Y-119775378D01*
X120543740Y-119763006D01*
X120548529Y-119750372D01*
X120552975Y-119737475D01*
X120557076Y-119724317D01*
X120560835Y-119710897D01*
X120563149Y-119701804D01*
X120566069Y-119688010D01*
X120568199Y-119673999D01*
X120569540Y-119659773D01*
X120570092Y-119645331D01*
X120569854Y-119630673D01*
X120568826Y-119615799D01*
X120567009Y-119600710D01*
X120564403Y-119585404D01*
X120561007Y-119569883D01*
X120556822Y-119554146D01*
X120553594Y-119543534D01*
X120548023Y-119527526D01*
X120541600Y-119511566D01*
X120534327Y-119495653D01*
X120526203Y-119479788D01*
X120517228Y-119463971D01*
X120507401Y-119448202D01*
X120500377Y-119437716D01*
X120492975Y-119427250D01*
X120485195Y-119416807D01*
X120477036Y-119406384D01*
X120468499Y-119395982D01*
X120459584Y-119385602D01*
X120450290Y-119375243D01*
X120363323Y-119280335D01*
X120165731Y-119461395D01*
X120250183Y-119553559D01*
X120260990Y-119565791D01*
X120270775Y-119577791D01*
X120279541Y-119589556D01*
X120287287Y-119601088D01*
X120294012Y-119612386D01*
X120299717Y-119623450D01*
X120305737Y-119637840D01*
X120309943Y-119651813D01*
X120312336Y-119665372D01*
X120312852Y-119671995D01*
X120312409Y-119685121D01*
X120310142Y-119698222D01*
X120306052Y-119711299D01*
X120300138Y-119724351D01*
X120292399Y-119737378D01*
X120282837Y-119750380D01*
X120274468Y-119760115D01*
X120265074Y-119769837D01*
X120258241Y-119776310D01*
X120248570Y-119784706D01*
X120235603Y-119794517D01*
X120222555Y-119802746D01*
X120209425Y-119809394D01*
X120196213Y-119814460D01*
X120182919Y-119817944D01*
X120169543Y-119819848D01*
X120156085Y-119820169D01*
X120152708Y-119820002D01*
X120139212Y-119818295D01*
X120125867Y-119815016D01*
X120112673Y-119810165D01*
X120099629Y-119803744D01*
X120086737Y-119795751D01*
X120073996Y-119786186D01*
X120064539Y-119777981D01*
X120055166Y-119768893D01*
X120048966Y-119762343D01*
X119398281Y-119052245D01*
X119200689Y-119233305D01*
X119851373Y-119943403D01*
X119866846Y-119959657D01*
X119882510Y-119974857D01*
X119898366Y-119989004D01*
X119914413Y-120002098D01*
X119930653Y-120014139D01*
X119947084Y-120025126D01*
X119963707Y-120035060D01*
X119980522Y-120043940D01*
X119997529Y-120051767D01*
X120014727Y-120058541D01*
X120032117Y-120064262D01*
X120049699Y-120068929D01*
X120067473Y-120072542D01*
X120085438Y-120075103D01*
X120103596Y-120076610D01*
X120121945Y-120077064D01*
X120140337Y-120076463D01*
X120158731Y-120074811D01*
X120177129Y-120072107D01*
X120195530Y-120068353D01*
X120213934Y-120063547D01*
X120232340Y-120057689D01*
X120250750Y-120050781D01*
X120269163Y-120042821D01*
X120287579Y-120033810D01*
X120305998Y-120023747D01*
X120324420Y-120012633D01*
X120342845Y-120000468D01*
X120361273Y-119987252D01*
X120379704Y-119972985D01*
X120398138Y-119957666D01*
X120416575Y-119941296D01*
G37*
G36*
X119075677Y-119929294D02*
G01*
X119299569Y-119724135D01*
X119187455Y-119601783D01*
X119172348Y-119615325D01*
X119157330Y-119628184D01*
X119142402Y-119640359D01*
X119127562Y-119651852D01*
X119112812Y-119662662D01*
X119098150Y-119672788D01*
X119083578Y-119682232D01*
X119069094Y-119690992D01*
X119054700Y-119699070D01*
X119040394Y-119706464D01*
X119026177Y-119713175D01*
X119012050Y-119719204D01*
X118998011Y-119724549D01*
X118984062Y-119729211D01*
X118970201Y-119733190D01*
X118956430Y-119736486D01*
X118942747Y-119739099D01*
X118929153Y-119741029D01*
X118915649Y-119742276D01*
X118902233Y-119742840D01*
X118888907Y-119742721D01*
X118875669Y-119741919D01*
X118862520Y-119740434D01*
X118849461Y-119738265D01*
X118836490Y-119735414D01*
X118823609Y-119731879D01*
X118810816Y-119727662D01*
X118798112Y-119722761D01*
X118785498Y-119717178D01*
X118772972Y-119710911D01*
X118760535Y-119703961D01*
X118748188Y-119696329D01*
X118625836Y-119808443D01*
X119481680Y-120742433D01*
X119666008Y-120573528D01*
X119075677Y-119929294D01*
G37*
G36*
X93106111Y-121053242D02*
G01*
X93116298Y-121062362D01*
X93126617Y-121071174D01*
X93137070Y-121079680D01*
X93147656Y-121087879D01*
X93158376Y-121095772D01*
X93169228Y-121103357D01*
X93180214Y-121110636D01*
X93191333Y-121117608D01*
X93202586Y-121124272D01*
X93213971Y-121130631D01*
X93221636Y-121134699D01*
X93233253Y-121140559D01*
X93245101Y-121146055D01*
X93257181Y-121151185D01*
X93269491Y-121155950D01*
X93282033Y-121160350D01*
X93294806Y-121164385D01*
X93307809Y-121168054D01*
X93321044Y-121171359D01*
X93334510Y-121174298D01*
X93348206Y-121176872D01*
X93357466Y-121178386D01*
X93371462Y-121180092D01*
X93385605Y-121180993D01*
X93399894Y-121181089D01*
X93414329Y-121180380D01*
X93428911Y-121178865D01*
X93443638Y-121176545D01*
X93458512Y-121173420D01*
X93473532Y-121169490D01*
X93488699Y-121164754D01*
X93504011Y-121159213D01*
X93514301Y-121155072D01*
X93529763Y-121148127D01*
X93545102Y-121140339D01*
X93560321Y-121131706D01*
X93575417Y-121122230D01*
X93590392Y-121111910D01*
X93605244Y-121100747D01*
X93615079Y-121092836D01*
X93624859Y-121084550D01*
X93634585Y-121075889D01*
X93644257Y-121066853D01*
X93653875Y-121057442D01*
X93663439Y-121047656D01*
X93672948Y-121037495D01*
X93759916Y-120942586D01*
X93562323Y-120761526D01*
X93477871Y-120853690D01*
X93466626Y-120865521D01*
X93455526Y-120876316D01*
X93444569Y-120886074D01*
X93433756Y-120894795D01*
X93423087Y-120902479D01*
X93412562Y-120909127D01*
X93398752Y-120916378D01*
X93385198Y-120921786D01*
X93371900Y-120925351D01*
X93365347Y-120926443D01*
X93352232Y-120927146D01*
X93338983Y-120926029D01*
X93325600Y-120923094D01*
X93312082Y-120918340D01*
X93298431Y-120911766D01*
X93284644Y-120903374D01*
X93274217Y-120895886D01*
X93263713Y-120887374D01*
X93256669Y-120881131D01*
X93247462Y-120872229D01*
X93236559Y-120860167D01*
X93227224Y-120847885D01*
X93219457Y-120835384D01*
X93213258Y-120822664D01*
X93208628Y-120809724D01*
X93205567Y-120796565D01*
X93204074Y-120783187D01*
X93203945Y-120779808D01*
X93204470Y-120766214D01*
X93206574Y-120752634D01*
X93210256Y-120739067D01*
X93215516Y-120725514D01*
X93222355Y-120711974D01*
X93230773Y-120698448D01*
X93238122Y-120688312D01*
X93246359Y-120678183D01*
X93252344Y-120671435D01*
X93903028Y-119961337D01*
X93705436Y-119780277D01*
X93054751Y-120490375D01*
X93039908Y-120507205D01*
X93026130Y-120524134D01*
X93013419Y-120541163D01*
X93001774Y-120558291D01*
X92991194Y-120575518D01*
X92981681Y-120592844D01*
X92973234Y-120610270D01*
X92965853Y-120627795D01*
X92959538Y-120645419D01*
X92954289Y-120663142D01*
X92950105Y-120680965D01*
X92946988Y-120698886D01*
X92944937Y-120716908D01*
X92943953Y-120735028D01*
X92944034Y-120753247D01*
X92945181Y-120771566D01*
X92947382Y-120789836D01*
X92950631Y-120808016D01*
X92954928Y-120826108D01*
X92960272Y-120844112D01*
X92966664Y-120862027D01*
X92974103Y-120879853D01*
X92982590Y-120897591D01*
X92992124Y-120915240D01*
X93002706Y-120932800D01*
X93014336Y-120950272D01*
X93027013Y-120967655D01*
X93040737Y-120984950D01*
X93055510Y-121002156D01*
X93071329Y-121019273D01*
X93088196Y-121036302D01*
X93106111Y-121053242D01*
G37*
G36*
X92648376Y-119369117D02*
G01*
X92639653Y-119378900D01*
X92631295Y-119388812D01*
X92623304Y-119398852D01*
X92615677Y-119409020D01*
X92608417Y-119419316D01*
X92601523Y-119429740D01*
X92594994Y-119440292D01*
X92585887Y-119456360D01*
X92577603Y-119472717D01*
X92570141Y-119489362D01*
X92563503Y-119506295D01*
X92557688Y-119523517D01*
X92552696Y-119541027D01*
X92548434Y-119558565D01*
X92544818Y-119576036D01*
X92541848Y-119593441D01*
X92539522Y-119610779D01*
X92537843Y-119628050D01*
X92536808Y-119645255D01*
X92536419Y-119662392D01*
X92536676Y-119679463D01*
X92537578Y-119696467D01*
X92539125Y-119713405D01*
X92540515Y-119724659D01*
X92542889Y-119741483D01*
X92545411Y-119758234D01*
X92548080Y-119774913D01*
X92550896Y-119791521D01*
X92553859Y-119808056D01*
X92556970Y-119824519D01*
X92560228Y-119840910D01*
X92563634Y-119857229D01*
X92567187Y-119873477D01*
X92570887Y-119889652D01*
X92573436Y-119900395D01*
X92577260Y-119916470D01*
X92580909Y-119932599D01*
X92584382Y-119948782D01*
X92587681Y-119965019D01*
X92590804Y-119981310D01*
X92593752Y-119997655D01*
X92596525Y-120014054D01*
X92599123Y-120030507D01*
X92601545Y-120047013D01*
X92603793Y-120063574D01*
X92605194Y-120074645D01*
X92606965Y-120091052D01*
X92608192Y-120107029D01*
X92608876Y-120122573D01*
X92609016Y-120137686D01*
X92608613Y-120152367D01*
X92607666Y-120166617D01*
X92606175Y-120180435D01*
X92604140Y-120193821D01*
X92601562Y-120206776D01*
X92598440Y-120219299D01*
X92596056Y-120227408D01*
X92200871Y-119865288D01*
X92049988Y-120029948D01*
X92684845Y-120611687D01*
X92698448Y-120594875D01*
X92711368Y-120578201D01*
X92723605Y-120561668D01*
X92735158Y-120545274D01*
X92746027Y-120529019D01*
X92756213Y-120512905D01*
X92765716Y-120496929D01*
X92774536Y-120481094D01*
X92782672Y-120465398D01*
X92790124Y-120449842D01*
X92796893Y-120434425D01*
X92802979Y-120419148D01*
X92808381Y-120404010D01*
X92813100Y-120389012D01*
X92817136Y-120374154D01*
X92820488Y-120359435D01*
X92823236Y-120344443D01*
X92825465Y-120328873D01*
X92827175Y-120312725D01*
X92828366Y-120296000D01*
X92829038Y-120278696D01*
X92829190Y-120260816D01*
X92828823Y-120242357D01*
X92827937Y-120223321D01*
X92826532Y-120203708D01*
X92824608Y-120183516D01*
X92822164Y-120162747D01*
X92819201Y-120141401D01*
X92815719Y-120119476D01*
X92811718Y-120096974D01*
X92807198Y-120073895D01*
X92802158Y-120050238D01*
X92798765Y-120034818D01*
X92795492Y-120019709D01*
X92792336Y-120004910D01*
X92789300Y-119990421D01*
X92786382Y-119976241D01*
X92783582Y-119962372D01*
X92780901Y-119948813D01*
X92778339Y-119935564D01*
X92775895Y-119922624D01*
X92773570Y-119909995D01*
X92771363Y-119897676D01*
X92767306Y-119873967D01*
X92763723Y-119851498D01*
X92760615Y-119830269D01*
X92757980Y-119810281D01*
X92755820Y-119791532D01*
X92754135Y-119774023D01*
X92752924Y-119757754D01*
X92752187Y-119742725D01*
X92751925Y-119728936D01*
X92752136Y-119716387D01*
X92752420Y-119710577D01*
X92754024Y-119693647D01*
X92756785Y-119676948D01*
X92760701Y-119660480D01*
X92765774Y-119644244D01*
X92772003Y-119628239D01*
X92779388Y-119612465D01*
X92787930Y-119596922D01*
X92797628Y-119581610D01*
X92808482Y-119566530D01*
X92816361Y-119556605D01*
X92824753Y-119546783D01*
X92829142Y-119541910D01*
X92841196Y-119529373D01*
X92853390Y-119517917D01*
X92865724Y-119507544D01*
X92878198Y-119498253D01*
X92890811Y-119490045D01*
X92903565Y-119482918D01*
X92916458Y-119476874D01*
X92929492Y-119471912D01*
X92942665Y-119468032D01*
X92955978Y-119465234D01*
X92964931Y-119463970D01*
X92978279Y-119462969D01*
X92991457Y-119463113D01*
X93004466Y-119464403D01*
X93017304Y-119466840D01*
X93029973Y-119470422D01*
X93042472Y-119475149D01*
X93054800Y-119481023D01*
X93066959Y-119488043D01*
X93078948Y-119496208D01*
X93090767Y-119505520D01*
X93098551Y-119512364D01*
X93109787Y-119523366D01*
X93119825Y-119534683D01*
X93128665Y-119546315D01*
X93136307Y-119558261D01*
X93142751Y-119570522D01*
X93147996Y-119583098D01*
X93152044Y-119595988D01*
X93154894Y-119609193D01*
X93156545Y-119622713D01*
X93156999Y-119636548D01*
X93156635Y-119645946D01*
X93155149Y-119660123D01*
X93152498Y-119674335D01*
X93148683Y-119688582D01*
X93143704Y-119702865D01*
X93137562Y-119717183D01*
X93130255Y-119731537D01*
X93121785Y-119745926D01*
X93112150Y-119760350D01*
X93101352Y-119774810D01*
X93093507Y-119784470D01*
X93085144Y-119794145D01*
X93080768Y-119798988D01*
X93052897Y-119829405D01*
X93229449Y-119991185D01*
X93238672Y-119982331D01*
X93247412Y-119973500D01*
X93256567Y-119963852D01*
X93260769Y-119959301D01*
X93269080Y-119950073D01*
X93284877Y-119931564D01*
X93299574Y-119912985D01*
X93313173Y-119894335D01*
X93325672Y-119875615D01*
X93337073Y-119856825D01*
X93347374Y-119837964D01*
X93356576Y-119819033D01*
X93364679Y-119800032D01*
X93371683Y-119780960D01*
X93377588Y-119761818D01*
X93382394Y-119742605D01*
X93386101Y-119723323D01*
X93388709Y-119703969D01*
X93390217Y-119684546D01*
X93390627Y-119665052D01*
X93390420Y-119655278D01*
X93389185Y-119635807D01*
X93386861Y-119616519D01*
X93383447Y-119597417D01*
X93378944Y-119578500D01*
X93373351Y-119559767D01*
X93366668Y-119541219D01*
X93358896Y-119522856D01*
X93350034Y-119504677D01*
X93340083Y-119486684D01*
X93329041Y-119468875D01*
X93316910Y-119451251D01*
X93303690Y-119433812D01*
X93289379Y-119416557D01*
X93273979Y-119399488D01*
X93257490Y-119382603D01*
X93239911Y-119365903D01*
X93230679Y-119357588D01*
X93212145Y-119341758D01*
X93193515Y-119326994D01*
X93174789Y-119313296D01*
X93155967Y-119300664D01*
X93137049Y-119289097D01*
X93118036Y-119278597D01*
X93098927Y-119269162D01*
X93079722Y-119260794D01*
X93060421Y-119253491D01*
X93041024Y-119247254D01*
X93021531Y-119242083D01*
X93001943Y-119237978D01*
X92982259Y-119234939D01*
X92962479Y-119232966D01*
X92942603Y-119232058D01*
X92932629Y-119232004D01*
X92912795Y-119232688D01*
X92893237Y-119234424D01*
X92873955Y-119237211D01*
X92854948Y-119241049D01*
X92836217Y-119245939D01*
X92817762Y-119251880D01*
X92799583Y-119258872D01*
X92781679Y-119266916D01*
X92764051Y-119276011D01*
X92746699Y-119286158D01*
X92729622Y-119297356D01*
X92712822Y-119309605D01*
X92696297Y-119322906D01*
X92680048Y-119337258D01*
X92664074Y-119352662D01*
X92648376Y-119369117D01*
G37*
D11*
%TO.C,J1*%
X127607274Y-123404535D02*
X121989221Y-128552533D01*
X126201289Y-121870172D02*
X127607274Y-123404535D01*
X122974076Y-118348287D02*
X124380061Y-119882651D01*
X121989221Y-128552533D02*
X120583236Y-127018169D01*
X118762008Y-125030648D02*
X117356023Y-123496285D01*
X117356023Y-123496285D02*
X122974076Y-118348287D01*
D12*
X126210595Y-124512100D02*
X125086984Y-125541700D01*
X125133990Y-124465095D01*
X126210595Y-124512100D01*
G36*
X126210595Y-124512100D02*
G01*
X125086984Y-125541700D01*
X125133990Y-124465095D01*
X126210595Y-124512100D01*
G37*
D11*
%TO.C,J2*%
X90506193Y-128552532D02*
X84888140Y-123404535D01*
X91912178Y-127018169D02*
X90506193Y-128552532D01*
X95139391Y-123496284D02*
X93733406Y-125030648D01*
X84888140Y-123404535D02*
X86294125Y-121870172D01*
X88115352Y-119882650D02*
X89521337Y-118348287D01*
X89521337Y-118348287D02*
X95139391Y-123496284D01*
D12*
X89281114Y-127257699D02*
X88157503Y-126228099D01*
X89234108Y-126181094D01*
X89281114Y-127257699D01*
G36*
X89281114Y-127257699D02*
G01*
X88157503Y-126228099D01*
X89234108Y-126181094D01*
X89281114Y-127257699D01*
G37*
%TD*%
M02*
