M48
; DRILL file {KiCad 8.0.2-1} date 2024-09-28T15:44:23-0700
; FORMAT={-:-/ absolute / metric / decimal}
; #@! TF.CreationDate,2024-09-28T15:44:23-07:00
; #@! TF.GenerationSoftware,Kicad,Pcbnew,8.0.2-1
; #@! TF.FileFunction,MixedPlating,1,2
FMAT,2
METRIC
; #@! TA.AperFunction,Plated,PTH,ComponentDrill
T1C1.397
; #@! TA.AperFunction,Plated,PTH,ComponentDrill
T2C1.800
; #@! TA.AperFunction,Plated,PTH,ComponentDrill
T3C2.108
; #@! TA.AperFunction,NonPlated,NPTH,ComponentDrill
T4C3.175
%
G90
G05
T1
X184.15Y-79.408
X184.15Y-84.408
X184.15Y-89.408
X184.15Y-94.408
X184.15Y-99.408
X184.15Y-104.408
X184.15Y-109.408
X184.15Y-114.408
X184.15Y-119.408
X184.15Y-124.408
X192.35Y-79.408
X192.35Y-84.408
X192.35Y-89.408
X192.35Y-94.408
X192.35Y-99.408
X192.35Y-104.408
X192.35Y-109.408
X192.35Y-114.408
X192.35Y-119.408
X192.35Y-124.408
T2
X167.43Y-102.688
X167.43Y-106.088
X167.46Y-82.728
X167.46Y-86.128
X167.5Y-92.698
X167.5Y-96.098
X167.5Y-112.748
X167.5Y-116.148
X167.51Y-122.708
X167.51Y-126.108
X177.35Y-102.688
X177.35Y-106.088
X177.38Y-82.728
X177.38Y-86.128
X177.42Y-92.698
X177.42Y-96.098
X177.42Y-112.748
X177.42Y-116.148
X177.43Y-122.708
X177.43Y-126.108
T3
X149.051Y-87.656
X149.051Y-100.156
X152.267Y-105.344
X152.267Y-117.844
X156.551Y-87.656
X156.551Y-100.156
X159.767Y-105.344
X159.767Y-117.844
T4
X152.496Y-70.317
X152.496Y-133.817
X203.296Y-70.317
X203.296Y-133.817
M30
