%TF.GenerationSoftware,KiCad,Pcbnew,8.0.2-1*%
%TF.CreationDate,2024-09-28T15:44:19-07:00*%
%TF.ProjectId,PowerDistribution,506f7765-7244-4697-9374-726962757469,R1*%
%TF.SameCoordinates,Original*%
%TF.FileFunction,Soldermask,Top*%
%TF.FilePolarity,Negative*%
%FSLAX46Y46*%
G04 Gerber Fmt 4.6, Leading zero omitted, Abs format (unit mm)*
G04 Created by KiCad (PCBNEW 8.0.2-1) date 2024-09-28 15:44:19*
%MOMM*%
%LPD*%
G01*
G04 APERTURE LIST*
G04 Aperture macros list*
%AMRoundRect*
0 Rectangle with rounded corners*
0 $1 Rounding radius*
0 $2 $3 $4 $5 $6 $7 $8 $9 X,Y pos of 4 corners*
0 Add a 4 corners polygon primitive as box body*
4,1,4,$2,$3,$4,$5,$6,$7,$8,$9,$2,$3,0*
0 Add four circle primitives for the rounded corners*
1,1,$1+$1,$2,$3*
1,1,$1+$1,$4,$5*
1,1,$1+$1,$6,$7*
1,1,$1+$1,$8,$9*
0 Add four rect primitives between the rounded corners*
20,1,$1+$1,$2,$3,$4,$5,0*
20,1,$1+$1,$4,$5,$6,$7,0*
20,1,$1+$1,$6,$7,$8,$9,0*
20,1,$1+$1,$8,$9,$2,$3,0*%
G04 Aperture macros list end*
%ADD10RoundRect,0.250000X0.400000X0.625000X-0.400000X0.625000X-0.400000X-0.625000X0.400000X-0.625000X0*%
%ADD11C,3.175000*%
%ADD12RoundRect,0.250001X0.462499X0.624999X-0.462499X0.624999X-0.462499X-0.624999X0.462499X-0.624999X0*%
%ADD13C,3.204000*%
%ADD14C,4.000000*%
%ADD15C,2.500000*%
G04 APERTURE END LIST*
D10*
%TO.C,R1*%
X206770998Y-76932101D03*
X203670998Y-76932101D03*
%TD*%
%TO.C,R2*%
X206770998Y-86932101D03*
X203670998Y-86932101D03*
%TD*%
%TO.C,R5*%
X206793498Y-116932101D03*
X203693498Y-116932101D03*
%TD*%
D11*
%TO.C,H5*%
X203295998Y-70317101D03*
%TD*%
D12*
%TO.C,D2*%
X206668498Y-91932101D03*
X203693498Y-91932101D03*
%TD*%
%TO.C,D4*%
X206708498Y-111932101D03*
X203733498Y-111932101D03*
%TD*%
D13*
%TO.C,F1*%
X177429999Y-126108000D03*
X177429999Y-122708000D03*
X167509999Y-126108000D03*
X167509999Y-122708000D03*
%TD*%
D10*
%TO.C,R3*%
X206770998Y-96932101D03*
X203670998Y-96932101D03*
%TD*%
D11*
%TO.C,H1*%
X152495998Y-70317101D03*
%TD*%
D14*
%TO.C,J3*%
X156550999Y-100156000D03*
X156550999Y-87656000D03*
X149050999Y-100156000D03*
X149050999Y-87656000D03*
%TD*%
D12*
%TO.C,D1*%
X206668498Y-81932101D03*
X203693498Y-81932101D03*
%TD*%
D13*
%TO.C,F2*%
X177419999Y-116148000D03*
X177419999Y-112748000D03*
X167499999Y-116148000D03*
X167499999Y-112748000D03*
%TD*%
D15*
%TO.C,J2*%
X184150000Y-124408003D03*
X192349999Y-124408003D03*
X184150000Y-119408001D03*
X192349999Y-119408001D03*
X184150000Y-114408000D03*
X192349999Y-114408000D03*
X184150000Y-109408000D03*
X192349999Y-109408000D03*
X184150000Y-104408000D03*
X192349999Y-104408000D03*
X184150000Y-99408000D03*
X192349999Y-99408000D03*
X184150000Y-94408000D03*
X192349999Y-94408000D03*
X184150000Y-89408000D03*
X192349999Y-89408000D03*
X184150000Y-84408000D03*
X192349999Y-84408000D03*
X184150000Y-79407999D03*
X192349999Y-79407999D03*
%TD*%
D12*
%TO.C,D5*%
X206728498Y-121932101D03*
X203753498Y-121932101D03*
%TD*%
%TO.C,D3*%
X206708498Y-101932101D03*
X203733498Y-101932101D03*
%TD*%
D13*
%TO.C,F5*%
X177379999Y-86128000D03*
X177379999Y-82728000D03*
X167459999Y-86128000D03*
X167459999Y-82728000D03*
%TD*%
%TO.C,F3*%
X177349999Y-106088000D03*
X177349999Y-102688000D03*
X167429999Y-106088000D03*
X167429999Y-102688000D03*
%TD*%
D10*
%TO.C,R4*%
X206793498Y-106932101D03*
X203693498Y-106932101D03*
%TD*%
D11*
%TO.C,H6*%
X152495998Y-133817101D03*
%TD*%
%TO.C,H2*%
X203295998Y-133817101D03*
%TD*%
D13*
%TO.C,F4*%
X177419999Y-96098000D03*
X177419999Y-92698000D03*
X167499999Y-96098000D03*
X167499999Y-92698000D03*
%TD*%
D14*
%TO.C,J1*%
X152267397Y-105343701D03*
X152267397Y-117843701D03*
X159767397Y-105343701D03*
X159767397Y-117843701D03*
%TD*%
M02*
