%TF.GenerationSoftware,KiCad,Pcbnew,8.0.5-8.0.5-0~ubuntu24.04.1*%
%TF.CreationDate,2024-10-19T09:28:34-07:00*%
%TF.ProjectId,PowerDistribution,506f7765-7244-4697-9374-726962757469,R2*%
%TF.SameCoordinates,Original*%
%TF.FileFunction,Soldermask,Bot*%
%TF.FilePolarity,Negative*%
%FSLAX46Y46*%
G04 Gerber Fmt 4.6, Leading zero omitted, Abs format (unit mm)*
G04 Created by KiCad (PCBNEW 8.0.5-8.0.5-0~ubuntu24.04.1) date 2024-10-19 09:28:34*
%MOMM*%
%LPD*%
G01*
G04 APERTURE LIST*
%ADD10C,3.175000*%
%ADD11C,3.204000*%
%ADD12C,4.000000*%
%ADD13C,2.500000*%
G04 APERTURE END LIST*
D10*
%TO.C,H5*%
X236684891Y-46992572D03*
%TD*%
D11*
%TO.C,F1*%
X206373370Y-102783471D03*
X206373370Y-99383471D03*
X196453370Y-102783471D03*
X196453370Y-99383471D03*
%TD*%
D10*
%TO.C,H1*%
X178899369Y-46992572D03*
%TD*%
D12*
%TO.C,J3*%
X185494370Y-76831471D03*
X185494370Y-64331471D03*
X177994370Y-76831471D03*
X177994370Y-64331471D03*
%TD*%
D11*
%TO.C,F2*%
X206363370Y-92823471D03*
X206363370Y-89423471D03*
X196443370Y-92823471D03*
X196443370Y-89423471D03*
%TD*%
D13*
%TO.C,J2*%
X213093371Y-101083474D03*
X221293370Y-101083474D03*
X213093371Y-96083472D03*
X221293370Y-96083472D03*
X213093371Y-91083471D03*
X221293370Y-91083471D03*
X213093371Y-86083471D03*
X221293370Y-86083471D03*
X213093371Y-81083471D03*
X221293370Y-81083471D03*
X213093371Y-76083471D03*
X221293370Y-76083471D03*
X213093371Y-71083471D03*
X221293370Y-71083471D03*
X213093371Y-66083471D03*
X221293370Y-66083471D03*
X213093371Y-61083471D03*
X221293370Y-61083471D03*
X213093371Y-56083470D03*
X221293370Y-56083470D03*
%TD*%
D11*
%TO.C,F5*%
X206323370Y-62803471D03*
X206323370Y-59403471D03*
X196403370Y-62803471D03*
X196403370Y-59403471D03*
%TD*%
%TO.C,F3*%
X206293370Y-82763471D03*
X206293370Y-79363471D03*
X196373370Y-82763471D03*
X196373370Y-79363471D03*
%TD*%
D10*
%TO.C,H6*%
X178899369Y-110492831D03*
%TD*%
%TO.C,H2*%
X236684891Y-110492831D03*
%TD*%
D11*
%TO.C,F4*%
X206363370Y-72773471D03*
X206363370Y-69373471D03*
X196443370Y-72773471D03*
X196443370Y-69373471D03*
%TD*%
D12*
%TO.C,J1*%
X181210768Y-82019172D03*
X181210768Y-94519172D03*
X188710768Y-82019172D03*
X188710768Y-94519172D03*
%TD*%
M02*
