%TF.GenerationSoftware,KiCad,Pcbnew,8.0.5-8.0.5-0~ubuntu22.04.1*%
%TF.CreationDate,2024-10-14T22:41:31-07:00*%
%TF.ProjectId,PowerDistribution,506f7765-7244-4697-9374-726962757469,R2*%
%TF.SameCoordinates,Original*%
%TF.FileFunction,Legend,Bot*%
%TF.FilePolarity,Positive*%
%FSLAX46Y46*%
G04 Gerber Fmt 4.6, Leading zero omitted, Abs format (unit mm)*
G04 Created by KiCad (PCBNEW 8.0.5-8.0.5-0~ubuntu22.04.1) date 2024-10-14 22:41:31*
%MOMM*%
%LPD*%
G01*
G04 APERTURE LIST*
%ADD10C,0.225000*%
%ADD11C,0.300000*%
%ADD12C,0.000000*%
G04 APERTURE END LIST*
D10*
G36*
X216854351Y-109794227D02*
G01*
X216166478Y-109794227D01*
X216166478Y-110103920D01*
X217302139Y-110103920D01*
X217302139Y-109794227D01*
X216731889Y-109291722D01*
X216676222Y-109235418D01*
X216631113Y-109176018D01*
X216618732Y-109155115D01*
X216589979Y-109082852D01*
X216581882Y-109016647D01*
X216592298Y-108939300D01*
X216627092Y-108869329D01*
X216655955Y-108837606D01*
X216718088Y-108796324D01*
X216793934Y-108774095D01*
X216852118Y-108769861D01*
X216931583Y-108776803D01*
X217010169Y-108795533D01*
X217058331Y-108811923D01*
X217129883Y-108842013D01*
X217196890Y-108875995D01*
X217266371Y-108916512D01*
X217298045Y-108936618D01*
X217298045Y-108603104D01*
X217221678Y-108578698D01*
X217145841Y-108557826D01*
X217070534Y-108540487D01*
X217028925Y-108532381D01*
X216954590Y-108520505D01*
X216872962Y-108511868D01*
X216792352Y-108508030D01*
X216768367Y-108507814D01*
X216683724Y-108510804D01*
X216605206Y-108519773D01*
X216519069Y-108538430D01*
X216441752Y-108565697D01*
X216373255Y-108601574D01*
X216332490Y-108630276D01*
X216271865Y-108688485D01*
X216226130Y-108755955D01*
X216195285Y-108832687D01*
X216180698Y-108905830D01*
X216176900Y-108971980D01*
X216183334Y-109049442D01*
X216202636Y-109123633D01*
X216234806Y-109194552D01*
X216242784Y-109208344D01*
X216291356Y-109275789D01*
X216345053Y-109336389D01*
X216402165Y-109394003D01*
X216457575Y-109446013D01*
X216520092Y-109501658D01*
X216854351Y-109794227D01*
G37*
G36*
X215279144Y-108508637D02*
G01*
X215369375Y-108517895D01*
X215452717Y-108537441D01*
X215529170Y-108567273D01*
X215598735Y-108607393D01*
X215661412Y-108657800D01*
X215717201Y-108718494D01*
X215737484Y-108745525D01*
X215782467Y-108819198D01*
X215819272Y-108901577D01*
X215842827Y-108973748D01*
X215861147Y-109051491D01*
X215874234Y-109134806D01*
X215882085Y-109223692D01*
X215884702Y-109318150D01*
X215884539Y-109342241D01*
X215880613Y-109435138D01*
X215871453Y-109522486D01*
X215857058Y-109604286D01*
X215837429Y-109680537D01*
X215805532Y-109768048D01*
X215765456Y-109846890D01*
X215717201Y-109917062D01*
X215684554Y-109954713D01*
X215624633Y-110009234D01*
X215557823Y-110053469D01*
X215484125Y-110087417D01*
X215403538Y-110111077D01*
X215316063Y-110124450D01*
X215241123Y-110127742D01*
X215203193Y-110126919D01*
X215113162Y-110117661D01*
X215029984Y-110098115D01*
X214953658Y-110068282D01*
X214884183Y-110028163D01*
X214821561Y-109977756D01*
X214765791Y-109917062D01*
X214745507Y-109890033D01*
X214700524Y-109816393D01*
X214663719Y-109734084D01*
X214640164Y-109661994D01*
X214621844Y-109584356D01*
X214608758Y-109501169D01*
X214600906Y-109412434D01*
X214598289Y-109318150D01*
X214598314Y-109314428D01*
X215001410Y-109314428D01*
X215001464Y-109333190D01*
X215003360Y-109421769D01*
X215007963Y-109501623D01*
X215017063Y-109585932D01*
X215032607Y-109668415D01*
X215056872Y-109741744D01*
X215098696Y-109807108D01*
X215161245Y-109851048D01*
X215241123Y-109865695D01*
X215321638Y-109851048D01*
X215384558Y-109807108D01*
X215426492Y-109741744D01*
X215433208Y-109725505D01*
X215455739Y-109646593D01*
X215468088Y-109572753D01*
X215476538Y-109486350D01*
X215480600Y-109404751D01*
X215481954Y-109314428D01*
X215481900Y-109295873D01*
X215480004Y-109208291D01*
X215475400Y-109129360D01*
X215466301Y-109046063D01*
X215450757Y-108964628D01*
X215426492Y-108892324D01*
X215422953Y-108884789D01*
X215379565Y-108822601D01*
X215315045Y-108781820D01*
X215241123Y-108769861D01*
X215160697Y-108784332D01*
X215098040Y-108827744D01*
X215056499Y-108892324D01*
X215053110Y-108900150D01*
X215029869Y-108975224D01*
X215015182Y-109059081D01*
X215006790Y-109144454D01*
X215002755Y-109225115D01*
X215001410Y-109314428D01*
X214598314Y-109314428D01*
X214598453Y-109294013D01*
X214602378Y-109200948D01*
X214611539Y-109113455D01*
X214625933Y-109031533D01*
X214645562Y-108955183D01*
X214677460Y-108867581D01*
X214717536Y-108788684D01*
X214765791Y-108718494D01*
X214798431Y-108680843D01*
X214858312Y-108626321D01*
X214925046Y-108582087D01*
X214998631Y-108548139D01*
X215079069Y-108524479D01*
X215166358Y-108511106D01*
X215241123Y-108507814D01*
X215279144Y-108508637D01*
G37*
G36*
X213885476Y-109794227D02*
G01*
X213197602Y-109794227D01*
X213197602Y-110103920D01*
X214333264Y-110103920D01*
X214333264Y-109794227D01*
X213763014Y-109291722D01*
X213707347Y-109235418D01*
X213662238Y-109176018D01*
X213649857Y-109155115D01*
X213621104Y-109082852D01*
X213613007Y-109016647D01*
X213623423Y-108939300D01*
X213658217Y-108869329D01*
X213687080Y-108837606D01*
X213749212Y-108796324D01*
X213825059Y-108774095D01*
X213883243Y-108769861D01*
X213962707Y-108776803D01*
X214041293Y-108795533D01*
X214089456Y-108811923D01*
X214161008Y-108842013D01*
X214228015Y-108875995D01*
X214297495Y-108916512D01*
X214329170Y-108936618D01*
X214329170Y-108603104D01*
X214252802Y-108578698D01*
X214176965Y-108557826D01*
X214101658Y-108540487D01*
X214060050Y-108532381D01*
X213985715Y-108520505D01*
X213904087Y-108511868D01*
X213823476Y-108508030D01*
X213799492Y-108507814D01*
X213714849Y-108510804D01*
X213636330Y-108519773D01*
X213550193Y-108538430D01*
X213472876Y-108565697D01*
X213404380Y-108601574D01*
X213363615Y-108630276D01*
X213302989Y-108688485D01*
X213257254Y-108755955D01*
X213226410Y-108832687D01*
X213211823Y-108905830D01*
X213208025Y-108971980D01*
X213214459Y-109049442D01*
X213233760Y-109123633D01*
X213265930Y-109194552D01*
X213273909Y-109208344D01*
X213322481Y-109275789D01*
X213376178Y-109336389D01*
X213433290Y-109394003D01*
X213488700Y-109446013D01*
X213551217Y-109501658D01*
X213885476Y-109794227D01*
G37*
G36*
X212922155Y-109470391D02*
G01*
X212922155Y-109818050D01*
X212229070Y-109818050D01*
X212229070Y-110103920D01*
X211848283Y-110103920D01*
X211848283Y-109818050D01*
X211625319Y-109818050D01*
X211625319Y-109532180D01*
X211848283Y-109532180D01*
X212229070Y-109532180D01*
X212670902Y-109532180D01*
X212229070Y-108868501D01*
X212229070Y-109532180D01*
X211848283Y-109532180D01*
X211848283Y-108531636D01*
X212296071Y-108531636D01*
X212922155Y-109470391D01*
G37*
D11*
G36*
X217366197Y-104668273D02*
G01*
X215190908Y-104668273D01*
X215190908Y-105287658D01*
X216559956Y-105287658D01*
X216559956Y-105859397D01*
X215272798Y-105859397D01*
X215272798Y-106478781D01*
X216559956Y-106478781D01*
X216559956Y-107812840D01*
X217366197Y-107812840D01*
X217366197Y-104668273D01*
G37*
G36*
X214450922Y-107812840D02*
G01*
X213644681Y-107812840D01*
X213644681Y-106621716D01*
X213416878Y-106621716D01*
X213392617Y-106622053D01*
X213239885Y-106643305D01*
X213101975Y-106708072D01*
X213028286Y-106776658D01*
X212940627Y-106897538D01*
X212868217Y-107030420D01*
X212487058Y-107812840D01*
X211628704Y-107812840D01*
X212066442Y-106918752D01*
X212074814Y-106901720D01*
X212149902Y-106760731D01*
X212232781Y-106630045D01*
X212331467Y-106509304D01*
X212356335Y-106484756D01*
X212480344Y-106392869D01*
X212627759Y-106335846D01*
X212554756Y-106310581D01*
X212407852Y-106241827D01*
X212284974Y-106156585D01*
X212176621Y-106042532D01*
X212141376Y-105990921D01*
X212073823Y-105846727D01*
X212038137Y-105698429D01*
X212034091Y-105642017D01*
X212832483Y-105642017D01*
X212833452Y-105681703D01*
X212860028Y-105828874D01*
X212942662Y-105954687D01*
X212997451Y-105991816D01*
X213148493Y-106038717D01*
X213305955Y-106049977D01*
X213644681Y-106049977D01*
X213644681Y-105240013D01*
X213305955Y-105240013D01*
X213230150Y-105242285D01*
X213076991Y-105266276D01*
X212942662Y-105333069D01*
X212922972Y-105351597D01*
X212850667Y-105486878D01*
X212832483Y-105642017D01*
X212034091Y-105642017D01*
X212026242Y-105532582D01*
X212030743Y-105424125D01*
X212060285Y-105252462D01*
X212117399Y-105103883D01*
X212202086Y-104978387D01*
X212314345Y-104875976D01*
X212433725Y-104805389D01*
X212576345Y-104749407D01*
X212742207Y-104708029D01*
X212898178Y-104684703D01*
X213070289Y-104671519D01*
X213219599Y-104668273D01*
X214450922Y-104668273D01*
X214450922Y-107812840D01*
G37*
G36*
X208687374Y-107632682D02*
G01*
X208827918Y-107697952D01*
X208972243Y-107752318D01*
X209120348Y-107795778D01*
X209150423Y-107803162D01*
X209302817Y-107833390D01*
X209459429Y-107852423D01*
X209620256Y-107860261D01*
X209652928Y-107860484D01*
X209843089Y-107853668D01*
X210023107Y-107833219D01*
X210192982Y-107799137D01*
X210352713Y-107751422D01*
X210502301Y-107690075D01*
X210641747Y-107615094D01*
X210771049Y-107526481D01*
X210890208Y-107424235D01*
X210997164Y-107310323D01*
X211089860Y-107186709D01*
X211168295Y-107053394D01*
X211232470Y-106910377D01*
X211282383Y-106757660D01*
X211318035Y-106595241D01*
X211339426Y-106423122D01*
X211346557Y-106241301D01*
X211339426Y-106059131D01*
X211318035Y-105886709D01*
X211282383Y-105724035D01*
X211232470Y-105571108D01*
X211168295Y-105427929D01*
X211089860Y-105294497D01*
X210997164Y-105170814D01*
X210890208Y-105056877D01*
X210771049Y-104954632D01*
X210641747Y-104866019D01*
X210502301Y-104791038D01*
X210352713Y-104729691D01*
X210192982Y-104681976D01*
X210023107Y-104647894D01*
X209843089Y-104627445D01*
X209652928Y-104620628D01*
X209491257Y-104626226D01*
X209333802Y-104643020D01*
X209180564Y-104671010D01*
X209150423Y-104677951D01*
X209001561Y-104719231D01*
X208856481Y-104771415D01*
X208715180Y-104834504D01*
X208687374Y-104848431D01*
X208687374Y-105478237D01*
X208826842Y-105393425D01*
X208965147Y-105324171D01*
X209115940Y-105265960D01*
X209129578Y-105261602D01*
X209281842Y-105222184D01*
X209439736Y-105199129D01*
X209588161Y-105192368D01*
X209743335Y-105202182D01*
X209908032Y-105238442D01*
X210055130Y-105301418D01*
X210184631Y-105391113D01*
X210266357Y-105471537D01*
X210362661Y-105603791D01*
X210435312Y-105756279D01*
X210478758Y-105903087D01*
X210504826Y-106064761D01*
X210513515Y-106241301D01*
X210504826Y-106417335D01*
X210478758Y-106578608D01*
X210435312Y-106725119D01*
X210362661Y-106877393D01*
X210266357Y-107009576D01*
X210149426Y-107118354D01*
X210014898Y-107200414D01*
X209862771Y-107255757D01*
X209693047Y-107284383D01*
X209588161Y-107288745D01*
X209425149Y-107280652D01*
X209267767Y-107256373D01*
X209129578Y-107220256D01*
X208978914Y-107163333D01*
X208840725Y-107095401D01*
X208701373Y-107012058D01*
X208687374Y-107002876D01*
X208687374Y-107632682D01*
G37*
G36*
X205650986Y-104625409D02*
G01*
X205808964Y-104644831D01*
X205956037Y-104679193D01*
X206118129Y-104740148D01*
X206264519Y-104822616D01*
X206395205Y-104926598D01*
X206453744Y-104985747D01*
X206553547Y-105114724D01*
X206630318Y-105257938D01*
X206684059Y-105415389D01*
X206714767Y-105587079D01*
X206722764Y-105741029D01*
X206722477Y-105769610D01*
X206708693Y-105933796D01*
X206674233Y-106085473D01*
X206619097Y-106224639D01*
X206528640Y-106371187D01*
X206428706Y-106483248D01*
X206391224Y-106517324D01*
X206270091Y-106606362D01*
X206135924Y-106675613D01*
X205988723Y-106725079D01*
X205828488Y-106754758D01*
X205655220Y-106764651D01*
X205608389Y-106763837D01*
X205451443Y-106748162D01*
X205305327Y-106712539D01*
X205265243Y-106698511D01*
X205129712Y-106636588D01*
X205001591Y-106554715D01*
X205025133Y-106715284D01*
X205071405Y-106876458D01*
X205138336Y-107013810D01*
X205238327Y-107139855D01*
X205348738Y-107225839D01*
X205496643Y-107293206D01*
X205649175Y-107326986D01*
X205798899Y-107336390D01*
X205841949Y-107335646D01*
X205993541Y-107321315D01*
X206146558Y-107288745D01*
X206224242Y-107265621D01*
X206372860Y-107210578D01*
X206515062Y-107145810D01*
X206515062Y-107717550D01*
X206418144Y-107751050D01*
X206270847Y-107792925D01*
X206121247Y-107824751D01*
X206019583Y-107840384D01*
X205862724Y-107855459D01*
X205700631Y-107860484D01*
X205534688Y-107853563D01*
X205377818Y-107832800D01*
X205230021Y-107798195D01*
X205058034Y-107735472D01*
X204900223Y-107651122D01*
X204756589Y-107545143D01*
X204627131Y-107417535D01*
X204535354Y-107301610D01*
X204455814Y-107175309D01*
X204388511Y-107038632D01*
X204333445Y-106891580D01*
X204290616Y-106734152D01*
X204260023Y-106566347D01*
X204241668Y-106388167D01*
X204235549Y-106199612D01*
X204235877Y-106152812D01*
X204243728Y-105972288D01*
X204262049Y-105802443D01*
X204281909Y-105692640D01*
X205096136Y-105692640D01*
X205102836Y-105821058D01*
X205133929Y-105969675D01*
X205203337Y-106103577D01*
X205231580Y-106135682D01*
X205366497Y-106217950D01*
X205520474Y-106240556D01*
X205559200Y-106239353D01*
X205715698Y-106201897D01*
X205839099Y-106103577D01*
X205895239Y-106004588D01*
X205935160Y-105850487D01*
X205945556Y-105692640D01*
X205938903Y-105565152D01*
X205908026Y-105417207D01*
X205839099Y-105283191D01*
X205810671Y-105250737D01*
X205675055Y-105167575D01*
X205520474Y-105144723D01*
X205481887Y-105145940D01*
X205326041Y-105183802D01*
X205203337Y-105283191D01*
X205146805Y-105382354D01*
X205106605Y-105535898D01*
X205096136Y-105692640D01*
X204281909Y-105692640D01*
X204290838Y-105643275D01*
X204330096Y-105494786D01*
X204393891Y-105324191D01*
X204474043Y-105170281D01*
X204570553Y-105033055D01*
X204613507Y-104983113D01*
X204730333Y-104872354D01*
X204860645Y-104781733D01*
X205004443Y-104711250D01*
X205161726Y-104660905D01*
X205332496Y-104630697D01*
X205516752Y-104620628D01*
X205650986Y-104625409D01*
G37*
G36*
X203689122Y-104668273D02*
G01*
X201333675Y-104668273D01*
X201333675Y-105125367D01*
X202551599Y-107812840D01*
X203336996Y-107812840D01*
X202183095Y-105287658D01*
X203689122Y-105287658D01*
X203689122Y-104668273D01*
G37*
G36*
X200504355Y-107241100D02*
G01*
X199792659Y-107241100D01*
X199792659Y-105240013D01*
X200522966Y-105382948D01*
X200522966Y-104811208D01*
X199796381Y-104668273D01*
X199030340Y-104668273D01*
X199030340Y-107241100D01*
X198318643Y-107241100D01*
X198318643Y-107812840D01*
X200504355Y-107812840D01*
X200504355Y-107241100D01*
G37*
G36*
X366187116Y-110496040D02*
G01*
X366286299Y-110505164D01*
X366394059Y-110524141D01*
X366489535Y-110551878D01*
X366585398Y-110595308D01*
X366621365Y-110617570D01*
X366701921Y-110687021D01*
X366759460Y-110771300D01*
X366793984Y-110870405D01*
X366805313Y-110969285D01*
X366805492Y-110984337D01*
X366796478Y-111083210D01*
X366765737Y-111180326D01*
X366713180Y-111265244D01*
X366638339Y-111335266D01*
X366550555Y-111383655D01*
X366455472Y-111414774D01*
X366432274Y-111420090D01*
X366530648Y-111436449D01*
X366629815Y-111465964D01*
X366724471Y-111512960D01*
X366793581Y-111566995D01*
X366859273Y-111648953D01*
X366900635Y-111745935D01*
X366917058Y-111846065D01*
X366918153Y-111882146D01*
X366908582Y-111991116D01*
X366879870Y-112088734D01*
X366823617Y-112186397D01*
X366753887Y-112259689D01*
X366718143Y-112287625D01*
X366623206Y-112343319D01*
X366529998Y-112380169D01*
X366425868Y-112406970D01*
X366310815Y-112423720D01*
X366206594Y-112430001D01*
X366162782Y-112430560D01*
X365183083Y-112430560D01*
X365183083Y-112112927D01*
X365593028Y-112112927D01*
X366128041Y-112112927D01*
X366230470Y-112107509D01*
X366332843Y-112086173D01*
X366415896Y-112044437D01*
X366481442Y-111964605D01*
X366506413Y-111862743D01*
X366507215Y-111837479D01*
X366488335Y-111734406D01*
X366420520Y-111647608D01*
X366320724Y-111598783D01*
X366205131Y-111577084D01*
X366112656Y-111572951D01*
X365593028Y-111572951D01*
X365593028Y-112112927D01*
X365183083Y-112112927D01*
X365183083Y-111287081D01*
X365593028Y-111287081D01*
X366062529Y-111287081D01*
X366161789Y-111281313D01*
X366263004Y-111256571D01*
X366314650Y-111228021D01*
X366375836Y-111147934D01*
X366393066Y-111049353D01*
X366377012Y-110950354D01*
X366314351Y-110868710D01*
X366309191Y-110865225D01*
X366212674Y-110826039D01*
X366109707Y-110811964D01*
X366060048Y-110810632D01*
X365593028Y-110810632D01*
X365593028Y-111287081D01*
X365183083Y-111287081D01*
X365183083Y-110492999D01*
X366079403Y-110492999D01*
X366187116Y-110496040D01*
G37*
G36*
X367238764Y-112430560D02*
G01*
X367238764Y-112017637D01*
X367640272Y-112017637D01*
X367640272Y-112430560D01*
X367238764Y-112430560D01*
G37*
G36*
X369622003Y-111873709D02*
G01*
X369614501Y-111976182D01*
X369586782Y-112083781D01*
X369538640Y-112178508D01*
X369470074Y-112260363D01*
X369408594Y-112310951D01*
X369321737Y-112362394D01*
X369220852Y-112403193D01*
X369105939Y-112433349D01*
X368999462Y-112450349D01*
X368883243Y-112459958D01*
X368783254Y-112462323D01*
X368669512Y-112459027D01*
X368563718Y-112449140D01*
X368447258Y-112428574D01*
X368342243Y-112398517D01*
X368248675Y-112358968D01*
X368192655Y-112327329D01*
X368106386Y-112261619D01*
X368034746Y-112182610D01*
X367977735Y-112090302D01*
X367935354Y-111984695D01*
X367917704Y-111918376D01*
X368313753Y-111854353D01*
X368350422Y-111949534D01*
X368411025Y-112030761D01*
X368470584Y-112076200D01*
X368570759Y-112117936D01*
X368673645Y-112138001D01*
X368781326Y-112144623D01*
X368794172Y-112144690D01*
X368894790Y-112140665D01*
X369001696Y-112124315D01*
X369102313Y-112088093D01*
X369181549Y-112022943D01*
X369221796Y-111918301D01*
X369223473Y-111887109D01*
X369200015Y-111787882D01*
X369173843Y-111751619D01*
X369091828Y-111689177D01*
X369034879Y-111662781D01*
X368935101Y-111631290D01*
X368834163Y-111606610D01*
X368722558Y-111582694D01*
X368691438Y-111576425D01*
X368590068Y-111552137D01*
X368486737Y-111525354D01*
X368391243Y-111496478D01*
X368385716Y-111494535D01*
X368289531Y-111454145D01*
X368230374Y-111422075D01*
X368148156Y-111360091D01*
X368112254Y-111321822D01*
X368057608Y-111235543D01*
X368036320Y-111183354D01*
X368014650Y-111086238D01*
X368009520Y-111000715D01*
X368019043Y-110892152D01*
X368047613Y-110795322D01*
X368103586Y-110699024D01*
X368172970Y-110627333D01*
X368208537Y-110600200D01*
X368304492Y-110546052D01*
X368400538Y-110510226D01*
X368509321Y-110484170D01*
X368609703Y-110469921D01*
X368718931Y-110462457D01*
X368788713Y-110461235D01*
X368897975Y-110464022D01*
X368998391Y-110472383D01*
X369107215Y-110489773D01*
X369203301Y-110515189D01*
X369299304Y-110554985D01*
X369335141Y-110575385D01*
X369418365Y-110641517D01*
X369485396Y-110726260D01*
X369530767Y-110815678D01*
X369563740Y-110919345D01*
X369570884Y-110951581D01*
X369173347Y-111004685D01*
X369138264Y-110911133D01*
X369071729Y-110829243D01*
X369049271Y-110812120D01*
X368951616Y-110767676D01*
X368853029Y-110750216D01*
X368780276Y-110747105D01*
X368673043Y-110752776D01*
X368568354Y-110774551D01*
X368479296Y-110820596D01*
X368417137Y-110912461D01*
X368408050Y-110979374D01*
X368430383Y-111077921D01*
X368447754Y-111103946D01*
X368528527Y-111168620D01*
X368564881Y-111186828D01*
X368663649Y-111219737D01*
X368771653Y-111246849D01*
X368880529Y-111270703D01*
X368980605Y-111292722D01*
X369083115Y-111317618D01*
X369181484Y-111345023D01*
X369276266Y-111377709D01*
X369284022Y-111380882D01*
X369374380Y-111424716D01*
X369457673Y-111482011D01*
X369476091Y-111498505D01*
X369541973Y-111577117D01*
X369584284Y-111658811D01*
X369612574Y-111759188D01*
X369621856Y-111858621D01*
X369622003Y-111873709D01*
G37*
G36*
X369930206Y-112430560D02*
G01*
X369930206Y-110937685D01*
X370320796Y-110937685D01*
X370320796Y-112430560D01*
X369930206Y-112430560D01*
G37*
G36*
X369930206Y-110651815D02*
G01*
X369930206Y-110365945D01*
X370320796Y-110365945D01*
X370320796Y-110651815D01*
X369930206Y-110651815D01*
G37*
G36*
X370720318Y-112430560D02*
G01*
X370720318Y-110365945D01*
X371110908Y-110365945D01*
X371110908Y-112430560D01*
X370720318Y-112430560D01*
G37*
G36*
X372470277Y-112430560D02*
G01*
X372068769Y-111763034D01*
X371901020Y-111877680D01*
X371901020Y-112430560D01*
X371510430Y-112430560D01*
X371510430Y-110365945D01*
X371901020Y-110365945D01*
X371901020Y-111566995D01*
X372437025Y-110937685D01*
X372856400Y-110937685D01*
X372328831Y-111531758D01*
X372896600Y-112430560D01*
X372470277Y-112430560D01*
G37*
D12*
%TO.C,G\u002A\u002A\u002A*%
G36*
X204344125Y-109272180D02*
G01*
X204383402Y-109278650D01*
X204423186Y-109289907D01*
X204454372Y-109304419D01*
X204458048Y-109307034D01*
X204487547Y-109345236D01*
X204512231Y-109410169D01*
X204516103Y-109423431D01*
X204522652Y-109442242D01*
X204531620Y-109461239D01*
X204544820Y-109482423D01*
X204564067Y-109507794D01*
X204591175Y-109539352D01*
X204627957Y-109579098D01*
X204676228Y-109629032D01*
X204737801Y-109691155D01*
X204814490Y-109767466D01*
X204908109Y-109859967D01*
X205020473Y-109970658D01*
X205505182Y-110447887D01*
X205480395Y-110485717D01*
X205456127Y-110512421D01*
X205432531Y-110523547D01*
X205419283Y-110514811D01*
X205387385Y-110487629D01*
X205339201Y-110443961D01*
X205276845Y-110385801D01*
X205202434Y-110315141D01*
X205118084Y-110233977D01*
X205025909Y-110144301D01*
X204928027Y-110048108D01*
X204446599Y-109572668D01*
X204382931Y-109572668D01*
X204380310Y-109572650D01*
X204318312Y-109558993D01*
X204268506Y-109519637D01*
X204230288Y-109454111D01*
X204220444Y-109425394D01*
X204222666Y-109407894D01*
X204242823Y-109411306D01*
X204282401Y-109435087D01*
X204318191Y-109457458D01*
X204351801Y-109469440D01*
X204376688Y-109461637D01*
X204399853Y-109433983D01*
X204401070Y-109432125D01*
X204413531Y-109410408D01*
X204413608Y-109393765D01*
X204398134Y-109374254D01*
X204363944Y-109343938D01*
X204339390Y-109321707D01*
X204313446Y-109294707D01*
X204303468Y-109279024D01*
X204314458Y-109272030D01*
X204344125Y-109272180D01*
G37*
G36*
X203556886Y-110514878D02*
G01*
X203603932Y-110557468D01*
X203630082Y-110583533D01*
X203671605Y-110619140D01*
X203705790Y-110642153D01*
X203711759Y-110644895D01*
X203744490Y-110658302D01*
X203799842Y-110679973D01*
X203874636Y-110708713D01*
X203965689Y-110743328D01*
X204069823Y-110782623D01*
X204183856Y-110825404D01*
X204304606Y-110870476D01*
X204428895Y-110916644D01*
X204553540Y-110962715D01*
X204675361Y-111007493D01*
X204791177Y-111049784D01*
X204841570Y-111069139D01*
X204894451Y-111092067D01*
X204931887Y-111111436D01*
X204947949Y-111124423D01*
X204949190Y-111146226D01*
X204939813Y-111179996D01*
X204923880Y-111203298D01*
X204902869Y-111215096D01*
X204893539Y-111212754D01*
X204859115Y-111201491D01*
X204802519Y-111181834D01*
X204726601Y-111154808D01*
X204634208Y-111121435D01*
X204528186Y-111082741D01*
X204411385Y-111039750D01*
X204286650Y-110993485D01*
X204202352Y-110962124D01*
X204081642Y-110917299D01*
X203970340Y-110876064D01*
X203871378Y-110839498D01*
X203787687Y-110808683D01*
X203722199Y-110784700D01*
X203677845Y-110768628D01*
X203657555Y-110761550D01*
X203654587Y-110760753D01*
X203613106Y-110761030D01*
X203559425Y-110775784D01*
X203495121Y-110800342D01*
X203428721Y-110759194D01*
X203390664Y-110734178D01*
X203361549Y-110708958D01*
X203359073Y-110693158D01*
X203383318Y-110685669D01*
X203434371Y-110685384D01*
X203518495Y-110689231D01*
X203522883Y-110636603D01*
X203524313Y-110615814D01*
X203520936Y-110592786D01*
X203503687Y-110581422D01*
X203465254Y-110573750D01*
X203446363Y-110570475D01*
X203397981Y-110559135D01*
X203377077Y-110547232D01*
X203382620Y-110533639D01*
X203413580Y-110517228D01*
X203463327Y-110499834D01*
X203513006Y-110496298D01*
X203556886Y-110514878D01*
G37*
G36*
X207076300Y-108135332D02*
G01*
X207103651Y-108168621D01*
X207125042Y-108218280D01*
X207122459Y-108272464D01*
X207096565Y-108337819D01*
X207092088Y-108346739D01*
X207082738Y-108368047D01*
X207076166Y-108390856D01*
X207072094Y-108419715D01*
X207070245Y-108459173D01*
X207070340Y-108513777D01*
X207072102Y-108588077D01*
X207075252Y-108686622D01*
X207076955Y-108734926D01*
X207081284Y-108845640D01*
X207086672Y-108972285D01*
X207092741Y-109106403D01*
X207099113Y-109239540D01*
X207105413Y-109363236D01*
X207105976Y-109373944D01*
X207112121Y-109498635D01*
X207116040Y-109596976D01*
X207117757Y-109671173D01*
X207117297Y-109723435D01*
X207114685Y-109755967D01*
X207109944Y-109770977D01*
X207086043Y-109783217D01*
X207049501Y-109785911D01*
X207005052Y-109781573D01*
X206994784Y-109594279D01*
X206993386Y-109568205D01*
X206989634Y-109495041D01*
X206984960Y-109400818D01*
X206979616Y-109290758D01*
X206973854Y-109170084D01*
X206967927Y-109044018D01*
X206962088Y-108917784D01*
X206958836Y-108846705D01*
X206953303Y-108728043D01*
X206948400Y-108633160D01*
X206943597Y-108558752D01*
X206938360Y-108501512D01*
X206932157Y-108458137D01*
X206924458Y-108425319D01*
X206914729Y-108399754D01*
X206902439Y-108378137D01*
X206887055Y-108357161D01*
X206868046Y-108333522D01*
X206864567Y-108329115D01*
X206849201Y-108302983D01*
X206845601Y-108273219D01*
X206851936Y-108227813D01*
X206856909Y-108203425D01*
X206870440Y-108158279D01*
X206884306Y-108141621D01*
X206898311Y-108153560D01*
X206912260Y-108194203D01*
X206924375Y-108234619D01*
X206945125Y-108272648D01*
X206971645Y-108286186D01*
X207006857Y-108277814D01*
X207010733Y-108276029D01*
X207029063Y-108265080D01*
X207037762Y-108249234D01*
X207038878Y-108220589D01*
X207034456Y-108171243D01*
X207025086Y-108081517D01*
X207076300Y-108135332D01*
G37*
G36*
X205609901Y-108456365D02*
G01*
X205640833Y-108475021D01*
X205679822Y-108512814D01*
X205696754Y-108560411D01*
X205695471Y-108625395D01*
X205694507Y-108634154D01*
X205693253Y-108655453D01*
X205694307Y-108678088D01*
X205698543Y-108704321D01*
X205706837Y-108736415D01*
X205720064Y-108776634D01*
X205739098Y-108827239D01*
X205764815Y-108890495D01*
X205798089Y-108968664D01*
X205839796Y-109064009D01*
X205890810Y-109178793D01*
X205952006Y-109315278D01*
X206024261Y-109475728D01*
X206070354Y-109578935D01*
X206115064Y-109681078D01*
X206154165Y-109772536D01*
X206186374Y-109850209D01*
X206210406Y-109910998D01*
X206224976Y-109951803D01*
X206228802Y-109969523D01*
X206216743Y-109985410D01*
X206187760Y-110003339D01*
X206164254Y-110009706D01*
X206140562Y-110010016D01*
X206134152Y-110000212D01*
X206116822Y-109966414D01*
X206090151Y-109911085D01*
X206055365Y-109836875D01*
X206013695Y-109746434D01*
X205966369Y-109642412D01*
X205914615Y-109527457D01*
X205859662Y-109404221D01*
X205815644Y-109305395D01*
X205762235Y-109186441D01*
X205712617Y-109076974D01*
X205668092Y-108979810D01*
X205629959Y-108897763D01*
X205599520Y-108833649D01*
X205578075Y-108790284D01*
X205566924Y-108770482D01*
X205543040Y-108747526D01*
X205519404Y-108737047D01*
X205496058Y-108729968D01*
X205463781Y-108701412D01*
X205436543Y-108658231D01*
X205420411Y-108608312D01*
X205418263Y-108594143D01*
X205416899Y-108550781D01*
X205426851Y-108533185D01*
X205446891Y-108542028D01*
X205475787Y-108577985D01*
X205489595Y-108597410D01*
X205522472Y-108628595D01*
X205554186Y-108633203D01*
X205588404Y-108612352D01*
X205607142Y-108592625D01*
X205612371Y-108573446D01*
X205602500Y-108547270D01*
X205576625Y-108505929D01*
X205575040Y-108503520D01*
X205552139Y-108462281D01*
X205550302Y-108440696D01*
X205569549Y-108438734D01*
X205609901Y-108456365D01*
G37*
G36*
X208474510Y-108205981D02*
G01*
X208490641Y-108226775D01*
X208507087Y-108262402D01*
X208519873Y-108303201D01*
X208525018Y-108339508D01*
X208521718Y-108356118D01*
X208502118Y-108395321D01*
X208469339Y-108439445D01*
X208463281Y-108446480D01*
X208449217Y-108463661D01*
X208436601Y-108481680D01*
X208424700Y-108503013D01*
X208412785Y-108530131D01*
X208400124Y-108565510D01*
X208385986Y-108611622D01*
X208369642Y-108670943D01*
X208350359Y-108745944D01*
X208327408Y-108839101D01*
X208300057Y-108952888D01*
X208267576Y-109089776D01*
X208229233Y-109252242D01*
X208201447Y-109370074D01*
X208175320Y-109480846D01*
X208151844Y-109580346D01*
X208131813Y-109665218D01*
X208116018Y-109732109D01*
X208105250Y-109777664D01*
X208100302Y-109798528D01*
X208090817Y-109818340D01*
X208067578Y-109835510D01*
X208031343Y-109835705D01*
X207997792Y-109822758D01*
X207980688Y-109801072D01*
X207981264Y-109794125D01*
X207987253Y-109761615D01*
X207999008Y-109705811D01*
X208015851Y-109629711D01*
X208037105Y-109536314D01*
X208062091Y-109428618D01*
X208090132Y-109309623D01*
X208120550Y-109182325D01*
X208149577Y-109061698D01*
X208182891Y-108923027D01*
X208210295Y-108808031D01*
X208232221Y-108714216D01*
X208249105Y-108639088D01*
X208261379Y-108580154D01*
X208269479Y-108534920D01*
X208273837Y-108500894D01*
X208274889Y-108475581D01*
X208273067Y-108456488D01*
X208268807Y-108441121D01*
X208262542Y-108426987D01*
X208254707Y-108411593D01*
X208241342Y-108379612D01*
X208236312Y-108338942D01*
X208247822Y-108294157D01*
X208277000Y-108236395D01*
X208293551Y-108212678D01*
X208309485Y-108207141D01*
X208320212Y-108229327D01*
X208326165Y-108279616D01*
X208330520Y-108355255D01*
X208380810Y-108355255D01*
X208408599Y-108354106D01*
X208425676Y-108345878D01*
X208435228Y-108323427D01*
X208443140Y-108279616D01*
X208448958Y-108250102D01*
X208459341Y-108216898D01*
X208469223Y-108203978D01*
X208474510Y-108205981D01*
G37*
G36*
X203261899Y-111922742D02*
G01*
X203266500Y-111925542D01*
X203284920Y-111935228D01*
X203305889Y-111942301D01*
X203333785Y-111947128D01*
X203372983Y-111950077D01*
X203427863Y-111951516D01*
X203502799Y-111951812D01*
X203602170Y-111951334D01*
X203656294Y-111950812D01*
X203768192Y-111949058D01*
X203895762Y-111946400D01*
X204030682Y-111943034D01*
X204164629Y-111939160D01*
X204289284Y-111934975D01*
X204336612Y-111933262D01*
X204444292Y-111929560D01*
X204527716Y-111927179D01*
X204590181Y-111926199D01*
X204634983Y-111926701D01*
X204665418Y-111928767D01*
X204684784Y-111932477D01*
X204696377Y-111937913D01*
X204703492Y-111945154D01*
X204713642Y-111961854D01*
X204721501Y-111985884D01*
X204718550Y-111998478D01*
X204703492Y-112025102D01*
X204702958Y-112025750D01*
X204695193Y-112031227D01*
X204680543Y-112035981D01*
X204656570Y-112040154D01*
X204620839Y-112043891D01*
X204570915Y-112047334D01*
X204504360Y-112050627D01*
X204418740Y-112053914D01*
X204311619Y-112057338D01*
X204180560Y-112061042D01*
X204023128Y-112065170D01*
X203874420Y-112069022D01*
X203738352Y-112072791D01*
X203626111Y-112076415D01*
X203535105Y-112080182D01*
X203462741Y-112084380D01*
X203406428Y-112089299D01*
X203363576Y-112095226D01*
X203331591Y-112102450D01*
X203307883Y-112111261D01*
X203289859Y-112121945D01*
X203274929Y-112134793D01*
X203260499Y-112150093D01*
X203249900Y-112161697D01*
X203234594Y-112174492D01*
X203216210Y-112178588D01*
X203186361Y-112174969D01*
X203136663Y-112164620D01*
X203122215Y-112161269D01*
X203082203Y-112146862D01*
X203070786Y-112131636D01*
X203088009Y-112116602D01*
X203133917Y-112102770D01*
X203139903Y-112101411D01*
X203185644Y-112081890D01*
X203205620Y-112050584D01*
X203200999Y-112005805D01*
X203194144Y-111990365D01*
X203180468Y-111981730D01*
X203153201Y-111980504D01*
X203104885Y-111985078D01*
X203076277Y-111987695D01*
X203036436Y-111986633D01*
X203023740Y-111976183D01*
X203037922Y-111955729D01*
X203078713Y-111924653D01*
X203134123Y-111898522D01*
X203197122Y-111896288D01*
X203261899Y-111922742D01*
G37*
G36*
X204630763Y-112294372D02*
G01*
X204645567Y-112303566D01*
X204677343Y-112340558D01*
X204699065Y-112388891D01*
X204704357Y-112436270D01*
X204702201Y-112446807D01*
X204694683Y-112460086D01*
X204678570Y-112473743D01*
X204650203Y-112489770D01*
X204605920Y-112510160D01*
X204542061Y-112536905D01*
X204454967Y-112571996D01*
X204393981Y-112596472D01*
X204284034Y-112640963D01*
X204165153Y-112689420D01*
X204048068Y-112737464D01*
X203943509Y-112780716D01*
X203676975Y-112891577D01*
X203568921Y-113001748D01*
X203534731Y-113035993D01*
X203489960Y-113078979D01*
X203453863Y-113111496D01*
X203432052Y-113128356D01*
X203422228Y-113133118D01*
X203369813Y-113144449D01*
X203303674Y-113143954D01*
X203233535Y-113132304D01*
X203169119Y-113110173D01*
X203136649Y-113093614D01*
X203105514Y-113073746D01*
X203093481Y-113060162D01*
X203093905Y-113055813D01*
X203098764Y-113049109D01*
X203112944Y-113042826D01*
X203141209Y-113035604D01*
X203188322Y-113026084D01*
X203259047Y-113012906D01*
X203309549Y-113002572D01*
X203344575Y-112991128D01*
X203365316Y-112976022D01*
X203379280Y-112953547D01*
X203388754Y-112926999D01*
X203391565Y-112873540D01*
X203375040Y-112826443D01*
X203341360Y-112794835D01*
X203328406Y-112789256D01*
X203297328Y-112782812D01*
X203254082Y-112783130D01*
X203190686Y-112789953D01*
X203178207Y-112791514D01*
X203125919Y-112796283D01*
X203086690Y-112797058D01*
X203068225Y-112793609D01*
X203066751Y-112787271D01*
X203080148Y-112766043D01*
X203111093Y-112736711D01*
X203154563Y-112703309D01*
X203205536Y-112669869D01*
X203258990Y-112640425D01*
X203346164Y-112597510D01*
X203439533Y-112635644D01*
X203490173Y-112653917D01*
X203543716Y-112668634D01*
X203583328Y-112674577D01*
X203613566Y-112669057D01*
X203668668Y-112652299D01*
X203747184Y-112624854D01*
X203847674Y-112587274D01*
X203968696Y-112540109D01*
X204108811Y-112483909D01*
X204266579Y-112419227D01*
X204440560Y-112346613D01*
X204483941Y-112328636D01*
X204543026Y-112305889D01*
X204583892Y-112293502D01*
X204611488Y-112290116D01*
X204630763Y-112294372D01*
G37*
G36*
X209777939Y-108740142D02*
G01*
X209772217Y-108762000D01*
X209756839Y-108794676D01*
X209738493Y-108841603D01*
X209740713Y-108883002D01*
X209765168Y-108910537D01*
X209778662Y-108916755D01*
X209809334Y-108919117D01*
X209836371Y-108898787D01*
X209864535Y-108853007D01*
X209873820Y-108836013D01*
X209893968Y-108806396D01*
X209908408Y-108794676D01*
X209909672Y-108794868D01*
X209917982Y-108810211D01*
X209921837Y-108843380D01*
X209921303Y-108884854D01*
X209916444Y-108925112D01*
X209907324Y-108954635D01*
X209894495Y-108969110D01*
X209860092Y-108993601D01*
X209815310Y-109017005D01*
X209808462Y-109020073D01*
X209790660Y-109028805D01*
X209773151Y-109039396D01*
X209754477Y-109053619D01*
X209733178Y-109073243D01*
X209707797Y-109100040D01*
X209676876Y-109135782D01*
X209638956Y-109182238D01*
X209592579Y-109241181D01*
X209536286Y-109314381D01*
X209468619Y-109403609D01*
X209388120Y-109510637D01*
X209293331Y-109637235D01*
X209182793Y-109785175D01*
X209157533Y-109818904D01*
X209093474Y-109903566D01*
X209035340Y-109979178D01*
X208985364Y-110042911D01*
X208945781Y-110091937D01*
X208918828Y-110123426D01*
X208906737Y-110134551D01*
X208894412Y-110132067D01*
X208865013Y-110115802D01*
X208838865Y-110092259D01*
X208827571Y-110070786D01*
X208827648Y-110070273D01*
X208837637Y-110052868D01*
X208863049Y-110015482D01*
X208901963Y-109960760D01*
X208952458Y-109891344D01*
X209012611Y-109809880D01*
X209080502Y-109719009D01*
X209154209Y-109621376D01*
X209252978Y-109491266D01*
X209341342Y-109374867D01*
X209414988Y-109277636D01*
X209475248Y-109197590D01*
X209523451Y-109132748D01*
X209560929Y-109081125D01*
X209589013Y-109040741D01*
X209609035Y-109009613D01*
X209622324Y-108985758D01*
X209630213Y-108967193D01*
X209634031Y-108951937D01*
X209635111Y-108938006D01*
X209634782Y-108923419D01*
X209634377Y-108906193D01*
X209634450Y-108894572D01*
X209638012Y-108849490D01*
X209649855Y-108819138D01*
X209673997Y-108791928D01*
X209708265Y-108762741D01*
X209744136Y-108739047D01*
X209768955Y-108730720D01*
X209777939Y-108740142D01*
G37*
G36*
X204662505Y-112723991D02*
G01*
X204687420Y-112750402D01*
X204694014Y-112759340D01*
X204700331Y-112767732D01*
X204703517Y-112775961D01*
X204701655Y-112785864D01*
X204692826Y-112799283D01*
X204675114Y-112818059D01*
X204646600Y-112844029D01*
X204605366Y-112879037D01*
X204549495Y-112924920D01*
X204477068Y-112983519D01*
X204386168Y-113056676D01*
X204274876Y-113146229D01*
X204141636Y-113253574D01*
X204027305Y-113345868D01*
X203931917Y-113423266D01*
X203853714Y-113487365D01*
X203790936Y-113539764D01*
X203741825Y-113582062D01*
X203704621Y-113615857D01*
X203677565Y-113642748D01*
X203658898Y-113664334D01*
X203646861Y-113682214D01*
X203639694Y-113697985D01*
X203635638Y-113713248D01*
X203632935Y-113729600D01*
X203632086Y-113735095D01*
X203621800Y-113776009D01*
X203601802Y-113803585D01*
X203563657Y-113830052D01*
X203534867Y-113845673D01*
X203494114Y-113861876D01*
X203464866Y-113866294D01*
X203453663Y-113857306D01*
X203454284Y-113854954D01*
X203466586Y-113835265D01*
X203489681Y-113805775D01*
X203502512Y-113789063D01*
X203523376Y-113743968D01*
X203519169Y-113707105D01*
X203489888Y-113681453D01*
X203475654Y-113675831D01*
X203455514Y-113675282D01*
X203433534Y-113689409D01*
X203401472Y-113721993D01*
X203379753Y-113743942D01*
X203352894Y-113766225D01*
X203337932Y-113772092D01*
X203333139Y-113754128D01*
X203338672Y-113719521D01*
X203351426Y-113677164D01*
X203368260Y-113635927D01*
X203386032Y-113604680D01*
X203401603Y-113592294D01*
X203409762Y-113591113D01*
X203439657Y-113585849D01*
X203482949Y-113577797D01*
X203486731Y-113577069D01*
X203508440Y-113572191D01*
X203530065Y-113565340D01*
X203553636Y-113555028D01*
X203581181Y-113539770D01*
X203614730Y-113518079D01*
X203656313Y-113488469D01*
X203707958Y-113449453D01*
X203771695Y-113399546D01*
X203849553Y-113337260D01*
X203943561Y-113261110D01*
X204055749Y-113169609D01*
X204188146Y-113061272D01*
X204202227Y-113049751D01*
X204297321Y-112972549D01*
X204385789Y-112901727D01*
X204465039Y-112839290D01*
X204532480Y-112787240D01*
X204585522Y-112747582D01*
X204621572Y-112722317D01*
X204638040Y-112713451D01*
X204662505Y-112723991D01*
G37*
G36*
X210473090Y-109160579D02*
G01*
X210507374Y-109168230D01*
X210520424Y-109179996D01*
X210518589Y-109184328D01*
X210498585Y-109203165D01*
X210461230Y-109229564D01*
X210412369Y-109259236D01*
X210362214Y-109288227D01*
X210329148Y-109310416D01*
X210311190Y-109329622D01*
X210303163Y-109351475D01*
X210299893Y-109381606D01*
X210299117Y-109411471D01*
X210307390Y-109447483D01*
X210331654Y-109478855D01*
X210351822Y-109496562D01*
X210381870Y-109510812D01*
X210417457Y-109510237D01*
X210464653Y-109494338D01*
X210529527Y-109462617D01*
X210541492Y-109456431D01*
X210587788Y-109434544D01*
X210622432Y-109421371D01*
X210638668Y-109419576D01*
X210641656Y-109432279D01*
X210631069Y-109464364D01*
X210606013Y-109508214D01*
X210569659Y-109558508D01*
X210525178Y-109609929D01*
X210451411Y-109687926D01*
X210331977Y-109687926D01*
X210317374Y-109688019D01*
X210258177Y-109690201D01*
X210208878Y-109694693D01*
X210178932Y-109700705D01*
X210165349Y-109709025D01*
X210130698Y-109734928D01*
X210079275Y-109775799D01*
X210013814Y-109829343D01*
X209937048Y-109893265D01*
X209851710Y-109965269D01*
X209760534Y-110043061D01*
X209666254Y-110124344D01*
X209571601Y-110206824D01*
X209479310Y-110288206D01*
X209438392Y-110323728D01*
X209385736Y-110364548D01*
X209345038Y-110386481D01*
X209311519Y-110390839D01*
X209280401Y-110378935D01*
X209246905Y-110352083D01*
X209232322Y-110337714D01*
X209208999Y-110306003D01*
X209204114Y-110275536D01*
X209219078Y-110242050D01*
X209255305Y-110201279D01*
X209314208Y-110148961D01*
X209396697Y-110078997D01*
X209487475Y-110000990D01*
X209580277Y-109920357D01*
X209672110Y-109839767D01*
X209759984Y-109761884D01*
X209840905Y-109689377D01*
X209911880Y-109624912D01*
X209969918Y-109571155D01*
X210012026Y-109530773D01*
X210035211Y-109506433D01*
X210052705Y-109482644D01*
X210085406Y-109427360D01*
X210111212Y-109370966D01*
X210116229Y-109357727D01*
X210147915Y-109284476D01*
X210179470Y-109233467D01*
X210214962Y-109199333D01*
X210258457Y-109176709D01*
X210269585Y-109172944D01*
X210315820Y-109163224D01*
X210370015Y-109157984D01*
X210424871Y-109157133D01*
X210473090Y-109160579D01*
G37*
G36*
X205046409Y-108781639D02*
G01*
X205092535Y-108818266D01*
X205150940Y-108874203D01*
X205257195Y-108982545D01*
X205245115Y-109057896D01*
X205241839Y-109080831D01*
X205235622Y-109143109D01*
X205233257Y-109198079D01*
X205233317Y-109206830D01*
X205234165Y-109224527D01*
X205237200Y-109242271D01*
X205243891Y-109262393D01*
X205255706Y-109287226D01*
X205274111Y-109319099D01*
X205300576Y-109360346D01*
X205336569Y-109413297D01*
X205383556Y-109480285D01*
X205443007Y-109563639D01*
X205516389Y-109665693D01*
X205605170Y-109788777D01*
X205618999Y-109807965D01*
X205680841Y-109894407D01*
X205736690Y-109973475D01*
X205784348Y-110041986D01*
X205821619Y-110096761D01*
X205846307Y-110134616D01*
X205856214Y-110152370D01*
X205856821Y-110158488D01*
X205844661Y-110189025D01*
X205812321Y-110228009D01*
X205795052Y-110245045D01*
X205772018Y-110264939D01*
X205750839Y-110275942D01*
X205729197Y-110276232D01*
X205704771Y-110263983D01*
X205675242Y-110237374D01*
X205638288Y-110194581D01*
X205591589Y-110133779D01*
X205532826Y-110053146D01*
X205459679Y-109950859D01*
X205389911Y-109853121D01*
X205305716Y-109735658D01*
X205234957Y-109637952D01*
X205175773Y-109557807D01*
X205126302Y-109493028D01*
X205084683Y-109441419D01*
X205049057Y-109400784D01*
X205017561Y-109368928D01*
X204988335Y-109343654D01*
X204959518Y-109322767D01*
X204929249Y-109304071D01*
X204895666Y-109285370D01*
X204868960Y-109270343D01*
X204814597Y-109236360D01*
X204770853Y-109204563D01*
X204745323Y-109180264D01*
X204738980Y-109170199D01*
X204723401Y-109127978D01*
X204713633Y-109073867D01*
X204709597Y-109014568D01*
X204711212Y-108956781D01*
X204718398Y-108907208D01*
X204731074Y-108872550D01*
X204749162Y-108859509D01*
X204755088Y-108862895D01*
X204772880Y-108886741D01*
X204795996Y-108928411D01*
X204820955Y-108981970D01*
X204873581Y-109104432D01*
X204941063Y-109103561D01*
X204961485Y-109102507D01*
X205018701Y-109087611D01*
X205054743Y-109056550D01*
X205067276Y-109011036D01*
X205063168Y-108983125D01*
X205050129Y-108936078D01*
X205031258Y-108883890D01*
X205013698Y-108838799D01*
X205000347Y-108800644D01*
X204995239Y-108780555D01*
X204997350Y-108770134D01*
X205014152Y-108765277D01*
X205046409Y-108781639D01*
G37*
G36*
X203386838Y-111057968D02*
G01*
X203443164Y-111059977D01*
X203488345Y-111063691D01*
X203513546Y-111068434D01*
X203515145Y-111069207D01*
X203536476Y-111087465D01*
X203567363Y-111121890D01*
X203601697Y-111165740D01*
X203603319Y-111167953D01*
X203622660Y-111194729D01*
X203639640Y-111216970D01*
X203657053Y-111235547D01*
X203677692Y-111251329D01*
X203704351Y-111265185D01*
X203739825Y-111277987D01*
X203786907Y-111290603D01*
X203848392Y-111303904D01*
X203927072Y-111318759D01*
X204025742Y-111336039D01*
X204147195Y-111356612D01*
X204294226Y-111381349D01*
X204358624Y-111392341D01*
X204466273Y-111411330D01*
X204563243Y-111429201D01*
X204645980Y-111445256D01*
X204710932Y-111458796D01*
X204754545Y-111469124D01*
X204773268Y-111475539D01*
X204784005Y-111492047D01*
X204792542Y-111531598D01*
X204792945Y-111579417D01*
X204785413Y-111624100D01*
X204770145Y-111654241D01*
X204751544Y-111666746D01*
X204708914Y-111669553D01*
X204675355Y-111662783D01*
X204608666Y-111650434D01*
X204524690Y-111635742D01*
X204427580Y-111619359D01*
X204321492Y-111601935D01*
X204210579Y-111584122D01*
X204098995Y-111566571D01*
X203990895Y-111549934D01*
X203890432Y-111534861D01*
X203801762Y-111522004D01*
X203729037Y-111512014D01*
X203676412Y-111505543D01*
X203648042Y-111503241D01*
X203615248Y-111505037D01*
X203548151Y-111515451D01*
X203486218Y-111532056D01*
X203432977Y-111548374D01*
X203348129Y-111560889D01*
X203275801Y-111550983D01*
X203212157Y-111518468D01*
X203188383Y-111499416D01*
X203149013Y-111460632D01*
X203114277Y-111418606D01*
X203088258Y-111379087D01*
X203075041Y-111347828D01*
X203078711Y-111330578D01*
X203084549Y-111329351D01*
X203114204Y-111333968D01*
X203160537Y-111347721D01*
X203216771Y-111368738D01*
X203225137Y-111372132D01*
X203288895Y-111395809D01*
X203333746Y-111405573D01*
X203365801Y-111400658D01*
X203391171Y-111380297D01*
X203415966Y-111343722D01*
X203434027Y-111304968D01*
X203437626Y-111260532D01*
X203416843Y-111221582D01*
X203370215Y-111185759D01*
X203296279Y-111150705D01*
X203278874Y-111143514D01*
X203223932Y-111116689D01*
X203197324Y-111094896D01*
X203199059Y-111078124D01*
X203229148Y-111066363D01*
X203287599Y-111059600D01*
X203374423Y-111057825D01*
X203386838Y-111057968D01*
G37*
G36*
X207620256Y-108046237D02*
G01*
X207629032Y-108054391D01*
X207629326Y-108075423D01*
X207620760Y-108114093D01*
X207602954Y-108175164D01*
X207585811Y-108235610D01*
X207575642Y-108289827D01*
X207577779Y-108327743D01*
X207592719Y-108354946D01*
X207620963Y-108377023D01*
X207669361Y-108400030D01*
X207717682Y-108404063D01*
X207757995Y-108382237D01*
X207791831Y-108333634D01*
X207820721Y-108257337D01*
X207822879Y-108250150D01*
X207839374Y-108199094D01*
X207854004Y-108159774D01*
X207863823Y-108140197D01*
X207872188Y-108136642D01*
X207886473Y-108150970D01*
X207900362Y-108185622D01*
X207912399Y-108235387D01*
X207921129Y-108295053D01*
X207925093Y-108359408D01*
X207927117Y-108479398D01*
X207850936Y-108545154D01*
X207811626Y-108581729D01*
X207776161Y-108619931D01*
X207755270Y-108648766D01*
X207749514Y-108664099D01*
X207742789Y-108693754D01*
X207735972Y-108737831D01*
X207728871Y-108798380D01*
X207721290Y-108877453D01*
X207713036Y-108977100D01*
X207703915Y-109099373D01*
X207693732Y-109246321D01*
X207682294Y-109419997D01*
X207678769Y-109473792D01*
X207672715Y-109562726D01*
X207667221Y-109639164D01*
X207662595Y-109699039D01*
X207659144Y-109738287D01*
X207657175Y-109752841D01*
X207648661Y-109758060D01*
X207624564Y-109771807D01*
X207603576Y-109780257D01*
X207555024Y-109787553D01*
X207505320Y-109784337D01*
X207468491Y-109770708D01*
X207467129Y-109769687D01*
X207459129Y-109761437D01*
X207453772Y-109748397D01*
X207451012Y-109726577D01*
X207450802Y-109691991D01*
X207453096Y-109640651D01*
X207457847Y-109568569D01*
X207465009Y-109471757D01*
X207472904Y-109366787D01*
X207485088Y-109200891D01*
X207494843Y-109059733D01*
X207502137Y-108940765D01*
X207506934Y-108841441D01*
X207509201Y-108759213D01*
X207508904Y-108691533D01*
X207506009Y-108635854D01*
X207500482Y-108589627D01*
X207492289Y-108550307D01*
X207481396Y-108515345D01*
X207467770Y-108482194D01*
X207451375Y-108448306D01*
X207441273Y-108426347D01*
X207420341Y-108354136D01*
X207416881Y-108285025D01*
X207431717Y-108228244D01*
X207433013Y-108225820D01*
X207454069Y-108195947D01*
X207486739Y-108157930D01*
X207525009Y-108117822D01*
X207562863Y-108081678D01*
X207594287Y-108055552D01*
X207613267Y-108045499D01*
X207620256Y-108046237D01*
G37*
G36*
X209133581Y-108362895D02*
G01*
X209144530Y-108377175D01*
X209143887Y-108379957D01*
X209131353Y-108402401D01*
X209106112Y-108439066D01*
X209072494Y-108483556D01*
X209064264Y-108494236D01*
X209031819Y-108540918D01*
X209009049Y-108581109D01*
X209000458Y-108607086D01*
X209002681Y-108624507D01*
X209022414Y-108668282D01*
X209055376Y-108706707D01*
X209092756Y-108728217D01*
X209093763Y-108728469D01*
X209118542Y-108733138D01*
X209140547Y-108731712D01*
X209163178Y-108721409D01*
X209189836Y-108699444D01*
X209223922Y-108663037D01*
X209268838Y-108609404D01*
X209327984Y-108535763D01*
X209328390Y-108535273D01*
X209339189Y-108535551D01*
X209348264Y-108555763D01*
X209353250Y-108587359D01*
X209351780Y-108621789D01*
X209339189Y-108682971D01*
X209320971Y-108749539D01*
X209300905Y-108807199D01*
X209282034Y-108846155D01*
X209261891Y-108865061D01*
X209221538Y-108889706D01*
X209171917Y-108912132D01*
X209128398Y-108931079D01*
X209079050Y-108958190D01*
X209045265Y-108983304D01*
X209037304Y-108992688D01*
X209024397Y-109012086D01*
X209007492Y-109041589D01*
X208985722Y-109082996D01*
X208958222Y-109138105D01*
X208924126Y-109208715D01*
X208882567Y-109296623D01*
X208832679Y-109403628D01*
X208773596Y-109531529D01*
X208704452Y-109682124D01*
X208624381Y-109857211D01*
X208570102Y-109976071D01*
X208513485Y-109976071D01*
X208470829Y-109969646D01*
X208426673Y-109950881D01*
X208393822Y-109924887D01*
X208380946Y-109896848D01*
X208383842Y-109887224D01*
X208397303Y-109853439D01*
X208420470Y-109798949D01*
X208451939Y-109726955D01*
X208490306Y-109640659D01*
X208534169Y-109543262D01*
X208582122Y-109437966D01*
X208613401Y-109369569D01*
X208671905Y-109240834D01*
X208719693Y-109133921D01*
X208757808Y-109045925D01*
X208787291Y-108973941D01*
X208809184Y-108915065D01*
X208824531Y-108866390D01*
X208834372Y-108825012D01*
X208839751Y-108788027D01*
X208841710Y-108752529D01*
X208841290Y-108715613D01*
X208840122Y-108676203D01*
X208839651Y-108613422D01*
X208842906Y-108569431D01*
X208851253Y-108537525D01*
X208866061Y-108510996D01*
X208888697Y-108483138D01*
X208919643Y-108453797D01*
X208964847Y-108421767D01*
X209014486Y-108394325D01*
X209062916Y-108373808D01*
X209104496Y-108362552D01*
X209133581Y-108362895D01*
G37*
G36*
X206146732Y-108213635D02*
G01*
X206154887Y-108257747D01*
X206159167Y-108330064D01*
X206161177Y-108383447D01*
X206164751Y-108428270D01*
X206171062Y-108456036D01*
X206181741Y-108473235D01*
X206198418Y-108486358D01*
X206215480Y-108495712D01*
X206268394Y-108509403D01*
X206321579Y-108505987D01*
X206363262Y-108485523D01*
X206368435Y-108480544D01*
X206381031Y-108462518D01*
X206388410Y-108436210D01*
X206391878Y-108394786D01*
X206392744Y-108331411D01*
X206393020Y-108304439D01*
X206395342Y-108252950D01*
X206399515Y-108217302D01*
X206404918Y-108203978D01*
X206420025Y-108211583D01*
X206445393Y-108240486D01*
X206474067Y-108284712D01*
X206502516Y-108337576D01*
X206527210Y-108392389D01*
X206544619Y-108442463D01*
X206551212Y-108481111D01*
X206551136Y-108483399D01*
X206543186Y-108517204D01*
X206524710Y-108565271D01*
X206499352Y-108617980D01*
X206491299Y-108633097D01*
X206477113Y-108660963D01*
X206466376Y-108687026D01*
X206459430Y-108714264D01*
X206456616Y-108745656D01*
X206458278Y-108784182D01*
X206464757Y-108832818D01*
X206476396Y-108894545D01*
X206493538Y-108972341D01*
X206516523Y-109069184D01*
X206545695Y-109188052D01*
X206581397Y-109331926D01*
X206604654Y-109425700D01*
X206631566Y-109535021D01*
X206652391Y-109621445D01*
X206667667Y-109687918D01*
X206677933Y-109737388D01*
X206683727Y-109772799D01*
X206685589Y-109797100D01*
X206684057Y-109813235D01*
X206679669Y-109824152D01*
X206672964Y-109832796D01*
X206643378Y-109855700D01*
X206602821Y-109874139D01*
X206594014Y-109876669D01*
X206554975Y-109886171D01*
X206531230Y-109886584D01*
X206512631Y-109878386D01*
X206506624Y-109865963D01*
X206494098Y-109828272D01*
X206476441Y-109768667D01*
X206454561Y-109690404D01*
X206429366Y-109596739D01*
X206401763Y-109490928D01*
X206372659Y-109376228D01*
X206349921Y-109286046D01*
X206320538Y-109171416D01*
X206292813Y-109065295D01*
X206267787Y-108971579D01*
X206246504Y-108894162D01*
X206230007Y-108836938D01*
X206219339Y-108803803D01*
X206206793Y-108774997D01*
X206167874Y-108708448D01*
X206120181Y-108647050D01*
X206083746Y-108605223D01*
X206052732Y-108566363D01*
X206034754Y-108539894D01*
X206025301Y-108516945D01*
X206017637Y-108450252D01*
X206031216Y-108372268D01*
X206065420Y-108288079D01*
X206088511Y-108245832D01*
X206114593Y-108208147D01*
X206133650Y-108197259D01*
X206146732Y-108213635D01*
G37*
G36*
X204690254Y-113119831D02*
G01*
X204731616Y-113131427D01*
X204772062Y-113154548D01*
X204802535Y-113183208D01*
X204813978Y-113211421D01*
X204807828Y-113226058D01*
X204787329Y-113262736D01*
X204754210Y-113317867D01*
X204710296Y-113388522D01*
X204657410Y-113471771D01*
X204597375Y-113564683D01*
X204532017Y-113664330D01*
X204429473Y-113819589D01*
X204341095Y-113953700D01*
X204266259Y-114067918D01*
X204203795Y-114164323D01*
X204152530Y-114244999D01*
X204111295Y-114312026D01*
X204078920Y-114367485D01*
X204054232Y-114413457D01*
X204036062Y-114452025D01*
X204023238Y-114485270D01*
X204014591Y-114515272D01*
X204008950Y-114544114D01*
X204005143Y-114573876D01*
X204002000Y-114606640D01*
X204001052Y-114616274D01*
X203992179Y-114678127D01*
X203980079Y-114733007D01*
X203967084Y-114770012D01*
X203965078Y-114773653D01*
X203929760Y-114813195D01*
X203874574Y-114850833D01*
X203807543Y-114881968D01*
X203736692Y-114902004D01*
X203722507Y-114904238D01*
X203685029Y-114906181D01*
X203663552Y-114901258D01*
X203662841Y-114895762D01*
X203675751Y-114872208D01*
X203704981Y-114835132D01*
X203747459Y-114788657D01*
X203769848Y-114765243D01*
X203809786Y-114719907D01*
X203830910Y-114685353D01*
X203834736Y-114655222D01*
X203822783Y-114623155D01*
X203796566Y-114582793D01*
X203788761Y-114572486D01*
X203758938Y-114549361D01*
X203716032Y-114543173D01*
X203686154Y-114546134D01*
X203658057Y-114557981D01*
X203625117Y-114582988D01*
X203580279Y-114625430D01*
X203559546Y-114645565D01*
X203520765Y-114679513D01*
X203495658Y-114694133D01*
X203481025Y-114691556D01*
X203475666Y-114675733D01*
X203479611Y-114636819D01*
X203494703Y-114582856D01*
X203519242Y-114519602D01*
X203551527Y-114452815D01*
X203567527Y-114424452D01*
X203590606Y-114395295D01*
X203620770Y-114377219D01*
X203668630Y-114361991D01*
X203680333Y-114358824D01*
X203717604Y-114349100D01*
X203749170Y-114340296D01*
X203776860Y-114330350D01*
X203802502Y-114317203D01*
X203827922Y-114298793D01*
X203854949Y-114273059D01*
X203885411Y-114237941D01*
X203921134Y-114191378D01*
X203963947Y-114131309D01*
X204015678Y-114055673D01*
X204078154Y-113962409D01*
X204153203Y-113849457D01*
X204242653Y-113714755D01*
X204298478Y-113630871D01*
X204380161Y-113508534D01*
X204448305Y-113407199D01*
X204504319Y-113324926D01*
X204549616Y-113259774D01*
X204585606Y-113209804D01*
X204613700Y-113173076D01*
X204635309Y-113147650D01*
X204651844Y-113131584D01*
X204664715Y-113122940D01*
X204675335Y-113119777D01*
X204690254Y-113119831D01*
G37*
G36*
X203937749Y-109778675D02*
G01*
X203988918Y-109791237D01*
X204044767Y-109810107D01*
X204099023Y-109833902D01*
X204136856Y-109853189D01*
X204171839Y-109874195D01*
X204192670Y-109895476D01*
X204206103Y-109924666D01*
X204218893Y-109969402D01*
X204220044Y-109973713D01*
X204231720Y-110016435D01*
X204243400Y-110051910D01*
X204257831Y-110082589D01*
X204277757Y-110110924D01*
X204305926Y-110139365D01*
X204345082Y-110170363D01*
X204397972Y-110206369D01*
X204467341Y-110249834D01*
X204555935Y-110303209D01*
X204666499Y-110368944D01*
X204697510Y-110387359D01*
X204822730Y-110461700D01*
X204925836Y-110522996D01*
X205008968Y-110572675D01*
X205074265Y-110612166D01*
X205123867Y-110642897D01*
X205159914Y-110666299D01*
X205184545Y-110683798D01*
X205199900Y-110696825D01*
X205208118Y-110706807D01*
X205211339Y-110715174D01*
X205211703Y-110723355D01*
X205211348Y-110732777D01*
X205211325Y-110735236D01*
X205196574Y-110797263D01*
X205156379Y-110859024D01*
X205137501Y-110873233D01*
X205111947Y-110876311D01*
X205109577Y-110875221D01*
X205085999Y-110862377D01*
X205041845Y-110837202D01*
X204980418Y-110801616D01*
X204905019Y-110757541D01*
X204818953Y-110706896D01*
X204725523Y-110651604D01*
X204629622Y-110594789D01*
X204507444Y-110522905D01*
X204405461Y-110463825D01*
X204321035Y-110416260D01*
X204251529Y-110378926D01*
X204194306Y-110350534D01*
X204146729Y-110329799D01*
X204106160Y-110315434D01*
X204069962Y-110306152D01*
X204035498Y-110300666D01*
X204000131Y-110297689D01*
X203981457Y-110296570D01*
X203915414Y-110291591D01*
X203869326Y-110284938D01*
X203835993Y-110274550D01*
X203808218Y-110258366D01*
X203778800Y-110234325D01*
X203776024Y-110231818D01*
X203745623Y-110195721D01*
X203717752Y-110148909D01*
X203694417Y-110097312D01*
X203677624Y-110046860D01*
X203669379Y-110003482D01*
X203671688Y-109973107D01*
X203686557Y-109961664D01*
X203691132Y-109963116D01*
X203714795Y-109979101D01*
X203750804Y-110008994D01*
X203793364Y-110048108D01*
X203809808Y-110063576D01*
X203851408Y-110099857D01*
X203884861Y-110125090D01*
X203904114Y-110134551D01*
X203909071Y-110133925D01*
X203937785Y-110122636D01*
X203973795Y-110101665D01*
X203996368Y-110084724D01*
X204018703Y-110054690D01*
X204026953Y-110011619D01*
X204027658Y-109999731D01*
X204025941Y-109971660D01*
X204015420Y-109946621D01*
X203991933Y-109917132D01*
X203951314Y-109875713D01*
X203942730Y-109867170D01*
X203906516Y-109829243D01*
X203881077Y-109799510D01*
X203871473Y-109783794D01*
X203874547Y-109778000D01*
X203897534Y-109773802D01*
X203937749Y-109778675D01*
G37*
G36*
X209207452Y-110949204D02*
G01*
X209264850Y-111007441D01*
X209331516Y-111082550D01*
X209410928Y-111178001D01*
X209583357Y-111389765D01*
X209810378Y-112393780D01*
X209840514Y-112527359D01*
X209876313Y-112686850D01*
X209909699Y-112836488D01*
X209940175Y-112973993D01*
X209967241Y-113097086D01*
X209990400Y-113203484D01*
X210009153Y-113290909D01*
X210023001Y-113357080D01*
X210031445Y-113399717D01*
X210033988Y-113416539D01*
X210032730Y-113418653D01*
X210015444Y-113416121D01*
X209981886Y-113399439D01*
X209936741Y-113371951D01*
X209884694Y-113337002D01*
X209830430Y-113297936D01*
X209778633Y-113258095D01*
X209733989Y-113220825D01*
X209701183Y-113189469D01*
X209684900Y-113167372D01*
X209681389Y-113158223D01*
X209667861Y-113122240D01*
X209646103Y-113063937D01*
X209617243Y-112986358D01*
X209582413Y-112892547D01*
X209542744Y-112785549D01*
X209499366Y-112668407D01*
X209453410Y-112544166D01*
X209239031Y-111964273D01*
X209185232Y-111964273D01*
X209165402Y-111965408D01*
X209097994Y-111979367D01*
X209016680Y-112007240D01*
X208928128Y-112046515D01*
X208839009Y-112094682D01*
X208813192Y-112111167D01*
X208760064Y-112150080D01*
X208702695Y-112196980D01*
X208645610Y-112247622D01*
X208593335Y-112297763D01*
X208550394Y-112343157D01*
X208521311Y-112379562D01*
X208510611Y-112402731D01*
X208518361Y-112421000D01*
X208549401Y-112452045D01*
X208600775Y-112489113D01*
X208668835Y-112529638D01*
X208749934Y-112571055D01*
X208789228Y-112588250D01*
X208854505Y-112613511D01*
X208930140Y-112640272D01*
X209009920Y-112666568D01*
X209087633Y-112690438D01*
X209157067Y-112709918D01*
X209212007Y-112723046D01*
X209246241Y-112727858D01*
X209259413Y-112731002D01*
X209279551Y-112748751D01*
X209301158Y-112784408D01*
X209325444Y-112840525D01*
X209353619Y-112919653D01*
X209386895Y-113024344D01*
X209417063Y-113126671D01*
X209453138Y-113257066D01*
X209491406Y-113402610D01*
X209531242Y-113560432D01*
X209572024Y-113727662D01*
X209613128Y-113901428D01*
X209653929Y-114078861D01*
X209693805Y-114257090D01*
X209732131Y-114433243D01*
X209768284Y-114604452D01*
X209801640Y-114767844D01*
X209831575Y-114920550D01*
X209857466Y-115059698D01*
X209878690Y-115182419D01*
X209894621Y-115285842D01*
X209904638Y-115367095D01*
X209908115Y-115423310D01*
X209908115Y-115492658D01*
X209768366Y-115434495D01*
X209750191Y-115426921D01*
X209539213Y-115337564D01*
X209323494Y-115243730D01*
X209106189Y-115146921D01*
X208890455Y-115048638D01*
X208679447Y-114950383D01*
X208476322Y-114853658D01*
X208284236Y-114759962D01*
X208106344Y-114670798D01*
X207945803Y-114587668D01*
X207805769Y-114512072D01*
X207689397Y-114445511D01*
X207523714Y-114346983D01*
X207371716Y-114052480D01*
X207299515Y-113914886D01*
X207227836Y-113783373D01*
X207163100Y-113670111D01*
X207106500Y-113577120D01*
X207059224Y-113506420D01*
X207022464Y-113460029D01*
X207019481Y-113456969D01*
X206975535Y-113427202D01*
X206909926Y-113399362D01*
X206829146Y-113374900D01*
X206739687Y-113355264D01*
X206648044Y-113341906D01*
X206560708Y-113336275D01*
X206484172Y-113339821D01*
X206481798Y-113340120D01*
X206444630Y-113346364D01*
X206413455Y-113356884D01*
X206381551Y-113375571D01*
X206342197Y-113406319D01*
X206288671Y-113453018D01*
X206166678Y-113559342D01*
X205999640Y-113695989D01*
X205844489Y-113811028D01*
X205698804Y-113905875D01*
X205560161Y-113981946D01*
X205426141Y-114040658D01*
X205294319Y-114083426D01*
X205162276Y-114111666D01*
X205141113Y-114115026D01*
X205091990Y-114121610D01*
X205061120Y-114122186D01*
X205040922Y-114116309D01*
X205023814Y-114103534D01*
X205004967Y-114082714D01*
X204995239Y-114062613D01*
X205000000Y-114050443D01*
X205017914Y-114017985D01*
X205046031Y-113971691D01*
X205081042Y-113917172D01*
X205116133Y-113862887D01*
X205163321Y-113784016D01*
X205196451Y-113717363D01*
X205218090Y-113656501D01*
X205230808Y-113595001D01*
X205237172Y-113526439D01*
X205238443Y-113500303D01*
X205238989Y-113459753D01*
X205236272Y-113422285D01*
X205229084Y-113381828D01*
X205216219Y-113332311D01*
X205196468Y-113267663D01*
X205168624Y-113181814D01*
X205137639Y-113085136D01*
X205100480Y-112959447D01*
X205072572Y-112849091D01*
X205052484Y-112747481D01*
X205038784Y-112648035D01*
X205030043Y-112544166D01*
X205019953Y-112382084D01*
X204966138Y-112382084D01*
X204941687Y-112381188D01*
X204911758Y-112373923D01*
X204893046Y-112355643D01*
X204889116Y-112341466D01*
X205300914Y-112341466D01*
X205313017Y-112351650D01*
X205346798Y-112353269D01*
X205369071Y-112352322D01*
X205394370Y-112343392D01*
X205405478Y-112320853D01*
X205408078Y-112309205D01*
X205416705Y-112269754D01*
X205428665Y-112214503D01*
X205442198Y-112151568D01*
X205489334Y-111959888D01*
X205569734Y-111715928D01*
X205668399Y-111494208D01*
X205785490Y-111294570D01*
X205921171Y-111116856D01*
X206075602Y-110960907D01*
X206248948Y-110826566D01*
X206441370Y-110713673D01*
X206653030Y-110622070D01*
X206884092Y-110551599D01*
X207134718Y-110502103D01*
X207228244Y-110490395D01*
X207434380Y-110481078D01*
X207643235Y-110494616D01*
X207856578Y-110531457D01*
X208076180Y-110592049D01*
X208303811Y-110676840D01*
X208541240Y-110786277D01*
X208790238Y-110920808D01*
X208824503Y-110940483D01*
X208875431Y-110968800D01*
X208908857Y-110984917D01*
X208929602Y-110990496D01*
X208942483Y-110987198D01*
X208952320Y-110976684D01*
X208964811Y-110956631D01*
X208968245Y-110935162D01*
X208955150Y-110913790D01*
X208922481Y-110888120D01*
X208867191Y-110853751D01*
X208716458Y-110767696D01*
X208459195Y-110638140D01*
X208209746Y-110535395D01*
X207967052Y-110459206D01*
X207730053Y-110409319D01*
X207497690Y-110385480D01*
X207268904Y-110387432D01*
X207042636Y-110414922D01*
X206877994Y-110449013D01*
X206655941Y-110512980D01*
X206453574Y-110594907D01*
X206268262Y-110696097D01*
X206097373Y-110817852D01*
X205938276Y-110961474D01*
X205838207Y-111068681D01*
X205730845Y-111202939D01*
X205636488Y-111345848D01*
X205553571Y-111500730D01*
X205480529Y-111670908D01*
X205415799Y-111859705D01*
X205357815Y-112070444D01*
X205305014Y-112306446D01*
X205303358Y-112314726D01*
X205300914Y-112341466D01*
X204889116Y-112341466D01*
X204883709Y-112321962D01*
X204881905Y-112268496D01*
X204885790Y-112190859D01*
X204909926Y-111979584D01*
X204958277Y-111748240D01*
X205027678Y-111522815D01*
X205116202Y-111309481D01*
X205221920Y-111114412D01*
X205289986Y-111010002D01*
X205451783Y-110799065D01*
X205632547Y-110609083D01*
X205830954Y-110440998D01*
X206045681Y-110295758D01*
X206275403Y-110174306D01*
X206518796Y-110077587D01*
X206774536Y-110006546D01*
X206904675Y-109981841D01*
X207153586Y-109955185D01*
X207412330Y-109952324D01*
X207677656Y-109972676D01*
X207946312Y-110015662D01*
X208215049Y-110080700D01*
X208480616Y-110167208D01*
X208739761Y-110274607D01*
X208989233Y-110402316D01*
X209075759Y-110452926D01*
X209140993Y-110495467D01*
X209184592Y-110530319D01*
X209208977Y-110559425D01*
X209216567Y-110584728D01*
X209214489Y-110595017D01*
X209200097Y-110629388D01*
X209175013Y-110676973D01*
X209142796Y-110730729D01*
X209114848Y-110775359D01*
X209092369Y-110814392D01*
X209082631Y-110838462D01*
X209083768Y-110852573D01*
X209093913Y-110861725D01*
X209106545Y-110869462D01*
X209155843Y-110904368D01*
X209191289Y-110935162D01*
X209207452Y-110949204D01*
G37*
%TD*%
M02*
