%TF.GenerationSoftware,KiCad,Pcbnew,8.0.2-1*%
%TF.CreationDate,2024-09-28T15:44:22-07:00*%
%TF.ProjectId,PowerDistribution,506f7765-7244-4697-9374-726962757469,R1*%
%TF.SameCoordinates,Original*%
%TF.FileFunction,Legend,Top*%
%TF.FilePolarity,Positive*%
%FSLAX46Y46*%
G04 Gerber Fmt 4.6, Leading zero omitted, Abs format (unit mm)*
G04 Created by KiCad (PCBNEW 8.0.2-1) date 2024-09-28 15:44:22*
%MOMM*%
%LPD*%
G01*
G04 APERTURE LIST*
%ADD10C,0.150000*%
%ADD11C,0.425000*%
%ADD12C,0.225000*%
%ADD13C,0.250000*%
%ADD14C,0.254000*%
%ADD15C,0.762000*%
%ADD16C,0.317500*%
%ADD17C,0.300000*%
%ADD18C,0.120000*%
%ADD19C,0.127000*%
%ADD20C,0.152400*%
%ADD21C,0.100000*%
G04 APERTURE END LIST*
D10*
X155289998Y-66938901D02*
X155289998Y-76921101D01*
X155670998Y-131023101D02*
X154400998Y-131023101D01*
X155670998Y-128991101D01*
X155670998Y-131023101D01*
G36*
X155670998Y-131023101D02*
G01*
X154400998Y-131023101D01*
X155670998Y-128991101D01*
X155670998Y-131023101D01*
G37*
X155289998Y-76921101D02*
X154019998Y-74889101D01*
X154400998Y-131023101D02*
X155670998Y-131023101D01*
X155670998Y-138973301D02*
X155670998Y-128991101D01*
X155289998Y-76921101D02*
X154019998Y-74889101D01*
X155289998Y-74889101D01*
X155289998Y-76921101D01*
G36*
X155289998Y-76921101D02*
G01*
X154019998Y-74889101D01*
X155289998Y-74889101D01*
X155289998Y-76921101D01*
G37*
X154019998Y-74889101D02*
X155289998Y-74889101D01*
X155670998Y-128991101D02*
X154400998Y-131023101D01*
D11*
X208562107Y-107830239D02*
X208562107Y-105830239D01*
X208562107Y-105830239D02*
X209533536Y-107830239D01*
X209533536Y-107830239D02*
X209533536Y-105830239D01*
X210343059Y-106782620D02*
X210909726Y-106782620D01*
X211152583Y-107830239D02*
X210343059Y-107830239D01*
X210343059Y-107830239D02*
X210343059Y-105830239D01*
X210343059Y-105830239D02*
X211152583Y-105830239D01*
X212771631Y-105925477D02*
X212609726Y-105830239D01*
X212609726Y-105830239D02*
X212366869Y-105830239D01*
X212366869Y-105830239D02*
X212124012Y-105925477D01*
X212124012Y-105925477D02*
X211962107Y-106115953D01*
X211962107Y-106115953D02*
X211881154Y-106306429D01*
X211881154Y-106306429D02*
X211800202Y-106687381D01*
X211800202Y-106687381D02*
X211800202Y-106973096D01*
X211800202Y-106973096D02*
X211881154Y-107354048D01*
X211881154Y-107354048D02*
X211962107Y-107544524D01*
X211962107Y-107544524D02*
X212124012Y-107735001D01*
X212124012Y-107735001D02*
X212366869Y-107830239D01*
X212366869Y-107830239D02*
X212528773Y-107830239D01*
X212528773Y-107830239D02*
X212771631Y-107735001D01*
X212771631Y-107735001D02*
X212852583Y-107639762D01*
X212852583Y-107639762D02*
X212852583Y-106973096D01*
X212852583Y-106973096D02*
X212528773Y-106973096D01*
D12*
G36*
X166513140Y-135822595D02*
G01*
X166599299Y-135834250D01*
X166676271Y-135854647D01*
X166754461Y-135889492D01*
X166820148Y-135936235D01*
X166828511Y-135943883D01*
X166879854Y-136003244D01*
X166918587Y-136072544D01*
X166944709Y-136151783D01*
X166957062Y-136227612D01*
X166960279Y-136296382D01*
X166955241Y-136380861D01*
X166940127Y-136458143D01*
X166914936Y-136528228D01*
X166872811Y-136600896D01*
X166816972Y-136663769D01*
X166747168Y-136715402D01*
X166676024Y-136749565D01*
X166594437Y-136774411D01*
X166518470Y-136787999D01*
X166435252Y-136795117D01*
X166381840Y-136796281D01*
X166134309Y-136796281D01*
X166134309Y-137368021D01*
X165634038Y-137368021D01*
X165634038Y-136462767D01*
X166134309Y-136462767D01*
X166238533Y-136462767D01*
X166313661Y-136458550D01*
X166387635Y-136440461D01*
X166423157Y-136419588D01*
X166467620Y-136356310D01*
X166474896Y-136309409D01*
X166457448Y-136235371D01*
X166430229Y-136198486D01*
X166359239Y-136163053D01*
X166280792Y-136153474D01*
X166257516Y-136153075D01*
X166134309Y-136153075D01*
X166134309Y-136462767D01*
X165634038Y-136462767D01*
X165634038Y-135819560D01*
X166434324Y-135819560D01*
X166513140Y-135822595D01*
G37*
G36*
X168014819Y-135798977D02*
G01*
X168103479Y-135808696D01*
X168186601Y-135824893D01*
X168264187Y-135847570D01*
X168336236Y-135876726D01*
X168402748Y-135912361D01*
X168478102Y-135966015D01*
X168519162Y-136003067D01*
X168579963Y-136071875D01*
X168630459Y-136148715D01*
X168663436Y-136215972D01*
X168689818Y-136288370D01*
X168709604Y-136365909D01*
X168722794Y-136448590D01*
X168729390Y-136536412D01*
X168730214Y-136582251D01*
X168727961Y-136664123D01*
X168721199Y-136741305D01*
X168707136Y-136827734D01*
X168686582Y-136907411D01*
X168659538Y-136980335D01*
X168637902Y-137025200D01*
X168593742Y-137097419D01*
X168541709Y-137162299D01*
X168481804Y-137219840D01*
X168414026Y-137270044D01*
X168371761Y-137295436D01*
X168303604Y-137328200D01*
X168229506Y-137354184D01*
X168149467Y-137373390D01*
X168063488Y-137385818D01*
X167987299Y-137390996D01*
X167939606Y-137391843D01*
X167859781Y-137389816D01*
X167784318Y-137383737D01*
X167699520Y-137371091D01*
X167621004Y-137352609D01*
X167548769Y-137328291D01*
X167504101Y-137308837D01*
X167431512Y-137267727D01*
X167365191Y-137217356D01*
X167305141Y-137157723D01*
X167258659Y-137099237D01*
X167223443Y-137045300D01*
X167187011Y-136974461D01*
X167158117Y-136897341D01*
X167136761Y-136813939D01*
X167124722Y-136739639D01*
X167117917Y-136660977D01*
X167116242Y-136594907D01*
X167614280Y-136594907D01*
X167617199Y-136674309D01*
X167627980Y-136755598D01*
X167650028Y-136833539D01*
X167687235Y-136902146D01*
X167697287Y-136914649D01*
X167755215Y-136965292D01*
X167824774Y-136997179D01*
X167905966Y-137010308D01*
X167923600Y-137010683D01*
X168001214Y-137003264D01*
X168075019Y-136977615D01*
X168135739Y-136933646D01*
X168151403Y-136916882D01*
X168190448Y-136851720D01*
X168214428Y-136773332D01*
X168227127Y-136688941D01*
X168231860Y-136604867D01*
X168232176Y-136574434D01*
X168228150Y-136488689D01*
X168216074Y-136413845D01*
X168192414Y-136341656D01*
X168153228Y-136277463D01*
X168148053Y-136271442D01*
X168089587Y-136221584D01*
X168019344Y-136190192D01*
X167937323Y-136177266D01*
X167919506Y-136176897D01*
X167838699Y-136186275D01*
X167768434Y-136214410D01*
X167708711Y-136261302D01*
X167698031Y-136272931D01*
X167657546Y-136337226D01*
X167632683Y-136411631D01*
X167619515Y-136490055D01*
X167614608Y-136567172D01*
X167614280Y-136594907D01*
X167116242Y-136594907D01*
X167119569Y-136503235D01*
X167129549Y-136416750D01*
X167146183Y-136335454D01*
X167169470Y-136259345D01*
X167199411Y-136188424D01*
X167236006Y-136122692D01*
X167291105Y-136047821D01*
X167329155Y-136006790D01*
X167384972Y-135957324D01*
X167445964Y-135914454D01*
X167512133Y-135878180D01*
X167583479Y-135848501D01*
X167660000Y-135825417D01*
X167741698Y-135808928D01*
X167828572Y-135799035D01*
X167920622Y-135795737D01*
X168014819Y-135798977D01*
G37*
G36*
X168773020Y-135819560D02*
G01*
X169247981Y-135819560D01*
X169402827Y-136601235D01*
X169628024Y-135819560D01*
X170095167Y-135819560D01*
X170321481Y-136611657D01*
X170476327Y-135819560D01*
X170949054Y-135819560D01*
X170605489Y-137368021D01*
X170122340Y-137368021D01*
X169862154Y-136440433D01*
X169603084Y-137368021D01*
X169119563Y-137368021D01*
X168773020Y-135819560D01*
G37*
G36*
X171047322Y-135819560D02*
G01*
X172341924Y-135819560D01*
X172341924Y-136200719D01*
X171546477Y-136200719D01*
X171546477Y-136391299D01*
X172284601Y-136391299D01*
X172284601Y-136724814D01*
X171546477Y-136724814D01*
X171546477Y-136986861D01*
X172365002Y-136986861D01*
X172365002Y-137368021D01*
X171047322Y-137368021D01*
X171047322Y-135819560D01*
G37*
G36*
X173476008Y-135820908D02*
G01*
X173559674Y-135825887D01*
X173643210Y-135836071D01*
X173721782Y-135853257D01*
X173737028Y-135857899D01*
X173807002Y-135888332D01*
X173868034Y-135931705D01*
X173920123Y-135988018D01*
X173929468Y-136000834D01*
X173968334Y-136070568D01*
X173992805Y-136149027D01*
X174002521Y-136227098D01*
X174003169Y-136254692D01*
X173997680Y-136332627D01*
X173978963Y-136410294D01*
X173946963Y-136479517D01*
X173903395Y-136540294D01*
X173849975Y-136592627D01*
X173792861Y-136632874D01*
X173725659Y-136666410D01*
X173664443Y-136685358D01*
X173733282Y-136718191D01*
X173751172Y-136730397D01*
X173805122Y-136785394D01*
X173828967Y-136814520D01*
X173875436Y-136876640D01*
X173897085Y-136912416D01*
X174135309Y-137368021D01*
X173572504Y-137368021D01*
X173316040Y-136895293D01*
X173277027Y-136830327D01*
X173233778Y-136781764D01*
X173164816Y-136752551D01*
X173124343Y-136748636D01*
X173094193Y-136748636D01*
X173094193Y-137368021D01*
X172594293Y-137368021D01*
X172594293Y-136438944D01*
X173094193Y-136438944D01*
X173282167Y-136438944D01*
X173358457Y-136428368D01*
X173405374Y-136418472D01*
X173470489Y-136381249D01*
X173475725Y-136374921D01*
X173502473Y-136305059D01*
X173502897Y-136293776D01*
X173485885Y-136221134D01*
X173459347Y-136189553D01*
X173390253Y-136161090D01*
X173313525Y-136153395D01*
X173290728Y-136153075D01*
X173094193Y-136153075D01*
X173094193Y-136438944D01*
X172594293Y-136438944D01*
X172594293Y-135819560D01*
X173396441Y-135819560D01*
X173476008Y-135820908D01*
G37*
G36*
X175757356Y-135821575D02*
G01*
X175839134Y-135829020D01*
X175913253Y-135841952D01*
X175988582Y-135863448D01*
X176022496Y-135876883D01*
X176092575Y-135913072D01*
X176155411Y-135957153D01*
X176211004Y-136009124D01*
X176238759Y-136041407D01*
X176283147Y-136104236D01*
X176319997Y-136172542D01*
X176349310Y-136246325D01*
X176362338Y-136289681D01*
X176380871Y-136370511D01*
X176392253Y-136444485D01*
X176398843Y-136520460D01*
X176400677Y-136588579D01*
X176399287Y-136663019D01*
X176393948Y-136745269D01*
X176384605Y-136819799D01*
X176368643Y-136896992D01*
X176343727Y-136972344D01*
X176308159Y-137045921D01*
X176265525Y-137112548D01*
X176215824Y-137172227D01*
X176185159Y-137202380D01*
X176126942Y-137249627D01*
X176059287Y-137290659D01*
X175988506Y-137319623D01*
X175966662Y-137325959D01*
X175889774Y-137344361D01*
X175807669Y-137358778D01*
X175730215Y-137366542D01*
X175681164Y-137368021D01*
X174964629Y-137368021D01*
X174964629Y-136986861D01*
X175462668Y-136986861D01*
X175566891Y-136986861D01*
X175641956Y-136984476D01*
X175720882Y-136973876D01*
X175771988Y-136956711D01*
X175831281Y-136908187D01*
X175866161Y-136850254D01*
X175888333Y-136771673D01*
X175897697Y-136689071D01*
X175900372Y-136609118D01*
X175900406Y-136598257D01*
X175897723Y-136516783D01*
X175887812Y-136434895D01*
X175867543Y-136358671D01*
X175828794Y-136289431D01*
X175824099Y-136284098D01*
X175759711Y-136236628D01*
X175688906Y-136212445D01*
X175612274Y-136202022D01*
X175569124Y-136200719D01*
X175462668Y-136200719D01*
X175462668Y-136986861D01*
X174964629Y-136986861D01*
X174964629Y-135819560D01*
X175681164Y-135819560D01*
X175757356Y-135821575D01*
G37*
G36*
X176635924Y-135819560D02*
G01*
X177134707Y-135819560D01*
X177134707Y-137368021D01*
X176635924Y-137368021D01*
X176635924Y-135819560D01*
G37*
G36*
X177362510Y-136825315D02*
G01*
X177837098Y-136795537D01*
X177851057Y-136869437D01*
X177878110Y-136941865D01*
X177895537Y-136968994D01*
X177950773Y-137019855D01*
X178020259Y-137049604D01*
X178095795Y-137058328D01*
X178171968Y-137050064D01*
X178240709Y-137017807D01*
X178243941Y-137015150D01*
X178289239Y-136952700D01*
X178295308Y-136915766D01*
X178270310Y-136845169D01*
X178246919Y-136820476D01*
X178176914Y-136782685D01*
X178104071Y-136759068D01*
X178021029Y-136738520D01*
X178009439Y-136735981D01*
X177933516Y-136718021D01*
X177846497Y-136693477D01*
X177768239Y-136666607D01*
X177698741Y-136637410D01*
X177626907Y-136599304D01*
X177559045Y-136550612D01*
X177505236Y-136495890D01*
X177459924Y-136425760D01*
X177431873Y-136347534D01*
X177421489Y-136272446D01*
X177420949Y-136249853D01*
X177429262Y-136168823D01*
X177454201Y-136091048D01*
X177491300Y-136023168D01*
X177542299Y-135960943D01*
X177599822Y-135912711D01*
X177668357Y-135871840D01*
X177702352Y-135856038D01*
X177778891Y-135829657D01*
X177856321Y-135812756D01*
X177930458Y-135802863D01*
X178011766Y-135797210D01*
X178085001Y-135795737D01*
X178174747Y-135798436D01*
X178257642Y-135806533D01*
X178333685Y-135820028D01*
X178415892Y-135843348D01*
X178488232Y-135874440D01*
X178540978Y-135906289D01*
X178604132Y-135961477D01*
X178655175Y-136030308D01*
X178689286Y-136100166D01*
X178714499Y-136180048D01*
X178728712Y-136254273D01*
X178730813Y-136269954D01*
X178260319Y-136296754D01*
X178239423Y-136221245D01*
X178197850Y-136156815D01*
X178188107Y-136148236D01*
X178119076Y-136114835D01*
X178044084Y-136105471D01*
X178038100Y-136105430D01*
X177962580Y-136115323D01*
X177921593Y-136136697D01*
X177883960Y-136203087D01*
X177883626Y-136211142D01*
X177914149Y-136266603D01*
X177983297Y-136298525D01*
X178059964Y-136317875D01*
X178067506Y-136319460D01*
X178142922Y-136335896D01*
X178229456Y-136356604D01*
X178307393Y-136377495D01*
X178389569Y-136402803D01*
X178469795Y-136432661D01*
X178516783Y-136454205D01*
X178587974Y-136495858D01*
X178647447Y-136542929D01*
X178699784Y-136601584D01*
X178716668Y-136626918D01*
X178749841Y-136693992D01*
X178770728Y-136765863D01*
X178779329Y-136842533D01*
X178779574Y-136858443D01*
X178772950Y-136940996D01*
X178753075Y-137019899D01*
X178719951Y-137095150D01*
X178695824Y-137135379D01*
X178649854Y-137194819D01*
X178595695Y-137246582D01*
X178533347Y-137290667D01*
X178462810Y-137327076D01*
X178383572Y-137355411D01*
X178306377Y-137373564D01*
X178221843Y-137385518D01*
X178143545Y-137390831D01*
X178088351Y-137391843D01*
X177993032Y-137389394D01*
X177905285Y-137382049D01*
X177825111Y-137369806D01*
X177752510Y-137352666D01*
X177672406Y-137324355D01*
X177604135Y-137288392D01*
X177537828Y-137235136D01*
X177484712Y-137172981D01*
X177440939Y-137104048D01*
X177406509Y-137028337D01*
X177381423Y-136945846D01*
X177367656Y-136871926D01*
X177362510Y-136825315D01*
G37*
G36*
X178877842Y-135819560D02*
G01*
X180343296Y-135819560D01*
X180343296Y-136200719D01*
X179859775Y-136200719D01*
X179859775Y-137368021D01*
X179361736Y-137368021D01*
X179361736Y-136200719D01*
X178877842Y-136200719D01*
X178877842Y-135819560D01*
G37*
G36*
X181413358Y-135820908D02*
G01*
X181497024Y-135825887D01*
X181580560Y-135836071D01*
X181659132Y-135853257D01*
X181674377Y-135857899D01*
X181744351Y-135888332D01*
X181805383Y-135931705D01*
X181857473Y-135988018D01*
X181866818Y-136000834D01*
X181905683Y-136070568D01*
X181930154Y-136149027D01*
X181939871Y-136227098D01*
X181940519Y-136254692D01*
X181935030Y-136332627D01*
X181916313Y-136410294D01*
X181884312Y-136479517D01*
X181840744Y-136540294D01*
X181787324Y-136592627D01*
X181730211Y-136632874D01*
X181663008Y-136666410D01*
X181601793Y-136685358D01*
X181670631Y-136718191D01*
X181688521Y-136730397D01*
X181742471Y-136785394D01*
X181766317Y-136814520D01*
X181812785Y-136876640D01*
X181834434Y-136912416D01*
X182072659Y-137368021D01*
X181509853Y-137368021D01*
X181253389Y-136895293D01*
X181214377Y-136830327D01*
X181171127Y-136781764D01*
X181102166Y-136752551D01*
X181061693Y-136748636D01*
X181031542Y-136748636D01*
X181031542Y-137368021D01*
X180531643Y-137368021D01*
X180531643Y-136438944D01*
X181031542Y-136438944D01*
X181219517Y-136438944D01*
X181295807Y-136428368D01*
X181342723Y-136418472D01*
X181407839Y-136381249D01*
X181413074Y-136374921D01*
X181439822Y-136305059D01*
X181440247Y-136293776D01*
X181423235Y-136221134D01*
X181396696Y-136189553D01*
X181327603Y-136161090D01*
X181250875Y-136153395D01*
X181228078Y-136153075D01*
X181031542Y-136153075D01*
X181031542Y-136438944D01*
X180531643Y-136438944D01*
X180531643Y-135819560D01*
X181333790Y-135819560D01*
X181413358Y-135820908D01*
G37*
G36*
X182202938Y-135819560D02*
G01*
X182701721Y-135819560D01*
X182701721Y-137368021D01*
X182202938Y-137368021D01*
X182202938Y-135819560D01*
G37*
G36*
X183995278Y-135823368D02*
G01*
X184069192Y-135834792D01*
X184146197Y-135857746D01*
X184213263Y-135891067D01*
X184262837Y-135927878D01*
X184316414Y-135985270D01*
X184354684Y-136049130D01*
X184379440Y-136128704D01*
X184385300Y-136196253D01*
X184376721Y-136276565D01*
X184350985Y-136349534D01*
X184308092Y-136415161D01*
X184297454Y-136427405D01*
X184239292Y-136478594D01*
X184170581Y-136513722D01*
X184166058Y-136515251D01*
X184242219Y-136542360D01*
X184308784Y-136583211D01*
X184365752Y-136637802D01*
X184375994Y-136650369D01*
X184418589Y-136719470D01*
X184443436Y-136790426D01*
X184455505Y-136869685D01*
X184456767Y-136907577D01*
X184451205Y-136983578D01*
X184432240Y-137061637D01*
X184399816Y-137133890D01*
X184355649Y-137198015D01*
X184301453Y-137252199D01*
X184243481Y-137292831D01*
X184172326Y-137323147D01*
X184095851Y-137340804D01*
X184058857Y-137346431D01*
X183976916Y-137356868D01*
X183899876Y-137364985D01*
X183844827Y-137368021D01*
X183014391Y-137368021D01*
X183014391Y-136986861D01*
X183516524Y-136986861D01*
X183746560Y-136986861D01*
X183825006Y-136981208D01*
X183898335Y-136956083D01*
X183911083Y-136946661D01*
X183952114Y-136882195D01*
X183957612Y-136839087D01*
X183935796Y-136765051D01*
X183911456Y-136738958D01*
X183841800Y-136709334D01*
X183767332Y-136701325D01*
X183745443Y-136700991D01*
X183516524Y-136700991D01*
X183516524Y-136986861D01*
X183014391Y-136986861D01*
X183014391Y-136391299D01*
X183516524Y-136391299D01*
X183710826Y-136391299D01*
X183786505Y-136386139D01*
X183857111Y-136360032D01*
X183895033Y-136293911D01*
X183896939Y-136269209D01*
X183872630Y-136198608D01*
X183857111Y-136183969D01*
X183782782Y-136157419D01*
X183714176Y-136153075D01*
X183516524Y-136153075D01*
X183516524Y-136391299D01*
X183014391Y-136391299D01*
X183014391Y-135819560D01*
X183914061Y-135819560D01*
X183995278Y-135823368D01*
G37*
G36*
X185643796Y-135819560D02*
G01*
X186140718Y-135819560D01*
X186140718Y-136738586D01*
X186137302Y-136814309D01*
X186125496Y-136895820D01*
X186105256Y-136974570D01*
X186097540Y-136997656D01*
X186065755Y-137071018D01*
X186024374Y-137138491D01*
X185973396Y-137200075D01*
X185962049Y-137211686D01*
X185903409Y-137263572D01*
X185836722Y-137308303D01*
X185767747Y-137340104D01*
X185694116Y-137362740D01*
X185613553Y-137378908D01*
X185537372Y-137387750D01*
X185455884Y-137391641D01*
X185431627Y-137391843D01*
X185351581Y-137389952D01*
X185274460Y-137384950D01*
X185193196Y-137376822D01*
X185184841Y-137375837D01*
X185105503Y-137363013D01*
X185027888Y-137341853D01*
X184960389Y-137313303D01*
X184894418Y-137272300D01*
X184832739Y-137220200D01*
X184794004Y-137179302D01*
X184747685Y-137118716D01*
X184709997Y-137051018D01*
X184690525Y-136999144D01*
X184669113Y-136919241D01*
X184654708Y-136844519D01*
X184646922Y-136767573D01*
X184646230Y-136738586D01*
X184646230Y-135819560D01*
X185143152Y-135819560D01*
X185143152Y-136758314D01*
X185150937Y-136834214D01*
X185180212Y-136907809D01*
X185209036Y-136944427D01*
X185271531Y-136987326D01*
X185344595Y-137007513D01*
X185394032Y-137010683D01*
X185468785Y-137002986D01*
X185541364Y-136974042D01*
X185577540Y-136945544D01*
X185620438Y-136883039D01*
X185640626Y-136808876D01*
X185643796Y-136758314D01*
X185643796Y-135819560D01*
G37*
G36*
X186286630Y-135819560D02*
G01*
X187752085Y-135819560D01*
X187752085Y-136200719D01*
X187268563Y-136200719D01*
X187268563Y-137368021D01*
X186770524Y-137368021D01*
X186770524Y-136200719D01*
X186286630Y-136200719D01*
X186286630Y-135819560D01*
G37*
G36*
X187953087Y-135819560D02*
G01*
X188451870Y-135819560D01*
X188451870Y-137368021D01*
X187953087Y-137368021D01*
X187953087Y-135819560D01*
G37*
G36*
X189602444Y-135798977D02*
G01*
X189691103Y-135808696D01*
X189774226Y-135824893D01*
X189851812Y-135847570D01*
X189923861Y-135876726D01*
X189990373Y-135912361D01*
X190065727Y-135966015D01*
X190106787Y-136003067D01*
X190167588Y-136071875D01*
X190218084Y-136148715D01*
X190251061Y-136215972D01*
X190277442Y-136288370D01*
X190297229Y-136365909D01*
X190310419Y-136448590D01*
X190317015Y-136536412D01*
X190317839Y-136582251D01*
X190315585Y-136664123D01*
X190308824Y-136741305D01*
X190294761Y-136827734D01*
X190274207Y-136907411D01*
X190247163Y-136980335D01*
X190225527Y-137025200D01*
X190181367Y-137097419D01*
X190129334Y-137162299D01*
X190069429Y-137219840D01*
X190001650Y-137270044D01*
X189959385Y-137295436D01*
X189891229Y-137328200D01*
X189817131Y-137354184D01*
X189737092Y-137373390D01*
X189651112Y-137385818D01*
X189574924Y-137390996D01*
X189527231Y-137391843D01*
X189447406Y-137389816D01*
X189371943Y-137383737D01*
X189287145Y-137371091D01*
X189208629Y-137352609D01*
X189136393Y-137328291D01*
X189091726Y-137308837D01*
X189019136Y-137267727D01*
X188952816Y-137217356D01*
X188892766Y-137157723D01*
X188846284Y-137099237D01*
X188811068Y-137045300D01*
X188774636Y-136974461D01*
X188745742Y-136897341D01*
X188724386Y-136813939D01*
X188712347Y-136739639D01*
X188705542Y-136660977D01*
X188703867Y-136594907D01*
X189201905Y-136594907D01*
X189204823Y-136674309D01*
X189215605Y-136755598D01*
X189237653Y-136833539D01*
X189274860Y-136902146D01*
X189284912Y-136914649D01*
X189342839Y-136965292D01*
X189412399Y-136997179D01*
X189493591Y-137010308D01*
X189511225Y-137010683D01*
X189588839Y-137003264D01*
X189662644Y-136977615D01*
X189723363Y-136933646D01*
X189739028Y-136916882D01*
X189778073Y-136851720D01*
X189802053Y-136773332D01*
X189814752Y-136688941D01*
X189819485Y-136604867D01*
X189819801Y-136574434D01*
X189815775Y-136488689D01*
X189803699Y-136413845D01*
X189780039Y-136341656D01*
X189740853Y-136277463D01*
X189735677Y-136271442D01*
X189677212Y-136221584D01*
X189606969Y-136190192D01*
X189524948Y-136177266D01*
X189507131Y-136176897D01*
X189426324Y-136186275D01*
X189356059Y-136214410D01*
X189296336Y-136261302D01*
X189285656Y-136272931D01*
X189245171Y-136337226D01*
X189220308Y-136411631D01*
X189207140Y-136490055D01*
X189202232Y-136567172D01*
X189201905Y-136594907D01*
X188703867Y-136594907D01*
X188707193Y-136503235D01*
X188717174Y-136416750D01*
X188733808Y-136335454D01*
X188757095Y-136259345D01*
X188787036Y-136188424D01*
X188823630Y-136122692D01*
X188878730Y-136047821D01*
X188916780Y-136006790D01*
X188972597Y-135957324D01*
X189033589Y-135914454D01*
X189099758Y-135878180D01*
X189171104Y-135848501D01*
X189247625Y-135825417D01*
X189329323Y-135808928D01*
X189416197Y-135799035D01*
X189508247Y-135795737D01*
X189602444Y-135798977D01*
G37*
G36*
X190542664Y-135819560D02*
G01*
X191003852Y-135819560D01*
X191563680Y-136651485D01*
X191563680Y-135819560D01*
X192034174Y-135819560D01*
X192034174Y-137368021D01*
X191569263Y-137368021D01*
X191012413Y-136540562D01*
X191012413Y-137368021D01*
X190542664Y-137368021D01*
X190542664Y-135819560D01*
G37*
G36*
X193582262Y-135819560D02*
G01*
X194104123Y-135819560D01*
X194440988Y-136888966D01*
X194772269Y-135819560D01*
X195279985Y-135819560D01*
X194701546Y-137368021D01*
X194171124Y-137368021D01*
X193582262Y-135819560D01*
G37*
G36*
X196600643Y-137368021D02*
G01*
X195295991Y-137368021D01*
X195308052Y-137291415D01*
X195326368Y-137217374D01*
X195350939Y-137145897D01*
X195381766Y-137076986D01*
X195418847Y-137010640D01*
X195432598Y-136989094D01*
X195481775Y-136923001D01*
X195533273Y-136865044D01*
X195594330Y-136804470D01*
X195650059Y-136754127D01*
X195711907Y-136702108D01*
X195779873Y-136648414D01*
X195853958Y-136593046D01*
X195918987Y-136544466D01*
X195982814Y-136493777D01*
X196039880Y-136443741D01*
X196090694Y-136388694D01*
X196128661Y-136322158D01*
X196141316Y-136260276D01*
X196122414Y-136187517D01*
X196092927Y-136150841D01*
X196026852Y-136112924D01*
X195971209Y-136105430D01*
X195897327Y-136119402D01*
X195845397Y-136154936D01*
X195806575Y-136221222D01*
X195786422Y-136295095D01*
X195778396Y-136344399D01*
X195327258Y-136307176D01*
X195341141Y-136226243D01*
X195361892Y-136144522D01*
X195387855Y-136074293D01*
X195423292Y-136009023D01*
X195471747Y-135949111D01*
X195531034Y-135898722D01*
X195601154Y-135857857D01*
X195616478Y-135850827D01*
X195694039Y-135824197D01*
X195775440Y-135807842D01*
X195856284Y-135799181D01*
X195932724Y-135795953D01*
X195959670Y-135795737D01*
X196041336Y-135797556D01*
X196116040Y-135803013D01*
X196194396Y-135813978D01*
X196272342Y-135832571D01*
X196314774Y-135847477D01*
X196382501Y-135880787D01*
X196447669Y-135928159D01*
X196502224Y-135986436D01*
X196516520Y-136006045D01*
X196555386Y-136075590D01*
X196579857Y-136150225D01*
X196589933Y-136229948D01*
X196590221Y-136246503D01*
X196583567Y-136324827D01*
X196563604Y-136401089D01*
X196530333Y-136475290D01*
X196506098Y-136515623D01*
X196455801Y-136580925D01*
X196397974Y-136640469D01*
X196338145Y-136693293D01*
X196268841Y-136747766D01*
X196203850Y-136794420D01*
X196138358Y-136839443D01*
X196076625Y-136883115D01*
X196032254Y-136916510D01*
X195973605Y-136966849D01*
X195952226Y-136986861D01*
X196600643Y-136986861D01*
X196600643Y-137368021D01*
G37*
D11*
X208562107Y-97840239D02*
X208562107Y-95840239D01*
X208562107Y-95840239D02*
X209533536Y-97840239D01*
X209533536Y-97840239D02*
X209533536Y-95840239D01*
X210343059Y-96792620D02*
X210909726Y-96792620D01*
X211152583Y-97840239D02*
X210343059Y-97840239D01*
X210343059Y-97840239D02*
X210343059Y-95840239D01*
X210343059Y-95840239D02*
X211152583Y-95840239D01*
X212771631Y-95935477D02*
X212609726Y-95840239D01*
X212609726Y-95840239D02*
X212366869Y-95840239D01*
X212366869Y-95840239D02*
X212124012Y-95935477D01*
X212124012Y-95935477D02*
X211962107Y-96125953D01*
X211962107Y-96125953D02*
X211881154Y-96316429D01*
X211881154Y-96316429D02*
X211800202Y-96697381D01*
X211800202Y-96697381D02*
X211800202Y-96983096D01*
X211800202Y-96983096D02*
X211881154Y-97364048D01*
X211881154Y-97364048D02*
X211962107Y-97554524D01*
X211962107Y-97554524D02*
X212124012Y-97745001D01*
X212124012Y-97745001D02*
X212366869Y-97840239D01*
X212366869Y-97840239D02*
X212528773Y-97840239D01*
X212528773Y-97840239D02*
X212771631Y-97745001D01*
X212771631Y-97745001D02*
X212852583Y-97649762D01*
X212852583Y-97649762D02*
X212852583Y-96983096D01*
X212852583Y-96983096D02*
X212528773Y-96983096D01*
D12*
G36*
X165642811Y-72676897D02*
G01*
X165847535Y-72676897D01*
X165924586Y-72295737D01*
X166246189Y-72295737D01*
X166169138Y-72676897D01*
X166313562Y-72676897D01*
X166313562Y-72986589D01*
X166106604Y-72986589D01*
X166058587Y-73224814D01*
X166313562Y-73224814D01*
X166313562Y-73534506D01*
X165996053Y-73534506D01*
X165923841Y-73891843D01*
X165601494Y-73891843D01*
X165673705Y-73534506D01*
X165468237Y-73534506D01*
X165395280Y-73891843D01*
X165074794Y-73891843D01*
X165147005Y-73534506D01*
X165007421Y-73534506D01*
X165007421Y-73224814D01*
X165209912Y-73224814D01*
X165531143Y-73224814D01*
X165736612Y-73224814D01*
X165784629Y-72986589D01*
X165579904Y-72986589D01*
X165531143Y-73224814D01*
X165209912Y-73224814D01*
X165257929Y-72986589D01*
X165007421Y-72986589D01*
X165007421Y-72676897D01*
X165320835Y-72676897D01*
X165397886Y-72295737D01*
X165720606Y-72295737D01*
X165642811Y-72676897D01*
G37*
G36*
X166348924Y-72319560D02*
G01*
X166823884Y-72319560D01*
X166978730Y-73101235D01*
X167203927Y-72319560D01*
X167671071Y-72319560D01*
X167897384Y-73111657D01*
X168052230Y-72319560D01*
X168524957Y-72319560D01*
X168181393Y-73868021D01*
X167698243Y-73868021D01*
X167438057Y-72940433D01*
X167178988Y-73868021D01*
X166695466Y-73868021D01*
X166348924Y-72319560D01*
G37*
G36*
X169649080Y-73221836D02*
G01*
X170087563Y-73348765D01*
X170065614Y-73427093D01*
X170039176Y-73498902D01*
X170003466Y-73572986D01*
X169961893Y-73638556D01*
X169950583Y-73653618D01*
X169895573Y-73715427D01*
X169833555Y-73768108D01*
X169764529Y-73811662D01*
X169723153Y-73831915D01*
X169650662Y-73858133D01*
X169569052Y-73876861D01*
X169490161Y-73887103D01*
X169404289Y-73891609D01*
X169378472Y-73891843D01*
X169301717Y-73890053D01*
X169215488Y-73883178D01*
X169135672Y-73871148D01*
X169062268Y-73853961D01*
X168984734Y-73827394D01*
X168964184Y-73818514D01*
X168895772Y-73781125D01*
X168831564Y-73733121D01*
X168771559Y-73674500D01*
X168723472Y-73615805D01*
X168685759Y-73560934D01*
X168646038Y-73488127D01*
X168614536Y-73408176D01*
X168594561Y-73336092D01*
X168580294Y-73259046D01*
X168571734Y-73177038D01*
X168568880Y-73090068D01*
X168572096Y-72997337D01*
X168581745Y-72910097D01*
X168597826Y-72828346D01*
X168620340Y-72752087D01*
X168649287Y-72681317D01*
X168694515Y-72600576D01*
X168749795Y-72528414D01*
X168774721Y-72501951D01*
X168843298Y-72442544D01*
X168920144Y-72393205D01*
X168987575Y-72360985D01*
X169060298Y-72335208D01*
X169138315Y-72315875D01*
X169221624Y-72302987D01*
X169310225Y-72296543D01*
X169356510Y-72295737D01*
X169445243Y-72298664D01*
X169527887Y-72307442D01*
X169604442Y-72322073D01*
X169688272Y-72347355D01*
X169763334Y-72381065D01*
X169819187Y-72415594D01*
X169879654Y-72465474D01*
X169934310Y-72525221D01*
X169983156Y-72594834D01*
X170019423Y-72660383D01*
X170051654Y-72732783D01*
X170074535Y-72795637D01*
X169631958Y-72893533D01*
X169604791Y-72820552D01*
X169584313Y-72784470D01*
X169530166Y-72729102D01*
X169491256Y-72704814D01*
X169417305Y-72680823D01*
X169368049Y-72676897D01*
X169286661Y-72686525D01*
X169216696Y-72715409D01*
X169158155Y-72763550D01*
X169130569Y-72798615D01*
X169097592Y-72866045D01*
X169078356Y-72944571D01*
X169069562Y-73028560D01*
X169068035Y-73087835D01*
X169070639Y-73174198D01*
X169078452Y-73249596D01*
X169094149Y-73323700D01*
X169124747Y-73397044D01*
X169142108Y-73421721D01*
X169200415Y-73472371D01*
X169272972Y-73501996D01*
X169351299Y-73510683D01*
X169426900Y-73503850D01*
X169501020Y-73477608D01*
X169548951Y-73440705D01*
X169594439Y-73376950D01*
X169625067Y-73307026D01*
X169646977Y-73231042D01*
X169649080Y-73221836D01*
G37*
G36*
X171141983Y-72322595D02*
G01*
X171228142Y-72334250D01*
X171305114Y-72354647D01*
X171383305Y-72389492D01*
X171448991Y-72436235D01*
X171457355Y-72443883D01*
X171508698Y-72503244D01*
X171547430Y-72572544D01*
X171573552Y-72651783D01*
X171585906Y-72727612D01*
X171589123Y-72796382D01*
X171584084Y-72880861D01*
X171568970Y-72958143D01*
X171543779Y-73028228D01*
X171501655Y-73100896D01*
X171445816Y-73163769D01*
X171376012Y-73215402D01*
X171304867Y-73249565D01*
X171223280Y-73274411D01*
X171147313Y-73287999D01*
X171064095Y-73295117D01*
X171010683Y-73296281D01*
X170763153Y-73296281D01*
X170763153Y-73868021D01*
X170262881Y-73868021D01*
X170262881Y-72962767D01*
X170763153Y-72962767D01*
X170867376Y-72962767D01*
X170942505Y-72958550D01*
X171016478Y-72940461D01*
X171052000Y-72919588D01*
X171096464Y-72856310D01*
X171103740Y-72809409D01*
X171086292Y-72735371D01*
X171059073Y-72698486D01*
X170988082Y-72663053D01*
X170909635Y-72653474D01*
X170886360Y-72653075D01*
X170763153Y-72653075D01*
X170763153Y-72962767D01*
X170262881Y-72962767D01*
X170262881Y-72319560D01*
X171063167Y-72319560D01*
X171141983Y-72322595D01*
G37*
G36*
X171694835Y-73105701D02*
G01*
X172338414Y-73105701D01*
X172338414Y-73463039D01*
X171694835Y-73463039D01*
X171694835Y-73105701D01*
G37*
G36*
X173117673Y-72298551D02*
G01*
X173195575Y-72306991D01*
X173278356Y-72323951D01*
X173352409Y-72348569D01*
X173408936Y-72375766D01*
X173476425Y-72421620D01*
X173536703Y-72479152D01*
X173583529Y-72539073D01*
X173624834Y-72607935D01*
X173635622Y-72629252D01*
X173664463Y-72698146D01*
X173687338Y-72774734D01*
X173704245Y-72859017D01*
X173713776Y-72935131D01*
X173719163Y-73016588D01*
X173720489Y-73085601D01*
X173718922Y-73161686D01*
X173711957Y-73257086D01*
X173699421Y-73345577D01*
X173681313Y-73427159D01*
X173657633Y-73501831D01*
X173620198Y-73585454D01*
X173574056Y-73658282D01*
X173542193Y-73696796D01*
X173483238Y-73752987D01*
X173417577Y-73799653D01*
X173345209Y-73836796D01*
X173266135Y-73864415D01*
X173180354Y-73882510D01*
X173087866Y-73891081D01*
X173048993Y-73891843D01*
X172971582Y-73889706D01*
X172892140Y-73882028D01*
X172814282Y-73866718D01*
X172755307Y-73847176D01*
X172685149Y-73811541D01*
X172623612Y-73766054D01*
X172575150Y-73716152D01*
X172529234Y-73650185D01*
X172493524Y-73578764D01*
X172466295Y-73505161D01*
X172460876Y-73487605D01*
X172909781Y-73438099D01*
X172932580Y-73509195D01*
X172964498Y-73552745D01*
X173034833Y-73581117D01*
X173054205Y-73582151D01*
X173129929Y-73563556D01*
X173185955Y-73512988D01*
X173203839Y-73485000D01*
X173231250Y-73410496D01*
X173247480Y-73329749D01*
X173257539Y-73252207D01*
X173262279Y-73202108D01*
X173205300Y-73254387D01*
X173140608Y-73295506D01*
X173125300Y-73303354D01*
X173053680Y-73329623D01*
X172980153Y-73341985D01*
X172933975Y-73343926D01*
X172857134Y-73338783D01*
X172773308Y-73319783D01*
X172695751Y-73286784D01*
X172624464Y-73239784D01*
X172577383Y-73197641D01*
X172528048Y-73139949D01*
X172483392Y-73065827D01*
X172456173Y-72996454D01*
X172439161Y-72921689D01*
X172432356Y-72841532D01*
X172432215Y-72827649D01*
X172432950Y-72815737D01*
X172861019Y-72815737D01*
X172869988Y-72894361D01*
X172902627Y-72964011D01*
X172915364Y-72978772D01*
X172981275Y-73022048D01*
X173052343Y-73034234D01*
X173130046Y-73020741D01*
X173193417Y-72980261D01*
X173235572Y-72914377D01*
X173249404Y-72837187D01*
X173249623Y-72824671D01*
X173239856Y-72748150D01*
X173204311Y-72678636D01*
X173190439Y-72663497D01*
X173124741Y-72619946D01*
X173051318Y-72605486D01*
X173046016Y-72605430D01*
X172968759Y-72620137D01*
X172913503Y-72657541D01*
X172874140Y-72722960D01*
X172861224Y-72802644D01*
X172861019Y-72815737D01*
X172432950Y-72815737D01*
X172436821Y-72753040D01*
X172453015Y-72673166D01*
X172480869Y-72597591D01*
X172505915Y-72549596D01*
X172551969Y-72483894D01*
X172606796Y-72427908D01*
X172670398Y-72381639D01*
X172709523Y-72360133D01*
X172778478Y-72331960D01*
X172855436Y-72311836D01*
X172929339Y-72300831D01*
X173009369Y-72295989D01*
X173033360Y-72295737D01*
X173117673Y-72298551D01*
G37*
G36*
X173874963Y-72319560D02*
G01*
X175143510Y-72319560D01*
X175143510Y-72622180D01*
X175083676Y-72678441D01*
X175027846Y-72736116D01*
X174976021Y-72795204D01*
X174928200Y-72855705D01*
X174884384Y-72917620D01*
X174870668Y-72938572D01*
X174831068Y-73003684D01*
X174794158Y-73071068D01*
X174759938Y-73140725D01*
X174728408Y-73212652D01*
X174699567Y-73286852D01*
X174673417Y-73363324D01*
X174663710Y-73394549D01*
X174642458Y-73470736D01*
X174623929Y-73552733D01*
X174608121Y-73640541D01*
X174597026Y-73718152D01*
X174587823Y-73799798D01*
X174581820Y-73868021D01*
X174131799Y-73868021D01*
X174145792Y-73772969D01*
X174161531Y-73682117D01*
X174179014Y-73595464D01*
X174198241Y-73513010D01*
X174219214Y-73434755D01*
X174241931Y-73360700D01*
X174272782Y-73274035D01*
X174292601Y-73225186D01*
X174329149Y-73145250D01*
X174371095Y-73064569D01*
X174408539Y-72999488D01*
X174449437Y-72933929D01*
X174493790Y-72867894D01*
X174541598Y-72801382D01*
X174592861Y-72734393D01*
X174619787Y-72700719D01*
X173874963Y-72700719D01*
X173874963Y-72319560D01*
G37*
G36*
X176561319Y-73868021D02*
G01*
X175256666Y-73868021D01*
X175268727Y-73791415D01*
X175287043Y-73717374D01*
X175311615Y-73645897D01*
X175342441Y-73576986D01*
X175379523Y-73510640D01*
X175393273Y-73489094D01*
X175442451Y-73423001D01*
X175493948Y-73365044D01*
X175555006Y-73304470D01*
X175610735Y-73254127D01*
X175672582Y-73202108D01*
X175740549Y-73148414D01*
X175814633Y-73093046D01*
X175879662Y-73044466D01*
X175943489Y-72993777D01*
X176000556Y-72943741D01*
X176051369Y-72888694D01*
X176089336Y-72822158D01*
X176101992Y-72760276D01*
X176083090Y-72687517D01*
X176053602Y-72650841D01*
X175987528Y-72612924D01*
X175931884Y-72605430D01*
X175858002Y-72619402D01*
X175806072Y-72654936D01*
X175767250Y-72721222D01*
X175747097Y-72795095D01*
X175739071Y-72844399D01*
X175287933Y-72807176D01*
X175301816Y-72726243D01*
X175322568Y-72644522D01*
X175348531Y-72574293D01*
X175383968Y-72509023D01*
X175432422Y-72449111D01*
X175491710Y-72398722D01*
X175561829Y-72357857D01*
X175577153Y-72350827D01*
X175654714Y-72324197D01*
X175736115Y-72307842D01*
X175816960Y-72299181D01*
X175893400Y-72295953D01*
X175920345Y-72295737D01*
X176002011Y-72297556D01*
X176076715Y-72303013D01*
X176155071Y-72313978D01*
X176233018Y-72332571D01*
X176275449Y-72347477D01*
X176343176Y-72380787D01*
X176408345Y-72428159D01*
X176462899Y-72486436D01*
X176477196Y-72506045D01*
X176516061Y-72575590D01*
X176540532Y-72650225D01*
X176550609Y-72729948D01*
X176550896Y-72746503D01*
X176544242Y-72824827D01*
X176524279Y-72901089D01*
X176491008Y-72975290D01*
X176466773Y-73015623D01*
X176416476Y-73080925D01*
X176358650Y-73140469D01*
X176298820Y-73193293D01*
X176229516Y-73247766D01*
X176164526Y-73294420D01*
X176099033Y-73339443D01*
X176037300Y-73383115D01*
X175992930Y-73416510D01*
X175934280Y-73466849D01*
X175912901Y-73486861D01*
X176561319Y-73486861D01*
X176561319Y-73868021D01*
G37*
D13*
G36*
X169017015Y-131239592D02*
G01*
X169246291Y-131253837D01*
X169472478Y-131282972D01*
X169681241Y-131332136D01*
X169721062Y-131345418D01*
X169913941Y-131442656D01*
X170079726Y-131600185D01*
X170173503Y-131753564D01*
X170244695Y-131973587D01*
X170261833Y-132199346D01*
X170238512Y-132423487D01*
X170228344Y-132475993D01*
X170167806Y-132695593D01*
X170081107Y-132895625D01*
X169968248Y-133076088D01*
X169942537Y-133109832D01*
X169787157Y-133280709D01*
X169609596Y-133427909D01*
X169428927Y-133541180D01*
X169233555Y-133631352D01*
X169035546Y-133690939D01*
X169223453Y-133798100D01*
X169247529Y-133818550D01*
X169377830Y-133995285D01*
X169415216Y-134059008D01*
X169515654Y-134252716D01*
X169547047Y-134338488D01*
X169937264Y-135623041D01*
X168381669Y-135623041D01*
X167947157Y-134278374D01*
X167868322Y-134074828D01*
X167787906Y-133959872D01*
X167589370Y-133873853D01*
X167509481Y-133868119D01*
X167419836Y-133868119D01*
X167054931Y-135623041D01*
X165667024Y-135623041D01*
X166214382Y-132990658D01*
X167602289Y-132990658D01*
X168115899Y-132990658D01*
X168333807Y-132960692D01*
X168469204Y-132932652D01*
X168662497Y-132835881D01*
X168693842Y-132806095D01*
X168806578Y-132620363D01*
X168819344Y-132571965D01*
X168813353Y-132360483D01*
X168763449Y-132280884D01*
X168561364Y-132197229D01*
X168342930Y-132180791D01*
X168321554Y-132180694D01*
X167771032Y-132180694D01*
X167602289Y-132990658D01*
X166214382Y-132990658D01*
X166579288Y-131235736D01*
X168797197Y-131235736D01*
X169017015Y-131239592D01*
G37*
G36*
X173543508Y-131177467D02*
G01*
X173784197Y-131205151D01*
X174005704Y-131251291D01*
X174208031Y-131315888D01*
X174433965Y-131422588D01*
X174629928Y-131558126D01*
X174795921Y-131722502D01*
X174825523Y-131758837D01*
X174953851Y-131954450D01*
X175048810Y-132172825D01*
X175110399Y-132413961D01*
X175138619Y-132677858D01*
X175137169Y-132905363D01*
X175114362Y-133147436D01*
X175070199Y-133404077D01*
X175015922Y-133635413D01*
X174951964Y-133853514D01*
X174878325Y-134058381D01*
X174777178Y-134286752D01*
X174662091Y-134496065D01*
X174555535Y-134655935D01*
X174415877Y-134831842D01*
X174263465Y-134992547D01*
X174098299Y-135138050D01*
X173920377Y-135268352D01*
X173729702Y-135383452D01*
X173663309Y-135418440D01*
X173455701Y-135510911D01*
X173235487Y-135584249D01*
X173002667Y-135638456D01*
X172757241Y-135673531D01*
X172543089Y-135688146D01*
X172410396Y-135690537D01*
X172189869Y-135684744D01*
X171944269Y-135662498D01*
X171719433Y-135623567D01*
X171515360Y-135567951D01*
X171303517Y-135481978D01*
X171248182Y-135453243D01*
X171070461Y-135336255D01*
X170915653Y-135192924D01*
X170783756Y-135023250D01*
X170674770Y-134827232D01*
X170622780Y-134703394D01*
X170555609Y-134467039D01*
X170524786Y-134245169D01*
X170518656Y-134005502D01*
X170525844Y-133894022D01*
X171913255Y-133894022D01*
X171928267Y-134113766D01*
X172000238Y-134324488D01*
X172010687Y-134341652D01*
X172170762Y-134505533D01*
X172372217Y-134589312D01*
X172575974Y-134610586D01*
X172796482Y-134589396D01*
X173017421Y-134516148D01*
X173213024Y-134390580D01*
X173266764Y-134342707D01*
X173414563Y-134156811D01*
X173514868Y-133964354D01*
X173590642Y-133766053D01*
X173656997Y-133536978D01*
X173696003Y-133367164D01*
X173731387Y-133157863D01*
X173746144Y-132942452D01*
X173723147Y-132711025D01*
X173642216Y-132513960D01*
X173495084Y-132362648D01*
X173295861Y-132274145D01*
X173069546Y-132248191D01*
X172838679Y-132274969D01*
X172625938Y-132355302D01*
X172449970Y-132473393D01*
X172394576Y-132522397D01*
X172243273Y-132705837D01*
X172129652Y-132917918D01*
X172046347Y-133141339D01*
X171986912Y-133360960D01*
X171969556Y-133439934D01*
X171931156Y-133664437D01*
X171913255Y-133894022D01*
X170525844Y-133894022D01*
X170532410Y-133792184D01*
X170563313Y-133566508D01*
X170590086Y-133425169D01*
X170653117Y-133166206D01*
X170731474Y-132921908D01*
X170825156Y-132692277D01*
X170934163Y-132477311D01*
X171058495Y-132277012D01*
X171198152Y-132091379D01*
X171353135Y-131920412D01*
X171523443Y-131764110D01*
X171706670Y-131624453D01*
X171900411Y-131503417D01*
X172104665Y-131401001D01*
X172319433Y-131317207D01*
X172544714Y-131252033D01*
X172780509Y-131205481D01*
X173026817Y-131177549D01*
X173283638Y-131168239D01*
X173543508Y-131177467D01*
G37*
G36*
X178908177Y-131246636D02*
G01*
X179137884Y-131286908D01*
X179359128Y-131369269D01*
X179536341Y-131490388D01*
X179591444Y-131545800D01*
X179718526Y-131731214D01*
X179786544Y-131939819D01*
X179795498Y-132171617D01*
X179774951Y-132310414D01*
X179713190Y-132514877D01*
X179604059Y-132722097D01*
X179469386Y-132890631D01*
X179398444Y-132960073D01*
X179220198Y-133095957D01*
X179020707Y-133194953D01*
X178979752Y-133208968D01*
X179191211Y-133295251D01*
X179361544Y-133429388D01*
X179480706Y-133592857D01*
X179558507Y-133790417D01*
X179586253Y-134016609D01*
X179568428Y-134244661D01*
X179553477Y-134325833D01*
X179493432Y-134540407D01*
X179405580Y-134741180D01*
X179289919Y-134928152D01*
X179263450Y-134963890D01*
X179120023Y-135129007D01*
X178958676Y-135271054D01*
X178779408Y-135390031D01*
X178741403Y-135411058D01*
X178543172Y-135491313D01*
X178325059Y-135542431D01*
X178199318Y-135561871D01*
X177989840Y-135588633D01*
X177765092Y-135612945D01*
X177593954Y-135623041D01*
X175284291Y-135623041D01*
X175508849Y-134543089D01*
X176903165Y-134543089D01*
X177531731Y-134543089D01*
X177753403Y-134526923D01*
X177962086Y-134461250D01*
X178014756Y-134428133D01*
X178158702Y-134262485D01*
X178210919Y-134117014D01*
X178191092Y-133902825D01*
X178144477Y-133838589D01*
X177942314Y-133750530D01*
X177731493Y-133733228D01*
X177711020Y-133733125D01*
X177071907Y-133733125D01*
X176903165Y-134543089D01*
X175508849Y-134543089D01*
X175859720Y-132855664D01*
X177253305Y-132855664D01*
X177782735Y-132855664D01*
X177996879Y-132840695D01*
X178202583Y-132770545D01*
X178210919Y-132764964D01*
X178346824Y-132601870D01*
X178378607Y-132502359D01*
X178341118Y-132288267D01*
X178320602Y-132266119D01*
X178119847Y-132190788D01*
X177947259Y-132180694D01*
X177394627Y-132180694D01*
X177253305Y-132855664D01*
X175859720Y-132855664D01*
X176196556Y-131235736D01*
X178684453Y-131235736D01*
X178908177Y-131246636D01*
G37*
G36*
X183225109Y-131177467D02*
G01*
X183465798Y-131205151D01*
X183687305Y-131251291D01*
X183889632Y-131315888D01*
X184115566Y-131422588D01*
X184311529Y-131558126D01*
X184477522Y-131722502D01*
X184507124Y-131758837D01*
X184635452Y-131954450D01*
X184730411Y-132172825D01*
X184792000Y-132413961D01*
X184820220Y-132677858D01*
X184818770Y-132905363D01*
X184795963Y-133147436D01*
X184751800Y-133404077D01*
X184697523Y-133635413D01*
X184633565Y-133853514D01*
X184559926Y-134058381D01*
X184458779Y-134286752D01*
X184343691Y-134496065D01*
X184237136Y-134655935D01*
X184097478Y-134831842D01*
X183945066Y-134992547D01*
X183779899Y-135138050D01*
X183601978Y-135268352D01*
X183411303Y-135383452D01*
X183344910Y-135418440D01*
X183137302Y-135510911D01*
X182917088Y-135584249D01*
X182684268Y-135638456D01*
X182438842Y-135673531D01*
X182224690Y-135688146D01*
X182091997Y-135690537D01*
X181871470Y-135684744D01*
X181625870Y-135662498D01*
X181401034Y-135623567D01*
X181196961Y-135567951D01*
X180985118Y-135481978D01*
X180929783Y-135453243D01*
X180752062Y-135336255D01*
X180597254Y-135192924D01*
X180465357Y-135023250D01*
X180356371Y-134827232D01*
X180304381Y-134703394D01*
X180237210Y-134467039D01*
X180206387Y-134245169D01*
X180200257Y-134005502D01*
X180207445Y-133894022D01*
X181594856Y-133894022D01*
X181609868Y-134113766D01*
X181681839Y-134324488D01*
X181692288Y-134341652D01*
X181852362Y-134505533D01*
X182053817Y-134589312D01*
X182257575Y-134610586D01*
X182478083Y-134589396D01*
X182699022Y-134516148D01*
X182894624Y-134390580D01*
X182948365Y-134342707D01*
X183096164Y-134156811D01*
X183196469Y-133964354D01*
X183272242Y-133766053D01*
X183338598Y-133536978D01*
X183377604Y-133367164D01*
X183412988Y-133157863D01*
X183427745Y-132942452D01*
X183404748Y-132711025D01*
X183323817Y-132513960D01*
X183176685Y-132362648D01*
X182977462Y-132274145D01*
X182751147Y-132248191D01*
X182520280Y-132274969D01*
X182307539Y-132355302D01*
X182131570Y-132473393D01*
X182076177Y-132522397D01*
X181924874Y-132705837D01*
X181811253Y-132917918D01*
X181727948Y-133141339D01*
X181668513Y-133360960D01*
X181651157Y-133439934D01*
X181612757Y-133664437D01*
X181594856Y-133894022D01*
X180207445Y-133894022D01*
X180214011Y-133792184D01*
X180244914Y-133566508D01*
X180271687Y-133425169D01*
X180334718Y-133166206D01*
X180413075Y-132921908D01*
X180506756Y-132692277D01*
X180615763Y-132477311D01*
X180740096Y-132277012D01*
X180879753Y-132091379D01*
X181034736Y-131920412D01*
X181205044Y-131764110D01*
X181388271Y-131624453D01*
X181582012Y-131503417D01*
X181786266Y-131401001D01*
X182001034Y-131317207D01*
X182226315Y-131252033D01*
X182462110Y-131205481D01*
X182708418Y-131177549D01*
X182965239Y-131168239D01*
X183225109Y-131177467D01*
G37*
G36*
X185550163Y-131235736D02*
G01*
X189613693Y-131235736D01*
X189389055Y-132315688D01*
X188049661Y-132315688D01*
X187362036Y-135623041D01*
X185979402Y-135623041D01*
X186667028Y-132315688D01*
X185325525Y-132315688D01*
X185550163Y-131235736D01*
G37*
G36*
X190188473Y-131235736D02*
G01*
X191573216Y-131235736D01*
X190660952Y-135623041D01*
X189276208Y-135623041D01*
X190188473Y-131235736D01*
G37*
G36*
X194791979Y-133793239D02*
G01*
X195937319Y-134153926D01*
X195846047Y-134345924D01*
X195731784Y-134552396D01*
X195609144Y-134739993D01*
X195478127Y-134908716D01*
X195379414Y-135017677D01*
X195212517Y-135174093D01*
X195034546Y-135310076D01*
X194845502Y-135425625D01*
X194645384Y-135520740D01*
X194429776Y-135595027D01*
X194223924Y-135642616D01*
X194002024Y-135673956D01*
X193764076Y-135689045D01*
X193657186Y-135690537D01*
X193445202Y-135685439D01*
X193209786Y-135665863D01*
X192995060Y-135631603D01*
X192770694Y-135573077D01*
X192574489Y-135494566D01*
X192548758Y-135481719D01*
X192357605Y-135357601D01*
X192190180Y-135194065D01*
X192063150Y-135018638D01*
X191954287Y-134813031D01*
X191926520Y-134748743D01*
X191858978Y-134541704D01*
X191818502Y-134314495D01*
X191805092Y-134067116D01*
X191814594Y-133845559D01*
X191842891Y-133609995D01*
X191879062Y-133411459D01*
X191942241Y-133149496D01*
X192019988Y-132903056D01*
X192112302Y-132672140D01*
X192219183Y-132456746D01*
X192340632Y-132256875D01*
X192476647Y-132072527D01*
X192627230Y-131903702D01*
X192792380Y-131750400D01*
X192970285Y-131613956D01*
X193159132Y-131495704D01*
X193358920Y-131395645D01*
X193569650Y-131313779D01*
X193791323Y-131250105D01*
X194023937Y-131204624D01*
X194267493Y-131177335D01*
X194521991Y-131168239D01*
X194766912Y-131176581D01*
X194991491Y-131201608D01*
X195234137Y-131253664D01*
X195447492Y-131329747D01*
X195659385Y-131448876D01*
X195737992Y-131509942D01*
X195897825Y-131678211D01*
X196027581Y-131884026D01*
X196114861Y-132090324D01*
X196180042Y-132324207D01*
X196217480Y-132540182D01*
X196223126Y-132585676D01*
X194942793Y-132863046D01*
X194909163Y-132650964D01*
X194874241Y-132548763D01*
X194743820Y-132381500D01*
X194665422Y-132326234D01*
X194455833Y-132255812D01*
X194343757Y-132248191D01*
X194111218Y-132275720D01*
X193898867Y-132358310D01*
X193706705Y-132495959D01*
X193608672Y-132596222D01*
X193477007Y-132788591D01*
X193387099Y-132985051D01*
X193319676Y-133187990D01*
X193262750Y-133419896D01*
X193219308Y-133664124D01*
X193196555Y-133877132D01*
X193198400Y-134112581D01*
X193252430Y-134328844D01*
X193270132Y-134361690D01*
X193429555Y-134522840D01*
X193640673Y-134598675D01*
X193792180Y-134610586D01*
X194006857Y-134591017D01*
X194212073Y-134524288D01*
X194384888Y-134410204D01*
X194536245Y-134246894D01*
X194663461Y-134054093D01*
X194769502Y-133844467D01*
X194791979Y-133793239D01*
G37*
G36*
X196361284Y-134085374D02*
G01*
X197694350Y-134001003D01*
X197688957Y-134213742D01*
X197724984Y-134432343D01*
X197753410Y-134496684D01*
X197901867Y-134657834D01*
X198103171Y-134733669D01*
X198249091Y-134745580D01*
X198466874Y-134721759D01*
X198668310Y-134636202D01*
X198689931Y-134621132D01*
X198837906Y-134468596D01*
X198893476Y-134334270D01*
X198856940Y-134121591D01*
X198816487Y-134068500D01*
X198629309Y-133955662D01*
X198410801Y-133882496D01*
X198213233Y-133832261D01*
X197965362Y-133767664D01*
X197743135Y-133696476D01*
X197546554Y-133618696D01*
X197344508Y-133516660D01*
X197155461Y-133385620D01*
X197070003Y-133304940D01*
X196938370Y-133124795D01*
X196859865Y-132921842D01*
X196834488Y-132696083D01*
X196855864Y-132479836D01*
X196862238Y-132447518D01*
X196923972Y-132239741D01*
X197022165Y-132039586D01*
X197156817Y-131847052D01*
X197188122Y-131809460D01*
X197345969Y-131650733D01*
X197530011Y-131512694D01*
X197715595Y-131407362D01*
X197868366Y-131339090D01*
X198095772Y-131264343D01*
X198320059Y-131216457D01*
X198531102Y-131188427D01*
X198759498Y-131172410D01*
X198963083Y-131168239D01*
X199211031Y-131175937D01*
X199436785Y-131199033D01*
X199678393Y-131247073D01*
X199888039Y-131317285D01*
X200092233Y-131427222D01*
X200166427Y-131483576D01*
X200309845Y-131640562D01*
X200411578Y-131835599D01*
X200471625Y-132068688D01*
X200489917Y-132298765D01*
X200481765Y-132511851D01*
X199161355Y-132587785D01*
X199147484Y-132370950D01*
X199057016Y-132172439D01*
X199049563Y-132164874D01*
X198855854Y-132065368D01*
X198664619Y-132045700D01*
X198448051Y-132074397D01*
X198319752Y-132136399D01*
X198183158Y-132298354D01*
X198166829Y-132351545D01*
X198216397Y-132504468D01*
X198415832Y-132602791D01*
X198607669Y-132652118D01*
X198854464Y-132710406D01*
X199077416Y-132769261D01*
X199313487Y-132840635D01*
X199515224Y-132912824D01*
X199730799Y-133010346D01*
X199775156Y-133034952D01*
X199965918Y-133167792D01*
X200112394Y-133319788D01*
X200222366Y-133509109D01*
X200229706Y-133527470D01*
X200286182Y-133738588D01*
X200297545Y-133965908D01*
X200268728Y-134186620D01*
X200211316Y-134393989D01*
X200126615Y-134593184D01*
X200014625Y-134784206D01*
X199875347Y-134967054D01*
X199713855Y-135134478D01*
X199534170Y-135280282D01*
X199336293Y-135404466D01*
X199120224Y-135507030D01*
X198915288Y-135578533D01*
X198693597Y-135632475D01*
X198455152Y-135668854D01*
X198237434Y-135686057D01*
X198046600Y-135690537D01*
X197783022Y-135683567D01*
X197543339Y-135662655D01*
X197327549Y-135627803D01*
X197091414Y-135564633D01*
X196892613Y-135479679D01*
X196703334Y-135348982D01*
X196607015Y-135244425D01*
X196480266Y-135036122D01*
X196404159Y-134837413D01*
X196358084Y-134620091D01*
X196342042Y-134384156D01*
X196351615Y-134173326D01*
X196361284Y-134085374D01*
G37*
D11*
X208562107Y-117830239D02*
X208562107Y-115830239D01*
X208562107Y-115830239D02*
X209533536Y-117830239D01*
X209533536Y-117830239D02*
X209533536Y-115830239D01*
X210343059Y-116782620D02*
X210909726Y-116782620D01*
X211152583Y-117830239D02*
X210343059Y-117830239D01*
X210343059Y-117830239D02*
X210343059Y-115830239D01*
X210343059Y-115830239D02*
X211152583Y-115830239D01*
X212771631Y-115925477D02*
X212609726Y-115830239D01*
X212609726Y-115830239D02*
X212366869Y-115830239D01*
X212366869Y-115830239D02*
X212124012Y-115925477D01*
X212124012Y-115925477D02*
X211962107Y-116115953D01*
X211962107Y-116115953D02*
X211881154Y-116306429D01*
X211881154Y-116306429D02*
X211800202Y-116687381D01*
X211800202Y-116687381D02*
X211800202Y-116973096D01*
X211800202Y-116973096D02*
X211881154Y-117354048D01*
X211881154Y-117354048D02*
X211962107Y-117544524D01*
X211962107Y-117544524D02*
X212124012Y-117735001D01*
X212124012Y-117735001D02*
X212366869Y-117830239D01*
X212366869Y-117830239D02*
X212528773Y-117830239D01*
X212528773Y-117830239D02*
X212771631Y-117735001D01*
X212771631Y-117735001D02*
X212852583Y-117639762D01*
X212852583Y-117639762D02*
X212852583Y-116973096D01*
X212852583Y-116973096D02*
X212528773Y-116973096D01*
D14*
G36*
X165328758Y-77065817D02*
G01*
X166325704Y-77065817D01*
X166325704Y-77383450D01*
X165745341Y-77383450D01*
X165745341Y-77562118D01*
X166241022Y-77562118D01*
X166241022Y-77840047D01*
X165745341Y-77840047D01*
X165745341Y-78356201D01*
X165328758Y-78356201D01*
X165328758Y-77065817D01*
G37*
G36*
X167344052Y-77065817D02*
G01*
X167758154Y-77065817D01*
X167758154Y-77831672D01*
X167755308Y-77894774D01*
X167745469Y-77962700D01*
X167728602Y-78028325D01*
X167722172Y-78047563D01*
X167695685Y-78108698D01*
X167661201Y-78164926D01*
X167618719Y-78216246D01*
X167609263Y-78225921D01*
X167560397Y-78269160D01*
X167504824Y-78306436D01*
X167447345Y-78332936D01*
X167385986Y-78351800D01*
X167318849Y-78365274D01*
X167255366Y-78372642D01*
X167187459Y-78375884D01*
X167167245Y-78376053D01*
X167100540Y-78374476D01*
X167036272Y-78370308D01*
X166968552Y-78363535D01*
X166961590Y-78362714D01*
X166895475Y-78352027D01*
X166830796Y-78334394D01*
X166774546Y-78310603D01*
X166719570Y-78276434D01*
X166668171Y-78233017D01*
X166635892Y-78198935D01*
X166597293Y-78148447D01*
X166565886Y-78092031D01*
X166549660Y-78048804D01*
X166531816Y-77982217D01*
X166519813Y-77919950D01*
X166513324Y-77855828D01*
X166512747Y-77831672D01*
X166512747Y-77065817D01*
X166926849Y-77065817D01*
X166926849Y-77848112D01*
X166933336Y-77911362D01*
X166957732Y-77972691D01*
X166981752Y-78003206D01*
X167033831Y-78038955D01*
X167094718Y-78055778D01*
X167135916Y-78058420D01*
X167198210Y-78052005D01*
X167258692Y-78027885D01*
X167288839Y-78004137D01*
X167324587Y-77952050D01*
X167341410Y-77890247D01*
X167344052Y-77848112D01*
X167344052Y-77065817D01*
G37*
G36*
X167922243Y-77903946D02*
G01*
X168317734Y-77879131D01*
X168329366Y-77940715D01*
X168351910Y-78001071D01*
X168366433Y-78023679D01*
X168412463Y-78066063D01*
X168470368Y-78090854D01*
X168533315Y-78098124D01*
X168596792Y-78091237D01*
X168654076Y-78064356D01*
X168656770Y-78062142D01*
X168694518Y-78010100D01*
X168699576Y-77979322D01*
X168678744Y-77920491D01*
X168659251Y-77899913D01*
X168600914Y-77868421D01*
X168540211Y-77848740D01*
X168471010Y-77831616D01*
X168461351Y-77829501D01*
X168398082Y-77814534D01*
X168325567Y-77794081D01*
X168260351Y-77771689D01*
X168202436Y-77747359D01*
X168142575Y-77715603D01*
X168086023Y-77675027D01*
X168041182Y-77629425D01*
X168003422Y-77570983D01*
X167980046Y-77505795D01*
X167971393Y-77443221D01*
X167970943Y-77424394D01*
X167977871Y-77356869D01*
X167998653Y-77292057D01*
X168029569Y-77235490D01*
X168072068Y-77183636D01*
X168120004Y-77143443D01*
X168177117Y-77109384D01*
X168205446Y-77096215D01*
X168269228Y-77074231D01*
X168333753Y-77060147D01*
X168395533Y-77051902D01*
X168463290Y-77047191D01*
X168524319Y-77045965D01*
X168599108Y-77048214D01*
X168668187Y-77054961D01*
X168731556Y-77066207D01*
X168800062Y-77085640D01*
X168860345Y-77111550D01*
X168904300Y-77138091D01*
X168956929Y-77184081D01*
X168999465Y-77241440D01*
X169027891Y-77299655D01*
X169048901Y-77366223D01*
X169060745Y-77428078D01*
X169062496Y-77441145D01*
X168670418Y-77463478D01*
X168653004Y-77400554D01*
X168618360Y-77346862D01*
X168610241Y-77339713D01*
X168552715Y-77311879D01*
X168490222Y-77304076D01*
X168485235Y-77304041D01*
X168422302Y-77312286D01*
X168388146Y-77330097D01*
X168356785Y-77385423D01*
X168356507Y-77392135D01*
X168381943Y-77438353D01*
X168439566Y-77464955D01*
X168503455Y-77481080D01*
X168509740Y-77482400D01*
X168572587Y-77496096D01*
X168644699Y-77513354D01*
X168709646Y-77530762D01*
X168778126Y-77551853D01*
X168844981Y-77576734D01*
X168884138Y-77594688D01*
X168943464Y-77629399D01*
X168993025Y-77668624D01*
X169036639Y-77717503D01*
X169050709Y-77738615D01*
X169078353Y-77794510D01*
X169095759Y-77854403D01*
X169102926Y-77918294D01*
X169103131Y-77931553D01*
X169097610Y-78000347D01*
X169081048Y-78066099D01*
X169053445Y-78128809D01*
X169033338Y-78162333D01*
X168995030Y-78211866D01*
X168949898Y-78255002D01*
X168897941Y-78291739D01*
X168839160Y-78322080D01*
X168773129Y-78345693D01*
X168708800Y-78360820D01*
X168638355Y-78370782D01*
X168573106Y-78375209D01*
X168527111Y-78376053D01*
X168447678Y-78374012D01*
X168374556Y-78367891D01*
X168307745Y-78357688D01*
X168247243Y-78343405D01*
X168180491Y-78319812D01*
X168123598Y-78289843D01*
X168068342Y-78245463D01*
X168024079Y-78193668D01*
X167987601Y-78136224D01*
X167958910Y-78073131D01*
X167938005Y-78004389D01*
X167926532Y-77942789D01*
X167922243Y-77903946D01*
G37*
G36*
X169274045Y-77065817D02*
G01*
X170352880Y-77065817D01*
X170352880Y-77383450D01*
X169690007Y-77383450D01*
X169690007Y-77542266D01*
X170305111Y-77542266D01*
X170305111Y-77820195D01*
X169690007Y-77820195D01*
X169690007Y-78038568D01*
X170372112Y-78038568D01*
X170372112Y-78356201D01*
X169274045Y-78356201D01*
X169274045Y-77065817D01*
G37*
G36*
X171146652Y-77065817D02*
G01*
X171684209Y-77065817D01*
X171877146Y-77806236D01*
X172069152Y-77065817D01*
X172605158Y-77065817D01*
X172605158Y-78356201D01*
X172262400Y-78356201D01*
X172272326Y-77371042D01*
X172029758Y-78356201D01*
X171722052Y-78356201D01*
X171480105Y-77371042D01*
X171490031Y-78356201D01*
X171146652Y-78356201D01*
X171146652Y-77065817D01*
G37*
G36*
X174115776Y-78356201D02*
G01*
X173680581Y-78356201D01*
X173617923Y-78137828D01*
X173182729Y-78137828D01*
X173120691Y-78356201D01*
X172695113Y-78356201D01*
X172890284Y-77840047D01*
X173274234Y-77840047D01*
X173528899Y-77840047D01*
X173401101Y-77433390D01*
X173274234Y-77840047D01*
X172890284Y-77840047D01*
X173183039Y-77065817D01*
X173627849Y-77065817D01*
X174115776Y-78356201D01*
G37*
G36*
X174114225Y-77065817D02*
G01*
X174573304Y-77065817D01*
X174794778Y-77446728D01*
X175008498Y-77065817D01*
X175463854Y-77065817D01*
X175059369Y-77691157D01*
X175501697Y-78356201D01*
X175033313Y-78356201D01*
X174786713Y-77956988D01*
X174539493Y-78356201D01*
X174073590Y-78356201D01*
X174522122Y-77684022D01*
X174114225Y-77065817D01*
G37*
G36*
X176953379Y-77045965D02*
G01*
X176953379Y-78356201D01*
X176574019Y-78356201D01*
X176574019Y-77521483D01*
X176523298Y-77558293D01*
X176470084Y-77591951D01*
X176419545Y-77619813D01*
X176362869Y-77646240D01*
X176302796Y-77670127D01*
X176242188Y-77691443D01*
X176200862Y-77704805D01*
X176200862Y-77386241D01*
X176267779Y-77363315D01*
X176328480Y-77338972D01*
X176391442Y-77308779D01*
X176445944Y-77276656D01*
X176485925Y-77247587D01*
X176532744Y-77205208D01*
X176574562Y-77157477D01*
X176611377Y-77104396D01*
X176643191Y-77045965D01*
X176953379Y-77045965D01*
G37*
G36*
X178373112Y-78356201D02*
G01*
X177285901Y-78356201D01*
X177295952Y-78292362D01*
X177311215Y-78230661D01*
X177331692Y-78171098D01*
X177357380Y-78113672D01*
X177388282Y-78058383D01*
X177399740Y-78040429D01*
X177440722Y-77985351D01*
X177483636Y-77937054D01*
X177534517Y-77886575D01*
X177580958Y-77844622D01*
X177632498Y-77801273D01*
X177689136Y-77756529D01*
X177750874Y-77710388D01*
X177805065Y-77669905D01*
X177858253Y-77627664D01*
X177905809Y-77585968D01*
X177948153Y-77540095D01*
X177979793Y-77484649D01*
X177990339Y-77433080D01*
X177974587Y-77372448D01*
X177950015Y-77341884D01*
X177894952Y-77310287D01*
X177848583Y-77304041D01*
X177787014Y-77315685D01*
X177743739Y-77345296D01*
X177711388Y-77400535D01*
X177694594Y-77462096D01*
X177687905Y-77503182D01*
X177311957Y-77472164D01*
X177323526Y-77404719D01*
X177340819Y-77336618D01*
X177362455Y-77278094D01*
X177391986Y-77223703D01*
X177432365Y-77173776D01*
X177481771Y-77131785D01*
X177540204Y-77097731D01*
X177552973Y-77091873D01*
X177617608Y-77069681D01*
X177685442Y-77056052D01*
X177752812Y-77048834D01*
X177816512Y-77046144D01*
X177838967Y-77045965D01*
X177907022Y-77047480D01*
X177969275Y-77052028D01*
X178034572Y-77061165D01*
X178099527Y-77076660D01*
X178134887Y-77089081D01*
X178191326Y-77116840D01*
X178245633Y-77156316D01*
X178291095Y-77204880D01*
X178303009Y-77221221D01*
X178335397Y-77279175D01*
X178355790Y-77341371D01*
X178364186Y-77407807D01*
X178364426Y-77421603D01*
X178358881Y-77486872D01*
X178342245Y-77550424D01*
X178314519Y-77612259D01*
X178294324Y-77645869D01*
X178252410Y-77700288D01*
X178204221Y-77749908D01*
X178154363Y-77793928D01*
X178096610Y-77839322D01*
X178042451Y-77878200D01*
X177987874Y-77915719D01*
X177936429Y-77952112D01*
X177899454Y-77979942D01*
X177850580Y-78021891D01*
X177832763Y-78038568D01*
X178373112Y-78038568D01*
X178373112Y-78356201D01*
G37*
G36*
X179843094Y-78356201D02*
G01*
X179407900Y-78356201D01*
X179345242Y-78137828D01*
X178910048Y-78137828D01*
X178848010Y-78356201D01*
X178422432Y-78356201D01*
X178617603Y-77840047D01*
X179001553Y-77840047D01*
X179256218Y-77840047D01*
X179128420Y-77433390D01*
X179001553Y-77840047D01*
X178617603Y-77840047D01*
X178910358Y-77065817D01*
X179355168Y-77065817D01*
X179843094Y-78356201D01*
G37*
D15*
G36*
X157447416Y-136724877D02*
G01*
X157573973Y-136813804D01*
X157615718Y-136884848D01*
X157651897Y-137032795D01*
X157660330Y-137183052D01*
X157660330Y-137391499D01*
X157040946Y-137391499D01*
X157040946Y-137145085D01*
X157041744Y-137098533D01*
X157060902Y-136941640D01*
X157131769Y-136799659D01*
X157205539Y-136745221D01*
X157353615Y-136710325D01*
X157447416Y-136724877D01*
G37*
G36*
X157944530Y-133196397D02*
G01*
X158112678Y-133205863D01*
X158281460Y-133231262D01*
X158438237Y-133279221D01*
X158568561Y-133357312D01*
X158602088Y-133388640D01*
X158690026Y-133510079D01*
X158741324Y-133657690D01*
X158756163Y-133812917D01*
X158755413Y-133848185D01*
X158729154Y-134010569D01*
X158665381Y-134149688D01*
X158564095Y-134265544D01*
X158539089Y-134285647D01*
X158401875Y-134360061D01*
X158245993Y-134404158D01*
X158083414Y-134425720D01*
X157924610Y-134431557D01*
X157869140Y-134430902D01*
X157714907Y-134421088D01*
X157558058Y-134394752D01*
X157409249Y-134345025D01*
X157280659Y-134264055D01*
X157257401Y-134242696D01*
X157163617Y-134123249D01*
X157107347Y-133982719D01*
X157088590Y-133821106D01*
X157089329Y-133785471D01*
X157115181Y-133621430D01*
X157177965Y-133480944D01*
X157277681Y-133364012D01*
X157289722Y-133353661D01*
X157418109Y-133275289D01*
X157562487Y-133227969D01*
X157712175Y-133203817D01*
X157883665Y-133195766D01*
X157944530Y-133196397D01*
G37*
G36*
X159899482Y-138773042D02*
G01*
X155945271Y-138773042D01*
X155945271Y-136791470D01*
X156373916Y-136791470D01*
X156373916Y-137145085D01*
X156373916Y-138392042D01*
X159470838Y-138392042D01*
X159470838Y-137391499D01*
X158327359Y-137391499D01*
X158327359Y-136896438D01*
X158325030Y-136789614D01*
X158310795Y-136623177D01*
X158283619Y-136471244D01*
X158233927Y-136308070D01*
X158165601Y-136165781D01*
X158062334Y-136026173D01*
X157936589Y-135914495D01*
X157791252Y-135830246D01*
X157651082Y-135779864D01*
X157496518Y-135749635D01*
X157327560Y-135739559D01*
X157190021Y-135745993D01*
X157038362Y-135770700D01*
X156879885Y-135822944D01*
X156741285Y-135900409D01*
X156622563Y-136003095D01*
X156607266Y-136019821D01*
X156513780Y-136151195D01*
X156444091Y-136307576D01*
X156403297Y-136461520D01*
X156379987Y-136633837D01*
X156373916Y-136791470D01*
X155945271Y-136791470D01*
X155945271Y-133818873D01*
X156326271Y-133818873D01*
X156326351Y-133821106D01*
X156332867Y-134002973D01*
X156352653Y-134176721D01*
X156385630Y-134340117D01*
X156431798Y-134493160D01*
X156491156Y-134635851D01*
X156563705Y-134768189D01*
X156649445Y-134890174D01*
X156748376Y-135001807D01*
X156830439Y-135077907D01*
X156980180Y-135188106D01*
X157111645Y-135261295D01*
X157253487Y-135321177D01*
X157405704Y-135367752D01*
X157568297Y-135401020D01*
X157741266Y-135420980D01*
X157924610Y-135427634D01*
X158056751Y-135424284D01*
X158214074Y-135410674D01*
X158362674Y-135386596D01*
X158529478Y-135343883D01*
X158683719Y-135286095D01*
X158825397Y-135213231D01*
X158933270Y-135142799D01*
X159050242Y-135049836D01*
X159169509Y-134929735D01*
X159270251Y-134797094D01*
X159352470Y-134651915D01*
X159391379Y-134562580D01*
X159440015Y-134418110D01*
X159476979Y-134261077D01*
X159502270Y-134091482D01*
X159514429Y-133940556D01*
X159518482Y-133780905D01*
X159516788Y-133685519D01*
X159506432Y-133533142D01*
X159481577Y-133361183D01*
X159443165Y-133201105D01*
X159391196Y-133052910D01*
X159325669Y-132916596D01*
X159274884Y-132832066D01*
X159174477Y-132696510D01*
X159059394Y-132576699D01*
X158929634Y-132472633D01*
X158785197Y-132384313D01*
X158695467Y-132341042D01*
X158549619Y-132286953D01*
X158390265Y-132245845D01*
X158217407Y-132217719D01*
X158063042Y-132204196D01*
X157899299Y-132199689D01*
X157807621Y-132201338D01*
X157631977Y-132214529D01*
X157466615Y-132240910D01*
X157311536Y-132280482D01*
X157166740Y-132333245D01*
X157032227Y-132399199D01*
X156878546Y-132500191D01*
X156740931Y-132621793D01*
X156666827Y-132703913D01*
X156559518Y-132854621D01*
X156488248Y-132987645D01*
X156429936Y-133131743D01*
X156384583Y-133286915D01*
X156352188Y-133453160D01*
X156332750Y-133630480D01*
X156326271Y-133818873D01*
X155945271Y-133818873D01*
X155945271Y-130478516D01*
X156326271Y-130478516D01*
X156329216Y-130624985D01*
X156340522Y-130787601D01*
X156360308Y-130935875D01*
X156394110Y-131090734D01*
X156446873Y-131243812D01*
X156478477Y-131311802D01*
X156560219Y-131448872D01*
X156656683Y-131563918D01*
X156781132Y-131665917D01*
X156916892Y-131740115D01*
X157072443Y-131789992D01*
X157234503Y-131806618D01*
X157279688Y-131805539D01*
X157429865Y-131784771D01*
X157586316Y-131728670D01*
X157726576Y-131638044D01*
X157836020Y-131530426D01*
X157933404Y-131394702D01*
X158009617Y-131251034D01*
X158068010Y-131112039D01*
X158121751Y-130955522D01*
X158170838Y-130781484D01*
X158206758Y-130629639D01*
X158211836Y-130606458D01*
X158252932Y-130440375D01*
X158300166Y-130294688D01*
X158375748Y-130154679D01*
X158425135Y-130107896D01*
X158566328Y-130057900D01*
X158640197Y-130070040D01*
X158765097Y-130160634D01*
X158770410Y-130167099D01*
X158834924Y-130304581D01*
X158851453Y-130456926D01*
X158834005Y-130607998D01*
X158774507Y-130746971D01*
X158672785Y-130857442D01*
X158618526Y-130892296D01*
X158473671Y-130946403D01*
X158325870Y-130974321D01*
X158385426Y-131923497D01*
X158478649Y-131913205D01*
X158626489Y-131885670D01*
X158791470Y-131835498D01*
X158942893Y-131766639D01*
X159080759Y-131679093D01*
X159205068Y-131572860D01*
X159311580Y-131440246D01*
X159383506Y-131303704D01*
X159440129Y-131143497D01*
X159474409Y-130998294D01*
X159498894Y-130837946D01*
X159513585Y-130662453D01*
X159518482Y-130471815D01*
X159516458Y-130361427D01*
X159505833Y-130204830D01*
X159481924Y-130035763D01*
X159445619Y-129881372D01*
X159388948Y-129722897D01*
X159316131Y-129581823D01*
X159227960Y-129457127D01*
X159124435Y-129348809D01*
X159005555Y-129256869D01*
X158925097Y-129208615D01*
X158774594Y-129142366D01*
X158616789Y-129102617D01*
X158451682Y-129089368D01*
X158419863Y-129089859D01*
X158266523Y-129107060D01*
X158122780Y-129148834D01*
X157988633Y-129215180D01*
X157937964Y-129248948D01*
X157820655Y-129353622D01*
X157726513Y-129472568D01*
X157643207Y-129614951D01*
X157600118Y-129708927D01*
X157540403Y-129869379D01*
X157489786Y-130033732D01*
X157448005Y-130189605D01*
X157406588Y-130362672D01*
X157373716Y-130513505D01*
X157370547Y-130528589D01*
X157331847Y-130681923D01*
X157268003Y-130820219D01*
X157157080Y-130881264D01*
X157140971Y-130880597D01*
X157008190Y-130805330D01*
X156965442Y-130723356D01*
X156945656Y-130572316D01*
X156945739Y-130560349D01*
X156964467Y-130410365D01*
X157031268Y-130272302D01*
X157048426Y-130252817D01*
X157177286Y-130169671D01*
X157328304Y-130127879D01*
X157274704Y-129186891D01*
X157243343Y-129191093D01*
X157094892Y-129219519D01*
X156935129Y-129269944D01*
X156795413Y-129338166D01*
X156657750Y-129440252D01*
X156547374Y-129566562D01*
X156483677Y-129672054D01*
X156421492Y-129816733D01*
X156374853Y-129981147D01*
X156347863Y-130133232D01*
X156331669Y-130299022D01*
X156326271Y-130478516D01*
X155945271Y-130478516D01*
X155945271Y-128708368D01*
X159899482Y-128708368D01*
X159899482Y-138773042D01*
G37*
D11*
G36*
X213077305Y-113254961D02*
G01*
X209536432Y-113254961D01*
X209536432Y-111677381D01*
X209758654Y-111677381D01*
X209762028Y-111947763D01*
X209758672Y-111965866D01*
X209762704Y-112001981D01*
X209762737Y-112004553D01*
X209763086Y-112005395D01*
X209763295Y-112007266D01*
X209843915Y-112369734D01*
X209844078Y-112387415D01*
X209856536Y-112427166D01*
X209856844Y-112427859D01*
X209856858Y-112427921D01*
X209856896Y-112427977D01*
X209939983Y-112614880D01*
X209947408Y-112637917D01*
X209955252Y-112649229D01*
X209957462Y-112654199D01*
X209961338Y-112658004D01*
X209971147Y-112672149D01*
X210117597Y-112839631D01*
X210120548Y-112846390D01*
X210139256Y-112864402D01*
X210163012Y-112891569D01*
X210172553Y-112896458D01*
X210180278Y-112903896D01*
X210217383Y-112922833D01*
X210476575Y-113020459D01*
X210496364Y-113028656D01*
X210499036Y-113028919D01*
X210500326Y-113029405D01*
X210503380Y-113029347D01*
X210537821Y-113032739D01*
X210720077Y-113029079D01*
X210737220Y-113029405D01*
X210739768Y-113028684D01*
X210741182Y-113028656D01*
X210744005Y-113027486D01*
X210777306Y-113018071D01*
X210993285Y-112929990D01*
X211000748Y-112929385D01*
X211024039Y-112917448D01*
X211057268Y-112903897D01*
X211064992Y-112896460D01*
X211074536Y-112891569D01*
X211104496Y-112862625D01*
X211158562Y-112795762D01*
X211379116Y-112795762D01*
X211381785Y-112828677D01*
X211381785Y-112861696D01*
X211385113Y-112869732D01*
X211385817Y-112878403D01*
X211400879Y-112907793D01*
X211413515Y-112938298D01*
X211419664Y-112944447D01*
X211423633Y-112952191D01*
X211448798Y-112973581D01*
X211472143Y-112996926D01*
X211480179Y-113000254D01*
X211486809Y-113005890D01*
X211518241Y-113016020D01*
X211548745Y-113028656D01*
X211561271Y-113029889D01*
X211565725Y-113031325D01*
X211571275Y-113030874D01*
X211590202Y-113032739D01*
X212684040Y-113028656D01*
X212760642Y-112996926D01*
X212819270Y-112938298D01*
X212851000Y-112861696D01*
X212851000Y-112778782D01*
X212819270Y-112702180D01*
X212760642Y-112643552D01*
X212684040Y-112611822D01*
X212642583Y-112607739D01*
X212046244Y-112609964D01*
X212696597Y-111840722D01*
X212699442Y-111839134D01*
X212720957Y-111811909D01*
X212747281Y-111780774D01*
X212748463Y-111777105D01*
X212750852Y-111774083D01*
X212766082Y-111735310D01*
X212841720Y-111455526D01*
X212851000Y-111433124D01*
X212852847Y-111414369D01*
X212854408Y-111408596D01*
X212853868Y-111403993D01*
X212855083Y-111391667D01*
X212851000Y-111159734D01*
X212850620Y-111158816D01*
X212850611Y-111157824D01*
X212838153Y-111118073D01*
X212754705Y-110930356D01*
X212747281Y-110907322D01*
X212739436Y-110896009D01*
X212737227Y-110891040D01*
X212733350Y-110887234D01*
X212723542Y-110873090D01*
X212634904Y-110773847D01*
X212622083Y-110756855D01*
X212615330Y-110751932D01*
X212612630Y-110748909D01*
X212607755Y-110746410D01*
X212588420Y-110732316D01*
X212444159Y-110650879D01*
X212436832Y-110643552D01*
X212415601Y-110634757D01*
X212388711Y-110619578D01*
X212373977Y-110617516D01*
X212360230Y-110611822D01*
X212318773Y-110607739D01*
X211938269Y-110611220D01*
X211926186Y-110608088D01*
X211901386Y-110611558D01*
X211872554Y-110611822D01*
X211858806Y-110617516D01*
X211844073Y-110619578D01*
X211806269Y-110637078D01*
X211641729Y-110737851D01*
X211620154Y-110748909D01*
X211614055Y-110754800D01*
X211610701Y-110756855D01*
X211607400Y-110761229D01*
X211590194Y-110777852D01*
X211485503Y-110907322D01*
X211460068Y-110986238D01*
X211466769Y-111068879D01*
X211504586Y-111142667D01*
X211567761Y-111196366D01*
X211646677Y-111221801D01*
X211729318Y-111215100D01*
X211803106Y-111177283D01*
X211833066Y-111148340D01*
X211886410Y-111082369D01*
X211968256Y-111032242D01*
X212257436Y-111029596D01*
X212338789Y-111075521D01*
X212376876Y-111118164D01*
X212430755Y-111239364D01*
X212432765Y-111353584D01*
X212374310Y-111569808D01*
X211435742Y-112679952D01*
X211413515Y-112702180D01*
X211410215Y-112710146D01*
X211404551Y-112716846D01*
X211394420Y-112748278D01*
X211381785Y-112778782D01*
X211381785Y-112787481D01*
X211379116Y-112795762D01*
X211158562Y-112795762D01*
X211209187Y-112733154D01*
X211234621Y-112654238D01*
X211227920Y-112571596D01*
X211190103Y-112497809D01*
X211126927Y-112444110D01*
X211048011Y-112418676D01*
X210965370Y-112425377D01*
X210891582Y-112463194D01*
X210861622Y-112492138D01*
X210817696Y-112546461D01*
X210665768Y-112608420D01*
X210582697Y-112610088D01*
X210424698Y-112550577D01*
X210318957Y-112429650D01*
X210258659Y-112294010D01*
X210183570Y-111956412D01*
X210180545Y-111713988D01*
X210248938Y-111376434D01*
X210310440Y-111224853D01*
X210417862Y-111094827D01*
X210571777Y-111032057D01*
X210654848Y-111030389D01*
X210813886Y-111090291D01*
X210891583Y-111177283D01*
X210965371Y-111215100D01*
X211048012Y-111221801D01*
X211126928Y-111196366D01*
X211190103Y-111142667D01*
X211227920Y-111068879D01*
X211234621Y-110986238D01*
X211209186Y-110907322D01*
X211185447Y-110873090D01*
X211119017Y-110798713D01*
X211116998Y-110794088D01*
X211101926Y-110779576D01*
X211074535Y-110748909D01*
X211064993Y-110744018D01*
X211057268Y-110736581D01*
X211020163Y-110717645D01*
X210760970Y-110620018D01*
X210741182Y-110611822D01*
X210738509Y-110611558D01*
X210737220Y-110611073D01*
X210734165Y-110611130D01*
X210699725Y-110607739D01*
X210517468Y-110611398D01*
X210500326Y-110611073D01*
X210497777Y-110611793D01*
X210496364Y-110611822D01*
X210493540Y-110612991D01*
X210460240Y-110622407D01*
X210244264Y-110710486D01*
X210236800Y-110711092D01*
X210213500Y-110723033D01*
X210180278Y-110736582D01*
X210172554Y-110744018D01*
X210163013Y-110748908D01*
X210133052Y-110777851D01*
X209975448Y-110968618D01*
X209957462Y-110986278D01*
X209950828Y-110998420D01*
X209947408Y-111002560D01*
X209945741Y-111007729D01*
X209937489Y-111022835D01*
X209865780Y-111199571D01*
X209856858Y-111212556D01*
X209844247Y-111252259D01*
X209844090Y-111253030D01*
X209844078Y-111253062D01*
X209844077Y-111253094D01*
X209770123Y-111618090D01*
X209762737Y-111635924D01*
X209759167Y-111672163D01*
X209758672Y-111674611D01*
X209758838Y-111675508D01*
X209758654Y-111677381D01*
X209536432Y-111677381D01*
X209536432Y-110385517D01*
X213077305Y-110385517D01*
X213077305Y-113254961D01*
G37*
X208562107Y-87830239D02*
X208562107Y-85830239D01*
X208562107Y-85830239D02*
X209533536Y-87830239D01*
X209533536Y-87830239D02*
X209533536Y-85830239D01*
X210343059Y-86782620D02*
X210909726Y-86782620D01*
X211152583Y-87830239D02*
X210343059Y-87830239D01*
X210343059Y-87830239D02*
X210343059Y-85830239D01*
X210343059Y-85830239D02*
X211152583Y-85830239D01*
X212771631Y-85925477D02*
X212609726Y-85830239D01*
X212609726Y-85830239D02*
X212366869Y-85830239D01*
X212366869Y-85830239D02*
X212124012Y-85925477D01*
X212124012Y-85925477D02*
X211962107Y-86115953D01*
X211962107Y-86115953D02*
X211881154Y-86306429D01*
X211881154Y-86306429D02*
X211800202Y-86687381D01*
X211800202Y-86687381D02*
X211800202Y-86973096D01*
X211800202Y-86973096D02*
X211881154Y-87354048D01*
X211881154Y-87354048D02*
X211962107Y-87544524D01*
X211962107Y-87544524D02*
X212124012Y-87735001D01*
X212124012Y-87735001D02*
X212366869Y-87830239D01*
X212366869Y-87830239D02*
X212528773Y-87830239D01*
X212528773Y-87830239D02*
X212771631Y-87735001D01*
X212771631Y-87735001D02*
X212852583Y-87639762D01*
X212852583Y-87639762D02*
X212852583Y-86973096D01*
X212852583Y-86973096D02*
X212528773Y-86973096D01*
D15*
G36*
X159980716Y-76981986D02*
G01*
X159980716Y-76059610D01*
X161644567Y-74939954D01*
X159980716Y-74939954D01*
X159980716Y-73998966D01*
X163077638Y-73998966D01*
X163077638Y-74928787D01*
X161422720Y-76042487D01*
X163077638Y-76042487D01*
X163077638Y-76981986D01*
X159980716Y-76981986D01*
G37*
G36*
X159980716Y-73437649D02*
G01*
X159980716Y-70848444D01*
X160743035Y-70848444D01*
X160743035Y-72439339D01*
X161124195Y-72439339D01*
X161124195Y-70963090D01*
X161791224Y-70963090D01*
X161791224Y-72439339D01*
X162315318Y-72439339D01*
X162315318Y-70802288D01*
X163077638Y-70802288D01*
X163077638Y-73437649D01*
X159980716Y-73437649D01*
G37*
G36*
X162077094Y-68813112D02*
G01*
X161314775Y-68813112D01*
X161314775Y-67300385D01*
X162587788Y-67300385D01*
X162681233Y-67433202D01*
X162764755Y-67560856D01*
X162851882Y-67707228D01*
X162924719Y-67846168D01*
X162991635Y-67998869D01*
X163014359Y-68061215D01*
X163057580Y-68210003D01*
X163090186Y-68370404D01*
X163112175Y-68542419D01*
X163122574Y-68699103D01*
X163125282Y-68836190D01*
X163120702Y-69003885D01*
X163106962Y-69161728D01*
X163084061Y-69309721D01*
X163044489Y-69474308D01*
X162991726Y-69624711D01*
X162937680Y-69739211D01*
X162846841Y-69884772D01*
X162738476Y-70015301D01*
X162612583Y-70130796D01*
X162490726Y-70217827D01*
X162379341Y-70281916D01*
X162236267Y-70347190D01*
X162085655Y-70398958D01*
X161927505Y-70437222D01*
X161761818Y-70461981D01*
X161588594Y-70473235D01*
X161529177Y-70473985D01*
X161374841Y-70468841D01*
X161197987Y-70449090D01*
X161030241Y-70414525D01*
X160871603Y-70365147D01*
X160722073Y-70300956D01*
X160650723Y-70263305D01*
X160516661Y-70177417D01*
X160395318Y-70077762D01*
X160286695Y-69964341D01*
X160190791Y-69837153D01*
X160107608Y-69696198D01*
X160082706Y-69646154D01*
X160024401Y-69497076D01*
X159985824Y-69352850D01*
X159957767Y-69193444D01*
X159940232Y-69018859D01*
X159933656Y-68861775D01*
X159933071Y-68795990D01*
X159935434Y-68641952D01*
X159944507Y-68473613D01*
X159960385Y-68323280D01*
X159987509Y-68170650D01*
X160029850Y-68026226D01*
X160092827Y-67888286D01*
X160182830Y-67751318D01*
X160293916Y-67631508D01*
X160331353Y-67598911D01*
X160456633Y-67509199D01*
X160602994Y-67431854D01*
X160750791Y-67373484D01*
X160872570Y-67336119D01*
X161031883Y-68296462D01*
X160898143Y-68362844D01*
X160787871Y-68470463D01*
X160777280Y-68486298D01*
X160715863Y-68632955D01*
X160695710Y-68791814D01*
X160695390Y-68816834D01*
X160710878Y-68976713D01*
X160764414Y-69131565D01*
X160856191Y-69262426D01*
X160891181Y-69297006D01*
X161019922Y-69383374D01*
X161165602Y-69436416D01*
X161317194Y-69464508D01*
X161491300Y-69475500D01*
X161518010Y-69475675D01*
X161680661Y-69469315D01*
X161846869Y-69445819D01*
X162005763Y-69397767D01*
X162144920Y-69316679D01*
X162170150Y-69294773D01*
X162271829Y-69167678D01*
X162331142Y-69029299D01*
X162359951Y-68868190D01*
X162362963Y-68789290D01*
X162355333Y-68636491D01*
X162332441Y-68490764D01*
X162291868Y-68341316D01*
X162241100Y-68199861D01*
X162232684Y-68178839D01*
X162077094Y-68178839D01*
X162077094Y-68813112D01*
G37*
G36*
X157066416Y-74944243D02*
G01*
X157192973Y-75033170D01*
X157234718Y-75104214D01*
X157270897Y-75252161D01*
X157279330Y-75402418D01*
X157279330Y-75610865D01*
X156659946Y-75610865D01*
X156659946Y-75364451D01*
X156660744Y-75317899D01*
X156679902Y-75161006D01*
X156750769Y-75019025D01*
X156824539Y-74964587D01*
X156972615Y-74929691D01*
X157066416Y-74944243D01*
G37*
G36*
X157563530Y-71415763D02*
G01*
X157731678Y-71425229D01*
X157900460Y-71450628D01*
X158057237Y-71498587D01*
X158187561Y-71576678D01*
X158221088Y-71608006D01*
X158309026Y-71729445D01*
X158360324Y-71877056D01*
X158375163Y-72032283D01*
X158374413Y-72067551D01*
X158348154Y-72229935D01*
X158284381Y-72369054D01*
X158183095Y-72484910D01*
X158158089Y-72505013D01*
X158020875Y-72579427D01*
X157864993Y-72623524D01*
X157702414Y-72645086D01*
X157543610Y-72650923D01*
X157488140Y-72650268D01*
X157333907Y-72640454D01*
X157177058Y-72614118D01*
X157028249Y-72564391D01*
X156899659Y-72483421D01*
X156876401Y-72462062D01*
X156782617Y-72342615D01*
X156726347Y-72202085D01*
X156707590Y-72040472D01*
X156708329Y-72004837D01*
X156734181Y-71840796D01*
X156796965Y-71700310D01*
X156896681Y-71583378D01*
X156908722Y-71573027D01*
X157037109Y-71494655D01*
X157181487Y-71447335D01*
X157331175Y-71423183D01*
X157502665Y-71415132D01*
X157563530Y-71415763D01*
G37*
G36*
X159518482Y-76992408D02*
G01*
X155564271Y-76992408D01*
X155564271Y-75010836D01*
X155992916Y-75010836D01*
X155992916Y-75364451D01*
X155992916Y-76611408D01*
X159089838Y-76611408D01*
X159089838Y-75610865D01*
X157946359Y-75610865D01*
X157946359Y-75115804D01*
X157944030Y-75008980D01*
X157929795Y-74842543D01*
X157902619Y-74690610D01*
X157852927Y-74527436D01*
X157784601Y-74385147D01*
X157681334Y-74245539D01*
X157555589Y-74133861D01*
X157410252Y-74049612D01*
X157270082Y-73999230D01*
X157115518Y-73969001D01*
X156946560Y-73958925D01*
X156809021Y-73965359D01*
X156657362Y-73990066D01*
X156498885Y-74042310D01*
X156360285Y-74119775D01*
X156241563Y-74222461D01*
X156226266Y-74239187D01*
X156132780Y-74370561D01*
X156063091Y-74526942D01*
X156022297Y-74680886D01*
X155998987Y-74853203D01*
X155992916Y-75010836D01*
X155564271Y-75010836D01*
X155564271Y-72038239D01*
X155945271Y-72038239D01*
X155945351Y-72040472D01*
X155951867Y-72222339D01*
X155971653Y-72396087D01*
X156004630Y-72559483D01*
X156050798Y-72712526D01*
X156110156Y-72855217D01*
X156182705Y-72987555D01*
X156268445Y-73109540D01*
X156367376Y-73221173D01*
X156449439Y-73297273D01*
X156599180Y-73407472D01*
X156730645Y-73480661D01*
X156872487Y-73540543D01*
X157024704Y-73587118D01*
X157187297Y-73620386D01*
X157360266Y-73640346D01*
X157543610Y-73647000D01*
X157675751Y-73643650D01*
X157833074Y-73630040D01*
X157981674Y-73605962D01*
X158148478Y-73563249D01*
X158302719Y-73505461D01*
X158444397Y-73432597D01*
X158552270Y-73362165D01*
X158669242Y-73269202D01*
X158788509Y-73149101D01*
X158889251Y-73016460D01*
X158971470Y-72871281D01*
X159010379Y-72781946D01*
X159059015Y-72637476D01*
X159095979Y-72480443D01*
X159121270Y-72310848D01*
X159133429Y-72159922D01*
X159137482Y-72000271D01*
X159135788Y-71904885D01*
X159125432Y-71752508D01*
X159100577Y-71580549D01*
X159062165Y-71420471D01*
X159010196Y-71272276D01*
X158944669Y-71135962D01*
X158893884Y-71051432D01*
X158793477Y-70915876D01*
X158678394Y-70796065D01*
X158548634Y-70691999D01*
X158404197Y-70603679D01*
X158314467Y-70560408D01*
X158168619Y-70506319D01*
X158009265Y-70465211D01*
X157836407Y-70437085D01*
X157682042Y-70423562D01*
X157518299Y-70419055D01*
X157426621Y-70420704D01*
X157250977Y-70433895D01*
X157085615Y-70460276D01*
X156930536Y-70499848D01*
X156785740Y-70552611D01*
X156651227Y-70618565D01*
X156497546Y-70719557D01*
X156359931Y-70841159D01*
X156285827Y-70923279D01*
X156178518Y-71073987D01*
X156107248Y-71207011D01*
X156048936Y-71351109D01*
X156003583Y-71506281D01*
X155971188Y-71672526D01*
X155951750Y-71849846D01*
X155945271Y-72038239D01*
X155564271Y-72038239D01*
X155564271Y-68697882D01*
X155945271Y-68697882D01*
X155948216Y-68844351D01*
X155959522Y-69006967D01*
X155979308Y-69155241D01*
X156013110Y-69310100D01*
X156065873Y-69463178D01*
X156097477Y-69531168D01*
X156179219Y-69668238D01*
X156275683Y-69783284D01*
X156400132Y-69885283D01*
X156535892Y-69959481D01*
X156691443Y-70009358D01*
X156853503Y-70025984D01*
X156898688Y-70024905D01*
X157048865Y-70004137D01*
X157205316Y-69948036D01*
X157345576Y-69857410D01*
X157455020Y-69749792D01*
X157552404Y-69614068D01*
X157628617Y-69470400D01*
X157687010Y-69331405D01*
X157740751Y-69174888D01*
X157789838Y-69000850D01*
X157825758Y-68849005D01*
X157830836Y-68825824D01*
X157871932Y-68659741D01*
X157919166Y-68514054D01*
X157994748Y-68374045D01*
X158044135Y-68327262D01*
X158185328Y-68277266D01*
X158259197Y-68289406D01*
X158384097Y-68380000D01*
X158389410Y-68386465D01*
X158453924Y-68523947D01*
X158470453Y-68676292D01*
X158453005Y-68827364D01*
X158393507Y-68966337D01*
X158291785Y-69076808D01*
X158237526Y-69111662D01*
X158092671Y-69165769D01*
X157944870Y-69193687D01*
X158004426Y-70142863D01*
X158097649Y-70132571D01*
X158245489Y-70105036D01*
X158410470Y-70054864D01*
X158561893Y-69986005D01*
X158699759Y-69898459D01*
X158824068Y-69792226D01*
X158930580Y-69659612D01*
X159002506Y-69523070D01*
X159059129Y-69362863D01*
X159093409Y-69217660D01*
X159117894Y-69057312D01*
X159132585Y-68881819D01*
X159137482Y-68691181D01*
X159135458Y-68580793D01*
X159124833Y-68424196D01*
X159100924Y-68255129D01*
X159064619Y-68100738D01*
X159007948Y-67942263D01*
X158935131Y-67801189D01*
X158846960Y-67676493D01*
X158743435Y-67568175D01*
X158624555Y-67476235D01*
X158544097Y-67427981D01*
X158393594Y-67361732D01*
X158235789Y-67321983D01*
X158070682Y-67308734D01*
X158038863Y-67309225D01*
X157885523Y-67326426D01*
X157741780Y-67368200D01*
X157607633Y-67434546D01*
X157556964Y-67468314D01*
X157439655Y-67572988D01*
X157345513Y-67691934D01*
X157262207Y-67834317D01*
X157219118Y-67928293D01*
X157159403Y-68088745D01*
X157108786Y-68253098D01*
X157067005Y-68408971D01*
X157025588Y-68582038D01*
X156992716Y-68732871D01*
X156989547Y-68747955D01*
X156950847Y-68901289D01*
X156887003Y-69039585D01*
X156776080Y-69100630D01*
X156759971Y-69099963D01*
X156627190Y-69024696D01*
X156584442Y-68942722D01*
X156564656Y-68791682D01*
X156564739Y-68779715D01*
X156583467Y-68629731D01*
X156650268Y-68491668D01*
X156667426Y-68472183D01*
X156796286Y-68389037D01*
X156947304Y-68347245D01*
X156893704Y-67406257D01*
X156862343Y-67410459D01*
X156713892Y-67438885D01*
X156554129Y-67489310D01*
X156414413Y-67557532D01*
X156276750Y-67659618D01*
X156166374Y-67785928D01*
X156102677Y-67891420D01*
X156040492Y-68036099D01*
X155993853Y-68200513D01*
X155966863Y-68352598D01*
X155950669Y-68518388D01*
X155945271Y-68697882D01*
X155564271Y-68697882D01*
X155564271Y-66927734D01*
X159518482Y-66927734D01*
X159518482Y-76992408D01*
G37*
D11*
G36*
X213067305Y-83254961D02*
G01*
X209526432Y-83254961D01*
X209526432Y-81677381D01*
X209748654Y-81677381D01*
X209752028Y-81947763D01*
X209748672Y-81965866D01*
X209752704Y-82001981D01*
X209752737Y-82004553D01*
X209753086Y-82005395D01*
X209753295Y-82007266D01*
X209833915Y-82369734D01*
X209834078Y-82387415D01*
X209846536Y-82427166D01*
X209846844Y-82427859D01*
X209846858Y-82427921D01*
X209846896Y-82427977D01*
X209929983Y-82614880D01*
X209937408Y-82637917D01*
X209945252Y-82649229D01*
X209947462Y-82654199D01*
X209951338Y-82658004D01*
X209961147Y-82672149D01*
X210107597Y-82839631D01*
X210110548Y-82846390D01*
X210129256Y-82864402D01*
X210153012Y-82891569D01*
X210162553Y-82896458D01*
X210170278Y-82903896D01*
X210207383Y-82922833D01*
X210466575Y-83020459D01*
X210486364Y-83028656D01*
X210489036Y-83028919D01*
X210490326Y-83029405D01*
X210493380Y-83029347D01*
X210527821Y-83032739D01*
X210710077Y-83029079D01*
X210727220Y-83029405D01*
X210729768Y-83028684D01*
X210731182Y-83028656D01*
X210734005Y-83027486D01*
X210767306Y-83018071D01*
X210983285Y-82929990D01*
X210990748Y-82929385D01*
X211014039Y-82917448D01*
X211047268Y-82903897D01*
X211054992Y-82896460D01*
X211064536Y-82891569D01*
X211094496Y-82862625D01*
X211199187Y-82733154D01*
X211224621Y-82654238D01*
X211217920Y-82571596D01*
X211180103Y-82497809D01*
X211116927Y-82444110D01*
X211038011Y-82418676D01*
X210955370Y-82425377D01*
X210881582Y-82463194D01*
X210851622Y-82492138D01*
X210807696Y-82546461D01*
X210655768Y-82608420D01*
X210572697Y-82610088D01*
X210414698Y-82550577D01*
X210308957Y-82429650D01*
X210248659Y-82294010D01*
X210173570Y-81956412D01*
X210171572Y-81796276D01*
X211449975Y-81796276D01*
X211455339Y-81813143D01*
X211456770Y-81830785D01*
X211467784Y-81852276D01*
X211475103Y-81875290D01*
X211486512Y-81888818D01*
X211494586Y-81904573D01*
X211512989Y-81920215D01*
X211528555Y-81938673D01*
X211544274Y-81946806D01*
X211557762Y-81958271D01*
X211580745Y-81965678D01*
X211602194Y-81976777D01*
X211619830Y-81978276D01*
X211636678Y-81983706D01*
X211660748Y-81981753D01*
X211684810Y-81983799D01*
X211701677Y-81978434D01*
X211719319Y-81977004D01*
X211740810Y-81965989D01*
X211763824Y-81958671D01*
X211777352Y-81947261D01*
X211793107Y-81939188D01*
X211823067Y-81910244D01*
X211826965Y-81905422D01*
X211827207Y-81905219D01*
X211827343Y-81904955D01*
X211876411Y-81844272D01*
X211958256Y-81794146D01*
X212247436Y-81791500D01*
X212328788Y-81837424D01*
X212366876Y-81880069D01*
X212420377Y-82000419D01*
X212423447Y-82389603D01*
X212373917Y-82511677D01*
X212336373Y-82558108D01*
X212254527Y-82608235D01*
X211965347Y-82610881D01*
X211883995Y-82564957D01*
X211793107Y-82463194D01*
X211719319Y-82425378D01*
X211636678Y-82418676D01*
X211557762Y-82444111D01*
X211494586Y-82497809D01*
X211456770Y-82571597D01*
X211450068Y-82654238D01*
X211475503Y-82733154D01*
X211499241Y-82767386D01*
X211587884Y-82866636D01*
X211600701Y-82883623D01*
X211607450Y-82888543D01*
X211610153Y-82891569D01*
X211615031Y-82894069D01*
X211634364Y-82908162D01*
X211778624Y-82989598D01*
X211785952Y-82996926D01*
X211807182Y-83005720D01*
X211834073Y-83020900D01*
X211848806Y-83022961D01*
X211862554Y-83028656D01*
X211904011Y-83032739D01*
X212284514Y-83029257D01*
X212296598Y-83032390D01*
X212321397Y-83028919D01*
X212350230Y-83028656D01*
X212363977Y-83022961D01*
X212378711Y-83020900D01*
X212416515Y-83003400D01*
X212581052Y-82902628D01*
X212602631Y-82891569D01*
X212608730Y-82885676D01*
X212612083Y-82883623D01*
X212615382Y-82879250D01*
X212632591Y-82862625D01*
X212712130Y-82764258D01*
X212727227Y-82749437D01*
X212733709Y-82737572D01*
X212737282Y-82733154D01*
X212738948Y-82727982D01*
X212747200Y-82712880D01*
X212840611Y-82482653D01*
X212840620Y-82481660D01*
X212841000Y-82480743D01*
X212845083Y-82439286D01*
X212841000Y-81921639D01*
X212840620Y-81920721D01*
X212840611Y-81919729D01*
X212828153Y-81879978D01*
X212744707Y-81692266D01*
X212737282Y-81669228D01*
X212729435Y-81657913D01*
X212727227Y-81652945D01*
X212723351Y-81649140D01*
X212713543Y-81634996D01*
X212624900Y-81535747D01*
X212612083Y-81518759D01*
X212605333Y-81513838D01*
X212602631Y-81510813D01*
X212597753Y-81508313D01*
X212578420Y-81494220D01*
X212434159Y-81412783D01*
X212426832Y-81405456D01*
X212405601Y-81396661D01*
X212378711Y-81381482D01*
X212363977Y-81379420D01*
X212350230Y-81373726D01*
X212308773Y-81369643D01*
X211928269Y-81373124D01*
X211916186Y-81369992D01*
X211906802Y-81371304D01*
X211934259Y-81031817D01*
X212593087Y-81028656D01*
X212669689Y-80996926D01*
X212728317Y-80938298D01*
X212760047Y-80861696D01*
X212760047Y-80778782D01*
X212728317Y-80702180D01*
X212669689Y-80643552D01*
X212593087Y-80611822D01*
X212551630Y-80607739D01*
X211748258Y-80611593D01*
X211718450Y-80609060D01*
X211709904Y-80611777D01*
X211700649Y-80611822D01*
X211670512Y-80624304D01*
X211639436Y-80634188D01*
X211632468Y-80640063D01*
X211624047Y-80643552D01*
X211600982Y-80666616D01*
X211576053Y-80687640D01*
X211571864Y-80695734D01*
X211565419Y-80702180D01*
X211552937Y-80732312D01*
X211537949Y-80761279D01*
X211535534Y-80774326D01*
X211533689Y-80778782D01*
X211533689Y-80784300D01*
X211530369Y-80802242D01*
X211455140Y-81732405D01*
X211450068Y-81748144D01*
X211451970Y-81771602D01*
X211449975Y-81796276D01*
X210171572Y-81796276D01*
X210170545Y-81713988D01*
X210238938Y-81376434D01*
X210300440Y-81224853D01*
X210407862Y-81094827D01*
X210561777Y-81032057D01*
X210644848Y-81030389D01*
X210803886Y-81090291D01*
X210881583Y-81177283D01*
X210955371Y-81215100D01*
X211038012Y-81221801D01*
X211116928Y-81196366D01*
X211180103Y-81142667D01*
X211217920Y-81068879D01*
X211224621Y-80986238D01*
X211199186Y-80907322D01*
X211175447Y-80873090D01*
X211109017Y-80798713D01*
X211106998Y-80794088D01*
X211091926Y-80779576D01*
X211064535Y-80748909D01*
X211054993Y-80744018D01*
X211047268Y-80736581D01*
X211010163Y-80717645D01*
X210750970Y-80620018D01*
X210731182Y-80611822D01*
X210728509Y-80611558D01*
X210727220Y-80611073D01*
X210724165Y-80611130D01*
X210689725Y-80607739D01*
X210507468Y-80611398D01*
X210490326Y-80611073D01*
X210487777Y-80611793D01*
X210486364Y-80611822D01*
X210483540Y-80612991D01*
X210450240Y-80622407D01*
X210234264Y-80710486D01*
X210226800Y-80711092D01*
X210203500Y-80723033D01*
X210170278Y-80736582D01*
X210162554Y-80744018D01*
X210153013Y-80748908D01*
X210123052Y-80777851D01*
X209965448Y-80968618D01*
X209947462Y-80986278D01*
X209940828Y-80998420D01*
X209937408Y-81002560D01*
X209935741Y-81007729D01*
X209927489Y-81022835D01*
X209855780Y-81199571D01*
X209846858Y-81212556D01*
X209834247Y-81252259D01*
X209834090Y-81253030D01*
X209834078Y-81253062D01*
X209834077Y-81253094D01*
X209760123Y-81618090D01*
X209752737Y-81635924D01*
X209749167Y-81672163D01*
X209748672Y-81674611D01*
X209748838Y-81675508D01*
X209748654Y-81677381D01*
X209526432Y-81677381D01*
X209526432Y-80385517D01*
X213067305Y-80385517D01*
X213067305Y-83254961D01*
G37*
X208562107Y-77820239D02*
X208562107Y-75820239D01*
X208562107Y-75820239D02*
X209533536Y-77820239D01*
X209533536Y-77820239D02*
X209533536Y-75820239D01*
X210343059Y-76772620D02*
X210909726Y-76772620D01*
X211152583Y-77820239D02*
X210343059Y-77820239D01*
X210343059Y-77820239D02*
X210343059Y-75820239D01*
X210343059Y-75820239D02*
X211152583Y-75820239D01*
X212771631Y-75915477D02*
X212609726Y-75820239D01*
X212609726Y-75820239D02*
X212366869Y-75820239D01*
X212366869Y-75820239D02*
X212124012Y-75915477D01*
X212124012Y-75915477D02*
X211962107Y-76105953D01*
X211962107Y-76105953D02*
X211881154Y-76296429D01*
X211881154Y-76296429D02*
X211800202Y-76677381D01*
X211800202Y-76677381D02*
X211800202Y-76963096D01*
X211800202Y-76963096D02*
X211881154Y-77344048D01*
X211881154Y-77344048D02*
X211962107Y-77534524D01*
X211962107Y-77534524D02*
X212124012Y-77725001D01*
X212124012Y-77725001D02*
X212366869Y-77820239D01*
X212366869Y-77820239D02*
X212528773Y-77820239D01*
X212528773Y-77820239D02*
X212771631Y-77725001D01*
X212771631Y-77725001D02*
X212852583Y-77629762D01*
X212852583Y-77629762D02*
X212852583Y-76963096D01*
X212852583Y-76963096D02*
X212528773Y-76963096D01*
D16*
G36*
X165342717Y-78970817D02*
G01*
X165758369Y-78970817D01*
X165758369Y-80261201D01*
X165342717Y-80261201D01*
X165342717Y-78970817D01*
G37*
G36*
X166020478Y-78970817D02*
G01*
X166404802Y-78970817D01*
X166871325Y-79664088D01*
X166871325Y-78970817D01*
X167263403Y-78970817D01*
X167263403Y-80261201D01*
X166875978Y-80261201D01*
X166411936Y-79571652D01*
X166411936Y-80261201D01*
X166020478Y-80261201D01*
X166020478Y-78970817D01*
G37*
G36*
X168228940Y-78973346D02*
G01*
X168300739Y-78983059D01*
X168364883Y-79000056D01*
X168430041Y-79029093D01*
X168484780Y-79068046D01*
X168491749Y-79074420D01*
X168534535Y-79123887D01*
X168566813Y-79181637D01*
X168588581Y-79247669D01*
X168598875Y-79310860D01*
X168601556Y-79368168D01*
X168597358Y-79438567D01*
X168584762Y-79502969D01*
X168563770Y-79561373D01*
X168528666Y-79621930D01*
X168482134Y-79674324D01*
X168423964Y-79717352D01*
X168364677Y-79745821D01*
X168296687Y-79766526D01*
X168233382Y-79777849D01*
X168164033Y-79783781D01*
X168119523Y-79784751D01*
X167913248Y-79784751D01*
X167913248Y-80261201D01*
X167496355Y-80261201D01*
X167496355Y-79506822D01*
X167913248Y-79506822D01*
X168000101Y-79506822D01*
X168062708Y-79503308D01*
X168124352Y-79488234D01*
X168153954Y-79470840D01*
X168191007Y-79418108D01*
X168197070Y-79379025D01*
X168182530Y-79317326D01*
X168159848Y-79286588D01*
X168100689Y-79257061D01*
X168035317Y-79249078D01*
X168015920Y-79248746D01*
X167913248Y-79248746D01*
X167913248Y-79506822D01*
X167496355Y-79506822D01*
X167496355Y-78970817D01*
X168163260Y-78970817D01*
X168228940Y-78973346D01*
G37*
G36*
X169613391Y-78970817D02*
G01*
X170027492Y-78970817D01*
X170027492Y-79736672D01*
X170024646Y-79799774D01*
X170014807Y-79867700D01*
X169997941Y-79933325D01*
X169991510Y-79952563D01*
X169965023Y-80013698D01*
X169930539Y-80069926D01*
X169888058Y-80121246D01*
X169878602Y-80130921D01*
X169829735Y-80174160D01*
X169774162Y-80211436D01*
X169716683Y-80237936D01*
X169655324Y-80256800D01*
X169588188Y-80270274D01*
X169524704Y-80277642D01*
X169456798Y-80280884D01*
X169436583Y-80281053D01*
X169369878Y-80279476D01*
X169305611Y-80275308D01*
X169237890Y-80268535D01*
X169230928Y-80267714D01*
X169164813Y-80257027D01*
X169100134Y-80239394D01*
X169043885Y-80215603D01*
X168988909Y-80181434D01*
X168937510Y-80138017D01*
X168905231Y-80103935D01*
X168866632Y-80053447D01*
X168835225Y-79997031D01*
X168818998Y-79953804D01*
X168801155Y-79887217D01*
X168789151Y-79824950D01*
X168782663Y-79760828D01*
X168782086Y-79736672D01*
X168782086Y-78970817D01*
X169196187Y-78970817D01*
X169196187Y-79753112D01*
X169202675Y-79816362D01*
X169227070Y-79877691D01*
X169251091Y-79908206D01*
X169303170Y-79943955D01*
X169364056Y-79960778D01*
X169405254Y-79963420D01*
X169467548Y-79957005D01*
X169528031Y-79932885D01*
X169558177Y-79909137D01*
X169593926Y-79857050D01*
X169610749Y-79795247D01*
X169613391Y-79753112D01*
X169613391Y-78970817D01*
G37*
G36*
X170171420Y-78970817D02*
G01*
X171392631Y-78970817D01*
X171392631Y-79288450D01*
X170989697Y-79288450D01*
X170989697Y-80261201D01*
X170574665Y-80261201D01*
X170574665Y-79288450D01*
X170171420Y-79288450D01*
X170171420Y-78970817D01*
G37*
G36*
X172442619Y-79369409D02*
G01*
X172085903Y-79310163D01*
X172105673Y-79246070D01*
X172130788Y-79188259D01*
X172166841Y-79128751D01*
X172210168Y-79077793D01*
X172253094Y-79040919D01*
X172311192Y-79005869D01*
X172378819Y-78979427D01*
X172444369Y-78963615D01*
X172516920Y-78954127D01*
X172582728Y-78951052D01*
X172596473Y-78950965D01*
X172672461Y-78953237D01*
X172741649Y-78960052D01*
X172804037Y-78971412D01*
X172869925Y-78991041D01*
X172934418Y-79022211D01*
X172965287Y-79044021D01*
X173010127Y-79087064D01*
X173047888Y-79141962D01*
X173071264Y-79202948D01*
X173080254Y-79270022D01*
X173080367Y-79278834D01*
X173072585Y-79343818D01*
X173049241Y-79403682D01*
X173033218Y-79429585D01*
X172991169Y-79479412D01*
X172941133Y-79519512D01*
X172915346Y-79534739D01*
X172974815Y-79555604D01*
X173006542Y-79572892D01*
X173058501Y-79613706D01*
X173099298Y-79664495D01*
X173108904Y-79680838D01*
X173132603Y-79739423D01*
X173143755Y-79800862D01*
X173145506Y-79839965D01*
X173140771Y-79903986D01*
X173126564Y-79966583D01*
X173102887Y-80027758D01*
X173085640Y-80061129D01*
X173047818Y-80116775D01*
X173001704Y-80164716D01*
X172947296Y-80204953D01*
X172913485Y-80223978D01*
X172853154Y-80248948D01*
X172784137Y-80266784D01*
X172716622Y-80276538D01*
X172653460Y-80280551D01*
X172620047Y-80281053D01*
X172556551Y-80279591D01*
X172488977Y-80274193D01*
X172420328Y-80263152D01*
X172354036Y-80244521D01*
X172340877Y-80239487D01*
X172280088Y-80209723D01*
X172226447Y-80172385D01*
X172179955Y-80127474D01*
X172171515Y-80117583D01*
X172132753Y-80062149D01*
X172102530Y-80003660D01*
X172079372Y-79944831D01*
X172066671Y-79904794D01*
X172441999Y-79863229D01*
X172461221Y-79925649D01*
X172492855Y-79979016D01*
X172505277Y-79990716D01*
X172562728Y-80017652D01*
X172611362Y-80022976D01*
X172672779Y-80011344D01*
X172723030Y-79976448D01*
X172756763Y-79922009D01*
X172767963Y-79856606D01*
X172768007Y-79851752D01*
X172759814Y-79788792D01*
X172730384Y-79734141D01*
X172725201Y-79728607D01*
X172670790Y-79694965D01*
X172607950Y-79685491D01*
X172543949Y-79693692D01*
X172482013Y-79708755D01*
X172501865Y-79422451D01*
X172557389Y-79427414D01*
X172621440Y-79417434D01*
X172667196Y-79392053D01*
X172705491Y-79340157D01*
X172710622Y-79308922D01*
X172691122Y-79249141D01*
X172678673Y-79236338D01*
X172619891Y-79211201D01*
X172589649Y-79209041D01*
X172527277Y-79220633D01*
X172493800Y-79241921D01*
X172459744Y-79298290D01*
X172443571Y-79363537D01*
X172442619Y-79369409D01*
G37*
G36*
X173868458Y-78952981D02*
G01*
X173931934Y-78960069D01*
X173993887Y-78973931D01*
X174021478Y-78983224D01*
X174080773Y-79009978D01*
X174134967Y-79045262D01*
X174159822Y-79066975D01*
X174202384Y-79113311D01*
X174238234Y-79165196D01*
X174244194Y-79175851D01*
X174270547Y-79233380D01*
X174290225Y-79294330D01*
X174293824Y-79308302D01*
X174307844Y-79371442D01*
X174318421Y-79435739D01*
X174325554Y-79501195D01*
X174329243Y-79567808D01*
X174329806Y-79606393D01*
X174328748Y-79670079D01*
X174324047Y-79749931D01*
X174315584Y-79823996D01*
X174303361Y-79892273D01*
X174287376Y-79954764D01*
X174262107Y-80024740D01*
X174230961Y-80085674D01*
X174209452Y-80117893D01*
X174167632Y-80164897D01*
X174117390Y-80203934D01*
X174058726Y-80235005D01*
X173991642Y-80258108D01*
X173916137Y-80273245D01*
X173849669Y-80279619D01*
X173796282Y-80281053D01*
X173727597Y-80278559D01*
X173664849Y-80271078D01*
X173600407Y-80256422D01*
X173537180Y-80232147D01*
X173530760Y-80228941D01*
X173476426Y-80195776D01*
X173427882Y-80154906D01*
X173385129Y-80106333D01*
X173363879Y-80076018D01*
X173333957Y-80020885D01*
X173311080Y-79960204D01*
X173294014Y-79896993D01*
X173290674Y-79881840D01*
X173279275Y-79818717D01*
X173271133Y-79752491D01*
X173266247Y-79683164D01*
X173264644Y-79619959D01*
X173264630Y-79614768D01*
X173637155Y-79614768D01*
X173638162Y-79685733D01*
X173641184Y-79749155D01*
X173647469Y-79815305D01*
X173658467Y-79878752D01*
X173678410Y-79938605D01*
X173714237Y-79990018D01*
X173772761Y-80020916D01*
X173795661Y-80022976D01*
X173858318Y-80006409D01*
X173882824Y-79987925D01*
X173918713Y-79934402D01*
X173938348Y-79873775D01*
X173948767Y-79808583D01*
X173954075Y-79739158D01*
X173956202Y-79675153D01*
X173956649Y-79624073D01*
X173955642Y-79550295D01*
X173952620Y-79484634D01*
X173946335Y-79416557D01*
X173935337Y-79351910D01*
X173915394Y-79292172D01*
X173878956Y-79241514D01*
X173822553Y-79211964D01*
X173793800Y-79209041D01*
X173730849Y-79225250D01*
X173684759Y-79273876D01*
X173674688Y-79293723D01*
X173656544Y-79353229D01*
X173646538Y-79416170D01*
X173640820Y-79481720D01*
X173638071Y-79544526D01*
X173637155Y-79614768D01*
X173264630Y-79614768D01*
X173264619Y-79610735D01*
X173265796Y-79544250D01*
X173269330Y-79481587D01*
X173277705Y-79403981D01*
X173290267Y-79333171D01*
X173307017Y-79269156D01*
X173333844Y-79198693D01*
X173367213Y-79138847D01*
X173398620Y-79098614D01*
X173443977Y-79056079D01*
X173496105Y-79020752D01*
X173555003Y-78992635D01*
X173620671Y-78971728D01*
X173693110Y-78958030D01*
X173755935Y-78952262D01*
X173805897Y-78950965D01*
X173868458Y-78952981D01*
G37*
G36*
X175794515Y-80261201D02*
G01*
X175359321Y-80261201D01*
X175296663Y-80042828D01*
X174861469Y-80042828D01*
X174799431Y-80261201D01*
X174373852Y-80261201D01*
X174569023Y-79745047D01*
X174952974Y-79745047D01*
X175207639Y-79745047D01*
X175079841Y-79338390D01*
X174952974Y-79745047D01*
X174569023Y-79745047D01*
X174861779Y-78970817D01*
X175306589Y-78970817D01*
X175794515Y-80261201D01*
G37*
G36*
X177249919Y-78950965D02*
G01*
X177249919Y-80261201D01*
X176870559Y-80261201D01*
X176870559Y-79426483D01*
X176819838Y-79463293D01*
X176766624Y-79496951D01*
X176716085Y-79524813D01*
X176659409Y-79551240D01*
X176599336Y-79575127D01*
X176538728Y-79596443D01*
X176497402Y-79609805D01*
X176497402Y-79291241D01*
X176564319Y-79268315D01*
X176625021Y-79243972D01*
X176687982Y-79213779D01*
X176742484Y-79181656D01*
X176782465Y-79152587D01*
X176829284Y-79110208D01*
X176871102Y-79062477D01*
X176907917Y-79009396D01*
X176939731Y-78950965D01*
X177249919Y-78950965D01*
G37*
G36*
X178669652Y-80261201D02*
G01*
X177582441Y-80261201D01*
X177592492Y-80197362D01*
X177607756Y-80135661D01*
X177628232Y-80076098D01*
X177653920Y-80018672D01*
X177684822Y-79963383D01*
X177696280Y-79945429D01*
X177737262Y-79890351D01*
X177780176Y-79842054D01*
X177831057Y-79791575D01*
X177877498Y-79749622D01*
X177929038Y-79706273D01*
X177985677Y-79661529D01*
X178047414Y-79615388D01*
X178101605Y-79574905D01*
X178154793Y-79532664D01*
X178202349Y-79490968D01*
X178244694Y-79445095D01*
X178276333Y-79389649D01*
X178286879Y-79338080D01*
X178271127Y-79277448D01*
X178246555Y-79246884D01*
X178191492Y-79215287D01*
X178145123Y-79209041D01*
X178083554Y-79220685D01*
X178040279Y-79250296D01*
X178007928Y-79305535D01*
X177991134Y-79367096D01*
X177984446Y-79408182D01*
X177608497Y-79377164D01*
X177620066Y-79309719D01*
X177637359Y-79241618D01*
X177658995Y-79183094D01*
X177688526Y-79128703D01*
X177728905Y-79078776D01*
X177778311Y-79036785D01*
X177836744Y-79002731D01*
X177849514Y-78996873D01*
X177914148Y-78974681D01*
X177981982Y-78961052D01*
X178049352Y-78953834D01*
X178113053Y-78951144D01*
X178135507Y-78950965D01*
X178203562Y-78952480D01*
X178265815Y-78957028D01*
X178331112Y-78966165D01*
X178396067Y-78981660D01*
X178431427Y-78994081D01*
X178487866Y-79021840D01*
X178542173Y-79061316D01*
X178587635Y-79109880D01*
X178599549Y-79126221D01*
X178631937Y-79184175D01*
X178652330Y-79246371D01*
X178660727Y-79312807D01*
X178660966Y-79326603D01*
X178655421Y-79391872D01*
X178638786Y-79455424D01*
X178611059Y-79517259D01*
X178590864Y-79550869D01*
X178548950Y-79605288D01*
X178500761Y-79654908D01*
X178450903Y-79698928D01*
X178393150Y-79744322D01*
X178338991Y-79783200D01*
X178284414Y-79820719D01*
X178232969Y-79857112D01*
X178195994Y-79884942D01*
X178147120Y-79926891D01*
X178129304Y-79943568D01*
X178669652Y-79943568D01*
X178669652Y-80261201D01*
G37*
G36*
X178721453Y-78970817D02*
G01*
X179156337Y-78970817D01*
X179437058Y-79861988D01*
X179713126Y-78970817D01*
X180136223Y-78970817D01*
X179654190Y-80261201D01*
X179212171Y-80261201D01*
X178721453Y-78970817D01*
G37*
D11*
G36*
X213067305Y-103264961D02*
G01*
X209526432Y-103264961D01*
X209526432Y-101687381D01*
X209748654Y-101687381D01*
X209752028Y-101957763D01*
X209748672Y-101975866D01*
X209752704Y-102011981D01*
X209752737Y-102014553D01*
X209753086Y-102015395D01*
X209753295Y-102017266D01*
X209833915Y-102379734D01*
X209834078Y-102397415D01*
X209846536Y-102437166D01*
X209846844Y-102437859D01*
X209846858Y-102437921D01*
X209846896Y-102437977D01*
X209929983Y-102624880D01*
X209937408Y-102647917D01*
X209945252Y-102659229D01*
X209947462Y-102664199D01*
X209951338Y-102668004D01*
X209961147Y-102682149D01*
X210107597Y-102849631D01*
X210110548Y-102856390D01*
X210129256Y-102874402D01*
X210153012Y-102901569D01*
X210162553Y-102906458D01*
X210170278Y-102913896D01*
X210207383Y-102932833D01*
X210466575Y-103030459D01*
X210486364Y-103038656D01*
X210489036Y-103038919D01*
X210490326Y-103039405D01*
X210493380Y-103039347D01*
X210527821Y-103042739D01*
X210710077Y-103039079D01*
X210727220Y-103039405D01*
X210729768Y-103038684D01*
X210731182Y-103038656D01*
X210734005Y-103037486D01*
X210767306Y-103028071D01*
X210983285Y-102939990D01*
X210990748Y-102939385D01*
X211014039Y-102927448D01*
X211047268Y-102913897D01*
X211054992Y-102906460D01*
X211064536Y-102901569D01*
X211094496Y-102872625D01*
X211199187Y-102743154D01*
X211224621Y-102664238D01*
X211369116Y-102664238D01*
X211394551Y-102743154D01*
X211418289Y-102777386D01*
X211506932Y-102876636D01*
X211519749Y-102893623D01*
X211526498Y-102898543D01*
X211529201Y-102901569D01*
X211534079Y-102904069D01*
X211553412Y-102918162D01*
X211697672Y-102999598D01*
X211705000Y-103006926D01*
X211726230Y-103015720D01*
X211753121Y-103030900D01*
X211767854Y-103032961D01*
X211781602Y-103038656D01*
X211823059Y-103042739D01*
X212284169Y-103039167D01*
X212296598Y-103042390D01*
X212321704Y-103038876D01*
X212350230Y-103038656D01*
X212363977Y-103032961D01*
X212378711Y-103030900D01*
X212416515Y-103013400D01*
X212581052Y-102912628D01*
X212602631Y-102901569D01*
X212608730Y-102895676D01*
X212612083Y-102893623D01*
X212615382Y-102889250D01*
X212632591Y-102872625D01*
X212712130Y-102774258D01*
X212727227Y-102759437D01*
X212733709Y-102747572D01*
X212737282Y-102743154D01*
X212738948Y-102737982D01*
X212747200Y-102722880D01*
X212840611Y-102492653D01*
X212840620Y-102491660D01*
X212841000Y-102490743D01*
X212845083Y-102449286D01*
X212841000Y-101931639D01*
X212840620Y-101930721D01*
X212840611Y-101929729D01*
X212828153Y-101889978D01*
X212744707Y-101702266D01*
X212737282Y-101679228D01*
X212729435Y-101667913D01*
X212727227Y-101662945D01*
X212723351Y-101659140D01*
X212713543Y-101644996D01*
X212624900Y-101545747D01*
X212612083Y-101528759D01*
X212605333Y-101523838D01*
X212602631Y-101520813D01*
X212597753Y-101518313D01*
X212578420Y-101504220D01*
X212448746Y-101431017D01*
X212791831Y-100965736D01*
X212809270Y-100948298D01*
X212815140Y-100934125D01*
X212824558Y-100921354D01*
X212830964Y-100895923D01*
X212841000Y-100871696D01*
X212841000Y-100856088D01*
X212844813Y-100840953D01*
X212841000Y-100815006D01*
X212841000Y-100788782D01*
X212835027Y-100774362D01*
X212832758Y-100758921D01*
X212819306Y-100736408D01*
X212809270Y-100712180D01*
X212798233Y-100701143D01*
X212790228Y-100687746D01*
X212769185Y-100672095D01*
X212750642Y-100653552D01*
X212736222Y-100647579D01*
X212723698Y-100638264D01*
X212698267Y-100631857D01*
X212674040Y-100621822D01*
X212648414Y-100619298D01*
X212643297Y-100618009D01*
X212640097Y-100618479D01*
X212632583Y-100617739D01*
X211538745Y-100621822D01*
X211462143Y-100653552D01*
X211403515Y-100712180D01*
X211371785Y-100788782D01*
X211371785Y-100871696D01*
X211403515Y-100948298D01*
X211462143Y-101006926D01*
X211538745Y-101038656D01*
X211580202Y-101042739D01*
X212213613Y-101040374D01*
X211906667Y-101456645D01*
X211889229Y-101474084D01*
X211883358Y-101488256D01*
X211873941Y-101501028D01*
X211867534Y-101526458D01*
X211857499Y-101550686D01*
X211857499Y-101566293D01*
X211853686Y-101581429D01*
X211857499Y-101607375D01*
X211857499Y-101633600D01*
X211863471Y-101648019D01*
X211865741Y-101663461D01*
X211879192Y-101685973D01*
X211889229Y-101710202D01*
X211900265Y-101721238D01*
X211908271Y-101734636D01*
X211929313Y-101750286D01*
X211947857Y-101768830D01*
X211962276Y-101774802D01*
X211974801Y-101784118D01*
X212000231Y-101790524D01*
X212024459Y-101800560D01*
X212050084Y-101803083D01*
X212055202Y-101804373D01*
X212058401Y-101803902D01*
X212065916Y-101804643D01*
X212248362Y-101802022D01*
X212328788Y-101847424D01*
X212366876Y-101890069D01*
X212420377Y-102010419D01*
X212423447Y-102399603D01*
X212373917Y-102521677D01*
X212336373Y-102568108D01*
X212254653Y-102618158D01*
X211884647Y-102621023D01*
X211803043Y-102574957D01*
X211712155Y-102473194D01*
X211638367Y-102435378D01*
X211555726Y-102428676D01*
X211476810Y-102454111D01*
X211413634Y-102507809D01*
X211375818Y-102581597D01*
X211369116Y-102664238D01*
X211224621Y-102664238D01*
X211217920Y-102581596D01*
X211180103Y-102507809D01*
X211116927Y-102454110D01*
X211038011Y-102428676D01*
X210955370Y-102435377D01*
X210881582Y-102473194D01*
X210851622Y-102502138D01*
X210807696Y-102556461D01*
X210655768Y-102618420D01*
X210572697Y-102620088D01*
X210414698Y-102560577D01*
X210308957Y-102439650D01*
X210248659Y-102304010D01*
X210173570Y-101966412D01*
X210170545Y-101723988D01*
X210238938Y-101386434D01*
X210300440Y-101234853D01*
X210407862Y-101104827D01*
X210561777Y-101042057D01*
X210644848Y-101040389D01*
X210803886Y-101100291D01*
X210881583Y-101187283D01*
X210955371Y-101225100D01*
X211038012Y-101231801D01*
X211116928Y-101206366D01*
X211180103Y-101152667D01*
X211217920Y-101078879D01*
X211224621Y-100996238D01*
X211199186Y-100917322D01*
X211175447Y-100883090D01*
X211109017Y-100808713D01*
X211106998Y-100804088D01*
X211091926Y-100789576D01*
X211064535Y-100758909D01*
X211054993Y-100754018D01*
X211047268Y-100746581D01*
X211010163Y-100727645D01*
X210750970Y-100630018D01*
X210731182Y-100621822D01*
X210728509Y-100621558D01*
X210727220Y-100621073D01*
X210724165Y-100621130D01*
X210689725Y-100617739D01*
X210507468Y-100621398D01*
X210490326Y-100621073D01*
X210487777Y-100621793D01*
X210486364Y-100621822D01*
X210483540Y-100622991D01*
X210450240Y-100632407D01*
X210234264Y-100720486D01*
X210226800Y-100721092D01*
X210203500Y-100733033D01*
X210170278Y-100746582D01*
X210162554Y-100754018D01*
X210153013Y-100758908D01*
X210123052Y-100787851D01*
X209965448Y-100978618D01*
X209947462Y-100996278D01*
X209940828Y-101008420D01*
X209937408Y-101012560D01*
X209935741Y-101017729D01*
X209927489Y-101032835D01*
X209855780Y-101209571D01*
X209846858Y-101222556D01*
X209834247Y-101262259D01*
X209834090Y-101263030D01*
X209834078Y-101263062D01*
X209834077Y-101263094D01*
X209760123Y-101628090D01*
X209752737Y-101645924D01*
X209749167Y-101682163D01*
X209748672Y-101684611D01*
X209748838Y-101685508D01*
X209748654Y-101687381D01*
X209526432Y-101687381D01*
X209526432Y-100395517D01*
X213067305Y-100395517D01*
X213067305Y-103264961D01*
G37*
G36*
X213063222Y-123264961D02*
G01*
X209526432Y-123264961D01*
X209526432Y-121687381D01*
X209748654Y-121687381D01*
X209752028Y-121957763D01*
X209748672Y-121975866D01*
X209752704Y-122011981D01*
X209752737Y-122014553D01*
X209753086Y-122015395D01*
X209753295Y-122017266D01*
X209833915Y-122379734D01*
X209834078Y-122397415D01*
X209846536Y-122437166D01*
X209846844Y-122437859D01*
X209846858Y-122437921D01*
X209846896Y-122437977D01*
X209929983Y-122624880D01*
X209937408Y-122647917D01*
X209945252Y-122659229D01*
X209947462Y-122664199D01*
X209951338Y-122668004D01*
X209961147Y-122682149D01*
X210107597Y-122849631D01*
X210110548Y-122856390D01*
X210129256Y-122874402D01*
X210153012Y-122901569D01*
X210162553Y-122906458D01*
X210170278Y-122913896D01*
X210207383Y-122932833D01*
X210466575Y-123030459D01*
X210486364Y-123038656D01*
X210489036Y-123038919D01*
X210490326Y-123039405D01*
X210493380Y-123039347D01*
X210527821Y-123042739D01*
X210710077Y-123039079D01*
X210727220Y-123039405D01*
X210729768Y-123038684D01*
X210731182Y-123038656D01*
X210734005Y-123037486D01*
X210767306Y-123028071D01*
X210983285Y-122939990D01*
X210990748Y-122939385D01*
X211014039Y-122927448D01*
X211047268Y-122913897D01*
X211054992Y-122906460D01*
X211064536Y-122901569D01*
X211094496Y-122872625D01*
X211199187Y-122743154D01*
X211224621Y-122664238D01*
X211217920Y-122581596D01*
X211180103Y-122507809D01*
X211116927Y-122454110D01*
X211038011Y-122428676D01*
X210955370Y-122435377D01*
X210881582Y-122473194D01*
X210851622Y-122502138D01*
X210807696Y-122556461D01*
X210655768Y-122618420D01*
X210572697Y-122620088D01*
X210414698Y-122560577D01*
X210308957Y-122439650D01*
X210248659Y-122304010D01*
X210173570Y-121966412D01*
X210170545Y-121723988D01*
X210238318Y-121389492D01*
X211449003Y-121389492D01*
X211460493Y-121471605D01*
X211502532Y-121543072D01*
X211568720Y-121593010D01*
X211648979Y-121613818D01*
X211731092Y-121602328D01*
X211768896Y-121584828D01*
X211933431Y-121484056D01*
X211935673Y-121482908D01*
X211937948Y-122620539D01*
X211619697Y-122621822D01*
X211543095Y-122653552D01*
X211484467Y-122712180D01*
X211452737Y-122788782D01*
X211452737Y-122871696D01*
X211484467Y-122948298D01*
X211543095Y-123006926D01*
X211619697Y-123038656D01*
X211661154Y-123042739D01*
X212674040Y-123038656D01*
X212750642Y-123006926D01*
X212809270Y-122948298D01*
X212841000Y-122871696D01*
X212841000Y-122788782D01*
X212809270Y-122712180D01*
X212750642Y-122653552D01*
X212674040Y-122621822D01*
X212632583Y-122617739D01*
X212358945Y-122618842D01*
X212355391Y-120842189D01*
X212358794Y-120814634D01*
X212355311Y-120802043D01*
X212355285Y-120788782D01*
X212344325Y-120762323D01*
X212336691Y-120734722D01*
X212328592Y-120724342D01*
X212323555Y-120712180D01*
X212303304Y-120691929D01*
X212285688Y-120669350D01*
X212274235Y-120662860D01*
X212264927Y-120653552D01*
X212238466Y-120642591D01*
X212213551Y-120628473D01*
X212200487Y-120626860D01*
X212188325Y-120621822D01*
X212159683Y-120621822D01*
X212131263Y-120618313D01*
X212118576Y-120621822D01*
X212105411Y-120621822D01*
X212078952Y-120632781D01*
X212051351Y-120640416D01*
X212040971Y-120648514D01*
X212028809Y-120653552D01*
X212008558Y-120673802D01*
X211985979Y-120691419D01*
X211974147Y-120708213D01*
X211970181Y-120712180D01*
X211968508Y-120716218D01*
X211961988Y-120725474D01*
X211820997Y-120980814D01*
X211691009Y-121138155D01*
X211519749Y-121243045D01*
X211469811Y-121309233D01*
X211449003Y-121389492D01*
X210238318Y-121389492D01*
X210238938Y-121386434D01*
X210300440Y-121234853D01*
X210407862Y-121104827D01*
X210561777Y-121042057D01*
X210644848Y-121040389D01*
X210803886Y-121100291D01*
X210881583Y-121187283D01*
X210955371Y-121225100D01*
X211038012Y-121231801D01*
X211116928Y-121206366D01*
X211180103Y-121152667D01*
X211217920Y-121078879D01*
X211224621Y-120996238D01*
X211199186Y-120917322D01*
X211175447Y-120883090D01*
X211109017Y-120808713D01*
X211106998Y-120804088D01*
X211091926Y-120789576D01*
X211064535Y-120758909D01*
X211054993Y-120754018D01*
X211047268Y-120746581D01*
X211010163Y-120727645D01*
X210750970Y-120630018D01*
X210731182Y-120621822D01*
X210728509Y-120621558D01*
X210727220Y-120621073D01*
X210724165Y-120621130D01*
X210689725Y-120617739D01*
X210507468Y-120621398D01*
X210490326Y-120621073D01*
X210487777Y-120621793D01*
X210486364Y-120621822D01*
X210483540Y-120622991D01*
X210450240Y-120632407D01*
X210234264Y-120720486D01*
X210226800Y-120721092D01*
X210203500Y-120733033D01*
X210170278Y-120746582D01*
X210162554Y-120754018D01*
X210153013Y-120758908D01*
X210123052Y-120787851D01*
X209965448Y-120978618D01*
X209947462Y-120996278D01*
X209940828Y-121008420D01*
X209937408Y-121012560D01*
X209935741Y-121017729D01*
X209927489Y-121032835D01*
X209855780Y-121209571D01*
X209846858Y-121222556D01*
X209834247Y-121262259D01*
X209834090Y-121263030D01*
X209834078Y-121263062D01*
X209834077Y-121263094D01*
X209760123Y-121628090D01*
X209752737Y-121645924D01*
X209749167Y-121682163D01*
X209748672Y-121684611D01*
X209748838Y-121685508D01*
X209748654Y-121687381D01*
X209526432Y-121687381D01*
X209526432Y-120395517D01*
X213063222Y-120395517D01*
X213063222Y-123264961D01*
G37*
D10*
G36*
X165325107Y-70650762D02*
G01*
X166591730Y-70570610D01*
X166589209Y-70784471D01*
X166632358Y-70992567D01*
X166658173Y-71047307D01*
X166801241Y-71209260D01*
X167008972Y-71296466D01*
X167183384Y-71313077D01*
X167395291Y-71291319D01*
X167597841Y-71212144D01*
X167644262Y-71181246D01*
X167795099Y-71029271D01*
X167860463Y-70875401D01*
X167835539Y-70664679D01*
X167776092Y-70580101D01*
X167581297Y-70460744D01*
X167356939Y-70384776D01*
X167154908Y-70333315D01*
X166910230Y-70269507D01*
X166690990Y-70199364D01*
X166461482Y-70106831D01*
X166268606Y-70005178D01*
X166089884Y-69875054D01*
X166028552Y-69815487D01*
X165902193Y-69641998D01*
X165821022Y-69420351D01*
X165803076Y-69199799D01*
X165829225Y-68988649D01*
X165889887Y-68785939D01*
X165986185Y-68590439D01*
X166118118Y-68402149D01*
X166148781Y-68365356D01*
X166303069Y-68209854D01*
X166483551Y-68074374D01*
X166690229Y-67958916D01*
X166816369Y-67903423D01*
X167040150Y-67830060D01*
X167261372Y-67783062D01*
X167506314Y-67752111D01*
X167735142Y-67738356D01*
X167897375Y-67735736D01*
X168141421Y-67743202D01*
X168363374Y-67765603D01*
X168600557Y-67812197D01*
X168805928Y-67880295D01*
X169005320Y-67986923D01*
X169077518Y-68041581D01*
X169233144Y-68217047D01*
X169326167Y-68407564D01*
X169378919Y-68632600D01*
X169392081Y-68852962D01*
X169384419Y-69013960D01*
X168130451Y-69085676D01*
X168111187Y-68867835D01*
X168008113Y-68674366D01*
X167814273Y-68570327D01*
X167598912Y-68545700D01*
X167381647Y-68573083D01*
X167232952Y-68642726D01*
X167092954Y-68803996D01*
X167068428Y-68878966D01*
X167126433Y-69061419D01*
X167320965Y-69162351D01*
X167534579Y-69218560D01*
X167779675Y-69276442D01*
X168000825Y-69334736D01*
X168234597Y-69405232D01*
X168433887Y-69476321D01*
X168645968Y-69572030D01*
X168689410Y-69596122D01*
X168875971Y-69725809D01*
X169030987Y-69889402D01*
X169133414Y-70074928D01*
X169187737Y-70278796D01*
X169198443Y-70498865D01*
X169170327Y-70712986D01*
X169113771Y-70916268D01*
X169030587Y-71111640D01*
X168920772Y-71299103D01*
X168784328Y-71478655D01*
X168625605Y-71643179D01*
X168448952Y-71786610D01*
X168254371Y-71908948D01*
X168041861Y-72010194D01*
X167839693Y-72080465D01*
X167620771Y-72133476D01*
X167385094Y-72169227D01*
X167169749Y-72186135D01*
X166980893Y-72190537D01*
X166721418Y-72183748D01*
X166485607Y-72163381D01*
X166273459Y-72129434D01*
X166041552Y-72067907D01*
X165846618Y-71985163D01*
X165661504Y-71857864D01*
X165567674Y-71756026D01*
X165443960Y-71554622D01*
X165359811Y-71330610D01*
X165319174Y-71120605D01*
X165307606Y-70893989D01*
X165325107Y-70650762D01*
G37*
G36*
X172899866Y-67811601D02*
G01*
X173126977Y-67843734D01*
X173353793Y-67911683D01*
X173539531Y-68012436D01*
X173684188Y-68145991D01*
X173800133Y-68335431D01*
X173864268Y-68560992D01*
X173877887Y-68787989D01*
X173857989Y-69004569D01*
X173837111Y-69120479D01*
X173774920Y-69354485D01*
X173689593Y-69568470D01*
X173581130Y-69762433D01*
X173449531Y-69936375D01*
X173294795Y-70090295D01*
X173238075Y-70137152D01*
X173052776Y-70261522D01*
X172844118Y-70360159D01*
X172612101Y-70433065D01*
X172400910Y-70474164D01*
X172173498Y-70497394D01*
X171979889Y-70503113D01*
X171260624Y-70503113D01*
X170924194Y-72123041D01*
X169603784Y-72123041D01*
X170123261Y-69625652D01*
X171443077Y-69625652D01*
X171764742Y-69625652D01*
X171983230Y-69612880D01*
X172194026Y-69563840D01*
X172326866Y-69494876D01*
X172480610Y-69333971D01*
X172551504Y-69157391D01*
X172548667Y-68942255D01*
X172487171Y-68819906D01*
X172301824Y-68711282D01*
X172081388Y-68681917D01*
X172014692Y-68680694D01*
X171640295Y-68680694D01*
X171443077Y-69625652D01*
X170123261Y-69625652D01*
X170502338Y-67803233D01*
X172687553Y-67803233D01*
X172899866Y-67811601D01*
G37*
G36*
X177915406Y-72123041D02*
G01*
X176540155Y-72123041D01*
X176485314Y-71380574D01*
X174988779Y-71380574D01*
X174628092Y-72123041D01*
X173285534Y-72123041D01*
X174260665Y-70435616D01*
X175469695Y-70435616D01*
X176407270Y-70435616D01*
X176254348Y-68906387D01*
X175469695Y-70435616D01*
X174260665Y-70435616D01*
X175781869Y-67803233D01*
X177216180Y-67803233D01*
X177915406Y-72123041D01*
G37*
G36*
X181484747Y-67806977D02*
G01*
X181711167Y-67820812D01*
X181933598Y-67849106D01*
X182157132Y-67903198D01*
X182176155Y-67909751D01*
X182377953Y-68014507D01*
X182534073Y-68170577D01*
X182612776Y-68303132D01*
X182681340Y-68515180D01*
X182697819Y-68733688D01*
X182675313Y-68951304D01*
X182665508Y-69002359D01*
X182605937Y-69217448D01*
X182520824Y-69413174D01*
X182397699Y-69606110D01*
X182384973Y-69622488D01*
X182233344Y-69789989D01*
X182059782Y-69934311D01*
X181882964Y-70045398D01*
X181679272Y-70134415D01*
X181461125Y-70198816D01*
X181386229Y-70216250D01*
X181582168Y-70302235D01*
X181695238Y-70377610D01*
X181825963Y-70557249D01*
X181856598Y-70609631D01*
X181953906Y-70798478D01*
X181984210Y-70881728D01*
X182361771Y-72123041D01*
X180875783Y-72123041D01*
X180448653Y-70801576D01*
X180371656Y-70600710D01*
X180279911Y-70468309D01*
X180085729Y-70377903D01*
X179979338Y-70368119D01*
X179862273Y-70368119D01*
X179497367Y-72123041D01*
X178178012Y-72123041D01*
X178711528Y-69558155D01*
X180031016Y-69558155D01*
X180585757Y-69558155D01*
X180808213Y-69527644D01*
X180945389Y-69499095D01*
X181139658Y-69407689D01*
X181186902Y-69364101D01*
X181302385Y-69181780D01*
X181321896Y-69113096D01*
X181320956Y-68899330D01*
X181258617Y-68792485D01*
X181058363Y-68702091D01*
X180835504Y-68681130D01*
X180791411Y-68680694D01*
X180213468Y-68680694D01*
X180031016Y-69558155D01*
X178711528Y-69558155D01*
X179076566Y-67803233D01*
X181267054Y-67803233D01*
X181484747Y-67806977D01*
G37*
G36*
X183434341Y-67803233D02*
G01*
X187429319Y-67803233D01*
X187218391Y-68815688D01*
X185878998Y-68815688D01*
X185191372Y-72123041D01*
X183877290Y-72123041D01*
X184564916Y-68815688D01*
X183223413Y-68815688D01*
X183434341Y-67803233D01*
G37*
G36*
X191165911Y-72123041D02*
G01*
X189790660Y-72123041D01*
X189735818Y-71380574D01*
X188239283Y-71380574D01*
X187878596Y-72123041D01*
X186536039Y-72123041D01*
X187511169Y-70435616D01*
X188720200Y-70435616D01*
X189657775Y-70435616D01*
X189504852Y-68906387D01*
X188720200Y-70435616D01*
X187511169Y-70435616D01*
X189032373Y-67803233D01*
X190466684Y-67803233D01*
X191165911Y-72123041D01*
G37*
G36*
X192369256Y-67803233D02*
G01*
X193596858Y-67803233D01*
X194692629Y-70237343D01*
X195198857Y-67803233D01*
X196435950Y-67803233D01*
X195537397Y-72123041D01*
X194300303Y-72123041D01*
X193208750Y-69701586D01*
X192705686Y-72123041D01*
X191470702Y-72123041D01*
X192369256Y-67803233D01*
G37*
D11*
G36*
X213144174Y-93264961D02*
G01*
X209526432Y-93264961D01*
X209526432Y-91687381D01*
X209748654Y-91687381D01*
X209752028Y-91957763D01*
X209748672Y-91975866D01*
X209752704Y-92011981D01*
X209752737Y-92014553D01*
X209753086Y-92015395D01*
X209753295Y-92017266D01*
X209833915Y-92379734D01*
X209834078Y-92397415D01*
X209846536Y-92437166D01*
X209846844Y-92437859D01*
X209846858Y-92437921D01*
X209846896Y-92437977D01*
X209929983Y-92624880D01*
X209937408Y-92647917D01*
X209945252Y-92659229D01*
X209947462Y-92664199D01*
X209951338Y-92668004D01*
X209961147Y-92682149D01*
X210107597Y-92849631D01*
X210110548Y-92856390D01*
X210129256Y-92874402D01*
X210153012Y-92901569D01*
X210162553Y-92906458D01*
X210170278Y-92913896D01*
X210207383Y-92932833D01*
X210466575Y-93030459D01*
X210486364Y-93038656D01*
X210489036Y-93038919D01*
X210490326Y-93039405D01*
X210493380Y-93039347D01*
X210527821Y-93042739D01*
X210710077Y-93039079D01*
X210727220Y-93039405D01*
X210729768Y-93038684D01*
X210731182Y-93038656D01*
X210734005Y-93037486D01*
X210767306Y-93028071D01*
X210983285Y-92939990D01*
X210990748Y-92939385D01*
X211014039Y-92927448D01*
X211047268Y-92913897D01*
X211054992Y-92906460D01*
X211064536Y-92901569D01*
X211094496Y-92872625D01*
X211199187Y-92743154D01*
X211224621Y-92664238D01*
X211217920Y-92581596D01*
X211180103Y-92507809D01*
X211116927Y-92454110D01*
X211038011Y-92428676D01*
X210955370Y-92435377D01*
X210881582Y-92473194D01*
X210851622Y-92502138D01*
X210807696Y-92556461D01*
X210655768Y-92618420D01*
X210572697Y-92620088D01*
X210414698Y-92560577D01*
X210308957Y-92439650D01*
X210248659Y-92304010D01*
X210213657Y-92146644D01*
X211449329Y-92146644D01*
X211452737Y-92175735D01*
X211452737Y-92205029D01*
X211457521Y-92216580D01*
X211458976Y-92228994D01*
X211473255Y-92254565D01*
X211484467Y-92281631D01*
X211493306Y-92290470D01*
X211499401Y-92301384D01*
X211522381Y-92319545D01*
X211543095Y-92340259D01*
X211554644Y-92345042D01*
X211564452Y-92352794D01*
X211592634Y-92360779D01*
X211619697Y-92371989D01*
X211638858Y-92373876D01*
X211644226Y-92375397D01*
X211648827Y-92374857D01*
X211661154Y-92376072D01*
X212260782Y-92373833D01*
X212262261Y-92871696D01*
X212293991Y-92948298D01*
X212352619Y-93006926D01*
X212429221Y-93038656D01*
X212512135Y-93038656D01*
X212588737Y-93006926D01*
X212647365Y-92948298D01*
X212679095Y-92871696D01*
X212683178Y-92830239D01*
X212681817Y-92372262D01*
X212754992Y-92371989D01*
X212831594Y-92340259D01*
X212890222Y-92281631D01*
X212921952Y-92205029D01*
X212921952Y-92122115D01*
X212890222Y-92045513D01*
X212831594Y-91986885D01*
X212754992Y-91955155D01*
X212713535Y-91951072D01*
X212680567Y-91951195D01*
X212679095Y-91455448D01*
X212647365Y-91378846D01*
X212588737Y-91320218D01*
X212512135Y-91288488D01*
X212429221Y-91288488D01*
X212352619Y-91320218D01*
X212293991Y-91378846D01*
X212262261Y-91455448D01*
X212258178Y-91496905D01*
X212259531Y-91952766D01*
X211940637Y-91953957D01*
X212277741Y-90751929D01*
X212268095Y-90669578D01*
X212227669Y-90597188D01*
X212162618Y-90545778D01*
X212082844Y-90523176D01*
X212000494Y-90532822D01*
X211928104Y-90573247D01*
X211876694Y-90638299D01*
X211861464Y-90677072D01*
X211463484Y-92096167D01*
X211452737Y-92122115D01*
X211452737Y-92134491D01*
X211449329Y-92146644D01*
X210213657Y-92146644D01*
X210173570Y-91966412D01*
X210170545Y-91723988D01*
X210238938Y-91386434D01*
X210300440Y-91234853D01*
X210407862Y-91104827D01*
X210561777Y-91042057D01*
X210644848Y-91040389D01*
X210803886Y-91100291D01*
X210881583Y-91187283D01*
X210955371Y-91225100D01*
X211038012Y-91231801D01*
X211116928Y-91206366D01*
X211180103Y-91152667D01*
X211217920Y-91078879D01*
X211224621Y-90996238D01*
X211199186Y-90917322D01*
X211175447Y-90883090D01*
X211109017Y-90808713D01*
X211106998Y-90804088D01*
X211091926Y-90789576D01*
X211064535Y-90758909D01*
X211054993Y-90754018D01*
X211047268Y-90746581D01*
X211010163Y-90727645D01*
X210750970Y-90630018D01*
X210731182Y-90621822D01*
X210728509Y-90621558D01*
X210727220Y-90621073D01*
X210724165Y-90621130D01*
X210689725Y-90617739D01*
X210507468Y-90621398D01*
X210490326Y-90621073D01*
X210487777Y-90621793D01*
X210486364Y-90621822D01*
X210483540Y-90622991D01*
X210450240Y-90632407D01*
X210234264Y-90720486D01*
X210226800Y-90721092D01*
X210203500Y-90733033D01*
X210170278Y-90746582D01*
X210162554Y-90754018D01*
X210153013Y-90758908D01*
X210123052Y-90787851D01*
X209965448Y-90978618D01*
X209947462Y-90996278D01*
X209940828Y-91008420D01*
X209937408Y-91012560D01*
X209935741Y-91017729D01*
X209927489Y-91032835D01*
X209855780Y-91209571D01*
X209846858Y-91222556D01*
X209834247Y-91262259D01*
X209834090Y-91263030D01*
X209834078Y-91263062D01*
X209834077Y-91263094D01*
X209760123Y-91628090D01*
X209752737Y-91645924D01*
X209749167Y-91682163D01*
X209748672Y-91684611D01*
X209748838Y-91685508D01*
X209748654Y-91687381D01*
X209526432Y-91687381D01*
X209526432Y-90300954D01*
X213144174Y-90300954D01*
X213144174Y-93264961D01*
G37*
D15*
G36*
X160361716Y-138474092D02*
G01*
X160361716Y-137551716D01*
X162025567Y-136432060D01*
X160361716Y-136432060D01*
X160361716Y-135491072D01*
X163458638Y-135491072D01*
X163458638Y-136420893D01*
X161803720Y-137534593D01*
X163458638Y-137534593D01*
X163458638Y-138474092D01*
X160361716Y-138474092D01*
G37*
G36*
X160361716Y-134929755D02*
G01*
X160361716Y-132340550D01*
X161124035Y-132340550D01*
X161124035Y-133931445D01*
X161505195Y-133931445D01*
X161505195Y-132455196D01*
X162172224Y-132455196D01*
X162172224Y-133931445D01*
X162696318Y-133931445D01*
X162696318Y-132294394D01*
X163458638Y-132294394D01*
X163458638Y-134929755D01*
X160361716Y-134929755D01*
G37*
G36*
X162458094Y-130305218D02*
G01*
X161695775Y-130305218D01*
X161695775Y-128792491D01*
X162968788Y-128792491D01*
X163062233Y-128925308D01*
X163145755Y-129052962D01*
X163232882Y-129199334D01*
X163305719Y-129338274D01*
X163372635Y-129490975D01*
X163395359Y-129553321D01*
X163438580Y-129702109D01*
X163471186Y-129862510D01*
X163493175Y-130034525D01*
X163503574Y-130191209D01*
X163506282Y-130328296D01*
X163501702Y-130495991D01*
X163487962Y-130653834D01*
X163465061Y-130801827D01*
X163425489Y-130966414D01*
X163372726Y-131116817D01*
X163318680Y-131231317D01*
X163227841Y-131376878D01*
X163119476Y-131507407D01*
X162993583Y-131622902D01*
X162871726Y-131709933D01*
X162760341Y-131774022D01*
X162617267Y-131839296D01*
X162466655Y-131891064D01*
X162308505Y-131929328D01*
X162142818Y-131954087D01*
X161969594Y-131965341D01*
X161910177Y-131966091D01*
X161755841Y-131960947D01*
X161578987Y-131941196D01*
X161411241Y-131906631D01*
X161252603Y-131857253D01*
X161103073Y-131793062D01*
X161031723Y-131755411D01*
X160897661Y-131669523D01*
X160776318Y-131569868D01*
X160667695Y-131456447D01*
X160571791Y-131329259D01*
X160488608Y-131188304D01*
X160463706Y-131138260D01*
X160405401Y-130989182D01*
X160366824Y-130844956D01*
X160338767Y-130685550D01*
X160321232Y-130510965D01*
X160314656Y-130353881D01*
X160314071Y-130288096D01*
X160316434Y-130134058D01*
X160325507Y-129965719D01*
X160341385Y-129815386D01*
X160368509Y-129662756D01*
X160410850Y-129518332D01*
X160473827Y-129380392D01*
X160563830Y-129243424D01*
X160674916Y-129123614D01*
X160712353Y-129091017D01*
X160837633Y-129001305D01*
X160983994Y-128923960D01*
X161131791Y-128865590D01*
X161253570Y-128828225D01*
X161412883Y-129788568D01*
X161279143Y-129854950D01*
X161168871Y-129962569D01*
X161158280Y-129978404D01*
X161096863Y-130125061D01*
X161076710Y-130283920D01*
X161076390Y-130308940D01*
X161091878Y-130468819D01*
X161145414Y-130623671D01*
X161237191Y-130754532D01*
X161272181Y-130789112D01*
X161400922Y-130875480D01*
X161546602Y-130928522D01*
X161698194Y-130956614D01*
X161872300Y-130967606D01*
X161899010Y-130967781D01*
X162061661Y-130961421D01*
X162227869Y-130937925D01*
X162386763Y-130889873D01*
X162525920Y-130808785D01*
X162551150Y-130786879D01*
X162652829Y-130659784D01*
X162712142Y-130521405D01*
X162740951Y-130360296D01*
X162743963Y-130281396D01*
X162736333Y-130128597D01*
X162713441Y-129982870D01*
X162672868Y-129833422D01*
X162622100Y-129691967D01*
X162613684Y-129670945D01*
X162458094Y-129670945D01*
X162458094Y-130305218D01*
G37*
D17*
G36*
X53682928Y-175008560D02*
G01*
X53682928Y-172943945D01*
X55085476Y-172943945D01*
X55085476Y-173293342D01*
X54095850Y-173293342D01*
X54095850Y-173769791D01*
X54949985Y-173769791D01*
X54949985Y-174119187D01*
X54095850Y-174119187D01*
X54095850Y-175008560D01*
X53682928Y-175008560D01*
G37*
G36*
X55098379Y-175008560D02*
G01*
X55098379Y-174627400D01*
X55490954Y-174627400D01*
X55490954Y-175008560D01*
X55098379Y-175008560D01*
G37*
G36*
X55786750Y-174341530D02*
G01*
X56188754Y-174309767D01*
X56215022Y-174412074D01*
X56258022Y-174506410D01*
X56322115Y-174586668D01*
X56335659Y-174598614D01*
X56421238Y-174651171D01*
X56525114Y-174681912D01*
X56635425Y-174690927D01*
X56739878Y-174684370D01*
X56837704Y-174661707D01*
X56929760Y-174613143D01*
X56936184Y-174608044D01*
X57005395Y-174529768D01*
X57036539Y-174434094D01*
X57037429Y-174413494D01*
X57011378Y-174314852D01*
X56994747Y-174291900D01*
X56911582Y-174231666D01*
X56846353Y-174204551D01*
X56747083Y-174174180D01*
X56645845Y-174146429D01*
X56546857Y-174120393D01*
X56515320Y-174112239D01*
X56416397Y-174084821D01*
X56310452Y-174049553D01*
X56218431Y-174011702D01*
X56128670Y-173964279D01*
X56049293Y-173905778D01*
X55975807Y-173827498D01*
X55920371Y-173742047D01*
X55882984Y-173649423D01*
X55863645Y-173549627D01*
X55860698Y-173489381D01*
X55871137Y-173383281D01*
X55902454Y-173281991D01*
X55949040Y-173194081D01*
X56012173Y-173114295D01*
X56090525Y-173047401D01*
X56184095Y-172993399D01*
X56204635Y-172984146D01*
X56304133Y-172949359D01*
X56401672Y-172927994D01*
X56507772Y-172915626D01*
X56607632Y-172912182D01*
X56723332Y-172916411D01*
X56829727Y-172929097D01*
X56926816Y-172950241D01*
X57031039Y-172986777D01*
X57121863Y-173035492D01*
X57187312Y-173085391D01*
X57263787Y-173166704D01*
X57322545Y-173259083D01*
X57363586Y-173362530D01*
X57384663Y-173460006D01*
X57392285Y-173547448D01*
X56978866Y-173547448D01*
X56950553Y-173445249D01*
X56895822Y-173356537D01*
X56865213Y-173328579D01*
X56772063Y-173282778D01*
X56665606Y-173263934D01*
X56603165Y-173261578D01*
X56498438Y-173268655D01*
X56400704Y-173292784D01*
X56321266Y-173334038D01*
X56260937Y-173417510D01*
X56255754Y-173459106D01*
X56290371Y-173554117D01*
X56317296Y-173580700D01*
X56407212Y-173630416D01*
X56502129Y-173665033D01*
X56608134Y-173696289D01*
X56696966Y-173719168D01*
X56804592Y-173746818D01*
X56901156Y-173774677D01*
X56999832Y-173807443D01*
X57094168Y-173845240D01*
X57143141Y-173869051D01*
X57227251Y-173922297D01*
X57305553Y-173993519D01*
X57368959Y-174077994D01*
X57415581Y-174176427D01*
X57441172Y-174278634D01*
X57450528Y-174380980D01*
X57450848Y-174405057D01*
X57441300Y-174513303D01*
X57412656Y-174617187D01*
X57364916Y-174716709D01*
X57353077Y-174736090D01*
X57291681Y-174816630D01*
X57217488Y-174884608D01*
X57130496Y-174940023D01*
X57076637Y-174965381D01*
X56981812Y-174998168D01*
X56876007Y-175021587D01*
X56774420Y-175034395D01*
X56664426Y-175040030D01*
X56631455Y-175040323D01*
X56514569Y-175035973D01*
X56406481Y-175022923D01*
X56307189Y-175001174D01*
X56199651Y-174963590D01*
X56104779Y-174913479D01*
X56035397Y-174862151D01*
X55963295Y-174789409D01*
X55902954Y-174705187D01*
X55854373Y-174609485D01*
X55817551Y-174502301D01*
X55795850Y-174404211D01*
X55786750Y-174341530D01*
G37*
G36*
X57784363Y-173293342D02*
G01*
X57784363Y-172943945D01*
X58176937Y-172943945D01*
X58176937Y-173293342D01*
X57784363Y-173293342D01*
G37*
G36*
X57784363Y-175008560D02*
G01*
X57784363Y-173515685D01*
X58176937Y-173515685D01*
X58176937Y-175008560D01*
X57784363Y-175008560D01*
G37*
G36*
X58574475Y-175008560D02*
G01*
X58574475Y-172943945D01*
X58967049Y-172943945D01*
X58967049Y-175008560D01*
X58574475Y-175008560D01*
G37*
G36*
X59350690Y-175008560D02*
G01*
X59350690Y-172943945D01*
X59743265Y-172943945D01*
X59743265Y-174041268D01*
X60202344Y-173515685D01*
X60685245Y-173515685D01*
X60178521Y-174061616D01*
X60721475Y-175008560D01*
X60298626Y-175008560D01*
X59925904Y-174335078D01*
X59743265Y-174530621D01*
X59743265Y-175008560D01*
X59350690Y-175008560D01*
G37*
D10*
X205054331Y-79206920D02*
X204720998Y-78730729D01*
X204482903Y-79206920D02*
X204482903Y-78206920D01*
X204482903Y-78206920D02*
X204863855Y-78206920D01*
X204863855Y-78206920D02*
X204959093Y-78254539D01*
X204959093Y-78254539D02*
X205006712Y-78302158D01*
X205006712Y-78302158D02*
X205054331Y-78397396D01*
X205054331Y-78397396D02*
X205054331Y-78540253D01*
X205054331Y-78540253D02*
X205006712Y-78635491D01*
X205006712Y-78635491D02*
X204959093Y-78683110D01*
X204959093Y-78683110D02*
X204863855Y-78730729D01*
X204863855Y-78730729D02*
X204482903Y-78730729D01*
X206006712Y-79206920D02*
X205435284Y-79206920D01*
X205720998Y-79206920D02*
X205720998Y-78206920D01*
X205720998Y-78206920D02*
X205625760Y-78349777D01*
X205625760Y-78349777D02*
X205530522Y-78445015D01*
X205530522Y-78445015D02*
X205435284Y-78492634D01*
X205054331Y-89206920D02*
X204720998Y-88730729D01*
X204482903Y-89206920D02*
X204482903Y-88206920D01*
X204482903Y-88206920D02*
X204863855Y-88206920D01*
X204863855Y-88206920D02*
X204959093Y-88254539D01*
X204959093Y-88254539D02*
X205006712Y-88302158D01*
X205006712Y-88302158D02*
X205054331Y-88397396D01*
X205054331Y-88397396D02*
X205054331Y-88540253D01*
X205054331Y-88540253D02*
X205006712Y-88635491D01*
X205006712Y-88635491D02*
X204959093Y-88683110D01*
X204959093Y-88683110D02*
X204863855Y-88730729D01*
X204863855Y-88730729D02*
X204482903Y-88730729D01*
X205435284Y-88302158D02*
X205482903Y-88254539D01*
X205482903Y-88254539D02*
X205578141Y-88206920D01*
X205578141Y-88206920D02*
X205816236Y-88206920D01*
X205816236Y-88206920D02*
X205911474Y-88254539D01*
X205911474Y-88254539D02*
X205959093Y-88302158D01*
X205959093Y-88302158D02*
X206006712Y-88397396D01*
X206006712Y-88397396D02*
X206006712Y-88492634D01*
X206006712Y-88492634D02*
X205959093Y-88635491D01*
X205959093Y-88635491D02*
X205387665Y-89206920D01*
X205387665Y-89206920D02*
X206006712Y-89206920D01*
X205076831Y-119206920D02*
X204743498Y-118730729D01*
X204505403Y-119206920D02*
X204505403Y-118206920D01*
X204505403Y-118206920D02*
X204886355Y-118206920D01*
X204886355Y-118206920D02*
X204981593Y-118254539D01*
X204981593Y-118254539D02*
X205029212Y-118302158D01*
X205029212Y-118302158D02*
X205076831Y-118397396D01*
X205076831Y-118397396D02*
X205076831Y-118540253D01*
X205076831Y-118540253D02*
X205029212Y-118635491D01*
X205029212Y-118635491D02*
X204981593Y-118683110D01*
X204981593Y-118683110D02*
X204886355Y-118730729D01*
X204886355Y-118730729D02*
X204505403Y-118730729D01*
X205981593Y-118206920D02*
X205505403Y-118206920D01*
X205505403Y-118206920D02*
X205457784Y-118683110D01*
X205457784Y-118683110D02*
X205505403Y-118635491D01*
X205505403Y-118635491D02*
X205600641Y-118587872D01*
X205600641Y-118587872D02*
X205838736Y-118587872D01*
X205838736Y-118587872D02*
X205933974Y-118635491D01*
X205933974Y-118635491D02*
X205981593Y-118683110D01*
X205981593Y-118683110D02*
X206029212Y-118778348D01*
X206029212Y-118778348D02*
X206029212Y-119016443D01*
X206029212Y-119016443D02*
X205981593Y-119111681D01*
X205981593Y-119111681D02*
X205933974Y-119159301D01*
X205933974Y-119159301D02*
X205838736Y-119206920D01*
X205838736Y-119206920D02*
X205600641Y-119206920D01*
X205600641Y-119206920D02*
X205505403Y-119159301D01*
X205505403Y-119159301D02*
X205457784Y-119111681D01*
X204702903Y-94616920D02*
X204702903Y-93616920D01*
X204702903Y-93616920D02*
X204940998Y-93616920D01*
X204940998Y-93616920D02*
X205083855Y-93664539D01*
X205083855Y-93664539D02*
X205179093Y-93759777D01*
X205179093Y-93759777D02*
X205226712Y-93855015D01*
X205226712Y-93855015D02*
X205274331Y-94045491D01*
X205274331Y-94045491D02*
X205274331Y-94188348D01*
X205274331Y-94188348D02*
X205226712Y-94378824D01*
X205226712Y-94378824D02*
X205179093Y-94474062D01*
X205179093Y-94474062D02*
X205083855Y-94569301D01*
X205083855Y-94569301D02*
X204940998Y-94616920D01*
X204940998Y-94616920D02*
X204702903Y-94616920D01*
X205655284Y-93712158D02*
X205702903Y-93664539D01*
X205702903Y-93664539D02*
X205798141Y-93616920D01*
X205798141Y-93616920D02*
X206036236Y-93616920D01*
X206036236Y-93616920D02*
X206131474Y-93664539D01*
X206131474Y-93664539D02*
X206179093Y-93712158D01*
X206179093Y-93712158D02*
X206226712Y-93807396D01*
X206226712Y-93807396D02*
X206226712Y-93902634D01*
X206226712Y-93902634D02*
X206179093Y-94045491D01*
X206179093Y-94045491D02*
X205607665Y-94616920D01*
X205607665Y-94616920D02*
X206226712Y-94616920D01*
X204782903Y-114516920D02*
X204782903Y-113516920D01*
X204782903Y-113516920D02*
X205020998Y-113516920D01*
X205020998Y-113516920D02*
X205163855Y-113564539D01*
X205163855Y-113564539D02*
X205259093Y-113659777D01*
X205259093Y-113659777D02*
X205306712Y-113755015D01*
X205306712Y-113755015D02*
X205354331Y-113945491D01*
X205354331Y-113945491D02*
X205354331Y-114088348D01*
X205354331Y-114088348D02*
X205306712Y-114278824D01*
X205306712Y-114278824D02*
X205259093Y-114374062D01*
X205259093Y-114374062D02*
X205163855Y-114469301D01*
X205163855Y-114469301D02*
X205020998Y-114516920D01*
X205020998Y-114516920D02*
X204782903Y-114516920D01*
X206211474Y-113850253D02*
X206211474Y-114516920D01*
X205973379Y-113469301D02*
X205735284Y-114183586D01*
X205735284Y-114183586D02*
X206354331Y-114183586D01*
X177211665Y-128724009D02*
X176878332Y-128724009D01*
X176878332Y-129247819D02*
X176878332Y-128247819D01*
X176878332Y-128247819D02*
X177354522Y-128247819D01*
X178259284Y-129247819D02*
X177687856Y-129247819D01*
X177973570Y-129247819D02*
X177973570Y-128247819D01*
X177973570Y-128247819D02*
X177878332Y-128390676D01*
X177878332Y-128390676D02*
X177783094Y-128485914D01*
X177783094Y-128485914D02*
X177687856Y-128533533D01*
X205054331Y-99206920D02*
X204720998Y-98730729D01*
X204482903Y-99206920D02*
X204482903Y-98206920D01*
X204482903Y-98206920D02*
X204863855Y-98206920D01*
X204863855Y-98206920D02*
X204959093Y-98254539D01*
X204959093Y-98254539D02*
X205006712Y-98302158D01*
X205006712Y-98302158D02*
X205054331Y-98397396D01*
X205054331Y-98397396D02*
X205054331Y-98540253D01*
X205054331Y-98540253D02*
X205006712Y-98635491D01*
X205006712Y-98635491D02*
X204959093Y-98683110D01*
X204959093Y-98683110D02*
X204863855Y-98730729D01*
X204863855Y-98730729D02*
X204482903Y-98730729D01*
X205387665Y-98206920D02*
X206006712Y-98206920D01*
X206006712Y-98206920D02*
X205673379Y-98587872D01*
X205673379Y-98587872D02*
X205816236Y-98587872D01*
X205816236Y-98587872D02*
X205911474Y-98635491D01*
X205911474Y-98635491D02*
X205959093Y-98683110D01*
X205959093Y-98683110D02*
X206006712Y-98778348D01*
X206006712Y-98778348D02*
X206006712Y-99016443D01*
X206006712Y-99016443D02*
X205959093Y-99111681D01*
X205959093Y-99111681D02*
X205911474Y-99159301D01*
X205911474Y-99159301D02*
X205816236Y-99206920D01*
X205816236Y-99206920D02*
X205530522Y-99206920D01*
X205530522Y-99206920D02*
X205435284Y-99159301D01*
X205435284Y-99159301D02*
X205387665Y-99111681D01*
X145177664Y-76121920D02*
X145177664Y-76836205D01*
X145177664Y-76836205D02*
X145130045Y-76979062D01*
X145130045Y-76979062D02*
X145034807Y-77074301D01*
X145034807Y-77074301D02*
X144891950Y-77121920D01*
X144891950Y-77121920D02*
X144796712Y-77121920D01*
X145558617Y-76121920D02*
X146177664Y-76121920D01*
X146177664Y-76121920D02*
X145844331Y-76502872D01*
X145844331Y-76502872D02*
X145987188Y-76502872D01*
X145987188Y-76502872D02*
X146082426Y-76550491D01*
X146082426Y-76550491D02*
X146130045Y-76598110D01*
X146130045Y-76598110D02*
X146177664Y-76693348D01*
X146177664Y-76693348D02*
X146177664Y-76931443D01*
X146177664Y-76931443D02*
X146130045Y-77026681D01*
X146130045Y-77026681D02*
X146082426Y-77074301D01*
X146082426Y-77074301D02*
X145987188Y-77121920D01*
X145987188Y-77121920D02*
X145701474Y-77121920D01*
X145701474Y-77121920D02*
X145606236Y-77074301D01*
X145606236Y-77074301D02*
X145558617Y-77026681D01*
X204762903Y-84646920D02*
X204762903Y-83646920D01*
X204762903Y-83646920D02*
X205000998Y-83646920D01*
X205000998Y-83646920D02*
X205143855Y-83694539D01*
X205143855Y-83694539D02*
X205239093Y-83789777D01*
X205239093Y-83789777D02*
X205286712Y-83885015D01*
X205286712Y-83885015D02*
X205334331Y-84075491D01*
X205334331Y-84075491D02*
X205334331Y-84218348D01*
X205334331Y-84218348D02*
X205286712Y-84408824D01*
X205286712Y-84408824D02*
X205239093Y-84504062D01*
X205239093Y-84504062D02*
X205143855Y-84599301D01*
X205143855Y-84599301D02*
X205000998Y-84646920D01*
X205000998Y-84646920D02*
X204762903Y-84646920D01*
X206286712Y-84646920D02*
X205715284Y-84646920D01*
X206000998Y-84646920D02*
X206000998Y-83646920D01*
X206000998Y-83646920D02*
X205905760Y-83789777D01*
X205905760Y-83789777D02*
X205810522Y-83885015D01*
X205810522Y-83885015D02*
X205715284Y-83932634D01*
X177201665Y-118764009D02*
X176868332Y-118764009D01*
X176868332Y-119287819D02*
X176868332Y-118287819D01*
X176868332Y-118287819D02*
X177344522Y-118287819D01*
X177677856Y-118383057D02*
X177725475Y-118335438D01*
X177725475Y-118335438D02*
X177820713Y-118287819D01*
X177820713Y-118287819D02*
X178058808Y-118287819D01*
X178058808Y-118287819D02*
X178154046Y-118335438D01*
X178154046Y-118335438D02*
X178201665Y-118383057D01*
X178201665Y-118383057D02*
X178249284Y-118478295D01*
X178249284Y-118478295D02*
X178249284Y-118573533D01*
X178249284Y-118573533D02*
X178201665Y-118716390D01*
X178201665Y-118716390D02*
X177630237Y-119287819D01*
X177630237Y-119287819D02*
X178249284Y-119287819D01*
X187704818Y-101966335D02*
X188419103Y-101966335D01*
X188419103Y-101966335D02*
X188561960Y-102013954D01*
X188561960Y-102013954D02*
X188657199Y-102109192D01*
X188657199Y-102109192D02*
X188704818Y-102252049D01*
X188704818Y-102252049D02*
X188704818Y-102347287D01*
X187800056Y-101537763D02*
X187752437Y-101490144D01*
X187752437Y-101490144D02*
X187704818Y-101394906D01*
X187704818Y-101394906D02*
X187704818Y-101156811D01*
X187704818Y-101156811D02*
X187752437Y-101061573D01*
X187752437Y-101061573D02*
X187800056Y-101013954D01*
X187800056Y-101013954D02*
X187895294Y-100966335D01*
X187895294Y-100966335D02*
X187990532Y-100966335D01*
X187990532Y-100966335D02*
X188133389Y-101013954D01*
X188133389Y-101013954D02*
X188704818Y-101585382D01*
X188704818Y-101585382D02*
X188704818Y-100966335D01*
X187800056Y-105871096D02*
X187752437Y-105823477D01*
X187752437Y-105823477D02*
X187704818Y-105728239D01*
X187704818Y-105728239D02*
X187704818Y-105490144D01*
X187704818Y-105490144D02*
X187752437Y-105394906D01*
X187752437Y-105394906D02*
X187800056Y-105347287D01*
X187800056Y-105347287D02*
X187895294Y-105299668D01*
X187895294Y-105299668D02*
X187990532Y-105299668D01*
X187990532Y-105299668D02*
X188133389Y-105347287D01*
X188133389Y-105347287D02*
X188704818Y-105918715D01*
X188704818Y-105918715D02*
X188704818Y-105299668D01*
X187704818Y-104442525D02*
X187704818Y-104633001D01*
X187704818Y-104633001D02*
X187752437Y-104728239D01*
X187752437Y-104728239D02*
X187800056Y-104775858D01*
X187800056Y-104775858D02*
X187942913Y-104871096D01*
X187942913Y-104871096D02*
X188133389Y-104918715D01*
X188133389Y-104918715D02*
X188514341Y-104918715D01*
X188514341Y-104918715D02*
X188609579Y-104871096D01*
X188609579Y-104871096D02*
X188657199Y-104823477D01*
X188657199Y-104823477D02*
X188704818Y-104728239D01*
X188704818Y-104728239D02*
X188704818Y-104537763D01*
X188704818Y-104537763D02*
X188657199Y-104442525D01*
X188657199Y-104442525D02*
X188609579Y-104394906D01*
X188609579Y-104394906D02*
X188514341Y-104347287D01*
X188514341Y-104347287D02*
X188276246Y-104347287D01*
X188276246Y-104347287D02*
X188181008Y-104394906D01*
X188181008Y-104394906D02*
X188133389Y-104442525D01*
X188133389Y-104442525D02*
X188085770Y-104537763D01*
X188085770Y-104537763D02*
X188085770Y-104728239D01*
X188085770Y-104728239D02*
X188133389Y-104823477D01*
X188133389Y-104823477D02*
X188181008Y-104871096D01*
X188181008Y-104871096D02*
X188276246Y-104918715D01*
X187704818Y-103728239D02*
X187704818Y-103633001D01*
X187704818Y-103633001D02*
X187752437Y-103537763D01*
X187752437Y-103537763D02*
X187800056Y-103490144D01*
X187800056Y-103490144D02*
X187895294Y-103442525D01*
X187895294Y-103442525D02*
X188085770Y-103394906D01*
X188085770Y-103394906D02*
X188323865Y-103394906D01*
X188323865Y-103394906D02*
X188514341Y-103442525D01*
X188514341Y-103442525D02*
X188609579Y-103490144D01*
X188609579Y-103490144D02*
X188657199Y-103537763D01*
X188657199Y-103537763D02*
X188704818Y-103633001D01*
X188704818Y-103633001D02*
X188704818Y-103728239D01*
X188704818Y-103728239D02*
X188657199Y-103823477D01*
X188657199Y-103823477D02*
X188609579Y-103871096D01*
X188609579Y-103871096D02*
X188514341Y-103918715D01*
X188514341Y-103918715D02*
X188323865Y-103966334D01*
X188323865Y-103966334D02*
X188085770Y-103966334D01*
X188085770Y-103966334D02*
X187895294Y-103918715D01*
X187895294Y-103918715D02*
X187800056Y-103871096D01*
X187800056Y-103871096D02*
X187752437Y-103823477D01*
X187752437Y-103823477D02*
X187704818Y-103728239D01*
X188038151Y-102537763D02*
X188704818Y-102537763D01*
X187657199Y-102775858D02*
X188371484Y-103013953D01*
X188371484Y-103013953D02*
X188371484Y-102394906D01*
X188323865Y-102013953D02*
X188323865Y-101252049D01*
X188704818Y-100252049D02*
X188704818Y-100823477D01*
X188704818Y-100537763D02*
X187704818Y-100537763D01*
X187704818Y-100537763D02*
X187847675Y-100633001D01*
X187847675Y-100633001D02*
X187942913Y-100728239D01*
X187942913Y-100728239D02*
X187990532Y-100823477D01*
X188704818Y-99299668D02*
X188704818Y-99871096D01*
X188704818Y-99585382D02*
X187704818Y-99585382D01*
X187704818Y-99585382D02*
X187847675Y-99680620D01*
X187847675Y-99680620D02*
X187942913Y-99775858D01*
X187942913Y-99775858D02*
X187990532Y-99871096D01*
X188704818Y-98347287D02*
X188704818Y-98918715D01*
X188704818Y-98633001D02*
X187704818Y-98633001D01*
X187704818Y-98633001D02*
X187847675Y-98728239D01*
X187847675Y-98728239D02*
X187942913Y-98823477D01*
X187942913Y-98823477D02*
X187990532Y-98918715D01*
X187704818Y-97728239D02*
X187704818Y-97633001D01*
X187704818Y-97633001D02*
X187752437Y-97537763D01*
X187752437Y-97537763D02*
X187800056Y-97490144D01*
X187800056Y-97490144D02*
X187895294Y-97442525D01*
X187895294Y-97442525D02*
X188085770Y-97394906D01*
X188085770Y-97394906D02*
X188323865Y-97394906D01*
X188323865Y-97394906D02*
X188514341Y-97442525D01*
X188514341Y-97442525D02*
X188609579Y-97490144D01*
X188609579Y-97490144D02*
X188657199Y-97537763D01*
X188657199Y-97537763D02*
X188704818Y-97633001D01*
X188704818Y-97633001D02*
X188704818Y-97728239D01*
X188704818Y-97728239D02*
X188657199Y-97823477D01*
X188657199Y-97823477D02*
X188609579Y-97871096D01*
X188609579Y-97871096D02*
X188514341Y-97918715D01*
X188514341Y-97918715D02*
X188323865Y-97966334D01*
X188323865Y-97966334D02*
X188085770Y-97966334D01*
X188085770Y-97966334D02*
X187895294Y-97918715D01*
X187895294Y-97918715D02*
X187800056Y-97871096D01*
X187800056Y-97871096D02*
X187752437Y-97823477D01*
X187752437Y-97823477D02*
X187704818Y-97728239D01*
X204772903Y-124676920D02*
X204772903Y-123676920D01*
X204772903Y-123676920D02*
X205010998Y-123676920D01*
X205010998Y-123676920D02*
X205153855Y-123724539D01*
X205153855Y-123724539D02*
X205249093Y-123819777D01*
X205249093Y-123819777D02*
X205296712Y-123915015D01*
X205296712Y-123915015D02*
X205344331Y-124105491D01*
X205344331Y-124105491D02*
X205344331Y-124248348D01*
X205344331Y-124248348D02*
X205296712Y-124438824D01*
X205296712Y-124438824D02*
X205249093Y-124534062D01*
X205249093Y-124534062D02*
X205153855Y-124629301D01*
X205153855Y-124629301D02*
X205010998Y-124676920D01*
X205010998Y-124676920D02*
X204772903Y-124676920D01*
X206249093Y-123676920D02*
X205772903Y-123676920D01*
X205772903Y-123676920D02*
X205725284Y-124153110D01*
X205725284Y-124153110D02*
X205772903Y-124105491D01*
X205772903Y-124105491D02*
X205868141Y-124057872D01*
X205868141Y-124057872D02*
X206106236Y-124057872D01*
X206106236Y-124057872D02*
X206201474Y-124105491D01*
X206201474Y-124105491D02*
X206249093Y-124153110D01*
X206249093Y-124153110D02*
X206296712Y-124248348D01*
X206296712Y-124248348D02*
X206296712Y-124486443D01*
X206296712Y-124486443D02*
X206249093Y-124581681D01*
X206249093Y-124581681D02*
X206201474Y-124629301D01*
X206201474Y-124629301D02*
X206106236Y-124676920D01*
X206106236Y-124676920D02*
X205868141Y-124676920D01*
X205868141Y-124676920D02*
X205772903Y-124629301D01*
X205772903Y-124629301D02*
X205725284Y-124581681D01*
X204832903Y-104626920D02*
X204832903Y-103626920D01*
X204832903Y-103626920D02*
X205070998Y-103626920D01*
X205070998Y-103626920D02*
X205213855Y-103674539D01*
X205213855Y-103674539D02*
X205309093Y-103769777D01*
X205309093Y-103769777D02*
X205356712Y-103865015D01*
X205356712Y-103865015D02*
X205404331Y-104055491D01*
X205404331Y-104055491D02*
X205404331Y-104198348D01*
X205404331Y-104198348D02*
X205356712Y-104388824D01*
X205356712Y-104388824D02*
X205309093Y-104484062D01*
X205309093Y-104484062D02*
X205213855Y-104579301D01*
X205213855Y-104579301D02*
X205070998Y-104626920D01*
X205070998Y-104626920D02*
X204832903Y-104626920D01*
X205737665Y-103626920D02*
X206356712Y-103626920D01*
X206356712Y-103626920D02*
X206023379Y-104007872D01*
X206023379Y-104007872D02*
X206166236Y-104007872D01*
X206166236Y-104007872D02*
X206261474Y-104055491D01*
X206261474Y-104055491D02*
X206309093Y-104103110D01*
X206309093Y-104103110D02*
X206356712Y-104198348D01*
X206356712Y-104198348D02*
X206356712Y-104436443D01*
X206356712Y-104436443D02*
X206309093Y-104531681D01*
X206309093Y-104531681D02*
X206261474Y-104579301D01*
X206261474Y-104579301D02*
X206166236Y-104626920D01*
X206166236Y-104626920D02*
X205880522Y-104626920D01*
X205880522Y-104626920D02*
X205785284Y-104579301D01*
X205785284Y-104579301D02*
X205737665Y-104531681D01*
X177161665Y-88744009D02*
X176828332Y-88744009D01*
X176828332Y-89267819D02*
X176828332Y-88267819D01*
X176828332Y-88267819D02*
X177304522Y-88267819D01*
X178161665Y-88267819D02*
X177685475Y-88267819D01*
X177685475Y-88267819D02*
X177637856Y-88744009D01*
X177637856Y-88744009D02*
X177685475Y-88696390D01*
X177685475Y-88696390D02*
X177780713Y-88648771D01*
X177780713Y-88648771D02*
X178018808Y-88648771D01*
X178018808Y-88648771D02*
X178114046Y-88696390D01*
X178114046Y-88696390D02*
X178161665Y-88744009D01*
X178161665Y-88744009D02*
X178209284Y-88839247D01*
X178209284Y-88839247D02*
X178209284Y-89077342D01*
X178209284Y-89077342D02*
X178161665Y-89172580D01*
X178161665Y-89172580D02*
X178114046Y-89220200D01*
X178114046Y-89220200D02*
X178018808Y-89267819D01*
X178018808Y-89267819D02*
X177780713Y-89267819D01*
X177780713Y-89267819D02*
X177685475Y-89220200D01*
X177685475Y-89220200D02*
X177637856Y-89172580D01*
X177131665Y-108704009D02*
X176798332Y-108704009D01*
X176798332Y-109227819D02*
X176798332Y-108227819D01*
X176798332Y-108227819D02*
X177274522Y-108227819D01*
X177560237Y-108227819D02*
X178179284Y-108227819D01*
X178179284Y-108227819D02*
X177845951Y-108608771D01*
X177845951Y-108608771D02*
X177988808Y-108608771D01*
X177988808Y-108608771D02*
X178084046Y-108656390D01*
X178084046Y-108656390D02*
X178131665Y-108704009D01*
X178131665Y-108704009D02*
X178179284Y-108799247D01*
X178179284Y-108799247D02*
X178179284Y-109037342D01*
X178179284Y-109037342D02*
X178131665Y-109132580D01*
X178131665Y-109132580D02*
X178084046Y-109180200D01*
X178084046Y-109180200D02*
X177988808Y-109227819D01*
X177988808Y-109227819D02*
X177703094Y-109227819D01*
X177703094Y-109227819D02*
X177607856Y-109180200D01*
X177607856Y-109180200D02*
X177560237Y-109132580D01*
X205076831Y-109206920D02*
X204743498Y-108730729D01*
X204505403Y-109206920D02*
X204505403Y-108206920D01*
X204505403Y-108206920D02*
X204886355Y-108206920D01*
X204886355Y-108206920D02*
X204981593Y-108254539D01*
X204981593Y-108254539D02*
X205029212Y-108302158D01*
X205029212Y-108302158D02*
X205076831Y-108397396D01*
X205076831Y-108397396D02*
X205076831Y-108540253D01*
X205076831Y-108540253D02*
X205029212Y-108635491D01*
X205029212Y-108635491D02*
X204981593Y-108683110D01*
X204981593Y-108683110D02*
X204886355Y-108730729D01*
X204886355Y-108730729D02*
X204505403Y-108730729D01*
X205933974Y-108540253D02*
X205933974Y-109206920D01*
X205695879Y-108159301D02*
X205457784Y-108873586D01*
X205457784Y-108873586D02*
X206076831Y-108873586D01*
X177201665Y-98714009D02*
X176868332Y-98714009D01*
X176868332Y-99237819D02*
X176868332Y-98237819D01*
X176868332Y-98237819D02*
X177344522Y-98237819D01*
X178154046Y-98571152D02*
X178154046Y-99237819D01*
X177915951Y-98190200D02*
X177677856Y-98904485D01*
X177677856Y-98904485D02*
X178296903Y-98904485D01*
X145812664Y-128826920D02*
X145812664Y-129541205D01*
X145812664Y-129541205D02*
X145765045Y-129684062D01*
X145765045Y-129684062D02*
X145669807Y-129779301D01*
X145669807Y-129779301D02*
X145526950Y-129826920D01*
X145526950Y-129826920D02*
X145431712Y-129826920D01*
X146812664Y-129826920D02*
X146241236Y-129826920D01*
X146526950Y-129826920D02*
X146526950Y-128826920D01*
X146526950Y-128826920D02*
X146431712Y-128969777D01*
X146431712Y-128969777D02*
X146336474Y-129065015D01*
X146336474Y-129065015D02*
X146241236Y-129112634D01*
D18*
%TO.C,R1*%
X205948062Y-76022101D02*
X204493934Y-76022101D01*
X205948062Y-77842101D02*
X204493934Y-77842101D01*
%TO.C,R2*%
X205948062Y-86022101D02*
X204493934Y-86022101D01*
X205948062Y-87842101D02*
X204493934Y-87842101D01*
%TO.C,R5*%
X205970562Y-116022101D02*
X204516434Y-116022101D01*
X205970562Y-117842101D02*
X204516434Y-117842101D01*
%TO.C,D2*%
X203580998Y-93067101D02*
X207640998Y-93067101D01*
X207640998Y-90797101D02*
X203580998Y-90797101D01*
X207640998Y-93067101D02*
X207640998Y-90797101D01*
%TO.C,D4*%
X203620998Y-113067101D02*
X207680998Y-113067101D01*
X207680998Y-110797101D02*
X203620998Y-110797101D01*
X207680998Y-113067101D02*
X207680998Y-110797101D01*
D19*
%TO.C,F1*%
X164469999Y-121043000D02*
X180469999Y-121043000D01*
X164469999Y-127773000D02*
X164469999Y-121043000D01*
X180469999Y-121043000D02*
X180469999Y-127773000D01*
X180469999Y-127773000D02*
X164469999Y-127773000D01*
D18*
%TO.C,R3*%
X205948062Y-96022101D02*
X204493934Y-96022101D01*
X205948062Y-97842101D02*
X204493934Y-97842101D01*
D20*
%TO.C,J3*%
X145218898Y-77721202D02*
X145218898Y-102283001D01*
X145218898Y-102283001D02*
X163583098Y-102283001D01*
D21*
X155924998Y-97114101D02*
X156432998Y-97622101D01*
X156432998Y-97622101D02*
X156940998Y-97114101D01*
X156940998Y-97114101D02*
X155924998Y-97114101D01*
D20*
X163583098Y-77721202D02*
X145218898Y-77721202D01*
X163583098Y-102283001D02*
X163583098Y-77721202D01*
D18*
%TO.C,D1*%
X203580998Y-83067101D02*
X207640998Y-83067101D01*
X207640998Y-80797101D02*
X203580998Y-80797101D01*
X207640998Y-83067101D02*
X207640998Y-80797101D01*
D19*
%TO.C,F2*%
X164459999Y-111083000D02*
X180459999Y-111083000D01*
X164459999Y-117813000D02*
X164459999Y-111083000D01*
X180459999Y-111083000D02*
X180459999Y-117813000D01*
X180459999Y-117813000D02*
X164459999Y-117813000D01*
D20*
%TO.C,J2*%
X181123000Y-75128102D02*
X181123000Y-128137902D01*
X181123000Y-128137902D02*
X197450000Y-128137902D01*
X197450000Y-75128102D02*
X181123000Y-75128102D01*
X184531000Y-129915902D02*
G75*
G02*
X183769000Y-129915902I-381000J0D01*
G01*
X183769000Y-129915902D02*
G75*
G02*
X184531000Y-129915902I381000J0D01*
G01*
D18*
%TO.C,D5*%
X203640998Y-123067101D02*
X207700998Y-123067101D01*
X207700998Y-120797101D02*
X203640998Y-120797101D01*
X207700998Y-123067101D02*
X207700998Y-120797101D01*
%TO.C,D3*%
X203620998Y-103067101D02*
X207680998Y-103067101D01*
X207680998Y-100797101D02*
X203620998Y-100797101D01*
X207680998Y-103067101D02*
X207680998Y-100797101D01*
D19*
%TO.C,F5*%
X164419999Y-81063000D02*
X180419999Y-81063000D01*
X164419999Y-87793000D02*
X164419999Y-81063000D01*
X180419999Y-81063000D02*
X180419999Y-87793000D01*
X180419999Y-87793000D02*
X164419999Y-87793000D01*
%TO.C,F3*%
X164389999Y-101023000D02*
X180389999Y-101023000D01*
X164389999Y-107753000D02*
X164389999Y-101023000D01*
X180389999Y-101023000D02*
X180389999Y-107753000D01*
X180389999Y-107753000D02*
X164389999Y-107753000D01*
D18*
%TO.C,R4*%
X205970562Y-106022101D02*
X204516434Y-106022101D01*
X205970562Y-107842101D02*
X204516434Y-107842101D01*
D19*
%TO.C,F4*%
X164459999Y-91033000D02*
X180459999Y-91033000D01*
X164459999Y-97763000D02*
X164459999Y-91033000D01*
X180459999Y-91033000D02*
X180459999Y-97763000D01*
X180459999Y-97763000D02*
X164459999Y-97763000D01*
D20*
%TO.C,J1*%
X145235298Y-103216700D02*
X145235298Y-127778499D01*
X145235298Y-127778499D02*
X163599498Y-127778499D01*
D21*
X151860998Y-108290101D02*
X152876998Y-108290101D01*
X152368998Y-107782101D02*
X151860998Y-108290101D01*
X152876998Y-108290101D02*
X152368998Y-107782101D01*
D20*
X163599498Y-103216700D02*
X145235298Y-103216700D01*
X163599498Y-127778499D02*
X163599498Y-103216700D01*
%TD*%
M02*
