%TF.GenerationSoftware,KiCad,Pcbnew,8.0.5-8.0.5-0~ubuntu22.04.1*%
%TF.CreationDate,2024-09-14T12:25:02-07:00*%
%TF.ProjectId,IMU-2X,494d552d-3258-42e6-9b69-6361645f7063,2*%
%TF.SameCoordinates,Original*%
%TF.FileFunction,Soldermask,Bot*%
%TF.FilePolarity,Negative*%
%FSLAX46Y46*%
G04 Gerber Fmt 4.6, Leading zero omitted, Abs format (unit mm)*
G04 Created by KiCad (PCBNEW 8.0.5-8.0.5-0~ubuntu22.04.1) date 2024-09-14 12:25:02*
%MOMM*%
%LPD*%
G01*
G04 APERTURE LIST*
G04 Aperture macros list*
%AMRoundRect*
0 Rectangle with rounded corners*
0 $1 Rounding radius*
0 $2 $3 $4 $5 $6 $7 $8 $9 X,Y pos of 4 corners*
0 Add a 4 corners polygon primitive as box body*
4,1,4,$2,$3,$4,$5,$6,$7,$8,$9,$2,$3,0*
0 Add four circle primitives for the rounded corners*
1,1,$1+$1,$2,$3*
1,1,$1+$1,$4,$5*
1,1,$1+$1,$6,$7*
1,1,$1+$1,$8,$9*
0 Add four rect primitives between the rounded corners*
20,1,$1+$1,$2,$3,$4,$5,0*
20,1,$1+$1,$4,$5,$6,$7,0*
20,1,$1+$1,$6,$7,$8,$9,0*
20,1,$1+$1,$8,$9,$2,$3,0*%
G04 Aperture macros list end*
%ADD10C,0.300000*%
%ADD11C,3.403600*%
%ADD12R,1.905000X1.600200*%
%ADD13O,1.905000X1.600200*%
%ADD14C,2.200000*%
%ADD15R,1.600200X1.905000*%
%ADD16O,1.600200X1.905000*%
%ADD17C,3.200000*%
%ADD18R,1.400000X1.400000*%
%ADD19C,1.400000*%
%ADD20C,3.429000*%
%ADD21R,2.000000X2.000000*%
%ADD22C,2.000000*%
%ADD23RoundRect,0.225000X-0.250000X0.225000X-0.250000X-0.225000X0.250000X-0.225000X0.250000X0.225000X0*%
%ADD24RoundRect,0.225000X0.225000X0.250000X-0.225000X0.250000X-0.225000X-0.250000X0.225000X-0.250000X0*%
%ADD25RoundRect,0.150000X0.725000X0.150000X-0.725000X0.150000X-0.725000X-0.150000X0.725000X-0.150000X0*%
%ADD26RoundRect,0.250000X0.450000X-0.262500X0.450000X0.262500X-0.450000X0.262500X-0.450000X-0.262500X0*%
%ADD27RoundRect,0.225000X-0.225000X-0.250000X0.225000X-0.250000X0.225000X0.250000X-0.225000X0.250000X0*%
%ADD28RoundRect,0.250000X-0.650000X0.325000X-0.650000X-0.325000X0.650000X-0.325000X0.650000X0.325000X0*%
%ADD29RoundRect,0.200000X0.200000X0.275000X-0.200000X0.275000X-0.200000X-0.275000X0.200000X-0.275000X0*%
%ADD30RoundRect,0.200000X0.275000X-0.200000X0.275000X0.200000X-0.275000X0.200000X-0.275000X-0.200000X0*%
%ADD31RoundRect,0.250000X-0.450000X0.262500X-0.450000X-0.262500X0.450000X-0.262500X0.450000X0.262500X0*%
%ADD32RoundRect,0.200000X-0.200000X-0.275000X0.200000X-0.275000X0.200000X0.275000X-0.200000X0.275000X0*%
%ADD33RoundRect,0.250000X-0.262500X-0.450000X0.262500X-0.450000X0.262500X0.450000X-0.262500X0.450000X0*%
%ADD34RoundRect,0.225000X0.250000X-0.225000X0.250000X0.225000X-0.250000X0.225000X-0.250000X-0.225000X0*%
%ADD35RoundRect,0.200000X-0.275000X0.200000X-0.275000X-0.200000X0.275000X-0.200000X0.275000X0.200000X0*%
%ADD36RoundRect,0.150000X0.587500X0.150000X-0.587500X0.150000X-0.587500X-0.150000X0.587500X-0.150000X0*%
%ADD37RoundRect,0.050000X-0.175000X-0.125000X0.175000X-0.125000X0.175000X0.125000X-0.175000X0.125000X0*%
%ADD38RoundRect,0.050000X-0.125000X-0.175000X0.125000X-0.175000X0.125000X0.175000X-0.125000X0.175000X0*%
%ADD39RoundRect,0.250000X-1.100000X0.325000X-1.100000X-0.325000X1.100000X-0.325000X1.100000X0.325000X0*%
G04 APERTURE END LIST*
D10*
G36*
X214465007Y-105193217D02*
G01*
X214558543Y-105206873D01*
X214643089Y-105230282D01*
X214666699Y-105239207D01*
X214750994Y-105280754D01*
X214822328Y-105334998D01*
X214852130Y-105368184D01*
X214902091Y-105441109D01*
X214940720Y-105521913D01*
X214963926Y-105610208D01*
X214968513Y-105669563D01*
X214958980Y-105760022D01*
X214927394Y-105845897D01*
X214910755Y-105873667D01*
X214851352Y-105943385D01*
X214781046Y-106002154D01*
X214718377Y-106044767D01*
X214805575Y-106102402D01*
X214877994Y-106164299D01*
X214935634Y-106230459D01*
X214985292Y-106315476D01*
X215013669Y-106406631D01*
X215021058Y-106487281D01*
X215013459Y-106576305D01*
X214990660Y-106662724D01*
X214954553Y-106741731D01*
X214906391Y-106814782D01*
X214894253Y-106830350D01*
X214829656Y-106892014D01*
X214750563Y-106939393D01*
X214695795Y-106962800D01*
X214608094Y-106989136D01*
X214520751Y-107004498D01*
X214425439Y-107011960D01*
X214380519Y-107012741D01*
X213560195Y-107012741D01*
X213560195Y-106700071D01*
X213935399Y-106700071D01*
X214383125Y-106700071D01*
X214477430Y-106691811D01*
X214562792Y-106661297D01*
X214627830Y-106598892D01*
X214658181Y-106507120D01*
X214660620Y-106465134D01*
X214647341Y-106372407D01*
X214599647Y-106294321D01*
X214517265Y-106245982D01*
X214416728Y-106228087D01*
X214383125Y-106227157D01*
X213935399Y-106227157D01*
X213935399Y-106700071D01*
X213560195Y-106700071D01*
X213560195Y-105914487D01*
X213935399Y-105914487D01*
X214343173Y-105914487D01*
X214433198Y-105907281D01*
X214524257Y-105875254D01*
X214587120Y-105808598D01*
X214607815Y-105722126D01*
X214608074Y-105709515D01*
X214591517Y-105618699D01*
X214533312Y-105547547D01*
X214446391Y-105511870D01*
X214359470Y-105502140D01*
X214343173Y-105501937D01*
X213935399Y-105501937D01*
X213935399Y-105914487D01*
X213560195Y-105914487D01*
X213560195Y-105189267D01*
X214373137Y-105189267D01*
X214465007Y-105193217D01*
G37*
G36*
X216182721Y-105163469D02*
G01*
X216274371Y-105175968D01*
X216361258Y-105196799D01*
X216443381Y-105225962D01*
X216539337Y-105274134D01*
X216627850Y-105335325D01*
X216693301Y-105393652D01*
X216724241Y-105425941D01*
X216781136Y-105495131D01*
X216830446Y-105569601D01*
X216872169Y-105649349D01*
X216906306Y-105734376D01*
X216932857Y-105824683D01*
X216951822Y-105920269D01*
X216963201Y-106021133D01*
X216966994Y-106127277D01*
X216963263Y-106226438D01*
X216952067Y-106321338D01*
X216933407Y-106411977D01*
X216907283Y-106498355D01*
X216873696Y-106580472D01*
X216832644Y-106658327D01*
X216784129Y-106731921D01*
X216728149Y-106801254D01*
X216665914Y-106864256D01*
X216581020Y-106931196D01*
X216488239Y-106985010D01*
X216387570Y-107025699D01*
X216301355Y-107048800D01*
X216210091Y-107063501D01*
X216113780Y-107069801D01*
X216088913Y-107070063D01*
X215991930Y-107065884D01*
X215899873Y-107053344D01*
X215812742Y-107032445D01*
X215730537Y-107003187D01*
X215634708Y-106954858D01*
X215546577Y-106893467D01*
X215481614Y-106834950D01*
X215450980Y-106802557D01*
X215394695Y-106733292D01*
X215345915Y-106659250D01*
X215304640Y-106580431D01*
X215270869Y-106496835D01*
X215244603Y-106408462D01*
X215225841Y-106315313D01*
X215214584Y-106217386D01*
X215210848Y-106115117D01*
X215586036Y-106115117D01*
X215589397Y-106202178D01*
X215602302Y-106299317D01*
X215624887Y-106388457D01*
X215657152Y-106469596D01*
X215707027Y-106554148D01*
X215723697Y-106576305D01*
X215788226Y-106643989D01*
X215861357Y-106695049D01*
X215943092Y-106729485D01*
X216033429Y-106747297D01*
X216088913Y-106750011D01*
X216183362Y-106741761D01*
X216269499Y-106717012D01*
X216347324Y-106675763D01*
X216416837Y-106618015D01*
X216452826Y-106577608D01*
X216506973Y-106496859D01*
X216547821Y-106405845D01*
X216572249Y-106319662D01*
X216586905Y-106225938D01*
X216591791Y-106124671D01*
X216588461Y-106035452D01*
X216575678Y-105936114D01*
X216553306Y-105845204D01*
X216521347Y-105762721D01*
X216471944Y-105677142D01*
X216455432Y-105654798D01*
X216391286Y-105586437D01*
X216318164Y-105534866D01*
X216236064Y-105500086D01*
X216144987Y-105482096D01*
X216088913Y-105479355D01*
X215993660Y-105487688D01*
X215907009Y-105512687D01*
X215828962Y-105554351D01*
X215759517Y-105612681D01*
X215723697Y-105653495D01*
X215670058Y-105734956D01*
X215629593Y-105827348D01*
X215605394Y-105915241D01*
X215590875Y-106011164D01*
X215586036Y-106115117D01*
X215210848Y-106115117D01*
X215210832Y-106114683D01*
X215214604Y-106011980D01*
X215225922Y-105914053D01*
X215244786Y-105820904D01*
X215271194Y-105732531D01*
X215305148Y-105648935D01*
X215346648Y-105570116D01*
X215395692Y-105496074D01*
X215452282Y-105426809D01*
X215515006Y-105364112D01*
X215600053Y-105297497D01*
X215692478Y-105243943D01*
X215792282Y-105203452D01*
X215877439Y-105180463D01*
X215967318Y-105165834D01*
X216061919Y-105159564D01*
X216086308Y-105159303D01*
X216182721Y-105163469D01*
G37*
G36*
X218059602Y-105501937D02*
G01*
X218059602Y-107012741D01*
X217684398Y-107012741D01*
X217684398Y-105501937D01*
X217131580Y-105501937D01*
X217131580Y-105189267D01*
X218592444Y-105189267D01*
X218592444Y-105501937D01*
X218059602Y-105501937D01*
G37*
G36*
X219661167Y-105501937D02*
G01*
X219661167Y-107012741D01*
X219285963Y-107012741D01*
X219285963Y-105501937D01*
X218733145Y-105501937D01*
X218733145Y-105189267D01*
X220194009Y-105189267D01*
X220194009Y-105501937D01*
X219661167Y-105501937D01*
G37*
G36*
X221331352Y-105163469D02*
G01*
X221423002Y-105175968D01*
X221509889Y-105196799D01*
X221592012Y-105225962D01*
X221687968Y-105274134D01*
X221776481Y-105335325D01*
X221841933Y-105393652D01*
X221872872Y-105425941D01*
X221929768Y-105495131D01*
X221979077Y-105569601D01*
X222020800Y-105649349D01*
X222054938Y-105734376D01*
X222081489Y-105824683D01*
X222100454Y-105920269D01*
X222111833Y-106021133D01*
X222115626Y-106127277D01*
X222111894Y-106226438D01*
X222100698Y-106321338D01*
X222082038Y-106411977D01*
X222055915Y-106498355D01*
X222022327Y-106580472D01*
X221981276Y-106658327D01*
X221932760Y-106731921D01*
X221876781Y-106801254D01*
X221814545Y-106864256D01*
X221729652Y-106931196D01*
X221636870Y-106985010D01*
X221536201Y-107025699D01*
X221449986Y-107048800D01*
X221358723Y-107063501D01*
X221262411Y-107069801D01*
X221237545Y-107070063D01*
X221140561Y-107065884D01*
X221048504Y-107053344D01*
X220961373Y-107032445D01*
X220879168Y-107003187D01*
X220783340Y-106954858D01*
X220695208Y-106893467D01*
X220630245Y-106834950D01*
X220599611Y-106802557D01*
X220543326Y-106733292D01*
X220494546Y-106659250D01*
X220453271Y-106580431D01*
X220419500Y-106496835D01*
X220393234Y-106408462D01*
X220374472Y-106315313D01*
X220363215Y-106217386D01*
X220359479Y-106115117D01*
X220734667Y-106115117D01*
X220738028Y-106202178D01*
X220750934Y-106299317D01*
X220773519Y-106388457D01*
X220805783Y-106469596D01*
X220855659Y-106554148D01*
X220872329Y-106576305D01*
X220936857Y-106643989D01*
X221009989Y-106695049D01*
X221091723Y-106729485D01*
X221182061Y-106747297D01*
X221237545Y-106750011D01*
X221331993Y-106741761D01*
X221418130Y-106717012D01*
X221495955Y-106675763D01*
X221565468Y-106618015D01*
X221601458Y-106577608D01*
X221655605Y-106496859D01*
X221696453Y-106405845D01*
X221720880Y-106319662D01*
X221735537Y-106225938D01*
X221740422Y-106124671D01*
X221737093Y-106035452D01*
X221724309Y-105936114D01*
X221701938Y-105845204D01*
X221669979Y-105762721D01*
X221620575Y-105677142D01*
X221604063Y-105654798D01*
X221539918Y-105586437D01*
X221466795Y-105534866D01*
X221384695Y-105500086D01*
X221293619Y-105482096D01*
X221237545Y-105479355D01*
X221142291Y-105487688D01*
X221055641Y-105512687D01*
X220977593Y-105554351D01*
X220908149Y-105612681D01*
X220872329Y-105653495D01*
X220818689Y-105734956D01*
X220778224Y-105827348D01*
X220754026Y-105915241D01*
X220739507Y-106011164D01*
X220734667Y-106115117D01*
X220359479Y-106115117D01*
X220359463Y-106114683D01*
X220363236Y-106011980D01*
X220374554Y-105914053D01*
X220393417Y-105820904D01*
X220419826Y-105732531D01*
X220453780Y-105648935D01*
X220495279Y-105570116D01*
X220544324Y-105496074D01*
X220600914Y-105426809D01*
X220663638Y-105364112D01*
X220748684Y-105297497D01*
X220841109Y-105243943D01*
X220940914Y-105203452D01*
X221026070Y-105180463D01*
X221115949Y-105165834D01*
X221210551Y-105159564D01*
X221234939Y-105159303D01*
X221331352Y-105163469D01*
G37*
G36*
X222780484Y-105591829D02*
G01*
X222780484Y-107012741D01*
X222405280Y-107012741D01*
X222405280Y-105189267D01*
X222965480Y-105189267D01*
X223295521Y-106640142D01*
X223616007Y-105189267D01*
X224180984Y-105189267D01*
X224180984Y-107012741D01*
X223805781Y-107012741D01*
X223805781Y-105591829D01*
X223483123Y-107012741D01*
X223107919Y-107012741D01*
X222780484Y-105591829D01*
G37*
G36*
X225636202Y-105591829D02*
G01*
X225636202Y-107012741D01*
X225260998Y-107012741D01*
X225260998Y-105189267D01*
X225821199Y-105189267D01*
X226151239Y-106640142D01*
X226471726Y-105189267D01*
X227036703Y-105189267D01*
X227036703Y-107012741D01*
X226661499Y-107012741D01*
X226661499Y-105591829D01*
X226338841Y-107012741D01*
X225963637Y-107012741D01*
X225636202Y-105591829D01*
G37*
G36*
X228943555Y-107012741D02*
G01*
X228558363Y-107012741D01*
X228438507Y-106644919D01*
X227755410Y-106644919D01*
X227632947Y-107012741D01*
X227250361Y-107012741D01*
X227491993Y-106332249D01*
X227860501Y-106332249D01*
X228335586Y-106332249D01*
X228098044Y-105619622D01*
X227860501Y-106332249D01*
X227491993Y-106332249D01*
X227897848Y-105189267D01*
X228313439Y-105189267D01*
X228943555Y-107012741D01*
G37*
G36*
X230496917Y-105744690D02*
G01*
X230146900Y-105744690D01*
X230127363Y-105647729D01*
X230083735Y-105570829D01*
X230016016Y-105513989D01*
X229924204Y-105477211D01*
X229829292Y-105461887D01*
X229764314Y-105459379D01*
X229671677Y-105466614D01*
X229586772Y-105491011D01*
X229534154Y-105520610D01*
X229473060Y-105587079D01*
X229449371Y-105671678D01*
X229449038Y-105684328D01*
X229467169Y-105771723D01*
X229521560Y-105833280D01*
X229601556Y-105871436D01*
X229691767Y-105898934D01*
X229781891Y-105919772D01*
X229794278Y-105922304D01*
X230079155Y-105977021D01*
X230169094Y-105998324D01*
X230261788Y-106029275D01*
X230341308Y-106066792D01*
X230416056Y-106117709D01*
X230446977Y-106146384D01*
X230502606Y-106220697D01*
X230540029Y-106310261D01*
X230558011Y-106402678D01*
X230562056Y-106479899D01*
X230555110Y-106579700D01*
X230534270Y-106670982D01*
X230499538Y-106753745D01*
X230450912Y-106827988D01*
X230388393Y-106893713D01*
X230364466Y-106913728D01*
X230284920Y-106966858D01*
X230194473Y-107008995D01*
X230110773Y-107035712D01*
X230019503Y-107054796D01*
X229920664Y-107066247D01*
X229814254Y-107070063D01*
X229708680Y-107066278D01*
X229610719Y-107054923D01*
X229520369Y-107035999D01*
X229437632Y-107009504D01*
X229348396Y-106967718D01*
X229270122Y-106915031D01*
X229203674Y-106852054D01*
X229149593Y-106779398D01*
X229107878Y-106697063D01*
X229078530Y-106605048D01*
X229061548Y-106503354D01*
X229058635Y-106467305D01*
X229423851Y-106467305D01*
X229439381Y-106552758D01*
X229477918Y-106630985D01*
X229538931Y-106692688D01*
X229621239Y-106736697D01*
X229713520Y-106760853D01*
X229810787Y-106769685D01*
X229834230Y-106769987D01*
X229924318Y-106764869D01*
X230011119Y-106747176D01*
X230096809Y-106709263D01*
X230103040Y-106705282D01*
X230167146Y-106644114D01*
X230199634Y-106559805D01*
X230202052Y-106525062D01*
X230187173Y-106438189D01*
X230133732Y-106362519D01*
X230124319Y-106354831D01*
X230043309Y-106310224D01*
X229956219Y-106281471D01*
X229871035Y-106261950D01*
X229859418Y-106259727D01*
X229604071Y-106209787D01*
X229505628Y-106187975D01*
X229418423Y-106161950D01*
X229330885Y-106126261D01*
X229249569Y-106078452D01*
X229208890Y-106044767D01*
X229152002Y-105973565D01*
X229113731Y-105886493D01*
X229095342Y-105795772D01*
X229091205Y-105719503D01*
X229097571Y-105623448D01*
X229116671Y-105535911D01*
X229155046Y-105444552D01*
X229210751Y-105364789D01*
X229272293Y-105305650D01*
X229345509Y-105255914D01*
X229429015Y-105216469D01*
X229522811Y-105187314D01*
X229608834Y-105170879D01*
X229702004Y-105161589D01*
X229781684Y-105159303D01*
X229869413Y-105162070D01*
X229959835Y-105171122D01*
X229965378Y-105171896D01*
X230051224Y-105189212D01*
X230135651Y-105216048D01*
X230154283Y-105223139D01*
X230236739Y-105261280D01*
X230313278Y-105311738D01*
X230327120Y-105323020D01*
X230389861Y-105390920D01*
X230435747Y-105466748D01*
X230448279Y-105493252D01*
X230477918Y-105579500D01*
X230493070Y-105667038D01*
X230496917Y-105744690D01*
G37*
G36*
X231227783Y-106402600D02*
G01*
X231227783Y-107012741D01*
X230852579Y-107012741D01*
X230852579Y-105189267D01*
X231227783Y-105189267D01*
X231227783Y-105989615D01*
X231940410Y-105189267D01*
X232383359Y-105189267D01*
X231655533Y-105974850D01*
X232460658Y-107012741D01*
X232012932Y-107012741D01*
X231415385Y-106207181D01*
X231227783Y-106402600D01*
G37*
D11*
%TO.C,J5*%
X131726000Y-109608000D03*
X131826000Y-122936000D03*
D12*
X131064000Y-118872000D03*
D13*
X131064000Y-116332000D03*
X131064000Y-113792000D03*
%TD*%
D14*
%TO.C,J2*%
X162178500Y-75910500D03*
X157178500Y-75910500D03*
X162178500Y-84110500D03*
X157178500Y-84110500D03*
%TD*%
D11*
%TO.C,J7*%
X139326000Y-130656000D03*
X152654000Y-130556000D03*
D15*
X148590000Y-131318000D03*
D16*
X146050000Y-131318000D03*
X143510000Y-131318000D03*
%TD*%
D17*
%TO.C,H2*%
X187198000Y-75184000D03*
%TD*%
%TO.C,H1*%
X132842000Y-75184000D03*
%TD*%
D11*
%TO.C,J1*%
X139446000Y-74168000D03*
X150114000Y-74168000D03*
D15*
X143510000Y-73406000D03*
D16*
X146050000Y-73406000D03*
%TD*%
D18*
%TO.C,J3*%
X173228000Y-80010000D03*
D19*
X175728000Y-80010000D03*
X175728000Y-76810000D03*
X173228000Y-76810000D03*
D20*
X180498000Y-77300000D03*
X168458000Y-77300000D03*
%TD*%
D11*
%TO.C,J4*%
X131826000Y-92456000D03*
X131826000Y-81788000D03*
D12*
X131064000Y-88392000D03*
D13*
X131064000Y-85852000D03*
%TD*%
D21*
%TO.C,C5*%
X136570323Y-104648000D03*
D22*
X141570323Y-104648000D03*
%TD*%
D17*
%TO.C,H3*%
X132842000Y-129540000D03*
%TD*%
D23*
%TO.C,C32*%
X157937200Y-109029200D03*
X157937200Y-110579200D03*
%TD*%
D24*
%TO.C,C10*%
X145809000Y-84328000D03*
X144259000Y-84328000D03*
%TD*%
%TO.C,C23*%
X183401000Y-101600000D03*
X181851000Y-101600000D03*
%TD*%
D25*
%TO.C,U13*%
X148625000Y-123063000D03*
X148625000Y-124333000D03*
X148625000Y-125603000D03*
X148625000Y-126873000D03*
X143475000Y-126873000D03*
X143475000Y-125603000D03*
X143475000Y-124333000D03*
X143475000Y-123063000D03*
%TD*%
D26*
%TO.C,R25*%
X166725600Y-130452500D03*
X166725600Y-128627500D03*
%TD*%
D24*
%TO.C,C24*%
X183401000Y-103124000D03*
X181851000Y-103124000D03*
%TD*%
%TO.C,C27*%
X160947400Y-106680000D03*
X159397400Y-106680000D03*
%TD*%
%TO.C,C21*%
X152794000Y-100584000D03*
X151244000Y-100584000D03*
%TD*%
D27*
%TO.C,C17*%
X171183000Y-98806000D03*
X172733000Y-98806000D03*
%TD*%
%TO.C,C18*%
X163918600Y-99085400D03*
X165468600Y-99085400D03*
%TD*%
D28*
%TO.C,C41*%
X151257000Y-123366000D03*
X151257000Y-126316000D03*
%TD*%
D29*
%TO.C,R12*%
X165493200Y-104902000D03*
X163843200Y-104902000D03*
%TD*%
D30*
%TO.C,R16*%
X137668000Y-119316000D03*
X137668000Y-117666000D03*
%TD*%
D17*
%TO.C,H4*%
X187198000Y-129540000D03*
%TD*%
D29*
%TO.C,R18*%
X172529000Y-121920000D03*
X170879000Y-121920000D03*
%TD*%
D23*
%TO.C,C37*%
X151990000Y-112745000D03*
X151990000Y-114295000D03*
%TD*%
D27*
%TO.C,C9*%
X139687000Y-82550000D03*
X141237000Y-82550000D03*
%TD*%
D26*
%TO.C,R26*%
X162915600Y-130452500D03*
X162915600Y-128627500D03*
%TD*%
D31*
%TO.C,R19*%
X137668000Y-122125100D03*
X137668000Y-123950100D03*
%TD*%
D27*
%TO.C,C12*%
X171183000Y-97282000D03*
X172733000Y-97282000D03*
%TD*%
D24*
%TO.C,C40*%
X182639000Y-123444000D03*
X181089000Y-123444000D03*
%TD*%
D27*
%TO.C,C13*%
X144640000Y-97917000D03*
X146190000Y-97917000D03*
%TD*%
D23*
%TO.C,C34*%
X172720000Y-112763000D03*
X172720000Y-114313000D03*
%TD*%
D32*
%TO.C,R9*%
X144590000Y-96393000D03*
X146240000Y-96393000D03*
%TD*%
D33*
%TO.C,R23*%
X143486500Y-128778000D03*
X145311500Y-128778000D03*
%TD*%
D34*
%TO.C,C16*%
X155498800Y-99200000D03*
X155498800Y-97650000D03*
%TD*%
D29*
%TO.C,R13*%
X143065000Y-110998000D03*
X141415000Y-110998000D03*
%TD*%
D23*
%TO.C,C35*%
X171196000Y-112763000D03*
X171196000Y-114313000D03*
%TD*%
D28*
%TO.C,C42*%
X140716000Y-123366000D03*
X140716000Y-126316000D03*
%TD*%
D30*
%TO.C,R15*%
X184277000Y-119062000D03*
X184277000Y-117412000D03*
%TD*%
D32*
%TO.C,R24*%
X157036000Y-129159000D03*
X158686000Y-129159000D03*
%TD*%
D35*
%TO.C,R14*%
X169672000Y-112713000D03*
X169672000Y-114363000D03*
%TD*%
D23*
%TO.C,C33*%
X175133000Y-112763000D03*
X175133000Y-114313000D03*
%TD*%
D36*
%TO.C,Q1*%
X182293500Y-117287000D03*
X182293500Y-119187000D03*
X180418500Y-118237000D03*
%TD*%
D23*
%TO.C,C29*%
X162509200Y-109029200D03*
X162509200Y-110579200D03*
%TD*%
D24*
%TO.C,C44*%
X158636000Y-127635000D03*
X157086000Y-127635000D03*
%TD*%
%TO.C,C26*%
X165443200Y-106426000D03*
X163893200Y-106426000D03*
%TD*%
%TO.C,C28*%
X154038600Y-107619800D03*
X152488600Y-107619800D03*
%TD*%
%TO.C,C19*%
X183401000Y-100076000D03*
X181851000Y-100076000D03*
%TD*%
D27*
%TO.C,C39*%
X168785000Y-118940000D03*
X170335000Y-118940000D03*
%TD*%
D29*
%TO.C,R20*%
X172529000Y-123444000D03*
X170879000Y-123444000D03*
%TD*%
D32*
%TO.C,R21*%
X181039000Y-124968000D03*
X182689000Y-124968000D03*
%TD*%
D29*
%TO.C,R22*%
X158686000Y-126111000D03*
X157036000Y-126111000D03*
%TD*%
D37*
%TO.C,U12*%
X172003000Y-110982000D03*
X172003000Y-110482000D03*
X172003000Y-109982000D03*
X172003000Y-109482000D03*
X172003000Y-108982000D03*
D38*
X172728000Y-108757000D03*
X173228000Y-108757000D03*
X173728000Y-108757000D03*
D37*
X174453000Y-108982000D03*
X174453000Y-109482000D03*
X174453000Y-109982000D03*
X174453000Y-110482000D03*
X174453000Y-110982000D03*
D38*
X173728000Y-111207000D03*
X173228000Y-111207000D03*
X172728000Y-111207000D03*
%TD*%
D27*
%TO.C,C11*%
X154469800Y-91948000D03*
X156019800Y-91948000D03*
%TD*%
D34*
%TO.C,C15*%
X156972000Y-99200000D03*
X156972000Y-97650000D03*
%TD*%
D23*
%TO.C,C36*%
X168148000Y-112763000D03*
X168148000Y-114313000D03*
%TD*%
D24*
%TO.C,C43*%
X172479000Y-124968000D03*
X170929000Y-124968000D03*
%TD*%
D39*
%TO.C,C38*%
X138938000Y-112317000D03*
X138938000Y-115267000D03*
%TD*%
D27*
%TO.C,C25*%
X171183000Y-103124000D03*
X172733000Y-103124000D03*
%TD*%
D29*
%TO.C,R10*%
X146240000Y-99441000D03*
X144590000Y-99441000D03*
%TD*%
D32*
%TO.C,R11*%
X160592000Y-103378000D03*
X162242000Y-103378000D03*
%TD*%
D23*
%TO.C,C30*%
X160985200Y-109029200D03*
X160985200Y-110579200D03*
%TD*%
D27*
%TO.C,C22*%
X171170000Y-101092000D03*
X172720000Y-101092000D03*
%TD*%
D32*
%TO.C,R17*%
X181039000Y-121920000D03*
X182689000Y-121920000D03*
%TD*%
D23*
%TO.C,C31*%
X159461200Y-109029200D03*
X159461200Y-110579200D03*
%TD*%
D24*
%TO.C,C14*%
X183401000Y-98044000D03*
X181851000Y-98044000D03*
%TD*%
D27*
%TO.C,C20*%
X163918600Y-100609400D03*
X165468600Y-100609400D03*
%TD*%
M02*
