  0
SECTION
  2
HEADER
  9
$ANGBASE
  50
0.0
  9
$ANGDIR
  70
1
  9
$MEASUREMENT
  70
0
  0
ENDSEC
  0
SECTION
  2
TABLES
  0
TABLE
  2
LTYPE
  70
4
  0
LTYPE
  5
40F
  2
CONTINUOUS
  70
0
  3
Solid line
  72
65
  73
0
  40
0.0
  0
LTYPE
  5
410
  2
DASHDOT
 70
0
  3
Dash Dot ____ _ ____ _
 72
65
 73
4
 40
2.0
 49
1.25
 49
-0.25
 49
0.25
 49
-0.25
  0
LTYPE
  5
411
  2
DASHED
 70
0
  3
Dashed __ __ __ __ __
 72
65
 73
2
 40
0.75
 49
0.5
 49
-0.25
  0
LTYPE
  5
43B
  2
DOTTED
 70
0
  3
Dotted .  .  .  .
 72
65
 73
2
 40
0.2
 49
0.0
 49
-0.2
  0
ENDTAB
  0
TABLE
  2
STYLE
  70
4
  0
STYLE
  2
KICAD
  70
0
  40
0
  41
1
  42
1
  50
0
  71
0
  3
isocp.shx
  0
STYLE
  2
KICADB
  70
0
  40
0
  41
1
  42
1
  50
0
  71
0
  3
isocp.shx
  0
STYLE
  2
KICADI
  70
0
  40
0
  41
1
  42
1
  50
15
  71
0
  3
isocp.shx
  0
STYLE
  2
KICADBI
  70
0
  40
0
  41
1
  42
1
  50
15
  71
0
  3
isocp.shx
  0
ENDTAB
  0
TABLE
  2
LAYER
  70
1
  0
LAYER
  2
BLACK
  70
0
  62
7
  6
CONTINUOUS
  0
ENDTAB
  0
ENDSEC
  0
SECTION
  2
ENTITIES
0
LINE
8
BLACK
6
CONTINUOUS
10
2.3622
20
-2.83465
11
2.3622
21
-4.88189
0
ARC
8
BLACK
10
4.80315
20
-2.83465
40
0.11811
50
-0
51
90
0
LINE
8
BLACK
6
CONTINUOUS
10
2.48031
20
-5
11
4.80315
21
-5
0
ARC
8
BLACK
10
2.48031
20
-4.88189
40
0.11811
50
-180
51
-90
0
ARC
8
BLACK
10
4.80315
20
-4.88189
40
0.11811
50
-90
51
-0
0
ARC
8
BLACK
10
2.48031
20
-2.83465
40
0.11811
50
90
51
180
0
LINE
8
BLACK
6
CONTINUOUS
10
4.92126
20
-4.88189
11
4.92126
21
-2.83465
0
LINE
8
BLACK
6
CONTINUOUS
10
4.80315
20
-2.71654
11
2.48031
21
-2.71654
0
LINE
8
BLACK
6
CONTINUOUS
10
2.7063
20
-2.89764
11
2.77717
21
-2.9685
0
LINE
8
BLACK
6
CONTINUOUS
10
2.77717
20
-2.89764
11
2.7063
21
-2.9685
0
LINE
8
BLACK
6
CONTINUOUS
10
4.5063
20
-2.89764
11
4.57717
21
-2.9685
0
LINE
8
BLACK
6
CONTINUOUS
10
4.57717
20
-2.89764
11
4.5063
21
-2.9685
0
CIRCLE
8
BLACK
10
2.5
20
-2.93307
40
0.0492126
0
CIRCLE
8
BLACK
10
2.5
20
-4.8622
40
0.0492126
0
CIRCLE
8
BLACK
10
4.78346
20
-2.93307
40
0.0492126
0
CIRCLE
8
BLACK
10
4.78346
20
-4.8622
40
0.0492126
0
LINE
8
BLACK
6
CONTINUOUS
10
2.48886
20
-3.26496
11
2.48886
21
-3.39882
0
LINE
8
BLACK
6
CONTINUOUS
10
2.42193
20
-3.33189
11
2.55579
21
-3.33189
0
LINE
8
BLACK
6
CONTINUOUS
10
2.48886
20
-4.4752
11
2.48886
21
-4.60906
0
LINE
8
BLACK
6
CONTINUOUS
10
2.42193
20
-4.54213
11
2.55579
21
-4.54213
0
LINE
8
BLACK
6
CONTINUOUS
10
4.79016
20
-3.30295
11
4.79016
21
-3.43681
0
LINE
8
BLACK
6
CONTINUOUS
10
4.72323
20
-3.36988
11
4.85709
21
-3.36988
0
LINE
8
BLACK
6
CONTINUOUS
10
4.79016
20
-3.61319
11
4.79016
21
-3.74705
0
LINE
8
BLACK
6
CONTINUOUS
10
4.72323
20
-3.68012
11
4.85709
21
-3.68012
0
LINE
8
BLACK
6
CONTINUOUS
10
4.79016
20
-3.77795
11
4.79016
21
-3.91181
0
LINE
8
BLACK
6
CONTINUOUS
10
4.72323
20
-3.84488
11
4.85709
21
-3.84488
0
LINE
8
BLACK
6
CONTINUOUS
10
4.79016
20
-3.98819
11
4.79016
21
-4.12205
0
LINE
8
BLACK
6
CONTINUOUS
10
4.72323
20
-4.05512
11
4.85709
21
-4.05512
0
LINE
8
BLACK
6
CONTINUOUS
10
4.79069
20
-4.15295
11
4.79069
21
-4.28681
0
LINE
8
BLACK
6
CONTINUOUS
10
4.72376
20
-4.21988
11
4.85762
21
-4.21988
0
LINE
8
BLACK
6
CONTINUOUS
10
4.79069
20
-4.56319
11
4.79069
21
-4.69705
0
LINE
8
BLACK
6
CONTINUOUS
10
4.72376
20
-4.63012
11
4.85762
21
-4.63012
0
LINE
8
BLACK
6
CONTINUOUS
10
2.4629
20
-5.1246
11
2.4629
21
-5.04586
0
LINE
8
BLACK
6
CONTINUOUS
10
2.4629
20
-5.04586
11
2.48165
21
-5.04586
0
LINE
8
BLACK
6
CONTINUOUS
10
2.48165
20
-5.04586
11
2.4929
21
-5.04961
0
LINE
8
BLACK
6
CONTINUOUS
10
2.4929
20
-5.04961
11
2.5004
21
-5.05711
0
LINE
8
BLACK
6
CONTINUOUS
10
2.5004
20
-5.05711
11
2.50415
21
-5.06461
0
LINE
8
BLACK
6
CONTINUOUS
10
2.50415
20
-5.06461
11
2.5079
21
-5.07961
0
LINE
8
BLACK
6
CONTINUOUS
10
2.5079
20
-5.07961
11
2.5079
21
-5.09085
0
LINE
8
BLACK
6
CONTINUOUS
10
2.5079
20
-5.09085
11
2.50415
21
-5.10585
0
LINE
8
BLACK
6
CONTINUOUS
10
2.50415
20
-5.10585
11
2.5004
21
-5.11335
0
LINE
8
BLACK
6
CONTINUOUS
10
2.5004
20
-5.11335
11
2.4929
21
-5.12085
0
LINE
8
BLACK
6
CONTINUOUS
10
2.4929
20
-5.12085
11
2.48165
21
-5.1246
0
LINE
8
BLACK
6
CONTINUOUS
10
2.48165
20
-5.1246
11
2.4629
21
-5.1246
0
LINE
8
BLACK
6
CONTINUOUS
10
2.54164
20
-5.1246
11
2.54164
21
-5.07211
0
LINE
8
BLACK
6
CONTINUOUS
10
2.54164
20
-5.0871
11
2.54539
21
-5.07961
0
LINE
8
BLACK
6
CONTINUOUS
10
2.54539
20
-5.07961
11
2.54914
21
-5.07586
0
LINE
8
BLACK
6
CONTINUOUS
10
2.54914
20
-5.07586
11
2.55664
21
-5.07211
0
LINE
8
BLACK
6
CONTINUOUS
10
2.55664
20
-5.07211
11
2.56414
21
-5.07211
0
LINE
8
BLACK
6
CONTINUOUS
10
2.59039
20
-5.1246
11
2.59039
21
-5.07211
0
LINE
8
BLACK
6
CONTINUOUS
10
2.59039
20
-5.04586
11
2.58664
21
-5.04961
0
LINE
8
BLACK
6
CONTINUOUS
10
2.58664
20
-5.04961
11
2.59039
21
-5.05336
0
LINE
8
BLACK
6
CONTINUOUS
10
2.59039
20
-5.05336
11
2.59414
21
-5.04961
0
LINE
8
BLACK
6
CONTINUOUS
10
2.59414
20
-5.04961
11
2.59039
21
-5.04586
0
LINE
8
BLACK
6
CONTINUOUS
10
2.59039
20
-5.04586
11
2.59039
21
-5.05336
0
LINE
8
BLACK
6
CONTINUOUS
10
2.63913
20
-5.1246
11
2.63163
21
-5.12085
0
LINE
8
BLACK
6
CONTINUOUS
10
2.63163
20
-5.12085
11
2.62788
21
-5.11335
0
LINE
8
BLACK
6
CONTINUOUS
10
2.62788
20
-5.11335
11
2.62788
21
-5.04586
0
LINE
8
BLACK
6
CONTINUOUS
10
2.68038
20
-5.1246
11
2.67288
21
-5.12085
0
LINE
8
BLACK
6
CONTINUOUS
10
2.67288
20
-5.12085
11
2.66913
21
-5.11335
0
LINE
8
BLACK
6
CONTINUOUS
10
2.66913
20
-5.11335
11
2.66913
21
-5.04586
0
LINE
8
BLACK
6
CONTINUOUS
10
2.77037
20
-5.1246
11
2.77037
21
-5.04586
0
LINE
8
BLACK
6
CONTINUOUS
10
2.77037
20
-5.04586
11
2.79661
21
-5.1021
0
LINE
8
BLACK
6
CONTINUOUS
10
2.79661
20
-5.1021
11
2.82286
21
-5.04586
0
LINE
8
BLACK
6
CONTINUOUS
10
2.82286
20
-5.04586
11
2.82286
21
-5.1246
0
LINE
8
BLACK
6
CONTINUOUS
10
2.8941
20
-5.1246
11
2.8941
21
-5.08336
0
LINE
8
BLACK
6
CONTINUOUS
10
2.8941
20
-5.08336
11
2.89035
21
-5.07586
0
LINE
8
BLACK
6
CONTINUOUS
10
2.89035
20
-5.07586
11
2.88285
21
-5.07211
0
LINE
8
BLACK
6
CONTINUOUS
10
2.88285
20
-5.07211
11
2.86785
21
-5.07211
0
LINE
8
BLACK
6
CONTINUOUS
10
2.86785
20
-5.07211
11
2.86035
21
-5.07586
0
LINE
8
BLACK
6
CONTINUOUS
10
2.8941
20
-5.12085
11
2.8866
21
-5.1246
0
LINE
8
BLACK
6
CONTINUOUS
10
2.8866
20
-5.1246
11
2.86785
21
-5.1246
0
LINE
8
BLACK
6
CONTINUOUS
10
2.86785
20
-5.1246
11
2.86035
21
-5.12085
0
LINE
8
BLACK
6
CONTINUOUS
10
2.86035
20
-5.12085
11
2.85661
21
-5.11335
0
LINE
8
BLACK
6
CONTINUOUS
10
2.85661
20
-5.11335
11
2.85661
21
-5.10585
0
LINE
8
BLACK
6
CONTINUOUS
10
2.85661
20
-5.10585
11
2.86035
21
-5.09835
0
LINE
8
BLACK
6
CONTINUOUS
10
2.86035
20
-5.09835
11
2.86785
21
-5.0946
0
LINE
8
BLACK
6
CONTINUOUS
10
2.86785
20
-5.0946
11
2.8866
21
-5.0946
0
LINE
8
BLACK
6
CONTINUOUS
10
2.8866
20
-5.0946
11
2.8941
21
-5.09085
0
LINE
8
BLACK
6
CONTINUOUS
10
2.9316
20
-5.07211
11
2.9316
21
-5.15085
0
LINE
8
BLACK
6
CONTINUOUS
10
2.9316
20
-5.07586
11
2.93909
21
-5.07211
0
LINE
8
BLACK
6
CONTINUOUS
10
2.93909
20
-5.07211
11
2.95409
21
-5.07211
0
LINE
8
BLACK
6
CONTINUOUS
10
2.95409
20
-5.07211
11
2.96159
21
-5.07586
0
LINE
8
BLACK
6
CONTINUOUS
10
2.96159
20
-5.07586
11
2.96534
21
-5.07961
0
LINE
8
BLACK
6
CONTINUOUS
10
2.96534
20
-5.07961
11
2.96909
21
-5.0871
0
LINE
8
BLACK
6
CONTINUOUS
10
2.96909
20
-5.0871
11
2.96909
21
-5.1096
0
LINE
8
BLACK
6
CONTINUOUS
10
2.96909
20
-5.1096
11
2.96534
21
-5.1171
0
LINE
8
BLACK
6
CONTINUOUS
10
2.96534
20
-5.1171
11
2.96159
21
-5.12085
0
LINE
8
BLACK
6
CONTINUOUS
10
2.96159
20
-5.12085
11
2.95409
21
-5.1246
0
LINE
8
BLACK
6
CONTINUOUS
10
2.95409
20
-5.1246
11
2.93909
21
-5.1246
0
LINE
8
BLACK
6
CONTINUOUS
10
2.93909
20
-5.1246
11
2.9316
21
-5.12085
0
LINE
8
BLACK
6
CONTINUOUS
10
3.00284
20
-5.1171
11
3.00659
21
-5.12085
0
LINE
8
BLACK
6
CONTINUOUS
10
3.00659
20
-5.12085
11
3.00284
21
-5.1246
0
LINE
8
BLACK
6
CONTINUOUS
10
3.00284
20
-5.1246
11
2.99909
21
-5.12085
0
LINE
8
BLACK
6
CONTINUOUS
10
2.99909
20
-5.12085
11
3.00284
21
-5.1171
0
LINE
8
BLACK
6
CONTINUOUS
10
3.00284
20
-5.1171
11
3.00284
21
-5.1246
0
LINE
8
BLACK
6
CONTINUOUS
10
3.00284
20
-5.07586
11
3.00659
21
-5.07961
0
LINE
8
BLACK
6
CONTINUOUS
10
3.00659
20
-5.07961
11
3.00284
21
-5.08336
0
LINE
8
BLACK
6
CONTINUOUS
10
3.00284
20
-5.08336
11
2.99909
21
-5.07961
0
LINE
8
BLACK
6
CONTINUOUS
10
2.99909
20
-5.07961
11
3.00284
21
-5.07586
0
LINE
8
BLACK
6
CONTINUOUS
10
3.00284
20
-5.07586
11
3.00284
21
-5.08336
0
LINE
8
BLACK
6
CONTINUOUS
10
2.28937
20
-5.2185
11
2.36024
21
-5.28937
0
LINE
8
BLACK
6
CONTINUOUS
10
2.36024
20
-5.2185
11
2.28937
21
-5.28937
0
LINE
8
BLACK
6
CONTINUOUS
10
2.50415
20
-5.28995
11
2.45915
21
-5.28995
0
LINE
8
BLACK
6
CONTINUOUS
10
2.48165
20
-5.28995
11
2.48165
21
-5.21121
0
LINE
8
BLACK
6
CONTINUOUS
10
2.48165
20
-5.21121
11
2.47415
21
-5.22246
0
LINE
8
BLACK
6
CONTINUOUS
10
2.47415
20
-5.22246
11
2.46665
21
-5.22996
0
LINE
8
BLACK
6
CONTINUOUS
10
2.46665
20
-5.22996
11
2.45915
21
-5.23371
0
LINE
8
BLACK
6
CONTINUOUS
10
2.53789
20
-5.28246
11
2.54164
21
-5.2862
0
LINE
8
BLACK
6
CONTINUOUS
10
2.54164
20
-5.2862
11
2.53789
21
-5.28995
0
LINE
8
BLACK
6
CONTINUOUS
10
2.53789
20
-5.28995
11
2.53415
21
-5.2862
0
LINE
8
BLACK
6
CONTINUOUS
10
2.53415
20
-5.2862
11
2.53789
21
-5.28246
0
LINE
8
BLACK
6
CONTINUOUS
10
2.53789
20
-5.28246
11
2.53789
21
-5.28995
0
LINE
8
BLACK
6
CONTINUOUS
10
2.58664
20
-5.24496
11
2.57914
21
-5.24121
0
LINE
8
BLACK
6
CONTINUOUS
10
2.57914
20
-5.24121
11
2.57539
21
-5.23746
0
LINE
8
BLACK
6
CONTINUOUS
10
2.57539
20
-5.23746
11
2.57164
21
-5.22996
0
LINE
8
BLACK
6
CONTINUOUS
10
2.57164
20
-5.22996
11
2.57164
21
-5.22621
0
LINE
8
BLACK
6
CONTINUOUS
10
2.57164
20
-5.22621
11
2.57539
21
-5.21871
0
LINE
8
BLACK
6
CONTINUOUS
10
2.57539
20
-5.21871
11
2.57914
21
-5.21496
0
LINE
8
BLACK
6
CONTINUOUS
10
2.57914
20
-5.21496
11
2.58664
21
-5.21121
0
LINE
8
BLACK
6
CONTINUOUS
10
2.58664
20
-5.21121
11
2.60164
21
-5.21121
0
LINE
8
BLACK
6
CONTINUOUS
10
2.60164
20
-5.21121
11
2.60914
21
-5.21496
0
LINE
8
BLACK
6
CONTINUOUS
10
2.60914
20
-5.21496
11
2.61289
21
-5.21871
0
LINE
8
BLACK
6
CONTINUOUS
10
2.61289
20
-5.21871
11
2.61664
21
-5.22621
0
LINE
8
BLACK
6
CONTINUOUS
10
2.61664
20
-5.22621
11
2.61664
21
-5.22996
0
LINE
8
BLACK
6
CONTINUOUS
10
2.61664
20
-5.22996
11
2.61289
21
-5.23746
0
LINE
8
BLACK
6
CONTINUOUS
10
2.61289
20
-5.23746
11
2.60914
21
-5.24121
0
LINE
8
BLACK
6
CONTINUOUS
10
2.60914
20
-5.24121
11
2.60164
21
-5.24496
0
LINE
8
BLACK
6
CONTINUOUS
10
2.60164
20
-5.24496
11
2.58664
21
-5.24496
0
LINE
8
BLACK
6
CONTINUOUS
10
2.58664
20
-5.24496
11
2.57914
21
-5.24871
0
LINE
8
BLACK
6
CONTINUOUS
10
2.57914
20
-5.24871
11
2.57539
21
-5.25246
0
LINE
8
BLACK
6
CONTINUOUS
10
2.57539
20
-5.25246
11
2.57164
21
-5.25996
0
LINE
8
BLACK
6
CONTINUOUS
10
2.57164
20
-5.25996
11
2.57164
21
-5.27496
0
LINE
8
BLACK
6
CONTINUOUS
10
2.57164
20
-5.27496
11
2.57539
21
-5.28246
0
LINE
8
BLACK
6
CONTINUOUS
10
2.57539
20
-5.28246
11
2.57914
21
-5.2862
0
LINE
8
BLACK
6
CONTINUOUS
10
2.57914
20
-5.2862
11
2.58664
21
-5.28995
0
LINE
8
BLACK
6
CONTINUOUS
10
2.58664
20
-5.28995
11
2.60164
21
-5.28995
0
LINE
8
BLACK
6
CONTINUOUS
10
2.60164
20
-5.28995
11
2.60914
21
-5.2862
0
LINE
8
BLACK
6
CONTINUOUS
10
2.60914
20
-5.2862
11
2.61289
21
-5.28246
0
LINE
8
BLACK
6
CONTINUOUS
10
2.61289
20
-5.28246
11
2.61664
21
-5.27496
0
LINE
8
BLACK
6
CONTINUOUS
10
2.61664
20
-5.27496
11
2.61664
21
-5.25996
0
LINE
8
BLACK
6
CONTINUOUS
10
2.61664
20
-5.25996
11
2.61289
21
-5.25246
0
LINE
8
BLACK
6
CONTINUOUS
10
2.61289
20
-5.25246
11
2.60914
21
-5.24871
0
LINE
8
BLACK
6
CONTINUOUS
10
2.60914
20
-5.24871
11
2.60164
21
-5.24496
0
LINE
8
BLACK
6
CONTINUOUS
10
2.66538
20
-5.21121
11
2.67288
21
-5.21121
0
LINE
8
BLACK
6
CONTINUOUS
10
2.67288
20
-5.21121
11
2.68038
21
-5.21496
0
LINE
8
BLACK
6
CONTINUOUS
10
2.68038
20
-5.21496
11
2.68413
21
-5.21871
0
LINE
8
BLACK
6
CONTINUOUS
10
2.68413
20
-5.21871
11
2.68788
21
-5.22621
0
LINE
8
BLACK
6
CONTINUOUS
10
2.68788
20
-5.22621
11
2.69163
21
-5.24121
0
LINE
8
BLACK
6
CONTINUOUS
10
2.69163
20
-5.24121
11
2.69163
21
-5.25996
0
LINE
8
BLACK
6
CONTINUOUS
10
2.69163
20
-5.25996
11
2.68788
21
-5.27496
0
LINE
8
BLACK
6
CONTINUOUS
10
2.68788
20
-5.27496
11
2.68413
21
-5.28246
0
LINE
8
BLACK
6
CONTINUOUS
10
2.68413
20
-5.28246
11
2.68038
21
-5.2862
0
LINE
8
BLACK
6
CONTINUOUS
10
2.68038
20
-5.2862
11
2.67288
21
-5.28995
0
LINE
8
BLACK
6
CONTINUOUS
10
2.67288
20
-5.28995
11
2.66538
21
-5.28995
0
LINE
8
BLACK
6
CONTINUOUS
10
2.66538
20
-5.28995
11
2.65788
21
-5.2862
0
LINE
8
BLACK
6
CONTINUOUS
10
2.65788
20
-5.2862
11
2.65413
21
-5.28246
0
LINE
8
BLACK
6
CONTINUOUS
10
2.65413
20
-5.28246
11
2.65038
21
-5.27496
0
LINE
8
BLACK
6
CONTINUOUS
10
2.65038
20
-5.27496
11
2.64663
21
-5.25996
0
LINE
8
BLACK
6
CONTINUOUS
10
2.64663
20
-5.25996
11
2.64663
21
-5.24121
0
LINE
8
BLACK
6
CONTINUOUS
10
2.64663
20
-5.24121
11
2.65038
21
-5.22621
0
LINE
8
BLACK
6
CONTINUOUS
10
2.65038
20
-5.22621
11
2.65413
21
-5.21871
0
LINE
8
BLACK
6
CONTINUOUS
10
2.65413
20
-5.21871
11
2.65788
21
-5.21496
0
LINE
8
BLACK
6
CONTINUOUS
10
2.65788
20
-5.21496
11
2.66538
21
-5.21121
0
LINE
8
BLACK
6
CONTINUOUS
10
2.74037
20
-5.21121
11
2.74787
21
-5.21121
0
LINE
8
BLACK
6
CONTINUOUS
10
2.74787
20
-5.21121
11
2.75537
21
-5.21496
0
LINE
8
BLACK
6
CONTINUOUS
10
2.75537
20
-5.21496
11
2.75912
21
-5.21871
0
LINE
8
BLACK
6
CONTINUOUS
10
2.75912
20
-5.21871
11
2.76287
21
-5.22621
0
LINE
8
BLACK
6
CONTINUOUS
10
2.76287
20
-5.22621
11
2.76662
21
-5.24121
0
LINE
8
BLACK
6
CONTINUOUS
10
2.76662
20
-5.24121
11
2.76662
21
-5.25996
0
LINE
8
BLACK
6
CONTINUOUS
10
2.76662
20
-5.25996
11
2.76287
21
-5.27496
0
LINE
8
BLACK
6
CONTINUOUS
10
2.76287
20
-5.27496
11
2.75912
21
-5.28246
0
LINE
8
BLACK
6
CONTINUOUS
10
2.75912
20
-5.28246
11
2.75537
21
-5.2862
0
LINE
8
BLACK
6
CONTINUOUS
10
2.75537
20
-5.2862
11
2.74787
21
-5.28995
0
LINE
8
BLACK
6
CONTINUOUS
10
2.74787
20
-5.28995
11
2.74037
21
-5.28995
0
LINE
8
BLACK
6
CONTINUOUS
10
2.74037
20
-5.28995
11
2.73287
21
-5.2862
0
LINE
8
BLACK
6
CONTINUOUS
10
2.73287
20
-5.2862
11
2.72912
21
-5.28246
0
LINE
8
BLACK
6
CONTINUOUS
10
2.72912
20
-5.28246
11
2.72537
21
-5.27496
0
LINE
8
BLACK
6
CONTINUOUS
10
2.72537
20
-5.27496
11
2.72162
21
-5.25996
0
LINE
8
BLACK
6
CONTINUOUS
10
2.72162
20
-5.25996
11
2.72162
21
-5.24121
0
LINE
8
BLACK
6
CONTINUOUS
10
2.72162
20
-5.24121
11
2.72537
21
-5.22621
0
LINE
8
BLACK
6
CONTINUOUS
10
2.72537
20
-5.22621
11
2.72912
21
-5.21871
0
LINE
8
BLACK
6
CONTINUOUS
10
2.72912
20
-5.21871
11
2.73287
21
-5.21496
0
LINE
8
BLACK
6
CONTINUOUS
10
2.73287
20
-5.21496
11
2.74037
21
-5.21121
0
LINE
8
BLACK
6
CONTINUOUS
10
2.80036
20
-5.28995
11
2.80036
21
-5.23746
0
LINE
8
BLACK
6
CONTINUOUS
10
2.80036
20
-5.24496
11
2.80411
21
-5.24121
0
LINE
8
BLACK
6
CONTINUOUS
10
2.80411
20
-5.24121
11
2.81161
21
-5.23746
0
LINE
8
BLACK
6
CONTINUOUS
10
2.81161
20
-5.23746
11
2.82286
21
-5.23746
0
LINE
8
BLACK
6
CONTINUOUS
10
2.82286
20
-5.23746
11
2.83036
21
-5.24121
0
LINE
8
BLACK
6
CONTINUOUS
10
2.83036
20
-5.24121
11
2.83411
21
-5.24871
0
LINE
8
BLACK
6
CONTINUOUS
10
2.83411
20
-5.24871
11
2.83411
21
-5.28995
0
LINE
8
BLACK
6
CONTINUOUS
10
2.83411
20
-5.24871
11
2.83786
21
-5.24121
0
LINE
8
BLACK
6
CONTINUOUS
10
2.83786
20
-5.24121
11
2.84536
21
-5.23746
0
LINE
8
BLACK
6
CONTINUOUS
10
2.84536
20
-5.23746
11
2.85661
21
-5.23746
0
LINE
8
BLACK
6
CONTINUOUS
10
2.85661
20
-5.23746
11
2.8641
21
-5.24121
0
LINE
8
BLACK
6
CONTINUOUS
10
2.8641
20
-5.24121
11
2.86785
21
-5.24871
0
LINE
8
BLACK
6
CONTINUOUS
10
2.86785
20
-5.24871
11
2.86785
21
-5.28995
0
LINE
8
BLACK
6
CONTINUOUS
10
2.90535
20
-5.28995
11
2.90535
21
-5.23746
0
LINE
8
BLACK
6
CONTINUOUS
10
2.90535
20
-5.24496
11
2.9091
21
-5.24121
0
LINE
8
BLACK
6
CONTINUOUS
10
2.9091
20
-5.24121
11
2.9166
21
-5.23746
0
LINE
8
BLACK
6
CONTINUOUS
10
2.9166
20
-5.23746
11
2.92785
21
-5.23746
0
LINE
8
BLACK
6
CONTINUOUS
10
2.92785
20
-5.23746
11
2.93535
21
-5.24121
0
LINE
8
BLACK
6
CONTINUOUS
10
2.93535
20
-5.24121
11
2.93909
21
-5.24871
0
LINE
8
BLACK
6
CONTINUOUS
10
2.93909
20
-5.24871
11
2.93909
21
-5.28995
0
LINE
8
BLACK
6
CONTINUOUS
10
2.93909
20
-5.24871
11
2.94284
21
-5.24121
0
LINE
8
BLACK
6
CONTINUOUS
10
2.94284
20
-5.24121
11
2.95034
21
-5.23746
0
LINE
8
BLACK
6
CONTINUOUS
10
2.95034
20
-5.23746
11
2.96159
21
-5.23746
0
LINE
8
BLACK
6
CONTINUOUS
10
2.96159
20
-5.23746
11
2.96909
21
-5.24121
0
LINE
8
BLACK
6
CONTINUOUS
10
2.96909
20
-5.24121
11
2.97284
21
-5.24871
0
LINE
8
BLACK
6
CONTINUOUS
10
2.97284
20
-5.24871
11
2.97284
21
-5.28995
0
LINE
8
BLACK
6
CONTINUOUS
10
3.12657
20
-5.20746
11
3.05908
21
-5.3087
0
LINE
8
BLACK
6
CONTINUOUS
10
3.22781
20
-5.21121
11
3.23531
21
-5.21121
0
LINE
8
BLACK
6
CONTINUOUS
10
3.23531
20
-5.21121
11
3.24281
21
-5.21496
0
LINE
8
BLACK
6
CONTINUOUS
10
3.24281
20
-5.21496
11
3.24656
21
-5.21871
0
LINE
8
BLACK
6
CONTINUOUS
10
3.24656
20
-5.21871
11
3.25031
21
-5.22621
0
LINE
8
BLACK
6
CONTINUOUS
10
3.25031
20
-5.22621
11
3.25406
21
-5.24121
0
LINE
8
BLACK
6
CONTINUOUS
10
3.25406
20
-5.24121
11
3.25406
21
-5.25996
0
LINE
8
BLACK
6
CONTINUOUS
10
3.25406
20
-5.25996
11
3.25031
21
-5.27496
0
LINE
8
BLACK
6
CONTINUOUS
10
3.25031
20
-5.27496
11
3.24656
21
-5.28246
0
LINE
8
BLACK
6
CONTINUOUS
10
3.24656
20
-5.28246
11
3.24281
21
-5.2862
0
LINE
8
BLACK
6
CONTINUOUS
10
3.24281
20
-5.2862
11
3.23531
21
-5.28995
0
LINE
8
BLACK
6
CONTINUOUS
10
3.23531
20
-5.28995
11
3.22781
21
-5.28995
0
LINE
8
BLACK
6
CONTINUOUS
10
3.22781
20
-5.28995
11
3.22031
21
-5.2862
0
LINE
8
BLACK
6
CONTINUOUS
10
3.22031
20
-5.2862
11
3.21656
21
-5.28246
0
LINE
8
BLACK
6
CONTINUOUS
10
3.21656
20
-5.28246
11
3.21281
21
-5.27496
0
LINE
8
BLACK
6
CONTINUOUS
10
3.21281
20
-5.27496
11
3.20906
21
-5.25996
0
LINE
8
BLACK
6
CONTINUOUS
10
3.20906
20
-5.25996
11
3.20906
21
-5.24121
0
LINE
8
BLACK
6
CONTINUOUS
10
3.20906
20
-5.24121
11
3.21281
21
-5.22621
0
LINE
8
BLACK
6
CONTINUOUS
10
3.21281
20
-5.22621
11
3.21656
21
-5.21871
0
LINE
8
BLACK
6
CONTINUOUS
10
3.21656
20
-5.21871
11
3.22031
21
-5.21496
0
LINE
8
BLACK
6
CONTINUOUS
10
3.22031
20
-5.21496
11
3.22781
21
-5.21121
0
LINE
8
BLACK
6
CONTINUOUS
10
3.2878
20
-5.28246
11
3.29155
21
-5.2862
0
LINE
8
BLACK
6
CONTINUOUS
10
3.29155
20
-5.2862
11
3.2878
21
-5.28995
0
LINE
8
BLACK
6
CONTINUOUS
10
3.2878
20
-5.28995
11
3.28405
21
-5.2862
0
LINE
8
BLACK
6
CONTINUOUS
10
3.28405
20
-5.2862
11
3.2878
21
-5.28246
0
LINE
8
BLACK
6
CONTINUOUS
10
3.2878
20
-5.28246
11
3.2878
21
-5.28995
0
LINE
8
BLACK
6
CONTINUOUS
10
3.34029
20
-5.21121
11
3.34779
21
-5.21121
0
LINE
8
BLACK
6
CONTINUOUS
10
3.34779
20
-5.21121
11
3.35529
21
-5.21496
0
LINE
8
BLACK
6
CONTINUOUS
10
3.35529
20
-5.21496
11
3.35904
21
-5.21871
0
LINE
8
BLACK
6
CONTINUOUS
10
3.35904
20
-5.21871
11
3.36279
21
-5.22621
0
LINE
8
BLACK
6
CONTINUOUS
10
3.36279
20
-5.22621
11
3.36654
21
-5.24121
0
LINE
8
BLACK
6
CONTINUOUS
10
3.36654
20
-5.24121
11
3.36654
21
-5.25996
0
LINE
8
BLACK
6
CONTINUOUS
10
3.36654
20
-5.25996
11
3.36279
21
-5.27496
0
LINE
8
BLACK
6
CONTINUOUS
10
3.36279
20
-5.27496
11
3.35904
21
-5.28246
0
LINE
8
BLACK
6
CONTINUOUS
10
3.35904
20
-5.28246
11
3.35529
21
-5.2862
0
LINE
8
BLACK
6
CONTINUOUS
10
3.35529
20
-5.2862
11
3.34779
21
-5.28995
0
LINE
8
BLACK
6
CONTINUOUS
10
3.34779
20
-5.28995
11
3.34029
21
-5.28995
0
LINE
8
BLACK
6
CONTINUOUS
10
3.34029
20
-5.28995
11
3.3328
21
-5.2862
0
LINE
8
BLACK
6
CONTINUOUS
10
3.3328
20
-5.2862
11
3.32905
21
-5.28246
0
LINE
8
BLACK
6
CONTINUOUS
10
3.32905
20
-5.28246
11
3.3253
21
-5.27496
0
LINE
8
BLACK
6
CONTINUOUS
10
3.3253
20
-5.27496
11
3.32155
21
-5.25996
0
LINE
8
BLACK
6
CONTINUOUS
10
3.32155
20
-5.25996
11
3.32155
21
-5.24121
0
LINE
8
BLACK
6
CONTINUOUS
10
3.32155
20
-5.24121
11
3.3253
21
-5.22621
0
LINE
8
BLACK
6
CONTINUOUS
10
3.3253
20
-5.22621
11
3.32905
21
-5.21871
0
LINE
8
BLACK
6
CONTINUOUS
10
3.32905
20
-5.21871
11
3.3328
21
-5.21496
0
LINE
8
BLACK
6
CONTINUOUS
10
3.3328
20
-5.21496
11
3.34029
21
-5.21121
0
LINE
8
BLACK
6
CONTINUOUS
10
3.39279
20
-5.21121
11
3.44528
21
-5.21121
0
LINE
8
BLACK
6
CONTINUOUS
10
3.44528
20
-5.21121
11
3.41154
21
-5.28995
0
LINE
8
BLACK
6
CONTINUOUS
10
3.49028
20
-5.21121
11
3.49777
21
-5.21121
0
LINE
8
BLACK
6
CONTINUOUS
10
3.49777
20
-5.21121
11
3.50527
21
-5.21496
0
LINE
8
BLACK
6
CONTINUOUS
10
3.50527
20
-5.21496
11
3.50902
21
-5.21871
0
LINE
8
BLACK
6
CONTINUOUS
10
3.50902
20
-5.21871
11
3.51277
21
-5.22621
0
LINE
8
BLACK
6
CONTINUOUS
10
3.51277
20
-5.22621
11
3.51652
21
-5.24121
0
LINE
8
BLACK
6
CONTINUOUS
10
3.51652
20
-5.24121
11
3.51652
21
-5.25996
0
LINE
8
BLACK
6
CONTINUOUS
10
3.51652
20
-5.25996
11
3.51277
21
-5.27496
0
LINE
8
BLACK
6
CONTINUOUS
10
3.51277
20
-5.27496
11
3.50902
21
-5.28246
0
LINE
8
BLACK
6
CONTINUOUS
10
3.50902
20
-5.28246
11
3.50527
21
-5.2862
0
LINE
8
BLACK
6
CONTINUOUS
10
3.50527
20
-5.2862
11
3.49777
21
-5.28995
0
LINE
8
BLACK
6
CONTINUOUS
10
3.49777
20
-5.28995
11
3.49028
21
-5.28995
0
LINE
8
BLACK
6
CONTINUOUS
10
3.49028
20
-5.28995
11
3.48278
21
-5.2862
0
LINE
8
BLACK
6
CONTINUOUS
10
3.48278
20
-5.2862
11
3.47903
21
-5.28246
0
LINE
8
BLACK
6
CONTINUOUS
10
3.47903
20
-5.28246
11
3.47528
21
-5.27496
0
LINE
8
BLACK
6
CONTINUOUS
10
3.47528
20
-5.27496
11
3.47153
21
-5.25996
0
LINE
8
BLACK
6
CONTINUOUS
10
3.47153
20
-5.25996
11
3.47153
21
-5.24121
0
LINE
8
BLACK
6
CONTINUOUS
10
3.47153
20
-5.24121
11
3.47528
21
-5.22621
0
LINE
8
BLACK
6
CONTINUOUS
10
3.47528
20
-5.22621
11
3.47903
21
-5.21871
0
LINE
8
BLACK
6
CONTINUOUS
10
3.47903
20
-5.21871
11
3.48278
21
-5.21496
0
LINE
8
BLACK
6
CONTINUOUS
10
3.48278
20
-5.21496
11
3.49028
21
-5.21121
0
LINE
8
BLACK
6
CONTINUOUS
10
3.55402
20
-5.28995
11
3.56902
21
-5.28995
0
LINE
8
BLACK
6
CONTINUOUS
10
3.56902
20
-5.28995
11
3.57652
21
-5.2862
0
LINE
8
BLACK
6
CONTINUOUS
10
3.57652
20
-5.2862
11
3.58026
21
-5.28246
0
LINE
8
BLACK
6
CONTINUOUS
10
3.58026
20
-5.28246
11
3.58776
21
-5.27121
0
LINE
8
BLACK
6
CONTINUOUS
10
3.58776
20
-5.27121
11
3.59151
21
-5.25621
0
LINE
8
BLACK
6
CONTINUOUS
10
3.59151
20
-5.25621
11
3.59151
21
-5.22621
0
LINE
8
BLACK
6
CONTINUOUS
10
3.59151
20
-5.22621
11
3.58776
21
-5.21871
0
LINE
8
BLACK
6
CONTINUOUS
10
3.58776
20
-5.21871
11
3.58401
21
-5.21496
0
LINE
8
BLACK
6
CONTINUOUS
10
3.58401
20
-5.21496
11
3.57652
21
-5.21121
0
LINE
8
BLACK
6
CONTINUOUS
10
3.57652
20
-5.21121
11
3.56152
21
-5.21121
0
LINE
8
BLACK
6
CONTINUOUS
10
3.56152
20
-5.21121
11
3.55402
21
-5.21496
0
LINE
8
BLACK
6
CONTINUOUS
10
3.55402
20
-5.21496
11
3.55027
21
-5.21871
0
LINE
8
BLACK
6
CONTINUOUS
10
3.55027
20
-5.21871
11
3.54652
21
-5.22621
0
LINE
8
BLACK
6
CONTINUOUS
10
3.54652
20
-5.22621
11
3.54652
21
-5.24496
0
LINE
8
BLACK
6
CONTINUOUS
10
3.54652
20
-5.24496
11
3.55027
21
-5.25246
0
LINE
8
BLACK
6
CONTINUOUS
10
3.55027
20
-5.25246
11
3.55402
21
-5.25621
0
LINE
8
BLACK
6
CONTINUOUS
10
3.55402
20
-5.25621
11
3.56152
21
-5.25996
0
LINE
8
BLACK
6
CONTINUOUS
10
3.56152
20
-5.25996
11
3.57652
21
-5.25996
0
LINE
8
BLACK
6
CONTINUOUS
10
3.57652
20
-5.25996
11
3.58401
21
-5.25621
0
LINE
8
BLACK
6
CONTINUOUS
10
3.58401
20
-5.25621
11
3.58776
21
-5.25246
0
LINE
8
BLACK
6
CONTINUOUS
10
3.58776
20
-5.25246
11
3.59151
21
-5.24496
0
LINE
8
BLACK
6
CONTINUOUS
10
3.62151
20
-5.21121
11
3.62151
21
-5.22621
0
LINE
8
BLACK
6
CONTINUOUS
10
3.65151
20
-5.21121
11
3.65151
21
-5.22621
0
LINE
8
BLACK
6
CONTINUOUS
10
3.76774
20
-5.31995
11
3.76399
21
-5.3162
0
LINE
8
BLACK
6
CONTINUOUS
10
3.76399
20
-5.3162
11
3.75649
21
-5.30495
0
LINE
8
BLACK
6
CONTINUOUS
10
3.75649
20
-5.30495
11
3.75274
21
-5.29745
0
LINE
8
BLACK
6
CONTINUOUS
10
3.75274
20
-5.29745
11
3.74899
21
-5.2862
0
LINE
8
BLACK
6
CONTINUOUS
10
3.74899
20
-5.2862
11
3.74524
21
-5.26746
0
LINE
8
BLACK
6
CONTINUOUS
10
3.74524
20
-5.26746
11
3.74524
21
-5.25246
0
LINE
8
BLACK
6
CONTINUOUS
10
3.74524
20
-5.25246
11
3.74899
21
-5.23371
0
LINE
8
BLACK
6
CONTINUOUS
10
3.74899
20
-5.23371
11
3.75274
21
-5.22246
0
LINE
8
BLACK
6
CONTINUOUS
10
3.75274
20
-5.22246
11
3.75649
21
-5.21496
0
LINE
8
BLACK
6
CONTINUOUS
10
3.75649
20
-5.21496
11
3.76399
21
-5.20371
0
LINE
8
BLACK
6
CONTINUOUS
10
3.76399
20
-5.20371
11
3.76774
21
-5.19997
0
LINE
8
BLACK
6
CONTINUOUS
10
3.79399
20
-5.21871
11
3.79774
21
-5.21496
0
LINE
8
BLACK
6
CONTINUOUS
10
3.79774
20
-5.21496
11
3.80524
21
-5.21121
0
LINE
8
BLACK
6
CONTINUOUS
10
3.80524
20
-5.21121
11
3.82398
21
-5.21121
0
LINE
8
BLACK
6
CONTINUOUS
10
3.82398
20
-5.21121
11
3.83148
21
-5.21496
0
LINE
8
BLACK
6
CONTINUOUS
10
3.83148
20
-5.21496
11
3.83523
21
-5.21871
0
LINE
8
BLACK
6
CONTINUOUS
10
3.83523
20
-5.21871
11
3.83898
21
-5.22621
0
LINE
8
BLACK
6
CONTINUOUS
10
3.83898
20
-5.22621
11
3.83898
21
-5.23371
0
LINE
8
BLACK
6
CONTINUOUS
10
3.83898
20
-5.23371
11
3.83523
21
-5.24496
0
LINE
8
BLACK
6
CONTINUOUS
10
3.83523
20
-5.24496
11
3.79024
21
-5.28995
0
LINE
8
BLACK
6
CONTINUOUS
10
3.79024
20
-5.28995
11
3.83898
21
-5.28995
0
LINE
8
BLACK
6
CONTINUOUS
10
3.93272
20
-5.28995
11
3.93272
21
-5.21121
0
LINE
8
BLACK
6
CONTINUOUS
10
3.96647
20
-5.28995
11
3.96647
21
-5.24871
0
LINE
8
BLACK
6
CONTINUOUS
10
3.96647
20
-5.24871
11
3.96272
21
-5.24121
0
LINE
8
BLACK
6
CONTINUOUS
10
3.96272
20
-5.24121
11
3.95522
21
-5.23746
0
LINE
8
BLACK
6
CONTINUOUS
10
3.95522
20
-5.23746
11
3.94397
21
-5.23746
0
LINE
8
BLACK
6
CONTINUOUS
10
3.94397
20
-5.23746
11
3.93647
21
-5.24121
0
LINE
8
BLACK
6
CONTINUOUS
10
3.93647
20
-5.24121
11
3.93272
21
-5.24496
0
LINE
8
BLACK
6
CONTINUOUS
10
4.01521
20
-5.28995
11
4.00771
21
-5.2862
0
LINE
8
BLACK
6
CONTINUOUS
10
4.00771
20
-5.2862
11
4.00396
21
-5.28246
0
LINE
8
BLACK
6
CONTINUOUS
10
4.00396
20
-5.28246
11
4.00021
21
-5.27496
0
LINE
8
BLACK
6
CONTINUOUS
10
4.00021
20
-5.27496
11
4.00021
21
-5.25246
0
LINE
8
BLACK
6
CONTINUOUS
10
4.00021
20
-5.25246
11
4.00396
21
-5.24496
0
LINE
8
BLACK
6
CONTINUOUS
10
4.00396
20
-5.24496
11
4.00771
21
-5.24121
0
LINE
8
BLACK
6
CONTINUOUS
10
4.00771
20
-5.24121
11
4.01521
21
-5.23746
0
LINE
8
BLACK
6
CONTINUOUS
10
4.01521
20
-5.23746
11
4.02646
21
-5.23746
0
LINE
8
BLACK
6
CONTINUOUS
10
4.02646
20
-5.23746
11
4.03396
21
-5.24121
0
LINE
8
BLACK
6
CONTINUOUS
10
4.03396
20
-5.24121
11
4.03771
21
-5.24496
0
LINE
8
BLACK
6
CONTINUOUS
10
4.03771
20
-5.24496
11
4.04146
21
-5.25246
0
LINE
8
BLACK
6
CONTINUOUS
10
4.04146
20
-5.25246
11
4.04146
21
-5.27496
0
LINE
8
BLACK
6
CONTINUOUS
10
4.04146
20
-5.27496
11
4.03771
21
-5.28246
0
LINE
8
BLACK
6
CONTINUOUS
10
4.03771
20
-5.28246
11
4.03396
21
-5.2862
0
LINE
8
BLACK
6
CONTINUOUS
10
4.03396
20
-5.2862
11
4.02646
21
-5.28995
0
LINE
8
BLACK
6
CONTINUOUS
10
4.02646
20
-5.28995
11
4.01521
21
-5.28995
0
LINE
8
BLACK
6
CONTINUOUS
10
4.08645
20
-5.28995
11
4.07895
21
-5.2862
0
LINE
8
BLACK
6
CONTINUOUS
10
4.07895
20
-5.2862
11
4.0752
21
-5.27871
0
LINE
8
BLACK
6
CONTINUOUS
10
4.0752
20
-5.27871
11
4.0752
21
-5.21121
0
LINE
8
BLACK
6
CONTINUOUS
10
4.14644
20
-5.2862
11
4.13894
21
-5.28995
0
LINE
8
BLACK
6
CONTINUOUS
10
4.13894
20
-5.28995
11
4.12395
21
-5.28995
0
LINE
8
BLACK
6
CONTINUOUS
10
4.12395
20
-5.28995
11
4.11645
21
-5.2862
0
LINE
8
BLACK
6
CONTINUOUS
10
4.11645
20
-5.2862
11
4.1127
21
-5.27871
0
LINE
8
BLACK
6
CONTINUOUS
10
4.1127
20
-5.27871
11
4.1127
21
-5.24871
0
LINE
8
BLACK
6
CONTINUOUS
10
4.1127
20
-5.24871
11
4.11645
21
-5.24121
0
LINE
8
BLACK
6
CONTINUOUS
10
4.11645
20
-5.24121
11
4.12395
21
-5.23746
0
LINE
8
BLACK
6
CONTINUOUS
10
4.12395
20
-5.23746
11
4.13894
21
-5.23746
0
LINE
8
BLACK
6
CONTINUOUS
10
4.13894
20
-5.23746
11
4.14644
21
-5.24121
0
LINE
8
BLACK
6
CONTINUOUS
10
4.14644
20
-5.24121
11
4.15019
21
-5.24871
0
LINE
8
BLACK
6
CONTINUOUS
10
4.15019
20
-5.24871
11
4.15019
21
-5.25621
0
LINE
8
BLACK
6
CONTINUOUS
10
4.15019
20
-5.25621
11
4.1127
21
-5.26371
0
LINE
8
BLACK
6
CONTINUOUS
10
4.18019
20
-5.2862
11
4.18769
21
-5.28995
0
LINE
8
BLACK
6
CONTINUOUS
10
4.18769
20
-5.28995
11
4.20269
21
-5.28995
0
LINE
8
BLACK
6
CONTINUOUS
10
4.20269
20
-5.28995
11
4.21019
21
-5.2862
0
LINE
8
BLACK
6
CONTINUOUS
10
4.21019
20
-5.2862
11
4.21394
21
-5.27871
0
LINE
8
BLACK
6
CONTINUOUS
10
4.21394
20
-5.27871
11
4.21394
21
-5.27496
0
LINE
8
BLACK
6
CONTINUOUS
10
4.21394
20
-5.27496
11
4.21019
21
-5.26746
0
LINE
8
BLACK
6
CONTINUOUS
10
4.21019
20
-5.26746
11
4.20269
21
-5.26371
0
LINE
8
BLACK
6
CONTINUOUS
10
4.20269
20
-5.26371
11
4.19144
21
-5.26371
0
LINE
8
BLACK
6
CONTINUOUS
10
4.19144
20
-5.26371
11
4.18394
21
-5.25996
0
LINE
8
BLACK
6
CONTINUOUS
10
4.18394
20
-5.25996
11
4.18019
21
-5.25246
0
LINE
8
BLACK
6
CONTINUOUS
10
4.18019
20
-5.25246
11
4.18019
21
-5.24871
0
LINE
8
BLACK
6
CONTINUOUS
10
4.18019
20
-5.24871
11
4.18394
21
-5.24121
0
LINE
8
BLACK
6
CONTINUOUS
10
4.18394
20
-5.24121
11
4.19144
21
-5.23746
0
LINE
8
BLACK
6
CONTINUOUS
10
4.19144
20
-5.23746
11
4.20269
21
-5.23746
0
LINE
8
BLACK
6
CONTINUOUS
10
4.20269
20
-5.23746
11
4.21019
21
-5.24121
0
LINE
8
BLACK
6
CONTINUOUS
10
4.24018
20
-5.31995
11
4.24393
21
-5.3162
0
LINE
8
BLACK
6
CONTINUOUS
10
4.24393
20
-5.3162
11
4.25143
21
-5.30495
0
LINE
8
BLACK
6
CONTINUOUS
10
4.25143
20
-5.30495
11
4.25518
21
-5.29745
0
LINE
8
BLACK
6
CONTINUOUS
10
4.25518
20
-5.29745
11
4.25893
21
-5.2862
0
LINE
8
BLACK
6
CONTINUOUS
10
4.25893
20
-5.2862
11
4.26268
21
-5.26746
0
LINE
8
BLACK
6
CONTINUOUS
10
4.26268
20
-5.26746
11
4.26268
21
-5.25246
0
LINE
8
BLACK
6
CONTINUOUS
10
4.26268
20
-5.25246
11
4.25893
21
-5.23371
0
LINE
8
BLACK
6
CONTINUOUS
10
4.25893
20
-5.23371
11
4.25518
21
-5.22246
0
LINE
8
BLACK
6
CONTINUOUS
10
4.25518
20
-5.22246
11
4.25143
21
-5.21496
0
LINE
8
BLACK
6
CONTINUOUS
10
4.25143
20
-5.21496
11
4.24393
21
-5.20371
0
LINE
8
BLACK
6
CONTINUOUS
10
4.24393
20
-5.20371
11
4.24018
21
-5.19997
0
LINE
8
BLACK
6
CONTINUOUS
10
4.38266
20
-5.31995
11
4.37891
21
-5.3162
0
LINE
8
BLACK
6
CONTINUOUS
10
4.37891
20
-5.3162
11
4.37142
21
-5.30495
0
LINE
8
BLACK
6
CONTINUOUS
10
4.37142
20
-5.30495
11
4.36767
21
-5.29745
0
LINE
8
BLACK
6
CONTINUOUS
10
4.36767
20
-5.29745
11
4.36392
21
-5.2862
0
LINE
8
BLACK
6
CONTINUOUS
10
4.36392
20
-5.2862
11
4.36017
21
-5.26746
0
LINE
8
BLACK
6
CONTINUOUS
10
4.36017
20
-5.26746
11
4.36017
21
-5.25246
0
LINE
8
BLACK
6
CONTINUOUS
10
4.36017
20
-5.25246
11
4.36392
21
-5.23371
0
LINE
8
BLACK
6
CONTINUOUS
10
4.36392
20
-5.23371
11
4.36767
21
-5.22246
0
LINE
8
BLACK
6
CONTINUOUS
10
4.36767
20
-5.22246
11
4.37142
21
-5.21496
0
LINE
8
BLACK
6
CONTINUOUS
10
4.37142
20
-5.21496
11
4.37891
21
-5.20371
0
LINE
8
BLACK
6
CONTINUOUS
10
4.37891
20
-5.20371
11
4.38266
21
-5.19997
0
LINE
8
BLACK
6
CONTINUOUS
10
4.41266
20
-5.23746
11
4.41266
21
-5.28995
0
LINE
8
BLACK
6
CONTINUOUS
10
4.41266
20
-5.24496
11
4.41641
21
-5.24121
0
LINE
8
BLACK
6
CONTINUOUS
10
4.41641
20
-5.24121
11
4.42391
21
-5.23746
0
LINE
8
BLACK
6
CONTINUOUS
10
4.42391
20
-5.23746
11
4.43516
21
-5.23746
0
LINE
8
BLACK
6
CONTINUOUS
10
4.43516
20
-5.23746
11
4.44266
21
-5.24121
0
LINE
8
BLACK
6
CONTINUOUS
10
4.44266
20
-5.24121
11
4.44641
21
-5.24871
0
LINE
8
BLACK
6
CONTINUOUS
10
4.44641
20
-5.24871
11
4.44641
21
-5.28995
0
LINE
8
BLACK
6
CONTINUOUS
10
4.49515
20
-5.28995
11
4.48765
21
-5.2862
0
LINE
8
BLACK
6
CONTINUOUS
10
4.48765
20
-5.2862
11
4.4839
21
-5.28246
0
LINE
8
BLACK
6
CONTINUOUS
10
4.4839
20
-5.28246
11
4.48015
21
-5.27496
0
LINE
8
BLACK
6
CONTINUOUS
10
4.48015
20
-5.27496
11
4.48015
21
-5.25246
0
LINE
8
BLACK
6
CONTINUOUS
10
4.48015
20
-5.25246
11
4.4839
21
-5.24496
0
LINE
8
BLACK
6
CONTINUOUS
10
4.4839
20
-5.24496
11
4.48765
21
-5.24121
0
LINE
8
BLACK
6
CONTINUOUS
10
4.48765
20
-5.24121
11
4.49515
21
-5.23746
0
LINE
8
BLACK
6
CONTINUOUS
10
4.49515
20
-5.23746
11
4.5064
21
-5.23746
0
LINE
8
BLACK
6
CONTINUOUS
10
4.5064
20
-5.23746
11
4.5139
21
-5.24121
0
LINE
8
BLACK
6
CONTINUOUS
10
4.5139
20
-5.24121
11
4.51765
21
-5.24496
0
LINE
8
BLACK
6
CONTINUOUS
10
4.51765
20
-5.24496
11
4.5214
21
-5.25246
0
LINE
8
BLACK
6
CONTINUOUS
10
4.5214
20
-5.25246
11
4.5214
21
-5.27496
0
LINE
8
BLACK
6
CONTINUOUS
10
4.5214
20
-5.27496
11
4.51765
21
-5.28246
0
LINE
8
BLACK
6
CONTINUOUS
10
4.51765
20
-5.28246
11
4.5139
21
-5.2862
0
LINE
8
BLACK
6
CONTINUOUS
10
4.5139
20
-5.2862
11
4.5064
21
-5.28995
0
LINE
8
BLACK
6
CONTINUOUS
10
4.5064
20
-5.28995
11
4.49515
21
-5.28995
0
LINE
8
BLACK
6
CONTINUOUS
10
4.54389
20
-5.23746
11
4.57389
21
-5.23746
0
LINE
8
BLACK
6
CONTINUOUS
10
4.55514
20
-5.21121
11
4.55514
21
-5.27871
0
LINE
8
BLACK
6
CONTINUOUS
10
4.55514
20
-5.27871
11
4.55889
21
-5.2862
0
LINE
8
BLACK
6
CONTINUOUS
10
4.55889
20
-5.2862
11
4.56639
21
-5.28995
0
LINE
8
BLACK
6
CONTINUOUS
10
4.56639
20
-5.28995
11
4.57389
21
-5.28995
0
LINE
8
BLACK
6
CONTINUOUS
10
4.66013
20
-5.23746
11
4.66013
21
-5.3162
0
LINE
8
BLACK
6
CONTINUOUS
10
4.66013
20
-5.24121
11
4.66763
21
-5.23746
0
LINE
8
BLACK
6
CONTINUOUS
10
4.66763
20
-5.23746
11
4.68263
21
-5.23746
0
LINE
8
BLACK
6
CONTINUOUS
10
4.68263
20
-5.23746
11
4.69013
21
-5.24121
0
LINE
8
BLACK
6
CONTINUOUS
10
4.69013
20
-5.24121
11
4.69388
21
-5.24496
0
LINE
8
BLACK
6
CONTINUOUS
10
4.69388
20
-5.24496
11
4.69763
21
-5.25246
0
LINE
8
BLACK
6
CONTINUOUS
10
4.69763
20
-5.25246
11
4.69763
21
-5.27496
0
LINE
8
BLACK
6
CONTINUOUS
10
4.69763
20
-5.27496
11
4.69388
21
-5.28246
0
LINE
8
BLACK
6
CONTINUOUS
10
4.69388
20
-5.28246
11
4.69013
21
-5.2862
0
LINE
8
BLACK
6
CONTINUOUS
10
4.69013
20
-5.2862
11
4.68263
21
-5.28995
0
LINE
8
BLACK
6
CONTINUOUS
10
4.68263
20
-5.28995
11
4.66763
21
-5.28995
0
LINE
8
BLACK
6
CONTINUOUS
10
4.66763
20
-5.28995
11
4.66013
21
-5.2862
0
LINE
8
BLACK
6
CONTINUOUS
10
4.74262
20
-5.28995
11
4.73512
21
-5.2862
0
LINE
8
BLACK
6
CONTINUOUS
10
4.73512
20
-5.2862
11
4.73137
21
-5.27871
0
LINE
8
BLACK
6
CONTINUOUS
10
4.73137
20
-5.27871
11
4.73137
21
-5.21121
0
LINE
8
BLACK
6
CONTINUOUS
10
4.80636
20
-5.28995
11
4.80636
21
-5.24871
0
LINE
8
BLACK
6
CONTINUOUS
10
4.80636
20
-5.24871
11
4.80261
21
-5.24121
0
LINE
8
BLACK
6
CONTINUOUS
10
4.80261
20
-5.24121
11
4.79511
21
-5.23746
0
LINE
8
BLACK
6
CONTINUOUS
10
4.79511
20
-5.23746
11
4.78011
21
-5.23746
0
LINE
8
BLACK
6
CONTINUOUS
10
4.78011
20
-5.23746
11
4.77262
21
-5.24121
0
LINE
8
BLACK
6
CONTINUOUS
10
4.80636
20
-5.2862
11
4.79886
21
-5.28995
0
LINE
8
BLACK
6
CONTINUOUS
10
4.79886
20
-5.28995
11
4.78011
21
-5.28995
0
LINE
8
BLACK
6
CONTINUOUS
10
4.78011
20
-5.28995
11
4.77262
21
-5.2862
0
LINE
8
BLACK
6
CONTINUOUS
10
4.77262
20
-5.2862
11
4.76887
21
-5.27871
0
LINE
8
BLACK
6
CONTINUOUS
10
4.76887
20
-5.27871
11
4.76887
21
-5.27121
0
LINE
8
BLACK
6
CONTINUOUS
10
4.76887
20
-5.27121
11
4.77262
21
-5.26371
0
LINE
8
BLACK
6
CONTINUOUS
10
4.77262
20
-5.26371
11
4.78011
21
-5.25996
0
LINE
8
BLACK
6
CONTINUOUS
10
4.78011
20
-5.25996
11
4.79886
21
-5.25996
0
LINE
8
BLACK
6
CONTINUOUS
10
4.79886
20
-5.25996
11
4.80636
21
-5.25621
0
LINE
8
BLACK
6
CONTINUOUS
10
4.83261
20
-5.23746
11
4.8626
21
-5.23746
0
LINE
8
BLACK
6
CONTINUOUS
10
4.84386
20
-5.21121
11
4.84386
21
-5.27871
0
LINE
8
BLACK
6
CONTINUOUS
10
4.84386
20
-5.27871
11
4.84761
21
-5.2862
0
LINE
8
BLACK
6
CONTINUOUS
10
4.84761
20
-5.2862
11
4.85511
21
-5.28995
0
LINE
8
BLACK
6
CONTINUOUS
10
4.85511
20
-5.28995
11
4.8626
21
-5.28995
0
LINE
8
BLACK
6
CONTINUOUS
10
4.91885
20
-5.2862
11
4.91135
21
-5.28995
0
LINE
8
BLACK
6
CONTINUOUS
10
4.91135
20
-5.28995
11
4.89635
21
-5.28995
0
LINE
8
BLACK
6
CONTINUOUS
10
4.89635
20
-5.28995
11
4.88885
21
-5.2862
0
LINE
8
BLACK
6
CONTINUOUS
10
4.88885
20
-5.2862
11
4.8851
21
-5.27871
0
LINE
8
BLACK
6
CONTINUOUS
10
4.8851
20
-5.27871
11
4.8851
21
-5.24871
0
LINE
8
BLACK
6
CONTINUOUS
10
4.8851
20
-5.24871
11
4.88885
21
-5.24121
0
LINE
8
BLACK
6
CONTINUOUS
10
4.88885
20
-5.24121
11
4.89635
21
-5.23746
0
LINE
8
BLACK
6
CONTINUOUS
10
4.89635
20
-5.23746
11
4.91135
21
-5.23746
0
LINE
8
BLACK
6
CONTINUOUS
10
4.91135
20
-5.23746
11
4.91885
21
-5.24121
0
LINE
8
BLACK
6
CONTINUOUS
10
4.91885
20
-5.24121
11
4.9226
21
-5.24871
0
LINE
8
BLACK
6
CONTINUOUS
10
4.9226
20
-5.24871
11
4.9226
21
-5.25621
0
LINE
8
BLACK
6
CONTINUOUS
10
4.9226
20
-5.25621
11
4.8851
21
-5.26371
0
LINE
8
BLACK
6
CONTINUOUS
10
4.99009
20
-5.28995
11
4.99009
21
-5.21121
0
LINE
8
BLACK
6
CONTINUOUS
10
4.99009
20
-5.2862
11
4.98259
21
-5.28995
0
LINE
8
BLACK
6
CONTINUOUS
10
4.98259
20
-5.28995
11
4.96759
21
-5.28995
0
LINE
8
BLACK
6
CONTINUOUS
10
4.96759
20
-5.28995
11
4.96009
21
-5.2862
0
LINE
8
BLACK
6
CONTINUOUS
10
4.96009
20
-5.2862
11
4.95634
21
-5.28246
0
LINE
8
BLACK
6
CONTINUOUS
10
4.95634
20
-5.28246
11
4.95259
21
-5.27496
0
LINE
8
BLACK
6
CONTINUOUS
10
4.95259
20
-5.27496
11
4.95259
21
-5.25246
0
LINE
8
BLACK
6
CONTINUOUS
10
4.95259
20
-5.25246
11
4.95634
21
-5.24496
0
LINE
8
BLACK
6
CONTINUOUS
10
4.95634
20
-5.24496
11
4.96009
21
-5.24121
0
LINE
8
BLACK
6
CONTINUOUS
10
4.96009
20
-5.24121
11
4.96759
21
-5.23746
0
LINE
8
BLACK
6
CONTINUOUS
10
4.96759
20
-5.23746
11
4.98259
21
-5.23746
0
LINE
8
BLACK
6
CONTINUOUS
10
4.98259
20
-5.23746
11
4.99009
21
-5.24121
0
LINE
8
BLACK
6
CONTINUOUS
10
5.02008
20
-5.31995
11
5.02383
21
-5.3162
0
LINE
8
BLACK
6
CONTINUOUS
10
5.02383
20
-5.3162
11
5.03133
21
-5.30495
0
LINE
8
BLACK
6
CONTINUOUS
10
5.03133
20
-5.30495
11
5.03508
21
-5.29745
0
LINE
8
BLACK
6
CONTINUOUS
10
5.03508
20
-5.29745
11
5.03883
21
-5.2862
0
LINE
8
BLACK
6
CONTINUOUS
10
5.03883
20
-5.2862
11
5.04258
21
-5.26746
0
LINE
8
BLACK
6
CONTINUOUS
10
5.04258
20
-5.26746
11
5.04258
21
-5.25246
0
LINE
8
BLACK
6
CONTINUOUS
10
5.04258
20
-5.25246
11
5.03883
21
-5.23371
0
LINE
8
BLACK
6
CONTINUOUS
10
5.03883
20
-5.23371
11
5.03508
21
-5.22246
0
LINE
8
BLACK
6
CONTINUOUS
10
5.03508
20
-5.22246
11
5.03133
21
-5.21496
0
LINE
8
BLACK
6
CONTINUOUS
10
5.03133
20
-5.21496
11
5.02383
21
-5.20371
0
LINE
8
BLACK
6
CONTINUOUS
10
5.02383
20
-5.20371
11
5.02008
21
-5.19997
0
CIRCLE
8
BLACK
10
2.32087
20
-5.37205
40
0.0393701
0
LINE
8
BLACK
6
CONTINUOUS
10
2.45915
20
-5.33682
11
2.4629
21
-5.33307
0
LINE
8
BLACK
6
CONTINUOUS
10
2.4629
20
-5.33307
11
2.4704
21
-5.32932
0
LINE
8
BLACK
6
CONTINUOUS
10
2.4704
20
-5.32932
11
2.48915
21
-5.32932
0
LINE
8
BLACK
6
CONTINUOUS
10
2.48915
20
-5.32932
11
2.49665
21
-5.33307
0
LINE
8
BLACK
6
CONTINUOUS
10
2.49665
20
-5.33307
11
2.5004
21
-5.33682
0
LINE
8
BLACK
6
CONTINUOUS
10
2.5004
20
-5.33682
11
2.50415
21
-5.34432
0
LINE
8
BLACK
6
CONTINUOUS
10
2.50415
20
-5.34432
11
2.50415
21
-5.35182
0
LINE
8
BLACK
6
CONTINUOUS
10
2.50415
20
-5.35182
11
2.5004
21
-5.36307
0
LINE
8
BLACK
6
CONTINUOUS
10
2.5004
20
-5.36307
11
2.45541
21
-5.40806
0
LINE
8
BLACK
6
CONTINUOUS
10
2.45541
20
-5.40806
11
2.50415
21
-5.40806
0
LINE
8
BLACK
6
CONTINUOUS
10
2.53789
20
-5.40057
11
2.54164
21
-5.40431
0
LINE
8
BLACK
6
CONTINUOUS
10
2.54164
20
-5.40431
11
2.53789
21
-5.40806
0
LINE
8
BLACK
6
CONTINUOUS
10
2.53789
20
-5.40806
11
2.53415
21
-5.40431
0
LINE
8
BLACK
6
CONTINUOUS
10
2.53415
20
-5.40431
11
2.53789
21
-5.40057
0
LINE
8
BLACK
6
CONTINUOUS
10
2.53789
20
-5.40057
11
2.53789
21
-5.40806
0
LINE
8
BLACK
6
CONTINUOUS
10
2.61289
20
-5.32932
11
2.57539
21
-5.32932
0
LINE
8
BLACK
6
CONTINUOUS
10
2.57539
20
-5.32932
11
2.57164
21
-5.36682
0
LINE
8
BLACK
6
CONTINUOUS
10
2.57164
20
-5.36682
11
2.57539
21
-5.36307
0
LINE
8
BLACK
6
CONTINUOUS
10
2.57539
20
-5.36307
11
2.58289
21
-5.35932
0
LINE
8
BLACK
6
CONTINUOUS
10
2.58289
20
-5.35932
11
2.60164
21
-5.35932
0
LINE
8
BLACK
6
CONTINUOUS
10
2.60164
20
-5.35932
11
2.60914
21
-5.36307
0
LINE
8
BLACK
6
CONTINUOUS
10
2.60914
20
-5.36307
11
2.61289
21
-5.36682
0
LINE
8
BLACK
6
CONTINUOUS
10
2.61289
20
-5.36682
11
2.61664
21
-5.37432
0
LINE
8
BLACK
6
CONTINUOUS
10
2.61664
20
-5.37432
11
2.61664
21
-5.39307
0
LINE
8
BLACK
6
CONTINUOUS
10
2.61664
20
-5.39307
11
2.61289
21
-5.40057
0
LINE
8
BLACK
6
CONTINUOUS
10
2.61289
20
-5.40057
11
2.60914
21
-5.40431
0
LINE
8
BLACK
6
CONTINUOUS
10
2.60914
20
-5.40431
11
2.60164
21
-5.40806
0
LINE
8
BLACK
6
CONTINUOUS
10
2.60164
20
-5.40806
11
2.58289
21
-5.40806
0
LINE
8
BLACK
6
CONTINUOUS
10
2.58289
20
-5.40806
11
2.57539
21
-5.40431
0
LINE
8
BLACK
6
CONTINUOUS
10
2.57539
20
-5.40431
11
2.57164
21
-5.40057
0
LINE
8
BLACK
6
CONTINUOUS
10
2.66538
20
-5.32932
11
2.67288
21
-5.32932
0
LINE
8
BLACK
6
CONTINUOUS
10
2.67288
20
-5.32932
11
2.68038
21
-5.33307
0
LINE
8
BLACK
6
CONTINUOUS
10
2.68038
20
-5.33307
11
2.68413
21
-5.33682
0
LINE
8
BLACK
6
CONTINUOUS
10
2.68413
20
-5.33682
11
2.68788
21
-5.34432
0
LINE
8
BLACK
6
CONTINUOUS
10
2.68788
20
-5.34432
11
2.69163
21
-5.35932
0
LINE
8
BLACK
6
CONTINUOUS
10
2.69163
20
-5.35932
11
2.69163
21
-5.37807
0
LINE
8
BLACK
6
CONTINUOUS
10
2.69163
20
-5.37807
11
2.68788
21
-5.39307
0
LINE
8
BLACK
6
CONTINUOUS
10
2.68788
20
-5.39307
11
2.68413
21
-5.40057
0
LINE
8
BLACK
6
CONTINUOUS
10
2.68413
20
-5.40057
11
2.68038
21
-5.40431
0
LINE
8
BLACK
6
CONTINUOUS
10
2.68038
20
-5.40431
11
2.67288
21
-5.40806
0
LINE
8
BLACK
6
CONTINUOUS
10
2.67288
20
-5.40806
11
2.66538
21
-5.40806
0
LINE
8
BLACK
6
CONTINUOUS
10
2.66538
20
-5.40806
11
2.65788
21
-5.40431
0
LINE
8
BLACK
6
CONTINUOUS
10
2.65788
20
-5.40431
11
2.65413
21
-5.40057
0
LINE
8
BLACK
6
CONTINUOUS
10
2.65413
20
-5.40057
11
2.65038
21
-5.39307
0
LINE
8
BLACK
6
CONTINUOUS
10
2.65038
20
-5.39307
11
2.64663
21
-5.37807
0
LINE
8
BLACK
6
CONTINUOUS
10
2.64663
20
-5.37807
11
2.64663
21
-5.35932
0
LINE
8
BLACK
6
CONTINUOUS
10
2.64663
20
-5.35932
11
2.65038
21
-5.34432
0
LINE
8
BLACK
6
CONTINUOUS
10
2.65038
20
-5.34432
11
2.65413
21
-5.33682
0
LINE
8
BLACK
6
CONTINUOUS
10
2.65413
20
-5.33682
11
2.65788
21
-5.33307
0
LINE
8
BLACK
6
CONTINUOUS
10
2.65788
20
-5.33307
11
2.66538
21
-5.32932
0
LINE
8
BLACK
6
CONTINUOUS
10
2.74037
20
-5.32932
11
2.74787
21
-5.32932
0
LINE
8
BLACK
6
CONTINUOUS
10
2.74787
20
-5.32932
11
2.75537
21
-5.33307
0
LINE
8
BLACK
6
CONTINUOUS
10
2.75537
20
-5.33307
11
2.75912
21
-5.33682
0
LINE
8
BLACK
6
CONTINUOUS
10
2.75912
20
-5.33682
11
2.76287
21
-5.34432
0
LINE
8
BLACK
6
CONTINUOUS
10
2.76287
20
-5.34432
11
2.76662
21
-5.35932
0
LINE
8
BLACK
6
CONTINUOUS
10
2.76662
20
-5.35932
11
2.76662
21
-5.37807
0
LINE
8
BLACK
6
CONTINUOUS
10
2.76662
20
-5.37807
11
2.76287
21
-5.39307
0
LINE
8
BLACK
6
CONTINUOUS
10
2.76287
20
-5.39307
11
2.75912
21
-5.40057
0
LINE
8
BLACK
6
CONTINUOUS
10
2.75912
20
-5.40057
11
2.75537
21
-5.40431
0
LINE
8
BLACK
6
CONTINUOUS
10
2.75537
20
-5.40431
11
2.74787
21
-5.40806
0
LINE
8
BLACK
6
CONTINUOUS
10
2.74787
20
-5.40806
11
2.74037
21
-5.40806
0
LINE
8
BLACK
6
CONTINUOUS
10
2.74037
20
-5.40806
11
2.73287
21
-5.40431
0
LINE
8
BLACK
6
CONTINUOUS
10
2.73287
20
-5.40431
11
2.72912
21
-5.40057
0
LINE
8
BLACK
6
CONTINUOUS
10
2.72912
20
-5.40057
11
2.72537
21
-5.39307
0
LINE
8
BLACK
6
CONTINUOUS
10
2.72537
20
-5.39307
11
2.72162
21
-5.37807
0
LINE
8
BLACK
6
CONTINUOUS
10
2.72162
20
-5.37807
11
2.72162
21
-5.35932
0
LINE
8
BLACK
6
CONTINUOUS
10
2.72162
20
-5.35932
11
2.72537
21
-5.34432
0
LINE
8
BLACK
6
CONTINUOUS
10
2.72537
20
-5.34432
11
2.72912
21
-5.33682
0
LINE
8
BLACK
6
CONTINUOUS
10
2.72912
20
-5.33682
11
2.73287
21
-5.33307
0
LINE
8
BLACK
6
CONTINUOUS
10
2.73287
20
-5.33307
11
2.74037
21
-5.32932
0
LINE
8
BLACK
6
CONTINUOUS
10
2.80036
20
-5.40806
11
2.80036
21
-5.35557
0
LINE
8
BLACK
6
CONTINUOUS
10
2.80036
20
-5.36307
11
2.80411
21
-5.35932
0
LINE
8
BLACK
6
CONTINUOUS
10
2.80411
20
-5.35932
11
2.81161
21
-5.35557
0
LINE
8
BLACK
6
CONTINUOUS
10
2.81161
20
-5.35557
11
2.82286
21
-5.35557
0
LINE
8
BLACK
6
CONTINUOUS
10
2.82286
20
-5.35557
11
2.83036
21
-5.35932
0
LINE
8
BLACK
6
CONTINUOUS
10
2.83036
20
-5.35932
11
2.83411
21
-5.36682
0
LINE
8
BLACK
6
CONTINUOUS
10
2.83411
20
-5.36682
11
2.83411
21
-5.40806
0
LINE
8
BLACK
6
CONTINUOUS
10
2.83411
20
-5.36682
11
2.83786
21
-5.35932
0
LINE
8
BLACK
6
CONTINUOUS
10
2.83786
20
-5.35932
11
2.84536
21
-5.35557
0
LINE
8
BLACK
6
CONTINUOUS
10
2.84536
20
-5.35557
11
2.85661
21
-5.35557
0
LINE
8
BLACK
6
CONTINUOUS
10
2.85661
20
-5.35557
11
2.8641
21
-5.35932
0
LINE
8
BLACK
6
CONTINUOUS
10
2.8641
20
-5.35932
11
2.86785
21
-5.36682
0
LINE
8
BLACK
6
CONTINUOUS
10
2.86785
20
-5.36682
11
2.86785
21
-5.40806
0
LINE
8
BLACK
6
CONTINUOUS
10
2.90535
20
-5.40806
11
2.90535
21
-5.35557
0
LINE
8
BLACK
6
CONTINUOUS
10
2.90535
20
-5.36307
11
2.9091
21
-5.35932
0
LINE
8
BLACK
6
CONTINUOUS
10
2.9091
20
-5.35932
11
2.9166
21
-5.35557
0
LINE
8
BLACK
6
CONTINUOUS
10
2.9166
20
-5.35557
11
2.92785
21
-5.35557
0
LINE
8
BLACK
6
CONTINUOUS
10
2.92785
20
-5.35557
11
2.93535
21
-5.35932
0
LINE
8
BLACK
6
CONTINUOUS
10
2.93535
20
-5.35932
11
2.93909
21
-5.36682
0
LINE
8
BLACK
6
CONTINUOUS
10
2.93909
20
-5.36682
11
2.93909
21
-5.40806
0
LINE
8
BLACK
6
CONTINUOUS
10
2.93909
20
-5.36682
11
2.94284
21
-5.35932
0
LINE
8
BLACK
6
CONTINUOUS
10
2.94284
20
-5.35932
11
2.95034
21
-5.35557
0
LINE
8
BLACK
6
CONTINUOUS
10
2.95034
20
-5.35557
11
2.96159
21
-5.35557
0
LINE
8
BLACK
6
CONTINUOUS
10
2.96159
20
-5.35557
11
2.96909
21
-5.35932
0
LINE
8
BLACK
6
CONTINUOUS
10
2.96909
20
-5.35932
11
2.97284
21
-5.36682
0
LINE
8
BLACK
6
CONTINUOUS
10
2.97284
20
-5.36682
11
2.97284
21
-5.40806
0
LINE
8
BLACK
6
CONTINUOUS
10
3.12657
20
-5.32557
11
3.05908
21
-5.42681
0
LINE
8
BLACK
6
CONTINUOUS
10
3.22781
20
-5.32932
11
3.23531
21
-5.32932
0
LINE
8
BLACK
6
CONTINUOUS
10
3.23531
20
-5.32932
11
3.24281
21
-5.33307
0
LINE
8
BLACK
6
CONTINUOUS
10
3.24281
20
-5.33307
11
3.24656
21
-5.33682
0
LINE
8
BLACK
6
CONTINUOUS
10
3.24656
20
-5.33682
11
3.25031
21
-5.34432
0
LINE
8
BLACK
6
CONTINUOUS
10
3.25031
20
-5.34432
11
3.25406
21
-5.35932
0
LINE
8
BLACK
6
CONTINUOUS
10
3.25406
20
-5.35932
11
3.25406
21
-5.37807
0
LINE
8
BLACK
6
CONTINUOUS
10
3.25406
20
-5.37807
11
3.25031
21
-5.39307
0
LINE
8
BLACK
6
CONTINUOUS
10
3.25031
20
-5.39307
11
3.24656
21
-5.40057
0
LINE
8
BLACK
6
CONTINUOUS
10
3.24656
20
-5.40057
11
3.24281
21
-5.40431
0
LINE
8
BLACK
6
CONTINUOUS
10
3.24281
20
-5.40431
11
3.23531
21
-5.40806
0
LINE
8
BLACK
6
CONTINUOUS
10
3.23531
20
-5.40806
11
3.22781
21
-5.40806
0
LINE
8
BLACK
6
CONTINUOUS
10
3.22781
20
-5.40806
11
3.22031
21
-5.40431
0
LINE
8
BLACK
6
CONTINUOUS
10
3.22031
20
-5.40431
11
3.21656
21
-5.40057
0
LINE
8
BLACK
6
CONTINUOUS
10
3.21656
20
-5.40057
11
3.21281
21
-5.39307
0
LINE
8
BLACK
6
CONTINUOUS
10
3.21281
20
-5.39307
11
3.20906
21
-5.37807
0
LINE
8
BLACK
6
CONTINUOUS
10
3.20906
20
-5.37807
11
3.20906
21
-5.35932
0
LINE
8
BLACK
6
CONTINUOUS
10
3.20906
20
-5.35932
11
3.21281
21
-5.34432
0
LINE
8
BLACK
6
CONTINUOUS
10
3.21281
20
-5.34432
11
3.21656
21
-5.33682
0
LINE
8
BLACK
6
CONTINUOUS
10
3.21656
20
-5.33682
11
3.22031
21
-5.33307
0
LINE
8
BLACK
6
CONTINUOUS
10
3.22031
20
-5.33307
11
3.22781
21
-5.32932
0
LINE
8
BLACK
6
CONTINUOUS
10
3.2878
20
-5.40057
11
3.29155
21
-5.40431
0
LINE
8
BLACK
6
CONTINUOUS
10
3.29155
20
-5.40431
11
3.2878
21
-5.40806
0
LINE
8
BLACK
6
CONTINUOUS
10
3.2878
20
-5.40806
11
3.28405
21
-5.40431
0
LINE
8
BLACK
6
CONTINUOUS
10
3.28405
20
-5.40431
11
3.2878
21
-5.40057
0
LINE
8
BLACK
6
CONTINUOUS
10
3.2878
20
-5.40057
11
3.2878
21
-5.40806
0
LINE
8
BLACK
6
CONTINUOUS
10
3.34029
20
-5.32932
11
3.34779
21
-5.32932
0
LINE
8
BLACK
6
CONTINUOUS
10
3.34779
20
-5.32932
11
3.35529
21
-5.33307
0
LINE
8
BLACK
6
CONTINUOUS
10
3.35529
20
-5.33307
11
3.35904
21
-5.33682
0
LINE
8
BLACK
6
CONTINUOUS
10
3.35904
20
-5.33682
11
3.36279
21
-5.34432
0
LINE
8
BLACK
6
CONTINUOUS
10
3.36279
20
-5.34432
11
3.36654
21
-5.35932
0
LINE
8
BLACK
6
CONTINUOUS
10
3.36654
20
-5.35932
11
3.36654
21
-5.37807
0
LINE
8
BLACK
6
CONTINUOUS
10
3.36654
20
-5.37807
11
3.36279
21
-5.39307
0
LINE
8
BLACK
6
CONTINUOUS
10
3.36279
20
-5.39307
11
3.35904
21
-5.40057
0
LINE
8
BLACK
6
CONTINUOUS
10
3.35904
20
-5.40057
11
3.35529
21
-5.40431
0
LINE
8
BLACK
6
CONTINUOUS
10
3.35529
20
-5.40431
11
3.34779
21
-5.40806
0
LINE
8
BLACK
6
CONTINUOUS
10
3.34779
20
-5.40806
11
3.34029
21
-5.40806
0
LINE
8
BLACK
6
CONTINUOUS
10
3.34029
20
-5.40806
11
3.3328
21
-5.40431
0
LINE
8
BLACK
6
CONTINUOUS
10
3.3328
20
-5.40431
11
3.32905
21
-5.40057
0
LINE
8
BLACK
6
CONTINUOUS
10
3.32905
20
-5.40057
11
3.3253
21
-5.39307
0
LINE
8
BLACK
6
CONTINUOUS
10
3.3253
20
-5.39307
11
3.32155
21
-5.37807
0
LINE
8
BLACK
6
CONTINUOUS
10
3.32155
20
-5.37807
11
3.32155
21
-5.35932
0
LINE
8
BLACK
6
CONTINUOUS
10
3.32155
20
-5.35932
11
3.3253
21
-5.34432
0
LINE
8
BLACK
6
CONTINUOUS
10
3.3253
20
-5.34432
11
3.32905
21
-5.33682
0
LINE
8
BLACK
6
CONTINUOUS
10
3.32905
20
-5.33682
11
3.3328
21
-5.33307
0
LINE
8
BLACK
6
CONTINUOUS
10
3.3328
20
-5.33307
11
3.34029
21
-5.32932
0
LINE
8
BLACK
6
CONTINUOUS
10
3.40404
20
-5.40806
11
3.41903
21
-5.40806
0
LINE
8
BLACK
6
CONTINUOUS
10
3.41903
20
-5.40806
11
3.42653
21
-5.40431
0
LINE
8
BLACK
6
CONTINUOUS
10
3.42653
20
-5.40431
11
3.43028
21
-5.40057
0
LINE
8
BLACK
6
CONTINUOUS
10
3.43028
20
-5.40057
11
3.43778
21
-5.38932
0
LINE
8
BLACK
6
CONTINUOUS
10
3.43778
20
-5.38932
11
3.44153
21
-5.37432
0
LINE
8
BLACK
6
CONTINUOUS
10
3.44153
20
-5.37432
11
3.44153
21
-5.34432
0
LINE
8
BLACK
6
CONTINUOUS
10
3.44153
20
-5.34432
11
3.43778
21
-5.33682
0
LINE
8
BLACK
6
CONTINUOUS
10
3.43778
20
-5.33682
11
3.43403
21
-5.33307
0
LINE
8
BLACK
6
CONTINUOUS
10
3.43403
20
-5.33307
11
3.42653
21
-5.32932
0
LINE
8
BLACK
6
CONTINUOUS
10
3.42653
20
-5.32932
11
3.41154
21
-5.32932
0
LINE
8
BLACK
6
CONTINUOUS
10
3.41154
20
-5.32932
11
3.40404
21
-5.33307
0
LINE
8
BLACK
6
CONTINUOUS
10
3.40404
20
-5.33307
11
3.40029
21
-5.33682
0
LINE
8
BLACK
6
CONTINUOUS
10
3.40029
20
-5.33682
11
3.39654
21
-5.34432
0
LINE
8
BLACK
6
CONTINUOUS
10
3.39654
20
-5.34432
11
3.39654
21
-5.36307
0
LINE
8
BLACK
6
CONTINUOUS
10
3.39654
20
-5.36307
11
3.40029
21
-5.37057
0
LINE
8
BLACK
6
CONTINUOUS
10
3.40029
20
-5.37057
11
3.40404
21
-5.37432
0
LINE
8
BLACK
6
CONTINUOUS
10
3.40404
20
-5.37432
11
3.41154
21
-5.37807
0
LINE
8
BLACK
6
CONTINUOUS
10
3.41154
20
-5.37807
11
3.42653
21
-5.37807
0
LINE
8
BLACK
6
CONTINUOUS
10
3.42653
20
-5.37807
11
3.43403
21
-5.37432
0
LINE
8
BLACK
6
CONTINUOUS
10
3.43403
20
-5.37432
11
3.43778
21
-5.37057
0
LINE
8
BLACK
6
CONTINUOUS
10
3.43778
20
-5.37057
11
3.44153
21
-5.36307
0
LINE
8
BLACK
6
CONTINUOUS
10
3.48653
20
-5.36307
11
3.47903
21
-5.35932
0
LINE
8
BLACK
6
CONTINUOUS
10
3.47903
20
-5.35932
11
3.47528
21
-5.35557
0
LINE
8
BLACK
6
CONTINUOUS
10
3.47528
20
-5.35557
11
3.47153
21
-5.34807
0
LINE
8
BLACK
6
CONTINUOUS
10
3.47153
20
-5.34807
11
3.47153
21
-5.34432
0
LINE
8
BLACK
6
CONTINUOUS
10
3.47153
20
-5.34432
11
3.47528
21
-5.33682
0
LINE
8
BLACK
6
CONTINUOUS
10
3.47528
20
-5.33682
11
3.47903
21
-5.33307
0
LINE
8
BLACK
6
CONTINUOUS
10
3.47903
20
-5.33307
11
3.48653
21
-5.32932
0
LINE
8
BLACK
6
CONTINUOUS
10
3.48653
20
-5.32932
11
3.50152
21
-5.32932
0
LINE
8
BLACK
6
CONTINUOUS
10
3.50152
20
-5.32932
11
3.50902
21
-5.33307
0
LINE
8
BLACK
6
CONTINUOUS
10
3.50902
20
-5.33307
11
3.51277
21
-5.33682
0
LINE
8
BLACK
6
CONTINUOUS
10
3.51277
20
-5.33682
11
3.51652
21
-5.34432
0
LINE
8
BLACK
6
CONTINUOUS
10
3.51652
20
-5.34432
11
3.51652
21
-5.34807
0
LINE
8
BLACK
6
CONTINUOUS
10
3.51652
20
-5.34807
11
3.51277
21
-5.35557
0
LINE
8
BLACK
6
CONTINUOUS
10
3.51277
20
-5.35557
11
3.50902
21
-5.35932
0
LINE
8
BLACK
6
CONTINUOUS
10
3.50902
20
-5.35932
11
3.50152
21
-5.36307
0
LINE
8
BLACK
6
CONTINUOUS
10
3.50152
20
-5.36307
11
3.48653
21
-5.36307
0
LINE
8
BLACK
6
CONTINUOUS
10
3.48653
20
-5.36307
11
3.47903
21
-5.36682
0
LINE
8
BLACK
6
CONTINUOUS
10
3.47903
20
-5.36682
11
3.47528
21
-5.37057
0
LINE
8
BLACK
6
CONTINUOUS
10
3.47528
20
-5.37057
11
3.47153
21
-5.37807
0
LINE
8
BLACK
6
CONTINUOUS
10
3.47153
20
-5.37807
11
3.47153
21
-5.39307
0
LINE
8
BLACK
6
CONTINUOUS
10
3.47153
20
-5.39307
11
3.47528
21
-5.40057
0
LINE
8
BLACK
6
CONTINUOUS
10
3.47528
20
-5.40057
11
3.47903
21
-5.40431
0
LINE
8
BLACK
6
CONTINUOUS
10
3.47903
20
-5.40431
11
3.48653
21
-5.40806
0
LINE
8
BLACK
6
CONTINUOUS
10
3.48653
20
-5.40806
11
3.50152
21
-5.40806
0
LINE
8
BLACK
6
CONTINUOUS
10
3.50152
20
-5.40806
11
3.50902
21
-5.40431
0
LINE
8
BLACK
6
CONTINUOUS
10
3.50902
20
-5.40431
11
3.51277
21
-5.40057
0
LINE
8
BLACK
6
CONTINUOUS
10
3.51277
20
-5.40057
11
3.51652
21
-5.39307
0
LINE
8
BLACK
6
CONTINUOUS
10
3.51652
20
-5.39307
11
3.51652
21
-5.37807
0
LINE
8
BLACK
6
CONTINUOUS
10
3.51652
20
-5.37807
11
3.51277
21
-5.37057
0
LINE
8
BLACK
6
CONTINUOUS
10
3.51277
20
-5.37057
11
3.50902
21
-5.36682
0
LINE
8
BLACK
6
CONTINUOUS
10
3.50902
20
-5.36682
11
3.50152
21
-5.36307
0
LINE
8
BLACK
6
CONTINUOUS
10
3.58401
20
-5.35557
11
3.58401
21
-5.40806
0
LINE
8
BLACK
6
CONTINUOUS
10
3.56527
20
-5.32557
11
3.54652
21
-5.38182
0
LINE
8
BLACK
6
CONTINUOUS
10
3.54652
20
-5.38182
11
3.59526
21
-5.38182
0
LINE
8
BLACK
6
CONTINUOUS
10
3.62151
20
-5.32932
11
3.62151
21
-5.34432
0
LINE
8
BLACK
6
CONTINUOUS
10
3.65151
20
-5.32932
11
3.65151
21
-5.34432
0
LINE
8
BLACK
6
CONTINUOUS
10
3.76774
20
-5.43806
11
3.76399
21
-5.43431
0
LINE
8
BLACK
6
CONTINUOUS
10
3.76399
20
-5.43431
11
3.75649
21
-5.42306
0
LINE
8
BLACK
6
CONTINUOUS
10
3.75649
20
-5.42306
11
3.75274
21
-5.41556
0
LINE
8
BLACK
6
CONTINUOUS
10
3.75274
20
-5.41556
11
3.74899
21
-5.40431
0
LINE
8
BLACK
6
CONTINUOUS
10
3.74899
20
-5.40431
11
3.74524
21
-5.38557
0
LINE
8
BLACK
6
CONTINUOUS
10
3.74524
20
-5.38557
11
3.74524
21
-5.37057
0
LINE
8
BLACK
6
CONTINUOUS
10
3.74524
20
-5.37057
11
3.74899
21
-5.35182
0
LINE
8
BLACK
6
CONTINUOUS
10
3.74899
20
-5.35182
11
3.75274
21
-5.34057
0
LINE
8
BLACK
6
CONTINUOUS
10
3.75274
20
-5.34057
11
3.75649
21
-5.33307
0
LINE
8
BLACK
6
CONTINUOUS
10
3.75649
20
-5.33307
11
3.76399
21
-5.32183
0
LINE
8
BLACK
6
CONTINUOUS
10
3.76399
20
-5.32183
11
3.76774
21
-5.31808
0
LINE
8
BLACK
6
CONTINUOUS
10
3.83148
20
-5.35557
11
3.83148
21
-5.40806
0
LINE
8
BLACK
6
CONTINUOUS
10
3.81274
20
-5.32557
11
3.79399
21
-5.38182
0
LINE
8
BLACK
6
CONTINUOUS
10
3.79399
20
-5.38182
11
3.84273
21
-5.38182
0
LINE
8
BLACK
6
CONTINUOUS
10
3.93272
20
-5.40806
11
3.93272
21
-5.32932
0
LINE
8
BLACK
6
CONTINUOUS
10
3.96647
20
-5.40806
11
3.96647
21
-5.36682
0
LINE
8
BLACK
6
CONTINUOUS
10
3.96647
20
-5.36682
11
3.96272
21
-5.35932
0
LINE
8
BLACK
6
CONTINUOUS
10
3.96272
20
-5.35932
11
3.95522
21
-5.35557
0
LINE
8
BLACK
6
CONTINUOUS
10
3.95522
20
-5.35557
11
3.94397
21
-5.35557
0
LINE
8
BLACK
6
CONTINUOUS
10
3.94397
20
-5.35557
11
3.93647
21
-5.35932
0
LINE
8
BLACK
6
CONTINUOUS
10
3.93647
20
-5.35932
11
3.93272
21
-5.36307
0
LINE
8
BLACK
6
CONTINUOUS
10
4.01521
20
-5.40806
11
4.00771
21
-5.40431
0
LINE
8
BLACK
6
CONTINUOUS
10
4.00771
20
-5.40431
11
4.00396
21
-5.40057
0
LINE
8
BLACK
6
CONTINUOUS
10
4.00396
20
-5.40057
11
4.00021
21
-5.39307
0
LINE
8
BLACK
6
CONTINUOUS
10
4.00021
20
-5.39307
11
4.00021
21
-5.37057
0
LINE
8
BLACK
6
CONTINUOUS
10
4.00021
20
-5.37057
11
4.00396
21
-5.36307
0
LINE
8
BLACK
6
CONTINUOUS
10
4.00396
20
-5.36307
11
4.00771
21
-5.35932
0
LINE
8
BLACK
6
CONTINUOUS
10
4.00771
20
-5.35932
11
4.01521
21
-5.35557
0
LINE
8
BLACK
6
CONTINUOUS
10
4.01521
20
-5.35557
11
4.02646
21
-5.35557
0
LINE
8
BLACK
6
CONTINUOUS
10
4.02646
20
-5.35557
11
4.03396
21
-5.35932
0
LINE
8
BLACK
6
CONTINUOUS
10
4.03396
20
-5.35932
11
4.03771
21
-5.36307
0
LINE
8
BLACK
6
CONTINUOUS
10
4.03771
20
-5.36307
11
4.04146
21
-5.37057
0
LINE
8
BLACK
6
CONTINUOUS
10
4.04146
20
-5.37057
11
4.04146
21
-5.39307
0
LINE
8
BLACK
6
CONTINUOUS
10
4.04146
20
-5.39307
11
4.03771
21
-5.40057
0
LINE
8
BLACK
6
CONTINUOUS
10
4.03771
20
-5.40057
11
4.03396
21
-5.40431
0
LINE
8
BLACK
6
CONTINUOUS
10
4.03396
20
-5.40431
11
4.02646
21
-5.40806
0
LINE
8
BLACK
6
CONTINUOUS
10
4.02646
20
-5.40806
11
4.01521
21
-5.40806
0
LINE
8
BLACK
6
CONTINUOUS
10
4.08645
20
-5.40806
11
4.07895
21
-5.40431
0
LINE
8
BLACK
6
CONTINUOUS
10
4.07895
20
-5.40431
11
4.0752
21
-5.39682
0
LINE
8
BLACK
6
CONTINUOUS
10
4.0752
20
-5.39682
11
4.0752
21
-5.32932
0
LINE
8
BLACK
6
CONTINUOUS
10
4.14644
20
-5.40431
11
4.13894
21
-5.40806
0
LINE
8
BLACK
6
CONTINUOUS
10
4.13894
20
-5.40806
11
4.12395
21
-5.40806
0
LINE
8
BLACK
6
CONTINUOUS
10
4.12395
20
-5.40806
11
4.11645
21
-5.40431
0
LINE
8
BLACK
6
CONTINUOUS
10
4.11645
20
-5.40431
11
4.1127
21
-5.39682
0
LINE
8
BLACK
6
CONTINUOUS
10
4.1127
20
-5.39682
11
4.1127
21
-5.36682
0
LINE
8
BLACK
6
CONTINUOUS
10
4.1127
20
-5.36682
11
4.11645
21
-5.35932
0
LINE
8
BLACK
6
CONTINUOUS
10
4.11645
20
-5.35932
11
4.12395
21
-5.35557
0
LINE
8
BLACK
6
CONTINUOUS
10
4.12395
20
-5.35557
11
4.13894
21
-5.35557
0
LINE
8
BLACK
6
CONTINUOUS
10
4.13894
20
-5.35557
11
4.14644
21
-5.35932
0
LINE
8
BLACK
6
CONTINUOUS
10
4.14644
20
-5.35932
11
4.15019
21
-5.36682
0
LINE
8
BLACK
6
CONTINUOUS
10
4.15019
20
-5.36682
11
4.15019
21
-5.37432
0
LINE
8
BLACK
6
CONTINUOUS
10
4.15019
20
-5.37432
11
4.1127
21
-5.38182
0
LINE
8
BLACK
6
CONTINUOUS
10
4.18019
20
-5.40431
11
4.18769
21
-5.40806
0
LINE
8
BLACK
6
CONTINUOUS
10
4.18769
20
-5.40806
11
4.20269
21
-5.40806
0
LINE
8
BLACK
6
CONTINUOUS
10
4.20269
20
-5.40806
11
4.21019
21
-5.40431
0
LINE
8
BLACK
6
CONTINUOUS
10
4.21019
20
-5.40431
11
4.21394
21
-5.39682
0
LINE
8
BLACK
6
CONTINUOUS
10
4.21394
20
-5.39682
11
4.21394
21
-5.39307
0
LINE
8
BLACK
6
CONTINUOUS
10
4.21394
20
-5.39307
11
4.21019
21
-5.38557
0
LINE
8
BLACK
6
CONTINUOUS
10
4.21019
20
-5.38557
11
4.20269
21
-5.38182
0
LINE
8
BLACK
6
CONTINUOUS
10
4.20269
20
-5.38182
11
4.19144
21
-5.38182
0
LINE
8
BLACK
6
CONTINUOUS
10
4.19144
20
-5.38182
11
4.18394
21
-5.37807
0
LINE
8
BLACK
6
CONTINUOUS
10
4.18394
20
-5.37807
11
4.18019
21
-5.37057
0
LINE
8
BLACK
6
CONTINUOUS
10
4.18019
20
-5.37057
11
4.18019
21
-5.36682
0
LINE
8
BLACK
6
CONTINUOUS
10
4.18019
20
-5.36682
11
4.18394
21
-5.35932
0
LINE
8
BLACK
6
CONTINUOUS
10
4.18394
20
-5.35932
11
4.19144
21
-5.35557
0
LINE
8
BLACK
6
CONTINUOUS
10
4.19144
20
-5.35557
11
4.20269
21
-5.35557
0
LINE
8
BLACK
6
CONTINUOUS
10
4.20269
20
-5.35557
11
4.21019
21
-5.35932
0
LINE
8
BLACK
6
CONTINUOUS
10
4.24018
20
-5.43806
11
4.24393
21
-5.43431
0
LINE
8
BLACK
6
CONTINUOUS
10
4.24393
20
-5.43431
11
4.25143
21
-5.42306
0
LINE
8
BLACK
6
CONTINUOUS
10
4.25143
20
-5.42306
11
4.25518
21
-5.41556
0
LINE
8
BLACK
6
CONTINUOUS
10
4.25518
20
-5.41556
11
4.25893
21
-5.40431
0
LINE
8
BLACK
6
CONTINUOUS
10
4.25893
20
-5.40431
11
4.26268
21
-5.38557
0
LINE
8
BLACK
6
CONTINUOUS
10
4.26268
20
-5.38557
11
4.26268
21
-5.37057
0
LINE
8
BLACK
6
CONTINUOUS
10
4.26268
20
-5.37057
11
4.25893
21
-5.35182
0
LINE
8
BLACK
6
CONTINUOUS
10
4.25893
20
-5.35182
11
4.25518
21
-5.34057
0
LINE
8
BLACK
6
CONTINUOUS
10
4.25518
20
-5.34057
11
4.25143
21
-5.33307
0
LINE
8
BLACK
6
CONTINUOUS
10
4.25143
20
-5.33307
11
4.24393
21
-5.32183
0
LINE
8
BLACK
6
CONTINUOUS
10
4.24393
20
-5.32183
11
4.24018
21
-5.31808
0
LINE
8
BLACK
6
CONTINUOUS
10
4.38266
20
-5.43806
11
4.37891
21
-5.43431
0
LINE
8
BLACK
6
CONTINUOUS
10
4.37891
20
-5.43431
11
4.37142
21
-5.42306
0
LINE
8
BLACK
6
CONTINUOUS
10
4.37142
20
-5.42306
11
4.36767
21
-5.41556
0
LINE
8
BLACK
6
CONTINUOUS
10
4.36767
20
-5.41556
11
4.36392
21
-5.40431
0
LINE
8
BLACK
6
CONTINUOUS
10
4.36392
20
-5.40431
11
4.36017
21
-5.38557
0
LINE
8
BLACK
6
CONTINUOUS
10
4.36017
20
-5.38557
11
4.36017
21
-5.37057
0
LINE
8
BLACK
6
CONTINUOUS
10
4.36017
20
-5.37057
11
4.36392
21
-5.35182
0
LINE
8
BLACK
6
CONTINUOUS
10
4.36392
20
-5.35182
11
4.36767
21
-5.34057
0
LINE
8
BLACK
6
CONTINUOUS
10
4.36767
20
-5.34057
11
4.37142
21
-5.33307
0
LINE
8
BLACK
6
CONTINUOUS
10
4.37142
20
-5.33307
11
4.37891
21
-5.32183
0
LINE
8
BLACK
6
CONTINUOUS
10
4.37891
20
-5.32183
11
4.38266
21
-5.31808
0
LINE
8
BLACK
6
CONTINUOUS
10
4.41266
20
-5.35557
11
4.41266
21
-5.40806
0
LINE
8
BLACK
6
CONTINUOUS
10
4.41266
20
-5.36307
11
4.41641
21
-5.35932
0
LINE
8
BLACK
6
CONTINUOUS
10
4.41641
20
-5.35932
11
4.42391
21
-5.35557
0
LINE
8
BLACK
6
CONTINUOUS
10
4.42391
20
-5.35557
11
4.43516
21
-5.35557
0
LINE
8
BLACK
6
CONTINUOUS
10
4.43516
20
-5.35557
11
4.44266
21
-5.35932
0
LINE
8
BLACK
6
CONTINUOUS
10
4.44266
20
-5.35932
11
4.44641
21
-5.36682
0
LINE
8
BLACK
6
CONTINUOUS
10
4.44641
20
-5.36682
11
4.44641
21
-5.40806
0
LINE
8
BLACK
6
CONTINUOUS
10
4.49515
20
-5.40806
11
4.48765
21
-5.40431
0
LINE
8
BLACK
6
CONTINUOUS
10
4.48765
20
-5.40431
11
4.4839
21
-5.40057
0
LINE
8
BLACK
6
CONTINUOUS
10
4.4839
20
-5.40057
11
4.48015
21
-5.39307
0
LINE
8
BLACK
6
CONTINUOUS
10
4.48015
20
-5.39307
11
4.48015
21
-5.37057
0
LINE
8
BLACK
6
CONTINUOUS
10
4.48015
20
-5.37057
11
4.4839
21
-5.36307
0
LINE
8
BLACK
6
CONTINUOUS
10
4.4839
20
-5.36307
11
4.48765
21
-5.35932
0
LINE
8
BLACK
6
CONTINUOUS
10
4.48765
20
-5.35932
11
4.49515
21
-5.35557
0
LINE
8
BLACK
6
CONTINUOUS
10
4.49515
20
-5.35557
11
4.5064
21
-5.35557
0
LINE
8
BLACK
6
CONTINUOUS
10
4.5064
20
-5.35557
11
4.5139
21
-5.35932
0
LINE
8
BLACK
6
CONTINUOUS
10
4.5139
20
-5.35932
11
4.51765
21
-5.36307
0
LINE
8
BLACK
6
CONTINUOUS
10
4.51765
20
-5.36307
11
4.5214
21
-5.37057
0
LINE
8
BLACK
6
CONTINUOUS
10
4.5214
20
-5.37057
11
4.5214
21
-5.39307
0
LINE
8
BLACK
6
CONTINUOUS
10
4.5214
20
-5.39307
11
4.51765
21
-5.40057
0
LINE
8
BLACK
6
CONTINUOUS
10
4.51765
20
-5.40057
11
4.5139
21
-5.40431
0
LINE
8
BLACK
6
CONTINUOUS
10
4.5139
20
-5.40431
11
4.5064
21
-5.40806
0
LINE
8
BLACK
6
CONTINUOUS
10
4.5064
20
-5.40806
11
4.49515
21
-5.40806
0
LINE
8
BLACK
6
CONTINUOUS
10
4.54389
20
-5.35557
11
4.57389
21
-5.35557
0
LINE
8
BLACK
6
CONTINUOUS
10
4.55514
20
-5.32932
11
4.55514
21
-5.39682
0
LINE
8
BLACK
6
CONTINUOUS
10
4.55514
20
-5.39682
11
4.55889
21
-5.40431
0
LINE
8
BLACK
6
CONTINUOUS
10
4.55889
20
-5.40431
11
4.56639
21
-5.40806
0
LINE
8
BLACK
6
CONTINUOUS
10
4.56639
20
-5.40806
11
4.57389
21
-5.40806
0
LINE
8
BLACK
6
CONTINUOUS
10
4.66013
20
-5.35557
11
4.66013
21
-5.43431
0
LINE
8
BLACK
6
CONTINUOUS
10
4.66013
20
-5.35932
11
4.66763
21
-5.35557
0
LINE
8
BLACK
6
CONTINUOUS
10
4.66763
20
-5.35557
11
4.68263
21
-5.35557
0
LINE
8
BLACK
6
CONTINUOUS
10
4.68263
20
-5.35557
11
4.69013
21
-5.35932
0
LINE
8
BLACK
6
CONTINUOUS
10
4.69013
20
-5.35932
11
4.69388
21
-5.36307
0
LINE
8
BLACK
6
CONTINUOUS
10
4.69388
20
-5.36307
11
4.69763
21
-5.37057
0
LINE
8
BLACK
6
CONTINUOUS
10
4.69763
20
-5.37057
11
4.69763
21
-5.39307
0
LINE
8
BLACK
6
CONTINUOUS
10
4.69763
20
-5.39307
11
4.69388
21
-5.40057
0
LINE
8
BLACK
6
CONTINUOUS
10
4.69388
20
-5.40057
11
4.69013
21
-5.40431
0
LINE
8
BLACK
6
CONTINUOUS
10
4.69013
20
-5.40431
11
4.68263
21
-5.40806
0
LINE
8
BLACK
6
CONTINUOUS
10
4.68263
20
-5.40806
11
4.66763
21
-5.40806
0
LINE
8
BLACK
6
CONTINUOUS
10
4.66763
20
-5.40806
11
4.66013
21
-5.40431
0
LINE
8
BLACK
6
CONTINUOUS
10
4.74262
20
-5.40806
11
4.73512
21
-5.40431
0
LINE
8
BLACK
6
CONTINUOUS
10
4.73512
20
-5.40431
11
4.73137
21
-5.39682
0
LINE
8
BLACK
6
CONTINUOUS
10
4.73137
20
-5.39682
11
4.73137
21
-5.32932
0
LINE
8
BLACK
6
CONTINUOUS
10
4.80636
20
-5.40806
11
4.80636
21
-5.36682
0
LINE
8
BLACK
6
CONTINUOUS
10
4.80636
20
-5.36682
11
4.80261
21
-5.35932
0
LINE
8
BLACK
6
CONTINUOUS
10
4.80261
20
-5.35932
11
4.79511
21
-5.35557
0
LINE
8
BLACK
6
CONTINUOUS
10
4.79511
20
-5.35557
11
4.78011
21
-5.35557
0
LINE
8
BLACK
6
CONTINUOUS
10
4.78011
20
-5.35557
11
4.77262
21
-5.35932
0
LINE
8
BLACK
6
CONTINUOUS
10
4.80636
20
-5.40431
11
4.79886
21
-5.40806
0
LINE
8
BLACK
6
CONTINUOUS
10
4.79886
20
-5.40806
11
4.78011
21
-5.40806
0
LINE
8
BLACK
6
CONTINUOUS
10
4.78011
20
-5.40806
11
4.77262
21
-5.40431
0
LINE
8
BLACK
6
CONTINUOUS
10
4.77262
20
-5.40431
11
4.76887
21
-5.39682
0
LINE
8
BLACK
6
CONTINUOUS
10
4.76887
20
-5.39682
11
4.76887
21
-5.38932
0
LINE
8
BLACK
6
CONTINUOUS
10
4.76887
20
-5.38932
11
4.77262
21
-5.38182
0
LINE
8
BLACK
6
CONTINUOUS
10
4.77262
20
-5.38182
11
4.78011
21
-5.37807
0
LINE
8
BLACK
6
CONTINUOUS
10
4.78011
20
-5.37807
11
4.79886
21
-5.37807
0
LINE
8
BLACK
6
CONTINUOUS
10
4.79886
20
-5.37807
11
4.80636
21
-5.37432
0
LINE
8
BLACK
6
CONTINUOUS
10
4.83261
20
-5.35557
11
4.8626
21
-5.35557
0
LINE
8
BLACK
6
CONTINUOUS
10
4.84386
20
-5.32932
11
4.84386
21
-5.39682
0
LINE
8
BLACK
6
CONTINUOUS
10
4.84386
20
-5.39682
11
4.84761
21
-5.40431
0
LINE
8
BLACK
6
CONTINUOUS
10
4.84761
20
-5.40431
11
4.85511
21
-5.40806
0
LINE
8
BLACK
6
CONTINUOUS
10
4.85511
20
-5.40806
11
4.8626
21
-5.40806
0
LINE
8
BLACK
6
CONTINUOUS
10
4.91885
20
-5.40431
11
4.91135
21
-5.40806
0
LINE
8
BLACK
6
CONTINUOUS
10
4.91135
20
-5.40806
11
4.89635
21
-5.40806
0
LINE
8
BLACK
6
CONTINUOUS
10
4.89635
20
-5.40806
11
4.88885
21
-5.40431
0
LINE
8
BLACK
6
CONTINUOUS
10
4.88885
20
-5.40431
11
4.8851
21
-5.39682
0
LINE
8
BLACK
6
CONTINUOUS
10
4.8851
20
-5.39682
11
4.8851
21
-5.36682
0
LINE
8
BLACK
6
CONTINUOUS
10
4.8851
20
-5.36682
11
4.88885
21
-5.35932
0
LINE
8
BLACK
6
CONTINUOUS
10
4.88885
20
-5.35932
11
4.89635
21
-5.35557
0
LINE
8
BLACK
6
CONTINUOUS
10
4.89635
20
-5.35557
11
4.91135
21
-5.35557
0
LINE
8
BLACK
6
CONTINUOUS
10
4.91135
20
-5.35557
11
4.91885
21
-5.35932
0
LINE
8
BLACK
6
CONTINUOUS
10
4.91885
20
-5.35932
11
4.9226
21
-5.36682
0
LINE
8
BLACK
6
CONTINUOUS
10
4.9226
20
-5.36682
11
4.9226
21
-5.37432
0
LINE
8
BLACK
6
CONTINUOUS
10
4.9226
20
-5.37432
11
4.8851
21
-5.38182
0
LINE
8
BLACK
6
CONTINUOUS
10
4.99009
20
-5.40806
11
4.99009
21
-5.32932
0
LINE
8
BLACK
6
CONTINUOUS
10
4.99009
20
-5.40431
11
4.98259
21
-5.40806
0
LINE
8
BLACK
6
CONTINUOUS
10
4.98259
20
-5.40806
11
4.96759
21
-5.40806
0
LINE
8
BLACK
6
CONTINUOUS
10
4.96759
20
-5.40806
11
4.96009
21
-5.40431
0
LINE
8
BLACK
6
CONTINUOUS
10
4.96009
20
-5.40431
11
4.95634
21
-5.40057
0
LINE
8
BLACK
6
CONTINUOUS
10
4.95634
20
-5.40057
11
4.95259
21
-5.39307
0
LINE
8
BLACK
6
CONTINUOUS
10
4.95259
20
-5.39307
11
4.95259
21
-5.37057
0
LINE
8
BLACK
6
CONTINUOUS
10
4.95259
20
-5.37057
11
4.95634
21
-5.36307
0
LINE
8
BLACK
6
CONTINUOUS
10
4.95634
20
-5.36307
11
4.96009
21
-5.35932
0
LINE
8
BLACK
6
CONTINUOUS
10
4.96009
20
-5.35932
11
4.96759
21
-5.35557
0
LINE
8
BLACK
6
CONTINUOUS
10
4.96759
20
-5.35557
11
4.98259
21
-5.35557
0
LINE
8
BLACK
6
CONTINUOUS
10
4.98259
20
-5.35557
11
4.99009
21
-5.35932
0
LINE
8
BLACK
6
CONTINUOUS
10
5.02008
20
-5.43806
11
5.02383
21
-5.43431
0
LINE
8
BLACK
6
CONTINUOUS
10
5.02383
20
-5.43431
11
5.03133
21
-5.42306
0
LINE
8
BLACK
6
CONTINUOUS
10
5.03133
20
-5.42306
11
5.03508
21
-5.41556
0
LINE
8
BLACK
6
CONTINUOUS
10
5.03508
20
-5.41556
11
5.03883
21
-5.40431
0
LINE
8
BLACK
6
CONTINUOUS
10
5.03883
20
-5.40431
11
5.04258
21
-5.38557
0
LINE
8
BLACK
6
CONTINUOUS
10
5.04258
20
-5.38557
11
5.04258
21
-5.37057
0
LINE
8
BLACK
6
CONTINUOUS
10
5.04258
20
-5.37057
11
5.03883
21
-5.35182
0
LINE
8
BLACK
6
CONTINUOUS
10
5.03883
20
-5.35182
11
5.03508
21
-5.34057
0
LINE
8
BLACK
6
CONTINUOUS
10
5.03508
20
-5.34057
11
5.03133
21
-5.33307
0
LINE
8
BLACK
6
CONTINUOUS
10
5.03133
20
-5.33307
11
5.02383
21
-5.32183
0
LINE
8
BLACK
6
CONTINUOUS
10
5.02383
20
-5.32183
11
5.02008
21
-5.31808
0
LINE
8
BLACK
6
CONTINUOUS
10
2.32087
20
-5.45866
11
2.32087
21
-5.5374
0
LINE
8
BLACK
6
CONTINUOUS
10
2.2815
20
-5.49803
11
2.36024
21
-5.49803
0
LINE
8
BLACK
6
CONTINUOUS
10
2.45541
20
-5.45531
11
2.50415
21
-5.45531
0
LINE
8
BLACK
6
CONTINUOUS
10
2.50415
20
-5.45531
11
2.4779
21
-5.4853
0
LINE
8
BLACK
6
CONTINUOUS
10
2.4779
20
-5.4853
11
2.48915
21
-5.4853
0
LINE
8
BLACK
6
CONTINUOUS
10
2.48915
20
-5.4853
11
2.49665
21
-5.48905
0
LINE
8
BLACK
6
CONTINUOUS
10
2.49665
20
-5.48905
11
2.5004
21
-5.4928
0
LINE
8
BLACK
6
CONTINUOUS
10
2.5004
20
-5.4928
11
2.50415
21
-5.5003
0
LINE
8
BLACK
6
CONTINUOUS
10
2.50415
20
-5.5003
11
2.50415
21
-5.51905
0
LINE
8
BLACK
6
CONTINUOUS
10
2.50415
20
-5.51905
11
2.5004
21
-5.52655
0
LINE
8
BLACK
6
CONTINUOUS
10
2.5004
20
-5.52655
11
2.49665
21
-5.5303
0
LINE
8
BLACK
6
CONTINUOUS
10
2.49665
20
-5.5303
11
2.48915
21
-5.53405
0
LINE
8
BLACK
6
CONTINUOUS
10
2.48915
20
-5.53405
11
2.46665
21
-5.53405
0
LINE
8
BLACK
6
CONTINUOUS
10
2.46665
20
-5.53405
11
2.45915
21
-5.5303
0
LINE
8
BLACK
6
CONTINUOUS
10
2.45915
20
-5.5303
11
2.45541
21
-5.52655
0
LINE
8
BLACK
6
CONTINUOUS
10
2.53789
20
-5.52655
11
2.54164
21
-5.5303
0
LINE
8
BLACK
6
CONTINUOUS
10
2.54164
20
-5.5303
11
2.53789
21
-5.53405
0
LINE
8
BLACK
6
CONTINUOUS
10
2.53789
20
-5.53405
11
2.53415
21
-5.5303
0
LINE
8
BLACK
6
CONTINUOUS
10
2.53415
20
-5.5303
11
2.53789
21
-5.52655
0
LINE
8
BLACK
6
CONTINUOUS
10
2.53789
20
-5.52655
11
2.53789
21
-5.53405
0
LINE
8
BLACK
6
CONTINUOUS
10
2.60914
20
-5.48156
11
2.60914
21
-5.53405
0
LINE
8
BLACK
6
CONTINUOUS
10
2.59039
20
-5.45156
11
2.57164
21
-5.5078
0
LINE
8
BLACK
6
CONTINUOUS
10
2.57164
20
-5.5078
11
2.62038
21
-5.5078
0
LINE
8
BLACK
6
CONTINUOUS
10
2.66538
20
-5.45531
11
2.67288
21
-5.45531
0
LINE
8
BLACK
6
CONTINUOUS
10
2.67288
20
-5.45531
11
2.68038
21
-5.45906
0
LINE
8
BLACK
6
CONTINUOUS
10
2.68038
20
-5.45906
11
2.68413
21
-5.46281
0
LINE
8
BLACK
6
CONTINUOUS
10
2.68413
20
-5.46281
11
2.68788
21
-5.47031
0
LINE
8
BLACK
6
CONTINUOUS
10
2.68788
20
-5.47031
11
2.69163
21
-5.4853
0
LINE
8
BLACK
6
CONTINUOUS
10
2.69163
20
-5.4853
11
2.69163
21
-5.50405
0
LINE
8
BLACK
6
CONTINUOUS
10
2.69163
20
-5.50405
11
2.68788
21
-5.51905
0
LINE
8
BLACK
6
CONTINUOUS
10
2.68788
20
-5.51905
11
2.68413
21
-5.52655
0
LINE
8
BLACK
6
CONTINUOUS
10
2.68413
20
-5.52655
11
2.68038
21
-5.5303
0
LINE
8
BLACK
6
CONTINUOUS
10
2.68038
20
-5.5303
11
2.67288
21
-5.53405
0
LINE
8
BLACK
6
CONTINUOUS
10
2.67288
20
-5.53405
11
2.66538
21
-5.53405
0
LINE
8
BLACK
6
CONTINUOUS
10
2.66538
20
-5.53405
11
2.65788
21
-5.5303
0
LINE
8
BLACK
6
CONTINUOUS
10
2.65788
20
-5.5303
11
2.65413
21
-5.52655
0
LINE
8
BLACK
6
CONTINUOUS
10
2.65413
20
-5.52655
11
2.65038
21
-5.51905
0
LINE
8
BLACK
6
CONTINUOUS
10
2.65038
20
-5.51905
11
2.64663
21
-5.50405
0
LINE
8
BLACK
6
CONTINUOUS
10
2.64663
20
-5.50405
11
2.64663
21
-5.4853
0
LINE
8
BLACK
6
CONTINUOUS
10
2.64663
20
-5.4853
11
2.65038
21
-5.47031
0
LINE
8
BLACK
6
CONTINUOUS
10
2.65038
20
-5.47031
11
2.65413
21
-5.46281
0
LINE
8
BLACK
6
CONTINUOUS
10
2.65413
20
-5.46281
11
2.65788
21
-5.45906
0
LINE
8
BLACK
6
CONTINUOUS
10
2.65788
20
-5.45906
11
2.66538
21
-5.45531
0
LINE
8
BLACK
6
CONTINUOUS
10
2.74037
20
-5.45531
11
2.74787
21
-5.45531
0
LINE
8
BLACK
6
CONTINUOUS
10
2.74787
20
-5.45531
11
2.75537
21
-5.45906
0
LINE
8
BLACK
6
CONTINUOUS
10
2.75537
20
-5.45906
11
2.75912
21
-5.46281
0
LINE
8
BLACK
6
CONTINUOUS
10
2.75912
20
-5.46281
11
2.76287
21
-5.47031
0
LINE
8
BLACK
6
CONTINUOUS
10
2.76287
20
-5.47031
11
2.76662
21
-5.4853
0
LINE
8
BLACK
6
CONTINUOUS
10
2.76662
20
-5.4853
11
2.76662
21
-5.50405
0
LINE
8
BLACK
6
CONTINUOUS
10
2.76662
20
-5.50405
11
2.76287
21
-5.51905
0
LINE
8
BLACK
6
CONTINUOUS
10
2.76287
20
-5.51905
11
2.75912
21
-5.52655
0
LINE
8
BLACK
6
CONTINUOUS
10
2.75912
20
-5.52655
11
2.75537
21
-5.5303
0
LINE
8
BLACK
6
CONTINUOUS
10
2.75537
20
-5.5303
11
2.74787
21
-5.53405
0
LINE
8
BLACK
6
CONTINUOUS
10
2.74787
20
-5.53405
11
2.74037
21
-5.53405
0
LINE
8
BLACK
6
CONTINUOUS
10
2.74037
20
-5.53405
11
2.73287
21
-5.5303
0
LINE
8
BLACK
6
CONTINUOUS
10
2.73287
20
-5.5303
11
2.72912
21
-5.52655
0
LINE
8
BLACK
6
CONTINUOUS
10
2.72912
20
-5.52655
11
2.72537
21
-5.51905
0
LINE
8
BLACK
6
CONTINUOUS
10
2.72537
20
-5.51905
11
2.72162
21
-5.50405
0
LINE
8
BLACK
6
CONTINUOUS
10
2.72162
20
-5.50405
11
2.72162
21
-5.4853
0
LINE
8
BLACK
6
CONTINUOUS
10
2.72162
20
-5.4853
11
2.72537
21
-5.47031
0
LINE
8
BLACK
6
CONTINUOUS
10
2.72537
20
-5.47031
11
2.72912
21
-5.46281
0
LINE
8
BLACK
6
CONTINUOUS
10
2.72912
20
-5.46281
11
2.73287
21
-5.45906
0
LINE
8
BLACK
6
CONTINUOUS
10
2.73287
20
-5.45906
11
2.74037
21
-5.45531
0
LINE
8
BLACK
6
CONTINUOUS
10
2.80036
20
-5.53405
11
2.80036
21
-5.48156
0
LINE
8
BLACK
6
CONTINUOUS
10
2.80036
20
-5.48905
11
2.80411
21
-5.4853
0
LINE
8
BLACK
6
CONTINUOUS
10
2.80411
20
-5.4853
11
2.81161
21
-5.48156
0
LINE
8
BLACK
6
CONTINUOUS
10
2.81161
20
-5.48156
11
2.82286
21
-5.48156
0
LINE
8
BLACK
6
CONTINUOUS
10
2.82286
20
-5.48156
11
2.83036
21
-5.4853
0
LINE
8
BLACK
6
CONTINUOUS
10
2.83036
20
-5.4853
11
2.83411
21
-5.4928
0
LINE
8
BLACK
6
CONTINUOUS
10
2.83411
20
-5.4928
11
2.83411
21
-5.53405
0
LINE
8
BLACK
6
CONTINUOUS
10
2.83411
20
-5.4928
11
2.83786
21
-5.4853
0
LINE
8
BLACK
6
CONTINUOUS
10
2.83786
20
-5.4853
11
2.84536
21
-5.48156
0
LINE
8
BLACK
6
CONTINUOUS
10
2.84536
20
-5.48156
11
2.85661
21
-5.48156
0
LINE
8
BLACK
6
CONTINUOUS
10
2.85661
20
-5.48156
11
2.8641
21
-5.4853
0
LINE
8
BLACK
6
CONTINUOUS
10
2.8641
20
-5.4853
11
2.86785
21
-5.4928
0
LINE
8
BLACK
6
CONTINUOUS
10
2.86785
20
-5.4928
11
2.86785
21
-5.53405
0
LINE
8
BLACK
6
CONTINUOUS
10
2.90535
20
-5.53405
11
2.90535
21
-5.48156
0
LINE
8
BLACK
6
CONTINUOUS
10
2.90535
20
-5.48905
11
2.9091
21
-5.4853
0
LINE
8
BLACK
6
CONTINUOUS
10
2.9091
20
-5.4853
11
2.9166
21
-5.48156
0
LINE
8
BLACK
6
CONTINUOUS
10
2.9166
20
-5.48156
11
2.92785
21
-5.48156
0
LINE
8
BLACK
6
CONTINUOUS
10
2.92785
20
-5.48156
11
2.93535
21
-5.4853
0
LINE
8
BLACK
6
CONTINUOUS
10
2.93535
20
-5.4853
11
2.93909
21
-5.4928
0
LINE
8
BLACK
6
CONTINUOUS
10
2.93909
20
-5.4928
11
2.93909
21
-5.53405
0
LINE
8
BLACK
6
CONTINUOUS
10
2.93909
20
-5.4928
11
2.94284
21
-5.4853
0
LINE
8
BLACK
6
CONTINUOUS
10
2.94284
20
-5.4853
11
2.95034
21
-5.48156
0
LINE
8
BLACK
6
CONTINUOUS
10
2.95034
20
-5.48156
11
2.96159
21
-5.48156
0
LINE
8
BLACK
6
CONTINUOUS
10
2.96159
20
-5.48156
11
2.96909
21
-5.4853
0
LINE
8
BLACK
6
CONTINUOUS
10
2.96909
20
-5.4853
11
2.97284
21
-5.4928
0
LINE
8
BLACK
6
CONTINUOUS
10
2.97284
20
-5.4928
11
2.97284
21
-5.53405
0
LINE
8
BLACK
6
CONTINUOUS
10
3.12657
20
-5.45156
11
3.05908
21
-5.5528
0
LINE
8
BLACK
6
CONTINUOUS
10
3.22781
20
-5.45531
11
3.23531
21
-5.45531
0
LINE
8
BLACK
6
CONTINUOUS
10
3.23531
20
-5.45531
11
3.24281
21
-5.45906
0
LINE
8
BLACK
6
CONTINUOUS
10
3.24281
20
-5.45906
11
3.24656
21
-5.46281
0
LINE
8
BLACK
6
CONTINUOUS
10
3.24656
20
-5.46281
11
3.25031
21
-5.47031
0
LINE
8
BLACK
6
CONTINUOUS
10
3.25031
20
-5.47031
11
3.25406
21
-5.4853
0
LINE
8
BLACK
6
CONTINUOUS
10
3.25406
20
-5.4853
11
3.25406
21
-5.50405
0
LINE
8
BLACK
6
CONTINUOUS
10
3.25406
20
-5.50405
11
3.25031
21
-5.51905
0
LINE
8
BLACK
6
CONTINUOUS
10
3.25031
20
-5.51905
11
3.24656
21
-5.52655
0
LINE
8
BLACK
6
CONTINUOUS
10
3.24656
20
-5.52655
11
3.24281
21
-5.5303
0
LINE
8
BLACK
6
CONTINUOUS
10
3.24281
20
-5.5303
11
3.23531
21
-5.53405
0
LINE
8
BLACK
6
CONTINUOUS
10
3.23531
20
-5.53405
11
3.22781
21
-5.53405
0
LINE
8
BLACK
6
CONTINUOUS
10
3.22781
20
-5.53405
11
3.22031
21
-5.5303
0
LINE
8
BLACK
6
CONTINUOUS
10
3.22031
20
-5.5303
11
3.21656
21
-5.52655
0
LINE
8
BLACK
6
CONTINUOUS
10
3.21656
20
-5.52655
11
3.21281
21
-5.51905
0
LINE
8
BLACK
6
CONTINUOUS
10
3.21281
20
-5.51905
11
3.20906
21
-5.50405
0
LINE
8
BLACK
6
CONTINUOUS
10
3.20906
20
-5.50405
11
3.20906
21
-5.4853
0
LINE
8
BLACK
6
CONTINUOUS
10
3.20906
20
-5.4853
11
3.21281
21
-5.47031
0
LINE
8
BLACK
6
CONTINUOUS
10
3.21281
20
-5.47031
11
3.21656
21
-5.46281
0
LINE
8
BLACK
6
CONTINUOUS
10
3.21656
20
-5.46281
11
3.22031
21
-5.45906
0
LINE
8
BLACK
6
CONTINUOUS
10
3.22031
20
-5.45906
11
3.22781
21
-5.45531
0
LINE
8
BLACK
6
CONTINUOUS
10
3.2878
20
-5.52655
11
3.29155
21
-5.5303
0
LINE
8
BLACK
6
CONTINUOUS
10
3.29155
20
-5.5303
11
3.2878
21
-5.53405
0
LINE
8
BLACK
6
CONTINUOUS
10
3.2878
20
-5.53405
11
3.28405
21
-5.5303
0
LINE
8
BLACK
6
CONTINUOUS
10
3.28405
20
-5.5303
11
3.2878
21
-5.52655
0
LINE
8
BLACK
6
CONTINUOUS
10
3.2878
20
-5.52655
11
3.2878
21
-5.53405
0
LINE
8
BLACK
6
CONTINUOUS
10
3.36654
20
-5.53405
11
3.32155
21
-5.53405
0
LINE
8
BLACK
6
CONTINUOUS
10
3.34404
20
-5.53405
11
3.34404
21
-5.45531
0
LINE
8
BLACK
6
CONTINUOUS
10
3.34404
20
-5.45531
11
3.33655
21
-5.46656
0
LINE
8
BLACK
6
CONTINUOUS
10
3.33655
20
-5.46656
11
3.32905
21
-5.47406
0
LINE
8
BLACK
6
CONTINUOUS
10
3.32905
20
-5.47406
11
3.32155
21
-5.47781
0
LINE
8
BLACK
6
CONTINUOUS
10
3.39279
20
-5.45531
11
3.44153
21
-5.45531
0
LINE
8
BLACK
6
CONTINUOUS
10
3.44153
20
-5.45531
11
3.41529
21
-5.4853
0
LINE
8
BLACK
6
CONTINUOUS
10
3.41529
20
-5.4853
11
3.42653
21
-5.4853
0
LINE
8
BLACK
6
CONTINUOUS
10
3.42653
20
-5.4853
11
3.43403
21
-5.48905
0
LINE
8
BLACK
6
CONTINUOUS
10
3.43403
20
-5.48905
11
3.43778
21
-5.4928
0
LINE
8
BLACK
6
CONTINUOUS
10
3.43778
20
-5.4928
11
3.44153
21
-5.5003
0
LINE
8
BLACK
6
CONTINUOUS
10
3.44153
20
-5.5003
11
3.44153
21
-5.51905
0
LINE
8
BLACK
6
CONTINUOUS
10
3.44153
20
-5.51905
11
3.43778
21
-5.52655
0
LINE
8
BLACK
6
CONTINUOUS
10
3.43778
20
-5.52655
11
3.43403
21
-5.5303
0
LINE
8
BLACK
6
CONTINUOUS
10
3.43403
20
-5.5303
11
3.42653
21
-5.53405
0
LINE
8
BLACK
6
CONTINUOUS
10
3.42653
20
-5.53405
11
3.40404
21
-5.53405
0
LINE
8
BLACK
6
CONTINUOUS
10
3.40404
20
-5.53405
11
3.39654
21
-5.5303
0
LINE
8
BLACK
6
CONTINUOUS
10
3.39654
20
-5.5303
11
3.39279
21
-5.52655
0
LINE
8
BLACK
6
CONTINUOUS
10
3.46778
20
-5.45531
11
3.51652
21
-5.45531
0
LINE
8
BLACK
6
CONTINUOUS
10
3.51652
20
-5.45531
11
3.49028
21
-5.4853
0
LINE
8
BLACK
6
CONTINUOUS
10
3.49028
20
-5.4853
11
3.50152
21
-5.4853
0
LINE
8
BLACK
6
CONTINUOUS
10
3.50152
20
-5.4853
11
3.50902
21
-5.48905
0
LINE
8
BLACK
6
CONTINUOUS
10
3.50902
20
-5.48905
11
3.51277
21
-5.4928
0
LINE
8
BLACK
6
CONTINUOUS
10
3.51277
20
-5.4928
11
3.51652
21
-5.5003
0
LINE
8
BLACK
6
CONTINUOUS
10
3.51652
20
-5.5003
11
3.51652
21
-5.51905
0
LINE
8
BLACK
6
CONTINUOUS
10
3.51652
20
-5.51905
11
3.51277
21
-5.52655
0
LINE
8
BLACK
6
CONTINUOUS
10
3.51277
20
-5.52655
11
3.50902
21
-5.5303
0
LINE
8
BLACK
6
CONTINUOUS
10
3.50902
20
-5.5303
11
3.50152
21
-5.53405
0
LINE
8
BLACK
6
CONTINUOUS
10
3.50152
20
-5.53405
11
3.47903
21
-5.53405
0
LINE
8
BLACK
6
CONTINUOUS
10
3.47903
20
-5.53405
11
3.47153
21
-5.5303
0
LINE
8
BLACK
6
CONTINUOUS
10
3.47153
20
-5.5303
11
3.46778
21
-5.52655
0
LINE
8
BLACK
6
CONTINUOUS
10
3.55402
20
-5.53405
11
3.56902
21
-5.53405
0
LINE
8
BLACK
6
CONTINUOUS
10
3.56902
20
-5.53405
11
3.57652
21
-5.5303
0
LINE
8
BLACK
6
CONTINUOUS
10
3.57652
20
-5.5303
11
3.58026
21
-5.52655
0
LINE
8
BLACK
6
CONTINUOUS
10
3.58026
20
-5.52655
11
3.58776
21
-5.5153
0
LINE
8
BLACK
6
CONTINUOUS
10
3.58776
20
-5.5153
11
3.59151
21
-5.5003
0
LINE
8
BLACK
6
CONTINUOUS
10
3.59151
20
-5.5003
11
3.59151
21
-5.47031
0
LINE
8
BLACK
6
CONTINUOUS
10
3.59151
20
-5.47031
11
3.58776
21
-5.46281
0
LINE
8
BLACK
6
CONTINUOUS
10
3.58776
20
-5.46281
11
3.58401
21
-5.45906
0
LINE
8
BLACK
6
CONTINUOUS
10
3.58401
20
-5.45906
11
3.57652
21
-5.45531
0
LINE
8
BLACK
6
CONTINUOUS
10
3.57652
20
-5.45531
11
3.56152
21
-5.45531
0
LINE
8
BLACK
6
CONTINUOUS
10
3.56152
20
-5.45531
11
3.55402
21
-5.45906
0
LINE
8
BLACK
6
CONTINUOUS
10
3.55402
20
-5.45906
11
3.55027
21
-5.46281
0
LINE
8
BLACK
6
CONTINUOUS
10
3.55027
20
-5.46281
11
3.54652
21
-5.47031
0
LINE
8
BLACK
6
CONTINUOUS
10
3.54652
20
-5.47031
11
3.54652
21
-5.48905
0
LINE
8
BLACK
6
CONTINUOUS
10
3.54652
20
-5.48905
11
3.55027
21
-5.49655
0
LINE
8
BLACK
6
CONTINUOUS
10
3.55027
20
-5.49655
11
3.55402
21
-5.5003
0
LINE
8
BLACK
6
CONTINUOUS
10
3.55402
20
-5.5003
11
3.56152
21
-5.50405
0
LINE
8
BLACK
6
CONTINUOUS
10
3.56152
20
-5.50405
11
3.57652
21
-5.50405
0
LINE
8
BLACK
6
CONTINUOUS
10
3.57652
20
-5.50405
11
3.58401
21
-5.5003
0
LINE
8
BLACK
6
CONTINUOUS
10
3.58401
20
-5.5003
11
3.58776
21
-5.49655
0
LINE
8
BLACK
6
CONTINUOUS
10
3.58776
20
-5.49655
11
3.59151
21
-5.48905
0
LINE
8
BLACK
6
CONTINUOUS
10
3.62151
20
-5.45531
11
3.62151
21
-5.47031
0
LINE
8
BLACK
6
CONTINUOUS
10
3.65151
20
-5.45531
11
3.65151
21
-5.47031
0
LINE
8
BLACK
6
CONTINUOUS
10
3.76774
20
-5.56404
11
3.76399
21
-5.5603
0
LINE
8
BLACK
6
CONTINUOUS
10
3.76399
20
-5.5603
11
3.75649
21
-5.54905
0
LINE
8
BLACK
6
CONTINUOUS
10
3.75649
20
-5.54905
11
3.75274
21
-5.54155
0
LINE
8
BLACK
6
CONTINUOUS
10
3.75274
20
-5.54155
11
3.74899
21
-5.5303
0
LINE
8
BLACK
6
CONTINUOUS
10
3.74899
20
-5.5303
11
3.74524
21
-5.51155
0
LINE
8
BLACK
6
CONTINUOUS
10
3.74524
20
-5.51155
11
3.74524
21
-5.49655
0
LINE
8
BLACK
6
CONTINUOUS
10
3.74524
20
-5.49655
11
3.74899
21
-5.47781
0
LINE
8
BLACK
6
CONTINUOUS
10
3.74899
20
-5.47781
11
3.75274
21
-5.46656
0
LINE
8
BLACK
6
CONTINUOUS
10
3.75274
20
-5.46656
11
3.75649
21
-5.45906
0
LINE
8
BLACK
6
CONTINUOUS
10
3.75649
20
-5.45906
11
3.76399
21
-5.44781
0
LINE
8
BLACK
6
CONTINUOUS
10
3.76399
20
-5.44781
11
3.76774
21
-5.44406
0
LINE
8
BLACK
6
CONTINUOUS
10
3.80899
20
-5.48905
11
3.80149
21
-5.4853
0
LINE
8
BLACK
6
CONTINUOUS
10
3.80149
20
-5.4853
11
3.79774
21
-5.48156
0
LINE
8
BLACK
6
CONTINUOUS
10
3.79774
20
-5.48156
11
3.79399
21
-5.47406
0
LINE
8
BLACK
6
CONTINUOUS
10
3.79399
20
-5.47406
11
3.79399
21
-5.47031
0
LINE
8
BLACK
6
CONTINUOUS
10
3.79399
20
-5.47031
11
3.79774
21
-5.46281
0
LINE
8
BLACK
6
CONTINUOUS
10
3.79774
20
-5.46281
11
3.80149
21
-5.45906
0
LINE
8
BLACK
6
CONTINUOUS
10
3.80149
20
-5.45906
11
3.80899
21
-5.45531
0
LINE
8
BLACK
6
CONTINUOUS
10
3.80899
20
-5.45531
11
3.82398
21
-5.45531
0
LINE
8
BLACK
6
CONTINUOUS
10
3.82398
20
-5.45531
11
3.83148
21
-5.45906
0
LINE
8
BLACK
6
CONTINUOUS
10
3.83148
20
-5.45906
11
3.83523
21
-5.46281
0
LINE
8
BLACK
6
CONTINUOUS
10
3.83523
20
-5.46281
11
3.83898
21
-5.47031
0
LINE
8
BLACK
6
CONTINUOUS
10
3.83898
20
-5.47031
11
3.83898
21
-5.47406
0
LINE
8
BLACK
6
CONTINUOUS
10
3.83898
20
-5.47406
11
3.83523
21
-5.48156
0
LINE
8
BLACK
6
CONTINUOUS
10
3.83523
20
-5.48156
11
3.83148
21
-5.4853
0
LINE
8
BLACK
6
CONTINUOUS
10
3.83148
20
-5.4853
11
3.82398
21
-5.48905
0
LINE
8
BLACK
6
CONTINUOUS
10
3.82398
20
-5.48905
11
3.80899
21
-5.48905
0
LINE
8
BLACK
6
CONTINUOUS
10
3.80899
20
-5.48905
11
3.80149
21
-5.4928
0
LINE
8
BLACK
6
CONTINUOUS
10
3.80149
20
-5.4928
11
3.79774
21
-5.49655
0
LINE
8
BLACK
6
CONTINUOUS
10
3.79774
20
-5.49655
11
3.79399
21
-5.50405
0
LINE
8
BLACK
6
CONTINUOUS
10
3.79399
20
-5.50405
11
3.79399
21
-5.51905
0
LINE
8
BLACK
6
CONTINUOUS
10
3.79399
20
-5.51905
11
3.79774
21
-5.52655
0
LINE
8
BLACK
6
CONTINUOUS
10
3.79774
20
-5.52655
11
3.80149
21
-5.5303
0
LINE
8
BLACK
6
CONTINUOUS
10
3.80149
20
-5.5303
11
3.80899
21
-5.53405
0
LINE
8
BLACK
6
CONTINUOUS
10
3.80899
20
-5.53405
11
3.82398
21
-5.53405
0
LINE
8
BLACK
6
CONTINUOUS
10
3.82398
20
-5.53405
11
3.83148
21
-5.5303
0
LINE
8
BLACK
6
CONTINUOUS
10
3.83148
20
-5.5303
11
3.83523
21
-5.52655
0
LINE
8
BLACK
6
CONTINUOUS
10
3.83523
20
-5.52655
11
3.83898
21
-5.51905
0
LINE
8
BLACK
6
CONTINUOUS
10
3.83898
20
-5.51905
11
3.83898
21
-5.50405
0
LINE
8
BLACK
6
CONTINUOUS
10
3.83898
20
-5.50405
11
3.83523
21
-5.49655
0
LINE
8
BLACK
6
CONTINUOUS
10
3.83523
20
-5.49655
11
3.83148
21
-5.4928
0
LINE
8
BLACK
6
CONTINUOUS
10
3.83148
20
-5.4928
11
3.82398
21
-5.48905
0
LINE
8
BLACK
6
CONTINUOUS
10
3.93272
20
-5.53405
11
3.93272
21
-5.45531
0
LINE
8
BLACK
6
CONTINUOUS
10
3.96647
20
-5.53405
11
3.96647
21
-5.4928
0
LINE
8
BLACK
6
CONTINUOUS
10
3.96647
20
-5.4928
11
3.96272
21
-5.4853
0
LINE
8
BLACK
6
CONTINUOUS
10
3.96272
20
-5.4853
11
3.95522
21
-5.48156
0
LINE
8
BLACK
6
CONTINUOUS
10
3.95522
20
-5.48156
11
3.94397
21
-5.48156
0
LINE
8
BLACK
6
CONTINUOUS
10
3.94397
20
-5.48156
11
3.93647
21
-5.4853
0
LINE
8
BLACK
6
CONTINUOUS
10
3.93647
20
-5.4853
11
3.93272
21
-5.48905
0
LINE
8
BLACK
6
CONTINUOUS
10
4.01521
20
-5.53405
11
4.00771
21
-5.5303
0
LINE
8
BLACK
6
CONTINUOUS
10
4.00771
20
-5.5303
11
4.00396
21
-5.52655
0
LINE
8
BLACK
6
CONTINUOUS
10
4.00396
20
-5.52655
11
4.00021
21
-5.51905
0
LINE
8
BLACK
6
CONTINUOUS
10
4.00021
20
-5.51905
11
4.00021
21
-5.49655
0
LINE
8
BLACK
6
CONTINUOUS
10
4.00021
20
-5.49655
11
4.00396
21
-5.48905
0
LINE
8
BLACK
6
CONTINUOUS
10
4.00396
20
-5.48905
11
4.00771
21
-5.4853
0
LINE
8
BLACK
6
CONTINUOUS
10
4.00771
20
-5.4853
11
4.01521
21
-5.48156
0
LINE
8
BLACK
6
CONTINUOUS
10
4.01521
20
-5.48156
11
4.02646
21
-5.48156
0
LINE
8
BLACK
6
CONTINUOUS
10
4.02646
20
-5.48156
11
4.03396
21
-5.4853
0
LINE
8
BLACK
6
CONTINUOUS
10
4.03396
20
-5.4853
11
4.03771
21
-5.48905
0
LINE
8
BLACK
6
CONTINUOUS
10
4.03771
20
-5.48905
11
4.04146
21
-5.49655
0
LINE
8
BLACK
6
CONTINUOUS
10
4.04146
20
-5.49655
11
4.04146
21
-5.51905
0
LINE
8
BLACK
6
CONTINUOUS
10
4.04146
20
-5.51905
11
4.03771
21
-5.52655
0
LINE
8
BLACK
6
CONTINUOUS
10
4.03771
20
-5.52655
11
4.03396
21
-5.5303
0
LINE
8
BLACK
6
CONTINUOUS
10
4.03396
20
-5.5303
11
4.02646
21
-5.53405
0
LINE
8
BLACK
6
CONTINUOUS
10
4.02646
20
-5.53405
11
4.01521
21
-5.53405
0
LINE
8
BLACK
6
CONTINUOUS
10
4.08645
20
-5.53405
11
4.07895
21
-5.5303
0
LINE
8
BLACK
6
CONTINUOUS
10
4.07895
20
-5.5303
11
4.0752
21
-5.5228
0
LINE
8
BLACK
6
CONTINUOUS
10
4.0752
20
-5.5228
11
4.0752
21
-5.45531
0
LINE
8
BLACK
6
CONTINUOUS
10
4.14644
20
-5.5303
11
4.13894
21
-5.53405
0
LINE
8
BLACK
6
CONTINUOUS
10
4.13894
20
-5.53405
11
4.12395
21
-5.53405
0
LINE
8
BLACK
6
CONTINUOUS
10
4.12395
20
-5.53405
11
4.11645
21
-5.5303
0
LINE
8
BLACK
6
CONTINUOUS
10
4.11645
20
-5.5303
11
4.1127
21
-5.5228
0
LINE
8
BLACK
6
CONTINUOUS
10
4.1127
20
-5.5228
11
4.1127
21
-5.4928
0
LINE
8
BLACK
6
CONTINUOUS
10
4.1127
20
-5.4928
11
4.11645
21
-5.4853
0
LINE
8
BLACK
6
CONTINUOUS
10
4.11645
20
-5.4853
11
4.12395
21
-5.48156
0
LINE
8
BLACK
6
CONTINUOUS
10
4.12395
20
-5.48156
11
4.13894
21
-5.48156
0
LINE
8
BLACK
6
CONTINUOUS
10
4.13894
20
-5.48156
11
4.14644
21
-5.4853
0
LINE
8
BLACK
6
CONTINUOUS
10
4.14644
20
-5.4853
11
4.15019
21
-5.4928
0
LINE
8
BLACK
6
CONTINUOUS
10
4.15019
20
-5.4928
11
4.15019
21
-5.5003
0
LINE
8
BLACK
6
CONTINUOUS
10
4.15019
20
-5.5003
11
4.1127
21
-5.5078
0
LINE
8
BLACK
6
CONTINUOUS
10
4.18019
20
-5.5303
11
4.18769
21
-5.53405
0
LINE
8
BLACK
6
CONTINUOUS
10
4.18769
20
-5.53405
11
4.20269
21
-5.53405
0
LINE
8
BLACK
6
CONTINUOUS
10
4.20269
20
-5.53405
11
4.21019
21
-5.5303
0
LINE
8
BLACK
6
CONTINUOUS
10
4.21019
20
-5.5303
11
4.21394
21
-5.5228
0
LINE
8
BLACK
6
CONTINUOUS
10
4.21394
20
-5.5228
11
4.21394
21
-5.51905
0
LINE
8
BLACK
6
CONTINUOUS
10
4.21394
20
-5.51905
11
4.21019
21
-5.51155
0
LINE
8
BLACK
6
CONTINUOUS
10
4.21019
20
-5.51155
11
4.20269
21
-5.5078
0
LINE
8
BLACK
6
CONTINUOUS
10
4.20269
20
-5.5078
11
4.19144
21
-5.5078
0
LINE
8
BLACK
6
CONTINUOUS
10
4.19144
20
-5.5078
11
4.18394
21
-5.50405
0
LINE
8
BLACK
6
CONTINUOUS
10
4.18394
20
-5.50405
11
4.18019
21
-5.49655
0
LINE
8
BLACK
6
CONTINUOUS
10
4.18019
20
-5.49655
11
4.18019
21
-5.4928
0
LINE
8
BLACK
6
CONTINUOUS
10
4.18019
20
-5.4928
11
4.18394
21
-5.4853
0
LINE
8
BLACK
6
CONTINUOUS
10
4.18394
20
-5.4853
11
4.19144
21
-5.48156
0
LINE
8
BLACK
6
CONTINUOUS
10
4.19144
20
-5.48156
11
4.20269
21
-5.48156
0
LINE
8
BLACK
6
CONTINUOUS
10
4.20269
20
-5.48156
11
4.21019
21
-5.4853
0
LINE
8
BLACK
6
CONTINUOUS
10
4.24018
20
-5.56404
11
4.24393
21
-5.5603
0
LINE
8
BLACK
6
CONTINUOUS
10
4.24393
20
-5.5603
11
4.25143
21
-5.54905
0
LINE
8
BLACK
6
CONTINUOUS
10
4.25143
20
-5.54905
11
4.25518
21
-5.54155
0
LINE
8
BLACK
6
CONTINUOUS
10
4.25518
20
-5.54155
11
4.25893
21
-5.5303
0
LINE
8
BLACK
6
CONTINUOUS
10
4.25893
20
-5.5303
11
4.26268
21
-5.51155
0
LINE
8
BLACK
6
CONTINUOUS
10
4.26268
20
-5.51155
11
4.26268
21
-5.49655
0
LINE
8
BLACK
6
CONTINUOUS
10
4.26268
20
-5.49655
11
4.25893
21
-5.47781
0
LINE
8
BLACK
6
CONTINUOUS
10
4.25893
20
-5.47781
11
4.25518
21
-5.46656
0
LINE
8
BLACK
6
CONTINUOUS
10
4.25518
20
-5.46656
11
4.25143
21
-5.45906
0
LINE
8
BLACK
6
CONTINUOUS
10
4.25143
20
-5.45906
11
4.24393
21
-5.44781
0
LINE
8
BLACK
6
CONTINUOUS
10
4.24393
20
-5.44781
11
4.24018
21
-5.44406
0
LINE
8
BLACK
6
CONTINUOUS
10
4.38266
20
-5.56404
11
4.37891
21
-5.5603
0
LINE
8
BLACK
6
CONTINUOUS
10
4.37891
20
-5.5603
11
4.37142
21
-5.54905
0
LINE
8
BLACK
6
CONTINUOUS
10
4.37142
20
-5.54905
11
4.36767
21
-5.54155
0
LINE
8
BLACK
6
CONTINUOUS
10
4.36767
20
-5.54155
11
4.36392
21
-5.5303
0
LINE
8
BLACK
6
CONTINUOUS
10
4.36392
20
-5.5303
11
4.36017
21
-5.51155
0
LINE
8
BLACK
6
CONTINUOUS
10
4.36017
20
-5.51155
11
4.36017
21
-5.49655
0
LINE
8
BLACK
6
CONTINUOUS
10
4.36017
20
-5.49655
11
4.36392
21
-5.47781
0
LINE
8
BLACK
6
CONTINUOUS
10
4.36392
20
-5.47781
11
4.36767
21
-5.46656
0
LINE
8
BLACK
6
CONTINUOUS
10
4.36767
20
-5.46656
11
4.37142
21
-5.45906
0
LINE
8
BLACK
6
CONTINUOUS
10
4.37142
20
-5.45906
11
4.37891
21
-5.44781
0
LINE
8
BLACK
6
CONTINUOUS
10
4.37891
20
-5.44781
11
4.38266
21
-5.44406
0
LINE
8
BLACK
6
CONTINUOUS
10
4.41266
20
-5.48156
11
4.41266
21
-5.53405
0
LINE
8
BLACK
6
CONTINUOUS
10
4.41266
20
-5.48905
11
4.41641
21
-5.4853
0
LINE
8
BLACK
6
CONTINUOUS
10
4.41641
20
-5.4853
11
4.42391
21
-5.48156
0
LINE
8
BLACK
6
CONTINUOUS
10
4.42391
20
-5.48156
11
4.43516
21
-5.48156
0
LINE
8
BLACK
6
CONTINUOUS
10
4.43516
20
-5.48156
11
4.44266
21
-5.4853
0
LINE
8
BLACK
6
CONTINUOUS
10
4.44266
20
-5.4853
11
4.44641
21
-5.4928
0
LINE
8
BLACK
6
CONTINUOUS
10
4.44641
20
-5.4928
11
4.44641
21
-5.53405
0
LINE
8
BLACK
6
CONTINUOUS
10
4.49515
20
-5.53405
11
4.48765
21
-5.5303
0
LINE
8
BLACK
6
CONTINUOUS
10
4.48765
20
-5.5303
11
4.4839
21
-5.52655
0
LINE
8
BLACK
6
CONTINUOUS
10
4.4839
20
-5.52655
11
4.48015
21
-5.51905
0
LINE
8
BLACK
6
CONTINUOUS
10
4.48015
20
-5.51905
11
4.48015
21
-5.49655
0
LINE
8
BLACK
6
CONTINUOUS
10
4.48015
20
-5.49655
11
4.4839
21
-5.48905
0
LINE
8
BLACK
6
CONTINUOUS
10
4.4839
20
-5.48905
11
4.48765
21
-5.4853
0
LINE
8
BLACK
6
CONTINUOUS
10
4.48765
20
-5.4853
11
4.49515
21
-5.48156
0
LINE
8
BLACK
6
CONTINUOUS
10
4.49515
20
-5.48156
11
4.5064
21
-5.48156
0
LINE
8
BLACK
6
CONTINUOUS
10
4.5064
20
-5.48156
11
4.5139
21
-5.4853
0
LINE
8
BLACK
6
CONTINUOUS
10
4.5139
20
-5.4853
11
4.51765
21
-5.48905
0
LINE
8
BLACK
6
CONTINUOUS
10
4.51765
20
-5.48905
11
4.5214
21
-5.49655
0
LINE
8
BLACK
6
CONTINUOUS
10
4.5214
20
-5.49655
11
4.5214
21
-5.51905
0
LINE
8
BLACK
6
CONTINUOUS
10
4.5214
20
-5.51905
11
4.51765
21
-5.52655
0
LINE
8
BLACK
6
CONTINUOUS
10
4.51765
20
-5.52655
11
4.5139
21
-5.5303
0
LINE
8
BLACK
6
CONTINUOUS
10
4.5139
20
-5.5303
11
4.5064
21
-5.53405
0
LINE
8
BLACK
6
CONTINUOUS
10
4.5064
20
-5.53405
11
4.49515
21
-5.53405
0
LINE
8
BLACK
6
CONTINUOUS
10
4.54389
20
-5.48156
11
4.57389
21
-5.48156
0
LINE
8
BLACK
6
CONTINUOUS
10
4.55514
20
-5.45531
11
4.55514
21
-5.5228
0
LINE
8
BLACK
6
CONTINUOUS
10
4.55514
20
-5.5228
11
4.55889
21
-5.5303
0
LINE
8
BLACK
6
CONTINUOUS
10
4.55889
20
-5.5303
11
4.56639
21
-5.53405
0
LINE
8
BLACK
6
CONTINUOUS
10
4.56639
20
-5.53405
11
4.57389
21
-5.53405
0
LINE
8
BLACK
6
CONTINUOUS
10
4.66013
20
-5.48156
11
4.66013
21
-5.5603
0
LINE
8
BLACK
6
CONTINUOUS
10
4.66013
20
-5.4853
11
4.66763
21
-5.48156
0
LINE
8
BLACK
6
CONTINUOUS
10
4.66763
20
-5.48156
11
4.68263
21
-5.48156
0
LINE
8
BLACK
6
CONTINUOUS
10
4.68263
20
-5.48156
11
4.69013
21
-5.4853
0
LINE
8
BLACK
6
CONTINUOUS
10
4.69013
20
-5.4853
11
4.69388
21
-5.48905
0
LINE
8
BLACK
6
CONTINUOUS
10
4.69388
20
-5.48905
11
4.69763
21
-5.49655
0
LINE
8
BLACK
6
CONTINUOUS
10
4.69763
20
-5.49655
11
4.69763
21
-5.51905
0
LINE
8
BLACK
6
CONTINUOUS
10
4.69763
20
-5.51905
11
4.69388
21
-5.52655
0
LINE
8
BLACK
6
CONTINUOUS
10
4.69388
20
-5.52655
11
4.69013
21
-5.5303
0
LINE
8
BLACK
6
CONTINUOUS
10
4.69013
20
-5.5303
11
4.68263
21
-5.53405
0
LINE
8
BLACK
6
CONTINUOUS
10
4.68263
20
-5.53405
11
4.66763
21
-5.53405
0
LINE
8
BLACK
6
CONTINUOUS
10
4.66763
20
-5.53405
11
4.66013
21
-5.5303
0
LINE
8
BLACK
6
CONTINUOUS
10
4.74262
20
-5.53405
11
4.73512
21
-5.5303
0
LINE
8
BLACK
6
CONTINUOUS
10
4.73512
20
-5.5303
11
4.73137
21
-5.5228
0
LINE
8
BLACK
6
CONTINUOUS
10
4.73137
20
-5.5228
11
4.73137
21
-5.45531
0
LINE
8
BLACK
6
CONTINUOUS
10
4.80636
20
-5.53405
11
4.80636
21
-5.4928
0
LINE
8
BLACK
6
CONTINUOUS
10
4.80636
20
-5.4928
11
4.80261
21
-5.4853
0
LINE
8
BLACK
6
CONTINUOUS
10
4.80261
20
-5.4853
11
4.79511
21
-5.48156
0
LINE
8
BLACK
6
CONTINUOUS
10
4.79511
20
-5.48156
11
4.78011
21
-5.48156
0
LINE
8
BLACK
6
CONTINUOUS
10
4.78011
20
-5.48156
11
4.77262
21
-5.4853
0
LINE
8
BLACK
6
CONTINUOUS
10
4.80636
20
-5.5303
11
4.79886
21
-5.53405
0
LINE
8
BLACK
6
CONTINUOUS
10
4.79886
20
-5.53405
11
4.78011
21
-5.53405
0
LINE
8
BLACK
6
CONTINUOUS
10
4.78011
20
-5.53405
11
4.77262
21
-5.5303
0
LINE
8
BLACK
6
CONTINUOUS
10
4.77262
20
-5.5303
11
4.76887
21
-5.5228
0
LINE
8
BLACK
6
CONTINUOUS
10
4.76887
20
-5.5228
11
4.76887
21
-5.5153
0
LINE
8
BLACK
6
CONTINUOUS
10
4.76887
20
-5.5153
11
4.77262
21
-5.5078
0
LINE
8
BLACK
6
CONTINUOUS
10
4.77262
20
-5.5078
11
4.78011
21
-5.50405
0
LINE
8
BLACK
6
CONTINUOUS
10
4.78011
20
-5.50405
11
4.79886
21
-5.50405
0
LINE
8
BLACK
6
CONTINUOUS
10
4.79886
20
-5.50405
11
4.80636
21
-5.5003
0
LINE
8
BLACK
6
CONTINUOUS
10
4.83261
20
-5.48156
11
4.8626
21
-5.48156
0
LINE
8
BLACK
6
CONTINUOUS
10
4.84386
20
-5.45531
11
4.84386
21
-5.5228
0
LINE
8
BLACK
6
CONTINUOUS
10
4.84386
20
-5.5228
11
4.84761
21
-5.5303
0
LINE
8
BLACK
6
CONTINUOUS
10
4.84761
20
-5.5303
11
4.85511
21
-5.53405
0
LINE
8
BLACK
6
CONTINUOUS
10
4.85511
20
-5.53405
11
4.8626
21
-5.53405
0
LINE
8
BLACK
6
CONTINUOUS
10
4.91885
20
-5.5303
11
4.91135
21
-5.53405
0
LINE
8
BLACK
6
CONTINUOUS
10
4.91135
20
-5.53405
11
4.89635
21
-5.53405
0
LINE
8
BLACK
6
CONTINUOUS
10
4.89635
20
-5.53405
11
4.88885
21
-5.5303
0
LINE
8
BLACK
6
CONTINUOUS
10
4.88885
20
-5.5303
11
4.8851
21
-5.5228
0
LINE
8
BLACK
6
CONTINUOUS
10
4.8851
20
-5.5228
11
4.8851
21
-5.4928
0
LINE
8
BLACK
6
CONTINUOUS
10
4.8851
20
-5.4928
11
4.88885
21
-5.4853
0
LINE
8
BLACK
6
CONTINUOUS
10
4.88885
20
-5.4853
11
4.89635
21
-5.48156
0
LINE
8
BLACK
6
CONTINUOUS
10
4.89635
20
-5.48156
11
4.91135
21
-5.48156
0
LINE
8
BLACK
6
CONTINUOUS
10
4.91135
20
-5.48156
11
4.91885
21
-5.4853
0
LINE
8
BLACK
6
CONTINUOUS
10
4.91885
20
-5.4853
11
4.9226
21
-5.4928
0
LINE
8
BLACK
6
CONTINUOUS
10
4.9226
20
-5.4928
11
4.9226
21
-5.5003
0
LINE
8
BLACK
6
CONTINUOUS
10
4.9226
20
-5.5003
11
4.8851
21
-5.5078
0
LINE
8
BLACK
6
CONTINUOUS
10
4.99009
20
-5.53405
11
4.99009
21
-5.45531
0
LINE
8
BLACK
6
CONTINUOUS
10
4.99009
20
-5.5303
11
4.98259
21
-5.53405
0
LINE
8
BLACK
6
CONTINUOUS
10
4.98259
20
-5.53405
11
4.96759
21
-5.53405
0
LINE
8
BLACK
6
CONTINUOUS
10
4.96759
20
-5.53405
11
4.96009
21
-5.5303
0
LINE
8
BLACK
6
CONTINUOUS
10
4.96009
20
-5.5303
11
4.95634
21
-5.52655
0
LINE
8
BLACK
6
CONTINUOUS
10
4.95634
20
-5.52655
11
4.95259
21
-5.51905
0
LINE
8
BLACK
6
CONTINUOUS
10
4.95259
20
-5.51905
11
4.95259
21
-5.49655
0
LINE
8
BLACK
6
CONTINUOUS
10
4.95259
20
-5.49655
11
4.95634
21
-5.48905
0
LINE
8
BLACK
6
CONTINUOUS
10
4.95634
20
-5.48905
11
4.96009
21
-5.4853
0
LINE
8
BLACK
6
CONTINUOUS
10
4.96009
20
-5.4853
11
4.96759
21
-5.48156
0
LINE
8
BLACK
6
CONTINUOUS
10
4.96759
20
-5.48156
11
4.98259
21
-5.48156
0
LINE
8
BLACK
6
CONTINUOUS
10
4.98259
20
-5.48156
11
4.99009
21
-5.4853
0
LINE
8
BLACK
6
CONTINUOUS
10
5.02008
20
-5.56404
11
5.02383
21
-5.5603
0
LINE
8
BLACK
6
CONTINUOUS
10
5.02383
20
-5.5603
11
5.03133
21
-5.54905
0
LINE
8
BLACK
6
CONTINUOUS
10
5.03133
20
-5.54905
11
5.03508
21
-5.54155
0
LINE
8
BLACK
6
CONTINUOUS
10
5.03508
20
-5.54155
11
5.03883
21
-5.5303
0
LINE
8
BLACK
6
CONTINUOUS
10
5.03883
20
-5.5303
11
5.04258
21
-5.51155
0
LINE
8
BLACK
6
CONTINUOUS
10
5.04258
20
-5.51155
11
5.04258
21
-5.49655
0
LINE
8
BLACK
6
CONTINUOUS
10
5.04258
20
-5.49655
11
5.03883
21
-5.47781
0
LINE
8
BLACK
6
CONTINUOUS
10
5.03883
20
-5.47781
11
5.03508
21
-5.46656
0
LINE
8
BLACK
6
CONTINUOUS
10
5.03508
20
-5.46656
11
5.03133
21
-5.45906
0
LINE
8
BLACK
6
CONTINUOUS
10
5.03133
20
-5.45906
11
5.02383
21
-5.44781
0
LINE
8
BLACK
6
CONTINUOUS
10
5.02383
20
-5.44781
11
5.02008
21
-5.44406
  0
ENDSEC
  0
EOF
